<svg width="330" height="192" viewBox="0 0 330 192" fill="none" xmlns="http://www.w3.org/2000/svg">
<path d="M185.086 155.04C184.367 155.361 183.607 155.337 182.808 154.968C182.046 154.582 180.959 153.773 179.549 152.543C178.639 151.724 177.742 150.831 176.857 149.865C175.993 148.844 175.112 147.581 174.214 146.077C173.316 144.572 172.369 142.703 171.373 140.471C170.327 138.125 169.387 135.46 168.554 132.475C167.705 129.451 166.998 126.546 166.435 123.758C166.054 121.886 165.984 120.511 166.227 119.631C166.453 118.714 166.982 118.07 167.815 117.698C168.344 117.462 168.765 117.592 169.077 118.088C169.372 118.546 169.64 119.197 169.881 120.043C170.228 121.43 170.613 123.005 171.036 124.767C171.459 126.529 171.908 128.348 172.381 130.223C172.893 132.081 173.444 133.877 174.036 135.609C174.61 137.303 175.211 138.804 175.84 140.112C176.793 142.045 177.696 143.661 178.547 144.96C179.437 146.242 180.271 147.299 181.05 148.13C181.851 148.907 182.565 149.542 183.192 150.033C183.819 150.524 184.356 150.965 184.803 151.356C185.232 151.708 185.548 152.112 185.751 152.566C185.97 153.058 186.024 153.533 185.911 153.992C185.852 154.471 185.577 154.821 185.086 155.04ZM176.48 137.581C175.409 138.331 174.555 138.757 173.92 138.859C173.285 138.961 172.806 138.902 172.481 138.684C172.157 138.466 171.953 138.262 171.868 138.073C171.649 137.581 171.547 137.15 171.564 136.78C171.618 136.393 171.811 136.012 172.143 135.637C172.512 135.245 173.069 134.815 173.813 134.347C175.834 133.083 178.062 131.771 180.496 130.414C182.929 129.056 185.197 127.885 187.299 126.902C188.434 126.396 189.252 126.144 189.752 126.148C190.236 126.114 190.604 126.38 190.858 126.948C191.212 127.742 191.087 128.479 190.482 129.157C189.877 129.835 188.682 130.663 186.895 131.641C185.092 132.582 183.592 133.387 182.394 134.058C181.179 134.691 180.105 135.283 179.172 135.835C178.277 136.371 177.379 136.953 176.48 137.581ZM162.647 122.589C162.193 122.792 161.752 122.921 161.323 122.976C160.915 122.976 160.566 122.905 160.275 122.763C159.968 122.582 159.747 122.341 159.612 122.038C159.409 121.584 159.354 121.155 159.446 120.751C159.521 120.309 159.827 119.878 160.365 119.456C162.05 118.251 164.093 116.932 166.493 115.498C168.893 114.065 171.394 112.654 173.995 111.267C176.597 109.879 179.014 108.687 181.246 107.691C182.003 107.354 182.67 107.17 183.246 107.14C183.86 107.093 184.375 107.18 184.792 107.403C185.209 107.625 185.519 107.963 185.721 108.417C185.94 108.909 185.912 109.353 185.635 109.749C185.395 110.128 184.803 110.528 183.857 110.95C179.846 112.739 176.414 114.452 173.56 116.088C170.706 117.724 168.382 119.124 166.588 120.287C164.793 121.45 163.48 122.218 162.647 122.589Z" fill="#7831B2"/>
<path d="M210.622 143.784C210.168 143.987 209.703 144.013 209.227 143.862C208.807 143.732 208.392 143.463 207.983 143.056C207.596 142.594 207.258 142.041 206.971 141.398C205.891 138.977 204.756 136.534 203.567 134.071C202.377 131.608 201.215 129.359 200.081 127.324C198.984 125.273 197.979 123.68 197.064 122.546C196.449 121.777 195.994 121.163 195.699 120.705C195.404 120.247 195.146 119.772 194.927 119.28C194.64 118.637 194.555 118.04 194.672 117.489C194.789 116.938 195.15 116.527 195.756 116.257C196.285 116.021 196.929 116.142 197.687 116.62C198.445 117.099 199.355 118.122 200.417 119.689C201.462 121.219 202.698 123.48 204.124 126.473C205.571 129.412 207.229 133.231 209.099 137.931L206.731 136.13C205.076 132.014 204.057 128.408 203.674 125.313C203.329 122.201 203.445 119.563 204.023 117.4C204.6 115.237 205.456 113.495 206.59 112.172C207.762 110.833 209.048 109.851 210.447 109.226C211.204 108.889 211.791 108.831 212.208 109.054C212.607 109.238 212.9 109.539 213.086 109.955C213.255 110.333 213.299 110.789 213.22 111.324C213.124 111.82 212.771 112.25 212.162 112.612C210.384 113.814 209.114 115.288 208.351 117.034C207.609 118.726 207.254 120.677 207.286 122.885C207.319 125.093 207.667 127.501 208.331 130.108C208.995 132.715 209.874 135.499 210.968 138.458C211.398 139.627 211.681 140.567 211.817 141.278C211.936 141.95 211.894 142.468 211.693 142.83C211.508 143.23 211.151 143.548 210.622 143.784Z" fill="#7831B2"/>
<path d="M239.151 130.921C236.465 132.119 234.034 132.568 231.859 132.269C229.667 131.931 227.741 131.021 226.082 129.538C224.444 128.001 223.084 126.022 222.004 123.6C221.16 121.708 220.657 119.665 220.494 117.469C220.314 115.236 220.521 113.057 221.116 110.932C221.693 108.769 222.66 106.818 224.016 105.079C225.394 103.285 227.198 101.89 229.43 100.894C231.928 99.78 234.218 99.5749 236.301 100.279C238.422 100.966 240.107 102.709 241.356 105.509C242.25 107.514 242.413 109.505 241.844 111.483C241.274 113.461 240.126 115.311 238.4 117.034C236.657 118.719 234.461 120.152 231.812 121.334C229.467 122.38 227.732 122.814 226.609 122.635C225.523 122.438 224.829 122 224.525 121.319C224.339 120.903 224.299 120.558 224.403 120.284C224.529 119.956 224.857 119.674 225.387 119.437C225.803 119.252 226.366 119.091 227.077 118.955C227.788 118.82 228.767 118.474 230.016 117.917C232.097 116.988 233.776 115.922 235.053 114.717C236.368 113.495 237.23 112.226 237.641 110.909C238.072 109.537 238.009 108.226 237.452 106.978C236.811 105.54 235.97 104.622 234.931 104.224C233.929 103.809 232.596 103.973 230.931 104.716C228.888 105.627 227.323 107.051 226.236 108.987C225.187 110.907 224.629 113.061 224.561 115.451C224.53 117.823 225.022 120.145 226.034 122.415C226.709 123.928 227.571 125.199 228.62 126.228C229.669 127.257 230.911 127.906 232.346 128.173C233.818 128.423 235.481 128.135 237.335 127.308C239.341 126.413 240.896 125.425 242 124.342C243.126 123.205 243.981 122.12 244.564 121.089C245.185 120.041 245.67 119.144 246.018 118.399C246.387 117.599 246.817 117.09 247.309 116.87C247.725 116.685 248.068 116.691 248.338 116.888C248.607 117.085 248.868 117.468 249.122 118.035C249.425 118.716 249.385 119.642 248.999 120.812C248.635 121.927 247.989 123.122 247.061 124.398C246.133 125.674 245.003 126.904 243.671 128.088C242.323 129.234 240.816 130.178 239.151 130.921Z" fill="#7831B2"/>
<path d="M270.076 117.125C267.39 118.323 264.96 118.772 262.784 118.472C260.592 118.135 258.667 117.225 257.007 115.742C255.369 114.205 254.009 112.225 252.929 109.804C252.085 107.912 251.582 105.869 251.419 103.673C251.239 101.44 251.447 99.2606 252.041 97.1355C252.618 94.9726 253.585 93.0216 254.942 91.2824C256.319 89.4885 258.123 88.0937 260.356 87.0979C262.02 86.3552 263.593 86.0165 265.074 86.0818C266.592 86.1301 267.971 86.6267 269.209 87.5714C270.43 88.4783 271.454 89.8587 272.281 91.7126C273.176 93.7178 273.338 95.7093 272.769 97.6871C272.2 99.665 271.052 101.515 269.325 103.238C267.582 104.923 265.386 106.356 262.738 107.538C260.392 108.584 258.657 109.018 257.534 108.839C256.448 108.642 255.754 108.204 255.45 107.523C255.264 107.107 255.224 106.762 255.329 106.488C255.454 106.16 255.782 105.878 256.312 105.641C256.728 105.456 257.291 105.295 258.002 105.159C258.713 105.024 259.692 104.677 260.941 104.121C263.022 103.192 264.701 102.126 265.978 100.921C267.293 99.6991 268.155 98.4297 268.566 97.1125C268.997 95.7406 268.934 94.4304 268.377 93.1818C267.736 91.7441 266.896 90.8262 265.856 90.428C264.854 90.013 263.521 90.1768 261.856 90.9194C260.305 91.6115 259.028 92.6123 258.024 93.9219C257.042 95.1767 256.348 96.6205 255.942 98.2532C255.536 99.8858 255.414 101.596 255.577 103.383C255.739 105.171 256.2 106.916 256.96 108.619C257.635 110.132 258.497 111.403 259.545 112.432C260.594 113.461 261.836 114.11 263.271 114.377C264.743 114.627 266.407 114.339 268.261 113.512C270.266 112.617 271.821 111.629 272.926 110.546C274.051 109.409 274.906 108.324 275.489 107.293C276.11 106.245 276.595 105.348 276.943 104.603C277.312 103.803 277.742 103.294 278.234 103.074C278.65 102.889 278.993 102.894 279.263 103.092C279.532 103.289 279.794 103.672 280.047 104.239C280.351 104.92 280.31 105.846 279.924 107.015C279.56 108.131 278.914 109.326 277.986 110.602C277.058 111.878 275.928 113.108 274.597 114.292C273.248 115.438 271.741 116.382 270.076 117.125Z" fill="#7831B2"/>
<path fill-rule="evenodd" clip-rule="evenodd" d="M323.916 102.895C325.233 96.1781 325.078 89.6384 323.307 83.4851C318.699 67.4718 303.922 56.8241 283.416 52.5213C262.794 48.1939 235.271 50.295 207.787 60.2185C163.202 76.3163 130.862 107.65 125.245 136.309C123.928 143.025 124.083 149.565 125.854 155.718C130.462 171.732 145.239 182.379 165.745 186.682C186.368 191.01 212.891 188.908 240.375 178.985C284.959 162.887 318.299 131.553 323.916 102.895ZM326.265 103.269C327.633 96.2871 327.483 89.4334 325.615 82.9415C315.81 48.8705 262.403 37.664 206.327 57.9109C160.936 74.2999 127.71 106.274 121.896 135.935C120.528 142.916 120.678 149.77 122.546 156.262C132.351 190.333 185.758 201.54 241.834 181.293C287.225 164.904 320.451 132.929 326.265 103.269Z" fill="#7831B2"/>
<path fill-rule="evenodd" clip-rule="evenodd" d="M309.296 133.373C324.089 116.008 329.308 97.6021 324.815 81.9899C320.322 66.3778 305.678 55.5049 284.615 51.0853C263.624 46.6805 236.798 48.8513 209.179 58.8235C181.56 68.7956 157.652 84.582 142.909 101.889C128.116 119.255 121.897 137.661 126.39 153.273C130.883 168.885 145.527 180.758 166.59 185.177C187.581 189.582 215.407 186.411 243.026 176.439C270.645 166.467 294.553 150.681 309.296 133.373ZM243.856 179.322C299.932 159.075 337.442 115.042 327.637 80.9711C317.832 46.9001 264.425 35.6936 208.349 55.9405C152.273 76.1874 114.763 120.221 124.568 154.292C134.373 188.363 187.78 199.569 243.856 179.322Z" fill="#7831B2"/>
<path d="M72.2435 92.3498C52.8755 90.3169 33.0247 86.5673 19.7433 80.281C5.50731 73.9221 -2.28022 65.0733 3.79148 53.0413C14.9621 30.9048 13.425 17.5473 9.61663 9.40305C13.9295 17.5735 16.042 31.0117 4.67136 53.5444C-0.98089 64.7453 6.46848 73.6447 18.5099 79.6804C18.9144 79.8831 19.3256 80.0833 19.7433 80.281C33.4646 86.4101 53.1767 90.226 72.2435 92.3498Z" fill="#7831B2"/>
<path fill-rule="evenodd" clip-rule="evenodd" d="M2.95657 0.773246C3.22786 0.284119 3.76303 -0.0328869 4.35864 0.00272045L16.0395 0.701046L17.5819 0.751345C17.734 0.756307 17.8801 0.783758 18.0171 0.830403C18.7522 0.965004 19.2881 1.63026 19.2424 2.3952C19.193 3.22215 18.4825 3.85245 17.6555 3.80301L15.9011 3.69813L7.78425 3.43341C8.87241 4.90645 9.98555 6.65743 10.9601 8.73486C15.5454 17.4466 17.5234 31.4056 6.01051 54.2202C3.41484 59.3639 3.84854 63.8388 6.23742 67.7704C8.68899 71.8052 13.2768 75.3794 19.182 78.3394C19.5714 78.5345 19.9675 78.7274 20.3702 78.9182C33.8723 84.9456 53.3868 88.7399 72.4052 90.8585C85.5012 92.2328 98.378 92.8192 108.83 92.8729C109.658 92.8772 110.326 93.5522 110.322 94.3806C110.32 94.6616 110.242 94.9242 110.106 95.1483C109.87 95.6728 109.342 96.0368 108.73 96.0336C98.2954 95.98 85.3439 95.318 72.0818 93.841C52.6912 91.8055 32.6375 88.0394 19.1162 81.6437C11.9101 78.423 6.09805 74.4764 2.89883 69.6129C-0.388171 64.616 -0.804669 58.8198 2.45232 52.3655C13.4637 30.5446 11.8229 17.6892 8.27317 10.0712C7.41495 8.45056 6.46406 7.04529 5.51364 5.81837L5.28611 9.62424L5.0993 15.3522C5.0723 16.1802 4.37919 16.8295 3.5512 16.8025C2.88215 16.7807 2.32975 16.324 2.15658 15.7126C2.01937 15.4696 1.94827 15.1857 1.96616 14.8865L2.28903 9.48581L2.54094 1.76161C2.55348 1.37697 2.70978 1.03088 2.95657 0.773246Z" fill="#7831B2"/>
</svg>
