<svg width="512" height="564" viewBox="0 0 512 564" fill="none" xmlns="http://www.w3.org/2000/svg">
<path d="M162.043 39.9072L176.12 47.3233L173.527 31.7495C173.527 31.7495 174.256 31.0434 175.347 29.987C177.494 27.9068 181.044 24.4681 183.192 22.3878C184.283 21.3314 185.012 20.6253 185.012 20.6253L169.082 18.4005L162.043 3.93913L155.004 18.4005L139.444 20.6253L150.929 31.7495L148.335 47.3233L162.043 39.9072ZM162.043 39.9072V145.957M162.043 275.739V244.591H193.162M139.074 190.825H123.514C123.514 190.825 126.478 165.981 131.294 165.981C135.739 165.981 139.074 190.825 139.074 190.825ZM139.074 190.825H154.633M139.074 190.825C139.074 190.825 142.037 165.981 146.853 165.981C151.299 165.981 154.633 190.825 154.633 190.825M139.074 190.825L141.012 188.887H156.571L154.633 190.825M154.263 190.825H169.822M154.263 190.825C154.263 190.825 157.597 165.981 162.043 165.981C166.488 165.981 169.822 190.825 169.822 190.825M154.263 190.825L156.201 188.887H171.761L169.822 190.825M169.822 190.825H185.382M169.822 190.825C169.822 190.825 173.157 165.981 177.602 165.981C182.048 165.981 185.382 190.825 185.382 190.825M185.382 190.825H200.942M185.382 190.825C185.382 190.825 188.716 165.981 193.162 165.981C197.608 165.981 200.942 190.825 200.942 190.825M185.382 190.825L187.321 188.887H202.88L200.942 190.825M210.574 459.658H230.975C231.479 459.658 231.936 459.453 232.267 459.122C232.598 458.792 232.802 458.335 232.802 457.831V300.185C232.802 299.176 231.984 298.358 230.975 298.358H93.4811C92.9763 298.358 92.5193 298.563 92.1885 298.893C91.8579 299.224 91.6535 299.681 91.6535 300.185V457.831C91.6535 458.84 92.4717 459.658 93.4811 459.658H114.252H52.0133V513.425M307.266 432.589V417.757M307.266 417.757C307.266 417.757 307.266 417.757 307.266 367.328M307.266 417.757V367.328M307.266 417.757L309.205 415.819L309.204 365.39M307.266 367.328C303.315 369.11 300.007 371.496 297.238 374.262M307.266 367.328L309.204 365.39M259.105 432.589V417.757C259.105 417.757 259.105 417.757 259.105 367.328C285.409 379.193 283.186 417.757 283.186 417.757C283.186 417.757 281.581 389.911 297.238 374.262M387.099 432.589V417.757C387.099 417.757 387.099 417.757 387.099 367.327C383.148 369.11 379.84 371.495 377.071 374.262C361.414 389.91 363.019 417.757 363.019 417.757C363.019 417.757 365.242 379.193 338.938 367.327C338.938 417.757 338.938 417.757 338.938 417.757V432.589M66.0911 433.331V418.128C66.0911 418.128 66.0911 418.128 66.0911 367.698C62.1393 369.481 58.8313 371.866 56.063 374.633C40.4056 390.281 42.0107 418.128 42.0107 418.128C42.0107 418.128 44.2335 379.564 17.9302 367.698C17.9302 418.128 17.9302 418.128 17.9302 418.128M17.9302 418.128V433.331L19.8685 431.392V416.189L17.9302 418.128ZM2 433.702H91.6535M232.802 433.702H508.061M212.797 459.658H270.615C271.624 459.658 272.442 460.476 272.442 461.485V562M108.325 316.898V332.472M162.043 316.898V332.472M216.131 316.898V332.472M210.204 495.626V455.208C210.204 455.208 207.981 445.938 198.719 437.41C183.9 424.061 172.416 407.745 163.524 389.947L162.043 386.609M162.043 386.609L161.302 388.463M162.043 386.609L163.98 384.671L163.24 386.525L161.302 388.463M161.302 388.463C152.41 407.374 139.444 424.061 124.625 439.264C116.845 447.051 114.993 455.208 114.993 455.208V465.962M2 447.051H39.4174M2 464.478H31.6375M307.637 460.029H338.756M323.197 475.603H343.572M482.128 530.111H508.061M495.094 547.168H508.061M91.6535 349.158H232.802M215.596 298.193C215.265 298.524 214.808 298.729 214.304 298.729H110.152C109.143 298.729 108.325 297.911 108.325 296.902V192.652C108.325 192.147 108.529 191.69 108.86 191.36M215.596 298.193C215.927 297.863 216.131 297.406 216.131 296.902V192.652C216.131 191.643 215.313 190.825 214.304 190.825H110.152C109.648 190.825 109.191 191.029 108.86 191.36M215.596 298.193L217.534 296.256M215.596 298.193C215.837 297.952 216.011 297.645 216.087 297.3C216.143 297.05 216.233 296.8 216.415 296.618L217.054 295.979C217.429 295.604 217.909 295.882 217.534 296.256M215.596 298.193C215.221 298.568 214.944 298.089 215.319 297.714L215.958 297.075C216.14 296.893 216.39 296.804 216.641 296.748C216.985 296.671 217.293 296.497 217.534 296.256M108.86 191.36L110.798 189.422C111.173 189.048 111.45 189.527 111.076 189.902L110.436 190.541C110.254 190.723 110.005 190.813 109.754 190.869C109.409 190.945 109.101 191.119 108.86 191.36ZM297.238 374.262L299.176 372.324C301.944 369.558 305.252 367.172 309.204 365.39M163.984 37.9687L178.061 45.3848L176.123 47.3228L162.045 39.9067M163.984 37.9687L162.045 39.9067M163.984 37.9687V144.019L162.045 145.957V39.9067M195.1 164.04C199.545 164.04 202.88 188.884 202.88 188.884L200.941 190.822C200.941 190.822 197.607 165.978 193.161 165.978M195.1 164.04L193.161 165.978M195.1 164.04C194.332 164.04 193.599 164.78 192.909 166.005M193.161 165.978C193.077 165.978 192.993 165.987 192.909 166.005M202.713 188.35L200.775 190.288M202.713 188.35C203.088 187.975 202.608 187.698 202.234 188.073L201.594 188.712C201.412 188.894 201.322 189.144 201.266 189.394C201.19 189.739 201.016 190.047 200.775 190.288M202.713 188.35C202.713 188.35 202.714 188.35 202.713 188.35ZM202.713 188.35C202.472 188.591 202.164 188.765 201.82 188.842C201.569 188.897 201.319 188.987 201.138 189.169L200.498 189.808C200.124 190.183 200.4 190.663 200.775 190.288M389.037 365.386C385.085 367.169 381.777 369.554 379.009 372.321L377.071 374.259C379.839 371.492 383.147 369.107 387.099 367.324M389.037 365.386L387.099 367.324M389.037 365.386L389.038 415.816L387.099 417.754L387.099 367.324M192.909 166.005C189.603 171.876 187.321 188.884 187.321 188.884M192.909 166.005C188.591 166.915 185.382 190.822 185.382 190.822M187.321 188.884L185.382 190.822M187.321 188.884C187.321 188.884 183.987 164.04 179.542 164.04L177.603 165.978C182.049 165.978 185.382 190.822 185.382 190.822M177.348 166.005C178.038 164.78 178.772 164.04 179.539 164.04L177.601 165.978C177.516 165.978 177.432 165.987 177.348 166.005ZM177.348 166.005C174.042 171.876 171.759 188.884 171.759 188.884L169.821 190.822C169.821 190.822 173.029 166.915 177.348 166.005ZM161.79 166.005C162.48 164.78 163.214 164.04 163.981 164.04L162.043 165.978C161.958 165.978 161.874 165.987 161.79 166.005ZM161.79 166.005C158.484 171.876 156.201 188.884 156.201 188.884L154.263 190.822C154.263 190.822 157.471 166.915 161.79 166.005ZM125.989 144.552C125.989 144.552 125.989 144.552 125.989 144.552ZM125.989 144.552C125.748 144.793 125.574 145.102 125.497 145.446C125.441 145.697 125.352 145.947 125.17 146.128L124.531 146.767C124.156 147.142 123.676 146.865 124.051 146.49L125.989 144.552ZM379.011 372.323C379.008 372.326 379.005 372.329 379.002 372.332M379.002 372.332C363.354 387.982 364.958 415.818 364.958 415.818L363.02 417.756C363.02 417.756 361.415 389.909 377.072 374.261L379.002 372.332ZM148.791 164.04C153.236 164.04 156.571 188.884 156.571 188.884L154.632 190.822C154.632 190.822 151.298 165.978 146.852 165.978M148.791 164.04L146.852 165.978M148.791 164.04C147.953 164.04 147.171 164.793 146.451 166.036M146.852 165.978C146.717 165.978 146.584 165.998 146.451 166.036M146.451 166.036C143.034 171.936 141.012 188.884 141.012 188.884M146.451 166.036C141.873 167.356 139.073 190.822 139.073 190.822M141.012 188.884L139.073 190.822M141.012 188.884C141.012 188.884 137.678 164.04 133.233 164.04M139.073 190.822C139.073 190.822 135.74 165.978 131.294 165.978M340.879 365.386C367.182 377.252 364.959 415.816 364.959 415.816L363.021 417.754C363.021 417.754 365.244 379.19 338.94 367.324M340.879 365.386L338.94 367.324M340.879 365.386V415.816L338.94 417.754V367.324M133.233 164.04L131.294 165.978M133.233 164.04C132.395 164.04 131.613 164.793 130.893 166.036M131.294 165.978C131.159 165.978 131.026 165.998 130.893 166.036M130.893 166.036C127.476 171.936 125.454 188.884 125.454 188.884L123.515 190.822C123.515 190.822 126.315 167.356 130.893 166.036ZM191.655 272.259C206.909 258.006 208.875 234.173 195.65 217.557L193.712 219.495C206.354 235.379 205.115 257.858 191.655 272.259ZM191.655 272.259C190.879 272.984 190.07 273.684 189.226 274.356L187.287 276.294C188.863 275.038 190.319 273.689 191.655 272.259ZM163.984 242.649H195.103L193.165 244.587H162.045M163.984 242.649L162.045 244.587M163.984 242.649V273.797L162.045 275.735V244.587M158.202 240.368C159.267 239.303 160.748 238.656 162.413 238.656L164.352 236.718C162.685 236.718 161.204 237.366 160.139 238.432L158.202 240.368ZM158.202 240.368C158.202 240.368 158.201 240.369 158.2 240.37M217.534 296.256C217.534 296.256 217.534 296.256 217.534 296.256ZM110.796 189.421C110.796 189.421 110.797 189.421 110.796 189.421ZM110.796 189.421C110.555 189.662 110.381 189.97 110.304 190.315C110.249 190.566 110.159 190.815 109.977 190.997L109.338 191.636C108.963 192.011 108.483 191.733 108.858 191.359L110.796 189.421ZM168.562 246.872C168.561 246.872 168.56 246.873 168.56 246.874M168.56 246.874C167.495 247.938 166.014 248.585 164.349 248.585L162.41 250.523C164.077 250.523 165.558 249.875 166.623 248.81L168.56 246.874ZM468.412 365.386C464.46 367.169 461.152 369.554 458.384 372.321L456.446 374.259C459.214 371.492 462.522 369.107 466.474 367.324M468.412 365.386L466.474 367.324M468.412 365.386L468.413 415.816L466.474 417.754L466.474 367.324M458.386 372.323C458.383 372.326 458.38 372.329 458.377 372.332M458.377 372.332C442.729 387.982 444.333 415.818 444.333 415.818L442.395 417.756C442.395 417.756 440.79 389.909 456.447 374.261L458.377 372.332ZM420.254 365.386C446.557 377.252 444.334 415.816 444.334 415.816L442.396 417.754C442.396 417.754 444.619 379.19 418.315 367.324M420.254 365.386L418.315 367.324M420.254 365.386V415.816L418.315 417.754V367.324M299.174 372.323C299.171 372.326 299.168 372.329 299.165 372.332M299.165 372.332C283.517 387.982 285.122 415.818 285.122 415.818L283.183 417.756C283.183 417.756 281.578 389.909 297.236 374.261L299.165 372.332ZM134.535 215.162C121.075 229.563 119.836 252.042 132.478 267.926L130.539 269.864C117.315 253.248 119.281 229.415 134.535 215.162ZM134.535 215.162C135.871 213.733 137.327 212.383 138.903 211.127L136.964 213.065C136.12 213.738 135.31 214.437 134.535 215.162ZM261.042 365.39C287.346 377.255 285.123 415.819 285.123 415.819L283.184 417.757C283.184 417.757 285.407 379.193 259.104 367.328M261.042 365.39L259.104 367.328M261.042 365.39V415.819L259.104 417.757V367.328M92.1896 298.891C92.4307 298.65 92.7387 298.476 93.0833 298.399C93.3342 298.344 93.5837 298.254 93.7655 298.072L94.4047 297.433C94.7794 297.058 94.5021 296.579 94.1275 296.953L92.1896 298.891ZM92.1896 298.891C92.1894 298.891 92.1898 298.89 92.1896 298.891ZM165.466 388.008L163.984 384.671L162.045 386.609L163.527 389.946M165.466 388.008L163.527 389.946M165.466 388.008C174.357 405.807 185.841 422.122 200.66 435.471M163.527 389.946C172.418 407.745 183.902 424.06 198.721 437.409M234.205 457.184L232.267 459.121M234.205 457.184C234.579 456.809 234.1 456.532 233.725 456.906L233.085 457.546C232.904 457.728 232.814 457.977 232.758 458.228C232.681 458.573 232.507 458.88 232.267 459.121M234.205 457.184C234.205 457.184 234.205 457.183 234.205 457.184ZM234.205 457.184C233.964 457.424 233.656 457.599 233.311 457.675C233.06 457.731 232.811 457.821 232.629 458.003L231.99 458.642C231.615 459.016 231.892 459.496 232.267 459.121M200.66 435.471L198.721 437.409M200.66 435.471C209.921 444 212.145 453.269 212.145 453.269L210.206 455.207C210.206 455.207 207.983 445.938 198.721 437.409M155.795 425.586C157.416 423.967 159.636 422.949 162.042 422.949L163.98 421.011C161.573 421.011 159.351 422.03 157.731 423.651L155.795 425.586ZM155.795 425.586C155.794 425.587 155.793 425.588 155.792 425.589M126.563 437.324C141.382 422.121 154.348 405.435 163.239 386.524L161.301 388.462C152.41 407.373 139.443 424.059 124.625 439.262M126.563 437.324L124.625 439.262M126.563 437.324C118.783 445.111 116.931 453.268 116.931 453.268L114.992 455.206C114.992 455.206 116.845 447.049 124.625 439.262M170.233 436.166C170.232 436.167 170.231 436.168 170.23 436.169M170.23 436.169C168.61 437.789 166.389 438.806 163.984 438.806L162.045 440.744C164.452 440.744 166.674 439.725 168.295 438.104L170.23 436.169ZM58.0003 372.695C57.9974 372.698 57.9944 372.701 57.9915 372.704M57.9915 372.704C42.3435 388.354 43.948 416.19 43.948 416.19L42.0095 418.128C42.0095 418.128 40.4045 390.281 56.0619 374.633L57.9915 372.704ZM113.851 457.717H95.8209C95.5638 457.717 95.3173 457.819 95.1355 458.001C94.525 458.612 94.9574 459.655 95.8209 459.655H113.851M113.851 457.717C114.714 457.717 115.146 458.761 114.536 459.371C114.354 459.553 114.108 459.655 113.851 459.655M113.851 457.717H53.9508M113.851 459.655H52.0124M19.8685 365.758C46.1718 377.624 43.949 416.188 43.949 416.188L42.0106 418.126C42.0106 418.126 44.2334 379.562 17.9301 367.696M19.8685 365.758L17.9301 367.696M19.8685 365.758V416.188L17.9301 418.126V367.696M53.9508 457.717L52.0124 459.655M53.9508 457.717V511.484L52.0124 513.422V459.655M125.341 145.957H199.485C200.494 145.957 201.312 146.775 201.312 147.784V188.997C201.312 189.502 201.108 189.959 200.777 190.289C200.447 190.62 199.99 190.825 199.485 190.825H125.341C124.332 190.825 123.514 190.007 123.514 188.997V147.784C123.514 147.28 123.719 146.823 124.049 146.492C124.38 146.162 124.837 145.957 125.341 145.957ZM130.923 145.957H193.532L162.043 42.132L130.923 145.957ZM193.712 219.494C207.609 236.954 204.732 262.384 187.288 276.293C169.843 290.202 144.436 287.323 130.54 269.863C116.644 252.402 119.52 226.972 136.965 213.064C154.409 199.155 179.816 202.034 193.712 219.494ZM168.341 244.591C168.341 246.261 167.692 247.744 166.626 248.811C165.561 249.876 164.079 250.524 162.413 250.524C159.079 250.524 156.486 247.929 156.486 244.591C156.486 242.922 157.134 241.438 158.2 240.372C159.265 239.307 160.747 238.658 162.413 238.658C165.377 238.658 168.341 241.254 168.341 244.591ZM170.934 431.848C170.934 434.259 169.914 436.485 168.292 438.107C166.671 439.728 164.45 440.747 162.043 440.747C157.227 440.747 153.151 436.668 153.151 431.848C153.151 429.436 154.171 427.21 155.793 425.588C157.414 423.967 159.636 422.948 162.043 422.948C167.229 422.948 170.934 427.027 170.934 431.848ZM186.953 18.6876L185.133 20.45L183.195 22.388L185.014 20.6256L186.953 18.6876ZM171.022 16.4591L186.952 18.684L185.014 20.6219L169.084 18.3971L171.022 16.4591ZM163.984 2L171.023 16.4614L169.084 18.3993L162.045 3.93797L163.984 2ZM185.131 20.4511L177.285 28.0503L175.347 29.9882L183.192 22.389L185.131 20.4511ZM156.942 16.4614L163.981 2L162.042 3.93797L155.003 18.3993L156.942 16.4614ZM177.286 28.0457L175.466 29.8082L173.528 31.7461L175.347 29.9837L177.286 28.0457ZM175.466 29.8092L178.059 45.383L176.121 47.3209L173.528 31.7472L175.466 29.8092ZM141.38 18.684L156.94 16.4591L155.002 18.3971L139.442 20.6219L141.38 18.684ZM152.865 29.8117L141.38 18.6876L139.442 20.6256L150.927 31.7497L152.865 29.8117ZM163.98 37.9687L150.272 45.3848L148.334 47.3228L162.041 39.9067L163.98 37.9687ZM150.272 45.383L152.865 29.8092L150.927 31.7472L148.334 47.3209L150.272 45.383ZM195.474 144.016L163.984 40.1903L162.045 42.1282L193.535 145.954L195.474 144.016ZM201.82 144.062C202.509 144.215 203.052 144.758 203.205 145.447C203.261 145.698 203.147 145.948 202.965 146.129L202.326 146.769C201.951 147.143 201.15 146.866 200.775 146.491C200.401 146.117 200.123 145.316 200.498 144.942L201.138 144.302C201.319 144.12 201.569 144.006 201.82 144.062ZM163.98 40.1903L132.861 144.016L130.922 145.954L162.042 42.1282L163.98 40.1903ZM203.251 148.183V186.656C203.251 186.913 203.149 187.159 202.967 187.341C202.356 187.951 201.312 187.519 201.312 186.656V148.183C201.312 147.926 201.414 147.68 201.596 147.498C202.207 146.888 203.251 147.32 203.251 148.183ZM216.641 188.931C217.33 189.084 217.873 189.627 218.026 190.316C218.082 190.567 217.968 190.816 217.786 190.998L217.146 191.637C216.772 192.012 215.971 191.735 215.596 191.36C215.222 190.986 214.944 190.185 215.319 189.81L215.958 189.171C216.14 188.989 216.39 188.875 216.641 188.931ZM127.681 144.018H199.083C199.947 144.018 200.379 145.062 199.768 145.673C199.587 145.854 199.34 145.956 199.083 145.956H127.681C126.818 145.956 126.385 144.913 126.996 144.302C127.178 144.12 127.424 144.018 127.681 144.018ZM132.861 144.018H195.47L193.532 145.956H130.922L132.861 144.018ZM171.764 188.884C171.764 188.884 168.429 164.04 163.984 164.04L162.045 165.978C166.491 165.978 169.825 190.822 169.825 190.822L171.764 188.884ZM171.759 188.887H187.319L185.381 190.825H169.821L171.759 188.887ZM125.988 144.553L124.049 146.491C124.29 146.25 124.598 146.076 124.943 146C125.194 145.944 125.443 145.854 125.625 145.673L126.265 145.033C126.639 144.659 126.362 144.179 125.988 144.553ZM199.083 188.887H127.681C127.424 188.887 127.178 188.989 126.996 189.171C126.385 189.781 126.818 190.825 127.681 190.825H199.083C199.34 190.825 199.587 190.723 199.768 190.541C200.379 189.931 199.947 188.887 199.083 188.887ZM112.492 188.887H213.902C214.765 188.887 215.198 189.931 214.587 190.541C214.405 190.723 214.159 190.825 213.902 190.825H112.492C111.628 190.825 111.196 189.781 111.806 189.171C111.988 188.989 112.235 188.887 112.492 188.887ZM218.072 193.052V294.561C218.072 294.818 217.969 295.064 217.788 295.246C217.177 295.857 216.133 295.424 216.133 294.561V193.052C216.133 192.795 216.235 192.548 216.417 192.367C217.028 191.756 218.072 192.189 218.072 193.052ZM484.067 528.174H510L508.062 530.112H482.129L484.067 528.174ZM389.038 430.65V415.818L387.099 417.755V432.588L389.038 430.65ZM125.454 186.656V148.183C125.454 147.32 124.41 146.888 123.799 147.498C123.617 147.68 123.515 147.926 123.515 148.183V186.656C123.515 187.519 124.559 187.951 125.17 187.341C125.352 187.159 125.454 186.913 125.454 186.656ZM497.031 545.226H509.997L508.059 547.164H495.093L497.031 545.226ZM138.903 211.123C156.348 197.214 181.755 200.093 195.651 217.553L193.713 219.491C179.816 202.031 154.409 199.152 136.965 213.061L138.903 211.123ZM125.454 188.887H141.013L139.075 190.825H123.515L125.454 188.887ZM234.739 431.765H509.997L508.059 433.703H232.801L234.739 431.765ZM124.439 188.073L123.799 188.712C123.617 188.894 123.503 189.144 123.559 189.394C123.712 190.084 124.255 190.626 124.944 190.78C125.195 190.836 125.445 190.721 125.627 190.539L126.266 189.9C126.641 189.526 126.364 188.725 125.989 188.35C125.614 187.976 124.813 187.698 124.439 188.073ZM233.311 296.461C234.001 296.615 234.544 297.157 234.697 297.847C234.753 298.097 234.638 298.347 234.457 298.529L233.817 299.168C233.443 299.543 232.641 299.265 232.267 298.891C231.892 298.516 231.615 297.715 231.99 297.341L232.629 296.702C232.811 296.52 233.061 296.406 233.311 296.461ZM164.349 236.718C167.313 236.718 170.276 239.314 170.276 242.651L168.338 244.589C168.338 241.252 165.374 238.656 162.41 238.656L164.349 236.718ZM170.28 242.649C170.28 244.318 169.632 245.802 168.566 246.868L166.627 248.806C167.693 247.74 168.342 246.256 168.342 244.587L170.28 242.649ZM158.423 242.652C158.423 240.983 159.072 239.499 160.138 238.433L158.2 240.371C157.134 241.437 156.485 242.921 156.485 244.59L158.423 242.652ZM340.879 415.818V430.65L338.94 432.588V417.755L340.879 415.818ZM468.413 430.65V415.818L466.474 417.755V432.588L468.413 430.65ZM420.254 415.818V430.65L418.315 432.588V417.755L420.254 415.818ZM164.351 248.582C161.017 248.582 158.423 245.986 158.423 242.649L156.485 244.587C156.485 247.924 159.078 250.52 162.412 250.52L164.351 248.582ZM218.072 314.958V330.532L216.133 332.47V316.896L218.072 314.958ZM189.226 274.354C171.781 288.263 146.375 285.384 132.478 267.923L130.54 269.861C144.436 287.321 169.843 290.2 187.287 276.292L189.226 274.354ZM309.205 430.65V415.818L307.266 417.755V432.588L309.205 430.65ZM95.8209 296.418H230.573C231.437 296.418 231.869 297.462 231.258 298.072C231.077 298.254 230.83 298.356 230.573 298.356H95.8209C94.9574 298.356 94.525 297.312 95.1355 296.702C95.3173 296.52 95.5638 296.418 95.8209 296.418ZM110.261 294.561V193.052C110.261 192.189 109.217 191.756 108.606 192.367C108.425 192.548 108.322 192.795 108.322 193.052V294.561C108.322 295.424 109.366 295.857 109.977 295.246C110.159 295.064 110.261 294.818 110.261 294.561ZM213.902 296.79H112.492C112.235 296.79 111.988 296.892 111.806 297.074C111.196 297.684 111.628 298.728 112.492 298.728H213.902C214.159 298.728 214.405 298.626 214.587 298.444C215.198 297.834 214.765 296.79 213.902 296.79ZM309.573 458.089H340.693L338.754 460.027H307.635L309.573 458.089ZM325.138 473.661H345.514L343.576 475.599H323.2L325.138 473.661ZM234.739 300.586V455.491C234.739 455.748 234.637 455.994 234.455 456.176C233.845 456.787 232.801 456.354 232.801 455.491V300.586C232.801 300.329 232.903 300.083 233.084 299.901C233.695 299.29 234.739 299.723 234.739 300.586ZM163.984 314.958V330.532L162.045 332.47V316.896L163.984 314.958ZM261.042 415.818V430.65L259.104 432.588V417.755L261.042 415.818ZM93.5935 347.218H234.742L232.804 349.156H91.6551L93.5935 347.218ZM109.246 295.979L108.606 296.618C108.425 296.8 108.31 297.05 108.366 297.301C108.519 297.99 109.062 298.533 109.752 298.686C110.003 298.742 110.252 298.627 110.434 298.446L111.073 297.806C111.448 297.432 111.171 296.631 110.796 296.256C110.422 295.882 109.62 295.605 109.246 295.979ZM272.954 457.761C273.644 457.914 274.186 458.457 274.34 459.146C274.396 459.397 274.281 459.647 274.099 459.828L273.46 460.468C273.085 460.842 272.284 460.565 271.91 460.19C271.535 459.816 271.258 459.015 271.632 458.641L272.272 458.001C272.454 457.819 272.703 457.705 272.954 457.761ZM93.637 297.849C93.7137 297.504 93.8876 297.196 94.1285 296.955L92.1901 298.893C91.8157 299.268 92.2954 299.545 92.6699 299.17L93.3096 298.531C93.4914 298.349 93.5813 298.099 93.637 297.849ZM110.261 314.958V330.532L108.322 332.47V316.896L110.261 314.958ZM215.138 457.717H270.215C271.078 457.717 271.511 458.761 270.9 459.371C270.718 459.553 270.472 459.655 270.215 459.655H215.138C214.275 459.655 213.842 458.612 214.453 458.001C214.635 457.819 214.881 457.717 215.138 457.717ZM230.572 457.717H212.913C212.656 457.717 212.409 457.819 212.227 458.001C211.617 458.612 212.049 459.655 212.913 459.655H230.572C230.829 459.655 231.075 459.553 231.257 459.371C231.868 458.761 231.435 457.717 230.572 457.717ZM274.382 461.886V559.66C274.382 559.917 274.28 560.163 274.098 560.345C273.487 560.955 272.443 560.523 272.443 559.66V461.886C272.443 461.629 272.545 461.382 272.727 461.2C273.338 460.59 274.382 461.022 274.382 461.886ZM163.984 421.011C169.17 421.011 172.875 425.09 172.875 429.911L170.936 431.849C170.936 427.028 167.232 422.949 162.045 422.949L163.984 421.011ZM212.143 493.685V453.267L210.204 455.205V495.623L212.143 493.685ZM172.871 429.908C172.871 432.319 171.852 434.545 170.23 436.168L168.291 438.106C169.913 436.483 170.933 434.257 170.933 431.846L172.871 429.908ZM155.092 429.906C155.092 427.495 156.112 425.269 157.734 423.646L155.795 425.584C154.173 427.207 153.153 429.433 153.153 431.844L155.092 429.906ZM163.983 438.807C159.167 438.807 155.092 434.729 155.092 429.908L153.153 431.846C153.153 436.667 157.229 440.745 162.045 440.745L163.983 438.807ZM93.5935 455.491V300.586C93.5935 299.723 92.5495 299.29 91.939 299.901C91.7572 300.083 91.6551 300.329 91.6551 300.586V455.491C91.6551 456.354 92.6991 456.787 93.3096 456.176C93.4914 455.994 93.5935 455.748 93.5935 455.491ZM68.0304 365.758C64.0785 367.541 60.7706 369.926 58.0023 372.693L56.0638 374.631C58.8322 371.864 62.1401 369.479 66.092 367.696L68.0304 365.758ZM68.0275 416.188V365.758L66.0891 367.696V418.126L68.0275 416.188ZM116.931 453.267V464.021L114.992 465.959V455.205L116.931 453.267ZM68.0275 431.392V416.189L66.0891 418.127V433.33L68.0275 431.392ZM92.5785 456.907L91.939 457.546C91.7572 457.728 91.6428 457.977 91.6986 458.228C91.8519 458.917 92.3947 459.46 93.0843 459.613C93.3352 459.669 93.5848 459.555 93.7665 459.373L94.4061 458.734C94.7806 458.359 94.5034 457.558 94.1288 457.184C93.7542 456.809 92.9531 456.532 92.5785 456.907ZM3.93842 431.765H93.5919L91.6535 433.703H2L3.93842 431.765ZM3.93842 445.115H41.3558L39.4174 447.053H2L3.93842 445.115ZM3.93842 462.539H33.5759L31.6375 464.477H2L3.93842 462.539Z" stroke="#7831B2" stroke-width="2.59351" stroke-linecap="round" stroke-linejoin="round"/>
</svg>
