<svg width="286" height="146" viewBox="0 0 286 146" fill="none" xmlns="http://www.w3.org/2000/svg">
<path d="M112 69.6117C112.002 69.0594 111.556 68.6103 111.003 68.6086C110.451 68.607 110.002 69.0533 110 69.6056L112 69.6117ZM285.493 66.9731C285.973 66.7001 286.141 66.0896 285.868 65.6095L281.421 57.7854C281.148 57.3052 280.537 57.1373 280.057 57.4102C279.577 57.6831 279.409 58.2936 279.682 58.7737L283.635 65.7285L276.681 69.6821C276.201 69.9551 276.033 70.5655 276.306 71.0457C276.578 71.5258 277.189 71.6938 277.669 71.4208L285.493 66.9731ZM112.092 70.298C112.061 69.7465 111.59 69.3241 111.038 69.3545C110.487 69.3849 110.064 69.8566 110.095 70.4081L112.092 70.298ZM285.371 66.6739C285.855 66.4083 286.032 65.8004 285.767 65.3162L281.437 57.4261C281.171 56.9419 280.563 56.7648 280.079 57.0305C279.595 57.2962 279.418 57.9041 279.684 58.3883L283.532 65.4017L276.519 69.2503C276.035 69.516 275.858 70.1239 276.123 70.6081C276.389 71.0923 276.997 71.2694 277.481 71.0037L285.371 66.6739ZM110 69.6056C109.969 80.0663 110.479 92.25 111.813 103.753C113.146 115.236 115.308 126.116 118.614 133.924C120.266 137.826 122.237 141.041 124.601 143.172C126.997 145.332 129.812 146.383 133.023 145.873C136.177 145.373 139.568 143.39 143.231 139.818C146.903 136.238 150.923 130.987 155.332 123.8L153.628 122.754C149.265 129.865 145.344 134.964 141.835 138.386C138.316 141.818 135.286 143.49 132.71 143.898C130.19 144.298 127.964 143.511 125.94 141.686C123.884 139.833 122.054 136.919 120.456 133.145C117.263 125.602 115.126 114.949 113.8 103.522C112.476 92.114 111.969 80.0106 112 69.6117L110 69.6056ZM155.332 123.8C166.305 105.915 174.9 92.074 182.884 81.6885C190.864 71.309 198.169 64.4669 206.522 60.5057C214.862 56.5508 224.358 55.4154 236.819 56.6644C249.298 57.9153 264.673 61.5486 284.734 67.0679L285.264 65.1395C265.201 59.6195 249.682 55.9437 237.018 54.6744C224.336 53.4032 214.442 54.5367 205.665 58.6986C196.902 62.8543 189.365 69.9772 181.299 80.4696C173.237 90.9557 164.584 104.894 153.628 122.754L155.332 123.8ZM110.095 70.4081C110.665 80.7481 111.511 92.785 113.01 104.129C114.506 115.454 116.664 126.168 119.887 133.822C121.498 137.646 123.409 140.793 125.71 142.86C128.047 144.96 130.798 145.949 133.945 145.382C137.029 144.826 140.353 142.8 143.964 139.204C147.586 135.597 151.575 130.334 155.983 123.149L154.278 122.103C149.915 129.216 146.02 134.334 142.553 137.787C139.074 141.25 136.102 142.961 133.591 143.414C131.142 143.855 128.998 143.126 127.047 141.373C125.06 139.588 123.289 136.748 121.73 133.046C118.615 125.649 116.484 115.155 114.993 103.867C113.503 92.599 112.661 80.6216 112.092 70.298L110.095 70.4081ZM155.983 123.149C166.96 105.257 175.404 91.325 183.191 80.826C190.975 70.3326 198.03 63.373 206.179 59.3489C214.311 55.3338 223.65 54.1844 236.113 55.548C248.597 56.9139 264.132 60.7907 284.61 66.7574L285.17 64.8372C264.688 58.8696 249.005 54.9466 236.331 53.5599C223.637 52.171 213.88 53.3162 205.294 57.5556C196.726 61.7861 189.443 69.041 181.585 79.6345C173.731 90.2226 165.231 104.25 154.278 122.103L155.983 123.149Z" fill="#7831B2"/>
<path d="M9.21774 13.216C8.94174 13.216 8.74975 13.018 8.64175 12.622C8.54575 12.214 8.52775 11.65 8.58775 10.93C8.64775 10.21 8.77375 9.37599 8.96575 8.42799C9.03775 8.06799 9.13975 7.60599 9.27175 7.04199C9.40375 6.46599 9.54774 5.85399 9.70374 5.20599C9.85975 4.54599 10.0097 3.89799 10.1537 3.26199C10.2977 2.61399 10.4237 2.03799 10.5317 1.53399L10.8377 2.09199C10.5497 2.03199 10.1117 1.97799 9.52375 1.92999C8.94775 1.88199 8.27575 1.84599 7.50775 1.82199C6.73975 1.78599 5.93575 1.76799 5.09575 1.76799C4.78375 1.76799 4.48375 1.77399 4.19575 1.78599C3.90775 1.79799 3.64375 1.81599 3.40375 1.83999C3.16375 1.85199 2.95375 1.85799 2.77375 1.85799C2.59375 1.85799 2.41975 1.82799 2.25175 1.76799C2.08375 1.70799 1.95175 1.62399 1.85575 1.51599C1.77175 1.40799 1.74775 1.29399 1.78375 1.17399C1.83175 0.957992 1.95175 0.783993 2.14375 0.651993C2.33575 0.519993 2.59975 0.429992 2.93575 0.381992C3.27175 0.321992 3.65575 0.291992 4.08775 0.291992C4.68775 0.291992 5.31175 0.297993 5.95975 0.309993C6.61975 0.321993 7.24974 0.339993 7.84974 0.363993C8.44974 0.387993 8.98375 0.417993 9.45175 0.453993C9.91975 0.477993 10.2797 0.495993 10.5317 0.507993C11.1917 0.555993 11.6357 0.681992 11.8637 0.885992C12.0917 1.07799 12.1577 1.43199 12.0617 1.94799C11.9537 2.45199 11.8277 2.99799 11.6837 3.58599C11.5517 4.16199 11.4137 4.73799 11.2697 5.31399C11.1377 5.88999 11.0117 6.42999 10.8917 6.93399C10.7717 7.43799 10.6757 7.86399 10.6037 8.21199C10.3997 9.23199 10.2737 10.102 10.2257 10.822C10.1897 11.53 10.1417 12.016 10.0817 12.28C10.0457 12.46 9.99175 12.622 9.91975 12.766C9.84775 12.91 9.75175 13.018 9.63175 13.09C9.52375 13.174 9.38575 13.216 9.21774 13.216ZM1.98174 13.198C1.78974 13.198 1.62774 13.126 1.49574 12.982C1.37574 12.826 1.29775 12.616 1.26175 12.352C1.22575 12.076 1.24375 11.764 1.31575 11.416C1.39975 10.972 1.50175 10.492 1.62175 9.97599C1.75375 9.44799 1.89175 8.89599 2.03575 8.31999C2.17975 7.74399 2.31175 7.14999 2.43175 6.53799C2.52775 6.06999 2.62975 5.54199 2.73775 4.95399C2.84575 4.35399 2.93575 3.75399 3.00775 3.15399C3.07975 2.54199 3.09775 2.00199 3.06175 1.53399L4.75375 1.19199C4.75375 1.64799 4.71775 2.16399 4.64575 2.73999C4.58575 3.31599 4.50775 3.89199 4.41175 4.46799C4.32774 5.04399 4.23175 5.57799 4.12375 6.06999C4.05175 6.42999 3.96775 6.84999 3.87175 7.32999C3.77575 7.79799 3.67375 8.28999 3.56575 8.80599C3.45775 9.30999 3.34975 9.79599 3.24175 10.264C3.14575 10.732 3.06175 11.14 2.98975 11.488C2.91775 11.836 2.86375 12.082 2.82775 12.226C2.75575 12.574 2.64175 12.826 2.48575 12.982C2.34175 13.126 2.17374 13.198 1.98174 13.198ZM17.012 13.216C16.028 13.216 15.218 13 14.582 12.568C13.958 12.136 13.526 11.554 13.286 10.822C13.058 10.078 13.034 9.23199 13.214 8.28399C13.346 7.61199 13.574 7.02399 13.8981 6.51999C14.2341 6.00399 14.606 5.57199 15.014 5.22399C15.434 4.87599 15.854 4.61799 16.274 4.44999C16.694 4.26999 17.054 4.17999 17.354 4.17999C17.486 4.17999 17.594 4.19799 17.678 4.23399C17.774 4.26999 17.846 4.32999 17.894 4.41399C17.954 4.48599 17.972 4.58799 17.948 4.71999C17.888 4.95999 17.792 5.18199 17.66 5.38599C17.528 5.57799 17.282 5.75199 16.922 5.90799C16.49 6.11199 16.124 6.33999 15.824 6.59199C15.536 6.83199 15.302 7.11399 15.122 7.43799C14.942 7.74999 14.816 8.12799 14.744 8.57199C14.552 9.54399 14.666 10.324 15.086 10.912C15.506 11.488 16.148 11.776 17.012 11.776C17.852 11.776 18.584 11.476 19.208 10.876C19.844 10.264 20.258 9.45399 20.45 8.44599C20.642 7.52199 20.582 6.80199 20.27 6.28599C19.958 5.75799 19.442 5.49399 18.722 5.49399C18.35 5.49399 18.032 5.56599 17.768 5.70999C17.516 5.85399 17.24 6.04599 16.9401 6.28599C16.7241 6.46599 16.55 6.62799 16.418 6.77199C16.286 6.91599 16.166 7.02999 16.058 7.11399C15.962 7.18599 15.836 7.22199 15.68 7.22199C15.512 7.22199 15.38 7.16799 15.284 7.05999C15.2 6.93999 15.182 6.75399 15.23 6.50199C15.278 6.22599 15.416 5.94399 15.644 5.65599C15.884 5.36799 16.172 5.10399 16.508 4.86399C16.856 4.61199 17.228 4.41399 17.624 4.26999C18.02 4.11399 18.41 4.03599 18.794 4.03599C19.658 4.03599 20.36 4.23999 20.9 4.64799C21.4401 5.04399 21.806 5.59599 21.998 6.30399C22.19 6.99999 22.19 7.80399 21.998 8.71599C21.83 9.61599 21.506 10.408 21.026 11.092C20.546 11.764 19.958 12.286 19.262 12.658C18.578 13.03 17.828 13.216 17.012 13.216ZM27.4587 13.162C26.5707 13.162 25.8387 12.988 25.2627 12.64C24.6987 12.28 24.3027 11.788 24.0747 11.164C23.8587 10.528 23.8347 9.79599 24.0027 8.96799C24.1467 8.25999 24.4047 7.60599 24.7767 7.00599C25.1607 6.39399 25.6287 5.86599 26.1807 5.42199C26.7447 4.96599 27.3567 4.61199 28.0167 4.35999C28.6767 4.10799 29.3547 3.98199 30.0507 3.98199C30.3627 3.98199 30.6387 4.02999 30.8787 4.12599C31.1187 4.20999 31.2927 4.34199 31.4007 4.52199C31.5207 4.68999 31.5507 4.89999 31.4907 5.15199C31.4427 5.37999 31.3527 5.55999 31.2207 5.69199C31.0887 5.81199 30.9327 5.87199 30.7527 5.87199C30.6207 5.87199 30.5187 5.84799 30.4467 5.79999C30.3747 5.75199 30.2967 5.70399 30.2127 5.65599C30.1407 5.60799 30.0147 5.58399 29.8347 5.58399C29.1507 5.58399 28.5087 5.75799 27.9087 6.10599C27.3087 6.44199 26.7987 6.88599 26.3787 7.43799C25.9707 7.97799 25.7008 8.55999 25.5688 9.18399C25.4848 9.68799 25.4967 10.126 25.6047 10.498C25.7247 10.858 25.9407 11.14 26.2527 11.344C26.5767 11.548 26.9727 11.65 27.4407 11.65C27.9687 11.65 28.3887 11.59 28.7007 11.47C29.0127 11.338 29.2587 11.194 29.4387 11.038C29.6307 10.882 29.7867 10.744 29.9067 10.624C30.0267 10.492 30.1647 10.426 30.3207 10.426C30.5487 10.426 30.7047 10.48 30.7887 10.588C30.8847 10.696 30.9088 10.882 30.8608 11.146C30.7768 11.542 30.5727 11.896 30.2487 12.208C29.9247 12.508 29.5167 12.742 29.0247 12.91C28.5447 13.078 28.0227 13.162 27.4587 13.162ZM33.3824 13.198C33.0944 13.198 32.8784 13.03 32.7344 12.694C32.5904 12.358 32.5844 11.854 32.7164 11.182C32.7764 10.858 32.8904 10.366 33.0584 9.70599C33.2264 9.03399 33.4844 8.31399 33.8324 7.54599C34.2404 6.63399 34.6064 5.91399 34.9304 5.38599C35.2544 4.84599 35.5724 4.45599 35.8844 4.21599C36.1964 3.97599 36.5144 3.85599 36.8384 3.85599C37.0904 3.85599 37.2824 3.95799 37.4144 4.16199C37.5584 4.36599 37.6604 4.61199 37.7204 4.89999C37.7804 5.18799 37.8284 5.47599 37.8644 5.76399C37.9124 6.14799 37.9724 6.57399 38.0444 7.04199C38.1284 7.50999 38.2184 7.98399 38.3144 8.46399C38.4224 8.94399 38.5424 9.39999 38.6744 9.83199C38.8184 10.264 38.9804 10.63 39.1604 10.93L38.5124 11.074C38.8604 10.39 39.2324 9.70599 39.6284 9.02199C40.0244 8.33799 40.4204 7.68399 40.8164 7.05999C41.2124 6.43599 41.5844 5.87799 41.9324 5.38599C42.3164 4.86999 42.6404 4.50399 42.9044 4.28799C43.1804 4.07199 43.4264 3.96399 43.6424 3.96399C43.7984 3.96399 43.9424 3.99999 44.0744 4.07199C44.2064 4.13199 44.3204 4.20399 44.4164 4.28799C44.5484 4.41999 44.6504 4.58199 44.7224 4.77399C44.7944 4.96599 44.8064 5.25399 44.7584 5.63799C44.6504 6.50199 44.5784 7.28199 44.5424 7.97799C44.5184 8.66199 44.5124 9.23799 44.5244 9.70599C44.5364 10.534 44.5964 11.194 44.7044 11.686C44.8244 12.178 44.8664 12.496 44.8304 12.64C44.8064 12.796 44.7224 12.922 44.5784 13.018C44.4464 13.126 44.2844 13.18 44.0924 13.18C43.8044 13.18 43.5644 13.042 43.3724 12.766C43.1924 12.49 43.0784 12.118 43.0304 11.65C42.9824 11.218 42.9464 10.672 42.9224 10.012C42.9104 9.35199 42.9284 8.61399 42.9764 7.79799C43.0364 6.96999 43.1324 6.11799 43.2644 5.24199L43.7864 5.11599C43.4984 5.53599 43.1744 6.01599 42.8144 6.55599C42.4664 7.08399 42.1064 7.63599 41.7344 8.21199C41.3744 8.78799 41.0264 9.35799 40.6904 9.92199C40.3664 10.486 40.0784 11.02 39.8264 11.524C39.6944 11.752 39.5384 11.932 39.3584 12.064C39.1904 12.196 38.9924 12.262 38.7644 12.262C38.4764 12.262 38.2364 12.196 38.0444 12.064C37.8644 11.92 37.7084 11.728 37.5764 11.488C37.4564 11.236 37.3484 10.96 37.2524 10.66C37.2044 10.492 37.1384 10.258 37.0544 9.95799C36.9704 9.64599 36.8864 9.29799 36.8024 8.91399C36.7184 8.52999 36.6404 8.12199 36.5684 7.68999C36.4964 7.25799 36.4364 6.83199 36.3884 6.41199C36.3404 5.97999 36.3164 5.57799 36.3164 5.20599L36.8564 5.06199C36.4484 5.64999 36.0884 6.22599 35.7764 6.78999C35.4764 7.35399 35.2184 7.93599 35.0024 8.53599C34.7984 9.12399 34.6244 9.75999 34.4804 10.444C34.3844 10.912 34.3124 11.32 34.2644 11.668C34.2284 12.016 34.1924 12.28 34.1564 12.46C34.1084 12.664 34.0244 12.838 33.9044 12.982C33.7844 13.126 33.6104 13.198 33.3824 13.198ZM51.0612 13.216C50.0772 13.216 49.2672 13 48.6308 12.568C48.0068 12.136 47.5748 11.554 47.3348 10.822C47.1068 10.078 47.0828 9.23199 47.2628 8.28399C47.3948 7.61199 47.6228 7.02399 47.9468 6.51999C48.2828 6.00399 48.6548 5.57199 49.0632 5.22399C49.4832 4.87599 49.9032 4.61799 50.3232 4.44999C50.7432 4.26999 51.1032 4.17999 51.4032 4.17999C51.5352 4.17999 51.6432 4.19799 51.7272 4.23399C51.8232 4.26999 51.8952 4.32999 51.9432 4.41399C52.0032 4.48599 52.0212 4.58799 51.9972 4.71999C51.9372 4.95999 51.8412 5.18199 51.7092 5.38599C51.5772 5.57799 51.3312 5.75199 50.9712 5.90799C50.5392 6.11199 50.1732 6.33999 49.8732 6.59199C49.5852 6.83199 49.3512 7.11399 49.1712 7.43799C48.9908 7.74999 48.8648 8.12799 48.7928 8.57199C48.6008 9.54399 48.7148 10.324 49.1352 10.912C49.5552 11.488 50.1972 11.776 51.0612 11.776C51.9012 11.776 52.6332 11.476 53.2572 10.876C53.8932 10.264 54.3072 9.45399 54.4992 8.44599C54.6912 7.52199 54.6312 6.80199 54.3192 6.28599C54.0072 5.75799 53.4912 5.49399 52.7712 5.49399C52.3992 5.49399 52.0812 5.56599 51.8172 5.70999C51.5652 5.85399 51.2892 6.04599 50.9892 6.28599C50.7732 6.46599 50.5992 6.62799 50.4672 6.77199C50.3352 6.91599 50.2152 7.02999 50.1072 7.11399C50.0112 7.18599 49.8852 7.22199 49.7292 7.22199C49.5612 7.22199 49.4292 7.16799 49.3332 7.05999C49.2492 6.93999 49.2312 6.75399 49.2792 6.50199C49.3272 6.22599 49.4652 5.94399 49.6932 5.65599C49.9332 5.36799 50.2212 5.10399 50.5572 4.86399C50.9052 4.61199 51.2772 4.41399 51.6732 4.26999C52.0692 4.11399 52.4592 4.03599 52.8432 4.03599C53.7072 4.03599 54.4092 4.23999 54.9492 4.64799C55.4892 5.04399 55.8552 5.59599 56.0472 6.30399C56.2392 6.99999 56.2392 7.80399 56.0472 8.71599C55.8792 9.61599 55.5552 10.408 55.0752 11.092C54.5952 11.764 54.0072 12.286 53.3112 12.658C52.6272 13.03 51.8772 13.216 51.0612 13.216ZM58.2262 5.90799C57.9502 5.90799 57.7342 5.82399 57.5782 5.65599C57.4342 5.48799 57.3862 5.29599 57.4342 5.07999C57.4702 4.94799 57.5422 4.83399 57.6502 4.73799C57.7582 4.64199 57.9502 4.55799 58.2262 4.48599C58.6582 4.36599 59.2342 4.25799 59.9542 4.16199C60.6862 4.06599 61.5382 4.01799 62.5102 4.01799C63.0142 4.01799 63.4762 4.02999 63.8962 4.05399C64.3282 4.06599 64.8022 4.10799 65.3182 4.17999C65.7262 4.22799 66.0382 4.32399 66.2542 4.46799C66.4822 4.61199 66.5782 4.77399 66.5422 4.95399C66.5182 5.08599 66.4642 5.20599 66.3802 5.31399C66.3082 5.40999 66.2002 5.48799 66.0562 5.54799C65.9242 5.60799 65.7562 5.63799 65.5522 5.63799C65.3002 5.63799 65.0062 5.62599 64.6702 5.60199C64.3342 5.57799 63.9742 5.55399 63.5902 5.52999C63.2182 5.49399 62.8342 5.47599 62.4382 5.47599C61.6102 5.47599 60.9442 5.51199 60.4402 5.58399C59.9362 5.64399 59.5162 5.71599 59.1802 5.79999C58.8442 5.87199 58.5262 5.90799 58.2262 5.90799ZM60.8362 13.216C60.5722 13.216 60.3742 13.108 60.2422 12.892C60.1222 12.676 60.0382 12.4 59.9902 12.064C59.9662 11.812 59.9662 11.47 59.9902 11.038C60.0262 10.594 60.0862 10.114 60.1702 9.59799C60.2542 9.06999 60.3442 8.55999 60.4402 8.06799C60.5722 7.40799 60.6862 6.82599 60.7822 6.32199C60.8902 5.80599 60.9742 5.37999 61.0342 5.04399L62.6542 4.93599C62.6062 5.13999 62.5462 5.39799 62.4742 5.70999C62.4142 6.00999 62.3482 6.35199 62.2762 6.73599C62.2042 7.10799 62.1262 7.49199 62.0422 7.88799C61.9702 8.27199 61.8982 8.64399 61.8262 9.00399C61.7062 9.60399 61.6282 10.108 61.5922 10.516C61.5682 10.912 61.5622 11.236 61.5742 11.488C61.5862 11.74 61.5982 11.95 61.6102 12.118C61.6222 12.274 61.6162 12.418 61.5922 12.55C61.5682 12.682 61.5202 12.802 61.4482 12.91C61.3762 13.006 61.2862 13.078 61.1782 13.126C61.0702 13.186 60.9562 13.216 60.8362 13.216ZM70.4612 13.09C69.8852 13.09 69.3812 13.012 68.9492 12.856C68.5172 12.7 68.1872 12.496 67.9592 12.244C67.7312 11.992 67.6413 11.728 67.6892 11.452C67.7253 11.308 67.7912 11.182 67.8872 11.074C67.9832 10.966 68.1092 10.912 68.2652 10.912C68.3852 10.912 68.4932 10.942 68.5892 11.002C68.6852 11.062 68.7992 11.134 68.9312 11.218C69.0632 11.302 69.2552 11.38 69.5072 11.452C69.7592 11.512 70.1012 11.542 70.5332 11.542C71.2052 11.542 71.7872 11.38 72.2792 11.056C72.7832 10.72 73.1072 10.15 73.2512 9.34599C73.3712 8.78199 73.3772 8.27199 73.2692 7.81599C73.1732 7.34799 72.9872 6.94599 72.7112 6.60999C72.4352 6.26199 72.0812 5.99799 71.6492 5.81799C71.2172 5.63799 70.7253 5.54799 70.1732 5.54799C69.8972 5.54799 69.6152 5.57799 69.3272 5.63799C69.0392 5.69799 68.7872 5.72799 68.5712 5.72799C68.4392 5.72799 68.3192 5.69799 68.2112 5.63799C68.1032 5.56599 68.0312 5.46999 67.9952 5.34999C67.9592 5.22999 67.9532 5.10999 67.9772 4.98999C68.0492 4.66599 68.2652 4.41999 68.6252 4.25199C68.9972 4.07199 69.5612 3.98199 70.3172 3.98199C71.1212 3.98199 71.8352 4.11999 72.4592 4.39599C73.0952 4.67199 73.6172 5.06199 74.0252 5.56599C74.4332 6.05799 74.7092 6.65199 74.8532 7.34799C75.0092 8.03199 75.0032 8.79399 74.8352 9.63399C74.7272 10.186 74.5352 10.678 74.2592 11.11C73.9952 11.542 73.6712 11.908 73.2872 12.208C72.9032 12.496 72.4712 12.718 71.9912 12.874C71.5112 13.018 71.0012 13.09 70.4612 13.09ZM66.2312 17.698C66.0872 17.698 65.9612 17.662 65.8532 17.59C65.7572 17.53 65.6912 17.434 65.6552 17.302C65.6192 17.17 65.6192 17.014 65.6552 16.834C65.6912 16.654 65.7572 16.486 65.8532 16.33C65.9372 16.186 66.0332 16.006 66.1412 15.79C66.2492 15.586 66.3632 15.322 66.4832 14.998C66.6032 14.674 66.7172 14.248 66.8252 13.72C67.0052 12.844 67.1012 11.968 67.1132 11.092C67.1252 10.216 67.1312 9.32799 67.1312 8.42799C67.1432 7.51599 67.2332 6.60399 67.4012 5.69199C67.4612 5.39199 67.5632 5.16999 67.7072 5.02599C67.8632 4.86999 68.0492 4.79199 68.2652 4.79199C68.4572 4.79199 68.6132 4.85799 68.7332 4.98999C68.8652 5.10999 68.9552 5.27799 69.0032 5.49399C69.0512 5.69799 69.0452 5.92599 68.9852 6.17799C68.8412 6.89799 68.7513 7.58199 68.7152 8.22999C68.6912 8.86599 68.6792 9.48999 68.6792 10.102C68.6912 10.714 68.6852 11.326 68.6612 11.938C68.6372 12.55 68.5592 13.18 68.4272 13.828C68.3192 14.416 68.1872 14.95 68.0312 15.43C67.8752 15.91 67.7012 16.318 67.5092 16.654C67.3292 16.99 67.1312 17.248 66.9152 17.428C66.7112 17.608 66.4832 17.698 66.2312 17.698ZM78.4282 13.198C78.0202 13.198 77.6962 13.102 77.4562 12.91C77.2282 12.718 77.0602 12.466 76.9522 12.154C76.8442 11.83 76.7902 11.482 76.7902 11.11C76.8022 10.726 76.8442 10.354 76.9162 9.99399C76.9882 9.68199 77.0842 9.30999 77.2042 8.87799C77.3363 8.44599 77.4802 7.99599 77.6362 7.52799C77.7922 7.05999 77.9423 6.62199 78.0863 6.21399C78.2422 5.80599 78.3682 5.48799 78.4642 5.25999C78.6202 4.83999 78.7582 4.51599 78.8782 4.28799C79.0102 4.05999 79.1662 3.94599 79.3462 3.94599C79.5022 3.94599 79.6462 3.99999 79.7783 4.10799C79.9103 4.21599 80.0062 4.35399 80.0662 4.52199C80.1382 4.68999 80.1562 4.87599 80.1202 5.07999C80.0842 5.27199 80.0003 5.54799 79.8682 5.90799C79.7362 6.26799 79.5863 6.66999 79.4183 7.11399C79.2503 7.55799 79.0882 8.00799 78.9322 8.46399C78.7762 8.90799 78.6622 9.30999 78.5902 9.66999C78.5182 9.99399 78.4703 10.306 78.4463 10.606C78.4222 10.894 78.4342 11.134 78.4822 11.326C78.5302 11.506 78.6322 11.596 78.7882 11.596C79.1722 11.596 79.6582 11.254 80.2462 10.57C80.8462 9.88599 81.5122 8.94399 82.2442 7.74399C82.5802 7.21599 82.8742 6.72399 83.1262 6.26799C83.3782 5.81199 83.6002 5.41599 83.7922 5.07999C83.9842 4.73199 84.1702 4.46199 84.3502 4.26999C84.5302 4.07799 84.7103 3.98199 84.8903 3.98199C85.1663 3.98199 85.3642 4.08999 85.4842 4.30599C85.6162 4.50999 85.6762 4.78599 85.6642 5.13399C85.6642 5.44599 85.6522 5.82999 85.6282 6.28599C85.6162 6.74199 85.6042 7.20999 85.5922 7.68999C85.5802 8.15799 85.5802 8.59599 85.5922 9.00399C85.6283 9.69999 85.6942 10.27 85.7902 10.714C85.8982 11.146 85.9942 11.494 86.0782 11.758C86.1622 12.022 86.1982 12.238 86.1862 12.406C86.1742 12.538 86.1322 12.664 86.0602 12.784C85.9883 12.892 85.8982 12.982 85.7902 13.054C85.6822 13.126 85.5622 13.162 85.4302 13.162C85.1542 13.162 84.9262 13.036 84.7462 12.784C84.5782 12.532 84.4462 12.178 84.3502 11.722C84.2542 11.266 84.1762 10.732 84.1162 10.12C84.0922 9.68799 84.0682 9.22599 84.0442 8.73399C84.0322 8.24199 84.0322 7.74999 84.0442 7.25799C84.0682 6.76599 84.0922 6.30999 84.1162 5.88999L84.6383 6.06999C84.4943 6.34599 84.3382 6.63999 84.1702 6.95199C84.0143 7.26399 83.8222 7.61799 83.5942 8.01399C83.3782 8.39799 83.1082 8.85399 82.7842 9.38199C82.3763 10.03 81.9323 10.648 81.4522 11.236C80.9722 11.812 80.4742 12.286 79.9582 12.658C79.4542 13.018 78.9442 13.198 78.4282 13.198ZM88.4422 5.90799C88.1662 5.90799 87.9502 5.82399 87.7942 5.65599C87.6502 5.48799 87.6022 5.29599 87.6502 5.07999C87.6862 4.94799 87.7582 4.83399 87.8662 4.73799C87.9743 4.64199 88.1662 4.55799 88.4422 4.48599C88.8742 4.36599 89.4502 4.25799 90.1702 4.16199C90.9023 4.06599 91.7542 4.01799 92.7262 4.01799C93.2302 4.01799 93.6923 4.02999 94.1123 4.05399C94.5443 4.06599 95.0182 4.10799 95.5342 4.17999C95.9422 4.22799 96.2542 4.32399 96.4702 4.46799C96.6982 4.61199 96.7943 4.77399 96.7582 4.95399C96.7342 5.08599 96.6802 5.20599 96.5962 5.31399C96.5242 5.40999 96.4162 5.48799 96.2722 5.54799C96.1402 5.60799 95.9722 5.63799 95.7682 5.63799C95.5162 5.63799 95.2222 5.62599 94.8862 5.60199C94.5502 5.57799 94.1903 5.55399 93.8063 5.52999C93.4342 5.49399 93.0502 5.47599 92.6542 5.47599C91.8262 5.47599 91.1602 5.51199 90.6562 5.58399C90.1522 5.64399 89.7322 5.71599 89.3962 5.79999C89.0602 5.87199 88.7422 5.90799 88.4422 5.90799ZM91.0522 13.216C90.7882 13.216 90.5902 13.108 90.4582 12.892C90.3382 12.676 90.2542 12.4 90.2062 12.064C90.1822 11.812 90.1822 11.47 90.2062 11.038C90.2422 10.594 90.3022 10.114 90.3862 9.59799C90.4702 9.06999 90.5602 8.55999 90.6562 8.06799C90.7882 7.40799 90.9022 6.82599 90.9982 6.32199C91.1062 5.80599 91.1903 5.37999 91.2503 5.04399L92.8702 4.93599C92.8223 5.13999 92.7622 5.39799 92.6902 5.70999C92.6302 6.00999 92.5642 6.35199 92.4922 6.73599C92.4202 7.10799 92.3422 7.49199 92.2582 7.88799C92.1862 8.27199 92.1142 8.64399 92.0422 9.00399C91.9222 9.60399 91.8443 10.108 91.8083 10.516C91.7842 10.912 91.7782 11.236 91.7902 11.488C91.8022 11.74 91.8142 11.95 91.8262 12.118C91.8382 12.274 91.8323 12.418 91.8083 12.55C91.7842 12.682 91.7362 12.802 91.6642 12.91C91.5922 13.006 91.5023 13.078 91.3942 13.126C91.2862 13.186 91.1722 13.216 91.0522 13.216ZM99.8802 13.18C98.8842 13.18 98.1103 13 97.5583 12.64C97.0062 12.268 96.6462 11.77 96.4782 11.146C96.3102 10.51 96.3042 9.79599 96.4602 9.00399C96.5922 8.41599 96.8203 7.82799 97.1442 7.23999C97.4802 6.63999 97.8942 6.09399 98.3862 5.60199C98.8902 5.10999 99.4482 4.71999 100.06 4.43199C100.684 4.13199 101.338 3.98199 102.022 3.98199C102.658 3.98199 103.18 4.08399 103.588 4.28799C104.008 4.49199 104.296 4.79199 104.452 5.18799C104.62 5.58399 104.644 6.08199 104.524 6.68199C104.404 7.34199 104.11 7.89999 103.642 8.35599C103.174 8.79999 102.592 9.14199 101.896 9.38199C101.212 9.62199 100.474 9.74199 99.6822 9.74199C98.8662 9.74199 98.3202 9.64599 98.0442 9.45399C97.7802 9.26199 97.6722 9.04599 97.7202 8.80599C97.7442 8.66199 97.7982 8.55999 97.8822 8.49999C97.9662 8.42799 98.0983 8.39199 98.2783 8.39199C98.4103 8.39199 98.5662 8.41599 98.7462 8.46399C98.9382 8.49999 99.2202 8.51799 99.5922 8.51799C100.192 8.51799 100.732 8.43399 101.212 8.26599C101.704 8.09799 102.106 7.86999 102.418 7.58199C102.73 7.28199 102.928 6.93999 103.012 6.55599C103.084 6.19599 103.036 5.92599 102.868 5.74599C102.712 5.56599 102.4 5.47599 101.932 5.47599C101.464 5.47599 101.014 5.58399 100.582 5.79999C100.162 6.00399 99.7663 6.28599 99.3942 6.64599C99.0342 7.00599 98.7282 7.41999 98.4762 7.88799C98.2243 8.35599 98.0502 8.84799 97.9542 9.36399C97.8702 9.79599 97.8642 10.192 97.9362 10.552C98.0082 10.9 98.1882 11.188 98.4762 11.416C98.7763 11.632 99.2022 11.74 99.7542 11.74C100.378 11.74 100.912 11.662 101.356 11.506C101.812 11.338 102.196 11.146 102.508 10.93C102.82 10.714 103.084 10.528 103.3 10.372C103.516 10.216 103.708 10.138 103.876 10.138C104.08 10.138 104.224 10.216 104.308 10.372C104.404 10.516 104.428 10.708 104.38 10.948C104.332 11.188 104.17 11.44 103.894 11.704C103.63 11.956 103.282 12.196 102.85 12.424C102.43 12.652 101.962 12.838 101.446 12.982C100.942 13.114 100.42 13.18 99.8802 13.18ZM7.66975 29.198C7.30975 29.198 6.91374 29.09 6.48174 28.874C6.04974 28.646 5.62374 28.346 5.20374 27.974C4.79574 27.602 4.41775 27.206 4.06975 26.786C3.73375 26.366 3.46975 25.964 3.27775 25.58C3.15775 25.388 3.07975 25.214 3.04375 25.058C3.01975 24.89 3.01375 24.728 3.02575 24.572C3.06175 24.476 3.10975 24.368 3.16975 24.248C3.22975 24.128 3.30775 24.02 3.40375 23.924C3.54775 23.732 3.79375 23.474 4.14175 23.15C4.48975 22.826 4.89175 22.478 5.34775 22.106C5.81575 21.722 6.29575 21.368 6.78775 21.044C7.29175 20.708 7.76575 20.432 8.20975 20.216C8.66575 20 9.05575 19.892 9.37975 19.892C9.51175 19.892 9.61375 19.922 9.68575 19.982C9.76975 20.042 9.82975 20.12 9.86575 20.216C9.90175 20.312 9.91375 20.408 9.90175 20.504C9.88975 20.768 9.71575 21.02 9.37975 21.26C9.04375 21.5 8.68375 21.722 8.29975 21.926C7.61575 22.31 7.00974 22.688 6.48174 23.06C5.95374 23.432 5.52774 23.762 5.20374 24.05C4.89174 24.338 4.72974 24.542 4.71774 24.662C4.69374 24.782 4.77175 24.992 4.95175 25.292C5.13175 25.58 5.40774 25.91 5.77975 26.282C6.15175 26.642 6.58975 26.978 7.09375 27.29C7.32175 27.434 7.54375 27.572 7.75975 27.704C7.98775 27.824 8.16775 27.95 8.29975 28.082C8.44375 28.202 8.50975 28.34 8.49775 28.496C8.48575 28.628 8.44375 28.748 8.37175 28.856C8.29975 28.964 8.19775 29.048 8.06575 29.108C7.94575 29.168 7.81375 29.198 7.66975 29.198ZM1.67574 29.18C1.36374 29.18 1.15375 29.024 1.04575 28.712C0.937748 28.388 0.907748 27.926 0.955748 27.326C1.01575 26.714 1.12975 25.976 1.29775 25.112C1.36975 24.752 1.45375 24.374 1.54975 23.978C1.65775 23.582 1.76575 23.186 1.87375 22.79C1.98175 22.382 2.07175 21.986 2.14375 21.602C2.16775 21.506 2.18575 21.41 2.19775 21.314C2.22175 21.206 2.23975 21.098 2.25175 20.99C2.29975 20.75 2.36575 20.552 2.44975 20.396C2.53375 20.24 2.62975 20.12 2.73775 20.036C2.85775 19.94 2.97775 19.892 3.09775 19.892C3.37375 19.892 3.58974 20.018 3.74574 20.27C3.91374 20.51 3.94975 20.852 3.85375 21.296C3.79375 21.596 3.69775 21.968 3.56575 22.412C3.44575 22.844 3.31975 23.288 3.18775 23.744C3.05575 24.2 2.95375 24.602 2.88175 24.95C2.77375 25.574 2.68975 26.132 2.62975 26.624C2.58175 27.116 2.55175 27.524 2.53975 27.848C2.52775 28.16 2.50374 28.376 2.46774 28.496C2.44374 28.64 2.38975 28.766 2.30575 28.874C2.23375 28.97 2.14375 29.042 2.03575 29.09C1.93975 29.15 1.81974 29.18 1.67574 29.18ZM14.5335 29.216C13.5495 29.216 12.7395 29 12.1035 28.568C11.4795 28.136 11.0475 27.554 10.8075 26.822C10.5795 26.078 10.5555 25.232 10.7355 24.284C10.8675 23.612 11.0955 23.024 11.4195 22.52C11.7555 22.004 12.1275 21.572 12.5355 21.224C12.9555 20.876 13.3755 20.618 13.7955 20.45C14.2155 20.27 14.5755 20.18 14.8755 20.18C15.0075 20.18 15.1155 20.198 15.1995 20.234C15.2955 20.27 15.3675 20.33 15.4155 20.414C15.4755 20.486 15.4935 20.588 15.4695 20.72C15.4095 20.96 15.3135 21.182 15.1815 21.386C15.0495 21.578 14.8035 21.752 14.4435 21.908C14.0115 22.112 13.6455 22.34 13.3455 22.592C13.0575 22.832 12.8235 23.114 12.6435 23.438C12.4635 23.75 12.3375 24.128 12.2655 24.572C12.0735 25.544 12.1875 26.324 12.6075 26.912C13.0275 27.488 13.6695 27.776 14.5335 27.776C15.3735 27.776 16.1055 27.476 16.7295 26.876C17.3655 26.264 17.7795 25.454 17.9715 24.446C18.1635 23.522 18.1035 22.802 17.7915 22.286C17.4795 21.758 16.9635 21.494 16.2435 21.494C15.8715 21.494 15.5535 21.566 15.2895 21.71C15.0375 21.854 14.7615 22.046 14.4615 22.286C14.2456 22.466 14.0715 22.628 13.9395 22.772C13.8075 22.916 13.6875 23.03 13.5795 23.114C13.4835 23.186 13.3575 23.222 13.2015 23.222C13.0335 23.222 12.9015 23.168 12.8055 23.06C12.7215 22.94 12.7035 22.754 12.7515 22.502C12.7995 22.226 12.9375 21.944 13.1655 21.656C13.4055 21.368 13.6935 21.104 14.0295 20.864C14.3775 20.612 14.7495 20.414 15.1455 20.27C15.5415 20.114 15.9315 20.036 16.3155 20.036C17.1795 20.036 17.8815 20.24 18.4215 20.648C18.9615 21.044 19.3275 21.596 19.5195 22.304C19.7115 23 19.7115 23.804 19.5195 24.716C19.3515 25.616 19.0275 26.408 18.5475 27.092C18.0675 27.764 17.4795 28.286 16.7835 28.658C16.0995 29.03 15.3495 29.216 14.5335 29.216ZM25.2146 29.09C24.6386 29.09 24.1346 29.012 23.7026 28.856C23.2706 28.7 22.9406 28.496 22.7126 28.244C22.4846 27.992 22.3946 27.728 22.4426 27.452C22.4786 27.308 22.5446 27.182 22.6406 27.074C22.7367 26.966 22.8626 26.912 23.0186 26.912C23.1386 26.912 23.2466 26.942 23.3426 27.002C23.4386 27.062 23.5526 27.134 23.6846 27.218C23.8166 27.302 24.0086 27.38 24.2606 27.452C24.5126 27.512 24.8546 27.542 25.2866 27.542C25.9586 27.542 26.5406 27.38 27.0326 27.056C27.5366 26.72 27.8606 26.15 28.0046 25.346C28.1246 24.782 28.1306 24.272 28.0226 23.816C27.9266 23.348 27.7406 22.946 27.4646 22.61C27.1886 22.262 26.8346 21.998 26.4026 21.818C25.9706 21.638 25.4786 21.548 24.9266 21.548C24.6506 21.548 24.3686 21.578 24.0806 21.638C23.7926 21.698 23.5406 21.728 23.3246 21.728C23.1926 21.728 23.0726 21.698 22.9646 21.638C22.8566 21.566 22.7846 21.47 22.7486 21.35C22.7126 21.23 22.7066 21.11 22.7306 20.99C22.8026 20.666 23.0186 20.42 23.3786 20.252C23.7506 20.072 24.3146 19.982 25.0707 19.982C25.8747 19.982 26.5886 20.12 27.2126 20.396C27.8486 20.672 28.3707 21.062 28.7787 21.566C29.1866 22.058 29.4626 22.652 29.6066 23.348C29.7626 24.032 29.7566 24.794 29.5886 25.634C29.4806 26.186 29.2886 26.678 29.0126 27.11C28.7486 27.542 28.4246 27.908 28.0406 28.208C27.6566 28.496 27.2246 28.718 26.7446 28.874C26.2646 29.018 25.7546 29.09 25.2146 29.09ZM20.9846 33.698C20.8406 33.698 20.7146 33.662 20.6066 33.59C20.5106 33.53 20.4446 33.434 20.4086 33.302C20.3726 33.17 20.3726 33.014 20.4086 32.834C20.4446 32.654 20.5106 32.486 20.6066 32.33C20.6906 32.186 20.7866 32.006 20.8946 31.79C21.0026 31.586 21.1166 31.322 21.2366 30.998C21.3566 30.674 21.4706 30.248 21.5786 29.72C21.7586 28.844 21.8546 27.968 21.8666 27.092C21.8786 26.216 21.8846 25.328 21.8846 24.428C21.8966 23.516 21.9867 22.604 22.1546 21.692C22.2146 21.392 22.3167 21.17 22.4606 21.026C22.6166 20.87 22.8026 20.792 23.0186 20.792C23.2106 20.792 23.3666 20.858 23.4866 20.99C23.6186 21.11 23.7086 21.278 23.7566 21.494C23.8046 21.698 23.7986 21.926 23.7386 22.178C23.5947 22.898 23.5046 23.582 23.4686 24.23C23.4446 24.866 23.4326 25.49 23.4326 26.102C23.4446 26.714 23.4386 27.326 23.4146 27.938C23.3906 28.55 23.3126 29.18 23.1806 29.828C23.0726 30.416 22.9406 30.95 22.7846 31.43C22.6286 31.91 22.4546 32.318 22.2626 32.654C22.0826 32.99 21.8846 33.248 21.6686 33.428C21.4646 33.608 21.2366 33.698 20.9846 33.698ZM35.592 29.216C34.608 29.216 33.798 29 33.162 28.568C32.538 28.136 32.106 27.554 31.866 26.822C31.638 26.078 31.614 25.232 31.794 24.284C31.926 23.612 32.154 23.024 32.478 22.52C32.814 22.004 33.186 21.572 33.594 21.224C34.014 20.876 34.434 20.618 34.854 20.45C35.274 20.27 35.634 20.18 35.934 20.18C36.066 20.18 36.174 20.198 36.258 20.234C36.354 20.27 36.426 20.33 36.474 20.414C36.534 20.486 36.552 20.588 36.528 20.72C36.468 20.96 36.372 21.182 36.24 21.386C36.108 21.578 35.862 21.752 35.502 21.908C35.07 22.112 34.704 22.34 34.404 22.592C34.116 22.832 33.882 23.114 33.702 23.438C33.522 23.75 33.396 24.128 33.324 24.572C33.132 25.544 33.246 26.324 33.666 26.912C34.086 27.488 34.728 27.776 35.592 27.776C36.432 27.776 37.164 27.476 37.788 26.876C38.424 26.264 38.838 25.454 39.03 24.446C39.222 23.522 39.162 22.802 38.85 22.286C38.538 21.758 38.022 21.494 37.302 21.494C36.93 21.494 36.612 21.566 36.348 21.71C36.096 21.854 35.82 22.046 35.52 22.286C35.304 22.466 35.13 22.628 34.998 22.772C34.866 22.916 34.746 23.03 34.638 23.114C34.542 23.186 34.416 23.222 34.26 23.222C34.092 23.222 33.96 23.168 33.864 23.06C33.78 22.94 33.762 22.754 33.81 22.502C33.858 22.226 33.996 21.944 34.224 21.656C34.464 21.368 34.752 21.104 35.088 20.864C35.436 20.612 35.808 20.414 36.204 20.27C36.6 20.114 36.99 20.036 37.374 20.036C38.238 20.036 38.94 20.24 39.48 20.648C40.02 21.044 40.386 21.596 40.578 22.304C40.77 23 40.77 23.804 40.578 24.716C40.41 25.616 40.086 26.408 39.606 27.092C39.126 27.764 38.538 28.286 37.842 28.658C37.158 29.03 36.408 29.216 35.592 29.216ZM42.757 21.908C42.481 21.908 42.265 21.824 42.109 21.656C41.965 21.488 41.917 21.296 41.965 21.08C42.001 20.948 42.073 20.834 42.181 20.738C42.289 20.642 42.481 20.558 42.757 20.486C43.189 20.366 43.765 20.258 44.485 20.162C45.217 20.066 46.069 20.018 47.041 20.018C47.545 20.018 48.007 20.03 48.427 20.054C48.859 20.066 49.3332 20.108 49.8492 20.18C50.2572 20.228 50.5692 20.324 50.7852 20.468C51.0132 20.612 51.1092 20.774 51.0732 20.954C51.0492 21.086 50.9952 21.206 50.9112 21.314C50.8392 21.41 50.7312 21.488 50.5872 21.548C50.4552 21.608 50.2872 21.638 50.0832 21.638C49.8312 21.638 49.5372 21.626 49.2012 21.602C48.865 21.578 48.505 21.554 48.121 21.53C47.749 21.494 47.365 21.476 46.969 21.476C46.141 21.476 45.475 21.512 44.971 21.584C44.467 21.644 44.047 21.716 43.711 21.8C43.375 21.872 43.057 21.908 42.757 21.908ZM45.367 29.216C45.103 29.216 44.905 29.108 44.773 28.892C44.653 28.676 44.569 28.4 44.521 28.064C44.497 27.812 44.497 27.47 44.521 27.038C44.557 26.594 44.617 26.114 44.701 25.598C44.785 25.07 44.875 24.56 44.971 24.068C45.103 23.408 45.217 22.826 45.313 22.322C45.421 21.806 45.505 21.38 45.565 21.044L47.185 20.936C47.137 21.14 47.077 21.398 47.005 21.71C46.945 22.01 46.879 22.352 46.807 22.736C46.735 23.108 46.657 23.492 46.573 23.888C46.501 24.272 46.429 24.644 46.357 25.004C46.237 25.604 46.159 26.108 46.123 26.516C46.099 26.912 46.093 27.236 46.105 27.488C46.117 27.74 46.129 27.95 46.141 28.118C46.153 28.274 46.147 28.418 46.123 28.55C46.099 28.682 46.051 28.802 45.979 28.91C45.907 29.006 45.817 29.078 45.709 29.126C45.601 29.186 45.487 29.216 45.367 29.216ZM57.8732 29.198C57.5132 29.198 57.1172 29.09 56.6852 28.874C56.2532 28.646 55.8272 28.346 55.4072 27.974C54.9992 27.602 54.6212 27.206 54.2732 26.786C53.9372 26.366 53.6732 25.964 53.4812 25.58C53.3612 25.388 53.2832 25.214 53.2472 25.058C53.2232 24.89 53.2172 24.728 53.2292 24.572C53.2652 24.476 53.3132 24.368 53.3732 24.248C53.4332 24.128 53.5112 24.02 53.6072 23.924C53.7512 23.732 53.9972 23.474 54.3452 23.15C54.6932 22.826 55.0952 22.478 55.5512 22.106C56.0192 21.722 56.4992 21.368 56.9912 21.044C57.4952 20.708 57.9692 20.432 58.4132 20.216C58.8692 20 59.2592 19.892 59.5832 19.892C59.7152 19.892 59.8172 19.922 59.8892 19.982C59.9732 20.042 60.0332 20.12 60.0692 20.216C60.1052 20.312 60.1172 20.408 60.1052 20.504C60.0932 20.768 59.9192 21.02 59.5832 21.26C59.2472 21.5 58.8872 21.722 58.5032 21.926C57.8192 22.31 57.2132 22.688 56.6852 23.06C56.1572 23.432 55.7312 23.762 55.4072 24.05C55.0952 24.338 54.9332 24.542 54.9212 24.662C54.8972 24.782 54.9752 24.992 55.1552 25.292C55.3352 25.58 55.6112 25.91 55.9832 26.282C56.3552 26.642 56.7932 26.978 57.2972 27.29C57.5252 27.434 57.7472 27.572 57.9632 27.704C58.1912 27.824 58.3712 27.95 58.5032 28.082C58.6472 28.202 58.7132 28.34 58.7012 28.496C58.6892 28.628 58.6472 28.748 58.5752 28.856C58.5032 28.964 58.4012 29.048 58.2692 29.108C58.1492 29.168 58.0172 29.198 57.8732 29.198ZM51.8792 29.18C51.5672 29.18 51.3572 29.024 51.2492 28.712C51.1412 28.388 51.1112 27.926 51.1592 27.326C51.2192 26.714 51.3332 25.976 51.5012 25.112C51.5732 24.752 51.6572 24.374 51.7532 23.978C51.8612 23.582 51.9692 23.186 52.0772 22.79C52.1852 22.382 52.2752 21.986 52.3472 21.602C52.3712 21.506 52.3892 21.41 52.4012 21.314C52.4252 21.206 52.4432 21.098 52.4552 20.99C52.5032 20.75 52.5692 20.552 52.6532 20.396C52.7372 20.24 52.8332 20.12 52.9412 20.036C53.0612 19.94 53.1812 19.892 53.3012 19.892C53.5772 19.892 53.7932 20.018 53.9492 20.27C54.1172 20.51 54.1532 20.852 54.0572 21.296C53.9972 21.596 53.9012 21.968 53.7692 22.412C53.6492 22.844 53.5232 23.288 53.3912 23.744C53.2592 24.2 53.1572 24.602 53.0852 24.95C52.9772 25.574 52.8932 26.132 52.8332 26.624C52.7852 27.116 52.7552 27.524 52.7432 27.848C52.7312 28.16 52.7072 28.376 52.6712 28.496C52.6472 28.64 52.5932 28.766 52.5092 28.874C52.4372 28.97 52.3472 29.042 52.2392 29.09C52.1432 29.15 52.0232 29.18 51.8792 29.18ZM64.7362 29.216C63.7522 29.216 62.9422 29 62.3062 28.568C61.6822 28.136 61.2502 27.554 61.0102 26.822C60.7822 26.078 60.7582 25.232 60.9382 24.284C61.0702 23.612 61.2982 23.024 61.6222 22.52C61.9582 22.004 62.3302 21.572 62.7382 21.224C63.1582 20.876 63.5782 20.618 63.9982 20.45C64.4182 20.27 64.7782 20.18 65.0782 20.18C65.2103 20.18 65.3182 20.198 65.4022 20.234C65.4982 20.27 65.5703 20.33 65.6182 20.414C65.6782 20.486 65.6962 20.588 65.6722 20.72C65.6122 20.96 65.5163 21.182 65.3842 21.386C65.2522 21.578 65.0062 21.752 64.6462 21.908C64.2142 22.112 63.8482 22.34 63.5482 22.592C63.2603 22.832 63.0262 23.114 62.8462 23.438C62.6662 23.75 62.5402 24.128 62.4682 24.572C62.2762 25.544 62.3902 26.324 62.8102 26.912C63.2302 27.488 63.8722 27.776 64.7362 27.776C65.5762 27.776 66.3082 27.476 66.9322 26.876C67.5682 26.264 67.9822 25.454 68.1742 24.446C68.3662 23.522 68.3062 22.802 67.9942 22.286C67.6823 21.758 67.1662 21.494 66.4462 21.494C66.0742 21.494 65.7562 21.566 65.4922 21.71C65.2402 21.854 64.9642 22.046 64.6642 22.286C64.4482 22.466 64.2742 22.628 64.1422 22.772C64.0102 22.916 63.8902 23.03 63.7822 23.114C63.6862 23.186 63.5602 23.222 63.4042 23.222C63.2362 23.222 63.1042 23.168 63.0082 23.06C62.9242 22.94 62.9062 22.754 62.9542 22.502C63.0022 22.226 63.1402 21.944 63.3682 21.656C63.6082 21.368 63.8962 21.104 64.2322 20.864C64.5802 20.612 64.9522 20.414 65.3482 20.27C65.7442 20.114 66.1342 20.036 66.5182 20.036C67.3822 20.036 68.0842 20.24 68.6242 20.648C69.1642 21.044 69.5302 21.596 69.7222 22.304C69.9142 23 69.9142 23.804 69.7222 24.716C69.5542 25.616 69.2302 26.408 68.7502 27.092C68.2702 27.764 67.6822 28.286 66.9862 28.658C66.3022 29.03 65.5522 29.216 64.7362 29.216ZM75.1302 29.18C74.1342 29.18 73.3602 29 72.8082 28.64C72.2562 28.268 71.8962 27.77 71.7282 27.146C71.5602 26.51 71.5542 25.796 71.7102 25.004C71.8422 24.416 72.0702 23.828 72.3942 23.24C72.7302 22.64 73.1442 22.094 73.6362 21.602C74.1402 21.11 74.6982 20.72 75.3102 20.432C75.9342 20.132 76.5882 19.982 77.2722 19.982C77.9082 19.982 78.4303 20.084 78.8382 20.288C79.2582 20.492 79.5462 20.792 79.7022 21.188C79.8702 21.584 79.8942 22.082 79.7742 22.682C79.6542 23.342 79.3603 23.9 78.8923 24.356C78.4242 24.8 77.8422 25.142 77.1462 25.382C76.4622 25.622 75.7242 25.742 74.9322 25.742C74.1162 25.742 73.5702 25.646 73.2942 25.454C73.0302 25.262 72.9222 25.046 72.9702 24.806C72.9942 24.662 73.0482 24.56 73.1322 24.5C73.2162 24.428 73.3482 24.392 73.5282 24.392C73.6602 24.392 73.8162 24.416 73.9962 24.464C74.1882 24.5 74.4702 24.518 74.8422 24.518C75.4422 24.518 75.9822 24.434 76.4622 24.266C76.9542 24.098 77.3563 23.87 77.6683 23.582C77.9802 23.282 78.1782 22.94 78.2622 22.556C78.3342 22.196 78.2862 21.926 78.1182 21.746C77.9622 21.566 77.6502 21.476 77.1822 21.476C76.7142 21.476 76.2642 21.584 75.8322 21.8C75.4122 22.004 75.0162 22.286 74.6442 22.646C74.2842 23.006 73.9782 23.42 73.7262 23.888C73.4742 24.356 73.3002 24.848 73.2042 25.364C73.1202 25.796 73.1142 26.192 73.1862 26.552C73.2582 26.9 73.4382 27.188 73.7262 27.416C74.0262 27.632 74.4522 27.74 75.0042 27.74C75.6282 27.74 76.1622 27.662 76.6062 27.506C77.0622 27.338 77.4463 27.146 77.7582 26.93C78.0702 26.714 78.3342 26.528 78.5502 26.372C78.7662 26.216 78.9582 26.138 79.1262 26.138C79.3302 26.138 79.4743 26.216 79.5583 26.372C79.6543 26.516 79.6782 26.708 79.6302 26.948C79.5822 27.188 79.4202 27.44 79.1442 27.704C78.8802 27.956 78.5322 28.196 78.1002 28.424C77.6802 28.652 77.2122 28.838 76.6962 28.982C76.1922 29.114 75.6702 29.18 75.1302 29.18ZM90.5072 29.288C89.8952 29.288 89.3973 29.162 89.0133 28.91C88.6413 28.658 88.3652 28.334 88.1852 27.938C88.0173 27.53 87.9212 27.092 87.8972 26.624C87.8852 26.144 87.9212 25.676 88.0052 25.22C88.1132 24.716 88.2692 24.17 88.4732 23.582C88.6892 22.994 88.9292 22.43 89.1932 21.89C89.4572 21.338 89.7212 20.882 89.9852 20.522C90.0932 20.366 90.2132 20.24 90.3452 20.144C90.4892 20.048 90.6393 19.982 90.7952 19.946C90.9512 19.898 91.1073 19.874 91.2633 19.874C91.4072 19.874 91.5093 19.922 91.5693 20.018C91.6292 20.102 91.6413 20.222 91.6052 20.378C91.5692 20.558 91.4672 20.786 91.2992 21.062C91.1432 21.338 90.9512 21.674 90.7232 22.07C90.5072 22.466 90.2913 22.94 90.0752 23.492C89.8592 24.032 89.6792 24.668 89.5352 25.4C89.3792 26.168 89.3972 26.78 89.5892 27.236C89.7812 27.692 90.1833 27.92 90.7952 27.92C91.2513 27.92 91.7072 27.8 92.1632 27.56C92.6192 27.32 93.0212 26.996 93.3692 26.588C93.7292 26.168 93.9692 25.7 94.0892 25.184L94.2872 25.526C93.9872 25.406 93.6272 25.316 93.2072 25.256C92.7992 25.184 92.3612 25.136 91.8932 25.112C91.4372 25.076 90.9873 25.07 90.5433 25.094C90.0993 25.106 89.7032 25.142 89.3552 25.202L89.5892 24.014C90.2132 24.002 90.8012 23.93 91.3532 23.798C91.9173 23.654 92.4153 23.468 92.8473 23.24C93.2913 23.012 93.6512 22.772 93.9272 22.52C94.2032 22.256 94.3592 22.01 94.3952 21.782C94.4312 21.614 94.3893 21.482 94.2692 21.386C94.1492 21.278 93.9572 21.224 93.6932 21.224C93.3692 21.224 93.0272 21.272 92.6672 21.368C92.3192 21.464 91.9473 21.584 91.5512 21.728C91.1552 21.872 90.7353 22.022 90.2913 22.178C90.1113 22.226 89.9612 22.202 89.8412 22.106C89.7332 22.01 89.6972 21.89 89.7332 21.746C89.7692 21.578 89.8832 21.422 90.0752 21.278C90.2793 21.122 90.4712 21.008 90.6512 20.936C91.3832 20.552 92.0612 20.288 92.6852 20.144C93.3213 19.988 93.9092 19.91 94.4492 19.91C94.8812 19.91 95.2352 19.976 95.5112 20.108C95.7992 20.24 96.0032 20.42 96.1232 20.648C96.2552 20.876 96.2912 21.134 96.2312 21.422C96.1592 21.806 95.9792 22.172 95.6912 22.52C95.4032 22.868 95.0372 23.192 94.5932 23.492C94.1612 23.78 93.6872 24.026 93.1712 24.23C92.6552 24.434 92.1152 24.584 91.5512 24.68L91.6412 23.996C92.2052 23.972 92.7272 23.972 93.2072 23.996C93.6992 24.02 94.1312 24.074 94.5032 24.158C94.8752 24.242 95.1572 24.38 95.3493 24.572C95.5533 24.752 95.6492 24.992 95.6372 25.292C95.6132 25.772 95.4452 26.252 95.1332 26.732C94.8332 27.2 94.4312 27.626 93.9272 28.01C93.4352 28.394 92.8892 28.706 92.2892 28.946C91.7012 29.174 91.1072 29.288 90.5072 29.288ZM99.2412 29.198C98.8333 29.198 98.5092 29.102 98.2692 28.91C98.0413 28.718 97.8733 28.466 97.7653 28.154C97.6572 27.83 97.6032 27.482 97.6032 27.11C97.6152 26.726 97.6572 26.354 97.7292 25.994C97.8012 25.682 97.8972 25.31 98.0173 24.878C98.1493 24.446 98.2932 23.996 98.4492 23.528C98.6052 23.06 98.7552 22.622 98.8992 22.214C99.0552 21.806 99.1812 21.488 99.2772 21.26C99.4332 20.84 99.5712 20.516 99.6912 20.288C99.8232 20.06 99.9792 19.946 100.159 19.946C100.315 19.946 100.459 20 100.591 20.108C100.723 20.216 100.819 20.354 100.879 20.522C100.951 20.69 100.969 20.876 100.933 21.08C100.897 21.272 100.813 21.548 100.681 21.908C100.549 22.268 100.399 22.67 100.231 23.114C100.063 23.558 99.9012 24.008 99.7452 24.464C99.5892 24.908 99.4753 25.31 99.4033 25.67C99.3313 25.994 99.2832 26.306 99.2592 26.606C99.2352 26.894 99.2473 27.134 99.2952 27.326C99.3432 27.506 99.4453 27.596 99.6012 27.596C99.9853 27.596 100.471 27.254 101.059 26.57C101.659 25.886 102.325 24.944 103.057 23.744C103.393 23.216 103.687 22.724 103.939 22.268C104.191 21.812 104.413 21.416 104.605 21.08C104.797 20.732 104.983 20.462 105.163 20.27C105.343 20.078 105.523 19.982 105.703 19.982C105.979 19.982 106.177 20.09 106.297 20.306C106.429 20.51 106.489 20.786 106.477 21.134C106.477 21.446 106.465 21.83 106.441 22.286C106.429 22.742 106.417 23.21 106.405 23.69C106.393 24.158 106.393 24.596 106.405 25.004C106.441 25.7 106.507 26.27 106.603 26.714C106.711 27.146 106.807 27.494 106.891 27.758C106.975 28.022 107.011 28.238 106.999 28.406C106.987 28.538 106.945 28.664 106.873 28.784C106.801 28.892 106.711 28.982 106.603 29.054C106.495 29.126 106.375 29.162 106.243 29.162C105.967 29.162 105.739 29.036 105.559 28.784C105.391 28.532 105.259 28.178 105.163 27.722C105.067 27.266 104.989 26.732 104.929 26.12C104.905 25.688 104.881 25.226 104.857 24.734C104.845 24.242 104.845 23.75 104.857 23.258C104.881 22.766 104.905 22.31 104.929 21.89L105.451 22.07C105.307 22.346 105.151 22.64 104.983 22.952C104.827 23.264 104.635 23.618 104.407 24.014C104.191 24.398 103.921 24.854 103.597 25.382C103.189 26.03 102.745 26.648 102.265 27.236C101.785 27.812 101.287 28.286 100.771 28.658C100.267 29.018 99.7572 29.198 99.2412 29.198ZM109.31 28.172C109.466 27.812 109.664 27.41 109.904 26.966C110.144 26.51 110.402 26.036 110.678 25.544C110.966 25.052 111.254 24.572 111.542 24.104C111.842 23.624 112.124 23.192 112.388 22.808C112.736 22.316 113.084 21.854 113.432 21.422C113.78 20.99 114.11 20.642 114.422 20.378C114.746 20.102 115.022 19.964 115.25 19.964C115.49 19.964 115.7 20.066 115.88 20.27C116.072 20.474 116.24 20.81 116.384 21.278C116.48 21.614 116.582 22.04 116.69 22.556C116.798 23.072 116.9 23.636 116.996 24.248C117.092 24.848 117.17 25.454 117.23 26.066C117.29 26.678 117.326 27.242 117.338 27.758L115.754 27.902C115.742 27.326 115.7 26.702 115.628 26.03C115.568 25.346 115.484 24.686 115.376 24.05C115.268 23.414 115.154 22.862 115.034 22.394C114.914 21.914 114.788 21.59 114.656 21.422L115.358 21.278C114.974 21.686 114.566 22.166 114.134 22.718C113.714 23.27 113.318 23.864 112.946 24.5C112.67 24.968 112.412 25.412 112.172 25.832C111.932 26.252 111.71 26.66 111.506 27.056C111.314 27.44 111.122 27.836 110.93 28.244L109.31 28.172ZM117.104 31.61C116.864 31.61 116.678 31.526 116.546 31.358C116.414 31.19 116.372 31.004 116.42 30.8C116.444 30.656 116.522 30.44 116.654 30.152C116.786 29.876 116.924 29.558 117.068 29.198C117.212 28.838 117.32 28.466 117.392 28.082L118.04 29C117.872 28.976 117.608 28.952 117.248 28.928C116.9 28.904 116.456 28.892 115.916 28.892C115.28 28.892 114.626 28.898 113.954 28.91C113.294 28.922 112.64 28.94 111.992 28.964C111.356 28.988 110.75 29.024 110.174 29.072C109.598 29.12 109.07 29.18 108.59 29.252L109.292 28.622C109.268 28.778 109.244 28.97 109.22 29.198C109.196 29.426 109.178 29.654 109.166 29.882C109.154 30.122 109.142 30.332 109.13 30.512C109.13 30.692 109.13 30.818 109.13 30.89C109.118 31.094 109.046 31.25 108.914 31.358C108.782 31.478 108.614 31.538 108.41 31.538C108.122 31.538 107.924 31.424 107.816 31.196C107.708 30.968 107.654 30.698 107.654 30.386C107.642 30.194 107.648 29.948 107.672 29.648C107.696 29.348 107.726 29.114 107.762 28.946C107.81 28.754 107.882 28.586 107.978 28.442C108.062 28.286 108.188 28.154 108.356 28.046C108.524 27.938 108.74 27.86 109.004 27.812C109.304 27.764 109.706 27.722 110.21 27.686C110.726 27.638 111.302 27.602 111.938 27.578C112.586 27.542 113.252 27.518 113.936 27.506C114.62 27.482 115.274 27.47 115.898 27.47C116.21 27.47 116.552 27.476 116.924 27.488C117.296 27.488 117.656 27.512 118.004 27.56C118.352 27.596 118.586 27.704 118.706 27.884C118.838 28.064 118.868 28.346 118.796 28.73C118.736 29.03 118.646 29.348 118.526 29.684C118.406 30.02 118.262 30.332 118.094 30.62C117.938 30.92 117.77 31.16 117.59 31.34C117.422 31.52 117.26 31.61 117.104 31.61ZM123.857 29.18C122.861 29.18 122.087 29 121.535 28.64C120.983 28.268 120.623 27.77 120.455 27.146C120.287 26.51 120.281 25.796 120.437 25.004C120.569 24.416 120.797 23.828 121.121 23.24C121.457 22.64 121.871 22.094 122.363 21.602C122.867 21.11 123.425 20.72 124.037 20.432C124.661 20.132 125.315 19.982 125.999 19.982C126.635 19.982 127.157 20.084 127.565 20.288C127.985 20.492 128.273 20.792 128.429 21.188C128.597 21.584 128.621 22.082 128.501 22.682C128.381 23.342 128.087 23.9 127.619 24.356C127.151 24.8 126.569 25.142 125.873 25.382C125.189 25.622 124.451 25.742 123.659 25.742C122.843 25.742 122.297 25.646 122.021 25.454C121.757 25.262 121.649 25.046 121.697 24.806C121.721 24.662 121.775 24.56 121.859 24.5C121.943 24.428 122.075 24.392 122.255 24.392C122.387 24.392 122.543 24.416 122.723 24.464C122.915 24.5 123.197 24.518 123.569 24.518C124.169 24.518 124.709 24.434 125.189 24.266C125.681 24.098 126.083 23.87 126.395 23.582C126.707 23.282 126.905 22.94 126.989 22.556C127.061 22.196 127.013 21.926 126.845 21.746C126.689 21.566 126.377 21.476 125.909 21.476C125.441 21.476 124.991 21.584 124.559 21.8C124.139 22.004 123.743 22.286 123.371 22.646C123.011 23.006 122.705 23.42 122.453 23.888C122.201 24.356 122.027 24.848 121.931 25.364C121.847 25.796 121.841 26.192 121.913 26.552C121.985 26.9 122.165 27.188 122.453 27.416C122.753 27.632 123.179 27.74 123.731 27.74C124.355 27.74 124.889 27.662 125.333 27.506C125.789 27.338 126.173 27.146 126.485 26.93C126.797 26.714 127.061 26.528 127.277 26.372C127.493 26.216 127.685 26.138 127.853 26.138C128.057 26.138 128.201 26.216 128.285 26.372C128.381 26.516 128.405 26.708 128.357 26.948C128.309 27.188 128.147 27.44 127.871 27.704C127.607 27.956 127.259 28.196 126.827 28.424C126.407 28.652 125.939 28.838 125.423 28.982C124.919 29.114 124.397 29.18 123.857 29.18ZM134.539 29.216C133.555 29.216 132.745 29 132.109 28.568C131.485 28.136 131.053 27.554 130.813 26.822C130.585 26.078 130.561 25.232 130.741 24.284C130.873 23.612 131.101 23.024 131.425 22.52C131.761 22.004 132.133 21.572 132.541 21.224C132.961 20.876 133.381 20.618 133.801 20.45C134.221 20.27 134.581 20.18 134.881 20.18C135.013 20.18 135.121 20.198 135.205 20.234C135.301 20.27 135.373 20.33 135.421 20.414C135.481 20.486 135.499 20.588 135.475 20.72C135.415 20.96 135.319 21.182 135.187 21.386C135.055 21.578 134.809 21.752 134.449 21.908C134.017 22.112 133.651 22.34 133.351 22.592C133.063 22.832 132.829 23.114 132.649 23.438C132.469 23.75 132.343 24.128 132.271 24.572C132.079 25.544 132.193 26.324 132.613 26.912C133.033 27.488 133.675 27.776 134.539 27.776C135.379 27.776 136.111 27.476 136.735 26.876C137.371 26.264 137.785 25.454 137.977 24.446C138.169 23.522 138.109 22.802 137.797 22.286C137.485 21.758 136.969 21.494 136.249 21.494C135.877 21.494 135.559 21.566 135.295 21.71C135.043 21.854 134.767 22.046 134.467 22.286C134.251 22.466 134.077 22.628 133.945 22.772C133.813 22.916 133.693 23.03 133.585 23.114C133.489 23.186 133.363 23.222 133.207 23.222C133.039 23.222 132.907 23.168 132.811 23.06C132.727 22.94 132.709 22.754 132.757 22.502C132.805 22.226 132.943 21.944 133.171 21.656C133.411 21.368 133.699 21.104 134.035 20.864C134.383 20.612 134.755 20.414 135.151 20.27C135.547 20.114 135.937 20.036 136.321 20.036C137.185 20.036 137.887 20.24 138.427 20.648C138.967 21.044 139.333 21.596 139.525 22.304C139.717 23 139.717 23.804 139.525 24.716C139.357 25.616 139.033 26.408 138.553 27.092C138.073 27.764 137.485 28.286 136.789 28.658C136.105 29.03 135.355 29.216 134.539 29.216ZM5.02375 45.216C4.03975 45.216 3.22975 45 2.59375 44.568C1.96975 44.136 1.53775 43.554 1.29775 42.822C1.06975 42.078 1.04575 41.232 1.22575 40.284C1.35775 39.612 1.58575 39.024 1.90975 38.52C2.24575 38.004 2.61775 37.572 3.02575 37.224C3.44575 36.876 3.86575 36.618 4.28575 36.45C4.70575 36.27 5.06575 36.18 5.36575 36.18C5.49775 36.18 5.60574 36.198 5.68974 36.234C5.78575 36.27 5.85775 36.33 5.90575 36.414C5.96575 36.486 5.98375 36.588 5.95975 36.72C5.89975 36.96 5.80375 37.182 5.67175 37.386C5.53975 37.578 5.29375 37.752 4.93375 37.908C4.50175 38.112 4.13574 38.34 3.83574 38.592C3.54774 38.832 3.31375 39.114 3.13375 39.438C2.95375 39.75 2.82775 40.128 2.75575 40.572C2.56375 41.544 2.67775 42.324 3.09775 42.912C3.51775 43.488 4.15975 43.776 5.02375 43.776C5.86375 43.776 6.59575 43.476 7.21975 42.876C7.85575 42.264 8.26975 41.454 8.46175 40.446C8.65375 39.522 8.59375 38.802 8.28175 38.286C7.96975 37.758 7.45375 37.494 6.73375 37.494C6.36175 37.494 6.04375 37.566 5.77975 37.71C5.52775 37.854 5.25175 38.046 4.95175 38.286C4.73575 38.466 4.56175 38.628 4.42975 38.772C4.29775 38.916 4.17775 39.03 4.06975 39.114C3.97375 39.186 3.84775 39.222 3.69175 39.222C3.52375 39.222 3.39175 39.168 3.29575 39.06C3.21175 38.94 3.19375 38.754 3.24175 38.502C3.28975 38.226 3.42775 37.944 3.65575 37.656C3.89575 37.368 4.18375 37.104 4.51975 36.864C4.86775 36.612 5.23975 36.414 5.63575 36.27C6.03175 36.114 6.42175 36.036 6.80575 36.036C7.66975 36.036 8.37175 36.24 8.91175 36.648C9.45175 37.044 9.81775 37.596 10.0097 38.304C10.2017 39 10.2017 39.804 10.0097 40.716C9.84175 41.616 9.51775 42.408 9.03775 43.092C8.55775 43.764 7.96975 44.286 7.27375 44.658C6.58975 45.03 5.83975 45.216 5.02375 45.216ZM15.6165 45.198C14.9805 45.198 14.4405 45.09 13.9965 44.874C13.5525 44.646 13.1985 44.334 12.9345 43.938C12.6705 43.53 12.4845 43.05 12.3765 42.498C12.2685 41.946 12.2325 41.34 12.2685 40.68C12.3045 40.008 12.3945 39.306 12.5385 38.574C12.6945 37.746 12.9225 37.002 13.2225 36.342C13.5225 35.67 13.8585 35.088 14.2305 34.596C14.6145 34.092 15.0165 33.678 15.4365 33.354C15.8565 33.03 16.2766 32.79 16.6966 32.634C17.0686 32.502 17.4465 32.4 17.8305 32.328C18.2145 32.244 18.5865 32.172 18.9466 32.112C19.3066 32.052 19.6365 31.992 19.9365 31.932C20.4645 31.824 20.9145 31.704 21.2865 31.572C21.6585 31.44 21.9405 31.374 22.1325 31.374C22.2765 31.374 22.4085 31.41 22.5285 31.482C22.6605 31.554 22.7565 31.656 22.8165 31.788C22.8765 31.908 22.8885 32.052 22.8525 32.22C22.8165 32.424 22.6905 32.598 22.4746 32.742C22.2586 32.874 21.9885 32.982 21.6645 33.066C21.0165 33.246 20.4225 33.372 19.8825 33.444C19.3545 33.504 18.8685 33.564 18.4245 33.624C17.9805 33.672 17.5485 33.786 17.1285 33.966C16.7205 34.122 16.3185 34.404 15.9225 34.812C15.5385 35.208 15.1905 35.706 14.8785 36.306C14.5785 36.894 14.3565 37.56 14.2125 38.304C13.9605 39.588 13.8465 40.632 13.8705 41.436C13.9065 42.228 14.0865 42.81 14.4105 43.182C14.7465 43.554 15.2145 43.74 15.8145 43.74C16.2225 43.74 16.6365 43.638 17.0565 43.434C17.4765 43.218 17.8665 42.936 18.2265 42.588C18.5985 42.24 18.9105 41.862 19.1625 41.454C19.4265 41.034 19.5945 40.626 19.6665 40.23C19.7625 39.798 19.7565 39.432 19.6485 39.132C19.5525 38.82 19.3605 38.586 19.0725 38.43C18.7845 38.262 18.4005 38.178 17.9205 38.178C17.2845 38.178 16.5705 38.358 15.7785 38.718C14.9985 39.078 14.2125 39.624 13.4205 40.356L12.8445 39.672C13.3365 38.988 13.8945 38.43 14.5185 37.998C15.1425 37.554 15.7905 37.23 16.4625 37.026C17.1346 36.81 17.7705 36.702 18.3705 36.702C19.1025 36.702 19.7145 36.84 20.2065 37.116C20.6985 37.38 21.0465 37.764 21.2505 38.268C21.4545 38.772 21.4725 39.396 21.3045 40.14C21.1725 40.764 20.9265 41.376 20.5665 41.976C20.2185 42.564 19.7865 43.104 19.2705 43.596C18.7545 44.076 18.1845 44.466 17.5605 44.766C16.9365 45.054 16.2885 45.198 15.6165 45.198ZM33.219 45.216C32.235 45.216 31.425 45 30.789 44.568C30.165 44.136 29.733 43.554 29.493 42.822C29.265 42.078 29.241 41.232 29.421 40.284C29.553 39.612 29.781 39.024 30.105 38.52C30.441 38.004 30.813 37.572 31.221 37.224C31.641 36.876 32.061 36.618 32.481 36.45C32.901 36.27 33.261 36.18 33.561 36.18C33.693 36.18 33.801 36.198 33.885 36.234C33.981 36.27 34.053 36.33 34.101 36.414C34.161 36.486 34.179 36.588 34.155 36.72C34.095 36.96 33.999 37.182 33.867 37.386C33.735 37.578 33.489 37.752 33.129 37.908C32.697 38.112 32.331 38.34 32.031 38.592C31.743 38.832 31.5091 39.114 31.3291 39.438C31.149 39.75 31.023 40.128 30.951 40.572C30.759 41.544 30.873 42.324 31.293 42.912C31.713 43.488 32.355 43.776 33.219 43.776C34.059 43.776 34.791 43.476 35.415 42.876C36.051 42.264 36.465 41.454 36.657 40.446C36.849 39.522 36.789 38.802 36.477 38.286C36.165 37.758 35.649 37.494 34.929 37.494C34.557 37.494 34.239 37.566 33.975 37.71C33.723 37.854 33.447 38.046 33.147 38.286C32.931 38.466 32.757 38.628 32.625 38.772C32.493 38.916 32.373 39.03 32.265 39.114C32.169 39.186 32.043 39.222 31.887 39.222C31.719 39.222 31.587 39.168 31.491 39.06C31.407 38.94 31.389 38.754 31.437 38.502C31.485 38.226 31.623 37.944 31.851 37.656C32.091 37.368 32.379 37.104 32.715 36.864C33.063 36.612 33.435 36.414 33.831 36.27C34.227 36.114 34.617 36.036 35.001 36.036C35.865 36.036 36.567 36.24 37.107 36.648C37.647 37.044 38.013 37.596 38.205 38.304C38.397 39 38.397 39.804 38.205 40.716C38.037 41.616 37.713 42.408 37.233 43.092C36.753 43.764 36.165 44.286 35.469 44.658C34.785 45.03 34.035 45.216 33.219 45.216ZM43.8119 45.198C43.1759 45.198 42.6359 45.09 42.1919 44.874C41.7479 44.646 41.3939 44.334 41.1299 43.938C40.8659 43.53 40.6799 43.05 40.5719 42.498C40.4639 41.946 40.4279 41.34 40.4639 40.68C40.4999 40.008 40.5899 39.306 40.7339 38.574C40.8899 37.746 41.1179 37.002 41.4179 36.342C41.7179 35.67 42.0539 35.088 42.4259 34.596C42.8099 34.092 43.2119 33.678 43.6319 33.354C44.0519 33.03 44.4719 32.79 44.8919 32.634C45.2639 32.502 45.6419 32.4 46.0259 32.328C46.4099 32.244 46.7819 32.172 47.1419 32.112C47.5019 32.052 47.8319 31.992 48.1319 31.932C48.6599 31.824 49.1102 31.704 49.4822 31.572C49.8542 31.44 50.1362 31.374 50.3282 31.374C50.4722 31.374 50.6042 31.41 50.7242 31.482C50.8562 31.554 50.9522 31.656 51.0122 31.788C51.0722 31.908 51.0842 32.052 51.0482 32.22C51.0122 32.424 50.8862 32.598 50.6702 32.742C50.4542 32.874 50.1842 32.982 49.8602 33.066C49.2122 33.246 48.6179 33.372 48.0779 33.444C47.5499 33.504 47.0639 33.564 46.6199 33.624C46.1759 33.672 45.7439 33.786 45.3239 33.966C44.9159 34.122 44.5139 34.404 44.1179 34.812C43.7339 35.208 43.3859 35.706 43.0739 36.306C42.7739 36.894 42.5519 37.56 42.4079 38.304C42.1559 39.588 42.042 40.632 42.0659 41.436C42.1019 42.228 42.2819 42.81 42.6059 43.182C42.9419 43.554 43.4099 43.74 44.0099 43.74C44.4179 43.74 44.8319 43.638 45.2519 43.434C45.6719 43.218 46.0619 42.936 46.4219 42.588C46.7939 42.24 47.1059 41.862 47.3579 41.454C47.6219 41.034 47.7899 40.626 47.8619 40.23C47.9579 39.798 47.952 39.432 47.8439 39.132C47.7479 38.82 47.5559 38.586 47.2679 38.43C46.9799 38.262 46.5959 38.178 46.1159 38.178C45.4799 38.178 44.7659 38.358 43.9739 38.718C43.1939 39.078 42.4079 39.624 41.6159 40.356L41.0399 39.672C41.5319 38.988 42.0899 38.43 42.7139 37.998C43.3379 37.554 43.9859 37.23 44.6579 37.026C45.3299 36.81 45.966 36.702 46.5659 36.702C47.2979 36.702 47.9099 36.84 48.4019 37.116C48.8939 37.38 49.2422 37.764 49.4462 38.268C49.6502 38.772 49.6682 39.396 49.5002 40.14C49.3682 40.764 49.1222 41.376 48.7619 41.976C48.4139 42.564 47.9819 43.104 47.4659 43.596C46.9499 44.076 46.3799 44.466 45.7559 44.766C45.1319 45.054 44.4839 45.198 43.8119 45.198ZM53.8592 49.698C53.1272 49.698 52.5092 49.626 52.0052 49.482C51.5012 49.35 51.1352 49.164 50.9072 48.924C50.6792 48.684 50.5952 48.426 50.6552 48.15C50.7392 47.73 50.9972 47.52 51.4292 47.52C51.5732 47.52 51.7052 47.55 51.8252 47.61C51.9452 47.67 52.0832 47.736 52.2392 47.808C52.3952 47.892 52.6112 47.964 52.8872 48.024C53.1752 48.084 53.5532 48.114 54.0212 48.114C54.5972 48.114 55.0772 47.988 55.4612 47.736C55.8452 47.484 56.1512 47.13 56.3792 46.674C56.6192 46.218 56.7992 45.69 56.9192 45.09C56.9912 44.742 57.0392 44.4 57.0632 44.064C57.0992 43.728 57.1352 43.368 57.1712 42.984C57.2072 42.6 57.2552 42.156 57.3152 41.652C57.3752 41.136 57.4712 40.53 57.6032 39.834L58.1612 40.356C57.7772 41.184 57.3932 41.862 57.0092 42.39C56.6252 42.906 56.2532 43.308 55.8932 43.596C55.5332 43.872 55.1912 44.064 54.8672 44.172C54.5552 44.268 54.2732 44.316 54.0212 44.316C52.9772 44.316 52.2512 43.884 51.8432 43.02C51.4352 42.144 51.4232 40.746 51.8072 38.826C51.9632 38.022 52.1192 37.416 52.2752 37.008C52.4432 36.6 52.6172 36.324 52.7972 36.18C52.9772 36.036 53.1632 35.964 53.3552 35.964C53.6432 35.964 53.8292 36.066 53.9132 36.27C53.9972 36.474 53.9672 36.84 53.8232 37.368C53.6312 38.124 53.4812 38.832 53.3732 39.492C53.2652 40.14 53.2172 40.71 53.2292 41.202C53.2412 41.694 53.3192 42.078 53.4632 42.354C53.6072 42.618 53.8412 42.75 54.1652 42.75C54.6692 42.75 55.1612 42.492 55.6412 41.976C56.1212 41.448 56.5712 40.74 56.9912 39.852C57.4232 38.952 57.8132 37.944 58.1612 36.828C58.2692 36.492 58.3772 36.27 58.4852 36.162C58.5932 36.042 58.7612 35.982 58.9892 35.982C59.1572 35.982 59.3072 36.036 59.4392 36.144C59.5832 36.252 59.6672 36.444 59.6912 36.72C59.7272 36.984 59.6732 37.344 59.5292 37.8C59.3492 38.412 59.2112 38.958 59.1152 39.438C59.0312 39.918 58.9712 40.38 58.9352 40.824C58.8992 41.256 58.8692 41.7 58.8452 42.156C58.8332 42.6 58.7972 43.092 58.7372 43.632C58.6772 44.16 58.5812 44.772 58.4492 45.468C58.2332 46.548 57.8972 47.394 57.4412 48.006C56.9972 48.63 56.4692 49.068 55.8572 49.32C55.2452 49.572 54.5792 49.698 53.8592 49.698ZM63.4452 42.3C62.9892 42.3 62.6112 42.198 62.3112 41.994C62.0112 41.79 61.7892 41.508 61.6452 41.148C61.5132 40.788 61.4592 40.386 61.4832 39.942C61.4952 39.486 61.5672 39.024 61.6992 38.556C61.8312 38.088 61.9992 37.656 62.2032 37.26C62.4192 36.864 62.6532 36.54 62.9052 36.288C63.1572 36.036 63.4092 35.91 63.6612 35.91C63.7812 35.91 63.8832 35.934 63.9672 35.982C64.0632 36.03 64.1352 36.102 64.1832 36.198C64.2312 36.282 64.2492 36.39 64.2372 36.522C64.2252 36.63 64.1652 36.798 64.0572 37.026C63.9612 37.242 63.8412 37.5 63.6972 37.8C63.5532 38.088 63.4272 38.4 63.3192 38.736C63.2112 39.06 63.1512 39.39 63.1392 39.726C63.1392 39.942 63.1572 40.128 63.1932 40.284C63.2292 40.428 63.2952 40.536 63.3912 40.608C63.4992 40.68 63.6372 40.716 63.8052 40.716C64.1892 40.716 64.5852 40.62 64.9932 40.428C65.4012 40.236 65.7912 39.972 66.1632 39.636C66.5472 39.3 66.8892 38.934 67.1892 38.538C67.4893 38.13 67.7232 37.722 67.8912 37.314L68.0352 39.168C67.6152 39.768 67.1532 40.308 66.6492 40.788C66.1572 41.268 65.6352 41.64 65.0832 41.904C64.5432 42.168 63.9972 42.3 63.4452 42.3ZM67.2792 45.234C67.0152 45.234 66.8292 45.132 66.7212 44.928C66.6132 44.712 66.5352 44.454 66.4872 44.154C66.4632 43.926 66.4572 43.638 66.4692 43.29C66.4932 42.93 66.5352 42.546 66.5952 42.138C66.6552 41.73 66.7272 41.34 66.8112 40.968C66.8712 40.692 66.9492 40.38 67.0452 40.032C67.1412 39.672 67.2432 39.312 67.3512 38.952C67.4592 38.592 67.5672 38.256 67.6752 37.944C67.7832 37.62 67.8672 37.362 67.9272 37.17C68.0472 36.786 68.1792 36.486 68.3232 36.27C68.4792 36.054 68.6652 35.946 68.8812 35.946C69.0853 35.946 69.2592 36.072 69.4032 36.324C69.5472 36.576 69.5772 36.894 69.4932 37.278C69.4453 37.542 69.3432 37.902 69.1872 38.358C69.0312 38.802 68.8752 39.264 68.7192 39.744C68.5752 40.212 68.4672 40.62 68.3952 40.968C68.2752 41.532 68.1912 42.024 68.1432 42.444C68.0952 42.864 68.0712 43.236 68.0712 43.56C68.0592 43.8 68.0592 43.998 68.0712 44.154C68.0832 44.31 68.0772 44.448 68.0532 44.568C68.0172 44.736 67.9333 44.886 67.8012 45.018C67.6812 45.162 67.5072 45.234 67.2792 45.234ZM74.4442 45.18C73.7002 45.18 73.0762 45.078 72.5722 44.874C72.0802 44.658 71.7022 44.364 71.4382 43.992C71.1742 43.608 71.0062 43.164 70.9342 42.66C70.8742 42.156 70.9042 41.604 71.0242 41.004C71.1562 40.416 71.3842 39.828 71.7082 39.24C72.0442 38.64 72.4582 38.094 72.9502 37.602C73.4542 37.11 74.0122 36.72 74.6242 36.432C75.2482 36.132 75.9022 35.982 76.5862 35.982C77.2222 35.982 77.7442 36.084 78.1522 36.288C78.5722 36.492 78.8602 36.792 79.0162 37.188C79.1842 37.584 79.2083 38.082 79.0882 38.682C78.9922 39.174 78.7942 39.612 78.4942 39.996C78.2062 40.368 77.8402 40.686 77.3962 40.95C76.9642 41.202 76.4782 41.4 75.9382 41.544C75.4102 41.676 74.8462 41.742 74.2462 41.742C73.4302 41.742 72.8842 41.646 72.6082 41.454C72.3442 41.262 72.2363 41.046 72.2842 40.806C72.3083 40.662 72.3622 40.56 72.4462 40.5C72.5302 40.428 72.6622 40.392 72.8422 40.392C72.9743 40.392 73.1302 40.416 73.3102 40.464C73.5022 40.5 73.7842 40.518 74.1562 40.518C74.7562 40.518 75.2962 40.434 75.7762 40.266C76.2682 40.098 76.6702 39.87 76.9822 39.582C77.2942 39.282 77.4922 38.94 77.5762 38.556C77.6482 38.196 77.6002 37.926 77.4322 37.746C77.2762 37.566 76.9642 37.476 76.4962 37.476C76.0282 37.476 75.5782 37.584 75.1462 37.8C74.7262 38.004 74.3302 38.286 73.9582 38.646C73.5982 39.006 73.2922 39.42 73.0402 39.888C72.7882 40.356 72.6142 40.848 72.5182 41.364C72.4342 41.796 72.4282 42.192 72.5002 42.552C72.5722 42.9 72.7522 43.188 73.0402 43.416C73.3402 43.632 73.7662 43.74 74.3182 43.74C74.9422 43.74 75.4762 43.662 75.9202 43.506C76.3762 43.338 76.7602 43.146 77.0722 42.93C77.3842 42.714 77.6482 42.528 77.8643 42.372C78.0803 42.216 78.2722 42.138 78.4402 42.138C78.6442 42.138 78.7882 42.216 78.8722 42.372C78.9682 42.516 78.9922 42.708 78.9443 42.948C78.8963 43.188 78.7342 43.44 78.4582 43.704C78.1942 43.956 77.8462 44.196 77.4142 44.424C76.9942 44.652 76.5262 44.838 76.0102 44.982C75.5062 45.114 74.9842 45.18 74.4442 45.18ZM81.9232 45.198C81.4912 45.198 81.2032 44.922 81.0592 44.37C80.9152 43.818 80.9332 43.086 81.1132 42.174C81.2572 41.538 81.4193 41.058 81.5993 40.734C81.7913 40.398 82.0072 40.17 82.2472 40.05C82.3792 39.978 82.5652 39.936 82.8052 39.924C83.0452 39.9 83.2972 39.888 83.5612 39.888C84.4372 39.888 85.3013 39.846 86.1533 39.762C87.0173 39.666 87.8632 39.486 88.6912 39.222L89.0153 40.464C88.3913 40.704 87.7192 40.884 86.9992 41.004C86.2792 41.124 85.5472 41.208 84.8032 41.256C84.0712 41.292 83.3572 41.31 82.6612 41.31L81.6172 41.148C81.7732 40.44 81.9352 39.696 82.1032 38.916C82.2712 38.136 82.4152 37.44 82.5352 36.828C82.5832 36.54 82.6793 36.306 82.8232 36.126C82.9672 35.946 83.1292 35.856 83.3092 35.856C83.6092 35.856 83.8312 35.976 83.9752 36.216C84.1192 36.444 84.1372 36.81 84.0292 37.314C83.9812 37.578 83.9092 37.896 83.8132 38.268C83.7172 38.64 83.6152 39.03 83.5072 39.438C83.4112 39.846 83.3152 40.236 83.2192 40.608C83.1352 40.968 83.0692 41.268 83.0212 41.508C82.8773 42.204 82.7692 42.828 82.6972 43.38C82.6372 43.92 82.5832 44.328 82.5352 44.604C82.4992 44.772 82.4212 44.91 82.3012 45.018C82.1932 45.138 82.0672 45.198 81.9232 45.198ZM88.1332 45.198C87.8332 45.198 87.6172 45.024 87.4852 44.676C87.3652 44.328 87.3112 43.854 87.3232 43.254C87.3473 42.642 87.4313 41.97 87.5752 41.238C87.8152 40.086 88.0252 39.174 88.2052 38.502C88.3972 37.818 88.5712 37.278 88.7272 36.882C88.8232 36.618 88.9432 36.384 89.0872 36.18C89.2312 35.976 89.4052 35.874 89.6092 35.874C89.8732 35.874 90.0592 36 90.1672 36.252C90.2872 36.492 90.3112 36.786 90.2393 37.134C90.1553 37.566 90.0232 38.034 89.8432 38.538C89.6752 39.042 89.5372 39.588 89.4292 40.176C89.2852 40.896 89.1832 41.55 89.1232 42.138C89.0752 42.714 89.0452 43.2 89.0332 43.596C89.0212 43.992 88.9912 44.286 88.9432 44.478C88.9072 44.694 88.8112 44.868 88.6553 45C88.4993 45.132 88.3252 45.198 88.1332 45.198ZM93.4053 45.198C92.9973 45.198 92.6732 45.102 92.4333 44.91C92.2053 44.718 92.0372 44.466 91.9292 44.154C91.8212 43.83 91.7673 43.482 91.7673 43.11C91.7793 42.726 91.8212 42.354 91.8932 41.994C91.9652 41.682 92.0612 41.31 92.1813 40.878C92.3133 40.446 92.4572 39.996 92.6132 39.528C92.7692 39.06 92.9192 38.622 93.0632 38.214C93.2192 37.806 93.3452 37.488 93.4412 37.26C93.5972 36.84 93.7352 36.516 93.8552 36.288C93.9873 36.06 94.1432 35.946 94.3232 35.946C94.4792 35.946 94.6232 36 94.7552 36.108C94.8872 36.216 94.9833 36.354 95.0433 36.522C95.1152 36.69 95.1333 36.876 95.0973 37.08C95.0612 37.272 94.9772 37.548 94.8452 37.908C94.7132 38.268 94.5632 38.67 94.3952 39.114C94.2272 39.558 94.0652 40.008 93.9092 40.464C93.7533 40.908 93.6392 41.31 93.5672 41.67C93.4952 41.994 93.4472 42.306 93.4232 42.606C93.3992 42.894 93.4113 43.134 93.4593 43.326C93.5072 43.506 93.6093 43.596 93.7653 43.596C94.1493 43.596 94.6352 43.254 95.2232 42.57C95.8232 41.886 96.4892 40.944 97.2212 39.744C97.5572 39.216 97.8512 38.724 98.1032 38.268C98.3552 37.812 98.5772 37.416 98.7692 37.08C98.9613 36.732 99.1472 36.462 99.3272 36.27C99.5072 36.078 99.6872 35.982 99.8672 35.982C100.143 35.982 100.341 36.09 100.461 36.306C100.593 36.51 100.653 36.786 100.641 37.134C100.641 37.446 100.629 37.83 100.605 38.286C100.593 38.742 100.581 39.21 100.569 39.69C100.557 40.158 100.557 40.596 100.569 41.004C100.605 41.7 100.671 42.27 100.767 42.714C100.875 43.146 100.971 43.494 101.055 43.758C101.139 44.022 101.175 44.238 101.163 44.406C101.151 44.538 101.109 44.664 101.037 44.784C100.965 44.892 100.875 44.982 100.767 45.054C100.659 45.126 100.539 45.162 100.407 45.162C99.9873 45.162 99.6872 44.886 99.5072 44.334C99.3272 43.782 99.1892 43.044 99.0932 42.12C99.0692 41.688 99.0452 41.226 99.0212 40.734C99.0092 40.242 99.0092 39.75 99.0212 39.258C99.0452 38.766 99.0692 38.31 99.0932 37.89L99.6152 38.07C99.4112 38.49 99.1712 38.952 98.8952 39.456C98.6192 39.96 98.2412 40.602 97.7612 41.382C97.3532 42.03 96.9092 42.648 96.4292 43.236C95.9492 43.812 95.4512 44.286 94.9352 44.658C94.4313 45.018 93.9212 45.198 93.4053 45.198ZM104.989 45.198C104.581 45.198 104.257 45.102 104.017 44.91C103.789 44.718 103.621 44.466 103.513 44.154C103.405 43.83 103.351 43.482 103.351 43.11C103.363 42.726 103.405 42.354 103.477 41.994C103.549 41.682 103.645 41.31 103.765 40.878C103.897 40.446 104.041 39.996 104.197 39.528C104.353 39.06 104.503 38.622 104.647 38.214C104.803 37.806 104.929 37.488 105.025 37.26C105.181 36.84 105.319 36.516 105.439 36.288C105.571 36.06 105.727 35.946 105.907 35.946C106.063 35.946 106.207 36 106.339 36.108C106.471 36.216 106.567 36.354 106.627 36.522C106.699 36.69 106.717 36.876 106.681 37.08C106.645 37.272 106.561 37.548 106.429 37.908C106.297 38.268 106.147 38.67 105.979 39.114C105.811 39.558 105.649 40.008 105.493 40.464C105.337 40.908 105.223 41.31 105.151 41.67C105.079 41.994 105.031 42.306 105.007 42.606C104.983 42.894 104.995 43.134 105.043 43.326C105.091 43.506 105.193 43.596 105.349 43.596C105.733 43.596 106.219 43.254 106.807 42.57C107.407 41.886 108.073 40.944 108.805 39.744C109.141 39.216 109.435 38.724 109.687 38.268C109.939 37.812 110.161 37.416 110.353 37.08C110.545 36.732 110.731 36.462 110.911 36.27C111.091 36.078 111.271 35.982 111.451 35.982C111.727 35.982 111.925 36.09 112.045 36.306C112.177 36.51 112.237 36.786 112.225 37.134C112.225 37.446 112.213 37.83 112.189 38.286C112.177 38.742 112.165 39.21 112.153 39.69C112.141 40.158 112.141 40.596 112.153 41.004C112.189 41.7 112.255 42.27 112.351 42.714C112.459 43.146 112.555 43.494 112.639 43.758C112.723 44.022 112.759 44.238 112.747 44.406C112.735 44.538 112.693 44.664 112.621 44.784C112.549 44.892 112.459 44.982 112.351 45.054C112.243 45.126 112.123 45.162 111.991 45.162C111.715 45.162 111.487 45.036 111.307 44.784C111.139 44.532 111.007 44.178 110.911 43.722C110.815 43.266 110.737 42.732 110.677 42.12C110.653 41.688 110.629 41.226 110.605 40.734C110.593 40.242 110.593 39.75 110.605 39.258C110.629 38.766 110.653 38.31 110.677 37.89L111.199 38.07C111.055 38.346 110.899 38.64 110.731 38.952C110.575 39.264 110.383 39.618 110.155 40.014C109.939 40.398 109.669 40.854 109.345 41.382C108.937 42.03 108.493 42.648 108.013 43.236C107.533 43.812 107.035 44.286 106.519 44.658C106.015 45.018 105.505 45.198 104.989 45.198ZM3.56575 61.288C2.95375 61.288 2.45574 61.162 2.07174 60.91C1.69974 60.658 1.42375 60.334 1.24375 59.938C1.07575 59.53 0.979748 59.092 0.955748 58.624C0.943748 58.144 0.979745 57.676 1.06375 57.22C1.17175 56.716 1.32775 56.17 1.53175 55.582C1.74775 54.994 1.98775 54.43 2.25175 53.89C2.51575 53.338 2.77975 52.882 3.04375 52.522C3.15175 52.366 3.27175 52.24 3.40375 52.144C3.54775 52.048 3.69775 51.982 3.85375 51.946C4.00975 51.898 4.16575 51.874 4.32174 51.874C4.46574 51.874 4.56775 51.922 4.62775 52.018C4.68775 52.102 4.69975 52.222 4.66375 52.378C4.62775 52.558 4.52575 52.786 4.35775 53.062C4.20175 53.338 4.00975 53.674 3.78175 54.07C3.56575 54.466 3.34975 54.94 3.13375 55.492C2.91775 56.032 2.73775 56.668 2.59375 57.4C2.43775 58.168 2.45575 58.78 2.64775 59.236C2.83975 59.692 3.24175 59.92 3.85375 59.92C4.30975 59.92 4.76575 59.8 5.22175 59.56C5.67775 59.32 6.07975 58.996 6.42775 58.588C6.78775 58.168 7.02775 57.7 7.14775 57.184L7.34575 57.526C7.04575 57.406 6.68575 57.316 6.26575 57.256C5.85775 57.184 5.41975 57.136 4.95175 57.112C4.49575 57.076 4.04575 57.07 3.60175 57.094C3.15775 57.106 2.76175 57.142 2.41375 57.202L2.64775 56.014C3.27175 56.002 3.85975 55.93 4.41175 55.798C4.97575 55.654 5.47375 55.468 5.90575 55.24C6.34975 55.012 6.70975 54.772 6.98575 54.52C7.26175 54.256 7.41775 54.01 7.45374 53.782C7.48974 53.614 7.44775 53.482 7.32775 53.386C7.20775 53.278 7.01575 53.224 6.75175 53.224C6.42775 53.224 6.08575 53.272 5.72575 53.368C5.37775 53.464 5.00575 53.584 4.60975 53.728C4.21375 53.872 3.79374 54.022 3.34974 54.178C3.16974 54.226 3.01975 54.202 2.89975 54.106C2.79175 54.01 2.75575 53.89 2.79175 53.746C2.82775 53.578 2.94175 53.422 3.13375 53.278C3.33775 53.122 3.52975 53.008 3.70975 52.936C4.44175 52.552 5.11975 52.288 5.74375 52.144C6.37975 51.988 6.96775 51.91 7.50775 51.91C7.93975 51.91 8.29375 51.976 8.56975 52.108C8.85775 52.24 9.06175 52.42 9.18175 52.648C9.31375 52.876 9.34975 53.134 9.28975 53.422C9.21775 53.806 9.03775 54.172 8.74975 54.52C8.46175 54.868 8.09575 55.192 7.65175 55.492C7.21975 55.78 6.74575 56.026 6.22975 56.23C5.71375 56.434 5.17375 56.584 4.60975 56.68L4.69975 55.996C5.26375 55.972 5.78575 55.972 6.26575 55.996C6.75775 56.02 7.18975 56.074 7.56175 56.158C7.93375 56.242 8.21575 56.38 8.40775 56.572C8.61175 56.752 8.70775 56.992 8.69575 57.292C8.67175 57.772 8.50375 58.252 8.19175 58.732C7.89175 59.2 7.48975 59.626 6.98575 60.01C6.49375 60.394 5.94775 60.706 5.34775 60.946C4.75975 61.174 4.16575 61.288 3.56575 61.288ZM19.695 61.162C18.327 61.162 17.349 61.006 16.761 60.694C16.173 60.382 15.921 60.022 16.005 59.614C16.029 59.434 16.101 59.296 16.221 59.2C16.341 59.104 16.503 59.056 16.707 59.056C16.875 59.056 17.031 59.086 17.175 59.146C17.331 59.194 17.511 59.254 17.715 59.326C17.931 59.386 18.201 59.446 18.525 59.506C18.849 59.554 19.263 59.578 19.767 59.578C20.259 59.578 20.703 59.548 21.099 59.488C21.495 59.416 21.843 59.314 22.143 59.182C22.443 59.038 22.695 58.882 22.899 58.714C22.899 58.378 22.755 58.078 22.467 57.814C22.191 57.55 21.831 57.304 21.387 57.076C20.955 56.848 20.499 56.614 20.019 56.374C19.539 56.134 19.095 55.87 18.687 55.582C18.291 55.282 17.985 54.934 17.769 54.538C17.565 54.142 17.517 53.668 17.625 53.116C17.745 52.516 18.027 51.97 18.471 51.478C18.927 50.974 19.467 50.524 20.091 50.128C20.727 49.72 21.387 49.378 22.071 49.102C22.767 48.814 23.433 48.598 24.069 48.454C24.717 48.298 25.263 48.22 25.707 48.22C25.923 48.22 26.097 48.256 26.229 48.328C26.361 48.4 26.445 48.496 26.481 48.616C26.529 48.736 26.535 48.874 26.499 49.03C26.463 49.234 26.367 49.402 26.211 49.534C26.055 49.666 25.815 49.762 25.491 49.822C24.267 50.05 23.205 50.35 22.305 50.722C21.405 51.094 20.691 51.508 20.163 51.964C19.647 52.42 19.341 52.882 19.245 53.35C19.185 53.65 19.281 53.926 19.533 54.178C19.785 54.43 20.127 54.676 20.559 54.916C21.003 55.144 21.471 55.39 21.963 55.654C22.455 55.906 22.911 56.188 23.331 56.5C23.751 56.8 24.075 57.148 24.303 57.544C24.543 57.94 24.609 58.396 24.501 58.912C24.417 59.308 24.231 59.65 23.943 59.938C23.667 60.226 23.313 60.46 22.881 60.64C22.449 60.82 21.957 60.952 21.405 61.036C20.865 61.12 20.295 61.162 19.695 61.162ZM35.9279 61.162C35.6639 61.162 35.4719 61.054 35.3519 60.838C35.2319 60.61 35.1239 60.232 35.0279 59.704C34.9439 59.272 34.8779 58.738 34.8299 58.102C34.7939 57.466 34.7759 56.794 34.7759 56.086C34.7879 55.366 34.8179 54.688 34.8659 54.052C34.9379 53.272 34.9919 52.606 35.0279 52.054C35.0759 51.502 35.0879 51.064 35.0639 50.74C35.0519 50.404 34.9979 50.158 34.9019 50.002C34.8059 49.846 34.6499 49.768 34.4339 49.768C34.1099 49.768 33.6959 50.026 33.1919 50.542C32.6999 51.046 32.1599 51.766 31.5719 52.702C30.9839 53.638 30.3899 54.76 29.7899 56.068C29.1899 57.364 28.6259 58.81 28.0979 60.406C28.0139 60.646 27.9059 60.832 27.7739 60.964C27.6419 61.084 27.4859 61.144 27.3059 61.144C27.0299 61.144 26.8319 61.054 26.7119 60.874C26.5919 60.682 26.5799 60.346 26.6759 59.866C26.8199 59.17 27.0239 58.48 27.2879 57.796C27.5639 57.1 27.8639 56.404 28.1879 55.708C28.5119 55 28.8179 54.292 29.1059 53.584C29.4059 52.876 29.652 52.168 29.844 51.46C29.892 51.244 29.9699 51.076 30.0779 50.956C30.1979 50.824 30.3419 50.758 30.5099 50.758C30.6779 50.758 30.8279 50.806 30.9599 50.902C31.1039 50.998 31.2179 51.148 31.3019 51.352L30.6179 51.55C31.3739 50.422 32.0639 49.588 32.6879 49.048C33.3239 48.508 33.9599 48.238 34.5959 48.238C35.2919 48.238 35.7839 48.442 36.0719 48.85C36.3599 49.258 36.5159 49.882 36.5399 50.722C36.5639 51.562 36.5159 52.654 36.3959 53.998C36.2999 54.994 36.2699 55.852 36.3059 56.572C36.3419 57.292 36.3899 57.904 36.4499 58.408C36.5219 58.912 36.5819 59.332 36.6299 59.668C36.6779 60.004 36.6779 60.298 36.6299 60.55C36.5939 60.742 36.5099 60.892 36.3779 61C36.2579 61.108 36.1079 61.162 35.9279 61.162ZM26.9999 57.634C26.7359 57.634 26.5499 57.574 26.4419 57.454C26.334 57.334 26.3039 57.184 26.3519 57.004C26.3759 56.848 26.4419 56.722 26.5499 56.626C26.6699 56.518 26.8559 56.422 27.108 56.338C28.5 55.846 30.0539 55.486 31.7699 55.258C33.4979 55.03 35.3399 54.916 37.2959 54.916C37.7159 54.916 37.9859 54.976 38.1059 55.096C38.2379 55.216 38.2799 55.39 38.2319 55.618C38.1839 55.858 38.0279 56.062 37.7639 56.23C37.4999 56.386 37.1519 56.464 36.7199 56.464C35.3399 56.464 34.1699 56.506 33.2099 56.59C32.2619 56.662 31.464 56.758 30.816 56.878C30.1679 56.986 29.6159 57.1 29.1599 57.22C28.7159 57.34 28.3259 57.442 27.9899 57.526C27.6659 57.598 27.3359 57.634 26.9999 57.634ZM40.6462 61.252C40.3222 61.252 40.1182 61.114 40.0342 60.838C39.9502 60.562 40.0342 60.124 40.2862 59.524C40.6342 58.684 41.0662 57.79 41.5822 56.842C42.0982 55.882 42.6862 54.928 43.3462 53.98C44.0182 53.02 44.7442 52.09 45.5242 51.19C46.3042 50.29 47.1262 49.474 47.9902 48.742C48.2782 48.502 48.5062 48.346 48.6742 48.274C48.8542 48.202 49.0162 48.166 49.1602 48.166C49.3522 48.166 49.5022 48.232 49.6102 48.364C49.7182 48.496 49.7542 48.682 49.7182 48.922C49.6942 49.078 49.6522 49.216 49.5922 49.336C49.5322 49.456 49.4302 49.588 49.2862 49.732C49.1422 49.864 48.9382 50.044 48.6742 50.272C47.6902 51.112 46.7662 52.06 45.9022 53.116C45.0382 54.172 44.2582 55.294 43.5622 56.482C42.8662 57.658 42.2782 58.87 41.7982 60.118C41.6182 60.574 41.4442 60.874 41.2762 61.018C41.1082 61.174 40.8982 61.252 40.6462 61.252ZM42.8602 55.672C42.6802 55.672 42.5362 55.624 42.4282 55.528C42.3202 55.432 42.2362 55.306 42.1762 55.15C41.9122 54.49 41.6722 53.938 41.4562 53.494C41.2402 53.038 41.0362 52.642 40.8442 52.306C40.6522 51.958 40.4662 51.622 40.2862 51.298C40.1182 50.962 39.9442 50.584 39.7642 50.164C39.6442 49.828 39.5662 49.576 39.5302 49.408C39.4942 49.228 39.4942 49.042 39.5302 48.85C39.5662 48.646 39.6442 48.484 39.7642 48.364C39.8842 48.244 40.0402 48.184 40.2322 48.184C40.4122 48.184 40.5622 48.238 40.6822 48.346C40.8142 48.442 40.9282 48.61 41.0242 48.85C41.1922 49.342 41.3542 49.768 41.5102 50.128C41.6782 50.476 41.8402 50.8 41.9962 51.1C42.1642 51.388 42.3322 51.688 42.5002 52C42.6682 52.3 42.8362 52.642 43.0042 53.026C43.1722 53.41 43.3402 53.878 43.5082 54.43C43.5442 54.538 43.5562 54.664 43.5442 54.808C43.5442 54.952 43.5202 55.09 43.4722 55.222C43.4242 55.354 43.3462 55.462 43.2382 55.546C43.1422 55.63 43.0162 55.672 42.8602 55.672ZM57.6442 61.252C57.3202 61.252 57.1162 61.114 57.0322 60.838C56.9482 60.562 57.0322 60.124 57.2842 59.524C57.6322 58.684 58.0642 57.79 58.5802 56.842C59.0962 55.882 59.6842 54.928 60.3442 53.98C61.0162 53.02 61.7422 52.09 62.5222 51.19C63.3022 50.29 64.1242 49.474 64.9882 48.742C65.2762 48.502 65.5042 48.346 65.6722 48.274C65.8522 48.202 66.0142 48.166 66.1582 48.166C66.3502 48.166 66.5002 48.232 66.6082 48.364C66.7162 48.496 66.7523 48.682 66.7162 48.922C66.6922 49.078 66.6502 49.216 66.5902 49.336C66.5303 49.456 66.4282 49.588 66.2842 49.732C66.1403 49.864 65.9362 50.044 65.6722 50.272C64.6882 51.112 63.7642 52.06 62.9002 53.116C62.0362 54.172 61.2562 55.294 60.5602 56.482C59.8642 57.658 59.2762 58.87 58.7962 60.118C58.6162 60.574 58.4422 60.874 58.2742 61.018C58.1062 61.174 57.8962 61.252 57.6442 61.252ZM59.8582 55.672C59.6782 55.672 59.5342 55.624 59.4262 55.528C59.3182 55.432 59.2342 55.306 59.1742 55.15C58.9102 54.49 58.6702 53.938 58.4542 53.494C58.2382 53.038 58.0342 52.642 57.8422 52.306C57.6502 51.958 57.4642 51.622 57.2842 51.298C57.1162 50.962 56.9422 50.584 56.7622 50.164C56.6422 49.828 56.5642 49.576 56.5282 49.408C56.4922 49.228 56.4922 49.042 56.5282 48.85C56.5642 48.646 56.6422 48.484 56.7622 48.364C56.8822 48.244 57.0382 48.184 57.2302 48.184C57.4102 48.184 57.5602 48.238 57.6802 48.346C57.8122 48.442 57.9262 48.61 58.0222 48.85C58.1902 49.342 58.3522 49.768 58.5082 50.128C58.6762 50.476 58.8382 50.8 58.9942 51.1C59.1622 51.388 59.3302 51.688 59.4982 52C59.6662 52.3 59.8342 52.642 60.0022 53.026C60.1702 53.41 60.3382 53.878 60.5062 54.43C60.5422 54.538 60.5542 54.664 60.5422 54.808C60.5422 54.952 60.5182 55.09 60.4702 55.222C60.4222 55.354 60.3442 55.462 60.2362 55.546C60.1402 55.63 60.0142 55.672 59.8582 55.672ZM71.2802 61.126C70.3802 61.126 69.6122 60.988 68.9762 60.712C68.3522 60.424 67.8602 60.028 67.5002 59.524C67.1402 59.008 66.9122 58.414 66.8162 57.742C66.7202 57.07 66.7442 56.35 66.8882 55.582C67.0082 55.03 67.1762 54.478 67.3922 53.926C67.6082 53.374 67.8602 52.846 68.1482 52.342C68.4482 51.838 68.7602 51.364 69.0842 50.92C69.3722 50.536 69.6662 50.206 69.9662 49.93C70.2782 49.654 70.5962 49.516 70.9202 49.516C71.0762 49.516 71.1962 49.558 71.2802 49.642C71.3762 49.714 71.4182 49.828 71.4062 49.984C71.4062 50.128 71.3282 50.308 71.1722 50.524C70.7762 51.004 70.3982 51.526 70.0382 52.09C69.6782 52.642 69.3602 53.224 69.0842 53.836C68.8082 54.436 68.6042 55.06 68.4722 55.708C68.3162 56.476 68.3282 57.154 68.5082 57.742C68.6882 58.318 69.0122 58.768 69.4802 59.092C69.9603 59.416 70.5602 59.578 71.2802 59.578C71.9042 59.578 72.4202 59.536 72.8282 59.452C73.2482 59.368 73.5902 59.266 73.8542 59.146C74.1302 59.026 74.3522 58.924 74.5202 58.84C74.7002 58.756 74.8502 58.714 74.9702 58.714C75.1862 58.714 75.3302 58.78 75.4022 58.912C75.4742 59.032 75.4922 59.194 75.4562 59.398C75.4082 59.674 75.2102 59.944 74.8622 60.208C74.5262 60.472 74.0582 60.694 73.4582 60.874C72.8702 61.042 72.1442 61.126 71.2802 61.126ZM68.5082 56.068C68.2322 56.128 68.0222 56.128 67.8782 56.068C67.7462 56.008 67.6622 55.912 67.6262 55.78C67.6022 55.636 67.6022 55.492 67.6262 55.348C67.6742 55.132 67.8182 54.946 68.0582 54.79C68.2982 54.634 68.6162 54.52 69.0122 54.448C69.4202 54.376 69.8642 54.31 70.3442 54.25C70.8362 54.178 71.3222 54.118 71.8022 54.07C72.2822 54.01 72.7382 53.962 73.1702 53.926C73.6022 53.878 73.9922 53.848 74.3402 53.836C74.7002 53.836 74.9402 53.896 75.0602 54.016C75.1802 54.124 75.2222 54.28 75.1862 54.484C75.1142 54.796 74.9222 55.018 74.6102 55.15C74.2982 55.27 73.9562 55.348 73.5842 55.384C73.1522 55.408 72.7022 55.45 72.2342 55.51C71.7782 55.558 71.3222 55.612 70.8662 55.672C70.4102 55.732 69.9782 55.798 69.5702 55.87C69.1742 55.93 68.8202 55.996 68.5082 56.068ZM69.2102 50.326C68.8622 50.326 68.6102 50.254 68.4542 50.11C68.2982 49.966 68.2442 49.786 68.2922 49.57C68.3162 49.438 68.3822 49.312 68.4902 49.192C68.5982 49.06 68.7542 48.97 68.9582 48.922C69.7742 48.754 70.6502 48.622 71.5862 48.526C72.5342 48.43 73.4522 48.358 74.3402 48.31C75.2402 48.262 76.0202 48.238 76.6802 48.238C76.9802 48.238 77.1962 48.316 77.3282 48.472C77.4722 48.616 77.5202 48.796 77.4723 49.012C77.4243 49.228 77.3223 49.414 77.1663 49.57C77.0103 49.714 76.7762 49.786 76.4642 49.786C75.3962 49.786 74.4722 49.816 73.6922 49.876C72.9122 49.924 72.2462 49.984 71.6942 50.056C71.1422 50.128 70.6622 50.194 70.2542 50.254C69.8582 50.302 69.5102 50.326 69.2102 50.326ZM80.5852 61.162C79.2172 61.162 78.2392 61.006 77.6512 60.694C77.0632 60.382 76.8112 60.022 76.8952 59.614C76.9193 59.434 76.9912 59.296 77.1112 59.2C77.2312 59.104 77.3932 59.056 77.5973 59.056C77.7653 59.056 77.9212 59.086 78.0652 59.146C78.2212 59.194 78.4012 59.254 78.6052 59.326C78.8213 59.386 79.0912 59.446 79.4152 59.506C79.7392 59.554 80.1533 59.578 80.6572 59.578C81.1492 59.578 81.5932 59.548 81.9893 59.488C82.3853 59.416 82.7332 59.314 83.0332 59.182C83.3332 59.038 83.5852 58.882 83.7892 58.714C83.7892 58.378 83.6452 58.078 83.3572 57.814C83.0812 57.55 82.7212 57.304 82.2772 57.076C81.8452 56.848 81.3893 56.614 80.9092 56.374C80.4292 56.134 79.9852 55.87 79.5772 55.582C79.1812 55.282 78.8753 54.934 78.6592 54.538C78.4552 54.142 78.4072 53.668 78.5153 53.116C78.6353 52.516 78.9172 51.97 79.3612 51.478C79.8172 50.974 80.3572 50.524 80.9812 50.128C81.6172 49.72 82.2773 49.378 82.9613 49.102C83.6572 48.814 84.3232 48.598 84.9593 48.454C85.6073 48.298 86.1533 48.22 86.5973 48.22C86.8133 48.22 86.9872 48.256 87.1192 48.328C87.2512 48.4 87.3352 48.496 87.3712 48.616C87.4192 48.736 87.4252 48.874 87.3892 49.03C87.3532 49.234 87.2572 49.402 87.1012 49.534C86.9453 49.666 86.7052 49.762 86.3812 49.822C85.1572 50.05 84.0952 50.35 83.1952 50.722C82.2952 51.094 81.5812 51.508 81.0532 51.964C80.5372 52.42 80.2312 52.882 80.1352 53.35C80.0752 53.65 80.1712 53.926 80.4232 54.178C80.6752 54.43 81.0172 54.676 81.4492 54.916C81.8932 55.144 82.3613 55.39 82.8532 55.654C83.3452 55.906 83.8012 56.188 84.2212 56.5C84.6412 56.8 84.9652 57.148 85.1932 57.544C85.4332 57.94 85.4992 58.396 85.3912 58.912C85.3072 59.308 85.1212 59.65 84.8332 59.938C84.5572 60.226 84.2032 60.46 83.7712 60.64C83.3392 60.82 82.8473 60.952 82.2952 61.036C81.7552 61.12 81.1852 61.162 80.5852 61.162ZM89.6232 56.986C89.4312 56.986 89.2812 56.92 89.1732 56.788C89.0652 56.644 89.0112 56.458 89.0112 56.23C89.0352 55.558 89.0772 54.97 89.1372 54.466C89.2092 53.95 89.2992 53.41 89.4072 52.846C89.5393 52.222 89.6592 51.694 89.7673 51.262C89.8873 50.83 90.0012 50.434 90.1092 50.074C90.2172 49.714 90.3073 49.348 90.3792 48.976C90.4153 48.76 90.4992 48.574 90.6312 48.418C90.7633 48.25 90.9432 48.166 91.1712 48.166C91.4232 48.166 91.6213 48.274 91.7653 48.49C91.9092 48.694 91.9452 49.012 91.8732 49.444C91.8012 49.78 91.7172 50.098 91.6212 50.398C91.5252 50.698 91.4232 51.046 91.3152 51.442C91.2072 51.826 91.0872 52.33 90.9552 52.954C90.8712 53.386 90.8112 53.746 90.7752 54.034C90.7392 54.322 90.7093 54.574 90.6852 54.79C90.6612 55.006 90.6372 55.21 90.6132 55.402C90.6012 55.594 90.5712 55.804 90.5232 56.032C90.4392 56.38 90.3073 56.626 90.1273 56.77C89.9593 56.914 89.7912 56.986 89.6232 56.986ZM88.9752 61.198C88.5312 61.198 88.1892 61.084 87.9492 60.856C87.7092 60.616 87.6312 60.28 87.7152 59.848C87.7752 59.524 87.9252 59.266 88.1652 59.074C88.4052 58.882 88.6752 58.786 88.9752 58.786C89.5032 58.786 89.8572 58.93 90.0372 59.218C90.2172 59.506 90.2712 59.836 90.1992 60.208C90.1392 60.46 90.0072 60.688 89.8032 60.892C89.6112 61.096 89.3352 61.198 88.9752 61.198Z" fill="#7831B2"/>
</svg>
