<svg width="150" height="22" viewBox="0 0 150 22" fill="none" xmlns="http://www.w3.org/2000/svg">
<path d="M11 1L14.09 7.58254L21 8.64458L16 13.7655L17.18 21L11 17.5825L4.82 21L6 13.7655L1 8.64458L7.91 7.58254L11 1Z" fill="#7831B2" stroke="#7831B2" stroke-width="2" stroke-linecap="round" stroke-linejoin="round"/>
<path d="M43 1L46.09 7.58254L53 8.64458L48 13.7655L49.18 21L43 17.5825L36.82 21L38 13.7655L33 8.64458L39.91 7.58254L43 1Z" fill="#7831B2" stroke="#7831B2" stroke-width="2" stroke-linecap="round" stroke-linejoin="round"/>
<path d="M75 1L78.09 7.58254L85 8.64458L80 13.7655L81.18 21L75 17.5825L68.82 21L70 13.7655L65 8.64458L71.91 7.58254L75 1Z" fill="#7831B2" stroke="#7831B2" stroke-width="2" stroke-linecap="round" stroke-linejoin="round"/>
<path d="M107 1L110.09 7.58254L117 8.64458L112 13.7655L113.18 21L107 17.5825L100.82 21L102 13.7655L97 8.64458L103.91 7.58254L107 1Z" fill="#7831B2" stroke="#7831B2" stroke-width="2" stroke-linecap="round" stroke-linejoin="round"/>
<path d="M139 1L142.09 7.58254L149 8.64458L144 13.7655L145.18 21L139 17.5825L132.82 21L134 13.7655L129 8.64458L135.91 7.58254L139 1Z" fill="#7831B2" stroke="#7831B2" stroke-width="2" stroke-linecap="round" stroke-linejoin="round"/>
</svg>
