<svg width="103" height="101" viewBox="0 0 103 101" fill="none" xmlns="http://www.w3.org/2000/svg">
<path d="M63.467 88.6212C63.3548 88.6584 63.247 88.6655 63.1436 88.6423C63.043 88.6277 62.9554 88.58 62.8808 88.4992C62.809 88.427 62.7646 88.3362 62.7475 88.2267C62.7362 88.1344 62.7464 88.035 62.7782 87.9284C62.81 87.8218 62.8835 87.6966 62.9987 87.5527C63.4883 86.9194 63.8932 86.2327 64.2134 85.4926C64.5336 84.7524 64.7519 83.979 64.8681 83.1722C64.9929 82.3626 65.0086 81.5412 64.915 80.7082C64.7873 79.6561 64.5516 78.7551 64.2078 78.0053C63.8698 77.2439 63.4756 76.6309 63.025 76.1662C62.5716 75.6929 62.0978 75.3607 61.6037 75.1697C61.3883 75.0974 61.2375 75.0179 61.1514 74.9313C61.071 74.8332 61.0267 74.7279 61.0182 74.6155C61.0041 74.457 61.0402 74.3057 61.1267 74.1618C61.2218 74.0149 61.3384 73.9186 61.4764 73.8727C61.5713 73.8411 61.6676 73.8283 61.7653 73.8342C61.863 73.8401 62.0082 73.8735 62.2006 73.9343C62.62 74.1021 63.0379 74.3665 63.4541 74.7274C63.8703 75.0883 64.262 75.5485 64.629 76.1082C64.9961 76.6679 65.3083 77.3226 65.5659 78.0723C65.8292 78.8105 66.0162 79.6364 66.1268 80.5502C66.2461 81.4899 66.2432 82.4078 66.1182 83.3038C66.0019 84.197 65.7778 85.0397 65.446 85.8317C65.1171 86.6323 64.6977 87.3623 64.1879 88.0214C64.0353 88.2258 63.9 88.3668 63.782 88.4444C63.6669 88.5307 63.5619 88.5896 63.467 88.6212Z" fill="#E71985"/>
<path d="M60.7664 80.6473C60.4731 80.7448 60.2159 80.7199 59.9948 80.5726C59.7737 80.4253 59.6418 80.1714 59.5993 79.8111C59.5709 79.5517 59.6158 79.3256 59.734 79.1327C59.8579 78.9282 60.0536 78.7816 60.3211 78.6926C60.5626 78.6123 60.7725 78.6098 60.9506 78.685C61.1258 78.7515 61.2622 78.8598 61.3597 79.0098C61.4658 79.157 61.5288 79.3329 61.5486 79.5375C61.577 79.7393 61.5321 79.951 61.4139 80.1728C61.2928 80.3858 61.077 80.544 60.7664 80.6473ZM61.4096 85.719C61.1076 85.8194 60.8461 85.796 60.625 85.6486C60.401 85.4927 60.272 85.2619 60.238 84.9564C60.1925 84.6739 60.2489 84.4247 60.4073 84.2088C60.5629 83.9842 60.7528 83.8347 60.9772 83.7601C61.2101 83.6826 61.4099 83.6786 61.5765 83.7481C61.7517 83.8146 61.8895 83.9272 61.9899 84.0859C62.0989 84.2417 62.1604 84.4133 62.1745 84.6006C62.2058 84.811 62.1623 85.0271 62.0441 85.2488C61.9317 85.459 61.7202 85.6158 61.4096 85.719Z" fill="#E71985"/>
<path d="M48.6363 89.9802C48.2308 90.115 47.8657 90.1259 47.5411 90.013C47.2164 89.9001 46.9495 89.6864 46.7401 89.372C46.5279 89.0489 46.3877 88.6394 46.3195 88.1436C46.24 87.5268 46.1647 86.9373 46.0937 86.3752C46.0199 85.8045 45.9545 85.3173 45.8977 84.9138C45.8494 84.5073 45.8182 84.2393 45.8041 84.1096C45.787 84 45.79 83.8934 45.8132 83.7897C45.845 83.6831 45.8954 83.5895 45.9645 83.5089C46.0336 83.4284 46.1157 83.3723 46.2106 83.3407C46.409 83.2748 46.5886 83.3255 46.7493 83.4929C46.9186 83.6574 47.0246 83.8766 47.0673 84.1505C47.0956 84.4099 47.1182 84.724 47.1348 85.0929C47.1601 85.459 47.197 85.802 47.2453 86.122C47.2538 86.2344 47.265 86.3843 47.2791 86.5716C47.299 86.7474 47.3159 86.929 47.33 87.1164C47.3499 87.2922 47.3669 87.445 47.381 87.5747C47.4378 88.0647 47.5565 88.4237 47.7372 88.6516C47.9179 88.8796 48.155 88.9448 48.4483 88.8473C48.6123 88.7928 48.7791 88.6893 48.949 88.5368C49.1274 88.3815 49.2887 88.203 49.4327 88.0015C49.5739 87.7914 49.682 87.5826 49.757 87.3752C49.8321 87.1678 49.8453 86.9906 49.7967 86.8436C49.7309 86.6158 49.6104 86.4542 49.4352 86.3588C49.2687 86.2606 49.0546 86.2069 48.7931 86.1979C48.6436 86.1804 48.4568 86.1801 48.2326 86.197C48.0083 86.214 47.7726 86.2395 47.5253 86.2737C47.2752 86.2993 47.0395 86.3392 46.8181 86.3936L46.7591 85.4771C47.0525 85.3219 47.3776 85.1322 47.7344 84.908C48.0998 84.6809 48.4724 84.4322 48.8523 84.1619C49.2321 83.8916 49.5933 83.6227 49.9358 83.3552C50.3243 83.0532 50.6596 82.7641 50.9417 82.4879C51.2325 82.2088 51.48 81.9729 51.6844 81.7801C51.8946 81.5758 52.0773 81.4478 52.2326 81.3962C52.5 81.3073 52.7328 81.3307 52.9309 81.4665C53.1348 81.5907 53.2552 81.8099 53.2921 82.1241C53.3232 82.421 53.353 82.7136 53.3813 83.0018C53.4153 83.2785 53.4479 83.5653 53.4791 83.8622C53.5103 84.1015 53.5502 84.3811 53.5985 84.701C53.644 85.0124 53.6967 85.3309 53.7566 85.6566C53.8164 85.9824 53.8806 86.2779 53.9492 86.5431C54.0064 86.7161 54.065 86.9079 54.1251 87.1184C54.1909 87.3173 54.2309 87.4672 54.2451 87.5681C54.2593 87.669 54.2491 87.7684 54.2145 87.8664C54.1856 87.9528 54.1337 88.0276 54.0589 88.0909C53.9955 88.16 53.9164 88.2103 53.8215 88.2418C53.6403 88.3021 53.4737 88.2615 53.3216 88.12C53.1752 87.967 53.0562 87.7666 52.9646 87.5186C52.8216 87.0861 52.7044 86.6449 52.6131 86.1952C52.519 85.7368 52.4407 85.2684 52.3782 84.7899C52.3584 84.5853 52.3314 84.359 52.2973 84.1111C52.2719 83.8603 52.2478 83.6139 52.2252 83.3718C52.2026 83.1296 52.1799 82.9163 52.1572 82.7319C52.1403 82.5359 52.1275 82.3961 52.119 82.3125L52.468 82.4989C52.3068 82.6773 52.0894 82.8888 51.816 83.1334C51.5483 83.3664 51.2389 83.6181 50.8878 83.8884C50.5338 84.1501 50.1626 84.4176 49.7741 84.6907C49.3857 84.9639 48.99 85.2299 48.5872 85.4886C48.1902 85.7358 47.8032 85.9557 47.4264 86.1482L47.4013 85.6381C47.4675 85.6065 47.5681 85.5634 47.7033 85.5088C47.8443 85.4428 48.0096 85.3782 48.1994 85.3151C48.303 85.2807 48.4511 85.2506 48.6437 85.225C48.8449 85.1965 49.0576 85.1882 49.2818 85.2001C49.5146 85.2091 49.7445 85.2527 49.9715 85.3308C50.2042 85.3975 50.4052 85.5131 50.5746 85.6776C50.7525 85.8393 50.8815 86.0556 50.9616 86.3266C51.0559 86.6697 51.0467 87.0328 50.934 87.416C50.83 87.7962 50.6584 88.1605 50.4193 88.5089C50.1801 88.8572 49.9037 89.1651 49.59 89.4326C49.2734 89.6915 48.9555 89.874 48.6363 89.9802Z" fill="#E71985"/>
<path d="M39.4389 93.038C39.3181 93.0782 39.2104 93.0708 39.1156 93.0159C39.0323 92.9668 38.962 92.8845 38.9047 92.7691C38.8388 92.6566 38.8002 92.5255 38.7889 92.3756C38.7719 92.2084 38.7852 91.9735 38.8288 91.671C38.8782 91.357 38.952 91.0012 39.0504 90.6036C39.1458 90.1974 39.25 89.7883 39.3627 89.3764C39.487 88.9414 39.617 88.5093 39.7528 88.0801C39.8943 87.6394 40.0358 87.2419 40.1772 86.8877C40.3157 86.5248 40.4354 86.2353 40.5364 86.0193C40.6978 85.6968 40.8678 85.4435 41.0463 85.2593C41.2306 85.0636 41.4349 84.9285 41.6592 84.8539C41.8663 84.7851 42.0329 84.8113 42.1592 84.9325C42.2826 85.0451 42.4017 85.2023 42.5163 85.4043C42.6339 85.6148 42.76 85.8658 42.8946 86.157C43.0292 86.4483 43.1711 86.7468 43.3201 87.0525C43.4662 87.3496 43.6181 87.6352 43.7757 87.9092C43.9649 88.2495 44.1326 88.5395 44.2789 88.7789C44.4337 89.0154 44.5714 89.2145 44.6918 89.3761C44.8209 89.5348 44.9371 89.669 45.0404 89.7787C45.138 89.871 45.2184 89.9547 45.2815 90.0298C45.3446 90.1048 45.3876 90.1913 45.4104 90.2893C45.439 90.4047 45.4403 90.5243 45.4142 90.6481C45.3881 90.772 45.3362 90.8757 45.2585 90.9591C45.1922 91.0484 45.103 91.1116 44.9909 91.1489C44.827 91.2034 44.6545 91.1743 44.4736 91.0617C44.2985 90.9375 44.1177 90.7527 43.9312 90.5075C43.7448 90.2622 43.5598 89.9925 43.3763 89.6982C43.2674 89.5136 43.124 89.2684 42.9463 88.9627C42.7743 88.6454 42.5938 88.3022 42.4046 87.933C42.2126 87.5551 42.035 87.1917 41.8717 86.8428C41.717 86.4909 41.5953 86.1954 41.5066 85.956L41.7997 85.9738C41.6325 86.279 41.4638 86.6519 41.2935 87.0926C41.129 87.5218 40.9645 87.9941 40.7998 88.5097C40.6438 89.0225 40.4978 89.5511 40.3619 90.0956C40.2346 90.6372 40.1288 91.1716 40.0446 91.6989C39.9664 92.0993 39.8869 92.409 39.806 92.6279C39.7338 92.8439 39.6115 92.9806 39.4389 93.038Z" fill="#E71985"/>
<path d="M34.8257 94.5718C34.1182 94.807 33.4844 94.8449 32.9241 94.6855C32.3725 94.5232 31.9231 94.207 31.576 93.7367C31.2347 93.2549 31.0158 92.6508 30.9192 91.9244C30.8539 91.4084 30.8776 90.93 30.9904 90.4893C31.109 90.037 31.2734 89.6367 31.4838 89.2883C31.7028 88.937 31.9433 88.6507 32.2052 88.4292C32.4642 88.199 32.7016 88.0481 32.9173 87.9764C33.0122 87.9448 33.0941 87.932 33.1631 87.9378C33.2407 87.9408 33.3068 87.9669 33.3613 88.016C33.4216 88.0535 33.4589 88.1227 33.4731 88.2236C33.4872 88.411 33.4711 88.594 33.4248 88.7726C33.3757 88.9425 33.2403 89.1268 33.0187 89.3253C32.7567 89.5756 32.5479 89.8274 32.3923 90.0808C32.2425 90.3226 32.1415 90.5818 32.0893 90.8584C32.0343 91.1264 32.0338 91.429 32.0879 91.7662C32.1816 92.5128 32.4495 93.0478 32.8916 93.3713C33.3309 93.6861 33.8612 93.7402 34.4824 93.5337C35.0863 93.3329 35.5411 92.9417 35.8467 92.36C36.158 91.7668 36.2626 91.084 36.1603 90.3115C36.078 89.5995 35.8632 89.0948 35.5159 88.7975C35.1657 88.4914 34.7318 88.4245 34.2141 88.5966C33.9467 88.6855 33.7352 88.8134 33.5797 88.9803C33.4329 89.1443 33.2802 89.3487 33.1217 89.5934C33.0093 89.7748 32.9229 89.9332 32.8623 90.0686C32.8017 90.2039 32.7426 90.3148 32.685 90.4011C32.6331 90.476 32.5511 90.5321 32.439 90.5693C32.3182 90.6095 32.2104 90.6021 32.1156 90.5472C32.0266 90.4808 31.9694 90.351 31.9438 90.1579C31.9125 89.9475 31.9445 89.7112 32.0397 89.4491C32.1436 89.1841 32.2878 88.925 32.4721 88.6717C32.6622 88.4068 32.8825 88.1752 33.1329 87.9767C33.3804 87.7696 33.6422 87.6201 33.9183 87.5283C34.5395 87.3218 35.0928 87.3011 35.5783 87.4661C36.061 87.6225 36.4557 87.9329 36.7626 88.3974C37.0666 88.8532 37.2582 89.4328 37.3376 90.1361C37.4314 90.825 37.3873 91.4734 37.2052 92.0812C37.0204 92.6803 36.7221 93.1972 36.3103 93.6317C35.9072 94.0633 35.4124 94.3767 34.8257 94.5718Z" fill="#E71985"/>
<path d="M29.8865 96.1995C29.6277 96.2855 29.3172 96.3023 28.9552 96.2499C28.5902 96.1888 28.2124 96.0744 27.8217 95.9066C27.4397 95.736 27.0735 95.5409 26.7232 95.3213C26.3815 95.0988 26.0958 94.8722 25.8662 94.6413C25.7342 94.5315 25.6366 94.4248 25.5736 94.3209C25.5162 94.2055 25.4733 94.0902 25.4447 93.9749C25.4477 93.8971 25.4565 93.8077 25.471 93.7069C25.4856 93.606 25.5159 93.5096 25.562 93.4174C25.6198 93.2446 25.7351 92.9998 25.9081 92.6831C26.0811 92.3663 26.2871 92.0194 26.5263 91.6422C26.7712 91.2535 27.0319 90.8836 27.3084 90.5324C27.5907 90.1698 27.8656 89.8575 28.1334 89.5957C28.4097 89.331 28.6644 89.1599 28.8973 89.0824C28.9922 89.0509 29.0727 89.0481 29.1388 89.0742C29.2135 89.0973 29.2752 89.1392 29.324 89.1998C29.3728 89.2604 29.4043 89.3268 29.4185 89.3988C29.4728 89.592 29.4078 89.8152 29.2235 90.0686C29.0391 90.3219 28.8332 90.568 28.6058 90.8068C28.2055 91.2471 27.86 91.6645 27.569 92.0588C27.2781 92.4532 27.0505 92.7929 26.8862 93.078C26.7306 93.3602 26.6627 93.5459 26.6827 93.6353C26.6883 93.7102 26.7485 93.8054 26.8633 93.9209C26.9781 94.0364 27.1389 94.1605 27.3457 94.2934C27.561 94.4234 27.808 94.5478 28.0867 94.6663C28.3739 94.7821 28.6842 94.8805 29.0175 94.9618C29.2158 95.0111 29.4083 95.0575 29.5951 95.101C29.7876 95.133 29.947 95.1808 30.0734 95.2444C30.2056 95.2965 30.2859 95.3802 30.3145 95.4955C30.3373 95.5935 30.3357 95.6901 30.3097 95.7851C30.2837 95.8802 30.2304 95.9651 30.1498 96.0399C30.0778 96.1119 29.9901 96.165 29.8865 96.1995ZM25.5727 97.6193C25.3484 97.6938 25.1602 97.6316 25.0082 97.4325C24.8533 97.2248 24.7216 96.8989 24.6131 96.4549C24.5103 95.9994 24.4163 95.4402 24.3311 94.7772C24.297 94.5005 24.2673 94.2079 24.2419 93.8995C24.2252 93.5882 24.2084 93.277 24.1916 92.9657C24.172 92.6458 24.1423 92.3388 24.1025 92.0448C24.0969 91.9698 24.0869 91.8963 24.0727 91.8242C24.0642 91.7407 24.0514 91.6585 24.0343 91.5778C24.0116 91.3933 24.0118 91.2348 24.035 91.1023C24.0582 90.9697 24.0986 90.8603 24.1562 90.7739C24.2196 90.676 24.2945 90.6127 24.3807 90.5841C24.5792 90.5181 24.7645 90.5573 24.9368 90.7017C25.1148 90.8345 25.2222 91.0724 25.259 91.4154C25.2874 91.646 25.3071 91.9371 25.318 92.2887C25.3347 92.6288 25.35 92.979 25.3638 93.3393C25.3776 93.6995 25.4001 94.0137 25.4313 94.2818C25.5024 94.7574 25.5751 95.1797 25.6493 95.5487C25.732 95.9149 25.8077 96.2161 25.8764 96.4526C25.9421 96.6803 25.9764 96.8418 25.9791 96.9369C25.9962 97.0464 25.9874 97.1502 25.9527 97.2481C25.9239 97.3345 25.8763 97.4079 25.8101 97.4683C25.7554 97.5345 25.6763 97.5848 25.5727 97.6193Z" fill="#E71985"/>
<path d="M17.1512 100.347C16.1849 100.668 15.3812 100.873 14.7401 100.962C14.1047 101.038 13.5989 101 13.2226 100.847C12.8463 100.693 12.5607 100.438 12.3658 100.08C12.1766 99.7111 12.0451 99.2411 11.9713 98.6704C11.9316 98.3187 11.8891 97.9152 11.8438 97.4598C11.7986 97.0044 11.759 96.5374 11.7253 96.059C11.6887 95.5719 11.6549 95.1078 11.624 94.6669C11.593 94.2259 11.5692 93.8353 11.5525 93.4952C11.5358 93.1552 11.5304 92.9073 11.5364 92.7517C11.5196 92.4692 11.5401 92.256 11.5978 92.112C11.6613 91.9565 11.7577 91.8572 11.8871 91.8142C12.0338 91.7654 12.166 91.7743 12.2837 91.8407C12.3986 91.8985 12.4933 91.9967 12.5678 92.1351C12.6395 92.2649 12.6824 92.4091 12.6965 92.5676C12.7193 92.7233 12.739 92.9856 12.7557 93.3545C12.7695 93.7147 12.7904 94.1399 12.8184 94.6298C12.855 95.1169 12.8958 95.6458 12.9409 96.2165C12.9918 96.7757 13.0541 97.3407 13.128 97.9114C13.2103 98.5945 13.3145 99.0688 13.4405 99.3341C13.5752 99.5966 13.7561 99.7525 13.9831 99.8018C14.1785 99.8425 14.4242 99.8472 14.7203 99.8159C15.0136 99.7761 15.3457 99.7089 15.7166 99.6143C16.0933 99.5083 16.5017 99.3821 16.9417 99.2358C17.8562 98.9318 18.5968 98.6664 19.1634 98.4396C19.7358 98.2013 20.173 97.9743 20.4752 97.7586C20.7745 97.5343 20.966 97.2882 21.0498 97.0203C21.1017 96.8878 21.1365 96.689 21.1542 96.4239C21.169 96.1501 21.1666 95.8389 21.147 95.4901C21.1361 95.1385 21.1065 94.7739 21.0582 94.3963C20.9929 93.8515 20.9104 93.3269 20.8106 92.8224C20.7107 92.3179 20.6109 91.8566 20.5109 91.4386C20.4109 91.0206 20.3267 90.6645 20.2582 90.3704C20.1896 90.0764 20.1468 89.8746 20.1298 89.765C20.127 89.6699 20.1401 89.5648 20.1691 89.4495C20.2066 89.3314 20.2628 89.2263 20.3377 89.1342C20.4126 89.0421 20.5061 88.9774 20.6183 88.9401C20.7649 88.8914 20.9086 88.9204 21.0493 89.0273C21.1957 89.1226 21.299 89.2755 21.359 89.486C21.4076 89.633 21.4691 89.8767 21.5433 90.2168C21.6146 90.5484 21.6931 90.9303 21.7786 91.3628C21.8728 91.7923 21.9569 92.2348 22.0309 92.6903C22.1107 93.1342 22.1762 93.5493 22.2273 93.9356C22.2642 94.2498 22.2968 94.551 22.3251 94.8392C22.3534 95.1275 22.3731 95.4042 22.3842 95.6693C22.3924 95.9258 22.3992 96.1636 22.4046 96.3826C22.4072 96.593 22.3968 96.7789 22.3736 96.9402C22.3241 97.3407 22.1683 97.695 21.9063 98.0029C21.6442 98.3109 21.2931 98.5956 20.8529 98.8572C20.4099 99.1101 19.8734 99.3557 19.2435 99.5939C18.6252 99.8379 17.9277 100.089 17.1512 100.347ZM16.8935 99.6983C16.762 99.2428 16.635 98.6993 16.5124 98.068C16.3955 97.4251 16.296 96.7189 16.2138 95.9493C16.1742 95.5688 16.1374 95.1682 16.1036 94.7474C16.0698 94.3265 16.0359 93.9201 16.002 93.5282C15.9653 93.1275 15.9328 92.7686 15.9045 92.4516C15.882 92.123 15.8623 91.8607 15.8454 91.6647C15.8227 91.4803 15.8158 91.3145 15.8246 91.1676C15.8306 91.012 15.8595 90.8823 15.9114 90.7786C15.9605 90.6663 16.0411 90.5915 16.1532 90.5542C16.2913 90.5083 16.4192 90.5186 16.5369 90.5851C16.6547 90.6516 16.7551 90.767 16.8382 90.9314C16.9184 91.0872 16.9713 91.276 16.9969 91.4979C17.065 92.0226 17.123 92.6466 17.1707 93.37C17.2185 94.0935 17.282 94.8357 17.3613 95.5966C17.4378 96.3201 17.5301 96.9903 17.6384 97.6072C17.7553 98.2212 17.8737 98.7531 17.9938 99.2029L16.8935 99.6983Z" fill="#E71985"/>
<path d="M62.1384 72.6748C61.9313 72.7437 61.736 72.6742 61.5523 72.4664C61.3687 72.2586 61.2442 71.8968 61.1789 71.3808C61.1619 71.2136 61.1393 70.9859 61.111 70.6977C61.0827 70.4094 61.0645 70.0794 61.0565 69.7076C61.0542 69.3243 61.0735 68.9194 61.1144 68.493C61.1903 67.738 61.2818 67.1315 61.3889 66.6735C61.4931 66.2068 61.6287 65.8496 61.7958 65.6021C61.9629 65.3545 62.163 65.1919 62.3959 65.1145C62.5771 65.0543 62.7394 65.0819 62.883 65.1974C63.0352 65.31 63.1671 65.463 63.2789 65.6562C63.3907 65.8495 63.4939 66.0456 63.5885 66.2446C63.7145 66.51 63.8592 66.8027 64.0226 67.1229C64.1945 67.4401 64.3722 67.7603 64.5557 68.0834C64.7478 68.4036 64.9428 68.7036 65.1407 68.9835C65.3472 69.2604 65.5509 69.4855 65.7519 69.6588L65.3203 69.9175C65.4074 69.3412 65.5118 68.7592 65.6335 68.1715C65.7551 67.5838 65.8839 67.0177 66.0198 66.4732C66.1558 65.9288 66.2902 65.4376 66.4231 64.9998C66.5762 64.536 66.7219 64.1947 66.8602 63.9759C67.0071 63.7542 67.1582 63.6176 67.3135 63.566C67.4257 63.5287 67.5378 63.5202 67.6499 63.5405C67.7591 63.5522 67.8582 63.5769 67.9473 63.6145C68.0736 63.6781 68.1856 63.7705 68.2831 63.8917C68.3807 64.0129 68.458 64.2176 68.515 64.5059C68.6433 65.1545 68.7775 65.734 68.9176 66.2443C69.0634 66.7431 69.1964 67.1598 69.3166 67.4943C69.5227 68.0883 69.7232 68.5497 69.9181 68.8785C70.1217 69.2045 70.2277 69.4237 70.2361 69.5361C70.2561 69.6543 70.2257 69.7652 70.1451 69.8688C70.0759 69.9782 69.9723 70.0559 69.8343 70.1018C69.6272 70.1706 69.4218 70.1285 69.2179 69.9754C69.0227 69.8195 68.852 69.5786 68.706 69.2527C68.5685 68.9528 68.4124 68.5678 68.2378 68.0978C68.0718 67.6249 67.9088 67.0886 67.7488 66.4889C67.5945 65.8777 67.4604 65.2406 67.3465 64.5776L67.6917 64.362C67.5848 64.7336 67.4663 65.157 67.3362 65.6323C67.2119 66.0961 67.0846 66.5801 66.9545 67.0842C66.833 67.5855 66.7187 68.0796 66.6116 68.5664C66.5131 69.0504 66.4333 69.5042 66.3723 69.9278C66.3318 70.1237 66.2625 70.2907 66.1646 70.4289C66.0753 70.5642 65.9487 70.6591 65.7847 70.7136C65.5777 70.7825 65.3894 70.7923 65.2199 70.743C65.0561 70.6822 64.8982 70.5811 64.7461 70.4397C64.5997 70.2867 64.4563 70.1135 64.3157 69.9202C64.2411 69.8106 64.1379 69.6577 64.006 69.4615C63.8712 69.2567 63.7278 69.0259 63.5759 68.7692C63.424 68.5125 63.2706 68.237 63.1158 67.9428C62.9611 67.6486 62.8164 67.3559 62.6817 67.0646C62.5442 66.7646 62.4311 66.4806 62.3425 66.2124L62.6964 65.9795C62.5432 66.5009 62.4217 67.0022 62.3319 67.4833C62.2506 67.9616 62.2039 68.4428 62.1916 68.927C62.1852 69.3996 62.2117 69.8997 62.2712 70.4271C62.3138 70.7874 62.3593 71.0988 62.4077 71.3611C62.4648 71.6206 62.5019 71.8195 62.5189 71.9578C62.533 72.1163 62.5141 72.2619 62.4622 72.3943C62.4102 72.5268 62.3023 72.6203 62.1384 72.6748Z" fill="#E71985"/>
<path d="M55.0924 75.003C54.6955 75.1349 54.3405 75.1474 54.0274 75.0402C53.7229 74.9303 53.4674 74.7224 53.2609 74.4165C53.063 74.1079 52.9343 73.7186 52.8747 73.2488C52.815 72.8077 52.82 72.3452 52.8897 71.8611C52.9653 71.3656 53.0968 70.8802 53.2844 70.4049C53.4691 69.9211 53.6997 69.4747 53.9763 69.0659C54.2587 68.6456 54.5797 68.2844 54.9395 67.9824C55.3079 67.6775 55.7035 67.4548 56.1262 67.3142C56.3246 67.2482 56.4971 67.2485 56.6436 67.315C56.7901 67.3815 56.8761 67.5257 56.9016 67.7477C56.9187 67.8572 56.9013 67.9638 56.8494 68.0675C56.7946 68.1625 56.6968 68.2431 56.5558 68.3091C55.9805 68.5964 55.4912 68.9991 55.088 69.5172C54.6934 70.0325 54.4051 70.594 54.2231 71.2018C54.0468 71.7981 53.9913 72.383 54.0565 72.9566C54.0877 73.2247 54.1376 73.4626 54.2063 73.6702C54.2721 73.8691 54.4011 74.1143 54.5932 74.4057L53.8053 73.6739C54.0264 73.8212 54.2074 73.905 54.3482 73.9254C54.4976 73.943 54.6888 73.913 54.9217 73.8355C55.4739 73.652 55.9174 73.1109 56.2523 72.2122C56.5871 71.3136 56.7715 70.1049 56.8055 68.5862C56.8115 68.4017 56.852 68.2491 56.9269 68.1282C57.0076 67.9957 57.1213 67.9051 57.2679 67.8563C57.4664 67.7904 57.646 67.8267 57.8067 67.9653C57.9732 68.0923 58.0908 68.2885 58.1594 68.5537C58.3051 69.1102 58.4509 69.609 58.5968 70.0501C58.7485 70.4798 58.9304 70.8706 59.1426 71.2225C59.3633 71.5715 59.6574 71.9106 60.0249 72.2397C60.1052 72.309 60.1597 72.4013 60.1883 72.5167C60.2255 72.6291 60.231 72.7473 60.205 72.8712C60.1875 72.9922 60.1428 73.1031 60.0708 73.2038C60.0045 73.2931 59.911 73.3577 59.7902 73.3979C59.6608 73.4409 59.5487 73.4494 59.4539 73.4233C59.3677 73.3944 59.283 73.3409 59.1997 73.263C59.0046 73.0782 58.8181 72.8762 58.6402 72.6569C58.4623 72.4376 58.2902 72.1779 58.124 71.878C57.9635 71.5665 57.8146 71.1887 57.6774 70.7447C57.5401 70.3006 57.4101 69.763 57.2875 69.1316L57.7491 68.9638C57.7505 69.9234 57.6773 70.7591 57.5296 71.4707C57.3791 72.1736 57.1741 72.7699 56.9146 73.2594C56.6609 73.7374 56.3758 74.1203 56.0591 74.408C55.7425 74.6956 55.4202 74.894 55.0924 75.003Z" fill="#E71985"/>
<path d="M45.4575 77.3998C45.4838 77.103 45.5303 76.7659 45.597 76.3885C45.6608 76.0024 45.7333 75.599 45.8145 75.1784C45.9042 74.7549 45.9969 74.34 46.0924 73.9338C46.1936 73.5161 46.2934 73.1373 46.3916 72.7974C46.5245 72.3595 46.6646 71.9433 46.8118 71.5487C46.959 71.1541 47.1133 70.8244 47.2747 70.5595C47.4418 70.2831 47.6074 70.1176 47.7713 70.0631C47.9438 70.0058 48.1191 70.0291 48.2972 70.1331C48.4839 70.2343 48.6848 70.4363 48.8999 70.7393C49.049 70.9585 49.2239 71.2412 49.4246 71.5874C49.6252 71.9335 49.833 72.3157 50.048 72.7339C50.26 73.1435 50.4606 73.5617 50.6496 73.9885C50.8387 74.4153 50.999 74.8133 51.1307 75.1824L50.0261 75.6648C49.8802 75.2525 49.7012 74.8127 49.4893 74.3455C49.283 73.8668 49.0653 73.4111 48.836 72.9784C48.6067 72.5458 48.3932 72.1751 48.1953 71.8665C47.9946 71.5491 47.8268 71.3457 47.6918 71.2561L48.1622 70.9845C47.9834 71.3704 47.8045 71.814 47.6255 72.3151C47.4551 72.8135 47.312 73.3363 47.1962 73.8837C47.1093 74.287 47.0297 74.6687 46.9573 75.0289C46.8849 75.389 46.8225 75.7362 46.7703 76.0704C46.7238 76.3931 46.6801 76.7244 46.6394 77.0645L45.4575 77.3998ZM51.8808 78.015C51.7082 78.0724 51.5545 78.0563 51.4195 77.9668C51.2846 77.8772 51.21 77.7532 51.1959 77.5947C51.1788 77.4851 51.1834 77.3108 51.2096 77.0716C51.2388 76.8411 51.2622 76.5789 51.2799 76.285C51.2976 75.991 51.2865 75.6971 51.2467 75.403L51.9315 75.9099C51.805 75.9327 51.6095 75.9785 51.3449 76.0473C51.089 76.1132 50.7669 76.2107 50.3786 76.3397C49.9214 76.4918 49.4526 76.6524 48.9723 76.8217C48.5007 76.9881 48.0347 77.1574 47.5746 77.3296C47.123 77.4989 46.6959 77.6697 46.2932 77.842C45.8905 78.0143 45.5252 78.1838 45.1973 78.3504L45.5518 77.7285C45.5717 77.8467 45.6003 77.9908 45.6374 78.1609C45.6745 78.331 45.7159 78.4996 45.7616 78.6669C45.8102 78.8428 45.8516 78.997 45.8859 79.1296C45.9288 79.2594 45.9589 79.3502 45.9761 79.4021C46.0161 79.552 46.0015 79.6817 45.9323 79.7911C45.866 79.9091 45.7596 79.9926 45.6129 80.0413C45.4058 80.1102 45.2363 80.0753 45.1043 79.9368C44.9723 79.7982 44.8691 79.6165 44.7947 79.3916C44.7403 79.2561 44.686 79.0773 44.6317 78.8553C44.5774 78.6333 44.5432 78.4575 44.529 78.3278C44.5178 78.1779 44.5295 78.0396 44.5642 77.9128C44.5874 77.7803 44.6465 77.655 44.7415 77.537C44.8366 77.419 44.9733 77.3111 45.1516 77.2134C45.3559 77.1071 45.6349 76.9808 45.9887 76.8343C46.3482 76.6764 46.7538 76.5127 47.2053 76.3434C47.6626 76.1626 48.1357 75.9861 48.6246 75.8139C49.1107 75.6331 49.578 75.4681 50.0267 75.319C50.251 75.2444 50.4983 75.167 50.7686 75.0867C51.0361 74.9978 51.3007 74.929 51.5623 74.8805C51.8211 74.8232 52.0151 74.8451 52.1443 74.9462C52.2821 75.0444 52.3709 75.2405 52.4107 75.5345C52.4391 75.7651 52.4502 76.0159 52.444 76.2868C52.4378 76.5577 52.4087 76.817 52.3565 77.0648C52.3159 77.3183 52.2523 77.5315 52.1658 77.7042C52.088 77.8742 51.993 77.9778 51.8808 78.015Z" fill="#E71985"/>
<path d="M38.9029 80.3855C38.506 80.5175 38.151 80.5299 37.8379 80.4227C37.5334 80.3128 37.2779 80.1049 37.0714 79.799C36.8735 79.4904 36.7448 79.1011 36.6852 78.6313C36.6255 78.1902 36.6305 77.7277 36.7002 77.2436C36.7757 76.7481 36.9073 76.2627 37.0949 75.7874C37.2796 75.3036 37.5102 74.8572 37.7868 74.4484C38.0692 74.0281 38.3902 73.6669 38.75 73.3649C39.1184 73.06 39.514 72.8373 39.9367 72.6967C40.1351 72.6307 40.3076 72.631 40.4541 72.6975C40.6006 72.764 40.6866 72.9083 40.7121 73.1302C40.7292 73.2397 40.7118 73.3463 40.6599 73.45C40.6051 73.545 40.5073 73.6256 40.3663 73.6916C39.791 73.9789 39.3017 74.3816 38.8985 74.8997C38.5039 75.415 38.2156 75.9765 38.0336 76.5843C37.8573 77.1806 37.8018 77.7655 37.867 78.3392C37.8982 78.6072 37.9481 78.8451 38.0168 79.0527C38.0826 79.2516 38.2115 79.4968 38.4037 79.7882L37.6158 79.0564C37.8369 79.2037 38.0178 79.2875 38.1587 79.3079C38.3081 79.3255 38.4993 79.2955 38.7322 79.2181C39.2844 79.0345 39.7279 78.4934 40.0627 77.5947C40.3976 76.6961 40.582 75.4874 40.616 73.9687C40.622 73.7843 40.6625 73.6316 40.7374 73.5107C40.8181 73.3782 40.9318 73.2876 41.0784 73.2389C41.2769 73.1729 41.4565 73.2092 41.6172 73.3478C41.7837 73.4748 41.9013 73.671 41.9699 73.9362C42.1156 74.4927 42.2614 74.9915 42.4073 75.4326C42.559 75.8623 42.7409 76.2531 42.9531 76.605C43.1738 76.954 43.4679 77.2931 43.8354 77.6223C43.9157 77.6915 43.9702 77.7839 43.9988 77.8992C44.036 78.0116 44.0415 78.1298 44.0155 78.2537C43.998 78.3747 43.9533 78.4856 43.8813 78.5863C43.815 78.6756 43.7215 78.7403 43.6007 78.7804C43.4713 78.8234 43.3592 78.8319 43.2644 78.8058C43.1782 78.7769 43.0935 78.7234 43.0102 78.6455C42.8151 78.4607 42.6286 78.2587 42.4507 78.0394C42.2728 77.8201 42.1007 77.5605 41.9345 77.2605C41.774 76.949 41.6251 76.5712 41.4879 76.1272C41.3506 75.6832 41.2206 75.1455 41.098 74.5141L41.5596 74.3463C41.561 75.3059 41.4878 76.1416 41.3401 76.8532C41.1896 77.5562 40.9846 78.1524 40.7251 78.6419C40.4714 79.1199 40.1862 79.5028 39.8696 79.7905C39.553 80.0782 39.2307 80.2765 38.9029 80.3855Z" fill="#E71985"/>
<path d="M32.9228 82.3017C32.5087 82.4394 32.1277 82.5036 31.7799 82.4944C31.4321 82.4852 31.1462 82.4171 30.9222 82.2899C30.6982 82.1628 30.5706 81.994 30.5393 81.7835C30.5308 81.6711 30.5482 81.5645 30.5915 81.4637C30.6348 81.3629 30.7125 81.2939 30.8247 81.2566C30.9109 81.2279 30.9957 81.2237 31.0791 81.244C31.1624 81.2643 31.2615 81.289 31.3765 81.318C31.4914 81.347 31.648 81.3573 31.8464 81.349C32.0419 81.332 32.2949 81.2719 32.6055 81.1686C33.0886 81.008 33.4685 80.7521 33.745 80.4009C34.0272 80.0382 34.1243 79.5499 34.0361 78.9359C33.9879 78.5006 33.8706 78.1316 33.6843 77.8287C33.5037 77.5143 33.2741 77.269 32.9956 77.0927C32.7142 76.9078 32.3967 76.8021 32.0432 76.7757C31.6897 76.7492 31.3145 76.8019 30.9176 76.9338C30.7192 76.9998 30.5236 77.0889 30.3308 77.2009C30.1381 77.313 29.964 77.3949 29.8088 77.4465C29.7138 77.4781 29.6204 77.4851 29.5285 77.4677C29.4336 77.4416 29.359 77.3896 29.3045 77.3117C29.25 77.2338 29.2171 77.1488 29.2057 77.0565C29.1803 76.8058 29.2769 76.5768 29.4957 76.3696C29.7202 76.151 30.1043 75.9513 30.6478 75.7706C31.2259 75.5784 31.7721 75.5072 32.2865 75.557C32.8096 75.6039 33.2779 75.7603 33.6914 76.026C34.102 76.2832 34.4421 76.6454 34.7116 77.1127C34.9868 77.5685 35.1641 78.1192 35.2436 78.7649C35.2976 79.1886 35.2768 79.5891 35.1814 79.9665C35.0946 80.341 34.9489 80.6823 34.7443 80.9904C34.5369 81.2898 34.2792 81.5531 33.9713 81.7803C33.6605 81.9988 33.311 82.1726 32.9228 82.3017ZM30.9801 86.6345C30.8766 86.6689 30.7774 86.6731 30.6826 86.647C30.5993 86.6267 30.529 86.5733 30.4716 86.4867C30.4142 86.4002 30.3771 86.2877 30.36 86.1494C30.343 86.011 30.3504 85.8741 30.3822 85.7387C30.4083 85.6149 30.4344 85.4622 30.4605 85.2806C30.4896 85.1078 30.5086 84.8902 30.5176 84.628C30.5266 84.3657 30.507 84.0314 30.4588 83.625C30.3794 82.9505 30.2395 82.296 30.0393 81.6617C29.8391 81.0274 29.6317 80.3858 29.4171 79.7371C29.2083 79.0768 29.0556 78.3978 28.959 77.7003C28.9306 77.4697 28.951 77.2852 29.0202 77.147C29.0952 76.9973 29.2103 76.8966 29.3656 76.845C29.5036 76.7991 29.6315 76.8093 29.7493 76.8758C29.8728 76.9308 29.9776 77.0304 30.0636 77.1746C30.1467 77.3102 30.1967 77.476 30.2137 77.672C30.2818 78.2254 30.3802 78.74 30.5088 79.2157C30.6432 79.6799 30.7833 80.1326 30.9292 80.5737C31.0837 81.012 31.2253 81.4546 31.354 81.9015C31.4826 82.3484 31.5768 82.8212 31.6364 83.3199C31.6989 83.7696 31.7313 84.186 31.7336 84.5693C31.7359 84.9526 31.708 85.2883 31.6501 85.5764C31.6008 85.8617 31.5199 86.095 31.4075 86.2764C31.3038 86.4549 31.1613 86.5743 30.9801 86.6345Z" fill="#E71985"/>
<path d="M25.0687 84.9849C24.8617 85.0538 24.6749 85.0102 24.5084 84.8544C24.3506 84.6956 24.2288 84.4432 24.1431 84.0973C24.1031 83.9474 24.0618 83.7355 24.0191 83.4616C23.9764 83.1878 23.9323 82.8808 23.8869 82.5406C23.8385 82.1919 23.7902 81.8431 23.7419 81.4943C23.7022 81.1426 23.6625 80.8198 23.6227 80.5258C23.5915 80.2289 23.566 79.9925 23.5462 79.8167C23.4837 79.3382 23.4914 78.9708 23.5694 78.7144C23.6532 78.4465 23.8346 78.2422 24.1137 78.1014C24.3754 77.9663 24.6588 77.8385 24.9636 77.718C25.2743 77.5859 25.5849 77.4682 25.8955 77.365C26.2406 77.2502 26.6001 77.1499 26.9739 77.064C27.3448 76.9695 27.6323 76.9267 27.8364 76.9357C27.9542 76.9445 28.049 76.985 28.1208 77.0572C28.1896 77.1207 28.2312 77.2029 28.2454 77.3038C28.2681 77.4883 28.2018 77.6496 28.0463 77.7877C27.8909 77.9257 27.7096 78.0292 27.5026 78.098C27.3214 78.1583 27.1546 78.2041 27.0022 78.2356C26.8498 78.2671 26.6859 78.3072 26.5105 78.3559C26.3322 78.3959 26.1007 78.4633 25.816 78.558C25.4709 78.6727 25.1833 78.7875 24.9532 78.9024C24.723 79.0174 24.4684 79.1596 24.1894 79.3292L24.6862 78.7032C24.6884 79.0865 24.7036 79.5087 24.7316 79.9698C24.7683 80.4281 24.8278 80.9844 24.9101 81.6388C24.964 82.0913 25.028 82.5165 25.1021 82.9143C25.1734 83.3035 25.239 83.6321 25.2989 83.9002C25.3589 84.1684 25.3931 84.3442 25.4016 84.4278C25.4215 84.5748 25.3983 84.6929 25.3321 84.7822C25.2687 84.88 25.1809 84.9476 25.0687 84.9849Z" fill="#E71985"/>
<path d="M17.873 87.3773C17.4761 87.5092 17.1211 87.5217 16.8079 87.4145C16.5034 87.3045 16.2479 87.0966 16.0415 86.7908C15.8436 86.4822 15.7149 86.0929 15.6552 85.6231C15.5955 85.182 15.6006 84.7195 15.6703 84.2354C15.7458 83.7399 15.8774 83.2545 16.0649 82.7792C16.2497 82.2954 16.4803 81.849 16.7569 81.4402C17.0392 81.0199 17.3603 80.6587 17.7201 80.3567C18.0885 80.0518 18.484 79.829 18.9068 79.6885C19.1052 79.6225 19.2777 79.6228 19.4242 79.6893C19.5707 79.7558 19.6567 79.9 19.6822 80.122C19.6993 80.2315 19.6819 80.3381 19.63 80.4418C19.5752 80.5368 19.4773 80.6174 19.3364 80.6834C18.7611 80.9707 18.2718 81.3734 17.8686 81.8915C17.474 82.4068 17.1857 82.9683 17.0036 83.5761C16.8274 84.1724 16.7718 84.7573 16.8371 85.3309C16.8683 85.599 16.9182 85.8369 16.9869 86.0445C17.0527 86.2434 17.1816 86.4886 17.3738 86.78L16.5859 86.0482C16.807 86.1955 16.9879 86.2793 17.1287 86.2997C17.2782 86.3173 17.4694 86.2873 17.7023 86.2098C18.2545 86.0263 18.698 85.4852 19.0328 84.5865C19.3676 83.6879 19.5521 82.4792 19.586 80.9605C19.5921 80.776 19.6326 80.6234 19.7075 80.5024C19.7882 80.37 19.9018 80.2794 20.0485 80.2306C20.247 80.1647 20.4265 80.201 20.5873 80.3396C20.7538 80.4666 20.8714 80.6628 20.9399 80.928C21.0857 81.4845 21.2315 81.9833 21.3774 82.4244C21.5291 82.8541 21.711 83.2449 21.9231 83.5968C22.1439 83.9458 22.438 84.2849 22.8054 84.614C22.8858 84.6833 22.9403 84.7756 22.9688 84.891C23.006 85.0034 23.0116 85.1216 22.9855 85.2455C22.9681 85.3665 22.9234 85.4774 22.8514 85.5781C22.7851 85.6674 22.6916 85.732 22.5708 85.7722C22.4414 85.8152 22.3293 85.8237 22.2345 85.7976C22.1483 85.7687 22.0636 85.7152 21.9803 85.6373C21.7851 85.4525 21.5986 85.2505 21.4208 85.0312C21.2429 84.8119 21.0708 84.5522 20.9046 84.2523C20.7441 83.9408 20.5952 83.563 20.4579 83.119C20.3207 82.6749 20.1907 82.1373 20.0681 81.5059L20.5297 81.3381C20.5311 82.2977 20.4579 83.1334 20.3102 83.845C20.1596 84.5479 19.9546 85.1442 19.6952 85.6337C19.4415 86.1117 19.1563 86.4946 18.8397 86.7822C18.5231 87.0699 18.2008 87.2683 17.873 87.3773Z" fill="#E71985"/>
<path d="M9.49289 90.1778C9.28583 90.2467 9.09618 90.2089 8.92394 90.0645C8.7517 89.9202 8.59971 89.6922 8.46797 89.3808C8.342 89.0578 8.2492 88.6614 8.18957 88.1916C8.14147 87.6987 8.14351 87.3139 8.19568 87.0374C8.25361 86.7493 8.35455 86.5333 8.4985 86.3894C8.57624 86.3059 8.69995 86.2312 8.86964 86.1652C9.03648 86.0905 9.2148 86.0216 9.4046 85.9585C10.0344 85.7491 10.6456 85.5123 11.2381 85.2481C11.8364 84.9724 12.4018 84.6404 12.9341 84.2522L13.4632 85.07C13.0718 85.3922 12.6315 85.6826 12.1425 85.9412C11.6534 86.1998 11.1472 86.4353 10.6237 86.6478C10.106 86.8487 9.59696 87.0323 9.09655 87.1987L8.30732 87.3315C8.25069 86.7838 8.18978 86.2088 8.12461 85.6064C8.05943 85.0039 7.99703 84.4678 7.9374 83.998C7.90325 83.7789 7.91648 83.5873 7.9771 83.4231C8.03772 83.2589 8.13273 83.1553 8.26215 83.1123C8.47784 83.0406 8.66606 83.074 8.82681 83.2126C8.9847 83.3425 9.0849 83.6021 9.12741 83.9912C9.15584 84.193 9.17989 84.4394 9.19956 84.7305C9.21923 85.0216 9.23887 85.3271 9.2585 85.6471C9.28675 85.9641 9.31071 86.2682 9.33037 86.5593C9.35581 86.8389 9.37988 87.0709 9.40259 87.2554C9.46499 87.7915 9.53611 88.2672 9.61595 88.6823C9.70155 89.0859 9.76 89.3929 9.79129 89.6033C9.80546 89.733 9.78228 89.8512 9.72175 89.9577C9.67271 90.07 9.59643 90.1434 9.49289 90.1778ZM13.9577 88.6934C13.742 88.7651 13.5452 88.6913 13.3674 88.472C13.1981 88.2498 13.0463 87.9211 12.9119 87.4857C12.7832 87.0388 12.6834 86.5343 12.6124 85.9722C12.5103 85.0844 12.4439 84.3768 12.4131 83.8493C12.388 83.3104 12.3844 82.8795 12.4021 82.5568C12.4082 82.3435 12.4387 82.1462 12.4936 81.9647C12.5485 81.7832 12.6493 81.6681 12.796 81.6193C12.9858 81.5562 13.1495 81.6026 13.2873 81.7584C13.4308 81.9028 13.5181 82.1089 13.5493 82.377C13.5919 82.7085 13.6086 83.0774 13.5993 83.4838C13.5987 83.8872 13.6297 84.3138 13.6922 84.7635C13.7603 85.3169 13.8429 85.8127 13.94 86.2509C14.0428 86.6776 14.1371 87.0351 14.2228 87.3235C14.3086 87.6118 14.3572 87.8309 14.3684 87.9808C14.394 88.1451 14.3665 88.2934 14.2858 88.4259C14.2051 88.5583 14.0958 88.6475 13.9577 88.6934Z" fill="#E71985"/>
<path d="M67.5876 58.0612C67.3805 58.1301 67.1852 58.0606 67.0015 57.8528C66.8179 57.645 66.6934 57.2832 66.6281 56.7672C66.594 56.5193 66.5587 56.1374 66.5221 55.6215C66.4827 55.0969 66.4965 54.5162 66.5636 53.8794C66.6395 53.1245 66.731 52.5179 66.8381 52.0599C66.9423 51.5932 67.0779 51.236 67.245 50.9885C67.4121 50.7409 67.6122 50.5784 67.8451 50.5009C68.0263 50.4407 68.1887 50.4683 68.3322 50.5838C68.4844 50.6964 68.6163 50.8494 68.7281 51.0426C68.8399 51.2359 68.9431 51.432 69.0377 51.631C69.1637 51.8964 69.3084 52.1891 69.4718 52.5093C69.6437 52.8265 69.8214 53.1467 70.0049 53.4698C70.197 53.79 70.392 54.09 70.5899 54.3699C70.7964 54.6469 71.0001 54.872 71.2011 55.0452L70.7695 55.3039C70.8566 54.7276 70.961 54.1457 71.0827 53.5579C71.2043 52.9702 71.3331 52.4041 71.469 51.8596C71.605 51.3152 71.7394 50.824 71.8723 50.3862C72.0254 49.9224 72.1711 49.5811 72.3094 49.3623C72.4563 49.1406 72.6074 49.004 72.7627 48.9524C72.8749 48.9151 72.987 48.9066 73.0991 48.9269C73.2083 48.9386 73.3074 48.9633 73.3965 49.0009C73.5228 49.0645 73.6348 49.1569 73.7323 49.2781C73.8299 49.3993 73.9072 49.604 73.9642 49.8923C74.0925 50.5409 74.2267 51.1204 74.3668 51.6307C74.5126 52.1295 74.6456 52.5462 74.7658 52.8807C74.9719 53.4747 75.1724 53.9361 75.3673 54.2649C75.5709 54.5909 75.6769 54.8101 75.6853 54.9225C75.7053 55.0407 75.6749 55.1516 75.5943 55.2552C75.5251 55.3646 75.4215 55.4423 75.2835 55.4882C75.0764 55.557 74.871 55.5149 74.6671 55.3619C74.4719 55.2059 74.3012 54.965 74.1552 54.6391C74.0177 54.3392 73.8616 53.9542 73.687 53.4842C73.521 53.0113 73.358 52.475 73.198 51.8753C73.0437 51.2641 72.9096 50.627 72.7957 49.964L73.1409 49.7484C73.034 50.12 72.9155 50.5434 72.7854 51.0187C72.6611 51.4825 72.5338 51.9665 72.4037 52.4706C72.2822 52.9719 72.1679 53.466 72.0608 53.9528C71.9623 54.4369 71.8826 54.8906 71.8215 55.3142C71.781 55.5101 71.7117 55.6771 71.6138 55.8153C71.5245 55.9506 71.3979 56.0455 71.2339 56.1C71.0269 56.1689 70.8386 56.1787 70.6691 56.1294C70.5053 56.0686 70.3474 55.9675 70.1953 55.8261C70.0489 55.6731 69.9055 55.5 69.7649 55.3066C69.6903 55.197 69.5871 55.0441 69.4552 54.8479C69.3204 54.6431 69.177 54.4123 69.0251 54.1556C68.8732 53.8989 68.7198 53.6234 68.5651 53.3292C68.4103 53.035 68.2656 52.7423 68.131 52.451C67.9934 52.151 67.8803 51.867 67.7917 51.5988L68.1456 51.366C67.9924 51.8873 67.8709 52.3886 67.7811 52.8697C67.6998 53.348 67.6531 53.8292 67.6408 54.3134C67.6344 54.786 67.6609 55.2861 67.7204 55.8135C67.763 56.1739 67.8085 56.4852 67.8569 56.7475C67.914 57.007 67.9511 57.2059 67.9681 57.3442C67.9822 57.5028 67.9633 57.6483 67.9114 57.7808C67.8594 57.9132 67.7515 58.0067 67.5876 58.0612Z" fill="#E71985"/>
<path d="M59.4715 60.774C59.066 60.9088 58.7009 60.9198 58.3763 60.8069C58.0517 60.694 57.7847 60.4803 57.5753 60.1658C57.3631 59.8427 57.2229 59.4333 57.1547 58.9375C57.0752 58.3206 56.9999 57.7311 56.9289 57.169C56.8551 56.5983 56.7897 56.1112 56.7329 55.7076C56.6847 55.3012 56.6535 55.0331 56.6393 54.9034C56.6222 54.7939 56.6252 54.6872 56.6484 54.5835C56.6802 54.4769 56.7306 54.3833 56.7997 54.3028C56.8689 54.2222 56.9509 54.1661 57.0458 54.1346C57.2442 54.0686 57.4238 54.1193 57.5845 54.2867C57.7538 54.4512 57.8598 54.6704 57.9025 54.9443C57.9309 55.2037 57.9534 55.5179 57.97 55.8868C57.9953 56.2528 58.0322 56.5958 58.0805 56.9158C58.089 57.0282 58.1002 57.1781 58.1143 57.3654C58.1342 57.5413 58.1511 57.7228 58.1652 57.9102C58.1851 58.086 58.2021 58.2388 58.2162 58.3685C58.273 58.8585 58.3917 59.2175 58.5724 59.4455C58.7532 59.6734 58.9902 59.7386 59.2835 59.6411C59.4475 59.5866 59.6143 59.4831 59.7842 59.3306C59.9626 59.1753 60.1239 58.9969 60.2679 58.7953C60.4091 58.5852 60.5172 58.3764 60.5922 58.169C60.6673 57.9617 60.6805 57.7844 60.6319 57.6374C60.5661 57.4096 60.4456 57.248 60.2705 57.1527C60.1039 57.0544 59.8898 57.0008 59.6283 56.9917C59.4788 56.9742 59.292 56.9739 59.0678 56.9908C58.8435 57.0078 58.6078 57.0333 58.3605 57.0675C58.1104 57.0931 57.8747 57.1331 57.6533 57.1875L57.5943 56.2709C57.8878 56.1158 58.2129 55.9261 58.5696 55.7018C58.935 55.4747 59.3077 55.226 59.6875 54.9557C60.0673 54.6854 60.4285 54.4165 60.771 54.149C61.1595 53.847 61.4948 53.5579 61.7769 53.2817C62.0677 53.0026 62.3152 52.7667 62.5196 52.5739C62.7298 52.3696 62.9125 52.2417 63.0678 52.19C63.3352 52.1011 63.568 52.1245 63.7662 52.2603C63.97 52.3845 64.0904 52.6037 64.1273 52.9179C64.1585 53.2148 64.1882 53.5074 64.2165 53.7956C64.2505 54.0723 64.2831 54.3591 64.3143 54.656C64.3456 54.8953 64.3854 55.1749 64.4337 55.4949C64.4792 55.8062 64.5319 56.1247 64.5918 56.4505C64.6516 56.7762 64.7158 57.0717 64.7844 57.337C64.8416 57.51 64.9003 57.7017 64.9603 57.9122C65.0261 58.1111 65.0661 58.2611 65.0803 58.3619C65.0945 58.4628 65.0843 58.5622 65.0497 58.6602C65.0208 58.7466 64.9689 58.8214 64.8941 58.8847C64.8308 58.9538 64.7516 59.0041 64.6567 59.0356C64.4756 59.0959 64.3089 59.0553 64.1568 58.9138C64.0104 58.7609 63.8914 58.5604 63.7999 58.3124C63.6568 57.8799 63.5396 57.4388 63.4484 56.989C63.3542 56.5307 63.2759 56.0622 63.2134 55.5837C63.1936 55.3791 63.1667 55.1528 63.1325 54.9049C63.1071 54.6541 63.083 54.4077 63.0604 54.1656C63.0378 53.9235 63.0151 53.7102 62.9924 53.5257C62.9755 53.3297 62.9627 53.1899 62.9543 53.1063L63.3032 53.2927C63.142 53.4712 62.9246 53.6826 62.6512 53.9272C62.3835 54.1602 62.0741 54.4119 61.723 54.6822C61.369 54.9439 60.9978 55.2114 60.6094 55.4846C60.2209 55.7577 59.8252 56.0237 59.4224 56.2824C59.0254 56.5297 58.6384 56.7495 58.2616 56.942L58.2365 56.4319C58.3027 56.4003 58.4033 56.3572 58.5385 56.3027C58.6795 56.2366 58.8448 56.172 59.0347 56.1089C59.1382 56.0745 59.2863 56.0445 59.4789 56.0188C59.6801 55.9903 59.8929 55.982 60.117 55.9939C60.3499 56.0029 60.5797 56.0465 60.8067 56.1246C61.0394 56.1913 61.2404 56.3069 61.4098 56.4714C61.5877 56.6331 61.7168 56.8494 61.7968 57.1205C61.8911 57.4636 61.8819 57.8267 61.7692 58.2098C61.6652 58.59 61.4936 58.9543 61.2545 59.3027C61.0154 59.651 60.7389 59.9589 60.4252 60.2265C60.1086 60.4854 59.7907 60.6679 59.4715 60.774Z" fill="#E71985"/>
<path d="M50.5691 63.7193C50.362 63.7882 50.1724 63.7504 50.0002 63.6061C49.8279 63.4617 49.6759 63.2338 49.5442 62.9223C49.4182 62.5994 49.3254 62.2029 49.2658 61.7331C49.2177 61.2402 49.2197 60.8555 49.2719 60.5789C49.3298 60.2908 49.4308 60.0748 49.5747 59.9309C49.6525 59.8475 49.7762 59.7727 49.9459 59.7067C50.1127 59.6321 50.291 59.5632 50.4808 59.5001C51.1106 59.2907 51.7218 59.0539 52.3144 58.7897C52.9127 58.5139 53.478 58.182 54.0104 57.7937L54.5394 58.6116C54.148 58.9337 53.7078 59.2241 53.2187 59.4827C52.7297 59.7413 52.2234 59.9769 51.6999 60.1893C51.1822 60.3902 50.6732 60.5739 50.1728 60.7403L49.3835 60.873C49.3269 60.3254 49.266 59.7503 49.2008 59.1479C49.1357 58.5455 49.0733 58.0094 49.0136 57.5395C48.9795 57.3204 48.9927 57.1288 49.0533 56.9646C49.1139 56.8004 49.209 56.6968 49.3384 56.6538C49.5541 56.5821 49.7423 56.6155 49.903 56.7541C50.0609 56.8841 50.1611 57.1436 50.2036 57.5327C50.2321 57.7345 50.2561 57.9809 50.2758 58.272C50.2954 58.5632 50.3151 58.8687 50.3347 59.1886C50.363 59.5056 50.3869 59.8097 50.4066 60.1008C50.432 60.3804 50.4561 60.6125 50.4788 60.7969C50.5412 61.3331 50.6123 61.8087 50.6922 62.2238C50.7778 62.6274 50.8362 62.9344 50.8675 63.1449C50.8817 63.2746 50.8585 63.3927 50.798 63.4992C50.7489 63.6116 50.6726 63.6849 50.5691 63.7193ZM55.0339 62.2349C54.8182 62.3066 54.6215 62.2328 54.4436 62.0135C54.2743 61.7914 54.1225 61.4626 53.9881 61.0272C53.8594 60.5803 53.7596 60.0758 53.6886 59.5137C53.5865 58.6259 53.5201 57.9183 53.4893 57.3909C53.4643 56.8519 53.4606 56.4211 53.4784 56.0983C53.4845 55.8851 53.5149 55.6877 53.5698 55.5062C53.6247 55.3248 53.7255 55.2096 53.8722 55.1609C54.062 55.0978 54.2258 55.1441 54.3635 55.3C54.507 55.4443 54.5943 55.6505 54.6255 55.9186C54.6681 56.25 54.6848 56.619 54.6756 57.0253C54.6749 57.4288 54.7059 57.8553 54.7684 58.305C54.8365 58.8585 54.9191 59.3543 55.0162 59.7925C55.119 60.2192 55.2133 60.5767 55.2991 60.865C55.3849 61.1533 55.4334 61.3724 55.4446 61.5223C55.4703 61.6866 55.4427 61.835 55.362 61.9674C55.2813 62.0999 55.172 62.189 55.0339 62.2349Z" fill="#E71985"/>
<path d="M41.6302 65.8703C41.6566 65.5735 41.7031 65.2364 41.7698 64.859C41.8336 64.4729 41.9061 64.0695 41.9873 63.6489C42.077 63.2254 42.1697 62.8106 42.2651 62.4044C42.3664 61.9866 42.4661 61.6078 42.5644 61.2679C42.6973 60.8301 42.8374 60.4138 42.9846 60.0192C43.1318 59.6246 43.2861 59.2949 43.4475 59.03C43.6146 58.7536 43.7801 58.5882 43.9441 58.5337C44.1166 58.4763 44.2919 58.4996 44.47 58.6037C44.6566 58.7048 44.8575 58.9069 45.0726 59.2098C45.2218 59.4291 45.3967 59.7118 45.5973 60.0579C45.798 60.4041 46.0058 60.7862 46.2207 61.2045C46.4328 61.614 46.6334 62.0322 46.8224 62.459C47.0115 62.8859 47.1718 63.2838 47.3035 63.6529L46.1989 64.1353C46.053 63.723 45.874 63.2832 45.662 62.816C45.4558 62.3373 45.2381 61.8816 45.0088 61.449C44.7795 61.0163 44.566 60.6457 44.3681 60.337C44.1674 60.0197 43.9995 59.8162 43.8646 59.7267L44.335 59.4551C44.1562 59.841 43.9773 60.2845 43.7983 60.7857C43.6279 61.284 43.4848 61.8068 43.369 62.3542C43.2821 62.7575 43.2025 63.1393 43.1301 63.4994C43.0576 63.8595 42.9953 64.2067 42.943 64.5409C42.8965 64.8636 42.8529 65.195 42.8121 65.535L41.6302 65.8703ZM48.0536 66.4856C47.881 66.5429 47.7273 66.5268 47.5923 66.4373C47.4573 66.3477 47.3828 66.2237 47.3687 66.0652C47.3516 65.9556 47.3562 65.7813 47.3824 65.5421C47.4115 65.3116 47.4349 65.0494 47.4526 64.7555C47.4703 64.4615 47.4593 64.1676 47.4195 63.8736L48.1043 64.3804C47.9778 64.4033 47.7822 64.4491 47.5177 64.5178C47.2618 64.5837 46.9397 64.6812 46.5514 64.8103C46.0942 64.9623 45.6254 65.1229 45.1451 65.2922C44.6734 65.4586 44.2075 65.6279 43.7474 65.8001C43.2958 65.9695 42.8687 66.1403 42.466 66.3126C42.0633 66.4848 41.698 66.6543 41.3701 66.8209L41.7246 66.199C41.7445 66.3172 41.773 66.4613 41.8101 66.6314C41.8472 66.8015 41.8887 66.9702 41.9344 67.1374C41.983 67.3133 42.0244 67.4675 42.0587 67.6001C42.1016 67.7299 42.1317 67.8207 42.1488 67.8726C42.1888 68.0226 42.1743 68.1522 42.1051 68.2616C42.0388 68.3797 41.9323 68.4631 41.7857 68.5118C41.5786 68.5807 41.4091 68.5458 41.2771 68.4073C41.1451 68.2688 41.0419 68.087 40.9675 67.8621C40.9131 67.7266 40.8587 67.5478 40.8045 67.3258C40.7502 67.1039 40.716 66.928 40.7018 66.7983C40.6905 66.6484 40.7023 66.5101 40.7369 66.3833C40.7602 66.2508 40.8193 66.1255 40.9143 66.0075C41.0093 65.8895 41.146 65.7817 41.3244 65.684C41.5287 65.5776 41.8077 65.4513 42.1615 65.3049C42.521 65.1469 42.9265 64.9833 43.3781 64.8139C43.8354 64.6331 44.3085 64.4566 44.7974 64.2844C45.2835 64.1036 45.7508 63.9387 46.1995 63.7895C46.4238 63.7149 46.6711 63.6375 46.9414 63.5572C47.2089 63.4683 47.4734 63.3996 47.7351 63.351C47.9939 63.2937 48.1879 63.3157 48.317 63.4167C48.4549 63.5149 48.5437 63.711 48.5834 64.0051C48.6118 64.2357 48.6229 64.4864 48.6168 64.7573C48.6106 65.0282 48.5815 65.2875 48.5293 65.5353C48.4887 65.7888 48.4251 66.002 48.3386 66.1748C48.2607 66.3447 48.1657 66.4483 48.0536 66.4856Z" fill="#E71985"/>
<path d="M36.9987 68.2167C36.4638 68.3945 35.9908 68.4702 35.5798 68.4436C35.1746 68.4055 34.8327 68.2839 34.5542 68.0788C34.2729 67.8652 34.0462 67.5853 33.8743 67.2392C33.711 66.8902 33.601 66.4851 33.5442 66.0239C33.4989 65.5685 33.5227 65.0901 33.6154 64.5888C33.714 64.076 33.8814 63.5834 34.1179 63.1112C34.3629 62.636 34.6711 62.2215 35.0425 61.8676C35.4196 61.5022 35.8541 61.2378 36.3458 61.0743C36.8031 60.9222 37.2027 60.871 37.5447 60.9205C37.8953 60.9672 38.1739 61.1146 38.3805 61.3627C38.5957 61.608 38.7316 61.9613 38.7884 62.4225C38.8367 62.8001 38.7988 63.1632 38.6746 63.5117C38.5562 63.8487 38.3689 64.1654 38.1126 64.4618C37.8621 64.7468 37.5599 65.0057 37.206 65.2385C36.8578 65.4599 36.4681 65.6423 36.0367 65.7857C35.45 65.9808 35.0346 66.0421 34.7903 65.9697C34.5548 65.8944 34.4256 65.7645 34.4029 65.58C34.3858 65.4704 34.4003 65.384 34.4464 65.3207C34.4897 65.2487 34.576 65.1912 34.7054 65.1482C34.8003 65.1166 34.9182 65.0966 35.059 65.0882C35.2057 65.0683 35.4127 65.0138 35.6802 64.9249C36.1115 64.7815 36.4798 64.5919 36.7848 64.356C37.0985 64.1173 37.3332 63.8569 37.4888 63.5747C37.6416 63.2838 37.7024 62.99 37.6713 62.6931C37.6372 62.4164 37.5383 62.2332 37.3746 62.1436C37.2196 62.0511 36.9738 62.0609 36.6373 62.1727C36.3008 62.2846 36.003 62.47 35.7439 62.729C35.4906 62.9764 35.2731 63.2744 35.0915 63.6228C34.9185 63.9684 34.7972 64.3399 34.7276 64.7375C34.658 65.1351 34.6502 65.5314 34.7042 65.9263C34.7468 66.2578 34.8369 66.5447 34.9745 66.787C35.1092 67.0206 35.3073 67.1852 35.5687 67.2807C35.8359 67.3647 36.1679 67.3407 36.5648 67.2088C37.0134 67.0596 37.3788 66.8757 37.6608 66.6572C37.9486 66.4271 38.1789 66.1969 38.3517 65.9666C38.5246 65.7363 38.67 65.5391 38.7881 65.375C38.9062 65.2109 39.0257 65.1088 39.1465 65.0687C39.2931 65.0199 39.4153 65.0417 39.5128 65.1341C39.6162 65.2149 39.6792 65.3476 39.7019 65.5321C39.7246 65.7166 39.6683 65.9369 39.5328 66.1932C39.403 66.438 39.21 66.6942 38.9538 66.9618C38.7062 67.2265 38.4141 67.4725 38.0774 67.6996C37.7465 67.9153 37.3869 68.0876 36.9987 68.2167Z" fill="#E71985"/>
<path d="M29.8665 70.5159C29.4524 70.6536 29.0714 70.7178 28.7236 70.7086C28.3758 70.6995 28.0899 70.6313 27.8659 70.5041C27.6419 70.377 27.5143 70.2082 27.483 69.9978C27.4745 69.8853 27.492 69.7787 27.5352 69.6779C27.5785 69.5771 27.6562 69.5081 27.7684 69.4708C27.8547 69.4421 27.9395 69.4379 28.0228 69.4582C28.1061 69.4785 28.2052 69.5032 28.3202 69.5322C28.4351 69.5612 28.5917 69.5715 28.7901 69.5632C28.9856 69.5462 29.2386 69.4861 29.5492 69.3828C30.0324 69.2222 30.4122 68.9663 30.6887 68.6151C30.9709 68.2524 31.068 67.7641 30.9798 67.1501C30.9316 66.7149 30.8144 66.3458 30.628 66.0429C30.4474 65.7285 30.2178 65.4832 29.9393 65.3069C29.6579 65.1221 29.3404 65.0164 28.9869 64.9899C28.6334 64.9634 28.2582 65.0161 27.8613 65.1481C27.6629 65.214 27.4673 65.3031 27.2745 65.4152C27.0818 65.5273 26.9078 65.6091 26.7525 65.6608C26.6576 65.6923 26.5641 65.6994 26.4722 65.6819C26.3774 65.6558 26.3027 65.6039 26.2482 65.526C26.1937 65.4481 26.1608 65.363 26.1494 65.2708C26.124 65.02 26.2206 64.791 26.4394 64.5839C26.6639 64.3652 27.048 64.1655 27.5915 63.9848C28.1696 63.7926 28.7158 63.7214 29.2303 63.7712C29.7533 63.8181 30.2216 63.9745 30.6351 64.2403C31.0457 64.4974 31.3858 64.8596 31.6553 65.3269C31.9305 65.7827 32.1079 66.3334 32.1873 66.9791C32.2413 67.4028 32.2205 67.8034 32.1251 68.1808C32.0383 68.5553 31.8926 68.8966 31.688 69.2046C31.4806 69.504 31.2229 69.7673 30.915 69.9945C30.6043 70.213 30.2547 70.3868 29.8665 70.5159ZM27.9238 74.8487C27.8203 74.8831 27.7211 74.8873 27.6263 74.8612C27.543 74.8409 27.4727 74.7875 27.4153 74.701C27.358 74.6144 27.3208 74.502 27.3037 74.3636C27.2867 74.2252 27.2941 74.0884 27.3259 73.9529C27.352 73.8291 27.3781 73.6764 27.4043 73.4949C27.4333 73.322 27.4523 73.1044 27.4613 72.8422C27.4703 72.5799 27.4508 72.2456 27.4025 71.8392C27.3231 71.1647 27.1833 70.5103 26.983 69.8759C26.7828 69.2416 26.5754 68.6 26.3608 67.9513C26.152 67.291 25.9993 66.612 25.9027 65.9145C25.8743 65.6839 25.8947 65.4995 25.9639 65.3612C26.0389 65.2115 26.154 65.1108 26.3093 65.0592C26.4473 65.0133 26.5752 65.0236 26.693 65.09C26.8165 65.145 26.9213 65.2446 27.0073 65.3888C27.0904 65.5244 27.1405 65.6902 27.1574 65.8862C27.2255 66.4396 27.3239 66.9542 27.4525 67.4299C27.5869 67.8941 27.727 68.3468 27.8729 68.788C28.0275 69.2262 28.169 69.6688 28.2977 70.1157C28.4264 70.5626 28.5205 71.0354 28.5801 71.5341C28.6426 71.9838 28.675 72.4003 28.6773 72.7836C28.6796 73.1669 28.6517 73.5026 28.5938 73.7907C28.5445 74.0759 28.4636 74.3092 28.3513 74.4906C28.2475 74.6691 28.105 74.7885 27.9238 74.8487Z" fill="#E71985"/>
<path d="M22.389 73.074C21.6729 73.312 21.0735 73.3673 20.5908 73.2397C20.1052 73.1035 19.7277 72.8306 19.4581 72.4209C19.1857 72.0026 19.0111 71.4894 18.9345 70.8812C18.8892 70.4258 18.9129 69.9474 19.0057 69.4461C19.1042 68.9333 19.2717 68.4407 19.5081 67.9684C19.7532 67.4933 20.0614 67.0788 20.4328 66.7249C20.8099 66.3595 21.2443 66.095 21.7361 65.9315C22.4177 65.7049 22.9724 65.7029 23.4004 65.9255C23.837 66.1452 24.0964 66.5966 24.1787 67.2798C24.2498 67.7842 24.1714 68.2567 23.9436 68.6973C23.713 69.1292 23.3761 69.5149 22.9329 69.8543C22.4984 70.1908 21.9964 70.4537 21.427 70.643C20.8403 70.8381 20.4248 70.8994 20.1806 70.8269C19.945 70.7516 19.8159 70.6217 19.7932 70.4373C19.7761 70.3277 19.7906 70.2413 19.8367 70.178C19.8799 70.106 19.9662 70.0485 20.0957 70.0054C20.1906 69.9739 20.3084 69.9539 20.4493 69.9455C20.5959 69.9255 20.803 69.8711 21.0704 69.7822C21.5018 69.6388 21.87 69.4491 22.1751 69.2133C22.4888 68.9746 22.7234 68.7141 22.8791 68.4319C23.0319 68.1411 23.0927 67.8472 23.0616 67.5504C23.0275 67.2736 22.9286 67.0905 22.7649 67.0009C22.6098 66.9084 22.3641 66.9181 22.0276 67.03C21.5876 67.1763 21.212 67.4452 20.901 67.8366C20.59 68.2281 20.3579 68.6845 20.2047 69.2059C20.0602 69.7244 20.0234 70.2503 20.0945 70.7836C20.1371 71.1151 20.2271 71.4019 20.3647 71.6442C20.4995 71.8779 20.6976 72.0425 20.959 72.138C21.2262 72.222 21.5582 72.198 21.9551 72.0661C22.4037 71.9169 22.769 71.733 23.0511 71.5144C23.3389 71.2843 23.5692 71.0541 23.742 70.8239C23.9148 70.5936 24.0603 70.3964 24.1784 70.2323C24.2965 70.0682 24.4159 69.9661 24.5367 69.9259C24.6834 69.8772 24.8055 69.899 24.9031 69.9913C25.0065 70.0722 25.0695 70.2049 25.0922 70.3894C25.1149 70.5738 25.0585 70.7942 24.923 71.0505C24.7933 71.2953 24.6003 71.5514 24.3441 71.8191C24.0965 72.0838 23.8043 72.3298 23.4677 72.5569C23.1368 72.7725 22.7772 72.9449 22.389 73.074Z" fill="#E71985"/>
<path d="M13.794 73.6272C13.4661 73.7362 13.17 73.753 12.9057 73.6777C12.6414 73.6023 12.4145 73.4521 12.2252 73.227C12.0444 72.9991 11.9098 72.7222 11.8212 72.3964C11.7211 72.0648 11.6627 71.7146 11.646 71.3457C11.6294 70.9768 11.6472 70.6252 11.6994 70.291C11.7603 69.9539 11.8513 69.6644 11.9724 69.4225C12.0935 69.1806 12.2446 69.0295 12.4258 68.9693C12.5121 68.9406 12.5912 68.9335 12.663 68.948C12.7435 68.9597 12.8124 68.9944 12.8698 69.0521C12.9243 69.1012 12.963 69.1748 12.9859 69.2728C13.003 69.3535 12.9999 69.4889 12.9766 69.6791C12.9591 69.8578 12.9343 70.0724 12.9023 70.3231C12.8674 70.5651 12.8512 70.8202 12.8537 71.0882C12.8533 71.3476 12.8888 71.5998 12.9603 71.8449C13.0118 72.0006 13.0691 72.1303 13.1322 72.2342C13.1924 72.3294 13.2656 72.3914 13.3518 72.4204C13.4466 72.4465 13.5544 72.4395 13.6752 72.3993C13.9513 72.3075 14.2131 72.1437 14.4606 71.9077C14.7082 71.6718 14.9257 71.3883 15.113 71.0571C15.309 70.7231 15.4676 70.3775 15.5889 70.0204C15.7073 69.6546 15.7783 69.3045 15.8018 68.9703L16.3474 70.2723C16.1884 70.8052 15.985 71.3049 15.7371 71.7714C15.4978 72.235 15.2112 72.6279 14.8772 72.9502C14.5519 73.2696 14.1909 73.4952 13.794 73.6272ZM17.25 74.8257C17.0602 74.8888 16.9022 74.8597 16.7759 74.7385C16.6467 74.6086 16.5291 74.4413 16.4231 74.2365C16.3515 74.0779 16.2785 73.8717 16.2042 73.618C16.1356 73.3527 16.0743 73.0659 16.0201 72.7574C15.966 72.449 15.9248 72.1507 15.8965 71.8624C15.8738 71.6491 15.8555 71.4056 15.8416 71.1318C15.8248 70.8493 15.8123 70.5654 15.8041 70.2801C15.7959 69.9948 15.7934 69.7267 15.7967 69.476C15.7971 69.2167 15.796 69.0106 15.7934 68.8578C15.7881 68.5524 15.8115 68.3045 15.8635 68.1144C15.9242 67.9214 16.0321 67.7991 16.1874 67.7475C16.3341 67.6987 16.4893 67.7479 16.6529 67.8952C16.8165 68.0424 16.9139 68.2645 16.945 68.5614C16.9734 68.7631 16.9859 69.047 16.9825 69.413C16.9762 69.7704 16.9742 70.1407 16.9765 70.524C16.9845 70.8958 17.0041 71.2157 17.0353 71.4838C17.0835 71.919 17.1404 72.2938 17.206 72.608C17.2717 72.9222 17.3431 73.1961 17.4203 73.4297C17.4689 73.6056 17.5161 73.7483 17.562 73.8579C17.6078 73.9675 17.6364 74.0684 17.6477 74.1606C17.6619 74.2903 17.6373 74.4185 17.5738 74.5452C17.5219 74.6777 17.4139 74.7712 17.25 74.8257Z" fill="#E71985"/>
<path d="M7.99913 77.8869C7.29166 78.1221 6.6578 78.1601 6.09754 78.0007C5.54591 77.8384 5.09655 77.5222 4.74948 77.0519C4.40818 76.57 4.18923 75.9659 4.09263 75.2395C4.02732 74.7236 4.05106 74.2452 4.16385 73.8045C4.2824 73.3522 4.44687 72.9518 4.65724 72.6035C4.87624 72.2522 5.1167 71.9658 5.37861 71.7443C5.63767 71.5142 5.87504 71.3633 6.09073 71.2915C6.18564 71.26 6.26758 71.2472 6.33656 71.253C6.41416 71.256 6.48023 71.2821 6.53477 71.3311C6.59507 71.3687 6.63233 71.4379 6.64654 71.5388C6.66063 71.7262 6.64453 71.9091 6.59826 72.0878C6.54913 72.2577 6.41375 72.4419 6.19211 72.6404C5.93015 72.8908 5.72137 73.1426 5.56575 73.396C5.41591 73.6378 5.3149 73.897 5.26273 74.1736C5.2077 74.4416 5.20723 74.7442 5.26132 75.0814C5.35501 75.828 5.62294 76.363 6.06509 76.6865C6.50438 77.0013 7.03463 77.0554 7.65582 76.8489C8.25975 76.6481 8.71452 76.2569 9.02011 75.6752C9.33147 75.082 9.43601 74.3992 9.33373 73.6267C9.25148 72.9147 9.03669 72.41 8.68935 72.1126C8.33915 71.8066 7.90522 71.7396 7.38756 71.9118C7.1201 72.0007 6.90863 72.1286 6.75316 72.2955C6.60631 72.4595 6.45365 72.6639 6.29517 72.9086C6.18279 73.09 6.09631 73.2484 6.03574 73.3837C5.97516 73.5191 5.91607 73.63 5.85845 73.7163C5.80659 73.7912 5.72458 73.8472 5.61242 73.8845C5.49164 73.9247 5.38386 73.9173 5.28909 73.8624C5.20008 73.796 5.1428 73.6662 5.11723 73.4731C5.08594 73.2626 5.11792 73.0264 5.21319 72.7643C5.31708 72.4993 5.4612 72.2402 5.64556 71.9868C5.83568 71.722 6.05593 71.4903 6.30631 71.2919C6.55383 71.0848 6.81564 70.9353 7.09172 70.8435C7.71291 70.637 8.26627 70.6162 8.75178 70.7813C9.23444 70.9377 9.62919 71.2481 9.93602 71.7126C10.24 72.1684 10.4317 72.7479 10.5111 73.4513C10.6049 74.1402 10.5607 74.7886 10.3787 75.3964C10.1938 75.9955 9.8955 76.5123 9.48378 76.9469C9.0807 77.3785 8.58581 77.6919 7.99913 77.8869Z" fill="#E71985"/>
<path d="M60.5089 47.6128C60.276 47.6902 60.0734 47.6423 59.9012 47.4692C59.7348 47.2845 59.5957 47.0378 59.4841 46.7293C59.4326 46.5736 59.3783 46.3948 59.3211 46.193C59.2639 45.9912 59.214 45.7822 59.1712 45.566C59.137 45.3469 59.1043 45.1465 59.073 44.9649C59.056 44.7977 59.0347 44.5888 59.0093 44.338C58.9924 44.0844 58.9741 43.8264 58.9544 43.5641C58.9405 43.2903 58.925 43.041 58.9081 42.8162C58.897 42.5798 58.8858 42.4011 58.8745 42.2801C58.8546 42.1619 58.8015 42.0883 58.7153 42.0594C58.6263 42.0218 58.4955 42.0317 58.3229 42.089C58.1849 42.1349 58.0367 42.1938 57.8785 42.2656C57.7203 42.3374 57.552 42.4221 57.3737 42.5198C56.9623 42.7526 56.6155 43.0215 56.3333 43.3266C56.0569 43.6201 55.9358 43.8908 55.9699 44.1387C55.9926 44.352 56.0742 44.5265 56.2148 44.6622C56.3612 44.7863 56.5882 44.8501 56.8958 44.8534C57.212 44.8539 57.6375 44.7653 58.1724 44.5874C58.3622 44.5243 58.5506 44.4569 58.7376 44.3851C58.9245 44.3134 59.1014 44.2402 59.2682 44.1655C59.4408 44.0793 59.5861 44.0118 59.704 43.963C59.8191 43.9055 59.8939 43.8711 59.9284 43.8596C60.1441 43.7879 60.3295 43.7406 60.4848 43.7178C60.64 43.695 60.7262 43.7672 60.7432 43.9344C60.7745 44.116 60.7254 44.2859 60.5958 44.4442C60.4748 44.5997 60.2921 44.742 60.0475 44.8713C59.8116 44.9978 59.5254 45.1169 59.189 45.2288L57.856 45.672C57.3901 45.8269 56.933 45.8924 56.4846 45.8687C56.0448 45.842 55.6742 45.7204 55.3728 45.5038C55.0799 45.2843 54.9051 44.9728 54.8482 44.5692C54.8227 44.3185 54.8548 44.039 54.9444 43.7308C55.0397 43.411 55.2184 43.0827 55.4805 42.746C55.7513 42.4063 56.1398 42.0755 56.6462 41.7535C57.0088 41.5178 57.3195 41.3425 57.5783 41.2276C57.8372 41.1127 58.1004 41.0108 58.3678 40.9219C58.7043 40.81 58.9832 40.7701 59.2045 40.8022C59.4258 40.8342 59.5981 40.921 59.7215 41.0624C59.8535 41.2009 59.9337 41.3855 59.962 41.6161C59.9876 41.8092 60.0045 42.0484 60.0127 42.3337C60.018 42.6104 60.0262 42.8957 60.0372 43.1897C60.054 43.4722 60.0709 43.7258 60.0878 43.9506C60.1133 44.1726 60.1488 44.4104 60.1944 44.6641C60.2372 44.9091 60.2871 45.1469 60.3442 45.3776C60.4014 45.6082 60.4571 45.8057 60.5115 45.9701C60.5744 46.1604 60.646 46.3622 60.7261 46.5756C60.812 46.7775 60.8592 46.9202 60.8677 47.0038C60.8905 47.1306 60.8688 47.2531 60.8025 47.3711C60.7362 47.4892 60.6383 47.5697 60.5089 47.6128ZM55.9492 49.1143C55.7939 49.166 55.656 49.1542 55.5354 49.0791C55.4205 48.9925 55.3531 48.8756 55.3333 48.7286C55.3277 48.6249 55.3609 48.5082 55.433 48.3786C55.5022 48.2404 55.6375 48.0706 55.8391 47.8692C56.1845 47.5239 56.5056 47.1195 56.8024 46.6559C57.1078 46.1895 57.4004 45.6842 57.68 45.14L58.6498 45.336C58.4624 45.7536 58.2476 46.1755 58.0054 46.6016C57.7691 47.0162 57.5242 47.4049 57.2707 47.7677C57.0258 48.1275 56.7896 48.4269 56.5622 48.6657C56.3347 48.9045 56.1304 49.0541 55.9492 49.1143Z" fill="#E71985"/>
<path d="M51.9478 50.4303C51.3094 50.6425 50.7416 50.6921 50.2445 50.5789C49.7532 50.4542 49.3512 50.1942 49.0385 49.7989C48.7315 49.3921 48.5398 48.8701 48.4632 48.2331C48.3979 47.6883 48.4275 47.1552 48.5519 46.6338C48.6821 46.1008 48.8927 45.6083 49.1837 45.1563C49.4805 44.6928 49.8361 44.2913 50.2505 43.9519C50.665 43.6125 51.1224 43.3596 51.6228 43.1932C51.8471 43.1187 52.057 43.0873 52.2524 43.0991C52.445 43.1023 52.6016 43.1559 52.7221 43.2598C52.8485 43.3522 52.9201 43.4964 52.937 43.6924C52.9569 43.8683 52.9351 44.0195 52.8717 44.1462C52.8054 44.2643 52.7075 44.3448 52.5781 44.3878C52.4832 44.4194 52.4041 44.4265 52.3409 44.4091C52.2777 44.3917 52.2102 44.3757 52.1384 44.3612C52.0751 44.3438 51.9788 44.3566 51.8494 44.3997C51.3576 44.5632 50.9375 44.8421 50.5891 45.2363C50.2379 45.622 49.977 46.0639 49.8067 46.5622C49.6421 47.049 49.5867 47.5331 49.6406 48.0145C49.7003 48.3979 49.8134 48.7107 49.9797 48.9531C50.1518 49.1839 50.3744 49.3355 50.6473 49.408C50.9289 49.4776 51.2379 49.4565 51.5744 49.3446C51.954 49.2184 52.2417 49.0748 52.4374 48.9137C52.6302 48.744 52.7728 48.5814 52.865 48.4259C52.9658 48.2675 53.0451 48.1308 53.1028 48.0156C53.1576 47.8917 53.2411 47.8112 53.3532 47.7739C53.5172 47.7194 53.6422 47.721 53.7283 47.7788C53.8231 47.8337 53.8847 47.962 53.9131 48.1638C53.9471 48.4694 53.8849 48.7733 53.7263 49.0757C53.5649 49.3694 53.3273 49.6356 53.0136 49.8743C52.7086 50.1101 52.3533 50.2954 51.9478 50.4303Z" fill="#E71985"/>
<path d="M39.6973 54.532C39.4902 54.6008 39.2949 54.5314 39.1112 54.3236C38.9276 54.1158 38.8031 53.7539 38.7378 53.2379C38.7037 52.99 38.6684 52.6081 38.6318 52.0922C38.5924 51.5676 38.6062 50.987 38.6733 50.3502C38.7492 49.5952 38.8407 48.9887 38.9478 48.5306C39.052 48.0639 39.1876 47.7068 39.3547 47.4592C39.5218 47.2116 39.7219 47.0491 39.9548 46.9717C40.136 46.9114 40.2983 46.9391 40.4419 47.0546C40.594 47.1672 40.726 47.3201 40.8378 47.5134C40.9496 47.7067 41.0528 47.9028 41.1474 48.1018C41.2734 48.3671 41.4181 48.6599 41.5815 48.98C41.7534 49.2973 41.9311 49.6175 42.1146 49.9405C42.3067 50.2607 42.5017 50.5608 42.6996 50.8406C42.9061 51.1176 43.1098 51.3427 43.3108 51.5159L42.8792 51.7746C42.9663 51.1984 43.0707 50.6164 43.1924 50.0287C43.314 49.441 43.4428 48.8749 43.5787 48.3304C43.7147 47.7859 43.8491 47.2948 43.982 46.8569C44.1351 46.3932 44.2808 46.0519 44.4191 45.8331C44.566 45.6114 44.7171 45.4747 44.8724 45.4231C44.9846 45.3858 45.0967 45.3774 45.2088 45.3977C45.318 45.4094 45.4171 45.4341 45.5062 45.4717C45.6325 45.5353 45.7445 45.6277 45.842 45.7488C45.9396 45.87 46.0169 46.0748 46.0739 46.3631C46.2022 47.0117 46.3364 47.5912 46.4765 48.1015C46.6223 48.6003 46.7553 49.0169 46.8755 49.3514C47.0816 49.9454 47.282 50.4069 47.477 50.7357C47.6806 51.0617 47.7866 51.2809 47.795 51.3933C47.815 51.5115 47.7846 51.6224 47.704 51.726C47.6348 51.8354 47.5312 51.9131 47.3932 51.9589C47.1861 52.0278 46.9807 51.9857 46.7768 51.8326C46.5816 51.6767 46.4109 51.4358 46.2649 51.1099C46.1273 50.81 45.9713 50.425 45.7967 49.9549C45.6307 49.4821 45.4677 48.9458 45.3077 48.3461C45.1534 47.7349 45.0193 47.0977 44.9054 46.4347L45.2506 46.2191C45.1437 46.5907 45.0252 47.0142 44.8951 47.4895C44.7708 47.9533 44.6435 48.4372 44.5134 48.9414C44.3919 49.4426 44.2776 49.9367 44.1705 50.4236C44.072 50.9076 43.9922 51.3614 43.9312 51.7849C43.8907 51.9808 43.8214 52.1479 43.7235 52.2861C43.6342 52.4214 43.5075 52.5163 43.3436 52.5708C43.1366 52.6396 42.9483 52.6494 42.7788 52.6002C42.615 52.5394 42.4571 52.4383 42.305 52.2968C42.1586 52.1438 42.0151 51.9707 41.8746 51.7774C41.8 51.6678 41.6968 51.5149 41.5649 51.3187C41.4301 51.1139 41.2867 50.8831 41.1348 50.6264C40.9829 50.3696 40.8295 50.0942 40.6747 49.8C40.52 49.5058 40.3753 49.213 40.2406 48.9217C40.1031 48.6218 39.99 48.3377 39.9014 48.0696L40.2553 47.8367C40.1021 48.3581 39.9806 48.8594 39.8908 49.3405C39.8095 49.8188 39.7628 50.3 39.7505 50.7841C39.744 51.2568 39.7706 51.7568 39.8301 52.2843C39.8727 52.6446 39.9182 52.9559 39.9666 53.2183C40.0237 53.4777 40.0608 53.6766 40.0778 53.815C40.0919 53.9735 40.073 54.119 40.0211 54.2515C39.9691 54.384 39.8612 54.4775 39.6973 54.532Z" fill="#E71985"/>
<path d="M34.5364 56.2334C34.0015 56.4113 33.5285 56.4869 33.1175 56.4603C32.7123 56.4222 32.3704 56.3006 32.0919 56.0956C31.8106 55.8819 31.5839 55.602 31.412 55.2559C31.2487 54.9069 31.1387 54.5018 31.0819 54.0406C31.0366 53.5852 31.0604 53.1068 31.1531 52.6055C31.2517 52.0927 31.4191 51.6002 31.6556 51.1279C31.9006 50.6528 32.2089 50.2383 32.5802 49.8844C32.9573 49.5189 33.3918 49.2545 33.8835 49.091C34.3408 48.939 34.7404 48.8877 35.0824 48.9372C35.433 48.9839 35.7116 49.1313 35.9182 49.3795C36.1334 49.6248 36.2693 49.978 36.3261 50.4392C36.3744 50.8168 36.3365 51.1799 36.2123 51.5284C36.0939 51.8654 35.9066 52.1821 35.6503 52.4786C35.3998 52.7635 35.0976 53.0224 34.7437 53.2553C34.3955 53.4766 34.0058 53.659 33.5744 53.8024C32.9877 53.9975 32.5723 54.0588 32.328 53.9864C32.0925 53.9111 31.9633 53.7812 31.9406 53.5967C31.9235 53.4872 31.938 53.4007 31.9841 53.3374C32.0274 53.2654 32.1137 53.2079 32.2431 53.1649C32.338 53.1333 32.4559 53.1134 32.5967 53.1049C32.7434 53.085 32.9504 53.0306 33.2179 52.9416C33.6493 52.7982 34.0175 52.6086 34.3225 52.3727C34.6362 52.134 34.8709 51.8736 35.0265 51.5914C35.1793 51.3006 35.2401 51.0067 35.209 50.7098C35.1749 50.4331 35.076 50.2499 34.9123 50.1603C34.7573 50.0679 34.5115 50.0776 34.175 50.1895C33.8385 50.3013 33.5407 50.4867 33.2816 50.7457C33.0283 50.9932 32.8108 51.2911 32.6292 51.6395C32.4562 51.9851 32.3349 52.3567 32.2653 52.7543C32.1957 53.1519 32.1879 53.5481 32.2419 53.943C32.2845 54.2745 32.3746 54.5614 32.5122 54.8037C32.6469 55.0373 32.845 55.2019 33.1064 55.2974C33.3736 55.3814 33.7056 55.3574 34.1025 55.2255C34.5511 55.0763 34.9165 54.8925 35.1985 54.6739C35.4863 54.4438 35.7166 54.2136 35.8894 53.9833C36.0623 53.753 36.2077 53.5558 36.3258 53.3918C36.4439 53.2277 36.5634 53.1255 36.6842 53.0854C36.8308 53.0366 36.953 53.0584 37.0506 53.1508C37.1539 53.2317 37.2169 53.3643 37.2396 53.5488C37.2624 53.7333 37.206 53.9537 37.0705 54.2099C36.9407 54.4547 36.7477 54.7109 36.4915 54.9785C36.2439 55.2433 35.9518 55.4892 35.6151 55.7164C35.2842 55.932 34.9246 56.1043 34.5364 56.2334Z" fill="#E71985"/>
<path d="M27.6502 62.1378C27.1239 62.3128 26.6624 62.4086 26.2657 62.4253C25.8719 62.4506 25.5644 62.404 25.3432 62.2855C25.1221 62.167 25.0002 62.0011 24.9775 61.7878C24.9576 61.6408 24.9765 61.5097 25.0342 61.3945C25.1034 61.2851 25.2199 61.2031 25.3838 61.1486C25.4874 61.1142 25.5894 61.1043 25.69 61.1189C25.7906 61.1334 25.9055 61.148 26.0348 61.1626C26.167 61.1859 26.3395 61.1862 26.5522 61.1634C26.7736 61.1379 27.0525 61.0691 27.389 60.9572C27.8031 60.8196 28.1182 60.614 28.3342 60.3406C28.5502 60.0671 28.6858 59.7388 28.741 59.3556C28.8049 58.9695 28.8084 58.5459 28.7516 58.0847C28.7204 57.8166 28.6734 57.5586 28.6106 57.3106C28.5563 57.0598 28.4964 56.7917 28.4307 56.5063C28.3651 56.2209 28.2937 55.8894 28.2167 55.5117C28.1368 55.1254 28.0614 54.6656 27.9903 54.1324L28.516 54.3753C28.4373 55.0639 28.3228 55.6444 28.1726 56.1168C28.0196 56.5806 27.848 56.9593 27.6578 57.253C27.4648 57.538 27.2646 57.7581 27.0574 57.9134C26.856 58.0572 26.6647 58.1592 26.4835 58.2194C25.7329 58.469 25.108 58.3311 24.6086 57.8058C24.1064 57.2719 23.7645 56.267 23.5828 54.7912C23.5033 54.1743 23.471 53.7002 23.4859 53.3688C23.5094 53.0345 23.5687 52.794 23.6638 52.6472C23.7589 52.5003 23.8754 52.404 24.0135 52.3581C24.1429 52.315 24.2579 52.3152 24.3584 52.3586C24.4561 52.3933 24.5292 52.4842 24.5779 52.6313C24.6351 52.7755 24.6707 52.9845 24.6847 53.2583C24.7269 53.8491 24.7878 54.3954 24.8675 54.8969C24.9444 55.3899 25.0458 55.8122 25.1717 56.164C25.2976 56.5158 25.4452 56.774 25.6146 56.9385C25.781 57.0944 25.9808 57.1336 26.2137 57.0562C26.5761 56.9357 26.8683 56.6321 27.0904 56.1454C27.3096 55.6501 27.4643 55.0321 27.5546 54.2916C27.6506 53.5396 27.6907 52.7197 27.6748 51.8321C27.6724 51.5641 27.6971 51.3782 27.749 51.2745C27.798 51.1622 27.9045 51.0788 28.0685 51.0243C28.1892 50.9842 28.31 50.9872 28.4306 51.0335C28.5599 51.077 28.6661 51.1953 28.7491 51.3885C28.8379 51.5702 28.885 51.8426 28.8901 52.2057C28.9066 52.6899 28.9376 53.1165 28.983 53.4855C29.037 53.8516 29.104 54.1989 29.184 54.5276C29.2611 54.8476 29.3454 55.1748 29.4369 55.5093C29.5341 55.8322 29.6255 56.1955 29.7111 56.5991C29.7939 56.994 29.8708 57.4582 29.9418 57.9914C30.0213 58.6083 30.0176 59.1472 29.9306 59.6082C29.8466 60.0778 29.7008 60.4767 29.4933 60.8049C29.2858 61.1331 29.021 61.4036 28.6987 61.6164C28.3879 61.8349 28.0384 62.0087 27.6502 62.1378Z" fill="#E71985"/>
<path d="M16.4571 61.4377C16.4835 61.1409 16.53 60.8038 16.5967 60.4263C16.6605 60.0403 16.733 59.6369 16.8142 59.2163C16.9039 58.7928 16.9965 58.3779 17.092 57.9717C17.1933 57.554 17.293 57.1752 17.3913 56.8353C17.5242 56.3974 17.6643 55.9812 17.8115 55.5866C17.9587 55.192 18.113 54.8623 18.2744 54.5974C18.4415 54.321 18.607 54.1555 18.771 54.101C18.9435 54.0437 19.1188 54.067 19.2969 54.171C19.4835 54.2722 19.6844 54.4742 19.8995 54.7772C20.0487 54.9964 20.2236 55.2791 20.4242 55.6253C20.6249 55.9714 20.8327 56.3536 21.0476 56.7718C21.2597 57.1814 21.4603 57.5996 21.6493 58.0264C21.8384 58.4532 21.9987 58.8512 22.1304 59.2203L21.0258 59.7027C20.8799 59.2904 20.7009 58.8506 20.4889 58.3834C20.2827 57.9047 20.065 57.449 19.8357 57.0163C19.6064 56.5837 19.3929 56.213 19.195 55.9043C18.9943 55.587 18.8265 55.3836 18.6915 55.294L19.1619 55.0224C18.9831 55.4083 18.8042 55.8519 18.6252 56.353C18.4548 56.8513 18.3117 57.3742 18.1959 57.9216C18.109 58.3249 18.0294 58.7066 17.957 59.0668C17.8845 59.4269 17.8222 59.7741 17.7699 60.1083C17.7234 60.431 17.6798 60.7623 17.639 61.1023L16.4571 61.4377ZM22.8805 62.0529C22.7079 62.1103 22.5542 62.0942 22.4192 62.0047C22.2843 61.9151 22.2097 61.7911 22.1956 61.6325C22.1785 61.523 22.1831 61.3487 22.2093 61.1095C22.2384 60.879 22.2618 60.6168 22.2795 60.3228C22.2972 60.0289 22.2862 59.7349 22.2464 59.4409L22.9312 59.9478C22.8047 59.9706 22.6091 60.0164 22.3446 60.0852C22.0887 60.1511 21.7666 60.2486 21.3783 60.3776C20.9211 60.5297 20.4523 60.6903 19.972 60.8596C19.5003 61.026 19.0344 61.1953 18.5743 61.3675C18.1227 61.5368 17.6956 61.7076 17.2929 61.8799C16.8902 62.0522 16.5249 62.2217 16.197 62.3883L16.5515 61.7664C16.5714 61.8846 16.5999 62.0287 16.6371 62.1988C16.6742 62.3689 16.7156 62.5375 16.7613 62.7048C16.8099 62.8806 16.8513 63.0349 16.8856 63.1675C16.9285 63.2973 16.9586 63.3881 16.9757 63.44C17.0157 63.5899 17.0012 63.7196 16.932 63.829C16.8657 63.947 16.7592 64.0304 16.6126 64.0792C16.4055 64.1481 16.236 64.1132 16.104 63.9747C15.972 63.8361 15.8688 63.6544 15.7944 63.4295C15.74 63.294 15.6856 63.1152 15.6314 62.8932C15.5771 62.6712 15.5429 62.4954 15.5287 62.3657C15.5174 62.2158 15.5292 62.0775 15.5638 61.9507C15.587 61.8182 15.6462 61.6929 15.7412 61.5749C15.8362 61.4569 15.9729 61.349 16.1513 61.2513C16.3556 61.145 16.6346 61.0186 16.9884 60.8722C17.3479 60.7143 17.7534 60.5506 18.205 60.3813C18.6623 60.2005 19.1354 60.024 19.6243 59.8518C20.1104 59.671 20.5777 59.506 21.0264 59.3569C21.2507 59.2823 21.498 59.2049 21.7683 59.1246C22.0358 59.0357 22.3003 58.9669 22.562 58.9183C22.8208 58.8611 23.0148 58.883 23.1439 58.9841C23.2818 59.0823 23.3706 59.2784 23.4103 59.5724C23.4387 59.803 23.4498 60.0538 23.4437 60.3247C23.4375 60.5956 23.4084 60.8549 23.3562 61.1026C23.3156 61.3562 23.252 61.5694 23.1655 61.7421C23.0876 61.9121 22.9926 62.0156 22.8805 62.0529Z" fill="#E71985"/>
<path d="M9.90258 64.4234C9.5057 64.5553 9.1507 64.5678 8.83755 64.4606C8.53304 64.3506 8.27754 64.1427 8.07106 63.8369C7.87321 63.5283 7.74446 63.139 7.68483 62.6692C7.62516 62.2281 7.63019 61.7656 7.69993 61.2815C7.77543 60.786 7.90697 60.3006 8.09455 59.8253C8.27926 59.3415 8.50991 58.8951 8.78649 58.4863C9.06883 58.066 9.38989 57.7048 9.74966 57.4028C10.1181 57.0979 10.5136 56.8751 10.9364 56.7346C11.1348 56.6686 11.3073 56.6689 11.4538 56.7354C11.6003 56.8019 11.6863 56.9461 11.7118 57.1681C11.7289 57.2776 11.7115 57.3842 11.6596 57.4879C11.6048 57.5829 11.507 57.6635 11.366 57.7295C10.7907 58.0168 10.3014 58.4195 9.89818 58.9376C9.50358 59.4529 9.21527 60.0144 9.03324 60.6222C8.85697 61.2185 8.80145 61.8034 8.86667 62.377C8.89787 62.6451 8.9478 62.883 9.01646 63.0906C9.08226 63.2895 9.21123 63.5347 9.40336 63.8261L8.61548 63.0943C8.83658 63.2416 9.01753 63.3254 9.15835 63.3458C9.30779 63.3634 9.49898 63.3334 9.73193 63.2559C10.2841 63.0724 10.7276 62.5313 11.0624 61.6326C11.3973 60.734 11.5817 59.5253 11.6156 58.0066C11.6217 57.8221 11.6622 57.6695 11.7371 57.5485C11.8178 57.4161 11.9315 57.3255 12.0781 57.2767C12.2766 57.2108 12.4562 57.2471 12.6169 57.3857C12.7834 57.5127 12.901 57.7089 12.9695 57.9741C13.1153 58.5306 13.2611 59.0294 13.407 59.4705C13.5587 59.9002 13.7406 60.291 13.9527 60.6429C14.1735 60.9919 14.4676 61.331 14.835 61.6601C14.9154 61.7294 14.9699 61.8217 14.9984 61.9371C15.0356 62.0495 15.0412 62.1677 15.0151 62.2916C14.9977 62.4126 14.953 62.5235 14.881 62.6242C14.8147 62.7135 14.7212 62.7781 14.6004 62.8183C14.471 62.8613 14.3589 62.8698 14.2641 62.8437C14.1779 62.8148 14.0932 62.7613 14.0099 62.6834C13.8148 62.4986 13.6282 62.2966 13.4504 62.0773C13.2725 61.858 13.1004 61.5983 12.9342 61.2984C12.7737 60.9869 12.6248 60.6091 12.4875 60.1651C12.3503 59.721 12.2203 59.1834 12.0977 58.552L12.5593 58.3842C12.5607 59.3438 12.4875 60.1795 12.3398 60.8911C12.1893 61.594 11.9842 62.1903 11.7248 62.6798C11.4711 63.1578 11.1859 63.5406 10.8693 63.8283C10.5527 64.116 10.2304 64.3144 9.90258 64.4234Z" fill="#E71985"/>
<path d="M1.6912 67.1534C1.51865 67.2108 1.35917 67.1774 1.21277 67.0533C1.07499 66.9262 0.98483 66.6826 0.942275 66.3223C0.865613 65.7141 0.784547 65.1649 0.699078 64.6749C0.622237 64.1819 0.541036 63.7192 0.455477 63.2868C0.378546 62.8515 0.305906 62.4292 0.237557 62.0199C0.166348 61.6019 0.100905 61.1724 0.0412292 60.7313C-0.038249 60.0857 -0.00281866 59.4834 0.14752 58.9245C0.297858 58.3657 0.577433 57.8791 0.986242 57.4647C1.39505 57.0504 1.94025 56.7299 2.62183 56.5033C3.24303 56.2967 3.81221 56.2659 4.32937 56.4108C4.85517 56.5529 5.28731 56.8461 5.62579 57.2904C5.97005 57.7232 6.18475 58.2856 6.26991 58.9774C6.33817 59.4443 6.3159 59.8982 6.20311 60.339C6.08747 60.7711 5.89857 61.1699 5.63643 61.5355C5.37143 61.8925 5.04038 62.209 4.64329 62.485C4.25482 62.7582 3.8147 62.9765 3.32292 63.14C2.90016 63.2806 2.53069 63.3506 2.21451 63.3501C1.90696 63.3467 1.66415 63.293 1.4861 63.189C1.30805 63.085 1.20767 62.9407 1.18496 62.7563C1.16793 62.6179 1.1868 62.5012 1.24156 62.4062C1.30495 62.3083 1.38841 62.2421 1.49194 62.2077C1.61273 62.1676 1.72916 62.1577 1.84123 62.178C1.95906 62.1868 2.10853 62.19 2.28962 62.1874C2.47648 62.1732 2.73814 62.1102 3.07462 61.9984C3.51463 61.8521 3.89439 61.6394 4.21388 61.3604C4.53914 61.0698 4.77966 60.7402 4.93545 60.3716C5.09701 59.9914 5.14936 59.5995 5.0925 59.196C5.04145 58.7521 4.90547 58.3988 4.68455 58.1362C4.47226 57.8708 4.20952 57.6989 3.89633 57.6206C3.58028 57.5336 3.24539 57.549 2.89165 57.6666C2.24458 57.8817 1.77839 58.2239 1.4931 58.6932C1.21357 59.151 1.11209 59.7128 1.18866 60.3787C1.24262 60.8024 1.30377 61.2189 1.37212 61.6283C1.44909 62.0347 1.52891 62.4643 1.61156 62.9169C1.70284 63.3666 1.79117 63.8653 1.87655 64.413C1.96193 64.9607 2.05006 65.5891 2.14094 66.2982C2.16937 66.5 2.14753 66.6801 2.07542 66.8385C2.00908 66.9853 1.88101 67.0903 1.6912 67.1534Z" fill="#E71985"/>
<path fill-rule="evenodd" clip-rule="evenodd" d="M102.446 1.86987C102.849 1.98288 103.085 2.40194 102.972 2.80586L101.135 9.38817C101.022 9.7921 100.604 10.0279 100.201 9.91492C99.7986 9.80191 99.5634 9.38286 99.6761 8.97893L101.004 4.21979C96.029 7.33528 92.7714 10.9344 90.6717 14.7827C88.3499 19.0381 87.4183 23.6454 87.1948 28.3311C86.9709 33.0243 87.458 37.7609 87.9518 42.2789C87.9741 42.4823 87.9963 42.6854 88.0185 42.888C88.4862 47.1542 88.9342 51.2405 88.7088 54.7933C88.569 57.5287 88.0244 60.0236 86.7259 62.0859C85.4148 64.1681 83.3802 65.7382 80.4002 66.692L80.3846 66.643C80.344 66.6563 80.3033 66.6695 80.2624 66.6826C79.8639 66.8102 79.4377 66.5897 79.3105 66.1901C79.1833 65.7905 79.4032 65.3632 79.8017 65.2356C82.5055 64.3702 84.2459 62.9975 85.3638 61.2569C86.4924 59.4997 87.0308 57.2986 87.1963 54.7064C87.3716 51.2502 86.8745 47.2314 86.3322 42.8486C86.3112 42.6786 86.2901 42.508 86.269 42.3368C85.7066 37.7836 85.1281 32.885 85.2885 28.0098C85.4491 23.1272 86.3508 18.2307 88.7724 13.6781C90.9459 9.59197 94.3228 5.82214 99.4099 2.59531L95.4731 1.49101C95.0703 1.378 94.8351 0.958946 94.9478 0.555023C95.0605 0.151101 95.4784 -0.0847296 95.8813 0.0282779L101.203 1.52112C101.218 1.51254 101.234 1.50396 101.249 1.49539L101.274 1.54109L102.446 1.86987Z" fill="#E71985"/>
</svg>
