<svg width="137" height="85" viewBox="0 0 137 85" fill="none" xmlns="http://www.w3.org/2000/svg">
<path d="M1.06387 23.1599C0.852618 23.2038 0.669238 23.1425 0.513714 22.976C0.36876 22.8074 0.295919 22.5079 0.295182 22.0777C0.288261 21.3506 0.268046 20.6926 0.234538 20.1035C0.211591 19.5123 0.179359 18.9561 0.137833 18.4349C0.106877 17.9115 0.0791933 17.4041 0.0547901 16.9124C0.0282027 16.4103 0.00998365 15.8952 0.00015046 15.3675C-0.0049459 14.596 0.119425 13.8914 0.373281 13.2538C0.627137 12.6162 1.0234 12.0815 1.56208 11.6497C2.10075 11.218 2.7873 10.9156 3.62171 10.7426C4.38219 10.5849 5.05727 10.6271 5.64693 10.869C6.24715 11.1088 6.71624 11.5137 7.05429 12.0839C7.40061 12.6411 7.57651 13.3331 7.582 14.1598C7.59844 14.7193 7.50991 15.2509 7.31648 15.7546C7.1209 16.2476 6.84361 16.6915 6.48444 17.086C6.12317 17.4699 5.68956 17.7971 5.18368 18.0675C4.68834 18.3358 4.13965 18.5324 3.53761 18.6571C3.02005 18.7645 2.57498 18.796 2.20239 18.7519C1.84036 18.7055 1.56155 18.6088 1.36597 18.4618C1.17038 18.3147 1.07186 18.1308 1.0704 17.9104C1.06932 17.7451 1.10755 17.6102 1.18513 17.5059C1.27327 17.3993 1.38072 17.3328 1.50746 17.3066C1.65533 17.2759 1.79392 17.2803 1.92321 17.3197C2.06089 17.3463 2.23662 17.3707 2.45042 17.3925C2.67259 17.4016 2.98964 17.3635 3.40156 17.2781C3.94024 17.1664 4.417 16.9682 4.83184 16.6836C5.25505 16.3861 5.58376 16.031 5.81795 15.6182C6.06051 15.1927 6.17597 14.7383 6.16431 14.2551C6.16504 13.7251 6.05322 13.2903 5.82887 12.9504C5.61507 12.6085 5.32898 12.3698 4.97059 12.2344C4.61002 12.0884 4.2132 12.0603 3.78015 12.1501C2.98798 12.3144 2.39158 12.6532 1.99095 13.1667C1.59869 13.6675 1.40202 14.3152 1.40092 15.1102C1.40639 15.6167 1.42132 16.1159 1.44573 16.6075C1.48069 17.0969 1.51584 17.6138 1.55117 18.1584C1.59706 18.7008 1.63276 19.3004 1.65826 19.9574C1.68376 20.6143 1.70142 21.3667 1.71126 22.2145C1.71708 22.4561 1.66664 22.6653 1.55992 22.8419C1.46159 23.0057 1.29623 23.1118 1.06387 23.1599ZM11.1165 21.0757C10.6306 21.1765 10.2105 21.1422 9.85612 20.9729C9.51232 20.8013 9.23971 20.5212 9.03828 20.1325C8.84746 19.7416 8.74903 19.2654 8.74328 18.7037C8.7334 18.1759 8.80278 17.6318 8.95136 17.0712C9.10839 16.4978 9.32995 15.9441 9.61622 15.4102C9.90034 14.8657 10.2334 14.3716 10.6155 13.9282C11.0059 13.472 11.4338 13.0908 11.8993 12.7846C12.3754 12.4762 12.8721 12.2683 13.3897 12.161C13.6326 12.1106 13.8359 12.1348 13.9994 12.2333C14.1629 12.3318 14.2446 12.5136 14.2441 12.7786C14.2492 12.9099 14.2141 13.0331 14.1387 13.148C14.0611 13.2524 13.9347 13.3339 13.7596 13.3922C13.042 13.6514 12.4101 14.0583 11.8638 14.6131C11.328 15.1657 10.9113 15.7873 10.6133 16.4783C10.3238 17.1564 10.1781 17.8378 10.1763 18.5225C10.1763 18.8426 10.2024 19.1296 10.2549 19.3836C10.3052 19.6271 10.4236 19.9336 10.6101 20.3033L9.78179 19.3327C10.0222 19.5367 10.2239 19.6604 10.3871 19.7039C10.5609 19.7451 10.7904 19.7361 11.0755 19.6771C11.7515 19.5369 12.3484 18.9606 12.8663 17.9482C13.3843 16.9357 13.7674 15.5374 14.0158 13.753C14.0482 13.5366 14.1168 13.3623 14.2217 13.2302C14.335 13.0853 14.4814 12.9942 14.661 12.957C14.9039 12.9067 15.1106 12.9742 15.2811 13.1596C15.4599 13.3322 15.5715 13.5795 15.616 13.9014C15.7114 14.5769 15.8148 15.1846 15.9263 15.7244C16.0461 16.2514 16.2069 16.7368 16.4087 17.1806C16.6211 17.6222 16.9212 18.0622 17.309 18.5006C17.3942 18.5933 17.4458 18.7094 17.4636 18.8492C17.492 18.9869 17.4824 19.1268 17.4347 19.2691C17.3976 19.4093 17.3296 19.5338 17.2309 19.6426C17.1406 19.7385 17.0215 19.8018 16.8736 19.8325C16.7152 19.8653 16.5819 19.8599 16.4737 19.816C16.3761 19.7701 16.2836 19.6954 16.1962 19.5921C15.9915 19.3477 15.7994 19.084 15.6198 18.8011C15.4403 18.5182 15.2731 18.1887 15.1183 17.8124C14.9719 17.4234 14.8482 16.9578 14.7474 16.4158C14.6464 15.8739 14.5671 15.2226 14.5091 14.462L15.0763 14.3279C14.9462 15.4585 14.7453 16.4328 14.4736 17.2507C14.1997 18.058 13.8763 18.7321 13.5034 19.273C13.1388 19.8011 12.7502 20.2128 12.3375 20.508C11.9249 20.8034 11.5179 20.9926 11.1165 21.0757ZM19.2514 18.462C19.3231 18.1161 19.4242 17.7254 19.5547 17.29C19.6828 16.8439 19.8236 16.3788 19.9769 15.8945C20.1408 15.408 20.3069 14.932 20.4752 14.4667C20.6518 13.9887 20.8214 13.5561 20.9838 13.1693C21.2005 12.6718 21.4227 12.2008 21.6503 11.7563C21.878 11.3117 22.105 10.9446 22.3316 10.6548C22.5665 10.3522 22.7842 10.1802 22.985 10.1386C23.1962 10.0947 23.3996 10.1464 23.5952 10.2935C23.8014 10.4383 24.0104 10.704 24.2224 11.0906C24.3681 11.3694 24.5354 11.7265 24.7245 12.162C24.9135 12.5974 25.106 13.0762 25.302 13.5985C25.4957 14.1102 25.6747 14.6304 25.839 15.1592C26.0032 15.6881 26.1376 16.179 26.2421 16.6319L24.8742 17.0479C24.7587 16.5421 24.6081 15.9995 24.4224 15.4199C24.245 14.8275 24.0509 14.2607 23.84 13.7194C23.6291 13.1782 23.4283 12.7121 23.2373 12.3212C23.0444 11.9198 22.8744 11.657 22.7276 11.5329L23.3193 11.2778C23.0556 11.7077 22.7839 12.2056 22.5042 12.7713C22.2351 13.3348 21.9947 13.9309 21.783 14.5598C21.6254 15.0229 21.4791 15.4616 21.3444 15.8759C21.2096 16.2901 21.0885 16.6905 20.9811 17.0769C20.8821 17.4507 20.7852 17.8351 20.6904 18.2299L19.2514 18.462ZM26.7377 20.0721C26.5264 20.1159 26.3475 20.0757 26.2007 19.9517C26.0539 19.8276 25.983 19.6712 25.9881 19.4825C25.983 19.3511 26.0124 19.1464 26.0761 18.8682C26.142 18.6007 26.2055 18.295 26.2668 17.9512C26.328 17.6075 26.3553 17.2596 26.3487 16.9078L27.0862 17.5993C26.934 17.6087 26.6973 17.6357 26.3761 17.6802C26.0653 17.7226 25.6724 17.7931 25.1971 17.8916C24.6373 18.0076 24.0627 18.1323 23.4734 18.2655C22.8947 18.3965 22.3223 18.5317 21.7563 18.6712C21.2009 18.8084 20.6741 18.9507 20.1758 19.0982C19.6775 19.2456 19.2237 19.395 18.8144 19.546L19.3176 18.8622C19.3248 19.0042 19.3387 19.178 19.3591 19.3834C19.3795 19.5889 19.4051 19.7932 19.4361 19.9965C19.4692 20.2104 19.4969 20.3979 19.5192 20.5588C19.5519 20.7175 19.5749 20.8287 19.5879 20.8922C19.6145 21.0743 19.5796 21.2251 19.483 21.3444C19.3887 21.4743 19.2518 21.5579 19.0723 21.5952C18.8187 21.6477 18.6237 21.5833 18.4871 21.4019C18.3505 21.2205 18.2539 20.9922 18.197 20.717C18.1515 20.5498 18.112 20.3318 18.0784 20.0628C18.045 19.7938 18.0287 19.5819 18.0298 19.4272C18.0372 19.2491 18.0699 19.0878 18.1282 18.9433C18.1737 18.7903 18.2605 18.6509 18.3888 18.525C18.517 18.3991 18.6929 18.2909 18.9165 18.2004C19.1719 18.1033 19.518 17.9929 19.9551 17.8692C20.4006 17.7327 20.9009 17.5958 21.4564 17.4586C22.0201 17.3086 22.6021 17.1658 23.2018 17.0305C23.7996 16.8845 24.373 16.7545 24.9223 16.6407C25.1969 16.5837 25.499 16.5266 25.8286 16.4693C26.156 16.4014 26.4773 16.3568 26.7923 16.3357C27.1052 16.304 27.3308 16.3565 27.4692 16.4934C27.6181 16.628 27.6959 16.8713 27.7025 17.2231C27.7043 17.4987 27.683 17.7956 27.6385 18.1138C27.5941 18.4321 27.5242 18.7336 27.4288 19.0182C27.3461 19.3113 27.242 19.5537 27.1163 19.7452C27.0012 19.9347 26.875 20.0436 26.7377 20.0721ZM32.3477 20.8295C31.7034 20.9631 31.1464 21.0123 30.6765 20.9773C30.2088 20.9528 29.8528 20.8555 29.6085 20.6855C29.3641 20.5154 29.2431 20.3031 29.2457 20.0488C29.2424 19.8729 29.2827 19.721 29.3665 19.5933C29.463 19.474 29.6116 19.3935 29.8123 19.3519C29.939 19.3256 30.0606 19.328 30.1772 19.359C30.2938 19.39 30.4273 19.4231 30.5776 19.4581C30.7302 19.5037 30.9335 19.5278 31.1873 19.5303C31.4517 19.5307 31.79 19.4882 32.2019 19.4028C32.7088 19.2977 33.1084 19.0989 33.4005 18.8066C33.6926 18.5143 33.8975 18.1462 34.0151 17.7024C34.1433 17.2564 34.2056 16.7578 34.202 16.2067C34.202 15.8867 34.1819 15.5762 34.1418 15.2755C34.1124 14.9726 34.0785 14.6485 34.0402 14.3033C34.002 13.9579 33.9633 13.5576 33.9244 13.1021C33.8833 12.6361 33.8574 12.0841 33.8468 11.4461L34.4331 11.8047C34.2458 12.605 34.0313 13.2731 33.7895 13.8089C33.5455 14.3341 33.2912 14.7565 33.0268 15.0762C32.7602 15.3854 32.4941 15.6171 32.2286 15.7715C31.9714 15.9132 31.732 16.0069 31.5102 16.053C30.5913 16.2434 29.8736 15.9949 29.3571 15.3073C28.8385 14.6091 28.5733 13.3783 28.5616 11.6147C28.5526 10.8771 28.5795 10.3141 28.6425 9.92582C28.7161 9.53528 28.819 9.26012 28.9512 9.10025C29.0834 8.94038 29.2341 8.84292 29.403 8.80789C29.5614 8.77501 29.697 8.79113 29.8095 8.85607C29.9199 8.91047 29.9936 9.02756 30.0308 9.20752C30.0784 9.38532 30.0917 9.63634 30.0706 9.96086C30.0393 10.6627 30.0362 11.3145 30.0613 11.9163C30.0843 12.5076 30.1458 13.0191 30.246 13.4509C30.3462 13.8826 30.4848 14.2071 30.6618 14.4242C30.8366 14.6309 31.0666 14.7045 31.3518 14.6454C31.7954 14.5534 32.1814 14.2361 32.5099 13.6934C32.8363 13.1401 33.1034 12.4335 33.3114 11.5736C33.5278 10.701 33.6875 9.74073 33.7905 8.69296C33.8244 8.37681 33.879 8.16137 33.9544 8.04635C34.0276 7.9208 34.1646 7.83721 34.3653 7.7956C34.5131 7.76498 34.655 7.78524 34.7909 7.8564C34.9373 7.92539 35.0462 8.07941 35.1175 8.31845C35.1973 8.5447 35.2153 8.87211 35.1716 9.30056C35.1246 9.87322 35.1026 10.38 35.1056 10.8208C35.119 11.2596 35.1503 11.678 35.1995 12.0762C35.2465 12.4638 35.301 12.8609 35.3629 13.2675C35.4332 13.6613 35.4911 14.1018 35.5366 14.589C35.58 15.0656 35.6069 15.623 35.6175 16.2609C35.6265 16.9985 35.5482 17.6329 35.3826 18.1639C35.219 18.7055 34.9925 19.1553 34.7029 19.5134C34.4134 19.8714 34.0641 20.1535 33.655 20.3597C33.2588 20.5743 32.823 20.7309 32.3477 20.8295ZM41.274 14.8233C40.6191 14.9591 40.0513 14.9829 39.5705 14.895C39.0982 14.7942 38.7118 14.6039 38.4117 14.324C38.1095 14.0335 37.8807 13.6725 37.7256 13.2412C37.5809 12.8076 37.5069 12.3153 37.5032 11.7641C37.5124 11.2214 37.6059 10.6611 37.784 10.0834C37.9705 9.49295 38.2355 8.93578 38.5789 8.41203C38.933 7.88612 39.3531 7.44028 39.8392 7.0746C40.3339 6.69613 40.8822 6.44447 41.4843 6.31964C42.0441 6.20363 42.5221 6.19832 42.9184 6.30379C43.3252 6.4071 43.6333 6.61912 43.8427 6.93994C44.0628 7.25852 44.1746 7.69337 44.1782 8.2445C44.1833 8.69602 44.0887 9.11844 43.8947 9.51187C43.7089 9.8925 43.4446 10.2398 43.1019 10.5537C42.7675 10.8548 42.3758 11.1181 41.9268 11.3437C41.4861 11.5564 41.0017 11.7176 40.4736 11.8271C39.7553 11.976 39.2573 11.9909 38.9793 11.8719C38.712 11.7508 38.5777 11.58 38.5762 11.3595C38.5711 11.2281 38.6 11.1283 38.663 11.0601C38.7239 10.9813 38.8335 10.9254 38.9919 10.8925C39.1081 10.8685 39.2498 10.8612 39.417 10.8706C39.5925 10.8674 39.844 10.8318 40.1715 10.7639C40.6996 10.6544 41.1595 10.4818 41.5514 10.246C41.9539 10.0081 42.2663 9.73362 42.4884 9.42261C42.7084 9.10106 42.8204 8.7633 42.8244 8.40933C42.8222 8.0786 42.7308 7.84928 42.5501 7.72111C42.3801 7.59087 42.089 7.56845 41.6771 7.65383C41.2652 7.73922 40.8888 7.91656 40.5479 8.18596C40.2153 8.44256 39.9182 8.76348 39.6562 9.14889C39.4049 9.53213 39.2111 9.95311 39.0744 10.4119C38.9378 10.8706 38.8743 11.3364 38.8838 11.809C38.8885 12.2054 38.9553 12.5557 39.0843 12.8601C39.2111 13.1539 39.4219 13.3751 39.7169 13.5236C40.0203 13.6594 40.4149 13.6769 40.9008 13.5762C41.45 13.4623 41.9058 13.296 42.2682 13.0774C42.639 12.846 42.942 12.6066 43.1773 12.3592C43.4126 12.1117 43.6111 11.8995 43.7728 11.7225C43.9345 11.5454 44.0894 11.4417 44.2372 11.411C44.4167 11.3738 44.5577 11.4163 44.66 11.5385C44.7708 11.648 44.8269 11.813 44.8283 12.0334C44.8298 12.2539 44.7331 12.5058 44.5382 12.7889C44.3517 13.0594 44.0892 13.3346 43.7504 13.6145C43.4223 13.8923 43.0442 14.1417 42.6163 14.3629C42.1967 14.5713 41.7493 14.7247 41.274 14.8233ZM47.59 13.5303C47.3366 13.5829 47.1159 13.4741 46.928 13.2041C46.74 12.934 46.6429 12.4905 46.6367 11.8737C46.6305 11.5771 46.6413 11.1223 46.6689 10.5095C46.6944 9.8861 46.7904 9.20401 46.9569 8.4631C47.1499 7.58421 47.341 6.88239 47.53 6.35756C47.7168 5.82219 47.9257 5.42012 48.1566 5.15153C48.3875 4.88295 48.6455 4.71902 48.9307 4.65994C49.1525 4.61391 49.34 4.66885 49.4934 4.82467C49.6573 4.97833 49.7919 5.17675 49.8971 5.41976C50.0024 5.66285 50.0971 5.90811 50.1813 6.15553C50.2934 6.48546 50.4239 6.85032 50.5724 7.24996C50.7316 7.64735 50.8971 8.04905 51.069 8.45491C51.2515 8.85851 51.4402 9.23887 51.635 9.59581C51.8404 9.9505 52.0497 10.2438 52.2628 10.4755L51.7186 10.7208C51.9004 10.054 52.1032 9.3828 52.3272 8.70728C52.5512 8.03167 52.7807 7.38254 53.0155 6.75998C53.2505 6.13734 53.4763 5.57729 53.693 5.07984C53.937 4.55465 54.1555 4.17266 54.3486 3.93398C54.5522 3.69313 54.749 3.55299 54.9392 3.51354C55.0765 3.48507 55.2098 3.49057 55.3391 3.52993C55.4662 3.55875 55.5796 3.60144 55.6794 3.6581C55.8197 3.75042 55.939 3.87462 56.0373 4.03089C56.1356 4.18707 56.1987 4.43891 56.2263 4.78639C56.2886 5.5681 56.3673 6.2692 56.4624 6.88969C56.5657 7.49738 56.6654 8.00645 56.7611 8.41708C56.9226 9.1452 57.0955 9.71641 57.2802 10.1306C57.4754 10.5427 57.5703 10.8154 57.5648 10.9491C57.5721 11.091 57.5211 11.2175 57.4119 11.3285C57.3154 11.4478 57.1826 11.525 57.0136 11.56C56.7601 11.6125 56.5238 11.5346 56.3044 11.3262C56.0957 11.1156 55.9277 10.8084 55.8002 10.4044C55.6793 10.0321 55.5482 9.55708 55.4069 8.97929C55.2761 8.39942 55.1575 7.74516 55.0512 7.01668C54.9532 6.27541 54.8826 5.50649 54.8392 4.70974L55.2757 4.50331C55.0987 4.92636 54.9009 5.40886 54.6824 5.9508C54.4723 6.48005 54.2559 7.03253 54.0334 7.60853C53.8214 8.18227 53.6189 8.74844 53.4259 9.30723C53.2434 9.86385 53.0872 10.3873 52.9571 10.8779C52.8825 11.1031 52.778 11.2903 52.6435 11.4396C52.5197 11.5867 52.3574 11.681 52.1568 11.7226C51.9032 11.7752 51.6801 11.7608 51.487 11.6794C51.3023 11.5853 51.1301 11.4443 50.9702 11.2568C50.8186 11.0564 50.6733 10.8326 50.5342 10.5856C50.4613 10.4462 50.3607 10.2518 50.232 10.0026C50.1014 9.74271 49.964 9.45107 49.8201 9.12772C49.6763 8.80437 49.5333 8.45869 49.3913 8.09085C49.2493 7.72291 49.1188 7.35813 49.0001 6.99642C48.8792 6.62416 48.7848 6.27397 48.7171 5.94585L49.1662 5.72032C48.9142 6.31342 48.7021 6.88716 48.5303 7.44154C48.369 7.99375 48.2478 8.55416 48.167 9.12277C48.0945 9.67858 48.0571 10.2713 48.055 10.9009C48.0557 11.3312 48.0667 11.7042 48.0878 12.0199C48.1194 12.3335 48.1358 12.5729 48.137 12.7381C48.1318 12.9268 48.0896 13.0956 48.0101 13.2446C47.9308 13.3935 47.7907 13.4887 47.59 13.5303ZM62.5915 10.387C61.8099 10.549 61.1339 10.5292 60.5635 10.3274C60.0016 10.1127 59.5634 9.75109 59.2491 9.24229C58.9431 8.7207 58.7887 8.0795 58.7858 7.3185C58.7836 6.66775 58.8916 6.04385 59.1098 5.44678C59.3363 4.83692 59.652 4.28579 60.0571 3.79347C60.4705 3.28836 60.9446 2.86441 61.4797 2.5217C62.0147 2.17898 62.5886 1.94417 63.2011 1.81718C63.4758 1.76016 63.7275 1.75215 63.9562 1.79304C64.1828 1.8233 64.3599 1.90805 64.4877 2.04703C64.624 2.17331 64.6886 2.35309 64.6817 2.58627C64.681 2.79614 64.6345 2.97132 64.5424 3.11183C64.4481 3.2418 64.3217 3.32322 64.1633 3.35601C64.047 3.38014 63.9529 3.37753 63.8808 3.34835C63.8087 3.31917 63.7313 3.29107 63.6486 3.26404C63.5765 3.23486 63.4612 3.23666 63.3028 3.26954C62.7008 3.39437 62.1673 3.66494 61.7026 4.08142C61.2357 4.48727 60.8676 4.97193 60.5985 5.5355C60.3377 6.08618 60.2061 6.64884 60.2035 7.2233C60.2214 7.6831 60.3117 8.06725 60.4745 8.37564C60.6457 8.67125 60.8871 8.88057 61.1989 9.00361C61.5212 9.12439 61.8884 9.14213 62.3003 9.05666C62.765 8.96037 63.1238 8.83076 63.3766 8.66801C63.6271 8.49463 63.8175 8.32268 63.9475 8.15227C64.088 7.9797 64.2002 7.82947 64.284 7.70175C64.3656 7.5634 64.4751 7.48 64.6123 7.45154C64.813 7.40992 64.9602 7.42911 65.0537 7.509C65.1579 7.58673 65.2129 7.74642 65.2188 7.98808C65.217 8.35268 65.1018 8.70214 64.8735 9.03639C64.643 9.36019 64.3264 9.64102 63.924 9.87899C63.5321 10.1147 63.0879 10.2841 62.5915 10.387ZM73.0683 8.24802C72.7831 8.3071 72.5509 8.2228 72.3717 7.9951C72.2009 7.75453 72.0709 7.44487 71.9816 7.06604C71.9424 6.87555 71.9028 6.65749 71.8631 6.41178C71.8234 6.16616 71.7931 5.91307 71.7724 5.6525C71.7622 5.38976 71.7511 5.14919 71.739 4.93095C71.742 4.73172 71.7456 4.48259 71.75 4.18365C71.7649 3.88255 71.7788 3.57622 71.7915 3.26449C71.8127 2.94007 71.8286 2.64428 71.8396 2.37704C71.8589 2.09711 71.8702 1.88509 71.8735 1.74098C71.8662 1.59894 71.8137 1.50499 71.7161 1.45897C71.6163 1.40241 71.4608 1.39601 71.2495 1.43988C71.0806 1.47491 70.8979 1.52382 70.7016 1.5866C70.5053 1.64929 70.2953 1.72593 70.0717 1.81645C69.5549 2.03397 69.1092 2.30301 68.7349 2.62347C68.3688 2.93115 68.1888 3.23333 68.195 3.53002C68.1925 3.78437 68.2648 4.00117 68.4119 4.18041C68.5675 4.34686 68.8263 4.45323 69.1882 4.49961C69.5609 4.54375 70.0746 4.4979 70.7295 4.36217C70.9618 4.31398 71.1931 4.26048 71.4233 4.20175C71.6535 4.14303 71.872 4.08115 72.0789 4.01612C72.2942 3.93839 72.4746 3.87895 72.6203 3.83769C72.7638 3.78581 72.8566 3.75555 72.8989 3.74681C73.163 3.69205 73.388 3.66197 73.5742 3.65648C73.7603 3.65098 73.8519 3.7479 73.8489 3.94713C73.861 4.16546 73.7797 4.35883 73.6053 4.52744C73.4414 4.69389 73.2065 4.83638 72.9006 4.955C72.6051 5.07146 72.2515 5.17234 71.8396 5.25781L70.2077 5.59611C69.6374 5.71437 69.0896 5.7286 68.5644 5.63881C68.0498 5.54685 67.6296 5.35248 67.304 5.05579C66.989 4.75685 66.8256 4.36577 66.814 3.88255C66.8183 3.5837 66.8944 3.25882 67.0423 2.90809C67.1986 2.54457 67.4542 2.18259 67.8094 1.82195C68.175 1.45915 68.6783 1.12301 69.3194 0.813536C69.779 0.585841 70.1693 0.422096 70.4902 0.322479C70.8111 0.222863 71.1352 0.139099 71.4626 0.0711871C71.8746 -0.0141984 72.2087 -0.0227556 72.4651 0.0454267C72.7215 0.113699 72.9127 0.239615 73.0387 0.423176C73.1754 0.604575 73.2446 0.83308 73.2464 1.1086C73.2501 1.33963 73.2371 1.6238 73.2075 1.96102C73.1759 2.2877 73.1464 2.62491 73.1191 2.97267C73.1001 3.30773 73.0852 3.60883 73.0742 3.87597C73.0739 4.14096 73.0832 4.42603 73.1021 4.73109C73.1189 5.02561 73.1452 5.31267 73.1808 5.59224C73.2165 5.87181 73.2551 6.11221 73.2966 6.31324C73.3447 6.54616 73.4013 6.79376 73.4666 7.05613C73.5401 7.3058 73.5762 7.48045 73.5747 7.58006C73.5842 7.73264 73.5417 7.87387 73.4474 8.00384C73.3531 8.13372 73.2267 8.21514 73.0683 8.24802ZM67.4881 9.38838C67.298 9.42774 67.137 9.39496 67.0052 9.28985C66.8818 9.17195 66.8184 9.02504 66.8151 8.84914C66.8227 8.7261 66.8779 8.59325 66.9806 8.45058C67.0811 8.29728 67.2639 8.11588 67.5291 7.90638C67.9836 7.54728 68.4176 7.11513 68.831 6.61002C69.2549 6.10266 69.669 5.54775 70.0733 4.94518L71.1895 5.30978C70.9112 5.77589 70.6002 6.24317 70.2563 6.7118C69.9209 7.16764 69.5789 7.59177 69.2304 7.98411C68.8923 8.37429 68.573 8.69431 68.2722 8.94434C67.9712 9.19437 67.7099 9.34236 67.4881 9.38838ZM7.02607 36.6732C6.16001 36.8528 5.40772 36.8101 4.76926 36.5451C4.14134 36.278 3.65511 35.8435 3.31056 35.2416C2.97439 34.627 2.7992 33.8852 2.78499 33.0162C2.7788 32.3994 2.8724 31.8392 3.0658 31.3355C3.26757 30.8191 3.51633 30.3701 3.81207 29.9888C4.11838 29.6052 4.44107 29.301 4.78016 29.0762C5.11706 28.8408 5.41753 28.6957 5.68158 28.6409C5.79778 28.6169 5.89611 28.613 5.97661 28.6295C6.06766 28.6437 6.14195 28.6835 6.1995 28.7488C6.26539 28.8013 6.29982 28.8881 6.30278 29.0088C6.29361 29.2315 6.24957 29.4448 6.17055 29.6488C6.08933 29.8423 5.90449 30.0406 5.61603 30.2439C5.27294 30.5026 4.99232 30.7706 4.77415 31.0476C4.56437 31.3118 4.40976 31.6032 4.31032 31.9219C4.20871 32.2299 4.16664 32.5863 4.18413 32.9911C4.19214 33.8834 4.43453 34.5505 4.91129 34.9925C5.38586 35.4239 6.00339 35.5608 6.76388 35.4031C7.50326 35.2498 8.09289 34.8516 8.53287 34.2085C8.9812 33.5527 9.19809 32.7627 9.18353 31.8386C9.18425 30.9887 9.00035 30.3645 8.63174 29.9664C8.26097 29.5575 7.7587 29.4188 7.12494 29.5503C6.79759 29.6182 6.53073 29.7397 6.32462 29.9149C6.12903 30.0879 5.92107 30.3076 5.70071 30.574C5.54337 30.7722 5.41972 30.9469 5.32976 31.0979C5.2398 31.249 5.15494 31.3714 5.07518 31.4653C5.0038 31.5463 4.89944 31.601 4.76214 31.6295C4.61426 31.6602 4.48825 31.6366 4.38408 31.5589C4.28829 31.4684 4.23858 31.3076 4.23493 31.0766C4.22692 30.8244 4.29703 30.5505 4.44526 30.2549C4.60406 29.957 4.80948 29.6717 5.06151 29.3987C5.32193 29.1129 5.6133 28.8703 5.93563 28.6711C6.25577 28.4612 6.58484 28.3213 6.92279 28.2512C7.68329 28.0935 8.33836 28.1454 8.88799 28.4066C9.43538 28.6574 9.85801 29.0775 10.156 29.6669C10.4517 30.2457 10.5981 30.9549 10.5952 31.7943C10.6112 32.6187 10.4703 33.3764 10.1724 34.0673C9.8723 34.7476 9.44976 35.3153 8.90489 35.7704C8.37063 36.2234 7.74432 36.5243 7.02607 36.6732ZM14.4404 32.454C14.039 32.5372 13.6877 32.5162 13.3865 32.391C13.0853 32.2658 12.8386 32.0576 12.6463 31.7664C12.4645 31.473 12.3438 31.1283 12.284 30.7322C12.2116 30.3278 12.1908 29.9072 12.2217 29.4704C12.2528 29.0335 12.322 28.6218 12.4294 28.2353C12.5474 27.8466 12.6944 27.5181 12.8703 27.2499C13.0462 26.9817 13.2451 26.8245 13.4668 26.7786C13.5724 26.7566 13.6666 26.7592 13.7493 26.7862C13.8425 26.811 13.919 26.8613 13.9788 26.9373C14.0363 27.0026 14.0718 27.0946 14.0853 27.2132C14.0944 27.3107 14.0722 27.4697 14.0186 27.6906C13.9735 27.8986 13.9148 28.1481 13.8427 28.439C13.7685 28.7193 13.7143 29.0174 13.6805 29.3335C13.6444 29.639 13.6517 29.941 13.7023 30.2395C13.7417 30.43 13.7914 30.5908 13.8514 30.7219C13.9094 30.8423 13.9871 30.9255 14.0848 30.9715C14.1929 31.0153 14.321 31.0218 14.4688 30.9912C14.8068 30.9211 15.1379 30.7642 15.462 30.5204C15.7861 30.2766 16.0814 29.9726 16.3476 29.6083C16.6244 29.2419 16.8588 28.8566 17.0507 28.4526C17.2404 28.038 17.3721 27.6355 17.4457 27.2449L17.9101 28.8539C17.6497 29.4597 17.3414 30.0203 16.9852 30.5357C16.6395 31.0488 16.2478 31.4722 15.8101 31.8058C15.3828 32.1372 14.9262 32.3533 14.4404 32.454ZM18.3493 34.3421C18.117 34.3903 17.9347 34.3343 17.8025 34.174C17.6681 34.0033 17.5524 33.79 17.4555 33.5341C17.3929 33.3374 17.3352 33.0845 17.2823 32.7754C17.2379 32.4534 17.2049 32.107 17.1835 31.7362C17.162 31.3654 17.1543 31.0083 17.1605 30.6649C17.1631 30.4105 17.1749 30.1211 17.196 29.7966C17.215 29.4616 17.2392 29.1255 17.2687 28.7882C17.2982 28.451 17.332 28.1349 17.3703 27.84C17.4064 27.5345 17.4333 27.2917 17.4511 27.1114C17.4869 26.7507 17.5484 26.4621 17.6358 26.2453C17.7338 26.0263 17.8778 25.8971 18.068 25.8577C18.2475 25.8205 18.4237 25.8998 18.5962 26.0958C18.7689 26.2918 18.8532 26.5668 18.8492 26.9209C18.855 27.1624 18.8308 27.4986 18.7765 27.9293C18.7201 28.3494 18.6669 28.7853 18.617 29.2371C18.5755 29.6762 18.5547 30.0557 18.5547 30.3758C18.5518 30.8952 18.5675 31.3444 18.6017 31.7237C18.636 32.1029 18.6826 32.4353 18.7416 32.7211C18.7747 32.935 18.8108 33.1096 18.8498 33.2451C18.8887 33.3804 18.9086 33.5033 18.9093 33.6134C18.9082 33.7682 18.8616 33.9159 18.7694 34.0564C18.6901 34.2053 18.55 34.3005 18.3493 34.3421ZM24.6465 32.9869C23.7699 33.1687 23.0558 33.1511 22.5044 32.9343C21.9508 32.707 21.5432 32.3334 21.2818 31.8137C21.018 31.2834 20.8827 30.6548 20.8758 29.9277C20.8849 29.385 20.9785 28.8247 21.1566 28.247C21.3431 27.6565 21.608 27.0994 21.9515 26.5756C22.3055 26.0497 22.7256 25.6039 23.2119 25.2382C23.7064 24.8597 24.2548 24.6081 24.8569 24.4832C25.6912 24.3103 26.3454 24.3843 26.8193 24.7055C27.3036 25.0246 27.5475 25.5921 27.5507 26.4081C27.5654 27.0121 27.4082 27.5579 27.0793 28.0456C26.7483 28.5226 26.2982 28.9304 25.7293 29.2691C25.171 29.6056 24.5433 29.8461 23.8461 29.9907C23.128 30.1396 22.6298 30.1545 22.352 30.0355C22.0846 29.9144 21.9502 29.7436 21.9488 29.5231C21.9437 29.3917 21.9726 29.2919 22.0356 29.2237C22.0965 29.1448 22.2061 29.089 22.3645 29.0561C22.4807 29.0321 22.6224 29.0248 22.7895 29.0342C22.9651 29.031 23.2166 28.9954 23.544 28.9275C24.0722 28.818 24.5322 28.6454 24.9241 28.4096C25.3265 28.1717 25.6388 27.8972 25.861 27.5862C26.081 27.2647 26.193 26.9269 26.197 26.5729C26.1948 26.2423 26.1033 26.0129 25.9227 25.8847C25.7526 25.7545 25.4616 25.732 25.0497 25.8174C24.511 25.9291 24.0315 26.1941 23.6113 26.6123C23.191 27.0306 22.8548 27.5362 22.6027 28.1293C22.3613 28.7202 22.2458 29.3346 22.2564 29.9726C22.2611 30.369 22.3279 30.7193 22.4569 31.0237C22.5836 31.3175 22.7945 31.5387 23.0895 31.6872C23.3929 31.823 23.7875 31.8405 24.2734 31.7398C24.8226 31.6259 25.2784 31.4597 25.6408 31.241C26.0116 31.0096 26.3147 30.7702 26.5499 30.5228C26.7852 30.2753 26.9837 30.0631 27.1455 29.8861C27.3071 29.709 27.4619 29.6053 27.6098 29.5746C27.7894 29.5374 27.9303 29.5799 28.0326 29.7021C28.1433 29.8116 28.1994 29.9766 28.2009 30.197C28.2024 30.4175 28.1057 30.6694 27.9108 30.9525C27.7243 31.223 27.4618 31.4982 27.123 31.7781C26.7948 32.0559 26.4168 32.3053 25.9888 32.5265C25.5693 32.7349 25.1218 32.8884 24.6465 32.9869ZM33.8106 31.0041C33.3037 31.1093 32.8458 31.1324 32.4372 31.0737C32.0285 31.0149 31.7009 30.8952 31.4543 30.7146C31.2078 30.5339 31.0804 30.3175 31.0724 30.0653C31.0779 29.9317 31.1131 29.8085 31.1779 29.6957C31.2428 29.5829 31.3438 29.5123 31.4811 29.4839C31.5867 29.462 31.6872 29.4687 31.7827 29.5041C31.8781 29.5395 31.9916 29.5822 32.1231 29.6322C32.2545 29.6822 32.4378 29.716 32.6726 29.7334C32.9053 29.7404 33.2118 29.7045 33.5921 29.6256C34.1836 29.5031 34.6663 29.2539 35.0404 28.8783C35.4229 28.49 35.6042 27.9282 35.5846 27.1928C35.5874 26.6734 35.4999 26.2225 35.3217 25.8399C35.152 25.4447 34.9151 25.1241 34.6109 24.8781C34.3047 24.6216 33.945 24.4533 33.532 24.3734C33.119 24.2935 32.6696 24.3038 32.1837 24.4046C31.9407 24.455 31.698 24.5329 31.4554 24.6383C31.2128 24.7438 30.9965 24.8162 30.8064 24.8557C30.6902 24.8798 30.5791 24.8752 30.4731 24.842C30.365 24.7982 30.2841 24.7267 30.2306 24.6273C30.177 24.5281 30.1499 24.4233 30.1492 24.3132C30.1536 24.0142 30.2988 23.7578 30.5851 23.544C30.8797 23.3173 31.3598 23.135 32.0252 22.9971C32.7329 22.8504 33.3865 22.8417 33.986 22.9713C34.596 23.0987 35.1265 23.3475 35.5774 23.7175C36.0261 24.077 36.3772 24.5505 36.6307 25.1381C36.8926 25.7129 37.0261 26.3861 37.0312 27.1577C37.0367 27.6643 36.9572 28.1333 36.793 28.5646C36.6393 28.9939 36.4207 29.3758 36.1374 29.7105C35.8519 30.0346 35.512 30.3093 35.118 30.5344C34.7217 30.749 34.2859 30.9056 33.8106 31.0041ZM30.9266 35.8404C30.7998 35.8666 30.6824 35.8579 30.5742 35.8141C30.4788 35.7787 30.4033 35.706 30.3475 35.5962C30.2918 35.4863 30.2634 35.3487 30.2622 35.1834C30.2612 35.0181 30.2887 34.8578 30.3447 34.7027C30.3925 34.5604 30.4442 34.3842 30.4999 34.1739C30.5579 33.9743 30.6101 33.7206 30.6567 33.413C30.7034 33.1053 30.7261 32.7087 30.725 32.2233C30.7239 31.4178 30.6489 30.6277 30.4999 29.8529C30.3509 29.078 30.1945 28.2937 30.0306 27.4999C29.8751 26.6933 29.7882 25.8725 29.77 25.0374C29.7681 24.7619 29.8176 24.5475 29.9181 24.3942C30.0269 24.2281 30.1765 24.1254 30.3666 24.0859C30.5356 24.0509 30.6849 24.0806 30.8146 24.1752C30.9526 24.257 31.0625 24.3887 31.144 24.5704C31.2234 24.7416 31.2597 24.9438 31.2527 25.177C31.2571 25.8383 31.3024 26.4581 31.3887 27.0362C31.4835 27.6015 31.5866 28.1541 31.698 28.6939C31.82 29.2315 31.9261 29.7724 32.0165 30.3166C32.1068 30.8607 32.1529 31.4306 32.1547 32.0262C32.1668 32.5646 32.1478 33.0596 32.0979 33.5115C32.048 33.9633 31.9692 34.3549 31.8613 34.6863C31.7641 35.0156 31.6368 35.2792 31.4795 35.4774C31.3327 35.6734 31.1484 35.7944 30.9266 35.8404ZM42.5322 29.2787C41.8773 29.4144 41.3096 29.4384 40.8288 29.3504C40.3563 29.2497 39.9701 29.0594 39.67 28.7794C39.3677 28.4889 39.139 28.128 38.9838 27.6965C38.8392 27.2629 38.7651 26.7706 38.7615 26.2195C38.7705 25.6768 38.8642 25.1166 39.0423 24.5388C39.2288 23.9483 39.4937 23.3911 39.8372 22.8675C40.1912 22.3415 40.6113 21.8957 41.0975 21.5301C41.5921 21.1516 42.1404 20.8999 42.7426 20.7751C43.3023 20.659 43.7803 20.6537 44.1766 20.7592C44.5834 20.8625 44.8916 21.0745 45.101 21.3953C45.321 21.714 45.4328 22.1488 45.4364 22.6999C45.4416 23.1514 45.347 23.5738 45.1529 23.9672C44.9672 24.348 44.7029 24.6952 44.3602 25.0091C44.0258 25.3102 43.6341 25.5735 43.185 25.7991C42.7444 26.0118 42.26 26.1729 41.7318 26.2825C41.0136 26.4313 40.5155 26.4464 40.2376 26.3274C39.9703 26.2062 39.8359 26.0354 39.8345 25.8149C39.8294 25.6836 39.8583 25.5837 39.9213 25.5155C39.9822 25.4366 40.0917 25.3808 40.2502 25.348C40.3664 25.3239 40.5081 25.3166 40.6752 25.3261C40.8508 25.3228 41.1023 25.2872 41.4297 25.2193C41.9578 25.1098 42.4178 24.9372 42.8097 24.7014C43.2122 24.4634 43.5245 24.189 43.7466 23.8781C43.9667 23.5565 44.0787 23.2188 44.0826 22.8647C44.0805 22.5341 43.9891 22.3046 43.8084 22.1766C43.6383 22.0462 43.3473 22.0238 42.9354 22.1092C42.5234 22.1946 42.147 22.372 41.8062 22.6413C41.4736 22.8979 41.1764 23.2189 40.9145 23.6043C40.6632 23.9875 40.4692 24.4086 40.3327 24.8673C40.1961 25.3261 40.1325 25.7918 40.1421 26.2644C40.1467 26.6607 40.2136 27.0111 40.3425 27.3155C40.4693 27.6094 40.6802 27.8305 40.9752 27.979C41.2785 28.1148 41.6732 28.1323 42.159 28.0316C42.7083 27.9177 43.1641 27.7515 43.5265 27.5329C43.8973 27.3015 44.2003 27.062 44.4356 26.8146C44.6709 26.5672 44.8694 26.3549 45.0311 26.1779C45.1928 26.0009 45.3475 25.8971 45.4955 25.8664C45.675 25.8291 45.8159 25.8717 45.9183 25.994C46.029 26.1034 46.0851 26.2684 46.0866 26.4888C46.088 26.7093 45.9914 26.9611 45.7965 27.2443C45.61 27.5148 45.3474 27.7899 45.0087 28.0699C44.6805 28.3476 44.3025 28.5971 43.8745 28.8183C43.455 29.0267 43.0075 29.1802 42.5322 29.2787ZM48.313 27.1531C48.3847 26.807 48.4857 26.4164 48.6161 25.981C48.7443 25.535 48.8851 25.0698 49.0384 24.5855C49.2023 24.099 49.3685 23.6231 49.5367 23.1577C49.7133 22.6796 49.8829 22.2471 50.0453 21.8602C50.262 21.3628 50.4842 20.8918 50.7118 20.4472C50.9394 20.0028 51.1666 19.6355 51.3931 19.3458C51.628 19.0432 51.8458 18.8711 52.0465 18.8295C52.2577 18.7857 52.4611 18.8373 52.6567 18.9844C52.8628 19.1294 53.0719 19.3951 53.2839 19.7815C53.4295 20.0604 53.5969 20.4175 53.7859 20.8529C53.975 21.2883 54.1675 21.7672 54.3634 22.2894C54.5572 22.8011 54.7363 23.3214 54.9005 23.8502C55.0648 24.3791 55.1992 24.87 55.3037 25.3229L53.9357 25.739C53.8203 25.2332 53.6696 24.6904 53.4838 24.1108C53.3065 23.5185 53.1123 22.9517 52.9015 22.4105C52.6906 21.8692 52.4897 21.4031 52.2989 21.0122C52.1058 20.6108 51.936 20.348 51.7892 20.2239L52.3808 19.9688C52.1172 20.3987 51.8454 20.8965 51.5657 21.4622C51.2965 22.0258 51.0562 22.622 50.8446 23.2508C50.6869 23.714 50.5406 24.1526 50.4059 24.5669C50.2711 24.9811 50.15 25.3815 50.0426 25.768C49.9435 26.1417 49.8466 26.526 49.7519 26.921L48.313 27.1531ZM55.7992 28.7631C55.588 28.8069 55.4089 28.7667 55.2622 28.6426C55.1154 28.5186 55.0446 28.3622 55.0497 28.1735C55.0446 28.0421 55.0739 27.8373 55.1376 27.5593C55.2036 27.2917 55.2671 26.9861 55.3282 26.6423C55.3894 26.2985 55.4168 25.9506 55.4102 25.5988L56.1478 26.2902C55.9955 26.2997 55.7588 26.3268 55.4375 26.3713C55.1269 26.4136 54.7338 26.484 54.2585 26.5826C53.6987 26.6987 53.1242 26.8233 52.5349 26.9565C51.9562 27.0875 51.3838 27.2228 50.8178 27.3622C50.2624 27.4994 49.7355 27.6418 49.2373 27.7892C48.7391 27.9367 48.2853 28.0859 47.8759 28.237L48.379 27.5532C48.3863 27.6952 48.4001 27.8689 48.4205 28.0744C48.4409 28.2799 48.4667 28.4843 48.4976 28.6876C48.5307 28.9015 48.5584 29.0888 48.5806 29.2498C48.6134 29.4086 48.6364 29.5197 48.6495 29.5832C48.6761 29.7653 48.6411 29.916 48.5446 30.0354C48.4502 30.1653 48.3133 30.2489 48.1337 30.2861C47.8803 30.3387 47.6852 30.2743 47.5486 30.0929C47.4121 29.9115 47.3153 29.6832 47.2585 29.408C47.213 29.2409 47.1735 29.0228 47.14 28.7539C47.1065 28.4848 47.0903 28.273 47.0914 28.1182C47.0986 27.9401 47.1314 27.7788 47.1897 27.6343C47.2352 27.4814 47.3221 27.3419 47.4503 27.216C47.5785 27.0901 47.7544 26.9818 47.9781 26.8914C48.2333 26.7943 48.5795 26.6839 49.0166 26.5601C49.462 26.4237 49.9625 26.2868 50.5179 26.1496C51.0817 25.9995 51.6635 25.8569 52.2634 25.7214C52.861 25.5755 53.4345 25.4455 53.9838 25.3317C54.2583 25.2748 54.5604 25.2176 54.8901 25.1603C55.2175 25.0924 55.5387 25.0479 55.8538 25.0267C56.1667 24.995 56.3923 25.0475 56.5307 25.1844C56.6797 25.3191 56.7575 25.5623 56.764 25.9142C56.7658 26.1897 56.7445 26.4866 56.7001 26.8049C56.6556 27.1231 56.5857 27.4245 56.4903 27.7092C56.4076 28.0023 56.3035 28.2447 56.1778 28.4363C56.0627 28.6257 55.9365 28.7346 55.7992 28.7631ZM59.1436 25.8512C58.89 25.9038 58.6717 25.8332 58.4885 25.6394C58.3053 25.4456 58.1574 25.1561 58.0448 24.7711C57.9407 24.3733 57.8857 23.8936 57.8799 23.3319C57.8908 22.7446 57.946 22.2917 58.0454 21.9731C58.1532 21.6416 58.3018 21.4012 58.4912 21.2516C58.5943 21.1639 58.7503 21.0929 58.9594 21.0385C59.1663 20.9736 59.3859 20.917 59.6182 20.8689C60.3893 20.709 61.1421 20.5143 61.8767 20.2848C62.6198 20.0424 63.3317 19.7292 64.0123 19.3452L64.5237 20.3816C64.0182 20.7072 63.4595 20.9886 62.8476 21.2258C62.2357 21.463 61.6067 21.6707 60.9605 21.8488C60.3228 22.0142 59.6977 22.1603 59.0851 22.2874L58.1366 22.3349C58.1451 21.682 58.1522 20.9962 58.1579 20.2776C58.1638 19.559 58.1638 18.9189 58.1579 18.3571C58.1478 18.0944 58.1896 17.8705 58.2836 17.6854C58.3776 17.5004 58.5038 17.3915 58.6622 17.3586C58.9262 17.3038 59.1435 17.3691 59.314 17.5546C59.4822 17.7294 59.5648 18.0489 59.5614 18.5132C59.5673 18.7548 59.5618 19.0484 59.5451 19.394C59.5283 19.7397 59.5096 20.1023 59.4888 20.4818C59.4786 20.8592 59.4651 21.2207 59.4484 21.5663C59.44 21.8992 59.4365 22.1758 59.438 22.3962C59.438 23.0365 59.4565 23.6065 59.4938 24.1065C59.5392 24.5938 59.566 24.9635 59.574 25.2157C59.5729 25.3704 59.5294 25.5063 59.4434 25.6235C59.3703 25.7491 59.2703 25.825 59.1436 25.8512ZM64.6095 24.718C64.3455 24.7727 64.1236 24.6587 63.944 24.3759C63.7751 24.0908 63.6412 23.6826 63.5425 23.1512C63.4522 22.607 63.4037 21.999 63.3972 21.327C63.3986 20.2672 63.4174 19.4245 63.4534 18.7989C63.4979 18.1606 63.5527 17.6526 63.6179 17.2748C63.6543 17.0244 63.7174 16.7961 63.807 16.5899C63.8965 16.3837 64.0311 16.262 64.2106 16.2248C64.4431 16.1766 64.6297 16.2538 64.7706 16.4564C64.92 16.6461 64.9946 16.901 64.9946 17.2211C64.9993 17.6175 64.9684 18.0544 64.9017 18.5317C64.8456 19.0069 64.8236 19.5137 64.8357 20.052C64.84 20.7134 64.8694 21.3088 64.9236 21.8384C64.9862 22.3552 65.0483 22.7893 65.1099 23.1408C65.1715 23.4922 65.1986 23.757 65.1913 23.9352C65.199 24.1322 65.1461 24.3032 65.0329 24.4481C64.9196 24.593 64.7785 24.6829 64.6095 24.718ZM70.0401 23.6087C69.5436 23.7115 69.1119 23.6741 68.7448 23.4964C68.3777 23.3186 68.0923 23.0302 67.8887 22.6309C67.6829 22.2211 67.5739 21.7194 67.5615 21.1259C67.5523 20.3883 67.5445 19.6835 67.5379 19.0116C67.5292 18.3292 67.519 17.7463 67.5073 17.2631C67.5063 16.7776 67.5063 16.4576 67.5073 16.3029C67.5022 16.1715 67.5205 16.0463 67.562 15.9273C67.614 15.8062 67.6863 15.7029 67.7789 15.6175C67.8714 15.532 67.9757 15.4773 68.0919 15.4532C68.3348 15.4028 68.5396 15.4873 68.7059 15.7066C68.883 15.9238 68.9778 16.1966 68.9906 16.5251C68.9884 16.8346 68.9718 17.2078 68.9409 17.6447C68.9205 18.0793 68.9169 18.4885 68.9299 18.872C68.9245 19.0056 68.9173 19.1838 68.9081 19.4064C68.9074 19.6163 68.9025 19.8324 68.8933 20.0551C68.8926 20.2649 68.8917 20.4472 68.8906 20.602C68.8903 21.1871 68.981 21.6263 69.1627 21.9197C69.3445 22.2131 69.6149 22.3227 69.974 22.2482C70.1747 22.2066 70.3856 22.1077 70.6066 21.9515C70.8383 21.7931 71.0528 21.6052 71.2503 21.3876C71.4454 21.1595 71.6015 20.9285 71.7185 20.6945C71.8353 20.4606 71.8752 20.2537 71.8381 20.0737C71.7918 19.7963 71.672 19.5894 71.4786 19.4529C71.2957 19.3142 71.0508 19.2215 70.7438 19.1748C70.57 19.1336 70.3499 19.1075 70.0832 19.0965C69.8166 19.0856 69.5353 19.0831 69.2392 19.0894C68.9409 19.085 68.6576 19.0996 68.3891 19.1332L68.4454 18.0454C68.8125 17.9031 69.2217 17.7244 69.673 17.5095C70.1348 17.2923 70.6081 17.0506 71.0929 16.7846C71.5776 16.5185 72.0401 16.2516 72.4805 15.9837C72.9799 15.6815 73.4147 15.3872 73.7851 15.1007C74.1661 14.8119 74.4903 14.5682 74.7576 14.3692C75.0333 14.1575 75.2662 14.032 75.4563 13.9925C75.7838 13.9247 76.0549 13.9843 76.2699 14.1716C76.493 14.3461 76.6048 14.6209 76.6053 14.9961C76.6012 15.3501 76.5961 15.6988 76.5899 16.0422C76.5922 16.3729 76.5913 16.7152 76.5872 17.0693C76.5913 17.3554 76.5998 17.6902 76.6129 18.0738C76.6238 18.4468 76.6422 18.8293 76.6681 19.2213C76.6939 19.6133 76.7291 19.9702 76.7736 20.2921C76.8172 20.5038 76.86 20.7377 76.9019 20.994C76.9522 21.2374 76.9788 21.4195 76.9817 21.5403C76.9846 21.6611 76.9589 21.7768 76.9047 21.8874C76.8588 21.9853 76.7874 22.0662 76.6905 22.1305C76.6064 22.2031 76.5062 22.2515 76.39 22.2756C76.1682 22.3216 75.9774 22.2508 75.8175 22.0632C75.6659 21.8628 75.5532 21.6102 75.4793 21.3055C75.37 20.7763 75.2925 20.2405 75.2465 19.6981C75.1984 19.1452 75.1704 18.5826 75.1624 18.0103C75.1672 17.7665 75.1665 17.4963 75.1602 17.1995C75.1646 16.9007 75.17 16.6071 75.1766 16.3187C75.1832 16.0303 75.1857 15.776 75.1842 15.5556C75.1912 15.3223 75.1954 15.156 75.1968 15.0562L75.5825 15.324C75.3681 15.5119 75.0829 15.7311 74.727 15.9814C74.3795 16.219 73.9804 16.4729 73.5295 16.743C73.0764 17.0025 72.6022 17.2664 72.1068 17.5346C71.6115 17.8029 71.1087 18.0617 70.5984 18.3109C70.0965 18.5474 69.6103 18.753 69.1397 18.9279L69.1802 18.3235C69.2625 18.2954 69.3871 18.2586 69.5539 18.2129C69.7291 18.1545 69.9328 18.1012 70.1652 18.053C70.2919 18.0268 70.4706 18.0118 70.7012 18.0082C70.9422 18.0023 71.1941 18.0219 71.4567 18.0667C71.7299 18.1094 71.9948 18.1925 72.2516 18.3158C72.5168 18.4265 72.7378 18.5903 72.9149 18.8074C73.1024 19.0224 73.2248 19.2951 73.282 19.6254C73.346 20.0425 73.2855 20.4689 73.1 20.9047C72.9252 21.3383 72.673 21.7438 72.3434 22.1212C72.0138 22.4986 71.6457 22.8232 71.2393 23.0951C70.8307 23.3565 70.4309 23.5276 70.0401 23.6087ZM79.9781 21.5317C79.7246 21.5842 79.5038 21.4755 79.3159 21.2054C79.1279 20.9353 79.0309 20.4918 79.0247 19.875C79.0186 19.5783 79.0293 19.1236 79.0569 18.5108C79.0825 17.8875 79.1784 17.2053 79.3448 16.4644C79.5379 15.5856 79.7289 14.8838 79.9179 14.3589C80.1048 13.8235 80.3137 13.4215 80.5446 13.1528C80.7755 12.8842 81.0336 12.7204 81.3187 12.6612C81.5405 12.6153 81.7281 12.6702 81.8814 12.826C82.0453 12.9797 82.1799 13.178 82.2852 13.4211C82.3904 13.6641 82.4851 13.9094 82.5692 14.1569C82.6814 14.4868 82.8118 14.8516 82.9604 15.2512C83.1196 15.6487 83.2851 16.0503 83.457 16.4562C83.6395 16.8599 83.8282 17.2402 84.0231 17.5971C84.2284 17.9519 84.4377 18.2451 84.6507 18.4769L84.1067 18.7221C84.2883 18.0553 84.4912 17.3842 84.7152 16.7086C84.9392 16.033 85.1686 15.3839 85.4036 14.7613C85.6385 14.1386 85.8643 13.5786 86.081 13.0811C86.325 12.5559 86.5435 12.174 86.7366 11.9353C86.9402 11.6944 87.137 11.5543 87.3276 11.5148C87.4642 11.4864 87.5981 11.4919 87.7267 11.5313C87.8543 11.5601 87.9676 11.6028 88.0673 11.6594C88.2076 11.7517 88.3271 11.876 88.4251 12.0322C88.5239 12.1884 88.5869 12.4402 88.6147 12.7877C88.6767 13.5695 88.7549 14.2706 88.8502 14.891C88.9536 15.4987 89.0534 16.0078 89.1495 16.4184C89.3104 17.1465 89.4839 17.7177 89.6682 18.1319C89.8632 18.544 89.9585 18.8168 89.9531 18.9504C89.9603 19.0923 89.909 19.2188 89.8003 19.3298C89.7032 19.4491 89.5702 19.5263 89.4012 19.5613C89.1477 19.6139 88.9113 19.536 88.692 19.3276C88.4835 19.117 88.3154 18.8097 88.1878 18.4056C88.0673 18.0334 87.9361 17.5584 87.795 16.9807C87.6638 16.4007 87.5451 15.7465 87.4391 15.0181C87.3411 14.2768 87.271 13.5078 87.2269 12.711L87.6638 12.5047C87.4867 12.9276 87.2889 13.4101 87.0704 13.9521C86.8602 14.4813 86.6439 15.0339 86.4214 15.6098C86.2094 16.1836 86.0069 16.7498 85.8139 17.3086C85.6314 17.8651 85.4751 18.3887 85.3451 18.8792C85.2705 19.1044 85.1659 19.2917 85.0315 19.4409C84.9077 19.588 84.7454 19.6824 84.5447 19.724C84.2913 19.7765 84.068 19.7621 83.8749 19.6807C83.6903 19.5865 83.518 19.4457 83.3581 19.2581C83.2066 19.0577 83.0613 18.834 82.9222 18.5869C82.8494 18.4474 82.7486 18.2532 82.6201 18.0038C82.4893 17.744 82.352 17.4524 82.2081 17.129C82.0642 16.8057 81.9213 16.4601 81.7792 16.0921C81.6372 15.7243 81.5068 15.3595 81.388 14.9978C81.2672 14.6255 81.1729 14.2753 81.1051 13.9472L81.5542 13.7217C81.3021 14.3147 81.0902 14.8884 80.9182 15.4428C80.7569 15.995 80.6358 16.5554 80.5549 17.1241C80.4825 17.68 80.4452 18.2727 80.4429 18.9022C80.4436 19.3325 80.4546 19.7055 80.4757 20.0212C80.5075 20.3347 80.5238 20.5741 80.5249 20.7395C80.5198 20.9282 80.4775 21.097 80.3982 21.2459C80.3188 21.3948 80.1788 21.4901 79.9781 21.5317ZM7.10067 51.3575C6.84711 51.41 6.62879 51.3394 6.44561 51.1456C6.26242 50.9518 6.11452 50.6623 6.00198 50.2773C5.89782 49.8796 5.84282 49.3998 5.83698 48.8381C5.84791 48.2508 5.90308 47.7979 6.00252 47.4793C6.11033 47.1479 6.25892 46.9074 6.4483 46.7578C6.5514 46.6701 6.70744 46.5992 6.9165 46.5448C7.12341 46.4798 7.343 46.4232 7.57534 46.3751C8.34645 46.2152 9.09922 46.0206 9.83392 45.791C10.5769 45.5486 11.2888 45.2354 11.9694 44.8515L12.4808 45.8879C11.9753 46.2134 11.4166 46.4948 10.8047 46.732C10.1928 46.9692 9.56382 47.1769 8.91765 47.355C8.27994 47.5204 7.6548 47.6666 7.04216 47.7936L6.09375 47.8412C6.10213 47.1882 6.10923 46.5024 6.11505 45.7838C6.12088 45.0652 6.12088 44.4251 6.11504 43.8634C6.10485 43.6006 6.14674 43.3767 6.24067 43.1917C6.33469 43.0066 6.46089 42.8977 6.61926 42.8648C6.88334 42.81 7.10058 42.8754 7.27109 43.0608C7.43935 43.2356 7.52186 43.5552 7.51854 44.0194C7.52438 44.261 7.5189 44.5546 7.50218 44.9003C7.48537 45.2459 7.46668 45.6085 7.44591 45.988C7.43567 46.3654 7.42218 46.7269 7.40547 47.0726C7.39711 47.4054 7.3936 47.6821 7.39513 47.9025C7.39513 48.5427 7.41364 49.1127 7.45086 49.6128C7.49634 50.1 7.52312 50.4697 7.53112 50.7219C7.53004 50.8766 7.48654 51.0125 7.40061 51.1297C7.32736 51.2553 7.22741 51.3312 7.10067 51.3575ZM12.5666 50.2243C12.3026 50.279 12.0807 50.1649 11.9011 49.8821C11.7322 49.597 11.5983 49.1888 11.4996 48.6574C11.4093 48.1132 11.3609 47.5052 11.3543 46.8333C11.3557 45.7734 11.3745 44.9307 11.4106 44.3052C11.455 43.6668 11.5098 43.1588 11.575 42.781C11.6114 42.5306 11.6745 42.3024 11.7641 42.0961C11.8536 41.89 11.9882 41.7682 12.1677 41.731C12.4002 41.6828 12.5868 41.76 12.7277 41.9626C12.8771 42.1524 12.9517 42.4073 12.9518 42.7274C12.9565 43.1237 12.9255 43.5606 12.8588 44.0379C12.8028 44.5132 12.7807 45.02 12.7928 45.5582C12.7971 46.2196 12.8265 46.8151 12.8807 47.3447C12.9433 47.8614 13.0054 48.2955 13.067 48.647C13.1286 48.9985 13.1557 49.2632 13.1484 49.4414C13.1561 49.6384 13.1032 49.8094 12.99 49.9543C12.8767 50.0992 12.7356 50.1892 12.5666 50.2243ZM17.3618 49.2135C16.8759 49.3142 16.4558 49.28 16.1014 49.1106C15.7576 48.9391 15.4849 48.6589 15.2835 48.2702C15.0927 47.8794 14.9944 47.4031 14.9885 46.8414C14.9787 46.3136 15.048 45.7694 15.1967 45.2088C15.3536 44.6355 15.5753 44.0818 15.8616 43.5479C16.1456 43.0033 16.4787 42.5094 16.8608 42.0659C17.2512 41.6097 17.6792 41.2285 18.1446 40.9223C18.6206 40.6139 19.1175 40.406 19.635 40.2987C19.8779 40.2484 20.0811 40.2724 20.2447 40.371C20.4082 40.4695 20.4898 40.6513 20.4894 40.9162C20.4946 41.0477 20.4594 41.1709 20.384 41.2858C20.3064 41.3902 20.1801 41.4715 20.0049 41.53C19.2873 41.7891 18.6554 42.196 18.1091 42.7508C17.5734 43.3033 17.1565 43.9251 16.8585 44.616C16.569 45.2941 16.4233 45.9755 16.4215 46.6601C16.4215 46.9802 16.4478 47.2673 16.5002 47.5213C16.5504 47.7647 16.6688 48.0713 16.8553 48.4411L16.0271 47.4704C16.2675 47.6744 16.4693 47.7982 16.6324 47.8416C16.8061 47.8828 17.0356 47.8739 17.3208 47.8147C17.9967 47.6746 18.5937 47.0983 19.1116 46.0859C19.6295 45.0735 20.0127 43.6751 20.2611 41.8907C20.2935 41.6743 20.3622 41.5001 20.4671 41.3679C20.5803 41.223 20.7267 41.132 20.9062 41.0948C21.1492 41.0443 21.3559 41.1119 21.5263 41.2973C21.7052 41.4699 21.8168 41.7171 21.8612 42.039C21.9567 42.7147 22.0601 43.3223 22.1716 43.8621C22.2914 44.3891 22.4522 44.8745 22.654 45.3184C22.8663 45.76 23.1664 46.2 23.5544 46.6382C23.6396 46.7309 23.6911 46.8472 23.709 46.987C23.7374 47.1246 23.7277 47.2645 23.68 47.4069C23.6428 47.547 23.5749 47.6715 23.4762 47.7802C23.3858 47.8762 23.2667 47.9396 23.1189 47.9702C22.9605 48.0031 22.8272 47.9976 22.719 47.9538C22.6214 47.9078 22.5289 47.8332 22.4414 47.7299C22.2368 47.4853 22.0447 47.2216 21.8651 46.9388C21.6855 46.656 21.5183 46.3264 21.3636 45.9501C21.2171 45.561 21.0935 45.0955 20.9926 44.5535C20.8917 44.0116 20.8123 43.3603 20.7544 42.5997L21.3215 42.4655C21.1914 43.5963 20.9906 44.5705 20.7189 45.3884C20.445 46.1957 20.1216 46.8698 19.7486 47.4107C19.3841 47.9388 18.9954 48.3506 18.5828 48.6458C18.1701 48.941 17.7631 49.1303 17.3618 49.2135ZM26.171 47.3871C25.9176 47.4397 25.7034 47.3627 25.5285 47.156C25.3643 46.9473 25.2554 46.6332 25.2018 46.2139C25.1753 46.0318 25.1556 45.7765 25.1429 45.448C25.1301 45.1195 25.1203 44.7518 25.1134 44.3449C25.1042 43.9273 25.0951 43.5098 25.0861 43.0923C25.0875 42.6726 25.0849 42.2868 25.0784 41.935C25.0824 41.581 25.0847 41.299 25.0855 41.0892C25.0774 40.5169 25.137 40.0852 25.2641 39.7939C25.3996 39.4898 25.6414 39.2742 25.9896 39.1468C26.3167 39.0238 26.6682 38.9123 27.0441 38.8123C27.4283 38.6996 27.8105 38.6037 28.1908 38.5249C28.6132 38.4373 29.0507 38.3686 29.503 38.319C29.9532 38.2588 30.2979 38.248 30.5372 38.2868C30.6749 38.3133 30.781 38.3741 30.8557 38.4691C30.9282 38.5534 30.9659 38.6559 30.9688 38.7767C30.9702 38.9971 30.8699 39.178 30.6678 39.3192C30.4656 39.4605 30.2379 39.5574 29.9843 39.6099C29.7626 39.6559 29.5597 39.6869 29.3757 39.703C29.1918 39.719 28.9932 39.7437 28.7797 39.7769C28.5641 39.7996 28.282 39.8469 27.9335 39.9193C27.511 40.0068 27.1562 40.1025 26.8692 40.2061C26.5822 40.3098 26.2626 40.4422 25.9105 40.6035L26.5819 39.9346C26.5319 40.3864 26.4919 40.8859 26.4616 41.433C26.442 41.9779 26.4358 42.6413 26.4431 43.4235C26.4445 43.964 26.4617 44.4737 26.4944 44.9525C26.5251 45.4208 26.5573 45.817 26.5911 46.1411C26.625 46.4651 26.6412 46.6771 26.6398 46.7767C26.6431 46.9526 26.5995 47.0885 26.5092 47.1845C26.4211 47.2911 26.3084 47.3586 26.171 47.3871ZM35.796 45.3087C35.2891 45.4138 34.8312 45.4371 34.4226 45.3783C34.0139 45.3195 33.6863 45.1998 33.4398 45.0192C33.1932 44.8385 33.0659 44.622 33.0579 44.3699C33.0633 44.2363 33.0985 44.1132 33.1634 44.0004C33.2282 43.8875 33.3292 43.8169 33.4666 43.7885C33.5722 43.7666 33.6727 43.7733 33.7681 43.8087C33.8636 43.8441 33.977 43.8868 34.1085 43.9368C34.24 43.9869 34.4232 44.0206 34.658 44.0381C34.8908 44.0451 35.1973 44.0091 35.5775 43.9303C36.1691 43.8076 36.6518 43.5585 37.0258 43.183C37.4083 42.7946 37.5897 42.2328 37.57 41.4974C37.5729 40.978 37.4853 40.5271 37.3072 40.1446C37.1375 39.7493 36.9005 39.4288 36.5965 39.1828C36.2901 38.9262 35.9304 38.7579 35.5174 38.678C35.1044 38.598 34.655 38.6085 34.1691 38.7092C33.9262 38.7595 33.6834 38.8375 33.4408 38.9429C33.1983 39.0485 32.9819 39.1209 32.7918 39.1604C32.6757 39.1844 32.5646 39.1798 32.4586 39.1467C32.3504 39.1028 32.2696 39.0313 32.216 38.932C32.1624 38.8328 32.1353 38.728 32.1346 38.6178C32.139 38.3188 32.2843 38.0625 32.5706 37.8486C32.8652 37.622 33.3452 37.4397 34.0107 37.3017C34.7184 37.155 35.3719 37.1464 35.9714 37.2759C36.5814 37.4034 37.1119 37.6521 37.5629 38.0221C38.0116 38.3816 38.3627 38.8552 38.6162 39.4428C38.878 40.0176 39.0115 40.6908 39.0166 41.4623C39.0221 41.9689 38.9427 42.4379 38.7785 42.8693C38.6248 43.2985 38.4062 43.6805 38.1228 44.0152C37.8373 44.3392 37.4975 44.6139 37.1034 44.839C36.7072 45.0537 36.2714 45.2102 35.796 45.3087ZM32.9121 50.145C32.7853 50.1713 32.6679 50.1625 32.5596 50.1187C32.4643 50.0833 32.3887 50.0107 32.333 49.9008C32.2772 49.7909 32.2488 49.6534 32.2477 49.488C32.2467 49.3228 32.2741 49.1625 32.3303 49.0074C32.3779 48.865 32.4297 48.6888 32.4854 48.4785C32.5433 48.2789 32.5955 48.0252 32.6421 47.7175C32.6888 47.4099 32.7115 47.0134 32.7105 46.528C32.7094 45.7224 32.6343 44.9323 32.4854 44.1575C32.3364 43.3826 32.18 42.5983 32.016 41.8045C31.8605 40.9979 31.7737 40.1771 31.7555 39.3421C31.7537 39.0665 31.803 38.8521 31.9035 38.6988C32.0124 38.5327 32.1619 38.43 32.352 38.3906C32.521 38.3556 32.6704 38.3853 32.8 38.4798C32.938 38.5616 33.0479 38.6933 33.1295 38.8751C33.2089 39.0462 33.2451 39.2484 33.2382 39.4816C33.2426 40.143 33.2879 40.7627 33.3742 41.3408C33.4689 41.9062 33.572 42.4587 33.6834 42.9986C33.8054 43.5361 33.9117 44.077 34.002 44.6211C34.0922 45.1653 34.1383 45.7352 34.1401 46.3308C34.1522 46.8692 34.1332 47.3643 34.0833 47.8161C34.0334 48.268 33.9546 48.6596 33.8468 48.9909C33.7496 49.3201 33.6222 49.5839 33.4649 49.782C33.3182 49.978 33.1339 50.099 32.9121 50.145ZM43.1072 43.8757C42.6214 43.9764 42.2012 43.9422 41.8469 43.7728C41.5031 43.6013 41.2305 43.3212 41.029 42.9324C40.8381 42.5416 40.7398 42.0653 40.7339 41.5036C40.7241 40.9759 40.7935 40.4317 40.9421 39.8711C41.0991 39.2977 41.3207 38.744 41.607 38.2101C41.8911 37.6656 42.2242 37.1716 42.6062 36.7281C42.9967 36.2719 43.4246 35.8908 43.8901 35.5845C44.3661 35.2761 44.8629 35.0682 45.3804 34.961C45.6234 34.9106 45.8266 34.9347 45.9901 35.0332C46.1537 35.1317 46.2352 35.3135 46.2349 35.5785C46.24 35.7099 46.2048 35.8331 46.1294 35.948C46.0519 36.0524 45.9255 36.1338 45.7503 36.1922C45.0328 36.4513 44.4009 36.8583 43.8546 37.413C43.3188 37.9656 42.902 38.5873 42.604 39.2783C42.3145 39.9563 42.1688 40.6378 42.1669 41.3224C42.1669 41.6425 42.1932 41.9295 42.2457 42.1835C42.2959 42.427 42.4143 42.7336 42.6008 43.1033L41.7725 42.1326C42.0129 42.3366 42.2147 42.4604 42.3779 42.5038C42.5516 42.5451 42.781 42.5361 43.0662 42.477C43.7422 42.3368 44.3391 41.7606 44.857 40.7481C45.375 39.7357 45.7581 38.3373 46.0066 36.5529C46.0389 36.3365 46.1076 36.1623 46.2125 36.0302C46.3257 35.8853 46.4722 35.7942 46.6517 35.757C46.8947 35.7066 47.1013 35.7741 47.2718 35.9596C47.4506 36.1321 47.5623 36.3795 47.6067 36.7013C47.7021 37.3769 47.8056 37.9846 47.917 38.5244C48.0368 39.0514 48.1976 39.5367 48.3994 39.9806C48.6118 40.4222 48.9119 40.8622 49.2998 41.3005C49.385 41.3932 49.4366 41.5094 49.4544 41.6492C49.4828 41.7869 49.4732 41.9268 49.4254 42.0691C49.3883 42.2093 49.3204 42.3338 49.2217 42.4425C49.1313 42.5385 49.0122 42.6018 48.8644 42.6324C48.7059 42.6653 48.5726 42.6598 48.4645 42.616C48.3669 42.57 48.2743 42.4954 48.1869 42.3921C47.9823 42.1476 47.7901 41.8839 47.6105 41.601C47.431 41.3182 47.2638 40.9887 47.1091 40.6124C46.9626 40.2233 46.839 39.7578 46.738 39.2158C46.6372 38.6738 46.5578 38.0225 46.4998 37.262L47.0669 37.1278C46.9369 38.2585 46.736 39.2328 46.4643 40.0507C46.1905 40.858 45.8671 41.5321 45.4941 42.073C45.1295 42.6011 44.7409 43.0128 44.3283 43.308C43.9156 43.6033 43.5086 43.7925 43.1072 43.8757ZM51.2421 41.262C51.3139 40.916 51.415 40.5253 51.5453 40.0899C51.6736 39.6439 51.8143 39.1787 51.9677 38.6944C52.1315 38.208 52.2976 37.732 52.4659 37.2666C52.6425 36.7886 52.8121 36.356 52.9746 35.9692C53.1913 35.4718 53.4134 35.0008 53.641 34.5562C53.8687 34.1117 54.0957 33.7445 54.3223 33.4547C54.5572 33.1522 54.775 32.9801 54.9757 32.9385C55.1869 32.8947 55.3903 32.9463 55.5859 33.0934C55.7921 33.2383 56.0012 33.504 56.2131 33.8905C56.3588 34.1694 56.5262 34.5265 56.7152 34.9619C56.9042 35.3973 57.0968 35.8762 57.2927 36.3984C57.4864 36.9101 57.6654 37.4304 57.8298 37.9592C57.994 38.4881 58.1283 38.979 58.2329 39.4318L56.865 39.8479C56.7495 39.3421 56.5988 38.7994 56.4131 38.2198C56.2357 37.6275 56.0416 37.0607 55.8307 36.5194C55.6198 35.9781 55.419 35.5121 55.2281 35.1212C55.0351 34.7198 54.8652 34.4569 54.7184 34.3328L55.3101 34.0778C55.0464 34.5077 54.7746 35.0055 54.4949 35.5712C54.2258 36.1348 53.9854 36.7309 53.7738 37.3598C53.6161 37.8229 53.4699 38.2616 53.3351 38.6759C53.2003 39.0901 53.0793 39.4905 52.9719 39.8769C52.8727 40.2506 52.7759 40.635 52.6812 41.0299L51.2421 41.262ZM58.7284 42.8721C58.5172 42.9159 58.3381 42.8757 58.1913 42.7516C58.0446 42.6276 57.9737 42.4711 57.9789 42.2824C57.9737 42.1511 58.003 41.9463 58.0669 41.6682C58.1327 41.4006 58.1963 41.095 58.2575 40.7512C58.3187 40.4074 58.3459 40.0596 58.3395 39.7078L59.077 40.3992C58.9247 40.4087 58.688 40.4357 58.3667 40.4802C58.0561 40.5226 57.6631 40.593 57.1878 40.6915C56.628 40.8076 56.0534 40.9323 55.4641 41.0655C54.8854 41.1964 54.313 41.3317 53.7471 41.4712C53.1916 41.6083 52.6648 41.7507 52.1665 41.8982C51.6683 42.0456 51.2145 42.1949 50.8051 42.346L51.3083 41.6622C51.3156 41.8041 51.3294 41.9779 51.3498 42.1833C51.3701 42.3889 51.3958 42.5932 51.4269 42.7965C51.4599 43.0104 51.4876 43.1978 51.5098 43.3587C51.5426 43.5175 51.5655 43.6287 51.5787 43.6922C51.6053 43.8743 51.5703 44.025 51.4738 44.1443C51.3795 44.2743 51.2425 44.3579 51.063 44.3951C50.8095 44.4477 50.6144 44.3833 50.4779 44.2019C50.3413 44.0205 50.2445 43.7921 50.1877 43.517C50.1423 43.3498 50.1027 43.1318 50.0692 42.8627C50.0357 42.5938 50.0195 42.3819 50.0205 42.2272C50.0278 42.049 50.0606 41.8877 50.1189 41.7433C50.1645 41.5903 50.2513 41.4509 50.3795 41.325C50.5077 41.1991 50.6836 41.0908 50.9072 41.0004C51.1626 40.9033 51.5087 40.7929 51.9458 40.6691C52.3912 40.5326 52.8917 40.3957 53.4472 40.2586C54.0109 40.1085 54.5927 39.9658 55.1926 39.8304C55.7903 39.6844 56.3638 39.5545 56.913 39.4406C57.1876 39.3836 57.4897 39.3265 57.8193 39.2692C58.1468 39.2013 58.468 39.1568 58.783 39.1357C59.0959 39.1039 59.3215 39.1565 59.46 39.2933C59.6089 39.428 59.6866 39.6712 59.6932 40.0231C59.6951 40.2986 59.6737 40.5955 59.6293 40.9138C59.5849 41.232 59.515 41.5335 59.4195 41.8182C59.3368 42.1113 59.2326 42.3536 59.107 42.5452C58.9919 42.7347 58.8657 42.8435 58.7284 42.8721ZM62.9269 39.7665C62.441 39.8673 62.0209 39.833 61.6665 39.6637C61.3227 39.4921 61.0501 39.212 60.8486 38.8233C60.6578 38.4324 60.5595 37.9561 60.5537 37.3945C60.5439 36.8667 60.6132 36.3225 60.7618 35.762C60.9188 35.1886 61.1404 34.6349 61.4267 34.101C61.7107 33.5564 62.0438 33.0624 62.4259 32.619C62.8164 32.1628 63.2443 31.7815 63.7097 31.4754C64.1858 31.167 64.6826 30.9591 65.2001 30.8518C65.443 30.8014 65.6462 30.8255 65.8098 30.9241C65.9733 31.0226 66.0549 31.2044 66.0546 31.4694C66.0597 31.6007 66.0246 31.7239 65.9491 31.8388C65.8716 31.9432 65.7452 32.0246 65.57 32.083C64.8525 32.3421 64.2206 32.7491 63.6742 33.3039C63.1385 33.8565 62.7216 34.4781 62.4238 35.169C62.1342 35.8472 61.9885 36.5285 61.9867 37.2132C61.9867 37.5333 62.0129 37.8204 62.0653 38.0744C62.1156 38.3178 62.2339 38.6243 62.4204 38.9941L61.5923 38.0235C61.8326 38.2275 62.0344 38.3512 62.1975 38.3947C62.3713 38.4358 62.6007 38.4269 62.8859 38.3678C63.5619 38.2277 64.1589 37.6513 64.6768 36.639C65.1947 35.6265 65.5778 34.2282 65.8262 32.4438C65.8586 32.2274 65.9273 32.0531 66.0322 31.921C66.1454 31.776 66.2919 31.685 66.4715 31.6478C66.7143 31.5974 66.921 31.665 67.0915 31.8503C67.2703 32.023 67.382 32.2702 67.4264 32.5922C67.5218 33.2677 67.6253 33.8754 67.7367 34.4151C67.8565 34.9421 68.0173 35.4276 68.2191 35.8714C68.4314 36.313 68.7316 36.753 69.1195 37.1913C69.2047 37.284 69.2562 37.4002 69.2741 37.54C69.3025 37.6776 69.2928 37.8176 69.2451 37.9599C69.2079 38.1001 69.1401 38.2245 69.0413 38.3333C68.951 38.4293 68.832 38.4926 68.684 38.5233C68.5256 38.5561 68.3923 38.5507 68.2841 38.5068C68.1865 38.4609 68.094 38.3862 68.0066 38.2829C67.8019 38.0384 67.6098 37.7747 67.4302 37.4919C67.2506 37.209 67.0835 36.8794 66.9287 36.5031C66.7823 36.1141 66.6586 35.6486 66.5577 35.1066C66.4569 34.5647 66.3774 33.9134 66.3195 33.1527L66.8866 33.0186C66.7566 34.1493 66.5558 35.1235 66.284 35.9415C66.0102 36.7488 65.6867 37.4229 65.3138 37.9638C64.9492 38.4919 64.5605 38.9036 64.1479 39.1988C63.7352 39.4941 63.3282 39.6834 62.9269 39.7665ZM71.5508 37.9951C71.2974 38.0477 71.0766 37.9389 70.8886 37.6688C70.7007 37.3988 70.6036 36.9554 70.5974 36.3386C70.6004 36.1393 70.605 35.8679 70.6111 35.5244C70.6173 35.181 70.6412 34.7897 70.6827 34.3507C70.7326 33.8989 70.8109 33.4246 70.9176 32.9279C71.1107 32.049 71.3017 31.3472 71.4907 30.8224C71.6776 30.2869 71.8864 29.8849 72.1174 29.6164C72.3483 29.3477 72.6063 29.1838 72.8914 29.1247C73.1133 29.0787 73.3008 29.1337 73.4542 29.2895C73.618 29.4432 73.7527 29.6415 73.8579 29.8846C73.9632 30.1277 74.0578 30.3729 74.142 30.6204C74.2541 30.9503 74.3846 31.3151 74.5331 31.7147C74.6923 32.1122 74.8579 32.5138 75.0298 32.9196C75.2123 33.3233 75.401 33.7036 75.5958 34.0605C75.8012 34.4153 76.0105 34.7086 76.2235 34.9403L75.6794 35.1856C75.8612 34.5188 76.064 33.8476 76.288 33.172C76.512 32.4965 76.7414 31.8474 76.9763 31.2247C77.2113 30.6021 77.4371 30.042 77.6538 29.5446C77.8978 29.0194 78.1163 28.6375 78.3094 28.3988C78.513 28.1579 78.7098 28.0177 78.8999 27.9784C79.0373 27.9498 79.1706 27.9553 79.2998 27.9948C79.427 28.0236 79.5404 28.0663 79.6402 28.1228C79.7804 28.2152 79.8997 28.3395 79.998 28.4956C80.0963 28.6519 80.1594 28.9037 80.187 29.2511C80.2493 30.0329 80.3281 30.734 80.4231 31.3545C80.5265 31.9621 80.6261 32.4713 80.7219 32.8819C80.8833 33.61 81.0563 34.1811 81.2409 34.5954C81.4361 35.0074 81.5311 35.2803 81.5256 35.4138C81.5329 35.5558 81.4819 35.6822 81.3726 35.7932C81.2761 35.9125 81.1433 35.9897 80.9743 36.0248C80.7208 36.0774 80.4845 35.9995 80.2652 35.791C80.0565 35.5805 79.8884 35.2731 79.761 34.8691C79.64 34.4968 79.5089 34.0218 79.3676 33.4441C79.2368 32.8642 79.1182 32.21 79.0119 31.4815C78.9139 30.7402 78.8433 29.9712 78.8 29.1745L79.2364 28.9681C79.0595 29.3911 78.8617 29.8736 78.6431 30.4156C78.433 30.9448 78.2166 31.4974 77.9942 32.0733C77.7821 32.647 77.5796 33.2133 77.3866 33.7721C77.2042 34.3286 77.0479 34.8522 76.9179 35.3427C76.8432 35.5679 76.7387 35.7551 76.6043 35.9044C76.4804 36.0514 76.3182 36.1458 76.1175 36.1874C75.864 36.2399 75.6408 36.2255 75.4477 36.1442C75.2631 36.05 75.0908 35.9091 74.9309 35.7215C74.7794 35.5212 74.6341 35.2975 74.4949 35.0503C74.4221 34.911 74.3214 34.7166 74.1928 34.4673C74.0621 34.2075 73.9247 33.9159 73.7809 33.5925C73.637 33.2691 73.4941 32.9235 73.352 32.5556C73.21 32.1877 73.0795 31.823 72.9608 31.4612C72.8399 31.089 72.7456 30.7388 72.6779 30.4107L73.1269 30.1851C72.8749 30.7783 72.6629 31.3519 72.491 31.9064C72.3297 32.4585 72.2086 33.019 72.1277 33.5876C72.0552 34.1434 72.0179 34.7362 72.0157 35.3657C72.0164 35.796 72.0274 36.169 72.0485 36.4847C72.0802 36.7982 72.0966 37.0376 72.0977 37.203C72.0925 37.3917 72.0503 37.5605 71.9709 37.7093C71.8916 37.8583 71.7515 37.9535 71.5508 37.9951ZM14.7319 64.3922C13.549 64.6375 12.5736 64.768 11.8058 64.7837C11.0464 64.7866 10.4555 64.6718 10.033 64.4393C9.61047 64.2068 9.30892 63.8665 9.12825 63.4183C8.95595 62.9574 8.86543 62.3856 8.85671 61.7031C8.85815 61.2835 8.86346 60.8022 8.87253 60.2595C8.8817 59.7168 8.89914 59.1614 8.92502 58.593C8.94866 58.0142 8.97257 57.4629 8.99657 56.9392C9.02057 56.4154 9.0461 55.9521 9.07306 55.5492C9.10003 55.1463 9.12771 54.8535 9.15611 54.6711C9.17508 54.3361 9.22838 54.0877 9.3162 53.926C9.41228 53.7515 9.53964 53.6479 9.69802 53.6151C9.8776 53.5778 10.0322 53.6064 10.1619 53.701C10.2894 53.785 10.3875 53.9136 10.4564 54.087C10.523 54.2497 10.5538 54.4254 10.5487 54.6141C10.5542 54.8007 10.5414 55.1123 10.5105 55.5492C10.4773 55.9755 10.4436 56.4792 10.4094 57.0601C10.3857 57.639 10.3613 58.2677 10.3362 58.9462C10.3194 59.6119 10.3154 60.286 10.3241 60.9685C10.3275 61.7845 10.3852 62.3575 10.4973 62.6875C10.6201 63.0152 10.8118 63.2238 11.0726 63.3132C11.2973 63.388 11.5864 63.4275 11.9396 63.4314C12.2908 63.4249 12.6914 63.3914 13.1415 63.3313C13.6001 63.2582 14.0987 63.1659 14.6374 63.0542C15.757 62.8221 16.6663 62.6115 17.3652 62.4225C18.0725 62.2206 18.619 62.0135 19.0047 61.8011C19.3882 61.5781 19.6477 61.3146 19.7832 61.0106C19.8626 60.8617 19.9309 60.6323 19.9881 60.3224C20.0431 60.002 20.0829 59.635 20.1077 59.2215C20.143 58.8058 20.1581 58.3722 20.153 57.9207C20.1509 57.27 20.1255 56.6406 20.0771 56.0325C20.0286 55.4246 19.9742 54.8674 19.9137 54.3612C19.8533 53.855 19.8028 53.424 19.7624 53.0681C19.722 52.7122 19.6992 52.4687 19.6942 52.3373C19.704 52.2249 19.7338 52.1027 19.7837 51.9711C19.8442 51.837 19.9249 51.721 20.0257 51.6228C20.1266 51.5247 20.2457 51.4614 20.383 51.4329C20.5626 51.3956 20.7279 51.4496 20.8791 51.5949C21.0386 51.7274 21.1393 51.9217 21.1812 52.1779C21.2184 52.3579 21.2573 52.6533 21.2981 53.0643C21.3368 53.4647 21.3768 53.9255 21.4183 54.4466C21.4704 54.9656 21.5088 55.4984 21.5336 56.0451C21.5668 56.5791 21.587 57.0772 21.5943 57.5392C21.5946 57.9143 21.5917 58.2736 21.5855 58.6171C21.5793 58.9605 21.5645 59.2892 21.5413 59.6031C21.5157 59.9064 21.4912 60.1874 21.4676 60.4462C21.4417 60.6943 21.4039 60.9118 21.3544 61.0987C21.2411 61.5637 21.009 61.9595 20.6579 62.2861C20.3068 62.6128 19.8539 62.8999 19.2991 63.1473C18.7423 63.3842 18.0763 63.5995 17.3013 63.7933C16.5389 63.9955 15.6825 64.1951 14.7319 64.3922ZM14.5172 63.5924C14.4247 63.0377 14.3495 62.38 14.2916 61.6193C14.242 60.846 14.2216 60.0003 14.2304 59.0825C14.2358 58.6288 14.2474 58.1518 14.2653 57.6514C14.2831 57.151 14.299 56.6676 14.3129 56.2012C14.3245 55.7242 14.3354 55.297 14.3456 54.9196C14.3642 54.5295 14.377 54.2177 14.3839 53.9846C14.3824 53.7641 14.397 53.568 14.4276 53.396C14.456 53.2136 14.5078 53.0648 14.5832 52.9498C14.6565 52.8244 14.7617 52.7474 14.899 52.7188C15.0681 52.6838 15.2174 52.7136 15.3471 52.8081C15.4767 52.9026 15.5792 53.0524 15.6546 53.2575C15.7278 53.4521 15.7642 53.6818 15.7639 53.9468C15.7722 54.5741 15.755 55.3172 15.712 56.176C15.669 57.0348 15.6421 57.9179 15.6311 58.8251C15.622 59.688 15.639 60.4901 15.682 61.2318C15.7354 61.9712 15.8021 62.6141 15.8819 63.1604L14.5172 63.5924ZM30.3109 61.2616C29.9941 61.3272 29.6259 61.3043 29.2063 61.1926C28.7846 61.0704 28.355 60.8835 27.9175 60.632C27.4907 60.3784 27.0859 60.0981 26.703 59.7911C26.3308 59.482 26.0252 59.1756 25.7863 58.872C25.6458 58.7245 25.5454 58.5853 25.4853 58.4542C25.4336 58.3105 25.3988 58.1686 25.381 58.0288C25.3952 57.9376 25.4177 57.8336 25.4487 57.7168C25.4797 57.6 25.5286 57.4906 25.5957 57.3883C25.6875 57.1927 25.857 56.9203 26.1042 56.571C26.3516 56.2217 26.642 55.8414 26.9757 55.4301C27.3177 55.006 27.6757 54.6062 28.0498 54.2306C28.4321 53.8423 28.7991 53.5123 29.1506 53.2408C29.5126 52.9671 29.8362 52.8007 30.1214 52.7415C30.2376 52.7175 30.3328 52.7253 30.4071 52.7651C30.492 52.8027 30.559 52.8605 30.6082 52.9387C30.6574 53.0168 30.6854 53.0992 30.6923 53.1861C30.7298 53.4211 30.6226 53.6752 30.3705 53.9482C30.1185 54.2212 29.842 54.4826 29.5412 54.7327C29.0091 55.1962 28.5446 55.6401 28.1476 56.0646C27.7505 56.4891 27.4357 56.8578 27.203 57.171C26.9808 57.4819 26.8754 57.6914 26.8866 57.7995C26.883 57.8885 26.9409 58.009 27.0603 58.1608C27.1798 58.3126 27.3523 58.4811 27.5777 58.6661C27.8137 58.849 28.0878 59.0294 28.3999 59.2076C28.7226 59.3835 29.0749 59.5422 29.4565 59.6838C29.6835 59.7692 29.904 59.8504 30.1181 59.9274C30.3407 59.9917 30.5221 60.07 30.6623 60.1623C30.8109 60.2418 30.8941 60.3515 30.9119 60.4913C30.9254 60.6099 30.9103 60.7234 30.8666 60.8319C30.8229 60.9402 30.7484 61.0329 30.6432 61.1099C30.5484 61.1848 30.4378 61.2353 30.3109 61.2616ZM25.0319 62.3395C24.7573 62.3965 24.544 62.2972 24.3922 62.0417C24.2381 61.7757 24.1275 61.3736 24.0605 60.8357C24.0019 60.285 23.9678 59.6132 23.9583 58.8205C23.9561 58.4898 23.9613 58.1411 23.9737 57.7743C23.9966 57.4054 24.0195 57.0364 24.0424 56.6673C24.0632 56.2878 24.0703 55.9221 24.0637 55.5702C24.0674 55.4812 24.0658 55.3932 24.0589 55.3064C24.0603 55.2068 24.0564 55.1082 24.0474 55.0108C24.0459 54.7903 24.068 54.6036 24.1134 54.4507C24.159 54.2978 24.2217 54.1744 24.3014 54.0807C24.3896 53.9741 24.4864 53.9098 24.5921 53.8879C24.835 53.8376 25.048 53.9093 25.2312 54.1031C25.4228 54.2841 25.5168 54.5792 25.5132 54.9883C25.515 55.2639 25.4983 55.6095 25.4629 56.0252C25.436 56.4281 25.4059 56.8427 25.3728 57.269C25.3396 57.6953 25.3231 58.0685 25.3231 58.3886C25.3416 58.9586 25.3693 59.4661 25.4061 59.911C25.4534 60.3537 25.5013 60.7191 25.5498 61.0071C25.5961 61.2844 25.6142 61.4793 25.6044 61.5917C25.6095 61.7231 25.5849 61.8441 25.5307 61.9547C25.4848 62.0525 25.4186 62.1324 25.3323 62.1944C25.2588 62.2649 25.1586 62.3132 25.0319 62.3395ZM36.3557 60.0249C35.4895 60.2044 34.7372 60.1618 34.0988 59.8968C33.4709 59.6296 32.9847 59.1951 32.6401 58.5933C32.3039 57.9787 32.1287 57.2369 32.1145 56.368C32.1083 55.7512 32.202 55.1909 32.3953 54.6873C32.5971 54.1708 32.8459 53.7219 33.1416 53.3405C33.4479 52.9569 33.7706 52.6527 34.1097 52.4279C34.4466 52.1924 34.7471 52.0474 35.0111 51.9927C35.1273 51.9685 35.2257 51.9647 35.3062 51.9811C35.3972 51.9954 35.4715 52.0352 35.5291 52.1005C35.595 52.1531 35.6294 52.2397 35.6323 52.3605C35.6232 52.5832 35.5792 52.7965 35.5001 53.0005C35.4189 53.1939 35.234 53.3923 34.9456 53.5956C34.6025 53.8544 34.3219 54.1223 34.1037 54.3992C33.8939 54.6635 33.7393 54.955 33.6399 55.2735C33.5383 55.5816 33.4962 55.938 33.5137 56.3427C33.5217 57.235 33.7641 57.9023 34.2408 58.3443C34.7154 58.7756 35.333 58.9125 36.0934 58.7548C36.8328 58.6015 37.4225 58.2033 37.8625 57.5603C38.3108 56.9044 38.5277 56.1144 38.5131 55.1903C38.5138 54.3403 38.3298 53.7162 37.9613 53.318C37.5905 52.9093 37.0883 52.7706 36.4545 52.902C36.1271 52.9698 35.8603 53.0914 35.6541 53.2666C35.4585 53.4395 35.2506 53.6593 35.0302 53.9257C34.873 54.1239 34.7493 54.2985 34.6593 54.4497C34.5693 54.6007 34.4845 54.7232 34.4048 54.817C34.3334 54.898 34.229 54.9527 34.0917 54.9813C33.9438 55.0119 33.8178 54.9884 33.7136 54.9105C33.6178 54.8201 33.5681 54.6593 33.5644 54.4283C33.5564 54.1761 33.6265 53.9021 33.7749 53.6065C33.9336 53.3088 34.1391 53.0233 34.3911 52.7503C34.6515 52.4645 34.9429 52.2221 35.2652 52.0228C35.5854 51.8129 35.9144 51.6729 36.2524 51.6029C37.0129 51.4452 37.6679 51.497 38.2175 51.7583C38.7649 52.0091 39.1876 52.4291 39.4856 53.0186C39.7813 53.5974 39.9277 54.3065 39.9248 55.146C39.9408 55.9705 39.7999 56.7281 39.5019 57.419C39.2018 58.0993 38.7794 58.6671 38.2345 59.1222C37.7001 59.575 37.0739 59.876 36.3557 60.0249ZM42.0034 58.854C41.8554 58.8847 41.7294 58.8611 41.6253 58.7833C41.5338 58.714 41.4623 58.6074 41.4106 58.4637C41.3483 58.322 41.3208 58.1622 41.3281 57.9841C41.3309 57.7848 41.3789 57.5099 41.4718 57.1596C41.573 56.7965 41.7088 56.3875 41.8793 55.9327C42.0476 55.4674 42.2264 54.9999 42.4157 54.5302C42.6219 54.0349 42.8344 53.5438 43.0534 53.057C43.2806 52.5573 43.5019 52.1086 43.7172 51.7108C43.9302 51.3024 44.111 50.978 44.2596 50.7374C44.4942 50.3797 44.7292 50.1047 44.9649 49.9124C45.2089 49.7073 45.4683 49.5763 45.7428 49.5193C45.9964 49.4668 46.1892 49.5206 46.3214 49.6808C46.4515 49.8305 46.5702 50.0321 46.6776 50.2858C46.7873 50.55 46.9014 50.8629 47.0202 51.2247C47.1389 51.5863 47.2651 51.9575 47.3988 52.3382C47.5303 52.7083 47.6701 53.0656 47.8183 53.4101C47.9947 53.8371 48.1525 54.2017 48.292 54.5039C48.4421 54.8039 48.577 55.0574 48.6968 55.2643C48.8273 55.4691 48.9458 55.6432 49.0525 55.7866C49.1549 55.9089 49.2381 56.0185 49.3022 56.1156C49.3663 56.2127 49.4051 56.3205 49.4186 56.4391C49.4364 56.5789 49.4215 56.7199 49.3738 56.8623C49.326 57.0047 49.2507 57.1196 49.1476 57.2072C49.0573 57.3032 48.9435 57.3655 48.8061 57.3939C48.6054 57.4355 48.4063 57.3774 48.2084 57.2198C48.019 57.0493 47.8313 56.8069 47.6452 56.4922C47.4591 56.1776 47.278 55.8344 47.1021 55.4625C46.9991 55.23 46.8638 54.9214 46.6962 54.5368C46.537 54.1393 46.3713 53.7101 46.1991 53.2491C46.0246 52.7776 45.8651 52.325 45.7205 51.8914C45.5864 51.4557 45.4835 51.0907 45.4118 50.7966L45.7549 50.8579C45.516 51.1944 45.2659 51.6104 45.0048 52.1061C44.7521 52.5889 44.4933 53.1227 44.2285 53.7073C43.9742 54.2899 43.7296 54.8924 43.4948 55.5151C43.2704 56.1355 43.0725 56.7505 42.9009 57.36C42.7538 57.8209 42.6175 58.1747 42.4923 58.4215C42.3775 58.6661 42.2146 58.8102 42.0034 58.854ZM53.263 56.5195C52.7666 56.6225 52.3348 56.585 51.9677 56.4073C51.6005 56.2296 51.3151 55.941 51.1115 55.5418C50.9058 55.1319 50.7967 54.6303 50.7843 54.0369C50.7752 53.2992 50.7674 52.5945 50.7608 51.9226C50.7521 51.2401 50.7419 50.6572 50.7303 50.174C50.7291 49.6886 50.7291 49.3685 50.7303 49.2138C50.7251 49.0824 50.7433 48.9572 50.7848 48.8382C50.837 48.717 50.9092 48.6137 51.0017 48.5283C51.0943 48.443 51.1986 48.3882 51.3148 48.3641C51.5577 48.3137 51.7624 48.3982 51.9289 48.6176C52.1058 48.8348 52.2008 49.1076 52.2135 49.4361C52.2114 49.7455 52.1947 50.1187 52.1638 50.5555C52.1434 50.9902 52.1397 51.3994 52.1528 51.783C52.1474 51.9166 52.1401 52.0946 52.131 52.3173C52.1303 52.5271 52.1253 52.7434 52.1163 52.966C52.1155 53.1759 52.1146 53.3582 52.1136 53.5129C52.1132 54.0979 52.2039 54.5372 52.3856 54.8307C52.5674 55.1241 52.8377 55.2335 53.1969 55.1591C53.3975 55.1175 53.6085 55.0186 53.8295 54.8624C54.0611 54.704 54.2757 54.516 54.4731 54.2985C54.6683 54.0704 54.8244 53.8394 54.9413 53.6054C55.0582 53.3714 55.0981 53.1646 55.0609 52.9846C55.0147 52.7073 54.8949 52.5003 54.7015 52.3638C54.5186 52.2251 54.2737 52.1324 53.9667 52.0857C53.7929 52.0445 53.5727 52.0183 53.3061 52.0074C53.0395 51.9965 52.7582 51.9941 52.462 52.0003C52.1638 51.9959 51.8804 52.0105 51.612 52.0441L51.6683 50.9563C52.0354 50.8139 52.4446 50.6353 52.8958 50.4203C53.3577 50.2032 53.831 49.9616 54.3158 49.6955C54.8005 49.4295 55.2631 49.1624 55.7034 48.8946C56.2028 48.5924 56.6376 48.298 57.008 48.0115C57.389 47.7229 57.7132 47.479 57.9805 47.2802C58.2562 47.0684 58.4891 46.9429 58.6792 46.9035C59.0067 46.8356 59.2778 46.8953 59.4927 47.0825C59.7159 47.2569 59.8278 47.5317 59.8281 47.907C59.8242 48.261 59.819 48.6097 59.8128 48.9531C59.815 49.2838 59.8141 49.6261 59.8101 49.9802C59.8141 50.2663 59.8227 50.6012 59.8358 50.9847C59.8467 51.3578 59.8652 51.7402 59.8909 52.1322C59.9168 52.5242 59.952 52.8811 59.9965 53.203C60.0401 53.4147 60.0829 53.6487 60.1248 53.9048C60.1751 54.1483 60.2017 54.3304 60.2045 54.4512C60.2075 54.5721 60.1818 54.6877 60.1275 54.7983C60.0817 54.8961 60.0103 54.9771 59.9134 55.0414C59.8293 55.114 59.7291 55.1624 59.6129 55.1864C59.3911 55.2325 59.2003 55.1617 59.0404 54.974C58.8888 54.7736 58.7761 54.5211 58.7022 54.2164C58.5929 53.6871 58.5154 53.1514 58.4694 52.609C58.4214 52.0561 58.3933 51.4935 58.3853 50.9212C58.3901 50.6775 58.3893 50.4072 58.3832 50.1105C58.3875 49.8116 58.393 49.5179 58.3995 49.2296C58.4061 48.9413 58.4086 48.6869 58.4072 48.4665C58.4141 48.2333 58.4183 48.0668 58.4197 47.9672L58.8054 48.2349C58.5909 48.4229 58.3057 48.642 57.9499 48.8924C57.6024 49.13 57.2033 49.3838 56.7523 49.6539C56.2992 49.9134 55.8251 50.1772 55.3298 50.4456C54.8344 50.7138 54.3316 50.9725 53.8213 51.2218C53.3194 51.4583 52.8333 51.664 52.3626 51.8388L52.4031 51.2344C52.4854 51.2063 52.61 51.1694 52.7767 51.1239C52.952 51.0654 53.1558 51.0122 53.3881 50.964C53.5148 50.9377 53.6935 50.9227 53.9241 50.919C54.1651 50.9132 54.417 50.9327 54.6796 50.9777C54.9528 51.0204 55.2178 51.1034 55.4745 51.2267C55.7396 51.3373 55.9607 51.5012 56.1377 51.7183C56.3253 51.9333 56.4477 52.206 56.5049 52.5362C56.569 52.9534 56.5083 53.3799 56.323 53.8157C56.1481 54.2493 55.8959 54.6547 55.5663 55.032C55.2367 55.4094 54.8687 55.7341 54.4622 56.0061C54.0535 56.2673 53.6538 56.4385 53.263 56.5195ZM68.8401 47.1974C68.481 47.2719 68.1813 47.2071 67.9408 47.0031C67.7005 46.799 67.58 46.4819 67.5793 46.0516C67.5814 45.7421 67.6654 45.4818 67.8311 45.2709C68.0052 45.0472 68.2559 44.9014 68.5833 44.8335C68.8791 44.7722 69.1268 44.7981 69.3264 44.9113C69.5238 45.0138 69.6697 45.1601 69.764 45.3503C69.8688 45.5382 69.9189 45.7541 69.9142 45.9979C69.9201 46.2395 69.8381 46.4828 69.6684 46.7277C69.4965 46.962 69.2204 47.1186 68.8401 47.1974ZM68.9024 53.2605C68.5327 53.3371 68.2278 53.2735 67.9873 53.0695C67.7448 52.8548 67.6244 52.5652 67.6263 52.2006C67.6113 51.8615 67.712 51.5757 67.9284 51.3433C68.1425 51.1003 68.3869 50.9502 68.6615 50.8933C68.9466 50.8342 69.1827 50.857 69.3695 50.9617C69.5669 51.0642 69.7139 51.2159 69.8104 51.4167C69.9175 51.6152 69.9665 51.8258 69.9574 52.0484C69.9654 52.3006 69.8846 52.5491 69.7148 52.794C69.5534 53.0262 69.2827 53.1817 68.9024 53.2605ZM70.9292 56.9627C70.7918 56.9911 70.6639 56.9846 70.5451 56.943C70.4285 56.912 70.3319 56.8437 70.2551 56.7382C70.1804 56.6433 70.1405 56.5302 70.1353 56.3988C70.1346 56.2886 70.1603 56.1729 70.2124 56.0517C70.2645 55.9306 70.3683 55.7931 70.5238 55.6395C71.1878 54.961 71.7593 54.2079 72.2382 53.3801C72.7171 52.5524 73.0804 51.6713 73.3281 50.737C73.5863 49.8005 73.7175 48.8351 73.7214 47.8409C73.7152 46.584 73.561 45.4902 73.2587 44.5595C72.9648 43.6161 72.5841 42.8396 72.1168 42.2301C71.6474 41.6101 71.1346 41.1535 70.5784 40.8604C70.3343 40.7454 70.1676 40.631 70.078 40.5172C69.9967 40.3905 69.9589 40.2604 69.9643 40.1268C69.9694 39.9381 70.0328 39.7649 70.1545 39.6073C70.2867 39.4474 70.4373 39.3499 70.6062 39.3149C70.7225 39.2909 70.8377 39.289 70.9521 39.3094C71.0664 39.3299 71.2329 39.3892 71.4514 39.4874C71.9228 39.7428 72.3789 40.1118 72.82 40.5943C73.261 41.0768 73.6595 41.673 74.0153 42.3828C74.3712 43.0927 74.6494 43.907 74.8502 44.8256C75.0592 45.7314 75.1663 46.7302 75.1714 47.8218C75.183 48.9452 75.0537 50.026 74.7835 51.0644C74.5238 52.1006 74.1441 53.0622 73.6444 53.9495C73.1469 54.8473 72.5525 55.6493 71.8612 56.3555C71.6533 56.5753 71.4744 56.7227 71.3248 56.7979C71.1773 56.8837 71.0454 56.9385 70.9292 56.9627Z" fill="#7831B2"/>
<path d="M57.5017 75.9206C57.2422 75.4964 56.6888 75.364 56.2655 75.6234C55.8424 75.8837 55.7097 76.4385 55.9692 76.8618L57.5017 75.9206ZM135.816 84.9996C136.312 85.0149 136.727 84.6249 136.743 84.1277L137 76.026C137.015 75.5288 136.626 75.1127 136.13 75.0965C135.633 75.0812 135.219 75.4712 135.203 75.9683L134.975 83.1703L127.787 82.9415C127.291 82.9262 126.876 83.3162 126.861 83.8134C126.845 84.3105 127.235 84.7267 127.731 84.742L135.816 84.9996ZM55.9692 76.8618C57.9167 80.0449 60.3009 81.9678 63.0659 82.9199C65.8073 83.8647 68.8324 83.8224 72.0205 83.2504L71.7034 81.477C68.6749 82.021 65.9908 82.0228 63.6501 81.2167C61.333 80.4186 59.2622 78.7974 57.5017 75.9206L55.9692 76.8618ZM72.0205 83.2504C76.366 82.4695 81.1757 80.669 86.1945 78.8316C91.2474 76.9825 96.5532 75.0785 102.011 74.0084C107.459 72.9401 113.018 72.7113 118.566 74.1877C124.107 75.6612 129.697 78.8514 135.189 84.7158L136.5 83.4828C130.802 77.3986 124.926 74.0156 119.028 72.4464C113.138 70.8795 107.289 71.1378 101.665 72.2407C96.0498 73.3419 90.6191 75.2946 85.5778 77.1401C80.5025 78.9974 75.8605 80.7303 71.7034 81.477L72.0205 83.2504ZM55.9974 77.0239C57.9378 80.1953 60.3187 82.0993 63.0831 83.0243C65.8228 83.9404 68.8463 83.862 72.0318 83.2477L71.6922 81.4788C68.6653 82.0624 65.9856 82.0957 63.6521 81.3157C61.3434 80.5429 59.2812 78.9442 57.5299 76.0818L55.9974 77.0239ZM72.0318 83.2477C76.4004 82.4056 81.2399 80.5186 86.2918 78.5884C91.3777 76.6448 96.7195 74.6407 102.211 73.4788C107.694 72.3188 113.284 72.0086 118.855 73.4275C124.417 74.8443 130.024 77.9994 135.523 83.871L136.834 82.6388C131.125 76.543 125.226 73.1915 119.298 71.6816C113.379 70.1744 107.496 70.5194 101.839 71.7164C96.191 72.9116 90.7252 74.9668 85.6513 76.9051C80.5435 78.8568 75.8715 80.6735 71.6922 81.4788L72.0318 83.2477Z" fill="#7831B2"/>
</svg>
