<svg width="159" height="169" viewBox="0 0 159 169" fill="none" xmlns="http://www.w3.org/2000/svg">
<path d="M10.7906 13.9998C10.3706 14.001 9.90842 13.9244 9.40412 13.7698C8.89975 13.6153 8.38329 13.4008 7.85469 13.1264C7.33807 12.8399 6.84536 12.5113 6.37656 12.1407C5.91976 11.77 5.51689 11.3692 5.16796 10.9382C4.819 10.4952 4.56002 10.046 4.39104 9.59053C4.22203 9.12303 4.18503 8.66109 4.28004 8.20481C4.3749 7.67653 4.60174 7.14187 4.96057 6.60082C5.31938 6.04777 5.78019 5.50042 6.34302 4.95877C6.91783 4.40509 7.57067 3.86918 8.30155 3.35104C9.03241 2.82091 9.82332 2.31459 10.6743 1.8321C11.1057 1.59084 11.4533 1.40383 11.717 1.27105C11.9808 1.13828 12.2086 1.07162 12.4006 1.07106C12.6166 1.07043 12.7787 1.13595 12.887 1.26764C13.0073 1.38729 13.0377 1.5672 12.9782 1.80737C12.9427 2.04748 12.8172 2.26984 12.6016 2.47448C12.3981 2.66707 12.0805 2.878 11.649 3.10726C10.798 3.56575 10.025 4.03601 9.33012 4.51804C8.64709 4.98804 8.05408 5.44577 7.55104 5.89125C7.06001 6.33668 6.67092 6.75782 6.38377 7.15466C6.09661 7.5395 5.92333 7.87601 5.86396 8.16418C5.80471 8.51236 5.86553 8.89023 6.04641 9.29763C6.23926 9.69313 6.54013 10.0942 6.94901 10.501C7.35787 10.8958 7.86867 11.2663 8.48142 11.6125C9.09415 11.9467 9.79072 12.2207 10.5712 12.4344C11.0635 12.589 11.3758 12.7381 11.5082 12.8817C11.6525 13.0253 11.7009 13.2051 11.6533 13.4213C11.6177 13.6134 11.534 13.7576 11.4023 13.854C11.2705 13.9504 11.0666 13.999 10.7906 13.9998ZM2.83462 14.023C2.54662 14.0239 2.33638 13.9105 2.20389 13.6829C2.08339 13.4552 2.03459 13.0834 2.05747 12.5673C2.09233 12.0392 2.19281 11.3369 2.35892 10.4604C2.54887 9.51183 2.76294 8.62325 3.00115 7.79455C3.23933 6.95385 3.45971 6.2032 3.66228 5.54261C3.86485 4.88201 4.0017 4.34761 4.07281 3.9394C4.15596 3.54316 4.20328 3.23102 4.21479 3.00298C4.22627 2.76295 4.2318 2.54693 4.23139 2.35493C4.23097 2.16293 4.25453 1.95886 4.30206 1.74272C4.34954 1.50258 4.43917 1.32832 4.57093 1.21993C4.71467 1.09951 4.88254 1.03902 5.07454 1.03846C5.33854 1.03769 5.52473 1.12715 5.63312 1.30683C5.75351 1.48648 5.82603 1.72627 5.85068 2.0262C5.8753 2.31413 5.86398 2.62616 5.8167 2.9623C5.78141 3.28641 5.73407 3.59254 5.67469 3.88072C5.57981 4.397 5.42509 4.99145 5.21055 5.66408C5.008 6.33668 4.79952 7.03929 4.58511 7.77192C4.37066 8.49255 4.19218 9.19503 4.04966 9.87953C3.93099 10.4918 3.84804 10.9781 3.80082 11.3382C3.7536 11.6983 3.72422 11.9864 3.71269 12.2025C3.70113 12.4065 3.68353 12.5925 3.65989 12.7606C3.64823 12.9166 3.62466 13.1147 3.58918 13.3548C3.54162 13.559 3.45197 13.7212 3.32023 13.8416C3.18849 13.962 3.02662 14.0225 2.83462 14.023ZM16.538 13.965C15.794 13.9672 15.1698 13.867 14.6653 13.6645C14.1729 13.4499 13.7942 13.157 13.5294 12.7858C13.2646 12.4025 13.0956 11.959 13.0226 11.4553C12.9615 10.9514 12.9903 10.3993 13.109 9.79903C13.2397 9.21063 13.4664 8.62197 13.7892 8.03303C14.1239 7.43205 14.5367 6.88484 15.0276 6.3914C15.5305 5.89793 16.0877 5.5063 16.6991 5.21651C17.3224 4.91469 17.9761 4.76278 18.6601 4.76078C19.2961 4.75892 19.8183 4.8594 20.2267 5.06221C20.6472 5.26498 20.9358 5.56414 21.0927 5.95968C21.2615 6.35519 21.2866 6.85312 21.1679 7.45347C21.073 7.94575 20.8759 8.38432 20.5768 8.7692C20.2896 9.14203 19.9243 9.46113 19.4808 9.72643C19.0494 9.97963 18.5638 10.1791 18.0241 10.3246C17.4964 10.4582 16.9326 10.5258 16.3326 10.5276C15.5166 10.53 14.9704 10.4356 14.6939 10.2444C14.4295 10.0531 14.3211 9.83753 14.3685 9.59733C14.3922 9.45323 14.446 9.35113 14.5299 9.29083C14.6137 9.21863 14.7456 9.18223 14.9256 9.18173C15.0576 9.18133 15.2137 9.20483 15.3938 9.25233C15.5859 9.28783 15.8679 9.30493 16.2399 9.30383C16.8399 9.30213 17.3797 9.21653 17.8594 9.04713C18.351 8.87773 18.7525 8.64853 19.0639 8.35962C19.3752 8.05871 19.5725 7.71613 19.6556 7.33188C19.7269 6.97167 19.6783 6.70182 19.5099 6.52231C19.3535 6.34276 19.0413 6.25368 18.5733 6.25504C18.1053 6.25641 17.6556 6.36572 17.224 6.58299C16.8045 6.78821 16.4091 7.07137 16.0379 7.43246C15.6786 7.79351 15.3735 8.2084 15.1225 8.67713C14.8716 9.14583 14.6986 9.63833 14.6037 10.1546C14.5207 10.5869 14.5155 10.9829 14.5883 11.3427C14.6611 11.6905 14.8417 11.9779 15.1302 12.2051C15.4306 12.4202 15.8569 12.527 16.4089 12.5254C17.0329 12.5235 17.5667 12.444 18.0104 12.2867C18.466 12.1173 18.8496 11.9242 19.1611 11.7073C19.4726 11.4904 19.7362 11.3036 19.9519 11.147C20.1676 10.9904 20.3594 10.9118 20.5274 10.9113C20.7314 10.9107 20.8756 10.9883 20.9599 11.1441C21.0562 11.2878 21.0806 11.4797 21.0331 11.7198C20.9857 11.96 20.8242 12.2125 20.5488 12.4773C20.2853 12.73 19.9378 12.9711 19.5063 13.2003C19.0868 13.4295 18.6192 13.6169 18.1036 13.7624C17.5998 13.8959 17.078 13.9634 16.538 13.965ZM29.2672 3.12778C28.7632 3.12926 28.3369 3.0225 27.9885 2.80752C27.64 2.58054 27.3814 2.30529 27.2127 1.98178C27.0439 1.64627 26.9653 1.3285 26.9766 1.02847C26.9999 0.704402 27.0894 0.452142 27.245 0.271682C27.4006 0.091232 27.5924 0.000672062 27.8204 2.06241e-06C28.0004 -0.000527938 28.1326 0.101092 28.217 0.304842C28.3135 0.496562 28.4159 0.712262 28.5244 0.951952C28.6209 1.17967 28.7474 1.3773 28.9037 1.54484C29.0721 1.71235 29.3243 1.79561 29.6603 1.79463C29.8883 1.79396 30.1221 1.72728 30.3618 1.59458C30.6015 1.44988 30.8172 1.29925 31.0089 1.14269C31.2724 0.925922 31.506 0.745232 31.7097 0.600642C31.9134 0.444042 32.1172 0.365452 32.3212 0.364852C32.4652 0.364432 32.5733 0.418112 32.6455 0.525902C32.7297 0.621662 32.748 0.747612 32.7003 0.903742C32.6408 1.11992 32.5093 1.3603 32.3059 1.6249C32.1145 1.87746 31.863 2.1182 31.5515 2.34711C31.24 2.57602 30.8864 2.76305 30.4907 2.90821C30.107 3.05333 29.6992 3.12652 29.2672 3.12778ZM24.8986 13.9586C24.4906 13.9598 24.1664 13.8647 23.926 13.6734C23.6975 13.4821 23.529 13.2306 23.4203 12.9189C23.3116 12.5952 23.2569 12.2474 23.2561 11.8754C23.2672 11.4913 23.3084 11.1192 23.3796 10.759C23.451 10.4468 23.5462 10.0745 23.6652 9.64213C23.7963 9.20983 23.9393 8.75937 24.0943 8.29092C24.2493 7.82246 24.3983 7.38403 24.5415 6.97561C24.6966 6.56715 24.8219 6.24879 24.9174 6.02051C25.0725 5.60005 25.2098 5.27565 25.3293 5.0473C25.4608 4.81891 25.6166 4.70446 25.7966 4.70393C25.9526 4.70348 26.0967 4.75705 26.2289 4.86467C26.3611 4.97228 26.4574 5.11 26.5178 5.27783C26.5902 5.44562 26.6086 5.63156 26.573 5.83567C26.5374 6.02777 26.454 6.30402 26.3228 6.6644C26.1916 7.02479 26.0424 7.42722 25.8754 7.87171C25.7084 8.3162 25.5473 8.76668 25.3923 9.22313C25.2373 9.66763 25.1242 10.0699 25.0529 10.4301C24.9816 10.7543 24.9343 11.0664 24.911 11.3665C24.8876 11.6546 24.9001 11.8945 24.9485 12.0864C24.9969 12.2663 25.0991 12.356 25.2551 12.3555C25.6391 12.3544 26.1244 12.011 26.7109 11.3253C27.3094 10.6395 27.9734 9.69563 28.7028 8.49346C29.0376 7.96447 29.3305 7.47162 29.5816 7.01488C29.8326 6.55815 30.0537 6.1615 30.245 5.82494C30.4362 5.47638 30.6217 5.20584 30.8012 5.01331C30.9808 4.82078 31.1606 4.72426 31.3406 4.72373C31.6166 4.72293 31.8148 4.83035 31.9353 5.046C32.0677 5.24961 32.1283 5.52543 32.1171 5.87347C32.1178 6.18547 32.1066 6.5695 32.0836 7.02557C32.0726 7.48161 32.0616 7.94964 32.0506 8.42967C32.0396 8.89773 32.0406 9.33573 32.0535 9.74363C32.091 10.4395 32.1582 11.0093 32.2552 11.4531C32.3641 11.8847 32.4609 12.2325 32.5454 12.4962C32.63 12.76 32.6665 12.9759 32.6548 13.1439C32.6431 13.2759 32.6014 13.4021 32.5296 13.5223C32.4579 13.6305 32.3681 13.7207 32.2602 13.7931C32.1524 13.8654 32.0325 13.9017 31.9005 13.9021C31.4805 13.9033 31.1799 13.6282 30.9987 13.0767C30.8175 12.5253 30.6779 11.7877 30.5799 10.864C30.555 10.432 30.53 9.97013 30.5049 9.47823C30.4918 8.98623 30.4908 8.49423 30.5017 8.0022C30.5246 7.51013 30.5476 7.05406 30.5707 6.63399L31.0931 6.81246C30.89 7.23306 30.651 7.69576 30.3761 8.20056C30.1012 8.70537 29.7246 9.34843 29.2463 10.1298C28.8397 10.779 28.397 11.3983 27.9183 11.9877C27.4396 12.5651 26.9426 13.0406 26.4274 13.4141C25.9242 13.7756 25.4146 13.9571 24.8986 13.9586ZM38.1242 13.8839C37.2362 13.8865 36.5038 13.7147 35.9271 13.3683C35.3623 13.01 34.9653 12.5191 34.7359 11.8958C34.5185 11.2604 34.493 10.5285 34.6592 9.70003C34.8016 8.99163 35.0582 8.33689 35.4289 7.7358C35.8116 7.12268 36.2784 6.59331 36.8295 6.1477C37.3925 5.69005 38.0037 5.33427 38.6632 5.08034C39.3226 4.82641 40.0004 4.69843 40.6964 4.6964C41.0083 4.69549 41.2845 4.74268 41.5247 4.83798C41.7648 4.92128 41.9391 5.05277 42.0475 5.23245C42.1679 5.4001 42.1983 5.61001 42.1389 5.86219C42.0914 6.09033 42.0018 6.27059 41.87 6.40298C41.7383 6.52336 41.5824 6.58382 41.4024 6.58434C41.2704 6.58473 41.1684 6.56103 41.0963 6.51324C41.0242 6.46545 40.9461 6.41768 40.862 6.36992C40.7899 6.32213 40.6638 6.2985 40.4838 6.29903C39.7998 6.30102 39.1582 6.4769 38.559 6.82665C37.9597 7.1644 37.4506 7.60989 37.0318 8.16312C36.625 8.70431 36.3563 9.28713 36.2256 9.91153C36.1427 10.4157 36.1557 10.8537 36.2645 11.2253C36.3852 11.585 36.6019 11.8664 36.9143 12.0694C37.2387 12.2725 37.6349 12.3733 38.1029 12.372C38.6309 12.3704 39.0508 12.3092 39.3626 12.1883C39.6743 12.0554 39.92 11.9107 40.0996 11.7541C40.2913 11.5976 40.447 11.4591 40.5667 11.3388C40.6864 11.2064 40.8243 11.14 40.9803 11.1396C41.2083 11.1389 41.3644 11.1924 41.4486 11.3002C41.5449 11.4079 41.5693 11.5938 41.5218 11.858C41.4387 12.2542 41.2355 12.6088 40.9121 12.9218C40.5888 13.2227 40.1813 13.4579 39.6897 13.6273C39.21 13.7967 38.6882 13.8823 38.1242 13.8839ZM45.1485 13.8994C44.7405 13.9006 44.4163 13.8055 44.1759 13.6142C43.9475 13.4229 43.7789 13.1714 43.6702 12.8597C43.5615 12.536 43.5068 12.1882 43.506 11.8162C43.5171 11.4322 43.5583 11.06 43.6296 10.6998C43.7009 10.3876 43.7961 10.0153 43.9151 9.58303C44.0462 9.15063 44.1892 8.70021 44.3442 8.23175C44.4992 7.7633 44.6483 7.32486 44.7914 6.91644C44.9465 6.50799 45.0718 6.18962 45.1673 5.96134C45.3224 5.54088 45.4597 5.21648 45.5792 4.98813C45.7107 4.75975 45.8665 4.64529 46.0465 4.64477C46.2025 4.64431 46.3466 4.69789 46.4788 4.8055C46.611 4.91312 46.7073 5.05084 46.7677 5.21866C46.8401 5.38645 46.8585 5.5724 46.8229 5.7765C46.7873 5.96861 46.7039 6.24485 46.5727 6.60524C46.4415 6.96562 46.2924 7.36806 46.1253 7.81255C45.9583 8.25704 45.7973 8.70751 45.6422 9.16393C45.4872 9.60843 45.3741 10.0107 45.3029 10.3709C45.2316 10.6951 45.1842 11.0073 45.1609 11.3074C45.1375 11.5954 45.15 11.8354 45.1984 12.0272C45.2468 12.2071 45.349 12.2968 45.505 12.2963C45.889 12.2952 46.3743 11.9518 46.9608 11.2661C47.5593 10.5803 48.2233 9.63643 48.9527 8.43429C49.2875 7.90531 49.5805 7.41245 49.8315 6.95572C50.0825 6.49898 50.3036 6.10233 50.4949 5.76577C50.6861 5.41721 50.8716 5.14667 51.0511 4.95414C51.2307 4.76162 51.4105 4.66509 51.5905 4.66457C51.8665 4.66376 52.0648 4.77118 52.1852 4.98683C52.3177 5.19045 52.3783 5.46627 52.367 5.8143C52.3677 6.1263 52.3565 6.51034 52.3335 6.96641C52.3225 7.42244 52.3115 7.89047 52.3005 8.37051C52.2896 8.83853 52.2905 9.27653 52.3034 9.68453C52.3409 10.3804 52.4081 10.9502 52.5051 11.3939C52.614 11.8256 52.7108 12.1733 52.7953 12.437C52.8799 12.7008 52.9164 12.9167 52.9047 13.0847C52.893 13.2168 52.8513 13.3429 52.7796 13.4631C52.7078 13.5713 52.618 13.6616 52.5101 13.7339C52.4023 13.8062 52.2824 13.8426 52.1504 13.8429C51.8744 13.8437 51.6461 13.7184 51.4656 13.4669C51.297 13.2154 51.1643 12.8618 51.0673 12.4061C50.9703 11.9504 50.8911 11.4166 50.8298 10.8048C50.8049 10.3729 50.7799 9.91093 50.7548 9.41903C50.7417 8.92703 50.7407 8.43507 50.7516 7.94303C50.7745 7.45096 50.7976 6.99489 50.8207 6.57482L51.343 6.7533C51.1996 7.02972 51.0443 7.32417 50.8769 7.63666C50.7216 7.94912 50.5304 8.30368 50.3032 8.70034C50.0881 9.08493 49.8191 9.54173 49.4962 10.0707C49.0896 10.7199 48.647 11.3392 48.1682 11.9286C47.6895 12.506 47.1925 12.9814 46.6773 13.3549C46.1741 13.7164 45.6645 13.8979 45.1485 13.8994Z" fill="#FFFCFF"/>
<path d="M3.06757 44.0348C2.55157 44.0363 2.1132 43.8695 1.75245 43.5346C1.40371 43.1996 1.13269 42.7443 0.939414 42.1689C0.746134 41.5934 0.636664 40.9337 0.611004 40.1898C0.597344 39.4458 0.673624 38.6716 0.839834 37.8671C0.934764 37.3869 1.02977 36.9426 1.12486 36.5343C1.23195 36.126 1.35105 35.7237 1.48217 35.3273C1.61329 34.9309 1.76234 34.5045 1.92932 34.048C2.10828 33.5795 2.31709 33.0449 2.55575 32.4442C2.63927 32.228 2.74095 32.0837 2.86079 32.0114C2.9806 31.927 3.13651 31.8846 3.32851 31.884C3.47251 31.8836 3.59865 31.9493 3.70695 32.081C3.81521 32.2007 3.87559 32.3685 3.88807 32.5845C3.91255 32.8004 3.8711 33.0465 3.76371 33.3228C3.52513 33.9595 3.32237 34.5181 3.15544 34.9986C3.00051 35.479 2.86354 35.9414 2.74453 36.3857C2.63752 36.83 2.53059 37.3103 2.42374 37.8266C2.29321 38.487 2.21056 39.0932 2.17579 39.6453C2.15302 40.1974 2.17812 40.6893 2.25108 41.1211C2.32402 41.5409 2.43275 41.8706 2.57728 42.1102C2.73379 42.3378 2.93204 42.4512 3.17204 42.4505C3.53204 42.4495 3.90989 42.3824 4.3056 42.2493C4.70128 42.1042 5.07289 41.9291 5.42043 41.7242C5.77995 41.5071 6.08541 41.2663 6.33682 41.0015C6.58823 40.7368 6.73166 40.4784 6.7671 40.2263C6.8027 40.0462 6.71828 39.8605 6.51386 39.669C6.3214 39.4656 6.02699 39.2804 5.63062 39.1135C5.23424 38.9467 4.76594 38.81 4.2257 38.7035C3.69746 38.597 3.12136 38.5507 2.49738 38.5644C2.16141 38.5774 1.89729 38.5241 1.70503 38.4047C1.52476 38.2852 1.46429 38.0754 1.52362 37.7752C1.5712 37.5831 1.70286 37.4327 1.91862 37.3241C2.13435 37.2035 2.5001 37.0884 3.01585 36.979C3.45967 36.8937 3.91541 36.7784 4.38309 36.6331C4.86276 36.4877 5.32441 36.3304 5.76804 36.1611C6.22366 35.9918 6.63726 35.8107 7.00883 35.6176C7.3804 35.4246 7.68596 35.2257 7.9255 35.021C8.16505 34.8163 8.30262 34.6239 8.33822 34.4438C8.38558 34.1557 8.30702 33.9039 8.10254 33.6885C7.91003 33.4611 7.6156 33.2699 7.21926 33.115C6.83491 32.9601 6.37265 32.8414 5.83246 32.7589C5.29228 32.6765 4.71618 32.6361 4.10419 32.6378C3.67219 32.6391 3.2522 32.6463 2.84423 32.6594C2.44823 32.6605 2.15423 32.6614 1.96224 32.6619C1.79424 32.6624 1.6561 32.6028 1.54784 32.4831C1.43954 32.3514 1.40319 32.1955 1.43879 32.0154C1.4981 31.7032 1.73155 31.4566 2.13915 31.2754C2.54674 31.0943 3.11054 31.0027 3.83054 31.0006C4.79053 30.9979 5.67269 31.0674 6.47701 31.2091C7.29333 31.3508 7.98382 31.5708 8.54848 31.8692C9.11315 32.1676 9.52802 32.5445 9.79302 32.9997C10.058 33.443 10.1251 33.9708 9.99452 34.5831C9.92332 34.9433 9.68412 35.316 9.27702 35.7012C8.88188 36.0863 8.27072 36.466 7.44356 36.8404C6.61639 37.2147 5.53717 37.5658 4.20589 37.8936L4.24077 37.3895C5.14096 37.4709 5.8733 37.6248 6.43781 37.8512C7.01428 38.0656 7.44684 38.3164 7.73548 38.6036C8.03612 38.8907 8.22881 39.1962 8.31353 39.5199C8.41022 39.8317 8.4289 40.1376 8.36957 40.4378C8.27469 40.942 8.04174 41.4107 7.6707 41.8438C7.31167 42.2768 6.86851 42.656 6.34123 42.9815C5.81396 43.307 5.26253 43.5666 4.68696 43.7602C4.12337 43.9418 3.58357 44.0334 3.06757 44.0348ZM14.1346 43.9674C13.3906 43.9695 12.7664 43.8693 12.2619 43.6667C11.7695 43.4521 11.3908 43.1592 11.126 42.788C10.8611 42.4047 10.6921 41.9612 10.619 41.4574C10.5579 40.9536 10.5867 40.4015 10.7053 39.8011C10.836 39.2128 11.0627 38.6241 11.3854 38.0352C11.7201 37.4343 12.1328 36.8871 12.6237 36.3937C13.1266 35.9003 13.6838 35.5087 14.2951 35.2189C14.9185 34.9172 15.5721 34.7653 16.2561 34.7634C16.8921 34.7616 17.4143 34.8621 17.8228 35.0649C18.2432 35.2677 18.5319 35.5669 18.6888 35.9625C18.8577 36.358 18.8828 36.8559 18.7641 37.4563C18.6692 37.9485 18.4722 38.3871 18.1731 38.772C17.8859 39.1448 17.5206 39.4638 17.0772 39.7291C16.6457 39.9823 16.1602 40.1817 15.6205 40.3272C15.0928 40.4607 14.529 40.5283 13.929 40.53C13.113 40.5323 12.5667 40.4379 12.2903 40.2467C12.0259 40.0554 11.9174 39.8397 11.9649 39.5996C11.9886 39.4555 12.0423 39.3534 12.1262 39.2931C12.21 39.2209 12.342 39.1845 12.522 39.184C12.654 39.1836 12.81 39.2072 12.9901 39.2547C13.1822 39.2901 13.4642 39.3073 13.8362 39.3063C14.4362 39.3046 14.976 39.219 15.4557 39.0497C15.9473 38.8803 16.3488 38.6511 16.6601 38.3622C16.9715 38.0614 17.1687 37.7188 17.2518 37.3346C17.323 36.9744 17.2744 36.7045 17.106 36.525C16.9496 36.3454 16.6374 36.2563 16.1694 36.2576C15.7014 36.259 15.2517 36.3682 14.8202 36.5855C14.4006 36.7907 14.0053 37.0738 13.6341 37.4348C13.2749 37.7959 12.9698 38.2107 12.7188 38.6794C12.4679 39.1481 12.295 39.6406 12.2001 40.1569C12.1171 40.5891 12.112 40.9852 12.1848 41.345C12.2575 41.6928 12.4382 41.9802 12.7267 42.2074C13.0272 42.4226 13.4534 42.5294 14.0054 42.5278C14.6294 42.526 15.1632 42.4465 15.6069 42.2893C16.0625 42.12 16.4461 41.9269 16.7576 41.71C17.0691 41.4931 17.3327 41.3064 17.5483 41.1497C17.764 40.9931 17.9558 40.9146 18.1238 40.9141C18.3278 40.9135 18.472 40.9911 18.5563 41.1469C18.6527 41.2906 18.6771 41.4825 18.6296 41.7227C18.5822 41.9628 18.4207 42.2153 18.1453 42.4801C17.8819 42.7328 17.5344 42.9738 17.1029 43.203C16.6834 43.4322 16.2158 43.6195 15.7002 43.765C15.1965 43.8984 14.6746 43.9659 14.1346 43.9674ZM20.9085 42.9402C21.0637 42.5798 21.2608 42.1772 21.4998 41.7325C21.7388 41.2759 21.9957 40.8011 22.2706 40.3083C22.5575 39.8155 22.8445 39.3347 23.1314 38.8659C23.4304 38.385 23.7114 37.9522 23.9745 37.5675C24.3214 37.0745 24.6684 36.6115 25.0154 36.1785C25.3625 35.7456 25.6917 35.3966 26.0031 35.1317C26.3265 34.8548 26.6022 34.716 26.8302 34.7154C27.0702 34.7147 27.2804 34.8161 27.4609 35.0196C27.6533 35.223 27.8221 35.5586 27.9671 36.0262C28.0639 36.3619 28.1668 36.7876 28.276 37.3033C28.3851 37.819 28.4884 38.3827 28.5857 38.9944C28.6831 39.5941 28.7624 40.1999 28.8238 40.8118C28.8851 41.4236 28.9224 41.9875 28.9355 42.5034L27.3519 42.6519C27.3386 42.076 27.2952 41.4521 27.2217 40.7803C27.1602 40.0965 27.0747 39.4367 26.9653 38.801C26.8559 38.1653 26.7406 37.6136 26.6196 37.146C26.4985 36.6663 26.3718 36.3427 26.2394 36.1751L26.9411 36.0291C26.558 36.4382 26.1511 36.9193 25.7203 37.4725C25.3016 38.0257 24.9069 38.6209 24.5363 39.2579C24.2613 39.7267 24.0043 40.1714 23.7653 40.5921C23.5262 41.0128 23.3051 41.4214 23.102 41.818C22.9109 42.2025 22.7197 42.5991 22.5287 43.0076L20.9085 42.9402ZM28.7101 46.3561C28.4701 46.3568 28.2839 46.2733 28.1516 46.1057C28.0192 45.9381 27.9768 45.7522 28.0243 45.548C28.048 45.404 28.1255 45.1877 28.2569 44.8994C28.3883 44.623 28.5256 44.3046 28.6688 43.9442C28.8119 43.5838 28.9191 43.2115 28.9903 42.8273L29.6403 43.7434C29.4723 43.7199 29.2082 43.6967 28.8482 43.6737C28.5001 43.6507 28.0561 43.6399 27.5161 43.6415C26.8801 43.6433 26.2261 43.6511 25.5541 43.665C24.8942 43.6789 24.2402 43.6988 23.5923 43.7246C22.9563 43.7504 22.3504 43.7881 21.7745 43.8378C21.1986 43.8874 20.6707 43.9489 20.1909 44.0223L20.8915 43.3903C20.8678 43.5463 20.8443 43.7384 20.8208 43.9665C20.7973 44.1945 20.7798 44.4226 20.7683 44.6506C20.7568 44.8907 20.7453 45.1007 20.7337 45.2807C20.7341 45.4607 20.7344 45.5867 20.7346 45.6587C20.723 45.8628 20.6514 46.019 20.5196 46.1273C20.3879 46.2477 20.22 46.3082 20.016 46.3088C19.728 46.3096 19.5297 46.1961 19.4212 45.9684C19.3127 45.7408 19.2581 45.4709 19.2574 45.1589C19.245 44.9669 19.2505 44.7209 19.2738 44.4209C19.2971 44.1208 19.3266 43.8867 19.3622 43.7186C19.4098 43.5265 19.4814 43.3583 19.5771 43.214C19.6608 43.0578 19.7865 42.9254 19.9542 42.8169C20.122 42.7084 20.3378 42.6298 20.6017 42.5811C20.9016 42.5322 21.3035 42.4891 21.8074 42.4517C22.3233 42.4022 22.8992 42.3646 23.5352 42.3388C24.1831 42.3009 24.849 42.275 25.533 42.2611C26.2169 42.2352 26.8709 42.2213 27.4949 42.2195C27.8069 42.2186 28.1489 42.2237 28.5209 42.2346C28.8929 42.2336 29.253 42.2565 29.6011 42.3036C29.9492 42.3386 30.1834 42.4459 30.3038 42.6256C30.4362 42.8052 30.4668 43.0871 30.3957 43.4713C30.3364 43.7715 30.2471 44.0897 30.1278 44.4261C30.0086 44.7624 29.8653 45.0748 29.6979 45.3633C29.5426 45.6637 29.3751 45.9042 29.1955 46.0847C29.0279 46.2652 28.8661 46.3557 28.7101 46.3561ZM34.6564 48.4272C33.9244 48.4293 33.3063 48.3591 32.802 48.2165C32.2977 48.0859 31.9313 47.901 31.7027 47.6616C31.4742 47.4223 31.3896 47.1645 31.449 46.8883C31.4846 46.6962 31.5622 46.54 31.682 46.4197C31.8137 46.3113 31.9936 46.2568 32.2216 46.2561C32.3656 46.2557 32.4977 46.2853 32.6178 46.345C32.7379 46.4047 32.8761 46.4703 33.0322 46.5418C33.1884 46.6254 33.4046 46.6968 33.6807 46.756C33.9688 46.8152 34.3469 46.8441 34.8149 46.8428C35.3909 46.8411 35.8706 46.7138 36.2541 46.4607C36.6375 46.2076 36.9427 45.8527 37.1697 45.3961C37.4087 44.9394 37.5875 44.4109 37.7062 43.8106C37.7774 43.4624 37.8246 43.1202 37.8479 42.7842C37.8831 42.4481 37.9183 42.088 37.9535 41.7039C37.9886 41.3198 38.0356 40.8756 38.0945 40.3714C38.1534 39.8553 38.248 39.249 38.3785 38.5526L38.9376 39.0731C38.5555 39.9021 38.173 40.5812 37.7901 41.1103C37.4073 41.6274 37.0362 42.0305 36.6768 42.3195C36.3175 42.5965 35.9759 42.7895 35.6521 42.8984C35.3403 42.9953 35.0584 43.0441 34.8065 43.0448C33.7625 43.0477 33.0355 42.6178 32.6256 41.755C32.2156 40.8801 32.2005 39.4822 32.5802 37.5611C32.7344 36.7566 32.8891 36.1502 33.0442 35.7418C33.2113 35.3333 33.3847 35.0568 33.5643 34.9123C33.744 34.7678 33.9298 34.6952 34.1218 34.6947C34.3018 34.6942 34.446 34.7418 34.5542 34.8375C34.6624 34.9212 34.7167 35.065 34.7171 35.269C34.7296 35.473 34.6882 35.7491 34.593 36.0974C34.4027 36.8539 34.2542 37.5623 34.1477 38.2226C34.0412 38.8709 33.9944 39.4411 34.0075 39.933C34.0206 40.425 34.0995 40.8088 34.2441 41.0844C34.3887 41.348 34.623 41.4793 34.947 41.4784C35.451 41.477 35.9424 41.2176 36.4212 40.7002C36.9001 40.1708 37.3485 39.4616 37.7665 38.5724C38.1965 37.6711 38.5842 36.662 38.9298 35.5451C39.037 35.2088 39.1445 34.9864 39.2523 34.8781C39.36 34.7578 39.5279 34.6974 39.7559 34.6967C39.9239 34.6962 40.074 34.7498 40.2062 34.8574C40.3505 34.965 40.4349 35.1568 40.4595 35.4327C40.4961 35.6966 40.4429 36.0568 40.2999 36.5132C40.1213 37.1257 39.9845 37.6721 39.8896 38.1523C39.8066 38.6326 39.7477 39.0948 39.7127 39.5389C39.6776 39.971 39.6486 40.415 39.6256 40.8711C39.6146 41.3151 39.5797 41.8072 39.5209 42.3474C39.4621 42.8756 39.3674 43.4878 39.237 44.1842C39.0828 44.9887 38.8563 45.6613 38.5575 46.2022C38.2587 46.755 37.9117 47.194 37.5164 47.5191C37.1211 47.8442 36.6777 48.0735 36.186 48.2069C35.7063 48.3523 35.1964 48.4257 34.6564 48.4272ZM54.7248 46.2823C54.5808 46.2827 54.4547 46.2471 54.3466 46.1754C54.2384 46.1037 54.1602 46.0079 54.1119 45.888C54.0757 45.7681 54.0694 45.6421 54.0931 45.5101C54.1167 45.354 54.1883 45.1618 54.3078 44.9335C54.4393 44.7051 54.5767 44.4407 54.72 44.1403C54.8634 43.8399 54.9886 43.5035 55.0958 43.1312L55.1865 43.473C54.9706 43.4856 54.6226 43.5106 54.1427 43.5479C53.6628 43.5733 53.0988 43.6049 52.4509 43.6427C51.803 43.6686 51.119 43.6945 50.3991 43.7206C49.6792 43.7586 48.9712 43.7906 48.2753 43.8166C47.5794 43.8426 46.9374 43.8624 46.3494 43.876C45.7735 43.9017 45.3055 43.915 44.9455 43.916C44.3815 43.9176 43.9193 43.8409 43.559 43.686C43.1986 43.531 42.9222 43.3158 42.7296 43.0403C42.5489 42.7648 42.4342 42.4351 42.3853 42.0513C42.3485 41.6674 42.3776 41.2533 42.4726 40.809C42.5319 40.4969 42.615 40.1186 42.7221 39.6743C42.841 39.218 42.966 38.7376 43.0968 38.2332C43.2397 37.7288 43.3767 37.2545 43.5077 36.8101C43.6387 36.3537 43.7578 35.9754 43.8651 35.6751C43.9486 35.4108 44.068 35.1705 44.2235 34.954C44.3791 34.7376 44.5588 34.6291 44.7628 34.6285C44.9308 34.628 45.0689 34.6816 45.1772 34.7893C45.2854 34.885 45.3637 35.0108 45.412 35.1667C45.4724 35.3225 45.4847 35.4905 45.4491 35.6706C45.4135 35.8507 45.3123 36.187 45.1454 36.6794C44.9905 37.1599 44.8118 37.7664 44.6094 38.499C44.4071 39.2315 44.2169 40.0541 44.0389 40.9666C43.9559 41.3868 43.9866 41.7347 44.1313 42.0103C44.2759 42.2859 44.5822 42.423 45.0502 42.4217C45.9502 42.4192 46.8561 42.4046 47.7681 42.378C48.692 42.3394 49.5799 42.2949 50.4318 42.2445C51.2837 42.194 52.0636 42.1438 52.7715 42.0938C53.4794 42.0438 54.0733 42.0061 54.5532 41.9808C55.0331 41.9434 55.3571 41.9245 55.5251 41.924C55.9811 41.9227 56.3053 42.0178 56.4977 42.2092C56.6902 42.4007 56.7389 42.7306 56.6439 43.1988C56.6084 43.3909 56.5429 43.6251 56.4475 43.9014C56.3521 44.1777 56.2447 44.448 56.1253 44.7123C56.0179 44.9766 55.9104 45.2049 55.8028 45.3972C55.6474 45.6737 55.4859 45.8901 55.3183 46.0466C55.1506 46.2031 54.9528 46.2816 54.7248 46.2823ZM47.7876 43.062C47.7868 42.678 47.8038 42.2399 47.8387 41.7478C47.8856 41.2437 47.9385 40.7455 47.9974 40.2534C48.0683 39.7611 48.1393 39.3229 48.2104 38.9387C48.3053 38.4345 48.4122 37.9302 48.5311 37.4258C48.6619 36.9215 48.8048 36.423 48.9597 35.9306C49.0551 35.6543 49.1746 35.426 49.3182 35.2456C49.4738 35.0651 49.6596 34.9746 49.8756 34.974C50.0436 34.9735 50.1877 35.0271 50.308 35.1348C50.4282 35.2304 50.5065 35.3622 50.5428 35.5301C50.5912 35.698 50.5976 35.884 50.5621 36.0881C50.5265 36.2682 50.461 36.5023 50.3656 36.7906C50.2823 37.0789 50.1871 37.4211 50.0799 37.8174C49.9848 38.2137 49.8838 38.658 49.7769 39.1503C49.6582 39.7506 49.5754 40.2789 49.5284 40.735C49.4934 41.1791 49.4763 41.5752 49.4771 41.9232C49.4779 42.2712 49.4726 42.5952 49.4612 42.8952L47.7876 43.062ZM54.4646 42.611L52.8445 42.5796C52.9878 42.2552 53.119 41.9008 53.2382 41.5165C53.3573 41.1321 53.4764 40.7058 53.5953 40.2375C53.7143 39.7691 53.8271 39.2528 53.9339 38.6885C54.0764 38.0161 54.1712 37.4698 54.2182 37.0497C54.2773 36.6175 54.3125 36.2754 54.3239 36.0234C54.3474 35.7713 54.371 35.5793 54.3947 35.4472C54.4421 35.207 54.5317 35.0148 54.6634 34.8704C54.807 34.714 54.9689 34.6356 55.1489 34.635C55.3889 34.6344 55.599 34.7178 55.7794 34.8853C55.9598 35.0527 56.0324 35.3105 55.9971 35.6586C55.9739 36.0187 55.9387 36.3728 55.8915 36.7209C55.8443 37.0691 55.791 37.4112 55.7318 37.7474C55.6725 38.0836 55.6073 38.4198 55.536 38.756C55.4055 39.4163 55.2808 39.9747 55.1618 40.431C55.0548 40.8873 54.9417 41.2837 54.8224 41.62C54.7152 41.9563 54.5959 42.2866 54.4646 42.611ZM60.2353 43.8546C59.8273 43.8558 59.5031 43.7607 59.2626 43.5694C59.0342 43.3781 58.8657 43.1265 58.757 42.8148C58.6482 42.4911 58.5935 42.1433 58.5926 41.7713C58.6038 41.3873 58.645 41.0151 58.7161 40.6549C58.7875 40.3427 58.8826 39.9705 59.0017 39.5381C59.1327 39.1058 59.2757 38.6553 59.4307 38.1869C59.5856 37.7185 59.7346 37.28 59.8777 36.8716C60.0328 36.4632 60.1581 36.1448 60.2536 35.9166C60.4087 35.4961 60.5459 35.1717 60.6654 34.9434C60.7969 34.715 60.9527 34.6006 61.1327 34.6001C61.2887 34.5996 61.4328 34.6532 61.565 34.7608C61.6973 34.8685 61.7936 35.0062 61.8539 35.174C61.9263 35.3418 61.9447 35.5278 61.9092 35.7319C61.8736 35.924 61.7902 36.2002 61.659 36.5606C61.5278 36.921 61.3787 37.3234 61.2117 37.7679C61.0447 38.2123 60.8837 38.6628 60.7287 39.1192C60.5737 39.5637 60.4606 39.966 60.3894 40.3262C60.3181 40.6504 60.2708 40.9625 60.2475 41.2626C60.2241 41.5507 60.2367 41.7906 60.2851 41.9825C60.3335 42.1624 60.4357 42.2521 60.5917 42.2516C60.9757 42.2505 61.4609 41.9072 62.0474 41.2215C62.6459 40.5358 63.3098 39.5919 64.0391 38.3898C64.3739 37.8609 64.6668 37.368 64.9178 36.9113C65.1688 36.4546 65.3899 36.058 65.5812 35.7214C65.7724 35.3729 65.9578 35.1024 66.1374 34.9099C66.3169 34.7174 66.4967 34.6208 66.6767 34.6203C66.9527 34.6196 67.151 34.727 67.2714 34.9427C67.4039 35.1463 67.4645 35.4221 67.4533 35.7701C67.454 36.0821 67.4428 36.4662 67.4199 36.9222C67.4089 37.3783 67.3979 37.8463 67.387 38.3263C67.376 38.7944 67.377 39.2324 67.3899 39.6403C67.4275 40.3362 67.4947 40.906 67.5917 41.3498C67.7007 41.7815 67.7975 42.1292 67.882 42.3929C67.9666 42.6567 68.0031 42.8726 67.9915 43.0406C67.9798 43.1727 67.9381 43.2988 67.8663 43.419C67.7946 43.5272 67.7048 43.6175 67.5969 43.6898C67.4891 43.7621 67.3692 43.7984 67.2372 43.7988C66.8172 43.8 66.5166 43.5248 66.3353 42.9733C66.1541 42.4218 66.0145 41.6842 65.9164 40.7605C65.8914 40.3286 65.8664 39.8667 65.8413 39.3747C65.8282 38.8828 65.8271 38.3908 65.838 37.8987C65.8609 37.4067 65.8839 36.9506 65.907 36.5305L66.4294 36.709C66.2263 37.1296 65.9873 37.5923 65.7125 38.0971C65.4376 38.6019 65.061 39.2449 64.5828 40.0263C64.1762 40.6755 63.7336 41.2947 63.2549 41.8841C62.7762 42.4614 62.2792 42.9368 61.7641 43.3103C61.2609 43.6717 60.7513 43.8532 60.2353 43.8546ZM76.1871 32.9913C75.6831 32.9928 75.2569 32.886 74.9084 32.671C74.5599 32.444 74.3013 32.1687 74.1325 31.8452C73.9638 31.5097 73.8851 31.1919 73.8964 30.8918C73.9197 30.5678 74.0091 30.3155 74.1647 30.1351C74.3203 29.9546 74.5121 29.8641 74.7401 29.8634C74.9201 29.8629 75.0524 29.9646 75.1368 30.1683C75.2332 30.36 75.3357 30.5758 75.4443 30.8154C75.5408 31.0432 75.6672 31.2408 75.8236 31.4084C75.9919 31.5759 76.2441 31.6592 76.5801 31.6582C76.7361 31.6578 76.8921 31.6273 77.0479 31.5669C77.2158 31.4944 77.3716 31.41 77.5154 31.3136C77.6711 31.2051 77.8089 31.1027 77.9287 31.0064C78.1922 30.7897 78.4258 30.609 78.6295 30.4644C78.8331 30.3078 79.037 30.2293 79.241 30.2287C79.385 30.2283 79.4931 30.282 79.5653 30.3898C79.6495 30.4855 79.6678 30.6115 79.6202 30.7676C79.5606 30.9838 79.4292 31.2241 79.2258 31.4887C79.0343 31.7413 78.7829 31.982 78.4714 32.2109C78.1599 32.4398 77.8063 32.6268 77.4106 32.7719C77.0269 32.917 76.6191 32.9901 76.1871 32.9913ZM71.8192 43.8218C71.4112 43.8229 71.087 43.7279 70.8466 43.5365C70.6182 43.3452 70.4496 43.0937 70.3409 42.782C70.2322 42.4583 70.1774 42.1104 70.1766 41.7384C70.1877 41.3544 70.2289 40.9823 70.3001 40.6221C70.3714 40.3099 70.4666 39.9376 70.5856 39.5053C70.7166 39.0729 70.8596 38.6225 71.0146 38.154C71.1695 37.6856 71.3186 37.2472 71.4617 36.8388C71.6168 36.4303 71.742 36.112 71.8375 35.8837C71.9926 35.4633 72.1299 35.1389 72.2494 34.9105C72.3809 34.6822 72.5366 34.5677 72.7166 34.5672C72.8726 34.5668 73.0167 34.6204 73.149 34.728C73.2812 34.8356 73.3775 34.9733 73.4379 35.1412C73.5103 35.309 73.5287 35.4949 73.4931 35.699C73.4576 35.8911 73.3742 36.1673 73.243 36.5277C73.1118 36.8881 72.9627 37.2905 72.7957 37.735C72.6287 38.1795 72.4677 38.6299 72.3127 39.0864C72.1577 39.5308 72.0446 39.9331 71.9734 40.2933C71.9021 40.6175 71.8548 40.9297 71.8314 41.2297C71.8081 41.5178 71.8206 41.7578 71.869 41.9496C71.9174 42.1295 72.0196 42.2192 72.1756 42.2188C72.5596 42.2177 73.0449 41.8743 73.6314 41.1886C74.2298 40.5029 74.8937 39.559 75.6231 38.357C75.9579 37.828 76.2508 37.3352 76.5018 36.8785C76.7527 36.4218 76.9739 36.0251 77.1651 35.6886C77.3563 35.34 77.5417 35.0695 77.7213 34.877C77.9009 34.6845 78.0807 34.588 78.2607 34.5875C78.5367 34.5867 78.7349 34.6941 78.8554 34.9098C78.9878 35.1134 79.0484 35.3892 79.0372 35.7373C79.0379 36.0493 79.0268 36.4333 79.0038 36.8894C78.9928 37.3454 78.9818 37.8134 78.9709 38.2935C78.96 38.7615 78.9609 39.1995 78.9738 39.6075C79.0114 40.3034 79.0787 40.8732 79.1757 41.3169C79.2846 41.7486 79.3814 42.0963 79.466 42.3601C79.5506 42.6238 79.587 42.8397 79.5754 43.0078C79.5637 43.1398 79.522 43.2659 79.4503 43.3861C79.3785 43.4943 79.2887 43.5846 79.1809 43.6569C79.073 43.7292 78.9531 43.7655 78.8211 43.7659C78.4011 43.7671 78.1005 43.492 77.9193 42.9405C77.738 42.389 77.5984 41.6514 77.5003 40.7277C77.4754 40.2957 77.4503 39.8338 77.4253 39.3419C77.4122 38.8499 77.4111 38.3579 77.422 37.8659C77.4449 37.3738 77.4679 36.9177 77.4909 36.4977L78.0133 36.6762C77.8103 37.0968 77.5713 37.5594 77.2964 38.0642C77.0215 38.569 76.645 39.2121 76.1667 39.9934C75.7601 40.6426 75.3175 41.2618 74.8388 41.8512C74.3601 42.4286 73.8632 42.904 73.348 43.2774C72.8448 43.6389 72.3352 43.8203 71.8192 43.8218ZM91.4257 43.7302C90.5377 43.7327 89.8053 43.5608 89.2285 43.2144C88.6637 42.856 88.2667 42.3651 88.0373 41.7418C87.8198 41.1064 87.7942 40.3744 87.9604 39.546C88.1028 38.8376 88.3593 38.1828 88.73 37.5818C89.1126 36.9687 89.5795 36.4394 90.1305 35.9938C90.6934 35.5362 91.3047 35.1805 91.9641 34.9266C92.6235 34.6727 93.3012 34.5448 93.9972 34.5428C94.3092 34.5419 94.5853 34.5892 94.8256 34.6845C95.0657 34.7678 95.24 34.8993 95.3484 35.079C95.4688 35.2467 95.4993 35.4566 95.4398 35.7087C95.3923 35.9369 95.3027 36.1171 95.171 36.2495C95.0393 36.3699 94.8834 36.4303 94.7034 36.4308C94.5714 36.4312 94.4694 36.4075 94.3973 36.3597C94.3252 36.3119 94.2471 36.2641 94.163 36.2164C94.0909 36.1686 93.9648 36.1449 93.7848 36.1454C93.1008 36.1474 92.4592 36.3232 91.86 36.6729C91.2607 37.0106 90.7517 37.456 90.333 38.0092C89.9262 38.5504 89.6575 39.1332 89.5268 39.7575C89.444 40.2618 89.4569 40.6997 89.5658 41.0714C89.6866 41.4311 89.9032 41.7125 90.2157 41.9156C90.5401 42.1187 90.9363 42.2195 91.4043 42.2182C91.9323 42.2167 92.3522 42.1555 92.6639 42.0346C92.9756 41.9018 93.2213 41.7571 93.401 41.6005C93.5926 41.444 93.7483 41.3056 93.868 41.1852C93.9877 41.0529 94.1256 40.9865 94.2816 40.986C94.5096 40.9854 94.6657 41.039 94.75 41.1467C94.8462 41.2544 94.8706 41.4404 94.8232 41.7045C94.7401 42.1007 94.5369 42.4553 94.2136 42.7682C93.8902 43.0692 93.4828 43.3043 92.9911 43.4737C92.5115 43.6431 91.9897 43.7286 91.4257 43.7302ZM103.862 43.7129C103.574 43.7137 103.376 43.5583 103.267 43.2466C103.158 42.9349 103.103 42.539 103.102 42.059C103.102 41.699 103.131 41.2969 103.19 40.8528C103.249 40.3966 103.314 39.9404 103.385 39.4842C103.456 39.028 103.521 38.6018 103.58 38.2057C103.651 37.8095 103.704 37.4793 103.74 37.2152C103.787 36.8791 103.816 36.591 103.828 36.3509C103.851 36.1109 103.863 35.8588 103.862 35.5948L104.205 36.0619L102.909 36.0656C102.525 36.0666 102.063 36.086 101.523 36.1235C100.995 36.149 100.473 36.1865 99.9569 36.2359C99.4419 36.2854 99.0096 36.3526 98.6618 36.4376L99.5059 35.4452C99.5309 36.1171 99.4909 36.7953 99.3839 37.4796C99.2899 38.1638 99.1649 38.8962 99.011 39.6766C98.9398 40.0248 98.8626 40.415 98.7796 40.8473C98.6966 41.2795 98.6075 41.6938 98.5124 42.09C98.4173 42.4863 98.328 42.8046 98.2445 43.0448C98.1729 43.237 98.0653 43.3993 97.9216 43.5317C97.7779 43.6521 97.604 43.7126 97.4 43.7132C97.16 43.7139 96.9857 43.6004 96.8772 43.3727C96.7687 43.145 96.7501 42.8511 96.8213 42.4908C96.8687 42.2267 96.934 41.9265 97.0173 41.5903C97.1005 41.242 97.1777 40.8818 97.2489 40.5096C97.32 40.1374 97.3853 39.8012 97.4446 39.5011C97.5753 38.9007 97.6581 38.3845 97.6932 37.9524C97.7402 37.5082 97.7753 37.1181 97.7985 36.7821C97.8338 36.446 97.8811 36.1218 97.9404 35.8096C98.0118 35.5454 98.1193 35.3411 98.263 35.1967C98.4187 35.0523 98.6345 34.9497 98.9103 34.8889C99.3179 34.8037 99.7919 34.7424 100.332 34.7049C100.884 34.6553 101.448 34.6237 102.024 34.6101C102.612 34.5964 103.17 34.5888 103.698 34.5873C104.394 34.5853 104.898 34.7219 105.211 34.997C105.523 35.2721 105.608 35.7579 105.466 36.4543C105.418 36.6944 105.359 37.0306 105.288 37.4628C105.217 37.895 105.134 38.3752 105.039 38.9035C104.957 39.4318 104.886 39.966 104.827 40.5061C104.768 41.0343 104.733 41.5264 104.722 41.9824C104.711 42.1745 104.711 42.3725 104.724 42.5764C104.736 42.7804 104.73 42.9544 104.707 43.0985C104.671 43.2546 104.575 43.3989 104.42 43.5313C104.276 43.6517 104.09 43.7122 103.862 43.7129ZM108.927 43.7165C108.519 43.7177 108.194 43.6226 107.954 43.4313C107.726 43.2399 107.557 42.9884 107.448 42.6767C107.34 42.353 107.285 42.0052 107.284 41.6332C107.295 41.2491 107.336 40.877 107.407 40.5168C107.479 40.2046 107.574 39.8323 107.693 39.4C107.824 38.9676 107.967 38.5172 108.122 38.0488C108.277 37.5803 108.426 37.1419 108.569 36.7335C108.724 36.3251 108.849 36.0067 108.945 35.7784C109.1 35.358 109.237 35.0336 109.357 34.8053C109.488 34.5769 109.644 34.4624 109.824 34.4619C109.98 34.4615 110.124 34.5151 110.256 34.6227C110.389 34.7303 110.485 34.8681 110.545 35.0359C110.618 35.2037 110.636 35.3896 110.6 35.5937C110.565 35.7858 110.482 36.0621 110.35 36.4224C110.219 36.7828 110.07 37.1852 109.903 37.6297C109.736 38.0742 109.575 38.5246 109.42 38.9811C109.265 39.4255 109.152 39.8279 109.081 40.1881C109.009 40.5123 108.962 40.8244 108.939 41.1245C108.915 41.4125 108.928 41.6525 108.976 41.8444C109.025 42.0242 109.127 42.1139 109.283 42.1135C109.667 42.1124 110.152 41.769 110.739 41.0834C111.337 40.3977 112.001 39.4538 112.73 38.2517C113.065 37.7227 113.358 37.2299 113.609 36.7732C113.86 36.3165 114.081 35.9199 114.272 35.5833C114.464 35.2348 114.649 34.9642 114.829 34.7717C115.008 34.5792 115.188 34.4827 115.368 34.4822C115.644 34.4814 115.842 34.5889 115.963 34.8045C116.095 35.0081 116.156 35.284 116.145 35.632C116.145 35.944 116.134 36.328 116.111 36.7841C116.1 37.2401 116.089 37.7082 116.078 38.1882C116.067 38.6562 116.068 39.0942 116.081 39.5022C116.119 40.1981 116.186 40.7679 116.283 41.2116C116.392 41.6433 116.489 41.991 116.573 42.2548C116.658 42.5186 116.694 42.7345 116.683 42.9025C116.671 43.0345 116.629 43.1607 116.558 43.2809C116.486 43.3891 116.396 43.4793 116.288 43.5516C116.18 43.6239 116.06 43.6603 115.928 43.6606C115.508 43.6618 115.208 43.3867 115.027 42.8352C114.845 42.2837 114.706 41.5461 114.608 40.6224C114.583 40.1904 114.558 39.7285 114.533 39.2366C114.52 38.7446 114.518 38.2526 114.529 37.7606C114.552 37.2685 114.575 36.8125 114.598 36.3924L115.121 36.5709C114.918 36.9915 114.679 37.4542 114.404 37.9589C114.129 38.4637 113.752 39.1068 113.274 39.8882C112.868 40.5373 112.425 41.1566 111.946 41.7459C111.467 42.3233 110.971 42.7987 110.455 43.1722C109.952 43.5336 109.443 43.715 108.927 43.7165ZM125.566 43.6693C125.206 43.6703 124.81 43.5634 124.378 43.3487C123.945 43.1219 123.519 42.8231 123.098 42.4523C122.689 42.0815 122.31 41.6865 121.961 41.2675C121.624 40.8485 121.359 40.4472 121.166 40.0638C121.046 39.8721 120.968 39.6983 120.931 39.5424C120.907 39.3745 120.9 39.2125 120.912 39.0565C120.948 38.9604 120.996 38.8522 121.055 38.7321C121.115 38.6119 121.193 38.5037 121.289 38.4074C121.432 38.215 121.678 37.9563 122.025 37.6313C122.372 37.3063 122.773 36.9572 123.229 36.5839C123.696 36.1986 124.175 35.8432 124.666 35.5178C125.169 35.1804 125.643 34.903 126.086 34.6858C126.542 34.4685 126.932 34.3594 127.256 34.3585C127.388 34.3581 127.49 34.3878 127.562 34.4476C127.646 34.5074 127.706 34.5852 127.742 34.6811C127.779 34.777 127.791 34.873 127.779 34.969C127.768 35.233 127.594 35.4855 127.259 35.7265C126.923 35.9674 126.564 36.1904 126.18 36.3955C125.497 36.7815 124.892 37.1612 124.365 37.5347C123.838 37.9082 123.412 38.2394 123.089 38.5283C122.778 38.8172 122.616 39.0217 122.604 39.1417C122.581 39.2618 122.659 39.4715 122.84 39.771C123.02 40.0585 123.297 40.3877 123.67 40.7587C124.043 41.1176 124.481 41.4524 124.986 41.7629C125.214 41.9063 125.437 42.0437 125.653 42.175C125.881 42.2944 126.062 42.4199 126.194 42.5515C126.338 42.6711 126.404 42.8089 126.393 42.965C126.381 43.097 126.339 43.2171 126.268 43.3253C126.196 43.4335 126.094 43.5178 125.962 43.5782C125.842 43.6385 125.71 43.6689 125.566 43.6693ZM119.572 43.6683C119.26 43.6692 119.05 43.5138 118.941 43.2021C118.833 42.8784 118.802 42.4165 118.848 41.8164C118.907 41.2042 119.019 40.4659 119.185 39.6014C119.257 39.2412 119.34 38.8629 119.435 38.4667C119.542 38.0704 119.649 37.6741 119.756 37.2778C119.863 36.8695 119.952 36.4732 120.023 36.089C120.047 35.9929 120.065 35.8969 120.077 35.8008C120.101 35.6928 120.118 35.5847 120.13 35.4767C120.178 35.2366 120.243 35.0384 120.327 34.8821C120.41 34.7259 120.506 34.6056 120.614 34.5213C120.734 34.425 120.854 34.3766 120.974 34.3763C121.25 34.3755 121.466 34.5009 121.623 34.7525C121.791 34.992 121.828 35.3339 121.733 35.7781C121.673 36.0783 121.578 36.4506 121.447 36.895C121.328 37.3273 121.203 37.7717 121.072 38.228C120.941 38.6844 120.84 39.0867 120.769 39.4349C120.662 40.0592 120.58 40.6174 120.521 41.1096C120.474 41.6017 120.445 42.0098 120.433 42.3339C120.422 42.6459 120.399 42.862 120.363 42.9821C120.339 43.1261 120.285 43.2523 120.202 43.3605C120.13 43.4567 120.04 43.529 119.932 43.5773C119.836 43.6376 119.716 43.6679 119.572 43.6683ZM130.108 43.6564C129.7 43.6576 129.376 43.5625 129.136 43.3712C128.907 43.1798 128.739 42.9283 128.63 42.6166C128.521 42.2929 128.466 41.9451 128.465 41.5731C128.477 41.189 128.518 40.8169 128.589 40.4567C128.66 40.1445 128.755 39.7722 128.875 39.3399C129.006 38.9075 129.149 38.4571 129.304 37.9887C129.458 37.5202 129.607 37.0818 129.751 36.6734C129.906 36.265 130.031 35.9466 130.126 35.7183C130.282 35.2979 130.419 34.9735 130.538 34.7452C130.67 34.5168 130.826 34.4023 131.006 34.4018C131.162 34.4014 131.306 34.455 131.438 34.5626C131.57 34.6702 131.666 34.808 131.727 34.9758C131.799 35.1436 131.818 35.3295 131.782 35.5336C131.746 35.7257 131.663 36.002 131.532 36.3623C131.401 36.7227 131.252 37.1251 131.085 37.5696C130.918 38.0141 130.757 38.4646 130.602 38.921C130.447 39.3654 130.333 39.7678 130.262 40.128C130.191 40.4522 130.144 40.7643 130.12 41.0644C130.097 41.3524 130.11 41.5924 130.158 41.7843C130.206 41.9641 130.309 42.0538 130.465 42.0534C130.849 42.0523 131.334 41.7089 131.92 41.0233C132.519 40.3376 133.183 39.3937 133.912 38.1916C134.247 37.6627 134.54 37.1698 134.791 36.7131C135.042 36.2564 135.263 35.8598 135.454 35.5232C135.645 35.1747 135.831 34.9041 136.01 34.7116C136.19 34.5191 136.37 34.4226 136.55 34.4221C136.826 34.4213 137.024 34.5288 137.144 34.7444C137.277 34.948 137.337 35.2239 137.326 35.5719C137.327 35.8839 137.316 36.2679 137.293 36.724C137.282 37.18 137.271 37.6481 137.26 38.1281C137.249 38.5961 137.25 39.0341 137.263 39.4421C137.3 40.138 137.368 40.7078 137.465 41.1515C137.574 41.5832 137.67 41.931 137.755 42.1947C137.839 42.4585 137.876 42.6744 137.864 42.8424C137.853 42.9744 137.811 43.1006 137.739 43.2208C137.667 43.329 137.578 43.4192 137.47 43.4915C137.362 43.5638 137.242 43.6002 137.11 43.6006C136.834 43.6013 136.606 43.476 136.425 43.2245C136.257 42.973 136.124 42.6193 136.027 42.1636C135.93 41.7079 135.851 41.1741 135.789 40.5623C135.764 40.1304 135.739 39.6684 135.714 39.1765C135.701 38.6845 135.7 38.1925 135.711 37.7005C135.734 37.2084 135.757 36.7524 135.78 36.3323L136.302 36.5108C136.159 36.7872 136.004 37.0817 135.836 37.3941C135.681 37.7066 135.49 38.0611 135.263 38.4578C135.047 38.8424 134.778 39.2991 134.456 39.8281C134.049 40.4772 133.606 41.0965 133.128 41.6858C132.649 42.2632 132.152 42.7386 131.637 43.1121C131.134 43.4735 130.624 43.655 130.108 43.6564ZM140.862 43.6259C140.43 43.6271 140.142 43.3519 139.997 42.8004C139.851 42.2488 139.868 41.5167 140.046 40.6042C140.188 39.9678 140.349 39.4873 140.528 39.1628C140.72 38.8263 140.935 38.5977 141.175 38.477C141.307 38.4046 141.493 38.3621 141.733 38.3494C141.973 38.3247 142.225 38.312 142.489 38.3113C143.365 38.3088 144.228 38.2643 145.08 38.1779C145.944 38.0795 146.79 37.8971 147.617 37.6307L147.944 38.8718C147.32 39.1136 146.649 39.2955 145.929 39.4175C145.209 39.5396 144.477 39.6256 143.734 39.6757C143.002 39.7138 142.288 39.7338 141.592 39.7358L140.547 39.5768C140.702 38.8683 140.862 38.1239 141.028 37.3434C141.195 36.5629 141.337 35.8665 141.456 35.2542C141.503 34.9661 141.599 34.7318 141.742 34.5514C141.886 34.371 142.048 34.2805 142.228 34.28C142.528 34.2791 142.75 34.3985 142.894 34.6381C143.039 34.8657 143.058 35.2316 142.951 35.736C142.903 36.0001 142.832 36.3183 142.737 36.6906C142.642 37.0628 142.541 37.4531 142.434 37.8614C142.338 38.2697 142.243 38.66 142.148 39.0322C142.065 39.3925 142 39.6927 141.952 39.9328C141.81 40.6292 141.703 41.2535 141.632 41.8057C141.574 42.3459 141.52 42.754 141.473 43.0302C141.437 43.1983 141.36 43.3365 141.24 43.4448C141.132 43.5651 141.006 43.6255 140.862 43.6259ZM147.072 43.6083C146.772 43.6091 146.556 43.4358 146.423 43.0881C146.302 42.7405 146.247 42.2666 146.258 41.6666C146.281 41.0545 146.363 40.3823 146.506 39.6499C146.743 38.4972 146.951 37.5846 147.129 36.9121C147.32 36.2276 147.493 35.6871 147.648 35.2906C147.743 35.0264 147.863 34.792 148.006 34.5876C148.15 34.3832 148.324 34.2807 148.528 34.2801C148.792 34.2794 148.978 34.4048 149.086 34.6565C149.207 34.8962 149.232 35.1901 149.16 35.5383C149.077 35.9706 148.946 36.4389 148.768 36.9435C148.601 37.4479 148.464 37.9943 148.357 38.5826C148.215 39.303 148.114 39.9573 148.056 40.5455C148.009 41.1216 147.98 41.6077 147.969 42.0037C147.958 42.3998 147.928 42.6939 147.881 42.886C147.845 43.1021 147.75 43.2764 147.594 43.4088C147.438 43.5412 147.264 43.6077 147.072 43.6083ZM151.634 43.5773C151.346 43.5782 151.13 43.4468 150.985 43.1832C150.852 42.9196 150.804 42.5537 150.839 42.0856C150.85 41.8816 150.885 41.5995 150.945 41.2393C151.004 40.8791 151.075 40.4769 151.158 40.0327C151.241 39.5764 151.324 39.1202 151.407 38.664C151.502 38.2077 151.585 37.7875 151.656 37.4033C151.739 37.019 151.805 36.7128 151.852 36.4847C151.971 35.8604 152.132 35.4039 152.335 35.1153C152.55 34.8147 152.862 34.6338 153.27 34.5727C153.654 34.5116 154.062 34.4684 154.494 34.4432C154.937 34.4059 155.375 34.3867 155.807 34.3855C156.131 34.3846 156.461 34.3956 156.798 34.4187C157.134 34.4297 157.446 34.4528 157.734 34.488C158.022 34.5232 158.25 34.5765 158.418 34.6481C158.562 34.7077 158.664 34.7974 158.725 34.9172C158.785 35.025 158.803 35.145 158.779 35.277C158.732 35.5172 158.582 35.6916 158.331 35.8003C158.079 35.909 157.809 35.9638 157.521 35.9646C157.269 35.9653 157.041 35.954 156.837 35.9306C156.633 35.9071 156.411 35.8898 156.171 35.8784C155.931 35.8551 155.613 35.844 155.217 35.8452C154.737 35.8465 154.329 35.8717 153.993 35.9206C153.657 35.9696 153.279 36.0426 152.859 36.1398L153.74 35.5613C153.645 35.8736 153.544 36.2159 153.436 36.5882C153.341 36.9485 153.24 37.3568 153.133 37.8131C153.026 38.2574 152.919 38.7617 152.812 39.326C152.694 39.9143 152.599 40.4726 152.528 41.0008C152.457 41.517 152.404 41.9552 152.369 42.3153C152.334 42.6754 152.304 42.9094 152.281 43.0175C152.245 43.2096 152.167 43.3478 152.048 43.4322C151.928 43.5285 151.79 43.5769 151.634 43.5773ZM6.73916 60.0065C6.37916 60.0075 5.98292 59.9006 5.55044 59.6858C5.11794 59.4591 4.69127 59.1603 4.27044 58.7895C3.86162 58.4186 3.48274 58.0237 3.1338 57.6047C2.79687 57.1857 2.53197 56.7844 2.33912 56.4009C2.21869 56.2093 2.1403 56.0355 2.10396 55.8796C2.07958 55.7117 2.07322 55.5497 2.08487 55.3937C2.12066 55.2976 2.16842 55.1894 2.22815 55.0693C2.28788 54.9491 2.36564 54.8409 2.46143 54.7446C2.605 54.5522 2.85042 54.2935 3.1977 53.9685C3.54498 53.6435 3.9462 53.2944 4.40137 52.9211C4.86851 52.5358 5.34772 52.1804 5.839 51.855C6.34225 51.5176 6.81563 51.2402 7.25915 51.023C7.71467 50.8057 8.10442 50.6966 8.42842 50.6956C8.56042 50.6953 8.66249 50.725 8.73462 50.7848C8.81875 50.8445 8.87893 50.9224 8.91514 51.0183C8.95136 51.1142 8.96357 51.2101 8.95178 51.3062C8.94037 51.5702 8.76693 51.8227 8.43147 52.0636C8.09601 52.3046 7.7365 52.5276 7.35296 52.7327C6.66982 53.1186 6.06466 53.4984 5.53749 53.8719C5.01032 54.2454 4.58506 54.5766 4.2617 54.8655C3.95034 55.1544 3.7888 55.3588 3.77707 55.4789C3.75333 55.5989 3.8318 55.8087 4.01247 56.1082C4.19311 56.3957 4.46984 56.7249 4.84267 57.0958C5.21547 57.4548 5.65422 57.7895 6.15891 58.1001C6.38723 58.2435 6.60954 58.3808 6.82583 58.5122C7.0541 58.6316 7.23438 58.7571 7.36667 58.8887C7.51094 59.0083 7.57725 59.1461 7.56559 59.3021C7.55389 59.4342 7.51215 59.5543 7.44039 59.6625C7.36864 59.7707 7.26682 59.855 7.13496 59.9154C7.01509 59.9757 6.88316 60.0061 6.73916 60.0065ZM0.745144 60.0055C0.433144 60.0064 0.222804 59.851 0.114108 59.5393C0.00538588 59.2156 -0.0256432 58.7537 0.0210198 58.1535C0.0796569 57.5414 0.192014 56.803 0.358084 55.9386C0.429284 55.5784 0.512444 55.2001 0.607564 54.8039C0.714674 54.4075 0.821794 54.0112 0.928914 53.6149C1.036 53.2066 1.12512 52.8104 1.19626 52.4262C1.22005 52.3301 1.23783 52.2341 1.24962 52.138C1.27338 52.03 1.29114 51.9219 1.3029 51.8139C1.35036 51.5737 1.41592 51.3755 1.49957 51.2193C1.58323 51.0631 1.67896 50.9428 1.78677 50.8585C1.90656 50.7622 2.02645 50.7138 2.14645 50.7135C2.42245 50.7127 2.63873 50.8381 2.79529 51.0896C2.96382 51.3292 3.00058 51.6711 2.90557 52.1153C2.84624 52.4155 2.75107 52.7878 2.62006 53.2321C2.50102 53.6645 2.37601 54.1088 2.24503 54.5652C2.11404 55.0216 2.01294 55.4239 1.94172 55.7721C1.83511 56.3964 1.75235 56.9546 1.69345 57.4468C1.64654 57.9389 1.61745 58.347 1.60617 58.671C1.59487 58.9831 1.57135 59.1991 1.53562 59.3192C1.51194 59.4633 1.45822 59.5895 1.37446 59.6977C1.30267 59.7939 1.21283 59.8662 1.10494 59.9145C1.00908 59.9747 0.889144 60.0051 0.745144 60.0055ZM9.12096 60.0177C8.95296 60.0182 8.82084 59.9646 8.7246 59.8568C8.64038 59.7611 8.58609 59.6292 8.56171 59.4613C8.52534 59.2934 8.53094 59.1134 8.57851 58.9213C8.62603 58.7051 8.73939 58.4168 8.91859 58.0563C9.10976 57.6837 9.34882 57.2691 9.63582 56.8122C9.92282 56.3434 10.2217 55.8746 10.5327 55.4057C10.8676 54.9127 11.2085 54.4258 11.5554 53.9448C11.9143 53.4518 12.2553 53.0128 12.5785 52.6279C12.9016 52.231 13.1709 51.9182 13.3864 51.6896C13.7216 51.3526 14.0391 51.1057 14.3387 50.9489C14.6504 50.78 14.9622 50.6951 15.2742 50.6942C15.5622 50.6934 15.7604 50.7948 15.8689 50.9985C15.9773 51.1902 16.0618 51.436 16.1225 51.7358C16.1832 52.0477 16.238 52.4135 16.2869 52.8334C16.3359 53.2532 16.3908 53.6851 16.4518 54.1289C16.5128 54.5607 16.5857 54.9805 16.6706 55.3883C16.7678 55.892 16.8587 56.3238 16.9435 56.6835C17.0403 57.0432 17.131 57.349 17.2156 57.6007C17.3121 57.8525 17.4026 58.0682 17.487 58.248C17.5714 58.4037 17.6377 58.5416 17.6859 58.6614C17.7342 58.7813 17.7525 58.9072 17.7408 59.0393C17.7291 59.1953 17.6815 59.3454 17.5978 59.4897C17.5141 59.6339 17.4063 59.7422 17.2745 59.8146C17.1547 59.8989 17.0168 59.9413 16.8608 59.9418C16.6328 59.9424 16.4285 59.835 16.2481 59.6195C16.0796 59.392 15.9289 59.0864 15.796 58.7028C15.6632 58.3192 15.5422 57.9055 15.4333 57.4618C15.3726 57.186 15.2938 56.8202 15.1968 56.3645C15.1118 55.8967 15.0266 55.3929 14.9414 54.8532C14.8562 54.3014 14.783 53.7736 14.7219 53.2698C14.6728 52.7659 14.6419 52.346 14.6291 52.0101L14.9894 52.153C14.6541 52.466 14.289 52.863 13.8941 53.3442C13.5111 53.8132 13.1103 54.3364 12.6916 54.9136C12.2849 55.4907 11.8842 56.0919 11.4896 56.717C11.107 57.3421 10.7544 57.9671 10.4318 58.592C10.1688 59.0607 9.94162 59.4154 9.75012 59.6559C9.57072 59.8964 9.36092 60.017 9.12096 60.0177ZM22.0535 64.463C21.3215 64.4651 20.7033 64.3949 20.199 64.2523C19.6947 64.1217 19.3283 63.9368 19.0997 63.6974C18.8712 63.4581 18.7866 63.2003 18.846 62.9241C18.9291 62.5039 19.1866 62.2932 19.6186 62.2919C19.7626 62.2915 19.8947 62.3212 20.0148 62.3808C20.135 62.4405 20.2731 62.5061 20.4293 62.5776C20.5854 62.6612 20.8016 62.7326 21.0777 62.7918C21.3659 62.851 21.7439 62.8799 22.2119 62.8786C22.7879 62.877 23.2676 62.7496 23.6511 62.4965C24.0345 62.2434 24.3397 61.8886 24.5667 61.4319C24.8057 60.9752 24.9845 60.4467 25.1032 59.8464C25.1744 59.4982 25.2216 59.156 25.2449 58.82C25.2801 58.4839 25.3153 58.1238 25.3505 57.7397C25.3856 57.3556 25.4326 56.9114 25.4915 56.4073C25.5504 55.8911 25.645 55.2848 25.7755 54.5885L26.3346 55.1089C25.9525 55.938 25.57 56.617 25.1872 57.1461C24.8043 57.6632 24.4332 58.0663 24.0739 58.3553C23.7145 58.6323 23.3729 58.8253 23.0491 58.9342C22.7374 59.0311 22.4555 59.0799 22.2035 59.0806C21.1595 59.0836 20.4325 58.6536 20.0226 57.7908C19.6126 56.9159 19.5975 55.518 19.9773 53.5969C20.1315 52.7925 20.2861 52.186 20.4412 51.7776C20.6083 51.3691 20.7817 51.0926 20.9614 50.9481C21.141 50.8036 21.3269 50.7311 21.5189 50.7305C21.8069 50.7297 21.9931 50.8312 22.0775 51.0349C22.162 51.2387 22.1328 51.6048 21.99 52.1332C21.7997 52.8897 21.6513 53.5981 21.5447 54.2585C21.4382 54.9068 21.3914 55.4769 21.4045 55.9689C21.4176 56.4608 21.4965 56.8446 21.6411 57.1202C21.7857 57.3838 22.02 57.5151 22.344 57.5142C22.848 57.5128 23.3394 57.2534 23.8183 56.736C24.2971 56.2067 24.7455 55.4974 25.1635 54.6082C25.5935 53.707 25.9813 52.6979 26.3268 51.5809C26.434 51.2446 26.5415 51.0223 26.6493 50.914C26.757 50.7937 26.9249 50.7332 27.1529 50.7325C27.3209 50.7321 27.471 50.7856 27.6032 50.8933C27.7475 51.0008 27.8319 51.1926 27.8565 51.4685C27.8931 51.7324 27.8399 52.0926 27.6969 52.549C27.5183 53.1615 27.3815 53.7079 27.2866 54.1882C27.2037 54.6684 27.1447 55.1306 27.1097 55.5747C27.0746 56.0068 27.0456 56.4509 27.0226 56.9069C27.0116 57.351 26.9767 57.8431 26.9179 58.3832C26.8591 58.9114 26.7645 59.5237 26.634 60.22C26.4204 61.3006 26.0863 62.1476 25.6317 62.7609C25.1891 63.3861 24.662 63.8256 24.0506 64.0794C23.4392 64.3331 22.7735 64.461 22.0535 64.463ZM33.389 59.9309C32.597 59.9331 31.9486 59.767 31.4439 59.4324C30.9511 59.0858 30.5901 58.6128 30.3607 58.0135C30.1434 57.4021 30.0338 56.7004 30.032 55.9084C30.0303 55.1044 30.1183 54.2401 30.2963 53.3156C30.4504 52.4872 30.6768 51.7425 30.9753 51.0817C31.2738 50.4088 31.6085 49.8259 31.9794 49.3328C32.3623 48.8277 32.7634 48.4126 33.1826 48.0874C33.6019 47.7622 34.0214 47.521 34.441 47.3638C35.0046 47.1582 35.5682 47.0126 36.1321 46.927C36.7079 46.8414 37.2237 46.7499 37.6794 46.6526C38.2072 46.5432 38.6569 46.4219 39.0286 46.2888C39.4003 46.1558 39.6822 46.089 39.8742 46.0884C40.0182 46.088 40.1503 46.1236 40.2704 46.1953C40.4026 46.2669 40.4988 46.3686 40.5591 46.5005C40.6194 46.6203 40.6317 46.7643 40.5961 46.9324C40.5605 47.1365 40.4349 47.3108 40.2192 47.4554C40.0035 47.5881 39.7338 47.6968 39.41 47.7817C38.7624 47.9636 38.1687 48.0913 37.6288 48.1648C37.101 48.2263 36.6151 48.2877 36.1712 48.3489C35.7273 48.3982 35.2956 48.5134 34.876 48.6946C34.4683 48.8518 34.067 49.1349 33.6719 49.544C33.2888 49.9411 32.9419 50.4401 32.6312 51.041C32.3325 51.6298 32.112 52.2965 31.9697 53.0409C31.7205 54.3256 31.6089 55.3699 31.6346 56.1738C31.6724 56.9657 31.8537 57.5472 32.1785 57.9183C32.5154 58.2893 32.9838 58.474 33.5838 58.4723C33.9918 58.4712 34.4055 58.368 34.8251 58.1628C35.2446 57.9456 35.634 57.6625 35.9932 57.3135C36.3644 56.9644 36.6756 56.5855 36.9267 56.1768C37.1897 55.7561 37.3568 55.3476 37.4279 54.9514C37.523 54.5191 37.5162 54.1531 37.4075 53.8534C37.3108 53.5417 37.1183 53.3083 36.8299 53.1531C36.5416 52.9859 36.1574 52.903 35.6774 52.9044C35.0414 52.9062 34.3278 53.0882 33.5366 53.4504C32.7574 53.8126 31.9726 54.3609 31.1822 55.0951L30.6047 54.4128C31.0952 53.7274 31.6519 53.1678 32.275 52.734C32.898 52.2882 33.5453 51.9624 34.2168 51.7565C34.8883 51.5386 35.5241 51.4288 36.1241 51.4271C36.8561 51.425 37.4684 51.5613 37.961 51.8359C38.4536 52.0985 38.8024 52.4815 39.0076 52.9849C39.2127 53.4883 39.2321 54.1123 39.0657 54.8567C38.9351 55.4811 38.6905 56.0938 38.3318 56.6948C37.9851 57.2838 37.5543 57.825 37.0394 58.3185C36.5245 58.8 35.9554 59.1916 35.332 59.4934C34.7087 59.7831 34.061 59.929 33.389 59.9309ZM44.8391 59.9164C43.8551 59.9192 43.0446 59.7055 42.4077 59.2753C41.7827 58.8451 41.3494 58.2643 41.1078 57.533C40.8781 56.7896 40.8523 55.9437 41.0301 54.9952C41.1607 54.3228 41.3873 53.7342 41.7102 53.2292C42.0451 52.7123 42.4161 52.2792 42.8233 51.9301C43.2425 51.5809 43.662 51.3217 44.0816 51.1525C44.5012 50.9713 44.861 50.8803 45.161 50.8794C45.293 50.8791 45.401 50.8968 45.4851 50.9325C45.5812 50.9682 45.6533 51.028 45.7015 51.1119C45.7617 51.1837 45.7799 51.2857 45.7562 51.4178C45.6967 51.6579 45.6012 51.8802 45.4697 52.0846C45.3381 52.2769 45.0925 52.4516 44.7328 52.6087C44.3013 52.8139 43.9358 53.0429 43.6364 53.2958C43.3489 53.5366 43.1155 53.8193 42.9363 54.1438C42.757 54.4563 42.6318 54.8346 42.5608 55.2788C42.3709 56.2514 42.4867 57.0311 42.908 57.6179C43.3293 58.1927 43.9719 58.4788 44.8359 58.4764C45.6759 58.474 46.4072 58.1719 47.0299 57.5702C47.6645 56.9564 48.0767 56.1452 48.2665 55.1366C48.4564 54.2121 48.3948 53.4923 48.0817 52.9772C47.7685 52.45 47.2519 52.1875 46.5319 52.1896C46.1599 52.1906 45.8421 52.2635 45.5784 52.4083C45.3267 52.553 45.0511 52.7458 44.7517 52.9866C44.5361 53.1672 44.3624 53.3297 44.2308 53.4741C44.0991 53.6185 43.9793 53.7328 43.8715 53.8171C43.7757 53.8894 43.6498 53.9257 43.4938 53.9262C43.3258 53.9267 43.1937 53.873 43.0974 53.7653C43.0131 53.6455 42.9947 53.4596 43.0422 53.2075C43.0896 52.9313 43.2269 52.6489 43.4543 52.3603C43.6936 52.0716 43.9811 51.8068 44.3165 51.5658C44.664 51.3129 45.0355 51.1138 45.4312 50.9687C45.8268 50.8116 46.2167 50.7324 46.6007 50.7314C47.4647 50.7289 48.1671 50.9309 48.708 51.3374C49.2489 51.7318 49.6161 52.2828 49.8097 52.9903C50.0033 53.6857 50.005 54.4897 49.8151 55.4023C49.6491 56.3027 49.3268 57.0956 48.8484 57.781C48.3699 58.4544 47.783 58.978 47.0879 59.352C46.4047 59.7259 45.6551 59.9141 44.8391 59.9164ZM54.2973 59.9616C53.6853 59.9633 53.187 59.8387 52.8024 59.5878C52.4299 59.3369 52.1531 59.0136 51.9723 58.6181C51.8034 58.2106 51.7064 57.7729 51.6813 57.305C51.6683 56.825 51.7032 56.3569 51.7862 55.9007C51.8931 55.3964 52.0479 54.8499 52.2506 54.2613C52.4652 53.6727 52.704 53.108 52.9668 52.5673C53.2296 52.0146 53.4925 51.5578 53.7557 51.1971C53.9112 50.9806 54.1029 50.8181 54.3306 50.7094C54.5704 50.6007 54.8043 50.5461 55.0323 50.5454C55.1763 50.545 55.2784 50.5927 55.3386 50.6886C55.3988 50.7724 55.4111 50.8924 55.3754 51.0485C55.3398 51.2286 55.2383 51.4569 55.0709 51.7333C54.9155 52.0098 54.7243 52.3463 54.4972 52.743C54.2821 53.1396 54.0671 53.6142 53.8523 54.1668C53.6376 54.7074 53.459 55.3439 53.3166 56.0763C53.1623 56.8448 53.1817 57.4567 53.3747 57.9122C53.5677 58.3676 53.9702 58.5945 54.5822 58.5927C55.0382 58.5914 55.4939 58.4702 55.9494 58.2289C56.4049 57.9876 56.8061 57.6624 57.1532 57.2534C57.5123 56.8324 57.7512 56.3637 57.8701 55.8474L58.0689 56.1888C57.7686 56.0697 57.4084 55.9807 56.9883 55.9219C56.5801 55.8511 56.142 55.8043 55.6739 55.7816C55.2179 55.7469 54.7679 55.7422 54.3239 55.7675C53.8799 55.7807 53.484 55.8178 53.1362 55.8788L53.3675 54.6902C53.9915 54.6764 54.5793 54.6027 55.131 54.4692C55.6947 54.3236 56.1923 54.1362 56.6238 53.9069C57.0673 53.6777 57.4267 53.4367 57.7022 53.1839C57.9776 52.9191 58.133 52.6726 58.1685 52.4445C58.2041 52.2764 58.1619 52.1446 58.0416 52.0489C57.9214 51.9412 57.7293 51.8878 57.4653 51.8885C57.1413 51.8895 56.7994 51.9384 56.4396 52.0354C56.0918 52.1324 55.7201 52.2535 55.3244 52.3986C54.9287 52.5437 54.5091 52.6949 54.0654 52.8522C53.8855 52.9007 53.7355 52.8771 53.6153 52.7815C53.507 52.6858 53.4708 52.5659 53.5065 52.4218C53.5421 52.2537 53.6557 52.0973 53.8474 51.9528C54.0511 51.7962 54.2428 51.6817 54.4227 51.6092C55.1538 51.2231 55.8312 50.9572 56.4549 50.8114C57.0905 50.6536 57.6784 50.5739 58.2183 50.5724C58.6503 50.5712 59.0045 50.6362 59.2808 50.7674C59.5691 50.8986 59.7735 51.078 59.894 51.3056C60.0265 51.5333 60.0631 51.7912 60.0037 52.0793C59.9326 52.4635 59.7534 52.83 59.4662 53.1789C59.1789 53.5277 58.8137 53.8527 58.3703 54.154C57.939 54.4432 57.4655 54.6905 56.95 54.896C56.4344 55.1015 55.8948 55.253 55.331 55.3506L55.4195 54.6664C55.9834 54.6408 56.5054 54.6393 56.9855 54.6619C57.4775 54.6845 57.9096 54.7373 58.2818 54.8202C58.654 54.9032 58.9363 55.0404 59.1287 55.2318C59.3331 55.4113 59.4297 55.651 59.4183 55.951C59.3954 56.4311 59.2285 56.9116 58.9175 57.3924C58.6186 57.8613 58.2175 58.2884 57.7144 58.6739C57.2233 59.0593 56.678 59.3728 56.0785 59.6145C55.491 59.8442 54.8973 59.9599 54.2973 59.9616ZM69.1303 59.8295C68.7223 59.8306 68.3981 59.7355 68.1576 59.5442C67.9292 59.3529 67.7606 59.1014 67.6519 58.7897C67.5432 58.466 67.4884 58.1181 67.4876 57.7461C67.4988 57.3621 67.5399 56.99 67.6111 56.6298C67.6824 56.3176 67.7776 55.9453 67.8966 55.513C68.0277 55.0806 68.1707 54.6302 68.3256 54.1617C68.4806 53.6933 68.6296 53.2549 68.7727 52.8465C68.9278 52.438 69.0531 52.1197 69.1486 51.8914C69.3036 51.4709 69.4409 51.1466 69.5604 50.9182C69.6919 50.6898 69.8476 50.5754 70.0276 50.5749C70.1836 50.5744 70.3278 50.628 70.46 50.7357C70.5922 50.8433 70.6886 50.981 70.7489 51.1488C70.8213 51.3166 70.8397 51.5026 70.8042 51.7067C70.7686 51.8988 70.6852 52.175 70.554 52.5354C70.4228 52.8958 70.2737 53.2982 70.1067 53.7427C69.9397 54.1872 69.7787 54.6376 69.6237 55.0941C69.4687 55.5385 69.3556 55.9408 69.2844 56.301C69.2131 56.6252 69.1658 56.9374 69.1425 57.2374C69.1191 57.5255 69.1317 57.7655 69.1801 57.9573C69.2285 58.1372 69.3307 58.2269 69.4867 58.2265C69.8707 58.2254 70.3559 57.882 70.9424 57.1963C71.5409 56.5106 72.2048 55.5667 72.9341 54.3647C73.2689 53.8357 73.5618 53.3429 73.8128 52.8862C74.0638 52.4294 74.2849 52.0328 74.4762 51.6963C74.6674 51.3477 74.8528 51.0772 75.0323 50.8847C75.2119 50.6922 75.3917 50.5957 75.5717 50.5952C75.8477 50.5944 76.0459 50.7018 76.1664 50.9175C76.2989 51.1211 76.3595 51.3969 76.3483 51.745C76.349 52.057 76.3378 52.441 76.3148 52.8971C76.3039 53.3531 76.2929 53.8211 76.282 54.3012C76.271 54.7692 76.272 55.2072 76.2849 55.6152C76.3224 56.3111 76.3897 56.8809 76.4867 57.3246C76.5957 57.7563 76.6924 58.104 76.777 58.3678C76.8616 58.6315 76.8981 58.8474 76.8865 59.0155C76.8748 59.1475 76.833 59.2736 76.7613 59.3938C76.6895 59.502 76.5997 59.5923 76.4919 59.6646C76.3841 59.7369 76.2642 59.7732 76.1322 59.7736C75.7122 59.7748 75.4115 59.4997 75.2303 58.9482C75.0491 58.3967 74.9094 57.6591 74.8114 56.7353C74.7864 56.3034 74.7614 55.8415 74.7363 55.3496C74.7232 54.8576 74.7221 54.3656 74.733 53.8736C74.7559 53.3815 74.7789 52.9254 74.802 52.5054L75.3244 52.6839C75.1213 53.1045 74.8823 53.5671 74.6074 54.0719C74.3326 54.5767 73.956 55.2198 73.4777 56.0011C73.0712 56.6503 72.6286 57.2695 72.1499 57.8589C71.6712 58.4363 71.1742 58.9117 70.6591 59.2851C70.1559 59.6466 69.6463 59.828 69.1303 59.8295ZM81.828 59.7394C81.348 59.7408 80.8979 59.6941 80.4776 59.5993C80.0694 59.4924 79.7091 59.3495 79.3967 59.1703C79.0963 58.9912 78.8618 58.7759 78.6933 58.5243C78.5367 58.2728 78.4701 58.003 78.4934 57.7149C78.505 57.5109 78.5706 57.3427 78.6903 57.2103C78.822 57.066 78.9658 56.9936 79.1218 56.9931C79.2658 56.9927 79.392 57.0643 79.5003 57.208C79.6206 57.3397 79.765 57.5013 79.9334 57.6928C80.1138 57.8723 80.3602 58.0336 80.6725 58.1767C80.9848 58.3078 81.4169 58.3726 81.9689 58.371C82.7729 58.3688 83.3846 58.223 83.8039 57.9338C84.2353 57.6326 84.4505 57.296 84.4497 56.924C84.4612 56.72 84.3769 56.5462 84.1965 56.4027C84.0282 56.2472 83.7699 56.1159 83.4217 56.0089C83.0734 55.8899 82.6172 55.7892 82.053 55.7068C81.5969 55.6481 81.3027 55.5589 81.1704 55.4393C81.0501 55.3076 81.0017 55.1518 81.0253 54.9717C81.0369 54.7797 81.1566 54.6473 81.3845 54.5747C81.6123 54.502 81.9961 54.417 82.5359 54.3194C83.2436 54.1974 83.8072 54.0158 84.2267 53.7746C84.6581 53.5334 84.8795 53.2448 84.8908 52.9087C84.902 52.5847 84.7515 52.3391 84.4391 52.172C84.1267 51.9929 83.7065 51.9041 83.1785 51.9056C82.5785 51.9073 82.0807 51.9867 81.685 52.1438C81.2894 52.2889 80.9717 52.4398 80.7321 52.5965C80.5044 52.7532 80.3246 52.8317 80.1926 52.8321C80.0606 52.8324 79.9585 52.7847 79.8863 52.6889C79.826 52.5931 79.8018 52.4792 79.8135 52.3471C79.825 52.1311 79.9205 51.9148 80.1 51.6983C80.2916 51.4818 80.5431 51.2831 80.8547 51.1022C81.1783 50.9213 81.556 50.7822 81.9878 50.685C82.4316 50.5757 82.9114 50.5203 83.4274 50.5189C84.4834 50.5159 85.2638 50.7057 85.7687 51.0882C86.2856 51.4708 86.5327 51.9981 86.5102 52.6701C86.4871 53.0422 86.3379 53.4086 86.0627 53.7694C85.7995 54.1182 85.4041 54.4193 84.8767 54.6728C84.3492 54.9143 83.6776 55.0722 82.8617 55.1465L82.8431 54.8765C83.5871 54.8744 84.1933 54.9507 84.6616 55.1054C85.142 55.248 85.4905 55.475 85.7072 55.7864C85.9358 56.0858 86.0387 56.4635 86.0157 56.9196C86.0049 57.4476 85.8019 57.9282 85.4069 58.3613C85.0238 58.7824 84.5146 59.1198 83.8792 59.3736C83.2437 59.6154 82.56 59.7374 81.828 59.7394ZM103.587 59.6957C103.323 59.6965 103.131 59.589 103.01 59.3734C102.89 59.1457 102.781 58.768 102.684 58.2403C102.599 57.8085 102.531 57.2747 102.482 56.6388C102.445 56.0029 102.425 55.331 102.423 54.623C102.434 53.903 102.462 53.2249 102.509 52.5887C102.579 51.8085 102.632 51.1424 102.666 50.5903C102.713 50.0382 102.724 49.6001 102.7 49.2762C102.687 48.9402 102.632 48.6944 102.536 48.5387C102.44 48.3829 102.283 48.3054 102.067 48.306C101.743 48.3069 101.33 48.5661 100.827 49.0835C100.336 49.5889 99.7979 50.3104 99.2119 51.2481C98.6259 52.1858 98.0344 53.3094 97.4374 54.6191C96.8402 55.9168 96.2795 57.3644 95.755 58.9619C95.6716 59.2022 95.564 59.3885 95.4323 59.5209C95.3005 59.6412 95.1447 59.7017 94.9647 59.7022C94.6887 59.703 94.4905 59.6135 94.3701 59.4339C94.2497 59.2422 94.2369 58.9062 94.3318 58.426C94.4743 57.7296 94.6767 57.039 94.9392 56.3542C95.2137 55.6575 95.5121 54.9606 95.8346 54.2637C96.157 53.5548 96.4614 52.8459 96.7478 52.1371C97.0463 51.4282 97.2907 50.7195 97.4811 50.011C97.5286 49.7949 97.6062 49.6266 97.714 49.5063C97.8337 49.374 97.9775 49.3076 98.1455 49.3071C98.3135 49.3066 98.4636 49.3542 98.5958 49.4498C98.7401 49.5454 98.8544 49.6951 98.9388 49.8989L98.2553 50.0988C99.0088 48.9687 99.6969 48.1327 100.32 47.5909C100.955 47.0491 101.59 46.7773 102.226 46.7755C102.922 46.7736 103.414 46.9762 103.703 47.3833C103.992 47.7905 104.15 48.4141 104.176 49.254C104.201 50.0939 104.156 51.1861 104.039 52.5304C103.945 53.5267 103.917 54.3848 103.955 55.1047C103.992 55.8246 104.042 56.4364 104.103 56.9402C104.176 57.444 104.237 57.8639 104.285 58.1997C104.334 58.5356 104.335 58.8296 104.287 59.0817C104.252 59.2738 104.168 59.4241 104.036 59.5324C103.917 59.6408 103.767 59.6952 103.587 59.6957ZM94.6509 56.1931C94.3869 56.1938 94.2007 56.1343 94.0925 56.0146C93.9842 55.8949 93.9539 55.745 94.0015 55.5649C94.0251 55.4088 94.0908 55.2826 94.1986 55.1863C94.3184 55.078 94.5042 54.9815 94.756 54.8968C96.1469 54.4008 97.7001 54.0364 99.4159 53.8035C101.143 53.5706 102.985 53.4514 104.941 53.4459C105.361 53.4447 105.631 53.5039 105.751 53.6236C105.884 53.7432 105.926 53.9171 105.878 54.1452C105.831 54.3853 105.675 54.5898 105.412 54.7585C105.148 54.9153 104.8 54.9943 104.368 54.9955C102.988 54.9994 101.818 55.0447 100.859 55.1314C99.9109 55.2061 99.1129 55.3044 98.4652 55.4262C97.8174 55.5361 97.2657 55.6516 96.8099 55.7729C96.3662 55.8942 95.9764 55.9973 95.6406 56.0822C95.3168 56.1552 94.9869 56.1921 94.6509 56.1931ZM108.08 59.719C107.792 59.7198 107.57 59.5944 107.413 59.3429C107.256 59.0913 107.16 58.7436 107.123 58.2997C107.098 57.8438 107.144 57.3096 107.263 56.6973C107.358 56.277 107.459 55.9227 107.567 55.6344C107.686 55.3461 107.812 55.1177 107.943 54.9493C108.087 54.7689 108.237 54.6425 108.392 54.5701C108.524 54.4977 108.71 54.4552 108.95 54.4425C109.19 54.4178 109.442 54.4051 109.706 54.4043C110.582 54.4019 111.446 54.3574 112.298 54.271C113.161 54.1725 114.007 53.9901 114.834 53.7238L115.161 54.9649C114.538 55.2066 113.866 55.3885 113.146 55.5106C112.427 55.6326 111.695 55.7187 110.951 55.7688C110.219 55.8069 109.505 55.8269 108.809 55.8289L107.765 55.6698C107.872 55.1895 107.979 54.6972 108.086 54.1929C108.192 53.6886 108.293 53.1903 108.388 52.6981C108.495 52.2058 108.59 51.7555 108.673 51.3473C108.721 51.0591 108.816 50.8248 108.96 50.6444C109.103 50.464 109.265 50.3736 109.445 50.3731C109.745 50.3722 109.967 50.4916 110.112 50.7312C110.256 50.9588 110.275 51.3247 110.168 51.829C110.121 52.0932 110.05 52.4114 109.954 52.7836C109.859 53.1559 109.758 53.5462 109.651 53.9545C109.556 54.3628 109.461 54.753 109.366 55.1253C109.282 55.4855 109.217 55.7857 109.17 56.0259C109.027 56.7223 108.921 57.3466 108.85 57.8988C108.791 58.4389 108.738 58.8471 108.69 59.1232C108.655 59.2913 108.577 59.4296 108.457 59.5379C108.35 59.6582 108.224 59.7186 108.08 59.719ZM114.29 59.7014C113.99 59.7022 113.773 59.5288 113.641 59.1812C113.52 58.8335 113.465 58.3597 113.475 57.7597C113.498 57.1476 113.581 56.4754 113.723 55.7429C113.96 54.5903 114.168 53.6777 114.347 53.0052C114.537 52.3206 114.71 51.7801 114.865 51.3837C114.961 51.1194 115.08 50.8851 115.224 50.6807C115.367 50.4763 115.541 50.3738 115.745 50.3732C116.009 50.3724 116.195 50.4979 116.304 50.7496C116.424 50.9893 116.449 51.2832 116.378 51.6314C116.295 52.0636 116.164 52.532 115.985 53.0365C115.818 53.541 115.681 54.0874 115.575 54.6757C115.432 55.3961 115.332 56.0504 115.273 56.6386C115.226 57.2147 115.197 57.7008 115.186 58.0968C115.175 58.4928 115.146 58.7869 115.098 58.9791C115.063 59.1952 114.967 59.3694 114.811 59.5019C114.656 59.6343 114.482 59.7008 114.29 59.7014ZM118.851 59.6704C118.563 59.6712 118.347 59.5398 118.202 59.2763C118.07 59.0126 118.021 58.6468 118.056 58.1787C118.068 57.9746 118.103 57.6925 118.162 57.3324C118.221 56.9722 118.292 56.57 118.375 56.1257C118.458 55.6695 118.541 55.2133 118.624 54.757C118.719 54.3008 118.802 53.8805 118.874 53.4963C118.957 53.1121 119.022 52.8059 119.07 52.5778C119.188 51.9534 119.349 51.497 119.552 51.2084C119.768 50.9078 120.079 50.7269 120.487 50.6657C120.871 50.6046 121.279 50.5615 121.711 50.5363C122.155 50.499 122.593 50.4798 123.025 50.4785C123.505 50.4772 123.997 50.4998 124.501 50.5463C125.005 50.5809 125.383 50.6458 125.635 50.7411C125.78 50.8007 125.882 50.8904 125.942 51.0103C126.002 51.1181 126.021 51.238 125.997 51.3701C125.949 51.6102 125.8 51.7847 125.548 51.8934C125.296 52.0021 125.026 52.0569 124.738 52.0577C124.486 52.0584 124.258 52.047 124.054 52.0236C123.85 52.0002 123.628 51.9828 123.388 51.9715C123.148 51.9482 122.83 51.9371 122.434 51.9382C121.954 51.9396 121.546 51.9647 121.21 52.0137C120.874 52.0626 120.497 52.1357 120.077 52.2329L120.957 51.6544C120.803 52.1348 120.648 52.6693 120.493 53.2577C120.35 53.8461 120.196 54.5666 120.03 55.4191C119.911 56.0074 119.816 56.5657 119.746 57.0939C119.675 57.6101 119.622 58.0482 119.587 58.4083C119.551 58.7684 119.522 59.0025 119.498 59.1106C119.463 59.3027 119.385 59.4409 119.265 59.5252C119.145 59.6216 119.007 59.67 118.851 59.6704ZM124.714 59.6898C124.546 59.6903 124.414 59.6366 124.318 59.5289C124.234 59.4331 124.179 59.3013 124.155 59.1334C124.119 58.9655 124.124 58.7854 124.172 58.5933C124.219 58.3772 124.333 58.0889 124.512 57.7283C124.703 57.3558 124.942 56.9411 125.229 56.4843C125.516 56.0155 125.815 55.5466 126.126 55.0778C126.461 54.5848 126.802 54.0978 127.149 53.6168C127.508 53.1238 127.849 52.6849 128.172 52.2999C128.495 51.903 128.764 51.5903 128.98 51.3616C129.315 51.0247 129.632 50.7778 129.932 50.6209C130.244 50.4521 130.556 50.3672 130.868 50.3663C131.156 50.3655 131.354 50.4669 131.462 50.6706C131.571 50.8623 131.655 51.1081 131.716 51.4079C131.777 51.7197 131.831 52.0856 131.88 52.5054C131.929 52.9253 131.984 53.3571 132.045 53.801C132.106 54.2328 132.179 54.6526 132.264 55.0603C132.361 55.5641 132.452 55.9958 132.537 56.3556C132.634 56.7153 132.724 57.021 132.809 57.2728C132.906 57.5245 132.996 57.7403 133.08 57.92C133.165 58.0758 133.231 58.2136 133.279 58.3335C133.328 58.4533 133.346 58.5793 133.334 58.7113C133.323 58.8674 133.275 59.0175 133.191 59.1617C133.107 59.306 133 59.4143 132.868 59.4866C132.748 59.571 132.61 59.6134 132.454 59.6138C132.226 59.6145 132.022 59.507 131.841 59.2916C131.673 59.064 131.522 58.7585 131.389 58.3748C131.257 57.9912 131.136 57.5776 131.027 57.1339C130.966 56.858 130.887 56.4923 130.79 56.0365C130.705 55.5688 130.62 55.065 130.535 54.5252C130.45 53.9735 130.376 53.4457 130.315 52.9419C130.266 52.438 130.235 52.0181 130.222 51.6821L130.583 51.8251C130.248 52.1381 129.882 52.5351 129.487 53.0162C129.105 53.4853 128.704 54.0084 128.285 54.5856C127.878 55.1628 127.478 55.7639 127.083 56.389C126.7 57.0141 126.348 57.6391 126.025 58.2641C125.762 58.7328 125.535 59.0874 125.344 59.328C125.164 59.5685 124.954 59.6891 124.714 59.6898ZM136.841 59.6374C136.433 59.6385 136.109 59.5435 135.868 59.3521C135.64 59.1608 135.471 58.9093 135.363 58.5976C135.254 58.2739 135.199 57.926 135.198 57.554C135.21 57.17 135.251 56.7979 135.322 56.4377C135.393 56.1255 135.488 55.7532 135.607 55.3209C135.738 54.8885 135.881 54.4381 136.036 53.9696C136.191 53.5012 136.34 53.0628 136.483 52.6544C136.639 52.2459 136.764 51.9276 136.859 51.6993C137.014 51.2789 137.152 50.9545 137.271 50.7261C137.403 50.4977 137.558 50.3833 137.738 50.3828C137.894 50.3824 138.039 50.4359 138.171 50.5436C138.303 50.6512 138.399 50.7889 138.46 50.9567C138.532 51.1245 138.55 51.3105 138.515 51.5146C138.479 51.7067 138.396 51.9829 138.265 52.3433C138.134 52.7037 137.984 53.1061 137.817 53.5506C137.65 53.9951 137.489 54.4455 137.334 54.902C137.179 55.3464 137.066 55.7487 136.995 56.1089C136.924 56.4331 136.877 56.7453 136.853 57.0453C136.83 57.3334 136.842 57.5734 136.891 57.7652C136.939 57.9451 137.041 58.0348 137.197 58.0344C137.581 58.0333 138.067 57.6899 138.653 57.0042C139.252 56.3185 139.916 55.3746 140.645 54.1726C140.98 53.6436 141.273 53.1508 141.524 52.6941C141.775 52.2374 141.996 51.8407 142.187 51.5042C142.378 51.1556 142.564 50.8851 142.743 50.6926C142.923 50.5001 143.102 50.4036 143.282 50.4031C143.558 50.4023 143.757 50.5097 143.877 50.7254C144.01 50.929 144.07 51.2048 144.059 51.5529C144.06 51.8649 144.049 52.2489 144.026 52.705C144.015 53.161 144.004 53.629 143.993 54.1091C143.982 54.5771 143.983 55.0151 143.996 55.4231C144.033 56.119 144.1 56.6888 144.197 57.1325C144.306 57.5642 144.403 57.9119 144.488 58.1757C144.572 58.4394 144.609 58.6553 144.597 58.8234C144.586 58.9554 144.544 59.0815 144.472 59.2017C144.4 59.3099 144.311 59.4002 144.203 59.4725C144.095 59.5448 143.975 59.5811 143.843 59.5815C143.567 59.5823 143.339 59.4569 143.158 59.2055C142.99 58.9539 142.857 58.6003 142.76 58.1446C142.663 57.6889 142.584 57.1551 142.522 56.5432C142.497 56.1113 142.472 55.6494 142.447 55.1575C142.434 54.6655 142.433 54.1735 142.444 53.6815C142.467 53.1894 142.49 52.7333 142.513 52.3133L143.035 52.4918C142.892 52.7682 142.736 53.0626 142.569 53.3751C142.414 53.6875 142.223 54.0421 141.995 54.4387C141.78 54.8233 141.511 55.2801 141.189 55.809C140.782 56.4582 140.339 57.0774 139.861 57.6668C139.382 58.2442 138.885 58.7196 138.37 59.093C137.867 59.4545 137.357 59.6359 136.841 59.6374ZM148.425 59.6045C148.017 59.6057 147.693 59.5106 147.452 59.3193C147.224 59.1279 147.055 58.8764 146.947 58.5647C146.838 58.241 146.783 57.8932 146.782 57.5212C146.793 57.1371 146.835 56.765 146.906 56.4048C146.977 56.0926 147.072 55.7203 147.191 55.288C147.322 54.8556 147.465 54.4052 147.62 53.9368C147.775 53.4683 147.924 53.0299 148.067 52.6215C148.222 52.2131 148.348 51.8947 148.443 51.6664C148.598 51.246 148.736 50.9216 148.855 50.6933C148.987 50.4649 149.142 50.3504 149.322 50.3499C149.478 50.3495 149.622 50.4031 149.755 50.5107C149.887 50.6183 149.983 50.7561 150.044 50.9239C150.116 51.0917 150.134 51.2776 150.099 51.4817C150.063 51.6738 149.98 51.9501 149.849 52.3104C149.718 52.6708 149.568 53.0732 149.401 53.5177C149.234 53.9622 149.073 54.4127 148.918 54.8691C148.763 55.3135 148.65 55.7159 148.579 56.0761C148.508 56.4003 148.461 56.7124 148.437 57.0125C148.414 57.3005 148.426 57.5405 148.475 57.7324C148.523 57.9122 148.625 58.0019 148.781 58.0015C149.165 58.0004 149.651 57.657 150.237 56.9714C150.836 56.2857 151.499 55.3418 152.229 54.1397C152.564 53.6107 152.857 53.1179 153.108 52.6612C153.358 52.2045 153.58 51.8079 153.771 51.4713C153.962 51.1228 154.147 50.8522 154.327 50.6597C154.507 50.4672 154.686 50.3707 154.866 50.3702C155.142 50.3694 155.341 50.4769 155.461 50.6925C155.594 50.8961 155.654 51.172 155.643 51.52C155.644 51.832 155.633 52.216 155.61 52.6721C155.599 53.1281 155.588 53.5962 155.577 54.0762C155.566 54.5442 155.567 54.9822 155.58 55.3902C155.617 56.0861 155.684 56.6559 155.781 57.0996C155.89 57.5313 155.987 57.8791 156.072 58.1428C156.156 58.4066 156.193 58.6225 156.181 58.7905C156.169 58.9225 156.128 59.0487 156.056 59.1689C155.984 59.2771 155.894 59.3673 155.787 59.4396C155.679 59.5119 155.559 59.5483 155.427 59.5486C155.007 59.5498 154.706 59.2747 154.525 58.7232C154.344 58.1717 154.204 57.4341 154.106 56.5104C154.081 56.0785 154.056 55.6165 154.031 55.1246C154.018 54.6326 154.017 54.1406 154.028 53.6486C154.051 53.1565 154.074 52.7005 154.097 52.2804L154.619 52.4589C154.416 52.8795 154.177 53.3422 153.902 53.847C153.627 54.3517 153.251 54.9948 152.772 55.7762C152.366 56.4253 151.923 57.0446 151.445 57.6339C150.966 58.2113 150.469 58.6867 149.954 59.0602C149.451 59.4216 148.941 59.603 148.425 59.6045Z" fill="#FFFCFF"/>
<path d="M23.376 166.695C22.8325 166.597 22.4719 166.076 22.5705 165.533L24.177 156.678C24.2756 156.134 24.7961 155.774 25.3395 155.872C25.8829 155.971 26.2435 156.491 26.1449 157.035L24.7169 164.906L32.5884 166.334C33.1318 166.433 33.4924 166.953 33.3939 167.497C33.2953 168.04 32.7748 168.401 32.2314 168.302L23.376 166.695ZM46.8287 82.6562C46.0546 94.9895 47.6245 103.542 50.1968 109.612L48.3553 110.392C45.6311 103.963 44.0447 95.084 44.8326 82.5309L46.8287 82.6562ZM50.1968 109.612C53.2111 116.724 57.6412 120.522 61.5038 123.027C63.5085 124.326 65.1933 125.183 66.7225 126.117C67.4478 126.559 68.1164 127.009 68.6551 127.496C69.1945 127.983 69.6574 128.553 69.8948 129.25C70.3976 130.727 69.7403 132.232 68.3974 133.849C67.0303 135.495 64.723 137.537 61.2839 140.211C54.3889 145.572 42.6846 153.673 24.124 166.533L22.9849 164.89C41.5741 152.009 53.2168 143.95 60.0562 138.632C63.4844 135.966 65.6412 134.038 66.8588 132.572C68.1007 131.076 68.1488 130.328 68.0015 129.895C67.9139 129.637 67.7128 129.339 67.3149 128.98C66.9162 128.62 66.3741 128.247 65.6807 127.824C64.3725 127.025 62.3882 125.984 60.4158 124.705C56.3242 122.052 51.5685 117.974 48.3553 110.392L50.1968 109.612ZM46.7977 83.0075C45.9005 95.2529 47.5128 103.663 50.1876 109.59L48.3646 110.413C45.5175 104.104 43.8886 95.3412 44.8031 82.8613L46.7977 83.0075ZM50.1876 109.59C53.2365 116.346 57.7125 119.979 61.67 122.407C63.7142 123.661 65.4669 124.511 67.0521 125.425C67.8094 125.861 68.5085 126.304 69.082 126.779C69.6544 127.254 70.1552 127.806 70.4497 128.478C71.0878 129.934 70.5757 131.458 69.3323 133.094C68.0837 134.736 65.9089 136.751 62.6304 139.367C56.054 144.613 44.7527 152.491 26.7043 164.925L25.5696 163.278C43.644 150.826 54.8749 142.995 61.3831 137.803C64.6469 135.2 66.6525 133.314 67.7402 131.883C68.8332 130.446 68.8134 129.727 68.6178 129.28C68.4954 129.001 68.2478 128.686 67.805 128.319C67.3632 127.952 66.7803 127.576 66.0535 127.158C64.6705 126.361 62.6468 125.353 60.6242 124.112C56.4482 121.55 51.6292 117.647 48.3646 110.413L50.1876 109.59Z" fill="#FFFCFF"/>
</svg>
