<svg width="154" height="153" viewBox="0 0 154 153" fill="none" xmlns="http://www.w3.org/2000/svg">
<path d="M14.7797 31.0773C14.5488 31.143 14.3412 31.1148 14.1567 30.9927C13.9804 30.8557 13.815 30.647 13.6603 30.3667C13.5534 30.1226 13.4103 29.7516 13.2311 29.2537C13.0519 28.7557 12.8538 28.1695 12.6369 27.4952C12.4166 26.8093 12.189 26.0755 11.954 25.294C11.7273 24.4977 11.5031 23.6881 11.2813 22.8654C11.0678 22.0278 10.8757 21.2216 10.705 20.4468L11.2564 20.3459C11.23 20.4283 11.1688 20.6516 11.0729 21.0158C10.9885 21.3767 10.8735 21.8274 10.7279 22.3679C10.5791 22.8969 10.4203 23.4786 10.2516 24.113C10.0829 24.7475 9.9117 25.3951 9.738 26.0559C9.5643 26.7168 9.3939 27.3454 9.2269 27.942C9.0681 28.5237 8.9217 29.0395 8.7878 29.4894C8.6654 29.9359 8.5687 30.2754 8.4976 30.5078C8.3604 30.9461 8.21 31.2946 8.0466 31.5532C7.8832 31.8118 7.6572 31.9822 7.3687 32.0644C7.1494 32.1268 6.9442 32.0854 6.7531 31.9402C6.5621 31.7949 6.3769 31.517 6.1976 31.1064C6.00021 30.676 5.7815 30.1269 5.54146 29.4591C5.29814 28.7798 5.04993 28.0395 4.79683 27.2382C4.54045 26.4253 4.29397 25.6034 4.05738 24.7724C3.82905 23.9266 3.61963 23.1253 3.42913 22.3685L3.86674 22.3937C3.68343 22.7578 3.49761 23.1788 3.30925 23.6566C3.13244 24.1312 2.95971 24.642 2.79108 25.1891C2.63069 25.7213 2.4835 26.2561 2.34948 26.7933C2.21547 27.3305 2.10045 27.8249 2.00443 28.2765C1.8652 29.1022 1.76556 29.8916 1.70552 30.6448C1.65374 31.3832 1.62512 32.0277 1.61966 32.5783C1.62246 33.114 1.62787 33.5054 1.63588 33.7527C1.639 33.939 1.61576 34.1203 1.56614 34.2966C1.51653 34.4729 1.43974 34.6195 1.33579 34.7365C1.23184 34.8534 1.09907 34.9349 0.937488 34.9809C0.729748 35.04 0.532828 34.9838 0.346718 34.8122C0.172158 34.6373 0.0702179 34.3669 0.0408879 34.0009C0.0147679 33.7339 0.00114796 33.3135 2.79598e-05 32.7399C-0.00108204 32.1663 0.0308579 31.4897 0.0958679 30.7101C0.160878 29.9305 0.279508 29.0982 0.451758 28.2132C0.575998 27.554 0.729088 26.8866 0.911028 26.2109C1.10452 25.532 1.31363 24.886 1.53837 24.2731C1.75983 23.6486 1.98782 23.0908 2.22234 22.5998C2.45357 22.0973 2.68224 21.6953 2.90834 21.3939C3.13115 21.0809 3.33489 20.8981 3.51955 20.8456C3.77346 20.7733 3.99844 20.7966 4.19448 20.9154C4.40206 21.031 4.57826 21.2117 4.72309 21.4574C4.86791 21.7031 4.97891 21.9835 5.05609 22.2984C5.21542 22.9018 5.39859 23.5671 5.6056 24.2942C5.82087 25.0064 6.04107 25.736 6.2662 26.4829C6.4996 27.215 6.7379 27.9207 6.9812 28.6001C7.2213 29.2678 7.4457 29.859 7.6546 30.3735L7.1404 30.2765C7.3272 29.6619 7.5216 28.964 7.7234 28.1829C7.9252 27.4018 8.1279 26.6017 8.3314 25.7827C8.5349 24.9636 8.7309 24.1842 8.9195 23.4442C9.1164 22.6895 9.2859 22.0361 9.4282 21.484C9.582 20.9287 9.6945 20.5348 9.7656 20.3025C9.8549 20.0026 9.9532 19.7562 10.0605 19.5635C10.1645 19.3592 10.2817 19.2011 10.412 19.0891C10.5423 18.9771 10.6883 18.8981 10.8499 18.8521C11.0461 18.7963 11.2373 18.8105 11.4235 18.8947C11.6063 18.9674 11.771 19.1077 11.9176 19.3155C12.0756 19.52 12.2064 19.7822 12.31 20.1021C12.3675 20.2604 12.4431 20.5259 12.5367 20.8985C12.6303 21.2711 12.7436 21.7129 12.8767 22.224C13.0064 22.7236 13.1477 23.2636 13.3004 23.8439C13.4614 24.4094 13.6241 24.9807 13.7884 25.5578C14.1055 26.6279 14.3775 27.4737 14.6044 28.0953C14.8313 28.717 15.0138 29.1828 15.152 29.4928C15.2869 29.7913 15.3609 30.0073 15.3739 30.1408C15.3787 30.2892 15.3572 30.4325 15.3092 30.571C15.2696 30.6945 15.2002 30.8016 15.1013 30.8922C15.0138 30.9795 14.9066 31.0412 14.7797 31.0773ZM20.1854 29.5944C19.6429 29.7488 19.1608 29.7426 18.739 29.5758C18.3172 29.4089 17.9771 29.1127 17.7187 28.6872C17.457 28.2501 17.2951 27.7036 17.2331 27.0475C17.163 26.2315 17.097 25.4518 17.035 24.7083C16.9698 23.9533 16.9111 23.3088 16.8588 22.7747C16.8181 22.2373 16.792 21.8829 16.7807 21.7114C16.7643 21.5663 16.7743 21.4262 16.8107 21.2911C16.8587 21.1527 16.9305 21.0324 17.0262 20.9303C17.1219 20.8282 17.2332 20.7591 17.3602 20.723C17.6256 20.6474 17.8596 20.7242 18.0621 20.9536C18.2762 21.1796 18.4037 21.4739 18.4445 21.8366C18.4673 22.1795 18.4793 22.594 18.4805 23.0803C18.4932 23.5633 18.5225 24.0166 18.5682 24.4402C18.573 24.5886 18.5794 24.7864 18.5874 25.0337C18.6037 25.2661 18.6159 25.5059 18.6239 25.7532C18.6401 25.9856 18.654 26.1875 18.6653 26.359C18.7125 27.0068 18.8489 27.4858 19.0744 27.7959C19.3 28.106 19.6089 28.2052 20.0013 28.0934C20.2206 28.031 20.4466 27.9043 20.6792 27.7133C20.9233 27.519 21.146 27.2934 21.3474 27.0365C21.5454 26.768 21.6998 26.4994 21.8105 26.2309C21.9211 25.9623 21.9486 25.7299 21.8927 25.5337C21.8188 25.2303 21.669 25.011 21.4433 24.8756C21.2292 24.7369 20.9499 24.6543 20.6054 24.6276C20.4093 24.5961 20.1628 24.5851 19.8661 24.5947C19.5694 24.6044 19.257 24.6247 18.929 24.6557C18.5977 24.6751 18.2844 24.7144 17.9893 24.7735L17.9633 23.5644C18.359 23.3769 18.7985 23.1457 19.2818 22.8709C19.7765 22.5928 20.282 22.2866 20.7982 21.9525C21.3145 21.6184 21.806 21.2851 22.2728 20.9525C22.8022 20.5772 23.2608 20.2158 23.6485 19.8684C24.0477 19.5177 24.3875 19.2213 24.668 18.9792C24.9567 18.7224 25.2049 18.5643 25.4126 18.5052C25.7704 18.4033 26.0762 18.4473 26.3298 18.6371C26.5917 18.8121 26.7382 19.1073 26.7691 19.5227C26.7935 19.915 26.8162 20.3015 26.8372 20.6823C26.8666 21.0483 26.8934 21.4274 26.9178 21.8197C26.9455 22.1362 26.9823 22.5063 27.028 22.93C27.0705 23.3421 27.122 23.7641 27.1826 24.1961C27.2432 24.628 27.3112 25.0203 27.3867 25.3731C27.4524 25.604 27.519 25.8595 27.5863 26.1398C27.6619 26.4053 27.7062 26.6047 27.7192 26.7383C27.7323 26.8718 27.7132 27.002 27.662 27.1289C27.6191 27.2409 27.5464 27.3365 27.4442 27.4155C27.3567 27.5028 27.2495 27.5645 27.1226 27.6006C26.8802 27.6696 26.6627 27.6068 26.47 27.4121C26.2856 27.2026 26.14 26.9321 26.0331 26.6007C25.8688 26.0236 25.7392 25.4367 25.6441 24.8399C25.5458 24.2316 25.4689 23.6109 25.4134 22.9779C25.3988 22.7076 25.3761 22.4084 25.345 22.0804C25.3256 21.749 25.3077 21.4235 25.2916 21.1037C25.2754 20.7839 25.2575 20.502 25.2379 20.258C25.2266 19.9992 25.2177 19.8146 25.2113 19.7042L25.661 19.9691C25.4383 20.1948 25.1397 20.4607 24.7652 20.7669C24.399 21.0583 23.9768 21.372 23.4984 21.7078C23.0168 22.032 22.5121 22.3629 21.9843 22.7003C21.4566 23.0377 20.9197 23.3652 20.3738 23.6829C19.8362 23.9857 19.3134 24.253 18.8055 24.485L18.8012 23.8124C18.8903 23.7746 19.0255 23.7236 19.2068 23.6595C19.3965 23.5806 19.6182 23.505 19.8722 23.4327C20.0107 23.3932 20.2077 23.3621 20.4632 23.3393C20.7302 23.3131 21.0113 23.3142 21.3063 23.3425C21.6129 23.3675 21.9136 23.4379 22.2085 23.5535C22.5117 23.6544 22.7704 23.8178 22.9845 24.0438C23.2101 24.2665 23.368 24.5584 23.4584 24.9195C23.5634 25.3762 23.5308 25.8533 23.3606 26.351C23.2019 26.8453 22.955 27.3149 22.62 27.7596C22.285 28.2044 21.903 28.5938 21.4742 28.928C21.042 29.2507 20.6124 29.4728 20.1854 29.5944ZM35.9971 25.0927C35.8355 25.1387 35.6937 25.1229 35.5718 25.0453C35.4648 24.976 35.3767 24.8638 35.3076 24.7088C35.227 24.5571 35.1835 24.3823 35.177 24.1845C35.1641 23.9636 35.1948 23.6554 35.2694 23.2599C35.3522 22.8495 35.4696 22.3856 35.6218 21.8682C35.7706 21.3392 35.931 20.807 36.1029 20.2714C36.2914 19.7062 36.4872 19.1451 36.6905 18.5882C36.902 18.0164 37.111 17.5015 37.3174 17.0435C37.5206 16.5739 37.6949 16.1999 37.8402 15.9215C38.0713 15.5063 38.3098 15.1826 38.5556 14.9504C38.8097 14.7034 39.0868 14.5372 39.3869 14.4518C39.6639 14.3729 39.8822 14.4168 40.0419 14.5834C40.1984 14.7385 40.3465 14.9521 40.4864 15.2242C40.6295 15.5078 40.7817 15.8451 40.9429 16.2359C41.104 16.6267 41.2743 17.0274 41.4536 17.438C41.6296 17.837 41.8138 18.2213 42.0063 18.5907C42.2367 19.0491 42.4415 19.44 42.6209 19.7632C42.8118 20.0832 42.9821 20.3528 43.1319 20.5722C43.2933 20.7883 43.439 20.9714 43.5691 21.1215C43.6926 21.2485 43.7938 21.3632 43.8729 21.4654C43.9519 21.5677 44.0037 21.684 44.0283 21.8142C44.0595 21.9675 44.0544 22.1249 44.013 22.2864C43.9717 22.4479 43.8974 22.5814 43.7901 22.6868C43.6977 22.8004 43.5765 22.8786 43.4265 22.9213C43.2072 22.9838 42.9814 22.9357 42.7491 22.7773C42.5251 22.604 42.2971 22.3508 42.0649 22.0176C41.8328 21.6844 41.6041 21.3191 41.3786 20.9216C41.2453 20.6726 41.0701 20.342 40.8529 19.9297C40.644 19.5026 40.4252 19.0408 40.1965 18.5445C39.9646 18.0366 39.7507 17.5485 39.555 17.0802C39.3708 16.6086 39.227 16.2128 39.1234 15.893L39.5091 15.9329C39.2714 16.325 39.0278 16.8061 38.7784 17.3762C38.5372 17.9314 38.2935 18.5435 38.0473 19.2125C37.8126 19.8782 37.5903 20.5654 37.3803 21.274C37.1818 21.9793 37.0122 22.6764 36.8715 23.3652C36.7457 23.8876 36.6234 24.2905 36.5044 24.5739C36.397 24.854 36.2279 25.027 35.9971 25.0927ZM54.0823 19.9437C53.3321 20.1572 52.6752 20.1945 52.1116 20.0556C51.5563 19.9017 51.095 19.6401 50.7278 19.2705C50.3605 18.9009 50.0741 18.4647 49.8686 17.9617C49.6745 17.4555 49.5621 16.951 49.5312 16.4483C49.4856 15.9372 49.5157 15.4296 49.6217 14.9253C49.7243 14.4095 49.883 13.9151 50.0978 13.4422C50.324 12.9661 50.5824 12.5369 50.8728 12.1548C51.1716 11.7578 51.49 11.4301 51.8281 11.1716C52.1745 10.8983 52.5209 10.7124 52.8671 10.6138C53.0056 10.5744 53.1309 10.5761 53.2429 10.6191C53.355 10.6621 53.4546 10.7273 53.5419 10.8147C53.6292 10.9022 53.6868 11.0168 53.7147 11.1585C53.7278 11.2047 53.6469 11.3151 53.4721 11.4896C53.2972 11.6642 53.0901 11.8791 52.8509 12.1344C52.6083 12.3781 52.3765 12.6375 52.1554 12.9126C51.9309 13.1761 51.7717 13.4273 51.6775 13.6662C51.4297 14.1984 51.2331 14.6911 51.0876 15.1442C50.9389 15.5858 50.7877 15.9533 50.6342 16.2465C50.4888 16.525 50.2892 16.7003 50.0353 16.7726C49.5621 16.9074 49.1961 17.024 48.9372 17.1227C48.6899 17.2181 48.4837 17.3267 48.3188 17.4485C48.1654 17.567 48.0078 17.7367 47.8461 17.9574C47.653 18.1995 47.4912 18.5076 47.3606 18.8816C47.2416 19.2524 47.1473 19.6224 47.0777 19.9915C47.0164 20.3459 46.9716 20.6269 46.9434 20.8345C46.8754 21.2531 46.7894 21.5646 46.6854 21.7689C46.5781 21.9616 46.4494 22.0794 46.2994 22.1221C46.0685 22.1878 45.8691 22.1448 45.7011 21.993C45.5331 21.8412 45.4345 21.5823 45.4052 21.2163C45.3822 21.0482 45.3866 20.7787 45.4183 20.4078C45.4499 20.037 45.4816 19.6225 45.5134 19.1643C45.5534 18.6912 45.5826 18.2462 45.6012 17.8292C45.6279 17.3974 45.6283 17.0479 45.6021 16.7809C45.5613 16.3308 45.4892 15.9022 45.3858 15.495C45.2938 15.0845 45.2019 14.7176 45.1099 14.3945C45.0146 14.0598 44.9579 13.7951 44.94 13.6006C44.922 13.4061 44.9585 13.2273 45.0493 13.0642C45.1516 12.8978 45.3009 12.7867 45.4971 12.7308C45.7626 12.6553 45.9793 12.6934 46.1473 12.8452C46.312 12.9854 46.4486 13.2023 46.5571 13.4958C46.6146 13.6541 46.6828 13.8718 46.7617 14.1487C46.8406 14.4257 46.9103 14.7365 46.971 15.0811C47.0399 15.4108 47.0915 15.7455 47.1258 16.085C47.1437 16.3669 47.1459 16.7032 47.1323 17.0938C47.1303 17.4812 47.1143 17.885 47.0842 18.3053C47.0509 18.7141 47.011 19.0997 46.9645 19.4623C46.9295 19.8216 46.8954 20.1183 46.8623 20.3523C46.8373 20.5715 46.8249 20.6811 46.8249 20.6811L45.6134 20.633C45.6235 20.4056 45.6542 20.141 45.7056 19.8394C45.757 19.5378 45.8298 19.2239 45.9241 18.8976C46.0183 18.5713 46.139 18.25 46.2859 17.9337C46.4329 17.6173 46.6071 17.3307 46.8084 17.0737C47.0643 16.7015 47.3415 16.4042 47.64 16.1819C47.9386 15.9597 48.2734 15.777 48.6444 15.634C49.0236 15.4761 49.4672 15.3249 49.975 15.1803C50.0558 15.1573 50.1556 15.0478 50.2745 14.8517C50.4049 14.6524 50.5386 14.4209 50.6757 14.1573C50.821 13.8789 50.9638 13.6136 51.1041 13.3616C51.2412 13.098 51.3625 12.8888 51.4682 12.7339L52.8854 12.2556C52.732 12.3741 52.5422 12.5404 52.3162 12.7545C52.1017 12.9653 51.8889 13.2255 51.6776 13.5352C51.4779 13.8416 51.3193 14.2049 51.2019 14.6251C51.0844 15.0453 51.0477 15.5299 51.0917 16.0788C51.1225 16.669 51.2597 17.1727 51.5032 17.5899C51.7468 18.0072 52.0696 18.3083 52.4716 18.4933C52.8819 18.6634 53.3352 18.6779 53.8314 18.5366C54.2931 18.4051 54.6864 18.1871 55.0114 17.8825C55.3447 17.563 55.6022 17.1965 55.7839 16.7829C55.9623 16.3578 56.0657 15.9104 56.0942 15.4406C56.1342 14.9676 56.0975 14.5102 55.9842 14.0683C55.8906 13.6957 55.75 13.3552 55.5623 13.0468C55.3747 12.7384 55.0897 12.5263 54.7074 12.4106C54.3251 12.2948 53.782 12.3372 53.078 12.5376C52.7894 12.6198 52.5389 12.6162 52.3263 12.527C52.122 12.423 52.0167 12.2721 52.0103 12.0743C51.9857 11.944 52.0278 11.8072 52.1367 11.6639C52.2457 11.5206 52.3958 11.3906 52.5871 11.2737C52.79 11.1536 53.0068 11.0606 53.2376 10.9949C53.8609 10.8175 54.4065 10.7619 54.8746 10.8283C55.3542 10.8914 55.7669 11.0484 56.1129 11.2992C56.4703 11.5468 56.7618 11.8693 56.9872 12.2668C57.2127 12.6643 57.3796 13.0971 57.4879 13.5653C57.6538 14.1918 57.7051 14.8323 57.6419 15.4866C57.5902 16.1376 57.4198 16.7663 57.1308 17.3726C56.8501 17.9641 56.4564 18.4879 55.95 18.944C55.4551 19.3969 54.8325 19.7301 54.0823 19.9437ZM64.1849 17.0486C63.4232 17.2655 62.7539 17.2814 62.1772 17.0962C61.6087 16.8962 61.1327 16.5389 60.7491 16.0243C60.3738 15.4948 60.0777 14.8493 59.8608 14.0875C59.6406 13.3143 59.4906 12.4586 59.4107 11.5207C59.334 10.6816 59.3496 9.90364 59.4574 9.18674C59.5619 8.45824 59.7257 7.80644 59.9488 7.23144C60.1801 6.64154 60.4533 6.13324 60.7686 5.70664C61.0838 5.28004 61.422 4.93424 61.7833 4.66914C62.2698 4.31854 62.7729 4.02554 63.2923 3.79034C63.8233 3.55184 64.2949 3.32394 64.7072 3.10674C65.1854 2.85834 65.5854 2.61974 65.907 2.39084C66.2287 2.16204 66.4818 2.02134 66.6665 1.96884C66.805 1.92934 66.9418 1.92784 67.0769 1.96424C67.2236 1.99734 67.3438 2.06914 67.4377 2.17964C67.5283 2.27864 67.5792 2.41384 67.5906 2.58534C67.6118 2.79134 67.5383 2.99324 67.37 3.19084C67.1984 3.37694 66.9683 3.55474 66.6797 3.72424C66.1057 4.07484 65.5689 4.35864 65.0693 4.57574C64.5779 4.77804 64.1269 4.96884 63.7163 5.14814C63.3024 5.31584 62.9181 5.54384 62.5635 5.83194C62.2138 6.09374 61.9044 6.47504 61.6352 6.97584C61.3744 7.46184 61.176 8.03614 61.0402 8.69864C60.9127 9.34634 60.8816 10.0476 60.9468 10.8026C61.056 12.1065 61.2323 13.1418 61.4755 13.9085C61.727 14.6604 62.0595 15.1709 62.473 15.4399C62.898 15.7057 63.399 15.7564 63.9761 15.5921C64.3685 15.4804 64.7387 15.269 65.0868 14.9578C65.4316 14.635 65.7295 14.257 65.9805 13.8237C66.2429 13.3871 66.4395 12.9382 66.5702 12.4768C66.7091 12.0005 66.7589 11.5621 66.7197 11.1615C66.6938 10.7197 66.5878 10.3694 66.4018 10.1104C66.224 9.83664 65.9753 9.66424 65.6555 9.59304C65.3326 9.51034 64.9402 9.53464 64.4786 9.66614C63.8669 9.84024 63.2295 10.2088 62.5663 10.772C61.9147 11.3318 61.3083 12.0721 60.747 12.993L60.0057 12.4929C60.2916 11.7003 60.6755 11.0109 61.1573 10.4245C61.6359 9.82664 62.1704 9.33754 62.7609 8.95734C63.348 8.56564 63.9301 8.28754 64.5072 8.12324C65.2112 7.92284 65.8376 7.88794 66.3864 8.01874C66.9319 8.13794 67.3717 8.41194 67.7059 8.84084C68.0402 9.26964 68.2283 9.86494 68.2705 10.6264C68.3144 11.2627 68.2454 11.9187 68.0634 12.5943C67.8897 13.2552 67.6221 13.8928 67.2606 14.5073C66.8957 15.1103 66.4543 15.6414 65.9363 16.1008C65.415 16.5487 64.8312 16.8646 64.1849 17.0486ZM72.812 14.5924C72.4196 14.7042 72.0817 14.7005 71.7983 14.5816C71.5264 14.4594 71.2958 14.263 71.1065 13.9925C70.9139 13.7105 70.7667 13.3906 70.6648 13.0328C70.5712 12.6602 70.5097 12.2909 70.4804 11.9249C70.4642 11.6051 70.4547 11.2211 70.4518 10.7727C70.4605 10.3211 70.4758 9.84894 70.4976 9.35604C70.5195 8.86324 70.5439 8.40094 70.5706 7.96904C70.6089 7.53394 70.6431 7.19364 70.673 6.94804C70.708 6.50134 70.752 6.15194 70.805 5.89984C70.8695 5.64434 70.9883 5.49204 71.1614 5.44274C71.3115 5.40004 71.4648 5.41254 71.6213 5.48024C71.7778 5.54794 71.9079 5.65444 72.0116 5.79954C72.1269 5.94144 72.1951 6.11534 72.2164 6.32144C72.2343 6.51594 72.2291 6.80444 72.2007 7.18684C72.1724 7.56914 72.1382 7.99694 72.0982 8.46994C72.0582 8.94294 72.0256 9.42014 72.0004 9.90144C71.9719 10.3711 71.9724 10.789 72.0017 11.1549C72.0212 11.4863 72.0605 11.7995 72.1195 12.0946C72.1753 12.3781 72.2526 12.6057 72.3513 12.7772C72.4468 12.9372 72.5695 12.9958 72.7195 12.9531C73.0889 12.8479 73.4626 12.3859 73.8409 11.5671C74.2306 10.7449 74.6132 9.65654 74.9887 8.30204C75.1672 7.70214 75.3153 7.14844 75.4328 6.64094C75.5503 6.13334 75.6554 5.69164 75.748 5.31594C75.8374 4.92864 75.9424 4.61804 76.0629 4.38414C76.1834 4.15014 76.3303 4.00854 76.5034 3.95924C76.7688 3.88364 76.9889 3.93334 77.1634 4.10824C77.3462 4.26824 77.4795 4.51734 77.5633 4.85524C77.6487 5.15534 77.7423 5.52794 77.8441 5.97314C77.9574 6.41494 78.074 6.86834 78.1939 7.33334C78.3105 7.78674 78.4305 8.20794 78.5537 8.59704C78.7789 9.25664 78.9985 9.78674 79.2124 10.1875C79.4346 10.5734 79.6222 10.8818 79.7753 11.1127C79.9283 11.3436 80.0221 11.5415 80.0566 11.7064C80.0812 11.8366 80.0753 11.9693 80.0389 12.1044C79.9992 12.228 79.9373 12.3392 79.8532 12.438C79.769 12.5368 79.6634 12.6043 79.5365 12.6405C79.1325 12.7555 78.7684 12.5722 78.4442 12.0906C78.1199 11.609 77.7851 10.937 77.4397 10.0746C77.2984 9.66564 77.1488 9.22794 76.991 8.76124C76.8447 8.29134 76.71 7.81814 76.5868 7.34174C76.4751 6.86194 76.3734 6.41674 76.2814 6.00624L76.8328 6.03644C76.7516 6.49624 76.6473 7.00634 76.5198 7.56664C76.3924 8.12694 76.2046 8.84794 75.9566 9.72954C75.7416 10.4645 75.4838 11.1804 75.1831 11.8774C74.8792 12.5628 74.53 13.155 74.1356 13.6541C73.7495 14.1384 73.3082 14.4511 72.812 14.5924ZM82.8778 11.7266C82.6008 11.8055 82.3471 11.703 82.1166 11.4193C81.8861 11.1356 81.7423 10.6525 81.6852 9.97004C81.6723 9.74914 81.6552 9.44834 81.6342 9.06754C81.6131 8.68674 81.6077 8.25164 81.6181 7.76204C81.6367 7.25774 81.685 6.72614 81.763 6.16744C81.9056 5.17854 82.0605 4.38584 82.2275 3.78934C82.3913 3.18124 82.5903 2.71904 82.8247 2.40284C83.059 2.08654 83.332 1.88404 83.6436 1.79534C83.886 1.72634 84.0986 1.77184 84.2814 1.93194C84.4758 2.08874 84.6412 2.29734 84.7778 2.55794C84.9144 2.81854 85.0394 3.08234 85.1529 3.34944C85.3042 3.70564 85.4786 4.09894 85.676 4.52934C85.8849 4.95644 86.1013 5.38774 86.325 5.82304C86.5603 6.25514 86.8006 6.66084 87.0459 7.04024C87.3026 7.41624 87.5587 7.72394 87.8139 7.96314L87.2301 8.27904C87.3775 7.52594 87.548 6.76624 87.7416 5.99994C87.9352 5.23364 88.1369 4.49624 88.3469 3.78764C88.5569 3.07904 88.7619 2.44044 88.9619 1.87204C89.1899 1.27054 89.4013 0.829841 89.5961 0.549841C89.8024 0.266441 90.0094 0.0952402 90.2172 0.0361402C90.3672 -0.00655977 90.5156 -0.0114594 90.6622 0.0216406C90.8056 0.0432406 90.935 0.0812401 91.0503 0.13574C91.2134 0.22664 91.3559 0.354439 91.4777 0.519439C91.5995 0.684339 91.6899 0.95804 91.7489 1.34054C91.8816 2.20104 92.0259 2.97094 92.1819 3.65024C92.3461 4.31464 92.4981 4.87034 92.6378 5.31714C92.876 6.11024 93.1145 6.72854 93.3531 7.17214C93.6032 7.61254 93.7307 7.90684 93.7355 8.05524C93.7551 8.21184 93.7088 8.35604 93.5966 8.48774C93.4992 8.62774 93.3582 8.72404 93.1736 8.77664C92.8966 8.85554 92.6279 8.78854 92.3677 8.57564C92.119 8.35944 91.9075 8.03294 91.7332 7.59594C91.5687 7.19354 91.3846 6.67834 91.1808 6.05014C90.9885 5.41864 90.8037 4.70394 90.6265 3.90594C90.4574 3.09314 90.3165 2.24744 90.2036 1.36874L90.6711 1.10464C90.5091 1.58744 90.3289 2.13784 90.1306 2.75574C89.9404 3.35884 89.7454 3.98834 89.5453 4.64424C89.3568 5.29674 89.1782 5.94024 89.0095 6.57474C88.8523 7.20584 88.7215 7.79834 88.6171 8.35204C88.5526 8.60754 88.4519 8.82334 88.3149 8.99964C88.1895 9.17254 88.0171 9.29024 87.7978 9.35264C87.5208 9.43154 87.2719 9.43374 87.0511 9.35944C86.8386 9.27024 86.636 9.12824 86.4433 8.93354C86.2589 8.72404 86.0794 8.48814 85.9049 8.22594C85.8128 8.07754 85.6852 7.87054 85.5223 7.60494C85.3561 7.32794 85.18 7.01624 84.994 6.66994C84.8081 6.32354 84.6214 5.95254 84.4338 5.55674C84.2463 5.16094 84.0719 4.76764 83.9107 4.37684C83.7463 3.97454 83.6131 3.59444 83.5113 3.23674L83.9912 2.95034C83.7598 3.62754 83.5713 4.28014 83.4256 4.90804C83.2915 5.53264 83.2028 6.16304 83.1593 6.79924C83.1241 7.42064 83.1309 8.07994 83.1797 8.77724C83.2156 9.25364 83.258 9.66574 83.3072 10.0136C83.3678 10.3581 83.4055 10.6219 83.4202 10.8049C83.4299 11.0142 83.3967 11.2046 83.3207 11.3759C83.2447 11.5473 83.0971 11.6642 82.8778 11.7266ZM8.3755 49.5365C7.6138 49.7534 6.9857 49.8261 6.4913 49.7548C5.99683 49.6834 5.60058 49.4968 5.30251 49.1949C5.01598 48.8897 4.79959 48.5021 4.65333 48.0322C4.51532 47.5475 4.42516 47.0117 4.38285 46.4248C4.33396 45.8149 4.32055 45.1762 4.3426 44.5086C4.3729 43.8262 4.4329 43.1167 4.52259 42.38C4.58399 41.9383 4.65437 41.5939 4.73372 41.3467C4.81307 41.0995 4.9393 40.9513 5.11242 40.902C5.35479 40.833 5.57564 40.8637 5.77496 40.9941C5.971 41.1129 6.07547 41.3265 6.08837 41.6347C6.10304 41.8177 6.0838 42.1226 6.03066 42.5495C5.98905 42.9731 5.9523 43.5013 5.92039 44.1343C5.88849 44.7672 5.90346 45.4991 5.96533 46.3299C6.00604 46.8673 6.10702 47.2877 6.2683 47.5911C6.4411 47.8913 6.6873 48.077 7.007 48.1481C7.3383 48.216 7.7636 48.176 8.2829 48.0282C8.6061 47.9362 9.0315 47.8088 9.5591 47.6461C10.0834 47.4719 10.6482 47.2862 11.2533 47.0889C11.8584 46.8917 12.452 46.6977 13.034 46.5071C13.6243 46.3016 14.1396 46.1174 14.5798 45.9547C15.0283 45.7771 15.3515 45.6414 15.5494 45.5476C15.6929 45.4818 15.8125 45.3979 15.9082 45.2957C16.0006 45.1821 16.0436 45.0264 16.0372 44.8286C15.9933 44.1049 15.8943 43.4282 15.7399 42.7984C15.5938 42.1537 15.4221 41.5725 15.2248 41.0548C15.039 40.5337 14.8663 40.1025 14.7067 39.7612C14.5554 39.405 14.4642 39.1503 14.433 38.9969C14.392 38.809 14.4301 38.636 14.5472 38.4778C14.6611 38.3081 14.7989 38.2003 14.9604 38.1543C15.2259 38.0787 15.4517 38.1267 15.6378 38.2983C15.8321 38.4551 16.0124 38.672 16.1786 38.9491C16.2988 39.152 16.4312 39.4636 16.5758 39.8841C16.7288 40.2897 16.8791 40.7522 17.027 41.2716C17.1864 41.7876 17.317 42.3119 17.4187 42.8444C17.5286 43.3621 17.6024 43.8402 17.6399 44.2787C17.692 44.9875 17.6024 45.5495 17.3713 45.9647C17.1484 46.365 16.7286 46.7091 16.1118 46.997C15.8908 47.0974 15.5429 47.2338 15.068 47.4065C14.5899 47.5676 14.0425 47.7484 13.4258 47.9489C12.8124 48.161 12.1842 48.3648 11.5412 48.5603C10.9015 48.7674 10.3005 48.9572 9.7382 49.1298C9.1875 49.2991 8.7333 49.4346 8.3755 49.5365ZM11.2596 48.2287C11.1327 48.2649 10.9926 48.2549 10.8393 48.1987C10.6828 48.131 10.5684 48.0138 10.496 47.8473C10.3792 47.5686 10.2757 47.205 10.1855 46.7566C10.1035 46.2934 10.0298 45.8153 9.9643 45.3224C9.9071 44.8146 9.863 44.353 9.8321 43.9376C9.7734 43.2057 9.7551 42.5497 9.777 41.9695C9.799 41.3893 9.8323 40.9805 9.8771 40.7432C9.9003 40.5619 9.9507 40.4103 10.0283 40.2884C10.1026 40.155 10.2263 40.0636 10.3994 40.0143C10.5495 39.9716 10.6896 39.9816 10.8197 40.0444C10.9499 40.1071 11.0594 40.207 11.1483 40.3439C11.2372 40.4808 11.2922 40.6522 11.3135 40.8583C11.3298 41.0034 11.328 41.216 11.3079 41.4962C11.2961 41.7616 11.286 42.0764 11.2774 42.4407C11.2803 42.8016 11.2989 43.1956 11.3332 43.6226C11.3559 43.9654 11.3976 44.3528 11.4582 44.7847C11.5303 45.2134 11.6098 45.6461 11.6968 46.083C11.7805 46.5084 11.8658 46.8958 11.9529 47.2453C11.9857 47.3607 11.9609 47.4926 11.8783 47.6409C11.804 47.7743 11.7091 47.9011 11.5936 48.0214C11.4864 48.1268 11.3751 48.1959 11.2596 48.2287ZM22.1971 45.6388C21.8047 45.7505 21.4668 45.7469 21.1834 45.6279C20.9115 45.5057 20.6809 45.3094 20.4916 45.0388C20.299 44.7568 20.1518 44.4369 20.05 44.0791C19.9563 43.7065 19.8949 43.3372 19.8656 42.9713C19.8494 42.6515 19.8398 42.2674 19.837 41.8191C19.8456 41.3674 19.8609 40.8952 19.8828 40.4024C19.9047 39.9095 19.929 39.4472 19.9558 39.0154C19.9941 38.5802 20.0282 38.2399 20.0581 37.9943C20.0931 37.5477 20.1371 37.1983 20.1901 36.9461C20.2546 36.6907 20.3734 36.5383 20.5466 36.489C20.6966 36.4463 20.8499 36.4588 21.0064 36.5265C21.1629 36.5943 21.2931 36.7007 21.3968 36.8459C21.512 36.9877 21.5803 37.1617 21.6015 37.3677C21.6195 37.5623 21.6142 37.8507 21.5859 38.2331C21.5575 38.6155 21.5233 39.0432 21.4833 39.5162C21.4433 39.9893 21.4107 40.4664 21.3855 40.9477C21.3571 41.4175 21.3575 41.8353 21.3868 42.2013C21.4063 42.5326 21.4456 42.8458 21.5047 43.1409C21.5604 43.4245 21.6377 43.652 21.7364 43.8235C21.8319 43.9835 21.9546 44.0421 22.1047 43.9994C22.474 43.8943 22.8478 43.4323 23.226 42.6134C23.6158 41.7913 23.9984 40.7029 24.3738 39.3483C24.5524 38.7485 24.7004 38.1948 24.8179 37.6872C24.9354 37.1796 25.0405 36.738 25.1332 36.3622C25.2225 35.975 25.3275 35.6644 25.448 35.4304C25.5686 35.1965 25.7154 35.0548 25.8885 35.0056C26.154 34.93 26.374 34.9796 26.5485 35.1545C26.7314 35.3146 26.8646 35.5636 26.9484 35.9016C27.0338 36.2017 27.1274 36.5743 27.2292 37.0194C27.3425 37.4613 27.4592 37.9147 27.579 38.3796C27.6957 38.833 27.8156 39.2543 27.9389 39.6434C28.1641 40.3029 28.3836 40.8331 28.5975 41.2338C28.8197 41.6197 29.0073 41.9281 29.1604 42.159C29.3135 42.3899 29.4073 42.5878 29.4417 42.7527C29.4663 42.8829 29.4604 43.0156 29.424 43.1508C29.3844 43.2743 29.3224 43.3855 29.2383 43.4844C29.1541 43.5832 29.0486 43.6507 28.9216 43.6868C28.6562 43.7624 28.4024 43.7036 28.1603 43.5106C27.9297 43.3142 27.7058 43.0099 27.4886 42.5976C27.2714 42.1853 27.0502 41.6931 26.8249 41.1209C26.6835 40.712 26.5339 40.2742 26.3761 39.8076C26.2298 39.3377 26.0951 38.8645 25.9719 38.388C25.8603 37.9082 25.7585 37.4631 25.6666 37.0526L26.2179 37.0828C26.155 37.3876 26.0855 37.7131 26.0093 38.0592C25.9447 38.402 25.857 38.795 25.7461 39.2383C25.6435 39.6668 25.5087 40.1793 25.3417 40.7758C25.1267 41.5108 24.8689 42.2268 24.5683 42.9237C24.2643 43.6091 23.9152 44.2014 23.5208 44.7005C23.1346 45.1847 22.6934 45.4975 22.1971 45.6388ZM35.3331 41.7866C34.7791 41.9443 34.273 42.0073 33.8148 41.9755C33.3566 41.9438 32.9833 41.838 32.695 41.658C32.4067 41.4781 32.2479 41.2488 32.2185 40.9702C32.2137 40.8219 32.2426 40.6826 32.3054 40.5524C32.3682 40.4223 32.4746 40.3359 32.6246 40.2931C32.74 40.2603 32.8521 40.2596 32.9609 40.291C33.0696 40.3224 33.199 40.3604 33.3489 40.4051C33.4989 40.4497 33.7049 40.4722 33.967 40.4724C34.2258 40.4611 34.5629 40.3963 34.9784 40.278C35.6247 40.094 36.1401 39.7788 36.5246 39.3325C36.9173 38.8713 37.0729 38.2344 36.9912 37.4217C36.9522 36.8464 36.8183 36.3542 36.5896 35.9452C36.3691 35.5214 36.0801 35.1857 35.7227 34.9381C35.3619 34.679 34.9492 34.522 34.4844 34.4672C34.0196 34.4124 33.5218 34.4605 32.9909 34.6117C32.7254 34.6873 32.4624 34.7933 32.2018 34.9299C31.9413 35.0665 31.7071 35.1643 31.4994 35.2235C31.3724 35.2596 31.2488 35.2636 31.1285 35.2355C31.0049 35.1958 30.9094 35.1232 30.8419 35.0177C30.7744 34.9121 30.7358 34.7983 30.726 34.6763C30.7065 34.345 30.8469 34.0493 31.1471 33.7891C31.4556 33.5141 31.9734 33.2731 32.7005 33.0661C33.4738 32.846 34.1983 32.7832 34.874 32.8778C35.5613 32.969 36.1701 33.2012 36.7006 33.5742C37.2277 33.9357 37.6558 34.4314 37.9849 35.0614C38.3222 35.6765 38.5251 36.411 38.5935 37.2649C38.6408 37.8254 38.5909 38.3512 38.4437 38.8422C38.3081 39.33 38.0967 39.7708 37.8095 40.1644C37.5191 40.5466 37.1644 40.8784 36.7454 41.1599C36.3232 41.4298 35.8524 41.6387 35.3331 41.7866ZM32.5265 47.3767C32.388 47.4162 32.257 47.416 32.1334 47.3764C32.0246 47.3449 31.9349 47.2707 31.8641 47.1536C31.7933 47.0365 31.7506 46.8865 31.7359 46.7035C31.7213 46.5205 31.7388 46.3408 31.7884 46.1645C31.8297 46.003 31.8728 45.8036 31.9175 45.5663C31.9655 45.3405 32.0029 45.0554 32.0296 44.7109C32.0562 44.3664 32.0492 43.9255 32.0085 43.3881C31.9418 42.4963 31.7942 41.6275 31.5659 40.7817C31.3376 39.9359 31.1002 39.0802 30.8537 38.2146C30.6156 37.3342 30.4524 36.4324 30.3642 35.5092C30.3398 35.2043 30.3771 34.9628 30.4762 34.7849C30.5835 34.5921 30.741 34.4662 30.9488 34.407C31.1334 34.3545 31.3015 34.3752 31.4531 34.4693C31.6129 34.5486 31.7455 34.6855 31.8508 34.8801C31.9528 35.0632 32.0095 35.2841 32.0208 35.5429C32.0794 36.2748 32.1802 36.9573 32.323 37.5904C32.4741 38.2087 32.6334 38.8121 32.801 39.4007C32.9801 39.9861 33.1419 40.5763 33.2864 41.1715C33.4309 41.7667 33.5284 42.3939 33.5789 43.0533C33.636 43.6484 33.6553 44.1982 33.6367 44.7025C33.6181 45.2069 33.5625 45.647 33.4698 46.0227C33.3887 46.3951 33.2689 46.6975 33.1104 46.9298C32.9635 47.1587 32.7689 47.3077 32.5265 47.3767ZM45.3483 39.0661C44.4019 39.3356 43.5638 39.3496 42.8338 39.1083C42.1153 38.8637 41.5405 38.4222 41.1092 37.7839C40.6862 37.1308 40.4315 36.3237 40.345 35.3626C40.2879 34.6802 40.3462 34.0522 40.5198 33.4788C40.7017 32.8905 40.9412 32.3731 41.2383 31.9267C41.5469 31.477 41.8802 31.1138 42.2382 30.8373C42.5928 30.5491 42.9144 30.364 43.203 30.2818C43.3299 30.2457 43.4387 30.2334 43.5294 30.2451C43.6316 30.2534 43.7172 30.2914 43.7864 30.359C43.8638 30.4119 43.9091 30.505 43.9221 30.6386C43.9301 30.8858 43.8986 31.1256 43.8275 31.358C43.7531 31.5788 43.5642 31.8135 43.2607 32.0621C42.901 32.3766 42.6114 32.6961 42.3919 33.0206C42.1806 33.3303 42.0328 33.6656 41.9484 34.0265C41.8607 34.3759 41.843 34.7739 41.8954 35.2207C41.9769 36.2081 42.3001 36.9271 42.8651 37.3776C43.4267 37.8166 44.1231 37.9178 44.954 37.6812C45.7619 37.4512 46.3838 36.9622 46.8197 36.2142C47.2638 35.4515 47.4401 34.5591 47.3488 33.537C47.2804 32.5958 47.0256 31.9197 46.5842 31.5089C46.1395 31.0865 45.571 30.9739 44.8785 31.171C44.5207 31.2729 44.2346 31.4292 44.0201 31.64C43.8172 31.8475 43.6043 32.1077 43.3815 32.4207C43.223 32.653 43.1 32.8564 43.0125 33.0311C42.925 33.2057 42.8408 33.3482 42.7599 33.4586C42.6873 33.5541 42.576 33.6232 42.4259 33.666C42.2644 33.712 42.1226 33.6962 42.0007 33.6186C41.8871 33.5262 41.8188 33.3522 41.796 33.0967C41.7666 32.8181 41.8221 32.5091 41.9625 32.1697C42.1145 31.827 42.3192 31.4942 42.5766 31.1714C42.8423 30.8337 43.1459 30.5414 43.4873 30.2945C43.8254 30.036 44.1792 29.8542 44.5485 29.749C45.3795 29.5125 46.1105 29.5164 46.7416 29.761C47.3694 29.994 47.8725 30.4246 48.2511 31.053C48.6263 31.6698 48.8465 32.4431 48.9115 33.3728C48.9964 34.2844 48.9017 35.1349 48.6273 35.9242C48.3497 36.7019 47.9271 37.365 47.3595 37.9133C46.8036 38.4584 46.1332 38.8427 45.3483 39.0661ZM58.3871 35.3352C58.0408 35.4338 57.6304 35.4383 57.1558 35.3489C56.6778 35.2479 56.186 35.076 55.6802 34.8332C55.1859 34.5872 54.7139 34.3098 54.2642 34.0011C53.826 33.6892 53.462 33.3749 53.1722 33.0581C53.0042 32.9063 52.8816 32.7603 52.8042 32.6201C52.7352 32.4651 52.685 32.311 52.6538 32.1576C52.6622 32.0554 52.6788 31.9384 52.7036 31.8066C52.7285 31.6747 52.7739 31.5495 52.84 31.4309C52.9259 31.2068 53.0918 30.8913 53.3378 30.4844C53.5838 30.0775 53.8751 29.6327 54.2118 29.1501C54.5568 28.6526 54.9215 28.1807 55.306 27.7343C55.6987 27.2732 56.079 26.8779 56.4469 26.5486C56.8263 26.216 57.1719 26.0053 57.4835 25.9166C57.6104 25.8805 57.7168 25.8814 57.8024 25.9194C57.8996 25.9541 57.9787 26.0127 58.0396 26.0952C58.1005 26.1776 58.1384 26.2667 58.1531 26.3623C58.2139 26.6195 58.1155 26.9095 57.8581 27.2323C57.6006 27.5552 57.3152 27.8673 57.0017 28.1686C56.449 28.7252 55.9697 29.2547 55.5637 29.7571C55.1578 30.2594 54.8384 30.6935 54.6057 31.0592C54.3845 31.4216 54.2845 31.6622 54.3058 31.7809C54.309 31.8798 54.3831 32.0084 54.528 32.1668C54.6729 32.3252 54.8779 32.4976 55.1432 32.6841C55.4199 32.8673 55.7387 33.0448 56.0995 33.2166C56.4719 33.3851 56.8756 33.5321 57.3106 33.6578C57.5693 33.7339 57.8206 33.8058 58.0645 33.8736C58.3167 33.9266 58.5243 33.9985 58.6874 34.0893C58.8588 34.1653 58.96 34.28 58.9912 34.4333C59.0158 34.5635 59.0083 34.6904 58.9686 34.814C58.9289 34.9376 58.8538 35.0463 58.7433 35.1402C58.6443 35.2307 58.5256 35.2957 58.3871 35.3352ZM52.6172 36.9592C52.3172 37.0446 52.0725 36.9521 51.8832 36.6816C51.6906 36.3995 51.5352 35.9634 51.4171 35.3732C51.3072 34.7682 51.2148 34.0272 51.1398 33.1502C51.1104 32.7842 51.0877 32.3977 51.0716 31.9905C51.067 31.5801 51.0625 31.1696 51.0579 30.7592C51.0501 30.3372 51.0282 29.9317 50.9923 29.5427C50.9891 29.4438 50.9801 29.3465 50.9654 29.2509C50.9589 29.1404 50.9466 29.0316 50.9286 28.9245C50.909 28.6805 50.9183 28.472 50.9564 28.299C50.9944 28.1259 51.0539 27.9842 51.1348 27.8739C51.2239 27.7487 51.3262 27.6697 51.4416 27.6368C51.707 27.5612 51.9493 27.6233 52.1683 27.8229C52.3956 28.0077 52.5239 28.3268 52.5531 28.7801C52.5776 29.0851 52.5871 29.4692 52.5817 29.9323C52.5846 30.3807 52.585 30.8422 52.5829 31.3169C52.5808 31.7916 52.5928 32.2062 52.6189 32.5606C52.6859 33.1903 52.7579 33.75 52.8349 34.2396C52.9234 34.726 53.0063 35.1266 53.0835 35.4415C53.1574 35.7449 53.1934 35.9592 53.1917 36.0845C53.208 36.2295 53.1906 36.3655 53.1394 36.4924C53.0964 36.6044 53.0296 36.6983 52.9388 36.774C52.8629 36.858 52.7557 36.9197 52.6172 36.9592ZM64.9934 33.473C64.047 33.7424 63.2088 33.7565 62.4789 33.5152C61.7604 33.2705 61.1856 32.8291 60.7543 32.1908C60.3313 31.5377 60.0765 30.7306 59.9901 29.7695C59.933 29.087 59.9913 28.4591 60.1649 27.8856C60.3468 27.2973 60.5863 26.78 60.8834 26.3336C61.192 25.8839 61.5253 25.5207 61.8833 25.2441C62.2379 24.956 62.5595 24.7709 62.8481 24.6887C62.975 24.6526 63.0838 24.6403 63.1745 24.6519C63.2766 24.6603 63.3623 24.6983 63.4315 24.7659C63.5089 24.8187 63.5542 24.9119 63.5672 25.0454C63.5752 25.2927 63.5437 25.5325 63.4726 25.7648C63.3982 25.9856 63.2093 26.2204 62.9057 26.469C62.5461 26.7835 62.2565 27.103 62.037 27.4275C61.8257 27.7372 61.6779 28.0725 61.5935 28.4334C61.5058 28.7827 61.4881 29.1808 61.5405 29.6275C61.622 30.615 61.9452 31.3339 62.5101 31.7845C63.0718 32.2234 63.7681 32.3246 64.5991 32.088C65.407 31.858 66.0289 31.369 66.4647 30.6211C66.9088 29.8584 67.0852 28.9659 66.9939 27.9439C66.9255 27.0026 66.6706 26.3266 66.2293 25.9157C65.7846 25.4934 65.2161 25.3807 64.5236 25.5779C64.1658 25.6798 63.8797 25.8361 63.6652 26.0469C63.4622 26.2544 63.2494 26.5146 63.0266 26.8276C62.8681 27.0599 62.7451 27.2633 62.6576 27.438C62.5701 27.6126 62.4859 27.7551 62.405 27.8655C62.3324 27.961 62.2211 28.0301 62.071 28.0728C61.9094 28.1188 61.7677 28.103 61.6458 28.0255C61.5321 27.9331 61.4639 27.7591 61.4411 27.5036C61.4116 27.225 61.4672 26.916 61.6076 26.5765C61.7595 26.2338 61.9642 25.9011 62.2217 25.5782C62.4874 25.2406 62.7909 24.9483 63.1324 24.7013C63.4705 24.4429 63.8243 24.2611 64.1936 24.1559C65.0246 23.9193 65.7556 23.9233 66.3867 24.1678C67.0145 24.4008 67.5176 24.8315 67.8962 25.4599C68.2714 26.0767 68.4916 26.85 68.5566 27.7797C68.6415 28.6913 68.5468 29.5417 68.2724 30.331C67.9948 31.1088 67.5722 31.7719 67.0046 32.3202C66.4486 32.8653 65.7782 33.2496 64.9934 33.473ZM81.3925 28.804C80.4461 29.0735 79.6079 29.0875 78.8779 28.8462C78.1595 28.6016 77.5846 28.1601 77.1534 27.5218C76.7304 26.8687 76.4756 26.0616 76.3892 25.1005C76.3321 24.4181 76.3904 23.7901 76.564 23.2167C76.7458 22.6284 76.9853 22.111 77.2824 21.6646C77.5911 21.2149 77.9244 20.8518 78.2823 20.5752C78.637 20.287 78.9586 20.1019 79.2471 20.0198C79.3741 19.9836 79.4829 19.9713 79.5735 19.983C79.6757 19.9913 79.7614 20.0293 79.8306 20.0969C79.908 20.1498 79.9532 20.2429 79.9663 20.3765C79.9743 20.6237 79.9428 20.8635 79.8717 21.0959C79.7973 21.3167 79.6083 21.5514 79.3048 21.8C78.9452 22.1145 78.6556 22.434 78.4361 22.7585C78.2248 23.0682 78.077 23.4035 77.9926 23.7644C77.9049 24.1138 77.8872 24.5118 77.9395 24.9586C78.021 25.946 78.3443 26.665 78.9092 27.1155C79.4709 27.5545 80.1672 27.6557 80.9982 27.4191C81.8061 27.1891 82.428 26.7001 82.8638 25.9522C83.3079 25.1894 83.4843 24.297 83.3929 23.2749C83.3246 22.3337 83.0697 21.6576 82.6284 21.2468C82.1837 20.8244 81.6151 20.7118 80.9227 20.9089C80.5649 21.0108 80.2787 21.1671 80.0643 21.3779C79.8613 21.5854 79.6485 21.8456 79.4256 22.1586C79.2672 22.3909 79.1442 22.5943 79.0567 22.769C78.9691 22.9436 78.8849 23.0861 78.8041 23.1965C78.7315 23.292 78.6201 23.3612 78.4701 23.4039C78.3085 23.4499 78.1668 23.4341 78.0449 23.3565C77.9312 23.2641 77.863 23.0901 77.8401 22.8346C77.8107 22.556 77.8662 22.247 78.0067 21.9076C78.1586 21.5649 78.3633 21.2321 78.6208 20.9093C78.8865 20.5716 79.19 20.2793 79.5315 20.0324C79.8696 19.7739 80.2233 19.5921 80.5927 19.4869C81.4236 19.2504 82.1547 19.2543 82.7858 19.4989C83.4136 19.7319 83.9167 20.1626 84.2952 20.7909C84.6705 21.4077 84.8906 22.181 84.9557 23.1107C85.0406 24.0223 84.9458 24.8728 84.6715 25.6621C84.3938 26.4398 83.9712 27.1029 83.4037 27.6513C82.8477 28.1963 82.1773 28.5806 81.3925 28.804ZM86.2825 19.8134C86.0171 19.889 85.7863 19.8673 85.5903 19.7485C85.4058 19.6263 85.307 19.4548 85.2941 19.2339C85.2925 19.0971 85.3306 18.9677 85.4081 18.8458C85.4857 18.7239 85.6474 18.5906 85.8931 18.4457C86.2758 18.212 86.8002 17.9504 87.4664 17.661C88.1441 17.3682 88.9504 17.0887 89.8852 16.8226C90.37 16.6845 90.8176 16.5696 91.2281 16.4777C91.6469 16.3709 92.1143 16.2815 92.6303 16.2095C93.0358 16.1439 93.3622 16.1508 93.6094 16.2301C93.8681 16.3062 94.0048 16.4357 94.0194 16.6187C94.0325 16.7522 94.0134 16.8824 93.9622 17.0093C93.9192 17.1214 93.8367 17.2259 93.7147 17.3231C93.6041 17.4169 93.4508 17.4918 93.2546 17.5477C93.0122 17.6167 92.7262 17.6856 92.3964 17.7545C92.0667 17.8235 91.7139 17.899 91.338 17.981C90.9703 18.0483 90.5961 18.1361 90.2152 18.2445C89.4189 18.4713 88.7882 18.6883 88.3232 18.8955C87.8549 19.0912 87.4706 19.2755 87.1705 19.4483C86.867 19.6095 86.571 19.7312 86.2825 19.8134ZM90.7939 26.1274C90.54 26.1997 90.32 26.15 90.1339 25.9784C89.9593 25.8035 89.8029 25.5611 89.6648 25.2511C89.5727 25.0153 89.479 24.6863 89.3838 24.2643C89.2969 23.8274 89.2231 23.3493 89.1626 22.83C89.0988 22.2992 89.0457 21.7841 89.0034 21.2846C88.9496 20.6137 88.8999 20.0227 88.8542 19.5117C88.8168 18.9858 88.7809 18.5531 88.7466 18.2135L90.2751 17.666C90.2848 17.8754 90.2977 18.14 90.3139 18.4597C90.3384 18.7647 90.3685 19.1117 90.4044 19.5007C90.4371 19.8782 90.4672 20.2689 90.4948 20.6728C90.5307 21.0618 90.5634 21.4393 90.5927 21.8053C90.6416 22.4152 90.7046 22.9213 90.7817 23.3236C90.867 23.711 90.95 24.0243 91.0305 24.2633C91.111 24.5024 91.1801 24.7011 91.2376 24.8594C91.2919 25.0062 91.3256 25.1463 91.3386 25.2798C91.3517 25.4134 91.3384 25.5419 91.2987 25.6655C91.2557 25.7775 91.1889 25.8714 91.0982 25.9472C91.0107 26.0345 90.9093 26.0945 90.7939 26.1274ZM96.4225 24.5062C96.1453 24.5851 95.8915 24.4826 95.661 24.1989C95.4305 23.9152 95.2867 23.4321 95.2297 22.7496C95.1987 22.4216 95.1736 21.9172 95.1544 21.2364C95.132 20.5441 95.183 19.781 95.3074 18.947C95.4501 17.9582 95.6049 17.1655 95.772 16.5689C95.9357 15.9608 96.1348 15.4987 96.3695 15.1824C96.6035 14.8661 96.8765 14.6637 97.1885 14.5749C97.4305 14.5059 97.6435 14.5515 97.8255 14.7115C98.0205 14.8683 98.1855 15.077 98.3225 15.3375C98.4585 15.5981 98.5835 15.8619 98.6975 16.1291C98.8485 16.4852 99.0225 16.8785 99.2205 17.3089C99.4295 17.736 99.6455 18.1673 99.8695 18.6026C100.104 19.0347 100.345 19.4404 100.59 19.8198C100.848 20.1958 101.104 20.5035 101.358 20.7427L100.774 21.0587C100.922 20.3055 101.092 19.5458 101.286 18.7795C101.479 18.0132 101.682 17.2758 101.892 16.5672C102.102 15.8586 102.307 15.2201 102.507 14.6516C102.734 14.0502 102.946 13.6094 103.141 13.3294C103.347 13.0461 103.553 12.8748 103.761 12.8157C103.911 12.773 104.059 12.7682 104.206 12.8013C104.35 12.8228 104.479 12.8609 104.594 12.9154C104.757 13.0062 104.9 13.134 105.022 13.299C105.144 13.4639 105.235 13.7376 105.294 14.1201C105.427 14.9807 105.571 15.7506 105.727 16.4298C105.891 17.0943 106.043 17.6499 106.183 18.0967C106.421 18.8898 106.659 19.5081 106.897 19.9517C107.147 20.3921 107.276 20.6864 107.28 20.8348C107.299 20.9914 107.254 21.1356 107.142 21.2673C107.044 21.4073 106.902 21.5036 106.717 21.5562C106.44 21.6351 106.173 21.5681 105.912 21.3552C105.663 21.139 105.452 20.8125 105.278 20.3755C105.114 19.9732 104.93 19.4579 104.726 18.8297C104.533 18.1982 104.349 17.4835 104.171 16.6855C104.002 15.8727 103.86 15.027 103.747 14.1483L104.215 13.8842C104.053 14.367 103.873 14.9174 103.674 15.5353C103.484 16.1385 103.289 16.7679 103.09 17.4238C102.901 18.0763 102.722 18.7199 102.553 19.3543C102.396 19.9855 102.265 20.5779 102.161 21.1317C102.097 21.3871 101.996 21.6029 101.859 21.7792C101.733 21.9521 101.562 22.0698 101.342 22.1323C101.065 22.2111 100.816 22.2134 100.595 22.139C100.382 22.0498 100.181 21.9078 99.9875 21.7131C99.8035 21.5036 99.6235 21.2678 99.4495 21.0055C99.3575 20.8571 99.2295 20.6501 99.0665 20.3846C98.9005 20.1075 98.7245 19.7958 98.5385 19.4495C98.3525 19.1031 98.1655 18.7321 97.9785 18.3363C97.7905 17.9406 97.6165 17.5473 97.4555 17.1565C97.2905 16.7541 97.1575 16.3741 97.0555 16.0163L97.5355 15.7299C97.3045 16.4072 97.1155 17.0597 96.9705 17.6876C96.8355 18.3122 96.7475 18.9426 96.7035 19.5788C96.6685 20.2002 96.6755 20.8595 96.7245 21.5568C96.7595 22.0332 96.8025 22.4453 96.8515 22.7932C96.9125 23.1377 96.9495 23.4015 96.9645 23.5845C96.9745 23.7938 96.9415 23.9842 96.8655 24.1555C96.7895 24.3269 96.6415 24.4438 96.4225 24.5062ZM112.834 19.8152C111.876 20.0879 111.081 20.1268 110.451 19.9317C109.819 19.725 109.337 19.3447 109.005 18.7905C108.669 18.2248 108.467 17.5398 108.4 16.7353C108.367 16.1336 108.424 15.5057 108.576 14.8514C108.733 14.1824 108.983 13.5439 109.322 12.9359C109.672 12.3247 110.101 11.7968 110.611 11.3523C111.129 10.8929 111.717 10.5695 112.375 10.3822C112.987 10.2081 113.517 10.1632 113.965 10.2477C114.424 10.3289 114.784 10.5386 115.042 10.8767C115.312 11.2116 115.471 11.684 115.521 12.2939C115.586 12.9615 115.455 13.5787 115.131 14.1454C114.801 14.7006 114.335 15.1889 113.731 15.6103C113.139 16.0285 112.463 16.346 111.701 16.5628C110.916 16.7863 110.365 16.8434 110.047 16.7344C109.741 16.622 109.577 16.4438 109.558 16.1999C109.542 16.0548 109.565 15.9419 109.63 15.8612C109.69 15.7689 109.809 15.6982 109.981 15.6489C110.108 15.6127 110.265 15.5931 110.451 15.59C110.646 15.572 110.922 15.5121 111.28 15.4103C111.857 15.246 112.353 15.0173 112.769 14.7243C113.196 14.428 113.52 14.0986 113.742 13.7362C113.96 13.3622 114.056 12.9791 114.032 12.5868C114.003 12.2208 113.882 11.9743 113.672 11.8471C113.472 11.7167 113.147 11.7156 112.698 11.8438C112.247 11.9719 111.844 12.199 111.488 12.5251C111.14 12.8363 110.836 13.2159 110.576 13.664C110.328 14.1088 110.147 14.5908 110.034 15.1099C109.92 15.629 109.886 16.1499 109.936 16.6724C109.974 17.1109 110.076 17.4934 110.243 17.82C110.409 18.135 110.661 18.3627 111 18.5031C111.348 18.6287 111.786 18.6159 112.317 18.4647C112.917 18.2939 113.41 18.0726 113.795 17.801C114.187 17.5146 114.504 17.2248 114.744 16.9316C114.985 16.6384 115.188 16.3872 115.354 16.178C115.519 15.9689 115.681 15.8413 115.843 15.7953C116.039 15.7394 116.2 15.775 116.323 15.902C116.455 16.0142 116.531 16.1923 116.549 16.4363C116.569 16.6803 116.482 16.967 116.289 17.2965C116.104 17.6111 115.835 17.9373 115.482 18.2748C115.141 18.6091 114.742 18.9162 114.285 19.196C113.837 19.4609 113.353 19.6673 112.834 19.8152ZM120.315 14.6904C119.877 14.8152 119.486 14.8206 119.142 14.7066C118.797 14.5925 118.507 14.3821 118.27 14.0753C118.044 13.7652 117.882 13.3933 117.784 12.9597C117.67 12.5179 117.613 12.0538 117.612 11.5676C117.611 11.0813 117.654 10.6198 117.742 10.1831C117.84 9.74314 117.976 9.36744 118.15 9.05604C118.323 8.74464 118.532 8.55444 118.773 8.48544C118.889 8.45264 118.993 8.44774 119.088 8.47094C119.194 8.49084 119.283 8.54034 119.354 8.61954C119.424 8.68714 119.47 8.78614 119.495 8.91634C119.513 9.02354 119.502 9.20154 119.461 9.45034C119.428 9.68444 119.382 9.96544 119.326 10.2933C119.267 10.6098 119.23 10.9443 119.218 11.2971C119.203 11.6383 119.236 11.9721 119.316 12.2985C119.375 12.5063 119.444 12.6802 119.521 12.8204C119.595 12.9491 119.688 13.0349 119.8 13.0778C119.924 13.1175 120.066 13.1143 120.229 13.0683C120.598 12.9632 120.953 12.7624 121.293 12.466C121.632 12.1696 121.935 11.8089 122.201 11.3839C122.478 10.9556 122.706 10.5099 122.886 10.0469C123.063 9.57244 123.176 9.11594 123.227 8.67754L123.872 10.4212C123.633 11.1133 123.336 11.7591 122.983 12.3588C122.641 12.9552 122.242 13.4559 121.783 13.861C121.336 14.2627 120.846 14.5392 120.315 14.6904ZM124.806 16.4624C124.552 16.5347 124.345 16.4875 124.187 16.3209C124.023 16.1427 123.878 15.9159 123.75 15.6405C123.664 15.4278 123.579 15.1524 123.495 14.8145C123.42 14.4617 123.355 14.0808 123.301 13.672C123.247 13.2632 123.21 12.8683 123.188 12.4876C123.171 12.2057 123.16 11.8842 123.158 11.5233C123.15 11.1507 123.151 10.7766 123.156 10.4007C123.161 10.0249 123.173 9.67224 123.191 9.34264C123.206 9.00144 123.217 8.73024 123.222 8.52914C123.233 8.12704 123.276 7.80234 123.356 7.55514C123.448 7.30464 123.596 7.14984 123.804 7.09074C124 7.03484 124.203 7.10844 124.41 7.31134C124.618 7.51424 124.733 7.81194 124.757 8.20424C124.784 8.47124 124.785 8.84544 124.759 9.32674C124.731 9.79654 124.706 10.2835 124.688 10.7879C124.677 11.2774 124.685 11.6994 124.711 12.0538C124.75 12.6291 124.804 13.1253 124.873 13.5424C124.942 13.9595 125.022 14.3239 125.11 14.6355C125.165 14.8696 125.218 15.06 125.272 15.2068C125.326 15.3535 125.359 15.4879 125.369 15.6099C125.381 15.7813 125.341 15.9486 125.25 16.1117C125.174 16.283 125.025 16.3999 124.806 16.4624ZM130.125 14.8919C129.594 15.0431 129.125 15.0393 128.718 14.8807C128.323 14.7188 127.997 14.4309 127.743 14.0169C127.5 13.5996 127.352 13.0803 127.3 12.4588C127.246 11.8753 127.278 11.2671 127.397 10.6342C127.524 9.98654 127.726 9.35544 128 8.74084C128.271 8.11474 128.6 7.54064 128.988 7.01844C129.384 6.48144 129.827 6.02454 130.319 5.64744C130.822 5.26714 131.356 4.99654 131.922 4.83554C132.187 4.75994 132.415 4.77004 132.604 4.86584C132.794 4.96164 132.899 5.15624 132.92 5.44964C132.937 5.59474 132.908 5.73394 132.833 5.86744C132.757 5.98934 132.622 6.08974 132.432 6.16864C131.658 6.51414 130.99 7.01624 130.428 7.67504C129.88 8.33054 129.467 9.05294 129.193 9.84224C128.926 10.6167 128.82 11.3831 128.874 12.1413C128.9 12.4957 128.952 12.8114 129.031 13.0884C129.107 13.3539 129.263 13.6837 129.5 14.0779L128.502 13.0706C128.786 13.2769 129.02 13.3975 129.204 13.4323C129.4 13.4638 129.654 13.4352 129.966 13.3464C130.704 13.1362 131.32 12.4494 131.812 11.2861C132.305 10.1228 132.616 8.54324 132.746 6.54724C132.764 6.30494 132.826 6.10644 132.932 5.95154C133.046 5.78184 133.201 5.66914 133.397 5.61324C133.663 5.53764 133.898 5.59554 134.102 5.78694C134.314 5.96354 134.458 6.22824 134.535 6.58104C134.695 7.32134 134.859 7.98574 135.026 8.57434C135.202 9.14814 135.421 9.67254 135.68 10.1474C135.952 10.6191 136.32 11.0818 136.786 11.5355C136.889 11.6312 136.955 11.7557 136.986 11.909C137.029 12.0591 137.031 12.2148 136.988 12.3763C136.959 12.5346 136.893 12.6779 136.793 12.8064C136.7 12.92 136.573 12.9999 136.412 13.0459C136.239 13.0951 136.09 13.0999 135.967 13.0603C135.855 13.0173 135.746 12.9422 135.641 12.835C135.395 12.5809 135.16 12.3046 134.938 12.006C134.714 11.7075 134.502 11.3562 134.3 10.9522C134.106 10.5333 133.931 10.0279 133.774 9.43604C133.618 8.84414 133.477 8.12954 133.351 7.29204L133.97 7.09724C133.907 8.76204 133.677 10.1439 133.278 11.243C132.892 12.3387 132.415 13.1798 131.844 13.766C131.275 14.3523 130.702 14.7276 130.125 14.8919ZM137.018 5.36854C136.752 5.44414 136.523 5.42244 136.326 5.30364C136.141 5.18144 136.042 5.00994 136.029 4.78904C136.028 4.65224 136.066 4.52284 136.143 4.40094C136.221 4.27904 136.383 4.14574 136.628 4.00084C137.011 3.76714 137.535 3.50554 138.202 3.21604C138.88 2.92334 139.686 2.64384 140.62 2.37764C141.105 2.23964 141.553 2.12474 141.963 2.03274C142.382 1.92604 142.849 1.83664 143.365 1.76454C143.771 1.69904 144.097 1.70594 144.345 1.78524C144.603 1.86134 144.74 1.99084 144.755 2.17384C144.768 2.30734 144.749 2.43754 144.697 2.56444C144.654 2.67644 144.572 2.78104 144.451 2.87824C144.34 2.97204 144.186 3.04694 143.99 3.10274C143.747 3.17174 143.461 3.24074 143.132 3.30964C142.802 3.37864 142.449 3.45414 142.073 3.53614C141.706 3.60344 141.331 3.69124 140.951 3.79964C140.154 4.02644 139.523 4.24344 139.058 4.45064C138.59 4.64634 138.206 4.83064 137.906 5.00344C137.602 5.16464 137.306 5.28634 137.018 5.36854ZM141.529 11.6825C141.275 11.7548 141.055 11.7051 140.869 11.5335C140.695 11.3586 140.538 11.1162 140.4 10.8062C140.309 10.5704 140.214 10.2414 140.119 9.81944C140.032 9.38254 139.958 8.90444 139.898 8.38514C139.835 7.85434 139.781 7.33924 139.739 6.83974C139.685 6.16884 139.635 5.57784 139.589 5.06684C139.552 4.54094 139.516 4.10824 139.482 3.76864L141.01 3.22114C141.02 3.43054 141.033 3.69504 141.049 4.01484C141.074 4.31984 141.104 4.66684 141.14 5.05584C141.172 5.43334 141.202 5.82404 141.23 6.22794C141.266 6.61694 141.299 6.99444 141.328 7.36044C141.377 7.97034 141.44 8.47644 141.517 8.87874C141.602 9.26614 141.686 9.57944 141.766 9.81844C141.846 10.0575 141.915 10.2562 141.973 10.4145C142.027 10.5613 142.061 10.7014 142.074 10.8349C142.087 10.9684 142.074 11.097 142.035 11.2206C141.992 11.3326 141.924 11.4265 141.833 11.5023C141.746 11.5895 141.645 11.6496 141.529 11.6825ZM149.43 9.39564C148.865 9.55664 148.382 9.59414 147.984 9.50804C147.581 9.41034 147.248 9.22464 146.983 8.95074C146.714 8.66534 146.507 8.33134 146.361 7.94884C146.222 7.55144 146.136 7.13934 146.102 6.71234C146.06 6.21284 146.059 5.65824 146.096 5.04834C146.132 4.42694 146.135 3.88964 146.105 3.43634C146.059 2.92524 146.005 2.51644 145.943 2.20984C145.882 1.90314 145.846 1.65094 145.84 1.45314C145.827 1.31954 145.836 1.19844 145.867 1.08964C145.91 0.977639 145.97 0.879641 146.046 0.795641C146.133 0.708341 146.253 0.643341 146.402 0.600641C146.725 0.508641 146.985 0.59044 147.183 0.84614C147.389 1.08694 147.511 1.42664 147.548 1.86514C147.577 2.14374 147.591 2.47674 147.589 2.86404C147.584 3.23984 147.576 3.62884 147.566 4.03104C147.557 4.43324 147.552 4.81484 147.555 5.17584C147.559 5.53684 147.569 5.83924 147.589 6.08324C147.629 6.53324 147.703 6.92404 147.81 7.25544C147.914 7.57524 148.078 7.80294 148.304 7.93824C148.538 8.05884 148.857 8.06164 149.261 7.94654C149.595 7.85134 149.926 7.67604 150.253 7.42084C150.579 7.16564 150.868 6.86514 151.119 6.51924C151.37 6.17334 151.555 5.81494 151.674 5.44424C151.79 5.06184 151.807 4.70754 151.727 4.38104C151.684 4.23104 151.566 4.14024 151.368 4.10874C151.182 4.06244 150.896 4.09354 150.515 4.20194C150.088 4.32354 149.664 4.47554 149.242 4.65814C148.819 4.84074 148.424 5.02824 148.054 5.22074C147.685 5.41324 147.367 5.59104 147.102 5.75394C147.001 5.79504 146.898 5.80564 146.793 5.78584C146.699 5.76264 146.617 5.71724 146.548 5.64954C146.49 5.57864 146.458 5.48794 146.452 5.37754C146.426 5.19784 146.438 5.04454 146.489 4.91764C146.549 4.77594 146.663 4.64994 146.831 4.53974C147.048 4.37834 147.305 4.21134 147.605 4.03854C147.915 3.85084 148.243 3.66984 148.592 3.49544C148.943 3.32104 149.291 3.16564 149.639 3.02914C149.983 2.88114 150.311 2.76274 150.623 2.67404C151.189 2.51304 151.643 2.46484 151.986 2.52944C152.34 2.59074 152.613 2.73764 152.804 2.97024C152.995 3.20284 153.128 3.49554 153.203 3.84834C153.321 4.35124 153.3 4.88774 153.137 5.45794C152.975 6.02804 152.71 6.58414 152.34 7.12614C151.982 7.66474 151.548 8.13744 151.04 8.54414C150.533 8.95074 149.996 9.23464 149.43 9.39564ZM16.2587 63.9466C15.9817 64.0255 15.7485 63.9297 15.5592 63.6592C15.3699 63.3887 15.2096 63.0226 15.0781 62.5609C14.9795 62.2147 14.8983 61.8198 14.8344 61.3764C14.7673 60.9214 14.7059 60.4647 14.6503 60.0064C14.5947 59.5482 14.5415 59.1204 14.4908 58.7231C14.4516 58.3225 14.4132 57.9903 14.3755 57.7266C14.3296 57.3903 14.2796 57.105 14.2255 56.8709C14.1828 56.6335 14.1254 56.3879 14.0531 56.134L14.5102 56.4904L13.2637 56.8453C12.8944 56.9505 12.4549 57.0943 11.9454 57.2768C11.4442 57.4444 10.952 57.622 10.4689 57.8095C9.9857 57.9969 9.5883 58.1787 9.2766 58.3548L9.8192 57.171C10.0263 57.8107 10.1716 58.4743 10.255 59.1617C10.3499 59.8459 10.4292 60.5844 10.4928 61.3773C10.5188 61.7317 10.5506 62.1282 10.5881 62.5666C10.6256 63.0051 10.6524 63.428 10.6685 63.8351C10.6846 64.2423 10.6851 64.5727 10.67 64.8266C10.6534 65.031 10.5939 65.2163 10.4915 65.3827C10.3859 65.5376 10.2349 65.6429 10.0387 65.6988C9.8079 65.7645 9.6094 65.7025 9.443 65.5128C9.2767 65.3231 9.1789 65.0452 9.1496 64.6793C9.1235 64.4122 9.1048 64.1056 9.0936 63.7595C9.0791 63.4018 9.0555 63.0342 9.0229 62.6567C8.9903 62.2792 8.9618 61.9379 8.9373 61.633C8.9 61.0198 8.8395 60.5005 8.7558 60.0751C8.6804 59.635 8.6082 59.25 8.5393 58.9203C8.4819 58.5873 8.4394 58.2625 8.4116 57.946C8.4086 57.6724 8.4566 57.4466 8.5557 57.2687C8.6663 57.0875 8.8461 56.9302 9.0951 56.7969C9.4645 56.6044 9.904 56.4169 10.4135 56.2344C10.9312 56.0371 11.4655 55.8538 12.0162 55.6846C12.5784 55.512 13.1134 55.3534 13.6212 55.2089C14.2906 55.0183 14.8132 55.013 15.1888 55.193C15.5645 55.373 15.7783 55.8174 15.8304 56.5263C15.85 56.7702 15.8843 57.1098 15.9333 57.545C15.9824 57.9802 16.033 58.4649 16.0853 58.999C16.1491 59.5298 16.226 60.0631 16.3162 60.5989C16.4031 61.1232 16.5032 61.6062 16.6165 62.0481C16.6575 62.236 16.7117 62.4265 16.7791 62.6194C16.8465 62.8123 16.8884 62.9813 16.9048 63.1264C16.9129 63.2862 16.86 63.451 16.7461 63.6207C16.6404 63.7755 16.478 63.8842 16.2587 63.9466ZM23.2983 61.8488C22.7443 62.0065 22.2382 62.0695 21.78 62.0378C21.3218 62.006 20.9486 61.9002 20.6603 61.7203C20.372 61.5403 20.2131 61.3111 20.1837 61.0325C20.1789 60.8841 20.2079 60.7448 20.2706 60.6147C20.3334 60.4845 20.4398 60.3981 20.5898 60.3554C20.7052 60.3225 20.8173 60.3218 20.9261 60.3532C21.0349 60.3846 21.1642 60.4227 21.3142 60.4673C21.4641 60.512 21.6701 60.5344 21.9322 60.5346C22.191 60.5233 22.5282 60.4585 22.9437 60.3403C23.59 60.1562 24.1054 59.8411 24.4898 59.3947C24.8826 58.9336 25.0381 58.2966 24.9564 57.4839C24.9174 56.9086 24.7835 56.4165 24.5548 56.0075C24.3343 55.5837 24.0454 55.2479 23.6879 55.0004C23.3272 54.7412 22.9144 54.5843 22.4496 54.5294C21.9848 54.4746 21.487 54.5228 20.9561 54.6739C20.6906 54.7495 20.4276 54.8556 20.1671 54.9921C19.9065 55.1287 19.6724 55.2266 19.4646 55.2857C19.3377 55.3219 19.214 55.3259 19.0937 55.2977C18.9701 55.2581 18.8746 55.1854 18.8071 55.0799C18.7396 54.9743 18.701 54.8606 18.6912 54.7386C18.6718 54.4073 18.8121 54.1115 19.1124 53.8513C19.4209 53.5764 19.9387 53.3354 20.6658 53.1284C21.4391 52.9082 22.1636 52.8454 22.8393 52.94C23.5265 53.0313 24.1354 53.2634 24.6658 53.6365C25.1929 53.9979 25.621 54.4937 25.9501 55.1236C26.2874 55.7388 26.4903 56.4733 26.5588 57.3272C26.606 57.8877 26.5561 58.4134 26.409 58.9045C26.2733 59.3923 26.0619 59.833 25.7748 60.2267C25.4843 60.6088 25.1296 60.9406 24.7107 61.2221C24.2884 61.492 23.8177 61.7009 23.2983 61.8488ZM20.4918 67.439C20.3533 67.4784 20.2222 67.4783 20.0986 67.4386C19.9899 67.4072 19.9001 67.3329 19.8293 67.2158C19.7586 67.0987 19.7159 66.9487 19.7012 66.7657C19.6865 66.5827 19.704 66.4031 19.7536 66.2268C19.795 66.0653 19.838 65.8659 19.8827 65.6285C19.9308 65.4028 19.9681 65.1176 19.9948 64.7732C20.0215 64.4287 20.0145 63.9878 19.9738 63.4504C19.92 62.7794 19.8159 62.1291 19.6616 61.4993C19.5155 60.8546 19.3521 60.2149 19.1713 59.5802C18.9989 58.9306 18.8322 58.2793 18.6712 57.6264C18.507 56.962 18.3931 56.277 18.3295 55.5715C18.3198 55.3621 18.3315 55.1841 18.3646 55.0375C18.3977 54.8908 18.458 54.7738 18.5454 54.6865C18.6411 54.5844 18.764 54.512 18.914 54.4693C19.0987 54.4167 19.2668 54.4375 19.4183 54.5316C19.5782 54.6108 19.7107 54.7478 19.816 54.9424C19.9181 55.1254 19.9747 55.3464 19.986 55.6052C20.0447 56.3371 20.1454 57.0196 20.2882 57.6527C20.4393 58.2709 20.5986 58.8744 20.7662 59.463C20.9453 60.0483 21.1071 60.6385 21.2516 61.2337C21.3961 61.8289 21.4936 62.4562 21.5441 63.1156C21.6013 63.7107 21.6205 64.2604 21.6019 64.7648C21.5833 65.2691 21.5277 65.7092 21.435 66.0849C21.3539 66.4574 21.2341 66.7597 21.0757 66.992C20.9288 67.221 20.7341 67.37 20.4918 67.439ZM31.2939 59.666C30.763 59.8171 30.2941 59.8134 29.8871 59.6548C29.4916 59.4929 29.1663 59.2049 28.9112 58.791C28.6677 58.3737 28.5198 57.8543 28.4676 57.2329C28.4138 56.6493 28.4465 56.0411 28.5658 55.4083C28.6933 54.7606 28.8941 54.1295 29.1683 53.5149C29.4392 52.8888 29.7686 52.3147 30.1565 51.7925C30.5526 51.2555 30.9964 50.7985 31.4879 50.4215C31.991 50.0412 32.5253 49.7705 33.0909 49.6095C33.3563 49.534 33.5838 49.5441 33.7732 49.6398C33.9627 49.7356 34.068 49.9302 34.0892 50.2236C34.1055 50.3687 34.0766 50.508 34.0023 50.6414C33.9247 50.7633 33.7911 50.8637 33.6014 50.9427C32.8264 51.2881 32.1584 51.7902 31.5973 52.449C31.0478 53.1046 30.6359 53.827 30.3615 54.6163C30.0954 55.3907 29.9892 56.1571 30.0429 56.9154C30.069 57.2698 30.1214 57.5855 30.2003 57.8625C30.2758 58.1279 30.4321 58.4578 30.6691 58.8519L29.6712 57.8447C29.9545 58.051 30.1884 58.1715 30.373 58.2063C30.5691 58.2378 30.823 58.2092 31.1346 58.1205C31.8733 57.9102 32.4887 57.2234 32.981 56.0602C33.4733 54.8969 33.7847 53.3173 33.9151 51.3213C33.9334 51.079 33.9954 50.8804 34.1011 50.7256C34.215 50.5559 34.37 50.4431 34.5662 50.3873C34.8317 50.3117 35.0665 50.3696 35.2707 50.561C35.4832 50.7376 35.6272 51.0023 35.7027 51.3551C35.8635 52.0953 36.0277 52.7597 36.1953 53.3484C36.3712 53.9221 36.5891 54.4465 36.8491 54.9215C37.1206 55.3931 37.4894 55.8558 37.9554 56.3096C38.0576 56.4053 38.1242 56.5298 38.1554 56.6831C38.1981 56.8331 38.1988 56.9889 38.1574 57.1504C38.1276 57.3086 38.0623 57.452 37.9617 57.5804C37.8693 57.6941 37.7423 57.7739 37.5807 57.8199C37.4076 57.8692 37.2592 57.874 37.1356 57.8343C37.0236 57.7914 36.9149 57.7163 36.8095 57.609C36.5625 57.355 36.3278 57.0786 36.1056 56.7801C35.8833 56.4815 35.671 56.1302 35.4687 55.7262C35.2745 55.3074 35.0995 54.802 34.9434 54.2101C34.7874 53.6182 34.6463 52.9035 34.5202 52.0661L35.1385 51.8713C35.0759 53.5361 34.8455 54.918 34.4473 56.017C34.0605 57.1128 33.5826 57.9538 33.0133 58.5401C32.4441 59.1264 31.871 59.5017 31.2939 59.666ZM42.8674 56.3335C42.4058 56.4649 41.9598 56.5419 41.5296 56.5646C41.1076 56.5725 40.7219 56.5326 40.3726 56.4449C40.0347 56.3539 39.7505 56.2102 39.52 56.0139C39.3009 55.8142 39.1635 55.5726 39.1077 55.289C39.0634 55.0895 39.0809 54.9099 39.1601 54.7501C39.2477 54.5754 39.3665 54.4668 39.5165 54.424C39.655 54.3846 39.7959 54.4194 39.9392 54.5283C40.0907 54.6224 40.2736 54.7388 40.4878 54.8774C40.7102 55.0012 40.9911 55.0897 41.3306 55.1428C41.6669 55.1843 42.1004 55.1295 42.6313 54.9783C43.4046 54.7581 43.9538 54.4521 44.2788 54.0601C44.6122 53.6532 44.7279 53.2709 44.6261 52.9132C44.5817 52.7137 44.4533 52.5693 44.2408 52.4801C44.0365 52.3761 43.7522 52.3198 43.3879 52.3112C43.0203 52.2911 42.5538 52.3178 41.9884 52.3915C41.5334 52.4586 41.226 52.4526 41.0662 52.3733C40.9146 52.2792 40.8257 52.1423 40.7995 51.9626C40.7585 51.7747 40.8378 51.6149 41.0373 51.4832C41.2369 51.3515 41.5832 51.1656 42.0763 50.9254C42.7244 50.6161 43.2175 50.2885 43.5558 49.9427C43.9055 49.5936 44.0402 49.2558 43.9597 48.9294C43.8825 48.6145 43.6709 48.4189 43.3248 48.3428C42.9755 48.2551 42.5469 48.2835 42.0391 48.4281C41.462 48.5924 41.0044 48.8038 40.6662 49.0623C40.3248 49.3092 40.06 49.5406 39.8719 49.7563C39.6954 49.9688 39.5436 50.0931 39.4166 50.1292C39.2897 50.1654 39.1784 50.1471 39.0829 50.0745C38.9989 49.9986 38.9446 49.8956 38.92 49.7653C38.8724 49.5543 38.9056 49.3203 39.0196 49.0632C39.1451 48.8029 39.3332 48.5435 39.584 48.2849C39.8463 48.0231 40.1721 47.7868 40.5613 47.5762C40.9588 47.3508 41.4056 47.1674 41.9019 47.0261C42.9175 46.7369 43.7203 46.708 44.3102 46.9393C44.9116 47.1674 45.2928 47.6078 45.4537 48.2607C45.5325 48.6251 45.4885 49.0181 45.3216 49.44C45.163 49.8469 44.8643 50.2439 44.4254 50.6309C43.9833 51.0063 43.3797 51.3403 42.6146 51.633L42.5234 51.3783C43.239 51.1745 43.8432 51.0836 44.336 51.1055C44.8371 51.1126 45.2342 51.2365 45.5274 51.4775C45.8288 51.7036 46.0304 52.0392 46.1322 52.4843C46.2652 52.9954 46.2005 53.513 45.9379 54.0369C45.6836 54.546 45.2851 55.0088 44.7424 55.4253C44.1964 55.8303 43.5714 56.133 42.8674 56.3335ZM48.7297 53.6538C48.7812 53.2648 48.8615 52.824 48.9708 52.3312C49.0767 51.8269 49.1951 51.3004 49.3258 50.7516C49.4681 50.1996 49.6136 49.6591 49.7625 49.1301C49.9196 48.5863 50.0725 48.0936 50.2213 47.652C50.4212 47.0835 50.6294 46.5438 50.8458 46.0331C51.0622 45.5223 51.2843 45.0972 51.5121 44.7579C51.7482 44.4037 51.9758 44.1954 52.1951 44.133C52.4259 44.0672 52.6558 44.1078 52.8848 44.2548C53.1253 44.3984 53.3789 44.6755 53.6456 45.0862C53.8299 45.3831 54.0447 45.7649 54.2898 46.2316C54.535 46.6983 54.7875 47.2128 55.0474 47.7751C55.3041 48.3259 55.545 48.8874 55.7703 49.4596C55.9956 50.0317 56.1847 50.5643 56.3375 51.0573L54.8535 51.6296C54.6842 51.0789 54.473 50.4902 54.2197 49.8636C53.9747 49.2222 53.7132 48.6104 53.4351 48.0283C53.1571 47.4462 52.8963 46.9465 52.6528 46.5292C52.4059 46.1004 52.196 45.8233 52.023 45.6979L52.6588 45.3672C52.4012 45.8647 52.1402 46.4381 51.8759 47.0873C51.6231 47.7332 51.4049 48.4129 51.2212 49.1265C51.0839 49.6522 50.9574 50.1499 50.8416 50.6195C50.7257 51.0892 50.624 51.5424 50.5362 51.9791C50.4567 52.401 50.3804 52.8344 50.3075 53.2794L48.7297 53.6538ZM57.1672 54.8262C56.9364 54.8919 56.7345 54.862 56.5616 54.7366C56.3886 54.6112 56.2973 54.4438 56.2876 54.2344C56.2712 54.0894 56.2871 53.8602 56.3352 53.5471C56.3866 53.2455 56.4322 52.9019 56.4721 52.5162C56.5121 52.1305 56.5141 51.7432 56.4782 51.3541L57.3528 52.0596C57.1846 52.0825 56.9241 52.1317 56.5713 52.2072C56.2301 52.2795 55.7997 52.3895 55.2804 52.5374C54.7956 52.6754 54.2952 52.8241 53.7792 52.9835C53.2713 53.1281 52.7652 53.2784 52.2606 53.4345C51.7676 53.5874 51.2895 53.7485 50.8261 53.9178C50.3595 54.0756 49.9118 54.2343 49.4831 54.3938C49.0577 54.5648 48.6743 54.7301 48.333 54.8897L48.8356 54.0915C48.8553 54.2481 48.8847 54.4393 48.9241 54.6652C48.9634 54.8911 49.0086 55.1153 49.0595 55.3378C49.1136 55.572 49.1596 55.7772 49.1973 55.9536C49.2466 56.1267 49.2811 56.2479 49.3009 56.3172C49.3452 56.5167 49.3186 56.6864 49.2213 56.8264C49.1272 56.978 48.982 57.0817 48.7858 57.1376C48.6127 57.1869 48.4594 57.1744 48.326 57.1001C48.181 57.029 48.0608 56.9135 47.9653 56.7536C47.8698 56.5936 47.7958 56.4213 47.7433 56.2366C47.7071 56.1097 47.6702 55.958 47.6324 55.7816C47.5831 55.6084 47.5454 55.432 47.5192 55.2524C47.4814 55.0759 47.4593 54.9325 47.4528 54.8221C47.4464 54.6243 47.4697 54.443 47.5226 54.2782C47.5606 54.1052 47.6457 53.9437 47.7777 53.7938C47.9097 53.6439 48.0961 53.5098 48.3368 53.3913C48.6122 53.263 48.9874 53.1125 49.4622 52.9399C49.9454 52.7524 50.4895 52.5601 51.0946 52.3629C51.708 52.1508 52.342 51.9453 52.9965 51.7465C53.6478 51.5361 54.2735 51.3455 54.8737 51.1746C55.0699 51.1188 55.2776 51.0596 55.4969 50.9972C55.7277 50.9315 55.966 50.8699 56.2116 50.8124C56.4573 50.755 56.6947 50.7123 56.9238 50.6845C57.2684 50.6238 57.523 50.6636 57.6877 50.8039C57.864 50.9409 57.97 51.2039 58.0059 51.5929C58.0304 51.8979 58.0309 52.2284 58.0075 52.5844C57.9841 52.9404 57.931 53.2799 57.8483 53.6029C57.7804 53.9342 57.6846 54.211 57.5607 54.4334C57.4484 54.6525 57.3173 54.7834 57.1672 54.8262ZM60.6411 51.3293C60.2256 51.4476 59.873 51.261 59.5834 50.7695C59.2937 50.278 59.1106 49.5691 59.034 48.6427C58.9983 47.9915 59.0227 47.4855 59.1071 47.1246C59.1998 46.7489 59.3451 46.4704 59.543 46.2893C59.6503 46.1839 59.8177 46.0926 60.0452 46.0153C60.2695 45.9265 60.5086 45.846 60.7625 45.7737C61.605 45.5338 62.4245 45.2568 63.2209 44.9428C64.0256 44.6138 64.79 44.2091 65.514 43.7284L66.1657 44.8342C65.6313 45.2359 65.0343 45.5931 64.3746 45.9056C63.715 46.2182 63.034 46.4994 62.3316 46.7493C61.6374 46.9844 60.9556 47.1972 60.2862 47.3878L59.2378 47.5179C59.194 46.7942 59.146 46.0343 59.094 45.2381C59.042 44.4419 58.9899 43.7331 58.9378 43.1116C58.9051 42.8215 58.9333 42.5701 59.0225 42.3576C59.1117 42.145 59.2429 42.0141 59.416 41.9648C59.7046 41.8827 59.9509 41.9373 60.1551 42.1287C60.3561 42.3085 60.4736 42.6556 60.5077 43.1699C60.5339 43.437 60.5517 43.7625 60.5612 44.1466C60.5708 44.5307 60.5795 44.9337 60.5873 45.3557C60.6067 45.7744 60.6212 46.1758 60.6307 46.5598C60.6485 46.9291 60.6671 47.2357 60.6867 47.4796C60.7388 48.1885 60.8058 48.8182 60.8877 49.3688C60.9778 49.9046 61.0376 50.3118 61.067 50.5904C61.0784 50.7618 61.0412 50.9159 60.9554 51.0526C60.8843 51.1976 60.7796 51.2898 60.6411 51.3293ZM66.6137 49.6288C66.3252 49.711 66.0698 49.6028 65.8476 49.3042C65.6369 49.0024 65.4551 48.5613 65.3024 47.9809C65.1579 47.3857 65.0547 46.7164 64.9927 45.973C64.9081 44.7993 64.8603 43.8646 64.8494 43.169C64.8468 42.4586 64.8663 41.8916 64.9079 41.468C64.9279 41.1878 64.9793 40.9299 65.0619 40.6943C65.1445 40.4586 65.284 40.3129 65.4802 40.257C65.7341 40.1847 65.9475 40.255 66.1203 40.4678C66.3015 40.6657 66.4051 40.9419 66.4311 41.2963C66.4686 41.7348 66.4698 42.2211 66.4347 42.7551C66.4111 43.2859 66.4279 43.8488 66.485 44.4439C66.5437 45.1758 66.6247 45.8327 66.728 46.4147C66.8395 46.9818 66.9438 47.4574 67.0407 47.8416C67.1376 48.2257 67.1892 48.5167 67.1956 48.7145C67.2201 48.9321 67.1755 49.1258 67.0616 49.2954C66.9477 49.4651 66.7984 49.5762 66.6137 49.6288ZM71.6843 48.1852C71.2919 48.2969 70.954 48.2933 70.6706 48.1744C70.3987 48.0521 70.1681 47.8558 69.9788 47.5853C69.7862 47.3032 69.639 46.9833 69.5371 46.6255C69.4435 46.2529 69.382 45.8836 69.3527 45.5177C69.3365 45.1979 69.327 44.8138 69.3241 44.3655C69.3328 43.9138 69.348 43.4416 69.3699 42.9488C69.3918 42.4559 69.4162 41.9936 69.4429 41.5618C69.4812 41.1266 69.5154 40.7863 69.5452 40.5407C69.5803 40.0941 69.6243 39.7447 69.6773 39.4925C69.7418 39.2371 69.8606 39.0847 70.0337 39.0354C70.1838 38.9927 70.3371 39.0052 70.4936 39.0729C70.6501 39.1407 70.7802 39.2471 70.8839 39.3923C70.9992 39.5341 71.0674 39.7081 71.0887 39.9141C71.1066 40.1087 71.1014 40.3971 71.073 40.7795C71.0446 41.1619 71.0105 41.5896 70.9705 42.0626C70.9305 42.5357 70.8979 43.0128 70.8727 43.4941C70.8442 43.9639 70.8447 44.3817 70.874 44.7477C70.8935 45.079 70.9328 45.3922 70.9918 45.6873C71.0476 45.9709 71.1249 46.1984 71.2236 46.3699C71.3191 46.5299 71.4418 46.5886 71.5918 46.5458C71.9612 46.4407 72.3349 45.9787 72.7132 45.1598C73.1029 44.3377 73.4855 43.2493 73.861 41.8947C74.0395 41.2949 74.1876 40.7412 74.3051 40.2336C74.4226 39.726 74.5277 39.2844 74.6203 38.9087C74.7097 38.5214 74.8146 38.2108 74.9352 37.9768C75.0557 37.7429 75.2026 37.6012 75.3757 37.552C75.6411 37.4764 75.8611 37.526 76.0357 37.7009C76.2185 37.861 76.3518 38.11 76.4356 38.448C76.521 38.7481 76.6146 39.1207 76.7164 39.5658C76.8297 40.0077 76.9463 40.4611 77.0662 40.926C77.1828 41.3794 77.3028 41.8007 77.426 42.1898C77.6512 42.8493 77.8708 43.3795 78.0847 43.7802C78.3069 44.1661 78.4945 44.4745 78.6476 44.7054C78.8006 44.9364 78.8944 45.1342 78.9289 45.2991C78.9535 45.4293 78.9476 45.562 78.9112 45.6972C78.8715 45.8207 78.8096 45.932 78.7254 46.0308C78.6413 46.1296 78.5357 46.1971 78.4088 46.2332C78.0048 46.3482 77.6407 46.1649 77.3165 45.6833C76.9922 45.2017 76.6574 44.5297 76.312 43.6673C76.1706 43.2584 76.0211 42.8206 75.8633 42.354C75.717 41.8841 75.5823 41.4109 75.4591 40.9344C75.3474 40.4546 75.2457 40.0095 75.1537 39.599L75.7051 39.6292C75.6239 40.089 75.5196 40.599 75.3921 41.1593C75.2647 41.7197 75.0769 42.4406 74.8288 43.3222C74.6139 44.0572 74.3561 44.7732 74.0554 45.4701C73.7515 46.1555 73.4023 46.7478 73.0079 47.2469C72.6218 47.7311 72.1805 48.0439 71.6843 48.1852ZM87.6881 43.6287C87.3419 43.7273 86.9315 43.7319 86.4568 43.6424C85.9789 43.5414 85.487 43.3696 84.9812 43.1268C84.487 42.8807 84.015 42.6034 83.5653 42.2947C83.1271 41.9828 82.7631 41.6684 82.4733 41.3517C82.3053 41.1999 82.1827 41.0539 82.1053 40.9137C82.0362 40.7587 81.9861 40.6045 81.9549 40.4512C81.9633 40.349 81.9798 40.232 82.0047 40.1002C82.0295 39.9683 82.075 39.8431 82.141 39.7245C82.227 39.5004 82.3929 39.1849 82.6389 38.778C82.8849 38.3711 83.1762 37.9263 83.5129 37.4436C83.8579 36.9462 84.2226 36.4742 84.6071 36.0279C84.9998 35.5667 85.3801 35.1715 85.748 34.8422C86.1274 34.5096 86.4729 34.2989 86.7846 34.2102C86.9115 34.174 87.0178 34.175 87.1035 34.2129C87.2007 34.2477 87.2798 34.3062 87.3407 34.3887C87.4016 34.4712 87.4394 34.5602 87.4542 34.6558C87.5149 34.913 87.4166 35.2031 87.1591 35.5259C86.9017 35.8487 86.6163 36.1608 86.3028 36.4622C85.7501 37.0188 85.2708 37.5483 84.8648 38.0506C84.4588 38.553 84.1395 38.987 83.9067 39.3528C83.6855 39.7152 83.5856 39.9557 83.6069 40.0744C83.6101 40.1733 83.6842 40.302 83.8291 40.4604C83.974 40.6187 84.179 40.7912 84.4442 40.9777C84.721 41.1609 85.0398 41.3384 85.4006 41.5102C85.773 41.6786 86.1767 41.8257 86.6117 41.9514C86.8704 42.0275 87.1217 42.0994 87.3656 42.1672C87.6178 42.2202 87.8254 42.2921 87.9885 42.3829C88.1598 42.4589 88.2611 42.5735 88.2923 42.7268C88.3169 42.8571 88.3093 42.984 88.2697 43.1076C88.23 43.2312 88.1549 43.3399 88.0444 43.4337C87.9454 43.5243 87.8266 43.5893 87.6881 43.6287ZM81.9183 45.2527C81.6182 45.3382 81.3735 45.2456 81.1842 44.9751C80.9916 44.6931 80.8363 44.257 80.7182 43.6668C80.6083 43.0617 80.5158 42.3207 80.4408 41.4437C80.4115 41.0778 80.3888 40.6912 80.3727 40.2841C80.3681 39.8736 80.3636 39.4632 80.359 39.0528C80.3511 38.6308 80.3293 38.2253 80.2934 37.8362C80.2902 37.7373 80.2812 37.6401 80.2664 37.5445C80.2599 37.434 80.2477 37.3252 80.2297 37.218C80.2101 36.9741 80.2194 36.7656 80.2574 36.5925C80.2955 36.4195 80.355 36.2778 80.4358 36.1674C80.525 36.0422 80.6272 35.9632 80.7427 35.9304C81.0081 35.8548 81.2504 35.9168 81.4694 36.1165C81.6967 36.3013 81.825 36.6204 81.8542 37.0737C81.8787 37.3786 81.8882 37.7627 81.8828 38.2259C81.8857 38.6742 81.8861 39.1358 81.884 39.6105C81.8819 40.0852 81.8939 40.4998 81.9199 40.8542C81.9869 41.4839 82.0589 42.0436 82.1359 42.5332C82.2245 43.0195 82.3074 43.4202 82.3846 43.7351C82.4584 44.0384 82.4945 44.2527 82.4927 44.378C82.5091 44.5231 82.4917 44.6591 82.4404 44.7859C82.3975 44.898 82.3306 44.9919 82.2399 45.0676C82.164 45.1516 82.0568 45.2133 81.9183 45.2527ZM92.0563 42.3851C91.6639 42.4968 91.326 42.4932 91.0426 42.3742C90.7707 42.252 90.5402 42.0557 90.3509 41.7852C90.1583 41.5031 90.011 41.1832 89.9092 40.8254C89.8156 40.4528 89.7541 40.0835 89.7248 39.7176C89.7086 39.3978 89.699 39.0137 89.6962 38.5654C89.7048 38.1137 89.7201 37.6415 89.742 37.1487C89.7639 36.6558 89.7882 36.1935 89.815 35.7617C89.8533 35.3265 89.8874 34.9862 89.9173 34.7406C89.9523 34.294 89.9963 33.9446 90.0493 33.6924C90.1138 33.437 90.2327 33.2846 90.4058 33.2353C90.5558 33.1926 90.7091 33.2051 90.8656 33.2728C91.0222 33.3406 91.1523 33.447 91.256 33.5922C91.3712 33.734 91.4395 33.908 91.4607 34.114C91.4787 34.3086 91.4735 34.597 91.4451 34.9794C91.4167 35.3618 91.3825 35.7895 91.3425 36.2625C91.3025 36.7356 91.2699 37.2127 91.2448 37.694C91.2163 38.1638 91.2167 38.5816 91.2461 38.9476C91.2655 39.2789 91.3048 39.5921 91.3639 39.8872C91.4197 40.1708 91.4969 40.3983 91.5957 40.5698C91.6911 40.7298 91.8139 40.7884 91.9639 40.7457C92.3332 40.6406 92.707 40.1786 93.0852 39.3597C93.475 38.5376 93.8576 37.4492 94.233 36.0946C94.4116 35.4948 94.5596 34.9411 94.6771 34.4335C94.7946 33.9259 94.8997 33.4843 94.9924 33.1085C95.0817 32.7213 95.1867 32.4107 95.3072 32.1767C95.4278 31.9428 95.5746 31.8011 95.7477 31.7519C96.0132 31.6763 96.2335 31.7259 96.4075 31.9008C96.5905 32.0609 96.7235 32.3099 96.8075 32.6479C96.8935 32.948 96.9865 33.3206 97.0885 33.7657C97.2015 34.2076 97.3185 34.661 97.4385 35.1259C97.5545 35.5793 97.6745 36.0006 97.7985 36.3897C98.0235 37.0492 98.2425 37.5794 98.4565 37.9801C98.6785 38.366 98.8665 38.6744 99.0195 38.9053C99.1725 39.1362 99.2665 39.3341 99.3005 39.499C99.3255 39.6292 99.3195 39.7619 99.2835 39.8971C99.2435 40.0206 99.1815 40.1318 99.0975 40.2307C99.0135 40.3295 98.9075 40.397 98.7805 40.4331C98.3765 40.5481 98.0125 40.3648 97.6885 39.8832C97.3645 39.4016 97.0295 38.7296 96.6845 37.8672C96.5425 37.4583 96.3935 37.0205 96.2355 36.5539C96.089 36.084 95.9543 35.6108 95.8311 35.1343C95.7195 34.6545 95.6177 34.2094 95.5258 33.7989L96.0771 33.8291C95.9959 34.2889 95.8916 34.7989 95.7642 35.3592C95.6367 35.9195 95.449 36.6405 95.2009 37.5221C94.9859 38.2571 94.7281 38.9731 94.4275 39.67C94.1236 40.3554 93.7744 40.9477 93.38 41.4468C92.9938 41.931 92.5526 42.2438 92.0563 42.3851ZM19.9574 79.4359C18.6648 79.8039 17.5932 80.0279 16.7426 80.1079C15.9002 80.1729 15.2352 80.0939 14.7475 79.8709C14.2598 79.6479 13.8975 79.2959 13.6606 78.8139C13.4319 78.3179 13.285 77.6919 13.2197 76.9373C13.1872 76.4724 13.1539 75.9392 13.1198 75.3375C13.0858 74.7358 13.06 74.1193 13.0424 73.488C13.0216 72.8451 13.0032 72.2328 12.9873 71.6509C12.9713 71.069 12.9619 70.5539 12.9591 70.1056C12.9562 69.6572 12.9631 69.3308 12.9797 69.1265C12.9735 68.7539 13.0125 68.4746 13.0967 68.2884C13.1892 68.0874 13.322 67.9622 13.4951 67.9129C13.6914 67.8571 13.8652 67.8762 14.0168 67.9703C14.1651 68.0529 14.2844 68.1873 14.3749 68.3737C14.4621 68.5485 14.5106 68.7405 14.5203 68.9499C14.5415 69.1559 14.5527 69.5021 14.5539 69.9884C14.5518 70.4631 14.5554 71.0235 14.5647 71.6697C14.5855 72.3125 14.6096 73.0106 14.6369 73.7639C14.6725 74.5024 14.7229 75.2491 14.7882 76.0041C14.8582 76.9075 14.9689 77.5369 15.1202 77.8939C15.283 78.2459 15.5128 78.4619 15.8094 78.5389C16.0648 78.6039 16.3887 78.6239 16.781 78.5999C17.1701 78.5639 17.6119 78.4939 18.1065 78.3909C18.6093 78.2729 19.1551 78.1299 19.7437 77.9619C20.9671 77.6139 21.9588 77.3059 22.7189 77.0401C23.4873 76.7589 24.0769 76.485 24.4875 76.2184C24.8949 75.9402 25.1614 75.6273 25.287 75.2796C25.363 75.1082 25.4201 74.8487 25.4584 74.5009C25.4933 74.1416 25.5077 73.732 25.5015 73.2721C25.5069 72.8089 25.4884 72.3276 25.446 71.8281C25.3906 71.1078 25.3113 70.4129 25.2081 69.7436C25.1049 69.0743 24.9991 68.4618 24.8909 67.9062C24.7826 67.3507 24.6916 66.8775 24.6177 66.4868C24.5439 66.0961 24.4989 65.8282 24.4825 65.6831C24.4843 65.5578 24.5075 65.4202 24.5521 65.2702C24.6083 65.117 24.6884 64.9819 24.7923 64.865C24.8963 64.748 25.0233 64.6682 25.1733 64.6255C25.3695 64.5696 25.5574 64.616 25.7369 64.7645C25.9247 64.8982 26.0522 65.1052 26.1196 65.3854C26.1754 65.5816 26.2427 65.9056 26.3214 66.3573C26.3968 66.7975 26.4788 67.3044 26.5672 67.8781C26.6673 68.4485 26.7533 69.0354 26.8252 69.6388C26.9054 70.2273 26.9684 70.7771 27.0141 71.2881C27.045 71.7035 27.071 72.1016 27.0921 72.4824C27.1131 72.8632 27.1235 73.2283 27.1232 73.5777C27.1196 73.9156 27.1152 74.2288 27.11 74.5173C27.1015 74.7942 27.0773 75.0381 27.0376 75.2491C26.9497 75.7731 26.7243 76.2303 26.3613 76.6207C25.9983 77.011 25.5192 77.3659 24.9238 77.6849C24.3252 77.9929 23.6038 78.2849 22.7596 78.5629C21.9302 78.8489 20.9961 79.1399 19.9574 79.4359ZM19.6541 78.5679C19.5063 77.9609 19.3694 77.2389 19.2432 76.4014C19.1253 75.5491 19.0339 74.6144 18.9689 73.5974C18.9381 73.0946 18.9122 72.5654 18.8913 72.0099C18.8703 71.4544 18.8486 70.9179 18.826 70.4003C18.8001 69.8711 18.7775 69.3972 18.7581 68.9785C18.747 68.545 18.7357 68.1989 18.7244 67.9401C18.7049 67.6961 18.7051 67.4777 18.7251 67.2849C18.7417 67.0805 18.7872 66.9116 18.8615 66.7781C18.9325 66.6331 19.043 66.5393 19.1931 66.4966C19.3777 66.444 19.5459 66.4647 19.6974 66.5588C19.849 66.6529 19.9749 66.8105 20.0753 67.0314C20.1723 67.2409 20.2314 67.4923 20.2526 67.7857C20.3129 68.4797 20.3542 69.3039 20.3764 70.2583C20.3986 71.2127 20.4405 72.1927 20.5022 73.1982C20.5623 74.1543 20.6464 75.0412 20.7544 75.8589C20.874 76.6733 21.0002 77.3799 21.1332 77.9779L19.6541 78.5679ZM36.9887 74.6991C36.6425 74.7977 36.2321 74.8023 35.7574 74.7128C35.2795 74.6118 34.7876 74.44 34.2818 74.1972C33.7876 73.9511 33.3156 73.6738 32.8659 73.3651C32.4277 73.0532 32.0637 72.7388 31.7739 72.4221C31.6059 72.2703 31.4833 72.1243 31.4059 71.9841C31.3368 71.8291 31.2867 71.6749 31.2555 71.5216C31.2639 71.4194 31.2805 71.3024 31.3053 71.1706C31.3301 71.0387 31.3756 70.9135 31.4416 70.7949C31.5276 70.5708 31.6935 70.2553 31.9395 69.8484C32.1855 69.4415 32.4768 68.9967 32.8135 68.514C33.1585 68.0166 33.5232 67.5447 33.9077 67.0983C34.3004 66.6371 34.6807 66.2419 35.0486 65.9126C35.428 65.58 35.7735 65.3693 36.0852 65.2806C36.2121 65.2444 36.3184 65.2454 36.4041 65.2834C36.5013 65.3181 36.5804 65.3766 36.6413 65.4591C36.7022 65.5416 36.74 65.6306 36.7548 65.7263C36.8155 65.9835 36.7172 66.2735 36.4598 66.5963C36.2023 66.9191 35.9169 67.2312 35.6034 67.5326C35.0507 68.0892 34.5714 68.6187 34.1654 69.121C33.7594 69.6234 33.4401 70.0574 33.2073 70.4232C32.9861 70.7856 32.8862 71.0262 32.9075 71.1449C32.9107 71.2438 32.9848 71.3724 33.1297 71.5308C33.2746 71.6891 33.4796 71.8616 33.7448 72.0481C34.0216 72.2313 34.3404 72.4088 34.7012 72.5806C35.0736 72.749 35.4773 72.8961 35.9123 73.0218C36.171 73.0979 36.4223 73.1698 36.6662 73.2376C36.9184 73.2906 37.126 73.3625 37.2891 73.4533C37.4604 73.5293 37.5617 73.6439 37.5929 73.7972C37.6175 73.9275 37.6099 74.0544 37.5703 74.178C37.5306 74.3016 37.4555 74.4103 37.345 74.5041C37.246 74.5947 37.1272 74.6597 36.9887 74.6991ZM31.2189 76.3231C30.9188 76.4086 30.6742 76.3161 30.4848 76.0455C30.2923 75.7635 30.1369 75.3274 30.0188 74.7372C29.9089 74.1321 29.8164 73.3911 29.7414 72.5141C29.7121 72.1482 29.6894 71.7616 29.6733 71.3545C29.6687 70.944 29.6642 70.5336 29.6596 70.1232C29.6517 69.7012 29.6299 69.2957 29.594 68.9066C29.5908 68.8077 29.5818 68.7105 29.567 68.6149C29.5606 68.5044 29.5483 68.3956 29.5303 68.2885C29.5107 68.0445 29.52 67.836 29.558 67.6629C29.5961 67.4899 29.6556 67.3482 29.7365 67.2378C29.8256 67.1126 29.9278 67.0336 30.0433 67.0008C30.3087 66.9252 30.551 66.9872 30.77 67.1869C30.9973 67.3717 31.1256 67.6908 31.1548 68.1441C31.1793 68.4491 31.1888 68.8331 31.1834 69.2963C31.1863 69.7446 31.1867 70.2062 31.1846 70.6809C31.1825 71.1556 31.1945 71.5702 31.2205 71.9246C31.2875 72.5543 31.3595 73.114 31.4366 73.6036C31.5251 74.09 31.608 74.4906 31.6852 74.8055C31.759 75.1088 31.7951 75.3232 31.7933 75.4484C31.8097 75.5935 31.7923 75.7295 31.741 75.8563C31.6981 75.9684 31.6312 76.0623 31.5405 76.138C31.4646 76.222 31.3574 76.2837 31.2189 76.3231ZM43.5951 72.837C42.6487 73.1064 41.8105 73.1205 41.0805 72.8791C40.3621 72.6345 39.7872 72.1931 39.356 71.5548C38.933 70.9016 38.6782 70.0945 38.5918 69.1335C38.5347 68.451 38.593 67.8231 38.7666 67.2496C38.9484 66.6613 39.1879 66.144 39.485 65.6975C39.7937 65.2478 40.127 64.8847 40.4849 64.6081C40.8396 64.32 41.1612 64.1348 41.4497 64.0527C41.5767 64.0165 41.6855 64.0043 41.7761 64.0159C41.8783 64.0242 41.964 64.0622 42.0332 64.1299C42.1106 64.1827 42.1558 64.2759 42.1689 64.4094C42.1769 64.6567 42.1454 64.8965 42.0743 65.1288C41.9999 65.3496 41.8109 65.5843 41.5074 65.8329C41.1478 66.1474 40.8582 66.4669 40.6387 66.7915C40.4274 67.1011 40.2796 67.4364 40.1952 67.7973C40.1075 68.1467 40.0898 68.5448 40.1421 68.9915C40.2236 69.9789 40.5469 70.6979 41.1118 71.1484C41.6735 71.5874 42.3698 71.6886 43.2008 71.452C44.0087 71.222 44.6306 70.733 45.0664 69.9851C45.5105 69.2223 45.6869 68.3299 45.5955 67.3079C45.5272 66.3666 45.2723 65.6906 44.831 65.2797C44.3863 64.8573 43.8177 64.7447 43.1253 64.9419C42.7675 65.0437 42.4813 65.2001 42.2669 65.4108C42.0639 65.6183 41.851 65.8786 41.6282 66.1916C41.4698 66.4238 41.3468 66.6273 41.2593 66.8019C41.1717 66.9766 41.0875 67.1191 41.0067 67.2294C40.9341 67.325 40.8227 67.3941 40.6727 67.4368C40.5111 67.4828 40.3694 67.467 40.2475 67.3894C40.1338 67.297 40.0656 67.1231 40.0427 66.8675C40.0133 66.589 40.0688 66.2799 40.2093 65.9405C40.3612 65.5978 40.5659 65.265 40.8234 64.9422C41.0891 64.6045 41.3926 64.3122 41.7341 64.0653C42.0722 63.8068 42.4259 63.625 42.7953 63.5199C43.6262 63.2833 44.3573 63.2873 44.9883 63.5318C45.6161 63.7648 46.1193 64.1955 46.4978 64.8239C46.8731 65.4407 47.0932 66.2139 47.1583 67.1437C47.2432 68.0553 47.1484 68.9057 46.8741 69.695C46.5964 70.4728 46.1738 71.1358 45.6063 71.6842C45.0503 72.2293 44.3799 72.6135 43.5951 72.837ZM49.7663 71.08C49.6047 71.126 49.463 71.1102 49.3411 71.0326C49.234 70.9633 49.1459 70.8511 49.0768 70.6961C48.9962 70.5444 48.9527 70.3696 48.9463 70.1718C48.9333 69.9509 48.9641 69.6427 49.0386 69.2472C49.1214 68.8368 49.2389 68.3729 49.391 67.8555C49.5398 67.3265 49.7002 66.7943 49.8722 66.2587C50.0606 65.6935 50.2564 65.1324 50.4597 64.5755C50.6712 64.0037 50.8802 63.4888 51.0867 63.0308C51.2899 62.5612 51.4641 62.1872 51.6094 61.9087C51.8406 61.4936 52.079 61.1699 52.3249 60.9377C52.5789 60.6907 52.856 60.5245 53.1561 60.4391C53.4331 60.3602 53.6514 60.4041 53.8112 60.5707C53.9676 60.7258 54.1158 60.9394 54.2556 61.2115C54.3988 61.4951 54.5509 61.8324 54.7121 62.2232C54.8733 62.614 55.0435 63.0147 55.2228 63.4253C55.3988 63.8243 55.583 64.2086 55.7756 64.578C56.0059 65.0364 56.2107 65.4273 56.3901 65.7505C56.581 66.0705 56.7514 66.3401 56.9012 66.5595C57.0625 66.7756 57.2082 66.9587 57.3383 67.1088C57.4618 67.2358 57.5631 67.3505 57.6421 67.4527C57.7211 67.555 57.7729 67.6713 57.7975 67.8015C57.8287 67.9548 57.8236 68.1122 57.7823 68.2737C57.7409 68.4352 57.6666 68.5687 57.5594 68.6741C57.4669 68.7877 57.3457 68.8659 57.1957 68.9086C56.9764 68.9711 56.7506 68.923 56.5184 68.7646C56.2943 68.5913 56.0663 68.3381 55.8342 68.0049C55.6021 67.6717 55.3733 67.3064 55.1478 66.9089C55.0146 66.6599 54.8393 66.3293 54.6221 65.917C54.4132 65.4899 54.1944 65.0281 53.9657 64.5318C53.7338 64.0239 53.52 63.5358 53.3242 63.0675C53.1401 62.5959 52.9962 62.2001 52.8927 61.8803L53.2783 61.9202C53.0406 62.3123 52.797 62.7934 52.5476 63.3634C52.3064 63.9187 52.0627 64.5308 51.8165 65.1998C51.5818 65.8655 51.3595 66.5527 51.1495 67.2613C50.951 67.9666 50.7814 68.6636 50.6407 69.3525C50.5149 69.8749 50.3926 70.2778 50.2736 70.5612C50.1662 70.8413 49.9971 71.0143 49.7663 71.08ZM62.0697 67.5771C61.5273 67.7315 61.0452 67.7253 60.6233 67.5584C60.2015 67.3916 59.8614 67.0954 59.603 66.6699C59.3414 66.2328 59.1795 65.6862 59.1175 65.0301C59.0474 64.2142 58.9813 63.4344 58.9194 62.691C58.8541 61.936 58.7954 61.2914 58.7432 60.7573C58.7024 60.2199 58.6764 59.8655 58.665 59.6941C58.6487 59.549 58.6587 59.4089 58.6951 59.2738C58.743 59.1354 58.8148 59.0151 58.9105 58.913C59.0062 58.8109 59.1176 58.7418 59.2445 58.7056C59.51 58.6301 59.7439 58.7069 59.9465 58.9362C60.1606 59.1622 60.288 59.4566 60.3289 59.8193C60.3517 60.1621 60.3636 60.5767 60.3648 61.063C60.3776 61.5459 60.4068 61.9992 60.4526 62.4229C60.4574 62.5713 60.4638 62.7691 60.4718 63.0163C60.4881 63.2487 60.5002 63.4886 60.5082 63.7358C60.5245 63.9683 60.5383 64.1702 60.5497 64.3416C60.5969 64.9895 60.7333 65.4684 60.9588 65.7785C61.1843 66.0886 61.4933 66.1878 61.8857 66.0761C62.105 66.0137 62.3309 65.887 62.5635 65.696C62.8076 65.5017 63.0304 65.2761 63.2317 65.0191C63.4298 64.7506 63.5841 64.4821 63.6948 64.2135C63.8055 63.945 63.8329 63.7126 63.7771 63.5164C63.7032 63.213 63.5534 62.9936 63.3277 62.8583C63.1135 62.7196 62.8342 62.6369 62.4897 62.6102C62.2936 62.5787 62.0472 62.5678 61.7505 62.5774C61.4538 62.587 61.1414 62.6073 60.8134 62.6383C60.482 62.6578 60.1688 62.6971 59.8737 62.7562L59.8476 61.5471C60.2434 61.3595 60.6829 61.1284 61.1661 60.8535C61.6609 60.5754 62.1664 60.2693 62.6826 59.9352C63.1988 59.601 63.6903 59.2677 64.1571 58.9352C64.6866 58.5599 65.1452 58.1985 65.5328 57.851C65.9321 57.5003 66.2719 57.2039 66.5523 56.9619C66.841 56.705 67.0893 56.547 67.297 56.4879C67.6548 56.386 67.9605 56.43 68.2142 56.6198C68.4761 56.7947 68.6225 57.0899 68.6535 57.5053C68.6778 57.8977 68.7005 58.2842 68.7216 58.665C68.7509 59.0309 68.7778 59.4101 68.8021 59.8024C68.8299 60.1189 68.8666 60.489 68.9124 60.9127C68.9548 61.3248 69.0064 61.7468 69.067 62.1787C69.1275 62.6106 69.1956 63.003 69.2711 63.3558C69.3368 63.5866 69.4033 63.8422 69.4706 64.1225C69.5462 64.3879 69.5905 64.5874 69.6036 64.7209C69.6167 64.8545 69.5976 64.9847 69.5464 65.1115C69.5034 65.2236 69.4308 65.3191 69.3285 65.3981C69.2411 65.4854 69.1339 65.5471 69.0069 65.5833C68.7646 65.6523 68.547 65.5894 68.3544 65.3948C68.1699 65.1853 68.0243 64.9148 67.9175 64.5834C67.7532 64.0063 67.6235 63.4194 67.5285 62.8226C67.4301 62.2143 67.3532 61.5936 67.2978 60.9606C67.2832 60.6903 67.2604 60.3911 67.2294 60.063C67.2099 59.7317 67.1921 59.4061 67.1759 59.0863C67.1597 58.7666 67.1418 58.4847 67.1223 58.2407C67.111 57.9819 67.1021 57.7973 67.0956 57.6868L67.5454 57.9518C67.3226 58.1774 67.024 58.4434 66.6496 58.7496C66.2834 59.041 65.8611 59.3546 65.3828 59.6904C64.9012 60.0147 64.3965 60.3456 63.8687 60.683C63.3409 61.0204 62.8041 61.3479 62.2582 61.6655C61.7206 61.9683 61.1978 62.2357 60.6899 62.4676L60.6856 61.7951C60.7746 61.7573 60.9098 61.7063 61.0912 61.6422C61.2808 61.5632 61.5026 61.4876 61.7565 61.4153C61.895 61.3759 62.092 61.3448 62.3475 61.3219C62.6146 61.2958 62.8956 61.2969 63.1906 61.3252C63.4972 61.3502 63.798 61.4205 64.0929 61.5362C64.3961 61.637 64.6547 61.8004 64.8688 62.0265C65.0944 62.2492 65.2524 62.5411 65.3427 62.9022C65.4478 63.3589 65.4152 63.836 65.245 64.3337C65.0863 64.828 64.8394 65.2975 64.5044 65.7423C64.1693 66.187 63.7874 66.5765 63.3585 66.9107C62.9264 67.2334 62.4968 67.4555 62.0697 67.5771ZM72.7964 60.125C72.6118 60.1776 72.4494 60.1552 72.3094 60.0578C72.1661 59.9489 72.0632 59.7848 72.0008 59.5655C71.8399 58.9126 71.7193 58.3356 71.6389 57.8344C71.5669 57.3184 71.5056 56.7744 71.455 56.2024C71.4111 55.5661 71.3819 55.0254 71.3675 54.5803C71.3646 54.132 71.3659 53.7199 71.3712 53.3441C71.3764 52.9683 71.3628 52.5916 71.3302 52.2141C71.3056 51.9965 71.3355 51.7946 71.4197 51.6085C71.5007 51.4107 71.6508 51.2807 71.8701 51.2182C72.1125 51.1492 72.3325 51.1989 72.5301 51.3672C72.7245 51.524 72.8462 51.8199 72.8952 52.2551C72.918 52.598 72.9243 52.9269 72.9141 53.2417C72.9039 53.5565 72.9011 53.9191 72.9057 54.3296C72.9069 54.7285 72.9295 55.2461 72.9734 55.8824C73.0109 56.3209 73.0518 56.6835 73.0961 56.9704C73.1403 57.2572 73.1804 57.5078 73.2165 57.7221C73.2526 57.9364 73.2853 58.1392 73.3148 58.3305C73.3559 58.5184 73.3845 58.7286 73.4008 58.961C73.4153 59.3187 73.3557 59.5915 73.222 59.7792C73.0999 59.9637 72.958 60.079 72.7964 60.125ZM73.3265 64.3535C72.8995 64.475 72.5394 64.459 72.2461 64.3055C71.9496 64.1404 71.7825 63.8386 71.745 63.4001C71.714 63.072 71.7876 62.7828 71.9659 62.5324C72.1441 62.2821 72.3775 62.1158 72.6661 62.0336C73.1739 61.8891 73.5538 61.9306 73.8058 62.1583C74.0578 62.386 74.2001 62.6886 74.2327 63.0661C74.244 63.3249 74.1794 63.5804 74.0391 63.8324C73.9103 64.0812 73.6728 64.2549 73.3265 64.3535Z" fill="#E71985"/>
<path d="M115.552 62.6293C115.039 62.4233 114.458 62.6718 114.252 63.1843C114.046 63.6967 114.294 64.2791 114.807 64.485L115.552 62.6293ZM115.381 62.6775C114.856 62.5026 114.291 62.7856 114.116 63.3094C113.94 63.8333 114.223 64.3997 114.747 64.5746L115.381 62.6775ZM140.583 152.141C141.135 152.161 141.599 151.73 141.619 151.178L141.945 142.184C141.965 141.632 141.534 141.168 140.982 141.148C140.43 141.128 139.966 141.559 139.946 142.111L139.656 150.106L131.661 149.816C131.11 149.796 130.646 150.227 130.626 150.779C130.605 151.331 131.036 151.795 131.589 151.815L140.583 152.141ZM115.179 63.5571C114.806 64.485 114.807 64.485 114.807 64.485L114.808 64.4855C114.808 64.4855 114.811 64.4866 114.812 64.4875C114.817 64.4894 114.825 64.4924 114.835 64.4965C114.854 64.5046 114.884 64.517 114.925 64.5336C115.007 64.5669 115.128 64.6171 115.285 64.6839C115.602 64.8174 116.066 65.017 116.653 65.2793C117.828 65.804 119.494 66.579 121.455 67.5777C125.383 69.5777 130.469 72.4631 135.143 76.0176C139.831 79.5829 144.024 83.7619 146.267 88.3229C148.481 92.8259 148.805 97.7069 145.767 102.882L147.492 103.894C150.911 98.0679 150.534 92.4689 148.062 87.4409C145.619 82.4719 141.142 78.0669 136.354 74.4257C131.55 70.7728 126.351 67.826 122.364 65.7955C120.368 64.779 118.668 63.9893 117.468 63.4531C116.868 63.1849 116.391 62.98 116.063 62.8416C115.899 62.7724 115.773 62.7198 115.687 62.6843C115.644 62.6665 115.611 62.653 115.589 62.6438C115.576 62.6392 115.568 62.6357 115.562 62.6333C115.56 62.6321 115.556 62.6305 115.556 62.6305L115.553 62.6297C115.553 62.6297 115.552 62.6293 115.179 63.5571ZM145.767 102.882C137.506 116.954 134.253 127.61 133.63 135.38C133.007 143.143 135.009 148.088 137.341 150.596L138.805 149.234C136.963 147.252 135.031 142.924 135.623 135.54C136.215 128.164 139.327 117.801 147.492 103.894L145.767 102.882ZM115.064 63.626C114.747 64.5746 114.747 64.5746 114.747 64.5746L114.748 64.5749C114.748 64.5749 114.752 64.5757 114.754 64.5765C114.757 64.5781 114.765 64.5805 114.775 64.5838C114.794 64.5905 114.825 64.6008 114.866 64.6147C114.946 64.6425 115.067 64.6845 115.224 64.7408C115.54 64.8535 116.003 65.0229 116.589 65.2485C117.761 65.6996 119.425 66.3744 121.38 67.2659C125.293 69.0517 130.346 71.6951 134.954 75.1372C139.573 78.5879 143.667 82.7829 145.773 87.6469C147.855 92.4579 148.029 98.0009 144.678 104.313L146.444 105.251C150.079 98.4059 149.934 92.2259 147.608 86.8529C145.306 81.5329 140.902 77.0842 136.151 73.5349C131.388 69.9773 126.197 67.2657 122.21 65.4464C120.213 64.5354 118.512 63.8451 117.307 63.3818C116.705 63.1501 116.226 62.975 115.896 62.8574C115.731 62.7986 115.604 62.7541 115.518 62.7241C115.475 62.7091 115.441 62.6977 115.418 62.6899C115.407 62.686 115.397 62.683 115.392 62.681C115.389 62.6799 115.384 62.6785 115.384 62.6785L115.382 62.6778C115.382 62.6778 115.381 62.6775 115.064 63.626ZM144.678 104.313C130.616 130.796 135.288 146.879 139.887 151.823L141.352 150.461C137.6 146.427 132.561 131.397 146.444 105.251L144.678 104.313Z" fill="#E71985"/>
</svg>
