<svg width="133" height="61" viewBox="0 0 133 61" fill="none" xmlns="http://www.w3.org/2000/svg">
<path fill-rule="evenodd" clip-rule="evenodd" d="M95.3399 42.913C95.4082 43.2785 95.765 43.5203 96.1366 43.4531C103.105 42.1934 107.753 39.8724 111.234 36.7588C114.699 33.6589 116.96 29.8122 119.209 25.6106C119.222 25.5848 119.234 25.5582 119.245 25.5309C119.423 25.0582 119.597 24.5962 119.767 24.1442C123.651 13.8127 125.558 8.7424 131.626 2.41328L131.631 6.81258C131.632 7.18418 131.939 7.48504 132.317 7.48457C132.694 7.4841 133 7.18248 133 6.81088L132.992 0.75527C132.992 0.540593 132.889 0.349524 132.73 0.226525C132.531 0.00588122 132.2 -0.0672472 131.918 0.0682836C131.907 0.0734439 131.896 0.0786144 131.886 0.083795L126.148 0.0909063C125.771 0.0913748 125.465 0.392998 125.465 0.7646C125.466 1.1362 125.772 1.43707 126.15 1.4366L129.623 1.43229C126.872 3.4197 124.982 6.2092 123.456 9.3578C122.247 11.8536 121.236 14.6512 120.209 17.4912C119.626 19.1044 119.038 20.7314 118.406 22.3245C116.639 26.7764 114.49 31.0889 111.055 34.6064C107.634 38.1091 102.901 40.8603 95.8991 42.1278C95.8958 42.1284 95.8925 42.129 95.8892 42.1296C95.5175 42.1968 95.2716 42.5475 95.3399 42.913Z" fill="#7831B2"/>
<path d="M4.65877 31.5934C3.86955 31.7095 3.17237 31.6781 2.56723 31.499C1.97115 31.308 1.47804 31.0052 1.08788 30.5909C0.697721 30.1765 0.409973 29.6828 0.224637 29.1096C0.0499651 28.5349 -0.0228415 27.9131 0.00621704 27.2441C0.0486282 26.5195 0.176864 25.8573 0.390926 25.2576C0.614056 24.6458 0.885684 24.1019 1.20581 23.626C1.52434 23.1395 1.85403 22.7265 2.1949 22.3869C2.53577 22.0473 2.84434 21.7821 3.12063 21.5913C3.39692 21.4006 3.59905 21.2958 3.72704 21.277C3.83369 21.2613 3.93207 21.2629 4.02217 21.2818C4.11228 21.3007 4.19437 21.3744 4.26844 21.5029C4.42086 21.7164 4.43597 21.9232 4.31378 22.1234C4.1916 22.3237 4.01369 22.516 3.78006 22.7005C3.46002 22.962 3.12529 23.3061 2.77585 23.7328C2.43709 24.1578 2.14308 24.6621 1.89383 25.2456C1.65525 25.8275 1.51101 26.492 1.46113 27.2391C1.43476 27.8541 1.52465 28.4091 1.73082 28.9042C1.94765 29.3976 2.2933 29.7703 2.76777 30.0221C3.25131 30.2619 3.88236 30.3246 4.66092 30.21C5.25817 30.1222 5.81788 29.8951 6.34005 29.5288C6.86063 29.152 7.28901 28.6709 7.62517 28.0853C7.9704 27.4878 8.1581 26.8222 8.18825 26.0887C8.20983 25.4423 8.16448 24.8217 8.05221 24.2271C7.93834 23.622 7.75405 23.0916 7.49935 22.6359C7.24305 22.1697 6.91125 21.8164 6.50396 21.5761C6.10734 21.3343 5.6424 21.2526 5.10914 21.331C4.8745 21.3655 4.70143 21.4821 4.5899 21.6808C4.48745 21.8674 4.42951 22.0957 4.41607 22.3657C4.40691 22.5922 4.34259 22.7786 4.22308 22.9248C4.10199 23.0606 3.96145 23.1402 3.80147 23.1637C3.66283 23.1841 3.53459 23.1655 3.41677 23.1078C3.29895 23.05 3.20221 22.9517 3.12655 22.8127C3.04929 22.6633 3.01603 22.4805 3.02678 22.2645C3.04719 21.897 3.14171 21.5507 3.31034 21.2257C3.47897 20.9007 3.71423 20.6195 4.01613 20.3821C4.3287 20.1431 4.70895 19.9907 5.15689 19.9248C5.88212 19.8181 6.53395 19.9099 7.11239 20.2C7.69082 20.4902 8.17189 20.9287 8.55558 21.5156C8.94834 22.0904 9.23735 22.7715 9.4226 23.5591C9.61852 24.3451 9.69124 25.1815 9.64077 26.068C9.60742 26.7806 9.45866 27.4511 9.19446 28.0797C8.93026 28.7082 8.57411 29.2699 8.12601 29.7646C7.68697 30.2474 7.17038 30.6504 6.57624 30.9736C5.99116 31.2849 5.35201 31.4915 4.65877 31.5934Z" fill="#7831B2"/>
<path d="M11.5744 24.0789C11.3291 24.115 11.126 24.0698 10.965 23.9434C10.8146 23.8154 10.7465 23.6539 10.7604 23.4588C10.7748 23.3388 10.8237 23.2297 10.9069 23.1317C10.9901 23.0337 11.1496 22.9352 11.3853 22.8362C11.7533 22.6748 12.2509 22.5052 12.878 22.3271C13.5158 22.1475 14.2667 21.9942 15.1306 21.8671C15.5785 21.8012 15.9907 21.7513 16.3672 21.7174C16.7527 21.6714 17.1796 21.6461 17.6477 21.6416C18.0167 21.6302 18.3068 21.6733 18.5179 21.7709C18.7397 21.8669 18.8466 21.9959 18.8385 22.158C18.8347 22.2764 18.8027 22.3884 18.7424 22.4937C18.6912 22.587 18.6056 22.6693 18.4855 22.7406C18.3762 22.8103 18.2309 22.8585 18.0496 22.8851C17.8256 22.9181 17.5627 22.946 17.2609 22.969C16.9591 22.9919 16.6359 23.018 16.2915 23.0473C15.9561 23.0644 15.6124 23.0989 15.2604 23.1507C14.5245 23.2589 13.9374 23.3775 13.499 23.5063C13.0591 23.6246 12.6954 23.7424 12.4079 23.8598C12.1189 23.9666 11.841 24.0397 11.5744 24.0789ZM14.8657 30.1241C14.6311 30.1587 14.4408 30.0902 14.2947 29.9186C14.1594 29.7456 14.048 29.5154 13.9607 29.228C13.9058 29.0109 13.8604 28.712 13.8243 28.3314C13.7972 27.9387 13.7867 27.5113 13.7928 27.0494C13.7972 26.577 13.8094 26.1196 13.8293 25.6771C13.8589 25.083 13.8828 24.5595 13.9011 24.1065C13.9285 23.6415 13.9465 23.2582 13.9552 22.9567L15.3806 22.6505C15.3651 22.8351 15.346 23.0684 15.3235 23.3505C15.3101 23.6205 15.2969 23.928 15.284 24.273C15.2694 24.6075 15.2512 24.9533 15.2292 25.3103C15.2162 25.6553 15.2017 25.9898 15.1856 26.3138C15.1587 26.8539 15.1564 27.3045 15.1787 27.6658C15.21 28.015 15.2477 28.2989 15.2919 28.5175C15.3361 28.7362 15.3747 28.9181 15.4077 29.0634C15.4391 29.1982 15.4529 29.3248 15.4491 29.4433C15.4453 29.5618 15.4186 29.6729 15.369 29.7767C15.3178 29.87 15.2473 29.9447 15.1577 30.0008C15.0697 30.0673 14.9724 30.1084 14.8657 30.1241Z" fill="#7831B2"/>
<path d="M20.069 29.3426C19.813 29.3803 19.5987 29.2617 19.4261 28.9869C19.2534 28.7121 19.1811 28.2725 19.209 27.6679C19.2193 27.3769 19.2552 26.9321 19.3167 26.3333C19.3767 25.7241 19.5103 25.0612 19.7174 24.3445C19.9588 23.4942 20.1884 22.8171 20.4061 22.3133C20.6223 21.7991 20.853 21.4167 21.0984 21.1661C21.3438 20.9156 21.6105 20.7692 21.8984 20.7268C22.1224 20.6939 22.3066 20.7579 22.4511 20.9189C22.6062 21.0784 22.7295 21.28 22.8211 21.5239C22.9128 21.7677 22.9937 22.0131 23.064 22.2601C23.1577 22.5894 23.2677 22.9538 23.3939 23.3534C23.5308 23.7514 23.6738 24.1539 23.8229 24.5608C23.9827 24.9661 24.15 25.349 24.3248 25.7092C24.5102 26.0679 24.7029 26.3666 24.9027 26.6052L24.3459 26.8158C24.5643 26.1725 24.804 25.5262 25.065 24.8766C25.326 24.2271 25.591 23.6038 25.8599 23.0067C26.1289 22.4096 26.3854 21.8734 26.6292 21.3979C26.9019 20.8968 27.1412 20.5346 27.3471 20.3113C27.5637 20.0864 27.768 19.9599 27.9599 19.9317C28.0986 19.9113 28.2314 19.9239 28.3583 19.9696C28.4835 20.0047 28.5944 20.0527 28.6909 20.1136C28.8258 20.2117 28.938 20.3399 29.0275 20.4983C29.117 20.6567 29.166 20.9068 29.1744 21.2487C29.1933 22.0178 29.233 22.7089 29.2935 23.3218C29.3632 23.9227 29.4344 24.4269 29.5073 24.8343C29.6281 25.5563 29.7691 26.1252 29.9305 26.5411C30.1026 26.9554 30.1822 27.2278 30.1694 27.3583C30.1688 27.4978 30.1109 27.6189 29.9957 27.7216C29.8927 27.8332 29.7559 27.9016 29.5853 27.9267C29.3293 27.9644 29.0976 27.8751 28.8903 27.659C28.6936 27.4414 28.5429 27.1312 28.438 26.7285C28.3379 26.3572 28.2333 25.8848 28.1242 25.3111C28.0258 24.7359 27.9436 24.0886 27.8778 23.3693C27.821 22.6378 27.7931 21.8807 27.7939 21.0979L28.2411 20.9196C28.041 21.3243 27.8168 21.7861 27.5687 22.3051C27.3296 22.812 27.083 23.3414 26.829 23.8934C26.5856 24.4439 26.3521 24.9875 26.1285 25.5243C25.9155 26.0595 25.7306 26.5639 25.5736 27.0373C25.4866 27.2538 25.3719 27.4315 25.2295 27.5704C25.0977 27.7077 24.9305 27.7912 24.7279 27.821C24.4719 27.8587 24.2498 27.8324 24.0616 27.7421C23.8825 27.6398 23.7183 27.4924 23.5691 27.3C23.4289 27.0954 23.2963 26.8683 23.1711 26.6187C23.1061 26.4782 23.0163 26.2823 22.9017 26.0311C22.7856 25.7695 22.6647 25.4763 22.539 25.1517C22.4132 24.8271 22.2897 24.4808 22.1682 24.1127C22.0468 23.7445 21.9368 23.3801 21.8383 23.0193C21.7382 22.6481 21.6635 22.2999 21.614 21.9748L22.0748 21.7784C21.7904 22.3456 21.547 22.896 21.3447 23.4297C21.153 23.9618 21.0011 24.5041 20.8889 25.0567C20.7858 25.5972 20.7157 26.1758 20.6787 26.7924C20.6556 27.2139 20.6458 27.5799 20.6495 27.8903C20.6637 28.1991 20.6668 28.4345 20.6588 28.5965C20.6432 28.7811 20.5917 28.9441 20.5042 29.0856C20.4167 29.2272 20.2716 29.3128 20.069 29.3426Z" fill="#7831B2"/>
<path d="M35.2361 27.0955C34.3509 27.2257 33.639 27.1696 33.1006 26.9271C32.5605 26.6742 32.1744 26.2861 31.9421 25.7627C31.7082 25.2289 31.6079 24.6057 31.6413 23.8932C31.6804 23.3621 31.8049 22.8184 32.0146 22.2622C32.2335 21.6939 32.5288 21.1626 32.9007 20.6684C33.2832 20.1725 33.7273 19.7587 34.2329 19.427C34.7476 19.0833 35.3089 18.8667 35.9168 18.7773C36.4821 18.6941 36.9596 18.715 37.3493 18.8399C37.7497 18.9633 38.0456 19.1878 38.2369 19.5135C38.4389 19.8376 38.5264 20.2697 38.4995 20.8097C38.4806 21.4022 38.2935 21.9282 37.9382 22.3879C37.5813 22.8371 37.1095 23.2121 36.5229 23.5128C35.9468 23.812 35.3069 24.0133 34.603 24.1169C33.8778 24.2236 33.3797 24.211 33.1089 24.0793C32.8487 23.9461 32.724 23.7714 32.7348 23.5554C32.737 23.4264 32.7714 23.3302 32.8381 23.2668C32.9032 23.1929 33.0157 23.1442 33.1757 23.1207C33.293 23.1034 33.4348 23.104 33.6012 23.1224C33.7766 23.1288 34.0296 23.1076 34.3603 23.059C34.8935 22.9805 35.3623 22.8365 35.7666 22.627C36.1815 22.4158 36.5085 22.164 36.7475 21.8715C36.9849 21.5686 37.1154 21.2438 37.139 20.8973C37.1551 20.5732 37.0765 20.3436 36.9033 20.2082C36.7407 20.0713 36.4514 20.0335 36.0355 20.0946C35.6196 20.1558 35.234 20.309 34.8787 20.5543C34.5326 20.7875 34.2181 21.0857 33.9354 21.4489C33.6633 21.8106 33.4464 22.2124 33.2846 22.6543C33.1229 23.0963 33.0337 23.549 33.017 24.0125C32.9997 24.401 33.0471 24.7478 33.1589 25.053C33.2692 25.3477 33.4674 25.5759 33.7537 25.7375C34.0491 25.887 34.4421 25.9257 34.9326 25.8535C35.4872 25.7719 35.9515 25.634 36.3253 25.4396C36.7083 25.2331 37.024 25.0152 37.2726 24.7856C37.5212 24.556 37.7311 24.359 37.9023 24.1944C38.0735 24.0299 38.2338 23.9366 38.3831 23.9146C38.5644 23.888 38.7028 23.9373 38.7982 24.0626C38.9027 24.1759 38.9495 24.3406 38.9388 24.5566C38.928 24.7726 38.8175 25.014 38.6073 25.2808C38.4062 25.5355 38.1288 25.7908 37.7752 26.0465C37.4322 26.3007 37.041 26.5244 36.6016 26.7177C36.1712 26.8989 35.716 27.0249 35.2361 27.0955Z" fill="#7831B2"/>
<path d="M42.4966 23.4543C42.0913 23.5139 41.7418 23.4742 41.448 23.3351C41.1543 23.1961 40.9195 22.9786 40.7436 22.6829C40.5785 22.3855 40.477 22.0413 40.4393 21.6501C40.3893 21.25 40.3919 20.8369 40.447 20.4106C40.5021 19.9844 40.594 19.5849 40.7226 19.2122C40.8619 18.8379 41.0268 18.5241 41.2173 18.271C41.4078 18.0178 41.615 17.8747 41.8389 17.8418C41.9456 17.8261 42.0394 17.8337 42.1205 17.8647C42.2122 17.8941 42.2857 17.9476 42.3412 18.0252C42.395 18.0924 42.4254 18.1844 42.4322 18.3013C42.4359 18.3973 42.4049 18.5519 42.3393 18.7653C42.2827 18.9666 42.2103 19.2078 42.1222 19.4888C42.0325 19.7593 41.962 20.0484 41.9107 20.3561C41.8578 20.6534 41.8484 20.9496 41.8824 21.2448C41.9111 21.4336 41.9518 21.5938 42.0046 21.7254C42.0557 21.8466 42.1287 21.9323 42.2236 21.9827C42.3292 22.0315 42.4566 22.0449 42.6059 22.0229C42.9472 21.9727 43.2864 21.8371 43.6235 21.6159C43.9606 21.3948 44.2721 21.1131 44.558 20.7708C44.8547 20.427 45.1099 20.0624 45.3239 19.6772C45.5363 19.2814 45.69 18.8942 45.7851 18.5157L46.1596 20.1171C45.8661 20.6964 45.5273 21.2287 45.1432 21.714C44.7697 22.1978 44.3552 22.5912 43.8997 22.8941C43.4549 23.1954 42.9872 23.3821 42.4966 23.4543ZM46.2942 25.517C46.0596 25.5516 45.8807 25.4867 45.7576 25.3226C45.6329 25.1479 45.5293 24.9327 45.4467 24.6768C45.3951 24.4807 45.3514 24.2298 45.3158 23.9241C45.2893 23.6063 45.2756 23.2653 45.2747 22.9009C45.2737 22.5365 45.2859 22.1862 45.3111 21.8502C45.3277 21.6011 45.3555 21.3183 45.3946 21.0016C45.432 20.6744 45.4748 20.3465 45.5229 20.0178C45.5711 19.6891 45.6224 19.3813 45.6769 19.0945C45.7298 18.7973 45.7701 18.5608 45.7979 18.3852C45.8535 18.0339 45.931 17.7545 46.0302 17.5469C46.1401 17.3377 46.2911 17.219 46.4831 17.1908C46.6644 17.1641 46.8358 17.2515 46.9973 17.4529C47.1587 17.6543 47.2277 17.9283 47.2041 18.2748C47.1965 18.5118 47.1538 18.8397 47.0757 19.2586C46.9961 19.667 46.9189 20.0912 46.8441 20.5311C46.7783 20.9589 46.7366 21.3295 46.7189 21.6431C46.6872 22.1516 46.678 22.5926 46.6911 22.9659C46.7043 23.3392 46.7325 23.6674 46.7755 23.9506C46.7968 24.1619 46.8231 24.3349 46.8545 24.4697C46.8859 24.6044 46.8989 24.7258 46.8936 24.8338C46.8839 24.9854 46.8292 25.1274 46.7294 25.26C46.6419 25.4016 46.4969 25.4872 46.2942 25.517Z" fill="#7831B2"/>
<path d="M51.2157 24.7448C50.7251 24.817 50.3076 24.7605 49.9632 24.5753C49.6295 24.3885 49.3729 24.0992 49.1933 23.7075C49.0245 23.3142 48.9527 22.8423 48.9779 22.2918C48.9973 21.7743 49.0967 21.245 49.2761 20.704C49.4645 20.1509 49.7164 19.6207 50.0318 19.1133C50.3455 18.5954 50.7054 18.1297 51.1113 17.7161C51.5263 17.2906 51.9747 16.9405 52.4563 16.6659C52.9485 16.3898 53.456 16.2133 53.9786 16.1364C54.2239 16.1004 54.4254 16.135 54.5832 16.2405C54.741 16.3459 54.8124 16.5284 54.7973 16.7879C54.7952 16.9169 54.7533 17.0357 54.6716 17.1442C54.5884 17.2422 54.4577 17.315 54.2796 17.3627C53.549 17.5773 52.8957 17.9415 52.3196 18.4551C51.7542 18.9671 51.3036 19.5534 50.968 20.2139C50.6414 20.8624 50.4582 21.5219 50.4185 22.1924C50.4008 22.506 50.4111 22.7886 50.4493 23.0403C50.486 23.2815 50.5872 23.5882 50.7529 23.9606L49.9799 22.9646C50.2085 23.1776 50.4031 23.3098 50.5636 23.3612C50.7347 23.4111 50.9643 23.4148 51.2523 23.3725C51.9348 23.2721 52.5626 22.7401 53.1357 21.7767C53.7088 20.8132 54.1687 19.4643 54.5154 17.73C54.5598 17.5198 54.638 17.3528 54.75 17.2291C54.8711 17.0934 55.0223 17.0122 55.2036 16.9855C55.4489 16.9494 55.6515 17.0268 55.8114 17.2177C55.9803 17.3966 56.0781 17.6449 56.1046 17.9626C56.1625 18.6296 56.2321 19.2305 56.3135 19.7653C56.4039 20.2881 56.5376 20.7723 56.7144 21.2181C56.9019 21.6622 57.1772 22.1096 57.5401 22.5601C57.6201 22.6555 57.6651 22.7722 57.6752 22.9101C57.6959 23.0464 57.6785 23.183 57.623 23.3198C57.5782 23.4551 57.5035 23.5733 57.3989 23.6745C57.3034 23.7636 57.181 23.8191 57.0317 23.8411C56.8717 23.8646 56.739 23.8519 56.6334 23.8031C56.5385 23.7528 56.4503 23.6746 56.3688 23.5687C56.178 23.318 56.0008 23.0492 55.8372 22.7623C55.6736 22.4755 55.525 22.1435 55.3913 21.7665C55.2666 21.3774 55.169 20.9147 55.0983 20.3783C55.0276 19.8419 54.9844 19.1996 54.9687 18.4514L55.5422 18.3509C55.2942 19.8027 54.9293 20.9875 54.4474 21.9054C53.9762 22.8217 53.4531 23.5044 52.8781 23.9535C52.3031 24.4026 51.749 24.6664 51.2157 24.7448Z" fill="#7831B2"/>
<path d="M62.5447 23.0783C61.6595 23.2085 60.9477 23.1524 60.4092 22.91C59.8692 22.6571 59.483 22.2689 59.2507 21.7456C59.0168 21.2117 58.9166 20.5886 58.9499 19.876C58.9891 19.3449 59.1135 18.8013 59.3233 18.245C59.5421 17.6768 59.8375 17.1455 60.2094 16.6512C60.5919 16.1554 61.0359 15.7416 61.5416 15.4099C62.0563 15.0661 62.6176 14.8495 63.2255 14.7601C64.0681 14.6362 64.7169 14.7444 65.1722 15.0849C65.6381 15.4238 65.8501 15.993 65.8082 16.7926C65.7893 17.385 65.6022 17.9111 65.2469 18.3708C64.89 18.82 64.4182 19.1949 63.8315 19.4957C63.2555 19.7948 62.6156 19.9962 61.9117 20.0997C61.1864 20.2064 60.6884 20.1939 60.4176 20.0622C60.1574 19.9289 60.0327 19.7543 60.0434 19.5383C60.0456 19.4093 60.0801 19.3131 60.1467 19.2497C60.2118 19.1758 60.3243 19.1271 60.4843 19.1035C60.6016 19.0863 60.7435 19.0868 60.9098 19.1053C61.0853 19.1116 61.3383 19.0905 61.6689 19.0418C62.2022 18.9634 62.6709 18.8194 63.0752 18.6098C63.4901 18.3987 63.8171 18.1469 64.0561 17.8544C64.2935 17.5514 64.424 17.2267 64.4476 16.8801C64.4638 16.5561 64.3852 16.3264 64.2119 16.1911C64.0493 16.0542 63.7601 16.0163 63.3442 16.0775C62.9282 16.1387 62.5426 16.2919 62.1874 16.5371C61.8412 16.7703 61.5268 17.0685 61.244 17.4318C60.9719 17.7935 60.755 18.1953 60.5933 18.6372C60.4315 19.0791 60.3423 19.5318 60.3256 19.9953C60.3084 20.3838 60.3557 20.7307 60.4676 21.0359C60.5778 21.3306 60.7761 21.5587 61.0624 21.7203C61.3577 21.8699 61.7507 21.9085 62.2413 21.8364C62.7959 21.7548 63.2601 21.6168 63.634 21.4224C64.0169 21.216 64.3327 20.998 64.5813 20.7685C64.8298 20.5389 65.0397 20.3418 65.211 20.1773C65.3822 20.0127 65.5425 19.9194 65.6918 19.8975C65.8731 19.8708 66.0114 19.9201 66.1068 20.0455C66.2113 20.1588 66.2582 20.3234 66.2474 20.5394C66.2367 20.7555 66.1262 20.9969 65.916 21.2637C65.7149 21.5184 65.4375 21.7736 65.0839 22.0294C64.7409 22.2835 64.3497 22.5073 63.9102 22.7006C63.4798 22.8818 63.0247 23.0077 62.5447 23.0783Z" fill="#7831B2"/>
<path d="M68.9215 22.1564C68.6655 22.194 68.4512 22.0755 68.2786 21.8006C68.1059 21.5258 68.0336 21.0862 68.0615 20.4817C68.0718 20.1907 68.1077 19.7458 68.1692 19.1471C68.2292 18.5378 68.3628 17.8749 68.5699 17.1582C68.8113 16.3079 69.0408 15.6308 69.2586 15.1271C69.4748 14.6128 69.7055 14.2304 69.9509 13.9799C70.1963 13.7293 70.463 13.5829 70.7509 13.5405C70.9749 13.5076 71.1591 13.5716 71.3036 13.7327C71.4587 13.8921 71.582 14.0937 71.6736 14.3376C71.7653 14.5814 71.8462 14.8268 71.9165 15.0738C72.0102 15.4031 72.1202 15.7676 72.2464 16.1671C72.3833 16.5651 72.5263 16.9676 72.6754 17.3745C72.8352 17.7799 73.0025 18.1627 73.1773 18.523C73.3627 18.8817 73.5553 19.1803 73.7552 19.419L73.1984 19.6295C73.4168 18.9863 73.6565 18.3399 73.9175 17.6904C74.1785 17.0408 74.4435 16.4175 74.7124 15.8205C74.9814 15.2234 75.2379 14.6871 75.4817 14.2116C75.7544 13.7105 75.9937 13.3483 76.1996 13.125C76.4162 12.9002 76.6205 12.7736 76.8124 12.7454C76.9511 12.725 77.0839 12.7376 77.2107 12.7833C77.336 12.8185 77.4469 12.8665 77.5434 12.9273C77.6783 13.0254 77.7905 13.1537 77.88 13.312C77.9695 13.4704 78.0185 13.7205 78.0269 14.0624C78.0458 14.8316 78.0855 15.5226 78.146 16.1356C78.2157 16.7365 78.2869 17.2406 78.3598 17.648C78.4806 18.37 78.6216 18.939 78.783 19.3548C78.9551 19.7691 79.0347 20.0415 79.0219 20.172C79.0213 20.3115 78.9634 20.4326 78.8482 20.5353C78.7452 20.647 78.6084 20.7153 78.4378 20.7404C78.1818 20.7781 77.9501 20.6889 77.7428 20.4728C77.5461 20.2551 77.3954 19.9449 77.2905 19.5422C77.1904 19.171 77.0858 18.6985 76.9767 18.1249C76.8783 17.5497 76.7961 16.9024 76.7303 16.183C76.6735 15.4516 76.6456 14.6944 76.6464 13.9117L77.0936 13.7333C76.8935 14.138 76.6693 14.5998 76.4212 15.1188C76.1821 15.6257 75.9355 16.1552 75.6815 16.7072C75.4381 17.2576 75.2046 17.8012 74.981 18.338C74.768 18.8733 74.5831 19.3776 74.4261 19.851C74.3391 20.0675 74.2244 20.2452 74.082 20.3841C73.9502 20.5214 73.783 20.605 73.5804 20.6348C73.3244 20.6724 73.1023 20.6461 72.9141 20.5559C72.735 20.4536 72.5708 20.3062 72.4216 20.1137C72.2814 19.9092 72.1488 19.6821 72.0236 19.4325C71.9586 19.2919 71.8688 19.0961 71.7542 18.8449C71.6381 18.5832 71.5172 18.2901 71.3914 17.9655C71.2657 17.6409 71.1422 17.2945 71.0207 16.9264C70.8993 16.5583 70.7894 16.1938 70.6908 15.8331C70.5908 15.4618 70.516 15.1137 70.4665 14.7886L70.9273 14.5921C70.6429 15.1593 70.3995 15.7098 70.1972 16.2434C70.0055 16.7755 69.8536 17.3179 69.7414 17.8704C69.6383 18.411 69.5682 18.9895 69.5312 19.6061C69.5081 20.0276 69.4983 20.3936 69.502 20.704C69.5162 21.0128 69.5193 21.2482 69.5113 21.4102C69.4957 21.5948 69.4442 21.7578 69.3567 21.8994C69.2692 22.0409 69.1241 22.1266 68.9215 22.1564Z" fill="#7831B2"/>
<path d="M4.92563 45.8174C4.49903 45.8801 4.0927 45.897 3.70666 45.868C3.32968 45.827 2.99058 45.7482 2.68935 45.6317C2.39879 45.5136 2.1621 45.3555 1.97928 45.1572C1.80713 44.9574 1.71257 44.7301 1.69561 44.4752C1.67915 44.2954 1.71547 44.1399 1.80457 44.0089C1.90274 43.8658 2.02115 43.7841 2.15979 43.7637C2.28778 43.7448 2.40933 43.7913 2.52447 43.903C2.64867 44.0027 2.79819 44.1254 2.97303 44.2712C3.15694 44.405 3.39712 44.5144 3.69356 44.5995C3.9884 44.674 4.38113 44.6752 4.87172 44.6031C5.58629 44.498 6.11107 44.2921 6.44605 43.9855C6.79011 43.6669 6.93741 43.345 6.88795 43.0199C6.87149 42.8401 6.7737 42.699 6.59457 42.5967C6.42452 42.4823 6.17767 42.4007 5.85402 42.3518C5.52877 42.2924 5.10993 42.2629 4.5975 42.2632C4.18425 42.2704 3.91099 42.2302 3.77771 42.1426C3.65351 42.0429 3.59011 41.9129 3.58751 41.7524C3.57264 41.5831 3.66174 41.452 3.85481 41.3593C4.04787 41.2666 4.37799 41.143 4.84516 40.9885C5.45845 40.791 5.93578 40.56 6.27715 40.2953C6.62918 40.0291 6.78819 39.7484 6.75418 39.4532C6.72177 39.1685 6.55575 38.9731 6.25611 38.8671C5.95489 38.7506 5.56964 38.7269 5.10037 38.7959C4.56711 38.8743 4.13488 39.0076 3.80367 39.1957C3.47087 39.3733 3.20819 39.546 3.01562 39.7137C2.83373 39.8798 2.68412 39.9715 2.56681 39.9888C2.44949 40.006 2.35245 39.9774 2.2757 39.9029C2.20961 39.8269 2.17312 39.7304 2.16623 39.6135C2.14818 39.4231 2.20478 39.2218 2.33604 39.0095C2.47796 38.7957 2.6756 38.5897 2.92896 38.3916C3.19299 38.1919 3.51059 38.0219 3.88178 37.8815C4.26203 37.7291 4.68145 37.6192 5.14006 37.5517C6.07859 37.4137 6.79736 37.4795 7.29635 37.7492C7.80601 38.0173 8.09485 38.4465 8.16287 39.0369C8.191 39.3652 8.10635 39.7046 7.90892 40.0553C7.72055 40.3939 7.40849 40.7079 6.97273 40.9971C6.53537 41.2759 5.95887 41.5001 5.24321 41.6697L5.19131 41.4361C5.85255 41.3388 6.40151 41.3278 6.8382 41.4029C7.28395 41.466 7.62355 41.6197 7.85701 41.8642C8.09954 42.0965 8.24045 42.4135 8.27975 42.8152C8.33929 43.2782 8.2218 43.7243 7.92729 44.1536C7.64185 44.5708 7.23326 44.9311 6.70151 45.2345C6.16817 45.5274 5.57621 45.7217 4.92563 45.8174Z" fill="#7831B2"/>
<path d="M12.2083 44.7783C11.7177 44.8504 11.3002 44.7939 10.9558 44.6087C10.6221 44.4219 10.3654 44.1327 10.1859 43.7409C10.017 43.3476 9.94521 42.8757 9.97048 42.3252C9.98989 41.8077 10.0893 41.2785 10.2687 40.7375C10.4571 40.1844 10.709 39.6541 11.0243 39.1467C11.3381 38.6288 11.6979 38.1631 12.1039 37.7496C12.5189 37.324 12.9672 36.9739 13.4488 36.6994C13.9411 36.4233 14.4485 36.2467 14.9711 36.1699C15.2164 36.1338 15.418 36.1685 15.5758 36.2739C15.7336 36.3794 15.8049 36.5619 15.7899 36.8214C15.7877 36.9504 15.7458 37.0691 15.6642 37.1776C15.581 37.2756 15.4503 37.3485 15.2722 37.3961C14.5416 37.6108 13.8882 37.9749 13.3121 38.4885C12.7467 39.0006 12.2962 39.5868 11.9605 40.2473C11.6339 40.8958 11.4508 41.5553 11.411 42.2259C11.3933 42.5394 11.4036 42.822 11.4419 43.0737C11.4786 43.3149 11.5798 43.6217 11.7455 43.994L10.9724 42.998C11.2011 43.211 11.3957 43.3432 11.5561 43.3946C11.7273 43.4445 11.9568 43.4483 12.2448 43.4059C12.9274 43.3055 13.5552 42.7736 14.1283 41.8101C14.7013 40.8466 15.1612 39.4978 15.508 37.7635C15.5523 37.5532 15.6305 37.3863 15.7425 37.2626C15.8636 37.1268 16.0148 37.0456 16.1961 37.0189C16.4414 36.9829 16.644 37.0603 16.8039 37.2512C16.9729 37.43 17.0706 37.6783 17.0972 37.9961C17.155 38.663 17.2247 39.2639 17.306 39.7987C17.3965 40.3215 17.5301 40.8058 17.707 41.2515C17.8945 41.6957 18.1697 42.143 18.5327 42.5935C18.6126 42.689 18.6576 42.8057 18.6677 42.9436C18.6885 43.0799 18.6711 43.2165 18.6156 43.3533C18.5707 43.4885 18.496 43.6067 18.3915 43.7079C18.296 43.797 18.1736 43.8525 18.0243 43.8745C17.8643 43.898 17.7315 43.8854 17.626 43.8366C17.5311 43.7862 17.4429 43.7081 17.3613 43.6021C17.1705 43.3514 16.9933 43.0826 16.8297 42.7958C16.6661 42.5089 16.5175 42.177 16.3838 41.7999C16.2592 41.4109 16.1615 40.9481 16.0908 40.4117C16.0201 39.8753 15.9769 39.233 15.9612 38.4848L16.5347 38.3844C16.3423 39.4848 16.0879 40.4282 15.7714 41.2146C15.4533 41.9904 15.0931 42.6331 14.6908 43.1426C14.2976 43.64 13.8869 44.0221 13.4586 44.2888C13.0303 44.5555 12.6135 44.7187 12.2083 44.7783Z" fill="#7831B2"/>
<path d="M22.767 43.3216C22.2231 43.4016 21.7637 43.3566 21.3889 43.1866C21.0248 43.015 20.7364 42.7679 20.5238 42.4454C20.3203 42.1108 20.1767 41.7406 20.0931 41.3347C20.0187 40.9168 19.9884 40.5031 20.0024 40.0936C20.0314 39.6391 20.0975 39.1415 20.2006 38.601C20.3144 38.0589 20.4527 37.5346 20.6155 37.0282C20.7768 36.5113 20.9508 36.0783 21.1375 35.7292C21.2475 35.52 21.3966 35.3533 21.5849 35.2292C21.7838 35.1034 21.9846 35.0256 22.1872 34.9958C22.3152 34.977 22.4122 35.0056 22.4783 35.0816C22.5428 35.1472 22.5694 35.2505 22.5582 35.3915C22.5501 35.5536 22.4898 35.7661 22.3772 36.0293C22.2752 36.2909 22.1493 36.6096 21.9993 36.9855C21.86 37.3598 21.731 37.8023 21.6124 38.3129C21.4923 38.813 21.4168 39.3924 21.3862 40.0509C21.3497 40.7425 21.447 41.2749 21.6783 41.6483C21.9096 42.0217 22.2972 42.1684 22.8411 42.0884C23.2464 42.0288 23.6357 41.8643 24.0091 41.595C24.3824 41.3256 24.6966 40.9899 24.9517 40.5879C25.2158 40.1737 25.3669 39.7334 25.4049 39.2668L25.6263 39.5397C25.3438 39.4741 25.0118 39.4425 24.6306 39.445C24.2584 39.4354 23.8627 39.4507 23.4436 39.4909C23.0335 39.5191 22.6328 39.5727 22.2414 39.6517C21.8484 39.7202 21.5012 39.8035 21.1999 39.9014L21.2499 38.8326C21.8029 38.7405 22.3159 38.6008 22.789 38.4132C23.2711 38.2137 23.6889 37.986 24.0426 37.7303C24.4069 37.473 24.6949 37.2162 24.9067 36.9599C25.1169 36.6931 25.2228 36.4577 25.2245 36.2537C25.2342 36.1022 25.1793 35.9924 25.0599 35.9241C24.9389 35.8455 24.7611 35.8234 24.5264 35.8579C24.2385 35.9002 23.9409 35.9869 23.6337 36.1179C23.3372 36.2472 23.0225 36.4008 22.6897 36.5784C22.3569 36.756 22.0036 36.942 21.6297 37.1364C21.4761 37.2018 21.3396 37.2005 21.2202 37.1323C21.1114 37.0625 21.0635 36.9623 21.0763 36.8318C21.086 36.6803 21.1666 36.529 21.3181 36.3781C21.4786 36.2151 21.6341 36.0904 21.7845 36.0039C22.384 35.5726 22.9515 35.2533 23.4869 35.0458C24.0315 34.8264 24.5437 34.6813 25.0236 34.6107C25.4076 34.5543 25.731 34.5657 25.9938 34.6449C26.2673 34.7226 26.4726 34.8533 26.6095 35.0368C26.7572 35.2188 26.8235 35.4396 26.8084 35.6991C26.7955 36.0441 26.6842 36.3875 26.4745 36.7292C26.2648 37.071 25.9826 37.402 25.6279 37.7222C25.2822 38.0304 24.8936 38.3073 24.4622 38.5531C24.0307 38.7988 23.5707 39.0005 23.0822 39.1581L23.0712 38.5486C23.5693 38.4539 24.0333 38.3857 24.4631 38.3439C24.9035 38.3005 25.2946 38.2912 25.6364 38.316C25.9782 38.3408 26.2472 38.4245 26.4434 38.5672C26.6486 38.6978 26.7658 38.895 26.7951 39.1588C26.8376 39.5814 26.7521 40.0228 26.5386 40.4831C26.3342 40.9313 26.0335 41.3561 25.6367 41.7576C25.2505 42.1575 24.8067 42.5015 24.3053 42.7897C23.813 43.0658 23.3003 43.2431 22.767 43.3216Z" fill="#7831B2"/>
<path d="M32.0986 41.8524C31.2134 41.9826 30.5015 41.9265 29.9631 41.684C29.423 41.4311 29.0369 41.043 28.8046 40.5196C28.5707 39.9858 28.4704 39.3626 28.5038 38.6501C28.5429 38.119 28.6674 37.5753 28.8771 37.0191C29.096 36.4508 29.3913 35.9196 29.7632 35.4253C30.1457 34.9294 30.5898 34.5156 31.0954 34.1839C31.6101 33.8402 32.1714 33.6236 32.7793 33.5342C33.3446 33.451 33.8221 33.4719 34.2118 33.5969C34.6122 33.7202 34.9081 33.9447 35.0994 34.2704C35.3014 34.5945 35.3889 35.0266 35.362 35.5666C35.3431 36.1591 35.156 36.6852 34.8007 37.1448C34.4438 37.594 33.972 37.969 33.3854 38.2697C32.8094 38.5689 32.1694 38.7702 31.4655 38.8738C30.7403 38.9805 30.2422 38.968 29.9714 38.8363C29.7112 38.703 29.5865 38.5283 29.5973 38.3123C29.5995 38.1833 29.6339 38.0871 29.7006 38.0237C29.7657 37.9498 29.8782 37.9011 30.0382 37.8776C30.1555 37.8603 30.2973 37.8609 30.4637 37.8793C30.6391 37.8857 30.8921 37.8645 31.2228 37.8159C31.756 37.7375 32.2248 37.5934 32.6291 37.3839C33.044 37.1727 33.371 36.9209 33.61 36.6285C33.8474 36.3255 33.9779 36.0007 34.0015 35.6542C34.0176 35.3302 33.939 35.1005 33.7658 34.9651C33.6032 34.8282 33.3139 34.7904 32.898 34.8516C32.4821 34.9127 32.0965 35.066 31.7413 35.3112C31.3951 35.5444 31.0806 35.8426 30.7979 36.2058C30.5258 36.5675 30.3089 36.9693 30.1471 37.4112C29.9854 37.8532 29.8962 38.3059 29.8795 38.7694C29.8622 39.1579 29.9096 39.5047 30.0214 39.8099C30.1317 40.1046 30.3299 40.3328 30.6162 40.4944C30.9116 40.6439 31.3046 40.6826 31.7951 40.6104C32.3497 40.5289 32.814 40.3909 33.1878 40.1965C33.5708 39.9901 33.8865 39.7721 34.1351 39.5425C34.3837 39.313 34.5936 39.1159 34.7648 38.9513C34.936 38.7868 35.0963 38.6935 35.2456 38.6715C35.4269 38.6449 35.5653 38.6942 35.6607 38.8196C35.7652 38.9328 35.812 39.0975 35.8013 39.3135C35.7905 39.5295 35.68 39.7709 35.4698 40.0377C35.2687 40.2925 34.9913 40.5477 34.6377 40.8034C34.2947 41.0576 33.9035 41.2813 33.4641 41.4746C33.0337 41.6559 32.5785 41.7818 32.0986 41.8524Z" fill="#7831B2"/>
<path d="M41.3566 40.4101C40.8446 40.4854 40.3863 40.4831 39.9817 40.4033C39.577 40.3234 39.2565 40.1883 39.0204 39.9979C38.7843 39.8075 38.6692 39.5885 38.6751 39.3411C38.688 39.2105 38.7299 39.0918 38.8008 38.9848C38.8718 38.8779 38.9766 38.8142 39.1153 38.7938C39.2219 38.7782 39.3219 38.7903 39.4152 38.8301C39.5085 38.87 39.6194 38.918 39.7479 38.9742C39.8763 39.0303 40.0574 39.0734 40.2909 39.1034C40.5228 39.1229 40.8308 39.1044 41.2147 39.0479C41.812 38.96 42.3077 38.7424 42.7019 38.3949C43.1052 38.0354 43.3173 37.4949 43.3384 36.7735C43.3701 36.2649 43.3076 35.8184 43.151 35.434C43.0034 35.0376 42.7847 34.7106 42.4947 34.4531C42.2031 34.185 41.8534 34.0006 41.4455 33.8998C41.0377 33.7989 40.5884 33.7846 40.0978 33.8568C39.8525 33.8929 39.6059 33.956 39.3579 34.046C39.1099 34.1361 38.8899 34.1953 38.6979 34.2235C38.5806 34.2408 38.47 34.2303 38.366 34.1919C38.2605 34.1431 38.1837 34.0687 38.1358 33.9685C38.0878 33.8683 38.0665 33.7643 38.0719 33.6562C38.0928 33.3637 38.2521 33.1205 38.5497 32.9266C38.8564 32.7207 39.3457 32.5683 40.0176 32.4694C40.7321 32.3643 41.3851 32.3916 41.9764 32.5512C42.5783 32.7092 43.0941 32.9818 43.5237 33.3689C43.9518 33.7455 44.276 34.2285 44.4966 34.818C44.7261 35.3953 44.8221 36.062 44.7845 36.8181C44.7619 37.3146 44.6567 37.7696 44.4688 38.1832C44.2916 38.5953 44.0523 38.9575 43.7509 39.2699C43.448 39.5717 43.0935 39.8222 42.6877 40.0213C42.2802 40.2099 41.8365 40.3395 41.3566 40.4101ZM38.2098 44.9901C38.0818 45.0089 37.965 44.9939 37.8595 44.9451C37.7662 44.9052 37.6948 44.83 37.6452 44.7193C37.5957 44.6087 37.5749 44.4723 37.583 44.3103C37.591 44.1483 37.6274 43.9929 37.6919 43.844C37.7475 43.7072 37.8088 43.5373 37.8761 43.3344C37.945 43.142 38.0112 42.8964 38.0748 42.5976C38.1383 42.2988 38.183 41.9116 38.2088 41.436C38.2384 40.842 38.2207 40.2603 38.1559 39.6908C38.1001 39.1094 38.0284 38.5302 37.9406 37.9535C37.8619 37.3646 37.7886 36.775 37.7206 36.1846C37.651 35.5837 37.6285 34.9705 37.6533 34.345C37.6688 34.1605 37.6998 34.0058 37.7463 33.8811C37.7927 33.7563 37.8599 33.6606 37.9479 33.5941C38.045 33.5155 38.1629 33.466 38.3015 33.4456C38.4722 33.4205 38.6196 33.4577 38.7438 33.5574C38.8771 33.645 38.9794 33.7801 39.0508 33.9626C39.1206 34.1346 39.1455 34.3346 39.1257 34.5627C39.0935 35.2107 39.1044 35.8202 39.1586 36.3912C39.2218 36.9501 39.2941 37.497 39.3755 38.0319C39.4675 38.5651 39.5436 39.1007 39.6036 39.6387C39.6637 40.1767 39.6781 40.7374 39.647 41.321C39.6291 41.8489 39.5828 42.3329 39.508 42.7727C39.4332 43.2126 39.3328 43.5919 39.2068 43.9106C39.0915 44.2278 38.9498 44.4792 38.7818 44.6647C38.6244 44.8487 38.4338 44.9571 38.2098 44.9901Z" fill="#7831B2"/>
<path d="M49.9009 39.2175C49.197 39.3211 48.6289 39.3135 48.1965 39.1949C47.7641 39.0762 47.4325 38.8677 47.2017 38.5693C46.9816 38.2693 46.8335 37.9051 46.7575 37.4767C46.6904 37.0362 46.672 36.5565 46.702 36.0374C46.7289 35.4974 46.7907 34.9361 46.8875 34.3537C46.9933 33.7591 47.1287 33.1442 47.2937 32.5088C47.3994 32.1287 47.5019 31.8349 47.6012 31.6273C47.7005 31.4197 47.8301 31.3041 47.9901 31.2806C48.214 31.2476 48.4073 31.2996 48.5699 31.4365C48.7309 31.5629 48.7993 31.7619 48.7752 32.0335C48.7671 32.1955 48.7148 32.4606 48.6181 32.8286C48.5321 33.195 48.4384 33.6538 48.3368 34.2048C48.2353 34.7558 48.1641 35.3989 48.1233 36.1339C48.09 36.8465 48.2092 37.3435 48.4811 37.6252C48.7636 37.9053 49.2674 37.992 49.9927 37.8853C50.2913 37.8414 50.6851 37.7781 51.1741 37.6954C51.6615 37.6023 52.1862 37.5037 52.7483 37.3995C53.3104 37.2954 53.8618 37.1929 54.4025 37.0919C54.9523 36.9788 55.4328 36.876 55.8439 36.7833C56.2641 36.6786 56.5679 36.5964 56.755 36.5367C56.8905 36.4954 57.0068 36.4354 57.1038 36.3568C57.1993 36.2677 57.2556 36.1361 57.2728 35.962C57.3173 35.3229 57.3071 34.7186 57.2423 34.1492C57.1865 33.5677 57.1006 33.0389 56.9846 32.5628C56.8792 32.0851 56.7751 31.6877 56.6723 31.3704C56.5786 31.0411 56.5267 30.8075 56.5166 30.6696C56.5017 30.5003 56.5557 30.3529 56.6783 30.2277C56.7994 30.0919 56.9347 30.0131 57.084 29.9911C57.3293 29.955 57.5249 30.0227 57.671 30.1942C57.8261 30.3537 57.9617 30.5643 58.0778 30.8259C58.1615 31.0173 58.2435 31.3055 58.3238 31.6903C58.4133 32.0632 58.4939 32.4855 58.5657 32.9574C58.6482 33.4278 58.704 33.902 58.7331 34.3802C58.7713 34.8463 58.7818 35.2737 58.7646 35.6622C58.7291 36.2892 58.5844 36.7715 58.3305 37.1091C58.0856 37.4346 57.6717 37.6885 57.0888 37.8707C56.8803 37.9336 56.5545 38.0136 56.1113 38.111C55.6666 38.1979 55.1579 38.2942 54.5851 38.3998C54.014 38.516 53.4306 38.6233 52.835 38.7216C52.2409 38.8305 51.6834 38.9285 51.1624 39.0159C50.652 39.1017 50.2316 39.1689 49.9009 39.2175ZM52.6223 38.3991C52.505 38.4163 52.3813 38.3917 52.2512 38.325C52.1196 38.2479 52.0311 38.1323 51.9858 37.9781C51.9139 37.7206 51.8637 37.3903 51.835 36.9871C51.8155 36.5718 51.805 36.1445 51.8036 35.7051C51.8112 35.2537 51.8252 34.8442 51.8456 34.4767C51.8779 33.8286 51.9373 33.2517 52.0239 32.7457C52.1105 32.2398 52.1874 31.8854 52.2547 31.6825C52.2963 31.5263 52.3587 31.3992 52.442 31.3012C52.5236 31.1927 52.6444 31.1266 52.8044 31.1031C52.943 31.0827 53.0667 31.1074 53.1755 31.1772C53.2842 31.247 53.3703 31.3469 53.4337 31.4769C53.4971 31.607 53.5264 31.7635 53.5215 31.9465C53.5193 32.0755 53.4931 32.2616 53.4429 32.5048C53.4017 32.736 53.3563 33.0108 53.3066 33.329C53.2675 33.6457 53.2386 33.993 53.2198 34.371C53.2005 34.6741 53.1929 35.0183 53.197 35.4037C53.2118 35.7875 53.2327 36.1757 53.2597 36.5684C53.2852 36.9507 53.3165 37.2999 53.3537 37.6161C53.367 37.7749 53.2834 37.9427 53.1031 38.1193C52.9212 38.2854 52.761 38.3787 52.6223 38.3991Z" fill="#7831B2"/>
<path d="M64.2659 37.1205C63.3807 37.2507 62.6689 37.1946 62.1304 36.9522C61.5904 36.6993 61.2042 36.3111 60.9719 35.7878C60.738 35.2539 60.6378 34.6308 60.6711 33.9182C60.7103 33.3871 60.8347 32.8435 61.0445 32.2872C61.2633 31.719 61.5587 31.1877 61.9305 30.6934C62.3131 30.1976 62.7571 29.7838 63.2628 29.4521C63.7775 29.1083 64.3388 28.8917 64.9467 28.8023C65.7892 28.6784 66.4381 28.7866 66.8934 29.1271C67.3593 29.466 67.5713 30.0352 67.5294 30.8348C67.5105 31.4272 67.3234 31.9533 66.9681 32.413C66.6112 32.8622 66.1394 33.2371 65.5527 33.5379C64.9767 33.837 64.3367 34.0384 63.6328 34.1419C62.9076 34.2486 62.4096 34.2361 62.1388 34.1044C61.8786 33.9711 61.7539 33.7965 61.7646 33.5805C61.7668 33.4515 61.8013 33.3553 61.8679 33.2919C61.933 33.218 62.0455 33.1693 62.2055 33.1457C62.3228 33.1285 62.4647 33.129 62.631 33.1475C62.8065 33.1538 63.0595 33.1327 63.3901 33.084C63.9234 33.0056 64.3921 32.8616 64.7964 32.652C65.2113 32.4409 65.5383 32.1891 65.7773 31.8966C66.0147 31.5936 66.1452 31.2689 66.1688 30.9223C66.1849 30.5983 66.1064 30.3686 65.9331 30.2333C65.7705 30.0964 65.4813 30.0585 65.0654 30.1197C64.6494 30.1809 64.2638 30.3341 63.9086 30.5793C63.5624 30.8125 63.248 31.1107 62.9652 31.474C62.6931 31.8356 62.4762 32.2374 62.3145 32.6794C62.1527 33.1213 62.0635 33.574 62.0468 34.0375C62.0296 34.426 62.0769 34.7729 62.1888 35.0781C62.299 35.3728 62.4973 35.6009 62.7836 35.7625C63.0789 35.9121 63.4719 35.9507 63.9625 35.8786C64.5171 35.797 64.9813 35.659 65.3552 35.4646C65.7381 35.2582 66.0539 35.0402 66.3025 34.8107C66.551 34.5811 66.7609 34.384 66.9322 34.2195C67.1034 34.0549 67.2637 33.9616 67.413 33.9397C67.5943 33.913 67.7326 33.9623 67.828 34.0877C67.9325 34.201 67.9794 34.3656 67.9686 34.5816C67.9579 34.7977 67.8474 35.0391 67.6372 35.3059C67.4361 35.5606 67.1587 35.8158 66.805 36.0716C66.4621 36.3257 66.0709 36.5494 65.6314 36.7428C65.201 36.924 64.7459 37.0499 64.2659 37.1205Z" fill="#7831B2"/>
<path d="M70.9146 36.1586C70.6587 36.1962 70.4446 36.1151 70.2725 35.9153C70.1003 35.7155 69.9687 35.4239 69.8777 35.0406C69.7957 34.6452 69.7674 34.1723 69.7927 33.6218C69.8361 33.0472 69.9162 32.6065 70.0331 32.2998C70.1591 31.9811 70.3208 31.7536 70.5181 31.6174C70.6259 31.5372 70.7856 31.4762 70.9973 31.4343C71.2074 31.3819 71.4298 31.3385 71.6644 31.304C72.443 31.1895 73.2053 31.0398 73.9513 30.855C74.7065 30.6582 75.4344 30.3903 76.1352 30.0513L76.5883 31.0943C76.0656 31.3856 75.4923 31.6308 74.8684 31.8298C74.2444 32.0288 73.605 32.1979 72.9502 32.3371C72.3044 32.4643 71.6722 32.5734 71.0536 32.6643L70.1042 32.6593C70.1487 32.0202 70.1938 31.3488 70.2394 30.6452C70.285 29.9416 70.3204 29.3145 70.3457 28.764C70.3501 28.506 70.4043 28.289 70.5083 28.1129C70.6124 27.9367 70.7444 27.8369 70.9044 27.8134C71.171 27.7741 71.3842 27.85 71.5441 28.0409C71.7024 28.2213 71.7671 28.5388 71.7381 28.9934C71.7306 29.2304 71.7088 29.5177 71.673 29.8553C71.6371 30.193 71.5983 30.5471 71.5566 30.9178C71.5255 31.2869 71.4921 31.6403 71.4562 31.9779C71.4294 32.3035 71.4106 32.5743 71.3999 32.7903C71.3644 33.4174 71.3514 33.9768 71.3608 34.4686C71.3793 34.9484 71.3856 35.312 71.3796 35.5595C71.3699 35.711 71.319 35.8418 71.2267 35.9519C71.1466 36.0708 71.0426 36.1397 70.9146 36.1586ZM76.4339 35.3467C76.1672 35.3859 75.9521 35.2621 75.7885 34.9752C75.6356 34.6868 75.5246 34.2796 75.4555 33.7537C75.3954 33.2157 75.3808 32.6175 75.4114 31.959C75.4715 30.9209 75.5369 30.0964 75.6076 29.4856C75.6873 28.8628 75.7701 28.3681 75.8561 28.0016C75.9063 27.7584 75.9818 27.5382 76.0827 27.3411C76.1836 27.144 76.3247 27.0321 76.506 27.0054C76.7406 26.9709 76.9226 27.0567 77.0521 27.2628C77.1907 27.4569 77.2511 27.7107 77.2334 28.0242C77.2162 28.4127 77.1611 28.839 77.0681 29.3029C76.9858 29.7653 76.9358 30.2605 76.918 30.7885C76.8857 31.4365 76.882 32.0214 76.9069 32.5431C76.9408 33.0528 76.9788 33.4814 77.0208 33.829C77.0627 34.1767 77.0752 34.4375 77.058 34.6116C77.0548 34.805 76.9926 34.9697 76.8715 35.1054C76.7504 35.2412 76.6045 35.3216 76.4339 35.3467Z" fill="#7831B2"/>
<path d="M81.1195 34.6574C80.7568 34.7108 80.4561 34.6692 80.2173 34.5328C79.9891 34.3948 79.8063 34.1966 79.6688 33.938C79.5298 33.669 79.4355 33.372 79.386 33.0469C79.3456 32.7097 79.3335 32.3791 79.3496 32.0551C79.3722 31.773 79.408 31.4354 79.4572 31.0422C79.5171 30.6474 79.5852 30.2353 79.6617 29.8059C79.7381 29.3766 79.8132 28.9742 79.8869 28.5988C79.9713 28.2219 80.041 27.9275 80.096 27.7157C80.1788 27.3282 80.2584 27.0271 80.3347 26.8121C80.4217 26.5956 80.5452 26.4756 80.7052 26.4521C80.8438 26.4317 80.979 26.46 81.1107 26.5372C81.2423 26.6143 81.346 26.7223 81.4217 26.8613C81.508 26.9987 81.5487 27.1589 81.5439 27.3419C81.5374 27.5144 81.4995 27.7666 81.43 28.0984C81.3605 28.4303 81.2807 28.8012 81.1904 29.2112C81.1001 29.6212 81.016 30.0356 80.938 30.4545C80.8583 30.8629 80.8105 31.2291 80.7943 31.5531C80.7734 31.8457 80.7723 32.1246 80.7908 32.3899C80.8078 32.6447 80.8504 32.8529 80.9185 33.0144C80.9851 33.1655 81.0878 33.2308 81.2264 33.2104C81.5677 33.1602 81.9542 32.7978 82.3858 32.1231C82.8281 31.4469 83.2948 30.5367 83.7858 29.3923C84.0142 28.8869 84.2101 28.4185 84.3735 27.9871C84.5368 27.5556 84.6814 27.1805 84.8074 26.8618C84.9318 26.5326 85.0612 26.2723 85.1956 26.081C85.3301 25.8897 85.4773 25.7822 85.6373 25.7587C85.8826 25.7226 86.0729 25.7911 86.2083 25.9642C86.3527 26.1252 86.4427 26.3586 86.4784 26.6643C86.5198 26.9369 86.5602 27.2741 86.5995 27.6757C86.6495 28.0758 86.7011 28.4863 86.7542 28.9074C86.8058 29.3179 86.864 29.7007 86.9289 30.0557C87.0535 30.6592 87.1879 31.1487 87.3323 31.5242C87.4857 31.8876 87.6173 32.1791 87.727 32.3989C87.8368 32.6186 87.8975 32.8026 87.9092 32.951C87.9161 33.068 87.8955 33.1836 87.8475 33.2978C87.7978 33.4016 87.7298 33.4921 87.6434 33.5691C87.557 33.6461 87.4551 33.6933 87.3378 33.7105C87.0925 33.7466 86.8731 33.6663 86.6796 33.4696C86.4968 33.2714 86.3324 32.9793 86.1865 32.5933C86.0405 32.2074 85.9002 31.7509 85.7655 31.2239C85.6867 30.8495 85.604 30.4489 85.5172 30.0221C85.4411 29.5937 85.3757 29.1637 85.321 28.7322C85.2769 28.2991 85.2376 27.8975 85.2031 27.5273L85.6909 27.6164C85.5996 27.8764 85.5001 28.1537 85.3923 28.4483C85.2951 28.7414 85.1715 29.0758 85.0215 29.4517C84.8806 29.8155 84.7013 30.2493 84.4835 30.7531C84.2071 31.3727 83.8946 31.9709 83.5462 32.5475C83.1962 33.1136 82.8166 33.5929 82.4075 33.9855C82.0074 34.366 81.5781 34.59 81.1195 34.6574Z" fill="#7831B2"/>
<path d="M92.8713 32.9126C91.9861 33.0429 91.2742 32.9867 90.7358 32.7443C90.1957 32.4914 89.8095 32.1032 89.5773 31.5799C89.3434 31.0461 89.2431 30.4229 89.2765 29.7103C89.3156 29.1792 89.4401 28.6356 89.6498 28.0794C89.8687 27.5111 90.164 26.9798 90.5359 26.4855C90.9184 25.9897 91.3625 25.5759 91.8681 25.2442C92.3828 24.9004 92.9441 24.6839 93.552 24.5944C94.3946 24.4705 95.0435 24.5788 95.4987 24.9192C95.9646 25.2581 96.1766 25.8273 96.1347 26.6269C96.1158 27.2193 95.9287 27.7454 95.5734 28.2051C95.2165 28.6543 94.7447 29.0293 94.1581 29.33C93.582 29.6291 92.9421 29.8305 92.2382 29.934C91.513 30.0407 91.0149 30.0282 90.7441 29.8965C90.4839 29.7632 90.3592 29.5886 90.37 29.3726C90.3722 29.2436 90.4066 29.1474 90.4733 29.084C90.5384 29.0101 90.6509 28.9614 90.8109 28.9378C90.9282 28.9206 91.07 28.9212 91.2364 28.9396C91.4118 28.9459 91.6648 28.9248 91.9955 28.8762C92.5287 28.7977 92.9975 28.6537 93.4017 28.4441C93.8167 28.233 94.1437 27.9812 94.3827 27.6887C94.6201 27.3858 94.7506 27.061 94.7742 26.7144C94.7903 26.3904 94.7117 26.1607 94.5385 26.0254C94.3759 25.8885 94.0866 25.8506 93.6707 25.9118C93.1268 25.9918 92.6334 26.2252 92.1907 26.612C91.748 26.9988 91.3844 27.4757 91.1 28.0429C90.8262 28.6086 90.6769 29.2041 90.6522 29.8296C90.6349 30.2181 90.6823 30.565 90.7941 30.8702C90.9044 31.1649 91.1026 31.393 91.3889 31.5546C91.6843 31.7042 92.0772 31.7429 92.5678 31.6707C93.1224 31.5891 93.5867 31.4511 93.9605 31.2568C94.3435 31.0503 94.6592 30.8323 94.9078 30.6028C95.1564 30.3732 95.3663 30.1762 95.5375 30.0116C95.7087 29.847 95.869 29.7538 96.0183 29.7318C96.1996 29.7051 96.338 29.7545 96.4334 29.8798C96.5378 29.9931 96.5847 30.1578 96.574 30.3738C96.5632 30.5898 96.4527 30.8312 96.2425 31.098C96.0414 31.3527 95.764 31.6079 95.4104 31.8637C95.0674 32.1178 94.6762 32.3416 94.2368 32.5349C93.8064 32.7161 93.3512 32.842 92.8713 32.9126Z" fill="#7831B2"/>
<path d="M8.21443 59.6933C7.33989 59.822 6.59127 59.7391 5.96857 59.4447C5.35655 59.1488 4.89522 58.6967 4.58459 58.0883C4.28302 57.468 4.14921 56.7318 4.18314 55.8798C4.2111 55.2753 4.33556 54.7316 4.55651 54.2488C4.78652 53.7539 5.05971 53.3278 5.37605 52.9703C5.70306 52.6113 6.04204 52.3309 6.39298 52.1292C6.74233 51.917 7.05032 51.7912 7.31695 51.752C7.43426 51.7348 7.53264 51.7364 7.61209 51.7569C7.70219 51.7758 7.77416 51.8188 7.82799 51.8859C7.89089 51.941 7.92045 52.0278 7.91667 52.1463C7.89526 52.3639 7.83945 52.5704 7.74926 52.766C7.65747 52.951 7.46197 53.1352 7.16276 53.3186C6.80594 53.5534 6.51096 53.8005 6.27784 54.0599C6.05379 54.3073 5.88331 54.5843 5.76641 54.891C5.64792 55.1872 5.5862 55.534 5.58124 55.9314C5.53984 56.806 5.74486 57.4727 6.19633 57.9317C6.64619 58.3801 7.25507 58.5479 8.02296 58.4349C8.76953 58.3251 9.38021 57.9672 9.85502 57.3613C10.3389 56.7433 10.5992 55.9813 10.6358 55.0753C10.6836 54.2427 10.5345 53.6214 10.1886 53.2112C9.8411 52.7906 9.3474 52.6274 8.70749 52.7215C8.37687 52.7701 8.10381 52.8746 7.88832 53.035C7.6835 53.1938 7.46373 53.3976 7.22901 53.6466C7.06098 53.8321 6.92787 53.9965 6.8297 54.1396C6.73153 54.2827 6.64004 54.398 6.55522 54.4855C6.47947 54.561 6.37227 54.6089 6.23362 54.6293C6.08431 54.6513 5.95982 54.6213 5.86013 54.5395C5.76952 54.4456 5.72879 54.2854 5.73795 54.0589C5.74391 53.8114 5.82907 53.547 5.99341 53.2655C6.16842 52.9824 6.38928 52.714 6.656 52.4604C6.93178 52.1947 7.23607 51.973 7.56888 51.7954C7.90009 51.6073 8.23633 51.4881 8.57762 51.4379C9.34551 51.325 9.99655 51.4115 10.5307 51.6974C11.0633 51.9729 11.462 52.4074 11.7268 53.001C11.99 53.5842 12.0969 54.2868 12.0475 55.1089C12.0178 55.9174 11.8352 56.6519 11.4995 57.3124C11.1623 57.9624 10.7091 58.4954 10.14 58.9115C9.5815 59.326 8.93966 59.5866 8.21443 59.6933Z" fill="#7831B2"/>
<path d="M17.6266 58.2927C17.0613 58.3759 16.567 58.3521 16.1437 58.2214C15.7188 58.0802 15.3627 57.8538 15.0754 57.5422C14.7865 57.2202 14.5574 56.825 14.388 56.3568C14.2186 55.8885 14.106 55.3636 14.0503 54.7821C13.9929 54.1902 13.9796 53.5649 14.0102 52.9064C14.0388 52.1624 14.1425 51.4824 14.3214 50.8664C14.4987 50.2399 14.7199 49.6874 14.9851 49.2088C15.2594 48.7181 15.5616 48.3038 15.8918 47.9657C16.222 47.6277 16.5634 47.363 16.9159 47.1718C17.229 47.0078 17.5514 46.8692 17.8831 46.7561C18.2132 46.6325 18.5343 46.521 18.8462 46.4215C19.1582 46.322 19.4435 46.2264 19.7022 46.1347C20.1571 45.9713 20.5411 45.8076 20.8541 45.6436C21.1672 45.4796 21.4091 45.3851 21.5797 45.36C21.7077 45.3412 21.8298 45.3554 21.946 45.4026C22.0729 45.4482 22.1718 45.5248 22.2427 45.6323C22.312 45.7294 22.3418 45.8537 22.3321 46.0052C22.3272 46.1882 22.2384 46.3567 22.0656 46.5108C21.8911 46.6544 21.6655 46.784 21.3887 46.8998C20.8368 47.1418 20.3256 47.3296 19.8552 47.4631C19.3939 47.5846 18.97 47.7006 18.5833 47.811C18.1951 47.911 17.8263 48.0671 17.477 48.2794C17.1351 48.469 16.8153 48.768 16.5176 49.1763C16.229 49.5726 15.9859 50.0533 15.7884 50.6184C15.5999 51.1715 15.4912 51.7826 15.4621 52.4516C15.4089 53.6066 15.4464 54.5339 15.5746 55.2334C15.7119 55.9208 15.9493 56.4059 16.2867 56.6886C16.6348 56.9697 17.0754 57.0711 17.6087 56.9927C17.9713 56.9393 18.3257 56.7961 18.6719 56.5629C19.0164 56.3192 19.3255 56.0218 19.5992 55.6706C19.8836 55.3178 20.1106 54.9467 20.2803 54.5572C20.4591 54.1557 20.5542 53.7771 20.5655 53.4217C20.5934 53.0316 20.5394 52.7125 20.4035 52.4645C20.2767 52.2044 20.075 52.025 19.7983 51.9263C19.52 51.8171 19.1675 51.7939 18.7409 51.8567C18.1757 51.9398 17.565 52.1905 16.909 52.6086C16.2636 53.0252 15.6376 53.6051 15.0311 54.3484L14.4282 53.8259C14.7745 53.1638 15.1963 52.6033 15.6934 52.1442C16.189 51.6746 16.7218 51.3067 17.2919 51.0406C17.8604 50.764 18.4113 50.5864 18.9446 50.508C19.5952 50.4123 20.1574 50.4529 20.6314 50.6297C21.1038 50.7961 21.4641 51.0862 21.7125 51.5C21.9608 51.9138 22.0597 52.4567 22.0094 53.1289C21.975 53.6914 21.8377 54.2584 21.5976 54.8298C21.3665 55.3892 21.0543 55.9176 20.6611 56.415C20.2663 56.9019 19.8116 57.3173 19.2969 57.661C18.7806 57.9943 18.2238 58.2049 17.6266 58.2927Z" fill="#7831B2"/>
<path d="M27.1543 60.9117C26.5037 61.0074 25.9449 61.0253 25.4778 60.9654C25.0123 60.9159 24.6623 60.8012 24.4277 60.6213C24.1932 60.4414 24.0842 60.2269 24.1009 59.9778C24.1197 59.5998 24.321 59.3826 24.705 59.3261C24.833 59.3073 24.9543 59.3162 25.0689 59.353C25.1835 59.3897 25.315 59.4293 25.4632 59.4719C25.613 59.5249 25.8145 59.5596 26.0678 59.5759C26.3318 59.5907 26.6717 59.5675 27.0876 59.5063C27.5996 59.431 28.0094 59.2581 28.3172 58.9877C28.625 58.7173 28.8499 58.3679 28.9919 57.9396C29.1446 57.5097 29.2343 57.0248 29.2612 56.4847C29.2789 56.1712 29.2761 55.8661 29.2528 55.5693C29.2401 55.271 29.2242 54.9516 29.2052 54.6114C29.1861 54.2711 29.1697 53.8768 29.156 53.4285C29.1408 52.9697 29.1455 52.4276 29.1703 51.8021L29.7356 52.1853C29.5044 52.9591 29.2533 53.6018 28.9822 54.1134C28.7095 54.6146 28.4324 55.0145 28.1507 55.3133C27.8674 55.6015 27.589 55.814 27.3154 55.9508C27.0509 56.0755 26.8066 56.1543 26.5827 56.1872C25.6548 56.3237 24.9521 56.0411 24.4746 55.3394C23.9955 54.6272 23.799 53.407 23.885 51.6789C23.9167 50.9559 23.9748 50.406 24.0592 50.029C24.1543 49.6505 24.2722 49.3865 24.413 49.2372C24.5539 49.0878 24.7096 49.0006 24.8802 48.9755C25.1362 48.9378 25.3151 49.0026 25.4169 49.1699C25.5186 49.3372 25.5406 49.661 25.4829 50.1412C25.4127 50.827 25.3736 51.4653 25.3653 52.0562C25.3555 52.6366 25.3886 53.141 25.4647 53.5694C25.5408 53.9978 25.6612 54.3232 25.8259 54.5456C25.9889 54.7575 26.2145 54.8422 26.5024 54.7999C26.9504 54.734 27.3533 54.4442 27.7113 53.9305C28.0677 53.4063 28.3735 52.7288 28.6287 51.8978C28.893 51.0548 29.1056 50.123 29.2665 49.1022C29.3178 48.7944 29.3843 48.5863 29.4659 48.4778C29.546 48.3588 29.6873 48.2844 29.8899 48.2546C30.0392 48.2326 30.1797 48.2602 30.3114 48.3373C30.4538 48.4129 30.5539 48.5697 30.612 48.8078C30.6791 49.0338 30.6789 49.3554 30.6116 49.7728C30.533 50.3311 30.4829 50.8263 30.4614 51.2583C30.4506 51.6888 30.4587 52.1004 30.4857 52.4931C30.5112 52.8753 30.5436 53.2673 30.5829 53.6689C30.6312 54.0585 30.6647 54.4932 30.6831 54.9729C30.7 55.4422 30.6961 55.9896 30.6713 56.615C30.6229 57.5871 30.4368 58.3704 30.1129 58.9648C29.8012 59.5682 29.3902 60.02 28.8798 60.3202C28.3694 60.6204 27.7942 60.8176 27.1543 60.9117Z" fill="#7831B2"/>
<path d="M34.6906 53.1933C34.2853 53.2529 33.9358 53.2132 33.642 53.0742C33.3483 52.9351 33.1135 52.7177 32.9376 52.4219C32.7724 52.1246 32.671 51.7803 32.6333 51.3892C32.5833 50.9891 32.5859 50.5759 32.641 50.1497C32.6961 49.7234 32.7879 49.324 32.9166 48.9512C33.0559 48.5769 33.2208 48.2632 33.4113 48.01C33.6017 47.7568 33.8089 47.6138 34.0329 47.5808C34.1396 47.5652 34.2334 47.5728 34.3144 47.6038C34.4061 47.6332 34.4797 47.6867 34.5351 47.7643C34.589 47.8314 34.6193 47.9234 34.6262 48.0404C34.6299 48.1363 34.5989 48.291 34.5332 48.5043C34.4766 48.7057 34.4043 48.9468 34.3162 49.2278C34.2265 49.4983 34.156 49.7874 34.1047 50.0952C34.0518 50.3925 34.0423 50.6887 34.0764 50.9839C34.1051 51.1727 34.1458 51.3329 34.1985 51.4645C34.2497 51.5856 34.3227 51.6714 34.4176 51.7217C34.5232 51.7705 34.6506 51.784 34.7999 51.762C35.1412 51.7118 35.4804 51.5761 35.8175 51.355C36.1545 51.1339 36.4661 50.8522 36.752 50.5099C37.0486 50.1661 37.3039 49.8015 37.5179 49.4162C37.7303 49.0204 37.884 48.6333 37.9791 48.2548L38.3535 49.8562C38.06 50.4354 37.7212 50.9677 37.3371 51.4531C36.9637 51.9369 36.5492 52.3302 36.0937 52.6331C35.6489 52.9344 35.1812 53.1211 34.6906 53.1933ZM38.4882 55.2561C38.2536 55.2906 38.0747 55.2258 37.9516 55.0616C37.8269 54.887 37.7232 54.6717 37.6407 54.4158C37.589 54.2197 37.5454 53.9688 37.5098 53.6631C37.4833 53.3454 37.4695 53.0043 37.4686 52.6399C37.4677 52.2755 37.4798 51.9253 37.505 51.5892C37.5217 51.3402 37.5495 51.0573 37.5886 50.7407C37.626 50.4135 37.6688 50.0856 37.7169 49.7568C37.765 49.4281 37.8163 49.1203 37.8708 48.8336C37.9238 48.5363 37.9641 48.2999 37.9919 48.1242C38.0475 47.773 38.1249 47.4935 38.2242 47.2859C38.3341 47.0768 38.4851 46.9581 38.677 46.9298C38.8583 46.9032 39.0297 46.9905 39.1912 47.1919C39.3527 47.3933 39.4217 47.6673 39.3981 48.0139C39.3905 48.2509 39.3477 48.5788 39.2697 48.9977C39.1901 49.4061 39.1129 49.8302 39.038 50.2701C38.9723 50.6979 38.9305 51.0686 38.9128 51.3821C38.8812 51.8907 38.8719 52.3316 38.8851 52.705C38.8983 53.0783 38.9264 53.4065 38.9695 53.6896C38.9908 53.9009 39.0171 54.074 39.0485 54.2087C39.0799 54.3435 39.0929 54.4649 39.0875 54.5729C39.0779 54.7244 39.0232 54.8665 38.9234 54.9991C38.8359 55.1406 38.6908 55.2263 38.4882 55.2561Z" fill="#7831B2"/>
<path d="M44.8495 54.2721C44.1882 54.3694 43.6201 54.3618 43.145 54.2494C42.679 54.125 42.304 53.9175 42.0199 53.6269C41.7342 53.3258 41.5259 52.9598 41.3949 52.5288C41.2745 52.0961 41.2278 51.6098 41.2547 51.0698C41.2938 50.5387 41.4183 49.995 41.628 49.4388C41.8469 48.8705 42.1422 48.3393 42.5141 47.845C42.8966 47.3491 43.3407 46.9354 43.8463 46.6037C44.361 46.2599 44.9223 46.0433 45.5302 45.9539C46.0955 45.8707 46.573 45.8916 46.9627 46.0166C47.3631 46.1399 47.659 46.3645 47.8503 46.6901C48.0522 47.0142 48.1398 47.4463 48.1129 47.9863C48.093 48.4288 47.9753 48.8375 47.7597 49.2123C47.5532 49.575 47.2702 49.9008 46.9107 50.1896C46.5602 50.4663 46.1546 50.7028 45.6939 50.8993C45.2421 51.0836 44.7496 51.2151 44.2164 51.2935C43.4912 51.4002 42.9931 51.3877 42.7223 51.256C42.4621 51.1227 42.3374 50.9481 42.3482 50.732C42.3504 50.6031 42.3848 50.5069 42.4515 50.4434C42.5166 50.3695 42.6291 50.3208 42.7891 50.2973C42.9064 50.28 43.0482 50.2806 43.2146 50.299C43.39 50.3054 43.643 50.2843 43.9737 50.2356C44.5069 50.1572 44.9757 50.0132 45.3799 49.8036C45.7949 49.5925 46.1218 49.3407 46.3608 49.0482C46.5983 48.7452 46.7288 48.4205 46.7524 48.0739C46.7685 47.7499 46.6899 47.5202 46.5167 47.3849C46.3541 47.2479 46.0648 47.2101 45.6489 47.2713C45.2329 47.3325 44.8474 47.4857 44.4921 47.7309C44.146 47.9641 43.8315 48.2623 43.5488 48.6256C43.2767 48.9872 43.0598 49.389 42.898 49.831C42.7363 50.2729 42.6471 50.7256 42.6303 51.1891C42.6131 51.5776 42.6604 51.9244 42.7723 52.2296C42.8826 52.5243 43.0808 52.7525 43.3671 52.9141C43.6625 53.0636 44.0554 53.1023 44.546 53.0302C45.1006 52.9486 45.5648 52.8106 45.9387 52.6162C46.3217 52.4098 46.6374 52.1918 46.886 51.9622C47.1346 51.7327 47.3445 51.5356 47.5157 51.3711C47.6869 51.2065 47.8472 51.1132 47.9965 51.0913C48.1778 51.0646 48.3162 51.1139 48.4116 51.2393C48.516 51.3526 48.5629 51.5172 48.5522 51.7332C48.5414 51.9492 48.4309 52.1906 48.2207 52.4574C48.0196 52.7122 47.7422 52.9674 47.3886 53.2231C47.0456 53.4773 46.6544 53.701 46.215 53.8943C45.7846 54.0756 45.3294 54.2015 44.8495 54.2721Z" fill="#7831B2"/>
<path d="M51.4982 53.3102C51.1142 53.3666 50.8216 53.1631 50.6202 52.6995C50.4188 52.2359 50.3375 51.5939 50.3762 50.7734C50.4196 50.1987 50.4998 49.7581 50.6167 49.4514C50.7427 49.1327 50.9043 48.9052 51.1017 48.7689C51.2094 48.6888 51.3691 48.6277 51.5808 48.5859C51.791 48.5335 52.0133 48.4901 52.248 48.4556C53.0265 48.341 53.7888 48.1914 54.5349 48.0066C55.29 47.8097 56.018 47.5418 56.7188 47.2029L57.1719 48.2459C56.6492 48.5372 56.0759 48.7824 55.4519 48.9814C54.828 49.1804 54.1886 49.3495 53.5337 49.4887C52.8879 49.6159 52.2557 49.7249 51.6371 49.8159L50.6877 49.8108C50.7322 49.1717 50.7773 48.5004 50.8229 47.7968C50.8685 47.0931 50.9039 46.4661 50.9292 45.9156C50.9336 45.6576 50.9878 45.4406 51.0919 45.2644C51.1959 45.0883 51.3279 44.9885 51.4879 44.9649C51.7545 44.9257 51.9678 45.0016 52.1277 45.1925C52.286 45.3729 52.3506 45.6904 52.3217 46.145C52.3141 46.3819 52.2924 46.6693 52.2565 47.0069C52.2207 47.3445 52.1819 47.6987 52.1401 48.0694C52.1091 48.4385 52.0756 48.7919 52.0397 49.1295C52.0129 49.4551 51.9942 49.7259 51.9834 49.9419C51.948 50.569 51.935 51.1284 51.9444 51.6202C51.9628 52.1 51.9691 52.4636 51.9631 52.711C51.9535 52.8626 51.9025 52.9934 51.8102 53.1034C51.7302 53.2224 51.6262 53.2913 51.4982 53.3102ZM57.0174 52.4983C56.7508 52.5375 56.5357 52.4137 56.3721 52.1268C56.2192 51.8384 56.1082 51.4312 56.039 50.9053C55.979 50.3673 55.9643 49.7691 55.995 49.1106C56.0551 48.0724 56.1205 47.248 56.1911 46.6372C56.2708 46.0143 56.3536 45.5197 56.4396 45.1532C56.4898 44.91 56.5654 44.6898 56.6662 44.4927C56.7671 44.2956 56.9082 44.1837 57.0895 44.157C57.3241 44.1225 57.5062 44.2083 57.6357 44.4144C57.7743 44.6085 57.8347 44.8622 57.8169 45.1758C57.7997 45.5643 57.7446 45.9905 57.6517 46.4545C57.5694 46.9169 57.5193 47.4121 57.5015 47.9401C57.4693 48.5881 57.4656 49.173 57.4904 49.6947C57.5243 50.2043 57.5623 50.633 57.6043 50.9806C57.6463 51.3282 57.6587 51.5891 57.6416 51.7632C57.6383 51.9566 57.5761 52.1212 57.455 52.257C57.3339 52.3927 57.1881 52.4732 57.0174 52.4983Z" fill="#7831B2"/>
<path d="M61.703 51.809C61.3404 51.8623 61.0397 51.8208 60.8008 51.6844C60.5727 51.5464 60.3899 51.3482 60.2524 51.0896C60.1133 50.8206 60.019 50.5235 59.9696 50.1984C59.9292 49.8613 59.9171 49.5307 59.9332 49.2067C59.9557 48.9246 59.9916 48.587 60.0408 48.1938C60.1006 47.799 60.1688 47.3869 60.2452 46.9575C60.3216 46.5281 60.3967 46.1258 60.4704 45.7504C60.5548 45.3734 60.6245 45.0791 60.6796 44.8673C60.7624 44.4798 60.8419 44.1786 60.9183 43.9637C61.0053 43.7472 61.1287 43.6272 61.2887 43.6036C61.4274 43.5832 61.5625 43.6116 61.6942 43.6887C61.8259 43.7659 61.9296 43.8739 62.0052 44.0129C62.0916 44.1503 62.1323 44.3105 62.1274 44.4934C62.1209 44.6659 62.083 44.9181 62.0135 45.25C61.9441 45.5818 61.8642 45.9528 61.7739 46.3627C61.6837 46.7727 61.5995 47.1872 61.5215 47.6061C61.4419 48.0145 61.394 48.3807 61.3779 48.7047C61.357 48.9973 61.3558 49.2762 61.3744 49.5415C61.3913 49.7963 61.4339 50.0045 61.5021 50.166C61.5687 50.317 61.6713 50.3823 61.81 50.3619C62.1512 50.3117 62.5377 49.9493 62.9694 49.2747C63.4117 48.5985 63.8783 47.6882 64.3694 46.5438C64.5978 46.0385 64.7937 45.5701 64.957 45.1386C65.1203 44.7072 65.265 44.3321 65.391 44.0134C65.5153 43.6842 65.6447 43.4239 65.7792 43.2326C65.9136 43.0412 66.0608 42.9338 66.2208 42.9103C66.4661 42.8742 66.6565 42.9427 66.7918 43.1158C66.9363 43.2768 67.0263 43.5101 67.0619 43.8158C67.1034 44.0885 67.1438 44.4256 67.1831 44.8273C67.233 45.2273 67.2846 45.6379 67.3378 46.0589C67.3893 46.4695 67.4476 46.8523 67.5125 47.2072C67.637 47.8108 67.7714 48.3003 67.9158 48.6757C68.0692 49.0391 68.2008 49.3307 68.3106 49.5504C68.4203 49.7702 68.4811 49.9542 68.4927 50.1026C68.4996 50.2195 68.479 50.3351 68.431 50.4494C68.3814 50.5532 68.3133 50.6436 68.2269 50.7207C68.1405 50.7977 68.0387 50.8449 67.9213 50.8621C67.5481 50.917 67.2447 50.715 67.0114 50.2562C66.778 49.7973 66.5572 49.1704 66.349 48.3755C66.2703 48.0011 66.1875 47.6005 66.1008 47.1737C66.0247 46.7453 65.9593 46.3153 65.9045 45.8838C65.8604 45.4507 65.8211 45.0491 65.7866 44.6789L66.2745 44.7679C66.149 45.1617 65.9971 45.5968 65.8189 46.0733C65.6406 46.5498 65.39 47.1603 65.0671 47.9047C64.7906 48.5243 64.4782 49.1224 64.1298 49.6991C63.7797 50.2652 63.4002 50.7445 62.991 51.1371C62.5909 51.5176 62.1616 51.7415 61.703 51.809Z" fill="#7831B2"/>
<path d="M76.156 49.683C75.868 49.7253 75.6409 49.6301 75.4746 49.3972C75.3174 49.1523 75.2048 48.8419 75.1367 48.4659C75.1079 48.2771 75.0806 48.0614 75.0545 47.8186C75.0285 47.5758 75.0123 47.3263 75.006 47.0699C75.0104 46.8119 75.0126 46.5757 75.0127 46.3613C75.0266 46.1662 75.0441 45.9224 75.065 45.6299C75.0966 45.3357 75.1273 45.0364 75.1573 44.7318C75.1964 44.4151 75.2288 44.1262 75.2544 43.8651C75.2892 43.592 75.3122 43.3849 75.3235 43.2438C75.3241 43.1044 75.2769 43.0094 75.182 42.9591C75.0855 42.8982 74.9306 42.8835 74.7173 42.9149C74.5467 42.94 74.3616 42.9779 74.1622 43.0287C73.9627 43.0795 73.7489 43.1431 73.5207 43.2195C72.9927 43.4044 72.5329 43.6436 72.1414 43.9371C71.759 44.2185 71.5627 44.5047 71.5524 44.7957C71.5358 45.0447 71.596 45.261 71.7329 45.4446C71.879 45.6161 72.1314 45.7344 72.4902 45.7995C72.8597 45.8631 73.3751 45.8463 74.0363 45.749C74.271 45.7145 74.5048 45.6748 74.7379 45.6297C74.9709 45.5847 75.1925 45.5361 75.4026 45.4837C75.6218 45.4193 75.8052 45.3709 75.9529 45.3384C76.099 45.2955 76.1934 45.2709 76.2361 45.2646C76.5027 45.2254 76.7291 45.2082 76.9152 45.213C77.1013 45.2178 77.1874 45.3177 77.1734 45.5127C77.1733 45.7271 77.0815 45.9122 76.898 46.0678C76.7252 46.2219 76.4828 46.3487 76.1708 46.4482C75.8695 46.5462 75.5109 46.6257 75.095 46.6869L73.4472 46.9293C72.8713 47.014 72.3237 46.9981 71.8043 46.8815C71.2957 46.7633 70.8871 46.55 70.5784 46.2416C70.2805 45.9316 70.1391 45.5396 70.1542 45.0657C70.1751 44.7731 70.2691 44.4591 70.4361 44.1236C70.6122 43.776 70.8875 43.4353 71.2619 43.1015C71.6471 42.7661 72.1681 42.4643 72.8252 42.1961C73.2966 41.9981 73.6953 41.859 74.0211 41.7789C74.347 41.6988 74.6752 41.6345 75.0058 41.5858C75.4217 41.5247 75.7558 41.5345 76.008 41.6153C76.2602 41.6962 76.4441 41.8299 76.5597 42.0166C76.686 42.2018 76.7425 42.4293 76.729 42.6993C76.7199 42.9258 76.6912 43.2035 76.6431 43.5322C76.5934 43.8504 76.5453 44.1791 76.4987 44.5184C76.4613 44.8455 76.4297 45.1396 76.404 45.4007C76.389 45.6603 76.3825 45.94 76.3845 46.2399C76.3849 46.5293 76.3952 46.8119 76.4153 47.0877C76.4355 47.3635 76.4607 47.601 76.4911 47.8003C76.5262 48.031 76.569 48.2766 76.6195 48.5373C76.6792 48.7858 76.7055 48.9588 76.6985 49.0563C76.6995 49.2063 76.6493 49.3423 76.548 49.4645C76.4466 49.5866 76.316 49.6594 76.156 49.683ZM70.5224 50.4956C70.3304 50.5238 70.1715 50.4829 70.0457 50.3727C69.929 50.2505 69.8738 50.1031 69.8803 49.9307C69.8948 49.8106 69.9572 49.6835 70.0676 49.5493C70.1765 49.4046 70.369 49.2369 70.6453 49.0462C71.119 48.7192 71.5761 48.3196 72.0167 47.8473C72.468 47.3735 72.9121 46.8525 73.3491 46.2843L74.4431 46.7024C74.1395 47.1437 73.8031 47.5845 73.434 48.0248C73.0739 48.4531 72.709 48.8498 72.3393 49.2151C71.9803 49.5789 71.6437 49.875 71.3296 50.1034C71.0154 50.3319 70.7463 50.4626 70.5224 50.4956Z" fill="#7831B2"/>
</svg>
