<svg width="152" height="69" viewBox="0 0 152 69" fill="none" xmlns="http://www.w3.org/2000/svg">
<path d="M106.893 48.4033C137.44 42.7926 143.823 24.4004 146.848 3.34152C144.908 13.5622 142.231 22.571 137.478 29.8763C131.483 39.0905 122.183 45.5949 106.893 48.4033Z" fill="#7831B2"/>
<path d="M146.445 0.662369C146.5 0.245581 146.883 -0.0480459 147.3 0.00652762C147.717 0.0610911 148.011 0.443196 147.956 0.859983L146.445 0.662369ZM107.031 49.1519C106.617 49.2278 106.22 48.9543 106.144 48.5409C106.068 48.1275 106.342 47.7307 106.756 47.6548L107.031 49.1519ZM146.864 0.232079C147.209 -0.00928439 147.683 0.0740349 147.925 0.418178L151.862 6.02618C152.103 6.37031 152.02 6.84498 151.676 7.08636C151.331 7.32775 150.857 7.24439 150.614 6.90025L147.115 1.91532L142.125 5.41148C141.781 5.65286 141.306 5.5695 141.064 5.22537C140.823 4.88123 140.906 4.40657 141.25 4.16522L146.864 0.232079ZM147.956 0.859983C147.843 1.72668 147.725 2.59015 147.602 3.44963L146.093 3.23341C146.215 2.38101 146.332 1.5238 146.445 0.662369L147.956 0.859983ZM147.602 3.44963C146.085 14.0033 143.714 24.024 137.807 32.114C131.876 40.2357 122.453 46.3193 107.031 49.1519L106.756 47.6548C121.881 44.8766 130.923 38.9588 136.576 31.217C142.252 23.4434 144.584 13.7385 146.093 3.23341L147.602 3.44963ZM148.051 0.986782C147.904 1.82632 147.752 2.65858 147.596 3.48327L146.099 3.19977C146.254 2.38238 146.404 1.55692 146.55 0.7236L148.051 0.986782ZM147.596 3.48327C145.65 13.737 142.951 22.8615 138.117 30.2911L136.84 29.4616C141.512 22.2805 144.166 13.3874 146.099 3.19977L147.596 3.48327ZM138.117 30.2911C131.991 39.7049 122.497 46.3112 107.031 49.1519L106.756 47.6548C121.87 44.8785 130.974 38.476 136.84 29.4616L138.117 30.2911Z" fill="#7831B2"/>
<path d="M5.18671 35.7368C4.30805 35.8681 3.53186 35.8325 2.85815 35.63C2.19453 35.4139 1.64553 35.0715 1.21116 34.6028C0.776791 34.134 0.456434 33.5756 0.250092 32.9272C0.055627 32.2771 -0.0254328 31.5738 0.00692303 30.8171C0.0541362 29.9973 0.196906 29.2484 0.435223 28.57C0.683645 27.878 0.986053 27.2628 1.34245 26.7244C1.69707 26.1742 2.06413 25.707 2.44363 25.3228C2.82312 24.9387 3.16667 24.6386 3.47426 24.423C3.78186 24.2072 4.00691 24.0886 4.14939 24.0673C4.26812 24.0496 4.37766 24.0514 4.47797 24.0728C4.57829 24.0942 4.66968 24.1776 4.75214 24.3229C4.92183 24.5644 4.93866 24.7984 4.80263 25.0249C4.66659 25.2513 4.46852 25.4689 4.20842 25.6775C3.85212 25.9734 3.47945 26.3626 3.09042 26.8452C2.71326 27.326 2.38594 27.8965 2.10844 28.5564C1.84282 29.2146 1.68224 29.9663 1.62671 30.8115C1.59734 31.5071 1.69743 32.1349 1.92696 32.6948C2.16835 33.253 2.55317 33.6746 3.08142 33.9594C3.61976 34.2307 4.32232 34.3015 5.1891 34.1719C5.85403 34.0726 6.47717 33.8157 7.05851 33.4014C7.6381 32.9752 8.11503 32.431 8.48921 31.7686C8.8736 31.0926 9.08261 30.3399 9.11612 29.5102C9.14013 28.7789 9.08971 28.077 8.96465 27.4044C8.83788 26.7199 8.63278 26.1199 8.34915 25.6045C8.06381 25.0771 7.69442 24.6775 7.241 24.4058C6.79943 24.1321 6.2818 24.0397 5.68811 24.1284C5.42689 24.1675 5.2342 24.2994 5.11004 24.5241C4.99597 24.7352 4.93146 24.9935 4.9165 25.2988C4.90631 25.5551 4.83469 25.7659 4.70165 25.9313C4.56683 26.0848 4.41036 26.1749 4.23227 26.2016C4.0779 26.2247 3.93514 26.2035 3.80397 26.1382C3.67279 26.073 3.56509 25.9617 3.48085 25.8045C3.39483 25.6355 3.35782 25.4288 3.36978 25.1844C3.3925 24.7687 3.49774 24.377 3.68547 24.0094C3.87321 23.6417 4.13513 23.3236 4.47124 23.0551C4.81923 22.7847 5.24257 22.6123 5.74127 22.5379C6.54868 22.4171 7.27439 22.521 7.91833 22.8491C8.56235 23.1774 9.09791 23.6734 9.52512 24.3372C9.96234 24.9874 10.2841 25.7579 10.4904 26.6488C10.7085 27.5379 10.7894 28.4839 10.7333 29.4868C10.6962 30.2927 10.5305 31.0512 10.2364 31.7622C9.94223 32.4731 9.54573 33.1085 9.04689 33.6682C8.55805 34.2142 7.98297 34.6701 7.32146 35.0357C6.67009 35.3877 5.9585 35.6214 5.18671 35.7368ZM12.886 27.2367C12.6129 27.2776 12.3867 27.2264 12.2075 27.0835C12.0402 26.9386 11.9642 26.7559 11.9798 26.5353C11.9958 26.3995 12.0503 26.2762 12.1429 26.1653C12.2356 26.0545 12.413 25.943 12.6755 25.8311C13.0852 25.6486 13.6391 25.4566 14.3374 25.2552C15.0474 25.052 15.8834 24.8786 16.8452 24.7349C17.3439 24.6603 17.8028 24.6039 18.2219 24.5655C18.6511 24.5135 19.1263 24.4849 19.6476 24.4797C20.0584 24.4668 20.3813 24.5156 20.6164 24.6261C20.8633 24.7347 20.9822 24.8806 20.9733 25.0638C20.9691 25.1979 20.9334 25.3245 20.8663 25.4437C20.8093 25.5492 20.7139 25.6423 20.5803 25.7229C20.4586 25.8018 20.2968 25.8563 20.095 25.8864C19.8456 25.9237 19.5529 25.9553 19.2169 25.9813C18.8809 26.0072 18.5211 26.0368 18.1376 26.0698C17.7642 26.0892 17.3816 26.1282 16.9898 26.1868C16.1705 26.3092 15.5168 26.4433 15.0287 26.589C14.539 26.7228 14.134 26.8562 13.814 26.9889C13.4922 27.1097 13.1828 27.1923 12.886 27.2367ZM16.5504 34.0748C16.2891 34.1138 16.0772 34.0364 15.9147 33.8424C15.7639 33.6466 15.6399 33.3862 15.5427 33.0612C15.4816 32.8156 15.431 32.4775 15.3908 32.047C15.3608 31.6027 15.3491 31.1193 15.3558 30.5969C15.3608 30.0625 15.3743 29.5451 15.3965 29.0445C15.4294 28.3725 15.456 27.7803 15.4764 27.268C15.5069 26.7419 15.527 26.3083 15.5366 25.9674L17.1236 25.6211C17.1062 25.8298 17.085 26.0937 17.06 26.4128C17.045 26.7182 17.0304 27.0661 17.016 27.4563C16.9998 27.8346 16.9795 28.2258 16.955 28.6296C16.9406 29.0199 16.9244 29.3982 16.9064 29.7648C16.8765 30.3757 16.8739 30.8853 16.8987 31.294C16.9336 31.689 16.9756 32.0102 17.0248 32.2575C17.0739 32.5048 17.1169 32.7106 17.1537 32.875C17.1887 33.0274 17.204 33.1706 17.1998 33.3046C17.1956 33.4387 17.1659 33.5644 17.1106 33.6818C17.0536 33.7873 16.9752 33.8719 16.8754 33.9352C16.7775 34.0105 16.6691 34.0571 16.5504 34.0748ZM22.3432 33.1908C22.0583 33.2334 21.8197 33.0992 21.6275 32.7884C21.4353 32.4775 21.3547 31.9803 21.3858 31.2964C21.3972 30.9673 21.4372 30.4641 21.5057 29.7868C21.5725 29.0977 21.7212 28.3478 21.9518 27.5371C22.2206 26.5753 22.4761 25.8095 22.7186 25.2397C22.9592 24.6579 23.2161 24.2253 23.4893 23.942C23.7625 23.6586 24.0594 23.4929 24.38 23.445C24.6293 23.4077 24.8344 23.4802 24.9952 23.6623C25.1679 23.8427 25.3053 24.0708 25.4072 24.3466C25.5093 24.6225 25.5994 24.9 25.6776 25.1794C25.782 25.5519 25.9044 25.9641 26.0449 26.4161C26.1973 26.8663 26.3566 27.3215 26.5226 27.7818C26.7004 28.2403 26.8867 28.6734 27.0813 29.0809C27.2877 29.4866 27.5022 29.8244 27.7247 30.0944L27.1048 30.3326C27.348 29.6049 27.6148 28.8738 27.9053 28.139C28.196 27.4044 28.4909 26.6993 28.7905 26.024C29.0899 25.3485 29.3754 24.7419 29.6469 24.2042C29.9504 23.6372 30.2169 23.2275 30.4461 22.975C30.6872 22.7207 30.9147 22.5775 31.1284 22.5456C31.2828 22.5225 31.4306 22.5368 31.5718 22.5884C31.7113 22.6282 31.8348 22.6826 31.9422 22.7514C32.0924 22.8623 32.2173 23.0074 32.3169 23.1866C32.4165 23.3657 32.4711 23.6486 32.4805 24.0353C32.5015 24.9053 32.5457 25.687 32.6131 26.3804C32.6906 27.0601 32.7699 27.6303 32.8511 28.0912C32.9855 28.9079 33.1426 29.5515 33.3223 30.0218C33.5139 30.4904 33.6025 30.7986 33.5882 30.9463C33.5875 31.104 33.5231 31.2409 33.3948 31.3572C33.2802 31.4834 33.1279 31.5608 32.9379 31.5892C32.653 31.6318 32.395 31.5308 32.1642 31.2864C31.9452 31.0402 31.7773 30.6893 31.6606 30.2338C31.5491 29.8138 31.4327 29.2795 31.3112 28.6306C31.2017 27.9799 31.1102 27.2478 31.037 26.4341C30.9737 25.6067 30.9426 24.7503 30.9435 23.8648L31.4414 23.663C31.2186 24.1208 30.969 24.6432 30.6928 25.2303C30.4266 25.8037 30.1521 26.4026 29.8693 27.027C29.5984 27.6496 29.3383 28.2645 29.0894 28.8717C28.8523 29.4771 28.6464 30.0476 28.4716 30.5831C28.3748 30.8279 28.2471 31.0289 28.0885 31.1861C27.9419 31.3414 27.7557 31.4359 27.5301 31.4696C27.2451 31.5122 26.9979 31.4825 26.7883 31.3804C26.5889 31.2646 26.4061 31.0979 26.24 30.8802C26.0839 30.6488 25.9362 30.3921 25.7968 30.1097C25.7245 29.9507 25.6245 29.7292 25.497 29.445C25.3677 29.149 25.233 28.8174 25.0931 28.4503C24.9531 28.0831 24.8155 27.6913 24.6804 27.2749C24.5452 26.8586 24.4227 26.4463 24.3131 26.0382C24.2016 25.6183 24.1184 25.2245 24.0634 24.8567L24.5763 24.6346C24.2596 25.2761 23.9887 25.8987 23.7635 26.5023C23.5501 27.1043 23.381 27.7178 23.2561 28.3427C23.1413 28.9542 23.0633 29.6086 23.022 30.3061C22.9963 30.7829 22.9854 31.1969 22.9894 31.548C23.0053 31.8973 23.0088 32.1636 22.9998 32.3468C22.9825 32.5556 22.9252 32.74 22.8277 32.9001C22.7303 33.0602 22.5688 33.1571 22.3432 33.1908ZM39.2291 30.6489C38.2436 30.7962 37.451 30.7327 36.8515 30.4585C36.2503 30.1724 35.8204 29.7334 35.5618 29.1414C35.3014 28.5376 35.1898 27.8326 35.2269 27.0267C35.2705 26.4259 35.409 25.8109 35.6425 25.1818C35.8863 24.539 36.215 23.938 36.629 23.3789C37.0549 22.818 37.5493 22.35 38.1122 21.9747C38.6852 21.5859 39.3101 21.3409 39.987 21.2398C40.6163 21.1457 41.1479 21.1693 41.5818 21.3107C42.0276 21.4502 42.3569 21.7042 42.5699 22.0726C42.7947 22.4392 42.8923 22.9279 42.8624 23.5388C42.8413 24.209 42.633 24.804 42.2374 25.324C41.8401 25.8321 41.3148 26.2563 40.6617 26.5964C40.0204 26.9348 39.3079 27.1625 38.5242 27.2797C37.7169 27.4004 37.1624 27.3862 36.8608 27.2372C36.5712 27.0865 36.4323 26.889 36.4443 26.6446C36.4467 26.4986 36.4851 26.3899 36.5593 26.3181C36.6318 26.2346 36.7571 26.1794 36.9352 26.1528C37.0658 26.1333 37.2237 26.1339 37.4089 26.1548C37.6042 26.162 37.8859 26.138 38.254 26.083C38.8477 25.9943 39.3696 25.8315 39.8197 25.5944C40.2816 25.3555 40.6456 25.0707 40.9117 24.7399C41.176 24.3972 41.3213 24.0298 41.3476 23.6378C41.3655 23.2713 41.2781 23.0115 41.0852 22.8584C40.9042 22.7036 40.5822 22.6607 40.119 22.73C39.656 22.7991 39.2267 22.9725 38.8312 23.2498C38.4458 23.5136 38.0957 23.8509 37.781 24.2618C37.478 24.6709 37.2365 25.1254 37.0565 25.6254C36.8764 26.1252 36.7771 26.6373 36.7585 27.1615C36.7393 27.601 36.792 27.9934 36.9166 28.3386C37.0393 28.672 37.26 28.9301 37.5787 29.1128C37.9075 29.282 38.3451 29.3257 38.8912 29.2441C39.5087 29.1519 40.0255 28.9957 40.4418 28.7758C40.8681 28.5424 41.2197 28.2958 41.4964 28.0361C41.7731 27.7764 42.0068 27.5535 42.1974 27.3674C42.388 27.1812 42.5665 27.0758 42.7327 27.0509C42.9346 27.0207 43.0886 27.0766 43.1948 27.2183C43.3111 27.3465 43.3633 27.5327 43.3513 27.777C43.3394 28.0214 43.2164 28.2945 42.9823 28.5962C42.7584 28.8844 42.4497 29.1731 42.0559 29.4624C41.6741 29.7499 41.2386 30.0029 40.7493 30.2216C40.2701 30.4266 39.7634 30.5691 39.2291 30.6489ZM47.3124 26.5301C46.8611 26.5976 46.472 26.5527 46.145 26.3954C45.8179 26.2381 45.5565 25.9922 45.3607 25.6576C45.1768 25.3212 45.064 24.9319 45.0219 24.4894C44.9663 24.0368 44.9691 23.5696 45.0305 23.0874C45.0919 22.6052 45.1941 22.1534 45.3374 21.7318C45.4925 21.3084 45.6761 20.9534 45.8881 20.6671C46.1002 20.3807 46.3308 20.2189 46.5802 20.1816C46.6989 20.1639 46.8034 20.1725 46.8937 20.2076C46.9957 20.2408 47.0776 20.3014 47.1393 20.3891C47.1992 20.4651 47.233 20.5691 47.2407 20.7015C47.2448 20.8099 47.2103 20.9849 47.1372 21.2262C47.0741 21.454 46.9936 21.7268 46.8956 22.0446C46.7957 22.3506 46.7173 22.6776 46.6601 23.0257C46.6012 23.362 46.5907 23.6971 46.6285 24.031C46.6605 24.2445 46.7059 24.4258 46.7646 24.5746C46.8215 24.7116 46.9028 24.8087 47.0084 24.8656C47.126 24.9208 47.2678 24.936 47.4341 24.9111C47.814 24.8543 48.1917 24.7009 48.567 24.4507C48.9423 24.2007 49.289 23.882 49.6074 23.4948C49.9376 23.1059 50.2219 22.6935 50.4601 22.2577C50.6965 21.81 50.8677 21.3721 50.9735 20.9439L51.3905 22.7554C51.0637 23.4105 50.6864 24.0128 50.2588 24.5617C49.843 25.1089 49.3816 25.5539 48.8745 25.8965C48.3793 26.2373 47.8585 26.4486 47.3124 26.5301ZM51.5403 28.8635C51.2791 28.9026 51.08 28.8292 50.9429 28.6435C50.8041 28.446 50.6887 28.2025 50.5968 27.9131C50.5392 27.6912 50.4907 27.4074 50.4511 27.0616C50.4216 26.7021 50.4063 26.3164 50.4052 25.9042C50.4042 25.492 50.4177 25.0958 50.4458 24.7157C50.4643 24.4339 50.4952 24.114 50.5387 23.7559C50.5805 23.3858 50.6281 23.0148 50.6816 22.643C50.7352 22.2712 50.7924 21.9231 50.853 21.5986C50.9119 21.2624 50.9568 20.9949 50.9878 20.7963C51.0497 20.3989 51.1359 20.0829 51.2464 19.8481C51.3687 19.6115 51.5368 19.4771 51.7505 19.4453C51.9524 19.4151 52.1432 19.5139 52.323 19.7417C52.5028 19.9695 52.5795 20.2795 52.5533 20.6715C52.5449 20.9395 52.4973 21.3105 52.4104 21.7843C52.3218 22.2463 52.2358 22.7261 52.1525 23.2236C52.0793 23.7075 52.0328 24.1268 52.0131 24.4814C51.9778 25.0567 51.9675 25.5555 51.9823 25.9778C51.997 26.4 52.0283 26.7713 52.0762 27.0916C52.0998 27.3306 52.1291 27.5263 52.1641 27.6788C52.1991 27.8312 52.2136 27.9685 52.2076 28.0907C52.1969 28.2621 52.1359 28.4228 52.0249 28.5727C51.9274 28.7329 51.7659 28.8298 51.5403 28.8635ZM57.0195 27.99C56.4734 28.0717 56.0085 28.0077 55.6251 27.7982C55.2536 27.5869 54.9678 27.2598 54.768 26.8166C54.5799 26.3717 54.5 25.838 54.5282 25.2153C54.5497 24.6299 54.6604 24.0312 54.8602 23.4192C55.07 22.7936 55.3504 22.1938 55.7015 21.6199C56.0507 21.0341 56.4513 20.5073 56.9033 20.0395C57.3654 19.5581 57.8644 19.1621 58.4007 18.8516C58.9488 18.5392 59.5136 18.3396 60.0954 18.2526C60.3686 18.2118 60.593 18.251 60.7687 18.3703C60.9443 18.4896 61.0238 18.696 61.0071 18.9896C61.0046 19.1355 60.958 19.2698 60.8671 19.3925C60.7745 19.5034 60.629 19.5858 60.4307 19.6397C59.6173 19.8826 58.8898 20.2945 58.2485 20.8754C57.619 21.4546 57.1174 22.1178 56.7437 22.8648C56.3801 23.5984 56.1762 24.3444 56.132 25.1029C56.1123 25.4576 56.1237 25.7772 56.1663 26.0619C56.2071 26.3347 56.3199 26.6818 56.5043 27.1029L55.6436 25.9763C55.8982 26.2172 56.1149 26.3667 56.2935 26.4249C56.4841 26.4814 56.7396 26.4855 57.0602 26.4377C57.8201 26.324 58.5191 25.7224 59.1571 24.6325C59.7951 23.5428 60.3071 22.0169 60.6932 20.0552C60.7425 19.8174 60.8296 19.6286 60.9543 19.4886C61.0891 19.3351 61.2575 19.2433 61.4593 19.2131C61.7324 19.1722 61.9579 19.2598 62.1359 19.4758C62.3241 19.6781 62.4329 19.9589 62.4625 20.3183C62.5268 21.0728 62.6044 21.7524 62.695 22.3575C62.7957 22.9488 62.9444 23.4965 63.1413 24.0007C63.3501 24.5031 63.6566 25.0092 64.0607 25.5187C64.1496 25.6267 64.1997 25.7587 64.2109 25.9146C64.2341 26.0689 64.2147 26.2234 64.1529 26.3781C64.103 26.5311 64.0199 26.6649 63.9034 26.7792C63.7971 26.8801 63.6609 26.9428 63.4946 26.9677C63.3165 26.9943 63.1687 26.98 63.0512 26.9248C62.9455 26.8679 62.8473 26.7794 62.7565 26.6596C62.5441 26.376 62.3468 26.072 62.1647 25.7475C61.9826 25.4231 61.8171 25.0475 61.6683 24.6211C61.5295 24.181 61.4208 23.6575 61.342 23.0508C61.2633 22.444 61.2153 21.7175 61.1978 20.8712L61.8363 20.7575C61.5601 22.3996 61.1539 23.7399 60.6174 24.7782C60.0928 25.8146 59.5104 26.5869 58.8703 27.0949C58.2301 27.6029 57.6132 27.9013 57.0195 27.99ZM69.6324 26.1049C68.6468 26.2523 67.8543 26.1888 67.2548 25.9145C66.6536 25.6285 66.2236 25.1894 65.9651 24.5974C65.7047 23.9936 65.593 23.2886 65.6301 22.4827C65.6738 21.8819 65.8123 21.2669 66.0458 20.6378C66.2896 19.995 66.6183 19.394 67.0323 18.8349C67.4582 18.274 67.9526 17.806 68.5156 17.4307C69.0885 17.0419 69.7134 16.797 70.3903 16.6958C71.3283 16.5556 72.0507 16.6781 72.5575 17.0631C73.0763 17.4465 73.3123 18.0903 73.2656 18.9948C73.2446 19.665 73.0363 20.2601 72.6407 20.78C72.2434 21.2881 71.7181 21.7123 71.0649 22.0524C70.4237 22.3908 69.7112 22.6185 68.9276 22.7357C68.1202 22.8564 67.5657 22.8422 67.2641 22.6933C66.9745 22.5425 66.8356 22.345 66.8476 22.1006C66.85 21.9548 66.8884 21.8459 66.9626 21.7741C67.035 21.6906 67.1604 21.6355 67.3385 21.6088C67.469 21.5893 67.627 21.5899 67.8122 21.6108C68.0075 21.618 68.2892 21.5941 68.6573 21.5391C69.251 21.4503 69.7729 21.2875 70.223 21.0504C70.6849 20.8116 71.0489 20.5267 71.315 20.1959C71.5794 19.8532 71.7246 19.4858 71.7508 19.0938C71.7689 18.7273 71.6814 18.4675 71.4885 18.3144C71.3075 18.1596 70.9855 18.1167 70.5223 18.186C70.0593 18.2551 69.63 18.4285 69.2345 18.7059C68.8491 18.9697 68.4991 19.3069 68.1843 19.7178C67.8813 20.1269 67.6398 20.5814 67.4597 21.0814C67.2797 21.5812 67.1804 22.0933 67.1618 22.6176C67.1426 23.057 67.1953 23.4494 67.3198 23.7946C67.4425 24.128 67.6633 24.3861 67.982 24.5688C68.3109 24.738 68.7484 24.7818 69.2945 24.7001C69.9119 24.6079 70.4288 24.4517 70.845 24.2318C71.2714 23.9984 71.6229 23.7518 71.8996 23.4921C72.1765 23.2324 72.4101 23.0095 72.6008 22.8234C72.7914 22.6372 72.9698 22.5318 73.136 22.5069C73.3379 22.4768 73.4919 22.5326 73.5982 22.6744C73.7144 22.8025 73.7666 22.9887 73.7546 23.2331C73.7426 23.4774 73.6197 23.7505 73.3856 24.0522C73.1617 24.3404 72.8529 24.6292 72.4592 24.9184C72.0774 25.2059 71.6419 25.459 71.1525 25.6776C70.6734 25.8826 70.1667 26.0251 69.6324 26.1049ZM76.7318 25.062C76.4467 25.1046 76.2081 24.9706 76.0159 24.6597C75.8237 24.3489 75.7432 23.8515 75.7743 23.1678C75.7857 22.8385 75.8257 22.3354 75.8943 21.6581C75.961 20.9689 76.1097 20.2191 76.3404 19.4085C76.609 18.4466 76.8646 17.6807 77.1071 17.1109C77.3477 16.5292 77.6046 16.0966 77.8778 15.8132C78.151 15.5299 78.4479 15.3642 78.7685 15.3163C79.0178 15.279 79.2229 15.3515 79.3837 15.5336C79.5564 15.714 79.6937 15.9421 79.7958 16.2178C79.8977 16.4937 79.9879 16.7713 80.0661 17.0506C80.1705 17.4231 80.2929 17.8353 80.4334 18.2873C80.5858 18.7375 80.7451 19.1928 80.911 19.6531C81.089 20.1116 81.2752 20.5446 81.4698 20.9521C81.6762 21.3578 81.8907 21.6957 82.1132 21.9656L81.4933 22.2038C81.7364 21.4762 82.0033 20.745 82.2938 20.0104C82.5845 19.2757 82.8795 18.5706 83.1789 17.8952C83.4784 17.2198 83.7638 16.6132 84.0354 16.0754C84.3389 15.5085 84.6053 15.0988 84.8347 14.8463C85.0758 14.5919 85.3032 14.4488 85.5169 14.4168C85.6713 14.3937 85.819 14.408 85.9603 14.4597C86.0999 14.4995 86.2233 14.5538 86.3307 14.6226C86.4809 14.7337 86.6057 14.8787 86.7055 15.0578C86.8051 15.237 86.8597 15.5199 86.869 15.9066C86.89 16.7767 86.9342 17.5583 87.0016 18.2516C87.0792 18.9313 87.1585 19.5016 87.2396 19.9624C87.374 20.7791 87.5311 21.4227 87.7108 21.8931C87.9024 22.3617 87.991 22.6698 87.9767 22.8175C87.976 22.9753 87.9116 23.1122 87.7833 23.2284C87.6687 23.3547 87.5164 23.432 87.3264 23.4604C87.0414 23.503 86.7835 23.4021 86.5527 23.1577C86.3337 22.9115 86.1658 22.5606 86.0491 22.1051C85.9376 21.6851 85.8212 21.1507 85.6998 20.5019C85.5901 19.8512 85.4988 19.119 85.4255 18.3053C85.3622 17.4779 85.3311 16.6215 85.3321 15.7361L85.83 15.5343C85.6071 15.992 85.3576 16.5145 85.0813 17.1015C84.8151 17.6749 84.5406 18.2738 84.2578 18.8982C83.9868 19.5208 83.7269 20.1357 83.4779 20.7429C83.2408 21.3484 83.0349 21.9189 82.8602 22.4543C82.7633 22.6992 82.6356 22.9002 82.477 23.0573C82.3303 23.2126 82.1441 23.3072 81.9185 23.3409C81.6336 23.3835 81.3864 23.3538 81.1769 23.2516C80.9774 23.136 80.7946 22.9693 80.6285 22.7515C80.4724 22.5202 80.3247 22.2633 80.1853 21.9809C80.1129 21.8219 80.013 21.6004 79.8855 21.3163C79.7562 21.0203 79.6216 20.6887 79.4816 20.3215C79.3417 19.9543 79.2041 19.5626 79.0688 19.1462C78.9337 18.7298 78.8113 18.3175 78.7016 17.9095C78.5902 17.4895 78.5069 17.0957 78.4518 16.728L78.9648 16.5058C78.6481 17.1474 78.3772 17.77 78.152 18.3737C77.9387 18.9755 77.7695 19.589 77.6446 20.2141C77.5298 20.8255 77.4517 21.4799 77.4105 22.1773C77.3848 22.6541 77.374 23.0681 77.378 23.4192C77.3939 23.7686 77.3973 24.0348 77.3883 24.2181C77.3711 24.4268 77.3137 24.6113 77.2163 24.7714C77.1189 24.9314 76.9573 25.0284 76.7318 25.062ZM5.48381 51.8263C5.00886 51.8972 4.55649 51.9163 4.12669 51.8835C3.707 51.8371 3.32947 51.748 2.99411 51.6162C2.67062 51.4826 2.40711 51.3037 2.20357 51.0794C2.01192 50.8534 1.90663 50.5963 1.88776 50.308C1.86943 50.1046 1.90987 49.9288 2.00907 49.7806C2.11836 49.6186 2.25018 49.5262 2.40455 49.5031C2.54703 49.4818 2.68237 49.5344 2.81054 49.6607C2.94882 49.7735 3.11529 49.9123 3.30994 50.0773C3.51469 50.2286 3.78209 50.3524 4.11212 50.4485C4.44038 50.5329 4.8776 50.5343 5.42379 50.4526C6.21933 50.3337 6.80358 50.1009 7.17653 49.7541C7.55956 49.3936 7.72354 49.0295 7.66851 48.6618C7.6502 48.4584 7.54135 48.2988 7.34188 48.1831C7.15255 48.0537 6.87772 47.9614 6.5174 47.9061C6.1553 47.8389 5.689 47.8055 5.1185 47.8059C4.65842 47.814 4.35419 47.7685 4.2058 47.6695C4.06754 47.5567 3.99694 47.4096 3.99405 47.2281C3.9775 47.0366 4.0767 46.8884 4.29164 46.7834C4.50658 46.6786 4.87411 46.5387 5.39422 46.364C6.077 46.1406 6.60842 45.8793 6.98848 45.58C7.38041 45.2788 7.55746 44.9613 7.51954 44.6273C7.48352 44.3053 7.29865 44.0843 6.96507 43.9644C6.6297 43.8326 6.2008 43.8057 5.67836 43.8838C5.08466 43.9726 4.60345 44.1233 4.23471 44.3361C3.8642 44.537 3.57174 44.7323 3.35736 44.922C3.15485 45.1099 2.98829 45.2137 2.85768 45.2332C2.72707 45.2526 2.61903 45.2204 2.53358 45.1361C2.46001 45.05 2.41938 44.9409 2.41171 44.8087C2.39161 44.5934 2.45462 44.3657 2.60076 44.1255C2.75876 43.8836 2.9788 43.6506 3.26088 43.4265C3.55482 43.2006 3.90842 43.0083 4.32166 42.8496C4.74501 42.6772 5.21197 42.5528 5.72254 42.4765C6.76742 42.3204 7.56766 42.3947 8.12313 42.6998C8.69061 43.0031 9.01217 43.4887 9.08791 44.1565C9.11922 44.5278 9.02498 44.9117 8.80517 45.3084C8.59547 45.6914 8.248 46.0466 7.76286 46.3738C7.27597 46.6891 6.63413 46.9427 5.83737 47.1345L5.7796 46.8703C6.51577 46.7603 7.12694 46.7477 7.61308 46.8328C8.10933 46.9041 8.48751 47.0781 8.74734 47.3545C9.01737 47.6173 9.17425 47.9759 9.21807 48.4302C9.2843 48.954 9.15354 49.4586 8.82558 49.9442C8.50782 50.4161 8.0529 50.8237 7.46093 51.1669C6.86715 51.4982 6.20811 51.7179 5.48381 51.8263ZM13.5917 50.6508C13.0456 50.7325 12.5807 50.6685 12.1973 50.459C11.8258 50.2477 11.54 49.9206 11.3401 49.4774C11.1521 49.0325 11.0722 48.4988 11.1004 47.8761C11.1219 47.2907 11.2326 46.692 11.4323 46.08C11.6421 45.4544 11.9225 44.8546 12.2736 44.2807C12.6229 43.6949 13.0235 43.1681 13.4755 42.7003C13.9376 42.2189 14.4366 41.8229 14.9729 41.5124C15.5209 41.2 16.0858 41.0004 16.6676 40.9134C16.9408 40.8726 17.1652 40.9118 17.3409 41.0311C17.5165 41.1504 17.596 41.3568 17.5793 41.6504C17.5768 41.7963 17.5301 41.9306 17.4393 42.0533C17.3467 42.1641 17.2011 42.2466 17.0028 42.3005C16.1894 42.5433 15.462 42.9553 14.8207 43.5362C14.1912 44.1154 13.6896 44.7785 13.3159 45.5256C12.9523 46.2592 12.7484 47.0052 12.7042 47.7636C12.6844 48.1184 12.6959 48.438 12.7385 48.7227C12.7793 48.9955 12.892 49.3426 13.0765 49.7637L12.2158 48.6371C12.4704 48.878 12.6871 49.0275 12.8657 49.0857C13.0563 49.1422 13.3118 49.1464 13.6324 49.0985C14.3923 48.9848 15.0913 48.3832 15.7293 47.2934C16.3673 46.2035 16.8793 44.6777 17.2653 42.716C17.3147 42.4782 17.4018 42.2894 17.5264 42.1494C17.6613 41.9959 17.8297 41.904 18.0315 41.8739C18.3046 41.833 18.5301 41.9206 18.7081 42.1366C18.8963 42.3389 19.0051 42.6197 19.0347 42.9791C19.099 43.7336 19.1766 44.4132 19.2672 45.0183C19.3679 45.6096 19.5166 46.1573 19.7135 46.6615C19.9223 47.1639 20.2288 47.67 20.6328 48.1795C20.7218 48.2875 20.7719 48.4195 20.7831 48.5754C20.8063 48.7297 20.7868 48.8842 20.7251 49.0389C20.6752 49.1919 20.5921 49.3257 20.4756 49.44C20.3693 49.5409 20.2331 49.6036 20.0668 49.6285C19.8887 49.6551 19.7408 49.6408 19.6234 49.5856C19.5177 49.5287 19.4195 49.4402 19.3287 49.3204C19.1163 49.0368 18.919 48.7328 18.7369 48.4083C18.5548 48.0839 18.3893 47.7084 18.2404 47.2819C18.1017 46.8418 17.993 46.3183 17.9142 45.7116C17.8355 45.1048 17.7875 44.3783 17.77 43.532L18.4085 43.4183C18.1943 44.6631 17.9109 45.7303 17.5586 46.6198C17.2044 47.4974 16.8034 48.2243 16.3556 48.8006C15.9179 49.3633 15.4605 49.7954 14.9838 50.0971C14.507 50.3988 14.0429 50.5834 13.5917 50.6508ZM25.347 49.003C24.7415 49.0936 24.23 49.0426 23.8127 48.8503C23.4073 48.6562 23.0863 48.3767 22.8496 48.0119C22.6229 47.6335 22.4632 47.2147 22.3701 46.7556C22.2872 46.283 22.2536 45.815 22.2692 45.3518C22.3014 44.8376 22.3749 44.2748 22.4898 43.6634C22.6164 43.0502 22.7704 42.4572 22.9517 41.8844C23.1312 41.2997 23.3249 40.8098 23.5329 40.4149C23.6553 40.1783 23.8212 39.9898 24.0308 39.8494C24.2523 39.707 24.4759 39.6191 24.7015 39.5854C24.844 39.5641 24.952 39.5965 25.0256 39.6824C25.0974 39.7566 25.1271 39.8735 25.1145 40.033C25.1056 40.2163 25.0383 40.4568 24.913 40.7544C24.7995 41.0503 24.6592 41.4108 24.4923 41.836C24.3372 42.2594 24.1936 42.7599 24.0616 43.3375C23.9278 43.9032 23.8438 44.5586 23.8097 45.3034C23.769 46.0857 23.8775 46.688 24.1349 47.1103C24.3924 47.5327 24.8239 47.6987 25.4294 47.6082C25.8806 47.5407 26.3142 47.3547 26.7298 47.05C27.1455 46.7453 27.4952 46.3656 27.7792 45.9108C28.0732 45.4423 28.2414 44.9443 28.2838 44.4165L28.5303 44.7253C28.2158 44.651 27.8462 44.6153 27.4217 44.618C27.0074 44.6073 26.5669 44.6245 26.1003 44.67C25.6437 44.7019 25.1976 44.7625 24.7618 44.8519C24.3243 44.9294 23.9377 45.0236 23.6022 45.1343L23.658 43.9254C24.2737 43.8212 24.8447 43.6631 25.3714 43.451C25.9082 43.2252 26.3734 42.9678 26.7671 42.6785C27.1727 42.3874 27.4933 42.097 27.7292 41.807C27.9632 41.5053 28.0811 41.239 28.083 41.0083C28.0937 40.8369 28.0326 40.7126 27.8997 40.6355C27.765 40.5464 27.567 40.5214 27.3057 40.5605C26.9852 40.6084 26.6539 40.7065 26.3119 40.8546C25.9818 41.0009 25.6314 41.1746 25.2609 41.3755C24.8904 41.5764 24.4971 41.7868 24.0808 42.0066C23.9098 42.0807 23.7578 42.0792 23.6248 42.002C23.5038 41.9231 23.4505 41.8098 23.4647 41.6621C23.4755 41.4908 23.5652 41.3197 23.7338 41.1489C23.9126 40.9645 24.0857 40.8235 24.2531 40.7256C24.9206 40.2379 25.5524 39.8767 26.1485 39.642C26.7548 39.3937 27.325 39.2297 27.8593 39.1498C28.2867 39.0859 28.6468 39.0988 28.9394 39.1885C29.244 39.2763 29.4725 39.4242 29.625 39.6318C29.7893 39.8377 29.8631 40.0874 29.8464 40.3809C29.832 40.7711 29.708 41.1595 29.4746 41.5461C29.2412 41.9328 28.9269 42.3072 28.532 42.6694C28.1473 43.0179 27.7146 43.3312 27.2342 43.6091C26.7539 43.8871 26.2417 44.1153 25.6979 44.2936L25.6857 43.6041C26.2402 43.497 26.7567 43.4198 27.2352 43.3726C27.7257 43.3235 28.1611 43.313 28.5415 43.3411C28.9221 43.3691 29.2216 43.4637 29.44 43.6251C29.6685 43.773 29.799 43.996 29.8315 44.2943C29.8788 44.7724 29.7837 45.2716 29.5459 45.7923C29.3184 46.2992 28.9837 46.7798 28.5419 47.234C28.1118 47.6863 27.6178 48.0755 27.0596 48.4014C26.5116 48.7138 25.9407 48.9144 25.347 49.003ZM35.7361 47.3412C34.7505 47.4885 33.958 47.425 33.3585 47.1508C32.7573 46.8647 32.3273 46.4257 32.0688 45.8337C31.8084 45.2298 31.6967 44.5249 31.7338 43.7189C31.7774 43.1182 31.916 42.5032 32.1495 41.874C32.3931 41.2312 32.722 40.6303 33.136 40.0712C33.5618 39.5103 34.0563 39.0423 34.6192 38.667C35.1922 38.2782 35.8171 38.0332 36.494 37.9321C37.1233 37.838 37.6548 37.8616 38.0887 38.003C38.5346 38.1425 38.8639 38.3965 39.0769 38.7649C39.3017 39.1314 39.3992 39.6202 39.3693 40.2311C39.3483 40.9013 39.1399 41.4963 38.7444 42.0162C38.3471 42.5244 37.8218 42.9485 37.1686 43.2887C36.5274 43.627 35.8148 43.8548 35.0312 43.972C34.2237 44.0926 33.6694 44.0785 33.3678 43.9295C33.0782 43.7788 32.9393 43.5812 32.9513 43.3369C32.9537 43.1909 32.992 43.0821 33.0663 43.0104C33.1387 42.9268 33.2641 42.8717 33.4422 42.8451C33.5727 42.8255 33.7307 42.8262 33.9159 42.847C34.1112 42.8542 34.3929 42.8303 34.761 42.7753C35.3547 42.6866 35.8765 42.5237 36.3266 42.2867C36.7886 42.0478 37.1526 41.7629 37.4187 41.4322C37.6829 41.0895 37.8283 40.7221 37.8545 40.3301C37.8725 39.9636 37.785 39.7037 37.5922 39.5507C37.4112 39.3958 37.0891 39.353 36.626 39.4222C36.163 39.4914 35.7337 39.6648 35.3382 39.9421C34.9528 40.2059 34.6027 40.5432 34.288 40.9541C33.985 41.3632 33.7435 41.8177 33.5634 42.3176C33.3833 42.8175 33.2841 43.3296 33.2655 43.8538C33.2463 44.2933 33.299 44.6856 33.4234 45.0309C33.5462 45.3642 33.767 45.6223 34.0857 45.8051C34.4145 45.9742 34.852 46.018 35.3982 45.9363C36.0156 45.8441 36.5325 45.688 36.9487 45.4681C37.3751 45.2347 37.7266 44.9881 38.0033 44.7284C38.28 44.4687 38.5137 44.2458 38.7044 44.0596C38.895 43.8735 39.0734 43.7681 39.2397 43.7432C39.4416 43.713 39.5956 43.7689 39.7018 43.9106C39.8181 44.0387 39.8703 44.225 39.8583 44.4693C39.8463 44.7137 39.7233 44.9868 39.4893 45.2885C39.2654 45.5767 38.9566 45.8653 38.5629 46.1546C38.1811 46.4422 37.7455 46.6952 37.2562 46.9138C36.7771 47.1189 36.2703 47.2614 35.7361 47.3412ZM46.0431 45.7097C45.4732 45.795 44.963 45.7924 44.5124 45.702C44.0619 45.6118 43.7051 45.4588 43.4423 45.2435C43.1793 45.0281 43.0512 44.7805 43.0579 44.5005C43.0722 44.3529 43.1188 44.2185 43.1978 44.0976C43.2768 43.9767 43.3934 43.9046 43.5478 43.8815C43.6666 43.8638 43.7779 43.8775 43.8818 43.9226C43.9856 43.9677 44.1091 44.022 44.2522 44.0855C44.3951 44.1491 44.5967 44.1978 44.8568 44.2316C45.115 44.2537 45.4577 44.2327 45.8853 44.1689C46.5502 44.0695 47.1021 43.8233 47.541 43.4302C47.9899 43.0236 48.2261 42.4122 48.2495 41.5961C48.2848 41.0209 48.2153 40.5158 48.0409 40.0811C47.8766 39.6327 47.6331 39.2627 47.3103 38.9715C46.9856 38.6682 46.5963 38.4596 46.1422 38.3456C45.6881 38.2316 45.1879 38.2154 44.6418 38.297C44.3686 38.3378 44.0941 38.4092 43.8179 38.511C43.5419 38.613 43.297 38.6798 43.0833 38.7118C42.9526 38.7313 42.8295 38.7194 42.7137 38.6761C42.5961 38.6209 42.5107 38.5366 42.4574 38.4234C42.4039 38.31 42.3802 38.1923 42.3862 38.0701C42.4096 37.7392 42.5868 37.4641 42.9182 37.2448C43.2596 37.0118 43.8043 36.8394 44.5524 36.7277C45.348 36.6087 46.0749 36.6396 46.7332 36.8201C47.4033 36.999 47.9776 37.3072 48.4559 37.7451C48.9325 38.1712 49.2934 38.7175 49.5389 39.3842C49.7946 40.0373 49.9014 40.7914 49.8595 41.6466C49.8344 42.2082 49.7172 42.723 49.508 43.1908C49.3108 43.6569 49.0444 44.0666 48.7088 44.4199C48.3715 44.7615 47.9769 45.0447 47.5251 45.2699C47.0714 45.4833 46.5775 45.6299 46.0431 45.7097ZM42.5397 50.8904C42.3972 50.9117 42.2673 50.8947 42.1497 50.8395C42.0459 50.7945 41.9663 50.7093 41.9112 50.5842C41.8561 50.4589 41.833 50.3048 41.8419 50.1215C41.8509 49.9383 41.8913 49.7624 41.9632 49.594C42.0251 49.4392 42.0934 49.2471 42.1682 49.0176C42.245 48.8 42.3186 48.5222 42.3894 48.1841C42.4602 47.8461 42.5099 47.4081 42.5386 46.8703C42.5715 46.1983 42.5519 45.5403 42.4798 44.8961C42.4177 44.2384 42.3378 43.5834 42.2401 42.9309C42.1525 42.2649 42.0708 41.5979 41.995 40.93C41.9176 40.2504 41.8926 39.5568 41.9202 38.8493C41.9375 38.6406 41.972 38.4655 42.0238 38.3244C42.0754 38.1833 42.1502 38.0751 42.2483 37.9998C42.3563 37.9109 42.4875 37.8549 42.6419 37.8318C42.8319 37.8035 42.996 37.8456 43.1343 37.9584C43.2827 38.0574 43.3965 38.2102 43.4761 38.4167C43.5537 38.6112 43.5815 38.8375 43.5595 39.0954C43.5236 39.8285 43.5358 40.5179 43.5961 41.1638C43.6665 41.796 43.747 42.4146 43.8376 43.0196C43.94 43.6228 44.0247 44.2286 44.0916 44.8371C44.1584 45.4457 44.1745 46.08 44.1398 46.7401C44.12 47.3373 44.0684 47.8847 43.9851 48.3822C43.9018 48.8798 43.79 49.3089 43.6498 49.6694C43.5214 50.0281 43.3637 50.3125 43.1766 50.5223C43.0013 50.7304 42.7891 50.8531 42.5397 50.8904ZM55.5558 44.3608C54.7721 44.4779 54.1396 44.4694 53.6582 44.3352C53.1767 44.201 52.8077 43.9651 52.5507 43.6275C52.3056 43.2882 52.1407 42.8762 52.0561 42.3916C51.9814 41.8934 51.9608 41.3507 51.9944 40.7636C52.0243 40.1527 52.0931 39.5179 52.2008 38.859C52.3186 38.1866 52.4694 37.4909 52.6531 36.7722C52.7708 36.3423 52.8849 36.0098 52.9954 35.775C53.1059 35.5403 53.2503 35.4095 53.4284 35.3829C53.6777 35.3457 53.8929 35.4044 54.0739 35.5593C54.2531 35.7023 54.3293 35.9274 54.3025 36.2346C54.2935 36.4178 54.2352 36.7177 54.1276 37.1339C54.0319 37.5485 53.9274 38.0673 53.8144 38.6906C53.7014 39.3139 53.6222 40.0413 53.5767 40.8728C53.5396 41.6788 53.6724 42.241 53.9749 42.5597C54.2895 42.8764 54.8505 42.9745 55.6579 42.8538C55.9903 42.8041 56.4287 42.7326 56.9732 42.639C57.5159 42.5337 58.1 42.4221 58.7258 42.3044C59.3516 42.1865 59.9655 42.0706 60.5675 41.9563C61.1796 41.8285 61.7144 41.7122 62.1722 41.6073C62.6401 41.4889 62.9781 41.3959 63.1865 41.3284C63.3374 41.2816 63.4668 41.2138 63.5749 41.1248C63.6812 41.0241 63.7439 40.8752 63.7629 40.6784C63.8125 39.9554 63.8012 39.2718 63.729 38.6278C63.667 37.97 63.5713 37.3719 63.4421 36.8333C63.3248 36.293 63.2089 35.8434 63.0945 35.4845C62.9901 35.1121 62.9323 34.8478 62.9211 34.6918C62.9046 34.5003 62.9646 34.3336 63.1012 34.1919C63.236 34.0384 63.3865 33.9491 63.5527 33.9243C63.8259 33.8835 64.0437 33.9601 64.2062 34.1541C64.3789 34.3344 64.53 34.5726 64.6593 34.8686C64.7524 35.0852 64.8437 35.411 64.9332 35.8464C65.0327 36.2681 65.1225 36.7459 65.2024 37.2797C65.2942 37.8117 65.3563 38.3482 65.3888 38.889C65.4313 39.4163 65.443 39.8996 65.4238 40.3391C65.3844 41.0485 65.2233 41.594 64.9406 41.9758C64.668 42.3441 64.2071 42.6312 63.5582 42.8373C63.3261 42.9084 62.9633 42.999 62.4699 43.1091C61.9748 43.2074 61.4084 43.3163 60.7708 43.4358C60.1349 43.5673 59.4854 43.6886 58.8223 43.7998C58.1609 43.9229 57.5402 44.0339 56.9602 44.1327C56.392 44.2297 55.9239 44.3058 55.5558 44.3608ZM58.5856 43.435C58.4549 43.4545 58.3173 43.4266 58.1724 43.3512C58.0258 43.264 57.9273 43.1332 57.8769 42.9588C57.7969 42.6676 57.7409 42.2939 57.7091 41.8378C57.6872 41.3681 57.6755 40.8848 57.6739 40.3877C57.6824 39.8771 57.6982 39.4139 57.7209 38.9982C57.7568 38.2651 57.8229 37.6125 57.9193 37.0402C58.0157 36.4679 58.1014 36.0671 58.1762 35.8375C58.2226 35.6608 58.292 35.5171 58.3848 35.4062C58.4756 35.2835 58.6101 35.2088 58.7882 35.1821C58.9426 35.159 59.0803 35.187 59.2014 35.2659C59.3225 35.3449 59.4183 35.4579 59.4888 35.605C59.5595 35.7521 59.592 35.9292 59.5866 36.1362C59.5842 36.282 59.555 36.4926 59.4991 36.7678C59.4533 37.0292 59.4027 37.34 59.3474 37.7C59.3038 38.0581 59.2716 38.451 59.2507 38.8786C59.2292 39.2215 59.2208 39.6108 59.2253 40.0467C59.2418 40.4809 59.265 40.92 59.2951 41.3642C59.3234 41.7966 59.3584 42.1916 59.3998 42.5493C59.4146 42.729 59.3215 42.9187 59.1209 43.1185C58.9184 43.3064 58.7399 43.4119 58.5856 43.435ZM71.5486 41.9887C70.5631 42.1361 69.7706 42.0726 69.1711 41.7983C68.5699 41.5123 68.1399 41.0732 67.8813 40.4813C67.6209 39.8774 67.5093 39.1725 67.5464 38.3665C67.59 37.7657 67.7286 37.1508 67.9621 36.5216C68.2058 35.8788 68.5346 35.2779 68.9486 34.7188C69.3745 34.1578 69.8688 33.6898 70.4318 33.3146C71.0048 32.9257 71.6297 32.6807 72.3065 32.5796C73.2446 32.4395 73.9669 32.5619 74.4738 32.947C74.9925 33.3303 75.2285 33.9742 75.1818 34.8786C75.1608 35.5488 74.9525 36.1439 74.5569 36.6638C74.1596 37.172 73.6344 37.5961 72.9811 37.9362C72.3399 38.2746 71.6275 38.5024 70.8438 38.6196C70.0364 38.7402 69.4819 38.726 69.1804 38.5771C68.8907 38.4263 68.7519 38.2288 68.7639 37.9844C68.7663 37.8385 68.8046 37.7297 68.8788 37.6579C68.9513 37.5744 69.0766 37.5193 69.2547 37.4926C69.3853 37.4731 69.5433 37.4738 69.7284 37.4946C69.9237 37.5018 70.2055 37.4779 70.5736 37.4228C71.1673 37.3342 71.6891 37.1713 72.1392 36.9342C72.6012 36.6954 72.9651 36.4105 73.2313 36.0797C73.4956 35.7371 73.6409 35.3696 73.6671 34.9776C73.6851 34.6111 73.5976 34.3513 73.4048 34.1982C73.2238 34.0434 72.9017 34.0006 72.4386 34.0698C71.9756 34.1389 71.5462 34.3123 71.1507 34.5897C70.7654 34.8535 70.4153 35.1908 70.1005 35.6016C69.7976 36.0107 69.5561 36.4653 69.376 36.9652C69.196 37.465 69.0966 37.9772 69.078 38.5014C69.0588 38.9409 69.1115 39.3332 69.236 39.6784C69.3588 40.0118 69.5796 40.2699 69.8982 40.4527C70.2271 40.6218 70.6646 40.6656 71.2108 40.5839C71.8282 40.4917 72.345 40.3355 72.7612 40.1157C73.1877 39.8821 73.5391 39.6356 73.8159 39.376C74.0927 39.1163 74.3263 38.8934 74.517 38.7072C74.7076 38.5211 74.8861 38.4156 75.0523 38.3908C75.2542 38.3606 75.4081 38.4164 75.5144 38.5582C75.6306 38.6863 75.6829 38.8725 75.6709 39.1169C75.6589 39.3612 75.5359 39.6343 75.3019 39.9361C75.078 40.2243 74.7691 40.5129 74.3754 40.8022C73.9936 41.0897 73.5581 41.3427 73.0688 41.5614C72.5897 41.7664 72.0829 41.9089 71.5486 41.9887ZM78.9508 40.9007C78.6658 40.9432 78.4275 40.8515 78.2358 40.6255C78.0441 40.3994 77.8977 40.0697 77.7963 39.6361C77.7051 39.1889 77.6735 38.6538 77.7017 38.0311C77.75 37.3812 77.8392 36.8827 77.9694 36.5359C78.1096 36.1752 78.2896 35.918 78.5093 35.7638C78.6292 35.6732 78.8071 35.6041 79.0428 35.5568C79.2767 35.4976 79.5243 35.4484 79.7855 35.4094C80.6523 35.2799 81.5009 35.1106 82.3315 34.9016C83.1722 34.6789 83.9827 34.3758 84.7629 33.9924L85.2674 35.1722C84.6855 35.5018 84.0472 35.779 83.3525 36.0041C82.6579 36.2292 81.946 36.4205 81.2169 36.5781C80.4979 36.7219 79.7941 36.8452 79.1054 36.9482L78.0484 36.9424C78.0981 36.2194 78.1482 35.4601 78.1989 34.6642C78.2497 33.8683 78.2891 33.159 78.3174 32.5363C78.3222 32.2445 78.3825 31.999 78.4984 31.7998C78.6142 31.6005 78.7612 31.4876 78.9393 31.4609C79.2361 31.4166 79.4735 31.5024 79.6516 31.7183C79.8278 31.9224 79.8998 32.2815 79.8675 32.7958C79.8591 33.0639 79.835 33.3888 79.795 33.7707C79.7551 34.1526 79.7119 34.5532 79.6654 34.9725C79.6308 35.39 79.5936 35.7897 79.5537 36.1716C79.5239 36.54 79.5029 36.8463 79.4909 37.0906C79.4515 37.8 79.437 38.4328 79.4475 38.9891C79.468 39.5317 79.475 39.943 79.4684 40.223C79.4576 40.3943 79.4009 40.5423 79.2981 40.6668C79.209 40.8014 79.0932 40.8794 78.9508 40.9007ZM85.0954 39.9823C84.7985 40.0267 84.5591 39.8865 84.3769 39.5621C84.2068 39.2359 84.0831 38.7753 84.0061 38.1804C83.9393 37.5719 83.923 36.8952 83.9571 36.1503C84.0241 34.976 84.0968 34.0435 84.1754 33.3525C84.2642 32.648 84.3564 32.0884 84.4522 31.6739C84.5081 31.3988 84.5921 31.1497 84.7045 30.9268C84.8168 30.7038 84.9738 30.5773 85.1757 30.5471C85.4369 30.508 85.6396 30.6051 85.7837 30.8382C85.938 31.0577 86.0053 31.3448 85.9855 31.6994C85.9664 32.1389 85.9051 32.6211 85.8015 33.1459C85.7099 33.669 85.6543 34.2291 85.6344 34.8263C85.5985 35.5593 85.5943 36.2209 85.622 36.811C85.6598 37.3875 85.7021 37.8723 85.7488 38.2655C85.7955 38.6588 85.8094 38.9539 85.7903 39.1508C85.7867 39.3696 85.7175 39.5558 85.5826 39.7093C85.4478 39.8629 85.2854 39.9539 85.0954 39.9823ZM90.312 39.2026C89.9082 39.263 89.5735 39.216 89.3076 39.0616C89.0535 38.9056 88.85 38.6813 88.697 38.3889C88.5422 38.0846 88.4372 37.7486 88.3821 37.3809C88.3372 36.9994 88.3237 36.6255 88.3416 36.259C88.3667 35.94 88.4066 35.558 88.4613 35.1133C88.5281 34.6667 88.6039 34.2006 88.689 33.7148C88.7741 33.2292 88.8576 32.774 88.9398 32.3494C89.0337 31.923 89.1114 31.5901 89.1726 31.3505C89.2647 30.9122 89.3534 30.5716 89.4383 30.3284C89.5352 30.0835 89.6726 29.9478 89.8508 29.9211C90.0051 29.8981 90.1556 29.9302 90.3022 30.0173C90.4488 30.1046 90.5643 30.2268 90.6484 30.3841C90.7446 30.5395 90.7899 30.7207 90.7845 30.9276C90.7773 31.1228 90.7351 31.4081 90.6577 31.7834C90.5804 32.1588 90.4914 32.5784 90.391 33.0421C90.2904 33.5058 90.1968 33.9746 90.1099 34.4485C90.0213 34.9105 89.968 35.3247 89.9501 35.6912C89.9268 36.0221 89.9255 36.3377 89.9461 36.6377C89.965 36.926 90.0124 37.1615 90.0883 37.3442C90.1625 37.515 90.2767 37.5889 90.4311 37.5658C90.811 37.509 91.2413 37.0991 91.7218 36.336C92.2143 35.571 92.7338 34.5414 93.2805 33.247C93.5348 32.6753 93.7528 32.1455 93.9347 31.6574C94.1166 31.1694 94.2776 30.7452 94.4179 30.3847C94.5563 30.0122 94.7004 29.7178 94.8501 29.5014C94.9997 29.285 95.1636 29.1635 95.3418 29.1369C95.6148 29.096 95.8268 29.1735 95.9775 29.3693C96.1383 29.5515 96.2386 29.8153 96.2782 30.1612C96.3243 30.4695 96.3693 30.8509 96.413 31.3052C96.4687 31.7578 96.5261 32.2222 96.5853 32.6984C96.6427 33.1628 96.7075 33.5958 96.7798 33.9973C96.9185 34.6801 97.0682 35.2337 97.2288 35.6584C97.3996 36.0695 97.5464 36.3993 97.6685 36.6478C97.7905 36.8964 97.8586 37.1046 97.8716 37.2724C97.8786 37.4047 97.8556 37.5355 97.8025 37.6647C97.7475 37.7822 97.6715 37.8844 97.5754 37.9716C97.4791 38.0587 97.3656 38.112 97.235 38.1315C96.9619 38.1724 96.7177 38.0815 96.5023 37.859C96.2987 37.6347 96.1157 37.3044 95.9532 36.8678C95.7907 36.4312 95.6345 35.9149 95.4845 35.3188C95.3968 34.8953 95.3047 34.4422 95.2082 33.9594C95.1234 33.4748 95.0506 32.9885 94.9896 32.5003C94.9405 32.0105 94.8968 31.5561 94.8584 31.1374L95.4015 31.2381C95.2999 31.5323 95.189 31.846 95.069 32.1792C94.9608 32.5107 94.8233 32.889 94.6563 33.3142C94.4994 33.7257 94.2997 34.2164 94.0573 34.7862C93.7495 35.4872 93.4017 36.1638 93.0138 36.8159C92.6241 37.4563 92.2015 37.9986 91.7459 38.4426C91.3005 38.8729 90.8226 39.1263 90.312 39.2026ZM103.395 37.229C102.41 37.3763 101.617 37.3128 101.018 37.0386C100.417 36.7525 99.9866 36.3135 99.7285 35.7215C99.4683 35.1177 99.3563 34.4127 99.3933 33.6067C99.4373 33.006 99.5754 32.391 99.8095 31.7618C100.053 31.119 100.382 30.5181 100.796 29.959C101.221 29.3981 101.715 28.9301 102.279 28.5548C102.852 28.166 103.476 27.9211 104.154 27.8199C105.091 27.6797 105.813 27.8021 106.321 28.1872C106.839 28.5705 107.075 29.2144 107.029 30.1189C107.008 30.7891 106.8 31.3841 106.404 31.904C106.007 32.4122 105.481 32.8364 104.828 33.1765C104.187 33.5148 103.474 33.7426 102.691 33.8598C101.884 33.9804 101.329 33.9663 101.027 33.8173C100.738 33.6666 100.599 33.4691 100.611 33.2247C100.613 33.0788 100.652 32.97 100.726 32.8982C100.798 32.8147 100.923 32.7595 101.101 32.7329C101.232 32.7134 101.39 32.714 101.575 32.7349C101.77 32.742 102.053 32.7181 102.421 32.6632C103.014 32.5744 103.536 32.4115 103.987 32.1745C104.448 31.9356 104.812 31.6508 105.078 31.32C105.342 30.9773 105.487 30.61 105.514 30.2179C105.532 29.8514 105.444 29.5916 105.251 29.4385C105.071 29.2837 104.749 29.2408 104.286 29.31C103.68 29.4005 103.131 29.6645 102.638 30.102C102.145 30.5395 101.74 31.0791 101.423 31.7206C101.119 32.3605 100.952 33.0342 100.925 33.7416C100.906 34.1811 100.958 34.5734 101.083 34.9187C101.206 35.252 101.426 35.5101 101.745 35.6929C102.074 35.862 102.512 35.9058 103.058 35.8242C103.675 35.7319 104.192 35.5758 104.608 35.3559C105.034 35.1225 105.386 34.8759 105.662 34.6162C105.94 34.3565 106.174 34.1336 106.364 33.9475C106.555 33.7613 106.733 33.6559 106.899 33.631C107.101 33.6008 107.255 33.6567 107.361 33.7984C107.477 33.9265 107.529 34.1128 107.518 34.3571C107.506 34.6015 107.383 34.8746 107.149 35.1763C106.925 35.4645 106.616 35.7532 106.223 36.0425C105.84 36.33 105.405 36.583 104.916 36.8016C104.437 37.0067 103.93 37.1492 103.395 37.229ZM9.14534 67.5219C8.17166 67.6675 7.3382 67.5737 6.64494 67.2408C5.96356 66.906 5.44994 66.3946 5.10411 65.7064C4.76838 65.0048 4.6194 64.172 4.65717 63.2082C4.68831 62.5245 4.82687 61.9095 5.07286 61.3633C5.32893 60.8036 5.63307 60.3215 5.98527 59.9172C6.34933 59.5111 6.72673 59.194 7.11744 58.9658C7.50633 58.7257 7.8493 58.5835 8.14615 58.5392C8.27671 58.5196 8.38626 58.5215 8.47471 58.5446C8.57506 58.566 8.6551 58.6147 8.71502 58.6906C8.78506 58.7529 8.81798 58.8511 8.81377 58.9851C8.78996 59.2313 8.72783 59.4648 8.62738 59.686C8.52523 59.8953 8.30752 60.1037 7.97446 60.3112C7.57717 60.5767 7.2488 60.8563 6.98925 61.1497C6.73981 61.4296 6.55001 61.7429 6.41987 62.0898C6.28794 62.4248 6.21923 62.8171 6.21371 63.2667C6.16762 64.2559 6.39588 65.0101 6.8985 65.5292C7.39935 66.0366 8.07721 66.2263 8.93213 66.0985C9.76334 65.9743 10.4432 65.5695 10.9718 64.8841C11.5105 64.1851 11.8002 63.3232 11.8411 62.2983C11.8942 61.3565 11.7283 60.6537 11.3432 60.1897C10.9563 59.7139 10.4067 59.5293 9.69421 59.6358C9.32613 59.6907 9.02218 59.809 8.78226 59.9904C8.55425 60.17 8.30953 60.4006 8.0482 60.6822C7.86111 60.8921 7.71293 61.078 7.60368 61.2398C7.49433 61.4017 7.39249 61.5322 7.29806 61.6311C7.21373 61.7165 7.09438 61.7707 6.94002 61.7938C6.77379 61.8186 6.63519 61.7847 6.52421 61.6922C6.42333 61.586 6.37799 61.4048 6.38817 61.1486C6.39482 60.8687 6.48962 60.5695 6.67259 60.2511C6.86743 59.9309 7.11332 59.6274 7.41026 59.3404C7.71734 59.0399 8.0561 58.7891 8.42658 58.5882C8.79536 58.3754 9.16965 58.2406 9.54963 58.1839C10.4046 58.0561 11.1294 58.1539 11.7241 58.4774C12.317 58.789 12.7609 59.2805 13.0557 59.952C13.3487 60.6116 13.4677 61.4064 13.4127 62.3363C13.3797 63.2508 13.1763 64.0816 12.8026 64.8287C12.4271 65.564 11.9226 66.167 11.289 66.6377C10.6673 67.1065 9.95273 67.4013 9.14534 67.5219ZM19.6241 65.9376C18.9948 66.0317 18.4444 66.0048 17.9732 65.8569C17.5 65.6972 17.1035 65.4411 16.7838 65.0887C16.4621 64.7245 16.207 64.2775 16.0184 63.7478C15.8299 63.2181 15.7046 62.6244 15.6425 61.9666C15.5786 61.2971 15.5638 60.5898 15.5979 59.8449C15.6297 59.0034 15.7452 58.2341 15.9443 57.5374C16.1417 56.8287 16.388 56.2037 16.6832 55.6624C16.9886 55.1074 17.325 54.6387 17.6927 54.2563C18.0603 53.8739 18.4404 53.5745 18.8329 53.3582C19.1814 53.1727 19.5403 53.016 19.9096 52.888C20.2772 52.7482 20.6346 52.6221 20.9819 52.5095C21.3292 52.397 21.6469 52.2888 21.9348 52.1852C22.4413 52.0003 22.8688 51.8152 23.2173 51.6297C23.5659 51.4441 23.8351 51.3372 24.0251 51.3088C24.1676 51.2875 24.3036 51.3036 24.4329 51.357C24.5742 51.4087 24.6844 51.4953 24.7632 51.6169C24.8403 51.7266 24.8736 51.8672 24.8628 52.0387C24.8573 52.2456 24.7585 52.4363 24.566 52.6105C24.3719 52.7729 24.1207 52.9196 23.8125 53.0506C23.198 53.3243 22.6289 53.5367 22.1052 53.6878C21.5916 53.8252 21.1197 53.9563 20.6892 54.0814C20.257 54.1944 19.8464 54.371 19.4575 54.611C19.0769 54.8256 18.7208 55.1638 18.3894 55.6257C18.068 56.0739 17.7975 56.6176 17.5776 57.2569C17.3678 57.8825 17.2466 58.5737 17.2143 59.3304C17.1551 60.637 17.1968 61.6859 17.3396 62.4771C17.4924 63.2546 17.7567 63.8033 18.1323 64.1232C18.5198 64.4411 19.0105 64.5559 19.6042 64.4671C20.0079 64.4067 20.4024 64.2447 20.7877 63.981C21.1713 63.7053 21.5155 63.3689 21.8203 62.9716C22.1368 62.5726 22.3895 62.1529 22.5785 61.7123C22.7775 61.258 22.8834 60.8299 22.8961 60.4278C22.9271 59.9865 22.867 59.6257 22.7157 59.345C22.5745 59.0509 22.3499 58.848 22.0419 58.7363C21.732 58.6128 21.3396 58.5866 20.8647 58.6575C20.2354 58.7516 19.5555 59.0352 18.8251 59.5081C18.1066 59.9793 17.4097 60.6353 16.7344 61.476L16.0632 60.8851C16.4488 60.1361 16.9183 59.502 17.4718 58.9827C18.0235 58.4515 18.6167 58.0354 19.2515 57.7344C19.8844 57.4215 20.4977 57.2206 21.0914 57.132C21.8158 57.0237 22.4418 57.0696 22.9694 57.2697C23.4953 57.4579 23.8965 57.786 24.1729 58.254C24.4494 58.7221 24.5596 59.3363 24.5035 60.0965C24.4653 60.7329 24.3124 61.3742 24.045 62.0206C23.7877 62.6533 23.4402 63.251 23.0024 63.8136C22.5629 64.3645 22.0567 64.8342 21.4837 65.2232C20.9088 65.6001 20.289 65.8383 19.6241 65.9376ZM30.2315 68.9002C29.5071 69.0084 28.885 69.0286 28.365 68.9608C27.8467 68.9049 27.457 68.7751 27.1959 68.5716C26.9348 68.3681 26.8135 68.1255 26.832 67.8438C26.8529 67.4162 27.0771 67.1704 27.5045 67.1065C27.6471 67.0853 27.7821 67.0954 27.9097 67.1369C28.0374 67.1785 28.1837 67.2234 28.3487 67.2715C28.5155 67.3314 28.7398 67.3706 29.0219 67.3891C29.3157 67.4059 29.6942 67.3796 30.1572 67.3104C30.7272 67.2252 31.1834 67.0297 31.5261 66.7238C31.8688 66.4179 32.1192 66.0227 32.2773 65.5382C32.4473 65.0519 32.5472 64.5034 32.5771 63.8926C32.5968 63.5379 32.5937 63.1927 32.5677 62.857C32.5536 62.5196 32.5359 62.1584 32.5147 61.7735C32.4935 61.3886 32.4753 60.9425 32.4601 60.4355C32.4431 59.9165 32.4483 59.3033 32.4759 58.5958L33.1053 59.0293C32.8479 59.9045 32.5683 60.6316 32.2665 61.2103C31.9629 61.7771 31.6544 62.2295 31.3407 62.5674C31.0254 62.8935 30.7154 63.1339 30.4109 63.2886C30.1163 63.4296 29.8444 63.5188 29.5951 63.5561C28.5621 63.7104 27.7797 63.3907 27.2481 62.597C26.7148 61.7914 26.4959 60.4112 26.5917 58.4565C26.627 57.6386 26.6916 57.0165 26.7856 56.5901C26.8914 56.1621 27.0228 55.8635 27.1796 55.6945C27.3364 55.5256 27.5097 55.4268 27.6997 55.3984C27.9847 55.3558 28.1838 55.4292 28.2971 55.6184C28.4105 55.8076 28.4349 56.1738 28.3706 56.7171C28.2925 57.4928 28.2489 58.2149 28.2398 58.8832C28.2288 59.5398 28.2657 60.1103 28.3504 60.5949C28.4351 61.0795 28.5692 61.4476 28.7525 61.6991C28.934 61.9387 29.1851 62.0346 29.5057 61.9867C30.0044 61.9122 30.453 61.5844 30.8516 61.0033C31.2484 60.4104 31.5888 59.644 31.873 58.7041C32.1672 57.7505 32.4039 56.6964 32.583 55.5418C32.6402 55.1937 32.7142 54.9582 32.805 54.8355C32.8942 54.701 33.0515 54.6168 33.2771 54.583C33.4434 54.5582 33.5997 54.5894 33.7463 54.6767C33.9048 54.7621 34.0163 54.9394 34.081 55.2087C34.1557 55.4644 34.1555 55.8282 34.0806 56.3003C33.993 56.9319 33.9373 57.492 33.9134 57.9808C33.9013 58.4676 33.9103 58.9332 33.9404 59.3774C33.9687 59.8098 34.0048 60.2532 34.0485 60.7075C34.1024 61.1481 34.1396 61.6398 34.1602 62.1824C34.1789 62.7133 34.1745 63.3325 34.147 64.0399C34.0931 65.1395 33.8859 66.0255 33.5253 66.6978C33.1783 67.3804 32.7207 67.8915 32.1524 68.231C31.5842 68.5706 30.9438 68.7937 30.2315 68.9002ZM38.6217 60.1695C38.1705 60.2369 37.7814 60.192 37.4543 60.0347C37.1274 59.8774 36.8659 59.6315 36.6701 59.2969C36.4862 58.9606 36.3733 58.5712 36.3313 58.1287C36.2756 57.6762 36.2785 57.2088 36.3399 56.7267C36.4012 56.2445 36.5035 55.7926 36.6467 55.371C36.8018 54.9476 36.9854 54.5927 37.1975 54.3064C37.4095 54.02 37.6402 53.8582 37.8895 53.8209C38.0083 53.8032 38.1127 53.8118 38.203 53.8469C38.305 53.8801 38.387 53.9406 38.4487 54.0284C38.5086 54.1044 38.5425 54.2085 38.5501 54.3407C38.5542 54.4493 38.5196 54.6242 38.4466 54.8656C38.3836 55.0933 38.303 55.366 38.205 55.6839C38.105 55.9898 38.0266 56.317 37.9695 56.665C37.9105 57.0012 37.9 57.3364 37.938 57.6703C37.9699 57.8838 38.0152 58.065 38.0739 58.2139C38.1309 58.3509 38.2122 58.4479 38.3178 58.5049C38.4353 58.5601 38.5773 58.5753 38.7435 58.5504C39.1234 58.4936 39.501 58.3402 39.8763 58.09C40.2516 57.8399 40.5985 57.5213 40.9168 57.1341C41.247 56.7452 41.5312 56.3329 41.7694 55.897C42.0059 55.4493 42.177 55.0114 42.2829 54.5832L42.6998 56.3946C42.373 57.0499 41.9959 57.652 41.5682 58.2011C41.1524 58.7483 40.691 59.1932 40.1839 59.5358C39.6886 59.8767 39.168 60.0878 38.6217 60.1695ZM42.8497 62.5028C42.5884 62.5419 42.3893 62.4685 42.2523 62.2828C42.1134 62.0853 41.9981 61.8418 41.9062 61.5523C41.8487 61.3304 41.8001 61.0467 41.7604 60.701C41.7309 60.3415 41.7156 59.9557 41.7146 59.5435C41.7136 59.1313 41.7271 58.7351 41.7551 58.355C41.7736 58.0733 41.8047 57.7534 41.8481 57.3952C41.8898 57.025 41.9374 56.6541 41.9911 56.2823C42.0446 55.9105 42.1017 55.5623 42.1624 55.238C42.2213 54.9017 42.2663 54.6343 42.2972 54.4356C42.359 54.0383 42.4453 53.7221 42.5558 53.4874C42.6782 53.2508 42.8463 53.1165 43.06 53.0845C43.2618 53.0544 43.4527 53.1532 43.6325 53.381C43.8122 53.6088 43.889 53.9187 43.8627 54.3108C43.8543 54.5788 43.8066 54.9497 43.7198 55.4236C43.6312 55.8856 43.5452 56.3654 43.4619 56.8629C43.3886 57.3468 43.3422 57.7661 43.3225 58.1207C43.2872 58.696 43.277 59.1948 43.2916 59.6171C43.3063 60.0394 43.3376 60.4106 43.3855 60.7309C43.4092 60.9699 43.4386 61.1656 43.4735 61.3181C43.5085 61.4705 43.523 61.6078 43.517 61.73C43.5062 61.9014 43.4453 62.0621 43.3342 62.2121C43.2369 62.3721 43.0753 62.4691 42.8497 62.5028ZM49.9318 61.3897C49.1957 61.4998 48.5632 61.4912 48.0343 61.3641C47.5155 61.2233 47.098 60.9886 46.7816 60.66C46.4635 60.3193 46.2316 59.9053 46.0858 59.4178C45.9518 58.9284 45.8998 58.3783 45.9297 57.7675C45.9733 57.1667 46.1118 56.5518 46.3454 55.9226C46.589 55.2798 46.9179 54.6788 47.3319 54.1197C47.7577 53.5588 48.2521 53.0907 48.815 52.7156C49.3881 52.3267 50.013 52.0817 50.6898 51.9806C51.3191 51.8865 51.8507 51.9102 52.2846 52.0516C52.7304 52.1911 53.0598 52.4451 53.2727 52.8134C53.4976 53.18 53.595 53.6688 53.5651 54.2796C53.5429 54.7801 53.4118 55.2424 53.1718 55.6664C52.942 56.0767 52.6269 56.4451 52.2267 56.7718C51.8365 57.0848 51.385 57.3524 50.8719 57.5746C50.3691 57.7832 49.8207 57.9318 49.227 58.0206C48.4196 58.1412 47.8651 58.127 47.5636 57.9781C47.2739 57.8272 47.1352 57.6297 47.1471 57.3854C47.1496 57.2395 47.1879 57.1307 47.2621 57.0589C47.3346 56.9754 47.4598 56.9203 47.6379 56.8936C47.7686 56.8741 47.9265 56.8748 48.1117 56.8956C48.307 56.9028 48.5887 56.8789 48.9568 56.8238C49.5505 56.7352 50.0724 56.5723 50.5224 56.3352C50.9844 56.0964 51.3484 55.8115 51.6145 55.4807C51.8788 55.1381 52.0241 54.7706 52.0504 54.3786C52.0683 54.0121 51.9809 53.7523 51.788 53.5992C51.607 53.4444 51.2849 53.4016 50.8219 53.4708C50.3588 53.5399 49.9295 53.7132 49.534 53.9907C49.1487 54.2545 48.7986 54.5918 48.4837 55.0026C48.1809 55.4117 47.9394 55.8663 47.7593 56.3662C47.5792 56.866 47.4798 57.3782 47.4612 57.9024C47.4421 58.3419 47.4948 58.7342 47.6193 59.0794C47.7421 59.4128 47.9628 59.6709 48.2815 59.8537C48.6103 60.0228 49.0478 60.0666 49.5941 59.9849C50.2115 59.8926 50.7283 59.7365 51.1445 59.5167C51.5708 59.2831 51.9224 59.0366 52.1992 58.777C52.4759 58.5173 52.7096 58.2944 52.9002 58.1082C53.0909 57.9221 53.2693 57.8166 53.4356 57.7918C53.6374 57.7616 53.7914 57.8174 53.8976 57.9592C54.0139 58.0873 54.0661 58.2735 54.0542 58.5179C54.0422 58.7622 53.9192 59.0353 53.6852 59.3371C53.4613 59.6253 53.1524 59.9139 52.7587 60.2032C52.3768 60.4907 51.9413 60.7437 51.4521 60.9624C50.973 61.1674 50.4662 61.3099 49.9318 61.3897ZM57.334 60.3016C56.9066 60.3655 56.5807 60.1352 56.3565 59.6109C56.1324 59.0865 56.0418 58.3603 56.0849 57.4321C56.1333 56.7822 56.2225 56.2837 56.3526 55.9368C56.4929 55.5762 56.6729 55.319 56.8926 55.1648C57.0125 55.0742 57.1903 55.0051 57.426 54.9577C57.6599 54.8986 57.9076 54.8494 58.1688 54.8104C59.0355 54.6809 59.8842 54.5116 60.7148 54.3026C61.5555 54.0799 62.3659 53.7768 63.1462 53.3934L63.6507 54.5732C63.0687 54.9028 62.4305 55.18 61.7357 55.4051C61.0411 55.6302 60.3292 55.8215 59.6002 55.979C58.8812 56.1229 58.1774 56.2462 57.4888 56.3492L56.4317 56.3434C56.4813 55.6204 56.5315 54.8611 56.5822 54.0652C56.6329 53.2693 56.6724 52.56 56.7006 51.9373C56.7055 51.6454 56.7658 51.4 56.8817 51.2008C56.9975 51.0015 57.1445 50.8886 57.3226 50.8619C57.6194 50.8175 57.8568 50.9034 58.0348 51.1193C58.2111 51.3234 58.283 51.6825 58.2508 52.1968C58.2424 52.4648 58.2182 52.7898 58.1783 53.1717C58.1384 53.5536 58.0951 53.9542 58.0487 54.3735C58.0141 54.791 57.9769 55.1907 57.937 55.5726C57.9071 55.941 57.8862 56.2473 57.8742 56.4916C57.8348 57.201 57.8203 57.8337 57.8307 58.3901C57.8513 58.9327 57.8583 59.344 57.8516 59.624C57.8409 59.7953 57.7841 59.9433 57.6813 60.0678C57.5923 60.2024 57.4765 60.2804 57.334 60.3016ZM63.4787 59.3833C63.1818 59.4277 62.9423 59.2875 62.7602 58.9631C62.59 58.6369 62.4664 58.1763 62.3895 57.5814C62.3226 56.9729 62.3062 56.2962 62.3403 55.5513C62.4073 54.377 62.4801 53.4445 62.5587 52.7535C62.6475 52.049 62.7397 51.4894 62.8355 51.0749C62.8913 50.7998 62.9754 50.5507 63.0877 50.3278C63.2001 50.1048 63.3571 49.9783 63.5589 49.9481C63.8202 49.909 64.0229 50.006 64.167 50.2392C64.3213 50.4587 64.3885 50.7458 64.3688 51.1004C64.3496 51.5399 64.2883 52.0221 64.1848 52.5469C64.0932 53.07 64.0375 53.6301 64.0177 54.2273C63.9817 54.9603 63.9776 55.6219 64.0053 56.212C64.0431 56.7885 64.0853 57.2733 64.1321 57.6665C64.1788 58.0598 64.1926 58.3549 64.1736 58.5518C64.1699 58.7706 64.1007 58.9568 63.9659 59.1103C63.8311 59.2639 63.6687 59.3549 63.4787 59.3833ZM68.6952 58.6036C68.2915 58.6639 67.9568 58.617 67.6908 58.4626C67.4368 58.3066 67.2333 58.0823 67.0803 57.7899C66.9254 57.4856 66.8204 57.1496 66.7654 56.7819C66.7204 56.4004 66.7069 56.0265 66.7249 55.66C66.7499 55.341 66.7898 54.959 66.8446 54.5143C66.9113 54.0677 66.9872 53.6016 67.0723 53.1158C67.1573 52.6302 67.2409 52.175 67.323 51.7504C67.417 51.324 67.4946 50.9911 67.5558 50.7515C67.648 50.3132 67.7366 49.9726 67.8216 49.7294C67.9185 49.4845 68.0559 49.3488 68.234 49.3221C68.3884 49.2991 68.5389 49.3312 68.6854 49.4183C68.832 49.5056 68.9475 49.6278 69.0317 49.785C69.1279 49.9405 69.1732 50.1217 69.1678 50.3286C69.1606 50.5238 69.1183 50.8089 69.041 51.1844C68.9637 51.5598 68.8747 51.9794 68.7742 52.4431C68.6737 52.9068 68.58 53.3756 68.4931 53.8495C68.4045 54.3115 68.3513 54.7257 68.3333 55.0922C68.3101 55.4231 68.3087 55.7387 68.3294 56.0387C68.3483 56.327 68.3957 56.5625 68.4715 56.7452C68.5457 56.916 68.6599 56.9899 68.8143 56.9668C69.1943 56.91 69.6245 56.5001 70.1051 55.737C70.5976 54.972 71.1171 53.9424 71.6637 52.648C71.918 52.0763 72.1361 51.5465 72.318 51.0584C72.4998 50.5704 72.6609 50.1462 72.8012 49.7856C72.9396 49.4132 73.0837 49.1188 73.2334 48.9024C73.383 48.686 73.5469 48.5644 73.725 48.5379C73.9981 48.497 74.2101 48.5745 74.3607 48.7702C74.5215 48.9525 74.6217 49.2163 74.6614 49.5622C74.7076 49.8705 74.7526 50.2519 74.7963 50.7062C74.852 51.1588 74.9094 51.6232 74.9685 52.0994C75.0259 52.5638 75.0908 52.9968 75.163 53.3983C75.3017 54.0811 75.4514 54.6347 75.6121 55.0594C75.7829 55.4705 75.9294 55.8003 76.0516 56.0488C76.1738 56.2974 76.2413 56.5056 76.2544 56.6734C76.2621 56.8056 76.2391 56.9365 76.1857 57.0657C76.1304 57.1832 76.0547 57.2854 75.9585 57.3726C75.8623 57.4597 75.7489 57.513 75.6182 57.5325C75.2026 57.5947 74.865 57.3662 74.6051 56.8471C74.3453 56.3281 74.0995 55.619 73.8678 54.7198C73.78 54.2963 73.6879 53.8432 73.5913 53.3603C73.5067 52.8757 73.4339 52.3895 73.3728 51.9013C73.3238 51.4115 73.28 50.9571 73.2416 50.5384L73.7847 50.6391C73.6451 51.0844 73.476 51.5767 73.2775 52.1157C73.079 52.6547 72.8001 53.3452 72.4406 54.1872C72.1327 54.8882 71.7849 55.5647 71.397 56.2169C71.0073 56.8573 70.5847 57.3996 70.1292 57.8435C69.6838 58.2739 69.2058 58.5273 68.6952 58.6036ZM84.786 56.1987C84.4655 56.2466 84.2126 56.1389 84.0275 55.8755C83.8525 55.5984 83.727 55.2473 83.6512 54.8221C83.6193 54.6085 83.5888 54.3645 83.5597 54.0899C83.5308 53.8153 83.5128 53.5329 83.5058 53.243C83.5106 52.9511 83.5131 52.6839 83.5132 52.4414C83.5287 52.2208 83.5481 51.945 83.5714 51.6141C83.6066 51.2814 83.6409 50.9428 83.6742 50.5982C83.7177 50.24 83.7537 49.9132 83.7823 49.6179C83.8211 49.3089 83.8467 49.0747 83.8592 48.9152C83.8599 48.7573 83.8074 48.65 83.7017 48.593C83.5943 48.5242 83.4219 48.5075 83.1843 48.5431C82.9944 48.5714 82.7884 48.6143 82.5664 48.6718C82.3442 48.7292 82.1062 48.8011 81.8521 48.8877C81.2643 49.0968 80.7525 49.3674 80.3165 49.6993C79.8908 50.0176 79.6722 50.3413 79.6608 50.6705C79.6423 50.9522 79.7093 51.1969 79.8617 51.4045C80.0243 51.5985 80.3054 51.7323 80.7049 51.8061C81.1162 51.8779 81.69 51.8589 82.4262 51.7489C82.6874 51.7098 82.9477 51.6648 83.2073 51.614C83.4667 51.5631 83.7133 51.508 83.9472 51.4487C84.1912 51.3759 84.3955 51.3211 84.56 51.2844C84.7227 51.2358 84.8278 51.2081 84.8753 51.201C85.1721 51.1566 85.4242 51.1371 85.6313 51.1425C85.8385 51.1479 85.9343 51.2609 85.9188 51.4815C85.9187 51.7241 85.8165 51.9334 85.6122 52.1095C85.4197 52.2838 85.1499 52.4273 84.8027 52.5398C84.4672 52.6506 84.0679 52.7405 83.6048 52.8098L81.7703 53.0839C81.1291 53.1797 80.5194 53.1617 79.9413 53.0299C79.375 52.8961 78.9201 52.655 78.5765 52.306C78.2447 51.9554 78.0873 51.512 78.1042 50.9759C78.1274 50.6449 78.232 50.2898 78.418 49.9103C78.614 49.5172 78.9206 49.1318 79.3374 48.7541C79.7662 48.3747 80.3464 48.0333 81.0778 47.7299C81.6027 47.506 82.0465 47.3487 82.4093 47.2581C82.772 47.1675 83.1374 47.0947 83.5055 47.0397C83.9686 46.9705 84.3405 46.9816 84.6213 47.0731C84.9021 47.1645 85.1068 47.3157 85.2356 47.5269C85.3761 47.7363 85.439 47.9938 85.424 48.2993C85.4138 48.5554 85.3819 48.8695 85.3284 49.2413C85.273 49.6012 85.2195 49.9731 85.1676 50.3568C85.1259 50.7269 85.0908 51.0595 85.0622 51.3549C85.0455 51.6484 85.0382 51.9649 85.0405 52.3041C85.0409 52.6315 85.0524 52.9511 85.0748 53.2632C85.0972 53.5751 85.1253 53.8438 85.1591 54.0692C85.1981 54.3301 85.2459 54.608 85.3021 54.9028C85.3685 55.1839 85.3978 55.3796 85.39 55.49C85.3911 55.6596 85.3353 55.8134 85.2225 55.9516C85.1096 56.0897 84.9641 56.1721 84.786 56.1987ZM78.5141 57.1179C78.3003 57.1499 78.1234 57.1036 77.9834 56.979C77.8534 56.8407 77.792 56.674 77.7992 56.4789C77.8153 56.3431 77.8848 56.1993 78.0078 56.0475C78.129 55.8839 78.3433 55.6942 78.6509 55.4784C79.1782 55.1086 79.6871 54.6566 80.1777 54.1223C80.6801 53.5864 81.1746 52.9971 81.6611 52.3544L82.879 52.8273C82.541 53.3265 82.1665 53.8251 81.7556 54.3231C81.3547 54.8075 80.9485 55.2563 80.5368 55.6695C80.1372 56.081 79.7625 56.4159 79.4127 56.6744C79.0629 56.9328 78.7634 57.0807 78.5141 57.1179Z" fill="#7831B2"/>
</svg>
