<svg width="157" height="142" viewBox="0 0 157 142" fill="none" xmlns="http://www.w3.org/2000/svg">
<path d="M34.7035 35.7341C34.501 35.8077 34.3134 35.7956 34.1405 35.6978C33.974 35.5862 33.8127 35.4096 33.6565 35.1681C33.5453 34.956 33.3937 34.6325 33.2017 34.1974C33.0097 33.7623 32.7952 33.2493 32.5583 32.6585C32.3176 32.0575 32.0674 31.4141 31.8075 30.7283C31.554 30.0287 31.302 29.3171 31.0513 28.5936C30.8071 27.8561 30.584 27.1455 30.3821 26.4617L30.8693 26.3362C30.8509 26.4117 30.8103 26.6158 30.7475 26.9485C30.6948 27.2774 30.6205 27.6888 30.5244 28.1826C30.4248 28.6664 30.3195 29.198 30.2087 29.7775C30.0979 30.3571 29.9857 30.9486 29.8722 31.5521C29.7586 32.1557 29.6459 32.7302 29.5342 33.2757C29.429 33.8073 29.3306 34.2791 29.2393 34.6909C29.1581 35.099 29.093 35.4096 29.0441 35.6225C28.9491 36.0241 28.8366 36.3462 28.7067 36.5884C28.5768 36.8306 28.3853 36.9978 28.1323 37.0898C27.94 37.1597 27.7536 37.1356 27.5734 37.0175C27.3932 36.8994 27.2098 36.662 27.0233 36.3052C26.8193 35.9319 26.5887 35.4534 26.3315 34.8699C26.0706 34.2763 25.8015 33.6284 25.5241 32.926C25.2431 32.2134 24.9704 31.4922 24.7059 30.7621C24.4479 30.0183 24.2096 29.3132 23.9911 28.6467L24.3844 28.6415C24.2434 28.9796 24.1038 29.3689 23.9655 29.8092C23.8373 30.246 23.7151 30.7149 23.5988 31.2162C23.489 31.7035 23.3911 32.1924 23.3052 32.6825C23.2193 33.1727 23.1477 33.6233 23.0904 34.0343C23.0181 34.7834 22.979 35.4975 22.973 36.1766C22.9735 36.842 22.9887 37.4216 23.0187 37.9157C23.0552 38.3958 23.0849 38.7464 23.1077 38.9676C23.1223 39.1344 23.113 39.2985 23.0798 39.4597C23.0465 39.6209 22.9871 39.7572 22.9015 39.8687C22.8158 39.9801 22.7022 40.0616 22.5604 40.1131C22.3782 40.1793 22.1984 40.1414 22.0209 39.9994C21.8536 39.8537 21.7452 39.6177 21.6957 39.2914C21.6554 39.0537 21.6166 38.6776 21.5792 38.1634C21.5418 37.6492 21.5275 37.0405 21.5363 36.3374C21.5451 35.6343 21.5985 34.8805 21.6965 34.0761C21.766 33.4772 21.8607 32.8691 21.9807 32.2517C22.1108 31.6307 22.2571 31.0382 22.4194 30.4744C22.578 29.9005 22.7467 29.3859 22.9255 28.9307C23.1006 28.4655 23.2799 28.0906 23.4631 27.806C23.6427 27.5112 23.8135 27.3344 23.9755 27.2756C24.1982 27.1946 24.401 27.2012 24.5841 27.2953C24.7772 27.3857 24.9464 27.5366 25.0916 27.7477C25.2368 27.9587 25.3539 28.2031 25.443 28.4805C25.6239 29.0114 25.83 29.5963 26.0614 30.2351C26.2993 30.8599 26.5426 31.5001 26.7915 32.1555C27.0469 32.7971 27.3049 33.4146 27.5658 34.0083C27.823 34.5917 28.0614 35.1076 28.281 35.5556L27.8146 35.5013C27.9428 34.9384 28.0726 34.3003 28.2037 33.5871C28.3348 32.874 28.4655 32.1438 28.5957 31.3965C28.726 30.6492 28.852 29.938 28.9739 29.2625C29.1023 28.5733 29.2126 27.9767 29.305 27.4727C29.4074 26.965 29.4832 26.6047 29.5321 26.3919C29.593 26.1174 29.6654 25.8902 29.7492 25.7106C29.8293 25.5209 29.9242 25.3717 30.0338 25.263C30.1433 25.1543 30.269 25.0742 30.4107 25.0227C30.5828 24.9602 30.7548 24.9608 30.9268 25.0244C31.0951 25.078 31.2514 25.1933 31.3958 25.3703C31.5502 25.5436 31.6839 25.7704 31.7969 26.0507C31.8584 26.1889 31.943 26.4222 32.0504 26.7503C32.1578 27.0784 32.2872 27.4674 32.4387 27.9172C32.5865 28.3569 32.7472 28.832 32.9207 29.3426C33.1007 29.8394 33.2826 30.3413 33.4662 30.8483C33.8179 31.7876 34.115 32.5287 34.3575 33.0716C34.6001 33.6146 34.793 34.0206 34.9363 34.2898C35.076 34.5489 35.1559 34.7378 35.176 34.8567C35.1897 34.9895 35.1796 35.1193 35.1454 35.2465C35.1178 35.3598 35.0624 35.4602 34.9797 35.5477C34.9069 35.6315 34.8148 35.6937 34.7035 35.7341ZM39.4483 34.0612C38.9725 34.2341 38.5406 34.2592 38.1524 34.1364C37.7643 34.0136 37.4411 33.7696 37.1828 33.4045C36.9208 33.0292 36.7412 32.5495 36.6441 31.9652C36.5296 31.238 36.4211 30.5432 36.3185 29.8805C36.2123 29.2077 36.1188 28.6336 36.0382 28.158C35.9677 27.6788 35.9218 27.3627 35.9008 27.2096C35.877 27.0806 35.877 26.9543 35.901 26.8309C35.9352 26.7038 35.9919 26.5913 36.0711 26.4937C36.1503 26.3961 36.2455 26.3271 36.3569 26.2866C36.5897 26.202 36.804 26.256 36.9998 26.4488C37.2058 26.6378 37.3386 26.8936 37.3981 27.2162C37.4402 27.5222 37.4773 27.8931 37.5092 28.329C37.5512 28.7613 37.6061 29.1658 37.6739 29.5427C37.6876 29.6755 37.7059 29.8524 37.7287 30.0736C37.758 30.281 37.7842 30.4952 37.807 30.7164C37.8363 30.9238 37.8615 31.1039 37.8825 31.2569C37.9658 31.8348 38.1183 32.2556 38.3398 32.5193C38.5614 32.783 38.8442 32.8523 39.1883 32.7271C39.3807 32.6573 39.575 32.5293 39.7711 32.3433C39.9772 32.1536 40.1623 31.9372 40.3263 31.694C40.4865 31.4407 40.6077 31.1901 40.6897 30.9423C40.7717 30.6945 40.7816 30.4844 40.7191 30.312C40.6337 30.0447 40.4857 29.8576 40.2751 29.7505C40.0747 29.6398 39.8194 29.5834 39.5093 29.5814C39.3318 29.5656 39.1105 29.5714 38.8455 29.5988C38.5805 29.6264 38.3022 29.6644 38.0105 29.713C37.7152 29.7515 37.4373 29.8066 37.1768 29.8783L37.0769 28.7959C37.4192 28.6027 37.798 28.3675 38.2132 28.0904C38.6384 27.8096 39.0714 27.503 39.5123 27.1707C39.9533 26.8383 40.3721 26.5083 40.7689 26.1804C41.219 25.8103 41.6065 25.4571 41.9316 25.121C42.2667 24.7813 42.552 24.4939 42.7878 24.2591C43.0299 24.0105 43.2421 23.853 43.4242 23.7868C43.738 23.6727 44.0146 23.6927 44.2536 23.8468C44.4991 23.9871 44.649 24.2424 44.703 24.6129C44.7497 24.9631 44.7945 25.3082 44.8375 25.6483C44.887 25.9746 44.935 26.3128 44.9817 26.6629C45.0266 26.945 45.083 27.2744 45.1508 27.6514C45.215 28.0182 45.2878 28.3933 45.3694 28.7768C45.4511 29.1602 45.5368 29.5076 45.6268 29.8191C45.7002 30.022 45.776 30.2468 45.854 30.4938C45.9386 30.7271 45.9908 30.9031 46.011 31.022C46.0311 31.1409 46.0223 31.2588 45.9845 31.3759C45.9532 31.479 45.8942 31.5693 45.8077 31.6467C45.7349 31.7305 45.6429 31.7926 45.5316 31.833C45.319 31.9103 45.1203 31.8678 44.9355 31.7055C44.7571 31.5294 44.6097 31.2961 44.493 31.0057C44.3093 30.4987 44.1561 29.9808 44.0331 29.4517C43.9065 28.9126 43.7984 28.3609 43.7085 27.7969C43.6783 27.5555 43.639 27.2887 43.5904 26.9966C43.552 26.7007 43.5154 26.41 43.4807 26.1243C43.4459 25.8386 43.412 25.5869 43.379 25.3694C43.3525 25.1381 43.3328 24.9732 43.3201 24.8746L43.7394 25.0835C43.5544 25.3 43.3039 25.5574 42.9881 25.8557C42.6788 26.1402 42.3208 26.4483 41.9138 26.7798C41.5033 27.101 41.0725 27.4298 40.6214 27.7658C40.1705 28.1018 39.7106 28.4296 39.2421 28.7491C38.7801 29.0547 38.3291 29.3276 37.8892 29.5678L37.8427 28.965C37.92 28.9255 38.0378 28.8712 38.196 28.8022C38.3608 28.7194 38.5545 28.6376 38.7773 28.5566C38.8987 28.5124 39.0731 28.472 39.3004 28.4353C39.5377 28.3949 39.7894 28.378 40.0553 28.3846C40.3313 28.3876 40.6049 28.4316 40.8762 28.5165C41.154 28.5877 41.396 28.7178 41.6019 28.9068C41.818 29.0922 41.9778 29.3439 42.0817 29.6619C42.2046 30.0647 42.2057 30.4945 42.0849 30.9516C41.9742 31.4048 41.7829 31.8416 41.5113 32.2616C41.2396 32.6816 40.9223 33.055 40.5597 33.3819C40.1933 33.6987 39.8228 33.9251 39.4483 34.0612ZM53.3164 29.0209C53.1747 29.0724 53.0468 29.0672 52.9327 29.0054C52.8325 28.95 52.7466 28.855 52.6749 28.7205C52.5931 28.5896 52.5431 28.4356 52.5247 28.2587C52.4992 28.0614 52.5071 27.7832 52.5488 27.4238C52.5969 27.0506 52.6726 26.6272 52.776 26.1536C52.8757 25.6699 52.9855 25.1825 53.1054 24.6914C53.2383 24.1727 53.378 23.6572 53.5247 23.145C53.6778 22.6189 53.8322 22.1439 53.9879 21.7202C54.14 21.2862 54.2723 20.9398 54.3847 20.681C54.5653 20.2941 54.7582 19.9887 54.9635 19.7649C55.1753 19.5273 55.4128 19.3607 55.6761 19.265C55.919 19.1767 56.1172 19.2022 56.2707 19.3414C56.4206 19.4706 56.5667 19.6527 56.7092 19.8877C56.8553 20.1329 57.0129 20.4257 57.182 20.7658C57.351 21.106 57.5288 21.4544 57.7154 21.8112C57.8982 22.1578 58.0875 22.4906 58.2832 22.8096C58.5185 23.206 58.7266 23.5434 58.9077 23.8218C59.0988 24.0966 59.2684 24.3275 59.4164 24.5147C59.5746 24.6982 59.7166 24.8531 59.8426 24.9794C59.9612 25.0855 60.059 25.1819 60.1363 25.2685C60.2135 25.3552 60.2673 25.4562 60.2975 25.5713C60.3352 25.7068 60.3406 25.8483 60.3138 25.9957C60.287 26.1431 60.229 26.2675 60.1396 26.3688C60.0641 26.4766 59.9606 26.5544 59.829 26.6022C59.6367 26.6721 59.4315 26.6434 59.2135 26.5161C59.002 26.3749 58.7819 26.1624 58.5529 25.8784C58.324 25.5944 58.0962 25.2814 57.8691 24.9393C57.734 24.7245 57.5562 24.4393 57.3356 24.0834C57.1216 23.7137 56.8964 23.3136 56.6602 22.8831C56.4205 22.4425 56.198 22.0184 55.9932 21.611C55.7984 21.1998 55.6446 20.8541 55.5316 20.5739L55.8793 20.5852C55.6914 20.9519 55.5039 21.3987 55.3168 21.9257C55.1361 22.4388 54.9568 23.0031 54.7788 23.6185C54.6109 24.2303 54.4555 24.8605 54.3124 25.5092C54.1795 26.1542 54.0719 26.79 53.9896 27.4165C53.9101 27.8928 53.8262 28.2619 53.7376 28.5235C53.6593 28.7815 53.5189 28.9473 53.3164 29.0209ZM69.1786 23.2558C68.5206 23.4948 67.9349 23.57 67.4216 23.4812C66.9148 23.3785 66.4853 23.1733 66.1332 22.8652C65.781 22.5572 65.4969 22.1843 65.2811 21.7463C65.0752 21.3048 64.9426 20.8596 64.8831 20.4108C64.8099 19.9555 64.8046 19.4985 64.8676 19.0396C64.9267 18.5706 65.0374 18.1173 65.1997 17.6796C65.372 17.2384 65.5761 16.8372 65.8118 16.4761C66.0541 16.1012 66.3183 15.7872 66.6046 15.5339C66.8973 15.2669 67.1956 15.0782 67.4993 14.9678C67.6207 14.9237 67.733 14.9173 67.836 14.9487C67.939 14.9801 68.0323 15.0323 68.116 15.1051C68.1997 15.178 68.2585 15.2771 68.2925 15.4024C68.3072 15.443 68.2417 15.5471 68.0963 15.7146C67.9508 15.8823 67.7791 16.0881 67.5812 16.3322C67.3795 16.5661 67.1884 16.8134 67.0079 17.0741C66.8237 17.3246 66.6971 17.5599 66.6279 17.7801C66.4399 18.273 66.2951 18.7273 66.1936 19.1428C66.0885 19.5481 65.9765 19.8872 65.8577 20.1599C65.7452 20.4188 65.5776 20.5886 65.3549 20.6696C64.9399 20.8205 64.6197 20.9483 64.3942 21.0532C64.1789 21.1545 64.0012 21.2649 63.8613 21.3846C63.7315 21.5006 63.6012 21.6628 63.4704 21.8709C63.3129 22.1002 63.1876 22.3868 63.0944 22.7304C63.0114 23.0704 62.9505 23.4081 62.9116 23.7435C62.8792 24.0651 62.8569 24.3199 62.8448 24.5078C62.8105 24.8875 62.7532 25.1722 62.6731 25.362C62.5893 25.5416 62.4815 25.6554 62.35 25.7032C62.1475 25.7767 61.9662 25.7509 61.8062 25.6254C61.6462 25.5 61.5416 25.2741 61.4921 24.9478C61.4609 24.7986 61.4477 24.5567 61.4526 24.2221C61.4574 23.8876 61.4595 23.514 61.4589 23.1012C61.4647 22.6744 61.4626 22.2736 61.4528 21.8985C61.4493 21.5097 61.4275 21.1963 61.3871 20.9586C61.3221 20.5576 61.2304 20.1779 61.112 19.8194C61.0036 19.4572 60.8981 19.1341 60.7953 18.8502C60.6887 18.5562 60.6212 18.3224 60.5928 18.1492C60.5644 17.976 60.5857 17.8133 60.6567 17.6613C60.7377 17.5056 60.8643 17.3965 61.0364 17.334C61.2692 17.2494 61.4656 17.2698 61.6256 17.3952C61.7819 17.5105 61.918 17.6963 62.0337 17.9525C62.0952 18.0908 62.1701 18.2817 62.2582 18.5249C62.3464 18.7683 62.4285 19.0425 62.5047 19.3476C62.5873 19.6388 62.6547 19.9357 62.7069 20.2379C62.7408 20.4895 62.7641 20.7909 62.7767 21.1419C62.7995 21.4894 62.8108 21.8525 62.8105 22.2312C62.8066 22.5999 62.7953 22.9481 62.7767 23.2762C62.7681 23.6005 62.7564 23.8687 62.7416 24.0806C62.7332 24.2788 62.729 24.3778 62.729 24.3778L61.6415 24.4116C61.6361 24.2071 61.6468 23.9679 61.6737 23.6942C61.7006 23.4206 61.7459 23.1345 61.8096 22.8359C61.8732 22.5374 61.9609 22.2417 62.0723 21.9487C62.1839 21.6557 62.3216 21.3877 62.4855 21.1445C62.691 20.7945 62.9202 20.5104 63.1734 20.2921C63.4266 20.0739 63.7147 19.8888 64.0377 19.7371C64.3671 19.5714 64.7546 19.4077 65.2 19.2458C65.2709 19.22 65.3532 19.1155 65.4472 18.9321C65.5513 18.7452 65.6563 18.5291 65.7623 18.2841C65.8747 18.0252 65.9857 17.7783 66.0954 17.5434C66.2014 17.2984 66.2967 17.1031 66.3815 16.9575L67.6197 16.4387C67.4899 16.5547 67.3306 16.7158 67.1419 16.9221C66.9632 17.1248 66.7892 17.3716 66.6197 17.6627C66.4604 17.9501 66.3415 18.2859 66.263 18.6701C66.1845 19.0543 66.1824 19.4911 66.2565 19.9804C66.3215 20.5077 66.4763 20.9506 66.7207 21.3092C66.9652 21.6678 67.2733 21.9173 67.6448 22.0576C68.0229 22.1841 68.4296 22.1683 68.8648 22.0101C69.2697 21.8629 69.6079 21.6424 69.8795 21.3487C70.1576 21.0411 70.3649 20.6961 70.5013 20.3137C70.6341 19.9213 70.6982 19.5136 70.694 19.0905C70.6998 18.6639 70.6379 18.2561 70.5085 17.8671C70.4011 17.539 70.2536 17.2426 70.0661 16.9781C69.8786 16.7135 69.61 16.5414 69.2605 16.4619C68.9109 16.3824 68.4275 16.4549 67.81 16.6793C67.5569 16.7713 67.3324 16.784 67.1365 16.7175C66.947 16.6373 66.8432 16.5086 66.8249 16.3317C66.7946 16.2164 66.8236 16.0911 66.912 15.9557C67.0005 15.8203 67.1266 15.6942 67.2905 15.5773C67.4645 15.4567 67.6526 15.3595 67.8551 15.286C68.4017 15.0873 68.8866 15.0028 69.3098 15.0326C69.7431 15.0588 70.1225 15.1733 70.4481 15.3762C70.7837 15.5755 71.0651 15.8461 71.2921 16.1882C71.5191 16.5303 71.696 16.9077 71.8226 17.3207C72.0108 17.8718 72.0974 18.4428 72.0823 19.0335C72.0773 19.6205 71.9646 20.195 71.7444 20.7569C71.5306 21.3051 71.2114 21.7997 70.787 22.2408C70.3727 22.6783 69.8366 23.0166 69.1786 23.2558ZM78.0382 20.0184C77.3701 20.2613 76.772 20.318 76.244 20.1886C75.7225 20.0454 75.2737 19.7553 74.8977 19.3183C74.5282 18.8673 74.2222 18.3074 73.9798 17.6382C73.7336 16.9589 73.5451 16.2012 73.4141 15.3654C73.2923 14.6179 73.2569 13.9194 73.3079 13.2698C73.3553 12.61 73.4606 12.0151 73.6238 11.4854C73.7935 10.9418 74.0058 10.4688 74.261 10.0663C74.5161 9.66375 74.7969 9.33223 75.1035 9.07159C75.5167 8.72635 75.9485 8.4317 76.3985 8.18784C76.8587 7.94028 77.2664 7.70599 77.6217 7.48507C78.034 7.23198 78.3769 6.99265 78.6503 6.767C78.9237 6.54143 79.1414 6.3992 79.3034 6.3404C79.4249 6.29619 79.5472 6.28616 79.6705 6.31021C79.8039 6.33057 79.916 6.38732 80.0071 6.48043C80.0945 6.56343 80.1486 6.68142 80.1697 6.83446C80.2017 7.01782 80.1487 7.2035 80.0106 7.39136C79.8688 7.56911 79.6741 7.74314 79.4265 7.91344C78.9349 8.26424 78.4724 8.55279 78.039 8.77917C77.6119 8.99175 77.2203 9.19146 76.8642 9.3783C76.5043 9.55494 76.1748 9.78377 75.8756 10.0646C75.5792 10.3215 75.3264 10.6831 75.1172 11.1492C74.9145 11.6015 74.7734 12.129 74.6938 12.7316C74.6207 13.3204 74.6374 13.9512 74.7436 14.624C74.924 15.7861 75.1475 16.7031 75.4138 17.3751C75.6866 18.0333 76.0166 18.4699 76.4038 18.6848C76.8011 18.8961 77.2527 18.9098 77.7589 18.7258C78.1031 18.6007 78.4211 18.3877 78.7129 18.0866C79.0011 17.7752 79.2438 17.4174 79.441 17.013C79.6482 16.6049 79.7957 16.1899 79.8834 15.7679C79.9776 15.332 79.9944 14.9358 79.9339 14.5791C79.8827 14.1847 79.7656 13.8773 79.5827 13.6569C79.4062 13.4227 79.1726 13.2839 78.8818 13.2404C78.5875 13.1868 78.2378 13.2335 77.833 13.3807C77.2965 13.5756 76.7493 13.9466 76.1913 14.4937C75.6436 15.037 75.1477 15.7392 74.7036 16.6006L74.0084 16.1992C74.214 15.4704 74.514 14.828 74.9081 14.2716C75.2986 13.7051 75.746 13.2327 76.2505 12.8543C76.7512 12.4658 77.2546 12.1795 77.7607 11.9955C78.3782 11.7711 78.9367 11.7001 79.4363 11.7825C79.9321 11.8547 80.3432 12.0724 80.6695 12.4358C80.9959 12.799 81.2021 13.3208 81.2881 14.0009C81.3678 14.5686 81.3476 15.1611 81.2275 15.7784C81.1139 16.382 80.9148 16.9707 80.6302 17.5446C80.3418 18.1084 79.9804 18.6126 79.5458 19.0574C79.1076 19.4921 78.605 19.8124 78.0382 20.0184ZM85.6048 17.2683C85.2607 17.3935 84.958 17.4116 84.6967 17.323C84.4456 17.2307 84.2267 17.0693 84.0401 16.8388C83.8498 16.5982 83.6978 16.3207 83.5839 16.0064C83.4765 15.6782 83.398 15.351 83.3486 15.0248C83.3138 14.739 83.281 14.3954 83.2499 13.9935C83.2291 13.5881 83.2128 13.1637 83.2011 12.7204C83.1895 12.2772 83.182 11.8611 83.1785 11.4722C83.1852 11.0797 83.1942 10.7724 83.2054 10.5503C83.2084 10.1475 83.2257 9.83147 83.2571 9.60208C83.2987 9.3689 83.3953 9.2248 83.5472 9.16961C83.6788 9.12179 83.8168 9.12326 83.9612 9.17402C84.1056 9.22478 84.2288 9.31201 84.3308 9.43552C84.443 9.55542 84.5151 9.70701 84.5472 9.89044C84.5756 10.0637 84.5892 10.3227 84.5881 10.6674C84.587 11.0119 84.5835 11.3977 84.5777 11.8243C84.5719 12.2509 84.5729 12.6808 84.5809 13.114C84.5852 13.5369 84.6121 13.9116 84.6615 14.2378C84.7 14.5337 84.755 14.812 84.8266 15.0728C84.8945 15.3234 84.9781 15.5226 85.0773 15.6701C85.173 15.8075 85.2865 15.8522 85.4181 15.8044C85.7421 15.6866 86.0473 15.2487 86.334 14.4905C86.6307 13.7286 86.9042 12.7285 87.1544 11.4902C87.2761 10.941 87.3736 10.4351 87.4466 9.97264C87.5196 9.51006 87.5857 9.10737 87.6447 8.76464C87.7002 8.41171 87.7745 8.12656 87.8675 7.90919C87.9606 7.69174 88.0831 7.55545 88.2349 7.50025C88.4677 7.41562 88.6678 7.4462 88.8351 7.59193C89.0089 7.72378 89.144 7.93865 89.2405 8.23629C89.3359 8.49993 89.4433 8.82806 89.5627 9.22076C89.6921 9.60967 89.8252 10.0088 89.9621 10.4181C90.0952 10.8172 90.2293 11.1872 90.3643 11.5283C90.6077 12.1053 90.8378 12.5667 91.0547 12.9125C91.2781 13.2443 91.4656 13.5089 91.6172 13.7062C91.7688 13.9035 91.8654 14.075 91.9067 14.2207C91.937 14.3358 91.9401 14.4552 91.9161 14.5786C91.8884 14.692 91.84 14.7956 91.771 14.8895C91.7019 14.9835 91.6117 15.0507 91.5004 15.0912C91.146 15.22 90.8085 15.0788 90.4877 14.6675C90.1669 14.2563 89.8246 13.6751 89.4608 12.9238C89.3083 12.5661 89.1467 12.1831 88.9758 11.7747C88.8151 11.3627 88.6645 10.947 88.524 10.5277C88.3936 10.1046 88.2744 9.71189 88.166 9.34968L88.6615 9.34173C88.6179 9.75915 88.5569 10.2231 88.4783 10.7336C88.3998 11.244 88.2774 11.9024 88.1113 12.7086C87.9655 13.3812 87.7801 14.0395 87.5551 14.6835C87.3265 15.3173 87.0515 15.8705 86.7301 16.343C86.4152 16.8017 86.04 17.1101 85.6048 17.2683ZM94.4333 14.0596C94.1904 14.1479 93.9568 14.0722 93.7325 13.8324C93.5081 13.5927 93.3488 13.1687 93.2544 12.5604C93.2289 12.3632 93.1945 12.0946 93.1515 11.7545C93.1085 11.4144 93.0761 11.0246 93.0543 10.585C93.039 10.1317 93.0485 9.65196 93.0829 9.14608C93.1479 8.25038 93.2363 7.52982 93.3479 6.9844C93.456 6.42877 93.6048 6.00173 93.7946 5.70334C93.9843 5.40487 94.2158 5.20597 94.4891 5.10666C94.7017 5.0294 94.8949 5.05669 95.0687 5.18862C95.2526 5.31686 95.4139 5.49339 95.5527 5.71836C95.6915 5.94334 95.8201 6.17192 95.9387 6.4042C96.0967 6.71395 96.2777 7.05551 96.4817 7.42886C96.6958 7.79853 96.9168 8.17149 97.1447 8.54757C97.3827 8.92004 97.6235 9.26853 97.8672 9.59312C98.1208 9.91393 98.3695 10.1736 98.6132 10.3718L98.1106 10.6921C98.1948 10.0075 98.2992 9.31556 98.424 8.61621C98.5487 7.91686 98.6825 7.2429 98.8255 6.59424C98.9686 5.94557 99.1116 5.35999 99.2546 4.83767C99.4205 4.28389 99.5818 3.87533 99.7384 3.61192C99.9051 3.34472 100.08 3.17808 100.262 3.11189C100.393 3.06408 100.526 3.05026 100.659 3.07063C100.789 3.08089 100.907 3.10674 101.014 3.14828C101.166 3.21943 101.301 3.32496 101.421 3.46516C101.54 3.60527 101.639 3.84493 101.716 4.18413C101.889 4.94722 102.067 5.62834 102.25 6.22749C102.439 6.81276 102.61 7.30134 102.763 7.69307C103.027 8.38903 103.28 8.92824 103.521 9.31082C103.773 9.68979 103.906 9.94556 103.92 10.0783C103.947 10.2175 103.915 10.3497 103.823 10.4749C103.744 10.6066 103.624 10.7019 103.462 10.7608C103.219 10.8491 102.975 10.8061 102.728 10.6318C102.492 10.4537 102.282 10.1744 102.098 9.79367C101.925 9.44333 101.728 8.9931 101.506 8.4428C101.293 7.88882 101.083 7.25976 100.874 6.55553C100.671 5.83752 100.491 5.08822 100.334 4.30755L100.736 4.04108C100.621 4.48424 100.495 4.98917 100.357 5.55576C100.225 6.10858 100.09 6.68537 99.9525 7.28615C99.8252 7.88315 99.7061 8.47145 99.5953 9.05105C99.4946 9.62687 99.4151 10.1664 99.3568 10.6695C99.3152 10.9027 99.2388 11.1025 99.1273 11.2693C99.026 11.4323 98.8792 11.5488 98.6868 11.6186C98.4439 11.707 98.2212 11.7248 98.0189 11.6722C97.823 11.6057 97.6326 11.4912 97.4478 11.3289C97.2695 11.1528 97.0938 10.9527 96.921 10.7287C96.8292 10.6015 96.7018 10.424 96.5392 10.1962C96.3728 9.95838 96.1954 9.6901 96.007 9.39142C95.8186 9.09265 95.628 8.77187 95.4349 8.42891C95.242 8.08595 95.061 7.7444 94.8919 7.40425C94.7192 7.05399 94.5759 6.72165 94.4621 6.40741L94.8735 6.12014C94.7093 6.74201 94.5819 7.3391 94.4913 7.91132C94.4109 8.47985 94.3715 9.0507 94.3729 9.62387C94.3808 10.1832 94.4287 10.7739 94.5165 11.396C94.5789 11.8209 94.643 12.1877 94.7091 12.4965C94.7852 12.8015 94.8356 13.0356 94.8604 13.1988C94.8824 13.3858 94.8647 13.5586 94.8075 13.7171C94.7504 13.8756 94.6257 13.9897 94.4333 14.0596ZM30.1413 52.6912C29.4733 52.934 28.9156 53.0391 28.4686 53.0066C28.0214 52.974 27.6549 52.8318 27.3689 52.5801C27.0931 52.3246 26.8748 51.9909 26.7141 51.5788C26.5599 51.153 26.4452 50.6784 26.3701 50.1548C26.2877 49.6111 26.2352 49.0393 26.2126 48.4393C26.1964 47.8256 26.2051 47.1856 26.2387 46.5194C26.2657 46.1195 26.3068 45.8062 26.3622 45.5796C26.4175 45.3529 26.5211 45.212 26.673 45.1568C26.8856 45.0795 27.0852 45.093 27.2719 45.1973C27.4549 45.2914 27.5619 45.4762 27.593 45.7518C27.6178 45.9149 27.6199 46.1895 27.5994 46.5756C27.589 46.9581 27.5896 47.434 27.6012 48.0035C27.6127 48.573 27.6725 49.2283 27.7806 49.9692C27.8511 50.4485 27.9682 50.819 28.1318 51.0808C28.3055 51.339 28.5376 51.4898 28.8283 51.5333C29.1292 51.5731 29.5073 51.5102 29.9628 51.3447C30.2463 51.2417 30.619 51.1005 31.0809 50.9211C31.5392 50.7316 32.033 50.5293 32.5621 50.3139C33.0913 50.0987 33.6103 49.8871 34.1192 49.6792C34.6346 49.4575 35.0842 49.2596 35.4679 49.0858C35.8581 48.898 36.1388 48.7558 36.31 48.6592C36.4343 48.5911 36.536 48.5082 36.6152 48.4105C36.6907 48.3028 36.7193 48.1605 36.7011 47.9836C36.6159 47.3375 36.4843 46.737 36.3062 46.1822C36.1345 45.6134 35.944 45.1032 35.7346 44.6516C35.5352 44.1962 35.3533 43.8205 35.1888 43.5247C35.0308 43.2149 34.933 42.9923 34.8953 42.8568C34.8467 42.6909 34.8698 42.5334 34.9646 42.3841C35.0558 42.2247 35.1723 42.1193 35.314 42.0678C35.5469 41.9832 35.752 42.0119 35.9295 42.1539C36.1133 42.2821 36.2885 42.4652 36.4548 42.7031C36.5753 42.8773 36.7136 43.1483 36.8697 43.5161C37.0323 43.8701 37.1962 44.2752 37.3615 44.7315C37.5369 45.184 37.6871 45.6458 37.8119 46.1168C37.9431 46.574 38.0394 46.998 38.1008 47.3887C38.1924 48.0209 38.1478 48.5305 37.9673 48.9174C37.7931 49.2905 37.4392 49.6257 36.9053 49.923C36.7139 50.027 36.4111 50.1714 35.9969 50.3564C35.5792 50.5312 35.1007 50.7281 34.5613 50.947C34.0257 51.1762 33.4763 51.3988 32.9132 51.6149C32.3537 51.8412 31.8277 52.0495 31.3353 52.24C30.8531 52.4268 30.4551 52.5771 30.1413 52.6912ZM32.6401 51.3355C32.5288 51.376 32.4027 51.3759 32.2619 51.3353C32.1175 51.2845 32.0077 51.1867 31.9324 51.042C31.8101 50.7995 31.6944 50.4801 31.5853 50.0838C31.4825 49.6737 31.3862 49.2497 31.2963 48.812C31.2129 48.3603 31.1442 47.9492 31.0902 47.5788C30.9912 46.9263 30.9333 46.3393 30.9161 45.8177C30.899 45.2961 30.9029 44.9274 30.9279 44.7118C30.9372 44.5478 30.9727 44.4087 31.0344 44.2945C31.0925 44.1701 31.1974 44.0803 31.3492 44.0251C31.4809 43.9773 31.6069 43.9774 31.7274 44.0254C31.8479 44.0734 31.9522 44.156 32.0405 44.2731C32.1288 44.3902 32.1889 44.5404 32.221 44.7238C32.2448 44.8529 32.2566 45.0436 32.2564 45.2961C32.2627 45.5348 32.2736 45.8177 32.289 46.1449C32.3145 46.4683 32.3561 46.8203 32.4139 47.201C32.4559 47.5069 32.5178 47.8516 32.5995 48.235C32.6912 48.6148 32.7898 48.9977 32.8954 49.3839C32.9973 49.76 33.0982 50.1019 33.1983 50.4097C33.235 50.5111 33.2211 50.6309 33.1566 50.7692C33.0986 50.8935 33.0216 51.0132 32.9259 51.1284C32.8366 51.2297 32.7414 51.2987 32.6401 51.3355ZM42.2663 48.3188C41.9222 48.4438 41.6195 48.4621 41.3583 48.3734C41.1071 48.2811 40.8883 48.1197 40.7017 47.8891C40.5114 47.6485 40.3593 47.371 40.2455 47.0567C40.138 46.7286 40.0596 46.4014 40.0102 46.0752C39.9754 45.7895 39.9425 45.4457 39.9116 45.0439C39.8906 44.6384 39.8744 44.2141 39.8627 43.7708C39.8511 43.3275 39.8435 42.9115 39.8401 42.5226C39.8468 42.13 39.8558 41.8227 39.867 41.6006C39.87 41.198 39.8872 40.8819 39.9187 40.6524C39.9602 40.4193 40.0569 40.2751 40.2088 40.2199C40.3403 40.1721 40.4784 40.1736 40.6227 40.2244C40.7671 40.2752 40.8904 40.3623 40.9925 40.4859C41.1046 40.6058 41.1767 40.7574 41.2088 40.9408C41.2372 41.1141 41.2508 41.373 41.2497 41.7177C41.2485 42.0623 41.245 42.448 41.2392 42.8746C41.2334 43.3013 41.2345 43.7312 41.2424 44.1643C41.2468 44.5873 41.2736 44.9619 41.3231 45.2882C41.3615 45.584 41.4166 45.8623 41.4882 46.1231C41.556 46.3739 41.6396 46.5729 41.7389 46.7204C41.8345 46.8578 41.948 46.9026 42.0797 46.8548C42.4036 46.7371 42.7089 46.2991 42.9955 45.5409C43.2923 44.779 43.5658 43.7789 43.8159 42.5405C43.9378 41.9914 44.0351 41.4855 44.1081 41.023C44.1811 40.5604 44.2472 40.1578 44.3064 39.815C44.3617 39.4621 44.436 39.177 44.5291 38.9595C44.6222 38.7422 44.7446 38.6058 44.8964 38.5507C45.1293 38.466 45.3294 38.4965 45.4967 38.6423C45.6705 38.7742 45.8055 38.989 45.902 39.2867C45.9975 39.5504 46.1049 39.8785 46.2242 40.2711C46.3537 40.6601 46.4869 41.0592 46.6236 41.4684C46.7568 41.8675 46.8908 42.2376 47.0259 42.5787C47.2693 43.1557 47.4994 43.6171 47.7162 43.9628C47.9396 44.2947 48.1271 44.5593 48.2788 44.7566C48.4305 44.9539 48.527 45.1253 48.5682 45.271C48.5985 45.3862 48.6016 45.5055 48.5776 45.6291C48.55 45.7423 48.5015 45.846 48.4325 45.94C48.3634 46.0339 48.2733 46.1011 48.1619 46.1416C47.9291 46.2262 47.6982 46.1896 47.4692 46.0319C47.2504 45.8705 47.0307 45.6119 46.8101 45.256C46.5895 44.9001 46.3603 44.4729 46.1224 43.9741C45.9699 43.6165 45.8082 43.2335 45.6374 42.8251C45.4766 42.4131 45.326 41.9974 45.1855 41.578C45.0552 41.1549 44.9359 40.7623 44.8276 40.4001L45.323 40.3922C45.286 40.6694 45.2444 40.9657 45.1982 41.2808C45.1621 41.5923 45.1085 41.9502 45.0373 42.3547C44.9727 42.7454 44.8845 43.2135 44.7728 43.7589C44.627 44.4316 44.4416 45.0899 44.2167 45.7338C43.9881 46.3677 43.7131 46.9209 43.3917 47.3934C43.0767 47.8521 42.7016 48.1606 42.2663 48.3188ZM53.7805 44.0307C53.2946 44.2072 52.8456 44.2959 52.4334 44.2965C52.0213 44.2971 51.6804 44.226 51.4109 44.0829C51.1415 43.9399 50.9848 43.7444 50.9408 43.4965C50.9271 43.3638 50.9441 43.2371 50.9921 43.1164C51.0401 42.9957 51.1298 42.9115 51.2614 42.8636C51.3626 42.8269 51.4629 42.8191 51.5623 42.8404C51.6616 42.8616 51.7798 42.8875 51.9168 42.918C52.0539 42.9485 52.2397 42.9556 52.4744 42.9391C52.7053 42.9125 53.0029 42.833 53.3674 42.7006C53.9342 42.4946 54.3756 42.1792 54.6915 41.7547C55.0138 41.3162 55.1127 40.7353 54.988 40.0118C54.9166 39.4985 54.7655 39.0657 54.5349 38.7135C54.3106 38.3475 54.0307 38.0649 53.695 37.8656C53.3557 37.6562 52.9763 37.5417 52.5567 37.522C52.1372 37.5024 51.6947 37.5772 51.229 37.7465C50.9962 37.8311 50.7675 37.9428 50.5429 38.0819C50.3183 38.2209 50.1149 38.3234 49.9327 38.3897C49.8213 38.4301 49.711 38.4416 49.6015 38.424C49.4883 38.3963 49.3982 38.3373 49.3311 38.2469C49.264 38.1566 49.2223 38.057 49.2057 37.9482C49.1673 37.6524 49.2742 37.3784 49.5264 37.126C49.7851 36.8599 50.2334 36.6109 50.8711 36.3791C51.5493 36.1327 52.1939 36.0304 52.8047 36.0723C53.4257 36.1104 53.9854 36.2799 54.4839 36.5806C54.9787 36.8713 55.3933 37.2885 55.7278 37.8325C56.0688 38.3626 56.297 39.0082 56.4123 39.7695C56.4902 40.269 56.4789 40.7436 56.3782 41.1932C56.2878 41.6392 56.1265 42.0478 55.8944 42.4189C55.6587 42.7801 55.3622 43.1001 55.005 43.3791C54.6442 43.6479 54.236 43.8651 53.7805 44.0307ZM51.6227 49.2209C51.5012 49.2652 51.3839 49.2733 51.2708 49.2456C51.1714 49.2243 51.0864 49.1635 51.0156 49.063C50.9448 48.9625 50.8971 48.8307 50.8723 48.6676C50.8476 48.5044 50.8519 48.3422 50.8851 48.181C50.9119 48.0336 50.9378 47.852 50.9628 47.6364C50.9914 47.4309 51.0068 47.1729 51.0089 46.8624C51.0108 46.5518 50.9766 46.1569 50.9061 45.6777C50.7899 44.8824 50.6027 44.1128 50.3447 43.3689C50.0867 42.6251 49.8199 41.873 49.5444 41.1125C49.2754 40.3383 49.0722 39.5401 48.9347 38.718C48.8935 38.4461 48.9116 38.2272 48.989 38.0614C49.0729 37.8818 49.2059 37.7589 49.3881 37.6926C49.55 37.6338 49.7018 37.6417 49.8435 37.7164C49.9915 37.7774 50.1189 37.8917 50.2255 38.0595C50.3284 38.2172 50.3932 38.4117 50.4197 38.643C50.5186 39.2955 50.6521 39.901 50.82 40.4595C50.9945 41.0043 51.1753 41.5352 51.3627 42.0523C51.5601 42.5658 51.7424 43.0847 51.9095 43.6091C52.0765 44.1336 52.2036 44.6898 52.2906 45.2778C52.3794 45.8077 52.4316 46.2994 52.4469 46.7528C52.4622 47.2062 52.4404 47.6043 52.3812 47.9471C52.3322 48.2861 52.2442 48.5648 52.117 48.7832C52 48.9977 51.8353 49.1437 51.6227 49.2209ZM62.573 40.9554C61.7429 41.2572 60.9936 41.323 60.3248 41.153C59.6662 40.9793 59.1236 40.6199 58.6971 40.075C58.2771 39.5163 57.9979 38.8089 57.8595 37.9527C57.7651 37.3444 57.7775 36.7777 57.8966 36.2526C58.0221 35.7135 58.2037 35.2344 58.4413 34.8153C58.689 34.3925 58.9643 34.0457 59.2673 33.7751C59.5664 33.4942 59.8425 33.3078 60.0957 33.2157C60.207 33.1753 60.3036 33.1574 60.3855 33.1621C60.4775 33.1631 60.5565 33.1917 60.6228 33.2479C60.6954 33.2904 60.7419 33.371 60.762 33.49C60.7848 33.7111 60.7718 33.9281 60.7229 34.141C60.6703 34.3437 60.5161 34.5661 60.2602 34.8083C59.9581 35.1131 59.7192 35.418 59.5433 35.7228C59.3738 36.0139 59.2627 36.324 59.2101 36.6529C59.1537 36.9717 59.1631 37.3297 59.2383 37.727C59.3739 38.6071 59.7088 39.2312 60.2431 39.5992C60.7736 39.9572 61.4034 40.0037 62.1322 39.7388C62.8408 39.4813 63.3665 39.0033 63.7092 38.305C64.0584 37.593 64.1596 36.7816 64.0131 35.871C63.8922 35.0315 63.6212 34.4415 63.2001 34.1012C62.7752 33.7507 62.2592 33.6859 61.6518 33.9066C61.338 34.0207 61.0918 34.179 60.9132 34.3816C60.7447 34.5805 60.5706 34.8274 60.3911 35.1221C60.2639 35.3405 60.1667 35.5307 60.0995 35.6928C60.0322 35.8549 59.9659 35.9881 59.9005 36.0922C59.8415 36.1824 59.7463 36.2514 59.6146 36.2993C59.473 36.3508 59.3451 36.3457 59.231 36.2838C59.1235 36.2082 59.0513 36.0566 59.0147 35.8289C58.9707 35.581 59.0008 35.3004 59.1049 34.9872C59.2193 34.6703 59.3814 34.3589 59.5914 34.0531C59.8078 33.7335 60.061 33.4521 60.351 33.2091C60.6372 32.9558 60.9424 32.7704 61.2663 32.6526C61.9951 32.3878 62.6497 32.3448 63.2302 32.5241C63.8069 32.6931 64.2845 33.0472 64.6633 33.5866C65.0382 34.1158 65.2844 34.7951 65.4015 35.6246C65.5353 36.4365 65.5045 37.2051 65.3089 37.9302C65.1097 38.6451 64.7735 39.2665 64.3001 39.7941C63.8371 40.3181 63.2614 40.7053 62.573 40.9554ZM74.0078 36.7823C73.7041 36.8927 73.337 36.9228 72.9065 36.8727C72.4722 36.8125 72.0211 36.6897 71.553 36.5041C71.0949 36.3149 70.6548 36.0962 70.2327 35.848C69.8207 35.5961 69.4749 35.3375 69.1954 35.0718C69.0354 34.9464 68.9164 34.8233 68.8382 34.7025C68.7667 34.5679 68.712 34.4329 68.6743 34.2974C68.6753 34.2052 68.6828 34.0992 68.6966 33.9795C68.7105 33.8597 68.7432 33.7445 68.7949 33.634C68.8576 33.4276 68.9861 33.1342 69.1805 32.7537C69.3749 32.3733 69.6074 31.956 69.8782 31.5019C70.1555 31.034 70.452 30.5877 70.7679 30.163C71.0902 29.7247 71.4055 29.3461 71.714 29.0275C72.0325 28.7052 72.3285 28.4943 72.6018 28.395C72.7131 28.3546 72.8084 28.3486 72.8874 28.3773C72.9766 28.4022 73.0512 28.4497 73.1109 28.5198C73.1706 28.5898 73.2102 28.6673 73.2294 28.7521C73.3002 28.9788 73.2305 29.2451 73.0205 29.5509C72.8105 29.8567 72.5748 30.1547 72.3133 30.4447C71.8539 30.9789 71.4584 31.4841 71.1268 31.9603C70.7953 32.4364 70.537 32.8459 70.3519 33.1886C70.1768 33.5276 70.1026 33.7496 70.1292 33.8547C70.1383 33.9432 70.2128 34.0538 70.3525 34.1866C70.4923 34.3194 70.6867 34.461 70.936 34.6113C71.1953 34.758 71.4919 34.8969 71.8258 35.028C72.1698 35.1555 72.5405 35.2616 72.9379 35.3467C73.1743 35.3985 73.4038 35.447 73.6264 35.4923C73.8555 35.5238 74.0459 35.5751 74.1976 35.6461C74.3559 35.7034 74.4537 35.7998 74.4914 35.9353C74.5217 36.0504 74.523 36.1647 74.4953 36.278C74.4676 36.3914 74.4073 36.4936 74.3143 36.5848C74.2314 36.6722 74.1293 36.7381 74.0078 36.7823ZM68.946 38.6048C68.6829 38.7004 68.458 38.633 68.2714 38.4025C68.0811 38.1618 67.9143 37.7807 67.7712 37.259C67.6344 36.7235 67.5048 36.065 67.382 35.2835C67.3325 34.9572 67.2877 34.6121 67.2474 34.248C67.2173 33.8804 67.1872 33.5126 67.1571 33.1449C67.1234 32.7671 67.078 32.4049 67.0212 32.0584C67.0121 31.9699 66.9979 31.8833 66.9787 31.7985C66.9658 31.6998 66.9479 31.603 66.925 31.5082C66.892 31.2906 66.8871 31.1031 66.9102 30.9456C66.9333 30.788 66.9776 30.6571 67.043 30.5531C67.1148 30.4352 67.2014 30.3579 67.3026 30.321C67.5354 30.2364 67.7562 30.2767 67.9649 30.4417C68.1801 30.593 68.3151 30.871 68.37 31.2755C68.4113 31.5474 68.4441 31.8912 68.4687 32.3068C68.4997 32.7086 68.5293 33.1224 68.5575 33.5481C68.5858 33.9739 68.6228 34.3448 68.6686 34.6609C68.7685 35.2212 68.8684 35.7185 68.9684 36.1526C69.0785 36.5831 69.1781 36.937 69.2672 37.2144C69.3525 37.4817 69.3983 37.6716 69.4048 37.784C69.4286 37.913 69.4216 38.036 69.3838 38.1531C69.3524 38.2562 69.2986 38.3447 69.2221 38.4183C69.1595 38.4984 69.0675 38.5606 68.946 38.6048ZM79.8033 34.6931C78.9732 34.9947 78.2238 35.0606 77.5551 34.8906C76.8965 34.7168 76.354 34.3576 75.9274 33.8127C75.5074 33.254 75.2281 32.5465 75.0898 31.6903C74.9954 31.082 75.0078 30.5153 75.1268 29.9901C75.2524 29.4511 75.434 28.9721 75.6716 28.553C75.9193 28.1302 76.1946 27.7834 76.4976 27.5126C76.7967 27.2318 77.0728 27.0454 77.326 26.9534C77.4373 26.913 77.5339 26.895 77.6158 26.8997C77.7077 26.9007 77.7869 26.9293 77.8531 26.9856C77.9257 27.028 77.9722 27.1087 77.9923 27.2275C78.0151 27.4488 78.0021 27.6658 77.9532 27.8785C77.9006 28.0812 77.7464 28.3038 77.4904 28.5459C77.1885 28.8507 76.9495 29.1556 76.7736 29.4605C76.6041 29.7516 76.493 30.0616 76.4404 30.3905C76.384 30.7093 76.3934 31.0673 76.4686 31.4645C76.6042 32.3447 76.9391 32.9688 77.4733 33.3369C78.0039 33.6947 78.6336 33.7412 79.3625 33.4763C80.0711 33.2188 80.5968 32.7409 80.9394 32.0426C81.2886 31.3306 81.3899 30.5192 81.2434 29.6087C81.1225 28.7691 80.8515 28.1792 80.4304 27.8388C80.0055 27.4884 79.4895 27.4234 78.8821 27.6442C78.5683 27.7583 78.3221 27.9166 78.1435 28.1192C77.9749 28.3182 77.801 28.565 77.6214 28.8598C77.4942 29.0781 77.397 29.2683 77.3298 29.4305C77.2625 29.5926 77.1962 29.7257 77.1308 29.8298C77.0718 29.9201 76.9766 29.9891 76.8449 30.0369C76.7032 30.0884 76.5753 30.0832 76.4613 30.0215C76.3537 29.9459 76.2816 29.7942 76.245 29.5666C76.2009 29.3186 76.2311 29.0381 76.3353 28.7248C76.4495 28.4078 76.6116 28.0965 76.8217 27.7907C77.0381 27.4711 77.2912 27.1898 77.5813 26.9466C77.8675 26.6935 78.1727 26.508 78.4966 26.3902C79.2254 26.1253 79.88 26.0825 80.4605 26.2616C81.0372 26.4307 81.5148 26.7849 81.8936 27.3242C82.2685 27.8534 82.5147 28.5328 82.6318 29.3622C82.7656 30.1742 82.7348 30.9426 82.5392 31.6677C82.34 32.3827 82.0038 33.0041 81.5305 33.5318C81.0673 34.0558 80.4916 34.4429 79.8033 34.6931ZM94.1866 29.4654C93.3565 29.7671 92.6071 29.8329 91.9383 29.6629C91.2798 29.4893 90.7372 29.1299 90.3107 28.585C89.8907 28.0263 89.6114 27.3189 89.4731 26.4626C89.3788 25.8544 89.3911 25.2877 89.5102 24.7625C89.6356 24.2235 89.8172 23.7444 90.0548 23.3253C90.3026 22.9025 90.578 22.5558 90.8808 22.2851C91.18 22.0041 91.4562 21.8177 91.7092 21.7258C91.8206 21.6853 91.9172 21.6674 91.999 21.6721C92.091 21.673 92.1702 21.7017 92.2364 21.7579C92.309 21.8004 92.3554 21.881 92.3756 22C92.3984 22.2211 92.3854 22.4381 92.3365 22.651C92.2839 22.8537 92.1296 23.0761 91.8737 23.3183C91.5718 23.6231 91.3328 23.9279 91.1569 24.2328C90.9874 24.5239 90.8763 24.8339 90.8237 25.1629C90.7673 25.4817 90.7767 25.8397 90.8519 26.2369C90.9874 27.1171 91.3224 27.7412 91.8566 28.1092C92.3873 28.4672 93.017 28.5137 93.7458 28.2488C94.4544 27.9912 94.9801 27.5133 95.3228 26.8151C95.6719 26.1029 95.7732 25.2916 95.6266 24.381C95.5058 23.5415 95.2348 22.9515 94.8137 22.6112C94.3889 22.2607 93.8727 22.1959 93.2654 22.4166C92.9516 22.5306 92.7054 22.689 92.5268 22.8916C92.3582 23.0905 92.1843 23.3373 92.0046 23.6321C91.8775 23.8504 91.7803 24.0406 91.7131 24.2028C91.6457 24.3649 91.5794 24.498 91.5141 24.6022C91.4551 24.6924 91.3598 24.7615 91.2282 24.8093C91.0865 24.8608 90.9587 24.8557 90.8446 24.7938C90.737 24.7182 90.6649 24.5665 90.6282 24.3389C90.5842 24.091 90.6143 23.8104 90.7186 23.4972C90.8328 23.1803 90.9949 22.8689 91.205 22.5631C91.4214 22.2435 91.6745 21.9621 91.9646 21.719C92.2508 21.4658 92.5559 21.2803 92.8799 21.1626C93.6087 20.8977 94.2633 20.8548 94.8438 21.034C95.4205 21.2031 95.8982 21.5573 96.2768 22.0966C96.6518 22.6258 96.8979 23.3051 97.0151 24.1345C97.1489 24.9465 97.118 25.7151 96.9225 26.4402C96.7232 27.1551 96.387 27.7764 95.9138 28.3042C95.4506 28.8281 94.8749 29.2153 94.1866 29.4654ZM97.9937 21.094C97.7609 21.1786 97.553 21.1738 97.37 21.0797C97.1971 20.9819 97.0978 20.8344 97.0722 20.6371C97.0621 20.5146 97.088 20.3962 97.1497 20.2819C97.2114 20.1677 97.3477 20.0379 97.5584 19.8924C97.8862 19.6586 98.339 19.3907 98.917 19.0889C99.5051 18.7834 100.209 18.4816 101.029 18.1836C101.454 18.029 101.848 17.8976 102.209 17.7891C102.577 17.6667 102.99 17.5569 103.447 17.4596C103.806 17.375 104.099 17.3605 104.325 17.4159C104.561 17.4677 104.692 17.5751 104.717 17.7382C104.737 17.8571 104.728 17.9751 104.69 18.0921C104.659 18.1953 104.592 18.2943 104.489 18.3892C104.396 18.4803 104.263 18.5572 104.091 18.6198C103.878 18.697 103.627 18.777 103.336 18.8597C103.045 18.9425 102.734 19.0326 102.403 19.13C102.078 19.2137 101.749 19.3161 101.415 19.4375C100.716 19.6914 100.165 19.9261 99.7622 20.1414C99.3554 20.3466 99.0231 20.5362 98.7654 20.7102C98.504 20.874 98.2467 21.0019 97.9937 21.094ZM102.432 26.4685C102.21 26.5495 102.01 26.5189 101.832 26.3768C101.665 26.2311 101.509 26.0237 101.366 25.7545C101.269 25.549 101.164 25.2599 101.052 24.8876C100.947 24.5014 100.85 24.0775 100.763 23.6157C100.672 23.1438 100.592 22.6854 100.523 22.2402C100.432 21.6421 100.35 21.1154 100.277 20.6601C100.21 20.191 100.15 19.8053 100.098 19.503L101.431 18.915C101.453 19.1022 101.482 19.3386 101.517 19.6242C101.558 19.8961 101.607 20.2053 101.664 20.5518C101.717 20.8882 101.768 21.2366 101.819 21.597C101.876 21.9435 101.929 22.2798 101.978 22.6061C102.061 23.1499 102.149 23.5996 102.244 23.9554C102.345 24.2974 102.439 24.573 102.526 24.7822C102.613 24.9914 102.688 25.1652 102.749 25.3035C102.807 25.4316 102.846 25.5551 102.866 25.674C102.886 25.7929 102.883 25.909 102.855 26.0223C102.824 26.1255 102.77 26.2139 102.693 26.2876C102.621 26.3715 102.534 26.4317 102.432 26.4685ZM107.368 24.6575C107.125 24.7458 106.891 24.6701 106.667 24.4303C106.442 24.1906 106.283 23.7666 106.189 23.1583C106.14 22.8662 106.086 22.4155 106.025 21.8064C105.962 21.1871 105.959 20.4996 106.017 19.744C106.082 18.8484 106.171 18.1278 106.282 17.5823C106.39 17.0267 106.539 16.5997 106.729 16.3012C106.919 16.0028 107.15 15.804 107.424 15.7045C107.636 15.6273 107.83 15.6547 108.003 15.7865C108.187 15.9148 108.348 16.0914 108.487 16.3163C108.626 16.5413 108.754 16.7698 108.873 17.0022C109.031 17.3119 109.212 17.6534 109.416 18.0268C109.63 18.3964 109.851 18.7694 110.079 19.1455C110.317 19.518 110.558 19.8664 110.802 20.191C111.056 20.5118 111.304 20.7714 111.548 20.9697L111.045 21.2901C111.129 20.6055 111.234 19.9135 111.359 19.2141C111.483 18.5148 111.617 17.8408 111.76 17.1921C111.903 16.5435 112.046 15.958 112.189 15.4356C112.355 14.8819 112.516 14.4733 112.673 14.2098C112.839 13.9427 113.014 13.776 113.196 13.7098C113.328 13.662 113.46 13.6483 113.593 13.6686C113.724 13.6788 113.842 13.7047 113.948 13.7463C114.1 13.8174 114.236 13.9229 114.355 14.063C114.474 14.2032 114.573 14.4428 114.65 14.782C114.824 15.5452 115.001 16.2263 115.184 16.8254C115.373 17.4108 115.544 17.8992 115.698 18.291C115.961 18.9869 116.214 19.5262 116.456 19.9087C116.707 20.2877 116.841 20.5434 116.854 20.6762C116.881 20.8154 116.849 20.9476 116.757 21.0728C116.679 21.2045 116.558 21.2998 116.396 21.3587C116.153 21.4471 115.909 21.404 115.663 21.2296C115.426 21.0516 115.216 20.7723 115.032 20.3916C114.86 20.0413 114.663 19.591 114.44 19.0407C114.227 18.4867 114.017 17.8576 113.807 17.1535C113.605 16.4354 113.425 15.6862 113.268 14.9055L113.67 14.639C113.556 15.0821 113.43 15.5871 113.291 16.1537C113.159 16.7066 113.024 17.2833 112.887 17.8841C112.76 18.481 112.64 19.0694 112.529 19.649C112.429 20.2249 112.349 20.7643 112.291 21.2675C112.25 21.5005 112.173 21.7004 112.062 21.8672C111.96 22.0302 111.813 22.1467 111.621 22.2166C111.378 22.3049 111.156 22.3227 110.953 22.2701C110.757 22.2036 110.567 22.0891 110.382 21.9268C110.204 21.7507 110.028 21.5507 109.855 21.3266C109.764 21.1994 109.636 21.0219 109.473 20.7942C109.307 20.5563 109.13 20.288 108.941 19.9893C108.753 19.6906 108.562 19.3698 108.37 19.0268C108.176 18.684 107.995 18.3424 107.827 18.0022C107.653 17.6519 107.51 17.3196 107.396 17.0053L107.808 16.7181C107.644 17.34 107.516 17.937 107.426 18.5092C107.345 19.0778 107.306 19.6486 107.307 20.2218C107.315 20.7812 107.363 21.3718 107.451 21.9939C107.513 22.4188 107.577 22.7856 107.643 23.0944C107.72 23.3994 107.77 23.6336 107.795 23.7967C107.817 23.9837 107.799 24.1565 107.742 24.3149C107.685 24.4734 107.56 24.5876 107.368 24.6575ZM121.76 19.4094C120.92 19.7147 120.212 19.8 119.636 19.6651C119.057 19.5199 118.6 19.2096 118.268 18.7338C117.931 18.2479 117.708 17.6465 117.597 16.9295C117.528 16.3922 117.541 15.8255 117.634 15.2293C117.733 14.6194 117.916 14.0311 118.181 13.4645C118.455 12.8942 118.806 12.3937 119.234 11.9628C119.669 11.518 120.174 11.1907 120.751 10.9809C121.288 10.786 121.76 10.7121 122.166 10.7594C122.583 10.803 122.918 10.9682 123.17 11.2549C123.433 11.5381 123.606 11.9514 123.689 12.4952C123.789 13.0896 123.712 13.6512 123.457 14.18C123.198 14.6987 122.812 15.1661 122.298 15.5822C121.794 15.9948 121.208 16.3225 120.541 16.5652C119.852 16.8154 119.362 16.9017 119.07 16.8241C118.789 16.7428 118.632 16.5934 118.599 16.376C118.575 16.2469 118.59 16.1441 118.642 16.0677C118.69 15.9811 118.792 15.9102 118.943 15.855C119.055 15.8145 119.193 15.787 119.36 15.7724C119.533 15.7439 119.776 15.6727 120.09 15.5586C120.596 15.3747 121.026 15.1381 121.379 14.849C121.743 14.5562 122.012 14.2403 122.188 13.9013C122.359 13.5521 122.421 13.2026 122.374 12.8523C122.325 12.526 122.202 12.3126 122.005 12.212C121.818 12.1078 121.528 12.1274 121.133 12.2709C120.738 12.4144 120.391 12.6436 120.093 12.9586C119.802 13.2597 119.554 13.6194 119.35 14.0376C119.156 14.4521 119.025 14.8958 118.956 15.3684C118.887 15.8411 118.89 16.3102 118.967 16.7756C119.029 17.1663 119.144 17.5028 119.316 17.785C119.483 18.0569 119.723 18.2451 120.036 18.3494C120.355 18.4399 120.747 18.4006 121.213 18.2313C121.739 18.04 122.166 17.8104 122.493 17.5424C122.826 17.2607 123.091 16.9808 123.288 16.7026C123.485 16.4244 123.651 16.1863 123.786 15.9882C123.92 15.7903 124.058 15.6655 124.2 15.614C124.372 15.5514 124.517 15.5732 124.635 15.6792C124.761 15.7714 124.84 15.9263 124.873 16.1439C124.906 16.3614 124.846 16.6239 124.694 16.9316C124.549 17.2254 124.329 17.535 124.034 17.86C123.75 18.1814 123.411 18.4821 123.02 18.762C122.636 19.028 122.216 19.2438 121.76 19.4094ZM128.133 14.3393C127.749 14.479 127.398 14.5088 127.083 14.4284C126.767 14.348 126.494 14.1778 126.262 13.9178C126.04 13.6541 125.872 13.3309 125.757 12.9484C125.627 12.5595 125.546 12.147 125.514 11.7112C125.483 11.2752 125.492 10.8587 125.543 10.4616C125.604 10.0608 125.702 9.71531 125.838 9.42506C125.973 9.13488 126.147 8.95114 126.359 8.8739C126.461 8.83713 126.554 8.82613 126.639 8.84096C126.735 8.85207 126.818 8.8908 126.888 8.95724C126.954 9.01347 127.002 9.09924 127.033 9.21439C127.056 9.30936 127.056 9.46972 127.035 9.6954C127.021 9.90738 126.998 10.1622 126.968 10.4598C126.935 10.7473 126.924 11.0495 126.936 11.3666C126.944 11.6735 126.995 11.9706 127.087 12.2582C127.153 12.4408 127.226 12.5923 127.304 12.7131C127.378 12.8238 127.467 12.8948 127.57 12.9262C127.683 12.9539 127.81 12.942 127.952 12.8905C128.276 12.7728 128.581 12.5702 128.866 12.2829C129.151 11.9956 129.399 11.653 129.611 11.255C129.831 10.8534 130.008 10.4393 130.14 10.0127C130.268 9.57605 130.34 9.15958 130.357 8.76334L131.046 10.2857C130.876 10.9214 130.651 11.5193 130.373 12.0794C130.105 12.6358 129.779 13.1102 129.393 13.5025C129.019 13.8911 128.599 14.17 128.133 14.3393ZM132.265 15.6429C132.042 15.7238 131.854 15.6947 131.701 15.5554C131.544 15.406 131.399 15.2119 131.267 14.9731C131.177 14.7878 131.084 14.5463 130.987 14.2486C130.897 13.9371 130.815 13.5997 130.741 13.2366C130.667 12.8735 130.608 12.5219 130.565 12.1819C130.531 11.9302 130.502 11.6426 130.476 11.3192C130.446 10.9856 130.422 10.6502 130.403 10.3129C130.385 9.97553 130.372 9.65861 130.368 9.36188C130.36 9.05501 130.352 8.81122 130.343 8.6306C130.328 8.26938 130.347 7.97546 130.403 7.74874C130.468 7.51837 130.592 7.37011 130.774 7.30392C130.946 7.24135 131.132 7.29451 131.33 7.46328C131.529 7.63199 131.651 7.89154 131.698 8.24175C131.738 8.47949 131.763 8.81493 131.77 9.24811C131.775 9.67111 131.784 10.1093 131.8 10.5627C131.821 11.0022 131.855 11.3801 131.901 11.6962C131.972 12.2095 132.052 12.651 132.14 13.0206C132.228 13.3902 132.322 13.7119 132.421 13.9856C132.485 14.192 132.545 14.3593 132.603 14.4875C132.66 14.6156 132.698 14.7341 132.714 14.8428C132.736 14.9957 132.711 15.1483 132.64 15.3003C132.582 15.4587 132.457 15.5729 132.265 15.6429ZM136.927 13.897C136.461 14.0663 136.041 14.0926 135.667 13.9763C135.303 13.8562 134.993 13.6188 134.738 13.2638C134.494 12.9051 134.329 12.4489 134.243 11.8949C134.158 11.3752 134.149 10.8278 134.215 10.2528C134.288 9.66401 134.428 9.08541 134.634 8.51697C134.837 7.9384 135.096 7.40271 135.41 6.90987C135.73 6.40325 136.098 5.96546 136.514 5.59611C136.941 5.22319 137.401 4.94666 137.898 4.76636C138.13 4.68175 138.335 4.67633 138.51 4.75022C138.686 4.82404 138.793 4.99185 138.83 5.25358C138.854 5.38259 138.837 5.50924 138.779 5.6337C138.718 5.74788 138.604 5.84641 138.439 5.92922C137.767 6.28821 137.201 6.78081 136.741 7.40712C136.291 8.0297 135.968 8.70356 135.772 9.42864C135.583 10.14 135.536 10.8339 135.633 11.5103C135.678 11.8264 135.745 12.1061 135.833 12.3494C135.918 12.5827 136.079 12.8685 136.316 13.2068L135.359 12.3671C135.626 12.534 135.842 12.6273 136.01 12.6468C136.187 12.6626 136.413 12.6208 136.687 12.5214C137.334 12.2861 137.842 11.6312 138.208 10.5569C138.575 9.48265 138.754 8.04658 138.744 6.24873C138.745 6.03034 138.788 5.84843 138.873 5.70281C138.964 5.54342 139.096 5.43253 139.267 5.36997C139.501 5.28529 139.715 5.32228 139.91 5.48093C140.11 5.6258 140.256 5.85399 140.347 6.16548C140.538 6.819 140.727 7.40428 140.913 7.92141C141.107 8.4247 141.336 8.88103 141.599 9.29031C141.872 9.69595 142.231 10.0874 142.677 10.4646C142.775 10.5439 142.842 10.6513 142.879 10.7868C142.927 10.9186 142.938 11.0582 142.911 11.2056C142.895 11.3494 142.845 11.4821 142.763 11.6037C142.687 11.7114 142.579 11.7911 142.438 11.8426C142.286 11.8977 142.153 11.9115 142.04 11.8838C141.937 11.8523 141.835 11.7919 141.734 11.7025C141.497 11.4903 141.269 11.2575 141.051 11.0039C140.833 10.7504 140.621 10.4489 140.414 10.0995C140.214 9.73626 140.025 9.29424 139.847 8.77351C139.67 8.25273 139.499 7.62098 139.333 6.87809L139.874 6.66412C139.924 8.16077 139.805 9.41438 139.518 10.4252C139.242 11.4321 138.867 12.2165 138.394 12.7783C137.922 13.3401 137.433 13.713 136.927 13.897ZM142.493 4.92061C142.26 5.00528 142.053 5.00043 141.869 4.90643C141.696 4.80855 141.597 4.66107 141.571 4.46384C141.562 4.34125 141.587 4.22282 141.649 4.10863C141.711 3.99438 141.847 3.86458 142.057 3.71911C142.385 3.48525 142.838 3.21742 143.417 2.9155C144.004 2.61007 144.709 2.30822 145.528 2.01023C145.953 1.8557 146.347 1.72423 146.708 1.6157C147.076 1.49343 147.489 1.38361 147.946 1.2862C148.305 1.20169 148.598 1.18717 148.825 1.24252C149.06 1.29437 149.191 1.40177 149.216 1.5649C149.236 1.68377 149.228 1.80171 149.189 1.91879C149.158 2.02194 149.091 2.12093 148.988 2.21583C148.895 2.30698 148.762 2.38385 148.59 2.44633C148.377 2.52362 148.126 2.60365 147.835 2.68632C147.544 2.76915 147.233 2.85926 146.902 2.95666C146.578 3.0403 146.248 3.14284 145.913 3.26423C145.215 3.51813 144.664 3.75276 144.261 3.96807C143.855 4.17325 143.523 4.36288 143.265 4.53687C143.003 4.7007 142.746 4.82862 142.493 4.92061ZM146.931 10.2952C146.709 10.3762 146.509 10.3456 146.331 10.2035C146.164 10.0578 146.008 9.8504 145.865 9.58122C145.768 9.37565 145.663 9.08664 145.551 8.71431C145.446 8.32811 145.349 7.90415 145.262 7.44236C145.171 6.97051 145.091 6.51205 145.022 6.06687C144.931 5.46877 144.849 4.94206 144.775 4.48682C144.709 4.01766 144.649 3.63199 144.597 3.32966L145.93 2.74174C145.953 2.92885 145.981 3.16517 146.016 3.45089C146.057 3.72276 146.106 4.03197 146.163 4.37846C146.216 4.71489 146.267 5.06328 146.318 5.42364C146.375 5.77013 146.428 6.1065 146.478 6.43281C146.56 6.97653 146.648 7.42629 146.743 7.7821C146.844 8.12404 146.938 8.39967 147.025 8.60881C147.112 8.81811 147.187 8.99188 147.249 9.13012C147.306 9.25832 147.345 9.38177 147.366 9.50064C147.386 9.61951 147.382 9.73564 147.354 9.849C147.323 9.95214 147.269 10.0406 147.192 10.1143C147.12 10.198 147.033 10.2583 146.931 10.2952ZM153.859 7.74301C153.362 7.9233 152.933 7.98754 152.572 7.93562C152.205 7.87361 151.895 7.72826 151.64 7.49952C151.381 7.26071 151.175 6.9744 151.02 6.64072C150.87 6.29325 150.767 5.92922 150.71 5.54854C150.641 5.10336 150.604 4.60623 150.599 4.05699C150.591 3.49762 150.559 3.01569 150.505 2.61111C150.431 2.15578 150.357 1.79269 150.282 1.52173C150.207 1.25068 150.16 1.02678 150.142 0.849817C150.122 0.730858 150.122 0.621709 150.143 0.522191C150.174 0.419042 150.222 0.327367 150.285 0.247226C150.357 0.163429 150.459 0.0975927 150.591 0.0497819C150.874 -0.0532177 151.112 0.00361071 151.305 0.220295C151.505 0.423111 151.636 0.719936 151.697 1.11074C151.74 1.35869 151.774 1.65637 151.797 2.00374C151.816 2.341 151.834 2.69028 151.85 3.05153C151.867 3.41277 151.887 3.75517 151.913 4.07864C151.939 4.40212 151.968 4.67255 152.001 4.89005C152.065 5.29098 152.156 5.63667 152.273 5.927C152.386 6.20713 152.548 6.40087 152.759 6.50782C152.976 6.60109 153.261 6.58334 153.616 6.45449C153.909 6.34792 154.194 6.16973 154.47 5.92015C154.746 5.67063 154.986 5.38285 155.188 5.05678C155.391 4.73071 155.534 4.39762 155.617 4.0577C155.697 3.70748 155.689 3.38873 155.597 3.10108C155.549 2.96932 155.437 2.89546 155.258 2.87973C155.088 2.8501 154.835 2.89608 154.501 3.01747C154.126 3.15361 153.756 3.31682 153.39 3.50734C153.023 3.69792 152.681 3.89112 152.362 4.08721C152.044 4.28324 151.771 4.46285 151.544 4.62573C151.456 4.669 151.365 4.68504 151.27 4.67396C151.184 4.65913 151.108 4.62363 151.042 4.56731C150.985 4.50743 150.951 4.42814 150.938 4.32954C150.904 4.17007 150.905 4.03186 150.942 3.91485C150.987 3.78399 151.081 3.66378 151.225 3.5543C151.408 3.39587 151.628 3.22976 151.886 3.05577C152.15 2.86786 152.433 2.68468 152.735 2.50615C153.037 2.32756 153.339 2.16606 153.642 2.02158C153.941 1.86704 154.227 1.74005 154.501 1.64071C154.997 1.46041 155.4 1.38836 155.712 1.4245C156.032 1.45698 156.286 1.57135 156.472 1.76776C156.657 1.96418 156.795 2.21817 156.884 2.52972C157.022 2.97313 157.037 3.45548 156.927 3.97707C156.819 4.49851 156.617 5.01393 156.32 5.52338C156.034 6.02902 155.675 6.4804 155.246 6.87731C154.817 7.27413 154.355 7.56271 153.859 7.74301ZM38.1115 65.1105C37.8685 65.1989 37.6537 65.1278 37.4671 64.8973C37.2805 64.6668 37.1138 64.3487 36.9668 63.9431C36.8566 63.639 36.7589 63.2901 36.6736 62.8966C36.5847 62.4929 36.5008 62.0873 36.4219 61.6799C36.3431 61.2726 36.2684 60.8924 36.1978 60.5395C36.1373 60.1828 36.0819 59.8874 36.0314 59.6533C35.969 59.3547 35.9062 59.1021 35.8429 58.8956C35.7896 58.6855 35.7227 58.4689 35.6418 58.2459L36.0736 58.5364L34.9803 58.9338C34.6564 59.0515 34.2721 59.2084 33.8276 59.4044C33.3896 59.5865 32.9603 59.777 32.5397 59.9757C32.1191 60.1745 31.7749 60.3627 31.5071 60.5404L31.9177 59.4445C32.1436 60.0049 32.3158 60.5907 32.434 61.2017C32.5623 61.8091 32.6802 62.4662 32.7874 63.1731C32.8331 63.4892 32.8867 63.8427 32.9481 64.2334C33.0094 64.6241 33.0602 65.0016 33.1005 65.3656C33.1407 65.7297 33.1621 66.0258 33.1647 66.2545C33.1628 66.4388 33.1213 66.6087 33.0402 66.7644C32.9554 66.91 32.827 67.014 32.6549 67.0766C32.4524 67.1501 32.2708 67.1071 32.1099 66.9476C31.949 66.7881 31.8438 66.5452 31.7944 66.2189C31.7541 65.9811 31.7179 65.7074 31.6859 65.3978C31.6503 65.078 31.6058 64.7499 31.5527 64.4135C31.4996 64.0772 31.4525 63.773 31.4112 63.5011C31.3389 62.9537 31.2518 62.492 31.1499 62.1159C31.0546 61.7261 30.9655 61.3855 30.8829 61.0942C30.8104 60.7993 30.7518 60.5108 30.7068 60.2288C30.6868 59.9837 30.7155 59.7782 30.7929 59.6124C30.8804 59.4429 31.0314 59.2904 31.2458 59.1551C31.5643 58.9591 31.9458 58.763 32.3903 58.5671C32.8412 58.3573 33.3078 58.159 33.7901 57.9723C34.2824 57.7819 34.7512 57.6057 35.1966 57.4439C35.7837 57.2305 36.2512 57.1925 36.5988 57.3301C36.9465 57.4676 37.166 57.8525 37.2576 58.4847C37.2906 58.7022 37.3429 59.0045 37.4143 59.3916C37.4859 59.7787 37.5619 60.21 37.6426 60.6856C37.7333 61.1574 37.836 61.6307 37.9507 62.1054C38.0617 62.5699 38.182 62.9966 38.3114 63.3856C38.36 63.5515 38.4206 63.7188 38.4932 63.8875C38.5657 64.0562 38.614 64.2051 38.6378 64.3341C38.6552 64.4769 38.6183 64.628 38.5271 64.7874C38.4423 64.9329 38.3038 65.0406 38.1115 65.1105ZM44.2799 62.7826C43.7939 62.9592 43.3449 63.0478 42.9328 63.0485C42.5206 63.0491 42.1798 62.9779 41.9104 62.8349C41.6409 62.6918 41.4841 62.4964 41.4401 62.2485C41.4264 62.1158 41.4435 61.989 41.4914 61.8684C41.5394 61.7477 41.6291 61.6634 41.7607 61.6156C41.8619 61.5788 41.9622 61.5711 42.0616 61.5923C42.161 61.6135 42.2791 61.6395 42.4162 61.6699C42.5532 61.7005 42.7391 61.7075 42.9737 61.691C43.2046 61.6645 43.5024 61.585 43.8668 61.4526C44.4336 61.2465 44.875 60.9312 45.1908 60.5066C45.5132 60.0682 45.612 59.4872 45.4873 58.7637C45.4159 58.2504 45.2649 57.8177 45.0342 57.4655C44.81 57.0995 44.5301 56.8168 44.1944 56.6176C43.8551 56.4081 43.4756 56.2937 43.0561 56.274C42.6365 56.2544 42.194 56.3292 41.7284 56.4984C41.4955 56.583 41.2668 56.6949 41.0423 56.8338C40.8177 56.9728 40.6143 57.0754 40.4321 57.1416C40.3208 57.1821 40.2103 57.1936 40.1008 57.1759C39.9877 57.1483 39.8976 57.0892 39.8305 56.9989C39.7633 56.9085 39.7216 56.809 39.7051 56.7002C39.6667 56.4044 39.7735 56.1303 40.0258 55.8779C40.2846 55.6119 40.7328 55.3629 41.3705 55.1311C42.0487 54.8846 42.6933 54.7823 43.3041 54.8242C43.925 54.8624 44.4848 55.0318 44.9832 55.3327C45.478 55.6232 45.8926 56.0406 46.2271 56.5844C46.5681 57.1146 46.7963 57.7602 46.9117 58.5215C46.9895 59.021 46.9782 59.4955 46.8777 59.9452C46.7871 60.3912 46.6258 60.7997 46.3938 61.1709C46.158 61.532 45.8615 61.852 45.5044 62.131C45.1435 62.3998 44.7354 62.617 44.2799 62.7826ZM42.1221 67.973C42.0006 68.0171 41.8833 68.0253 41.7701 67.9976C41.6708 67.9763 41.5857 67.9154 41.5149 67.8149C41.4442 67.7144 41.3965 67.5826 41.3717 67.4195C41.347 67.2563 41.3512 67.0942 41.3845 66.933C41.4113 66.7856 41.4371 66.604 41.4621 66.3884C41.4908 66.1829 41.5061 65.9249 41.5082 65.6144C41.5103 65.3038 41.476 64.9089 41.4055 64.4297C41.3148 63.8315 41.1804 63.2551 41.0024 62.7002C40.8307 62.1314 40.6439 61.5683 40.4418 61.0107C40.2463 60.4392 40.0558 59.8658 39.8703 59.2907C39.6812 58.7054 39.5358 58.0985 39.4341 57.47C39.4122 57.2828 39.4113 57.1225 39.4317 56.989C39.452 56.8553 39.4986 56.7466 39.5713 56.6628C39.6505 56.5651 39.7559 56.4924 39.8874 56.4446C40.0494 56.3857 40.2012 56.3937 40.3428 56.4685C40.491 56.5293 40.6182 56.6437 40.7248 56.8115C40.8278 56.9691 40.8925 57.1637 40.919 57.395C41.018 58.0475 41.1514 58.653 41.3194 59.2116C41.4938 59.7562 41.6747 60.2872 41.862 60.8043C42.0594 61.3177 42.2417 61.8366 42.4088 62.3611C42.5759 62.8856 42.7029 63.4418 42.7899 64.0298C42.8789 64.5597 42.9309 65.0514 42.9462 65.5048C42.9616 65.9581 42.9397 66.3562 42.8805 66.699C42.8316 67.0381 42.7435 67.3167 42.6164 67.5351C42.4995 67.7497 42.3346 67.8957 42.1221 67.973ZM51.2986 60.3177C50.8329 60.4869 50.413 60.5134 50.0386 60.397C49.6743 60.277 49.3648 60.0394 49.1103 59.6845C48.8658 59.3258 48.7005 58.8695 48.6144 58.3157C48.5292 57.7959 48.5199 57.2485 48.5866 56.6735C48.6597 56.0847 48.7994 55.5061 49.0059 54.9377C49.2087 54.3591 49.4671 53.8235 49.7812 53.3306C50.1017 52.824 50.47 52.3861 50.8861 52.0168C51.3123 51.6439 51.7734 51.3673 52.2695 51.187C52.5023 51.1025 52.7065 51.0971 52.8821 51.1708C53.0578 51.2447 53.1644 51.4125 53.202 51.6742C53.2258 51.8033 53.2088 51.93 53.1507 52.0543C53.089 52.1685 52.9758 52.267 52.811 52.3499C52.1391 52.7088 51.573 53.2014 51.1126 53.8277C50.6622 54.4504 50.3393 55.1243 50.1438 55.8494C49.9547 56.5606 49.9082 57.2545 50.0043 57.931C50.0502 58.2471 50.1171 58.5268 50.2053 58.7702C50.2897 59.0033 50.4505 59.2892 50.6877 59.6275L49.7306 58.7878C49.9972 58.9548 50.2142 59.048 50.3817 59.0674C50.5592 59.0832 50.7847 59.0415 51.058 58.9421C51.7059 58.7067 52.2132 58.0518 52.5801 56.9776C52.947 55.9034 53.1256 54.4673 53.1158 52.6695C53.1168 52.451 53.1597 52.269 53.2445 52.1235C53.3357 51.9642 53.4673 51.8532 53.6394 51.7907C53.8722 51.706 54.0861 51.743 54.281 51.9017C54.4824 52.0465 54.6281 52.2747 54.7181 52.5862C54.9089 53.2397 55.098 53.8249 55.2854 54.3421C55.4792 54.8453 55.7075 55.3017 55.9704 55.711C56.2433 56.1166 56.6028 56.5081 57.0487 56.8853C57.1462 56.9646 57.2137 57.072 57.2514 57.2075C57.2991 57.3393 57.3096 57.4789 57.2828 57.6264C57.2661 57.7701 57.2168 57.9028 57.1349 58.0243C57.0594 58.1321 56.9508 58.2117 56.809 58.2633C56.6572 58.3184 56.5247 58.3322 56.4115 58.3044C56.3085 58.2731 56.2065 58.2126 56.1053 58.1231C55.8681 57.9111 55.6405 57.6782 55.4227 57.4247C55.2048 57.1711 54.9924 56.8696 54.7857 56.5202C54.5854 56.157 54.3967 55.715 54.2194 55.1942C54.0422 54.6734 53.8706 54.0416 53.7046 53.2988L54.2458 53.0849C54.2953 54.5815 54.1767 55.8351 53.8899 56.8458C53.6131 57.8528 53.2387 58.6372 52.7663 59.199C52.2939 59.7609 51.8047 60.1338 51.2986 60.3177ZM61.4471 56.5948C61.0422 56.7419 60.6479 56.8393 60.2642 56.887C59.887 56.9209 59.5392 56.9096 59.221 56.8531C58.9127 56.793 58.6492 56.6822 58.4304 56.5208C58.2216 56.3557 58.0833 56.1478 58.0154 55.8971C57.9631 55.721 57.9674 55.5589 58.0281 55.4106C58.0955 55.2484 58.1949 55.1435 58.3265 55.0956C58.448 55.0515 58.5763 55.0737 58.7115 55.1622C58.8531 55.237 59.0242 55.3297 59.2247 55.4404C59.4316 55.5373 59.6887 55.5988 59.9959 55.6248C60.2996 55.6407 60.6842 55.564 61.1498 55.3947C61.828 55.1482 62.3002 54.839 62.5663 54.4669C62.8389 54.0809 62.9183 53.7307 62.8045 53.4165C62.7521 53.2404 62.628 53.1191 62.4321 53.0527C62.2426 52.9724 61.9846 52.94 61.6579 52.9554C61.3276 52.9607 60.9117 53.0143 60.4103 53.1163C60.0073 53.2053 59.7317 53.2195 59.5837 53.1585C59.442 53.0838 59.3537 52.9667 59.3189 52.8072C59.2703 52.6414 59.3311 52.493 59.5013 52.3623C59.6717 52.2315 59.9699 52.0429 60.396 51.7962C60.9565 51.4777 61.3772 51.1527 61.6581 50.8211C61.949 50.4859 62.0481 50.1745 61.9554 49.887C61.8663 49.6095 61.6645 49.4476 61.3498 49.4014C61.0316 49.3449 60.6498 49.3976 60.2044 49.5595C59.6982 49.7435 59.302 49.9621 59.0157 50.2153C58.7257 50.4584 58.5034 50.6826 58.3487 50.888C58.2042 51.0897 58.0761 51.2108 57.9648 51.2512C57.8535 51.2918 57.7527 51.2824 57.6626 51.2234C57.5826 51.1607 57.5274 51.0718 57.4972 50.9565C57.4412 50.7703 57.4561 50.5584 57.5418 50.3207C57.6376 50.0793 57.7896 49.8348 57.9977 49.587C58.2159 49.3356 58.4925 49.1031 58.8275 48.8895C59.1691 48.6622 59.5574 48.4694 59.9927 48.3112C60.8834 47.9874 61.6002 47.9105 62.1429 48.0804C62.6957 48.2467 63.0649 48.6174 63.2503 49.1925C63.3439 49.5143 63.3295 49.8694 63.2068 50.2583C63.0906 50.6332 62.8484 51.0081 62.4801 51.383C62.1082 51.7476 61.589 52.0854 60.9227 52.3964L60.8249 52.1739C61.4526 51.9457 61.9877 51.8258 62.4302 51.8142C62.8792 51.7887 63.2425 51.8746 63.5202 52.072C63.8043 52.2556 64.0061 52.5437 64.1254 52.9363C64.2769 53.3861 64.2518 53.8543 64.0499 54.3407C63.8546 54.8133 63.5272 55.2535 63.0678 55.6614C62.6048 56.0592 62.0645 56.3703 61.4471 56.5948ZM66.5247 53.8199C66.5461 53.4679 66.59 53.0675 66.6566 52.6188C66.7195 52.1599 66.7921 51.6803 66.8743 51.18C66.9666 50.676 67.0626 50.1822 67.1624 49.6984C67.2685 49.2009 67.3741 48.7494 67.4793 48.344C67.6222 47.8216 67.7744 47.3245 67.9357 46.8529C68.097 46.3811 68.2689 45.9859 68.4512 45.6672C68.6401 45.3346 68.8307 45.1334 69.023 45.0635C69.2254 44.9899 69.4338 45.0117 69.6481 45.1289C69.8725 45.2424 70.1171 45.4748 70.3818 45.8261C70.5656 46.0806 70.7821 46.4092 71.0311 46.8121C71.2802 47.215 71.5388 47.6602 71.8071 48.1479C72.0718 48.6254 72.3231 49.1136 72.561 49.6123C72.799 50.1109 73.002 50.5764 73.17 51.0087L71.8779 51.6161C71.6915 51.1331 71.4651 50.6187 71.1986 50.073C70.9387 49.5135 70.6658 48.9815 70.3799 48.4773C70.0942 47.973 69.8291 47.5416 69.5846 47.1829C69.3364 46.8141 69.131 46.579 68.9682 46.4776L69.5163 46.1407C69.3173 46.6031 69.12 47.1338 68.9246 47.7326C68.7393 48.3278 68.587 48.9511 68.4678 49.6025C68.3783 50.0826 68.2966 50.5369 68.2227 50.9652C68.1488 51.3937 68.0865 51.8065 68.0355 52.2037C67.9911 52.587 67.9503 52.9804 67.9133 53.384L66.5247 53.8199ZM74.1517 54.3352C73.9493 54.4088 73.7666 54.3948 73.6039 54.2933C73.4411 54.1919 73.3488 54.0476 73.3268 53.8605C73.3029 53.7315 73.3026 53.525 73.3258 53.2412C73.3527 52.9675 73.3717 52.6566 73.383 52.3082C73.3944 51.9599 73.3716 51.6125 73.3148 51.2659L74.1424 51.8429C73.9933 51.8741 73.7632 51.9348 73.4522 52.0249C73.1514 52.1114 72.7731 52.2373 72.3176 52.4029C71.8924 52.5574 71.4539 52.7225 71.0021 52.8982C70.5567 53.0601 70.1132 53.227 69.6714 53.399C69.2398 53.5674 68.822 53.7422 68.418 53.9235C68.0103 54.0946 67.6196 54.2653 67.246 54.4355C66.876 54.6159 66.5433 54.7884 66.2479 54.9532L66.6472 54.2056C66.6748 54.3448 66.7132 54.5143 66.7628 54.7144C66.8123 54.9144 66.867 55.1126 66.9267 55.3088C66.9899 55.5154 67.0441 55.6964 67.0891 55.8522C67.1442 56.0043 67.1827 56.1107 67.2048 56.1716C67.2572 56.3477 67.2441 56.5015 67.1659 56.6332C67.0913 56.7751 66.9679 56.8773 66.7958 56.9399C66.644 56.9951 66.506 56.9936 66.3818 56.9355C66.2475 56.8809 66.1326 56.785 66.037 56.6477C65.9414 56.5103 65.8642 56.3605 65.8055 56.1983C65.765 56.0868 65.7224 55.9531 65.6774 55.7974C65.6223 55.6452 65.5773 55.4894 65.5425 55.3301C65.4975 55.1742 65.4686 55.0471 65.4558 54.9485C65.4375 54.7715 65.4469 54.6075 65.4838 54.4564C65.5068 54.2989 65.5727 54.1487 65.6814 54.0059C65.79 53.8631 65.9484 53.731 66.1563 53.6095C66.3947 53.477 66.721 53.3182 67.1351 53.1333C67.5557 52.9345 68.0306 52.7275 68.5597 52.5123C69.0954 52.2832 69.6498 52.0587 70.2231 51.8389C70.7928 51.6089 71.3407 51.3982 71.8672 51.2069C72.0393 51.1444 72.2214 51.0781 72.4138 51.0082C72.6162 50.9347 72.8256 50.8643 73.0418 50.7972C73.2581 50.7301 73.4679 50.6767 73.6712 50.6373C73.9758 50.5609 74.2062 50.5805 74.3626 50.6958C74.5291 50.8074 74.6406 51.0365 74.6974 51.383C74.7387 51.6549 74.7601 51.9512 74.7617 52.2719C74.7633 52.5925 74.7373 52.9003 74.6838 53.1952C74.644 53.4965 74.5758 53.7508 74.479 53.958C74.3924 54.1616 74.2833 54.2873 74.1517 54.3352ZM77.0396 50.9793C76.6751 51.1118 76.3477 50.9668 76.0573 50.5446C75.7668 50.1223 75.558 49.4983 75.4306 48.6726C75.3574 48.091 75.3472 47.6358 75.3998 47.3068C75.459 46.9641 75.5714 46.7052 75.7371 46.5302C75.8264 46.4289 75.9705 46.3364 76.1692 46.2527C76.3644 46.1588 76.5733 46.0714 76.796 45.9905C77.5349 45.7219 78.2509 45.4215 78.9439 45.0894C79.6433 44.7433 80.3019 44.3319 80.9195 43.8549L81.573 44.805C81.1201 45.1991 80.6084 45.5573 80.0377 45.8793C79.467 46.2015 78.8753 46.4969 78.2624 46.7656C77.6559 47.0204 77.0591 47.2545 76.472 47.4679L75.5418 47.6511C75.4567 47.0051 75.3655 46.3268 75.2685 45.6162C75.1715 44.9057 75.0799 44.2735 74.9938 43.7196C74.9462 43.4615 74.9555 43.2343 75.0218 43.0381C75.0882 42.8419 75.1974 42.7162 75.3492 42.661C75.6023 42.569 75.8262 42.6023 76.0212 42.761C76.2125 42.9094 76.3397 43.2132 76.4028 43.6721C76.4432 43.9099 76.4798 44.2006 76.5126 44.5444C76.5456 44.8882 76.5789 45.249 76.6126 45.6268C76.6566 46.001 76.695 46.36 76.7278 46.7037C76.7672 47.0336 76.8033 47.3074 76.8363 47.5248C76.9279 48.1571 77.0278 48.7174 77.136 49.2059C77.2506 49.6805 77.33 50.0418 77.3739 50.2898C77.395 50.4427 77.3715 50.5832 77.3034 50.7113C77.2489 50.8458 77.161 50.9351 77.0396 50.9793ZM82.278 49.0753C82.025 49.1674 81.7895 49.0866 81.5717 48.833C81.3639 48.5757 81.1732 48.1918 80.9997 47.6811C80.8326 47.1566 80.6978 46.5631 80.5952 45.9005C80.445 44.8536 80.343 44.0186 80.2891 43.3956C80.2418 42.7588 80.2233 42.2492 80.2337 41.8668C80.2338 41.6143 80.2634 41.3798 80.3224 41.1633C80.3814 40.9467 80.4971 40.8072 80.6692 40.7446C80.8918 40.6637 81.0873 40.7132 81.2555 40.893C81.4302 41.0589 81.5405 41.3 81.5862 41.6161C81.6476 42.0069 81.6795 42.4428 81.6819 42.9238C81.6945 43.4012 81.7452 43.9048 81.834 44.4348C81.933 45.0873 82.0471 45.6711 82.1765 46.1863C82.3123 46.6877 82.4358 47.1075 82.5469 47.4458C82.658 47.7841 82.7226 48.0417 82.7409 48.2186C82.7766 48.4122 82.749 48.5887 82.6578 48.748C82.5666 48.9074 82.44 49.0164 82.278 49.0753ZM86.7253 47.459C86.3812 47.5841 86.0785 47.6023 85.8172 47.5137C85.5661 47.4213 85.3472 47.2599 85.1606 47.0294C84.9704 46.7887 84.8183 46.5113 84.7044 46.1969C84.597 45.8688 84.5185 45.5416 84.4691 45.2154C84.4343 44.9297 84.4015 44.5859 84.3704 44.1842C84.3496 43.7786 84.3333 43.3543 84.3216 42.9111C84.31 42.4677 84.3025 42.0517 84.299 41.6629C84.3057 41.2702 84.3147 40.9629 84.3259 40.7408C84.3289 40.3382 84.3462 40.0221 84.3776 39.7926C84.4192 39.5596 84.5159 39.4154 84.6677 39.3602C84.7993 39.3124 84.9373 39.3138 85.0817 39.3646C85.2261 39.4154 85.3493 39.5026 85.4513 39.6262C85.5635 39.746 85.6356 39.8977 85.6678 40.081C85.6961 40.2544 85.7097 40.5133 85.7086 40.8579C85.7074 41.2026 85.704 41.5882 85.6982 42.0148C85.6924 42.4416 85.6934 42.8714 85.7014 43.3045C85.7057 43.7276 85.7326 44.1021 85.782 44.4284C85.8205 44.7242 85.8755 45.0025 85.9471 45.2634C86.015 45.5141 86.0986 45.7132 86.1978 45.8607C86.2935 45.9981 86.407 46.0429 86.5386 45.995C86.8626 45.8773 87.1678 45.4393 87.4545 44.6811C87.7512 43.9193 88.0247 42.9191 88.2749 41.6807C88.3967 41.1316 88.4941 40.6258 88.5671 40.1632C88.6401 39.7006 88.7062 39.298 88.7653 38.9553C88.8207 38.6024 88.8949 38.3172 88.988 38.0998C89.0811 37.8824 89.2036 37.746 89.3554 37.6909C89.5882 37.6063 89.7883 37.6368 89.9556 37.7825C90.1294 37.9144 90.2645 38.1292 90.361 38.4269C90.4564 38.6906 90.5639 39.0187 90.6832 39.4113C90.8126 39.8003 90.9458 40.1994 91.0826 40.6087C91.2157 41.0078 91.3498 41.3779 91.4848 41.7189C91.7282 42.2959 91.9583 42.7573 92.1752 43.103C92.3986 43.4349 92.5861 43.6995 92.7377 43.8968C92.8894 44.0942 92.9859 44.2656 93.0272 44.4112C93.0575 44.5264 93.0606 44.6458 93.0366 44.7693C93.0089 44.8826 92.9605 44.9863 92.8914 45.0802C92.8224 45.1741 92.7322 45.2414 92.6209 45.2818C92.2665 45.4105 91.929 45.2693 91.6082 44.8581C91.2874 44.4469 90.9451 43.8657 90.5813 43.1144C90.4288 42.7567 90.2672 42.3737 90.0964 41.9654C89.9356 41.5534 89.785 41.1377 89.6445 40.7183C89.5141 40.2952 89.3949 39.9025 89.2865 39.5403L89.782 39.5324C89.7384 39.9498 89.6774 40.4137 89.5988 40.9241C89.5203 41.4347 89.3979 42.093 89.2317 42.8992C89.086 43.5718 88.9006 44.2301 88.6756 44.8741C88.447 45.5079 88.172 46.0611 87.8506 46.5337C87.5357 46.9923 87.1605 47.3008 86.7253 47.459ZM100.762 42.3573C100.458 42.4677 100.091 42.4979 99.6606 42.4478C99.2264 42.3876 98.7752 42.2648 98.3071 42.0792C97.8491 41.8899 97.409 41.6713 96.9869 41.4231C96.5749 41.1713 96.2291 40.9125 95.9496 40.6469C95.7896 40.5215 95.6706 40.3984 95.5924 40.2776C95.5208 40.143 95.4661 40.0079 95.4285 39.8725C95.4295 39.7803 95.4369 39.6744 95.4508 39.5546C95.4646 39.4348 95.4974 39.3196 95.549 39.2091C95.6118 39.0027 95.7403 38.7093 95.9347 38.3289C96.1291 37.9484 96.3616 37.5311 96.6324 37.0769C96.9097 36.6091 97.2062 36.1627 97.5221 35.7381C97.8444 35.2997 98.1597 34.9212 98.4682 34.6026C98.7867 34.2803 99.0826 34.0694 99.356 33.9701C99.4673 33.9296 99.5625 33.9237 99.6416 33.9523C99.7308 33.9773 99.8053 34.0247 99.8651 34.0948C99.9248 34.1649 99.9643 34.2423 99.9836 34.3271C100.054 34.5539 99.9847 34.8202 99.7746 35.126C99.5647 35.4318 99.329 35.7297 99.0675 36.0198C98.6081 36.554 98.2126 37.0592 97.881 37.5353C97.5494 38.0115 97.2911 38.4209 97.1059 38.7637C96.9309 39.1027 96.8568 39.3247 96.8833 39.4297C96.8925 39.5182 96.967 39.6289 97.1067 39.7617C97.2465 39.8944 97.4409 40.0361 97.6901 40.1864C97.9495 40.3331 98.2461 40.472 98.58 40.6031C98.924 40.7305 99.2947 40.8367 99.692 40.9218C99.9284 40.9736 100.158 41.0221 100.381 41.0674C100.61 41.0989 100.8 41.1502 100.952 41.2212C101.11 41.2785 101.208 41.3748 101.246 41.5103C101.276 41.6255 101.277 41.7398 101.249 41.8531C101.222 41.9665 101.161 42.0687 101.068 42.1598C100.986 42.2473 100.883 42.3132 100.762 42.3573ZM95.7001 44.1798C95.4369 44.2755 95.212 44.208 95.0254 43.9775C94.8352 43.7369 94.6685 43.3558 94.5254 42.8341C94.3886 42.2986 94.2588 41.64 94.1361 40.8585C94.0867 40.5323 94.0418 40.1871 94.0016 39.8231C93.9715 39.4554 93.9414 39.0877 93.9113 38.72C93.8774 38.3422 93.8322 37.98 93.7754 37.6334C93.7663 37.5449 93.7521 37.4584 93.7327 37.3736C93.7199 37.2749 93.7021 37.1782 93.6792 37.0832C93.6462 36.8657 93.6413 36.6782 93.6643 36.5206C93.6875 36.3631 93.7317 36.2322 93.7971 36.1281C93.869 36.0102 93.9555 35.9329 94.0568 35.8961C94.2895 35.8115 94.5104 35.8517 94.719 36.0169C94.9342 36.1681 95.0693 36.4461 95.1242 36.8506C95.1655 37.1224 95.1983 37.4662 95.2228 37.8819C95.2539 38.2836 95.2835 38.6975 95.3117 39.1232C95.3399 39.549 95.377 39.9199 95.4227 40.236C95.5226 40.7964 95.6225 41.2936 95.7225 41.7277C95.8326 42.1581 95.9323 42.5121 96.0213 42.7895C96.1066 43.0568 96.1525 43.2466 96.1589 43.3591C96.1827 43.4881 96.1758 43.6112 96.1379 43.7281C96.1066 43.8313 96.0527 43.9198 95.9763 43.9934C95.9137 44.0735 95.8216 44.1357 95.7001 44.1798ZM104.593 40.9649C104.249 41.0899 103.946 41.1082 103.685 41.0195C103.434 40.9272 103.215 40.7658 103.029 40.5353C102.838 40.2946 102.686 40.0172 102.572 39.7028C102.465 39.3747 102.386 39.0475 102.337 38.7213C102.302 38.4356 102.269 38.0918 102.238 37.69C102.217 37.2845 102.201 36.8602 102.19 36.4169C102.178 35.9736 102.17 35.5576 102.167 35.1687C102.174 34.7761 102.183 34.4688 102.194 34.2467C102.197 33.8441 102.214 33.528 102.245 33.2985C102.287 33.0654 102.384 32.9212 102.536 32.8661C102.667 32.8182 102.805 32.8197 102.95 32.8705C103.094 32.9213 103.217 33.0085 103.319 33.1321C103.431 33.2519 103.504 33.4035 103.536 33.5869C103.564 33.7602 103.578 34.0191 103.577 34.3638C103.575 34.7085 103.572 35.0941 103.566 35.5207C103.56 35.9474 103.561 36.3773 103.569 36.8104C103.574 37.2334 103.6 37.608 103.65 37.9343C103.688 38.2301 103.743 38.5084 103.815 38.7692C103.883 39.02 103.966 39.219 104.066 39.3665C104.161 39.5039 104.275 39.5487 104.407 39.5009C104.73 39.3832 105.036 38.9452 105.322 38.187C105.619 37.4251 105.893 36.425 106.143 35.1866C106.265 34.6375 106.362 34.1317 106.435 33.6691C106.508 33.2065 106.574 32.8039 106.633 32.4611C106.689 32.1082 106.763 31.8231 106.856 31.6056C106.949 31.3883 107.071 31.2519 107.223 31.1968C107.456 31.1122 107.656 31.1426 107.823 31.2884C107.997 31.4203 108.132 31.6351 108.229 31.9328C108.325 32.1964 108.432 32.5246 108.551 32.9172C108.68 33.3062 108.814 33.7053 108.951 34.1145C109.083 34.5137 109.217 34.8838 109.353 35.2248C109.596 35.8018 109.826 36.2632 110.043 36.6089C110.266 36.9408 110.454 37.2054 110.606 37.4027C110.757 37.6 110.854 37.7715 110.895 37.9171C110.925 38.0323 110.928 38.1517 110.905 38.2752C110.877 38.3884 110.828 38.4921 110.759 38.5861C110.69 38.68 110.6 38.7472 110.488 38.7877C110.134 38.9165 109.797 38.7752 109.476 38.364C109.156 37.9528 108.813 37.3715 108.45 36.6202C108.297 36.2626 108.135 35.8796 107.964 35.4713C107.803 35.0592 107.653 34.6435 107.512 34.2241C107.382 33.801 107.263 33.4084 107.154 33.0462L107.65 33.0383C107.606 33.4557 107.545 33.9196 107.467 34.43C107.388 34.9405 107.266 35.5988 107.1 36.405C106.954 37.0777 106.768 37.736 106.544 38.3799C106.315 39.0138 106.04 39.567 105.719 40.0395C105.404 40.4982 105.028 40.8067 104.593 40.9649ZM42.4044 78.7632C41.2707 79.1753 40.3257 79.4441 39.5694 79.5699C38.8194 79.6817 38.2192 79.6531 37.7685 79.4841C37.3178 79.3151 36.9711 79.0225 36.7285 78.6054C36.4924 78.1752 36.3212 77.6233 36.2149 76.9509C36.1563 76.5361 36.0927 76.0602 36.024 75.5229C35.9554 74.9855 35.8932 74.4344 35.8375 73.8695C35.7781 73.2944 35.7228 72.7466 35.6717 72.2259C35.6204 71.7052 35.5794 71.244 35.5484 70.8422C35.5174 70.4403 35.5029 70.1473 35.5048 69.963C35.4756 69.6293 35.4928 69.3765 35.5564 69.2042C35.6264 69.0181 35.7374 68.8974 35.8892 68.8422C36.0614 68.7797 36.2182 68.7858 36.3598 68.8605C36.4978 68.9252 36.6131 69.0381 36.7059 69.1995C36.7951 69.3507 36.8507 69.5197 36.8726 69.7069C36.9047 69.8902 36.9366 70.1999 36.9686 70.6358C36.9968 71.0616 37.0355 71.5638 37.0848 72.1426C37.1442 72.7176 37.21 73.342 37.2822 74.0156C37.3609 74.6755 37.4534 75.3418 37.5597 76.0146C37.6796 76.8201 37.8186 77.3774 37.9767 77.6879C38.1448 77.9931 38.3642 78.1722 38.6345 78.2224C38.8673 78.2645 39.1585 78.2618 39.5081 78.2154C39.8541 78.1584 40.2452 78.0676 40.6814 77.9438C41.124 77.8061 41.6034 77.6432 42.1197 77.4552C43.1927 77.0655 44.0609 76.7264 44.7244 76.4398C45.3944 76.1389 45.9048 75.8558 46.2554 75.5907C46.6025 75.3154 46.8212 75.018 46.9116 74.6982C46.9687 74.5397 47.0034 74.3034 47.0156 73.9892C47.0241 73.6648 47.011 73.2967 46.9763 72.8847C46.9518 72.4691 46.9047 72.0387 46.8351 71.5936C46.7398 70.9513 46.6248 70.3332 46.4899 69.7397C46.3551 69.1462 46.2216 68.6037 46.0895 68.1125C45.9573 67.6213 45.8459 67.2028 45.755 66.8572C45.6641 66.5116 45.6069 66.2742 45.583 66.1452C45.5766 66.0327 45.5887 65.9079 45.6191 65.7706C45.6597 65.6296 45.7228 65.5034 45.8084 65.392C45.8941 65.2805 46.0027 65.2009 46.1343 65.1531C46.3064 65.0905 46.4775 65.1202 46.6476 65.2419C46.8242 65.3499 46.9514 65.5273 47.0295 65.7743C47.0919 65.9467 47.1727 66.2329 47.2718 66.6329C47.3672 67.0228 47.4727 67.472 47.5882 67.9808C47.714 68.4859 47.8282 69.0066 47.9308 69.543C48.0399 70.0656 48.1312 70.5545 48.2045 71.0098C48.2585 71.3803 48.307 71.7356 48.35 72.0756C48.393 72.4157 48.4254 72.7424 48.4473 73.0557C48.4655 73.3589 48.4814 73.64 48.4951 73.899C48.505 74.1478 48.4988 74.368 48.4767 74.5597C48.4312 75.0351 48.2584 75.4593 47.9582 75.8324C47.6581 76.2054 47.2517 76.554 46.739 76.8779C46.2227 77.192 45.5954 77.4997 44.8574 77.8025C44.1331 78.1116 43.3154 78.4319 42.4044 78.7632ZM42.0779 78.0042C41.9071 77.4694 41.7388 76.8307 41.5727 76.0879C41.4131 75.3312 41.2721 74.4989 41.1494 73.5912C41.0899 73.1424 41.0332 72.6696 40.9793 72.1728C40.9253 71.6761 40.8718 71.1965 40.8188 70.7338C40.762 70.261 40.7117 69.8375 40.6678 69.4634C40.6304 69.0754 40.5984 68.7658 40.5718 68.5345C40.5389 68.3169 40.5252 68.1211 40.5309 67.947C40.5328 67.7627 40.5628 67.6083 40.6209 67.4839C40.6752 67.3494 40.7682 67.2583 40.8999 67.2105C41.0618 67.1516 41.2136 67.1595 41.3552 67.2342C41.4969 67.309 41.6196 67.4423 41.7234 67.6339C41.8236 67.8156 41.8924 68.0373 41.93 68.299C42.028 68.9174 42.1172 69.6537 42.1976 70.508C42.278 71.3623 42.3776 72.2383 42.4966 73.1359C42.611 73.9894 42.7425 74.7792 42.891 75.5055C43.0497 76.2281 43.2075 76.8536 43.3645 77.3813L42.0779 78.0042ZM57.3493 73.4346C57.0457 73.545 56.6786 73.5752 56.248 73.5251C55.8138 73.4649 55.3626 73.3421 54.8945 73.1565C54.4365 72.9673 53.9964 72.7486 53.5743 72.5004C53.1623 72.2486 52.8165 71.9898 52.537 71.7243C52.377 71.5988 52.258 71.4757 52.1798 71.3549C52.1082 71.2203 52.0535 71.0853 52.0159 70.9498C52.0169 70.8576 52.0244 70.7517 52.0382 70.6319C52.0521 70.5121 52.0848 70.3969 52.1364 70.2864C52.1992 70.08 52.3277 69.7866 52.5221 69.4062C52.7165 69.0257 52.949 68.6084 53.2198 68.1543C53.4971 67.6864 53.7936 67.2401 54.1095 66.8155C54.4318 66.377 54.7471 65.9985 55.0556 65.6799C55.3741 65.3576 55.67 65.1468 55.9434 65.0474C56.0547 65.0069 56.1499 65.0011 56.229 65.0297C56.3182 65.0546 56.3927 65.1021 56.4525 65.1722C56.5122 65.2423 56.5517 65.3197 56.571 65.4045C56.6417 65.6313 56.5721 65.8975 56.3621 66.2033C56.1521 66.5091 55.9164 66.807 55.6549 67.0972C55.1955 67.6313 54.8 68.1365 54.4684 68.6126C54.1369 69.0889 53.8786 69.4983 53.6934 69.841C53.5183 70.18 53.4442 70.4021 53.4708 70.5071C53.4799 70.5956 53.5544 70.7062 53.6941 70.839C53.8339 70.9717 54.0283 71.1134 54.2775 71.2638C54.5369 71.4104 54.8335 71.5493 55.1674 71.6805C55.5114 71.8078 55.8821 71.914 56.2795 71.9991C56.5159 72.0509 56.7454 72.0994 56.968 72.1447C57.1971 72.1762 57.3875 72.2275 57.5392 72.2986C57.6974 72.3558 57.7953 72.4521 57.833 72.5876C57.8633 72.7029 57.8645 72.8171 57.8369 72.9305C57.8092 73.0438 57.7489 73.146 57.6559 73.2371C57.573 73.3247 57.4708 73.3905 57.3493 73.4346ZM52.2876 75.2571C52.0244 75.3528 51.7995 75.2854 51.6129 75.0548C51.4227 74.8142 51.2559 74.4331 51.1128 73.9114C50.976 73.3759 50.8462 72.7174 50.7235 71.9358C50.6741 71.6096 50.6292 71.2644 50.589 70.9005C50.5589 70.5327 50.5288 70.165 50.4987 69.7973C50.4649 69.4195 50.4196 69.0573 50.3628 68.7107C50.3537 68.6223 50.3395 68.5357 50.3202 68.4509C50.3074 68.3522 50.2895 68.2555 50.2666 68.1606C50.2336 67.9431 50.2287 67.7555 50.2517 67.5979C50.2749 67.4404 50.3192 67.3096 50.3846 67.2054C50.4564 67.0875 50.5429 67.0102 50.6442 66.9735C50.8769 66.8888 51.0978 66.929 51.3065 67.0942C51.5216 67.2454 51.6567 67.5234 51.7116 67.9279C51.7529 68.1999 51.7857 68.5435 51.8103 68.9592C51.8413 69.3609 51.8709 69.7748 51.8991 70.2005C51.9273 70.6263 51.9644 70.9972 52.0101 71.3133C52.11 71.8737 52.2099 72.3709 52.31 72.805C52.4201 73.2355 52.5197 73.5894 52.6087 73.8668C52.694 74.1341 52.7399 74.324 52.7463 74.4364C52.7702 74.5654 52.7632 74.6885 52.7253 74.8054C52.694 74.9086 52.6401 74.9971 52.5637 75.0707C52.5011 75.1509 52.409 75.213 52.2876 75.2571ZM63.1449 71.3455C62.3148 71.6471 61.5654 71.713 60.8966 71.5429C60.2381 71.3693 59.6954 71.01 59.269 70.4651C58.8489 69.9063 58.5697 69.1989 58.4314 68.3427C58.337 67.7344 58.3494 67.1678 58.4684 66.6425C58.5939 66.1035 58.7755 65.6245 59.0131 65.2053C59.2609 64.7825 59.5362 64.4358 59.8391 64.1651C60.1383 63.8842 60.4144 63.6978 60.6675 63.6058C60.7789 63.5653 60.8755 63.5474 60.9573 63.5521C61.0493 63.553 61.1284 63.5817 61.1947 63.638C61.2673 63.6804 61.3137 63.7611 61.3339 63.88C61.3567 64.1012 61.3437 64.3182 61.2948 64.531C61.2422 64.7337 61.0879 64.9561 60.832 65.1983C60.53 65.5031 60.2911 65.8079 60.1152 66.1129C59.9457 66.4039 59.8346 66.7139 59.782 67.0429C59.7256 67.3617 59.735 67.7198 59.8101 68.117C59.9457 68.9971 60.2807 69.6212 60.8149 69.9892C61.3455 70.3472 61.9752 70.3937 62.7041 70.1288C63.4127 69.8712 63.9384 69.3933 64.281 68.6951C64.6302 67.9829 64.7315 67.1716 64.5849 66.2611C64.4641 65.4215 64.193 64.8316 63.772 64.4912C63.3471 64.1407 62.831 64.0759 62.2237 64.2967C61.9099 64.4106 61.6636 64.5691 61.4851 64.7716C61.3165 64.9705 61.1425 65.2174 60.9629 65.5122C60.8358 65.7305 60.7386 65.9207 60.6713 66.0828C60.604 66.245 60.5377 66.3781 60.4723 66.4822C60.4134 66.5725 60.3181 66.6415 60.1865 66.6893C60.0448 66.7408 59.9169 66.7357 59.8029 66.6738C59.6953 66.5982 59.6232 66.4466 59.5865 66.2189C59.5425 65.9711 59.5726 65.6904 59.6768 65.3772C59.7911 65.0603 59.9532 64.7489 60.1632 64.4431C60.3797 64.1235 60.6328 63.8421 60.9228 63.599C61.2091 63.3458 61.5142 63.1604 61.8382 63.0427C62.5669 62.7778 63.2216 62.7349 63.8019 62.9141C64.3787 63.0831 64.8564 63.4373 65.2351 63.9767C65.6101 64.5059 65.8562 65.1851 65.9734 66.0146C66.1072 66.8266 66.0762 67.5951 65.8808 68.3202C65.6815 69.0352 65.3453 69.6565 64.872 70.1842C64.4089 70.7082 63.8332 71.0953 63.1449 71.3455ZM68.5575 69.3783C68.4157 69.4298 68.2879 69.4246 68.1739 69.3628C68.0736 69.3074 67.9876 69.2124 67.9159 69.0779C67.8342 68.947 67.7842 68.793 67.7659 68.6161C67.7402 68.4188 67.7483 68.1405 67.7899 67.7812C67.838 67.408 67.9137 66.9846 68.0171 66.511C68.1167 66.0273 68.2266 65.5399 68.3466 65.0488C68.4794 64.5301 68.6191 64.0146 68.7657 63.5023C68.9188 62.9762 69.0732 62.5013 69.229 62.0776C69.3812 61.6436 69.5134 61.2972 69.6258 61.0383C69.8064 60.6514 69.9993 60.3461 70.2047 60.1223C70.4164 59.8847 70.6539 59.7181 70.9171 59.6224C71.1601 59.5341 71.3582 59.5596 71.5118 59.6988C71.6617 59.828 71.8079 60.0101 71.9503 60.2451C72.0964 60.4903 72.254 60.7831 72.4231 61.1232C72.5921 61.4634 72.7699 61.8118 72.9564 62.1686C73.1393 62.5152 73.3285 62.848 73.5243 63.167C73.7595 63.5634 73.9677 63.9008 74.1487 64.1792C74.3399 64.454 74.5095 64.6849 74.6575 64.8721C74.8156 65.0556 74.9576 65.2105 75.0836 65.3368C75.2022 65.4429 75.3002 65.5393 75.3774 65.6259C75.4546 65.7126 75.5083 65.8136 75.5386 65.9287C75.5762 66.0642 75.5816 66.2057 75.5549 66.3531C75.5281 66.5005 75.4701 66.6249 75.3808 66.7262C75.3052 66.834 75.2016 66.9118 75.0701 66.9596C74.8777 67.0295 74.6726 67.0008 74.4547 66.8735C74.2431 66.7323 74.023 66.5198 73.7941 66.2358C73.5652 65.9518 73.3372 65.6388 73.1102 65.2967C72.9751 65.0819 72.7973 64.7966 72.5767 64.4408C72.3626 64.0711 72.1375 63.671 71.9013 63.2405C71.6615 62.7998 71.4392 62.3758 71.2342 61.9684C71.0395 61.5572 70.8856 61.2115 70.7727 60.9313L71.1204 60.9426C70.9325 61.3093 70.7449 61.7561 70.5578 62.283C70.3771 62.7962 70.1978 63.3605 70.0198 63.9759C69.852 64.5877 69.6965 65.2179 69.5535 65.8666C69.4205 66.5116 69.3129 67.1473 69.2307 67.7739C69.1512 68.2502 69.0672 68.6192 68.9787 68.8809C68.9003 69.1389 68.7599 69.3047 68.5575 69.3783ZM79.3485 65.4562C78.8728 65.6291 78.4409 65.6542 78.0526 65.5313C77.6645 65.4085 77.3413 65.1646 77.083 64.7995C76.8211 64.4242 76.6415 63.9444 76.5444 63.3601C76.43 62.633 76.3213 61.9381 76.2188 61.2755C76.1125 60.6027 76.0191 60.0285 75.9385 59.5529C75.8679 59.0737 75.8221 58.7576 75.8011 58.6046C75.7773 58.4756 75.7773 58.3493 75.8014 58.2259C75.8355 58.0987 75.8921 57.9863 75.9713 57.8887C76.0505 57.7911 76.1458 57.722 76.2571 57.6815C76.49 57.597 76.7042 57.651 76.9001 57.8437C77.1061 58.0327 77.2388 58.2886 77.2984 58.6112C77.3406 58.9171 77.3775 59.2881 77.4094 59.724C77.4515 60.1562 77.5063 60.5607 77.5742 60.9377C77.5879 61.0705 77.6062 61.2474 77.629 61.4685C77.6583 61.6759 77.6844 61.8902 77.7072 62.1113C77.7366 62.3187 77.7617 62.4989 77.7828 62.6518C77.8661 63.2297 78.0186 63.6505 78.2401 63.9142C78.4616 64.1779 78.7445 64.2472 79.0887 64.1221C79.281 64.0523 79.4752 63.9243 79.6713 63.7383C79.8775 63.5486 80.0626 63.3322 80.2265 63.0889C80.3868 62.8356 80.5079 62.5851 80.5899 62.3372C80.672 62.0895 80.6818 61.8794 80.6194 61.707C80.534 61.4397 80.386 61.2525 80.1754 61.1455C79.9749 61.0347 79.7196 60.9783 79.4096 60.9763C79.232 60.9605 79.0108 60.9664 78.7458 60.9938C78.4808 61.0213 78.2025 61.0593 77.9108 61.1079C77.6154 61.1465 77.3376 61.2016 77.0772 61.2733L76.9771 60.1909C77.3195 59.9976 77.6983 59.7624 78.1134 59.4853C78.5387 59.2045 78.9717 58.898 79.4126 58.5656C79.8535 58.2332 80.2723 57.9032 80.6691 57.5754C81.1193 57.2053 81.5069 56.8521 81.8318 56.5159C82.167 56.1762 82.4523 55.8888 82.688 55.654C82.9301 55.4054 83.1424 55.2479 83.3245 55.1818C83.6384 55.0677 83.9148 55.0877 84.1539 55.2418C84.3994 55.382 84.5492 55.6373 84.6033 56.0078C84.6499 56.3581 84.6948 56.7032 84.7378 57.0433C84.7872 57.3695 84.8353 57.7077 84.882 58.0579C84.9269 58.3399 84.9832 58.6694 85.0511 59.0464C85.1152 59.4132 85.1881 59.7883 85.2698 60.1717C85.3513 60.5551 85.4371 60.9026 85.5271 61.2141C85.6005 61.4169 85.6763 61.6418 85.7543 61.8888C85.8388 62.122 85.8911 62.298 85.9113 62.4169C85.9315 62.5359 85.9226 62.6538 85.8848 62.7708C85.8534 62.874 85.7945 62.9642 85.7079 63.0416C85.6352 63.1254 85.5432 63.1875 85.4318 63.228C85.2193 63.3053 85.0205 63.2627 84.8358 63.1005C84.6574 62.9243 84.5099 62.6911 84.3933 62.4007C84.2096 61.8937 84.0563 61.3757 83.9334 60.8467C83.8068 60.3075 83.6986 59.7559 83.6088 59.1919C83.5786 58.9505 83.5393 58.6837 83.4907 58.3915C83.4523 58.0956 83.4157 57.8049 83.3809 57.5192C83.3461 57.2335 83.3122 56.9819 83.2793 56.7644C83.2528 56.5331 83.2331 56.3681 83.2203 56.2695L83.6397 56.4785C83.4546 56.6949 83.2042 56.9524 82.8884 57.2507C82.5791 57.5352 82.221 57.8432 81.8141 58.1747C81.4036 58.496 80.9728 58.8247 80.5218 59.1608C80.0707 59.4968 79.611 59.8245 79.1424 60.144C78.6804 60.4496 78.2294 60.7225 77.7895 60.9627L77.743 60.36C77.8202 60.3205 77.938 60.2662 78.0963 60.1972C78.2611 60.1143 78.4548 60.0324 78.6775 59.9515C78.799 59.9074 78.9733 59.867 79.2006 59.8302C79.438 59.7899 79.6896 59.773 79.9555 59.7796C80.2315 59.7826 80.5052 59.8265 80.7765 59.9115C81.0543 59.9826 81.2962 60.1127 81.5022 60.3018C81.7182 60.4872 81.8782 60.7389 81.9819 61.0569C82.1049 61.4597 82.106 61.8895 81.9852 62.3466C81.8745 62.7998 81.6832 63.2365 81.4116 63.6565C81.1398 64.0765 80.8227 64.45 80.4599 64.7769C80.0936 65.0937 79.7231 65.3201 79.3485 65.4562ZM88.4778 58.0935C88.3159 58.1524 88.1691 58.1426 88.0377 58.0642C87.9025 57.9756 87.8 57.835 87.7302 57.6424C87.5448 57.0672 87.4002 56.5575 87.2965 56.1133C87.1993 55.6552 87.11 55.1713 87.0284 54.6617C86.9488 54.094 86.8883 53.6111 86.8472 53.2129C86.8162 52.8111 86.7912 52.4416 86.7722 52.1043C86.753 51.767 86.7169 51.4302 86.6638 51.0938C86.628 50.9002 86.642 50.7173 86.7055 50.5451C86.7655 50.3626 86.8916 50.2365 87.0839 50.1666C87.2965 50.0893 87.4966 50.1199 87.6842 50.2582C87.8681 50.3865 87.9958 50.644 88.0673 51.0311C88.1094 51.3371 88.1359 51.6316 88.1468 51.9145C88.1576 52.1974 88.1781 52.5227 88.2082 52.8904C88.2346 53.248 88.2876 53.7107 88.3673 54.2784C88.4286 54.6691 88.4882 54.9917 88.5461 55.2461C88.6038 55.5004 88.6556 55.7225 88.7015 55.9124C88.7474 56.1022 88.7896 56.282 88.8281 56.4516C88.8768 56.6175 88.9157 56.8041 88.9451 57.0115C88.9807 57.3313 88.9447 57.5796 88.8369 57.7564C88.7393 57.9296 88.6196 58.042 88.4778 58.0935ZM89.2205 61.8511C88.8459 61.9871 88.5226 61.9956 88.2503 61.8766C87.9744 61.7475 87.8057 61.4875 87.7444 61.0967C87.6958 60.8045 87.7433 60.5405 87.8871 60.3047C88.0307 60.069 88.2291 59.905 88.4822 59.813C88.9276 59.6512 89.2703 59.6643 89.5103 59.8524C89.7503 60.0406 89.8969 60.3028 89.95 60.6392C89.9765 60.8706 89.9349 61.1037 89.8253 61.3386C89.7258 61.5699 89.5242 61.7407 89.2205 61.8511Z" fill="#E71985"/>
<path d="M16.7598 59.5877C17.0959 59.2222 17.6633 59.1988 18.028 59.535C18.3927 59.8711 18.4166 60.4396 18.0805 60.805L16.7598 59.5877ZM16.9178 59.5603C17.2748 59.2158 17.8425 59.2266 18.1865 59.5839C18.5305 59.9414 18.5198 60.5104 18.1629 60.8549L16.9178 59.5603ZM31.0351 141.898C30.5956 142.127 30.0533 141.957 29.8241 141.517L26.0882 134.345C25.8589 133.905 26.029 133.362 26.4684 133.132C26.9079 132.902 27.4502 133.073 27.6794 133.513L31.0005 139.888L37.3654 136.562C37.804 136.332 38.3463 136.503 38.5756 136.943C38.8049 137.383 38.6348 137.926 38.1954 138.156L31.0351 141.898ZM17.4201 60.1963C18.0805 60.805 18.0805 60.805 18.0805 60.805L18.0799 60.8058C18.0799 60.8058 18.0779 60.8079 18.0766 60.8094C18.0733 60.8128 18.0688 60.818 18.0622 60.8252C18.0492 60.8395 18.0296 60.8611 18.0028 60.8905C17.9501 60.9488 17.8714 61.0363 17.7692 61.1516C17.5648 61.3821 17.2659 61.7235 16.8916 62.1633C16.1423 63.0433 15.091 64.3167 13.8879 65.8853C11.4778 69.0269 8.47217 73.3342 6.05779 78.0256C3.63624 82.7312 1.85258 87.7433 1.79609 92.3115C1.74071 96.8214 3.36234 100.907 7.82105 103.932L6.81426 105.42C1.7948 102.015 -0.0602505 97.3255 0.00148616 92.2898C0.0625044 87.3133 1.98899 82.0079 4.46225 77.2021C6.94397 72.3806 10.0182 67.9794 12.4643 64.7902C13.6889 63.1937 14.7605 61.896 15.5257 60.9969C15.909 60.5469 16.2163 60.1963 16.4278 59.9575C16.534 59.838 16.6157 59.7466 16.6725 59.6841C16.7005 59.6531 16.722 59.6293 16.7363 59.6134C16.7442 59.605 16.7493 59.5991 16.7533 59.5948C16.7552 59.5927 16.7579 59.5898 16.7579 59.5898L16.7592 59.5884C16.7592 59.5884 16.7598 59.5877 17.4201 60.1963ZM7.82105 103.932C19.9453 112.156 26.6939 119.545 30.1979 125.609C33.6992 131.667 33.9861 136.454 33.0651 139.391L31.3533 138.852C32.0805 136.531 31.9749 132.272 28.6451 126.509C25.3183 120.753 18.7962 113.548 6.81426 105.42L7.82105 103.932ZM17.5399 60.2078C18.1629 60.8549 18.1629 60.8549 18.1629 60.8549L18.1622 60.8555C18.1622 60.8555 18.16 60.8574 18.1587 60.8588C18.1561 60.8616 18.1506 60.8667 18.1437 60.8732C18.1309 60.886 18.1106 60.9059 18.0827 60.9331C18.0287 60.9866 17.9469 61.0674 17.8414 61.1738C17.6289 61.3874 17.3192 61.7039 16.9316 62.1135C16.1555 62.9331 15.0679 64.124 13.8291 65.6029C11.3485 68.5649 8.27536 72.6635 5.87106 77.2382C3.46116 81.8241 1.76389 86.8109 1.93535 91.572C2.10579 96.2808 4.10448 100.846 9.25564 104.672L8.18706 106.116C2.60008 101.967 0.332011 96.8963 0.142299 91.6372C-0.0463973 86.4303 1.80409 81.1178 4.28285 76.4008C6.76814 71.6725 9.92671 67.4652 12.4544 64.4474C13.7205 62.9361 14.832 61.7183 15.6294 60.8765C16.0276 60.4557 16.3481 60.1284 16.5692 59.9058C16.6802 59.7943 16.7659 59.7091 16.8248 59.6511C16.8538 59.6223 16.877 59.5999 16.8926 59.5847C16.9 59.5772 16.9061 59.5713 16.9102 59.5674C16.9122 59.5653 16.9149 59.5626 16.9149 59.5626L16.9171 59.5609C16.9171 59.5609 16.9178 59.5603 17.5399 60.2078ZM9.25564 104.672C30.8701 120.724 33.2926 135.581 31.4762 141.371L29.7636 140.832C31.246 136.108 29.5264 121.964 8.18706 106.116L9.25564 104.672Z" fill="#E71985"/>
</svg>
