<svg width="241" height="180" viewBox="0 0 241 180" fill="none" xmlns="http://www.w3.org/2000/svg">
<path d="M108.695 121.279C100.705 138.996 90.9301 156.635 80.7961 167.261C70.2944 178.768 59.4402 183.39 49.8909 173.891C34.389 158.472 21.8212 153.662 12.9783 153.557C21.9955 153.233 34.9131 157.566 50.6449 173.215C59.5344 182.057 70.3311 177.771 79.839 168.242C80.1583 167.922 80.4774 167.595 80.7961 167.261C90.9182 156.169 100.712 138.682 108.695 121.279Z" fill="#7831B2"/>
<path d="M123.008 87.5712C123.183 87.0487 122.901 86.4842 122.376 86.3097C121.851 86.1342 121.283 86.4164 121.108 86.939L123.008 87.5712ZM0.225546 157.646C0.193045 158.196 0.614316 158.668 1.16648 158.7L10.1645 159.228C10.7167 159.26 11.1906 158.841 11.2232 158.29C11.2556 157.741 10.8344 157.269 10.2823 157.236L2.28396 156.768L2.75475 148.804C2.78725 148.254 2.36599 147.782 1.81381 147.749C1.26165 147.718 0.787686 148.136 0.755185 148.687L0.225546 157.646ZM123.134 87.7009C123.31 87.1793 123.027 86.6139 122.502 86.4393C121.977 86.2648 121.41 86.546 121.235 87.0686L123.134 87.7009ZM0.001761 157.333C-0.0307399 157.883 0.390531 158.354 0.942696 158.387L9.94074 158.915C10.4929 158.947 10.9669 158.527 10.9994 157.977C11.0319 157.428 10.6106 156.955 10.0584 156.923L2.06017 156.454L2.53096 148.49C2.56346 147.94 2.14219 147.468 1.59002 147.436C1.03786 147.403 0.563897 147.823 0.531395 148.373L0.001761 157.333ZM121.108 86.939C117.784 96.8397 113.193 108.874 107.782 120.871L109.609 121.688C115.05 109.625 119.664 97.5288 123.008 87.5712L121.108 86.939ZM107.782 120.871C99.7999 138.569 90.0812 156.077 80.0699 166.574L81.5223 167.947C91.7791 157.193 101.61 139.423 109.609 121.688L107.782 120.871ZM80.0699 166.574C79.7562 166.903 79.4424 167.225 79.1285 167.539L80.5494 168.945C80.8743 168.619 81.1986 168.287 81.5223 167.947L80.0699 166.574ZM51.3526 172.509C35.5022 156.743 22.3309 152.223 12.9422 152.56L13.0145 154.554C21.6601 154.244 34.3239 158.39 49.937 173.92L51.3526 172.509ZM12.9422 152.56C7.34523 152.762 3.12139 154.692 0.559988 156.959L1.89067 158.45C4.07144 156.52 7.83737 154.739 13.0145 154.554L12.9422 152.56ZM79.1285 167.539C74.4353 172.243 69.5198 175.55 64.7832 176.646C60.1251 177.725 55.5558 176.691 51.3526 172.509L49.937 173.92C54.6235 178.582 59.8972 179.825 65.2369 178.589C70.4979 177.371 75.7347 173.77 80.5494 168.945L79.1285 167.539ZM121.235 87.0686C117.948 96.8576 113.3 108.841 107.784 120.865L109.607 121.694C115.152 109.605 119.826 97.5547 123.134 87.7009L121.235 87.0686ZM107.784 120.865C99.8128 138.244 90.0699 155.616 80.0549 166.59L81.5373 167.931C91.7664 156.723 101.613 139.121 109.607 121.694L107.784 120.865ZM80.0549 166.59C74.8509 172.292 69.6702 176.158 64.7247 177.491C59.8796 178.797 55.1415 177.705 50.5988 173.186L49.1831 174.597C54.1897 179.578 59.6534 180.924 65.248 179.416C70.7424 177.935 76.2396 173.736 81.5373 167.931L80.0549 166.59ZM50.5988 173.186C34.9936 157.664 22.1908 152.669 12.9903 152.56L12.9664 154.555C21.4517 154.655 33.7845 159.281 49.1831 174.597L50.5988 173.186ZM12.9903 152.56C7.27922 152.492 2.97338 154.312 0.336203 156.646L1.66689 158.137C3.88783 156.171 7.69274 154.492 12.9664 154.555L12.9903 152.56Z" fill="#7831B2"/>
<path d="M92.3252 32.144C92.0527 32.1904 91.8298 32.028 91.6562 31.6569C91.4925 31.272 91.3793 30.7206 91.3168 30.0028C91.2544 29.2851 91.2378 28.4441 91.267 27.4799C91.2772 27.1141 91.2999 26.6428 91.3348 26.0661C91.3678 25.4778 91.4064 24.8521 91.4509 24.1889C91.4934 23.5139 91.5319 22.8517 91.5665 22.2024C91.5991 21.5412 91.6262 20.9539 91.6476 20.4403L92.044 20.9374C91.7496 20.9268 91.308 20.9473 90.7194 20.999C90.1427 21.0487 89.4732 21.1263 88.711 21.2318C87.9468 21.3254 87.15 21.4429 86.3208 21.5841C86.0128 21.6365 85.7176 21.6929 85.4354 21.7531C85.1531 21.8133 84.8955 21.8754 84.6627 21.9393C84.4278 21.9915 84.2215 22.0327 84.0438 22.0629C83.8661 22.0931 83.6893 22.0929 83.5132 22.0622C83.3372 22.0315 83.1927 21.971 83.0798 21.8811C82.9785 21.789 82.9355 21.6809 82.9509 21.557C82.9617 21.3366 83.0507 21.1454 83.218 20.9833C83.3852 20.8213 83.6306 20.6885 83.9542 20.5848C84.2758 20.4694 84.6497 20.3753 85.0762 20.3027C85.6685 20.2019 86.2855 20.1029 86.9273 20.0057C87.5809 19.9066 88.2058 19.8184 88.8022 19.7411C89.3985 19.6639 89.9307 19.6035 90.3988 19.5603C90.8649 19.5052 91.2234 19.4624 91.4741 19.4318C92.1337 19.3681 92.5934 19.4173 92.8529 19.5795C93.1105 19.7299 93.2355 20.0668 93.228 20.59C93.2066 21.1036 93.1744 21.6615 93.1316 22.2637C93.0988 22.852 93.0599 23.4414 93.0151 24.0317C92.9822 24.6201 92.9491 25.1721 92.9158 25.6877C92.8826 26.2033 92.8598 26.6382 92.8475 26.9923C92.8186 28.0292 92.8413 28.9055 92.9156 29.6214C92.9997 30.3233 93.0345 30.8091 93.0199 31.0786C93.0148 31.2616 92.9889 31.43 92.9422 31.5836C92.8954 31.7373 92.8189 31.8596 92.7126 31.9505C92.6202 32.0513 92.4911 32.1157 92.3252 32.144ZM85.1789 33.3426C84.9893 33.3749 84.8173 33.3313 84.6627 33.212C84.5178 33.0788 84.4053 32.8855 84.3251 32.6321C84.2429 32.3668 84.208 32.0571 84.2202 31.7029C84.2281 31.2524 84.2476 30.7634 84.2789 30.2361C84.3199 29.6948 84.3628 29.1291 84.4076 28.5387C84.4524 27.9484 84.4823 27.3423 84.4973 26.7205C84.5129 26.2444 84.5243 25.7082 84.5317 25.1122C84.5368 24.5042 84.5242 23.8993 84.4939 23.2975C84.4614 22.6838 84.3879 22.1499 84.2734 21.696L85.8858 21.0754C85.9629 21.5237 86.0146 22.0368 86.0408 22.6152C86.079 23.1915 86.0994 23.7707 86.102 24.3531C86.1164 24.9334 86.1119 25.4744 86.0885 25.9761C86.0783 26.3421 86.0664 26.769 86.0527 27.257C86.037 27.7332 86.0195 28.2339 86.0002 28.7592C85.9787 29.2728 85.9543 29.7686 85.9268 30.2468C85.9111 30.723 85.8972 31.1382 85.8849 31.4923C85.8727 31.8465 85.861 32.0973 85.8497 32.2449C85.8375 32.5991 85.7676 32.866 85.6399 33.0455C85.5221 33.2114 85.3684 33.3103 85.1789 33.3426ZM100.02 30.8338C99.0482 30.9992 98.2121 30.9231 97.5112 30.6053C96.8222 30.2855 96.2973 29.7861 95.9367 29.107C95.5859 28.414 95.4191 27.5864 95.4365 26.6243C95.4533 25.9416 95.5789 25.3253 95.8136 24.7754C96.0581 24.2118 96.3522 23.7246 96.6962 23.3139C97.052 22.9013 97.4229 22.5771 97.8092 22.3413C98.1934 22.0938 98.5335 21.9448 98.8298 21.8944C98.9601 21.8722 99.0697 21.8718 99.1587 21.893C99.2595 21.9123 99.3407 21.9592 99.4023 22.0337C99.4737 22.0943 99.5088 22.1915 99.5074 22.3253C99.4888 22.5714 99.4315 22.8057 99.3356 23.0284C99.2378 23.2393 99.0244 23.4516 98.6954 23.6656C98.3034 23.9387 97.9806 24.2243 97.7271 24.5225C97.4833 24.8068 97.2999 25.1232 97.1771 25.472C97.0522 25.809 96.9917 26.2017 96.9956 26.6502C96.9703 27.6379 97.2148 28.3855 97.7288 28.8929C98.2408 29.3884 98.9233 29.5636 99.7762 29.4183C100.605 29.2771 101.277 28.8593 101.792 28.1646C102.317 27.4561 102.588 26.5903 102.607 25.5672C102.64 24.6267 102.46 23.929 102.064 23.4743C101.667 23.0078 101.113 22.835 100.403 22.956C100.035 23.0185 99.7333 23.1428 99.4971 23.3287C99.2726 23.5126 99.0327 23.7477 98.7771 24.034C98.5942 24.2474 98.4499 24.4358 98.3439 24.5995C98.2379 24.7632 98.1387 24.8955 98.0463 24.9962C97.9638 25.0832 97.8454 25.1397 97.6914 25.1659C97.5256 25.1941 97.3861 25.1632 97.2731 25.0733C97.1698 24.9694 97.1207 24.7896 97.1255 24.5339C97.1262 24.2544 97.2147 23.9541 97.3912 23.6327C97.5794 23.3092 97.819 23.0013 98.1102 22.7089C98.4111 22.4027 98.7449 22.1455 99.1115 21.9375C99.476 21.7176 99.8478 21.5753 100.226 21.5108C101.08 21.3656 101.807 21.4481 102.41 21.7583C103.01 22.0568 103.464 22.5379 103.773 23.2015C104.08 23.8534 104.217 24.6437 104.181 25.5724C104.167 26.4853 103.981 27.3182 103.624 28.0712C103.263 28.8125 102.77 29.4244 102.146 29.9071C101.534 30.3877 100.825 30.6966 100.02 30.8338ZM110.324 29.0246C109.446 29.1739 108.694 29.1259 108.067 28.8807C107.449 28.6216 106.976 28.2046 106.645 27.6295C106.325 27.0408 106.176 26.3252 106.203 25.4832C106.226 24.7629 106.369 24.0767 106.635 23.4244C106.911 22.7584 107.283 22.1607 107.753 21.6315C108.233 21.0885 108.777 20.6376 109.386 20.279C109.995 19.9204 110.643 19.6825 111.33 19.5656C111.639 19.5131 111.919 19.5139 112.172 19.5678C112.423 19.6101 112.617 19.7106 112.754 19.8694C112.901 20.0143 112.967 20.2158 112.95 20.4735C112.941 20.7057 112.883 20.8978 112.774 21.0497C112.664 21.1898 112.52 21.275 112.343 21.3053C112.213 21.3275 112.107 21.321 112.028 21.2859C111.949 21.2509 111.864 21.2168 111.773 21.1837C111.694 21.1487 111.566 21.1462 111.388 21.1765C110.712 21.2915 110.108 21.5704 109.575 22.0133C109.039 22.4445 108.611 22.9666 108.29 23.5798C107.978 24.1791 107.81 24.7966 107.785 25.4322C107.787 25.9417 107.873 26.3702 108.042 26.7177C108.223 27.0514 108.483 27.2923 108.825 27.4404C109.18 27.5865 109.588 27.6202 110.05 27.5415C110.571 27.4527 110.976 27.3231 111.263 27.1528C111.549 26.9706 111.768 26.7877 111.919 26.6041C112.082 26.4185 112.213 26.2565 112.311 26.1184C112.407 25.9685 112.532 25.8805 112.686 25.8542C112.912 25.8159 113.074 25.8428 113.175 25.9348C113.288 26.0248 113.343 26.2036 113.341 26.4711C113.325 26.8745 113.183 27.2568 112.917 27.618C112.647 27.9673 112.284 28.2659 111.827 28.5137C111.381 28.7595 110.881 28.9299 110.324 29.0246ZM116.178 28.0642C115.893 28.1127 115.651 27.9839 115.452 27.6778C115.253 27.3717 115.162 26.8773 115.179 26.1946C115.183 25.8661 115.213 25.3633 115.267 24.6863C115.319 23.9975 115.452 23.2464 115.666 22.4331C115.914 21.468 116.155 20.6987 116.385 20.1253C116.613 19.54 116.862 19.1032 117.129 18.8149C117.396 18.5265 117.69 18.3552 118.009 18.3006C118.259 18.2584 118.465 18.3263 118.63 18.5047C118.807 18.681 118.949 18.9056 119.057 19.1786C119.165 19.4517 119.261 19.7266 119.345 20.0036C119.458 20.373 119.589 20.7817 119.739 21.2297C119.901 21.6755 120.069 22.1263 120.246 22.5819C120.433 23.0356 120.629 23.4637 120.833 23.8661C121.048 24.2666 121.269 24.5991 121.498 24.8638L120.883 25.1142C121.11 24.3834 121.361 23.6485 121.637 22.9095C121.912 22.1707 122.193 21.4612 122.478 20.7814C122.764 20.1015 123.037 19.4905 123.297 18.9484C123.589 18.3765 123.847 17.9624 124.071 17.7057C124.307 17.447 124.531 17.2994 124.745 17.2631C124.899 17.2369 125.047 17.248 125.189 17.2967C125.329 17.3334 125.455 17.3851 125.564 17.4515C125.716 17.5591 125.844 17.7012 125.947 17.8778C126.051 18.0544 126.112 18.3354 126.13 18.721C126.169 19.5884 126.23 20.3671 126.312 21.0573C126.404 21.7338 126.495 22.3009 126.586 22.759C126.738 23.5708 126.909 24.2095 127.098 24.6749C127.3 25.1383 127.396 25.4439 127.385 25.5915C127.387 25.7488 127.325 25.8868 127.199 26.0053C127.087 26.1337 126.937 26.214 126.747 26.2463C126.462 26.2947 126.203 26.1994 125.966 25.9603C125.742 25.7193 125.567 25.3729 125.44 24.9209C125.319 24.5043 125.191 23.9737 125.056 23.329C124.933 22.6823 124.826 21.9539 124.736 21.1437C124.654 20.3197 124.605 19.4661 124.587 18.5829L125.082 18.3712C124.869 18.8325 124.629 19.3588 124.366 19.9501C124.112 20.5276 123.849 21.1306 123.58 21.7594C123.321 22.3861 123.074 23.0049 122.838 23.6157C122.613 24.2245 122.419 24.7978 122.256 25.3357C122.164 25.582 122.04 25.7851 121.885 25.9451C121.741 26.103 121.557 26.2013 121.332 26.2396C121.048 26.2879 120.8 26.2634 120.587 26.166C120.386 26.0547 120.2 25.8922 120.028 25.6784C119.867 25.4509 119.714 25.1978 119.569 24.919C119.493 24.7619 119.388 24.543 119.254 24.2623C119.119 23.9697 118.977 23.6418 118.83 23.2784C118.681 22.9151 118.535 22.5272 118.391 22.1146C118.247 21.7022 118.116 21.2935 117.997 20.8887C117.877 20.4722 117.785 20.081 117.723 19.7154L118.232 19.4831C117.928 20.1296 117.67 20.7564 117.458 21.3632C117.256 21.9679 117.1 22.5834 116.989 23.2095C116.887 23.8217 116.823 24.4761 116.796 25.1727C116.779 25.6488 116.777 26.062 116.789 26.4121C116.813 26.7602 116.822 27.0258 116.817 27.2088C116.804 27.4173 116.75 27.6025 116.656 27.7643C116.562 27.9259 116.402 28.0259 116.178 28.0642ZM133.632 25.1103C132.66 25.2757 131.824 25.1995 131.123 24.8818C130.434 24.5621 129.909 24.0627 129.549 23.3834C129.198 22.6904 129.032 21.8629 129.049 20.9009C129.066 20.2182 129.191 19.6019 129.426 19.052C129.671 18.4883 129.964 18.0012 130.309 17.5905C130.664 17.1778 131.035 16.8536 131.422 16.6179C131.806 16.3704 132.146 16.2214 132.442 16.1709C132.572 16.1488 132.683 16.1483 132.771 16.1696C132.872 16.1889 132.953 16.2357 133.015 16.3102C133.086 16.3709 133.121 16.4681 133.12 16.6019C133.101 16.8478 133.044 17.0822 132.948 17.305C132.85 17.5159 132.636 17.7282 132.308 17.9421C131.915 18.2153 131.593 18.5009 131.339 18.799C131.096 19.0833 130.913 19.3998 130.79 19.7485C130.664 20.0855 130.604 20.4782 130.608 20.9268C130.582 21.9145 130.828 22.662 131.341 23.1693C131.853 23.665 132.535 23.8401 133.389 23.6949C134.218 23.5537 134.89 23.1357 135.405 22.4411C135.928 21.7326 136.201 20.8669 136.22 19.8438C136.253 18.9033 136.072 18.2056 135.677 17.7509C135.279 17.2843 134.726 17.1115 134.015 17.2326C133.648 17.2951 133.346 17.4194 133.109 17.6053C132.885 17.7891 132.645 18.0243 132.389 18.3106C132.207 18.5238 132.063 18.7123 131.956 18.8761C131.85 19.0398 131.751 19.172 131.659 19.2728C131.576 19.3597 131.458 19.4163 131.303 19.4425C131.138 19.4707 130.999 19.4398 130.886 19.3497C130.783 19.2459 130.734 19.0661 130.738 18.8103C130.739 18.531 130.827 18.2306 131.004 17.9092C131.192 17.5858 131.432 17.2779 131.723 16.9855C132.024 16.6793 132.357 16.4221 132.724 16.214C133.088 15.9941 133.461 15.8519 133.839 15.7874C134.693 15.6422 135.42 15.7246 136.022 16.0349C136.621 16.3334 137.076 16.8144 137.386 17.4781C137.693 18.1299 137.829 18.9202 137.793 19.849C137.78 20.7619 137.594 21.5948 137.235 22.3478C136.875 23.089 136.383 23.701 135.759 24.1836C135.146 24.6643 134.437 24.9732 133.632 25.1103ZM139.47 16.7226C139.197 16.769 138.97 16.7227 138.788 16.5838C138.616 16.4429 138.537 16.2623 138.548 16.0419C138.561 15.906 138.613 15.7819 138.704 15.6694C138.794 15.5568 138.969 15.442 139.229 15.3248C139.636 15.1343 140.186 14.9313 140.881 14.7159C141.587 14.4985 142.42 14.308 143.38 14.1447C143.877 14.0599 144.335 13.9941 144.754 13.9471C145.182 13.8863 145.657 13.8479 146.179 13.8319C146.59 13.8105 146.914 13.8524 147.151 13.9577C147.401 14.0609 147.523 14.204 147.518 14.3869C147.517 14.5208 147.484 14.6478 147.419 14.7681C147.364 14.8745 147.271 14.9693 147.138 15.0525C147.018 15.1337 146.858 15.1914 146.657 15.2257C146.407 15.2681 146.115 15.3057 145.779 15.3386C145.444 15.3715 145.084 15.4084 144.701 15.4494C144.328 15.4765 143.946 15.5234 143.555 15.5899C142.738 15.7291 142.086 15.8764 141.601 16.0319C141.113 16.1756 140.711 16.317 140.393 16.456C140.074 16.5833 139.766 16.6721 139.47 16.7226ZM143.282 23.4672C143.021 23.5116 142.808 23.4387 142.641 23.2486C142.485 23.0564 142.356 22.7992 142.252 22.477C142.186 22.2334 142.128 21.8972 142.079 21.4685C142.039 21.026 142.017 20.5442 142.013 20.0229C142.007 19.4898 142.009 18.9733 142.021 18.4736C142.04 17.8026 142.054 17.2114 142.063 16.6998C142.083 16.1745 142.094 15.7417 142.096 15.4013L143.677 15.0229C143.664 15.2314 143.648 15.4951 143.63 15.8139C143.621 16.1188 143.614 16.4661 143.608 16.8556C143.6 17.2334 143.588 17.624 143.572 18.0274C143.565 18.4169 143.557 18.7947 143.547 19.1607C143.53 19.7706 143.538 20.2791 143.572 20.6862C143.615 21.0795 143.664 21.3989 143.718 21.6446C143.772 21.8902 143.82 22.0947 143.86 22.2578C143.898 22.4091 143.916 22.5517 143.915 22.6855C143.914 22.8193 143.887 22.9452 143.834 23.0635C143.779 23.17 143.702 23.2559 143.604 23.3212C143.508 23.3984 143.4 23.4471 143.282 23.4672ZM152.762 21.7254C152.193 21.8222 151.682 21.8303 151.23 21.7496C150.777 21.6689 150.416 21.5239 150.149 21.3144C149.881 21.1051 149.748 20.8607 149.748 20.5814C149.76 20.4338 149.803 20.2988 149.88 20.1765C149.957 20.0542 150.072 19.9799 150.226 19.9537C150.344 19.9335 150.456 19.9449 150.562 19.9877C150.666 20.0306 150.791 20.0821 150.935 20.1426C151.079 20.2029 151.283 20.2474 151.543 20.2757C151.802 20.2924 152.145 20.2643 152.572 20.1917C153.235 20.0787 153.782 19.8217 154.213 19.4206C154.654 19.0055 154.877 18.3908 154.883 17.5763C154.906 17.0017 154.826 16.4994 154.643 16.0694C154.468 15.6255 154.217 15.2616 153.888 14.9778C153.556 14.6821 153.162 14.4821 152.706 14.3777C152.249 14.2734 151.747 14.2676 151.202 14.3605C150.93 14.4069 150.657 14.4838 150.383 14.5912C150.109 14.6986 149.864 14.7704 149.652 14.8067C149.521 14.8289 149.398 14.8195 149.282 14.7787C149.162 14.7262 149.075 14.6439 149.019 14.532C148.963 14.42 148.937 14.3032 148.94 14.1812C148.957 13.8506 149.128 13.5725 149.456 13.3468C149.792 13.1073 150.334 12.924 151.08 12.797C151.874 12.6619 152.602 12.6774 153.265 12.8439C153.94 13.0082 154.521 13.3039 155.008 13.7306C155.494 14.1457 155.868 14.6832 156.127 15.3431C156.396 15.9892 156.52 16.7392 156.495 17.5931C156.482 18.1538 156.376 18.6697 156.177 19.1408C155.989 19.6098 155.731 20.024 155.403 20.3834C155.072 20.731 154.684 21.0219 154.236 21.2559C153.786 21.4782 153.295 21.6347 152.762 21.7254ZM149.365 26.9659C149.224 26.9901 149.092 26.9758 148.974 26.9233C148.869 26.8804 148.788 26.7971 148.73 26.6735C148.672 26.5498 148.646 26.3964 148.651 26.2134C148.656 26.0304 148.693 25.8542 148.761 25.6848C148.819 25.5291 148.884 25.3361 148.954 25.1056C149.026 24.8869 149.094 24.6083 149.157 24.2696C149.222 23.9309 149.262 23.493 149.28 22.9559C149.309 22.0646 149.256 21.1874 149.119 20.3243C148.983 19.4612 148.839 18.5873 148.687 17.7027C148.544 16.8043 148.479 15.8927 148.49 14.968C148.499 14.6631 148.562 14.4277 148.68 14.2619C148.808 14.0824 148.978 13.9745 149.191 13.9381C149.381 13.9058 149.546 13.9444 149.687 14.054C149.837 14.1499 149.955 14.2999 150.039 14.5041C150.121 14.6966 150.153 14.9216 150.137 15.1794C150.116 15.9113 150.143 16.5988 150.217 17.2419C150.301 17.871 150.394 18.4864 150.497 19.088C150.613 19.6875 150.711 20.2901 150.79 20.8957C150.87 21.5012 150.9 22.1336 150.879 22.7928C150.872 23.3889 150.832 23.9359 150.759 24.434C150.686 24.9321 150.584 25.3623 150.45 25.7249C150.329 26.0854 150.178 26.3723 149.995 26.5855C149.823 26.7967 149.614 26.9235 149.365 26.9659ZM160.646 20.4923C160.243 20.5609 159.907 20.521 159.637 20.3726C159.38 20.2221 159.172 20.0028 159.012 19.7142C158.851 19.4139 158.739 19.0809 158.676 18.7152C158.623 18.3357 158.602 17.9631 158.612 17.5971C158.63 17.2784 158.662 16.8965 158.707 16.4517C158.764 16.0049 158.83 15.5383 158.905 15.0521C158.98 14.5659 159.054 14.1102 159.127 13.6849C159.213 13.2576 159.283 12.9239 159.34 12.6836C159.422 12.2445 159.504 11.9029 159.584 11.6586C159.675 11.4123 159.811 11.274 159.988 11.2438C160.142 11.2176 160.293 11.2465 160.441 11.3304C160.591 11.4144 160.709 11.5339 160.796 11.689C160.895 11.8419 160.945 12.0217 160.943 12.2284C160.94 12.4231 160.904 12.7085 160.835 13.0846C160.765 13.4606 160.685 13.881 160.595 14.3456C160.504 14.8104 160.419 15.2799 160.343 15.7544C160.264 16.217 160.219 16.6312 160.209 16.9972C160.193 17.3278 160.198 17.6425 160.225 17.9414C160.25 18.2286 160.302 18.4625 160.382 18.6431C160.46 18.812 160.577 18.8833 160.73 18.8571C161.109 18.7926 161.531 18.3747 161.996 17.6036C162.473 16.8303 162.971 15.7924 163.491 14.4898C163.733 13.9144 163.941 13.3814 164.112 12.8907C164.283 12.4002 164.435 11.9737 164.569 11.6111C164.699 11.2368 164.837 10.9401 164.982 10.7211C165.128 10.5021 165.289 10.3775 165.467 10.3472C165.739 10.3009 165.953 10.3738 166.108 10.5658C166.273 10.7442 166.378 11.0054 166.425 11.3495C166.479 11.6561 166.532 12.0356 166.585 12.4879C166.65 12.9381 166.718 13.4001 166.787 13.874C166.854 14.3361 166.928 14.7666 167.009 15.1656C167.162 15.8437 167.324 16.3929 167.493 16.8131C167.673 17.2196 167.827 17.5455 167.954 17.7909C168.082 18.0363 168.154 18.2426 168.17 18.4097C168.181 18.5415 168.161 18.6724 168.11 18.8025C168.057 18.9207 167.984 19.0243 167.889 19.1132C167.795 19.2022 167.682 19.2577 167.552 19.2799C167.28 19.3263 167.033 19.2407 166.813 19.0233C166.605 18.8039 166.414 18.478 166.242 18.046C166.07 17.6139 165.903 17.1021 165.74 16.5107C165.643 16.09 165.542 15.64 165.435 15.1604C165.34 14.6788 165.257 14.1952 165.186 13.7096C165.127 13.2219 165.072 12.7697 165.025 12.3528L165.571 12.442C165.476 12.7375 165.371 13.0527 165.258 13.3876C165.157 13.7206 165.027 14.1007 164.869 14.5283C164.721 14.9421 164.532 15.4357 164.3 16.0091C164.008 16.7147 163.673 17.3967 163.299 18.0554C162.923 18.7023 162.512 19.2519 162.065 19.7043C161.628 20.1429 161.156 20.4055 160.646 20.4923ZM169.299 11.6433C169.026 11.6896 168.799 11.6434 168.617 11.5045C168.447 11.3635 168.366 11.1829 168.377 10.9626C168.39 10.8267 168.443 10.7026 168.533 10.5901C168.623 10.4775 168.799 10.3627 169.058 10.2455C169.465 10.055 170.016 9.85201 170.71 9.63661C171.416 9.4192 172.249 9.22873 173.209 9.06538C173.706 8.98061 174.164 8.91479 174.583 8.86782C175.011 8.80699 175.487 8.7686 176.008 8.75264C176.42 8.7312 176.743 8.77308 176.981 8.87839C177.231 8.98161 177.353 9.12471 177.347 9.30761C177.346 9.44144 177.313 9.56849 177.249 9.68876C177.194 9.79517 177.1 9.89001 176.968 9.97318C176.848 10.0544 176.687 10.1121 176.486 10.1464C176.237 10.1888 175.945 10.2264 175.609 10.2593C175.273 10.2922 174.913 10.3291 174.531 10.3701C174.157 10.3972 173.776 10.4441 173.384 10.5106C172.567 10.6498 171.916 10.7971 171.43 10.9526C170.942 11.0963 170.541 11.2377 170.223 11.3767C169.904 11.504 169.595 11.5928 169.299 11.6433ZM173.112 18.3879C172.85 18.4323 172.637 18.3594 172.47 18.1693C172.315 17.9771 172.185 17.7199 172.081 17.3977C172.015 17.1541 171.957 16.8179 171.908 16.3892C171.869 15.9467 171.847 15.4649 171.843 14.9436C171.836 14.4105 171.839 13.894 171.85 13.3943C171.869 12.7233 171.883 12.1321 171.893 11.6205C171.912 11.0952 171.923 10.6624 171.925 10.322L173.506 9.94356C173.493 10.1521 173.478 10.4158 173.459 10.7346C173.451 11.0395 173.443 11.3868 173.437 11.7763C173.429 12.1541 173.417 12.5447 173.401 12.9481C173.395 13.3376 173.387 13.7154 173.377 14.0814C173.36 14.6913 173.368 15.1998 173.401 15.6069C173.444 16.0002 173.493 16.3196 173.547 16.5653C173.602 16.811 173.649 17.0154 173.689 17.1785C173.728 17.3298 173.747 17.4724 173.745 17.6061C173.744 17.74 173.717 17.8659 173.663 17.9842C173.608 18.0907 173.532 18.1766 173.434 18.2419C173.337 18.3191 173.23 18.3678 173.112 18.3879ZM181.82 16.8686C180.836 17.036 180.042 16.9892 179.436 16.7282C178.828 16.4553 178.389 16.0263 178.117 15.4412C177.844 14.8443 177.718 14.1435 177.738 13.3387C177.769 12.7386 177.894 12.1223 178.114 11.4899C178.344 10.8436 178.661 10.2374 179.064 9.67101C179.478 9.10268 179.963 8.62549 180.519 8.23955C181.084 7.83976 181.704 7.58246 182.38 7.46748C183.008 7.36057 183.539 7.37304 183.977 7.50498C184.426 7.63492 184.761 7.88134 184.982 8.24444C185.215 8.60545 185.323 9.09091 185.306 9.70083C185.299 10.3698 185.103 10.9676 184.718 11.4945C184.331 12.0097 183.814 12.4437 183.168 12.7965C182.533 13.1474 181.825 13.3895 181.043 13.5226C180.237 13.6597 179.683 13.6571 179.377 13.5148C179.085 13.3704 178.941 13.1763 178.947 12.9323C178.947 12.7867 178.983 12.6774 179.057 12.6043C179.127 12.5195 179.251 12.4618 179.429 12.4316C179.559 12.4094 179.718 12.4068 179.903 12.4237C180.098 12.4268 180.38 12.3971 180.747 12.3346C181.339 12.2337 181.859 12.0603 182.303 11.8145C182.761 11.5667 183.12 11.275 183.379 10.9395C183.637 10.5922 183.774 10.2227 183.792 9.83117C183.802 9.46518 183.709 9.20789 183.512 9.0592C183.328 8.90841 183.005 8.87241 182.543 8.95109C182.081 9.02978 181.656 9.21158 181.265 9.49649C180.885 9.76764 180.542 10.1114 180.235 10.5278C179.941 10.9421 179.709 11.4005 179.539 11.9029C179.369 12.4053 179.281 12.9182 179.273 13.4414C179.263 13.8802 179.324 14.2704 179.456 14.6122C179.586 14.9422 179.813 15.195 180.135 15.3707C180.468 15.5326 180.907 15.5672 181.452 15.4743C182.068 15.3695 182.582 15.2031 182.994 14.9751C183.415 14.7333 183.762 14.4801 184.033 14.2153C184.306 13.9505 184.534 13.7232 184.721 13.5337C184.908 13.344 185.085 13.2351 185.25 13.2068C185.451 13.1725 185.606 13.225 185.717 13.3642C185.835 13.4896 185.892 13.6743 185.885 13.9183C185.878 14.1622 185.761 14.4372 185.532 14.743C185.315 15.0351 185.012 15.3295 184.624 15.6263C184.247 15.921 183.817 16.1825 183.332 16.4107C182.857 16.6253 182.353 16.7778 181.82 16.8686ZM187.14 18.8766C186.974 18.9048 186.829 18.8808 186.706 18.8046C186.584 18.7284 186.527 18.6106 186.536 18.4512C186.538 18.3174 186.571 18.1599 186.638 17.9786C186.692 17.7993 186.792 17.5639 186.936 17.2721C187.115 16.8896 187.252 16.5144 187.347 16.1461C187.453 15.7757 187.536 15.4035 187.593 15.0295C187.65 14.6437 187.681 14.2619 187.69 13.8841C187.702 13.53 187.776 13.2503 187.911 13.0451C188.046 12.84 188.232 12.7172 188.47 12.6768C188.872 12.6083 189.181 12.6651 189.395 12.8471C189.619 13.0153 189.721 13.3257 189.702 13.7783C189.693 14.1561 189.628 14.5921 189.505 15.0864C189.393 15.5669 189.239 16.0544 189.044 16.5491C188.86 17.0417 188.634 17.499 188.366 17.9212C188.226 18.1756 188.049 18.3878 187.835 18.5578C187.621 18.728 187.388 18.8342 187.14 18.8766ZM205.132 12.9173C204.776 12.9778 204.367 12.9382 203.904 12.7985C203.439 12.647 202.968 12.4237 202.491 12.1287C202.025 11.8317 201.585 11.506 201.17 11.1515C200.767 10.7952 200.439 10.4445 200.185 10.0992C200.033 9.93069 199.927 9.77283 199.865 9.62554C199.813 9.46438 199.78 9.30622 199.765 9.15084C199.785 9.05042 199.814 8.93623 199.853 8.80819C199.892 8.68014 199.95 8.56087 200.029 8.45037C200.138 8.23746 200.338 7.94247 200.626 7.56551C200.916 7.18855 201.253 6.77888 201.641 6.3366C202.037 5.88045 202.452 5.45183 202.883 5.05064C203.323 4.63568 203.745 4.28465 204.146 3.99774C204.56 3.70874 204.927 3.53701 205.247 3.48256C205.377 3.46042 205.483 3.47269 205.564 3.51956C205.657 3.56443 205.73 3.63105 205.781 3.71931C205.833 3.80766 205.861 3.90001 205.865 3.99634C205.898 4.25792 205.769 4.53486 205.479 4.82725C205.187 5.11965 204.869 5.39838 204.524 5.66345C203.914 6.15589 203.379 6.62929 202.922 7.08364C202.463 7.53809 202.098 7.9341 201.827 8.27167C201.568 8.60714 201.442 8.83491 201.45 8.95488C201.447 9.07685 201.56 9.27021 201.788 9.53479C202.014 9.78759 202.343 10.0656 202.773 10.3687C203.201 10.6601 203.691 10.9167 204.241 11.1387C204.49 11.2419 204.732 11.3402 204.968 11.4337C205.213 11.5132 205.412 11.6069 205.565 11.7144C205.728 11.8082 205.816 11.9327 205.831 12.0881C205.841 12.2199 205.82 12.3448 205.767 12.4631C205.714 12.5814 205.628 12.6811 205.508 12.7623C205.399 12.8414 205.274 12.8931 205.132 12.9173ZM199.212 13.9071C198.904 13.9596 198.67 13.8415 198.511 13.553C198.349 13.2527 198.242 12.8037 198.187 12.2058C198.143 11.5942 198.131 10.8496 198.15 9.97208C198.161 9.60609 198.18 9.22045 198.208 8.81507C198.248 8.40769 198.288 8.00031 198.327 7.59283C198.365 7.17369 198.387 6.7693 198.393 6.37978C198.4 6.28135 198.402 6.18392 198.397 6.08758C198.403 5.97739 198.402 5.86819 198.396 5.75998C198.403 5.51606 198.434 5.31032 198.491 5.14288C198.547 4.97545 198.622 4.84131 198.714 4.74059C198.816 4.62611 198.927 4.55869 199.045 4.53855C199.318 4.49218 199.553 4.57974 199.749 4.80113C199.955 5.00885 200.048 5.33894 200.029 5.7915C200.02 6.09646 199.988 6.47831 199.933 6.93694C199.888 7.38172 199.839 7.83936 199.785 8.30976C199.732 8.78016 199.7 9.19243 199.687 9.54655C199.686 10.1781 199.698 10.7407 199.721 11.2344C199.757 11.726 199.797 12.1321 199.839 12.4526C199.88 12.7613 199.893 12.9777 199.878 13.1017C199.878 13.2473 199.846 13.3802 199.782 13.5005C199.727 13.607 199.651 13.6928 199.552 13.7582C199.467 13.8333 199.354 13.883 199.212 13.9071ZM209.772 12.1089C209.227 12.2017 208.76 12.1476 208.373 11.9466C207.996 11.7436 207.704 11.4232 207.494 10.9853C207.296 10.5455 207.205 10.0147 207.22 9.39298C207.229 8.80859 207.327 8.20914 207.515 7.59463C207.711 6.96616 207.979 6.36213 208.319 5.78222C208.655 5.19065 209.046 4.65682 209.488 4.18083C209.94 3.69108 210.431 3.2857 210.962 2.96479C211.504 2.64188 212.064 2.43095 212.645 2.33213C212.918 2.28566 213.143 2.32016 213.321 2.43544C213.5 2.55082 213.584 2.75506 213.573 3.04825C213.574 3.19375 213.53 3.32878 213.442 3.45304C213.351 3.56553 213.207 3.65079 213.01 3.70864C212.201 3.96782 211.482 4.39385 210.852 4.98662C210.234 5.57749 209.746 6.24944 209.387 7.00246C209.04 7.74163 208.852 8.48996 208.823 9.24748C208.811 9.6017 208.829 9.92032 208.878 10.2034C208.925 10.4747 209.044 10.8185 209.238 11.2347L208.353 10.1288C208.612 10.3639 208.833 10.5085 209.013 10.5629C209.204 10.6152 209.461 10.6141 209.78 10.5597C210.538 10.4305 211.225 9.81581 211.841 8.71544C212.456 7.61507 212.937 6.0825 213.281 4.11771C213.325 3.87947 213.408 3.68929 213.531 3.54708C213.662 3.39111 213.829 3.29597 214.03 3.26177C214.303 3.21529 214.53 3.29797 214.713 3.50968C214.906 3.70754 215.021 3.98547 215.058 4.34339C215.138 5.09452 215.23 5.77085 215.333 6.3725C215.447 6.96018 215.607 7.50348 215.815 8.00231C216.034 8.49914 216.352 8.99747 216.767 9.49739C216.859 9.6033 216.912 9.73384 216.926 9.88921C216.952 10.0426 216.936 10.1971 216.878 10.3527C216.831 10.5064 216.751 10.6414 216.636 10.758C216.532 10.8607 216.397 10.9263 216.231 10.9545C216.053 10.9847 215.905 10.9735 215.786 10.921C215.68 10.8663 215.58 10.7802 215.486 10.6625C215.267 10.384 215.063 10.085 214.875 9.76505C214.685 9.44513 214.511 9.07406 214.354 8.65182C214.206 8.21562 214.086 7.69585 213.994 7.09222C213.902 6.48868 213.839 5.76497 213.803 4.92109L214.44 4.79454C214.252 6.04061 213.991 7.11096 213.657 8.0055C213.321 8.88827 212.936 9.62175 212.499 10.2058C212.073 10.7763 211.625 11.2169 211.154 11.5277C210.683 11.8385 210.223 12.0323 209.772 12.1089ZM225.522 9.44543C225.166 9.50597 224.757 9.46637 224.294 9.32666C223.829 9.17518 223.358 8.95189 222.88 8.6568C222.414 8.35972 221.974 8.03402 221.56 7.6797C221.157 7.32338 220.829 6.97254 220.574 6.6274C220.423 6.45886 220.317 6.30089 220.255 6.1536C220.203 5.99254 220.17 5.83428 220.155 5.67891C220.175 5.57849 220.204 5.4643 220.242 5.33625C220.281 5.2082 220.34 5.08893 220.418 4.97844C220.528 4.76552 220.728 4.47054 221.016 4.09358C221.305 3.71661 221.643 3.30694 222.031 2.86466C222.427 2.40852 222.842 1.9799 223.272 1.5787C223.713 1.16375 224.135 0.812813 224.536 0.525804C224.95 0.2369 225.316 0.0651722 225.636 0.0107222C225.766 -0.0115166 225.872 0.000849202 225.953 0.0477201C226.047 0.0925965 226.119 0.159113 226.171 0.24747C226.223 0.335727 226.251 0.428073 226.255 0.524507C226.288 0.785987 226.159 1.06292 225.867 1.35532C225.577 1.64771 225.258 1.92645 224.914 2.19152C224.304 2.68396 223.769 3.15736 223.311 3.6118C222.853 4.06615 222.488 4.46216 222.217 4.79973C221.957 5.1353 221.832 5.36298 221.84 5.48295C221.837 5.60501 221.949 5.79828 222.178 6.06295C222.404 6.31575 222.733 6.59369 223.162 6.89685C223.591 7.18815 224.08 7.44484 224.63 7.66673C224.88 7.76995 225.122 7.86828 225.358 7.96172C225.603 8.0414 225.802 8.13494 225.954 8.24255C226.117 8.33629 226.206 8.46084 226.22 8.61622C226.231 8.74795 226.21 8.87301 226.157 8.99128C226.104 9.10946 226.018 9.20918 225.897 9.29036C225.789 9.36954 225.664 9.4212 225.522 9.44543ZM219.601 10.4353C219.293 10.4878 219.059 10.3697 218.9 10.0812C218.739 9.78081 218.631 9.33175 218.577 8.73389C218.533 8.12228 218.52 7.37773 218.54 6.50024C218.55 6.13425 218.569 5.74852 218.597 5.34313C218.637 4.93576 218.676 4.52838 218.717 4.121C218.755 3.70175 218.776 3.29737 218.783 2.90784C218.79 2.80941 218.792 2.71208 218.787 2.61565C218.793 2.50545 218.792 2.39635 218.786 2.28815C218.792 2.04412 218.824 1.83849 218.881 1.67095C218.937 1.50351 219.011 1.36948 219.104 1.26876C219.206 1.15417 219.316 1.08686 219.435 1.06661C219.707 1.02024 219.941 1.1078 220.139 1.32929C220.345 1.53692 220.438 1.86711 220.418 2.31966C220.41 2.62462 220.378 3.00637 220.323 3.46501C220.278 3.90978 220.228 4.36742 220.175 4.83782C220.122 5.30823 220.089 5.72049 220.077 6.07472C220.076 6.70618 220.087 7.26883 220.111 7.76247C220.147 8.25421 220.186 8.6603 220.229 8.98071C220.27 9.28946 220.283 9.50577 220.268 9.62982C220.268 9.77542 220.236 9.90836 220.172 10.0286C220.117 10.135 220.04 10.221 219.941 10.2863C219.856 10.3614 219.743 10.4111 219.601 10.4353ZM93.6912 48.0627C93.4069 48.111 93.185 47.991 93.0257 47.7024C92.8663 47.4139 92.7461 47.0338 92.6649 46.5619C92.6041 46.2081 92.5657 45.8079 92.5499 45.3614C92.532 44.9031 92.5201 44.4437 92.5141 43.9834C92.5081 43.5231 92.5013 43.0932 92.4936 42.6939C92.4977 42.2925 92.4952 41.9592 92.4861 41.6936C92.4767 41.3552 92.4576 41.0671 92.4289 40.8292C92.4121 40.5892 92.3812 40.3395 92.3366 40.08L92.7534 40.4825L91.4739 40.7004C91.0949 40.765 90.6419 40.8603 90.1149 40.9864C89.5977 41.0988 89.0884 41.222 88.5872 41.3558C88.0859 41.4898 87.6706 41.6273 87.3413 41.7684L88.0091 40.6531C88.1464 41.3096 88.2195 41.983 88.2285 42.6735C88.2494 43.362 88.2488 44.1027 88.2266 44.8956C88.2143 45.2498 88.2033 45.6462 88.1934 46.085C88.1835 46.5237 88.1646 46.9458 88.1368 47.3512C88.109 47.7566 88.0739 48.0843 88.0315 48.3343C87.9929 48.5352 87.9137 48.7126 87.7939 48.8664C87.672 49.0086 87.5104 49.0968 87.309 49.1311C87.072 49.1715 86.881 49.0887 86.7359 48.8827C86.5907 48.6768 86.5232 48.3909 86.5335 48.0249C86.5362 47.7573 86.5506 47.4513 86.5767 47.1069C86.6009 46.7508 86.617 46.3838 86.6252 46.006C86.6333 45.6283 86.6417 45.2869 86.6503 44.9819C86.6791 44.3699 86.6748 43.8487 86.6373 43.4179C86.6097 42.9735 86.5792 42.584 86.5462 42.2498C86.5249 41.9134 86.5176 41.5869 86.524 41.2702C86.5504 40.9985 86.6226 40.7798 86.7404 40.6141C86.8701 40.4463 87.0661 40.3098 87.3284 40.2044C87.717 40.0532 88.1748 39.9146 88.7018 39.7884C89.2386 39.6484 89.7902 39.5242 90.3569 39.4156C90.9352 39.3049 91.4851 39.2053 92.0063 39.1165C92.6934 38.9994 93.2143 39.0504 93.5689 39.2693C93.9235 39.4881 94.0887 39.9517 94.0642 40.66C94.0573 40.904 94.0549 41.2443 94.0568 41.681C94.0589 42.1178 94.057 42.6038 94.0515 43.1389C94.0578 43.6719 94.0771 44.209 94.1091 44.7499C94.1392 45.2789 94.1867 45.7686 94.252 46.2188C94.2726 46.4096 94.3061 46.6042 94.3524 46.8027C94.3988 47.0012 94.4222 47.1733 94.4229 47.3188C94.4137 47.4783 94.3433 47.6359 94.2116 47.7919C94.0897 47.934 93.9162 48.0243 93.6912 48.0627ZM100.927 46.7395C100.359 46.8363 99.8475 46.8443 99.3946 46.7636C98.9418 46.683 98.5816 46.5379 98.3139 46.3285C98.0462 46.1191 97.9127 45.8748 97.9135 45.5953C97.9247 45.4478 97.9685 45.3128 98.045 45.1906C98.1215 45.0682 98.2368 44.994 98.3908 44.9678C98.5093 44.9476 98.6209 44.9589 98.7258 45.0018C98.8308 45.0446 98.9555 45.0962 99.1 45.1566C99.2445 45.217 99.4472 45.2614 99.7082 45.2898C99.9671 45.3064 100.31 45.2784 100.736 45.2058C101.399 45.0928 101.947 44.8357 102.378 44.4345C102.818 44.0196 103.042 43.4049 103.048 42.5903C103.071 42.0158 102.991 41.5135 102.807 41.0834C102.633 40.6395 102.382 40.2757 102.052 39.9918C101.722 39.6961 101.327 39.4962 100.87 39.3918C100.414 39.2875 99.9125 39.2817 99.3676 39.3745C99.0951 39.421 98.8217 39.4978 98.5476 39.6052C98.2734 39.7126 98.0297 39.7845 97.8165 39.8208C97.6862 39.8429 97.5626 39.8336 97.4459 39.7928C97.3271 39.7402 97.2399 39.6579 97.184 39.546C97.1282 39.4341 97.102 39.3171 97.1054 39.1952C97.1217 38.8646 97.2933 38.5865 97.6203 38.3609C97.9571 38.1213 98.4987 37.9381 99.245 37.811C100.039 37.6759 100.767 37.6915 101.429 37.8579C102.104 38.0223 102.685 38.3179 103.173 38.7447C103.66 39.1598 104.032 39.6972 104.292 40.3572C104.561 41.0033 104.684 41.7532 104.66 42.6072C104.647 43.1679 104.541 43.6838 104.342 44.1548C104.153 44.6238 103.896 45.0381 103.568 45.3975C103.237 45.7451 102.848 46.0359 102.401 46.27C101.951 46.4922 101.46 46.6487 100.927 46.7395ZM97.53 51.98C97.3879 52.0041 97.2574 51.9899 97.1386 51.9373C97.0336 51.8945 96.9523 51.8112 96.8944 51.6875C96.8365 51.5638 96.8102 51.4104 96.8153 51.2275C96.8204 51.0445 96.8572 50.8683 96.9256 50.6988C96.9842 50.5431 97.0485 50.3501 97.1186 50.1196C97.1908 49.9009 97.2587 49.6223 97.3224 49.2836C97.3861 48.945 97.4265 48.5071 97.444 47.9699C97.4627 47.299 97.4291 46.6431 97.3432 46.002C97.2672 45.3472 97.1735 44.6955 97.0619 44.0467C96.9601 43.3842 96.8643 42.7207 96.7744 42.0561C96.6824 41.3797 96.6428 40.6884 96.6555 39.982C96.6683 39.7735 96.6991 39.5983 96.7479 39.4564C96.7967 39.3146 96.8693 39.2051 96.9657 39.1279C97.0721 39.0369 97.2022 38.9784 97.3562 38.9521C97.5457 38.9198 97.7109 38.9585 97.8517 39.0681C98.0023 39.1639 98.1195 39.3139 98.2034 39.5181C98.2853 39.7106 98.3179 39.9357 98.3013 40.1935C98.2808 40.9254 98.3077 41.6128 98.3816 42.2558C98.4654 42.885 98.559 43.5004 98.6625 44.102C98.7779 44.7015 98.8754 45.3041 98.9551 45.9097C99.0349 46.5153 99.0644 47.1477 99.0437 47.8068C99.0365 48.4029 98.9964 48.95 98.9235 49.448C98.8507 49.9461 98.7478 50.3764 98.6151 50.7389C98.4943 51.0995 98.3424 51.3863 98.1595 51.5996C97.9886 51.8108 97.7788 51.9376 97.53 51.98ZM111.192 45.119C110.222 45.2843 109.385 45.2082 108.684 44.8905C107.995 44.5707 107.47 44.0712 107.11 43.3921C106.758 42.6991 106.592 41.8716 106.609 40.9095C106.626 40.2267 106.752 39.6104 106.987 39.0606C107.231 38.4969 107.526 38.0097 107.869 37.5991C108.225 37.1864 108.596 36.8622 108.982 36.6265C109.366 36.3789 109.707 36.2299 110.002 36.1796C110.133 36.1573 110.243 36.1569 110.332 36.1782C110.433 36.1974 110.514 36.2443 110.575 36.3188C110.646 36.3795 110.681 36.4768 110.68 36.6105C110.661 36.8565 110.604 37.0909 110.509 37.3136C110.411 37.5245 110.198 37.7369 109.868 37.9507C109.476 38.2239 109.154 38.5095 108.9 38.8076C108.656 39.092 108.473 39.4085 108.35 39.7572C108.225 40.0941 108.164 40.4868 108.168 40.9354C108.143 41.9231 108.388 42.6706 108.902 43.178C109.413 43.6735 110.096 43.8488 110.949 43.7035C111.778 43.5622 112.45 43.1444 112.965 42.4497C113.49 41.7413 113.761 40.8755 113.78 39.8524C113.813 38.9119 113.633 38.2143 113.237 37.7594C112.84 37.2929 112.286 37.1202 111.576 37.2412C111.208 37.3037 110.907 37.4279 110.67 37.6138C110.446 37.7978 110.206 38.0329 109.95 38.3192C109.767 38.5325 109.623 38.721 109.517 38.8847C109.41 39.0484 109.311 39.1806 109.219 39.2813C109.137 39.3683 109.019 39.4248 108.865 39.4511C108.698 39.4793 108.559 39.4484 108.446 39.3584C108.343 39.2546 108.294 39.0748 108.299 38.819C108.299 38.5396 108.388 38.2392 108.564 37.9178C108.752 37.5944 108.992 37.2865 109.283 36.9941C109.584 36.6879 109.918 36.4308 110.285 36.2227C110.649 36.0028 111.021 35.8605 111.399 35.7959C112.253 35.6507 112.981 35.7332 113.583 36.0436C114.183 36.342 114.637 36.823 114.946 37.4867C115.253 38.1386 115.389 38.9288 115.354 39.8576C115.34 40.7704 115.154 41.6034 114.796 42.3565C114.436 43.0976 113.943 43.7095 113.319 44.1922C112.707 44.6729 111.998 44.9817 111.192 45.119ZM117.725 44.0429C117.584 44.0672 117.451 44.0471 117.331 43.9827C117.212 43.93 117.127 43.8231 117.075 43.6621C117.023 43.501 117.036 43.2924 117.113 43.0363C117.187 42.6839 117.378 42.202 117.688 41.5909C118.009 40.9777 118.416 40.2952 118.909 39.5436C119.411 38.7782 119.984 38.0007 120.629 37.211C121.283 36.4077 121.981 35.6453 122.723 34.9241C123.107 34.531 123.422 34.2345 123.668 34.0349C123.923 33.8213 124.131 33.6768 124.288 33.6014C124.446 33.526 124.595 33.4761 124.738 33.452C124.928 33.4197 125.091 33.4524 125.23 33.5502C125.378 33.6342 125.455 33.7913 125.458 34.0214C125.453 34.2044 125.397 34.3778 125.291 34.5415C125.185 34.7052 125.025 34.8721 124.811 35.0422C123.938 35.7128 123.121 36.4953 122.361 37.3897C121.612 38.2821 120.922 39.2313 120.29 40.2372C119.656 41.2315 119.091 42.2322 118.593 43.2396C118.454 43.4939 118.31 43.6824 118.16 43.8051C118.024 43.9374 117.879 44.0167 117.725 44.0429ZM124.294 42.8881C124.117 42.9183 123.947 42.8925 123.787 42.8105C123.638 42.7266 123.473 42.5424 123.289 42.2578C122.936 41.7596 122.535 41.2389 122.088 40.6959C121.653 40.1508 121.196 39.6216 120.717 39.1081C120.249 38.581 119.775 38.097 119.297 37.6563C118.831 37.2137 118.396 36.8448 117.991 36.5494C117.714 36.3538 117.499 36.1658 117.345 35.9855C117.193 35.8051 117.12 35.593 117.126 35.349C117.133 35.1778 117.175 35.0311 117.252 34.9088C117.326 34.7747 117.471 34.6895 117.684 34.6532C117.92 34.6128 118.126 34.6385 118.3 34.7303C118.486 34.8199 118.749 34.9998 119.088 35.2699C119.339 35.4577 119.634 35.7113 119.968 36.0305C120.304 36.3497 120.659 36.7142 121.035 37.1238C121.422 37.5314 121.804 37.9458 122.182 38.3673C122.556 38.7768 122.905 39.1727 123.227 39.555C123.561 39.9352 123.831 40.2656 124.037 40.5461C124.383 40.9971 124.608 41.3474 124.712 41.5968C124.814 41.8343 124.861 42.0387 124.854 42.21C124.849 42.3929 124.802 42.5407 124.71 42.6532C124.622 42.7775 124.483 42.8558 124.294 42.8881ZM131.304 41.6943C130.333 41.8597 129.497 41.7836 128.796 41.4658C128.107 41.1461 127.582 40.6467 127.221 39.9675C126.871 39.2745 126.703 38.4469 126.722 37.4849C126.739 36.8022 126.864 36.1859 127.098 35.636C127.342 35.0723 127.637 34.5852 127.981 34.1745C128.337 33.7618 128.708 33.4376 129.094 33.2019C129.479 32.9544 129.818 32.8054 130.115 32.7549C130.245 32.7328 130.355 32.7323 130.443 32.7535C130.544 32.7728 130.625 32.8196 130.688 32.8942C130.759 32.9549 130.794 33.0521 130.793 33.1859C130.774 33.4319 130.717 33.6662 130.62 33.8889C130.522 34.0998 130.309 34.3122 129.98 34.5261C129.588 34.7992 129.265 35.0849 129.012 35.383C128.769 35.6673 128.585 35.9838 128.462 36.3326C128.337 36.6695 128.277 37.0623 128.281 37.5108C128.255 38.4985 128.499 39.246 129.014 39.7533C129.526 40.249 130.208 40.4241 131.061 40.2789C131.89 40.1377 132.562 39.7197 133.077 39.025C133.601 38.3166 133.873 37.4509 133.892 36.4278C133.925 35.4873 133.744 34.7896 133.35 34.3349C132.952 33.8684 132.398 33.6955 131.687 33.8166C131.319 33.8791 131.018 34.0034 130.782 34.1893C130.557 34.3732 130.318 34.6083 130.062 34.8946C129.879 35.1078 129.735 35.2963 129.629 35.4601C129.523 35.6238 129.424 35.7561 129.331 35.8568C129.248 35.9436 129.13 36.0003 128.976 36.0265C128.811 36.0547 128.671 36.0238 128.558 35.9338C128.455 35.83 128.405 35.6501 128.41 35.3943C128.411 35.115 128.499 34.8146 128.676 34.4932C128.865 34.1698 129.104 33.8619 129.396 33.5695C129.696 33.2633 130.03 33.0061 130.396 32.798C130.761 32.5781 131.133 32.4359 131.512 32.3714C132.365 32.2261 133.092 32.3087 133.694 32.6189C134.294 32.9174 134.749 33.3984 135.058 34.0621C135.366 34.7139 135.501 35.5042 135.466 36.433C135.452 37.3459 135.266 38.1788 134.908 38.9318C134.547 39.6731 134.056 40.285 133.432 40.7676C132.819 41.2482 132.11 41.5572 131.304 41.6943ZM137.735 39.543C137.828 39.163 137.956 38.7345 138.118 38.2578C138.278 37.7692 138.452 37.2599 138.642 36.7299C138.843 36.1978 139.046 35.6777 139.251 35.1693C139.466 34.647 139.671 34.1749 139.867 33.7532C140.128 33.2111 140.393 32.6984 140.664 32.2153C140.934 31.7321 141.201 31.3346 141.465 31.0227C141.737 30.6969 141.987 30.5149 142.212 30.4765C142.448 30.4362 142.674 30.5011 142.885 30.6715C143.109 30.8397 143.332 31.1417 143.553 31.5775C143.705 31.8916 143.877 32.2932 144.072 32.7822C144.265 33.2713 144.461 33.8085 144.66 34.394C144.856 34.9676 145.035 35.5501 145.197 36.1416C145.361 36.7332 145.492 37.2815 145.59 37.7867L144.051 38.1944C143.942 37.6303 143.795 37.024 143.61 36.3755C143.436 35.7133 143.24 35.0787 143.027 34.4717C142.813 33.8647 142.607 33.3412 142.409 32.9014C142.21 32.4498 142.031 32.1525 141.871 32.0096L142.54 31.75C142.23 32.2156 141.908 32.7559 141.576 33.3711C141.254 33.9843 140.964 34.6347 140.704 35.3224C140.51 35.8289 140.331 36.3086 140.165 36.7619C140 37.215 139.849 37.6534 139.714 38.077C139.59 38.4866 139.468 38.9082 139.347 39.3415L137.735 39.543ZM146.011 41.6122C145.773 41.6526 145.576 41.6013 145.417 41.4583C145.259 41.3154 145.185 41.1396 145.198 40.9311C145.197 40.7855 145.238 40.56 145.32 40.2548C145.404 39.9613 145.486 39.6255 145.567 39.2474C145.649 38.8694 145.692 38.4855 145.698 38.096L146.493 38.8894C146.323 38.8941 146.059 38.9149 145.699 38.9519C145.352 38.9868 144.912 39.0496 144.378 39.1403C143.75 39.2472 143.106 39.363 142.444 39.4878C141.795 39.6105 141.152 39.7382 140.517 39.8707C139.893 40.0012 139.301 40.1385 138.741 40.2825C138.18 40.4265 137.669 40.5742 137.207 40.7257L137.793 39.9884C137.796 40.1458 137.805 40.3385 137.82 40.5667C137.835 40.7948 137.855 41.0219 137.882 41.2481C137.911 41.486 137.934 41.6944 137.953 41.8734C137.984 42.0503 138.005 42.1742 138.018 42.245C138.04 42.4475 137.996 42.613 137.883 42.7413C137.773 42.8814 137.617 42.9686 137.416 43.0029C137.131 43.0514 136.917 42.9726 136.772 42.7666C136.626 42.5606 136.527 42.3043 136.475 41.9977C136.43 41.811 136.395 41.5681 136.368 41.2692C136.341 40.9703 136.331 40.7352 136.338 40.564C136.353 40.3673 136.396 40.19 136.466 40.0324C136.522 39.8648 136.624 39.714 136.773 39.5795C136.92 39.4452 137.12 39.3322 137.373 39.2407C137.66 39.143 138.051 39.0341 138.541 38.9141C139.043 38.7801 139.606 38.6479 140.229 38.5174C140.863 38.3731 141.516 38.2375 142.19 38.1108C142.861 37.9722 143.504 37.8505 144.12 37.7456C144.428 37.6931 144.767 37.6416 145.136 37.5908C145.504 37.5283 145.862 37.4914 146.215 37.48C146.564 37.457 146.814 37.5238 146.962 37.6805C147.123 37.8352 147.2 38.1074 147.194 38.497C147.185 38.802 147.15 39.1297 147.089 39.4801C147.027 39.8305 146.938 40.1614 146.821 40.4728C146.718 40.7939 146.593 41.0579 146.444 41.2652C146.309 41.4703 146.165 41.586 146.011 41.6122ZM155.301 37.5901C154.981 37.6446 154.726 37.5423 154.535 37.2834C154.353 37.0107 154.221 36.6631 154.136 36.2405C154.1 36.0282 154.064 35.7854 154.029 35.512C153.994 35.2388 153.97 34.9576 153.957 34.6684C153.956 34.3773 153.953 34.1107 153.948 33.8687C153.959 33.6483 153.972 33.3728 153.989 33.0422C154.017 32.7096 154.044 32.3712 154.07 32.0267C154.106 31.6686 154.135 31.3419 154.157 31.0467C154.189 30.7377 154.21 30.5035 154.219 30.3441C154.217 30.1867 154.162 30.0807 154.055 30.026C153.946 29.9596 153.773 29.9467 153.536 29.9869C153.347 30.0193 153.141 30.0663 152.92 30.1283C152.699 30.1902 152.462 30.2669 152.21 30.3584C151.626 30.5793 151.119 30.8597 150.69 31.2C150.271 31.5263 150.059 31.8538 150.055 32.1824C150.042 32.4637 150.114 32.7064 150.271 32.9103C150.438 33.1005 150.722 33.2281 151.123 33.2933C151.537 33.3566 152.111 33.3256 152.845 33.2005C153.105 33.1561 153.365 33.1059 153.624 33.0497C153.883 32.9936 154.128 32.9334 154.361 32.8695C154.604 32.7918 154.807 32.7329 154.971 32.6929C155.132 32.641 155.237 32.6111 155.285 32.603C155.58 32.5526 155.832 32.5279 156.04 32.529C156.247 32.5301 156.345 32.6408 156.335 32.8612C156.34 33.1032 156.242 33.3141 156.041 33.494C155.853 33.6718 155.585 33.8205 155.24 33.94C154.907 34.0574 154.508 34.1556 154.047 34.2341L152.217 34.5459C151.577 34.6548 150.966 34.6495 150.385 34.5299C149.815 34.4084 149.355 34.1772 149.004 33.8363C148.665 33.4935 148.497 33.0545 148.502 32.5194C148.519 32.1888 148.617 31.8324 148.795 31.4499C148.982 31.0537 149.281 30.6629 149.69 30.2775C150.112 29.8902 150.685 29.5376 151.411 29.2198C151.931 28.9855 152.372 28.8194 152.733 28.7214C153.094 28.6235 153.458 28.5433 153.825 28.4807C154.287 28.4021 154.66 28.4054 154.943 28.4908C155.226 28.5761 155.434 28.7228 155.567 28.9309C155.712 29.1368 155.78 29.3923 155.772 29.6972C155.767 29.9529 155.742 30.2669 155.696 30.6388C155.649 30.9991 155.603 31.3711 155.559 31.7549C155.525 32.125 155.497 32.4575 155.475 32.7527C155.464 33.0459 155.464 33.3617 155.473 33.7C155.481 34.0265 155.499 34.3451 155.528 34.6559C155.557 34.9665 155.59 35.234 155.629 35.4581C155.674 35.7176 155.727 35.9938 155.79 36.2866C155.863 36.5657 155.896 36.7603 155.891 36.8705C155.895 37.0397 155.842 37.1943 155.732 37.3345C155.622 37.4746 155.479 37.5598 155.301 37.5901ZM149.043 38.6374C148.83 38.6737 148.652 38.6312 148.508 38.5099C148.376 38.3746 148.311 38.2097 148.314 38.0149C148.327 37.8791 148.394 37.7342 148.513 37.5802C148.632 37.4145 148.842 37.2208 149.145 36.9992C149.665 36.6193 150.165 36.1578 150.645 35.6148C151.136 35.0697 151.619 34.4716 152.092 33.8204L153.321 34.2668C152.993 34.7718 152.629 35.277 152.228 35.7823C151.837 36.2737 151.44 36.7299 151.037 37.1506C150.646 37.5694 150.278 37.9112 149.933 38.1763C149.588 38.4414 149.292 38.595 149.043 38.6374ZM157.949 29.7638C157.676 29.8101 157.448 29.7639 157.266 29.6249C157.095 29.484 157.015 29.3034 157.026 29.083C157.039 28.9472 157.091 28.8231 157.182 28.7106C157.273 28.5981 157.448 28.4832 157.708 28.366C158.114 28.1754 158.665 27.9725 159.359 27.7571C160.065 27.5397 160.898 27.3493 161.858 27.1859C162.355 27.1012 162.813 27.0353 163.233 26.9883C163.66 26.9275 164.136 26.8891 164.657 26.8731C165.068 26.8517 165.392 26.8936 165.63 26.9989C165.88 27.1021 166.002 27.2452 165.997 27.4282C165.995 27.5619 165.962 27.689 165.898 27.8092C165.843 27.9158 165.749 28.0105 165.617 28.0938C165.497 28.1748 165.336 28.2326 165.135 28.2669C164.886 28.3093 164.594 28.3469 164.258 28.3798C163.922 28.4127 163.563 28.4496 163.18 28.4906C162.806 28.5177 162.424 28.5646 162.033 28.6311C161.216 28.7703 160.565 28.9176 160.079 29.0732C159.592 29.2169 159.19 29.3582 158.872 29.4972C158.553 29.6244 158.244 29.7133 157.949 29.7638ZM161.76 36.5084C161.5 36.5528 161.286 36.4799 161.119 36.2898C160.964 36.0976 160.834 35.8404 160.73 35.5182C160.664 35.2746 160.607 34.9384 160.557 34.5098C160.518 34.0673 160.496 33.5853 160.492 33.0641C160.485 32.5309 160.488 32.0145 160.499 31.5147C160.518 30.8438 160.532 30.2526 160.542 29.741C160.561 29.2157 160.572 28.7829 160.575 28.4425L162.155 28.064C162.142 28.2726 162.127 28.5362 162.108 28.8551C162.1 29.16 162.093 29.5073 162.086 29.8969C162.078 30.2747 162.066 30.6652 162.05 31.0686C162.044 31.4581 162.036 31.8359 162.026 32.2018C162.009 32.8118 162.017 33.3203 162.05 33.7273C162.093 34.1207 162.142 34.4401 162.197 34.6858C162.251 34.9315 162.298 35.1359 162.338 35.299C162.377 35.4503 162.395 35.5929 162.394 35.7266C162.392 35.8605 162.365 35.9865 162.312 36.1047C162.258 36.2112 162.181 36.2971 162.083 36.3625C161.986 36.4396 161.879 36.4882 161.76 36.5084ZM176.293 33.961C175.819 34.0417 175.367 34.0701 174.936 34.0464C174.515 34.0088 174.135 33.9277 173.797 33.8032C173.47 33.6768 173.203 33.5038 172.994 33.2843C172.797 33.0628 172.687 32.8085 172.662 32.5214C172.639 32.3188 172.676 32.1426 172.772 31.9927C172.878 31.829 173.008 31.734 173.162 31.7078C173.304 31.6836 173.441 31.7331 173.571 31.8566C173.713 31.9661 173.882 32.1011 174.08 32.2617C174.288 32.4083 174.559 32.5263 174.891 32.6153C175.221 32.6926 175.658 32.6849 176.204 32.5921C176.997 32.4569 177.577 32.2125 177.943 31.8588C178.319 31.4913 178.476 31.1247 178.413 30.7591C178.39 30.5566 178.277 30.3996 178.075 30.2883C177.884 30.1633 177.606 30.0769 177.245 30.0292C176.88 29.9698 176.414 29.9462 175.843 29.9584C175.382 29.9761 175.077 29.937 174.926 29.8412C174.785 29.7316 174.711 29.5864 174.705 29.4054C174.684 29.2147 174.78 29.0648 174.993 28.9557C175.206 28.8466 175.571 28.6995 176.088 28.5143C176.766 28.2774 177.293 28.0056 177.666 27.6991C178.053 27.3906 178.223 27.0702 178.178 26.7379C178.135 26.4174 177.946 26.2009 177.609 26.0882C177.271 25.9636 176.841 25.9458 176.319 26.0345C175.728 26.1354 175.249 26.2958 174.884 26.5157C174.518 26.7238 174.229 26.9247 174.019 27.1183C173.82 27.31 173.655 27.4169 173.525 27.4392C173.395 27.4613 173.286 27.4313 173.199 27.349C173.124 27.2647 173.081 27.1567 173.07 27.025C173.045 26.8107 173.104 26.5822 173.245 26.3396C173.398 26.0951 173.613 25.858 173.891 25.6287C174.18 25.3973 174.53 25.1981 174.94 25.0311C175.36 24.8503 175.825 24.7166 176.334 24.6298C177.377 24.4523 178.179 24.5099 178.741 24.8026C179.316 25.0933 179.648 25.571 179.738 26.2356C179.777 26.6053 179.691 26.9902 179.479 27.3905C179.278 27.7769 178.937 28.1384 178.459 28.4748C177.978 28.7995 177.341 29.0658 176.548 29.2737L176.484 29.0113C177.219 28.8863 177.83 28.8611 178.318 28.9357C178.816 28.9967 179.199 29.1622 179.464 29.4327C179.741 29.6892 179.905 30.0436 179.959 30.4958C180.036 31.0169 179.916 31.523 179.597 32.0142C179.29 32.4915 178.843 32.9075 178.257 33.2621C177.67 33.605 177.015 33.8379 176.293 33.961ZM184.383 32.6199C183.838 32.7126 183.371 32.6585 182.984 32.4575C182.607 32.2545 182.313 31.9341 182.104 31.4963C181.907 31.0564 181.816 30.5257 181.831 29.9039C181.84 29.3196 181.938 28.7201 182.125 28.1055C182.322 27.4772 182.59 26.873 182.928 26.2932C183.266 25.7016 183.656 25.1678 184.098 24.6918C184.551 24.202 185.042 23.7966 185.571 23.4757C186.114 23.1528 186.675 22.9419 187.256 22.843C187.528 22.7967 187.754 22.8311 187.932 22.9464C188.11 23.0617 188.194 23.266 188.183 23.5592C188.184 23.7048 188.14 23.8397 188.052 23.9639C187.961 24.0765 187.818 24.1617 187.621 24.2196C186.811 24.4787 186.092 24.9047 185.462 25.4976C184.844 26.0884 184.357 26.7603 183.998 27.5134C183.65 28.2525 183.461 29.001 183.433 29.7585C183.421 30.1126 183.439 30.4312 183.488 30.7143C183.534 30.9856 183.655 31.3294 183.849 31.7457L182.963 30.6398C183.223 30.8748 183.443 31.0195 183.623 31.0737C183.815 31.1261 184.071 31.125 184.391 31.0706C185.149 30.9414 185.836 30.3267 186.451 29.2263C187.067 28.1261 187.546 26.5935 187.892 24.6286C187.936 24.3904 188.019 24.2002 188.141 24.0581C188.272 23.9021 188.44 23.807 188.641 23.7727C188.913 23.7263 189.141 23.8089 189.323 24.0206C189.516 24.2185 189.631 24.4964 189.668 24.8543C189.749 25.6054 189.841 26.2819 189.944 26.8834C190.057 27.4712 190.217 28.0144 190.426 28.5132C190.645 29.01 190.963 29.5084 191.377 30.0083C191.469 30.1142 191.521 30.2447 191.536 30.4001C191.562 30.5535 191.546 30.708 191.488 30.8636C191.441 31.0173 191.361 31.1524 191.247 31.2689C191.143 31.3716 191.008 31.4371 190.841 31.4654C190.664 31.4957 190.516 31.4845 190.397 31.4319C190.29 31.3772 190.189 31.2911 190.096 31.1735C189.878 30.895 189.674 30.5959 189.485 30.2759C189.296 29.9561 189.122 29.5851 188.965 29.1627C188.816 28.7266 188.696 28.2067 188.605 27.6031C188.513 26.9996 188.45 26.2759 188.414 25.432L189.051 25.3054C188.862 26.5515 188.602 27.6219 188.268 28.5164C187.932 29.3992 187.545 30.1326 187.11 30.7168C186.684 31.2872 186.235 31.7278 185.765 32.0386C185.293 32.3494 184.833 32.5432 184.383 32.6199ZM194.339 30.9427C193.913 31.0153 193.582 30.7924 193.346 30.2741C193.111 29.7557 193.005 29.0332 193.029 28.1064C193.063 27.4571 193.142 26.9581 193.265 26.6093C193.397 26.2467 193.573 25.9864 193.789 25.8281C193.907 25.7351 194.083 25.6626 194.319 25.6104C194.551 25.5465 194.798 25.4923 195.059 25.4479C195.923 25.3007 196.769 25.1142 197.596 24.8884C198.433 24.6487 199.237 24.3296 200.01 23.9309L200.54 25.0973C199.964 25.4381 199.331 25.728 198.641 25.967C197.95 26.206 197.242 26.4116 196.516 26.5838C195.799 26.7423 195.098 26.88 194.411 26.997L193.352 27.0132C193.386 26.2911 193.421 25.5325 193.455 24.7376C193.488 23.9427 193.513 23.2343 193.528 22.6126C193.527 22.3215 193.583 22.0753 193.694 21.8742C193.806 21.673 193.95 21.5574 194.128 21.5271C194.424 21.4767 194.664 21.5573 194.846 21.769C195.027 21.9689 195.107 22.3257 195.086 22.8391C195.083 23.1067 195.066 23.4314 195.034 23.8133C195.002 24.195 194.967 24.5955 194.93 25.0147C194.904 25.4319 194.874 25.8314 194.842 26.2131C194.82 26.5811 194.806 26.8871 194.799 27.1311C194.774 27.8395 194.773 28.4709 194.796 29.0256C194.828 29.5665 194.843 29.9766 194.842 30.256C194.835 30.4271 194.782 30.5759 194.682 30.7023C194.595 30.8384 194.481 30.9185 194.339 30.9427ZM200.47 29.8989C200.173 29.9492 199.931 29.8145 199.742 29.4947C199.565 29.1728 199.431 28.7159 199.341 28.1242C199.261 27.5185 199.231 26.8439 199.249 26.1002C199.291 24.9275 199.344 23.9957 199.408 23.305C199.482 22.6003 199.564 22.0403 199.65 21.6248C199.7 21.3492 199.779 21.099 199.887 20.8742C199.994 20.6496 200.149 20.52 200.351 20.4857C200.611 20.4413 200.815 20.534 200.965 20.7636C201.124 20.9793 201.198 21.2642 201.185 21.6184C201.175 22.0571 201.124 22.5394 201.032 23.065C200.951 23.5887 200.908 24.1485 200.9 24.7447C200.88 25.4766 200.89 26.1366 200.93 26.7246C200.98 27.2988 201.032 27.7816 201.087 28.1728C201.142 28.5642 201.162 28.8582 201.147 29.055C201.148 29.2733 201.083 29.4605 200.952 29.6165C200.819 29.7724 200.659 29.8666 200.47 29.8989ZM210.361 28.2145C210.041 28.269 209.786 28.1668 209.596 27.9079C209.414 27.6351 209.281 27.2875 209.196 26.8648C209.16 26.6525 209.124 26.4098 209.09 26.1365C209.055 25.8631 209.031 25.5819 209.018 25.2928C209.016 25.0016 209.013 24.7351 209.008 24.4931C209.019 24.2727 209.033 23.9972 209.049 23.6667C209.077 23.3341 209.104 22.9956 209.13 22.6512C209.166 22.293 209.195 21.9663 209.218 21.6712C209.25 21.3621 209.27 21.1279 209.28 20.9685C209.277 20.8111 209.222 20.7051 209.115 20.6505C209.007 20.584 208.834 20.571 208.596 20.6114C208.407 20.6437 208.202 20.6908 207.98 20.7527C207.76 20.8146 207.523 20.8913 207.27 20.9828C206.686 21.2037 206.18 21.4842 205.751 21.8244C205.331 22.1507 205.119 22.4782 205.115 22.8068C205.102 23.0881 205.175 23.3308 205.331 23.5347C205.499 23.7249 205.783 23.8525 206.184 23.9178C206.597 23.9809 207.171 23.95 207.905 23.8249C208.167 23.7805 208.426 23.7303 208.684 23.6741C208.943 23.6179 209.188 23.5579 209.421 23.4939C209.664 23.4162 209.867 23.3573 210.031 23.3173C210.193 23.2655 210.298 23.2354 210.345 23.2275C210.641 23.177 210.893 23.1524 211.1 23.1535C211.308 23.1546 211.406 23.2653 211.395 23.4857C211.4 23.7276 211.302 23.9385 211.102 24.1184C210.913 24.2962 210.646 24.4449 210.301 24.5644C209.967 24.6819 209.57 24.78 209.107 24.8586L207.277 25.1702C206.637 25.2792 206.027 25.2739 205.445 25.1544C204.876 25.0328 204.416 24.8016 204.064 24.4608C203.725 24.1179 203.558 23.6789 203.564 23.1438C203.58 22.8132 203.677 22.4568 203.855 22.0743C204.043 21.6781 204.342 21.2873 204.75 20.902C205.172 20.5146 205.745 20.162 206.471 19.8442C206.992 19.6098 207.432 19.4438 207.794 19.3459C208.155 19.2479 208.519 19.1676 208.887 19.1051C209.348 19.0265 209.721 19.0298 210.003 19.1152C210.287 19.2006 210.495 19.3473 210.628 19.5553C210.773 19.7612 210.842 20.0166 210.833 20.3217C210.829 20.5774 210.803 20.8913 210.757 21.2633C210.709 21.6235 210.663 21.9956 210.62 22.3793C210.586 22.7494 210.558 23.082 210.535 23.3772C210.525 23.6703 210.524 23.9861 210.534 24.3243C210.541 24.6509 210.559 24.9696 210.588 25.2803C210.617 25.591 210.651 25.8584 210.689 26.0825C210.734 26.342 210.788 26.6182 210.851 26.911C210.923 27.1901 210.957 27.3847 210.951 27.4949C210.956 27.664 210.903 27.8187 210.793 27.9589C210.683 28.099 210.539 28.1842 210.361 28.2145ZM204.103 29.2618C203.89 29.2981 203.712 29.2557 203.57 29.1343C203.436 28.9991 203.371 28.8341 203.374 28.6394C203.387 28.5035 203.454 28.3586 203.575 28.2047C203.692 28.0389 203.902 27.8452 204.206 27.6237C204.725 27.2437 205.225 26.7823 205.705 26.2393C206.197 25.6942 206.679 25.096 207.152 24.4448L208.382 24.8912C208.053 25.3962 207.69 25.9013 207.288 26.4067C206.898 26.8982 206.501 27.3543 206.097 27.775C205.706 28.1938 205.338 28.5356 204.994 28.8007C204.649 29.0658 204.352 29.2195 204.103 29.2618ZM213.009 20.3882C212.736 20.4346 212.509 20.3883 212.327 20.2494C212.156 20.1085 212.076 19.9279 212.087 19.7075C212.101 19.5716 212.152 19.4475 212.243 19.335C212.333 19.2224 212.508 19.1076 212.769 18.9904C213.174 18.7999 213.725 18.5969 214.419 18.3815C215.126 18.1641 215.959 17.9736 216.919 17.8103C217.416 17.7256 217.874 17.6597 218.293 17.6127C218.722 17.5519 219.196 17.5135 219.718 17.4976C220.129 17.4761 220.453 17.518 220.69 17.6233C220.94 17.7265 221.062 17.8696 221.057 18.0525C221.056 18.1864 221.023 18.3134 220.958 18.4337C220.903 18.5401 220.81 18.6349 220.677 18.7181C220.557 18.7993 220.397 18.857 220.196 18.8913C219.946 18.9337 219.654 18.9713 219.318 19.0042C218.983 19.0371 218.623 19.074 218.24 19.115C217.867 19.1421 217.485 19.189 217.094 19.2555C216.277 19.3947 215.625 19.542 215.14 19.6976C214.652 19.8412 214.25 19.9826 213.932 20.1216C213.613 20.2489 213.305 20.3377 213.009 20.3882ZM216.821 27.1328C216.56 27.1772 216.346 27.1043 216.18 26.9142C216.024 26.722 215.895 26.4648 215.791 26.1426C215.725 25.899 215.667 25.5628 215.618 25.1341C215.578 24.6917 215.556 24.2098 215.552 23.6885C215.546 23.1554 215.548 22.6389 215.56 22.1392C215.579 21.4682 215.593 20.877 215.602 20.3655C215.622 19.8401 215.632 19.4073 215.635 19.0669L217.215 18.6885C217.203 18.897 217.187 19.1607 217.169 19.4795C217.16 19.7845 217.153 20.1317 217.147 20.5212C217.139 20.899 217.126 21.2896 217.111 21.693C217.104 22.0825 217.096 22.4603 217.086 22.8263C217.069 23.4362 217.077 23.9447 217.111 24.3518C217.154 24.7451 217.203 25.0645 217.257 25.3102C217.311 25.556 217.359 25.7603 217.4 25.9234C217.438 26.0747 217.456 26.2173 217.455 26.3511C217.453 26.4849 217.426 26.6108 217.373 26.7291C217.318 26.8356 217.241 26.9215 217.143 26.9868C217.047 27.064 216.939 27.1127 216.821 27.1328ZM223.911 25.9072C223.509 25.9757 223.173 25.9358 222.904 25.7874C222.646 25.637 222.437 25.4175 222.278 25.129C222.117 24.8288 222.004 24.4958 221.941 24.1301C221.888 23.7506 221.867 23.3779 221.877 23.012C221.896 22.6931 221.927 22.3114 221.973 21.8666C222.031 21.4197 222.097 20.9532 222.172 20.467C222.247 19.9807 222.32 19.525 222.394 19.0997C222.478 18.6725 222.549 18.3387 222.605 18.0985C222.689 17.6594 222.77 17.3177 222.85 17.0734C222.942 16.8272 223.076 16.6889 223.254 16.6587C223.408 16.6324 223.559 16.6613 223.708 16.7452C223.856 16.8292 223.974 16.9488 224.063 17.1037C224.162 17.2568 224.211 17.4366 224.21 17.6431C224.207 17.8379 224.171 18.1233 224.101 18.4994C224.032 18.8755 223.951 19.2958 223.86 19.7605C223.77 20.2251 223.686 20.6947 223.609 21.1691C223.53 21.6319 223.486 22.0461 223.476 22.4121C223.459 22.7427 223.465 23.0574 223.492 23.3563C223.517 23.6434 223.569 23.8774 223.649 24.058C223.726 24.2268 223.842 24.2982 223.997 24.272C224.375 24.2074 224.798 23.7895 225.262 23.0183C225.739 22.2452 226.237 21.2073 226.757 19.9047C226.999 19.3292 227.206 18.7962 227.379 18.3056C227.55 17.8151 227.702 17.3885 227.834 17.0259C227.965 16.6516 228.104 16.3549 228.249 16.136C228.394 15.917 228.555 15.7923 228.733 15.7621C229.005 15.7157 229.219 15.7886 229.375 15.9807C229.539 16.159 229.645 16.4202 229.692 16.7644C229.744 17.071 229.797 17.4505 229.851 17.9027C229.916 18.353 229.984 18.815 230.053 19.2888C230.12 19.7508 230.194 20.1815 230.275 20.5805C230.428 21.2585 230.589 21.8077 230.76 22.228C230.939 22.6345 231.093 22.9604 231.22 23.2057C231.348 23.4511 231.42 23.6574 231.437 23.8245C231.447 23.9564 231.427 24.0872 231.376 24.2173C231.324 24.3355 231.249 24.4391 231.155 24.5281C231.061 24.617 230.948 24.6726 230.818 24.6947C230.403 24.7653 230.061 24.5445 229.789 24.0322C229.519 23.5199 229.257 22.8176 229.007 21.9256C228.91 21.5049 228.808 21.0549 228.702 20.5753C228.606 20.0937 228.523 19.61 228.451 19.1245C228.392 18.6368 228.339 18.1846 228.292 17.7677L228.837 17.8569C228.707 18.3039 228.548 18.7985 228.361 19.3403C228.174 19.8821 227.909 20.5767 227.567 21.424C227.273 22.1295 226.94 22.8116 226.565 23.4703C226.189 24.1171 225.777 24.6668 225.331 25.1192C224.894 25.5577 224.421 25.8204 223.911 25.9072ZM239.966 23.1736C239.645 23.2281 239.39 23.1258 239.199 22.867C239.018 22.5943 238.885 22.2467 238.801 21.824C238.764 21.6117 238.728 21.3689 238.694 21.0955C238.659 20.8223 238.635 20.5411 238.622 20.2519C238.621 19.9608 238.617 19.6942 238.612 19.4523C238.623 19.2319 238.637 18.9563 238.653 18.6257C238.681 18.2932 238.708 17.9547 238.734 17.6103C238.77 17.2521 238.799 16.9254 238.822 16.6302C238.854 16.3212 238.875 16.087 238.884 15.9276C238.881 15.7702 238.826 15.6642 238.72 15.6097C238.611 15.5431 238.437 15.5302 238.2 15.5705C238.011 15.6028 237.805 15.6498 237.585 15.7118C237.364 15.7737 237.126 15.8504 236.874 15.9419C236.29 16.1628 235.784 16.4434 235.355 16.7835C234.935 17.1098 234.724 17.4373 234.719 17.7659C234.707 18.0472 234.779 18.29 234.936 18.4939C235.102 18.684 235.387 18.8116 235.788 18.8769C236.201 18.9401 236.775 18.9091 237.51 18.784C237.77 18.7396 238.03 18.6894 238.288 18.6332C238.546 18.5771 238.793 18.5169 239.025 18.453C239.269 18.3753 239.471 18.3164 239.635 18.2764C239.797 18.2245 239.902 18.1946 239.949 18.1866C240.245 18.1361 240.496 18.1115 240.705 18.1126C240.912 18.1137 241.01 18.2243 240.999 18.4447C241.004 18.6867 240.906 18.8976 240.706 19.0775C240.516 19.2553 240.25 19.404 239.905 19.5235C239.571 19.6409 239.173 19.7391 238.712 19.8178L236.881 20.1294C236.241 20.2383 235.631 20.233 235.049 20.1134C234.48 19.9919 234.02 19.7607 233.668 19.4199C233.329 19.077 233.162 18.638 233.167 18.1029C233.183 17.7724 233.281 17.4159 233.459 17.0334C233.647 16.6372 233.946 16.2464 234.355 15.8611C234.776 15.4737 235.35 15.1211 236.075 14.8033C236.596 14.569 237.036 14.4029 237.398 14.3049C237.758 14.207 238.123 14.1268 238.49 14.0643C238.952 13.9856 239.325 13.9889 239.607 14.0743C239.891 14.1597 240.099 14.3063 240.232 14.5144C240.377 14.7203 240.445 14.9758 240.436 15.2808C240.432 15.5365 240.406 15.8504 240.361 16.2224C240.313 16.5827 240.267 16.9546 240.224 17.3385C240.19 17.7085 240.162 18.0411 240.139 18.3362C240.129 18.6294 240.128 18.9452 240.138 19.2835C240.145 19.61 240.163 19.9287 240.192 20.2394C240.221 20.5501 240.255 20.8175 240.294 21.0416C240.338 21.3011 240.392 21.5773 240.454 21.8702C240.526 22.1492 240.561 22.3438 240.555 22.454C240.56 22.6232 240.506 22.7779 240.397 22.918C240.287 23.0581 240.143 23.1433 239.966 23.1736ZM233.707 24.2209C233.494 24.2572 233.317 24.2147 233.173 24.0934C233.04 23.9582 232.975 23.7932 232.978 23.5984C232.992 23.4626 233.058 23.3177 233.178 23.1637C233.296 22.998 233.507 22.8043 233.809 22.5827C234.33 22.2028 234.83 21.7414 235.31 21.1984C235.8 20.6533 236.283 20.0552 236.757 19.404L237.986 19.8503C237.658 20.3553 237.294 20.8605 236.893 21.3658C236.501 21.8572 236.105 22.3134 235.701 22.7341C235.31 23.1529 234.942 23.4947 234.598 23.7598C234.253 24.0249 233.957 24.1786 233.707 24.2209ZM92.1673 64.619C91.5632 64.7219 91.0502 64.6818 90.6286 64.4986C90.2188 64.3134 89.8915 64.0413 89.6469 63.6823C89.412 63.3095 89.2433 62.8952 89.1404 62.4391C89.0475 61.9693 89.0039 61.5033 89.0097 61.041C89.0312 60.5274 89.0928 59.9645 89.1948 59.3523C89.3087 58.7379 89.4502 58.1433 89.6195 57.5681C89.7869 56.9811 89.9704 56.4885 90.1702 56.0902C90.2504 55.9188 90.3475 55.7747 90.4616 55.6582C90.5876 55.5397 90.7245 55.4495 90.8724 55.388C91.0183 55.3146 91.1682 55.2647 91.3222 55.2385C91.4644 55.2143 91.5732 55.2444 91.6486 55.3286C91.7221 55.401 91.7542 55.517 91.7451 55.6764C91.7399 55.8594 91.6777 56.1006 91.5586 56.4002C91.4512 56.6977 91.3185 57.0603 91.1604 57.4878C91.014 57.9134 90.881 58.4156 90.7611 58.9944C90.6391 59.5616 90.569 60.217 90.5505 60.9607C90.5263 61.7419 90.6476 62.3404 90.9142 62.7563C91.1808 63.1722 91.6163 63.3288 92.2204 63.226C92.6706 63.1493 93.1004 62.9547 93.51 62.6421C93.9195 62.3295 94.2617 61.9435 94.5362 61.484C94.8206 61.0106 94.9784 60.5103 95.0097 59.9829L95.263 60.2858C94.9465 60.2183 94.5759 60.1903 94.1511 60.2019C93.7362 60.1997 93.2957 60.2261 92.8296 60.2813C92.3734 60.3225 91.9281 60.3923 91.4939 60.4905C91.0576 60.5769 90.6727 60.6789 90.3393 60.7964L90.3696 59.5893C90.9835 59.4726 91.5518 59.303 92.0745 59.0804C92.6069 58.8441 93.067 58.5776 93.4549 58.2808C93.8547 57.9821 94.1695 57.6856 94.3994 57.3916C94.6272 57.0857 94.7397 56.8176 94.7367 56.5875C94.7438 56.4163 94.68 56.2936 94.5453 56.2194C94.4086 56.1334 94.2099 56.1126 93.9493 56.157C93.6295 56.2115 93.2999 56.3161 92.9608 56.471C92.6335 56.6239 92.2866 56.8044 91.9199 57.0125C91.5534 57.2205 91.1641 57.4386 90.7522 57.6666C90.5826 57.744 90.4305 57.7457 90.2958 57.6715C90.1729 57.5953 90.1171 57.4833 90.1283 57.3357C90.1354 57.1646 90.2216 56.9921 90.3868 56.8182C90.5618 56.6306 90.7321 56.4862 90.8976 56.3852C91.5553 55.8848 92.18 55.5113 92.7716 55.2648C93.3731 55.0046 93.9404 54.8291 94.4735 54.7384C94.8999 54.6658 95.2606 54.671 95.5553 54.7544C95.862 54.8358 96.0938 54.9784 96.2508 55.1823C96.4196 55.3843 96.4988 55.6318 96.4882 55.925C96.4821 56.3145 96.3662 56.7045 96.1408 57.0951C95.9153 57.4855 95.6088 57.8656 95.2212 58.235C94.8433 58.5908 94.4171 58.9123 93.9422 59.1995C93.4673 59.4868 92.9595 59.7249 92.419 59.9141L92.3922 59.2267C92.9449 59.1082 93.4603 59.0205 93.9382 58.9634C94.4279 58.9043 94.8635 58.8847 95.2449 58.9048C95.6263 58.9248 95.9281 59.0131 96.15 59.1696C96.3819 59.3122 96.5172 59.532 96.556 59.8288C96.6135 60.3047 96.5288 60.8048 96.3019 61.329C96.0849 61.8394 95.7601 62.3258 95.3275 62.7879C94.9066 63.2481 94.4204 63.6465 93.8687 63.9833C93.3267 64.3062 92.7597 64.5181 92.1673 64.619ZM108.3 61.7446C107.517 61.8777 106.885 61.8824 106.4 61.7584C105.915 61.6346 105.541 61.407 105.276 61.0756C105.024 60.7422 104.85 60.3347 104.755 59.8532C104.67 59.3577 104.638 58.8169 104.659 58.2305C104.676 57.6206 104.731 56.9859 104.825 56.3265C104.93 55.6532 105.066 54.9562 105.234 54.2354C105.343 53.8041 105.45 53.4703 105.556 53.2337C105.662 52.9972 105.803 52.8638 105.98 52.8336C106.23 52.7912 106.446 52.8454 106.63 52.9961C106.812 53.135 106.894 53.358 106.874 53.6649C106.869 53.8479 106.816 54.1482 106.717 54.5656C106.63 54.9811 106.537 55.5009 106.437 56.1249C106.337 56.749 106.273 57.4761 106.246 58.3065C106.228 58.8437 106.283 59.2713 106.411 59.5895C106.551 59.9056 106.775 60.1161 107.087 60.2211C107.409 60.324 107.837 60.3301 108.37 60.2393C108.701 60.1828 109.139 60.1023 109.682 59.9977C110.223 59.8813 110.805 59.7578 111.428 59.6274C112.052 59.4969 112.664 59.3684 113.264 59.242C113.874 59.1016 114.408 58.9745 114.864 58.8604C115.329 58.7326 115.666 58.6327 115.873 58.5611C116.022 58.5113 116.151 58.4409 116.257 58.3499C116.361 58.2472 116.421 58.0974 116.436 57.9007C116.47 57.1785 116.444 56.4969 116.359 55.856C116.283 55.2012 116.175 54.6065 116.033 54.072C115.904 53.5355 115.779 53.0894 115.657 52.7339C115.545 52.3645 115.482 52.1021 115.466 51.9468C115.446 51.756 115.503 51.5885 115.637 51.4443C115.768 51.2884 115.917 51.1963 116.082 51.168C116.355 51.1216 116.575 51.1935 116.741 51.3836C116.919 51.5599 117.074 51.7944 117.21 52.087C117.308 52.301 117.406 52.6242 117.505 53.0566C117.614 53.4751 117.713 53.9498 117.805 54.4807C117.908 55.0094 117.981 55.5432 118.025 56.0821C118.078 56.6071 118.1 57.089 118.09 57.5278C118.066 58.2361 117.917 58.7836 117.642 59.1704C117.376 59.5433 116.922 59.8393 116.277 60.0585C116.045 60.1342 115.685 60.2321 115.193 60.3522C114.699 60.4605 114.135 60.581 113.5 60.7135C112.866 60.8578 112.219 60.9923 111.557 61.1171C110.898 61.2536 110.279 61.3772 109.701 61.4879C109.134 61.5965 108.667 61.682 108.3 61.7446ZM111.312 60.7581C111.182 60.7803 111.044 60.7553 110.897 60.6831C110.748 60.5991 110.647 60.4707 110.593 60.2978C110.507 60.0089 110.443 59.6375 110.401 59.1831C110.37 58.7151 110.348 58.2331 110.336 57.7375C110.334 57.2279 110.339 56.7656 110.353 56.3504C110.374 55.6185 110.426 54.9661 110.51 54.3933C110.595 53.8204 110.672 53.4188 110.742 53.1883C110.784 53.011 110.852 52.8662 110.942 52.7536C111.03 52.6294 111.163 52.5521 111.34 52.5218C111.494 52.4956 111.633 52.5206 111.756 52.5968C111.879 52.6731 111.977 52.7837 112.051 52.929C112.124 53.0742 112.161 53.2502 112.16 53.4568C112.161 53.6024 112.135 53.813 112.085 54.0886C112.045 54.3504 112.001 54.6615 111.953 55.0217C111.917 55.3799 111.894 55.7724 111.882 56.1994C111.867 56.5418 111.867 56.9303 111.881 57.365C111.907 57.7977 111.939 58.2353 111.979 58.6778C112.016 59.1085 112.059 59.5017 112.108 59.8577C112.128 59.9756 112.089 60.1036 111.991 60.2418C111.903 60.3661 111.795 60.4816 111.667 60.5884C111.549 60.6814 111.43 60.7379 111.312 60.7581ZM127.439 58.522C127.083 58.5826 126.674 58.543 126.211 58.4033C125.746 58.2518 125.274 58.0285 124.798 57.7334C124.332 57.4363 123.891 57.1106 123.477 56.7563C123.074 56.4 122.745 56.0493 122.491 55.704C122.34 55.5355 122.234 55.3776 122.172 55.2303C122.12 55.0692 122.087 54.9109 122.072 54.7556C122.092 54.6552 122.121 54.5409 122.16 54.4129C122.199 54.2848 122.257 54.1656 122.336 54.055C122.445 53.8421 122.644 53.5472 122.934 53.1703C123.222 52.7932 123.56 52.3836 123.947 51.9414C124.345 51.4852 124.759 51.0566 125.189 50.6554C125.63 50.2404 126.051 49.8894 126.453 49.6025C126.867 49.3135 127.233 49.1418 127.554 49.0873C127.684 49.0651 127.789 49.0775 127.871 49.1243C127.964 49.1692 128.036 49.2358 128.089 49.3241C128.14 49.4124 128.168 49.5048 128.173 49.6011C128.205 49.8627 128.076 50.1396 127.785 50.432C127.494 50.7244 127.176 51.0032 126.832 51.2682C126.221 51.7606 125.687 52.2341 125.228 52.6884C124.77 53.1429 124.405 53.5389 124.134 53.8763C123.874 54.2119 123.749 54.4397 123.758 54.5597C123.75 54.658 123.81 54.7935 123.937 54.9661C124.064 55.1387 124.25 55.3317 124.494 55.5451C124.75 55.7565 125.048 55.9667 125.389 56.1758C125.742 56.3828 126.128 56.572 126.547 56.7434C126.797 56.8467 127.039 56.945 127.275 57.0384C127.521 57.118 127.719 57.2116 127.872 57.3192C128.035 57.4129 128.123 57.5375 128.138 57.6928C128.148 57.8246 128.127 57.9496 128.074 58.0679C128.021 58.1862 127.934 58.2859 127.814 58.367C127.706 58.4462 127.581 58.4978 127.439 58.522ZM121.519 59.5119C121.21 59.5644 120.977 59.4463 120.818 59.1578C120.656 58.8575 120.548 58.4084 120.494 57.8106C120.45 57.1989 120.438 56.4543 120.458 55.5769C120.468 55.2109 120.487 54.8252 120.514 54.4198C120.554 54.0125 120.594 53.605 120.633 53.1976C120.671 52.7785 120.693 52.3741 120.699 51.9845C120.706 51.8861 120.708 51.7887 120.704 51.6924C120.709 51.5822 120.709 51.473 120.702 51.3648C120.709 51.1208 120.741 50.9151 120.798 50.7477C120.854 50.5802 120.929 50.4461 121.021 50.3454C121.123 50.2308 121.233 50.1635 121.352 50.1433C121.625 50.097 121.859 50.1844 122.055 50.4059C122.262 50.6136 122.356 50.9437 122.336 51.3963C122.327 51.7012 122.295 52.0831 122.24 52.5416C122.195 52.9865 122.146 53.444 122.093 53.9144C122.038 54.3848 122.006 54.7972 121.994 55.1513C121.992 55.7829 122.004 56.3454 122.028 56.8392C122.063 57.3308 122.104 57.7369 122.147 58.0574C122.187 58.3661 122.2 58.5825 122.185 58.7064C122.186 58.852 122.154 58.985 122.089 59.1052C122.033 59.2117 121.957 59.2976 121.858 59.3629C121.774 59.438 121.661 59.4877 121.519 59.5119ZM134.218 57.386C133.246 57.5514 132.41 57.4752 131.709 57.1575C131.02 56.8378 130.495 56.3383 130.135 55.6591C129.784 54.9661 129.617 54.1386 129.634 53.1766C129.651 52.4937 129.777 51.8774 130.011 51.3277C130.256 50.7639 130.55 50.2768 130.894 49.8662C131.249 49.4535 131.621 49.1293 132.007 48.8936C132.391 48.646 132.732 48.4971 133.028 48.4466C133.158 48.4245 133.267 48.424 133.357 48.4452C133.458 48.4644 133.539 48.5113 133.6 48.5858C133.672 48.6465 133.707 48.7438 133.705 48.8775C133.687 49.1235 133.629 49.3579 133.534 49.5806C133.436 49.7915 133.222 50.0039 132.893 50.2177C132.501 50.4909 132.179 50.7765 131.925 51.0747C131.681 51.359 131.498 51.6755 131.375 52.0242C131.25 52.3611 131.189 52.7539 131.193 53.2024C131.168 54.1901 131.413 54.9376 131.926 55.445C132.438 55.9406 133.121 56.1158 133.974 55.9706C134.804 55.8294 135.475 55.4114 135.99 54.7167C136.514 54.0083 136.786 53.1425 136.805 52.1194C136.839 51.1789 136.658 50.4813 136.262 50.0265C135.865 49.5599 135.31 49.3872 134.6 49.5083C134.233 49.5708 133.931 49.695 133.695 49.8809C133.471 50.0648 133.23 50.2999 132.975 50.5863C132.792 50.7995 132.647 50.988 132.541 51.1517C132.436 51.3155 132.337 51.4477 132.244 51.5485C132.162 51.6353 132.044 51.6919 131.889 51.7181C131.723 51.7463 131.584 51.7155 131.471 51.6254C131.368 51.5216 131.318 51.3418 131.323 51.086C131.324 50.8067 131.413 50.5063 131.589 50.1849C131.777 49.8614 132.017 49.5535 132.308 49.2612C132.609 48.9549 132.943 48.6978 133.309 48.4897C133.674 48.2698 134.046 48.1276 134.425 48.063C135.277 47.9178 136.006 48.0003 136.607 48.3106C137.207 48.609 137.662 49.0901 137.971 49.7537C138.278 50.4056 138.414 51.1959 138.379 52.1246C138.365 53.0374 138.179 53.8705 137.821 54.6235C137.461 55.3647 136.968 55.9767 136.344 56.4593C135.732 56.9399 135.023 57.2488 134.218 57.386ZM140.551 56.3074C140.386 56.3357 140.246 56.3047 140.134 56.2147C140.035 56.1345 139.959 56.0139 139.906 55.8527C139.842 55.6936 139.818 55.5157 139.833 55.3189C139.843 55.0985 139.907 54.7963 140.025 54.4122C140.151 54.0143 140.318 53.5669 140.525 53.0703C140.731 52.5619 140.948 52.0515 141.176 51.539C141.425 50.9989 141.68 50.4636 141.942 49.9334C142.215 49.3892 142.478 48.9012 142.734 48.4693C142.986 48.0256 143.2 47.6735 143.375 47.4131C143.65 47.0264 143.922 46.7311 144.192 46.5274C144.471 46.3098 144.766 46.1748 145.073 46.1223C145.358 46.0739 145.57 46.1408 145.711 46.3232C145.85 46.4938 145.975 46.7214 146.085 47.0063C146.197 47.3028 146.312 47.6536 146.43 48.0584C146.548 48.4631 146.676 48.8786 146.81 49.305C146.942 49.7195 147.084 50.1203 147.236 50.5072C147.416 50.9865 147.578 51.396 147.721 51.7357C147.877 52.0734 148.018 52.3591 148.143 52.5927C148.28 52.8242 148.406 53.0214 148.519 53.1842C148.629 53.3235 148.717 53.448 148.785 53.5579C148.852 53.6677 148.891 53.7886 148.902 53.9203C148.916 54.0757 148.894 54.2313 148.836 54.3869C148.777 54.5425 148.689 54.6669 148.571 54.7598C148.466 54.8625 148.337 54.927 148.183 54.9533C147.959 54.9916 147.738 54.9198 147.524 54.7377C147.32 54.5418 147.12 54.2663 146.925 53.9109C146.73 53.5557 146.541 53.1689 146.359 52.7506C146.254 52.4895 146.115 52.1428 145.943 51.7107C145.781 51.2648 145.613 50.7836 145.439 50.2669C145.263 49.7384 145.102 49.2315 144.958 48.7462C144.825 48.2588 144.725 47.851 144.656 47.5228L145.035 47.6038C144.757 47.967 144.462 48.4178 144.153 48.9562C143.852 49.4807 143.544 50.0613 143.226 50.6982C142.921 51.3329 142.626 51.9902 142.34 52.6702C142.067 53.3481 141.822 54.0209 141.608 54.6888C141.427 55.1932 141.261 55.5794 141.112 55.8476C140.976 56.1138 140.789 56.2671 140.551 56.3074ZM154.224 53.9429C153.49 54.0679 152.856 54.0726 152.324 53.9568C151.802 53.8272 151.379 53.6017 151.055 53.2805C150.73 52.9474 150.489 52.5391 150.333 52.0558C150.189 51.5706 150.125 51.0229 150.142 50.413C150.173 49.8128 150.298 49.1965 150.519 48.5641C150.749 47.9179 151.065 47.3115 151.468 46.7453C151.883 46.1769 152.367 45.6998 152.923 45.3138C153.488 44.914 154.109 44.6566 154.784 44.5417C155.412 44.4347 155.944 44.4473 156.381 44.5793C156.83 44.7092 157.165 44.9556 157.387 45.3186C157.619 45.6796 157.727 46.1651 157.71 46.7751C157.698 47.2748 157.577 47.7386 157.346 48.1665C157.124 48.5805 156.817 48.9547 156.423 49.2888C156.039 49.6091 155.593 49.8854 155.084 50.1178C154.586 50.3363 154.04 50.4959 153.448 50.5968C152.642 50.734 152.087 50.7314 151.781 50.5891C151.489 50.4447 151.346 50.2505 151.353 50.0066C151.352 49.861 151.388 49.7516 151.461 49.6785C151.531 49.5936 151.655 49.5361 151.833 49.5058C151.964 49.4836 152.122 49.481 152.307 49.4979C152.503 49.5011 152.785 49.4714 153.151 49.4088C153.744 49.3079 154.263 49.1346 154.708 48.8888C155.165 48.641 155.524 48.3493 155.783 48.0137C156.041 47.6664 156.178 47.297 156.196 46.9053C156.206 46.5394 156.113 46.2821 155.917 46.1334C155.732 45.9827 155.41 45.9467 154.947 46.0254C154.485 46.104 154.06 46.2859 153.669 46.5708C153.29 46.8418 152.946 47.1857 152.64 47.602C152.345 48.0164 152.113 48.4747 151.944 48.9771C151.773 49.4795 151.685 49.9923 151.677 50.5157C151.668 50.9545 151.728 51.3447 151.86 51.6865C151.991 52.0165 152.217 52.2693 152.54 52.445C152.872 52.6068 153.312 52.6414 153.856 52.5486C154.472 52.4437 154.986 52.2772 155.398 52.0493C155.819 51.8075 156.167 51.5542 156.438 51.2895C156.71 51.0247 156.938 50.7975 157.125 50.6078C157.313 50.4183 157.489 50.3093 157.654 50.281C157.856 50.2467 158.012 50.2992 158.121 50.4384C158.24 50.5639 158.296 50.7486 158.289 50.9925C158.282 51.2365 158.165 51.5115 157.937 51.8173C157.719 52.1094 157.416 52.4038 157.028 52.7005C156.652 52.9953 156.221 53.2567 155.736 53.485C155.262 53.6995 154.757 53.8521 154.224 53.9429Z" fill="#7831B2"/>
</svg>
