<svg width="219" height="86" viewBox="0 0 219 86" fill="none" xmlns="http://www.w3.org/2000/svg">
<path d="M7.94963 13.7709C7.57202 13.7767 7.15557 13.7127 6.70029 13.5788C6.24501 13.4449 5.77811 13.257 5.2996 13.0152C4.83172 12.7623 4.38483 12.4712 3.95894 12.1418C3.54384 11.8123 3.17688 11.4549 2.85806 11.0697C2.53907 10.6737 2.30091 10.271 2.14359 9.86163C1.98611 9.44145 1.94738 9.02486 2.02742 8.61186C2.10646 8.13386 2.3041 7.64862 2.62034 7.15614C2.93641 6.65282 3.34427 6.15352 3.84391 5.65822C4.35419 5.15191 4.93483 4.66079 5.58585 4.18483C6.23671 3.69804 6.94184 3.23209 7.70125 2.78698C8.08635 2.56434 8.39666 2.39161 8.6322 2.26879C8.86774 2.14598 9.07182 2.08324 9.24445 2.08059C9.43865 2.07761 9.58521 2.13495 9.68412 2.25263C9.79366 2.3593 9.82311 2.52139 9.77247 2.73889C9.74341 2.95606 9.63318 3.15822 9.44179 3.34537C9.26102 3.52153 8.978 3.71551 8.59274 3.92731C7.833 4.35076 7.14356 4.78396 6.52441 5.22692C5.91588 5.65888 5.38811 6.07876 4.94108 6.48656C4.50485 6.8942 4.15999 7.27876 3.9065 7.64024C3.65285 7.9909 3.50104 8.29664 3.45106 8.55747C3.4019 8.87247 3.46105 9.21289 3.6285 9.57874C3.80657 9.9336 4.08183 10.2924 4.45427 10.6551C4.82654 11.0069 5.29019 11.3357 5.84521 11.6414C6.40007 11.9363 7.02962 12.1759 7.73388 12.3601C8.17837 12.4941 8.46095 12.6252 8.5816 12.7534C8.71305 12.8814 8.75869 13.0433 8.7185 13.2389C8.68878 13.4128 8.61524 13.5439 8.49788 13.6324C8.38053 13.7209 8.19777 13.7671 7.94963 13.7709ZM0.796581 13.8808C0.537647 13.8848 0.347272 13.7848 0.225456 13.5808C0.114429 13.3766 0.0661534 13.0414 0.0806297 12.5753C0.10573 12.0981 0.187774 11.4629 0.326763 10.6698C0.486338 9.81126 0.668317 9.00659 0.8727 8.25577C1.07692 7.49411 1.26619 6.81395 1.44052 6.21529C1.61485 5.61663 1.73157 5.13263 1.79069 4.7633C1.86076 4.40463 1.89962 4.1223 1.90727 3.91629C1.91476 3.69946 1.91718 3.50437 1.91454 3.33104C1.9119 3.1577 1.93067 2.9732 1.97085 2.77754C2.0107 2.5602 2.08922 2.40187 2.20642 2.30255C2.33423 2.19222 2.48445 2.13573 2.65707 2.13308C2.89443 2.12943 3.0629 2.20811 3.16247 2.36912C3.27284 2.52997 3.34088 2.74564 3.36658 3.01615C3.39212 3.27582 3.38563 3.55765 3.3471 3.86165C3.31919 4.15466 3.28025 4.43157 3.23027 4.69241C3.15106 5.15957 3.01898 5.69799 2.83402 6.30764C2.65986 6.91714 2.48072 7.5538 2.29659 8.21763C2.1123 8.87062 1.96013 9.50687 1.84007 10.1264C1.74061 10.6805 1.67177 11.1204 1.63357 11.4461C1.59537 11.7718 1.57236 12.0322 1.56455 12.2274C1.55656 12.4117 1.54294 12.5799 1.52367 12.7319C1.51503 12.8729 1.49618 13.052 1.46712 13.2691C1.42677 13.454 1.34808 13.6015 1.23105 13.7116C1.11403 13.8218 0.969203 13.8782 0.796581 13.8808Z" fill="#7831B2"/>
<path d="M13.4606 13.7024C12.5759 13.716 11.8447 13.5322 11.2669 13.151C10.6999 12.7696 10.3035 12.2502 10.0777 11.5926C9.86243 10.9241 9.82921 10.1607 9.978 9.30235C10.0874 8.69386 10.2843 8.15986 10.5687 7.70038C10.8637 7.2299 11.1922 6.83475 11.5542 6.51494C11.927 6.19497 12.3011 5.95624 12.6764 5.79877C13.0515 5.63047 13.374 5.54424 13.6437 5.54009C13.7624 5.53827 13.8597 5.55303 13.9357 5.58437C14.0225 5.61554 14.0881 5.66871 14.1324 5.74388C14.1873 5.80805 14.2049 5.89989 14.1852 6.01939C14.1345 6.23689 14.0513 6.43863 13.9354 6.62463C13.8194 6.79979 13.6006 6.96027 13.2791 7.10608C12.8935 7.29622 12.5676 7.50712 12.3013 7.73877C12.0457 7.95941 11.8392 8.21724 11.6818 8.51223C11.5243 8.79638 11.4162 9.13938 11.3575 9.54121C11.1983 10.4214 11.3115 11.124 11.6972 11.649C12.0828 12.1632 12.6639 12.4144 13.4407 12.4024C14.196 12.3908 14.85 12.1098 15.4027 11.5596C15.9661 10.9983 16.3272 10.2613 16.4859 9.34861C16.6458 8.51178 16.582 7.8626 16.2944 7.40107C16.0066 6.92871 15.539 6.6975 14.8917 6.70745C14.5573 6.71259 14.2723 6.78199 14.037 6.91564C13.8124 7.04912 13.5669 7.22627 13.3005 7.44709C13.1087 7.61258 12.9545 7.76123 12.8378 7.89306C12.7211 8.02488 12.6148 8.12946 12.5189 8.20679C12.4335 8.27312 12.3208 8.30736 12.1805 8.30951C12.0295 8.31184 11.91 8.26491 11.8222 8.16873C11.7451 8.06156 11.7263 7.89389 11.766 7.66572C11.8054 7.41589 11.9256 7.1594 12.1266 6.89624C12.3384 6.63292 12.5937 6.3906 12.8925 6.16929C13.2019 5.93698 13.5336 5.75309 13.8877 5.61761C14.2416 5.4713 14.5911 5.3955 14.9364 5.39019C15.7132 5.37825 16.3471 5.55272 16.8383 5.91359C17.3292 6.26364 17.6659 6.75692 17.8482 7.39344C18.0304 8.01913 18.0415 8.74497 17.8814 9.57097C17.7428 10.3858 17.4624 11.1053 17.0402 11.7294C16.6179 12.3427 16.0964 12.8221 15.4758 13.1676C14.866 13.5129 14.1942 13.6911 13.4606 13.7024Z" fill="#7831B2"/>
<path d="M20.0869 13.5843C19.828 13.5883 19.6315 13.4396 19.4974 13.1383C19.3633 12.8369 19.3509 12.382 19.4604 11.7735C19.5099 11.4802 19.6056 11.0344 19.7475 10.4363C19.8893 9.82726 20.1114 9.17369 20.4137 8.47553C20.768 7.64655 21.0871 6.99149 21.3712 6.51033C21.655 6.01835 21.9356 5.66187 22.2128 5.44089C22.49 5.21991 22.7742 5.10718 23.0655 5.1027C23.2921 5.09922 23.4661 5.18865 23.5876 5.37099C23.7199 5.55317 23.815 5.77385 23.8729 6.03302C23.9308 6.2922 23.9779 6.55154 24.0143 6.81104C24.0627 7.15705 24.1225 7.54081 24.1937 7.96232C24.2756 8.38367 24.3631 8.81034 24.456 9.24236C24.5597 9.6742 24.6739 10.0842 24.7985 10.4724C24.9339 10.8604 25.0846 11.1886 25.2506 11.4569L24.6699 11.5959C24.9734 10.9736 25.2984 10.3509 25.6451 9.72795C25.9917 9.10497 26.3387 8.50908 26.6862 7.94026C27.0336 7.37145 27.3604 6.86255 27.6665 6.41357C28.0046 5.94242 28.2909 5.60753 28.5253 5.40887C28.7705 5.21006 28.9901 5.10916 29.1843 5.10617C29.3246 5.10402 29.4546 5.13453 29.5742 5.1977C29.6937 5.25005 29.7972 5.31347 29.8847 5.38798C30.0052 5.50532 30.0991 5.65017 30.1665 5.82251C30.2339 5.99485 30.2486 6.25469 30.2107 6.60202C30.1255 7.38352 30.0715 8.08869 30.0488 8.71753C30.0366 9.33537 30.0391 9.85546 30.0564 10.2778C30.0785 11.0251 30.1416 11.6202 30.2454 12.0628C30.3601 12.5054 30.4022 12.7919 30.3718 12.9224C30.3524 13.0635 30.2786 13.1784 30.1505 13.2671C30.0333 13.3664 29.8884 13.4174 29.7158 13.4201C29.4568 13.424 29.2391 13.3028 29.0627 13.0563C28.8971 12.8096 28.7895 12.4753 28.7399 12.0535C28.6908 11.6641 28.6509 11.1717 28.6202 10.5762C28.6004 9.98052 28.6064 9.31401 28.6383 8.57667C28.6809 7.82833 28.7555 7.05783 28.8621 6.26516L29.3297 6.1442C29.0765 6.52735 28.7918 6.96516 28.4756 7.45765C28.17 7.93913 27.8539 8.44244 27.5274 8.96759C27.2116 9.49257 26.9066 10.012 26.6123 10.5258C26.3287 11.0394 26.0771 11.5255 25.8575 11.984C25.742 12.1917 25.6042 12.3563 25.4442 12.478C25.2949 12.5995 25.1178 12.6618 24.9128 12.6649C24.6539 12.6689 24.4372 12.6126 24.2628 12.4961C24.099 12.3686 23.9561 12.1974 23.8341 11.9826C23.7227 11.7567 23.6218 11.5091 23.5314 11.2396C23.4859 11.0886 23.4234 10.8782 23.3437 10.6085C23.2639 10.328 23.1836 10.015 23.1028 9.66951C23.022 9.324 22.9462 8.95674 22.8756 8.56773C22.8049 8.17872 22.7451 7.79496 22.6961 7.41645C22.647 7.02711 22.6199 6.66452 22.6148 6.32868L23.0983 6.19122C22.7396 6.72769 22.4238 7.25268 22.1511 7.76616C21.8891 8.27948 21.6652 8.80847 21.4792 9.35313C21.3039 9.88679 21.1562 10.4634 21.0362 11.0829C20.9563 11.5067 20.8972 11.876 20.8588 12.1909C20.8313 12.5055 20.8025 12.7444 20.7726 12.9074C20.7323 13.0922 20.6592 13.2504 20.5532 13.3821C20.4473 13.5138 20.2919 13.5812 20.0869 13.5843Z" fill="#7831B2"/>
<path d="M35.6116 13.3457C34.8995 13.3566 34.3146 13.2139 33.8568 12.9176C33.4097 12.6102 33.0795 12.1872 32.8662 11.6487C32.6636 11.0992 32.5569 10.4669 32.546 9.75191C32.5349 9.02607 32.6039 8.24482 32.753 7.40815C32.8819 6.65849 33.0766 5.98366 33.3373 5.38367C33.5978 4.77285 33.8918 4.24279 34.2195 3.79347C34.5578 3.33316 34.9136 2.95385 35.2867 2.65554C35.6599 2.35723 36.0342 2.13476 36.4096 1.98812C36.9139 1.79616 37.419 1.65836 37.9249 1.57473C38.4417 1.49094 38.9043 1.40256 39.313 1.30959C39.7862 1.20479 40.1892 1.09023 40.5218 0.965925C40.8544 0.841616 41.1071 0.778135 41.2797 0.775482C41.4091 0.773492 41.5283 0.804168 41.6372 0.86751C41.7569 0.930686 41.8446 1.02144 41.9003 1.13978C41.9559 1.24729 41.9687 1.37713 41.9387 1.52929C41.9091 1.71396 41.7982 1.87278 41.606 2.00577C41.4136 2.12792 41.1723 2.22916 40.8822 2.30947C40.3021 2.48093 39.7698 2.60289 39.2852 2.67535C38.8114 2.73681 38.3752 2.7977 37.9769 2.858C37.5783 2.90747 37.1915 3.01636 36.8164 3.18467C36.4517 3.33114 36.0942 3.59128 35.7437 3.96509C35.4039 4.3279 35.0979 4.7823 34.8257 5.32829C34.564 5.86327 34.3736 6.4676 34.2544 7.14126C34.0455 8.30393 33.9574 9.24802 33.99 9.97353C34.0333 10.688 34.2031 11.211 34.4995 11.5423C34.8067 11.8735 35.2301 12.035 35.7695 12.0267C36.1363 12.0211 36.5071 11.9232 36.882 11.7333C37.2566 11.5325 37.6034 11.2725 37.9222 10.9533C38.2519 10.634 38.5272 10.2885 38.7482 9.91665C38.9797 9.53382 39.1252 9.16317 39.1844 8.80467C39.2648 8.41333 39.2544 8.083 39.1531 7.81365C39.0625 7.53331 38.8867 7.32471 38.6256 7.18785C38.3644 7.04016 38.018 6.96964 37.5864 6.97627C37.0146 6.98506 36.3751 7.15743 35.668 7.49338C34.9717 7.82916 34.2725 8.33295 33.5706 9.00473L33.0433 8.39519C33.4762 7.77088 33.9702 7.25941 34.5253 6.86078C35.0802 6.45132 35.6583 6.14986 36.2597 5.95641C36.8609 5.75212 37.4312 5.64583 37.9707 5.63753C38.6288 5.62742 39.1809 5.74355 39.6271 5.98592C40.0731 6.21745 40.3912 6.55932 40.5816 7.0115C40.7719 7.46369 40.7967 8.02678 40.6559 8.70078C40.5458 9.26594 40.333 9.82185 40.0176 10.3685C39.7129 10.9041 39.3319 11.3976 38.8747 11.8489C38.4174 12.2894 37.9103 12.6494 37.3534 12.9288C36.7964 13.1975 36.2157 13.3364 35.6116 13.3457Z" fill="#7831B2"/>
<path d="M43.6762 13.2217C43.3094 13.2274 43.0167 13.1452 42.7983 12.9752C42.5907 12.805 42.4362 12.5798 42.3348 12.2996C42.2332 12.0086 42.1799 11.6952 42.1748 11.3593C42.1803 11.0125 42.2129 10.6761 42.2727 10.3501C42.3331 10.0674 42.4143 9.73026 42.5163 9.3386C42.629 8.94677 42.7523 8.53852 42.8861 8.11386C43.0199 7.6892 43.1487 7.29171 43.2726 6.92138C43.4072 6.55088 43.5161 6.26206 43.5993 6.05489C43.7338 5.67356 43.8534 5.37915 43.9581 5.17166C44.0737 4.964 44.2124 4.85893 44.3742 4.85644C44.5145 4.85428 44.6447 4.90104 44.7648 4.99672C44.885 5.0924 44.9732 5.21566 45.0295 5.3665C45.0965 5.51717 45.1153 5.68484 45.0857 5.8695C45.056 6.04334 44.9843 6.29367 44.8705 6.6205C44.7568 6.94733 44.6275 7.31232 44.4825 7.71548C44.3376 8.11864 44.1982 8.52713 44.0642 8.94096C43.93 9.34396 43.8331 9.70846 43.7733 10.0345C43.713 10.328 43.6741 10.6103 43.6567 10.8815C43.6391 11.1418 43.6532 11.3583 43.699 11.531C43.7446 11.6928 43.8376 11.7726 43.9778 11.7705C44.3231 11.7652 44.7553 11.4497 45.2745 10.8241C45.8046 10.1983 46.3904 9.33865 47.032 8.24518C47.3268 7.76387 47.5844 7.31563 47.8047 6.90048C48.025 6.48532 48.2191 6.12475 48.3871 5.81876C48.5549 5.50194 48.7185 5.25561 48.8776 5.07979C49.0368 4.90396 49.1973 4.81481 49.3592 4.81232C49.6073 4.80851 49.7868 4.90327 49.8977 5.09662C50.0192 5.27896 50.0769 5.5273 50.0709 5.84164C50.0752 6.12331 50.0697 6.47015 50.0544 6.88215C50.0499 7.29399 50.0455 7.71666 50.0414 8.15017C50.037 8.57284 50.043 8.96826 50.0594 9.33643C50.1014 9.96428 50.1686 10.478 50.261 10.8775C50.364 11.266 50.4551 11.5788 50.5343 11.816C50.6135 12.0532 50.6488 12.2477 50.6403 12.3995C50.6313 12.5188 50.5953 12.6332 50.5322 12.7425C50.469 12.841 50.3893 12.9235 50.2932 12.99C50.1971 13.0565 50.0897 13.0906 49.971 13.0925C49.7229 13.0963 49.5162 12.9857 49.3509 12.7607C49.1963 12.5355 49.0728 12.2177 48.9802 11.8074C48.8876 11.397 48.8101 10.916 48.7478 10.3643C48.7202 9.97467 48.6923 9.55791 48.664 9.11407C48.6464 8.67006 48.6396 8.22589 48.6436 7.78155C48.6585 7.33705 48.6738 6.92505 48.6896 6.54554L49.1613 6.70083C49.0357 6.95199 48.8995 7.21957 48.7527 7.50356C48.6168 7.78738 48.449 8.10963 48.2495 8.47028C48.0606 8.81994 47.8241 9.23534 47.54 9.71649C47.1821 10.3071 46.7915 10.8712 46.368 11.4087C45.9444 11.9353 45.5031 12.3701 45.0443 12.7131C44.5962 13.0451 44.1401 13.2146 43.6762 13.2217Z" fill="#7831B2"/>
<path d="M53.3451 13.0731C52.9567 13.0791 52.694 12.8339 52.5569 12.3375C52.4199 11.8412 52.426 11.1801 52.5752 10.3543C52.696 9.77811 52.835 9.34253 52.9924 9.04754C53.1604 8.74155 53.3514 8.53273 53.5656 8.42108C53.6833 8.35425 53.8499 8.31376 54.0655 8.29961C54.281 8.27463 54.5074 8.26031 54.7447 8.25667C55.5323 8.24456 56.3085 8.1947 57.0734 8.10709C57.8489 8.00849 58.607 7.83429 59.3478 7.58451L59.6562 8.7013C59.0985 8.92659 58.4968 9.09838 57.8511 9.21667C57.2054 9.33495 56.5485 9.4209 55.8802 9.47452C55.2226 9.51713 54.5809 9.54325 53.9551 9.55287L53.0143 9.42105C53.1448 8.77971 53.2802 8.1058 53.4205 7.3993C53.5608 6.69281 53.6807 6.06247 53.7802 5.50831C53.8194 5.24764 53.9024 5.03506 54.0294 4.87057C54.1564 4.70608 54.3008 4.62259 54.4627 4.6201C54.7324 4.61595 54.9336 4.72122 55.0664 4.9359C55.199 5.13975 55.2202 5.46992 55.1301 5.92642C55.0905 6.16542 55.0302 6.4535 54.949 6.79066C54.8678 7.12783 54.7815 7.48133 54.69 7.85116C54.6093 8.22082 54.5283 8.57424 54.4472 8.9114C54.3766 9.23757 54.3214 9.50931 54.2815 9.72665C54.1616 10.357 54.0731 10.9218 54.016 11.4211C53.9695 11.9095 53.9265 12.2786 53.8872 12.5284C53.8571 12.6806 53.7889 12.8062 53.6825 12.9054C53.587 13.0152 53.4746 13.0711 53.3451 13.0731ZM58.9284 12.9873C58.6587 12.9914 58.4621 12.8373 58.3386 12.525C58.2259 12.2125 58.1708 11.7853 58.1734 11.2435C58.1865 10.6906 58.2528 10.0828 58.3722 9.41996C58.5721 8.37663 58.7484 7.55038 58.901 6.94122C59.0642 6.32106 59.2132 5.83115 59.348 5.47149C59.4307 5.23182 59.5353 5.01891 59.662 4.83276C59.7886 4.6466 59.9437 4.55211 60.1271 4.54929C60.3644 4.54564 60.5334 4.65682 60.634 4.88283C60.7452 5.09784 60.7708 5.36293 60.7108 5.6781C60.6413 6.06926 60.529 6.49359 60.3741 6.95109C60.23 7.40841 60.1135 7.90324 60.0245 8.43558C59.9049 9.08757 59.8222 9.67941 59.7764 10.2111C59.7411 10.7317 59.7208 11.1709 59.7155 11.5286C59.7102 11.8863 59.6872 12.1521 59.6467 12.3261C59.6173 12.5216 59.5334 12.68 59.395 12.8013C59.2565 12.9227 59.101 12.9846 58.9284 12.9873Z" fill="#7831B2"/>
<path d="M63.8295 12.8957C63.3333 12.9033 62.9269 12.7904 62.6103 12.5569C62.3046 12.3232 62.0892 11.996 61.9641 11.5753C61.8498 11.1545 61.8423 10.6669 61.9418 10.1128C62.031 9.59128 62.201 9.06854 62.4521 8.54455C62.7137 8.00956 63.0351 7.50616 63.4164 7.03436C63.7976 6.55171 64.2174 6.12807 64.6759 5.76344C65.145 5.3878 65.6369 5.09309 66.1516 4.87929C66.6771 4.66533 67.2042 4.55429 67.7329 4.54616C67.981 4.54235 68.1762 4.60436 68.3184 4.73221C68.4607 4.86005 68.5068 5.05439 68.4568 5.31522C68.4372 5.44556 68.3796 5.56022 68.284 5.65921C68.1882 5.74738 68.0488 5.8037 67.8657 5.82818C67.1121 5.94813 66.415 6.22974 65.7743 6.67303C65.1443 7.11616 64.6183 7.64979 64.1961 8.27393C63.7846 8.88707 63.5139 9.53056 63.3838 10.2044C63.3239 10.5196 63.2959 10.8071 63.2999 11.0671C63.3037 11.3163 63.3626 11.6405 63.4766 12.0397L62.8445 10.9279C63.0425 11.174 63.2176 11.3339 63.3698 11.4074C63.5328 11.4808 63.7599 11.5152 64.0512 11.5107C64.7417 11.5001 65.4362 11.0451 66.1348 10.1459C66.8333 9.24656 67.4717 7.94185 68.0499 6.2317C68.1223 6.02471 68.2224 5.86605 68.3502 5.75572C68.4887 5.6344 68.6496 5.57233 68.833 5.56951C69.0811 5.56569 69.2716 5.67112 69.4044 5.8858C69.5478 6.08948 69.6112 6.35399 69.5945 6.67933C69.5618 7.3625 69.5496 7.98034 69.558 8.53285C69.5771 9.07436 69.6442 9.58262 69.7593 10.0576C69.8853 10.5325 70.0978 11.0223 70.3968 11.5269C70.4632 11.6343 70.4921 11.7585 70.4835 11.8995C70.4856 12.0403 70.4499 12.1763 70.3764 12.3075C70.3136 12.4385 70.2236 12.5482 70.1062 12.6367C69.9995 12.7142 69.8706 12.7541 69.7196 12.7564C69.5577 12.7589 69.4277 12.7284 69.3297 12.6649C69.2424 12.6012 69.1654 12.5103 69.0989 12.3921C68.9435 12.1128 68.8041 11.8169 68.6807 11.5046C68.5572 11.1922 68.4547 10.8362 68.373 10.4365C68.302 10.0259 68.2677 9.54418 68.2701 8.9915C68.2724 8.43883 68.3164 7.78258 68.4019 7.02274L68.9843 6.99753C68.6448 8.08636 68.2649 9.00784 67.8447 9.76198C67.4244 10.5053 66.9804 11.1081 66.5126 11.5704C66.0554 12.0217 65.5965 12.3538 65.1357 12.5668C64.6749 12.7798 64.2395 12.8894 63.8295 12.8957Z" fill="#7831B2"/>
<path d="M78.7701 14.8604C78.5544 14.8637 78.4021 14.7847 78.3133 14.6236C78.2247 14.4732 78.1953 14.3166 78.2252 14.1536C78.2448 14.0232 78.2962 13.8545 78.3793 13.6473C78.4733 13.44 78.5669 13.211 78.6602 12.9603C78.7643 12.7095 78.8469 12.4644 78.908 12.2251L79.3477 12.3971C79.1319 12.4004 78.8515 12.4102 78.5064 12.4263C78.1721 12.4423 77.8002 12.4642 77.3905 12.4922C76.9917 12.52 76.5819 12.5426 76.1613 12.5599C75.7409 12.588 75.3365 12.6105 74.9483 12.6273C74.5601 12.6441 74.2149 12.6548 73.9128 12.6594C73.3086 12.6687 72.87 12.5671 72.597 12.3546C72.324 12.1421 72.1683 11.8411 72.13 11.4515C72.0917 11.062 72.1225 10.6065 72.2225 10.0848C72.2721 9.80229 72.3477 9.44896 72.4491 9.02479C72.5504 8.58979 72.6622 8.13838 72.7846 7.67055C72.9178 7.20256 73.0459 6.76173 73.1691 6.34807C73.3031 5.93424 73.4168 5.60741 73.5103 5.36758C73.6243 5.06242 73.761 4.82734 73.9204 4.66235C74.0796 4.48653 74.2887 4.39663 74.5476 4.39265C74.6879 4.39049 74.8074 4.44825 74.9063 4.56593C75.0051 4.67277 75.0453 4.83469 75.0271 5.05169C75.0282 5.12753 74.972 5.33428 74.8585 5.67194C74.7557 6.00943 74.6272 6.4286 74.473 6.92942C74.3293 7.41925 74.1808 7.94166 74.0274 8.49666C73.8846 9.04065 73.7683 9.55173 73.6785 10.0299C73.5888 10.5189 73.5779 10.8658 73.6458 11.0707C73.7243 11.2645 73.9523 11.3585 74.33 11.3527C74.8694 11.3444 75.3709 11.3259 75.8345 11.2971C76.3089 11.2681 76.7509 11.2397 77.1606 11.2117C77.57 11.1729 77.9526 11.1399 78.3083 11.1128C78.6639 11.0748 78.9981 11.0534 79.311 11.0486C79.7425 11.042 80.0301 11.1459 80.1736 11.3604C80.328 11.5748 80.3751 11.8341 80.315 12.1384C80.2851 12.3014 80.2288 12.5028 80.1461 12.7424C80.0743 12.9819 79.9916 13.2216 79.8981 13.4614C79.8046 13.7013 79.7269 13.9083 79.6648 14.0827C79.5806 14.2248 79.4963 14.3562 79.4118 14.4766C79.3381 14.597 79.2478 14.6905 79.1409 14.7571C79.034 14.8238 78.9104 14.8582 78.7701 14.8604ZM77.2332 11.7307C77.3363 11.4149 77.4441 11.0556 77.5567 10.653C77.6691 10.2395 77.7814 9.82055 77.8937 9.39622C78.0167 8.97172 78.1079 8.58022 78.1671 8.22172C78.2374 7.87389 78.2918 7.55339 78.3305 7.26023C78.3692 6.96706 78.4029 6.70106 78.4317 6.46222C78.4603 6.21256 78.4838 5.99006 78.5024 5.79472C78.5317 5.58839 78.5613 5.40914 78.5914 5.25697C78.641 4.97447 78.7239 4.75106 78.8401 4.58673C78.967 4.41141 79.1491 4.32192 79.3864 4.31827C79.5806 4.31529 79.7382 4.38872 79.8592 4.53856C79.9802 4.68841 80.0424 4.87708 80.0459 5.10458C80.0399 5.41892 80.0072 5.75534 79.948 6.11384C79.8993 6.46134 79.8454 6.81975 79.7863 7.18909C79.7259 7.47175 79.6501 7.81425 79.5592 8.21658C79.4682 8.61891 79.372 9.03758 79.2708 9.47258C79.1695 9.90757 79.0678 10.3209 78.9659 10.7126C78.8638 11.0934 78.7715 11.4091 78.689 11.6596L77.2332 11.7307Z" fill="#7831B2"/>
<path d="M83.6131 12.6079C83.2462 12.6135 82.9536 12.5313 82.7352 12.3613C82.5276 12.1911 82.3731 11.9659 82.2717 11.6858C82.1701 11.3947 82.1168 11.0813 82.1116 10.7455C82.1171 10.3986 82.1498 10.0622 82.2096 9.73623C82.27 9.45356 82.3512 9.1164 82.4531 8.72474C82.5659 8.33291 82.6892 7.92466 82.823 7.5C82.9568 7.07534 83.0856 6.67784 83.2095 6.30752C83.3441 5.93702 83.453 5.64819 83.5362 5.44103C83.6707 5.0597 83.7903 4.76529 83.895 4.5578C84.0106 4.35014 84.1493 4.24506 84.3111 4.24258C84.4513 4.24042 84.5816 4.28718 84.7017 4.38286C84.8219 4.47854 84.9101 4.60179 84.9664 4.75263C85.0334 4.90331 85.0521 5.07098 85.0226 5.25564C84.9929 5.42948 84.9211 5.67981 84.8074 6.00664C84.6937 6.33346 84.5644 6.69846 84.4194 7.10162C84.2745 7.50478 84.135 7.91327 84.0011 8.3271C83.8669 8.7301 83.77 9.09459 83.7102 9.42059C83.6499 9.71409 83.611 9.99642 83.5936 10.2676C83.576 10.5279 83.5901 10.7444 83.6359 10.9171C83.6815 11.0789 83.7744 11.1588 83.9147 11.1566C84.2599 11.1513 84.6922 10.8359 85.2114 10.2102C85.7415 9.58442 86.3273 8.72479 86.9689 7.63132C87.2637 7.15001 87.5213 6.70177 87.7416 6.28662C87.9618 5.87146 88.156 5.51089 88.324 5.2049C88.4918 4.88807 88.6553 4.64175 88.8145 4.46593C88.9737 4.2901 89.1342 4.20095 89.2961 4.19846C89.5442 4.19465 89.7237 4.28941 89.8346 4.48276C89.9561 4.6651 90.0138 4.91344 90.0078 5.22778C90.0121 5.50945 90.0066 5.85629 89.9913 6.26829C89.9868 6.68013 89.9824 7.1028 89.9782 7.5363C89.9739 7.95898 89.9799 8.3544 89.9963 8.72257C90.0383 9.35041 90.1055 9.86409 90.1979 10.2636C90.3009 10.6521 90.392 10.965 90.4712 11.2021C90.5503 11.4393 90.5857 11.6338 90.5772 11.7857C90.5682 11.905 90.5322 12.0193 90.4691 12.1286C90.4059 12.2271 90.3262 12.3096 90.2301 12.3761C90.134 12.4426 90.0266 12.4768 89.9079 12.4786C89.5303 12.4844 89.2568 12.2394 89.0873 11.7435C88.9179 11.2477 88.7837 10.5833 88.6847 9.75048C88.6571 9.36081 88.6292 8.94405 88.6008 8.50021C88.5833 8.0562 88.5765 7.61203 88.5805 7.16769C88.5953 6.72319 88.6106 6.31118 88.6264 5.93168L89.0982 6.08697C88.9206 6.46896 88.7112 6.88936 88.47 7.34818C88.2288 7.807 87.8978 8.39182 87.4769 9.10263C87.119 9.69328 86.7283 10.2573 86.3049 10.7948C85.8812 11.3214 85.44 11.7563 84.9812 12.0992C84.533 12.4312 84.077 12.6007 83.6131 12.6079Z" fill="#7831B2"/>
<path d="M98.2337 12.3831C97.9424 12.3876 97.7301 12.2609 97.5966 12.0028C97.4738 11.7338 97.4041 11.4044 97.3873 11.0146C97.3843 10.8196 97.3864 10.5974 97.3934 10.3481C97.4004 10.0987 97.418 9.8438 97.4464 9.5833C97.4856 9.32263 97.5198 9.08371 97.5488 8.86655C97.589 8.67088 97.6392 8.4263 97.6995 8.1328C97.7706 7.83913 97.8416 7.54005 97.9125 7.23555C97.994 6.92006 98.0651 6.63181 98.1259 6.37081C98.1973 6.09881 98.2481 5.89215 98.2783 5.75081C98.2977 5.60965 98.2638 5.50723 98.1765 5.44355C98.089 5.36905 97.9374 5.33345 97.7216 5.33677C97.549 5.33942 97.3604 5.35316 97.1557 5.37797C96.9511 5.40279 96.7304 5.43869 96.4937 5.48567C95.9451 5.60247 95.4568 5.78335 95.0289 6.02832C94.6116 6.26229 94.3782 6.52594 94.3288 6.81927C94.2786 7.06927 94.309 7.29636 94.4201 7.50054C94.5417 7.69372 94.7761 7.84724 95.1231 7.9611C95.481 8.07479 95.9944 8.1265 96.6633 8.11622C96.9006 8.11257 97.1379 8.1035 97.3751 8.08902C97.6123 8.07454 97.8386 8.05481 98.0541 8.02983C98.2801 7.99384 98.4686 7.96927 98.6195 7.95612C98.7702 7.93213 98.8671 7.9198 98.9103 7.91914C99.18 7.91499 99.4068 7.92776 99.5907 7.95744C99.7746 7.98712 99.8465 8.0998 99.8063 8.29546C99.7773 8.51263 99.6612 8.68779 99.4582 8.82094C99.266 8.95393 99.0085 9.05 98.6856 9.10914C98.3736 9.16811 98.0072 9.20084 97.5864 9.2073L95.9195 9.23292C95.3369 9.24188 94.796 9.15267 94.2967 8.9653C93.8082 8.77776 93.4318 8.50722 93.1674 8.1537C92.9138 7.80001 92.8266 7.38416 92.9056 6.90616C92.9659 6.61266 93.1015 6.30717 93.3125 5.98968C93.5341 5.6612 93.8531 5.35288 94.2696 5.06475C94.6969 4.77644 95.2544 4.54032 95.9423 4.35637C96.4366 4.21874 96.8507 4.1311 97.1847 4.09346C97.5187 4.05582 97.8529 4.03443 98.1873 4.02929C98.6081 4.02282 98.9381 4.07735 99.1772 4.19287C99.4164 4.30839 99.5807 4.4684 99.6702 4.67291C99.7704 4.87725 99.7956 5.11526 99.7458 5.38692C99.7061 5.61509 99.6402 5.89242 99.548 6.21892C99.4557 6.53458 99.3636 6.86108 99.2716 7.19841C99.1903 7.52474 99.1192 7.81841 99.0584 8.0794C99.0084 8.34024 98.9642 8.62265 98.9257 8.92665C98.887 9.21982 98.859 9.50741 98.8417 9.78941C98.8244 10.0714 98.8173 10.3153 98.8205 10.5212C98.8241 10.7595 98.8334 11.014 98.8483 11.2847C98.8738 11.5443 98.8766 11.7231 98.8565 11.8209C98.8372 11.9729 98.7691 12.104 98.652 12.2142C98.535 12.3243 98.3956 12.3807 98.2337 12.3831ZM92.5369 12.4545C92.3427 12.4574 92.1907 12.3948 92.0808 12.2664C91.9816 12.1271 91.9468 11.9705 91.9766 11.7967C92.0071 11.677 92.0862 11.5566 92.2139 11.4354C92.3413 11.3034 92.555 11.1593 92.8547 11.003C93.3687 10.735 93.876 10.3913 94.3768 9.97181C94.8884 9.55218 95.3992 9.0838 95.9094 8.56667L96.9378 9.136C96.5771 9.54248 96.184 9.94404 95.7583 10.3407C95.3434 10.7263 94.9279 11.0795 94.5119 11.4001C94.1067 11.7206 93.7329 11.9755 93.3904 12.165C93.048 12.3545 92.7635 12.451 92.5369 12.4545Z" fill="#7831B2"/>
<path d="M107.436 12.2417C107.177 12.2457 106.981 12.097 106.846 11.7956C106.712 11.4943 106.7 11.0394 106.809 10.4309C106.859 10.1375 106.955 9.69179 107.097 9.09363C107.238 8.48463 107.46 7.83106 107.763 7.13291C108.117 6.30393 108.436 5.64886 108.72 5.16771C109.004 4.67573 109.285 4.31924 109.562 4.09826C109.839 3.87728 110.123 3.76455 110.415 3.76007C110.641 3.75659 110.815 3.84602 110.937 4.02837C111.069 4.21055 111.164 4.43122 111.222 4.6904C111.28 4.94957 111.327 5.20891 111.363 5.46842C111.412 5.81443 111.472 6.19818 111.543 6.6197C111.625 7.04104 111.712 7.46772 111.805 7.89973C111.909 8.33158 112.023 8.74159 112.148 9.12977C112.283 9.51779 112.434 9.84597 112.6 10.1143L112.019 10.2533C112.323 9.63096 112.648 9.00831 112.994 8.38533C113.341 7.76235 113.688 7.16645 114.035 6.59764C114.383 6.02882 114.709 5.51993 115.016 5.07095C115.354 4.5998 115.64 4.2649 115.874 4.06625C116.12 3.86743 116.339 3.76653 116.533 3.76355C116.674 3.76139 116.804 3.7919 116.923 3.85508C117.043 3.90742 117.146 3.97085 117.234 4.04535C117.354 4.1627 117.448 4.30754 117.516 4.47988C117.583 4.65222 117.598 4.91206 117.56 5.2594C117.475 6.0409 117.421 6.74607 117.398 7.37491C117.386 7.99275 117.388 8.51284 117.405 8.93518C117.428 9.68252 117.491 10.2775 117.595 10.7202C117.709 11.1627 117.751 11.4492 117.721 11.5797C117.702 11.7209 117.628 11.8358 117.5 11.9245C117.382 12.0238 117.237 12.0748 117.065 12.0774C116.806 12.0814 116.588 11.9601 116.412 11.7136C116.246 11.467 116.139 11.1327 116.089 10.7108C116.04 10.3215 116 9.82908 115.969 9.23357C115.949 8.63789 115.955 7.97139 115.987 7.23405C116.03 6.48571 116.105 5.7152 116.211 4.92254L116.679 4.80157C116.426 5.18472 116.141 5.62254 115.825 6.11502C115.519 6.5965 115.203 7.09982 114.876 7.62497C114.561 8.14995 114.256 8.66935 113.961 9.18316C113.678 9.69681 113.426 10.1829 113.207 10.6414C113.091 10.849 112.953 11.0137 112.793 11.1353C112.644 11.2568 112.467 11.3192 112.262 11.3223C112.003 11.3263 111.786 11.27 111.612 11.1535C111.448 11.026 111.305 10.8548 111.183 10.64C111.072 10.4141 110.971 10.1664 110.881 9.89693C110.835 9.74593 110.772 9.53559 110.693 9.26591C110.613 8.9854 110.533 8.67239 110.452 8.32688C110.371 7.98137 110.295 7.61411 110.225 7.2251C110.154 6.83609 110.094 6.45233 110.045 6.07382C109.996 5.68448 109.969 5.32189 109.964 4.98605L110.447 4.84859C110.089 5.38507 109.773 5.91005 109.5 6.42353C109.238 6.93685 109.014 7.46584 108.828 8.0105C108.653 8.54416 108.505 9.12074 108.385 9.74024C108.305 10.1641 108.246 10.5334 108.208 10.8482C108.18 11.1629 108.152 11.4017 108.122 11.5647C108.081 11.7496 108.008 11.9078 107.902 12.0395C107.796 12.1711 107.641 12.2385 107.436 12.2417Z" fill="#7831B2"/>
<path d="M122.781 11.9896C122.112 11.9999 121.55 11.9164 121.094 11.7392C120.649 11.551 120.305 11.2908 120.062 10.9586C119.82 10.6156 119.662 10.2171 119.591 9.76305C119.53 9.30887 119.549 8.81012 119.649 8.26679C119.76 7.73412 119.956 7.20013 120.24 6.66481C120.533 6.11849 120.898 5.61985 121.334 5.16888C121.78 4.71774 122.276 4.35794 122.823 4.08948C123.38 3.81002 123.966 3.66556 124.58 3.65611C125.152 3.64732 125.623 3.73219 125.993 3.91072C126.373 4.08909 126.636 4.35595 126.782 4.71129C126.938 5.06648 126.967 5.51573 126.867 6.05907C126.788 6.50457 126.616 6.90272 126.351 7.25354C126.097 7.59336 125.773 7.8855 125.377 8.12998C124.992 8.36345 124.558 8.54892 124.074 8.68638C123.602 8.81285 123.095 8.88023 122.556 8.88852C121.822 8.89979 121.33 8.82067 121.079 8.65115C120.839 8.48146 120.739 8.28795 120.779 8.07062C120.799 7.94029 120.846 7.84746 120.92 7.79213C120.995 7.72597 121.113 7.69164 121.275 7.68915C121.394 7.68733 121.534 7.70684 121.697 7.74769C121.87 7.77753 122.124 7.78989 122.458 7.78475C122.998 7.77646 123.482 7.69316 123.911 7.53486C124.351 7.37639 124.71 7.165 124.986 6.90068C125.262 6.62553 125.436 6.31404 125.506 5.96621C125.566 5.64021 125.519 5.39712 125.365 5.23694C125.223 5.07659 124.941 4.99966 124.52 5.00612C124.099 5.01259 123.696 5.11631 123.311 5.31728C122.936 5.50726 122.584 5.76732 122.254 6.09746C121.936 6.42744 121.666 6.80542 121.446 7.23141C121.226 7.6574 121.076 8.10398 120.997 8.57114C120.928 8.96231 120.928 9.3199 120.997 9.64391C121.067 9.95708 121.233 10.2146 121.495 10.4165C121.767 10.6073 122.152 10.6989 122.648 10.6913C123.209 10.6827 123.688 10.6049 124.085 10.4579C124.493 10.2999 124.836 10.1213 125.113 9.92198C125.391 9.72266 125.625 9.5511 125.817 9.40728C126.009 9.26346 126.181 9.19039 126.332 9.18806C126.515 9.18524 126.646 9.25367 126.724 9.39335C126.812 9.52202 126.836 9.69503 126.796 9.91236C126.757 10.1297 126.614 10.3594 126.37 10.6016C126.136 10.8327 125.826 11.0542 125.441 11.266C125.067 11.4777 124.648 11.652 124.186 11.7892C123.735 11.9153 123.267 11.9821 122.781 11.9896Z" fill="#7831B2"/>
<path d="M128.882 5.32918C128.633 5.333 128.438 5.26015 128.295 5.11063C128.164 4.96095 128.118 4.78828 128.158 4.59262C128.189 4.47295 128.252 4.36904 128.348 4.28088C128.443 4.19272 128.615 4.11423 128.862 4.04541C129.249 3.93111 129.765 3.82565 130.411 3.72903C131.068 3.63225 131.833 3.57714 132.707 3.56371C133.16 3.55674 133.576 3.56119 133.954 3.57705C134.342 3.58192 134.769 3.61328 135.234 3.67115C135.601 3.70885 135.883 3.7912 136.08 3.91822C136.286 4.04507 136.375 4.19 136.345 4.353C136.325 4.4725 136.278 4.58158 136.204 4.68024C136.141 4.7679 136.045 4.83981 135.916 4.89597C135.799 4.95196 135.648 4.98137 135.464 4.98419C135.238 4.98767 134.973 4.9809 134.671 4.96387C134.369 4.94685 134.045 4.93016 133.699 4.9138C133.364 4.88644 133.019 4.8755 132.663 4.88097C131.918 4.89241 131.32 4.93411 130.868 5.00608C130.415 5.06721 130.039 5.13802 129.738 5.2185C129.437 5.28814 129.151 5.32504 128.882 5.32918ZM131.329 11.8907C131.091 11.8943 130.912 11.7996 130.79 11.6064C130.679 11.4131 130.6 11.1651 130.552 10.8624C130.527 10.6352 130.522 10.3265 130.538 9.93612C130.564 9.53478 130.612 9.10061 130.68 8.63361C130.748 8.15578 130.822 7.69411 130.902 7.24861C131.011 6.65094 131.106 6.12395 131.185 5.66761C131.275 5.20028 131.345 4.81453 131.394 4.51037L132.849 4.39048C132.809 4.57531 132.759 4.80906 132.698 5.09172C132.648 5.36339 132.594 5.67306 132.534 6.02072C132.475 6.35755 132.41 6.7053 132.34 7.06397C132.28 7.41164 132.221 7.74847 132.161 8.07447C132.061 8.6178 131.998 9.07388 131.971 9.44272C131.955 9.80056 131.954 10.0931 131.968 10.3205C131.983 10.5478 131.996 10.7372 132.009 10.8887C132.022 11.0294 132.019 11.1595 131.999 11.279C131.979 11.3985 131.938 11.5075 131.875 11.606C131.811 11.6937 131.731 11.7599 131.635 11.8047C131.539 11.8604 131.437 11.889 131.329 11.8907Z" fill="#7831B2"/>
<path d="M139.814 11.7603C138.929 11.7739 138.198 11.5901 137.62 11.2088C137.053 10.8275 136.657 10.308 136.431 9.65049C136.216 8.98196 136.183 8.21853 136.332 7.3602C136.441 6.7517 136.638 6.21771 136.922 5.75823C137.217 5.28774 137.546 4.8926 137.908 4.57279C138.281 4.25281 138.655 4.01409 139.03 3.85662C139.405 3.68831 139.728 3.60208 139.997 3.59794C140.116 3.59611 140.213 3.61087 140.289 3.64221C140.376 3.67338 140.442 3.72656 140.486 3.80173C140.541 3.8659 140.558 3.95774 140.539 4.07724C140.488 4.29473 140.405 4.49648 140.289 4.68247C140.173 4.85763 139.954 5.01812 139.633 5.16393C139.247 5.35407 138.921 5.56496 138.655 5.79661C138.399 6.01726 138.193 6.27508 138.035 6.57007C137.878 6.85423 137.77 7.19723 137.711 7.59906C137.552 8.47922 137.665 9.18182 138.051 9.70686C138.436 10.2211 139.018 10.4722 139.794 10.4603C140.55 10.4486 141.204 10.1677 141.756 9.6174C142.32 9.0561 142.681 8.31912 142.839 7.40645C142.999 6.56962 142.936 5.92044 142.648 5.45892C142.36 4.98655 141.893 4.75535 141.245 4.7653C140.911 4.77044 140.626 4.83983 140.391 4.97348C140.166 5.10697 139.92 5.28412 139.654 5.50493C139.462 5.67042 139.308 5.81908 139.191 5.9509C139.075 6.08273 138.968 6.18731 138.872 6.26463C138.787 6.33096 138.674 6.3652 138.534 6.36736C138.383 6.36968 138.264 6.32275 138.176 6.22658C138.099 6.1194 138.08 5.95174 138.12 5.72357C138.159 5.47374 138.279 5.21724 138.48 4.95409C138.692 4.69077 138.947 4.44845 139.246 4.22714C139.555 3.99483 139.887 3.81093 140.241 3.67546C140.595 3.52915 140.945 3.45334 141.29 3.44804C142.067 3.4361 142.701 3.61056 143.192 3.97144C143.683 4.32148 144.019 4.81476 144.202 5.45129C144.384 6.07697 144.395 6.80282 144.235 7.62881C144.096 8.44365 143.816 9.16313 143.394 9.78728C142.971 10.4006 142.45 10.88 141.829 11.2254C141.219 11.5707 140.548 11.749 139.814 11.7603Z" fill="#7831B2"/>
<path d="M145.817 10.7253C145.953 10.3981 146.125 10.0324 146.335 9.62829C146.544 9.2133 146.77 8.78181 147.011 8.33383C147.263 7.88567 147.516 7.44836 147.768 7.02187C148.031 6.58438 148.279 6.19048 148.511 5.84016C148.817 5.39118 149.124 4.96928 149.431 4.57447C149.737 4.17965 150.029 3.86092 150.306 3.61827C150.594 3.36463 150.84 3.23623 151.045 3.23308C151.261 3.22976 151.451 3.31894 151.616 3.50062C151.791 3.68214 151.947 3.98316 152.083 4.40367C152.174 4.70568 152.271 5.08886 152.375 5.55321C152.48 6.01755 152.579 6.52532 152.674 7.0765C152.768 7.61685 152.847 8.16286 152.909 8.71454C152.971 9.26622 153.012 9.77489 153.03 10.2406L151.607 10.3925C151.589 9.87262 151.542 9.30985 151.468 8.70418C151.405 8.0875 151.32 7.49282 151.214 6.92014C151.109 6.34745 150.999 5.85069 150.884 5.42984C150.77 4.99816 150.652 4.7074 150.531 4.55755L151.16 4.41785C150.821 4.7915 150.46 5.23047 150.08 5.73478C149.709 6.23893 149.362 6.78066 149.036 7.35997C148.794 7.78629 148.568 8.1907 148.358 8.57318C148.148 8.95567 147.954 9.32708 147.776 9.6874C147.609 10.0367 147.442 10.3969 147.275 10.7679L145.817 10.7253ZM152.872 13.7213C152.656 13.7247 152.488 13.6514 152.367 13.5016C152.246 13.3517 152.206 13.1844 152.246 12.9995C152.266 12.8692 152.333 12.6731 152.447 12.4113C152.562 12.1603 152.682 11.8713 152.807 11.5443C152.931 11.2173 153.023 10.88 153.083 10.5323L153.678 11.3521C153.526 11.3328 153.289 11.3148 152.965 11.2981C152.651 11.2812 152.252 11.2765 151.767 11.284C151.313 11.2909 150.844 11.3036 150.359 11.3219C149.884 11.3292 149.41 11.3419 148.935 11.36C148.471 11.378 148.018 11.4066 147.577 11.4459C147.135 11.4744 146.709 11.508 146.299 11.5468C145.89 11.5964 145.519 11.6509 145.185 11.7102L145.807 11.1318C145.788 11.2729 145.769 11.4466 145.751 11.6528C145.732 11.8589 145.719 12.065 145.711 12.271C145.704 12.4879 145.696 12.6776 145.688 12.8403C145.69 13.0028 145.692 13.1165 145.693 13.1815C145.685 13.3659 145.622 13.5077 145.505 13.607C145.388 13.7172 145.238 13.7737 145.055 13.7765C144.893 13.779 144.763 13.7322 144.664 13.6362C144.555 13.5404 144.477 13.4115 144.431 13.2497C144.386 13.0878 144.362 12.9203 144.359 12.7469C144.357 12.6278 144.36 12.4868 144.369 12.3242C144.366 12.1617 144.375 11.999 144.394 11.8362C144.402 11.6735 144.416 11.5432 144.436 11.4454C144.477 11.2714 144.539 11.1188 144.624 10.9874C144.697 10.8454 144.808 10.7245 144.958 10.6247C145.108 10.5249 145.301 10.4515 145.537 10.4045C145.806 10.357 146.167 10.3135 146.62 10.2741C147.083 10.2236 147.601 10.1831 148.172 10.1527C148.754 10.1112 149.353 10.0804 149.967 10.0601C150.582 10.029 151.17 10.0091 151.731 10.0005C151.914 9.99764 152.108 9.99466 152.313 9.99151C152.529 9.98819 152.751 9.99021 152.977 9.99756C153.204 10.0049 153.42 10.0233 153.626 10.0526C153.939 10.0803 154.151 10.1746 154.261 10.3354C154.382 10.4961 154.413 10.7503 154.354 11.0979C154.304 11.3696 154.227 11.6579 154.124 11.9629C154.021 12.2679 153.896 12.5516 153.749 12.8139C153.612 13.0869 153.465 13.3059 153.305 13.4709C153.157 13.6357 153.012 13.7192 152.872 13.7213Z" fill="#7831B2"/>
<path d="M157.292 11.4754C156.925 11.481 156.632 11.3988 156.414 11.2288C156.206 11.0586 156.052 10.8334 155.95 10.5533C155.849 10.2622 155.795 9.94882 155.79 9.61299C155.796 9.26615 155.828 8.92973 155.888 8.60373C155.949 8.32107 156.03 7.9839 156.132 7.59224C156.244 7.20041 156.368 6.79216 156.502 6.3675C156.635 5.94284 156.764 5.54535 156.888 5.17502C157.023 4.80452 157.132 4.51569 157.215 4.30853C157.349 3.9272 157.469 3.63279 157.574 3.4253C157.689 3.21764 157.828 3.11257 157.99 3.11008C158.13 3.10792 158.26 3.15468 158.38 3.25036C158.5 3.34604 158.589 3.4693 158.645 3.62013C158.712 3.77081 158.731 3.93848 158.701 4.12314C158.671 4.29698 158.6 4.54731 158.486 4.87414C158.372 5.20097 158.243 5.56596 158.098 5.96912C157.953 6.37228 157.814 6.78077 157.68 7.1946C157.545 7.5976 157.449 7.96209 157.389 8.28809C157.328 8.58159 157.29 8.86393 157.272 9.1351C157.255 9.39543 157.269 9.61193 157.314 9.78461C157.36 9.94644 157.453 10.0263 157.593 10.0241C157.939 10.0188 158.371 9.70335 158.89 9.07772C159.42 8.45192 160.006 7.59229 160.647 6.49882C160.942 6.01751 161.2 5.56927 161.42 5.15412C161.64 4.73896 161.835 4.37839 162.003 4.0724C162.17 3.75558 162.334 3.50925 162.493 3.33343C162.652 3.1576 162.813 3.06845 162.975 3.06596C163.223 3.06215 163.402 3.15691 163.513 3.35026C163.635 3.5326 163.692 3.78094 163.686 4.09528C163.691 4.37695 163.685 4.72379 163.67 5.13579C163.665 5.54763 163.661 5.9703 163.657 6.40381C163.652 6.82648 163.658 7.2219 163.675 7.59007C163.717 8.21792 163.784 8.73159 163.876 9.13111C163.98 9.51962 164.071 9.83246 164.15 10.0696C164.229 10.3068 164.264 10.5013 164.256 10.6532C164.247 10.7725 164.211 10.8868 164.148 10.9961C164.084 11.0946 164.005 11.1771 163.909 11.2436C163.813 11.3101 163.705 11.3443 163.586 11.3461C163.209 11.3519 162.935 11.1069 162.766 10.611C162.596 10.1152 162.462 9.45083 162.363 8.61798C162.336 8.22831 162.308 7.81155 162.279 7.36771C162.262 6.9237 162.255 6.47953 162.259 6.03519C162.274 5.59069 162.289 5.17869 162.305 4.79918L162.777 4.95447C162.599 5.33646 162.39 5.75687 162.149 6.21569C161.907 6.67451 161.576 7.25932 161.156 7.97013C160.798 8.56078 160.407 9.12484 159.983 9.66231C159.56 10.189 159.119 10.6238 158.66 10.9667C158.212 11.2987 157.756 11.4682 157.292 11.4754Z" fill="#7831B2"/>
<path d="M172.252 11.2454C171.928 11.2504 171.571 11.1584 171.18 10.9693C170.788 10.7695 170.401 10.5045 170.018 10.1745C169.646 9.84428 169.301 9.492 168.982 9.11764C168.674 8.74311 168.432 8.38384 168.254 8.03982C168.143 7.86814 168.071 7.71214 168.036 7.5718C168.012 7.42046 168.005 7.27429 168.013 7.13329C168.044 7.04613 168.086 6.94796 168.138 6.8388C168.19 6.72963 168.259 6.63105 168.344 6.54306C168.471 6.36773 168.689 6.13142 168.997 5.8341C169.305 5.53679 169.662 5.21706 170.067 4.87492C170.482 4.52179 170.909 4.19556 171.347 3.89626C171.795 3.58596 172.218 3.33024 172.614 3.1291C173.021 2.9278 173.37 2.8249 173.661 2.82043C173.78 2.8186 173.872 2.84428 173.938 2.89745C174.014 2.95046 174.069 3.02004 174.103 3.10621C174.137 3.19238 174.149 3.27889 174.139 3.36572C174.132 3.60422 173.979 3.83413 173.68 4.05544C173.382 4.27676 173.061 4.48215 172.718 4.67163C172.109 5.02775 171.569 5.37738 171.1 5.72051C170.63 6.06365 170.252 6.36746 169.964 6.63194C169.688 6.89625 169.545 7.08266 169.536 7.19116C169.516 7.29983 169.589 7.48833 169.755 7.75668C169.921 8.0142 170.173 8.30831 170.513 8.639C170.852 8.95887 171.251 9.25615 171.708 9.53086C171.915 9.65771 172.116 9.77922 172.313 9.89541C172.519 10.0006 172.683 10.1119 172.803 10.2292C172.934 10.3355 172.996 10.4592 172.987 10.6002C172.978 10.7196 172.942 10.8285 172.879 10.927C172.815 11.0255 172.725 11.1027 172.607 11.1587C172.5 11.2145 172.382 11.2434 172.252 11.2454ZM166.863 11.312C166.582 11.3163 166.391 11.1784 166.29 10.8982C166.188 10.6072 166.155 10.1905 166.19 9.64818C166.236 9.09484 166.328 8.42701 166.467 7.64468C166.527 7.31868 166.597 6.97626 166.678 6.61743C166.77 6.25844 166.861 5.89944 166.953 5.54044C167.044 5.17061 167.12 4.81186 167.179 4.4642C167.2 4.3772 167.214 4.29028 167.224 4.20345C167.244 4.10561 167.259 4.00786 167.268 3.9102C167.308 3.69286 167.364 3.5132 167.438 3.3712C167.511 3.22921 167.596 3.11954 167.692 3.04222C167.798 2.95389 167.906 2.9089 168.014 2.90724C168.262 2.90343 168.458 3.01419 168.601 3.23954C168.756 3.45389 168.793 3.76214 168.713 4.16431C168.663 4.43598 168.582 4.77314 168.469 5.1758C168.367 5.56747 168.26 5.97005 168.147 6.38354C168.035 6.79704 167.949 7.16137 167.889 7.47654C167.8 8.04137 167.733 8.54629 167.685 8.99129C167.649 9.43612 167.628 9.80488 167.621 10.0975C167.615 10.3794 167.596 10.5747 167.566 10.6836C167.546 10.8139 167.499 10.9284 167.425 11.027C167.362 11.1147 167.282 11.181 167.185 11.2258C167.1 11.2813 166.992 11.31 166.863 11.312Z" fill="#7831B2"/>
<path d="M3.91385 28.2972C3.02916 28.3108 2.29794 28.127 1.72018 27.7458C1.15321 27.3644 0.756801 26.8449 0.530949 26.1874C0.31572 25.5189 0.282499 24.7554 0.431286 23.8971C0.540715 23.2886 0.737612 22.7546 1.02198 22.2951C1.31696 21.8247 1.64548 21.4295 2.00751 21.1097C2.38033 20.7897 2.75439 20.551 3.12969 20.3935C3.50483 20.2252 3.82726 20.139 4.09698 20.1349C4.21566 20.133 4.313 20.1478 4.38902 20.1791C4.47583 20.2103 4.54139 20.2635 4.5857 20.3386C4.64064 20.4028 4.65822 20.4947 4.63846 20.6142C4.58782 20.8316 4.50456 21.0334 4.38869 21.2194C4.27266 21.3945 4.05388 21.555 3.73236 21.7008C3.34677 21.891 3.02084 22.1019 2.75459 22.3335C2.49896 22.5542 2.29245 22.812 2.13508 23.107C1.97754 23.3911 1.86946 23.7341 1.81084 24.136C1.65159 25.0161 1.76482 25.7187 2.15052 26.2438C2.53606 26.758 3.11723 27.0091 3.89404 26.9972C4.64926 26.9856 5.30326 26.7046 5.85602 26.1543C6.41941 25.593 6.78048 24.856 6.93923 23.9434C7.09914 23.1065 7.03528 22.4574 6.74767 21.9958C6.45989 21.5235 5.99233 21.2923 5.345 21.3022C5.01054 21.3074 4.72563 21.3768 4.49025 21.5104C4.26567 21.6439 4.02017 21.821 3.75375 22.0419C3.56202 22.2073 3.40781 22.356 3.29112 22.4878C3.17442 22.6196 3.0681 22.7242 2.97216 22.8015C2.88684 22.8679 2.77405 22.9021 2.63379 22.9043C2.48275 22.9066 2.36333 22.8597 2.27553 22.7635C2.19835 22.6563 2.17961 22.4887 2.2193 22.2605C2.25866 22.0107 2.37885 21.7542 2.57987 21.491C2.79169 21.2277 3.04699 20.9854 3.34577 20.7641C3.65518 20.5317 3.98692 20.3478 4.34097 20.2124C4.69486 20.0661 5.04442 19.9903 5.38967 19.985C6.16647 19.973 6.80043 20.1475 7.29154 20.5084C7.7825 20.8584 8.11915 21.3517 8.30152 21.9882C8.48372 22.6139 8.49479 23.3397 8.33471 24.1657C8.19606 24.9806 7.91566 25.7 7.49351 26.3242C7.07121 26.9375 6.54973 27.4169 5.9291 27.7623C5.31925 28.1076 4.6475 28.2859 3.91385 28.2972Z" fill="#7831B2"/>
<path d="M13.4374 28.1346C12.8656 28.1433 12.3786 28.0533 11.9764 27.8644C11.5741 27.6647 11.2515 27.388 11.0087 27.0341C10.7658 26.6694 10.5919 26.2386 10.4872 25.7418C10.3825 25.2449 10.3418 24.6984 10.3651 24.102C10.3882 23.4948 10.4595 22.8598 10.5789 22.197C10.7077 21.4473 10.9025 20.7725 11.1631 20.1725C11.4236 19.5617 11.7177 19.0316 12.0454 18.5823C12.3837 18.122 12.7394 17.7427 13.1126 17.4444C13.4857 17.1461 13.86 16.9236 14.2355 16.777C14.5681 16.6527 14.9066 16.5554 15.2508 16.485C15.5949 16.4039 15.9284 16.3338 16.2512 16.2746C16.5741 16.2155 16.8699 16.1568 17.1388 16.0984C17.6121 15.9936 18.015 15.8791 18.3476 15.7548C18.6803 15.6305 18.9329 15.567 19.1055 15.5643C19.235 15.5623 19.3542 15.593 19.463 15.6564C19.5827 15.7195 19.6704 15.8103 19.7262 15.9286C19.7818 16.0361 19.7945 16.166 19.7645 16.3181C19.7349 16.5028 19.624 16.6616 19.4318 16.7946C19.2394 16.9168 18.9982 17.018 18.708 17.0983C18.1279 17.2698 17.5956 17.3917 17.1111 17.4642C16.6372 17.5257 16.2011 17.5866 15.8027 17.6469C15.4042 17.6963 15.0173 17.8052 14.6422 17.9735C14.2775 18.12 13.92 18.3801 13.5696 18.7539C13.2298 19.1168 12.9237 19.5712 12.6515 20.1171C12.3899 20.6521 12.1994 21.2565 12.0802 21.9301C11.8713 23.0928 11.7832 24.0369 11.8158 24.7624C11.8591 25.4769 12.0289 25.9998 12.3254 26.3312C12.6326 26.6624 13.0559 26.8238 13.5953 26.8155C13.9622 26.8099 14.333 26.7121 14.7078 26.5221C15.0824 26.3213 15.4292 26.0613 15.7481 25.7422C16.0777 25.4229 16.353 25.0773 16.574 24.7055C16.8056 24.3227 16.951 23.952 17.0103 23.5935C17.0906 23.2022 17.0802 22.8719 16.979 22.6025C16.8884 22.3222 16.7125 22.1136 16.4515 21.9767C16.1902 21.829 15.8438 21.7585 15.4123 21.7651C14.8404 21.7739 14.201 21.9463 13.4939 22.2822C12.7975 22.618 12.0984 23.1218 11.3964 23.7936L10.8691 23.184C11.302 22.5597 11.796 22.0483 12.3511 21.6496C12.906 21.2402 13.4842 20.9387 14.0855 20.7453C14.6867 20.541 15.2571 20.4347 15.7965 20.4264C16.4546 20.4163 17.0068 20.5324 17.4529 20.7748C17.8989 21.0063 18.2171 21.3482 18.4074 21.8004C18.5978 22.2525 18.6225 22.8156 18.4817 23.4896C18.3716 24.0548 18.1589 24.6107 17.8435 25.1574C17.5387 25.693 17.1577 26.1865 16.7006 26.6378C16.2433 27.0783 15.7361 27.4382 15.1793 27.7177C14.6222 27.9863 14.0416 28.1253 13.4374 28.1346Z" fill="#7831B2"/>
<path d="M22.5323 32.0583C21.8742 32.0684 21.3176 32.0119 20.8624 31.8889C20.4075 31.7767 20.0759 31.6138 19.8676 31.4003C19.6593 31.1868 19.5802 30.955 19.6304 30.705C19.7001 30.3247 19.9292 30.1315 20.3176 30.1256C20.447 30.1236 20.5661 30.1488 20.6748 30.2013C20.7836 30.2539 20.9085 30.3115 21.0498 30.3744C21.1912 30.448 21.3864 30.5101 21.6354 30.5604C21.8951 30.6106 22.2354 30.6325 22.6562 30.626C23.174 30.618 23.6038 30.4977 23.9456 30.2648C24.2874 30.032 24.5576 29.7082 24.7564 29.2934C24.9659 28.8784 25.1204 28.3992 25.2201 27.8559C25.28 27.5408 25.3184 27.2313 25.3354 26.9277C25.3631 26.6238 25.3906 26.2983 25.4176 25.9512C25.4447 25.604 25.4818 25.2025 25.5288 24.7467C25.5756 24.28 25.6536 23.7316 25.7627 23.1014L26.2716 23.5649C25.9377 24.3178 25.6018 24.9352 25.2638 25.4171C24.9257 25.8883 24.5967 26.2563 24.277 26.5213C23.9572 26.7755 23.6523 26.9535 23.3625 27.0555C23.0833 27.1465 22.8304 27.1937 22.6039 27.1972C21.6652 27.2116 21.0066 26.8317 20.6279 26.0573C20.249 25.2721 20.2189 24.0102 20.5378 22.2715C20.667 21.5435 20.7989 20.9942 20.9335 20.6237C21.0789 20.2531 21.2316 20.0015 21.3914 19.869C21.5513 19.7365 21.7175 19.669 21.8902 19.6663C22.1491 19.6623 22.3177 19.7518 22.396 19.9349C22.4744 20.1179 22.4524 20.4487 22.3302 20.9274C22.168 21.6125 22.0429 22.2538 21.9549 22.8511C21.8667 23.4376 21.8314 23.9529 21.849 24.3969C21.8665 24.8409 21.9419 25.1865 22.0752 25.4336C22.2083 25.67 22.4205 25.7859 22.7118 25.7814C23.1649 25.7745 23.6037 25.5348 24.0282 25.0623C24.4525 24.579 24.8473 23.9336 25.2127 23.1261C25.5887 22.3076 25.9255 21.3922 26.223 20.3799C26.3155 20.0751 26.4095 19.8732 26.5051 19.7742C26.6006 19.6643 26.7508 19.6079 26.9558 19.6047C27.1068 19.6024 27.2424 19.6491 27.3626 19.7447C27.4936 19.8402 27.5717 20.0124 27.5971 20.2613C27.6331 20.4991 27.5895 20.8248 27.4663 21.2385C27.3129 21.7935 27.1963 22.2883 27.1166 22.723C27.0477 23.1575 27.0001 23.5754 26.9739 23.9768C26.9475 24.3673 26.9266 24.7685 26.9113 25.1805C26.9066 25.5815 26.881 26.0262 26.8345 26.5145C26.7878 26.992 26.7099 27.5459 26.6008 28.176C26.4215 29.154 26.1311 29.9224 25.7295 30.4812C25.3389 31.0507 24.8702 31.4534 24.3235 31.6894C23.7767 31.9254 23.1796 32.0483 22.5323 32.0583Z" fill="#7831B2"/>
<path d="M31.0493 25.2469C30.6393 25.2532 30.298 25.1664 30.0255 24.9864C29.753 24.8063 29.5495 24.5548 29.4151 24.2318C29.2914 23.9086 29.2374 23.5464 29.2528 23.1453C29.2573 22.7334 29.3157 22.3154 29.4279 21.891C29.5402 21.4667 29.6853 21.0744 29.8633 20.714C30.052 20.3536 30.2579 20.0578 30.481 19.8268C30.7041 19.5958 30.929 19.4786 31.1555 19.4751C31.2634 19.4735 31.3554 19.4937 31.4316 19.5359C31.5186 19.5779 31.5843 19.6419 31.6288 19.7279C31.6731 19.8031 31.6908 19.9003 31.6818 20.0197C31.6725 20.1173 31.6209 20.2698 31.5269 20.4772C31.4436 20.6735 31.3392 20.9081 31.2139 21.1809C31.0884 21.4429 30.9794 21.7263 30.8869 22.0311C30.7943 22.3251 30.7449 22.6239 30.7387 22.9274C30.7417 23.1224 30.7604 23.2901 30.795 23.4304C30.8293 23.5599 30.8901 23.6565 30.9774 23.7202C31.0755 23.7837 31.2001 23.8143 31.3511 23.812C31.6964 23.8066 32.0511 23.7145 32.4153 23.5355C32.7794 23.3566 33.1265 23.1128 33.4563 22.8043C33.7969 22.4957 34.0994 22.1606 34.3636 21.7989C34.6277 21.4264 34.8325 21.0549 34.9779 20.6842L35.1329 22.356C34.7636 22.9035 34.3556 23.3973 33.9091 23.8376C33.4734 24.2778 33.0092 24.6208 32.5165 24.8668C32.0346 25.1126 31.5456 25.2393 31.0493 25.2469ZM34.5367 27.8427C34.2994 27.8464 34.1307 27.7569 34.0308 27.5742C33.9307 27.3807 33.8571 27.1488 33.8098 26.8787C33.7851 26.6732 33.7757 26.4132 33.7817 26.0989C33.7983 25.7736 33.8308 25.4263 33.8791 25.0572C33.9275 24.688 33.9868 24.3349 34.0572 23.9979C34.1074 23.7479 34.1732 23.4652 34.2547 23.1497C34.3361 22.8233 34.4228 22.4969 34.515 22.1704C34.6071 21.8439 34.6996 21.5391 34.7924 21.2559C34.8851 20.9619 34.957 20.7279 35.0083 20.5537C35.1109 20.2054 35.2255 19.9327 35.352 19.7357C35.4893 19.5386 35.655 19.4385 35.8492 19.4355C36.0326 19.4327 36.1908 19.544 36.3237 19.7695C36.4566 19.995 36.488 20.2817 36.4178 20.6296C36.3782 20.8686 36.2915 21.195 36.1575 21.6088C36.0234 22.0118 35.8895 22.431 35.7558 22.8665C35.6328 23.291 35.5413 23.6609 35.4814 23.976C35.3812 24.4869 35.3125 24.9322 35.2751 25.312C35.2377 25.6919 35.2213 26.028 35.2257 26.3205C35.2183 26.5374 35.221 26.7161 35.2339 26.8568C35.2468 26.9975 35.2433 27.1221 35.2234 27.2308C35.1934 27.383 35.1199 27.5195 35.003 27.6405C34.8971 27.7722 34.7417 27.8396 34.5367 27.8427Z" fill="#7831B2"/>
<path d="M40.9783 27.695C40.3094 27.7053 39.747 27.6218 39.291 27.4446C38.8457 27.2564 38.5018 26.9962 38.2594 26.664C38.0167 26.321 37.8596 25.9225 37.7879 25.4684C37.727 25.0143 37.7464 24.5155 37.846 23.9722C37.9566 23.4395 38.1535 22.9055 38.4367 22.3702C38.7305 21.8239 39.0952 21.3252 39.5308 20.8743C39.9772 20.4231 40.4735 20.0633 41.0198 19.7949C41.5767 19.5154 42.1626 19.371 42.7776 19.3615C43.3494 19.3527 43.8201 19.4376 44.1897 19.6161C44.5701 19.7945 44.8332 20.0613 44.9789 20.4167C45.1354 20.7719 45.1638 21.2211 45.0642 21.7645C44.9847 22.21 44.8127 22.6081 44.5482 22.9589C44.2944 23.2988 43.9697 23.5909 43.5742 23.8354C43.1893 24.0688 42.755 24.2543 42.2715 24.3918C41.7986 24.5182 41.2924 24.5856 40.753 24.5939C40.0194 24.6052 39.5271 24.5261 39.2763 24.3565C39.0364 24.1869 38.9363 23.9934 38.9761 23.776C38.9957 23.6457 39.0429 23.5529 39.1176 23.4975C39.1921 23.4314 39.3103 23.397 39.4721 23.3946C39.5908 23.3927 39.7314 23.4122 39.8939 23.4531C40.067 23.4829 40.3208 23.4953 40.6552 23.4901C41.1947 23.4819 41.679 23.3986 42.1083 23.2403C42.5483 23.0818 42.9066 22.8704 43.1831 22.6061C43.4595 22.3309 43.6328 22.0194 43.7031 21.6716C43.7629 21.3456 43.716 21.1025 43.5625 20.9423C43.4197 20.782 43.138 20.7051 42.7172 20.7115C42.2964 20.718 41.8933 20.8217 41.5079 21.0227C41.1331 21.2127 40.781 21.4727 40.4515 21.8029C40.1327 22.1328 39.8633 22.5108 39.6432 22.9368C39.4231 23.3628 39.2734 23.8094 39.1942 24.2765C39.1246 24.6677 39.1247 25.0253 39.1944 25.3493C39.2639 25.6625 39.4297 25.92 39.6917 26.1219C39.9644 26.3127 40.3489 26.4043 40.8452 26.3967C41.4063 26.3881 41.8853 26.3103 42.2823 26.1633C42.69 26.0053 43.0326 25.8267 43.3101 25.6274C43.5877 25.4281 43.8225 25.2565 44.0145 25.1127C44.2066 24.9689 44.3781 24.8958 44.5292 24.8935C44.7126 24.8906 44.8431 24.9591 44.9208 25.0987C45.0091 25.2274 45.0333 25.4004 44.9935 25.6178C44.9536 25.8351 44.8114 26.0648 44.5669 26.307C44.333 26.5381 44.0234 26.7596 43.6382 26.9714C43.2637 27.1831 42.8455 27.3574 42.3836 27.4946C41.9322 27.6207 41.4638 27.6875 40.9783 27.695Z" fill="#7831B2"/>
<path d="M47.702 27.6079C47.3136 27.6138 47.0509 27.3687 46.9138 26.8723C46.7767 26.376 46.7829 25.7149 46.9321 24.889C47.0529 24.3129 47.1919 23.8773 47.3493 23.5823C47.5173 23.2763 47.7083 23.0675 47.9225 22.9558C48.0401 22.889 48.2068 22.8485 48.4224 22.8344C48.6379 22.8094 48.8643 22.7951 49.1016 22.7914C49.8892 22.7793 50.6654 22.7295 51.4303 22.6419C52.2058 22.5432 52.9639 22.3691 53.7047 22.1193L54.0131 23.2361C53.4554 23.4614 52.8537 23.6331 52.208 23.7514C51.5623 23.8697 50.9053 23.9557 50.2371 24.0093C49.5795 24.0519 48.9378 24.078 48.312 24.0876L47.3712 23.9558C47.5017 23.3145 47.6371 22.6406 47.7774 21.9341C47.9177 21.2276 48.0376 20.5972 48.1371 20.0431C48.1762 19.7824 48.2593 19.5698 48.3863 19.4053C48.5133 19.2408 48.6577 19.1573 48.8196 19.1549C49.0893 19.1507 49.2905 19.256 49.4233 19.4707C49.5559 19.6745 49.5771 20.0047 49.487 20.4612C49.4474 20.7002 49.3871 20.9883 49.3059 21.3254C49.2247 21.6626 49.1384 22.0161 49.0469 22.3859C48.9662 22.7556 48.8852 23.109 48.804 23.4462C48.7335 23.7723 48.6783 24.0441 48.6384 24.2614C48.5185 24.8917 48.43 25.4566 48.3729 25.9559C48.3264 26.4442 48.2834 26.8133 48.2441 27.0632C48.214 27.2153 48.1458 27.341 48.0394 27.4401C47.9439 27.55 47.8315 27.6059 47.702 27.6079ZM53.2853 27.5221C53.0156 27.5262 52.819 27.3721 52.6955 27.0598C52.5828 26.7472 52.5277 26.3201 52.5303 25.7782C52.5434 25.2254 52.6097 24.6175 52.7291 23.9547C52.929 22.9114 53.1053 22.0851 53.2579 21.476C53.4211 20.8558 53.5701 20.3659 53.7049 20.0062C53.7875 19.7666 53.8922 19.5537 54.0189 19.3675C54.1455 19.1814 54.3006 19.0869 54.484 19.084C54.7213 19.0804 54.8903 19.1916 54.9909 19.4176C55.1021 19.6326 55.1277 19.8977 55.0677 20.2129C54.9982 20.604 54.8859 21.0284 54.731 21.4858C54.5869 21.9432 54.4704 22.438 54.3814 22.9703C54.2618 23.6223 54.1791 24.2142 54.1332 24.7458C54.098 25.2665 54.0777 25.7057 54.0724 26.0634C54.0671 26.421 54.0441 26.6869 54.0036 26.8609C53.9742 27.0564 53.8903 27.2148 53.7519 27.3361C53.6134 27.4574 53.4579 27.5194 53.2853 27.5221Z" fill="#7831B2"/>
<path d="M58.0252 27.4492C57.6584 27.4548 57.3658 27.3726 57.1474 27.2026C56.9397 27.0324 56.7852 26.8073 56.6838 26.5271C56.5823 26.2361 56.5289 25.9226 56.5238 25.5868C56.5293 25.24 56.562 24.9036 56.6217 24.5776C56.6822 24.2949 56.7634 23.9577 56.8653 23.5661C56.978 23.1742 57.1013 22.766 57.2351 22.3413C57.3689 21.9167 57.4978 21.5192 57.6216 21.1488C57.7563 20.7783 57.8652 20.4895 57.9483 20.2824C58.0828 19.901 58.2024 19.6066 58.3072 19.3991C58.4227 19.1915 58.5614 19.0864 58.7232 19.0839C58.8635 19.0817 58.9937 19.1285 59.1139 19.2242C59.234 19.3199 59.3223 19.4431 59.3785 19.594C59.4456 19.7446 59.4643 19.9123 59.4347 20.097C59.405 20.2708 59.3333 20.5211 59.2196 20.848C59.1058 21.1748 58.9765 21.5398 58.8316 21.9429C58.6866 22.3461 58.5472 22.7546 58.4132 23.1684C58.2791 23.5714 58.1821 23.9359 58.1223 24.2619C58.0621 24.5554 58.0232 24.8378 58.0057 25.1089C57.9881 25.3693 58.0022 25.5858 58.048 25.7584C58.0937 25.9203 58.1866 26.0001 58.3269 25.998C58.6721 25.9926 59.1043 25.6772 59.6236 25.0515C60.1536 24.4257 60.7394 23.5661 61.381 22.4726C61.6759 21.9913 61.9334 21.5431 62.1537 21.1279C62.374 20.7128 62.5681 20.3522 62.7361 20.0462C62.904 19.7294 63.0675 19.4831 63.2267 19.3073C63.3859 19.1314 63.5464 19.0423 63.7082 19.0398C63.9564 19.036 64.1359 19.1307 64.2467 19.3241C64.3682 19.5064 64.426 19.7548 64.42 20.0691C64.4243 20.3508 64.4188 20.6976 64.4035 21.1096C64.3989 21.5215 64.3946 21.9441 64.3904 22.3776C64.3861 22.8003 64.3921 23.1957 64.4085 23.5639C64.4504 24.1917 64.5176 24.7054 64.61 25.1049C64.7131 25.4934 64.8042 25.8063 64.8833 26.0435C64.9625 26.2806 64.9978 26.4751 64.9894 26.627C64.9804 26.7463 64.9444 26.8606 64.8813 26.97C64.818 27.0685 64.7383 27.151 64.6422 27.2175C64.5461 27.284 64.4387 27.3181 64.3201 27.3199C63.9424 27.3257 63.6689 27.0807 63.4995 26.5849C63.3301 26.089 63.1958 25.4247 63.0968 24.5918C63.0693 24.2021 63.0413 23.7854 63.013 23.3415C62.9954 22.8975 62.9887 22.4534 62.9927 22.009C63.0075 21.5645 63.0228 21.1525 63.0386 20.773L63.5104 20.9283C63.3328 21.3103 63.1233 21.7307 62.8821 22.1895C62.6409 22.6483 62.3099 23.2331 61.8891 23.944C61.5312 24.5346 61.1405 25.0987 60.717 25.6361C60.2934 26.1628 59.8522 26.5976 59.3934 26.9405C58.9452 27.2725 58.4892 27.4421 58.0252 27.4492Z" fill="#7831B2"/>
<path d="M72.6459 27.2245C72.3546 27.2289 72.1422 27.1022 72.0088 26.8442C71.886 26.5752 71.8162 26.2457 71.7995 25.8559C71.7965 25.6609 71.7985 25.4387 71.8055 25.1894C71.8125 24.94 71.8302 24.6851 71.8586 24.4246C71.8978 24.164 71.9319 23.925 71.961 23.7079C72.0012 23.5122 72.0514 23.2676 72.1117 22.9741C72.1827 22.6805 72.2537 22.3814 72.3246 22.0769C72.4061 21.7614 72.4773 21.4731 72.538 21.2121C72.6094 20.9401 72.6602 20.7335 72.6905 20.5921C72.7099 20.451 72.676 20.3486 72.5887 20.2849C72.5012 20.2104 72.3496 20.1748 72.1338 20.1781C71.9612 20.1807 71.7725 20.1945 71.5679 20.2193C71.3632 20.2441 71.1425 20.28 70.9058 20.327C70.3573 20.4438 69.869 20.6247 69.4411 20.8696C69.0238 21.1036 68.7904 21.3673 68.7409 21.6606C68.6908 21.9106 68.7212 22.1377 68.8322 22.3419C68.9539 22.535 69.1882 22.6886 69.5353 22.8024C69.8931 22.9161 70.4065 22.9678 71.0754 22.9575C71.3128 22.9539 71.5501 22.9448 71.7873 22.9303C72.0245 22.9159 72.2508 22.8961 72.4662 22.8712C72.6923 22.8352 72.8808 22.8106 73.0316 22.7974C73.1824 22.7735 73.2793 22.7611 73.3224 22.7605C73.5922 22.7563 73.819 22.7691 74.0029 22.7988C74.1868 22.8285 74.2587 22.9411 74.2185 23.1368C74.1894 23.354 74.0734 23.5291 73.8704 23.6623C73.6782 23.7953 73.4206 23.8913 73.0978 23.9505C72.7857 24.0094 72.4193 24.0422 71.9986 24.0486L70.3317 24.0743C69.7491 24.0832 69.2081 23.994 68.7089 23.8066C68.2204 23.6191 67.844 23.3486 67.5796 22.995C67.326 22.6413 67.2387 22.2255 67.3178 21.7475C67.378 21.454 67.5137 21.1485 67.7247 20.831C67.9463 20.5025 68.2653 20.1942 68.6818 19.9061C69.109 19.6178 69.6666 19.3816 70.3545 19.1977C70.8488 19.0601 71.2629 18.9724 71.5969 18.9348C71.9308 18.8971 72.265 18.8758 72.5995 18.8706C73.0202 18.8641 73.3502 18.9187 73.5894 19.0342C73.8286 19.1497 73.9929 19.3097 74.0823 19.5142C74.1826 19.7186 74.2078 19.9566 74.158 20.2283C74.1183 20.4564 74.0524 20.7337 73.9602 21.0602C73.8679 21.3759 73.7757 21.7024 73.6838 22.0397C73.6024 22.3661 73.5313 22.6597 73.4706 22.9207C73.4206 23.1816 73.3763 23.464 73.3378 23.768C73.2991 24.0611 73.2711 24.3487 73.2538 24.6307C73.2365 24.9127 73.2295 25.1567 73.2326 25.3625C73.2363 25.6008 73.2455 25.8553 73.2604 26.126C73.286 26.3857 73.2887 26.5644 73.2686 26.6623C73.2494 26.8143 73.1812 26.9453 73.0642 27.0555C72.9472 27.1657 72.8077 27.222 72.6459 27.2245ZM66.9491 27.2958C66.7549 27.2988 66.6029 27.2361 66.493 27.1077C66.3937 26.9684 66.359 26.8118 66.3887 26.638C66.4193 26.5183 66.4984 26.3979 66.626 26.2767C66.7535 26.1447 66.9671 26.0006 67.2669 25.8443C67.7808 25.5763 68.2882 25.2326 68.789 24.8131C69.3006 24.3935 69.8114 23.9251 70.3215 23.408L71.35 23.9773C70.9893 24.3838 70.5961 24.7854 70.1705 25.182C69.7555 25.5676 69.34 25.9208 68.924 26.2414C68.5189 26.5619 68.145 26.8169 67.8026 27.0063C67.4602 27.1958 67.1757 27.2923 66.9491 27.2958Z" fill="#7831B2"/>
<path d="M82.9242 24.4008C82.4511 24.5165 82.1273 24.5106 81.9527 24.3832C81.7781 24.2559 81.7106 24.0781 81.7503 23.85C81.7799 23.6653 81.8743 23.4905 82.0337 23.3255C82.193 23.1605 82.5146 23.0201 82.9985 22.9043C84.0196 22.6394 85.0471 22.434 86.0808 22.288C87.1144 22.1313 88.1059 22.0456 89.0554 22.031C89.433 22.0252 89.7092 22.0914 89.8839 22.2296C90.0693 22.3568 90.1421 22.529 90.1022 22.7464C90.0835 22.9309 90.0047 23.0729 89.8659 23.1726C89.738 23.2721 89.5337 23.324 89.2532 23.3283C88.6274 23.3379 88.056 23.3684 87.5387 23.4197C87.0323 23.4708 86.5638 23.5322 86.1333 23.6038C85.7133 23.6644 85.3206 23.7409 84.9551 23.8332C84.5894 23.9147 84.2401 24.0068 83.9072 24.1094C83.574 24.2012 83.2464 24.2983 82.9242 24.4008ZM83.7053 20.4228C83.2317 20.506 82.9076 20.4839 82.733 20.3565C82.5584 20.2292 82.4961 20.0351 82.5461 19.7742C82.5863 19.5786 82.7025 19.4142 82.8947 19.2813C83.0975 19.1373 83.4412 19.029 83.9257 18.9566C84.582 18.8273 85.2496 18.7304 85.9285 18.6657C86.6074 18.6011 87.2488 18.5588 87.8528 18.5386C88.4567 18.5077 88.9906 18.4886 89.4545 18.4815C90.1126 18.4714 90.5614 18.5349 90.8009 18.6721C91.0403 18.7985 91.1401 18.9757 91.1004 19.2039C91.0601 19.3887 90.9706 19.5364 90.832 19.6469C90.6932 19.7465 90.4836 19.7985 90.2031 19.8028C89.3831 19.8154 88.6659 19.8427 88.0514 19.8847C87.4368 19.9158 86.8817 19.9622 86.3863 20.024C85.9014 20.0748 85.4437 20.136 85.0132 20.2077C84.5824 20.2685 84.1465 20.3402 83.7053 20.4228Z" fill="#7831B2"/>
<path d="M100.699 30.8568C100.041 30.8669 99.4845 30.8104 99.0294 30.6874C98.5744 30.5752 98.2428 30.4123 98.0345 30.1988C97.8262 29.9853 97.7471 29.7535 97.7973 29.5035C97.827 29.3297 97.895 29.1878 98.0012 29.0778C98.1184 28.9785 98.2795 28.9272 98.4845 28.9241C98.614 28.9221 98.7331 28.9473 98.8418 28.9999C98.9505 29.0524 99.0755 29.11 99.2167 29.1729C99.3581 29.2466 99.5533 29.3086 99.8023 29.3589C100.062 29.4091 100.402 29.431 100.823 29.4245C101.341 29.4165 101.771 29.2962 102.113 29.0634C102.454 28.8305 102.725 28.5067 102.923 28.0919C103.133 27.6769 103.287 27.1978 103.387 26.6544C103.447 26.3393 103.485 26.0298 103.502 25.7262C103.53 25.4223 103.557 25.0968 103.585 24.7497C103.612 24.4025 103.649 24.001 103.696 23.5452C103.743 23.0785 103.821 22.5301 103.93 21.8999L104.438 22.3635C104.105 23.1163 103.769 23.7337 103.431 24.2157C103.093 24.6868 102.764 25.0549 102.444 25.3198C102.124 25.574 101.819 25.752 101.529 25.854C101.25 25.945 100.997 25.9922 100.771 25.9957C99.8322 26.0101 99.1735 25.6302 98.7948 24.8558C98.4159 24.0706 98.3859 22.8087 98.7047 21.07C98.8339 20.342 98.9658 19.7928 99.1005 19.4223C99.2459 19.0516 99.3985 18.8 99.5584 18.6675C99.7182 18.535 99.8845 18.4675 100.057 18.4648C100.219 18.4623 100.349 18.5037 100.447 18.5889C100.546 18.6632 100.596 18.7925 100.599 18.9766C100.613 19.1606 100.579 19.4104 100.497 19.7259C100.335 20.411 100.21 21.0523 100.122 21.6496C100.034 22.2361 99.9983 22.7514 100.016 23.1954C100.033 23.6394 100.109 23.985 100.242 24.2322C100.375 24.4685 100.587 24.5844 100.879 24.58C101.332 24.573 101.771 24.3333 102.195 23.8608C102.619 23.3775 103.014 22.7321 103.38 21.9246C103.756 21.1061 104.092 20.1907 104.39 19.1784C104.482 18.8736 104.576 18.6717 104.672 18.5727C104.768 18.4629 104.918 18.4064 105.123 18.4032C105.274 18.4009 105.409 18.4476 105.53 18.5432C105.66 18.6388 105.739 18.8109 105.764 19.0598C105.8 19.2976 105.756 19.6234 105.633 20.037C105.48 20.592 105.363 21.0868 105.284 21.5215C105.215 21.956 105.167 22.3739 105.141 22.7753C105.114 23.1658 105.094 23.567 105.078 23.979C105.074 24.38 105.048 24.8247 105.001 25.313C104.955 25.7905 104.877 26.3444 104.768 26.9745C104.639 27.7025 104.443 28.3124 104.181 28.804C103.918 29.3065 103.612 29.7067 103.26 30.0047C102.908 30.3027 102.512 30.5147 102.072 30.6406C101.642 30.7773 101.185 30.8493 100.699 30.8568Z" fill="#7831B2"/>
<path d="M110.58 26.6089C109.781 26.6212 109.121 26.4742 108.598 26.168C108.086 25.8508 107.723 25.4121 107.51 24.8519C107.307 24.2807 107.275 23.6202 107.415 22.8703C107.534 22.2292 107.757 21.6352 108.084 21.0884C108.42 20.5306 108.834 20.0474 109.324 19.639C109.825 19.2195 110.37 18.8914 110.96 18.6548C111.55 18.4182 112.158 18.2951 112.784 18.2855C113.064 18.2811 113.313 18.3207 113.53 18.404C113.747 18.4765 113.905 18.5933 114.005 18.7543C114.115 18.9043 114.145 19.0935 114.094 19.3218C114.054 19.5283 113.976 19.6921 113.859 19.8131C113.742 19.9232 113.603 19.9795 113.441 19.982C113.322 19.9839 113.23 19.9636 113.165 19.9213C113.099 19.8789 113.029 19.8367 112.952 19.7945C112.887 19.7522 112.773 19.7322 112.612 19.7347C111.997 19.7442 111.422 19.9101 110.887 20.2326C110.352 20.5442 109.9 20.9521 109.53 21.4562C109.17 21.9494 108.936 22.4785 108.826 23.0437C108.757 23.4999 108.774 23.8951 108.876 24.2295C108.989 24.5528 109.187 24.8044 109.47 24.9843C109.764 25.164 110.122 25.2506 110.543 25.2441C111.017 25.2368 111.394 25.1769 111.673 25.0642C111.952 24.9407 112.171 24.8073 112.331 24.664C112.501 24.5205 112.639 24.3938 112.746 24.2838C112.852 24.163 112.975 24.1015 113.115 24.0993C113.32 24.0962 113.461 24.1427 113.538 24.2391C113.626 24.3353 113.65 24.5028 113.611 24.7418C113.54 25.1005 113.362 25.4229 113.075 25.7091C112.788 25.9844 112.424 26.2013 111.984 26.3597C111.555 26.518 111.087 26.6011 110.58 26.6089Z" fill="#7831B2"/>
<path d="M121.761 26.4533C121.502 26.4573 121.322 26.3192 121.221 26.039C121.119 25.7588 121.065 25.402 121.059 24.9687C121.054 24.6437 121.075 24.2804 121.123 23.8787C121.171 23.4662 121.224 23.0536 121.282 22.6409C121.34 22.2283 121.394 21.8428 121.442 21.4844C121.502 21.1259 121.546 20.8273 121.574 20.5884C121.613 20.2844 121.636 20.024 121.644 19.8072C121.662 19.5902 121.669 19.3625 121.665 19.1242L121.979 19.542L120.814 19.5599C120.469 19.5652 120.054 19.5878 119.569 19.6278C119.094 19.6567 118.626 19.6965 118.162 19.7469C117.699 19.7974 117.312 19.8629 117 19.9436L117.747 19.0381C117.778 19.6445 117.749 20.2571 117.662 20.8761C117.585 21.495 117.481 22.1576 117.352 22.8639C117.292 23.1791 117.227 23.5322 117.158 23.9234C117.088 24.3146 117.013 24.6896 116.932 25.0484C116.851 25.4072 116.775 25.6955 116.702 25.9134C116.64 26.0877 116.545 26.2355 116.418 26.3566C116.29 26.4669 116.134 26.5235 115.951 26.5263C115.735 26.5296 115.577 26.4291 115.477 26.2248C115.377 26.0204 115.356 25.7553 115.416 25.4293C115.456 25.1903 115.511 24.9185 115.582 24.614C115.653 24.2987 115.718 23.9726 115.777 23.6358C115.837 23.2989 115.892 22.9947 115.942 22.723C116.052 22.1795 116.12 21.7125 116.147 21.322C116.184 20.9205 116.211 20.5679 116.228 20.2643C116.256 19.9604 116.294 19.6673 116.344 19.3848C116.405 19.1454 116.499 18.9598 116.627 18.8278C116.765 18.6956 116.958 18.6006 117.205 18.5426C117.571 18.4611 117.996 18.4004 118.481 18.3604C118.977 18.3095 119.483 18.2746 120.001 18.2558C120.53 18.2368 121.031 18.2237 121.506 18.2164C122.132 18.2068 122.587 18.3244 122.871 18.5693C123.155 18.8141 123.238 19.2517 123.118 19.8821C123.078 20.0994 123.029 20.4035 122.97 20.7945C122.911 21.1856 122.842 21.6201 122.763 22.0981C122.695 22.5759 122.637 23.059 122.591 23.5473C122.544 24.0248 122.519 24.4695 122.514 24.8813C122.506 25.0548 122.509 25.2336 122.522 25.4176C122.536 25.6016 122.533 25.7587 122.513 25.8891C122.483 26.0304 122.399 26.1617 122.26 26.2831C122.132 26.3934 121.966 26.4501 121.761 26.4533Z" fill="#7831B2"/>
<path d="M127.948 26.3582C127.053 26.3719 126.354 26.2201 125.853 25.9028C125.352 25.5745 125.021 25.1299 124.861 24.5689C124.702 23.9971 124.686 23.3526 124.816 22.6354C124.926 22.1027 125.123 21.5687 125.407 21.0334C125.7 20.4871 126.065 19.9885 126.501 19.5375C126.947 19.0863 127.443 18.7265 127.99 18.4581C128.546 18.1786 129.132 18.0342 129.747 18.0247C130.319 18.0159 130.79 18.1008 131.16 18.2793C131.54 18.4577 131.803 18.7245 131.949 19.0799C132.105 19.4351 132.134 19.8843 132.034 20.4277C131.935 21.0252 131.679 21.533 131.264 21.9511C130.849 22.3584 130.331 22.6752 129.708 22.9015C129.097 23.1276 128.435 23.2462 127.723 23.2571C126.989 23.2684 126.497 23.1893 126.246 23.0198C126.006 22.8501 125.906 22.6566 125.946 22.4392C125.966 22.3089 126.013 22.2161 126.087 22.1607C126.162 22.0946 126.28 22.0602 126.442 22.0578C126.561 22.0559 126.701 22.0754 126.864 22.1163C127.037 22.1461 127.291 22.1585 127.625 22.1533C128.164 22.1451 128.649 22.0618 129.078 21.9035C129.518 21.745 129.876 21.5336 130.153 21.2693C130.429 20.9941 130.603 20.6826 130.673 20.3348C130.733 20.0088 130.686 19.7657 130.532 19.6055C130.39 19.4452 130.108 19.3683 129.687 19.3747C129.266 19.3812 128.863 19.4849 128.478 19.6859C128.103 19.8759 127.751 20.1359 127.421 20.4661C127.103 20.796 126.833 21.174 126.613 21.6C126.393 22.026 126.243 22.4726 126.164 22.9397C126.094 23.3309 126.094 23.6885 126.164 24.0125C126.234 24.3257 126.399 24.5832 126.662 24.7851C126.934 24.9759 127.319 25.0675 127.815 25.0599C128.376 25.0513 128.855 24.9735 129.252 24.8265C129.66 24.6685 130.002 24.4899 130.28 24.2906C130.557 24.0913 130.792 23.9197 130.984 23.7759C131.176 23.6321 131.348 23.559 131.499 23.5567C131.682 23.5538 131.813 23.6223 131.891 23.7619C131.979 23.8906 132.003 24.0636 131.963 24.281C131.923 24.4983 131.781 24.728 131.537 24.9702C131.303 25.2013 130.993 25.4228 130.608 25.6346C130.233 25.8463 129.815 26.0206 129.353 26.1578C128.902 26.2839 128.434 26.3507 127.948 26.3582Z" fill="#7831B2"/>
<path d="M133.747 26.3341C133.617 26.3361 133.503 26.2999 133.405 26.2255C133.307 26.162 133.246 26.0546 133.222 25.9033C133.198 25.7519 133.239 25.5671 133.343 25.3488C133.436 25.0981 133.61 24.7866 133.863 24.4143C134.116 24.042 134.434 23.6253 134.815 23.1644C135.197 22.7034 135.627 22.2254 136.105 21.7304C136.593 21.2353 137.12 20.7396 137.684 20.2433C138.249 19.747 138.835 19.2883 139.444 18.8672C139.839 18.5685 140.159 18.3469 140.405 18.2022C140.662 18.0466 140.865 17.9459 141.016 17.9003C141.166 17.8546 141.306 17.8308 141.435 17.8288C141.608 17.8261 141.749 17.8782 141.859 17.9848C141.979 18.0805 142.024 18.2315 141.995 18.4379C141.965 18.6009 141.892 18.7483 141.775 18.8801C141.658 19.0119 141.493 19.1391 141.279 19.2616C140.412 19.7408 139.58 20.3279 138.781 21.0229C137.993 21.7177 137.249 22.4714 136.549 23.284C135.849 24.0858 135.209 24.9029 134.628 25.7354C134.469 25.9437 134.315 26.0924 134.165 26.1813C134.026 26.281 133.887 26.3319 133.747 26.3341ZM139.734 26.2095C139.572 26.212 139.426 26.1655 139.295 26.07C139.175 25.9743 139.053 25.7865 138.93 25.5067C138.685 25.012 138.402 24.4908 138.081 23.9431C137.77 23.3953 137.438 22.8586 137.085 22.333C136.742 21.7965 136.389 21.298 136.026 20.8377C135.674 20.3771 135.339 19.9868 135.021 19.6666C134.802 19.4532 134.637 19.2553 134.526 19.0728C134.416 18.8903 134.38 18.6904 134.42 18.473C134.44 18.3752 134.471 18.2826 134.513 18.1953C134.555 18.1079 134.613 18.042 134.688 17.9975C134.774 17.9529 134.881 17.9295 135.011 17.9276C135.226 17.9242 135.405 17.9757 135.547 18.0819C135.7 18.1879 135.908 18.3851 136.171 18.6737C136.369 18.8765 136.594 19.1439 136.847 19.476C137.1 19.808 137.365 20.1832 137.641 20.6015C137.928 21.0197 138.21 21.4434 138.486 21.8726C138.762 22.291 139.017 22.6934 139.249 23.0799C139.493 23.4663 139.687 23.7992 139.831 24.0788C140.075 24.5301 140.226 24.8745 140.284 25.1121C140.341 25.3387 140.355 25.5281 140.325 25.6803C140.295 25.8433 140.232 25.9689 140.136 26.0571C140.041 26.156 139.907 26.2069 139.734 26.2095Z" fill="#7831B2"/>
<path d="M151.196 25.9846C150.398 25.9969 149.737 25.8499 149.214 25.5437C148.702 25.2265 148.34 24.7878 148.126 24.2276C147.923 23.6564 147.891 22.9959 148.031 22.246C148.151 21.6049 148.374 21.0109 148.7 20.4641C149.037 19.9063 149.45 19.4231 149.941 19.0147C150.441 18.5952 150.987 18.2671 151.577 18.0305C152.167 17.7939 152.774 17.6708 153.4 17.6612C153.681 17.6568 153.929 17.6964 154.147 17.7797C154.363 17.8522 154.522 17.969 154.621 18.13C154.731 18.28 154.761 18.4692 154.711 18.6975C154.671 18.904 154.592 19.0678 154.476 19.1888C154.359 19.2989 154.219 19.3552 154.057 19.3577C153.939 19.3595 153.847 19.3393 153.781 19.2969C153.716 19.2546 153.645 19.2124 153.569 19.1702C153.503 19.1278 153.39 19.1079 153.228 19.1104C152.613 19.1199 152.038 19.2858 151.504 19.6083C150.969 19.9199 150.516 20.3278 150.146 20.8319C149.787 21.3251 149.552 21.8542 149.442 22.4194C149.373 22.8756 149.39 23.2708 149.492 23.6052C149.605 23.9285 149.803 24.1801 150.087 24.36C150.381 24.5397 150.738 24.6263 151.159 24.6198C151.634 24.6125 152.011 24.5525 152.289 24.4399C152.568 24.3164 152.787 24.183 152.947 24.0397C153.117 23.8962 153.256 23.7695 153.362 23.6595C153.468 23.5386 153.591 23.4772 153.732 23.475C153.937 23.4718 154.078 23.5184 154.155 23.6148C154.242 23.711 154.266 23.8785 154.227 24.1175C154.157 24.4762 153.978 24.7986 153.691 25.0848C153.404 25.3601 153.041 25.577 152.601 25.7354C152.171 25.8937 151.703 25.9768 151.196 25.9846Z" fill="#7831B2"/>
<path d="M156.395 19.3543C156.147 19.3581 155.952 19.2853 155.809 19.1357C155.678 18.9861 155.632 18.8134 155.672 18.6177C155.702 18.4981 155.766 18.3941 155.861 18.306C155.957 18.2178 156.129 18.1393 156.376 18.0705C156.763 17.9562 157.279 17.8508 157.925 17.7541C158.582 17.6574 159.347 17.6022 160.221 17.5888C160.674 17.5819 161.09 17.5863 161.468 17.6022C161.856 17.607 162.283 17.6384 162.748 17.6963C163.115 17.734 163.397 17.8163 163.593 17.9433C163.8 18.0702 163.889 18.2151 163.859 18.3781C163.839 18.4976 163.792 18.6067 163.718 18.7053C163.655 18.793 163.559 18.8649 163.43 18.9211C163.312 18.9771 163.162 19.0065 162.978 19.0093C162.752 19.0128 162.487 19.006 162.185 18.989C161.882 18.972 161.558 18.9553 161.213 18.9389C160.878 18.9115 160.532 18.9006 160.176 18.9061C159.432 18.9175 158.834 18.9592 158.381 19.0312C157.929 19.0923 157.553 19.1631 157.252 19.2436C156.951 19.3133 156.665 19.3501 156.395 19.3543ZM158.843 25.9158C158.605 25.9195 158.426 25.8247 158.304 25.6315C158.193 25.4382 158.114 25.1902 158.066 24.8875C158.041 24.6603 158.036 24.3516 158.052 23.9612C158.078 23.5599 158.126 23.1257 158.194 22.6587C158.262 22.1809 158.336 21.7192 158.416 21.2737C158.525 20.6761 158.62 20.1491 158.699 19.6927C158.789 19.2254 158.859 18.8396 158.908 18.5355L160.363 18.4156C160.323 18.6004 160.272 18.8342 160.212 19.1168C160.162 19.3885 160.107 19.6982 160.048 20.0458C159.988 20.3827 159.924 20.7304 159.854 21.0891C159.794 21.4367 159.734 21.7736 159.675 22.0996C159.575 22.6429 159.512 23.099 159.485 23.4678C159.469 23.8257 159.468 24.1183 159.482 24.3456C159.497 24.5729 159.51 24.7623 159.523 24.9139C159.536 25.0545 159.533 25.1846 159.513 25.3041C159.493 25.4236 159.452 25.5326 159.389 25.6311C159.325 25.7188 159.245 25.785 159.149 25.8298C159.053 25.8855 158.95 25.9142 158.843 25.9158Z" fill="#7831B2"/>
<path d="M166.476 29.8457C165.818 29.8559 165.261 29.7994 164.806 29.6763C164.351 29.5641 164.019 29.4013 163.811 29.1878C163.603 28.9742 163.524 28.7425 163.574 28.4925C163.644 28.1122 163.873 27.919 164.261 27.913C164.391 27.911 164.51 27.9363 164.618 27.9888C164.727 28.0413 164.852 28.099 164.993 28.1618C165.135 28.2355 165.33 28.2975 165.579 28.3479C165.839 28.3981 166.179 28.4199 166.6 28.4135C167.117 28.4055 167.547 28.2851 167.889 28.0523C168.231 27.8195 168.501 27.4957 168.7 27.0809C168.909 26.6659 169.064 26.1867 169.164 25.6434C169.223 25.3282 169.262 25.0188 169.279 24.7151C169.307 24.4113 169.334 24.0858 169.361 23.7386C169.388 23.3915 169.425 22.99 169.472 22.5341C169.519 22.0675 169.597 21.519 169.706 20.8889L170.215 21.3524C169.881 22.1052 169.545 22.7226 169.207 23.2046C168.869 23.6758 168.54 24.0438 168.221 24.3088C167.901 24.5629 167.596 24.741 167.306 24.843C167.027 24.934 166.774 24.9812 166.547 24.9847C165.609 24.9991 164.95 24.6191 164.571 23.8448C164.192 23.0596 164.162 21.7976 164.481 20.059C164.61 19.331 164.742 18.7817 164.877 18.4112C165.022 18.0406 165.175 17.789 165.335 17.6565C165.495 17.524 165.661 17.4564 165.834 17.4538C166.093 17.4498 166.261 17.5393 166.34 17.7223C166.418 17.9053 166.396 18.2362 166.274 18.7148C166.111 19.4 165.986 20.0412 165.898 20.6386C165.81 21.2251 165.775 21.7403 165.792 22.1843C165.81 22.6283 165.885 22.9739 166.019 23.2211C166.152 23.4575 166.364 23.5734 166.655 23.5689C167.108 23.562 167.547 23.3222 167.972 22.8498C168.396 22.3665 168.791 21.7211 169.156 20.9136C169.532 20.0951 169.869 19.1797 170.166 18.1674C170.259 17.8625 170.353 17.6606 170.449 17.5616C170.544 17.4518 170.694 17.3953 170.899 17.3922C171.05 17.3899 171.186 17.4365 171.306 17.5322C171.437 17.6277 171.515 17.7999 171.541 18.0487C171.577 18.2866 171.533 18.6123 171.41 19.026C171.256 19.581 171.14 20.0758 171.06 20.5105C170.991 20.945 170.944 21.3629 170.917 21.7642C170.891 22.1547 170.87 22.556 170.855 22.968C170.85 23.369 170.824 23.8137 170.778 24.302C170.731 24.7795 170.653 25.3333 170.544 25.9635C170.365 26.9415 170.075 27.7099 169.673 28.2687C169.282 28.8382 168.814 29.2409 168.267 29.4769C167.72 29.7128 167.123 29.8358 166.476 29.8457Z" fill="#7831B2"/>
<path d="M173.473 24.7482C173.609 24.421 173.781 24.0554 173.991 23.6512C174.2 23.2362 174.426 22.8047 174.667 22.3568C174.919 21.9086 175.172 21.4713 175.424 21.0448C175.687 20.6073 175.935 20.2134 176.167 19.8631C176.473 19.4141 176.78 18.9922 177.087 18.5974C177.394 18.2026 177.685 17.8838 177.962 17.6412C178.25 17.3876 178.496 17.2592 178.701 17.256C178.917 17.2527 179.107 17.3419 179.272 17.5236C179.447 17.7051 179.603 18.0061 179.739 18.4266C179.83 18.7286 179.927 19.1118 180.031 19.5761C180.136 20.0405 180.235 20.5482 180.33 21.0994C180.424 21.6398 180.503 22.1858 180.565 22.7375C180.628 23.2891 180.668 23.7978 180.686 24.2635L179.263 24.4154C179.245 23.8955 179.198 23.3328 179.124 22.7271C179.061 22.1104 178.976 21.5157 178.871 20.9431C178.765 20.3704 178.655 19.8736 178.54 19.4528C178.426 19.0211 178.308 18.7303 178.187 18.5805L178.816 18.4408C178.477 18.8144 178.116 19.2534 177.736 19.7577C177.366 20.2619 177.018 20.8036 176.692 21.3829C176.45 21.8092 176.224 22.2136 176.014 22.5961C175.804 22.9786 175.61 23.35 175.433 23.7103C175.265 24.0597 175.098 24.4198 174.931 24.7908L173.473 24.7482ZM180.528 27.7443C180.312 27.7476 180.144 27.6743 180.023 27.5245C179.902 27.3746 179.862 27.2073 179.902 27.0225C179.922 26.8921 179.989 26.696 180.104 26.4342C180.218 26.1832 180.338 25.8942 180.463 25.5672C180.587 25.2402 180.679 24.9029 180.739 24.5552L181.334 25.3751C181.182 25.3557 180.945 25.3377 180.621 25.321C180.308 25.3041 179.908 25.2994 179.423 25.3069C178.97 25.3139 178.5 25.3265 178.015 25.3448C177.54 25.3521 177.066 25.3648 176.591 25.3829C176.127 25.4009 175.675 25.4295 175.233 25.4688C174.791 25.4973 174.365 25.5309 173.955 25.5697C173.546 25.6194 173.175 25.6738 172.841 25.7332L173.464 25.1547C173.444 25.2959 173.425 25.4695 173.407 25.6757C173.388 25.8819 173.375 26.0879 173.368 26.2939C173.36 26.5108 173.352 26.7005 173.344 26.8632C173.346 27.0257 173.348 27.1395 173.349 27.2045C173.341 27.3888 173.279 27.5306 173.161 27.6299C173.044 27.7401 172.894 27.7966 172.711 27.7994C172.452 27.8034 172.272 27.7032 172.172 27.4989C172.072 27.2945 172.019 27.0515 172.015 26.7698C172.002 26.5967 172.004 26.3745 172.021 26.1033C172.039 25.8322 172.062 25.6205 172.092 25.4683C172.133 25.2943 172.195 25.1417 172.28 25.0103C172.353 24.8684 172.464 24.7474 172.614 24.6476C172.764 24.5478 172.957 24.4744 173.193 24.4274C173.462 24.3799 173.823 24.3365 174.276 24.297C174.739 24.2465 175.257 24.2061 175.828 24.1756C176.41 24.1342 177.009 24.1033 177.623 24.083C178.238 24.0519 178.826 24.032 179.387 24.0234C179.57 24.0206 179.765 24.0176 179.97 24.0144C180.185 24.0111 180.407 24.0131 180.633 24.0205C180.86 24.0278 181.076 24.0462 181.282 24.0755C181.595 24.1032 181.807 24.1975 181.917 24.3583C182.038 24.519 182.069 24.7732 182.01 25.1209C181.96 25.3925 181.883 25.6808 181.78 25.9858C181.677 26.2908 181.552 26.5745 181.405 26.8368C181.269 27.1098 181.121 27.3288 180.961 27.4938C180.813 27.6586 180.668 27.7421 180.528 27.7443Z" fill="#7831B2"/>
<path d="M186.565 25.4572C185.897 25.4675 185.334 25.384 184.878 25.2068C184.433 25.0186 184.089 24.7584 183.846 24.4262C183.604 24.0832 183.447 23.6847 183.375 23.2307C183.314 22.7765 183.333 22.2777 183.433 21.7344C183.544 21.2017 183.741 20.6677 184.024 20.1324C184.318 19.5861 184.682 19.0875 185.118 18.6365C185.564 18.1853 186.061 17.8255 186.607 17.5571C187.164 17.2776 187.75 17.1332 188.365 17.1237C188.936 17.1149 189.407 17.1998 189.777 17.3783C190.157 17.5567 190.42 17.8236 190.566 18.1789C190.723 18.5341 190.751 18.9833 190.651 19.5267C190.572 19.9722 190.4 20.3703 190.135 20.7211C189.882 21.061 189.557 21.3531 189.161 21.5976C188.776 21.8311 188.342 22.0165 187.859 22.154C187.386 22.2805 186.88 22.3478 186.34 22.3561C185.606 22.3674 185.114 22.2883 184.863 22.1188C184.623 21.9491 184.523 21.7556 184.563 21.5382C184.583 21.4079 184.63 21.3151 184.705 21.2597C184.779 21.1936 184.897 21.1593 185.059 21.1568C185.178 21.1549 185.318 21.1744 185.481 21.2153C185.654 21.2451 185.908 21.2575 186.242 21.2524C186.782 21.2441 187.266 21.1608 187.695 21.0025C188.135 20.844 188.494 20.6326 188.77 20.3683C189.047 20.0931 189.22 19.7817 189.29 19.4338C189.35 19.1078 189.303 18.8647 189.15 18.7045C189.007 18.5442 188.725 18.4673 188.304 18.4737C187.884 18.4802 187.48 18.5839 187.095 18.7849C186.72 18.9749 186.368 19.2349 186.039 19.5651C185.72 19.895 185.45 20.273 185.23 20.699C185.01 21.125 184.861 21.5716 184.781 22.0387C184.712 22.4299 184.712 22.7875 184.781 23.1115C184.851 23.4247 185.017 23.6822 185.279 23.8841C185.552 24.0749 185.936 24.1665 186.432 24.1589C186.993 24.1503 187.472 24.0725 187.869 23.9255C188.277 23.7675 188.62 23.5889 188.897 23.3896C189.175 23.1903 189.41 23.0187 189.602 22.8749C189.794 22.7311 189.965 22.658 190.116 22.6557C190.3 22.6529 190.43 22.7213 190.508 22.861C190.596 22.9896 190.62 23.1626 190.581 23.38C190.541 23.5973 190.399 23.827 190.154 24.0692C189.92 24.3003 189.611 24.5218 189.225 24.7336C188.851 24.9453 188.433 25.1197 187.971 25.2568C187.519 25.3829 187.051 25.4497 186.565 25.4572Z" fill="#7831B2"/>
<path d="M193.289 25.3701C192.901 25.3761 192.638 25.1309 192.501 24.6345C192.364 24.1382 192.37 23.4771 192.519 22.6512C192.64 22.0751 192.779 21.6395 192.936 21.3445C193.104 21.0385 193.295 20.8297 193.51 20.718C193.627 20.6512 193.794 20.6107 194.009 20.5966C194.225 20.5716 194.451 20.5573 194.689 20.5536C195.476 20.5415 196.253 20.4917 197.017 20.4041C197.793 20.3055 198.551 20.1313 199.292 19.8815L199.6 20.9983C199.042 21.2236 198.441 21.3954 197.795 21.5136C197.149 21.6319 196.492 21.7179 195.824 21.7715C195.167 21.8141 194.525 21.8402 193.899 21.8498L192.958 21.718C193.089 21.0767 193.224 20.4028 193.364 19.6963C193.505 18.9898 193.625 18.3594 193.724 17.8053C193.763 17.5446 193.846 17.332 193.973 17.1675C194.1 17.003 194.245 16.9196 194.407 16.9171C194.676 16.9129 194.878 17.0182 195.01 17.2329C195.143 17.4367 195.164 17.7669 195.074 18.2234C195.035 18.4624 194.974 18.7505 194.893 19.0876C194.812 19.4248 194.725 19.7783 194.634 20.1481C194.553 20.5178 194.472 20.8712 194.391 21.2084C194.321 21.5345 194.265 21.8063 194.226 22.0236C194.106 22.6539 194.017 23.2188 193.96 23.7181C193.913 24.2065 193.871 24.5755 193.831 24.8254C193.801 24.9775 193.733 25.1032 193.626 25.2024C193.531 25.3122 193.419 25.3681 193.289 25.3701ZM198.872 25.2843C198.603 25.2884 198.406 25.1343 198.283 24.822C198.17 24.5095 198.115 24.0823 198.117 23.5404C198.131 22.9876 198.197 22.3798 198.316 21.7169C198.516 20.6736 198.692 19.8474 198.845 19.2382C199.008 18.618 199.157 18.1281 199.292 17.7685C199.375 17.5288 199.479 17.3159 199.606 17.1297C199.733 16.9436 199.888 16.8491 200.071 16.8463C200.308 16.8426 200.477 16.9538 200.578 17.1798C200.689 17.3948 200.715 17.6599 200.655 17.9751C200.585 18.3662 200.473 18.7906 200.318 19.2481C200.174 19.7054 200.057 20.2002 199.968 20.7325C199.849 21.3845 199.766 21.9764 199.72 22.508C199.685 23.0287 199.665 23.4679 199.66 23.8256C199.654 24.1832 199.631 24.4491 199.591 24.6231C199.561 24.8186 199.477 24.977 199.339 25.0983C199.201 25.2196 199.045 25.2816 198.872 25.2843Z" fill="#7831B2"/>
<path d="M202.606 18.644C202.358 18.6478 202.163 18.575 202.02 18.4254C201.889 18.2758 201.843 18.1031 201.883 17.9074C201.914 17.7878 201.977 17.6838 202.073 17.5957C202.168 17.5075 202.34 17.429 202.587 17.3602C202.974 17.2459 203.49 17.1405 204.136 17.0438C204.793 16.9471 205.558 16.8919 206.432 16.8785C206.885 16.8716 207.301 16.876 207.679 16.8919C208.067 16.8967 208.494 16.9281 208.959 16.986C209.326 17.0237 209.608 17.106 209.804 17.233C210.011 17.3599 210.1 17.5048 210.07 17.6678C210.05 17.7873 210.003 17.8964 209.929 17.995C209.866 18.0827 209.77 18.1546 209.641 18.2108C209.523 18.2668 209.373 18.2962 209.189 18.299C208.963 18.3025 208.698 18.2957 208.396 18.2787C208.093 18.2617 207.77 18.245 207.424 18.2286C207.089 18.2012 206.743 18.1903 206.387 18.1958C205.643 18.2072 205.045 18.2489 204.593 18.3209C204.14 18.382 203.764 18.4528 203.463 18.5333C203.162 18.6029 202.876 18.6398 202.606 18.644ZM205.054 25.2055C204.816 25.2092 204.637 25.1144 204.515 24.9212C204.404 24.7279 204.325 24.4799 204.277 24.1772C204.252 23.95 204.247 23.6413 204.263 23.2509C204.289 22.8496 204.337 22.4154 204.405 21.9484C204.473 21.4706 204.547 21.0089 204.627 20.5634C204.736 19.9658 204.831 19.4388 204.91 18.9824C205 18.5151 205.07 18.1293 205.119 17.8252L206.574 17.7053C206.534 17.8901 206.483 18.1239 206.423 18.4065C206.373 18.6782 206.319 18.9879 206.259 19.3355C206.2 19.6724 206.135 20.0201 206.065 20.3788C206.005 20.7264 205.946 21.0633 205.886 21.3893C205.786 21.9326 205.723 22.3887 205.696 22.7575C205.68 23.1154 205.679 23.408 205.693 23.6353C205.708 23.8626 205.721 24.052 205.734 24.2036C205.747 24.3442 205.744 24.4743 205.724 24.5938C205.704 24.7133 205.663 24.8223 205.6 24.9208C205.536 25.0085 205.456 25.0747 205.36 25.1195C205.264 25.1752 205.162 25.2039 205.054 25.2055Z" fill="#7831B2"/>
<path d="M211.423 25.0751C210.926 25.0827 210.52 24.9698 210.203 24.7363C209.898 24.5026 209.682 24.1754 209.557 23.7547C209.443 23.3338 209.435 22.8463 209.535 22.2922C209.624 21.7707 209.794 21.2479 210.045 20.7239C210.307 20.189 210.628 19.6856 211.01 19.2137C211.391 18.7311 211.811 18.3075 212.269 17.9428C212.738 17.5672 213.23 17.2725 213.745 17.0587C214.27 16.8447 214.797 16.7337 215.326 16.7256C215.574 16.7217 215.769 16.7838 215.912 16.9116C216.054 17.0394 216.1 17.2338 216.05 17.4946C216.03 17.625 215.973 17.7396 215.877 17.8386C215.781 17.9268 215.642 17.9831 215.459 18.0076C214.705 18.1275 214.008 18.4091 213.367 18.8524C212.737 19.2956 212.211 19.8292 211.789 20.4533C211.378 21.0665 211.107 21.71 210.977 22.3838C210.917 22.699 210.889 22.9865 210.893 23.2465C210.897 23.4957 210.956 23.8199 211.07 24.2191L210.438 23.1073C210.636 23.3534 210.811 23.5133 210.963 23.5868C211.126 23.6601 211.353 23.6946 211.644 23.6901C212.335 23.6795 213.029 23.2245 213.728 22.3252C214.426 21.426 215.065 20.1212 215.643 18.4111C215.715 18.2041 215.816 18.0454 215.943 17.9351C216.082 17.8138 216.243 17.7517 216.426 17.7489C216.674 17.7451 216.865 17.8505 216.998 18.0652C217.141 18.2689 217.204 18.5334 217.188 18.8587C217.155 19.5419 217.143 20.1597 217.151 20.7122C217.17 21.2537 217.237 21.762 217.352 22.237C217.478 22.7119 217.691 23.2016 217.99 23.7063C218.056 23.8137 218.085 23.9379 218.077 24.0789C218.079 24.2197 218.043 24.3557 217.97 24.4869C217.907 24.6178 217.817 24.7276 217.699 24.8161C217.593 24.8936 217.464 24.9335 217.313 24.9358C217.151 24.9383 217.021 24.9078 216.923 24.8443C216.836 24.7806 216.759 24.6897 216.692 24.5715C216.537 24.2922 216.397 23.9963 216.274 23.684C216.15 23.3716 216.048 23.0156 215.966 22.6159C215.895 22.2052 215.861 21.7236 215.863 21.1709C215.866 20.6182 215.91 19.962 215.995 19.2021L216.577 19.1769C216.238 20.2658 215.858 21.1872 215.438 21.9414C215.018 22.6847 214.574 23.2875 214.106 23.7498C213.649 24.2011 213.19 24.5332 212.729 24.7462C212.268 24.9592 211.833 25.0688 211.423 25.0751Z" fill="#7831B2"/>
<path fill-rule="evenodd" clip-rule="evenodd" d="M80.788 42.0644C79.3497 46.4774 78.6383 49.4986 78.5206 51.5735C78.4386 53.0173 78.6325 54.1569 79.2147 54.9964C79.8161 55.8636 80.7096 56.2385 81.6193 56.419C82.4897 56.5917 83.4406 56.627 84.4451 56.6643C87.6318 56.7825 91.3576 56.9208 94.7606 61.53C98.3945 66.4521 98.7864 71.162 97.8457 75.0589C97.7634 75.4002 97.6706 75.7356 97.5688 76.0646C96.8177 78.2845 95.6622 80.1941 94.4957 81.6493L94.7668 75.9882C94.7906 75.4901 94.4079 75.0669 93.9118 75.0429C93.4216 75.0193 93.0042 75.3944 92.9715 75.884C92.8914 76.0115 92.842 76.1608 92.8343 76.3221L92.4455 84.4388C92.4217 84.9368 92.8044 85.36 93.3005 85.384L101.384 85.7743C101.874 85.798 102.291 85.4228 102.324 84.9332C102.404 84.8058 102.454 84.6564 102.461 84.4952C102.485 83.9971 102.102 83.5739 101.606 83.55L95.7094 83.2652C97.0911 81.5563 98.452 79.2839 99.279 76.6238C99.4493 76.1181 99.6008 75.5976 99.7297 75.0636C100.789 70.6748 100.31 65.4095 96.3415 60.034C92.357 54.637 87.4544 54.4861 84.2374 54.3871C83.3953 54.3611 82.6686 54.3388 82.1042 54.2268C81.4259 54.0922 81.0546 53.8723 80.8267 53.5438C80.5798 53.1877 80.3799 52.5306 80.4523 51.2556C80.5543 49.4578 81.1739 46.739 82.4991 42.6214C83.0395 40.9632 83.6903 39.0857 84.4628 36.9599L84.4485 36.9546C84.4982 36.8172 84.5483 36.6787 84.5991 36.5392L82.9096 35.9202C82.071 38.2281 81.3669 40.2654 80.788 42.0644Z" fill="#7831B2"/>
</svg>
