<svg width="153" height="96" viewBox="0 0 153 96" fill="none" xmlns="http://www.w3.org/2000/svg">
<path d="M5.50058 48.7105C5.31314 48.7521 5.15262 48.7303 5.01902 48.6452C4.8698 48.5636 4.75616 48.4577 4.67811 48.3275C4.5966 48.1817 4.55067 48.0116 4.54032 47.8173C4.53866 47.5882 4.64205 47.2047 4.85049 46.6668C5.05892 46.1288 5.34292 45.3775 5.70249 44.4127C6.07421 43.4288 6.49721 42.196 6.97149 40.714C7.28419 39.7597 7.57432 38.8513 7.84187 37.9888C8.12158 37.1073 8.37609 36.297 8.60542 35.5577C8.83129 34.8029 9.03543 34.1348 9.21785 33.5535C9.40027 32.9722 9.54708 32.4889 9.65827 32.1037C9.90845 31.3107 10.1629 30.7216 10.4216 30.3364C10.6959 29.9477 11.0362 29.7084 11.4423 29.6183C11.989 29.497 12.4601 29.5891 12.8557 29.8947C13.2478 30.1846 13.6251 30.6664 13.9876 31.3398C14.1437 31.6002 14.3475 32.0385 14.5989 32.6546C14.8469 33.2552 15.1208 33.9729 15.4208 34.8077C15.7329 35.6235 16.0415 36.4974 16.3466 37.4294C16.6639 38.3424 16.9482 39.2545 17.1995 40.1656C17.463 41.0578 17.6796 41.8865 17.8495 42.6519C18.0158 43.4017 18.1041 44.0212 18.1143 44.5106C18.1195 44.7553 18.076 45.0026 17.9839 45.2525C17.8884 45.4868 17.7591 45.6793 17.5959 45.8303C17.4362 45.9968 17.247 46.1044 17.0283 46.1529C16.8096 46.2014 16.6222 46.1692 16.466 46.0564C16.329 45.9557 16.2153 45.776 16.1252 45.5174C16.0316 45.2432 15.9458 44.8934 15.8678 44.4682C15.6548 43.1388 15.3585 41.8033 14.9789 40.4617C14.5993 39.12 14.198 37.8652 13.7749 36.6971C13.3484 35.5134 12.9331 34.491 12.529 33.6301C12.125 32.7692 11.792 32.1547 11.5301 31.7867L11.9856 31.7348C11.7946 32.2033 11.5844 32.8072 11.355 33.5464C11.1223 34.27 10.8755 35.0787 10.6149 35.9723C10.3508 36.8504 10.0824 37.7458 9.80963 38.6585C9.54901 39.5522 9.29362 40.3955 9.04344 41.1885C8.75852 42.1204 8.47447 43.0192 8.19129 43.8851C7.90466 44.7354 7.6302 45.4928 7.36792 46.1574C7.10564 46.822 6.87639 47.3399 6.68016 47.7113C6.53601 48.0219 6.36499 48.2483 6.1671 48.3905C5.97268 48.5484 5.75051 48.655 5.50058 48.7105ZM32.7098 42.6983C31.6945 42.9235 30.8172 42.9215 30.078 42.6922C29.3509 42.4438 28.7575 42.0591 28.2978 41.5384C27.8381 41.0176 27.4912 40.4144 27.2572 39.7288C27.0387 39.0398 26.9288 38.3594 26.9272 37.6878C26.9067 37.004 26.9867 36.3307 27.1674 35.6678C27.3447 34.9893 27.5948 34.3438 27.9178 33.7313C28.2564 33.1154 28.6341 32.5645 29.0507 32.0787C29.4796 31.5738 29.9292 31.1627 30.3996 30.8453C30.8822 30.5088 31.3577 30.2885 31.8263 30.1845C32.0138 30.143 32.1804 30.1552 32.3261 30.2212C32.4719 30.2872 32.5994 30.3818 32.7087 30.505C32.818 30.6283 32.8856 30.7854 32.9116 30.9763C32.9255 31.0388 32.8091 31.1793 32.5626 31.3979C32.3161 31.6165 32.0236 31.8862 31.6851 32.2072C31.3431 32.5125 31.0141 32.8395 30.6982 33.1882C30.3787 33.5213 30.1469 33.8432 30.0028 34.1538C29.6312 34.8426 29.3307 35.4829 29.1014 36.0746C28.8687 36.6507 28.6386 37.1278 28.4111 37.5061C28.1958 37.8653 27.9163 38.083 27.5727 38.1592C26.9322 38.3013 26.4359 38.4278 26.0835 38.5388C25.7468 38.6462 25.4639 38.7746 25.2348 38.9237C25.0213 39.0694 24.7982 39.2828 24.5655 39.5639C24.2895 39.871 24.0499 40.2683 23.8467 40.7559C23.6591 41.24 23.5044 41.725 23.3828 42.2109C23.2733 42.6777 23.1916 43.0482 23.1377 43.3224C23.0143 43.8742 22.8753 44.282 22.7208 44.5457C22.5628 44.7938 22.3823 44.9404 22.1792 44.9855C21.8668 45.0548 21.6048 44.9818 21.3931 44.7665C21.1815 44.5513 21.0705 44.1989 21.0603 43.7095C21.043 43.4839 21.07 43.1256 21.1413 42.6345C21.2126 42.1434 21.2875 41.5941 21.3658 40.9867C21.4562 40.3603 21.5302 39.7702 21.5876 39.2167C21.6572 38.644 21.6852 38.1789 21.6714 37.8214C21.6525 37.2192 21.5902 36.643 21.4846 36.0928C21.3945 35.5392 21.301 35.0437 21.2039 34.6063C21.1034 34.1533 21.0489 33.7967 21.0403 33.5364C21.0317 33.276 21.0943 33.0409 21.228 32.831C21.3773 32.6176 21.5847 32.4814 21.8503 32.4225C22.2095 32.3428 22.495 32.4106 22.7066 32.6258C22.9148 32.8255 23.0796 33.1249 23.2009 33.5241C23.2651 33.7393 23.3387 34.0343 23.4219 34.4092C23.5051 34.7841 23.5735 35.2033 23.6271 35.6666C23.6929 36.1109 23.7353 36.5604 23.7542 37.0151C23.7558 37.3917 23.7322 37.8394 23.6835 38.3583C23.6503 38.8737 23.5972 39.41 23.5241 39.967C23.4476 40.5085 23.3641 41.0187 23.2737 41.4976C23.1989 41.9731 23.1302 42.3653 23.0677 42.6742C23.0172 42.964 22.992 43.1089 22.992 43.1089L21.3833 42.9495C21.4147 42.6476 21.4764 42.2979 21.5685 41.9005C21.6606 41.5031 21.7822 41.091 21.9334 40.6641C22.0845 40.2373 22.2703 39.8191 22.4909 39.4096C22.7114 39.0001 22.9658 38.6323 23.254 38.3061C23.6238 37.8307 24.0161 37.4569 24.431 37.1846C24.8458 36.9122 25.3058 36.6955 25.8109 36.5342C26.3281 36.3539 26.9304 36.1875 27.6176 36.035C27.727 36.0108 27.8685 35.8729 28.0421 35.6213C28.2314 35.3662 28.4276 35.0687 28.6307 34.7286C28.846 34.3694 29.057 34.0276 29.2636 33.7032C29.4668 33.3631 29.6448 33.0941 29.7976 32.8964L31.7215 32.3712C31.508 32.5169 31.2424 32.7233 30.9247 32.9905C30.6226 33.2541 30.3188 33.5838 30.0133 33.9793C29.7233 34.3715 29.4837 34.8426 29.2943 35.3926C29.105 35.9427 29.018 36.5848 29.0333 37.3189C29.0279 38.1068 29.1708 38.788 29.4622 39.3625C29.7535 39.937 30.1595 40.3632 30.68 40.6411C31.2127 40.8998 31.8149 40.9547 32.4865 40.8057C33.1114 40.6671 33.652 40.4078 34.1086 40.0279C34.5773 39.6289 34.9488 39.1613 35.2232 38.6252C35.4941 38.0734 35.667 37.486 35.7418 36.863C35.8323 36.2365 35.8195 35.6248 35.7034 35.0278C35.6081 34.5244 35.4478 34.0602 35.2223 33.6349C34.9968 33.2096 34.6342 32.9049 34.1345 32.7208C33.6347 32.5367 32.9085 32.5503 31.9556 32.7617C31.5651 32.8484 31.2319 32.824 30.956 32.6885C30.6923 32.534 30.564 32.3248 30.571 32.061C30.5485 31.8857 30.6154 31.707 30.7716 31.5248C30.9279 31.3427 31.1379 31.1813 31.4017 31.0408C31.6812 30.8969 31.9771 30.7903 32.2895 30.721C33.133 30.5338 33.8637 30.5028 34.4814 30.628C35.1148 30.7497 35.6519 30.9911 36.0925 31.3522C36.5488 31.7099 36.9114 32.1621 37.1802 32.7088C37.449 33.2556 37.6371 33.8448 37.7445 34.4766C37.916 35.3235 37.9339 36.18 37.7983 37.0459C37.6782 37.9084 37.402 38.7318 36.9696 39.516C36.5494 40.2812 35.9843 40.9474 35.2743 41.5147C34.5799 42.0785 33.7251 42.473 32.7098 42.6983ZM46.3842 39.6398C45.3533 39.8685 44.4612 39.837 43.7082 39.5452C42.9672 39.2343 42.3617 38.7212 41.8917 38.0061C41.4338 37.2718 41.0905 36.3892 40.8617 35.3583C40.6295 34.3118 40.4972 33.1611 40.4646 31.9064C40.4285 30.7835 40.5105 29.7492 40.7104 28.8035C40.9068 27.8421 41.1761 26.9875 41.5182 26.2397C41.8725 25.4727 42.2762 24.8177 42.7294 24.2747C43.1825 23.7316 43.6599 23.2979 44.1615 22.9736C44.8368 22.5451 45.5293 22.1948 46.2392 21.9226C46.9647 21.6469 47.6104 21.3807 48.1762 21.1241C48.8323 20.831 49.3834 20.5449 49.8296 20.2656C50.2757 19.9863 50.6237 19.819 50.8736 19.7635C51.061 19.722 51.2433 19.7307 51.4202 19.7898C51.6129 19.8454 51.7673 19.9504 51.8835 20.1049C51.9963 20.2438 52.0535 20.4278 52.0551 20.6568C52.0672 20.9328 51.9534 21.1957 51.7138 21.4455C51.4708 21.6797 51.1505 21.8982 50.7531 22.1011C49.9615 22.5226 49.2247 22.8582 48.5426 23.1078C47.8727 23.3384 47.2574 23.5569 46.6968 23.7632C46.1327 23.9539 45.6033 24.2271 45.1085 24.5827C44.6225 24.9035 44.1807 25.3867 43.783 26.0322C43.3976 26.6585 43.0884 27.4073 42.8556 28.2784C42.6349 29.1304 42.5382 30.0614 42.5656 31.0715C42.6084 32.8156 42.7616 34.2075 43.025 35.2471C43.3006 36.2677 43.703 36.9732 44.2321 37.3639C44.7769 37.7511 45.4398 37.858 46.2209 37.6848C46.7519 37.5669 47.2614 37.3146 47.7492 36.9278C48.2335 36.5253 48.6597 36.0456 49.0278 35.4886C49.4115 34.9282 49.7085 34.3461 49.9187 33.7422C50.141 33.1193 50.2419 32.5397 50.2212 32.0034C50.2214 31.4134 50.1079 30.9387 49.8807 30.5794C49.6656 30.201 49.3481 29.9518 48.9282 29.8319C48.5048 29.6964 47.9807 29.698 47.3559 29.8366C46.528 30.0203 45.6506 30.4608 44.7236 31.1581C43.8123 31.852 42.9469 32.7897 42.1273 33.9713L41.18 33.2473C41.6229 32.2148 42.1881 31.3273 42.8756 30.5848C43.5596 29.8266 44.3095 29.2178 45.1253 28.7581C45.9377 28.2829 46.7344 27.9586 47.5154 27.7854C48.4682 27.574 49.3047 27.5769 50.0248 27.794C50.7415 27.9956 51.3054 28.3949 51.7165 28.9921C52.1276 29.5892 52.3312 30.3962 52.3274 31.4132C52.3358 32.2636 52.1923 33.1313 51.897 34.0162C51.6138 34.8821 51.2075 35.7098 50.6779 36.4992C50.1448 37.2731 49.5155 37.9453 48.7899 38.516C48.0608 39.0711 47.2589 39.4457 46.3842 39.6398ZM61.2938 36.3565C60.0129 36.6406 58.8962 36.5934 57.9435 36.2147C57.0065 35.8326 56.2761 35.1998 55.7523 34.3163C55.2407 33.4137 54.9651 32.3194 54.9256 31.0334C54.9034 30.1206 55.0304 29.2893 55.3065 28.5397C55.5949 27.771 55.9544 27.1013 56.3849 26.5304C56.8311 25.9562 57.3033 25.499 57.8015 25.1591C58.2962 24.8035 58.7389 24.5823 59.1294 24.4957C59.3012 24.4576 59.447 24.4498 59.5667 24.4724C59.7021 24.4916 59.8131 24.5489 59.8999 24.6443C59.9987 24.7207 60.0516 24.8483 60.0585 25.0271C60.0497 25.3568 59.9889 25.6735 59.876 25.9772C59.7596 26.2652 59.4896 26.5627 59.0661 26.8698C58.5627 27.2601 58.1521 27.6625 57.8344 28.0772C57.5288 28.4728 57.3057 28.9074 57.1649 29.3812C57.0207 29.8393 56.9659 30.3677 57.0004 30.9664C57.0312 32.2871 57.4048 33.2695 58.1213 33.9136C58.8344 34.5421 59.7533 34.7316 60.8779 34.482C61.9713 34.2394 62.8375 33.6375 63.4765 32.6763C64.1276 31.696 64.4326 30.5221 64.3914 29.1545C64.3745 27.8963 64.0884 26.9765 63.5333 26.3949C62.9747 25.7977 62.2268 25.6031 61.2895 25.811C60.8053 25.9185 60.4122 26.104 60.1101 26.3677C59.8237 26.6279 59.5199 26.9576 59.1987 27.3566C58.9695 27.6533 58.7898 27.9144 58.6596 28.14C58.5293 28.3655 58.406 28.5486 58.2897 28.6891C58.1856 28.8106 58.0319 28.8938 57.8289 28.9389C57.6102 28.9874 57.4228 28.9552 57.2666 28.8423C57.1226 28.7104 57.0455 28.4735 57.0352 28.1316C57.018 27.7585 57.1161 27.3516 57.3298 26.9108C57.559 26.4666 57.8576 26.0398 58.2257 25.6304C58.6059 25.2018 59.0329 24.8367 59.5068 24.5349C59.9772 24.2174 60.4624 24.0033 60.9622 23.8924C62.0869 23.6429 63.0595 23.7057 63.8803 24.0808C64.6976 24.4403 65.3334 25.0531 65.7878 25.9193C66.2387 26.7698 66.4709 27.8164 66.4844 29.0589C66.5256 30.279 66.3326 31.4035 65.9053 32.4324C65.4746 33.4458 64.8599 34.2951 64.0614 34.9803C63.2785 35.6621 62.3559 36.1208 61.2938 36.3565ZM74.9536 18.5265C74.2976 18.672 73.7118 18.6545 73.1965 18.4738C72.6776 18.2775 72.2621 17.9928 71.9499 17.6196C71.6341 17.2307 71.4408 16.8393 71.3697 16.4453C71.3074 16.0167 71.3518 15.6626 71.5029 15.3833C71.6539 15.1039 71.8779 14.9313 72.1747 14.8655C72.409 14.8135 72.6102 14.9081 72.7785 15.1494C72.9589 15.3716 73.1541 15.6233 73.364 15.9046C73.5548 16.1736 73.776 16.395 74.0275 16.5686C74.2947 16.7387 74.647 16.7753 75.0844 16.6783C75.2874 16.6332 75.4818 16.5491 75.6676 16.426C75.8655 16.2837 76.0443 16.1293 76.204 15.9628C76.3759 15.7772 76.526 15.6045 76.6545 15.4449C76.8472 15.2055 77.0217 14.9947 77.178 14.8125C77.3307 14.6147 77.4827 14.4499 77.6337 14.3181C77.8003 14.1828 77.9696 14.096 78.1414 14.0579C78.3288 14.0163 78.485 14.0554 78.6099 14.1752C78.747 14.2759 78.8068 14.4347 78.7894 14.6517C78.7737 14.9502 78.6711 15.3007 78.4818 15.7032C78.3047 16.0867 78.046 16.4719 77.7057 16.8588C77.3654 17.2457 76.9584 17.59 76.4845 17.8918C76.0262 18.1902 75.5159 18.4017 74.9536 18.5265ZM72.3608 33.8765C71.8298 33.9943 71.3803 33.9629 71.0124 33.7823C70.6602 33.5982 70.3687 33.3187 70.1381 32.9438C69.9039 32.5532 69.7331 32.1158 69.6257 31.6316C69.5304 31.1283 69.4776 30.6319 69.4674 30.1425C69.471 29.7156 69.4885 29.2037 69.52 28.6067C69.567 28.0062 69.6245 27.3789 69.6924 26.7247C69.7603 26.0704 69.8291 25.457 69.8987 24.8843C69.9839 24.3082 70.0561 23.8578 70.1152 23.5333C70.197 22.9416 70.283 22.48 70.3734 22.1485C70.4794 21.8136 70.6495 21.6202 70.8838 21.5682C71.0869 21.5231 71.2899 21.5518 71.4929 21.6543C71.6959 21.7568 71.8608 21.9087 71.9874 22.11C72.1296 22.3079 72.2068 22.5448 72.2188 22.8208C72.2274 23.0811 72.1978 23.4646 72.1299 23.9713C72.0621 24.4781 71.9829 25.0447 71.8925 25.6711C71.802 26.2976 71.7211 26.9301 71.6497 27.5688C71.5749 28.1918 71.5426 28.748 71.5528 29.2374C71.5527 29.6799 71.5803 30.0999 71.6357 30.4973C71.6876 30.8791 71.7726 31.1881 71.8905 31.4241C72.005 31.6446 72.1637 31.7323 72.3668 31.6872C72.8666 31.5763 73.4005 30.9908 73.9683 29.9306C74.5518 28.867 75.1467 27.4485 75.7529 25.675C76.0378 24.8907 76.2784 24.1654 76.4748 23.499C76.6711 22.8327 76.8457 22.2531 76.9986 21.7603C77.148 21.2519 77.3121 20.8467 77.491 20.5448C77.6699 20.2429 77.8764 20.0659 78.1107 20.014C78.47 19.9342 78.7589 20.0176 78.9775 20.2642C79.2082 20.4916 79.366 20.8335 79.4509 21.29C79.541 21.6961 79.6363 22.1994 79.7368 22.7999C79.8528 23.3969 79.9724 24.0096 80.0954 24.6379C80.2149 25.2505 80.3414 25.8206 80.4749 26.3483C80.7227 27.2438 80.9732 27.9667 81.2264 28.517C81.4918 29.0481 81.7172 29.4734 81.9028 29.7927C82.0884 30.1121 82.1977 30.3829 82.2306 30.605C82.2531 30.7803 82.2348 30.9565 82.1757 31.1335C82.1132 31.2948 82.022 31.438 81.9022 31.5629C81.7824 31.6878 81.6366 31.7693 81.4648 31.8074C81.1055 31.8871 80.7724 31.789 80.4653 31.5129C80.1738 31.2334 79.8998 30.8108 79.6431 30.2449C79.3865 29.6791 79.1307 29.0065 78.8759 28.2272C78.7199 27.6718 78.5552 27.0774 78.3819 26.4439C78.2242 25.8069 78.0821 25.1665 77.9556 24.5226C77.8448 23.8752 77.7443 23.2747 77.6543 22.7211L78.3857 22.8046C78.278 23.2055 78.1598 23.6332 78.0313 24.0879C77.9183 24.5391 77.7706 25.0553 77.5882 25.6366C77.4179 26.1988 77.1982 26.8704 76.9289 27.6512C76.585 28.6126 76.1855 29.5452 75.7305 30.4492C75.272 31.3376 74.7607 32.0985 74.1965 32.7317C73.6444 33.3459 73.0325 33.7274 72.3608 33.8765ZM102.006 27.2992C101.538 27.4032 100.991 27.3769 100.366 27.2205C99.738 27.0485 99.0969 26.781 98.4427 26.4181C97.8042 26.0517 97.1978 25.6454 96.6235 25.1992C96.0649 24.7495 95.6051 24.3025 95.2443 23.8581C95.0326 23.6428 94.8809 23.4389 94.789 23.2462C94.7092 23.0345 94.6546 22.8253 94.6252 22.6188C94.6443 22.4834 94.6756 22.329 94.719 22.1555C94.7625 21.9819 94.8328 21.8188 94.9301 21.6661C95.0621 21.3746 95.3078 20.9677 95.6672 20.4455C96.0266 19.9233 96.4494 19.3542 96.9355 18.7383C97.4338 18.1032 97.9564 17.5038 98.5032 16.94C99.0622 16.3571 99.5995 15.8609 100.115 15.4515C100.646 15.0387 101.123 14.7855 101.544 14.6919C101.716 14.6538 101.858 14.6634 101.969 14.7207C102.095 14.7745 102.196 14.8587 102.271 14.9733C102.345 15.0878 102.389 15.2093 102.401 15.3378C102.461 15.6849 102.308 16.0632 101.94 16.4726C101.571 16.882 101.167 17.275 100.726 17.6514C99.9466 18.3488 99.267 19.0158 98.6871 19.6526C98.1073 20.2893 97.648 20.8419 97.3095 21.3103C96.9865 21.7753 96.8346 22.0876 96.8536 22.2473C96.857 22.4104 97.0192 22.6613 97.3401 22.9998C97.6576 23.3227 98.1122 23.6725 98.7038 24.0493C99.292 24.4105 99.9592 24.7214 100.705 24.9819C101.044 25.1035 101.373 25.219 101.692 25.3285C102.023 25.4188 102.294 25.5309 102.504 25.6646C102.726 25.7792 102.852 25.9398 102.881 26.1463C102.904 26.3216 102.884 26.4899 102.821 26.6513C102.759 26.8126 102.65 26.9514 102.496 27.0677C102.357 27.1804 102.194 27.2576 102.006 27.2992ZM94.1987 29.0068C93.7926 29.0969 93.4741 28.9545 93.2435 28.5796C93.0093 28.189 92.8368 27.5963 92.726 26.8014C92.6274 25.9875 92.5627 24.9939 92.5318 23.8207C92.5216 23.3313 92.5217 22.815 92.5323 22.2719C92.5586 21.7252 92.5848 21.1785 92.611 20.6319C92.6337 20.0696 92.6365 19.5282 92.6194 19.0075C92.6229 18.8756 92.6186 18.7455 92.6065 18.617C92.6065 18.4695 92.5988 18.3237 92.5832 18.1797C92.5764 17.8534 92.6051 17.5766 92.6694 17.3493C92.7337 17.122 92.824 16.9381 92.9403 16.7975C93.0688 16.6379 93.2111 16.5408 93.3673 16.5061C93.7266 16.4264 94.0441 16.5281 94.32 16.811C94.608 17.0749 94.7536 17.5097 94.7569 18.1154C94.7654 18.5232 94.7479 19.0351 94.7043 19.6512C94.6728 20.2482 94.637 20.8625 94.5969 21.4942C94.5568 22.1259 94.5401 22.6786 94.5469 23.1524C94.5865 23.9959 94.6383 24.7464 94.7023 25.4042C94.7819 26.0585 94.8607 26.5982 94.9387 27.0235C95.0131 27.433 95.0443 27.7211 95.0321 27.8877C95.0424 28.0821 95.0085 28.2617 94.9304 28.4266C94.8644 28.5723 94.768 28.692 94.6413 28.7857C94.5337 28.8915 94.3861 28.9652 94.1987 29.0068ZM110.505 31.5594C109.552 31.7708 108.727 31.8556 108.03 31.8137C107.335 31.7874 106.805 31.651 106.439 31.4045C106.073 31.1579 105.889 30.8463 105.888 30.4697C105.879 30.2094 105.935 29.9838 106.057 29.793C106.198 29.6143 106.416 29.492 106.713 29.4261C106.901 29.3846 107.081 29.3855 107.255 29.4289C107.428 29.4724 107.627 29.5184 107.851 29.5671C108.078 29.6314 108.38 29.6627 108.757 29.6611C109.149 29.6561 109.649 29.5859 110.259 29.4508C111.008 29.2844 111.597 28.9818 112.024 28.5429C112.451 28.104 112.747 27.5548 112.912 26.8954C113.093 26.2325 113.175 25.4932 113.158 24.6776C113.151 24.2038 113.115 23.7447 113.049 23.3004C112.999 22.8527 112.941 22.3737 112.877 21.8634C112.813 21.3532 112.748 20.7614 112.68 20.088C112.609 19.399 112.559 18.5825 112.53 17.6384L113.407 18.1567C113.146 19.3454 112.842 20.3388 112.495 21.137C112.144 21.9196 111.776 22.5503 111.391 23.0292C111.002 23.4924 110.612 23.8411 110.221 24.0752C109.843 24.2903 109.49 24.4342 109.162 24.507C108.256 24.708 107.474 24.6192 106.816 24.2407C106.174 23.8587 105.667 23.16 105.294 22.1446C104.937 21.1258 104.737 19.7443 104.694 18.0002C104.665 16.9086 104.693 16.0747 104.779 15.4986C104.879 14.9189 105.026 14.5094 105.219 14.27C105.412 14.0306 105.633 13.8831 105.883 13.8277C106.117 13.7757 106.318 13.7966 106.487 13.8904C106.652 13.9685 106.763 14.1404 106.822 14.4059C106.897 14.668 106.922 15.0394 106.897 15.5201C106.866 16.5596 106.875 17.5245 106.925 18.4148C106.972 19.2895 107.074 20.0453 107.232 20.6823C107.389 21.3193 107.602 21.7966 107.869 22.1142C108.133 22.4163 108.475 22.5205 108.897 22.427C109.553 22.2814 110.119 21.8035 110.595 20.9932C111.067 20.1673 111.448 19.1157 111.739 17.8386C112.041 16.5423 112.258 15.1176 112.388 13.5644C112.432 13.0958 112.508 12.7757 112.618 12.6039C112.724 12.4165 112.925 12.2899 113.222 12.224C113.378 12.1894 113.535 12.1955 113.693 12.2424C113.866 12.2859 114.013 12.3926 114.133 12.5628C114.265 12.7138 114.357 12.9472 114.411 13.2631C114.477 13.5599 114.49 13.9504 114.45 14.4345C114.392 15.2832 114.37 16.0337 114.384 16.6863C114.413 17.3353 114.468 17.954 114.55 18.5424C114.628 19.1151 114.717 19.7017 114.817 20.3022C114.93 20.8836 115.025 21.5344 115.103 22.2547C115.177 22.9593 115.229 23.7836 115.258 24.7277C115.287 25.8193 115.185 26.7599 114.95 27.5495C114.719 28.3546 114.393 29.0253 113.971 29.5614C113.549 30.0975 113.037 30.5225 112.434 30.8364C111.851 31.1625 111.208 31.4035 110.505 31.5594ZM124.081 22.2541C123.331 22.4204 122.652 22.4645 122.045 22.3862C121.438 22.3079 120.949 22.1376 120.58 21.8755C120.21 21.6133 120.017 21.2956 119.999 20.9225C120.005 20.7247 120.054 20.5416 120.148 20.3733C120.242 20.205 120.39 20.0983 120.593 20.0532C120.749 20.0186 120.899 20.0264 121.041 20.0768C121.183 20.1272 121.352 20.188 121.548 20.2592C121.745 20.3304 122.017 20.3765 122.366 20.3975C122.711 20.4028 123.165 20.3431 123.727 20.2183C124.602 20.0242 125.313 19.6453 125.86 19.0814C126.419 18.4985 126.676 17.663 126.631 16.5749C126.624 15.8061 126.485 15.1405 126.213 14.5781C125.953 13.9966 125.594 13.5271 125.138 13.1694C124.678 12.7961 124.141 12.5547 123.527 12.4452C122.913 12.3356 122.246 12.3606 121.528 12.52C121.168 12.5997 120.81 12.7202 120.452 12.8815C120.095 13.0427 119.776 13.1546 119.494 13.217C119.323 13.2551 119.158 13.2507 119 13.2038C118.838 13.1412 118.717 13.0371 118.635 12.8913C118.554 12.7455 118.511 12.591 118.508 12.4279C118.508 11.9853 118.718 11.6027 119.138 11.2801C119.571 10.9383 120.279 10.6583 121.263 10.44C122.309 10.2078 123.279 10.1812 124.171 10.3603C125.078 10.5359 125.87 10.8928 126.547 11.431C127.22 11.9536 127.751 12.6471 128.139 13.5114C128.54 14.3567 128.752 15.3504 128.776 16.4923C128.795 17.242 128.687 17.9379 128.453 18.5799C128.234 19.2185 127.918 19.7885 127.505 20.2899C127.088 20.7757 126.59 21.1894 126.01 21.5311C125.427 21.8571 124.784 22.0981 124.081 22.2541ZM119.905 29.4739C119.718 29.5155 119.544 29.505 119.382 29.4424C119.24 29.3921 119.126 29.2862 119.041 29.1247C118.956 28.9633 118.911 28.7603 118.906 28.5156C118.901 28.2709 118.938 28.0331 119.018 27.8023C119.086 27.5906 119.159 27.3286 119.237 27.0162C119.319 26.7195 119.391 26.3429 119.454 25.8865C119.516 25.4301 119.542 24.8427 119.53 24.1242C119.511 22.932 119.383 21.764 119.146 20.6202C118.908 19.4765 118.66 18.3189 118.4 17.1474C118.152 15.9568 118.006 14.7436 117.961 13.508C117.952 13.1002 118.021 12.7817 118.167 12.5527C118.325 12.3046 118.545 12.1493 118.826 12.087C119.076 12.0315 119.298 12.0724 119.492 12.2095C119.699 12.3276 119.864 12.5203 119.989 12.7876C120.111 13.0393 120.169 13.3378 120.163 13.6831C120.184 14.6619 120.264 15.5783 120.404 16.4322C120.557 17.267 120.721 18.0827 120.898 18.8793C121.091 19.6725 121.259 20.4708 121.405 21.2744C121.55 22.078 121.631 22.9205 121.646 23.8022C121.675 24.5987 121.658 25.332 121.593 26.0018C121.529 26.6717 121.42 27.253 121.267 27.7458C121.13 28.2352 120.947 28.6282 120.718 28.9249C120.504 29.2181 120.233 29.4011 119.905 29.4739ZM136.999 19.4864C135.843 19.7428 134.84 19.7277 133.989 19.4411C133.151 19.1354 132.494 18.6093 132.017 17.8629C131.552 17.0974 131.309 16.1515 131.289 15.0252C131.272 14.062 131.419 13.1362 131.73 12.2478C132.053 11.3402 132.51 10.5178 133.1 9.78043C133.702 9.02399 134.397 8.38645 135.183 7.86782C135.969 7.34918 136.816 6.98937 137.722 6.78836C138.128 6.69826 138.501 6.68103 138.841 6.73668C139.178 6.77671 139.442 6.89828 139.635 7.10139C139.839 7.28542 139.939 7.55011 139.934 7.89546C139.937 8.20611 139.872 8.4664 139.738 8.67634C139.601 8.87067 139.415 8.99382 139.181 9.0458C139.009 9.08393 138.87 9.08214 138.762 9.04046C138.654 8.99877 138.539 8.95881 138.416 8.92059C138.308 8.8789 138.137 8.88405 137.903 8.93604C137.013 9.13357 136.227 9.54548 135.547 10.1717C134.863 10.7824 134.327 11.5076 133.94 12.3474C133.565 13.1682 133.381 14.0037 133.39 14.8541C133.426 15.5344 133.568 16.1011 133.816 16.5541C134.076 16.9881 134.439 17.2928 134.904 17.4682C135.385 17.6402 135.929 17.6586 136.539 17.5234C137.226 17.3709 137.755 17.1715 138.127 16.9252C138.495 16.6633 138.773 16.4048 138.963 16.1498C139.168 15.8913 139.331 15.6666 139.452 15.4757C139.57 15.2692 139.731 15.1435 139.934 15.0984C140.231 15.0326 140.449 15.0578 140.59 15.1741C140.746 15.287 140.831 15.5222 140.845 15.8797C140.85 16.4194 140.687 16.9391 140.355 17.4388C140.02 17.9229 139.556 18.3453 138.964 18.7061C138.388 19.0634 137.733 19.3235 136.999 19.4864ZM15.5975 68.9561C14.4416 69.2126 13.4385 69.1975 12.5882 68.9108C11.7501 68.6051 11.0925 68.0791 10.6156 67.3327C10.1507 66.5672 9.90807 65.6213 9.88763 64.495C9.8706 63.5318 10.0176 62.606 10.3285 61.7175C10.6516 60.81 11.1083 59.9876 11.6986 59.2502C12.3011 58.4937 12.9955 57.8562 13.7818 57.3376C14.5681 56.8189 15.4143 56.4591 16.3202 56.2581C16.7264 56.168 17.0995 56.1508 17.4396 56.2064C17.7763 56.2465 18.0409 56.368 18.2335 56.5712C18.4382 56.7552 18.5379 57.0199 18.5326 57.3652C18.5359 57.6759 18.4708 57.9362 18.3371 58.1461C18.1999 58.3404 18.0142 58.4636 17.7799 58.5156C17.608 58.5537 17.4683 58.5519 17.3608 58.5102C17.2532 58.4685 17.1378 58.4286 17.0146 58.3903C16.907 58.3487 16.736 58.3538 16.5017 58.4058C15.6114 58.6033 14.826 59.0152 14.1455 59.6415C13.4615 60.2521 12.9259 60.9774 12.5386 61.8172C12.1634 62.6379 11.9801 63.4735 11.9884 64.3239C12.0247 65.0042 12.1668 65.5708 12.4148 66.0239C12.675 66.4578 13.0376 66.7625 13.5026 66.938C13.9833 67.1099 14.5282 67.1283 15.1374 66.9932C15.8247 66.8407 16.354 66.6413 16.7255 66.395C17.0935 66.1331 17.3721 65.8746 17.5614 65.6195C17.7663 65.361 17.9295 65.1363 18.051 64.9455C18.1691 64.739 18.3297 64.6132 18.5327 64.5682C18.8295 64.5023 19.0482 64.5276 19.1887 64.6439C19.3448 64.7567 19.4298 64.9919 19.4436 65.3494C19.4486 65.8892 19.2853 66.4089 18.9536 66.9086C18.6185 67.3926 18.155 67.8151 17.5631 68.1758C16.9868 68.5331 16.3316 68.7932 15.5975 68.9561ZM27.8017 66.3222C26.5209 66.6063 25.4041 66.5591 24.4515 66.1804C23.5145 65.7983 22.7841 65.1655 22.2603 64.282C21.7486 63.3794 21.4731 62.2851 21.4336 60.9991C21.4113 60.0863 21.5383 59.255 21.8145 58.5054C22.1028 57.7367 22.4623 57.067 22.8929 56.4961C23.3391 55.9219 23.8113 55.4647 24.3095 55.1248C24.8042 54.7692 25.2468 54.548 25.6373 54.4614C25.8091 54.4233 25.9549 54.4155 26.0747 54.4381C26.21 54.4573 26.3211 54.5146 26.4078 54.61C26.5067 54.6864 26.5596 54.814 26.5665 54.9928C26.5577 55.3225 26.4968 55.6392 26.3839 55.9429C26.2676 56.2309 25.9976 56.5284 25.574 56.8355C25.0706 57.2258 24.6601 57.6283 24.3423 58.0429C24.0368 58.4385 23.8136 58.8731 23.6729 59.3469C23.5287 59.805 23.4738 60.3334 23.5083 60.9321C23.5391 62.2528 23.9128 63.2352 24.6293 63.8793C25.3424 64.5078 26.2612 64.6973 27.3859 64.4477C28.4793 64.2051 29.3455 63.6032 29.9844 62.642C30.6356 61.6617 30.9405 60.4878 30.8993 59.1203C30.8824 57.862 30.5964 56.9422 30.0412 56.3606C29.4826 55.7634 28.7347 55.5688 27.7975 55.7767C27.3133 55.8842 26.9201 56.0697 26.6181 56.3334C26.3316 56.5936 26.0278 56.9233 25.7066 57.3223C25.4775 57.619 25.2978 57.8801 25.1675 58.1057C25.0373 58.3312 24.914 58.5143 24.7977 58.6548C24.6935 58.7763 24.5399 58.8595 24.3368 58.9046C24.1182 58.9531 23.9307 58.9209 23.7746 58.8081C23.6306 58.6761 23.5534 58.4392 23.5431 58.0973C23.5259 57.7242 23.6241 57.3173 23.8377 56.8765C24.0669 56.4323 24.3656 56.0055 24.7336 55.5961C25.1138 55.1675 25.5409 54.8024 26.0148 54.5006C26.4852 54.1831 26.9703 53.969 27.4702 53.8581C28.5948 53.6086 29.5675 53.6714 30.3882 54.0465C31.2055 54.406 31.8413 55.0188 32.2957 55.885C32.7467 56.7355 32.9789 57.7821 32.9923 59.0246C33.0336 60.2447 32.8405 61.3692 32.4133 62.3982C31.9825 63.4115 31.3679 64.2608 30.5694 64.946C29.7864 65.6278 28.8639 66.0865 27.8017 66.3222ZM49.3013 61.4784C48.1454 61.7348 47.1424 61.7197 46.2921 61.4331C45.454 61.1274 44.7964 60.6013 44.3194 59.8549C43.8546 59.0894 43.612 58.1435 43.5915 57.0172C43.5745 56.054 43.7214 55.1282 44.0324 54.2398C44.3555 53.3323 44.8122 52.5098 45.4025 51.7725C46.0049 51.016 46.6993 50.3785 47.4857 49.8598C48.272 49.3412 49.1182 48.9814 50.0241 48.7804C50.4302 48.6903 50.8034 48.673 51.1435 48.7287C51.4802 48.7687 51.7448 48.8903 51.9373 49.0934C52.1421 49.2774 52.2418 49.5421 52.2364 49.8875C52.2398 50.1981 52.1746 50.4584 52.0409 50.6684C51.9038 50.8627 51.718 50.9858 51.4837 51.0378C51.3119 51.0759 51.1722 51.0742 51.0646 51.0325C50.957 50.9908 50.8416 50.9508 50.7184 50.9126C50.6109 50.8709 50.4399 50.8761 50.2056 50.9281C49.3153 51.1256 48.5298 51.5375 47.8493 52.1638C47.1654 52.7744 46.6297 53.4996 46.2424 54.3395C45.8673 55.1602 45.6839 55.9958 45.6923 56.8461C45.7285 57.5264 45.8706 58.0931 46.1187 58.5461C46.3788 58.9801 46.7414 59.2848 47.2065 59.4602C47.6871 59.6322 48.2321 59.6506 48.8412 59.5154C49.5285 59.363 50.0579 59.1636 50.4294 58.9172C50.7974 58.6553 51.076 58.3968 51.2653 58.1418C51.4701 57.8833 51.6333 57.6586 51.7549 57.4677C51.873 57.2613 52.0335 57.1355 52.2366 57.0904C52.5334 57.0246 52.752 57.0498 52.8926 57.1662C53.0487 57.279 53.1337 57.5142 53.1474 57.8717C53.1525 58.4114 52.9892 58.9311 52.6575 59.4308C52.3224 59.9149 51.8589 60.3373 51.267 60.6981C50.6907 61.0554 50.0355 61.3155 49.3013 61.4784ZM65.1964 58.001C64.7277 58.105 64.1811 58.0787 63.5564 57.9223C62.9282 57.7503 62.2871 57.4828 61.6329 57.1199C60.9944 56.7535 60.388 56.3472 59.8137 55.901C59.2551 55.4513 58.7953 55.0043 58.4345 54.5599C58.2228 54.3446 58.0711 54.1407 57.9791 53.948C57.8994 53.7363 57.8448 53.5271 57.8154 53.3206C57.8345 53.1852 57.8658 53.0308 57.9092 52.8573C57.9527 52.6837 58.023 52.5206 58.1203 52.3679C58.2522 52.0764 58.498 51.6695 58.8574 51.1473C59.2168 50.6251 59.6396 50.056 60.1257 49.4401C60.624 48.8051 61.1465 48.2056 61.6934 47.6418C62.2524 47.0589 62.7897 46.5627 63.3053 46.1533C63.8365 45.7405 64.3129 45.4873 64.7347 45.3937C64.9065 45.3556 65.0479 45.3652 65.159 45.4225C65.2856 45.4763 65.3863 45.5605 65.4609 45.6751C65.5354 45.7897 65.5788 45.9111 65.5909 46.0396C65.6515 46.3867 65.4978 46.765 65.1297 47.1744C64.7617 47.5838 64.3572 47.9768 63.9163 48.3532C63.1368 49.0506 62.4572 49.7177 61.8773 50.3544C61.2975 50.9911 60.8382 51.5437 60.4997 52.0121C60.1767 52.4771 60.0248 52.7894 60.0438 52.9491C60.0403 53.081 60.1287 53.258 60.3091 53.4802C60.4896 53.7024 60.7489 53.9481 61.0872 54.2172C61.4412 54.4828 61.8515 54.7442 62.3183 55.0012C62.8006 55.2547 63.3264 55.4822 63.8956 55.6837C64.2339 55.8053 64.5628 55.9208 64.882 56.0303C65.2135 56.1206 65.4842 56.2327 65.6941 56.3664C65.9162 56.481 66.042 56.6416 66.0714 56.8481C66.0939 57.0234 66.0739 57.1917 66.0114 57.3531C65.9488 57.5145 65.8403 57.6532 65.6858 57.7695C65.547 57.8822 65.3838 57.9594 65.1964 58.001ZM57.3889 59.7086C56.9828 59.7987 56.6643 59.6563 56.4337 59.2814C56.1995 58.8908 56.027 58.2981 55.9162 57.5032C55.8176 56.6893 55.7528 55.6957 55.722 54.5225C55.7118 54.0331 55.7119 53.5168 55.7225 52.9737C55.7488 52.427 55.775 51.8803 55.8012 51.3337C55.8239 50.7714 55.8267 50.23 55.8095 49.7093C55.8131 49.5774 55.8088 49.4473 55.7967 49.3188C55.7967 49.1713 55.789 49.0255 55.7734 48.8815C55.7666 48.5552 55.7953 48.2784 55.8596 48.0511C55.9239 47.8238 56.0142 47.6399 56.1305 47.4993C56.259 47.3397 56.4013 47.2426 56.5575 47.2079C56.9168 47.1282 57.2343 47.2299 57.5102 47.5128C57.7982 47.7767 57.9438 48.2115 57.9471 48.8172C57.9556 49.225 57.9381 49.7369 57.8945 50.353C57.863 50.95 57.8272 51.5643 57.7871 52.196C57.747 52.8277 57.7303 53.3804 57.7371 53.8542C57.7767 54.6977 57.8285 55.4482 57.8925 56.106C57.9721 56.7603 58.0509 57.3 58.1288 57.7253C58.2033 58.1348 58.2345 58.4229 58.2223 58.5895C58.2326 58.7839 58.1987 58.9635 58.1206 59.1284C58.0546 59.2741 57.9582 59.3938 57.8315 59.4875C57.7239 59.5933 57.5763 59.667 57.3889 59.7086ZM71.1083 56.6893C70.5772 56.8072 70.1277 56.7758 69.7599 56.5952C69.4076 56.4111 69.1162 56.1316 68.8855 55.7566C68.6513 55.3661 68.4805 54.9287 68.3731 54.4445C68.2778 53.9412 68.2251 53.4448 68.2148 52.9554C68.2184 52.5285 68.236 52.0165 68.2674 51.4196C68.3145 50.8191 68.372 50.1918 68.4399 49.5375C68.5078 48.8833 68.5765 48.2698 68.6461 47.6972C68.7314 47.121 68.8035 46.6707 68.8627 46.3462C68.9444 45.7544 69.0305 45.2928 69.1208 44.9614C69.2268 44.6265 69.397 44.433 69.6313 44.3811C69.8343 44.336 70.0374 44.3647 70.2404 44.4672C70.4434 44.5696 70.6082 44.7215 70.7348 44.9229C70.8771 45.1208 70.9542 45.3577 70.9663 45.6336C70.9748 45.894 70.9452 46.2775 70.8774 46.7842C70.8095 47.2909 70.7304 47.8575 70.6399 48.484C70.5494 49.1105 70.4685 49.743 70.3972 50.3816C70.3223 51.0046 70.29 51.5608 70.3003 52.0502C70.3001 52.4928 70.3277 52.9127 70.3831 53.3102C70.4351 53.692 70.52 54.0009 70.6379 54.237C70.7524 54.4574 70.9112 54.5451 71.1142 54.5001C71.6141 54.3892 72.1479 53.8036 72.7158 52.7435C73.2992 51.6798 73.8941 50.2613 74.5004 48.4879C74.7853 47.7036 75.0259 46.9783 75.2222 46.3119C75.4185 45.6456 75.5931 45.066 75.746 44.5732C75.8955 44.0647 76.0596 43.6596 76.2384 43.3577C76.4173 43.0558 76.6239 42.8788 76.8582 42.8268C77.2174 42.7471 77.5064 42.8305 77.7249 43.077C77.9557 43.3044 78.1135 43.6464 78.1984 44.1028C78.2885 44.509 78.3838 45.0123 78.4842 45.6128C78.6003 46.2098 78.7198 46.8224 78.8428 47.4507C78.9624 48.0634 79.0889 48.6335 79.2223 49.1611C79.4702 50.0567 79.7207 50.7796 79.9739 51.3298C80.2392 51.861 80.4647 52.2862 80.6503 52.6056C80.8359 52.925 80.9451 53.1958 80.978 53.4179C81.0005 53.5932 80.9822 53.7693 80.9231 53.9463C80.8606 54.1077 80.7695 54.2508 80.6497 54.3758C80.5299 54.5007 80.3841 54.5822 80.2123 54.6203C79.6655 54.7416 79.1953 54.469 78.8016 53.8024C78.4079 53.1359 78.0151 52.2151 77.6233 51.0401C77.4673 50.4847 77.3027 49.8902 77.1293 49.2567C76.9716 48.6198 76.8295 47.9793 76.7031 47.3355C76.5922 46.6881 76.4918 46.0876 76.4017 45.534L77.1332 45.6175C76.9889 46.2231 76.8099 46.8938 76.5962 47.6296C76.3825 48.3653 76.0759 49.3102 75.6763 50.4641C75.3324 51.4254 74.9329 52.3581 74.4779 53.2621C74.0195 54.1505 73.5081 54.9113 72.9439 55.5446C72.3918 56.1587 71.7799 56.5403 71.1083 56.6893ZM83.9197 52.4456C84.0188 51.932 84.1605 51.3515 84.3446 50.7043C84.5254 50.0414 84.7243 49.3499 84.9415 48.6297C85.1743 47.9061 85.4105 47.1982 85.6503 46.5058C85.9021 45.7944 86.1445 45.1506 86.3772 44.5745C86.6881 43.8336 87.0077 43.1317 87.3359 42.4689C87.6641 41.806 87.9932 41.2578 88.323 40.824C88.6651 40.3712 88.9845 40.1118 89.2813 40.046C89.5937 39.9767 89.8965 40.0488 90.1897 40.2624C90.4985 40.4724 90.8143 40.8613 91.1369 41.4289C91.3589 41.8385 91.6146 42.3636 91.9043 43.0041C92.1939 43.6445 92.4895 44.3492 92.7912 45.1181C93.0895 45.8714 93.366 46.6377 93.6208 47.417C93.8757 48.1963 94.0854 48.9201 94.2501 49.5883L92.2298 50.2332C92.0478 49.4869 91.8129 48.6867 91.5252 47.8328C91.2495 46.9598 90.9496 46.1249 90.6253 45.3283C90.3011 44.5316 89.9932 43.846 89.7019 43.2714C89.4071 42.6813 89.1495 42.2959 88.9291 42.1154L89.8013 41.7252C89.4193 42.3672 89.0268 43.1098 88.6239 43.9531C88.2367 44.7929 87.8927 45.6805 87.5922 46.6158C87.3681 47.3047 87.1605 47.9571 86.9694 48.5732C86.7783 49.1892 86.6071 49.7844 86.4559 50.3588C86.3169 50.9141 86.1813 51.485 86.0493 52.0715L83.9197 52.4456ZM95.0579 54.6699C94.7455 54.7392 94.4792 54.6836 94.2588 54.5031C94.0385 54.3225 93.9301 54.0925 93.9337 53.8131C93.9233 53.6187 93.9625 53.315 94.0511 52.902C94.1432 52.5046 94.231 52.0509 94.3145 51.5407C94.398 51.0305 94.4311 50.5151 94.4139 49.9944L95.5225 51.0022C95.2969 51.0195 94.9464 51.0645 94.4708 51.1372C94.0109 51.2065 93.4295 51.3191 92.7266 51.475C92.0705 51.6206 91.3928 51.7792 90.6933 51.9507C90.0061 52.1032 89.3205 52.2635 88.6367 52.4316C87.9685 52.5963 87.3194 52.7731 86.6893 52.962C86.0558 53.1353 85.4475 53.3113 84.8643 53.4898C84.2846 53.684 83.7613 53.8739 83.2944 54.0594L84.0263 53.0366C84.0401 53.2466 84.0643 53.5034 84.0989 53.8072C84.1335 54.1109 84.1759 54.4129 84.2261 54.7131C84.2798 55.029 84.3249 55.3058 84.3612 55.5436C84.4132 55.7779 84.4496 55.9419 84.4704 56.0356C84.5137 56.3046 84.465 56.5285 84.3244 56.7072C84.1872 56.9015 83.9859 57.0281 83.7203 57.087C83.3454 57.1702 83.0548 57.079 82.8484 56.8134C82.6419 56.5478 82.4937 56.2119 82.4036 55.8058C82.3325 55.5594 82.2693 55.2374 82.2139 54.84C82.1585 54.4425 82.1299 54.1293 82.1283 53.9002C82.1353 53.6364 82.1805 53.3969 82.2639 53.1818C82.3282 52.9545 82.4541 52.7462 82.6415 52.5571C82.829 52.368 83.0877 52.2041 83.4175 52.0654C83.7941 51.9163 84.3052 51.7455 84.9509 51.5531C85.6087 51.3416 86.3481 51.1284 87.169 50.9135C88.0021 50.6795 88.8621 50.4559 89.749 50.2427C90.6324 50.014 91.4802 49.8095 92.2925 49.6293C92.558 49.5703 92.8392 49.508 93.136 49.4421C93.4484 49.3728 93.7703 49.3096 94.1018 49.2524C94.4333 49.1953 94.7526 49.1572 95.0598 49.1382C95.5232 49.0846 95.859 49.1576 96.0672 49.3572C96.291 49.5534 96.4115 49.9118 96.4286 50.4324C96.4372 50.8403 96.4119 51.2802 96.3527 51.7522C96.2935 52.2242 96.1962 52.6719 96.0607 53.0954C95.9443 53.5309 95.7949 53.8918 95.6126 54.1781C95.4459 54.4609 95.261 54.6249 95.0579 54.6699ZM107.595 48.5942C107.126 48.6981 106.58 48.6719 105.955 48.5155C105.327 48.3435 104.686 48.076 104.032 47.7131C103.393 47.3467 102.787 46.9404 102.212 46.4942C101.654 46.0445 101.194 45.5975 100.833 45.1531C100.622 44.9378 100.47 44.7339 100.378 44.5412C100.298 44.3294 100.243 44.1203 100.214 43.9138C100.233 43.7784 100.264 43.624 100.308 43.4504C100.351 43.2769 100.422 43.1138 100.519 42.9611C100.651 42.6696 100.897 42.2627 101.256 41.7405C101.615 41.2182 102.038 40.6492 102.524 40.0332C103.023 39.3982 103.545 38.7988 104.092 38.235C104.651 37.6521 105.188 37.1559 105.704 36.7465C106.235 36.3337 106.712 36.0804 107.133 35.9869C107.305 35.9488 107.447 35.9583 107.558 36.0157C107.684 36.0695 107.785 36.1537 107.86 36.2683C107.934 36.3828 107.977 36.5043 107.99 36.6328C108.05 36.9799 107.896 37.3581 107.528 37.7676C107.16 38.177 106.756 38.57 106.315 38.9464C105.536 39.6438 104.856 40.3108 104.276 40.9475C103.696 41.5843 103.237 42.1368 102.898 42.6053C102.575 43.0703 102.423 43.3826 102.442 43.5423C102.439 43.6742 102.527 43.8512 102.708 44.0734C102.888 44.2956 103.148 44.5413 103.486 44.8104C103.84 45.076 104.25 45.3373 104.717 45.5943C105.199 45.8479 105.725 46.0754 106.294 46.2769C106.633 46.3985 106.961 46.514 107.281 46.6235C107.612 46.7138 107.883 46.8258 108.093 46.9595C108.315 47.0742 108.441 47.2347 108.47 47.4413C108.493 47.6165 108.473 47.7849 108.41 47.9463C108.348 48.1076 108.239 48.2464 108.085 48.3626C107.946 48.4754 107.782 48.5526 107.595 48.5942ZM99.7876 50.3018C99.3815 50.3919 99.063 50.2495 98.8324 49.8745C98.5982 49.484 98.4257 48.8913 98.3149 48.0964C98.2163 47.2825 98.1515 46.2889 98.1207 45.1157C98.1105 44.6263 98.1106 44.11 98.1212 43.5668C98.1475 43.0202 98.1737 42.4735 98.1999 41.9269C98.2226 41.3646 98.2254 40.8231 98.2082 40.3025C98.2118 40.1706 98.2075 40.0404 98.1954 39.912C98.1954 39.7645 98.1877 39.6187 98.1721 39.4747C98.1653 39.1484 98.194 38.8716 98.2583 38.6443C98.3226 38.417 98.4129 38.233 98.5292 38.0925C98.6577 37.9329 98.8 37.8358 98.9562 37.8011C99.3155 37.7214 99.633 37.823 99.9089 38.106C100.197 38.3699 100.342 38.8047 100.346 39.4103C100.354 39.8182 100.337 40.3301 100.293 40.9462C100.262 41.5432 100.226 42.1575 100.186 42.7892C100.146 43.4209 100.129 43.9736 100.136 44.4474C100.175 45.2908 100.227 46.0414 100.291 46.6992C100.371 47.3535 100.45 47.8932 100.528 48.3184C100.602 48.728 100.633 49.0161 100.621 49.1827C100.631 49.3771 100.597 49.5567 100.519 49.7215C100.453 49.8673 100.357 49.987 100.23 50.0807C100.123 50.1865 99.975 50.2602 99.7876 50.3018ZM116.535 46.6354C115.254 46.9195 114.137 46.8723 113.184 46.4936C112.247 46.1115 111.517 45.4787 110.993 44.5952C110.482 43.6926 110.206 42.5983 110.167 41.3123C110.144 40.3995 110.271 39.5682 110.547 38.8186C110.836 38.0499 111.195 37.3801 111.626 36.8093C112.072 36.2351 112.544 35.7779 113.042 35.4379C113.537 35.0824 113.98 34.8612 114.37 34.7746C114.542 34.7365 114.688 34.7287 114.808 34.7513C114.943 34.7704 115.054 34.8278 115.141 34.9232C115.24 34.9996 115.293 35.1272 115.299 35.306C115.291 35.6357 115.23 35.9524 115.117 36.256C115.001 36.5441 114.731 36.8416 114.307 37.1487C113.804 37.539 113.393 37.9414 113.075 38.3561C112.77 38.7517 112.547 39.1863 112.406 39.6601C112.262 40.1182 112.207 40.6466 112.241 41.2453C112.272 42.566 112.646 43.5484 113.362 44.1925C114.075 44.821 114.994 45.0105 116.119 44.7609C117.212 44.5183 118.078 43.9164 118.717 42.9552C119.369 41.9749 119.673 40.801 119.632 39.4334C119.615 38.1752 119.329 37.2554 118.774 36.6738C118.216 36.0766 117.468 35.882 116.53 36.0899C116.046 36.1974 115.653 36.3829 115.351 36.6466C115.065 36.9068 114.761 37.2365 114.44 37.6355C114.21 37.9322 114.031 38.1933 113.9 38.4189C113.77 38.6444 113.647 38.8275 113.531 38.968C113.426 39.0895 113.273 39.1727 113.07 39.2178C112.851 39.2663 112.664 39.2341 112.508 39.1212C112.364 38.9893 112.286 38.7524 112.276 38.4105C112.259 38.0374 112.357 37.6304 112.571 37.1897C112.8 36.7455 113.099 36.3187 113.467 35.9093C113.847 35.4807 114.274 35.1156 114.748 34.8138C115.218 34.4963 115.703 34.2822 116.203 34.1713C117.328 33.9218 118.3 33.9846 119.121 34.3597C119.938 34.7192 120.574 35.332 121.029 36.1982C121.48 37.0487 121.712 38.0953 121.725 39.3378C121.767 40.5579 121.573 41.6824 121.146 42.7113C120.715 43.7247 120.101 44.574 119.302 45.2592C118.519 45.941 117.597 46.3997 116.535 46.6354ZM130.195 28.8054C129.538 28.9509 128.953 28.9334 128.437 28.7527C127.919 28.5564 127.503 28.2717 127.191 27.8985C126.875 27.5096 126.682 27.1182 126.611 26.7242C126.548 26.2956 126.593 25.9415 126.744 25.6622C126.895 25.3828 127.119 25.2102 127.416 25.1444C127.65 25.0924 127.851 25.187 128.019 25.4283C128.2 25.6505 128.395 25.9022 128.605 26.1834C128.796 26.4525 129.017 26.6739 129.268 26.8475C129.536 27.0176 129.888 27.0542 130.325 26.9572C130.528 26.9121 130.723 26.828 130.908 26.7049C131.106 26.5626 131.285 26.4082 131.445 26.2417C131.617 26.056 131.767 25.8834 131.895 25.7238C132.177 25.3664 132.429 25.0645 132.653 24.8182C132.874 24.5562 133.117 24.3957 133.382 24.3368C133.57 24.2952 133.726 24.3343 133.851 24.4541C133.988 24.5548 134.048 24.7136 134.03 24.9306C134.015 25.2291 133.912 25.5796 133.723 25.9821C133.546 26.3656 133.287 26.7508 132.947 27.1377C132.606 27.5246 132.199 27.8689 131.725 28.1707C131.267 28.4691 130.757 28.6806 130.195 28.8054ZM127.602 44.1554C127.071 44.2732 126.621 44.2418 126.253 44.0612C125.901 43.8771 125.61 43.5976 125.379 43.2227C125.145 42.8321 124.974 42.3947 124.867 41.9105C124.771 41.4072 124.719 40.9108 124.708 40.4214C124.712 39.9945 124.729 39.4826 124.761 38.8856C124.808 38.2851 124.865 37.6578 124.933 37.0036C125.001 36.3493 125.07 35.7359 125.14 35.1632C125.225 34.5871 125.297 34.1367 125.356 33.8122C125.438 33.2205 125.524 32.7589 125.614 32.4274C125.72 32.0925 125.89 31.8991 126.125 31.8471C126.328 31.802 126.531 31.8307 126.734 31.9332C126.937 32.0357 127.102 32.1876 127.228 32.3889C127.371 32.5868 127.448 32.8237 127.46 33.0997C127.468 33.36 127.439 33.7435 127.371 34.2502C127.303 34.757 127.224 35.3236 127.133 35.95C127.043 36.5765 126.962 37.209 126.891 37.8477C126.816 38.4707 126.783 39.0268 126.794 39.5162C126.794 39.9588 126.821 40.3788 126.877 40.7762C126.929 41.158 127.013 41.467 127.131 41.703C127.246 41.9235 127.405 42.0112 127.608 41.9661C128.108 41.8552 128.641 41.2697 129.209 40.2095C129.793 39.1459 130.388 37.7274 130.994 35.9539C131.279 35.1696 131.519 34.4443 131.716 33.7779C131.912 33.1116 132.087 32.532 132.239 32.0392C132.389 31.5308 132.553 31.1256 132.732 30.8237C132.911 30.5218 133.117 30.3448 133.352 30.2929C133.711 30.2131 134 30.2965 134.218 30.5431C134.449 30.7705 134.607 31.1124 134.692 31.5689C134.782 31.975 134.877 32.4783 134.978 33.0788C135.094 33.6758 135.213 34.2885 135.336 34.9168C135.456 35.5294 135.582 36.0995 135.716 36.6272C135.964 37.5227 136.214 38.2456 136.467 38.7959C136.733 39.327 136.958 39.7522 137.144 40.0716C137.329 40.391 137.439 40.6618 137.471 40.8839C137.494 41.0592 137.476 41.2354 137.417 41.4124C137.354 41.5737 137.263 41.7169 137.143 41.8418C137.023 41.9667 136.878 42.0482 136.706 42.0863C136.159 42.2076 135.689 41.935 135.295 41.2685C134.901 40.6019 134.509 39.6811 134.117 38.5061C133.961 37.9507 133.796 37.3563 133.623 36.7228C133.465 36.0858 133.323 35.4454 133.197 34.8015C133.086 34.1541 132.985 33.5536 132.895 33L133.627 33.0835C133.482 33.6892 133.303 34.3599 133.09 35.0956C132.876 35.8314 132.569 36.7762 132.17 37.9301C131.826 38.8915 131.426 39.8241 130.971 40.7281C130.513 41.6165 130.002 42.3773 129.437 43.0106C128.885 43.6248 128.273 44.0063 127.602 44.1554ZM15.6484 90.1277C15.7475 89.614 15.8891 89.0336 16.0733 88.3863C16.254 87.7234 16.453 87.0319 16.6701 86.3118C16.9029 85.5882 17.1392 84.8802 17.3789 84.1878C17.6308 83.4764 17.8731 82.8326 18.1059 82.2565C18.4168 81.5156 18.7363 80.8137 19.0645 80.1509C19.3928 79.4881 19.7218 78.9398 20.0517 78.506C20.3937 78.0532 20.7132 77.7939 21.0099 77.728C21.3223 77.6587 21.6251 77.7308 21.9184 77.9444C22.2272 78.1545 22.5429 78.5433 22.8655 79.1109C23.0875 79.5206 23.3433 80.0456 23.6329 80.6861C23.9225 81.3266 24.2182 82.0313 24.5199 82.8002C24.8181 83.5535 25.0947 84.3198 25.3495 85.0991C25.6044 85.8784 25.8141 86.6021 25.9787 87.2703L23.9585 87.9152C23.7765 87.1689 23.5416 86.3688 23.2538 85.5149C22.9782 84.6418 22.6782 83.807 22.354 83.0103C22.0297 82.2136 21.7219 81.528 21.4306 80.9535C21.1357 80.3633 20.8781 79.978 20.6578 79.7974L21.53 79.4072C21.148 80.0492 20.7555 80.7919 20.3526 81.6352C19.9653 82.475 19.6214 83.3625 19.3209 84.2978C19.0967 84.9867 18.8891 85.6392 18.698 86.2552C18.5069 86.8712 18.3358 87.4664 18.1846 88.0408C18.0456 88.5961 17.91 89.167 17.7779 89.7535L15.6484 90.1277ZM26.7866 92.352C26.4742 92.4213 26.2078 92.3657 25.9875 92.1851C25.7671 92.0045 25.6588 91.7745 25.6623 91.4951C25.652 91.3008 25.6911 90.9971 25.7798 90.5841C25.8719 90.1867 25.9597 89.7329 26.0432 89.2227C26.1266 88.7125 26.1598 88.1971 26.1426 87.6765L27.2512 88.6843C27.0256 88.7015 26.675 88.7465 26.1995 88.8193C25.7396 88.8885 25.1582 89.0011 24.4552 89.1571C23.7992 89.3026 23.1215 89.4612 22.422 89.6328C21.7347 89.7853 21.0492 89.9456 20.3653 90.1137C19.6971 90.2783 19.048 90.4551 18.418 90.644C17.7845 90.8174 17.1762 90.9933 16.593 91.1719C16.0133 91.366 15.49 91.5559 15.0231 91.7414L15.7549 90.7186C15.7687 90.9286 15.793 91.1855 15.8276 91.4892C15.8622 91.7929 15.9046 92.0949 15.9548 92.3951C16.0085 92.711 16.0535 92.9878 16.0899 93.2256C16.1419 93.4599 16.1783 93.6239 16.1991 93.7176C16.2424 93.9866 16.1937 94.2105 16.0531 94.3892C15.9159 94.5835 15.7145 94.7101 15.449 94.7691C15.0741 94.8522 14.7835 94.761 14.577 94.4954C14.3706 94.2298 14.2223 93.894 14.1322 93.4879C14.0612 93.2414 13.9979 92.9195 13.9425 92.522C13.8871 92.1246 13.8586 91.8113 13.8569 91.5822C13.864 91.3185 13.9092 91.079 13.9925 90.8638C14.0568 90.6365 14.1827 90.4283 14.3702 90.2392C14.5577 90.0501 14.8163 89.8862 15.1461 89.7474C15.5228 89.5983 16.0339 89.4276 16.6796 89.2351C17.3374 89.0236 18.0767 88.8104 18.8977 88.5955C19.7308 88.3615 20.5908 88.1379 21.4776 87.9248C22.3611 87.696 23.2089 87.4915 24.0211 87.3113C24.2867 87.2524 24.5679 87.19 24.8646 87.1242C25.177 87.0548 25.499 86.9916 25.8305 86.9345C26.162 86.8773 26.4813 86.8392 26.7885 86.8202C27.2519 86.7666 27.5876 86.8396 27.7958 87.0392C28.0196 87.2354 28.1401 87.5938 28.1573 88.1145C28.1658 88.5223 28.1405 88.9622 28.0814 89.4343C28.0222 89.9063 27.9249 90.354 27.7894 90.7774C27.6729 91.2129 27.5236 91.5739 27.3412 91.8602C27.1745 92.143 26.9897 92.3069 26.7866 92.352ZM35.3355 87.1856C34.0547 87.4698 32.9379 87.4226 31.9853 87.0439C31.0483 86.6618 30.3179 86.029 29.7941 85.1455C29.2824 84.2429 29.0069 83.1486 28.9674 81.8626C28.9451 80.9497 29.0721 80.1185 29.3483 79.3689C29.6366 78.6002 29.9961 77.9304 30.4267 77.3596C30.8729 76.7853 31.3451 76.3282 31.8433 75.9882C32.338 75.6326 32.7806 75.4115 33.1711 75.3249C33.3429 75.2868 33.4887 75.279 33.6085 75.3016C33.7438 75.3207 33.8549 75.378 33.9416 75.4735C34.0405 75.5499 34.0934 75.6775 34.1003 75.8562C34.0915 76.186 34.0306 76.5027 33.9177 76.8063C33.8013 77.0944 33.5314 77.3919 33.1078 77.6989C32.6044 78.0892 32.1939 78.4917 31.8761 78.9064C31.5706 79.302 31.3474 79.7366 31.2067 80.2103C31.0625 80.6685 31.0076 81.1969 31.0421 81.7956C31.0729 83.1163 31.4466 84.0987 32.1631 84.7428C32.8761 85.3713 33.795 85.5607 34.9197 85.3112C36.0131 85.0686 36.8793 84.4667 37.5182 83.5055C38.1694 82.5252 38.4743 81.3513 38.4331 79.9837C38.4162 78.7255 38.1302 77.8056 37.575 77.2241C37.0164 76.6269 36.2685 76.4323 35.3313 76.6402C34.8471 76.7476 34.4539 76.9332 34.1519 77.1969C33.8654 77.4571 33.5616 77.7867 33.2404 78.1858C33.0112 78.4825 32.8315 78.7436 32.7013 78.9691C32.5711 79.1947 32.4478 79.3778 32.3315 79.5183C32.2273 79.6397 32.0737 79.723 31.8706 79.768C31.6519 79.8166 31.4645 79.7844 31.3084 79.6715C31.1644 79.5396 31.0872 79.3027 31.0769 78.9608C31.0597 78.5877 31.1579 78.1807 31.3715 77.74C31.6007 77.2958 31.8994 76.869 32.2674 76.4595C32.6476 76.031 33.0747 75.6659 33.5486 75.3641C34.019 75.0466 34.5041 74.8325 35.0039 74.7216C36.1286 74.472 37.1013 74.5348 37.922 74.91C38.7393 75.2695 39.3751 75.8823 39.8295 76.7485C40.2805 77.599 40.5126 78.6455 40.5261 79.8881C40.5673 81.1082 40.3743 82.2327 39.9471 83.2616C39.5163 84.275 38.9017 85.1243 38.1032 85.8095C37.3202 86.4913 36.3977 86.95 35.3355 87.1856ZM54.479 83.135C53.7448 83.2979 53.1869 83.2578 52.8052 83.0147C52.4426 82.7838 52.2579 82.3577 52.2512 81.7364C52.2426 81.476 52.2878 81.2366 52.3868 81.0179C52.4858 80.7993 52.6247 80.6128 52.8035 80.4584C54.4301 78.9994 55.7946 77.6888 56.897 76.5264C57.9959 75.3484 58.8744 74.2849 59.5325 73.3358C60.1871 72.3711 60.6568 71.4966 60.9417 70.7123C61.2231 69.9124 61.357 69.1861 61.3433 68.5336C61.3314 67.6676 61.0939 67.0402 60.6307 66.6513C60.164 66.2467 59.4542 66.1502 58.5014 66.3616C57.7047 66.5383 57.0148 66.7897 56.4316 67.1158C55.864 67.4384 55.3658 67.7784 54.937 68.1357C54.5239 68.4896 54.1741 68.7967 53.8877 69.0569C53.6012 69.3171 53.3565 69.4698 53.1534 69.5148C52.8566 69.5807 52.6093 69.5372 52.4115 69.3844C52.2259 69.2125 52.1271 68.9886 52.115 68.7127C52.1203 68.5148 52.1603 68.3257 52.2349 68.1452C52.3096 67.9648 52.4607 67.7592 52.6881 67.5284C53.4502 66.7529 54.3243 66.0756 55.3102 65.4963C56.3083 64.8979 57.3306 64.4826 58.3771 64.2504C59.5799 63.9835 60.5422 63.9995 61.264 64.2982C61.998 64.5779 62.5341 65.0735 62.8723 65.7852C63.2261 66.4933 63.4115 67.329 63.4285 68.2922C63.4439 69.0263 63.3213 69.8402 63.0606 70.7339C62.8156 71.624 62.3606 72.6018 61.6956 73.6672C61.0305 74.7325 60.0965 75.9149 58.8934 77.2143C57.7024 78.4947 56.1817 79.9137 54.3312 81.4715L53.8941 80.831C54.1214 80.8953 54.3479 80.9188 54.5735 80.9015C54.8147 80.8808 55.0603 80.8427 55.3102 80.7872C55.8881 80.659 56.559 80.4692 57.3226 80.2178C58.0863 79.9665 58.9203 79.6995 59.8246 79.4169C60.7444 79.1309 61.7042 78.877 62.7039 78.6552C63.4693 78.4853 63.983 78.5107 64.245 78.7312C64.5191 78.9326 64.6578 79.1886 64.6612 79.4993C64.6733 79.7752 64.5795 80.0173 64.3798 80.2254C64.1923 80.4145 63.8799 80.5576 63.4425 80.6546C62.271 80.9146 61.2453 81.1667 60.3653 81.4111C59.4854 81.6555 58.7009 81.8869 58.0118 82.1054C57.3228 82.3238 56.6945 82.5206 56.1269 82.6956C55.5594 82.8707 55.0101 83.0172 54.479 83.135ZM73.55 78.6826C72.4566 78.9252 71.4275 78.8667 70.4627 78.5071C69.5136 78.1441 68.7363 77.4479 68.131 76.4186C67.5378 75.3702 67.2207 73.9409 67.1797 72.1308C67.1454 70.942 67.2915 69.8279 67.6182 68.7885C67.9413 67.7335 68.3486 66.7991 68.84 65.9853C69.3314 65.1716 69.8323 64.5114 70.3427 64.0048C70.8531 63.4982 71.2879 63.2051 71.6472 63.1254C71.9283 63.063 72.1375 63.0822 72.2745 63.1829C72.4081 63.268 72.4757 63.4988 72.4773 63.8754C72.4946 64.101 72.4538 64.3231 72.3548 64.5418C72.2523 64.7448 72.0874 64.9616 71.8599 65.1924C71.3652 65.6955 70.9181 66.3027 70.5187 67.0141C70.1193 67.7255 69.8014 68.509 69.5651 69.3645C69.341 70.2009 69.2383 71.0677 69.2571 71.9649C69.2723 72.9941 69.423 73.8948 69.7091 74.6672C70.0108 75.4361 70.448 76.0028 71.0205 76.3675C71.6087 76.7287 72.3402 76.8122 73.2149 76.6181C74.0896 76.4241 74.9037 75.9566 75.6572 75.2159C76.4106 74.4751 77.0053 73.4991 77.4413 72.2879C77.8773 71.0767 78.08 69.6633 78.0493 68.0476C78.0445 66.9178 77.8999 65.9337 77.6156 65.0954C77.3278 64.2415 76.9254 63.6096 76.4083 63.1999C75.8913 62.7902 75.2579 62.6685 74.5082 62.8348C73.899 62.97 73.3357 63.2015 72.8185 63.5293C72.2977 63.8415 71.8134 64.2439 71.3655 64.7367C70.9297 65.2103 70.5226 65.7759 70.144 66.4335C70.0468 66.5862 69.9166 66.738 69.7534 66.8889C69.6058 67.0364 69.3915 67.1413 69.1103 67.2037C68.8135 67.2695 68.5741 67.2243 68.3919 67.0681C68.2097 66.9118 68.1187 66.6862 68.1188 66.3912C68.1276 66.0614 68.277 65.6268 68.567 65.0871C68.8535 64.5319 69.2685 63.9645 69.8119 63.3851C70.3709 62.8022 71.0236 62.2722 71.77 61.7952C72.532 61.3148 73.3504 60.9775 74.2251 60.7834C75.4591 60.5096 76.5099 60.6289 77.3774 61.1411C78.2415 61.6378 78.9085 62.4649 79.3784 63.6226C79.8605 64.7612 80.1099 66.1809 80.1267 67.8817C80.1661 69.4627 80.0059 70.8831 79.6463 72.1429C79.2866 73.4027 78.7899 74.488 78.1561 75.3989C77.5189 76.2942 76.8028 77.0185 76.0078 77.5718C75.2128 78.1252 74.3935 78.4954 73.55 78.6826ZM86.7504 75.9997C86.4536 76.0655 86.2141 76.0203 86.032 75.8641C85.8533 75.7234 85.7483 75.5091 85.7172 75.221C85.7017 74.9294 85.7721 74.6188 85.9284 74.2891C86.7949 72.6546 87.6797 71.0653 88.5826 69.521C89.4977 67.9577 90.4528 66.4265 91.4477 64.9274C92.4426 63.4283 93.4835 61.9518 94.5704 60.4979C95.6694 59.0249 96.8361 57.5614 98.0705 56.1075C98.3552 55.7657 98.6026 55.5142 98.8127 55.3529C99.0227 55.1915 99.2527 55.0832 99.5026 55.0277C99.7682 54.9688 99.9729 55.0053 100.117 55.1372C100.277 55.2657 100.376 55.4567 100.416 55.71C100.452 55.9478 100.424 56.2246 100.33 56.5404C100.233 56.8406 100.062 57.1408 99.8168 57.4409C98.0702 59.4673 96.4981 61.4305 95.1005 63.3303C93.7028 65.2301 92.4214 67.137 91.2562 69.0508C90.0876 70.9489 88.9754 72.9166 87.9196 74.9536C87.7442 75.2711 87.5515 75.5106 87.3414 75.6719C87.1505 75.8454 86.9535 75.9546 86.7504 75.9997ZM87.7666 65.6212C86.7981 65.8361 85.9694 65.8315 85.2805 65.6073C84.5916 65.3832 84.0685 64.983 83.7112 64.4068C83.3539 63.8305 83.1667 63.1345 83.1497 62.3188C83.1291 61.6351 83.2785 60.9791 83.5981 60.351C83.9332 59.7194 84.3707 59.1798 84.9106 58.7323C85.4661 58.2812 86.0797 57.9812 86.7514 57.8322C87.0481 57.7663 87.2781 57.8055 87.4412 57.9496C87.6008 58.078 87.6884 58.2881 87.7039 58.5796C87.6986 58.7775 87.6274 58.9735 87.4902 59.1679C87.3652 59.3431 87.1604 59.5279 86.8757 59.7221C86.2716 60.102 85.8593 60.4967 85.6388 60.9061C85.4148 61.3 85.3105 61.7165 85.326 62.1556C85.3223 62.73 85.5009 63.1656 85.8618 63.4625C86.2226 63.7594 86.7545 63.8299 87.4574 63.6739C88.1291 63.5249 88.6273 63.2587 88.9519 62.8753C89.2731 62.4762 89.4277 61.9912 89.4158 61.4203C89.4142 60.8961 89.2452 60.4666 88.9086 60.1315C88.572 59.7965 88.1617 59.6826 87.6774 59.7901C87.365 59.8594 87.0839 59.848 86.834 59.756C86.5963 59.6448 86.474 59.4261 86.4672 59.0998C86.4656 58.7232 86.5663 58.4387 86.7694 58.2461C86.9847 58.0344 87.2173 57.9009 87.4672 57.8454C88.2951 57.6618 89.0084 57.7002 89.607 57.9607C90.2213 58.2178 90.6992 58.6362 91.0409 59.2159C91.3826 59.7957 91.5602 60.4856 91.5739 61.2856C91.5823 61.9885 91.4233 62.6384 91.0968 63.2352C90.786 63.8286 90.3415 64.337 89.7635 64.7602C89.1976 65.1644 88.5319 65.4514 87.7666 65.6212ZM97.7106 73.3221C96.7266 73.5405 95.8884 73.5298 95.196 73.2901C94.5193 73.0469 93.9944 72.6389 93.6215 72.066C93.2607 71.4741 93.0623 70.7643 93.0261 69.9364C93.0194 69.3151 93.1671 68.7251 93.4692 68.1664C93.7835 67.5886 94.2158 67.0994 94.7661 66.6987C95.3129 66.2824 95.9221 65.9997 96.5938 65.8507C96.9062 65.7814 97.1405 65.8031 97.2966 65.916C97.4528 66.0289 97.5369 66.2233 97.549 66.4992C97.5506 66.7283 97.4924 66.946 97.3743 67.1525C97.2719 67.3555 97.0774 67.5134 96.7911 67.6261C96.1749 67.8775 95.7487 68.2097 95.5126 68.6227C95.2886 69.0166 95.1799 69.4504 95.1867 69.9242C95.19 70.5298 95.3938 70.9681 95.798 71.239C96.2144 71.4907 96.7429 71.5456 97.3833 71.4035C98.055 71.2545 98.5757 70.9423 98.9455 70.4669C99.3275 69.9724 99.5194 69.3972 99.5214 68.7412C99.4921 68.0921 99.2806 67.5818 98.8867 67.2103C98.4929 66.8388 97.9836 66.7223 97.3588 66.861C97.0152 66.9372 96.7462 66.9067 96.5519 66.7696C96.3575 66.6324 96.2509 66.4102 96.2319 66.1031C96.2337 65.7421 96.3284 65.4671 96.5159 65.278C96.719 65.0854 96.969 64.9562 97.2658 64.8903C98.1092 64.7032 98.8589 64.7581 99.5148 65.0551C100.171 65.3521 100.684 65.82 101.055 66.4587C101.442 67.094 101.635 67.8134 101.633 68.617C101.651 69.3667 101.497 70.0729 101.169 70.7358C100.837 71.383 100.37 71.9373 99.7675 72.3987C99.1773 72.8411 98.4916 73.1489 97.7106 73.3221Z" fill="#7831B2"/>
</svg>
