<svg width="78" height="105" viewBox="0 0 78 105" fill="none" xmlns="http://www.w3.org/2000/svg">
<path d="M23.4232 47.903C23.4233 48.3232 23.7648 48.6638 24.186 48.6637C24.6072 48.6636 24.9487 48.3229 24.9486 47.9026L23.4232 47.903ZM77.4828 7.96369C77.8815 7.82832 78.0948 7.39611 77.9592 6.99832L75.7478 0.515927C75.612 0.118136 75.1787 -0.0945992 74.78 0.0407702C74.3812 0.17614 74.168 0.608352 74.3036 1.00614L76.2693 6.76827L70.493 8.72912C70.0942 8.8645 69.881 9.29671 70.0167 9.6945C70.1524 10.0923 70.5856 10.305 70.9845 10.1697L77.4828 7.96369ZM24.9486 47.9026C24.9461 36.8519 27.5879 21.6832 35.387 11.8906C39.267 7.0189 44.4112 3.4901 51.1564 2.42717C57.9171 1.36177 66.3776 2.75952 76.9002 7.92604L77.5739 6.5608C66.8701 1.30534 58.0854 -0.205264 50.9184 0.92415C43.7357 2.05603 38.2695 5.82517 34.1926 10.944C26.0782 21.1326 23.4207 36.7156 23.4232 47.903L24.9486 47.9026ZM24.9133 46.8766C24.9108 35.8088 27.209 20.8212 34.6587 11.2111C38.3619 6.43384 43.327 2.99702 49.9363 1.99978C56.5651 0.999574 64.9393 2.4398 75.4666 7.60858L76.1402 6.24334C65.4411 0.990132 56.745 -0.566536 49.7081 0.495228C42.6517 1.55995 37.356 5.24395 33.452 10.2803C25.6872 20.2969 23.3854 35.7068 23.3878 46.877L24.9133 46.8766Z" fill="#E71985"/>
<path d="M10.1984 86.1992C9.79326 86.3341 9.32249 86.4074 8.78611 86.4193C8.24974 86.4311 7.68242 86.389 7.08424 86.293C6.49376 86.1817 5.9129 86.0222 5.34166 85.8146C4.78201 85.6032 4.26478 85.3455 3.78997 85.0416C3.3113 84.7262 2.91751 84.3761 2.6086 83.9913C2.29583 83.5949 2.11231 83.162 2.05806 82.6924C1.98061 82.1534 2.02856 81.5664 2.2019 80.9312C2.37138 80.2843 2.64118 79.6105 3.0113 78.9097C3.38914 78.1935 3.848 77.4696 4.3879 76.7379C4.92394 75.9947 5.52558 75.2553 6.19283 74.5198C6.53223 74.15 6.80801 73.8592 7.02016 73.6474C7.23228 73.4356 7.43101 73.2989 7.61621 73.2371C7.82455 73.1678 8.00204 73.1792 8.14868 73.2715C8.30313 73.3484 8.39007 73.512 8.4094 73.7622C8.45197 74.0047 8.40199 74.2588 8.25936 74.5245C8.12434 74.7747 7.88525 75.079 7.54199 75.4372C6.86702 76.1497 6.27115 76.8486 5.75437 77.5342C5.24531 78.2042 4.81921 78.8338 4.47605 79.4229C4.14446 80.0082 3.90353 80.5377 3.75326 81.0112C3.59913 81.4732 3.5395 81.8524 3.57438 82.1488C3.62858 82.5029 3.80819 82.8474 4.11321 83.1822C4.42595 83.5015 4.84479 83.792 5.36975 84.0535C5.89084 84.3035 6.50257 84.4975 7.20494 84.6358C7.90348 84.7625 8.66382 84.8044 9.48576 84.7617C10.0105 84.7538 10.3598 84.7978 10.5335 84.894C10.7188 84.9863 10.823 85.1441 10.8463 85.3674C10.8734 85.5636 10.8388 85.7292 10.7424 85.864C10.6459 85.9987 10.4647 86.1105 10.1984 86.1992ZM2.52411 88.7552C2.24631 88.8477 2.00703 88.8054 1.80627 88.6285C1.61709 88.4476 1.45099 88.1051 1.30796 87.6008C1.17264 87.0813 1.04495 86.3729 0.924871 85.4761C0.804766 84.5022 0.727139 83.5784 0.691972 82.7046C0.652948 81.8192 0.625553 81.0262 0.609768 80.3257C0.593992 79.625 0.555129 79.0668 0.493178 78.6511C0.446672 78.2431 0.392493 77.9274 0.330633 77.7042C0.264916 77.4694 0.201142 77.2597 0.139311 77.0749C0.07747 76.8902 0.0349207 76.6862 0.0116627 76.463C-0.0193278 76.2166 0.0114424 76.0202 0.103983 75.8738C0.204247 75.7122 0.346969 75.6005 0.532171 75.5387C0.786826 75.454 0.995226 75.4808 1.15737 75.6192C1.33109 75.7539 1.47783 75.9618 1.5976 76.2427C1.71351 76.5121 1.80241 76.8162 1.86432 77.1549C1.93394 77.4782 1.98619 77.7881 2.02107 78.0845C2.09465 78.6119 2.13546 79.2336 2.14354 79.9496C2.16318 80.6617 2.1867 81.4047 2.21409 82.1783C2.23762 82.9406 2.29008 83.6739 2.37146 84.3783C2.45281 85.0057 2.52831 85.5004 2.59794 85.8622C2.66758 86.224 2.7314 86.5107 2.78938 86.7225C2.84351 86.9226 2.88605 87.1073 2.917 87.2767C2.95566 87.4307 2.99628 87.6289 3.03885 87.8714C3.05825 88.0831 3.02361 88.2679 2.93493 88.4257C2.84625 88.5836 2.70931 88.6934 2.52411 88.7552ZM16.1165 84.2473C15.1673 84.5634 14.3164 84.6159 13.5638 84.4045C12.8228 84.1892 12.2186 83.7681 11.7513 83.1408C11.2919 82.4981 10.9962 81.6918 10.8646 80.7218C10.7755 80.0328 10.806 79.3937 10.9563 78.8047C11.1142 78.2003 11.3339 77.6651 11.6153 77.1991C11.9084 76.7293 12.2304 76.3461 12.5815 76.0496C12.9286 75.7414 13.2469 75.5392 13.5363 75.4428C13.6636 75.4004 13.7735 75.383 13.8662 75.3907C13.9704 75.3945 14.0591 75.4291 14.1325 75.4946C14.2136 75.5445 14.2637 75.6368 14.2832 75.7716C14.3025 76.0218 14.2815 76.2662 14.2199 76.5049C14.1544 76.7321 13.9731 76.9786 13.6761 77.2443C13.325 77.5794 13.0455 77.9163 12.8372 78.2553C12.6367 78.5787 12.5019 78.9252 12.4326 79.2948C12.3594 79.6528 12.3596 80.0571 12.4332 80.5074C12.561 81.5044 12.9222 82.2183 13.5166 82.6491C14.1073 83.0685 14.8193 83.1393 15.6527 82.8617C16.4629 82.5919 17.0724 82.068 17.4811 81.2903C17.8975 80.497 18.036 79.5847 17.8966 78.553C17.7842 77.6023 17.4944 76.9288 17.0273 76.5325C16.5563 76.1246 15.9735 76.0364 15.279 76.2677C14.9202 76.3872 14.6367 76.5587 14.4283 76.782C14.2317 77.0015 14.0273 77.275 13.8152 77.6023C13.6648 77.8449 13.5491 78.0566 13.4681 78.2376C13.3872 78.4185 13.3082 78.5668 13.2311 78.6823C13.1616 78.7824 13.0517 78.8576 12.9012 78.9077C12.7392 78.9617 12.5944 78.9521 12.4671 78.8791C12.3474 78.7905 12.2701 78.6174 12.2352 78.3595C12.1927 78.0785 12.2349 77.7628 12.3621 77.4125C12.5009 77.0582 12.6937 76.7116 12.9405 76.3728C13.195 76.0185 13.4901 75.7085 13.8257 75.4427C14.1575 75.1653 14.5085 74.965 14.8789 74.8417C15.7123 74.5641 16.4551 74.5348 17.1074 74.754C17.7558 74.9615 18.2867 75.375 18.6999 75.9946C19.1092 76.6026 19.3682 77.3763 19.4766 78.3155C19.6045 79.2355 19.5471 80.1016 19.3043 80.9141C19.0577 81.7149 18.6586 82.406 18.1071 82.9875C17.5671 83.5653 16.9035 83.9852 16.1165 84.2473ZM23.2201 81.8622C22.9423 81.9547 22.6799 81.8625 22.4328 81.5854C22.1857 81.3083 22.0176 80.8253 21.9284 80.1363C21.882 79.8053 21.8335 79.2952 21.783 78.6062C21.7286 77.9056 21.7456 77.1299 21.834 76.2791C21.9337 75.2705 22.0549 74.4601 22.1974 73.848C22.336 73.2242 22.5172 72.7468 22.7409 72.4157C22.9645 72.0845 23.2326 71.8669 23.5452 71.7628C23.7882 71.6818 24.0062 71.7183 24.1992 71.8721C24.4039 72.0222 24.5815 72.2262 24.7321 72.484C24.8828 72.7418 25.0218 73.0035 25.1493 73.2691C25.3193 73.6232 25.5143 74.0138 25.7344 74.441C25.9662 74.8644 26.2057 75.2915 26.4529 75.7226C26.7116 76.1497 26.9743 76.5499 27.2407 76.9232C27.5188 77.2927 27.7929 77.5927 28.0631 77.8236L27.4844 78.1703C27.5999 77.4004 27.7384 76.6227 27.9001 75.8373C28.0617 75.0519 28.2331 74.2954 28.4141 73.5677C28.5951 72.8402 28.7743 72.1837 28.9515 71.5985C29.1557 70.9786 29.3503 70.5224 29.5354 70.2297C29.7322 69.9332 29.9347 69.7502 30.143 69.6809C30.2935 69.6307 30.4439 69.6191 30.5945 69.646C30.7411 69.6613 30.8743 69.694 30.9939 69.7439C31.1638 69.8285 31.3143 69.9516 31.4457 70.1133C31.5769 70.2749 31.6812 70.5481 31.7586 70.933C31.9326 71.7991 32.1144 72.5728 32.3039 73.2541C32.501 73.92 32.6807 74.4761 32.843 74.9225C33.1213 75.7155 33.3916 76.3313 33.6543 76.7699C33.9285 77.2048 34.0714 77.4973 34.0831 77.6475C34.1102 77.8052 34.0697 77.9534 33.9618 78.0921C33.8692 78.2384 33.7303 78.3424 33.5451 78.4041C33.2673 78.4967 32.9914 78.4409 32.7173 78.2371C32.4548 78.0294 32.225 77.708 32.028 77.2731C31.8426 76.8728 31.632 76.359 31.3963 75.7317C31.1721 75.1005 30.9518 74.3846 30.7353 73.5839C30.5266 72.768 30.3448 71.9173 30.19 71.0319L30.6529 70.7431C30.5103 71.2397 30.3525 71.8057 30.1791 72.4409C30.0134 73.0608 29.8439 73.7075 29.6707 74.3814C29.5089 75.0512 29.3567 75.7115 29.2143 76.3621C29.0834 77.0089 28.9776 77.6153 28.8968 78.1812C28.8429 78.443 28.7505 78.6663 28.6193 78.8512C28.4998 79.0321 28.3301 79.1592 28.1101 79.2325C27.8324 79.325 27.5795 79.3386 27.3519 79.2733C27.1318 79.1926 26.9196 79.0579 26.7149 78.8694C26.518 78.6654 26.3249 78.4346 26.1357 78.1767C26.0353 78.0306 25.8963 77.8265 25.7186 77.5649C25.5371 77.2917 25.344 76.9838 25.1394 76.6413C24.9346 76.2988 24.728 75.9313 24.5195 75.5387C24.3108 75.1461 24.1158 74.7556 23.9342 74.3668C23.7488 73.9665 23.5962 73.5874 23.4764 73.2295L23.9509 72.9175C23.7467 73.6143 23.5849 74.2843 23.4656 74.9271C23.3579 75.5662 23.2965 76.2092 23.2813 76.8558C23.2739 77.4872 23.3109 78.155 23.3923 78.8595C23.4504 79.3407 23.5124 79.7563 23.5781 80.1066C23.6556 80.453 23.7058 80.7186 23.7291 80.9034C23.7484 81.1151 23.7235 81.3095 23.6541 81.4866C23.5847 81.6637 23.4401 81.7889 23.2201 81.8622ZM38.2002 76.8537C37.6678 77.0311 37.1912 77.0486 36.7704 76.9064C36.3614 76.7603 36.0178 76.4833 35.7398 76.0754C35.4732 75.6636 35.2993 75.144 35.218 74.5166C35.1367 73.9277 35.1422 73.3098 35.2344 72.663C35.3345 72.0008 35.5097 71.3521 35.7603 70.7168C36.0069 70.07 36.3153 69.4731 36.6855 68.9264C37.0634 68.3642 37.4935 67.8809 37.9757 67.4764C38.4694 67.0681 38.9999 66.7695 39.5671 66.5806C39.8332 66.4919 40.0648 66.4918 40.2616 66.5802C40.4585 66.6687 40.5744 66.8611 40.6093 67.1576C40.6325 67.3037 40.6094 67.4462 40.54 67.5848C40.4668 67.7119 40.3356 67.8198 40.1465 67.9084C39.375 68.2937 38.7192 68.833 38.1792 69.5262C37.6509 70.2155 37.2653 70.9663 37.0226 71.7787C36.7877 72.5757 36.7147 73.3571 36.8039 74.1232C36.8465 74.4811 36.9142 74.7987 37.0069 75.0758C37.0958 75.3414 37.2696 75.6685 37.5284 76.0572L36.4685 75.0819C36.7658 75.278 37.009 75.3895 37.1981 75.4164C37.3988 75.4394 37.6554 75.3988 37.9679 75.2947C38.7087 75.048 39.3027 74.324 39.7497 73.1227C40.1967 71.9215 40.441 70.3065 40.4825 68.2778C40.4901 68.0314 40.544 67.8274 40.6442 67.6656C40.7522 67.4885 40.9046 67.3672 41.1014 67.3016C41.3676 67.2129 41.6088 67.261 41.825 67.4456C42.0489 67.6149 42.2072 67.8766 42.3 68.2307C42.4972 68.9736 42.6943 69.6394 42.8914 70.2283C43.0962 70.8018 43.3415 71.3233 43.6273 71.7928C43.9247 72.2584 44.3204 72.7106 44.8146 73.1492C44.9227 73.2415 44.9961 73.3646 45.0348 73.5186C45.085 73.6688 45.0928 73.8265 45.0581 73.9921C45.0351 74.1538 44.9754 74.302 44.8789 74.4368C44.7902 74.5561 44.6649 74.6429 44.5028 74.6968C44.3292 74.7547 44.1787 74.7663 44.0513 74.7317C43.9355 74.6932 43.8217 74.6221 43.7097 74.5182C43.4472 74.272 43.1962 74.0026 42.9568 73.7101C42.7174 73.4178 42.4857 73.0714 42.2617 72.6712C42.0453 72.2555 41.8445 71.7514 41.6589 71.1585C41.4734 70.5658 41.2975 69.848 41.1311 69.005L41.7503 68.7795C41.7549 70.0614 41.6589 71.1778 41.4626 72.1287C41.2624 73.0682 40.9888 73.8651 40.6418 74.5197C40.3025 75.1589 39.9208 75.6711 39.4965 76.0562C39.0722 76.4414 38.6401 76.7072 38.2002 76.8537ZM47.9315 73.6319C47.6538 73.7244 47.3991 73.6745 47.1674 73.4821C46.9357 73.2898 46.7311 72.9857 46.5534 72.5701C46.3833 72.139 46.2577 71.6098 46.1764 70.9823C46.1337 70.5473 46.1181 70.174 46.1295 69.8621C46.1524 69.5465 46.2006 69.2866 46.2738 69.0826C46.3548 68.863 46.4588 68.6937 46.5861 68.5743C46.6903 68.4626 46.8562 68.3624 47.0837 68.2737C47.3076 68.1735 47.5468 68.0811 47.8014 67.9963C48.6464 67.7148 49.4663 67.3969 50.2611 67.0423C51.0635 66.6724 51.8217 66.2273 52.5353 65.7074L53.2478 66.7983C52.7232 67.2297 52.133 67.6188 51.4771 67.9656C50.8212 68.3123 50.1422 68.6283 49.44 68.9135C48.7456 69.1834 48.0626 69.4301 47.3912 69.6537L46.332 69.8331C46.2816 69.3367 46.2273 68.8285 46.1693 68.3088C46.1111 67.7892 46.0491 67.2773 45.9832 66.773C45.929 66.2649 45.8767 65.801 45.8263 65.3814C45.7798 65.0889 45.797 64.8329 45.878 64.6135C45.9589 64.3939 46.0862 64.2554 46.2598 64.1975C46.5492 64.1011 46.802 64.1453 47.0181 64.33C47.2305 64.5031 47.3657 64.8495 47.4239 65.3691C47.4626 65.6386 47.4956 65.9676 47.5228 66.3565C47.55 66.7453 47.5771 67.1533 47.6044 67.5806C47.6433 68.0041 47.6762 68.4101 47.7035 68.7989C47.7383 69.1723 47.7713 69.4821 47.8023 69.7285C47.8876 70.4445 47.9843 71.0796 48.0926 71.6339C48.2087 72.1728 48.288 72.5827 48.3306 72.8637C48.3499 73.0369 48.3192 73.1948 48.2382 73.3372C48.1726 73.4874 48.0704 73.5856 47.9315 73.6319ZM53.9217 71.6368C53.6323 71.7332 53.3679 71.6351 53.1285 71.3427C52.9006 71.0464 52.6959 70.6077 52.5143 70.0265C52.3403 69.4299 52.2049 68.7563 52.108 68.0057C51.9686 66.8201 51.8775 65.8751 51.8346 65.1706C51.7995 64.4508 51.7935 63.8753 51.8165 63.4441C51.824 63.1593 51.8643 62.8956 51.9376 62.653C52.0108 62.4105 52.1458 62.2564 52.3425 62.1909C52.5972 62.106 52.8172 62.1675 53.0025 62.3753C53.1956 62.5677 53.3134 62.8429 53.3561 63.2008C53.4142 63.6436 53.4375 64.1363 53.4262 64.679C53.4265 65.218 53.4692 65.7877 53.5544 66.3882C53.6473 67.1273 53.7596 67.7893 53.8911 68.3744C54.0304 68.9441 54.1579 69.4213 54.2739 69.8062C54.3899 70.1911 54.4556 70.4836 54.4711 70.6838C54.5059 70.9032 54.4694 71.1015 54.3614 71.2786C54.2534 71.4557 54.1069 71.5751 53.9217 71.6368ZM57.1144 69.4761C57.1488 69.0797 57.2104 68.6292 57.2989 68.125C57.3835 67.609 57.4798 67.07 57.5876 66.508C57.707 65.9421 57.8302 65.3876 57.9572 64.8448C58.092 64.2865 58.2249 63.7803 58.3559 63.3259C58.5331 62.7407 58.72 62.1844 58.9165 61.6569C59.1131 61.1294 59.3193 60.6886 59.5352 60.3343C59.7589 59.9646 59.9807 59.7432 60.2006 59.67C60.4321 59.5928 60.6675 59.6235 60.9069 59.762C61.1578 59.8966 61.428 60.1659 61.7176 60.57C61.9184 60.8625 62.154 61.2396 62.4244 61.7014C62.6948 62.1632 62.9747 62.6732 63.2645 63.2312C63.5503 63.7777 63.8207 64.3357 64.0756 64.9053C64.3307 65.475 64.547 66.006 64.7248 66.4987L63.2433 67.1462C63.0462 66.5957 62.8047 66.0088 62.5188 65.3853C62.2407 64.7465 61.9471 64.1384 61.6381 63.5611C61.3291 62.9838 61.0413 62.4893 60.7749 62.0776C60.5045 61.6542 60.2787 61.3829 60.0972 61.2637L60.728 60.8996C60.489 61.4155 60.25 62.0085 60.011 62.6785C59.7837 63.3445 59.593 64.0433 59.439 64.7748C59.3235 65.3138 59.2176 65.8239 59.1214 66.3052C59.0252 66.7864 58.9425 67.2503 58.8732 67.6968C58.8117 68.1281 58.754 68.5708 58.7002 69.025L57.1144 69.4761ZM65.7396 70.2804C65.5081 70.3575 65.3016 70.3364 65.1202 70.2171C64.9387 70.0979 64.8384 69.9325 64.8189 69.7207C64.7957 69.5745 64.8014 69.3416 64.836 69.022C64.8744 68.7141 64.9051 68.3638 64.9281 67.9711C64.9511 67.5784 64.9354 67.1857 64.8812 66.7932L65.802 67.4683C65.6322 67.4992 65.3697 67.5608 65.0148 67.6534C64.6713 67.7422 64.2392 67.8733 63.7184 68.0467C63.1049 68.2511 62.4759 68.4669 61.8316 68.6944C61.1988 68.9179 60.5738 69.1453 59.9564 69.3766C59.3507 69.604 58.7778 69.8333 58.2376 70.0646C57.6974 70.2959 57.2074 70.5232 56.7676 70.7467L57.2419 69.915C57.269 70.0727 57.3077 70.2653 57.358 70.4923C57.4083 70.7194 57.4644 70.9446 57.5262 71.1678C57.5919 71.4026 57.648 71.6086 57.6943 71.7856C57.7523 71.9588 57.7929 72.0801 57.816 72.1493C57.8702 72.3495 57.851 72.5227 57.7584 72.6691C57.6698 72.827 57.5271 72.9387 57.3302 73.0041C57.0525 73.0966 56.8247 73.0506 56.6471 72.8659C56.4695 72.6812 56.3305 72.4388 56.23 72.1385C56.1566 71.9577 56.0832 71.719 56.0097 71.4226C55.9363 71.1263 55.8898 70.8915 55.8705 70.7182C55.8549 70.5181 55.8703 70.3333 55.9164 70.1639C55.9473 69.9868 56.0263 69.8194 56.1535 69.6614C56.2808 69.5035 56.464 69.3591 56.7032 69.228C56.9772 69.0856 57.3514 68.916 57.826 68.7194C58.3082 68.5074 58.8522 68.2877 59.458 68.0603C60.0715 67.8175 60.7062 67.5805 61.3621 67.3492C62.0141 67.1063 62.6411 66.8847 63.243 66.6842C63.544 66.5839 63.8758 66.4799 64.2385 66.3719C64.5973 66.2524 64.9523 66.1599 65.3034 66.0942C65.6507 66.0171 65.9112 66.0458 66.0849 66.1805C66.2702 66.3113 66.39 66.5729 66.4442 66.9656C66.483 67.2736 66.4985 67.6085 66.491 67.9703C66.4835 68.3322 66.445 68.6786 66.3757 69.0097C66.3219 69.3485 66.2371 69.6334 66.1215 69.8644C66.0174 70.0916 65.8901 70.2302 65.7396 70.2804ZM70.0431 66.2482C69.5106 66.4256 69.034 66.4431 68.6133 66.3009C68.2042 66.1548 67.8606 65.8778 67.5826 65.4698C67.3161 65.0581 67.1421 64.5385 67.0608 63.9111C66.9795 63.3221 66.985 62.7043 67.0773 62.0576C67.1773 61.3954 67.3526 60.7467 67.6031 60.1114C67.8498 59.4645 68.1582 58.8677 68.5284 58.3209C68.9063 57.7586 69.3363 57.2753 69.8185 56.8709C70.3122 56.4626 70.8427 56.1641 71.4099 55.9751C71.6761 55.8865 71.9077 55.8863 72.1045 55.9748C72.3013 56.0632 72.4172 56.2557 72.4521 56.552C72.4753 56.6983 72.4523 56.8407 72.3829 56.9794C72.3096 57.1065 72.1784 57.2143 71.9894 57.3029C71.2178 57.6882 70.562 58.2275 70.0221 58.9207C69.4938 59.61 69.1082 60.3609 68.8655 61.1732C68.6305 61.9701 68.5575 62.7517 68.6467 63.5177C68.6894 63.8757 68.757 64.1932 68.8497 64.4704C68.9387 64.7359 69.1124 65.063 69.3712 65.4517L68.3114 64.4764C68.6086 64.6725 68.8518 64.784 69.0409 64.8109C69.2417 64.8339 69.4982 64.7934 69.8108 64.6893C70.5516 64.4426 71.1455 63.7186 71.5926 62.5173C72.0396 61.316 72.2838 59.701 72.3253 57.6723C72.3329 57.4259 72.3868 57.2219 72.487 57.0601C72.595 56.8831 72.7475 56.7617 72.9442 56.6961C73.2104 56.6075 73.4516 56.6555 73.6679 56.8402C73.8917 57.0095 74.0501 57.2711 74.1428 57.6252C74.3401 58.3681 74.5372 59.034 74.7343 59.6228C74.939 60.1963 75.1843 60.7178 75.4702 61.1873C75.7676 61.6529 76.1633 62.105 76.6574 62.5437C76.7656 62.636 76.8389 62.7592 76.8776 62.9132C76.9279 63.0632 76.9357 63.2211 76.901 63.3866C76.8779 63.5483 76.8182 63.6965 76.7217 63.8313C76.6331 63.9507 76.5077 64.0373 76.3456 64.0914C76.1721 64.1492 76.0215 64.1608 75.8942 64.1262C75.7784 64.0878 75.6645 64.0167 75.5525 63.9127C75.29 63.6664 75.0391 63.3972 74.7996 63.1047C74.5602 62.8123 74.3285 62.4659 74.1045 62.0657C73.8882 61.65 73.6873 61.1458 73.5018 60.5531C73.3163 59.9603 73.1403 59.2425 72.9739 58.3995L73.5932 58.1741C73.5978 59.4559 73.5018 60.5723 73.3055 61.5233C73.1053 62.4626 72.8316 63.2597 72.4846 63.9142C72.1454 64.5534 71.7636 65.0656 71.3393 65.4508C70.915 65.836 70.4829 66.1017 70.0431 66.2482ZM7.62152 104.966C7.34366 105.057 7.08123 104.966 6.83412 104.689C6.58701 104.411 6.41891 103.928 6.32981 103.239C6.28334 102.908 6.23485 102.398 6.18434 101.709C6.12998 101.009 6.14696 100.232 6.2353 99.382C6.33514 98.3734 6.45631 97.563 6.59879 96.9509C6.73741 96.3272 6.91854 95.8498 7.14224 95.5186C7.3659 95.1874 7.63394 94.9698 7.94645 94.8657C8.18954 94.7848 8.4076 94.8212 8.60061 94.9751C8.80525 95.1251 8.98284 95.329 9.13348 95.5869C9.28413 95.8447 9.42315 96.1065 9.55066 96.372C9.72064 96.7261 9.91566 97.1167 10.1358 97.5439C10.3676 97.9672 10.6071 98.3944 10.8543 98.8254C11.113 99.2526 11.3756 99.6528 11.6421 100.026C11.9201 100.395 12.1943 100.696 12.4645 100.927L11.8858 101.274C12.0012 100.503 12.1398 99.7256 12.3014 98.9402C12.4631 98.1548 12.6345 97.3983 12.8155 96.6707C12.9965 95.943 13.1757 95.2866 13.3529 94.7013C13.5571 94.0815 13.7517 93.6252 13.9368 93.3326C14.1335 93.0361 14.336 92.8531 14.5444 92.7837C14.6948 92.7336 14.8453 92.722 14.9958 92.7489C15.1425 92.7642 15.2756 92.7968 15.3953 92.8469C15.5652 92.9314 15.7157 93.0545 15.847 93.2162C15.9782 93.3777 16.0826 93.651 16.1599 94.036C16.334 94.902 16.5158 95.6756 16.7052 96.357C16.9023 97.0228 17.082 97.579 17.2444 98.0255C17.5226 98.8183 17.793 99.4341 18.0556 99.8728C18.3299 100.307 18.4728 100.6 18.4844 100.75C18.5116 100.908 18.4711 101.057 18.3631 101.195C18.2706 101.342 18.1316 101.445 17.9464 101.507C17.6687 101.599 17.3927 101.543 17.1186 101.34C16.8562 101.132 16.6264 100.811 16.4294 100.376C16.2439 99.9757 16.0333 99.4619 15.7976 98.8345C15.5735 98.2033 15.3532 97.4874 15.1367 96.6869C14.9279 95.8709 14.7461 95.0202 14.5913 94.1349L15.0542 93.846C14.9117 94.3426 14.7537 94.9086 14.5805 95.5438C14.4148 96.1636 14.2453 96.8105 14.072 97.4842C13.9103 98.1541 13.7581 98.8144 13.6157 99.465C13.4848 100.112 13.379 100.718 13.2982 101.284C13.2443 101.546 13.1518 101.769 13.0207 101.954C12.9011 102.135 12.7314 102.262 12.5115 102.336C12.2336 102.428 11.9809 102.442 11.7533 102.376C11.5332 102.296 11.3208 102.161 11.1163 101.972C10.9194 101.768 10.7263 101.537 10.5371 101.28C10.4367 101.134 10.2977 100.93 10.12 100.668C9.93849 100.394 9.74538 100.087 9.54074 99.7442C9.33601 99.4016 9.12938 99.0342 8.92084 98.6416C8.7122 98.249 8.51718 97.8584 8.33558 97.4698C8.15018 97.0695 7.99753 96.6903 7.87773 96.3324L8.35221 96.0204C8.14808 96.7172 7.98631 97.3871 7.86702 98.03C7.75924 98.6692 7.69784 99.312 7.68272 99.9587C7.6753 100.59 7.71226 101.258 7.7937 101.962C7.85179 102.444 7.91369 102.859 7.9795 103.21C8.05683 103.556 8.10721 103.821 8.13045 104.006C8.14978 104.218 8.12484 104.412 8.05542 104.59C7.98611 104.767 7.84138 104.892 7.62152 104.966ZM24.0794 99.4644C23.3618 99.7034 22.727 99.8057 22.1751 99.7713C21.6311 99.7216 21.1717 99.5601 20.7973 99.2869C20.419 99.0023 20.1139 98.6291 19.8821 98.1673C19.6619 97.7016 19.5131 97.1607 19.4356 96.5449C19.3736 95.9367 19.4041 95.2977 19.5273 94.6278C19.6581 93.9425 19.8817 93.2841 20.1978 92.6526C20.5255 92.0173 20.9381 91.4627 21.4357 90.989C21.9411 90.4999 22.5235 90.1454 23.1833 89.9257C23.7968 89.7214 24.3332 89.6518 24.7924 89.7171C25.2633 89.7784 25.6377 89.9746 25.9156 90.3055C26.2053 90.6325 26.3888 91.104 26.4662 91.7199C26.5321 92.2242 26.4822 92.7092 26.3165 93.1751C26.1585 93.6255 25.9078 94.0492 25.5647 94.4459C25.2291 94.827 24.8241 95.1738 24.3496 95.4858C23.8827 95.7824 23.36 96.0271 22.7812 96.2199C21.9941 96.4821 21.4365 96.5651 21.1085 96.469C20.792 96.3691 20.6182 96.1959 20.5873 95.9495C20.564 95.8033 20.5832 95.6878 20.6449 95.6031C20.7028 95.5068 20.8185 95.4297 20.9921 95.3719C21.1195 95.3295 21.2777 95.3025 21.4668 95.2909C21.6636 95.2638 21.9414 95.1905 22.3002 95.071C22.879 94.8783 23.3728 94.624 23.7817 94.3081C24.2021 93.9884 24.5165 93.6398 24.7247 93.2625C24.929 92.8736 25.0099 92.4809 24.9673 92.0844C24.9207 91.7149 24.7875 91.4705 24.5674 91.3513C24.359 91.2282 24.0291 91.2418 23.5776 91.3922C23.1262 91.5426 22.7269 91.7911 22.3798 92.1377C22.0404 92.4689 21.7492 92.8675 21.5063 93.3334C21.275 93.7954 21.1132 94.2921 21.0209 94.8233C20.9285 95.3546 20.9191 95.884 20.9927 96.4113C21.0508 96.854 21.1725 97.2369 21.3579 97.5602C21.5394 97.8719 21.8058 98.0912 22.157 98.2181C22.516 98.3295 22.9617 98.2966 23.4941 98.1193C24.0961 97.9188 24.586 97.6722 24.9641 97.3794C25.3498 97.0713 25.6583 96.7631 25.8898 96.4551C26.1212 96.147 26.3159 95.8833 26.474 95.6637C26.6321 95.4442 26.7922 95.3075 26.9542 95.2535C27.1511 95.188 27.315 95.2168 27.4463 95.3399C27.5853 95.4476 27.6703 95.6247 27.7013 95.871C27.7323 96.1174 27.6572 96.4119 27.476 96.7546C27.3025 97.0819 27.0441 97.4246 26.7008 97.7828C26.3691 98.1371 25.9775 98.4664 25.5262 98.7708C25.0826 99.0597 24.6003 99.2909 24.0794 99.4644ZM31.4475 93.9303C31.0076 94.0768 30.6102 94.1 30.2551 94.0001C29.9 93.9002 29.595 93.7003 29.3402 93.4001C29.0969 93.0961 28.9153 92.7267 28.7955 92.2917C28.6602 91.8491 28.5809 91.3814 28.5575 90.8887C28.5341 90.3959 28.557 89.9263 28.6263 89.4797C28.7071 89.0292 28.8285 88.6424 28.9903 88.3189C29.1523 87.9955 29.3548 87.7933 29.5978 87.7123C29.7136 87.6738 29.8198 87.6641 29.9163 87.6833C30.0243 87.6986 30.117 87.7448 30.1941 87.8217C30.2675 87.8871 30.3196 87.9853 30.3506 88.1161C30.3738 88.2239 30.37 88.4049 30.3392 88.659C30.3162 88.8977 30.2836 89.1844 30.2413 89.5193C30.1951 89.8427 30.1741 90.1834 30.1781 90.5414C30.1783 90.8879 30.2267 91.2247 30.3233 91.5519C30.3929 91.7597 30.4702 91.9328 30.5551 92.0714C30.6362 92.1984 30.7347 92.2812 30.8505 92.3195C30.9778 92.3542 31.1225 92.3445 31.2846 92.2904C31.655 92.1671 32.0061 91.9475 32.3378 91.6317C32.6694 91.3158 32.9606 90.9366 33.2112 90.4937C33.4735 90.0471 33.6855 89.585 33.8474 89.1076C34.0053 88.6187 34.0996 88.1509 34.1303 87.7043L34.8662 89.442C34.6544 90.1543 34.3826 90.8223 34.0511 91.446C33.7311 92.066 33.3474 92.5917 32.8999 93.023C32.4641 93.4506 31.9799 93.7529 31.4475 93.9303ZM36.0906 95.5218C35.836 95.6066 35.6237 95.5681 35.4538 95.4066C35.2801 95.2334 35.1217 95.0102 34.9788 94.737C34.8823 94.5253 34.7837 94.2501 34.6832 93.9114C34.5905 93.5573 34.5072 93.1743 34.4337 92.7625C34.3602 92.3506 34.3041 91.9522 34.2654 91.5672C34.2343 91.2824 34.2091 90.9571 34.1896 90.5914C34.1663 90.2142 34.1487 89.835 34.1369 89.4539C34.1251 89.0728 34.1211 88.7148 34.1248 88.3799C34.1246 88.0335 34.1226 87.7582 34.1186 87.5542C34.1107 87.1461 34.1414 86.8151 34.2108 86.561C34.2917 86.303 34.4363 86.1393 34.6447 86.0699C34.8414 86.0044 35.0498 86.0698 35.2699 86.2659C35.4899 86.4622 35.6214 86.7585 35.6639 87.155C35.7027 87.4245 35.7202 87.8037 35.7166 88.2926C35.7091 88.7699 35.7074 89.2645 35.7115 89.7765C35.7234 90.2731 35.7506 90.7004 35.7932 91.0584C35.8591 91.6396 35.9366 92.14 36.0255 92.5595C36.1145 92.9791 36.2111 93.3448 36.3155 93.6565C36.3812 93.8913 36.4449 94.0819 36.5068 94.2281C36.5686 94.3743 36.6073 94.5091 36.6227 94.6322C36.6421 94.8055 36.6094 94.9768 36.5245 95.1462C36.4552 95.3233 36.3106 95.4485 36.0906 95.5218ZM37.9527 87.0665C37.6864 87.1552 37.451 87.1437 37.2465 87.0322C37.0535 86.9168 36.9453 86.7475 36.9221 86.5242C36.9143 86.3856 36.947 86.2528 37.0202 86.1257C37.0936 85.9986 37.2517 85.8562 37.4947 85.6982C37.8727 85.444 38.3936 85.1551 39.0572 84.8313C39.7324 84.5038 40.5388 84.1839 41.4763 83.8716C41.9625 83.7097 42.4119 83.5729 42.8248 83.461C43.2454 83.3338 43.7162 83.2219 44.2371 83.1254C44.6461 83.0405 44.9779 83.0326 45.2326 83.1019C45.499 83.1671 45.6438 83.2922 45.667 83.4769C45.6864 83.6116 45.6729 83.7444 45.6267 83.8754C45.5881 83.9909 45.5091 84.1006 45.3895 84.2046C45.2815 84.3048 45.1291 84.3876 44.9323 84.4531C44.6892 84.5341 44.4018 84.617 44.0699 84.7018C43.7381 84.7867 43.3831 84.8793 43.005 84.9795C42.6346 85.0644 42.2584 85.1704 41.8765 85.2976C41.0778 85.5637 40.4469 85.8123 39.984 86.0435C39.5171 86.2631 39.1352 86.4674 38.8381 86.6561C38.5372 86.8334 38.242 86.9701 37.9527 87.0665ZM42.8238 93.2599C42.5692 93.3448 42.3434 93.3044 42.1465 93.139C41.9612 92.9697 41.7913 92.7312 41.6368 92.4232C41.5325 92.1885 41.4223 91.8594 41.3063 91.4361C41.198 90.9972 41.1014 90.5161 41.0163 89.9925C40.9272 89.4576 40.8498 88.9379 40.784 88.4336C40.6987 87.7562 40.6212 87.1595 40.5515 86.6437C40.4895 86.1126 40.4333 85.6756 40.383 85.333L41.9108 84.7087C41.9302 84.9203 41.9555 85.1879 41.9865 85.5113C42.0252 85.8192 42.0717 86.1695 42.126 86.5621C42.1763 86.9432 42.2247 87.3377 42.2712 87.7458C42.3255 88.1384 42.3758 88.5195 42.4223 88.889C42.4998 89.5049 42.5868 90.0149 42.6836 90.4191C42.7879 90.8078 42.8865 91.1215 42.9793 91.3601C43.0719 91.5987 43.1511 91.797 43.2168 91.9547C43.2786 92.101 43.3192 92.2415 43.3385 92.3763C43.358 92.511 43.3503 92.6418 43.3156 92.7688C43.2771 92.8843 43.2134 92.9826 43.1248 93.0635C43.0398 93.1559 42.9396 93.2214 42.8238 93.2599ZM50.7537 90.6188C50.2096 90.8001 49.7195 90.8157 49.2834 90.6658C48.8473 90.5158 48.4882 90.2311 48.2064 89.8117C47.9206 89.3807 47.7312 88.8341 47.6382 88.1721C47.5299 87.3483 47.4272 86.5612 47.3303 85.8105C47.2297 85.0483 47.1405 84.3979 47.0631 83.8589C46.9972 83.3162 46.9546 82.9583 46.9352 82.785C46.912 82.6387 46.9158 82.4964 46.9466 82.3577C46.989 82.2153 47.0565 82.0901 47.149 81.9823C47.2416 81.8745 47.3515 81.7993 47.4789 81.757C47.7451 81.6682 47.9863 81.7355 48.2025 81.9587C48.4303 82.178 48.5733 82.4705 48.6313 82.8362C48.67 83.1826 48.7012 83.6021 48.7245 84.0949C48.7595 84.5837 48.8099 85.0418 48.8757 85.4691C48.8874 85.6193 48.9029 85.8194 48.9223 86.0696C48.9494 86.3044 48.9727 86.5469 48.9922 86.7971C49.0193 87.0319 49.0425 87.2359 49.0619 87.4092C49.1394 88.0635 49.2998 88.5427 49.5431 88.8467C49.7864 89.1507 50.1047 89.2372 50.4983 89.1061C50.7182 89.0328 50.9419 88.8941 51.1695 88.69C51.4087 88.482 51.6246 88.2433 51.8175 87.9737C52.0065 87.6926 52.151 87.4135 52.2512 87.1362C52.3514 86.859 52.3687 86.6222 52.3029 86.426C52.214 86.1218 52.0518 85.9064 51.8165 85.7794C51.5925 85.6487 51.305 85.5776 50.9539 85.5662C50.7531 85.5432 50.5023 85.5433 50.2013 85.5666C49.9003 85.5899 49.5839 85.6247 49.2521 85.671C48.9163 85.7058 48.5999 85.7598 48.3028 85.8332L48.2212 84.6091C48.6147 84.401 49.0506 84.1467 49.529 83.8462C50.0189 83.5419 50.5185 83.2087 51.0278 82.8466C51.5369 82.4845 52.0211 82.1243 52.4801 81.7661C53.0009 81.3616 53.4503 80.9745 53.8282 80.6047C54.2179 80.2311 54.5496 79.9153 54.8235 79.6573C55.105 79.3838 55.3499 79.2124 55.5584 79.143C55.9171 79.0235 56.2298 79.0541 56.4961 79.235C56.7701 79.4003 56.9324 79.6928 56.9828 80.1124C57.0254 80.5089 57.0661 80.8996 57.1049 81.2846C57.1514 81.6541 57.1959 82.037 57.2386 82.4335C57.2812 82.753 57.3355 83.1264 57.4013 83.5537C57.4632 83.9693 57.5348 84.3947 57.616 84.8297C57.6972 85.2647 57.7843 85.6591 57.877 86.0132C57.9544 86.2442 58.0336 86.5001 58.1148 86.7811C58.2037 87.0467 58.2578 87.2468 58.2772 87.3816C58.2965 87.5163 58.2831 87.6491 58.2368 87.78C58.1983 87.8955 58.1288 87.9957 58.0286 88.0804C57.9437 88.1729 57.8377 88.2402 57.7104 88.2827C57.4673 88.3636 57.2434 88.3098 57.0388 88.1213C56.8418 87.9174 56.6816 87.6499 56.558 87.3189C56.3647 86.7415 56.2062 86.1526 56.0824 85.5522C55.9548 84.9402 55.8483 84.3147 55.7631 83.6757C55.7359 83.4024 55.6992 83.1003 55.6527 82.7692C55.6179 82.4343 55.5849 82.1052 55.5538 81.7818C55.5228 81.4585 55.4917 81.1737 55.4608 80.9274C55.4375 80.6656 55.42 80.4788 55.4084 80.3672L55.8774 80.6153C55.6614 80.8541 55.3702 81.1372 55.0037 81.4645C54.6451 81.7766 54.2304 82.1136 53.7597 82.4757C53.2853 82.8262 52.7876 83.1844 52.2668 83.5504C51.746 83.9164 51.2156 84.2727 50.6755 84.6194C50.1431 84.9507 49.6243 85.2455 49.1189 85.5037L49.0838 84.8223C49.1726 84.7799 49.3076 84.7221 49.4889 84.6489C49.678 84.5602 49.8997 84.4735 50.1544 84.3887C50.2934 84.3424 50.4921 84.302 50.7506 84.2672C51.0207 84.2285 51.3062 84.2168 51.6072 84.2321C51.9198 84.2435 52.2286 84.3011 52.5335 84.4049C52.8461 84.4932 53.1164 84.6471 53.3441 84.8664C53.5835 85.0818 53.7573 85.3705 53.8655 85.7323C53.9931 86.1903 53.9818 86.6754 53.8315 87.1875C53.6928 87.6956 53.4634 88.1827 53.1434 88.6487C52.8233 89.1146 52.4531 89.5266 52.0326 89.8849C51.6083 90.2315 51.182 90.4762 50.7537 90.6188Z" fill="#E71985"/>
</svg>
