<svg width="63" height="44" viewBox="0 0 63 44" fill="none" xmlns="http://www.w3.org/2000/svg">
<path d="M13.9309 18.7038L21.8702 16.7678L21.9319 18.9945L16.3884 20.3463L16.5048 23.7084L21.0866 22.5912L21.1449 24.6521L16.5631 25.7693L16.7161 31.1791L14.3203 31.7633L13.9309 18.7038ZM23.0877 19.917L25.2387 19.3925L25.2969 21.4533C25.5863 20.7158 25.9609 20.0995 26.4206 19.6045C26.8892 19.095 27.3916 18.7749 27.9279 18.6441C28.0445 18.6157 28.1333 18.6002 28.1945 18.5976C28.2644 18.5806 28.3183 18.5736 28.3561 18.5767L28.4268 20.7643C27.7623 20.9263 27.1669 21.2197 26.6406 21.6445C26.1231 22.0548 25.7579 22.5576 25.545 23.153L25.7262 28.982L23.3828 29.5534L23.0877 19.917ZM34.0413 27.1396C33.2718 27.3273 32.5617 27.3275 31.9107 27.1404C31.2686 26.9388 30.7249 26.5835 30.2795 26.0745C29.8429 25.551 29.5336 24.9162 29.3515 24.1701C29.1666 23.4124 29.1373 22.6599 29.2638 21.9127C29.3902 21.1654 29.6532 20.4714 30.0526 19.8305C30.4492 19.178 30.9617 18.6207 31.5901 18.1587C32.2156 17.685 32.9364 17.3487 33.7525 17.1497C34.417 16.9876 35.0183 16.946 35.5563 17.0248C36.0943 17.1036 36.5444 17.3026 36.9064 17.6219C37.2656 17.9296 37.512 18.3574 37.6458 18.9053C37.8819 19.8729 37.6181 20.7154 36.8544 21.4327C36.1024 22.1472 34.8462 22.7191 33.0857 23.1484C32.736 23.2337 32.3557 23.3202 31.9448 23.4081C31.5311 23.4843 31.0795 23.5573 30.5901 23.6273L30.5289 22.0859C30.9572 22.0185 31.349 21.9538 31.7044 21.8919C32.057 21.8182 32.4024 21.7402 32.7405 21.6578C33.4983 21.473 34.0801 21.2755 34.4858 21.0654C34.9032 20.8525 35.1868 20.6227 35.3367 20.3762C35.4865 20.1297 35.5287 19.8724 35.4632 19.6043C35.4063 19.3711 35.3025 19.1988 35.1518 19.0873C34.9982 18.9642 34.808 18.8933 34.5811 18.8745C34.363 18.8412 34.114 18.8587 33.8342 18.9269C33.3795 19.0378 32.9868 19.2509 32.6562 19.5662C32.3343 19.867 32.079 20.238 31.8903 20.6793C31.7015 21.1206 31.5897 21.5987 31.5548 22.1136C31.5199 22.6286 31.5678 23.1542 31.6987 23.6904C31.7954 24.0868 31.9478 24.4325 32.1557 24.7277C32.3724 25.0083 32.6362 25.2034 32.947 25.3129C33.2578 25.4224 33.6231 25.4259 34.0428 25.3236C34.5091 25.2099 34.9193 24.9925 35.2732 24.6715C35.6389 24.3477 35.8958 23.9577 36.0439 23.5017L38.0384 23.6267C37.8491 24.1669 37.5537 24.6775 37.1522 25.1582C36.7508 25.639 36.2842 26.0554 35.7525 26.4074C35.2179 26.7477 34.6475 26.9918 34.0413 27.1396ZM43.6731 24.791C42.9037 24.9786 42.1935 24.9788 41.5426 24.7917C40.9005 24.5901 40.3567 24.2348 39.9113 23.7258C39.4748 23.2023 39.1654 22.5676 38.9834 21.8215C38.7984 21.0637 38.7692 20.3112 38.8956 19.564C39.0221 18.8167 39.285 18.1227 39.6844 17.4818C40.081 16.8293 40.5935 16.272 41.2219 15.81C41.8474 15.3363 42.5682 15 43.3843 14.801C44.0489 14.6389 44.6501 14.5973 45.1882 14.6761C45.7262 14.7549 46.1762 14.9539 46.5382 15.2733C46.8974 15.5809 47.1439 16.0087 47.2776 16.5566C47.5137 17.5242 47.25 18.3667 46.4863 19.0841C45.7342 19.7986 44.478 20.3704 42.7176 20.7997C42.3678 20.885 41.9875 20.9716 41.5766 21.0594C41.1629 21.1356 40.7113 21.2086 40.222 21.2786L40.1608 19.7372C40.589 19.6698 40.9808 19.6051 41.3363 19.5432C41.6889 19.4696 42.0342 19.3915 42.3723 19.3091C43.1301 19.1243 43.7119 18.9268 44.1176 18.7167C44.5351 18.5038 44.8187 18.2741 44.9685 18.0275C45.1183 17.781 45.1605 17.5237 45.0951 17.2556C45.0382 17.0224 44.9344 16.8501 44.7836 16.7386C44.6301 16.6155 44.4398 16.5446 44.2129 16.5258C43.9948 16.4925 43.7458 16.51 43.466 16.5782C43.0114 16.6891 42.6187 16.9022 42.288 17.2175C41.9662 17.5183 41.7109 17.8894 41.5221 18.3306C41.3333 18.7719 41.2215 19.25 41.1866 19.765C41.1517 20.2799 41.1997 20.8055 41.3305 21.3417C41.4273 21.7381 41.5796 22.0839 41.7875 22.379C42.0042 22.6597 42.268 22.8547 42.5788 22.9642C42.8896 23.0737 43.2549 23.0773 43.6746 22.9749C44.1409 22.8612 44.5511 22.6438 44.9051 22.3228C45.2707 21.999 45.5276 21.609 45.6757 21.153L47.6702 21.278C47.4809 21.8183 47.1855 22.3288 46.7841 22.8096C46.3826 23.2904 45.916 23.7067 45.3843 24.0587C44.8498 24.3991 44.2794 24.6431 43.6731 24.791Z" fill="#7831B2"/>
<path d="M53.7448 5.37981C55.7343 6.54238 57.4029 7.96858 58.6749 9.64118C61.9727 13.9776 62.0803 19.3023 59.4344 24.5245C58.5155 26.338 57.2648 28.134 55.7048 29.8571C52.8206 32.8297 49.0016 35.5549 44.3682 37.7372C31.9147 43.6027 17.7585 43.589 9.25521 38.6202C7.26566 37.4576 5.59709 36.0314 4.3251 34.3588C1.02731 30.0224 0.919692 24.6977 3.56559 19.4755C4.48448 17.662 5.73519 15.866 7.29517 14.1429C10.1794 11.1703 13.9984 8.44513 18.6318 6.26282C31.0853 0.397314 45.2415 0.411005 53.7448 5.37981Z" stroke="#7831B2" stroke-width="2"/>
</svg>
