<svg width="193" height="119" viewBox="0 0 193 119" fill="none" xmlns="http://www.w3.org/2000/svg">
<path d="M66.8093 70.9022C66.4556 71.0175 66.1507 70.934 65.8945 70.6515C65.6459 70.3539 65.4312 69.8118 65.2503 69.0251C65.0694 68.2384 64.9038 67.1501 64.7533 65.7603C64.595 64.4235 64.4682 63.1837 64.3731 62.0408C64.278 60.898 64.1912 59.9354 64.1128 59.1532C64.0691 58.8645 64.0952 58.6351 64.1912 58.4649C64.2948 58.2796 64.4493 58.1535 64.6547 58.0865C64.8829 58.0121 65.1024 58.1046 65.3132 58.364C65.524 58.6234 65.6655 59.0569 65.7374 59.6645C65.8276 60.4051 65.9136 61.1912 65.9955 62.0228C66.0737 62.843 66.1502 63.6385 66.2249 64.4093C66.2959 65.1687 66.3694 65.839 66.4454 66.4201C66.4809 66.7998 66.5335 67.1739 66.6032 67.5424C66.6844 67.9072 66.7731 68.2759 66.8693 68.6484C66.9656 69.021 67.073 69.4277 67.1916 69.8687C67.2544 70.1385 67.2472 70.368 67.1701 70.5573C67.0893 70.7351 66.969 70.8501 66.8093 70.9022ZM59.4278 73.3479C59.1769 73.4298 58.9381 73.3751 58.7117 73.1839C58.4815 72.9813 58.3305 72.5572 58.2588 71.9116C58.1908 71.2775 58.1208 70.6565 58.0488 70.0489C57.9731 69.4298 57.9012 68.8033 57.8332 68.1691C57.7614 67.5235 57.6822 66.8551 57.5956 66.1639C57.5204 65.469 57.436 64.7266 57.3424 63.9366C57.2488 63.1467 57.1519 62.2885 57.0516 61.3619C57.0079 61.0732 57.034 60.8438 57.13 60.6736C57.2223 60.4921 57.3882 60.3622 57.6277 60.2841C57.8787 60.2022 58.1039 60.2928 58.3034 60.5559C58.5105 60.8039 58.6575 61.2546 58.7444 61.9078C58.8876 63.2369 59.0291 64.5414 59.1689 65.8211C59.3201 67.0972 59.4546 68.3029 59.5725 69.4383C59.7019 70.57 59.8244 71.584 59.94 72.4803C59.9539 72.6777 59.9168 72.8539 59.8285 73.0089C59.7439 73.1753 59.6104 73.2884 59.4278 73.3479ZM57.9935 68.0221C57.6741 68.1263 57.4176 68.1721 57.2242 68.1595C57.0384 68.1317 56.8984 68.0701 56.8041 67.9746C56.7062 67.8678 56.652 67.7403 56.6415 67.5922C56.6234 67.4593 56.6414 67.3209 56.6954 67.177C56.7609 67.0295 56.904 66.9071 57.1247 66.8098C58.1222 66.3077 59.1023 65.8492 60.065 65.4341C61.0278 65.0191 61.9885 64.6363 62.947 64.2858C63.9018 63.9238 64.8755 63.5809 65.868 63.2572C66.1875 63.153 66.4533 63.1167 66.6656 63.1485C66.8856 63.1651 67.0503 63.2249 67.1597 63.3281C67.2691 63.4313 67.3385 63.5474 67.3681 63.6767C67.382 63.8741 67.3277 64.0559 67.2052 64.2221C67.0904 64.3731 66.9189 64.4859 66.6907 64.5603C65.2989 65.0143 64.116 65.4317 63.1421 65.8125C62.1796 66.1896 61.3691 66.5297 60.7107 66.8329C60.0599 67.1209 59.5156 67.3678 59.0779 67.5737C58.6516 67.7759 58.2901 67.9254 57.9935 68.0221ZM72.3479 69.0955C71.8231 69.2667 71.3544 69.2806 70.9416 69.1376C70.5403 68.9909 70.2044 68.7155 69.9337 68.3115C69.6745 67.9038 69.5071 67.3904 69.4313 66.7714C69.3554 66.1903 69.365 65.5813 69.4602 64.9444C69.563 64.2923 69.7398 63.654 69.9905 63.0295C70.2374 62.3936 70.5448 61.8073 70.9125 61.2708C71.288 60.7192 71.7142 60.2457 72.191 59.8503C72.6793 59.4512 73.203 59.1605 73.762 58.9781C74.0244 58.8925 74.2521 58.894 74.4451 58.9825C74.638 59.071 74.7506 59.2615 74.7829 59.5539C74.8048 59.6982 74.7811 59.8385 74.7119 59.9747C74.639 60.0994 74.5093 60.2049 74.3228 60.2909C73.5614 60.6655 72.9129 61.1926 72.3773 61.8722C71.853 62.5481 71.4688 63.2857 71.2246 64.0848C70.9881 64.8688 70.911 65.6387 70.9934 66.3943C71.0329 66.7475 71.0973 67.061 71.1866 67.3348C71.2722 67.5972 71.4409 67.9208 71.6927 68.3057L70.6572 67.3371C70.9482 67.5324 71.1865 67.6441 71.3723 67.6718C71.5695 67.6959 71.8221 67.6577 72.1301 67.5572C72.8602 67.319 73.4492 66.6094 73.897 65.4283C74.3448 64.2472 74.596 62.6569 74.6506 60.6573C74.6597 60.4145 74.7142 60.2138 74.8138 60.055C74.9212 59.8811 75.0719 59.7626 75.2658 59.6993C75.5282 59.6137 75.7651 59.6627 75.9764 59.8462C76.1954 60.0146 76.3493 60.2736 76.4382 60.6233C76.627 61.3569 76.8163 62.0146 77.0061 62.5965C77.2036 63.1632 77.4412 63.6789 77.719 64.1436C78.0083 64.6047 78.3944 65.053 78.8773 65.4888C78.983 65.5805 79.0543 65.7024 79.0912 65.8544C79.1396 66.0027 79.1462 66.1583 79.111 66.3213C79.0872 66.4806 79.0275 66.6263 78.9317 66.7585C78.8437 66.8755 78.7198 66.9601 78.5601 67.0122C78.389 67.0681 78.2409 67.0785 78.1159 67.0435C78.0023 67.0049 77.8908 66.9339 77.7814 66.8307C77.525 66.5863 77.28 66.319 77.0466 66.0291C76.8132 65.7392 76.5877 65.3962 76.3702 65.0002C76.1603 64.589 75.9662 64.0906 75.7878 63.5051C75.6094 62.9195 75.4413 62.2107 75.2835 61.3786L75.8939 61.1606C75.8896 62.4242 75.7877 63.524 75.5881 64.4601C75.3848 65.3847 75.1104 66.1685 74.7647 66.8114C74.4267 67.4391 74.0478 67.9414 73.6279 68.3182C73.2081 68.695 72.7814 68.954 72.3479 69.0955ZM84.2379 65.198C83.485 65.4436 82.8601 65.5401 82.3633 65.4876C81.8666 65.4351 81.4635 65.2635 81.1542 64.9732C80.8563 64.6791 80.6254 64.3 80.4614 63.836C80.3051 63.3569 80.1947 62.8249 80.1301 62.2401C80.0581 61.6324 80.0205 60.9947 80.0172 60.3268C80.0216 59.6437 80.0546 58.9324 80.1163 58.1928C80.1609 57.7491 80.2181 57.4023 80.2881 57.1522C80.358 56.9022 80.4785 56.7493 80.6496 56.6935C80.8892 56.6153 81.111 56.6376 81.3152 56.7604C81.5156 56.8717 81.6281 57.0812 81.6527 57.3887C81.6743 57.571 81.6666 57.8764 81.6297 58.305C81.6042 58.7299 81.5875 59.2591 81.5796 59.8928C81.5718 60.5265 81.6145 61.2573 81.7078 62.0851C81.8052 62.8865 82.0294 63.4192 82.3806 63.6833C82.7433 63.9437 83.3125 63.9473 84.0882 63.6943C84.4077 63.5901 84.8279 63.4467 85.349 63.2641C85.8663 63.0701 86.4236 62.863 87.0208 62.643C87.618 62.4229 88.2038 62.2066 88.7782 61.994C89.3602 61.7663 89.8682 61.5627 90.3019 61.3833C90.7434 61.1889 91.0612 61.041 91.2554 60.9398C91.3962 60.8686 91.5125 60.7802 91.6043 60.6745C91.6923 60.5574 91.7294 60.4002 91.7155 60.2028C91.6442 59.4813 91.5195 58.8088 91.3414 58.1853C91.1709 57.5467 90.9773 56.9724 90.7605 56.4625C90.5551 55.9489 90.3662 55.5246 90.1938 55.1895C90.029 54.8393 89.9282 54.5882 89.8912 54.4361C89.8431 54.2499 89.8746 54.0756 89.9857 53.9131C90.093 53.7393 90.2266 53.6263 90.3863 53.5742C90.6487 53.4885 90.8761 53.528 91.0686 53.6924C91.2688 53.8417 91.4572 54.0516 91.6338 54.3222C91.7615 54.5203 91.9056 54.8267 92.0662 55.2414C92.2344 55.6409 92.4022 56.0974 92.5697 56.6108C92.7485 57.1204 92.8989 57.6394 93.0207 58.1677C93.1502 58.6808 93.242 59.1557 93.2962 59.5925C93.3751 60.2988 93.307 60.8638 93.0917 61.2874C92.8842 61.696 92.4777 62.0557 91.8723 62.3668C91.6553 62.4755 91.3128 62.6251 90.8449 62.8156C90.3731 62.9947 89.833 63.1962 89.2244 63.4199C88.6195 63.6551 87.9995 63.8826 87.3643 64.1024C86.7329 64.3336 86.1395 64.5461 85.5842 64.7399C85.0404 64.9299 84.5916 65.0826 84.2379 65.198ZM87.0704 63.7818C86.9449 63.8227 86.8045 63.818 86.6493 63.7677C86.4903 63.7059 86.3715 63.5932 86.2928 63.4295C86.1656 63.1555 86.0483 62.7961 85.9411 62.3514C85.8416 61.8916 85.7498 61.4167 85.6657 60.9266C85.5893 60.4214 85.5277 59.9618 85.481 59.5479C85.3946 58.8188 85.3514 58.1639 85.3514 57.5833C85.3513 57.0027 85.3691 56.5929 85.4048 56.3541C85.4212 56.172 85.4658 56.0186 85.5387 55.8939C85.6079 55.7577 85.728 55.6617 85.8991 55.6059C86.0475 55.5574 86.1878 55.5622 86.3203 55.62C86.4527 55.6778 86.566 55.7734 86.66 55.9068C86.754 56.0402 86.8155 56.2095 86.8445 56.4146C86.8664 56.5589 86.8726 56.7715 86.8632 57.0522C86.8615 57.3179 86.8633 57.6328 86.8685 57.9972C86.8852 58.3578 86.9187 58.7508 86.9691 59.1761C87.0048 59.5179 87.0612 59.9034 87.1381 60.3327C87.2264 60.7583 87.3223 61.1877 87.4258 61.621C87.5256 62.0429 87.6256 62.4268 87.7258 62.7728C87.7702 62.9476 87.7101 63.1502 87.5454 63.3807C87.377 63.5997 87.2187 63.7334 87.0704 63.7818ZM98.1337 60.6841C97.6089 60.8553 97.1402 60.8693 96.7275 60.7263C96.3261 60.5795 95.9902 60.3041 95.7196 59.9001C95.4603 59.4924 95.2929 58.979 95.2172 58.36C95.1412 57.7789 95.1508 57.1699 95.246 56.533C95.3488 55.8809 95.5256 55.2425 95.7763 54.618C96.0232 53.9822 96.3306 53.3959 96.6984 52.8594C97.0738 52.3078 97.5 51.8343 97.9769 51.4389C98.4652 51.0397 98.9888 50.7491 99.5478 50.5667C99.8102 50.481 100.038 50.4826 100.231 50.5711C100.424 50.6596 100.537 50.8501 100.569 51.1425C100.591 51.2869 100.567 51.4271 100.498 51.5633C100.425 51.688 100.295 51.7935 100.109 51.8795C99.3472 52.2541 98.6987 52.7812 98.1631 53.4608C97.6388 54.1367 97.2546 54.8743 97.0104 55.6734C96.7739 56.4574 96.6968 57.2273 96.7792 57.983C96.8187 58.3361 96.8831 58.6496 96.9724 58.9234C97.058 59.1858 97.2267 59.5094 97.4785 59.8943L96.443 58.9257C96.734 59.1211 96.9723 59.2327 97.1581 59.2604C97.3553 59.2845 97.6079 59.2463 97.9159 59.1458C98.646 58.9076 99.235 58.198 99.6828 57.0169C100.131 55.8358 100.382 54.2454 100.436 52.2458C100.446 52.003 100.5 51.8024 100.6 51.6436C100.707 51.4698 100.858 51.3512 101.052 51.2879C101.314 51.2023 101.551 51.2513 101.762 51.4348C101.981 51.6032 102.135 51.8622 102.224 52.2119C102.413 52.9455 102.602 53.6031 102.792 54.1851C102.989 54.7518 103.227 55.2675 103.505 55.7322C103.794 56.1933 104.18 56.6416 104.663 57.0774C104.769 57.1691 104.84 57.291 104.877 57.443C104.926 57.5913 104.932 57.747 104.897 57.9099C104.873 58.0692 104.813 58.2149 104.718 58.3471C104.63 58.4641 104.506 58.5487 104.346 58.6008C104.175 58.6567 104.027 58.6671 103.902 58.6321C103.788 58.5935 103.677 58.5225 103.567 58.4194C103.311 58.1749 103.066 57.9076 102.833 57.6177C102.599 57.3278 102.374 56.9848 102.156 56.5888C101.946 56.1776 101.752 55.6791 101.574 55.0937C101.395 54.508 101.227 53.7993 101.069 52.9672L101.68 52.7492C101.676 54.0128 101.574 55.1127 101.374 56.0487C101.171 56.9733 100.896 57.7571 100.551 58.4C100.213 59.0277 99.8336 59.53 99.4138 59.9068C98.9939 60.2836 98.5672 60.5427 98.1337 60.6841ZM119.169 53.8412C118.827 53.9528 118.417 53.9729 117.939 53.9016C117.458 53.8187 116.96 53.6657 116.445 53.4423C115.942 53.2152 115.46 52.9559 114.999 52.6645C114.549 52.3695 114.173 52.069 113.872 51.7635C113.698 51.6182 113.57 51.4771 113.487 51.3399C113.413 51.1877 113.357 51.0355 113.32 50.8835C113.324 50.781 113.336 50.6635 113.356 50.5308C113.376 50.3981 113.416 50.2712 113.478 50.1502C113.555 49.923 113.709 49.6014 113.94 49.1855C114.17 48.7695 114.444 48.314 114.762 47.819C115.088 47.3087 115.435 46.8233 115.802 46.3627C116.177 45.887 116.542 45.4776 116.897 45.1346C117.264 44.7878 117.601 44.5642 117.909 44.4637C118.034 44.4228 118.141 44.4197 118.228 44.4544C118.326 44.4854 118.407 44.5409 118.471 44.621C118.535 44.7011 118.577 44.7887 118.595 44.8836C118.665 45.1384 118.578 45.4319 118.333 45.7643C118.088 46.0965 117.815 46.4193 117.513 46.7324C116.982 47.3095 116.523 47.8568 116.136 48.3742C115.75 48.8916 115.447 49.3375 115.228 49.7118C115.021 50.0823 114.93 50.3265 114.956 50.4443C114.97 50.5658 115.11 50.7412 115.374 50.9706C115.634 51.1886 115.999 51.4168 116.468 51.6551C116.933 51.882 117.454 52.0656 118.03 52.2059C118.291 52.2721 118.545 52.3344 118.791 52.3929C119.045 52.4363 119.256 52.5003 119.422 52.5848C119.596 52.6543 119.702 52.765 119.739 52.917C119.768 53.0462 119.766 53.1734 119.731 53.2984C119.696 53.4234 119.625 53.5349 119.518 53.6328C119.422 53.7271 119.306 53.7965 119.169 53.8412ZM113.465 55.6829C113.169 55.7797 112.921 55.6964 112.721 55.4333C112.518 55.1588 112.346 54.7289 112.206 54.1436C112.073 53.5432 111.952 52.8062 111.844 51.9327C111.801 51.5682 111.764 51.1827 111.732 50.7765C111.712 50.3665 111.692 49.9566 111.672 49.5466C111.648 49.1252 111.611 48.7208 111.56 48.3334C111.553 48.2346 111.54 48.1379 111.522 48.0429C111.511 47.9328 111.495 47.8245 111.473 47.7181C111.444 47.4751 111.445 47.2663 111.477 47.092C111.508 46.9176 111.562 46.7738 111.639 46.6604C111.723 46.5319 111.823 46.4491 111.937 46.4118C112.199 46.3262 112.443 46.3791 112.67 46.5703C112.904 46.7463 113.044 47.0603 113.091 47.5122C113.127 47.816 113.151 48.1995 113.163 48.6625C113.183 49.1104 113.201 49.5716 113.217 50.0461C113.233 50.5205 113.26 50.9343 113.3 51.2875C113.391 51.9142 113.484 52.4708 113.579 52.9571C113.686 53.4397 113.784 53.8369 113.874 54.1487C113.959 54.449 114.003 54.6618 114.006 54.7871C114.028 54.9314 114.016 55.0679 113.969 55.1967C113.931 55.3103 113.867 55.4066 113.78 55.4857C113.707 55.5726 113.602 55.6383 113.465 55.6829ZM125.7 51.7297C124.765 52.0349 123.928 52.0807 123.189 51.8673C122.462 51.6501 121.871 51.2307 121.415 50.6093C120.968 49.9726 120.683 49.1758 120.56 48.2187C120.477 47.5389 120.511 46.9092 120.663 46.3296C120.823 45.7348 121.042 45.2086 121.322 44.7514C121.614 44.2902 121.933 43.9147 122.28 43.6248C122.624 43.3234 122.938 43.1262 123.223 43.0332C123.349 42.9922 123.457 42.9757 123.548 42.984C123.65 42.9885 123.737 43.0232 123.809 43.0882C123.888 43.138 123.937 43.2294 123.955 43.3623C123.973 43.6091 123.95 43.8499 123.888 44.0848C123.822 44.3083 123.642 44.55 123.348 44.8099C123.001 45.1378 122.724 45.4681 122.517 45.8007C122.317 46.1182 122.182 46.4589 122.111 46.8227C122.037 47.1752 122.035 47.5736 122.104 48.018C122.223 49.0017 122.573 49.7078 123.155 50.1366C123.733 50.554 124.432 50.6287 125.254 50.3607C126.052 50.1002 126.655 49.588 127.062 48.8241C127.477 48.045 127.619 47.1465 127.489 46.1287C127.385 45.1907 127.105 44.5247 126.648 44.131C126.188 43.7257 125.616 43.6348 124.931 43.8581C124.577 43.9735 124.297 44.1406 124.091 44.3593C123.896 44.5744 123.693 44.8424 123.483 45.1637C123.333 45.4017 123.218 45.6098 123.137 45.7876C123.056 45.9655 122.977 46.111 122.901 46.2243C122.832 46.3226 122.723 46.3959 122.575 46.4443C122.415 46.4964 122.273 46.486 122.148 46.4131C122.031 46.3251 121.956 46.1538 121.924 45.8994C121.884 45.6221 121.928 45.3112 122.055 44.9667C122.194 44.6185 122.386 44.2782 122.631 43.9458C122.884 43.5983 123.176 43.2947 123.508 43.035C123.836 42.7639 124.182 42.5688 124.547 42.4497C125.369 42.1817 126.099 42.158 126.739 42.3784C127.376 42.5874 127.895 42.9987 128.297 43.6122C128.695 44.2144 128.945 44.9786 129.045 45.9053C129.164 46.813 129.102 47.6665 128.858 48.4656C128.61 49.2533 128.213 49.9319 127.666 50.5014C127.131 51.0672 126.476 51.4767 125.7 51.7297ZM132.702 49.4269C132.428 49.5162 132.17 49.4235 131.929 49.1487C131.688 48.8739 131.526 48.3965 131.443 47.7168C131.4 47.3902 131.356 46.8871 131.311 46.2075C131.262 45.5166 131.284 44.752 131.377 43.914C131.482 42.9204 131.606 42.1224 131.751 41.52C131.891 40.9061 132.073 40.4367 132.295 40.1118C132.517 39.7868 132.782 39.5742 133.09 39.4737C133.33 39.3955 133.544 39.433 133.733 39.586C133.933 39.7353 134.106 39.9375 134.252 40.1927C134.399 40.4479 134.534 40.7068 134.657 40.9694C134.822 41.3196 135.011 41.706 135.225 42.1286C135.45 42.5475 135.682 42.9701 135.922 43.3968C136.174 43.8195 136.429 44.2159 136.689 44.5857C136.96 44.9517 137.227 45.2494 137.491 45.4788L136.92 45.8167C137.039 45.0584 137.18 44.2929 137.345 43.5198C137.509 42.7467 137.683 42.0021 137.866 41.2861C138.049 40.57 138.229 39.9242 138.407 39.3485C138.613 38.7389 138.807 38.2904 138.991 38.0032C139.186 37.7123 139.387 37.5333 139.592 37.4663C139.74 37.4179 139.889 37.4075 140.036 37.435C140.18 37.4511 140.311 37.4842 140.428 37.5343C140.595 37.6189 140.742 37.7412 140.87 37.9015C140.998 38.0617 141.099 38.3317 141.172 38.7117C141.338 39.5666 141.511 40.3305 141.693 41.0033C141.882 41.661 142.055 42.2105 142.211 42.6517C142.48 43.4352 142.741 44.044 142.997 44.4783C143.263 44.9088 143.402 45.1981 143.412 45.3461C143.438 45.5019 143.397 45.6477 143.29 45.7837C143.198 45.9273 143.061 46.0288 142.878 46.0884C142.604 46.1777 142.333 46.1209 142.065 45.9181C141.808 45.7115 141.585 45.3932 141.394 44.9632C141.214 44.5673 141.011 44.0594 140.783 43.4394C140.567 42.8157 140.355 42.1085 140.148 41.3178C139.948 40.512 139.775 39.6723 139.629 38.7985L140.086 38.5169C139.943 39.0055 139.784 39.5623 139.609 40.1873C139.442 40.7972 139.271 41.4336 139.096 42.0966C138.932 42.7558 138.778 43.4057 138.633 44.046C138.5 44.6827 138.392 45.2797 138.309 45.837C138.254 46.0947 138.162 46.3142 138.031 46.4955C137.913 46.6731 137.745 46.7972 137.528 46.868C137.254 46.9572 137.006 46.969 136.782 46.903C136.566 46.8219 136.359 46.6878 136.159 46.5006C135.966 46.2982 135.778 46.0693 135.594 45.8139C135.496 45.6689 135.361 45.467 135.188 45.2079C135.011 44.9373 134.823 44.6325 134.624 44.2935C134.426 43.9545 134.225 43.5908 134.022 43.2024C133.82 42.814 133.631 42.4276 133.455 42.0432C133.275 41.6474 133.128 41.2727 133.013 40.919L133.481 40.6147C133.276 41.3002 133.112 41.9594 132.99 42.5924C132.88 43.2216 132.815 43.8549 132.796 44.4923C132.784 45.1146 132.816 45.7732 132.891 46.4682C132.945 46.9429 133.003 47.3531 133.066 47.6988C133.139 48.0408 133.187 48.303 133.209 48.4852C133.226 48.6941 133.2 48.8855 133.131 49.0597C133.062 49.2338 132.918 49.3562 132.702 49.4269ZM147.466 44.5918C146.941 44.7629 146.473 44.777 146.06 44.6339C145.659 44.4871 145.323 44.2118 145.052 43.8078C144.793 43.4001 144.625 42.8867 144.55 42.2677C144.474 41.6866 144.483 41.0776 144.578 40.4406C144.681 39.7886 144.858 39.1503 145.109 38.5258C145.356 37.8898 145.663 37.3036 146.031 36.7671C146.406 36.2155 146.832 35.742 147.309 35.3466C147.798 34.9475 148.321 34.6568 148.88 34.4744C149.143 34.3888 149.37 34.3903 149.563 34.4788C149.756 34.5673 149.869 34.7578 149.901 35.0502C149.923 35.1945 149.899 35.3348 149.83 35.471C149.757 35.5957 149.627 35.7011 149.441 35.7872C148.68 36.1618 148.031 36.6889 147.495 37.3685C146.971 38.0444 146.587 38.7819 146.343 39.5811C146.106 40.3651 146.029 41.1349 146.112 41.8906C146.151 42.2438 146.215 42.5573 146.305 42.8311C146.39 43.0935 146.559 43.4171 146.811 43.802L145.775 42.8334C146.066 43.0288 146.305 43.1404 146.49 43.1681C146.688 43.1922 146.94 43.1539 147.248 43.0535C147.978 42.8153 148.567 42.1057 149.015 40.9246C149.463 39.7434 149.714 38.1531 149.769 36.1536C149.778 35.9108 149.832 35.71 149.932 35.5513C150.039 35.3774 150.19 35.2589 150.384 35.1956C150.646 35.11 150.883 35.159 151.095 35.3425C151.314 35.5109 151.468 35.7699 151.556 36.1196C151.745 36.8532 151.934 37.5109 152.124 38.0927C152.322 38.6594 152.559 39.1752 152.837 39.6399C153.126 40.101 153.513 40.5493 153.995 40.985C154.101 41.0768 154.172 41.1987 154.209 41.3507C154.258 41.499 154.264 41.6547 154.229 41.8176C154.205 41.9768 154.146 42.1226 154.05 42.2548C153.962 42.3718 153.838 42.4564 153.678 42.5085C153.507 42.5643 153.359 42.5748 153.234 42.5398C153.121 42.5011 153.009 42.4302 152.9 42.3271C152.643 42.0825 152.398 41.8153 152.165 41.5254C151.931 41.2355 151.706 40.8925 151.488 40.4965C151.278 40.0853 151.084 39.5869 150.906 39.0014C150.728 38.4158 150.559 37.707 150.402 36.8749L151.012 36.6568C151.008 37.9205 150.906 39.0203 150.706 39.9564C150.503 40.881 150.229 41.6648 149.883 42.3076C149.545 42.9354 149.166 43.4377 148.746 43.8145C148.326 44.1912 147.9 44.4503 147.466 44.5918ZM157.057 41.4821C156.783 41.5714 156.533 41.5205 156.307 41.3293C156.08 41.1381 155.881 40.837 155.709 40.426C155.545 40 155.425 39.4774 155.349 38.8584C155.31 38.4293 155.297 38.0611 155.311 37.7538C155.336 37.4428 155.385 37.187 155.458 36.9863C155.539 36.7705 155.643 36.6042 155.769 36.4874C155.872 36.378 156.036 36.2804 156.26 36.1946C156.481 36.0973 156.717 36.0078 156.968 35.9259C157.8 35.6542 158.609 35.3464 159.393 35.0023C160.184 34.6431 160.933 34.2096 161.638 33.7018L162.331 34.7821C161.813 35.2038 161.229 35.5833 160.582 35.9207C159.935 36.2581 159.265 36.5649 158.573 36.8413C157.888 37.1025 157.215 37.3411 156.553 37.5569L155.51 37.7267C155.464 37.2368 155.414 36.7356 155.36 36.2229C155.307 35.7103 155.249 35.2052 155.188 34.7077C155.138 34.2065 155.09 33.7489 155.043 33.3349C155 33.0463 155.018 32.794 155.099 32.5782C155.18 32.3625 155.307 32.2267 155.478 32.1708C155.763 32.0778 156.011 32.123 156.222 32.3065C156.43 32.4786 156.561 32.821 156.614 33.3337C156.651 33.5995 156.681 33.9242 156.705 34.3076C156.729 34.691 156.753 35.0935 156.777 35.5148C156.812 35.9325 156.842 36.333 156.866 36.7165C156.898 37.0848 156.928 37.3904 156.957 37.6335C157.036 38.3398 157.126 38.9666 157.229 39.5137C157.34 40.0457 157.415 40.4503 157.455 40.7276C157.473 40.8985 157.441 41.0538 157.361 41.1937C157.295 41.3413 157.194 41.4374 157.057 41.4821ZM162.961 39.5562C162.676 39.6493 162.416 39.5508 162.183 39.2609C161.961 38.9673 161.763 38.5334 161.588 37.9593C161.421 37.37 161.292 36.7051 161.202 35.9645C161.073 34.7949 160.99 33.8627 160.953 33.168C160.923 32.4582 160.921 31.8909 160.947 31.466C160.956 31.1853 160.998 30.9256 161.071 30.687C161.145 30.4484 161.279 30.2975 161.473 30.2342C161.724 30.1523 161.939 30.2144 162.12 30.4205C162.309 30.6115 162.423 30.8835 162.462 31.2367C162.516 31.6734 162.536 32.1593 162.521 32.6943C162.518 33.2255 162.556 33.7874 162.636 34.3799C162.722 35.1091 162.828 35.7625 162.953 36.3401C163.086 36.9026 163.208 37.3739 163.32 37.7541C163.431 38.1343 163.494 38.4231 163.508 38.6205C163.54 38.837 163.503 39.0322 163.396 39.2061C163.288 39.38 163.143 39.4967 162.961 39.5562ZM166.115 37.4481C166.152 37.0575 166.215 36.6138 166.306 36.1174C166.393 35.6094 166.491 35.0788 166.601 34.5254C166.722 33.9684 166.847 33.4227 166.976 32.8885C167.112 32.3391 167.246 31.841 167.378 31.394C167.556 30.8184 167.744 30.2712 167.941 29.7526C168.137 29.234 168.343 28.8008 168.558 28.453C168.78 28.0902 169 27.8734 169.217 27.8027C169.445 27.7283 169.676 27.7601 169.911 27.8982C170.156 28.0326 170.42 28.3 170.702 28.7002C170.898 28.9899 171.127 29.3632 171.39 29.8203C171.652 30.2774 171.924 30.7819 172.205 31.334C172.483 31.8746 172.745 32.4266 172.992 32.9898C173.238 33.553 173.448 34.078 173.619 34.5649L172.158 35.193C171.968 34.6491 171.734 34.0689 171.457 33.4524C171.188 32.8207 170.904 32.2192 170.604 31.6482C170.304 31.077 170.024 30.5876 169.765 30.1799C169.502 29.7607 169.282 29.4918 169.104 29.373L169.727 29.0184C169.488 29.5254 169.249 30.1082 169.01 30.767C168.782 31.422 168.59 32.1096 168.433 32.8296C168.316 33.3601 168.208 33.8622 168.11 34.3359C168.012 34.8096 167.928 35.2664 167.857 35.7061C167.793 36.1307 167.734 36.5667 167.678 37.0142L166.115 37.4481ZM174.591 38.2995C174.363 38.374 174.16 38.3518 173.982 38.233C173.805 38.1142 173.707 37.9504 173.69 37.7416C173.668 37.5973 173.675 37.3677 173.711 37.053C173.751 36.7497 173.784 36.4045 173.809 36.0176C173.834 35.6306 173.821 35.2436 173.771 34.8562L174.671 35.5279C174.504 35.5572 174.246 35.6163 173.896 35.7051C173.558 35.7901 173.132 35.9165 172.619 36.084C172.014 36.2812 171.394 36.4897 170.759 36.7095C170.135 36.9256 169.519 37.1456 168.911 37.3693C168.313 37.5894 167.748 37.8115 167.216 38.0358C166.683 38.2601 166.2 38.4809 165.766 38.6982L166.238 37.8815C166.263 38.0373 166.3 38.2272 166.348 38.4514C166.396 38.6756 166.449 38.898 166.509 39.1185C166.572 39.3504 166.625 39.5537 166.67 39.7286C166.726 39.8997 166.765 40.0195 166.787 40.0879C166.839 40.2856 166.819 40.4562 166.727 40.5998C166.638 40.7549 166.497 40.864 166.303 40.9273C166.03 41.0166 165.806 40.9696 165.633 40.7863C165.459 40.6031 165.324 40.3631 165.227 40.0665C165.156 39.8877 165.086 39.652 165.016 39.3593C164.945 39.0667 164.901 38.8349 164.883 38.664C164.87 38.4666 164.886 38.2846 164.933 38.1179C164.964 37.9435 165.043 37.779 165.169 37.6242C165.295 37.4694 165.476 37.3283 165.713 37.2008C165.983 37.0621 166.352 36.8975 166.82 36.707C167.296 36.5013 167.832 36.2885 168.429 36.0684C169.034 35.8332 169.66 35.6039 170.307 35.3803C170.949 35.1454 171.567 34.9312 172.161 34.7377C172.457 34.6409 172.784 34.5405 173.142 34.4366C173.495 34.3212 173.845 34.2324 174.191 34.1701C174.533 34.0964 174.789 34.1265 174.959 34.2604C175.14 34.3906 175.256 34.6494 175.306 35.0368C175.342 35.3406 175.356 35.6709 175.346 36.0275C175.336 36.3842 175.296 36.7254 175.225 37.0513C175.17 37.3849 175.085 37.6652 174.969 37.8921C174.865 38.1154 174.739 38.2512 174.591 38.2995ZM178.85 34.3542C178.325 34.5254 177.857 34.5394 177.444 34.3964C177.043 34.2496 176.707 33.9742 176.436 33.5702C176.177 33.1625 176.009 32.6491 175.934 32.0301C175.858 31.449 175.867 30.84 175.963 30.203C176.065 29.551 176.242 28.9127 176.493 28.2882C176.74 27.6522 177.047 27.066 177.415 26.5295C177.79 25.9779 178.217 25.5044 178.693 25.109C179.182 24.7099 179.705 24.4192 180.264 24.2368C180.527 24.1512 180.754 24.1527 180.947 24.2412C181.14 24.3297 181.253 24.5202 181.285 24.8126C181.307 24.9569 181.283 25.0972 181.214 25.2334C181.141 25.3581 181.012 25.4635 180.825 25.5496C180.064 25.9242 179.415 26.4513 178.88 27.1309C178.355 27.8068 177.971 28.5443 177.727 29.3435C177.49 30.1275 177.413 30.8973 177.496 31.653C177.535 32.0062 177.6 32.3197 177.689 32.5935C177.775 32.8559 177.943 33.1795 178.195 33.5644L177.16 32.5958C177.451 32.7912 177.689 32.9028 177.875 32.9305C178.072 32.9546 178.324 32.9163 178.632 32.8159C179.363 32.5777 179.952 31.8681 180.399 30.687C180.847 29.5059 181.098 27.9155 181.153 25.916C181.162 25.6732 181.217 25.4724 181.316 25.3137C181.424 25.1398 181.574 25.0213 181.768 24.958C182.031 24.8724 182.267 24.9214 182.479 25.1049C182.698 25.2733 182.852 25.5323 182.941 25.882C183.129 26.6156 183.319 27.2733 183.508 27.8552C183.706 28.4218 183.944 28.9376 184.221 29.4023C184.511 29.8634 184.897 30.3117 185.38 30.7474C185.485 30.8392 185.557 30.9611 185.594 31.1131C185.642 31.2614 185.649 31.4171 185.613 31.58C185.59 31.7392 185.53 31.885 185.434 32.0172C185.346 32.1342 185.222 32.2188 185.062 32.2709C184.891 32.3267 184.743 32.3372 184.618 32.3022C184.505 32.2635 184.393 32.1926 184.284 32.0895C184.027 31.8449 183.782 31.5777 183.549 31.2878C183.316 30.9979 183.09 30.6549 182.873 30.2589C182.663 29.8477 182.469 29.3493 182.29 28.7638C182.112 28.1782 181.944 27.4694 181.786 26.6373L182.396 26.4193C182.392 27.6829 182.29 28.7827 182.09 29.7188C181.887 30.6434 181.613 31.4272 181.267 32.0701C180.929 32.6978 180.55 33.2001 180.13 33.5769C179.71 33.9537 179.284 34.2128 178.85 34.3542ZM65.7536 88.0386C65.2972 88.1876 64.8545 88.2816 64.4255 88.3206C64.0041 88.3436 63.6172 88.3186 63.2647 88.2446C62.9237 88.1665 62.6343 88.0336 62.3964 87.8456C62.1699 87.6545 62.0234 87.4185 61.9569 87.1376C61.9051 86.9396 61.9157 86.7596 61.9889 86.5965C62.0697 86.4185 62.1843 86.3055 62.3326 86.2576C62.4695 86.2126 62.6116 86.2426 62.759 86.3456C62.914 86.4335 63.1011 86.5436 63.3204 86.6736C63.5473 86.7886 63.8314 86.8666 64.1727 86.9066C64.5103 86.9356 64.9414 86.8645 65.4662 86.6936C66.2306 86.4436 66.7677 86.1176 67.0777 85.7136C67.3954 85.2936 67.4965 84.9075 67.3812 84.5536C67.3293 84.3566 67.1955 84.2166 66.9797 84.1356C66.7716 84.0396 66.4854 83.9936 66.1211 83.9995C65.753 83.9936 65.2879 84.0376 64.7256 84.1326C64.2735 84.2166 63.9661 84.2225 63.8034 84.1496C63.6483 84.0616 63.5543 83.9276 63.5213 83.7495C63.4732 83.5626 63.5463 83.4006 63.7408 83.2616C63.9352 83.1216 64.2742 82.9226 64.7578 82.6646C65.3937 82.3306 65.8741 81.9846 66.1989 81.6266C66.5352 81.2636 66.657 80.9216 66.5642 80.5986C66.4751 80.2866 66.2562 80.0996 65.9075 80.0366C65.555 79.9616 65.1278 80.0066 64.6259 80.1706C64.0555 80.3566 63.6062 80.5845 63.2781 80.8556C62.9463 81.1156 62.6905 81.3566 62.5107 81.5796C62.3423 81.7986 62.1954 81.9286 62.0699 81.9696C61.9444 82.0106 61.8325 81.9966 61.7343 81.9276C61.6475 81.8546 61.5893 81.7535 61.5598 81.6245C61.5042 81.4156 61.5285 81.1806 61.6326 80.9196C61.7482 80.6546 61.9264 80.3885 62.1672 80.1206C62.4194 79.8485 62.7359 79.6003 63.1169 79.375C63.5055 79.1346 63.9451 78.9345 64.4356 78.7744C65.4396 78.4469 66.2406 78.3876 66.8389 78.5964C67.4485 78.8014 67.8461 79.2271 68.0317 79.8736C68.1243 80.2346 68.0952 80.6286 67.9444 81.0566C67.8014 81.4696 67.5179 81.8776 67.0941 82.2806C66.6666 82.6726 66.0761 83.0296 65.3226 83.3506L65.2218 83.0996C65.9291 82.8696 66.5294 82.7556 67.0227 82.7586C67.5237 82.7466 67.9253 82.8556 68.2274 83.0846C68.5372 83.2996 68.7514 83.6275 68.87 84.0686C69.0223 84.5735 68.9772 85.0936 68.7347 85.6266C68.4999 86.1456 68.1192 86.6226 67.5927 87.0596C67.0625 87.4856 66.4495 87.8116 65.7536 88.0386ZM73.5497 85.5336C73.0249 85.7046 72.5562 85.7186 72.1435 85.5756C71.7422 85.4286 71.4062 85.1535 71.1356 84.7495C70.8764 84.3416 70.7089 83.8286 70.6332 83.2085C70.5572 82.6275 70.5668 82.0186 70.662 81.3816C70.7649 80.7296 70.9416 80.0916 71.1923 79.4672C71.4393 78.8313 71.7466 78.2449 72.1144 77.7085C72.4898 77.1569 72.916 76.6834 73.3929 76.288C73.8812 75.8889 74.4048 75.5982 74.9639 75.4158C75.2262 75.3302 75.4539 75.3316 75.6469 75.4202C75.8399 75.5087 75.9525 75.6992 75.9847 75.9916C76.0066 76.136 75.9829 76.2762 75.9137 76.4124C75.8408 76.5371 75.7111 76.6426 75.5246 76.7286C74.7633 77.1032 74.1148 77.6302 73.5791 78.31C73.0549 78.9859 72.6706 79.7235 72.4264 80.5226C72.1899 81.3065 72.1129 82.0766 72.1953 82.8316C72.2347 83.1855 72.2991 83.4986 72.3885 83.7726C72.474 84.0346 72.6427 84.3586 72.8945 84.7436L71.8591 83.7746C72.15 83.9706 72.3884 84.0816 72.5741 84.1096C72.7713 84.1336 73.0239 84.0956 73.3319 83.9946C74.0621 83.7566 74.651 83.0466 75.0988 81.8656C75.5466 80.6846 75.7978 79.0946 75.8524 77.0951C75.8616 76.8522 75.916 76.6515 76.0157 76.4927C76.1231 76.3189 76.2737 76.2003 76.4677 76.137C76.73 76.0514 76.9669 76.1003 77.1782 76.2839C77.3973 76.4523 77.5512 76.7113 77.64 77.061C77.8288 77.7945 78.0181 78.4523 78.2079 79.0342C78.4054 79.6009 78.643 80.1166 78.9209 80.5816C79.2101 81.0425 79.5962 81.4906 80.0791 81.9266C80.1848 82.0186 80.2561 82.1406 80.2931 82.2926C80.3415 82.4406 80.348 82.5956 80.3128 82.7586C80.2891 82.9186 80.2293 83.0636 80.1336 83.1966C80.0455 83.3136 79.9217 83.3976 79.762 83.4496C79.5908 83.5056 79.4428 83.5166 79.3178 83.4816C79.2042 83.4426 79.0927 83.3716 78.9833 83.2686C78.7268 83.0236 78.4819 82.7566 78.2485 82.4666C78.015 82.1766 77.7896 81.8336 77.572 81.4376C77.3621 81.0266 77.168 80.5285 76.9896 79.9426C76.8112 79.3571 76.6431 78.6484 76.4853 77.8163L77.0958 77.5983C77.0915 78.8619 76.9895 79.9616 76.79 80.8976C76.5867 81.8226 76.3122 82.6066 75.9665 83.2486C75.6286 83.8765 75.2496 84.3796 74.8298 84.7556C74.4099 85.1326 73.9832 85.3916 73.5497 85.5336ZM87.8142 80.9176C87.6545 80.9696 87.5122 80.9595 87.3875 80.8866C87.2778 80.8215 87.1856 80.7126 87.1106 80.5606C87.0243 80.4116 86.9742 80.2385 86.9603 80.0415C86.9389 79.8215 86.958 79.5122 87.0175 79.1141C87.0847 78.7009 87.1844 78.2329 87.3168 77.71C87.4455 77.1758 87.5856 76.6378 87.737 76.0961C87.9039 75.5242 88.0783 74.9561 88.2603 74.3918C88.45 73.8125 88.6393 73.29 88.8282 72.8244C89.0134 72.3475 89.1734 71.967 89.308 71.6833C89.5232 71.2598 89.7493 70.9273 89.9861 70.6859C90.2306 70.4295 90.5012 70.2528 90.7978 70.1561C91.0716 70.0667 91.2915 70.1023 91.4574 70.2628C91.6196 70.4118 91.7758 70.6196 91.9259 70.8862C92.0797 71.1643 92.2445 71.4955 92.4204 71.8799C92.5963 72.2643 92.7816 72.6581 92.9763 73.0617C93.1673 73.4538 93.366 73.8307 93.5724 74.1926C93.82 74.642 94.0395 75.0247 94.231 75.341C94.4339 75.6535 94.6144 75.9165 94.7724 76.13C94.9418 76.3398 95.0944 76.5173 95.23 76.6623C95.3583 76.7846 95.4638 76.8953 95.5467 76.9945C95.6295 77.0937 95.6857 77.2078 95.7152 77.3371C95.7522 77.4892 95.7531 77.6467 95.7179 77.8096C95.6827 77.9726 95.6135 78.1087 95.5103 78.2181C95.4223 78.3352 95.3041 78.4179 95.1558 78.4663C94.9391 78.537 94.7116 78.4976 94.4735 78.3481C94.2431 78.1833 94.0056 77.9389 93.761 77.6149C93.5164 77.2906 93.274 76.9344 93.0336 76.5457C92.891 76.302 92.7033 75.9782 92.4706 75.5744C92.2456 75.1556 92.0095 74.7024 91.7621 74.215C91.5111 73.7163 91.2789 73.2368 91.0656 72.7762C90.8636 72.312 90.7049 71.922 90.5893 71.6063L90.9762 71.6315C90.7535 72.0323 90.5283 72.5223 90.3007 73.1015C90.0808 73.6655 89.8605 74.2863 89.6398 74.9641C89.4306 75.6384 89.2345 76.3335 89.0515 77.0495C88.8799 77.7618 88.7369 78.4648 88.6224 79.1586C88.5166 79.6854 88.4096 80.0926 88.3015 80.3806C88.2048 80.6646 88.0423 80.8436 87.8142 80.9176ZM105.691 75.0865C104.95 75.3284 104.295 75.3906 103.726 75.2731C103.165 75.1404 102.694 74.8964 102.313 74.5411C101.932 74.1857 101.63 73.7606 101.405 73.2659C101.192 72.7674 101.061 72.2674 101.011 71.7663C100.946 71.2572 100.957 70.7488 101.043 70.241C101.126 69.7215 101.266 69.2215 101.463 68.7409C101.671 68.2565 101.913 67.8178 102.188 67.4249C102.472 67.017 102.778 66.6774 103.106 66.4062C103.442 66.1199 103.781 65.9211 104.123 65.8095C104.26 65.7648 104.385 65.7618 104.499 65.8005C104.612 65.8391 104.714 65.9005 104.805 65.9846C104.895 66.0686 104.957 66.181 104.99 66.3216C105.005 66.3673 104.929 66.4806 104.761 66.6617C104.592 66.8428 104.394 67.0654 104.164 67.3295C103.931 67.5823 103.709 67.8503 103.499 68.1336C103.285 68.4053 103.135 68.6625 103.05 68.9048C102.822 69.446 102.645 69.9458 102.517 70.4041C102.385 70.8511 102.248 71.224 102.105 71.5228C101.971 71.8065 101.778 71.9893 101.527 72.0713C101.059 72.2239 100.698 72.3543 100.443 72.4628C100.199 72.5674 99.9972 72.6838 99.837 72.8118C99.6882 72.9361 99.5372 73.1115 99.3839 73.3382C99.2002 73.5874 99.0502 73.9015 98.9339 74.2803C98.829 74.6553 98.7488 75.0285 98.6933 75.4001C98.6455 75.7565 98.6114 76.0389 98.5911 76.2476C98.539 76.6684 98.4649 76.9829 98.3687 77.191C98.2688 77.3877 98.1447 77.5103 97.9963 77.5586C97.7682 77.6331 97.5673 77.5976 97.3937 77.4523C97.22 77.307 97.1116 77.052 97.0684 76.6875C97.0391 76.5203 97.0333 76.2508 97.0509 75.879C97.0684 75.5073 97.0844 75.0918 97.0987 74.6328C97.1207 74.1585 97.1331 73.7126 97.1358 73.2952C97.1462 72.8627 97.1332 72.5135 97.097 72.2477C97.0391 71.7995 96.9508 71.374 96.832 70.9709C96.7245 70.5642 96.6187 70.201 96.5145 69.8817C96.4066 69.5508 96.34 69.2886 96.3147 69.0949C96.2893 68.9012 96.319 68.7211 96.4035 68.5547C96.4995 68.3845 96.6444 68.2678 96.8384 68.2046C97.1008 68.1189 97.3188 68.1488 97.4924 68.2942C97.6623 68.4281 97.807 68.6396 97.9266 68.9288C97.9901 69.0848 98.0665 69.2997 98.1559 69.5735C98.2452 69.8473 98.3267 70.1552 98.4004 70.4972C98.4818 70.8241 98.546 71.1565 98.5932 71.4946C98.6217 71.7756 98.6367 72.1115 98.6379 72.5023C98.6506 72.8895 98.6499 73.2937 98.6358 73.7148C98.618 74.1245 98.5928 74.5114 98.5601 74.8755C98.5388 75.2358 98.516 75.5337 98.4917 75.7688C98.4751 75.9888 98.4668 76.0988 98.4668 76.0988L97.2544 76.0967C97.2558 75.869 97.2765 75.6035 97.3164 75.3001C97.3563 74.9968 97.4172 74.6803 97.499 74.3507C97.5808 74.0211 97.6891 73.6954 97.824 73.3736C97.9589 73.052 98.1221 72.7589 98.3135 72.4946C98.5551 72.1129 98.8208 71.8053 99.1107 71.5719C99.4006 71.3385 99.7282 71.1432 100.094 70.9862C100.467 70.8141 100.904 70.646 101.406 70.4824C101.486 70.4563 101.582 70.3431 101.693 70.1427C101.816 69.9385 101.94 69.7022 102.067 69.4336C102.202 69.1498 102.335 68.8793 102.465 68.6221C102.592 68.3535 102.706 68.1398 102.805 67.9811L104.203 67.4493C104.055 67.5736 103.871 67.7469 103.654 67.9695C103.447 68.1883 103.244 68.4564 103.045 68.7738C102.857 69.0875 102.712 69.4566 102.611 69.8811C102.51 70.3054 102.491 70.791 102.556 71.3379C102.609 71.9264 102.765 72.4246 103.025 72.8323C103.284 73.24 103.618 73.5285 104.027 73.6982C104.443 73.8527 104.896 73.8499 105.387 73.6898C105.843 73.541 106.228 73.3083 106.541 72.9915C106.862 72.6596 107.106 72.2836 107.272 71.8635C107.434 71.4319 107.52 70.9809 107.531 70.5104C107.553 70.0362 107.499 69.5804 107.369 69.1432C107.261 68.7744 107.108 68.4395 106.908 68.1384C106.709 67.8372 106.416 67.6362 106.03 67.5351C105.644 67.4339 105.102 67.4969 104.407 67.7239C104.121 67.8169 103.871 67.8229 103.655 67.7418C103.447 67.6456 103.336 67.4988 103.322 67.3014C103.292 67.1721 103.329 67.0339 103.433 66.8865C103.536 66.7392 103.681 66.6035 103.868 66.4795C104.066 66.3517 104.279 66.2507 104.508 66.1762C105.124 65.9753 105.667 65.8991 106.137 65.9476C106.619 65.9925 107.037 66.1337 107.392 66.3712C107.759 66.6051 108.062 66.9163 108.303 67.3049C108.543 67.6935 108.726 68.1197 108.852 68.5835C109.042 69.2032 109.117 69.8412 109.079 70.4976C109.052 71.15 108.906 71.7848 108.64 72.4016C108.382 73.0033 108.008 73.5417 107.52 74.0167C107.042 74.488 106.433 74.8446 105.691 75.0865ZM115.677 71.8102C114.924 72.0558 114.256 72.0971 113.672 71.934C113.097 71.7557 112.607 71.4167 112.204 70.917C111.809 70.4022 111.489 69.7682 111.243 69.0153C110.994 68.251 110.812 67.4016 110.696 66.4674C110.588 65.6318 110.574 64.8538 110.654 64.1333C110.731 63.4014 110.87 62.7439 111.071 62.1608C111.28 61.5625 111.534 61.0443 111.832 60.606C112.131 60.1677 112.456 59.8093 112.807 59.5308C113.28 59.1619 113.771 58.8501 114.282 58.5953C114.803 58.3368 115.266 58.0913 115.67 57.8586C116.138 57.5922 116.529 57.3385 116.841 57.0977C117.154 56.8568 117.402 56.7066 117.584 56.6471C117.721 56.6024 117.858 56.5957 117.994 56.6269C118.142 56.6544 118.265 56.7216 118.363 56.8285C118.457 56.924 118.513 57.0572 118.531 57.2281C118.56 57.4332 118.494 57.6377 118.334 57.8416C118.169 58.034 117.946 58.2204 117.664 58.4008C117.104 58.7729 116.578 59.0769 116.087 59.3128C115.604 59.5336 115.16 59.7413 114.757 59.9361C114.35 60.1194 113.974 60.3617 113.631 60.6631C113.291 60.938 112.997 61.3307 112.747 61.8414C112.504 62.337 112.328 62.9183 112.217 63.5855C112.115 64.2376 112.11 64.9396 112.204 65.6915C112.362 66.9903 112.578 68.0183 112.85 68.7752C113.13 69.517 113.481 70.0145 113.905 70.2676C114.34 70.5171 114.842 70.5488 115.413 70.3627C115.801 70.2362 116.163 70.0108 116.499 69.6866C116.831 69.351 117.114 68.962 117.349 68.5195C117.594 68.0733 117.774 67.6172 117.887 67.1512C118.007 66.67 118.041 66.23 117.986 65.8312C117.944 65.3907 117.824 65.0446 117.629 64.7929C117.441 64.5261 117.186 64.3631 116.863 64.3042C116.537 64.2338 116.146 64.2729 115.69 64.4218C115.085 64.6191 114.462 65.0116 113.821 65.5995C113.191 66.1836 112.613 66.9465 112.087 67.888L111.328 67.4163C111.583 66.6134 111.941 65.91 112.4 65.3057C112.855 64.6901 113.371 64.1811 113.947 63.7788C114.518 63.365 115.09 63.0651 115.66 62.8791C116.356 62.652 116.981 62.5934 117.534 62.7033C118.084 62.8017 118.533 63.0588 118.884 63.4747C119.234 63.8906 119.445 64.4782 119.516 65.2377C119.584 65.8718 119.54 66.5299 119.383 67.212C119.235 67.8789 118.992 68.5263 118.654 69.1541C118.312 69.7704 117.891 70.318 117.391 70.7967C116.887 71.264 116.315 71.6018 115.677 71.8102ZM126.624 72.9726C125.928 73.1996 125.318 73.3228 124.794 73.3422C124.274 73.373 123.868 73.3097 123.577 73.1523C123.286 72.9948 123.126 72.7756 123.098 72.4946C123.072 72.3008 123.098 72.1283 123.175 71.9771C123.267 71.8335 123.421 71.7263 123.638 71.6556C123.775 71.6109 123.91 71.5985 124.043 71.6184C124.175 71.6382 124.327 71.6581 124.498 71.6782C124.672 71.7097 124.9 71.7111 125.181 71.6826C125.473 71.6503 125.842 71.5616 126.287 71.4165C126.834 71.2379 127.251 70.9692 127.538 70.6105C127.825 70.2519 128.006 69.8204 128.082 69.3162C128.168 68.8083 128.176 68.2505 128.104 67.6428C128.064 67.2896 128.004 66.9497 127.923 66.6228C127.853 66.2922 127.775 65.9388 127.69 65.5625C127.605 65.1863 127.513 64.7493 127.414 64.2514C127.311 63.7423 127.215 63.1365 127.124 62.4339L127.817 62.7571C127.708 63.6633 127.553 64.4269 127.352 65.048C127.147 65.6576 126.918 66.1552 126.665 66.5407C126.408 66.9147 126.143 67.2033 125.868 67.4065C125.602 67.5945 125.348 67.7276 125.109 67.8057C124.116 68.1295 123.292 67.9439 122.636 67.2491C121.977 66.5428 121.532 65.2174 121.301 63.273C121.2 62.4603 121.161 61.8358 121.182 61.3995C121.216 60.9595 121.295 60.6432 121.422 60.4504C121.548 60.2577 121.703 60.1316 121.885 60.072C122.057 60.0162 122.208 60.0172 122.341 60.075C122.47 60.1213 122.566 60.2415 122.629 60.4354C122.703 60.6257 122.749 60.9011 122.766 61.2617C122.818 62.04 122.895 62.7596 122.997 63.4205C123.095 64.0701 123.226 64.6269 123.39 65.0909C123.554 65.5548 123.747 65.8958 123.97 66.1135C124.189 66.3198 124.452 66.3728 124.76 66.2723C125.239 66.116 125.627 65.718 125.923 65.0787C126.216 64.4278 126.424 63.6152 126.548 62.6408C126.68 61.6512 126.738 60.5719 126.722 59.403C126.721 59.0501 126.755 58.8055 126.824 58.6694C126.889 58.5218 127.03 58.4127 127.247 58.3419C127.407 58.2898 127.566 58.2947 127.725 58.3564C127.896 58.4144 128.035 58.5709 128.144 58.8259C128.26 59.0657 128.32 59.4247 128.324 59.9028C128.343 60.5405 128.381 61.1024 128.439 61.5885C128.508 62.0709 128.594 62.5287 128.698 62.962C128.797 63.3838 128.906 63.8152 129.025 64.2562C129.151 64.682 129.27 65.1609 129.38 65.6929C129.487 66.2135 129.585 66.8251 129.676 67.5277C129.777 68.3405 129.768 69.05 129.651 69.6565C129.537 70.2743 129.342 70.7986 129.066 71.2294C128.79 71.6603 128.438 72.0147 128.011 72.2928C127.6 72.5786 127.137 72.8052 126.624 72.9726ZM140.468 63.7423C139.726 63.9842 139.071 64.0463 138.503 63.9288C137.942 63.7962 137.471 63.5522 137.09 63.1969C136.709 62.8415 136.406 62.4164 136.182 61.9216C135.969 61.4232 135.837 60.9233 135.787 60.4221C135.722 59.9131 135.733 59.4047 135.82 58.8967C135.903 58.3774 136.043 57.8774 136.239 57.3967C136.447 56.9123 136.689 56.4736 136.965 56.0807C137.249 55.6727 137.554 55.3331 137.882 55.062C138.218 54.7757 138.557 54.5769 138.899 54.4652C139.036 54.4206 139.162 54.4176 139.275 54.4563C139.389 54.495 139.491 54.5563 139.581 54.6404C139.672 54.7244 139.734 54.8368 139.767 54.9774C139.782 55.0231 139.705 55.1364 139.537 55.3175C139.369 55.4986 139.17 55.7212 138.941 55.9853C138.708 56.2381 138.486 56.5061 138.275 56.7893C138.061 57.0612 137.912 57.3183 137.826 57.5606C137.599 58.1018 137.421 58.6016 137.293 59.0599C137.161 59.5069 137.024 59.8798 136.882 60.1786C136.747 60.4624 136.554 60.6452 136.303 60.7271C135.836 60.8796 135.474 61.0101 135.219 61.1185C134.976 61.2232 134.774 61.3396 134.614 61.4676C134.465 61.5918 134.314 61.7673 134.161 61.994C133.977 62.2433 133.827 62.5573 133.711 62.936C133.606 63.3111 133.525 63.6843 133.47 64.0559C133.422 64.4123 133.388 64.6947 133.368 64.9033C133.316 65.3242 133.242 65.6387 133.145 65.8468C133.045 66.0435 132.921 66.166 132.773 66.2144C132.545 66.2889 132.344 66.2534 132.17 66.1081C131.997 65.9628 131.888 65.7078 131.845 65.3432C131.816 65.1761 131.81 64.9066 131.828 64.5348C131.845 64.1631 131.861 63.7476 131.875 63.2885C131.897 62.8143 131.91 62.3685 131.912 61.9511C131.923 61.5186 131.91 61.1694 131.874 60.9035C131.816 60.4553 131.727 60.0297 131.609 59.6267C131.501 59.22 131.395 58.8569 131.291 58.5375C131.183 58.2066 131.117 57.9444 131.091 57.7507C131.066 57.557 131.096 57.3769 131.18 57.2105C131.276 57.0403 131.421 56.9236 131.615 56.8604C131.877 56.7748 132.095 56.8046 132.269 56.9499C132.439 57.0839 132.584 57.2954 132.703 57.5846C132.767 57.7406 132.843 57.9555 132.933 58.2293C133.022 58.5031 133.103 58.811 133.177 59.153C133.258 59.4799 133.323 59.8123 133.37 60.1504C133.398 60.4314 133.413 60.7673 133.415 61.1582C133.427 61.5453 133.427 61.9495 133.413 62.3706C133.395 62.7803 133.369 63.1672 133.337 63.5313C133.315 63.8917 133.293 64.1894 133.268 64.4246C133.252 64.6446 133.243 64.7545 133.243 64.7545L132.031 64.7523C132.033 64.5247 132.053 64.2593 132.093 63.9559C132.133 63.6526 132.194 63.3361 132.276 63.0065C132.357 62.6769 132.466 62.3512 132.601 62.0295C132.736 61.7078 132.899 61.4148 133.09 61.1504C133.332 60.7687 133.597 60.4611 133.887 60.2277C134.177 59.9943 134.505 59.799 134.87 59.642C135.243 59.4699 135.681 59.3019 136.183 59.1382C136.263 59.1121 136.358 58.9989 136.469 58.7985C136.592 58.5943 136.717 58.358 136.844 58.0893C136.979 57.8056 137.111 57.5351 137.242 57.2779C137.369 57.0093 137.482 56.7956 137.582 56.6369L138.98 56.1051C138.831 56.2294 138.648 56.4028 138.43 56.6253C138.224 56.844 138.021 57.1122 137.822 57.4296C137.634 57.7434 137.489 58.1125 137.388 58.5368C137.286 58.9612 137.268 59.4468 137.333 59.9937C137.386 60.5822 137.542 61.0804 137.801 61.4881C138.06 61.8958 138.394 62.1844 138.803 62.354C139.22 62.5085 139.673 62.5057 140.164 62.3457C140.62 62.1969 141.005 61.964 141.318 61.6473C141.639 61.3154 141.882 60.9394 142.048 60.5192C142.21 60.0877 142.297 59.6366 142.307 59.1662C142.329 58.692 142.275 58.2362 142.145 57.799C142.038 57.4302 141.884 57.0953 141.685 56.7942C141.486 56.4931 141.193 56.292 140.807 56.1909C140.42 56.0897 139.879 56.1526 139.183 56.3797C138.898 56.4727 138.647 56.4787 138.432 56.3976C138.224 56.3014 138.113 56.1546 138.099 55.9571C138.069 55.8279 138.106 55.6897 138.209 55.5423C138.313 55.395 138.458 55.2593 138.645 55.1353C138.843 55.0075 139.056 54.9064 139.284 54.832C139.9 54.6311 140.443 54.5549 140.914 54.6034C141.395 54.6483 141.814 54.7895 142.169 55.027C142.535 55.2609 142.839 55.5721 143.079 55.9607C143.32 56.3493 143.503 56.7755 143.629 57.2393C143.818 57.8591 143.894 58.4971 143.856 59.1534C143.829 59.8059 143.682 60.4406 143.416 61.0574C143.158 61.6591 142.785 62.1975 142.296 62.6725C141.819 63.1438 141.209 63.5004 140.468 63.7423ZM67.9156 103.141C67.9523 102.75 68.0158 102.307 68.1063 101.81C68.1931 101.302 68.2914 100.772 68.4012 100.218C68.5224 99.6606 68.6473 99.1156 68.776 98.5806C68.9123 98.0315 69.0465 97.5336 69.1784 97.0866C69.3566 96.5106 69.5442 95.9635 69.7411 95.4445C69.9379 94.9266 70.1437 94.4936 70.3585 94.1456C70.5809 93.7826 70.8005 93.5656 71.0173 93.4946C71.2455 93.4206 71.4767 93.4526 71.7111 93.5906C71.9569 93.7246 72.2208 93.9926 72.5029 94.3926C72.6983 94.6826 72.9274 95.0555 73.1901 95.5126C73.4528 95.9696 73.7247 96.4745 74.0058 97.0266C74.2831 97.5666 74.5452 98.1186 74.792 98.6826C75.0389 99.2456 75.248 99.7706 75.4194 100.258L73.9582 100.886C73.7681 100.342 73.5347 99.7616 73.2578 99.1446C72.9887 98.5136 72.7041 97.9116 72.4042 97.3406C72.1043 96.7696 71.8247 96.2795 71.5655 95.8726C71.3026 95.4536 71.0823 95.1846 70.9047 95.0656L71.5275 94.7106C71.2889 95.2176 71.0499 95.8006 70.8104 96.4596C70.5823 97.1146 70.39 97.8016 70.2336 98.5216C70.1163 99.0526 70.0087 99.5546 69.9108 100.029C69.8129 100.502 69.7284 100.959 69.6572 101.399C69.5938 101.824 69.5341 102.26 69.4781 102.707L67.9156 103.141ZM76.3915 103.992C76.1634 104.067 75.9605 104.045 75.7829 103.926C75.6053 103.807 75.5077 103.643 75.4901 103.434C75.4682 103.29 75.4754 103.061 75.5116 102.746C75.5515 102.442 75.584 102.097 75.6093 101.71C75.6346 101.324 75.6219 100.936 75.5712 100.549L76.472 101.221C76.3048 101.25 76.0464 101.309 75.6967 101.398C75.3584 101.483 74.9326 101.609 74.4192 101.777C73.94 101.933 73.4456 102.101 72.936 102.28C72.434 102.443 71.9339 102.613 71.4357 102.788C70.9488 102.959 70.4771 103.138 70.0205 103.325C69.5602 103.501 69.1189 103.676 68.6966 103.852C68.2779 104.039 67.9011 104.219 67.566 104.391L68.038 103.574C68.0636 103.73 68.1003 103.92 68.1482 104.144C68.1961 104.368 68.2497 104.591 68.309 104.811C68.372 105.043 68.4257 105.247 68.4702 105.421C68.526 105.593 68.5651 105.712 68.5874 105.781C68.6392 105.978 68.6192 106.149 68.5272 106.293C68.4389 106.448 68.2978 106.557 68.1038 106.62C67.83 106.709 67.6064 106.662 67.4331 106.479C67.2597 106.296 67.1246 106.056 67.0279 105.759C66.9569 105.581 66.8863 105.345 66.8161 105.052C66.7459 104.759 66.7018 104.528 66.684 104.357C66.67 104.159 66.6864 103.977 66.733 103.811C66.7645 103.636 66.8433 103.472 66.9696 103.317C67.0958 103.162 67.277 103.021 67.513 102.894C67.7834 102.755 68.1525 102.59 68.6205 102.4C69.0962 102.194 69.6326 101.981 70.2298 101.761C70.8347 101.526 71.4604 101.297 72.107 101.073C72.7498 100.838 73.3679 100.624 73.9611 100.43C74.155 100.367 74.3604 100.3 74.5771 100.23C74.8053 100.155 75.041 100.084 75.2843 100.018C75.5276 99.9506 75.7633 99.8986 75.9912 99.8626C76.3332 99.7886 76.5891 99.8186 76.759 99.9526C76.9404 100.083 77.0563 100.342 77.107 100.73C77.143 101.033 77.156 101.364 77.1461 101.72C77.1363 102.077 77.0961 102.418 77.0257 102.744C76.9704 103.078 76.8851 103.358 76.7698 103.585C76.6659 103.808 76.5398 103.944 76.3915 103.992ZM81.268 99.9585C80.6862 100.149 80.1737 100.184 79.7305 100.063C79.2987 99.9386 78.9358 99.7166 78.6419 99.3956C78.3556 99.0596 78.1285 98.6725 77.9606 98.2355C77.8003 97.7825 77.6894 97.3266 77.6278 96.8676C77.5742 96.3546 77.5532 95.7876 77.5648 95.1646C77.5878 94.5386 77.641 93.9286 77.7246 93.3326C77.8044 92.7265 77.9139 92.2106 78.0533 91.7866C78.1076 91.6046 78.1826 91.4476 78.2783 91.3156C78.3854 91.1796 78.5076 91.0706 78.6447 90.9876C78.7781 90.8936 78.919 90.8225 79.0673 90.7746C79.2042 90.7296 79.3161 90.7436 79.4029 90.8166C79.486 90.8775 79.5346 90.9886 79.5487 91.1476C79.5703 91.3296 79.5441 91.5786 79.4699 91.8926C79.4072 92.2036 79.3289 92.5826 79.2349 93.0296C79.1524 93.4736 79.094 93.9905 79.0599 94.5826C79.022 95.1626 79.0481 95.8236 79.1382 96.5636C79.2281 97.3426 79.435 97.9186 79.7589 98.2926C80.0829 98.6666 80.5358 98.7586 81.1176 98.5686C81.5511 98.4276 81.9474 98.1716 82.3065 97.8026C82.6656 97.4325 82.9473 97.0006 83.1516 96.5046C83.3636 95.9936 83.4466 95.4736 83.4007 94.9466L83.695 95.2096C83.3726 95.1886 83.0024 95.2146 82.5845 95.2886C82.1743 95.3465 81.743 95.4366 81.2906 95.5586C80.846 95.6656 80.4163 95.7996 80.0016 95.9606C79.5832 96.1096 79.2179 96.2666 78.9057 96.4316L78.7597 95.2296C79.3492 95.0246 79.8859 94.7736 80.3698 94.4776C80.8613 94.1656 81.2771 93.8335 81.6171 93.4836C81.9685 93.1285 82.2363 92.7886 82.4205 92.4636C82.6011 92.1276 82.6731 91.8446 82.6366 91.6176C82.6187 91.4466 82.5379 91.3336 82.394 91.2796C82.2464 91.2146 82.0471 91.2225 81.7962 91.3046C81.4881 91.4045 81.1779 91.5565 80.8654 91.7596C80.5643 91.9585 80.2479 92.1876 79.9161 92.4476C79.5842 92.7076 79.2315 92.9806 78.8577 93.2666C78.7015 93.3676 78.5515 93.3916 78.4076 93.3376C78.2751 93.2796 78.2037 93.1766 78.1933 93.0286C78.1754 92.8576 78.2354 92.6746 78.3733 92.4776C78.5188 92.2666 78.666 92.0986 78.8148 91.9736C79.3916 91.3816 79.9543 90.9206 80.5029 90.5906C81.0592 90.2446 81.594 89.9886 82.1074 89.8206C82.5181 89.6866 82.8751 89.6395 83.1784 89.6796C83.4932 89.7156 83.7429 89.8236 83.9277 90.0036C84.1239 90.1786 84.2382 90.4126 84.2704 90.7056C84.3211 91.0926 84.2634 91.4966 84.0976 91.9165C83.9317 92.3365 83.6842 92.7586 83.3551 93.1816C83.0337 93.5896 82.6594 93.9696 82.2321 94.3236C81.8048 94.6776 81.338 94.9876 80.8315 95.2546L80.705 94.5756C81.2337 94.3786 81.73 94.2166 82.1938 94.0906C82.669 93.9606 83.0964 93.8776 83.4761 93.8426C83.8558 93.8065 84.1667 93.8506 84.4088 93.9736C84.6586 94.0816 84.8243 94.2795 84.9059 94.5686C85.0319 95.0325 85.0211 95.5415 84.8733 96.0946C84.7332 96.6326 84.4832 97.1616 84.1231 97.6836C83.7744 98.2006 83.3521 98.6665 82.8561 99.0806C82.3678 99.4806 81.8385 99.7726 81.268 99.9585ZM89.5432 97.1646C89.1553 97.2915 88.8175 97.3006 88.5298 97.1926C88.2535 97.0806 88.0156 96.8926 87.8162 96.6296C87.613 96.3556 87.4538 96.0415 87.3384 95.6876C87.2307 95.3186 87.1553 94.9526 87.1121 94.5876C87.0838 94.2686 87.0597 93.8856 87.0398 93.4376C87.0313 92.9855 87.0287 92.5136 87.0319 92.0196C87.035 91.5266 87.0418 91.0636 87.0522 90.6316C87.074 90.1946 87.0951 89.8536 87.1157 89.6066C87.1337 89.1596 87.1645 88.8085 87.2078 88.5546C87.2626 88.2965 87.3756 88.1396 87.5467 88.0846C87.695 88.0356 87.8487 88.0426 88.0076 88.1046C88.1666 88.1656 88.3007 88.2676 88.4098 88.4086C88.5304 88.5456 88.6052 88.7176 88.6342 88.9226C88.6595 89.1156 88.6653 89.4045 88.6514 89.7876C88.6376 90.1706 88.6196 90.5996 88.5976 91.0736C88.5756 91.5476 88.5611 92.0256 88.5542 92.5076C88.5436 92.9786 88.5599 93.3956 88.6031 93.7606C88.6351 94.0906 88.6863 94.4025 88.7565 94.6945C88.823 94.9765 88.9088 95.2006 89.014 95.3686C89.1154 95.5246 89.2403 95.5786 89.3886 95.5296C89.7537 95.4106 90.1097 94.9356 90.4566 94.1026C90.8149 93.2666 91.1559 92.1636 91.4797 90.7966C91.6354 90.1896 91.7623 89.6316 91.8604 89.1196C91.9586 88.6076 92.0468 88.1626 92.1252 87.7836C92.1998 87.3936 92.2929 87.0786 92.4045 86.8406C92.5161 86.6016 92.6574 86.4546 92.8285 86.3996C93.0909 86.3136 93.3127 86.3546 93.4937 86.5226C93.6825 86.6756 93.8251 86.9196 93.9216 87.2546C94.0184 87.5506 94.1261 87.9195 94.2447 88.3605C94.3747 88.7975 94.5084 89.2466 94.6459 89.7066C94.7796 90.1555 94.9154 90.5715 95.0533 90.9556C95.3034 91.6066 95.5429 92.1276 95.7719 92.5206C96.0085 92.8976 96.2077 93.1986 96.3695 93.4236C96.5312 93.6486 96.6324 93.8426 96.6731 94.0056C96.7026 94.1356 96.7018 94.2676 96.6705 94.4046C96.6356 94.5296 96.5779 94.6426 96.4976 94.7446C96.4172 94.8465 96.3143 94.9185 96.1888 94.9585C95.7895 95.0895 95.4187 94.9196 95.0764 94.4506C94.7341 93.9816 94.374 93.3236 93.9962 92.4746C93.8394 92.0716 93.6733 91.6395 93.4979 91.1796C93.3339 90.7156 93.1814 90.2476 93.0402 89.7756C92.9104 89.3006 92.7918 88.8596 92.6844 88.4526L93.2365 88.4626C93.1728 88.9246 93.0879 89.4386 92.9818 90.0036C92.8757 90.5676 92.7155 91.2956 92.501 92.1856C92.3141 92.9286 92.0836 93.6536 91.8096 94.3616C91.5319 95.0586 91.2055 95.6636 90.8303 96.1766C90.4628 96.6756 90.0338 97.0045 89.5432 97.1646ZM109.208 90.6746C108.9 90.7746 108.496 90.7366 107.996 90.5586C107.496 90.3806 106.935 90.1286 106.31 89.8016C105.671 89.4676 105.119 89.1306 104.655 88.7896C104.202 88.4445 103.826 88.1445 103.528 87.8885C103.49 87.8505 103.451 87.8066 103.409 87.7566C103.375 87.6916 103.359 87.6216 103.359 87.5456C103.337 87.4776 103.339 87.4076 103.366 87.3356C103.401 87.2486 103.44 87.1726 103.482 87.1086C103.795 86.7915 104.126 86.4126 104.474 85.9706C104.83 85.5135 105.166 85.0566 105.484 84.5996C105.802 84.1426 106.08 83.7366 106.318 83.3816C106.609 82.9196 106.87 82.5005 107.1 82.1226C107.33 81.7446 107.531 81.5275 107.702 81.4715C107.839 81.4276 107.958 81.4256 108.06 81.4686C108.17 81.4956 108.265 81.5536 108.344 81.6406C108.419 81.7176 108.468 81.8085 108.49 81.9156C108.538 82.1015 108.489 82.3576 108.343 82.6826C108.208 83.0046 108.016 83.3635 107.767 83.7606C107.525 84.1426 107.269 84.5166 106.997 84.8826C106.813 85.1316 106.608 85.3946 106.383 85.6696C106.168 85.9416 105.962 86.1986 105.763 86.4396C105.575 86.6776 105.42 86.8796 105.298 87.0456C105.172 87.2006 105.112 87.2896 105.12 87.3126C105.135 87.3576 105.235 87.4516 105.42 87.5936C105.601 87.7235 105.854 87.8806 106.179 88.0646C106.512 88.2336 106.885 88.4096 107.297 88.5906C107.755 88.7946 108.158 88.9656 108.506 89.1046C108.862 89.2286 109.146 89.3436 109.358 89.4516C109.566 89.5476 109.685 89.6606 109.714 89.7896C109.759 89.9646 109.741 90.1405 109.66 90.3186C109.575 90.4855 109.425 90.6036 109.208 90.6746ZM98.3982 94.2196C98.2842 94.2566 98.1817 94.2525 98.0909 94.2056C97.9925 94.1746 97.9094 94.1136 97.8417 94.0226C97.7625 93.9346 97.7119 93.8376 97.6899 93.7306C97.6306 93.5106 97.7048 93.1766 97.9126 92.7306C98.1204 92.2846 98.412 91.7856 98.7874 91.2336C99.1706 90.6665 99.5935 90.1056 100.056 89.5506C100.347 89.2036 100.59 88.9225 100.785 88.7076C100.991 88.4885 101.161 88.3136 101.295 88.1816C101.428 88.0496 101.53 87.9536 101.598 87.8936L102.073 88.4766C101.997 88.4766 101.853 88.4605 101.64 88.4286C101.436 88.3816 101.165 88.3055 100.828 88.2016C100.498 88.0816 100.112 87.9236 99.6695 87.7266C99.3101 87.5536 98.9567 87.3416 98.6092 87.0886C98.2617 86.8356 97.9617 86.5736 97.7092 86.3026C97.4681 86.0275 97.3197 85.7866 97.2641 85.5766C97.2383 85.4596 97.2334 85.3476 97.2492 85.2406C97.2728 85.1196 97.3209 85.0155 97.3935 84.9286C97.4776 84.8386 97.5824 84.7726 97.7079 84.7316C97.8904 84.6726 98.1082 84.7396 98.3612 84.9356C98.6142 85.1306 98.9162 85.3785 99.2671 85.6805C99.6181 85.9826 100.032 86.2645 100.508 86.5256C101.027 86.7986 101.477 86.9986 101.859 87.1266C102.242 87.2536 102.56 87.3396 102.814 87.3826L102.881 88.4025C102.564 88.7076 102.249 89.0376 101.936 89.3926C101.63 89.7316 101.316 90.1246 100.995 90.5706C100.539 91.1856 100.146 91.7626 99.8166 92.2986C99.4982 92.8316 99.2202 93.2756 98.9826 93.6316C98.7528 93.9715 98.558 94.1675 98.3982 94.2196ZM103.8 92.5526C103.606 92.6156 103.431 92.5835 103.277 92.4576C103.129 92.3166 103.007 92.1356 102.91 91.9146C102.82 91.6786 102.759 91.4335 102.727 91.1796C102.699 90.8605 102.674 90.5336 102.654 90.1996C102.629 89.8546 102.601 89.4786 102.57 89.0716C102.534 88.6546 102.486 88.1966 102.425 87.6996C102.393 87.3686 102.363 87.0256 102.335 86.6686C102.314 86.2966 102.294 85.9246 102.274 85.5526C102.261 85.1656 102.261 84.7796 102.275 84.3966C102.273 84.1576 102.324 83.8886 102.428 83.5896C102.529 83.2786 102.705 83.0826 102.956 83.0006C103.161 82.9336 103.334 82.9595 103.473 83.0786C103.613 83.1965 103.705 83.3816 103.749 83.6326C103.766 83.8406 103.766 84.1506 103.749 84.5596C103.738 84.9546 103.728 85.4246 103.717 85.9715C103.717 86.5145 103.755 87.1136 103.83 87.7706C103.848 87.9036 103.879 88.1336 103.923 88.4606C103.974 88.7716 104.023 89.1156 104.07 89.4916C104.128 89.8636 104.181 90.2186 104.228 90.5566C104.287 90.8916 104.327 91.1496 104.348 91.3316C104.373 91.6015 104.349 91.8556 104.275 92.0946C104.198 92.3215 104.039 92.4735 103.8 92.5526ZM115.71 93.3626C115.014 93.5896 114.404 93.7126 113.88 93.7326C113.36 93.7626 112.954 93.6996 112.663 93.5426C112.372 93.3846 112.212 93.1656 112.184 92.8846C112.158 92.6906 112.184 92.5186 112.261 92.3666C112.353 92.2236 112.507 92.1166 112.724 92.0456C112.861 92.0006 112.996 91.9886 113.129 92.0086C113.261 92.0285 113.413 92.0475 113.584 92.0686C113.758 92.0995 113.986 92.1006 114.267 92.0726C114.559 92.0406 114.928 91.9516 115.373 91.8066C115.92 91.6276 116.337 91.3596 116.624 91.0006C116.911 90.6416 117.092 90.2105 117.168 89.7066C117.254 89.1985 117.262 88.6406 117.19 88.0326C117.15 87.6796 117.09 87.3396 117.009 87.0126C116.939 86.6815 116.861 86.3286 116.776 85.9526C116.691 85.5766 116.599 85.1396 116.5 84.6416C116.397 84.1326 116.301 83.5266 116.21 82.8236L116.903 83.1466C116.794 84.0536 116.639 84.8166 116.438 85.4376C116.233 86.0476 116.004 86.5455 115.751 86.9305C115.495 87.3046 115.229 87.5936 114.954 87.7966C114.688 87.9846 114.434 88.1176 114.195 88.1956C113.533 88.4116 112.943 88.4016 112.425 88.1676C111.918 87.9286 111.488 87.4436 111.136 86.7126C110.796 85.9786 110.546 84.9616 110.387 83.6626C110.286 82.8506 110.247 82.2255 110.268 81.7896C110.302 81.3495 110.381 81.0326 110.508 80.8406C110.634 80.6476 110.789 80.5216 110.971 80.4616C111.143 80.4066 111.294 80.4076 111.427 80.4646C111.556 80.5116 111.652 80.6316 111.715 80.8256C111.789 81.0156 111.835 81.2906 111.852 81.6516C111.904 82.4296 111.981 83.1496 112.083 83.8106C112.181 84.4596 112.312 85.0166 112.476 85.4806C112.64 85.9445 112.833 86.2856 113.056 86.5036C113.275 86.7096 113.538 86.7626 113.846 86.6626C114.325 86.5056 114.713 86.1076 115.009 85.4686C115.302 84.8176 115.51 84.0056 115.634 83.0306C115.766 82.0406 115.824 80.9616 115.808 79.7926C115.807 79.44 115.841 79.1954 115.91 79.0592C115.975 78.9117 116.117 78.8026 116.333 78.7318C116.447 78.6946 116.565 78.6878 116.686 78.7113C116.819 78.7311 116.936 78.8003 117.038 78.9185C117.147 79.0217 117.233 79.1891 117.297 79.4211C117.367 79.6378 117.405 79.9286 117.41 80.2926C117.429 80.9306 117.467 81.4926 117.525 81.9786C117.594 82.4606 117.68 82.9186 117.784 83.3516C117.883 83.7736 117.992 84.2056 118.111 84.6466C118.237 85.0716 118.356 85.5506 118.466 86.0826C118.573 86.6036 118.671 87.2146 118.762 87.9176C118.863 88.7306 118.854 89.4396 118.737 90.0466C118.623 90.6646 118.428 91.1886 118.152 91.6196C117.876 92.0506 117.524 92.4046 117.097 92.6826C116.686 92.9686 116.223 93.1946 115.71 93.3626ZM121.583 86.7706C121.446 86.8146 121.313 86.8136 121.184 86.7676C121.059 86.7326 120.959 86.6386 120.885 86.4866C120.81 86.3346 120.792 86.1255 120.832 85.8605C120.853 85.4995 120.972 84.9936 121.189 84.3426C121.417 83.6876 121.719 82.9516 122.096 82.1346C122.481 81.3016 122.935 80.4476 123.456 79.5702C123.986 78.678 124.564 77.8203 125.192 76.9971C125.514 76.5514 125.781 76.2116 125.995 75.9776C126.217 75.7286 126.4 75.5552 126.545 75.4575C126.69 75.3597 126.831 75.2886 126.968 75.2439C127.15 75.1843 127.317 75.193 127.469 75.2699C127.628 75.3316 127.725 75.4765 127.762 75.7044C127.783 75.8867 127.754 76.0667 127.673 76.2446C127.592 76.4224 127.458 76.6113 127.271 76.8111C126.507 77.6031 125.814 78.4981 125.193 79.496C124.583 80.4896 124.04 81.5316 123.562 82.6216C123.081 83.7006 122.668 84.7756 122.323 85.8476C122.223 86.1196 122.107 86.3276 121.978 86.4706C121.863 86.6216 121.731 86.7215 121.583 86.7706ZM127.903 84.6706C127.732 84.7266 127.561 84.7256 127.391 84.6676C127.232 84.6056 127.041 84.4465 126.819 84.1916C126.397 83.7486 125.926 83.2896 125.405 82.8156C124.896 82.3386 124.367 81.8796 123.82 81.4396C123.28 80.9846 122.742 80.5735 122.206 80.2056C121.681 79.8335 121.197 79.531 120.754 79.2967C120.452 79.1429 120.212 78.9877 120.034 78.831C119.857 78.6742 119.754 78.4743 119.725 78.2313C119.707 78.0604 119.727 77.9087 119.785 77.7763C119.839 77.6324 119.969 77.527 120.174 77.46C120.402 77.3856 120.609 77.3812 120.795 77.4469C120.992 77.5089 121.277 77.6493 121.651 77.868C121.928 78.0178 122.254 78.2267 122.632 78.4947C123.01 78.7627 123.414 79.0728 123.844 79.4247C124.286 79.7726 124.724 80.1286 125.158 80.4916C125.588 80.8436 125.99 81.1856 126.364 81.5186C126.749 81.8476 127.064 82.1356 127.309 82.3846C127.716 82.7816 127.989 83.0965 128.128 83.3286C128.263 83.5496 128.34 83.7456 128.358 83.9165C128.379 84.0985 128.354 84.2526 128.281 84.3766C128.212 84.5136 128.086 84.6106 127.903 84.6706ZM134.844 87.1206C134.149 87.3475 133.539 87.4706 133.015 87.4906C132.495 87.5216 132.089 87.4576 131.798 87.3006C131.507 87.1426 131.347 86.9236 131.318 86.6426C131.293 86.4486 131.319 86.2766 131.396 86.1256C131.488 85.9816 131.642 85.8745 131.859 85.8036C131.996 85.7586 132.13 85.7466 132.263 85.7666C132.396 85.7866 132.548 85.8066 132.718 85.8266C132.893 85.8576 133.12 85.8596 133.401 85.8306C133.694 85.7986 134.062 85.7095 134.507 85.5646C135.055 85.3856 135.472 85.1176 135.759 84.7586C136.046 84.3996 136.227 83.9686 136.302 83.4646C136.389 82.9566 136.397 82.3986 136.325 81.7906C136.285 81.4376 136.225 81.0976 136.143 80.7706C136.073 80.4406 135.996 80.0866 135.911 79.7107C135.826 79.3344 135.734 78.8974 135.635 78.3997C135.532 77.8904 135.435 77.2846 135.345 76.582L136.037 76.9052C135.929 77.8115 135.774 78.5751 135.573 79.1962C135.368 79.8055 135.139 80.3036 134.886 80.6886C134.629 81.0626 134.364 81.3515 134.089 81.5546C133.822 81.7426 133.569 81.8755 133.329 81.9536C132.337 82.2775 131.513 82.0916 130.857 81.3976C130.197 80.6906 129.752 79.3655 129.522 77.4212C129.421 76.6084 129.381 75.9839 129.403 75.5477C129.436 75.1077 129.516 74.7913 129.643 74.5986C129.769 74.4059 129.924 74.2797 130.106 74.2202C130.277 74.1644 130.429 74.1654 130.561 74.2231C130.69 74.2695 130.786 74.3895 130.849 74.5835C130.924 74.7738 130.97 75.0491 130.986 75.4098C131.038 76.188 131.115 76.9077 131.217 77.5687C131.316 78.2182 131.447 78.775 131.611 79.239C131.775 79.7029 131.968 80.0435 132.19 80.2616C132.409 80.4676 132.673 80.5206 132.981 80.4206C133.46 80.2646 133.848 79.8666 134.144 79.2269C134.436 78.576 134.645 77.7634 134.769 76.7889C134.9 75.7993 134.958 74.7201 134.943 73.5512C134.942 73.1982 134.975 72.9537 135.045 72.8175C135.11 72.6699 135.251 72.5608 135.468 72.4901C135.628 72.438 135.787 72.4428 135.946 72.5046C136.116 72.5626 136.256 72.7191 136.364 72.974C136.48 73.2138 136.541 73.5728 136.545 74.051C136.564 74.6886 136.602 75.2505 136.659 75.7366C136.728 76.219 136.815 76.6768 136.918 77.1101C137.018 77.532 137.127 77.9633 137.246 78.4044C137.372 78.8301 137.49 79.3091 137.601 79.8406C137.707 80.3616 137.806 80.9735 137.896 81.6756C137.997 82.4886 137.989 83.1985 137.871 83.8046C137.757 84.4225 137.562 84.9466 137.286 85.3776C137.01 85.8086 136.659 86.1626 136.232 86.4406C135.82 86.7266 135.358 86.9536 134.844 87.1206ZM140.346 83.6036C140.187 83.6556 140.041 83.6525 139.908 83.5946C139.776 83.5366 139.702 83.4286 139.688 83.2686C139.67 83.1356 139.681 82.9746 139.72 82.7846C139.747 82.5996 139.812 82.3515 139.912 82.0406C140.033 81.6356 140.113 81.2436 140.153 80.8636C140.205 80.4806 140.232 80.0995 140.235 79.7206C140.233 79.3294 140.209 78.946 140.162 78.57C140.123 78.2168 140.155 77.9286 140.259 77.7054C140.363 77.4822 140.529 77.3334 140.757 77.2589C141.145 77.1323 141.458 77.1439 141.696 77.2934C141.942 77.4277 142.088 77.721 142.134 78.1728C142.181 78.5488 142.18 78.9909 142.132 79.4991C142.09 79.9926 142.009 80.4986 141.888 81.0176C141.779 81.5326 141.622 82.0196 141.418 82.4776C141.318 82.7496 141.174 82.9856 140.987 83.1856C140.799 83.3856 140.586 83.5246 140.346 83.6036ZM150.481 77.3057C150.321 77.3578 150.179 77.3474 150.054 77.2745C149.945 77.2093 149.852 77.1004 149.777 76.9482C149.691 76.7997 149.641 76.6267 149.627 76.4293C149.606 76.209 149.625 75.8999 149.684 75.5018C149.751 75.0886 149.851 74.6206 149.984 74.0978C150.112 73.5635 150.252 73.0256 150.404 72.4839C150.571 71.9119 150.745 71.3438 150.927 70.7796C151.117 70.2002 151.306 69.6777 151.495 69.2122C151.68 68.7352 151.84 68.3549 151.975 68.0711C152.19 67.6475 152.416 67.315 152.653 67.0737C152.897 66.8172 153.168 66.6406 153.465 66.5438C153.738 66.4545 153.958 66.4901 154.124 66.6505C154.286 66.7995 154.443 67.0074 154.593 67.274C154.746 67.552 154.911 67.8832 155.087 68.2676C155.263 68.652 155.448 69.046 155.643 69.4495C155.834 69.8416 156.033 70.2185 156.239 70.5804C156.487 71.0297 156.706 71.4125 156.898 71.7287C157.101 72.0412 157.281 72.3042 157.439 72.5177C157.609 72.7275 157.761 72.905 157.897 73.0501C158.025 73.1723 158.131 73.283 158.213 73.3822C158.296 73.4814 158.352 73.5956 158.382 73.7249C158.419 73.8769 158.42 74.0343 158.385 74.1973C158.349 74.3603 158.28 74.4964 158.177 74.6058C158.089 74.7229 157.971 74.8055 157.823 74.854C157.606 74.9247 157.378 74.8853 157.14 74.7358C156.91 74.5711 156.672 74.3267 156.428 74.0026C156.183 73.6785 155.941 73.3221 155.7 72.9335C155.558 72.6897 155.37 72.3659 155.137 71.9622C154.912 71.5433 154.676 71.0901 154.429 70.6029C154.178 70.104 153.946 69.6245 153.732 69.1639C153.53 68.6997 153.372 68.3096 153.256 67.9939L153.643 68.0191C153.42 68.4201 153.195 68.91 152.967 69.4892C152.748 70.0532 152.527 70.674 152.307 71.352C152.097 72.0261 151.901 72.7212 151.718 73.4372C151.547 74.1496 151.404 74.8526 151.289 75.5463C151.183 76.0731 151.076 76.4803 150.968 76.768C150.872 77.0519 150.709 77.2312 150.481 77.3057ZM162.004 73.5278C161.616 73.6543 161.279 73.6635 160.991 73.5554C160.715 73.4436 160.477 73.2561 160.277 72.993C160.074 72.7185 159.915 72.4044 159.799 72.0507C159.692 71.6819 159.616 71.3152 159.573 70.9507C159.545 70.6317 159.521 70.2483 159.501 69.8004C159.492 69.3487 159.49 68.8763 159.493 68.3829C159.496 67.8896 159.503 67.4267 159.513 66.9942C159.535 66.5579 159.556 66.2165 159.577 65.97C159.595 65.5223 159.626 65.1714 159.669 64.9174C159.724 64.6598 159.837 64.5031 160.008 64.4473C160.156 64.3988 160.31 64.4056 160.469 64.4673C160.628 64.529 160.762 64.6305 160.871 64.7716C160.991 64.909 161.066 65.0802 161.095 65.2853C161.121 65.479 161.126 65.7674 161.112 66.1506C161.099 66.5338 161.081 66.9625 161.059 67.4367C161.037 67.9109 161.022 68.3889 161.015 68.8708C161.005 69.3413 161.021 69.7589 161.064 70.1235C161.096 70.4538 161.147 70.7654 161.218 71.058C161.284 71.3393 161.37 71.5637 161.475 71.7313C161.577 71.8876 161.701 71.9415 161.85 71.8931C162.215 71.774 162.571 71.2982 162.918 70.4656C163.276 69.6292 163.617 68.5271 163.941 67.1593C164.096 66.5531 164.223 65.9942 164.322 65.4825C164.42 64.9709 164.508 64.5255 164.586 64.1466C164.661 63.7562 164.754 63.4418 164.866 63.2034C164.977 62.9651 165.118 62.818 165.29 62.7622C165.552 62.6766 165.774 62.7179 165.955 62.886C166.144 63.039 166.286 63.2828 166.383 63.6173C166.479 63.914 166.587 64.2828 166.706 64.7237C166.836 65.161 166.969 65.6096 167.107 66.0697C167.241 66.5183 167.376 66.9347 167.514 67.3189C167.764 67.9694 168.004 68.4908 168.233 68.8832C168.47 69.2604 168.669 69.5614 168.831 69.7864C168.992 70.0113 169.093 70.2055 169.134 70.3689C169.164 70.4982 169.163 70.631 169.132 70.7674C169.097 70.8924 169.039 71.0059 168.959 71.1077C168.878 71.2096 168.775 71.2812 168.65 71.3221C168.387 71.4077 168.132 71.3586 167.882 71.1749C167.645 70.9874 167.409 70.6918 167.177 70.288C166.944 69.8843 166.704 69.4008 166.457 68.8376C166.3 68.4343 166.134 68.0025 165.959 67.5423C165.795 67.0781 165.642 66.6105 165.501 66.139C165.372 65.6638 165.253 65.2229 165.145 64.8161L165.698 64.8254C165.646 65.1324 165.589 65.4603 165.526 65.809C165.475 66.154 165.402 66.5501 165.308 66.9973C165.222 67.4294 165.106 67.9466 164.962 68.5491C164.775 69.2916 164.545 70.0169 164.271 70.7247C163.993 71.4212 163.667 72.0263 163.291 72.5399C162.924 73.0385 162.495 73.3678 162.004 73.5278ZM174.544 69.3994C173.791 69.645 173.166 69.7415 172.669 69.6889C172.173 69.6365 171.77 69.465 171.46 69.1747C171.162 68.8805 170.932 68.5014 170.768 68.0375C170.611 67.5583 170.501 67.0263 170.436 66.4415C170.364 65.8339 170.327 65.1961 170.323 64.5282C170.328 63.8452 170.361 63.1338 170.422 62.3942C170.467 61.9505 170.524 61.6037 170.594 61.3537C170.664 61.1037 170.785 60.9508 170.956 60.8949C171.195 60.8168 171.417 60.8391 171.621 60.9618C171.822 61.0732 171.934 61.2826 171.959 61.5901C171.98 61.7724 171.973 62.0779 171.936 62.5064C171.91 62.9313 171.894 63.4606 171.886 64.0942C171.878 64.7279 171.921 65.4586 172.014 66.2866C172.111 67.0879 172.336 67.6206 172.687 67.8847C173.049 68.1451 173.619 68.1488 174.394 67.8957C174.714 67.7915 175.134 67.6481 175.655 67.4655C176.172 67.2715 176.73 67.0645 177.327 66.8444C177.924 66.6244 178.51 66.408 179.084 66.1954C179.666 65.9677 180.174 65.7641 180.608 65.5848C181.05 65.3903 181.367 65.2423 181.562 65.1412C181.702 65.07 181.819 64.9816 181.91 64.8759C181.998 64.7589 182.036 64.6016 182.022 64.4042C181.95 63.6827 181.826 63.0102 181.648 62.3867C181.477 61.7481 181.283 61.1739 181.067 60.664C180.861 60.1503 180.672 59.726 180.5 59.391C180.335 59.0408 180.234 58.7897 180.197 58.6376C180.149 58.4514 180.181 58.277 180.292 58.1146C180.399 57.9407 180.533 57.8277 180.692 57.7756C180.955 57.69 181.182 57.7294 181.375 57.8938C181.575 58.0431 181.763 58.253 181.94 58.5236C182.068 58.7218 182.212 59.0282 182.372 59.4428C182.541 59.8424 182.708 60.2988 182.876 60.8122C183.055 61.3219 183.205 61.8408 183.327 62.3691C183.456 62.8822 183.548 63.3572 183.602 63.7939C183.681 64.5003 183.613 65.0652 183.398 65.4889C183.19 65.8974 182.784 66.2572 182.178 66.5682C181.961 66.6769 181.619 66.8265 181.151 67.017C180.679 67.1961 180.139 67.3976 179.531 67.6214C178.926 67.8565 178.306 68.084 177.67 68.3038C177.039 68.5351 176.446 68.7475 175.89 68.9413C175.347 69.1313 174.898 69.284 174.544 69.3994ZM177.377 67.9832C177.251 68.0241 177.111 68.0194 176.955 67.9691C176.796 67.9074 176.678 67.7945 176.599 67.631C176.472 67.3568 176.354 66.9976 176.247 66.5529C176.148 66.0931 176.056 65.618 175.972 65.128C175.895 64.6227 175.834 64.1633 175.787 63.7493C175.701 63.0202 175.658 62.3653 175.658 61.7847C175.657 61.2041 175.675 60.7944 175.711 60.5555C175.727 60.3735 175.772 60.2201 175.845 60.0953C175.914 59.9591 176.034 59.8631 176.205 59.8073C176.354 59.7589 176.494 59.7636 176.626 59.8214C176.759 59.8792 176.872 59.9748 176.966 60.1082C177.06 60.2416 177.122 60.4109 177.151 60.616C177.173 60.7603 177.179 60.9729 177.169 61.2537C177.168 61.5193 177.169 61.8343 177.175 62.1986C177.191 62.5592 177.225 62.9522 177.275 63.3775C177.311 63.7193 177.367 64.1048 177.444 64.534C177.533 64.9596 177.628 65.3892 177.732 65.8223C177.832 66.2442 177.932 66.6282 178.032 66.9742C178.076 67.1489 178.016 67.3517 177.852 67.5821C177.683 67.8011 177.525 67.9348 177.377 67.9832ZM189.023 64.6953C188.464 64.8777 187.983 64.9333 187.582 64.8624C187.176 64.7802 186.836 64.6073 186.56 64.3436C186.281 64.0686 186.061 63.7428 185.901 63.366C185.748 62.9742 185.646 62.5656 185.596 62.1402C185.534 61.6427 185.511 61.0885 185.527 60.4777C185.538 59.8554 185.521 59.3183 185.474 58.8664C185.409 58.3575 185.34 57.951 185.266 57.647C185.192 57.3429 185.148 57.0922 185.134 56.8947C185.116 56.7618 185.12 56.6404 185.148 56.5305C185.186 56.4169 185.242 56.3167 185.315 56.2299C185.399 56.1394 185.515 56.0699 185.663 56.0215C185.983 55.9173 186.246 55.9892 186.453 56.2372C186.668 56.4701 186.802 56.8049 186.857 57.2417C186.897 57.5189 186.923 57.8512 186.936 58.2383C186.944 58.6141 186.951 59.0031 186.956 59.4053C186.961 59.8076 186.972 60.1891 186.989 60.5497C187.006 60.9103 187.028 61.2121 187.057 61.4552C187.115 61.9034 187.204 62.291 187.323 62.6181C187.438 62.9338 187.612 63.155 187.842 63.2818C188.081 63.3933 188.399 63.384 188.799 63.2538C189.13 63.1458 189.453 62.9582 189.77 62.6908C190.087 62.4234 190.364 62.1121 190.601 61.7569C190.839 61.4017 191.01 61.0366 191.115 60.6616C191.216 60.2752 191.22 59.9204 191.128 59.5973C191.079 59.4489 190.956 59.3628 190.759 59.3387C190.57 59.2996 190.287 59.3414 189.91 59.4642C189.488 59.6019 189.07 59.77 188.655 59.9684C188.24 60.1669 187.852 60.3693 187.49 60.5757C187.128 60.7821 186.817 60.9717 186.558 61.1446C186.459 61.1895 186.357 61.204 186.251 61.1882C186.156 61.1686 186.073 61.1263 186.001 61.0613C185.941 60.9926 185.905 60.9032 185.894 60.7931C185.861 60.6145 185.868 60.4609 185.915 60.3322C185.969 60.1883 186.078 60.0581 186.241 59.9415C186.451 59.7721 186.703 59.5954 186.996 59.4113C187.297 59.2121 187.619 59.0187 187.962 58.8312C188.305 58.6437 188.647 58.4751 188.99 58.3255C189.329 58.1645 189.652 58.0338 189.96 57.9333C190.519 57.751 190.971 57.6856 191.316 57.7371C191.672 57.7849 191.951 57.9214 192.15 58.1466C192.35 58.3718 192.494 58.6592 192.583 59.0089C192.72 59.5069 192.719 60.0439 192.578 60.6198C192.438 61.1957 192.193 61.7615 191.844 62.317C191.507 62.8689 191.092 63.3577 190.6 63.7833C190.108 64.209 189.582 64.513 189.023 64.6953ZM76.6524 118.2C75.8995 118.446 75.2313 118.487 74.648 118.324C74.0723 118.145 73.5831 117.806 73.1802 117.307C72.7851 116.792 72.4647 116.158 72.2191 115.405C71.9698 114.641 71.7874 113.791 71.672 112.857C71.5635 112.021 71.5495 111.243 71.6301 110.523C71.7069 109.791 71.8458 109.134 72.0469 108.55C72.2557 107.952 72.5094 107.434 72.8083 106.996C73.1071 106.557 73.4319 106.199 73.7829 105.92C74.2558 105.552 74.7473 105.24 75.2575 104.985C75.779 104.727 76.2417 104.481 76.6454 104.248C77.1139 103.982 77.5045 103.728 77.8172 103.487C78.1299 103.246 78.3776 103.096 78.5601 103.037C78.697 102.992 78.8336 102.985 78.9701 103.017C79.1179 103.044 79.2408 103.111 79.3388 103.218C79.433 103.314 79.4891 103.447 79.507 103.618C79.536 103.823 79.4702 104.027 79.3095 104.231C79.1451 104.424 78.9219 104.61 78.6399 104.79C78.0797 105.163 77.554 105.467 77.063 105.702C76.5796 105.923 76.1362 106.131 75.7327 106.326C75.3254 106.509 74.9501 106.751 74.6066 107.053C74.2671 107.328 73.9724 107.72 73.7225 108.231C73.4802 108.727 73.3038 109.308 73.1932 109.975C73.0904 110.627 73.0859 111.329 73.1797 112.081C73.3383 113.38 73.5537 114.408 73.8259 115.165C74.1057 115.907 74.4573 116.404 74.8807 116.657C75.3155 116.907 75.8181 116.938 76.3885 116.752C76.7764 116.626 77.1384 116.4 77.4744 116.076C77.8067 115.741 78.09 115.352 78.3244 114.909C78.5701 114.463 78.7495 114.007 78.8625 113.541C78.9833 113.06 79.0165 112.62 78.9621 112.221C78.9194 111.78 78.8002 111.434 78.6045 111.183C78.4164 110.916 78.1613 110.753 77.8392 110.694C77.5133 110.623 77.1221 110.663 76.6658 110.811C76.0612 111.009 75.4382 111.401 74.7969 111.989C74.167 112.573 73.5891 113.336 73.0631 114.278L72.3034 113.806C72.559 113.003 72.9165 112.3 73.3757 111.695C73.8313 111.08 74.3468 110.571 74.9224 110.168C75.4943 109.755 76.0655 109.455 76.6359 109.269C77.3318 109.042 77.9564 108.983 78.5098 109.093C79.0594 109.191 79.5093 109.448 79.8595 109.864C80.2098 110.28 80.4204 110.868 80.4914 111.627C80.5594 112.261 80.5154 112.92 80.3592 113.602C80.2107 114.269 79.9675 114.916 79.6295 115.544C79.2878 116.16 78.8668 116.708 78.3666 117.186C77.8627 117.654 77.2913 117.992 76.6524 118.2ZM85.9354 115.191C85.3992 115.366 84.9172 115.378 84.4894 115.227C84.0615 115.076 83.7104 114.793 83.4361 114.378C83.158 113.951 82.9755 113.411 82.8887 112.758C82.7876 111.945 82.6921 111.168 82.602 110.428C82.5081 109.676 82.425 109.034 82.3525 108.502C82.2914 107.967 82.252 107.613 82.2341 107.443C82.2123 107.298 82.217 107.158 82.2482 107.021C82.2908 106.881 82.358 106.758 82.4498 106.653C82.5415 106.547 82.6502 106.474 82.7757 106.433C83.0381 106.347 83.2748 106.415 83.4859 106.637C83.7084 106.854 83.8469 107.144 83.9015 107.505C83.9373 107.846 83.965 108.26 83.9846 108.746C84.0157 109.228 84.0621 109.68 84.1239 110.102C84.1343 110.25 84.1482 110.447 84.1656 110.694C84.1907 110.925 84.2119 111.165 84.2293 111.411C84.2544 111.643 84.2759 111.844 84.2937 112.015C84.3655 112.661 84.5199 113.134 84.7571 113.436C84.9942 113.737 85.3067 113.824 85.6946 113.698C85.9113 113.627 86.1323 113.492 86.3575 113.292C86.5941 113.089 86.8081 112.855 86.9995 112.591C87.1872 112.315 87.3313 112.04 87.4317 111.768C87.5322 111.495 87.5507 111.262 87.4875 111.068C87.4021 110.768 87.2441 110.554 87.0134 110.428C86.7942 110.297 86.5119 110.225 86.1667 110.212C85.9695 110.187 85.7229 110.186 85.4267 110.207C85.1306 110.228 84.8192 110.26 84.4926 110.303C84.1622 110.335 83.8507 110.386 83.5581 110.457L83.4861 109.249C83.8745 109.047 84.3049 108.799 84.7774 108.506C85.2612 108.21 85.7547 107.885 86.2579 107.531C86.7611 107.178 87.2396 106.826 87.6935 106.476C88.2083 106.081 88.6528 105.702 89.027 105.34C89.4127 104.975 89.741 104.666 90.0121 104.413C90.2908 104.145 90.5329 103.978 90.7382 103.911C91.0919 103.796 91.399 103.828 91.6597 104.008C91.9281 104.173 92.0856 104.462 92.1323 104.876C92.1715 105.268 92.2089 105.653 92.2444 106.033C92.2876 106.397 92.3288 106.775 92.368 107.166C92.4077 107.481 92.4585 107.85 92.5203 108.271C92.5784 108.682 92.6459 109.101 92.7228 109.531C92.7997 109.96 92.8826 110.35 92.9714 110.699C93.0459 110.927 93.122 111.18 93.1999 111.458C93.2855 111.72 93.3374 111.918 93.3555 112.051C93.3736 112.184 93.3595 112.315 93.3131 112.443C93.2745 112.557 93.2055 112.655 93.1063 112.738C93.0223 112.828 92.9175 112.894 92.792 112.935C92.5524 113.013 92.3327 112.959 92.1327 112.772C91.9405 112.569 91.7847 112.304 91.6654 111.977C91.4793 111.407 91.3275 110.825 91.2099 110.233C91.0885 109.628 90.9881 109.011 90.9087 108.381C90.8839 108.111 90.8497 107.813 90.8063 107.486C90.7743 107.156 90.7441 106.831 90.7158 106.512C90.6875 106.193 90.6589 105.912 90.6301 105.669C90.609 105.411 90.5931 105.227 90.5825 105.117L91.0419 105.365C90.8279 105.599 90.5396 105.876 90.1771 106.196C89.8222 106.501 89.4121 106.83 88.9469 107.184C88.4779 107.526 87.9861 107.876 87.4715 108.233C86.9569 108.591 86.4329 108.938 85.8995 109.276C85.3737 109.599 84.8615 109.886 84.3627 110.137L84.3329 109.465C84.4204 109.424 84.5536 109.368 84.7324 109.297C84.9189 109.211 85.1377 109.127 85.3887 109.045C85.5256 109.001 85.7212 108.962 85.9757 108.93C86.2416 108.893 86.5225 108.884 86.8183 108.901C87.1256 108.914 87.4288 108.973 87.728 109.077C88.0348 109.167 88.2994 109.32 88.5219 109.538C88.7558 109.752 88.9247 110.038 89.0287 110.395C89.151 110.847 89.1366 111.325 88.9853 111.829C88.8455 112.329 88.6166 112.808 88.2987 113.265C87.9808 113.722 87.6139 114.126 87.198 114.476C86.7784 114.815 86.3575 115.053 85.9354 115.191ZM105.547 108.775C104.794 109.02 104.126 109.061 103.542 108.898C102.967 108.72 102.477 108.381 102.074 107.881C101.679 107.366 101.359 106.733 101.113 105.98C100.864 105.215 100.682 104.366 100.566 103.432C100.458 102.596 100.444 101.818 100.524 101.098C100.601 100.366 100.74 99.7076 100.941 99.1245C101.15 98.5266 101.404 98.0086 101.703 97.5695C102.001 97.1315 102.326 96.7736 102.677 96.4946C103.15 96.1255 103.642 95.8136 104.152 95.5596C104.673 95.3006 105.136 95.0556 105.54 94.8226C106.008 94.5556 106.399 94.3026 106.711 94.0616C107.024 93.8206 107.272 93.6705 107.454 93.6105C107.591 93.5666 107.728 93.5596 107.864 93.5906C108.012 93.6186 108.135 93.6856 108.233 93.7926C108.327 93.8876 108.383 94.0206 108.401 94.1916C108.43 94.3966 108.364 94.6015 108.204 94.8055C108.039 94.9976 107.816 95.1846 107.534 95.3646C106.974 95.7366 106.448 96.0406 105.957 96.2766C105.474 96.4976 105.03 96.7056 104.627 96.8996C104.22 97.0835 103.844 97.3256 103.501 97.6266C103.161 97.9016 102.867 98.2945 102.617 98.8055C102.374 99.3006 102.198 99.8826 102.087 100.55C101.985 101.202 101.98 101.904 102.074 102.656C102.233 103.955 102.448 104.983 102.72 105.74C103 106.481 103.352 106.979 103.775 107.232C104.21 107.481 104.712 107.513 105.283 107.327C105.671 107.201 106.033 106.975 106.369 106.651C106.701 106.315 106.984 105.926 107.219 105.484C107.464 105.038 107.644 104.581 107.757 104.115C107.878 103.634 107.911 103.194 107.856 102.796C107.814 102.355 107.694 102.009 107.499 101.757C107.311 101.49 107.056 101.327 106.733 101.268C106.408 101.198 106.016 101.237 105.56 101.386C104.955 101.583 104.332 101.976 103.691 102.564C103.061 103.148 102.483 103.911 101.957 104.852L101.198 104.381C101.453 103.578 101.811 102.874 102.27 102.27C102.726 101.654 103.241 101.145 103.817 100.743C104.389 100.329 104.96 100.029 105.53 99.8426C106.226 99.6156 106.851 99.5576 107.404 99.6676C107.954 99.7656 108.404 100.023 108.754 100.439C109.104 100.855 109.315 101.443 109.386 102.202C109.454 102.836 109.41 103.494 109.253 104.176C109.105 104.843 108.862 105.491 108.524 106.118C108.182 106.735 107.761 107.282 107.261 107.761C106.757 108.228 106.186 108.566 105.547 108.775ZM114.83 105.765C114.293 105.94 113.811 105.952 113.384 105.802C112.956 105.651 112.605 105.368 112.33 104.952C112.052 104.526 111.87 103.986 111.783 103.332C111.682 102.52 111.586 101.743 111.496 101.002C111.402 100.25 111.319 99.6076 111.247 99.0766C111.186 98.5406 111.146 98.1876 111.128 98.0166C111.107 97.8726 111.111 97.7316 111.142 97.5956C111.185 97.4556 111.252 97.3326 111.344 97.2266C111.436 97.1216 111.544 97.0476 111.67 97.0066C111.932 96.9216 112.169 96.9896 112.38 97.2106C112.603 97.4286 112.741 97.7176 112.796 98.0786C112.832 98.4206 112.859 98.8346 112.879 99.3206C112.91 99.8026 112.956 100.255 113.018 100.676C113.029 100.824 113.042 101.022 113.06 101.269C113.085 101.5 113.106 101.739 113.124 101.986C113.149 102.218 113.17 102.419 113.188 102.59C113.26 103.236 113.414 103.709 113.651 104.01C113.888 104.312 114.201 104.399 114.589 104.272C114.806 104.202 115.027 104.067 115.252 103.867C115.488 103.663 115.702 103.43 115.894 103.165C116.081 102.889 116.226 102.615 116.326 102.343C116.426 102.07 116.445 101.837 116.382 101.643C116.296 101.342 116.138 101.129 115.908 101.002C115.688 100.872 115.406 100.8 115.061 100.786C114.864 100.762 114.617 100.761 114.321 100.781C114.025 100.802 113.713 100.834 113.387 100.878C113.056 100.91 112.745 100.961 112.452 101.031L112.38 99.8236C112.769 99.6216 113.199 99.3736 113.672 99.0806C114.155 98.7836 114.649 98.4585 115.152 98.1056C115.655 97.7516 116.134 97.3996 116.588 97.0496C117.103 96.6546 117.547 96.2766 117.921 95.9146C118.307 95.5486 118.635 95.2396 118.906 94.9876C119.185 94.7196 119.427 94.5526 119.632 94.4855C119.986 94.3696 120.293 94.4025 120.554 94.5826C120.822 94.7476 120.98 95.0366 121.027 95.4506C121.066 95.8416 121.103 96.2276 121.139 96.6066C121.182 96.9715 121.223 97.3496 121.262 97.7406C121.302 98.0556 121.353 98.4246 121.415 98.8456C121.473 99.2556 121.54 99.6756 121.617 100.105C121.694 100.535 121.777 100.924 121.866 101.274C121.94 101.502 122.016 101.755 122.094 102.032C122.18 102.295 122.232 102.493 122.25 102.625C122.268 102.758 122.254 102.889 122.207 103.018C122.169 103.132 122.1 103.23 122.001 103.313C121.917 103.403 121.812 103.469 121.686 103.51C121.447 103.588 121.227 103.533 121.027 103.346C120.835 103.144 120.679 102.879 120.56 102.552C120.374 101.982 120.222 101.4 120.104 100.807C119.983 100.203 119.882 99.5855 119.803 98.9546C119.778 98.6856 119.744 98.3876 119.701 98.0606C119.669 97.7306 119.638 97.4056 119.61 97.0866C119.582 96.7676 119.553 96.4865 119.524 96.2436C119.503 95.9855 119.487 95.8016 119.477 95.6916L119.936 95.9386C119.722 96.1726 119.434 96.4496 119.071 96.7696C118.716 97.0756 118.306 97.4046 117.841 97.7586C117.372 98.1006 116.88 98.4506 116.366 98.8076C115.851 99.1646 115.327 99.5126 114.794 99.8506C114.268 100.174 113.756 100.461 113.257 100.712L113.227 100.04C113.315 99.9986 113.448 99.9426 113.627 99.8716C113.813 99.7856 114.032 99.7016 114.283 99.6196C114.42 99.5746 114.615 99.5366 114.87 99.5036C115.136 99.4676 115.417 99.4576 115.713 99.4746C116.02 99.4886 116.323 99.5476 116.622 99.6516C116.929 99.7405 117.194 99.8946 117.416 100.113C117.65 100.327 117.819 100.612 117.923 100.97C118.045 101.422 118.031 101.9 117.88 102.404C117.74 102.904 117.511 103.382 117.193 103.84C116.875 104.297 116.508 104.7 116.092 105.051C115.673 105.389 115.252 105.628 114.83 105.765ZM124.627 102.569C124.467 102.622 124.325 102.611 124.2 102.538C124.091 102.473 123.998 102.364 123.923 102.212C123.837 102.063 123.787 101.891 123.773 101.693C123.752 101.473 123.771 101.164 123.83 100.766C123.897 100.352 123.997 99.8836 124.13 99.3616C124.258 98.8266 124.398 98.2886 124.55 97.7476C124.717 97.1756 124.891 96.6076 125.073 96.0426C125.263 95.4636 125.452 94.9416 125.641 94.4756C125.826 93.9986 125.986 93.6186 126.121 93.3346C126.336 92.9106 126.562 92.5786 126.799 92.3366C127.043 92.0806 127.314 91.9036 127.611 91.8076C127.884 91.7176 128.104 91.7535 128.27 91.9136C128.432 92.0626 128.588 92.2706 128.739 92.5376C128.967 92.9676 129.222 93.4966 129.503 94.1245C129.791 94.7375 130.085 95.3106 130.385 95.8436C130.633 96.2935 130.852 96.6756 131.044 96.9926C131.247 97.3046 131.427 97.5676 131.585 97.7816C131.755 97.9906 131.907 98.1686 132.043 98.3136C132.171 98.4356 132.277 98.5466 132.359 98.6456C132.442 98.7446 132.498 98.8586 132.528 98.9886C132.565 99.1406 132.566 99.2976 132.531 99.4606C132.495 99.6236 132.426 99.7596 132.323 99.8696C132.235 99.9865 132.117 100.069 131.969 100.118C131.752 100.189 131.524 100.149 131.286 99.9995C131.056 99.8345 130.818 99.5906 130.574 99.2656C130.329 98.9416 130.087 98.5856 129.846 98.1966C129.704 97.9526 129.516 97.6296 129.283 97.2256C129.058 96.8066 128.822 96.3536 128.575 95.8666C128.324 95.3676 128.092 94.8876 127.878 94.4276C127.676 93.9626 127.518 93.5726 127.402 93.2576L127.789 93.2826C127.566 93.6836 127.341 94.1736 127.113 94.7526C126.893 95.3166 126.673 95.9376 126.453 96.6156C126.243 97.2896 126.047 97.9846 125.864 98.7006C125.693 99.4126 125.55 100.116 125.435 100.81C125.329 101.337 125.222 101.744 125.114 102.032C125.017 102.316 124.855 102.495 124.627 102.569ZM138.129 98.1646C137.194 98.4696 136.357 98.5155 135.618 98.3016C134.891 98.0845 134.3 97.6656 133.845 97.0436C133.397 96.4076 133.112 95.6106 132.989 94.6536C132.906 93.9736 132.941 93.3436 133.092 92.7646C133.252 92.1696 133.471 91.6436 133.751 91.1866C134.043 90.7246 134.362 90.3496 134.709 90.0596C135.053 89.7586 135.367 89.5606 135.652 89.4676C135.778 89.4266 135.886 89.4106 135.977 89.4186C136.079 89.4236 136.167 89.4576 136.238 89.5226C136.318 89.5726 136.366 89.6646 136.384 89.7976C136.402 90.0436 136.379 90.2846 136.317 90.5196C136.251 90.7426 136.071 90.9846 135.777 91.2446C135.43 91.5726 135.153 91.9025 134.946 92.2355C134.746 92.5526 134.611 92.8936 134.541 93.2576C134.466 93.6096 134.464 94.0086 134.533 94.4526C134.652 95.4366 135.002 96.1426 135.584 96.5716C136.162 96.9886 136.861 97.0636 137.683 96.7956C138.481 96.5346 139.084 96.0226 139.491 95.2586C139.906 94.4796 140.049 93.5816 139.919 92.5636C139.815 91.6255 139.534 90.9595 139.078 90.5656C138.617 90.1606 138.045 90.0696 137.36 90.2926C137.007 90.4086 136.727 90.5756 136.52 90.7946C136.325 91.0096 136.123 91.2776 135.912 91.5986C135.762 91.8366 135.647 92.0446 135.566 92.2226C135.485 92.4006 135.407 92.5456 135.33 92.6596C135.261 92.7576 135.152 92.8306 135.004 92.8796C134.844 92.9316 134.702 92.9206 134.577 92.8476C134.46 92.7596 134.386 92.5886 134.353 92.3346C134.313 92.0566 134.357 91.7456 134.484 91.4016C134.623 91.0536 134.815 90.7126 135.06 90.3806C135.313 90.0336 135.605 89.7296 135.937 89.4696C136.265 89.1985 136.612 89.0036 136.977 88.8846C137.798 88.6166 138.529 88.5926 139.169 88.8136C139.805 89.0226 140.324 89.4336 140.726 90.0466C141.124 90.6496 141.374 91.4136 141.474 92.3406C141.593 93.2476 141.531 94.1015 141.287 94.9006C141.039 95.6886 140.642 96.3666 140.095 96.9366C139.56 97.5016 138.905 97.9116 138.129 98.1646ZM152.434 93.4796C152.206 93.5536 151.983 93.5256 151.763 93.3956C151.544 93.2646 151.286 92.9956 150.989 92.5876C150.797 92.3096 150.617 91.9896 150.448 91.6276C150.291 91.2626 150.148 90.8236 150.019 90.3106C149.9 89.7936 149.798 89.1705 149.712 88.4416C149.626 87.6746 149.589 86.8846 149.602 86.0726C149.622 85.2456 149.665 84.4296 149.731 83.6256C149.781 83.0416 149.884 82.6036 150.042 82.3126C150.199 82.0216 150.426 81.8276 150.723 81.7306C150.939 81.6606 151.081 81.7086 151.149 81.8756C151.224 82.0286 151.268 82.2406 151.281 82.5146C151.264 82.8866 151.242 83.3226 151.216 83.8236C151.197 84.3086 151.183 84.8246 151.172 85.3716C151.157 85.9055 151.157 86.4485 151.173 86.9986C151.196 87.5346 151.242 88.0435 151.311 88.5256C151.394 89.1295 151.497 89.6385 151.62 90.0526C151.754 90.4636 151.894 90.7966 152.04 91.0516C152.187 91.3065 152.32 91.5226 152.44 91.6976C152.572 91.8696 152.679 92.0236 152.762 92.1606C152.856 92.2946 152.91 92.4406 152.924 92.6006C152.949 92.7936 152.92 92.9736 152.835 93.1406C152.762 93.3026 152.628 93.4156 152.434 93.4796ZM151.466 88.3046C151.127 88.5035 150.857 88.6046 150.656 88.6066C150.466 88.6056 150.33 88.5555 150.247 88.4556C150.164 88.3566 150.117 88.2526 150.106 88.1416C150.085 87.9596 150.101 87.7965 150.155 87.6525C150.205 87.4976 150.297 87.3536 150.431 87.2215C150.573 87.0745 150.763 86.9436 151.003 86.8276C151.643 86.5046 152.349 86.1735 153.121 85.8335C153.894 85.4925 154.626 85.2036 155.318 84.9656C155.683 84.8456 155.945 84.8176 156.104 84.8796C156.263 84.9406 156.357 85.0936 156.386 85.3366C156.422 85.6406 156.318 85.9016 156.074 86.1196C155.826 86.3266 155.435 86.5426 154.902 86.7666C154.366 86.9796 153.892 87.1726 153.481 87.3436C153.082 87.5126 152.718 87.6746 152.391 87.8326C152.075 87.9855 151.767 88.1435 151.466 88.3046ZM149.188 83.1786C148.971 83.2486 148.777 83.2746 148.607 83.2546C148.447 83.2306 148.321 83.1706 148.226 83.0756C148.144 82.9756 148.093 82.8596 148.075 82.7266C148.053 82.5446 148.081 82.3776 148.158 82.2266C148.235 82.0756 148.368 81.9436 148.559 81.8306C149.111 81.5116 149.747 81.1786 150.467 80.8296C151.197 80.4776 151.953 80.1426 152.733 79.8256C153.513 79.508 154.239 79.2394 154.912 79.0199C155.186 78.9305 155.427 78.896 155.636 78.9164C155.841 78.9253 156.006 78.9852 156.13 79.096C156.266 79.2032 156.341 79.3553 156.355 79.5527C156.38 79.7466 156.335 79.9185 156.221 80.0695C156.102 80.2095 155.883 80.3316 155.564 80.4356C154.377 80.8226 153.356 81.2126 152.499 81.6056C151.639 81.9876 150.935 82.3246 150.387 82.6166C149.838 82.9096 149.439 83.0965 149.188 83.1786ZM164.569 89.5586C163.519 89.9016 162.607 89.9276 161.831 89.6376C161.051 89.3365 160.424 88.7716 159.952 87.9406C159.487 87.0956 159.177 86.0286 159.022 84.7416C158.96 84.2446 158.928 83.7375 158.923 83.2215C158.915 82.6936 158.89 82.2666 158.846 81.9396C158.789 81.3776 158.729 80.9236 158.667 80.5786C158.605 80.2326 158.546 79.9556 158.49 79.7466C158.442 79.5219 158.404 79.3262 158.374 79.159C158.345 78.992 158.314 78.8 158.281 78.5835C158.268 78.3482 158.301 78.1606 158.382 78.0207C158.47 77.8657 158.611 77.7566 158.805 77.6933C159.045 77.6151 159.261 77.6583 159.453 77.8227C159.657 77.9834 159.831 78.3052 159.976 78.788C160.129 79.2558 160.257 79.9206 160.362 80.7826C160.394 81.1136 160.413 81.4796 160.418 81.8816C160.434 82.2806 160.452 82.6845 160.472 83.0946C160.492 83.5046 160.522 83.8856 160.562 84.2396C160.702 85.4436 160.947 86.3475 161.296 86.9536C161.656 87.5555 162.077 87.9356 162.558 88.0946C163.046 88.2375 163.576 88.2166 164.146 88.0306C165.093 87.7216 165.747 87.1736 166.109 86.3866C166.482 85.5956 166.584 84.4966 166.415 83.0876C166.333 82.3316 166.242 81.6665 166.143 81.0936C166.056 80.5155 165.965 79.9455 165.87 79.3838C165.786 78.8177 165.705 78.1816 165.626 77.4753C165.546 76.8828 165.574 76.3877 165.709 75.9902C165.856 75.5889 166.106 75.3305 166.46 75.2152C166.654 75.1519 166.821 75.1606 166.961 75.2411C167.112 75.3179 167.204 75.4837 167.236 75.7382C167.258 75.9584 167.268 76.1824 167.266 76.41C167.265 76.6376 167.265 76.928 167.266 77.2809C167.276 77.6187 167.314 78.0858 167.383 78.682C167.462 79.3504 167.556 80.0266 167.666 80.7106C167.783 81.3786 167.886 82.0646 167.977 82.7676C168.129 83.9296 168.107 84.9656 167.911 85.8745C167.716 86.7846 167.341 87.5506 166.787 88.1726C166.232 88.7956 165.493 89.2576 164.569 89.5586ZM171.862 87.1226C171.657 87.1896 171.46 87.1656 171.271 87.0506C171.093 86.9315 170.985 86.6955 170.945 86.3426C170.916 86.0996 170.922 85.8456 170.962 85.5806C170.998 85.3036 171.032 84.9636 171.065 84.5616C171.109 84.1566 171.122 83.6535 171.103 83.0536C171.096 82.4506 171.036 81.6876 170.924 80.7646C170.867 80.2406 170.793 79.7028 170.701 79.152C170.606 78.5897 170.509 78.0597 170.41 77.562C170.318 77.049 170.238 76.6084 170.168 76.2398C170.094 75.8599 170.047 75.5977 170.025 75.4534C169.982 75.0888 170.024 74.7532 170.151 74.4467C170.278 74.1401 170.496 73.9366 170.804 73.8361C171.26 73.6872 171.696 73.709 172.113 73.9015C172.536 74.0787 172.946 74.3869 173.342 74.8258C173.734 75.2533 174.118 75.7529 174.493 76.3246C174.865 76.8848 175.232 77.4848 175.592 78.1247C175.948 78.7531 176.293 79.3663 176.627 79.9646C176.961 80.5626 177.295 81.1036 177.63 81.5876C177.965 82.0716 178.291 82.4506 178.608 82.7266C178.921 82.9906 179.237 83.1076 179.556 83.0796L178.87 83.5876C178.993 83.2316 179.092 82.8966 179.166 82.5816C179.24 82.2675 179.271 81.9166 179.258 81.5296C179.257 81.1386 179.222 80.6636 179.154 80.1056C179.071 79.388 178.979 78.6985 178.877 78.0377C178.771 77.3652 178.671 76.71 178.576 76.0719C178.482 75.4338 178.417 74.811 178.383 74.2036C178.349 73.5962 178.357 72.9815 178.407 72.3595C178.443 72.0068 178.509 71.7453 178.605 71.5751C178.709 71.3899 178.869 71.262 179.086 71.1913C179.303 71.1206 179.485 71.1368 179.632 71.2402C179.779 71.3437 179.886 71.4981 179.953 71.7035C180.032 71.9051 180.063 72.1349 180.046 72.3928C180.008 73.0111 180.006 73.605 180.04 74.1744C180.071 74.7325 180.12 75.2906 180.189 75.8489C180.265 76.392 180.35 76.9637 180.445 77.5639C180.548 78.1489 180.635 78.7832 180.706 79.4668C180.818 80.3516 180.874 81.1606 180.873 81.8926C180.868 82.6136 180.762 83.2166 180.554 83.7006C180.353 84.1696 180.002 84.4865 179.5 84.6506C179.067 84.7915 178.649 84.7696 178.248 84.5856C177.855 84.3856 177.476 84.0735 177.11 83.6506C176.753 83.2115 176.405 82.7066 176.067 82.1346C175.725 81.5526 175.38 80.9386 175.031 80.2956C174.679 79.6405 174.317 79.014 173.945 78.4158C173.569 77.8062 173.174 77.2534 172.76 76.7574C172.346 76.2614 171.899 75.8772 171.418 75.6047L171.687 75.4413C171.842 76.1102 171.973 76.7239 172.079 77.2824C172.186 77.8409 172.275 78.3671 172.348 78.8609C172.429 79.3396 172.496 79.7976 172.55 80.2336C172.656 81.3736 172.724 82.4306 172.752 83.4056C172.776 84.3696 172.724 85.2576 172.598 86.0686C172.566 86.3186 172.492 86.5386 172.377 86.7276C172.262 86.9166 172.091 87.0486 171.862 87.1226ZM184.709 78.5209C184.526 78.5804 184.363 78.5642 184.219 78.4722C184.072 78.3688 183.963 78.2086 183.892 77.992C183.707 77.3456 183.564 76.7736 183.465 76.2759C183.374 75.763 183.292 75.2217 183.219 74.652C183.151 74.0178 183.102 73.4786 183.07 73.0344C183.051 72.5865 183.036 72.1747 183.027 71.799C183.018 71.4231 182.99 71.0473 182.943 70.6714C182.911 70.4548 182.933 70.252 183.01 70.0627C183.083 69.8621 183.228 69.7264 183.445 69.6557C183.685 69.5775 183.906 69.6188 184.11 69.7795C184.31 69.9288 184.443 70.2199 184.509 70.653C184.545 70.9947 184.563 71.3231 184.565 71.6381C184.567 71.9531 184.578 72.3155 184.598 72.7255C184.614 73.1241 184.657 73.6404 184.725 74.2746C184.779 74.7113 184.833 75.0722 184.888 75.3572C184.943 75.6421 184.993 75.891 185.037 76.1038C185.081 76.3166 185.122 76.518 185.159 76.708C185.207 76.8942 185.243 77.1032 185.268 77.3348C185.296 77.6917 185.247 77.9665 185.121 78.1592C185.006 78.3482 184.868 78.4688 184.709 78.5209ZM185.399 82.7266C184.977 82.8636 184.616 82.8615 184.317 82.7196C184.015 82.5656 183.836 82.2705 183.782 81.8335C183.739 81.5065 183.801 81.2145 183.97 80.9585C184.139 80.7015 184.366 80.5266 184.651 80.4336C185.153 80.2696 185.534 80.2966 185.794 80.5146C186.055 80.7326 186.209 81.0296 186.255 81.4056C186.277 81.6636 186.222 81.9215 186.091 82.1786C185.972 82.4315 185.741 82.6146 185.399 82.7266Z" fill="#7831B2"/>
<path d="M92.5519 28.3682C92.8452 28.8361 92.7038 29.4533 92.2359 29.7467C91.7679 30.0401 91.1508 29.8986 90.8574 29.4307L92.5519 28.3682ZM92.5347 28.5453C92.7995 29.0299 92.6213 29.6375 92.1367 29.9023C91.652 30.1671 91.0445 29.9889 90.7796 29.5042L92.5347 28.5453ZM0.0230679 19.578C-0.0943412 19.0384 0.247964 18.5057 0.787624 18.3883L9.58191 16.475C10.1216 16.3576 10.6543 16.6999 10.7717 17.2396C10.8891 17.7793 10.5468 18.3119 10.0071 18.4293L2.18994 20.13L3.89062 27.9471C4.00803 28.4868 3.66573 29.0195 3.12606 29.1369C2.5864 29.2543 2.05374 28.912 1.93634 28.3723L0.0230679 19.578ZM91.7046 28.8994C90.8574 29.4307 90.8574 29.4307 90.8574 29.4307L90.8568 29.4297C90.8568 29.4297 90.8552 29.4272 90.8539 29.4251C90.8512 29.4208 90.8469 29.414 90.8412 29.4049C90.8296 29.3867 90.812 29.359 90.7885 29.3222C90.7414 29.2485 90.6706 29.1383 90.5769 28.9946C90.3896 28.7072 90.111 28.2858 89.7489 27.7542C89.0245 26.6907 87.9666 25.1872 86.6364 23.4336C83.9729 19.9222 80.2329 15.428 75.9071 11.4571C71.5677 7.47376 66.7134 4.08666 61.8265 2.68676C57.0027 1.30496 52.1421 1.84995 47.5865 5.75595L46.2847 4.23766C51.4134 -0.159844 56.9911 -0.778845 62.3773 0.764155C67.7004 2.28895 72.8277 5.91556 77.2596 9.98376C81.705 14.0644 85.5256 18.6598 88.2299 22.2249C89.5837 24.0097 90.6615 25.5413 91.4019 26.6283C91.7721 27.1719 92.0582 27.6046 92.2524 27.9025C92.3495 28.0514 92.4236 28.1667 92.4738 28.2453C92.499 28.2846 92.5181 28.3148 92.5311 28.3354C92.5377 28.3457 92.5427 28.3536 92.5461 28.3591C92.5478 28.3618 92.5501 28.3655 92.5501 28.3655L92.5513 28.3673C92.5513 28.3673 92.5519 28.3682 91.7046 28.8994ZM47.5865 5.75595C35.1985 16.3779 25.2867 21.4655 17.7498 23.4547C10.2202 25.442 4.99888 24.3469 2.11791 22.4955L3.19916 20.813C5.47515 22.2756 10.0774 23.4112 17.2395 21.5209C24.3943 19.6326 34.0425 14.7346 46.2847 4.23766L47.5865 5.75595ZM91.6572 29.0248C90.7796 29.5042 90.7796 29.5042 90.7796 29.5042C90.7796 29.5042 90.7779 29.501 90.7767 29.4989C90.7744 29.4947 90.7707 29.488 90.7657 29.4789C90.7556 29.4606 90.7401 29.4328 90.7193 29.3957C90.6778 29.3214 90.615 29.2102 90.5317 29.065C90.3651 28.7747 90.1162 28.3487 89.7905 27.8116C89.1389 26.7371 88.1803 25.2193 86.9569 23.454C84.5066 19.9181 81.0104 15.4131 76.8071 11.4872C72.5935 7.55176 67.7399 4.26496 62.5796 3.05366C57.4763 1.85576 51.9901 2.66545 46.3709 7.08155L45.1351 5.50906C51.2285 0.720256 57.3368 -0.231344 63.0366 1.10656C68.6795 2.43116 73.8378 5.97725 78.1722 10.0256C82.5167 14.0832 86.1043 18.7124 88.6008 22.3148C89.8508 24.1186 90.8314 25.671 91.5006 26.7745C91.8353 27.3263 92.0923 27.7662 92.2663 28.0694C92.3534 28.2211 92.4197 28.3386 92.4646 28.4189C92.4871 28.4591 92.5042 28.49 92.5159 28.5111C92.5218 28.5217 92.5263 28.5299 92.5294 28.5356C92.531 28.5385 92.5331 28.5423 92.5331 28.5423L92.5342 28.5442C92.5342 28.5442 92.5347 28.5453 91.6572 29.0248ZM46.3709 7.08155C22.7953 25.6093 6.13927 23.8567 0.459586 20.2067L1.54083 18.5242C6.17507 21.5023 21.8597 23.8009 45.1351 5.50906L46.3709 7.08155Z" fill="#7831B2"/>
</svg>
