<svg width="193" height="43" viewBox="0 0 193 43" fill="none" xmlns="http://www.w3.org/2000/svg">
<path d="M59.0784 5.22067H65.1624C65.6424 5.22067 66.0384 5.34667 66.3504 5.59867C66.6744 5.85067 66.9144 6.17467 67.0704 6.57067C67.2384 6.96667 67.3224 7.38667 67.3224 7.83067C67.3224 8.33467 67.2204 8.82667 67.0164 9.30667C66.8124 9.77467 66.5244 10.1947 66.1524 10.5667C65.7804 10.9387 65.3484 11.2327 64.8564 11.4487C65.3844 11.6287 65.7924 11.9527 66.0804 12.4207C66.3684 12.8767 66.5124 13.4107 66.5124 14.0227C66.5124 14.6107 66.3924 15.1507 66.1524 15.6427C65.9124 16.1347 65.5824 16.5547 65.1624 16.9027C64.7424 17.2507 64.2744 17.5207 63.7584 17.7127C63.2424 17.9047 62.7024 18.0007 62.1384 18.0007H56.3604L59.0784 5.22067ZM62.4264 16.5967C62.7384 16.5967 63.0444 16.5247 63.3444 16.3807C63.6444 16.2367 63.9084 16.0447 64.1364 15.8047C64.3764 15.5527 64.5624 15.2707 64.6944 14.9587C64.8384 14.6347 64.9104 14.3047 64.9104 13.9687C64.9104 13.6447 64.8504 13.3507 64.7304 13.0867C64.6224 12.8227 64.4604 12.6127 64.2444 12.4567C64.0404 12.2887 63.7884 12.2047 63.4884 12.2047H59.2044L58.2864 16.5967H62.4264ZM63.2904 10.8907C63.5904 10.8907 63.8784 10.8247 64.1544 10.6927C64.4424 10.5487 64.6944 10.3567 64.9104 10.1167C65.1384 9.87667 65.3124 9.60067 65.4324 9.28867C65.5644 8.97667 65.6304 8.64667 65.6304 8.29867C65.6304 7.81867 65.5104 7.42267 65.2704 7.11067C65.0424 6.78667 64.7184 6.62467 64.2984 6.62467H60.3924L59.4924 10.8907H63.2904Z" fill="#262626"/>
<path d="M71.7407 18.1807C70.9487 18.1807 70.2767 18.0007 69.7247 17.6407C69.1847 17.2807 68.7707 16.8007 68.4827 16.2007C68.1947 15.6007 68.0507 14.9347 68.0507 14.2027C68.0507 13.4467 68.1947 12.7267 68.4827 12.0427C68.7707 11.3467 69.1667 10.7287 69.6707 10.1887C70.1867 9.64867 70.7867 9.22267 71.4707 8.91067C72.1667 8.59867 72.9167 8.44267 73.7207 8.44267C74.6447 8.44267 75.3827 8.65267 75.9347 9.07267C76.4987 9.48067 76.8707 10.0327 77.0507 10.7287L75.4127 11.2147C75.2687 10.7587 75.0287 10.4107 74.6927 10.1707C74.3567 9.93067 73.9427 9.81067 73.4507 9.81067C72.9707 9.81067 72.5027 9.91867 72.0467 10.1347C71.6027 10.3507 71.2007 10.6567 70.8407 11.0527C70.4927 11.4367 70.2107 11.8807 69.9947 12.3847C69.7907 12.8887 69.6887 13.4287 69.6887 14.0047C69.6887 14.5447 69.7847 15.0247 69.9767 15.4447C70.1687 15.8647 70.4327 16.2007 70.7687 16.4527C71.1167 16.6927 71.5127 16.8127 71.9567 16.8127C72.3047 16.8127 72.6527 16.7467 73.0007 16.6147C73.3487 16.4827 73.6607 16.3087 73.9367 16.0927C74.2247 15.8647 74.4407 15.6187 74.5847 15.3547L76.0427 15.8227C75.7667 16.2787 75.4007 16.6867 74.9447 17.0467C74.5007 17.3947 74.0027 17.6707 73.4507 17.8747C72.8987 18.0787 72.3287 18.1807 71.7407 18.1807Z" fill="#262626"/>
<path d="M81.8072 18.1807C80.8592 18.1807 80.0732 17.9587 79.4492 17.5147C78.8372 17.0587 78.3992 16.4587 78.1352 15.7147C77.8832 14.9707 77.8172 14.1607 77.9372 13.2847C78.0332 12.6247 78.2312 12.0067 78.5312 11.4307C78.8432 10.8427 79.2392 10.3267 79.7192 9.88267C80.1992 9.42667 80.7452 9.07267 81.3572 8.82067C81.9812 8.56867 82.6472 8.44267 83.3552 8.44267C83.9312 8.44267 84.4652 8.53867 84.9572 8.73067C85.4492 8.91067 85.8452 9.19267 86.1452 9.57667C86.4452 9.94867 86.5952 10.4167 86.5952 10.9807C86.5952 11.9287 86.1932 12.6607 85.3892 13.1767C84.5972 13.6807 83.3252 13.9327 81.5732 13.9327C81.1292 13.9327 80.6612 13.9267 80.1692 13.9147C79.6772 13.8907 79.1432 13.8547 78.5672 13.8067L78.8732 12.6367C79.3772 12.6727 79.8392 12.7027 80.2592 12.7267C80.6912 12.7387 81.1172 12.7447 81.5372 12.7447C82.4252 12.7447 83.1152 12.6727 83.6072 12.5287C84.1112 12.3847 84.4652 12.1867 84.6692 11.9347C84.8732 11.6707 84.9632 11.3647 84.9392 11.0167C84.9272 10.7407 84.8372 10.5067 84.6692 10.3147C84.5132 10.1227 84.2972 9.97867 84.0212 9.88267C83.7572 9.78667 83.4572 9.73867 83.1212 9.73867C82.6772 9.73867 82.2512 9.82867 81.8432 10.0087C81.4352 10.1767 81.0632 10.4227 80.7272 10.7467C80.4032 11.0707 80.1272 11.4487 79.8992 11.8807C79.6832 12.3127 79.5392 12.7807 79.4672 13.2847C79.3712 13.9807 79.4072 14.6047 79.5752 15.1567C79.7432 15.6967 80.0372 16.1227 80.4572 16.4347C80.8772 16.7347 81.4052 16.8847 82.0412 16.8847C82.4852 16.8847 82.8692 16.8247 83.1932 16.7047C83.5172 16.5727 83.7812 16.4227 83.9852 16.2547C84.2012 16.0747 84.3572 15.9247 84.4532 15.8047C84.5612 15.6727 84.6152 15.6067 84.6152 15.6067L85.9832 16.0567C85.9832 16.0567 85.9052 16.1647 85.7492 16.3807C85.5932 16.5967 85.3472 16.8427 85.0112 17.1187C84.6752 17.3947 84.2432 17.6407 83.7152 17.8567C83.1872 18.0727 82.5512 18.1807 81.8072 18.1807Z" fill="#262626"/>
<path d="M91.1788 18.1807C90.4108 18.1807 89.7748 18.0727 89.2708 17.8567C88.7788 17.6407 88.4188 17.3347 88.1908 16.9387C87.9628 16.5427 87.8668 16.0807 87.9028 15.5527C87.9628 14.8447 88.2688 14.2867 88.8208 13.8787C89.3728 13.4587 90.2488 13.0567 91.4488 12.6727C91.9888 12.4927 92.4088 12.3247 92.7088 12.1687C93.0208 12.0127 93.2488 11.8387 93.3928 11.6467C93.5368 11.4427 93.6208 11.2087 93.6448 10.9447C93.6808 10.5127 93.5608 10.1827 93.2848 9.95467C93.0088 9.72667 92.6128 9.61267 92.0968 9.61267C91.6168 9.61267 91.1608 9.71467 90.7288 9.91867C90.2968 10.1107 89.9488 10.3867 89.6848 10.7467L88.5508 10.0447C88.9348 9.52867 89.4508 9.13267 90.0988 8.85667C90.7588 8.56867 91.5088 8.42467 92.3488 8.42467C93.3568 8.42467 94.1068 8.65267 94.5988 9.10867C95.0908 9.55267 95.3188 10.1647 95.2828 10.9447C95.2348 11.6527 94.9528 12.2167 94.4368 12.6367C93.9208 13.0447 93.1348 13.4167 92.0788 13.7527C91.4548 13.9567 90.9628 14.1427 90.6028 14.3107C90.2428 14.4787 89.9848 14.6647 89.8288 14.8687C89.6728 15.0607 89.5768 15.2947 89.5408 15.5707C89.4928 16.0147 89.6368 16.3567 89.9728 16.5967C90.3088 16.8247 90.8128 16.9387 91.4848 16.9387C91.9888 16.9387 92.4688 16.8367 92.9248 16.6327C93.3808 16.4287 93.7708 16.1407 94.0948 15.7687L95.1028 16.6327C94.6588 17.1127 94.1128 17.4907 93.4648 17.7667C92.8288 18.0427 92.0668 18.1807 91.1788 18.1807Z" fill="#262626"/>
<path d="M100.849 18.1807C99.9126 18.1807 99.1206 17.9587 98.4726 17.5147C97.8246 17.0587 97.3506 16.4647 97.0506 15.7327C96.7626 14.9887 96.6786 14.1847 96.7986 13.3207C96.8946 12.6607 97.0926 12.0367 97.3926 11.4487C97.7046 10.8607 98.1006 10.3447 98.5806 9.90067C99.0726 9.44467 99.6246 9.09067 100.237 8.83867C100.861 8.57467 101.521 8.44267 102.217 8.44267C103.153 8.44267 103.945 8.67067 104.593 9.12667C105.241 9.57067 105.715 10.1647 106.015 10.9087C106.315 11.6407 106.405 12.4447 106.285 13.3207C106.201 13.9687 106.003 14.5867 105.691 15.1747C105.391 15.7627 105.001 16.2847 104.521 16.7407C104.041 17.1847 103.489 17.5387 102.865 17.8027C102.241 18.0547 101.569 18.1807 100.849 18.1807ZM101.029 16.8847C101.461 16.8847 101.875 16.7947 102.271 16.6147C102.679 16.4227 103.045 16.1587 103.369 15.8227C103.705 15.4867 103.981 15.1027 104.197 14.6707C104.425 14.2387 104.575 13.7827 104.647 13.3027C104.743 12.6427 104.689 12.0427 104.485 11.5027C104.281 10.9627 103.969 10.5367 103.549 10.2247C103.129 9.90067 102.625 9.73867 102.037 9.73867C101.605 9.73867 101.191 9.83467 100.795 10.0267C100.399 10.2067 100.033 10.4587 99.6966 10.7827C99.3606 11.1067 99.0846 11.4907 98.8686 11.9347C98.6526 12.3667 98.5086 12.8347 98.4366 13.3387C98.3526 13.9987 98.4126 14.5987 98.6166 15.1387C98.8206 15.6787 99.1326 16.1047 99.5526 16.4167C99.9726 16.7287 100.465 16.8847 101.029 16.8847Z" fill="#262626"/>
<path d="M111.746 18.0007L113.726 8.60467H121.52L119.522 18.0007H117.938L119.666 9.84667H115.058L113.33 18.0007H111.746Z" fill="#262626"/>
<path d="M126.53 18.1807C125.594 18.1807 124.802 17.9587 124.154 17.5147C123.506 17.0587 123.032 16.4647 122.732 15.7327C122.444 14.9887 122.36 14.1847 122.48 13.3207C122.576 12.6607 122.774 12.0367 123.074 11.4487C123.386 10.8607 123.782 10.3447 124.262 9.90067C124.754 9.44467 125.306 9.09067 125.918 8.83867C126.542 8.57467 127.202 8.44267 127.898 8.44267C128.834 8.44267 129.626 8.67067 130.274 9.12667C130.922 9.57067 131.396 10.1647 131.696 10.9087C131.996 11.6407 132.086 12.4447 131.966 13.3207C131.882 13.9687 131.684 14.5867 131.372 15.1747C131.072 15.7627 130.682 16.2847 130.202 16.7407C129.722 17.1847 129.17 17.5387 128.546 17.8027C127.922 18.0547 127.25 18.1807 126.53 18.1807ZM126.71 16.8847C127.142 16.8847 127.556 16.7947 127.952 16.6147C128.36 16.4227 128.726 16.1587 129.05 15.8227C129.386 15.4867 129.662 15.1027 129.878 14.6707C130.106 14.2387 130.256 13.7827 130.328 13.3027C130.424 12.6427 130.37 12.0427 130.166 11.5027C129.962 10.9627 129.65 10.5367 129.23 10.2247C128.81 9.90067 128.306 9.73867 127.718 9.73867C127.286 9.73867 126.872 9.83467 126.476 10.0267C126.08 10.2067 125.714 10.4587 125.378 10.7827C125.042 11.1067 124.766 11.4907 124.55 11.9347C124.334 12.3667 124.19 12.8347 124.118 13.3387C124.034 13.9987 124.094 14.5987 124.298 15.1387C124.502 15.6787 124.814 16.1047 125.234 16.4167C125.654 16.7287 126.146 16.8847 126.71 16.8847Z" fill="#262626"/>
<path d="M132.423 18.0007C132.951 16.4287 133.683 14.8507 134.619 13.2667C135.555 11.6707 136.731 10.1167 138.147 8.60467H139.767L141.117 18.0007H139.461L138.543 10.0627C137.979 10.7227 137.469 11.3827 137.013 12.0427C136.557 12.7027 136.143 13.3687 135.771 14.0407C135.411 14.7007 135.081 15.3607 134.781 16.0207C134.481 16.6807 134.211 17.3407 133.971 18.0007H132.423Z" fill="#262626"/>
<path d="M144.59 8.60467H146.03L145.598 10.6207C146.078 9.94867 146.654 9.42067 147.326 9.03667C147.998 8.64067 148.682 8.44267 149.378 8.44267C149.846 8.44267 150.236 8.53267 150.548 8.71267C150.872 8.89267 151.118 9.15067 151.286 9.48667C151.454 9.82267 151.544 10.2367 151.556 10.7287C151.928 10.2247 152.318 9.80467 152.726 9.46867C153.134 9.13267 153.566 8.88067 154.022 8.71267C154.478 8.53267 154.94 8.44267 155.408 8.44267C155.924 8.44267 156.332 8.53867 156.632 8.73067C156.932 8.92267 157.148 9.19267 157.28 9.54067C157.424 9.87667 157.496 10.2727 157.496 10.7287C157.496 10.9807 157.478 11.2447 157.442 11.5207C157.406 11.7967 157.358 12.0847 157.298 12.3847L156.092 18.0007H154.508L155.624 12.7447C155.732 12.2407 155.786 11.8027 155.786 11.4307C155.786 10.9027 155.672 10.5127 155.444 10.2607C155.228 9.99667 154.91 9.86467 154.49 9.86467C154.094 9.86467 153.698 9.97267 153.302 10.1887C152.906 10.3927 152.534 10.6807 152.186 11.0527C151.85 11.4247 151.562 11.8567 151.322 12.3487L150.134 18.0007H148.55L149.666 12.7447C149.726 12.4807 149.768 12.2407 149.792 12.0247C149.816 11.8087 149.828 11.6047 149.828 11.4127C149.828 10.8847 149.72 10.4947 149.504 10.2427C149.288 9.99067 148.97 9.86467 148.55 9.86467C147.962 9.86467 147.374 10.0927 146.786 10.5487C146.21 10.9927 145.742 11.5867 145.382 12.3307L144.176 18.0007H142.592L144.59 8.60467Z" fill="#262626"/>
<path d="M163.163 18.1807C162.227 18.1807 161.435 17.9587 160.787 17.5147C160.139 17.0587 159.665 16.4647 159.365 15.7327C159.077 14.9887 158.993 14.1847 159.113 13.3207C159.209 12.6607 159.407 12.0367 159.707 11.4487C160.019 10.8607 160.415 10.3447 160.895 9.90067C161.387 9.44467 161.939 9.09067 162.551 8.83867C163.175 8.57467 163.835 8.44267 164.531 8.44267C165.467 8.44267 166.259 8.67067 166.907 9.12667C167.555 9.57067 168.029 10.1647 168.329 10.9087C168.629 11.6407 168.719 12.4447 168.599 13.3207C168.515 13.9687 168.317 14.5867 168.005 15.1747C167.705 15.7627 167.315 16.2847 166.835 16.7407C166.355 17.1847 165.803 17.5387 165.179 17.8027C164.555 18.0547 163.883 18.1807 163.163 18.1807ZM163.343 16.8847C163.775 16.8847 164.189 16.7947 164.585 16.6147C164.993 16.4227 165.359 16.1587 165.683 15.8227C166.019 15.4867 166.295 15.1027 166.511 14.6707C166.739 14.2387 166.889 13.7827 166.961 13.3027C167.057 12.6427 167.003 12.0427 166.799 11.5027C166.595 10.9627 166.283 10.5367 165.863 10.2247C165.443 9.90067 164.939 9.73867 164.351 9.73867C163.919 9.73867 163.505 9.83467 163.109 10.0267C162.713 10.2067 162.347 10.4587 162.011 10.7827C161.675 11.1067 161.399 11.4907 161.183 11.9347C160.967 12.3667 160.823 12.8347 160.751 13.3387C160.667 13.9987 160.727 14.5987 160.931 15.1387C161.135 15.6787 161.447 16.1047 161.867 16.4167C162.287 16.7287 162.779 16.8847 163.343 16.8847Z" fill="#262626"/>
<path d="M171.467 8.60467H172.871L172.493 10.3687C172.973 9.79267 173.531 9.33067 174.167 8.98267C174.815 8.62267 175.475 8.44267 176.147 8.44267C176.843 8.44267 177.437 8.62267 177.929 8.98267C178.421 9.34267 178.799 9.82267 179.063 10.4227C179.327 11.0107 179.459 11.6587 179.459 12.3667C179.459 13.1107 179.321 13.8307 179.045 14.5267C178.769 15.2227 178.391 15.8467 177.911 16.3987C177.431 16.9507 176.879 17.3887 176.255 17.7127C175.643 18.0247 174.989 18.1807 174.293 18.1807C173.561 18.1807 172.955 17.9887 172.475 17.6047C171.995 17.2207 171.653 16.7347 171.449 16.1467L170.243 21.8347H168.659L171.467 8.60467ZM174.095 16.8127C174.599 16.8127 175.073 16.6927 175.517 16.4527C175.961 16.2007 176.351 15.8767 176.687 15.4807C177.035 15.0727 177.305 14.6227 177.497 14.1307C177.701 13.6267 177.803 13.1227 177.803 12.6187C177.803 12.1027 177.707 11.6347 177.515 11.2147C177.323 10.7827 177.047 10.4407 176.687 10.1887C176.339 9.93667 175.925 9.81067 175.445 9.81067C175.181 9.81067 174.893 9.86467 174.581 9.97267C174.281 10.0807 173.981 10.2367 173.681 10.4407C173.381 10.6327 173.111 10.8547 172.871 11.1067C172.643 11.3587 172.469 11.6287 172.349 11.9167L171.773 14.5987C171.857 15.0067 172.001 15.3787 172.205 15.7147C172.421 16.0507 172.691 16.3207 173.015 16.5247C173.339 16.7167 173.699 16.8127 174.095 16.8127Z" fill="#262626"/>
<path d="M184.114 18.1447C183.394 18.1447 182.764 18.0067 182.224 17.7307C181.684 17.4547 181.294 17.0347 181.054 16.4707C180.826 15.9067 180.79 15.1867 180.946 14.3107C181.138 13.3627 181.348 12.4147 181.576 11.4667C181.804 10.5067 182.032 9.55267 182.26 8.60467H183.844C183.616 9.56467 183.388 10.5307 183.16 11.5027C182.932 12.4627 182.722 13.4287 182.53 14.4007C182.386 15.2407 182.494 15.8587 182.854 16.2547C183.214 16.6507 183.694 16.8487 184.294 16.8487C184.858 16.8487 185.326 16.6627 185.698 16.2907C186.07 15.9187 186.298 15.4267 186.382 14.8147C186.466 14.1787 186.352 13.6807 186.04 13.3207C185.74 12.9487 185.188 12.7627 184.384 12.7627H182.314L182.512 11.5207H184.78C185.356 11.5207 185.86 11.6047 186.292 11.7727C186.736 11.9407 187.096 12.1807 187.372 12.4927C187.648 12.8047 187.84 13.1767 187.948 13.6087C188.068 14.0287 188.092 14.4967 188.02 15.0127C187.912 15.7207 187.672 16.3087 187.3 16.7767C186.94 17.2447 186.484 17.5927 185.932 17.8207C185.392 18.0367 184.786 18.1447 184.114 18.1447ZM190.828 8.60467H192.412L190.414 18.0007H188.83L190.828 8.60467Z" fill="#262626"/>
<path d="M56.2344 38.0007L58.2144 28.6047H59.9784L61.9404 34.5447L66.4584 28.6047H68.3124L66.3324 38.0007H64.8204L66.3324 30.8187L62.1744 36.3267H61.1664L59.2764 30.7827L57.7464 38.0007H56.2344Z" fill="#262626"/>
<path d="M71.3412 38.1807C69.8772 38.1807 69.1452 37.3887 69.1452 35.8047C69.1452 35.5767 69.1632 35.3367 69.1992 35.0847C69.2352 34.8207 69.2832 34.5387 69.3432 34.2387L70.5492 28.6047H72.1152L70.9812 33.9327C70.8732 34.4127 70.8192 34.8267 70.8192 35.1747C70.8192 36.2667 71.2872 36.8127 72.2232 36.8127C72.6312 36.8127 73.0392 36.7227 73.4472 36.5427C73.8552 36.3507 74.2452 36.0807 74.6172 35.7327C75.0012 35.3847 75.3312 34.9707 75.6072 34.4907L76.8492 28.6047H78.4332L76.8492 36.0567C76.8372 36.1047 76.8252 36.1467 76.8132 36.1827C76.8132 36.2187 76.8132 36.2547 76.8132 36.2907C76.8132 36.5067 76.9452 36.6207 77.2092 36.6327L76.9212 38.0007C76.7892 38.0127 76.6692 38.0247 76.5612 38.0367C76.4652 38.0607 76.3752 38.0727 76.2912 38.0727C75.9672 38.0727 75.7212 38.0007 75.5532 37.8567C75.3852 37.7127 75.3012 37.5207 75.3012 37.2807C75.3012 37.2087 75.3072 37.1247 75.3192 37.0287C75.3312 36.9207 75.3492 36.7827 75.3732 36.6147C75.4092 36.4467 75.4512 36.2367 75.4992 35.9847C74.9592 36.6807 74.3232 37.2207 73.5912 37.6047C72.8592 37.9887 72.1092 38.1807 71.3412 38.1807Z" fill="#262626"/>
<path d="M79.1739 38.0007L81.1539 28.6047H82.7379L81.8919 32.5647H86.8059L87.6339 28.6047H89.2179L87.2379 38.0007H85.6539L86.5359 33.8067H81.6399L80.7579 38.0007H79.1739Z" fill="#262626"/>
<path d="M88.6282 40.7547C89.1322 40.6827 89.5403 40.5867 89.8522 40.4667C90.1762 40.3587 90.4582 40.1847 90.6982 39.9447C90.9382 39.7167 91.1962 39.3987 91.4722 38.9907L91.9942 38.1987L90.1762 28.6047H91.8142L93.1102 36.5787L93.7222 35.5707C94.2262 34.7427 94.6522 34.0167 95.0002 33.3927C95.3482 32.7687 95.6423 32.1987 95.8822 31.6827C96.1342 31.1547 96.3442 30.6447 96.5122 30.1527C96.6802 29.6607 96.8363 29.1447 96.9802 28.6047H98.5462C98.3903 29.1807 98.2162 29.7207 98.0242 30.2247C97.8322 30.7287 97.6042 31.2567 97.3402 31.8087C97.0762 32.3607 96.7402 32.9847 96.3322 33.6807C95.9362 34.3647 95.4382 35.1867 94.8382 36.1467L93.3982 38.4687C92.9902 39.1287 92.6062 39.6807 92.2462 40.1247C91.8862 40.5807 91.5262 40.9467 91.1662 41.2227C90.8182 41.4987 90.4522 41.6967 90.0682 41.8167C89.6962 41.9487 89.2882 42.0207 88.8442 42.0327L88.6282 40.7547Z" fill="#262626"/>
<path d="M100.364 28.6047H101.804L101.372 30.6207C101.852 29.9487 102.428 29.4207 103.1 29.0367C103.772 28.6407 104.456 28.4427 105.152 28.4427C105.62 28.4427 106.01 28.5327 106.322 28.7127C106.646 28.8927 106.892 29.1507 107.06 29.4867C107.228 29.8227 107.318 30.2367 107.33 30.7287C107.702 30.2247 108.092 29.8047 108.5 29.4687C108.908 29.1327 109.34 28.8807 109.796 28.7127C110.252 28.5327 110.714 28.4427 111.182 28.4427C111.698 28.4427 112.106 28.5387 112.406 28.7307C112.706 28.9227 112.922 29.1927 113.054 29.5407C113.198 29.8767 113.27 30.2727 113.27 30.7287C113.27 30.9807 113.252 31.2447 113.216 31.5207C113.18 31.7967 113.132 32.0847 113.072 32.3847L111.866 38.0007H110.282L111.398 32.7447C111.506 32.2407 111.56 31.8027 111.56 31.4307C111.56 30.9027 111.446 30.5127 111.218 30.2607C111.002 29.9967 110.684 29.8647 110.264 29.8647C109.868 29.8647 109.472 29.9727 109.076 30.1887C108.68 30.3927 108.308 30.6807 107.96 31.0527C107.624 31.4247 107.336 31.8567 107.096 32.3487L105.908 38.0007H104.324L105.44 32.7447C105.5 32.4807 105.542 32.2407 105.566 32.0247C105.59 31.8087 105.602 31.6047 105.602 31.4127C105.602 30.8847 105.494 30.4947 105.278 30.2427C105.062 29.9907 104.744 29.8647 104.324 29.8647C103.736 29.8647 103.148 30.0927 102.56 30.5487C101.984 30.9927 101.516 31.5867 101.156 32.3307L99.9498 38.0007H98.3658L100.364 28.6047Z" fill="#262626"/>
<path d="M118.108 38.1447C117.388 38.1447 116.758 38.0067 116.218 37.7307C115.678 37.4547 115.288 37.0347 115.048 36.4707C114.82 35.9067 114.784 35.1867 114.94 34.3107C115.132 33.3627 115.342 32.4147 115.57 31.4667C115.798 30.5067 116.026 29.5527 116.254 28.6047H117.838C117.61 29.5647 117.382 30.5307 117.154 31.5027C116.926 32.4627 116.716 33.4287 116.524 34.4007C116.38 35.2407 116.488 35.8587 116.848 36.2547C117.208 36.6507 117.688 36.8487 118.288 36.8487C118.852 36.8487 119.32 36.6627 119.692 36.2907C120.064 35.9187 120.292 35.4267 120.376 34.8147C120.46 34.1787 120.346 33.6807 120.034 33.3207C119.734 32.9487 119.182 32.7627 118.378 32.7627H116.308L116.506 31.5207H118.774C119.35 31.5207 119.854 31.6047 120.286 31.7727C120.73 31.9407 121.09 32.1807 121.366 32.4927C121.642 32.8047 121.834 33.1767 121.942 33.6087C122.062 34.0287 122.086 34.4967 122.014 35.0127C121.906 35.7207 121.666 36.3087 121.294 36.7767C120.934 37.2447 120.478 37.5927 119.926 37.8207C119.386 38.0367 118.78 38.1447 118.108 38.1447ZM124.822 28.6047H126.406L124.408 38.0007H122.824L124.822 28.6047Z" fill="#262626"/>
<path fill-rule="evenodd" clip-rule="evenodd" d="M12.074 4.54145C8.0925 6.87341 4.95606 10.6937 3.56176 15.5101C0.678626 25.4694 6.34379 35.8905 16.194 38.795C20.9584 40.1998 25.8349 39.5905 29.9261 37.4595C33.9076 35.1275 37.0441 31.3073 38.4384 26.4909C41.3215 16.5315 35.6563 6.11042 25.8061 3.20593C21.0418 1.8011 16.1652 2.41041 12.074 4.54145ZM11.1082 2.78949C15.8054 0.053561 21.5607 -0.817606 27.1817 0.839822C38.1016 4.05971 44.3546 15.5965 41.1694 26.5992C39.5296 32.2635 35.7062 36.689 30.892 39.2114C26.1948 41.9474 20.4394 42.8185 14.8185 41.1611C3.89857 37.9412 -2.35445 26.4044 0.830719 15.4017C2.47048 9.73738 6.29395 5.31193 11.1082 2.78949ZM28.3915 9.44666C28.3987 9.5875 28.3762 9.73211 28.32 9.87151L23.0982 22.8225C22.5056 24.2921 20.4003 24.1683 19.9746 22.6494L15.9614 8.3285C15.8124 7.7967 16.1227 7.24478 16.6545 7.09576C16.8554 7.03944 17.0593 7.04872 17.2432 7.11076C17.5006 7.19691 17.7222 7.38695 17.8407 7.65479C19.8956 12.3028 21.0784 16.7702 21.7296 19.869C22.4661 17.5114 23.4339 14.545 24.3339 12.2001C24.8372 10.8887 25.3408 9.7143 25.7882 8.94949C25.9902 8.60418 26.2676 8.18426 26.6264 7.9384C26.8218 7.80449 27.1905 7.62198 27.6454 7.73396C28.0996 7.84577 28.3445 8.17859 28.4599 8.39529C28.6444 8.74154 28.6047 9.14748 28.3915 9.44666Z" fill="#262626"/>
</svg>
