<svg width="153" height="62" viewBox="0 0 153 62" fill="none" xmlns="http://www.w3.org/2000/svg">
<path d="M43.9476 16.0366C43.534 16.0366 43.1829 15.9029 42.8944 15.6357C42.6155 15.3684 42.3991 15.0056 42.2452 14.5474C42.0913 14.0892 42.0047 13.5642 41.9855 12.9723C41.9759 12.3804 42.0384 11.7647 42.173 11.1251C42.25 10.7433 42.3269 10.3901 42.4039 10.0655C42.4904 9.74095 42.5866 9.42115 42.6924 9.10613C42.7982 8.79111 42.9184 8.45223 43.0531 8.08948C43.1974 7.71718 43.3657 7.29238 43.5581 6.81507C43.6254 6.64324 43.7071 6.52869 43.8033 6.47142C43.8995 6.40459 44.0245 6.37118 44.1784 6.37118C44.2938 6.37118 44.3948 6.42368 44.4814 6.52869C44.568 6.62415 44.616 6.7578 44.6257 6.92963C44.6449 7.10146 44.6112 7.29715 44.5247 7.51671C44.3323 8.02265 44.1688 8.46655 44.0341 8.84839C43.9091 9.23023 43.7985 9.59776 43.7023 9.95096C43.6158 10.3042 43.5292 10.686 43.4426 11.0965C43.3368 11.6215 43.2695 12.1036 43.2407 12.5427C43.2214 12.9818 43.2407 13.3732 43.2984 13.7169C43.3561 14.051 43.4426 14.3135 43.5581 14.5044C43.6831 14.6858 43.8418 14.7765 44.0341 14.7765C44.3227 14.7765 44.6257 14.724 44.9431 14.619C45.2605 14.5044 45.5586 14.366 45.8376 14.2037C46.1261 14.0319 46.3714 13.841 46.5734 13.631C46.7753 13.421 46.8908 13.2157 46.9196 13.0153C46.9485 12.8721 46.8811 12.7241 46.7176 12.5714C46.5637 12.4091 46.3281 12.2611 46.0107 12.1275C45.6933 11.9938 45.3182 11.884 44.8854 11.7981C44.4622 11.7122 44.0005 11.674 43.5003 11.6836C43.231 11.6931 43.0194 11.6502 42.8655 11.5547C42.7213 11.4592 42.6732 11.2922 42.7213 11.0535C42.7597 10.9008 42.8655 10.7815 43.0387 10.6956C43.2118 10.6001 43.5051 10.5094 43.9187 10.4235C44.2746 10.3567 44.6401 10.266 45.0152 10.1514C45.3999 10.0369 45.7702 9.91278 46.1261 9.77913C46.4916 9.64549 46.8234 9.5023 47.1216 9.34956C47.4198 9.19682 47.665 9.03931 47.8574 8.87703C48.0497 8.71474 48.1604 8.56201 48.1892 8.41882C48.2277 8.18971 48.1652 7.98924 48.0017 7.81741C47.8478 7.63604 47.6121 7.4833 47.2947 7.3592C46.9869 7.2351 46.6166 7.13964 46.1838 7.07282C45.751 7.00599 45.2893 6.97258 44.7988 6.97258C44.4525 6.97258 44.1159 6.97736 43.7889 6.9869C43.4715 6.9869 43.2358 6.9869 43.0819 6.9869C42.9473 6.9869 42.8367 6.93917 42.7501 6.84371C42.6636 6.73871 42.6347 6.61461 42.6636 6.47142C42.7116 6.22322 42.8992 6.02752 43.2262 5.88433C43.5532 5.74114 44.0053 5.66954 44.5824 5.66954C45.3518 5.66954 46.0588 5.72682 46.7032 5.84137C47.3572 5.95593 47.9103 6.13253 48.3623 6.37118C48.8144 6.60983 49.1462 6.91053 49.3578 7.27329C49.5694 7.62649 49.6223 8.04652 49.5165 8.53337C49.4588 8.81975 49.2664 9.11568 48.9394 9.42115C48.622 9.72663 48.1315 10.0273 47.4678 10.3233C46.8042 10.6192 45.9385 10.896 44.8709 11.1538L44.8998 10.7528C45.6212 10.8197 46.2079 10.9438 46.6599 11.1251C47.1216 11.297 47.4678 11.4974 47.6987 11.7265C47.9391 11.9556 48.093 12.1991 48.1604 12.4568C48.2373 12.705 48.2517 12.9484 48.2036 13.1871C48.1267 13.588 47.9391 13.9603 47.641 14.304C47.3524 14.6476 46.9966 14.9483 46.5734 15.2061C46.1502 15.4638 45.7077 15.6691 45.246 15.8218C44.794 15.965 44.3612 16.0366 43.9476 16.0366Z" fill="#FFD754"/>
<path d="M52.8325 15.9936C52.1208 15.9936 51.5341 15.8552 51.0724 15.5784C50.6204 15.292 50.303 14.9006 50.1202 14.4042C49.9471 13.8983 49.9278 13.316 50.0625 12.6573C50.1779 12.0941 50.3847 11.5738 50.6829 11.0965C50.9907 10.6096 51.3658 10.1896 51.8082 9.83641C52.2603 9.47366 52.7508 9.19205 53.2798 8.99158C53.8088 8.79111 54.3522 8.69088 54.9101 8.69088C55.1601 8.69088 55.3814 8.72906 55.5737 8.80543C55.7661 8.87226 55.9055 8.97726 55.9921 9.12045C56.0883 9.2541 56.1123 9.42115 56.0642 9.62162C56.0258 9.803 55.9536 9.94619 55.8478 10.0512C55.742 10.1467 55.617 10.1944 55.4727 10.1944C55.3669 10.1944 55.2852 10.1753 55.2275 10.1371C55.1698 10.0989 55.1072 10.0607 55.0399 10.0226C54.9822 9.98437 54.8812 9.96528 54.7369 9.96528C54.1887 9.96528 53.6741 10.1037 53.1932 10.3805C52.7123 10.6478 52.3035 11.001 51.9669 11.4402C51.6399 11.8697 51.4235 12.3327 51.3177 12.8291C51.2503 13.23 51.26 13.5785 51.3465 13.8744C51.4427 14.1608 51.6158 14.3851 51.8659 14.5474C52.1256 14.7097 52.443 14.7908 52.8181 14.7908C53.2413 14.7908 53.5779 14.7431 53.828 14.6476C54.0781 14.5426 54.2753 14.4281 54.4195 14.304C54.5734 14.1799 54.6985 14.0701 54.7946 13.9746C54.8908 13.8696 55.0014 13.8171 55.1265 13.8171C55.3092 13.8171 55.4343 13.8601 55.5016 13.946C55.5785 14.0319 55.5978 14.1799 55.5593 14.3899C55.492 14.7049 55.3285 14.9865 55.0688 15.2347C54.8091 15.4734 54.4821 15.6595 54.0877 15.7932C53.703 15.9268 53.2846 15.9936 52.8325 15.9936Z" fill="#FFD754"/>
<path d="M59.9754 16.008C59.1771 16.008 58.5567 15.8648 58.1143 15.5784C57.6718 15.2825 57.3833 14.8863 57.2486 14.3899C57.114 13.8839 57.1092 13.316 57.2342 12.6859C57.34 12.2182 57.5228 11.7504 57.7824 11.2826C58.0518 10.8053 58.3836 10.371 58.7779 9.9796C59.1819 9.58821 59.6291 9.27796 60.1197 9.04886C60.6198 8.8102 61.144 8.69088 61.6922 8.69088C62.4521 8.69088 63.0099 8.87225 63.3658 9.23501C63.7313 9.59776 63.8419 10.1323 63.6976 10.8387C63.6014 11.3638 63.3658 11.8077 62.9907 12.1704C62.6156 12.5236 62.1491 12.7957 61.5912 12.9866C61.043 13.1775 60.4515 13.273 59.8167 13.273C59.1627 13.273 58.725 13.1966 58.5038 13.0439C58.2922 12.8912 58.2056 12.7193 58.2441 12.5284C58.2634 12.4139 58.3066 12.3327 58.374 12.285C58.4413 12.2277 58.5471 12.1991 58.6914 12.1991C58.7972 12.1991 58.9222 12.2182 59.0665 12.2563C59.2204 12.285 59.4464 12.2993 59.7446 12.2993C60.2255 12.2993 60.6583 12.2325 61.043 12.0988C61.4374 11.9652 61.7596 11.7838 62.0096 11.5547C62.2597 11.3161 62.4184 11.044 62.4857 10.7385C62.5434 10.4521 62.505 10.2373 62.3703 10.0942C62.2453 9.95096 61.9952 9.87937 61.6201 9.87937C61.1296 9.87937 60.6631 10.0226 60.2207 10.3089C59.7782 10.5953 59.3935 10.9724 59.0665 11.4402C58.7491 11.9079 58.5375 12.4186 58.4317 12.9723C58.3643 13.316 58.3595 13.631 58.4172 13.9174C58.475 14.1942 58.6192 14.4233 58.8501 14.6047C59.0905 14.7765 59.432 14.8624 59.8744 14.8624C60.3745 14.8624 60.8026 14.8004 61.1584 14.6763C61.5239 14.5426 61.8317 14.3899 62.0818 14.2181C62.3318 14.0462 62.5434 13.8983 62.7166 13.7742C62.8897 13.6501 63.0436 13.588 63.1783 13.588C63.3418 13.588 63.4572 13.6501 63.5245 13.7742C63.6015 13.8887 63.6207 14.0415 63.5822 14.2324C63.5437 14.4233 63.4139 14.6238 63.1927 14.8338C62.9811 15.0343 62.7022 15.2252 62.3559 15.4065C62.0193 15.5879 61.6441 15.7359 61.2306 15.8504C60.8266 15.9555 60.4082 16.008 59.9754 16.008Z" fill="#FFD754"/>
<path d="M65.8958 16.008C65.6649 16.008 65.4918 15.9029 65.3764 15.6929C65.2706 15.4829 65.2321 15.1918 65.261 14.8195C65.2706 14.6572 65.2994 14.4328 65.3475 14.1465C65.3956 13.8601 65.4533 13.5403 65.5207 13.1871C65.588 12.8243 65.6553 12.4616 65.7226 12.0988C65.7996 11.7361 65.8669 11.402 65.9246 11.0965C65.9919 10.791 66.0448 10.5476 66.0833 10.3662C66.1795 9.86982 66.3093 9.50707 66.4729 9.27796C66.646 9.03931 66.896 8.89612 67.2231 8.84839C67.5309 8.80066 67.8579 8.76725 68.2041 8.74816C68.56 8.71952 68.9111 8.7052 69.2573 8.7052C69.517 8.7052 69.7815 8.71474 70.0508 8.73384C70.3201 8.74338 70.5702 8.76248 70.801 8.79111C71.0319 8.81975 71.2146 8.86271 71.3493 8.91999C71.4647 8.96772 71.5464 9.03931 71.5945 9.13477C71.6426 9.22069 71.6571 9.31615 71.6378 9.42115C71.5993 9.61208 71.4791 9.75049 71.2771 9.83641C71.0752 9.92232 70.8587 9.96528 70.6279 9.96528C70.4259 9.96528 70.2432 9.95574 70.0797 9.93664C69.9162 9.91755 69.7382 9.90323 69.5459 9.89369C69.3535 9.87459 69.0986 9.86505 68.7812 9.86505C68.3965 9.86505 68.0695 9.88414 67.8002 9.92232C67.5309 9.96051 67.2279 10.0178 66.8912 10.0942L67.5982 9.63594C67.5212 9.88414 67.4395 10.1562 67.3529 10.4521C67.276 10.7385 67.1942 11.0631 67.1077 11.4258C67.0211 11.779 66.9345 12.18 66.848 12.6286C66.7518 13.0964 66.6748 13.5403 66.6171 13.9603C66.5594 14.3708 66.5161 14.7192 66.4873 15.0056C66.4584 15.292 66.4344 15.4781 66.4151 15.5641C66.3863 15.7168 66.3238 15.8266 66.2276 15.8934C66.1314 15.9698 66.0208 16.008 65.8958 16.008Z" fill="#FFD754"/>
<path d="M74.6382 16.0366C73.8496 16.0366 73.2003 15.8648 72.6906 15.5211C72.1904 15.1774 71.8442 14.7145 71.6518 14.1321C71.4691 13.5403 71.4498 12.8673 71.5941 12.1131C71.6999 11.5786 71.8826 11.1108 72.1423 10.7099C72.4116 10.2994 72.7098 9.95574 73.0368 9.6789C73.3735 9.40206 73.7101 9.19682 74.0467 9.06318C74.3834 8.91998 74.6719 8.84839 74.9124 8.84839C75.0182 8.84839 75.1047 8.86271 75.1721 8.89135C75.249 8.91998 75.3067 8.96772 75.3452 9.03454C75.3933 9.09181 75.4077 9.17296 75.3885 9.27796C75.3404 9.46889 75.2634 9.64549 75.1576 9.80777C75.0518 9.96051 74.8547 10.0989 74.5661 10.223C74.2198 10.3853 73.9265 10.5667 73.686 10.7672C73.4552 10.9581 73.2677 11.1824 73.1234 11.4402C72.9791 11.6883 72.8781 11.9891 72.8204 12.3423C72.6665 13.1155 72.7579 13.736 73.0945 14.2037C73.4312 14.662 73.9457 14.8911 74.6382 14.8911C75.3115 14.8911 75.8982 14.6524 76.3984 14.1751C76.9081 13.6883 77.24 13.0439 77.3939 12.242C77.5477 11.507 77.4997 10.9342 77.2496 10.5237C76.9995 10.1037 76.5859 9.89369 76.0088 9.89369C75.7107 9.89369 75.4558 9.95096 75.2442 10.0655C75.0422 10.1801 74.821 10.3328 74.5805 10.5237C74.4074 10.6669 74.2679 10.7958 74.1621 10.9103C74.0563 11.0249 73.9602 11.1156 73.8736 11.1824C73.7967 11.2397 73.6957 11.2683 73.5706 11.2683C73.436 11.2683 73.3302 11.2254 73.2532 11.1395C73.1859 11.044 73.1715 10.896 73.2099 10.6956C73.2484 10.476 73.359 10.2517 73.5418 10.0226C73.7341 9.79345 73.965 9.58344 74.2343 9.39252C74.5132 9.19205 74.8114 9.03454 75.1288 8.91999C75.4462 8.79589 75.7588 8.73384 76.0665 8.73384C76.7591 8.73384 77.3217 8.89612 77.7545 9.22069C78.1874 9.53571 78.4807 9.97483 78.6346 10.538C78.7885 11.0917 78.7885 11.7313 78.6346 12.4568C78.4999 13.1728 78.2403 13.8028 77.8555 14.3469C77.4708 14.8815 76.9995 15.2968 76.4417 15.5927C75.8934 15.8886 75.2923 16.0366 74.6382 16.0366Z" fill="#FFD754"/>
<path d="M42.8367 28.8793C42.3846 28.8793 42.0624 28.7838 41.8701 28.5929C41.6873 28.4115 41.6344 28.1394 41.7114 27.7767C41.7402 27.6239 41.7979 27.4903 41.8845 27.3757C41.971 27.2612 42.0768 27.1705 42.2019 27.1037C43.3465 26.4641 44.3179 25.877 45.1162 25.3424C45.9145 24.7983 46.5685 24.2924 47.0783 23.8246C47.5881 23.3473 47.9776 22.8986 48.2469 22.4786C48.5162 22.049 48.6894 21.6433 48.7663 21.2615C48.8721 20.7555 48.8144 20.3594 48.5932 20.073C48.372 19.7771 47.968 19.6291 47.3813 19.6291C46.8908 19.6291 46.4531 19.6864 46.0684 19.8009C45.6933 19.9155 45.3566 20.0491 45.0585 20.2019C44.7699 20.3546 44.5247 20.4882 44.3227 20.6028C44.1207 20.7174 43.9572 20.7746 43.8322 20.7746C43.6494 20.7746 43.51 20.7174 43.4138 20.6028C43.3272 20.4787 43.2984 20.3355 43.3272 20.1732C43.3561 20.0587 43.4042 19.9537 43.4715 19.8582C43.5388 19.7627 43.6542 19.6625 43.8177 19.5575C44.366 19.2043 44.9671 18.9227 45.6212 18.7127C46.2848 18.4931 46.9388 18.3833 47.5833 18.3833C48.3239 18.3833 48.8865 18.517 49.2713 18.7843C49.6656 19.042 49.9157 19.4 50.0215 19.8582C50.1369 20.3164 50.1369 20.8271 50.0215 21.3904C49.9349 21.8199 49.757 22.2781 49.4877 22.765C49.228 23.2518 48.8336 23.7626 48.3046 24.2971C47.7756 24.8317 47.0735 25.3997 46.1982 26.0011C45.3326 26.593 44.2554 27.223 42.9665 27.8912L42.7934 27.4617C42.9184 27.5285 43.0483 27.5714 43.1829 27.5905C43.3272 27.6096 43.4763 27.6192 43.6302 27.6192C43.9861 27.6192 44.4044 27.5953 44.8854 27.5476C45.3663 27.4998 45.8905 27.4521 46.4579 27.4044C47.035 27.3567 47.6314 27.3328 48.2469 27.3328C48.7182 27.3328 49.0164 27.4139 49.1414 27.5762C49.2761 27.729 49.3242 27.896 49.2857 28.0774C49.2568 28.2397 49.1703 28.3685 49.026 28.464C48.8913 28.5499 48.6894 28.5929 48.42 28.5929C47.6987 28.5929 47.0639 28.6072 46.5156 28.6358C45.9674 28.6645 45.4769 28.6979 45.0441 28.7361C44.6112 28.7742 44.2169 28.8077 43.861 28.8363C43.5051 28.8649 43.1637 28.8793 42.8367 28.8793Z" fill="#FFD754"/>
<path d="M56.9324 28.7504C56.7015 28.7504 56.5284 28.6167 56.413 28.3494C56.2976 28.0822 56.2928 27.6812 56.3986 27.1466C56.4466 26.8889 56.538 26.4975 56.6727 25.9725C56.8073 25.4379 57.0141 24.8651 57.293 24.2542C57.6201 23.5287 57.9134 22.9559 58.1731 22.5359C58.4328 22.1063 58.6877 21.7961 58.9378 21.6051C59.1878 21.4142 59.4427 21.3188 59.7024 21.3188C59.9044 21.3188 60.0583 21.3999 60.1641 21.5622C60.2795 21.7245 60.3612 21.9202 60.4093 22.1493C60.4574 22.3784 60.4959 22.6075 60.5248 22.8366C60.5632 23.1421 60.6113 23.4809 60.669 23.8532C60.7364 24.2255 60.8085 24.6026 60.8854 24.9845C60.972 25.3663 61.0682 25.729 61.174 26.0727C61.2894 26.4164 61.4193 26.7075 61.5635 26.9462L61.0441 27.0607C61.3231 26.5166 61.6212 25.9725 61.9386 25.4283C62.256 24.8842 62.5734 24.364 62.8908 23.8676C63.2082 23.3712 63.5064 22.9273 63.7853 22.5359C64.0931 22.1254 64.3528 21.8342 64.5644 21.6624C64.7856 21.4906 64.9828 21.4047 65.1559 21.4047C65.2809 21.4047 65.3964 21.4333 65.5022 21.4906C65.608 21.5383 65.6993 21.5956 65.7763 21.6624C65.8821 21.7674 65.9638 21.8963 66.0216 22.049C66.0793 22.2018 66.0889 22.4309 66.0504 22.7364C65.9638 23.4237 65.9061 24.0442 65.8773 24.5978C65.858 25.142 65.8532 25.6002 65.8629 25.9725C65.8725 26.6312 65.9206 27.1562 66.0071 27.5476C66.1033 27.939 66.137 28.1919 66.1081 28.3065C66.0889 28.4306 66.0216 28.5308 65.9061 28.6072C65.8003 28.6931 65.6705 28.7361 65.5166 28.7361C65.2858 28.7361 65.0934 28.6263 64.9395 28.4067C64.7952 28.1872 64.7039 27.8912 64.6654 27.5189C64.6269 27.1753 64.5981 26.7409 64.5788 26.2159C64.5692 25.6909 64.5836 25.1038 64.6221 24.4546C64.6702 23.796 64.7471 23.1182 64.8529 22.4213L65.2713 22.3211C65.0405 22.6552 64.7808 23.0371 64.4923 23.4666C64.2133 23.8867 63.9248 24.3258 63.6266 24.784C63.3381 25.2422 63.0592 25.6956 62.7898 26.1443C62.5302 26.593 62.2993 27.0178 62.0973 27.4187C61.9915 27.6001 61.8665 27.7433 61.7222 27.8483C61.5876 27.9533 61.4289 28.0058 61.2461 28.0058C61.0153 28.0058 60.8229 27.9533 60.669 27.8483C60.5248 27.7337 60.3997 27.581 60.2939 27.3901C60.1977 27.1896 60.1112 26.97 60.0342 26.7314C59.9958 26.5977 59.9429 26.4116 59.8755 26.1729C59.8082 25.9247 59.7409 25.6479 59.6735 25.3424C59.6062 25.037 59.5437 24.7124 59.486 24.3687C59.4283 24.0251 59.3802 23.6862 59.3417 23.3521C59.3032 23.0084 59.284 22.6886 59.284 22.3927L59.7168 22.2781C59.3898 22.7459 59.1013 23.2041 58.8512 23.6528C58.6107 24.1014 58.4039 24.5644 58.2308 25.0417C58.0673 25.5095 57.9278 26.0154 57.8124 26.5596C57.7355 26.9319 57.6778 27.2564 57.6393 27.5333C57.6104 27.8101 57.5816 28.0201 57.5527 28.1633C57.5143 28.3256 57.4469 28.464 57.3508 28.5786C57.2546 28.6931 57.1151 28.7504 56.9324 28.7504Z" fill="#FFD754"/>
<path d="M69.2267 28.7504C68.8996 28.7504 68.64 28.674 68.4476 28.5213C68.2648 28.3685 68.1302 28.1681 68.0436 27.9199C67.9571 27.6621 67.9138 27.3853 67.9138 27.0894C67.9234 26.7839 67.9571 26.488 68.0148 26.2016C68.0725 25.9534 68.1494 25.6575 68.2456 25.3138C68.3514 24.9701 68.4668 24.6122 68.5919 24.2399C68.7169 23.8676 68.8371 23.5191 68.9525 23.1946C69.0776 22.87 69.1786 22.617 69.2555 22.4356C69.3806 22.1015 69.4912 21.8438 69.5873 21.6624C69.6931 21.481 69.8182 21.3904 69.9625 21.3904C70.0875 21.3904 70.2029 21.4333 70.3087 21.5192C70.4145 21.6051 70.4915 21.7149 70.5396 21.8486C70.5973 21.9822 70.6117 22.1302 70.5828 22.2925C70.554 22.4452 70.4866 22.6648 70.3808 22.9511C70.275 23.2375 70.1548 23.5573 70.0202 23.9105C69.8855 24.2637 69.7557 24.6217 69.6306 24.9845C69.5056 25.3377 69.4142 25.6575 69.3565 25.9438C69.2988 26.2016 69.2603 26.4498 69.2411 26.6884C69.2219 26.9175 69.2315 27.1085 69.2699 27.2612C69.3084 27.4044 69.3902 27.476 69.5152 27.476C69.823 27.476 70.2125 27.2039 70.6838 26.6598C71.1647 26.1157 71.6985 25.3663 72.2852 24.4117C72.5546 23.9917 72.7902 23.6003 72.9922 23.2375C73.1942 22.8748 73.3721 22.5597 73.526 22.2925C73.6799 22.0156 73.829 21.8008 73.9732 21.6481C74.1175 21.4954 74.2618 21.419 74.4061 21.419C74.6273 21.419 74.786 21.5049 74.8822 21.6767C74.988 21.839 75.036 22.0586 75.0264 22.3354C75.0264 22.5836 75.0168 22.8891 74.9976 23.2518C74.988 23.6146 74.9783 23.9869 74.9687 24.3687C74.9591 24.741 74.9591 25.0895 74.9687 25.414C74.9976 25.9677 75.0505 26.4211 75.1274 26.7743C75.214 27.118 75.2909 27.3948 75.3583 27.6049C75.4256 27.8149 75.4544 27.9867 75.4448 28.1203C75.4352 28.2253 75.4015 28.3256 75.3438 28.421C75.2861 28.507 75.214 28.5786 75.1274 28.6358C75.0409 28.6931 74.9447 28.7217 74.8389 28.7217C74.6177 28.7217 74.4349 28.6215 74.2906 28.421C74.156 28.2206 74.0502 27.939 73.9732 27.5762C73.8963 27.2135 73.8338 26.7887 73.7857 26.3018C73.7664 25.9582 73.7472 25.5906 73.728 25.1992C73.7184 24.8079 73.7184 24.4165 73.728 24.0251C73.7472 23.6337 73.7664 23.2709 73.7857 22.9368L74.2041 23.08C74.0887 23.2996 73.9636 23.5334 73.829 23.7816C73.7039 24.0298 73.55 24.3115 73.3673 24.6265C73.1942 24.932 72.9778 25.2947 72.7181 25.7147C72.391 26.2302 72.0352 26.7218 71.6504 27.1896C71.2657 27.6478 70.8666 28.0249 70.453 28.3208C70.049 28.6072 69.6402 28.7504 69.2267 28.7504Z" fill="#FFD754"/>
<path d="M77.8464 28.7504C77.5001 28.7504 77.2693 28.5308 77.1539 28.0917C77.0385 27.6526 77.0529 27.0703 77.1972 26.3448C77.3126 25.8388 77.4424 25.457 77.5867 25.1992C77.7406 24.9319 77.9137 24.7506 78.1061 24.6551C78.2119 24.5978 78.361 24.5644 78.5533 24.5549C78.7457 24.5358 78.9477 24.5262 79.1593 24.5262C79.8614 24.5262 80.5539 24.4928 81.2368 24.426C81.9293 24.3496 82.6074 24.2064 83.2711 23.9964L83.5308 24.9845C83.0306 25.1754 82.492 25.3186 81.9149 25.414C81.3378 25.5095 80.7511 25.5763 80.1548 25.6145C79.5681 25.6431 78.9958 25.6575 78.4379 25.6575L77.6011 25.5286C77.7262 24.9654 77.856 24.3735 77.9907 23.753C78.1253 23.1325 78.2407 22.5788 78.3369 22.092C78.3754 21.8629 78.4523 21.6767 78.5678 21.5335C78.6832 21.3904 78.813 21.3188 78.9573 21.3188C79.1978 21.3188 79.3757 21.4142 79.4911 21.6051C79.6065 21.7865 79.6209 22.0777 79.5344 22.4786C79.4959 22.6886 79.4382 22.9416 79.3613 23.2375C79.2843 23.5334 79.2026 23.8437 79.116 24.1683C79.0391 24.4928 78.9621 24.8031 78.8852 25.099C78.8178 25.3854 78.7649 25.624 78.7265 25.815C78.611 26.3686 78.5245 26.865 78.4668 27.3042C78.4187 27.7337 78.3754 28.0583 78.3369 28.2779C78.3081 28.4115 78.2456 28.5213 78.1494 28.6072C78.0628 28.7027 77.9618 28.7504 77.8464 28.7504ZM82.8238 28.7504C82.5834 28.7504 82.4102 28.612 82.3044 28.3351C82.2082 28.0583 82.165 27.6812 82.1746 27.2039C82.1938 26.7171 82.2611 26.1825 82.3766 25.6002C82.5689 24.6838 82.7372 23.9583 82.8815 23.4237C83.0354 22.8795 83.1749 22.45 83.2999 22.1349C83.3769 21.9249 83.473 21.7388 83.5885 21.5765C83.7039 21.4142 83.8433 21.3331 84.0068 21.3331C84.2184 21.3331 84.3675 21.4333 84.4541 21.6338C84.5503 21.8247 84.5695 22.0586 84.5118 22.3354C84.4445 22.6791 84.3387 23.0514 84.1944 23.4523C84.0597 23.8532 83.9491 24.2876 83.8626 24.7553C83.7472 25.3281 83.6654 25.8484 83.6173 26.3161C83.5788 26.7743 83.5548 27.161 83.5452 27.476C83.5356 27.791 83.5115 28.0249 83.473 28.1776C83.4442 28.3494 83.3672 28.4879 83.2422 28.5929C83.1172 28.6979 82.9777 28.7504 82.8238 28.7504Z" fill="#FFD754"/>
<path d="M87.8422 32.3302C87.2555 32.3302 86.7602 32.2729 86.3562 32.1583C85.9523 32.0533 85.6589 31.9054 85.4762 31.7144C85.2934 31.5235 85.2261 31.3183 85.2742 31.0987C85.303 30.946 85.3656 30.8219 85.4617 30.7264C85.5675 30.6405 85.7118 30.5976 85.8946 30.5976C86.01 30.5976 86.1158 30.6214 86.212 30.6691C86.3082 30.7169 86.4188 30.7694 86.5438 30.8267C86.6688 30.8935 86.842 30.9508 87.0632 30.9985C87.294 31.0462 87.597 31.0701 87.9721 31.0701C88.4338 31.0701 88.8185 30.9698 89.1263 30.7694C89.4341 30.5689 89.6793 30.2873 89.8621 29.9246C90.0544 29.5618 90.1987 29.1418 90.2949 28.6645C90.3526 28.3876 90.3911 28.1156 90.4103 27.8483C90.4392 27.581 90.468 27.2946 90.4969 26.9891C90.5257 26.6837 90.5642 26.3305 90.6123 25.9295C90.6604 25.519 90.7373 25.037 90.8431 24.4833L91.2904 24.8985C90.9826 25.5572 90.6748 26.0966 90.367 26.5166C90.0592 26.9271 89.7611 27.2469 89.4725 27.476C89.184 27.6955 88.9099 27.8483 88.6502 27.9342C88.4001 28.0106 88.1741 28.0487 87.9721 28.0487C87.1353 28.0487 86.5534 27.7051 86.2264 27.0178C85.8994 26.3209 85.8898 25.2088 86.1975 23.6814C86.3226 23.0418 86.4476 22.5597 86.5726 22.2352C86.7073 21.9106 86.8468 21.6911 86.991 21.5765C87.1353 21.462 87.2844 21.4047 87.4383 21.4047C87.5826 21.4047 87.698 21.4429 87.7845 21.5192C87.8711 21.586 87.9144 21.7006 87.9144 21.8629C87.924 22.0252 87.8903 22.2447 87.8134 22.5216C87.6595 23.123 87.5393 23.6862 87.4527 24.2112C87.3661 24.7267 87.3277 25.1801 87.3373 25.5715C87.3469 25.9629 87.4094 26.2684 87.5248 26.488C87.6403 26.698 87.8278 26.803 88.0875 26.803C88.4915 26.803 88.8858 26.5977 89.2706 26.1873C89.6553 25.7672 90.016 25.204 90.3526 24.4976C90.6989 23.7816 91.0114 22.9798 91.2904 22.092C91.3769 21.8247 91.4635 21.6481 91.5501 21.5622C91.6366 21.4667 91.7713 21.419 91.954 21.419C92.0887 21.419 92.2089 21.4619 92.3147 21.5479C92.4301 21.6338 92.4975 21.7865 92.5167 22.0061C92.5455 22.2161 92.5023 22.5025 92.3868 22.8652C92.2426 23.3521 92.132 23.7864 92.055 24.1683C91.9877 24.5501 91.9396 24.9176 91.9107 25.2708C91.8819 25.6145 91.8578 25.9677 91.8386 26.3305C91.829 26.6837 91.8001 27.075 91.752 27.5046C91.704 27.9246 91.627 28.4115 91.5212 28.9652C91.3962 29.6048 91.2134 30.1393 90.973 30.5689C90.7325 31.008 90.4536 31.3565 90.1362 31.6142C89.8188 31.872 89.4629 32.0533 89.0686 32.1583C88.6838 32.2729 88.2751 32.3302 87.8422 32.3302Z" fill="#FFD754"/>
<path d="M94.2448 22.9511C94.0236 22.9511 93.8505 22.8843 93.7254 22.7507C93.61 22.617 93.5715 22.4643 93.61 22.2925C93.6389 22.1875 93.6966 22.0968 93.7831 22.0204C93.8697 21.944 94.0236 21.8772 94.2448 21.8199C94.5911 21.7245 95.0527 21.6386 95.6298 21.5622C96.2165 21.4858 96.8994 21.4476 97.6785 21.4476C98.0825 21.4476 98.4528 21.4572 98.7894 21.4763C99.1357 21.4858 99.5156 21.5192 99.9292 21.5765C100.256 21.6147 100.506 21.6911 100.679 21.8056C100.862 21.9202 100.939 22.049 100.91 22.1922C100.891 22.2972 100.848 22.3927 100.78 22.4786C100.723 22.555 100.636 22.617 100.521 22.6648C100.415 22.7125 100.28 22.7364 100.117 22.7364C99.9147 22.7364 99.6791 22.7268 99.4098 22.7077C99.1405 22.6886 98.8519 22.6695 98.5441 22.6504C98.246 22.6218 97.9382 22.6075 97.6208 22.6075C96.9571 22.6075 96.4233 22.6361 96.0194 22.6934C95.6154 22.7411 95.2788 22.7984 95.0095 22.8652C94.7401 22.9225 94.4853 22.9511 94.2448 22.9511ZM96.3368 28.7647C96.1252 28.7647 95.9665 28.6788 95.8607 28.507C95.7645 28.3351 95.6972 28.1156 95.6587 27.8483C95.6394 27.6478 95.6394 27.3757 95.6587 27.0321C95.6875 26.6789 95.7356 26.297 95.8029 25.8866C95.8703 25.4665 95.9424 25.0608 96.0194 24.6694C96.1252 24.1444 96.2165 23.6814 96.2935 23.2805C96.38 22.87 96.4474 22.5311 96.4955 22.2638L97.7939 22.1779C97.7554 22.3402 97.7074 22.5454 97.6496 22.7936C97.6015 23.0323 97.5487 23.3043 97.4909 23.6098C97.4332 23.9057 97.3707 24.2112 97.3034 24.5262C97.2457 24.8317 97.188 25.1276 97.1303 25.414C97.0341 25.8913 96.9716 26.2923 96.9427 26.6168C96.9235 26.9319 96.9187 27.1896 96.9283 27.3901C96.9379 27.5905 96.9475 27.7576 96.9571 27.8912C96.9668 28.0153 96.9619 28.1299 96.9427 28.2349C96.9235 28.3399 96.885 28.4354 96.8273 28.5213C96.7696 28.5976 96.6974 28.6549 96.6109 28.6931C96.5243 28.7408 96.4329 28.7647 96.3368 28.7647Z" fill="#FFD754"/>
<path d="M102.926 28.7647C102.474 28.7647 102.104 28.6549 101.815 28.4354C101.527 28.2158 101.329 27.9151 101.224 27.5333C101.118 27.1419 101.113 26.6884 101.209 26.1729C101.334 25.5334 101.454 24.9224 101.57 24.3401C101.685 23.7482 101.781 23.2423 101.858 22.8223C101.945 22.4022 102.003 22.1254 102.031 21.9918C102.051 21.8772 102.089 21.7722 102.147 21.6767C102.214 21.5813 102.296 21.5049 102.392 21.4476C102.488 21.3904 102.589 21.3617 102.695 21.3617C102.916 21.3617 103.08 21.4715 103.186 21.6911C103.301 21.9106 103.335 22.1636 103.287 22.45C103.229 22.7173 103.147 23.0371 103.041 23.4093C102.945 23.7816 102.868 24.1349 102.811 24.469C102.782 24.5835 102.743 24.7363 102.695 24.9272C102.657 25.1086 102.613 25.2947 102.565 25.4856C102.527 25.667 102.493 25.8245 102.464 25.9582C102.358 26.4641 102.358 26.8603 102.464 27.1466C102.57 27.433 102.787 27.5762 103.114 27.5762C103.296 27.5762 103.498 27.5285 103.719 27.433C103.95 27.3376 104.172 27.2135 104.383 27.0607C104.595 26.8984 104.773 26.7266 104.917 26.5452C105.061 26.3639 105.133 26.192 105.133 26.0297C105.143 25.7816 105.076 25.5811 104.931 25.4283C104.797 25.2756 104.6 25.1515 104.34 25.0561C104.196 24.9892 104.008 24.9272 103.777 24.8699C103.546 24.8126 103.301 24.7601 103.041 24.7124C102.782 24.6551 102.532 24.6169 102.291 24.5978L102.536 23.6671C102.883 23.6098 103.272 23.5287 103.705 23.4237C104.147 23.3187 104.604 23.1946 105.076 23.0514C105.547 22.9082 105.999 22.7602 106.432 22.6075C106.922 22.4356 107.355 22.259 107.73 22.0777C108.115 21.8963 108.442 21.7436 108.711 21.6195C108.99 21.4858 109.216 21.419 109.389 21.419C109.688 21.419 109.914 21.5192 110.067 21.7197C110.231 21.9106 110.279 22.1684 110.212 22.4929C110.144 22.7984 110.077 23.0991 110.01 23.395C109.952 23.6814 109.89 23.9773 109.822 24.2828C109.774 24.531 109.721 24.8222 109.664 25.1563C109.606 25.4809 109.553 25.815 109.505 26.1586C109.457 26.5023 109.423 26.8173 109.404 27.1037C109.404 27.2946 109.399 27.5046 109.389 27.7337C109.389 27.9533 109.38 28.1156 109.361 28.2206C109.341 28.3256 109.298 28.421 109.231 28.507C109.173 28.5833 109.096 28.6406 109 28.6788C108.913 28.7265 108.817 28.7504 108.711 28.7504C108.509 28.7504 108.355 28.6549 108.25 28.464C108.153 28.2635 108.101 28.0249 108.091 27.748C108.091 27.2707 108.12 26.7934 108.177 26.3161C108.235 25.8293 108.312 25.3377 108.408 24.8413C108.456 24.6313 108.505 24.3974 108.553 24.1396C108.61 23.8819 108.668 23.6289 108.726 23.3807C108.783 23.1325 108.832 22.913 108.87 22.722C108.918 22.5216 108.952 22.3784 108.971 22.2925L109.26 22.5932C109.038 22.7173 108.75 22.8557 108.394 23.0084C108.048 23.1516 107.653 23.2996 107.211 23.4523C106.768 23.5955 106.307 23.7387 105.826 23.8819C105.345 24.0251 104.859 24.1587 104.369 24.2828C103.888 24.3974 103.426 24.4881 102.984 24.5549L103.128 24.0394C103.205 24.0298 103.32 24.0203 103.474 24.0108C103.638 23.9917 103.825 23.9821 104.037 23.9821C104.152 23.9821 104.311 24.0012 104.513 24.0394C104.725 24.0776 104.941 24.1396 105.162 24.2255C105.393 24.3115 105.609 24.4308 105.811 24.5835C106.023 24.7267 106.187 24.9081 106.302 25.1276C106.427 25.3472 106.485 25.6049 106.475 25.9009C106.456 26.2732 106.326 26.6312 106.086 26.9748C105.855 27.3185 105.561 27.6239 105.205 27.8912C104.85 28.1585 104.47 28.3733 104.066 28.5356C103.662 28.6883 103.282 28.7647 102.926 28.7647Z" fill="#FFD754"/>
<path fill-rule="evenodd" clip-rule="evenodd" d="M9.71646 3.6346C6.51981 5.49898 3.997 8.54534 2.86822 12.3801C0.534113 20.3095 5.0505 28.5863 12.9388 30.8738C16.7542 31.9802 20.6642 31.4841 23.9484 29.7793C27.145 27.9149 29.6678 24.8685 30.7966 21.0338C33.1307 13.1044 28.6143 4.8276 20.726 2.54009C16.9106 1.43368 13.0006 1.92978 9.71646 3.6346ZM8.94641 2.24316C12.7177 0.0557406 17.3327 -0.650727 21.8341 0.654629C30.579 3.19055 35.5639 12.3535 32.9853 21.1137C31.6578 25.6235 28.5829 29.1529 24.7184 31.1707C20.9472 33.3581 16.3322 34.0646 11.8308 32.7593C3.08584 30.2233 -1.89911 21.0604 0.679507 12.3002C2.00701 7.79042 5.08189 4.26103 8.94641 2.24316ZM22.7837 7.49857C22.7892 7.61059 22.7707 7.72568 22.7254 7.83671L18.5098 18.1515C18.0315 19.322 16.3443 19.2284 16.0067 18.0211L12.8234 6.63812C12.7052 6.21542 12.9552 5.77564 13.3818 5.65585C13.543 5.61058 13.7064 5.61748 13.8536 5.6664C14.0597 5.73434 14.237 5.885 14.3313 6.09779C15.9675 9.79046 16.9051 13.3416 17.4198 15.8052C18.0156 13.9279 18.7982 11.5659 19.525 9.69846C19.9316 8.654 20.3379 7.71861 20.6982 7.10916C20.861 6.83399 21.0843 6.49929 21.3725 6.30287C21.5294 6.19589 21.8253 6.04984 22.1897 6.13785C22.5535 6.22574 22.7489 6.48993 22.841 6.66204C22.9881 6.93706 22.9553 7.26007 22.7837 7.49857Z" fill="#FFD754"/>
<path fill-rule="evenodd" clip-rule="evenodd" d="M62.057 35.0368C62.4529 35.2334 62.6132 35.7113 62.4152 36.1042C62.2905 36.3515 62.1665 36.6046 62.0437 36.863C62.0424 36.8656 62.0412 36.8682 62.04 36.8707C60.9856 39.0898 60.0127 41.702 59.4093 44.3651C58.7331 47.35 58.5339 50.3418 59.1536 52.9012C59.5299 54.4553 60.2068 55.8505 61.2737 57.0007C61.9548 57.6476 62.7792 58.2212 63.7677 58.7052C65.4477 59.5278 67.6216 60.1012 70.3992 60.3156C72.057 60.3655 73.9377 60.2583 76.0667 59.9638C83.1928 58.9781 89.8273 55.9047 96.2162 52.2793C98.7934 50.8169 101.317 49.2731 103.814 47.7448C104.413 47.3787 105.01 47.0136 105.605 46.6506L105.608 46.6489C108.444 44.6657 111.242 42.7126 114.016 41.0097C119.709 37.515 125.437 34.9866 131.432 35.4293C137.464 35.8746 143.568 39.3071 150.057 47.2787L150.029 47.3006C150.299 47.5972 150.569 47.9011 150.839 48.2123L151.401 42.9609C151.448 42.524 151.843 42.2075 152.283 42.2539C152.723 42.3003 153.042 42.6921 152.995 43.129L152.233 50.2485C152.187 50.6854 151.792 51.0019 151.352 50.9555L144.178 50.1992C143.738 50.1528 143.419 49.761 143.466 49.3241C143.513 48.8872 143.908 48.5706 144.348 48.6171L149.551 49.1657C143.696 42.4531 138.184 39.4671 132.85 38.7553C127.109 37.9894 121.411 39.8325 115.476 42.8467C112.528 44.3439 109.546 46.1169 106.49 47.9785C106.458 48.0008 106.426 48.0231 106.394 48.0453L106.288 48.1201C103.366 50.1631 100.357 52.2641 97.2401 54.187C91.0082 58.0313 84.2757 61.2079 76.7687 61.8322C74.3664 62.032 72.2211 62.0498 70.3114 61.9046C67.3346 61.8108 64.9368 61.2373 63.038 60.2732C61.8738 59.6821 60.911 58.9512 60.1258 58.1125C58.7272 56.7698 57.8337 55.1515 57.3416 53.3777C56.5759 50.6175 56.791 47.5222 57.482 44.5444C58.1741 41.562 59.3576 38.6376 60.5957 36.1803C60.7234 35.9118 60.8522 35.649 60.9816 35.3923C61.1796 34.9994 61.6611 34.8403 62.057 35.0368ZM127.628 37.1368C128.884 36.9969 130.145 36.9539 131.412 37.0235C131.379 37.0209 131.346 37.0183 131.313 37.0159C130.081 36.9249 128.854 36.9711 127.628 37.1368Z" fill="#FFD754"/>
</svg>
