<svg width="268" height="141" viewBox="0 0 268 141" fill="none" xmlns="http://www.w3.org/2000/svg">
<path d="M93.9125 63.672C93.9141 63.1197 93.4678 62.6706 92.9155 62.6689C92.3632 62.6673 91.9142 63.1136 91.9125 63.6659L93.9125 63.672ZM267.405 61.0334C267.885 60.7604 268.053 60.1499 267.78 59.6698L263.333 51.8457C263.06 51.3655 262.449 51.1976 261.969 51.4705C261.489 51.7434 261.321 52.3539 261.594 52.834L265.547 59.7888L258.593 63.7424C258.113 64.0154 257.945 64.6258 258.218 65.106C258.49 65.5861 259.101 65.7541 259.581 65.4811L267.405 61.0334ZM94.0038 64.3583C93.9734 63.8068 93.5017 63.3844 92.9503 63.4148C92.3988 63.4452 91.9764 63.9169 92.0068 64.4684L94.0038 64.3583ZM267.283 60.7342C267.767 60.4686 267.944 59.8607 267.679 59.3765L263.349 51.4864C263.083 51.0022 262.475 50.8251 261.991 51.0908C261.507 51.3565 261.33 51.9644 261.596 52.4486L265.444 59.462L258.431 63.3106C257.947 63.5763 257.77 64.1842 258.035 64.6684C258.301 65.1526 258.909 65.3297 259.393 65.064L267.283 60.7342ZM91.9125 63.6659C91.8808 74.1266 92.3909 86.3107 93.7255 97.8128C95.0579 109.296 97.2203 120.176 100.527 127.984C102.178 131.886 104.149 135.101 106.513 137.232C108.909 139.392 111.724 140.443 114.935 139.933C118.089 139.433 121.481 137.45 125.143 133.878C128.815 130.298 132.835 125.047 137.244 117.86L135.54 116.814C131.177 123.925 127.256 129.024 123.747 132.446C120.228 135.878 117.198 137.55 114.622 137.958C112.102 138.358 109.876 137.571 107.852 135.746C105.796 133.893 103.966 130.979 102.368 127.205C99.1746 119.662 97.038 109.009 95.7121 97.5823C94.3884 86.1742 93.881 74.0709 93.9125 63.672L91.9125 63.6659ZM137.244 117.86C148.217 99.9751 156.812 86.1347 164.796 75.7488C172.776 65.3693 180.081 58.5272 188.434 54.566C196.774 50.6111 206.27 49.4757 218.731 50.7247C231.21 51.9756 246.585 55.6089 266.646 61.1282L267.176 59.1998C247.113 53.6798 231.594 50.004 218.93 48.7347C206.248 47.4635 196.354 48.597 187.577 52.7589C178.814 56.9146 171.277 64.0375 163.211 74.5299C155.149 85.016 146.497 98.9545 135.54 116.814L137.244 117.86ZM92.0068 64.4684C92.5769 74.8084 93.4227 86.8457 94.9219 98.1896C96.4184 109.514 98.5757 120.228 101.799 127.882C103.41 131.706 105.321 134.853 107.623 136.92C109.96 139.02 112.71 140.009 115.858 139.442C118.941 138.886 122.265 136.86 125.876 133.264C129.498 129.657 133.487 124.394 137.895 117.209L136.19 116.163C131.827 123.276 127.932 128.394 124.465 131.847C120.986 135.31 118.015 137.021 115.503 137.474C113.055 137.915 110.911 137.186 108.959 135.433C106.972 133.648 105.202 130.808 103.643 127.106C100.527 119.709 98.3964 109.215 96.9046 97.9275C95.4155 86.6595 94.5729 74.6819 94.0038 64.3583L92.0068 64.4684ZM137.895 117.209C148.872 99.3173 157.316 85.3853 165.103 74.8863C172.887 64.3929 179.942 57.4333 188.091 53.4092C196.223 49.3941 205.562 48.2447 218.025 49.6083C230.509 50.9742 246.044 54.851 266.522 60.8177L267.082 58.8975C246.6 52.9299 230.917 49.0069 218.243 47.6202C205.549 46.2313 195.792 47.3765 187.206 51.6159C178.638 55.8464 171.355 63.1013 163.497 73.6948C155.643 84.2829 147.143 98.3105 136.19 116.163L137.895 117.209Z" fill="#7831B2"/>
<path d="M54.9476 20.2763C54.4316 20.2763 53.9936 20.1083 53.6336 19.7723C53.2856 19.4363 53.0156 18.9803 52.8236 18.4043C52.6316 17.8283 52.5236 17.1683 52.4996 16.4243C52.4876 15.6803 52.5656 14.9063 52.7336 14.1023C52.8296 13.6223 52.9256 13.1783 53.0216 12.7703C53.1296 12.3623 53.2496 11.9603 53.3816 11.5643C53.5136 11.1683 53.6636 10.7423 53.8316 10.2863C54.0116 9.81828 54.2216 9.28428 54.4616 8.68428C54.5456 8.46828 54.6476 8.32428 54.7676 8.25228C54.8876 8.16828 55.0436 8.12628 55.2356 8.12628C55.3796 8.12628 55.5056 8.19228 55.6136 8.32428C55.7216 8.44428 55.7816 8.61228 55.7936 8.82828C55.8176 9.04428 55.7756 9.29028 55.6676 9.56628C55.4276 10.2023 55.2236 10.7603 55.0556 11.2403C54.8996 11.7203 54.7616 12.1823 54.6416 12.6263C54.5336 13.0703 54.4256 13.5503 54.3176 14.0663C54.1856 14.7263 54.1016 15.3323 54.0656 15.8843C54.0416 16.4363 54.0656 16.9283 54.1376 17.3603C54.2096 17.7803 54.3176 18.1103 54.4616 18.3503C54.6176 18.5783 54.8156 18.6923 55.0556 18.6923C55.4156 18.6923 55.7936 18.6263 56.1896 18.4943C56.5856 18.3503 56.9576 18.1763 57.3056 17.9723C57.6656 17.7563 57.9716 17.5163 58.2236 17.2523C58.4756 16.9883 58.6196 16.7303 58.6556 16.4783C58.6916 16.2983 58.6076 16.1123 58.4036 15.9203C58.2116 15.7163 57.9176 15.5303 57.5216 15.3623C57.1256 15.1943 56.6576 15.0563 56.1176 14.9483C55.5896 14.8403 55.0136 14.7923 54.3896 14.8043C54.0536 14.8163 53.7896 14.7623 53.5976 14.6423C53.4176 14.5223 53.3576 14.3123 53.4176 14.0123C53.4656 13.8203 53.5976 13.6703 53.8136 13.5623C54.0296 13.4423 54.3956 13.3283 54.9116 13.2203C55.3556 13.1363 55.8116 13.0223 56.2796 12.8783C56.7596 12.7343 57.2216 12.5783 57.6656 12.4103C58.1216 12.2423 58.5356 12.0623 58.9076 11.8703C59.2796 11.6783 59.5856 11.4803 59.8256 11.2763C60.0656 11.0723 60.2036 10.8803 60.2396 10.7003C60.2876 10.4123 60.2096 10.1603 60.0056 9.94428C59.8136 9.71628 59.5196 9.52428 59.1236 9.36828C58.7396 9.21228 58.2776 9.09228 57.7376 9.00828C57.1976 8.92428 56.6216 8.88228 56.0096 8.88228C55.5776 8.88228 55.1576 8.88828 54.7496 8.90028C54.3536 8.90028 54.0596 8.90028 53.8676 8.90028C53.6996 8.90028 53.5616 8.84028 53.4536 8.72028C53.3456 8.58828 53.3096 8.43228 53.3456 8.25228C53.4056 7.94028 53.6396 7.69428 54.0476 7.51428C54.4556 7.33428 55.0196 7.24428 55.7396 7.24428C56.6996 7.24428 57.5816 7.31628 58.3856 7.46028C59.2016 7.60428 59.8916 7.82628 60.4556 8.12628C61.0195 8.42628 61.4335 8.80428 61.6975 9.26028C61.9615 9.70428 62.0275 10.2323 61.8955 10.8443C61.8235 11.2043 61.5835 11.5763 61.1755 11.9603C60.7796 12.3443 60.1676 12.7223 59.3396 13.0943C58.5116 13.4663 57.4316 13.8143 56.0996 14.1383L56.1356 13.6343C57.0356 13.7183 57.7676 13.8743 58.3316 14.1023C58.9076 14.3183 59.3396 14.5703 59.6276 14.8583C59.9276 15.1463 60.1196 15.4523 60.2036 15.7763C60.2996 16.0883 60.3176 16.3943 60.2576 16.6943C60.1616 17.1983 59.9276 17.6663 59.5556 18.0983C59.1956 18.5303 58.7516 18.9083 58.2236 19.2323C57.6956 19.5563 57.1436 19.8143 56.5676 20.0063C56.0036 20.1863 55.4636 20.2763 54.9476 20.2763ZM66.0327 20.2223C65.1447 20.2223 64.4127 20.0483 63.8367 19.7003C63.2727 19.3403 62.8767 18.8483 62.6487 18.2243C62.4327 17.5883 62.4087 16.8563 62.5767 16.0283C62.7207 15.3203 62.9787 14.6663 63.3507 14.0663C63.7347 13.4543 64.2027 12.9263 64.7547 12.4823C65.3187 12.0263 65.9307 11.6723 66.5907 11.4203C67.2507 11.1683 67.9287 11.0423 68.6247 11.0423C68.9367 11.0423 69.2127 11.0903 69.4527 11.1863C69.6927 11.2703 69.8667 11.4023 69.9747 11.5823C70.0947 11.7503 70.1247 11.9603 70.0647 12.2123C70.0167 12.4403 69.9267 12.6203 69.7947 12.7523C69.6627 12.8723 69.5067 12.9323 69.3267 12.9323C69.1947 12.9323 69.0927 12.9083 69.0207 12.8603C68.9487 12.8123 68.8707 12.7643 68.7867 12.7163C68.7147 12.6683 68.5887 12.6443 68.4087 12.6443C67.7247 12.6443 67.0827 12.8183 66.4827 13.1663C65.8827 13.5023 65.3727 13.9463 64.9527 14.4983C64.5447 15.0383 64.2747 15.6203 64.1427 16.2443C64.0587 16.7483 64.0707 17.1863 64.1787 17.5583C64.2987 17.9183 64.5147 18.2003 64.8267 18.4043C65.1507 18.6083 65.5467 18.7103 66.0147 18.7103C66.5427 18.7103 66.9627 18.6503 67.2747 18.5303C67.5867 18.3983 67.8327 18.2543 68.0127 18.0983C68.2047 17.9423 68.3607 17.8043 68.4807 17.6843C68.6007 17.5523 68.7387 17.4863 68.8947 17.4863C69.1227 17.4863 69.2787 17.5403 69.3627 17.6483C69.4587 17.7563 69.4827 17.9423 69.4347 18.2063C69.3507 18.6023 69.1467 18.9563 68.8227 19.2683C68.4987 19.5683 68.0907 19.8023 67.5987 19.9703C67.1187 20.1383 66.5967 20.2223 66.0327 20.2223ZM74.9444 20.2403C73.9484 20.2403 73.1744 20.0603 72.6224 19.7003C72.0704 19.3283 71.7104 18.8303 71.5424 18.2063C71.3744 17.5703 71.3684 16.8563 71.5244 16.0643C71.6564 15.4763 71.8844 14.8883 72.2084 14.3003C72.5444 13.7003 72.9584 13.1543 73.4504 12.6623C73.9544 12.1703 74.5124 11.7803 75.1244 11.4923C75.7484 11.1923 76.4024 11.0423 77.0864 11.0423C78.0344 11.0423 78.7304 11.2703 79.1744 11.7263C79.6304 12.1823 79.7684 12.8543 79.5884 13.7423C79.4684 14.4023 79.1744 14.9603 78.7064 15.4163C78.2384 15.8603 77.6564 16.2023 76.9604 16.4423C76.2764 16.6823 75.5384 16.8023 74.7464 16.8023C73.9304 16.8023 73.3844 16.7063 73.1084 16.5143C72.8444 16.3223 72.7364 16.1063 72.7844 15.8663C72.8084 15.7223 72.8624 15.6203 72.9464 15.5603C73.0304 15.4883 73.1624 15.4523 73.3424 15.4523C73.4744 15.4523 73.6304 15.4763 73.8104 15.5243C74.0024 15.5603 74.2844 15.5783 74.6564 15.5783C75.2564 15.5783 75.7964 15.4943 76.2764 15.3263C76.7684 15.1583 77.1704 14.9303 77.4824 14.6423C77.7944 14.3423 77.9924 14.0003 78.0764 13.6163C78.1484 13.2563 78.1004 12.9863 77.9324 12.8063C77.7764 12.6263 77.4644 12.5363 76.9964 12.5363C76.3844 12.5363 75.8024 12.7163 75.2504 13.0763C74.6984 13.4363 74.2184 13.9103 73.8104 14.4983C73.4144 15.0863 73.1504 15.7283 73.0184 16.4243C72.9344 16.8563 72.9284 17.2523 73.0004 17.6123C73.0724 17.9603 73.2524 18.2483 73.5404 18.4763C73.8404 18.6923 74.2664 18.8003 74.8184 18.8003C75.4424 18.8003 75.9764 18.7223 76.4204 18.5663C76.8764 18.3983 77.2604 18.2063 77.5724 17.9903C77.8844 17.7743 78.1484 17.5883 78.3644 17.4323C78.5804 17.2763 78.7724 17.1983 78.9404 17.1983C79.1444 17.1983 79.2884 17.2763 79.3724 17.4323C79.4684 17.5763 79.4924 17.7683 79.4444 18.0083C79.3964 18.2483 79.2344 18.5003 78.9584 18.7643C78.6944 19.0163 78.3464 19.2563 77.9144 19.4843C77.4944 19.7123 77.0264 19.8983 76.5104 20.0423C76.0064 20.1743 75.4844 20.2403 74.9444 20.2403ZM82.3309 20.2403C82.0429 20.2403 81.8269 20.1083 81.6829 19.8443C81.5509 19.5803 81.5029 19.2143 81.5389 18.7463C81.5509 18.5423 81.5869 18.2603 81.6469 17.9003C81.7069 17.5403 81.7789 17.1383 81.8629 16.6943C81.9469 16.2383 82.0309 15.7823 82.1149 15.3263C82.2109 14.8703 82.2949 14.4503 82.3669 14.0663C82.4509 13.6823 82.5169 13.3763 82.5649 13.1483C82.6849 12.5243 82.8469 12.0683 83.0509 11.7803C83.2669 11.4803 83.5789 11.3003 83.9869 11.2403C84.3709 11.1803 84.7789 11.1383 85.2109 11.1143C85.6549 11.0783 86.0929 11.0603 86.5249 11.0603C86.8489 11.0603 87.1789 11.0723 87.5149 11.0963C87.8509 11.1083 88.1629 11.1323 88.4509 11.1683C88.7389 11.2043 88.9669 11.2583 89.1349 11.3303C89.2789 11.3903 89.3809 11.4803 89.4409 11.6003C89.5009 11.7083 89.5189 11.8283 89.4949 11.9603C89.4469 12.2003 89.2969 12.3743 89.0449 12.4823C88.7929 12.5903 88.5229 12.6443 88.2349 12.6443C87.9829 12.6443 87.7549 12.6323 87.5509 12.6083C87.3469 12.5843 87.1249 12.5663 86.8849 12.5543C86.6449 12.5303 86.3269 12.5183 85.9309 12.5183C85.4509 12.5183 85.0429 12.5423 84.7069 12.5903C84.3709 12.6383 83.9929 12.7103 83.5729 12.8063L84.4549 12.2303C84.3589 12.5423 84.2569 12.8843 84.1489 13.2563C84.0529 13.6163 83.9509 14.0243 83.8429 14.4803C83.7349 14.9243 83.6269 15.4283 83.5189 15.9923C83.3989 16.5803 83.3029 17.1383 83.2309 17.6663C83.1589 18.1823 83.1049 18.6203 83.0689 18.9803C83.0329 19.3403 83.0029 19.5743 82.9789 19.6823C82.9429 19.8743 82.8649 20.0123 82.7449 20.0963C82.6249 20.1923 82.4869 20.2403 82.3309 20.2403ZM93.2383 20.2763C92.2543 20.2763 91.4443 20.0603 90.8083 19.6283C90.1843 19.1963 89.7523 18.6143 89.5123 17.8823C89.2843 17.1383 89.2603 16.2923 89.4403 15.3443C89.5723 14.6723 89.8003 14.0843 90.1243 13.5803C90.4603 13.0643 90.8323 12.6323 91.2403 12.2843C91.6603 11.9363 92.0803 11.6783 92.5003 11.5103C92.9203 11.3303 93.2803 11.2403 93.5803 11.2403C93.7123 11.2403 93.8203 11.2583 93.9043 11.2943C94.0003 11.3303 94.0723 11.3903 94.1203 11.4743C94.1803 11.5463 94.1983 11.6483 94.1743 11.7803C94.1143 12.0203 94.0183 12.2423 93.8863 12.4463C93.7543 12.6383 93.5083 12.8123 93.1483 12.9683C92.7163 13.1723 92.3503 13.4003 92.0503 13.6523C91.7623 13.8923 91.5283 14.1743 91.3483 14.4983C91.1683 14.8103 91.0423 15.1883 90.9703 15.6323C90.7783 16.6043 90.8923 17.3843 91.3123 17.9723C91.7323 18.5483 92.3743 18.8363 93.2383 18.8363C94.0783 18.8363 94.8103 18.5363 95.4343 17.9363C96.0703 17.3243 96.4843 16.5143 96.6763 15.5063C96.8683 14.5823 96.8083 13.8623 96.4963 13.3463C96.1843 12.8183 95.6683 12.5543 94.9483 12.5543C94.5763 12.5543 94.2583 12.6263 93.9943 12.7703C93.7423 12.9143 93.4663 13.1063 93.1663 13.3463C92.9503 13.5263 92.7763 13.6883 92.6443 13.8323C92.5123 13.9763 92.3923 14.0903 92.2843 14.1743C92.1883 14.2463 92.0623 14.2823 91.9063 14.2823C91.7383 14.2823 91.6063 14.2283 91.5103 14.1203C91.4263 14.0003 91.4083 13.8143 91.4563 13.5623C91.5043 13.2863 91.6423 13.0043 91.8703 12.7163C92.1103 12.4283 92.3983 12.1643 92.7343 11.9243C93.0823 11.6723 93.4543 11.4743 93.8503 11.3303C94.2463 11.1743 94.6363 11.0963 95.0203 11.0963C95.8843 11.0963 96.5863 11.3003 97.1263 11.7083C97.6663 12.1043 98.0323 12.6563 98.2243 13.3643C98.4163 14.0603 98.4163 14.8643 98.2243 15.7763C98.0563 16.6763 97.7323 17.4683 97.2523 18.1523C96.7723 18.8243 96.1843 19.3463 95.4883 19.7183C94.8043 20.0903 94.0543 20.2763 93.2383 20.2763ZM109.947 19.4483C109.911 19.7003 109.815 19.9043 109.659 20.0603C109.515 20.2043 109.335 20.2763 109.119 20.2763C108.831 20.2763 108.621 20.1923 108.489 20.0243C108.369 19.8563 108.339 19.6163 108.399 19.3043C108.627 18.1763 108.867 17.0063 109.119 15.7943C109.371 14.5703 109.647 13.3583 109.947 12.1583C110.259 10.9463 110.601 9.81228 110.973 8.75628L111.441 9.17028C110.901 9.51828 110.439 9.78828 110.055 9.98028C109.671 10.1603 109.341 10.2863 109.065 10.3583C108.789 10.4303 108.555 10.4663 108.363 10.4663C108.051 10.4663 107.823 10.3823 107.679 10.2143C107.535 10.0463 107.487 9.82428 107.535 9.54828C107.571 9.36828 107.649 9.23028 107.769 9.13428C107.901 9.02628 108.081 8.95428 108.309 8.91828C108.741 8.83428 109.167 8.69028 109.587 8.48628C110.007 8.27028 110.487 7.98828 111.027 7.64028C111.219 7.50828 111.393 7.41828 111.549 7.37028C111.717 7.32228 111.879 7.29828 112.035 7.29828C112.239 7.29828 112.401 7.35228 112.521 7.46028C112.641 7.55628 112.719 7.68828 112.755 7.85628C112.803 8.02428 112.791 8.21628 112.719 8.43228C112.611 8.78028 112.449 9.29628 112.233 9.98028C112.029 10.6643 111.795 11.4863 111.531 12.4463C111.267 13.3943 110.997 14.4623 110.721 15.6503C110.445 16.8383 110.187 18.1043 109.947 19.4483ZM113.821 20.2583C113.353 20.2583 112.993 20.1083 112.741 19.8083C112.489 19.4963 112.405 19.1183 112.489 18.6743C112.561 18.3623 112.711 18.1103 112.939 17.9183C113.179 17.7263 113.443 17.6303 113.731 17.6303C114.091 17.6303 114.373 17.7143 114.577 17.8823C114.793 18.0503 114.937 18.2543 115.009 18.4943C115.081 18.7343 115.093 18.9803 115.045 19.2323C114.997 19.4963 114.871 19.7363 114.667 19.9523C114.463 20.1563 114.181 20.2583 113.821 20.2583ZM119.711 20.2763C118.967 20.2763 118.373 20.1983 117.929 20.0423C117.485 19.8743 117.173 19.6583 116.993 19.3943C116.825 19.1183 116.777 18.8123 116.849 18.4763C116.885 18.2843 116.969 18.1343 117.101 18.0263C117.233 17.9183 117.395 17.8643 117.587 17.8643C117.779 17.8643 117.911 17.9063 117.983 17.9903C118.067 18.0743 118.157 18.1763 118.253 18.2963C118.349 18.4163 118.505 18.5183 118.721 18.6023C118.949 18.6863 119.297 18.7283 119.765 18.7283C120.353 18.7283 120.917 18.6623 121.457 18.5303C122.009 18.3983 122.507 18.2063 122.951 17.9543C123.395 17.6903 123.761 17.3723 124.049 17.0003C124.349 16.6283 124.547 16.2083 124.643 15.7403C124.715 15.3923 124.643 15.1043 124.427 14.8763C124.223 14.6483 123.911 14.4563 123.491 14.3003C123.071 14.1443 122.561 14.0003 121.961 13.8683C121.097 13.6883 120.419 13.5143 119.927 13.3463C119.435 13.1783 119.081 12.9983 118.865 12.8063C118.649 12.6023 118.523 12.3683 118.487 12.1043C118.463 11.8403 118.493 11.5223 118.577 11.1503C118.637 10.8263 118.745 10.4483 118.901 10.0163C119.069 9.58428 119.303 9.08028 119.603 8.50428C119.795 8.13228 119.993 7.86828 120.197 7.71228C120.401 7.54428 120.647 7.46028 120.935 7.46028C121.559 7.46028 122.099 7.44828 122.555 7.42428C123.023 7.38828 123.449 7.35228 123.833 7.31628C124.217 7.28028 124.601 7.25028 124.985 7.22628C125.369 7.19028 125.789 7.17228 126.245 7.17228C126.785 7.17228 127.151 7.26828 127.343 7.46028C127.535 7.65228 127.601 7.87428 127.541 8.12628C127.493 8.33028 127.385 8.48628 127.217 8.59428C127.049 8.69028 126.827 8.73828 126.551 8.73828C125.951 8.73828 125.411 8.75628 124.931 8.79228C124.451 8.81628 123.977 8.85228 123.509 8.90028C123.053 8.93628 122.561 8.96628 122.033 8.99028C121.505 9.01428 120.887 9.02028 120.179 9.00828L121.439 8.39628C121.019 9.03228 120.707 9.57828 120.503 10.0343C120.311 10.4903 120.191 10.8743 120.143 11.1863C120.107 11.3303 120.101 11.4503 120.125 11.5463C120.149 11.6423 120.239 11.7383 120.395 11.8343C120.563 11.9183 120.833 12.0143 121.205 12.1223C121.589 12.2183 122.123 12.3383 122.807 12.4823C123.599 12.6383 124.235 12.8363 124.715 13.0763C125.207 13.3043 125.573 13.5623 125.813 13.8503C126.065 14.1383 126.215 14.4563 126.263 14.8043C126.323 15.1523 126.311 15.5243 126.227 15.9203C126.059 16.7483 125.675 17.4923 125.075 18.1523C124.487 18.8003 123.731 19.3163 122.807 19.7003C121.883 20.0843 120.851 20.2763 119.711 20.2763ZM52.4096 36.2583C52.1216 36.2583 51.9056 36.0903 51.7616 35.7543C51.6176 35.4183 51.6116 34.9143 51.7436 34.2423C51.8036 33.9183 51.9176 33.4263 52.0856 32.7663C52.2536 32.0943 52.5116 31.3743 52.8596 30.6063C53.2676 29.6943 53.6336 28.9743 53.9576 28.4463C54.2816 27.9063 54.5996 27.5163 54.9116 27.2763C55.2236 27.0363 55.5416 26.9163 55.8656 26.9163C56.1176 26.9163 56.3096 27.0183 56.4416 27.2223C56.5856 27.4263 56.6876 27.6723 56.7476 27.9603C56.8076 28.2483 56.8556 28.5363 56.8916 28.8243C56.9396 29.2083 56.9996 29.6343 57.0716 30.1023C57.1556 30.5703 57.2456 31.0443 57.3416 31.5243C57.4496 32.0043 57.5696 32.4603 57.7016 32.8923C57.8456 33.3243 58.0076 33.6903 58.1876 33.9903L57.5396 34.1343C57.8876 33.4503 58.2596 32.7663 58.6556 32.0823C59.0516 31.3983 59.4476 30.7443 59.8436 30.1203C60.2396 29.4963 60.6116 28.9383 60.9595 28.4463C61.3435 27.9303 61.6675 27.5643 61.9315 27.3483C62.2075 27.1323 62.4535 27.0243 62.6695 27.0243C62.8255 27.0243 62.9695 27.0603 63.1015 27.1323C63.2335 27.1923 63.3475 27.2643 63.4435 27.3483C63.5755 27.4803 63.6775 27.6423 63.7495 27.8343C63.8215 28.0263 63.8335 28.3143 63.7855 28.6983C63.6775 29.5623 63.6055 30.3423 63.5695 31.0383C63.5455 31.7223 63.5395 32.2983 63.5515 32.7663C63.5635 33.5943 63.6235 34.2543 63.7315 34.7463C63.8515 35.2383 63.8935 35.5563 63.8575 35.7003C63.8335 35.8563 63.7495 35.9823 63.6055 36.0783C63.4735 36.1863 63.3115 36.2403 63.1195 36.2403C62.8315 36.2403 62.5915 36.1023 62.3995 35.8263C62.2195 35.5503 62.1055 35.1783 62.0575 34.7103C62.0095 34.2783 61.9735 33.7323 61.9495 33.0723C61.9375 32.4123 61.9555 31.6743 62.0035 30.8583C62.0635 30.0303 62.1595 29.1783 62.2915 28.3023L62.8135 28.1763C62.5255 28.5963 62.2015 29.0763 61.8415 29.6163C61.4935 30.1443 61.1335 30.6963 60.7616 31.2723C60.4016 31.8483 60.0536 32.4183 59.7176 32.9823C59.3936 33.5463 59.1056 34.0803 58.8536 34.5843C58.7216 34.8123 58.5656 34.9923 58.3856 35.1243C58.2176 35.2563 58.0196 35.3223 57.7916 35.3223C57.5036 35.3223 57.2636 35.2563 57.0716 35.1243C56.8916 34.9803 56.7356 34.7883 56.6036 34.5483C56.4836 34.2963 56.3756 34.0203 56.2796 33.7203C56.2316 33.5523 56.1656 33.3183 56.0816 33.0183C55.9976 32.7063 55.9136 32.3583 55.8296 31.9743C55.7456 31.5903 55.6676 31.1823 55.5956 30.7503C55.5236 30.3183 55.4636 29.8923 55.4156 29.4723C55.3676 29.0403 55.3436 28.6383 55.3436 28.2663L55.8836 28.1223C55.4756 28.7103 55.1156 29.2863 54.8036 29.8503C54.5036 30.4143 54.2456 30.9963 54.0296 31.5963C53.8256 32.1843 53.6516 32.8203 53.5076 33.5043C53.4116 33.9723 53.3396 34.3803 53.2916 34.7283C53.2556 35.0763 53.2196 35.3403 53.1836 35.5203C53.1356 35.7243 53.0516 35.8983 52.9316 36.0423C52.8116 36.1863 52.6376 36.2583 52.4096 36.2583ZM67.7484 36.2583C67.3404 36.2583 67.0164 36.1623 66.7764 35.9703C66.5484 35.7783 66.3804 35.5263 66.2724 35.2143C66.1644 34.8903 66.1104 34.5423 66.1104 34.1703C66.1224 33.7863 66.1644 33.4143 66.2364 33.0543C66.3084 32.7423 66.4044 32.3703 66.5244 31.9383C66.6564 31.5063 66.8004 31.0563 66.9564 30.5883C67.1124 30.1203 67.2624 29.6823 67.4064 29.2743C67.5624 28.8663 67.6884 28.5483 67.7844 28.3203C67.9404 27.9003 68.0784 27.5763 68.1984 27.3483C68.3304 27.1203 68.4864 27.0063 68.6664 27.0063C68.8224 27.0063 68.9664 27.0603 69.0984 27.1683C69.2304 27.2763 69.3264 27.4143 69.3864 27.5823C69.4584 27.7503 69.4764 27.9363 69.4404 28.1403C69.4044 28.3323 69.3204 28.6083 69.1884 28.9683C69.0564 29.3283 68.9064 29.7303 68.7384 30.1743C68.5704 30.6183 68.4084 31.0683 68.2524 31.5243C68.0964 31.9683 67.9824 32.3703 67.9104 32.7303C67.8384 33.0543 67.7904 33.3663 67.7664 33.6663C67.7424 33.9543 67.7544 34.1943 67.8024 34.3863C67.8504 34.5663 67.9524 34.6563 68.1084 34.6563C68.4924 34.6563 68.9784 34.3143 69.5664 33.6303C70.1664 32.9463 70.8324 32.0043 71.5644 30.8043C71.9004 30.2763 72.1944 29.7843 72.4464 29.3283C72.6984 28.8723 72.9204 28.4763 73.1124 28.1403C73.3044 27.7923 73.4904 27.5223 73.6704 27.3303C73.8504 27.1383 74.0304 27.0423 74.2104 27.0423C74.4864 27.0423 74.6844 27.1503 74.8044 27.3663C74.9364 27.5703 74.9964 27.8463 74.9844 28.1943C74.9844 28.5063 74.9724 28.8903 74.9484 29.3463C74.9364 29.8023 74.9244 30.2703 74.9124 30.7503C74.9004 31.2183 74.9004 31.6563 74.9124 32.0643C74.9484 32.7603 75.0144 33.3303 75.1103 33.7743C75.2184 34.2063 75.3144 34.5543 75.3984 34.8183C75.4824 35.0823 75.5184 35.2983 75.5064 35.4663C75.4944 35.5983 75.4524 35.7243 75.3804 35.8443C75.3084 35.9523 75.2184 36.0423 75.1103 36.1143C75.0024 36.1863 74.8824 36.2223 74.7504 36.2223C74.4744 36.2223 74.2464 36.0963 74.0664 35.8443C73.8984 35.5923 73.7664 35.2383 73.6704 34.7823C73.5744 34.3263 73.4964 33.7923 73.4364 33.1803C73.4124 32.7483 73.3884 32.2863 73.3644 31.7943C73.3524 31.3023 73.3524 30.8103 73.3644 30.3183C73.3884 29.8263 73.4124 29.3703 73.4364 28.9503L73.9584 29.1303C73.8144 29.4063 73.6584 29.7003 73.4904 30.0123C73.3344 30.3243 73.1424 30.6783 72.9144 31.0743C72.6984 31.4583 72.4284 31.9143 72.1044 32.4423C71.6964 33.0903 71.2524 33.7083 70.7724 34.2963C70.2924 34.8723 69.7944 35.3463 69.2784 35.7183C68.7744 36.0783 68.2644 36.2583 67.7484 36.2583ZM78.5026 36.2583C78.0706 36.2583 77.7826 35.9823 77.6386 35.4303C77.4946 34.8783 77.5126 34.1463 77.6926 33.2343C77.8366 32.5983 77.9986 32.1183 78.1786 31.7943C78.3706 31.4583 78.5866 31.2303 78.8266 31.1103C78.9586 31.0383 79.1446 30.9963 79.3846 30.9843C79.6246 30.9603 79.8766 30.9483 80.1406 30.9483C81.0166 30.9483 81.8806 30.9063 82.7326 30.8223C83.5966 30.7263 84.4426 30.5463 85.2706 30.2823L85.5946 31.5243C84.9706 31.7643 84.2986 31.9443 83.5786 32.0643C82.8586 32.1843 82.1266 32.2683 81.3826 32.3163C80.6506 32.3523 79.9366 32.3703 79.2406 32.3703L78.1966 32.2083C78.3526 31.5003 78.5146 30.7563 78.6826 29.9763C78.8506 29.1963 78.9946 28.5003 79.1146 27.8883C79.1626 27.6003 79.2586 27.3663 79.4026 27.1863C79.5466 27.0063 79.7086 26.9163 79.8886 26.9163C80.1886 26.9163 80.4106 27.0363 80.5546 27.2763C80.6986 27.5043 80.7166 27.8703 80.6086 28.3743C80.5606 28.6383 80.4886 28.9563 80.3926 29.3283C80.2966 29.7003 80.1946 30.0903 80.0866 30.4983C79.9906 30.9063 79.8946 31.2963 79.7986 31.6683C79.7146 32.0283 79.6486 32.3283 79.6006 32.5683C79.4566 33.2643 79.3486 33.8883 79.2766 34.4403C79.2166 34.9803 79.1626 35.3883 79.1146 35.6643C79.0786 35.8323 79.0006 35.9703 78.8806 36.0783C78.7726 36.1983 78.6466 36.2583 78.5026 36.2583ZM84.7126 36.2583C84.4126 36.2583 84.1966 36.0843 84.0646 35.7363C83.9446 35.3883 83.8906 34.9143 83.9026 34.3143C83.9266 33.7023 84.0106 33.0303 84.1546 32.2983C84.3946 31.1463 84.6046 30.2343 84.7846 29.5623C84.9766 28.8783 85.1506 28.3383 85.3066 27.9423C85.4026 27.6783 85.5226 27.4443 85.6666 27.2403C85.8106 27.0363 85.9846 26.9343 86.1886 26.9343C86.4526 26.9343 86.6386 27.0603 86.7466 27.3123C86.8666 27.5523 86.8906 27.8463 86.8186 28.1943C86.7346 28.6263 86.6026 29.0943 86.4226 29.5983C86.2546 30.1023 86.1166 30.6483 86.0086 31.2363C85.8646 31.9563 85.7626 32.6103 85.7026 33.1983C85.6546 33.7743 85.6246 34.2603 85.6126 34.6563C85.6006 35.0523 85.5706 35.3463 85.5226 35.5383C85.4866 35.7543 85.3906 35.9283 85.2346 36.0603C85.0786 36.1923 84.9046 36.2583 84.7126 36.2583ZM90.9738 40.7583C90.2418 40.7583 89.6238 40.6863 89.1198 40.5423C88.6158 40.4103 88.2498 40.2243 88.0218 39.9843C87.7938 39.7443 87.7098 39.4863 87.7698 39.2103C87.8058 39.0183 87.8838 38.8623 88.0038 38.7423C88.1358 38.6343 88.3158 38.5803 88.5438 38.5803C88.6878 38.5803 88.8198 38.6103 88.9398 38.6703C89.0598 38.7303 89.1978 38.7963 89.3538 38.8683C89.5098 38.9523 89.7258 39.0243 90.0018 39.0843C90.2898 39.1443 90.6678 39.1743 91.1358 39.1743C91.7118 39.1743 92.1918 39.0483 92.5758 38.7963C92.9598 38.5443 93.2658 38.1903 93.4938 37.7343C93.7338 37.2783 93.9138 36.7503 94.0338 36.1503C94.1058 35.8023 94.1538 35.4603 94.1778 35.1243C94.2138 34.7883 94.2498 34.4283 94.2858 34.0443C94.3218 33.6603 94.3698 33.2163 94.4298 32.7123C94.4898 32.1963 94.5858 31.5903 94.7178 30.8943L95.2758 31.4163C94.8918 32.2443 94.5078 32.9223 94.1238 33.4503C93.7398 33.9663 93.3678 34.3683 93.0078 34.6563C92.6478 34.9323 92.3058 35.1243 91.9818 35.2323C91.6698 35.3283 91.3878 35.3763 91.1358 35.3763C90.0918 35.3763 89.3658 34.9443 88.9578 34.0803C88.5498 33.2043 88.5378 31.8063 88.9218 29.8863C89.0778 29.0823 89.2338 28.4763 89.3898 28.0683C89.5578 27.6603 89.7318 27.3843 89.9118 27.2403C90.0918 27.0963 90.2778 27.0243 90.4698 27.0243C90.6498 27.0243 90.7938 27.0723 90.9018 27.1683C91.0098 27.2523 91.0638 27.3963 91.0638 27.6003C91.0758 27.8043 91.0338 28.0803 90.9378 28.4283C90.7458 29.1843 90.5958 29.8923 90.4878 30.5523C90.3798 31.2003 90.3318 31.7703 90.3438 32.2623C90.3558 32.7543 90.4338 33.1383 90.5778 33.4143C90.7218 33.6783 90.9558 33.8103 91.2798 33.8103C91.7838 33.8103 92.2758 33.5523 92.7558 33.0363C93.2358 32.5083 93.6858 31.8003 94.1058 30.9123C94.5378 30.0123 94.9278 29.0043 95.2758 27.8883C95.3838 27.5523 95.4918 27.3303 95.5998 27.2223C95.7078 27.1023 95.8758 27.0423 96.1038 27.0423C96.2718 27.0423 96.4218 27.0963 96.5538 27.2043C96.6978 27.3123 96.7818 27.5043 96.8058 27.7803C96.8418 28.0443 96.7878 28.4043 96.6438 28.8603C96.4638 29.4723 96.3258 30.0183 96.2298 30.4983C96.1458 30.9783 96.0858 31.4403 96.0498 31.8843C96.0138 32.3163 95.9838 32.7603 95.9598 33.2163C95.9478 33.6603 95.9118 34.1523 95.8518 34.6923C95.7918 35.2203 95.6958 35.8323 95.5638 36.5283C95.4078 37.3323 95.1798 38.0043 94.8798 38.5443C94.5798 39.0963 94.2318 39.5343 93.8358 39.8583C93.4398 40.1823 92.9958 40.4103 92.5038 40.5423C92.0238 40.6863 91.5138 40.7583 90.9738 40.7583ZM98.9619 28.9683C98.6859 28.9683 98.4699 28.8843 98.3139 28.7163C98.1699 28.5483 98.1219 28.3563 98.1699 28.1403C98.2059 28.0083 98.2779 27.8943 98.3859 27.7983C98.4939 27.7023 98.6859 27.6183 98.9619 27.5463C99.3939 27.4263 99.9699 27.3183 100.69 27.2223C101.422 27.1263 102.274 27.0783 103.246 27.0783C103.75 27.0783 104.212 27.0903 104.632 27.1143C105.064 27.1263 105.538 27.1683 106.054 27.2403C106.462 27.2883 106.774 27.3843 106.99 27.5283C107.218 27.6723 107.314 27.8343 107.278 28.0143C107.254 28.1463 107.2 28.2663 107.116 28.3743C107.044 28.4703 106.936 28.5483 106.792 28.6083C106.66 28.6683 106.492 28.6983 106.288 28.6983C106.036 28.6983 105.742 28.6863 105.406 28.6623C105.07 28.6383 104.71 28.6143 104.326 28.5903C103.954 28.5543 103.57 28.5363 103.174 28.5363C102.346 28.5363 101.68 28.5723 101.176 28.6443C100.672 28.7043 100.252 28.7763 99.9159 28.8603C99.5799 28.9323 99.2619 28.9683 98.9619 28.9683ZM101.572 36.2763C101.308 36.2763 101.11 36.1683 100.978 35.9523C100.858 35.7363 100.774 35.4603 100.726 35.1243C100.702 34.8723 100.702 34.5303 100.726 34.0983C100.762 33.6543 100.822 33.1743 100.906 32.6583C100.99 32.1303 101.08 31.6203 101.176 31.1283C101.308 30.4683 101.422 29.8863 101.518 29.3823C101.626 28.8663 101.71 28.4403 101.77 28.1043L103.39 27.9963C103.342 28.2003 103.282 28.4583 103.21 28.7703C103.15 29.0703 103.084 29.4123 103.012 29.7963C102.94 30.1683 102.862 30.5523 102.778 30.9483C102.706 31.3323 102.634 31.7043 102.562 32.0643C102.442 32.6643 102.364 33.1683 102.328 33.5763C102.304 33.9723 102.298 34.2963 102.31 34.5483C102.322 34.8003 102.334 35.0103 102.346 35.1783C102.358 35.3343 102.352 35.4783 102.328 35.6103C102.304 35.7423 102.256 35.8623 102.184 35.9703C102.112 36.0663 102.022 36.1383 101.914 36.1863C101.806 36.2463 101.692 36.2763 101.572 36.2763ZM109.793 36.2763C109.229 36.2763 108.767 36.1383 108.407 35.8623C108.047 35.5863 107.801 35.2083 107.669 34.7283C107.537 34.2363 107.531 33.6663 107.651 33.0183C107.807 32.2143 107.957 31.4463 108.101 30.7143C108.245 29.9703 108.365 29.3343 108.461 28.8063C108.569 28.2783 108.641 27.9303 108.677 27.7623C108.701 27.6183 108.749 27.4863 108.821 27.3663C108.905 27.2463 109.007 27.1503 109.127 27.0783C109.247 27.0063 109.373 26.9703 109.505 26.9703C109.781 26.9703 109.985 27.1083 110.117 27.3843C110.261 27.6603 110.303 27.9783 110.243 28.3383C110.171 28.6743 110.069 29.0763 109.937 29.5443C109.817 30.0123 109.721 30.4563 109.649 30.8763C109.613 31.0203 109.565 31.2123 109.505 31.4523C109.457 31.6803 109.403 31.9143 109.343 32.1543C109.295 32.3823 109.253 32.5803 109.217 32.7483C109.085 33.3843 109.085 33.8823 109.217 34.2423C109.349 34.6023 109.619 34.7823 110.027 34.7823C110.255 34.7823 110.507 34.7223 110.783 34.6023C111.071 34.4823 111.347 34.3263 111.611 34.1343C111.875 33.9303 112.097 33.7143 112.277 33.4863C112.457 33.2583 112.547 33.0423 112.547 32.8383C112.559 32.5263 112.475 32.2743 112.295 32.0823C112.127 31.8903 111.881 31.7343 111.557 31.6143C111.377 31.5303 111.143 31.4523 110.855 31.3803C110.567 31.3083 110.261 31.2423 109.937 31.1823C109.613 31.1103 109.301 31.0623 109.001 31.0383L109.307 29.8683C109.739 29.7963 110.225 29.6943 110.765 29.5623C111.317 29.4303 111.887 29.2743 112.475 29.0943C113.063 28.9143 113.627 28.7283 114.167 28.5363C114.779 28.3203 115.319 28.0983 115.787 27.8703C116.267 27.6423 116.675 27.4503 117.011 27.2943C117.359 27.1263 117.641 27.0423 117.857 27.0423C118.229 27.0423 118.511 27.1683 118.703 27.4203C118.907 27.6603 118.967 27.9843 118.883 28.3923C118.799 28.7763 118.715 29.1543 118.631 29.5263C118.559 29.8863 118.481 30.2583 118.397 30.6423C118.337 30.9543 118.271 31.3203 118.199 31.7403C118.127 32.1483 118.061 32.5683 118.001 33.0003C117.941 33.4323 117.899 33.8283 117.875 34.1883C117.875 34.4283 117.869 34.6923 117.857 34.9803C117.857 35.2563 117.845 35.4603 117.821 35.5923C117.797 35.7243 117.743 35.8443 117.659 35.9523C117.587 36.0483 117.491 36.1203 117.371 36.1683C117.263 36.2283 117.143 36.2583 117.011 36.2583C116.759 36.2583 116.567 36.1383 116.435 35.8983C116.315 35.6463 116.249 35.3463 116.237 34.9983C116.237 34.3983 116.273 33.7983 116.345 33.1983C116.417 32.5863 116.513 31.9683 116.633 31.3443C116.693 31.0803 116.753 30.7863 116.813 30.4623C116.885 30.1383 116.957 29.8203 117.029 29.5083C117.101 29.1963 117.161 28.9203 117.209 28.6803C117.269 28.4283 117.311 28.2483 117.335 28.1403L117.695 28.5183C117.419 28.6743 117.059 28.8483 116.615 29.0403C116.183 29.2203 115.691 29.4063 115.139 29.5983C114.587 29.7783 114.011 29.9583 113.411 30.1383C112.811 30.3183 112.205 30.4863 111.593 30.6423C110.993 30.7863 110.417 30.9003 109.865 30.9843L110.045 30.3363C110.141 30.3243 110.285 30.3123 110.477 30.3003C110.681 30.2763 110.915 30.2643 111.179 30.2643C111.323 30.2643 111.521 30.2883 111.773 30.3363C112.037 30.3843 112.307 30.4623 112.583 30.5703C112.871 30.6783 113.141 30.8283 113.393 31.0203C113.657 31.2003 113.861 31.4283 114.005 31.7043C114.161 31.9803 114.233 32.3043 114.221 32.6763C114.197 33.1443 114.035 33.5943 113.735 34.0263C113.447 34.4583 113.081 34.8423 112.637 35.1783C112.193 35.5143 111.719 35.7843 111.215 35.9883C110.711 36.1803 110.237 36.2763 109.793 36.2763Z" fill="#7831B2"/>
<path fill-rule="evenodd" clip-rule="evenodd" d="M12.1226 4.56891C8.13435 6.91255 4.9868 10.742 3.57849 15.5625C0.666379 25.5303 6.30119 35.9347 16.1429 38.8102C20.9031 40.201 25.7814 39.5774 29.8788 37.4344C33.8671 35.0907 37.0147 31.2612 38.423 26.4408C41.3351 16.473 35.7003 6.06859 25.8585 3.19305C21.0983 1.80222 16.22 2.42585 12.1226 4.56891ZM11.1619 2.81978C15.867 0.0700693 21.6249 -0.818003 27.241 0.822907C38.1515 4.01071 44.3709 15.5291 41.1537 26.5411C39.4975 32.2102 35.6611 36.6469 30.8396 39.1835C26.1344 41.9332 20.3766 42.8213 14.7605 41.1803C3.85 37.9925 -2.3694 26.4741 0.847777 15.4621C2.50402 9.79302 6.34036 5.35636 11.1619 2.81978ZM28.4257 9.42616C28.4326 9.56697 28.4096 9.71165 28.353 9.85121L23.0935 22.8175C22.4967 24.2889 20.3917 24.1712 19.9705 22.6536L15.999 8.34451C15.8515 7.81316 16.1634 7.26033 16.6956 7.10974C16.8968 7.05283 17.1006 7.06151 17.2843 7.12301C17.5415 7.20841 17.7626 7.3978 17.8802 7.66529C19.9216 12.3072 21.0914 16.7711 21.7336 19.8681C22.4769 17.5082 23.4533 14.5391 24.3601 12.1916C24.8673 10.8786 25.3743 9.70275 25.8239 8.93664C26.0269 8.59074 26.3055 8.17 26.6651 7.92309C26.8609 7.7886 27.2301 7.60501 27.6846 7.71565C28.1385 7.82613 28.3824 8.15823 28.4972 8.37459C28.6807 8.7203 28.6398 9.12635 28.4257 9.42616Z" fill="#7831B2"/>
</svg>
