<svg width="134" height="55" viewBox="0 0 134 55" fill="none" xmlns="http://www.w3.org/2000/svg">
<path d="M76.9895 25.5151C76.5936 25.5151 76.2693 25.4177 76.0166 25.223C75.7639 25.0282 75.5912 24.7615 75.4985 24.4228C75.4059 24.0756 75.4017 23.6734 75.4859 23.2162C75.5954 22.6488 75.7007 22.1069 75.8018 21.5904C75.9029 21.0654 75.9871 20.6166 76.0545 20.244C76.1303 19.8714 76.1809 19.6259 76.2061 19.5073C76.223 19.4057 76.2567 19.3126 76.3072 19.2279C76.3662 19.1432 76.4378 19.0755 76.522 19.0247C76.6063 18.9739 76.6947 18.9485 76.7874 18.9485C76.9811 18.9485 77.1243 19.0458 77.217 19.2406C77.3181 19.4354 77.3475 19.6597 77.3054 19.9138C77.2549 20.1509 77.1833 20.4345 77.0906 20.7648C77.0064 21.095 76.939 21.4083 76.8885 21.7047C76.8632 21.8063 76.8295 21.9418 76.7874 22.1111C76.7537 22.272 76.7158 22.4371 76.6736 22.6065C76.64 22.7674 76.6105 22.9071 76.5852 23.0256C76.4925 23.4744 76.4925 23.8258 76.5852 24.0799C76.6779 24.3339 76.8674 24.4609 77.1538 24.4609C77.3138 24.4609 77.4907 24.4186 77.6845 24.3339C77.8867 24.2492 78.0804 24.1391 78.2657 24.0036C78.451 23.8597 78.6069 23.7073 78.7332 23.5464C78.8596 23.3855 78.9228 23.2331 78.9228 23.0891C78.9312 22.869 78.8722 22.6912 78.7459 22.5557C78.6279 22.4202 78.4553 22.3101 78.2278 22.2254C78.1015 22.1662 77.9372 22.1111 77.735 22.0603C77.5329 22.0095 77.3181 21.9629 77.0906 21.9206C76.8632 21.8698 76.6442 21.8359 76.4336 21.819L76.6484 20.9934C76.9516 20.9426 77.2928 20.8706 77.6719 20.7775C78.0593 20.6843 78.4595 20.5742 78.8722 20.4472C79.285 20.3202 79.6809 20.189 80.06 20.0535C80.4896 19.9011 80.8686 19.7444 81.1972 19.5835C81.5341 19.4226 81.8205 19.2872 82.0564 19.1771C82.3007 19.0585 82.4986 18.9993 82.6502 18.9993C82.9114 18.9993 83.1093 19.0882 83.2441 19.266C83.3873 19.4354 83.4294 19.664 83.3705 19.9519C83.3115 20.2228 83.2525 20.4896 83.1936 20.7521C83.143 21.0061 83.0883 21.2686 83.0293 21.5396C82.9872 21.7597 82.9409 22.018 82.8903 22.3144C82.8398 22.6023 82.7934 22.8986 82.7513 23.2035C82.7092 23.5083 82.6797 23.7877 82.6629 24.0418C82.6629 24.2111 82.6587 24.3974 82.6502 24.6006C82.6502 24.7954 82.6418 24.9393 82.625 25.0325C82.6081 25.1256 82.5702 25.2103 82.5113 25.2865C82.4607 25.3542 82.3933 25.405 82.3091 25.4389C82.2333 25.4813 82.149 25.5024 82.0564 25.5024C81.8795 25.5024 81.7447 25.4177 81.652 25.2484C81.5678 25.0706 81.5215 24.8589 81.5131 24.6133C81.5131 24.1899 81.5383 23.7666 81.5889 23.3432C81.6394 22.9113 81.7068 22.4752 81.791 22.0349C81.8331 21.8486 81.8753 21.6412 81.9174 21.4125C81.9679 21.1839 82.0185 20.9595 82.069 20.7394C82.1196 20.5192 82.1617 20.3245 82.1954 20.1551C82.2375 19.9773 82.267 19.8503 82.2838 19.7741L82.5365 20.0408C82.3428 20.1509 82.0901 20.2736 81.7784 20.4091C81.4751 20.5361 81.1298 20.6674 80.7423 20.8029C80.3548 20.9299 79.9505 21.0569 79.5293 21.1839C79.1081 21.3109 78.6827 21.4295 78.2531 21.5396C77.8319 21.6412 77.4276 21.7216 77.0401 21.7809L77.1664 21.3236C77.2338 21.3152 77.3349 21.3067 77.4697 21.2982C77.6129 21.2813 77.7771 21.2728 77.9625 21.2728C78.0636 21.2728 78.2025 21.2898 78.3794 21.3236C78.5648 21.3575 78.7543 21.4125 78.948 21.4888C79.1502 21.565 79.3397 21.6708 79.5166 21.8063C79.702 21.9333 79.8452 22.0942 79.9462 22.2889C80.0558 22.4837 80.1063 22.7123 80.0979 22.9748C80.081 23.3051 79.9673 23.6226 79.7567 23.9274C79.5545 24.2323 79.2976 24.5032 78.9859 24.7403C78.6743 24.9774 78.3415 25.168 77.9877 25.3119C77.6339 25.4474 77.3012 25.5151 76.9895 25.5151Z" fill="#7831B2"/>
<path d="M69.3865 20.3583C69.1928 20.3583 69.0411 20.2991 68.9316 20.1805C68.8305 20.062 68.7969 19.9265 68.8305 19.7741C68.8558 19.6809 68.9064 19.6005 68.9822 19.5327C69.058 19.465 69.1928 19.4057 69.3865 19.3549C69.6898 19.2702 70.0941 19.194 70.5995 19.1263C71.1134 19.0585 71.7114 19.0247 72.3938 19.0247C72.7476 19.0247 73.0719 19.0331 73.3667 19.0501C73.6699 19.0585 74.0027 19.0882 74.3649 19.139C74.6513 19.1729 74.8703 19.2406 75.0219 19.3422C75.182 19.4438 75.2494 19.5581 75.2241 19.6851C75.2073 19.7783 75.1694 19.863 75.1104 19.9392C75.0599 20.0069 74.984 20.062 74.883 20.1043C74.7903 20.1466 74.6724 20.1678 74.5292 20.1678C74.3523 20.1678 74.1459 20.1593 73.91 20.1424C73.6742 20.1255 73.4214 20.1085 73.1519 20.0916C72.8908 20.0662 72.6212 20.0535 72.3432 20.0535C71.762 20.0535 71.2945 20.0789 70.9407 20.1297C70.5869 20.172 70.2921 20.2228 70.0562 20.2821C69.8203 20.3329 69.5971 20.3583 69.3865 20.3583ZM71.2187 25.5151C71.0333 25.5151 70.8943 25.4389 70.8017 25.2865C70.7174 25.1341 70.6585 24.9393 70.6248 24.7022C70.6079 24.5244 70.6079 24.2831 70.6248 23.9782C70.6501 23.6649 70.6922 23.3262 70.7511 22.9621C70.8101 22.5896 70.8733 22.2297 70.9407 21.8825C71.0333 21.4168 71.1134 21.0061 71.1807 20.6505C71.2566 20.2864 71.3155 19.9857 71.3577 19.7487L72.4949 19.6724C72.4612 19.8164 72.419 19.9984 72.3685 20.2186C72.3264 20.4303 72.28 20.6716 72.2295 20.9426C72.179 21.2051 72.1242 21.4761 72.0652 21.7555C72.0147 22.0265 71.9641 22.2889 71.9136 22.543C71.8294 22.9664 71.7746 23.322 71.7494 23.6099C71.7325 23.8893 71.7283 24.118 71.7367 24.2958C71.7451 24.4736 71.7536 24.6218 71.762 24.7403C71.7704 24.8504 71.7662 24.952 71.7494 25.0452C71.7325 25.1383 71.6988 25.223 71.6483 25.2992C71.5977 25.3669 71.5345 25.4177 71.4587 25.4516C71.3829 25.494 71.3029 25.5151 71.2187 25.5151Z" fill="#7831B2"/>
<path d="M63.7791 28.6778C63.2653 28.6778 62.8314 28.627 62.4776 28.5254C62.1238 28.4322 61.8669 28.301 61.7069 28.1316C61.5468 27.9623 61.4879 27.7802 61.53 27.5855C61.5552 27.45 61.61 27.3399 61.6942 27.2552C61.7869 27.179 61.9133 27.1409 62.0733 27.1409C62.1744 27.1409 62.2671 27.1621 62.3513 27.2044C62.4355 27.2468 62.5324 27.2933 62.6419 27.3441C62.7514 27.4034 62.903 27.4542 63.0968 27.4966C63.299 27.5389 63.5643 27.5601 63.8928 27.5601C64.2972 27.5601 64.6341 27.4712 64.9037 27.2933C65.1732 27.1155 65.388 26.8657 65.5481 26.5439C65.7165 26.2222 65.8429 25.8496 65.9271 25.4262C65.9777 25.1807 66.0114 24.9393 66.0282 24.7022C66.0535 24.4651 66.0788 24.2111 66.104 23.9401C66.1293 23.6692 66.163 23.3559 66.2051 23.0002C66.2472 22.6361 66.3146 22.2085 66.4073 21.7174L66.799 22.0857C66.5294 22.67 66.2599 23.1484 65.9903 23.521C65.7208 23.8851 65.4596 24.1688 65.2069 24.372C64.9542 24.5667 64.7141 24.7022 64.4867 24.7784C64.2677 24.8462 64.0697 24.8801 63.8928 24.8801C63.16 24.8801 62.6503 24.5752 62.3639 23.9655C62.0775 23.3474 62.0691 22.3609 62.3386 21.0061C62.4482 20.4388 62.5577 20.0112 62.6672 19.7232C62.7851 19.4354 62.9073 19.2406 63.0336 19.139C63.16 19.0374 63.2905 18.9866 63.4253 18.9866C63.5517 18.9866 63.6527 19.0204 63.7286 19.0882C63.8044 19.1474 63.8423 19.2491 63.8423 19.393C63.8507 19.537 63.8212 19.7317 63.7538 19.9773C63.619 20.5107 63.5138 21.0103 63.4379 21.4761C63.3621 21.9333 63.3284 22.3355 63.3369 22.6827C63.3453 23.0299 63.4 23.3008 63.5011 23.4956C63.6022 23.6819 63.7665 23.775 63.9939 23.775C64.3477 23.775 64.6931 23.593 65.03 23.2289C65.367 22.8563 65.6829 22.3567 65.9777 21.7301C66.2809 21.095 66.5547 20.3837 66.799 19.5962C66.8748 19.3591 66.9506 19.2025 67.0264 19.1263C67.1022 19.0416 67.2202 18.9993 67.3802 18.9993C67.4982 18.9993 67.6035 19.0374 67.6961 19.1136C67.7972 19.1898 67.8562 19.3253 67.873 19.52C67.8983 19.7063 67.8604 19.9603 67.7593 20.2821C67.6329 20.714 67.5361 21.0992 67.4687 21.438C67.4097 21.7767 67.3676 22.1027 67.3423 22.416C67.317 22.7208 67.296 23.0341 67.2791 23.3559C67.2707 23.6692 67.2454 24.0163 67.2033 24.3974C67.1612 24.77 67.0938 25.2018 67.0012 25.6929C66.8916 26.2603 66.7316 26.7345 66.521 27.1155C66.3104 27.505 66.0661 27.8141 65.7881 28.0427C65.5102 28.2713 65.1985 28.4322 64.8531 28.5254C64.5162 28.627 64.1582 28.6778 63.7791 28.6778Z" fill="#7831B2"/>
<path d="M55.0247 25.5024C54.7214 25.5024 54.5192 25.3077 54.4182 24.9182C54.3171 24.5286 54.3297 24.0121 54.4561 23.3686C54.5571 22.9198 54.6709 22.5811 54.7972 22.3525C54.932 22.1154 55.0836 21.9545 55.2521 21.8698C55.3448 21.819 55.4753 21.7894 55.6438 21.7809C55.8123 21.764 55.9892 21.7555 56.1745 21.7555C56.7894 21.7555 57.3959 21.7258 57.994 21.6666C58.6005 21.5988 59.1944 21.4718 59.7756 21.2855L60.0031 22.1619C59.565 22.3313 59.0933 22.4583 58.5879 22.543C58.0825 22.6277 57.5686 22.6869 57.0463 22.7208C56.5325 22.7462 56.0313 22.7589 55.5427 22.7589L54.8099 22.6446C54.9194 22.145 55.0331 21.62 55.151 21.0696C55.269 20.5192 55.37 20.0281 55.4543 19.5962C55.488 19.393 55.5554 19.2279 55.6564 19.1009C55.7575 18.9739 55.8712 18.9104 55.9976 18.9104C56.2082 18.9104 56.364 18.995 56.4651 19.1644C56.5662 19.3253 56.5788 19.5835 56.503 19.9392C56.4693 20.1255 56.4188 20.3499 56.3514 20.6124C56.284 20.8749 56.2124 21.15 56.1366 21.438C56.0692 21.7259 56.0018 22.001 55.9344 22.2635C55.8755 22.5176 55.8291 22.7293 55.7954 22.8986C55.6943 23.3897 55.6185 23.8301 55.568 24.2196C55.5259 24.6006 55.488 24.8885 55.4543 25.0833C55.429 25.2018 55.3742 25.2992 55.29 25.3754C55.2142 25.4601 55.1257 25.5024 55.0247 25.5024ZM59.3839 25.5024C59.1733 25.5024 59.0217 25.3796 58.929 25.1341C58.8448 24.8885 58.8069 24.554 58.8153 24.1307C58.8322 23.6988 58.8911 23.2246 58.9922 22.7081C59.1607 21.8952 59.3081 21.2517 59.4345 20.7775C59.5692 20.2948 59.6914 19.9138 59.8009 19.6343C59.8683 19.4481 59.9525 19.2829 60.0536 19.139C60.1547 18.995 60.2768 18.9231 60.42 18.9231C60.6053 18.9231 60.7359 19.012 60.8117 19.1898C60.896 19.3591 60.9128 19.5666 60.8623 19.8122C60.8033 20.117 60.7106 20.4472 60.5843 20.8029C60.4664 21.1585 60.3695 21.5438 60.2937 21.9587C60.1926 22.4668 60.121 22.9283 60.0789 23.3432C60.0452 23.7496 60.0241 24.0926 60.0157 24.372C60.0073 24.6514 59.9862 24.8589 59.9525 24.9944C59.9272 25.1468 59.8599 25.2696 59.7503 25.3627C59.6408 25.4559 59.5187 25.5024 59.3839 25.5024Z" fill="#7831B2"/>
<path d="M47.4754 25.5024C47.189 25.5024 46.9616 25.4347 46.7931 25.2992C46.6331 25.1637 46.5151 24.9859 46.4393 24.7657C46.3635 24.5371 46.3256 24.2915 46.3256 24.0291C46.334 23.7581 46.3635 23.4956 46.4141 23.2416C46.4646 23.0214 46.532 22.7589 46.6162 22.4541C46.7089 22.1492 46.81 21.8317 46.9195 21.5015C47.029 21.1712 47.1343 20.8622 47.2354 20.5742C47.3449 20.2864 47.4333 20.062 47.5007 19.9011C47.6102 19.6047 47.7071 19.3761 47.7913 19.2152C47.884 19.0543 47.9935 18.9739 48.1199 18.9739C48.2294 18.9739 48.3304 19.012 48.4231 19.0882C48.5158 19.1644 48.5831 19.2618 48.6253 19.3803C48.6758 19.4989 48.6884 19.6301 48.6632 19.7741C48.6379 19.9095 48.5789 20.1043 48.4863 20.3583C48.3936 20.6124 48.2883 20.896 48.1704 21.2093C48.0525 21.5226 47.9387 21.8402 47.8292 22.1619C47.7197 22.4752 47.6397 22.7589 47.5892 23.0129C47.5386 23.2416 47.5049 23.4617 47.4881 23.6734C47.4712 23.8766 47.4796 24.046 47.5133 24.1815C47.547 24.3085 47.6186 24.372 47.7281 24.372C47.9977 24.372 48.3389 24.1307 48.7516 23.648C49.1728 23.1653 49.6403 22.5006 50.1542 21.6539C50.39 21.2813 50.5964 20.9341 50.7733 20.6124C50.9502 20.2906 51.106 20.0112 51.2408 19.7741C51.3756 19.5285 51.5062 19.338 51.6325 19.2025C51.7589 19.067 51.8852 18.9993 52.0116 18.9993C52.2053 18.9993 52.3443 19.0755 52.4286 19.2279C52.5212 19.3718 52.5633 19.5666 52.5549 19.8122C52.5549 20.0323 52.5465 20.3033 52.5296 20.6251C52.5212 20.9468 52.5128 21.2771 52.5044 21.6158C52.4959 21.946 52.4959 22.2551 52.5044 22.543C52.5296 23.0341 52.576 23.4363 52.6434 23.7496C52.7192 24.0545 52.7866 24.3 52.8455 24.4863C52.9045 24.6726 52.9298 24.825 52.9213 24.9436C52.9129 25.0367 52.8834 25.1256 52.8329 25.2103C52.7824 25.2865 52.7192 25.35 52.6434 25.4008C52.5675 25.4516 52.4833 25.477 52.3907 25.477C52.1969 25.477 52.0369 25.3881 51.9105 25.2103C51.7926 25.0325 51.6999 24.7827 51.6325 24.4609C51.5651 24.1391 51.5104 23.7623 51.4683 23.3305C51.4514 23.0256 51.4346 22.6996 51.4177 22.3525C51.4093 22.0053 51.4093 21.6581 51.4177 21.3109C51.4346 20.9638 51.4514 20.642 51.4683 20.3456L51.8347 20.4726C51.7336 20.6674 51.6241 20.8749 51.5062 21.095C51.3967 21.3152 51.2619 21.565 51.1018 21.8444C50.9502 22.1154 50.7607 22.4371 50.5332 22.8097C50.2468 23.267 49.9352 23.703 49.5982 24.118C49.2613 24.5244 48.9117 24.8589 48.5495 25.1214C48.1957 25.3754 47.8377 25.5024 47.4754 25.5024Z" fill="#7831B2"/>
<path d="M36.708 25.5024C36.5058 25.5024 36.3542 25.3839 36.2531 25.1468C36.152 24.9097 36.1478 24.554 36.2405 24.0799C36.2826 23.8512 36.3626 23.5041 36.4806 23.0383C36.5985 22.5641 36.7796 22.0561 37.0239 21.5142C37.3103 20.8706 37.5672 20.3626 37.7947 19.99C38.0221 19.6089 38.2453 19.3337 38.4643 19.1644C38.6834 18.995 38.9066 18.9104 39.134 18.9104C39.3109 18.9104 39.4457 18.9823 39.5384 19.1263C39.6394 19.2702 39.711 19.4438 39.7532 19.647C39.7953 19.8503 39.829 20.0535 39.8542 20.2567C39.8879 20.5277 39.9301 20.8283 39.9806 21.1585C40.0396 21.4888 40.1027 21.8232 40.1701 22.1619C40.2459 22.5006 40.3302 22.8224 40.4228 23.1272C40.5239 23.4321 40.6376 23.6903 40.764 23.902L40.3091 24.0036C40.5534 23.521 40.8145 23.0383 41.0925 22.5557C41.3705 22.073 41.6485 21.6115 41.9265 21.1712C42.2045 20.7309 42.4656 20.3372 42.7099 19.99C42.9794 19.6259 43.2069 19.3676 43.3922 19.2152C43.5859 19.0628 43.7586 18.9866 43.9102 18.9866C44.0198 18.9866 44.1208 19.012 44.2135 19.0628C44.3062 19.1051 44.3862 19.1559 44.4536 19.2152C44.5462 19.3083 44.6178 19.4226 44.6684 19.5581C44.7189 19.6936 44.7273 19.8968 44.6936 20.1678C44.6178 20.7775 44.5673 21.3279 44.542 21.819C44.5252 22.3017 44.521 22.7081 44.5294 23.0383C44.5378 23.6226 44.5799 24.0883 44.6557 24.4355C44.74 24.7827 44.7695 25.0071 44.7442 25.1087C44.7273 25.2188 44.6684 25.3077 44.5673 25.3754C44.4746 25.4516 44.3609 25.4897 44.2261 25.4897C44.024 25.4897 43.8555 25.3923 43.7207 25.1976C43.5944 25.0028 43.5143 24.7403 43.4806 24.4101C43.4469 24.1053 43.4217 23.72 43.4048 23.2543C43.3964 22.7885 43.409 22.2678 43.4427 21.692C43.4849 21.1077 43.5522 20.5065 43.6449 19.8884L44.0113 19.7995C43.8092 20.0958 43.5817 20.4345 43.329 20.8156C43.0847 21.1882 42.832 21.5777 42.5709 21.9841C42.3182 22.3906 42.0739 22.7928 41.838 23.1908C41.6106 23.5887 41.4084 23.9655 41.2315 24.3212C41.1389 24.4821 41.0294 24.6091 40.903 24.7022C40.7851 24.7954 40.6461 24.8419 40.486 24.8419C40.2839 24.8419 40.1154 24.7954 39.9806 24.7022C39.8542 24.6006 39.7447 24.4651 39.6521 24.2958C39.5678 24.118 39.492 23.9232 39.4246 23.7115C39.3909 23.593 39.3446 23.4278 39.2857 23.2162C39.2267 22.996 39.1677 22.7504 39.1088 22.4795C39.0498 22.2085 38.995 21.9206 38.9445 21.6158C38.8939 21.3109 38.8518 21.0103 38.8181 20.714C38.7844 20.4091 38.7676 20.1255 38.7676 19.863L39.1467 19.7614C38.8603 20.1763 38.6075 20.5827 38.3885 20.9807C38.1779 21.3787 37.9968 21.7894 37.8452 22.2127C37.702 22.6277 37.5799 23.0764 37.4788 23.5591C37.4114 23.8893 37.3608 24.1772 37.3271 24.4228C37.3019 24.6684 37.2766 24.8546 37.2513 24.9817C37.2176 25.1256 37.1587 25.2484 37.0744 25.35C36.9902 25.4516 36.8681 25.5024 36.708 25.5024Z" fill="#7831B2"/>
<path d="M83.9516 14.2249C83.4293 14.2249 83.0124 14.1699 82.7007 14.0598C82.389 13.9413 82.17 13.7888 82.0436 13.6025C81.9257 13.4078 81.892 13.1919 81.9426 12.9548C81.9678 12.8193 82.0268 12.7134 82.1195 12.6372C82.2121 12.561 82.3258 12.5229 82.4606 12.5229C82.5954 12.5229 82.6881 12.5526 82.7386 12.6118C82.7976 12.6711 82.8607 12.7431 82.9281 12.8278C82.9955 12.9124 83.105 12.9844 83.2567 13.0437C83.4167 13.103 83.661 13.1326 83.9895 13.1326C84.4023 13.1326 84.7982 13.086 85.1773 12.9929C85.5647 12.8997 85.9143 12.7643 86.226 12.5864C86.5377 12.4001 86.7946 12.1757 86.9968 11.9133C87.2074 11.6508 87.3464 11.3544 87.4137 11.0241C87.4643 10.7786 87.4137 10.5754 87.2621 10.4145C87.1189 10.2536 86.8999 10.1181 86.6051 10.008C86.3102 9.89795 85.9522 9.79634 85.531 9.70319C84.9245 9.57618 84.4486 9.4534 84.1032 9.33485C83.7579 9.2163 83.5094 9.08929 83.3577 8.95381C83.2061 8.80986 83.1177 8.64474 83.0924 8.45845C83.0755 8.27216 83.0966 8.04777 83.1556 7.78527C83.1977 7.55664 83.2735 7.28991 83.383 6.98508C83.5009 6.68024 83.6652 6.3246 83.8758 5.91815C84.0106 5.65566 84.1496 5.46937 84.2928 5.35929C84.436 5.24074 84.6087 5.18147 84.8108 5.18147C85.2489 5.18147 85.6279 5.173 85.948 5.15606C86.2765 5.13066 86.5756 5.10526 86.8451 5.07985C87.1147 5.05445 87.3843 5.03328 87.6538 5.01635C87.9234 4.99094 88.2182 4.97824 88.5383 4.97824C88.9174 4.97824 89.1743 5.04598 89.3091 5.18147C89.4438 5.31695 89.4902 5.4736 89.4481 5.65142C89.4144 5.79537 89.3385 5.90545 89.2206 5.98166C89.1027 6.0494 88.9468 6.08327 88.7531 6.08327C88.3319 6.08327 87.9529 6.09597 87.6159 6.12138C87.279 6.13831 86.9462 6.16371 86.6177 6.19759C86.2976 6.22299 85.9522 6.24416 85.5816 6.26109C85.2109 6.27803 84.7771 6.28226 84.2801 6.27379L85.1646 5.84194C84.8698 6.29073 84.6508 6.67601 84.5076 6.99778C84.3728 7.31955 84.2886 7.59051 84.2549 7.81067C84.2296 7.91228 84.2254 7.99696 84.2422 8.0647C84.2591 8.13244 84.3223 8.20018 84.4318 8.26793C84.5497 8.3272 84.7392 8.39494 85.0004 8.47115C85.2699 8.53889 85.6448 8.62357 86.1249 8.72518C86.6809 8.83526 87.1273 8.97498 87.4643 9.14433C87.8097 9.30521 88.0666 9.48727 88.235 9.69049C88.4119 9.89372 88.5172 10.1181 88.5509 10.3637C88.593 10.6092 88.5846 10.8717 88.5257 11.1512C88.4077 11.7354 88.1382 12.2604 87.717 12.7261C87.3042 13.1834 86.7735 13.5475 86.1249 13.8185C85.4763 14.0894 84.7519 14.2249 83.9516 14.2249Z" fill="#7831B2"/>
<path d="M79.8174 14.2122C79.4889 14.2122 79.2362 14.1064 79.0593 13.8947C78.8824 13.6745 78.8234 13.4078 78.8824 13.0945C78.9329 12.8743 79.0382 12.6965 79.1983 12.561C79.3668 12.4255 79.5521 12.3578 79.7542 12.3578C80.007 12.3578 80.2049 12.4171 80.3481 12.5356C80.4997 12.6542 80.6008 12.7981 80.6514 12.9675C80.7019 13.1368 80.7103 13.3104 80.6766 13.4882C80.6429 13.6745 80.5545 13.8439 80.4113 13.9963C80.2681 14.1402 80.0701 14.2122 79.8174 14.2122Z" fill="#7831B2"/>
<path d="M77.0978 13.6407C77.0725 13.8185 77.0052 13.9624 76.8957 14.0725C76.7946 14.1741 76.6682 14.2249 76.5166 14.2249C76.3144 14.2249 76.167 14.1656 76.0743 14.0471C75.9901 13.9286 75.9691 13.7592 76.0112 13.539C76.1712 12.7431 76.3397 11.9175 76.5166 11.0623C76.6935 10.1986 76.8872 9.34332 77.0978 8.49655C77.3168 7.64132 77.5569 6.84113 77.818 6.09597L78.1466 6.38811C77.7675 6.63367 77.4432 6.82419 77.1736 6.95967C76.9041 7.08669 76.6724 7.1756 76.4787 7.2264C76.2849 7.27721 76.1207 7.30261 75.9859 7.30261C75.7669 7.30261 75.6068 7.24334 75.5058 7.12479C75.4047 7.00625 75.371 6.84959 75.4047 6.65484C75.4299 6.52782 75.4847 6.43045 75.5689 6.3627C75.6616 6.2865 75.7879 6.23569 75.948 6.21029C76.2512 6.15101 76.5503 6.0494 76.8451 5.90545C77.1399 5.75303 77.4769 5.55404 77.856 5.30848C77.9907 5.21534 78.1129 5.15183 78.2224 5.11796C78.3403 5.08409 78.454 5.06715 78.5635 5.06715C78.7067 5.06715 78.8205 5.10526 78.9047 5.18147C78.9889 5.24921 79.0437 5.34235 79.069 5.4609C79.1027 5.57945 79.0942 5.71493 79.0437 5.86735C78.9679 6.11291 78.8542 6.47702 78.7025 6.95967C78.5593 7.44233 78.3951 8.02236 78.2097 8.69978C78.0244 9.36872 77.8349 10.1223 77.6412 10.9606C77.4474 11.7989 77.2663 12.6923 77.0978 13.6407Z" fill="#7831B2"/>
<path d="M65.3687 14.2249C64.678 14.2249 64.1094 14.0725 63.6629 13.7677C63.2249 13.4628 62.9216 13.0521 62.7532 12.5356C62.5931 12.0106 62.5763 11.4137 62.7026 10.7447C62.7953 10.2705 62.9553 9.85561 63.1828 9.49997C63.4186 9.13586 63.6798 8.83103 63.9662 8.58546C64.261 8.3399 64.5558 8.15785 64.8507 8.0393C65.1455 7.91228 65.3982 7.84878 65.6088 7.84878C65.7014 7.84878 65.7773 7.86148 65.8362 7.88688C65.9036 7.91229 65.9542 7.95462 65.9879 8.0139C66.03 8.0647 66.0426 8.13668 66.0258 8.22982C65.9836 8.39917 65.9163 8.55583 65.8236 8.69978C65.7309 8.83526 65.5582 8.95804 65.3055 9.06812C65.0023 9.21207 64.7454 9.37296 64.5348 9.55078C64.3326 9.72013 64.1683 9.91912 64.042 10.1477C63.9156 10.3679 63.8272 10.6346 63.7766 10.9479C63.6419 11.6338 63.7219 12.1842 64.0167 12.5991C64.3115 13.0056 64.7622 13.2088 65.3687 13.2088C65.9584 13.2088 66.4722 12.9971 66.9102 12.5737C67.3567 12.1419 67.6473 11.5703 67.7821 10.859C67.9169 10.207 67.8748 9.69896 67.6557 9.33485C67.4367 8.96227 67.0745 8.77599 66.5691 8.77599C66.308 8.77599 66.0847 8.82679 65.8994 8.9284C65.7225 9.03002 65.5288 9.1655 65.3182 9.33485C65.1665 9.46187 65.0444 9.57618 64.9517 9.67779C64.8591 9.7794 64.7748 9.85985 64.699 9.91912C64.6316 9.96992 64.5432 9.99533 64.4337 9.99533C64.3158 9.99533 64.2231 9.95722 64.1557 9.88101C64.0967 9.79634 64.0841 9.66509 64.1178 9.48727C64.1515 9.29251 64.2484 9.09352 64.4084 8.8903C64.5769 8.68708 64.7791 8.50079 65.0149 8.33143C65.2592 8.15361 65.5203 8.0139 65.7983 7.91228C66.0763 7.80221 66.3501 7.74717 66.6196 7.74717C67.2261 7.74717 67.7189 7.89112 68.098 8.17902C68.477 8.45845 68.734 8.84796 68.8688 9.34755C69.0035 9.83868 69.0035 10.406 68.8688 11.0496C68.7508 11.6846 68.5234 12.2435 68.1864 12.7261C67.8495 13.2003 67.4367 13.5687 66.9482 13.8312C66.468 14.0937 65.9415 14.2249 65.3687 14.2249Z" fill="#7831B2"/>
<path d="M57.712 14.1995C57.5098 14.1995 57.3582 14.1064 57.2571 13.9201C57.1644 13.7338 57.1307 13.4755 57.156 13.1453C57.1644 13.0013 57.1897 12.8024 57.2318 12.5483C57.274 12.2943 57.3245 12.0106 57.3835 11.6973C57.4424 11.3756 57.5014 11.0538 57.5604 10.732C57.6277 10.4102 57.6867 10.1139 57.7373 9.84291C57.7962 9.57194 57.8425 9.35602 57.8762 9.19514C57.9605 8.75482 58.0742 8.43305 58.2174 8.22982C58.369 8.01813 58.588 7.89112 58.8745 7.84878C59.144 7.80644 59.4304 7.7768 59.7337 7.75987C60.0453 7.73446 60.3528 7.72176 60.6561 7.72176C60.8835 7.72176 61.1152 7.73023 61.351 7.74717C61.5869 7.75563 61.8059 7.77257 62.0081 7.79797C62.2102 7.82337 62.3703 7.86148 62.4882 7.91228C62.5893 7.95462 62.6609 8.01813 62.703 8.10281C62.7451 8.17902 62.7578 8.26369 62.7409 8.35684C62.7072 8.52619 62.6019 8.64897 62.425 8.72518C62.2481 8.80139 62.0586 8.83949 61.8564 8.83949C61.6795 8.83949 61.5195 8.83103 61.3763 8.81409C61.2331 8.79715 61.0772 8.78445 60.9088 8.77599C60.7403 8.75905 60.5171 8.75058 60.2391 8.75058C59.9021 8.75058 59.6157 8.76752 59.3799 8.80139C59.144 8.83526 58.8787 8.88606 58.5838 8.95381L59.203 8.54736C59.1356 8.76752 59.064 9.00885 58.9882 9.27134C58.9208 9.52537 58.8492 9.81327 58.7734 10.135C58.6976 10.4483 58.6217 10.804 58.5459 11.202C58.4617 11.6169 58.3943 12.0106 58.3438 12.3832C58.2932 12.7473 58.2553 13.0564 58.23 13.3104C58.2048 13.5644 58.1837 13.7296 58.1669 13.8058C58.1416 13.9413 58.0868 14.0386 58.0026 14.0979C57.9184 14.1656 57.8215 14.1995 57.712 14.1995Z" fill="#7831B2"/>
<path d="M52.5269 14.1995C51.8277 14.1995 51.2844 14.0725 50.8969 13.8185C50.5094 13.556 50.2567 13.2046 50.1388 12.7643C50.0208 12.3155 50.0166 11.8116 50.1261 11.2528C50.2188 10.8379 50.3788 10.4229 50.6063 10.008C50.8421 9.58465 51.1328 9.19937 51.4781 8.85219C51.8319 8.50502 52.2236 8.22982 52.6532 8.0266C53.0913 7.81491 53.5504 7.70906 54.0305 7.70906C54.696 7.70906 55.1846 7.86995 55.4962 8.19172C55.8163 8.51349 55.9132 8.98768 55.7868 9.61428C55.7026 10.08 55.4962 10.4738 55.1677 10.7955C54.8392 11.1088 54.4306 11.3502 53.9421 11.5195C53.4619 11.6889 52.9439 11.7735 52.3879 11.7735C51.8151 11.7735 51.4318 11.7058 51.2381 11.5703C51.0527 11.4348 50.9769 11.2824 51.0106 11.1131C51.0275 11.0114 51.0654 10.9395 51.1243 10.8971C51.1833 10.8463 51.276 10.8209 51.4023 10.8209C51.495 10.8209 51.6045 10.8379 51.7308 10.8717C51.8656 10.8971 52.0636 10.9098 52.3247 10.9098C52.7459 10.9098 53.125 10.8506 53.4619 10.732C53.8073 10.6135 54.0895 10.4526 54.3085 10.2494C54.5275 10.0377 54.6665 9.79634 54.7255 9.52537C54.776 9.27134 54.7423 9.08082 54.6244 8.95381C54.5149 8.82679 54.2959 8.76328 53.9673 8.76328C53.5377 8.76328 53.1292 8.8903 52.7417 9.14433C52.3542 9.39836 52.0173 9.73283 51.7308 10.1477C51.4529 10.5627 51.2675 11.0157 51.1749 11.5068C51.1159 11.8116 51.1117 12.0911 51.1622 12.3451C51.2128 12.5907 51.3391 12.7939 51.5413 12.9548C51.7519 13.1072 52.0509 13.1834 52.4384 13.1834C52.8765 13.1834 53.2513 13.1284 53.563 13.0183C53.8831 12.8997 54.1526 12.7643 54.3717 12.6118C54.5907 12.4594 54.776 12.3282 54.9276 12.2181C55.0793 12.108 55.214 12.053 55.332 12.053C55.4752 12.053 55.5763 12.108 55.6352 12.2181C55.7026 12.3197 55.7195 12.4552 55.6858 12.6245C55.6521 12.7939 55.5383 12.9717 55.3446 13.158C55.1593 13.3358 54.915 13.5052 54.6117 13.6661C54.3169 13.8269 53.9884 13.9582 53.6262 14.0598C53.2724 14.1529 52.9059 14.1995 52.5269 14.1995Z" fill="#7831B2"/>
<path d="M46.2711 14.1868C45.6478 14.1868 45.1339 14.064 44.7296 13.8185C44.3337 13.5644 44.0557 13.2173 43.8956 12.777C43.744 12.3282 43.7272 11.8116 43.8451 11.2274C43.9462 10.7278 44.1273 10.2663 44.3884 9.84291C44.658 9.41106 44.9865 9.03848 45.374 8.72518C45.7699 8.40341 46.1995 8.15361 46.6628 7.97579C47.1261 7.79797 47.6021 7.70906 48.0906 7.70906C48.3096 7.70906 48.5034 7.74293 48.6719 7.81067C48.8403 7.86995 48.9625 7.96309 49.0383 8.09011C49.1225 8.20865 49.1436 8.35684 49.1015 8.53466C49.0678 8.69554 49.0046 8.82256 48.9119 8.9157C48.8193 9.00038 48.7098 9.04272 48.5834 9.04272C48.4908 9.04272 48.4192 9.02578 48.3686 8.99191C48.3181 8.95804 48.2633 8.92417 48.2043 8.8903C48.1538 8.85643 48.0654 8.83949 47.939 8.83949C47.4589 8.83949 47.0082 8.96227 46.587 9.20784C46.1658 9.44493 45.8078 9.75823 45.513 10.1477C45.2266 10.5288 45.037 10.9395 44.9444 11.3798C44.8854 11.7354 44.8938 12.0445 44.9697 12.307C45.0539 12.561 45.2055 12.76 45.4245 12.904C45.652 13.0479 45.93 13.1199 46.2585 13.1199C46.6291 13.1199 46.9239 13.0776 47.143 12.9929C47.362 12.8997 47.5347 12.7981 47.661 12.688C47.7958 12.578 47.9053 12.4806 47.9895 12.3959C48.0738 12.3028 48.1707 12.2562 48.2802 12.2562C48.4402 12.2562 48.5497 12.2943 48.6087 12.3705C48.6761 12.4467 48.6929 12.578 48.6592 12.7643C48.6003 13.0437 48.4571 13.2935 48.2296 13.5136C48.0022 13.7253 47.7158 13.8904 47.3704 14.009C47.0335 14.1275 46.667 14.1868 46.2711 14.1868Z" fill="#7831B2"/>
<path d="M38.4896 14.2249C38.1274 14.2249 37.8199 14.1064 37.5672 13.8693C37.3229 13.6322 37.1334 13.3104 36.9986 12.904C36.8638 12.4975 36.788 12.0318 36.7712 11.5068C36.7628 10.9818 36.8175 10.4356 36.9354 9.86831C37.0028 9.52961 37.0702 9.2163 37.1376 8.9284C37.2134 8.6405 37.2977 8.35684 37.3903 8.0774C37.483 7.79797 37.5883 7.49737 37.7062 7.1756C37.8326 6.84536 37.98 6.46855 38.1485 6.04517C38.2074 5.89275 38.279 5.79114 38.3633 5.74033C38.4475 5.68106 38.557 5.65142 38.6918 5.65142C38.7929 5.65142 38.8813 5.69799 38.9571 5.79114C39.0329 5.87581 39.0751 5.99436 39.0835 6.14678C39.1003 6.2992 39.0708 6.47278 38.995 6.66754C38.8266 7.11633 38.6834 7.51007 38.5654 7.84878C38.4559 8.18748 38.359 8.51349 38.2748 8.82679C38.199 9.14009 38.1232 9.4788 38.0474 9.84291C37.9547 10.3086 37.8957 10.7362 37.8705 11.1258C37.8536 11.5153 37.8705 11.8624 37.921 12.1673C37.9716 12.4636 38.0474 12.6965 38.1485 12.8659C38.258 13.0267 38.397 13.1072 38.5654 13.1072C38.8181 13.1072 39.0835 13.0606 39.3615 12.9675C39.6394 12.8659 39.9006 12.7431 40.1449 12.5991C40.3976 12.4467 40.6124 12.2774 40.7893 12.0911C40.9662 11.9048 41.0673 11.7227 41.0925 11.5449C41.1178 11.4179 41.0588 11.2866 40.9156 11.1512C40.7809 11.0072 40.5745 10.876 40.2965 10.7574C40.0185 10.6389 39.69 10.5415 39.3109 10.4653C38.9403 10.3891 38.5359 10.3552 38.0979 10.3637C37.862 10.3721 37.6767 10.334 37.542 10.2494C37.4156 10.1647 37.3735 10.0165 37.4156 9.8048C37.4493 9.66932 37.5419 9.56348 37.6936 9.48727C37.8452 9.40259 38.1021 9.32215 38.4643 9.24594C38.776 9.18667 39.0961 9.10622 39.4246 9.00461C39.7616 8.903 40.0859 8.79292 40.3976 8.67437C40.7177 8.55583 41.0083 8.42881 41.2694 8.29333C41.5306 8.15785 41.7454 8.01813 41.9138 7.87418C42.0823 7.73023 42.1792 7.59475 42.2045 7.46773C42.2381 7.26451 42.1834 7.08669 42.0402 6.93427C41.9054 6.77339 41.699 6.6379 41.4211 6.52782C41.1515 6.41774 40.8272 6.33307 40.4481 6.27379C40.069 6.21452 39.6647 6.18488 39.2351 6.18488C38.9319 6.18488 38.637 6.18912 38.3506 6.19759C38.0726 6.19759 37.8663 6.19759 37.7315 6.19759C37.6135 6.19759 37.5167 6.15525 37.4409 6.07057C37.3651 5.97743 37.3398 5.86735 37.365 5.74033C37.4072 5.52017 37.5714 5.34659 37.8578 5.21957C38.1442 5.09256 38.5402 5.02905 39.0456 5.02905C39.7195 5.02905 40.3386 5.07985 40.903 5.18147C41.4758 5.28308 41.9602 5.43973 42.3561 5.65142C42.752 5.86311 43.0426 6.12984 43.2279 6.45161C43.4132 6.76492 43.4596 7.1375 43.3669 7.56935C43.3164 7.82338 43.1479 8.08587 42.8615 8.35684C42.5835 8.6278 42.1539 8.89453 41.5727 9.15703C40.9914 9.41953 40.2333 9.66509 39.2983 9.89371L39.3236 9.53807C39.9553 9.59735 40.4692 9.70743 40.8651 9.86831C41.2694 10.0207 41.5727 10.1986 41.7748 10.4018C41.9854 10.605 42.1202 10.8209 42.1792 11.0496C42.2466 11.2697 42.2592 11.4856 42.2171 11.6973C42.1497 12.053 41.9854 12.3832 41.7243 12.688C41.4716 12.9929 41.1599 13.2596 40.7893 13.4882C40.4186 13.7169 40.0311 13.8989 39.6268 14.0344C39.2309 14.1614 38.8518 14.2249 38.4896 14.2249Z" fill="#7831B2"/>
<path fill-rule="evenodd" clip-rule="evenodd" d="M8.50975 3.22399C5.71009 4.87776 3.5006 7.57996 2.512 10.9815C0.46778 18.0151 4.42326 25.3569 11.3319 27.3859C14.6734 28.3674 18.0979 27.9273 20.9741 26.4151C23.7738 24.7613 25.9833 22.0591 26.9719 18.6576C29.0161 11.624 25.0606 4.28222 18.152 2.25313C14.8105 1.27171 11.386 1.71177 8.50975 3.22399ZM7.83533 1.98975C11.1382 0.0494436 15.1801 -0.577214 19.1224 0.580674C26.7813 2.83011 31.1472 10.9579 28.8888 18.7284C27.7262 22.7288 25.0331 25.8594 21.6486 27.6493C18.3457 29.5896 14.3038 30.2163 10.3615 29.0584C2.7026 26.809 -1.66326 18.6811 0.595117 10.9107C1.75775 6.91033 4.45076 3.77965 7.83533 1.98975ZM19.9541 6.65145C19.9589 6.75082 19.9428 6.85291 19.903 6.95139L16.211 16.1009C15.7921 17.1391 14.3144 17.0561 14.0187 15.9852L11.2309 5.8882C11.1273 5.51326 11.3463 5.12316 11.7199 5.0169C11.8611 4.97674 12.0041 4.98287 12.1331 5.02626C12.3136 5.08652 12.4688 5.22017 12.5514 5.40892C13.9844 8.68442 14.8056 11.8343 15.2564 14.0196C15.7782 12.3545 16.4636 10.2593 17.1002 8.60282C17.4562 7.67635 17.8121 6.84663 18.1277 6.30603C18.2702 6.06195 18.4658 5.76506 18.7182 5.59083C18.8556 5.49593 19.1148 5.36638 19.4339 5.44445C19.7525 5.52241 19.9237 5.75675 20.0043 5.90942C20.1331 6.15337 20.1044 6.4399 19.9541 6.65145Z" fill="#7831B2"/>
<path fill-rule="evenodd" clip-rule="evenodd" d="M54.3515 31.0829C54.6982 31.2573 54.8386 31.6812 54.6651 32.0297C54.556 32.249 54.4474 32.4735 54.3398 32.7028C54.3387 32.7051 54.3376 32.7074 54.3366 32.7097C53.4131 34.678 52.5611 36.9951 52.0326 39.3574C51.4403 42.0051 51.2659 44.6589 51.8087 46.9291C52.1382 48.3077 52.731 49.5452 53.6654 50.5655C54.2619 51.1393 54.984 51.6481 55.8497 52.0774C57.321 52.8071 59.225 53.3157 61.6577 53.5059C63.1095 53.5501 64.7567 53.4551 66.6212 53.1939C72.8624 52.3195 78.6729 49.5933 84.2683 46.3775C86.5255 45.0802 88.7354 43.7108 90.923 42.3552C91.447 42.0305 91.9697 41.7066 92.4915 41.3846L92.4939 41.3831C94.9776 39.624 97.4277 37.8915 99.8573 36.381C104.843 33.2811 109.86 31.0383 115.111 31.431C120.393 31.8261 125.739 34.8708 131.422 41.9418L131.398 41.9612C131.634 42.2243 131.871 42.4939 132.108 42.7699L132.6 38.1118C132.641 37.7243 132.987 37.4435 133.372 37.4847C133.758 37.5258 134.037 37.8734 133.996 38.2609L133.329 44.5761C133.288 44.9636 132.942 45.2444 132.556 45.2032L126.274 44.5323C125.888 44.4912 125.609 44.1436 125.65 43.7561C125.691 43.3686 126.037 43.0878 126.422 43.129L130.979 43.6156C125.852 37.6614 121.024 35.0126 116.352 34.3813C111.325 33.7019 106.334 35.3368 101.137 38.0105C98.5547 39.3386 95.9431 40.9113 93.2662 42.5626C93.2383 42.5823 93.2104 42.6021 93.1825 42.6218L93.0889 42.6881C90.5302 44.5003 87.895 46.364 85.1651 48.0696C79.7072 51.4796 73.8107 54.2974 67.236 54.8512C65.1321 55.0284 63.2533 55.0441 61.5808 54.9154C58.9737 54.8322 56.8736 54.3235 55.2106 53.4683C54.191 52.944 53.3478 52.2956 52.6601 51.5517C51.4352 50.3607 50.6527 48.9252 50.2217 47.3518C49.5511 44.9034 49.7395 42.1578 50.3446 39.5164C50.9508 36.8709 51.9873 34.2769 53.0717 32.0972C53.1835 31.8591 53.2963 31.6259 53.4096 31.3982C53.5831 31.0497 54.0048 30.9085 54.3515 31.0829ZM111.779 32.9457C112.879 32.8215 113.983 32.7834 115.093 32.8451C115.064 32.8428 115.035 32.8405 115.007 32.8384C113.927 32.7577 112.853 32.7987 111.779 32.9457Z" fill="#7831B2"/>
</svg>
