<svg width="261" height="116" viewBox="0 0 261 116" fill="none" xmlns="http://www.w3.org/2000/svg">
<path fill-rule="evenodd" clip-rule="evenodd" d="M260.004 3.78106C260.376 4.05056 260.524 4.55073 260.333 4.98898L258.275 9.7208L256.986 13.1626C256.839 13.5558 256.471 13.8016 256.075 13.8118C255.867 13.8654 255.64 13.8525 255.428 13.7602C254.921 13.5399 254.689 12.9507 254.91 12.4443L256.42 8.97071L257.344 6.50506C256.391 6.89933 255.463 7.29548 254.558 7.6934C238.426 15.6666 229.465 23.4532 224.424 30.8568C219.572 38.9226 218.739 47.0697 217.928 55.0076C217.794 56.3135 217.661 57.6138 217.511 58.9072C217.275 65.3811 216.782 71.6479 212.767 77.2614C208.745 82.8849 201.322 87.6843 187.647 91.6283C184.148 92.6753 180.227 93.6335 175.829 94.4964C171.884 95.3055 167.293 95.6103 162.528 96.2831C162.144 96.3373 161.799 96.0405 161.799 95.6531V95.6531V95.6531C161.799 95.2303 162.109 94.8713 162.527 94.8082C162.564 94.8026 162.599 94.7974 162.63 94.7926C167.32 94.1837 171.557 93.2962 175.435 92.5356C179.775 91.6453 183.641 90.7021 187.084 89.7093C199.133 86.1027 205.818 81.4967 209.698 76.311C213.577 71.1272 214.76 65.23 215.516 58.7551C215.536 58.1876 215.555 57.6148 215.573 57.0369C215.84 48.7814 216.14 39.4953 222.739 29.7776C227.779 21.4254 236.856 13.2978 253.712 5.88061C254.656 5.41437 255.623 4.9478 256.615 4.48094L250.427 2.16349C249.91 1.96979 249.648 1.39349 249.841 0.876285C249.953 0.577235 250.193 0.363426 250.476 0.273706C250.758 0.00675136 251.183 -0.0815436 251.562 0.0832475L257.677 2.74313L259.557 3.44713C259.742 3.51632 259.894 3.63435 260.004 3.78106Z" fill="#FFD754"/>
<path d="M55.8348 94.6047C55.3188 94.6047 54.8808 94.4367 54.5208 94.1007C54.1728 93.7647 53.9028 93.3087 53.7108 92.7327C53.5188 92.1567 53.4108 91.4967 53.3868 90.7527C53.3748 90.0087 53.4528 89.2347 53.6208 88.4307C53.7168 87.9507 53.8128 87.5067 53.9088 87.0987C54.0168 86.6907 54.1368 86.2887 54.2688 85.8927C54.4008 85.4967 54.5508 85.0707 54.7188 84.6147C54.8988 84.1467 55.1088 83.6127 55.3488 83.0127C55.4328 82.7967 55.5348 82.6527 55.6548 82.5807C55.7748 82.4967 55.9308 82.4547 56.1228 82.4547C56.2668 82.4547 56.3928 82.5207 56.5008 82.6527C56.6088 82.7727 56.6688 82.9407 56.6808 83.1567C56.7048 83.3727 56.6628 83.6187 56.5548 83.8947C56.3148 84.5307 56.1108 85.0887 55.9428 85.5687C55.7868 86.0487 55.6488 86.5107 55.5288 86.9547C55.4208 87.3987 55.3128 87.8787 55.2048 88.3947C55.0728 89.0547 54.9888 89.6607 54.9528 90.2127C54.9288 90.7647 54.9528 91.2567 55.0248 91.6887C55.0968 92.1087 55.2048 92.4387 55.3488 92.6787C55.5048 92.9067 55.7028 93.0207 55.9428 93.0207C56.3028 93.0207 56.6808 92.9547 57.0768 92.8227C57.4728 92.6787 57.8448 92.5047 58.1928 92.3007C58.5528 92.0847 58.8588 91.8447 59.1108 91.5807C59.3628 91.3167 59.5068 91.0587 59.5428 90.8067C59.5788 90.6267 59.4948 90.4407 59.2908 90.2487C59.0988 90.0447 58.8048 89.8587 58.4088 89.6907C58.0128 89.5227 57.5448 89.3847 57.0048 89.2767C56.4768 89.1687 55.9008 89.1207 55.2768 89.1327C54.9408 89.1447 54.6768 89.0907 54.4848 88.9707C54.3048 88.8507 54.2448 88.6407 54.3048 88.3407C54.3528 88.1487 54.4848 87.9987 54.7008 87.8907C54.9168 87.7707 55.2828 87.6567 55.7988 87.5487C56.2428 87.4647 56.6988 87.3507 57.1668 87.2067C57.6468 87.0627 58.1088 86.9067 58.5528 86.7387C59.0088 86.5707 59.4228 86.3907 59.7948 86.1987C60.1668 86.0067 60.4728 85.8087 60.7128 85.6047C60.9528 85.4007 61.0908 85.2087 61.1268 85.0287C61.1748 84.7407 61.0968 84.4887 60.8928 84.2727C60.7008 84.0447 60.4068 83.8527 60.0108 83.6967C59.6268 83.5407 59.1648 83.4207 58.6248 83.3367C58.0848 83.2527 57.5088 83.2107 56.8968 83.2107C56.4648 83.2107 56.0448 83.2167 55.6368 83.2287C55.2408 83.2287 54.9468 83.2287 54.7548 83.2287C54.5868 83.2287 54.4488 83.1687 54.3408 83.0487C54.2328 82.9167 54.1968 82.7607 54.2328 82.5807C54.2928 82.2687 54.5268 82.0227 54.9348 81.8427C55.3428 81.6627 55.9068 81.5727 56.6268 81.5727C57.5868 81.5727 58.4688 81.6447 59.2728 81.7887C60.0888 81.9327 60.7788 82.1547 61.3428 82.4547C61.9068 82.7547 62.3208 83.1327 62.5848 83.5887C62.8488 84.0327 62.9148 84.5607 62.7828 85.1727C62.7108 85.5327 62.4708 85.9047 62.0628 86.2887C61.6668 86.6727 61.0548 87.0507 60.2268 87.4227C59.3988 87.7947 58.3188 88.1427 56.9868 88.4667L57.0228 87.9627C57.9228 88.0467 58.6548 88.2027 59.2188 88.4307C59.7948 88.6467 60.2268 88.8987 60.5148 89.1867C60.8148 89.4747 61.0068 89.7807 61.0908 90.1047C61.1868 90.4167 61.2048 90.7227 61.1448 91.0227C61.0488 91.5267 60.8148 91.9947 60.4428 92.4267C60.0828 92.8587 59.6388 93.2367 59.1108 93.5607C58.5828 93.8847 58.0308 94.1427 57.4548 94.3347C56.8908 94.5147 56.3508 94.6047 55.8348 94.6047Z" fill="#FFD754"/>
<path d="M66.92 94.5507C66.032 94.5507 65.3 94.3767 64.724 94.0287C64.16 93.6687 63.764 93.1767 63.536 92.5527C63.32 91.9167 63.296 91.1847 63.464 90.3567C63.608 89.6487 63.866 88.9947 64.238 88.3947C64.622 87.7827 65.09 87.2547 65.642 86.8107C66.206 86.3547 66.818 86.0007 67.478 85.7487C68.138 85.4967 68.816 85.3707 69.512 85.3707C69.824 85.3707 70.1 85.4187 70.34 85.5147C70.58 85.5987 70.754 85.7307 70.862 85.9107C70.982 86.0787 71.012 86.2887 70.952 86.5407C70.904 86.7687 70.814 86.9487 70.682 87.0807C70.55 87.2007 70.394 87.2607 70.214 87.2607C70.082 87.2607 69.98 87.2367 69.908 87.1887C69.836 87.1407 69.758 87.0927 69.674 87.0447C69.602 86.9967 69.476 86.9727 69.296 86.9727C68.612 86.9727 67.97 87.1467 67.37 87.4947C66.77 87.8307 66.26 88.2747 65.84 88.8267C65.432 89.3667 65.162 89.9487 65.03 90.5727C64.946 91.0767 64.958 91.5147 65.066 91.8867C65.186 92.2467 65.402 92.5287 65.714 92.7327C66.038 92.9367 66.434 93.0387 66.902 93.0387C67.43 93.0387 67.85 92.9787 68.162 92.8587C68.474 92.7267 68.72 92.5827 68.9 92.4267C69.092 92.2707 69.248 92.1327 69.368 92.0127C69.488 91.8807 69.626 91.8147 69.782 91.8147C70.01 91.8147 70.166 91.8687 70.25 91.9767C70.346 92.0847 70.37 92.2707 70.322 92.5347C70.238 92.9307 70.034 93.2847 69.71 93.5967C69.386 93.8967 68.978 94.1307 68.486 94.2987C68.006 94.4667 67.484 94.5507 66.92 94.5507Z" fill="#FFD754"/>
<path d="M75.8317 94.5687C74.8357 94.5687 74.0617 94.3887 73.5097 94.0287C72.9577 93.6567 72.5977 93.1587 72.4297 92.5347C72.2617 91.8987 72.2557 91.1847 72.4117 90.3927C72.5437 89.8047 72.7717 89.2167 73.0957 88.6287C73.4317 88.0287 73.8457 87.4827 74.3377 86.9907C74.8417 86.4987 75.3997 86.1087 76.0117 85.8207C76.6357 85.5207 77.2897 85.3707 77.9737 85.3707C78.9217 85.3707 79.6177 85.5987 80.0617 86.0547C80.5177 86.5107 80.6557 87.1827 80.4757 88.0707C80.3557 88.7307 80.0617 89.2887 79.5937 89.7447C79.1257 90.1887 78.5437 90.5307 77.8477 90.7707C77.1637 91.0107 76.4257 91.1307 75.6337 91.1307C74.8177 91.1307 74.2717 91.0347 73.9957 90.8427C73.7317 90.6507 73.6237 90.4347 73.6717 90.1947C73.6957 90.0507 73.7497 89.9487 73.8337 89.8887C73.9177 89.8167 74.0497 89.7807 74.2297 89.7807C74.3617 89.7807 74.5177 89.8047 74.6977 89.8527C74.8897 89.8887 75.1717 89.9067 75.5437 89.9067C76.1437 89.9067 76.6837 89.8227 77.1637 89.6547C77.6557 89.4867 78.0577 89.2587 78.3697 88.9707C78.6817 88.6707 78.8797 88.3287 78.9637 87.9447C79.0357 87.5847 78.9877 87.3147 78.8197 87.1347C78.6637 86.9547 78.3517 86.8647 77.8837 86.8647C77.2717 86.8647 76.6897 87.0447 76.1377 87.4047C75.5857 87.7647 75.1057 88.2387 74.6977 88.8267C74.3017 89.4147 74.0377 90.0567 73.9057 90.7527C73.8217 91.1847 73.8157 91.5807 73.8877 91.9407C73.9597 92.2887 74.1397 92.5767 74.4277 92.8047C74.7277 93.0207 75.1537 93.1287 75.7057 93.1287C76.3297 93.1287 76.8637 93.0507 77.3077 92.8947C77.7637 92.7267 78.1477 92.5347 78.4597 92.3187C78.7717 92.1027 79.0357 91.9167 79.2517 91.7607C79.4677 91.6047 79.6597 91.5267 79.8277 91.5267C80.0317 91.5267 80.1757 91.6047 80.2597 91.7607C80.3557 91.9047 80.3797 92.0967 80.3317 92.3367C80.2837 92.5767 80.1217 92.8287 79.8457 93.0927C79.5817 93.3447 79.2337 93.5847 78.8017 93.8127C78.3817 94.0407 77.9137 94.2267 77.3977 94.3707C76.8937 94.5027 76.3717 94.5687 75.8317 94.5687Z" fill="#FFD754"/>
<path d="M83.2182 94.5687C82.9302 94.5687 82.7142 94.4367 82.5702 94.1727C82.4382 93.9087 82.3902 93.5427 82.4262 93.0747C82.4382 92.8707 82.4742 92.5887 82.5342 92.2287C82.5942 91.8687 82.6662 91.4667 82.7502 91.0227C82.8342 90.5667 82.9182 90.1107 83.0022 89.6547C83.0982 89.1987 83.1822 88.7787 83.2542 88.3947C83.3382 88.0107 83.4042 87.7047 83.4522 87.4767C83.5722 86.8527 83.7342 86.3967 83.9382 86.1087C84.1542 85.8087 84.4662 85.6287 84.8742 85.5687C85.2582 85.5087 85.6662 85.4667 86.0982 85.4427C86.5422 85.4067 86.9802 85.3887 87.4122 85.3887C87.7362 85.3887 88.0662 85.4007 88.4022 85.4247C88.7382 85.4367 89.0502 85.4607 89.3382 85.4967C89.6262 85.5327 89.8542 85.5867 90.0222 85.6587C90.1662 85.7187 90.2682 85.8087 90.3282 85.9287C90.3882 86.0367 90.4062 86.1567 90.3822 86.2887C90.3342 86.5287 90.1842 86.7027 89.9322 86.8107C89.6802 86.9187 89.4102 86.9727 89.1222 86.9727C88.8702 86.9727 88.6422 86.9607 88.4382 86.9367C88.2342 86.9127 88.0122 86.8947 87.7722 86.8827C87.5322 86.8587 87.2142 86.8467 86.8182 86.8467C86.3382 86.8467 85.9302 86.8707 85.5942 86.9187C85.2582 86.9667 84.8802 87.0387 84.4602 87.1347L85.3422 86.5587C85.2462 86.8707 85.1442 87.2127 85.0362 87.5847C84.9402 87.9447 84.8382 88.3527 84.7302 88.8087C84.6222 89.2527 84.5142 89.7567 84.4062 90.3207C84.2862 90.9087 84.1902 91.4667 84.1182 91.9947C84.0462 92.5107 83.9922 92.9487 83.9562 93.3087C83.9202 93.6687 83.8902 93.9027 83.8662 94.0107C83.8302 94.2027 83.7522 94.3407 83.6322 94.4247C83.5122 94.5207 83.3742 94.5687 83.2182 94.5687Z" fill="#FFD754"/>
<path d="M94.1256 94.6047C93.1416 94.6047 92.3316 94.3887 91.6956 93.9567C91.0716 93.5247 90.6396 92.9427 90.3996 92.2107C90.1716 91.4667 90.1476 90.6207 90.3276 89.6727C90.4596 89.0007 90.6876 88.4127 91.0116 87.9087C91.3476 87.3927 91.7196 86.9607 92.1276 86.6127C92.5476 86.2647 92.9676 86.0067 93.3876 85.8387C93.8076 85.6587 94.1676 85.5687 94.4676 85.5687C94.5996 85.5687 94.7076 85.5867 94.7916 85.6227C94.8876 85.6587 94.9596 85.7187 95.0076 85.8027C95.0676 85.8747 95.0856 85.9767 95.0616 86.1087C95.0016 86.3487 94.9056 86.5707 94.7736 86.7747C94.6416 86.9667 94.3956 87.1407 94.0356 87.2967C93.6036 87.5007 93.2376 87.7287 92.9376 87.9807C92.6496 88.2207 92.4156 88.5027 92.2356 88.8267C92.0556 89.1387 91.9296 89.5167 91.8576 89.9607C91.6656 90.9327 91.7796 91.7127 92.1996 92.3007C92.6196 92.8767 93.2616 93.1647 94.1256 93.1647C94.9656 93.1647 95.6976 92.8647 96.3216 92.2647C96.9576 91.6527 97.3716 90.8427 97.5636 89.8347C97.7556 88.9107 97.6956 88.1907 97.3836 87.6747C97.0716 87.1467 96.5556 86.8827 95.8356 86.8827C95.4636 86.8827 95.1456 86.9547 94.8816 87.0987C94.6296 87.2427 94.3536 87.4347 94.0536 87.6747C93.8376 87.8547 93.6636 88.0167 93.5316 88.1607C93.3996 88.3047 93.2796 88.4187 93.1716 88.5027C93.0756 88.5747 92.9496 88.6107 92.7936 88.6107C92.6256 88.6107 92.4936 88.5567 92.3976 88.4487C92.3136 88.3287 92.2956 88.1427 92.3436 87.8907C92.3916 87.6147 92.5296 87.3327 92.7576 87.0447C92.9976 86.7567 93.2856 86.4927 93.6216 86.2527C93.9696 86.0007 94.3416 85.8027 94.7376 85.6587C95.1336 85.5027 95.5236 85.4247 95.9076 85.4247C96.7716 85.4247 97.4736 85.6287 98.0136 86.0367C98.5536 86.4327 98.9196 86.9847 99.1116 87.6927C99.3036 88.3887 99.3036 89.1927 99.1116 90.1047C98.9436 91.0047 98.6196 91.7967 98.1396 92.4807C97.6596 93.1527 97.0716 93.6747 96.3756 94.0467C95.6916 94.4187 94.9416 94.6047 94.1256 94.6047Z" fill="#FFD754"/>
<path d="M54.4488 110.749C53.8848 110.749 53.4828 110.629 53.2428 110.389C53.0148 110.161 52.9488 109.819 53.0448 109.363C53.0808 109.171 53.1528 109.003 53.2608 108.859C53.3688 108.715 53.5008 108.601 53.6568 108.517C55.0848 107.713 56.2968 106.975 57.2928 106.303C58.2888 105.619 59.1048 104.983 59.7408 104.395C60.3768 103.795 60.8628 103.231 61.1988 102.703C61.5348 102.163 61.7508 101.653 61.8468 101.173C61.9788 100.537 61.9068 100.039 61.6308 99.6787C61.3548 99.3067 60.8508 99.1207 60.1188 99.1207C59.5068 99.1207 58.9608 99.1927 58.4808 99.3367C58.0128 99.4807 57.5928 99.6487 57.2208 99.8407C56.8608 100.033 56.5548 100.201 56.3028 100.345C56.0508 100.489 55.8468 100.561 55.6908 100.561C55.4628 100.561 55.2888 100.489 55.1688 100.345C55.0608 100.189 55.0248 100.009 55.0608 99.8047C55.0968 99.6607 55.1568 99.5287 55.2408 99.4087C55.3248 99.2887 55.4688 99.1627 55.6728 99.0307C56.3568 98.5867 57.1068 98.2327 57.9228 97.9687C58.7508 97.6927 59.5668 97.5547 60.3708 97.5547C61.2948 97.5547 61.9968 97.7227 62.4768 98.0587C62.9688 98.3827 63.2808 98.8327 63.4128 99.4087C63.5568 99.9847 63.5568 100.627 63.4128 101.335C63.3048 101.875 63.0828 102.451 62.7468 103.063C62.4228 103.675 61.9308 104.317 61.2708 104.989C60.6108 105.661 59.7348 106.375 58.6428 107.131C57.5628 107.875 56.2188 108.667 54.6108 109.507L54.3948 108.967C54.5508 109.051 54.7128 109.105 54.8808 109.129C55.0608 109.153 55.2468 109.165 55.4388 109.165C55.8828 109.165 56.4048 109.135 57.0048 109.075C57.6048 109.015 58.2588 108.955 58.9668 108.895C59.6868 108.835 60.4308 108.805 61.1988 108.805C61.7868 108.805 62.1588 108.907 62.3148 109.111C62.4828 109.303 62.5428 109.513 62.4948 109.741C62.4588 109.945 62.3508 110.107 62.1708 110.227C62.0028 110.335 61.7508 110.389 61.4148 110.389C60.5148 110.389 59.7228 110.407 59.0388 110.443C58.3548 110.479 57.7428 110.521 57.2028 110.569C56.6628 110.617 56.1708 110.659 55.7268 110.695C55.2828 110.731 54.8568 110.749 54.4488 110.749Z" fill="#FFD754"/>
<path d="M72.0351 110.587C71.7471 110.587 71.5311 110.419 71.3871 110.083C71.2431 109.747 71.2371 109.243 71.3691 108.571C71.4291 108.247 71.5431 107.755 71.7111 107.095C71.8791 106.423 72.1371 105.703 72.4851 104.935C72.8931 104.023 73.2591 103.303 73.5831 102.775C73.9071 102.235 74.2251 101.845 74.5371 101.605C74.8491 101.365 75.1671 101.245 75.4911 101.245C75.7431 101.245 75.9351 101.347 76.0671 101.551C76.2111 101.755 76.3131 102.001 76.3731 102.289C76.4331 102.577 76.4811 102.865 76.5171 103.153C76.5651 103.537 76.6251 103.963 76.6971 104.431C76.7811 104.899 76.8711 105.373 76.9671 105.853C77.0751 106.333 77.1951 106.789 77.3271 107.221C77.4711 107.653 77.6331 108.019 77.8131 108.319L77.1651 108.463C77.5131 107.779 77.8851 107.095 78.2811 106.411C78.6771 105.727 79.0731 105.073 79.4691 104.449C79.8651 103.825 80.2371 103.267 80.5851 102.775C80.9691 102.259 81.2931 101.893 81.5571 101.677C81.8331 101.461 82.0791 101.353 82.2951 101.353C82.4511 101.353 82.5951 101.389 82.7271 101.461C82.8591 101.521 82.9731 101.593 83.0691 101.677C83.2011 101.809 83.3031 101.971 83.3751 102.163C83.4471 102.355 83.4591 102.643 83.4111 103.027C83.3031 103.891 83.2311 104.671 83.1951 105.367C83.1711 106.051 83.1651 106.627 83.1771 107.095C83.1891 107.923 83.2491 108.583 83.3571 109.075C83.4771 109.567 83.5191 109.885 83.4831 110.029C83.4591 110.185 83.3751 110.311 83.2311 110.407C83.0991 110.515 82.9371 110.569 82.7451 110.569C82.4571 110.569 82.2171 110.431 82.0251 110.155C81.8451 109.879 81.7311 109.507 81.6831 109.039C81.6351 108.607 81.5991 108.061 81.5751 107.401C81.5631 106.741 81.5811 106.003 81.6291 105.187C81.6891 104.359 81.7851 103.507 81.9171 102.631L82.4391 102.505C82.1511 102.925 81.8271 103.405 81.4671 103.945C81.1191 104.473 80.7591 105.025 80.3871 105.601C80.0271 106.177 79.6791 106.747 79.3431 107.311C79.0191 107.875 78.7311 108.409 78.4791 108.913C78.3471 109.141 78.1911 109.321 78.0111 109.453C77.8431 109.585 77.6451 109.651 77.4171 109.651C77.1291 109.651 76.8891 109.585 76.6971 109.453C76.5171 109.309 76.3611 109.117 76.2291 108.877C76.1091 108.625 76.0011 108.349 75.9051 108.049C75.8571 107.881 75.7911 107.647 75.7071 107.347C75.6231 107.035 75.5391 106.687 75.4551 106.303C75.3711 105.919 75.2931 105.511 75.2211 105.079C75.1491 104.647 75.0891 104.221 75.0411 103.801C74.9931 103.369 74.9691 102.967 74.9691 102.595L75.5091 102.451C75.1011 103.039 74.7411 103.615 74.4291 104.179C74.1291 104.743 73.8711 105.325 73.6551 105.925C73.4511 106.513 73.2771 107.149 73.1331 107.833C73.0371 108.301 72.9651 108.709 72.9171 109.057C72.8811 109.405 72.8451 109.669 72.8091 109.849C72.7611 110.053 72.6771 110.227 72.5571 110.371C72.4371 110.515 72.2631 110.587 72.0351 110.587Z" fill="#FFD754"/>
<path d="M87.3739 110.587C86.9659 110.587 86.6419 110.491 86.4019 110.299C86.1739 110.107 86.0059 109.855 85.8979 109.543C85.7899 109.219 85.7359 108.871 85.7359 108.499C85.7479 108.115 85.7899 107.743 85.8619 107.383C85.9339 107.071 86.0299 106.699 86.1499 106.267C86.2819 105.835 86.4259 105.385 86.5819 104.917C86.7379 104.449 86.8879 104.011 87.0319 103.603C87.1879 103.195 87.3139 102.877 87.4099 102.649C87.5659 102.229 87.7039 101.905 87.8239 101.677C87.9559 101.449 88.1119 101.335 88.2919 101.335C88.4479 101.335 88.5919 101.389 88.7239 101.497C88.8559 101.605 88.9519 101.743 89.0119 101.911C89.0839 102.079 89.1019 102.265 89.0659 102.469C89.0299 102.661 88.9459 102.937 88.8139 103.297C88.6819 103.657 88.5319 104.059 88.3639 104.503C88.1959 104.947 88.0339 105.397 87.8779 105.853C87.7219 106.297 87.6079 106.699 87.5359 107.059C87.4639 107.383 87.4159 107.695 87.3919 107.995C87.3679 108.283 87.3799 108.523 87.4279 108.715C87.4759 108.895 87.5779 108.985 87.7339 108.985C88.1179 108.985 88.6039 108.643 89.1919 107.959C89.7919 107.275 90.4579 106.333 91.1899 105.133C91.5259 104.605 91.8199 104.113 92.0719 103.657C92.3239 103.201 92.5459 102.805 92.7379 102.469C92.9299 102.121 93.1159 101.851 93.2959 101.659C93.4759 101.467 93.6559 101.371 93.8359 101.371C94.1119 101.371 94.3099 101.479 94.4299 101.695C94.5619 101.899 94.6219 102.175 94.6099 102.523C94.6099 102.835 94.5979 103.219 94.5739 103.675C94.5619 104.131 94.5499 104.599 94.5379 105.079C94.5259 105.547 94.5259 105.985 94.5379 106.393C94.5739 107.089 94.6399 107.659 94.7359 108.103C94.8439 108.535 94.9399 108.883 95.0239 109.147C95.1079 109.411 95.1439 109.627 95.1319 109.795C95.1199 109.927 95.0779 110.053 95.0059 110.173C94.9339 110.281 94.8439 110.371 94.7359 110.443C94.6279 110.515 94.5079 110.551 94.3759 110.551C94.0999 110.551 93.8719 110.425 93.6919 110.173C93.5239 109.921 93.3919 109.567 93.2959 109.111C93.1999 108.655 93.1219 108.121 93.0619 107.509C93.0379 107.077 93.0139 106.615 92.9899 106.123C92.9779 105.631 92.9779 105.139 92.9899 104.647C93.0139 104.155 93.0379 103.699 93.0619 103.279L93.5839 103.459C93.4399 103.735 93.2839 104.029 93.1159 104.341C92.9599 104.653 92.7679 105.007 92.5399 105.403C92.3239 105.787 92.0539 106.243 91.7299 106.771C91.3219 107.419 90.8779 108.037 90.3979 108.625C89.9179 109.201 89.4199 109.675 88.9039 110.047C88.3999 110.407 87.8899 110.587 87.3739 110.587Z" fill="#FFD754"/>
<path d="M98.1282 110.587C97.6962 110.587 97.4082 110.311 97.2642 109.759C97.1202 109.207 97.1382 108.475 97.3182 107.563C97.4622 106.927 97.6242 106.447 97.8042 106.123C97.9962 105.787 98.2122 105.559 98.4522 105.439C98.5842 105.367 98.7702 105.325 99.0102 105.313C99.2502 105.289 99.5022 105.277 99.7662 105.277C100.642 105.277 101.506 105.235 102.358 105.151C103.222 105.055 104.068 104.875 104.896 104.611L105.22 105.853C104.596 106.093 103.924 106.273 103.204 106.393C102.484 106.513 101.752 106.597 101.008 106.645C100.276 106.681 99.5622 106.699 98.8662 106.699L97.8222 106.537C97.9782 105.829 98.1402 105.085 98.3082 104.305C98.4762 103.525 98.6202 102.829 98.7402 102.217C98.7882 101.929 98.8842 101.695 99.0282 101.515C99.1722 101.335 99.3342 101.245 99.5142 101.245C99.8142 101.245 100.036 101.365 100.18 101.605C100.324 101.833 100.342 102.199 100.234 102.703C100.186 102.967 100.114 103.285 100.018 103.657C99.9222 104.029 99.8202 104.419 99.7122 104.827C99.6162 105.235 99.5202 105.625 99.4242 105.997C99.3402 106.357 99.2742 106.657 99.2262 106.897C99.0822 107.593 98.9742 108.217 98.9022 108.769C98.8422 109.309 98.7882 109.717 98.7402 109.993C98.7042 110.161 98.6262 110.299 98.5062 110.407C98.3982 110.527 98.2722 110.587 98.1282 110.587ZM104.338 110.587C104.038 110.587 103.822 110.413 103.69 110.065C103.57 109.717 103.516 109.243 103.528 108.643C103.552 108.031 103.636 107.359 103.78 106.627C104.02 105.475 104.23 104.563 104.41 103.891C104.602 103.207 104.776 102.667 104.932 102.271C105.028 102.007 105.148 101.773 105.292 101.569C105.436 101.365 105.61 101.263 105.814 101.263C106.078 101.263 106.264 101.389 106.372 101.641C106.492 101.881 106.516 102.175 106.444 102.523C106.36 102.955 106.228 103.423 106.048 103.927C105.88 104.431 105.742 104.977 105.634 105.565C105.49 106.285 105.388 106.939 105.328 107.527C105.28 108.103 105.25 108.589 105.238 108.985C105.226 109.381 105.196 109.675 105.148 109.867C105.112 110.083 105.016 110.257 104.86 110.389C104.704 110.521 104.53 110.587 104.338 110.587Z" fill="#FFD754"/>
<path d="M110.599 115.087C109.867 115.087 109.249 115.015 108.745 114.871C108.241 114.739 107.875 114.553 107.647 114.313C107.419 114.073 107.335 113.815 107.395 113.539C107.431 113.347 107.509 113.191 107.629 113.071C107.761 112.963 107.941 112.909 108.169 112.909C108.313 112.909 108.445 112.939 108.565 112.999C108.685 113.059 108.823 113.125 108.979 113.197C109.135 113.281 109.351 113.353 109.627 113.413C109.915 113.473 110.293 113.503 110.761 113.503C111.337 113.503 111.817 113.377 112.201 113.125C112.585 112.873 112.891 112.519 113.119 112.063C113.359 111.607 113.539 111.079 113.659 110.479C113.731 110.131 113.779 109.789 113.803 109.453C113.839 109.117 113.875 108.757 113.911 108.373C113.947 107.989 113.995 107.545 114.055 107.041C114.115 106.525 114.211 105.919 114.343 105.223L114.901 105.745C114.517 106.573 114.133 107.251 113.749 107.779C113.365 108.295 112.993 108.697 112.633 108.985C112.273 109.261 111.931 109.453 111.607 109.561C111.295 109.657 111.013 109.705 110.761 109.705C109.717 109.705 108.991 109.273 108.583 108.409C108.175 107.533 108.163 106.135 108.547 104.215C108.703 103.411 108.859 102.805 109.015 102.397C109.183 101.989 109.357 101.713 109.537 101.569C109.717 101.425 109.903 101.353 110.095 101.353C110.275 101.353 110.419 101.401 110.527 101.497C110.635 101.581 110.689 101.725 110.689 101.929C110.701 102.133 110.659 102.409 110.563 102.757C110.371 103.513 110.221 104.221 110.113 104.881C110.005 105.529 109.957 106.099 109.969 106.591C109.981 107.083 110.059 107.467 110.203 107.743C110.347 108.007 110.581 108.139 110.905 108.139C111.409 108.139 111.901 107.881 112.381 107.365C112.861 106.837 113.311 106.129 113.731 105.241C114.163 104.341 114.553 103.333 114.901 102.217C115.009 101.881 115.117 101.659 115.225 101.551C115.333 101.431 115.501 101.371 115.729 101.371C115.897 101.371 116.047 101.425 116.179 101.533C116.323 101.641 116.407 101.833 116.431 102.109C116.467 102.373 116.413 102.733 116.269 103.189C116.089 103.801 115.951 104.347 115.855 104.827C115.771 105.307 115.711 105.769 115.675 106.213C115.639 106.645 115.609 107.089 115.585 107.545C115.573 107.989 115.537 108.481 115.477 109.021C115.417 109.549 115.321 110.161 115.189 110.857C115.033 111.661 114.805 112.333 114.505 112.873C114.205 113.425 113.857 113.863 113.461 114.187C113.065 114.511 112.621 114.739 112.129 114.871C111.649 115.015 111.139 115.087 110.599 115.087Z" fill="#FFD754"/>
<path d="M118.587 103.297C118.311 103.297 118.095 103.213 117.939 103.045C117.795 102.877 117.747 102.685 117.795 102.469C117.831 102.337 117.903 102.223 118.011 102.127C118.119 102.031 118.311 101.947 118.587 101.875C119.019 101.755 119.595 101.647 120.315 101.551C121.047 101.455 121.899 101.407 122.871 101.407C123.375 101.407 123.837 101.419 124.257 101.443C124.689 101.455 125.163 101.497 125.679 101.569C126.087 101.617 126.399 101.713 126.615 101.857C126.843 102.001 126.939 102.163 126.903 102.343C126.879 102.475 126.825 102.595 126.741 102.703C126.669 102.799 126.561 102.877 126.417 102.937C126.285 102.997 126.117 103.027 125.913 103.027C125.661 103.027 125.367 103.015 125.031 102.991C124.695 102.967 124.335 102.943 123.951 102.919C123.579 102.883 123.195 102.865 122.799 102.865C121.971 102.865 121.305 102.901 120.801 102.973C120.297 103.033 119.877 103.105 119.541 103.189C119.205 103.261 118.887 103.297 118.587 103.297ZM121.197 110.605C120.933 110.605 120.735 110.497 120.603 110.281C120.483 110.065 120.399 109.789 120.351 109.453C120.327 109.201 120.327 108.859 120.351 108.427C120.387 107.983 120.447 107.503 120.531 106.987C120.615 106.459 120.705 105.949 120.801 105.457C120.933 104.797 121.047 104.215 121.143 103.711C121.251 103.195 121.335 102.769 121.395 102.433L123.015 102.325C122.967 102.529 122.907 102.787 122.835 103.099C122.775 103.399 122.709 103.741 122.637 104.125C122.565 104.497 122.487 104.881 122.403 105.277C122.331 105.661 122.259 106.033 122.187 106.393C122.067 106.993 121.989 107.497 121.953 107.905C121.929 108.301 121.923 108.625 121.935 108.877C121.947 109.129 121.959 109.339 121.971 109.507C121.983 109.663 121.977 109.807 121.953 109.939C121.929 110.071 121.881 110.191 121.809 110.299C121.737 110.395 121.647 110.467 121.539 110.515C121.431 110.575 121.317 110.605 121.197 110.605Z" fill="#FFD754"/>
<path d="M129.418 110.605C128.854 110.605 128.392 110.467 128.032 110.191C127.672 109.915 127.426 109.537 127.294 109.057C127.162 108.565 127.156 107.995 127.276 107.347C127.432 106.543 127.582 105.775 127.726 105.043C127.87 104.299 127.99 103.663 128.086 103.135C128.194 102.607 128.266 102.259 128.302 102.091C128.326 101.947 128.374 101.815 128.446 101.695C128.53 101.575 128.632 101.479 128.752 101.407C128.872 101.335 128.998 101.299 129.13 101.299C129.406 101.299 129.61 101.437 129.742 101.713C129.886 101.989 129.928 102.307 129.868 102.667C129.796 103.003 129.694 103.405 129.562 103.873C129.442 104.341 129.346 104.785 129.274 105.205C129.238 105.349 129.19 105.541 129.13 105.781C129.082 106.009 129.028 106.243 128.968 106.483C128.92 106.711 128.878 106.909 128.842 107.077C128.71 107.713 128.71 108.211 128.842 108.571C128.974 108.931 129.244 109.111 129.652 109.111C129.88 109.111 130.132 109.051 130.408 108.931C130.696 108.811 130.972 108.655 131.236 108.463C131.5 108.259 131.722 108.043 131.902 107.815C132.082 107.587 132.172 107.371 132.172 107.167C132.184 106.855 132.1 106.603 131.92 106.411C131.752 106.219 131.506 106.063 131.182 105.943C131.002 105.859 130.768 105.781 130.48 105.709C130.192 105.637 129.886 105.571 129.562 105.511C129.238 105.439 128.926 105.391 128.626 105.367L128.932 104.197C129.364 104.125 129.85 104.023 130.39 103.891C130.942 103.759 131.512 103.603 132.1 103.423C132.688 103.243 133.252 103.057 133.792 102.865C134.404 102.649 134.944 102.427 135.412 102.199C135.892 101.971 136.3 101.779 136.636 101.623C136.984 101.455 137.266 101.371 137.482 101.371C137.854 101.371 138.136 101.497 138.328 101.749C138.532 101.989 138.592 102.313 138.508 102.721C138.424 103.105 138.34 103.483 138.256 103.855C138.184 104.215 138.106 104.587 138.022 104.971C137.962 105.283 137.896 105.649 137.824 106.069C137.752 106.477 137.686 106.897 137.626 107.329C137.566 107.761 137.524 108.157 137.5 108.517C137.5 108.757 137.494 109.021 137.482 109.309C137.482 109.585 137.47 109.789 137.446 109.921C137.422 110.053 137.368 110.173 137.284 110.281C137.212 110.377 137.116 110.449 136.996 110.497C136.888 110.557 136.768 110.587 136.636 110.587C136.384 110.587 136.192 110.467 136.06 110.227C135.94 109.975 135.874 109.675 135.862 109.327C135.862 108.727 135.898 108.127 135.97 107.527C136.042 106.915 136.138 106.297 136.258 105.673C136.318 105.409 136.378 105.115 136.438 104.791C136.51 104.467 136.582 104.149 136.654 103.837C136.726 103.525 136.786 103.249 136.834 103.009C136.894 102.757 136.936 102.577 136.96 102.469L137.32 102.847C137.044 103.003 136.684 103.177 136.24 103.369C135.808 103.549 135.316 103.735 134.764 103.927C134.212 104.107 133.636 104.287 133.036 104.467C132.436 104.647 131.83 104.815 131.218 104.971C130.618 105.115 130.042 105.229 129.49 105.313L129.67 104.665C129.766 104.653 129.91 104.641 130.102 104.629C130.306 104.605 130.54 104.593 130.804 104.593C130.948 104.593 131.146 104.617 131.398 104.665C131.662 104.713 131.932 104.791 132.208 104.899C132.496 105.007 132.766 105.157 133.018 105.349C133.282 105.529 133.486 105.757 133.63 106.033C133.786 106.309 133.858 106.633 133.846 107.005C133.822 107.473 133.66 107.923 133.36 108.355C133.072 108.787 132.706 109.171 132.262 109.507C131.818 109.843 131.344 110.113 130.84 110.317C130.336 110.509 129.862 110.605 129.418 110.605Z" fill="#FFD754"/>
<path fill-rule="evenodd" clip-rule="evenodd" d="M12.1226 78.0147C8.13435 80.3584 4.9868 84.1878 3.57849 89.0083C0.666379 98.9761 6.30119 109.38 16.1429 112.256C20.9031 113.647 25.7814 113.023 29.8788 110.88C33.8671 108.537 37.0147 104.707 38.423 99.8866C41.3351 89.9188 35.7003 79.5144 25.8585 76.6389C21.0983 75.248 16.22 75.8717 12.1226 78.0147ZM11.1619 76.2656C15.867 73.5159 21.6249 72.6278 27.241 74.2687C38.1515 77.4565 44.3709 88.9749 41.1537 99.987C39.4975 105.656 35.6611 110.093 30.8396 112.629C26.1344 115.379 20.3766 116.267 14.7605 114.626C3.85 111.438 -2.3694 99.92 0.847777 88.908C2.50402 83.2388 6.34036 78.8022 11.1619 76.2656ZM28.4257 82.872C28.4326 83.0128 28.4096 83.1575 28.353 83.297L23.0935 96.2634C22.4967 97.7347 20.3917 97.617 19.9705 96.0994L15.999 81.7903C15.8515 81.259 16.1634 80.7062 16.6956 80.5556C16.8968 80.4987 17.1006 80.5073 17.2843 80.5688C17.5415 80.6542 17.7626 80.8436 17.8802 81.1111C19.9216 85.753 21.0914 90.217 21.7336 93.3139C22.4769 90.954 23.4533 87.9849 24.3601 85.6374C24.8673 84.3244 25.3743 83.1486 25.8239 82.3825C26.0269 82.0366 26.3055 81.6158 26.6651 81.3689C26.8609 81.2344 27.2301 81.0508 27.6846 81.1615C28.1385 81.272 28.3824 81.6041 28.4972 81.8204C28.6807 82.1661 28.6398 82.5722 28.4257 82.872Z" fill="#FFD754"/>
</svg>
