<svg width="92" height="102" viewBox="0 0 92 102" fill="none" xmlns="http://www.w3.org/2000/svg">
<g id="Vector">
<path fill-rule="evenodd" clip-rule="evenodd" d="M53.1016 83.9045C53.0369 83.9217 52.9718 83.9387 52.9063 83.9554C43.1262 86.4593 36.4113 89.5381 31.9809 92.4565C28.1467 94.9822 25.9734 97.4222 25.0501 99.3039L23.1241 95.59C22.9515 95.2571 22.5378 95.1251 22.2 95.2953C21.8623 95.4655 21.7285 95.8733 21.9011 96.2062L24.7143 101.631C24.8869 101.964 25.3006 102.096 25.6383 101.926L31.1417 99.1527C31.4794 98.9825 31.6132 98.5747 31.4406 98.2418C31.268 97.9089 30.8543 97.777 30.5166 97.9472L26.8724 99.7834C27.8959 98.2284 29.7496 96.2098 32.7423 94.071C37.0253 91.0101 43.5951 87.738 53.2516 85.2659C53.3212 85.248 53.3905 85.2299 53.4595 85.2116C58.4263 83.8905 61.7087 81.2191 63.6971 77.7368C65.673 74.2764 66.3403 70.071 66.2042 65.7071C65.9324 56.9877 62.4453 47.4122 59.3178 41.247C59.2634 41.1398 59.1841 41.053 59.0901 40.9901C59.0831 40.9762 59.0761 40.9624 59.0691 40.9486C58.8995 40.6142 58.487 40.4787 58.1477 40.6459C57.8085 40.8131 57.671 41.2197 57.8407 41.5541C60.921 47.6264 64.382 57.0779 64.7066 65.6033C64.8687 69.8623 64.2458 73.8329 62.4576 77.0305C60.6831 80.2036 57.7318 82.6706 53.1084 83.9027C53.1062 83.9033 53.1039 83.9039 53.1016 83.9045Z" fill="#7831B2"/>
<path d="M9.24496 29.8321C9.01252 29.8829 8.82238 29.8261 8.67454 29.6618C8.52435 29.487 8.35543 29.1797 8.16778 28.74C8.00944 28.3812 7.84703 27.9305 7.68055 27.3877C7.52463 26.8426 7.37753 26.2629 7.23924 25.6484C7.10918 25.0212 7.00317 24.427 6.92121 23.8657C6.83225 23.1749 6.74972 22.5865 6.6736 22.1004C6.60805 21.6121 6.53306 21.2297 6.44865 20.9531C6.37246 20.6638 6.27686 20.4607 6.16187 20.3438C6.04688 20.2269 5.89429 20.1892 5.70411 20.2308C5.41884 20.2932 5.10472 20.5969 4.76175 21.1418C4.427 21.6739 4.09218 22.4028 3.75729 23.3284C3.42239 24.254 3.11854 25.3422 2.84574 26.593C2.57059 27.8334 2.35644 29.197 2.20328 30.6839C2.1762 30.9083 2.11744 31.0906 2.027 31.2306C1.93422 31.3601 1.80858 31.4422 1.6501 31.4769C1.40709 31.5301 1.21518 31.4901 1.07437 31.357C0.931215 31.2134 0.855023 30.9241 0.845795 30.4891C0.836641 29.8573 0.881486 29.2191 0.980331 28.5746C1.0874 27.9174 1.2156 27.2556 1.36493 26.5891C1.51191 25.9122 1.64305 25.2388 1.75834 24.5689C1.88419 23.8966 1.9625 23.2347 1.99326 22.5833C1.99334 22.3866 2.0292 22.2257 2.10085 22.1008C2.18073 21.9631 2.29462 21.8781 2.44254 21.8457C2.59046 21.8134 2.7319 21.8262 2.86687 21.8841C3.01241 21.9396 3.14208 22.0479 3.25588 22.2088L2.69232 22.5123C3.13763 21.3877 3.58226 20.531 4.02619 19.9422C4.4807 19.351 4.98794 18.9942 5.54791 18.8717C6.16071 18.7377 6.63374 18.82 6.96701 19.1186C7.30027 19.4172 7.5595 19.9288 7.7447 20.6532C7.92989 21.3776 8.10092 22.3346 8.25777 23.5242C8.36778 24.4071 8.50895 25.1576 8.68127 25.7755C8.8536 26.3935 9.0154 26.9154 9.16666 27.3413C9.3285 27.7649 9.46336 28.1178 9.57125 28.4002C9.67914 28.6826 9.73656 28.9377 9.74352 29.1657C9.74932 29.3393 9.70466 29.4856 9.60953 29.6048C9.52497 29.7216 9.40345 29.7974 9.24496 29.8321ZM0.695116 28.4895C0.462674 28.5403 0.287189 28.5241 0.168661 28.4407C0.0501331 28.3574 -0.00557834 28.233 0.00152674 28.0675C-0.00781164 27.9275 0.0256889 27.8054 0.102028 27.7013C0.18659 27.5844 0.331605 27.4653 0.537075 27.3439C1.66658 26.6488 2.96451 26.037 4.43085 25.5087C5.90776 24.978 7.5073 24.5243 9.22949 24.1476C9.59928 24.0667 9.84873 24.0668 9.97782 24.1479C10.1175 24.2266 10.1884 24.3695 10.1907 24.5766C10.1953 24.7942 10.0978 25.0013 9.89819 25.1979C9.69622 25.3842 9.40505 25.5189 9.02469 25.6021C7.80965 25.8678 6.78771 26.1296 5.95888 26.3874C5.13826 26.6325 4.4544 26.8695 3.9073 27.0984C3.35786 27.317 2.89411 27.5222 2.51605 27.7142C2.14857 27.9038 1.82511 28.0675 1.54568 28.2051C1.27447 28.33 0.990952 28.4248 0.695116 28.4895Z" fill="#7831B2"/>
<path d="M13.2079 28.998C12.9543 29.0535 12.7342 28.9869 12.5477 28.7982C12.3611 28.6095 12.2086 28.326 12.0902 27.9476C11.98 27.5564 11.918 27.0837 11.9041 26.5294C11.9066 26.1464 11.9272 25.8195 11.9661 25.5488C12.0155 25.2757 12.0819 25.0536 12.1653 24.8823C12.2569 24.6984 12.3644 24.5601 12.4877 24.4676C12.5898 24.3797 12.7454 24.3074 12.9544 24.2508C13.161 24.1837 13.3805 24.1248 13.613 24.0739C14.3842 23.9052 15.1368 23.7024 15.8705 23.4654C16.6125 23.2157 17.3222 22.8965 17.9996 22.5079L18.5275 23.5235C18.025 23.852 17.4685 24.1376 16.858 24.3804C16.2475 24.6232 15.6194 24.8371 14.9737 25.0221C14.3362 25.1943 13.7111 25.3474 13.0983 25.4814L12.1474 25.5419C12.1488 25.1045 12.1478 24.6567 12.1444 24.1985C12.1411 23.7402 12.1336 23.2884 12.122 22.8429C12.121 22.3951 12.1177 21.986 12.1119 21.6157C12.0979 21.3565 12.1368 21.135 12.2284 20.951C12.32 20.767 12.4451 20.6577 12.6036 20.6231C12.8677 20.5653 13.0866 20.6267 13.2603 20.8072C13.4316 20.9774 13.5189 21.2916 13.5223 21.7498C13.5316 21.9882 13.5303 22.278 13.5184 22.6194C13.5065 22.9608 13.4929 23.3189 13.4775 23.6938C13.4727 24.0664 13.4643 24.4234 13.4525 24.7647C13.4488 25.0933 13.4493 25.3664 13.4539 25.584C13.4631 26.2158 13.4899 26.7781 13.5343 27.2711C13.5869 27.7513 13.6191 28.1158 13.6307 28.3646C13.6318 28.5174 13.5901 28.6521 13.5055 28.769C13.4339 28.8939 13.3347 28.9703 13.2079 28.998ZM18.6756 27.802C18.4114 27.8598 18.1873 27.7504 18.0031 27.4738C17.8294 27.1949 17.6893 26.7939 17.5827 26.2708C17.4843 25.735 17.427 25.1356 17.4108 24.4726C17.3971 23.4265 17.4039 22.5946 17.4311 21.9767C17.4666 21.346 17.5143 20.8438 17.5743 20.4701C17.6073 20.2225 17.6672 19.9963 17.7542 19.7915C17.8411 19.5867 17.9744 19.4647 18.154 19.4254C18.3864 19.3745 18.5748 19.4481 18.7191 19.646C18.8716 19.8312 18.9502 20.0817 18.9548 20.3976C18.9652 20.7887 18.9404 21.2203 18.8803 21.6924C18.8309 22.1622 18.816 22.6627 18.8358 23.1938C18.8496 23.8464 18.8875 24.4337 18.9495 24.9556C19.0198 25.4647 19.0883 25.8923 19.1551 26.2383C19.2219 26.5843 19.2529 26.8453 19.2481 27.0212C19.2586 27.2156 19.2081 27.3851 19.0965 27.5297C18.9849 27.6743 18.8446 27.7651 18.6756 27.802Z" fill="#7831B2"/>
<path d="M22.6884 26.9079C22.4348 26.9634 22.2188 26.8904 22.0405 26.689C21.8727 26.4853 21.7589 26.1769 21.6992 25.7638C21.6699 25.5844 21.6466 25.3327 21.6291 25.0087C21.6116 24.6847 21.5965 24.322 21.5837 23.9204C21.5686 23.5085 21.5535 23.0966 21.5384 22.6846C21.5338 22.2704 21.5258 21.8897 21.5142 21.5425C21.5131 21.1931 21.5115 20.9148 21.5092 20.7076C21.493 20.1429 21.5465 19.716 21.6699 19.4267C21.8015 19.1248 22.041 18.9085 22.3885 18.7778C22.7149 18.6518 23.066 18.5367 23.4416 18.4327C23.8255 18.316 24.2076 18.216 24.588 18.1328C25.0106 18.0404 25.4485 17.9664 25.9016 17.911C26.3524 17.8452 26.6981 17.8297 26.9387 17.8645C27.0773 17.8888 27.1846 17.9473 27.2609 18.0399C27.3348 18.1221 27.3741 18.2227 27.3788 18.3419C27.3834 18.5595 27.2853 18.7394 27.0845 18.8816C26.8837 19.0239 26.6566 19.1228 26.403 19.1782C26.1811 19.2268 25.978 19.2603 25.7937 19.2787C25.6094 19.2972 25.4104 19.3243 25.1968 19.3601C24.9808 19.3855 24.6984 19.4363 24.3498 19.5126C23.9272 19.605 23.5726 19.7045 23.2862 19.8108C22.9997 19.9172 22.6809 20.0525 22.3299 20.2167L22.994 19.5469C22.9504 19.9935 22.9173 20.4871 22.8948 21.0274C22.8829 21.5655 22.8861 22.2204 22.9046 22.9922C22.9138 23.5257 22.9383 24.0285 22.978 24.5006C23.0154 24.9623 23.0534 25.3528 23.092 25.6722C23.1307 25.9916 23.1499 26.2005 23.1499 26.2988C23.1557 26.4724 23.114 26.6072 23.0247 26.7032C22.9378 26.8096 22.8257 26.8779 22.6884 26.9079Z" fill="#7831B2"/>
<path d="M27.8575 25.81C27.7096 25.8424 27.5828 25.821 27.4772 25.7457C27.3845 25.6786 27.3111 25.5744 27.2572 25.4332C27.1927 25.2943 27.1628 25.137 27.1676 24.9611C27.1677 24.7644 27.2118 24.4925 27.2999 24.1453C27.3963 23.7855 27.5268 23.38 27.6913 22.9287C27.8535 22.4671 28.0262 22.0031 28.2095 21.5369C28.4092 21.0451 28.6154 20.5575 28.8281 20.0738C29.0489 19.5775 29.2645 19.1315 29.4748 18.7358C29.6827 18.3297 29.8595 18.0069 30.0051 17.7675C30.2353 17.4111 30.4673 17.1364 30.7009 16.9432C30.9428 16.7373 31.2011 16.6043 31.4758 16.5442C31.7294 16.4888 31.9237 16.5392 32.0586 16.6954C32.1912 16.8413 32.3132 17.0386 32.4246 17.2874C32.5384 17.5466 32.6574 17.8539 32.7817 18.2092C32.906 18.5645 33.0379 18.929 33.1775 19.3028C33.3147 19.6662 33.4601 20.0168 33.6138 20.3548C33.7967 20.7737 33.9603 21.1313 34.1046 21.4276C34.2595 21.7215 34.3985 21.9698 34.5216 22.1723C34.6554 22.3725 34.7768 22.5427 34.8859 22.6827C34.9904 22.8019 35.0754 22.909 35.1411 23.0039C35.2068 23.0988 35.2473 23.2047 35.2625 23.3216C35.2824 23.4593 35.2694 23.5987 35.2236 23.7399C35.1778 23.881 35.1038 23.9956 35.0016 24.0835C34.9124 24.1795 34.7991 24.2425 34.6617 24.2726C34.461 24.3165 34.2603 24.262 34.0596 24.1092C33.8671 23.9437 33.6753 23.707 33.4841 23.3991C33.2929 23.0913 33.1063 22.7551 32.9245 22.3905C32.8178 22.1625 32.6776 21.8599 32.504 21.4826C32.3387 21.0926 32.1663 20.6714 31.9868 20.2189C31.8051 19.756 31.6386 19.3116 31.4873 18.8857C31.3466 18.4575 31.2381 18.0988 31.1619 17.8095L31.507 17.8651C31.2721 18.2006 31.0272 18.6148 30.7723 19.1077C30.5256 19.5878 30.2736 20.1183 30.0164 20.6991C29.7696 21.2776 29.5329 21.8757 29.3061 22.4936C29.0899 23.1091 28.9001 23.7188 28.7367 24.3228C28.5956 24.7798 28.464 25.131 28.3419 25.3763C28.2303 25.6192 28.0688 25.7638 27.8575 25.81Z" fill="#7831B2"/>
<path d="M38.5312 23.459C38.1719 23.5375 37.8679 23.5166 37.6191 23.3962C37.3809 23.2735 37.1837 23.0871 37.0277 22.8371C36.8693 22.5767 36.7538 22.2851 36.6811 21.9622C36.6167 21.6266 36.581 21.2957 36.5741 20.9694C36.5766 20.6847 36.5884 20.3434 36.6097 19.9453C36.6415 19.545 36.6804 19.1267 36.7264 18.6904C36.7723 18.2542 36.8188 17.8452 36.8659 17.4633C36.9236 17.0792 36.9724 16.7789 37.0124 16.5626C37.0677 16.168 37.126 15.8602 37.1871 15.6392C37.2588 15.4159 37.3739 15.2869 37.5323 15.2523C37.6697 15.2222 37.807 15.2413 37.9443 15.3097C38.0817 15.378 38.1931 15.4793 38.2788 15.6135C38.375 15.7455 38.4272 15.9034 38.4353 16.0874C38.4411 16.261 38.4211 16.5167 38.3752 16.8546C38.3293 17.1924 38.2757 17.5702 38.2145 17.9879C38.1533 18.4056 38.0986 18.8274 38.0503 19.2532C37.9997 19.6686 37.9778 20.0395 37.9847 20.3658C37.9846 20.6608 38.0033 20.9409 38.0407 21.2059C38.0759 21.4605 38.1333 21.6664 38.2131 21.8238C38.2905 21.9708 38.3979 22.0293 38.5352 21.9992C38.8733 21.9253 39.2344 21.5349 39.6185 20.828C40.0132 20.1188 40.4156 19.1729 40.8257 17.9905C41.0185 17.4675 41.1812 16.9839 41.314 16.5396C41.4468 16.0953 41.565 15.7088 41.6684 15.3802C41.7695 15.0412 41.8805 14.7711 42.0015 14.5698C42.1224 14.3685 42.2622 14.2505 42.4207 14.2158C42.6637 14.1626 42.8591 14.2182 43.0069 14.3826C43.163 14.5342 43.2697 14.7622 43.3271 15.0666C43.3881 15.3374 43.4525 15.6729 43.5205 16.0733C43.599 16.4714 43.6798 16.8799 43.763 17.2988C43.8438 17.7073 43.9294 18.0875 44.0196 18.4393C44.1873 19.0364 44.3567 19.5184 44.528 19.8853C44.7074 20.2394 44.8599 20.5229 44.9854 20.7359C45.111 20.9488 45.1848 21.1294 45.2071 21.2775C45.2223 21.3944 45.2099 21.5118 45.17 21.6298C45.1277 21.7374 45.066 21.8329 44.985 21.9162C44.904 21.9995 44.8053 22.0538 44.6891 22.0792C44.4461 22.1324 44.2208 22.0669 44.0131 21.8829C43.8159 21.6965 43.6306 21.4147 43.457 21.0374C43.2834 20.6601 43.1104 20.2117 42.938 19.6921C42.8325 19.3218 42.7212 18.9254 42.6039 18.503C42.4973 18.0783 42.4012 17.6513 42.3157 17.222C42.2407 16.7904 42.1728 16.39 42.1119 16.0208L42.6066 16.0765C42.5337 16.3438 42.4538 16.629 42.3668 16.9322C42.2904 17.233 42.1905 17.5772 42.0671 17.9648C41.9519 18.3397 41.8033 18.7875 41.6211 19.3081C41.3885 19.9491 41.1182 20.571 40.8105 21.1737C40.5003 21.7661 40.1545 22.2734 39.7728 22.6956C39.3994 23.1051 38.9855 23.3596 38.5312 23.459Z" fill="#7831B2"/>
<path d="M50.4845 10.9931C50.0407 11.0902 49.6446 11.0785 49.296 10.9581C48.945 10.8272 48.664 10.6373 48.4528 10.3885C48.2392 10.1292 48.1084 9.86826 48.0604 9.60558C48.0182 9.31975 48.0483 9.0837 48.1505 8.89744C48.2527 8.71117 48.4041 8.59608 48.6049 8.55217C48.7634 8.5175 48.8995 8.58061 49.0133 8.74149C49.1353 8.88964 49.2673 9.05746 49.4093 9.24496C49.5383 9.42436 49.688 9.57194 49.8581 9.6877C50.0389 9.80116 50.2771 9.82553 50.573 9.76082C50.7737 9.71691 50.9669 9.61456 51.1524 9.45378C51.3356 9.28258 51.4965 9.11079 51.635 8.93842C51.8253 8.70011 51.9962 8.49882 52.1476 8.33455C52.2968 8.15987 52.4612 8.05289 52.6408 8.0136C52.7676 7.98587 52.8732 8.01194 52.9577 8.0918C53.0504 8.15895 53.0909 8.26484 53.0791 8.40947C53.0684 8.6085 52.9991 8.84222 52.871 9.11063C52.7512 9.36632 52.5762 9.62315 52.346 9.88113C52.1159 10.1391 51.8405 10.3687 51.52 10.5699C51.21 10.7689 50.8648 10.9099 50.4845 10.9931ZM48.7304 21.228C48.3712 21.3066 48.0672 21.2857 47.8184 21.1653C47.5801 21.0425 47.383 20.8562 47.227 20.6062C47.0686 20.3458 46.9531 20.0542 46.8804 19.7313C46.816 19.3957 46.7803 19.0648 46.7734 18.7384C46.7758 18.4538 46.7877 18.1124 46.809 17.7144C46.8408 17.314 46.8797 16.8957 46.9256 16.4595C46.9716 16.0233 47.0181 15.6143 47.0652 15.2324C47.1229 14.8483 47.1717 14.548 47.2117 14.3316C47.267 13.9371 47.3252 13.6293 47.3864 13.4083C47.458 13.185 47.5731 13.056 47.7316 13.0213C47.869 12.9913 48.0063 13.0104 48.1436 13.0787C48.2809 13.1471 48.3924 13.2483 48.478 13.3826C48.5743 13.5145 48.6264 13.6725 48.6346 13.8565C48.6404 14.0301 48.6203 14.2858 48.5744 14.6236C48.5285 14.9615 48.475 15.3393 48.4138 15.757C48.3526 16.1747 48.2978 16.5965 48.2495 17.0223C48.1989 17.4377 48.1771 17.8085 48.184 18.1349C48.1839 18.4299 48.2025 18.71 48.24 18.975C48.2751 19.2295 48.3326 19.4355 48.4123 19.5929C48.4898 19.7399 48.5971 19.7984 48.7345 19.7683C49.0726 19.6944 49.4337 19.3039 49.8178 18.597C50.2125 17.8878 50.6149 16.942 51.025 15.7595C51.2177 15.2366 51.3805 14.7529 51.5133 14.3086C51.6461 13.8643 51.7642 13.4779 51.8676 13.1493C51.9687 12.8103 52.0798 12.5401 52.2007 12.3388C52.3217 12.1375 52.4614 12.0195 52.6199 11.9849C52.8629 11.9317 53.0584 11.9873 53.2062 12.1517C53.3623 12.3033 53.469 12.5313 53.5264 12.8357C53.5873 13.1064 53.6518 13.442 53.7197 13.8424C53.7982 14.2405 53.8791 14.649 53.9622 15.0679C54.0431 15.4764 54.1286 15.8565 54.2189 16.2083C54.3865 16.8055 54.556 17.2875 54.7272 17.6543C54.9067 18.0085 55.0592 18.292 55.1847 18.505C55.3102 18.7179 55.3841 18.8985 55.4064 19.0466C55.4216 19.1634 55.4092 19.2809 55.3693 19.3989C55.327 19.5065 55.2653 19.602 55.1843 19.6852C55.1032 19.7685 55.0046 19.8229 54.8884 19.8483C54.5186 19.9292 54.2006 19.7474 53.9343 19.303C53.668 18.8586 53.4023 18.2446 53.1373 17.4612C53.0318 17.0909 52.9204 16.6945 52.8032 16.2721C52.6965 15.8474 52.6004 15.4204 52.5149 14.9911C52.44 14.5595 52.372 14.1591 52.3111 13.7899L52.8059 13.8456C52.7083 14.2494 52.5872 14.6966 52.4427 15.1872C52.2981 15.6778 52.0907 16.3078 51.8204 17.0772C51.5877 17.7182 51.3175 18.34 51.0097 18.9428C50.6996 19.5352 50.3537 20.0425 49.9721 20.4647C49.5986 20.8742 49.1847 21.1287 48.7304 21.228Z" fill="#7831B2"/>
<path d="M60.3682 18.6497C59.5863 18.8207 58.9079 18.8107 58.3327 18.6196C57.7659 18.4157 57.3211 18.065 56.9985 17.5673C56.6841 17.0569 56.52 16.4262 56.5062 15.6753C56.4947 15.033 56.5941 14.4157 56.8044 13.8233C57.023 13.2182 57.3319 12.6698 57.7312 12.1782C58.1387 11.6738 58.6084 11.2487 59.1403 10.9029C59.6722 10.5571 60.2445 10.3171 60.8573 10.1831C61.132 10.123 61.3844 10.1115 61.6145 10.1486C61.8422 10.1753 62.0212 10.2563 62.1514 10.3918C62.2899 10.5145 62.3573 10.6909 62.3537 10.9212C62.356 11.1283 62.3119 11.3019 62.2215 11.4419C62.1287 11.5715 62.0031 11.6536 61.8446 11.6882C61.7284 11.7137 61.6339 11.7125 61.5611 11.6847C61.4883 11.6569 61.4103 11.6302 61.3269 11.6048C61.2542 11.577 61.1385 11.5804 60.9801 11.6151C60.3778 11.7468 59.8465 12.0215 59.3862 12.439C58.9236 12.8462 58.5613 13.3298 58.2993 13.8898C58.0455 14.437 57.9215 14.9941 57.9272 15.5611C57.9516 16.0147 58.0477 16.3926 58.2155 16.6946C58.3915 16.984 58.6367 17.1871 58.9513 17.3041C59.2764 17.4187 59.645 17.431 60.057 17.3409C60.5219 17.2392 60.88 17.1062 61.1313 16.942C61.3802 16.7673 61.5686 16.595 61.6967 16.4249C61.8352 16.2526 61.9456 16.1027 62.0279 15.9755C62.1077 15.8378 62.2163 15.7539 62.3537 15.7239C62.5544 15.68 62.7023 15.6968 62.7974 15.7744C62.903 15.8496 62.9605 16.0064 62.9698 16.2448C62.9732 16.6047 62.8627 16.9512 62.6384 17.2844C62.4117 17.6072 62.0981 17.8888 61.6978 18.1294C61.308 18.3676 60.8648 18.5411 60.3682 18.6497Z" fill="#7831B2"/>
<path d="M71.1196 16.3308C70.8027 16.4001 70.4329 16.3826 70.0104 16.2784C69.5855 16.1637 69.1518 15.9853 68.7094 15.7434C68.2775 15.4991 67.8673 15.2282 67.4789 14.9307C67.101 14.6309 66.7901 14.3328 66.546 14.0365C66.4028 13.893 66.3002 13.757 66.238 13.6285C66.1841 13.4873 66.1471 13.3479 66.1272 13.2102C66.1402 13.1199 66.1614 13.017 66.1907 12.9012C66.2201 12.7855 66.2677 12.6768 66.3335 12.575C66.4228 12.3806 66.589 12.1093 66.8321 11.7611C67.0752 11.4129 67.3612 11.0334 67.69 10.6227C68.0271 10.1993 68.3806 9.79964 68.7505 9.42369C69.1286 9.035 69.492 8.70417 69.8408 8.4312C70.2001 8.15591 70.5223 7.98706 70.8076 7.92467C70.9238 7.89924 71.0195 7.90564 71.0946 7.94385C71.1803 7.97974 71.2484 8.03589 71.2988 8.11227C71.3493 8.18866 71.3786 8.26967 71.3867 8.3553C71.4277 8.58674 71.3238 8.83896 71.0748 9.11197C70.8259 9.38498 70.5522 9.64698 70.254 9.89799C69.7268 10.363 69.267 10.8078 68.8748 11.2323C68.4826 11.6569 68.172 12.0253 67.9429 12.3377C67.7245 12.6477 67.6217 12.856 67.6346 12.9624C67.6322 13.0504 67.692 13.1684 67.814 13.3166C67.9361 13.4647 68.1115 13.6285 68.3403 13.8079C68.5797 13.9851 68.8573 14.1593 69.173 14.3306C69.4992 14.4997 69.8549 14.6514 70.2398 14.7857C70.4687 14.8668 70.6911 14.9438 70.9071 15.0168C71.1313 15.077 71.3144 15.1517 71.4564 15.2409C71.6066 15.3173 71.6917 15.4243 71.7116 15.562C71.7268 15.6789 71.7132 15.7911 71.6709 15.8987C71.6286 16.0063 71.5552 16.0989 71.4507 16.1764C71.3568 16.2516 71.2464 16.303 71.1196 16.3308ZM65.8386 17.4695C65.5639 17.5296 65.3486 17.4346 65.1925 17.1847C65.0342 16.9243 64.9175 16.5291 64.8426 15.9991C64.7759 15.4564 64.7321 14.7939 64.7113 14.0116C64.7044 13.6853 64.7045 13.3411 64.7117 12.9789C64.7294 12.6144 64.7471 12.2499 64.7649 11.8854C64.7803 11.5105 64.7822 11.1495 64.7706 10.8024C64.773 10.7144 64.7701 10.6276 64.7619 10.542C64.7619 10.4436 64.7567 10.3464 64.7461 10.2504C64.7415 10.0328 64.761 9.84829 64.8045 9.69672C64.8479 9.54515 64.909 9.42251 64.9877 9.3288C65.0746 9.22237 65.1709 9.15761 65.2766 9.13449C65.5196 9.08134 65.7344 9.1491 65.9209 9.33777C66.1157 9.51371 66.2142 9.80361 66.2164 10.2074C66.2222 10.4794 66.2103 10.8207 66.1808 11.2315C66.1595 11.6295 66.1353 12.0392 66.1082 12.4604C66.081 12.8815 66.0697 13.2501 66.0743 13.566C66.1011 14.1284 66.1361 14.6288 66.1794 15.0674C66.2332 15.5037 66.2865 15.8635 66.3392 16.1471C66.3896 16.4202 66.4106 16.6122 66.4024 16.7233C66.4094 16.8529 66.3864 16.9727 66.3336 17.0826C66.2889 17.1798 66.2237 17.2596 66.138 17.3221C66.0652 17.3926 65.9654 17.4418 65.8386 17.4695Z" fill="#7831B2"/>
<path d="M75.1185 15.4561C74.7593 15.5347 74.4553 15.5137 74.2064 15.3933C73.9682 15.2706 73.7711 15.0842 73.615 14.8342C73.4567 14.5738 73.3411 14.2822 73.2685 13.9593C73.204 13.6238 73.1684 13.2928 73.1614 12.9665C73.1639 12.6818 73.1758 12.3405 73.197 11.9424C73.2289 11.5421 73.2678 11.1238 73.3137 10.6876C73.3597 10.2513 73.4062 9.8423 73.4533 9.46046C73.5109 9.07631 73.5598 8.77605 73.5998 8.55968C73.6551 8.16511 73.7133 7.85733 73.7744 7.63634C73.8461 7.41303 73.9612 7.28405 74.1197 7.24938C74.257 7.21934 74.3944 7.23847 74.5317 7.30678C74.669 7.3751 74.7805 7.47638 74.8661 7.61063C74.9623 7.74258 75.0145 7.90054 75.0227 8.08453C75.0285 8.2581 75.0084 8.51382 74.9625 8.85169C74.9166 9.18956 74.863 9.56735 74.8018 9.98505C74.7406 10.4028 74.6859 10.8245 74.6376 11.2503C74.587 11.6657 74.5651 12.0366 74.5721 12.3629C74.572 12.658 74.5906 12.938 74.6281 13.203C74.6632 13.4576 74.7206 13.6636 74.8004 13.821C74.8778 13.9679 74.9852 14.0264 75.1226 13.9964C75.4607 13.9224 75.8218 13.532 76.2059 12.8251C76.6006 12.1159 77.003 11.1701 77.4131 9.98759C77.6058 9.46462 77.7686 8.98099 77.9014 8.53669C78.0342 8.09239 78.1523 7.70595 78.2557 7.37735C78.3568 7.03834 78.4678 6.76818 78.5888 6.56688C78.7098 6.36557 78.8495 6.24759 79.008 6.21292C79.251 6.15977 79.4464 6.21537 79.5943 6.37973C79.7504 6.53136 79.8571 6.75935 79.9145 7.06369C79.9754 7.33448 80.0399 7.67007 80.1078 8.07046C80.1863 8.46854 80.2671 8.87703 80.3503 9.29594C80.4312 9.70443 80.5167 10.0846 80.607 10.4364C80.7746 11.0335 80.9441 11.5155 81.1153 11.8824C81.2948 12.2365 81.4473 12.5201 81.5728 12.733C81.6983 12.946 81.7722 13.1265 81.7944 13.2746C81.8097 13.3915 81.7973 13.5089 81.7573 13.6269C81.715 13.7345 81.6534 13.83 81.5723 13.9133C81.4913 13.9966 81.3927 14.0509 81.2765 14.0763C80.9067 14.1572 80.5886 13.9755 80.3223 13.531C80.056 13.0866 79.7904 12.4727 79.5254 11.6892C79.4199 11.3189 79.3085 10.9226 79.1913 10.5002C79.0846 10.0755 78.9885 9.64845 78.903 9.21913C78.828 8.78749 78.7601 8.3871 78.6992 8.01796L79.194 8.07365C79.0964 8.47746 78.9753 8.92466 78.8307 9.41524C78.6862 9.90582 78.4787 10.5358 78.2085 11.3052C77.9758 11.9462 77.7056 12.5681 77.3978 13.1709C77.0877 13.7632 76.7418 14.2705 76.3601 14.6928C75.9867 15.1023 75.5728 15.3567 75.1185 15.4561Z" fill="#7831B2"/>
<path d="M87.0718 2.99026C86.6281 3.08733 86.2319 3.07564 85.8833 2.95519C85.5324 2.82432 85.2513 2.63447 85.0401 2.38562C84.8266 2.12635 84.6958 1.86538 84.6477 1.6027C84.6056 1.31687 84.6356 1.08083 84.7378 0.894558C84.84 0.70829 84.9915 0.5932 85.1922 0.549291C85.3507 0.514625 85.4868 0.577731 85.6006 0.738608C85.7227 0.886759 85.8547 1.05458 85.9966 1.24208C86.1257 1.42148 86.2753 1.56906 86.4455 1.68482C86.6262 1.79828 86.8645 1.82265 87.1603 1.75794C87.2977 1.7279 87.4292 1.67182 87.5548 1.5897C87.6886 1.49486 87.8096 1.39191 87.9176 1.28086C88.0339 1.15708 88.1355 1.04197 88.2224 0.935544C88.4126 0.697232 88.5835 0.495942 88.735 0.331676C88.8841 0.156994 89.0485 0.0500091 89.2281 0.0107213C89.3549 -0.0170111 89.4605 0.00905715 89.545 0.0889254C89.6377 0.156068 89.6782 0.261958 89.6664 0.406595C89.6558 0.605619 89.5864 0.83934 89.4584 1.10776C89.3385 1.36345 89.1636 1.62028 88.9334 1.87825C88.7032 2.13622 88.4278 2.36583 88.1073 2.56707C87.7973 2.766 87.4522 2.90707 87.0718 2.99026ZM85.3178 13.2252C84.9585 13.3037 84.6545 13.2828 84.4057 13.1624C84.1675 13.0397 83.9703 12.8533 83.8143 12.6033C83.6559 12.3429 83.5404 12.0513 83.4677 11.7284C83.4033 11.3928 83.3676 11.0619 83.3607 10.7356C83.3632 10.4509 83.375 10.1096 83.3963 9.71152C83.4282 9.31116 83.467 8.89286 83.513 8.45664C83.5589 8.02041 83.6055 7.61138 83.6525 7.22954C83.7102 6.84539 83.759 6.54513 83.799 6.32875C83.8544 5.93419 83.9126 5.62641 83.9737 5.40542C84.0454 5.18211 84.1605 5.05312 84.319 5.01846C84.4563 4.98842 84.5936 5.00755 84.731 5.07586C84.8683 5.14418 84.9798 5.24546 85.0654 5.37971C85.1616 5.51166 85.2138 5.66962 85.2219 5.85361C85.2277 6.02718 85.2077 6.2829 85.1618 6.62077C85.1159 6.95864 85.0623 7.33643 85.0011 7.75413C84.9399 8.17184 84.8852 8.5936 84.8369 9.01941C84.7863 9.43481 84.7644 9.80566 84.7713 10.132C84.7712 10.427 84.7899 10.7071 84.8273 10.9721C84.8625 11.2267 84.9199 11.4326 84.9997 11.59C85.0771 11.737 85.1845 11.7955 85.3218 11.7654C85.6599 11.6915 86.021 11.3011 86.4052 10.5942C86.7998 9.88497 87.2022 8.93913 87.6124 7.75667C87.8051 7.2337 87.9678 6.75007 88.1006 6.30577C88.2334 5.86147 88.3516 5.47502 88.455 5.14643C88.5561 4.80742 88.6671 4.53726 88.7881 4.33596C88.909 4.13465 89.0488 4.01667 89.2073 3.982C89.4503 3.92885 89.6457 3.98445 89.7935 4.14881C89.9496 4.30044 90.0564 4.52843 90.1138 4.83277C90.1747 5.10356 90.2391 5.43915 90.3071 5.83954C90.3856 6.23762 90.4664 6.64611 90.5496 7.06502C90.6304 7.47351 90.716 7.85366 90.8062 8.20545C90.9739 8.80259 91.1433 9.28459 91.3146 9.65145C91.494 10.0056 91.6465 10.2891 91.772 10.5021C91.8976 10.715 91.9715 10.8956 91.9937 11.0437C92.0089 11.1606 91.9966 11.278 91.9566 11.396C91.9143 11.5036 91.8526 11.5991 91.7716 11.6824C91.6906 11.7657 91.592 11.82 91.4757 11.8454C91.1059 11.9263 90.7879 11.7445 90.5216 11.3001C90.2553 10.8557 89.9897 10.2418 89.7247 9.4583C89.6191 9.08799 89.5078 8.69163 89.3905 8.26924C89.2839 7.84454 89.1878 7.41753 89.1023 6.98821C89.0273 6.55657 88.9594 6.15618 88.8985 5.78704L89.3932 5.84273C89.2956 6.24654 89.1746 6.69374 89.03 7.18432C88.8854 7.6749 88.678 8.3049 88.4077 9.07431C88.1751 9.71529 87.9048 10.3372 87.5971 10.9399C87.287 11.5323 86.9411 12.0396 86.5594 12.4618C86.186 12.8713 85.7721 13.1258 85.3178 13.2252Z" fill="#7831B2"/>
<path d="M4.84912 45.3965C4.59554 45.452 4.37547 45.3854 4.1889 45.1967C4.00233 45.008 3.84983 44.7245 3.73142 44.346C3.62122 43.9549 3.55918 43.4822 3.5453 42.9279C3.54787 42.3482 3.59675 41.9004 3.69195 41.5845C3.79537 41.2559 3.94102 41.0165 4.12889 40.8661C4.23105 40.7782 4.38662 40.7059 4.59558 40.6493C4.80221 40.5822 5.02174 40.5233 5.25418 40.4724C6.02547 40.3037 6.77798 40.1009 7.51173 39.8639C8.2537 39.6142 8.96341 39.295 9.64087 38.9064L10.1687 39.922C9.66619 40.2504 9.10968 40.5361 8.49919 40.7789C7.88869 41.0217 7.2606 41.2356 6.61491 41.4205C5.97744 41.5928 5.35231 41.7459 4.73951 41.8799L3.78866 41.9404C3.78773 41.2959 3.78505 40.6189 3.78062 39.9096C3.77619 39.2003 3.76703 38.5685 3.75316 38.0142C3.73917 37.755 3.77799 37.5334 3.86962 37.3495C3.96125 37.1655 4.0863 37.0562 4.24479 37.0215C4.50892 36.9638 4.72782 37.0252 4.90149 37.2057C5.07281 37.3759 5.16014 37.6901 5.16349 38.1483C5.17279 38.3867 5.17151 38.6765 5.15964 39.0179C5.14778 39.3592 5.13414 39.7174 5.11874 40.0923C5.11391 40.4649 5.10556 40.8218 5.09369 41.1632C5.09005 41.4918 5.09053 41.7649 5.09515 41.9824C5.1043 42.6142 5.13109 43.1766 5.17551 43.6696C5.22815 44.1498 5.2603 44.5143 5.27194 44.7631C5.27306 44.9158 5.23134 45.0506 5.14678 45.1675C5.07512 45.2924 4.9759 45.3688 4.84912 45.3965ZM10.3168 44.2005C10.0527 44.2583 9.82849 44.1489 9.64429 43.8723C9.47067 43.5933 9.33054 43.1924 9.22392 42.6693C9.12552 42.1335 9.06822 41.5341 9.05204 40.8711C9.03834 39.825 9.04511 38.993 9.07234 38.3751C9.10779 37.7445 9.15552 37.2423 9.21553 36.8686C9.24849 36.621 9.30844 36.3948 9.39538 36.19C9.48232 35.9852 9.6156 35.8632 9.79522 35.8239C10.0277 35.773 10.216 35.8466 10.3603 36.0445C10.5129 36.2297 10.5914 36.4802 10.596 36.7961C10.6064 37.1872 10.5816 37.6188 10.5216 38.0909C10.4721 38.5607 10.4572 39.0612 10.477 39.5923C10.4908 40.2449 10.5288 40.8322 10.5908 41.3541C10.661 41.8632 10.7295 42.2908 10.7963 42.6368C10.8631 42.9828 10.8941 43.2438 10.8893 43.4196C10.8998 43.614 10.8493 43.7835 10.7377 43.9282C10.6261 44.0728 10.4858 44.1635 10.3168 44.2005Z" fill="#7831B2"/>
<path d="M15.1132 43.135C14.6272 43.2413 14.2052 43.2134 13.8472 43.0513C13.4998 42.8869 13.2223 42.6143 13.0147 42.2335C12.8176 41.8505 12.7122 41.3818 12.6983 40.8275C12.6809 40.3068 12.7427 39.7687 12.8838 39.2134C13.0331 38.6453 13.2475 38.0957 13.5271 37.5646C13.8043 37.0232 14.1314 36.5309 14.5084 36.0879C14.8936 35.6321 15.3175 35.2498 15.7801 34.9409C16.2533 34.6298 16.7487 34.4176 17.2664 34.3044C17.5094 34.2512 17.7137 34.2721 17.8792 34.3671C18.0446 34.462 18.1291 34.6402 18.1325 34.9017C18.1395 35.0313 18.106 35.1534 18.032 35.2679C17.9557 35.3721 17.83 35.4542 17.6551 35.5143C16.939 35.7802 16.3108 36.1908 15.7706 36.7461C15.241 37.299 14.8317 37.9185 14.5427 38.6046C14.2619 39.278 14.1254 39.9526 14.1334 40.6283C14.138 40.9442 14.1684 41.2272 14.2246 41.4771C14.2785 41.7167 14.4017 42.0176 14.5941 42.3798L13.7492 41.4336C13.9933 41.6315 14.1975 41.7508 14.3619 41.7913C14.5368 41.8296 14.7668 41.8175 15.0521 41.7551C15.7283 41.6072 16.319 41.03 16.8241 40.0234C17.3292 39.0168 17.6936 37.6313 17.9173 35.8667C17.9468 35.6527 18.0132 35.4797 18.1165 35.3478C18.2281 35.2032 18.3737 35.1113 18.5533 35.072C18.7963 35.0188 19.0046 35.0825 19.1783 35.2631C19.3602 35.4309 19.4757 35.6734 19.5249 35.9905C19.6303 36.6558 19.7427 37.2541 19.8623 37.7853C19.99 38.3037 20.1583 38.7805 20.3671 39.2156C20.5864 39.6485 20.8938 40.0785 21.2893 40.5056C21.3761 40.5958 21.4295 40.7098 21.4494 40.8475C21.4798 40.9829 21.4721 41.1212 21.4263 41.2624C21.391 41.4012 21.3247 41.525 21.2272 41.6337C21.138 41.7298 21.0194 41.7939 20.8715 41.8263C20.713 41.861 20.5792 41.8575 20.47 41.8158C20.3714 41.7718 20.2775 41.6994 20.1884 41.5987C19.9795 41.3603 19.783 41.1028 19.5988 40.8261C19.4146 40.5495 19.2422 40.2266 19.0815 39.8575C18.929 39.4756 18.7983 39.0179 18.6893 38.4844C18.5804 37.9509 18.4914 37.3093 18.4224 36.5594L18.9894 36.419C18.8752 37.5368 18.6876 38.5012 18.4267 39.3123C18.1634 40.1129 17.8486 40.7828 17.4821 41.3219C17.1239 41.8483 16.7399 42.2601 16.3301 42.5574C15.9203 42.8546 15.5147 43.0472 15.1132 43.135Z" fill="#7831B2"/>
<path d="M34.7638 38.8368C34.5102 38.8922 34.3054 38.795 34.1494 38.545C33.9933 38.295 33.8685 37.9617 33.7747 37.5451C33.7044 37.2326 33.6523 36.878 33.6184 36.4811C33.5821 36.0737 33.5512 35.6653 33.5255 35.2556C33.4999 34.846 33.4748 34.4636 33.4502 34.1083C33.4363 33.7507 33.4194 33.4539 33.3995 33.2179C33.3761 32.917 33.3463 32.6613 33.31 32.4507C33.2843 32.2377 33.2456 32.0167 33.194 31.7876L33.5866 32.1279L32.4455 32.3775C32.1074 32.4515 31.7041 32.556 31.2357 32.6913C30.7755 32.8138 30.3229 32.9456 29.878 33.0866C29.4331 33.2277 29.0656 33.3681 28.7756 33.5081L29.3271 32.4859C29.4795 33.0645 29.5749 33.661 29.6134 34.2755C29.6625 34.8876 29.6945 35.5472 29.7095 36.2542C29.7141 36.5701 29.7216 36.9236 29.732 37.3147C29.7425 37.7059 29.7441 38.0825 29.7369 38.4447C29.7297 38.8069 29.7126 39.1002 29.6855 39.3247C29.6596 39.5052 29.5962 39.6666 29.4952 39.8089C29.3918 39.9408 29.2503 40.0263 29.0707 40.0656C28.8594 40.1119 28.6839 40.0464 28.5443 39.8693C28.4047 39.6922 28.3314 39.4406 28.3245 39.1142C28.3152 38.8759 28.3147 38.6028 28.323 38.295C28.329 37.9768 28.3274 37.6493 28.3181 37.3126C28.3089 36.9758 28.3013 36.6715 28.2956 36.3996C28.2946 35.8534 28.2678 35.3894 28.2151 35.0075C28.1706 34.6129 28.1262 34.2675 28.0817 33.9713C28.0477 33.6727 28.0267 33.3823 28.0186 33.0999C28.0304 32.8569 28.0857 32.6591 28.1843 32.5064C28.2936 32.3514 28.4638 32.2212 28.6951 32.116C29.0379 31.9645 29.4436 31.8212 29.912 31.6859C30.3886 31.5379 30.8793 31.4033 31.3841 31.2819C31.8995 31.1583 32.3896 31.0456 32.8545 30.9439C33.4673 30.8099 33.938 30.8326 34.2666 31.0121C34.5953 31.1915 34.7641 31.5971 34.7733 32.2289C34.7779 32.4465 34.7907 32.7497 34.8117 33.1385C34.8327 33.5273 34.8525 33.96 34.8711 34.4368C34.9002 34.9112 34.9411 35.3885 34.9938 35.8688C35.0441 36.3386 35.1085 36.7725 35.187 37.1706C35.2139 37.3396 35.2526 37.5114 35.303 37.6862C35.3534 37.8609 35.3821 38.0131 35.3891 38.1427C35.3879 38.285 35.3315 38.4285 35.2199 38.5731C35.1166 38.705 34.9645 38.7929 34.7638 38.8368Z" fill="#7831B2"/>
<path d="M39.2264 37.877C38.8671 37.9556 38.5631 37.9347 38.3143 37.8143C38.0761 37.6915 37.8789 37.5052 37.7229 37.2552C37.5645 36.9948 37.449 36.7032 37.3763 36.3803C37.3119 36.0447 37.2762 35.7137 37.2693 35.3874C37.2718 35.1028 37.2836 34.7614 37.3049 34.3634C37.3368 33.963 37.3756 33.5447 37.4216 33.1085C37.4675 32.6723 37.5141 32.2632 37.5612 31.8814C37.6188 31.4973 37.6676 31.197 37.7076 30.9806C37.763 30.5861 37.8212 30.2783 37.8823 30.0573C37.954 29.834 38.0691 29.705 38.2276 29.6703C38.3649 29.6403 38.5022 29.6594 38.6396 29.7277C38.7769 29.796 38.8884 29.8973 38.974 30.0316C39.0702 30.1635 39.1224 30.3215 39.1305 30.5055C39.1363 30.679 39.1163 30.9348 39.0704 31.2726C39.0245 31.6105 38.9709 31.9883 38.9097 32.406C38.8485 32.8237 38.7938 33.2455 38.7455 33.6713C38.6949 34.0867 38.673 34.4575 38.6799 34.7838C38.6798 35.0789 38.6985 35.3589 38.736 35.6239C38.7711 35.8785 38.8285 36.0845 38.9083 36.2419C38.9857 36.3889 39.0931 36.4473 39.2304 36.4173C39.5685 36.3434 39.9296 35.9529 40.3138 35.246C40.7084 34.5368 41.1108 33.591 41.521 32.4085C41.7137 31.8856 41.8764 31.4019 42.0092 30.9576C42.142 30.5133 42.2602 30.1269 42.3636 29.7983C42.4647 29.4593 42.5757 29.1891 42.6967 28.9878C42.8177 28.7865 42.9574 28.6685 43.1159 28.6339C43.3589 28.5807 43.5543 28.6363 43.7021 28.8007C43.8582 28.9523 43.965 29.1803 44.0224 29.4846C44.0833 29.7554 44.1477 30.091 44.2157 30.4914C44.2942 30.8895 44.375 31.298 44.4582 31.7169C44.539 32.1254 44.6246 32.5055 44.7148 32.8573C44.8825 33.4545 45.0519 33.9365 45.2232 34.3033C45.4026 34.6575 45.5551 34.941 45.6806 35.154C45.8062 35.3669 45.8801 35.5474 45.9023 35.6956C45.9175 35.8124 45.9052 35.9299 45.8652 36.0479C45.8229 36.1555 45.7612 36.2509 45.6802 36.3342C45.5992 36.4175 45.5006 36.4719 45.3843 36.4973C45.1413 36.5504 44.916 36.485 44.7083 36.301C44.5111 36.1146 44.3258 35.8328 44.1522 35.4555C43.9786 35.0782 43.8056 34.6298 43.6333 34.1102C43.5277 33.7399 43.4164 33.3435 43.2991 32.9211C43.1925 32.4964 43.0964 32.0694 43.0109 31.6401C42.9359 31.2084 42.868 30.8081 42.8071 30.4389L43.3018 30.4946C43.2289 30.7619 43.149 31.0471 43.062 31.3502C42.9856 31.6511 42.8857 31.9953 42.7623 32.3829C42.6471 32.7578 42.4985 33.2055 42.3163 33.7262C42.0837 34.3672 41.8134 34.989 41.5057 35.5918C41.1956 36.1842 40.8497 36.6915 40.468 37.1137C40.0946 37.5232 39.6807 37.7777 39.2264 37.877Z" fill="#7831B2"/>
<path d="M53.8772 34.6724C53.5602 34.7417 53.1904 34.7243 52.7679 34.62C52.343 34.5053 51.9093 34.327 51.4669 34.085C51.035 33.8407 50.6248 33.5698 50.2364 33.2723C49.8585 32.9725 49.5476 32.6745 49.3035 32.3782C49.1603 32.2346 49.0577 32.0986 48.9955 31.9702C48.9416 31.829 48.9047 31.6895 48.8847 31.5518C48.8977 31.4616 48.9189 31.3586 48.9483 31.2429C48.9776 31.1272 49.0252 31.0184 49.091 30.9166C49.1803 30.7223 49.3465 30.451 49.5896 30.1027C49.8327 29.7545 50.1187 29.3751 50.4475 28.9644C50.7846 28.541 51.1381 28.1413 51.508 27.7653C51.8861 27.3766 52.2495 27.0458 52.5983 26.7728C52.9576 26.4976 53.2799 26.3287 53.5651 26.2663C53.6813 26.2409 53.777 26.2473 53.8521 26.2855C53.9378 26.3214 54.0059 26.3775 54.0563 26.4539C54.1068 26.5303 54.1361 26.6113 54.1443 26.6969C54.1853 26.9284 54.0813 27.1806 53.8323 27.4536C53.5834 27.7266 53.3097 27.9886 53.0115 28.2396C52.4843 28.7046 52.0245 29.1494 51.6323 29.574C51.2401 29.9985 50.9295 30.367 50.7004 30.6793C50.482 30.9894 50.3792 31.1976 50.3921 31.3041C50.3944 31.4129 50.5041 31.5801 50.7211 31.8058C50.9359 32.0211 51.2433 32.2544 51.6435 32.5056C52.0414 32.7464 52.4927 32.9536 52.9973 33.1274C53.2262 33.2084 53.4486 33.2855 53.6646 33.3584C53.8888 33.4187 54.0719 33.4934 54.2139 33.5825C54.3641 33.6589 54.4492 33.766 54.4691 33.9037C54.4843 34.0206 54.4707 34.1328 54.4284 34.2404C54.3861 34.348 54.3127 34.4405 54.2082 34.518C54.1143 34.5932 54.0039 34.6447 53.8772 34.6724ZM48.5961 35.8112C48.3214 35.8712 48.1061 35.7763 47.95 35.5263C47.7917 35.2659 47.675 34.8707 47.6001 34.3407C47.5334 33.798 47.4896 33.1355 47.4688 32.3533C47.4619 32.027 47.462 31.6827 47.4692 31.3205C47.4869 30.9561 47.5047 30.5916 47.5224 30.2271C47.5378 29.8522 47.5397 29.4911 47.5281 29.144C47.5305 29.0561 47.5276 28.9693 47.5194 28.8836C47.5194 28.7853 47.5142 28.6881 47.5036 28.592C47.499 28.3745 47.5185 28.1899 47.562 28.0384C47.6054 27.8868 47.6665 27.7642 47.7452 27.6705C47.8321 27.564 47.9284 27.4993 48.0341 27.4761C48.2771 27.423 48.4919 27.4907 48.6784 27.6794C48.8732 27.8554 48.9717 28.1453 48.9739 28.5491C48.9797 28.821 48.9678 29.1624 48.9383 29.5731C48.917 29.9712 48.8928 30.3808 48.8657 30.802C48.8385 31.2232 48.8272 31.5917 48.8318 31.9076C48.8586 32.47 48.8936 32.9705 48.9369 33.409C48.9907 33.8453 49.044 34.2052 49.0967 34.4887C49.1471 34.7618 49.1681 34.9539 49.1599 35.065C49.1669 35.1946 49.1439 35.3143 49.0911 35.4242C49.0464 35.5214 48.9812 35.6013 48.8955 35.6637C48.8227 35.7343 48.7229 35.7834 48.5961 35.8112Z" fill="#7831B2"/>
<path d="M57.2848 33.927C57.0312 33.9825 56.8111 33.9159 56.6246 33.7272C56.438 33.5386 56.2855 33.255 56.1671 32.8766C56.0569 32.4855 55.9949 32.0128 55.981 31.4585C55.9835 30.8788 56.0324 30.431 56.1276 30.1151C56.231 29.7865 56.3767 29.547 56.5646 29.3966C56.6667 29.3087 56.8223 29.2365 57.0313 29.1798C57.2379 29.1128 57.4574 29.0538 57.6899 29.003C58.4611 28.8343 59.2136 28.6314 59.9474 28.3944C60.6894 28.1447 61.3991 27.8256 62.0765 27.437L62.6044 28.4525C62.1019 28.781 61.5453 29.0666 60.9349 29.3095C60.3244 29.5523 59.6963 29.7661 59.0506 29.9511C58.4131 30.1233 57.788 30.2764 57.1752 30.4105L56.2243 30.4709C56.2234 29.8264 56.2207 29.1495 56.2163 28.4402C56.2119 27.7308 56.2027 27.099 56.1888 26.5448C56.1748 26.2856 56.2137 26.064 56.3053 25.88C56.3969 25.6961 56.522 25.5868 56.6805 25.5521C56.9446 25.4943 57.1635 25.5557 57.3372 25.7363C57.5085 25.9064 57.5958 26.2206 57.5992 26.6789C57.6085 26.9172 57.6072 27.2071 57.5953 27.5484C57.5835 27.8898 57.5698 28.2479 57.5544 28.6228C57.5496 28.9954 57.5412 29.3524 57.5294 29.6937C57.5257 30.0224 57.5262 30.2955 57.5308 30.513C57.54 31.1448 57.5668 31.7072 57.6112 32.2001C57.6638 32.6804 57.696 33.0449 57.7076 33.2936C57.7087 33.4464 57.667 33.5812 57.5824 33.698C57.5108 33.823 57.4116 33.8993 57.2848 33.927ZM62.7525 32.7311C62.4883 32.7889 62.2642 32.6794 62.08 32.4028C61.9063 32.1239 61.7662 31.7229 61.6596 31.1999C61.5612 30.6641 61.5039 30.0647 61.4877 29.4016C61.474 28.3556 61.4808 27.5236 61.508 26.9057C61.5435 26.2751 61.5912 25.7729 61.6512 25.3991C61.6842 25.1515 61.7441 24.9253 61.8311 24.7205C61.918 24.5158 62.0513 24.3937 62.2309 24.3544C62.4633 24.3036 62.6517 24.3771 62.796 24.575C62.9485 24.7602 63.0271 25.0108 63.0317 25.3267C63.0421 25.7178 63.0173 26.1494 62.9572 26.6215C62.9078 27.0913 62.8929 27.5917 62.9127 28.1228C62.9265 28.7755 62.9644 29.3627 63.0264 29.8846C63.0967 30.3938 63.1652 30.8214 63.232 31.1674C63.2988 31.5134 63.3298 31.7743 63.325 31.9502C63.3355 32.1446 63.285 32.3141 63.1734 32.4587C63.0618 32.6033 62.9215 32.6941 62.7525 32.7311Z" fill="#7831B2"/>
<path d="M67.3943 31.7158C67.0351 31.7943 66.731 31.7734 66.4822 31.653C66.244 31.5303 66.0468 31.3439 65.8908 31.0939C65.7324 30.8335 65.6169 30.5419 65.5443 30.219C65.4798 29.8834 65.4442 29.5525 65.4372 29.2262C65.4397 28.9415 65.4516 28.6002 65.4728 28.2021C65.5047 27.8018 65.5436 27.3835 65.5895 26.9472C65.6355 26.511 65.682 26.102 65.7291 25.7201C65.7867 25.336 65.8356 25.0357 65.8756 24.8194C65.9309 24.4248 65.9891 24.117 66.0502 23.896C66.1219 23.6727 66.237 23.5437 66.3955 23.5091C66.5328 23.479 66.6702 23.4981 66.8075 23.5665C66.9448 23.6348 67.0563 23.7361 67.1419 23.8703C67.2381 24.0023 67.2903 24.1602 67.2984 24.3442C67.3042 24.5178 67.2842 24.7735 67.2383 25.1114C67.1924 25.4492 67.1388 25.827 67.0776 26.2447C67.0164 26.6624 66.9617 27.0842 66.9134 27.51C66.8628 27.9254 66.8409 28.2963 66.8478 28.6226C66.8477 28.9176 66.8664 29.1977 66.9039 29.4627C66.939 29.7173 66.9964 29.9232 67.0762 30.0806C67.1536 30.2276 67.261 30.2861 67.3984 30.256C67.7365 30.1821 68.0976 29.7917 68.4817 29.0848C68.8764 28.3756 69.2788 27.4297 69.6889 26.2473C69.8816 25.7243 70.0443 25.2407 70.1772 24.7964C70.31 24.3521 70.4281 23.9656 70.5315 23.637C70.6326 23.298 70.7436 23.0279 70.8646 22.8266C70.9856 22.6253 71.1253 22.5073 71.2838 22.4726C71.5268 22.4194 71.7222 22.475 71.8701 22.6394C72.0261 22.791 72.1329 23.019 72.1903 23.3234C72.2512 23.5942 72.3157 23.9298 72.3836 24.3301C72.4621 24.7282 72.5429 25.1367 72.6261 25.5556C72.707 25.9641 72.7925 26.3443 72.8828 26.6961C73.0504 27.2932 73.2198 27.7752 73.3911 28.142C73.5705 28.4962 73.723 28.7797 73.8486 28.9927C73.9741 29.2056 74.048 29.3862 74.0702 29.5343C74.0854 29.6512 74.0731 29.7686 74.0331 29.8866C73.9908 29.9942 73.9291 30.0897 73.8481 30.173C73.7671 30.2563 73.6685 30.3106 73.5523 30.336C73.3092 30.3892 73.0839 30.3237 72.8762 30.1397C72.6791 29.9533 72.4937 29.6715 72.3201 29.2942C72.1465 28.917 71.9735 28.4685 71.8012 27.9489C71.6957 27.5786 71.5843 27.1822 71.4671 26.7598C71.3604 26.3351 71.2643 25.9081 71.1788 25.4788C71.1038 25.0472 71.0359 24.6468 70.975 24.2776L71.4697 24.3333C71.3969 24.6006 71.3169 24.8858 71.2299 25.189C71.1535 25.4898 71.0536 25.834 70.9302 26.2216C70.8151 26.5965 70.6664 27.0443 70.4843 27.5649C70.2516 28.2059 69.9814 28.8278 69.6736 29.4305C69.3635 30.0229 69.0176 30.5302 68.6359 30.9524C68.2625 31.3619 67.8486 31.6164 67.3943 31.7158Z" fill="#7831B2"/>
<path d="M82.0451 28.5111C81.7281 28.5805 81.3583 28.563 80.9358 28.4587C80.5109 28.344 80.0772 28.1657 79.6348 27.9237C79.2029 27.6795 78.7927 27.4086 78.4043 27.1111C78.0264 26.8112 77.7155 26.5132 77.4714 26.2169C77.3283 26.0734 77.2256 25.9374 77.1634 25.8089C77.1095 25.6677 77.0726 25.5283 77.0527 25.3906C77.0656 25.3003 77.0868 25.1973 77.1162 25.0816C77.1456 24.9659 77.1931 24.8572 77.2589 24.7554C77.3482 24.561 77.5144 24.2897 77.7575 23.9415C78.0006 23.5932 78.2866 23.2138 78.6154 22.8031C78.9525 22.3797 79.306 21.98 79.6759 21.6041C80.054 21.2154 80.4174 20.8846 80.7662 20.6116C81.1255 20.3363 81.4478 20.1674 81.733 20.105C81.8493 20.0796 81.9449 20.086 82.02 20.1242C82.1057 20.1601 82.1738 20.2163 82.2242 20.2927C82.2747 20.369 82.304 20.45 82.3122 20.5357C82.3532 20.7671 82.2492 21.0193 82.0002 21.2923C81.7513 21.5654 81.4777 21.8274 81.1794 22.0784C80.6522 22.5434 80.1925 22.9882 79.8002 23.4127C79.408 23.8372 79.0974 24.2057 78.8684 24.5181C78.6499 24.8281 78.5471 25.0364 78.56 25.1428C78.5623 25.2516 78.672 25.4188 78.8891 25.6445C79.1038 25.8598 79.4113 26.0931 79.8115 26.3443C80.2093 26.5851 80.6606 26.7924 81.1653 26.9661C81.3941 27.0472 81.6165 27.1242 81.8325 27.1972C82.0567 27.2574 82.2398 27.3321 82.3818 27.4212C82.532 27.4976 82.6171 27.6047 82.637 27.7424C82.6522 27.8593 82.6387 27.9715 82.5964 28.0791C82.5541 28.1867 82.4807 28.2793 82.3762 28.3568C82.2822 28.432 82.1719 28.4834 82.0451 28.5111ZM76.7641 29.6499C76.4894 29.71 76.274 29.615 76.118 29.365C75.9596 29.1046 75.8429 28.7094 75.768 28.1794C75.7013 27.6367 75.6575 26.9743 75.6367 26.192C75.6298 25.8657 75.6299 25.5215 75.6371 25.1593C75.6548 24.7948 75.6726 24.4303 75.6903 24.0658C75.7057 23.6909 75.7076 23.3299 75.696 22.9827C75.6984 22.8948 75.6955 22.808 75.6873 22.7224C75.6873 22.624 75.6821 22.5268 75.6716 22.4308C75.667 22.2132 75.6864 22.0287 75.7299 21.8771C75.7734 21.7255 75.8344 21.6029 75.9131 21.5092C76 21.4028 76.0963 21.338 76.202 21.3149C76.445 21.2617 76.6598 21.3295 76.8463 21.5181C77.0411 21.6941 77.1396 21.984 77.1418 22.3878C77.1476 22.6598 77.1357 23.0011 77.1062 23.4119C77.085 23.8099 77.0607 24.2195 77.0336 24.6407C77.0064 25.0619 76.9951 25.4305 76.9997 25.7464C77.0265 26.3087 77.0615 26.8092 77.1048 27.2478C77.1586 27.684 77.2119 28.0439 77.2646 28.3274C77.315 28.6005 77.3361 28.7926 77.3278 28.9037C77.3348 29.0333 77.3119 29.1531 77.259 29.263C77.2143 29.3602 77.1492 29.44 77.0635 29.5024C76.9906 29.573 76.8908 29.6222 76.7641 29.6499Z" fill="#7831B2"/>
<path d="M87.6094 27.2777C86.7325 27.4695 86.0158 27.4623 85.4595 27.2562C84.9008 27.0396 84.4866 26.6767 84.2168 26.1675C83.9446 25.6479 83.7999 25.0293 83.7826 24.3119C83.7839 23.7761 83.8698 23.2219 84.0403 22.6492C84.2189 22.0637 84.4768 21.5101 84.8139 20.9883C85.1615 20.4643 85.5766 20.0183 86.0592 19.6505C86.55 19.27 87.0966 19.0138 87.6988 18.8821C88.2588 18.7596 88.7383 18.7476 89.1374 18.8461C89.547 18.9422 89.8592 19.1472 90.0739 19.4608C90.2992 19.7721 90.4176 20.1997 90.4291 20.7436C90.4523 21.3395 90.3025 21.8804 89.9795 22.3663C89.6542 22.8418 89.2085 23.2507 88.6426 23.5931C88.0872 23.9331 87.4609 24.1794 86.7636 24.3319C86.0451 24.4891 85.5456 24.5109 85.2651 24.3974C84.9952 24.2816 84.8579 24.1149 84.8533 23.8974C84.8463 23.7678 84.8739 23.6689 84.9361 23.6006C84.996 23.5219 85.1052 23.4653 85.2637 23.4306C85.3799 23.4052 85.522 23.396 85.6898 23.403C85.8659 23.3972 86.1177 23.3586 86.4453 23.2869C86.9735 23.1714 87.4326 22.9945 87.8224 22.7562C88.2228 22.5156 88.5322 22.2403 88.7506 21.9303C88.9667 21.6098 89.0743 21.2749 89.0732 20.9254C89.0663 20.5991 88.9713 20.374 88.7882 20.2502C88.6157 20.124 88.3234 20.1059 87.9114 20.1961C87.4993 20.2862 87.1242 20.4666 86.786 20.7373C86.4561 20.9952 86.1625 21.3162 85.9053 21.7003C85.6586 22.0821 85.4701 22.5003 85.3396 22.9551C85.2091 23.4098 85.152 23.8703 85.1683 24.3366C85.1787 24.7277 85.2508 25.0726 85.3845 25.3712C85.5158 25.6593 85.7306 25.8746 86.0287 26.017C86.335 26.1467 86.7312 26.1584 87.2172 26.0521C87.7666 25.9319 88.2215 25.7614 88.582 25.5405C88.9507 25.3069 89.2513 25.0663 89.4838 24.8187C89.7163 24.5712 89.9124 24.3589 90.0721 24.1819C90.2318 24.0049 90.3857 23.9002 90.5336 23.8679C90.7132 23.8286 90.8552 23.8686 90.9596 23.9878C91.0723 24.0943 91.1309 24.2563 91.1355 24.4738C91.1401 24.6914 91.0467 24.9413 90.8553 25.2236C90.6721 25.4931 90.4125 25.7684 90.0767 26.0495C89.7514 26.3283 89.3757 26.5799 88.9495 26.8042C88.5316 27.0158 88.0848 27.1737 87.6094 27.2777Z" fill="#7831B2"/>
</g>
</svg>
