<svg width="173" height="112" viewBox="0 0 173 112" fill="none" xmlns="http://www.w3.org/2000/svg">
<path d="M66.3358 53.1641C66.294 53.583 66.5999 53.9564 67.019 53.9981C67.438 54.0398 67.8116 53.734 67.8532 53.3151L66.3358 53.1641ZM172.991 2.11669C173.055 1.70063 172.77 1.31127 172.353 1.24701L165.571 0.19993C165.155 0.135676 164.766 0.420867 164.702 0.836919C164.637 1.25298 164.922 1.64234 165.339 1.7066L171.367 2.63734L170.436 8.66401C170.371 9.08007 170.657 9.46944 171.073 9.53369C171.489 9.59794 171.878 9.31275 171.944 8.8967L172.991 2.11669ZM66.431 53.7429C66.3892 54.1617 66.6951 54.5352 67.1142 54.5769C67.5332 54.6186 67.9068 54.3128 67.9484 53.8939L66.431 53.7429ZM67.8532 53.3151C68.8724 43.0802 72.4712 28.3147 79.9094 17.1628C83.6234 11.5943 88.2711 6.96214 93.9973 4.22146C99.7097 1.48725 106.553 0.607774 114.726 2.63217L115.093 1.15238C106.603 -0.950504 99.3943 -0.0520683 93.3388 2.8464C87.2964 5.73839 82.458 10.5936 78.6405 16.317C71.0158 27.7487 67.3694 42.7841 66.3358 53.1641L67.8532 53.3151ZM114.726 2.63217C114.865 2.66672 115.005 2.7021 115.146 2.73835L115.527 1.26235C115.382 1.22482 115.237 1.18817 115.093 1.15238L114.726 2.63217ZM115.146 2.73835C132.035 7.10294 145.105 8.02053 154.6 7.38018C164.064 6.74187 170.046 4.54982 172.688 2.6153L171.786 1.38539C169.48 3.07386 163.835 5.22938 154.497 5.8591C145.19 6.48679 132.284 5.5929 115.527 1.26235L115.146 2.73835ZM67.9484 53.8939C68.9678 43.6571 72.5437 28.7464 79.9603 17.4494C83.6638 11.8081 88.3007 7.10488 94.0181 4.31127C99.7207 1.52466 106.556 0.609606 114.726 2.63217L115.093 1.15238C106.601 -0.949896 99.3963 -0.0134632 93.3485 2.94159C87.3151 5.88963 82.4897 10.8182 78.6854 16.6129C71.0865 28.1876 67.4645 43.3647 66.431 53.7429L67.9484 53.8939ZM115.146 2.73835C132.022 7.09989 144.835 8.33468 154.074 8.01371C163.279 7.69394 169.028 5.82627 171.686 3.87983L170.785 2.64993C168.496 4.32646 163.118 6.1741 154.021 6.4901C144.959 6.8049 132.296 5.59596 115.527 1.26235L115.146 2.73835Z" fill="#7831B2"/>
<path d="M10.2647 94.4526C10.0066 94.5098 9.79553 94.446 9.6313 94.2609C9.46458 94.0641 9.27702 93.7181 9.06874 93.2229C8.8929 92.819 8.71256 92.3113 8.52771 91.7002C8.35457 91.0864 8.19125 90.4336 8.03774 89.7417C7.89335 89.0354 7.77559 88.3662 7.68467 87.7343C7.58583 86.9565 7.49421 86.2939 7.40969 85.7466C7.33689 85.1967 7.25368 84.766 7.15996 84.4545C7.07534 84.1288 6.96922 83.9001 6.84153 83.7685C6.71386 83.6368 6.54444 83.5944 6.33328 83.6412C6.01655 83.7115 5.66778 84.0534 5.28698 84.667C4.91531 85.2663 4.54356 86.087 4.17173 87.1293C3.79989 88.1715 3.46252 89.3969 3.15963 90.8053C2.85414 92.202 2.61637 93.7375 2.44631 95.4118C2.41624 95.6646 2.351 95.8698 2.25058 96.0274C2.14756 96.1733 2.00807 96.2658 1.83211 96.3048C1.5623 96.3646 1.34922 96.3197 1.19288 96.1697C1.03393 96.0081 0.949338 95.6824 0.939094 95.1925C0.92892 94.481 0.978718 93.7625 1.08847 93.0367C1.20734 92.2966 1.34968 91.5514 1.51548 90.8009C1.67868 90.0387 1.82428 89.2804 1.95229 88.526C2.09202 87.769 2.17896 87.0238 2.21312 86.2903C2.21321 86.0687 2.25303 85.8876 2.33258 85.7469C2.42126 85.5919 2.54772 85.4961 2.71196 85.4598C2.87619 85.4233 3.03323 85.4377 3.1831 85.5029C3.34468 85.5655 3.48866 85.6873 3.61501 85.8685L2.98929 86.2104C3.48372 84.944 3.97738 83.9793 4.47029 83.3162C4.97492 82.6506 5.53812 82.2488 6.15985 82.1108C6.84024 81.9599 7.36543 82.0526 7.73544 82.3888C8.10554 82.7252 8.39333 83.3012 8.59891 84.1169C8.80458 84.9326 8.99444 86.0103 9.16858 87.3498C9.29074 88.3439 9.44746 89.189 9.63881 89.8849C9.83017 90.5807 10.0098 91.1684 10.1777 91.6479C10.3575 92.1249 10.5072 92.5223 10.627 92.8403C10.7467 93.1582 10.8105 93.4456 10.8182 93.7023C10.8247 93.8977 10.7751 94.0626 10.6695 94.1967C10.5756 94.3283 10.4407 94.4136 10.2647 94.4526ZM0.771788 92.9408C0.513708 92.9981 0.318874 92.9798 0.187265 92.8859C0.0556671 92.792 -0.00618664 92.652 0.00169404 92.4657C-0.00867001 92.308 0.0285203 92.1706 0.113285 92.0534C0.207172 91.9217 0.368181 91.7876 0.59632 91.6508C1.85041 90.8681 3.2915 90.1793 4.91958 89.5843C6.55939 88.9868 8.33535 88.4759 10.2475 88.0517C10.6581 87.9606 10.9351 87.9607 11.0784 88.052C11.2335 88.1406 11.3123 88.3016 11.3148 88.5348C11.3199 88.7798 11.2116 89.0129 10.9899 89.2345C10.7657 89.4441 10.4424 89.5958 10.0201 89.6895C8.6711 89.9888 7.53637 90.2836 6.61615 90.5738C5.70502 90.8498 4.94573 91.1167 4.33828 91.3744C3.72823 91.6205 3.21334 91.8516 2.79358 92.0678C2.38555 92.2814 2.02643 92.4656 1.71618 92.6206C1.41505 92.7612 1.10025 92.868 0.771788 92.9408ZM14.6647 93.5135C14.3831 93.576 14.1388 93.5009 13.9317 93.2885C13.7246 93.076 13.5552 92.7567 13.4237 92.3306C13.3014 91.8902 13.2325 91.3579 13.2171 90.7337C13.2199 90.3025 13.2428 89.9344 13.286 89.6295C13.3408 89.3221 13.4145 89.0719 13.5072 88.8791C13.6089 88.6719 13.7282 88.5162 13.865 88.4121C13.9785 88.3131 14.1512 88.2317 14.3832 88.1679C14.6127 88.0924 14.8564 88.026 15.1144 87.9687C15.9708 87.7788 16.8063 87.5504 17.621 87.2835C18.4448 87.0023 19.2328 86.6429 19.985 86.2054L20.5711 87.349C20.0132 87.7189 19.3952 88.0405 18.7174 88.3139C18.0396 88.5873 17.3422 88.8281 16.6253 89.0364C15.9175 89.2303 15.2234 89.4027 14.5431 89.5537L13.4873 89.6218C13.4888 89.1293 13.4876 88.6249 13.4839 88.109C13.4802 87.593 13.4719 87.0842 13.4591 86.5826C13.458 86.0783 13.4543 85.6176 13.4479 85.2007C13.4324 84.9089 13.4754 84.6593 13.5772 84.4522C13.6789 84.2451 13.8178 84.122 13.9937 84.0829C14.287 84.0178 14.53 84.087 14.7229 84.2903C14.9131 84.4819 15.0101 84.8357 15.0138 85.3517C15.0241 85.6201 15.0227 85.9465 15.0095 86.3309C14.9964 86.7153 14.9812 87.1185 14.9641 87.5407C14.9587 87.9602 14.9494 88.3622 14.9363 88.7466C14.9322 89.1166 14.9328 89.4242 14.9379 89.6691C14.9481 90.3806 14.9779 91.0138 15.0271 91.5688C15.0856 92.1096 15.1212 92.52 15.1342 92.8002C15.1355 92.9722 15.0891 93.124 14.9953 93.2556C14.9157 93.3963 14.8055 93.4823 14.6647 93.5135ZM20.7355 92.1668C20.4423 92.2318 20.1933 92.1086 19.9888 91.7972C19.7961 91.483 19.6405 91.0316 19.5221 90.4426C19.4129 89.8392 19.3492 89.1643 19.3313 88.4177C19.316 87.2398 19.3235 86.303 19.3538 85.6071C19.3931 84.897 19.4461 84.3316 19.5128 83.9107C19.5493 83.6318 19.6159 83.3772 19.7125 83.1465C19.809 82.916 19.957 82.7785 20.1564 82.7343C20.4145 82.677 20.6236 82.7599 20.7838 82.9827C20.9532 83.1913 21.0405 83.4734 21.0455 83.829C21.0571 84.2695 21.0296 84.7555 20.9629 85.2871C20.9079 85.8161 20.8915 86.3796 20.9134 86.9777C20.9287 87.7126 20.9709 88.3739 21.0397 88.9615C21.1177 89.5349 21.1938 90.0163 21.2679 90.4059C21.3421 90.7955 21.3765 91.0894 21.3712 91.2874C21.3828 91.5064 21.3268 91.6972 21.2029 91.8601C21.079 92.0229 20.9232 92.1251 20.7355 92.1668ZM25.1909 91.1599C24.9094 91.2224 24.6696 91.1403 24.4715 90.9134C24.2853 90.6841 24.159 90.3368 24.0927 89.8716C24.0602 89.6696 24.0342 89.3862 24.0148 89.0213C23.9954 88.6566 23.9785 88.248 23.9644 87.7959C23.9476 87.3321 23.9309 86.8682 23.9141 86.4044C23.9091 85.9379 23.9001 85.5091 23.8872 85.1183C23.886 84.7248 23.8842 84.4114 23.8817 84.1782C23.8637 83.5423 23.9232 83.0615 24.0602 82.7358C24.2063 82.3958 24.4722 82.1522 24.858 82.0051C25.2204 81.8632 25.6102 81.7336 26.0272 81.6165C26.4535 81.4851 26.8778 81.3724 27.3001 81.2788C27.7693 81.1747 28.2555 81.0914 28.7586 81.0291C29.2591 80.955 29.6429 80.9375 29.9101 80.9766C30.0639 81.0041 30.1832 81.0699 30.2678 81.1741C30.3499 81.2667 30.3935 81.3801 30.3986 81.5143C30.4038 81.7593 30.2949 81.9619 30.072 82.122C29.849 82.2822 29.5968 82.3935 29.3153 82.456C29.0689 82.5107 28.8434 82.5484 28.6388 82.5691C28.4342 82.5899 28.2132 82.6205 27.976 82.6608C27.7361 82.6894 27.4227 82.7466 27.0356 82.8325C26.5664 82.9366 26.1727 83.0485 25.8547 83.1684C25.5366 83.2881 25.1827 83.4404 24.793 83.6253L25.5303 82.8711C25.4818 83.3741 25.4451 83.9298 25.4201 84.5383C25.4069 85.1441 25.4105 85.8816 25.431 86.7507C25.4412 87.3514 25.4684 87.9176 25.5125 88.4492C25.5541 88.9691 25.5962 89.4089 25.6391 89.7685C25.682 90.1281 25.7034 90.3634 25.7034 90.4741C25.7098 90.6695 25.6635 90.8214 25.5644 90.9295C25.4679 91.0493 25.3434 91.1261 25.1909 91.1599ZM30.9302 89.9237C30.7659 89.9601 30.6253 89.936 30.5079 89.8512C30.4051 89.7756 30.3235 89.6583 30.2637 89.4994C30.1921 89.343 30.1589 89.1658 30.1642 88.9677C30.1642 88.7462 30.2133 88.44 30.3111 88.0491C30.4182 87.644 30.563 87.1873 30.7457 86.6792C30.9258 86.1594 31.1175 85.637 31.321 85.1119C31.5428 84.5582 31.7717 84.009 32.0078 83.4645C32.2531 82.9056 32.4924 82.4033 32.7259 81.9579C32.9567 81.5006 33.153 81.1371 33.3147 80.8674C33.5703 80.4662 33.8279 80.1568 34.0872 79.9393C34.3559 79.7074 34.6427 79.5577 34.9476 79.4901C35.2292 79.4276 35.4449 79.4843 35.5947 79.6602C35.7419 79.8245 35.8774 80.0466 36.0011 80.3268C36.1274 80.6188 36.2596 80.9647 36.3976 81.3648C36.5356 81.7649 36.6821 82.1754 36.837 82.5962C36.9894 83.0055 37.1508 83.4003 37.3214 83.7808C37.5245 84.2526 37.7063 84.6552 37.8664 84.9889C38.0383 85.3198 38.1926 85.5994 38.3294 85.8275C38.4779 86.0529 38.6128 86.2445 38.7338 86.4022C38.8498 86.5364 38.9443 86.657 39.0172 86.7639C39.0902 86.8708 39.1351 86.99 39.152 87.1215C39.1741 87.2766 39.1597 87.4337 39.1089 87.5926C39.0579 87.7515 38.9758 87.8805 38.8623 87.9795C38.7633 88.0877 38.6374 88.1586 38.4849 88.1925C38.2621 88.2418 38.0392 88.1805 37.8164 88.0085C37.6027 87.8221 37.3897 87.5556 37.1774 87.2089C36.9651 86.8623 36.758 86.4837 36.5562 86.0732C36.4376 85.8165 36.282 85.4757 36.0893 85.0508C35.9057 84.6117 35.7143 84.1374 35.5151 83.6278C35.3132 83.1066 35.1284 82.6061 34.9603 82.1266C34.8041 81.6444 34.6838 81.2405 34.5991 80.9148L34.9823 80.9774C34.7215 81.3551 34.4495 81.8215 34.1666 82.3765C33.8927 82.9172 33.6129 83.5145 33.3272 84.1685C33.0532 84.8199 32.7904 85.4935 32.5385 86.1892C32.2985 86.8823 32.0877 87.5689 31.9064 88.249C31.7498 88.7637 31.6037 89.1591 31.468 89.4353C31.3441 89.7089 31.1648 89.8716 30.9302 89.9237ZM42.7812 87.2763C42.3823 87.3648 42.0448 87.3412 41.7686 87.2056C41.504 87.0674 41.2851 86.8576 41.1119 86.5761C40.936 86.2828 40.8078 85.9544 40.7271 85.5909C40.6555 85.213 40.616 84.8403 40.6083 84.4729C40.611 84.1524 40.6242 83.768 40.6478 83.3198C40.6832 82.8689 40.7263 82.3979 40.7773 81.9067C40.8284 81.4155 40.8801 80.9549 40.9323 80.5249C40.9963 80.0924 41.0506 79.7543 41.0949 79.5107C41.1563 79.0663 41.221 78.7197 41.2889 78.471C41.3685 78.2195 41.4963 78.0743 41.6722 78.0352C41.8247 78.0014 41.9772 78.0229 42.1296 78.0999C42.2822 78.1768 42.4059 78.2908 42.5009 78.4419C42.6078 78.5906 42.6658 78.7684 42.6748 78.9756C42.6812 79.171 42.659 79.459 42.608 79.8394C42.557 80.2199 42.4975 80.6453 42.4297 81.1157C42.3617 81.5861 42.3009 82.061 42.2473 82.5404C42.191 83.0082 42.1668 83.4258 42.1745 83.7932C42.1743 84.1255 42.1951 84.4408 42.2367 84.7392C42.2756 85.0259 42.3394 85.2579 42.4281 85.435C42.514 85.6005 42.6332 85.6664 42.7857 85.6326C43.1611 85.5493 43.562 85.1097 43.9886 84.3137C44.4268 83.5151 44.8736 82.45 45.3289 81.1186C45.5429 80.5297 45.7235 79.9851 45.871 79.4847C46.0185 78.9844 46.1496 78.5494 46.2645 78.1793C46.3767 77.7976 46.5 77.4933 46.6343 77.2667C46.7686 77.04 46.9237 76.9071 47.0997 76.8681C47.3695 76.8082 47.5865 76.8709 47.7507 77.056C47.9239 77.2267 48.0425 77.4834 48.1061 77.8261C48.1738 78.131 48.2454 78.5089 48.3208 78.9598C48.408 79.4081 48.4978 79.868 48.5901 80.3398C48.6798 80.7996 48.7749 81.2278 48.8751 81.6239C49.0611 82.2963 49.2493 82.839 49.4395 83.2521C49.6387 83.6509 49.8081 83.9702 49.9473 84.2099C50.0867 84.4498 50.1687 84.653 50.1935 84.8199C50.2104 84.9514 50.1967 85.0837 50.1523 85.2166C50.1054 85.3377 50.0369 85.4453 49.9469 85.5391C49.8569 85.6329 49.7475 85.694 49.6184 85.7226C49.3485 85.7825 49.0984 85.7088 48.8678 85.5015C48.6489 85.2917 48.4431 84.9744 48.2503 84.5495C48.0576 84.1247 47.8655 83.6197 47.6742 83.0346C47.557 82.6177 47.4333 82.1713 47.3032 81.6957C47.1848 81.2175 47.0781 80.7367 46.9831 80.2533C46.8999 79.7671 46.8244 79.3164 46.7568 78.9006L47.3062 78.9634C47.2253 79.2643 47.1365 79.5855 47.0399 79.9268C46.9551 80.2656 46.8441 80.6532 46.7072 81.0896C46.5793 81.5118 46.4143 82.0159 46.212 82.6022C45.9536 83.324 45.6536 84.0243 45.3119 84.7031C44.9676 85.3701 44.5836 85.9413 44.1598 86.4168C43.7451 86.8779 43.2856 87.1644 42.7812 87.2763ZM56.053 73.2392C55.5602 73.3486 55.1204 73.3354 54.7333 73.1998C54.3437 73.0524 54.0317 72.8386 53.7972 72.5584C53.56 72.2665 53.4148 71.9726 53.3615 71.6768C53.3147 71.3549 53.3481 71.0892 53.4615 70.8794C53.575 70.6697 53.7432 70.5401 53.9661 70.4906C54.142 70.4516 54.2931 70.5227 54.4195 70.7039C54.555 70.8706 54.7016 71.0596 54.8592 71.2708C55.0025 71.4728 55.1686 71.6389 55.3576 71.7693C55.5582 71.897 55.8228 71.9244 56.1513 71.8517C56.3742 71.8022 56.5885 71.6869 56.7945 71.5059C56.9979 71.3131 57.1765 71.1197 57.3304 70.9256C57.5416 70.6572 57.7314 70.4306 57.8996 70.2456C58.0651 70.0489 58.2477 69.9284 58.4472 69.8842C58.5879 69.853 58.7052 69.8823 58.799 69.9723C58.9019 70.0479 58.9468 70.1671 58.9337 70.33C58.9219 70.5541 58.8449 70.8173 58.7028 71.1195C58.5697 71.4074 58.3755 71.6966 58.1198 71.9871C57.8643 72.2776 57.5586 72.5361 57.2027 72.7627C56.8585 72.9868 56.4753 73.1455 56.053 73.2392ZM54.1055 84.7641C53.7066 84.8526 53.3691 84.8291 53.0928 84.6935C52.8282 84.5553 52.6093 84.3455 52.4361 84.064C52.2603 83.7707 52.132 83.4423 52.0514 83.0788C51.9798 82.7009 51.9402 82.3283 51.9325 81.9608C51.9352 81.6402 51.9485 81.2559 51.9721 80.8076C52.0074 80.3569 52.0506 79.8859 52.1016 79.3947C52.1526 78.9034 52.2043 78.4428 52.2566 78.0129C52.3206 77.5803 52.3748 77.2422 52.4192 76.9985C52.4806 76.5542 52.5453 76.2077 52.6132 75.9588C52.6928 75.7073 52.8205 75.5621 52.9965 75.5231C53.149 75.4892 53.3015 75.5108 53.4539 75.5877C53.6064 75.6647 53.7302 75.7787 53.8252 75.9299C53.932 76.0784 53.99 76.2563 53.999 76.4636C54.0054 76.659 53.9832 76.9469 53.9322 77.3274C53.8813 77.7078 53.8218 78.1332 53.7539 78.6036C53.6859 79.0739 53.6251 79.5488 53.5716 80.0283C53.5153 80.4961 53.491 80.9137 53.4988 81.2812C53.4987 81.6134 53.5194 81.9287 53.5609 82.2271C53.5999 82.5138 53.6637 82.7457 53.7523 82.923C53.8382 83.0885 53.9575 83.1543 54.11 83.1205C54.4854 83.0372 54.8863 82.5975 55.3128 81.8016C55.751 81.003 56.1978 79.9379 56.6531 78.6064C56.8671 78.0176 57.0478 77.4729 57.1953 76.9727C57.3428 76.4724 57.4738 76.0372 57.5887 75.6672C57.701 75.2855 57.8242 74.9813 57.9585 74.7545C58.0929 74.5279 58.248 74.3951 58.4239 74.356C58.6938 74.2962 58.9108 74.3587 59.0749 74.5438C59.2481 74.7146 59.3667 74.9713 59.4304 75.314C59.4981 75.619 59.5697 75.9969 59.6451 76.4476C59.7322 76.8959 59.822 77.3559 59.9144 77.8276C60.0041 78.2876 60.0991 78.7156 60.1993 79.1118C60.3854 79.7842 60.5735 80.3269 60.7637 80.7401C60.963 81.1388 61.1323 81.458 61.2717 81.6979C61.411 81.9376 61.4931 82.141 61.5177 82.3077C61.5346 82.4394 61.5209 82.5716 61.4766 82.7045C61.4296 82.8257 61.3611 82.9331 61.2712 83.0269C61.1812 83.1207 61.0717 83.1819 60.9426 83.2105C60.5321 83.3016 60.1789 83.097 59.8833 82.5965C59.5876 82.0961 59.2926 81.4048 58.9984 80.5226C58.8813 80.1055 58.7576 79.6592 58.6275 79.1836C58.509 78.7054 58.4023 78.2245 58.3074 77.7411C58.2242 77.2551 58.1488 76.8042 58.0811 76.3886L58.6304 76.4512C58.5221 76.9059 58.3877 77.4095 58.2272 77.9619C58.0666 78.5143 57.8363 79.2238 57.5362 80.0902C57.2779 80.812 56.9779 81.5122 56.6362 82.1909C56.2918 82.8579 55.9078 83.4292 55.484 83.9046C55.0694 84.3657 54.6099 84.6523 54.1055 84.7641ZM67.0269 81.8609C66.1588 82.0534 65.4055 82.0422 64.7669 81.8269C64.1375 81.5974 63.6437 81.2025 63.2854 80.6421C62.9363 80.0674 62.7542 79.3571 62.7389 78.5115C62.7261 77.7884 62.8365 77.0932 63.07 76.4262C63.3127 75.7448 63.6557 75.1273 64.099 74.5736C64.5515 74.0058 65.073 73.527 65.6635 73.1376C66.2541 72.7482 66.8896 72.478 67.57 72.3271C67.8749 72.2594 68.1552 72.2465 68.4107 72.2882C68.6635 72.3184 68.8622 72.4096 69.0068 72.5621C69.1606 72.7003 69.2354 72.899 69.2314 73.1582C69.234 73.3915 69.185 73.5869 69.0846 73.7446C68.9815 73.8904 68.8421 73.9829 68.6661 74.022C68.537 74.0506 68.4322 74.0493 68.3514 74.018C68.2706 73.9866 68.1839 73.9567 68.0913 73.928C68.0106 73.8966 67.8822 73.9005 67.7062 73.9396C67.0376 74.0879 66.4477 74.3972 65.9366 74.8674C65.4229 75.326 65.0207 75.8704 64.7298 76.501C64.448 77.1172 64.3103 77.7445 64.3166 78.383C64.3438 78.8938 64.4505 79.3193 64.6368 79.6593C64.8321 79.9852 65.1044 80.2139 65.4537 80.3457C65.8146 80.4748 66.2239 80.4885 66.6814 80.3871C67.1975 80.2726 67.5952 80.1228 67.8741 79.9379C68.1505 79.7412 68.3597 79.5471 68.5019 79.3557C68.6557 79.1616 68.7784 78.9928 68.8696 78.8496C68.9583 78.6945 69.0789 78.6001 69.2314 78.5663C69.4543 78.5168 69.6185 78.5358 69.724 78.6231C69.8413 78.7078 69.9051 78.8844 69.9154 79.1528C69.9192 79.558 69.7965 79.9482 69.5474 80.3234C69.2958 80.6869 68.9477 81.0041 68.5031 81.2749C68.0703 81.5432 67.5782 81.7385 67.0269 81.8609ZM78.9643 79.2496C78.6123 79.3277 78.2017 79.3081 77.7326 79.1906C77.2609 79.0615 76.7793 78.8607 76.288 78.5882C75.8086 78.3131 75.3532 78.0081 74.9219 77.6731C74.5023 77.3355 74.1571 76.9998 73.8861 76.6663C73.7272 76.5046 73.6132 76.3514 73.5441 76.2068C73.4842 76.0478 73.4433 75.8908 73.4212 75.7358C73.4356 75.6341 73.459 75.5182 73.4917 75.3879C73.5243 75.2576 73.5772 75.1351 73.6502 75.0205C73.7493 74.8016 73.9339 74.4962 74.2037 74.104C74.4737 73.7119 74.7912 73.2846 75.1563 72.8222C75.5305 72.3454 75.923 71.8953 76.3337 71.472C76.7536 71.0343 77.1571 70.6618 77.5442 70.3544C77.9432 70.0445 78.3011 69.8543 78.6178 69.7841C78.7468 69.7554 78.853 69.7627 78.9364 69.8056C79.0316 69.846 79.1072 69.9093 79.1631 69.9953C79.2191 70.0813 79.2518 70.1725 79.2608 70.269C79.3063 70.5296 79.1909 70.8136 78.9144 71.121C78.638 71.4284 78.3342 71.7234 78.0031 72.0061C77.4177 72.5297 76.9073 73.0305 76.4718 73.5086C76.0363 73.9866 75.6914 74.4016 75.4371 74.7532C75.1946 75.1024 75.0804 75.3369 75.0947 75.4568C75.0921 75.5558 75.1585 75.6887 75.294 75.8555C75.4295 76.0224 75.6242 76.2068 75.8784 76.4089C76.1441 76.6083 76.4523 76.8045 76.8028 76.9974C77.1651 77.1878 77.56 77.3586 77.9873 77.5099C78.2415 77.6012 78.4884 77.6878 78.7282 77.77C78.9771 77.8379 79.1805 77.922 79.3381 78.0224C79.5049 78.1084 79.5993 78.2289 79.6215 78.384C79.6383 78.5156 79.6233 78.6421 79.5763 78.7632C79.5293 78.8843 79.4478 78.9885 79.3319 79.0758C79.2275 79.1605 79.105 79.2185 78.9643 79.2496ZM73.1007 80.532C72.7957 80.5995 72.5566 80.4926 72.3834 80.2111C72.2075 79.9179 72.078 79.4729 71.9948 78.8761C71.9207 78.2651 71.8722 77.5191 71.849 76.6382C71.8413 76.2707 71.8415 75.8831 71.8494 75.4753C71.8692 75.0649 71.8889 74.6544 71.9085 74.244C71.9256 73.8219 71.9277 73.4153 71.9148 73.0244C71.9175 72.9254 71.9143 72.8277 71.9052 72.7313C71.9052 72.6205 71.8994 72.5111 71.8877 72.4028C71.8826 72.1579 71.9042 71.9501 71.9525 71.7794C72.0007 71.6088 72.0685 71.4707 72.1559 71.3652C72.2525 71.2453 72.3593 71.1723 72.4767 71.1463C72.7464 71.0865 72.985 71.1628 73.192 71.3753C73.4083 71.5734 73.5177 71.8998 73.5202 72.3545C73.5266 72.6607 73.5134 73.0451 73.4806 73.5076C73.457 73.9559 73.4301 74.4171 73.3999 74.8914C73.3698 75.3657 73.3573 75.7807 73.3624 76.1364C73.3921 76.7697 73.431 77.3332 73.479 77.8271C73.5388 78.3183 73.598 78.7235 73.6565 79.0428C73.7125 79.3503 73.7358 79.5666 73.7267 79.6917C73.7344 79.8376 73.7089 79.9725 73.6503 80.0962C73.6007 80.2057 73.5283 80.2956 73.4332 80.3659C73.3523 80.4454 73.2415 80.5007 73.1007 80.532ZM83.4042 78.2648C83.0053 78.3531 82.6678 78.3296 82.3915 78.1941C82.127 78.0558 81.9081 77.846 81.7348 77.5645C81.559 77.2713 81.4307 76.9429 81.3501 76.5794C81.2785 76.2015 81.239 75.8288 81.2312 75.4613C81.2339 75.1409 81.2472 74.7564 81.2708 74.3082C81.3061 73.8574 81.3493 73.3864 81.4004 72.8952C81.4513 72.404 81.503 71.9434 81.5553 71.5134C81.6193 71.0809 81.6735 70.7427 81.7179 70.499C81.7794 70.0548 81.844 69.7082 81.9119 69.4593C81.9915 69.2079 82.1192 69.0627 82.2952 69.0237C82.4477 68.9898 82.6002 69.0114 82.7526 69.0882C82.9051 69.1652 83.0289 69.2792 83.1239 69.4304C83.2308 69.579 83.2887 69.7569 83.2977 69.9641C83.3042 70.1595 83.2819 70.4475 83.231 70.8279C83.18 71.2084 83.1205 71.6337 83.0526 72.1041C82.9846 72.5744 82.9238 73.0494 82.8703 73.5288C82.814 73.9966 82.7898 74.4142 82.7975 74.7817C82.7974 75.1139 82.8181 75.4293 82.8596 75.7277C82.8987 76.0143 82.9624 76.2462 83.051 76.4235C83.1369 76.589 83.2562 76.6549 83.4087 76.621C83.7841 76.5377 84.1851 76.0981 84.6115 75.3021C85.0497 74.5035 85.4965 73.4385 85.9518 72.1069C86.1658 71.5181 86.3465 70.9735 86.494 70.4732C86.6415 69.9729 86.7726 69.5377 86.8874 69.1677C86.9997 68.786 87.1229 68.4818 87.2572 68.2552C87.3916 68.0284 87.5467 67.8956 87.7226 67.8565C87.9925 67.7967 88.2095 67.8593 88.3736 68.0443C88.547 68.2151 88.6654 68.4719 88.7292 68.8146C88.7968 69.1195 88.8684 69.4974 88.9438 69.9483C89.0309 70.3964 89.1207 70.8564 89.2131 71.3281C89.3028 71.7881 89.3978 72.2162 89.498 72.6124C89.6842 73.2847 89.8723 73.8275 90.0624 74.2406C90.2617 74.6393 90.431 74.9587 90.5704 75.1984C90.7097 75.4382 90.7918 75.6415 90.8164 75.8083C90.8334 75.9399 90.8196 76.0721 90.7753 76.2051C90.7283 76.3262 90.6598 76.4337 90.5699 76.5274C90.4799 76.6212 90.3704 76.6825 90.2414 76.7111C89.8308 76.8022 89.4776 76.5975 89.182 76.0971C88.8863 75.5966 88.5913 74.9053 88.2971 74.0231C88.18 73.6061 88.0563 73.1598 87.9262 72.6842C87.8078 72.2059 87.701 71.7251 87.6061 71.2416C87.5229 70.7556 87.4475 70.3047 87.3798 69.8891L87.9291 69.9518C87.8208 70.4065 87.6864 70.9101 87.5259 71.4625C87.3654 72.0149 87.135 72.7243 86.8349 73.5907C86.5766 74.3125 86.2766 75.0127 85.9349 75.6914C85.5906 76.3584 85.2065 76.9297 84.7828 77.4051C84.3681 77.8663 83.9086 78.1528 83.4042 78.2648ZM96.676 64.2277C96.1832 64.337 95.7434 64.3238 95.3563 64.1882C94.9667 64.0408 94.6546 63.8271 94.4201 63.5469C94.183 63.2549 94.0378 62.9611 93.9845 62.6653C93.9377 62.3434 93.971 62.0776 94.0845 61.8679C94.1979 61.6581 94.3661 61.5285 94.589 61.4791C94.765 61.4401 94.9162 61.5111 95.0425 61.6922C95.1779 61.8591 95.3245 62.0481 95.4822 62.2592C95.6255 62.4612 95.7916 62.6274 95.9805 62.7578C96.1812 62.8855 96.4458 62.9129 96.7742 62.84C96.9267 62.8062 97.0727 62.7431 97.2123 62.6506C97.3605 62.5438 97.4947 62.4279 97.6148 62.3029C97.744 62.1635 97.8572 62.0339 97.9533 61.9141C98.1646 61.6457 98.3549 61.419 98.5221 61.234C98.6883 61.0373 98.8705 60.9169 99.0698 60.8727C99.211 60.8414 99.3282 60.8708 99.4223 60.9606C99.5244 61.0363 99.5695 61.1556 99.5565 61.3184C99.5445 61.5425 99.4684 61.8056 99.3262 62.108C99.193 62.3959 98.9987 62.6851 98.7424 62.9756C98.487 63.266 98.1816 63.5246 97.8261 63.7512C97.4817 63.9751 97.0982 64.134 96.676 64.2277ZM94.7284 75.7526C94.3296 75.8411 93.992 75.8176 93.7158 75.6819C93.4512 75.5438 93.2323 75.3339 93.0591 75.0524C92.8832 74.7591 92.7551 74.4308 92.6743 74.0672C92.6028 73.6893 92.5632 73.3167 92.5555 72.9492C92.5582 72.6287 92.5714 72.2443 92.595 71.7961C92.6304 71.3453 92.6735 70.8742 92.7246 70.383C92.7756 69.8919 92.8273 69.4313 92.8795 69.0013C92.9435 68.5687 92.9978 68.2306 93.0421 67.987C93.1036 67.5427 93.1682 67.1961 93.2361 66.9473C93.3157 66.6958 93.4435 66.5506 93.6194 66.5115C93.7719 66.4777 93.9244 66.4992 94.0769 66.5762C94.2294 66.6531 94.3531 66.7672 94.4483 66.9183C94.555 67.0669 94.613 67.2448 94.622 67.4519C94.6285 67.6474 94.6062 67.9353 94.5552 68.3158C94.5042 68.6962 94.4447 69.1217 94.3769 69.592C94.3089 70.0624 94.2481 70.5373 94.1945 71.0168C94.1382 71.4845 94.114 71.9021 94.1217 72.2695C94.1216 72.6019 94.1423 72.9171 94.1839 73.2155C94.2229 73.5022 94.2866 73.7342 94.3753 73.9114C94.4612 74.0769 94.5804 74.1427 94.7329 74.1089C95.1083 74.0257 95.5093 73.586 95.9358 72.79C96.374 71.9914 96.8208 70.9264 97.2764 69.5949C97.4897 69.006 97.6709 68.4614 97.8181 67.9611C97.9653 67.4608 98.0965 67.0257 98.2117 66.6557C98.3238 66.2739 98.447 65.9697 98.5812 65.743C98.7153 65.5164 98.8705 65.3835 99.0468 65.3445C99.3172 65.2846 99.5334 65.3472 99.6977 65.5323C99.8709 65.7031 99.9901 65.9597 100.053 66.3025C100.121 66.6073 100.192 66.9852 100.268 67.4361C100.356 67.8844 100.445 68.3444 100.538 68.8161C100.627 69.276 100.722 69.7041 100.822 70.1002C101.008 70.7726 101.197 71.3154 101.387 71.7284C101.586 72.1273 101.755 72.4465 101.895 72.6864C102.034 72.9261 102.116 73.1294 102.141 73.2962C102.158 73.4278 102.144 73.5601 102.1 73.6929C102.053 73.814 101.984 73.9216 101.894 74.0154C101.805 74.1092 101.694 74.1703 101.565 74.199C101.155 74.2901 100.802 74.0853 100.506 73.5849C100.21 73.0845 99.916 72.3931 99.6216 71.511C99.5044 71.094 99.3802 70.6477 99.2501 70.1721C99.1319 69.6938 99.0258 69.213 98.9306 68.7296C98.8475 68.2436 98.7714 67.7927 98.7043 67.377L99.2531 67.4397C99.1449 67.8944 99.0107 68.398 98.8505 68.9504C98.6893 69.5028 98.459 70.2122 98.1596 71.0786C97.9012 71.8003 97.6008 72.5007 97.2594 73.1794C96.9148 73.8464 96.5308 74.4176 96.107 74.8931C95.6923 75.3542 95.2328 75.6407 94.7284 75.7526ZM5.38399 111.979C5.10244 112.041 4.8581 111.966 4.65094 111.754C4.44379 111.541 4.27447 111.222 4.143 110.796C4.02065 110.355 3.95177 109.824 3.93636 109.199C3.93921 108.546 3.99348 108.042 4.09918 107.686C4.21401 107.316 4.37572 107.047 4.58431 106.878C4.69775 106.778 4.87046 106.697 5.10249 106.633C5.3319 106.558 5.57565 106.491 5.83373 106.434C6.69009 106.244 7.52565 106.016 8.34025 105.749C9.16407 105.468 9.95214 105.109 10.7043 104.671L11.2904 105.814C10.7324 106.184 10.1145 106.506 9.43664 106.779C8.75882 107.053 8.06148 107.293 7.34451 107.502C6.63677 107.695 5.94268 107.868 5.26228 108.019L4.20656 108.087C4.20552 107.361 4.20255 106.599 4.19763 105.8C4.19271 105.002 4.18254 104.29 4.16714 103.666C4.15161 103.374 4.19471 103.125 4.29644 102.917C4.39818 102.71 4.53703 102.587 4.71299 102.548C5.00627 102.483 5.24932 102.552 5.44213 102.755C5.63234 102.947 5.72932 103.301 5.73303 103.817C5.74336 104.086 5.74193 104.412 5.72877 104.796C5.71559 105.181 5.70045 105.584 5.68335 106.006C5.67798 106.426 5.6687 106.827 5.65554 107.212C5.65149 107.582 5.65202 107.89 5.65715 108.135C5.66731 108.846 5.69705 109.479 5.74638 110.034C5.80483 110.575 5.84052 110.986 5.85344 111.265C5.85469 111.437 5.80836 111.59 5.71448 111.721C5.63492 111.862 5.52476 111.948 5.38399 111.979ZM11.4548 110.633C11.1615 110.698 10.9125 110.573 10.7081 110.262C10.5153 109.949 10.3597 109.497 10.2413 108.908C10.1321 108.305 10.0685 107.629 10.0505 106.883C10.0353 105.705 10.0428 104.768 10.073 104.073C10.1124 103.363 10.1654 102.797 10.232 102.376C10.2686 102.097 10.3352 101.842 10.4317 101.612C10.5282 101.382 10.6762 101.244 10.8757 101.2C11.1337 101.142 11.3429 101.226 11.5031 101.448C11.6725 101.657 11.7597 101.938 11.7648 102.295C11.7763 102.735 11.7488 103.221 11.6821 103.752C11.6272 104.282 11.6107 104.845 11.6326 105.443C11.6479 106.178 11.6901 106.84 11.759 107.427C11.8369 108 11.913 108.481 11.9872 108.872C12.0613 109.261 12.0957 109.554 12.0904 109.753C12.1021 109.972 12.046 110.163 11.9221 110.325C11.7982 110.488 11.6424 110.59 11.4548 110.633ZM16.7802 109.432C16.2406 109.552 15.772 109.52 15.3746 109.338C14.9889 109.153 14.6807 108.846 14.4502 108.417C14.2314 107.986 14.1144 107.458 14.099 106.833C14.0796 106.248 14.1482 105.642 14.3048 105.017C14.4707 104.377 14.7087 103.758 15.0191 103.16C15.3269 102.55 15.6901 101.995 16.1087 101.497C16.5364 100.983 17.007 100.553 17.5207 100.205C18.046 99.8551 18.5962 99.6162 19.1709 99.4886C19.4408 99.4289 19.6675 99.4524 19.8513 99.5592C20.035 99.6661 20.1287 99.8668 20.1325 100.161C20.1403 100.308 20.1031 100.445 20.021 100.574C19.9362 100.691 19.7967 100.783 19.6025 100.851C18.8073 101.15 18.1099 101.613 17.5102 102.238C16.9221 102.86 16.4677 103.558 16.1467 104.331C15.8349 105.089 15.6835 105.848 15.6923 106.609C15.6974 106.966 15.7312 107.284 15.7937 107.565C15.8535 107.836 15.9902 108.174 16.2038 108.582L15.2658 107.516C15.5368 107.739 15.7635 107.874 15.946 107.92C16.1401 107.963 16.3957 107.949 16.7124 107.879C17.4631 107.711 18.119 107.062 18.6798 105.929C19.2406 104.795 19.6453 103.235 19.8936 101.248C19.9264 101.007 20.0001 100.812 20.1148 100.664C20.2387 100.501 20.4003 100.398 20.5998 100.353C20.8695 100.294 21.1008 100.365 21.2937 100.568C21.4956 100.757 21.6239 101.03 21.6785 101.388C21.7955 102.137 21.9204 102.81 22.0531 103.408C22.1949 103.992 22.3818 104.529 22.6136 105.019C22.8571 105.506 23.1985 105.991 23.6375 106.471C23.7339 106.573 23.7932 106.701 23.8152 106.857C23.8491 107.009 23.8406 107.165 23.7897 107.324C23.7505 107.48 23.6768 107.619 23.5686 107.741C23.4695 107.85 23.3379 107.923 23.1736 107.959C22.9976 107.998 22.849 107.994 22.7279 107.947C22.6184 107.898 22.5142 107.816 22.4151 107.702C22.1833 107.434 21.965 107.144 21.7605 106.832C21.5561 106.521 21.3646 106.158 21.1862 105.741C21.0169 105.312 20.8717 104.796 20.7508 104.196C20.6298 103.595 20.531 102.872 20.4545 102.028L21.084 101.87C20.9572 103.129 20.7489 104.215 20.4592 105.128C20.1669 106.03 19.8173 106.783 19.4105 107.391C19.0127 107.984 18.5863 108.447 18.1313 108.782C17.6764 109.117 17.226 109.333 16.7802 109.432ZM38.5983 104.592C38.3167 104.655 38.0894 104.545 37.9161 104.264C37.7428 103.982 37.6042 103.607 37.5001 103.138C37.4221 102.786 37.3642 102.387 37.3265 101.939C37.2863 101.481 37.2519 101.021 37.2234 100.56C37.195 100.098 37.167 99.6679 37.1399 99.2679C37.1244 98.8653 37.1055 98.531 37.0835 98.2652C37.0576 97.9264 37.0244 97.6385 36.9842 97.4013C36.9555 97.1616 36.9127 96.9127 36.8554 96.6546L37.2912 97.0378L36.0243 97.3189C35.6489 97.4022 35.2012 97.5199 34.6811 97.6722C34.1701 97.8102 33.6676 97.9586 33.1736 98.1174C32.6795 98.2762 32.2716 98.4344 31.9495 98.592L32.5619 97.441C32.7311 98.0925 32.8371 98.7643 32.8798 99.4561C32.9343 100.145 32.9699 100.888 32.9866 101.684C32.9917 102.04 33 102.438 33.0115 102.878C33.0231 103.319 33.0249 103.743 33.0169 104.151C33.0089 104.559 32.99 104.888 32.9598 105.142C32.9311 105.345 32.8607 105.527 32.7485 105.687C32.6338 105.835 32.4767 105.932 32.2772 105.976C32.0426 106.028 31.8478 105.955 31.6928 105.755C31.5378 105.555 31.4564 105.272 31.4487 104.904C31.4384 104.636 31.4379 104.329 31.4471 103.982C31.4538 103.624 31.452 103.255 31.4417 102.876C31.4313 102.497 31.423 102.155 31.4166 101.848C31.4155 101.233 31.3858 100.71 31.3273 100.281C31.2779 99.8361 31.2285 99.4472 31.1791 99.1135C31.1415 98.7774 31.1181 98.4503 31.1091 98.1324C31.1222 97.8588 31.1836 97.636 31.2932 97.464C31.4144 97.2895 31.6034 97.1429 31.8602 97.0244C32.2408 96.8538 32.6913 96.6925 33.2113 96.5402C33.7405 96.3735 34.2854 96.2219 34.8459 96.0853C35.4181 95.9461 35.9623 95.8191 36.4784 95.7046C37.1588 95.5538 37.6814 95.5793 38.0463 95.7814C38.4111 95.9834 38.5987 96.4402 38.6089 97.1516C38.614 97.3966 38.6282 97.738 38.6514 98.1757C38.6748 98.6136 38.6967 99.1009 38.7174 99.6378C38.7498 100.172 38.7952 100.709 38.8536 101.251C38.9095 101.779 38.981 102.268 39.0682 102.716C39.098 102.906 39.141 103.1 39.197 103.297C39.2529 103.493 39.2848 103.665 39.2926 103.81C39.2912 103.971 39.2286 104.133 39.1047 104.296C38.99 104.444 38.8212 104.543 38.5983 104.592ZM43.5531 103.512C43.1542 103.6 42.8167 103.576 42.5404 103.441C42.2758 103.303 42.057 103.093 41.8838 102.811C41.708 102.518 41.5797 102.19 41.499 101.826C41.4275 101.449 41.3878 101.075 41.3801 100.708C41.3828 100.388 41.3961 100.003 41.4197 99.5551C41.455 99.1043 41.4982 98.6332 41.5493 98.142C41.6002 97.6509 41.6519 97.1903 41.7042 96.7602C41.7683 96.3277 41.8224 95.9896 41.8668 95.746C41.9283 95.3017 41.9929 94.9551 42.0608 94.7063C42.1404 94.4548 42.2681 94.3095 42.4441 94.2705C42.5966 94.2367 42.7491 94.2582 42.9016 94.3352C43.054 94.412 43.1778 94.5262 43.2729 94.6773C43.3796 94.8259 43.4376 95.0038 43.4466 95.2109C43.4531 95.4064 43.4308 95.6943 43.3798 96.0748C43.3289 96.4552 43.2695 96.8807 43.2015 97.351C43.1335 97.8214 43.0727 98.2963 43.0191 98.7758C42.963 99.2435 42.9386 99.6611 42.9464 100.028C42.9463 100.361 42.967 100.676 43.0085 100.974C43.0476 101.262 43.1114 101.493 43.1999 101.67C43.2858 101.836 43.4051 101.901 43.5576 101.868C43.933 101.784 44.3339 101.345 44.7604 100.549C45.1986 99.7504 45.6454 98.6854 46.1007 97.3539C46.3147 96.7649 46.4955 96.2204 46.6429 95.72C46.7904 95.2198 46.9215 94.7846 47.0363 94.4146C47.1486 94.0328 47.2718 93.7286 47.4062 93.502C47.5405 93.2753 47.6956 93.1425 47.8716 93.1035C48.1414 93.0436 48.3584 93.1062 48.5225 93.2913C48.6958 93.462 48.8143 93.7187 48.8781 94.0615C48.9457 94.3663 49.0173 94.7442 49.0927 95.1951C49.1799 95.6433 49.2696 96.1033 49.3619 96.575C49.4518 97.035 49.5467 97.4631 49.6469 97.8592C49.8331 98.5316 50.0212 99.0744 50.2113 99.4874C50.4106 99.8861 50.5799 100.205 50.7193 100.446C50.8587 100.685 50.9407 100.888 50.9654 101.055C50.9822 101.187 50.9685 101.319 50.9242 101.452C50.8772 101.573 50.8087 101.681 50.7188 101.774C50.6289 101.868 50.5193 101.929 50.3902 101.958C50.1205 102.017 49.8702 101.944 49.6396 101.737C49.4207 101.527 49.215 101.21 49.0222 100.785C48.8295 100.36 48.6375 99.855 48.446 99.27C48.3289 98.853 48.2053 98.4067 48.0751 97.9311C47.9566 97.4528 47.85 96.972 47.755 96.4885C47.6718 96.0025 47.5964 95.5517 47.5288 95.136L48.078 95.1987C47.9971 95.4996 47.9084 95.8208 47.8118 96.1622C47.7269 96.5009 47.6161 96.8885 47.479 97.3249C47.3511 97.7471 47.1861 98.2513 46.9838 98.8375C46.7256 99.5593 46.4256 100.26 46.0838 100.938C45.7394 101.605 45.3554 102.177 44.9316 102.652C44.5171 103.114 44.0576 103.4 43.5531 103.512ZM59.8198 99.9032C59.4679 99.9812 59.0574 99.9612 58.5883 99.8441C58.1165 99.715 57.635 99.5141 57.1437 99.2417C56.6641 98.9666 56.2088 98.6615 55.7775 98.3265C55.358 97.9889 55.0127 97.6533 54.7417 97.3196C54.5828 97.1581 54.4688 97.0049 54.3998 96.8602C54.3399 96.7013 54.2989 96.5442 54.2768 96.3891C54.2911 96.2875 54.3147 96.1716 54.3473 96.0413C54.3799 95.911 54.4327 95.7885 54.5058 95.6739C54.605 95.4551 54.7895 95.1495 55.0594 94.7574C55.3293 94.3653 55.6469 93.938 56.012 93.4756C56.3862 92.9988 56.7786 92.5488 57.1894 92.1254C57.6092 91.6878 58.0127 91.3152 58.3999 91.0078C58.7988 90.6978 59.1567 90.5077 59.4735 90.4374C59.6024 90.4088 59.7087 90.416 59.7921 90.4591C59.8872 90.4995 59.9628 90.5627 60.0188 90.6487C60.0748 90.7348 60.1073 90.826 60.1164 90.9223C60.162 91.183 60.0465 91.467 59.7701 91.7745C59.4937 92.0818 59.1899 92.3769 58.8587 92.6595C58.2733 93.1832 57.7629 93.684 57.3274 94.162C56.892 94.6401 56.547 95.0549 56.2927 95.4067C56.0502 95.7558 55.9361 95.9903 55.9504 96.1102C55.953 96.2327 56.0747 96.421 56.3158 96.6751C56.5542 96.9176 56.8956 97.1803 57.3399 97.4631C57.7816 97.7343 58.2826 97.9677 58.843 98.1633C59.0971 98.2546 59.3441 98.3413 59.5839 98.4235C59.8327 98.4913 60.036 98.5754 60.1937 98.6758C60.3606 98.7618 60.455 98.8824 60.4771 99.0374C60.4939 99.1691 60.4789 99.2954 60.432 99.4165C60.385 99.5378 60.3035 99.642 60.1874 99.7293C60.0832 99.8139 59.9606 99.8721 59.8198 99.9032ZM53.9564 101.186C53.6514 101.253 53.4122 101.146 53.239 100.864C53.0632 100.571 52.9336 100.126 52.8505 99.5296C52.7764 98.9184 52.7278 98.1724 52.7047 97.2916C52.697 96.9242 52.6971 96.5366 52.7051 96.1288C52.7248 95.7183 52.7444 95.3079 52.7642 94.8975C52.7813 94.4753 52.7834 94.0688 52.7705 93.6779C52.7732 93.5789 52.7699 93.4811 52.7609 93.3847C52.7609 93.2739 52.755 93.1644 52.7433 93.0563C52.7382 92.8114 52.7599 92.6035 52.8081 92.4329C52.8564 92.2622 52.9242 92.1241 53.0116 92.0186C53.108 91.8987 53.215 91.8258 53.3322 91.7998C53.6021 91.7399 53.8405 91.8162 54.0477 92.0286C54.264 92.2268 54.3733 92.5532 54.3757 93.008C54.3822 93.3142 54.369 93.6985 54.3363 94.1611C54.3127 94.6094 54.2857 95.0705 54.2556 95.5448C54.2254 96.0191 54.2129 96.4341 54.218 96.7899C54.2478 97.423 54.2866 97.9866 54.3347 98.4805C54.3945 98.9717 54.4535 99.377 54.5121 99.6962C54.568 100.003 54.5914 100.22 54.5822 100.345C54.59 100.491 54.5646 100.626 54.5059 100.75C54.4564 100.859 54.384 100.949 54.2887 101.019C54.2079 101.098 54.0972 101.154 53.9564 101.186ZM63.6034 99.0638C63.3219 99.1262 63.0774 99.0513 62.8704 98.8387C62.6632 98.6263 62.4938 98.3071 62.3624 97.8809C62.24 97.4405 62.1711 96.9082 62.1558 96.284C62.1586 95.6312 62.2129 95.127 62.3186 94.7713C62.4334 94.4013 62.5951 94.1317 62.8037 93.9624C62.9171 93.8634 63.0899 93.782 63.3219 93.7182C63.5513 93.6427 63.795 93.5764 64.0532 93.5191C64.9094 93.3291 65.7449 93.1007 66.5597 92.8338C67.3835 92.5527 68.1714 92.1933 68.9237 91.7557L69.5098 92.8992C68.9518 93.2691 68.3339 93.5908 67.656 93.8642C66.9782 94.1376 66.2809 94.3784 65.5639 94.5866C64.8561 94.7806 64.1621 94.953 63.4817 95.104L62.426 95.1721C62.4249 94.4463 62.422 93.6841 62.417 92.8853C62.4121 92.0866 62.4019 91.3751 62.3865 90.751C62.371 90.4592 62.4141 90.2096 62.5159 90.0025C62.6175 89.7954 62.7564 89.6722 62.9323 89.6332C63.2256 89.5682 63.4687 89.6373 63.6615 89.8406C63.8517 90.0322 63.9487 90.386 63.9524 90.902C63.9627 91.1704 63.9613 91.4969 63.9481 91.8812C63.935 92.2656 63.9199 92.6688 63.9028 93.091C63.8973 93.5106 63.8881 93.9125 63.8749 94.2969C63.8709 94.6669 63.8714 94.9744 63.8765 95.2194C63.8867 95.9309 63.9165 96.5641 63.9657 97.1192C64.0242 97.6599 64.0599 98.0704 64.0728 98.3505C64.0741 98.5225 64.0277 98.6743 63.9339 98.8059C63.8543 98.9465 63.7441 99.0325 63.6034 99.0638ZM69.6742 97.717C69.3809 97.7821 69.1319 97.6589 68.9275 97.3475C68.7347 97.0333 68.5791 96.5818 68.4607 95.9928C68.3515 95.3895 68.2878 94.7146 68.2699 93.968C68.2547 92.79 68.2622 91.8532 68.2924 91.1574C68.3318 90.4473 68.3847 89.8819 68.4514 89.461C68.488 89.1822 68.5546 88.9274 68.6511 88.6969C68.7476 88.4663 68.8956 88.3288 69.095 88.2846C69.3531 88.2274 69.5622 88.3102 69.7224 88.533C69.8919 88.7415 69.9791 89.0236 69.9841 89.3794C69.9957 89.8198 69.9682 90.3058 69.9015 90.8374C69.8466 91.3664 69.8301 91.9299 69.852 92.528C69.8673 93.2628 69.9095 93.9241 69.9784 94.5118C70.0563 95.0852 70.1324 95.5667 70.2065 95.9563C70.2807 96.3459 70.3151 96.6397 70.3098 96.8377C70.3215 97.0566 70.2654 97.2476 70.1415 97.4103C70.0176 97.5732 69.8618 97.6754 69.6742 97.717ZM74.828 96.5737C74.4291 96.6622 74.0916 96.6387 73.8153 96.5031C73.5507 96.3649 73.3319 96.155 73.1586 95.8735C72.9828 95.5803 72.8546 95.2519 72.7739 94.8884C72.7024 94.5105 72.6627 94.1379 72.655 93.7704C72.6577 93.4498 72.6709 93.0654 72.6946 92.6172C72.7299 92.1665 72.7731 91.6954 72.8242 91.2043C72.8751 90.713 72.9268 90.2524 72.9791 89.8225C73.043 89.3898 73.0973 89.0518 73.1417 88.8081C73.2032 88.3638 73.2677 88.0173 73.3356 87.7684C73.4152 87.517 73.543 87.3717 73.719 87.3326C73.8715 87.2988 74.024 87.3204 74.1764 87.3973C74.3289 87.4742 74.4527 87.5883 74.5478 87.7395C74.6545 87.888 74.7125 88.0659 74.7215 88.273C74.728 88.4686 74.7057 88.7565 74.6547 89.137C74.6038 89.5174 74.5443 89.9428 74.4764 90.4131C74.4084 90.8835 74.3476 91.3584 74.294 91.8379C74.2379 92.3056 74.2135 92.7233 74.2212 93.0907C74.2211 93.423 74.2419 93.7383 74.2834 94.0367C74.3225 94.3233 74.3863 94.5553 74.4748 94.7326C74.5607 94.8981 74.68 94.9639 74.8325 94.9301C75.2079 94.8468 75.6088 94.4071 76.0353 93.6112C76.4735 92.8126 76.9203 91.7475 77.3756 90.416C77.5896 89.8271 77.7704 89.2825 77.9178 88.7823C78.0653 88.282 78.1964 87.8468 78.3112 87.4768C78.4234 87.095 78.5467 86.7909 78.6811 86.5641C78.8154 86.3375 78.9705 86.2047 79.1465 86.1656C79.4163 86.1058 79.6333 86.1683 79.7974 86.3534C79.9707 86.5242 80.0892 86.7809 80.153 87.1236C80.2206 87.4286 80.2922 87.8064 80.3676 88.2572C80.4547 88.7055 80.5445 89.1655 80.6368 89.6372C80.7267 90.0972 80.8216 90.5252 80.9218 90.9213C81.108 91.5938 81.296 92.1365 81.4862 92.5496C81.6855 92.9484 81.8548 93.2676 81.9942 93.5075C82.1336 93.7472 82.2156 93.9506 82.2402 94.1173C82.2571 94.249 82.2434 94.3812 82.1991 94.5141C82.1521 94.6353 82.0836 94.7427 81.9937 94.8365C81.9036 94.9303 81.7942 94.9915 81.6651 95.0201C81.3954 95.0799 81.1451 95.0063 80.9145 94.7991C80.6956 94.5892 80.4898 94.2718 80.2971 93.847C80.1043 93.4222 79.9123 92.9173 79.7209 92.3321C79.6037 91.9151 79.4802 91.4688 79.35 90.9932C79.2315 90.5149 79.1249 90.0341 79.0299 89.5507C78.9466 89.0647 78.8712 88.6138 78.8036 88.1982L79.3529 88.2608C79.272 88.5619 79.1833 88.883 79.0867 89.2244C79.0018 89.5631 78.891 89.9506 78.7539 90.3871C78.626 90.8092 78.461 91.3135 78.2587 91.8997C78.0005 92.6216 77.7004 93.3218 77.3587 94.0005C77.0143 94.6675 76.6303 95.2387 76.2065 95.7142C75.7919 96.1753 75.3324 96.4618 74.828 96.5737ZM91.0947 92.9652C90.7428 93.0433 90.3323 93.0237 89.8631 92.9063C89.3914 92.7771 88.9098 92.5763 88.4186 92.3038C87.939 92.0287 87.4837 91.7237 87.0524 91.3886C86.6329 91.0511 86.2876 90.7154 86.0166 90.3818C85.8577 90.2202 85.7437 90.0671 85.6747 89.9224C85.6148 89.7634 85.5737 89.6064 85.5517 89.4513C85.566 89.3497 85.5896 89.2338 85.6222 89.1034C85.6548 88.9732 85.7076 88.8507 85.7807 88.736C85.8798 88.5172 86.0643 88.2117 86.3343 87.8196C86.6042 87.4275 86.9218 87.0002 87.2868 86.5377C87.6611 86.061 88.0535 85.6109 88.4642 85.1876C88.8841 84.7499 89.2876 84.3774 89.6748 84.07C90.0737 83.76 90.4315 83.5699 90.7483 83.4996C90.8773 83.471 90.9836 83.4782 91.067 83.5212C91.1621 83.5617 91.2376 83.6248 91.2937 83.7109C91.3497 83.7969 91.3822 83.8881 91.3913 83.9845C91.4369 84.2452 91.3214 84.5292 91.0449 84.8366C90.7686 85.144 90.4648 85.439 90.1336 85.7216C89.5482 86.2453 89.0378 86.7461 88.6023 87.2241C88.1668 87.7022 87.8219 88.1171 87.5676 88.4689C87.3251 88.818 87.2109 89.0525 87.2253 89.1724C87.2278 89.2948 87.3496 89.4831 87.5907 89.7373C87.8291 89.9798 88.1704 90.2424 88.6147 90.5253C89.0564 90.7964 89.5575 91.0299 90.1179 91.2255C90.372 91.3168 90.619 91.4035 90.8587 91.4857C91.1076 91.5534 91.3109 91.6376 91.4686 91.7379C91.6354 91.824 91.7299 91.9445 91.7519 92.0996C91.7688 92.2312 91.7538 92.3576 91.7068 92.4788C91.6599 92.5999 91.5784 92.7041 91.4623 92.7914C91.3581 92.876 91.2355 92.934 91.0947 92.9652ZM85.2313 94.2475C84.9262 94.3151 84.6871 94.2082 84.5139 93.9267C84.3381 93.6335 84.2085 93.1886 84.1254 92.5917C84.0513 91.9806 84.0027 91.2346 83.9796 90.3539C83.9719 89.9864 83.972 89.5988 83.98 89.1909C83.9997 88.7805 84.0193 88.3701 84.039 87.9596C84.0562 87.5375 84.0583 87.1309 84.0454 86.74C84.0481 86.641 84.0448 86.5432 84.0357 86.4468C84.0357 86.3361 84.0299 86.2267 84.0182 86.1185C84.0131 85.8735 84.0346 85.6657 84.083 85.495C84.1313 85.3243 84.1991 85.1863 84.2865 85.0808C84.3829 84.9609 84.4899 84.888 84.6071 84.8619C84.877 84.8021 85.1154 84.8784 85.3226 85.0909C85.5389 85.289 85.6482 85.6154 85.6506 86.0701C85.657 86.3763 85.6439 86.7607 85.6112 87.2232C85.5875 87.6715 85.5606 88.1327 85.5305 88.607C85.5003 89.0813 85.4878 89.4962 85.4929 89.852C85.5227 90.4852 85.5615 91.0488 85.6096 91.5426C85.6694 92.0338 85.7284 92.4392 85.787 92.7584C85.8429 93.0659 85.8663 93.2822 85.8571 93.4073C85.8649 93.5532 85.8395 93.6881 85.7807 93.8118C85.7311 93.9212 85.6588 94.0111 85.5636 94.0815C85.4828 94.161 85.3721 94.2162 85.2313 94.2475ZM97.2724 91.5762C96.2992 91.7923 95.5035 91.7842 94.8857 91.5521C94.2655 91.3083 93.8056 90.8996 93.506 90.3262C93.2039 89.7411 93.0432 89.0446 93.0239 88.2367C93.0254 87.6335 93.1208 87.0093 93.31 86.3644C93.5084 85.7051 93.7947 85.0818 94.169 84.4943C94.5549 83.9041 95.0158 83.402 95.5517 82.9878C96.0966 82.5593 96.7034 82.2709 97.3725 82.1225C97.9934 81.9846 98.5261 81.9711 98.9697 82.082C99.4243 82.1903 99.7708 82.421 100.009 82.7742C100.259 83.1248 100.391 83.6062 100.404 84.2187C100.43 84.8897 100.263 85.4988 99.9039 86.0459C99.5435 86.5814 99.0488 87.0418 98.4199 87.4273C97.8031 87.8102 97.108 88.0875 96.3337 88.2592C95.536 88.4362 94.9814 88.4608 94.67 88.333C94.3703 88.2026 94.2178 88.015 94.2127 87.77C94.2049 87.6241 94.2356 87.5126 94.3047 87.4358C94.3713 87.3472 94.4924 87.2834 94.6684 87.2444C94.7974 87.2157 94.9551 87.2053 95.1415 87.2132C95.3371 87.2068 95.6166 87.1632 95.9802 87.0826C96.5668 86.9524 97.0765 86.7532 97.5097 86.485C97.9543 86.2141 98.2978 85.904 98.5401 85.555C98.7794 85.1941 98.8996 84.8169 98.8986 84.4234C98.8906 84.056 98.7854 83.8025 98.5822 83.6631C98.3899 83.5209 98.0655 83.5006 97.6078 83.6021C97.1502 83.7036 96.7342 83.9067 96.3587 84.2116C95.9923 84.502 95.6663 84.8634 95.3807 85.296C95.1068 85.7259 94.8976 86.1969 94.7527 86.7089C94.6078 87.2208 94.5444 87.7395 94.5625 88.2645C94.574 88.705 94.654 89.0933 94.8025 89.4295C94.9483 89.754 95.1868 89.9964 95.5178 90.1567C95.8579 90.3028 96.2978 90.316 96.8374 90.1963C97.4476 90.0609 97.9523 89.8689 98.3529 89.6202C98.7624 89.3571 99.0959 89.0862 99.3542 88.8074C99.6126 88.5287 99.8298 88.2897 100.007 88.0904C100.184 87.8911 100.356 87.7732 100.52 87.7368C100.719 87.6925 100.876 87.7375 100.992 87.8717C101.118 87.9917 101.183 88.1741 101.188 88.4191C101.193 88.6641 101.09 88.9455 100.876 89.2633C100.673 89.5668 100.386 89.8768 100.012 90.1934C99.6516 90.5072 99.234 90.7905 98.7604 91.0432C98.2968 91.2814 97.8011 91.4591 97.2724 91.5762Z" fill="#7831B2"/>
</svg>
