<svg width="192" height="59" viewBox="0 0 192 59" fill="none" xmlns="http://www.w3.org/2000/svg">
<path d="M98.0777 33.2904C97.9436 33.2904 97.8388 33.2446 97.7634 33.1529C97.6879 33.0528 97.6502 32.9237 97.6502 32.7653C97.667 32.2985 97.6963 31.8901 97.7382 31.5401C97.7885 31.1817 97.8514 30.8066 97.9268 30.4148C98.019 29.9814 98.1028 29.6147 98.1783 29.3146C98.2621 29.0146 98.3417 28.7395 98.4171 28.4895C98.4926 28.2394 98.5554 27.9852 98.6057 27.7268C98.6309 27.5768 98.6895 27.4476 98.7817 27.3393C98.8739 27.2226 98.9996 27.1642 99.1589 27.1642C99.3349 27.1642 99.4732 27.2392 99.5738 27.3893C99.6744 27.531 99.6995 27.7518 99.6492 28.0519C99.5989 28.2853 99.5403 28.5061 99.4732 28.7145C99.4062 28.9229 99.3349 29.1646 99.2595 29.4397C99.184 29.7064 99.1002 30.0564 99.008 30.4899C98.9494 30.7899 98.9074 31.04 98.8823 31.24C98.8572 31.44 98.8362 31.6151 98.8194 31.7651C98.8027 31.9151 98.7859 32.0568 98.7692 32.1902C98.7608 32.3235 98.7398 32.4694 98.7063 32.6278C98.6476 32.8695 98.5554 33.0403 98.4297 33.1404C98.3124 33.2404 98.195 33.2904 98.0777 33.2904ZM97.6251 36.216C97.315 36.216 97.0761 36.1368 96.9085 35.9784C96.7408 35.8117 96.6863 35.5783 96.745 35.2783C96.7869 35.0532 96.8917 34.874 97.0593 34.7407C97.2269 34.6073 97.4155 34.5406 97.6251 34.5406C97.9939 34.5406 98.2411 34.6407 98.3668 34.8407C98.4926 35.0407 98.5303 35.2699 98.48 35.5283C98.4381 35.7034 98.3459 35.8617 98.2034 36.0034C98.0693 36.1451 97.8765 36.216 97.6251 36.216Z" fill="#7831B2"/>
<path d="M91.7654 36.191C90.8099 36.191 90.1268 36.0826 89.7161 35.8659C89.3054 35.6492 89.1294 35.3991 89.1881 35.1157C89.2049 34.9907 89.2551 34.8949 89.339 34.8282C89.4228 34.7615 89.5359 34.7282 89.6784 34.7282C89.7958 34.7282 89.9047 34.749 90.0053 34.7907C90.1143 34.824 90.24 34.8657 90.3825 34.9157C90.5333 34.9574 90.7219 34.9991 90.9482 35.0407C91.1745 35.0741 91.4637 35.0907 91.8157 35.0907C92.1593 35.0907 92.4695 35.0699 92.746 35.0282C93.0226 34.9782 93.2657 34.9074 93.4752 34.8157C93.6848 34.7157 93.8608 34.6073 94.0033 34.4906C94.0033 34.2572 93.9027 34.0489 93.7015 33.8655C93.5088 33.6821 93.2573 33.5113 92.9472 33.3529C92.6455 33.1945 92.327 33.032 91.9917 32.8653C91.6564 32.6986 91.3463 32.5152 91.0614 32.3152C90.7848 32.1068 90.571 31.8651 90.4202 31.5901C90.2777 31.315 90.2442 30.9858 90.3196 30.6024C90.4034 30.1856 90.6004 29.8064 90.9105 29.4647C91.229 29.1146 91.6062 28.802 92.042 28.527C92.4862 28.2436 92.9472 28.006 93.4249 27.8143C93.9111 27.6143 94.3763 27.4643 94.8205 27.3643C95.2731 27.2559 95.6544 27.2017 95.9646 27.2017C96.1154 27.2017 96.237 27.2267 96.3291 27.2767C96.4213 27.3267 96.48 27.3934 96.5052 27.4768C96.5387 27.5601 96.5429 27.656 96.5177 27.7643C96.4926 27.906 96.4255 28.0227 96.3166 28.1144C96.2076 28.2061 96.04 28.2728 95.8137 28.3144C94.9588 28.4728 94.217 28.6812 93.5884 28.9396C92.9598 29.1979 92.4611 29.4855 92.0923 29.8022C91.7319 30.119 91.5182 30.4398 91.4511 30.7649C91.4092 30.9733 91.4762 31.165 91.6523 31.34C91.8283 31.5151 92.0671 31.6859 92.3689 31.8526C92.679 32.011 93.0059 32.1818 93.3495 32.3652C93.6932 32.5402 94.0117 32.7361 94.305 32.9528C94.5984 33.1612 94.8247 33.4029 94.9839 33.678C95.1515 33.953 95.1976 34.2697 95.1222 34.6282C95.0635 34.9032 94.9336 35.1408 94.7325 35.3408C94.5397 35.5408 94.2924 35.7034 93.9907 35.8284C93.689 35.9534 93.3453 36.0451 92.9598 36.1034C92.5826 36.1618 92.1845 36.191 91.7654 36.191Z" fill="#7831B2"/>
<path d="M85.2658 36.1659C84.6372 36.1659 84.1008 36.0701 83.6566 35.8784C83.2207 35.6784 82.8771 35.4033 82.6257 35.0532C82.3742 34.6948 82.215 34.2823 82.1479 33.8155C82.0809 33.3487 82.0976 32.8486 82.1982 32.3152C82.282 31.9318 82.3994 31.5484 82.5502 31.165C82.7011 30.7816 82.8771 30.4148 83.0783 30.0648C83.2878 29.7147 83.5057 29.3855 83.732 29.0771C83.9332 28.8104 84.1385 28.5812 84.3481 28.3895C84.566 28.1978 84.7881 28.1019 85.0144 28.1019C85.1234 28.1019 85.2072 28.1311 85.2658 28.1894C85.3329 28.2394 85.3622 28.3186 85.3538 28.427C85.3538 28.527 85.2994 28.652 85.1904 28.802C84.9138 29.1354 84.6498 29.498 84.3984 29.8897C84.1469 30.2731 83.9248 30.6774 83.732 31.1025C83.5392 31.5192 83.3968 31.9526 83.3046 32.4027C83.1956 32.9362 83.204 33.4071 83.3297 33.8155C83.4554 34.2156 83.6817 34.5281 84.0086 34.7532C84.3439 34.9782 84.7629 35.0907 85.2658 35.0907C85.7017 35.0907 86.0621 35.0616 86.3471 35.0032C86.6404 34.9449 86.8793 34.874 87.0637 34.7907C87.2564 34.7073 87.4115 34.6365 87.5288 34.5781C87.6546 34.5198 87.7593 34.4906 87.8432 34.4906C87.994 34.4906 88.0946 34.5365 88.1449 34.6282C88.1952 34.7115 88.2077 34.824 88.1826 34.9657C88.1491 35.1574 88.0108 35.345 87.7677 35.5283C87.533 35.7117 87.2062 35.8659 86.7871 35.9909C86.3764 36.1076 85.8693 36.1659 85.2658 36.1659ZM83.3297 32.6528C83.1369 32.6944 82.9903 32.6944 82.8897 32.6528C82.7975 32.6111 82.7388 32.5444 82.7137 32.4527C82.6969 32.3527 82.6969 32.2527 82.7137 32.1527C82.7472 32.0026 82.8478 31.8735 83.0154 31.7651C83.183 31.6567 83.4051 31.5776 83.6817 31.5276C83.9667 31.4775 84.2768 31.4317 84.6121 31.39C84.9557 31.34 85.2952 31.2983 85.6304 31.265C85.9657 31.2233 86.2842 31.19 86.5859 31.165C86.8877 31.1316 87.1601 31.1108 87.4031 31.1025C87.6546 31.1025 87.8222 31.1441 87.906 31.2275C87.9898 31.3025 88.0192 31.4109 87.994 31.5526C87.9437 31.7693 87.8096 31.9235 87.5917 32.0152C87.3738 32.0985 87.1349 32.1527 86.8751 32.1777C86.5734 32.1944 86.259 32.2235 85.9322 32.2652C85.6137 32.2985 85.2952 32.336 84.9767 32.3777C84.6582 32.4194 84.3564 32.4652 84.0715 32.5152C83.7949 32.5569 83.5476 32.6028 83.3297 32.6528ZM83.82 28.6645C83.577 28.6645 83.4009 28.6145 83.292 28.5145C83.183 28.4145 83.1453 28.2894 83.1788 28.1394C83.1956 28.0477 83.2417 27.9602 83.3171 27.8769C83.3926 27.7852 83.5015 27.7227 83.644 27.6893C84.214 27.5726 84.8258 27.4809 85.4796 27.4143C86.1417 27.3476 86.7829 27.2976 87.4031 27.2642C88.0317 27.2309 88.5765 27.2142 89.0375 27.2142C89.2471 27.2142 89.3979 27.2684 89.4901 27.3768C89.5907 27.4768 89.6242 27.6018 89.5907 27.7518C89.5572 27.9019 89.4859 28.031 89.377 28.1394C89.268 28.2394 89.1046 28.2894 88.8867 28.2894C88.1407 28.2894 87.4953 28.3103 86.9505 28.3519C86.4057 28.3853 85.9406 28.427 85.555 28.477C85.1694 28.527 84.8342 28.5728 84.5492 28.6145C84.2726 28.6478 84.0296 28.6645 83.82 28.6645Z" fill="#7831B2"/>
<path d="M75.7419 36.2535C75.5155 36.2535 75.3731 36.1576 75.3144 35.9659C75.2557 35.7742 75.3144 35.47 75.4904 35.0532C75.7335 34.4698 76.0352 33.8488 76.3956 33.1904C76.756 32.5236 77.1667 31.861 77.6277 31.2025C78.0971 30.5357 78.6041 29.8897 79.1489 29.2646C79.6937 28.6395 80.2679 28.0727 80.8713 27.5643C81.0725 27.3976 81.2317 27.2892 81.3491 27.2392C81.4748 27.1892 81.588 27.1642 81.6885 27.1642C81.8226 27.1642 81.9274 27.2101 82.0028 27.3017C82.0783 27.3934 82.1034 27.5226 82.0783 27.6893C82.0615 27.7977 82.0322 27.8935 81.9903 27.9769C81.9484 28.0602 81.8771 28.1519 81.7765 28.2519C81.676 28.3436 81.5335 28.4686 81.3491 28.627C80.6618 29.2104 80.0164 29.8689 79.4129 30.6024C78.8095 31.3359 78.2647 32.1152 77.7785 32.9403C77.2924 33.7571 76.8817 34.599 76.5465 35.4658C76.4207 35.7825 76.2992 35.9909 76.1819 36.0909C76.0645 36.1993 75.9179 36.2535 75.7419 36.2535ZM77.2882 32.3777C77.1625 32.3777 77.0619 32.3444 76.9865 32.2777C76.9111 32.211 76.8524 32.1235 76.8105 32.0152C76.6261 31.5567 76.4585 31.1733 76.3076 30.8649C76.1567 30.5482 76.0142 30.2731 75.8801 30.0398C75.746 29.7981 75.6161 29.5647 75.4904 29.3396C75.3731 29.1063 75.2515 28.8437 75.1258 28.552C75.042 28.3186 74.9875 28.1436 74.9624 28.0269C74.9372 27.9019 74.9372 27.7727 74.9624 27.6393C74.9875 27.4976 75.042 27.3851 75.1258 27.3017C75.2096 27.2184 75.3186 27.1767 75.4527 27.1767C75.5784 27.1767 75.6832 27.2142 75.767 27.2892C75.8592 27.3559 75.9388 27.4726 76.0059 27.6393C76.1232 27.981 76.2364 28.2769 76.3453 28.527C76.4627 28.7687 76.5758 28.9937 76.6848 29.2021C76.8021 29.4021 76.9194 29.6105 77.0368 29.8272C77.1541 30.0356 77.2715 30.2731 77.3888 30.5399C77.5062 30.8066 77.6235 31.1316 77.7408 31.5151C77.766 31.5901 77.7744 31.6776 77.766 31.7776C77.766 31.8776 77.7492 31.9735 77.7157 32.0652C77.6822 32.1568 77.6277 32.2319 77.5523 32.2902C77.4852 32.3485 77.3972 32.3777 77.2882 32.3777Z" fill="#7831B2"/>
<path d="M63.8694 36.2535C63.6431 36.2535 63.5006 36.1576 63.4419 35.9659C63.3833 35.7742 63.4419 35.47 63.6179 35.0532C63.861 34.4698 64.1627 33.8488 64.5231 33.1904C64.8836 32.5236 65.2943 31.861 65.7552 31.2025C66.2246 30.5357 66.7317 29.8897 67.2765 29.2646C67.8213 28.6395 68.3954 28.0727 68.9989 27.5643C69.2 27.3976 69.3593 27.2892 69.4766 27.2392C69.6024 27.1892 69.7155 27.1642 69.8161 27.1642C69.9502 27.1642 70.055 27.2101 70.1304 27.3017C70.2058 27.3934 70.231 27.5226 70.2058 27.6893C70.1891 27.7977 70.1597 27.8935 70.1178 27.9769C70.0759 28.0602 70.0047 28.1519 69.9041 28.2519C69.8035 28.3436 69.661 28.4686 69.4766 28.627C68.7893 29.2104 68.144 29.8689 67.5405 30.6024C66.937 31.3359 66.3922 32.1152 65.9061 32.9403C65.42 33.7571 65.0093 34.599 64.674 35.4658C64.5483 35.7825 64.4268 35.9909 64.3094 36.0909C64.1921 36.1993 64.0454 36.2535 63.8694 36.2535ZM65.4158 32.3777C65.2901 32.3777 65.1895 32.3444 65.114 32.2777C65.0386 32.211 64.9799 32.1235 64.938 32.0152C64.7536 31.5567 64.586 31.1733 64.4351 30.8649C64.2843 30.5482 64.1418 30.2731 64.0077 30.0398C63.8736 29.7981 63.7437 29.5647 63.6179 29.3396C63.5006 29.1063 63.3791 28.8437 63.2533 28.552C63.1695 28.3186 63.1151 28.1436 63.0899 28.0269C63.0648 27.9019 63.0648 27.7727 63.0899 27.6393C63.1151 27.4976 63.1695 27.3851 63.2533 27.3017C63.3372 27.2184 63.4461 27.1767 63.5802 27.1767C63.706 27.1767 63.8107 27.2142 63.8945 27.2892C63.9867 27.3559 64.0664 27.4726 64.1334 27.6393C64.2508 27.981 64.3639 28.2769 64.4729 28.527C64.5902 28.7687 64.7034 28.9937 64.8123 29.2021C64.9297 29.4021 65.047 29.6105 65.1643 29.8272C65.2817 30.0356 65.399 30.2731 65.5164 30.5399C65.6337 30.8066 65.751 31.1316 65.8684 31.5151C65.8935 31.5901 65.9019 31.6776 65.8935 31.7776C65.8935 31.8776 65.8768 31.9735 65.8432 32.0652C65.8097 32.1568 65.7552 32.2319 65.6798 32.2902C65.6127 32.3485 65.5247 32.3777 65.4158 32.3777Z" fill="#7831B2"/>
<path d="M60.5738 36.191C60.3894 36.191 60.2553 36.1159 60.1715 35.9659C60.0877 35.8075 60.0122 35.545 59.9452 35.1783C59.8865 34.8782 59.8404 34.5073 59.8069 34.0655C59.7817 33.6238 59.7692 33.157 59.7692 32.6653C59.7775 32.1652 59.7985 31.6943 59.832 31.2525C59.8823 30.7107 59.92 30.2481 59.9452 29.8647C59.9787 29.4813 59.9871 29.1771 59.9703 28.9521C59.9619 28.7187 59.9242 28.5478 59.8572 28.4395C59.7901 28.3311 59.6812 28.2769 59.5303 28.2769C59.304 28.2769 59.0148 28.4561 58.6628 28.8145C58.3192 29.1646 57.942 29.6647 57.5313 30.3148C57.1206 30.9649 56.7057 31.7443 56.2866 32.6528C55.8676 33.5529 55.4736 34.5573 55.1048 35.6659C55.0462 35.8326 54.9707 35.9617 54.8785 36.0534C54.7863 36.1368 54.6774 36.1785 54.5517 36.1785C54.3589 36.1785 54.2206 36.1159 54.1368 35.9909C54.053 35.8576 54.0446 35.6242 54.1116 35.2908C54.2122 34.8074 54.3547 34.3281 54.5391 33.853C54.7319 33.3696 54.9414 32.8862 55.1677 32.4027C55.394 31.911 55.6077 31.4192 55.8089 30.9274C56.0184 30.4357 56.1903 29.9439 56.3244 29.4522C56.3579 29.3021 56.4124 29.1854 56.4878 29.1021C56.5716 29.0104 56.6722 28.9646 56.7895 28.9646C56.9069 28.9646 57.0116 28.9979 57.1038 29.0646C57.2044 29.1313 57.284 29.2354 57.3427 29.3771L56.865 29.5147C57.393 28.7312 57.8749 28.1519 58.3108 27.7768C58.755 27.4018 59.1992 27.2142 59.6434 27.2142C60.1296 27.2142 60.4732 27.3559 60.6744 27.6393C60.8755 27.9227 60.9845 28.3561 61.0012 28.9396C61.018 29.523 60.9845 30.2815 60.9007 31.215C60.8336 31.9068 60.8127 32.5027 60.8378 33.0028C60.8629 33.5029 60.8965 33.928 60.9384 34.2781C60.9887 34.6282 61.0306 34.9199 61.0641 35.1533C61.0976 35.3866 61.0976 35.5908 61.0641 35.7659C61.039 35.8992 60.9803 36.0034 60.8881 36.0784C60.8043 36.1534 60.6995 36.191 60.5738 36.191ZM54.3379 33.7405C54.1535 33.7405 54.0236 33.6988 53.9482 33.6155C53.8728 33.5321 53.8518 33.4279 53.8853 33.3029C53.9021 33.1945 53.9482 33.107 54.0236 33.0403C54.1074 32.9653 54.2374 32.8987 54.4134 32.8403C55.3856 32.4986 56.471 32.2485 57.6696 32.0902C58.8765 31.9318 60.1631 31.8526 61.5293 31.8526C61.8226 31.8526 62.0112 31.8943 62.095 31.9776C62.1872 32.061 62.2166 32.1818 62.183 32.3402C62.1495 32.5069 62.0406 32.6486 61.8562 32.7653C61.6718 32.8736 61.4287 32.9278 61.127 32.9278C60.1631 32.9278 59.3459 32.957 58.6754 33.0153C58.0132 33.0653 57.4559 33.132 57.0033 33.2154C56.5507 33.2904 56.1651 33.3696 55.8466 33.4529C55.5365 33.5363 55.2641 33.6071 55.0294 33.6655C54.8031 33.7155 54.5726 33.7405 54.3379 33.7405Z" fill="#7831B2"/>
<path d="M49.2357 36.191C48.2803 36.191 47.5972 36.0826 47.1865 35.8659C46.7758 35.6492 46.5998 35.3991 46.6584 35.1157C46.6752 34.9907 46.7255 34.8949 46.8093 34.8282C46.8931 34.7615 47.0063 34.7282 47.1487 34.7282C47.2661 34.7282 47.375 34.749 47.4756 34.7907C47.5846 34.824 47.7103 34.8657 47.8528 34.9157C48.0037 34.9574 48.1922 34.9991 48.4185 35.0407C48.6448 35.0741 48.934 35.0907 49.286 35.0907C49.6297 35.0907 49.9398 35.0699 50.2164 35.0282C50.493 34.9782 50.736 34.9074 50.9456 34.8157C51.1551 34.7157 51.3311 34.6073 51.4736 34.4906C51.4736 34.2572 51.373 34.0489 51.1719 33.8655C50.9791 33.6821 50.7277 33.5113 50.4175 33.3529C50.1158 33.1945 49.7973 33.032 49.462 32.8653C49.1268 32.6986 48.8167 32.5152 48.5317 32.3152C48.2551 32.1068 48.0414 31.8651 47.8905 31.5901C47.748 31.315 47.7145 30.9858 47.7899 30.6024C47.8737 30.1856 48.0707 29.8064 48.3808 29.4647C48.6993 29.1146 49.0765 28.802 49.5123 28.527C49.9566 28.2436 50.4175 28.006 50.8953 27.8143C51.3814 27.6143 51.8466 27.4643 52.2908 27.3643C52.7434 27.2559 53.1248 27.2017 53.4349 27.2017C53.5858 27.2017 53.7073 27.2267 53.7995 27.2767C53.8917 27.3267 53.9504 27.3934 53.9755 27.4768C54.009 27.5601 54.0132 27.656 53.9881 27.7643C53.9629 27.906 53.8959 28.0227 53.7869 28.1144C53.678 28.2061 53.5103 28.2728 53.284 28.3144C52.4291 28.4728 51.6873 28.6812 51.0587 28.9396C50.4301 29.1979 49.9314 29.4855 49.5626 29.8022C49.2022 30.119 48.9885 30.4398 48.9214 30.7649C48.8795 30.9733 48.9466 31.165 49.1226 31.34C49.2986 31.5151 49.5375 31.6859 49.8392 31.8526C50.1493 32.011 50.4762 32.1818 50.8199 32.3652C51.1635 32.5402 51.482 32.7361 51.7753 32.9528C52.0687 33.1612 52.295 33.4029 52.4543 33.678C52.6219 33.953 52.668 34.2697 52.5925 34.6282C52.5339 34.9032 52.404 35.1408 52.2028 35.3408C52.01 35.5408 51.7628 35.7034 51.461 35.8284C51.1593 35.9534 50.8157 36.0451 50.4301 36.1034C50.0529 36.1618 49.6548 36.191 49.2357 36.191Z" fill="#7831B2"/>
<path d="M37.9701 36.2785C37.5426 36.2785 37.1948 36.191 36.9266 36.0159C36.6668 35.8409 36.474 35.6158 36.3483 35.3408C36.2309 35.0574 36.1639 34.7532 36.1471 34.4281C36.1387 34.0947 36.1639 33.7697 36.2226 33.4529C36.298 33.1029 36.407 32.7236 36.5494 32.3152C36.7003 31.9068 36.8679 31.5151 37.0523 31.14C37.2367 30.7566 37.4211 30.4398 37.6055 30.1898C37.6809 30.0814 37.7648 29.9939 37.857 29.9272C37.9575 29.8606 38.0623 29.8147 38.1713 29.7897C38.2802 29.7564 38.3892 29.7397 38.4981 29.7397C38.5987 29.7397 38.67 29.7731 38.7119 29.8397C38.7538 29.8981 38.7622 29.9814 38.737 30.0898C38.7119 30.2148 38.6406 30.3732 38.5233 30.5649C38.4143 30.7566 38.2802 30.99 38.121 31.265C37.9701 31.5401 37.8192 31.8693 37.6684 32.2527C37.5175 32.6278 37.3918 33.0695 37.2912 33.5779C37.1822 34.1114 37.1948 34.5365 37.3289 34.8532C37.463 35.1699 37.7438 35.3283 38.1713 35.3283C38.4898 35.3283 38.8083 35.2449 39.1268 35.0782C39.4453 34.9115 39.726 34.6865 39.9691 34.4031C40.2205 34.1114 40.3882 33.7863 40.472 33.4279L40.6103 33.6655C40.4007 33.5821 40.1493 33.5196 39.8559 33.4779C39.571 33.4279 39.265 33.3946 38.9382 33.3779C38.6197 33.3529 38.3054 33.3487 37.9952 33.3654C37.6851 33.3737 37.4085 33.3988 37.1655 33.4404L37.3289 32.6153C37.7648 32.6069 38.1755 32.5569 38.561 32.4652C38.9549 32.3652 39.3028 32.236 39.6045 32.0777C39.9146 31.9193 40.1661 31.7526 40.3588 31.5776C40.5516 31.3942 40.6606 31.2233 40.6857 31.065C40.7109 30.9483 40.6815 30.8566 40.5977 30.7899C40.5139 30.7149 40.3798 30.6774 40.1954 30.6774C39.9691 30.6774 39.7302 30.7107 39.4788 30.7774C39.2357 30.8441 38.9759 30.9274 38.6993 31.0275C38.4227 31.1275 38.1294 31.2317 37.8192 31.34C37.6935 31.3734 37.5887 31.3567 37.5049 31.29C37.4295 31.2233 37.4044 31.14 37.4295 31.04C37.4546 30.9233 37.5343 30.8149 37.6684 30.7149C37.8109 30.6065 37.945 30.5274 38.0707 30.4774C38.582 30.2106 39.0555 30.0273 39.4913 29.9272C39.9356 29.8189 40.3463 29.7647 40.7234 29.7647C41.0252 29.7647 41.2724 29.8106 41.4652 29.9022C41.6664 29.9939 41.8088 30.119 41.8927 30.2773C41.9848 30.4357 42.01 30.6149 41.9681 30.8149C41.9178 31.0816 41.7921 31.3359 41.5909 31.5776C41.3898 31.8193 41.1341 32.0443 40.824 32.2527C40.5223 32.4527 40.1912 32.6236 39.8308 32.7653C39.4704 32.907 39.0932 33.0112 38.6993 33.0779L38.7622 32.6028C39.1561 32.5861 39.5207 32.5861 39.8559 32.6028C40.1996 32.6194 40.5013 32.6569 40.7612 32.7153C41.021 32.7736 41.2179 32.8695 41.352 33.0028C41.4945 33.1279 41.5616 33.2946 41.5532 33.5029C41.5364 33.8363 41.4191 34.1697 41.2012 34.5031C40.9916 34.8282 40.7109 35.1241 40.3588 35.3908C40.0152 35.6575 39.6338 35.8742 39.2148 36.0409C38.8041 36.1993 38.3892 36.2785 37.9701 36.2785Z" fill="#7831B2"/>
<path d="M150.456 25.1027C150.171 25.1027 149.944 25.036 149.777 24.9027C149.618 24.7693 149.5 24.5943 149.425 24.3776C149.349 24.1525 149.312 23.9108 149.312 23.6524C149.32 23.3857 149.349 23.1273 149.4 22.8773C149.45 22.6606 149.517 22.4022 149.601 22.1021C149.693 21.8021 149.794 21.4895 149.903 21.1645C150.012 20.8394 150.116 20.5352 150.217 20.2518C150.326 19.9684 150.414 19.7475 150.481 19.5891C150.59 19.2974 150.686 19.0724 150.77 18.914C150.862 18.7557 150.971 18.6765 151.097 18.6765C151.206 18.6765 151.306 18.714 151.399 18.789C151.491 18.864 151.558 18.9599 151.6 19.0766C151.65 19.1932 151.663 19.3224 151.638 19.4641C151.612 19.5975 151.554 19.7892 151.462 20.0392C151.369 20.2893 151.265 20.5685 151.147 20.8769C151.03 21.1853 150.917 21.4979 150.808 21.8146C150.699 22.123 150.619 22.4022 150.569 22.6522C150.519 22.8773 150.485 23.094 150.468 23.3024C150.452 23.5024 150.46 23.6691 150.493 23.8025C150.527 23.9275 150.598 23.99 150.707 23.99C150.975 23.99 151.315 23.7525 151.726 23.2774C152.145 22.8023 152.61 22.148 153.121 21.3145C153.356 20.9477 153.561 20.606 153.737 20.2893C153.913 19.9726 154.068 19.6975 154.202 19.4641C154.336 19.2224 154.466 19.0349 154.592 18.9015C154.718 18.7682 154.843 18.7015 154.969 18.7015C155.162 18.7015 155.3 18.7765 155.384 18.9265C155.476 19.0682 155.518 19.2599 155.51 19.5016C155.51 19.7183 155.501 19.9851 155.485 20.3018C155.476 20.6185 155.468 20.9436 155.46 21.277C155.451 21.602 155.451 21.9063 155.46 22.1896C155.485 22.6731 155.531 23.069 155.598 23.3774C155.673 23.6774 155.74 23.9191 155.799 24.1025C155.858 24.2859 155.883 24.4359 155.874 24.5526C155.866 24.6443 155.837 24.7318 155.786 24.8152C155.736 24.8902 155.673 24.9527 155.598 25.0027C155.522 25.0527 155.439 25.0777 155.346 25.0777C155.154 25.0777 154.994 24.9902 154.869 24.8152C154.751 24.6401 154.659 24.3942 154.592 24.0775C154.525 23.7608 154.47 23.3899 154.429 22.9648C154.412 22.6647 154.395 22.3438 154.378 22.0021C154.37 21.6604 154.37 21.3186 154.378 20.9769C154.395 20.6352 154.412 20.3185 154.429 20.0267L154.793 20.1518C154.693 20.3435 154.584 20.5477 154.466 20.7644C154.357 20.9811 154.223 21.227 154.064 21.502C153.913 21.7687 153.725 22.0855 153.498 22.4522C153.213 22.9023 152.903 23.3315 152.568 23.7399C152.233 24.14 151.885 24.4693 151.524 24.7276C151.172 24.9777 150.816 25.1027 150.456 25.1027Z" fill="#7831B2"/>
<path d="M142.365 25.1027C142.08 25.1027 141.854 25.036 141.686 24.9027C141.527 24.7693 141.409 24.5943 141.334 24.3776C141.258 24.1525 141.221 23.9108 141.221 23.6524C141.229 23.3857 141.258 23.1273 141.309 22.8773C141.359 22.6606 141.426 22.4022 141.51 22.1021C141.602 21.8021 141.703 21.4895 141.812 21.1645C141.921 20.8394 142.025 20.5352 142.126 20.2518C142.235 19.9684 142.323 19.7475 142.39 19.5891C142.499 19.2974 142.595 19.0724 142.679 18.914C142.771 18.7557 142.88 18.6765 143.006 18.6765C143.115 18.6765 143.216 18.714 143.308 18.789C143.4 18.864 143.467 18.9599 143.509 19.0766C143.559 19.1932 143.572 19.3224 143.547 19.4641C143.521 19.5975 143.463 19.7892 143.371 20.0392C143.278 20.2893 143.174 20.5685 143.056 20.8769C142.939 21.1853 142.826 21.4979 142.717 21.8146C142.608 22.123 142.528 22.4022 142.478 22.6522C142.428 22.8773 142.394 23.094 142.377 23.3024C142.361 23.5024 142.369 23.6691 142.403 23.8025C142.436 23.9275 142.507 23.99 142.616 23.99C142.884 23.99 143.224 23.7525 143.635 23.2774C144.054 22.8023 144.519 22.148 145.03 21.3145C145.265 20.9477 145.47 20.606 145.646 20.2893C145.822 19.9726 145.977 19.6975 146.111 19.4641C146.245 19.2224 146.375 19.0349 146.501 18.9015C146.627 18.7682 146.753 18.7015 146.878 18.7015C147.071 18.7015 147.209 18.7765 147.293 18.9265C147.385 19.0682 147.427 19.2599 147.419 19.5016C147.419 19.7183 147.41 19.9851 147.394 20.3018C147.385 20.6185 147.377 20.9436 147.369 21.277C147.36 21.602 147.36 21.9063 147.369 22.1896C147.394 22.6731 147.44 23.069 147.507 23.3774C147.582 23.6774 147.649 23.9191 147.708 24.1025C147.767 24.2859 147.792 24.4359 147.783 24.5526C147.775 24.6443 147.746 24.7318 147.695 24.8152C147.645 24.8902 147.582 24.9527 147.507 25.0027C147.431 25.0527 147.348 25.0777 147.255 25.0777C146.962 25.0777 146.753 24.886 146.627 24.5026C146.501 24.1192 146.405 23.6066 146.338 22.9648C146.321 22.6647 146.304 22.3438 146.287 22.0021C146.279 21.6604 146.279 21.3186 146.287 20.9769C146.304 20.6352 146.321 20.3185 146.338 20.0267L146.702 20.1518C146.56 20.4435 146.392 20.7644 146.199 21.1144C146.007 21.4645 145.743 21.9104 145.407 22.4522C145.122 22.9023 144.812 23.3315 144.477 23.7399C144.142 24.14 143.794 24.4693 143.433 24.7276C143.081 24.9777 142.725 25.1027 142.365 25.1027Z" fill="#7831B2"/>
<path d="M134.345 25.1027C134.043 25.1027 133.842 24.911 133.742 24.5276C133.641 24.1442 133.654 23.6358 133.779 23.0023C133.88 22.5606 133.993 22.2272 134.119 22.0021C134.253 21.7687 134.404 21.6104 134.571 21.527C134.664 21.477 134.793 21.4478 134.961 21.4395C135.129 21.4228 135.305 21.4145 135.489 21.4145C136.101 21.4145 136.704 21.3853 137.3 21.327C137.903 21.2603 138.494 21.1353 139.072 20.9519L139.299 21.8146C138.863 21.9813 138.393 22.1063 137.89 22.1896C137.388 22.273 136.876 22.3313 136.357 22.3647C135.845 22.3897 135.347 22.4022 134.861 22.4022L134.131 22.2897C134.24 21.7979 134.353 21.2811 134.471 20.7394C134.588 20.1976 134.689 19.7142 134.773 19.2891C134.806 19.0891 134.873 18.9265 134.974 18.8015C135.074 18.6765 135.187 18.614 135.313 18.614C135.523 18.614 135.678 18.6973 135.778 18.864C135.879 19.0224 135.891 19.2766 135.816 19.6267C135.782 19.81 135.732 20.0309 135.665 20.2893C135.598 20.5477 135.527 20.8186 135.451 21.1019C135.384 21.3853 135.317 21.6562 135.25 21.9146C135.192 22.1646 135.145 22.373 135.112 22.5397C135.011 23.0231 134.936 23.4566 134.886 23.84C134.844 24.215 134.806 24.4984 134.773 24.6901C134.747 24.8068 134.693 24.9027 134.609 24.9777C134.534 25.061 134.446 25.1027 134.345 25.1027ZM138.682 25.1027C138.473 25.1027 138.322 24.9819 138.23 24.7401C138.146 24.4984 138.108 24.1692 138.117 23.7525C138.133 23.3274 138.192 22.8606 138.293 22.3522C138.46 21.552 138.607 20.9186 138.733 20.4518C138.867 19.9767 138.988 19.6017 139.097 19.3266C139.164 19.1432 139.248 18.9807 139.349 18.839C139.449 18.6973 139.571 18.6265 139.713 18.6265C139.898 18.6265 140.028 18.714 140.103 18.889C140.187 19.0557 140.204 19.2599 140.153 19.5016C140.095 19.8017 140.003 20.1268 139.877 20.4768C139.76 20.8269 139.663 21.2061 139.588 21.6145C139.487 22.1146 139.416 22.5689 139.374 22.9773C139.34 23.3774 139.319 23.7149 139.311 23.99C139.303 24.265 139.282 24.4693 139.248 24.6026C139.223 24.7526 139.156 24.8735 139.047 24.9652C138.938 25.0569 138.817 25.1027 138.682 25.1027Z" fill="#7831B2"/>
<path d="M129.122 25.0902C128.602 25.0902 128.166 25.0194 127.814 24.8777C127.471 24.7276 127.207 24.5234 127.022 24.265C126.838 23.9983 126.721 23.6899 126.67 23.3399C126.628 22.9898 126.649 22.6064 126.733 22.1896C126.825 21.7812 126.985 21.3728 127.211 20.9644C127.446 20.5477 127.735 20.1684 128.078 19.8267C128.43 19.485 128.82 19.2141 129.248 19.014C129.683 18.8057 130.14 18.7015 130.618 18.7015C131.062 18.7015 131.427 18.7723 131.712 18.914C132.005 19.0557 132.206 19.2641 132.315 19.5391C132.433 19.8142 132.449 20.1601 132.366 20.5768C132.298 20.9186 132.16 21.2228 131.951 21.4895C131.749 21.7479 131.494 21.9688 131.184 22.1521C130.882 22.3272 130.543 22.4647 130.165 22.5647C129.797 22.6564 129.403 22.7022 128.984 22.7022C128.414 22.7022 128.032 22.6356 127.84 22.5022C127.655 22.3689 127.58 22.2188 127.613 22.0521C127.63 21.9521 127.668 21.8813 127.726 21.8396C127.785 21.7896 127.877 21.7646 128.003 21.7646C128.095 21.7646 128.204 21.7812 128.33 21.8146C128.464 21.8396 128.661 21.8521 128.921 21.8521C129.34 21.8521 129.717 21.7937 130.052 21.6771C130.396 21.5604 130.677 21.402 130.895 21.202C131.112 20.9936 131.251 20.756 131.309 20.4893C131.36 20.2393 131.326 20.0517 131.209 19.9267C131.1 19.8017 130.882 19.7392 130.555 19.7392C130.228 19.7392 129.914 19.8142 129.612 19.9642C129.319 20.1059 129.042 20.3018 128.782 20.5518C128.531 20.8019 128.317 21.0894 128.141 21.4145C127.965 21.7396 127.844 22.0813 127.777 22.4397C127.718 22.7398 127.714 23.0148 127.764 23.2649C127.814 23.5066 127.94 23.7066 128.141 23.865C128.351 24.015 128.648 24.09 129.034 24.09C129.47 24.09 129.843 24.0358 130.153 23.9275C130.471 23.8108 130.74 23.6774 130.957 23.5274C131.175 23.3774 131.36 23.2482 131.511 23.1398C131.661 23.0315 131.796 22.9773 131.913 22.9773C132.055 22.9773 132.156 23.0315 132.215 23.1398C132.282 23.2399 132.298 23.3732 132.265 23.5399C132.231 23.7066 132.118 23.8816 131.925 24.065C131.741 24.24 131.498 24.4067 131.196 24.5651C130.903 24.7235 130.576 24.8527 130.216 24.9527C129.864 25.0444 129.499 25.0902 129.122 25.0902Z" fill="#7831B2"/>
<path d="M121.439 23.0898C121.121 23.0898 120.857 23.019 120.647 22.8773C120.438 22.7356 120.282 22.5397 120.182 22.2897C120.09 22.0396 120.052 21.7604 120.069 21.452C120.077 21.1353 120.127 20.8144 120.22 20.4893C120.312 20.1643 120.429 19.8642 120.572 19.5891C120.723 19.3141 120.886 19.0891 121.062 18.914C121.238 18.739 121.414 18.6515 121.59 18.6515C121.674 18.6515 121.745 18.6681 121.804 18.7015C121.871 18.7348 121.921 18.7848 121.955 18.8515C121.988 18.9099 122.001 18.9849 121.992 19.0766C121.984 19.1516 121.942 19.2683 121.867 19.4266C121.8 19.5766 121.716 19.7558 121.615 19.9642C121.515 20.1643 121.427 20.381 121.351 20.6143C121.276 20.8394 121.234 21.0686 121.225 21.302C121.225 21.452 121.238 21.5812 121.263 21.6896C121.288 21.7896 121.334 21.8646 121.401 21.9146C121.477 21.9646 121.573 21.9896 121.691 21.9896C121.959 21.9896 122.235 21.9229 122.52 21.7896C122.805 21.6562 123.078 21.4728 123.338 21.2395C123.606 21.0061 123.845 20.7519 124.054 20.4768C124.264 20.1934 124.427 19.91 124.544 19.6267L124.645 20.9144C124.352 21.3312 124.029 21.7062 123.677 22.0396C123.333 22.373 122.969 22.6314 122.583 22.8148C122.206 22.9981 121.825 23.0898 121.439 23.0898ZM124.117 25.1277C123.933 25.1277 123.803 25.0569 123.727 24.9152C123.652 24.7651 123.597 24.5859 123.564 24.3776C123.547 24.2192 123.543 24.0192 123.551 23.7775C123.568 23.5274 123.597 23.2607 123.639 22.9773C123.681 22.6939 123.731 22.423 123.79 22.1646C123.832 21.9729 123.887 21.7562 123.954 21.5145C124.021 21.2645 124.092 21.0144 124.167 20.7644C124.243 20.5143 124.318 20.281 124.394 20.0642C124.469 19.8392 124.528 19.66 124.57 19.5266C124.653 19.2599 124.746 19.0515 124.846 18.9015C124.955 18.7515 125.085 18.6765 125.236 18.6765C125.378 18.6765 125.5 18.764 125.601 18.939C125.701 19.1141 125.722 19.3349 125.663 19.6017C125.63 19.785 125.559 20.0351 125.45 20.3518C125.341 20.6602 125.232 20.9811 125.123 21.3145C125.022 21.6395 124.947 21.9229 124.896 22.1646C124.813 22.5564 124.754 22.8981 124.72 23.1898C124.687 23.4816 124.67 23.7399 124.67 23.965C124.662 24.1317 124.662 24.2692 124.67 24.3776C124.679 24.4859 124.674 24.5818 124.658 24.6651C124.632 24.7818 124.574 24.886 124.482 24.9777C124.398 25.0777 124.276 25.1277 124.117 25.1277Z" fill="#7831B2"/>
<path d="M114.744 28.2283C114.232 28.2283 113.801 28.1783 113.449 28.0783C113.097 27.9866 112.841 27.8574 112.682 27.6907C112.522 27.524 112.464 27.3448 112.506 27.1531C112.564 26.8614 112.745 26.7155 113.046 26.7155C113.147 26.7155 113.239 26.7364 113.323 26.778C113.407 26.8197 113.503 26.8655 113.612 26.9156C113.721 26.9739 113.872 27.0239 114.065 27.0656C114.266 27.1073 114.53 27.1281 114.857 27.1281C115.259 27.1281 115.594 27.0406 115.862 26.8655C116.131 26.6905 116.344 26.4446 116.504 26.1279C116.671 25.8112 116.797 25.4444 116.881 25.0277C116.931 24.786 116.965 24.5484 116.981 24.3151C117.007 24.0817 117.032 23.8316 117.057 23.5649C117.082 23.2982 117.115 22.9898 117.157 22.6397C117.199 22.2813 117.266 21.8604 117.359 21.377L117.748 21.7396C117.48 22.3147 117.212 22.7856 116.944 23.1523C116.675 23.5107 116.416 23.79 116.164 23.99C115.913 24.1817 115.674 24.3151 115.448 24.3901C115.23 24.4568 115.033 24.4901 114.857 24.4901C114.127 24.4901 113.62 24.19 113.335 23.5899C113.05 22.9815 113.042 22.0104 113.31 20.6769C113.419 20.1184 113.528 19.6975 113.637 19.4141C113.754 19.1307 113.876 18.939 114.002 18.839C114.127 18.739 114.257 18.689 114.391 18.689C114.593 18.689 114.723 18.7598 114.781 18.9015C114.84 19.0432 114.819 19.2974 114.718 19.6642C114.584 20.1893 114.479 20.681 114.404 21.1394C114.329 21.5895 114.295 21.9854 114.303 22.3272C114.312 22.6689 114.366 22.9356 114.467 23.1273C114.567 23.3107 114.731 23.4024 114.957 23.4024C115.309 23.4024 115.653 23.2232 115.988 22.8648C116.323 22.498 116.638 22.0063 116.931 21.3895C117.233 20.7644 117.505 20.0642 117.748 19.2891C117.824 19.0557 117.899 18.9015 117.975 18.8265C118.05 18.7432 118.167 18.7015 118.327 18.7015C118.444 18.7015 118.549 18.739 118.641 18.814C118.741 18.889 118.8 19.0224 118.817 19.2141C118.842 19.3974 118.804 19.6475 118.704 19.9642C118.578 20.3893 118.482 20.7685 118.415 21.1019C118.356 21.4353 118.314 21.7562 118.289 22.0646C118.264 22.3647 118.243 22.6731 118.226 22.9898C118.218 23.2982 118.192 23.6399 118.151 24.015C118.109 24.3817 118.042 24.8068 117.949 25.2902C117.799 26.0404 117.564 26.628 117.245 27.0531C116.935 27.4865 116.566 27.7907 116.139 27.9658C115.712 28.1408 115.246 28.2283 114.744 28.2283Z" fill="#7831B2"/>
<path d="M107.726 25.1027C107.282 25.1027 106.905 25.0277 106.595 24.8777C106.284 24.7193 106.037 24.5026 105.853 24.2275C105.668 23.9442 105.539 23.6108 105.463 23.2274C105.388 22.8439 105.363 22.423 105.388 21.9646C105.413 21.4979 105.476 21.0103 105.576 20.5018C105.685 19.9267 105.844 19.4099 106.054 18.9515C106.264 18.4848 106.498 18.0805 106.758 17.7388C107.026 17.3887 107.307 17.1012 107.6 16.8761C107.894 16.6511 108.187 16.4844 108.48 16.376C108.74 16.2843 109.004 16.2135 109.273 16.1635C109.541 16.1051 109.801 16.0551 110.052 16.0135C110.303 15.9718 110.534 15.9301 110.743 15.8884C111.112 15.8134 111.427 15.7301 111.686 15.6384C111.946 15.5467 112.143 15.5009 112.277 15.5009C112.378 15.5009 112.47 15.5259 112.554 15.5759C112.646 15.6259 112.713 15.6967 112.755 15.7884C112.797 15.8718 112.805 15.9718 112.78 16.0885C112.755 16.2302 112.667 16.351 112.516 16.451C112.365 16.5427 112.177 16.6177 111.95 16.6761C111.498 16.8011 111.083 16.8886 110.706 16.9386C110.337 16.9803 109.998 17.022 109.687 17.0637C109.377 17.097 109.076 17.1762 108.782 17.3012C108.497 17.4096 108.216 17.6054 107.94 17.8888C107.672 18.1639 107.429 18.5098 107.211 18.9265C107.001 19.3349 106.846 19.7975 106.745 20.3143C106.569 21.2061 106.49 21.9313 106.507 22.4897C106.532 23.0398 106.657 23.4441 106.884 23.7024C107.118 23.9608 107.445 24.09 107.864 24.09C108.149 24.09 108.439 24.0192 108.732 23.8775C109.025 23.7274 109.298 23.5316 109.549 23.2899C109.809 23.0481 110.027 22.7856 110.203 22.5022C110.387 22.2105 110.505 21.9271 110.555 21.652C110.622 21.352 110.618 21.0978 110.542 20.8894C110.475 20.6727 110.341 20.5102 110.14 20.4018C109.939 20.2851 109.671 20.2268 109.335 20.2268C108.891 20.2268 108.392 20.3518 107.839 20.6018C107.294 20.8519 106.745 21.2311 106.192 21.7396L105.79 21.2645C106.134 20.7894 106.523 20.4018 106.959 20.1017C107.395 19.7934 107.848 19.5683 108.317 19.4266C108.786 19.2766 109.231 19.2016 109.65 19.2016C110.161 19.2016 110.588 19.2974 110.932 19.4891C111.276 19.6725 111.519 19.9392 111.661 20.2893C111.804 20.6394 111.816 21.0728 111.699 21.5895C111.607 22.023 111.435 22.448 111.183 22.8648C110.94 23.2732 110.639 23.6483 110.278 23.99C109.918 24.3234 109.52 24.5943 109.084 24.8027C108.648 25.0027 108.195 25.1027 107.726 25.1027Z" fill="#7831B2"/>
<path d="M100.327 25.1152C99.6401 25.1152 99.0744 24.9652 98.6302 24.6651C98.1943 24.3651 97.8926 23.9608 97.725 23.4524C97.5657 22.9356 97.5489 22.348 97.6747 21.6896C97.7669 21.2228 97.9261 20.8144 98.1524 20.4643C98.3871 20.1059 98.6469 19.8059 98.9319 19.5641C99.2253 19.3224 99.5186 19.1432 99.812 19.0265C100.105 18.9015 100.357 18.839 100.566 18.839C100.658 18.839 100.734 18.8515 100.793 18.8765C100.86 18.9015 100.91 18.9432 100.943 19.0015C100.985 19.0515 100.998 19.1224 100.981 19.2141C100.939 19.3808 100.872 19.535 100.78 19.6767C100.688 19.81 100.516 19.9309 100.265 20.0392C99.9628 20.1809 99.7072 20.3393 99.4977 20.5143C99.2965 20.681 99.1331 20.8769 99.0073 21.1019C98.8816 21.3186 98.7936 21.5812 98.7433 21.8896C98.6092 22.5647 98.6888 23.1065 98.9822 23.5149C99.2755 23.915 99.7239 24.115 100.327 24.115C100.914 24.115 101.425 23.9066 101.861 23.4899C102.305 23.0648 102.595 22.5022 102.729 21.8021C102.863 21.1603 102.821 20.6602 102.603 20.3018C102.385 19.935 102.025 19.7517 101.522 19.7517C101.262 19.7517 101.04 19.8017 100.855 19.9017C100.679 20.0017 100.487 20.1351 100.277 20.3018C100.126 20.4268 100.005 20.5393 99.9125 20.6394C99.8203 20.7394 99.7365 20.8186 99.6611 20.8769C99.594 20.9269 99.506 20.9519 99.3971 20.9519C99.2797 20.9519 99.1875 20.9144 99.1205 20.8394C99.0618 20.756 99.0492 20.6268 99.0828 20.4518C99.1163 20.2601 99.2127 20.0642 99.3719 19.8642C99.5396 19.6642 99.7407 19.4808 99.9754 19.3141C100.218 19.1391 100.478 19.0015 100.755 18.9015C101.031 18.7932 101.304 18.739 101.572 18.739C102.176 18.739 102.666 18.8807 103.043 19.1641C103.42 19.4391 103.676 19.8225 103.81 20.3143C103.944 20.7977 103.944 21.3562 103.81 21.9896C103.693 22.6147 103.466 23.1648 103.131 23.6399C102.796 24.1067 102.385 24.4693 101.899 24.7276C101.421 24.986 100.897 25.1152 100.327 25.1152Z" fill="#7831B2"/>
<path d="M88.0328 25.1027C87.5886 25.1027 87.2114 25.0277 86.9013 24.8777C86.5912 24.7193 86.3439 24.5026 86.1595 24.2275C85.9752 23.9442 85.8452 23.6108 85.7698 23.2274C85.6944 22.8439 85.6692 22.423 85.6944 21.9646C85.7195 21.4979 85.7824 21.0103 85.883 20.5018C85.9919 19.9267 86.1512 19.4099 86.3607 18.9515C86.5702 18.4848 86.8049 18.0805 87.0648 17.7388C87.333 17.3887 87.6137 17.1012 87.9071 16.8761C88.2004 16.6511 88.4938 16.4844 88.7871 16.376C89.047 16.2843 89.311 16.2135 89.5792 16.1635C89.8474 16.1051 90.1072 16.0551 90.3587 16.0135C90.6101 15.9718 90.8406 15.9301 91.0502 15.8884C91.419 15.8134 91.7333 15.7301 91.9931 15.6384C92.2529 15.5467 92.4499 15.5009 92.584 15.5009C92.6846 15.5009 92.7768 15.5259 92.8606 15.5759C92.9528 15.6259 93.0198 15.6967 93.0617 15.7884C93.1036 15.8718 93.112 15.9718 93.0869 16.0885C93.0617 16.2302 92.9737 16.351 92.8229 16.451C92.672 16.5427 92.4834 16.6177 92.2571 16.6761C91.8045 16.8011 91.3896 16.8886 91.0125 16.9386C90.6437 16.9803 90.3042 17.022 89.9941 17.0637C89.684 17.097 89.3822 17.1762 89.0889 17.3012C88.8039 17.4096 88.5231 17.6054 88.2465 17.8888C87.9783 18.1639 87.7353 18.5098 87.5173 18.9265C87.3078 19.3349 87.1528 19.7975 87.0522 20.3143C86.8762 21.2061 86.7965 21.9313 86.8133 22.4897C86.8384 23.0398 86.9642 23.4441 87.1905 23.7024C87.4252 23.9608 87.752 24.09 88.1711 24.09C88.4561 24.09 88.7452 24.0192 89.0386 23.8775C89.3319 23.7274 89.6044 23.5316 89.8558 23.2899C90.1156 23.0481 90.3335 22.7856 90.5096 22.5022C90.694 22.2105 90.8113 21.9271 90.8616 21.652C90.9286 21.352 90.9244 21.0978 90.849 20.8894C90.782 20.6727 90.6479 20.5102 90.4467 20.4018C90.2455 20.2851 89.9773 20.2268 89.6421 20.2268C89.1979 20.2268 88.6991 20.3518 88.146 20.6018C87.6012 20.8519 87.0522 21.2311 86.499 21.7396L86.0967 21.2645C86.4403 20.7894 86.8301 20.4018 87.2659 20.1017C87.7017 19.7934 88.1543 19.5683 88.6237 19.4266C89.0931 19.2766 89.5373 19.2016 89.9564 19.2016C90.4677 19.2016 90.8951 19.2974 91.2387 19.4891C91.5824 19.6725 91.8255 19.9392 91.9679 20.2893C92.1104 20.6394 92.123 21.0728 92.0057 21.5895C91.9135 22.023 91.7416 22.448 91.4902 22.8648C91.2471 23.2732 90.9454 23.6483 90.585 23.99C90.2246 24.3234 89.8265 24.5943 89.3906 24.8027C88.9548 25.0027 88.5022 25.1027 88.0328 25.1027Z" fill="#7831B2"/>
<path d="M80.6341 25.1152C79.9468 25.1152 79.3811 24.9652 78.9369 24.6651C78.501 24.3651 78.1993 23.9608 78.0317 23.4524C77.8724 22.9356 77.8557 22.348 77.9814 21.6896C78.0736 21.2228 78.2328 20.8144 78.4591 20.4643C78.6938 20.1059 78.9536 19.8059 79.2386 19.5641C79.532 19.3224 79.8253 19.1432 80.1187 19.0265C80.412 18.9015 80.6635 18.839 80.873 18.839C80.9652 18.839 81.0406 18.8515 81.0993 18.8765C81.1664 18.9015 81.2166 18.9432 81.2502 19.0015C81.2921 19.0515 81.3046 19.1224 81.2879 19.2141C81.246 19.3808 81.1789 19.535 81.0867 19.6767C80.9945 19.81 80.8227 19.9309 80.5713 20.0392C80.2695 20.1809 80.0139 20.3393 79.8044 20.5143C79.6032 20.681 79.4398 20.8769 79.314 21.1019C79.1883 21.3186 79.1003 21.5812 79.05 21.8896C78.9159 22.5647 78.9955 23.1065 79.2889 23.5149C79.5823 23.915 80.0307 24.115 80.6341 24.115C81.2208 24.115 81.7321 23.9066 82.1679 23.4899C82.6122 23.0648 82.9013 22.5022 83.0354 21.8021C83.1695 21.1603 83.1276 20.6602 82.9097 20.3018C82.6918 19.935 82.3314 19.7517 81.8285 19.7517C81.5687 19.7517 81.3466 19.8017 81.1622 19.9017C80.9862 20.0017 80.7934 20.1351 80.5838 20.3018C80.433 20.4268 80.3114 20.5393 80.2192 20.6394C80.1271 20.7394 80.0432 20.8186 79.9678 20.8769C79.9007 20.9269 79.8127 20.9519 79.7038 20.9519C79.5864 20.9519 79.4942 20.9144 79.4272 20.8394C79.3685 20.756 79.3559 20.6268 79.3895 20.4518C79.423 20.2601 79.5194 20.0642 79.6786 19.8642C79.8463 19.6642 80.0474 19.4808 80.2821 19.3141C80.5252 19.1391 80.785 19.0015 81.0616 18.9015C81.3382 18.7932 81.6106 18.739 81.8788 18.739C82.4823 18.739 82.9726 18.8807 83.3497 19.1641C83.7269 19.4391 83.9825 19.8225 84.1166 20.3143C84.2508 20.7977 84.2508 21.3562 84.1166 21.9896C83.9993 22.6147 83.773 23.1648 83.4377 23.6399C83.1025 24.1067 82.6918 24.4693 82.2057 24.7276C81.7279 24.986 81.2041 25.1152 80.6341 25.1152Z" fill="#7831B2"/>
<path d="M68.7248 25.1152C68.0376 25.1152 67.4718 24.9652 67.0276 24.6651C66.5918 24.3651 66.29 23.9608 66.1224 23.4524C65.9631 22.9356 65.9464 22.348 66.0721 21.6896C66.1643 21.2228 66.3235 20.8144 66.5498 20.4643C66.7845 20.1059 67.0443 19.8059 67.3293 19.5641C67.6227 19.3224 67.916 19.1432 68.2094 19.0265C68.5027 18.9015 68.7542 18.839 68.9637 18.839C69.0559 18.839 69.1313 18.8515 69.19 18.8765C69.2571 18.9015 69.3074 18.9432 69.3409 19.0015C69.3828 19.0515 69.3954 19.1224 69.3786 19.2141C69.3367 19.3808 69.2696 19.535 69.1774 19.6767C69.0852 19.81 68.9134 19.9309 68.662 20.0392C68.3602 20.1809 68.1046 20.3393 67.8951 20.5143C67.6939 20.681 67.5305 20.8769 67.4048 21.1019C67.279 21.3186 67.191 21.5812 67.1407 21.8896C67.0066 22.5647 67.0863 23.1065 67.3796 23.5149C67.673 23.915 68.1214 24.115 68.7248 24.115C69.3116 24.115 69.8228 23.9066 70.2587 23.4899C70.7029 23.0648 70.992 22.5022 71.1261 21.8021C71.2603 21.1603 71.2183 20.6602 71.0004 20.3018C70.7825 19.935 70.4221 19.7517 69.9192 19.7517C69.6594 19.7517 69.4373 19.8017 69.2529 19.9017C69.0769 20.0017 68.8841 20.1351 68.6746 20.3018C68.5237 20.4268 68.4022 20.5393 68.31 20.6394C68.2178 20.7394 68.1339 20.8186 68.0585 20.8769C67.9915 20.9269 67.9035 20.9519 67.7945 20.9519C67.6772 20.9519 67.585 20.9144 67.5179 20.8394C67.4592 20.756 67.4467 20.6268 67.4802 20.4518C67.5137 20.2601 67.6101 20.0642 67.7693 19.8642C67.937 19.6642 68.1381 19.4808 68.3728 19.3141C68.6159 19.1391 68.8757 19.0015 69.1523 18.9015C69.4289 18.7932 69.7013 18.739 69.9695 18.739C70.573 18.739 71.0633 18.8807 71.4405 19.1641C71.8176 19.4391 72.0733 19.8225 72.2074 20.3143C72.3415 20.7977 72.3415 21.3562 72.2074 21.9896C72.09 22.6147 71.8637 23.1648 71.5285 23.6399C71.1932 24.1067 70.7825 24.4693 70.2964 24.7276C69.8186 24.986 69.2948 25.1152 68.7248 25.1152Z" fill="#7831B2"/>
<path d="M61.2635 25.0902C60.5678 25.0902 60.0272 24.9652 59.6417 24.7151C59.2561 24.4568 59.0047 24.1109 58.8873 23.6774C58.77 23.2357 58.7658 22.7398 58.8748 22.1896C58.967 21.7812 59.1262 21.3728 59.3525 20.9644C59.5872 20.5477 59.8764 20.1684 60.22 19.8267C60.572 19.485 60.9618 19.2141 61.3892 19.014C61.8251 18.8057 62.2818 18.7015 62.7596 18.7015C63.2038 18.7015 63.5684 18.7723 63.8534 18.914C64.1467 19.0557 64.3479 19.2641 64.4568 19.5391C64.5742 19.8142 64.591 20.1601 64.5071 20.5768C64.4233 21.0353 64.218 21.4228 63.8911 21.7396C63.5642 22.048 63.1577 22.2855 62.6716 22.4522C62.1938 22.6189 61.6784 22.7022 61.1252 22.7022C60.5553 22.7022 60.1739 22.6356 59.9811 22.5022C59.7967 22.3689 59.7213 22.2188 59.7548 22.0521C59.7716 21.9521 59.8093 21.8813 59.868 21.8396C59.9266 21.7896 60.0188 21.7646 60.1446 21.7646C60.2368 21.7646 60.3457 21.7812 60.4714 21.8146C60.6055 21.8396 60.8025 21.8521 61.0623 21.8521C61.4814 21.8521 61.8586 21.7937 62.1938 21.6771C62.5375 21.5604 62.8183 21.402 63.0362 21.202C63.2541 20.9936 63.3924 20.756 63.4511 20.4893C63.5014 20.2393 63.4678 20.0517 63.3505 19.9267C63.2415 19.8017 63.0236 19.7392 62.6967 19.7392C62.3699 19.7392 62.0555 19.8142 61.7538 19.9642C61.4605 20.1059 61.1839 20.3018 60.924 20.5518C60.6726 20.8019 60.4589 21.0894 60.2829 21.4145C60.1068 21.7396 59.9853 22.0813 59.9183 22.4397C59.8596 22.7398 59.8554 23.0148 59.9057 23.2649C59.956 23.5066 60.0817 23.7066 60.2829 23.865C60.4924 24.015 60.7899 24.09 61.1755 24.09C61.6113 24.09 61.9843 24.0358 62.2944 23.9275C62.6129 23.8108 62.8811 23.6774 63.099 23.5274C63.317 23.3774 63.5014 23.2482 63.6522 23.1398C63.8031 23.0315 63.9372 22.9773 64.0545 22.9773C64.197 22.9773 64.2976 23.0315 64.3563 23.1398C64.4233 23.2399 64.4401 23.3732 64.4066 23.5399C64.373 23.7066 64.2599 23.8816 64.0671 24.065C63.8827 24.24 63.6397 24.4067 63.3379 24.5651C63.0446 24.7235 62.7177 24.8527 62.3573 24.9527C62.0053 25.0444 61.6407 25.0902 61.2635 25.0902Z" fill="#7831B2"/>
<path d="M51.1036 24.3901C51.2126 24.14 51.3509 23.8608 51.5185 23.5524C51.6861 23.2357 51.8663 22.9065 52.0591 22.5647C52.2603 22.223 52.4614 21.8896 52.6626 21.5645C52.8721 21.2311 53.0691 20.9311 53.2535 20.6644C53.4965 20.3226 53.7396 20.0017 53.9827 19.7017C54.2257 19.4016 54.4562 19.1599 54.6741 18.9765C54.9004 18.7848 55.0932 18.689 55.2525 18.689C55.4201 18.689 55.5668 18.7598 55.6925 18.9015C55.8266 19.0432 55.9439 19.2766 56.0445 19.6017C56.1116 19.835 56.1828 20.1309 56.2582 20.4893C56.3337 20.8477 56.4049 21.2395 56.472 21.6645C56.539 22.0813 56.5935 22.5022 56.6354 22.9273C56.6773 23.3524 56.7025 23.7441 56.7108 24.1025L55.6045 24.2025C55.5961 23.8025 55.5668 23.369 55.5165 22.9023C55.4746 22.4272 55.4159 21.9688 55.3405 21.527C55.265 21.0853 55.1854 20.7019 55.1016 20.3768C55.0178 20.0434 54.9298 19.8184 54.8376 19.7017L55.3279 19.6017C55.0597 19.885 54.7747 20.2184 54.473 20.6018C54.1796 20.9853 53.903 21.3978 53.6432 21.8396C53.4504 22.1646 53.2702 22.473 53.1026 22.7648C52.935 23.0565 52.7799 23.3399 52.6374 23.6149C52.5033 23.8816 52.3692 24.1567 52.2351 24.4401L51.1036 24.3901ZM56.5474 26.778C56.3798 26.778 56.2499 26.7197 56.1577 26.603C56.0655 26.4863 56.0361 26.3571 56.0697 26.2154C56.0864 26.1154 56.1409 25.9654 56.2331 25.7653C56.3253 25.5736 56.4217 25.3528 56.5223 25.1027C56.6228 24.8527 56.6983 24.5943 56.7486 24.3276L57.2012 24.9652C57.0838 24.9485 56.8994 24.9318 56.648 24.9152C56.4049 24.8985 56.0948 24.8902 55.7176 24.8902C55.2734 24.8902 54.8166 24.8943 54.3473 24.9027C53.8863 24.911 53.4295 24.9235 52.9769 24.9402C52.5327 24.9568 52.1094 24.9819 51.7071 25.0152C51.3048 25.0485 50.936 25.0902 50.6007 25.1402L51.091 24.7026C51.0743 24.811 51.0575 24.9443 51.0408 25.1027C51.024 25.2611 51.0114 25.4194 51.003 25.5778C50.9947 25.7445 50.9863 25.8904 50.9779 26.0154C50.9779 26.1404 50.9779 26.2279 50.9779 26.2779C50.9695 26.4196 50.9192 26.528 50.827 26.603C50.7348 26.6863 50.6175 26.728 50.475 26.728C50.2738 26.728 50.1355 26.6488 50.0601 26.4905C49.9847 26.3321 49.947 26.1446 49.947 25.9279C49.9386 25.7945 49.9428 25.6236 49.9595 25.4153C49.9763 25.2069 49.9973 25.0444 50.0224 24.9277C50.0559 24.7943 50.1062 24.6776 50.1733 24.5776C50.2319 24.4693 50.3199 24.3776 50.4373 24.3026C50.5546 24.2275 50.7055 24.1734 50.8899 24.14C51.0994 24.1067 51.3802 24.0775 51.7322 24.0525C52.0926 24.0192 52.4949 23.9942 52.9392 23.9775C53.3918 23.9525 53.8569 23.9358 54.3347 23.9275C54.8124 23.9108 55.2692 23.9025 55.7051 23.9025C55.923 23.9025 56.1619 23.9066 56.4217 23.915C56.6815 23.915 56.933 23.9317 57.176 23.965C57.4191 23.99 57.5825 24.065 57.6663 24.19C57.7585 24.3151 57.7795 24.5109 57.7292 24.7776C57.6873 24.986 57.6244 25.2069 57.5406 25.4403C57.4568 25.6737 57.3562 25.8904 57.2389 26.0904C57.1299 26.2988 57.0126 26.4655 56.8869 26.5905C56.7695 26.7155 56.6564 26.778 56.5474 26.778Z" fill="#7831B2"/>
<path d="M44.0702 25.1027C43.7852 25.1027 43.5589 25.036 43.3913 24.9027C43.2321 24.7693 43.1147 24.5943 43.0393 24.3776C42.9638 24.1525 42.9261 23.9108 42.9261 23.6524C42.9345 23.3857 42.9639 23.1273 43.0141 22.8773C43.0644 22.6606 43.1315 22.4022 43.2153 22.1021C43.3075 21.8021 43.4081 21.4895 43.517 21.1645C43.626 20.8394 43.7308 20.5352 43.8313 20.2518C43.9403 19.9684 44.0283 19.7475 44.0954 19.5891C44.2043 19.2974 44.3007 19.0724 44.3845 18.914C44.4767 18.7557 44.5857 18.6765 44.7114 18.6765C44.8204 18.6765 44.9209 18.714 45.0131 18.789C45.1053 18.864 45.1724 18.9599 45.2143 19.0766C45.2646 19.1932 45.2771 19.3224 45.252 19.4641C45.2269 19.5975 45.1682 19.7892 45.076 20.0392C44.9838 20.2893 44.879 20.5685 44.7617 20.8769C44.6443 21.1853 44.5312 21.4979 44.4222 21.8146C44.3133 22.123 44.2337 22.4022 44.1834 22.6522C44.1331 22.8773 44.0995 23.094 44.0828 23.3024C44.066 23.5024 44.0744 23.6691 44.1079 23.8025C44.1415 23.9275 44.2127 23.99 44.3217 23.99C44.5899 23.99 44.9293 23.7525 45.34 23.2774C45.7591 22.8023 46.2243 22.148 46.7355 21.3145C46.9702 20.9477 47.1756 20.606 47.3516 20.2893C47.5276 19.9726 47.6826 19.6975 47.8168 19.4641C47.9509 19.2224 48.0808 19.0349 48.2065 18.9015C48.3322 18.7682 48.4579 18.7015 48.5837 18.7015C48.7764 18.7015 48.9147 18.7765 48.9985 18.9265C49.0907 19.0682 49.1326 19.2599 49.1243 19.5016C49.1243 19.7183 49.1159 19.9851 49.0991 20.3018C49.0907 20.6185 49.0824 20.9436 49.074 21.277C49.0656 21.602 49.0656 21.9063 49.074 22.1896C49.0991 22.6731 49.1452 23.069 49.2123 23.3774C49.2877 23.6774 49.3548 23.9191 49.4134 24.1025C49.4721 24.2859 49.4972 24.4359 49.4889 24.5526C49.4805 24.6443 49.4511 24.7318 49.4009 24.8152C49.3506 24.8902 49.2877 24.9527 49.2123 25.0027C49.1368 25.0527 49.053 25.0777 48.9608 25.0777C48.7681 25.0777 48.6088 24.9902 48.4831 24.8152C48.3657 24.6401 48.2735 24.3942 48.2065 24.0775C48.1394 23.7608 48.085 23.3899 48.0431 22.9648C48.0263 22.6647 48.0095 22.3438 47.9928 22.0021C47.9844 21.6604 47.9844 21.3186 47.9928 20.9769C48.0095 20.6352 48.0263 20.3185 48.0431 20.0267L48.4076 20.1518C48.3071 20.3435 48.1981 20.5477 48.0808 20.7644C47.9718 20.9811 47.8377 21.227 47.6785 21.502C47.5276 21.7687 47.339 22.0855 47.1127 22.4522C46.8277 22.9023 46.5176 23.3315 46.1824 23.7399C45.8471 24.14 45.4993 24.4693 45.1389 24.7276C44.7868 24.9777 44.4306 25.1027 44.0702 25.1027Z" fill="#7831B2"/>
<path d="M37.9701 25.1652C37.5426 25.1652 37.1948 25.0777 36.9266 24.9027C36.6668 24.7276 36.474 24.5026 36.3483 24.2275C36.2309 23.9442 36.1639 23.6399 36.1471 23.3149C36.1387 22.9815 36.1639 22.6564 36.2226 22.3397C36.298 21.9896 36.407 21.6104 36.5494 21.202C36.7003 20.7935 36.8679 20.4018 37.0523 20.0267C37.2367 19.6433 37.4211 19.3266 37.6055 19.0766C37.6809 18.9682 37.7648 18.8807 37.857 18.814C37.9575 18.7473 38.0623 18.7015 38.1713 18.6765C38.2802 18.6431 38.3892 18.6265 38.4981 18.6265C38.5987 18.6265 38.67 18.6598 38.7119 18.7265C38.7538 18.7848 38.7622 18.8682 38.737 18.9765C38.7119 19.1016 38.6406 19.2599 38.5233 19.4516C38.4143 19.6433 38.2802 19.8767 38.121 20.1518C37.9701 20.4268 37.8192 20.756 37.6684 21.1394C37.5175 21.5145 37.3918 21.9563 37.2912 22.4647C37.1822 22.9981 37.1948 23.4232 37.3289 23.7399C37.463 24.0567 37.7438 24.215 38.1713 24.215C38.4898 24.215 38.8083 24.1317 39.1268 23.965C39.4453 23.7983 39.726 23.5732 39.9691 23.2899C40.2205 22.9981 40.3882 22.6731 40.472 22.3147L40.6103 22.5522C40.4007 22.4689 40.1493 22.4064 39.8559 22.3647C39.571 22.3147 39.265 22.2813 38.9382 22.2647C38.6197 22.2397 38.3054 22.2355 37.9952 22.2522C37.6851 22.2605 37.4085 22.2855 37.1655 22.3272L37.3289 21.502C37.7648 21.4937 38.1755 21.4437 38.561 21.352C38.9549 21.252 39.3028 21.1228 39.6045 20.9644C39.9146 20.8061 40.1661 20.6394 40.3588 20.4643C40.5516 20.281 40.6606 20.1101 40.6857 19.9517C40.7109 19.835 40.6815 19.7433 40.5977 19.6767C40.5139 19.6017 40.3798 19.5641 40.1954 19.5641C39.9691 19.5641 39.7302 19.5975 39.4788 19.6642C39.2357 19.7308 38.9759 19.8142 38.6993 19.9142C38.4227 20.0142 38.1294 20.1184 37.8192 20.2268C37.6935 20.2601 37.5887 20.2434 37.5049 20.1768C37.4295 20.1101 37.4044 20.0267 37.4295 19.9267C37.4546 19.81 37.5343 19.7017 37.6684 19.6017C37.8109 19.4933 37.945 19.4141 38.0707 19.3641C38.582 19.0974 39.0555 18.914 39.4913 18.814C39.9356 18.7056 40.3463 18.6515 40.7234 18.6515C41.0252 18.6515 41.2724 18.6973 41.4652 18.789C41.6664 18.8807 41.8088 19.0057 41.8927 19.1641C41.9848 19.3224 42.01 19.5016 41.9681 19.7017C41.9178 19.9684 41.7921 20.2226 41.5909 20.4643C41.3898 20.706 41.1341 20.9311 40.824 21.1394C40.5223 21.3395 40.1912 21.5104 39.8308 21.652C39.4704 21.7937 39.0932 21.8979 38.6993 21.9646L38.7622 21.4895C39.1561 21.4728 39.5207 21.4728 39.8559 21.4895C40.1996 21.5062 40.5013 21.5437 40.7612 21.602C41.021 21.6604 41.2179 21.7562 41.352 21.8896C41.4945 22.0146 41.5616 22.1813 41.5532 22.3897C41.5364 22.7231 41.4191 23.0565 41.2012 23.3899C40.9916 23.7149 40.7109 24.0108 40.3588 24.2776C40.0152 24.5443 39.6338 24.761 39.2148 24.9277C38.8041 25.086 38.3892 25.1652 37.9701 25.1652Z" fill="#7831B2"/>
<path d="M165.967 13.977C165.271 13.977 164.731 13.8519 164.345 13.6019C163.96 13.3435 163.708 12.9976 163.591 12.5642C163.473 12.1224 163.469 11.6265 163.578 11.0764C163.67 10.668 163.83 10.2596 164.056 9.85117C164.291 9.43442 164.58 9.05518 164.923 8.71345C165.276 8.37172 165.665 8.10083 166.093 7.90079C166.529 7.69242 166.985 7.58823 167.463 7.58823C167.907 7.58823 168.272 7.65908 168.557 7.80077C168.85 7.94247 169.051 8.15084 169.16 8.42589C169.278 8.70095 169.294 9.04685 169.211 9.46359C169.127 9.92202 168.921 10.3096 168.595 10.6263C168.268 10.9347 167.861 11.1723 167.375 11.339C166.897 11.5057 166.382 11.589 165.829 11.589C165.259 11.589 164.877 11.5223 164.685 11.389C164.5 11.2556 164.425 11.1056 164.458 10.9389C164.475 10.8389 164.513 10.768 164.571 10.7263C164.63 10.6763 164.722 10.6513 164.848 10.6513C164.94 10.6513 165.049 10.668 165.175 10.7013C165.309 10.7263 165.506 10.7388 165.766 10.7388C166.185 10.7388 166.562 10.6805 166.897 10.5638C167.241 10.4471 167.522 10.2888 167.74 10.0887C167.958 9.88034 168.096 9.64279 168.155 9.37608C168.205 9.12603 168.171 8.93849 168.054 8.81347C167.945 8.68844 167.727 8.62593 167.4 8.62593C167.073 8.62593 166.759 8.70095 166.457 8.85098C166.164 8.99267 165.887 9.18854 165.628 9.43859C165.376 9.68864 165.162 9.97619 164.986 10.3013C164.81 10.6263 164.689 10.9681 164.622 11.3265C164.563 11.6265 164.559 11.9016 164.609 12.1516C164.659 12.3933 164.785 12.5934 164.986 12.7517C165.196 12.9018 165.493 12.9768 165.879 12.9768C166.315 12.9768 166.688 12.9226 166.998 12.8142C167.316 12.6975 167.585 12.5642 167.803 12.4142C168.02 12.2641 168.205 12.1349 168.356 12.0266C168.507 11.9182 168.641 11.8641 168.758 11.8641C168.901 11.8641 169.001 11.9182 169.06 12.0266C169.127 12.1266 169.144 12.26 169.11 12.4267C169.077 12.5934 168.963 12.7684 168.771 12.9518C168.586 13.1268 168.343 13.2935 168.041 13.4519C167.748 13.6102 167.421 13.7394 167.061 13.8394C166.709 13.9311 166.344 13.977 165.967 13.977Z" fill="#7831B2"/>
<path d="M158.707 14.002C158.02 14.002 157.454 13.8519 157.01 13.5519C156.574 13.2518 156.273 12.8476 156.105 12.3391C155.946 11.8224 155.929 11.2348 156.055 10.5763C156.147 10.1096 156.306 9.70114 156.532 9.35107C156.767 8.99267 157.027 8.69261 157.312 8.4509C157.605 8.20919 157.899 8.02998 158.192 7.9133C158.485 7.78827 158.737 7.72576 158.946 7.72576C159.039 7.72576 159.114 7.73826 159.173 7.76327C159.24 7.78827 159.29 7.82995 159.324 7.88829C159.365 7.9383 159.378 8.00915 159.361 8.10083C159.319 8.26753 159.252 8.42173 159.16 8.56342C159.068 8.69678 158.896 8.81764 158.645 8.92599C158.343 9.06768 158.087 9.22605 157.878 9.40108C157.677 9.56778 157.513 9.76365 157.387 9.98869C157.262 10.2054 157.174 10.468 157.123 10.7763C156.989 11.4515 157.069 11.9932 157.362 12.4017C157.656 12.8017 158.104 13.0018 158.707 13.0018C159.294 13.0018 159.805 12.7934 160.241 12.3767C160.686 11.9516 160.975 11.389 161.109 10.6888C161.243 10.047 161.201 9.54694 160.983 9.18854C160.765 8.8218 160.405 8.63843 159.902 8.63843C159.642 8.63843 159.42 8.68845 159.236 8.78846C159.06 8.88848 158.867 9.02184 158.657 9.18854C158.506 9.31356 158.385 9.42609 158.293 9.52611C158.2 9.62613 158.117 9.70531 158.041 9.76365C157.974 9.81366 157.886 9.83867 157.777 9.83867C157.66 9.83867 157.568 9.80116 157.501 9.72614C157.442 9.64279 157.429 9.5136 157.463 9.33857C157.496 9.14687 157.593 8.951 157.752 8.75096C157.92 8.55092 158.121 8.36755 158.355 8.20085C158.599 8.02582 158.858 7.88829 159.135 7.78827C159.412 7.67992 159.684 7.62574 159.952 7.62574C160.556 7.62574 161.046 7.76743 161.423 8.05082C161.8 8.32588 162.056 8.70928 162.19 9.20104C162.324 9.68447 162.324 10.2429 162.19 10.8764C162.073 11.5015 161.846 12.0516 161.511 12.5267C161.176 12.9934 160.765 13.356 160.279 13.6144C159.801 13.8728 159.277 14.002 158.707 14.002Z" fill="#7831B2"/>
<path d="M153.913 13.9895C153.662 13.9895 153.385 13.9144 153.084 13.7644C152.782 13.6061 152.484 13.3977 152.191 13.1393C151.906 12.8809 151.642 12.6059 151.399 12.3141C151.164 12.0224 150.98 11.7432 150.846 11.4765C150.762 11.3431 150.707 11.2223 150.682 11.1139C150.666 10.9972 150.661 10.8847 150.67 10.7763C150.695 10.7097 150.728 10.6347 150.77 10.5513C150.812 10.468 150.867 10.3929 150.934 10.3263C151.034 10.1929 151.206 10.0137 151.449 9.78866C151.692 9.56361 151.973 9.3219 152.292 9.06352C152.618 8.7968 152.954 8.55092 153.297 8.32588C153.649 8.0925 153.98 7.90079 154.291 7.75076C154.609 7.60074 154.881 7.52572 155.108 7.52572C155.2 7.52572 155.271 7.54656 155.322 7.58823C155.38 7.62991 155.422 7.68408 155.447 7.75076C155.472 7.81744 155.481 7.88412 155.472 7.9508C155.464 8.13417 155.342 8.30921 155.108 8.4759C154.873 8.6426 154.622 8.7968 154.353 8.93849C153.876 9.20521 153.452 9.46776 153.084 9.72614C152.715 9.98453 152.417 10.2137 152.191 10.4138C151.973 10.6138 151.86 10.7555 151.852 10.8389C151.835 10.9222 151.889 11.0681 152.015 11.2764C152.141 11.4765 152.333 11.7057 152.593 11.9641C152.853 12.2141 153.159 12.4475 153.511 12.6642C153.67 12.7642 153.825 12.8601 153.976 12.9518C154.136 13.0351 154.261 13.1226 154.353 13.2143C154.454 13.2977 154.5 13.3935 154.492 13.5019C154.483 13.5936 154.454 13.6769 154.404 13.7519C154.353 13.8269 154.282 13.8853 154.19 13.927C154.106 13.9686 154.014 13.9895 153.913 13.9895ZM149.727 13.977C149.509 13.977 149.362 13.8686 149.287 13.6519C149.211 13.4269 149.19 13.106 149.224 12.6892C149.266 12.2641 149.345 11.7515 149.463 11.1514C149.513 10.9014 149.572 10.6388 149.639 10.3638C149.714 10.0887 149.79 9.81366 149.865 9.53861C149.941 9.25522 150.003 8.98017 150.054 8.71345C150.07 8.64677 150.083 8.58009 150.091 8.51341C150.108 8.4384 150.121 8.36338 150.129 8.28837C150.163 8.12167 150.209 7.98414 150.267 7.87579C150.326 7.76743 150.393 7.68408 150.469 7.62574C150.552 7.55906 150.636 7.52572 150.72 7.52572C150.913 7.52572 151.064 7.61324 151.173 7.78827C151.29 7.95497 151.315 8.19252 151.248 8.50091C151.206 8.70928 151.139 8.96766 151.047 9.27606C150.963 9.57612 150.875 9.88451 150.783 10.2012C150.691 10.518 150.619 10.7972 150.569 11.0389C150.494 11.4723 150.435 11.8599 150.393 12.2016C150.36 12.5434 150.339 12.8267 150.33 13.0518C150.322 13.2685 150.305 13.4185 150.28 13.5019C150.263 13.6019 150.226 13.6894 150.167 13.7644C150.117 13.8311 150.054 13.8811 149.978 13.9144C149.911 13.9561 149.827 13.977 149.727 13.977Z" fill="#7831B2"/>
<path d="M143.356 8.92599C143.163 8.92599 143.012 8.86765 142.903 8.75096C142.802 8.63427 142.769 8.50091 142.802 8.35088C142.828 8.2592 142.878 8.18001 142.953 8.11333C143.029 8.04665 143.163 7.98831 143.356 7.9383C143.657 7.85495 144.06 7.77994 144.563 7.71326C145.074 7.64658 145.669 7.61324 146.348 7.61324C146.7 7.61324 147.023 7.62157 147.316 7.63824C147.618 7.64658 147.949 7.67575 148.309 7.72576C148.594 7.7591 148.812 7.82578 148.963 7.9258C149.122 8.02582 149.189 8.13834 149.164 8.26336C149.147 8.35505 149.11 8.4384 149.051 8.51341C149.001 8.58009 148.925 8.63427 148.825 8.67594C148.732 8.71762 148.615 8.73845 148.473 8.73845C148.297 8.73845 148.091 8.73012 147.857 8.71345C147.622 8.69678 147.37 8.68011 147.102 8.66344C146.842 8.63844 146.574 8.62593 146.298 8.62593C145.719 8.62593 145.254 8.65094 144.902 8.70095C144.55 8.74262 144.257 8.79263 144.022 8.85098C143.787 8.90099 143.565 8.92599 143.356 8.92599ZM145.179 14.002C144.994 14.002 144.856 13.927 144.764 13.7769C144.68 13.6269 144.621 13.4352 144.588 13.2018C144.571 13.0268 144.571 12.7892 144.588 12.4892C144.613 12.1808 144.655 11.8474 144.713 11.489C144.772 11.1222 144.835 10.768 144.902 10.4263C144.994 9.96786 145.074 9.56361 145.141 9.21355C145.216 8.85514 145.275 8.55925 145.317 8.32588L146.448 8.25086C146.415 8.39255 146.373 8.57176 146.323 8.78846C146.281 8.99684 146.235 9.23438 146.184 9.5011C146.134 9.75948 146.08 10.0262 146.021 10.3013C145.971 10.568 145.92 10.8264 145.87 11.0764C145.786 11.4932 145.732 11.8432 145.707 12.1266C145.69 12.4017 145.686 12.6267 145.694 12.8017C145.702 12.9768 145.711 13.1226 145.719 13.2393C145.728 13.3477 145.723 13.4477 145.707 13.5394C145.69 13.6311 145.656 13.7144 145.606 13.7894C145.556 13.8561 145.493 13.9061 145.417 13.9395C145.342 13.9811 145.262 14.002 145.179 14.002Z" fill="#7831B2"/>
<path d="M138.351 14.002C137.664 14.002 137.098 13.8519 136.654 13.5519C136.218 13.2518 135.916 12.8476 135.749 12.3391C135.589 11.8224 135.573 11.2348 135.698 10.5763C135.791 10.1096 135.95 9.70114 136.176 9.35107C136.411 8.99267 136.671 8.69261 136.956 8.4509C137.249 8.20919 137.542 8.02998 137.836 7.9133C138.129 7.78827 138.381 7.72576 138.59 7.72576C138.682 7.72576 138.758 7.73826 138.816 7.76327C138.883 7.78827 138.934 7.82995 138.967 7.88829C139.009 7.9383 139.022 8.00915 139.005 8.10083C138.963 8.26753 138.896 8.42173 138.804 8.56342C138.712 8.69678 138.54 8.81764 138.288 8.92599C137.987 9.06768 137.731 9.22605 137.521 9.40108C137.32 9.56778 137.157 9.76365 137.031 9.98869C136.905 10.2054 136.817 10.468 136.767 10.7763C136.633 11.4515 136.713 11.9932 137.006 12.4017C137.299 12.8017 137.748 13.0018 138.351 13.0018C138.938 13.0018 139.449 12.7934 139.885 12.3767C140.329 11.9516 140.618 11.389 140.753 10.6888C140.887 10.047 140.845 9.54694 140.627 9.18854C140.409 8.8218 140.048 8.63843 139.546 8.63843C139.286 8.63843 139.064 8.68845 138.879 8.78846C138.703 8.88848 138.51 9.02184 138.301 9.18854C138.15 9.31356 138.029 9.42609 137.936 9.52611C137.844 9.62613 137.76 9.70531 137.685 9.76365C137.618 9.81366 137.53 9.83867 137.421 9.83867C137.304 9.83867 137.211 9.80116 137.144 9.72614C137.086 9.64279 137.073 9.5136 137.107 9.33857C137.14 9.14687 137.236 8.951 137.396 8.75096C137.563 8.55092 137.764 8.36755 137.999 8.20085C138.242 8.02582 138.502 7.88829 138.779 7.78827C139.055 7.67992 139.328 7.62574 139.596 7.62574C140.199 7.62574 140.69 7.76743 141.067 8.05082C141.444 8.32588 141.7 8.70928 141.834 9.20104C141.968 9.68447 141.968 10.2429 141.834 10.8764C141.716 11.5015 141.49 12.0516 141.155 12.5267C140.82 12.9934 140.409 13.356 139.923 13.6144C139.445 13.8728 138.921 14.002 138.351 14.002Z" fill="#7831B2"/>
<path d="M131.103 13.9144C130.701 13.9144 130.349 13.8603 130.047 13.7519C129.745 13.6436 129.515 13.5019 129.355 13.3268C129.196 13.1518 129.133 12.9684 129.167 12.7767C129.192 12.6767 129.238 12.5892 129.305 12.5142C129.372 12.4392 129.46 12.4017 129.569 12.4017C129.653 12.4017 129.728 12.4225 129.795 12.4642C129.863 12.5058 129.942 12.5559 130.034 12.6142C130.127 12.6725 130.261 12.7267 130.437 12.7767C130.613 12.8184 130.852 12.8392 131.153 12.8392C131.623 12.8392 132.029 12.7267 132.373 12.5017C132.725 12.2683 132.951 11.8724 133.052 11.3139C133.136 10.9222 133.14 10.568 133.064 10.2512C132.997 9.92618 132.867 9.64696 132.675 9.41358C132.482 9.17187 132.234 8.9885 131.933 8.86348C131.631 8.73845 131.287 8.67594 130.902 8.67594C130.709 8.67594 130.512 8.69678 130.311 8.73845C130.11 8.78013 129.934 8.80097 129.783 8.80097C129.691 8.80097 129.607 8.78013 129.531 8.73845C129.456 8.68845 129.406 8.62177 129.381 8.53842C129.355 8.45507 129.351 8.37172 129.368 8.28837C129.418 8.06332 129.569 7.89246 129.821 7.77577C130.08 7.65074 130.474 7.58823 131.002 7.58823C131.564 7.58823 132.063 7.68408 132.499 7.87579C132.943 8.06749 133.307 8.33838 133.592 8.68845C133.877 9.03018 134.07 9.44276 134.171 9.92618C134.28 10.4013 134.275 10.9305 134.158 11.514C134.083 11.8974 133.949 12.2391 133.756 12.5392C133.571 12.8392 133.345 13.0935 133.077 13.3018C132.809 13.5019 132.507 13.6561 132.172 13.7644C131.836 13.8644 131.48 13.9144 131.103 13.9144ZM128.149 17.1151C128.048 17.1151 127.96 17.0901 127.884 17.0401C127.817 16.9984 127.771 16.9317 127.746 16.84C127.721 16.7483 127.721 16.64 127.746 16.5149C127.771 16.3899 127.817 16.2732 127.884 16.1649C127.943 16.0649 128.01 15.9398 128.086 15.7898C128.161 15.6481 128.241 15.4647 128.325 15.2397C128.408 15.0147 128.488 14.7188 128.563 14.352C128.689 13.7436 128.756 13.1351 128.765 12.5267C128.773 11.9182 128.777 11.3014 128.777 10.6763C128.786 10.0429 128.848 9.40942 128.966 8.77596C129.008 8.56759 129.079 8.41339 129.179 8.31337C129.288 8.20502 129.418 8.15084 129.569 8.15084C129.703 8.15084 129.812 8.19668 129.896 8.28837C129.988 8.37172 130.051 8.48841 130.085 8.63843C130.118 8.78013 130.114 8.93849 130.072 9.11353C129.971 9.61362 129.909 10.0887 129.883 10.5388C129.867 10.9806 129.858 11.414 129.858 11.8391C129.867 12.2641 129.863 12.6892 129.846 13.1143C129.829 13.5394 129.775 13.977 129.682 14.427C129.607 14.8355 129.515 15.2064 129.406 15.5398C129.297 15.8732 129.175 16.1565 129.041 16.3899C128.915 16.6233 128.777 16.8025 128.626 16.9275C128.484 17.0526 128.325 17.1151 128.149 17.1151Z" fill="#7831B2"/>
<path d="M123.643 14.002C122.955 14.002 122.39 13.8519 121.945 13.5519C121.51 13.2518 121.208 12.8476 121.04 12.3391C120.881 11.8224 120.864 11.2348 120.99 10.5763C121.082 10.1096 121.241 9.70114 121.468 9.35107C121.702 8.99267 121.962 8.69261 122.247 8.4509C122.54 8.20919 122.834 8.02998 123.127 7.9133C123.421 7.78827 123.672 7.72576 123.881 7.72576C123.974 7.72576 124.049 7.73826 124.108 7.76327C124.175 7.78827 124.225 7.82995 124.259 7.88829C124.301 7.9383 124.313 8.00915 124.296 8.10083C124.254 8.26753 124.187 8.42173 124.095 8.56342C124.003 8.69678 123.831 8.81764 123.58 8.92599C123.278 9.06768 123.022 9.22605 122.813 9.40108C122.612 9.56778 122.448 9.76365 122.323 9.98869C122.197 10.2054 122.109 10.468 122.059 10.7763C121.924 11.4515 122.004 11.9932 122.297 12.4017C122.591 12.8017 123.039 13.0018 123.643 13.0018C124.229 13.0018 124.741 12.7934 125.176 12.3767C125.621 11.9516 125.91 11.389 126.044 10.6888C126.178 10.047 126.136 9.54694 125.918 9.18854C125.7 8.8218 125.34 8.63843 124.837 8.63843C124.577 8.63843 124.355 8.68845 124.171 8.78846C123.995 8.88848 123.802 9.02184 123.592 9.18854C123.441 9.31356 123.32 9.42609 123.228 9.52611C123.136 9.62613 123.052 9.70531 122.976 9.76365C122.909 9.81366 122.821 9.83867 122.712 9.83867C122.595 9.83867 122.503 9.80116 122.436 9.72614C122.377 9.64279 122.364 9.5136 122.398 9.33857C122.431 9.14687 122.528 8.951 122.687 8.75096C122.855 8.55092 123.056 8.36755 123.291 8.20085C123.534 8.02582 123.793 7.88829 124.07 7.78827C124.347 7.67992 124.619 7.62574 124.887 7.62574C125.491 7.62574 125.981 7.76743 126.358 8.05082C126.735 8.32588 126.991 8.70928 127.125 9.20104C127.259 9.68447 127.259 10.2429 127.125 10.8764C127.008 11.5015 126.781 12.0516 126.446 12.5267C126.111 12.9934 125.7 13.356 125.214 13.6144C124.736 13.8728 124.213 14.002 123.643 14.002Z" fill="#7831B2"/>
<path d="M118.849 13.9895C118.597 13.9895 118.321 13.9144 118.019 13.7644C117.717 13.6061 117.419 13.3977 117.126 13.1393C116.841 12.8809 116.577 12.6059 116.334 12.3141C116.099 12.0224 115.915 11.7432 115.781 11.4765C115.697 11.3431 115.643 11.2223 115.617 11.1139C115.601 10.9972 115.597 10.8847 115.605 10.7763C115.63 10.7097 115.664 10.6347 115.705 10.5513C115.747 10.468 115.802 10.3929 115.869 10.3263C115.969 10.1929 116.141 10.0137 116.384 9.78866C116.627 9.56361 116.908 9.3219 117.227 9.06352C117.554 8.7968 117.889 8.55092 118.233 8.32588C118.585 8.0925 118.916 7.90079 119.226 7.75076C119.544 7.60074 119.817 7.52572 120.043 7.52572C120.135 7.52572 120.206 7.54656 120.257 7.58823C120.315 7.62991 120.357 7.68408 120.382 7.75076C120.408 7.81744 120.416 7.88412 120.408 7.9508C120.399 8.13417 120.278 8.30921 120.043 8.4759C119.808 8.6426 119.557 8.7968 119.289 8.93849C118.811 9.20521 118.388 9.46776 118.019 9.72614C117.65 9.98453 117.352 10.2137 117.126 10.4138C116.908 10.6138 116.795 10.7555 116.787 10.8389C116.77 10.9222 116.824 11.0681 116.95 11.2764C117.076 11.4765 117.269 11.7057 117.528 11.9641C117.788 12.2141 118.094 12.4475 118.446 12.6642C118.605 12.7642 118.761 12.8601 118.911 12.9518C119.071 13.0351 119.196 13.1226 119.289 13.2143C119.389 13.2977 119.435 13.3935 119.427 13.5019C119.418 13.5936 119.389 13.6769 119.339 13.7519C119.289 13.8269 119.217 13.8853 119.125 13.927C119.041 13.9686 118.949 13.9895 118.849 13.9895ZM114.662 13.977C114.444 13.977 114.297 13.8686 114.222 13.6519C114.147 13.4269 114.126 13.106 114.159 12.6892C114.201 12.2641 114.281 11.7515 114.398 11.1514C114.448 10.9014 114.507 10.6388 114.574 10.3638C114.649 10.0887 114.725 9.81366 114.8 9.53861C114.876 9.25522 114.939 8.98017 114.989 8.71345C115.006 8.64677 115.018 8.58009 115.027 8.51341C115.043 8.4384 115.056 8.36338 115.064 8.28837C115.098 8.12167 115.144 7.98414 115.203 7.87579C115.261 7.76743 115.328 7.68408 115.404 7.62574C115.488 7.55906 115.571 7.52572 115.655 7.52572C115.848 7.52572 115.999 7.61324 116.108 7.78827C116.225 7.95497 116.25 8.19252 116.183 8.50091C116.141 8.70928 116.074 8.96766 115.982 9.27606C115.898 9.57612 115.81 9.88451 115.718 10.2012C115.626 10.518 115.555 10.7972 115.504 11.0389C115.429 11.4723 115.37 11.8599 115.328 12.2016C115.295 12.5434 115.274 12.8267 115.265 13.0518C115.257 13.2685 115.24 13.4185 115.215 13.5019C115.198 13.6019 115.161 13.6894 115.102 13.7644C115.052 13.8311 114.989 13.8811 114.913 13.9144C114.846 13.9561 114.763 13.977 114.662 13.977Z" fill="#7831B2"/>
<path d="M105.242 13.977C104.546 13.977 104.006 13.8519 103.62 13.6019C103.235 13.3435 102.983 12.9976 102.866 12.5642C102.748 12.1224 102.744 11.6265 102.853 11.0764C102.945 10.668 103.105 10.2596 103.331 9.85117C103.566 9.43442 103.855 9.05518 104.198 8.71345C104.55 8.37172 104.94 8.10083 105.368 7.90079C105.803 7.69242 106.26 7.58823 106.738 7.58823C107.182 7.58823 107.547 7.65908 107.832 7.80077C108.125 7.94247 108.326 8.15084 108.435 8.42589C108.553 8.70095 108.569 9.04685 108.486 9.46359C108.402 9.92202 108.196 10.3096 107.87 10.6263C107.543 10.9347 107.136 11.1723 106.65 11.339C106.172 11.5057 105.657 11.589 105.104 11.589C104.534 11.589 104.152 11.5223 103.96 11.389C103.775 11.2556 103.7 11.1056 103.733 10.9389C103.75 10.8389 103.788 10.768 103.846 10.7263C103.905 10.6763 103.997 10.6513 104.123 10.6513C104.215 10.6513 104.324 10.668 104.45 10.7013C104.584 10.7263 104.781 10.7388 105.041 10.7388C105.46 10.7388 105.837 10.6805 106.172 10.5638C106.516 10.4471 106.797 10.2888 107.015 10.0887C107.233 9.88034 107.371 9.64279 107.429 9.37608C107.48 9.12603 107.446 8.93849 107.329 8.81347C107.22 8.68844 107.002 8.62593 106.675 8.62593C106.348 8.62593 106.034 8.70095 105.732 8.85098C105.439 8.99267 105.162 9.18854 104.902 9.43859C104.651 9.68864 104.437 9.97619 104.261 10.3013C104.085 10.6263 103.964 10.9681 103.897 11.3265C103.838 11.6265 103.834 11.9016 103.884 12.1516C103.934 12.3933 104.06 12.5934 104.261 12.7517C104.471 12.9018 104.768 12.9768 105.154 12.9768C105.59 12.9768 105.963 12.9226 106.273 12.8142C106.591 12.6975 106.86 12.5642 107.077 12.4142C107.295 12.2641 107.48 12.1349 107.631 12.0266C107.782 11.9182 107.916 11.8641 108.033 11.8641C108.175 11.8641 108.276 11.9182 108.335 12.0266C108.402 12.1266 108.418 12.26 108.385 12.4267C108.351 12.5934 108.238 12.7684 108.046 12.9518C107.861 13.1268 107.618 13.2935 107.316 13.4519C107.023 13.6102 106.696 13.7394 106.336 13.8394C105.984 13.9311 105.619 13.977 105.242 13.977Z" fill="#7831B2"/>
<path d="M97.2532 8.92599C97.0604 8.92599 96.9096 8.86765 96.8006 8.75096C96.7 8.63427 96.6665 8.50091 96.7 8.35088C96.7252 8.2592 96.7755 8.18001 96.8509 8.11333C96.9263 8.04665 97.0604 7.98831 97.2532 7.9383C97.5549 7.85495 97.9573 7.77994 98.4602 7.71326C98.9714 7.64658 99.5665 7.61324 100.245 7.61324C100.597 7.61324 100.92 7.62157 101.213 7.63824C101.515 7.64658 101.846 7.67575 102.207 7.72576C102.492 7.7591 102.71 7.82578 102.86 7.9258C103.02 8.02582 103.087 8.13834 103.062 8.26336C103.045 8.35505 103.007 8.4384 102.948 8.51341C102.898 8.58009 102.823 8.63427 102.722 8.67594C102.63 8.71762 102.513 8.73845 102.37 8.73845C102.194 8.73845 101.989 8.73012 101.754 8.71345C101.519 8.69678 101.268 8.68011 101 8.66344C100.74 8.63844 100.472 8.62593 100.195 8.62593C99.6168 8.62593 99.1516 8.65094 98.7996 8.70095C98.4476 8.74262 98.1542 8.79263 97.9195 8.85098C97.6849 8.90099 97.4628 8.92599 97.2532 8.92599ZM99.0762 14.002C98.8918 14.002 98.7535 13.927 98.6613 13.7769C98.5775 13.6269 98.5188 13.4352 98.4853 13.2018C98.4685 13.0268 98.4685 12.7892 98.4853 12.4892C98.5104 12.1808 98.5523 11.8474 98.611 11.489C98.6697 11.1222 98.7325 10.768 98.7996 10.4263C98.8918 9.96786 98.9714 9.56361 99.0385 9.21355C99.1139 8.85514 99.1726 8.55925 99.2145 8.32588L100.346 8.25086C100.312 8.39255 100.271 8.57176 100.22 8.78846C100.178 8.99684 100.132 9.23438 100.082 9.5011C100.032 9.75948 99.9772 10.0262 99.9185 10.3013C99.8682 10.568 99.8179 10.8264 99.7677 11.0764C99.6838 11.4932 99.6294 11.8432 99.6042 12.1266C99.5875 12.4017 99.5833 12.6267 99.5917 12.8017C99.6 12.9768 99.6084 13.1226 99.6168 13.2393C99.6252 13.3477 99.621 13.4477 99.6042 13.5394C99.5875 13.6311 99.5539 13.7144 99.5036 13.7894C99.4534 13.8561 99.3905 13.9061 99.3151 13.9395C99.2396 13.9811 99.16 14.002 99.0762 14.002Z" fill="#7831B2"/>
<path d="M90.2586 13.9895C89.9736 13.9895 89.7473 13.9228 89.5797 13.7894C89.4204 13.6561 89.3031 13.481 89.2277 13.2643C89.1522 13.0393 89.1145 12.7976 89.1145 12.5392C89.1229 12.2725 89.1522 12.0141 89.2025 11.764C89.2528 11.5473 89.3199 11.2889 89.4037 10.9889C89.4959 10.6888 89.5965 10.3763 89.7054 10.0512C89.8144 9.72614 89.9191 9.42192 90.0197 9.13853C90.1287 8.85514 90.2167 8.63427 90.2837 8.4759C90.3927 8.18418 90.4891 7.95914 90.5729 7.80077C90.6651 7.64241 90.7741 7.56323 90.8998 7.56323C91.0087 7.56323 91.1093 7.60074 91.2015 7.67575C91.2937 7.75076 91.3608 7.84662 91.4027 7.9633C91.453 8.07999 91.4655 8.20919 91.4404 8.35088C91.4152 8.48424 91.3566 8.67594 91.2644 8.92599C91.1722 9.17604 91.0674 9.45526 90.9501 9.76365C90.8327 10.072 90.7196 10.3846 90.6106 10.7013C90.5017 11.0097 90.422 11.2889 90.3717 11.539C90.3215 11.764 90.2879 11.9807 90.2712 12.1891C90.2544 12.3892 90.2628 12.5559 90.2963 12.6892C90.3298 12.8142 90.4011 12.8767 90.51 12.8767C90.7783 12.8767 91.1177 12.6392 91.5284 12.1641C91.9475 11.689 92.4127 11.0347 92.9239 10.2012C93.1586 9.8345 93.3639 9.49277 93.54 9.17604C93.716 8.85931 93.871 8.58426 94.0051 8.35088C94.1392 8.10917 94.2691 7.92163 94.3949 7.78827C94.5206 7.65491 94.6463 7.58823 94.772 7.58823C94.9648 7.58823 95.1031 7.66325 95.1869 7.81328C95.2791 7.95497 95.321 8.14667 95.3127 8.38839C95.3127 8.60509 95.3043 8.87181 95.2875 9.18854C95.2791 9.50527 95.2707 9.83033 95.2624 10.1637C95.254 10.4888 95.254 10.793 95.2624 11.0764C95.2875 11.5598 95.3336 11.9557 95.4007 12.2641C95.4761 12.5642 95.5432 12.8059 95.6018 12.9893C95.6605 13.1726 95.6856 13.3227 95.6773 13.4394C95.6689 13.531 95.6395 13.6186 95.5892 13.7019C95.539 13.7769 95.4761 13.8394 95.4007 13.8894C95.3252 13.9395 95.2414 13.9645 95.1492 13.9645C94.9564 13.9645 94.7972 13.8769 94.6715 13.7019C94.5541 13.5269 94.4619 13.281 94.3949 12.9643C94.3278 12.6475 94.2733 12.2766 94.2314 11.8516C94.2147 11.5515 94.1979 11.2306 94.1811 10.8889C94.1728 10.5471 94.1728 10.2054 94.1811 9.86367C94.1979 9.52194 94.2147 9.20521 94.2314 8.91349L94.596 9.03851C94.4955 9.23022 94.3865 9.43442 94.2692 9.65113C94.1602 9.86784 94.0261 10.1137 93.8668 10.3888C93.716 10.6555 93.5274 10.9722 93.3011 11.339C93.0161 11.789 92.706 12.2183 92.3707 12.6267C92.0355 13.0268 91.6876 13.356 91.3272 13.6144C90.9752 13.8644 90.619 13.9895 90.2586 13.9895Z" fill="#7831B2"/>
<path d="M84.6936 13.9144C84.2913 13.9144 83.9393 13.8603 83.6375 13.7519C83.3358 13.6436 83.1053 13.5019 82.9461 13.3268C82.7868 13.1518 82.7239 12.9684 82.7575 12.7767C82.7826 12.6767 82.8287 12.5892 82.8958 12.5142C82.9628 12.4392 83.0508 12.4017 83.1598 12.4017C83.2436 12.4017 83.319 12.4225 83.3861 12.4642C83.4531 12.5058 83.5328 12.5559 83.625 12.6142C83.7172 12.6725 83.8513 12.7267 84.0273 12.7767C84.2033 12.8184 84.4422 12.8392 84.7439 12.8392C85.2133 12.8392 85.6198 12.7267 85.9634 12.5017C86.3154 12.2683 86.5417 11.8724 86.6423 11.3139C86.7261 10.9222 86.7303 10.568 86.6549 10.2512C86.5878 9.92618 86.4579 9.64696 86.2651 9.41358C86.0724 9.17187 85.8251 8.9885 85.5234 8.86348C85.2216 8.73845 84.878 8.67594 84.4924 8.67594C84.2997 8.67594 84.1027 8.69678 83.9016 8.73845C83.7004 8.78013 83.5244 8.80097 83.3735 8.80097C83.2813 8.80097 83.1975 8.78013 83.1221 8.73845C83.0466 8.68845 82.9963 8.62177 82.9712 8.53842C82.9461 8.45507 82.9419 8.37172 82.9586 8.28837C83.0089 8.06332 83.1598 7.89246 83.4112 7.77577C83.6711 7.65074 84.065 7.58823 84.593 7.58823C85.1546 7.58823 85.6533 7.68408 86.0891 7.87579C86.5333 8.06749 86.8979 8.33838 87.1829 8.68845C87.4679 9.03018 87.6607 9.44276 87.7612 9.92618C87.8702 10.4013 87.866 10.9305 87.7487 11.514C87.6732 11.8974 87.5391 12.2391 87.3464 12.5392C87.162 12.8392 86.9357 13.0935 86.6674 13.3018C86.3992 13.5019 86.0975 13.6561 85.7622 13.7644C85.427 13.8644 85.0708 13.9144 84.6936 13.9144ZM81.7391 17.1151C81.6385 17.1151 81.5505 17.0901 81.4751 17.0401C81.4081 16.9984 81.362 16.9317 81.3368 16.84C81.3117 16.7483 81.3117 16.64 81.3368 16.5149C81.362 16.3899 81.4081 16.2732 81.4751 16.1649C81.5338 16.0649 81.6008 15.9398 81.6763 15.7898C81.7517 15.6481 81.8313 15.4647 81.9151 15.2397C81.9989 15.0147 82.0786 14.7188 82.154 14.352C82.2797 13.7436 82.3468 13.1351 82.3552 12.5267C82.3635 11.9182 82.3677 11.3014 82.3677 10.6763C82.3761 10.0429 82.439 9.40942 82.5563 8.77596C82.5982 8.56759 82.6695 8.41339 82.7701 8.31337C82.879 8.20502 83.0089 8.15084 83.1598 8.15084C83.2939 8.15084 83.4028 8.19668 83.4867 8.28837C83.5789 8.37172 83.6417 8.48841 83.6752 8.63843C83.7088 8.78013 83.7046 8.93849 83.6627 9.11353C83.5621 9.61362 83.4992 10.0887 83.4741 10.5388C83.4573 10.9806 83.4489 11.414 83.4489 11.8391C83.4573 12.2641 83.4531 12.6892 83.4364 13.1143C83.4196 13.5394 83.3651 13.977 83.2729 14.427C83.1975 14.8355 83.1053 15.2064 82.9963 15.5398C82.8874 15.8732 82.7659 16.1565 82.6318 16.3899C82.506 16.6233 82.3677 16.8025 82.2169 16.9275C82.0744 17.0526 81.9151 17.1151 81.7391 17.1151Z" fill="#7831B2"/>
<path d="M76.148 8.92599C75.9552 8.92599 75.8043 8.86765 75.6954 8.75096C75.5948 8.63427 75.5613 8.50091 75.5948 8.35088C75.62 8.2592 75.6702 8.18001 75.7457 8.11333C75.8211 8.04665 75.9552 7.98831 76.148 7.9383C76.4497 7.85495 76.852 7.77994 77.3549 7.71326C77.8662 7.64658 78.4613 7.61324 79.1402 7.61324C79.4922 7.61324 79.8149 7.62157 80.1083 7.63824C80.41 7.64658 80.7411 7.67575 81.1015 7.72576C81.3864 7.7591 81.6044 7.82578 81.7552 7.9258C81.9145 8.02582 81.9815 8.13834 81.9564 8.26336C81.9396 8.35505 81.9019 8.4384 81.8432 8.51341C81.7929 8.58009 81.7175 8.63427 81.6169 8.67594C81.5247 8.71762 81.4074 8.73845 81.2649 8.73845C81.0889 8.73845 80.8836 8.73012 80.6489 8.71345C80.4142 8.69678 80.1627 8.68011 79.8945 8.66344C79.6347 8.63844 79.3665 8.62593 79.0899 8.62593C78.5116 8.62593 78.0464 8.65094 77.6944 8.70095C77.3424 8.74262 77.049 8.79263 76.8143 8.85098C76.5796 8.90099 76.3575 8.92599 76.148 8.92599ZM77.971 14.002C77.7866 14.002 77.6483 13.927 77.5561 13.7769C77.4723 13.6269 77.4136 13.4352 77.3801 13.2018C77.3633 13.0268 77.3633 12.7892 77.3801 12.4892C77.4052 12.1808 77.4471 11.8474 77.5058 11.489C77.5645 11.1222 77.6273 10.768 77.6944 10.4263C77.7866 9.96786 77.8662 9.56361 77.9333 9.21355C78.0087 8.85514 78.0674 8.55925 78.1093 8.32588L79.2408 8.25086C79.2072 8.39255 79.1653 8.57176 79.1151 8.78846C79.0731 8.99684 79.027 9.23438 78.9768 9.5011C78.9265 9.75948 78.872 10.0262 78.8133 10.3013C78.763 10.568 78.7127 10.8264 78.6624 11.0764C78.5786 11.4932 78.5241 11.8432 78.499 12.1266C78.4822 12.4017 78.4781 12.6267 78.4864 12.8017C78.4948 12.9768 78.5032 13.1226 78.5116 13.2393C78.52 13.3477 78.5158 13.4477 78.499 13.5394C78.4822 13.6311 78.4487 13.7144 78.3984 13.7894C78.3481 13.8561 78.2853 13.9061 78.2098 13.9395C78.1344 13.9811 78.0548 14.002 77.971 14.002Z" fill="#7831B2"/>
<path d="M71.1435 14.002C70.4563 14.002 69.8905 13.8519 69.4463 13.5519C69.0104 13.2518 68.7087 12.8476 68.5411 12.3391C68.3818 11.8224 68.3651 11.2348 68.4908 10.5763C68.583 10.1096 68.7422 9.70114 68.9685 9.35107C69.2032 8.99267 69.463 8.69261 69.748 8.4509C70.0414 8.20919 70.3347 8.02998 70.6281 7.9133C70.9214 7.78827 71.1729 7.72576 71.3824 7.72576C71.4746 7.72576 71.55 7.73826 71.6087 7.76327C71.6758 7.78827 71.7261 7.82995 71.7596 7.88829C71.8015 7.9383 71.8141 8.00915 71.7973 8.10083C71.7554 8.26753 71.6883 8.42173 71.5961 8.56342C71.5039 8.69678 71.3321 8.81764 71.0807 8.92599C70.7789 9.06768 70.5233 9.22605 70.3138 9.40108C70.1126 9.56778 69.9492 9.76365 69.8234 9.98869C69.6977 10.2054 69.6097 10.468 69.5594 10.7763C69.4253 11.4515 69.5049 11.9932 69.7983 12.4017C70.0917 12.8017 70.5401 13.0018 71.1435 13.0018C71.7302 13.0018 72.2415 12.7934 72.6774 12.3767C73.1216 11.9516 73.4107 11.389 73.5448 10.6888C73.6789 10.047 73.637 9.54694 73.4191 9.18854C73.2012 8.8218 72.8408 8.63843 72.3379 8.63843C72.0781 8.63843 71.856 8.68845 71.6716 8.78846C71.4956 8.88848 71.3028 9.02184 71.0932 9.18854C70.9424 9.31356 70.8208 9.42609 70.7286 9.52611C70.6365 9.62613 70.5526 9.70531 70.4772 9.76365C70.4101 9.81366 70.3221 9.83867 70.2132 9.83867C70.0958 9.83867 70.0036 9.80116 69.9366 9.72614C69.8779 9.64279 69.8654 9.5136 69.8989 9.33857C69.9324 9.14687 70.0288 8.951 70.188 8.75096C70.3557 8.55092 70.5568 8.36755 70.7915 8.20085C71.0346 8.02582 71.2944 7.88829 71.571 7.78827C71.8476 7.67992 72.12 7.62574 72.3882 7.62574C72.9917 7.62574 73.482 7.76743 73.8591 8.05082C74.2363 8.32588 74.492 8.70928 74.6261 9.20104C74.7602 9.68447 74.7602 10.2429 74.6261 10.8764C74.5087 11.5015 74.2824 12.0516 73.9472 12.5267C73.6119 12.9934 73.2012 13.356 72.7151 13.6144C72.2373 13.8728 71.7135 14.002 71.1435 14.002Z" fill="#7831B2"/>
<path d="M58.7959 13.9895C58.5947 13.9895 58.4439 13.8728 58.3433 13.6394C58.2427 13.406 58.2385 13.056 58.3307 12.5892C58.3726 12.3642 58.4522 12.0224 58.5696 11.564C58.6869 11.0972 58.8671 10.5971 59.1102 10.0637C59.3952 9.43025 59.6508 8.93016 59.8771 8.56342C60.1034 8.18835 60.3255 7.91746 60.5434 7.75076C60.7614 7.58407 60.9835 7.50072 61.2098 7.50072C61.3858 7.50072 61.5199 7.57156 61.6121 7.71326C61.7127 7.85495 61.7839 8.02582 61.8258 8.22586C61.8677 8.42589 61.9012 8.62593 61.9264 8.82597C61.9599 9.09269 62.0018 9.38858 62.0521 9.71364C62.1108 10.0387 62.1736 10.3679 62.2407 10.7013C62.3161 11.0347 62.3999 11.3515 62.4921 11.6515C62.5927 11.9516 62.7059 12.2058 62.8316 12.4142L62.379 12.5142C62.622 12.0391 62.8819 11.564 63.1585 11.0889C63.4351 10.6138 63.7116 10.1596 63.9882 9.72614C64.2648 9.29273 64.5247 8.90515 64.7677 8.56342C65.0359 8.20502 65.2622 7.9508 65.4466 7.80077C65.6394 7.65075 65.8112 7.57573 65.9621 7.57573C66.071 7.57573 66.1716 7.60074 66.2638 7.65074C66.356 7.69242 66.4356 7.74243 66.5027 7.80077C66.5949 7.89246 66.6661 8.00498 66.7164 8.13834C66.7667 8.2717 66.7751 8.47174 66.7416 8.73845C66.6661 9.33857 66.6158 9.88034 66.5907 10.3638C66.5739 10.8389 66.5697 11.2389 66.5781 11.564C66.5865 12.1391 66.6284 12.5975 66.7038 12.9393C66.7877 13.281 66.817 13.5019 66.7919 13.6019C66.7751 13.7102 66.7164 13.7978 66.6158 13.8644C66.5237 13.9395 66.4105 13.977 66.2764 13.977C66.0752 13.977 65.9076 13.8811 65.7735 13.6894C65.6478 13.4977 65.5682 13.2393 65.5346 12.9143C65.5011 12.6142 65.476 12.235 65.4592 11.7765C65.4508 11.3181 65.4634 10.8055 65.4969 10.2387C65.5388 9.66363 65.6059 9.07185 65.6981 8.4634L66.0627 8.37589C65.8615 8.66761 65.6352 9.001 65.3838 9.37608C65.1407 9.74281 64.8893 10.1262 64.6294 10.5263C64.378 10.9264 64.1349 11.3223 63.9002 11.714C63.6739 12.1058 63.4728 12.4767 63.2968 12.8267C63.2046 12.9851 63.0956 13.1101 62.9699 13.2018C62.8525 13.2935 62.7142 13.3393 62.555 13.3393C62.3538 13.3393 62.1862 13.2935 62.0521 13.2018C61.9264 13.1018 61.8174 12.9684 61.7252 12.8017C61.6414 12.6267 61.566 12.435 61.4989 12.2266C61.4654 12.1099 61.4193 11.9474 61.3606 11.739C61.302 11.5223 61.2433 11.2806 61.1846 11.0139C61.1259 10.7472 61.0715 10.4638 61.0212 10.1637C60.9709 9.86367 60.929 9.56778 60.8955 9.27606C60.8619 8.976 60.8452 8.69678 60.8452 8.4384L61.2223 8.33838C60.9374 8.74679 60.6859 9.14687 60.468 9.53861C60.2585 9.93035 60.0783 10.3346 59.9274 10.7513C59.7849 11.1598 59.6634 11.6015 59.5628 12.0766C59.4957 12.4017 59.4455 12.685 59.4119 12.9268C59.3868 13.1685 59.3616 13.3518 59.3365 13.4769C59.303 13.6186 59.2443 13.7394 59.1605 13.8394C59.0767 13.9395 58.9551 13.9895 58.7959 13.9895Z" fill="#7831B2"/>
<path d="M54.6584 13.9645C54.0382 13.9645 53.5269 13.8436 53.1246 13.6019C52.7307 13.3518 52.4541 13.0101 52.2948 12.5767C52.144 12.1349 52.1272 11.6265 52.2445 11.0514C52.3451 10.5596 52.5253 10.1054 52.7852 9.68864C53.0534 9.26355 53.3802 8.89682 53.7658 8.58843C54.1597 8.2717 54.5872 8.02582 55.0482 7.85078C55.5092 7.67575 55.9827 7.58823 56.4688 7.58823C56.6868 7.58823 56.8795 7.62157 57.0472 7.68825C57.2148 7.7466 57.3363 7.83828 57.4118 7.96331C57.4956 8.08 57.5165 8.22586 57.4746 8.40089C57.4411 8.55925 57.3782 8.68428 57.286 8.77596C57.1938 8.85931 57.0849 8.90099 56.9592 8.90099C56.867 8.90099 56.7957 8.88432 56.7454 8.85098C56.6951 8.81764 56.6407 8.7843 56.582 8.75096C56.5317 8.71762 56.4437 8.70095 56.318 8.70095C55.8402 8.70095 55.3918 8.8218 54.9727 9.06352C54.5537 9.2969 54.1974 9.60529 53.9041 9.98869C53.6191 10.3638 53.4305 10.768 53.3383 11.2014C53.2797 11.5515 53.2881 11.8557 53.3635 12.1141C53.4473 12.3642 53.5982 12.56 53.8161 12.7017C54.0424 12.8434 54.319 12.9143 54.6459 12.9143C55.0146 12.9143 55.308 12.8726 55.5259 12.7892C55.7438 12.6975 55.9157 12.5975 56.0414 12.4892C56.1755 12.3808 56.2844 12.285 56.3683 12.2016C56.4521 12.1099 56.5485 12.0641 56.6574 12.0641C56.8167 12.0641 56.9256 12.1016 56.9843 12.1766C57.0514 12.2516 57.0681 12.3808 57.0346 12.5642C56.9759 12.8392 56.8334 13.0851 56.6071 13.3018C56.3808 13.5102 56.0959 13.6727 55.7522 13.7894C55.417 13.9061 55.0524 13.9645 54.6584 13.9645Z" fill="#7831B2"/>
<path d="M47.3618 14.002C46.6745 14.002 46.1088 13.8519 45.6645 13.5519C45.2287 13.2518 44.927 12.8476 44.7593 12.3391C44.6001 11.8224 44.5833 11.2348 44.709 10.5763C44.8012 10.1096 44.9605 9.70114 45.1868 9.35107C45.4215 8.99267 45.6813 8.69261 45.9663 8.4509C46.2596 8.20919 46.553 8.02998 46.8463 7.9133C47.1397 7.78827 47.3911 7.72576 47.6007 7.72576C47.6929 7.72576 47.7683 7.73826 47.827 7.76327C47.894 7.78827 47.9443 7.82995 47.9778 7.88829C48.0197 7.9383 48.0323 8.00915 48.0155 8.10083C47.9736 8.26753 47.9066 8.42173 47.8144 8.56342C47.7222 8.69678 47.5504 8.81764 47.2989 8.92599C46.9972 9.06768 46.7416 9.22605 46.532 9.40108C46.3309 9.56778 46.1674 9.76365 46.0417 9.98869C45.916 10.2054 45.828 10.468 45.7777 10.7763C45.6436 11.4515 45.7232 11.9932 46.0166 12.4017C46.3099 12.8017 46.7583 13.0018 47.3618 13.0018C47.9485 13.0018 48.4598 12.7934 48.8956 12.3767C49.3398 11.9516 49.629 11.389 49.7631 10.6888C49.8972 10.047 49.8553 9.54694 49.6374 9.18854C49.4195 8.8218 49.0591 8.63843 48.5562 8.63843C48.2963 8.63843 48.0742 8.68845 47.8898 8.78846C47.7138 8.88848 47.521 9.02184 47.3115 9.18854C47.1606 9.31356 47.0391 9.42609 46.9469 9.52611C46.8547 9.62613 46.7709 9.70531 46.6955 9.76365C46.6284 9.81366 46.5404 9.83867 46.4314 9.83867C46.3141 9.83867 46.2219 9.80116 46.1549 9.72614C46.0962 9.64279 46.0836 9.5136 46.1171 9.33857C46.1507 9.14687 46.247 8.951 46.4063 8.75096C46.5739 8.55092 46.7751 8.36755 47.0098 8.20085C47.2528 8.02582 47.5127 7.88829 47.7892 7.78827C48.0658 7.67992 48.3382 7.62574 48.6064 7.62574C49.2099 7.62574 49.7002 7.76743 50.0774 8.05082C50.4546 8.32588 50.7102 8.70928 50.8443 9.20104C50.9784 9.68447 50.9784 10.2429 50.8443 10.8764C50.727 11.5015 50.5007 12.0516 50.1654 12.5267C49.8302 12.9934 49.4195 13.356 48.9333 13.6144C48.4556 13.8728 47.9317 14.002 47.3618 14.002Z" fill="#7831B2"/>
<path d="M41.9178 14.002C41.725 14.002 41.5909 13.8644 41.5155 13.5894C41.4484 13.306 41.4359 12.9143 41.4778 12.4142C41.5197 11.9141 41.6077 11.3348 41.7418 10.6763C41.7921 10.4263 41.8633 10.1054 41.9555 9.71364C42.0477 9.31357 42.1483 8.88848 42.2572 8.4384C42.3662 7.97997 42.471 7.52989 42.5716 7.08814C42.6721 6.63805 42.7601 6.23797 42.8356 5.88791L43.0493 6.27548C42.8481 6.23381 42.5422 6.1963 42.1315 6.16296C41.7292 6.12962 41.2598 6.10461 40.7234 6.08794C40.187 6.06294 39.6255 6.05044 39.0387 6.05044C38.8208 6.05044 38.6113 6.05461 38.4101 6.06294C38.209 6.07127 38.0246 6.08378 37.857 6.10045C37.6893 6.10878 37.5426 6.11295 37.4169 6.11295C37.2912 6.11295 37.1697 6.09211 37.0523 6.05044C36.935 6.00876 36.8428 5.95042 36.7757 5.8754C36.7171 5.80039 36.7003 5.72121 36.7254 5.63786C36.759 5.48783 36.8428 5.36697 36.9769 5.27529C37.111 5.1836 37.2954 5.12109 37.5301 5.08775C37.7648 5.04608 38.033 5.02524 38.3347 5.02524C38.7538 5.02524 39.1896 5.02941 39.6422 5.03774C40.1032 5.04608 40.5432 5.05858 40.9623 5.07525C41.3814 5.09192 41.7544 5.11276 42.0812 5.13776C42.4081 5.15443 42.6596 5.16693 42.8356 5.17527C43.2966 5.20861 43.6067 5.29613 43.7659 5.43782C43.9252 5.57118 43.9713 5.81706 43.9042 6.17546C43.8288 6.52553 43.7408 6.90477 43.6402 7.31318C43.548 7.71326 43.4516 8.11333 43.351 8.51341C43.2588 8.91349 43.1708 9.28856 43.087 9.63863C43.0032 9.98869 42.9362 10.2846 42.8859 10.5263C42.7434 11.2348 42.6554 11.8391 42.6218 12.3391C42.5967 12.8309 42.5632 13.1685 42.5213 13.3518C42.4961 13.4769 42.4584 13.5894 42.4081 13.6894C42.3578 13.7894 42.2908 13.8644 42.207 13.9144C42.1315 13.9728 42.0351 14.002 41.9178 14.002ZM36.8637 13.9895C36.7296 13.9895 36.6165 13.9395 36.5243 13.8394C36.4405 13.7311 36.386 13.5852 36.3609 13.4019C36.3357 13.2101 36.3483 12.9934 36.3986 12.7517C36.4572 12.4433 36.5285 12.1099 36.6123 11.7515C36.7045 11.3848 36.8009 11.0014 36.9015 10.6013C37.002 10.2012 37.0942 9.78866 37.178 9.36357C37.2451 9.03851 37.3163 8.67177 37.3918 8.26336C37.4672 7.84662 37.5301 7.42987 37.5804 7.01312C37.6306 6.58804 37.6432 6.21297 37.6181 5.88791L38.7999 5.65036C38.7999 5.96709 38.7747 6.32549 38.7244 6.72557C38.6825 7.12564 38.6281 7.52572 38.561 7.9258C38.5023 8.32587 38.4353 8.69678 38.3598 9.03851C38.3096 9.28856 38.2509 9.58028 38.1838 9.91368C38.1168 10.2387 38.0455 10.5805 37.9701 10.9389C37.8947 11.2889 37.8192 11.6265 37.7438 11.9516C37.6768 12.2766 37.6181 12.56 37.5678 12.8017C37.5175 13.0434 37.4798 13.2143 37.4546 13.3143C37.4044 13.556 37.3247 13.7311 37.2158 13.8394C37.1152 13.9395 36.9978 13.9895 36.8637 13.9895Z" fill="#7831B2"/>
<path fill-rule="evenodd" clip-rule="evenodd" d="M8.46716 3.17346C5.68152 4.8013 3.48308 7.46116 2.49943 10.8094C0.465439 17.7328 4.40113 24.9594 11.2752 26.9567C14.6 27.9228 18.0073 27.4896 20.8692 26.0011C23.6548 24.3732 25.8533 21.7134 26.8369 18.3652C28.8709 11.4418 24.9352 4.21511 18.0612 2.21782C14.7363 1.25178 11.329 1.68494 8.46716 3.17346ZM7.79612 1.95856C11.0825 0.0486686 15.1041 -0.568167 19.0267 0.571573C26.6473 2.78575 30.9913 10.7862 28.7442 18.4349C27.5874 22.3725 24.9079 25.4541 21.5402 27.216C18.2539 29.1259 14.2322 29.7427 10.3096 28.603C2.68907 26.3888 -1.65493 18.3883 0.592139 10.7396C1.74896 6.80202 4.42849 3.72041 7.79612 1.95856ZM19.8542 6.5472C19.859 6.64501 19.843 6.7455 19.8034 6.84244L16.1299 15.8486C15.713 16.8705 14.2428 16.7888 13.9486 15.7347L11.1746 5.79592C11.0716 5.42685 11.2895 5.04286 11.6612 4.93827C11.8017 4.89874 11.9441 4.90477 12.0724 4.94749C12.252 5.0068 12.4064 5.13835 12.4886 5.32414C13.9144 8.54831 14.7315 11.6489 15.18 13.7999C15.6992 12.1608 16.3812 10.0985 17.0146 8.46798C17.3688 7.55603 17.7229 6.73932 18.037 6.20719C18.1787 5.96694 18.3734 5.6747 18.6245 5.5032C18.7612 5.40979 19.0191 5.28227 19.3366 5.35912C19.6536 5.43585 19.824 5.66653 19.9042 5.8168C20.0323 6.05693 20.0038 6.33896 19.8542 6.5472Z" fill="#7831B2"/>
<path fill-rule="evenodd" clip-rule="evenodd" d="M112.75 35.4578C113.095 35.6294 113.235 36.0467 113.062 36.3897C112.954 36.6056 112.846 36.8266 112.738 37.0522C112.737 37.0545 112.736 37.0568 112.735 37.059C111.816 38.9966 110.969 41.2773 110.443 43.6025C109.854 46.2087 109.68 48.8209 110.22 51.0556C110.548 52.4126 111.138 53.6307 112.067 54.635C112.661 55.1998 113.379 55.7006 114.241 56.1232C115.705 56.8414 117.599 57.3421 120.02 57.5293C121.464 57.5729 123.103 57.4793 124.958 57.2222C131.168 56.3615 136.95 53.6781 142.517 50.5126C144.763 49.2357 146.962 47.8878 149.139 46.5534C149.66 46.2338 150.18 45.9149 150.699 45.598L150.702 45.5966C153.173 43.865 155.611 42.1597 158.028 40.6728C162.989 37.6215 167.981 35.4139 173.205 35.8004C178.461 36.1893 183.78 39.1863 189.435 46.1464L189.411 46.1656C189.646 46.4246 189.882 46.6899 190.117 46.9616L190.607 42.3765C190.648 41.995 190.992 41.7187 191.375 41.7592C191.759 41.7997 192.037 42.1418 191.996 42.5233L191.332 48.7395C191.291 49.1209 190.947 49.3973 190.564 49.3568L184.313 48.6964C183.929 48.6559 183.651 48.3138 183.692 47.9323C183.733 47.5509 184.077 47.2745 184.46 47.315L188.994 47.794C183.892 41.9331 179.089 39.3259 174.441 38.7045C169.438 38.0357 164.473 39.645 159.301 42.2768C156.732 43.584 154.134 45.1321 151.47 46.7575C151.442 46.7769 151.415 46.7964 151.387 46.8158L151.294 46.8811C148.748 48.6649 146.126 50.4994 143.409 52.1783C137.979 55.5348 132.112 58.3084 125.57 58.8535C123.477 59.028 121.607 59.0434 119.943 58.9167C117.349 58.8348 115.26 58.3341 113.605 57.4923C112.59 56.9762 111.751 56.338 111.067 55.6057C109.848 54.4334 109.07 53.0204 108.641 51.4716C107.974 49.0617 108.161 46.3591 108.763 43.7591C109.366 41.155 110.398 38.6017 111.477 36.4561C111.588 36.2218 111.7 35.9923 111.813 35.7681C111.986 35.4251 112.405 35.2861 112.75 35.4578ZM169.89 37.2913C170.985 37.1691 172.083 37.1316 173.188 37.1924C173.159 37.1901 173.13 37.1879 173.102 37.1857C172.028 37.1063 170.959 37.1466 169.89 37.2913Z" fill="#7831B2"/>
</svg>
