<svg width="202" height="129" fill="none" xmlns="http://www.w3.org/2000/svg"><path d="M6.374 72.634c-.501.258-.98.403-1.435.436a3.526 3.526 0 01-1.218-.123 2.864 2.864 0 01-.94-.488 2.146 2.146 0 01-.539-.694c-.06-.144-.1-.286-.118-.425a.859.859 0 01.02-.395.48.48 0 01.23-.26c.107-.055.236-.04.387.044.151.084.325.197.52.34.194.142.421.268.68.378.26.11.544.165.856.167.316-.015.682-.129 1.098-.343.47-.242.826-.56 1.068-.955.247-.41.413-.901.497-1.471a9.86 9.86 0 00.05-1.949c-.027-.445-.08-.903-.162-1.374a22.475 22.475 0 00-.266-1.422c-.092-.466-.18-.913-.266-1.341a46.34 46.34 0 00-.255-1.165 7.09 7.09 0 01-.155-.851l.664 1.682c-.01.924-.092 1.722-.245 2.394-.148.657-.378 1.207-.689 1.65a3.376 3.376 0 01-1.251 1.07c-.576.297-1.104.413-1.582.35a2.57 2.57 0 01-1.312-.621 5.088 5.088 0 01-1.014-1.34 10.666 10.666 0 01-.713-1.78 7.804 7.804 0 01-.275-1.437c-.027-.445.006-.813.1-1.104.087-.302.227-.502.419-.6.181-.094.329-.096.443-.006a.594.594 0 01.246.36c.05.203.104.465.162.786.063.306.144.648.246 1.028.167.535.345 1.023.532 1.467.183.432.385.787.609 1.063.223.277.472.459.747.547.28.072.59.02.932-.156.288-.149.53-.374.724-.677a3.51 3.51 0 00.47-1.093c.119-.425.2-.885.242-1.379.053-.5.079-1.013.078-1.539l-.001-1.457a7.296 7.296 0 01.073-1.232c.055-.34.168-.552.339-.64.256-.132.469-.073.638.177.175.234.335.61.48 1.13.101.353.222.81.363 1.372.146.546.29 1.153.432 1.822.153.664.292 1.328.418 1.992.121.653.209 1.256.263 1.808.051.649.053 1.282.007 1.9a7.033 7.033 0 01-.317 1.742 4.578 4.578 0 01-.836 1.484c-.365.444-.846.82-1.444 1.128zm18.51-9.471c-.32.164-.722.25-1.205.255a6.545 6.545 0 01-1.548-.215 11.77 11.77 0 01-1.553-.537 6.895 6.895 0 01-1.256-.71 1.762 1.762 0 01-.447-.356 2.23 2.23 0 01-.238-.424 3.44 3.44 0 01-.02-.354 1.24 1.24 0 01.06-.395c.04-.237.14-.579.3-1.026.162-.447.36-.94.595-1.48.24-.556.505-1.09.794-1.604.294-.53.59-.992.885-1.387.307-.4.604-.675.892-.824a.466.466 0 01.313-.06.496.496 0 01.267.126c.076.069.13.149.164.24.11.24.071.543-.118.91a9.56 9.56 0 01-.655 1.087 21.065 21.065 0 00-1.097 1.84c-.3.573-.527 1.061-.683 1.466-.145.399-.196.654-.152.766.034.118.2.27.497.453.292.174.688.341 1.189.502.496.15 1.039.247 1.63.294.268.024.529.045.781.063.258.002.476.032.654.089.183.04.304.133.365.277.05.123.068.25.053.378a.71.71 0 01-.157.364.874.874 0 01-.31.262zm-5.338 2.728c-.277.143-.535.1-.774-.128-.244-.238-.483-.635-.715-1.19a24.35 24.35 0 01-.71-2.126c-.1-.353-.199-.727-.295-1.123l-.255-1.205a16.74 16.74 0 00-.304-1.18 2.421 2.421 0 00-.084-.28 3.033 3.033 0 00-.1-.313 2.148 2.148 0 01-.096-.619c.003-.177.033-.327.09-.452a.576.576 0 01.255-.292c.245-.127.495-.114.75.039.258.136.447.424.565.863.084.294.169.668.255 1.124.091.439.182.891.274 1.357.091.466.184.87.28 1.212.19.604.37 1.139.542 1.604.183.46.343.836.48 1.13.133.282.21.485.233.608a.826.826 0 01.03.41.675.675 0 01-.142.316.668.668 0 01-.279.245zm11.448-5.855c-.875.45-1.694.63-2.457.536a3.327 3.327 0 01-1.952-.958c-.543-.557-.952-1.299-1.226-2.224a5.018 5.018 0 01-.2-1.881 5.962 5.962 0 01.4-1.663c.213-.502.469-.924.765-1.265.291-.353.57-.598.837-.735a.83.83 0 01.313-.1.403.403 0 01.274.06c.086.038.149.12.188.248a2.2 2.2 0 01.049.724c-.03.231-.169.499-.417.802-.29.38-.512.75-.663 1.111a2.97 2.97 0 00-.237 1.073c-.017.36.044.754.183 1.182.274.952.733 1.593 1.376 1.924.637.32 1.34.281 2.107-.114.747-.385 1.26-.987 1.54-1.806.286-.835.283-1.745-.008-2.729-.252-.91-.635-1.522-1.149-1.838-.519-.326-1.098-.325-1.738.005-.331.17-.581.38-.75.629-.158.243-.315.54-.472.891-.11.259-.19.483-.242.671a3.021 3.021 0 01-.163.469.614.614 0 01-.287.269.502.502 0 01-.426.037c-.13-.068-.23-.225-.303-.471-.084-.267-.09-.581-.02-.942.082-.366.217-.732.406-1.1.194-.383.434-.73.72-1.038.28-.32.592-.568.933-.744.768-.396 1.486-.536 2.152-.42.662.104 1.24.428 1.735.97.49.53.857 1.245 1.104 2.144.263.877.337 1.73.224 2.557a5.112 5.112 0 01-.851 2.2 4.633 4.633 0 01-1.745 1.526zm6.544-3.39c-.256.131-.525.08-.807-.152-.282-.233-.518-.678-.708-1.336a25.265 25.265 0 01-.372-1.469 12.796 12.796 0 01-.3-2.274c-.056-.998-.06-1.806-.013-2.423.04-.629.145-1.121.312-1.477.168-.357.395-.609.683-.757a.644.644 0 01.653.008c.221.116.424.288.61.516.185.229.36.463.523.702.218.32.467.671.745 1.054.29.378.586.758.891 1.14.316.378.631.729.947 1.052.326.318.637.57.934.754l-.51.424a43.11 43.11 0 01.053-2.335c.039-.79.091-1.552.158-2.288a39.19 39.19 0 01.226-2c.105-.634.225-1.107.361-1.42.147-.319.316-.527.508-.626a.889.889 0 01.433-.102c.145-.007.28.005.403.035.178.057.343.155.495.292.152.138.294.389.427.752.3.818.593 1.544.88 2.18.291.618.55 1.133.775 1.544.39.73.745 1.29 1.066 1.678.332.382.515.645.55.79.05.15.032.3-.052.451a.742.742 0 01-.358.367c-.256.132-.532.119-.83-.038-.286-.163-.557-.442-.814-.836-.24-.362-.523-.831-.846-1.407a29.029 29.029 0 01-.966-1.993 33.353 33.353 0 01-.914-2.404l.406-.351c-.064.505-.132 1.08-.205 1.725-.067.629-.135 1.285-.202 1.967a94.313 94.313 0 00-.145 1.998c-.03.65-.041 1.257-.034 1.82-.013.263-.07.495-.17.694a.933.933 0 01-.437.448c-.256.132-.5.183-.73.154a1.893 1.893 0 01-.68-.298 6.63 6.63 0 01-.667-.588l-.498-.533a24.919 24.919 0 01-1.47-1.794c-.262-.351-.51-.702-.745-1.054-.24-.362-.446-.708-.617-1.039l.414-.375c-.093.71-.15 1.386-.169 2.03-.008.64.03 1.275.112 1.907.088.616.224 1.261.41 1.935.128.46.251.856.368 1.188.127.325.216.577.266.753.051.203.056.397.015.58-.04.182-.162.326-.365.43zm13.804-7.13c-.491.253-.951.342-1.382.267-.42-.081-.795-.3-1.127-.655-.32-.361-.568-.842-.741-1.44a6.567 6.567 0 01-.263-1.809c-.003-.66.07-1.318.218-1.975a8.61 8.61 0 01.63-1.883 6.796 6.796 0 011.035-1.606 4.848 4.848 0 011.411-1.112c.246-.126.47-.161.675-.105.205.057.347.227.425.51a.683.683 0 01-.003.427c-.052.135-.163.26-.334.375a5.597 5.597 0 00-1.668 1.871 6.854 6.854 0 00-.785 2.368 5.765 5.765 0 00.14 2.317c.096.342.21.642.341.898.127.245.345.538.655.877l-1.177-.79c.319.146.572.218.76.216.198-.008.441-.086.73-.234.682-.352 1.15-1.147 1.404-2.384.253-1.237.248-2.847-.017-4.83a1.202 1.202 0 01.065-.62.811.811 0 01.389-.424.692.692 0 01.725.032c.243.131.436.362.58.693.303.694.595 1.313.875 1.857.286.528.602 1 .951 1.414.36.409.812.79 1.358 1.143a.683.683 0 01.27.327.882.882 0 01.094.458.983.983 0 01-.108.46.734.734 0 01-.326.31.767.767 0 01-.434.101.933.933 0 01-.364-.156 8.278 8.278 0 01-.853-.674 7.055 7.055 0 01-.832-.908 9.239 9.239 0 01-.813-1.383c-.27-.55-.549-1.223-.838-2.019l.568-.313c.198 1.248.273 2.35.225 3.306-.053.946-.2 1.763-.438 2.453-.233.674-.527 1.23-.882 1.669-.354.439-.734.763-1.14.971zm8.972-4.6a.74.74 0 01-.766-.03c-.254-.154-.498-.419-.733-.797-.23-.395-.432-.891-.606-1.49a8.4 8.4 0 01-.214-1.085 2.953 2.953 0 01.023-.78c.045-.227.121-.407.227-.543.084-.124.23-.247.438-.367.203-.132.421-.258.656-.378a26.427 26.427 0 002.247-1.3 13.1 13.1 0 002.009-1.641l.856.956c-.445.499-.96.966-1.545 1.403-.585.436-1.197.846-1.837 1.23-.634.366-1.26.71-1.88 1.028l-1.002.334a144.77 144.77 0 00-.387-1.46 83.471 83.471 0 00-.412-1.47c-.13-.486-.25-.93-.362-1.331a1.496 1.496 0 01-.066-.756c.046-.226.149-.38.309-.463.266-.137.519-.132.757.015.232.137.416.454.55.952.079.257.16.572.245.947.085.375.173.768.264 1.18.101.407.194.797.28 1.172.09.359.168.656.235.891.191.685.38 1.289.57 1.813.193.507.332.895.416 1.162a.754.754 0 01-.019.475.495.495 0 01-.253.333zm5.52-2.843c-.266.137-.538.082-.815-.167-.266-.255-.53-.651-.795-1.19a13.2 13.2 0 01-.699-1.908 52.417 52.417 0 01-.692-2.72 17.614 17.614 0 01-.278-1.68 2.973 2.973 0 01-.001-.79c.035-.246.142-.417.324-.51.235-.121.458-.094.669.08.217.159.373.41.468.752.123.422.22.899.29 1.43.082.524.21 1.073.382 1.645.202.706.41 1.334.627 1.884.22.534.417.98.587 1.338.17.357.279.632.324.825a.84.84 0 01-.017.596.788.788 0 01-.373.415zm2.778-2.584c-.026-.392-.034-.84-.024-1.344.005-.516.017-1.055.037-1.62.03-.568.067-1.127.109-1.675.047-.564.1-1.077.159-1.54.084-.596.181-1.166.293-1.71a7.683 7.683 0 01.402-1.381c.162-.394.344-.643.547-.747.213-.11.447-.116.7-.017.264.094.567.316.91.666.239.255.524.587.857.996a34.41 34.41 0 012.086 2.874c.334.516.625 1 .872 1.454l-1.343.853a21.945 21.945 0 00-.969-1.606 24.756 24.756 0 00-1.13-1.645 20.745 20.745 0 00-1.063-1.316c-.326-.372-.586-.602-.78-.691l.557-.45a20.922 20.922 0 00-.428 1.841 17.52 17.52 0 00-.24 2.128 99.993 99.993 0 00-.079 1.539 31.98 31.98 0 00-.032 1.393c.005.43.016.87.032 1.32l-1.473.678zm8.503-.512c-.213.11-.417.12-.611.031a.63.63 0 01-.368-.438c-.044-.14-.074-.367-.088-.684a16.013 16.013 0 00-.07-1.037 5.949 5.949 0 00-.222-1.14l.996.519c-.16.055-.406.155-.737.298-.32.138-.72.33-1.2.578a109.494 109.494 0 00-3.456 1.86 40.14 40.14 0 00-1.567.93c-.49.306-.932.6-1.326.884l.336-.881a13.23 13.23 0 00.465 1.178c.1.219.185.41.256.576l.173.336c.083.187.09.359.023.515a.72.72 0 01-.366.391c-.256.132-.484.121-.685-.032a1.877 1.877 0 01-.515-.646 5.407 5.407 0 01-.322-.664 5.739 5.739 0 01-.24-.666 1.602 1.602 0 01-.04-.546 1.08 1.08 0 01.155-.526c.1-.173.256-.34.47-.504.244-.18.582-.402 1.014-.664.436-.28.932-.575 1.486-.888a52.79 52.79 0 011.744-.978 56.108 56.108 0 011.727-.93c.278-.144.585-.295.92-.454a8.12 8.12 0 01.994-.431c.326-.127.583-.138.772-.033.2.1.356.336.468.71.084.295.15.619.197.972.047.354.062.697.044 1.03a2.91 2.91 0 01-.118.871c-.067.237-.17.391-.309.463zm3.899-4.7c-.502.257-.975.346-1.422.266-.446-.08-.838-.304-1.175-.67-.343-.378-.61-.882-.8-1.513a904.96 904.96 0 01-.654-2.254c-.213-.727-.397-1.348-.553-1.861a99.287 99.287 0 01-.286-1.027 1.12 1.12 0 01-.054-.418.998.998 0 01.14-.396.725.725 0 01.287-.27c.245-.126.49-.096.734.088.254.18.437.443.549.79.09.333.183.737.28 1.213.107.471.225.91.353 1.316l.136.578c.062.225.12.458.177.698l.16.586c.174.626.402 1.069.684 1.328.283.26.605.297.968.11.203-.105.4-.273.59-.506.2-.239.374-.504.521-.796a3.81 3.81 0 00.296-.88c.055-.286.037-.519-.057-.7-.132-.283-.322-.469-.57-.557-.237-.094-.527-.12-.87-.078a3.97 3.97 0 00-.732.113c-.289.068-.59.15-.906.244-.322.085-.62.185-.898.301l-.264-1.18c.35-.262.736-.575 1.156-.94.43-.37.866-.77 1.306-1.199.44-.43.856-.853 1.249-1.27.445-.473.823-.918 1.135-1.334.322-.423.597-.78.825-1.073.232-.309.444-.512.636-.611.33-.17.64-.188.925-.052.292.12.493.381.605.782.102.38.2.755.296 1.124.1.353.201.72.302 1.099a56.163 56.163 0 00.728 2.278c.144.411.288.782.432 1.113.11.214.225.451.347.713.126.245.209.432.248.56.039.129.046.26.02.395a.655.655 0 01-.157.323.73.73 0 01-.278.245c-.225.116-.45.097-.677-.056a2.261 2.261 0 01-.588-.71 15.11 15.11 0 01-.728-1.65 25.745 25.745 0 01-.593-1.78 22.62 22.62 0 00-.244-.866c-.084-.32-.166-.637-.245-.947-.079-.31-.152-.583-.219-.818a42.541 42.541 0 00-.135-.538l.493.171a11.68 11.68 0 01-.721.959 26.88 26.88 0 01-1.057 1.172 75.21 75.21 0 01-1.289 1.27c-.451.436-.913.862-1.386 1.281-.467.403-.927.768-1.38 1.095l-.136-.658c.08-.055.203-.131.368-.23a6.05 6.05 0 01.607-.353c.128-.066.316-.136.562-.208.256-.078.532-.133.827-.163.305-.036.614-.026.926.03.317.038.603.148.857.327.265.174.477.429.637.765.193.427.255.902.186 1.423a4.745 4.745 0 01-.448 1.527c-.241.502-.54.959-.894 1.371-.36.401-.737.704-1.132.907zm17.663-9.158c-1.216.626-2.157.935-2.822.927-.666-.008-1.055-.213-1.167-.614a.608.608 0 01.002-.467c.063-.14.185-.257.367-.35.149-.077.301-.122.457-.135.16-.029.348-.058.562-.087.22-.046.487-.116.803-.21a8.85 8.85 0 001.137-.505 9.001 9.001 0 001.143-.69 4.66 4.66 0 00.788-.75c.201-.266.353-.52.458-.762-.154-.3-.419-.5-.796-.603a4.584 4.584 0 00-1.298-.162 70.187 70.187 0 00-1.538.003 10.271 10.271 0 01-1.547-.095 3.279 3.279 0 01-1.294-.507c-.362-.259-.622-.658-.779-1.199a3.42 3.42 0 01.002-1.843 7.811 7.811 0 01.823-1.942c.378-.654.808-1.26 1.29-1.819.487-.574.98-1.071 1.48-1.49.504-.436.954-.755 1.35-.959.191-.098.362-.146.512-.143a.49.49 0 01.356.141.685.685 0 01.206.36.827.827 0 01-.026.58c-.078.189-.247.384-.508.585-.984.764-1.79 1.517-2.42 2.26-.63.742-1.075 1.437-1.336 2.084-.25.642-.31 1.193-.181 1.653.084.294.295.495.635.604.34.109.756.17 1.25.186.5 0 1.027.004 1.586.014a9.714 9.714 0 011.603.125c.511.075.958.236 1.342.483.395.243.662.618.803 1.126.106.39.098.78-.027 1.168a3.095 3.095 0 01-.622 1.11c-.302.358-.679.7-1.131 1.028-.442.322-.929.62-1.463.895zm14.432-7.432c-.235.12-.455.112-.661-.025-.211-.147-.48-.434-.807-.86a14.08 14.08 0 01-.909-1.333 34.92 34.92 0 01-.971-1.768 35.21 35.21 0 01-.852-1.85 79.03 79.03 0 00-.77-1.85c-.21-.512-.4-.907-.57-1.184-.165-.294-.325-.488-.482-.582-.157-.095-.331-.093-.523.006-.288.148-.538.567-.75 1.257-.207.673-.357 1.56-.451 2.662-.094 1.101-.109 2.37-.043 3.808.06 1.427.22 2.97.482 4.631a1.46 1.46 0 01-.033.645.672.672 0 01-.334.374c-.245.127-.462.137-.651.032-.195-.116-.36-.409-.494-.88a13.15 13.15 0 01-.404-2.12 38.815 38.815 0 01-.155-2.268 55.695 55.695 0 00-.157-2.309 16.538 16.538 0 00-.316-2.226 1.1 1.1 0 01-.023-.555.562.562 0 01.294-.374.745.745 0 01.466-.078c.172.02.342.1.51.243l-.518.49c.156-1.35.387-2.407.695-3.173.318-.771.76-1.302 1.325-1.593.619-.319 1.15-.363 1.593-.132.443.23.867.714 1.273 1.45.406.736.863 1.728 1.372 2.978.371.93.737 1.706 1.098 2.33.362.623.685 1.146.969 1.566l.737 1.038c.196.277.331.538.404.784a.732.732 0 01-.018.516.65.65 0 01-.326.35zm-9.553.95c-.234.122-.427.154-.578.096-.151-.057-.247-.177-.286-.359a.613.613 0 01.003-.426c.057-.151.178-.322.364-.512 1.012-1.075 2.229-2.106 3.65-3.095a42.315 42.315 0 014.756-2.834c.374-.192.641-.262.803-.21.172.046.289.181.351.406.067.235.022.488-.136.758-.163.26-.437.489-.821.686-1.227.632-2.248 1.205-3.063 1.72a23 23 0 00-1.996 1.351c-.527.393-.966.747-1.316 1.063-.34.31-.64.579-.9.808a4.546 4.546 0 01-.831.549zm13.789-3.03c-.288.148-.533.118-.734-.088-.201-.207-.327-.635-.377-1.284a28.039 28.039 0 01-.076-2.978c.019-1.09.105-2.207.258-3.352a34.08 34.08 0 01.659-3.477c.281-1.158.638-2.26 1.071-3.306.146-.345.278-.588.394-.73.127-.146.255-.252.383-.318a.548.548 0 01.49-.03c.157.068.274.217.352.447.05.15.076.292.077.426a1.59 1.59 0 01-.09.492c-.068.183-.167.437-.297.76a22.214 22.214 0 00-1.162 3.798 26.28 26.28 0 00-.54 4.064c-.08 1.364-.048 2.71.097 4.04.048.488.031.834-.052 1.039a.89.89 0 01-.453.496zm-.587-5.975a.626.626 0 01-.45.07.953.953 0 01-.397-.221 25.765 25.765 0 00-1.398-1.143 17.858 17.858 0 00-1.088-.776c-.33-.221-.649-.435-.958-.64a21.323 21.323 0 01-.983-.77 6.71 6.71 0 01-.554-.564 1.447 1.447 0 01-.256-.497.884.884 0 01-.014-.539.634.634 0 01.334-.374.647.647 0 01.474-.062c.161.025.339.122.535.291.374.361.713.666 1.017.914.309.233.601.446.877.642.281.179.568.369.86.57a11.649 11.649 0 012.009 1.698.95.95 0 01.205.32c.066.128.108.261.125.4a.71.71 0 01-.059.396.554.554 0 01-.279.285zM12.949 87.366c-.288.149-.532.12-.733-.087-.201-.207-.327-.635-.378-1.284-.075-.906-.1-1.9-.076-2.978a29.26 29.26 0 01.258-3.352c.158-1.161.378-2.32.66-3.477.28-1.158.638-2.26 1.07-3.306.147-.345.278-.588.395-.73.127-.145.254-.252.382-.318a.55.55 0 01.49-.03c.157.068.274.217.352.447.05.15.076.292.078.426.002.134-.029.298-.09.492a29.48 29.48 0 01-.298.76 22.241 22.241 0 00-1.162 3.798 26.302 26.302 0 00-.54 4.064 24.164 24.164 0 00.097 4.04c.049.488.032.834-.052 1.039a.887.887 0 01-.453.496zm-.586-5.974a.628.628 0 01-.45.07.956.956 0 01-.397-.221 25.69 25.69 0 00-1.399-1.143c-.4-.306-.763-.565-1.088-.776l-.957-.64a21.43 21.43 0 01-.984-.77 6.62 6.62 0 01-.554-.564 1.455 1.455 0 01-.255-.496.884.884 0 01-.015-.54.633.633 0 01.334-.374.648.648 0 01.474-.062c.162.025.34.122.535.291.375.361.714.666 1.017.914.309.233.601.447.877.642.282.179.568.369.86.57a11.534 11.534 0 012.009 1.698c.082.08.15.186.205.32.066.128.108.261.126.4a.71.71 0 01-.06.396.55.55 0 01-.278.285zm12.651-.381c-.8.412-1.546.64-2.238.687-.686.03-1.305-.097-1.856-.38a4.073 4.073 0 01-1.424-1.271c-.393-.554-.701-1.205-.925-1.954a10.898 10.898 0 01-.31-1.703 12.14 12.14 0 01-.053-1.754c.036-.585.096-1.15.181-1.693.08-.473.19-.9.33-1.284.152-.388.371-.656.66-.805.138-.07.264-.088.377-.052.119.02.208.102.269.246.066.128.079.324.04.587-.133.608-.23 1.245-.292 1.912a12.9 12.9 0 00-.049 1.989c.03.66.134 1.308.313 1.944.213.754.534 1.352.963 1.792.424.43.918.681 1.483.755.575.068 1.182-.062 1.822-.392.555-.286.995-.56 1.319-.82a4.8 4.8 0 00.772-.742c.19-.233.341-.426.452-.577a1.12 1.12 0 01.342-.319c.192-.098.35-.106.475-.021.119.073.21.21.27.407.084.267.032.598-.157.992-.177.389-.492.8-.943 1.235-.446.419-1.053.826-1.82 1.22zm-4.78-3.227c-.218.18-.405.276-.56.288a.43.43 0 01-.356-.14 1.304 1.304 0 01-.198-.385c-.056-.213-.013-.445.129-.693.142-.249.372-.496.691-.741.33-.251.695-.513 1.094-.786.404-.29.809-.565 1.214-.828a33.22 33.22 0 011.15-.754c.362-.24.695-.446.999-.616.32-.165.56-.221.722-.17.157.042.265.161.327.359.078.31.01.596-.208.856-.222.25-.49.475-.805.678-.372.219-.753.462-1.142.73-.383.251-.764.508-1.142.77a29.92 29.92 0 00-1.062.77c-.324.234-.609.455-.853.662zm-2.005-5.427c-.31.16-.566.211-.77.155a.53.53 0 01-.392-.406.772.772 0 01.003-.427.826.826 0 01.292-.454 26.423 26.423 0 012.155-1.556 58.956 58.956 0 012.35-1.453c.778-.454 1.46-.833 2.047-1.135.267-.137.495-.167.683-.088.194.062.32.2.376.414.056.214.05.426-.017.636-.073.2-.248.37-.525.513-.95.49-1.757.939-2.423 1.35-.672.4-1.236.757-1.694 1.074-.458.317-.854.595-1.19.835-.33.225-.628.405-.895.543zm15.075 4.426c-1.217.626-2.158.935-2.823.927-.666-.008-1.055-.213-1.167-.614a.608.608 0 01.003-.467c.063-.14.185-.257.366-.35.15-.077.302-.122.457-.135.16-.028.348-.058.563-.087.22-.046.487-.116.802-.21a8.85 8.85 0 001.137-.505 8.945 8.945 0 001.143-.69c.32-.246.582-.496.788-.75.201-.266.354-.52.458-.763-.154-.298-.419-.499-.796-.602a4.584 4.584 0 00-1.298-.161 70.132 70.132 0 00-1.537.002 10.257 10.257 0 01-1.547-.094 3.281 3.281 0 01-1.295-.508c-.362-.259-.622-.658-.779-1.199a3.42 3.42 0 01.003-1.843 7.814 7.814 0 01.822-1.942c.378-.654.809-1.26 1.29-1.819.487-.574.98-1.071 1.48-1.49.505-.436.954-.755 1.349-.959a1.09 1.09 0 01.514-.143c.15.004.268.05.355.141a.683.683 0 01.206.36.829.829 0 01-.025.58c-.079.189-.248.384-.509.585-.983.764-1.79 1.517-2.42 2.26-.63.742-1.075 1.437-1.336 2.084-.25.642-.31 1.193-.181 1.653.084.294.296.495.635.604.34.109.756.17 1.25.186.5 0 1.028.004 1.586.014a9.726 9.726 0 011.604.125c.51.075.958.236 1.342.484.394.242.662.617.802 1.125.107.39.098.78-.026 1.168a3.095 3.095 0 01-.623 1.11c-.302.358-.679.7-1.13 1.028-.443.322-.93.62-1.463.895zm6.122-7.85a.55.55 0 01-.49.03.91.91 0 01-.4-.422 21.69 21.69 0 01-.696-1.626 32.596 32.596 0 01-.501-1.564 45.523 45.523 0 01-.405-1.573 60.75 60.75 0 01-.24-1.213c-.07-.37-.157-.736-.263-1.1a1.135 1.135 0 01-.031-.611.65.65 0 01.364-.471.677.677 0 01.677.016c.221.115.399.381.532.798.09.332.161.653.213.964a25.354 25.354 0 00.578 2.577c.123.423.235.77.335 1.043.1.272.188.51.266.713.078.203.15.395.216.577.077.176.147.377.208.601.085.348.08.627-.014.838-.083.205-.2.346-.349.422zm1.352 4.04c-.394.204-.75.26-1.068.166-.324-.103-.547-.366-.67-.788a1.245 1.245 0 01.046-.895c.125-.28.322-.49.588-.627.47-.241.85-.275 1.142-.102.292.174.491.443.597.806.063.252.05.515-.038.79-.078.269-.276.486-.596.65zm12.094-6.248c-.886.457-1.656.65-2.312.584a2.555 2.555 0 01-1.644-.834c-.44-.489-.772-1.12-.996-1.896a6.697 6.697 0 01-.2-1.882 7.468 7.468 0 01.354-2.025c.223-.668.54-1.27.953-1.806a4.46 4.46 0 011.538-1.298c.566-.292 1.076-.44 1.532-.445.467-.011.86.123 1.18.404.331.275.58.707.749 1.295.195.642.19 1.273-.018 1.892-.213.61-.574 1.18-1.083 1.712a6.64 6.64 0 01-1.803 1.334c-.726.373-1.255.538-1.588.494-.323-.05-.518-.193-.585-.428-.044-.14-.043-.255.004-.346.042-.103.143-.195.303-.278.117-.06.267-.11.449-.15.187-.056.446-.169.776-.34a4.883 4.883 0 001.325-.965c.36-.375.614-.761.76-1.16a2 2 0 00.058-1.184c-.101-.353-.267-.572-.5-.655-.22-.088-.539-.025-.955.189a2.983 2.983 0 00-1.052.906c-.28.374-.503.806-.669 1.296a5.29 5.29 0 00-.035 3.076c.123.422.299.777.528 1.064.223.277.515.45.875.521.366.055.794-.044 1.285-.297.554-.286.993-.6 1.317-.942a5.14 5.14 0 00.76-1.039c.179-.335.328-.621.449-.859.12-.237.255-.395.405-.471.181-.094.345-.09.491.01.151.084.26.244.328.479.067.235.038.533-.086.895-.12.344-.32.717-.599 1.118-.269.395-.6.774-.992 1.138a6.152 6.152 0 01-1.302.894zm8.931-4.62c-.79.407-1.52.588-2.191.542a2.88 2.88 0 01-1.732-.768c-.483-.467-.84-1.106-1.07-1.92a5.936 5.936 0 01-.21-2.098c.061-.72.236-1.404.523-2.051a6.715 6.715 0 011.146-1.785 5.656 5.656 0 011.635-1.267c.278-.143.545-.227.802-.251.252-.035.467.002.646.113.183.094.306.267.368.519.062.224.064.426.008.603a.672.672 0 01-.334.375.549.549 0 01-.305.076 4.06 4.06 0 00-.274-.021c-.086-.01-.21.027-.37.109a3.78 3.78 0 00-1.472 1.346 4.932 4.932 0 00-.75 1.884 4.373 4.373 0 00.078 1.924c.157.486.368.87.634 1.151.272.265.593.417.963.456.382.033.78-.058 1.197-.272.47-.242.815-.488 1.038-.737.216-.26.37-.5.458-.722.1-.227.175-.42.226-.582a.546.546 0 01.278-.366c.203-.104.366-.128.49-.07.135.052.241.206.32.463.106.39.087.799-.058 1.224-.151.415-.407.81-.767 1.185a4.71 4.71 0 01-1.277.94zm1.919-9.147c-.246.127-.476.15-.692.073a.63.63 0 01-.391-.446.696.696 0 01.035-.403c.052-.135.184-.298.397-.488.329-.304.791-.664 1.388-1.08.606-.42 1.342-.852 2.206-1.297.448-.231.864-.432 1.249-.603.39-.187.83-.367 1.322-.539.384-.144.706-.202.964-.172.268.023.428.123.478.3.04.128.046.26.021.394a.755.755 0 01-.18.356c-.09.114-.226.218-.408.311-.224.115-.49.24-.8.372-.31.132-.641.276-.994.43a11.97 11.97 0 00-1.048.48c-.737.379-1.312.716-1.727 1.01-.42.285-.761.54-1.022.77a4.552 4.552 0 01-.798.532zm5.666 5.302a.65.65 0 01-.676-.016 2.409 2.409 0 01-.603-.62 7.189 7.189 0 01-.47-.913 18.119 18.119 0 01-.5-1.362 44.616 44.616 0 01-.46-1.484 223.43 223.43 0 00-.495-1.709c-.14-.508-.26-.925-.361-1.252l1.39-.837.195.77c.084.294.182.629.293 1.003.107.364.213.74.32 1.131.112.375.218.738.319 1.091.168.589.33 1.073.484 1.452.16.363.303.654.43.872.125.219.232.4.32.544.082.133.142.264.181.392.04.128.052.257.037.386a.676.676 0 01-.141.316.694.694 0 01-.263.236zm7.296-3.797c-.523.269-.988.4-1.396.395a2.024 2.024 0 01-1.091-.35 3.022 3.022 0 01-.807-.86 4.958 4.958 0 01-.497-1.161 11.353 11.353 0 01-.334-1.63 13.544 13.544 0 00-.308-1.582 11.627 11.627 0 00-.4-1.171 4.733 4.733 0 01-.25-.722.965.965 0 01-.045-.361.93.93 0 01.117-.324.804.804 0 01.31-.261c.3-.154.57-.125.815.087.249.195.435.505.558.927.084.267.163.591.237.971.069.37.138.753.207 1.149.07.396.14.771.215 1.124.074.354.144.648.212.883.128.434.277.802.447 1.106.165.293.371.484.62.572.252.072.565.012.939-.18.31-.16.599-.396.869-.71.27-.315.494-.667.671-1.055.178-.389.29-.777.333-1.163.038-.398-.014-.749-.158-1.053-.071-.139-.206-.204-.404-.197-.194-.008-.466.078-.819.26-.394.203-.78.436-1.158.698a18.24 18.24 0 00-1.883 1.495.542.542 0 01-.296.093.523.523 0 01-.267-.086.462.462 0 01-.148-.248.882.882 0 01-.054-.458.865.865 0 01.26-.438c.18-.2.401-.415.661-.644a13.41 13.41 0 011.795-1.39 8.3 8.3 0 01.895-.541c.523-.27.959-.406 1.308-.41.359-.01.655.08.888.27.233.191.422.452.565.783.215.47.3 1 .253 1.59a5.744 5.744 0 01-.454 1.793 6.212 6.212 0 01-.995 1.646 4.576 4.576 0 01-1.41 1.152zM20.97 101.131c-1.216.626-2.157.935-2.823.927-.666-.008-1.054-.213-1.167-.614a.608.608 0 01.003-.467c.063-.14.185-.257.366-.35.15-.077.302-.122.457-.135.161-.028.348-.057.563-.087a9.4 9.4 0 00.802-.211c.31-.105.69-.274 1.137-.504a9.1 9.1 0 001.143-.69 4.6 4.6 0 00.788-.75c.201-.266.354-.52.458-.762-.153-.3-.419-.5-.796-.603a4.582 4.582 0 00-1.298-.161 65.983 65.983 0 00-1.537.002 10.35 10.35 0 01-1.547-.094 3.291 3.291 0 01-1.294-.508c-.363-.26-.623-.658-.78-1.2a3.417 3.417 0 01.003-1.842 7.815 7.815 0 01.822-1.942 11.95 11.95 0 011.29-1.82c.487-.573.98-1.07 1.48-1.49.505-.435.954-.754 1.35-.958a1.1 1.1 0 01.513-.143.49.49 0 01.356.14.686.686 0 01.205.36.83.83 0 01-.025.58c-.079.19-.248.385-.509.587-.983.763-1.79 1.516-2.42 2.258-.63.743-1.075 1.438-1.336 2.085-.25.642-.31 1.193-.181 1.653.084.294.296.495.635.604.34.109.756.17 1.25.186.5 0 1.028.004 1.586.014a9.64 9.64 0 011.604.125c.51.075.958.236 1.342.484.395.242.662.617.802 1.125.107.39.098.78-.026 1.168a3.098 3.098 0 01-.623 1.11 6.278 6.278 0 01-1.13 1.028c-.442.322-.93.62-1.463.895zm9.213-4.725c-.661.34-1.282.485-1.863.433a3.24 3.24 0 01-1.6-.593 4.66 4.66 0 01-1.224-1.354 7.646 7.646 0 01-.811-1.85 8.993 8.993 0 01-.325-1.614 12.687 12.687 0 01-.02-1.69.66.66 0 01.091-.412.93.93 0 01.35-.302c.235-.121.44-.131.612-.031.184.094.317.275.401.542.05.177.074.354.07.53.008.172.01.374.008.604.003.215.022.475.058.78.03.296.101.644.213 1.045a6.31 6.31 0 00.589 1.418c.23.394.494.71.792.948.298.238.614.379.947.424.344.038.692-.033 1.044-.214.448-.231.782-.605 1.001-1.123.23-.523.327-1.187.29-1.992-.031-.821-.204-1.785-.517-2.892a6.673 6.673 0 00-.267-.753 12.06 12.06 0 00-.207-.521 13.812 13.812 0 01-.184-.554 1.217 1.217 0 01-.03-.531c.035-.166.16-.305.373-.415a.61.61 0 01.596.017c.205.11.41.35.612.718.208.35.405.864.59 1.538.409 1.396.595 2.623.56 3.68-.026 1.053-.23 1.928-.614 2.624-.372.692-.884 1.205-1.535 1.54zm9.226-4.852c-.512.264-.996.425-1.452.484-.455.059-.842.029-1.16-.091-.318-.12-.52-.313-.603-.58a.883.883 0 01.003-.427.483.483 0 01.262-.317.592.592 0 01.33-.068c.112.009.246.02.402.035a2.29 2.29 0 00.62-.055c.251-.062.569-.192.953-.39.597-.308 1.04-.718 1.33-1.232.294-.53.32-1.184.08-1.965-.15-.556-.379-1.012-.684-1.368a2.728 2.728 0 00-1.048-.817 2.607 2.607 0 00-1.307-.218 3.808 3.808 0 00-1.435.436 4.13 4.13 0 00-.712.467 3.782 3.782 0 01-.63.426.721.721 0 01-.362.085.514.514 0 01-.324-.157.73.73 0 01-.18-.312c-.085-.321-.005-.638.238-.953.248-.33.708-.668 1.38-1.014.715-.368 1.413-.573 2.094-.613a4.052 4.052 0 011.928.323c.588.25 1.106.653 1.552 1.205.452.537.796 1.217 1.03 2.04.158.54.212 1.066.165 1.577a4.069 4.069 0 01-.362 1.42c-.21.433-.492.828-.847 1.186a5.27 5.27 0 01-1.261.893zm-1.651 6.033a.661.661 0 01-.386.077.464.464 0 01-.308-.165 1.027 1.027 0 01-.214-.416 1.527 1.527 0 01-.055-.54c.01-.165.012-.37.01-.611a6.725 6.725 0 00-.06-.86 8.988 8.988 0 00-.28-1.293 13.981 13.981 0 00-.948-2.468c-.39-.785-.791-1.577-1.203-2.377a16.235 16.235 0 01-1.013-2.556c-.084-.294-.095-.538-.033-.732a.763.763 0 01.39-.464c.17-.088.339-.1.506-.038a.93.93 0 01.47.324c.137.16.236.365.298.617.201.706.434 1.355.7 1.948.269.576.544 1.136.824 1.68.291.539.566 1.086.825 1.64.259.556.478 1.152.657 1.788.173.573.3 1.108.382 1.606.08.498.113.94.096 1.327-.006.38-.064.7-.174.96-.099.254-.26.438-.484.553zm10.484-10.481c-.885.456-1.656.65-2.311.583a2.554 2.554 0 01-1.644-.834c-.44-.488-.773-1.12-.997-1.896a6.69 6.69 0 01-.2-1.881 7.459 7.459 0 01.355-2.025 6.11 6.11 0 01.952-1.807 4.48 4.48 0 011.538-1.298c.566-.291 1.077-.44 1.533-.445.467-.011.86.124 1.18.404.33.275.58.707.748 1.296.196.641.19 1.272-.018 1.892-.212.609-.573 1.179-1.082 1.71-.498.528-1.1.972-1.804 1.335-.725.374-1.255.538-1.588.494-.322-.05-.517-.192-.585-.428-.044-.14-.043-.254.004-.346.042-.102.143-.195.303-.277a1.83 1.83 0 01.45-.151 4.97 4.97 0 00.776-.34 4.893 4.893 0 001.325-.965c.36-.374.613-.761.759-1.16a2 2 0 00.058-1.184c-.1-.353-.267-.571-.499-.654-.22-.089-.54-.026-.956.188a2.982 2.982 0 00-1.051.906c-.28.374-.503.806-.67 1.296a5.295 5.295 0 00-.247 1.525c-.01.53.061 1.048.212 1.55.123.424.3.778.528 1.066.223.276.515.45.876.52.365.055.793-.044 1.284-.297.555-.285.994-.6 1.317-.941.329-.358.582-.705.76-1.04.18-.335.329-.621.45-.858.12-.238.255-.395.404-.472.182-.094.345-.09.491.01.152.084.261.244.328.479.067.236.039.534-.086.895-.12.345-.319.717-.598 1.118-.27.395-.6.775-.993 1.139a6.15 6.15 0 01-1.302.893zm6.812-3.467a.57.57 0 01-.451.029 1.072 1.072 0 01-.422-.31 1.752 1.752 0 01-.321-.583 42.914 42.914 0 00-.671-2.246 26.953 26.953 0 00-.7-1.988c-.238-.593-.471-1.06-.7-1.4a7.95 7.95 0 01-.33-.56 6.192 6.192 0 01-.166-.44.973.973 0 01.017-.597.745.745 0 01.374-.415.613.613 0 01.62.025c.205.11.426.381.662.813.24.416.506 1.035.794 1.858.295.807.613 1.858.956 3.153l-.647-.194c-.244-1.183-.354-2.233-.327-3.151.037-.924.17-1.715.399-2.372.233-.674.524-1.222.873-1.645.36-.428.732-.741 1.116-.939.288-.148.514-.17.676-.064.157.094.26.257.312.487a.86.86 0 01-.01.491c-.052.189-.184.365-.397.528-.526.42-.926.902-1.198 1.448a5.018 5.018 0 00-.527 1.769 9.085 9.085 0 00.025 2.093c.084.74.21 1.532.375 2.378.069.397.11.713.124.949.014.236-.02.42-.098.556a.798.798 0 01-.358.327zm9.812-5.195c-.512.263-.996.425-1.452.484-.455.059-.842.029-1.16-.09-.318-.12-.519-.314-.603-.581a.882.882 0 01.003-.427.481.481 0 01.262-.317.598.598 0 01.33-.069l.402.036c.156.014.363-.004.62-.056.251-.062.569-.192.953-.39.597-.307 1.04-.718 1.33-1.231.294-.53.321-1.185.081-1.965-.151-.557-.38-1.013-.684-1.369a2.728 2.728 0 00-1.049-.816 2.609 2.609 0 00-1.306-.218c-.467.037-.946.183-1.436.435a4.14 4.14 0 00-.711.468 3.773 3.773 0 01-.631.426.728.728 0 01-.361.085.516.516 0 01-.324-.157.735.735 0 01-.181-.312c-.084-.321-.005-.639.238-.953.248-.33.709-.669 1.38-1.015.715-.368 1.413-.572 2.095-.612a4.05 4.05 0 011.928.323c.587.25 1.105.652 1.551 1.205.452.537.796 1.217 1.031 2.04.157.54.211 1.066.164 1.576a4.076 4.076 0 01-.362 1.422 4.42 4.42 0 01-.847 1.185c-.36.348-.781.645-1.261.893zm-1.651 6.033a.661.661 0 01-.386.077.464.464 0 01-.307-.165 1.026 1.026 0 01-.215-.416 1.527 1.527 0 01-.055-.54 9.76 9.76 0 00.01-.611 6.742 6.742 0 00-.06-.861 8.965 8.965 0 00-.28-1.293 13.98 13.98 0 00-.947-2.468c-.39-.784-.792-1.576-1.204-2.376a16.267 16.267 0 01-1.013-2.556c-.084-.295-.095-.539-.033-.733a.762.762 0 01.39-.463c.17-.088.339-.1.506-.038.172.046.33.154.47.324.137.16.236.365.298.616.202.707.435 1.356.7 1.948.27.577.544 1.137.825 1.681.29.539.565 1.085.824 1.64.259.556.478 1.151.657 1.788.174.572.3 1.107.382 1.606.08.498.113.94.096 1.327-.006.38-.064.7-.174.96-.099.253-.26.438-.484.553zm10.934-10.673c-.874.45-1.694.63-2.457.537a3.327 3.327 0 01-1.951-.959c-.544-.557-.952-1.298-1.226-2.223a5.016 5.016 0 01-.2-1.882 5.96 5.96 0 01.399-1.663c.214-.502.47-.923.766-1.265.29-.352.57-.597.836-.734a.831.831 0 01.313-.1.403.403 0 01.274.06c.087.037.15.12.189.248.056.24.073.482.049.724-.03.23-.169.498-.418.802-.29.379-.511.749-.663 1.11a2.973 2.973 0 00-.236 1.074c-.017.36.044.753.183 1.181.274.952.733 1.593 1.375 1.924.637.32 1.34.282 2.108-.114.747-.384 1.26-.986 1.54-1.805.285-.836.283-1.745-.008-2.73-.252-.909-.635-1.521-1.15-1.837-.518-.327-1.098-.325-1.738.004-.33.17-.58.38-.75.63-.157.243-.315.54-.472.89-.11.26-.19.483-.241.671a3.021 3.021 0 01-.164.47.613.613 0 01-.286.268.502.502 0 01-.426.038c-.13-.069-.231-.226-.304-.472-.084-.267-.09-.58-.02-.941a4.64 4.64 0 01.406-1.1 4.54 4.54 0 01.72-1.04c.281-.32.592-.567.934-.743.768-.395 1.485-.535 2.152-.42.661.105 1.24.428 1.734.97.49.53.858 1.245 1.105 2.144.262.877.337 1.73.224 2.557a5.113 5.113 0 01-.852 2.2 4.633 4.633 0 01-1.745 1.526zm8.054-4.086c-.31.16-.632.136-.967-.07-.341-.215-.725-.699-1.153-1.45a94.778 94.778 0 01-.946-1.72 21.886 21.886 0 00-1.003-1.751c-.35-.549-.73-.987-1.143-1.315-.222-.196-.367-.385-.433-.566a.733.733 0 01.018-.516.77.77 0 01.374-.375.89.89 0 01.667-.08c.231.056.502.254.812.594.342.35.664.778.965 1.285.302.506.592 1.031.872 1.575.275.534.555 1.038.84 1.512.284.474.584.86.899 1.156l-.455.296c.07-.36.114-.788.13-1.282.01-.505.003-1.041-.02-1.61-.012-.574-.027-1.14-.044-1.698a18.585 18.585 0 01.029-1.594c.048-.902.137-1.582.266-2.04.133-.474.355-.79.664-.95.3-.154.591-.19.877-.107.285.082.59.283.916.6.32.308.688.733 1.103 1.276.24.308.482.649.728 1.021.251.357.508.711.77 1.062.256.34.514.646.775.917.261.27.526.471.796.602l-.31.261c.074-.484.09-.991.046-1.522a21.764 21.764 0 00-.18-1.648c-.083-.552-.162-1.098-.238-1.64-.07-.557-.11-1.09-.115-1.6 0-.365.034-.706.1-1.024.077-.323.186-.608.328-.857.152-.254.335-.436.549-.546a.668.668 0 01.361-.085c.113.01.213.046.3.11a.63.63 0 01.204.319c.056.16.066.337.03.531a2.433 2.433 0 01-.193.646c-.099.254-.151.571-.157.952-.007.381.012.797.055 1.247.053.445.112.9.177 1.367.075.46.134.902.177 1.326.102.906.145 1.62.13 2.14-.01.504-.078.884-.204 1.137a1.282 1.282 0 01-.549.546c-.299.154-.585.187-.86.1-.27-.105-.645-.35-1.128-.736a8.091 8.091 0 01-1.077-1.187c-.349-.468-.69-.947-1.023-1.437a13.59 13.59 0 00-.966-1.325c-.31-.393-.614-.668-.911-.826l.247-.188a6.175 6.175 0 00-.217 1.387c-.026.526-.03 1.109-.011 1.747.013.628.029 1.288.047 1.98a21.92 21.92 0 01-.055 2.054 5.373 5.373 0 01-.133 1c-.062.247-.153.45-.275.607a1.431 1.431 0 01-.486.392zm14.735-7.69c-.886.456-1.656.65-2.312.583a2.555 2.555 0 01-1.644-.834c-.44-.488-.773-1.12-.997-1.896a6.697 6.697 0 01-.2-1.881 7.468 7.468 0 01.355-2.025c.223-.668.54-1.27.953-1.807.417-.552.93-.985 1.538-1.298.843-.434 1.566-.55 2.17-.348.613.197 1.044.731 1.29 1.603.196.642.19 1.272-.017 1.892-.213.609-.574 1.18-1.083 1.712a6.67 6.67 0 01-1.803 1.333c-.726.374-1.255.538-1.588.494-.323-.05-.518-.192-.585-.428-.045-.139-.043-.254.004-.346.041-.102.142-.195.302-.277.118-.06.267-.11.45-.15.187-.056.446-.17.776-.34a4.883 4.883 0 001.325-.965c.36-.375.614-.762.76-1.16.14-.41.16-.805.057-1.185-.1-.353-.267-.57-.498-.654-.222-.089-.54-.026-.956.188a3.14 3.14 0 00-1.305 1.28 5.23 5.23 0 00-.63 1.923 5.12 5.12 0 00.178 2.075c.124.423.3.778.528 1.065.224.276.516.45.876.52.366.055.794-.044 1.284-.297.555-.285.994-.599 1.317-.941.33-.358.582-.705.761-1.04.178-.334.328-.62.45-.858.12-.238.254-.395.403-.472.182-.093.346-.09.492.01.151.084.26.244.327.48.068.235.04.533-.086.894a4.624 4.624 0 01-.598 1.118c-.269.395-.6.775-.993 1.139a6.14 6.14 0 01-1.3.893zm6.811-3.467a.57.57 0 01-.451.03 1.077 1.077 0 01-.422-.31 1.759 1.759 0 01-.321-.583 42.576 42.576 0 00-.671-2.246 26.951 26.951 0 00-.7-1.989c-.238-.593-.471-1.06-.701-1.4a8.01 8.01 0 01-.328-.56 6.009 6.009 0 01-.167-.44.98.98 0 01.017-.596.745.745 0 01.374-.416.613.613 0 01.62.025c.205.11.426.382.662.814.241.415.506 1.035.795 1.858.294.807.612 1.857.955 3.152l-.646-.193c-.245-1.183-.354-2.234-.328-3.152.038-.924.17-1.714.399-2.372.233-.673.525-1.222.874-1.644.36-.429.732-.742 1.116-.94.288-.148.513-.17.675-.064.157.095.261.257.312.487a.869.869 0 01-.01.492c-.052.188-.184.364-.397.528-.526.42-.925.902-1.198 1.447a5.003 5.003 0 00-.526 1.77 9.045 9.045 0 00.025 2.092c.084.74.208 1.533.374 2.379.069.396.111.712.124.948.014.236-.019.421-.098.557a.8.8 0 01-.358.326zm8.198-4.263c-.736.38-1.348.593-1.836.642-.477.043-.848-.009-1.112-.156-.254-.152-.41-.336-.466-.55a.859.859 0 01.002-.507.698.698 0 01.35-.383c.149-.076.28-.097.394-.06.118.02.255.05.411.091.162.025.376.01.644-.048.267-.057.62-.198 1.057-.423.576-.297 1.029-.638 1.357-1.022.328-.385.497-.83.507-1.335-.131-.202-.35-.312-.656-.33a3.777 3.777 0 00-1.03.044l-1.213.2a6.09 6.09 0 01-1.199.07 2.177 2.177 0 01-1.001-.293c-.282-.18-.481-.488-.599-.927a2.24 2.24 0 01.025-1.288 4.73 4.73 0 01.676-1.36 6.086 6.086 0 011.121-1.206 7.187 7.187 0 011.365-.926c.309-.159.574-.235.794-.226a.902.902 0 01.558.138c.14.09.233.217.278.383a.712.712 0 01-.035.483c-.062.14-.184.257-.366.35l-.192.1a1.712 1.712 0 00-.248.107c-.091.034-.195.08-.312.14-.641.33-1.17.731-1.588 1.203a3.307 3.307 0 00-.794 1.644c.137.186.347.294.632.322.29.013.631-.007 1.022-.06.396-.07.806-.139 1.229-.208.423-.07.831-.09 1.223-.063.387.017.731.123 1.034.318.298.184.508.501.631.95.113.402.125.807.039 1.216a3.527 3.527 0 01-.501 1.149 4.721 4.721 0 01-.947.993 6.57 6.57 0 01-1.254.828zM88.344 96.303a1 1 0 10-1.789-.894l1.789.894zm110.96 18.669a.998.998 0 001.1-.888l.951-8.95a.999.999 0 10-1.989-.211l-.845 7.955-7.955-.845a.999.999 0 10-.211 1.989l8.949.95zM87.868 97.282a.999.999 0 10-1.789-.894l1.789.895zm-1.313-1.873c-1.551 3.1-3.03 6.915-3.912 10.84-.88 3.914-1.184 8.01-.313 11.637.88 3.662 2.963 6.841 6.791 8.799 3.785 1.937 9.16 2.62 16.531 1.592l-.276-1.981c-7.158.998-12.067.285-15.344-1.391-3.234-1.655-4.993-4.306-5.757-7.487-.773-3.217-.525-6.978.319-10.73.841-3.742 2.258-7.403 3.75-10.385l-1.789-.894zm19.097 32.868c9.271-1.292 17.814-5.306 25.856-9.904 4.021-2.299 7.944-4.761 11.768-7.108 3.833-2.353 7.573-4.594 11.269-6.486 7.405-3.789 14.514-6.106 21.676-5.143 7.131.959 14.517 5.2 22.411 14.97l1.556-1.256c-8.098-10.024-15.904-14.648-23.701-15.696-7.767-1.044-15.322 1.49-22.853 5.345-3.771 1.93-7.567 4.207-11.404 6.562-3.847 2.361-7.729 4.797-11.715 7.076-7.971 4.557-16.248 8.42-25.139 9.659l.276 1.981zm-19.573-31.89c-1.546 3.093-3.025 6.773-3.89 10.526-.862 3.744-1.13 7.635-.175 11.104.967 3.512 3.176 6.539 7.133 8.491 3.914 1.931 9.47 2.777 17.105 2.137l-.167-1.993c-7.445.624-12.59-.229-16.053-1.938-3.421-1.687-5.267-4.241-6.09-7.228-.834-3.029-.626-6.554.196-10.124.82-3.559 2.233-7.088 3.73-10.08l-1.789-.894zm20.173 32.258c9.366-.785 17.766-4.778 25.541-9.61 3.889-2.418 7.643-5.059 11.288-7.627 3.654-2.574 7.194-5.073 10.694-7.237 7.017-4.34 13.705-7.23 20.529-6.721 6.778.504 13.933 4.385 21.829 14.157l1.556-1.257c-8.096-10.02-15.712-14.335-23.237-14.895-7.48-.556-14.626 2.622-21.729 7.015-3.561 2.202-7.152 4.737-10.794 7.303-3.652 2.573-7.36 5.181-11.192 7.563-7.667 4.766-15.748 8.57-24.652 9.316l.167 1.993z" fill="#7831B2"/></svg>