<svg width="198" height="133" viewBox="0 0 198 133" fill="none" xmlns="http://www.w3.org/2000/svg">
<path d="M54.3747 77.6303C52.3036 57.4471 48.9929 19.2699 51.4133 18.7844C54.4325 18.1789 57.4512 21.1255 64.5109 33.4124C64.8122 33.9368 65.3703 34.2669 65.9739 34.2669H76.734C78.9115 34.2669 78.5564 25.8016 77.725 18.1985C77.5292 16.4082 79.8955 15.5 80.8666 17.015C87.9063 27.998 97.5406 44.3898 100.368 54.1696C100.642 55.1198 101.628 55.6956 102.548 55.3375C114.051 50.8575 127.655 36.442 102.146 9.03703C101.458 8.29802 101.517 7.10266 102.377 6.57615C114.632 -0.920814 147.572 -3.40088 195.43 39.1211C196.682 40.2334 195.712 42.2853 194.06 42.023C180.801 39.9179 160.348 37.1247 153.932 37.9825C144.669 39.2211 142.816 39.8404 152.08 53.4649C155.909 59.0964 158.913 63.8683 161.094 67.5071C162.032 69.0733 160.242 70.5698 158.818 69.43C151.081 63.2378 141.385 55.9425 139.11 55.9425C135.568 55.9425 128.64 49.151 128.036 78.3071C128.004 79.8321 126.052 80.6751 124.805 79.8022C116.94 74.299 104.688 74.719 100.82 109.202C96.4054 148.55 75.3942 120.758 65.2205 101.569C65.0737 101.292 64.8601 101.061 64.5785 100.925C62.4286 99.885 59.2645 99.9966 57.0572 104.283C56.1323 106.079 50.7465 106.495 49.9102 104.656C46.7375 97.6801 42.8905 95.8574 39.7875 111.468M54.3747 77.6303C30.2332 86.9575 29.7316 57.0973 33.4897 37.343C33.7413 36.0201 32.4192 34.9397 31.1917 35.4862C-10.7952 54.1794 2.41878 103.018 16.5355 129.669C17.3196 131.149 19.4796 130.603 19.574 128.93C22.1101 83.9821 30.4497 95.4523 36.0174 111.744C36.6122 113.485 39.4288 113.272 39.7875 111.468M54.3747 77.6303C54.4503 78.3666 55.0635 77.3642 54.3747 77.6303ZM39.7875 111.468C43.0293 95.7292 47.4496 96.411 50.8246 104.476C51.6046 106.34 56.712 105.873 57.7518 104.142C59.5488 101.149 62.0103 101.723 63.9641 102.775C64.2395 102.924 64.4544 103.152 64.6012 103.429C74.775 122.617 95.7861 150.41 100.201 111.061C104.064 76.6262 116.67 74.6489 124.636 79.7317C125.92 80.5505 127.891 79.6908 127.918 78.1657C128.447 48.9012 134.529 54.5614 138.072 54.5614C140.365 54.5614 151.119 62.5278 159.303 69.0026C160.734 70.1343 161.826 69.094 160.678 67.6753C158.253 64.6799 155.093 60.6667 151.46 55.3247C139.993 38.4597 143.63 39.079 152.894 37.8404C159.314 36.9821 180.254 39.5473 193.636 41.5909C195.29 41.8434 196.261 39.7824 195.008 38.6709C147.098 -3.84221 113.351 -1.08858 101.03 6.43407C100.169 6.95981 100.11 8.15367 100.798 8.89311C126.331 36.3578 113.365 52.5344 101.923 57.1841C101.009 57.5557 100.023 56.9771 99.7724 56.0202C96.7248 44.3739 87.3045 25.4507 81.4734 18.6422C75.3342 11.474 79.2909 34.4334 77.8572 34.4334C76.5648 34.4334 68.8268 35.8092 65.3533 36.0805C64.7515 36.1275 64.1931 35.7976 63.8932 35.2723C56.8275 22.8979 53.702 18.0367 50.6826 18.6422C48.2624 19.1276 51.8688 55.0599 53.952 75.1533C54.0283 75.8896 53.5891 76.594 52.9015 76.863C28.7662 86.3069 29.1308 58.571 32.8653 39.2046C33.1203 37.8824 31.7991 36.7991 30.5702 37.3422C-11.4136 55.8958 1.41814 101.696 15.4846 127.984C16.2749 129.461 18.4426 128.913 18.5393 127.24C21.0684 83.5 30.3393 93.0463 36.1455 109.147C36.7695 110.877 39.4163 113.269 39.7875 111.468ZM63.8931 48.4818C60.046 53.285 55.3832 63.1025 64.3836 68.3277C75.764 74.9345 73.2026 49.5031 65.1503 47.9635C64.6701 47.8717 64.1992 48.0996 63.8931 48.4818ZM79.8212 42.9373C83.9385 44.1759 90.9378 49.378 85.9971 60.2776C79.8212 73.9021 69.9398 38.6022 79.8212 42.9373ZM63.2689 50.3421C59.4218 55.1453 54.759 64.9628 63.7594 70.188C75.1398 76.7948 72.5785 51.3634 64.5261 49.8238C64.046 49.732 63.575 49.9599 63.2689 50.3421ZM79.2036 44.7969C83.3209 46.0354 90.3202 51.2375 85.3795 62.1372C79.2036 75.7617 69.3222 40.4618 79.2036 44.7969Z" stroke="#A68AD5" stroke-width="3"/>
</svg>
