<svg width="510" height="336" viewBox="0 0 510 336" fill="none" xmlns="http://www.w3.org/2000/svg">
<path d="M439.177 235.082L439.71 190.985L436.248 194.23L435.716 238.326L439.177 235.082Z" fill="#7831B2"/>
<path d="M473.444 292.28L454.004 37.9617L450.29 41.4436L469.729 295.761L473.444 292.28Z" fill="#7831B2"/>
<path d="M453.23 36.237C291.735 -10.7298 98.0648 22.9309 21.0413 44.7733L17.6667 47.219C94.6902 25.3766 288.771 -5.53026 450.266 41.4365L453.23 36.237Z" fill="#7831B2"/>
<path d="M37.0367 299.056C237.15 359.738 411.352 319.82 473.438 292.276L468.944 297.124C406.858 324.668 233.305 363.529 33.1917 302.847L37.0367 299.056Z" fill="#7831B2"/>
<path d="M21.0413 47.219L36.9942 299.046L32.2422 301.527L17.6667 47.219L21.0413 47.219Z" fill="#7831B2"/>
<path d="M496.502 1.00039L477.034 10.0689L473.572 13.3131L493.041 4.24458L496.502 1.00039Z" fill="#7831B2"/>
<path d="M499.613 12.6494L482.62 17.1031L479.159 20.3473L496.152 15.8936L499.613 12.6494Z" fill="#7831B2"/>
<path d="M13.4171 312.46L12.7504 312.971L9.28905 316.215L9.95571 315.704L13.4171 312.46Z" fill="#7831B2"/>
<path d="M12.7563 312.971L5.13384 318.813L1.67246 322.057L9.29487 316.215L12.7563 312.971Z" fill="#7831B2"/>
<path d="M5.12805 318.816L4.46138 319.327L1 322.571L1.66666 322.06L5.12805 318.816Z" fill="#7831B2"/>
<path d="M507.978 320.232L495.973 312.362L492.512 315.606L504.516 323.476L507.978 320.232Z" fill="#7831B2"/>
<path d="M437.241 194.235C437.248 193.682 436.806 193.229 436.253 193.223C435.701 193.216 435.248 193.658 435.241 194.21L437.241 194.235ZM434.709 238.307C434.702 238.859 435.145 239.312 435.697 239.319C436.249 239.325 436.702 238.883 436.709 238.331L434.709 238.307ZM439.71 190.985L440.709 190.997L440.738 188.651L439.026 190.256L439.71 190.985ZM439.177 235.082L439.861 235.811L440.172 235.52L440.177 235.094L439.177 235.082ZM435.716 238.326L434.716 238.314L434.688 240.66L436.4 239.055L435.716 238.326ZM436.248 194.23L435.564 193.5L435.253 193.791L435.248 194.217L436.248 194.23ZM427.502 259.172C427.099 259.549 427.079 260.182 427.457 260.585C427.834 260.988 428.467 261.009 428.87 260.631L427.502 259.172ZM436.213 253.749C436.616 253.371 436.636 252.738 436.259 252.335C435.881 251.932 435.248 251.912 434.845 252.29L436.213 253.749ZM439.661 250.501C440.064 250.123 440.085 249.49 439.707 249.087C439.329 248.684 438.697 248.664 438.294 249.041L439.661 250.501ZM431.161 255.727C430.758 256.104 430.737 256.737 431.115 257.14C431.493 257.543 432.126 257.563 432.529 257.186L431.161 255.727ZM435.995 253.945C436.398 253.567 436.418 252.934 436.04 252.531C435.663 252.128 435.03 252.108 434.627 252.486L435.995 253.945ZM427.494 259.171C427.091 259.548 427.071 260.181 427.448 260.584C427.826 260.987 428.459 261.008 428.862 260.63L427.494 259.171ZM454.004 37.9617L455.002 37.8855L454.843 35.8057L453.321 37.2321L454.004 37.9617ZM473.444 292.28L474.128 293.009L474.478 292.681L474.441 292.203L473.444 292.28ZM469.729 295.761L468.732 295.838L468.891 297.917L470.413 296.491L469.729 295.761ZM450.29 41.4436L449.606 40.7139L449.256 41.0418L449.292 41.5198L450.29 41.4436ZM21.0413 44.7733L20.7684 43.8112L20.5979 43.8596L20.4544 43.9636L21.0413 44.7733ZM453.23 36.237L454.099 36.7323L454.727 35.6309L453.509 35.2768L453.23 36.237ZM450.266 41.4365L449.986 42.3968L450.744 42.617L451.134 41.9318L450.266 41.4365ZM17.6667 47.219L17.0798 46.4092L16.637 46.7302L16.6683 47.2762L17.6667 47.219ZM473.438 292.276L474.172 292.956L473.033 291.362L473.438 292.276ZM37.0367 299.056L37.3269 298.099L36.7579 297.926L36.3346 298.344L37.0367 299.056ZM33.1917 302.847L32.4895 302.135L31.2919 303.316L32.9015 303.804L33.1917 302.847ZM468.944 297.124L469.35 298.038L469.538 297.955L469.678 297.804L468.944 297.124ZM36.9942 299.046L37.4569 299.932L38.0333 299.632L37.9922 298.983L36.9942 299.046ZM21.0413 47.219L22.0393 47.1557L21.9799 46.219L21.0413 46.219L21.0413 47.219ZM32.2422 301.527L31.2439 301.584L31.3325 303.13L32.705 302.413L32.2422 301.527ZM473.184 12.4143C472.683 12.6475 472.467 13.2424 472.7 13.7431C472.933 14.2437 473.528 14.4605 474.028 14.2273L473.184 12.4143ZM493.497 5.15879C493.998 4.9256 494.214 4.3307 493.981 3.83007C493.748 3.32943 493.153 3.11263 492.652 3.34583L493.497 5.15879ZM477.034 10.0689L476.612 9.16242L476.467 9.22993L476.35 9.33927L477.034 10.0689ZM496.502 1.00039L497.186 1.73002L496.08 0.0939066L496.502 1.00039ZM493.041 4.24458L493.463 5.15107L493.608 5.08355L493.725 4.97421L493.041 4.24458ZM473.572 13.3131L472.889 12.5835L473.995 14.2196L473.572 13.3131ZM476.622 9.16203C476.121 9.39523 475.905 9.99012 476.138 10.4908C476.371 10.9914 476.966 11.2082 477.466 10.975L476.622 9.16203ZM496.935 1.90648C497.436 1.67328 497.652 1.07839 497.419 0.577756C497.186 0.0771198 496.591 -0.139681 496.09 0.0935174L496.935 1.90648ZM478.883 19.3719C478.349 19.5119 478.029 20.0585 478.169 20.5927C478.309 21.127 478.856 21.4465 479.39 21.3065L478.883 19.3719ZM496.383 16.8529C496.917 16.7128 497.237 16.1663 497.097 15.632C496.957 15.0978 496.41 14.7782 495.876 14.9182L496.383 16.8529ZM482.62 17.1031L482.367 16.1357L482.121 16.2L481.936 16.3734L482.62 17.1031ZM499.613 12.6494L500.297 13.379L499.359 11.6821L499.613 12.6494ZM496.152 15.8936L496.405 16.8609L496.65 16.7966L496.835 16.6232L496.152 15.8936ZM479.159 20.3473L478.475 19.6176L479.412 21.3146L479.159 20.3473ZM482.349 16.1286C481.814 16.2686 481.495 16.8152 481.635 17.3494C481.775 17.8837 482.321 18.2033 482.856 18.0632L482.349 16.1286ZM499.849 13.6096C500.383 13.4696 500.702 12.923 500.562 12.3887C500.422 11.8545 499.876 11.5349 499.341 11.6749L499.849 13.6096ZM0.422936 321.787C-0.0154087 322.123 -0.0984034 322.751 0.237562 323.189C0.573527 323.628 1.20123 323.711 1.63957 323.375L0.422936 321.787ZM10.5953 316.511C11.0337 316.175 11.1167 315.547 10.7807 315.109C10.4447 314.67 9.81702 314.587 9.37868 314.923L10.5953 316.511ZM12.7504 312.971L12.1421 312.177L12.1028 312.207L12.0666 312.241L12.7504 312.971ZM13.4171 312.46L14.1009 313.189L12.8088 311.666L13.4171 312.46ZM9.95571 315.704L10.564 316.498L10.6034 316.467L10.6396 316.434L9.95571 315.704ZM9.28905 316.215L8.6052 315.485L9.89737 317.009L9.28905 316.215ZM5.13384 318.813L4.52552 318.019L4.48617 318.05L4.45 318.083L5.13384 318.813ZM12.7563 312.971L13.4401 313.701L12.1479 312.177L12.7563 312.971ZM9.29487 316.215L9.90319 317.009L9.94254 316.979L9.97871 316.945L9.29487 316.215ZM1.67246 322.057L0.988614 321.328L2.28078 322.851L1.67246 322.057ZM4.46138 319.327L3.85306 318.533L3.81371 318.563L3.77754 318.597L4.46138 319.327ZM5.12805 318.816L5.81189 319.546L4.51973 318.022L5.12805 318.816ZM1.66666 322.06L2.27497 322.854L2.31433 322.824L2.35051 322.79L1.66666 322.06ZM1 322.571L0.316156 321.841L1.60831 323.365L1 322.571ZM3.86105 318.535C3.4227 318.871 3.33971 319.498 3.67568 319.937C4.01164 320.375 4.63934 320.458 5.07769 320.122L3.86105 318.535ZM14.0334 313.258C14.4718 312.922 14.5548 312.294 14.2188 311.856C13.8828 311.418 13.2551 311.335 12.8168 311.671L14.0334 313.258ZM493.051 314.768C492.589 314.465 491.969 314.594 491.667 315.056C491.364 315.518 491.493 316.138 491.955 316.441L493.051 314.768ZM503.959 324.311C504.421 324.614 505.041 324.485 505.344 324.023C505.646 323.561 505.517 322.942 505.056 322.639L503.959 324.311ZM495.973 312.362L496.521 311.525L495.863 311.094L495.289 311.632L495.973 312.362ZM507.978 320.232L508.661 320.962L509.589 320.093L508.526 319.396L507.978 320.232ZM504.516 323.476L503.968 324.313L504.626 324.744L505.2 324.206L504.516 323.476ZM492.512 315.606L491.828 314.876L490.901 315.745L491.963 316.442L492.512 315.606ZM496.544 311.533C496.082 311.231 495.462 311.36 495.159 311.821C494.856 312.283 494.985 312.903 495.447 313.206L496.544 311.533ZM507.452 321.077C507.914 321.379 508.533 321.25 508.836 320.789C509.139 320.327 509.01 319.707 508.548 319.404L507.452 321.077ZM435.241 194.21L434.709 238.307L436.709 238.331L437.241 194.235L435.241 194.21ZM438.71 190.973L438.177 235.07L440.177 235.094L440.709 190.997L438.71 190.973ZM438.494 234.352L435.032 237.596L436.4 239.055L439.861 235.811L438.494 234.352ZM436.716 238.338L437.248 194.242L435.248 194.217L434.716 238.314L436.716 238.338ZM436.932 194.959L440.393 191.715L439.026 190.256L435.564 193.5L436.932 194.959ZM438.707 190.967L438.175 235.063L440.174 235.088L440.707 190.991L438.707 190.967ZM432.336 257.386L439.679 250.504L438.311 249.045L430.969 255.927L432.336 257.386ZM428.87 260.631L436.213 253.749L434.845 252.29L427.502 259.172L428.87 260.631ZM432.529 257.186L439.661 250.501L438.294 249.041L431.161 255.727L432.529 257.186ZM428.862 260.63L435.995 253.945L434.627 252.486L427.494 259.171L428.862 260.63ZM453.007 38.038L472.447 292.356L474.441 292.203L455.002 37.8855L453.007 38.038ZM472.76 291.55L469.045 295.032L470.413 296.491L474.128 293.009L472.76 291.55ZM470.726 295.685L451.287 41.3674L449.292 41.5198L468.732 295.838L470.726 295.685ZM450.973 42.1732L454.688 38.6914L453.321 37.2321L449.606 40.7139L450.973 42.1732ZM21.3141 45.7353C98.2629 23.9142 291.719 -9.69316 452.951 37.1973L453.509 35.2768C291.752 -11.7664 97.8667 21.9477 20.7684 43.8112L21.3141 45.7353ZM452.361 35.7417L449.397 40.9413L451.134 41.9318L454.099 36.7323L452.361 35.7417ZM450.545 40.4763C288.796 -6.56425 94.5066 24.3892 17.3938 46.2569L17.9395 48.181C94.8738 26.364 288.745 -4.49628 449.986 42.3968L450.545 40.4763ZM18.2535 48.0287L21.6281 45.583L20.4544 43.9636L17.0798 46.4092L18.2535 48.0287ZM473.033 291.362C411.146 318.817 237.191 358.705 37.3269 298.099L36.7465 300.013C237.109 360.77 411.558 320.823 473.844 293.19L473.033 291.362ZM36.3346 298.344L32.4895 302.135L33.8938 303.559L37.7388 299.768L36.3346 298.344ZM32.9015 303.804C233.26 364.56 407.059 325.673 469.35 298.038L468.539 296.21C406.656 323.664 233.35 362.498 33.4818 301.89L32.9015 303.804ZM469.678 297.804L474.172 292.956L472.705 291.596L468.211 296.444L469.678 297.804ZM37.9922 298.983L22.0393 47.1557L20.0433 47.2822L35.9962 299.109L37.9922 298.983ZM21.0413 46.219L17.6667 46.219L17.6667 48.219L21.0413 48.219L21.0413 46.219ZM16.6683 47.2762L31.2439 301.584L33.2406 301.469L18.665 47.1617L16.6683 47.2762ZM32.705 302.413L37.4569 299.932L36.5314 298.159L31.7795 300.64L32.705 302.413ZM474.028 14.2273L493.497 5.15879L492.652 3.34583L473.184 12.4143L474.028 14.2273ZM477.456 10.9754L496.925 1.90687L496.08 0.0939066L476.612 9.16242L477.456 10.9754ZM495.818 0.270761L492.357 3.51496L493.725 4.97421L497.186 1.73002L495.818 0.270761ZM492.619 3.3381L473.15 12.4066L473.995 14.2196L493.463 5.15107L492.619 3.3381ZM474.256 14.0427L477.718 10.7985L476.35 9.33927L472.889 12.5835L474.256 14.0427ZM477.466 10.975L496.935 1.90648L496.09 0.0935174L476.622 9.16203L477.466 10.975ZM479.39 21.3065L496.383 16.8529L495.876 14.9182L478.883 19.3719L479.39 21.3065ZM482.874 18.0704L499.867 13.6167L499.359 11.6821L482.367 16.1357L482.874 18.0704ZM498.929 11.9198L495.468 15.164L496.835 16.6232L500.297 13.379L498.929 11.9198ZM495.898 14.9263L478.905 19.3799L479.412 21.3146L496.405 16.8609L495.898 14.9263ZM479.843 21.0769L483.304 17.8327L481.936 16.3734L478.475 19.6176L479.843 21.0769ZM482.856 18.0632L499.849 13.6096L499.341 11.6749L482.349 16.1286L482.856 18.0632ZM13.3587 313.764L14.0254 313.254L12.8088 311.666L12.1421 312.177L13.3587 313.764ZM12.7332 311.73L9.27187 314.974L10.6396 316.434L14.1009 313.189L12.7332 311.73ZM9.34739 314.91L8.68072 315.421L9.89737 317.009L10.564 316.498L9.34739 314.91ZM9.97289 316.945L13.4343 313.7L12.0666 312.241L8.6052 315.485L9.97289 316.945ZM5.74216 319.607L13.3646 313.765L12.1479 312.177L4.52552 318.019L5.74216 319.607ZM12.0724 312.241L8.61102 315.485L9.97871 316.945L13.4401 313.701L12.0724 312.241ZM8.68655 315.421L1.06414 321.264L2.28078 322.851L9.90319 317.009L8.68655 315.421ZM2.3563 322.787L5.81768 319.543L4.45 318.083L0.988614 321.328L2.3563 322.787ZM5.06971 320.121L5.73637 319.61L4.51973 318.022L3.85306 318.533L5.06971 320.121ZM4.4442 318.086L0.982818 321.33L2.35051 322.79L5.81189 319.546L4.4442 318.086ZM1.05836 321.266L0.391694 321.777L1.60831 323.365L2.27497 322.854L1.05836 321.266ZM1.68384 323.301L5.14523 320.056L3.77754 318.597L0.316156 321.841L1.68384 323.301ZM5.07769 320.122L14.0334 313.258L12.8168 311.671L3.86105 318.535L5.07769 320.122ZM1.63957 323.375L10.5953 316.511L9.37868 314.923L0.422936 321.787L1.63957 323.375ZM491.955 316.441L503.959 324.311L505.056 322.639L493.051 314.768L491.955 316.441ZM495.425 313.198L507.429 321.068L508.526 319.396L496.521 311.525L495.425 313.198ZM507.294 319.502L503.832 322.747L505.2 324.206L508.661 320.962L507.294 319.502ZM505.064 322.64L493.06 314.769L491.963 316.442L503.968 324.313L505.064 322.64ZM493.196 316.335L496.657 313.091L495.289 311.632L491.828 314.876L493.196 316.335ZM495.447 313.206L507.452 321.077L508.548 319.404L496.544 311.533L495.447 313.206Z" fill="#7831B2"/>
</svg>
