<svg width="664" height="354" viewBox="0 0 664 354" fill="none" xmlns="http://www.w3.org/2000/svg">
<path d="M582.644 227.697L583.35 181.224L578.755 184.643L578.049 231.116L582.644 227.697Z" fill="#7831B2"/>
<path d="M628.13 307.977L602.325 39.9537L597.394 43.6232L623.199 311.647L628.13 307.977Z" fill="#7831B2"/>
<path d="M601.297 38.136C386.926 -11.3619 129.845 24.1128 27.6031 47.1323L23.1236 49.7098C125.366 26.6903 382.992 -5.88219 597.362 43.6158L601.297 38.136Z" fill="#7831B2"/>
<path d="M48.8357 315.119C314.469 379.071 545.708 337.002 628.122 307.973L622.157 313.083C539.742 342.112 309.366 383.067 43.7317 319.115L48.8357 315.119Z" fill="#7831B2"/>
<path d="M27.6031 49.7098L48.7793 315.108L42.4714 317.723L23.1236 49.7098L27.6031 49.7098Z" fill="#7831B2"/>
<path d="M658.738 1.00041L632.895 10.5576L628.3 13.9767L654.143 4.41944L658.738 1.00041Z" fill="#7831B2"/>
<path d="M662.867 13.2772L640.31 17.9709L635.716 21.3899L658.272 16.6962L662.867 13.2772Z" fill="#7831B2"/>
<path d="M17.4827 329.245L16.5977 329.784L12.003 333.203L12.888 332.664L17.4827 329.245Z" fill="#7831B2"/>
<path d="M16.6054 329.784L6.48733 335.941L1.89263 339.36L12.0107 333.203L16.6054 329.784Z" fill="#7831B2"/>
<path d="M6.47964 335.944L5.5947 336.482L1 339.901L1.88494 339.363L6.47964 335.944Z" fill="#7831B2"/>
<path d="M653.97 327.436L638.035 319.142L633.441 322.561L649.376 330.855L653.97 327.436Z" fill="#7831B2"/>
<path d="M579.246 204.649C579.253 204.373 579.036 204.143 578.76 204.136C578.484 204.128 578.254 204.346 578.246 204.622L579.246 204.649ZM577.54 231.095C577.533 231.371 577.75 231.601 578.026 231.608C578.303 231.616 578.532 231.398 578.54 231.122L577.54 231.095ZM583.35 181.224L583.85 181.232L583.865 180.217L583.052 180.823L583.35 181.224ZM582.644 227.697L582.942 228.098L583.14 227.951L583.144 227.704L582.644 227.697ZM578.049 231.116L577.549 231.108L577.534 232.123L578.347 231.517L578.049 231.116ZM578.755 184.643L578.457 184.242L578.259 184.389L578.255 184.635L578.755 184.643ZM602.325 39.9537L602.823 39.9058L602.738 39.0233L602.027 39.5526L602.325 39.9537ZM628.13 307.977L628.428 308.378L628.654 308.21L628.627 307.929L628.13 307.977ZM623.199 311.647L622.701 311.695L622.786 312.577L623.497 312.048L623.199 311.647ZM597.394 43.6232L597.096 43.222L596.869 43.3904L596.896 43.6711L597.394 43.6232ZM27.6031 47.1323L27.4933 46.6445L27.4194 46.6612L27.3537 46.6989L27.6031 47.1323ZM601.297 38.136L601.704 38.4277L602.142 37.8178L601.41 37.6489L601.297 38.136ZM597.362 43.6158L597.25 44.1029L597.574 44.1778L597.769 43.9074L597.362 43.6158ZM23.1236 49.7098L22.8742 49.2764L22.6023 49.4329L22.6249 49.7458L23.1236 49.7098ZM628.122 307.973L628.448 308.353L627.956 307.502L628.122 307.973ZM48.8357 315.119L48.9527 314.633L48.7178 314.576L48.5275 314.725L48.8357 315.119ZM43.7317 319.115L43.4235 318.721L42.609 319.358L43.6147 319.601L43.7317 319.115ZM622.157 313.083L622.323 313.555L622.411 313.523L622.482 313.463L622.157 313.083ZM48.7793 315.108L48.9707 315.57L49.3066 315.431L49.2777 315.069L48.7793 315.108ZM27.6031 49.7098L28.1015 49.67L28.0648 49.2098L27.6031 49.2098L27.6031 49.7098ZM42.4714 317.723L41.9727 317.759L42.0226 318.45L42.6629 318.185L42.4714 317.723ZM628.172 13.5159C627.913 13.6116 627.78 13.8992 627.876 14.1582C627.972 14.4172 628.26 14.5496 628.518 14.4538L628.172 13.5159ZM654.361 4.89654C654.62 4.80076 654.753 4.51315 654.657 4.25415C654.561 3.99516 654.273 3.86284 654.014 3.95863L654.361 4.89654ZM632.895 10.5576L632.722 10.0887L632.654 10.1136L632.596 10.1565L632.895 10.5576ZM658.738 1.00041L659.036 1.40154L658.564 0.531452L658.738 1.00041ZM654.143 4.41944L654.316 4.8884L654.384 4.86347L654.442 4.82057L654.143 4.41944ZM628.3 13.9767L628.002 13.5755L628.474 14.4456L628.3 13.9767ZM632.735 10.0883C632.476 10.1841 632.344 10.4717 632.44 10.7307C632.536 10.9897 632.823 11.122 633.082 11.0262L632.735 10.0883ZM658.925 1.46896C659.184 1.37317 659.316 1.08557 659.221 0.826569C659.125 0.567571 658.837 0.435258 658.578 0.531042L658.925 1.46896ZM635.585 20.8919C635.314 20.9482 635.141 21.2129 635.197 21.4833C635.253 21.7536 635.518 21.9272 635.788 21.8709L635.585 20.8919ZM658.345 17.1773C658.615 17.121 658.789 16.8562 658.733 16.5859C658.676 16.3155 658.412 16.142 658.141 16.1982L658.345 17.1773ZM640.31 17.9709L640.208 17.4814L640.1 17.5039L640.012 17.5698L640.31 17.9709ZM662.867 13.2772L663.165 13.6783L662.765 12.7877L662.867 13.2772ZM658.272 16.6962L658.374 17.1858L658.482 17.1633L658.571 17.0974L658.272 16.6962ZM635.716 21.3899L635.417 20.9888L635.817 21.8794L635.716 21.3899ZM640.185 17.4739C639.914 17.5301 639.741 17.7949 639.797 18.0652C639.853 18.3356 640.118 18.5091 640.388 18.4529L640.185 17.4739ZM662.945 13.7592C663.215 13.7029 663.389 13.4382 663.333 13.1678C663.276 12.8975 663.012 12.7239 662.741 12.7802L662.945 13.7592ZM0.781572 339.485C0.545672 339.628 0.470806 339.936 0.614353 340.172C0.757901 340.408 1.0655 340.482 1.3014 340.339L0.781572 339.485ZM13.1894 333.105C13.4253 332.961 13.5002 332.654 13.3566 332.418C13.2131 332.182 12.9055 332.107 12.6696 332.251L13.1894 333.105ZM16.5977 329.784L16.3378 329.356L16.3179 329.368L16.2992 329.382L16.5977 329.784ZM17.4827 329.245L17.7811 329.646L17.2227 328.818L17.4827 329.245ZM12.888 332.664L13.1479 333.091L13.1678 333.079L13.1864 333.065L12.888 332.664ZM12.003 333.203L11.7045 332.801L12.2629 333.63L12.003 333.203ZM6.48733 335.941L6.22741 335.514L6.20752 335.526L6.18884 335.54L6.48733 335.941ZM16.6054 329.784L16.9039 330.185L16.3455 329.357L16.6054 329.784ZM12.0107 333.203L12.2707 333.63L12.2906 333.618L12.3092 333.604L12.0107 333.203ZM1.89263 339.36L1.59414 338.959L2.15255 339.787L1.89263 339.36ZM5.5947 336.482L5.33477 336.055L5.31489 336.067L5.29621 336.081L5.5947 336.482ZM6.47964 335.944L6.77813 336.345L6.21972 335.517L6.47964 335.944ZM1.88494 339.363L2.14485 339.79L2.16475 339.778L2.18343 339.764L1.88494 339.363ZM1 339.901L0.701512 339.5L1.25991 340.328L1 339.901ZM5.34538 336.057C5.10948 336.2 5.03461 336.508 5.17816 336.744C5.32171 336.98 5.62931 337.054 5.86521 336.911L5.34538 336.057ZM17.7532 329.677C17.9891 329.533 18.064 329.226 17.9204 328.99C17.7769 328.754 17.4693 328.679 17.2334 328.823L17.7532 329.677ZM633.66 322.116C633.415 321.988 633.113 322.083 632.985 322.328C632.858 322.573 632.953 322.875 633.198 323.003L633.66 322.116ZM649.133 331.297C649.378 331.425 649.68 331.33 649.807 331.085C649.935 330.84 649.84 330.538 649.595 330.41L649.133 331.297ZM638.035 319.142L638.266 318.698L637.988 318.553L637.737 318.74L638.035 319.142ZM653.97 327.436L654.269 327.837L654.909 327.361L654.201 326.993L653.97 327.436ZM649.376 330.855L649.145 331.299L649.423 331.443L649.674 331.256L649.376 330.855ZM633.441 322.561L633.142 322.159L632.502 322.636L633.21 323.004L633.441 322.561ZM638.296 318.707C638.051 318.579 637.749 318.674 637.622 318.919C637.494 319.164 637.589 319.466 637.834 319.594L638.296 318.707ZM653.769 327.888C654.014 328.016 654.316 327.921 654.443 327.676C654.571 327.431 654.476 327.129 654.231 327.001L653.769 327.888ZM582.993 184.454L582.496 184.4L582.493 184.425L582.493 184.45L582.993 184.454ZM578.246 204.622L577.54 231.095L578.54 231.122L579.246 204.649L578.246 204.622ZM582.85 181.216L582.144 227.689L583.144 227.704L583.85 181.232L582.85 181.216ZM582.345 227.296L577.751 230.715L578.347 231.517L582.942 228.098L582.345 227.296ZM578.549 231.123L579.255 184.651L578.255 184.635L577.549 231.108L578.549 231.123ZM579.054 185.044L583.649 181.625L583.052 180.823L578.457 184.242L579.054 185.044ZM601.828 40.0016L627.632 308.025L628.627 307.929L602.823 39.9058L601.828 40.0016ZM627.831 307.576L622.9 311.246L623.497 312.048L628.428 308.378L627.831 307.576ZM623.696 311.599L597.892 43.5753L596.896 43.6711L622.701 311.695L623.696 311.599ZM597.693 44.0243L602.624 40.3548L602.027 39.5526L597.096 43.222L597.693 44.0243ZM27.7129 47.6201C129.924 24.6076 386.92 -10.8503 601.185 38.6232L601.41 37.6489C386.933 -11.8736 129.767 23.618 27.4933 46.6445L27.7129 47.6201ZM600.891 37.8444L596.956 43.3241L597.769 43.9074L601.704 38.4277L600.891 37.8444ZM597.475 43.1286C383.002 -6.393 125.293 26.1942 23.0138 49.222L23.2334 50.1976C125.439 27.1864 382.981 -5.37138 597.25 44.1029L597.475 43.1286ZM23.373 50.1432L27.8525 47.5657L27.3537 46.6989L22.8742 49.2764L23.373 50.1432ZM627.956 307.502C545.626 336.5 314.486 378.561 48.9527 314.633L48.7187 315.605C314.453 379.581 545.789 337.503 628.289 308.445L627.956 307.502ZM48.5275 314.725L43.4235 318.721L44.0399 319.508L49.1439 315.512L48.5275 314.725ZM43.6147 319.601C309.347 383.577 539.822 342.614 622.323 313.555L621.991 312.611C539.662 341.609 309.384 382.557 43.8488 318.628L43.6147 319.601ZM622.482 313.463L628.448 308.353L627.797 307.593L621.832 312.703L622.482 313.463ZM49.2777 315.069L28.1015 49.67L27.1047 49.7496L48.2808 315.148L49.2777 315.069ZM27.6031 49.2098L23.1236 49.2098L23.1236 50.2098L27.6031 50.2098L27.6031 49.2098ZM22.6249 49.7458L41.9727 317.759L42.9701 317.687L23.6223 49.6738L22.6249 49.7458ZM42.6629 318.185L48.9707 315.57L48.5878 314.646L42.28 317.261L42.6629 318.185ZM628.518 14.4538L654.361 4.89654L654.014 3.95863L628.172 13.5159L628.518 14.4538ZM633.068 11.0266L658.911 1.46937L658.564 0.531452L632.722 10.0887L633.068 11.0266ZM658.439 0.599283L653.845 4.01831L654.442 4.82057L659.036 1.40154L658.439 0.599283ZM653.97 3.95048L628.127 13.5077L628.474 14.4456L654.316 4.8884L653.97 3.95048ZM628.599 14.3778L633.193 10.9588L632.596 10.1565L628.002 13.5755L628.599 14.3778ZM633.082 11.0262L658.925 1.46896L658.578 0.531042L632.735 10.0883L633.082 11.0262ZM635.788 21.8709L658.345 17.1773L658.141 16.1982L635.585 20.8919L635.788 21.8709ZM640.412 18.4604L662.969 13.7667L662.765 12.7877L640.208 17.4814L640.412 18.4604ZM662.569 12.8761L657.974 16.2951L658.571 17.0974L663.165 13.6783L662.569 12.8761ZM658.17 16.2067L635.614 20.9004L635.817 21.8794L658.374 17.1858L658.17 16.2067ZM636.014 21.7911L640.609 18.372L640.012 17.5698L635.417 20.9888L636.014 21.7911ZM640.388 18.4529L662.945 13.7592L662.741 12.7802L640.185 17.4739L640.388 18.4529ZM16.8576 330.211L17.7426 329.672L17.2227 328.818L16.3378 329.356L16.8576 330.211ZM17.1842 328.844L12.5895 332.263L13.1864 333.065L17.7811 329.646L17.1842 328.844ZM12.628 332.237L11.7431 332.775L12.2629 333.63L13.1479 333.091L12.628 332.237ZM12.3015 333.604L16.8962 330.185L16.2992 329.382L11.7045 332.801L12.3015 333.604ZM6.74724 336.368L16.8654 330.211L16.3455 329.357L6.22741 335.514L6.74724 336.368ZM16.3069 329.383L11.7123 332.802L12.3092 333.604L16.9039 330.185L16.3069 329.383ZM11.7508 332.776L1.63272 338.933L2.15255 339.787L12.2707 333.63L11.7508 332.776ZM2.19112 339.761L6.78581 336.342L6.18884 335.54L1.59414 338.959L2.19112 339.761ZM5.85462 336.909L6.73956 336.371L6.21972 335.517L5.33477 336.055L5.85462 336.909ZM6.18115 335.543L1.58645 338.962L2.18343 339.764L6.77813 336.345L6.18115 335.543ZM1.62503 338.936L0.740089 339.474L1.25991 340.328L2.14485 339.79L1.62503 338.936ZM1.29849 340.302L5.89318 336.883L5.29621 336.081L0.701512 339.5L1.29849 340.302ZM5.86521 336.911L17.7532 329.677L17.2334 328.823L5.34538 336.057L5.86521 336.911ZM1.3014 340.339L13.1894 333.105L12.6696 332.251L0.781572 339.485L1.3014 340.339ZM633.198 323.003L649.133 331.297L649.595 330.41L633.66 322.116L633.198 323.003ZM637.804 319.585L653.739 327.88L654.201 326.993L638.266 318.698L637.804 319.585ZM653.672 327.035L649.077 330.454L649.674 331.256L654.269 327.837L653.672 327.035ZM649.606 330.412L633.671 322.117L633.21 323.004L649.145 331.299L649.606 330.412ZM633.739 322.962L638.334 319.543L637.737 318.74L633.142 322.159L633.739 322.962ZM637.834 319.594L653.769 327.888L654.231 327.001L638.296 318.707L637.834 319.594ZM582.849 181.163L582.496 184.4L583.49 184.508L583.843 181.272L582.849 181.163ZM582.493 184.45L582.14 227.686L583.14 227.694L583.493 184.458L582.493 184.45Z" fill="#7831B2"/>
</svg>
