<svg width="664" height="354" viewBox="0 0 664 354" fill="none" xmlns="http://www.w3.org/2000/svg">
<path d="M582.761 227.697L583.467 181.224L578.872 184.643L578.165 231.116L582.761 227.697Z" fill="#FFFCFF"/>
<path d="M628.256 307.977L602.446 39.9537L597.514 43.6232L623.324 311.647L628.256 307.977Z" fill="#FFFCFF"/>
<path d="M601.418 38.136C387.004 -11.3619 129.871 24.1128 27.6084 47.1323L23.128 49.7098C125.391 26.6903 383.068 -5.88219 597.482 43.6158L601.418 38.136Z" fill="#FFFCFF"/>
<path d="M48.8453 315.119C314.532 379.071 545.817 337.002 628.248 307.973L622.282 313.083C539.85 342.112 309.427 383.067 43.7403 319.115L48.8453 315.119Z" fill="#FFFCFF"/>
<path d="M27.6084 49.7098L48.7889 315.108L42.4798 317.723L23.128 49.7098L27.6084 49.7098Z" fill="#FFFCFF"/>
<path d="M658.87 1.00041L633.022 10.5576L628.426 13.9767L654.274 4.41944L658.87 1.00041Z" fill="#FFFCFF"/>
<path d="M663 13.2772L640.439 17.9709L635.843 21.3899L658.404 16.6962L663 13.2772Z" fill="#FFFCFF"/>
<path d="M17.486 329.245L16.6008 329.784L12.0052 333.203L12.8903 332.664L17.486 329.245Z" fill="#FFFCFF"/>
<path d="M16.6086 329.784L6.48843 335.941L1.89281 339.36L12.013 333.203L16.6086 329.784Z" fill="#FFFCFF"/>
<path d="M6.48074 335.944L5.59562 336.482L1 339.901L1.88512 339.363L6.48074 335.944Z" fill="#FFFCFF"/>
<path d="M654.101 327.436L638.163 319.142L633.568 322.561L649.506 330.855L654.101 327.436Z" fill="#FFFCFF"/>
<path d="M579.362 204.649C579.37 204.373 579.152 204.143 578.876 204.136C578.6 204.128 578.37 204.346 578.363 204.622L579.362 204.649ZM577.656 231.095C577.649 231.371 577.866 231.601 578.143 231.608C578.419 231.616 578.648 231.398 578.656 231.122L577.656 231.095ZM583.467 181.224L583.967 181.232L583.982 180.217L583.169 180.823L583.467 181.224ZM582.761 227.697L583.059 228.098L583.257 227.951L583.261 227.704L582.761 227.697ZM578.165 231.116L577.665 231.108L577.65 232.122L578.463 231.517L578.165 231.116ZM578.872 184.643L578.573 184.242L578.375 184.389L578.372 184.635L578.872 184.643ZM602.446 39.9537L602.944 39.9058L602.859 39.0234L602.148 39.5525L602.446 39.9537ZM628.256 307.977L628.554 308.378L628.781 308.21L628.753 307.929L628.256 307.977ZM623.324 311.647L622.826 311.695L622.911 312.577L623.622 312.048L623.324 311.647ZM597.514 43.6232L597.216 43.222L596.989 43.3904L597.016 43.6711L597.514 43.6232ZM27.6084 47.1323L27.4986 46.6445L27.4248 46.6611L27.3591 46.6989L27.6084 47.1323ZM601.418 38.136L601.824 38.4277L602.262 37.8178L601.531 37.6488L601.418 38.136ZM597.482 43.6158L597.37 44.1029L597.694 44.1778L597.888 43.9074L597.482 43.6158ZM23.128 49.7098L22.8787 49.2764L22.6067 49.4329L22.6293 49.7458L23.128 49.7098ZM628.248 307.973L628.574 308.353L628.082 307.502L628.248 307.973ZM48.8453 315.119L48.9623 314.633L48.7274 314.576L48.5371 314.725L48.8453 315.119ZM43.7403 319.115L43.4321 318.721L42.6174 319.358L43.6233 319.601L43.7403 319.115ZM622.282 313.083L622.448 313.555L622.536 313.524L622.607 313.463L622.282 313.083ZM48.7889 315.108L48.9803 315.57L49.3162 315.431L49.2873 315.069L48.7889 315.108ZM27.6084 49.7098L28.1069 49.67L28.0701 49.2098L27.6084 49.2098L27.6084 49.7098ZM42.4798 317.723L41.9811 317.759L42.031 318.45L42.6712 318.185L42.4798 317.723ZM628.298 13.5158C628.039 13.6116 627.906 13.8992 628.002 14.1582C628.098 14.4172 628.386 14.5496 628.645 14.4538L628.298 13.5158ZM654.493 4.89656C654.752 4.80079 654.884 4.51319 654.788 4.25419C654.692 3.99518 654.405 3.86285 654.146 3.95862L654.493 4.89656ZM633.022 10.5576L632.849 10.0887L632.781 10.1136L632.724 10.1565L633.022 10.5576ZM658.87 1.00041L659.168 1.40157L658.697 0.531441L658.87 1.00041ZM654.274 4.41944L654.448 4.88841L654.515 4.86349L654.573 4.8206L654.274 4.41944ZM628.426 13.9767L628.128 13.5755L628.6 14.4456L628.426 13.9767ZM632.862 10.0883C632.603 10.184 632.471 10.4716 632.567 10.7306C632.663 10.9896 632.95 11.122 633.209 11.0262L632.862 10.0883ZM659.057 1.46897C659.316 1.3732 659.449 1.0856 659.353 0.8266C659.257 0.567595 658.969 0.435264 658.71 0.53103L659.057 1.46897ZM635.712 20.8919C635.442 20.9482 635.268 21.2129 635.324 21.4833C635.381 21.7536 635.645 21.9272 635.916 21.871L635.712 20.8919ZM658.477 17.1773C658.747 17.121 658.921 16.8563 658.865 16.5859C658.808 16.3156 658.544 16.142 658.273 16.1982L658.477 17.1773ZM640.439 17.9709L640.337 17.4814L640.229 17.5039L640.14 17.5697L640.439 17.9709ZM663 13.2772L663.298 13.6784L662.898 12.7877L663 13.2772ZM658.404 16.6962L658.506 17.1858L658.614 17.1633L658.703 17.0974L658.404 16.6962ZM635.843 21.3899L635.545 20.9888L635.945 21.8794L635.843 21.3899ZM640.313 17.4738C640.043 17.5301 639.869 17.7949 639.925 18.0652C639.982 18.3356 640.246 18.5091 640.517 18.4529L640.313 17.4738ZM663.078 13.7592C663.348 13.703 663.522 13.4382 663.466 13.1678C663.409 12.8975 663.145 12.7239 662.874 12.7802L663.078 13.7592ZM0.781618 339.485C0.545706 339.628 0.470812 339.936 0.614339 340.172C0.757865 340.407 1.06546 340.482 1.30137 340.339L0.781618 339.485ZM13.1918 333.105C13.4277 332.961 13.5026 332.654 13.359 332.418C13.2155 332.182 12.9079 332.107 12.672 332.251L13.1918 333.105ZM16.6008 329.784L16.341 329.356L16.3211 329.368L16.3024 329.382L16.6008 329.784ZM17.486 329.245L17.7844 329.646L17.2261 328.818L17.486 329.245ZM12.8903 332.664L13.1502 333.091L13.1701 333.079L13.1888 333.065L12.8903 332.664ZM12.0052 333.203L11.7068 332.801L12.2651 333.63L12.0052 333.203ZM6.48843 335.941L6.22855 335.514L6.20866 335.526L6.18998 335.54L6.48843 335.941ZM16.6086 329.784L16.907 330.185L16.3487 329.357L16.6086 329.784ZM12.013 333.203L12.2728 333.63L12.2927 333.618L12.3114 333.604L12.013 333.203ZM1.89281 339.36L1.59436 338.959L2.15269 339.787L1.89281 339.36ZM5.59562 336.482L5.33574 336.055L5.31585 336.067L5.29717 336.081L5.59562 336.482ZM6.48074 335.944L6.77919 336.345L6.22086 335.517L6.48074 335.944ZM1.88512 339.363L2.14499 339.79L2.16489 339.778L2.18357 339.764L1.88512 339.363ZM1 339.901L0.70155 339.5L1.25987 340.328L1 339.901ZM5.34634 336.057C5.11043 336.2 5.03554 336.508 5.17906 336.744C5.32259 336.979 5.63019 337.054 5.8661 336.911L5.34634 336.057ZM17.7565 329.677C17.9924 329.533 18.0673 329.226 17.9238 328.99C17.7802 328.754 17.4726 328.679 17.2367 328.823L17.7565 329.677ZM633.787 322.116C633.542 321.988 633.24 322.084 633.112 322.328C632.985 322.573 633.08 322.875 633.325 323.003L633.787 322.116ZM649.263 331.298C649.508 331.425 649.81 331.33 649.938 331.085C650.065 330.84 649.97 330.538 649.725 330.41L649.263 331.298ZM638.163 319.142L638.394 318.698L638.116 318.553L637.865 318.74L638.163 319.142ZM654.101 327.436L654.4 327.837L655.04 327.361L654.332 326.993L654.101 327.436ZM649.506 330.855L649.275 331.299L649.553 331.443L649.804 331.256L649.506 330.855ZM633.568 322.561L633.269 322.159L632.629 322.636L633.337 323.004L633.568 322.561ZM638.424 318.707C638.179 318.579 637.877 318.674 637.75 318.919C637.622 319.164 637.717 319.466 637.962 319.594L638.424 318.707ZM653.9 327.888C654.145 328.016 654.447 327.921 654.575 327.676C654.702 327.431 654.607 327.129 654.362 327.001L653.9 327.888ZM583.11 184.454L582.613 184.4L582.61 184.425L582.61 184.45L583.11 184.454ZM578.363 204.622L577.656 231.095L578.656 231.122L579.362 204.649L578.363 204.622ZM582.967 181.216L582.261 227.689L583.261 227.704L583.967 181.232L582.967 181.216ZM582.462 227.296L577.867 230.715L578.463 231.517L583.059 228.098L582.462 227.296ZM578.665 231.123L579.371 184.651L578.372 184.635L577.665 231.108L578.665 231.123ZM579.17 185.044L583.766 181.625L583.169 180.823L578.573 184.242L579.17 185.044ZM601.949 40.0016L627.758 308.025L628.753 307.929L602.944 39.9058L601.949 40.0016ZM627.957 307.576L623.025 311.246L623.622 312.048L628.554 308.378L627.957 307.576ZM623.821 311.599L598.012 43.5752L597.016 43.6711L622.826 311.695L623.821 311.599ZM597.813 44.0243L602.745 40.3548L602.148 39.5525L597.216 43.222L597.813 44.0243ZM27.7182 47.6201C129.95 24.6076 386.997 -10.8503 601.306 38.6232L601.531 37.6488C387.011 -11.8735 129.793 23.618 27.4986 46.6445L27.7182 47.6201ZM601.012 37.8444L597.076 43.3241L597.888 43.9074L601.824 38.4277L601.012 37.8444ZM597.595 43.1286C383.078 -6.393 125.318 26.1942 23.0182 49.222L23.2378 50.1976C125.464 27.1864 383.058 -5.37138 597.37 44.1029L597.595 43.1286ZM23.3774 50.1432L27.8578 47.5657L27.3591 46.6989L22.8787 49.2764L23.3774 50.1432ZM628.082 307.502C545.736 336.5 314.549 378.561 48.9623 314.633L48.7283 315.605C314.516 379.581 545.898 337.503 628.415 308.445L628.082 307.502ZM48.5371 314.725L43.4321 318.721L44.0485 319.508L49.1535 315.512L48.5371 314.725ZM43.6233 319.601C309.409 383.577 539.93 342.614 622.448 313.555L622.116 312.611C539.771 341.609 309.446 382.557 43.8573 318.628L43.6233 319.601ZM622.607 313.463L628.574 308.353L627.923 307.593L621.956 312.703L622.607 313.463ZM49.2873 315.069L28.1069 49.67L27.11 49.7496L48.2904 315.148L49.2873 315.069ZM27.6084 49.2098L23.128 49.2098L23.128 50.2098L27.6084 50.2098L27.6084 49.2098ZM22.6293 49.7458L41.9811 317.759L42.9785 317.687L23.6267 49.6738L22.6293 49.7458ZM42.6712 318.185L48.9803 315.57L48.5975 314.646L42.2884 317.261L42.6712 318.185ZM628.645 14.4538L654.493 4.89656L654.146 3.95862L628.298 13.5158L628.645 14.4538ZM633.195 11.0266L659.043 1.46938L658.697 0.531441L632.849 10.0887L633.195 11.0266ZM658.571 0.599254L653.976 4.01829L654.573 4.8206L659.168 1.40157L658.571 0.599254ZM654.101 3.95047L628.253 13.5077L628.6 14.4456L654.448 4.88841L654.101 3.95047ZM628.725 14.3778L633.32 10.9588L632.724 10.1565L628.128 13.5755L628.725 14.3778ZM633.209 11.0262L659.057 1.46897L658.71 0.53103L632.862 10.0883L633.209 11.0262ZM635.916 21.871L658.477 17.1773L658.273 16.1982L635.712 20.8919L635.916 21.871ZM640.541 18.4604L663.102 13.7667L662.898 12.7877L640.337 17.4814L640.541 18.4604ZM662.702 12.8761L658.106 16.2951L658.703 17.0974L663.298 13.6784L662.702 12.8761ZM658.303 16.2067L635.741 20.9004L635.945 21.8794L658.506 17.1858L658.303 16.2067ZM636.142 21.7911L640.737 18.372L640.14 17.5697L635.545 20.9888L636.142 21.7911ZM640.517 18.4529L663.078 13.7592L662.874 12.7802L640.313 17.4738L640.517 18.4529ZM16.8607 330.211L17.7458 329.672L17.2261 328.818L16.341 329.356L16.8607 330.211ZM17.1875 328.844L12.5919 332.263L13.1888 333.065L17.7844 329.646L17.1875 328.844ZM12.6305 332.237L11.7453 332.775L12.2651 333.63L13.1502 333.091L12.6305 332.237ZM12.3037 333.604L16.8993 330.185L16.3024 329.382L11.7068 332.801L12.3037 333.604ZM6.74831 336.368L16.8685 330.211L16.3487 329.357L6.22855 335.514L6.74831 336.368ZM16.3101 329.383L11.7145 332.802L12.3114 333.604L16.907 330.185L16.3101 329.383ZM11.7531 332.776L1.63293 338.933L2.15269 339.787L12.2728 333.63L11.7531 332.776ZM2.19126 339.761L6.78688 336.342L6.18998 335.54L1.59436 338.959L2.19126 339.761ZM5.8555 336.909L6.74062 336.371L6.22086 335.517L5.33574 336.055L5.8555 336.909ZM6.18229 335.543L1.58667 338.962L2.18357 339.764L6.77919 336.345L6.18229 335.543ZM1.62525 338.936L0.740127 339.474L1.25987 340.328L2.14499 339.79L1.62525 338.936ZM1.29845 340.302L5.89407 336.883L5.29717 336.081L0.70155 339.5L1.29845 340.302ZM5.8661 336.911L17.7565 329.677L17.2367 328.823L5.34634 336.057L5.8661 336.911ZM1.30137 340.339L13.1918 333.105L12.672 332.251L0.781618 339.485L1.30137 340.339ZM633.325 323.003L649.263 331.298L649.725 330.41L633.787 322.116L633.325 323.003ZM637.932 319.585L653.871 327.88L654.332 326.993L638.394 318.698L637.932 319.585ZM653.803 327.035L649.207 330.454L649.804 331.256L654.4 327.837L653.803 327.035ZM649.737 330.412L633.799 322.117L633.337 323.004L649.275 331.299L649.737 330.412ZM633.866 322.962L638.462 319.543L637.865 318.74L633.269 322.159L633.866 322.962ZM637.962 319.594L653.9 327.888L654.362 327.001L638.424 318.707L637.962 319.594ZM582.966 181.163L582.613 184.4L583.607 184.508L583.96 181.272L582.966 181.163ZM582.61 184.45L582.257 227.686L583.257 227.694L583.61 184.458L582.61 184.45Z" fill="#FFFCFF"/>
</svg>
