<svg width="605" height="360" viewBox="0 0 605 360" fill="none" xmlns="http://www.w3.org/2000/svg">
<path d="M561.969 313.21L538.887 40.6177L534.476 44.3497L557.558 316.942L561.969 313.21Z" fill="#FFFCFF"/>
<path d="M537.967 38.769C346.212 -11.5726 116.253 24.5068 24.7965 47.9187L20.7896 50.5401C112.246 27.1282 342.692 -5.9995 534.448 44.3422L537.967 38.769Z" fill="#FFFCFF"/>
<path d="M43.7891 320.473C281.399 385.515 488.242 342.729 561.962 313.206L556.626 318.403C482.906 347.926 276.834 389.579 39.2236 324.537L43.7891 320.473Z" fill="#FFFCFF"/>
<path d="M24.7965 50.5401L43.7387 320.462L38.0963 323.121L20.7896 50.5401L24.7965 50.5401Z" fill="#FFFCFF"/>
<path d="M589.348 1.00042L566.231 10.7206L562.121 14.1979L585.238 4.47773L589.348 1.00042Z" fill="#FFFCFF"/>
<path d="M593.042 13.4865L572.865 18.2602L568.755 21.7375L588.932 16.9638L593.042 13.4865Z" fill="#FFFCFF"/>
<path d="M15.7438 334.84L14.9522 335.388L10.8422 338.865L11.6338 338.317L15.7438 334.84Z" fill="#FFFCFF"/>
<path d="M14.9591 335.388L5.90843 341.65L1.79846 345.127L10.8491 338.865L14.9591 335.388Z" fill="#FFFCFF"/>
<path d="M5.90155 341.653L5.10997 342.201L1 345.678L1.79158 345.13L5.90155 341.653Z" fill="#FFFCFF"/>
<path d="M602.973 343.171L588.72 334.735L584.61 338.212L598.863 346.648L602.973 343.171Z" fill="#FFFCFF"/>
<path d="M20.7896 50.5401C112.246 27.1282 342.692 -5.9995 534.448 44.3422L537.967 38.769C346.212 -11.5726 116.253 24.5068 24.7965 47.9187L20.7896 50.5401ZM20.7896 50.5401L24.7965 50.5401L43.7387 320.462L38.0963 323.121L20.7896 50.5401ZM562.162 14.2061L585.278 4.48601M566.244 10.7201L589.36 1M568.728 21.7288L588.905 16.9552M572.843 18.2525L593.02 13.4788M1.03711 345.689L11.671 338.331M5.11945 342.202L15.7533 334.845M584.599 338.211L598.853 346.647M588.746 334.744L603 343.18M538.887 40.6177L561.969 313.21L557.558 316.942L534.476 44.3497L538.887 40.6177ZM561.962 313.206C488.242 342.729 281.399 385.515 43.7891 320.473L39.2236 324.537C276.834 389.579 482.906 347.926 556.626 318.403L561.962 313.206ZM566.231 10.7206L589.348 1.00042L585.238 4.47773L562.121 14.1979L566.231 10.7206ZM572.865 18.2602L593.042 13.4865L588.932 16.9638L568.755 21.7375L572.865 18.2602ZM14.9522 335.388L15.7438 334.84L11.6338 338.317L10.8422 338.865L14.9522 335.388ZM5.90843 341.65L14.9591 335.388L10.8491 338.865L1.79846 345.127L5.90843 341.65ZM5.10997 342.201L5.90155 341.653L1.79158 345.13L1 345.678L5.10997 342.201ZM588.72 334.735L602.973 343.171L598.863 346.648L584.61 338.212L588.72 334.735Z" stroke="#FFFCFF" stroke-width="2" stroke-linecap="round"/>
</svg>
