<svg width="175" height="215" viewBox="0 0 175 215" fill="none" xmlns="http://www.w3.org/2000/svg">
<path d="M169.373 6.63366C169.233 5.88816 169 5.14839 168.491 4.51971C166.849 2.2638 163.555 0.674463 160.908 1.96749C158.811 3.03833 157.269 5.48908 156.072 7.44738C154.788 9.50532 153.609 11.7453 152.419 13.7975C150.625 16.735 148.93 19.7606 147.235 22.7863C146.467 24.0586 145.792 25.3252 145.124 26.6857C144.93 26.6032 144.655 26.7143 144.672 26.996C144.59 27.1896 144.608 27.4713 144.619 27.6591C144.162 27.8756 143.816 28.368 143.558 28.7608C143.043 29.5464 142.521 30.2381 142.005 31.0238C140.698 32.7061 139.49 34.4766 138.277 36.1532C137.151 37.7301 136.113 39.2075 134.982 40.6905C134.197 41.6811 133.054 42.9764 132.666 44.3197C132.484 44.425 132.397 44.5247 132.414 44.8064C130.984 46.0249 128.941 46.4327 127.19 47.0111C126.915 47.1222 126.651 47.4211 126.762 47.6971C127.099 50.1271 127.155 52.5743 126.93 55.0388C126.812 56.1771 126.506 57.3268 126.195 58.3827C126.036 58.8637 125.883 59.4386 125.819 59.9138C125.666 60.4887 125.7 61.0521 125.542 61.5331C125.465 61.8206 125.851 61.9854 126.027 61.7862C127.417 59.9103 129.607 58.8337 131.616 57.8625C134.082 56.6749 136.465 55.6807 139.176 55.4207C139.55 55.3977 139.814 55.0988 139.791 54.7232C139.634 53.696 139.389 52.7684 139.326 51.7355C139.274 50.8903 139.415 50.1277 139.463 49.3707C140.101 49.0489 140.447 48.5564 140.887 48.0583C141.578 47.0734 142.27 46.0885 142.962 45.1036C144.346 43.1338 145.723 41.0702 147.107 39.1004C148.402 37.2303 149.704 35.454 150.9 33.4957C151.158 33.1029 151.592 32.5109 151.745 31.936C152.113 31.8191 152.471 31.5145 152.828 31.2099C153.361 30.706 153.696 30.0257 154.229 29.5218C154.938 28.8187 155.647 28.1155 156.263 27.418C158.9 24.429 161.239 21.1755 163.677 18.0101C165.336 15.9292 167.094 13.9365 168.361 11.5969C168.871 10.7174 169.188 9.75541 169.412 8.79918C169.622 9.16333 169.733 9.43931 169.856 9.9031C170.106 10.9246 170.087 12.1511 169.87 13.2012C169.446 15.4893 167.98 17.6526 166.591 19.5284C165.108 21.41 163.724 23.3798 162.142 25.1732C160.648 26.867 158.597 28.6891 157.886 30.9004C157.64 31.4811 158.242 32.104 158.781 31.694C159.958 30.9622 160.925 29.8662 161.805 28.8699C162.777 27.8678 163.651 26.7775 164.623 25.7755C166.47 23.6831 167.83 21.3378 169.185 18.8985C170.369 16.7524 171.543 14.4184 171.575 11.8716C171.465 10.0874 171.193 7.18211 169.373 6.63366ZM130.797 56.7815C129.796 57.3141 128.894 57.9348 127.904 58.6552C128.596 57.6703 129.194 56.6911 129.885 55.7063C130.577 54.7214 131.263 53.6426 131.955 52.6577C132.213 52.2649 132.471 51.8721 132.729 51.4793C132.899 51.1861 133.163 50.8872 133.14 50.5116C133.134 50.4177 133.034 50.3295 132.941 50.3353C132.566 50.3582 132.308 50.751 132.138 51.0442C131.88 51.437 131.622 51.8298 131.364 52.2226C130.672 53.2075 130.08 54.2805 129.388 55.2654C128.96 55.9514 128.444 56.737 128.016 57.423C128.163 56.7542 128.31 56.0854 128.364 55.4223C128.594 53.0518 127.789 50.6504 128.02 48.2799C129.794 48.0771 131.428 47.1288 132.664 45.8279C133.114 47.0257 134.02 48.0071 135.284 48.6838C136.062 49.1075 137.127 49.6079 138.163 49.6387C138.11 50.3018 138.15 50.9591 138.091 51.5283C138.143 52.3734 138.2 53.3124 138.346 54.1518C135.641 54.5058 133.164 55.5057 130.797 56.7815ZM145.944 37.0037C144.648 38.8738 143.359 40.8378 142.162 42.7961C141.482 43.9688 140.802 45.1415 140.122 46.3142C139.524 47.2933 139.124 48.4488 137.889 48.2416C135.899 47.9864 134.028 46.5928 133.345 44.6552C133.691 44.1627 134.031 43.5764 134.371 42.99C134.893 42.2983 135.508 41.6009 136.035 41.0031C137.189 39.6954 138.178 38.3978 139.157 37.1008C139.222 37.0143 139.288 36.9278 139.353 36.8414C140.566 35.1648 141.786 33.5821 143.005 31.9994C143.527 31.3077 143.949 30.5278 144.471 29.8361C144.646 29.6368 144.816 29.3436 145.086 29.1386C146.015 30.4956 147.864 31.5136 149.204 31.9029C149.298 31.8972 149.298 31.8972 149.397 31.9853C148.272 33.5623 147.158 35.3271 145.944 37.0037ZM167.393 8.07438C167.063 10.3567 165.404 12.4376 164.097 14.1199C162.35 16.3004 160.604 18.4809 159.05 20.7438C157.919 22.2269 156.887 23.7981 155.855 25.3694C154.817 26.8467 153.879 28.4122 152.637 29.6192C152.197 30.1174 151.664 30.6213 151.02 30.8492C150.282 31.0829 149.41 30.665 148.732 30.3294C147.573 29.8348 146.397 29.0584 145.86 27.9602C147.847 25.1052 149.531 21.8918 151.231 18.96C153.442 15.1488 155.664 11.5254 158.074 7.89047C159.2 6.31351 160.625 3.49288 162.884 3.54315C165.226 3.39989 167.8 5.50459 167.393 8.07438Z" fill="#FFFCFF"/>
<path d="M131.955 52.6577C131.263 53.6426 130.577 54.7214 129.885 55.7063C129.194 56.6911 128.596 57.6703 127.904 58.6552C128.894 57.9348 129.796 57.3141 130.797 56.7815C133.164 55.5057 135.641 54.5058 138.346 54.1518C138.2 53.3124 138.143 52.3734 138.091 51.5283C138.15 50.9591 138.11 50.3018 138.163 49.6387C137.127 49.6079 136.062 49.1075 135.284 48.6838C134.02 48.0071 133.114 47.0257 132.664 45.8279C131.428 47.1288 129.794 48.0771 128.02 48.2799C127.789 50.6504 128.594 53.0518 128.364 55.4223C128.31 56.0854 128.163 56.7542 128.016 57.423C128.444 56.737 128.96 55.9514 129.388 55.2654C130.08 54.2805 130.672 53.2075 131.364 52.2226M131.955 52.6577C132.213 52.2649 132.471 51.8721 132.729 51.4793M131.955 52.6577L132.729 51.4793M132.729 51.4793C132.899 51.1861 133.163 50.8872 133.14 50.5116C133.134 50.4177 133.034 50.3295 132.941 50.3353C132.566 50.3582 132.308 50.751 132.138 51.0442M132.138 51.0442C131.88 51.437 131.622 51.8298 131.364 52.2226M132.138 51.0442L131.364 52.2226M142.162 42.7961C143.359 40.8378 144.648 38.8738 145.944 37.0037C147.158 35.3271 148.272 33.5623 149.397 31.9853C149.298 31.8972 149.298 31.8972 149.204 31.9029C147.864 31.5136 146.015 30.4956 145.086 29.1386C144.816 29.3436 144.646 29.6368 144.471 29.8361C143.949 30.5278 143.527 31.3077 143.005 31.9994C141.786 33.5821 140.566 35.1648 139.353 36.8414C139.288 36.9278 139.222 37.0143 139.157 37.1008C138.178 38.3978 137.189 39.6954 136.035 41.0031C135.508 41.6009 134.893 42.2983 134.371 42.99C134.031 43.5764 133.691 44.1627 133.345 44.6552C134.028 46.5928 135.899 47.9864 137.889 48.2416C139.124 48.4488 139.524 47.2933 140.122 46.3142M142.162 42.7961C141.482 43.9688 140.802 45.1415 140.122 46.3142M142.162 42.7961L140.122 46.3142M169.373 6.63366C169.233 5.88816 169 5.14839 168.491 4.51971C166.849 2.2638 163.555 0.674463 160.908 1.96749C158.811 3.03833 157.269 5.48908 156.072 7.44738C154.788 9.50532 153.609 11.7453 152.419 13.7975C150.625 16.735 148.93 19.7606 147.235 22.7863C146.467 24.0586 145.792 25.3252 145.124 26.6857C144.93 26.6032 144.655 26.7143 144.672 26.996C144.59 27.1896 144.608 27.4713 144.619 27.6591C144.162 27.8756 143.816 28.368 143.558 28.7608C143.043 29.5464 142.521 30.2381 142.005 31.0238C140.698 32.7061 139.49 34.4766 138.277 36.1532C137.151 37.7301 136.113 39.2074 134.982 40.6905C134.197 41.6811 133.054 42.9764 132.666 44.3197C132.484 44.425 132.397 44.5247 132.414 44.8064C130.984 46.0249 128.941 46.4327 127.19 47.0111C126.915 47.1222 126.651 47.4211 126.762 47.6971C127.099 50.1271 127.155 52.5743 126.93 55.0388C126.812 56.1771 126.506 57.3268 126.195 58.3827C126.036 58.8637 125.883 59.4386 125.819 59.9138C125.666 60.4887 125.7 61.0521 125.542 61.5331C125.465 61.8206 125.851 61.9854 126.027 61.7862C127.417 59.9103 129.607 58.8337 131.616 57.8625C134.082 56.6749 136.465 55.6807 139.176 55.4207C139.55 55.3977 139.814 55.0988 139.791 54.7232C139.634 53.696 139.389 52.7684 139.326 51.7355C139.274 50.8903 139.415 50.1277 139.463 49.3707C140.101 49.0489 140.447 48.5564 140.887 48.0583C141.578 47.0734 142.27 46.0885 142.962 45.1036C144.346 43.1338 145.723 41.0702 147.107 39.1004C148.402 37.2303 149.704 35.454 150.9 33.4957C151.158 33.1029 151.592 32.5109 151.745 31.936C152.113 31.8191 152.471 31.5145 152.828 31.2099C153.361 30.706 153.696 30.0257 154.229 29.5218C154.938 28.8187 155.647 28.1155 156.263 27.418C158.9 24.429 161.239 21.1755 163.677 18.0101C165.336 15.9292 167.094 13.9365 168.361 11.5969C168.871 10.7174 169.188 9.75541 169.412 8.79918C169.622 9.16333 169.733 9.43931 169.856 9.9031C170.106 10.9246 170.087 12.1511 169.87 13.2012C169.446 15.4893 167.98 17.6526 166.591 19.5284C165.108 21.41 163.724 23.3798 162.142 25.1732C160.648 26.867 158.597 28.6891 157.886 30.9004C157.64 31.4811 158.242 32.104 158.781 31.694C159.958 30.9622 160.925 29.8662 161.805 28.8699C162.777 27.8678 163.651 26.7775 164.623 25.7755C166.47 23.6831 167.83 21.3378 169.185 18.8985C170.369 16.7524 171.543 14.4184 171.575 11.8716C171.465 10.0874 171.193 7.18211 169.373 6.63366ZM167.393 8.07438C167.063 10.3567 165.404 12.4376 164.097 14.1199C162.35 16.3004 160.604 18.4809 159.05 20.7438C157.919 22.2269 156.887 23.7981 155.855 25.3694C154.817 26.8467 153.879 28.4122 152.637 29.6192C152.197 30.1174 151.664 30.6213 151.02 30.8492C150.282 31.0829 149.41 30.6649 148.732 30.3294C147.573 29.8348 146.397 29.0584 145.86 27.9602C147.847 25.1052 149.531 21.8918 151.231 18.96C153.442 15.1488 155.664 11.5254 158.074 7.89047C159.2 6.31351 160.625 3.49288 162.884 3.54315C165.226 3.39989 167.8 5.50459 167.393 8.07438Z" stroke="#FFFCFF" stroke-width="2.28437"/>
<path d="M126.601 109.634C112.765 95.6166 98.8762 81.4974 86.0565 66.4327C85.7937 66.179 85.5843 66.0276 85.2725 65.9293C81.9937 64.6403 78.5678 63.8177 75.1866 62.5819C74.6482 62.4123 74.2691 62.5477 73.9806 62.8564C73.887 62.9566 73.8001 63.0633 73.7011 63.1582C72.1255 64.668 70.5233 66.2622 68.9367 67.8071C68.137 68.5858 66.8837 68.6671 66.033 67.9441C63.6829 65.9468 61.5838 63.6139 59.4513 61.3873C58.9257 60.8798 58.097 60.7898 57.5891 61.3137C56.8327 62.0038 56.1621 62.7768 55.5284 63.5854C54.7425 64.588 53.3058 64.8222 52.2808 64.0641C49.8982 62.302 47.5174 60.5051 45.3914 58.4124C44.8123 57.8026 43.6763 57.8722 43.2752 58.6007C30.1466 82.9117 19.0345 108.112 3.48876 130.734C3.37452 130.9 3.23605 131.047 3.0945 131.191C1.26521 133.05 0.217807 138.058 1.71259 140.165C1.7496 140.218 1.77855 140.265 1.81177 140.32C1.90763 140.477 2.09951 140.565 2.2284 140.697C25.4778 164.55 49.532 187.468 73.8388 210.126C78.0528 214.245 87.0835 215.863 91.5461 211.03C91.6392 210.929 91.7659 210.833 91.8878 210.77C91.9015 210.763 91.8978 210.765 91.9117 210.758C114.521 200.191 137.931 191.156 161.238 182.175C161.552 182.084 161.768 181.884 161.88 181.645C162.055 181.271 162.036 180.787 161.841 180.422C161.768 180.285 161.67 180.157 161.564 180.055C159.644 178.239 157.724 176.423 155.827 174.65C154.809 173.7 154.868 172.071 155.965 171.214C157.551 169.975 159.128 168.767 160.728 167.482C161.289 167.061 161.169 166.082 160.8 165.624C159.166 163.885 157.498 162.081 155.85 160.316C155.114 159.527 155.022 158.322 155.794 157.569C157.502 155.904 159.679 154.618 160.833 152.47C161.082 151.951 161.122 151.279 160.65 150.874C158.721 149.194 156.792 147.513 154.902 145.907C154.591 145.642 154.662 145.134 154.859 144.776C155.51 143.528 156.316 142.329 156.967 141.081C157.217 140.561 157.203 139.787 156.785 139.484C145.929 130.424 136.334 119.537 126.601 109.634ZM155.632 177.986C156.852 179.139 156.452 181.167 154.885 181.772C134.039 189.823 113.14 197.985 92.8283 207.489C91.9841 207.884 90.9834 207.732 90.299 207.1C66.6337 185.265 43.8134 162.652 19.6775 141.399C18.5128 140.373 18.6844 138.512 20.0271 137.732C39.9364 126.168 60.8711 116.567 81.7383 106.836C82.6255 106.422 83.6784 106.618 84.3574 107.321C107.628 131.443 131.312 154.999 155.632 177.986ZM27.5084 124.927C24.2558 128.176 20.9006 131.479 17.648 134.729C16.7302 135.511 15.7496 136.326 14.8795 137.146C14.4273 137.572 13.8343 137.836 13.2169 137.759C10.4553 137.414 5.94832 135.792 5.47042 133.401C5.36848 132.891 5.67825 132.415 6.07127 132.073C29.7639 111.456 51.467 88.4418 73.9848 66.54C74.622 65.9202 75.5612 65.7307 76.4031 66.0192C77.5225 66.4027 78.6349 66.7426 79.7496 67.0972C81.2446 67.5728 81.7187 69.3757 80.6425 70.5141C79.321 71.912 77.9602 73.2645 76.6863 74.6797C71.9142 79.7588 67.0886 84.7356 62.3655 89.6593C50.9366 101.446 39.2492 113.238 27.5084 124.927ZM40.2931 96.2052C38.6584 97.8274 36.0108 95.5297 37.363 93.6667C42.162 87.1429 46.8541 80.4144 51.5997 73.7883C53.3164 71.3536 54.93 68.5654 56.8108 66.1329C57.6113 65.0977 59.1259 65.0865 60.0449 66.0188C61.1644 67.1545 62.305 68.2715 63.5088 69.3328C64.5417 70.2435 64.644 71.848 63.6687 72.8198C55.8726 80.5888 48.1176 88.4402 40.2931 96.2052ZM50.4641 70.8661C45.821 77.4391 41.1778 84.012 36.3788 90.5359C33.8238 94.0861 31.2635 97.6847 28.6556 101.27C27.0182 103.522 24.069 101.531 25.3691 99.0705C31.4702 87.5242 37.235 75.787 43.3495 64.2073C44.0434 62.8932 45.7998 62.5836 46.9718 63.5002C48.2727 64.5175 49.6157 65.4769 50.9442 66.456C51.8821 67.1472 52.1166 68.4356 51.4611 69.3974C51.1166 69.9029 50.7785 70.3906 50.4641 70.8661ZM3.97698 138.326C3.58366 137.525 4.73512 137.058 5.45127 137.592C6.37309 138.28 6.18883 139.69 5.11682 139.272C5.02744 139.237 4.93925 139.2 4.85231 139.162C4.41084 138.932 4.13561 138.649 3.97698 138.326ZM75.7726 208.342C54.0282 188.064 32.5087 167.555 11.6813 146.463C10.2432 145.007 11.3366 142.287 13.2637 141.591C13.3331 141.566 13.4018 141.54 13.4699 141.514C14.3913 141.163 15.4637 141.243 16.2064 141.89C40.5765 163.139 63.5402 185.931 87.19 207.925C88.2123 208.876 88.1302 210.533 86.8013 210.965C83.0897 212.173 78.3424 210.823 75.7726 208.342ZM84.5233 103.647C84.1897 103.234 83.7362 103.2 83.3857 103.239C83.3128 103.248 83.2522 103.271 83.1844 103.299C83.026 103.364 82.8288 103.352 82.6736 103.425C67.0622 110.752 51.448 117.829 36.1557 125.77C51.6847 114.683 67.2137 103.597 83.3212 93.3922C84.2384 92.8111 85.4387 92.959 86.1919 93.74C109.243 117.642 133.635 140.158 156.284 164.379C157.193 165.351 157.072 166.889 156.023 167.708C155.219 168.336 154.41 168.967 153.609 169.594C152.713 170.295 151.436 170.236 150.613 169.452C128.096 148.019 106.066 126.084 84.5233 103.647ZM154.545 155.173C153.524 156.057 151.932 156.086 150.995 155.113C129.718 133.018 107.255 112.007 86.0444 89.8509C85.6747 89.3925 84.9485 89.2493 84.4896 89.6176C68.735 99.3586 53.7199 110.016 38.6557 120.83C40.0815 119.569 41.4583 118.464 42.8841 117.203C56.7775 105.494 70.6218 93.6909 84.4167 81.7931C85.3693 80.9716 86.8086 81.0723 87.6396 82.0159C109.05 106.328 132.039 129.106 156.426 150.444C157.329 151.234 157.465 152.588 156.586 153.404C155.931 154.011 155.229 154.58 154.545 155.173ZM152.636 143.161C152.619 143.195 152.593 143.215 152.569 143.245C152.487 143.347 152.4 143.424 152.301 143.337C129.229 122.765 107.521 100.838 87.1777 77.5565C86.652 77.049 85.7744 77.1145 85.3154 77.4829C71.3069 89.5689 57.1916 101.45 43.1296 113.434C54.817 101.643 66.344 89.5445 77.7685 77.4995C79.5929 75.5786 81.5621 73.6554 83.3921 71.6046C84.3477 70.5337 86.0491 70.4998 86.9928 71.5812C99.0245 85.3693 111.848 98.5104 124.667 111.418C133.74 120.709 142.732 130.75 152.675 139.206C153.529 139.932 153.738 141.158 153.19 142.134C152.995 142.482 152.808 142.825 152.636 143.161Z" fill="#FFFCFF"/>
<path d="M48.755 145.287C59.0167 139.959 69.4944 135.044 80.1339 130.439C81.697 129.759 80.355 127.435 78.8926 128.063C68.253 132.668 57.7753 137.583 47.5136 142.911C45.9039 143.747 47.2459 146.071 48.755 145.287Z" fill="#FFFCFF"/>
<path d="M88.4827 137.33C77.3701 141.025 67.7049 147.98 56.8329 152.38C55.2672 153.055 56.6753 155.505 58.1403 154.883C68.7106 150.64 78.2752 143.737 89.1298 140.038C90.8091 139.581 90.162 136.873 88.4827 137.33Z" fill="#FFFCFF"/>
<path d="M69.8199 165.167C78.2115 160.344 86.9696 154.747 96.1224 151.627C97.7328 151.024 97.1841 148.744 95.6267 149.203C86.1709 152.481 77.3119 158.13 68.7183 163.058C67.2036 163.845 68.3052 165.954 69.8199 165.167Z" fill="#FFFCFF"/>
<path d="M106.491 157.194C96.4086 161.732 87.2411 167.77 77.4931 172.948C75.9464 173.751 77.0444 175.853 78.5911 175.05C88.3391 169.872 97.5066 163.834 107.589 159.296C109.286 158.531 108.037 156.391 106.491 157.194Z" fill="#FFFCFF"/>
<path d="M73.7169 69.4974C64.5211 79.3971 54.704 88.8506 45.1958 98.4C34.5746 109.04 24.2201 120.438 12.8196 130.329C11.5029 131.525 13.374 133.373 14.6906 132.176C26.0911 122.285 36.4983 110.988 47.0668 100.247C56.575 90.6979 66.3922 81.2443 75.5879 71.3447C76.8028 70.2014 74.8791 68.2534 73.7169 69.4974Z" fill="#FFFCFF"/>
<path d="M126.601 109.634C112.765 95.6166 98.8762 81.4974 86.0565 66.4327C85.7937 66.179 85.5843 66.0276 85.2725 65.9293C81.9937 64.6403 78.5678 63.8177 75.1866 62.5819C74.6482 62.4123 74.2691 62.5477 73.9806 62.8564C73.887 62.9566 73.8001 63.0633 73.7011 63.1582C72.1255 64.668 70.5233 66.2622 68.9367 67.8071C68.137 68.5858 66.8837 68.6671 66.033 67.9441C63.6829 65.9468 61.5838 63.6139 59.4513 61.3873C58.9257 60.8798 58.097 60.7898 57.5891 61.3137C56.8327 62.0038 56.1621 62.7768 55.5284 63.5854C54.7425 64.588 53.3058 64.8222 52.2808 64.0641C49.8982 62.302 47.5174 60.5051 45.3914 58.4124C44.8123 57.8026 43.6763 57.8722 43.2752 58.6007C30.1466 82.9117 19.0345 108.112 3.48876 130.734C3.37452 130.9 3.23605 131.047 3.0945 131.191C1.26521 133.05 0.217807 138.058 1.71259 140.165C1.7496 140.218 1.77855 140.265 1.81177 140.32C1.90763 140.477 2.09951 140.565 2.2284 140.697C25.4778 164.55 49.532 187.468 73.8388 210.126C78.0528 214.245 87.0835 215.863 91.5461 211.03C91.6392 210.929 91.7659 210.833 91.8878 210.77C91.9015 210.763 91.8978 210.765 91.9117 210.758C114.521 200.191 137.931 191.156 161.238 182.175C161.552 182.084 161.768 181.884 161.88 181.645C162.055 181.271 162.036 180.787 161.841 180.422C161.768 180.285 161.67 180.157 161.564 180.055C159.644 178.239 157.724 176.423 155.827 174.65C154.809 173.7 154.868 172.071 155.965 171.214C157.551 169.975 159.128 168.767 160.728 167.482C161.289 167.061 161.169 166.082 160.8 165.624C159.166 163.885 157.498 162.081 155.85 160.316C155.114 159.527 155.022 158.322 155.794 157.569C157.502 155.904 159.679 154.618 160.833 152.47C161.082 151.951 161.122 151.279 160.65 150.874C158.721 149.194 156.792 147.513 154.902 145.907C154.591 145.642 154.662 145.134 154.859 144.776C155.51 143.528 156.316 142.329 156.967 141.081C157.217 140.561 157.203 139.787 156.785 139.484C145.929 130.424 136.334 119.537 126.601 109.634ZM155.632 177.986C156.852 179.139 156.452 181.167 154.885 181.772C134.039 189.823 113.14 197.985 92.8283 207.489C91.9841 207.884 90.9834 207.732 90.299 207.1C66.6337 185.265 43.8134 162.652 19.6775 141.399C18.5128 140.373 18.6844 138.512 20.0271 137.732C39.9364 126.168 60.8711 116.567 81.7383 106.836C82.6255 106.422 83.6784 106.618 84.3574 107.321C107.628 131.443 131.312 154.999 155.632 177.986ZM27.5084 124.927C24.2558 128.176 20.9006 131.479 17.648 134.729C16.7302 135.511 15.7496 136.326 14.8795 137.146C14.4273 137.572 13.8343 137.836 13.2169 137.759C10.4553 137.414 5.94832 135.792 5.47042 133.401C5.36848 132.891 5.67825 132.415 6.07127 132.073C29.7639 111.456 51.467 88.4418 73.9848 66.54C74.622 65.9202 75.5612 65.7307 76.4031 66.0192C77.5225 66.4027 78.6349 66.7426 79.7496 67.0972C81.2446 67.5728 81.7187 69.3757 80.6425 70.5141C79.321 71.912 77.9602 73.2645 76.6863 74.6797C71.9142 79.7588 67.0886 84.7356 62.3655 89.6593C50.9366 101.446 39.2492 113.238 27.5084 124.927ZM40.2931 96.2052C38.6584 97.8274 36.0108 95.5297 37.363 93.6667C42.162 87.1429 46.8541 80.4144 51.5997 73.7883C53.3164 71.3536 54.93 68.5654 56.8108 66.1329C57.6113 65.0977 59.1259 65.0865 60.0449 66.0188C61.1644 67.1545 62.305 68.2715 63.5088 69.3328C64.5417 70.2435 64.644 71.848 63.6687 72.8198C55.8726 80.5888 48.1176 88.4402 40.2931 96.2052ZM50.4641 70.8661C45.821 77.4391 41.1778 84.012 36.3788 90.5359C33.8238 94.0861 31.2635 97.6847 28.6556 101.27C27.0182 103.522 24.069 101.531 25.3691 99.0705C31.4702 87.5242 37.235 75.787 43.3495 64.2073C44.0434 62.8932 45.7998 62.5836 46.9718 63.5002C48.2727 64.5175 49.6157 65.4769 50.9442 66.456C51.8821 67.1472 52.1166 68.4356 51.4611 69.3974C51.1166 69.9029 50.7785 70.3906 50.4641 70.8661ZM3.97698 138.326C3.58366 137.525 4.73512 137.058 5.45127 137.592C6.37309 138.28 6.18883 139.69 5.11682 139.272C5.02744 139.237 4.93925 139.2 4.85231 139.162C4.41084 138.932 4.13561 138.649 3.97698 138.326ZM75.7726 208.342C54.0282 188.064 32.5087 167.555 11.6813 146.463C10.2432 145.007 11.3366 142.287 13.2637 141.591C13.3331 141.566 13.4018 141.54 13.4699 141.514C14.3913 141.163 15.4637 141.243 16.2064 141.89C40.5765 163.139 63.5402 185.931 87.19 207.925C88.2123 208.876 88.1302 210.533 86.8013 210.965C83.0897 212.173 78.3424 210.823 75.7726 208.342ZM84.5233 103.647C84.1897 103.234 83.7362 103.2 83.3857 103.239C83.3128 103.248 83.2522 103.271 83.1844 103.299C83.026 103.364 82.8288 103.352 82.6736 103.425C67.0622 110.752 51.448 117.829 36.1557 125.77C51.6847 114.683 67.2137 103.597 83.3212 93.3922C84.2384 92.8111 85.4387 92.959 86.1919 93.74C109.243 117.642 133.635 140.158 156.284 164.379C157.193 165.351 157.072 166.889 156.023 167.708C155.219 168.336 154.41 168.967 153.609 169.594C152.713 170.295 151.436 170.236 150.613 169.452C128.096 148.019 106.066 126.084 84.5233 103.647ZM154.545 155.173C153.524 156.057 151.932 156.086 150.995 155.113C129.718 133.018 107.255 112.007 86.0444 89.8509C85.6747 89.3925 84.9485 89.2493 84.4896 89.6176C68.735 99.3586 53.7199 110.016 38.6557 120.83C40.0815 119.569 41.4583 118.464 42.8841 117.203C56.7775 105.494 70.6218 93.6909 84.4167 81.7931C85.3693 80.9716 86.8086 81.0723 87.6396 82.0159C109.05 106.328 132.039 129.106 156.426 150.444C157.329 151.234 157.465 152.588 156.586 153.404C155.931 154.011 155.229 154.58 154.545 155.173ZM152.636 143.161C152.619 143.195 152.593 143.215 152.569 143.245C152.487 143.347 152.4 143.424 152.301 143.337C129.229 122.765 107.521 100.838 87.1777 77.5565C86.652 77.049 85.7744 77.1145 85.3154 77.4829C71.3069 89.5689 57.1916 101.45 43.1296 113.434C54.817 101.643 66.344 89.5445 77.7685 77.4995C79.5929 75.5786 81.5621 73.6554 83.3921 71.6046C84.3477 70.5337 86.0491 70.4998 86.9928 71.5812C99.0245 85.3693 111.848 98.5104 124.667 111.418C133.74 120.709 142.732 130.75 152.675 139.206C153.529 139.932 153.738 141.158 153.19 142.134C152.995 142.482 152.808 142.825 152.636 143.161Z" stroke="#FFFCFF" stroke-width="1.52292"/>
<path d="M48.755 145.287C59.0167 139.959 69.4944 135.044 80.1339 130.439C81.697 129.759 80.355 127.435 78.8926 128.063C68.253 132.668 57.7753 137.583 47.5136 142.911C45.9039 143.747 47.2459 146.071 48.755 145.287Z" stroke="#FFFCFF" stroke-width="1.52292"/>
<path d="M88.4827 137.33C77.3701 141.025 67.7049 147.98 56.8329 152.38C55.2672 153.055 56.6753 155.505 58.1403 154.883C68.7106 150.64 78.2752 143.737 89.1298 140.038C90.8091 139.581 90.162 136.873 88.4827 137.33Z" stroke="#FFFCFF" stroke-width="1.52292"/>
<path d="M69.8199 165.167C78.2115 160.344 86.9696 154.747 96.1224 151.627C97.7328 151.024 97.1841 148.744 95.6267 149.203C86.1709 152.481 77.3119 158.13 68.7183 163.058C67.2036 163.845 68.3052 165.954 69.8199 165.167Z" stroke="#FFFCFF" stroke-width="1.52292"/>
<path d="M106.491 157.194C96.4086 161.732 87.2411 167.77 77.4931 172.948C75.9464 173.751 77.0444 175.853 78.5911 175.05C88.3391 169.872 97.5066 163.834 107.589 159.296C109.286 158.531 108.037 156.391 106.491 157.194Z" stroke="#FFFCFF" stroke-width="1.52292"/>
<path d="M73.7169 69.4974C64.5211 79.3971 54.704 88.8506 45.1958 98.4C34.5746 109.04 24.2201 120.438 12.8196 130.329C11.5029 131.525 13.374 133.373 14.6906 132.176C26.0911 122.285 36.4983 110.988 47.0668 100.247C56.575 90.6979 66.3922 81.2443 75.5879 71.3447C76.8028 70.2014 74.8791 68.2534 73.7169 69.4974Z" stroke="#FFFCFF" stroke-width="1.52292"/>
</svg>
