<svg width="162" height="158" viewBox="0 0 162 158" fill="none" xmlns="http://www.w3.org/2000/svg">
<path d="M125.601 52.6335C111.765 38.6166 97.8762 24.4974 85.0565 9.43271C84.7937 9.17897 84.5843 9.02755 84.2725 8.92934C80.9937 7.64025 77.5678 6.81773 74.1866 5.58186C73.6482 5.41229 73.2691 5.5477 72.9806 5.85645C72.887 5.95662 72.8001 6.0633 72.7011 6.15817C71.1255 7.668 69.5233 9.26223 67.9367 10.8071C67.137 11.5858 65.8837 11.6671 65.033 10.9441C62.6829 8.94678 60.5838 6.61387 58.4513 4.38728C57.9257 3.87981 57.097 3.7898 56.5891 4.31367C55.8327 5.0038 55.1621 5.77683 54.5284 6.58537C53.7425 7.58796 52.3058 7.82222 51.2808 7.06413C48.8982 5.302 46.5174 3.50509 44.3914 1.41235C43.8123 0.802566 42.6763 0.872178 42.2752 1.60068C29.1466 25.9117 18.0345 51.1125 2.48876 73.7342C2.37452 73.9004 2.23605 74.0473 2.0945 74.1911C0.265212 76.05 -0.782193 81.0584 0.712593 83.1654C0.749603 83.2175 0.77855 83.2649 0.811769 83.3195C0.907627 83.4772 1.09951 83.5652 1.2284 83.6974C24.4778 107.55 48.532 130.468 72.8388 153.126C77.0528 157.245 86.0835 158.863 90.5461 154.03C90.6392 153.929 90.7659 153.833 90.8878 153.77C90.9015 153.763 90.8978 153.765 90.9117 153.758C113.521 143.191 136.931 134.156 160.238 125.175C160.552 125.084 160.768 124.884 160.88 124.645C161.055 124.271 161.036 123.787 160.841 123.422C160.768 123.285 160.67 123.157 160.564 123.055C158.644 121.239 156.724 119.423 154.827 117.65C153.809 116.7 153.868 115.071 154.965 114.214C156.551 112.975 158.128 111.767 159.728 110.482C160.289 110.061 160.169 109.082 159.8 108.624C158.166 106.885 156.498 105.081 154.85 103.316C154.114 102.527 154.022 101.322 154.794 100.569C156.502 98.904 158.679 97.6178 159.833 95.4703C160.082 94.9505 160.122 94.2793 159.65 93.8742C157.721 92.1938 155.792 90.5134 153.902 88.9068C153.591 88.6422 153.662 88.1339 153.859 87.7763C154.51 86.528 155.316 85.3288 155.967 84.0806C156.217 83.5608 156.203 82.7873 155.785 82.4844C144.929 73.4236 135.334 62.5375 125.601 52.6335ZM154.632 120.986C155.852 122.139 155.452 124.167 153.885 124.772C133.039 132.823 112.14 140.985 91.8283 150.489C90.9841 150.884 89.9834 150.732 89.299 150.1C65.6337 128.265 42.8134 105.652 18.6775 84.3987C17.5128 83.3731 17.6844 81.5123 19.0271 80.7324C38.9364 69.1681 59.8711 59.5668 80.7383 49.8361C81.6255 49.4223 82.6784 49.6177 83.3574 50.3215C106.628 74.4431 130.312 97.9992 154.632 120.986ZM26.5084 67.9267C23.2558 71.1764 19.9006 74.4793 16.648 77.7289C15.7302 78.5111 14.7496 79.3258 13.8795 80.1457C13.4273 80.5718 12.8343 80.8357 12.2169 80.7587C9.45527 80.4142 4.94832 78.7921 4.47042 76.4007C4.36848 75.8906 4.67825 75.4152 5.07127 75.0732C28.7639 54.4563 50.467 31.4418 72.9848 9.53997C73.622 8.9202 74.5612 8.73074 75.4031 9.01919C76.5225 9.40273 77.6349 9.74257 78.7496 10.0972C80.2446 10.5728 80.7187 12.3757 79.6425 13.5141C78.321 14.912 76.9602 16.2645 75.6863 17.6797C70.9142 22.7588 66.0886 27.7356 61.3655 32.6593C49.9366 44.4464 38.2492 56.2377 26.5084 67.9267ZM39.2931 39.2052C37.6584 40.8274 35.0108 38.5297 36.363 36.6667C41.162 30.1429 45.8541 23.4144 50.5997 16.7883C52.3164 14.3536 53.93 11.5654 55.8108 9.13294C56.6113 8.09771 58.1259 8.08653 59.0449 9.01882C60.1644 10.1545 61.305 11.2715 62.5088 12.3328C63.5417 13.2435 63.644 14.848 62.6687 15.8198C54.8726 23.5888 47.1176 31.4402 39.2931 39.2052ZM49.4641 13.8661C44.821 20.4391 40.1778 27.012 35.3788 33.5359C32.8238 37.0861 30.2635 40.6847 27.6556 44.2705C26.0182 46.5219 23.069 44.531 24.3691 42.0705C30.4702 30.5242 36.235 18.787 42.3495 7.2073C43.0434 5.89317 44.7998 5.58361 45.9718 6.5002C47.2727 7.51754 48.6157 8.47687 49.9442 9.45602C50.8821 10.1472 51.1166 11.4356 50.4611 12.3974C50.1166 12.9029 49.7785 13.3906 49.4641 13.8661ZM2.97698 81.3257C2.58366 80.5247 3.73512 80.0576 4.45127 80.592C5.37309 81.2798 5.18883 82.6904 4.11682 82.2716C4.02744 82.2367 3.93925 82.2 3.85231 82.1617C3.41084 81.9322 3.13561 81.6488 2.97698 81.3257ZM74.7726 151.342C53.0282 131.064 31.5087 110.555 10.6813 89.463C9.24319 88.0066 10.3366 85.2874 12.2637 84.591C12.3331 84.5659 12.4018 84.5404 12.4699 84.5144C13.3913 84.1626 14.4637 84.2427 15.2064 84.8904C39.5765 106.139 62.5402 128.931 86.19 150.925C87.2123 151.876 87.1302 153.533 85.8013 153.965C82.0897 155.173 77.3424 153.823 74.7726 151.342ZM83.5233 46.6473C83.1897 46.2336 82.7362 46.1999 82.3857 46.2394C82.3128 46.2476 82.2522 46.2705 82.1844 46.2987C82.026 46.3643 81.8288 46.3522 81.6736 46.4251C66.0622 53.7519 50.448 60.8293 35.1557 68.7695C50.6847 57.6835 66.2137 46.5974 82.3212 36.3922C83.2384 35.8111 84.4387 35.959 85.1919 36.74C108.243 60.6417 132.635 83.1579 155.284 107.379C156.193 108.351 156.072 109.889 155.023 110.708C154.219 111.336 153.41 111.967 152.609 112.594C151.713 113.295 150.436 113.236 149.613 112.452C127.096 91.0193 105.066 69.0844 83.5233 46.6473ZM153.545 98.1728C152.524 99.0571 150.932 99.0855 149.995 98.113C128.718 76.0184 106.255 55.0065 85.0444 32.8509C84.6747 32.3925 83.9485 32.2493 83.4896 32.6176C67.735 42.3586 52.7199 53.0164 37.6557 63.8296C39.0815 62.569 40.4583 61.464 41.8841 60.2034C55.7775 48.4943 69.6218 36.6909 83.4167 24.7931C84.3693 23.9716 85.8086 24.0723 86.6396 25.0159C108.05 49.3279 131.039 72.1063 155.426 93.4443C156.329 94.2339 156.465 95.5885 155.586 96.404C154.931 97.0114 154.229 97.5801 153.545 98.1728ZM151.636 86.1611C151.619 86.1948 151.593 86.2152 151.569 86.2447C151.487 86.3474 151.4 86.4244 151.301 86.3365C128.229 65.7645 106.521 43.8378 86.1777 20.5565C85.652 20.049 84.7744 20.1145 84.3154 20.4829C70.3069 32.5689 56.1916 44.4503 42.1296 56.4341C53.817 44.6428 65.344 32.5445 76.7685 20.4995C78.5929 18.5786 80.5621 16.6554 82.3921 14.6046C83.3477 13.5337 85.0491 13.4998 85.9928 14.5812C98.0245 28.3693 110.848 41.5104 123.667 54.418C132.74 63.7088 141.732 73.75 151.675 82.2059C152.529 82.9318 152.738 84.158 152.19 85.1339C151.995 85.4819 151.808 85.8253 151.636 86.1611Z" fill="#FFFCFF"/>
<path d="M47.755 88.2875C58.0167 82.9593 68.4944 78.0444 79.1339 73.4395C80.697 72.7592 79.355 70.4351 77.8926 71.0631C67.253 75.668 56.7753 80.5829 46.5136 85.9111C44.9039 86.7469 46.2459 89.071 47.755 88.2875Z" fill="#FFFCFF"/>
<path d="M87.4827 80.3301C76.3701 84.025 66.7049 90.9801 55.8329 95.3802C54.2672 96.0547 55.6753 98.5054 57.1403 97.883C67.7106 93.6397 77.2752 86.7368 88.1298 83.0375C89.8091 82.5806 89.162 79.8731 87.4827 80.3301Z" fill="#FFFCFF"/>
<path d="M68.8199 108.167C77.2115 103.344 85.9696 97.7473 95.1224 94.6267C96.7328 94.0236 96.1841 91.7444 94.6267 92.2034C85.1709 95.4813 76.3119 101.13 67.7183 106.058C66.2036 106.845 67.3052 108.954 68.8199 108.167Z" fill="#FFFCFF"/>
<path d="M105.491 100.194C95.4086 104.732 86.2411 110.77 76.4931 115.948C74.9464 116.751 76.0444 118.853 77.5911 118.05C87.3391 112.872 96.5066 106.834 106.589 102.296C108.286 101.531 107.037 99.3912 105.491 100.194Z" fill="#FFFCFF"/>
<path d="M72.7169 12.4974C63.5211 22.3971 53.704 31.8506 44.1958 41.4C33.5746 52.0398 23.2201 63.4379 11.8196 73.3292C10.5029 74.5254 12.374 76.3726 13.6906 75.1765C25.0911 65.2852 35.4983 53.9878 46.0668 43.2472C55.575 33.6979 65.3922 24.2443 74.5879 14.3447C75.8028 13.2014 73.8791 11.2534 72.7169 12.4974Z" fill="#FFFCFF"/>
<path d="M125.601 52.6335C111.765 38.6166 97.8762 24.4974 85.0565 9.43271C84.7937 9.17897 84.5843 9.02755 84.2725 8.92934C80.9937 7.64025 77.5678 6.81773 74.1866 5.58186C73.6482 5.41229 73.2691 5.5477 72.9806 5.85645C72.887 5.95662 72.8001 6.0633 72.7011 6.15817C71.1255 7.668 69.5233 9.26223 67.9367 10.8071C67.137 11.5858 65.8837 11.6671 65.033 10.9441C62.6829 8.94678 60.5838 6.61387 58.4513 4.38728C57.9257 3.87981 57.097 3.7898 56.5891 4.31367C55.8327 5.0038 55.1621 5.77683 54.5284 6.58537C53.7425 7.58796 52.3058 7.82222 51.2808 7.06413C48.8982 5.302 46.5174 3.50509 44.3914 1.41235C43.8123 0.802566 42.6763 0.872178 42.2752 1.60068C29.1466 25.9117 18.0345 51.1125 2.48876 73.7342C2.37452 73.9004 2.23605 74.0473 2.0945 74.1911C0.265212 76.05 -0.782193 81.0584 0.712593 83.1654C0.749603 83.2175 0.77855 83.2649 0.811769 83.3195C0.907627 83.4772 1.09951 83.5652 1.2284 83.6974C24.4778 107.55 48.532 130.468 72.8388 153.126C77.0528 157.245 86.0835 158.863 90.5461 154.03C90.6392 153.929 90.7659 153.833 90.8878 153.77C90.9015 153.763 90.8978 153.765 90.9117 153.758C113.521 143.191 136.931 134.156 160.238 125.175C160.552 125.084 160.768 124.884 160.88 124.645C161.055 124.271 161.036 123.787 160.841 123.422C160.768 123.285 160.67 123.157 160.564 123.055C158.644 121.239 156.724 119.423 154.827 117.65C153.809 116.7 153.868 115.071 154.965 114.214C156.551 112.975 158.128 111.767 159.728 110.482C160.289 110.061 160.169 109.082 159.8 108.624C158.166 106.885 156.498 105.081 154.85 103.316C154.114 102.527 154.022 101.322 154.794 100.569C156.502 98.904 158.679 97.6178 159.833 95.4703C160.082 94.9505 160.122 94.2793 159.65 93.8742C157.721 92.1938 155.792 90.5134 153.902 88.9068C153.591 88.6422 153.662 88.1339 153.859 87.7763C154.51 86.528 155.316 85.3288 155.967 84.0806C156.217 83.5608 156.203 82.7873 155.785 82.4844C144.929 73.4236 135.334 62.5375 125.601 52.6335ZM154.632 120.986C155.852 122.139 155.452 124.167 153.885 124.772C133.039 132.823 112.14 140.985 91.8283 150.489C90.9841 150.884 89.9834 150.732 89.299 150.1C65.6337 128.265 42.8134 105.652 18.6775 84.3987C17.5128 83.3731 17.6844 81.5123 19.0271 80.7324C38.9364 69.1681 59.8711 59.5668 80.7383 49.8361C81.6255 49.4223 82.6784 49.6177 83.3574 50.3215C106.628 74.4431 130.312 97.9992 154.632 120.986ZM26.5084 67.9267C23.2558 71.1764 19.9006 74.4793 16.648 77.7289C15.7302 78.5111 14.7496 79.3258 13.8795 80.1457C13.4273 80.5718 12.8343 80.8357 12.2169 80.7587C9.45527 80.4142 4.94832 78.7921 4.47042 76.4007C4.36848 75.8906 4.67825 75.4152 5.07127 75.0732C28.7639 54.4563 50.467 31.4418 72.9848 9.53997C73.622 8.9202 74.5612 8.73074 75.4031 9.01919C76.5225 9.40273 77.6349 9.74257 78.7496 10.0972C80.2446 10.5728 80.7187 12.3757 79.6425 13.5141C78.321 14.912 76.9602 16.2645 75.6863 17.6797C70.9142 22.7588 66.0886 27.7356 61.3655 32.6593C49.9366 44.4464 38.2492 56.2377 26.5084 67.9267ZM39.2931 39.2052C37.6584 40.8274 35.0108 38.5297 36.363 36.6667C41.162 30.1429 45.8541 23.4144 50.5997 16.7883C52.3164 14.3536 53.93 11.5654 55.8108 9.13294C56.6113 8.09771 58.1259 8.08653 59.0449 9.01882C60.1644 10.1545 61.305 11.2715 62.5088 12.3328C63.5417 13.2435 63.644 14.848 62.6687 15.8198C54.8726 23.5888 47.1176 31.4402 39.2931 39.2052ZM49.4641 13.8661C44.821 20.4391 40.1778 27.012 35.3788 33.5359C32.8238 37.0861 30.2635 40.6847 27.6556 44.2705C26.0182 46.5219 23.069 44.531 24.3691 42.0705C30.4702 30.5242 36.235 18.787 42.3495 7.2073C43.0434 5.89317 44.7998 5.58361 45.9718 6.5002C47.2727 7.51754 48.6157 8.47687 49.9442 9.45602C50.8821 10.1472 51.1166 11.4356 50.4611 12.3974C50.1166 12.9029 49.7785 13.3906 49.4641 13.8661ZM2.97698 81.3257C2.58366 80.5247 3.73512 80.0576 4.45127 80.592C5.37309 81.2798 5.18883 82.6904 4.11682 82.2716C4.02744 82.2367 3.93925 82.2 3.85231 82.1617C3.41084 81.9322 3.13561 81.6488 2.97698 81.3257ZM74.7726 151.342C53.0282 131.064 31.5087 110.555 10.6813 89.463C9.24319 88.0066 10.3366 85.2874 12.2637 84.591C12.3331 84.5659 12.4018 84.5404 12.4699 84.5144C13.3913 84.1626 14.4637 84.2427 15.2064 84.8904C39.5765 106.139 62.5402 128.931 86.19 150.925C87.2123 151.876 87.1302 153.533 85.8013 153.965C82.0897 155.173 77.3424 153.823 74.7726 151.342ZM83.5233 46.6473C83.1897 46.2336 82.7362 46.1999 82.3857 46.2394C82.3128 46.2476 82.2522 46.2705 82.1844 46.2987C82.026 46.3643 81.8288 46.3522 81.6736 46.4251C66.0622 53.7519 50.448 60.8293 35.1557 68.7695C50.6847 57.6835 66.2137 46.5974 82.3212 36.3922C83.2384 35.8111 84.4387 35.959 85.1919 36.74C108.243 60.6417 132.635 83.1579 155.284 107.379C156.193 108.351 156.072 109.889 155.023 110.708C154.219 111.336 153.41 111.967 152.609 112.594C151.713 113.295 150.436 113.236 149.613 112.452C127.096 91.0193 105.066 69.0844 83.5233 46.6473ZM153.545 98.1728C152.524 99.0571 150.932 99.0855 149.995 98.113C128.718 76.0184 106.255 55.0065 85.0444 32.8509C84.6747 32.3925 83.9485 32.2493 83.4896 32.6176C67.735 42.3586 52.7199 53.0164 37.6557 63.8296C39.0815 62.569 40.4583 61.464 41.8841 60.2034C55.7775 48.4943 69.6218 36.6909 83.4167 24.7931C84.3693 23.9716 85.8086 24.0723 86.6396 25.0159C108.05 49.3279 131.039 72.1063 155.426 93.4443C156.329 94.2339 156.465 95.5885 155.586 96.404C154.931 97.0114 154.229 97.5801 153.545 98.1728ZM151.636 86.1611C151.619 86.1948 151.593 86.2152 151.569 86.2447C151.487 86.3474 151.4 86.4244 151.301 86.3365C128.229 65.7645 106.521 43.8378 86.1777 20.5565C85.652 20.049 84.7744 20.1145 84.3154 20.4829C70.3069 32.5689 56.1916 44.4503 42.1296 56.4341C53.817 44.6428 65.344 32.5445 76.7685 20.4995C78.5929 18.5786 80.5621 16.6554 82.3921 14.6046C83.3477 13.5337 85.0491 13.4998 85.9928 14.5812C98.0245 28.3693 110.848 41.5104 123.667 54.418C132.74 63.7088 141.732 73.75 151.675 82.2059C152.529 82.9318 152.738 84.158 152.19 85.1339C151.995 85.4819 151.808 85.8253 151.636 86.1611Z" stroke="#FFFCFF" stroke-width="1.52292"/>
<path d="M47.755 88.2875C58.0167 82.9593 68.4944 78.0444 79.1339 73.4395C80.697 72.7592 79.355 70.4351 77.8926 71.0631C67.253 75.668 56.7753 80.5829 46.5136 85.9111C44.9039 86.7469 46.2459 89.071 47.755 88.2875Z" stroke="#FFFCFF" stroke-width="1.52292"/>
<path d="M87.4827 80.3301C76.3701 84.025 66.7049 90.9801 55.8329 95.3802C54.2672 96.0547 55.6753 98.5054 57.1403 97.883C67.7106 93.6397 77.2752 86.7368 88.1298 83.0375C89.8091 82.5806 89.162 79.8731 87.4827 80.3301Z" stroke="#FFFCFF" stroke-width="1.52292"/>
<path d="M68.8199 108.167C77.2115 103.344 85.9696 97.7473 95.1224 94.6267C96.7328 94.0236 96.1841 91.7444 94.6267 92.2034C85.1709 95.4813 76.3119 101.13 67.7183 106.058C66.2036 106.845 67.3052 108.954 68.8199 108.167Z" stroke="#FFFCFF" stroke-width="1.52292"/>
<path d="M105.491 100.194C95.4086 104.732 86.2411 110.77 76.4931 115.948C74.9464 116.751 76.0444 118.853 77.5911 118.05C87.3391 112.872 96.5066 106.834 106.589 102.296C108.286 101.531 107.037 99.3912 105.491 100.194Z" stroke="#FFFCFF" stroke-width="1.52292"/>
<path d="M72.7169 12.4974C63.5211 22.3971 53.704 31.8506 44.1958 41.4C33.5746 52.0398 23.2201 63.4379 11.8196 73.3292C10.5029 74.5254 12.374 76.3726 13.6906 75.1765C25.0911 65.2852 35.4983 53.9878 46.0668 43.2472C55.575 33.6979 65.3922 24.2443 74.5879 14.3447C75.8028 13.2014 73.8791 11.2534 72.7169 12.4974Z" stroke="#FFFCFF" stroke-width="1.52292"/>
</svg>
