<svg width="292" height="237" viewBox="0 0 292 237" fill="none" xmlns="http://www.w3.org/2000/svg">
<path d="M19.109 179.413L11.1202 181.743C5.23955 186.403 -3.79226 200.05 7.1258 217.359C13.2504 217.359 123.518 228.519 176.888 234.399H181.152L285.07 181.743C286.845 180.19 290.932 177.083 286.671 177.083M286.671 177.083C282.411 177.083 214.994 211.7 181.818 229.009M286.671 177.083C278.416 162.703 285.451 152.673 290 149.456L178.822 198.386C126.118 194.059 20.2442 185.404 18.38 185.404C14.5968 185.404 13.1652 187.18 12.7214 187.734C11.3899 189.731 8.72698 195.723 8.72698 203.711C8.72698 211.7 12.7214 211.583 15.0513 212.366M286.671 177.083C290.932 177.083 288.447 180.19 286.671 181.743L181.818 235H176.492C123.122 229.12 14.8516 217.359 8.72698 217.359C-2.19108 200.05 6.84073 186.403 12.7214 181.743L20.7102 179.413M286.671 177.083C282.411 177.083 214.328 211.212 181.152 228.521L15.0513 212.366M181.818 229.009L15.0513 212.366M181.818 229.009C175.693 221.553 176.936 205.931 178.489 199.052M265.431 147.459L288.066 149.789M176.888 199.052C175.335 205.931 173.759 221.553 179.884 229.009M64.3788 90.8728L20.7731 101.524C19.5526 101.746 17.2447 102.523 17.7773 103.854C18.3099 105.186 31.0919 106.85 37.4164 107.516L125.626 112.841M137.405 114.704L159.579 117.169C163.795 122.05 170.231 134.477 162.242 145.129C155.584 146.46 65.8211 137.473 21.7716 132.813C24.2126 132.369 28.3624 126.622 25.4331 107.183M22.1056 132.813C21.3289 134.033 20.2415 136.741 22.1056 137.806C23.9696 138.871 113.422 148.235 157.916 152.784L270.758 108.514C272.866 100.859 275.817 84.2823 270.758 79.2229C265.698 74.1634 253.116 73.7862 247.457 74.23M248.122 84.2156C249.986 83.4167 259.994 79.8885 264.765 78.2242M23.4371 139.803H16.4468C15.1154 140.247 13.2513 141.534 16.4468 143.131M16.4468 143.131C19.6424 144.729 110.825 152.997 156.095 157.213L160.246 157.777C164.795 162.659 171.63 175.618 162.576 188.4C143.935 186.802 61.446 177.172 21.5019 172.956M16.4468 143.131C32.1582 155.647 27.0497 167.963 21.5019 172.956M21.5019 172.956C61.446 177.172 144.933 187.469 163.574 189.067C172.628 176.285 166.396 162.659 161.847 157.777L155.401 157.145C110.131 152.928 21.2436 144.729 18.048 143.131M21.5019 172.956C27.0497 167.963 33.7593 155.647 18.048 143.131M19.1095 175.086V178.081L163.574 193.393M163.574 193.393L273.42 143.797C276.971 139.137 283.007 127.088 278.746 116.17C276.616 112.176 271.201 110.068 268.76 109.513M163.574 193.393L20.7107 178.081V175.086M163.574 193.393L275.022 143.797C278.572 139.137 284.608 127.088 280.347 116.17C278.217 112.176 272.802 110.068 270.361 109.513M267.762 114.506L173.227 154.116M171.895 161.106C172.894 166.542 174.292 178.614 171.895 183.407M178.166 160.271C180.163 164.454 181.148 172.822 179.551 179.746M59.7139 50.3761L47.734 49.5985M47.734 49.5985C43.6286 55.7009 36.5267 70.4354 42.9178 80.5542C45.7699 84.0429 50.3987 84.6433 51.7284 85.2142L132.282 115.171L245.457 104.853C247.566 104.187 251.715 102.456 251.449 100.859C251.183 99.2608 247.344 98.4176 245.457 98.1957L135.944 110.511C131.839 103.189 126.49 86.2794 137.941 77.2257H148.926M47.734 49.5985H58.9883M47.734 49.5985C43.6286 55.7009 38.6168 70.4354 45.0079 80.5542C48.4697 84.0159 51.9981 85.1033 53.3295 85.2142L133.985 114.414L247.059 104.853C249.167 104.187 253.316 102.456 253.05 100.859C252.784 99.2608 248.945 98.4176 247.059 98.1957L136.587 109.911C132.482 102.588 128.092 86.2794 139.542 77.2257H150.527M55.7242 53.9256L130.951 75.2285M50.3987 59.5843C49.2891 64.1334 47.7357 74.6295 50.3987 80.2215M57.0557 61.9144C56.279 66.3525 55.1916 76.2939 57.0557 80.5544M64.0457 63.9115C62.7143 68.5715 60.8502 79.356 64.0457 85.2143M250.121 67.5728C246.793 71.4562 241.333 82.7511 246.127 96.8643M79.3578 21.6386H63.713C62.0487 22.1934 59.3226 23.8502 57.7214 26.6315C55.9875 29.6432 52.0627 35.2858 55.7242 44.9386C56.7722 47.7013 57.3766 47.8512 57.7214 48.7679M57.7214 48.7679C58.3405 50.4134 58.0777 49.6942 57.7214 48.7679ZM57.7214 48.7679L150.924 76.8929L254.446 67.2401C255.999 66.1305 258.64 63.7118 256.776 62.9129C254.912 62.1141 252.005 62.5801 250.785 62.9129L152.921 72.2329C149.815 65.9086 145.865 51.1963 154.919 42.9415M230.147 29.9599L256.376 35.6586L186.874 40.2784M254.447 35.2858C251.229 40.0568 246.724 52.1284 254.447 62.2473M183.212 15.647L227.15 8.32419M184.544 20.3071C185.432 22.9699 186.674 29.6271 184.544 34.9528M189.536 19.3085C190.646 22.6371 192.199 30.3594 189.536 34.62M195.861 17.6442V32.6228M75.5362 12.6849L152.589 2L234.87 4.02716C238.145 4.16548 243.994 3.66429 244.793 10.3214C245.791 18.6429 249.12 23.3029 239.134 26.2986C231.145 28.6951 194.974 38.3924 177.886 42.9414L83.6849 38.9471C81.7986 38.9471 72.8381 35.6588 72.8381 35.6588M185.176 156.629C186.508 160.29 189.4 169.24 186.205 177.495M267.032 147.459L289.667 149.789M65.98 90.8728L22.3743 101.524C21.1538 101.746 18.8459 102.523 19.3785 103.854C19.9111 105.186 32.6931 106.85 39.0176 107.516L127.227 112.841M139.542 114.509L161.18 117.169C165.396 122.05 171.832 134.477 163.843 145.129C157.186 146.46 67.4222 137.473 23.3728 132.813C25.8138 132.369 29.9635 126.622 27.0343 107.183M23.7068 132.813C22.9301 134.033 21.8427 136.741 23.7068 137.806C25.5708 138.871 114.01 148.993 158.503 153.542L272.359 108.514C274.467 100.859 277.418 84.2823 272.359 79.2229C267.299 74.1634 254.717 73.7862 249.058 74.23M249.723 84.2156C251.587 83.4167 261.595 79.8885 266.367 78.2242M25.0382 139.803H18.048C16.7166 140.247 14.8525 141.534 18.048 143.131M268.76 114.014L173.496 154.003M173.496 161.106C174.495 166.542 175.893 178.614 173.496 183.407M179.767 160.271C181.764 164.454 182.75 172.822 181.152 179.746M55.9927 53.9256L117.041 71.3579L129.024 74.6923M51.9999 59.5843C50.8903 64.1334 49.3369 74.6295 51.9999 80.2215M58.6569 61.9144C57.8802 66.3525 56.7928 76.2939 58.6569 80.5544M65.6469 63.9115C64.3154 68.5715 62.4514 79.356 65.6469 85.2143M251.722 67.5728C248.394 71.4562 242.935 82.7511 247.728 96.8643M80.959 21.6386H65.3142C63.6499 22.1934 60.9311 24.2505 59.3226 26.6315C57.3772 29.5111 53.6638 35.2858 57.3254 44.9386C58.3733 47.7013 58.9981 49.3535 59.3429 50.2702M59.3429 50.2702C59.962 51.9157 58.7953 48.8035 58.439 47.8771L59.3429 50.2702ZM59.3429 50.2702L152.525 76.8929L256.047 67.2401C257.601 66.1305 260.241 63.7118 258.377 62.9129C256.513 62.1141 253.606 62.5801 252.386 62.9129L154.523 72.2329C151.416 65.9086 147.466 51.1963 156.52 42.9415M231.748 29.9599L256.048 35.2858M256.048 35.2858L188.475 40.2784M256.048 35.2858C252.83 40.0568 248.326 52.1284 256.048 62.2473M184.796 15.383L225.723 8.562M186.145 20.3071C187.033 22.9699 188.275 29.6271 186.145 34.9528M191.137 19.3085C192.247 22.6371 193.8 30.3594 191.137 34.62M197.462 17.6442V32.6228M76.2986 12.3186L154.19 2L236.306 4.06323C239.134 4.33 245.595 3.66429 246.394 10.3214C247.393 18.6429 250.721 23.3029 240.735 26.2986C232.746 28.6951 196.575 38.3924 179.488 42.9414L85.2861 38.9471C83.3998 38.9471 74.4393 35.6588 74.4393 35.6588M186.778 156.629C188.109 160.29 191.001 169.24 187.806 177.495M75.5362 12.3186L174.557 16.6456C179.344 24.9647 178.732 29.6294 174.557 37.9485C174.557 37.9485 107.366 36.4636 76.298 33.357C80.2925 30.3613 85.1228 22.1711 75.5362 12.3186ZM76.298 12.6513L176.158 16.6456C180.945 24.9647 180.333 29.6294 176.158 37.9485C176.158 37.9485 107.366 37.0608 76.298 33.9542C80.2925 30.9585 85.8846 22.5039 76.298 12.6513Z" stroke="#7831B2" stroke-width="3" stroke-linecap="round"/>
</svg>
