<svg width="247" height="178" viewBox="0 0 247 178" fill="none" xmlns="http://www.w3.org/2000/svg">
<path d="M11.9215 89.3699L2.30039 60.272C1.43179 57.6451 2.89513 54.9284 5.53818 54.2612L102.946 29.6708L156.407 14.1845L197.606 5.06937C200.089 4.51999 202.671 5.97924 203.524 8.41402L214.523 39.8188M11.9215 89.3699L38.2027 171.806C39.0245 174.384 41.7713 175.919 44.3493 175.241L238.056 124.281C240.69 123.588 242.125 120.858 241.233 118.239L214.523 39.8188M11.9215 89.3699L128.59 109.213C129.997 109.452 131.411 109.083 132.469 108.202L214.523 39.8188M124.806 90.9849L135.679 88.5011L146.798 122.881L135.895 125.126M124.806 90.9849L113.932 93.4687L124.992 127.371L135.895 125.126M124.806 90.9849L135.895 125.126M69.0544 35.9377L64.4642 22.0126C64.0271 20.6867 64.7726 19.3167 66.1096 18.9912L126.329 4.32909C127.4 4.06813 128.545 4.5594 129.073 5.55518C130.39 8.03818 132.763 12.9541 133.856 17.9735M67.9825 35.4375C65.3878 30.3683 63.7616 23.7006 63.0448 20.3078C62.7831 19.069 63.554 17.9154 64.7809 17.6469L99.0175 10.1562L127.913 2.55391C129.183 2.21984 130.54 2.95526 130.978 4.21537L136.201 19.2246M14.5629 89.3099L4.9418 60.2121C4.0732 57.5851 5.53655 54.8684 8.1796 54.2012L105.587 29.6108L159.048 14.1245L200.247 5.0094C202.731 4.46001 205.312 5.91927 206.165 8.35405L217.164 39.7588M14.5629 89.3099C14.5629 89.3099 133.449 116.192 133.445 109.529C133.442 102.867 217.164 39.7588 217.164 39.7588M14.5629 89.3099L31.9601 146.457L40.74 171.815C41.6213 174.36 44.3794 175.829 46.929 175.11L148.313 146.515L240.576 124.151C243.26 123.5 244.747 120.741 243.843 118.087L217.164 39.7588M126.096 89.0448L136.97 86.561L148.088 120.941L137.185 123.186M126.096 89.0448L115.223 91.5286L126.283 125.431L137.185 123.186M126.096 89.0448L137.185 123.186M75.3615 33.7973L72.2603 25.2281C71.7621 23.8515 72.5581 22.4066 73.973 22.1192L125.039 11.7477C126.226 11.5066 127.453 12.1721 127.921 13.3104L131.668 22.4302" stroke="#7831B2" stroke-width="4" stroke-linejoin="round"/>
</svg>
