<svg width="263" height="202" viewBox="0 0 263 202" fill="none" xmlns="http://www.w3.org/2000/svg">
<path d="M34.2635 71.9106L33.89 69.9458L33.89 69.9458L34.2635 71.9106ZM209.242 38.6504L209.616 40.6153L209.616 40.6153L209.242 38.6504ZM215.427 42.8595L217.392 42.486L217.392 42.486L215.427 42.8595ZM233.024 135.437L231.06 135.811L231.06 135.811L233.024 135.437ZM228.889 141.608L229.291 143.567L229.291 143.567L228.889 141.608ZM57.1853 176.786L56.7839 174.827L56.7839 174.827L57.1853 176.786ZM50.9582 172.745L52.9111 172.314L52.9111 172.314L50.9582 172.745ZM30.0859 78.2484L28.133 78.6798L28.133 78.6798L30.0859 78.2484ZM33.2055 71.9118L33.579 73.8766L33.579 73.8766L33.2055 71.9118ZM208.184 38.6516L207.811 36.6868L208.184 38.6516ZM214.369 42.8607L212.404 43.2341L212.404 43.2341L214.369 42.8607ZM231.967 135.439L233.931 135.065L233.931 135.065L231.967 135.439ZM227.831 141.609L228.233 143.568L228.233 143.568L227.831 141.609ZM56.1274 176.788L55.7259 174.828L55.7259 174.828L56.1274 176.788ZM49.9002 172.746L51.8531 172.315L51.8531 172.315L49.9002 172.746ZM29.0279 78.2496L30.9808 77.8182L29.0279 78.2496ZM4.68306 45.124L4.21414 43.1798L4.21414 43.1798L4.68306 45.124ZM260.03 152.868L258.065 153.242L258.065 153.242L260.03 152.868ZM258.371 155.337L257.974 153.377L257.974 153.377L258.371 155.337ZM38.4523 199.783L38.0561 197.823L38.0561 197.823L38.4523 199.783ZM35.9657 198.159L34.0116 198.585L34.0116 198.585L35.9657 198.159ZM3.15637 47.62L1.20224 48.0459L1.20224 48.0459L3.15637 47.62ZM3.62396 44.0671L3.15504 42.1229L3.15504 42.1229L3.62396 44.0671ZM258.971 151.811L257.006 152.185L257.006 152.185L258.971 151.811ZM257.312 154.281L256.915 152.32L256.915 152.32L257.312 154.281ZM37.3932 198.726L36.997 196.766L36.997 196.766L37.3932 198.726ZM34.9066 197.103L32.9525 197.528L32.9525 197.528L34.9066 197.103ZM2.09727 46.5632L0.143142 46.989L0.143142 46.989L2.09727 46.5632ZM52.1264 136.181C51.3526 135.392 50.0864 135.381 49.2981 136.154C48.5099 136.928 48.4981 138.194 49.2719 138.983L52.1264 136.181ZM55.0975 142.062L53.6702 143.463L53.6702 143.463L55.0975 142.062ZM56.8031 141.785L55.006 140.907L55.006 140.907L56.8031 141.785ZM65.1823 129.189C65.6671 128.196 65.2556 126.999 64.2631 126.514C63.2706 126.029 62.073 126.441 61.5882 127.433L65.1823 129.189ZM131.518 120.291C130.779 119.469 129.515 119.403 128.694 120.142C127.872 120.881 127.806 122.145 128.545 122.966L131.518 120.291ZM133.937 125.969L132.451 127.307L132.451 127.307L133.937 125.969ZM135.689 125.693L137.515 126.511L137.515 126.511L135.689 125.693ZM143.485 113.176C143.936 112.168 143.485 110.985 142.477 110.533C141.469 110.082 140.285 110.533 139.834 111.541L143.485 113.176ZM34.637 73.8754L209.616 40.6153L208.869 36.6856L33.89 69.9458L34.637 73.8754ZM213.462 43.233L231.06 135.811L234.989 135.064L217.392 42.486L213.462 43.233ZM228.488 139.648L56.7839 174.827L57.5868 178.746L229.291 143.567L228.488 139.648ZM52.9111 172.314L32.0388 77.817L28.133 78.6798L49.0052 173.176L52.9111 172.314ZM56.7839 174.827C55.0232 175.188 53.2988 174.069 52.9111 172.314L49.0052 173.176C49.8642 177.065 53.6852 179.545 57.5868 178.746L56.7839 174.827ZM231.06 135.811C231.396 137.578 230.25 139.287 228.488 139.648L229.291 143.567C233.195 142.767 235.734 138.979 234.989 135.064L231.06 135.811ZM209.616 40.6153C211.401 40.276 213.123 41.448 213.462 43.233L217.392 42.486C216.64 38.5307 212.824 35.9338 208.869 36.6856L209.616 40.6153ZM33.89 69.9458C29.8518 70.7134 27.2464 74.666 28.133 78.6798L32.0388 77.817C31.6387 76.0056 32.8145 74.2218 34.637 73.8754L33.89 69.9458ZM33.579 73.8766L208.558 40.6164L207.811 36.6868L32.832 69.9469L33.579 73.8766ZM212.404 43.2341L230.002 135.812L233.931 135.065L216.334 42.4872L212.404 43.2341ZM227.43 139.649L55.7259 174.828L56.5288 178.747L228.233 143.568L227.43 139.649ZM51.8531 172.315L30.9808 77.8182L27.075 78.6809L47.9473 173.178L51.8531 172.315ZM55.7259 174.828C53.9652 175.189 52.2408 174.07 51.8531 172.315L47.9473 173.178C48.8062 177.066 52.6272 179.546 56.5288 178.747L55.7259 174.828ZM230.002 135.812C230.338 137.579 229.192 139.288 227.43 139.649L228.233 143.568C232.137 142.768 234.676 138.981 233.931 135.065L230.002 135.812ZM208.558 40.6164C210.343 40.2771 212.065 41.4491 212.404 43.2341L216.334 42.4872C215.582 38.5319 211.766 35.935 207.811 36.6868L208.558 40.6164ZM32.832 69.9469C28.7938 70.7145 26.1884 74.6672 27.075 78.6809L30.9808 77.8182C30.5807 76.0068 31.7566 74.223 33.579 73.8766L32.832 69.9469ZM55.2179 69.0617C58.5797 84.3884 63.5712 107.817 67.6195 128.29C69.644 138.528 71.4298 148.012 72.6578 155.369C73.2722 159.049 73.7437 162.179 74.0361 164.595C74.3391 167.101 74.4185 168.618 74.3485 169.223L78.3221 169.682C78.4558 168.526 78.2992 166.529 78.0071 164.115C77.7044 161.612 77.2218 158.416 76.6033 154.71C75.3655 147.295 73.5708 137.766 71.5435 127.514C67.4881 107.005 62.4905 83.5481 59.125 68.2047L55.2179 69.0617ZM82.7501 63.7712L101.519 162.512L105.448 161.765L86.6798 63.0242L82.7501 63.7712ZM109.675 58.1148L128.543 157.375L132.472 156.628L113.605 57.3678L109.675 58.1148ZM136.903 54.0507C140.078 69.3348 144.941 92.5119 149.214 112.37C151.35 122.298 153.34 131.402 154.898 138.277C155.676 141.713 156.349 144.601 156.879 146.759C157.389 148.837 157.808 150.416 158.079 151.083L161.785 149.58C161.65 149.247 161.305 148.011 160.764 145.805C160.242 143.681 159.576 140.821 158.799 137.393C157.246 130.539 155.259 121.452 153.124 111.528C148.854 91.683 143.993 68.5159 140.819 53.2373L136.903 54.0507ZM165.9 47.9659L184.866 147.746L188.796 146.999L169.83 47.219L165.9 47.9659ZM192.726 41.7898L211.693 141.57L215.622 140.823L196.656 41.0429L192.726 41.7898ZM36.6242 99.344L217.476 64.9676L216.729 61.038L35.8773 95.4144L36.6242 99.344ZM40.9191 127.605L223.33 92.932L222.583 89.0023L40.1722 123.675L40.9191 127.605ZM46.2085 155.137C74.3754 148.976 117.292 139.849 154.497 132.495C173.102 128.817 190.263 125.585 203.434 123.389C210.021 122.291 215.589 121.455 219.832 120.951C221.954 120.699 223.723 120.533 225.109 120.457C226.543 120.379 227.424 120.408 227.851 120.481L228.532 116.54C227.623 116.383 226.35 116.384 224.892 116.463C223.387 116.545 221.525 116.722 219.36 116.979C215.027 117.493 209.388 118.341 202.776 119.444C189.547 121.65 172.339 124.89 153.721 128.571C116.481 135.932 73.5365 145.065 45.3537 151.229L46.2085 155.137ZM5.15199 47.0683C36.6632 39.4682 84.7422 28.4374 128.504 19.5885C150.386 15.1638 171.17 11.2884 188.256 8.66008C205.423 6.01924 218.634 4.67537 225.505 5.21526L225.819 1.22755C218.409 0.645343 204.74 2.07729 187.648 4.70658C170.474 7.34843 149.621 11.2375 127.711 15.6679C83.887 24.5294 35.7574 35.572 4.21414 43.1798L5.15199 47.0683ZM230.007 5.62649L258.065 153.242L261.995 152.495L233.936 4.87954L230.007 5.62649ZM257.974 153.377L38.0561 197.823L38.8485 201.743L258.767 157.298L257.974 153.377ZM37.9198 197.734L5.1105 47.1941L1.20224 48.0459L34.0116 198.585L37.9198 197.734ZM38.0561 197.823C38.0274 197.828 38.004 197.824 37.9807 197.812C37.9543 197.799 37.9368 197.778 37.9279 197.759L34.2821 199.404C35.0557 201.118 36.9309 202.131 38.8485 201.743L38.0561 197.823ZM37.9279 197.758C37.925 197.752 37.9221 197.744 37.9198 197.734L34.0116 198.585C34.0738 198.871 34.165 199.145 34.2821 199.404L37.9279 197.758ZM258.065 153.242C258.077 153.304 258.037 153.365 257.974 153.377L258.767 157.298C260.977 156.851 262.416 154.71 261.995 152.495L258.065 153.242ZM4.21414 43.1798C1.98512 43.7174 0.737892 45.9153 1.20224 48.0459L5.1105 47.1941C5.09736 47.1339 5.11178 47.1005 5.11928 47.0882C5.12343 47.0813 5.12683 47.0785 5.12834 47.0773C5.1287 47.0771 5.13421 47.0725 5.15199 47.0683L4.21414 43.1798ZM4.09289 46.0114C35.6041 38.4114 83.6831 27.3806 127.445 18.5317C149.327 14.1069 170.111 10.2315 187.197 7.6032C204.364 4.96236 217.575 3.6185 224.446 4.15838L224.76 0.170675C217.35 -0.411529 203.68 1.02042 186.589 3.64971C169.415 6.29156 148.562 10.1806 126.652 14.611C82.8279 23.4725 34.6983 34.5151 3.15504 42.1229L4.09289 46.0114ZM228.947 4.56962L257.006 152.185L260.936 151.438L232.877 3.82267L228.947 4.56962ZM256.915 152.32L36.997 196.766L37.7894 200.686L257.708 156.241L256.915 152.32ZM36.8607 196.677L4.0514 46.1373L0.143142 46.989L32.9525 197.528L36.8607 196.677ZM36.997 196.766C36.9814 196.769 36.9696 196.769 36.9601 196.768C36.95 196.766 36.9391 196.764 36.9278 196.758L35.2822 200.404C36.0416 200.747 36.9142 200.863 37.7894 200.686L36.997 196.766ZM36.9278 196.758C36.9099 196.75 36.8943 196.738 36.8832 196.725C36.8735 196.713 36.8655 196.699 36.8607 196.677L32.9525 197.528C33.241 198.852 34.1395 199.889 35.2822 200.404L36.9278 196.758ZM257.006 152.185C257.018 152.247 256.978 152.308 256.915 152.32L257.708 156.241C259.918 155.794 261.357 153.653 260.936 151.438L257.006 152.185ZM3.15504 42.1229C0.926023 42.6605 -0.321206 44.8585 0.143142 46.989L4.0514 46.1373C4.03826 46.077 4.05268 46.0437 4.06019 46.0313C4.06433 46.0244 4.06773 46.0216 4.06924 46.0205C4.0696 46.0202 4.07511 46.0157 4.09289 46.0114L3.15504 42.1229ZM49.2719 138.983L53.6702 143.463L56.5247 140.661L52.1264 136.181L49.2719 138.983ZM58.6001 142.663L65.1823 129.189L61.5882 127.433L55.006 140.907L58.6001 142.663ZM53.6702 143.463C55.1491 144.97 57.6735 144.56 58.6001 142.663L55.006 140.907C55.2915 140.323 56.0691 140.197 56.5247 140.661L53.6702 143.463ZM128.545 122.966L132.451 127.307L135.424 124.631L131.518 120.291L128.545 122.966ZM137.515 126.511L143.485 113.176L139.834 111.541L133.864 124.876L137.515 126.511ZM132.451 127.307C133.93 128.951 136.611 128.529 137.515 126.511L133.864 124.876C134.142 124.254 134.968 124.125 135.424 124.631L132.451 127.307Z" fill="#7831B2"/>
</svg>
