<svg width="241" height="194" viewBox="0 0 241 194" fill="none" xmlns="http://www.w3.org/2000/svg">
<path d="M42.9412 98.4565H138.03L138.164 98.3442M138.164 98.3442L172.397 69.6696M138.164 98.3442L138.03 97.9677M138.164 98.3442L153.714 141.966M172.397 69.6696L239 13.8812V5.08145H108.131M172.397 69.6696L172.34 69.6128M172.397 69.6696L200.769 97.9675M106.17 5.08149L5.69013 88.1902C4.05631 90.1457 1.76895 94.5456 5.69013 96.5011C9.6113 98.4566 25.2959 98.2936 32.6481 97.9677M77.2515 99.4341L74.3106 131.211C74.474 133.004 75.487 136.784 78.2318 137.566C80.9766 138.349 129.697 140.826 153.714 141.966M153.714 141.966L199.298 99.4341L211.552 88.6789C212.532 87.2122 213.904 83.5946 211.552 80.8569C209.199 78.1192 194.887 63.7463 188.025 56.902M180.672 62.7687L208.121 91.6123M32.648 97.4786C61.5666 66.1907 112.052 51.5244 112.542 49.5689C112.934 48.0045 116.057 44.8209 119.404 43.7024C124.515 41.9943 132.638 41.7469 132.638 47.6134C132.638 53.4799 116.953 56.902 109.111 57.8798C84.0154 67.2662 54.2144 88.19 42.4509 97.4786L41.4706 102.368C51.2736 103.932 49.4764 112.797 47.3524 117.034C56.0116 133.656 73.6243 167.583 74.8006 170.321C75.977 173.059 76.9246 178.632 77.2513 181.076C76.5978 184.173 73.4282 190.658 65.978 191.832C58.5277 193.005 55.0314 187.758 54.2144 184.987L36.0791 120.456C25.4919 113.025 30.6875 105.301 34.6087 102.368L32.6481 98.4566M41.4162 98.4566H136.505L136.639 98.3442M136.639 98.3442L170.872 69.6696M136.639 98.3442L136.505 97.9677M136.639 98.3442L152.189 141.966M170.872 69.6696L237.475 13.8813V5.08155H106.606M170.872 69.6696L170.815 69.6128M170.872 69.6696L199.244 97.9675M104.645 5.08155L4.16508 88.1903C3.27496 89.2556 2.19085 91.0466 2.02243 92.7725M2.02243 92.7725C1.88172 94.2144 2.38021 95.611 4.16508 96.5011C8.08626 98.4566 23.7709 98.2937 31.123 97.9678M2.02243 92.7725C1.81224 90.8034 3.12188 88.5582 4.16508 87.3096L106.595 2M2.02243 92.7725C2.14144 93.8873 2.7476 94.9136 4.16508 95.6205C8.08626 97.576 23.7709 97.4131 31.123 97.0871M75.7261 99.4341L72.7852 131.211C72.9486 133.003 73.9616 136.784 76.7064 137.566C76.7325 137.574 76.7629 137.581 76.7973 137.589M76.7973 137.589C80.3772 138.396 128.401 140.836 152.189 141.966M76.7973 137.589C79.6794 138.221 90.4923 132.398 152.189 141.966M152.189 141.966L197.773 99.4341M152.189 141.966L175.442 119.089L197.773 99.4341M197.773 99.4341L210.026 88.6788C211.007 87.2122 212.379 83.5946 210.026 80.8568C207.674 78.1191 193.361 63.7462 186.499 56.902M179.147 62.7687L206.595 91.6123M31.1229 97.4786C59.8141 65.8267 110.527 51.5244 111.017 49.5689C111.409 48.0045 114.532 44.8209 117.879 43.7024C122.99 41.9943 131.113 41.7469 131.113 47.6134C131.113 53.4799 115.428 56.902 107.586 57.8798C82.4903 67.2662 52.6894 88.19 40.9259 97.4786L39.9455 102.368C49.7484 103.932 47.9512 112.797 45.8272 117.034C54.4865 133.656 72.0991 167.583 73.2755 170.321C74.4518 173.059 75.3994 178.632 75.7262 181.076C75.0727 184.173 71.903 190.658 64.4528 191.832C57.0026 193.005 53.5062 187.758 52.6893 184.987L34.554 120.456C23.9668 113.025 29.1623 105.301 33.0835 102.368L31.1229 98.4566" stroke="#7831B2" stroke-width="4" stroke-linecap="round"/>
</svg>
