<svg width="175" height="181" viewBox="0 0 175 181" fill="none" xmlns="http://www.w3.org/2000/svg">
<path d="M79.9295 59.0995C79.9625 58.2718 79.3182 57.574 78.4904 57.5409C77.6627 57.5079 76.9649 58.1522 76.9319 58.98L79.9295 59.0995ZM104.274 112.96L103.885 114.409L104.274 112.96ZM155.297 77.0392C155.655 76.2918 155.338 75.3962 154.591 75.0389C153.844 74.6817 152.948 74.9979 152.591 75.7453L155.297 77.0392ZM76.9677 77.3314C77.3521 78.0652 78.2586 78.3485 78.9924 77.9641C79.7263 77.5797 80.0096 76.6732 79.6252 75.9394L76.9677 77.3314ZM100.628 5.38746L100.98 6.84565L100.628 5.38746ZM172.926 43.0545L171.429 42.9678L171.429 42.9678L172.926 43.0545ZM145.506 91.0349C144.822 91.5018 144.646 92.435 145.113 93.1194C145.579 93.8037 146.513 93.98 147.197 93.5132L145.506 91.0349ZM92.5028 106.829C92.689 106.022 92.1857 105.216 91.3785 105.03C90.5712 104.844 89.7659 105.347 89.5796 106.155L92.5028 106.829ZM88.3587 118.116L86.8971 117.778L86.6796 118.721L87.4488 119.308L88.3587 118.116ZM102.132 128.625L101.222 129.817L101.727 130.203L102.355 130.108L102.132 128.625ZM125.598 114.434C125.784 113.627 125.281 112.822 124.474 112.635C123.667 112.449 122.861 112.952 122.675 113.76L125.598 114.434ZM88.905 119.721C89.7322 119.677 90.3672 118.97 90.3232 118.143C90.2792 117.316 89.5729 116.681 88.7456 116.725L88.905 119.721ZM42.1118 120.708L42.0321 119.21L41.8674 119.219L41.7084 119.263L42.1118 120.708ZM33.2527 122.478C32.5499 122.917 32.3357 123.842 32.7743 124.545C33.2129 125.248 34.1382 125.462 34.841 125.023L33.2527 122.478ZM158.966 146.092L159.832 144.868L159.76 144.816L159.682 144.774L158.966 146.092ZM165.436 154.632C165.631 155.437 166.442 155.932 167.247 155.736C168.052 155.541 168.547 154.73 168.351 153.925L165.436 154.632ZM85.2389 44.5695C84.474 44.2514 83.596 44.6136 83.2779 45.3786C82.9598 46.1435 83.322 47.0214 84.0869 47.3395L85.2389 44.5695ZM133.675 42.7705L132.74 41.5973L133.675 42.7705ZM153.259 63.2473C154.082 63.3427 154.827 62.753 154.922 61.9301C155.017 61.1072 154.428 60.3627 153.605 60.2672L153.259 63.2473ZM83.9276 44.2684C83.1627 43.9503 82.2847 44.3125 81.9666 45.0774C81.6485 45.8424 82.0107 46.7203 82.7756 47.0384L83.9276 44.2684ZM132.364 42.4694L131.429 41.2962L132.364 42.4694ZM151.948 62.9462C152.771 63.0416 153.515 62.4519 153.611 61.629C153.706 60.8061 153.116 60.0616 152.294 59.9661L151.948 62.9462ZM80.3761 59.1313C80.4091 58.3035 79.7648 57.6057 78.937 57.5727C78.1093 57.5397 77.4115 58.184 77.3785 59.0118L80.3761 59.1313ZM103.266 111.353L103.655 109.904L103.655 109.904L103.266 111.353ZM154.743 77.529C155.101 76.7816 154.784 75.886 154.037 75.5287C153.29 75.1714 152.394 75.4877 152.037 76.2351L154.743 77.529ZM77.5564 77.6564C77.9408 78.3902 78.8474 78.6735 79.5812 78.2891C80.3151 77.9047 80.5983 76.9982 80.2139 76.2643L77.5564 77.6564ZM171.917 41.447L173.415 41.5337L173.415 41.5336L171.917 41.447ZM145.842 89.7365C145.158 90.2033 144.981 91.1366 145.448 91.8209C145.915 92.5053 146.848 92.6816 147.533 92.2148L145.842 89.7365ZM91.4939 105.221C91.6802 104.414 91.1768 103.609 90.3696 103.423C89.5624 103.236 88.757 103.74 88.5708 104.547L91.4939 105.221ZM87.3499 116.508L85.8883 116.171L85.6707 117.114L86.44 117.701L87.3499 116.508ZM101.123 127.017L100.213 128.21L100.718 128.595L101.346 128.501L101.123 127.017ZM120.445 124.113L120.668 125.596L121.677 125.445L121.907 124.45L120.445 124.113ZM124.589 112.827C124.776 112.019 124.272 111.214 123.465 111.028C122.658 110.841 121.852 111.345 121.666 112.152L124.589 112.827ZM87.8957 118.113C88.723 118.069 89.3579 117.363 89.3139 116.535C89.2699 115.708 88.5636 115.073 87.7364 115.117L87.8957 118.113ZM41.1026 119.1L41.0229 117.602L40.8581 117.611L40.6992 117.656L41.1026 119.1ZM32.2435 120.871C31.5407 121.309 31.3265 122.234 31.7651 122.937C32.2037 123.64 33.1289 123.854 33.8318 123.416L32.2435 120.871ZM121.162 122.796C120.434 122.4 119.524 122.67 119.128 123.398C118.733 124.126 119.003 125.037 119.731 125.432L121.162 122.796ZM157.959 144.485L158.825 143.26L158.753 143.209L158.675 143.166L157.959 144.485ZM164.429 153.025C164.624 153.83 165.435 154.324 166.24 154.129C167.045 153.934 167.54 153.123 167.344 152.318L164.429 153.025ZM63.4375 149.673L61.9422 149.792L63.4375 149.673ZM35.0026 179.011L35.0585 180.51L35.0026 179.011ZM2.10138 151.958L3.5967 151.84L2.10138 151.958ZM30.5363 122.62L30.4804 121.121L30.5363 122.62ZM62.6891 158.239L61.2379 157.86L62.6891 158.239ZM2.84982 143.392L1.39863 143.012L2.84982 143.392ZM51.7357 138.58C52.3577 138.032 52.4183 137.085 51.8711 136.463C51.324 135.841 50.3761 135.78 49.7542 136.327L51.7357 138.58ZM18.5836 147.396C18.1997 146.662 17.2934 146.378 16.5593 146.762C15.8252 147.145 15.5413 148.052 15.9252 148.786L18.5836 147.396ZM76.9319 58.98C76.5855 67.6665 77.4024 79.8356 81.208 90.6527C85.0125 101.467 91.9132 111.197 103.885 114.409L104.663 111.512C94.0401 108.661 87.6774 100.002 84.038 89.6571C80.3997 79.3153 79.5923 67.5556 79.9295 59.0995L76.9319 58.98ZM103.885 114.409C115.849 117.62 124.993 116.431 133.071 110.112C140.985 103.921 147.707 92.9171 155.297 77.0392L152.591 75.7453C144.997 91.6305 138.526 102.035 131.222 107.749C124.081 113.336 115.983 114.549 104.663 111.512L103.885 114.409ZM79.6252 75.9394C75.0531 67.2108 71.6031 51.9149 73.7657 37.7803C74.8434 30.7369 77.3031 24.0576 81.6361 18.6269C85.9543 13.2145 92.1929 8.96505 100.98 6.84565L100.277 3.92928C90.8715 6.19773 84.0441 10.7985 79.291 16.7558C74.5527 22.6947 71.9358 29.9045 70.8002 37.3265C68.5364 52.1227 72.1127 68.0629 76.9677 77.3314L79.6252 75.9394ZM100.98 6.84565C118.767 2.55549 136.785 6.21241 150.181 13.7221C163.67 21.2839 172.037 32.4623 171.429 42.9678L174.424 43.1411C175.13 30.9361 165.54 18.8931 151.648 11.1052C137.663 3.26506 118.874 -0.556268 100.277 3.92928L100.98 6.84565ZM171.429 42.9678C171.096 48.7196 170.987 53.3701 170.577 57.5529C170.171 61.6923 169.48 65.2156 168.035 68.5853C165.154 75.3074 159.141 81.7333 145.506 91.0349L147.197 93.5132C160.942 84.1364 167.56 77.3077 170.793 69.7673C172.405 66.0057 173.141 62.1457 173.563 57.8458C173.98 53.5894 174.1 48.7446 174.424 43.1411L171.429 42.9678ZM89.5796 106.155L86.8971 117.778L89.8203 118.453L92.5028 106.829L89.5796 106.155ZM87.4488 119.308L101.222 129.817L103.042 127.432L89.2686 116.923L87.4488 119.308ZM102.355 130.108L121.677 127.204L121.231 124.237L101.909 127.142L102.355 130.108ZM122.916 126.058L125.598 114.434L122.675 113.76L119.993 125.384L122.916 126.058ZM88.7456 116.725L42.0321 119.21L42.1915 122.206L88.905 119.721L88.7456 116.725ZM41.7084 119.263C40.718 119.54 39.1269 120.025 37.5431 120.588C35.9963 121.139 34.3222 121.811 33.2527 122.478L34.841 125.023C35.6065 124.546 37.003 123.965 38.5491 123.415C40.0581 122.877 41.5819 122.413 42.5152 122.153L41.7084 119.263ZM120.738 127.039L158.25 147.41L159.682 144.774L122.17 124.403L120.738 127.039ZM158.099 147.316C159.251 148.131 161.023 149.511 162.568 150.975C163.341 151.708 164.03 152.437 164.552 153.108C165.097 153.809 165.361 154.323 165.436 154.632L168.351 153.925C168.124 152.99 167.545 152.07 166.92 151.267C166.273 150.434 165.467 149.59 164.632 148.798C162.961 147.214 161.072 145.745 159.832 144.868L158.099 147.316ZM84.6629 45.9545C84.0869 47.3395 84.0875 47.3398 84.0882 47.3401C84.0886 47.3402 84.0894 47.3406 84.0901 47.3409C84.0917 47.3415 84.0936 47.3423 84.096 47.3433C84.1009 47.3453 84.1075 47.348 84.1159 47.3515C84.1327 47.3584 84.1566 47.3681 84.1875 47.3805C84.2492 47.4054 84.3388 47.4411 84.4549 47.4864C84.6873 47.577 85.0261 47.706 85.4618 47.8635C86.3329 48.1784 87.5923 48.6078 89.1619 49.0727C92.2982 50.0016 96.6893 51.0769 101.708 51.659C111.701 52.8182 124.438 52.0476 134.61 43.9437L132.74 41.5973C123.477 48.9774 111.707 49.7988 102.053 48.679C97.2482 48.1216 93.0306 47.0897 90.0139 46.1962C88.5071 45.7499 87.304 45.3394 86.4817 45.0422C86.0707 44.8936 85.7551 44.7734 85.5447 44.6914C85.4395 44.6503 85.3606 44.6189 85.3092 44.5982C85.2835 44.5878 85.2647 44.5801 85.253 44.5753C85.2471 44.5729 85.243 44.5712 85.2406 44.5702C85.2394 44.5697 85.2387 44.5694 85.2384 44.5693C85.2383 44.5693 85.2384 44.5693 85.2383 44.5693C85.2386 44.5694 85.2389 44.5695 84.6629 45.9545ZM134.61 43.9437C137.004 42.0362 138.735 40.9547 139.97 40.4458C141.224 39.929 141.639 40.1283 141.739 40.1915C141.916 40.3035 142.222 40.6737 142.465 41.7718C142.697 42.8167 142.8 44.1697 142.89 45.7923C143.064 48.9088 143.173 52.9454 144.411 56.2914C145.044 58.0019 145.996 59.6141 147.463 60.8719C148.941 62.139 150.85 62.9677 153.259 63.2473L153.605 60.2672C151.712 60.0477 150.384 59.425 149.415 58.5944C148.436 57.7547 147.732 56.6233 147.225 55.2506C146.181 52.43 146.071 48.9414 145.886 45.6253C145.797 44.0316 145.686 42.4414 145.394 41.1226C145.113 39.857 144.586 38.4431 143.344 37.6568C142.025 36.8218 140.436 37.0088 138.827 37.672C137.198 38.3431 135.205 39.6339 132.74 41.5973L134.61 43.9437ZM83.3516 45.6534C82.7756 47.0384 82.7762 47.0387 82.7769 47.039C82.7773 47.0391 82.7781 47.0395 82.7788 47.0398C82.7804 47.0404 82.7823 47.0412 82.7847 47.0422C82.7896 47.0442 82.7962 47.0469 82.8046 47.0504C82.8214 47.0573 82.8453 47.067 82.8762 47.0794C82.9379 47.1043 83.0275 47.14 83.1437 47.1853C83.376 47.2759 83.7148 47.4049 84.1505 47.5624C85.0216 47.8773 86.281 48.3067 87.8506 48.7716C90.9869 49.7005 95.378 50.7758 100.396 51.3579C110.39 52.5171 123.126 51.7464 133.298 43.6426L131.429 41.2962C122.165 48.6763 110.396 49.4977 100.742 48.3779C95.9369 47.8205 91.7193 46.7886 88.7026 45.8951C87.1958 45.4488 85.9927 45.0383 85.1704 44.7411C84.7594 44.5925 84.4438 44.4723 84.2334 44.3903C84.1282 44.3492 84.0493 44.3178 83.9979 44.2971C83.9722 44.2867 83.9534 44.279 83.9417 44.2742C83.9358 44.2718 83.9317 44.2701 83.9293 44.2691C83.9281 44.2686 83.9274 44.2683 83.9271 44.2682C83.927 44.2682 83.9271 44.2682 83.927 44.2682C83.9273 44.2683 83.9276 44.2684 83.3516 45.6534ZM133.298 43.6426C135.693 41.7351 137.423 40.6536 138.658 40.1447C139.913 39.6279 140.328 39.8272 140.428 39.8904C140.604 40.0024 140.91 40.3726 141.154 41.4707C141.385 42.5156 141.489 43.8686 141.579 45.4912C141.753 48.6077 141.862 52.6442 143.1 55.9903C143.732 57.7008 144.684 59.313 146.151 60.5708C147.629 61.8379 149.538 62.6666 151.948 62.9462L152.294 59.9661C150.401 59.7466 149.073 59.1239 148.104 58.2933C147.125 57.4535 146.421 56.3222 145.913 54.9495C144.87 52.1289 144.759 48.6403 144.575 45.3242C144.486 43.7305 144.375 42.1403 144.083 40.8215C143.802 39.5559 143.274 38.142 142.032 37.3557C140.713 36.5207 139.125 36.7077 137.515 37.3709C135.887 38.042 133.894 39.3327 131.429 41.2962L133.298 43.6426ZM77.3785 59.0118C77.0337 67.6568 77.4777 79.419 80.9183 89.8374C84.3657 100.276 90.9117 109.591 102.878 112.802L103.655 109.904C93.0269 107.052 87.0364 98.7968 83.767 88.8966C80.4906 78.9757 80.0372 67.6289 80.3761 59.1313L77.3785 59.0118ZM102.878 112.802C114.773 115.994 124.016 115.372 132.228 109.599C140.296 103.928 147.145 93.4254 154.743 77.529L152.037 76.2351C144.452 92.1018 137.88 101.959 130.503 107.144C123.271 112.228 115.043 112.96 103.655 109.904L102.878 112.802ZM80.2139 76.2643C75.6337 67.5203 71.7866 51.7235 73.5619 37.0928C74.4468 29.7997 76.7181 22.8844 80.9054 17.284C85.0747 11.7076 91.2027 7.35299 99.971 5.23817L99.2676 2.3218C89.8434 4.59483 83.105 9.33207 78.5027 15.4876C73.9183 21.6192 71.5126 29.076 70.5837 36.7315C68.7313 51.9978 72.7096 68.4033 77.5564 77.6564L80.2139 76.2643ZM99.971 5.23817C117.758 0.948017 135.776 4.60493 149.172 12.1146C162.661 19.6765 171.028 30.8548 170.42 41.3603L173.415 41.5336C174.121 29.3287 164.531 17.2856 150.639 9.49772C136.653 1.65758 117.865 -2.16375 99.2676 2.3218L99.971 5.23817ZM170.42 41.3603C170.254 44.219 170.164 46.847 170.08 49.2774C169.995 51.7148 169.916 53.9435 169.774 56.0388C169.491 60.2254 168.959 63.7884 167.674 67.1937C165.12 73.9605 159.46 80.4469 145.842 89.7365L147.533 92.2148C161.296 82.8258 167.593 75.9032 170.481 68.253C171.916 64.4498 172.476 60.5522 172.768 56.2416C172.913 54.0883 172.994 51.8092 173.078 49.3816C173.163 46.9469 173.252 44.3526 173.415 41.5337L170.42 41.3603ZM88.5708 104.547L85.8883 116.171L88.8115 116.845L91.4939 105.221L88.5708 104.547ZM86.44 117.701L100.213 128.21L102.033 125.825L88.2598 115.316L86.44 117.701ZM101.346 128.501L120.668 125.596L120.222 122.63L100.9 125.534L101.346 128.501ZM121.907 124.45L124.589 112.827L121.666 112.152L118.984 123.776L121.907 124.45ZM87.7364 115.117L41.0229 117.602L41.1823 120.598L87.8957 118.113L87.7364 115.117ZM40.6992 117.656C39.7088 117.932 38.1176 118.417 36.5338 118.981C34.9871 119.531 33.313 120.203 32.2435 120.871L33.8318 123.416C34.5973 122.938 35.9938 122.357 37.5398 121.807C39.0488 121.27 40.5727 120.806 41.506 120.545L40.6992 117.656ZM119.731 125.432L157.243 145.803L158.675 143.166L121.162 122.796L119.731 125.432ZM157.092 145.709C158.244 146.524 160.016 147.903 161.561 149.368C162.334 150.1 163.023 150.83 163.545 151.501C164.09 152.201 164.354 152.715 164.429 153.025L167.344 152.318C167.118 151.383 166.538 150.463 165.914 149.659C165.266 148.826 164.46 147.982 163.625 147.19C161.954 145.607 160.065 144.137 158.825 143.26L157.092 145.709ZM61.9422 149.792C62.1639 152.59 61.9072 155.301 61.2379 157.86L64.1403 158.619C64.8939 155.737 65.1812 152.69 64.9328 149.555L61.9422 149.792ZM34.9468 177.512C18.7023 178.117 4.75818 166.504 3.5967 151.84L0.606065 152.076C1.91127 168.556 17.4279 181.167 35.0585 180.51L34.9468 177.512ZM3.5967 151.84C3.37503 149.041 3.63173 146.331 4.30102 143.771L1.39863 143.012C0.644987 145.894 0.357723 148.941 0.606065 152.076L3.5967 151.84ZM30.5921 124.119C46.8366 123.514 60.7807 135.127 61.9422 149.792L64.9328 149.555C63.6276 133.076 48.111 120.465 30.4804 121.121L30.5921 124.119ZM61.2379 157.86C58.398 168.719 48.0578 177.024 34.9468 177.512L35.0585 180.51C49.3678 179.977 60.9353 170.874 64.1403 158.619L61.2379 157.86ZM4.30102 143.771C7.1409 132.912 17.4811 124.608 30.5921 124.119L30.4804 121.121C16.1711 121.654 4.60361 130.757 1.39863 143.012L4.30102 143.771ZM62.3289 148.309C63.4854 162.911 51.5437 175.426 35.3334 176.03L35.4451 179.028C53.1098 178.37 66.6297 164.615 65.3195 148.073L62.3289 148.309ZM35.3334 176.03C19.089 176.635 5.14483 165.022 3.98335 150.357L0.992716 150.594C2.29792 167.073 17.8146 179.685 35.4451 179.028L35.3334 176.03ZM3.98335 150.357C2.82685 135.756 14.7685 123.241 30.9788 122.637L30.8671 119.639C13.2024 120.297 -0.317478 134.052 0.992716 150.594L3.98335 150.357ZM30.9788 122.637C47.2233 122.032 61.1674 133.645 62.3289 148.309L65.3195 148.073C64.0143 131.593 48.4976 118.982 30.8671 119.639L30.9788 122.637ZM32.528 163.98C35.6376 158.415 43.0178 146.249 51.7357 138.58L49.7542 136.327C40.6231 144.36 33.0361 156.92 29.909 162.517L32.528 163.98ZM17.2544 148.091C15.9252 148.786 15.9253 148.786 15.9255 148.786C15.9256 148.787 15.9258 148.787 15.926 148.787C15.9264 148.788 15.927 148.789 15.9278 148.791C15.9293 148.794 15.9315 148.798 15.9343 148.803C15.94 148.814 15.9482 148.83 15.959 148.85C15.9805 148.891 16.012 148.951 16.0531 149.028C16.1352 149.182 16.2553 149.406 16.4089 149.688C16.716 150.252 17.1574 151.051 17.6967 151.991C18.7728 153.866 20.2492 156.324 21.8331 158.616C23.3919 160.871 25.1452 163.101 26.7864 164.408C27.5836 165.043 28.569 165.638 29.6403 165.698C30.2169 165.73 30.802 165.604 31.3355 165.275C31.8551 164.954 32.2416 164.493 32.528 163.98L29.909 162.517C29.8057 162.702 29.742 162.733 29.7602 162.722C29.7922 162.702 29.8245 162.703 29.8061 162.702C29.6875 162.696 29.3139 162.586 28.6558 162.062C27.3864 161.051 25.8436 159.142 24.3011 156.91C22.7837 154.715 21.3538 152.336 20.2988 150.498C19.7726 149.58 19.3423 148.802 19.0441 148.254C18.895 147.98 18.7791 147.764 18.7008 147.617C18.6617 147.544 18.632 147.487 18.6122 147.45C18.6024 147.431 18.595 147.417 18.5902 147.408C18.5878 147.404 18.5861 147.4 18.585 147.398C18.5844 147.397 18.584 147.396 18.5838 147.396C18.5837 147.396 18.5836 147.396 18.5836 147.396C18.5836 147.396 18.5836 147.396 17.2544 148.091Z" fill="#7831B2"/>
</svg>
