<svg width="139" height="137" viewBox="0 0 139 137" fill="none" xmlns="http://www.w3.org/2000/svg">
<path d="M19.2037 0.12695C18.1201 -0.0868933 17.0682 0.618242 16.8544 1.70191C16.6405 2.78559 17.3457 3.83743 18.4294 4.05127L19.2037 0.12695ZM135.337 20.7649L137.312 21.0777L137.673 18.7982L135.365 18.7651L135.337 20.7649ZM117.444 133.778L117.138 135.754L119.108 136.06L119.42 134.091L117.444 133.778ZM106.864 130.112C105.772 129.942 104.75 130.69 104.581 131.781C104.411 132.873 105.159 133.895 106.25 134.064L106.864 130.112ZM19.0817 0.106338C17.9868 -0.0391009 16.9812 0.730632 16.8358 1.82559C16.6904 2.92054 17.4601 3.92607 18.555 4.07151L19.0817 0.106338ZM134.567 20.0559L134.261 22.0323H134.261L134.567 20.0559ZM117.67 134L117.363 135.976L119.328 136.281L119.645 134.318L117.67 134ZM105.371 130.067C104.279 129.897 103.257 130.645 103.087 131.736C102.918 132.828 103.665 133.85 104.757 134.02L105.371 130.067ZM136 20.2783L137.975 20.5966L138.295 18.6105L136.307 18.302L136 20.2783ZM19.9963 3.67773C20.2874 2.61221 19.6596 1.51246 18.5941 1.22138C17.5285 0.930297 16.4288 1.55811 16.1377 2.62363L19.9963 3.67773ZM3.98322 112.845L2.64987 114.335L3.05089 114.694L3.57775 114.803L3.98322 112.845ZM60.4364 126.575C61.518 126.799 62.5764 126.103 62.8003 125.022C63.0243 123.94 62.329 122.882 61.2473 122.658L60.4364 126.575ZM20.1473 2.62081C20.4901 1.5708 19.9169 0.441654 18.8669 0.0987906C17.8169 -0.244072 16.6877 0.329183 16.3448 1.37919L20.1473 2.62081ZM4.07371 112.269L2.74037 113.76L3.1334 114.112L3.64867 114.224L4.07371 112.269ZM60.8437 124.616L60.4187 126.571L60.4656 126.581L60.513 126.589L60.8437 124.616ZM107.77 134.512C108.859 134.695 109.89 133.959 110.073 132.87C110.256 131.781 109.521 130.75 108.431 130.567L107.77 134.512ZM53.5331 100.336L52.161 98.8809L53.5331 100.336ZM130.665 47.9485C131.676 47.5022 132.133 46.3213 131.686 45.3109C131.24 44.3005 130.059 43.8432 129.049 44.2896L130.665 47.9485ZM30.4245 45.7772C30.2358 44.6889 29.2005 43.9597 28.1122 44.1484C27.0238 44.3372 26.2946 45.3725 26.4834 46.4608L30.4245 45.7772ZM18.4294 4.05127C34.7757 7.27693 60.2675 11.8971 83.5045 15.7374C106.652 19.5629 127.803 22.6572 135.308 22.7647L135.365 18.7651C128.235 18.663 107.449 15.6404 84.1567 11.7909C60.9541 7.95632 35.5036 3.34343 19.2037 0.12695L18.4294 4.05127ZM133.361 20.4522L115.469 133.465L119.42 134.091L137.312 21.0777L133.361 20.4522ZM117.751 131.801L106.864 130.112L106.25 134.064L117.138 135.754L117.751 131.801ZM18.555 4.07151C123.79 18.0494 123.192 20.3142 134.261 22.0323L134.874 18.0796C124.168 16.4177 124.279 14.0793 19.0817 0.106338L18.555 4.07151ZM117.977 132.024L105.371 130.067L104.757 134.02L117.363 135.976L117.977 132.024ZM134.261 22.0323L135.693 22.2546L136.307 18.302L134.874 18.0796L134.261 22.0323ZM134.025 19.96L115.696 133.682L119.645 134.318L137.975 20.5966L134.025 19.96ZM16.1377 2.62363C12.3023 16.6635 7.01372 42.6008 3.56049 65.8067C1.83382 77.4099 0.557227 88.3876 0.156076 96.8851C-0.044126 101.126 -0.029923 104.816 0.273413 107.684C0.424867 109.116 0.654629 110.407 0.994132 111.486C1.3204 112.522 1.81638 113.59 2.64987 114.335L5.31656 111.354C5.27336 111.315 5.05276 111.057 4.80969 110.285C4.57985 109.555 4.3875 108.552 4.25122 107.263C3.97909 104.691 3.9553 101.232 4.15163 97.0737C4.54353 88.7721 5.79806 77.9463 7.51692 66.3954C10.9547 43.2932 16.2148 17.5201 19.9963 3.67773L16.1377 2.62363ZM3.57775 114.803L60.4364 126.575L61.2473 122.658L4.38868 110.886L3.57775 114.803ZM16.3448 1.37919C11.8508 15.142 6.53499 41.2758 3.21949 64.7001C1.5601 76.4239 0.39154 87.5392 0.0818343 96.1456C-0.0727377 100.441 -0.0161247 104.176 0.317964 107.075C0.484763 108.522 0.727411 109.822 1.07502 110.907C1.40846 111.946 1.90893 113.016 2.74037 113.76L5.40706 110.779C5.36181 110.738 5.13652 110.473 4.88403 109.685C4.6457 108.942 4.44224 107.923 4.29165 106.616C3.99097 104.008 3.92768 100.501 4.07925 96.2895C4.38181 87.8815 5.52966 76.9207 7.18002 65.2607C10.484 41.9175 15.7611 16.0532 20.1473 2.62081L16.3448 1.37919ZM60.513 126.589L107.77 134.512L108.431 130.567L61.1744 122.644L60.513 126.589ZM54.9052 101.791C68.3605 89.1032 99.5755 61.6815 130.665 47.9485L129.049 44.2896C97.287 58.3195 65.6503 86.161 52.161 98.8809L54.9052 101.791ZM28.4539 46.119C26.4834 46.4608 26.4834 46.4613 26.4836 46.462C26.4837 46.4626 26.4838 46.4636 26.484 46.4647C26.4844 46.4671 26.485 46.4704 26.4858 46.4748C26.4873 46.4834 26.4895 46.4962 26.4924 46.5128C26.4983 46.5461 26.5069 46.5953 26.5183 46.6596C26.5411 46.7884 26.575 46.9781 26.6197 47.2243C26.7089 47.7166 26.8413 48.4351 27.0143 49.3438C27.3603 51.161 27.8692 53.7403 28.5222 56.795C29.8267 62.8979 31.7119 70.9257 34.0273 78.5712C36.3255 86.1601 39.1075 93.5804 42.2653 98.3312C43.8214 100.672 45.67 102.68 47.8735 103.522C49.0272 103.963 50.2625 104.077 51.5196 103.76C52.7548 103.449 53.8817 102.756 54.9052 101.791L52.161 98.8809C51.5005 99.5038 50.9579 99.7767 50.5431 99.8812C50.15 99.9801 49.7545 99.9587 49.3015 99.7856C48.2915 99.3996 47.023 98.2631 45.5965 96.117C42.7889 91.8931 40.1431 84.9651 37.8556 77.4118C35.5852 69.915 33.7266 62.0066 32.4338 55.9588C31.7881 52.9382 31.2851 50.3886 30.9437 48.5956C30.773 47.6993 30.6428 46.9924 30.5555 46.5107C30.5118 46.2698 30.4789 46.0853 30.457 45.9616C30.446 45.8997 30.4378 45.8531 30.4324 45.8221C30.4296 45.8067 30.4276 45.7952 30.4263 45.7877C30.4257 45.7839 30.4252 45.7812 30.4249 45.7794C30.4247 45.7785 30.4246 45.778 30.4246 45.7776C30.4245 45.7773 30.4245 45.7772 28.4539 46.119ZM3.64867 114.224L60.4187 126.571L61.2688 122.662L4.49876 110.315L3.64867 114.224Z" fill="#7831B2"/>
</svg>
