<svg version="1.0" xmlns="http://www.w3.org/2000/svg" width="445.333" height="445.333" viewBox="0 0 334 334" fill="#7831B2"><path fill="#7831B2" d="M156.6 1.1c-28 2.3-58.8 12.9-81.3 28C22.7 64.3-5.6 126.3 2.5 188.7 16.1 293.3 119 358.2 218.2 325c53.8-18 96.2-63.3 110.1-117.5 3.9-15.3 5.1-24.6 5.1-41-.1-17-1.3-27.2-5.4-43-7.5-29-21.2-52.6-43.5-75.1-33.8-33.9-80.6-51.2-127.9-47.3zM191 8.7c32.8 5.3 61.9 20.2 86 44.3 35 34.8 52.2 83 47 131.8-2 18.3-8.3 39.7-16.5 56.3-9.8 19.7-29.4 43-47.4 56.3-31.5 23.4-68.7 34.1-106.5 30.8-37.3-3.3-69.8-18-96.5-43.7-24.3-23.4-40-51.9-47.2-85.5-3.1-14.3-3.3-44.4-.5-59.5 4-21.5 13-43.4 25.7-62.5 8.9-13.5 30-34.4 44.2-43.8 34.5-23 71.3-31 111.7-24.5z"/><path d="M192.2 80.2c-1.2 1.5-5.2 21.6-15.7 78.5-4.1 22.7-7.9 42.2-8.3 43.4-.8 2.1-.9 2.1-4.2-.8-1.9-1.5-15.8-13.9-30.8-27.6C118.1 160.1 105 149 104 149c-2.3 0-3 1.9-1.7 4.5 1.6 3.2 11.1 13.3 21.1 22.4 8.9 8.1 43.9 35.1 45.5 35.1 2 0 3.4-3.7 6.2-17.1C189.2 127.3 197 84 195.7 80.5c-.8-1.8-2.1-1.9-3.5-.3z"/></svg>