<svg width="111" height="110" viewBox="0 0 111 110" fill="none" xmlns="http://www.w3.org/2000/svg">
<path d="M54.4132 18.7043L54.1314 58.427C54.1195 60.1009 56.2216 60.8229 57.2552 59.4999L80.2979 30.0038M54.4174 18.7068C56.4116 33.2271 55.8979 46.4679 55.168 54.7359C54.9985 56.6561 57.8562 57.6882 58.9136 56.0712C66.4588 44.5333 80.311 24.1469 81.2422 28.5135M98.4083 83.114C82.8286 107.85 50.3639 115.409 25.8965 99.9976C1.42902 84.5862 -5.7759 52.0403 9.80383 27.3043C25.3836 2.56834 57.8482 -4.99071 82.3157 10.4207C106.783 25.8321 113.988 58.378 98.4083 83.114ZM100.825 82.5512C85.2456 107.287 52.781 114.846 28.3135 99.4348C3.84608 84.0234 -3.35884 51.4775 12.2209 26.7415C27.8006 2.00555 60.2653 -5.5535 84.7327 9.85791C109.2 25.2693 116.405 57.8152 100.825 82.5512Z" stroke="#7831B2" stroke-width="3" stroke-linecap="round"/>
</svg>
