<svg width="225" height="192" viewBox="0 0 225 192" fill="none" xmlns="http://www.w3.org/2000/svg">
<path fill-rule="evenodd" clip-rule="evenodd" d="M19.0643 0.678662C18.6795 0.654674 18.3139 0.741091 17.9982 0.910623C17.0273 0.915604 16.1823 1.62839 16.041 2.61852C15.9058 3.56533 15.7015 4.97378 15.4393 6.78185L15.4389 6.78459C12.5214 26.901 2.43336 96.4586 0.477588 130.091L0.380725 131.757L2.00272 132.158L3.83765 132.612L31.1307 142.058L31.1316 143.158L29.3595 186.159C29.1536 191.155 35.1597 193.812 38.7307 190.397L75.4117 155.326C75.4274 155.311 75.4429 155.295 75.458 155.28L178.984 186.793L180.288 187.19L181.13 186.124C182.296 184.646 183.455 183.216 184.615 181.784L184.616 181.783L184.616 181.783C189.288 176.016 193.986 170.217 199.339 161.131C203.301 154.407 207.623 145.887 212.611 134.211C217.866 123.526 222.136 113.155 223.988 105.041L224.264 103.831L223.3 103.042C222.294 102.218 221.247 101.368 220.161 100.492C217.759 98.5348 215.134 96.4498 212.307 94.2595C193.304 79.4189 166.05 59.7839 135.581 42.317C98.656 21.1486 56.7818 3.02991 19.0643 0.678662ZM19.4777 6.82557L19.6035 5.95762C54.9188 9.3322 95.1671 26.1575 131.328 46.0212C162.746 63.2797 190.921 82.7434 209.857 97.4093C212.638 99.5814 215.241 101.65 217.651 103.593C217.829 103.739 218.006 103.884 218.182 104.028C218.218 104.056 218.253 104.084 218.29 104.11C218.758 104.489 219.219 104.862 219.672 105.231C215.753 115.963 212.216 124.93 208.975 132.521C206.661 137.222 204.14 142.015 201.529 146.732C193.512 161.216 184.779 174.765 178.918 182.434C156.348 172.785 142.754 167.294 74.8273 150.609C74.7076 150.58 74.5879 150.562 74.4692 150.554C73.8959 150.482 73.2971 150.656 72.8464 151.083L49.7339 172.991L49.726 172.998L49.7182 173.006L36.8423 185.48C35.8212 186.469 34.155 185.657 34.2336 184.306L35.1468 168.601L35.1502 168.542L35.1502 168.483L35.1316 143.259L35.2291 140.894C35.2592 140.163 34.8934 139.506 34.3225 139.131C34.2565 139.068 34.1859 139.009 34.1108 138.954C33.8981 138.576 33.5618 138.263 33.1302 138.084L19.4239 132.379L19.2829 132.32L19.1347 132.283L5.2365 128.843C10.2414 92.5805 20.2114 20.4413 21.833 9.08478C21.989 7.99208 21.229 6.97538 20.1355 6.81392C19.9106 6.78071 19.6891 6.78628 19.4777 6.82557ZM56.1655 26.5849C55.0816 26.3668 54.0305 27.0677 53.8178 28.1505C53.605 29.2334 54.3112 30.288 55.3951 30.5061C69.9826 33.4417 88.8542 41.082 106.618 49.5194C124.345 57.9395 140.814 67.0781 150.544 72.9124C151.493 73.4817 152.721 73.1758 153.285 72.2292C153.85 71.2826 153.538 70.0538 152.588 69.4845C142.758 63.59 126.174 54.3888 108.319 45.9079C90.5006 37.4443 71.2599 29.6225 56.1655 26.5849ZM202.435 116.7C202.618 115.612 201.884 114.577 200.794 114.388C199.705 114.199 198.673 114.929 198.49 116.017C197.813 120.035 196.13 126.892 193.295 134.24C190.454 141.601 186.508 149.319 181.365 155.166C180.638 155.993 180.721 157.257 181.552 157.989C182.383 158.721 183.647 158.644 184.374 157.816C189.95 151.478 194.101 143.28 197.028 135.696C199.959 128.099 201.713 120.983 202.435 116.7ZM62.0287 96.2961C64.1045 97.3415 66.1205 96.9233 67.6415 96.1959C69.0554 95.9185 70.2647 95.2046 71.0654 94.5955C72.7438 93.3189 74.1883 91.4335 75.2246 89.3182C76.2614 87.2019 76.8669 84.9019 76.8563 82.7882C76.847 80.9518 76.2992 77.8273 73.3775 76.3558C71.3017 75.3103 69.2857 75.7285 67.7647 76.4559C66.3509 76.7334 65.1416 77.4473 64.3408 78.0564C62.6624 79.333 61.2179 81.2184 60.1816 83.3336C59.1448 85.4499 58.5393 87.75 58.55 89.8636C58.5592 91.7001 59.107 94.8245 62.0287 96.2961ZM37.8365 84.1101C39.9126 85.1557 41.9289 84.7373 43.45 84.0097C44.8633 83.732 46.0722 83.0184 46.8727 82.4095C48.5511 81.1328 49.9956 79.2475 51.0319 77.1322C52.0687 75.0159 52.6742 72.7159 52.6635 70.6022C52.6543 68.7658 52.1065 65.6413 49.1848 64.1698C47.1087 63.1242 45.0924 63.5426 43.5713 64.2702C42.158 64.5479 40.9491 65.2615 40.1486 65.8705C38.4702 67.1471 37.0257 69.0324 35.9894 71.1477C34.9526 73.264 34.3471 75.564 34.3578 77.6777C34.367 79.5141 34.9148 82.6386 37.8365 84.1101ZM86.2238 108.482C88.2987 109.527 90.314 109.109 91.8347 108.382C93.2493 108.105 94.4593 107.391 95.2604 106.782C96.9388 105.505 98.3833 103.62 99.4196 101.504C100.456 99.388 101.062 97.088 101.051 94.9743C101.042 93.1378 100.494 90.0134 97.5725 88.5419C95.4975 87.4968 93.4823 87.9142 91.9615 88.6411C90.5469 88.9183 89.3369 89.6326 88.5358 90.2419C86.8575 91.5185 85.4129 93.4039 84.3767 95.5191C83.3398 97.6355 82.7343 99.9355 82.745 102.049C82.7543 103.886 83.3021 107.01 86.2238 108.482ZM47.4381 75.358C47.2352 75.7723 47.0164 76.1666 46.7858 76.5379C45.4179 78.7402 43.6303 80.1369 42.2247 80.1181C41.8322 80.3687 41.4435 80.547 41.071 80.6439C40.544 80.7809 40.0494 80.7549 39.6216 80.5394C37.9514 79.6983 37.9342 76.2877 39.5832 72.9219C39.7861 72.5076 40.0049 72.1133 40.2355 71.742C41.6034 69.5397 43.391 68.143 44.7966 68.1618C45.1891 67.9113 45.5778 67.7329 45.9503 67.636C46.4773 67.499 46.9719 67.525 47.3997 67.7405C49.0699 68.5817 49.0871 71.9922 47.4381 75.358ZM71.6308 87.5441C71.4279 87.9584 71.2091 88.3527 70.9784 88.7241C69.6103 90.9266 67.8224 92.3233 66.4168 92.3041C66.0245 92.5545 65.6361 92.7327 65.2638 92.8296C64.7366 92.9669 64.2417 92.9409 63.8138 92.7254C62.1436 91.8842 62.1264 88.4737 63.7754 85.1078C63.9784 84.6935 64.1971 84.2992 64.4278 83.9278C65.7959 81.7252 67.5838 80.3285 68.9894 80.3477C69.3817 80.0974 69.7701 79.9191 70.1424 79.8222C70.6696 79.685 71.1645 79.711 71.5924 79.9265C73.2626 80.7677 73.2798 84.1782 71.6308 87.5441ZM88.0089 104.911C88.4368 105.126 88.9318 105.152 89.4591 105.015C89.8311 104.918 90.2191 104.74 90.6111 104.49C92.0169 104.51 93.8053 103.113 95.1737 100.91C95.4043 100.538 95.6229 100.144 95.8258 99.7301C97.4748 96.3642 97.4576 92.9537 95.7874 92.1125C95.3594 91.897 94.8644 91.871 94.3371 92.0083C93.9652 92.1052 93.5771 92.2832 93.1852 92.5333C91.7794 92.5135 89.9909 93.9106 88.6226 96.1137C88.392 96.485 88.1733 96.8792 87.9704 97.2933C86.3215 100.659 86.3387 104.07 88.0089 104.911Z" fill="#7831B2"/>
</svg>
