<svg width="275" height="216" viewBox="0 0 275 216" fill="none" xmlns="http://www.w3.org/2000/svg">
<mask id="path-1-outside-1_4_3932" maskUnits="userSpaceOnUse" x="-3.25351e-08" y="-4.39856e-06" width="275" height="216" fill="black">
<rect fill="white" x="-3.25351e-08" y="-4.39856e-06" width="275" height="216"/>
<path d="M98.2904 44.3305C99.366 46.1215 100.966 47.1389 101.865 46.603C102.764 46.0672 102.62 44.1809 101.545 42.3899C100.469 40.599 98.8688 39.5815 97.9701 40.1174C97.0714 40.6533 97.2149 42.5395 98.2904 44.3305Z"/>
<path d="M97.2502 44.0698C98.3257 45.8608 99.9262 46.8782 100.825 46.3423C101.723 45.8065 101.58 43.9202 100.504 42.1292C99.4289 40.3383 97.8285 39.3208 96.9299 39.8567C96.0312 40.3926 96.1746 42.2788 97.2502 44.0698Z"/>
<path d="M85.276 52.0932C86.3516 53.8841 87.952 54.9016 88.8506 54.3657C89.7493 53.8298 89.6059 51.9435 88.5303 50.1526C87.4548 48.3616 85.8544 47.3442 84.9557 47.8801C84.057 48.4159 84.2005 50.3022 85.276 52.0932Z"/>
<path d="M84.2355 51.8325C85.311 53.6235 86.9114 54.6409 87.8101 54.1051C88.7088 53.5692 88.5653 51.6829 87.4898 49.892C86.4142 48.101 84.8138 47.0835 83.9152 47.6194C83.0165 48.1553 83.1599 50.0416 84.2355 51.8325Z"/>
<path d="M72.2588 59.8555C73.3343 61.6465 74.9348 62.6639 75.8334 62.128C76.7321 61.5922 76.5887 59.7059 75.5131 57.9149C74.4375 56.124 72.8371 55.1065 71.9385 55.6424C71.0398 56.1783 71.1832 58.0646 72.2588 59.8555Z"/>
<path d="M71.2183 59.5952C72.2939 61.3861 73.8943 62.4036 74.793 61.8677C75.6916 61.3318 75.5482 59.4456 74.4726 57.6546C73.3971 55.8636 71.7967 54.8462 70.898 55.3821C69.9994 55.9179 70.1428 57.8042 71.2183 59.5952Z"/>
<path d="M163.021 112.136C161.36 114.184 159.181 115.173 158.153 114.346C157.125 113.518 157.638 111.188 159.299 109.139C160.96 107.091 163.139 106.102 164.167 106.929C165.194 107.757 164.681 110.088 163.021 112.136Z"/>
<path d="M164.366 111.993C162.705 114.041 160.526 115.031 159.499 114.203C158.471 113.376 158.984 111.045 160.645 108.997C162.305 106.949 164.485 105.959 165.512 106.787C166.54 107.614 166.027 109.945 164.366 111.993Z"/>
<path d="M176.921 124.121C175.26 126.169 174.064 127.159 173.036 126.331C172.008 125.504 172.522 123.173 174.182 121.125C175.843 119.077 178.022 118.087 179.05 118.915C180.077 119.742 178.581 122.073 176.921 124.121Z"/>
<path d="M179.25 123.978C177.589 126.026 175.41 127.016 174.382 126.189C173.354 125.361 173.867 123.03 175.528 120.982C177.189 118.934 179.368 117.945 180.396 118.772C181.423 119.599 180.91 121.93 179.25 123.978Z"/>
<path d="M192.79 136.106C191.129 138.154 188.95 139.144 187.922 138.316C186.894 137.489 187.407 135.158 189.068 133.11C190.729 131.062 192.908 130.073 193.936 130.9C194.963 131.727 194.45 134.058 192.79 136.106Z"/>
<path d="M194.135 135.964C192.474 138.012 190.295 139.002 189.267 138.174C188.24 137.347 188.753 135.016 190.414 132.968C192.074 130.92 194.254 129.93 195.281 130.758C196.309 131.585 195.796 133.916 194.135 135.964Z"/>
<path d="M150.867 130.519C149.206 132.567 147.027 133.557 146 132.729C144.972 131.902 145.485 129.571 147.146 127.523C148.806 125.475 150.986 124.485 152.013 125.313C153.041 126.14 152.528 128.471 150.867 130.519Z"/>
<path d="M152.213 130.377C150.552 132.425 148.373 133.414 147.345 132.587C146.318 131.759 146.831 129.428 148.491 127.38C150.152 125.332 152.331 124.343 153.359 125.17C154.387 125.998 153.873 128.329 152.213 130.377Z"/>
<path d="M165.75 142.504C164.09 144.552 161.91 145.542 160.883 144.715C159.855 143.887 160.368 141.556 162.029 139.508C163.69 137.46 165.869 136.471 166.896 137.298C167.924 138.125 167.411 140.456 165.75 142.504Z"/>
<path d="M167.096 142.362C165.435 144.41 163.256 145.399 162.229 144.572C161.201 143.745 161.714 141.414 163.375 139.366C165.035 137.318 167.215 136.328 168.242 137.155C169.27 137.983 168.757 140.314 167.096 142.362Z"/>
</mask>
<path d="M2.95953 64.4775C2.16254 65.2423 2.13642 66.5084 2.9012 67.3054C3.66598 68.1023 4.93204 68.1285 5.72903 67.3637L2.95953 64.4775ZM3 67.2L1.61525 65.757L0.719984 66.616L1.09203 67.7997L3 67.2ZM108.717 77.4532C107.704 77.8935 107.239 79.0717 107.68 80.0847C108.12 81.0977 109.298 81.5619 110.311 81.1215L108.717 77.4532ZM125.646 72.2744L126.443 74.1085L127.954 73.4516L127.598 71.8426L125.646 72.2744ZM125.934 71.8932L126.631 73.7678L128.137 73.2079L127.915 71.6163L125.934 71.8932ZM108.894 77.1245C107.91 77.6264 107.519 78.8309 108.021 79.8149C108.523 80.7989 109.727 81.1896 110.711 80.6877L108.894 77.1245ZM117.15 75.1583L116.453 73.2836L116.345 73.324L116.241 73.3767L117.15 75.1583ZM112.454 104.628L114.439 104.385L114.439 104.385L112.454 104.628ZM109.254 106.379L110.521 104.832L110.521 104.832L109.254 106.379ZM88.5859 86.8633C87.7314 86.1633 86.4713 86.2886 85.7714 87.1431C85.0714 87.9976 85.1967 89.2577 86.0511 89.9576L88.5859 86.8633ZM108.667 105.288L107.39 106.827L107.39 106.827L108.667 105.288ZM100.96 98.8898L102.237 97.351L102.229 97.344L102.22 97.3372L100.96 98.8898ZM88.4077 86.1217C87.5502 85.4255 86.2906 85.5562 85.5944 86.4137C84.8981 87.2712 85.0288 88.5308 85.8863 89.227L88.4077 86.1217ZM110.657 94.8159L108.664 94.9761L108.669 95.0346L108.677 95.0927L110.657 94.8159ZM111.873 103.513L113.854 103.236L113.854 103.236L111.873 103.513ZM30.7909 110.045L29.8644 108.273L31.5242 111.906L30.7909 110.045ZM17.4102 72.3557C17.1399 71.2847 16.0526 70.6356 14.9816 70.9059C13.9106 71.1762 13.2615 72.2635 13.5318 73.3345L17.4102 72.3557ZM25.6479 95.8617C26.4392 96.6324 27.7054 96.6157 28.4761 95.8245C29.2468 95.0332 29.2301 93.767 28.4388 92.9963L25.6479 95.8617ZM39.4043 44.0468C38.5042 44.687 38.2936 45.9357 38.9338 46.8358C39.5741 47.7359 40.8228 47.9465 41.7229 47.3063L39.4043 44.0468ZM269.254 164.623C269.936 165.492 271.193 165.643 272.062 164.961C272.931 164.279 273.082 163.022 272.4 162.153L269.254 164.623ZM270.707 166.458C271.389 167.326 272.646 167.478 273.515 166.795C274.384 166.113 274.535 164.856 273.853 163.987L270.707 166.458ZM136.01 163.289C136.952 163.867 138.184 163.572 138.761 162.63C139.338 161.688 139.043 160.457 138.102 159.88L136.01 163.289ZM118.147 149.988L116.274 149.286L115.696 150.83L117.102 151.693L118.147 149.988ZM117.303 149.988L115.38 149.436L114.908 151.079L116.458 151.801L117.303 149.988ZM135.615 162.695C136.519 163.329 137.766 163.11 138.4 162.206C139.035 161.302 138.816 160.055 137.912 159.42L135.615 162.695ZM128.249 155.084L129.397 153.447L129.253 153.345L129.093 153.271L128.249 155.084ZM273 166.011L274.805 166.872L271.314 164.934L273 166.011ZM128.563 193.958L126.632 193.439L126.632 193.439L128.563 193.958ZM131.486 196.138L132.525 197.847L132.525 197.847L131.486 196.138ZM164.204 178.592C165.148 178.019 165.448 176.788 164.875 175.845C164.301 174.901 163.071 174.601 162.127 175.174L164.204 178.592ZM132.379 194.91L131.329 193.207L131.329 193.207L132.379 194.91ZM144.27 187.575L143.239 185.861L143.229 185.867L143.22 185.873L144.27 187.575ZM164.542 177.708C165.488 177.138 165.793 175.909 165.224 174.963C164.654 174.016 163.425 173.711 162.479 174.28L164.542 177.708ZM132.878 180.781L134.8 181.333L134.816 181.276L134.829 181.219L132.878 180.781ZM129.454 192.705L127.531 192.153L127.531 192.153L129.454 192.705ZM229.312 213.597L228.324 215.336L230.477 211.971L229.312 213.597ZM257.52 170.83C257.938 169.808 257.448 168.64 256.426 168.222C255.403 167.805 254.236 168.295 253.818 169.317L257.52 170.83ZM227.761 133.176C228.562 133.936 229.828 133.902 230.588 133.1C231.348 132.298 231.314 131.032 230.512 130.273L227.761 133.176ZM170.87 86.2354C169.86 85.7903 168.679 86.249 168.234 87.26C167.789 88.2709 168.248 89.4512 169.259 89.8963L170.87 86.2354ZM5.72903 67.3637C15.2037 58.272 31.9169 44.1844 51.1755 31.5602C70.4723 18.911 92.1226 7.86638 111.508 4.64202L110.852 0.696224C90.6372 4.05849 68.4256 15.4699 48.9826 28.2149C29.5013 40.985 12.5967 55.2298 2.95953 64.4775L5.72903 67.3637ZM4.38475 68.6431C13.8901 59.522 30.543 44.7275 49.9148 31.5152C69.3326 18.2715 91.2646 6.76987 111.361 3.98101L110.812 0.0189818C89.7823 2.93724 67.2269 14.8659 47.661 28.2106C28.0491 41.5867 11.2218 56.5387 1.61525 65.757L4.38475 68.6431ZM110.311 81.1215L126.443 74.1085L124.848 70.4402L108.717 77.4532L110.311 81.1215ZM127.598 71.8426C123.259 52.2147 114.217 11.3566 112.781 5.00205L108.879 5.88384C110.312 12.2265 119.351 53.0702 123.693 72.7061L127.598 71.8426ZM127.915 71.6163C125.071 51.2692 114.952 7.93946 113.532 1.6539L109.63 2.53569C111.079 8.94733 121.14 52.0379 123.953 72.17L127.915 71.6163ZM110.711 80.6877L118.059 76.9399L116.241 73.3767L108.894 77.1245L110.711 80.6877ZM117.847 77.033L126.631 73.7678L125.237 70.0185L116.453 73.2836L117.847 77.033ZM34.2301 109.179C30.6573 105.31 24.2517 97.6737 18.2534 89.4478C12.2054 81.1536 6.76992 72.5243 4.90798 66.6003L1.09203 67.7997C3.17406 74.4239 8.98971 83.5327 15.0214 91.8046C21.103 100.145 27.6058 107.902 31.2916 111.893L34.2301 109.179ZM34.2263 109.178C30.364 104.996 26.6774 102.065 21.9059 96.044C17.2272 90.1402 11.6813 81.4204 4.81979 66.3704L1.18021 68.0297C8.13718 83.2891 13.8405 92.307 18.771 98.5284C23.6088 104.633 27.8914 108.214 31.2878 111.892L34.2263 109.178ZM107.379 79.6708L110.469 104.871L114.439 104.385L111.349 79.1839L107.379 79.6708ZM110.521 104.832L88.5859 86.8633L86.0511 89.9576L107.987 107.926L110.521 104.832ZM110.469 104.871C110.471 104.886 110.469 104.885 110.471 104.874C110.473 104.862 110.478 104.85 110.483 104.84C110.488 104.831 110.493 104.826 110.493 104.825C110.494 104.825 110.493 104.826 110.489 104.828C110.487 104.829 110.486 104.83 110.484 104.831C110.483 104.831 110.482 104.831 110.483 104.831C110.483 104.831 110.488 104.83 110.497 104.831C110.507 104.831 110.517 104.834 110.526 104.837C110.536 104.841 110.534 104.842 110.521 104.832L107.987 107.926C110.739 110.181 114.876 107.949 114.439 104.385L110.469 104.871ZM109.945 103.749L102.237 97.351L99.6823 100.429L107.39 106.827L109.945 103.749ZM102.22 97.3372L88.4077 86.1217L85.8863 89.227L99.6991 100.442L102.22 97.3372ZM107.456 79.9558L108.664 94.9761L112.651 94.6556L111.444 79.6353L107.456 79.9558ZM108.677 95.0927L109.892 103.789L113.854 103.236L112.638 94.539L108.677 95.0927ZM107.39 106.827C110.161 109.128 114.357 106.838 113.854 103.236L109.892 103.789C109.894 103.805 109.892 103.805 109.894 103.792C109.896 103.781 109.901 103.768 109.906 103.758C109.912 103.748 109.916 103.743 109.917 103.742C109.917 103.742 109.916 103.744 109.912 103.746C109.91 103.747 109.908 103.748 109.907 103.748C109.905 103.749 109.905 103.749 109.905 103.749C109.905 103.749 109.91 103.748 109.919 103.748C109.93 103.749 109.941 103.751 109.95 103.755C109.96 103.759 109.958 103.76 109.945 103.749L107.39 106.827ZM86.3631 85.9935L30.0575 108.184L31.5242 111.906L87.8297 89.7149L86.3631 85.9935ZM86.4497 85.7869C48.6979 98.1833 42.4649 101.686 29.8644 108.273L31.7174 111.818C44.0908 105.35 50.1159 101.928 87.6976 89.5873L86.4497 85.7869ZM13.5318 73.3345C14.1398 75.7434 15.4543 79.6833 17.4492 83.8388C19.4378 87.9812 22.1647 92.4691 25.6479 95.8617L28.4388 92.9963C25.425 90.0608 22.9409 86.0356 21.0552 82.1076C19.1757 78.1927 17.9526 74.5047 17.4102 72.3557L13.5318 73.3345ZM41.7229 47.3063C46.8374 43.6683 55.5386 37.9106 64.9673 32.4997C74.4312 27.0686 84.4786 22.0744 92.3292 19.8611L91.2439 16.0112C82.8948 18.365 72.493 23.569 62.9764 29.0304C53.4246 34.5119 44.6142 40.3409 39.4043 44.0468L41.7229 47.3063ZM272.4 162.153C262.018 148.93 243.446 128.187 221.399 108.833C199.386 89.5087 173.727 71.4061 149.176 63.6845L147.976 67.5003C171.725 74.9695 196.878 92.6302 218.76 111.839C240.607 131.017 259.011 151.577 269.254 164.623L272.4 162.153ZM273.853 163.987C263.479 150.775 244.493 129.167 221.768 109.047C199.083 88.9626 172.471 70.1799 146.851 62.8742L145.754 66.7209C170.495 73.7759 196.56 92.0711 219.116 112.042C241.633 131.977 260.455 153.401 270.707 166.458L273.853 163.987ZM138.102 159.88L119.193 148.283L117.102 151.693L136.01 163.289L138.102 159.88ZM120.02 150.689C128.969 126.797 147.505 74.9047 150.446 67.163L146.706 65.7426C143.814 73.3568 125.124 125.659 116.274 149.286L120.02 150.689ZM119.225 150.54C126.312 125.861 147.066 73.2665 150.014 65.5074L146.274 64.087C143.389 71.6837 122.528 124.545 115.38 149.436L119.225 150.54ZM137.912 159.42L129.397 153.447L127.1 156.721L135.615 162.695L137.912 159.42ZM129.093 153.271L118.147 148.175L116.458 151.801L127.405 156.897L129.093 153.271ZM231.777 215.49C237.092 211.15 245.992 202.847 254.461 193.754C262.887 184.706 271.087 174.665 274.805 166.872L271.195 165.149C267.765 172.338 259.95 181.991 251.534 191.028C243.16 200.019 234.392 208.191 229.247 212.392L231.777 215.49ZM231.983 215.549C237.041 211.419 242.186 208.093 248.717 201.496C255.286 194.859 263.328 184.871 274.686 167.087L271.314 164.934C260.044 182.582 252.174 192.317 245.874 198.682C239.535 205.086 234.854 208.04 229.453 212.451L231.983 215.549ZM135.287 161.266L126.632 193.439L130.494 194.478L139.15 162.305L135.287 161.266ZM132.525 197.847L164.204 178.592L162.127 175.174L130.447 194.429L132.525 197.847ZM126.632 193.439C125.698 196.91 129.485 199.695 132.525 197.847L130.447 194.429C130.433 194.438 130.431 194.436 130.441 194.434C130.45 194.432 130.461 194.431 130.471 194.432C130.488 194.433 130.488 194.437 130.48 194.431C130.471 194.425 130.477 194.425 130.485 194.445C130.489 194.456 130.491 194.468 130.492 194.48C130.493 194.492 130.49 194.493 130.494 194.478L126.632 193.439ZM133.429 196.612L145.32 189.277L143.22 185.873L131.329 193.207L133.429 196.612ZM145.301 189.288L164.542 177.708L162.479 174.28L143.239 185.861L145.301 189.288ZM135.095 161.792L130.926 180.342L134.829 181.219L138.997 162.669L135.095 161.792ZM130.955 180.229L127.531 192.153L131.376 193.257L134.8 181.333L130.955 180.229ZM131.329 193.207C131.314 193.217 131.312 193.215 131.322 193.213C131.331 193.21 131.343 193.209 131.353 193.21C131.362 193.211 131.367 193.213 131.367 193.213C131.367 193.213 131.365 193.212 131.362 193.209C131.358 193.206 131.357 193.205 131.358 193.206C131.358 193.207 131.362 193.212 131.366 193.223C131.37 193.234 131.373 193.247 131.373 193.259C131.374 193.272 131.371 193.272 131.376 193.257L127.531 192.153C126.526 195.652 130.364 198.502 133.429 196.612L131.329 193.207ZM162.554 177.966L228.324 215.336L230.3 211.858L164.53 174.489L162.554 177.966ZM162.717 177.817C207.49 199.848 213.804 204.944 228.147 215.222L230.477 211.971C215.936 201.551 209.43 196.344 164.483 174.228L162.717 177.817ZM253.818 169.317C252.746 171.939 250.549 176.362 247.488 180.951C244.42 185.552 240.564 190.199 236.21 193.386L238.573 196.614C243.455 193.039 247.616 187.969 250.816 183.17C254.025 178.359 256.348 173.7 257.52 170.83L253.818 169.317ZM230.512 130.273C224.672 124.738 214.711 115.919 203.765 107.403C192.851 98.9127 180.821 90.6166 170.87 86.2354L169.259 89.8963C178.735 94.0686 190.443 102.107 201.309 110.56C212.143 118.989 222.005 127.722 227.761 133.176L230.512 130.273ZM150.867 130.519L153.974 133.039L150.867 130.519ZM152.213 130.377L155.32 132.896L152.213 130.377ZM94.8613 46.3899C95.65 47.7033 96.725 48.9056 97.9981 49.7149C99.0463 50.3814 101.469 51.4963 103.914 50.0386L99.8164 43.1675C100.575 42.7153 101.308 42.7102 101.725 42.7784C101.928 42.8116 102.073 42.8627 102.155 42.8969C102.239 42.9316 102.283 42.9593 102.29 42.9637C102.298 42.9691 102.227 42.9229 102.105 42.7916C101.987 42.6651 101.851 42.4905 101.72 42.2711L94.8613 46.3899ZM103.914 50.0386C106.366 48.576 106.528 45.906 106.434 44.6639C106.319 43.1581 105.762 41.6435 104.974 40.3306L98.1156 44.4493C98.2473 44.6686 98.3374 44.8698 98.3932 45.0319C98.4513 45.2004 98.4577 45.2832 98.4567 45.2704C98.456 45.2607 98.4524 45.2068 98.4615 45.1145C98.4704 45.0236 98.4943 44.8693 98.5618 44.6725C98.7012 44.2662 99.0566 43.6206 99.8164 43.1675L103.914 50.0386ZM104.974 40.3306C104.185 39.0172 103.11 37.8149 101.837 37.0055C100.789 36.3391 98.366 35.2241 95.9214 36.6818L100.019 43.5529C99.2604 44.0052 98.5271 44.0102 98.1102 43.942C97.9075 43.9088 97.7625 43.8577 97.6801 43.8235C97.5963 43.7888 97.552 43.7611 97.5451 43.7567C97.5366 43.7513 97.6083 43.7975 97.7305 43.9288C97.8482 44.0553 97.9839 44.2299 98.1156 44.4493L104.974 40.3306ZM95.9214 36.6818C93.4687 38.1444 93.307 40.8144 93.4014 42.0565C93.5159 43.5624 94.0727 45.0769 94.8613 46.3899L101.72 42.2711C101.588 42.0518 101.498 41.8506 101.442 41.6885C101.384 41.52 101.377 41.4372 101.378 41.4501C101.379 41.4597 101.383 41.5136 101.374 41.6059C101.365 41.6968 101.341 41.8511 101.273 42.0479C101.134 42.4542 100.779 43.0999 100.019 43.5529L95.9214 36.6818ZM93.821 46.1292C94.6098 47.4426 95.6847 48.6449 96.9578 49.4542C98.0061 50.1207 100.429 51.2356 102.873 49.7779L98.7761 42.9068C99.5345 42.4546 100.268 42.4495 100.685 42.5177C100.887 42.5509 101.032 42.602 101.115 42.6362C101.199 42.6709 101.243 42.6986 101.25 42.703C101.258 42.7084 101.187 42.6622 101.064 42.5309C100.947 42.4044 100.811 42.2298 100.679 42.0104L93.821 46.1292ZM102.873 49.7779C105.326 48.3153 105.488 45.6453 105.393 44.4032C105.279 42.8974 104.722 41.3829 103.934 40.0699L97.0753 44.1886C97.2071 44.4079 97.2971 44.6091 97.353 44.7712C97.4111 44.9397 97.4175 45.0225 97.4165 45.0097C97.4158 45 97.4121 44.9461 97.4212 44.8538C97.4302 44.7629 97.4541 44.6086 97.5216 44.4118C97.661 44.0056 98.0164 43.3599 98.7761 42.9068L102.873 49.7779ZM103.934 40.0699C103.145 38.7565 102.07 37.5542 100.797 36.7448C99.7486 36.0784 97.3257 34.9634 94.8812 36.4211L98.9785 43.2922C98.2202 43.7445 97.4869 43.7495 97.0699 43.6813C96.8672 43.6481 96.7222 43.597 96.6398 43.5628C96.556 43.5281 96.5117 43.5004 96.5048 43.496C96.4964 43.4906 96.5681 43.5368 96.6903 43.6681C96.808 43.7946 96.9436 43.9692 97.0753 44.1886L103.934 40.0699ZM94.8812 36.4211C92.4285 37.8837 92.2668 40.5537 92.3612 41.7958C92.4757 43.3017 93.0325 44.8162 93.821 46.1292L100.679 42.0104C100.548 41.7911 100.458 41.5899 100.402 41.4278C100.344 41.2593 100.337 41.1765 100.338 41.1894C100.339 41.199 100.343 41.2529 100.333 41.3452C100.324 41.4361 100.301 41.5904 100.233 41.7872C100.094 42.1935 99.7383 42.8392 98.9785 43.2922L94.8812 36.4211ZM81.8469 54.1525C82.6356 55.4659 83.7105 56.6682 84.9837 57.4776C86.0319 58.144 88.4547 59.259 90.8993 57.8012L86.802 50.9302C87.5603 50.4779 88.2936 50.4728 88.7106 50.5411C88.9133 50.5743 89.0583 50.6254 89.1407 50.6595C89.2245 50.6943 89.2688 50.722 89.2757 50.7264C89.2841 50.7318 89.2124 50.6856 89.0902 50.5543C88.9725 50.4278 88.8369 50.2532 88.7052 50.0338L81.8469 54.1525ZM90.8993 57.8012C93.352 56.3386 93.5137 53.6687 93.4193 52.4266C93.3048 50.9207 92.748 49.4062 91.9595 48.0932L85.1012 52.2119C85.2329 52.4313 85.323 52.6325 85.3788 52.7946C85.4369 52.963 85.4433 53.0459 85.4423 53.033C85.4416 53.0234 85.438 52.9695 85.4471 52.8771C85.456 52.7863 85.4799 52.6319 85.5474 52.4351C85.6868 52.0289 86.0422 51.3832 86.802 50.9302L90.8993 57.8012ZM91.9595 48.0932C91.1707 46.7798 90.0958 45.5775 88.8227 44.7682C87.7744 44.1017 85.3516 42.9868 82.907 44.4445L87.0044 51.3156C86.246 51.7678 85.5127 51.7729 85.0958 51.7046C84.8931 51.6715 84.7481 51.6204 84.6657 51.5862C84.5819 51.5515 84.5376 51.5237 84.5307 51.5194C84.5222 51.514 84.5939 51.5602 84.7161 51.6915C84.8338 51.8179 84.9694 51.9926 85.1012 52.2119L91.9595 48.0932ZM82.907 44.4445C80.4543 45.9071 80.2926 48.5771 80.387 49.8192C80.5015 51.325 81.0583 52.8395 81.8469 54.1525L88.7052 50.0338C88.5734 49.8145 88.4834 49.6133 88.4275 49.4512C88.3694 49.2827 88.363 49.1999 88.364 49.2127C88.3647 49.2224 88.3684 49.2763 88.3593 49.3686C88.3503 49.4595 88.3264 49.6138 88.2589 49.8106C88.1195 50.2168 87.7641 50.8625 87.0044 51.3156L82.907 44.4445ZM80.8063 53.8919C81.5951 55.2053 82.67 56.4076 83.9431 57.217C84.9914 57.8834 87.4142 58.9983 89.8588 57.5406L85.7614 50.6695C86.5198 50.2173 87.2531 50.2122 87.67 50.2805C87.8727 50.3137 88.0177 50.3647 88.1001 50.3989C88.1839 50.4337 88.2282 50.4614 88.2351 50.4658C88.2436 50.4711 88.1719 50.425 88.0497 50.2936C87.932 50.1672 87.7964 49.9925 87.6646 49.7732L80.8063 53.8919ZM89.8588 57.5406C92.3115 56.078 92.4732 53.408 92.3788 52.1659C92.2643 50.6601 91.7075 49.1456 90.9189 47.8326L84.0606 51.9513C84.1924 52.1707 84.2824 52.3719 84.3383 52.534C84.3964 52.7024 84.4028 52.7852 84.4018 52.7724C84.4011 52.7628 84.3974 52.7088 84.4065 52.6165C84.4155 52.5257 84.4394 52.3713 84.5069 52.1745C84.6463 51.7683 85.0017 51.1226 85.7614 50.6695L89.8588 57.5406ZM90.9189 47.8326C90.1302 46.5192 89.0553 45.3169 87.7821 44.5075C86.7339 43.8411 84.3111 42.7262 81.8665 44.1839L85.9638 51.055C85.2055 51.5072 84.4722 51.5123 84.0552 51.444C83.8525 51.4108 83.7075 51.3598 83.6251 51.3256C83.5413 51.2908 83.497 51.2631 83.4901 51.2587C83.4817 51.2534 83.5534 51.2995 83.6756 51.4309C83.7933 51.5573 83.9289 51.732 84.0606 51.9513L90.9189 47.8326ZM81.8665 44.1839C79.4138 45.6465 79.2521 48.3165 79.3465 49.5586C79.461 51.0644 80.0178 52.5789 80.8063 53.8919L87.6646 49.7732C87.5329 49.5538 87.4428 49.3526 87.387 49.1905C87.3289 49.0221 87.3225 48.9393 87.3235 48.9521C87.3242 48.9617 87.3278 49.0157 87.3187 49.108C87.3098 49.1988 87.2859 49.3532 87.2184 49.55C87.079 49.9562 86.7236 50.6019 85.9638 51.055L81.8665 44.1839ZM68.8296 61.9149C69.6184 63.2283 70.6933 64.4306 71.9664 65.2399C73.0147 65.9064 75.4375 67.0213 77.8821 65.5636L73.7847 58.6925C74.5431 58.2403 75.2764 58.2352 75.6934 58.3035C75.896 58.3366 76.041 58.3877 76.1234 58.4219C76.2072 58.4566 76.2515 58.4844 76.2584 58.4887C76.2669 58.4941 76.1952 58.4479 76.073 58.3166C75.9553 58.1902 75.8197 58.0155 75.6879 57.7962L68.8296 61.9149ZM77.8821 65.5636C80.3348 64.101 80.4965 61.431 80.4021 60.1889C80.2876 58.6831 79.7308 57.1686 78.9422 55.8556L72.084 59.9743C72.2157 60.1936 72.3057 60.3949 72.3616 60.5569C72.4197 60.7254 72.4261 60.8082 72.4251 60.7954C72.4244 60.7858 72.4207 60.7318 72.4298 60.6395C72.4388 60.5486 72.4627 60.3943 72.5302 60.1975C72.6696 59.7913 73.025 59.1456 73.7847 58.6925L77.8821 65.5636ZM78.9422 55.8556C78.1535 54.5422 77.0786 53.3399 75.8055 52.5305C74.7572 51.8641 72.3344 50.7491 69.8898 52.2069L73.9871 59.0779C73.2288 59.5302 72.4955 59.5353 72.0785 59.467C71.8758 59.4338 71.7308 59.3827 71.6484 59.3486C71.5646 59.3138 71.5204 59.2861 71.5134 59.2817C71.505 59.2763 71.5767 59.3225 71.6989 59.4538C71.8166 59.5803 71.9522 59.755 72.084 59.9743L78.9422 55.8556ZM69.8898 52.2069C67.4371 53.6695 67.2754 56.3394 67.3698 57.5815C67.4843 59.0874 68.0411 60.6019 68.8296 61.9149L75.6879 57.7962C75.5562 57.5768 75.4661 57.3756 75.4103 57.2135C75.3522 57.0451 75.3458 56.9622 75.3468 56.9751C75.3475 56.9847 75.3511 57.0386 75.342 57.131C75.3331 57.2218 75.3092 57.3762 75.2417 57.573C75.1023 57.9792 74.7469 58.6249 73.9871 59.0779L69.8898 52.2069ZM67.7892 61.6545C68.5779 62.9679 69.6529 64.1702 70.926 64.9796C71.9743 65.646 74.3971 66.761 76.8416 65.3033L72.7443 58.4322C73.5027 57.9799 74.2359 57.9748 74.6529 58.0431C74.8556 58.0763 75.0006 58.1274 75.083 58.1616C75.1668 58.1963 75.2111 58.224 75.218 58.2284C75.2264 58.2338 75.1547 58.1876 75.0325 58.0563C74.9148 57.9298 74.7792 57.7552 74.6475 57.5358L67.7892 61.6545ZM76.8416 65.3033C79.2944 63.8407 79.456 61.1707 79.3616 59.9286C79.2471 58.4227 78.6903 56.9082 77.9018 55.5952L71.0435 59.714C71.1752 59.9333 71.2653 60.1345 71.3212 60.2966C71.3792 60.4651 71.3856 60.5479 71.3846 60.535C71.3839 60.5254 71.3803 60.4715 71.3894 60.3792C71.3983 60.2883 71.4222 60.134 71.4897 59.9372C71.6291 59.5309 71.9845 58.8852 72.7443 58.4322L76.8416 65.3033ZM77.9018 55.5952C77.113 54.2818 76.0381 53.0795 74.765 52.2702C73.7167 51.6037 71.2939 50.4888 68.8494 51.9465L72.9467 58.8176C72.1883 59.2698 71.455 59.2749 71.0381 59.2067C70.8354 59.1735 70.6904 59.1224 70.608 59.0882C70.5242 59.0535 70.4799 59.0258 70.473 59.0214C70.4646 59.016 70.5362 59.0622 70.6584 59.1935C70.7761 59.32 70.9118 59.4946 71.0435 59.714L77.9018 55.5952ZM68.8494 51.9465C66.3966 53.4091 66.2349 56.0791 66.3294 57.3212C66.4438 58.827 67.0007 60.3415 67.7892 61.6545L74.6475 57.5358C74.5157 57.3165 74.4257 57.1153 74.3698 56.9532C74.3117 56.7847 74.3054 56.7019 74.3063 56.7147C74.3071 56.7244 74.3107 56.7783 74.3016 56.8706C74.2926 56.9615 74.2687 57.1158 74.2012 57.3126C74.0619 57.7189 73.7065 58.3645 72.9467 58.8176L68.8494 51.9465ZM159.914 109.616C159.39 110.262 158.901 110.584 158.696 110.677C158.594 110.723 158.712 110.646 159.024 110.639C159.368 110.631 160.026 110.719 160.661 111.23L155.644 117.462C157.969 119.333 160.691 118.557 162.003 117.961C163.559 117.255 164.99 116.057 166.127 114.655L159.914 109.616ZM160.661 111.23C161.298 111.743 161.527 112.371 161.593 112.717C161.653 113.029 161.601 113.166 161.624 113.06C161.672 112.846 161.882 112.305 162.406 111.659L156.192 106.62C155.055 108.022 154.179 109.67 153.811 111.34C153.501 112.751 153.312 115.583 155.644 117.462L160.661 111.23ZM162.406 111.659C162.93 111.013 163.418 110.692 163.624 110.598C163.726 110.552 163.607 110.63 163.296 110.637C162.952 110.644 162.294 110.557 161.658 110.045L166.675 103.814C164.351 101.942 161.629 102.718 160.317 103.314C158.761 104.02 157.329 105.218 156.192 106.62L162.406 111.659ZM161.658 110.045C161.021 109.532 160.793 108.904 160.726 108.558C160.667 108.246 160.719 108.109 160.695 108.215C160.648 108.429 160.438 108.97 159.914 109.616L166.127 114.655C167.264 113.253 168.141 111.605 168.508 109.935C168.819 108.524 169.008 105.692 166.675 103.814L161.658 110.045ZM161.259 109.474C160.736 110.12 160.247 110.441 160.041 110.534C159.939 110.581 160.058 110.503 160.369 110.496C160.714 110.488 161.372 110.576 162.007 111.088L156.99 117.319C159.314 119.19 162.036 118.414 163.349 117.819C164.905 117.112 166.336 115.915 167.473 114.512L161.259 109.474ZM162.007 111.088C162.644 111.6 162.872 112.228 162.939 112.574C162.999 112.886 162.947 113.024 162.97 112.918C163.017 112.703 163.228 112.162 163.752 111.516L157.538 106.478C156.401 107.879 155.525 109.528 155.157 111.198C154.846 112.608 154.657 115.441 156.99 117.319L162.007 111.088ZM163.752 111.516C164.275 110.87 164.764 110.549 164.97 110.456C165.071 110.409 164.953 110.487 164.642 110.494C164.297 110.502 163.639 110.414 163.004 109.902L168.021 103.671C165.697 101.8 162.974 102.576 161.662 103.171C160.106 103.878 158.675 105.075 157.538 106.478L163.752 111.516ZM163.004 109.902C162.367 109.39 162.139 108.762 162.072 108.416C162.012 108.104 162.064 107.966 162.041 108.072C161.994 108.287 161.783 108.828 161.259 109.474L167.473 114.512C168.61 113.111 169.486 111.462 169.854 109.792C170.164 108.382 170.354 105.549 168.021 103.671L163.004 109.902ZM173.814 121.602C173.439 122.064 173.142 122.401 172.906 122.642C172.656 122.896 172.563 122.949 172.609 122.92C172.65 122.894 173.05 122.645 173.724 122.625C174.074 122.614 174.435 122.669 174.779 122.792C175.117 122.913 175.371 123.076 175.545 123.215L170.527 129.447C171.436 130.178 172.616 130.661 173.962 130.621C175.201 130.584 176.197 130.115 176.872 129.689C178.125 128.9 179.201 127.66 180.027 126.64L173.814 121.602ZM175.545 123.215C176.181 123.728 176.41 124.356 176.476 124.702C176.536 125.014 176.484 125.152 176.507 125.046C176.555 124.831 176.765 124.29 177.289 123.644L171.075 118.605C169.939 120.007 169.062 121.656 168.695 123.326C168.384 124.736 168.195 127.569 170.527 129.447L175.545 123.215ZM177.289 123.644C177.813 122.998 178.301 122.677 178.507 122.583C178.609 122.537 178.49 122.615 178.179 122.622C177.835 122.63 177.177 122.542 176.541 122.03L181.558 115.799C179.234 113.927 176.512 114.703 175.2 115.299C173.644 116.006 172.212 117.203 171.075 118.605L177.289 123.644ZM176.541 122.03C176.097 121.672 175.761 121.197 175.569 120.676C175.389 120.189 175.378 119.781 175.391 119.553C175.414 119.164 175.521 119.05 175.389 119.326C175.145 119.833 174.599 120.634 173.814 121.602L180.027 126.64C180.903 125.56 181.936 124.171 182.598 122.794C182.918 122.128 183.311 121.148 183.377 120.025C183.451 118.771 183.102 117.041 181.558 115.799L176.541 122.03ZM176.143 121.459C175.619 122.105 175.13 122.426 174.925 122.52C174.823 122.566 174.941 122.488 175.253 122.481C175.597 122.474 176.255 122.561 176.89 123.073L171.873 129.304C174.198 131.176 176.92 130.4 178.232 129.804C179.788 129.097 181.219 127.9 182.356 126.498L176.143 121.459ZM176.89 123.073C177.527 123.586 177.756 124.214 177.822 124.56C177.882 124.872 177.83 125.009 177.853 124.903C177.901 124.689 178.111 124.148 178.635 123.501L172.421 118.463C171.284 119.865 170.408 121.513 170.04 123.183C169.73 124.594 169.541 127.426 171.873 129.304L176.89 123.073ZM178.635 123.501C179.159 122.856 179.647 122.534 179.853 122.441C179.955 122.395 179.836 122.472 179.525 122.479C179.181 122.487 178.523 122.399 177.887 121.888L182.904 115.656C180.58 113.785 177.858 114.561 176.546 115.157C174.99 115.863 173.558 117.061 172.421 118.463L178.635 123.501ZM177.887 121.888C177.25 121.375 177.022 120.747 176.955 120.401C176.896 120.089 176.948 119.952 176.924 120.057C176.877 120.272 176.667 120.813 176.143 121.459L182.356 126.498C183.493 125.096 184.37 123.447 184.737 121.777C185.048 120.367 185.237 117.534 182.904 115.656L177.887 121.888ZM189.683 133.587C189.159 134.233 188.67 134.554 188.465 134.648C188.363 134.694 188.481 134.616 188.793 134.609C189.137 134.601 189.795 134.689 190.43 135.201L185.413 141.432C187.738 143.304 190.46 142.528 191.772 141.932C193.328 141.225 194.759 140.028 195.896 138.626L189.683 133.587ZM190.43 135.201C191.067 135.714 191.296 136.341 191.362 136.688C191.422 136.999 191.37 137.137 191.393 137.031C191.441 136.817 191.651 136.275 192.175 135.629L185.961 130.591C184.824 131.993 183.948 133.641 183.58 135.311C183.27 136.722 183.081 139.554 185.413 141.432L190.43 135.201ZM192.175 135.629C192.699 134.984 193.187 134.662 193.393 134.569C193.495 134.523 193.376 134.6 193.065 134.607C192.721 134.615 192.063 134.527 191.427 134.016L196.444 127.784C194.12 125.913 191.398 126.689 190.086 127.285C188.53 127.991 187.098 129.188 185.961 130.591L192.175 135.629ZM191.427 134.016C190.79 133.503 190.562 132.875 190.495 132.529C190.436 132.217 190.488 132.079 190.464 132.185C190.417 132.4 190.207 132.941 189.683 133.587L195.896 138.626C197.033 137.224 197.91 135.575 198.277 133.905C198.588 132.495 198.777 129.662 196.444 127.784L191.427 134.016ZM191.028 133.445C190.504 134.09 190.016 134.412 189.81 134.505C189.708 134.551 189.827 134.474 190.138 134.467C190.483 134.459 191.141 134.547 191.776 135.058L186.759 141.29C189.083 143.161 191.805 142.385 193.118 141.789C194.673 141.083 196.105 139.886 197.242 138.483L191.028 133.445ZM191.776 135.058C192.413 135.571 192.641 136.199 192.708 136.545C192.768 136.857 192.716 136.995 192.739 136.889C192.786 136.674 192.997 136.133 193.521 135.487L187.307 130.448C186.17 131.85 185.294 133.499 184.926 135.169C184.615 136.579 184.426 139.412 186.759 141.29L191.776 135.058ZM193.521 135.487C194.044 134.841 194.533 134.52 194.739 134.427C194.84 134.38 194.722 134.458 194.41 134.465C194.066 134.473 193.408 134.385 192.773 133.873L197.79 127.642C195.465 125.77 192.743 126.546 191.431 127.142C189.875 127.849 188.444 129.046 187.307 130.448L193.521 135.487ZM192.773 133.873C192.136 133.36 191.907 132.733 191.841 132.386C191.781 132.075 191.833 131.937 191.81 132.043C191.763 132.257 191.552 132.799 191.028 133.445L197.242 138.483C198.379 137.081 199.255 135.433 199.623 133.763C199.933 132.352 200.122 129.52 197.79 127.642L192.773 133.873ZM147.76 128C147.237 128.646 146.748 128.967 146.542 129.06C146.44 129.107 146.559 129.029 146.87 129.022C147.215 129.014 147.873 129.102 148.508 129.614L143.491 135.845C145.815 137.716 148.537 136.941 149.85 136.345C151.406 135.638 152.837 134.441 153.974 133.039L147.76 128ZM148.508 129.614C149.145 130.126 149.373 130.754 149.44 131.1C149.5 131.412 149.448 131.55 149.471 131.444C149.518 131.23 149.729 130.688 150.253 130.042L144.039 125.004C142.902 126.406 142.026 128.054 141.658 129.724C141.347 131.135 141.158 133.967 143.491 135.845L148.508 129.614ZM150.253 130.042C150.776 129.397 151.265 129.075 151.471 128.982C151.572 128.936 151.454 129.013 151.143 129.02C150.798 129.028 150.14 128.94 149.505 128.428L154.522 122.197C152.198 120.326 149.475 121.102 148.163 121.697C146.607 122.404 145.176 123.601 144.039 125.004L150.253 130.042ZM149.505 128.428C148.868 127.916 148.64 127.288 148.573 126.942C148.513 126.63 148.565 126.492 148.542 126.598C148.495 126.813 148.284 127.354 147.76 128L153.974 133.039C155.111 131.637 155.987 129.988 156.355 128.318C156.665 126.908 156.854 124.075 154.522 122.197L149.505 128.428ZM149.106 127.857C148.582 128.503 148.094 128.824 147.888 128.918C147.786 128.964 147.905 128.886 148.216 128.879C148.56 128.872 149.218 128.96 149.854 129.471L144.837 135.702C147.161 137.574 149.883 136.798 151.195 136.202C152.751 135.496 154.183 134.298 155.32 132.896L149.106 127.857ZM149.854 129.471C150.491 129.984 150.719 130.612 150.785 130.958C150.845 131.27 150.793 131.407 150.817 131.301C150.864 131.087 151.074 130.546 151.598 129.9L145.384 124.861C144.248 126.263 143.371 127.911 143.004 129.581C142.693 130.992 142.504 133.824 144.837 135.702L149.854 129.471ZM151.598 129.9C152.122 129.254 152.61 128.933 152.816 128.839C152.918 128.793 152.799 128.87 152.488 128.877C152.144 128.885 151.486 128.797 150.85 128.286L155.868 122.055C153.543 120.183 150.821 120.959 149.509 121.555C147.953 122.261 146.521 123.459 145.384 124.861L151.598 129.9ZM150.85 128.286C150.214 127.773 149.985 127.145 149.919 126.799C149.859 126.487 149.911 126.35 149.888 126.456C149.84 126.67 149.63 127.211 149.106 127.857L155.32 132.896C156.456 131.494 157.333 129.846 157.7 128.176C158.011 126.765 158.2 123.933 155.868 122.055L150.85 128.286ZM162.643 139.985C162.12 140.631 161.631 140.952 161.425 141.046C161.324 141.092 161.442 141.014 161.753 141.007C162.098 141 162.756 141.087 163.391 141.599L158.374 147.83C160.698 149.702 163.421 148.926 164.733 148.33C166.289 147.623 167.72 146.426 168.857 145.024L162.643 139.985ZM163.391 141.599C164.028 142.112 164.256 142.74 164.323 143.086C164.383 143.398 164.331 143.535 164.354 143.429C164.401 143.215 164.612 142.674 165.136 142.027L158.922 136.989C157.785 138.391 156.909 140.039 156.541 141.709C156.231 143.12 156.041 145.952 158.374 147.83L163.391 141.599ZM165.136 142.027C165.659 141.382 166.148 141.06 166.354 140.967C166.456 140.921 166.337 140.998 166.026 141.005C165.681 141.013 165.023 140.925 164.388 140.414L169.405 134.182C167.081 132.311 164.359 133.087 163.046 133.683C161.49 134.389 160.059 135.587 158.922 136.989L165.136 142.027ZM164.388 140.414C163.751 139.901 163.523 139.273 163.456 138.927C163.396 138.615 163.448 138.478 163.425 138.583C163.378 138.798 163.167 139.339 162.643 139.985L168.857 145.024C169.994 143.622 170.87 141.974 171.238 140.304C171.548 138.893 171.738 136.061 169.405 134.182L164.388 140.414ZM163.989 139.843C163.466 140.488 162.977 140.81 162.771 140.903C162.67 140.949 162.788 140.872 163.099 140.865C163.444 140.857 164.102 140.945 164.737 141.456L159.72 147.688C162.044 149.559 164.766 148.783 166.079 148.187C167.635 147.481 169.066 146.283 170.203 144.881L163.989 139.843ZM164.737 141.456C165.374 141.969 165.602 142.597 165.669 142.943C165.729 143.255 165.677 143.392 165.7 143.287C165.747 143.072 165.958 142.531 166.482 141.885L160.268 136.846C159.131 138.248 158.255 139.897 157.887 141.567C157.577 142.977 157.387 145.81 159.72 147.688L164.737 141.456ZM166.482 141.885C167.005 141.239 167.494 140.918 167.7 140.824C167.801 140.778 167.683 140.856 167.372 140.863C167.027 140.87 166.369 140.783 165.734 140.271L170.751 134.04C168.427 132.168 165.704 132.944 164.392 133.54C162.836 134.247 161.405 135.444 160.268 136.846L166.482 141.885ZM165.734 140.271C165.097 139.758 164.869 139.131 164.802 138.784C164.742 138.473 164.794 138.335 164.771 138.441C164.724 138.655 164.513 139.196 163.989 139.843L170.203 144.881C171.34 143.479 172.216 141.831 172.584 140.161C172.894 138.75 173.084 135.918 170.751 134.04L165.734 140.271Z" fill="#7831B2" mask="url(#path-1-outside-1_4_3932)"/>
</svg>
