<svg width="292" height="214" viewBox="0 0 292 214" fill="none" xmlns="http://www.w3.org/2000/svg">
<mask id="path-1-outside-1_317_37724" maskUnits="userSpaceOnUse" x="-6.07223" y="-13.0756" width="301.681" height="245.65" fill="black">
<rect fill="white" x="-6.07223" y="-13.0756" width="301.681" height="245.65"/>
<path d="M98.6938 46.4933C99.9607 48.275 101.711 49.2061 102.602 48.5731C103.494 47.9401 103.19 45.9827 101.923 44.201C100.656 42.4194 98.9062 41.4883 98.0145 42.1213C97.1228 42.7543 97.4269 44.7117 98.6938 46.4933Z"/>
<path d="M97.5893 46.3063C98.8562 48.088 100.606 49.0191 101.498 48.3861C102.39 47.7531 102.085 45.7957 100.818 44.014C99.5516 42.2324 97.8017 41.3013 96.91 41.9343C96.0182 42.5673 96.3224 44.5247 97.5893 46.3063Z"/>
<path d="M85.78 55.6626C87.0469 57.4442 88.7968 58.3754 89.6885 57.7424C90.5802 57.1094 90.2761 55.1519 89.0092 53.3703C87.7423 51.5887 85.9924 50.6575 85.1006 51.2905C84.2089 51.9235 84.5131 53.881 85.78 55.6626Z"/>
<path d="M84.6751 55.4757C85.942 57.2573 87.692 58.1885 88.5837 57.5555C89.4754 56.9225 89.1712 54.965 87.9043 53.1834C86.6374 51.4018 84.8875 50.4706 83.9958 51.1036C83.1041 51.7366 83.4082 53.6941 84.6751 55.4757Z"/>
<path d="M72.8632 64.8317C74.1301 66.6134 75.88 67.5445 76.7717 66.9115C77.6634 66.2785 77.3593 64.3211 76.0924 62.5395C74.8255 60.7578 73.0755 59.8267 72.1838 60.4597C71.2921 61.0927 71.5962 63.0501 72.8632 64.8317Z"/>
<path d="M71.7584 64.6451C73.0253 66.4268 74.7752 67.3579 75.667 66.7249C76.5587 66.0919 76.2545 64.1345 74.9876 62.3529C73.7207 60.5712 71.9708 59.6401 71.0791 60.2731C70.1874 60.9061 70.4915 62.8635 71.7584 64.6451Z"/>
<path d="M171.658 111.979C170.097 114.253 167.909 115.465 166.771 114.685C165.633 113.905 165.976 111.43 167.537 109.156C169.098 106.882 171.286 105.671 172.424 106.45C173.562 107.23 173.219 109.705 171.658 111.979Z"/>
<path d="M173.048 111.72C171.487 113.994 169.299 115.206 168.161 114.426C167.023 113.646 167.366 111.171 168.927 108.897C170.488 106.623 172.676 105.412 173.814 106.191C174.952 106.971 174.609 109.446 173.048 111.72Z"/>
<path d="M187.115 123.353C185.554 125.627 184.39 126.758 183.252 125.979C182.114 125.199 182.457 122.724 184.018 120.45C185.579 118.176 187.767 116.964 188.905 117.744C190.043 118.523 188.676 121.079 187.115 123.353Z"/>
<path d="M189.528 123.014C187.967 125.288 185.779 126.499 184.642 125.72C183.504 124.94 183.847 122.464 185.408 120.191C186.969 117.917 189.157 116.705 190.295 117.485C191.432 118.264 191.089 120.74 189.528 123.014Z"/>
<path d="M204.622 134.566C203.061 136.84 200.873 138.052 199.735 137.272C198.597 136.492 198.94 134.017 200.501 131.743C202.062 129.469 204.25 128.258 205.388 129.037C206.526 129.817 206.183 132.292 204.622 134.566Z"/>
<path d="M206.011 134.308C204.45 136.582 202.262 137.793 201.125 137.013C199.987 136.234 200.33 133.758 201.891 131.484C203.452 129.21 205.64 127.999 206.778 128.778C207.916 129.558 207.572 132.034 206.011 134.308Z"/>
<path d="M160.513 132.166C158.952 134.44 156.764 135.651 155.626 134.871C154.488 134.092 154.831 131.616 156.392 129.342C157.953 127.068 160.141 125.857 161.279 126.637C162.417 127.416 162.074 129.892 160.513 132.166Z"/>
<path d="M161.902 131.907C160.341 134.181 158.153 135.392 157.015 134.612C155.877 133.833 156.22 131.357 157.781 129.083C159.342 126.809 161.53 125.598 162.668 126.378C163.806 127.157 163.463 129.633 161.902 131.907Z"/>
<path d="M176.993 143.459C175.432 145.733 173.244 146.945 172.106 146.165C170.968 145.385 171.311 142.91 172.872 140.636C174.433 138.362 176.621 137.15 177.759 137.93C178.897 138.71 178.554 141.185 176.993 143.459Z"/>
<path d="M178.383 143.2C176.822 145.474 174.634 146.686 173.496 145.906C172.358 145.126 172.701 142.651 174.262 140.377C175.823 138.103 178.011 136.891 179.149 137.671C180.287 138.451 179.944 140.926 178.383 143.2Z"/>
</mask>
<path d="M1.89861 76.0592C1.53185 76.4721 1.56927 77.1042 1.9822 77.4709C2.39512 77.8377 3.02718 77.8003 3.39394 77.3873L1.89861 76.0592ZM1.35158 78.169L0.603919 77.5049L0.192876 77.9677L0.423757 78.542L1.35158 78.169ZM112.779 81.1851C112.292 81.4447 112.107 82.0504 112.367 82.5378C112.626 83.0252 113.232 83.2099 113.72 82.9502L112.779 81.1851ZM129.471 73.4258L129.941 74.3084L130.667 73.9216L130.427 73.1346L129.471 73.4258ZM129.74 73.0042L130.161 73.911L130.889 73.5727L130.716 72.789L129.74 73.0042ZM112.995 80.7942C112.524 81.0834 112.377 81.6993 112.667 82.1698C112.956 82.6403 113.572 82.7872 114.042 82.498L112.995 80.7942ZM120.861 77.132L120.44 76.2252L120.387 76.2497L120.338 76.2801L120.861 77.132ZM118.391 108.281L119.371 108.082L118.391 108.281ZM115.202 110.371L115.774 109.551L115.202 110.371ZM91.4597 92.5886C91.0068 92.2726 90.3834 92.3837 90.0674 92.8366C89.7515 93.2896 89.8625 93.9129 90.3154 94.2289L91.4597 92.5886ZM114.502 109.28L113.924 110.097L114.502 109.28ZM105.951 103.232L106.529 102.415L106.52 102.409L105.951 103.232ZM91.2172 91.8317C90.7629 91.5177 90.14 91.6314 89.826 92.0857C89.512 92.5401 89.6257 93.1629 90.08 93.477L91.2172 91.8317ZM115.715 98.185L114.727 98.3428L114.732 98.3717L114.738 98.4003L115.715 98.185ZM117.694 107.164L118.671 106.949L117.694 107.164ZM33.805 120.622L33.2728 119.775L34.2442 121.52L33.805 120.622ZM15.7478 82.7218C15.5714 82.1984 15.0041 81.9171 14.4808 82.0935C13.9574 82.2699 13.6761 82.8372 13.8525 83.3605L15.7478 82.7218ZM27.9808 105.394C28.405 105.748 29.0355 105.691 29.3892 105.267C29.7429 104.843 29.6858 104.212 29.2617 103.858L27.9808 105.394ZM38.0547 51.8582C37.6315 52.2132 37.5762 52.8439 37.9312 53.2671C38.2861 53.6902 38.9169 53.7455 39.34 53.3905L38.0547 51.8582ZM287.38 157.335C287.753 157.741 288.386 157.768 288.793 157.395C289.2 157.021 289.227 156.389 288.853 155.982L287.38 157.335ZM289.043 159.131C289.417 159.538 290.049 159.565 290.456 159.191C290.863 158.817 290.89 158.185 290.516 157.778L289.043 159.131ZM148.227 166.617C148.718 166.869 149.321 166.674 149.572 166.182C149.824 165.691 149.629 165.088 149.137 164.837L148.227 166.617ZM128.042 155.168L127.081 154.893L126.854 155.684L127.586 156.059L128.042 155.168ZM127.162 155.238L126.182 155.038L126.012 155.875L126.812 156.174L127.162 155.238ZM147.824 166.061C148.3 166.343 148.913 166.185 149.194 165.71C149.476 165.235 149.318 164.622 148.843 164.34L147.824 166.061ZM138.978 159.662L139.487 158.801L139.411 158.756L139.329 158.725L138.978 159.662ZM290.594 159.219L291.528 159.576L289.711 158.749L290.594 159.219ZM142.496 200.219L141.513 200.036L142.496 200.219ZM145.718 202.255L146.304 203.066L145.718 202.255ZM177.709 180.371C178.157 180.048 178.258 179.423 177.934 178.975C177.611 178.527 176.986 178.427 176.538 178.75L177.709 180.371ZM146.547 200.899L145.956 200.093L146.547 200.899ZM158.327 192.269L157.744 191.456L157.736 191.462L158.327 192.269ZM177.992 179.417C178.441 179.095 178.544 178.471 178.223 178.022C177.901 177.573 177.276 177.469 176.827 177.791L177.992 179.417ZM145.907 186.109L146.887 186.308L146.893 186.279L146.897 186.25L145.907 186.109ZM143.32 198.837L142.34 198.638L143.32 198.837ZM249.011 212.472L248.586 213.377L249.529 211.617L249.011 212.472ZM273.835 165.183C274.003 164.656 273.712 164.094 273.186 163.926C272.66 163.758 272.097 164.049 271.93 164.575L273.835 165.183ZM241.478 127.793C241.907 128.141 242.537 128.075 242.885 127.646C243.233 127.217 243.167 126.587 242.738 126.239L241.478 127.793ZM177.348 85.3313C176.827 85.1485 176.256 85.4229 176.073 85.9441C175.891 86.4652 176.165 87.0359 176.686 87.2186L177.348 85.3313ZM3.39394 77.3873C12.5538 67.0745 28.8484 50.9526 47.9222 36.1526C67.0141 21.3385 88.7948 7.92443 108.937 2.91625L108.454 0.975348C87.9035 6.08516 65.857 19.7049 46.6961 34.5725C27.517 49.4542 11.1333 65.6621 1.89861 76.0592L3.39394 77.3873ZM2.09925 78.8331C11.2733 68.5043 27.4424 51.6497 46.5902 36.2212C65.7597 20.7751 87.8117 6.84319 108.758 2.23153L108.328 0.278308C86.921 4.99141 64.5746 19.1616 45.3353 34.6638C26.0743 50.1836 9.82448 67.1237 0.603919 77.5049L2.09925 78.8331ZM113.72 82.9502L129.941 74.3084L129 72.5432L112.779 81.1851L113.72 82.9502ZM130.427 73.1346C124.297 52.9972 111.53 11.0876 109.514 4.5745L107.603 5.16588C109.617 11.6731 122.382 53.5758 128.514 73.7171L130.427 73.1346ZM130.716 72.789C126.098 51.8386 112.026 7.49707 110.021 1.01772L108.11 1.6091C110.135 8.15004 124.168 52.3748 128.763 73.2195L130.716 72.789ZM114.042 82.498L121.385 77.9839L120.338 76.2801L112.995 80.7942L114.042 82.498ZM121.283 78.0388L130.161 73.911L129.318 72.0975L120.44 76.2252L121.283 78.0388ZM36.5766 120.24C32.5056 116.463 25.1801 108.984 18.2342 100.858C11.261 92.7007 4.77935 84.0144 2.27941 77.796L0.423757 78.542C3.06036 85.1003 9.74962 94.0106 16.714 102.158C23.7057 110.337 31.0843 117.872 35.2164 121.706L36.5766 120.24ZM36.5726 120.239C32.3452 116.317 28.0901 113.394 22.6079 107.478C17.1764 101.617 10.6369 92.8898 2.22664 77.685L0.476527 78.653C8.94233 93.9583 15.5717 102.828 21.1409 108.838C26.6593 114.793 31.2366 118.017 35.2123 121.705L36.5726 120.239ZM112.125 82.4249L117.411 108.48L119.371 108.082L114.085 82.0273L112.125 82.4249ZM115.774 109.551L91.4597 92.5886L90.3154 94.2289L114.63 111.191L115.774 109.551ZM117.411 108.48C117.599 109.408 116.556 110.096 115.774 109.551L114.63 111.191C116.888 112.767 119.919 110.784 119.371 108.082L117.411 108.48ZM115.079 108.464L106.529 102.416L105.374 104.048L113.924 110.097L115.079 108.464ZM106.52 102.409L91.2172 91.8317L90.08 93.477L105.383 104.055L106.52 102.409ZM112.237 82.7613L114.727 98.3428L116.702 98.0272L114.212 82.4456L112.237 82.7613ZM114.738 98.4003L116.717 107.38L118.671 106.949L116.691 97.9697L114.738 98.4003ZM113.924 110.097C116.2 111.707 119.271 109.675 118.671 106.949L116.717 107.38C116.924 108.316 115.867 109.021 115.079 108.464L113.924 110.097ZM90.1714 91.9478L33.3657 119.723L34.2442 121.52L91.0499 93.7446L90.1714 91.9478ZM90.187 91.7512C51.9411 107.764 45.7932 111.905 33.2728 119.775L34.3372 121.468C46.749 113.666 52.7962 109.574 90.9594 93.596L90.187 91.7512ZM13.8525 83.3605C14.6598 85.7559 16.3216 89.6945 18.7032 93.8061C21.0812 97.9114 24.2129 102.252 27.9808 105.394L29.2617 103.858C25.7452 100.926 22.7523 96.8063 20.4338 92.8036C18.119 88.8072 16.5124 84.9905 15.7478 82.7218L13.8525 83.3605ZM39.34 53.3905C44.3912 49.1534 53.0067 42.4087 62.4119 35.9662C71.8339 29.5123 81.9773 23.4115 90.1019 20.4095L89.4088 18.5334C81.0407 21.6254 70.7287 27.8451 61.2817 34.3162C51.8179 40.7988 43.1508 47.5835 38.0547 51.8582L39.34 53.3905ZM288.853 155.982C276.999 143.073 256.008 122.985 231.522 104.629C207.053 86.2864 178.997 69.5982 153.023 63.5986L152.573 65.5473C178.137 71.4521 205.924 87.9391 230.322 106.229C254.702 124.506 275.602 144.509 287.38 157.335L288.853 155.982ZM290.516 157.778C278.667 144.874 257.173 123.917 231.92 104.819C206.688 85.7379 177.597 68.4292 150.564 62.9493L150.167 64.9094C176.751 70.2983 205.55 87.3847 230.713 106.415C255.855 125.428 277.261 146.3 289.043 159.131L290.516 157.778ZM149.137 164.837L128.497 154.278L127.586 156.059L148.227 166.617L149.137 164.837ZM129.003 155.444C136.338 129.844 151.412 74.0379 153.829 65.7511L151.909 65.1913C149.511 73.4127 134.377 129.429 127.081 154.893L129.003 155.444ZM128.142 155.437C133.508 129.034 150.824 72.3538 153.243 64.0581L151.323 63.4983C148.928 71.7108 131.57 128.528 126.182 155.038L128.142 155.437ZM148.843 164.34L139.487 158.801L138.468 160.522L147.824 166.061L148.843 164.34ZM139.329 158.725L127.513 154.301L126.812 156.174L138.627 160.598L139.329 158.725ZM250.981 213.455C256.115 208.531 264.668 199.173 272.716 189.017C280.745 178.884 288.361 167.844 291.528 159.576L289.66 158.861C286.613 166.817 279.172 177.648 271.149 187.774C263.144 197.876 254.652 207.164 249.597 212.012L250.981 213.455ZM251.2 213.5C256.214 208.69 261.181 204.909 267.391 197.543C273.619 190.157 281.132 179.144 291.477 159.688L289.711 158.749C279.404 178.134 271.967 189.014 265.862 196.254C259.74 203.515 254.99 207.094 249.815 212.057L251.2 213.5ZM147.885 165.741L141.513 200.036L143.479 200.401L149.851 166.106L147.885 165.741ZM146.304 203.066L177.709 180.371L176.538 178.75L145.133 201.445L146.304 203.066ZM141.513 200.036C141.009 202.747 144.073 204.678 146.304 203.066L145.133 201.445C144.36 202.003 143.306 201.332 143.479 200.401L141.513 200.036ZM147.138 201.706L158.918 193.075L157.736 191.462L145.956 200.093L147.138 201.706ZM158.909 193.082L177.992 179.417L176.827 177.791L157.744 191.456L158.909 193.082ZM147.735 166.261L144.917 185.967L146.897 186.25L149.715 166.544L147.735 166.261ZM144.927 185.909L142.34 198.638L144.3 199.036L146.887 186.308L144.927 185.909ZM145.956 200.093C145.177 200.663 144.109 199.976 144.3 199.036L142.34 198.638C141.784 201.374 144.889 203.354 147.138 201.706L145.956 200.093ZM177.036 179.75L248.586 213.377L249.436 211.567L177.887 177.94L177.036 179.75ZM177.134 179.555C225.611 198.908 232.658 203.738 248.493 213.328L249.529 211.617C233.59 201.964 226.443 197.087 177.876 177.698L177.134 179.555ZM271.93 164.575C271.007 167.47 269.053 172.334 266.207 177.439C263.358 182.55 259.651 187.839 255.244 191.64L256.55 193.154C261.205 189.14 265.048 183.627 267.954 178.412C270.864 173.191 272.872 168.204 273.835 165.183L271.93 164.575ZM242.738 126.239C236.227 120.96 225.161 112.59 213.096 104.617C201.049 96.6564 187.935 89.0437 177.348 85.3313L176.686 87.2186C187.029 90.8451 199.972 98.3418 211.994 106.286C223.999 114.219 235.013 122.55 241.478 127.793L242.738 126.239ZM97.0639 47.6524C97.8383 48.7415 98.8141 49.6535 99.8493 50.2043C100.766 50.6923 102.365 51.1946 103.76 50.204L101.445 46.9422C101.689 46.7686 101.911 46.7686 101.962 46.7728C101.996 46.7757 101.917 46.7738 101.728 46.6731C101.349 46.4712 100.816 46.0268 100.324 45.3343L97.0639 47.6524ZM103.76 50.204C105.157 49.2126 105.208 47.5375 105.048 46.5107C104.868 45.3521 104.327 44.1311 103.553 43.042L100.293 45.3601C100.786 46.0526 101.03 46.7011 101.096 47.1249C101.129 47.3361 101.105 47.4097 101.113 47.3763C101.126 47.3263 101.2 47.116 101.445 46.9422L103.76 50.204ZM103.553 43.042C102.778 41.9529 101.803 41.0409 100.768 40.4901C99.8504 40.002 98.2523 39.4998 96.8568 40.4904L99.1722 43.7522C98.9276 43.9258 98.7053 43.9258 98.6549 43.9216C98.6213 43.9187 98.6994 43.9206 98.8886 44.0213C99.268 44.2232 99.8006 44.6676 100.293 45.3601L103.553 43.042ZM96.8568 40.4904C95.4603 41.4817 95.4088 43.1568 95.5684 44.1837C95.7484 45.3422 96.2895 46.5633 97.0639 47.6524L100.324 45.3343C99.8312 44.6417 99.5868 43.9933 99.5209 43.5695C99.4881 43.3582 99.5121 43.2847 99.5035 43.3181C99.4906 43.3681 99.4169 43.5784 99.1722 43.7522L96.8568 40.4904ZM95.9594 47.4654C96.7338 48.5545 97.7096 49.4665 98.7448 50.0173C99.6619 50.5053 101.26 51.0076 102.656 50.017L100.34 46.7552C100.585 46.5816 100.807 46.5816 100.857 46.5858C100.891 46.5887 100.813 46.5868 100.624 46.4861C100.244 46.2842 99.7116 45.8398 99.2192 45.1473L95.9594 47.4654ZM102.656 50.017C104.052 49.0256 104.103 47.3505 103.944 46.3237C103.764 45.1652 103.223 43.9441 102.448 42.855L99.1886 45.1731C99.681 45.8656 99.9255 46.5141 99.9914 46.9379C100.024 47.1492 100 47.2227 100.009 47.1893C100.022 47.1393 100.095 46.929 100.34 46.7552L102.656 50.017ZM102.448 42.855C101.674 41.7659 100.698 40.8539 99.663 40.3031C98.7458 39.815 97.1477 39.3128 95.7523 40.3034L98.0676 43.5652C97.8231 43.7388 97.6008 43.7388 97.5504 43.7346C97.5168 43.7317 97.5949 43.7336 97.784 43.8343C98.1635 44.0362 98.6961 44.4806 99.1886 45.1731L102.448 42.855ZM95.7523 40.3034C94.3557 41.2947 94.3043 42.9698 94.4639 43.9967C94.6439 45.1552 95.1849 46.3763 95.9594 47.4654L99.2192 45.1473C98.7267 44.4547 98.4823 43.8063 98.4164 43.3825C98.3836 43.1712 98.4076 43.0977 98.399 43.1311C98.3861 43.1811 98.3124 43.3914 98.0676 43.5652L95.7523 40.3034ZM84.15 56.8216C84.9245 57.9107 85.9003 58.8228 86.9354 59.3736C87.8526 59.8616 89.4507 60.3638 90.8462 59.3732L88.5308 56.1115C88.7754 55.9379 88.9976 55.9378 89.0481 55.9421C89.0817 55.9449 89.0036 55.943 88.8144 55.8424C88.4349 55.6404 87.9023 55.1961 87.4099 54.5036L84.15 56.8216ZM90.8462 59.3732C92.2427 58.3819 92.2941 56.7068 92.1346 55.68C91.9546 54.5214 91.4135 53.3003 90.6391 52.2113L87.3792 54.5293C87.8717 55.2219 88.1162 55.8703 88.182 56.2941C88.2149 56.5054 88.1909 56.579 88.1995 56.5455C88.2123 56.4955 88.286 56.2852 88.5308 56.1115L90.8462 59.3732ZM90.6391 52.2113C89.8646 51.1222 88.8888 50.2101 87.8537 49.6593C86.9365 49.1713 85.3384 48.6691 83.9429 49.6597L86.2583 52.9214C86.0137 53.095 85.7915 53.0951 85.7411 53.0908C85.7075 53.088 85.7855 53.0899 85.9747 53.1905C86.3542 53.3925 86.8868 53.8368 87.3792 54.5293L90.6391 52.2113ZM83.9429 49.6597C82.5464 50.651 82.495 52.3261 82.6545 53.3529C82.8345 54.5115 83.3756 55.7326 84.15 56.8216L87.4099 54.5036C86.9174 53.811 86.6729 53.1626 86.6071 52.7388C86.5743 52.5275 86.5982 52.4539 86.5896 52.4874C86.5768 52.5374 86.5031 52.7477 86.2583 52.9214L83.9429 49.6597ZM83.0452 56.6347C83.8197 57.7238 84.7955 58.6359 85.8306 59.1867C86.7478 59.6747 88.3459 60.1769 89.7414 59.1863L87.426 55.9246C87.6706 55.751 87.8928 55.7509 87.9432 55.7552C87.9768 55.758 87.8988 55.7561 87.7096 55.6555C87.3301 55.4535 86.7975 55.0092 86.3051 54.3167L83.0452 56.6347ZM89.7414 59.1863C91.1379 58.195 91.1893 56.5199 91.0298 55.4931C90.8498 54.3345 90.3087 53.1134 89.5343 52.0244L86.2744 54.3424C86.7669 55.035 87.0114 55.6834 87.0772 56.1072C87.11 56.3185 87.0861 56.3921 87.0947 56.3586C87.1075 56.3086 87.1812 56.0983 87.426 55.9246L89.7414 59.1863ZM89.5343 52.0244C88.7598 50.9353 87.784 50.0232 86.7489 49.4724C85.8317 48.9844 84.2336 48.4822 82.8381 49.4728L85.1535 52.7345C84.9089 52.9081 84.6867 52.9082 84.6362 52.9039C84.6027 52.9011 84.6807 52.903 84.8699 53.0036C85.2494 53.2056 85.782 53.6499 86.2744 54.3424L89.5343 52.0244ZM82.8381 49.4728C81.4416 50.4641 81.3902 52.1392 81.5497 53.166C81.7297 54.3246 82.2708 55.5457 83.0452 56.6347L86.3051 54.3167C85.8126 53.6241 85.5681 52.9757 85.5023 52.5519C85.4695 52.3406 85.4934 52.267 85.4848 52.3005C85.472 52.3505 85.3983 52.5608 85.1535 52.7345L82.8381 49.4728ZM71.2332 65.9908C72.0077 67.0799 72.9835 67.9919 74.0186 68.5427C74.9358 69.0307 76.5339 69.533 77.9294 68.5424L75.614 65.2806C75.8586 65.107 76.0808 65.107 76.1312 65.1112C76.1648 65.1141 76.0868 65.1122 75.8976 65.0115C75.5181 64.8096 74.9855 64.3652 74.4931 63.6727L71.2332 65.9908ZM77.9294 68.5424C79.3259 67.551 79.3773 65.876 79.2178 64.8491C79.0378 63.6906 78.4967 62.4695 77.7223 61.3804L74.4624 63.6985C74.9549 64.3911 75.1994 65.0395 75.2652 65.4633C75.298 65.6746 75.2741 65.7481 75.2827 65.7147C75.2955 65.6647 75.3692 65.4544 75.614 65.2806L77.9294 68.5424ZM77.7223 61.3804C76.9478 60.2913 75.972 59.3793 74.9369 58.8285C74.0197 58.3405 72.4216 57.8382 71.0261 58.8288L73.3415 62.0906C73.0969 62.2642 72.8747 62.2642 72.8243 62.26C72.7907 62.2571 72.8687 62.259 73.0579 62.3597C73.4374 62.5616 73.97 63.006 74.4624 63.6985L77.7223 61.3804ZM71.0261 58.8288C69.6296 59.8202 69.5782 61.4953 69.7377 62.5221C69.9177 63.6806 70.4588 64.9017 71.2332 65.9908L74.4931 63.6727C74.0006 62.9802 73.7561 62.3317 73.6903 61.9079C73.6575 61.6967 73.6814 61.6231 73.6728 61.6565C73.66 61.7066 73.5863 61.9168 73.3415 62.0906L71.0261 58.8288ZM70.1285 65.8042C70.903 66.8933 71.8788 67.8053 72.9139 68.3561C73.8311 68.8442 75.4292 69.3464 76.8247 68.3558L74.5093 65.094C74.7539 64.9204 74.9761 64.9204 75.0265 64.9246C75.0601 64.9275 74.9821 64.9256 74.7929 64.8249C74.4134 64.623 73.8808 64.1786 73.3883 63.4861L70.1285 65.8042ZM76.8247 68.3558C78.2212 67.3644 78.2726 65.6893 78.1131 64.6625C77.933 63.504 77.392 62.2829 76.6176 61.1938L73.3577 63.5119C73.8502 64.2045 74.0946 64.8529 74.1605 65.2767C74.1933 65.488 74.1694 65.5615 74.178 65.5281C74.1908 65.4781 74.2645 65.2678 74.5093 65.094L76.8247 68.3558ZM76.6176 61.1938C75.8431 60.1047 74.8673 59.1927 73.8322 58.6419C72.915 58.1538 71.3169 57.6516 69.9214 58.6422L72.2368 61.904C71.9922 62.0776 71.77 62.0776 71.7195 62.0734C71.6859 62.0705 71.764 62.0724 71.9532 62.1731C72.3327 62.375 72.8653 62.8194 73.3577 63.5119L76.6176 61.1938ZM69.9214 58.6422C68.5249 59.6336 68.4734 61.3087 68.633 62.3355C68.813 63.494 69.3541 64.7151 70.1285 65.8042L73.3883 63.4861C72.8959 62.7936 72.6514 62.1451 72.5856 61.7213C72.5527 61.5101 72.5767 61.4365 72.5681 61.4699C72.5553 61.5199 72.4816 61.7302 72.2368 61.904L69.9214 58.6422ZM170.009 110.847C169.367 111.784 168.647 112.418 168.087 112.728C167.411 113.102 167.51 112.767 167.902 113.035L165.641 116.335C167.171 117.383 168.933 116.832 170.025 116.227C171.234 115.558 172.389 114.449 173.307 113.111L170.009 110.847ZM167.902 113.035C168.295 113.304 168.017 113.52 168.123 112.755C168.211 112.123 168.543 111.224 169.186 110.288L165.889 108.024C164.97 109.362 164.351 110.838 164.161 112.206C163.99 113.443 164.11 115.286 165.641 116.335L167.902 113.035ZM169.186 110.288C169.829 109.351 170.549 108.718 171.108 108.408C171.785 108.033 171.686 108.369 171.294 108.1L173.555 104.8C172.025 103.752 170.263 104.304 169.171 104.908C167.962 105.578 166.807 106.687 165.889 108.024L169.186 110.288ZM171.294 108.1C170.901 107.831 171.178 107.615 171.072 108.38C170.985 109.012 170.652 109.911 170.009 110.847L173.307 113.111C174.225 111.774 174.845 110.298 175.034 108.929C175.206 107.692 175.086 105.849 173.555 104.8L171.294 108.1ZM171.399 110.588C170.756 111.525 170.036 112.159 169.477 112.469C168.8 112.843 168.899 112.508 169.291 112.776L167.03 116.076C168.56 117.124 170.322 116.573 171.414 115.968C172.623 115.298 173.778 114.19 174.696 112.852L171.399 110.588ZM169.291 112.776C169.684 113.045 169.407 113.261 169.513 112.496C169.6 111.864 169.933 110.965 170.576 110.029L167.278 107.765C166.36 109.103 165.74 110.579 165.551 111.947C165.379 113.184 165.499 115.027 167.03 116.076L169.291 112.776ZM170.576 110.029C171.219 109.092 171.938 108.459 172.498 108.149C173.174 107.774 173.075 108.11 172.683 107.841L174.944 104.541C173.414 103.493 171.652 104.045 170.56 104.649C169.351 105.319 168.196 106.428 167.278 107.765L170.576 110.029ZM172.683 107.841C172.29 107.572 172.568 107.356 172.462 108.121C172.374 108.753 172.042 109.652 171.399 110.588L174.696 112.852C175.615 111.515 176.234 110.039 176.424 108.67C176.595 107.433 176.475 105.59 174.944 104.541L172.683 107.841ZM185.466 122.221C184.684 123.361 184.164 123.958 183.828 124.209C183.683 124.317 183.716 124.249 183.9 124.229C184.137 124.203 184.322 124.287 184.382 124.329L182.121 127.629C182.751 128.06 183.508 128.295 184.332 128.205C185.103 128.122 185.738 127.775 186.222 127.413C187.143 126.725 187.985 125.62 188.764 124.485L185.466 122.221ZM184.382 124.329C184.775 124.598 184.498 124.813 184.604 124.049C184.691 123.417 185.024 122.518 185.667 121.581L182.369 119.318C181.451 120.655 180.831 122.131 180.642 123.5C180.47 124.737 180.59 126.58 182.121 127.629L184.382 124.329ZM185.667 121.581C186.31 120.645 187.029 120.011 187.589 119.701C188.265 119.327 188.166 119.662 187.774 119.394L190.035 116.094C188.505 115.046 186.743 115.597 185.651 116.202C184.442 116.871 183.287 117.98 182.369 119.318L185.667 121.581ZM187.774 119.394C187.378 119.122 187.326 118.726 187.325 118.668C187.325 118.657 187.327 118.701 187.3 118.817C187.275 118.929 187.229 119.079 187.157 119.267C186.849 120.063 186.226 121.114 185.466 122.221L188.764 124.485C189.565 123.319 190.406 121.955 190.888 120.709C191.124 120.098 191.339 119.352 191.324 118.59C191.308 117.763 191.001 116.755 190.035 116.094L187.774 119.394ZM187.88 121.882C187.237 122.818 186.517 123.452 185.958 123.762C185.281 124.137 185.38 123.801 185.772 124.07L183.511 127.369C185.041 128.418 186.803 127.866 187.895 127.262C189.104 126.592 190.259 125.483 191.177 124.146L187.88 121.882ZM185.772 124.07C186.165 124.339 185.888 124.554 185.994 123.79C186.081 123.158 186.414 122.259 187.057 121.322L183.759 119.059C182.841 120.396 182.221 121.872 182.031 123.241C181.86 124.477 181.98 126.321 183.511 127.369L185.772 124.07ZM187.057 121.322C187.699 120.386 188.419 119.752 188.979 119.442C189.655 119.068 189.556 119.403 189.164 119.135L191.425 115.835C189.895 114.787 188.133 115.338 187.041 115.943C185.832 116.612 184.677 117.721 183.759 119.059L187.057 121.322ZM189.164 119.135C188.771 118.865 189.048 118.65 188.943 119.414C188.855 120.047 188.522 120.945 187.88 121.882L191.177 124.146C192.095 122.808 192.715 121.332 192.905 119.963C193.076 118.727 192.956 116.884 191.425 115.835L189.164 119.135ZM202.973 133.434C202.33 134.371 201.611 135.005 201.051 135.315C200.375 135.689 200.474 135.354 200.866 135.622L198.605 138.922C200.135 139.97 201.897 139.419 202.989 138.814C204.198 138.145 205.353 137.036 206.271 135.698L202.973 133.434ZM200.866 135.622C201.259 135.891 200.981 136.107 201.087 135.342C201.175 134.71 201.507 133.811 202.15 132.875L198.852 130.611C197.934 131.949 197.315 133.425 197.125 134.793C196.954 136.03 197.074 137.873 198.605 138.922L200.866 135.622ZM202.15 132.875C202.793 131.938 203.513 131.305 204.072 130.995C204.749 130.62 204.65 130.956 204.258 130.687L206.519 127.387C204.989 126.339 203.227 126.891 202.135 127.495C200.926 128.165 199.771 129.274 198.852 130.611L202.15 132.875ZM204.258 130.687C203.865 130.418 204.142 130.202 204.036 130.967C203.949 131.599 203.616 132.498 202.973 133.434L206.271 135.698C207.189 134.361 207.809 132.885 207.998 131.516C208.17 130.279 208.05 128.436 206.519 127.387L204.258 130.687ZM204.363 133.176C203.72 134.112 203 134.746 202.441 135.056C201.764 135.43 201.863 135.095 202.255 135.363L199.994 138.663C201.524 139.711 203.286 139.16 204.378 138.555C205.587 137.886 206.742 136.777 207.66 135.439L204.363 133.176ZM202.255 135.363C202.648 135.633 202.371 135.848 202.477 135.084C202.564 134.451 202.897 133.553 203.54 132.616L200.242 130.352C199.324 131.69 198.704 133.166 198.514 134.535C198.343 135.771 198.463 137.614 199.994 138.663L202.255 135.363ZM203.54 132.616C204.182 131.68 204.902 131.046 205.462 130.736C206.138 130.361 206.039 130.697 205.647 130.428L207.908 127.129C206.378 126.08 204.616 126.632 203.524 127.237C202.315 127.906 201.16 129.015 200.242 130.352L203.54 132.616ZM205.647 130.428C205.254 130.159 205.531 129.944 205.426 130.708C205.338 131.34 205.005 132.239 204.363 133.176L207.66 135.439C208.578 134.102 209.198 132.626 209.388 131.257C209.559 130.021 209.439 128.178 207.908 127.129L205.647 130.428ZM158.864 131.034C158.221 131.97 157.501 132.604 156.942 132.914C156.265 133.289 156.364 132.953 156.756 133.222L154.495 136.521C156.025 137.569 157.787 137.018 158.879 136.413C160.088 135.744 161.243 134.635 162.162 133.298L158.864 131.034ZM156.756 133.222C157.149 133.491 156.872 133.706 156.978 132.942C157.065 132.309 157.398 131.411 158.041 130.474L154.743 128.21C153.825 129.548 153.205 131.024 153.016 132.393C152.844 133.629 152.964 135.472 154.495 136.521L156.756 133.222ZM158.041 130.474C158.684 129.538 159.403 128.904 159.963 128.594C160.639 128.219 160.54 128.555 160.148 128.287L162.409 124.987C160.879 123.939 159.117 124.49 158.025 125.095C156.816 125.764 155.661 126.873 154.743 128.21L158.041 130.474ZM160.148 128.287C159.755 128.017 160.033 127.802 159.927 128.566C159.839 129.199 159.507 130.097 158.864 131.034L162.162 133.298C163.08 131.96 163.699 130.484 163.889 129.115C164.06 127.879 163.94 126.036 162.409 124.987L160.148 128.287ZM160.253 130.775C159.61 131.711 158.891 132.345 158.331 132.655C157.655 133.03 157.754 132.694 158.146 132.962L155.885 136.262C157.415 137.31 159.177 136.759 160.269 136.154C161.478 135.485 162.633 134.376 163.551 133.039L160.253 130.775ZM158.146 132.962C158.539 133.232 158.261 133.447 158.367 132.683C158.455 132.05 158.787 131.152 159.43 130.215L156.132 127.951C155.214 129.289 154.595 130.765 154.405 132.134C154.234 133.37 154.354 135.213 155.885 136.262L158.146 132.962ZM159.43 130.215C160.073 129.279 160.793 128.645 161.352 128.335C162.029 127.96 161.93 128.296 161.538 128.027L163.799 124.728C162.269 123.68 160.507 124.231 159.415 124.836C158.205 125.505 157.051 126.614 156.132 127.951L159.43 130.215ZM161.538 128.027C161.145 127.758 161.422 127.543 161.316 128.307C161.229 128.94 160.896 129.838 160.253 130.775L163.551 133.039C164.469 131.701 165.089 130.225 165.278 128.856C165.45 127.62 165.33 125.777 163.799 124.728L161.538 128.027ZM175.344 142.327C174.701 143.264 173.982 143.898 173.422 144.207C172.746 144.582 172.845 144.247 173.237 144.515L170.976 147.815C172.506 148.863 174.268 148.312 175.36 147.707C176.569 147.037 177.724 145.929 178.642 144.591L175.344 142.327ZM173.237 144.515C173.63 144.784 173.352 145 173.458 144.235C173.546 143.603 173.878 142.704 174.521 141.768L171.223 139.504C170.305 140.841 169.686 142.317 169.496 143.686C169.325 144.923 169.445 146.766 170.976 147.815L173.237 144.515ZM174.521 141.768C175.164 140.831 175.884 140.197 176.443 139.888C177.12 139.513 177.021 139.849 176.629 139.58L178.89 136.28C177.36 135.232 175.598 135.784 174.506 136.388C173.297 137.058 172.142 138.166 171.223 139.504L174.521 141.768ZM176.629 139.58C176.236 139.311 176.513 139.095 176.407 139.86C176.32 140.492 175.987 141.391 175.344 142.327L178.642 144.591C179.56 143.254 180.18 141.778 180.369 140.409C180.541 139.172 180.421 137.329 178.89 136.28L176.629 139.58ZM176.734 142.068C176.091 143.005 175.372 143.639 174.812 143.948C174.135 144.323 174.234 143.988 174.626 144.256L172.366 147.556C173.895 148.604 175.657 148.053 176.75 147.448C177.959 146.778 179.114 145.67 180.032 144.332L176.734 142.068ZM174.626 144.256C175.019 144.525 174.742 144.741 174.848 143.976C174.936 143.344 175.268 142.445 175.911 141.509L172.613 139.245C171.695 140.582 171.075 142.058 170.886 143.427C170.714 144.664 170.835 146.507 172.366 147.556L174.626 144.256ZM175.911 141.509C176.554 140.572 177.273 139.938 177.833 139.629C178.51 139.254 178.41 139.59 178.019 139.321L180.279 136.021C178.75 134.973 176.988 135.524 175.895 136.129C174.686 136.799 173.531 137.907 172.613 139.245L175.911 141.509ZM178.019 139.321C177.626 139.052 177.903 138.836 177.797 139.601C177.709 140.233 177.377 141.132 176.734 142.068L180.032 144.332C180.95 142.995 181.569 141.519 181.759 140.15C181.93 138.913 181.81 137.07 180.279 136.021L178.019 139.321Z" fill="#7831B2" mask="url(#path-1-outside-1_317_37724)"/>
</svg>
