<svg width="1626" height="1892" viewBox="0 0 1626 1892" fill="none" xmlns="http://www.w3.org/2000/svg">
<g opacity="0.79">
<path fill-rule="evenodd" clip-rule="evenodd" d="M19.1886 1891.48C18.3717 1892.22 17.1068 1892.16 16.3633 1891.35L14.2088 1888.98L11.6798 1889.85C10.1174 1890.39 8.38491 1889.91 7.31964 1888.65L6.42498 1887.59L2.65168 1888.89C1.60729 1889.24 0.46912 1888.69 0.109507 1887.65C-0.250105 1886.6 0.305017 1885.46 1.34941 1885.1L5.12271 1883.8C6.68516 1883.27 8.41761 1883.74 9.48289 1885.01L10.3775 1886.07L12.9065 1885.2C14.4168 1884.68 16.0917 1885.11 17.1669 1886.29L19.3214 1888.65C20.0649 1889.47 20.0055 1890.74 19.1886 1891.48Z" fill="#7831B2"/>
<path fill-rule="evenodd" clip-rule="evenodd" d="M95.1482 801.785C94.064 801.574 93.3558 800.524 93.5666 799.44L94.4971 794.653L92.2411 793.637C90.5485 792.875 89.6026 791.049 89.9568 789.227L90.6408 785.707L87.8306 784.37C86.1832 783.586 85.2751 781.786 85.6233 779.995L86.2773 776.63L82.8492 775.964C81.7649 775.753 81.0568 774.703 81.2675 773.619C81.4783 772.535 82.5281 771.827 83.6124 772.037L87.0406 772.704C89.2091 773.125 90.6254 775.225 90.2038 777.393L89.5498 780.758L92.36 782.096C94.0075 782.88 94.9155 784.68 94.5674 786.471L93.8833 789.99L96.1393 791.006C97.8319 791.768 98.7778 793.594 98.4236 795.416L97.4931 800.203C97.2823 801.288 96.2325 801.996 95.1482 801.785Z" fill="#7831B2"/>
<path fill-rule="evenodd" clip-rule="evenodd" d="M1625.42 804.48C1625.1 805.536 1623.98 806.13 1622.93 805.807L1617.19 804.053L1615.44 807.05C1614.51 808.655 1612.59 809.405 1610.82 808.862L1606.27 807.473L1604.08 811.062C1603.13 812.62 1601.24 813.335 1599.5 812.802L1595.06 811.445L1593.76 815.712C1593.43 816.768 1592.31 817.362 1591.26 817.039C1590.2 816.717 1589.61 815.598 1589.93 814.542L1591.23 810.276C1591.88 808.163 1594.12 806.974 1596.23 807.62L1600.67 808.977L1602.86 805.388C1603.81 803.83 1605.7 803.114 1607.44 803.648L1611.99 805.037L1613.73 802.041C1614.67 800.436 1616.58 799.685 1618.36 800.228L1624.09 801.982C1625.15 802.305 1625.75 803.423 1625.42 804.48Z" fill="#7831B2"/>
<path fill-rule="evenodd" clip-rule="evenodd" d="M1579.8 285.888C1578.66 286.671 1577.1 286.383 1576.32 285.246L1574.03 281.914L1569.52 282.761C1568.11 283.026 1566.68 282.404 1565.91 281.193L1564.41 278.821L1559.3 279.78C1557.95 280.035 1556.64 279.142 1556.39 277.785C1556.13 276.428 1557.02 275.121 1558.38 274.866L1564.49 273.719C1565.9 273.454 1567.33 274.076 1568.09 275.287L1569.59 277.659L1574.06 276.82C1575.42 276.564 1576.81 277.135 1577.59 278.275L1580.44 282.411C1581.22 283.549 1580.93 285.105 1579.8 285.888Z" fill="#7831B2"/>
<path fill-rule="evenodd" clip-rule="evenodd" d="M130.778 27.3933C129.342 26.5658 128.849 24.7314 129.677 23.2959L131.781 19.6453L129.011 15.9686C128.012 14.6438 127.935 12.8402 128.817 11.4351L130.366 8.96688L127.231 4.80562C126.233 3.48239 126.498 1.60138 127.821 0.604265C129.144 -0.392855 131.025 -0.128496 132.022 1.19473L135.987 6.45604C136.985 7.78089 137.062 9.58446 136.181 10.9896L134.632 13.4578L137.369 17.0908C138.335 18.372 138.441 20.106 137.64 21.4958L134.875 26.2925C134.048 27.7279 132.213 28.2208 130.778 27.3933Z" fill="#A68AD5"/>
</g>
</svg>
