<svg width="1288" height="1917" viewBox="0 0 1288 1917" fill="none" xmlns="http://www.w3.org/2000/svg">
<path opacity="0.85" d="M1237.16 259.008L1231.35 260.514C1230.45 260.747 1229.83 261.568 1229.86 262.496L1229.94 265.962C1229.96 266.891 1229.34 267.712 1228.44 267.945L1223.84 269.137C1222.95 269.366 1222.34 270.165 1222.34 271.077L1222.35 275.283C1222.35 276.196 1221.73 276.994 1220.85 277.223L1216.36 278.388C1215.29 278.665 1214.65 279.756 1214.92 280.826L1216.04 285.144" stroke="#7831B2" stroke-width="4" stroke-linecap="round"/>
<path opacity="0.84" d="M924.227 69.0078L925.891 74.972C926.099 75.7166 926.718 76.2747 927.479 76.4055L934.364 77.5871C935.155 77.7229 935.788 78.318 935.972 79.0989L936.927 83.1421C937.111 83.923 937.744 84.5181 938.535 84.6538L946.667 86.0497" stroke="#A68AD5" stroke-width="4" stroke-linecap="round"/>
<path opacity="0.96" d="M6.57422 1663.01L7.79221 1666.96C8.03891 1667.76 8.75798 1668.32 9.59408 1668.37L12.4969 1668.53C13.3577 1668.57 14.0914 1669.17 14.3175 1670L14.8902 1672.11C15.1163 1672.94 15.8501 1673.53 16.7109 1673.58L21.005 1673.81" stroke="#A68AD5" stroke-width="4" stroke-linecap="round"/>
<path opacity="0.78" d="M57.0273 1091.01L58.8566 1095.53C59.1576 1096.27 59.8736 1096.76 60.6756 1096.78L65.2512 1096.86C66.0806 1096.87 66.8149 1097.4 67.097 1098.18L68.0884 1100.92C68.3706 1101.7 69.1049 1102.22 69.9342 1102.23L75.8325 1102.34" stroke="#A68AD5" stroke-width="4" stroke-linecap="round"/>
<path opacity="0.79" d="M1259.03 735.008L1261.81 741.099C1262.14 741.811 1262.85 742.267 1263.63 742.267H1270.96C1271.77 742.267 1272.51 742.757 1272.81 743.508L1274.56 747.767C1274.87 748.518 1275.6 749.008 1276.41 749.008H1285.03" stroke="#A68AD5" stroke-width="4" stroke-linecap="round"/>
<path opacity="0.77" d="M456.027 16.4414L460.276 15.847C461.074 15.7353 461.728 15.155 461.933 14.3753L462.899 10.7059C463.111 9.90008 463.8 9.31019 464.629 9.2254L466.99 8.98395C467.819 8.89915 468.508 8.30926 468.721 7.50341L470.025 2.54681" stroke="#E71985" stroke-width="4" stroke-linecap="round"/>
<path opacity="0.99" d="M319.09 1820L318.648 1814.64C318.581 1813.83 318.032 1813.14 317.259 1812.9L312.566 1811.41C311.767 1811.15 311.211 1810.43 311.173 1809.59L311.019 1806.23C310.981 1805.39 310.425 1804.67 309.626 1804.41L303.654 1802.52" stroke="#E71985" stroke-width="4" stroke-linecap="round"/>
<path opacity="0.96" d="M135.062 1534.23L135.931 1538.73C136.109 1539.65 136.899 1540.32 137.834 1540.35L140.262 1540.42C141.197 1540.45 141.988 1541.12 142.165 1542.04L142.784 1545.24C142.958 1546.15 143.726 1546.81 144.645 1546.86L147.703 1547.02C148.622 1547.06 149.391 1547.73 149.565 1548.63L150.155 1551.68C150.364 1552.77 151.413 1553.48 152.498 1553.27L155.927 1552.61" stroke="#A68AD5" stroke-width="4" stroke-linecap="round"/>
<path opacity="0.79" d="M16.3984 611.016L17.102 605.524C17.153 605.126 16.9614 604.736 16.6153 604.534L11.5004 601.54C11.1425 601.331 10.951 600.922 11.0191 600.513L11.7237 596.28C11.7918 595.871 11.6003 595.462 11.2424 595.253L5.55666 591.925" stroke="#A68AD5" stroke-width="6" stroke-linecap="round"/>
<path opacity="0.85" d="M1246.7 1248.9L1240.96 1247.15C1240.07 1246.88 1239.11 1247.25 1238.64 1248.05L1236.9 1251.05C1236.43 1251.85 1235.47 1252.23 1234.59 1251.96L1230.04 1250.57C1229.17 1250.3 1228.23 1250.66 1227.75 1251.44L1225.56 1255.03C1225.08 1255.81 1224.14 1256.16 1223.27 1255.9L1218.83 1254.54C1217.77 1254.22 1216.66 1254.81 1216.33 1255.87L1215.03 1260.13" stroke="#7831B2" stroke-width="4" stroke-linecap="round"/>
<path opacity="0.71" d="M1181.56 1912.84L1178.72 1908.7C1178.49 1908.37 1178.1 1908.21 1177.71 1908.28L1172.24 1909.31C1171.84 1909.39 1171.43 1909.21 1171.21 1908.86L1169.16 1905.63C1168.94 1905.29 1168.54 1905.11 1168.13 1905.18L1162.03 1906.33" stroke="#7831B2" stroke-width="5" stroke-linecap="round"/>
<path d="M197.188 1724.08L192.57 1722.51C191.691 1722.21 190.722 1722.56 190.231 1723.34L188.92 1725.44C188.428 1726.23 187.459 1726.57 186.58 1726.28L183.186 1725.12C182.322 1724.83 181.369 1725.16 180.869 1725.92L179.165 1728.53C178.665 1729.29 177.712 1729.62 176.848 1729.32L173.602 1728.22C172.557 1727.87 171.421 1728.43 171.066 1729.47L169.943 1732.78" stroke="#7831B2" stroke-width="4" stroke-linecap="round"/>
</svg>
