<svg width="1257" height="2304" viewBox="0 0 1257 2304" fill="none" xmlns="http://www.w3.org/2000/svg">
<g opacity="0.96">
<path fill-rule="evenodd" clip-rule="evenodd" d="M1235.21 1.4985C1235.49 2.56771 1234.84 3.65923 1233.77 3.93646L1227.97 5.44227L1228.05 8.9088C1228.09 10.7653 1226.85 12.4072 1225.05 12.8733L1220.45 14.066L1220.46 18.2719C1220.46 20.0973 1219.23 21.6935 1217.46 22.1517L1212.97 23.3163L1214.09 27.6351C1214.37 28.7043 1213.73 29.7958 1212.66 30.073C1211.59 30.3503 1210.5 29.7083 1210.22 28.639L1209.1 24.3203C1208.55 22.1819 1209.83 19.9989 1211.97 19.4444L1216.46 18.2797L1216.45 14.0738C1216.45 12.2484 1217.68 10.6522 1219.45 10.194L1224.05 9.0013L1223.97 5.53477C1223.92 3.6783 1225.17 2.0364 1226.96 1.57031L1232.77 0.0645074C1233.84 -0.212731 1234.93 0.42929 1235.21 1.4985Z" fill="#7831B2"/>
<path fill-rule="evenodd" clip-rule="evenodd" d="M97.79 178.135C98.2679 179.131 97.848 180.326 96.8521 180.804L90.1809 184.005L91.2222 188.671C91.6276 190.487 90.7267 192.343 89.0487 193.148L83.4558 195.832L84.5709 201.372C84.9319 203.166 84.0297 204.976 82.38 205.768L76.8331 208.429L79.3223 213.617C79.8002 214.613 79.3802 215.807 78.3844 216.285C77.3885 216.763 76.1938 216.343 75.716 215.347L73.2268 210.16C72.2711 208.168 73.1109 205.779 75.1026 204.823L80.6495 202.161L79.5344 196.621C79.1734 194.828 80.0756 193.017 81.7253 192.226L87.3183 189.542L86.277 184.876C85.8716 183.06 86.7726 181.204 88.4505 180.398L95.1217 177.197C96.1175 176.719 97.3122 177.139 97.79 178.135Z" fill="#7831B2"/>
<path fill-rule="evenodd" clip-rule="evenodd" d="M279.787 333.783C278.689 333.902 277.702 333.109 277.583 332.011L277.092 327.503L272.288 325.754C270.799 325.212 269.771 323.843 269.665 322.263L269.487 319.611L263.513 317.437C262.475 317.059 261.94 315.911 262.318 314.873C262.696 313.835 263.843 313.3 264.881 313.678L270.855 315.852C272.343 316.394 273.372 317.763 273.478 319.343L273.656 321.995L278.46 323.744C279.892 324.265 280.903 325.555 281.068 327.069L281.559 331.578C281.679 332.676 280.885 333.663 279.787 333.783Z" fill="#A68AD5"/>
<path fill-rule="evenodd" clip-rule="evenodd" d="M188.598 323.471C188.263 324.523 187.138 325.105 186.085 324.77L180.185 322.892L175.422 328.002C174.328 329.176 172.638 329.582 171.13 329.035L167.226 327.616L161.6 333.652C160.846 334.46 159.581 334.504 158.773 333.751C157.965 332.998 157.92 331.732 158.674 330.924L164.299 324.889C165.394 323.715 167.083 323.308 168.591 323.856L172.496 325.275L177.259 320.165C178.313 319.034 179.924 318.612 181.398 319.081L187.298 320.958C188.351 321.293 188.933 322.418 188.598 323.471Z" fill="#A68AD5"/>
<path fill-rule="evenodd" clip-rule="evenodd" d="M2.09489 1404.09C3.15043 1403.76 4.26991 1404.36 4.59535 1405.41L5.81336 1409.36L8.71614 1409.52C10.4378 1409.62 11.9053 1410.8 12.3575 1412.47L12.9302 1414.57L17.2243 1414.81C18.3272 1414.87 19.1723 1415.81 19.1119 1416.92C19.0516 1418.02 18.1085 1418.86 17.0056 1418.8L12.7115 1418.57C10.9898 1418.47 9.52228 1417.29 9.07014 1415.62L8.49742 1413.51L5.59465 1413.36C3.92244 1413.26 2.48429 1412.14 1.99089 1410.54L0.772898 1406.59C0.447466 1405.53 1.03935 1404.41 2.09489 1404.09Z" fill="#A68AD5"/>
<path fill-rule="evenodd" clip-rule="evenodd" d="M52.3868 832.146C53.4107 831.731 54.5767 832.225 54.9911 833.249L56.8204 837.768L61.3961 837.848C63.0547 837.877 64.5233 838.927 65.0877 840.487L66.079 843.227L71.9773 843.33C73.0817 843.349 73.9614 844.26 73.9421 845.364C73.9228 846.469 73.0119 847.348 71.9075 847.329L66.0092 847.226C64.3506 847.197 62.882 846.148 62.3176 844.588L61.3263 841.847L56.7506 841.768C55.1466 841.74 53.7146 840.756 53.1127 839.269L51.2834 834.75C50.8689 833.726 51.363 832.56 52.3868 832.146Z" fill="#A68AD5"/>
<path fill-rule="evenodd" clip-rule="evenodd" d="M1103.31 1760.18C1104.31 1759.72 1105.5 1760.16 1105.96 1761.17L1108.74 1767.26H1116.07C1117.7 1767.26 1119.16 1768.24 1119.77 1769.74L1121.52 1774H1130.14C1131.24 1774 1132.14 1774.9 1132.14 1776C1132.14 1777.11 1131.24 1778 1130.14 1778H1121.52C1119.9 1778 1118.44 1777.02 1117.82 1775.52L1116.07 1771.26H1108.74C1107.18 1771.26 1105.75 1770.35 1105.1 1768.92L1102.32 1762.83C1101.86 1761.83 1102.3 1760.64 1103.31 1760.18Z" fill="#A68AD5"/>
<path fill-rule="evenodd" clip-rule="evenodd" d="M1255.94 1912.12C1256.42 1913.12 1256.01 1914.31 1255.01 1914.8L1250.12 1917.19L1250.73 1919.95C1251.12 1921.76 1250.23 1923.6 1248.57 1924.41L1244.81 1926.24L1245.49 1929.69C1245.84 1931.47 1244.95 1933.26 1243.32 1934.06L1239.68 1935.83L1241.36 1939.26C1241.84 1940.25 1241.43 1941.45 1240.44 1941.93C1239.44 1942.42 1238.24 1942.01 1237.76 1941.01L1236.09 1937.58C1235.12 1935.6 1235.94 1933.2 1237.93 1932.24L1241.57 1930.46L1240.88 1927.02C1240.53 1925.24 1241.42 1923.45 1243.06 1922.65L1246.82 1920.81L1246.21 1918.05C1245.81 1916.24 1246.7 1914.4 1248.36 1913.59L1253.26 1911.2C1254.25 1910.72 1255.45 1911.13 1255.94 1912.12Z" fill="#7831B2"/>
<path fill-rule="evenodd" clip-rule="evenodd" d="M4.3917 2284.48C5.41681 2284.06 6.58132 2284.56 6.99269 2285.59L8.69831 2289.84L11.0969 2289.45C12.9437 2289.15 14.7508 2290.17 15.4475 2291.91L16.6617 2294.93L19.6938 2294.51C21.5161 2294.25 23.2784 2295.27 23.9637 2296.98L25.121 2299.86L28.3621 2298.56C29.3872 2298.15 30.5517 2298.65 30.9631 2299.67C31.3744 2300.7 30.8769 2301.86 29.8518 2302.27L26.6107 2303.57C24.5604 2304.4 22.2315 2303.4 21.4087 2301.35L20.2515 2298.47L17.2194 2298.9C15.3971 2299.15 13.6348 2298.13 12.9495 2296.42L11.7353 2293.4L9.33665 2293.79C7.48984 2294.08 5.68278 2293.06 4.98606 2291.33L3.28044 2287.08C2.86907 2286.05 3.36659 2284.89 4.3917 2284.48Z" fill="#7831B2"/>
</g>
</svg>
