<svg width="1495" height="757" viewBox="0 0 1495 757" fill="none" xmlns="http://www.w3.org/2000/svg">
<g opacity="0.85">
<path fill-rule="evenodd" clip-rule="evenodd" d="M1457.5 145.262C1457.03 144.325 1457.4 143.179 1458.33 142.701L1461.24 141.216L1461.01 137.637C1460.93 136.538 1461.55 135.508 1462.54 135.045L1464.63 134.076L1464.37 130.028C1464.3 128.979 1465.09 128.073 1466.14 128.005C1467.19 127.936 1468.1 128.731 1468.17 129.78L1468.48 134.609C1468.56 135.708 1467.94 136.738 1466.95 137.201L1464.86 138.17L1465.09 141.718C1465.16 142.78 1464.59 143.781 1463.64 144.265L1460.06 146.092C1459.13 146.57 1457.98 146.198 1457.5 145.262Z" fill="#E71985"/>
<path fill-rule="evenodd" clip-rule="evenodd" d="M154.574 0.138415C155.549 -0.254463 156.658 0.217593 157.051 1.19278L158.868 5.70421H163.942C165.065 5.70421 166.067 6.40753 166.448 7.46314L167.727 11.0005H173.285C174.336 11.0005 175.189 11.8528 175.189 12.9042C175.189 13.9555 174.336 14.8078 173.285 14.8078H166.926C165.803 14.8078 164.801 14.1045 164.419 13.0489L163.14 9.5115H158.097C157.01 9.5115 156.031 8.85091 155.625 7.84231L153.519 2.61552C153.126 1.64033 153.598 0.531293 154.574 0.138415Z" fill="#7831B2"/>
<path fill-rule="evenodd" clip-rule="evenodd" d="M652.574 71.1384C653.549 70.7455 654.658 71.2176 655.051 72.1928L656.868 76.7042H661.942C663.065 76.7042 664.067 77.4075 664.448 78.4631L665.727 82.0005H671.285C672.336 82.0005 673.189 82.8528 673.189 83.9042C673.189 84.9555 672.336 85.8078 671.285 85.8078H664.926C663.803 85.8078 662.801 85.1045 662.419 84.0489L661.14 80.5115H656.097C655.01 80.5115 654.031 79.8509 653.625 78.8423L651.519 73.6155C651.126 72.6403 651.598 71.5313 652.574 71.1384Z" fill="#E71985"/>
<path fill-rule="evenodd" clip-rule="evenodd" d="M733.941 744.447C734.99 744.527 735.775 745.442 735.695 746.49L735.306 751.575L739.923 753.236C740.913 753.592 741.426 754.682 741.07 755.671C740.714 756.66 739.623 757.174 738.634 756.818L733.198 754.862C732.07 754.456 731.352 753.347 731.443 752.152L731.898 746.2C731.978 745.152 732.893 744.367 733.941 744.447Z" fill="#7831B2"/>
<path fill-rule="evenodd" clip-rule="evenodd" d="M0.185544 377.805C-0.311764 376.645 0.22503 375.302 1.38451 374.805L4.8587 373.315L5.11921 368.345C5.18235 367.141 5.95017 366.087 7.0773 365.658L9.65072 364.678L9.93371 359.28C9.99976 358.02 11.0746 357.052 12.3345 357.118C13.5944 357.184 14.5623 358.259 14.4962 359.519L14.1613 365.908C14.0981 367.112 13.3303 368.166 12.2032 368.595L9.62977 369.575L9.37159 374.5C9.31084 375.659 8.59696 376.682 7.53053 377.14L3.18542 379.004C2.02594 379.501 0.682852 378.964 0.185544 377.805Z" fill="#E71985"/>
<path fill-rule="evenodd" clip-rule="evenodd" d="M1289.58 74.3458C1288.71 74.9328 1287.53 74.7017 1286.94 73.8295L1285.12 71.1216L1281.59 71.7836C1280.51 71.9868 1279.42 71.5036 1278.84 70.5676L1277.62 68.6099L1273.64 69.3585C1272.6 69.5526 1271.61 68.8722 1271.41 67.8389C1271.22 66.8056 1271.9 65.8107 1272.93 65.6167L1277.69 64.7236C1278.77 64.5204 1279.87 65.0036 1280.45 65.9396L1281.66 67.8973L1285.16 67.2411C1286.2 67.0447 1287.26 67.4894 1287.86 68.3723L1290.1 71.7037C1290.69 72.5758 1290.46 73.7588 1289.58 74.3458Z" fill="#7831B2"/>
<path fill-rule="evenodd" clip-rule="evenodd" d="M130.575 707.599C130.268 708.604 129.203 709.17 128.198 708.863L123.987 707.576L122.51 710.064C121.883 711.121 120.614 711.612 119.439 711.253L115.543 710.062L113.72 712.987C113.081 714.011 111.833 714.479 110.679 714.126L106.966 712.991L106.106 715.805C105.798 716.81 104.734 717.376 103.728 717.069C102.723 716.762 102.157 715.697 102.465 714.692L103.659 710.786C104.09 709.378 105.58 708.586 106.987 709.016L110.953 710.228L112.776 707.304C113.415 706.279 114.663 705.812 115.817 706.165L119.694 707.35L121.171 704.862C121.798 703.805 123.067 703.313 124.242 703.673L129.311 705.222C130.317 705.529 130.883 706.593 130.575 707.599Z" fill="#7831B2"/>
<path fill-rule="evenodd" clip-rule="evenodd" d="M1494.47 579.572C1494.1 580.778 1492.82 581.457 1491.62 581.089L1487.69 579.889L1486.37 582.12C1485.65 583.328 1484.2 583.89 1482.86 583.479L1479.24 582.374L1477.57 585.05C1476.84 586.221 1475.42 586.755 1474.1 586.352L1470.75 585.328L1470 587.778C1469.63 588.984 1468.35 589.664 1467.15 589.295C1465.94 588.926 1465.26 587.649 1465.63 586.443L1466.83 582.536C1467.32 580.928 1469.02 580.022 1470.63 580.514L1474.31 581.641L1475.98 578.965C1476.71 577.794 1478.14 577.259 1479.46 577.663L1483.05 578.76L1484.37 576.529C1485.09 575.321 1486.54 574.76 1487.88 575.17L1492.95 576.72C1494.16 577.088 1494.84 578.365 1494.47 579.572Z" fill="#7831B2"/>
</g>
</svg>
