<svg width="195" height="119" viewBox="0 0 195 119" fill="none" xmlns="http://www.w3.org/2000/svg">
<path d="M81.4772 34.1574C70.2686 52.2988 63.9271 77.4187 61.5122 88.6232C59.0974 99.8277 29.4546 69.9621 29.4546 69.9621M3.53673 78.7815C4.02786 80.7095 4.64972 82.6295 5.40677 84.5327C15.7686 110.581 47.5336 123.619 76.3561 113.652C91.7909 108.315 102.109 98.5975 107.835 85.6676M3.53673 78.7815C2.74702 75.6813 2.29529 72.5602 2.16296 69.4545C1.25114 48.0559 15.5022 27.3887 38.8327 19.3211C58.0538 12.6746 78.5835 16.2584 93.2015 27.1092M3.53673 78.7815C4.00761 80.5524 4.58925 82.316 5.28511 84.0653C15.6469 110.114 47.412 123.151 76.2344 113.184C90.8095 108.144 101.841 98.1871 107.846 86.2061M3.53673 78.7815C-3.00415 54.1819 11.8242 28.151 38.7111 18.8537C58.7495 11.9245 79.0679 14.9795 93.7696 26.9305M118.146 39.1133C123.841 41.7654 132.648 46.0535 141.253 50.6105M141.253 50.6105C151.059 55.804 160.605 61.3469 164.986 65.2155M141.253 50.6105C146.098 41.2235 151.899 31.6076 155.848 25.4948M141.253 50.6105C136.053 60.6843 131.955 70.4947 132.428 75.4294M192.923 55.1595C192.629 60.1718 191.505 64.9199 189.68 69.3029C181.927 87.9227 161.526 99.953 138.4 97.6591C109.831 94.8253 87.9207 71.2029 89.4631 44.8971C89.757 39.8848 90.8812 35.1367 92.7062 30.7537C100.459 12.1339 120.86 0.103593 143.986 2.39748C172.556 5.23135 194.466 28.8537 192.923 55.1595ZM192.772 55.0416C191.229 81.3474 166.819 100.375 138.249 97.5412C109.679 94.7074 87.7692 71.085 89.3117 44.7793C90.8541 18.4735 115.265 -0.554246 143.835 2.27961C172.404 5.11348 194.314 28.7358 192.772 55.0416Z" stroke="#7831B2" stroke-width="4" stroke-linecap="round"/>
</svg>
