<svg width="229" height="234" viewBox="0 0 229 234" fill="none" xmlns="http://www.w3.org/2000/svg">
<path d="M144.058 90.139C144.141 90.0772 144.233 90.012 144.333 89.9433C144.373 90.0387 144.411 90.131 144.448 90.2203C144.448 90.2203 144.448 90.2204 144.448 90.2204L144.91 90.0298M144.058 90.139L144.795 91.1583C144.795 91.1576 144.795 91.1568 144.795 91.1559C144.796 91.1544 144.796 91.1525 144.797 91.1502L145.284 91.2653M144.058 90.139C144.164 90.3639 144.286 90.6061 144.424 90.866M144.058 90.139L144.424 90.866M144.91 90.0298C145.016 90.2868 145.101 90.4858 145.166 90.6268C145.281 90.8794 145.32 91.0923 145.284 91.2653M144.91 90.0298C144.863 89.9145 144.813 89.7942 144.761 89.6688L144.91 90.0298ZM145.284 91.2653L144.795 91.1611C144.795 91.1603 144.795 91.1594 144.795 91.1585L144.794 91.1595C144.794 91.1599 144.794 91.1602 144.794 91.1602L144.794 91.1602L144.794 91.159C144.791 91.1616 144.783 91.168 144.765 91.1762C144.749 91.1833 144.728 91.1927 144.671 91.1708M145.284 91.2653C145.244 91.4325 145.14 91.5544 144.973 91.631C144.814 91.7033 144.646 91.7021 144.467 91.6276M144.467 91.6276L144.678 91.1747C144.676 91.1736 144.673 91.1723 144.671 91.1708M144.467 91.6276L144.659 91.1661C144.663 91.1678 144.667 91.1693 144.671 91.1708M144.467 91.6276C144.29 91.545 144.129 91.3701 143.983 91.1027M144.671 91.1708C144.628 91.1474 144.537 91.0736 144.424 90.866M144.424 90.866C144.424 90.8667 144.425 90.8674 144.425 90.8682L143.983 91.1027M144.424 90.866C144.423 90.8653 144.423 90.8647 144.423 90.864L143.983 91.1027M144.424 90.866L143.983 91.1027M142.763 87.097C142.874 87.3218 142.976 87.5416 143.068 87.7566C143.161 87.7037 143.253 87.6522 143.347 87.6021C143.336 87.5782 143.325 87.5545 143.314 87.5311C143.126 87.1195 142.971 86.9604 142.891 86.9145C142.821 86.8739 142.767 86.8665 142.689 86.8969C142.699 86.9416 142.72 87.0072 142.763 87.097ZM142.763 87.097C142.763 87.0974 142.764 87.0978 142.764 87.0982L142.314 87.3167L142.763 87.0956C142.763 87.0961 142.763 87.0966 142.763 87.097ZM141.057 92.8199L141.057 92.8199L141.054 92.8177C140.904 92.7149 140.736 92.563 140.551 92.3523C140.656 92.3001 140.764 92.249 140.874 92.1987C140.921 92.177 140.968 92.1536 141.013 92.1285C141.028 92.1448 141.044 92.1609 141.059 92.1766L141.059 92.1767L141.067 92.1841C141.231 92.3449 141.366 92.4834 141.474 92.6003L141.479 92.6056L141.484 92.6109C141.569 92.6987 141.625 92.781 141.659 92.8563C141.68 92.9013 141.688 92.9318 141.691 92.9492C141.681 92.9556 141.666 92.9639 141.645 92.9734C141.566 93.0095 141.499 93.0185 141.434 93.011C141.365 92.9974 141.242 92.949 141.057 92.8199ZM140.349 91.3395C140.211 91.4042 140.076 91.4705 139.944 91.5385C139.923 91.5083 139.903 91.4779 139.883 91.4472C139.775 91.2772 139.673 91.1129 139.577 90.9543C139.705 90.8892 139.837 90.8244 139.972 90.76C140.099 90.9721 140.224 91.1655 140.349 91.3395ZM139.07 90.0902C138.983 89.9434 138.906 89.8162 138.838 89.7091C138.718 89.5086 138.61 89.3432 138.521 89.2324C138.479 89.1813 138.434 89.1294 138.386 89.0838C138.35 89.0506 138.279 88.9872 138.179 88.9444C138.03 88.8773 137.845 88.8608 137.664 88.9432C137.466 89.034 137.352 89.1973 137.288 89.3361C137.263 89.3888 137.243 89.4439 137.227 89.5002L136.91 89.2694C136.88 89.247 136.848 89.2253 136.816 89.2044C136.844 89.0957 136.879 88.9921 136.92 88.8933C137.052 88.5762 137.23 88.3981 137.441 88.3019C137.7 88.1837 137.887 88.1872 138.039 88.2462L138.185 87.8691L138.039 88.2462C138.222 88.3172 138.466 88.501 138.76 88.8763L138.76 88.8763L138.764 88.8813C138.972 89.1396 139.205 89.4762 139.463 89.8949C139.329 89.9594 139.198 90.0245 139.07 90.0902ZM139.045 91.9918C139.053 92.005 139.062 92.0182 139.071 92.0314C138.978 92.0878 138.886 92.1444 138.797 92.2011C138.7 92.2595 138.606 92.3174 138.514 92.3748C138.501 92.3225 138.488 92.2708 138.476 92.2195C138.428 92.0227 138.385 91.8359 138.348 91.659C138.462 91.5849 138.579 91.5113 138.701 91.438C138.808 91.6148 138.921 91.7975 139.041 91.9861L139.041 91.9861L139.045 91.9918ZM137.504 92.4554C137.542 92.6109 137.583 92.7703 137.627 92.9334C137.596 92.9527 137.565 92.9717 137.534 92.9903L137.533 92.9912C137.398 93.0745 137.274 93.1431 137.161 93.1982C137.09 93.023 137.026 92.855 136.971 92.6942C137.124 92.5607 137.289 92.4259 137.464 92.2901C137.477 92.3446 137.49 92.3997 137.504 92.4554ZM137.247 91.2042C137.038 91.3548 136.841 91.5054 136.654 91.6561C136.571 91.352 136.484 91.0561 136.393 90.7684C136.384 90.7402 136.374 90.712 136.365 90.6838L136.594 90.4349L136.984 90.0121L137.168 89.8125C137.138 90.1092 137.155 90.4793 137.205 90.9076L137.205 90.9076L137.205 90.9134C137.217 91.0073 137.231 91.1043 137.247 91.2042ZM137.588 94.1026C137.697 94.0502 137.808 93.9906 137.921 93.9244C137.969 94.072 138.018 94.2221 138.07 94.3749L138.07 94.3749L138.071 94.3795C138.098 94.4554 138.112 94.512 138.118 94.5518C138.046 94.5823 137.995 94.5803 137.911 94.5221C137.831 94.4597 137.721 94.3296 137.588 94.1026ZM142.274 89.504C142.376 89.4169 142.482 89.3323 142.592 89.2503C142.598 89.2658 142.604 89.2813 142.61 89.2968L142.61 89.2969L142.612 89.3041C142.683 89.4813 142.758 89.6649 142.839 89.8548C142.769 89.9178 142.704 89.9771 142.646 90.0327L142.646 90.0327L142.642 90.0362C142.552 90.124 142.469 90.1795 142.395 90.2134C142.385 90.2179 142.378 90.22 142.374 90.2209C142.372 90.2198 142.368 90.2178 142.362 90.2145C142.285 90.1627 142.216 90.0857 142.161 89.9643C142.113 89.8592 142.097 89.7736 142.099 89.7021C142.101 89.6968 142.106 89.6858 142.117 89.6689C142.142 89.6315 142.189 89.576 142.273 89.5049L142.274 89.504ZM145.348 88.2472C145.161 88.3327 144.984 88.417 144.819 88.5003C144.759 88.355 144.699 88.2093 144.637 88.0633C144.676 88.0451 144.714 88.0274 144.752 88.01C144.957 87.9165 145.078 87.9241 145.15 87.948C145.221 87.9713 145.295 88.0223 145.363 88.1719C145.374 88.194 145.38 88.2129 145.385 88.2289C145.374 88.2345 145.362 88.2407 145.348 88.2472ZM143.449 88.6921C143.547 88.634 143.646 88.5777 143.746 88.5232C143.813 88.6828 143.878 88.842 143.943 89.0006C143.84 89.0688 143.742 89.1355 143.649 89.2006C143.613 89.1117 143.577 89.0246 143.544 88.9392C143.512 88.8567 143.481 88.7743 143.449 88.6921Z" fill="#7831B2" stroke="#7831B2"/>
<path d="M149.05 101.136C149.133 101.074 149.225 101.009 149.325 100.94C149.365 101.036 149.403 101.128 149.44 101.217C149.44 101.217 149.44 101.217 149.44 101.218L149.902 101.027M149.05 101.136L149.787 102.155C149.787 102.155 149.788 102.154 149.788 102.153C149.788 102.152 149.789 102.15 149.789 102.147L150.276 102.262M149.05 101.136C149.156 101.361 149.278 101.603 149.416 101.863M149.05 101.136L149.416 101.863M149.902 101.027C150.008 101.284 150.093 101.483 150.158 101.624C150.273 101.876 150.313 102.089 150.276 102.262M149.902 101.027C149.855 100.912 149.805 100.791 149.753 100.666L149.902 101.027ZM150.276 102.262L149.787 102.158C149.787 102.157 149.787 102.157 149.787 102.156L149.786 102.157C149.786 102.157 149.786 102.157 149.786 102.157L149.786 102.157L149.787 102.156C149.783 102.159 149.775 102.165 149.757 102.173C149.741 102.18 149.721 102.19 149.663 102.168M150.276 102.262C150.236 102.43 150.133 102.551 149.965 102.628C149.807 102.7 149.638 102.699 149.459 102.625M149.459 102.625L149.67 102.172C149.668 102.171 149.666 102.169 149.663 102.168M149.459 102.625L149.651 102.163C149.655 102.165 149.659 102.166 149.663 102.168M149.459 102.625C149.282 102.542 149.121 102.367 148.976 102.1M149.663 102.168C149.62 102.144 149.529 102.071 149.416 101.863M149.416 101.863C149.416 101.864 149.417 101.865 149.417 101.865L148.976 102.1M149.416 101.863C149.416 101.862 149.415 101.862 149.415 101.861L148.976 102.1M149.416 101.863L148.976 102.1M147.755 98.0941C147.866 98.3189 147.968 98.5387 148.06 98.7537C148.153 98.7008 148.246 98.6493 148.339 98.5992C148.328 98.5753 148.317 98.5516 148.306 98.5282C148.118 98.1165 147.963 97.9574 147.884 97.9116C147.813 97.871 147.759 97.8635 147.681 97.894C147.691 97.9387 147.712 98.0042 147.755 98.0941ZM147.755 98.0941C147.756 98.0945 147.756 98.0949 147.756 98.0953L147.306 98.3138L147.755 98.0927C147.755 98.0932 147.755 98.0936 147.755 98.0941ZM146.05 103.817L146.05 103.817L146.046 103.815C145.897 103.712 145.728 103.56 145.543 103.349C145.648 103.297 145.756 103.246 145.866 103.196C145.914 103.174 145.96 103.151 146.005 103.126C146.021 103.142 146.036 103.158 146.052 103.174L146.051 103.174L146.059 103.181C146.223 103.342 146.358 103.48 146.466 103.597L146.471 103.603L146.476 103.608C146.562 103.696 146.617 103.778 146.651 103.853C146.672 103.898 146.68 103.929 146.683 103.946C146.673 103.953 146.658 103.961 146.637 103.97C146.558 104.007 146.491 104.016 146.427 104.008C146.358 103.994 146.234 103.946 146.05 103.817ZM145.342 102.337C145.203 102.401 145.068 102.468 144.936 102.536C144.916 102.505 144.896 102.475 144.875 102.444C144.767 102.274 144.665 102.11 144.569 101.951C144.697 101.886 144.829 101.821 144.964 101.757C145.091 101.969 145.217 102.163 145.342 102.337ZM144.062 101.087C143.975 100.94 143.898 100.813 143.83 100.706C143.71 100.506 143.602 100.34 143.513 100.23C143.472 100.178 143.426 100.126 143.378 100.081C143.342 100.048 143.271 99.9842 143.171 99.9415C143.022 99.8744 142.837 99.8579 142.657 99.9403C142.458 100.031 142.344 100.194 142.28 100.333C142.256 100.386 142.236 100.441 142.219 100.497L141.902 100.266C141.872 100.244 141.84 100.222 141.808 100.202C141.837 100.093 141.871 99.9892 141.913 99.8904C142.044 99.5733 142.222 99.3951 142.433 99.299C142.692 99.1808 142.879 99.1843 143.031 99.2433L143.177 98.8662L143.031 99.2433C143.214 99.3142 143.458 99.4981 143.752 99.8734L143.752 99.8734L143.756 99.8784C143.964 100.137 144.197 100.473 144.455 100.892C144.321 100.957 144.19 101.022 144.062 101.087ZM144.037 102.989C144.045 103.002 144.054 103.015 144.063 103.028C143.97 103.085 143.879 103.141 143.789 103.198C143.693 103.257 143.598 103.314 143.506 103.372C143.493 103.32 143.48 103.268 143.468 103.217C143.42 103.02 143.378 102.833 143.341 102.656C143.454 102.582 143.571 102.508 143.693 102.435C143.8 102.612 143.913 102.795 144.033 102.983L144.033 102.983L144.037 102.989ZM142.496 103.452C142.534 103.608 142.575 103.767 142.619 103.93C142.588 103.95 142.557 103.969 142.527 103.987L142.525 103.988C142.39 104.072 142.267 104.14 142.153 104.195C142.082 104.02 142.018 103.852 141.963 103.691C142.117 103.558 142.281 103.423 142.457 103.287C142.469 103.342 142.482 103.397 142.496 103.452ZM142.239 102.201C142.031 102.352 141.833 102.502 141.646 102.653C141.563 102.349 141.476 102.053 141.385 101.765C141.376 101.737 141.367 101.709 141.357 101.681L141.587 101.432L141.976 101.009L142.16 100.81C142.131 101.106 142.147 101.476 142.197 101.905L142.197 101.905L142.197 101.91C142.209 102.004 142.223 102.101 142.239 102.201ZM142.58 105.1C142.689 105.047 142.8 104.988 142.914 104.921C142.961 105.069 143.01 105.219 143.062 105.372L143.062 105.372L143.063 105.377C143.09 105.452 143.104 105.509 143.11 105.549C143.038 105.579 142.988 105.577 142.904 105.519C142.823 105.457 142.713 105.327 142.58 105.1ZM147.266 100.501C147.368 100.414 147.474 100.329 147.584 100.247C147.59 100.263 147.596 100.278 147.602 100.294L147.602 100.294L147.605 100.301C147.675 100.478 147.75 100.662 147.831 100.852C147.761 100.915 147.697 100.974 147.638 101.03L147.638 101.03L147.634 101.033C147.544 101.121 147.461 101.177 147.387 101.21C147.377 101.215 147.37 101.217 147.366 101.218C147.364 101.217 147.36 101.215 147.354 101.212C147.277 101.16 147.209 101.083 147.153 100.961C147.105 100.856 147.09 100.771 147.091 100.699C147.093 100.694 147.098 100.683 147.109 100.666C147.134 100.629 147.181 100.573 147.265 100.502L147.266 100.501ZM150.34 99.2443C150.153 99.3297 149.976 99.4141 149.811 99.4974C149.751 99.3521 149.691 99.2064 149.63 99.0604C149.668 99.0422 149.706 99.0244 149.745 99.007C149.949 98.9136 150.07 98.9211 150.142 98.945C150.213 98.9684 150.287 99.0193 150.356 99.169C150.366 99.1911 150.373 99.21 150.377 99.2259C150.367 99.2316 150.354 99.2378 150.34 99.2443ZM148.441 99.6891C148.539 99.631 148.638 99.5748 148.738 99.5203C148.805 99.6799 148.871 99.839 148.936 99.9977C148.832 100.066 148.734 100.133 148.641 100.198C148.605 100.109 148.57 100.022 148.536 99.9363C148.504 99.8537 148.473 99.7714 148.441 99.6891Z" stroke="#7831B2"/>
<path d="M155.71 128.882C155.709 128.883 155.708 128.883 155.707 128.884L155.541 128.542L155.539 128.536L155.489 128.433L155.54 128.535L155.543 128.541L155.714 128.88C155.713 128.881 155.711 128.881 155.71 128.882ZM155.71 128.882C155.802 128.838 155.888 128.797 155.971 128.761C156.005 128.811 156.039 128.856 156.07 128.895C156.161 129.008 156.243 129.083 156.318 129.119C156.39 129.149 156.453 129.152 156.507 129.127C156.604 129.083 156.706 129.023 156.813 128.945C156.918 128.862 157.015 128.776 157.104 128.686C157.19 128.591 157.256 128.501 157.302 128.417C157.345 128.327 157.355 128.256 157.331 128.203C157.283 128.099 157.212 128.029 157.119 127.995C157.022 127.955 156.899 127.948 156.749 127.974L155.71 128.882ZM162.236 126.235C162.341 126.492 162.427 126.697 162.496 126.846C162.579 127.029 162.573 127.116 162.567 127.141C162.562 127.155 162.548 127.179 162.481 127.209C162.43 127.233 162.38 127.239 162.309 127.217C162.265 127.196 162.177 127.132 162.068 126.938C161.933 126.688 161.814 126.455 161.711 126.238C161.832 126.151 161.97 126.058 162.123 125.959C162.162 126.054 162.2 126.146 162.236 126.235ZM162.236 126.235L162.7 126.047L162.237 126.236C162.236 126.235 162.236 126.235 162.236 126.235ZM154.163 126.817C154.249 126.77 154.336 126.725 154.425 126.682L154.438 126.716C154.438 126.716 154.438 126.716 154.438 126.717C154.478 126.822 154.519 126.927 154.562 127.034C154.535 127.058 154.513 127.078 154.494 127.094C154.346 127.219 154.254 127.378 154.203 127.544C154.14 127.38 154.086 127.228 154.039 127.089L154.039 127.089L154.038 127.087C154.019 127.03 154.001 126.971 153.983 126.912C154.038 126.884 154.098 126.852 154.163 126.817ZM154.866 128.9C155.071 128.991 155.289 129.013 155.501 128.959C155.562 129.052 155.622 129.135 155.68 129.208C155.787 129.342 155.926 129.485 156.101 129.569L156.113 129.575L156.125 129.58C156.282 129.646 156.497 129.682 156.715 129.582C156.847 129.522 156.977 129.443 157.105 129.352L157.115 129.345L157.124 129.337C157.243 129.243 157.355 129.143 157.459 129.038L157.467 129.03L157.475 129.021C157.579 128.906 157.671 128.784 157.741 128.656L157.747 128.645L157.753 128.633C157.815 128.504 157.904 128.256 157.786 127.996C157.693 127.793 157.534 127.619 157.302 127.53C157.266 127.515 157.23 127.503 157.193 127.493C157.304 127.375 157.406 127.259 157.501 127.145C157.586 127.156 157.657 127.176 157.714 127.2C157.838 127.252 157.929 127.315 157.998 127.384C158.079 127.465 158.137 127.55 158.177 127.638C158.322 127.955 158.363 128.224 158.333 128.456L158.332 128.459C158.3 128.717 158.213 128.957 158.068 129.184C157.913 129.42 157.727 129.626 157.507 129.803L157.507 129.803L157.505 129.804C157.278 129.989 157.055 130.129 156.835 130.229C156.684 130.298 156.535 130.313 156.367 130.273C156.173 130.217 155.963 130.106 155.738 129.921C155.506 129.731 155.28 129.491 155.062 129.195C154.995 129.1 154.929 129.001 154.866 128.9ZM156.378 127.542C156.266 127.573 156.15 127.613 156.031 127.659C156.003 127.669 155.974 127.679 155.945 127.69C155.902 127.6 155.857 127.504 155.811 127.402C155.789 127.354 155.768 127.308 155.748 127.264C155.794 127.217 155.841 127.168 155.888 127.119L155.888 127.119L155.894 127.113C155.934 127.07 155.974 127.026 156.013 126.983L156.054 127.046L156.345 127.492L156.378 127.542ZM156.996 126.148C156.867 126.162 156.734 126.185 156.6 126.218C156.624 126.177 156.646 126.136 156.666 126.096C156.747 125.945 156.871 125.654 156.735 125.357C156.662 125.197 156.53 125.065 156.348 125.002C156.218 124.955 156.096 124.964 156.037 124.97C155.958 124.979 155.879 124.997 155.805 125.018C155.656 125.059 155.459 125.135 155.225 125.234C155.135 125.27 155.033 125.312 154.922 125.36C154.874 125.303 154.821 125.25 154.762 125.201C154.586 125.051 154.383 124.947 154.156 124.896C154.139 124.892 154.122 124.889 154.105 124.886C154.48 124.721 154.836 124.591 155.173 124.496L155.173 124.496L155.181 124.494C155.553 124.382 155.877 124.329 156.155 124.324L156.155 124.324L156.159 124.324C156.428 124.318 156.633 124.369 156.794 124.458L156.794 124.458L156.801 124.461C156.943 124.536 157.073 124.668 157.18 124.901C157.229 125.009 157.263 125.152 157.269 125.342L157.269 125.342L157.269 125.353C157.276 125.482 157.241 125.673 157.114 125.941C157.082 126.005 157.043 126.074 156.996 126.148ZM159.808 125.667C159.948 125.555 160.094 125.446 160.246 125.341C160.252 125.357 160.259 125.374 160.265 125.39L160.265 125.39L160.268 125.398C160.335 125.57 160.406 125.748 160.483 125.932C160.396 126.005 160.316 126.073 160.244 126.137L160.244 126.137L160.241 126.14C160.13 126.239 160.026 126.307 159.929 126.352C159.885 126.372 159.862 126.373 159.855 126.373C159.85 126.373 159.841 126.372 159.823 126.363C159.745 126.316 159.682 126.249 159.633 126.141C159.59 126.048 159.578 125.972 159.583 125.906C159.586 125.899 159.593 125.884 159.611 125.86C159.645 125.813 159.706 125.748 159.807 125.668L159.808 125.667ZM160.737 123.863C160.646 123.65 160.545 123.432 160.434 123.209C160.389 123.119 160.372 123.056 160.366 123.017C160.374 123.013 160.383 123.009 160.394 123.004C160.535 122.939 160.625 122.95 160.711 122.992C160.789 123.031 160.944 123.174 161.127 123.573C161.136 123.594 161.145 123.615 161.155 123.636C161.015 123.709 160.875 123.785 160.737 123.863ZM161.112 124.801C161.258 124.716 161.404 124.635 161.552 124.557C161.615 124.711 161.678 124.864 161.739 125.017C161.584 125.115 161.439 125.21 161.305 125.301C161.269 125.212 161.235 125.125 161.201 125.04C161.172 124.96 161.142 124.88 161.112 124.801ZM162.62 124.526C162.562 124.385 162.504 124.244 162.445 124.102C162.507 124.073 162.568 124.044 162.628 124.017C162.88 123.902 163.038 123.9 163.133 123.925C163.218 123.947 163.284 123.993 163.343 124.121C163.351 124.139 163.357 124.154 163.36 124.167C163.339 124.181 163.308 124.198 163.265 124.217C163.035 124.323 162.82 124.425 162.62 124.526Z" fill="#7831B2" stroke="#7831B2"/>
<path d="M163.009 142.713C163.048 142.878 163.09 143.047 163.135 143.219M163.009 142.713C163.152 142.629 163.303 142.541 163.461 142.447C163.487 142.432 163.513 142.416 163.54 142.4C163.66 142.326 163.784 142.25 163.912 142.173M163.009 142.713C162.969 142.544 162.933 142.379 162.901 142.218C162.889 142.159 162.877 142.101 162.866 142.044C162.578 142.245 162.312 142.443 162.066 142.638M163.009 142.713C162.945 142.751 162.882 142.788 162.821 142.824L162.819 142.824C162.614 142.945 162.427 143.043 162.259 143.12C162.253 143.122 162.248 143.125 162.242 143.127M163.135 143.219L164.785 141.66M163.135 143.219C163.159 143.307 163.183 143.396 163.208 143.486L163.073 143.255L163.135 143.219ZM163.912 142.173C163.948 142.339 163.987 142.51 164.031 142.686C164.222 142.57 164.422 142.451 164.632 142.331M163.912 142.173C163.902 142.122 163.891 142.071 163.881 142.021C163.84 141.818 163.805 141.625 163.776 141.442C163.973 141.319 164.181 141.196 164.398 141.073C164.513 141.255 164.637 141.442 164.768 141.635L164.768 141.635L164.772 141.642C164.777 141.648 164.781 141.654 164.785 141.66M163.912 142.173C164.062 142.083 164.217 141.992 164.378 141.9M164.632 142.331C164.779 142.242 164.93 142.153 165.086 142.065C164.983 141.934 164.883 141.8 164.785 141.66M164.632 142.331L164.374 141.902C164.375 141.901 164.376 141.901 164.378 141.9M164.632 142.331L164.382 141.897C164.38 141.898 164.379 141.899 164.378 141.9M164.785 141.66C164.646 141.74 164.51 141.82 164.378 141.9M162.242 143.127C162.175 142.958 162.116 142.795 162.066 142.638M162.242 143.127C161.953 143.257 161.818 143.247 161.778 143.236C161.766 143.233 161.754 143.229 161.743 143.224L162.439 143.587C162.367 143.429 162.301 143.275 162.242 143.127ZM162.066 142.638C161.966 142.717 161.87 142.795 161.778 142.873L161.916 142.12C161.957 142.268 162 142.419 162.045 142.574C162.052 142.595 162.059 142.617 162.066 142.638ZM166.808 141.737C166.897 141.697 166.982 141.652 167.063 141.603C167.091 141.63 167.119 141.655 167.147 141.68L167.147 141.68L167.156 141.688C167.336 141.841 167.484 141.973 167.6 142.084L167.606 142.09L167.612 142.095C167.702 142.175 167.752 142.248 167.78 142.309C167.8 142.352 167.803 142.375 167.803 142.382L167.802 142.385C167.8 142.387 167.796 142.391 167.789 142.397C167.769 142.415 167.728 142.444 167.655 142.478C167.524 142.537 167.409 142.558 167.305 142.554C167.205 142.545 167.056 142.5 166.85 142.382L166.85 142.382L166.846 142.38C166.686 142.29 166.511 142.156 166.322 141.969C166.48 141.89 166.642 141.813 166.808 141.737ZM166.357 140.844C166.121 140.952 165.892 141.064 165.669 141.178C165.644 141.143 165.619 141.107 165.593 141.071C165.484 140.909 165.38 140.753 165.283 140.601C165.501 140.492 165.726 140.382 165.96 140.273C166.091 140.482 166.224 140.673 166.357 140.844ZM165.43 139.417C165.198 139.526 164.974 139.636 164.756 139.747C164.662 139.596 164.578 139.465 164.504 139.356C164.378 139.157 164.262 138.99 164.161 138.878C164.115 138.826 164.064 138.774 164.007 138.728C163.963 138.692 163.883 138.633 163.775 138.599C163.615 138.545 163.444 138.553 163.287 138.624C162.971 138.768 162.827 139.077 162.754 139.345L162.246 139.04C162.227 139.028 162.207 139.017 162.187 139.006C162.227 138.904 162.273 138.805 162.324 138.709C162.513 138.355 162.764 138.12 163.076 137.977C163.436 137.813 163.703 137.796 163.905 137.853L164.019 137.444L163.905 137.853C164.124 137.914 164.392 138.084 164.699 138.439L164.699 138.439L164.704 138.445C164.923 138.689 165.165 139.012 165.43 139.417ZM161.539 140.681C161.532 140.656 161.525 140.632 161.518 140.607L161.839 140.301L162.333 139.831L162.726 139.457L162.726 139.459C162.662 139.776 162.65 140.171 162.674 140.626L162.674 140.626L162.674 140.633C162.681 140.734 162.69 140.839 162.701 140.946C162.373 141.165 162.065 141.382 161.778 141.597C161.705 141.283 161.625 140.977 161.539 140.681ZM162.994 144.408C162.913 144.356 162.803 144.241 162.672 144.03C162.673 144.03 162.674 144.03 162.674 144.029C162.864 143.943 163.065 143.838 163.274 143.717C163.318 143.866 163.364 144.017 163.412 144.172L163.412 144.172L163.414 144.177C163.44 144.258 163.45 144.313 163.452 144.347C163.452 144.35 163.453 144.353 163.453 144.356C163.439 144.366 163.414 144.382 163.374 144.4C163.202 144.479 163.094 144.465 162.994 144.408ZM163.326 143.687C163.451 143.613 163.582 143.536 163.72 143.456C163.772 143.64 163.829 143.829 163.889 144.022C163.96 144.238 163.972 144.411 163.924 144.539C163.877 144.667 163.763 144.772 163.581 144.855C163.278 144.994 162.996 144.988 162.736 144.836L163.326 143.687ZM167.804 142.383C167.804 142.383 167.804 142.383 167.804 142.383C167.804 142.383 167.804 142.383 167.803 142.383C167.803 142.383 167.803 142.383 167.803 142.383L167.804 142.383Z" fill="#7831B2" stroke="#7831B2"/>
<path d="M148.152 113.833C148.234 113.789 148.318 113.746 148.403 113.703C148.408 113.715 148.412 113.727 148.417 113.739C148.457 113.844 148.498 113.95 148.541 114.056C148.516 114.08 148.495 114.099 148.477 114.115C148.335 114.235 148.246 114.386 148.195 114.545C148.134 114.385 148.081 114.237 148.035 114.102L148.035 114.102L148.035 114.1C148.015 114.043 147.997 113.985 147.979 113.925C148.032 113.898 148.09 113.867 148.152 113.833ZM148.871 115.926C149.067 116.009 149.275 116.03 149.479 115.98C149.54 116.073 149.599 116.156 149.656 116.228C149.763 116.362 149.901 116.506 150.074 116.591L150.086 116.596L150.098 116.601C150.253 116.668 150.469 116.706 150.689 116.606C150.82 116.546 150.949 116.468 151.075 116.376L151.085 116.37L151.094 116.362C151.213 116.268 151.323 116.169 151.426 116.064L151.434 116.056L151.442 116.047C151.545 115.932 151.635 115.811 151.704 115.683L151.71 115.671L151.715 115.66C151.777 115.529 151.863 115.283 151.746 115.026C151.654 114.825 151.497 114.65 151.266 114.56C151.229 114.545 151.192 114.532 151.154 114.522C151.262 114.407 151.362 114.292 151.454 114.18C151.535 114.192 151.602 114.211 151.658 114.235C151.78 114.287 151.871 114.35 151.939 114.42C152.02 114.502 152.079 114.587 152.119 114.676C152.265 114.994 152.306 115.264 152.278 115.496L152.277 115.498C152.247 115.756 152.162 115.995 152.02 116.219C151.869 116.453 151.686 116.657 151.47 116.832L151.47 116.832L151.469 116.833C151.246 117.016 151.026 117.154 150.811 117.252C150.665 117.319 150.519 117.333 150.355 117.292C150.163 117.236 149.955 117.124 149.731 116.939C149.501 116.748 149.276 116.506 149.059 116.21C148.994 116.118 148.931 116.023 148.871 115.926ZM150.306 114.521L150.339 114.571C150.23 114.601 150.118 114.639 150.004 114.683C149.978 114.692 149.951 114.702 149.924 114.712C149.881 114.622 149.836 114.526 149.789 114.423C149.767 114.375 149.746 114.328 149.726 114.284C149.771 114.237 149.816 114.19 149.862 114.142L149.862 114.142L149.868 114.135C149.905 114.095 149.942 114.055 149.977 114.015L150.016 114.074L150.306 114.521ZM150.947 113.18C150.821 113.193 150.692 113.216 150.561 113.248C150.585 113.206 150.608 113.164 150.628 113.123C150.708 112.971 150.828 112.682 150.694 112.388C150.622 112.23 150.491 112.098 150.31 112.034C150.18 111.986 150.058 111.994 149.999 112C149.92 112.008 149.841 112.026 149.768 112.047C149.62 112.087 149.424 112.162 149.194 112.26C149.106 112.295 149.008 112.335 148.9 112.382C148.852 112.325 148.8 112.273 148.743 112.225C148.568 112.074 148.366 111.968 148.141 111.917C148.123 111.912 148.105 111.909 148.088 111.906C148.455 111.744 148.805 111.617 149.136 111.524L149.136 111.525L149.144 111.522C149.511 111.413 149.83 111.361 150.104 111.358L150.104 111.358L150.108 111.358C150.372 111.353 150.574 111.405 150.733 111.494L150.733 111.494L150.741 111.498C150.881 111.573 151.012 111.706 151.119 111.941C151.169 112.049 151.203 112.193 151.21 112.383L151.21 112.383L151.21 112.394C151.218 112.523 151.183 112.714 151.06 112.98C151.03 113.042 150.992 113.109 150.947 113.18Z" stroke="#7831B2"/>
<path d="M125.027 37.5755C115.4 45.0128 64.3432 72.983 39.8685 85.6737C115.292 40.3647 116.243 42.0377 124.173 37.5072L124.654 37.2325C124.698 37.2076 124.824 37.3252 125.027 37.5755ZM125.027 37.5755C125.031 37.5728 125.034 37.57 125.038 37.5673L125.078 37.6392M125.027 37.5755C125.044 37.5959 125.061 37.6171 125.078 37.6392M125.078 37.6392L187.739 149.139M125.078 37.6392C130.878 44.9526 191.818 147.675 188.539 149.549L188.107 149.795M187.739 149.139L188.107 149.795M187.739 149.139L118.756 187.017M187.739 149.139L188.529 148.705M188.107 149.795L181.798 153.4L181.796 153.401M181.796 153.401L118.756 187.017M181.796 153.401L179.969 154.445M41.486 85.3881C49.8509 104.988 85.3913 177.327 98.5002 193.073M98.5002 193.073C100.092 194.985 101.353 196.063 102.195 196.11L118.756 187.017M98.5002 193.073C85.2255 178.396 47.104 106.34 39.7251 86.394M98.5002 193.073C99.9924 194.723 101.171 195.648 101.956 195.692L109.08 192.176L118.756 187.017M78.3059 125.427L130.252 95.7485M78.0677 125.009C103.867 108.606 130.013 95.3302 130.013 95.3302M83.9453 136.725L135.891 107.047M83.7071 136.307C109.507 119.904 135.653 106.628 135.653 106.628M90.2897 148.73L142.235 119.051M90.0515 148.312C115.851 131.909 141.997 118.633 141.997 118.633M98.0435 160.734L149.989 131.055M97.8053 160.316C123.605 143.913 149.751 130.637 149.751 130.637M104.388 174.15L156.333 144.471M104.149 173.731C129.949 157.328 156.095 144.053 156.095 144.053M62.4627 96.3752C79.4245 85.0217 97.0932 76.5894 97.0932 76.5894M68.1018 104.849C85.0636 93.4952 102.732 85.0629 102.732 85.0629M62.701 96.7942L97.3315 77.0084M68.3401 105.268L102.971 85.4819" stroke="#7831B2" stroke-width="3" stroke-linecap="round"/>
</svg>
