<svg width="240" height="228" viewBox="0 0 240 228" fill="none" xmlns="http://www.w3.org/2000/svg">
<path d="M90.0895 208.843C42.5043 172.372 -43.3465 81.3516 31.3491 14.9805C68.7409 -16.7276 114.213 15.0246 117.731 52.651M117.731 52.651C126.938 70.3622 116.342 74.2822 111.186 72.4972C99.4125 68.4212 113.762 52.1477 117.731 52.651ZM117.731 52.651C177.607 -3.79731 270.642 32.0333 221.975 134.804C173.307 237.575 93.6493 225.451 93.6493 225.451M90.6385 209.113C39.3933 165.625 -41.6986 82.355 32.997 15.9838C70.3887 -15.7242 114.217 15.0242 117.734 52.6506M117.734 52.6506C126.941 70.3617 117.245 73.6071 112.089 71.8221C100.315 67.7461 113.765 52.1472 117.734 52.6506ZM117.734 52.6506C177.611 -3.79776 274.763 33.5971 223.622 135.807C172.482 238.018 93.595 225.517 93.595 225.517M130.889 141.208C125.799 130.035 124.456 103.025 146.638 98.898C168.821 94.7712 190.457 110.305 188.93 123.979C187.403 137.652 188.426 142.45 171.341 152.848M137.592 159.652L135.6 166.585L135.693 166.665M135.693 166.665L143.549 173.377L155.272 172.246L157.263 165.312M135.693 166.665L135.878 166.665M135.693 166.665L107.683 166.659C106.508 166.922 103.872 167.604 102.731 168.237M155.274 172.245L177.19 185.758C178.575 186.857 181.414 189.436 181.696 190.958M137.528 175.547L140.053 181.378L128.742 196.74M148.61 178.736L143.298 182.612L143.704 200.128M135.714 122.884C135.714 122.884 137.749 123.864 140.915 124.805M140.915 124.805C147.008 126.616 157.288 128.282 165.315 122.541C167.582 120.92 169.04 120.258 169.979 120.267M140.915 124.805C137.308 123.802 134.935 122.66 134.935 122.66M140.915 124.805C147.077 126.517 156.842 127.82 164.536 122.317C167.563 120.152 169.149 119.698 169.979 120.267M169.979 120.267C173.883 120.303 168.772 131.957 175.44 134.348M169.979 120.267C172.452 121.961 168.216 132.735 175.44 134.348M175.44 134.348C175.79 134.474 176.173 134.574 176.591 134.645M175.44 134.348C175.561 134.375 175.685 134.4 175.812 134.421M131.809 130.618C130.842 140.95 131.391 158.59 144.793 162.98C158.604 167.505 165.909 162.472 176.077 143.778M131.235 141.422C126.144 130.249 123.902 102.02 146.085 97.8934C168.267 93.7666 189.903 109.3 188.377 122.974C186.85 136.648 188.671 141.676 171.587 152.074M137.038 158.647L135.047 165.581L142.996 172.372L154.719 171.241M154.719 171.241L156.71 164.307M154.719 171.241L176.636 184.754C178.02 185.853 180.859 188.431 181.142 189.954M135.325 165.66L107.13 165.655C105.954 165.917 103.319 166.6 102.177 167.232M130.125 217.195L123.92 165.682L130.677 177.123L143.203 173.133L152.035 182.003L162.869 176.288L130.125 217.195ZM130.125 217.195L130.528 220.462M137.134 175.184L139.498 180.374L128.188 195.736M147.646 178.209L142.744 181.608L143.151 200.041M63.1159 143.217C61.0613 148.631 59.145 159.97 67.917 162.014C76.689 164.058 81.4859 154.108 82.7879 148.877M61.5233 148.764C54.7398 148.013 39.6031 147.381 33.325 150.859M81.5513 154.227C89.2943 157.556 105.141 166.299 106.585 174.642L99.4971 199.326M53.7618 148.633L48.2384 160.556L56.2734 162.868L58.2443 168.539L68.2323 163.006L73.4832 172.924L78.439 169.246L86.7511 171.637L88.3956 158.598M105.041 116.67C105.041 116.67 102.801 116.419 99.6245 115.536M99.6245 115.536C93.5019 113.834 83.8983 109.782 80.1396 100.645C79.0787 98.066 78.1938 96.7302 77.3943 96.2392M99.6245 115.536C103.208 116.602 105.82 116.894 105.82 116.894M99.6245 115.536C93.4944 113.713 84.5214 109.627 80.9186 100.869C79.5019 97.4253 78.3992 96.1983 77.3943 96.2392M77.3943 96.2392C74.0664 94.1954 72.2161 106.784 65.2981 105.268M77.3943 96.2392C74.3999 96.361 72.2739 107.74 65.2981 105.268M65.2981 105.268C64.9344 105.189 64.5568 105.07 64.1642 104.908M65.2981 105.268C65.1811 105.227 65.0628 105.182 64.9432 105.132M57.6088 114.53C56.6419 124.862 58.3983 142.912 71.8003 147.303C85.6111 151.827 92.211 146.106 102.378 127.412M60.9693 147.76C54.1858 147.009 39.0491 146.377 32.771 149.856M80.8568 155.393C82.7638 156.213 85.1709 157.23 87.7377 158.421M87.7377 158.421C95.5929 162.067 104.943 167.35 106.032 173.638L99.37 199.535M87.7377 158.421L86.1975 170.634L77.8854 168.242L72.9295 171.921L67.3247 162.891L57.9673 169.058L56.4196 162.706L48.2443 160.354L53.2081 147.629M87.7377 158.421L87.8419 157.595M95.3513 81.5915C91.8951 80.6493 88.6155 80.4429 86.3191 80.6015C86.0994 80.5241 85.8708 80.447 85.6339 80.3709M95.3513 81.5915C101.386 83.2367 107.96 87.1257 110.777 95.2332C116.316 111.171 116.502 134.007 112.089 144.972C108.558 153.744 99.6953 159.267 95.7051 160.931M95.3513 81.5915C91.66 80.4723 88.0994 80.2132 85.6339 80.3709M95.3513 81.5915C101.164 83.3539 107.301 87.2493 109.998 95.0088C115.536 110.947 115.722 133.783 111.309 144.748C107.779 153.52 98.9157 159.042 94.9255 160.707M85.6339 80.3709C85.2382 80.2436 84.8193 80.1188 84.3802 79.9987M85.6339 80.3709C85.6022 80.3729 85.5707 80.375 85.5394 80.3771C85.1765 80.2492 84.7891 80.1223 84.3802 79.9987M84.3802 79.9987C77.296 78.0598 64.9627 77.3237 60.0469 86.9644C53.2933 100.209 28.7691 126.905 40.8138 145.137M84.3802 79.9987C77.4587 77.9058 64.3687 76.7352 59.2673 86.7401C52.5137 99.9851 27.9894 126.68 40.0341 144.912M137.863 175.145L142.45 172.85L147.951 177.898L143.366 182.028L143.366 199.008L131.447 214.152L128.238 195.337L138.782 181.111L137.863 175.145Z" stroke="#7831B2" stroke-width="4" stroke-linecap="round"/>
</svg>
