<svg width="157" height="218" viewBox="0 0 157 218" fill="none" xmlns="http://www.w3.org/2000/svg">
<path d="M90.114 216.128C91.2129 216.017 92.0137 215.036 91.9025 213.937C91.7913 212.838 90.8103 212.037 89.7114 212.149L90.114 216.128ZM18.5719 193.035L16.8877 194.114L16.8877 194.114L18.5719 193.035ZM12.6038 144.218L14.5123 144.816L14.5123 144.816L12.6038 144.218ZM24.0949 99.4387L24.5455 97.4901L21.3755 96.7569L22.1528 99.9165L24.0949 99.4387ZM47.22 131.741L49.1502 132.265L49.1502 132.265L47.22 131.741ZM46.0968 164.02C46.6515 164.975 47.8754 165.3 48.8307 164.746C49.7859 164.191 50.1107 162.967 49.556 162.012L46.0968 164.02ZM50.5831 121.872L48.864 120.85L48.7879 120.978L48.7317 121.115L50.5831 121.872ZM49.0728 56.9545L47.706 58.4146L47.7368 58.4435L47.7688 58.471L49.0728 56.9545ZM37.8575 31.3585L39.8543 31.4724L39.8543 31.4724L37.8575 31.3585ZM54.6377 5.61836L56.6239 5.85361L57.1386 1.5081L53.5159 3.96262L54.6377 5.61836ZM100.914 55.9601L99.8394 57.6469L99.8394 57.6469L100.914 55.9601ZM142.914 93.8371L141.172 94.8194L141.172 94.8194L142.914 93.8371ZM115.004 204.43C113.947 204.751 113.35 205.868 113.671 206.925C113.992 207.981 115.109 208.578 116.166 208.257L115.004 204.43ZM130.965 166.282L129.005 166.682L129.005 166.682L130.965 166.282ZM125.828 152.604L127.62 151.716L125.526 147.49L123.944 151.933L125.828 152.604ZM90.8072 126.371L92.788 126.094L92.3873 123.229L89.8483 124.616L90.8072 126.371ZM79.3971 168.176L81.3474 167.733L81.3474 167.733L79.3971 168.176ZM85.1212 182.168L85.6596 184.094L87.629 183.544L87.0349 181.587L85.1212 182.168ZM54.7928 185.97L54.6318 183.976L52.0718 184.183L52.8995 186.614L54.7928 185.97ZM89.6224 216.251C90.7259 216.203 91.5811 215.269 91.5325 214.165C91.484 213.062 90.5501 212.207 89.4466 212.255L89.6224 216.251ZM17.1247 191.509L18.8218 190.45L17.1247 191.509ZM22.6476 97.9119L23.0983 95.9633L19.9282 95.2301L20.7056 98.3897L22.6476 97.9119ZM45.7728 130.214L47.703 130.738L47.703 130.738L45.7728 130.214ZM44.6496 162.493C45.2043 163.449 46.4282 163.773 47.3835 163.219C48.3387 162.664 48.6634 161.44 48.1088 160.485L44.6496 162.493ZM49.1359 120.345L47.4168 119.323L47.3407 119.451L47.2845 119.589L49.1359 120.345ZM47.6256 55.4277L46.2588 56.8878L46.2896 56.9167L46.3216 56.9442L47.6256 55.4277ZM36.4103 29.8317L38.407 29.9457L38.407 29.9457L36.4103 29.8317ZM54.8871 4.55955L56.8732 4.79479L57.3583 0.69981L53.8422 2.85421L54.8871 4.55955ZM99.4668 54.4334L98.3922 56.1201L98.3922 56.1201L99.4668 54.4334ZM141.466 92.3103L139.724 93.2926L139.724 93.2926L141.466 92.3103ZM115.076 204.408C114.019 204.729 113.423 205.846 113.744 206.903C114.064 207.959 115.181 208.556 116.238 208.235L115.076 204.408ZM128.964 165.906L127.004 166.306L127.004 166.306L128.964 165.906ZM125.629 151.681L127.421 150.793L125.327 146.567L123.745 151.01L125.629 151.681ZM90.8813 126.349L92.8621 126.072L92.4614 123.206L89.9224 124.593L90.8813 126.349ZM77.9497 166.65L76.0681 167.328L76.0681 167.328L77.9497 166.65ZM83.6738 180.641L84.2122 182.567L86.1816 182.017L85.5875 180.06L83.6738 180.641ZM53.3454 184.443L53.1844 182.449L50.6244 182.656L51.4521 185.088L53.3454 184.443ZM15.8586 85.2268L13.8975 85.6193L14.7284 89.7707L17.4073 86.4924L15.8586 85.2268ZM19.5883 70.3955L17.867 71.4139L17.867 71.4139L19.5883 70.3955ZM11.8287 62.9164L12.7918 61.1636L12.7616 61.147L12.7308 61.1315L11.8287 62.9164ZM8.50058 57.6044L10.4922 57.7875L8.50058 57.6044ZM8.87686 54.4607L10.844 54.822L10.844 54.822L8.87686 54.4607ZM8.52892 54.3104L9.70977 55.9246L9.70977 55.9246L8.52892 54.3104ZM2.7202 65.6821L0.973248 66.6559L0.973248 66.6559L2.7202 65.6821ZM15.1616 78.4134L13.1758 78.1754L13.1605 78.3037L13.1617 78.433L15.1616 78.4134ZM111.934 104.589L112.612 102.708L108.629 101.273L110.05 105.261L111.934 104.589ZM122.757 115.393L120.757 115.405L120.757 115.405L122.757 115.393ZM119.946 125.798L121.637 126.865L121.655 126.836L121.673 126.806L119.946 125.798ZM119.822 132.065L121.436 130.884L119.822 132.065ZM121.76 134.568L123.262 133.247L123.262 133.247L121.76 134.568ZM121.539 134.876L121.722 132.885L121.722 132.885L121.539 134.876ZM110.711 128.108L108.712 128.171L108.712 128.171L110.711 128.108ZM114.838 110.792L113.113 111.803L113.178 111.915L113.257 112.017L114.838 110.792ZM89.7114 212.149C80.4602 213.085 66.7634 213.899 53.4919 211.496C40.2086 209.09 27.6623 203.521 20.2562 191.957L16.8877 194.114C25.143 207.004 38.9606 212.929 52.779 215.432C66.6093 217.937 80.7521 217.075 90.114 216.128L89.7114 212.149ZM20.2562 191.957C15.203 184.066 12.3984 176.765 11.5205 169.255C10.6417 161.737 11.6772 153.867 14.5123 144.816L10.6952 143.62C7.74527 153.038 6.58566 161.49 7.5476 169.719C8.51049 177.957 11.5825 185.83 16.8877 194.114L20.2562 191.957ZM14.5123 144.816C15.9135 140.342 17.618 136.623 19.3353 133.21C21.0245 129.853 22.8237 126.614 24.2401 123.391C27.1764 116.71 28.6745 109.682 26.0369 98.9609L22.1528 99.9165C24.5563 109.686 23.2014 115.813 20.5781 121.782C19.2147 124.884 17.5575 127.843 15.7621 131.412C13.9948 134.925 12.1865 138.859 10.6952 143.62L14.5123 144.816ZM23.6442 101.387C25.9944 101.931 30.4412 104.475 34.8379 109.591C39.1764 114.64 43.3427 122.061 45.2552 132.115L49.1847 131.367C47.1371 120.602 42.6507 112.545 37.8716 106.984C33.1508 101.49 28.0151 98.2926 24.5455 97.4901L23.6442 101.387ZM49.556 162.012C47.5888 158.624 44.8532 148.106 49.1502 132.265L45.2897 131.217C40.798 147.776 43.4495 159.461 46.0968 164.02L49.556 162.012ZM49.1502 132.265C49.971 129.239 51.0479 126.022 52.4345 122.628L48.7317 121.115C47.2845 124.657 46.1545 128.029 45.2897 131.217L49.1502 132.265ZM52.3022 122.894C59.8644 110.175 63.9767 98.9422 64.703 96.0494L60.8234 95.0754C60.2138 97.5037 56.2806 108.376 48.864 120.85L52.3022 122.894ZM64.703 96.0494C64.9744 94.9681 67.2052 89.5458 66.395 82.1273C65.5743 74.6135 61.7046 65.1783 50.3767 55.438L47.7688 58.471C58.4099 67.6207 61.7193 76.1592 62.4186 82.5616C63.1283 89.0595 61.2198 93.4961 60.8234 95.0754L64.703 96.0494ZM50.4396 55.4944C45.3482 50.7284 42.6403 47.2887 41.2129 43.856C39.7969 40.4509 39.5484 36.8333 39.8543 31.4724L35.8608 31.2446C35.5449 36.7801 35.7496 41.1355 37.5195 45.3918C39.2779 49.6204 42.4885 53.5305 47.706 58.4146L50.4396 55.4944ZM39.8543 31.4724C40.1825 25.7196 41.3555 21.6674 43.7298 18.115C46.1411 14.5074 49.9038 11.2417 55.7596 7.2741L53.5159 3.96262C47.5402 8.01147 43.2544 11.6279 40.4043 15.8923C37.5172 20.2119 36.2158 25.0216 35.8608 31.2446L39.8543 31.4724ZM52.6516 5.38312C52.148 9.63499 52.0637 16.3944 53.4431 22.9997C54.8106 29.5485 57.7079 36.3642 63.5224 40.1487L65.7044 36.7962C61.2193 33.8771 58.6456 28.3449 57.3586 22.182C56.0835 16.0758 56.1612 9.75993 56.6239 5.85361L52.6516 5.38312ZM63.5224 40.1487C68.8679 43.6279 74.8256 45.9587 80.9005 48.414C87.0256 50.8896 93.374 53.5275 99.8394 57.6469L101.989 54.2734C95.1845 49.9382 88.5323 47.1842 82.3994 44.7054C76.2164 42.2065 70.6585 40.0207 65.7044 36.7962L63.5224 40.1487ZM99.8394 57.6469C118.557 69.5727 130.613 76.0948 141.172 94.8194L144.656 92.8548C133.521 73.1077 120.53 66.0864 101.989 54.2734L99.8394 57.6469ZM141.172 94.8194C148.39 107.622 150.103 116.012 152.137 131.01L156.101 130.473C154.038 115.257 152.233 106.293 144.656 92.8548L141.172 94.8194ZM152.137 131.01C153.128 138.317 152.861 149.067 150.781 159.576C148.691 170.134 144.841 180.09 138.938 186.113L141.795 188.913C148.51 182.061 152.561 171.185 154.705 160.353C156.859 149.471 157.159 138.274 156.101 130.473L152.137 131.01ZM138.938 186.113C132.705 192.473 127.353 196.872 123.219 199.779C119.042 202.717 116.205 204.065 115.004 204.43L116.166 208.257C117.968 207.71 121.212 206.081 125.52 203.051C129.872 199.99 135.409 195.429 141.795 188.913L138.938 186.113ZM124.945 203.64C127.325 200.058 130.055 194.337 131.827 187.699C133.6 181.059 134.451 173.363 132.924 165.882L129.005 166.682C130.372 173.378 129.631 180.42 127.963 186.667C126.294 192.917 123.735 198.233 121.613 201.426L124.945 203.64ZM132.924 165.882C131.724 159.999 128.453 153.398 127.62 151.716L124.036 153.492C124.896 155.228 127.924 161.384 129.005 166.682L132.924 165.882ZM123.944 151.933C122.505 155.973 121.927 157.186 117.024 165.538L120.473 167.563C125.403 159.166 126.141 157.686 127.712 153.275L123.944 151.933ZM117.024 165.538C115.913 167.429 114.307 169.178 112.555 170.03C110.954 170.809 109.162 170.898 107.112 169.387C104.894 167.752 102.284 164.168 99.7243 157.207C97.1825 150.295 94.7717 140.282 92.788 126.094L88.8265 126.648C90.8315 140.988 93.2932 151.308 95.9701 158.587C98.6289 165.818 101.584 170.282 104.739 172.607C108.063 175.056 111.453 175.015 114.305 173.627C117.007 172.313 119.125 169.859 120.473 167.563L117.024 165.538ZM89.8483 124.616C87.6861 125.797 85.6688 128.214 83.9336 131.111C82.1595 134.073 80.533 137.787 79.256 141.873C76.7121 150.015 75.4701 159.919 77.4468 168.62L81.3474 167.733C79.5758 159.935 80.6635 150.781 83.074 143.066C84.2743 139.225 85.7812 135.811 87.3651 133.167C88.9878 130.458 90.5531 128.789 91.7662 128.126L89.8483 124.616ZM77.4468 168.62C78.1496 171.713 79.5874 175.143 80.832 177.833C81.4609 179.193 82.0558 180.395 82.5028 181.298C82.7289 181.756 82.9107 182.123 83.045 182.405C83.2058 182.743 83.2259 182.81 83.2075 182.749L87.0349 181.587C86.9482 181.301 86.779 180.942 86.6559 180.684C86.5061 180.37 86.3092 179.972 86.0881 179.525C85.6405 178.62 85.0667 177.46 84.4622 176.154C83.2401 173.512 81.9525 170.397 81.3474 167.733L77.4468 168.62ZM84.5827 180.242C81.3787 181.138 73.9857 182.074 67.1959 182.793C63.8434 183.148 60.7011 183.444 58.3961 183.651C57.2439 183.755 56.3017 183.836 55.6481 183.891C55.3212 183.919 55.0666 183.94 54.8939 183.955C54.8076 183.962 54.7418 183.967 54.6977 183.971C54.6756 183.973 54.659 183.974 54.648 183.975C54.6425 183.975 54.6384 183.976 54.6357 183.976C54.6343 183.976 54.6333 183.976 54.6327 183.976C54.6323 183.976 54.6321 183.976 54.632 183.976C54.6318 183.976 54.6318 183.976 54.7928 185.97C54.9539 187.963 54.954 187.963 54.9542 187.963C54.9544 187.963 54.9548 187.963 54.9552 187.963C54.956 187.963 54.9571 187.963 54.9586 187.963C54.9616 187.963 54.966 187.962 54.9718 187.962C54.9835 187.961 55.0007 187.959 55.0234 187.958C55.0687 187.954 55.1359 187.948 55.2235 187.941C55.3988 187.927 55.6563 187.905 55.986 187.877C56.6456 187.821 57.5945 187.739 58.7543 187.635C61.0732 187.427 64.2376 187.129 67.617 186.771C74.2911 186.064 82.0622 185.1 85.6596 184.094L84.5827 180.242ZM52.8995 186.614C54.5136 191.355 58.4708 198.464 64.2865 204.53C70.1044 210.599 77.9928 215.837 87.4875 216.348L87.7024 212.354C79.594 211.917 72.5981 207.42 67.174 201.762C61.7478 196.102 58.1054 189.494 56.6861 185.325L52.8995 186.614ZM89.4466 212.255C79.9627 212.672 66.0013 213.254 52.4861 210.656C38.9656 208.058 26.2384 202.344 18.8218 190.45L15.4276 192.567C23.687 205.812 37.6988 211.887 51.7311 214.585C65.7689 217.283 80.1744 216.667 89.6224 216.251L89.4466 212.255ZM18.8218 190.45C13.8557 182.486 11.0478 175.176 10.1459 167.675C9.24363 160.171 10.2323 152.333 13.0651 143.289L9.24798 142.093C6.29583 151.518 5.18716 159.941 6.17452 168.153C7.16232 176.369 10.231 184.233 15.4276 192.567L18.8218 190.45ZM13.0651 143.289C14.4663 138.816 16.1708 135.096 17.8881 131.683C19.5773 128.326 21.3765 125.087 22.7929 121.864C25.7292 115.183 27.2273 108.155 24.5897 97.4341L20.7056 98.3897C23.1091 108.159 21.7541 114.286 19.1309 120.255C17.7675 123.357 16.1103 126.317 14.3149 129.885C12.5476 133.398 10.7393 137.332 9.24798 142.093L13.0651 143.289ZM22.197 99.8605C24.5472 100.404 28.994 102.948 33.3907 108.064C37.7292 113.113 41.8955 120.534 43.808 130.588L47.7375 129.84C45.6899 119.076 41.2035 111.019 36.4244 105.457C31.7036 99.9637 26.5679 96.7658 23.0983 95.9633L22.197 99.8605ZM48.1088 160.485C46.1416 157.097 43.406 146.579 47.703 130.738L43.8425 129.691C39.3508 146.25 42.0023 157.934 44.6496 162.493L48.1088 160.485ZM47.703 130.738C48.5238 127.712 49.6007 124.495 50.9873 121.102L47.2845 119.589C45.8373 123.13 44.7073 126.503 43.8425 129.691L47.703 130.738ZM50.855 121.367C58.4172 108.648 62.5295 97.4154 63.2558 94.5226L59.3762 93.5486C58.7666 95.9769 54.8334 106.849 47.4168 119.323L50.855 121.367ZM63.2558 94.5226C63.5272 93.4414 65.758 88.0191 64.9478 80.6006C64.1271 73.0867 60.2574 63.6515 48.9295 53.9113L46.3216 56.9442C56.9627 66.094 60.2721 74.6324 60.9714 81.0349C61.6811 87.5327 59.7726 91.9693 59.3762 93.5486L63.2558 94.5226ZM48.9924 53.9677C43.901 49.2016 41.1931 45.762 39.7656 42.3292C38.3497 38.9241 38.1012 35.3065 38.407 29.9457L34.4135 29.7178C34.0977 35.2534 34.3023 39.6088 36.0722 43.865C37.8306 48.0936 41.0413 52.0038 46.2588 56.8878L48.9924 53.9677ZM38.407 29.9457C38.7263 24.3511 40.4225 20.1361 43.2985 16.5041C46.2196 12.8149 50.4268 9.63811 55.932 6.26488L53.8422 2.85421C48.2155 6.30187 43.5259 9.77329 40.1625 14.021C36.7538 18.3258 34.7777 23.3365 34.4135 29.7178L38.407 29.9457ZM52.901 4.3243C52.4112 8.45931 51.8818 15.0856 52.8225 21.5846C53.7556 28.0302 56.2035 34.8003 62.0752 38.6219L64.2572 35.2695C59.8292 32.3875 57.6545 27.0436 56.7813 21.0116C55.9158 15.0329 56.3967 8.81797 56.8732 4.79479L52.901 4.3243ZM62.0752 38.6219C67.4207 42.1011 73.3783 44.4319 79.4533 46.8872C85.5784 49.3628 91.9267 52.0008 98.3922 56.1201L100.542 52.7466C93.7373 48.4114 87.0851 45.6574 80.9522 43.1787C74.7692 40.6797 69.2113 38.4939 64.2572 35.2695L62.0752 38.6219ZM98.3922 56.1201C117.11 68.0459 129.166 74.568 139.724 93.2926L143.209 91.328C132.074 71.5809 119.082 64.5597 100.542 52.7466L98.3922 56.1201ZM139.724 93.2926C146.943 106.095 148.656 114.485 150.69 129.484L154.654 128.946C152.59 113.73 150.786 104.766 143.209 91.328L139.724 93.2926ZM150.69 129.484C151.681 136.79 151.414 147.541 149.334 158.049C147.244 168.607 143.394 178.563 137.491 184.587L140.348 187.386C147.063 180.534 151.114 169.658 153.258 158.826C155.412 147.944 155.712 136.747 154.654 128.946L150.69 129.484ZM137.491 184.587C131.198 191.008 126.175 195.821 122.369 199.132C120.466 200.788 118.891 202.047 117.631 202.936C116.327 203.857 115.504 204.278 115.076 204.408L116.238 208.235C117.312 207.909 118.57 207.17 119.938 206.204C121.349 205.207 123.036 203.854 124.995 202.15C128.915 198.739 134.022 193.841 140.348 187.386L137.491 184.587ZM123.217 204.164C125.619 200.55 128.276 194.584 129.972 187.739C131.67 180.886 132.448 172.976 130.924 165.507L127.004 166.306C128.373 173.013 127.696 180.292 126.09 186.777C124.481 193.269 121.986 198.79 119.886 201.95L123.217 204.164ZM130.924 165.507C130.357 162.727 129.729 159.571 129.139 156.906C128.844 155.572 128.553 154.338 128.278 153.318C128.017 152.349 127.731 151.419 127.421 150.793L123.837 152.569C123.95 152.798 124.15 153.374 124.416 154.359C124.667 155.293 124.943 156.46 125.233 157.771C125.814 160.393 126.431 163.495 127.004 166.306L130.924 165.507ZM123.745 151.01C122.341 154.952 119.429 159.752 115.828 163.671L118.774 166.377C122.69 162.115 125.907 156.861 127.513 152.352L123.745 151.01ZM115.828 163.671C114.912 164.668 113.494 166.094 111.809 166.944C110.208 167.751 108.521 167.979 106.694 166.896C104.701 165.714 102.211 162.786 99.7121 156.316C97.2326 149.898 94.8461 140.261 92.8621 126.072L88.9006 126.626C90.9054 140.964 93.3459 150.937 95.9808 157.758C98.5958 164.527 101.508 168.47 104.653 170.336C107.964 172.3 111.151 171.755 113.61 170.516C115.984 169.319 117.811 167.424 118.774 166.377L115.828 163.671ZM89.9224 124.593C87.8532 125.724 85.633 127.984 83.5902 130.778C81.5123 133.62 79.4897 137.191 77.8772 141.146C74.6745 148.999 72.9604 158.701 76.0681 167.328L79.8313 165.972C77.1927 158.647 78.5689 150.043 81.5811 142.656C83.0759 138.99 84.9417 135.707 86.8192 133.139C88.7319 130.523 90.5342 128.817 91.8402 128.104L89.9224 124.593ZM76.0681 167.328C77.0895 170.163 78.4718 173.481 79.6197 176.175C80.1891 177.511 80.7226 178.744 81.1064 179.642C81.3023 180.101 81.4626 180.48 81.5812 180.769C81.6406 180.913 81.6864 181.028 81.7197 181.115C81.7573 181.212 81.765 181.239 81.7601 181.222L85.5875 180.06C85.4784 179.701 85.1487 178.923 84.7846 178.071C84.3821 177.129 83.8769 175.962 83.2995 174.607C82.154 171.918 80.8109 168.691 79.8313 165.972L76.0681 167.328ZM83.1353 178.715C79.9313 179.611 72.5383 180.547 65.7485 181.266C62.396 181.621 59.2537 181.917 56.9487 182.124C55.7965 182.228 54.8543 182.309 54.2007 182.365C53.8738 182.392 53.6192 182.414 53.4465 182.428C53.3602 182.435 53.2944 182.441 53.2503 182.444C53.2282 182.446 53.2116 182.447 53.2006 182.448C53.1951 182.449 53.191 182.449 53.1883 182.449C53.1869 182.449 53.1859 182.449 53.1853 182.449C53.1849 182.449 53.1847 182.449 53.1846 182.449C53.1844 182.449 53.1844 182.449 53.3454 184.443C53.5065 186.437 53.5066 186.436 53.5068 186.436C53.507 186.436 53.5074 186.436 53.5078 186.436C53.5086 186.436 53.5097 186.436 53.5112 186.436C53.5142 186.436 53.5186 186.436 53.5244 186.435C53.5361 186.434 53.5533 186.433 53.576 186.431C53.6213 186.427 53.6885 186.422 53.7761 186.414C53.9514 186.4 54.2089 186.378 54.5386 186.35C55.1982 186.295 56.1471 186.213 57.3069 186.108C59.6258 185.9 62.7902 185.602 66.1697 185.244C72.8437 184.537 80.6148 183.573 84.2122 182.567L83.1353 178.715ZM51.4521 185.088C53.0395 189.75 56.7207 197.279 62.2917 203.799C67.8512 210.306 75.5231 216.066 85.0989 216.581L85.3137 212.587C77.2866 212.155 70.5446 207.3 65.3328 201.201C60.1325 195.114 56.6847 188.046 55.2387 183.798L51.4521 185.088ZM17.4073 86.4924C18.7263 84.8782 20.4942 82.1652 21.5699 79.1628C22.6242 76.2202 23.174 72.5282 21.3096 69.3771L17.867 71.4139C18.8214 73.0269 18.7152 75.2713 17.8043 77.8136C16.9149 80.2961 15.4086 82.6168 14.3099 83.9613L17.4073 86.4924ZM21.3096 69.3771C19.7343 66.7145 17.5984 64.6702 15.9034 63.3097C15.0484 62.6234 14.2866 62.0961 13.733 61.7371C13.4557 61.5572 13.2294 61.4188 13.0681 61.323C12.9874 61.275 12.9229 61.2377 12.8763 61.2111C12.853 61.1978 12.8342 61.1872 12.82 61.1793C12.8129 61.1753 12.807 61.172 12.8023 61.1694C12.8 61.1681 12.7979 61.167 12.7962 61.166C12.7953 61.1655 12.7945 61.1651 12.7938 61.1647C12.7934 61.1645 12.7929 61.1642 12.7928 61.1641C12.7923 61.1639 12.7918 61.1636 11.8287 62.9164C10.8656 64.6693 10.8652 64.6691 10.8648 64.6688C10.8647 64.6688 10.8643 64.6686 10.8641 64.6685C10.8637 64.6682 10.8633 64.668 10.8631 64.6679C10.8625 64.6676 10.8623 64.6674 10.8623 64.6675C10.8624 64.6675 10.8636 64.6682 10.866 64.6695C10.8707 64.6721 10.8799 64.6773 10.8935 64.6851C10.9207 64.7006 10.965 64.7262 11.025 64.7618C11.1449 64.8331 11.3266 64.944 11.5566 65.0931C12.0174 65.392 12.667 65.8411 13.3996 66.4291C14.8797 67.6171 16.6236 69.3122 17.867 71.4139L21.3096 69.3771ZM11.8287 62.9164C12.7308 61.1315 12.7315 61.1318 12.7322 61.1321C12.7324 61.1322 12.733 61.1326 12.7334 61.1328C12.7343 61.1332 12.735 61.1336 12.7357 61.1339C12.7372 61.1347 12.7384 61.1353 12.7394 61.1358C12.7414 61.1368 12.7426 61.1375 12.743 61.1377C12.7438 61.1381 12.7415 61.1369 12.7363 61.1341C12.7258 61.1285 12.7039 61.1164 12.6721 61.0981C12.6083 61.0613 12.5069 61.0002 12.3814 60.9156C12.1261 60.7436 11.794 60.4901 11.4772 60.1652C10.8308 59.5021 10.4064 58.7206 10.4922 57.7875L6.50898 57.4213C6.27586 59.9571 7.51552 61.8316 8.61295 62.9573C9.16807 63.5268 9.72776 63.9509 10.1464 64.2329C10.3578 64.3753 10.5388 64.4853 10.6732 64.5628C10.7405 64.6017 10.7966 64.6326 10.8394 64.6557C10.8608 64.6672 10.8789 64.6768 10.8935 64.6844C10.9008 64.6882 10.9073 64.6916 10.9128 64.6944C10.9156 64.6958 10.9181 64.6971 10.9204 64.6983C10.9215 64.6989 10.9226 64.6994 10.9237 64.7C10.9242 64.7002 10.9249 64.7006 10.9252 64.7007C10.9259 64.7011 10.9266 64.7014 11.8287 62.9164ZM10.4922 57.7875C10.6421 56.1568 10.7624 55.2662 10.844 54.822L6.90977 54.0994C6.79458 54.7266 6.66146 55.7628 6.50898 57.4213L10.4922 57.7875ZM7.34807 52.6962C5.641 53.945 3.41819 55.9341 1.90314 58.2471C0.420247 60.5109 -0.710135 63.6358 0.973248 66.6559L4.46715 64.7084C3.87857 63.6524 4.05734 62.2584 5.2492 60.4389C6.40889 58.6684 8.22642 57.0097 9.70977 55.9246L7.34807 52.6962ZM0.973248 66.6559C1.96096 68.4279 3.48936 69.661 4.98321 70.6137C6.40726 71.5219 8.17003 72.3842 9.41995 73.0857C10.8065 73.864 11.8142 74.5654 12.4482 75.3581C13.0075 76.0574 13.3296 76.8921 13.1758 78.1754L17.1474 78.6514C17.4305 76.2896 16.7927 74.3862 15.5721 72.8598C14.4261 71.4269 12.834 70.415 11.3778 69.5976C9.78485 68.7036 8.46181 68.0879 7.13399 67.2412C5.87598 66.4389 4.98646 65.6401 4.46715 64.7084L0.973248 66.6559ZM13.1617 78.433C13.1907 81.3939 13.6597 84.4312 13.8975 85.6193L17.8197 84.8343C17.6157 83.8149 17.1874 81.0364 17.1615 78.3939L13.1617 78.433ZM10.844 54.822C10.866 54.7019 10.9158 54.423 10.8971 54.1121C10.8875 53.9515 10.7904 52.6578 9.46043 52.2359C8.93937 52.0706 8.49731 52.1556 8.28471 52.2129C8.05785 52.274 7.88334 52.361 7.78878 52.4117C7.60143 52.5122 7.4363 52.6317 7.34807 52.6962L9.70977 55.9246C9.78795 55.8674 9.75882 55.8941 9.67954 55.9366C9.63901 55.9584 9.51156 56.025 9.32507 56.0753C9.15286 56.1216 8.74451 56.2052 8.2508 56.0486C7.67644 55.8664 7.29776 55.4616 7.10059 55.0697C6.93538 54.7413 6.91055 54.456 6.9043 54.3519C6.8919 54.1452 6.92492 54.0169 6.90977 54.0994L10.844 54.822ZM111.256 106.471C112.889 107.06 115.374 108.276 117.413 109.948C119.501 111.66 120.746 113.531 120.757 115.405L124.757 115.382C124.736 111.721 122.367 108.837 119.95 106.855C117.484 104.832 114.573 103.414 112.612 102.708L111.256 106.471ZM120.757 115.405C120.771 117.847 120.146 120.197 119.487 121.977C119.161 122.858 118.835 123.577 118.593 124.071C118.473 124.317 118.374 124.505 118.308 124.628C118.274 124.69 118.25 124.734 118.234 124.762C118.227 124.775 118.221 124.784 118.219 124.789C118.217 124.791 118.217 124.793 118.217 124.793C118.217 124.793 118.217 124.793 118.217 124.792C118.217 124.792 118.217 124.791 118.218 124.791C118.218 124.791 118.218 124.79 118.218 124.79C118.218 124.79 118.218 124.789 119.946 125.798C121.673 126.806 121.673 126.806 121.673 126.805C121.673 126.805 121.674 126.805 121.674 126.804C121.674 126.804 121.675 126.803 121.675 126.802C121.676 126.8 121.677 126.798 121.679 126.796C121.682 126.791 121.685 126.785 121.689 126.778C121.697 126.764 121.708 126.745 121.721 126.722C121.747 126.675 121.783 126.61 121.828 126.527C121.917 126.362 122.04 126.127 122.185 125.831C122.476 125.238 122.858 124.394 123.239 123.366C123.993 121.327 124.774 118.476 124.757 115.382L120.757 115.405ZM119.946 125.798C118.254 124.731 118.254 124.731 118.253 124.732C118.253 124.732 118.253 124.733 118.252 124.733C118.252 124.734 118.251 124.735 118.251 124.736C118.249 124.739 118.248 124.741 118.246 124.744C118.243 124.749 118.239 124.755 118.235 124.762C118.226 124.776 118.215 124.794 118.203 124.815C118.178 124.856 118.146 124.912 118.108 124.98C118.033 125.115 117.934 125.303 117.826 125.534C117.612 125.991 117.35 126.642 117.166 127.416C116.804 128.946 116.704 131.191 118.207 133.246L121.436 130.884C120.883 130.128 120.845 129.24 121.058 128.339C121.163 127.897 121.318 127.509 121.448 127.23C121.512 127.093 121.568 126.988 121.604 126.924C121.622 126.892 121.634 126.87 121.64 126.86C121.643 126.855 121.645 126.853 121.644 126.854C121.644 126.854 121.643 126.855 121.642 126.857C121.642 126.858 121.641 126.859 121.64 126.861C121.64 126.861 121.639 126.862 121.639 126.863C121.638 126.863 121.638 126.864 121.638 126.864C121.637 126.865 121.637 126.865 119.946 125.798ZM118.207 133.246C119.191 134.59 119.838 135.411 120.259 135.889L123.262 133.247C122.964 132.908 122.403 132.206 121.436 130.884L118.207 133.246ZM121.722 132.885C119.892 132.716 117.48 132.228 115.576 131.306C113.618 130.358 112.748 129.254 112.71 128.046L108.712 128.171C108.821 131.627 111.397 133.726 113.832 134.906C116.321 136.111 119.25 136.674 121.356 136.868L121.722 132.885ZM112.71 128.046C112.677 126.979 113.029 125.837 113.696 124.502C114.399 123.093 115.218 121.885 116.124 120.299C116.953 118.849 117.799 117.163 118.045 115.345C118.308 113.408 117.876 111.447 116.419 109.567L113.257 112.017C114.049 113.039 114.202 113.92 114.081 114.808C113.945 115.813 113.441 116.933 112.652 118.314C111.941 119.558 110.872 121.204 110.117 122.715C109.326 124.3 108.648 126.144 108.712 128.171L112.71 128.046ZM116.564 109.781C115.228 107.501 114.167 104.897 113.818 103.918L110.05 105.261C110.457 106.402 111.616 109.249 113.113 111.803L116.564 109.781ZM120.259 135.889C120.314 135.952 120.22 135.859 120.124 135.676C120.076 135.583 119.951 135.326 119.924 134.959C119.891 134.522 120.008 133.98 120.407 133.528C120.75 133.14 121.143 133.002 121.315 132.953C121.5 132.9 121.644 132.892 121.69 132.89C121.78 132.885 121.819 132.893 121.722 132.885L121.356 136.868C121.465 136.878 121.668 136.895 121.88 136.885C121.988 136.88 122.182 136.865 122.408 136.801C122.62 136.741 123.043 136.586 123.405 136.177C124.328 135.131 123.747 133.972 123.672 133.829C123.529 133.553 123.343 133.339 123.262 133.247L120.259 135.889Z" fill="#7831B2"/>
</svg>
