<svg width="195" height="188" viewBox="0 0 195 188" fill="none" xmlns="http://www.w3.org/2000/svg">
<path d="M16.134 34.4966C14.2483 36.8899 13.4733 40.0105 13.37 43.2621C13.213 48.2037 14.6071 53.4479 16.0114 56.901C23.3074 76.4674 39.8717 121.426 47.761 144.727C55.6503 168.029 71.4434 169.474 78.3538 167.283L174.706 141.506C185.442 138.634 189.925 132.835 191.266 127.01M16.134 34.4966C17.5181 32.7399 19.5008 31.3751 22.2555 30.6381L122.424 3.83989C129.42 1.96827 145.406 2.60987 153.385 20.1492C161.364 37.6885 180.981 89.9592 189.793 113.902C191.279 117.11 192.403 122.069 191.266 127.01M16.134 34.4966C16.134 34.4966 -1.03198 50.5421 2.47164 63.5973C5.97526 76.6526 39.5369 167.421 39.5369 167.421C41.9689 173.943 50.6633 186.783 65.9849 185.963C81.3064 185.143 141.863 167.712 170.226 159.1C176.212 157.277 188.802 148.308 191.266 127.01M17.4027 33.3745C15.517 35.7678 14.7421 38.8884 14.6387 42.14C14.4817 47.0816 15.8759 52.3258 17.2801 55.7789C24.5761 75.3454 41.1404 120.304 49.0297 143.605C56.919 166.907 72.7121 168.351 79.6225 166.161L175.975 140.384C186.711 137.512 191.194 131.713 192.535 125.888M17.4027 33.3745C18.7869 31.6178 20.7695 30.253 23.5242 29.516L123.693 2.71782C130.689 0.846201 146.675 1.4878 154.654 19.0271C162.633 36.5664 182.25 88.8371 191.061 112.78C192.548 115.988 193.672 120.947 192.535 125.888M17.4027 33.3745C17.4027 33.3745 0.23673 49.42 3.74035 62.4753C7.24396 75.5306 40.8056 166.299 40.8056 166.299C43.2376 172.821 51.932 185.66 67.2536 184.84C82.5752 184.02 143.132 166.59 171.494 157.977C177.481 156.155 190.071 147.186 192.535 125.888M151.17 74.0686C158.371 100.903 142.422 128.485 115.545 135.676C88.6692 142.866 61.0436 126.941 53.8422 100.107C46.6407 73.2724 62.5903 45.69 89.4666 38.4997C116.343 31.3095 143.968 47.2342 151.17 74.0686ZM150.242 73.5335C157.443 100.368 141.494 127.95 114.617 135.141C87.7411 142.331 60.1156 126.406 52.9141 99.5717C45.7126 72.7373 61.6622 45.1548 88.5386 37.9646C115.415 30.7743 143.04 46.6991 150.242 73.5335ZM75.3842 83.3637L102.036 73.6649C104.015 73.0828 107.978 72.6063 110.08 74.5428C110.608 75.0285 111.498 75.1562 111.973 74.619L118.705 66.9999C119.208 66.4305 120.138 66.6059 120.398 67.3193L129.503 92.2617C129.777 93.011 129.106 93.7632 128.329 93.5779L118.259 91.1767C117.482 90.9914 116.811 91.7436 117.084 92.4929L118.136 95.373C118.325 95.8923 118.057 96.4668 117.537 96.6561L88.307 107.293C88.0555 107.385 87.7777 107.372 87.5357 107.258L82.4777 104.873C82.2389 104.76 82.0543 104.558 81.9639 104.311L74.7856 84.6468C74.596 84.1275 74.864 83.553 75.3842 83.3637ZM75.8129 82.4449L102.87 72.5985C104.882 72.005 108.908 71.5084 111.026 73.4496C111.552 73.9318 112.436 74.0611 112.912 73.5292L119.808 65.8203C120.313 65.2559 121.238 65.4333 121.497 66.1442L130.612 91.1115C130.884 91.858 130.219 92.6087 129.443 92.4293L119.188 90.0561C118.413 89.8767 117.747 90.6274 118.02 91.3739L119.076 94.2679C119.266 94.7873 118.998 95.3617 118.478 95.551L88.7942 106.353C88.5451 106.444 88.2701 106.432 88.0295 106.321L82.9116 103.953C82.6697 103.841 82.4825 103.638 82.3912 103.388L75.2144 83.728C75.0248 83.2087 75.2928 82.6342 75.8129 82.4449Z" stroke="#7831B2" stroke-width="4"/>
</svg>
