<svg width="13" height="12" viewBox="0 0 13 12" fill="none" xmlns="http://www.w3.org/2000/svg">
<path d="M10.0316 3.01878C9.79244 2.77343 9.50853 2.5788 9.19605 2.44601C8.88357 2.31322 8.54864 2.24488 8.21039 2.24488C7.87215 2.24488 7.53721 2.31322 7.22473 2.44601C6.91225 2.5788 6.62834 2.77343 6.38922 3.01878C6.38922 3.01878 6.26515 3.14602 6.14109 3.27326C6.01702 3.40049 5.89296 3.52773 5.89296 3.52773L5.3967 3.01878M10.0316 3.01878C10.2708 3.26402 10.4606 3.55519 10.59 3.87566M10.0316 3.01878L11.2463 1.77367M5.3967 3.01878C4.9137 2.52342 4.2586 2.24513 3.57553 2.24513M5.3967 3.01878L6.60944 1.77367M3.57553 2.24513C2.89246 2.24513 2.23736 2.52342 1.75435 3.01878M3.57553 2.24513L4.78888 1M1.75435 3.01878C1.27135 3.51414 1 4.18599 1 4.88653M1.75435 3.01878L2.96833 1.77365M1 4.88653C1 5.58708 1.27135 6.25893 1.75435 6.75428M1 4.88653L2.21396 3.64142M1.75435 6.75428L5.89296 10.9987C5.89296 10.9987 6.92761 9.93763 7.96226 8.87651C8.99691 7.8154 10.0316 6.75428 10.0316 6.75428C10.2708 6.50905 10.4606 6.21788 10.59 5.8974C10.7195 5.57693 10.7862 5.23343 10.7862 4.88653C10.7862 4.53964 10.7195 4.19614 10.59 3.87566M1.75435 6.75428L2.96832 5.50853M1.75435 6.75428L5.89311 10.9972L7.10694 9.75235L2.96832 5.50853M10.59 3.87566L11.8048 2.63055M11.8048 2.63055C11.6753 2.31007 11.4855 2.0189 11.2463 1.77367M11.8048 2.63055C11.9343 2.95102 12 3.29476 12 3.64166C12 3.98855 11.9334 4.33205 11.8039 4.65253C11.6744 4.973 11.4846 5.26417 11.2454 5.50941L7.10679 9.75386L2.96832 5.50853M11.2463 1.77367C11.0072 1.52832 10.7224 1.33393 10.4099 1.20114C10.0974 1.06835 9.76247 1 9.42422 1C9.08598 1 8.75104 1.06835 8.43856 1.20114C8.12608 1.33393 7.84217 1.52855 7.60305 1.77391L7.10679 2.28286L6.61053 1.77391C6.12753 1.27855 5.47196 1 4.78888 1M9.42576 1C9.764 1 10.0989 1.06835 10.4114 1.20114L9.19759 2.44601C8.8851 2.31322 8.55017 2.24488 8.21193 2.24488M9.42576 1L8.21193 2.24488M9.42576 1C9.08751 1 8.75253 1.06835 8.44005 1.20114L7.22622 2.44601C7.5387 2.31322 7.87368 2.24488 8.21193 2.24488M11.999 3.64073C11.999 3.29383 11.9323 2.95033 11.8029 2.62986L10.589 3.87473C10.7185 4.19521 10.7852 4.5387 10.7852 4.8856M11.999 3.64073L10.7852 4.8856M11.999 3.64073C11.999 3.98762 11.9323 4.33117 11.8029 4.65165L10.589 5.89652C10.7185 5.57605 10.7852 5.2325 10.7852 4.8856M6.38888 3.0162L7.60186 1.7722C7.84097 1.52685 8.12489 1.33222 8.43737 1.19943L7.22354 2.44431C6.91143 2.57694 6.62782 2.77126 6.38888 3.0162ZM6.38888 3.0162L6.38802 3.01708M10.0333 6.75259C10.2722 6.50753 10.4616 6.21667 10.591 5.89658L11.8048 4.6517C11.6753 4.97218 11.4855 5.26335 11.2463 5.50859L10.0333 6.75259ZM10.0333 6.75259C10.0331 6.75288 10.0328 6.75317 10.0325 6.75346M10.0333 6.75259L7.96382 8.875M7.60188 1.77367L7.35375 2.02814M7.35375 2.02814L7.10565 2.28259M7.35375 2.02814L6.13992 3.27302M6.13992 3.27302L7.10565 2.28259M6.13992 3.27302L5.89181 3.52747M7.10565 2.28259L6.60944 1.77367M7.10565 2.28259L5.89181 3.52747M5.89181 3.52747L5.39561 3.01854L6.60944 1.77367M6.60944 1.77367C6.12643 1.27831 5.47196 1 4.78888 1M4.78888 1C4.10581 1 3.45134 1.27829 2.96833 1.77365M2.96833 1.77365C2.48533 2.26901 2.21396 2.94088 2.21396 3.64142M2.21396 3.64142C2.21396 4.34196 2.48531 5.01317 2.96832 5.50853M9.17495 7.6329L5.89181 11M11.247 1.7722C11.0079 1.52685 10.724 1.33222 10.4115 1.19943L9.19764 2.44431C9.51012 2.5771 9.79404 2.77173 10.0332 3.01708L11.247 1.7722Z" stroke="#E71985" stroke-width="2" stroke-linecap="round" stroke-linejoin="round"/>
</svg>
