<svg width="388" height="369" viewBox="0 0 388 369" fill="none" xmlns="http://www.w3.org/2000/svg">
<path d="M142.305 339.607C143.137 340.333 144.401 340.247 145.126 339.414C145.852 338.582 145.766 337.318 144.933 336.592L142.305 339.607ZM53.8608 22.4654L52.5852 20.925L52.5674 20.9397L52.55 20.9549L53.8608 22.4654ZM182.459 117.747L183.138 115.866L183.138 115.866L182.459 117.747ZM286.06 87.5781L288.038 87.8754L288.076 87.6215L288.049 87.3662L286.06 87.5781ZM304.384 76.6594L305.609 75.0782L305.609 75.0782L304.384 76.6594ZM352.997 113.79L351.016 113.514L352.997 113.79ZM319.646 136.088L318.237 137.508L318.936 138.201L319.911 138.071L319.646 136.088ZM141.453 339.445C142.331 340.114 143.586 339.945 144.256 339.066C144.925 338.188 144.756 336.933 143.877 336.263L141.453 339.445ZM51.1763 25.4604L49.9007 23.92L49.8829 23.9347L49.8654 23.9499L51.1763 25.4604ZM179.775 120.742L180.454 118.861L180.454 118.861L179.775 120.742ZM289.586 86.3861L291.564 86.6834L291.602 86.4296L291.575 86.1743L289.586 86.3861ZM307.91 75.4674L309.135 73.8863L309.135 73.8863L307.91 75.4674ZM356.523 112.598L354.543 112.322L356.523 112.598ZM323.173 134.896L321.764 136.316L322.462 137.009L323.437 136.879L323.173 134.896ZM144.933 336.592C103.754 300.686 50.894 248.636 23.5987 192.415C9.96435 164.332 2.77683 135.345 6.48849 106.883C10.1942 78.4666 24.7942 50.3383 55.1717 23.9759L52.55 20.9549C21.545 47.8619 6.37239 76.8406 2.52207 106.366C-1.32231 135.846 6.15071 165.636 20.0003 194.162C47.6729 251.16 101.074 303.656 142.305 339.607L144.933 336.592ZM55.1364 24.0058C85.1792 -0.871623 117.962 -0.402216 143.903 13.699C169.955 27.8605 189.089 55.7697 191.508 85.7282L195.495 85.4064C192.962 54.0291 172.987 24.9559 145.813 10.1847C118.528 -4.64686 83.9662 -5.06053 52.5852 20.925L55.1364 24.0058ZM191.714 86.4662C198.915 100.776 197.828 108.627 194.978 112.483C192.077 116.407 186.679 117.144 183.138 115.866L181.78 119.628C186.584 121.362 194.01 120.522 198.194 114.86C202.431 109.129 202.692 99.3847 195.288 84.6683L191.714 86.4662ZM183.138 115.866C181.008 115.097 179.614 114.109 178.724 113.06C177.844 112.021 177.371 110.825 177.229 109.48C176.934 106.701 178.058 103.263 180.139 99.7623C182.19 96.3104 185.012 93.0684 187.685 90.7627C189.022 89.6096 190.274 88.7324 191.325 88.1801C192.457 87.5859 193.061 87.5252 193.224 87.548L193.778 83.5866C192.331 83.3842 190.786 83.9453 189.466 84.6386C188.066 85.3738 186.561 86.4496 185.073 87.7338C182.094 90.3029 178.986 93.8726 176.7 97.7187C174.443 101.516 172.823 105.862 173.251 109.902C173.47 111.967 174.225 113.939 175.673 115.646C177.111 117.342 179.147 118.678 181.78 119.628L183.138 115.866ZM194.856 87.0385C243.603 42.1476 305.878 35.1351 345.223 59.198C364.853 71.2042 378.916 91.0034 382.871 117.998C386.834 145.04 380.667 179.446 359.491 220.545L363.047 222.377C384.475 180.789 390.948 145.529 386.829 117.418C382.703 89.2588 367.962 68.4169 347.31 55.7856C306.087 30.5737 241.875 38.3013 192.146 84.0961L194.856 87.0385ZM359.491 220.545C317.113 302.795 264.207 338.292 222.056 353.297C200.955 360.808 182.5 363.201 169.339 363.719C162.758 363.978 157.504 363.768 153.907 363.496C152.108 363.36 150.725 363.208 149.798 363.091C149.335 363.033 148.985 362.983 148.755 362.949C148.64 362.932 148.555 362.919 148.501 362.91C148.473 362.906 148.454 362.902 148.442 362.9C148.436 362.899 148.432 362.899 148.429 362.898C148.428 362.898 148.428 362.898 148.428 362.898C148.428 362.898 148.429 362.898 148.091 364.869C147.752 366.84 147.754 366.841 147.756 366.841C147.758 366.841 147.76 366.842 147.763 366.842C147.769 366.843 147.777 366.845 147.786 366.846C147.805 366.849 147.832 366.854 147.867 366.859C147.936 366.87 148.035 366.886 148.165 366.905C148.425 366.944 148.804 366.998 149.299 367.06C150.288 367.184 151.737 367.343 153.605 367.484C157.339 367.767 162.748 367.982 169.496 367.716C182.991 367.185 201.855 364.734 223.397 357.065C266.534 341.709 320.217 305.502 363.047 222.377L359.491 220.545ZM288.049 87.3662C287.819 85.2095 287.787 82.7319 288.104 80.4479C288.428 78.124 289.083 76.2215 290.049 75.0089C290.915 73.923 292.09 73.293 293.981 73.5164C296.042 73.76 299.026 75.0389 303.159 78.2406L305.609 75.0782C301.246 71.6994 297.57 69.9126 294.45 69.544C291.161 69.1554 288.634 70.367 286.922 72.5154C285.31 74.5372 284.509 77.2619 284.143 79.8969C283.771 82.5719 283.815 85.385 284.071 87.79L288.049 87.3662ZM303.159 78.2406C313.981 86.6222 327.165 91.5471 336.703 96.3607C341.579 98.8217 345.46 101.218 347.977 103.978C350.403 106.638 351.558 109.623 351.016 113.514L354.978 114.065C355.701 108.865 354.067 104.719 350.933 101.283C347.891 97.9476 343.443 95.2821 338.505 92.7897C328.413 87.6966 316.027 83.1477 305.609 75.0782L303.159 78.2406ZM351.016 113.514C350.139 119.825 345.085 124.63 338.483 128.11C331.94 131.559 324.348 133.443 319.382 134.106L319.911 138.071C325.219 137.362 333.29 135.369 340.349 131.649C347.348 127.959 353.833 122.301 354.978 114.065L351.016 113.514ZM321.055 134.669C315.171 128.828 306.444 119.411 299.402 110.169C295.878 105.544 292.818 101.015 290.744 97.035C288.613 92.9426 287.744 89.8314 288.038 87.8754L284.082 87.2808C283.582 90.6062 285.033 94.7283 287.197 98.883C289.419 103.15 292.631 107.882 296.22 112.593C303.405 122.023 312.265 131.579 318.237 137.508L321.055 134.669ZM143.877 336.263C105.048 306.675 51.7539 255.434 23.4662 198.462C9.33233 169.996 1.50705 140.233 4.71462 111.09C7.91627 82.0013 22.1326 53.3135 52.4871 26.9709L49.8654 23.9499C18.8375 50.8768 4.06245 80.4537 0.738632 110.653C-2.57926 140.798 5.53594 171.345 19.8835 200.241C48.5586 257.993 102.391 309.679 141.453 339.445L143.877 336.263ZM52.4518 27.0008C82.4947 2.12341 115.277 2.59281 141.218 16.694C167.271 30.8555 186.405 58.7648 188.823 88.7232L192.81 88.4014C190.277 57.0241 170.303 27.9509 143.129 13.1797C115.844 -1.65184 81.2816 -2.0655 49.9007 23.92L52.4518 27.0008ZM189.03 89.4612C196.23 103.771 195.143 111.622 192.293 115.478C189.392 119.402 183.994 120.139 180.454 118.861L179.096 122.623C183.9 124.357 191.325 123.517 195.51 117.855C199.746 112.124 200.008 102.38 192.603 87.6633L189.03 89.4612ZM180.454 118.861C178.323 118.092 176.93 117.104 176.04 116.055C175.159 115.016 174.687 113.82 174.544 112.475C174.25 109.696 175.373 106.258 177.454 102.757C179.505 99.3054 182.327 96.0634 185.001 93.7577C186.337 92.6046 187.589 91.7274 188.641 91.1751C189.773 90.5809 190.377 90.5202 190.539 90.543L191.093 86.5816C189.646 86.3792 188.102 86.9404 186.781 87.6336C185.381 88.3688 183.877 89.4446 182.388 90.7288C179.41 93.2979 176.301 96.8676 174.015 100.714C171.759 104.511 170.139 108.857 170.567 112.897C170.785 114.962 171.541 116.934 172.989 118.641C174.427 120.337 176.463 121.673 179.096 122.623L180.454 118.861ZM192.171 90.0335C240.933 45.1286 302.203 37.9005 341.029 61.8283C360.407 73.7704 374.356 93.5412 378.498 120.599C382.647 147.702 376.968 182.238 356.787 223.579L360.382 225.334C380.8 183.506 386.76 148.135 382.452 119.994C378.137 91.8082 363.533 70.998 343.128 58.423C302.389 33.3168 239.175 41.3104 189.462 87.0911L192.171 90.0335ZM356.787 223.579C316.414 306.283 263.976 341.205 221.8 355.533C200.681 362.708 182.081 364.737 168.775 364.975C162.123 365.094 156.798 364.766 153.148 364.409C151.323 364.231 149.918 364.047 148.975 363.907C148.504 363.838 148.148 363.78 147.914 363.74C147.797 363.72 147.71 363.704 147.654 363.694C147.627 363.689 147.606 363.685 147.594 363.683C147.588 363.682 147.584 363.681 147.582 363.681C147.58 363.68 147.58 363.68 147.58 363.68C147.58 363.68 147.581 363.681 147.201 365.644C146.822 367.608 146.824 367.608 146.826 367.609C146.828 367.609 146.83 367.609 146.833 367.61C146.839 367.611 146.847 367.613 146.856 367.614C146.875 367.618 146.903 367.623 146.938 367.629C147.008 367.642 147.109 367.66 147.24 367.683C147.504 367.728 147.889 367.791 148.391 367.865C149.395 368.013 150.866 368.206 152.76 368.391C156.546 368.76 162.026 369.097 168.847 368.974C182.488 368.73 201.509 366.651 223.086 359.321C266.301 344.639 319.555 308.967 360.382 225.334L356.787 223.579ZM291.575 86.1743C291.345 84.0176 291.313 81.54 291.631 79.256C291.954 76.932 292.609 75.0295 293.576 73.817C294.441 72.731 295.616 72.101 297.507 72.3245C299.569 72.568 302.552 73.8469 306.685 77.0486L309.135 73.8863C304.772 70.5075 301.096 68.7206 297.977 68.3521C294.687 67.9634 292.161 69.175 290.448 71.3235C288.836 73.3453 288.035 76.0699 287.669 78.705C287.297 81.3799 287.341 84.1931 287.597 86.598L291.575 86.1743ZM306.685 77.0486C317.507 85.4303 330.691 90.3551 340.229 95.1687C345.105 97.6297 348.986 100.026 351.503 102.786C353.929 105.446 355.084 108.431 354.543 112.322L358.504 112.873C359.228 107.673 357.593 103.527 354.459 100.091C351.417 96.7556 346.969 94.0901 342.031 91.5977C331.94 86.5046 319.553 81.9557 309.135 73.8863L306.685 77.0486ZM354.543 112.322C353.665 118.633 348.612 123.438 342.01 126.918C335.467 130.367 327.874 132.251 322.908 132.914L323.437 136.879C328.745 136.17 336.817 134.177 343.875 130.457C350.874 126.767 357.359 121.109 358.504 112.873L354.543 112.322ZM324.581 133.477C318.697 127.636 309.97 118.219 302.928 108.977C299.404 104.352 296.344 99.8233 294.271 95.8431C292.139 91.7507 291.27 88.6394 291.564 86.6834L287.608 86.0888C287.108 89.4143 288.559 93.5364 290.723 97.691C292.946 101.958 296.158 106.69 299.747 111.401C306.931 120.831 315.791 130.387 321.764 136.316L324.581 133.477Z" fill="#7831B2"/>
</svg>
