<svg width="182" height="212" viewBox="0 0 182 212" fill="none" xmlns="http://www.w3.org/2000/svg">
<path d="M179.781 44.8714C179.684 44.3569 179.363 43.7782 178.529 43.296C148.163 28.7658 117.894 13.046 86.3088 1.08832C85.41 0.831195 84.8321 1.15281 84.6395 1.82808C84.3505 1.98888 84.3505 1.98888 84.0616 2.14969C79.4386 6.42679 76.9982 13.276 78.3778 19.5138C78.3136 19.7389 78.4741 20.0282 78.6988 20.0925C78.2814 20.7035 78.2492 21.6682 79.0837 22.1504C105.019 36.874 132.56 49.3787 159.78 61.3047C151.913 79.5051 139.361 86.87 120.614 91.2453C110.213 93.626 101.385 98.1608 99.1365 109.447C96.8239 120.959 104.784 127.132 109.694 136.327C117.493 150.731 115.726 167.999 107.218 181.633C103.205 179.511 99.1287 177.615 95.5015 175.847C86.867 171.185 78.1683 166.749 69.7585 162.152C55.3783 154.63 41.287 146.946 26.8426 139.649C37.2126 126.304 51.0491 116.141 67.2605 111.284C76.0242 108.678 88.3187 109.031 94.4829 101.056C100.166 93.9166 96.6034 85.1067 92.2385 78.2583C86.6861 69.6094 81.005 63.1149 79.947 52.3433C79.2096 43.8546 81.4256 35.237 85.3106 27.5837C85.9849 26.0724 84.0911 25.0437 83.2563 26.2656C76.8352 35.141 74.4586 45.1735 76.1908 56.138C76.9285 61.2183 78.6935 66.1056 81.261 70.7355C86.2997 79.4809 101.706 93.627 84.7563 101.925C79.1063 104.691 72.0763 104.627 66.2338 106.364C60.3913 108.102 54.6451 110.353 49.4444 113.248C38.7543 119.197 29.8615 127.366 22.4451 137.174C20.9365 136.499 19.4921 135.599 18.2081 134.988C16.6995 134.313 15.2549 135.117 14.8695 136.467C6.49091 139.426 1.38594 147.948 2.28375 156.726C1.03181 156.855 0.453774 158.881 1.6735 159.717C16.9521 170.904 35.0558 179.005 51.715 187.91C67.7643 196.397 84.1025 204.723 101.308 210.862C102.881 211.312 103.812 210.605 104.357 209.544C111.067 205.62 115.722 198.674 116.494 190.86C116.526 189.896 115.98 189.253 115.306 189.06C115.788 188.224 115.595 187.195 114.825 186.487C114.054 185.78 113.059 185.009 112 184.462C118.389 174.847 121.376 163.528 120.061 151.953C119.709 147.226 118.554 142.757 116.66 138.32C113.932 131.696 108.091 126.617 105.652 119.832C96.7627 95.6212 129.312 97.3857 142.892 89.8278C153.068 83.9744 160.87 74.5201 163.632 63.1371C163.857 63.2013 164.081 63.2656 164.306 63.3299C164.755 63.4585 164.98 63.5228 165.365 63.8764C167.099 64.6158 168.64 62.622 168.415 60.8535C173.359 57.1552 178.271 52.7173 181 47.4114C180.358 46.254 180.101 45.4501 179.781 44.8714ZM111.454 190.636L111.678 190.7C110.394 196.906 107.729 201.987 103.17 206.039C103.01 205.749 102.785 205.685 102.336 205.557C83.8786 197.842 65.9033 189.291 48.1849 179.84C34.0294 172.381 19.7456 163.669 4.85165 157.948L4.91588 157.723C3.98586 149.909 8.545 142.449 16.0568 139.972C16.3457 139.811 16.3457 139.811 16.6347 139.65C32.9407 148.941 49.5998 157.846 66.259 166.751C74.2836 170.994 82.0836 175.173 90.1082 179.417C96.56 183.21 104.263 188.579 111.454 190.636ZM164.692 58.571C137.119 45.3267 109.321 32.0181 81.0742 20.2852C81.3631 20.1244 81.4915 19.6742 81.62 19.224C81.9095 13.9506 83.7077 9.35233 87.2392 5.49337C87.2392 5.49337 87.2392 5.49337 87.3034 5.26828C115.357 21.0849 145.563 33.6215 174.548 47.0264C171.241 50.9496 168.223 54.712 164.692 58.571Z" fill="#7831B2"/>
<path d="M105.292 150.894C101.441 142.245 95.2783 139.995 86.6756 137.777C76.9495 135.238 69.9205 126.654 59.552 126.366C51.3343 126.206 45.3309 131.062 43.1472 138.715C43.0188 139.165 43.1792 139.454 43.3397 139.744C42.9866 140.13 43.0186 140.869 43.6284 141.287C62.663 150.385 81.5049 160.157 99.5762 170.927C100.411 171.409 101.278 170.927 101.695 170.316C102.401 171.248 103.749 171.634 104.648 170.187C107.859 164.045 108.309 157.357 105.292 150.894ZM45.2657 139.808C50.082 129.743 62.7938 129.484 71.3641 134.371C74.7023 136.299 77.3343 139 80.8652 140.254C86.1294 142.247 90.9125 141.667 95.5667 144.946C103.495 150.38 105.612 159.994 101.406 168.772C101.406 168.772 101.406 168.772 101.342 168.997L101.182 168.708C82.8213 158.099 64.4287 148.455 45.2657 139.808Z" fill="#7831B2"/>
<path d="M124.118 73.0124C115.162 67.7723 105.051 63.1754 95.4216 59.4467C94.5228 59.1895 93.8808 59.7362 93.6881 60.4115C92.7573 59.4148 90.6706 60.7656 91.5371 61.9873C96.191 68.6749 99.5284 77.4205 106.815 81.6962C112.432 85.0074 120.714 84.9421 126.236 80.9221C130.024 77.867 127.681 75.0055 124.118 73.0124ZM121.774 78.6718C116.124 83.142 107.939 78.6092 104.055 74.3331C100.942 70.7644 98.4703 66.6489 95.6459 62.9193C100.621 65.0731 105.372 67.1625 110.283 69.5414C113.076 70.8272 116.029 72.4024 118.757 73.9133C121.1 75.0706 125.562 75.6167 121.774 78.6718Z" fill="#7831B2"/>
<path d="M179.781 44.8714C179.684 44.3569 179.363 43.7782 178.529 43.296C148.163 28.7658 117.894 13.046 86.3088 1.08832C85.41 0.831195 84.8321 1.15281 84.6395 1.82808C84.3505 1.98888 84.3505 1.98888 84.0616 2.14969C79.4386 6.42679 76.9982 13.276 78.3778 19.5138C78.3136 19.7389 78.4741 20.0282 78.6988 20.0925C78.2814 20.7035 78.2492 21.6682 79.0837 22.1504C105.019 36.874 132.56 49.3787 159.78 61.3047C151.913 79.5051 139.361 86.87 120.614 91.2453C110.213 93.626 101.385 98.1608 99.1365 109.447C96.8239 120.959 104.784 127.132 109.694 136.327C117.493 150.731 115.726 167.999 107.218 181.633C103.205 179.511 99.1287 177.615 95.5015 175.847C86.867 171.185 78.1683 166.749 69.7585 162.152C55.3783 154.63 41.287 146.946 26.8426 139.649C37.2126 126.304 51.0491 116.141 67.2605 111.284C76.0242 108.678 88.3187 109.031 94.4829 101.056C100.166 93.9166 96.6034 85.1067 92.2385 78.2583C86.6861 69.6094 81.005 63.1149 79.947 52.3433C79.2096 43.8546 81.4256 35.237 85.3106 27.5837C85.9849 26.0724 84.0911 25.0437 83.2563 26.2656C76.8352 35.141 74.4586 45.1735 76.1908 56.138C76.9285 61.2183 78.6935 66.1056 81.261 70.7355C86.2997 79.4809 101.706 93.627 84.7563 101.925C79.1063 104.691 72.0763 104.627 66.2338 106.364C60.3913 108.102 54.6451 110.353 49.4444 113.248C38.7543 119.197 29.8615 127.366 22.4451 137.174C20.9365 136.499 19.4921 135.599 18.2081 134.988C16.6995 134.313 15.2549 135.117 14.8695 136.467C6.49091 139.426 1.38594 147.948 2.28375 156.726C1.03181 156.855 0.453774 158.881 1.6735 159.717C16.9521 170.904 35.0558 179.005 51.715 187.91C67.7643 196.397 84.1025 204.723 101.308 210.862C102.881 211.312 103.812 210.605 104.357 209.544C111.067 205.62 115.722 198.674 116.494 190.86C116.526 189.896 115.98 189.253 115.306 189.06C115.788 188.224 115.595 187.195 114.825 186.487C114.054 185.78 113.059 185.009 112 184.462C118.389 174.847 121.376 163.528 120.061 151.953C119.709 147.226 118.554 142.757 116.66 138.32C113.932 131.696 108.091 126.617 105.652 119.832C96.7627 95.6212 129.312 97.3857 142.892 89.8278C153.068 83.9744 160.87 74.5201 163.632 63.1371C163.857 63.2013 164.081 63.2656 164.306 63.3299C164.755 63.4585 164.98 63.5228 165.365 63.8764C167.099 64.6158 168.64 62.622 168.415 60.8535C173.359 57.1552 178.271 52.7173 181 47.4114C180.358 46.254 180.101 45.4501 179.781 44.8714ZM111.454 190.636L111.678 190.7C110.394 196.906 107.729 201.987 103.17 206.039C103.01 205.749 102.785 205.685 102.336 205.557C83.8786 197.842 65.9033 189.291 48.1849 179.84C34.0294 172.381 19.7456 163.669 4.85165 157.948L4.91588 157.723C3.98586 149.909 8.545 142.449 16.0568 139.972C16.3457 139.811 16.3457 139.811 16.6347 139.65C32.9407 148.941 49.5998 157.846 66.259 166.751C74.2836 170.994 82.0836 175.173 90.1082 179.417C96.56 183.21 104.263 188.579 111.454 190.636ZM164.692 58.571C137.119 45.3267 109.321 32.0181 81.0742 20.2852C81.3631 20.1244 81.4915 19.6742 81.62 19.224C81.9095 13.9506 83.7077 9.35233 87.2392 5.49337C87.2392 5.49337 87.2392 5.49337 87.3034 5.26828C115.357 21.0849 145.563 33.6215 174.548 47.0264C171.241 50.9496 168.223 54.712 164.692 58.571Z" stroke="#7831B2"/>
<path d="M105.292 150.894C101.441 142.245 95.2783 139.995 86.6756 137.777C76.9495 135.238 69.9205 126.654 59.552 126.366C51.3343 126.206 45.3309 131.062 43.1472 138.715C43.0188 139.165 43.1792 139.454 43.3397 139.744C42.9866 140.13 43.0186 140.869 43.6284 141.287C62.663 150.385 81.5049 160.157 99.5762 170.927C100.411 171.409 101.278 170.927 101.695 170.316C102.401 171.248 103.749 171.634 104.648 170.187C107.859 164.045 108.309 157.357 105.292 150.894ZM45.2657 139.808C50.082 129.743 62.7938 129.484 71.3641 134.371C74.7023 136.299 77.3343 139 80.8652 140.254C86.1294 142.247 90.9125 141.667 95.5667 144.946C103.495 150.38 105.612 159.994 101.406 168.772C101.406 168.772 101.406 168.772 101.342 168.997L101.182 168.708C82.8213 158.099 64.4287 148.455 45.2657 139.808Z" stroke="#7831B2"/>
<path d="M124.118 73.0124C115.162 67.7723 105.051 63.1754 95.4216 59.4467C94.5228 59.1895 93.8808 59.7362 93.6881 60.4115C92.7573 59.4148 90.6706 60.7656 91.5371 61.9873C96.191 68.6749 99.5284 77.4205 106.815 81.6962C112.432 85.0074 120.714 84.9421 126.236 80.9221C130.024 77.867 127.681 75.0055 124.118 73.0124ZM121.774 78.6718C116.124 83.142 107.939 78.6092 104.055 74.3331C100.942 70.7644 98.4703 66.6489 95.6459 62.9193C100.621 65.0731 105.372 67.1625 110.283 69.5414C113.076 70.8272 116.029 72.4024 118.757 73.9133C121.1 75.0706 125.562 75.6167 121.774 78.6718Z" stroke="#7831B2"/>
</svg>
