<svg width="217" height="222" viewBox="0 0 217 222" fill="none" xmlns="http://www.w3.org/2000/svg">
<path d="M203.903 100.347C190.16 94.5149 162.054 78.4315 136.001 84.0737C163.944 77.7199 195.158 96.0691 208.78 102.801M27.9382 7.62179C27.9382 7.62179 15.0891 34.8484 16.0476 53.599C14.7296 34.2241 26.6976 2.05214 27.2083 5.77676M36.9478 185.64C48.8205 170.862 76.1871 133.013 90.671 99.8409M90.671 99.8409C105.155 66.6684 81.1683 36.5692 67.3645 25.6662C59.6005 20.1487 40.0962 8.15687 24.1907 4.32933M90.671 99.8409C76.1871 133.013 58.6235 151.902 23.4812 206.109M90.671 99.8409C105.155 66.6684 81.791 34.1821 67.9872 23.2791C60.2232 17.7617 43.8096 3.99666 22.9305 3M68.0625 133.319C50.6962 128.097 18.5091 110.417 7.25157 82.3804C-4.73903 52.5185 11.4146 22.5015 21.4389 3.68936M78.8393 136.005L159.652 117.29M72.0289 132.639L47.9536 78.326M29.166 208.821L49.4623 218.851C50.3691 219.299 51.4406 218.685 51.5235 217.676C53.5421 193.093 66.6006 124.166 100.011 97.2551L100.153 97.1412C118.631 82.2579 131.946 71.5334 156.698 72.4227C181.113 73.2999 204.769 90.8779 213.454 100.472M86.2698 142.318C98.1128 152.011 127.642 166.102 154.265 161.518C187.709 155.759 207.158 116.359 214 102.456M99.1897 129.536L101.317 117.473M128.948 126.093L146.27 135.315M57.2961 102.608L41.3793 93.683" stroke="#7831B2" stroke-width="5" stroke-linecap="round"/>
</svg>
