<svg width="645" height="273" viewBox="0 0 645 273" fill="none" xmlns="http://www.w3.org/2000/svg">
<path d="M49.7404 72.7934C63.4648 109.618 98.1873 182.87 127.282 181.279C156.376 179.687 225.528 157.7 256.468 146.906M50.094 74.9391C50.094 74.9391 89.806 181.907 127.635 183.424C165.464 184.942 224.72 154.237 255.659 143.442M82.6941 144.073C60.2998 160.225 13.3007 193.068 4.45912 195.221C13.3007 193.068 61.4399 163.124 83.8343 146.971M164.525 176.512C172.703 203.816 191.437 259.973 200.946 266.172M168.106 178.13C176.285 205.434 192.368 260.262 201.877 266.461M195.377 143.294L145.794 155.929M155.862 198.807L169.884 232.147M184.399 135.938L134.816 148.573M150.267 209.969L164.289 243.309M52.8276 70.6156C97.3595 74.8108 207.506 122.488 257.885 146.206C258.324 146.413 258.534 146.872 258.407 147.34C249.326 180.673 226.197 250.294 204.173 269.774C203.932 269.987 203.615 270.057 203.302 269.98C129.487 251.923 41.0497 213.13 5.20216 195.584C4.75953 195.367 4.5612 194.892 4.70802 194.422C16.7592 155.81 42.5673 78.8224 52.2053 70.7903C52.3902 70.6363 52.588 70.5931 52.8276 70.6156ZM50.3852 71.8975C94.9172 76.0927 205.063 123.77 255.443 147.488C255.882 147.695 256.092 148.154 255.965 148.622C246.883 181.955 223.755 251.576 201.731 271.056C201.489 271.269 201.173 271.339 200.86 271.262C127.045 253.204 38.6073 214.412 2.75979 196.866C2.31716 196.649 2.11883 196.174 2.26565 195.704C14.3168 157.092 40.1249 80.1043 49.7629 72.0722C49.9478 71.9181 50.1456 71.8749 50.3852 71.8975Z" stroke="#FFFCFF" stroke-width="3" stroke-linecap="round"/>
<path d="M374.527 142.479C373.675 142.622 373.577 143.606 374.089 144.048C373.961 144.333 374.033 144.761 374.346 145.061C381.614 150.265 388.371 156.083 395.34 161.601L396.149 160.674C390.031 154.485 383.09 149.138 376.021 144.076C394.116 140.692 412.297 137.293 430.477 133.895C439.653 132.181 448.828 130.468 458.004 128.754C466.753 127.112 475.574 125.898 484.138 123.671L484.665 124.727C485.233 124.455 485.801 124.184 486.283 123.927C486.681 123.685 486.609 123.257 486.311 123.043C486.793 122.786 486.664 122.016 485.968 122.045C476.493 123.017 467.049 125.215 457.703 126.957C448.527 128.671 439.352 130.384 430.176 132.098C411.655 135.553 393.048 139.023 374.527 142.479Z" fill="#FFFCFF"/>
<path d="M396.137 162.171C395.749 168.747 396.696 175.45 398.027 181.825C398.141 182.51 399.15 182.781 399.576 182.181C399.576 182.181 399.576 182.181 399.647 182.082C400.711 181.639 401.776 181.197 402.841 180.754L402.172 179.371C401.774 179.614 401.362 179.771 400.88 180.027C402.254 177.774 403.359 175.477 404.435 173.009L405.486 172.481C412.414 168.857 419.014 164.32 425.785 160.282C432.47 156.259 439.171 152.321 445.956 148.368C458.391 141.006 471.253 134.1 483.844 126.624L483.203 125.411C469.957 132.118 457.195 139.623 444.334 147.057C437.379 151.037 430.437 155.104 423.595 159.242C417.151 163.137 410.223 166.761 404.134 171.212C403.751 171.013 403.239 171.098 402.984 171.669C401.852 174.322 400.619 176.904 399.117 179.443C398.072 173.724 397.552 168.005 397.018 162.2L396.137 162.171Z" fill="#FFFCFF"/>
<path d="M395.269 161.701L395.824 162.399C395.895 162.3 395.98 162.285 396.051 162.185C396.051 162.185 396.051 162.185 396.066 162.271L397.032 162.285C411.912 155.921 426.806 149.642 441.686 143.277C456.069 137.084 470.624 131.39 484.665 124.727L484.138 123.671C469.626 129.094 455.385 135.615 441.059 141.623C426.164 147.902 411.27 154.181 396.305 160.559C396.219 160.574 396.063 160.688 396.078 160.773L395.269 161.701Z" fill="#FFFCFF"/>
<path d="M402.086 179.385L402.813 180.902C403.878 180.46 405.439 180.412 406.504 179.97C407.569 179.527 408.436 178.585 409.088 177.772C410.753 179.34 412.502 180.894 414.167 182.463C417.909 185.971 421.608 189.75 425.633 192.858C426.33 193.357 427.224 192.416 426.669 191.717C426.569 191.646 426.47 191.574 426.441 191.403C426.526 191.389 426.682 191.275 426.753 191.175C437.166 180.632 446.839 169.334 456.839 158.421C467.081 147.379 477.962 136.494 487.464 124.697C487.832 124.283 487.292 123.67 486.865 123.741C486.78 123.756 486.595 123.699 486.525 123.799C486.439 123.813 486.439 123.813 486.368 123.913C485.318 124.441 484.353 124.954 483.302 125.482L483.844 126.624C474.31 136.139 465.446 146.51 456.339 156.481C446.126 167.694 435.43 178.636 425.53 190.148C425.459 190.248 425.388 190.348 425.402 190.434C422.457 187.496 419.2 184.787 416.198 182.035C412.684 178.841 409.056 175.49 405.401 172.495L404.35 173.023C405.517 174.235 406.684 175.447 407.921 176.56C405.877 177.43 403.932 178.372 402.086 179.385Z" fill="#FFFCFF"/>
<path d="M414.393 172.821L425.921 183.155M387.654 146.867L397.063 155.176M484.138 123.671C475.574 125.898 466.753 127.112 458.004 128.754C448.828 130.468 439.653 132.181 430.477 133.895C412.297 137.293 394.116 140.692 376.021 144.076C383.09 149.138 390.031 154.485 396.149 160.674L395.34 161.601C388.371 156.083 381.614 150.265 374.346 145.061C374.033 144.761 373.961 144.333 374.089 144.048C373.577 143.606 373.675 142.622 374.527 142.479C393.048 139.023 411.655 135.553 430.176 132.098C439.352 130.384 448.527 128.671 457.703 126.957C467.049 125.215 476.493 123.017 485.968 122.045C486.664 122.016 486.793 122.786 486.311 123.043C486.609 123.257 486.681 123.685 486.283 123.927C485.801 124.184 485.233 124.455 484.665 124.727M484.138 123.671L484.665 124.727M484.138 123.671C469.626 129.094 455.385 135.615 441.059 141.623C426.164 147.902 411.27 154.181 396.305 160.559C396.219 160.574 396.063 160.688 396.078 160.773L395.269 161.701L395.824 162.399C395.895 162.3 395.98 162.285 396.051 162.185C396.051 162.185 396.051 162.185 396.066 162.271L397.032 162.285C411.912 155.921 426.806 149.642 441.686 143.277C456.069 137.084 470.624 131.39 484.665 124.727M483.844 126.624C471.253 134.1 458.391 141.006 445.956 148.368C439.171 152.321 432.47 156.259 425.785 160.282C419.014 164.32 412.414 168.857 405.486 172.481L404.435 173.009C403.359 175.477 402.254 177.774 400.88 180.027C401.362 179.771 401.774 179.614 402.172 179.371L402.841 180.754C401.776 181.197 400.711 181.639 399.647 182.082C399.576 182.181 399.576 182.181 399.576 182.181C399.15 182.781 398.141 182.51 398.027 181.825C396.696 175.45 395.749 168.747 396.137 162.171L397.018 162.2C397.552 168.005 398.072 173.724 399.117 179.443C400.619 176.904 401.852 174.322 402.984 171.669C403.239 171.098 403.751 171.013 404.134 171.212C410.223 166.761 417.151 163.137 423.595 159.242C430.437 155.104 437.379 151.037 444.334 147.057C457.195 139.623 469.957 132.118 483.203 125.411L483.844 126.624ZM483.844 126.624L483.302 125.482C484.353 124.954 485.318 124.441 486.368 123.913C486.439 123.813 486.439 123.813 486.525 123.799C486.595 123.699 486.78 123.756 486.865 123.741C487.292 123.67 487.832 124.283 487.464 124.697C477.962 136.494 467.081 147.379 456.839 158.421C446.839 169.334 437.166 180.632 426.753 191.175C426.682 191.275 426.526 191.389 426.441 191.403C426.47 191.574 426.569 191.646 426.669 191.717C427.224 192.416 426.33 193.357 425.633 192.858C421.608 189.75 417.909 185.971 414.167 182.463C412.502 180.894 410.753 179.34 409.088 177.772C408.436 178.585 407.569 179.527 406.504 179.97C405.439 180.412 403.878 180.46 402.813 180.902L402.086 179.385C403.932 178.372 405.877 177.43 407.921 176.56C406.684 175.447 405.517 174.235 404.35 173.023L405.401 172.495C409.056 175.49 412.684 178.841 416.198 182.035C419.2 184.787 422.457 187.496 425.402 190.434C425.388 190.348 425.459 190.248 425.53 190.148C435.43 178.636 446.126 167.694 456.339 156.481C465.446 146.51 474.31 136.139 483.844 126.624Z" stroke="#FFFCFF" stroke-width="3" stroke-linecap="round"/>
<path d="M576.371 15.6816C575.869 15.7759 575.822 16.3621 576.13 16.6191C576.058 16.7901 576.105 17.0437 576.293 17.2182C580.649 20.2311 584.709 23.6144 588.892 26.8172L589.359 26.257C585.672 22.6461 581.508 19.5447 577.272 16.6143C587.93 14.4012 598.637 12.1787 609.345 9.95615C614.749 8.83544 620.153 7.71473 625.557 6.59402C630.71 5.5205 635.91 4.70053 640.946 3.28148L641.27 3.90296C641.603 3.73548 641.935 3.56799 642.218 3.40994C642.45 3.26133 642.403 3.00778 642.224 2.88396C642.506 2.72591 642.421 2.26952 642.01 2.29431C636.42 2.9775 630.863 4.38951 625.358 5.5291C619.954 6.64981 614.55 7.77052 609.146 8.89123C598.238 11.1515 587.279 13.4213 576.371 15.6816Z" fill="#FFFCFF"/>
<path d="M589.37 27.1473C589.215 31.0603 588.988 36.0089 589.848 39.7839C589.923 40.1896 591.387 39.365 591.631 39.0041C591.631 39.0041 591.631 39.0041 591.672 38.944C592.296 38.6692 596.829 36.4167 597.454 36.1418L593.133 37.3046C592.901 37.4532 592.66 37.5511 592.377 37.7092C593.164 36.3541 593.791 34.9766 594.399 33.4977L595.014 33.1721C599.067 30.9406 602.917 28.1701 606.873 25.6944C610.779 23.2282 614.694 20.8127 618.66 18.3877C625.926 13.8728 633.449 9.62434 640.806 5.03981L640.414 4.32634C632.661 8.46039 625.203 13.0638 617.686 17.6259C613.62 20.0698 609.564 22.5643 605.567 25.1001C601.802 27.4873 597.748 29.7189 594.2 32.4327C593.971 32.3184 593.67 32.375 593.526 32.717C592.887 34.3068 592.188 35.8553 591.329 37.3814C590.645 33.9932 590.273 30.5991 589.891 27.1543L589.37 27.1473Z" fill="#FFFCFF"/>
<path d="M589.662 26.8817L589.999 27.2909C590.039 27.2308 590.09 27.2214 590.13 27.1612C590.13 27.1612 590.13 27.1612 590.14 27.2119L590.711 27.2095C599.434 23.2606 607.355 19.3579 616.078 15.4089C624.509 11.5673 633.047 8.02053 641.27 3.90296L640.946 3.28148C632.43 6.6667 624.088 10.7017 615.688 14.4324C606.956 18.3307 599.034 22.2334 590.261 26.1918C590.211 26.2012 590.12 26.2708 590.13 26.3215L589.662 26.8817Z" fill="#FFFCFF"/>
<path d="M593.083 37.3139L593.495 38.1288C594.119 37.854 594.734 37.5284 595.359 37.2536C595.785 36.7535 596.827 36.7676 597.204 36.277C598.205 37.1909 599.257 38.0954 600.259 39.0093C602.511 41.0529 604.741 43.2582 607.156 45.0612C607.574 45.3501 608.091 44.7804 607.755 44.3712C607.695 44.33 607.636 44.2887 607.617 44.1873C607.667 44.1778 607.758 44.1083 607.799 44.0481C613.833 37.6652 619.422 30.8412 625.208 24.2425C631.135 17.5647 637.443 10.9731 642.924 3.85427C643.138 3.60424 642.811 3.24574 642.56 3.29293C642.51 3.30237 642.4 3.27053 642.359 3.33068C642.309 3.34012 642.309 3.34012 642.268 3.40027C641.653 3.7258 641.088 4.0419 640.473 4.36743L640.806 5.03981C635.28 10.8024 630.159 17.0659 624.89 23.095C618.981 29.8742 612.784 36.4977 607.064 43.4514C607.023 43.5116 606.982 43.5717 606.992 43.6224C605.217 41.909 603.261 40.3347 601.455 38.7321C599.341 36.8724 597.159 34.9208 594.964 33.1814L594.349 33.5069C595.052 34.2145 595.756 34.922 596.5 35.5694C595.301 36.1096 594.163 36.6911 593.083 37.3139Z" fill="#FFFCFF"/>
<path d="M602.28 33.6224L607.016 37.9086M586.106 18.0551L590.842 22.3413M640.946 3.28148C635.91 4.70053 630.71 5.5205 625.557 6.59402C620.153 7.71473 614.749 8.83544 609.345 9.95615C598.637 12.1787 587.93 14.4012 577.272 16.6143C581.508 19.5447 585.672 22.6461 589.359 26.257L588.892 26.8172C584.709 23.6144 580.649 20.2311 576.293 17.2182C576.105 17.0437 576.058 16.7901 576.13 16.6191C575.822 16.3621 575.869 15.7759 576.371 15.6816C587.279 13.4213 598.238 11.1515 609.146 8.89123C614.55 7.77052 619.954 6.64981 625.358 5.5291C630.863 4.38951 636.42 2.9775 642.01 2.29431C642.421 2.26952 642.506 2.72591 642.224 2.88396C642.403 3.00778 642.45 3.26133 642.218 3.40994C641.935 3.56799 641.603 3.73548 641.27 3.90296M640.946 3.28148L641.27 3.90296M640.946 3.28148C632.43 6.6667 624.088 10.7017 615.688 14.4324C606.956 18.3307 599.034 22.2334 590.261 26.1918C590.211 26.2012 590.12 26.2708 590.13 26.3215L589.662 26.8817L589.999 27.2909C590.039 27.2308 590.09 27.2214 590.13 27.1612C590.13 27.1612 590.13 27.1612 590.14 27.2119L590.711 27.2095C599.434 23.2606 607.355 19.3579 616.078 15.4089C624.509 11.5673 633.047 8.02053 641.27 3.90296M640.806 5.03981C633.449 9.62434 625.926 13.8728 618.66 18.3877C614.694 20.8127 610.779 23.2282 606.873 25.6944C602.917 28.1701 599.067 30.9406 595.014 33.1721L594.399 33.4977C593.791 34.9766 593.164 36.3541 592.377 37.7092C592.66 37.5511 592.901 37.4532 593.133 37.3046L597.454 36.1418C596.829 36.4167 592.296 38.6692 591.672 38.944C591.631 39.0041 591.631 39.0041 591.631 39.0041C591.387 39.365 589.923 40.1896 589.848 39.7839C588.988 36.0089 589.215 31.0603 589.37 27.1473L589.891 27.1543C590.273 30.5991 590.645 33.9932 591.329 37.3814C592.188 35.8553 592.887 34.3068 593.526 32.717C593.67 32.375 593.971 32.3184 594.2 32.4327C597.748 29.7189 601.802 27.4873 605.567 25.1001C609.564 22.5643 613.62 20.0698 617.686 17.6259C625.203 13.0638 632.661 8.46039 640.414 4.32634L640.806 5.03981ZM640.806 5.03981L640.473 4.36743C641.088 4.0419 641.653 3.7258 642.268 3.40027C642.309 3.34012 642.309 3.34012 642.359 3.33068C642.4 3.27053 642.51 3.30237 642.56 3.29293C642.811 3.24574 643.138 3.60424 642.924 3.85427C637.443 10.9731 631.135 17.5647 625.208 24.2425C619.422 30.8412 613.833 37.6652 607.799 44.0481C607.758 44.1083 607.667 44.1778 607.617 44.1873C607.636 44.2887 607.695 44.33 607.755 44.3712C608.091 44.7804 607.574 45.3501 607.156 45.0612C604.741 43.2582 602.511 41.0529 600.259 39.0093C599.257 38.0954 598.205 37.1909 597.204 36.277C596.827 36.7676 595.785 36.7535 595.359 37.2536C594.734 37.5284 594.119 37.854 593.495 38.1288L593.083 37.3139C594.163 36.6911 595.301 36.1096 596.5 35.5694C595.756 34.922 595.052 34.2145 594.349 33.5069L594.964 33.1814C597.159 34.9208 599.341 36.8724 601.455 38.7321C603.261 40.3347 605.217 41.909 606.992 43.6224C606.982 43.5717 607.023 43.5116 607.064 43.4514C612.784 36.4977 618.981 29.8742 624.89 23.095C630.159 17.0659 635.28 10.8024 640.806 5.03981Z" stroke="#FFFCFF" stroke-width="3" stroke-linecap="round"/>
</svg>
