<svg width="223" height="166" viewBox="0 0 223 166" fill="none" xmlns="http://www.w3.org/2000/svg">
<mask id="path-1-inside-1_4_4694" fill="white">
<path fill-rule="evenodd" clip-rule="evenodd" d="M1.98769 107.196C13.8322 102.906 26.9848 101.278 39.5619 100.917C41.1735 100.85 41.6833 102.962 40.7086 103.956C41.0876 106.144 41.4683 108.332 41.849 110.519L41.8507 110.529C44.5241 125.888 47.1956 141.237 49.2499 156.611C49.3545 157.172 49.1019 157.684 48.6953 157.991C48.933 158.644 48.631 159.513 47.6428 159.813L47.5307 159.834C47.4321 160.549 46.8431 161.123 46.0866 160.799C45.964 160.763 45.8362 160.7 45.7084 160.636C45.5806 160.573 45.4527 160.51 45.3302 160.474C41.2829 161.475 37.0672 162.21 32.9011 162.936C31.2457 163.224 29.5982 163.511 27.9722 163.813C26.8032 164.03 25.5755 164.317 24.3161 164.611C20.2608 165.557 15.877 166.581 12.0659 165.604C11.3019 165.862 10.5664 165.651 10.378 164.64C7.52695 146.238 4.6056 128.081 0.0726789 109.99C-0.227819 109.001 0.45238 108.294 1.2163 108.036C1.37775 107.657 1.56013 107.391 1.98769 107.196ZM38.2868 109.633C37.9729 107.949 37.6798 106.377 37.4989 104.785C34.8783 105.039 32.2576 105.293 29.6579 105.659L27.0372 105.914C26.0177 106.045 24.9753 106.209 23.9329 106.374C22.8906 106.538 21.8482 106.703 20.8287 106.834L18.5862 107.25L18.2766 107.293C16.0135 107.602 13.8449 107.898 11.5928 108.316L9.1964 108.529C8.24337 108.706 7.31313 108.849 6.38289 108.993C5.45265 109.137 4.52242 109.28 3.56938 109.457C3.76523 109.886 3.82802 110.222 3.89081 110.559L4.33782 112.335L5.86724 118.671L6.16027 120.243C6.67007 122.355 7.20081 124.579 7.59849 126.712L7.89152 128.284C8.3804 130.283 8.75715 132.304 9.1339 134.325L10.7037 142.744C10.8028 143.581 10.9239 144.387 11.0429 145.178C11.1663 145.998 11.2874 146.803 11.3795 147.613L11.4976 148.869C11.5567 149.497 11.649 150.147 11.7413 150.798C11.8336 151.449 11.9259 152.099 11.985 152.727L12.278 154.299C12.5083 155.534 12.6054 156.677 12.7026 157.821L12.8133 159.658C12.8402 161.047 12.9792 162.415 13.1183 163.783C14.5833 162.93 16.3354 162.373 18.2415 162.019L21.2688 161.457C21.9415 161.332 22.5915 161.24 23.2414 161.149C23.8913 161.057 24.5412 160.966 25.214 160.841L28.1501 160.412L31.8501 159.725L35.1928 158.988L40.3504 158.031L44.3165 157.527C44.9893 157.402 45.6829 157.389 46.2645 157.397L44.4016 147.406L44.0114 144.691L42.7974 138.18L42.491 135.914C42.1979 134.342 41.9258 132.883 41.7449 131.291L41.2007 128.372C41.1086 127.561 40.9875 126.756 40.8642 125.936C40.7452 125.145 40.6241 124.34 40.5249 123.503L40.1691 121.595C40.0199 120.794 39.8943 119.959 39.7711 119.14C39.6523 118.35 39.5357 117.575 39.4021 116.859L39.1794 115.042C39.0747 114.481 38.9981 113.914 38.9215 113.348C38.8449 112.781 38.7682 112.215 38.6636 111.653L38.2868 109.633Z"/>
<path fill-rule="evenodd" clip-rule="evenodd" d="M2.73495 106.101C14.5795 101.812 27.7321 100.183 40.3092 99.8226C41.9208 99.7557 42.4306 101.868 41.4559 102.862C41.8348 105.05 42.2156 107.237 42.5963 109.424L42.598 109.434C45.2714 124.793 47.9428 140.142 49.9971 155.516C50.1018 156.077 49.8492 156.589 49.4425 156.897C49.6802 157.55 49.3783 158.419 48.3901 158.718L48.278 158.739C48.1793 159.454 47.5903 160.028 46.8339 159.704C46.7113 159.669 46.5835 159.605 46.4556 159.542C46.3278 159.478 46.2 159.415 46.0774 159.38C42.0301 160.381 37.8144 161.115 33.6483 161.841C31.993 162.129 30.3455 162.417 28.7195 162.718C27.5504 162.935 26.3227 163.222 25.0633 163.516C21.008 164.463 16.6242 165.486 12.8131 164.51C12.0492 164.768 11.3137 164.556 11.1253 163.546C8.27421 145.143 5.35286 126.986 0.819936 108.896C0.519438 107.906 1.19964 107.199 1.96356 106.941C2.12501 106.563 2.30739 106.297 2.73495 106.101ZM39.0341 108.538C38.7201 106.854 38.4271 105.282 38.2462 103.69C35.6255 103.944 33.0049 104.198 30.4051 104.565L27.7845 104.819C26.7649 104.95 25.7226 105.115 24.6802 105.279C23.6378 105.444 22.5955 105.608 21.5759 105.739L19.3335 106.156L19.0239 106.198C16.7608 106.507 14.5921 106.804 12.3401 107.222L9.94366 107.434C8.99062 107.611 8.06039 107.755 7.13015 107.899C6.19991 108.042 5.26968 108.186 4.31664 108.363C4.51248 108.791 4.57528 109.128 4.63807 109.465L5.08508 111.24L6.6145 117.576L6.90753 119.148C7.41733 121.26 7.94807 123.484 8.34575 125.617L8.63878 127.189C9.12765 129.189 9.5044 131.21 9.88116 133.23L11.451 141.65C11.5501 142.487 11.6712 143.292 11.7902 144.083C11.9136 144.903 12.0347 145.708 12.1267 146.519L12.2449 147.774C12.3039 148.402 12.3962 149.053 12.4885 149.703C12.5809 150.354 12.6732 151.005 12.7323 151.633L13.0253 153.204C13.2555 154.439 13.3527 155.583 13.4499 156.726L13.5605 158.564C13.5875 159.953 13.7265 161.32 13.8656 162.688C15.3306 161.836 17.0827 161.278 18.9888 160.924L22.016 160.362C22.6888 160.237 23.3387 160.146 23.9886 160.054C24.6386 159.963 25.2885 159.871 25.9612 159.746L28.8973 159.317L32.5973 158.63L35.9401 157.894L41.0977 156.936L45.0638 156.432C45.7365 156.307 46.4302 156.295 47.0117 156.303L45.1489 146.312L44.7587 143.597L43.5447 137.085L43.2382 134.819C42.9452 133.248 42.6731 131.788 42.4922 130.196L41.948 127.277C41.8559 126.467 41.7348 125.662 41.6114 124.842C41.4924 124.051 41.3713 123.246 41.2722 122.408L40.9164 120.5C40.7671 119.7 40.6416 118.865 40.5183 118.045C40.3995 117.256 40.2829 116.48 40.1494 115.764L39.9266 113.947C39.822 113.386 39.7454 112.819 39.6687 112.253C39.5921 111.686 39.5155 111.12 39.4108 110.559L39.0341 108.538Z"/>
<path fill-rule="evenodd" clip-rule="evenodd" d="M151.022 52.0171C150.972 52.1478 150.914 52.2698 150.845 52.3807C151.463 55.8518 152.083 59.3225 152.703 62.7929L152.706 62.8084C157.058 87.1786 161.407 111.532 165.126 135.861C165.292 136.752 165.087 137.528 164.702 137.968C153.587 140.462 130.671 145.577 127.927 146.086C127.17 146.411 126.394 146.002 126.095 144.398C121.241 115.236 116.341 86.4514 109.795 57.6038C109.383 56.0204 110.007 54.9824 110.764 54.6575C144.956 47.1621 151.826 49.5915 151.022 52.0171ZM148.956 61.031C148.458 58.357 147.992 55.8613 147.64 53.3446C144.978 53.4699 142.317 53.5951 139.689 53.8986L137.027 54.0238C135.995 54.1232 134.943 54.2724 133.891 54.4216C132.839 54.5707 131.787 54.7199 130.755 54.8193L128.498 55.2382L128.185 55.2723C125.896 55.5212 123.703 55.7596 121.437 56.1804L119.001 56.2637C118.042 56.4417 117.103 56.57 116.164 56.6982C115.224 56.8264 114.285 56.9547 113.326 57.1327C113.572 57.8248 113.672 58.3596 113.771 58.8944L114.416 61.7257L116.649 71.8239L117.114 74.3196C117.859 77.6857 118.636 81.2301 119.268 84.6171L119.733 87.1128C120.444 90.3006 121.042 93.5094 121.641 96.7181L124.133 110.088C124.323 111.411 124.532 112.687 124.737 113.94C124.949 115.239 125.158 116.514 125.337 117.795L125.59 119.777C125.716 120.768 125.879 121.798 126.042 122.829C126.205 123.859 126.368 124.889 126.494 125.88L126.96 128.376C127.325 130.337 127.545 132.14 127.764 133.944L128.07 136.838C128.244 139.019 128.53 141.179 128.816 143.339C130.229 142.155 131.968 141.463 133.886 141.107L136.932 140.541C137.609 140.416 138.266 140.34 138.923 140.264C139.58 140.188 140.237 140.112 140.914 139.986L143.881 139.62L147.604 138.929L150.956 138.122L156.146 137.159L160.162 136.782C160.839 136.656 161.549 136.709 162.146 136.783L159.188 120.917L158.503 116.618L156.575 106.278L156.024 102.692C155.558 100.197 155.126 97.8791 154.774 95.3624L153.909 90.7276C153.73 89.4468 153.521 88.1714 153.309 86.8725C153.104 85.6191 152.895 84.3437 152.706 83.0203L152.141 79.9898C151.904 78.7188 151.688 77.3962 151.475 76.0981C151.271 74.8472 151.07 73.619 150.858 72.4818L150.439 69.6086C150.273 68.7173 150.135 67.8207 149.997 66.9242C149.859 66.0276 149.721 65.131 149.555 64.2397L148.956 61.031Z"/>
<path fill-rule="evenodd" clip-rule="evenodd" d="M149.93 51.264C149.88 51.3947 149.822 51.5166 149.754 51.6275C150.372 55.0986 150.992 58.5693 151.611 62.0397L151.614 62.0553C155.966 86.4254 160.315 110.779 164.034 135.107C164.2 135.999 163.995 136.775 163.61 137.215C152.495 139.709 129.579 144.824 126.835 145.333C126.079 145.658 125.302 145.249 125.003 143.644C120.149 114.483 115.249 85.6983 108.704 56.8506C108.292 55.2672 108.915 54.2292 109.672 53.9044C143.864 46.409 150.734 48.8383 149.93 51.264ZM147.864 60.2778C147.366 57.6038 146.901 55.1081 146.548 52.5915C143.887 52.7167 141.225 52.8419 138.597 53.1454L135.935 53.2706C134.903 53.37 133.851 53.5192 132.799 53.6684C131.747 53.8176 130.695 53.9668 129.663 54.0661L127.407 54.4851L127.094 54.5191C124.805 54.768 122.611 55.0065 120.345 55.4272L117.909 55.5105C116.95 55.6886 116.011 55.8168 115.072 55.945C114.133 56.0733 113.193 56.2015 112.234 56.3795C112.48 57.0717 112.58 57.6065 112.68 58.1412L113.324 60.9725L115.557 71.0708L116.023 73.5665C116.767 76.9325 117.544 80.4769 118.176 83.8639L118.641 86.3596C119.352 89.5474 119.951 92.7562 120.549 95.9649L123.042 109.335C123.231 110.658 123.44 111.934 123.645 113.187C123.857 114.486 124.066 115.761 124.245 117.042L124.498 119.024C124.624 120.015 124.787 121.045 124.95 122.075C125.113 123.106 125.276 124.136 125.402 125.127L125.868 127.622C126.233 129.583 126.453 131.387 126.672 133.191L126.979 136.085C127.152 138.266 127.438 140.426 127.724 142.586C129.137 141.401 130.876 140.71 132.794 140.354L135.84 139.788C136.517 139.662 137.174 139.587 137.832 139.511C138.489 139.435 139.146 139.359 139.823 139.233L142.789 138.867L146.513 138.176L149.864 137.369L155.054 136.406L159.07 136.029C159.747 135.903 160.457 135.956 161.054 136.029L158.096 120.164L157.411 115.865L155.484 105.525L154.932 101.939C154.466 99.4434 154.034 97.1259 153.682 94.6093L152.818 89.9744C152.638 88.6936 152.43 87.4182 152.217 86.1193C152.012 84.8659 151.804 83.5905 151.614 82.2671L151.049 79.2366C150.812 77.9657 150.596 76.643 150.383 75.3449C150.179 74.094 149.978 72.8658 149.766 71.7286L149.347 68.8554C149.181 67.9641 149.043 67.0675 148.905 66.171C148.767 65.2744 148.629 64.3779 148.463 63.4865L147.864 60.2778Z"/>
<path fill-rule="evenodd" clip-rule="evenodd" d="M91.4829 71.4173C92.359 71.1385 93.3397 71.421 93.549 72.5436C94.9645 79.4442 96.2134 86.4117 97.4616 93.3752C98.4598 98.9442 99.4576 104.511 100.54 110.038C101.197 113.563 101.892 117.089 102.588 120.62C104.331 129.46 106.079 138.325 107.244 147.238C107.306 147.575 107.348 147.799 107.278 148.045C107.229 148.402 107.046 148.668 106.619 148.864C102.259 150.808 97.2163 151.57 92.3953 152.299C91.2956 152.465 90.2073 152.629 89.1412 152.806C82.6382 154.013 76.2054 154.975 69.5558 155.396C68.7984 155.219 68.3771 154.011 68.2611 153.43C67.4643 151.022 66.8005 148.707 66.1158 146.279L65.8362 145.401C63.6983 137.668 62.1001 129.718 60.5019 121.769L60.2014 120.779L59.3433 116.176C58.8716 113.647 58.3799 111.111 57.8875 108.571C56.6538 102.208 55.4153 95.821 54.4739 89.4378L54.2855 88.4275C53.9162 85.8247 53.5679 83.3341 53.3107 80.7105L53.0596 79.3634C53.0072 79.0827 52.9882 78.825 52.9691 78.5672C52.95 78.3094 52.931 78.0516 52.8786 77.7709C52.8443 76.9643 53.3211 76.4112 53.8608 76.1949C53.9311 75.9495 54.0223 75.8165 54.2465 75.7748C65.5723 71.8139 77.9535 71.0253 89.7742 70.3407C90.5799 70.3073 91.1331 70.7853 91.4829 71.4173ZM90.6263 73.6669L90.5142 73.6877C88.6784 73.7962 86.9756 73.9962 85.2729 74.1962L80.9495 74.6503C78.4619 74.996 75.8412 75.2502 73.4448 75.4628L69.8359 76.0167C66.7877 76.4664 63.7186 76.8039 60.6285 77.0291L58.8136 77.2499C57.7836 77.3249 56.8657 77.3792 55.8147 77.342L56.4636 80.8221L56.6654 82.5268L58.0678 90.0482L58.452 91.4868C58.7585 93.7528 59.1771 95.998 59.7497 98.4469L59.8185 100.06L61.1162 107.02L61.2552 108.388L62.5948 115.573C63.1046 117.685 63.5232 119.93 63.9418 122.175L64.2977 124.084C64.5735 125.252 64.8265 126.454 65.0796 127.655C65.3326 128.857 65.5856 130.058 65.8615 131.227L66.2457 132.665C66.4655 133.844 66.7133 135.018 66.9611 136.191C67.2089 137.365 67.4567 138.538 67.6764 139.717L67.9695 141.289C68.3956 142.952 68.7304 144.748 69.0444 146.432L69.2253 148.024L70.1044 152.739C72.438 152.19 74.7926 151.753 77.035 151.336L80.2865 150.733C82.4169 150.337 84.5472 149.942 86.6984 149.658L89.929 148.943C92.599 148.331 95.3811 147.698 98.1842 147.178L100.427 146.761C101.66 146.533 102.914 146.416 104.077 146.432C103.875 145.657 103.705 144.904 103.536 144.152C103.367 143.399 103.197 142.647 102.995 141.871L102.744 140.524C102.566 139.57 102.365 138.649 102.164 137.728C101.964 136.807 101.763 135.886 101.585 134.932L100.845 131.585L99.6729 125.298L99.3455 122.92L98.2571 117.083L97.825 114.143L96.318 106.06L95.9547 104.734L92.8988 88.344C92.7389 86.8638 92.4458 85.2921 92.1528 83.7205L91.9091 81.7913C91.8044 81.23 91.7226 80.6354 91.6407 80.0408C91.5589 79.4462 91.477 78.8517 91.3724 78.2904L91.0584 76.6065C90.9822 75.5753 90.8147 74.6772 90.6263 73.6669Z"/>
<path fill-rule="evenodd" clip-rule="evenodd" d="M92.2302 70.3227C93.1062 70.0439 94.0869 70.3264 94.2962 71.449C95.7117 78.3497 96.9607 85.3171 98.2089 92.2807C99.2071 97.8496 100.205 103.416 101.287 108.944C101.944 112.468 102.639 115.995 103.336 119.525C105.079 128.365 106.826 137.23 107.991 146.144C108.054 146.48 108.096 146.705 108.025 146.95C107.976 147.308 107.794 147.574 107.366 147.769C103.006 149.714 97.9636 150.476 93.1426 151.204C92.0428 151.37 90.9545 151.535 89.8885 151.711C83.3854 152.918 76.9526 153.88 70.303 154.302C69.5456 154.124 69.1243 152.917 69.0084 152.335C68.2115 149.928 67.5478 147.612 66.863 145.184L66.5835 144.307C64.4456 136.573 62.8474 128.624 61.2492 120.674L60.9487 119.685L60.0905 115.082C59.6188 112.552 59.1272 110.016 58.6348 107.477C57.4011 101.114 56.1626 94.7264 55.2212 88.3432L55.0328 87.3329C54.6635 84.7301 54.3151 82.2395 54.058 79.6159L53.8068 78.2688C53.7545 77.9882 53.7354 77.7304 53.7164 77.4726C53.6973 77.2148 53.6782 76.957 53.6259 76.6764C53.5915 75.8697 54.0684 75.3166 54.6081 75.1003C54.6783 74.8549 54.7695 74.7219 54.9938 74.6802C66.3195 70.7193 78.7008 69.9307 90.5214 69.2461C91.3272 69.2127 91.8803 69.6907 92.2302 70.3227ZM91.3736 72.5723L91.2615 72.5931C89.4257 72.7016 87.7229 72.9016 86.0201 73.1016L81.6967 73.5558C79.2091 73.9014 76.5885 74.1557 74.192 74.3682L70.5832 74.9221C67.535 75.3718 64.4658 75.7093 61.3758 75.9345L59.5609 76.1553C58.5309 76.2304 57.613 76.2846 56.562 76.2474L57.2108 79.7275L57.4127 81.4322L58.815 88.9536L59.1993 90.3922C59.5058 92.6582 59.9244 94.9034 60.497 97.3523L60.5658 98.9656L61.8635 105.926L62.0025 107.294L63.3421 114.478C63.8519 116.59 64.2705 118.836 64.6891 121.081L65.0449 122.989C65.3208 124.158 65.5738 125.359 65.8268 126.561C66.0799 127.762 66.3329 128.964 66.6087 130.132L66.993 131.571C67.2127 132.75 67.4605 133.923 67.7083 135.097C67.9561 136.27 68.2039 137.444 68.4237 138.622L68.7167 140.194C69.1428 141.857 69.4777 143.653 69.7917 145.337L69.9726 146.93L70.8517 151.645C73.1853 151.095 75.5398 150.658 77.7823 150.242L81.0338 149.638C83.1641 149.243 85.2944 148.847 87.4457 148.564L90.6763 147.848C93.3463 147.236 96.1284 146.604 98.9314 146.083L101.174 145.667C102.407 145.438 103.661 145.321 104.825 145.338C104.622 144.562 104.453 143.81 104.283 143.057C104.114 142.305 103.945 141.552 103.742 140.777L103.491 139.429C103.313 138.475 103.112 137.554 102.912 136.633C102.711 135.712 102.51 134.791 102.332 133.837L101.592 130.49L100.42 124.204L100.093 121.825L99.0043 115.988L98.5723 113.048L97.0653 104.966L96.702 103.639L93.6461 87.2494C93.4861 85.7692 93.1931 84.1975 92.9 82.6259L92.6563 80.6967C92.5517 80.1354 92.4698 79.5408 92.388 78.9462C92.3061 78.3517 92.2243 77.7571 92.1196 77.1958L91.8057 75.5119C91.7294 74.4807 91.562 73.5827 91.3736 72.5723Z"/>
<path fill-rule="evenodd" clip-rule="evenodd" d="M198.035 0.851145C198.899 0.500478 199.934 1.06951 200.277 2.90892C202.517 14.2305 204.594 25.6411 206.67 37.0454L206.67 37.0464C208.331 46.1663 209.99 55.2822 211.732 64.3452C212.808 70.1195 213.924 75.902 215.041 81.6908L215.041 81.6918C217.839 96.1873 220.644 110.723 222.859 125.271C222.962 125.823 223.03 126.191 222.987 126.58C222.986 126.604 222.986 126.628 222.985 126.651C222.242 127.948 186.74 135.038 184.396 133.04C184.056 132.301 183.816 131.385 183.708 130.827C182.616 126.843 181.672 123.022 180.693 119.017L180.306 117.566C177.232 104.815 174.684 91.7761 172.137 78.7371L171.716 77.1025L170.31 69.5609C169.537 65.4155 168.743 61.2586 167.948 57.0952C165.956 46.6642 163.956 36.1928 162.26 25.7621L161.951 24.1066C161.275 19.8552 160.633 15.7876 160.068 11.5153L159.657 9.308C159.571 8.84814 159.522 8.42907 159.473 8.00999C159.451 7.8247 159.442 7.76812 159.426 7.666C159.405 7.53716 159.373 7.33582 159.289 6.71198C157.57 3.72254 191.576 0.844996 198.035 0.851145ZM197.417 4.39132L197.305 4.41216C195.44 4.37774 193.722 4.50642 192.004 4.6351L187.635 4.87522C185.131 5.14978 182.48 5.26124 180.054 5.33101L176.427 5.81399C173.429 6.18449 170.808 6.67116 167.522 7.28133L167.301 7.32233L165.47 7.47184C164.426 7.47546 163.493 7.45826 162.414 7.27795L163.305 12.0562L163.707 14.8362L166.005 27.1602L166.563 29.5306C167.137 33.2303 167.823 36.9091 168.69 40.935L168.945 43.5518L171.072 54.9562L171.371 57.1843L173.566 68.9565C174.33 72.4306 175.015 76.1094 175.701 79.7882L176.284 82.9152C176.701 84.8362 177.097 86.8083 177.494 88.7805C177.891 90.7526 178.288 92.7248 178.704 94.6457L179.262 97.0161C179.622 98.9475 180.01 100.874 180.398 102.8C180.787 104.726 181.175 106.652 181.535 108.584L182.015 111.159C182.642 113.897 183.19 116.84 183.705 119.599L184.073 122.195L185.858 131.768C188.181 131.147 190.538 130.709 192.784 130.292L196.039 129.688C198.172 129.292 200.305 128.896 202.472 128.684L205.694 127.896C208.354 127.212 211.126 126.507 213.932 125.986L216.178 125.569C217.413 125.34 218.682 125.294 219.873 125.454C219.577 124.177 218.973 121.092 218.713 119.856C218.454 118.62 218.194 117.383 217.898 116.106L217.486 113.899C217.195 112.335 216.884 110.823 216.573 109.311C216.262 107.798 215.951 106.286 215.659 104.723L214.518 99.2251L212.598 88.9245L211.99 85.0408L210.206 75.4759L209.427 70.6726L206.958 57.4289L206.434 55.2424L201.427 28.387C201.093 25.9749 200.613 23.3998 200.133 20.8246L199.662 17.6768C199.491 16.7571 199.339 15.7862 199.187 14.8153C199.035 13.8444 198.883 12.8735 198.711 11.9538L198.197 9.19464C198 7.51833 197.726 6.04679 197.417 4.39132Z"/>
<path fill-rule="evenodd" clip-rule="evenodd" d="M196.943 0.0979723C197.807 -0.252695 198.842 0.316333 199.185 2.15574C201.425 13.4774 203.502 24.888 205.578 36.2922L205.579 36.2932C207.239 45.4131 208.898 54.529 210.64 63.592C211.716 69.3663 212.832 75.1488 213.95 80.9377L213.95 80.9386C216.747 95.4342 219.553 109.97 221.767 124.518C221.87 125.07 221.939 125.438 221.895 125.827C221.894 125.851 221.894 125.874 221.893 125.898C221.15 127.194 185.648 134.285 183.304 132.287C182.964 131.548 182.724 130.632 182.616 130.074C181.524 126.09 180.58 122.268 179.601 118.263L179.214 116.813C176.14 104.062 173.593 91.0229 171.045 77.984L170.624 76.3493L169.218 68.8077C168.445 64.6624 167.651 60.5054 166.856 56.342C164.864 45.911 162.864 35.4396 161.168 25.0089L160.86 23.3535C160.183 19.102 159.541 15.0345 158.977 10.7621L158.565 8.55482C158.479 8.09497 158.43 7.67589 158.381 7.25682C158.359 7.07153 158.35 7.01494 158.334 6.91283C158.313 6.78398 158.281 6.58265 158.197 5.95881C156.478 2.96937 190.484 0.0918229 196.943 0.0979723ZM196.325 3.63815L196.213 3.65899C194.348 3.62456 192.63 3.75325 190.912 3.88192L186.543 4.12205C184.039 4.39661 181.388 4.50806 178.962 4.57784L175.336 5.06081C172.337 5.43131 169.716 5.91799 166.43 6.52816L166.209 6.56916L164.378 6.71866C163.334 6.72229 162.401 6.70509 161.322 6.52477L162.213 11.3031L162.616 14.083L164.913 26.4071L165.471 28.7775C166.045 32.4771 166.731 36.1559 167.598 40.1818L167.853 42.7987L169.98 54.203L170.279 56.4311L172.474 68.2034C173.238 71.6774 173.924 75.3562 174.61 79.035L175.193 82.162C175.609 84.083 176.006 86.0551 176.402 88.0273C176.799 89.9995 177.196 91.9716 177.612 93.8926L178.17 96.263C178.53 98.1944 178.918 100.121 179.307 102.047C179.695 103.973 180.083 105.899 180.443 107.83L180.923 110.406C181.55 113.144 182.099 116.087 182.613 118.846L182.981 121.442L184.766 131.015C187.089 130.394 189.447 129.956 191.692 129.539L194.947 128.935C197.08 128.539 199.213 128.143 201.381 127.931L204.602 127.143C207.262 126.458 210.034 125.753 212.841 125.232L215.086 124.816C216.321 124.586 217.59 124.541 218.781 124.701C218.485 123.423 217.881 120.339 217.621 119.103C217.362 117.866 217.102 116.63 216.806 115.353L216.394 113.146C216.103 111.582 215.792 110.07 215.481 108.557C215.17 107.045 214.859 105.533 214.567 103.969L213.426 98.472L211.506 88.1713L210.898 84.2877L209.114 74.7228L208.335 69.9194L205.866 56.6757L205.342 54.4892L200.335 27.6338C200.001 25.2218 199.521 22.6466 199.041 20.0714L198.57 16.9236C198.399 16.0039 198.247 15.033 198.095 14.0621C197.943 13.0912 197.791 12.1203 197.619 11.2006L197.105 8.44147C196.908 6.76516 196.634 5.29362 196.325 3.63815Z"/>
</mask>
<path fill-rule="evenodd" clip-rule="evenodd" d="M1.98769 107.196C13.8322 102.906 26.9848 101.278 39.5619 100.917C41.1735 100.85 41.6833 102.962 40.7086 103.956C41.0876 106.144 41.4683 108.332 41.849 110.519L41.8507 110.529C44.5241 125.888 47.1956 141.237 49.2499 156.611C49.3545 157.172 49.1019 157.684 48.6953 157.991C48.933 158.644 48.631 159.513 47.6428 159.813L47.5307 159.834C47.4321 160.549 46.8431 161.123 46.0866 160.799C45.964 160.763 45.8362 160.7 45.7084 160.636C45.5806 160.573 45.4527 160.51 45.3302 160.474C41.2829 161.475 37.0672 162.21 32.9011 162.936C31.2457 163.224 29.5982 163.511 27.9722 163.813C26.8032 164.03 25.5755 164.317 24.3161 164.611C20.2608 165.557 15.877 166.581 12.0659 165.604C11.3019 165.862 10.5664 165.651 10.378 164.64C7.52695 146.238 4.6056 128.081 0.0726789 109.99C-0.227819 109.001 0.45238 108.294 1.2163 108.036C1.37775 107.657 1.56013 107.391 1.98769 107.196ZM38.2868 109.633C37.9729 107.949 37.6798 106.377 37.4989 104.785C34.8783 105.039 32.2576 105.293 29.6579 105.659L27.0372 105.914C26.0177 106.045 24.9753 106.209 23.9329 106.374C22.8906 106.538 21.8482 106.703 20.8287 106.834L18.5862 107.25L18.2766 107.293C16.0135 107.602 13.8449 107.898 11.5928 108.316L9.1964 108.529C8.24337 108.706 7.31313 108.849 6.38289 108.993C5.45265 109.137 4.52242 109.28 3.56938 109.457C3.76523 109.886 3.82802 110.222 3.89081 110.559L4.33782 112.335L5.86724 118.671L6.16027 120.243C6.67007 122.355 7.20081 124.579 7.59849 126.712L7.89152 128.284C8.3804 130.283 8.75715 132.304 9.1339 134.325L10.7037 142.744C10.8028 143.581 10.9239 144.387 11.0429 145.178C11.1663 145.998 11.2874 146.803 11.3795 147.613L11.4976 148.869C11.5567 149.497 11.649 150.147 11.7413 150.798C11.8336 151.449 11.9259 152.099 11.985 152.727L12.278 154.299C12.5083 155.534 12.6054 156.677 12.7026 157.821L12.8133 159.658C12.8402 161.047 12.9792 162.415 13.1183 163.783C14.5833 162.93 16.3354 162.373 18.2415 162.019L21.2688 161.457C21.9415 161.332 22.5915 161.24 23.2414 161.149C23.8913 161.057 24.5412 160.966 25.214 160.841L28.1501 160.412L31.8501 159.725L35.1928 158.988L40.3504 158.031L44.3165 157.527C44.9893 157.402 45.6829 157.389 46.2645 157.397L44.4016 147.406L44.0114 144.691L42.7974 138.18L42.491 135.914C42.1979 134.342 41.9258 132.883 41.7449 131.291L41.2007 128.372C41.1086 127.561 40.9875 126.756 40.8642 125.936C40.7452 125.145 40.6241 124.34 40.5249 123.503L40.1691 121.595C40.0199 120.794 39.8943 119.959 39.7711 119.14C39.6523 118.35 39.5357 117.575 39.4021 116.859L39.1794 115.042C39.0747 114.481 38.9981 113.914 38.9215 113.348C38.8449 112.781 38.7682 112.215 38.6636 111.653L38.2868 109.633Z" fill="#7831B2"/>
<path fill-rule="evenodd" clip-rule="evenodd" d="M2.73495 106.101C14.5795 101.812 27.7321 100.183 40.3092 99.8226C41.9208 99.7557 42.4306 101.868 41.4559 102.862C41.8348 105.05 42.2156 107.237 42.5963 109.424L42.598 109.434C45.2714 124.793 47.9428 140.142 49.9971 155.516C50.1018 156.077 49.8492 156.589 49.4425 156.897C49.6802 157.55 49.3783 158.419 48.3901 158.718L48.278 158.739C48.1793 159.454 47.5903 160.028 46.8339 159.704C46.7113 159.669 46.5835 159.605 46.4556 159.542C46.3278 159.478 46.2 159.415 46.0774 159.38C42.0301 160.381 37.8144 161.115 33.6483 161.841C31.993 162.129 30.3455 162.417 28.7195 162.718C27.5504 162.935 26.3227 163.222 25.0633 163.516C21.008 164.463 16.6242 165.486 12.8131 164.51C12.0492 164.768 11.3137 164.556 11.1253 163.546C8.27421 145.143 5.35286 126.986 0.819936 108.896C0.519438 107.906 1.19964 107.199 1.96356 106.941C2.12501 106.563 2.30739 106.297 2.73495 106.101ZM39.0341 108.538C38.7201 106.854 38.4271 105.282 38.2462 103.69C35.6255 103.944 33.0049 104.198 30.4051 104.565L27.7845 104.819C26.7649 104.95 25.7226 105.115 24.6802 105.279C23.6378 105.444 22.5955 105.608 21.5759 105.739L19.3335 106.156L19.0239 106.198C16.7608 106.507 14.5921 106.804 12.3401 107.222L9.94366 107.434C8.99062 107.611 8.06039 107.755 7.13015 107.899C6.19991 108.042 5.26968 108.186 4.31664 108.363C4.51248 108.791 4.57528 109.128 4.63807 109.465L5.08508 111.24L6.6145 117.576L6.90753 119.148C7.41733 121.26 7.94807 123.484 8.34575 125.617L8.63878 127.189C9.12765 129.189 9.5044 131.21 9.88116 133.23L11.451 141.65C11.5501 142.487 11.6712 143.292 11.7902 144.083C11.9136 144.903 12.0347 145.708 12.1267 146.519L12.2449 147.774C12.3039 148.402 12.3962 149.053 12.4885 149.703C12.5809 150.354 12.6732 151.005 12.7323 151.633L13.0253 153.204C13.2555 154.439 13.3527 155.583 13.4499 156.726L13.5605 158.564C13.5875 159.953 13.7265 161.32 13.8656 162.688C15.3306 161.836 17.0827 161.278 18.9888 160.924L22.016 160.362C22.6888 160.237 23.3387 160.146 23.9886 160.054C24.6386 159.963 25.2885 159.871 25.9612 159.746L28.8973 159.317L32.5973 158.63L35.9401 157.894L41.0977 156.936L45.0638 156.432C45.7365 156.307 46.4302 156.295 47.0117 156.303L45.1489 146.312L44.7587 143.597L43.5447 137.085L43.2382 134.819C42.9452 133.248 42.6731 131.788 42.4922 130.196L41.948 127.277C41.8559 126.467 41.7348 125.662 41.6114 124.842C41.4924 124.051 41.3713 123.246 41.2722 122.408L40.9164 120.5C40.7671 119.7 40.6416 118.865 40.5183 118.045C40.3995 117.256 40.2829 116.48 40.1494 115.764L39.9266 113.947C39.822 113.386 39.7454 112.819 39.6687 112.253C39.5921 111.686 39.5155 111.12 39.4108 110.559L39.0341 108.538Z" fill="#7831B2"/>
<path fill-rule="evenodd" clip-rule="evenodd" d="M151.022 52.0171C150.972 52.1478 150.914 52.2698 150.845 52.3807C151.463 55.8518 152.083 59.3225 152.703 62.7929L152.706 62.8084C157.058 87.1786 161.407 111.532 165.126 135.861C165.292 136.752 165.087 137.528 164.702 137.968C153.587 140.462 130.671 145.577 127.927 146.086C127.17 146.411 126.394 146.002 126.095 144.398C121.241 115.236 116.341 86.4514 109.795 57.6038C109.383 56.0204 110.007 54.9824 110.764 54.6575C144.956 47.1621 151.826 49.5915 151.022 52.0171ZM148.956 61.031C148.458 58.357 147.992 55.8613 147.64 53.3446C144.978 53.4699 142.317 53.5951 139.689 53.8986L137.027 54.0238C135.995 54.1232 134.943 54.2724 133.891 54.4216C132.839 54.5707 131.787 54.7199 130.755 54.8193L128.498 55.2382L128.185 55.2723C125.896 55.5212 123.703 55.7596 121.437 56.1804L119.001 56.2637C118.042 56.4417 117.103 56.57 116.164 56.6982C115.224 56.8264 114.285 56.9547 113.326 57.1327C113.572 57.8248 113.672 58.3596 113.771 58.8944L114.416 61.7257L116.649 71.8239L117.114 74.3196C117.859 77.6857 118.636 81.2301 119.268 84.6171L119.733 87.1128C120.444 90.3006 121.042 93.5094 121.641 96.7181L124.133 110.088C124.323 111.411 124.532 112.687 124.737 113.94C124.949 115.239 125.158 116.514 125.337 117.795L125.59 119.777C125.716 120.768 125.879 121.798 126.042 122.829C126.205 123.859 126.368 124.889 126.494 125.88L126.96 128.376C127.325 130.337 127.545 132.14 127.764 133.944L128.07 136.838C128.244 139.019 128.53 141.179 128.816 143.339C130.229 142.155 131.968 141.463 133.886 141.107L136.932 140.541C137.609 140.416 138.266 140.34 138.923 140.264C139.58 140.188 140.237 140.112 140.914 139.986L143.881 139.62L147.604 138.929L150.956 138.122L156.146 137.159L160.162 136.782C160.839 136.656 161.549 136.709 162.146 136.783L159.188 120.917L158.503 116.618L156.575 106.278L156.024 102.692C155.558 100.197 155.126 97.8791 154.774 95.3624L153.909 90.7276C153.73 89.4468 153.521 88.1714 153.309 86.8725C153.104 85.6191 152.895 84.3437 152.706 83.0203L152.141 79.9898C151.904 78.7188 151.688 77.3962 151.475 76.0981C151.271 74.8472 151.07 73.619 150.858 72.4818L150.439 69.6086C150.273 68.7173 150.135 67.8207 149.997 66.9242C149.859 66.0276 149.721 65.131 149.555 64.2397L148.956 61.031Z" fill="#7831B2"/>
<path fill-rule="evenodd" clip-rule="evenodd" d="M149.93 51.264C149.88 51.3947 149.822 51.5166 149.754 51.6275C150.372 55.0986 150.992 58.5693 151.611 62.0397L151.614 62.0553C155.966 86.4254 160.315 110.779 164.034 135.107C164.2 135.999 163.995 136.775 163.61 137.215C152.495 139.709 129.579 144.824 126.835 145.333C126.079 145.658 125.302 145.249 125.003 143.644C120.149 114.483 115.249 85.6983 108.704 56.8506C108.292 55.2672 108.915 54.2292 109.672 53.9044C143.864 46.409 150.734 48.8383 149.93 51.264ZM147.864 60.2778C147.366 57.6038 146.901 55.1081 146.548 52.5915C143.887 52.7167 141.225 52.8419 138.597 53.1454L135.935 53.2706C134.903 53.37 133.851 53.5192 132.799 53.6684C131.747 53.8176 130.695 53.9668 129.663 54.0661L127.407 54.4851L127.094 54.5191C124.805 54.768 122.611 55.0065 120.345 55.4272L117.909 55.5105C116.95 55.6886 116.011 55.8168 115.072 55.945C114.133 56.0733 113.193 56.2015 112.234 56.3795C112.48 57.0717 112.58 57.6065 112.68 58.1412L113.324 60.9725L115.557 71.0708L116.023 73.5665C116.767 76.9325 117.544 80.4769 118.176 83.8639L118.641 86.3596C119.352 89.5474 119.951 92.7562 120.549 95.9649L123.042 109.335C123.231 110.658 123.44 111.934 123.645 113.187C123.857 114.486 124.066 115.761 124.245 117.042L124.498 119.024C124.624 120.015 124.787 121.045 124.95 122.075C125.113 123.106 125.276 124.136 125.402 125.127L125.868 127.622C126.233 129.583 126.453 131.387 126.672 133.191L126.979 136.085C127.152 138.266 127.438 140.426 127.724 142.586C129.137 141.401 130.876 140.71 132.794 140.354L135.84 139.788C136.517 139.662 137.174 139.587 137.832 139.511C138.489 139.435 139.146 139.359 139.823 139.233L142.789 138.867L146.513 138.176L149.864 137.369L155.054 136.406L159.07 136.029C159.747 135.903 160.457 135.956 161.054 136.029L158.096 120.164L157.411 115.865L155.484 105.525L154.932 101.939C154.466 99.4434 154.034 97.1259 153.682 94.6093L152.818 89.9744C152.638 88.6936 152.43 87.4182 152.217 86.1193C152.012 84.8659 151.804 83.5905 151.614 82.2671L151.049 79.2366C150.812 77.9657 150.596 76.643 150.383 75.3449C150.179 74.094 149.978 72.8658 149.766 71.7286L149.347 68.8554C149.181 67.9641 149.043 67.0675 148.905 66.171C148.767 65.2744 148.629 64.3779 148.463 63.4865L147.864 60.2778Z" fill="#7831B2"/>
<path fill-rule="evenodd" clip-rule="evenodd" d="M91.4829 71.4173C92.359 71.1385 93.3397 71.421 93.549 72.5436C94.9645 79.4442 96.2134 86.4117 97.4616 93.3752C98.4598 98.9442 99.4576 104.511 100.54 110.038C101.197 113.563 101.892 117.089 102.588 120.62C104.331 129.46 106.079 138.325 107.244 147.238C107.306 147.575 107.348 147.799 107.278 148.045C107.229 148.402 107.046 148.668 106.619 148.864C102.259 150.808 97.2163 151.57 92.3953 152.299C91.2956 152.465 90.2073 152.629 89.1412 152.806C82.6382 154.013 76.2054 154.975 69.5558 155.396C68.7984 155.219 68.3771 154.011 68.2611 153.43C67.4643 151.022 66.8005 148.707 66.1158 146.279L65.8362 145.401C63.6983 137.668 62.1001 129.718 60.5019 121.769L60.2014 120.779L59.3433 116.176C58.8716 113.647 58.3799 111.111 57.8875 108.571C56.6538 102.208 55.4153 95.821 54.4739 89.4378L54.2855 88.4275C53.9162 85.8247 53.5679 83.3341 53.3107 80.7105L53.0596 79.3634C53.0072 79.0827 52.9882 78.825 52.9691 78.5672C52.95 78.3094 52.931 78.0516 52.8786 77.7709C52.8443 76.9643 53.3211 76.4112 53.8608 76.1949C53.9311 75.9495 54.0223 75.8165 54.2465 75.7748C65.5723 71.8139 77.9535 71.0253 89.7742 70.3407C90.5799 70.3073 91.1331 70.7853 91.4829 71.4173ZM90.6263 73.6669L90.5142 73.6877C88.6784 73.7962 86.9756 73.9962 85.2729 74.1962L80.9495 74.6503C78.4619 74.996 75.8412 75.2502 73.4448 75.4628L69.8359 76.0167C66.7877 76.4664 63.7186 76.8039 60.6285 77.0291L58.8136 77.2499C57.7836 77.3249 56.8657 77.3792 55.8147 77.342L56.4636 80.8221L56.6654 82.5268L58.0678 90.0482L58.452 91.4868C58.7585 93.7528 59.1771 95.998 59.7497 98.4469L59.8185 100.06L61.1162 107.02L61.2552 108.388L62.5948 115.573C63.1046 117.685 63.5232 119.93 63.9418 122.175L64.2977 124.084C64.5735 125.252 64.8265 126.454 65.0796 127.655C65.3326 128.857 65.5856 130.058 65.8615 131.227L66.2457 132.665C66.4655 133.844 66.7133 135.018 66.9611 136.191C67.2089 137.365 67.4567 138.538 67.6764 139.717L67.9695 141.289C68.3956 142.952 68.7304 144.748 69.0444 146.432L69.2253 148.024L70.1044 152.739C72.438 152.19 74.7926 151.753 77.035 151.336L80.2865 150.733C82.4169 150.337 84.5472 149.942 86.6984 149.658L89.929 148.943C92.599 148.331 95.3811 147.698 98.1842 147.178L100.427 146.761C101.66 146.533 102.914 146.416 104.077 146.432C103.875 145.657 103.705 144.904 103.536 144.152C103.367 143.399 103.197 142.647 102.995 141.871L102.744 140.524C102.566 139.57 102.365 138.649 102.164 137.728C101.964 136.807 101.763 135.886 101.585 134.932L100.845 131.585L99.6729 125.298L99.3455 122.92L98.2571 117.083L97.825 114.143L96.318 106.06L95.9547 104.734L92.8988 88.344C92.7389 86.8638 92.4458 85.2921 92.1528 83.7205L91.9091 81.7913C91.8044 81.23 91.7226 80.6354 91.6407 80.0408C91.5589 79.4462 91.477 78.8517 91.3724 78.2904L91.0584 76.6065C90.9822 75.5753 90.8147 74.6772 90.6263 73.6669Z" fill="#7831B2"/>
<path fill-rule="evenodd" clip-rule="evenodd" d="M92.2302 70.3227C93.1062 70.0439 94.0869 70.3264 94.2962 71.449C95.7117 78.3497 96.9607 85.3171 98.2089 92.2807C99.2071 97.8496 100.205 103.416 101.287 108.944C101.944 112.468 102.639 115.995 103.336 119.525C105.079 128.365 106.826 137.23 107.991 146.144C108.054 146.48 108.096 146.705 108.025 146.95C107.976 147.308 107.794 147.574 107.366 147.769C103.006 149.714 97.9636 150.476 93.1426 151.204C92.0428 151.37 90.9545 151.535 89.8885 151.711C83.3854 152.918 76.9526 153.88 70.303 154.302C69.5456 154.124 69.1243 152.917 69.0084 152.335C68.2115 149.928 67.5478 147.612 66.863 145.184L66.5835 144.307C64.4456 136.573 62.8474 128.624 61.2492 120.674L60.9487 119.685L60.0905 115.082C59.6188 112.552 59.1272 110.016 58.6348 107.477C57.4011 101.114 56.1626 94.7264 55.2212 88.3432L55.0328 87.3329C54.6635 84.7301 54.3151 82.2395 54.058 79.6159L53.8068 78.2688C53.7545 77.9882 53.7354 77.7304 53.7164 77.4726C53.6973 77.2148 53.6782 76.957 53.6259 76.6764C53.5915 75.8697 54.0684 75.3166 54.6081 75.1003C54.6783 74.8549 54.7695 74.7219 54.9938 74.6802C66.3195 70.7193 78.7008 69.9307 90.5214 69.2461C91.3272 69.2127 91.8803 69.6907 92.2302 70.3227ZM91.3736 72.5723L91.2615 72.5931C89.4257 72.7016 87.7229 72.9016 86.0201 73.1016L81.6967 73.5558C79.2091 73.9014 76.5885 74.1557 74.192 74.3682L70.5832 74.9221C67.535 75.3718 64.4658 75.7093 61.3758 75.9345L59.5609 76.1553C58.5309 76.2304 57.613 76.2846 56.562 76.2474L57.2108 79.7275L57.4127 81.4322L58.815 88.9536L59.1993 90.3922C59.5058 92.6582 59.9244 94.9034 60.497 97.3523L60.5658 98.9656L61.8635 105.926L62.0025 107.294L63.3421 114.478C63.8519 116.59 64.2705 118.836 64.6891 121.081L65.0449 122.989C65.3208 124.158 65.5738 125.359 65.8268 126.561C66.0799 127.762 66.3329 128.964 66.6087 130.132L66.993 131.571C67.2127 132.75 67.4605 133.923 67.7083 135.097C67.9561 136.27 68.2039 137.444 68.4237 138.622L68.7167 140.194C69.1428 141.857 69.4777 143.653 69.7917 145.337L69.9726 146.93L70.8517 151.645C73.1853 151.095 75.5398 150.658 77.7823 150.242L81.0338 149.638C83.1641 149.243 85.2944 148.847 87.4457 148.564L90.6763 147.848C93.3463 147.236 96.1284 146.604 98.9314 146.083L101.174 145.667C102.407 145.438 103.661 145.321 104.825 145.338C104.622 144.562 104.453 143.81 104.283 143.057C104.114 142.305 103.945 141.552 103.742 140.777L103.491 139.429C103.313 138.475 103.112 137.554 102.912 136.633C102.711 135.712 102.51 134.791 102.332 133.837L101.592 130.49L100.42 124.204L100.093 121.825L99.0043 115.988L98.5723 113.048L97.0653 104.966L96.702 103.639L93.6461 87.2494C93.4861 85.7692 93.1931 84.1975 92.9 82.6259L92.6563 80.6967C92.5517 80.1354 92.4698 79.5408 92.388 78.9462C92.3061 78.3517 92.2243 77.7571 92.1196 77.1958L91.8057 75.5119C91.7294 74.4807 91.562 73.5827 91.3736 72.5723Z" fill="#7831B2"/>
<path fill-rule="evenodd" clip-rule="evenodd" d="M198.035 0.851145C198.899 0.500478 199.934 1.06951 200.277 2.90892C202.517 14.2305 204.594 25.6411 206.67 37.0454L206.67 37.0464C208.331 46.1663 209.99 55.2822 211.732 64.3452C212.808 70.1195 213.924 75.902 215.041 81.6908L215.041 81.6918C217.839 96.1873 220.644 110.723 222.859 125.271C222.962 125.823 223.03 126.191 222.987 126.58C222.986 126.604 222.986 126.628 222.985 126.651C222.242 127.948 186.74 135.038 184.396 133.04C184.056 132.301 183.816 131.385 183.708 130.827C182.616 126.843 181.672 123.022 180.693 119.017L180.306 117.566C177.232 104.815 174.684 91.7761 172.137 78.7371L171.716 77.1025L170.31 69.5609C169.537 65.4155 168.743 61.2586 167.948 57.0952C165.956 46.6642 163.956 36.1928 162.26 25.7621L161.951 24.1066C161.275 19.8552 160.633 15.7876 160.068 11.5153L159.657 9.308C159.571 8.84814 159.522 8.42907 159.473 8.00999C159.451 7.8247 159.442 7.76812 159.426 7.666C159.405 7.53716 159.373 7.33582 159.289 6.71198C157.57 3.72254 191.576 0.844996 198.035 0.851145ZM197.417 4.39132L197.305 4.41216C195.44 4.37774 193.722 4.50642 192.004 4.6351L187.635 4.87522C185.131 5.14978 182.48 5.26124 180.054 5.33101L176.427 5.81399C173.429 6.18449 170.808 6.67116 167.522 7.28133L167.301 7.32233L165.47 7.47184C164.426 7.47546 163.493 7.45826 162.414 7.27795L163.305 12.0562L163.707 14.8362L166.005 27.1602L166.563 29.5306C167.137 33.2303 167.823 36.9091 168.69 40.935L168.945 43.5518L171.072 54.9562L171.371 57.1843L173.566 68.9565C174.33 72.4306 175.015 76.1094 175.701 79.7882L176.284 82.9152C176.701 84.8362 177.097 86.8083 177.494 88.7805C177.891 90.7526 178.288 92.7248 178.704 94.6457L179.262 97.0161C179.622 98.9475 180.01 100.874 180.398 102.8C180.787 104.726 181.175 106.652 181.535 108.584L182.015 111.159C182.642 113.897 183.19 116.84 183.705 119.599L184.073 122.195L185.858 131.768C188.181 131.147 190.538 130.709 192.784 130.292L196.039 129.688C198.172 129.292 200.305 128.896 202.472 128.684L205.694 127.896C208.354 127.212 211.126 126.507 213.932 125.986L216.178 125.569C217.413 125.34 218.682 125.294 219.873 125.454C219.577 124.177 218.973 121.092 218.713 119.856C218.454 118.62 218.194 117.383 217.898 116.106L217.486 113.899C217.195 112.335 216.884 110.823 216.573 109.311C216.262 107.798 215.951 106.286 215.659 104.723L214.518 99.2251L212.598 88.9245L211.99 85.0408L210.206 75.4759L209.427 70.6726L206.958 57.4289L206.434 55.2424L201.427 28.387C201.093 25.9749 200.613 23.3998 200.133 20.8246L199.662 17.6768C199.491 16.7571 199.339 15.7862 199.187 14.8153C199.035 13.8444 198.883 12.8735 198.711 11.9538L198.197 9.19464C198 7.51833 197.726 6.04679 197.417 4.39132Z" fill="#7831B2"/>
<path fill-rule="evenodd" clip-rule="evenodd" d="M196.943 0.0979723C197.807 -0.252695 198.842 0.316333 199.185 2.15574C201.425 13.4774 203.502 24.888 205.578 36.2922L205.579 36.2932C207.239 45.4131 208.898 54.529 210.64 63.592C211.716 69.3663 212.832 75.1488 213.95 80.9377L213.95 80.9386C216.747 95.4342 219.553 109.97 221.767 124.518C221.87 125.07 221.939 125.438 221.895 125.827C221.894 125.851 221.894 125.874 221.893 125.898C221.15 127.194 185.648 134.285 183.304 132.287C182.964 131.548 182.724 130.632 182.616 130.074C181.524 126.09 180.58 122.268 179.601 118.263L179.214 116.813C176.14 104.062 173.593 91.0229 171.045 77.984L170.624 76.3493L169.218 68.8077C168.445 64.6624 167.651 60.5054 166.856 56.342C164.864 45.911 162.864 35.4396 161.168 25.0089L160.86 23.3535C160.183 19.102 159.541 15.0345 158.977 10.7621L158.565 8.55482C158.479 8.09497 158.43 7.67589 158.381 7.25682C158.359 7.07153 158.35 7.01494 158.334 6.91283C158.313 6.78398 158.281 6.58265 158.197 5.95881C156.478 2.96937 190.484 0.0918229 196.943 0.0979723ZM196.325 3.63815L196.213 3.65899C194.348 3.62456 192.63 3.75325 190.912 3.88192L186.543 4.12205C184.039 4.39661 181.388 4.50806 178.962 4.57784L175.336 5.06081C172.337 5.43131 169.716 5.91799 166.43 6.52816L166.209 6.56916L164.378 6.71866C163.334 6.72229 162.401 6.70509 161.322 6.52477L162.213 11.3031L162.616 14.083L164.913 26.4071L165.471 28.7775C166.045 32.4771 166.731 36.1559 167.598 40.1818L167.853 42.7987L169.98 54.203L170.279 56.4311L172.474 68.2034C173.238 71.6774 173.924 75.3562 174.61 79.035L175.193 82.162C175.609 84.083 176.006 86.0551 176.402 88.0273C176.799 89.9995 177.196 91.9716 177.612 93.8926L178.17 96.263C178.53 98.1944 178.918 100.121 179.307 102.047C179.695 103.973 180.083 105.899 180.443 107.83L180.923 110.406C181.55 113.144 182.099 116.087 182.613 118.846L182.981 121.442L184.766 131.015C187.089 130.394 189.447 129.956 191.692 129.539L194.947 128.935C197.08 128.539 199.213 128.143 201.381 127.931L204.602 127.143C207.262 126.458 210.034 125.753 212.841 125.232L215.086 124.816C216.321 124.586 217.59 124.541 218.781 124.701C218.485 123.423 217.881 120.339 217.621 119.103C217.362 117.866 217.102 116.63 216.806 115.353L216.394 113.146C216.103 111.582 215.792 110.07 215.481 108.557C215.17 107.045 214.859 105.533 214.567 103.969L213.426 98.472L211.506 88.1713L210.898 84.2877L209.114 74.7228L208.335 69.9194L205.866 56.6757L205.342 54.4892L200.335 27.6338C200.001 25.2218 199.521 22.6466 199.041 20.0714L198.57 16.9236C198.399 16.0039 198.247 15.033 198.095 14.0621C197.943 13.0912 197.791 12.1203 197.619 11.2006L197.105 8.44147C196.908 6.76516 196.634 5.29362 196.325 3.63815Z" fill="#7831B2"/>
<path fill-rule="evenodd" clip-rule="evenodd" d="M1.98769 107.196C13.8322 102.906 26.9848 101.278 39.5619 100.917C41.1735 100.85 41.6833 102.962 40.7086 103.956C41.0876 106.144 41.4683 108.332 41.849 110.519L41.8507 110.529C44.5241 125.888 47.1956 141.237 49.2499 156.611C49.3545 157.172 49.1019 157.684 48.6953 157.991C48.933 158.644 48.631 159.513 47.6428 159.813L47.5307 159.834C47.4321 160.549 46.8431 161.123 46.0866 160.799C45.964 160.763 45.8362 160.7 45.7084 160.636C45.5806 160.573 45.4527 160.51 45.3302 160.474C41.2829 161.475 37.0672 162.21 32.9011 162.936C31.2457 163.224 29.5982 163.511 27.9722 163.813C26.8032 164.03 25.5755 164.317 24.3161 164.611C20.2608 165.557 15.877 166.581 12.0659 165.604C11.3019 165.862 10.5664 165.651 10.378 164.64C7.52695 146.238 4.6056 128.081 0.0726789 109.99C-0.227819 109.001 0.45238 108.294 1.2163 108.036C1.37775 107.657 1.56013 107.391 1.98769 107.196ZM38.2868 109.633C37.9729 107.949 37.6798 106.377 37.4989 104.785C34.8783 105.039 32.2576 105.293 29.6579 105.659L27.0372 105.914C26.0177 106.045 24.9753 106.209 23.9329 106.374C22.8906 106.538 21.8482 106.703 20.8287 106.834L18.5862 107.25L18.2766 107.293C16.0135 107.602 13.8449 107.898 11.5928 108.316L9.1964 108.529C8.24337 108.706 7.31313 108.849 6.38289 108.993C5.45265 109.137 4.52242 109.28 3.56938 109.457C3.76523 109.886 3.82802 110.222 3.89081 110.559L4.33782 112.335L5.86724 118.671L6.16027 120.243C6.67007 122.355 7.20081 124.579 7.59849 126.712L7.89152 128.284C8.3804 130.283 8.75715 132.304 9.1339 134.325L10.7037 142.744C10.8028 143.581 10.9239 144.387 11.0429 145.178C11.1663 145.998 11.2874 146.803 11.3795 147.613L11.4976 148.869C11.5567 149.497 11.649 150.147 11.7413 150.798C11.8336 151.449 11.9259 152.099 11.985 152.727L12.278 154.299C12.5083 155.534 12.6054 156.677 12.7026 157.821L12.8133 159.658C12.8402 161.047 12.9792 162.415 13.1183 163.783C14.5833 162.93 16.3354 162.373 18.2415 162.019L21.2688 161.457C21.9415 161.332 22.5915 161.24 23.2414 161.149C23.8913 161.057 24.5412 160.966 25.214 160.841L28.1501 160.412L31.8501 159.725L35.1928 158.988L40.3504 158.031L44.3165 157.527C44.9893 157.402 45.6829 157.389 46.2645 157.397L44.4016 147.406L44.0114 144.691L42.7974 138.18L42.491 135.914C42.1979 134.342 41.9258 132.883 41.7449 131.291L41.2007 128.372C41.1086 127.561 40.9875 126.756 40.8642 125.936C40.7452 125.145 40.6241 124.34 40.5249 123.503L40.1691 121.595C40.0199 120.794 39.8943 119.959 39.7711 119.14C39.6523 118.35 39.5357 117.575 39.4021 116.859L39.1794 115.042C39.0747 114.481 38.9981 113.914 38.9215 113.348C38.8449 112.781 38.7682 112.215 38.6636 111.653L38.2868 109.633Z" stroke="#7831B2" stroke-width="2" mask="url(#path-1-inside-1_4_4694)"/>
<path fill-rule="evenodd" clip-rule="evenodd" d="M2.73495 106.101C14.5795 101.812 27.7321 100.183 40.3092 99.8226C41.9208 99.7557 42.4306 101.868 41.4559 102.862C41.8348 105.05 42.2156 107.237 42.5963 109.424L42.598 109.434C45.2714 124.793 47.9428 140.142 49.9971 155.516C50.1018 156.077 49.8492 156.589 49.4425 156.897C49.6802 157.55 49.3783 158.419 48.3901 158.718L48.278 158.739C48.1793 159.454 47.5903 160.028 46.8339 159.704C46.7113 159.669 46.5835 159.605 46.4556 159.542C46.3278 159.478 46.2 159.415 46.0774 159.38C42.0301 160.381 37.8144 161.115 33.6483 161.841C31.993 162.129 30.3455 162.417 28.7195 162.718C27.5504 162.935 26.3227 163.222 25.0633 163.516C21.008 164.463 16.6242 165.486 12.8131 164.51C12.0492 164.768 11.3137 164.556 11.1253 163.546C8.27421 145.143 5.35286 126.986 0.819936 108.896C0.519438 107.906 1.19964 107.199 1.96356 106.941C2.12501 106.563 2.30739 106.297 2.73495 106.101ZM39.0341 108.538C38.7201 106.854 38.4271 105.282 38.2462 103.69C35.6255 103.944 33.0049 104.198 30.4051 104.565L27.7845 104.819C26.7649 104.95 25.7226 105.115 24.6802 105.279C23.6378 105.444 22.5955 105.608 21.5759 105.739L19.3335 106.156L19.0239 106.198C16.7608 106.507 14.5921 106.804 12.3401 107.222L9.94366 107.434C8.99062 107.611 8.06039 107.755 7.13015 107.899C6.19991 108.042 5.26968 108.186 4.31664 108.363C4.51248 108.791 4.57528 109.128 4.63807 109.465L5.08508 111.24L6.6145 117.576L6.90753 119.148C7.41733 121.26 7.94807 123.484 8.34575 125.617L8.63878 127.189C9.12765 129.189 9.5044 131.21 9.88116 133.23L11.451 141.65C11.5501 142.487 11.6712 143.292 11.7902 144.083C11.9136 144.903 12.0347 145.708 12.1267 146.519L12.2449 147.774C12.3039 148.402 12.3962 149.053 12.4885 149.703C12.5809 150.354 12.6732 151.005 12.7323 151.633L13.0253 153.204C13.2555 154.439 13.3527 155.583 13.4499 156.726L13.5605 158.564C13.5875 159.953 13.7265 161.32 13.8656 162.688C15.3306 161.836 17.0827 161.278 18.9888 160.924L22.016 160.362C22.6888 160.237 23.3387 160.146 23.9886 160.054C24.6386 159.963 25.2885 159.871 25.9612 159.746L28.8973 159.317L32.5973 158.63L35.9401 157.894L41.0977 156.936L45.0638 156.432C45.7365 156.307 46.4302 156.295 47.0117 156.303L45.1489 146.312L44.7587 143.597L43.5447 137.085L43.2382 134.819C42.9452 133.248 42.6731 131.788 42.4922 130.196L41.948 127.277C41.8559 126.467 41.7348 125.662 41.6114 124.842C41.4924 124.051 41.3713 123.246 41.2722 122.408L40.9164 120.5C40.7671 119.7 40.6416 118.865 40.5183 118.045C40.3995 117.256 40.2829 116.48 40.1494 115.764L39.9266 113.947C39.822 113.386 39.7454 112.819 39.6687 112.253C39.5921 111.686 39.5155 111.12 39.4108 110.559L39.0341 108.538Z" stroke="#7831B2" stroke-width="2" mask="url(#path-1-inside-1_4_4694)"/>
<path fill-rule="evenodd" clip-rule="evenodd" d="M151.022 52.0171C150.972 52.1478 150.914 52.2698 150.845 52.3807C151.463 55.8518 152.083 59.3225 152.703 62.7929L152.706 62.8084C157.058 87.1786 161.407 111.532 165.126 135.861C165.292 136.752 165.087 137.528 164.702 137.968C153.587 140.462 130.671 145.577 127.927 146.086C127.17 146.411 126.394 146.002 126.095 144.398C121.241 115.236 116.341 86.4514 109.795 57.6038C109.383 56.0204 110.007 54.9824 110.764 54.6575C144.956 47.1621 151.826 49.5915 151.022 52.0171ZM148.956 61.031C148.458 58.357 147.992 55.8613 147.64 53.3446C144.978 53.4699 142.317 53.5951 139.689 53.8986L137.027 54.0238C135.995 54.1232 134.943 54.2724 133.891 54.4216C132.839 54.5707 131.787 54.7199 130.755 54.8193L128.498 55.2382L128.185 55.2723C125.896 55.5212 123.703 55.7596 121.437 56.1804L119.001 56.2637C118.042 56.4417 117.103 56.57 116.164 56.6982C115.224 56.8264 114.285 56.9547 113.326 57.1327C113.572 57.8248 113.672 58.3596 113.771 58.8944L114.416 61.7257L116.649 71.8239L117.114 74.3196C117.859 77.6857 118.636 81.2301 119.268 84.6171L119.733 87.1128C120.444 90.3006 121.042 93.5094 121.641 96.7181L124.133 110.088C124.323 111.411 124.532 112.687 124.737 113.94C124.949 115.239 125.158 116.514 125.337 117.795L125.59 119.777C125.716 120.768 125.879 121.798 126.042 122.829C126.205 123.859 126.368 124.889 126.494 125.88L126.96 128.376C127.325 130.337 127.545 132.14 127.764 133.944L128.07 136.838C128.244 139.019 128.53 141.179 128.816 143.339C130.229 142.155 131.968 141.463 133.886 141.107L136.932 140.541C137.609 140.416 138.266 140.34 138.923 140.264C139.58 140.188 140.237 140.112 140.914 139.986L143.881 139.62L147.604 138.929L150.956 138.122L156.146 137.159L160.162 136.782C160.839 136.656 161.549 136.709 162.146 136.783L159.188 120.917L158.503 116.618L156.575 106.278L156.024 102.692C155.558 100.197 155.126 97.8791 154.774 95.3624L153.909 90.7276C153.73 89.4468 153.521 88.1714 153.309 86.8725C153.104 85.6191 152.895 84.3437 152.706 83.0203L152.141 79.9898C151.904 78.7188 151.688 77.3962 151.475 76.0981C151.271 74.8472 151.07 73.619 150.858 72.4818L150.439 69.6086C150.273 68.7173 150.135 67.8207 149.997 66.9242C149.859 66.0276 149.721 65.131 149.555 64.2397L148.956 61.031Z" stroke="#7831B2" stroke-width="2" mask="url(#path-1-inside-1_4_4694)"/>
<path fill-rule="evenodd" clip-rule="evenodd" d="M149.93 51.264C149.88 51.3947 149.822 51.5166 149.754 51.6275C150.372 55.0986 150.992 58.5693 151.611 62.0397L151.614 62.0553C155.966 86.4254 160.315 110.779 164.034 135.107C164.2 135.999 163.995 136.775 163.61 137.215C152.495 139.709 129.579 144.824 126.835 145.333C126.079 145.658 125.302 145.249 125.003 143.644C120.149 114.483 115.249 85.6983 108.704 56.8506C108.292 55.2672 108.915 54.2292 109.672 53.9044C143.864 46.409 150.734 48.8383 149.93 51.264ZM147.864 60.2778C147.366 57.6038 146.901 55.1081 146.548 52.5915C143.887 52.7167 141.225 52.8419 138.597 53.1454L135.935 53.2706C134.903 53.37 133.851 53.5192 132.799 53.6684C131.747 53.8176 130.695 53.9668 129.663 54.0661L127.407 54.4851L127.094 54.5191C124.805 54.768 122.611 55.0065 120.345 55.4272L117.909 55.5105C116.95 55.6886 116.011 55.8168 115.072 55.945C114.133 56.0733 113.193 56.2015 112.234 56.3795C112.48 57.0717 112.58 57.6065 112.68 58.1412L113.324 60.9725L115.557 71.0708L116.023 73.5665C116.767 76.9325 117.544 80.4769 118.176 83.8639L118.641 86.3596C119.352 89.5474 119.951 92.7562 120.549 95.9649L123.042 109.335C123.231 110.658 123.44 111.934 123.645 113.187C123.857 114.486 124.066 115.761 124.245 117.042L124.498 119.024C124.624 120.015 124.787 121.045 124.95 122.075C125.113 123.106 125.276 124.136 125.402 125.127L125.868 127.622C126.233 129.583 126.453 131.387 126.672 133.191L126.979 136.085C127.152 138.266 127.438 140.426 127.724 142.586C129.137 141.401 130.876 140.71 132.794 140.354L135.84 139.788C136.517 139.662 137.174 139.587 137.832 139.511C138.489 139.435 139.146 139.359 139.823 139.233L142.789 138.867L146.513 138.176L149.864 137.369L155.054 136.406L159.07 136.029C159.747 135.903 160.457 135.956 161.054 136.029L158.096 120.164L157.411 115.865L155.484 105.525L154.932 101.939C154.466 99.4434 154.034 97.1259 153.682 94.6093L152.818 89.9744C152.638 88.6936 152.43 87.4182 152.217 86.1193C152.012 84.8659 151.804 83.5905 151.614 82.2671L151.049 79.2366C150.812 77.9657 150.596 76.643 150.383 75.3449C150.179 74.094 149.978 72.8658 149.766 71.7286L149.347 68.8554C149.181 67.9641 149.043 67.0675 148.905 66.171C148.767 65.2744 148.629 64.3779 148.463 63.4865L147.864 60.2778Z" stroke="#7831B2" stroke-width="2" mask="url(#path-1-inside-1_4_4694)"/>
<path fill-rule="evenodd" clip-rule="evenodd" d="M91.4829 71.4173C92.359 71.1385 93.3397 71.421 93.549 72.5436C94.9645 79.4442 96.2134 86.4117 97.4616 93.3752C98.4598 98.9442 99.4576 104.511 100.54 110.038C101.197 113.563 101.892 117.089 102.588 120.62C104.331 129.46 106.079 138.325 107.244 147.238C107.306 147.575 107.348 147.799 107.278 148.045C107.229 148.402 107.046 148.668 106.619 148.864C102.259 150.808 97.2163 151.57 92.3953 152.299C91.2956 152.465 90.2073 152.629 89.1412 152.806C82.6382 154.013 76.2054 154.975 69.5558 155.396C68.7984 155.219 68.3771 154.011 68.2611 153.43C67.4643 151.022 66.8005 148.707 66.1158 146.279L65.8362 145.401C63.6983 137.668 62.1001 129.718 60.5019 121.769L60.2014 120.779L59.3433 116.176C58.8716 113.647 58.3799 111.111 57.8875 108.571C56.6538 102.208 55.4153 95.821 54.4739 89.4378L54.2855 88.4275C53.9162 85.8247 53.5679 83.3341 53.3107 80.7105L53.0596 79.3634C53.0072 79.0827 52.9882 78.825 52.9691 78.5672C52.95 78.3094 52.931 78.0516 52.8786 77.7709C52.8443 76.9643 53.3211 76.4112 53.8608 76.1949C53.9311 75.9495 54.0223 75.8165 54.2465 75.7748C65.5723 71.8139 77.9535 71.0253 89.7742 70.3407C90.5799 70.3073 91.1331 70.7853 91.4829 71.4173ZM90.6263 73.6669L90.5142 73.6877C88.6784 73.7962 86.9756 73.9962 85.2729 74.1962L80.9495 74.6503C78.4619 74.996 75.8412 75.2502 73.4448 75.4628L69.8359 76.0167C66.7877 76.4664 63.7186 76.8039 60.6285 77.0291L58.8136 77.2499C57.7836 77.3249 56.8657 77.3792 55.8147 77.342L56.4636 80.8221L56.6654 82.5268L58.0678 90.0482L58.452 91.4868C58.7585 93.7528 59.1771 95.998 59.7497 98.4469L59.8185 100.06L61.1162 107.02L61.2552 108.388L62.5948 115.573C63.1046 117.685 63.5232 119.93 63.9418 122.175L64.2977 124.084C64.5735 125.252 64.8265 126.454 65.0796 127.655C65.3326 128.857 65.5856 130.058 65.8615 131.227L66.2457 132.665C66.4655 133.844 66.7133 135.018 66.9611 136.191C67.2089 137.365 67.4567 138.538 67.6764 139.717L67.9695 141.289C68.3956 142.952 68.7304 144.748 69.0444 146.432L69.2253 148.024L70.1044 152.739C72.438 152.19 74.7926 151.753 77.035 151.336L80.2865 150.733C82.4169 150.337 84.5472 149.942 86.6984 149.658L89.929 148.943C92.599 148.331 95.3811 147.698 98.1842 147.178L100.427 146.761C101.66 146.533 102.914 146.416 104.077 146.432C103.875 145.657 103.705 144.904 103.536 144.152C103.367 143.399 103.197 142.647 102.995 141.871L102.744 140.524C102.566 139.57 102.365 138.649 102.164 137.728C101.964 136.807 101.763 135.886 101.585 134.932L100.845 131.585L99.6729 125.298L99.3455 122.92L98.2571 117.083L97.825 114.143L96.318 106.06L95.9547 104.734L92.8988 88.344C92.7389 86.8638 92.4458 85.2921 92.1528 83.7205L91.9091 81.7913C91.8044 81.23 91.7226 80.6354 91.6407 80.0408C91.5589 79.4462 91.477 78.8517 91.3724 78.2904L91.0584 76.6065C90.9822 75.5753 90.8147 74.6772 90.6263 73.6669Z" stroke="#7831B2" stroke-width="2" mask="url(#path-1-inside-1_4_4694)"/>
<path fill-rule="evenodd" clip-rule="evenodd" d="M92.2302 70.3227C93.1062 70.0439 94.0869 70.3264 94.2962 71.449C95.7117 78.3497 96.9607 85.3171 98.2089 92.2807C99.2071 97.8496 100.205 103.416 101.287 108.944C101.944 112.468 102.639 115.995 103.336 119.525C105.079 128.365 106.826 137.23 107.991 146.144C108.054 146.48 108.096 146.705 108.025 146.95C107.976 147.308 107.794 147.574 107.366 147.769C103.006 149.714 97.9636 150.476 93.1426 151.204C92.0428 151.37 90.9545 151.535 89.8885 151.711C83.3854 152.918 76.9526 153.88 70.303 154.302C69.5456 154.124 69.1243 152.917 69.0084 152.335C68.2115 149.928 67.5478 147.612 66.863 145.184L66.5835 144.307C64.4456 136.573 62.8474 128.624 61.2492 120.674L60.9487 119.685L60.0905 115.082C59.6188 112.552 59.1272 110.016 58.6348 107.477C57.4011 101.114 56.1626 94.7264 55.2212 88.3432L55.0328 87.3329C54.6635 84.7301 54.3151 82.2395 54.058 79.6159L53.8068 78.2688C53.7545 77.9882 53.7354 77.7304 53.7164 77.4726C53.6973 77.2148 53.6782 76.957 53.6259 76.6764C53.5915 75.8697 54.0684 75.3166 54.6081 75.1003C54.6783 74.8549 54.7695 74.7219 54.9938 74.6802C66.3195 70.7193 78.7008 69.9307 90.5214 69.2461C91.3272 69.2127 91.8803 69.6907 92.2302 70.3227ZM91.3736 72.5723L91.2615 72.5931C89.4257 72.7016 87.7229 72.9016 86.0201 73.1016L81.6967 73.5558C79.2091 73.9014 76.5885 74.1557 74.192 74.3682L70.5832 74.9221C67.535 75.3718 64.4658 75.7093 61.3758 75.9345L59.5609 76.1553C58.5309 76.2304 57.613 76.2846 56.562 76.2474L57.2108 79.7275L57.4127 81.4322L58.815 88.9536L59.1993 90.3922C59.5058 92.6582 59.9244 94.9034 60.497 97.3523L60.5658 98.9656L61.8635 105.926L62.0025 107.294L63.3421 114.478C63.8519 116.59 64.2705 118.836 64.6891 121.081L65.0449 122.989C65.3208 124.158 65.5738 125.359 65.8268 126.561C66.0799 127.762 66.3329 128.964 66.6087 130.132L66.993 131.571C67.2127 132.75 67.4605 133.923 67.7083 135.097C67.9561 136.27 68.2039 137.444 68.4237 138.622L68.7167 140.194C69.1428 141.857 69.4777 143.653 69.7917 145.337L69.9726 146.93L70.8517 151.645C73.1853 151.095 75.5398 150.658 77.7823 150.242L81.0338 149.638C83.1641 149.243 85.2944 148.847 87.4457 148.564L90.6763 147.848C93.3463 147.236 96.1284 146.604 98.9314 146.083L101.174 145.667C102.407 145.438 103.661 145.321 104.825 145.338C104.622 144.562 104.453 143.81 104.283 143.057C104.114 142.305 103.945 141.552 103.742 140.777L103.491 139.429C103.313 138.475 103.112 137.554 102.912 136.633C102.711 135.712 102.51 134.791 102.332 133.837L101.592 130.49L100.42 124.204L100.093 121.825L99.0043 115.988L98.5723 113.048L97.0653 104.966L96.702 103.639L93.6461 87.2494C93.4861 85.7692 93.1931 84.1975 92.9 82.6259L92.6563 80.6967C92.5517 80.1354 92.4698 79.5408 92.388 78.9462C92.3061 78.3517 92.2243 77.7571 92.1196 77.1958L91.8057 75.5119C91.7294 74.4807 91.562 73.5827 91.3736 72.5723Z" stroke="#7831B2" stroke-width="2" mask="url(#path-1-inside-1_4_4694)"/>
<path fill-rule="evenodd" clip-rule="evenodd" d="M198.035 0.851145C198.899 0.500478 199.934 1.06951 200.277 2.90892C202.517 14.2305 204.594 25.6411 206.67 37.0454L206.67 37.0464C208.331 46.1663 209.99 55.2822 211.732 64.3452C212.808 70.1195 213.924 75.902 215.041 81.6908L215.041 81.6918C217.839 96.1873 220.644 110.723 222.859 125.271C222.962 125.823 223.03 126.191 222.987 126.58C222.986 126.604 222.986 126.628 222.985 126.651C222.242 127.948 186.74 135.038 184.396 133.04C184.056 132.301 183.816 131.385 183.708 130.827C182.616 126.843 181.672 123.022 180.693 119.017L180.306 117.566C177.232 104.815 174.684 91.7761 172.137 78.7371L171.716 77.1025L170.31 69.5609C169.537 65.4155 168.743 61.2586 167.948 57.0952C165.956 46.6642 163.956 36.1928 162.26 25.7621L161.951 24.1066C161.275 19.8552 160.633 15.7876 160.068 11.5153L159.657 9.308C159.571 8.84814 159.522 8.42907 159.473 8.00999C159.451 7.8247 159.442 7.76812 159.426 7.666C159.405 7.53716 159.373 7.33582 159.289 6.71198C157.57 3.72254 191.576 0.844996 198.035 0.851145ZM197.417 4.39132L197.305 4.41216C195.44 4.37774 193.722 4.50642 192.004 4.6351L187.635 4.87522C185.131 5.14978 182.48 5.26124 180.054 5.33101L176.427 5.81399C173.429 6.18449 170.808 6.67116 167.522 7.28133L167.301 7.32233L165.47 7.47184C164.426 7.47546 163.493 7.45826 162.414 7.27795L163.305 12.0562L163.707 14.8362L166.005 27.1602L166.563 29.5306C167.137 33.2303 167.823 36.9091 168.69 40.935L168.945 43.5518L171.072 54.9562L171.371 57.1843L173.566 68.9565C174.33 72.4306 175.015 76.1094 175.701 79.7882L176.284 82.9152C176.701 84.8362 177.097 86.8083 177.494 88.7805C177.891 90.7526 178.288 92.7248 178.704 94.6457L179.262 97.0161C179.622 98.9475 180.01 100.874 180.398 102.8C180.787 104.726 181.175 106.652 181.535 108.584L182.015 111.159C182.642 113.897 183.19 116.84 183.705 119.599L184.073 122.195L185.858 131.768C188.181 131.147 190.538 130.709 192.784 130.292L196.039 129.688C198.172 129.292 200.305 128.896 202.472 128.684L205.694 127.896C208.354 127.212 211.126 126.507 213.932 125.986L216.178 125.569C217.413 125.34 218.682 125.294 219.873 125.454C219.577 124.177 218.973 121.092 218.713 119.856C218.454 118.62 218.194 117.383 217.898 116.106L217.486 113.899C217.195 112.335 216.884 110.823 216.573 109.311C216.262 107.798 215.951 106.286 215.659 104.723L214.518 99.2251L212.598 88.9245L211.99 85.0408L210.206 75.4759L209.427 70.6726L206.958 57.4289L206.434 55.2424L201.427 28.387C201.093 25.9749 200.613 23.3998 200.133 20.8246L199.662 17.6768C199.491 16.7571 199.339 15.7862 199.187 14.8153C199.035 13.8444 198.883 12.8735 198.711 11.9538L198.197 9.19464C198 7.51833 197.726 6.04679 197.417 4.39132Z" stroke="#7831B2" stroke-width="2" mask="url(#path-1-inside-1_4_4694)"/>
<path fill-rule="evenodd" clip-rule="evenodd" d="M196.943 0.0979723C197.807 -0.252695 198.842 0.316333 199.185 2.15574C201.425 13.4774 203.502 24.888 205.578 36.2922L205.579 36.2932C207.239 45.4131 208.898 54.529 210.64 63.592C211.716 69.3663 212.832 75.1488 213.95 80.9377L213.95 80.9386C216.747 95.4342 219.553 109.97 221.767 124.518C221.87 125.07 221.939 125.438 221.895 125.827C221.894 125.851 221.894 125.874 221.893 125.898C221.15 127.194 185.648 134.285 183.304 132.287C182.964 131.548 182.724 130.632 182.616 130.074C181.524 126.09 180.58 122.268 179.601 118.263L179.214 116.813C176.14 104.062 173.593 91.0229 171.045 77.984L170.624 76.3493L169.218 68.8077C168.445 64.6624 167.651 60.5054 166.856 56.342C164.864 45.911 162.864 35.4396 161.168 25.0089L160.86 23.3535C160.183 19.102 159.541 15.0345 158.977 10.7621L158.565 8.55482C158.479 8.09497 158.43 7.67589 158.381 7.25682C158.359 7.07153 158.35 7.01494 158.334 6.91283C158.313 6.78398 158.281 6.58265 158.197 5.95881C156.478 2.96937 190.484 0.0918229 196.943 0.0979723ZM196.325 3.63815L196.213 3.65899C194.348 3.62456 192.63 3.75325 190.912 3.88192L186.543 4.12205C184.039 4.39661 181.388 4.50806 178.962 4.57784L175.336 5.06081C172.337 5.43131 169.716 5.91799 166.43 6.52816L166.209 6.56916L164.378 6.71866C163.334 6.72229 162.401 6.70509 161.322 6.52477L162.213 11.3031L162.616 14.083L164.913 26.4071L165.471 28.7775C166.045 32.4771 166.731 36.1559 167.598 40.1818L167.853 42.7987L169.98 54.203L170.279 56.4311L172.474 68.2034C173.238 71.6774 173.924 75.3562 174.61 79.035L175.193 82.162C175.609 84.083 176.006 86.0551 176.402 88.0273C176.799 89.9995 177.196 91.9716 177.612 93.8926L178.17 96.263C178.53 98.1944 178.918 100.121 179.307 102.047C179.695 103.973 180.083 105.899 180.443 107.83L180.923 110.406C181.55 113.144 182.099 116.087 182.613 118.846L182.981 121.442L184.766 131.015C187.089 130.394 189.447 129.956 191.692 129.539L194.947 128.935C197.08 128.539 199.213 128.143 201.381 127.931L204.602 127.143C207.262 126.458 210.034 125.753 212.841 125.232L215.086 124.816C216.321 124.586 217.59 124.541 218.781 124.701C218.485 123.423 217.881 120.339 217.621 119.103C217.362 117.866 217.102 116.63 216.806 115.353L216.394 113.146C216.103 111.582 215.792 110.07 215.481 108.557C215.17 107.045 214.859 105.533 214.567 103.969L213.426 98.472L211.506 88.1713L210.898 84.2877L209.114 74.7228L208.335 69.9194L205.866 56.6757L205.342 54.4892L200.335 27.6338C200.001 25.2218 199.521 22.6466 199.041 20.0714L198.57 16.9236C198.399 16.0039 198.247 15.033 198.095 14.0621C197.943 13.0912 197.791 12.1203 197.619 11.2006L197.105 8.44147C196.908 6.76516 196.634 5.29362 196.325 3.63815Z" stroke="#7831B2" stroke-width="2" mask="url(#path-1-inside-1_4_4694)"/>
</svg>
