<svg width="120" height="167" viewBox="0 0 120 167" fill="none" xmlns="http://www.w3.org/2000/svg">
<path d="M115.823 15.1537L63.9265 2.78013C62.8661 2.5273 61.7614 2.98209 61.1946 3.90476L12.5255 83.1395C11.644 84.5746 12.428 86.4414 14.0773 86.8346L38.5971 92.6808C40.2001 93.063 40.9977 94.8462 40.206 96.278L5.34972 159.321C3.98935 161.781 7.15331 164.23 9.24245 162.334L91.995 87.215C93.4733 85.8731 92.8404 83.4446 90.8913 82.9798L70.2599 78.0607C68.4336 77.6253 67.7255 75.4303 68.9584 74.0265L117.124 19.1879C118.357 17.7842 117.649 15.5892 115.823 15.1537Z" stroke="#7831B2" stroke-width="4"/>
<path d="M113.713 17.1037L61.817 4.73013C60.7565 4.4773 59.6518 4.93208 59.085 5.85476L10.4159 85.0895C9.53443 86.5246 10.3184 88.3914 11.9677 88.7846L36.4876 94.6308C38.0906 95.013 38.8881 96.7962 38.0964 98.228L3.24015 161.271C1.87978 163.731 5.04374 166.18 7.13288 164.284L89.8854 89.165C91.3638 87.8231 90.7309 85.3946 88.7817 84.9298L68.1503 80.0107C66.324 79.5753 65.5495 78.3781 66.7824 76.9743L114.948 22.1357C116.181 20.732 115.54 17.5392 113.713 17.1037Z" stroke="#7831B2" stroke-width="4"/>
</svg>
