<svg width="52" height="69" viewBox="0 0 52 69" fill="none" xmlns="http://www.w3.org/2000/svg">
<path d="M2.71991 10.0288L23.2349 4.02709C23.6541 3.90445 24.1053 4.06406 24.3508 4.42178L45.429 35.1409C45.8107 35.6972 45.5348 36.4601 44.8829 36.6508L35.19 39.4865C34.5563 39.6719 34.2733 40.4015 34.6191 40.9584L49.8425 65.4782C50.4367 66.4352 49.2202 67.479 48.3459 66.7625L13.7131 38.3805C13.0944 37.8734 13.2985 36.8889 14.069 36.6635L22.2247 34.2775C22.9467 34.0663 23.1856 33.1737 22.6638 32.637L2.28083 11.6694C1.75906 11.1326 1.99796 10.24 2.71991 10.0288Z" stroke="#E71985" stroke-width="3"/>
<path d="M2.71991 8.04259L23.2349 2.04087C23.6541 1.91824 24.1053 2.07785 24.3508 2.43556L45.429 33.1547C45.8107 33.711 45.5348 34.4738 44.8829 34.6646L35.19 37.5003C34.5563 37.6856 34.2733 38.4153 34.6191 38.9722L49.8425 63.492C50.4367 64.4489 49.2202 65.4928 48.3459 64.7763L13.7131 36.3942C13.0944 35.8872 13.2985 34.9027 14.069 34.6773L22.2247 32.2913C22.9467 32.0801 23.1856 31.1875 22.6638 30.6507L2.28083 9.68316C1.75906 9.14642 1.99796 8.2538 2.71991 8.04259Z" stroke="#E71985" stroke-width="3"/>
</svg>
