<svg width="80" height="142" viewBox="0 0 80 142" fill="none" xmlns="http://www.w3.org/2000/svg">
<path d="M75.7002 4.22942L32.4655 2.12598C31.5821 2.083 30.7689 2.61051 30.4546 3.43044L3.46738 73.8419C2.97861 75.1172 3.8825 76.4875 5.25649 76.5544L25.6839 77.5482C27.0193 77.6132 27.9215 78.9149 27.5039 80.1741L9.11566 135.619C8.39801 137.783 11.2868 139.261 12.6698 137.438L67.4532 65.2121C68.4319 63.9218 67.5647 62.0813 65.9408 62.0023L48.7529 61.1661C47.2314 61.0921 46.3391 59.4488 47.1128 58.146L77.3403 7.24953C78.114 5.94667 77.2217 4.30345 75.7002 4.22942Z" stroke="#7831B2" stroke-width="3"/>
<path d="M74.3089 6.09855L31.0742 3.99511C30.1907 3.95213 29.3776 4.47964 29.0633 5.29957L2.07605 75.7111C1.58728 76.9863 2.49116 78.3567 3.86515 78.4235L24.2925 79.4173C25.628 79.4823 26.5302 80.784 26.1125 82.0433L7.72432 137.488C7.00667 139.652 9.89544 141.13 11.2785 139.307L66.0619 67.0812C67.0406 65.7909 66.1733 63.9504 64.5495 63.8714L47.3616 63.0352C45.8401 62.9612 45.0437 62.123 45.8175 60.8201L76.0449 9.92367C76.8187 8.62081 75.8303 6.17258 74.3089 6.09855Z" stroke="#7831B2" stroke-width="3"/>
</svg>
