<svg width="147" height="171" viewBox="0 0 147 171" fill="none" xmlns="http://www.w3.org/2000/svg">
<path d="M39.9997 60.5096C39.8695 60.8598 39.7099 61.0896 39.5211 61.1989C39.3391 61.3108 39.118 61.318 38.8578 61.2207C38.5497 61.1055 38.341 60.9219 38.2319 60.6699C38.1254 60.411 38.1385 60.103 38.2713 59.7459C38.4602 59.2377 38.6642 58.7312 38.8831 58.2263C39.1114 57.7172 39.3474 57.2188 39.5911 56.7311C39.8417 56.2459 40.0881 55.7826 40.3302 55.3413L40.5516 55.7526C40.4132 55.8103 40.258 55.8501 40.0861 55.8719C39.9142 55.8936 39.7384 55.8944 39.5588 55.8741C39.3859 55.8564 39.2208 55.8181 39.0633 55.7593C38.7072 55.6261 38.4806 55.4279 38.3834 55.1647C38.2888 54.8947 38.285 54.6429 38.3718 54.4094C38.4356 54.2377 38.55 54.1084 38.7149 54.0215C38.8798 53.9345 39.0975 53.926 39.368 53.9958C39.6615 54.0665 39.9421 54.0775 40.2097 54.029C40.4842 53.983 40.7351 53.9165 40.9625 53.8294C41.0916 53.776 41.2245 53.7435 41.3613 53.7321C41.5076 53.7164 41.6629 53.7393 41.8272 53.8008C42.0737 53.8929 42.2639 54.0423 42.3977 54.2488C42.5341 54.4484 42.6004 54.6687 42.5965 54.9098C42.5996 55.1534 42.5174 55.3848 42.3502 55.6038C42.0047 56.0926 41.693 56.6058 41.4151 57.1433C41.1398 57.674 40.9012 58.1793 40.6994 58.6592C40.507 59.1348 40.3482 59.5408 40.2231 59.8774C40.1074 60.2096 40.0329 60.4203 39.9997 60.5096Z" fill="#7831B2"/>
<path d="M32.9295 74.1277C32.5665 73.9919 32.3391 73.7856 32.247 73.5087C32.155 73.2318 32.16 72.956 32.2622 72.6813C32.3439 72.4615 32.4693 72.2816 32.6384 72.1414C32.8169 71.997 33.0682 71.8876 33.3922 71.8132C34.054 71.6695 34.6337 71.5265 35.1313 71.384C35.6357 71.2441 36.064 71.0992 36.4161 70.9492C36.7708 70.7924 37.0519 70.6238 37.2594 70.4432C37.4763 70.2584 37.6269 70.0527 37.7112 69.826C37.7571 69.7024 37.7518 69.5909 37.6952 69.4915C37.6479 69.3878 37.5353 69.3026 37.3573 69.236C37.0628 69.1259 36.7779 69.0741 36.5025 69.0807C36.227 69.0872 35.9705 69.1164 35.7328 69.1683C35.4951 69.2202 35.2796 69.2648 35.0864 69.3021C34.8931 69.3393 34.7314 69.3336 34.6013 69.285C34.3685 69.1979 34.201 69.0296 34.0987 68.7802C34.0033 68.5333 34.0016 68.2862 34.0935 68.039C34.1548 67.8742 34.2367 67.7484 34.3392 67.6615C34.4416 67.5747 34.5921 67.5058 34.7904 67.4548C35.4299 67.2872 36.0123 67.1999 36.5375 67.1929C37.072 67.1816 37.5687 67.2617 38.0275 67.4333C38.5754 67.6382 38.9813 67.8995 39.2453 68.2172C39.5119 68.5282 39.6593 68.8766 39.6873 69.2626C39.7154 69.6486 39.649 70.0579 39.4882 70.4905C39.3937 70.7446 39.2569 70.9868 39.0777 71.217C38.8985 71.4473 38.6397 71.6712 38.3014 71.8889C37.9699 72.1091 37.5242 72.3219 36.9643 72.5271C36.4113 72.7349 35.7115 72.9386 34.8651 73.1384L34.5957 72.5096C34.7199 72.5952 34.8445 72.6692 34.9695 72.7316C35.0945 72.7939 35.2221 72.8495 35.3522 72.8981C35.5371 72.9673 35.7498 73.0351 35.9902 73.1015C36.2307 73.168 36.4952 73.2434 36.7836 73.3278C37.0789 73.4147 37.384 73.5171 37.699 73.6349C38.2263 73.8321 38.5556 74.0687 38.687 74.3447C38.8209 74.6138 38.833 74.896 38.7232 75.1913C38.6491 75.3904 38.5074 75.5408 38.298 75.6425C38.0912 75.7372 37.8474 75.7321 37.5667 75.6271C36.9709 75.4043 36.4261 75.2123 35.9323 75.0511C35.4453 74.8925 35.0083 74.7564 34.6215 74.6431C34.2415 74.5323 33.9107 74.4359 33.6292 74.3541C33.3476 74.2723 33.1144 74.1968 32.9295 74.1277Z" fill="#7831B2"/>
<path d="M29.5764 88.9053C29.0148 88.6954 28.6017 88.4744 28.337 88.2424C28.0722 88.0104 27.92 87.7696 27.8802 87.5201C27.8403 87.2705 27.8702 87.0118 27.9698 86.744C28.0541 86.5173 28.1735 86.343 28.3281 86.2209C28.4853 86.0919 28.6768 86.0697 28.9028 86.1542C29.0055 86.1926 29.0834 86.2452 29.1366 86.312C29.1966 86.3814 29.2541 86.4576 29.309 86.5407C29.3639 86.6238 29.4384 86.7065 29.5327 86.7887C29.6269 86.8708 29.7699 86.9478 29.9616 87.0195C30.5095 87.2243 30.9956 87.3748 31.42 87.471C31.8539 87.5628 32.2055 87.5926 32.4749 87.5604C32.7468 87.5213 32.916 87.4124 32.9824 87.2339C33.0258 87.1171 33.0042 87.0074 32.9176 86.9046C32.831 86.8018 32.6422 86.6803 32.3511 86.5402C32.06 86.4 31.6269 86.2224 31.0517 86.0073C30.7777 85.9049 30.6093 85.7285 30.5464 85.4781C30.4835 85.2277 30.4993 84.9755 30.5938 84.7214C30.6449 84.584 30.7212 84.4835 30.8229 84.4199C30.9246 84.3562 31.0558 84.3388 31.2167 84.3677C31.6608 84.432 32.0376 84.4673 32.3473 84.4736C32.6569 84.4799 32.9019 84.4503 33.0823 84.3848C33.2627 84.3192 33.3784 84.2178 33.4295 84.0804C33.4524 84.0186 33.4532 83.9641 33.4317 83.917C33.4196 83.8656 33.3785 83.8189 33.3083 83.777C33.2475 83.7308 33.1486 83.6821 33.0116 83.6308C32.5939 83.4746 32.2306 83.3818 31.9218 83.3524C31.6198 83.3255 31.3551 83.3242 31.1276 83.3487C30.9001 83.3731 30.7004 83.3962 30.5285 83.418C30.3566 83.4398 30.1919 83.4212 30.0344 83.3623C29.9386 83.3265 29.8383 83.2499 29.7338 83.1326C29.6386 83.0109 29.5661 82.8704 29.5162 82.7109C29.4757 82.5471 29.4848 82.3862 29.5435 82.2283C29.6048 82.0635 29.7589 81.9216 30.0059 81.8028C30.2529 81.6839 30.5611 81.5997 30.9305 81.5501C31.3068 81.5031 31.7161 81.5036 32.1584 81.5517C32.6076 81.6023 33.065 81.7147 33.5306 81.8889C34.0921 82.0988 34.525 82.3507 34.8292 82.6443C35.1428 82.9337 35.3375 83.249 35.4134 83.5903C35.4962 83.9342 35.4674 84.2949 35.3269 84.6727C35.2605 84.8512 35.1599 85.017 35.025 85.1699C34.897 85.3254 34.7283 85.454 34.5189 85.5556C34.319 85.6529 34.0693 85.716 33.77 85.7449C33.4732 85.7669 33.125 85.7384 32.7254 85.6593L32.8132 85.2345C33.331 85.436 33.7399 85.6476 34.0396 85.8692C34.342 86.084 34.555 86.3083 34.6786 86.5423C34.809 86.7788 34.8711 87.021 34.8647 87.269C34.8608 87.51 34.8117 87.7576 34.7172 88.0117C34.5563 88.4444 34.3076 88.7777 33.971 89.0117C33.6439 89.2413 33.2515 89.384 32.794 89.4398C32.3365 89.4955 31.833 89.4755 31.2837 89.3795C30.7412 89.2862 30.1721 89.1281 29.5764 88.9053Z" fill="#7831B2"/>
<path d="M27.9364 105.11C27.5871 104.979 27.3883 104.748 27.3397 104.417C27.2912 104.086 27.3793 103.619 27.604 103.014C27.8058 102.472 28.0375 101.964 28.2992 101.491C28.5635 101.011 28.8137 100.568 29.0499 100.164C29.2955 99.7551 29.4809 99.3825 29.606 99.046C29.6341 98.9704 29.6519 98.891 29.6594 98.8078C29.667 98.7246 29.6663 98.6109 29.6575 98.4668L29.9836 99.2576C29.5877 99.3364 29.1863 99.4718 28.7795 99.6639C28.3753 99.8491 27.981 100.081 27.5966 100.36C27.2216 100.634 26.8637 100.946 26.5231 101.296L26.2468 100.371C26.3925 100.504 26.4991 100.595 26.5668 100.643C26.6345 100.692 26.7333 100.741 26.8634 100.79C27.1921 100.912 27.5216 101.012 27.852 101.089C28.1848 101.159 28.5271 101.224 28.8788 101.285C29.2304 101.346 29.5988 101.425 29.9839 101.522C30.3784 101.615 30.7982 101.745 31.2433 101.911C31.4145 101.975 31.5482 102.088 31.6443 102.249C31.7429 102.403 31.8014 102.581 31.8197 102.784C31.8406 102.979 31.8153 103.173 31.7438 103.366C31.6723 103.558 31.5597 103.703 31.4059 103.802C31.2615 103.897 31.0729 103.901 30.8401 103.814C30.2991 103.611 29.7972 103.451 29.3342 103.333C28.8781 103.217 28.4433 103.117 28.03 103.033C27.6193 102.942 27.2098 102.847 26.8016 102.749C26.4003 102.654 25.9873 102.527 25.5628 102.368C25.3231 102.279 25.1312 102.144 24.9872 101.965C24.8526 101.782 24.7645 101.589 24.7231 101.385C24.6885 101.185 24.7019 101.002 24.7632 100.837C24.8576 100.583 24.994 100.321 25.1723 100.052C25.36 99.7775 25.6584 99.4784 26.0675 99.1542C26.5168 98.806 26.9687 98.5134 27.4233 98.2767C27.8848 98.0425 28.3246 97.8667 28.7426 97.7492C29.1633 97.6249 29.5369 97.5534 29.8636 97.5348C30.1929 97.5093 30.4534 97.5324 30.6452 97.6041C30.967 97.7245 31.2038 97.8952 31.3556 98.1162C31.51 98.3304 31.5955 98.5618 31.6122 98.8106C31.6358 99.0619 31.608 99.294 31.5289 99.5069C31.3808 99.9052 31.2129 100.273 31.0254 100.609C30.8447 100.949 30.6549 101.28 30.4562 101.605C30.2644 101.932 30.0721 102.271 29.8795 102.621C29.6962 102.967 29.5254 103.353 29.3671 103.779C29.2752 104.026 29.2208 104.225 29.204 104.375C29.1897 104.519 29.157 104.659 29.1059 104.796C29.0293 105.002 28.8837 105.132 28.6691 105.184C28.4614 105.24 28.2171 105.215 27.9364 105.11Z" fill="#7831B2"/>
<path d="M20.1228 119.851C19.7188 119.7 19.4036 119.52 19.1774 119.31C18.9606 119.096 18.8242 118.865 18.7681 118.617C18.7189 118.372 18.7441 118.116 18.8437 117.848C18.9254 117.628 19.0491 117.463 19.2149 117.353C19.39 117.239 19.594 117.225 19.8268 117.312C19.9158 117.345 19.9835 117.394 20.0298 117.458C20.0787 117.516 20.1237 117.583 20.1649 117.661C20.2087 117.732 20.2674 117.805 20.3411 117.88C20.4173 117.947 20.5308 118.009 20.6815 118.066C20.9211 118.155 21.1753 118.227 21.444 118.28C21.7127 118.334 21.9706 118.364 22.2178 118.37C22.4719 118.379 22.6878 118.354 22.8656 118.296C23.0435 118.237 23.1592 118.136 23.2128 117.991C23.246 117.902 23.2548 117.815 23.2393 117.731C23.2263 117.641 23.1615 117.542 23.045 117.436C22.9353 117.332 22.749 117.204 22.4861 117.051C21.9312 116.718 21.4893 116.428 21.1604 116.18C20.8409 115.927 20.6121 115.693 20.4739 115.477C20.3384 115.254 20.2747 115.027 20.2828 114.795C20.2909 114.564 20.3499 114.3 20.4597 114.005C20.5363 113.799 20.6424 113.577 20.7779 113.338C20.9229 113.095 21.1042 112.838 21.3218 112.567C21.4455 112.402 21.5685 112.292 21.6907 112.236C21.8129 112.18 21.9665 112.187 22.1514 112.256C22.5417 112.402 22.8798 112.52 23.1656 112.611C23.4609 112.698 23.7288 112.775 23.9693 112.842C24.2166 112.911 24.4592 112.982 24.6972 113.055C24.9445 113.124 25.212 113.212 25.4996 113.32C25.9447 113.486 26.2355 113.732 26.3721 114.057C26.5113 114.375 26.5178 114.683 26.3918 114.98C26.316 115.162 26.1982 115.29 26.0384 115.364C25.8811 115.43 25.71 115.429 25.5251 115.359C25.1828 115.231 24.8721 115.123 24.593 115.034C24.3209 114.948 24.0508 114.867 23.783 114.79C23.5177 114.707 23.2318 114.615 22.9254 114.516C22.619 114.417 22.2685 114.29 21.8738 114.135L22.814 113.935C22.6586 114.08 22.5433 114.201 22.4682 114.298C22.4025 114.391 22.3518 114.486 22.3161 114.582C22.2956 114.637 22.2833 114.691 22.2791 114.744C22.2818 114.8 22.3097 114.861 22.3629 114.928C22.4229 114.997 22.5205 115.081 22.6559 115.178C22.7938 115.269 22.9886 115.385 23.2403 115.526C23.9271 115.924 24.4277 116.287 24.7422 116.616C25.0568 116.944 25.2314 117.272 25.2662 117.598C25.3105 117.919 25.2585 118.279 25.1104 118.678C24.9164 119.2 24.5762 119.6 24.09 119.88C23.6133 120.155 23.0349 120.295 22.3548 120.299C21.6748 120.303 20.9308 120.154 20.1228 119.851Z" fill="#7831B2"/>
<path fill-rule="evenodd" clip-rule="evenodd" d="M40.2325 0.666231L40.4207 0C115.061 18.7321 130.817 24.0545 138.829 26.7612C141.013 27.4988 142.621 28.0421 144.689 28.6097L145.284 28.7727C145.756 28.9025 146.049 29.1843 146.225 29.44L147 29.5402L146.493 31.3611C146.124 34.2699 143.84 44.3024 140.609 57.5581C137.306 71.1059 132.972 88.1841 128.549 104.904C124.126 121.62 119.61 137.993 115.942 150.126C114.11 156.186 112.482 161.218 111.177 164.713C110.528 166.45 109.939 167.863 109.427 168.843C109.177 169.321 108.901 169.785 108.597 170.141C108.448 170.316 108.225 170.545 107.923 170.722C107.611 170.905 107.074 171.108 106.437 170.933L98.1025 168.646L98.1003 168.646L98.0814 168.64L98.0787 168.64L95.8408 168.026C95.6658 167.978 95.5051 167.903 95.3617 167.808L22.018 145.358L21.9985 145.352L1.37658 139.316L1.06008 138.961C0.369203 138.186 0.144578 137.077 0.0556624 136.124C-0.040571 135.094 -0.00730651 133.84 0.119118 132.425C0.404522 126.73 2.30775 117.038 5.10101 105.491C7.91109 93.874 11.6558 80.2457 15.6721 66.6441C23.6922 39.4826 32.842 12.2688 37.8311 1.37456C38.2138 0.538801 39.1992 0.172641 40.0321 0.55672C40.1022 0.589081 40.1691 0.625736 40.2325 0.666231ZM42.6906 4.20933C38.1623 15.7004 29.0299 41.718 20.6893 67.847C16.4052 81.2681 12.3363 94.6989 9.21188 106.187C6.08267 117.692 3.93516 127.128 3.43097 132.657C3.37464 133.83 3.39862 134.741 3.48676 135.399C3.52091 135.654 3.56073 135.839 3.59585 135.969L11.32 138.601L22.9474 142.161L22.9669 142.166L105.42 166.302L142.783 32.3044C134.735 30.8933 117.08 26.1838 97.9228 20.7251C78.4846 15.1863 57.3325 8.8264 42.6906 4.20933ZM64.6693 29.803C64.848 28.9009 65.7216 28.315 66.6206 28.4943C77.8285 30.7301 88.5868 33.6826 96.5361 36.0732C100.513 37.2691 103.791 38.3258 106.077 39.0841C107.221 39.4634 108.116 39.7681 108.727 39.9784C109.032 40.0835 109.266 40.1651 109.425 40.2206L109.605 40.284L109.664 40.3047L109.667 40.3059C109.667 40.3059 109.668 40.3063 109.49 40.8114L109.668 40.3064C110.532 40.6136 110.984 41.5655 110.678 42.4325C110.662 42.4791 110.643 42.5244 110.623 42.5686C110.614 42.6566 110.598 42.745 110.573 42.8332C110.332 43.7204 109.419 44.243 108.535 44.0004L65.7181 32.252C64.834 32.0094 64.3132 31.0935 64.555 30.2063C64.5791 30.1179 64.6098 30.0331 64.6466 29.9523C64.6519 29.9027 64.6594 29.8529 64.6693 29.803ZM62.4498 40.9327C62.6285 40.0305 63.5021 39.4446 64.4011 39.6239C75.609 41.8597 86.3673 44.8122 94.3166 47.2028C98.2933 48.3987 101.572 49.4554 103.858 50.2138C105.001 50.593 105.896 50.8977 106.507 51.108C106.812 51.2132 107.047 51.2947 107.205 51.3502L107.385 51.4136L107.444 51.4344L107.447 51.4355C107.447 51.4355 107.449 51.436 107.27 51.9411L107.449 51.436C108.313 51.7433 108.765 52.6951 108.459 53.5621C108.442 53.6087 108.424 53.6541 108.404 53.6982C108.394 53.7863 108.378 53.8747 108.354 53.9628C108.112 54.8501 107.2 55.3726 106.315 55.13L63.4986 43.3816C62.6145 43.139 62.0937 42.2232 62.3354 41.3359C62.3595 41.2475 62.3903 41.1627 62.427 41.0819C62.4323 41.0323 62.4399 40.9825 62.4498 40.9327ZM48.0309 62.0407C48.2307 61.143 49.1178 60.5778 50.0124 60.7783C66.6607 64.5098 82.7531 68.9256 94.6787 72.4067C100.643 74.1477 105.568 75.6559 109.003 76.7292C110.721 77.2659 112.067 77.6939 112.983 77.988C113.442 78.135 113.793 78.2486 114.03 78.3256L114.299 78.4131L114.39 78.4428L114.391 78.4432C114.391 78.4432 114.392 78.4433 114.226 78.9531L114.391 78.4432C115.262 78.7291 115.738 79.6698 115.453 80.544C115.434 80.6042 115.411 80.6625 115.385 80.7189C115.376 80.8069 115.36 80.8952 115.335 80.9833C115.094 81.8705 114.181 82.3931 113.297 82.1505L49.0717 64.5279C48.1875 64.2853 47.6668 63.3694 47.9085 62.4822C47.9326 62.3938 47.9634 62.309 48.0001 62.2283C48.0067 62.1659 48.017 62.1033 48.0309 62.0407ZM43.5919 75.3962C43.7917 74.4986 44.6788 73.9334 45.5733 74.1339C62.2217 77.8653 78.3141 82.2812 90.2397 85.7623C96.2039 87.5033 101.129 89.0115 104.564 90.0848C106.282 90.6215 107.628 91.0495 108.544 91.3436C109.003 91.4906 109.354 91.6042 109.591 91.6811L109.86 91.7687L109.951 91.7984L109.952 91.7988C109.952 91.7988 109.953 91.7989 109.786 92.3087L109.952 91.7988C110.823 92.0847 111.299 93.0253 111.014 93.8995C110.995 93.9598 110.972 94.0181 110.946 94.0744C110.937 94.1624 110.92 94.2508 110.896 94.3389C110.655 95.2261 109.742 95.7486 108.858 95.5061L44.6326 77.8835C43.7485 77.6409 43.2278 76.725 43.4695 75.8377C43.4936 75.7494 43.5243 75.6646 43.561 75.5839C43.5677 75.5215 43.5779 75.4589 43.5919 75.3962ZM39.1528 89.8648C39.3526 88.9671 40.2397 88.4019 41.1343 88.6024C57.7826 92.3339 73.875 96.7497 85.8006 100.231C91.7648 101.972 96.69 103.48 100.125 104.553C101.843 105.09 103.189 105.518 104.105 105.812C104.564 105.959 104.915 106.073 105.152 106.15L105.421 106.237L105.512 106.267L105.513 106.267C105.513 106.267 105.514 106.267 105.347 106.777L105.513 106.267C106.384 106.553 106.86 107.494 106.575 108.368C106.556 108.428 106.533 108.487 106.507 108.543C106.498 108.631 106.481 108.719 106.457 108.807C106.216 109.695 105.303 110.217 104.419 109.975L40.1936 92.352C39.3095 92.1094 38.7887 91.1935 39.0305 90.3063C39.0545 90.2179 39.0853 90.1331 39.122 90.0524C39.1286 89.99 39.1389 89.9274 39.1528 89.8648ZM35.8235 105.446C36.0233 104.549 36.9105 103.983 37.805 104.184C54.4533 107.915 70.5458 112.331 82.4714 115.812C88.4356 117.553 93.3607 119.062 96.7961 120.135C98.5139 120.671 99.8593 121.099 100.776 121.394C101.234 121.541 101.586 121.654 101.823 121.731L102.092 121.819L102.183 121.848L102.184 121.849C102.184 121.849 102.184 121.849 102.018 122.359L102.184 121.849C103.055 122.135 103.531 123.075 103.246 123.95C103.226 124.01 103.204 124.068 103.178 124.125C103.169 124.212 103.152 124.301 103.128 124.389C102.886 125.276 101.974 125.799 101.09 125.556L36.8643 107.933C35.9802 107.691 35.4594 106.775 35.7012 105.888C35.7253 105.799 35.756 105.715 35.7927 105.634C35.7994 105.572 35.8096 105.509 35.8235 105.446ZM30.2747 121.028C30.4745 120.13 31.3617 119.565 32.2562 119.765C48.9045 123.497 64.9969 127.913 76.9225 131.394C82.8867 133.135 87.8119 134.643 91.2473 135.716C92.965 136.253 94.3105 136.681 95.2273 136.975C95.6857 137.122 96.0369 137.236 96.274 137.313L96.543 137.4L96.6338 137.43L96.635 137.43C96.635 137.43 96.6354 137.43 96.4694 137.94L96.635 137.43C97.5062 137.716 97.982 138.657 97.6971 139.531C97.6775 139.591 97.6547 139.65 97.6291 139.706C97.6198 139.794 97.6033 139.882 97.5793 139.97C97.3376 140.858 96.4249 141.38 95.5407 141.138L31.3155 123.515C30.4314 123.272 29.9106 122.356 30.1524 121.469C30.1764 121.381 30.2072 121.296 30.2439 121.215C30.2506 121.153 30.2608 121.09 30.2747 121.028Z" fill="#7831B2"/>
</svg>
