<svg width="258" height="208" viewBox="0 0 258 208" fill="none" xmlns="http://www.w3.org/2000/svg">
<path d="M2.65813 72.5677C37.2595 94.7063 110.783 132.19 135.428 114.429C161 96 202.21 32.882 221.118 4.3853M74.9418 111.399C66.5089 138.995 48.1456 196.028 42.1551 203.392M42.1551 203.392C48.1456 196.028 69.2827 140.7 77.7155 113.104M42.1551 203.392C82.5626 195.636 181.695 172.2 254.961 140.504C261.427 110.443 236.138 36.1335 222.686 2.73635C166.095 14.5404 43.0391 44.3193 3.53645 69.0023C-0.0351177 80.69 27.7937 163.465 42.1551 203.392ZM163.36 87.0006C187.355 104.673 238.298 139.816 250.103 139.011M4.30418 74.1388C4.30418 74.1388 104.685 138.544 137.074 116C169.463 93.4571 199.357 30.4967 218.265 2M167.355 86.0978C191.351 103.77 239.254 139.471 251.06 138.666M40.9331 206C81.3406 198.244 180.472 174.808 253.738 143.112C260.204 113.051 234.915 38.741 221.463 5.34387C164.873 17.1479 41.8161 46.9268 2.31347 71.6099C-1.2581 83.2975 26.5718 166.073 40.9331 206Z" stroke="#7831B2" stroke-width="3" stroke-linecap="round"/>
</svg>
