<svg width="297" height="261" viewBox="0 0 297 261" fill="none" xmlns="http://www.w3.org/2000/svg">
<path d="M128.678 91.0701L165.415 104.802C166.03 105.033 166.26 105.784 165.879 106.32L165.599 106.712C165.336 107.08 164.859 107.226 164.435 107.068L127.196 93.148M128.678 91.0701L127.196 93.148M128.678 91.0701L135.307 130.666C135.346 130.903 135.29 131.145 135.151 131.339V131.339C134.684 131.994 133.659 131.757 133.527 130.964L127.196 93.148M16.5441 68.2916C51.7277 50.7016 170.455 10.3606 252.77 19.6086C253.21 19.6581 253.557 19.9921 253.632 20.4286L276.523 152.312M276.436 147.369L253.72 20.6828C253.572 19.8622 252.544 19.5729 251.988 20.1946V20.1946C251.78 20.4279 251.692 20.7458 251.752 21.0529L276.436 147.369ZM276.436 147.369L277.5 152.813M37.9838 190.578L39.1159 197.132L39.4466 198.366L37.9838 190.578ZM37.9838 190.578L17.7681 68.8091C17.6688 68.2105 16.9739 67.9259 16.4832 68.2829V68.2829C16.2303 68.4669 16.1049 68.7792 16.1601 69.087L37.9838 190.578ZM169.434 205.777L176.763 247.577M176.763 247.577L121.429 259M176.763 247.577L236.611 237.482M169.012 204.871L176.341 246.67M176.341 246.67L121.007 258.094M176.341 246.67L187.522 244.63M187.522 244.63L236.643 236.364M187.522 244.63L179.13 202.918M194.964 102.801C194.258 97.9811 192.744 93.4566 190.56 89.319C181.282 71.7418 159.906 61.1457 136.985 64.5013C108.669 68.6468 88.7164 92.5155 92.4204 117.814C93.1261 122.634 94.6398 127.158 96.8238 131.296C106.102 148.873 127.477 159.469 150.398 156.114C178.715 151.968 198.667 128.099 194.964 102.801ZM27.2034 210.796L2.18685 61.3621C2.14373 61.1045 2.21431 60.8409 2.38036 60.6394V60.6394C2.8725 60.042 3.83902 60.3008 3.96681 61.0641L28.9834 210.498C29.0265 210.755 28.9559 211.019 28.7899 211.221V211.221C28.2977 211.818 27.3312 211.559 27.2034 210.796ZM293.389 163.113C247.357 185.976 130.618 227.661 29.1409 212.987C28.4024 212.88 28.0446 212.03 28.4779 211.423L28.6573 211.171C28.876 210.864 29.247 210.707 29.6195 210.762C129.907 225.647 245.407 185.135 292.891 162.009C293.453 161.736 293.968 162.418 293.605 162.927V162.927C293.548 163.007 293.477 163.07 293.389 163.113ZM276.433 153.431C246.996 172.922 140.423 211.398 40.217 198.997C39.4674 198.904 39.092 198.044 39.5305 197.429L39.6957 197.198C39.91 196.897 40.273 196.74 40.6391 196.786C142.166 209.726 246.272 170.763 274.45 151.413C274.752 151.206 275.116 151.194 275.444 151.357L276.27 151.767C276.95 152.104 277.067 153.012 276.433 153.431ZM4.68779 60.8464C51.6757 36.2976 167.15 -3.05331 261.559 7.59084C261.954 7.63544 262.336 7.44192 262.536 7.09741L262.722 6.7761C263.083 6.15289 262.693 5.36497 261.977 5.28666C166.441 -5.16368 49.6695 35.2431 4.08599 59.6321C3.97609 59.6909 3.8914 59.7757 3.82894 59.8836V59.8836C3.49022 60.4685 4.08874 61.1594 4.68779 60.8464ZM28.2694 212.931C129.535 227.781 246.324 186.398 292.871 163.478C293.28 163.277 293.476 162.835 293.382 162.389L260.133 4.62194C260.043 4.19203 259.683 3.8715 259.245 3.83322C159.411 -4.89777 50.7831 38.9052 2.70689 59.0215C2.27898 59.2005 2.05381 59.6406 2.12997 60.0982L27.432 212.107C27.5032 212.535 27.8404 212.868 28.2694 212.931ZM128.987 92.7831L135.105 129.332C135.232 130.091 136.134 130.428 136.728 129.938L165.322 106.365C165.916 105.876 165.757 104.926 165.036 104.657L130.323 91.6813C129.602 91.4117 128.86 92.0239 128.987 92.7831ZM135.825 131.519L165.123 107.367C165.145 107.348 165.165 107.327 165.181 107.303V107.303C165.406 106.989 165 106.611 164.702 106.857L135.405 131.01C135.382 131.028 135.363 131.049 135.346 131.073V131.073C135.122 131.387 135.527 131.765 135.825 131.519ZM259.921 3.48114L293.077 160.957C293.246 161.758 294.286 161.975 294.761 161.309V161.309C294.913 161.095 294.969 160.827 294.915 160.57L261.759 3.09416C261.59 2.29375 260.55 2.07638 260.075 2.74231V2.74231C259.923 2.95615 259.867 3.22411 259.921 3.48114ZM127.477 94.8569L133.596 131.405C133.723 132.165 134.624 132.502 135.218 132.012L163.812 108.439C164.406 107.949 164.248 107 163.526 106.731L128.814 93.755C128.093 93.4855 127.35 94.0976 127.477 94.8569Z" stroke="#7831B2" stroke-width="3" stroke-linecap="round" stroke-linejoin="round"/>
</svg>
