<svg width="267" height="219" viewBox="0 0 267 219" fill="none" xmlns="http://www.w3.org/2000/svg">
<path fill-rule="evenodd" clip-rule="evenodd" d="M204.191 4.16776C194.973 8.52777 171.773 17.0209 146.38 25.801C121.748 34.3179 94.9382 43.1437 76.5535 48.8049C80.5419 66.0065 91.7957 106.075 103.494 142.806C109.502 161.669 115.616 179.618 120.913 193.118C123.564 199.873 125.996 205.478 128.097 209.517C128.255 209.821 128.411 210.115 128.564 210.4C129.333 211.726 130.038 212.811 130.672 213.645C131.378 214.574 131.896 215.054 132.218 215.268L142.543 212.348L157.345 207.654L262.052 173.036L204.191 4.16776ZM258.968 154.78L234.431 83.1699C234.976 84.6791 235.521 86.1905 236.064 87.7023C243.819 109.28 251.346 130.923 256.603 147.28C257.455 149.929 258.246 152.436 258.968 154.78ZM255.073 179.812C255.065 179.815 255.057 179.818 255.048 179.821L252.235 180.804C252.053 180.868 251.867 180.894 251.685 180.888L158.27 210.508L133.081 218.836C132.772 218.938 132.204 219.082 131.546 218.818C130.43 218.37 129.417 217.278 128.507 216.036C127.7 214.934 126.844 213.527 125.946 211.865C125.673 211.394 125.397 210.901 125.116 210.386C122.864 206.251 120.275 200.583 117.484 193.847C111.897 180.368 105.44 162.477 99.1577 143.715C86.6049 106.225 74.6859 65.0578 71.8027 48.4957L71.5893 47.2698L72.7548 46.8336C165.954 11.9538 185.818 5.84761 196.194 2.65811C198.851 1.84129 200.886 1.21575 203.371 0.347196L204.113 0.0877223C204.844 -0.167731 205.406 0.207216 205.531 0.296028C205.716 0.427136 205.842 0.574259 205.905 0.650954C206.043 0.819972 206.165 1.01833 206.263 1.19065C206.472 1.55456 206.726 2.06644 207.016 2.68811C207.599 3.94372 208.389 5.78414 209.347 8.11215C211.268 12.7748 213.897 19.463 216.979 27.5011C223.143 43.5805 231.127 65.0958 238.887 86.6876C246.647 108.277 254.187 129.957 259.46 146.362C262.094 154.559 264.171 161.465 265.426 166.391C266.051 168.846 266.484 170.858 266.674 172.311C266.768 173.024 266.814 173.689 266.766 174.234C266.742 174.502 266.688 174.837 266.544 175.161C266.397 175.492 266.082 175.964 265.471 176.178L255.073 179.812ZM188.999 35.5498C188.987 35.4376 188.962 35.3249 188.923 35.2137C188.649 34.4316 187.794 34.0193 187.012 34.2926L148.983 47.5843C148.201 47.8576 147.789 48.7131 148.062 49.4952C148.101 49.6058 148.151 49.7091 148.211 49.8041C148.223 49.9164 148.248 50.029 148.287 50.1402C148.56 50.9223 149.416 51.3346 150.198 51.0613L188.227 37.7696C189.009 37.4963 189.421 36.6408 189.148 35.8587C189.109 35.7481 189.059 35.6448 188.999 35.5498ZM195.935 51.4403C195.746 50.7845 195.745 50.7845 195.745 50.7845L195.674 50.8051L195.469 50.8651C195.288 50.9179 195.022 50.9961 194.678 51.0978C193.99 51.3011 192.993 51.5987 191.75 51.9763C189.265 52.7314 185.799 53.8068 181.872 55.0888C174.031 57.6482 164.3 61.0474 156.876 64.3735C156.12 64.7122 155.781 65.5996 156.12 66.3556C156.15 66.4224 156.184 66.4858 156.222 66.5459C156.234 66.6583 156.259 66.7711 156.298 66.8824C156.571 67.6644 157.427 68.0768 158.209 67.8035L196.882 54.2865C197.664 54.0132 198.077 53.1577 197.803 52.3756C197.765 52.2649 197.714 52.1616 197.654 52.0665C197.645 51.9807 197.628 51.8945 197.603 51.8088C197.373 51.0129 196.541 50.5544 195.745 50.7845L195.935 51.4403ZM207.41 73.6941C207.438 73.7858 207.456 73.8782 207.466 73.9701C207.526 74.065 207.577 74.1681 207.615 74.2787C207.888 75.0607 207.476 75.9163 206.694 76.1896L113.878 108.63C113.096 108.904 112.241 108.491 111.967 107.709C111.928 107.598 111.903 107.485 111.891 107.372C111.842 107.294 111.799 107.21 111.764 107.121C111.459 106.351 111.836 105.479 112.606 105.174C135.99 95.9141 159.222 87.7944 176.604 81.9908C185.296 79.0886 192.527 76.7648 197.587 75.1662C200.117 74.3669 202.104 73.7489 203.459 73.3305C204.137 73.1213 204.656 72.962 205.007 72.8549C205.112 72.8226 205.203 72.7951 205.277 72.7724L205.538 72.6932L205.539 72.6927C205.539 72.6927 205.54 72.6926 205.738 73.3464L205.539 72.6927C206.332 72.4529 207.17 72.9011 207.41 73.6941ZM214.004 92.5923C214.031 92.6839 214.05 92.776 214.06 92.8677C214.12 92.9627 214.17 93.066 214.209 93.1768C214.482 93.9588 214.07 94.8143 213.288 95.0877L120.472 127.528C119.69 127.802 118.834 127.389 118.561 126.607C118.522 126.496 118.497 126.383 118.485 126.271C118.436 126.193 118.393 126.109 118.357 126.02C118.052 125.249 118.429 124.378 119.2 124.073C142.583 114.812 165.815 106.693 183.197 100.889C191.889 97.9869 199.121 95.663 204.181 94.0645C206.71 93.2652 208.697 92.6471 210.053 92.2287C210.73 92.0195 211.25 91.8603 211.6 91.7532C211.776 91.6996 211.909 91.6591 211.998 91.632L212.131 91.5915L212.133 91.591C212.133 91.591 212.134 91.5908 212.331 92.2445L212.133 91.591C212.926 91.3512 213.764 91.7994 214.004 92.5923ZM220.597 111.49C220.625 111.582 220.644 111.674 220.653 111.766C220.714 111.861 220.764 111.964 220.803 112.075C221.076 112.857 220.664 113.712 219.882 113.986L127.066 146.426C126.284 146.7 125.428 146.287 125.155 145.505C125.116 145.394 125.091 145.281 125.079 145.169C125.029 145.091 124.986 145.007 124.951 144.918C124.646 144.147 125.023 143.276 125.793 142.971C149.177 133.71 172.409 125.591 189.791 119.787C198.483 116.885 205.715 114.561 210.774 112.963C213.304 112.163 215.291 111.545 216.646 111.127C217.324 110.918 217.844 110.758 218.194 110.651C218.287 110.623 218.369 110.598 218.438 110.577L218.725 110.49L218.727 110.489C218.727 110.489 218.727 110.489 218.925 111.143L218.727 110.489C219.52 110.249 220.358 110.697 220.597 111.49ZM225.519 130.041C225.321 129.387 225.321 129.387 225.321 129.387L225.319 129.388L225.186 129.428C225.096 129.455 224.963 129.496 224.788 129.549C224.437 129.656 223.918 129.816 223.24 130.025C221.885 130.443 219.898 131.061 217.368 131.861C212.309 133.459 205.077 135.783 196.385 138.685C179.003 144.489 155.771 152.609 132.387 161.869C131.617 162.174 131.24 163.046 131.545 163.816C131.58 163.905 131.623 163.989 131.673 164.067C131.685 164.18 131.71 164.292 131.749 164.403C132.022 165.186 132.877 165.598 133.659 165.325L226.475 132.884C227.257 132.611 227.67 131.755 227.397 130.973C227.358 130.862 227.307 130.759 227.247 130.664C227.237 130.572 227.219 130.48 227.191 130.389C226.951 129.596 226.114 129.147 225.321 129.387L225.519 130.041ZM233.785 149.287C233.813 149.378 233.831 149.47 233.841 149.562C233.901 149.657 233.952 149.76 233.99 149.871C234.264 150.653 233.851 151.509 233.069 151.782L140.253 184.223C139.471 184.496 138.616 184.084 138.342 183.302C138.303 183.19 138.278 183.078 138.266 182.965C138.217 182.887 138.174 182.803 138.139 182.714C137.834 181.944 138.211 181.072 138.981 180.767C162.365 171.507 185.597 163.387 202.979 157.583C211.671 154.681 218.902 152.357 223.962 150.759C226.492 149.959 228.479 149.341 229.834 148.923C230.512 148.714 231.031 148.555 231.382 148.447L231.583 148.386C231.662 148.362 231.728 148.342 231.779 148.326L231.913 148.286L231.914 148.285C231.914 148.285 231.915 148.285 232.113 148.939L231.914 148.285C232.707 148.045 233.545 148.494 233.785 149.287Z" fill="#7831B2"/>
<path d="M2.13027 120.841C1.94149 119.865 1.871 118.85 2.19379 117.836C3.12692 114.287 6.41968 110.744 10.3109 111.025C13.4155 111.305 16.5044 113.537 18.9282 115.337C21.5087 117.216 24.0477 119.367 26.5099 121.285C30.1456 123.985 33.7014 126.842 37.2572 129.698C38.8209 130.872 40.2662 132.085 41.75 133.415C41.9482 133.221 42.3414 133.222 42.4566 133.573C42.6517 133.769 42.7668 134.12 42.8436 134.354C43.5118 134.395 44.1769 134.826 44.6854 135.178C45.7022 135.882 46.6807 136.47 47.6975 137.175C50.1245 138.585 52.4715 140.151 54.7802 141.6C56.9322 142.97 58.9275 144.262 61.0411 145.516C62.4896 146.338 64.5264 147.357 65.6553 148.804C65.9302 148.843 66.0869 148.922 66.2021 149.273C68.5554 150.059 71.273 149.558 73.7126 149.407C74.1058 149.408 74.5759 149.643 74.5727 150.033C75.3341 153.157 76.4504 156.164 77.9216 159.055C78.6188 160.383 79.5526 161.634 80.448 162.767C80.8765 163.275 81.3434 163.901 81.6536 164.448C82.1205 165.073 82.3508 165.776 82.7793 166.284C83.0127 166.597 82.6163 166.986 82.303 166.83C79.6809 165.224 76.458 164.983 73.51 164.781C69.8938 164.539 66.4727 164.492 63.0038 165.499C62.5306 165.654 62.0605 165.419 61.907 164.95C61.6031 163.623 61.4558 162.374 61.0336 161.085C60.6881 160.031 60.1445 159.171 59.7191 158.273C58.7759 158.193 58.1108 157.762 57.3274 157.37C55.9972 156.509 54.667 155.647 53.3368 154.786C50.6764 153.063 47.9776 151.223 45.3172 149.5C42.8135 147.856 40.3481 146.328 37.9243 144.528C37.4159 144.176 36.5941 143.667 36.1272 143.041C35.6156 143.079 35.0273 142.883 34.439 142.686C33.5373 142.333 32.7954 141.668 31.8937 141.315C30.6787 140.805 29.4636 140.295 28.3669 139.746C23.6665 137.395 19.2058 134.575 14.6653 131.912C11.6116 130.188 8.47801 128.62 5.78236 126.39C4.72713 125.568 3.8701 124.552 3.13138 123.496C3.04832 124.043 3.04519 124.433 3.11881 125.057C3.30444 126.423 3.92173 127.908 4.69883 129.08C6.32982 131.659 9.18528 133.577 11.8073 135.183C14.5476 136.75 17.208 138.473 20.0283 139.884C22.6918 141.216 26.1035 142.434 28.051 144.779C28.6362 145.366 28.1951 146.419 27.3318 146.182C25.5253 145.866 23.8018 145.004 22.235 144.22C20.5499 143.475 18.9447 142.574 17.2596 141.829C13.9694 140.183 11.1555 137.991 8.30313 135.683C5.80254 133.648 3.22519 131.379 1.95224 128.293C1.22294 126.068 0.151339 122.397 2.13027 120.841ZM73.9958 163.065C75.489 163.225 76.9022 163.54 78.4722 163.934C77.142 163.072 75.9301 162.172 74.5999 161.31C73.2697 160.449 71.9011 159.47 70.5709 158.609C70.0625 158.257 69.554 157.904 69.0456 157.552C68.6939 157.278 68.2238 157.043 68.0703 156.574C68.0319 156.457 68.1118 156.301 68.2301 156.263C68.7033 156.108 69.2117 156.46 69.5635 156.734C70.0719 157.086 70.5803 157.438 71.0887 157.791C72.4189 158.652 73.6692 159.67 74.9994 160.531C75.8596 161.157 76.8764 161.862 77.7366 162.488C77.2313 161.746 76.726 161.003 76.3391 160.222C74.9063 157.448 74.7364 154.131 73.3036 151.357C71.0176 151.976 68.5428 151.62 66.3877 150.639C66.4135 152.317 65.7711 153.955 64.5403 155.396C63.7858 156.292 62.7149 157.421 61.452 157.965C61.839 158.746 62.1077 159.566 62.4563 160.23C62.8018 161.284 63.1856 162.456 63.4127 163.549C66.9201 162.659 70.4595 162.667 73.9958 163.065ZM45.7356 146.379C48.2393 148.024 50.7815 149.785 53.2053 151.586C54.6122 152.681 56.0192 153.777 57.4262 154.873C58.6381 155.773 59.6902 156.985 61.1129 156.13C63.4435 154.847 65.077 152.236 64.9807 149.544C64.3156 149.113 63.6121 148.565 62.9086 148.017C61.9302 147.43 60.8334 146.881 59.8934 146.411C57.8369 145.382 55.9885 144.285 54.153 143.184C54.0307 143.11 53.9083 143.037 53.786 142.963C51.4773 141.514 49.2071 140.183 46.9368 138.851C45.9583 138.263 45.0598 137.52 44.0813 136.932C43.7679 136.776 43.4162 136.502 42.9846 136.384C42.4956 138.49 40.7086 140.632 39.2444 141.76C39.1261 141.799 39.1261 141.799 39.0462 141.955C41.1982 143.326 43.4269 144.93 45.7356 146.379ZM5.27014 121.628C6.78283 124.246 9.8365 125.97 12.2635 127.38C15.4738 129.182 18.6842 130.984 21.6963 132.981C23.8099 134.234 25.8436 135.643 27.8773 137.053C29.8726 138.345 31.788 139.793 33.9047 140.656C34.6881 141.048 35.5898 141.401 36.4947 141.364C37.5178 141.288 38.3905 140.354 39.0651 139.614C40.2543 138.446 41.3284 136.926 41.4593 135.327C37.6254 132.821 33.9928 129.73 30.4753 126.991C25.9027 123.43 21.4068 120.103 16.6743 116.854C14.5223 115.483 11.3982 112.745 8.63586 113.909C5.67847 114.878 3.524 118.698 5.27014 121.628Z" fill="#7831B2"/>
<path fill-rule="evenodd" clip-rule="evenodd" d="M1.23304 117.558C1.75162 115.606 2.90686 113.673 4.47102 112.254C6.04531 110.825 8.09915 109.863 10.3831 110.028L10.3919 110.029L10.4007 110.029C12.1503 110.187 13.8399 110.887 15.3627 111.738C16.8876 112.59 18.3116 113.633 19.5208 114.531C21.1865 115.744 22.8569 117.087 24.4781 118.39C25.3753 119.112 26.2575 119.821 27.1153 120.489C30.7613 123.197 34.3247 126.06 37.8708 128.909C39.3055 129.987 40.6397 131.095 41.9873 132.288C42.0835 132.282 42.1806 132.286 42.2771 132.3C42.7053 132.361 43.0943 132.619 43.3109 133.033C43.431 133.188 43.5173 133.348 43.5788 133.478C44.2859 133.687 44.8906 134.103 45.2549 134.356C45.7485 134.698 46.2344 135.013 46.735 135.337L46.7408 135.341C47.2256 135.655 47.7244 135.978 48.2342 136.33C49.9185 137.31 51.5764 138.371 53.1886 139.403C53.9059 139.862 54.6142 140.315 55.3117 140.753L55.3173 140.756C55.662 140.976 56.002 141.193 56.3385 141.408C58.1091 142.538 59.7842 143.608 61.543 144.651C61.7055 144.743 61.8809 144.841 62.0655 144.943C62.6623 145.276 63.3542 145.661 64.0116 146.087C64.7861 146.588 65.5852 147.19 66.2207 147.919C66.344 147.966 66.4756 148.033 66.603 148.133C66.7213 148.225 66.8167 148.329 66.8945 148.437C67.8081 148.679 68.8108 148.731 69.8891 148.692C70.6355 148.665 71.3244 148.603 72.0306 148.539C72.5513 148.492 73.0814 148.444 73.6509 148.409L73.6828 148.407L73.7148 148.407C74.0877 148.408 74.4945 148.514 74.8349 148.735C75.1502 148.939 75.5125 149.321 75.566 149.885C76.3079 152.899 77.3889 155.802 78.8099 158.595C79.4589 159.83 80.3383 161.015 81.223 162.135C81.6573 162.651 82.1452 163.3 82.4929 163.901C82.7444 164.248 82.9346 164.604 83.0847 164.886C83.0943 164.904 83.1037 164.922 83.1129 164.939C83.2892 165.269 83.408 165.479 83.5438 165.64L83.5629 165.662L83.5806 165.686C84.0496 166.314 83.8391 167.028 83.4771 167.416C83.1443 167.772 82.503 168.048 81.8555 167.724L81.8172 167.705L81.7807 167.682C79.4027 166.226 76.4352 165.983 73.4432 165.779C69.8542 165.538 66.5838 165.504 63.2958 166.456C62.3123 166.767 61.2829 166.257 60.9567 165.262L60.9424 165.218L60.9322 165.174C60.8092 164.636 60.7171 164.154 60.6299 163.697C60.4783 162.902 60.3416 162.185 60.0833 161.397C59.8722 160.752 59.6048 160.242 59.3062 159.672C59.2234 159.514 59.1382 159.352 59.0511 159.18C58.3166 159.018 57.71 158.699 57.2096 158.435C57.0941 158.374 56.9843 158.317 56.88 158.264L56.8304 158.24L52.7932 155.625C51.4581 154.761 50.1142 153.867 48.7763 152.978L48.7734 152.976C47.4327 152.084 46.0979 151.197 44.7736 150.34L44.7682 150.336C44.1905 149.957 43.6109 149.581 43.0305 149.205C41.1288 147.972 39.2191 146.735 37.3417 145.341C37.2907 145.306 37.2317 145.266 37.1662 145.222C36.7746 144.958 36.1539 144.541 35.6575 144.026C35.1185 143.969 34.5951 143.793 34.2017 143.661C34.1746 143.652 34.1481 143.643 34.1223 143.635L34.0981 143.627L34.0743 143.617C33.538 143.407 33.0612 143.112 32.6688 142.869L32.6397 142.851C32.2157 142.588 31.8811 142.384 31.529 142.246L31.5178 142.242L31.4894 142.23C30.2865 141.725 29.046 141.204 27.9194 140.641C24.3575 138.858 20.9211 136.804 17.5225 134.772C16.4008 134.102 15.2832 133.433 14.1665 132.778C13.6333 132.477 13.0919 132.178 12.5464 131.877C10.0365 130.491 7.43989 129.057 5.15613 127.17C4.95884 127.016 4.76846 126.856 4.58454 126.691C4.83571 127.337 5.16261 127.97 5.53234 128.527L5.53827 128.536L5.544 128.545C7.03324 130.9 9.68734 132.712 12.3168 134.322C13.2607 134.862 14.178 135.41 15.0859 135.952C16.8746 137.019 18.6271 138.065 20.4757 138.99C21.0045 139.254 21.5624 139.513 22.1479 139.786C22.282 139.848 22.4175 139.911 22.5544 139.975C23.2815 140.314 24.0394 140.674 24.7796 141.07C26.24 141.851 27.7019 142.806 28.7953 144.11C29.373 144.72 29.445 145.568 29.1388 146.217C28.8085 146.916 28.0321 147.385 27.1195 147.16C25.1831 146.813 23.3643 145.903 21.8442 145.143L21.8087 145.125C20.9522 144.745 20.1193 144.329 19.3104 143.924L19.2999 143.919C18.4738 143.505 17.6724 143.105 16.8552 142.743L16.8335 142.734L16.8122 142.723C13.4151 141.023 10.5271 138.769 7.674 136.46L7.67198 136.458C5.17981 134.43 2.40829 132.021 1.02782 128.675L1.01357 128.64L1.00194 128.605C0.637422 127.492 0.151076 125.917 0.028881 124.396C-0.0760008 123.091 0.0697203 121.575 1.05557 120.481C0.92678 119.577 0.912861 118.58 1.23304 117.558ZM70.6125 150.658C71.1788 150.623 71.7641 150.571 72.3238 150.522C72.4174 150.513 72.5103 150.505 72.6022 150.497C71.9524 150.632 71.2843 150.683 70.6125 150.658ZM78.5569 161.932C78.9249 162.441 79.3006 162.928 79.6632 163.387L79.6731 163.4L79.6834 163.412C80.0907 163.895 80.5153 164.468 80.7837 164.941L80.8147 164.996L80.8261 165.011C80.0565 164.723 79.2653 164.51 78.471 164.347L79.0157 163.094C78.6829 162.879 78.3572 162.66 78.033 162.439L78.5569 161.932ZM58.0187 156.599C57.9565 156.568 57.892 156.535 57.8249 156.501L53.8803 153.946C52.5561 153.089 51.2213 152.201 49.8806 151.31L49.8777 151.308C48.5406 150.419 47.1976 149.527 45.8633 148.662C45.2639 148.269 44.6707 147.884 44.0827 147.503C42.1877 146.275 40.3461 145.081 38.5206 143.725L38.5074 143.715L38.4939 143.706C38.4109 143.649 38.3272 143.591 38.2437 143.534C37.7291 143.183 37.2227 142.837 36.9285 142.443L36.8425 142.328C37.2472 142.258 37.6141 142.107 37.9393 141.922L37.7409 142.309L38.509 142.799C39.4973 143.428 40.5033 144.108 41.54 144.809C41.6172 144.862 41.6945 144.914 41.7721 144.966C42.8835 145.718 44.0278 146.488 45.1953 147.221C47.6793 148.853 50.1991 150.599 52.5999 152.382L56.8207 155.669L56.8299 155.676C57.0096 155.809 57.1681 155.936 57.3391 156.073C57.4506 156.162 57.5674 156.256 57.699 156.358C57.8006 156.437 57.9073 156.519 58.0187 156.599ZM53.8107 150.79L53.8015 150.783C51.3602 148.97 48.8021 147.197 46.2846 145.544L46.2759 145.538L46.2672 145.532C45.129 144.818 44.0076 144.063 42.8922 143.309C42.8131 143.256 42.7341 143.202 42.655 143.149C41.9989 142.705 41.344 142.262 40.6936 141.833C41.7897 140.798 42.9251 139.353 43.5726 137.795C43.5802 137.799 43.5879 137.803 43.5956 137.807C44.0365 138.074 44.4662 138.378 44.9306 138.707L44.9449 138.718C45.4047 139.044 45.9001 139.395 46.422 139.708L46.4308 139.713C48.7029 141.046 50.9604 142.371 53.2544 143.81L53.2628 143.816L53.6385 144.041C55.4741 145.142 57.3518 146.257 59.4459 147.305C60.3751 147.77 61.4155 148.291 62.3426 148.844C62.8733 149.257 63.429 149.689 63.9762 150.072C63.8578 152.182 62.5165 154.216 60.6307 155.254L60.614 155.263L60.5976 155.273C60.3864 155.4 60.2387 155.424 60.1304 155.421C60.0108 155.418 59.8597 155.381 59.6525 155.273C59.4396 155.162 59.2081 154.999 58.9279 154.78C58.8408 154.713 58.7417 154.633 58.6365 154.549C58.4437 154.395 58.2303 154.225 58.0318 154.077L53.8107 150.79ZM39.3349 132.636C37.4834 131.285 35.6747 129.842 33.8805 128.411C32.9477 127.666 32.0188 126.925 31.0898 126.202C26.5043 122.631 21.9922 119.292 17.2403 116.029L17.2261 116.02L17.2115 116.01C16.9228 115.826 16.5859 115.595 16.2165 115.34C15.3665 114.756 14.3439 114.052 13.3376 113.54C11.8718 112.793 10.0699 112.238 8.28595 112.972C6.53766 113.558 5.07622 114.952 4.2871 116.602C3.4869 118.274 3.33091 120.322 4.40754 122.134C5.25886 123.605 6.517 124.784 7.82701 125.759C9.06168 126.678 10.3967 127.453 11.5507 128.122C11.6215 128.163 11.6917 128.204 11.7611 128.244L11.7675 128.248L11.774 128.252C14.9902 130.057 18.1677 131.841 21.1438 133.814L21.1647 133.828L21.1863 133.841C23.2643 135.073 25.269 136.462 27.3077 137.875L27.3206 137.884L27.3337 137.892C27.7509 138.162 28.175 138.447 28.6063 138.737C28.6274 138.751 28.6485 138.765 28.6697 138.779C25.2331 137.051 21.9342 135.079 18.599 133.085C17.4629 132.406 16.3226 131.724 15.1712 131.049L15.1641 131.045L15.1568 131.041C14.5856 130.718 14.0177 130.404 13.4551 130.093C10.9497 128.708 8.54828 127.38 6.41981 125.619L6.40843 125.61L6.39679 125.601C5.44777 124.862 4.65645 123.931 3.95058 122.923L2.93853 121.477L3.2279 121.25L3.11206 120.651C2.93745 119.748 2.89681 118.924 3.14665 118.14L3.15441 118.115L3.16091 118.09C3.5786 116.502 4.53323 114.898 5.81508 113.735C7.09093 112.577 8.6258 111.909 10.2299 112.022C11.5822 112.146 12.9863 112.701 14.387 113.484C15.7871 114.266 17.1181 115.238 18.3319 116.14L18.3396 116.145C19.9745 117.336 21.5709 118.619 23.1634 119.9C24.0732 120.632 24.9818 121.362 25.8955 122.074L25.9045 122.081L25.9136 122.088C29.5316 124.775 33.0726 127.619 36.631 130.478L36.6437 130.488L36.6568 130.498C37.5786 131.19 38.4599 131.897 39.3349 132.636ZM2.3287 122.123L2.14275 123.346C2.06171 123.879 2.04649 124.299 2.09007 124.824C2.061 124.626 2.03803 124.43 2.02246 124.236C1.94842 123.314 2.05288 122.615 2.3287 122.123ZM2.72311 127.423C3.02958 128.21 3.42271 128.963 3.8594 129.623C5.63058 132.418 8.67748 134.439 11.2851 136.036L11.2979 136.044L11.3109 136.051C12.1899 136.554 13.0771 137.083 13.9734 137.618C15.8021 138.708 17.6688 139.822 19.5808 140.778C20.138 141.057 20.7282 141.331 21.3153 141.604C21.4468 141.665 21.5781 141.726 21.7088 141.787C22.4315 142.124 23.1476 142.465 23.8367 142.834C25.0733 143.495 26.1665 144.216 26.9924 145.092C25.5339 144.746 24.1079 144.039 22.6825 143.326L22.6612 143.315L22.6394 143.306C21.8223 142.944 21.0209 142.543 20.1948 142.13L20.1846 142.125C19.3757 141.72 18.5427 141.304 17.6862 140.924C14.5122 139.333 11.7786 137.209 8.93394 134.907C6.43509 132.873 4.06108 130.754 2.89067 127.946C2.83544 127.777 2.77917 127.602 2.72311 127.423ZM73.9004 162.049C70.6856 161.7 67.42 161.67 64.1536 162.352C63.9307 161.518 63.6581 160.686 63.4152 159.945L63.3806 159.839L63.3417 159.765C63.1924 159.481 63.055 159.153 62.893 158.76L62.8722 158.709C62.8314 158.611 62.7893 158.508 62.7454 158.404C63.8242 157.716 64.6998 156.759 65.3028 156.043C66.3286 154.841 67.0082 153.487 67.2689 152.057C69.0113 152.631 70.9018 152.836 72.7404 152.507C73.2069 153.595 73.5206 154.776 73.8542 156.044L73.8671 156.093C74.1306 157.094 74.4086 158.151 74.7956 159.187C74.4113 158.919 74.0268 158.639 73.6327 158.352L73.622 158.345C72.9881 157.883 72.3289 157.403 71.6456 156.96L70.1554 155.927C69.9691 155.783 69.684 155.574 69.3505 155.424C69.0037 155.269 68.4855 155.127 67.9187 155.312C67.5538 155.432 67.3222 155.698 67.2015 155.933C67.0812 156.168 66.9985 156.515 67.12 156.886C67.2789 157.371 67.5909 157.693 67.8408 157.902C67.9652 158.007 68.0909 158.097 68.1887 158.166C68.2065 158.179 68.2232 158.19 68.2391 158.202C68.3198 158.259 68.3771 158.299 68.4312 158.341L68.4531 158.358L70.0142 159.44L70.0273 159.448C70.6807 159.872 71.3455 160.325 72.022 160.786L72.0278 160.79C72.6472 161.212 73.2765 161.641 73.9004 162.049ZM69.0188 156.259L69.0199 156.261ZM16.1224 117.688C15.7217 117.432 15.3251 117.158 14.9243 116.882C14.1311 116.334 13.3214 115.776 12.4303 115.322C11.116 114.653 9.99015 114.424 9.02432 114.831L8.98636 114.847L8.94722 114.86C7.75516 115.25 6.67638 116.242 6.09125 117.465C5.51226 118.675 5.46355 119.999 6.12919 121.116L6.13597 121.128C6.79729 122.272 7.8208 123.262 9.02088 124.154C10.1609 125.003 11.4049 125.725 12.5775 126.406C12.6383 126.441 12.6989 126.476 12.7594 126.511L12.7697 126.517C15.9614 128.309 19.1911 130.122 22.228 132.133C24.3642 133.402 26.4151 134.823 28.4323 136.221L28.4341 136.222C28.9138 136.533 29.3773 136.844 29.8312 137.148C31.3425 138.162 32.7467 139.104 34.2823 139.73L34.3179 139.745L34.3522 139.762C35.0966 140.134 35.8007 140.386 36.4355 140.366C36.6646 140.344 36.9468 140.222 37.2957 139.949C37.6499 139.673 37.9837 139.316 38.3261 138.94L38.3447 138.92L38.3644 138.9C39.3285 137.954 40.0973 136.868 40.3678 135.803C37.6745 133.997 35.0692 131.918 32.5699 129.924C31.6523 129.192 30.749 128.471 29.8609 127.78C25.3056 124.232 20.8303 120.921 16.1224 117.688Z" fill="#7831B2"/>
</svg>
