<svg width="186" height="174" viewBox="0 0 186 174" fill="none" xmlns="http://www.w3.org/2000/svg">
<path d="M90.2224 5.35451L89.7229 5.65209C82.94 9.69374 81.039 9.23604 36.8734 36.3003M3.82894 57.509C13.0387 77.8234 51.9283 152.685 66.0522 168.893M66.0522 168.893C67.7708 170.865 69.1227 171.969 70.0098 172L92.123 159.325M66.0522 168.893C51.7754 153.805 10.1809 79.2956 2 58.5987M66.0522 168.893C67.6608 170.593 68.9226 171.538 69.7508 171.568L77.1644 167.737L84.3605 163.728L74.146 143.515L70.2206 145.854M36.8734 36.3003C27.3956 42.1082 15.9714 49.1835 2.135 57.8427C11.3734 52.8345 24.2492 45.6461 37.3814 38.1379M36.8734 36.3003L37.3814 38.1379M37.3814 38.1379C60.4468 24.9505 84.3035 10.7766 90.6328 5.69685L97.5171 17.3234M23.5953 69.0526C30.905 64.2832 38.2288 59.7 45.156 55.4791L49.6454 70.0401C43.6522 73.7238 37.4154 77.6513 31.1888 81.714M31.4481 82.1461L49.6454 71.303L54.7751 86.3152M39.8475 95.2099L54.7751 86.3152M54.7751 86.3152L53.9908 85.6103C49.263 88.5508 44.4225 91.6236 39.5882 94.7778M54.7751 86.3152L59.5126 99.564C55.4472 102.108 51.3122 104.744 47.1817 107.439M47.441 107.871L59.5126 100.678L63.3778 114.572C60.5247 116.379 57.6488 118.225 54.775 120.1M55.0343 120.532L64.4821 114.902L68.8996 128.549C66.7284 129.933 64.5476 131.339 62.368 132.761M62.6272 133.193L68.8996 129.456L74.146 142.713C72.7525 143.608 71.3567 144.512 69.9614 145.422M138.053 3.24516C126.683 9.06675 68.5657 28.1413 40.843 36.5472C127.455 4.26525 128.121 6.16671 137.183 3.01251L137.732 2.8213C137.782 2.80392 137.89 2.94905 138.053 3.24516ZM138.053 3.24516C138.057 3.24308 138.061 3.241 138.065 3.23892L138.092 3.31789M138.053 3.24516C138.065 3.26847 138.078 3.29271 138.092 3.31789M138.092 3.31789L181.65 129.924M138.092 3.31789C142.689 11.9235 186.148 129.193 182.4 130.497L181.907 130.669M181.65 129.924L181.907 130.669M181.65 129.924L103.093 155.79M181.65 129.924L182.55 129.627M181.907 130.669L174.697 133.179M174.697 133.179L103.093 155.79M174.697 133.179L172.606 133.906M42.5696 36.5602C47.486 58.31 70.4552 139.463 81.0124 158.161M81.0124 158.161C82.2955 160.434 83.3953 161.784 84.257 161.992L103.093 155.79M81.0124 158.161C70.0797 140.53 44.3889 59.1786 40.5577 37.2606M81.0124 158.161C81.888 159.573 82.669 160.577 83.3365 161.108C83.7823 161.463 84.3789 161.436 84.928 161.281L92.1263 159.253L103.093 155.79M61.434 50.1211L89.5729 40.3263M67.3618 62.4585L95.9776 52.4977M70.2313 80.7203L138.909 56.8145M67.1952 61.983C78.07 57.131 95.811 52.0223 95.811 52.0223M70.065 80.2452C104.62 66.6171 138.743 56.3393 138.743 56.3393M75.1102 94.6465L143.788 70.7407M74.9439 94.1714C109.499 80.5433 143.622 70.2655 143.622 70.2655M84.8681 122.499L153.546 98.593M84.7017 122.023C119.256 108.395 153.38 98.1176 153.38 98.1176M79.9891 108.573L148.667 84.6668M79.8228 108.097C114.377 94.4691 148.501 84.1914 148.501 84.1914M89.7474 136.425L158.425 112.519M89.5807 135.95C124.135 122.322 158.259 112.044 158.259 112.044M61.2676 49.6457L89.4065 39.8509M37.6243 38.331L138.651 2L184 129.651L82.431 162.123L37.6243 38.331Z" stroke="#7831B2" stroke-width="3" stroke-linecap="round"/>
</svg>
