<svg width="243" height="186" viewBox="0 0 243 186" fill="none" xmlns="http://www.w3.org/2000/svg">
<path d="M126.598 77.2911C125.843 68.7382 131.206 60.472 139.346 57.6419C147.487 54.8117 161.351 50.3571 166.59 62.9635M148.2 131.629C147.445 123.076 152.808 114.81 160.948 111.98C169.089 109.149 182.953 104.695 188.192 117.301M77.2588 154.451C76.5036 145.898 81.8669 137.632 90.0076 134.801C98.1483 131.971 112.012 127.517 117.251 140.123M57.6137 105.547C56.8585 96.9938 62.2217 88.7276 70.3624 85.8975C78.5031 83.0673 92.3673 78.6127 97.606 91.2191M241 124.666L203.967 4.97184C203.779 4.36504 202.956 4.27066 202.634 4.81908C202.531 4.99519 202.507 5.20627 202.567 5.40112L239.997 126.377M241 124.666L239.997 126.377M241 124.666C206.856 145.646 118.678 186.399 38.5882 181.953C38.2548 181.934 37.9398 182.103 37.7714 182.39C37.4379 182.959 37.8228 183.678 38.4838 183.712C118.334 187.805 205.981 147.279 239.997 126.377M96.8807 37.3569C108.69 59.6214 134.973 113.154 145.626 149.17M45.1935 118.944C90.0561 101.64 183.92 67.4194 200.476 68.9747M149.366 49.4162C149.175 50.3995 148.818 51.315 148.323 52.1453C146.22 55.6726 141.643 57.6619 136.864 56.774C130.961 55.6771 126.988 50.6044 127.99 45.4439C128.18 44.4606 128.538 43.5451 129.033 42.7148C131.135 39.1875 135.713 37.1982 140.491 38.0861C146.394 39.1831 150.368 44.2557 149.366 49.4162ZM149.637 48.9639C148.635 54.1244 143.038 57.4186 137.135 56.3217C131.232 55.2248 127.259 50.1521 128.261 44.9916C129.262 39.8311 134.859 36.5369 140.762 37.6338C146.665 38.7307 150.639 43.8034 149.637 48.9639ZM170.968 103.754C170.777 104.737 170.42 105.653 169.925 106.483C167.822 110.01 163.245 112 158.466 111.112C152.563 110.015 148.59 104.942 149.592 99.7816C149.782 98.7983 150.14 97.8828 150.635 97.0525C152.737 93.5252 157.315 91.5359 162.093 92.4238C167.996 93.5207 171.97 98.5934 170.968 103.754ZM171.239 103.302C170.237 108.462 164.64 111.756 158.737 110.659C152.834 109.562 148.861 104.49 149.863 99.3293C150.864 94.1688 156.461 90.8746 162.364 91.9715C168.267 93.0684 172.241 98.1411 171.239 103.302ZM100.027 126.576C99.8363 127.559 99.4786 128.475 98.9838 129.305C96.8815 132.832 92.3036 134.821 87.5255 133.934C81.6225 132.837 77.6492 127.764 78.6507 122.603C78.8416 121.62 79.1993 120.705 79.6941 119.874C81.7964 116.347 86.3743 114.358 91.1525 115.246C97.0554 116.343 101.029 121.415 100.027 126.576ZM100.298 126.123C99.2966 131.284 93.6993 134.578 87.7964 133.481C81.8935 132.384 77.9201 127.312 78.9217 122.151C79.9233 116.991 85.5205 113.696 91.4234 114.793C97.3263 115.89 101.3 120.963 100.298 126.123ZM80.382 77.6718C80.1912 78.6551 79.8335 79.5706 79.3386 80.4009C77.2363 83.9282 72.6585 85.9175 67.8803 85.0296C61.9774 83.9327 58.004 78.86 59.0056 73.6995C59.1964 72.7162 59.5541 71.8007 60.049 70.9704C62.1513 67.4431 66.7291 65.4538 71.5073 66.3417C77.4102 67.4387 81.3836 72.5113 80.382 77.6718ZM80.653 77.2195C79.6514 82.38 74.0542 85.6742 68.1512 84.5773C62.2483 83.4804 58.275 78.4077 59.2765 73.2472C60.2781 68.0867 65.8753 64.7925 71.7782 65.8894C77.6812 66.9864 81.6545 72.059 80.653 77.2195ZM59.1715 162.958C138.4 165.692 197.823 133.521 218.309 116.592C218.659 116.303 218.769 115.842 218.616 115.416L184.969 21.2938C184.818 20.8703 184.421 20.583 183.97 20.5733C120.148 19.2022 52.8048 50.3758 26.263 66.6205C25.8302 66.8854 25.6633 67.4002 25.8274 67.8789L58.1737 162.224C58.3197 162.65 58.7199 162.942 59.1715 162.958ZM38.8475 181.965C118.333 186.284 205.72 146.169 240.318 125.091C240.742 124.832 240.911 124.334 240.765 123.861L203.698 4.05869C203.571 3.64776 203.215 3.35012 202.786 3.30111C128.685 -5.16422 39.7761 29.7415 3.70456 48.6856C3.25681 48.9207 3.05641 49.4198 3.18518 49.9073L37.8569 181.158C37.9771 181.612 38.3759 181.939 38.8475 181.965ZM36.6099 181.996L2.02314 51.0668C1.97568 50.8871 2.00184 50.6961 2.09587 50.5356C2.41171 49.9966 3.22435 50.1069 3.38378 50.7104L37.9706 181.639C38.018 181.819 37.9919 182.01 37.8978 182.17C37.582 182.709 36.7694 182.599 36.6099 181.996ZM56.8621 163.092L24.6359 69.0974C24.5654 68.8918 24.5881 68.6658 24.6981 68.4781C25.0228 67.9239 25.8513 68.0064 26.0594 68.6135L58.2856 162.608C58.3562 162.814 58.3335 163.04 58.2235 163.228C57.8988 163.782 57.0703 163.699 56.8621 163.092ZM217.823 117.871C197.895 134.628 138.432 167.231 58.8839 164.693C58.2215 164.672 57.8148 163.953 58.1488 163.383C58.3119 163.105 58.62 162.939 58.9436 162.95C137.138 165.713 196.077 134.461 217.394 117.335C217.685 117.102 218.082 117.465 217.893 117.787C217.874 117.819 217.852 117.846 217.823 117.871ZM183.966 21.8589C183.805 22.1324 183.509 22.2972 183.191 22.29C119.975 20.8531 53.2505 51.4112 26.107 67.8115C25.6923 68.062 25.2353 67.5778 25.4797 67.1606C25.5179 67.0955 25.5675 67.0431 25.6319 67.0033C51.6324 50.9316 119.125 19.4291 183.236 20.5594C183.899 20.5711 184.3 21.2887 183.966 21.8589ZM3.541 49.9499C40.1637 30.9005 128.334 -3.42181 201.879 5.0247C202.24 5.06614 202.589 4.89158 202.772 4.57919C203.103 4.01411 202.749 3.2971 202.096 3.2249C127.707 -4.99973 38.637 30.1983 3.07639 49.0083C2.99058 49.0537 2.92436 49.1193 2.87539 49.2029C2.60985 49.6561 3.07398 50.1929 3.541 49.9499ZM183.834 22.6348L217.318 116.302C217.535 116.909 218.365 116.986 218.691 116.43C218.804 116.237 218.826 116.004 218.751 115.794L185.266 22.127C185.05 21.5201 184.219 21.4429 183.893 21.9993C183.78 22.192 183.758 22.4246 183.834 22.6348ZM58.1615 164.669C137.39 167.404 196.813 135.232 217.299 118.303C217.649 118.014 217.759 117.554 217.606 117.127L183.959 23.005C183.808 22.5815 183.411 22.2943 182.96 22.2846C119.138 20.9135 51.7948 52.087 25.253 68.3317C24.8202 68.5966 24.6533 69.1115 24.8174 69.5902L57.1637 163.935C57.3097 164.361 57.7099 164.654 58.1615 164.669ZM37.8374 183.676C117.323 187.995 204.71 147.88 239.308 126.802C239.732 126.543 239.901 126.046 239.755 125.573L202.688 5.76996C202.561 5.35903 202.205 5.06139 201.776 5.01238C127.675 -3.45295 38.7661 31.4528 2.69455 50.3968C2.2468 50.632 2.04639 51.1311 2.17517 51.6186L36.8469 182.869C36.9671 183.324 37.3659 183.65 37.8374 183.676Z" stroke="#7831B2" stroke-width="3"/>
</svg>
