<svg width="257" height="206" viewBox="0 0 257 206" fill="none" xmlns="http://www.w3.org/2000/svg">
<path d="M123.48 112.643C91.5059 123.834 95.689 148.428 100.687 160.424C95.689 148.428 97.0013 120.636 124.479 112.643M123.48 112.643C107.358 111.127 95.3834 98.2175 96.7334 83.8092C96.9906 81.0639 97.713 78.4622 98.8256 76.0595C103.552 65.8528 115.319 59.2389 128.368 60.4662C144.49 61.9825 156.464 74.8919 155.114 89.3001C154.857 92.0455 154.135 94.6472 153.022 97.0498C148.296 107.257 136.529 113.87 123.48 112.643ZM151.237 101.154C159.897 97.1568 178.218 94.8627 192.61 116.456M150.238 101.653C158.897 97.6565 177.218 95.8621 191.611 117.455M254.878 123.669L205.147 3.67958C204.895 3.07135 204.04 3.05363 203.763 3.65089V3.65089C203.674 3.84259 203.67 4.06274 203.75 4.25796L254.014 125.532M254.878 123.669L254.014 125.532M254.878 123.669C221.836 148.635 135.195 199.249 52.4573 202.415C52.1127 202.429 51.8053 202.633 51.6603 202.946V202.946C51.3731 203.566 51.8389 204.271 52.5216 204.242C134.978 200.735 221.096 150.406 254.014 125.532M26.967 86.9283V86.9283C27.3049 86.1989 28.3439 86.2048 28.674 86.938L70.8129 180.536C70.9054 180.742 70.9041 180.977 70.8095 181.181V181.181C70.5299 181.785 69.6702 181.78 69.3971 181.173L26.967 86.9283ZM26.967 86.9283C52.155 67.7626 119.851 26.511 186.205 21.7176C186.618 21.6878 187.004 21.917 187.179 22.292L231.01 116.366C231.186 116.744 231.127 117.174 230.833 117.469C211.484 136.919 153.481 175.988 71.6585 180.818C71.2507 180.842 70.8644 180.614 70.6911 180.244L26.967 86.9283ZM155.719 87.9905C154.369 102.399 140.206 112.85 124.084 111.334C107.963 109.817 95.9879 96.9079 97.3379 82.4997C98.6878 68.0914 112.851 57.6404 128.973 59.1567C145.094 60.6729 157.069 73.5823 155.719 87.9905ZM2.01014 70.5449C36.6337 47.7065 125.703 0.791862 203.053 2.05798C203.731 2.06908 204.165 2.77485 203.88 3.39031V3.39031C203.723 3.73063 203.38 3.94475 203.005 3.93691C125.472 2.31544 36.7555 47.6261 2.01014 70.5449ZM52.6334 202.407C134.828 199.199 220.838 149.219 254.294 124.116C254.659 123.842 254.77 123.373 254.595 122.952L204.75 2.68687C204.598 2.32128 204.248 2.07917 203.852 2.07097C126.798 0.472821 38.7083 45.2151 3.5295 68.2593C3.14165 68.5134 3.00276 68.9873 3.16234 69.4227L51.6599 201.752C51.8088 202.159 52.2009 202.424 52.6334 202.407ZM50.4282 202.652L2.11554 70.8267C2.04929 70.6459 2.05753 70.4462 2.13845 70.2715V70.2715C2.41043 69.6845 3.25648 69.7197 3.47914 70.3273L51.7918 202.152C51.858 202.333 51.8498 202.533 51.7688 202.707V202.707C51.4969 203.294 50.6508 203.259 50.4282 202.652ZM230.397 118.898C211.553 138.128 153.625 177.548 71.6308 182.631C70.9479 182.674 70.4597 181.971 70.7473 181.35V181.35C70.8878 181.047 71.1883 180.845 71.5221 180.826C152.148 176.106 209.668 138.132 229.904 118.387C230.18 118.118 230.623 118.455 230.461 118.804V118.804C230.445 118.84 230.424 118.87 230.397 118.898ZM186.179 23.8651L229.725 117.327C230.007 117.932 230.868 117.931 231.149 117.326V117.326C231.246 117.116 231.246 116.874 231.148 116.664L187.603 23.2023C187.32 22.5969 186.459 22.5976 186.179 23.2035V23.2035C186.081 23.4133 186.082 23.6554 186.179 23.8651ZM70.7932 182.682C152.612 177.851 210.612 138.783 229.961 119.334C230.254 119.039 230.314 118.609 230.138 118.232L186.307 24.1571C186.132 23.7821 185.745 23.553 185.333 23.5827C119.513 28.3199 52.2651 66.4052 26.6015 85.7249C26.228 86.0061 26.1222 86.4941 26.3166 86.9194L69.8217 182.1C69.9931 182.475 70.3819 182.707 70.7932 182.682ZM28.4985 85.7823C54.793 66.2214 120.381 28.2107 185.485 23.5719C185.812 23.5486 186.101 23.3497 186.239 23.0517V23.0517C186.527 22.4307 186.045 21.7287 185.363 21.7809C119.369 26.8229 53.083 65.8832 27.9312 84.9941C27.8689 85.0414 27.823 85.1003 27.7902 85.1713V85.1713C27.5797 85.6255 28.0968 86.0811 28.4985 85.7823ZM51.7611 204.272C133.956 201.064 219.966 151.084 253.422 125.981C253.786 125.708 253.897 125.238 253.723 124.817L203.877 4.55199C203.726 4.1864 203.375 3.9443 202.98 3.93609C125.926 2.33795 37.8361 47.0803 2.65725 70.1245C2.2694 70.3785 2.1305 70.8524 2.29009 71.2878L50.7877 203.617C50.9366 204.024 51.3287 204.289 51.7611 204.272Z" stroke="#7831B2" stroke-width="3" stroke-linecap="round"/>
</svg>
