<svg width="235" height="175" viewBox="0 0 235 175" fill="none" xmlns="http://www.w3.org/2000/svg">
<path d="M142.537 81.0001L140.646 80.3498L140.646 80.3498L142.537 81.0001ZM109.265 94.9863L109.914 93.0945L109.265 94.9863ZM91.6171 63.5352L93.5084 64.1855L93.5084 64.1855L91.6171 63.5352ZM124.889 49.549L124.24 51.4408L124.889 49.549ZM138.997 87.4546L137.432 86.21L137.432 86.21L138.997 87.4546ZM95.1569 57.0807L93.5913 55.836L95.1569 57.0807ZM111.424 97.133C112.523 97.0234 113.325 96.0436 113.216 94.9445C113.106 93.8454 112.126 93.0432 111.027 93.1527L111.424 97.133ZM112.275 97.3721C113.379 97.3215 114.232 96.3859 114.181 95.2825C114.131 94.1791 113.195 93.3257 112.092 93.3763L112.275 97.3721ZM134.947 89.8909C133.863 90.1049 133.158 91.1568 133.372 92.2405C133.586 93.3241 134.638 94.0291 135.722 93.8151L134.947 89.8909ZM172.118 117.061C172.498 118.098 173.647 118.631 174.684 118.251C175.721 117.871 176.254 116.722 175.874 115.685L172.118 117.061ZM133.873 90.138C132.789 90.352 132.084 91.4039 132.298 92.4875C132.512 93.5712 133.564 94.2762 134.648 94.0622L133.873 90.138ZM170.929 117.786C171.309 118.823 172.458 119.356 173.495 118.976C174.532 118.596 175.065 117.447 174.685 116.41L170.929 117.786ZM232 137.673L233.565 138.918L234.112 138.231L233.976 137.363L232 137.673ZM230.74 139.257L231.536 141.092L231.995 140.893L232.306 140.502L230.74 139.257ZM43.2514 149.999L43.6048 148.03L43.2514 149.999ZM42.3627 149.122L44.3282 148.752L42.3627 149.122ZM210.802 125.09L208.842 125.486L208.842 125.486L210.802 125.09ZM210.327 126.222L211.371 127.928L210.327 126.222ZM189.735 24.2351L190.063 22.2621L189.735 24.2351ZM190.627 25.0988L192.588 24.7032L192.588 24.7032L190.627 25.0988ZM24.1463 47.8969L24.9391 49.7331L24.9391 49.7331L24.1463 47.8969ZM23.5307 49.0927L25.4961 48.7226L23.5307 49.0927ZM20.0076 166.256L20.3999 164.294L20.0076 166.256ZM19.1366 165.307L17.1497 165.535L19.1366 165.307ZM231.881 136.835L233.857 136.525L233.857 136.525L231.881 136.835ZM231.258 138L232.047 139.838L231.258 138ZM211.206 9.51252L210.698 11.4468L211.206 9.51252ZM212.006 10.4009L210.03 10.7114L212.006 10.4009ZM4.03737 26.505L4.70786 28.3893L4.03737 26.505ZM3.34346 27.652L5.33043 27.4241L3.34346 27.652ZM17.7571 165.964L15.7702 166.192L17.7571 165.964ZM19.029 166.328L20.5942 167.573L20.5942 167.573L19.029 166.328ZM2.15535 28.1381L3.72062 29.383L3.72062 29.383L2.15535 28.1381ZM2.00466 28.6642L0.0176914 28.8922L2.00466 28.6642ZM3.42719 28.5014L1.44022 28.7294L3.42719 28.5014ZM19.1797 165.801L17.1927 166.029L19.1797 165.801ZM40.9138 149.801L42.8793 149.431L40.9138 149.801ZM42.2654 150.135L43.8307 151.38L42.2654 150.135ZM22.3077 49.5431L23.873 50.7881L22.3077 49.5431ZM22.1548 50.1599L24.1203 49.7898L22.1548 50.1599ZM23.6593 49.8773L25.6248 49.5073L23.6593 49.8773ZM42.4183 149.518L44.3838 149.148L42.4183 149.518ZM18.8696 166.531L17.3043 165.286L18.8696 166.531ZM19.3945 167.969L19.7807 166.007L19.3945 167.969ZM19.7561 166.207L20.1507 164.247L19.7561 166.207ZM209.643 127.448L208.585 125.751L208.585 125.751L209.643 127.448ZM209.727 127.373L211.292 128.618L209.727 127.373ZM42.1667 150.282L40.6014 149.037L42.1667 150.282ZM42.7162 151.712L42.3681 153.681L42.7162 151.712ZM43.0304 149.959L43.3853 147.991L43.0304 149.959ZM189.535 25.5326L187.97 24.2876L189.535 25.5326ZM188.692 25.8558L188.362 27.8284L188.692 25.8558ZM188.99 24.1139L189.31 22.1396L188.99 24.1139ZM23.4623 48.1891L24.2631 50.0217L24.2631 50.0217L23.4623 48.1891ZM23.2861 48.326L21.7208 47.081L21.7208 47.081L23.2861 48.326ZM3.69576 27.756L4.35873 29.643L3.69576 27.756ZM3.13417 26.9048L4.69944 28.1497L3.13417 26.9048ZM210.998 10.8003L212.563 12.0452L210.998 10.8003ZM210.033 11.1209L210.543 9.18688L210.033 11.1209ZM210.514 9.33383L210.012 11.27L210.012 11.27L210.514 9.33383ZM3.36501 26.7373L2.68901 24.855L3.36501 26.7373ZM189.289 26.2969L187.329 26.6924L189.289 26.2969ZM189.442 25.6633L191.007 26.9083L191.007 26.9083L189.442 25.6633ZM210.728 126.117L209.163 124.872L210.728 126.117ZM209.364 125.789L211.324 125.394L209.364 125.789ZM210.881 125.484L212.842 125.088L210.881 125.484ZM212.145 11.3694L210.169 11.68L210.169 11.68L212.145 11.3694ZM210.826 11.0219L212.391 12.2669L212.391 12.2669L210.826 11.0219ZM41.9843 151.582L41.631 153.55L41.9843 151.582ZM41.0956 150.704L39.1301 151.075L39.1301 151.075L41.0956 150.704ZM209.535 126.673L207.575 127.069L207.575 127.069L209.535 126.673ZM209.06 127.805L210.104 129.511L210.104 129.511L209.06 127.805ZM188.468 25.8179L188.795 23.8449L188.468 25.8179ZM189.36 26.6817L191.321 26.2861L191.321 26.2861L189.36 26.6817ZM22.8792 49.4798L23.672 51.3159L23.672 51.3159L22.8792 49.4798ZM22.2635 50.6755L24.229 50.3055L22.2635 50.6755ZM18.7405 167.838L19.1328 165.877L18.7405 167.838ZM17.8695 166.889L15.8825 167.117L17.8695 166.889ZM230.614 138.418L232.59 138.108L232.59 138.108L230.614 138.418ZM229.991 139.583L229.202 137.745L229.991 139.583ZM190.807 25.9915L188.846 26.387L190.807 25.9915ZM209.289 126.845L210.309 128.565L209.289 126.845ZM209.939 11.0954L209.431 13.0296L209.939 11.0954ZM210.739 11.9837L208.763 12.2943L210.739 11.9837ZM210.673 11.6002L212.649 11.2897L212.649 11.2897L210.673 11.6002ZM23.823 49.0746L24.6052 50.9153L23.823 49.0746ZM2.77024 28.0878L3.44074 29.9721L2.77024 28.0878ZM2.07634 29.2349L4.0633 29.0069L2.07634 29.2349ZM101.423 38.7875L100.879 36.8631L100.879 36.8631L101.423 38.7875ZM75.3155 64.6147L77.3079 64.4405L77.3063 64.4227L77.3044 64.405L75.3155 64.6147ZM77.9461 78.7469L79.2517 77.2318L79.2517 77.2318L77.9461 78.7469ZM89.7026 76.5639L91.4235 77.5829L91.5999 77.2851L91.6659 76.9452L89.7026 76.5639ZM89.1063 63.8321L91.0595 63.4017L91.0337 63.2845L90.994 63.1713L89.1063 63.8321ZM84.7886 59.6944L85.1538 61.6608L84.7886 59.6944ZM142.505 49.5792L143.334 51.3993L143.461 51.3416L143.578 51.267L142.505 49.5792ZM150.066 48.1753L150.858 46.3388L150.858 46.3388L150.066 48.1753ZM154.947 58.6384L152.96 58.8664L154.947 58.6384ZM152.622 69.7836L152.257 67.8173L152.622 69.7836ZM157.541 65.4905C157.369 64.3995 156.344 63.6549 155.253 63.8274C154.162 63.9998 153.418 65.0241 153.59 66.1151L157.541 65.4905ZM151.718 80.2701C150.614 80.2701 149.718 81.1655 149.718 82.2701C149.718 83.3746 150.614 84.2701 151.718 84.2701V80.2701ZM140.646 80.3498C139.899 82.5203 138.805 84.4827 137.432 86.21L140.563 88.6993C142.212 86.6242 143.53 84.2615 144.428 81.6504L140.646 80.3498ZM109.914 93.0945C96.6903 88.5589 89.6211 75.491 93.5084 64.1855L89.7258 62.8848C84.9846 76.6738 93.7181 91.7682 108.616 96.8782L109.914 93.0945ZM93.5084 64.1855C94.2548 62.015 95.3492 60.0526 96.7224 58.3253L93.5913 55.836C91.9416 57.9111 90.6236 60.2738 89.7258 62.8848L93.5084 64.1855ZM124.24 51.4408C137.464 55.9764 144.533 69.0443 140.646 80.3498L144.428 81.6504C149.169 67.8615 140.436 52.7671 125.538 47.6571L124.24 51.4408ZM137.432 86.21C131.594 93.5522 120.586 96.7547 109.914 93.0945L108.616 96.8782C120.709 101.026 133.558 97.5101 140.563 88.6993L137.432 86.21ZM96.7224 58.3253C102.56 50.9831 113.568 47.7806 124.24 51.4408L125.538 47.6571C113.445 43.5096 100.596 47.0252 93.5913 55.836L96.7224 58.3253ZM141.465 79.313C137.577 90.62 123.958 96.5936 110.734 92.0577L109.436 95.8413C124.334 100.951 140.507 94.4009 145.248 80.6136L141.465 79.313ZM110.734 92.0577C97.5099 87.522 90.4407 74.4541 94.328 63.1486L90.5453 61.848C85.8041 75.6369 94.5376 90.7313 109.436 95.8413L110.734 92.0577ZM94.328 63.1486C98.2158 51.8416 111.835 45.8681 125.059 50.4039L126.357 46.6203C111.459 41.5105 95.286 48.0607 90.5453 61.848L94.328 63.1486ZM125.059 50.4039C138.283 54.9396 145.352 68.0075 141.465 79.313L145.248 80.6136C149.989 66.8247 141.255 51.7303 126.357 46.6203L125.059 50.4039ZM77.6855 136.869C76.7358 130.9 77.2855 121.709 81.9775 113.677C86.6029 105.759 95.3875 98.7315 111.424 97.133L111.027 93.1527C93.8273 94.8672 83.8494 102.543 78.5237 111.659C73.2648 120.661 72.675 130.834 73.7352 137.497L77.6855 136.869ZM77.6855 136.869C76.774 131.14 78.665 121.514 84.2842 113.141C89.8388 104.864 98.9187 97.9847 112.275 97.3721L112.092 93.3763C97.2624 94.0565 87.1008 101.765 80.9628 110.912C74.8893 119.962 72.6367 130.593 73.7352 137.497L77.6855 136.869ZM135.722 93.8151C144.295 92.1221 163.767 94.2684 172.118 117.061L175.874 115.685C166.647 90.501 144.824 87.9404 134.947 89.8909L135.722 93.8151ZM134.648 94.0622C143.166 92.3801 162.562 94.9495 170.929 117.786L174.685 116.41C165.474 91.2703 143.806 88.1765 133.873 90.138L134.648 94.0622ZM3.44074 29.9721C22.8577 23.0628 56.1583 14.0234 93.7428 9.12031C131.345 4.21485 173.075 3.47159 209.431 13.0296L210.448 9.1611C173.388 -0.581991 131.08 0.215561 93.2253 5.15392C55.3523 10.0946 21.7759 19.202 2.09975 26.2036L3.44074 29.9721ZM208.763 12.2943L228.639 138.729L232.59 138.108L212.715 11.6731L208.763 12.2943ZM229.202 137.745C210.379 145.827 177.571 156.82 139.576 163.809C101.57 170.799 58.5141 173.756 19.1328 165.877L18.3481 169.8C58.4113 177.814 102.021 174.783 140.3 167.743C178.589 160.7 211.684 149.62 230.78 141.421L229.202 137.745ZM19.8565 166.662L4.0633 29.0069L0.0893697 29.4628L15.8825 167.117L19.8565 166.662ZM23.672 51.3159C52.6094 38.8211 124.585 17.2384 188.14 27.7909L188.795 23.8449C124.157 13.1126 51.3485 35.0086 22.0864 47.6436L23.672 51.3159ZM187.4 27.0772L207.575 127.069L211.496 126.277L191.321 26.2861L187.4 27.0772ZM208.016 126.099C185.291 140.004 121.228 163.772 42.3376 149.613L41.631 153.55C121.58 167.899 186.629 143.875 210.104 129.511L208.016 126.099ZM43.0611 150.334L24.229 50.3055L20.2981 51.0456L39.1301 151.075L43.0611 150.334ZM210.169 11.68L230.024 137.984L233.976 137.363L214.121 11.0588L210.169 11.68ZM230.435 136.428L229.175 138.012L232.306 140.502L233.565 138.918L230.435 136.428ZM232.716 138.946L212.649 11.2897L208.697 11.9108L228.765 139.567L232.716 138.946ZM188.846 26.387L208.921 125.879L212.842 125.088L192.767 25.5959L188.846 26.387ZM211.324 125.394L191.25 25.9013L187.329 26.6924L207.403 126.185L211.324 125.394ZM4.04101 28.6196C23.191 21.7422 56.4064 12.6517 94.0133 7.66415C131.638 2.67422 173.496 1.81334 210.012 11.27L211.015 7.3977C173.798 -2.24061 131.363 -1.32437 93.4874 3.69887C55.594 8.72445 22.1018 17.8832 2.68901 24.855L4.04101 28.6196ZM210.543 9.18688C173.767 -0.503717 131.812 0.197048 94.166 5.02952C56.5017 9.86434 22.9934 18.856 3.03279 25.8691L4.35873 29.643C24.0657 22.719 57.3006 13.7946 94.6753 8.99696C132.068 4.19695 173.448 3.5487 209.524 13.0548L210.543 9.18688ZM24.2631 50.0217C52.6303 37.6259 124.794 15.7385 188.67 26.0881L189.31 22.1396C124.355 11.6152 51.3616 33.8151 22.6615 46.3564L24.2631 50.0217ZM189.022 23.8832C125.014 13.1759 52.9316 34.5319 23.0408 47.2339L24.6052 50.9153C54.1802 38.3475 125.433 17.3016 188.362 27.8284L189.022 23.8832ZM208.269 125.125C184.665 139.12 121.223 162.025 43.3853 147.991L42.6756 151.928C121.566 166.151 185.975 142.993 210.309 128.565L208.269 125.125ZM42.3681 153.681C122.657 167.872 187.805 143.424 210.702 129.145L208.585 125.751C186.45 139.555 122.295 163.746 43.0643 149.742L42.3681 153.681ZM231.204 135.838C212.617 143.901 179.708 155.017 141.479 162.105C103.24 169.195 59.8206 172.229 20.1507 164.247L19.3616 168.168C59.719 176.289 103.696 173.179 142.208 166.038C180.732 158.895 213.931 147.692 232.796 139.508L231.204 135.838ZM19.0082 169.932C59.2673 177.855 103.052 174.686 141.381 167.541C179.72 160.395 212.741 149.245 231.536 141.092L229.945 137.422C211.428 145.455 178.694 156.517 140.648 163.609C102.591 170.703 59.3586 173.797 19.7807 166.007L19.0082 169.932ZM44.3838 149.148L25.6248 49.5073L21.6938 50.2474L40.4528 149.888L44.3838 149.148ZM20.1894 50.5299L38.9484 150.171L42.8793 149.431L24.1203 49.7898L20.1894 50.5299ZM21.1666 165.573L5.41415 28.2734L1.44022 28.7294L17.1927 166.029L21.1666 165.573ZM0.0176914 28.8922L15.7702 166.192L19.7441 165.736L3.99162 28.4362L0.0176914 28.8922ZM4.70786 28.3893C24.1248 21.48 57.4255 12.4406 95.0099 7.53747C132.613 2.63201 174.342 1.88874 210.698 11.4468L211.715 7.57826C174.655 -2.16484 132.347 -1.36728 94.4925 3.57107C56.6194 8.51181 23.043 17.6192 3.36688 24.6207L4.70786 28.3893ZM210.03 10.7114L229.906 137.146L233.857 136.525L213.982 10.0903L210.03 10.7114ZM230.469 136.162C211.646 144.244 178.838 155.238 140.843 162.226C102.837 169.216 59.7813 172.173 20.3999 164.294L19.6153 168.217C59.6784 176.231 103.288 173.2 141.567 166.16C179.856 159.117 212.951 148.037 232.047 139.838L230.469 136.162ZM21.1236 165.079L5.33043 27.4241L1.3565 27.88L17.1497 165.535L21.1236 165.079ZM24.9391 49.7331C53.8765 37.2383 125.852 15.6555 189.407 26.2081L190.063 22.2621C125.424 11.5298 52.6156 33.4258 23.3535 46.0608L24.9391 49.7331ZM188.667 25.4944L208.842 125.486L212.763 124.695L192.588 24.7032L188.667 25.4944ZM209.283 124.516C186.559 138.421 122.495 162.189 43.6048 148.03L42.8981 151.967C122.848 166.316 187.896 142.292 211.371 127.928L209.283 124.516ZM44.3282 148.752L25.4961 48.7226L21.5652 49.4627L40.3972 149.492L44.3282 148.752ZM43.6048 148.03C43.9638 148.095 44.2568 148.373 44.3282 148.752L40.3972 149.492C40.6368 150.764 41.6432 151.742 42.8981 151.967L43.6048 148.03ZM208.842 125.486C208.779 125.174 208.903 124.748 209.283 124.516L211.371 127.928C212.531 127.218 213.007 125.903 212.763 124.695L208.842 125.486ZM189.407 26.2081C189.032 26.1457 188.74 25.858 188.667 25.4944L192.588 24.7032C192.335 23.4494 191.335 22.4734 190.063 22.2621L189.407 26.2081ZM23.3535 46.0608C21.967 46.6594 21.3096 48.1051 21.5652 49.4627L25.4961 48.7226C25.5626 49.0758 25.3863 49.54 24.9391 49.7331L23.3535 46.0608ZM20.3999 164.294C20.791 164.373 21.0795 164.694 21.1236 165.079L17.1497 165.535C17.3021 166.863 18.2915 167.952 19.6153 168.217L20.3999 164.294ZM229.906 137.146C229.852 136.802 230.03 136.351 230.469 136.162L232.047 139.838C233.407 139.254 234.067 137.857 233.857 136.525L229.906 137.146ZM210.698 11.4468C210.342 11.3533 210.085 11.0583 210.03 10.7114L213.982 10.0903C213.792 8.88516 212.912 7.89294 211.715 7.57826L210.698 11.4468ZM3.36688 24.6207C1.94927 25.1252 1.19988 26.5149 1.3565 27.88L5.33043 27.4241C5.37097 27.7774 5.16497 28.2266 4.70786 28.3893L3.36688 24.6207ZM15.7702 166.192C16.0462 168.598 19.0912 169.462 20.5942 167.573L17.4637 165.083C18.1732 164.191 19.6132 164.596 19.7441 165.736L15.7702 166.192ZM0.590086 26.8931C0.141646 27.4569 -0.0644748 28.176 0.0176914 28.8922L3.99162 28.4362C4.03056 28.7756 3.93285 29.1162 3.72062 29.383L0.590086 26.8931ZM5.41415 28.2734C5.13809 25.8672 2.09309 25.0034 0.590086 26.8931L3.72062 29.383C3.01107 30.2751 1.57107 29.8698 1.44022 28.7294L5.41415 28.2734ZM17.1927 166.029C17.1538 165.69 17.2515 165.349 17.4637 165.083L20.5942 167.573C21.0427 167.009 21.2488 166.29 21.1666 165.573L17.1927 166.029ZM38.9484 150.171C39.387 152.501 42.3586 153.231 43.8307 151.38L40.7001 148.89C41.3564 148.065 42.683 148.388 42.8793 149.431L38.9484 150.171ZM20.7425 48.2981C20.2429 48.9262 20.0408 49.7407 20.1894 50.5299L24.1203 49.7898C24.1868 50.143 24.0963 50.5073 23.873 50.7881L20.7425 48.2981ZM25.6248 49.5073C25.1862 47.1776 22.2145 46.4474 20.7425 48.2981L23.873 50.7881C23.2167 51.6132 21.8901 51.2898 21.6938 50.2474L25.6248 49.5073ZM40.4528 149.888C40.3863 149.535 40.4768 149.171 40.7001 148.89L43.8307 151.38C44.3303 150.752 44.5323 149.937 44.3838 149.148L40.4528 149.888ZM17.3043 165.286C15.9632 166.972 16.8595 169.509 19.0082 169.932L19.7807 166.007C20.6077 166.17 20.9381 167.143 20.4349 167.776L17.3043 165.286ZM20.1507 164.247C19.0826 164.032 17.9836 164.432 17.3043 165.286L20.4349 167.776C20.1785 168.098 19.7633 168.249 19.3616 168.168L20.1507 164.247ZM210.702 129.145C210.942 128.995 211.137 128.813 211.292 128.618L208.161 126.128C208.269 125.993 208.41 125.86 208.585 125.751L210.702 129.145ZM40.6014 149.037C39.2182 150.776 40.2429 153.306 42.3681 153.681L43.0643 149.742C43.8613 149.883 44.2761 150.843 43.7319 151.527L40.6014 149.037ZM43.3853 147.991C42.3498 147.804 41.2728 148.193 40.6014 149.037L43.7319 151.527C43.4705 151.855 43.0625 151.997 42.6756 151.928L43.3853 147.991ZM187.97 24.2876C188.222 23.97 188.626 23.817 189.022 23.8832L188.362 27.8284C189.396 28.0013 190.445 27.6013 191.1 26.7775L187.97 24.2876ZM188.67 26.0881C187.811 25.949 187.448 24.9439 187.97 24.2876L191.1 26.7775C192.462 25.0659 191.5 22.4946 189.31 22.1396L188.67 26.0881ZM22.6615 46.3564C22.2722 46.5265 21.958 46.7828 21.7208 47.081L24.8514 49.571C24.7101 49.7486 24.5111 49.9133 24.2631 50.0217L22.6615 46.3564ZM3.03279 25.8691C3.75447 25.6156 4.45538 25.9701 4.77641 26.4633C5.08084 26.931 5.11943 27.6217 4.69944 28.1497L1.56891 25.6598C0.81537 26.6072 0.881829 27.8124 1.42397 28.6453C1.98272 29.5038 3.1312 30.0742 4.35873 29.643L3.03279 25.8691ZM209.433 9.5553C209.696 9.22443 210.132 9.07865 210.543 9.18688L209.524 13.0548C210.649 13.3514 211.84 12.9543 212.563 12.0452L209.433 9.5553ZM210.012 11.27C209.234 11.0684 208.963 10.1455 209.433 9.5553L212.563 12.0452C213.865 10.4092 213.088 7.93454 211.015 7.3977L210.012 11.27ZM2.68901 24.855C2.22379 25.0221 1.84666 25.3106 1.56891 25.6598L4.69944 28.1497C4.54471 28.3443 4.32012 28.5194 4.04101 28.6196L2.68901 24.855ZM191.25 25.9013C191.322 26.2566 191.233 26.6251 191.007 26.9083L187.877 24.4184C187.368 25.0584 187.167 25.8905 187.329 26.6924L191.25 25.9013ZM209.163 124.872C209.81 124.059 211.117 124.369 211.324 125.394L207.403 126.185C207.87 128.499 210.828 129.206 212.294 127.362L209.163 124.872ZM208.921 125.879C208.849 125.524 208.938 125.156 209.163 124.872L212.294 127.362C212.803 126.722 213.003 125.89 212.842 125.088L208.921 125.879ZM214.121 11.0588C213.749 8.69509 210.746 7.9094 209.26 9.77694L212.391 12.2669C211.713 13.1194 210.34 12.7631 210.169 11.68L214.121 11.0588ZM42.3376 149.613C42.6967 149.677 42.9897 149.955 43.0611 150.334L39.1301 151.075C39.3697 152.347 40.3761 153.325 41.631 153.55L42.3376 149.613ZM207.575 127.069C207.512 126.757 207.636 126.331 208.016 126.099L210.104 129.511C211.264 128.8 211.739 127.486 211.496 126.277L207.575 127.069ZM188.14 27.7909C187.765 27.7286 187.473 27.4408 187.4 27.0772L191.321 26.2861C191.068 25.0322 190.068 24.0562 188.795 23.8449L188.14 27.7909ZM22.0864 47.6436C20.6999 48.2423 20.0425 49.688 20.2981 51.0456L24.229 50.3055C24.2955 50.6586 24.1192 51.1228 23.672 51.3159L22.0864 47.6436ZM19.1328 165.877C19.5238 165.955 19.8123 166.277 19.8565 166.662L15.8825 167.117C16.0349 168.446 17.0243 169.535 18.3481 169.8L19.1328 165.877ZM228.639 138.729C228.585 138.385 228.763 137.934 229.202 137.745L230.78 141.421C232.139 140.837 232.799 139.44 232.59 138.108L228.639 138.729ZM192.767 25.5959C192.3 23.2816 189.343 22.5751 187.877 24.4184L191.007 26.9083C190.36 27.722 189.053 27.4122 188.846 26.387L192.767 25.5959ZM210.309 128.565C209.47 129.063 208.583 128.691 208.175 128.196C207.779 127.715 207.594 126.841 208.161 126.128L211.292 128.618C212.095 127.608 211.855 126.373 211.264 125.654C210.66 124.92 209.436 124.433 208.269 125.125L210.309 128.565ZM209.431 13.0296C209.075 12.9361 208.818 12.6412 208.763 12.2943L212.715 11.6731C212.525 10.468 211.645 9.47578 210.448 9.1611L209.431 13.0296ZM212.649 11.2897C212.703 11.6374 212.61 11.9918 212.391 12.2669L209.26 9.77694C208.782 10.3779 208.578 11.1519 208.697 11.9108L212.649 11.2897ZM23.0408 47.2339C23.7943 46.9137 24.5476 47.2638 24.8994 47.7589C25.2374 48.2345 25.3166 48.9861 24.8514 49.571L21.7208 47.081C20.9486 48.0519 21.0692 49.2743 21.6388 50.0759C22.2223 50.897 23.3976 51.4284 24.6052 50.9153L23.0408 47.2339ZM2.09975 26.2036C0.68214 26.708 -0.0672499 28.0977 0.0893697 29.4628L4.0633 29.0069C4.10384 29.3603 3.89785 29.8095 3.44074 29.9721L2.09975 26.2036ZM89.3659 60.2998C88.9852 57.7671 89.1527 53.6572 90.9207 49.7967C92.6518 46.0167 95.9339 42.42 101.968 40.7119L100.879 36.8631C93.6275 38.9157 89.4634 43.3723 87.2839 48.1311C85.1414 52.8094 84.9338 57.7241 85.4103 60.8943L89.3659 60.2998ZM101.968 40.7119C110.17 38.3901 118.455 37.1881 125.154 38.5191C128.472 39.1783 131.339 40.4464 133.631 42.4529C135.914 44.4508 137.732 47.2731 138.821 51.2203L142.677 50.157C141.406 45.5471 139.205 42.0156 136.266 39.4431C133.337 36.8792 129.782 35.3603 125.934 34.5958C118.302 33.0796 109.283 34.4841 100.879 36.8631L101.968 40.7119ZM73.3231 64.7888C73.5126 66.9578 73.8736 70.2811 74.3435 73.2114C74.5776 74.6711 74.8459 76.0785 75.1444 77.2111C75.2929 77.7744 75.4611 78.3173 75.6549 78.7837C75.8163 79.1722 76.1106 79.8053 76.6405 80.262L79.2517 77.2318C79.4799 77.4284 79.4773 77.5585 79.3488 77.2491C79.2526 77.0176 79.1378 76.6678 79.0123 76.1916C78.7629 75.2452 78.519 73.9865 78.2931 72.5779C77.8429 69.7714 77.4921 66.5488 77.3079 64.4405L73.3231 64.7888ZM76.6405 80.262C77.3736 80.8937 78.481 81.3185 79.5259 81.5809C80.6468 81.8625 81.9898 82.03 83.3877 81.9728C86.1489 81.8597 89.5014 80.8289 91.4235 77.5829L87.9817 75.5449C87.0119 77.1825 85.2408 77.8935 83.224 77.9761C82.2329 78.0167 81.2732 77.8956 80.5002 77.7014C80.1152 77.6047 79.7997 77.4957 79.5656 77.3936C79.3118 77.2829 79.2308 77.2138 79.2517 77.2318L76.6405 80.262ZM91.6659 76.9452C92.575 72.2649 91.6172 65.9324 91.0595 63.4017L87.1532 64.2625C87.6831 66.6668 88.4864 72.3361 87.7393 76.1826L91.6659 76.9452ZM90.994 63.1713C90.6698 62.2449 90.0274 60.8792 89.0895 59.7534C88.2066 58.6935 86.5985 57.3242 84.4235 57.728L85.1538 61.6608C85.1692 61.6579 85.2148 61.6441 85.3519 61.7176C85.5162 61.8056 85.7469 61.9902 86.0161 62.3135C86.563 62.97 87.0018 63.8733 87.2187 64.4929L90.994 63.1713ZM84.4235 57.728C83.8185 57.8404 83.0147 57.9126 81.8482 58.0641C80.7719 58.2039 79.5033 58.401 78.3049 58.7509C77.1342 59.0928 75.8273 59.6365 74.8315 60.595C73.7446 61.6414 73.1425 63.0786 73.3265 64.8243L77.3044 64.405C77.2535 63.9223 77.3813 63.6927 77.6056 63.4768C77.9211 63.1731 78.5067 62.8591 79.4262 62.5906C80.3181 62.3301 81.3375 62.1641 82.3634 62.0308C83.2991 61.9093 84.4117 61.7986 85.1538 61.6608L84.4235 57.728ZM143.578 51.267C144.159 50.8977 145.226 50.3621 146.394 50.0488C147.602 49.7247 148.602 49.7217 149.274 50.0117L150.858 46.3388C148.979 45.5284 146.927 45.7641 145.357 46.1855C143.746 46.6177 142.308 47.3343 141.432 47.8915L143.578 51.267ZM149.274 50.0117C150.476 50.5303 151.097 51.1061 151.588 52.1829C152.164 53.4485 152.565 55.4261 152.96 58.8664L156.934 58.4103C156.543 55.0001 156.098 52.4339 155.228 50.5245C154.272 48.4262 152.845 47.1958 150.858 46.3388L149.274 50.0117ZM152.96 58.8664C153.372 62.4561 153.684 64.7432 153.509 66.2933C153.43 67.0046 153.266 67.296 153.16 67.4216C153.08 67.5174 152.882 67.7012 152.257 67.8173L152.987 71.75C154.252 71.5151 155.388 70.9866 156.221 69.9972C157.028 69.0377 157.357 67.8711 157.484 66.7401C157.724 64.6057 157.308 61.6712 156.934 58.4103L152.96 58.8664ZM152.257 67.8173C150.403 68.1615 148.818 68.2753 147.552 67.8365C146.466 67.4598 145.306 66.5635 144.532 64.0547L140.709 65.2336C141.785 68.7219 143.735 70.7464 146.242 71.6157C148.569 72.4228 151.06 72.1078 152.987 71.75L152.257 67.8173ZM144.532 64.0547C143.633 61.1418 142.919 57.8785 142.767 55.2483C142.691 53.9227 142.767 52.8849 142.958 52.1727C143.052 51.8252 143.157 51.618 143.235 51.5057C143.272 51.4526 143.299 51.4259 143.313 51.4142C143.325 51.4035 143.331 51.4007 143.334 51.3993L141.676 47.7591C140.171 48.4446 139.442 49.849 139.096 51.1326C138.746 52.4331 138.686 53.9536 138.774 55.4779C138.95 58.5473 139.758 62.1493 140.709 65.2336L144.532 64.0547ZM153.59 66.1151C154.155 69.6899 154.975 72.9061 155.574 75.3611C155.878 76.6096 156.116 77.6218 156.253 78.4208C156.407 79.3118 156.369 79.6046 156.373 79.5888L160.254 80.5601C160.477 79.666 160.344 78.6049 160.195 77.7416C160.031 76.7864 159.76 75.6441 159.46 74.4135C158.849 71.91 158.075 68.8686 157.541 65.4905L153.59 66.1151ZM156.373 79.5888C156.446 79.2982 156.613 79.2872 156.354 79.4424C156.113 79.5868 155.705 79.7475 155.13 79.8886C153.991 80.1681 152.622 80.2701 151.718 80.2701V84.2701C152.83 84.2701 154.539 84.1524 156.084 83.7733C156.85 83.5851 157.686 83.3066 158.408 82.8746C159.112 82.4535 159.961 81.7289 160.254 80.5601L156.373 79.5888Z" fill="#7831B2"/>
</svg>
