<svg width="178" height="164" viewBox="0 0 178 164" fill="none" xmlns="http://www.w3.org/2000/svg">
<path d="M110.094 82.523L108.675 82.0377L108.675 82.0377L110.094 82.523ZM79.9658 95.2588L79.4768 96.6768L79.4768 96.6768L79.9658 95.2588ZM63.985 66.6195L65.4043 67.1048L65.4043 67.1048L63.985 66.6195ZM94.1132 53.8837L94.6023 52.4657L94.6023 52.4657L94.1132 53.8837ZM106.889 88.4005L105.712 87.4702L105.712 87.4702L106.889 88.4005ZM67.1903 60.7421L66.0136 59.8118L66.0136 59.8118L67.1903 60.7421ZM72.8148 43.9873L72.4042 42.5446L72.8148 43.9873ZM49.0954 67.583L50.5898 67.4531L50.5886 67.4398L50.5872 67.4266L49.0954 67.583ZM51.4854 80.4942L52.4678 79.3606L52.4678 79.3606L51.4854 80.4942ZM62.1663 78.4998L63.4589 79.2609L63.5901 79.0381L63.6391 78.7843L62.1663 78.4998ZM61.6246 66.868L63.0899 66.5469L63.0707 66.4595L63.0413 66.3749L61.6246 66.868ZM57.7019 63.0878L57.4266 61.6133L57.7019 63.0878ZM110.138 53.8466L110.763 55.2104L110.858 55.1668L110.946 55.1104L110.138 53.8466ZM117.007 52.5639L117.604 51.1878L117.604 51.1878L117.007 52.5639ZM121.442 62.123L119.952 62.2931L121.442 62.123ZM119.329 72.3054L119.054 70.8308L119.329 72.3054ZM123.486 68.4355C123.357 67.6172 122.589 67.058 121.771 67.1867C120.952 67.3153 120.393 68.0831 120.522 68.9014L123.486 68.4355ZM118.509 82.213C117.68 82.213 117.009 82.8845 117.009 83.713C117.009 84.5414 117.68 85.213 118.509 85.213V82.213ZM171.174 53.9865L169.755 54.4718L169.755 54.4718L171.174 53.9865ZM159.68 32.9099L158.503 33.8402L158.503 33.8402L159.68 32.9099ZM63.1345 8.31589L62.6454 6.89786L62.6454 6.89787L63.1345 8.31589ZM5.82691 111.017L4.40759 111.502L5.82691 111.017ZM17.3212 132.093L16.1445 133.023L16.1445 133.023L17.3212 132.093ZM113.867 156.687L114.356 158.105L114.356 158.105L113.867 156.687ZM172.173 52.9835L170.754 53.4688L170.754 53.4688L172.173 52.9835ZM160.679 31.9069L159.502 32.8372L159.502 32.8372L160.679 31.9069ZM64.1331 7.31292L63.644 5.8949L63.644 5.8949L64.1331 7.31292ZM6.82554 110.014L5.40621 110.499L6.82554 110.014ZM18.3198 131.09L17.1432 132.02L17.1432 132.02L18.3198 131.09ZM114.866 155.684L115.355 157.102L115.355 157.102L114.866 155.684ZM109.416 81.0934C105.827 91.591 93.295 97.0693 81.1967 92.8965L80.2185 95.7325C93.5855 100.343 108.031 94.4172 112.255 82.064L109.416 81.0934ZM81.1967 92.8965C69.0966 88.723 62.5551 76.6622 66.146 66.1605L63.3073 65.1899C59.0848 77.539 66.8532 91.1227 80.2185 95.7325L81.1967 92.8965ZM66.146 66.1605C69.7354 55.6629 82.2675 50.1846 94.3658 54.3575L95.344 51.5214C81.9769 46.911 67.5313 52.8367 63.3073 65.1899L66.146 66.1605ZM94.3658 54.3575C106.466 58.5309 113.007 70.5917 109.416 81.0934L112.255 82.064C116.478 69.7149 108.709 56.1312 95.344 51.5214L94.3658 54.3575ZM108.675 82.0377C107.987 84.0502 106.978 85.8695 105.712 87.4702L108.065 89.3307C109.537 87.469 110.713 85.3499 111.513 83.0083L108.675 82.0377ZM80.4549 93.8408C68.3549 89.6673 61.8134 77.6066 65.4043 67.1048L62.5656 66.1342C58.3431 78.4833 66.1115 92.067 79.4768 96.6768L80.4549 93.8408ZM65.4043 67.1048C66.0924 65.0924 67.1015 63.273 68.367 61.6723L66.0136 59.8118C64.5417 61.6735 63.3663 63.7926 62.5656 66.1342L65.4043 67.1048ZM93.6241 55.3018C105.724 59.4752 112.266 71.536 108.675 82.0377L111.513 83.0083C115.736 70.6592 107.968 57.0755 94.6023 52.4657L93.6241 55.3018ZM105.712 87.4702C100.334 94.2723 90.2247 97.2105 80.4549 93.8408L79.4768 96.6768C90.3202 100.417 101.814 97.2375 108.065 89.3307L105.712 87.4702ZM68.367 61.6723C73.7446 54.8703 83.8544 51.9321 93.6241 55.3018L94.6023 52.4657C83.7589 48.7257 72.2646 51.905 66.0136 59.8118L68.367 61.6723ZM50.9361 133.647C50.064 128.135 50.5669 119.656 54.8764 112.238C59.1358 104.906 67.2119 98.4355 81.87 96.9661L81.5708 93.9811C66.0335 95.5385 57.0636 102.501 52.2824 110.731C47.5512 118.875 47.0189 128.087 47.9729 134.116L50.9361 133.647ZM50.9361 133.647C50.0923 128.314 51.8407 119.436 56.9828 111.731C62.0771 104.097 70.4122 97.7482 82.66 97.1832L82.5218 94.1864C69.1622 94.8026 60.0161 101.781 54.4875 110.065C49.0067 118.278 46.9906 127.907 47.9729 134.116L50.9361 133.647ZM103.916 93.9392C111.802 92.3731 129.68 94.3624 137.339 115.383L140.158 114.356C131.846 91.5448 112.207 89.2339 103.331 90.9966L103.916 93.9392ZM102.94 94.1646C110.785 92.6069 128.588 94.9914 136.259 116.045L139.077 115.018C130.778 92.2405 111.274 89.4511 102.356 91.2221L102.94 94.1646ZM61.5471 63.6907C61.1933 61.3233 61.3488 57.5011 62.9861 53.9061C64.5959 50.3713 67.6491 47.0173 73.2255 45.43L72.4042 42.5446C65.9107 44.393 62.1988 48.3965 60.2559 52.6627C58.3403 56.8689 58.1552 61.2915 58.5801 64.1342L61.5471 63.6907ZM73.2255 45.43C80.6931 43.3043 88.2762 42.1905 94.4349 43.4209C97.4899 44.0312 100.149 45.2093 102.282 47.0871C104.408 48.9586 106.092 51.5952 107.096 55.2569L109.989 54.4635C108.85 50.3075 106.882 47.1392 104.264 44.8352C101.654 42.5374 98.4777 41.1693 95.0226 40.479C88.161 39.1082 80.0239 40.3757 72.4042 42.5446L73.2255 45.43ZM47.601 67.7129C47.7729 69.6893 48.0999 72.7171 48.5252 75.3838C48.7372 76.7131 48.9789 77.9865 49.2461 79.0057C49.379 79.513 49.5274 79.993 49.6954 80.3995C49.8391 80.7474 50.0826 81.2634 50.5031 81.6278L52.4678 79.3606C52.614 79.4873 52.5878 79.5438 52.4681 79.2541C52.3727 79.023 52.264 78.6874 52.148 78.245C51.9173 77.3649 51.6937 76.2025 51.4878 74.9113C51.0772 72.3369 50.7577 69.3843 50.5898 67.4531L47.601 67.7129ZM50.5031 81.6278C51.1127 82.156 52.0614 82.5295 52.9959 82.7655C53.9874 83.0159 55.1779 83.1654 56.4165 83.1144C58.8694 83.0134 61.7897 82.0955 63.4589 79.2609L60.8738 77.7387C59.9157 79.3658 58.1811 80.0392 56.2931 80.1169C55.3612 80.1553 54.4598 80.041 53.7305 79.8569C53.367 79.7651 53.0638 79.6603 52.8328 79.5589C52.718 79.5086 52.6289 79.4625 52.5635 79.424C52.5313 79.405 52.5073 79.3894 52.4906 79.3776C52.4736 79.3657 52.4668 79.3598 52.4678 79.3606L50.5031 81.6278ZM63.6391 78.7843C64.4515 74.5782 63.5943 68.8485 63.0899 66.5469L60.1594 67.1891C60.6431 69.3962 61.3858 74.6313 60.6936 78.2153L63.6391 78.7843ZM63.0413 66.3749C62.7556 65.5542 62.1887 64.3446 61.3684 63.3543C60.5904 62.4151 59.2334 61.2759 57.4266 61.6133L57.9773 64.5623C58.1286 64.5341 58.4871 64.5788 59.0581 65.268C59.5866 65.9061 60.002 66.7694 60.208 67.3611L63.0413 66.3749ZM57.4266 61.6133C56.8663 61.7179 56.1122 61.7869 55.0702 61.923C54.0963 62.0502 52.963 62.2279 51.8981 62.5406C50.8535 62.8473 49.7231 63.326 48.8726 64.1493C47.9545 65.0381 47.4476 66.2511 47.6036 67.7394L50.5872 67.4266C50.5298 66.8789 50.6861 66.5692 50.9592 66.3048C51.3 65.9749 51.8889 65.67 52.7434 65.419C53.5774 65.1741 54.5229 65.02 55.4588 64.8978C56.3267 64.7844 57.3137 64.6863 57.9773 64.5623L57.4266 61.6133ZM110.946 55.1104C111.497 54.758 112.496 54.2545 113.591 53.9591C114.716 53.6554 115.706 53.6345 116.411 53.9401L117.604 51.1878C115.991 50.488 114.208 50.6852 112.809 51.0626C111.38 51.4482 110.103 52.0887 109.33 52.5828L110.946 55.1104ZM116.411 53.9401C117.564 54.4402 118.193 55.0186 118.677 56.0868C119.225 57.2966 119.593 59.1524 119.952 62.2931L122.932 61.9529C122.576 58.835 122.176 56.5396 121.41 54.8487C120.579 53.0162 119.349 51.9444 117.604 51.1878L116.411 53.9401ZM119.952 62.2931C120.323 65.5451 120.615 67.6889 120.451 69.1541C120.374 69.8395 120.212 70.1782 120.059 70.3612C119.925 70.5209 119.671 70.7157 119.054 70.8308L119.605 73.7799C120.705 73.5744 121.663 73.1183 122.359 72.2867C123.036 71.4783 123.321 70.4849 123.432 69.4873C123.645 67.5863 123.275 64.9596 122.932 61.9529L119.952 62.2931ZM119.054 70.8308C117.364 71.1464 115.854 71.266 114.622 70.8364C113.525 70.4537 112.406 69.5448 111.677 67.1701L108.809 68.0498C109.761 71.1541 111.468 72.9136 113.635 73.6691C115.667 74.3778 117.86 74.1057 119.605 73.7799L119.054 70.8308ZM111.677 67.1701C110.857 64.4946 110.2 61.4849 110.06 59.0451C109.99 57.8174 110.057 56.8288 110.245 56.1289C110.436 55.415 110.677 55.2495 110.763 55.2104L109.514 52.4828C108.268 53.0532 107.648 54.228 107.347 55.3529C107.042 56.4918 106.986 57.8405 107.065 59.2164C107.223 61.9838 107.949 65.2462 108.809 68.0498L111.677 67.1701ZM120.522 68.9014C121.033 72.1509 121.774 75.0746 122.319 77.3215C122.595 78.4607 122.813 79.3963 122.941 80.1394C123.004 80.5087 123.039 80.7998 123.051 81.0232C123.063 81.2596 123.044 81.3482 123.045 81.3447L125.956 82.0694C126.14 81.3287 126.033 80.4237 125.898 79.6327C125.75 78.7731 125.507 77.7404 125.234 76.6145C124.681 74.3314 123.973 71.5382 123.486 68.4355L120.522 68.9014ZM123.045 81.3447C123.081 81.2006 123.149 81.25 122.88 81.4123C122.623 81.5669 122.219 81.7229 121.682 81.8555C120.616 82.1186 119.346 82.213 118.509 82.213V85.213C119.502 85.213 121.029 85.1067 122.401 84.7681C123.083 84.5998 123.809 84.3546 124.427 83.9826C125.032 83.6184 125.72 83.0159 125.956 82.0694L123.045 81.3447ZM172.594 53.5012C169.868 45.5298 165.868 38.3182 160.857 31.9796L158.503 33.8402C163.308 39.9177 167.142 46.8295 169.755 54.4718L172.594 53.5012ZM160.857 31.9796C139.57 5.05422 100.142 -6.03497 62.6454 6.89786L63.6236 9.73391C100.046 -2.8286 138.09 8.01946 158.503 33.8402L160.857 31.9796ZM62.6454 6.89787C16.3533 22.8645 -9.9176 69.6066 4.40759 111.502L7.24624 110.531C-6.44729 70.4833 18.5967 25.2641 63.6236 9.73391L62.6454 6.89787ZM4.40759 111.502C7.13323 119.473 11.1333 126.685 16.1445 133.023L18.4979 131.163C13.6931 125.085 9.85935 118.173 7.24624 110.531L4.40759 111.502ZM16.1445 133.023C37.4313 159.949 76.8597 171.038 114.356 158.105L113.378 155.269C76.9552 167.832 38.9113 156.984 18.4979 131.163L16.1445 133.023ZM114.356 158.105C160.648 142.138 186.919 95.3964 172.594 53.5012L169.755 54.4718C183.449 94.5197 158.405 139.739 113.378 155.269L114.356 158.105ZM173.592 52.4982C170.867 44.5268 166.867 37.3153 161.855 30.9767L159.502 32.8372C164.307 38.9148 168.141 45.8265 170.754 53.4688L173.592 52.4982ZM161.855 30.9767C140.569 4.05126 101.14 -7.03793 63.644 5.8949L64.6222 8.73095C101.045 -3.83156 139.089 7.01649 159.502 32.8372L161.855 30.9767ZM63.644 5.8949C17.352 21.8615 -8.91898 68.6036 5.40621 110.499L8.24486 109.528C-5.44867 69.4803 19.5953 24.2612 64.6222 8.73095L63.644 5.8949ZM5.40621 110.499C8.13185 118.47 12.132 125.682 17.1432 132.02L19.4965 130.16C14.6917 124.082 10.858 117.171 8.24486 109.528L5.40621 110.499ZM17.1432 132.02C38.4299 158.946 77.8583 170.035 115.355 157.102L114.376 154.266C77.9538 166.829 39.9099 155.981 19.4965 130.16L17.1432 132.02ZM115.355 157.102C161.647 141.136 187.918 94.3934 173.592 52.4982L170.754 53.4688C184.447 93.5167 159.403 138.736 114.376 154.266L115.355 157.102Z" fill="#7831B2"/>
</svg>
