<svg width="249" height="176" viewBox="0 0 249 176" fill="none" xmlns="http://www.w3.org/2000/svg">
<path d="M98.0409 78.4374C80.8592 97.5585 66.1128 118.161 54.241 139.736C51.3443 144.932 48.3484 150.487 48.8459 156.213C48.8824 157.275 49.6796 158.1 51.0955 158.126C52.2641 158.088 53.557 157.126 53.5205 156.063C53.146 151.326 55.2633 146.792 57.7082 142.39C60.6112 137.052 63.6749 131.85 66.9055 126.643C73.2801 116.302 80.477 106.219 88.2425 96.4722C92.6543 90.9439 97.3134 85.4786 101.966 80.1552C102.672 79.282 102.147 77.9519 101.25 77.4843C100.101 77.0956 98.8266 77.6325 98.0409 78.4374Z" fill="#A68AD5"/>
<path d="M91.352 90.2763C106.015 96.1174 118.531 105.288 127.193 116.779C128.768 118.855 132.863 116.74 131.287 114.663C122.069 102.552 109.158 92.898 93.7593 86.7259C91.2186 85.7437 88.7309 89.2257 91.352 90.2763Z" fill="#A68AD5"/>
<path d="M83.9995 101.996C91.4182 103.885 98.0136 107.432 103.836 111.5C109.176 115.157 115.072 119.435 116.132 125.639C116.607 128.105 121.078 126.899 120.684 124.502C119.488 117.593 113.203 112.689 107.213 108.627C100.662 104.087 93.5783 100.272 85.3373 98.1248C82.6171 97.4319 81.2794 101.303 83.9995 101.996Z" fill="#A68AD5"/>
<path d="M67.1364 125.218C72.6759 126.246 77.4724 129 81.8485 131.837C85.6559 134.339 89.5248 137.334 89.9984 141.714C90.1215 142.703 91.6793 143.291 92.7738 143.044C94.122 142.717 94.5863 141.639 94.5498 140.577C93.9406 135.492 89.6888 131.729 85.2261 128.965C80.2011 125.723 74.8359 122.633 68.4679 121.489C65.6611 120.87 64.243 124.672 67.1364 125.218Z" fill="#A68AD5"/>
<path d="M153.381 94.2072C155.308 86.4188 160.797 79.1548 168.825 74.787C176.173 70.7245 186.018 68.6381 194.092 70.7906C197.634 71.7409 200.774 74.2636 200.37 77.75C200.227 79.1015 199.509 80.2586 198.062 80.9428C196.788 81.4797 195.192 81.7432 193.968 81.1443C191.205 79.5312 194.213 75.6072 196.031 74.0605C199.409 71.188 203.738 69.4195 208.203 68.3554C218.308 66.048 229.109 64.8375 238.308 67.9466C239.458 68.3352 240.8 70.1507 241.511 69.1355C242.05 68.2677 241.946 66.8532 240.796 66.4646C230.614 62.9615 218.904 61.9884 207.791 64.4697C202.238 65.6394 196.635 67.9448 192.638 71.6168C189.341 74.5576 186.877 79.3857 189.559 82.8446C192.24 86.3034 198.424 85.9643 202.049 83.1549C205.933 80.1245 205.912 74.9503 203.304 71.7017C200.227 67.7593 194.54 66.3104 189.043 66.2023C183.633 66.0205 178.172 66.9745 173.008 68.7698C160.813 73.1287 151.644 82.566 148.997 93.4255C148.7 94.4983 149.237 95.5445 150.56 95.7858C151.636 95.9641 153.164 95.3483 153.381 94.2072Z" fill="#A68AD5"/>
<path d="M117.329 73.8363C128.221 67.3781 137.895 58.7848 145.572 49.5921C148.912 45.63 151.592 41.107 151.976 36.2936C152.251 31.9928 150.553 27.8278 146.468 25.4121C142.802 23.2012 137.434 22.7178 133.473 25.2448C129.69 27.6207 127.537 31.8359 129.261 35.4181C131.143 39.2863 136.732 40.5628 141.492 39.3198C147.121 37.7579 150.753 32.9863 152.494 28.4206C155.989 18.9976 152.012 8.55224 143.9 2.40954C141.75 0.732276 138.284 3.67996 140.434 5.35723C146.149 9.61231 149.785 16.1403 149.058 22.9288C148.733 26.431 147.36 30.403 144.503 33.1131C142.179 35.3696 138.01 36.812 135.01 35.0164C132.51 33.4958 133.597 30.1876 135.889 28.6595C138.536 26.8292 142.266 27.583 144.505 29.1847C151.127 34.2111 145.69 43.0413 141.264 48.3474C134.14 56.6495 125.348 64.6327 115.339 70.4808C112.54 71.8796 114.695 75.3753 117.329 73.8363Z" fill="#A68AD5"/>
<path d="M48.8955 156.991C42.0963 163.729 29.9655 172.519 19.7942 172.56C15.3732 172.63 10.6809 171.291 8.83419 167.806C6.74641 164.115 12.0876 156.181 14.81 153.045C13.5154 156.172 14.9906 150.842 14.0943 150.375C12.9507 149.844 11.6767 150.381 10.891 151.186C8.25515 154.247 5.42735 157.882 5.59209 161.705C5.67648 165.459 8.3705 168.634 11.9557 170.504C19.7009 174.44 30.8938 172.027 38.8845 168.511C43.9003 166.295 48.4529 163.243 52.0288 159.655C53.9467 157.751 50.8197 154.944 48.8955 156.991Z" fill="#A68AD5"/>
<path d="M99.1757 79.5002C109.145 83.1995 118.298 88.5174 126.001 95.0684C129.807 98.3053 133.16 101.773 136.151 105.55C136.876 106.475 137.601 107.4 138.326 108.479C138.87 109.249 139.867 110.251 139.867 111.176C139.776 111.87 139.142 112.409 138.689 112.949C137.782 113.874 136.785 114.721 135.788 115.569C120.835 128.748 103.163 139.615 83.7693 147.63C72.8942 152.255 61.4753 155.8 49.7846 158.497C46.6127 159.191 47.8815 163.353 51.0534 162.659C73.1661 157.572 94.1913 149.249 112.86 137.842C122.285 132.139 130.985 125.819 139.051 118.806C140.864 117.265 143.129 115.646 144.126 113.719C145.395 111.253 144.67 109.095 143.22 107.091C140.41 102.852 136.785 98.8448 133.07 95.2225C124.37 86.8989 113.585 80.1938 101.713 75.8008C100.444 75.3384 98.9944 75.4925 98.2694 76.5715C97.635 77.5734 97.9069 79.0377 99.1757 79.5002Z" fill="#A68AD5"/>
<path d="M98.5465 76.3402C80.7838 96.5326 65.74 118.421 53.868 141.465C50.9679 147.014 47.9773 152.948 48.7929 159.191C48.8835 160.347 47.7898 161.272 49.3304 161.349C50.5992 161.349 51.9586 160.347 51.868 159.191C51.2336 154.027 53.318 149.172 55.7649 144.47C58.6649 138.767 61.7462 133.218 65.0087 127.669C71.4431 116.648 78.7838 105.935 86.7589 95.6078C91.2902 89.7505 96.0934 83.9702 100.897 78.344C101.622 77.4192 100.987 75.9549 99.9903 75.4154C98.7215 74.953 99.3621 75.4924 98.5465 76.3402Z" fill="#A68AD5"/>
<path d="M90.8411 89.9798C107.063 96.8391 120.11 106.244 130.079 119.037C131.891 121.349 136.242 119.191 134.429 116.879C123.826 103.392 110.326 93.448 93.288 86.2034C90.4786 85.0474 87.9411 88.7467 90.8411 89.9798Z" fill="#A68AD5"/>
<path d="M82.4087 101.465C90.565 103.778 97.9057 107.862 104.431 112.486C110.412 116.648 117.028 121.504 118.478 128.286C119.112 130.983 123.915 129.827 123.372 127.207C121.74 119.654 114.671 114.105 107.965 109.481C100.624 104.317 92.74 99.924 83.6774 97.3036C80.6868 96.4558 79.418 100.618 82.4087 101.465Z" fill="#A68AD5"/>
<path d="M72.8021 113.951C79.8709 115.955 85.9429 119.731 91.7429 123.585C96.9992 127.13 102.618 131.292 104.431 136.995C104.431 136.687 104.431 136.224 104.431 135.916V136.07C104.612 135.762 104.884 135.376 105.065 135.068C105.156 134.991 105.156 134.991 105.246 134.914C106.515 135.376 107.693 135.762 108.962 136.224L108.871 136.147C108.056 133.45 103.252 134.606 103.977 137.226L104.068 137.303C104.521 138.767 106.243 139.153 107.784 138.613C111.681 137.149 107.331 131.292 105.881 129.442C103.434 126.436 100.352 123.97 96.9992 121.581C90.1117 116.802 82.771 112.101 74.1615 109.712C70.9896 109.018 69.6302 113.103 72.8021 113.951Z" fill="#A68AD5"/>
<path d="M66.1901 126.127C72.262 127.438 76.6089 130.597 81.5027 133.834C85.7621 136.686 90.1121 140.077 90.8371 144.855C91.0184 145.934 92.7403 146.628 93.9184 146.397C95.3684 146.089 95.8216 144.933 95.7309 143.776C94.8247 138.227 90.0215 133.989 85.0371 130.829C79.4183 127.129 74.437 123.584 67.4588 122.12C64.3775 121.349 63.0182 125.434 66.1901 126.127Z" fill="#A68AD5"/>
<path d="M56.0374 138.69C63.1062 141.156 71.3531 144.47 74.2531 150.944C74.7969 152.023 75.8844 152.794 77.3344 152.486C78.5126 152.255 79.6001 151.021 79.1469 149.865C75.6125 142.081 67.0937 138.074 58.5749 134.991C57.3061 134.528 57.8561 134.683 57.1311 135.762C56.4967 136.763 54.7686 138.228 56.0374 138.69Z" fill="#A68AD5"/>
<path d="M154.098 94.2998C155.82 85.8991 161.438 78.1921 169.957 73.722C177.751 69.5602 188.354 67.6335 197.236 70.2538C201.132 71.4099 204.667 74.2615 204.395 78.038C204.304 79.5023 203.579 80.7354 202.039 81.429C200.679 81.9685 198.957 82.1998 197.598 81.5061C194.517 79.6564 197.598 75.4946 199.501 73.8762C203.036 70.8704 207.658 69.0978 212.461 68.0959C223.336 65.9379 235.117 67.171 245.267 70.8704C246.536 71.3328 247.986 71.1787 248.711 70.0997C249.255 69.1749 249.074 67.6335 247.805 67.171C236.567 63.0092 223.789 61.5449 211.826 63.857C205.845 64.936 199.864 67.2481 195.695 71.1016C192.251 74.1844 189.804 79.3482 192.886 83.2017C195.967 87.0552 196.673 84.901 200.479 81.9724C204.558 78.8125 204.286 73.1864 201.295 69.564C197.761 65.171 197.507 65.3984 191.526 65.0901C185.635 64.7048 179.745 65.5526 174.217 67.3252C161.166 71.6411 151.651 81.5832 149.295 93.2979C149.023 94.4539 149.657 95.61 151.107 95.9183C152.285 96.1495 153.916 95.5329 154.098 94.2998Z" fill="#A68AD5"/>
<path d="M116.122 74.6444C127.36 68.1705 137.238 60.0781 144.941 50.5984C148.294 46.5137 150.923 41.8124 151.104 36.7258C151.194 32.1786 149.201 27.7086 144.76 25.0111C140.773 22.5448 136.157 23.3855 132.079 25.9288C128.182 28.318 127.004 31.1767 128.997 35.0302C131.172 39.192 135.154 40.7334 140.138 39.5774C146.029 38.1131 149.654 33.1805 151.285 28.4022C154.548 18.5372 150.651 7.36199 141.769 0.5798C139.413 -1.26989 135.879 1.73585 138.235 3.58554C144.488 8.28683 147.841 15.3002 147.388 22.4678C147.207 26.1671 145.938 30.3289 143.038 33.1035C140.682 35.4156 136.332 36.8029 133.069 34.799C130.351 33.1035 131.347 29.6353 133.704 28.0939C136.422 26.2442 140.41 27.1691 142.857 28.9417C150.107 34.4907 144.76 43.6621 140.319 49.1341C133.16 57.6889 124.188 65.1647 113.857 71.0221C110.957 72.4094 113.404 76.1858 116.122 74.6444Z" fill="#A68AD5"/>
<path d="M46.8844 160.038C39.8155 167.129 29.0311 171.984 17.9747 171.676C13.1716 171.599 8.00589 169.98 5.83087 166.127C3.38397 162.042 6.82776 157.88 9.63716 154.566C10.3622 153.642 9.72778 152.177 8.7309 151.638C7.46213 151.021 6.10275 151.561 5.28712 152.408C2.56835 155.645 -0.331676 159.499 0.0308267 163.661C0.302703 167.745 3.38398 171.291 7.37151 173.449C15.981 177.996 28.0342 175.761 36.553 172.216C41.8999 169.98 46.7031 166.821 50.4188 163.044C52.4125 161.04 48.8781 157.88 46.8844 160.038Z" fill="#A68AD5"/>
</svg>
