<svg width="313" height="234" viewBox="0 0 313 234" fill="none" xmlns="http://www.w3.org/2000/svg">
<path fill-rule="evenodd" clip-rule="evenodd" d="M80.235 23.4155C62.9956 33.2488 50.7906 46.1519 46.0678 61.0931C39.6324 81.4522 48.1775 102.228 67.6417 119.444C87.1047 136.659 117.312 150.112 153.5 155.583C189.677 161.054 225.084 157.488 253.056 147.345C255.595 146.424 258.071 145.45 260.478 144.425C273.017 138.681 283.573 131.482 291.414 123.128C297.56 116.579 302.026 109.335 304.493 101.531C310.932 81.1585 302.62 60.3816 283.412 43.174C264.201 25.9639 234.247 12.5123 198.061 7.04072C168.782 2.61356 140.001 4.10409 115.253 10.2159C102.279 13.4201 90.4435 17.8865 80.235 23.4155ZM268.39 28.3281C274.707 32.2261 280.407 36.4506 285.413 40.9355C303.212 56.8806 312.366 76.2701 308.939 95.9574C313.122 76.9141 304.685 57.75 286.763 41.6936C281.433 36.9191 275.277 32.4339 268.39 28.3281ZM261.703 147.167C253.145 151.086 243.724 154.324 233.676 156.805C208.53 163.015 179.351 164.517 149.701 160.034C113.086 154.498 82.5435 140.859 62.797 123.169C43.0476 105.476 33.9418 83.5431 40.8565 61.6676C43.4789 53.3715 48.2038 45.7449 54.6097 38.9197C61.0925 32.0124 69.3089 25.9119 78.857 20.7466C85.4025 17.0218 92.6119 13.7497 100.337 10.9731C129.072 0.645454 165.236 -2.94767 201.86 2.5901C238.475 8.12647 269.017 21.7651 288.764 39.4551C308.513 57.1477 317.619 79.0809 310.704 100.956C304.455 120.726 286.295 136.681 261.703 147.167ZM64.9434 121.06C58.5214 115.274 53.2307 109.043 49.2667 102.516C53.1147 108.957 58.3408 115.145 64.7984 120.93C64.8466 120.974 64.895 121.017 64.9434 121.06ZM94.4813 194.84C86.2187 200.493 72.2565 201.061 59.472 195.04C51.4388 191.257 45.5729 185.663 42.5201 179.769C39.4748 173.888 39.2508 167.792 42.28 162.72C43.3219 160.976 44.6922 159.443 46.3379 158.135C49.3681 156.056 53.1723 154.653 57.4607 154.021C64.7736 152.943 73.3315 154.143 81.3615 157.925C89.3947 161.708 95.2606 167.302 98.3133 173.196C101.359 179.076 101.583 185.173 98.5535 190.245C97.5108 191.99 96.1342 193.528 94.4813 194.84ZM45.1628 155.255C54.4833 148.419 70.0131 147.909 83.7572 154.382C92.2834 158.397 98.691 164.415 102.095 170.989C105.507 177.577 105.924 184.805 102.247 190.961C100.857 193.288 98.9956 195.266 96.7886 196.885C96.6218 197.007 96.453 197.128 96.2822 197.246C92.6063 200.139 87.8736 201.976 82.6915 202.74C74.7578 203.909 65.6057 202.6 57.0763 198.583C48.55 194.567 42.1424 188.55 38.738 181.976C35.3262 175.388 34.9095 168.16 38.5865 162.004C40.0877 159.49 42.1317 157.39 44.5682 155.706C44.7635 155.553 44.9617 155.402 45.1628 155.255ZM31.7959 228.367C27.1151 231.377 19.5819 231.378 12.9412 227.511C8.76805 225.081 5.88389 221.657 4.53889 218.155C3.19775 214.663 3.39421 211.149 5.25395 208.322C5.89411 207.348 6.69754 206.505 7.63632 205.798C9.34683 204.694 11.4368 203.989 13.7599 203.735C17.7535 203.298 22.329 204.217 26.5013 206.647C30.6745 209.077 33.5586 212.501 34.9036 216.003C36.2448 219.495 36.0483 223.009 34.1886 225.836C33.549 226.809 32.7415 227.656 31.7959 228.367ZM6.26602 203.084C12.0978 199.027 21.1301 199.185 28.682 203.582C33.3764 206.316 36.7585 210.245 38.3761 214.457C39.9977 218.679 39.8532 223.24 37.3663 227.02C36.4264 228.449 35.2288 229.646 33.848 230.607C33.7419 230.681 33.6347 230.753 33.5264 230.824C31.2239 232.531 28.3735 233.545 25.3364 233.877C20.6703 234.387 15.4558 233.31 10.7606 230.576C6.06614 227.842 2.68405 223.914 1.06637 219.701C-0.555169 215.479 -0.410743 210.918 2.07621 207.138C3.09545 205.588 4.41053 204.318 5.93032 203.324C6.04097 203.243 6.15287 203.162 6.26602 203.084Z" fill="#7831B2"/>
<path d="M164.391 84.4862C163.309 84.0441 162.384 83.2812 161.618 82.1973C160.87 81.0663 160.397 79.7996 160.198 78.3974C159.999 76.9952 160.168 75.633 160.704 74.3111C160.973 73.6501 161.288 73.0083 161.65 72.3857C162.079 71.7352 162.724 71.0907 163.587 70.4523C164.449 69.8138 165.666 69.1823 167.236 68.5577C168.806 67.933 170.866 67.3162 173.417 66.707C175.25 66.2449 176.673 65.7803 177.686 65.3132C178.764 64.8181 179.555 64.2881 180.059 63.7232C180.582 63.1111 181.006 62.4037 181.332 61.6011C182.021 59.9013 181.843 58.3146 180.795 56.841C179.767 55.3201 177.606 53.8869 174.312 52.5415C172.289 51.715 170.509 51.2355 168.972 51.103C167.454 50.9233 166.138 50.8538 165.025 50.8943C163.977 50.9068 163.054 50.7497 162.254 50.4229C161.548 50.1346 161.056 49.6583 160.777 48.9939C160.545 48.3488 160.563 47.6958 160.831 47.0348C161.004 46.6098 161.284 46.2566 161.673 45.975C162.081 45.6461 162.511 45.4642 162.964 45.4291C164.796 45.2415 166.983 45.3922 169.528 45.881C172.091 46.3227 174.337 46.9376 176.267 47.7256C179.56 49.0711 182.027 50.6292 183.667 52.3999C185.373 54.1427 186.39 55.9617 186.718 57.857C187.093 59.7715 186.897 61.673 186.131 63.5615C185.652 64.7419 185.018 65.8314 184.228 66.83C183.439 67.8286 182.278 68.7302 180.744 69.5349C179.258 70.3589 177.126 71.0842 174.348 71.7109C172.128 72.1801 170.432 72.643 169.259 73.0997C168.106 73.5091 167.296 73.9491 166.831 74.4196C166.366 74.89 166.009 75.4321 165.76 76.0459C165.453 76.8014 165.392 77.492 165.577 78.1179C165.762 78.7438 166.013 79.3417 166.33 79.9117C166.666 80.4344 166.937 80.9851 167.141 81.5638C167.364 82.0952 167.332 82.7151 167.044 83.4233C166.833 83.9426 166.463 84.3143 165.933 84.5382C165.47 84.7342 164.956 84.7169 164.391 84.4862ZM157.472 100.319C156.013 99.723 154.939 98.7887 154.248 97.516C153.577 96.196 153.567 94.7335 154.219 93.1282C154.66 92.0423 155.367 91.3129 156.341 90.9403C157.334 90.5204 158.302 90.5026 159.243 90.887C161.172 91.6751 162.326 92.7518 162.704 94.1173C163.082 95.4827 163.003 96.8265 162.466 98.1485C162.102 99.0455 161.485 99.7564 160.613 100.281C159.789 100.825 158.742 100.838 157.472 100.319Z" fill="#7831B2"/>
</svg>
