<svg width="50" height="38" viewBox="0 0 50 38" fill="none" xmlns="http://www.w3.org/2000/svg">
<path fill-rule="evenodd" clip-rule="evenodd" d="M48.9112 23.9723C48.514 20.8679 45.8661 18.8433 43.3505 17.4935C42.0862 16.8491 40.5805 16.6969 39.2944 16.567L39.1138 16.5487C34.0828 15.8738 39.6434 4.94085 40.7026 3.18618C40.9674 2.64628 40.835 2.10638 40.4378 1.83643C40.173 1.16156 39.511 0.756632 38.7166 1.16156C29.7137 6.96548 17.6656 38.6846 36.9955 36.9299C43.3505 36.39 49.838 30.4511 48.9112 23.9723ZM36.5983 6.29061L36.4533 6.65912C35.983 7.85257 35.4418 9.2257 35.0781 10.6098C35.0545 10.6998 35.0316 10.7897 35.0095 10.8797C35.0085 10.8767 35.0075 10.8737 35.0065 10.8707L34.7447 11.8246C34.3399 13.5786 34.0898 15.2538 34.2902 16.5487C34.3192 16.7363 34.3577 16.916 34.4065 17.0867C34.6035 17.7273 35.0572 18.5707 35.9363 18.9782C36.3335 19.1132 36.7307 19.2482 37.2603 19.2482C38.3194 19.2482 39.3786 19.3832 40.4378 19.6531L41.497 20.058C42.758 20.5723 43.7788 21.3314 44.6738 22.2188C44.681 22.226 44.6882 22.2331 44.6954 22.2402C44.7328 22.2775 44.7699 22.3149 44.8069 22.3526L44.7994 22.3602C45.0356 22.6574 45.3316 23.1743 45.4689 23.4324C46.7928 25.862 46.2632 28.9664 42.6885 31.6659C40.9674 33.0156 39.2462 33.6905 37.6575 33.9605C37.4467 34.0054 36.8073 34.0954 35.9363 34.0954C34.2151 33.9604 32.494 33.2856 31.3024 32.0708C31.2381 32.005 31.0423 31.778 30.7728 31.3959C29.8461 30.1812 29.1841 28.5615 29.0517 26.6718C28.9636 26.4468 28.7874 25.7 28.7869 24.5122C28.8954 22.8536 29.1815 21.0137 29.7182 19.1411C29.8367 18.728 29.9673 18.3132 30.1109 17.8984C30.1622 17.8601 30.2133 17.8211 30.2643 17.7814L32.494 12.2295C33.6856 10.0699 35.1419 8.04528 36.5983 6.29061Z" fill="#7831B2"/>
<path fill-rule="evenodd" clip-rule="evenodd" d="M23.2562 23.9723C22.859 20.8679 20.2111 18.8433 17.6955 17.4935C16.4313 16.8491 14.9255 16.6969 13.6395 16.567L13.4589 16.5487C8.42778 15.8738 13.9884 4.94085 15.0476 3.18618C15.3124 2.64628 15.18 2.10638 14.7828 1.83643C14.518 1.16156 13.856 0.756632 13.0617 1.16156C4.05869 6.96548 -7.98941 38.6846 11.3405 36.9299C17.6955 36.39 24.183 30.4511 23.2562 23.9723ZM10.9433 6.29061L10.7983 6.65912C10.328 7.85257 9.78684 9.2257 9.42314 10.6098C9.39951 10.6998 9.37662 10.7897 9.35455 10.8797C9.35356 10.8767 9.35256 10.8737 9.35154 10.8707L9.08976 11.8246C8.68492 13.5786 8.43481 15.2538 8.63517 16.5487C8.66421 16.7363 8.70271 16.916 8.75156 17.0867C8.9485 17.7273 9.40224 18.5707 10.2813 18.9782C10.6785 19.1132 11.0757 19.2482 11.6053 19.2482C12.6645 19.2482 13.7236 19.3832 14.7828 19.6531L15.842 20.058C17.103 20.5723 18.1239 21.3314 19.0189 22.2188C19.026 22.226 19.0332 22.2331 19.0404 22.2402C19.0778 22.2775 19.115 22.3149 19.1519 22.3526L19.1445 22.3602C19.3806 22.6574 19.6766 23.1743 19.8139 23.4324C21.1379 25.862 20.6083 28.9664 17.0336 31.6659C15.3124 33.0156 13.5912 33.6905 12.0025 33.9605C11.7917 34.0054 11.1523 34.0954 10.2813 34.0954C8.56017 33.9604 6.83901 33.2856 5.64744 32.0708C5.58317 32.005 5.38727 31.778 5.11786 31.3959C4.19109 30.1812 3.5291 28.5615 3.3967 26.6718C3.30866 26.4468 3.13244 25.7 3.13191 24.5122C3.24038 22.8536 3.52656 21.0137 4.06326 19.1411C4.18168 18.728 4.31229 18.3132 4.45588 17.8984C4.5072 17.8601 4.55835 17.8211 4.60932 17.7814L6.83902 12.2295C8.03059 10.0699 9.48694 8.04528 10.9433 6.29061Z" fill="#7831B2"/>
<path d="M39.1138 16.5487C34.0828 15.8738 39.6434 4.94085 40.7026 3.18618C40.9674 2.64628 40.835 2.10638 40.4378 1.83643C40.173 1.16156 39.511 0.756632 38.7166 1.16156C29.7137 6.96548 17.6656 38.6846 36.9955 36.9299C43.3505 36.39 49.838 30.4511 48.9112 23.9723C48.514 20.8679 45.8661 18.8433 43.3505 17.4935C42.0862 16.8491 40.5805 16.6969 39.2944 16.567M39.1138 16.5487C39.1735 16.5548 39.2337 16.5609 39.2944 16.567M39.1138 16.5487L39.2944 16.567M36.5983 6.29061C35.1419 8.04528 33.6856 10.0699 32.494 12.2295L30.2643 17.7814M36.5983 6.29061C36.5509 6.41135 36.5025 6.53425 36.4533 6.65912M36.5983 6.29061L36.4533 6.65912M34.6123 17.6285C34.5297 17.4601 34.4616 17.2791 34.4065 17.0867M44.8069 22.3526C44.8044 22.3551 44.8019 22.3577 44.7995 22.3602M44.8069 22.3526L44.7995 22.3602M44.8069 22.3526C44.7699 22.3149 44.7328 22.2775 44.6954 22.2402M29.7182 19.1411C29.1815 21.0137 28.8954 22.8536 28.7869 24.5122C28.7874 25.7 28.9636 26.4468 29.0517 26.6718C29.1841 28.5615 29.8461 30.1812 30.7728 31.3959C31.0423 31.778 31.2382 32.005 31.3024 32.0708C32.494 33.2856 34.2151 33.9604 35.9363 34.0954C36.8073 34.0954 37.4467 34.0054 37.6575 33.9605C39.2462 33.6905 40.9674 33.0156 42.6885 31.6659C46.2632 28.9664 46.7928 25.862 45.4689 23.4324C45.3316 23.1743 45.0356 22.6574 44.7995 22.3602M29.7182 19.1411C29.8367 18.728 29.9673 18.3132 30.1109 17.8984C30.1622 17.8601 30.2133 17.8211 30.2643 17.7814M29.7182 19.1411L30.2643 17.7814M34.2902 16.5487C34.0898 15.2538 34.3399 13.5786 34.7447 11.8246L35.0065 10.8707M34.2902 16.5487C34.3192 16.7363 34.3577 16.916 34.4065 17.0867M34.2902 16.5487C34.3057 16.6921 34.3426 16.8787 34.4065 17.0867M36.4533 6.65912C35.983 7.85257 35.4418 9.2257 35.0781 10.6098M44.7995 22.3602C44.7631 22.3144 44.7281 22.2738 44.6954 22.2402M34.4065 17.0867C34.6035 17.7273 35.0572 18.5707 35.9363 18.9782C36.3335 19.1132 36.7307 19.2482 37.2603 19.2482C38.3194 19.2482 39.3786 19.3832 40.4378 19.6531L41.497 20.058C42.758 20.5723 43.7788 21.3314 44.6738 22.2188C44.681 22.226 44.6882 22.2331 44.6954 22.2402M35.0781 10.6098C35.0545 10.6998 35.0316 10.7897 35.0095 10.8797C35.0085 10.8767 35.0075 10.8737 35.0065 10.8707M35.0781 10.6098L35.0065 10.8707M34.948 10.7408C34.9708 10.7802 34.9905 10.8236 35.0065 10.8707M13.4589 16.5487C8.42778 15.8738 13.9884 4.94085 15.0476 3.18618C15.3124 2.64628 15.18 2.10638 14.7828 1.83643C14.518 1.16156 13.856 0.756632 13.0617 1.16156C4.05869 6.96548 -7.98941 38.6846 11.3405 36.9299C17.6955 36.39 24.183 30.4511 23.2562 23.9723C22.859 20.8679 20.2111 18.8433 17.6955 17.4935C16.4313 16.8491 14.9255 16.6969 13.6395 16.567M13.4589 16.5487C13.5185 16.5548 13.5788 16.5609 13.6395 16.567M13.4589 16.5487L13.6395 16.567M10.9433 6.29061C9.48694 8.04528 8.03059 10.0699 6.83902 12.2295L4.60932 17.7814M10.9433 6.29061C10.8959 6.41135 10.8475 6.53425 10.7983 6.65912M10.9433 6.29061L10.7983 6.65912M8.95736 17.6285C8.87476 17.4601 8.80659 17.2791 8.75156 17.0867M19.1519 22.3526C19.1494 22.3551 19.1469 22.3577 19.1445 22.3602M19.1519 22.3526L19.1445 22.3602M19.1519 22.3526C19.115 22.3149 19.0778 22.2775 19.0404 22.2402M4.06326 19.1411C3.52656 21.0137 3.24038 22.8536 3.13191 24.5122C3.13244 25.7 3.30866 26.4468 3.3967 26.6718C3.5291 28.5615 4.19109 30.1812 5.11786 31.3959C5.38727 31.778 5.58317 32.005 5.64744 32.0708C6.83901 33.2856 8.56017 33.9604 10.2813 34.0954C11.1523 34.0954 11.7917 34.0054 12.0025 33.9605C13.5912 33.6905 15.3124 33.0156 17.0336 31.6659C20.6083 28.9664 21.1379 25.862 19.8139 23.4324C19.6766 23.1743 19.3806 22.6574 19.1445 22.3602M4.06326 19.1411C4.18168 18.728 4.31229 18.3132 4.45588 17.8984C4.5072 17.8601 4.55835 17.8211 4.60932 17.7814M4.06326 19.1411L4.60932 17.7814M8.63517 16.5487C8.43481 15.2538 8.68492 13.5786 9.08976 11.8246L9.35154 10.8707M8.63517 16.5487C8.66421 16.7363 8.70271 16.916 8.75156 17.0867M8.63517 16.5487C8.65074 16.6921 8.68761 16.8787 8.75156 17.0867M10.7983 6.65912C10.328 7.85257 9.78684 9.2257 9.42314 10.6098M19.1445 22.3602C19.1081 22.3144 19.0731 22.2738 19.0404 22.2402M8.75156 17.0867C8.9485 17.7273 9.40224 18.5707 10.2813 18.9782C10.6785 19.1132 11.0757 19.2482 11.6053 19.2482C12.6645 19.2482 13.7236 19.3832 14.7828 19.6531L15.842 20.058C17.103 20.5723 18.1239 21.3314 19.0189 22.2188C19.026 22.226 19.0332 22.2331 19.0404 22.2402M9.42314 10.6098C9.39951 10.6998 9.37662 10.7897 9.35455 10.8797C9.35356 10.8767 9.35256 10.8737 9.35154 10.8707M9.42314 10.6098L9.35154 10.8707M9.29301 10.7408C9.31586 10.7802 9.33551 10.8236 9.35154 10.8707" stroke="#7831B2" stroke-width="1.26269"/>
</svg>
