<svg width="156" height="169" viewBox="0 0 156 169" fill="none" xmlns="http://www.w3.org/2000/svg">
<path d="M99.3445 149.856C120.475 129.083 116.122 98.7097 103.029 75.1397C118.133 102.329 119.396 127.524 99.3445 149.856ZM99.3445 149.856C95.1516 154.525 92.2902 156.837 86.843 159.954C71.5945 168.679 56.6153 168.466 41.9328 162.577M99.3445 149.856C97.3667 151.8 89.7516 157.493 87.327 158.839C72.5902 167.025 57.2656 167.814 41.9328 162.577M41.9328 162.577C29.9437 158.482 12.9465 143.656 5.63172 124.675M41.9328 162.577C35.1011 159.837 28.7782 155.713 23.4247 150.339C19.8849 146.786 15.4502 140.671 12.8911 136.064M49.009 127.738L50.8841 118.933M50.8841 118.933L52.2722 112.415M50.8841 118.933L57.3919 120.319L50.0798 118.762M50.8841 118.933L41.3137 116.895L50.0798 118.762M52.2722 112.415L57.8138 86.3941C64.9762 86.5855 77.3372 90.5519 75.5507 104.578C74.2204 115.022 61.8975 114.803 52.2722 112.415ZM52.2722 112.415C48.7299 111.536 45.4362 110.344 42.9443 109.239C45.2058 110.242 48.0643 111.279 51.137 112.07M51.137 112.07C60.6497 114.518 72.2161 114.598 74.4838 103.95C77.484 89.8629 63.9092 85.9581 56.7468 85.7667C56.7468 85.7667 53.6608 98.5506 52.1123 106.589C51.7857 108.284 51.4558 110.158 51.137 112.07ZM51.137 112.07C50.7612 114.324 50.4008 116.631 50.0798 118.762M50.0798 118.762C49.3175 123.822 48.7768 127.889 48.7768 127.889M150.456 49.5596C156.866 36.3784 150.867 17.626 139.296 7.78434C152.644 19.1374 157.77 36.7087 150.456 49.5596ZM150.456 49.5596C149.646 51.2247 148.634 52.7955 147.404 54.2413C141.219 61.5119 132.334 65.1474 123.424 64.9464M150.456 49.5596C149.712 50.8667 148.836 52.1215 147.824 53.3117C141.67 60.5457 132.548 64.6748 123.424 64.9464M123.424 64.9464C116.29 65.1587 105.338 61.7514 97.7236 53.1869M123.424 64.9464C119.278 64.8528 116.075 64.9783 112.188 63.2032C109.617 62.0295 106.068 59.6817 103.807 57.7581M121.21 46.2188L120.457 41.2035M120.457 41.2035L119.899 37.4906M120.457 41.2035L124.164 40.6467L119.999 41.2723M120.457 41.2035L115.006 42.0223L119.999 41.2723M119.899 37.4906L117.673 22.6685C121.489 21.3521 128.794 20.9981 130.627 28.75C131.992 34.5224 125.449 36.8456 119.899 37.4906ZM119.899 37.4906C117.857 37.728 115.884 37.7507 114.351 37.6611C115.742 37.7425 117.455 37.7241 119.232 37.5331M119.232 37.5331C124.734 36.9417 130.851 34.6956 129.94 28.6302C128.735 20.6056 120.802 21.2323 116.986 22.5487C116.986 22.5487 117.888 29.9026 118.662 34.4493C118.825 35.408 119.022 36.4615 119.232 37.5331ZM119.232 37.5331C119.48 38.7964 119.747 40.0847 119.999 41.2723M119.999 41.2723C120.598 44.0922 121.118 46.3442 121.118 46.3442M104.721 80.3487C119.468 106.896 109.667 140.4 83.4065 154.986C57.1464 169.573 23.689 158.275 8.94214 131.728C-5.80476 105.18 3.74318 73.4357 30.0032 58.8492C56.2633 44.2628 89.9745 53.8012 104.721 80.3487ZM105.53 79.2236C120.277 105.771 110.944 139.117 84.6839 153.703C58.4238 168.29 25.1811 158.593 10.4342 132.046C-4.31272 105.498 5.02055 72.1525 31.2806 57.5661C57.5407 42.9797 90.7834 52.6761 105.53 79.2236ZM141.22 10.1971C154.252 21.2821 155.712 40.8942 144.746 53.7848C133.781 66.6754 113.898 67.3372 100.866 56.2523C87.8334 45.1673 86.5878 26.5332 97.5528 13.6426C108.518 0.752007 128.187 -0.887834 141.22 10.1971ZM141.424 9.4436C154.456 20.5286 156.131 39.9646 145.166 52.8552C134.201 65.7458 114.748 67.2096 101.715 56.1246C88.6833 45.0396 87.0076 25.6036 97.9727 12.713C108.938 -0.177601 128.391 -1.64136 141.424 9.4436Z" stroke="#7831B2" stroke-width="4" stroke-linecap="round"/>
</svg>
