<svg width="192" height="256" viewBox="0 0 192 256" fill="none" xmlns="http://www.w3.org/2000/svg">
<path d="M104.488 178.507C118.064 196.796 115.306 213.916 115.277 223.256C115.335 223.688 115.354 224.703 114.966 225.309M104.488 178.507C91.1862 160.585 48.9198 138.388 28.244 128.954C27.5145 128.621 27.1395 127.822 27.3337 127.043L28.2986 123.171M104.488 178.507C99.7646 164.45 51.7269 135.759 28.2986 123.171M28.2986 123.171L18.0194 117.908C17.2363 117.507 16.9027 116.562 17.2594 115.757L24.4751 99.4692M24.4751 99.4692L21.7905 89.9942C21.6088 89.3529 21.0617 88.8829 20.4014 88.8007L4.35288 86.8038C2.90597 86.6238 2.38056 84.7939 3.51085 83.8712L15.2079 74.3228C15.7073 73.9152 15.9254 73.2545 15.7671 72.629L12.1987 58.5243C11.8484 57.1398 13.2918 55.9885 14.5602 56.6406L27.0411 63.0575C27.5199 63.3036 28.0882 63.3014 28.565 63.0515L37.2855 58.4816M24.4751 99.4692L26.2047 104.687C26.6792 106.119 28.6604 106.225 29.2839 104.851L36.1541 89.7203C36.3963 89.1869 36.9015 88.821 37.4831 88.7578L45.9483 87.8381M37.2855 58.4816L10.9009 51.3638C9.48842 50.9828 9.22925 49.0869 10.4852 48.3357L33.4464 34.6023C33.9954 34.274 34.3077 33.6577 34.2471 33.0201L31.7493 6.71665C31.6112 5.26338 33.279 4.35283 34.4233 5.25666L54.6008 21.1934C55.0694 21.5635 55.7005 21.6525 56.2528 21.4263L80.656 11.4333C81.9608 10.8989 83.293 12.138 82.8578 13.4812L74.6163 38.9184M37.2855 58.4816L40.4674 68.9109M37.2855 58.4816L45.9483 87.8381M74.6163 38.9184L81.3882 35.3696C81.8501 35.1276 82.1713 34.6818 82.2551 34.1664L84.6329 19.5486C84.8531 18.1951 86.5242 17.6783 87.4676 18.6721L97.8898 29.6514C98.3188 30.1033 98.9647 30.2761 99.5615 30.0984L114.672 25.6018C116.102 25.1761 117.321 26.7139 116.583 28.013L108.153 42.8482C107.823 43.4288 107.873 44.1509 108.279 44.6805L115.473 54.05M74.6163 38.9184L92.365 63.5136M115.473 54.05L129.358 57.0551C130.175 57.2319 130.732 57.9907 130.66 58.8249C130.337 62.5409 130.01 66.7471 129.702 71.291M115.473 54.05L117.491 56.6727C118.423 57.8844 117.361 59.607 115.862 59.3139L100.072 56.2262C99.5044 56.1152 98.9202 56.3088 98.5306 56.7369L92.365 63.5136M133.524 163.291C143.938 183.236 146.326 187.809 164.547 197.322C164.619 197.359 164.689 197.403 164.755 197.45L166.071 198.402M133.524 163.291C133.281 162.827 133.048 162.324 132.825 161.786M133.524 163.291C133.276 162.842 133.043 162.34 132.825 161.786M166.071 198.402C166.858 197.821 168.736 196.905 169.95 197.881C171.165 198.858 172.43 200.782 172.91 201.622M166.071 198.402C160.822 202.06 155.217 205.507 149.664 208.653M172.91 201.622C173.602 201.26 175.148 200.752 175.802 201.619C176.456 202.486 179 205.656 180.19 207.132M172.91 201.622C161.689 211.737 128.74 227.038 113.669 233.424M180.19 207.132C180.764 206.705 182.37 206.393 184.204 208.557C185.619 210.226 187.47 212.471 188.726 214.006C189.259 214.657 189.223 215.6 188.607 216.173C183.832 220.611 171.254 230.067 151.07 239.529C125.55 251.494 121.852 253.992 116.741 254C116.049 254.001 115.455 253.525 115.252 252.862L113.169 246.052C113.122 245.898 113.05 245.753 112.971 245.613C112.437 244.661 112.018 242.858 113.923 241.859M180.19 207.132C157.177 224.535 126.423 237.535 113.923 241.859M113.923 241.859L112.53 236.192C112.489 236.027 112.416 235.872 112.36 235.711C112.165 235.151 112.236 234.175 113.669 233.424M113.669 233.424L112.473 228.002C112.432 227.603 112.874 226.506 114.966 225.309M114.966 225.309C118.993 223.765 125.655 220.934 133.435 217.157M129.702 71.291C127.658 101.421 126.442 146.401 132.825 161.786M129.702 71.291L133.022 71.7516C133.921 71.8764 134.555 72.6852 134.443 73.5876C131.354 98.5193 127.162 147.398 132.825 161.786M49.637 82.0746L52.3342 84.3126C53.4616 85.2481 52.9118 87.0816 51.4563 87.2397L45.9483 87.8381M49.637 82.0746L49.581 82.0282M49.637 82.0746L45.9483 87.8381M49.637 82.0746L50.7278 80.3702M85.572 70.9797L92.365 63.5136M92.365 63.5136L82.771 62.7251M149.664 208.653C127.122 165.003 82.1863 74.7093 82.771 62.7251M149.664 208.653C144.059 211.827 138.509 214.693 133.435 217.157M82.771 62.7251L64.0497 61.1865C63.4391 61.1363 62.8507 61.4279 62.5201 61.9446L50.7278 80.3702M133.435 217.157C111.546 175.373 64.3598 89.5179 50.7278 80.3702M105.385 176.624C118.96 194.914 116.202 212.034 116.174 221.374C116.232 221.806 116.25 222.821 115.862 223.427M105.385 176.624C92.0382 158.643 50.3129 137.982 29.7396 128.657C29.1063 128.37 28.7341 127.726 28.7839 127.032L29.1951 121.289M105.385 176.624C100.661 162.568 52.6234 133.877 29.1951 121.289M29.1951 121.289L18.9158 116.025C18.1328 115.624 17.7991 114.68 18.1558 113.875L25.3716 97.5869M25.3716 97.5869L22.7289 88.2601C22.5267 87.5465 21.8762 87.0541 21.1357 87.0541L3.65945 87.0541C2.12348 87.0541 1.41496 85.1411 2.57921 84.1374L16.0032 72.5653C16.5508 72.0932 16.7297 71.32 16.4454 70.6547L11.3959 58.8399C10.8361 57.5301 12.0761 56.1693 13.429 56.6086L28.0392 61.3529C28.4625 61.4903 28.9206 61.4527 29.3149 61.2461L38.1819 56.5993M25.3716 97.5869L27.5417 105.367C27.9499 106.831 29.9441 107.02 30.6196 105.659L38.0023 90.79C38.1616 90.4691 38.4204 90.2085 38.7399 90.0473L46.8448 85.9559M38.1819 56.5993C38.2656 56.8738 38.3473 57.1425 38.4272 57.4061M38.1819 56.5993C38.263 56.8741 38.3447 57.1428 38.4272 57.4061M38.1819 56.5993C34.0958 55.5192 23.1399 54.2516 22.424 54.1695C22.3985 54.1665 22.3744 54.1632 22.349 54.1591C17.1137 53.3116 12.1124 52.086 7.95998 51.3847C6.37699 51.1173 5.76745 48.817 7.09469 47.9123C22.2351 37.5922 25.2308 38.0069 34.246 32.7695C34.8467 32.4206 35.1573 31.7276 35.0289 31.044L29.9414 3.97111C29.6674 2.51314 31.2954 1.45544 32.5125 2.30068L43.3918 9.85621L55.4921 19.3134C55.9637 19.682 56.597 19.7672 57.149 19.5363L69.9769 14.1701L80.6844 10.7962C81.9524 10.3966 83.1362 11.5781 82.69 12.8326C79.5351 21.7034 75.3601 27.6914 75.3601 38.5975M75.3601 38.5975L80.4833 37.3214C81.1685 37.1507 81.6704 36.5635 81.7332 35.859L83.3717 17.4866C83.4933 16.1228 85.1187 15.4853 86.1323 16.4039L98.8752 27.9526C99.2596 28.301 99.7846 28.449 100.294 28.3525L114.696 25.625C116.085 25.3618 117.144 26.8525 116.439 28.0814L109.055 40.9642C108.722 41.5454 108.771 42.2705 109.179 42.8018L116.37 52.1678M75.3601 38.5975C79.9144 44.4043 82.5833 47.9431 87.0453 53.0175C91.5073 58.0918 93.2614 61.6313 93.2614 61.6313M116.37 52.1678L130.254 55.1728C131.071 55.3497 131.629 56.1084 131.556 56.9427C131.234 60.6587 130.907 64.8649 130.598 69.4088M116.37 52.1678C116.37 52.1678 122.468 62.2927 118.231 61.5678C114.719 60.9669 104.539 56.2754 101.16 54.6881C100.498 54.3775 99.7177 54.5353 99.2257 55.076L93.2614 61.6313M134.42 161.409C144.835 181.354 147.223 185.926 165.444 195.44C165.515 195.477 165.586 195.52 165.651 195.567L166.968 196.519M134.42 161.409C134.178 160.944 133.945 160.442 133.721 159.903M134.42 161.409C134.172 160.96 133.939 160.457 133.721 159.903M166.968 196.519C167.755 195.939 169.632 195.022 170.847 195.999C172.061 196.975 173.326 198.9 173.807 199.74M166.968 196.519C161.719 200.177 156.113 203.625 150.56 206.77M173.807 199.74C174.498 199.378 176.044 198.87 176.698 199.737C177.352 200.604 179.896 203.773 181.086 205.25M173.807 199.74C162.585 209.854 129.637 225.155 114.565 231.542M181.086 205.25C181.66 204.823 183.266 204.511 185.1 206.674C186.515 208.344 188.366 210.589 189.622 212.123C190.155 212.775 190.12 213.718 189.542 214.329L189.534 214.337C185.031 219.09 174.202 230.519 154.026 239.978C128.46 251.964 123 252.418 117.636 252.147C116.944 252.112 116.352 251.643 116.149 250.98L114.065 244.17C114.018 244.016 113.947 243.871 113.868 243.73C113.333 242.779 112.914 240.975 114.819 239.977M181.086 205.25C158.073 222.652 127.319 235.652 114.819 239.977M114.819 239.977L113.426 234.31C113.386 234.145 113.313 233.989 113.257 233.829C113.062 233.269 113.133 232.292 114.565 231.542M114.565 231.542L113.369 226.12C113.329 225.721 113.771 224.624 115.862 223.427M115.862 223.427C119.89 221.883 126.552 219.052 134.331 215.275M130.598 69.4088C128.555 99.5388 127.339 144.519 133.721 159.903M130.598 69.4088L133.919 69.8694C134.818 69.9941 135.451 70.803 135.339 71.7054C132.25 96.6371 128.058 145.516 133.721 159.903M50.5334 80.1923L53.2306 82.4304C54.3581 83.3659 53.8082 85.1994 52.3528 85.3575L46.8448 85.9559M50.5334 80.1923L50.4775 80.1459M50.5334 80.1923L46.8448 85.9559M50.5334 80.1923L51.6242 78.4879M41.3638 67.0287C40.291 63.7227 39.5325 61.0545 38.4272 57.4061M38.4272 57.4061C40.4132 63.7503 42.7745 66.9152 44.7217 73.8531C46.0092 78.4404 46.8448 85.9559 46.8448 85.9559M86.4684 69.0975L93.2614 61.6313M93.2614 61.6313L83.6675 60.8429M150.56 206.77C118.833 163.443 83.0827 72.8271 83.6675 60.8429M150.56 206.77C144.956 209.945 139.406 212.811 134.331 215.275M83.6675 60.8429L64.9461 59.3043C64.3355 59.2541 63.7472 59.5457 63.4165 60.0623L51.6242 78.4879M134.331 215.275C113.994 172.153 65.2562 87.6356 51.6242 78.4879" stroke="#A68AD5" stroke-width="3"/>
</svg>
