<svg width="124" height="251" viewBox="0 0 124 251" fill="none" xmlns="http://www.w3.org/2000/svg">
<path d="M101.606 114.95V108.389C101.606 100.942 97.4909 94.2042 90.8717 90.8352C88.0093 89.4167 84.9681 88.7074 81.7479 88.7074H65.1104C60.9957 88.7074 56.8811 89.9486 53.482 92.431L52.5875 92.963C47.3995 96.6866 44.3582 102.538 44.3582 108.921V211.232L101.606 191.018V160.343M50.4461 220.807V209.104M98.7429 220.808V192.793M53.4844 92.4319C53.4844 92.4319 29.8699 72.9272 20.5672 56.6142C19.3149 54.3091 16.2736 53.5998 13.948 55.1956C12.5168 56.2595 11.8012 58.21 12.159 59.9831C14.3058 67.9623 21.9984 90.1268 44.1817 106.972M5.18307 35.158C5.18307 35.158 -0.89946 28.42 3.75189 20.2635C8.22434 12.107 17.8848 18.4903 20.2105 2C20.2105 2 35.4168 29.6612 20.9261 35.158M58.3164 70.4435H87.6557M59.9227 64.0614H86.0418M14.1274 55.0172C14.1274 55.0172 6.79254 55.1946 6.97144 41.364M19.3171 55.0174L19.496 54.6627C21.285 50.5845 21.1061 45.797 19.3171 41.7187M8.58348 50.9389L11.4459 81.7918C11.6248 82.8557 13.0559 82.8557 13.0559 81.7918L15.0238 68.3158M57.0624 206.799V134.277M93.3805 192.79V161.228M61.8961 203.43V165.307M83.0052 197.756V155.377M105.007 154.314L99.2818 164.599L78.5296 152.896L100.713 114.418L121.286 125.944L116.635 134.1M93.3805 220.807V203.43M87.654 220.807V212.119M76.3829 220.807V206.09M65.6493 220.808V211.233M54.7365 220.807V214.955M58.3123 67.2514L44.3582 54.13L59.9223 60.6907M87.6577 67.2514L101.612 54.13L86.0477 60.6907M69.4083 55.0177L72.9863 35.1584L76.922 55.727M62.0716 60.6915L57.0624 41.7187L67.6174 55.0174M84.0782 60.6915L89.0874 41.7187L78.3535 55.0174M44.3582 128.959C44.3582 128.959 76.381 130.377 98.5643 97.7511M62.2486 115.659C62.2486 115.659 81.2118 110.162 90.8723 90.6577M44.3582 108.922C44.3582 108.922 56.8811 109.986 69.4039 99.1701M45.2569 103.246C45.2569 103.246 53.6651 102.715 59.9266 96.5085M24.4512 230.205H120.081C121.141 230.205 122 231.059 122 232.112V247.092C122 248.146 121.141 249 120.081 249H24.4512C23.3917 249 22.5327 248.146 22.5327 247.092V232.112C22.5327 231.059 23.3917 230.205 24.4512 230.205ZM32.862 220.806H111.676C112.735 220.806 113.594 221.66 113.594 222.714V228.296C113.594 229.35 112.735 230.204 111.676 230.204H32.862C31.8024 230.204 30.9434 229.35 30.9434 228.296V222.714C30.9434 221.66 31.8024 220.806 32.862 220.806ZM87.6557 71.8627C87.6557 81.1659 81.0879 88.7077 72.986 88.7077C64.8842 88.7077 58.3164 81.1659 58.3164 71.8627C58.3164 62.5595 64.8842 55.0178 72.986 55.0178C81.0879 55.0178 87.6557 62.5595 87.6557 71.8627ZM20.9268 35.1584H6.97277C5.18379 35.1584 3.75261 36.5769 3.75261 38.3501C3.75261 40.1232 5.18379 41.5418 6.97277 41.5418H20.9268C22.7158 41.5418 24.147 40.1232 24.147 38.3501C24.147 36.5769 22.7158 35.1584 20.9268 35.1584ZM105.005 154.315C102.142 152.719 101.248 149.173 102.858 146.513L108.762 136.229C110.372 133.392 113.95 132.505 116.633 134.101C119.496 135.697 120.39 139.243 118.78 141.903L112.876 152.187C111.445 154.847 107.867 155.911 105.005 154.315Z" stroke="#FFFCFF" stroke-width="3.80729" stroke-miterlimit="10" stroke-linecap="round" stroke-linejoin="round"/>
</svg>
