<svg width="204" height="215" viewBox="0 0 204 215" fill="none" xmlns="http://www.w3.org/2000/svg">
<path d="M78.2273 101.124C78.2306 100.295 77.5618 99.6208 76.7334 99.6174C75.905 99.614 75.2307 100.283 75.2273 101.111L78.2273 101.124ZM100.163 145.932L99.8259 147.394L99.8259 147.394L100.163 145.932ZM142.35 114.103C142.68 113.343 142.331 112.46 141.571 112.13C140.811 111.8 139.928 112.149 139.598 112.909L142.35 114.103ZM155.986 84.7407L157.485 84.7737L157.485 84.7737L155.986 84.7407ZM134.156 125.959C133.489 126.45 133.348 127.389 133.839 128.056C134.331 128.723 135.27 128.865 135.937 128.373L134.156 125.959ZM75.8416 116.743C76.2513 117.463 77.1672 117.714 77.8872 117.304C78.6072 116.895 78.8587 115.979 78.4489 115.259L75.8416 116.743ZM84.5622 60.9285C85.2496 60.4662 85.432 59.5341 84.9697 58.8467C84.5073 58.1593 83.5752 57.9769 82.8879 58.4393L84.5622 60.9285ZM148.282 65.909C147.679 65.3401 146.73 65.3672 146.161 65.9694C145.592 66.5716 145.619 67.521 146.221 68.0899L148.282 65.909ZM90.2743 141.147C90.4313 140.333 89.8992 139.546 89.0857 139.389C88.2723 139.232 87.4857 139.765 87.3287 140.578L90.2743 141.147ZM86.8889 150.773L85.4161 150.489L85.233 151.437L86.021 151.996L86.8889 150.773ZM98.8286 159.243L97.9607 160.466L98.4796 160.834L99.105 160.717L98.8286 159.243ZM118.432 146.576C118.589 145.763 118.057 144.976 117.243 144.819C116.43 144.662 115.643 145.194 115.486 146.008L118.432 146.576ZM87.4193 152.343C88.2444 152.27 88.8536 151.541 88.7799 150.716C88.7062 149.891 87.9775 149.282 87.1524 149.355L87.4193 152.343ZM40.3872 155.939C39.701 156.403 39.5209 157.335 39.985 158.022C40.4491 158.708 41.3816 158.888 42.0679 158.424L40.3872 155.939ZM147.316 172.294L148.139 171.04L148.065 170.991L147.985 170.951L147.316 172.294ZM82.1184 88.4593C81.3428 88.1683 80.478 88.561 80.1869 89.3366C79.8959 90.1122 80.2886 90.977 81.0643 91.2681L82.1184 88.4593ZM122.854 85.6883L121.877 84.5502L121.877 84.5502L122.854 85.6883ZM139.836 102.451C140.662 102.518 141.385 101.902 141.451 101.076C141.517 100.25 140.901 99.5271 140.076 99.461L139.836 102.451ZM81.637 88.4626C80.8632 88.1668 79.996 88.5542 79.7002 89.328C79.4044 90.1018 79.7918 90.969 80.5656 91.2648L81.637 88.4626ZM121.739 85.4733L120.762 84.3353L120.762 84.3353L121.739 85.4733ZM138.864 102.426C139.69 102.492 140.413 101.877 140.479 101.051C140.545 100.225 139.93 99.502 139.104 99.4359L138.864 102.426ZM78.6064 101.137C78.6098 100.308 77.941 99.634 77.1126 99.6306C76.2842 99.6272 75.6098 100.296 75.6065 101.124L78.6064 101.137ZM99.266 144.603L99.6034 143.141L99.266 144.603ZM141.898 114.534C142.228 113.774 141.879 112.891 141.12 112.561C140.36 112.231 139.476 112.58 139.146 113.34L141.898 114.534ZM155.087 83.4118L156.586 83.4448L156.586 83.4448L155.087 83.4118ZM134.402 124.85C133.735 125.342 133.593 126.281 134.085 126.948C134.576 127.615 135.515 127.757 136.182 127.265L134.402 124.85ZM76.3495 116.999C76.7593 117.719 77.6751 117.971 78.3951 117.561C79.1151 117.151 79.3666 116.236 78.9569 115.516L76.3495 116.999ZM85.1044 59.0583C85.8137 58.6302 86.0416 57.7082 85.6135 56.999C85.1854 56.2897 84.2634 56.0618 83.5542 56.4899L85.1044 59.0583ZM148.788 65.9752C148.215 65.3766 147.265 65.3556 146.667 65.9283C146.068 66.501 146.047 67.4505 146.62 68.0491L148.788 65.9752ZM89.3758 139.817C89.5328 139.004 89.0007 138.217 88.1872 138.06C87.3738 137.903 86.5872 138.436 86.4302 139.249L89.3758 139.817ZM85.9904 149.444L84.5176 149.16L84.3345 150.108L85.1225 150.667L85.9904 149.444ZM97.9301 157.914L97.0622 159.137L97.5811 159.505L98.2065 159.388L97.9301 157.914ZM114.148 154.873L114.424 156.348L115.427 156.16L115.621 155.158L114.148 154.873ZM117.533 145.247C117.69 144.434 117.158 143.647 116.345 143.49C115.531 143.333 114.745 143.865 114.588 144.679L117.533 145.247ZM86.5204 151.014C87.3456 150.941 87.9547 150.212 87.881 149.387C87.8073 148.562 87.0787 147.953 86.2536 148.026L86.5204 151.014ZM40.3914 155.939C39.7052 156.403 39.5251 157.336 39.9892 158.022C40.4533 158.708 41.3858 158.888 42.072 158.424L40.3914 155.939ZM114.818 153.532C114.077 153.162 113.176 153.463 112.807 154.205C112.437 154.946 112.738 155.847 113.48 156.216L114.818 153.532ZM146.419 170.965L147.242 169.711L147.168 169.662L147.088 169.622L146.419 170.965ZM157.157 50.8426C157.96 50.6377 158.445 49.8209 158.24 49.0182C158.035 48.2155 157.218 47.731 156.415 47.9359L157.157 50.8426ZM116.522 59.6699L115.871 61.0216L116.364 61.2583L116.893 61.1232L116.522 59.6699ZM64.5948 34.6947L63.1415 35.066L63.3146 35.7434L63.9447 36.0465L64.5948 34.6947ZM63.6406 30.9603L63.2695 29.5069L61.8159 29.8781L62.1873 31.3316L63.6406 30.9603ZM119.428 18.2646C120.23 18.0596 120.715 17.2428 120.51 16.4401C120.305 15.6374 119.488 15.1529 118.685 15.3578L119.428 18.2646ZM120.528 15.2433C119.779 14.8889 118.885 15.2086 118.53 15.9574C118.176 16.7062 118.496 17.6005 119.244 17.9549L120.528 15.2433ZM171.446 41.0049L172.325 39.7892L172.213 39.7083L172.088 39.6491L171.446 41.0049ZM172.348 44.5319L173.329 45.6659L173.329 45.6659L172.348 44.5319ZM160.785 46.6004C159.974 46.7696 159.454 47.5641 159.623 48.3751C159.792 49.186 160.587 49.7064 161.398 49.5373L160.785 46.6004ZM142.364 53.5135L143.777 53.0101L143.336 51.772L142.051 52.0466L142.364 53.5135ZM147.056 66.6809L148.537 66.4426L148.515 66.3069L148.469 66.1774L147.056 66.6809ZM146.084 69.8019L146.84 71.0974L146.84 71.0974L146.084 69.8019ZM114.599 79.83L113.877 81.145L114.433 81.4498L115.039 81.2641L114.599 79.83ZM90.6844 66.7087L91.4059 65.3936L91.3859 65.3827L91.3656 65.3723L90.6844 66.7087ZM84.3293 63.4693L83.3262 64.5845L83.4726 64.7162L83.6481 64.8057L84.3293 63.4693ZM90.8458 47.4403L91.4583 46.071L90.2379 45.5251L89.5558 46.6749L90.8458 47.4403ZM116.686 58.9997L116.073 60.3689L116.52 60.5689L116.999 60.4666L116.686 58.9997ZM117.963 59.5998C118.038 58.7748 117.431 58.0447 116.606 57.9689C115.781 57.8932 115.051 58.5005 114.975 59.3255L117.963 59.5998ZM156.888 48.9213L158.24 48.2722L158.002 47.7756L157.498 47.5513L156.888 48.9213ZM123.07 37.6405L123.233 36.1493L123.057 36.1302L122.882 36.1523L123.07 37.6405ZM113.291 37.5104L111.838 37.8817L111.838 37.8817L113.291 37.5104ZM118.471 34.4198L118.361 35.9158L118.361 35.9158L118.471 34.4198ZM120.693 36.8804C121.086 37.6093 121.997 37.881 122.725 37.4873C123.454 37.0936 123.726 36.1836 123.332 35.4547L120.693 36.8804ZM162.61 48.5947C162.786 47.7851 162.272 46.9864 161.462 46.8107C160.653 46.6351 159.854 47.149 159.679 47.9586L162.61 48.5947ZM160.738 50.1483L159.272 49.8303L159.007 51.054L160.164 51.5338L160.738 50.1483ZM162.077 57.9836L160.937 57.0084L160.59 57.4145L160.578 57.9487L162.077 57.9836ZM161.396 87.3299L162.895 87.3838L162.895 87.3743L162.895 87.3647L161.396 87.3299ZM157.157 91.5062L157.017 90.0128L157.017 90.0128L157.157 91.5062ZM151.217 88.1608L149.727 88.3368L149.757 88.5926L149.871 88.8237L151.217 88.1608ZM151.088 83.3316L149.606 83.1002L149.606 83.1002L151.088 83.3316ZM156.933 57.7501L158.393 58.0909L158.567 57.346L158.066 56.7679L156.933 57.7501ZM157.833 50.8902L158.429 52.2667L159.86 51.6471L159.185 50.2411L157.833 50.8902ZM119.876 15.6766L120.542 14.3325L120.024 14.0758L119.467 14.2333L119.876 15.6766ZM171.431 41.2156L172.931 41.2156L172.931 40.2847L172.096 39.8714L171.431 41.2156ZM65.1275 31.1824L64.7187 29.7392L63.6275 30.0483L63.6275 31.1824L65.1275 31.1824ZM157.402 49.5857C158.204 49.3807 158.689 48.5639 158.484 47.7612C158.279 46.9585 157.462 46.474 156.659 46.6789L157.402 49.5857ZM116.766 58.4129L116.116 59.7647L116.608 60.0014L117.137 59.8663L116.766 58.4129ZM64.8391 33.4377L63.3879 33.8173L63.5635 34.4887L64.1889 34.7895L64.8391 33.4377ZM64.2488 31.1811L63.8392 29.7381L62.4259 30.1393L62.7977 31.5606L64.2488 31.1811ZM119.71 16.9972C120.507 16.771 120.97 15.9415 120.744 15.1446C120.517 14.3477 119.688 13.885 118.891 14.1112L119.71 16.9972ZM120.772 13.9866C120.023 13.6322 119.129 13.9519 118.774 14.7007C118.42 15.4494 118.74 16.3438 119.488 16.6982L120.772 13.9866ZM171.69 39.7482L172.569 38.5325L172.457 38.4515L172.332 38.3924L171.69 39.7482ZM172.592 43.2751L173.573 44.4092L173.573 44.4092L172.592 43.2751ZM161.029 45.3437C160.218 45.5128 159.698 46.3074 159.867 47.1183C160.036 47.9293 160.831 48.4497 161.642 48.2805L161.029 45.3437ZM144.021 51.7537C143.743 50.9734 142.885 50.5661 142.105 50.8441C141.325 51.1222 140.917 51.9802 141.195 52.7606L144.021 51.7537ZM147.3 65.4245L148.78 65.1863L148.759 65.0506L148.713 64.9211L147.3 65.4245ZM146.328 68.5455L147.084 69.8411L147.084 69.8411L146.328 68.5455ZM114.843 78.5736L114.121 79.8887L114.677 80.1935L115.282 80.0077L114.843 78.5736ZM90.9283 65.4524L91.6499 64.1373L91.6299 64.1263L91.6096 64.116L90.9283 65.4524ZM84.5733 62.2129L83.5702 63.3282L83.7166 63.4599L83.8921 63.5493L84.5733 62.2129ZM83.725 58.8934L82.3801 58.2293L82.3801 58.2293L83.725 58.8934ZM92.3798 46.9493C92.8025 46.2369 92.5676 45.3166 91.8552 44.8939C91.1427 44.4712 90.2225 44.7061 89.7997 45.4185L92.3798 46.9493ZM118.207 58.3428C118.282 57.5179 117.675 56.7877 116.85 56.712C116.025 56.6362 115.295 57.2436 115.219 58.0685L118.207 58.3428ZM122.013 37.5104L122.175 36.0192L122 36.0001L121.825 36.0222L122.013 37.5104ZM113.537 36.2537L112.084 36.625L112.084 36.625L113.537 36.2537ZM118.717 33.1631L118.607 34.6591L118.607 34.6591L118.717 33.1631ZM122.258 34.9108L123.578 34.198L123.578 34.198L122.258 34.9108ZM160.468 47.8629C161.163 48.314 162.092 48.1163 162.543 47.4215C162.994 46.7266 162.796 45.7976 162.101 45.3466L160.468 47.8629ZM161.389 47.0202L162.854 47.3382L163.316 45.2111L161.164 45.5371L161.389 47.0202ZM160.982 48.8919L159.517 48.5739L159.251 49.7975L160.408 50.2774L160.982 48.8919ZM162.321 56.7271L161.182 55.752L160.834 56.1581L160.822 56.6923L162.321 56.7271ZM161.64 86.0735L163.139 86.1274L163.139 86.1179L163.139 86.1083L161.64 86.0735ZM151.461 86.9044L149.971 87.0803L150.002 87.3362L150.115 87.5673L151.461 86.9044ZM157.177 56.4937L158.637 56.8345L158.811 56.0896L158.31 55.5115L157.177 56.4937ZM159.567 48.8919L160.163 50.2684L163.105 48.9945L160.242 47.5522L159.567 48.8919ZM157.132 47.6651L156.907 46.182L152.253 46.8871L156.457 49.0048L157.132 47.6651ZM44.5911 3.30659L44.6822 4.80383L44.6822 4.80383L44.5911 3.30659ZM198.079 17.7713L197.564 19.1803L197.564 19.1803L198.079 17.7713ZM199.212 19.4478L197.713 19.4026L197.713 19.4026L199.212 19.4478ZM168.844 209.317L167.425 208.829L167.425 208.829L168.844 209.317ZM167.122 210.471L167.18 208.972L167.18 208.972L167.122 210.471ZM42.9809 4.67458L44.4394 5.02495L44.4394 5.02495L42.9809 4.67458ZM47.3782 2.45832L47.2872 0.961087L47.2872 0.961087L47.3782 2.45832ZM200.866 16.9231L200.351 18.332L200.351 18.332L200.866 16.9231ZM201.999 18.5977L200.5 18.5519L200.5 18.5519L201.999 18.5977ZM170.313 211.848L171.731 212.336L171.731 212.336L170.313 211.848ZM168.592 212.998L168.532 214.497L168.532 214.497L168.592 212.998ZM45.768 3.82631L47.2265 4.17668L47.2265 4.17666L45.768 3.82631ZM6.61017 162.413C6.54895 163.239 7.16906 163.958 7.99522 164.02C8.82138 164.081 9.54075 163.461 9.60197 162.635L6.61017 162.413ZM8.92465 159.655C8.85148 160.48 9.4611 161.208 10.2863 161.281C11.1115 161.355 11.8397 160.745 11.9129 159.92L8.92465 159.655ZM38.0746 191.677C37.2644 191.504 36.4675 192.02 36.2945 192.831C36.1216 193.641 36.6382 194.438 37.4483 194.611L38.0746 191.677ZM34.8402 191.669C34.0256 191.518 33.2432 192.057 33.0928 192.871C32.9423 193.686 33.4807 194.468 34.2954 194.619L34.8402 191.669ZM37.3302 189.088L38.535 189.982L38.535 189.982L37.3302 189.088ZM10.1297 192.865L9.23507 194.069L9.23507 194.069L10.1297 192.865ZM6.20011 165.263L7.40496 166.156L6.20011 165.263ZM33.4006 161.486L34.2952 160.282L34.2952 160.282L33.4006 161.486ZM33.0036 193.221L32.1658 191.977L32.1658 191.977L33.0036 193.221ZM10.5266 161.13L11.3644 162.374L11.3644 162.374L10.5266 161.13ZM24.9088 168.823C25.0683 168.01 24.5386 167.222 23.7257 167.062C22.9127 166.903 22.1244 167.433 21.9649 168.246L24.9088 168.823ZM18.9527 183.598C18.7932 184.411 19.3229 185.199 20.1359 185.359C20.9488 185.518 21.7371 184.988 21.8966 184.176L18.9527 183.598ZM28.7307 179.072C29.5437 179.232 30.3319 178.702 30.4913 177.889C30.6507 177.076 30.1208 176.288 29.3079 176.128L28.7307 179.072ZM15.9184 173.503C15.1055 173.344 14.3172 173.874 14.1579 174.687C13.9985 175.5 14.5283 176.288 15.3413 176.447L15.9184 173.503ZM75.2273 101.111C75.1972 108.485 76.2559 118.781 79.8078 127.849C83.3584 136.913 89.5195 145.014 99.8259 147.394L100.501 144.47C91.5576 142.406 85.9711 135.358 82.6012 126.755C79.2327 118.156 78.1981 108.267 78.2273 101.124L75.2273 101.111ZM99.8259 147.394C110.07 149.758 117.833 148.475 124.529 142.827C131.067 137.314 136.425 127.759 142.35 114.103L139.598 112.909C133.669 126.572 128.54 135.52 122.595 140.534C116.809 145.414 110.094 146.685 100.501 144.47L99.8259 147.394ZM154.486 84.7077C154.378 89.5929 154.428 93.514 154.208 97.0579C153.991 100.558 153.516 103.533 152.411 106.396C150.207 112.104 145.373 117.687 134.156 125.959L135.937 128.373C147.261 120.022 152.685 114.014 155.21 107.476C156.468 104.217 156.975 100.904 157.202 97.2434C157.426 93.6259 157.381 89.5107 157.485 84.7737L154.486 84.7077ZM78.4489 115.259C74.8574 108.948 71.7202 98.3937 71.8683 87.8465C72.0163 77.3118 75.4234 67.0757 84.5622 60.9285L82.8879 58.4393C72.632 65.3378 69.0244 76.7148 68.8686 87.8044C68.7131 98.8816 71.9834 109.963 75.8416 116.743L78.4489 115.259ZM146.221 68.0899C151.6 73.1706 154.611 79.015 154.486 84.7077L157.485 84.7737C157.635 77.9527 154.039 71.3471 148.282 65.909L146.221 68.0899ZM87.3287 140.578L85.4161 150.489L88.3617 151.057L90.2743 141.147L87.3287 140.578ZM86.021 151.996L86.1612 152.096L87.8969 149.649L87.7568 149.549L86.021 151.996ZM86.1612 152.096L97.9607 160.466L99.6965 158.019L87.897 149.649L86.1612 152.096ZM99.105 160.717L115.323 157.677L114.77 154.728L98.5522 157.769L99.105 160.717ZM116.519 156.487L118.432 146.576L115.486 146.008L113.573 155.918L116.519 156.487ZM87.1524 149.355L86.8956 149.378L87.1625 152.366L87.4193 152.343L87.1524 149.355ZM87.0291 150.872C86.9464 149.375 86.9463 149.375 86.946 149.375C86.9457 149.375 86.9453 149.375 86.9447 149.375C86.9436 149.375 86.9418 149.375 86.9396 149.375C86.935 149.375 86.9282 149.376 86.9191 149.376C86.9011 149.377 86.8741 149.379 86.8386 149.381C86.7675 149.384 86.6621 149.39 86.5246 149.398C86.2495 149.413 85.8458 149.436 85.3316 149.464C84.3032 149.522 82.8323 149.605 81.0622 149.706C77.5222 149.908 72.785 150.182 67.997 150.473C63.2101 150.763 58.3682 151.07 54.6204 151.337C52.7476 151.47 51.1409 151.593 49.9485 151.7C49.3534 151.753 48.8516 151.803 48.4674 151.849C48.1504 151.887 47.7512 151.938 47.4857 152.023L48.397 154.881C48.3324 154.902 48.4143 154.877 48.8229 154.828C49.1643 154.787 49.6325 154.74 50.2161 154.688C51.381 154.584 52.9662 154.462 54.8332 154.329C58.5651 154.064 63.3946 153.758 68.1788 153.467C72.9618 153.177 77.6952 152.903 81.233 152.701C83.0019 152.6 84.4717 152.517 85.4992 152.46C86.013 152.431 86.4162 152.409 86.6909 152.393C86.8283 152.386 86.9335 152.38 87.0044 152.376C87.0398 152.374 87.0667 152.373 87.0846 152.372C87.0936 152.371 87.1004 152.371 87.1049 152.37C87.1072 152.37 87.1089 152.37 87.11 152.37C87.1106 152.37 87.111 152.37 87.1113 152.37C87.1115 152.37 87.1117 152.37 87.0291 150.872ZM47.4857 152.023C46.5081 152.335 45.0776 153.092 43.8021 153.824C42.485 154.581 41.1771 155.405 40.3872 155.939L42.0679 158.424C42.7919 157.934 44.0373 157.149 45.2968 156.426C46.598 155.678 47.7674 155.082 48.397 154.881L47.4857 152.023ZM114.377 157.545L146.647 173.636L147.985 170.951L115.716 154.86L114.377 157.545ZM146.493 173.548C146.879 173.802 147.445 174.297 148.128 174.961C148.793 175.608 149.491 176.335 150.143 177.009C150.769 177.655 151.394 178.296 151.85 178.687C151.969 178.789 152.101 178.896 152.238 178.989C152.342 179.06 152.583 179.22 152.897 179.299C153.062 179.341 153.382 179.396 153.757 179.283C154.195 179.151 154.525 178.844 154.705 178.478C154.858 178.167 154.872 177.88 154.87 177.728C154.868 177.562 154.842 177.419 154.82 177.319L151.893 177.977C151.888 177.957 151.872 177.882 151.87 177.772C151.869 177.676 151.876 177.433 152.013 177.154C152.177 176.82 152.483 176.534 152.89 176.411C153.234 176.307 153.515 176.361 153.633 176.391C153.854 176.447 153.974 176.542 153.93 176.512C153.919 176.505 153.879 176.475 153.802 176.409C153.476 176.13 152.961 175.606 152.299 174.922C151.663 174.266 150.925 173.497 150.219 172.81C149.53 172.141 148.787 171.465 148.139 171.04L146.493 173.548ZM81.5913 89.8637C81.0643 91.2681 81.0644 91.2681 81.0646 91.2682C81.0647 91.2682 81.0649 91.2683 81.065 91.2683C81.0653 91.2685 81.0657 91.2686 81.0661 91.2687C81.0669 91.269 81.0678 91.2694 81.069 91.2698C81.0713 91.2707 81.0743 91.2718 81.078 91.2732C81.0855 91.276 81.0959 91.2798 81.109 91.2846C81.1354 91.2943 81.173 91.308 81.2216 91.3254C81.3188 91.3602 81.4599 91.4099 81.6421 91.4719C82.0065 91.5958 82.5358 91.7689 83.2082 91.9707C84.5524 92.3742 86.4721 92.8931 88.7924 93.3617L89.3862 90.421C87.1708 89.9737 85.3415 89.4788 84.0706 89.0974C83.4355 88.9067 82.9407 88.7447 82.608 88.6316C82.4416 88.575 82.3158 88.5307 82.2333 88.5011C82.192 88.4863 82.1616 88.4753 82.1423 88.4682C82.1327 88.4647 82.1258 88.4621 82.1218 88.4606C82.1198 88.4599 82.1185 88.4594 82.118 88.4592C82.1177 88.4591 82.1176 88.459 82.1176 88.4591C82.1177 88.4591 82.1177 88.4591 82.1179 88.4592C82.1179 88.4592 82.118 88.4592 82.1181 88.4592C82.1182 88.4593 82.1184 88.4593 81.5913 89.8637ZM88.7924 93.3617C97.6008 95.1404 112.784 96.3123 123.832 86.8263L121.877 84.5502C111.955 93.0698 98.0328 92.1671 89.3862 90.421L88.7924 93.3617ZM123.832 86.8263C126.711 84.3538 128.292 83.8202 129.126 83.7532L128.886 80.7628C127.1 80.9062 124.919 81.9385 121.877 84.5502L123.832 86.8263ZM129.126 83.7532C128.757 83.7828 128.467 83.6148 128.321 83.4695C128.222 83.3695 128.225 83.3186 128.278 83.4524C128.381 83.7156 128.491 84.1988 128.613 84.9715C128.835 86.3847 129.071 88.6477 129.515 90.8563C130.395 95.2374 132.334 100.832 138.079 102.327L138.835 99.4242C134.976 98.4197 133.33 94.6139 132.456 90.2653C132.023 88.109 131.839 86.1748 131.576 84.505C131.455 83.7361 131.306 82.9563 131.069 82.3533C130.951 82.0541 130.764 81.6693 130.444 81.3493C130.079 80.9842 129.54 80.7103 128.886 80.7628L129.126 83.7532ZM138.079 102.327C138.523 102.443 138.906 102.45 139.188 102.447C139.493 102.444 139.628 102.435 139.836 102.451L140.076 99.461C139.691 99.4302 139.329 99.4459 139.159 99.4475C138.966 99.4493 138.895 99.4399 138.835 99.4242L138.079 102.327ZM81.1013 89.8637C80.5656 91.2648 80.5659 91.2649 80.5661 91.265C80.5662 91.265 80.5664 91.2651 80.5666 91.2652C80.567 91.2653 80.5674 91.2655 80.5679 91.2656C80.5688 91.266 80.5699 91.2664 80.5712 91.2669C80.5737 91.2679 80.577 91.2691 80.5809 91.2706C80.5887 91.2735 80.5993 91.2775 80.6127 91.2824C80.6394 91.2923 80.6771 91.3062 80.7256 91.3236C80.8227 91.3585 80.9632 91.4079 81.1462 91.4694C81.5122 91.5923 82.0481 91.7637 82.7461 91.9643C84.1421 92.3656 86.1872 92.8841 88.8187 93.3667L89.3599 90.416C86.8319 89.9523 84.883 89.457 83.5749 89.081C82.9208 88.8931 82.4272 88.7349 82.1016 88.6255C81.9388 88.5708 81.818 88.5283 81.7402 88.5004C81.7014 88.4864 81.6732 88.4761 81.656 88.4697C81.6473 88.4665 81.6414 88.4643 81.6383 88.4631C81.6367 88.4625 81.6358 88.4621 81.6356 88.4621C81.6355 88.462 81.6355 88.462 81.6358 88.4621C81.6359 88.4622 81.636 88.4622 81.6362 88.4623C81.6363 88.4624 81.6365 88.4624 81.6366 88.4624C81.6368 88.4625 81.637 88.4626 81.1013 89.8637ZM88.8187 93.3667C97.7297 95.001 112.123 95.7069 122.716 86.6113L120.762 84.3353C111.255 92.4983 98.0737 92.0141 89.3599 90.416L88.8187 93.3667ZM122.716 86.6113C124.644 84.9554 126.007 84.1032 126.949 83.7277C127.864 83.3633 128.186 83.5181 128.273 83.5665L129.74 80.9495C128.597 80.3091 127.262 80.374 125.839 80.9406C124.444 81.4963 122.787 82.5961 120.762 84.3353L122.716 86.6113ZM128.273 83.5665C128.314 83.5897 128.469 83.7003 128.651 84.1524C128.832 84.602 128.976 85.2312 129.098 86.0613C129.218 86.8834 129.304 87.8085 129.402 88.8378C129.498 89.851 129.604 90.9496 129.765 92.0499C130.084 94.2247 130.638 96.5832 131.904 98.5114C133.221 100.518 135.251 101.969 138.263 102.363L138.652 99.3885C136.522 99.11 135.258 98.1549 134.411 96.865C133.513 95.497 133.034 93.67 132.733 91.615C132.585 90.6004 132.485 89.573 132.388 88.5548C132.293 87.5528 132.2 86.5411 132.066 85.6265C131.933 84.72 131.748 83.8129 131.434 83.0319C131.12 82.2535 130.614 81.4395 129.74 80.9495L128.273 83.5665ZM138.263 102.363C138.46 102.389 138.66 102.41 138.864 102.426L139.104 99.4359C138.948 99.4234 138.798 99.4075 138.652 99.3885L138.263 102.363ZM75.6065 101.124C75.5765 108.457 76.3067 118.421 79.5385 127.164C82.7776 135.927 88.6282 143.687 98.9287 146.064L99.6034 143.141C90.6544 141.076 85.3956 134.357 82.3524 126.124C79.3019 117.871 78.5771 108.322 78.6064 101.137L75.6065 101.124ZM98.9287 146.064C109.104 148.413 116.965 147.613 123.795 142.426C130.484 137.347 135.965 128.208 141.898 114.534L139.146 113.34C133.226 126.985 127.997 135.468 121.981 140.037C116.106 144.498 109.265 145.372 99.6034 143.141L98.9287 146.064ZM153.587 83.3788C153.534 85.8042 153.537 88.0317 153.539 90.0892C153.541 92.1536 153.542 94.0368 153.486 95.8085C153.373 99.348 153.033 102.352 152.062 105.239C150.134 110.97 145.601 116.591 134.402 124.85L136.182 127.265C147.524 118.901 152.677 112.821 154.905 106.196C156.012 102.906 156.368 99.5673 156.484 95.9039C156.543 94.0742 156.541 92.1407 156.539 90.0861C156.537 88.0244 156.534 85.8304 156.586 83.4448L153.587 83.3788ZM78.9569 115.516C75.2589 109.018 71.746 97.8221 71.7443 86.7329C71.7426 75.6529 75.2271 65.0199 85.1044 59.0583L83.5542 56.4899C72.4193 63.2105 68.7425 75.1012 68.7443 86.7334C68.7461 98.3564 72.4012 110.061 76.3495 116.999L78.9569 115.516ZM146.62 68.0491C151.187 72.8227 153.702 78.1635 153.587 83.3788L156.586 83.4448C156.724 77.1947 153.713 71.1237 148.788 65.9752L146.62 68.0491ZM86.4302 139.249L84.5176 149.16L87.4632 149.728L89.3758 139.817L86.4302 139.249ZM85.1225 150.667L85.2626 150.767L86.9983 148.32L86.8582 148.22L85.1225 150.667ZM85.2626 150.767L97.0622 159.137L98.798 156.69L86.9984 148.32L85.2626 150.767ZM98.2065 159.388L114.424 156.348L113.871 153.399L97.6537 156.439L98.2065 159.388ZM115.621 155.158L117.533 145.247L114.588 144.679L112.675 154.589L115.621 155.158ZM86.2536 148.026L85.9971 148.049L86.2639 151.037L86.5204 151.014L86.2536 148.026ZM86.1305 149.543C86.0271 148.047 86.0269 148.047 86.0266 148.047C86.0263 148.047 86.0259 148.047 86.0254 148.047C86.0242 148.047 86.0226 148.047 86.0204 148.047C86.016 148.047 86.0094 148.048 86.0007 148.049C85.9832 148.05 85.9573 148.052 85.923 148.054C85.8546 148.059 85.753 148.066 85.6204 148.075C85.3552 148.094 84.9661 148.121 84.4698 148.156C83.4773 148.226 82.0562 148.327 80.3415 148.452C76.9124 148.701 72.3077 149.044 67.607 149.419C62.908 149.793 58.1061 150.199 54.2853 150.575C52.376 150.762 50.7017 150.943 49.4036 151.11C48.1724 151.268 47.1181 151.431 46.5734 151.61L47.5116 154.46C47.7266 154.389 48.4636 154.255 49.7856 154.086C51.0405 153.925 52.6811 153.747 54.5788 153.56C58.3718 153.187 63.152 152.783 67.8452 152.409C72.5366 152.036 77.1341 151.693 80.5591 151.444C82.2715 151.32 83.6905 151.218 84.6813 151.148C85.1767 151.113 85.565 151.086 85.8294 151.068C85.9616 151.059 86.0628 151.051 86.1309 151.047C86.165 151.044 86.1908 151.043 86.208 151.041C86.2167 151.041 86.2231 151.04 86.2275 151.04C86.2296 151.04 86.2313 151.04 86.2323 151.04C86.2329 151.04 86.2333 151.04 86.2335 151.04C86.2338 151.04 86.2339 151.04 86.1305 149.543ZM46.5734 151.61C44.7946 152.196 43.5451 153.113 42.57 153.977C42.104 154.391 41.6624 154.829 41.3191 155.154C40.9496 155.504 40.6616 155.757 40.3914 155.939L42.072 158.424C42.5587 158.095 42.9958 157.698 43.3829 157.331C43.7962 156.94 44.1429 156.592 44.5605 156.222C45.3526 155.52 46.2515 154.875 47.5116 154.46L46.5734 151.61ZM113.48 156.216L145.75 172.307L147.088 169.622L114.818 153.532L113.48 156.216ZM145.596 172.219C146.533 172.834 148.127 174.121 149.532 175.429C150.231 176.078 150.852 176.705 151.306 177.23C151.533 177.493 151.7 177.709 151.809 177.874C151.939 178.069 151.918 178.089 151.893 177.977L154.82 177.319C154.722 176.884 154.494 176.494 154.309 176.216C154.105 175.907 153.85 175.586 153.575 175.268C153.024 174.63 152.317 173.922 151.576 173.232C150.103 171.862 148.373 170.454 147.242 169.711L145.596 172.219ZM156.415 47.9359L116.151 58.2165L116.893 61.1232L157.157 50.8426L156.415 47.9359ZM117.172 58.3181L65.245 33.3429L63.9447 36.0465L115.871 61.0216L117.172 58.3181ZM66.0481 34.3233L65.0939 30.5889L62.1873 31.3316L63.1415 35.066L66.0481 34.3233ZM64.0117 32.4137L119.428 18.2646L118.685 15.3578L63.2695 29.5069L64.0117 32.4137ZM119.244 17.9549L170.805 42.3607L172.088 39.6491L120.528 15.2433L119.244 17.9549ZM170.568 42.2207C170.716 42.3275 170.897 42.4833 171.064 42.6657C171.233 42.8517 171.351 43.0259 171.414 43.1655C171.477 43.3032 171.458 43.3403 171.464 43.3072C171.473 43.2489 171.5 43.2815 171.366 43.3978L173.329 45.6659C173.919 45.1553 174.309 44.5152 174.426 43.7801C174.539 43.0703 174.374 42.4265 174.144 41.9208C173.702 40.9516 172.89 40.1979 172.325 39.7892L170.568 42.2207ZM171.366 43.3978C171.222 43.5225 170.76 43.7818 169.88 44.122C169.06 44.4388 168.04 44.7663 166.942 45.083C164.747 45.7154 162.333 46.2776 160.785 46.6004L161.398 49.5373C162.998 49.2035 165.488 48.6241 167.772 47.9656C168.913 47.6369 170.026 47.2816 170.961 46.9202C171.836 46.5823 172.749 46.1682 173.329 45.6659L171.366 43.3978ZM140.951 54.0169L145.643 67.1843L148.469 66.1774L143.777 53.0101L140.951 54.0169ZM145.575 66.9191C145.614 67.1665 145.632 67.6032 145.551 67.9965C145.466 68.4141 145.335 68.5025 145.328 68.5063L146.84 71.0974C147.911 70.4726 148.328 69.3896 148.49 68.5984C148.657 67.783 148.622 66.9736 148.537 66.4426L145.575 66.9191ZM145.328 68.5063C145.382 68.4751 145.353 68.496 145.122 68.5853C144.932 68.6588 144.67 68.7546 144.337 68.8719C143.671 69.1057 142.76 69.4124 141.654 69.7758C139.446 70.5018 136.492 71.4447 133.254 72.4658C126.778 74.5076 119.18 76.8562 114.159 78.3959L115.039 81.2641C120.064 79.723 127.67 77.3719 134.156 75.327C137.398 74.3048 140.365 73.3575 142.591 72.6257C143.703 72.2602 144.638 71.946 145.332 71.702C145.678 71.5803 145.973 71.4728 146.205 71.3832C146.396 71.3093 146.652 71.2072 146.84 71.0974L145.328 68.5063ZM115.32 78.5149L91.4059 65.3936L89.9628 68.0238L113.877 81.145L115.32 78.5149ZM91.3656 65.3723L85.0105 62.1329L83.6481 64.8057L90.0031 68.0451L91.3656 65.3723ZM85.3324 62.354C85.1919 62.2277 84.9563 61.9409 84.8265 61.6055C84.7085 61.3006 84.7081 61.0526 84.826 60.814L82.1361 59.4856C81.5546 60.6631 81.6913 61.8167 82.0288 62.6884C82.3543 63.5296 82.8925 64.1944 83.3262 64.5845L85.3324 62.354ZM84.826 60.814C85.492 59.4653 89.9481 51.893 92.1358 48.2057L89.5558 46.6749C87.4165 50.2804 82.8688 58.0019 82.1361 59.4856L84.826 60.814ZM90.2333 48.8095L116.073 60.3689L117.298 57.6304L91.4583 46.071L90.2333 48.8095ZM116.999 60.4666L142.678 54.9804L142.051 52.0466L116.373 57.5328L116.999 60.4666ZM114.975 59.3255L113.105 79.6928L116.092 79.9671L117.963 59.5998L114.975 59.3255ZM157.498 47.5513C154.51 46.2187 148.925 43.6969 142.623 41.3502C136.345 39.012 129.246 36.8052 123.233 36.1493L122.908 39.1316C128.539 39.7459 135.354 41.8444 141.576 44.1616C147.776 46.4703 153.277 48.9539 156.277 50.2913L157.498 47.5513ZM122.882 36.1523C121.962 36.2686 120.902 36.4829 119.896 36.6812C118.861 36.8853 117.862 37.077 116.961 37.1814C116.033 37.289 115.368 37.2822 114.955 37.1832C114.764 37.1373 114.705 37.0893 114.708 37.0915C114.731 37.1102 114.745 37.1436 114.744 37.139L111.838 37.8817C112.182 39.2277 113.25 39.8595 114.256 40.1006C115.201 40.327 116.298 40.2783 117.307 40.1614C118.343 40.0412 119.456 39.8257 120.476 39.6246C121.526 39.4176 122.465 39.2288 123.258 39.1286L122.882 36.1523ZM114.744 37.139C114.681 36.8899 114.733 36.8105 114.76 36.7689C114.82 36.6766 114.987 36.5088 115.373 36.3364C116.159 35.985 117.346 35.8414 118.361 35.9158L118.58 32.9239C117.245 32.826 115.525 32.9828 114.149 33.5974C113.454 33.9079 112.727 34.3895 112.243 35.137C111.725 35.9352 111.583 36.886 111.838 37.8817L114.744 37.139ZM118.361 35.9158C118.869 35.9531 119.468 36.1513 119.99 36.4283C120.245 36.5632 120.449 36.7001 120.59 36.8142C120.759 36.9504 120.748 36.9818 120.693 36.8804L123.332 35.4547C123.11 35.0426 122.764 34.7142 122.477 34.4821C122.163 34.2278 121.792 33.9878 121.395 33.7776C120.615 33.3643 119.611 32.9994 118.58 32.9239L118.361 35.9158ZM159.679 47.9586L159.272 49.8303L162.204 50.4664L162.61 48.5947L159.679 47.9586ZM160.164 51.5338C160.943 51.8572 161.803 52.5166 162.143 53.3367C162.415 53.9914 162.521 55.1571 160.937 57.0084L163.217 58.9587C165.31 56.5119 165.737 54.1704 164.914 52.1873C164.16 50.3695 162.512 49.2603 161.313 48.7628L160.164 51.5338ZM160.578 57.9487L159.896 87.2951L162.895 87.3647L163.577 58.0184L160.578 57.9487ZM159.897 87.2759C159.884 87.6403 159.729 88.2991 159.295 88.8694C158.901 89.3894 158.231 89.899 157.017 90.0128L157.297 92.9997C159.364 92.8059 160.792 91.8593 161.684 90.684C162.539 89.559 162.862 88.2834 162.895 87.3838L159.897 87.2759ZM157.017 90.0128C154.608 90.2385 153.033 88.4531 152.562 87.4979L149.871 88.8237C150.626 90.3551 153.142 93.3891 157.297 92.9997L157.017 90.0128ZM152.706 87.9849C152.647 87.48 152.568 86.6312 152.528 85.7592C152.487 84.8572 152.495 84.0475 152.57 83.563L149.606 83.1002C149.481 83.9046 149.489 84.9733 149.531 85.8954C149.574 86.8477 149.66 87.7689 149.727 88.3368L152.706 87.9849ZM152.57 83.563C152.76 82.3472 156.515 66.1406 158.393 58.0909L155.472 57.4093C153.621 65.3398 149.819 81.738 149.606 83.1002L152.57 83.563ZM158.066 56.7679C157.496 56.1094 156.943 55.1193 156.875 54.2605C156.845 53.8707 156.915 53.5478 157.092 53.2657C157.272 52.978 157.643 52.6068 158.429 52.2667L157.237 49.5137C156.032 50.0355 155.124 50.7566 154.551 51.6717C153.973 52.5924 153.813 53.5826 153.885 54.4963C154.022 56.2444 155.01 57.8224 155.799 58.7323L158.066 56.7679ZM159.185 50.2411L158.24 48.2722L155.535 49.5704L156.48 51.5393L159.185 50.2411ZM119.21 17.0207L170.765 42.5597L172.096 39.8714L120.542 14.3325L119.21 17.0207ZM169.931 41.2156L169.931 43.4959L172.931 43.4959L172.931 41.2156L169.931 41.2156ZM66.6275 33.0067L66.6275 31.1824L63.6275 31.1824L63.6275 33.0067L66.6275 33.0067ZM65.5362 32.6257L120.285 17.1198L119.467 14.2333L64.7187 29.7392L65.5362 32.6257ZM156.659 46.6789L116.395 56.9595L117.137 59.8663L157.402 49.5857L156.659 46.6789ZM117.416 57.0611L65.4893 32.0859L64.1889 34.7895L116.116 59.7647L117.416 57.0611ZM66.2903 33.0581L65.7 30.8015L62.7977 31.5606L63.3879 33.8173L66.2903 33.0581ZM64.6584 32.6241L119.71 16.9972L118.891 14.1112L63.8392 29.7381L64.6584 32.6241ZM119.488 16.6982L171.049 41.104L172.332 38.3924L120.772 13.9866L119.488 16.6982ZM170.812 40.964C170.96 41.0708 171.141 41.2266 171.308 41.409C171.477 41.595 171.595 41.7692 171.658 41.9088C171.721 42.0465 171.702 42.0835 171.708 42.0505C171.717 41.9922 171.744 42.0247 171.61 42.1411L173.573 44.4092C174.163 43.8986 174.553 43.2585 174.67 42.5234C174.783 41.8136 174.618 41.1698 174.388 40.6641C173.946 39.6949 173.134 38.9412 172.569 38.5325L170.812 40.964ZM171.61 42.1411C171.466 42.2657 171.004 42.5251 170.124 42.8653C169.304 43.1821 168.284 43.5096 167.186 43.8263C164.991 44.4587 162.577 45.0209 161.029 45.3437L161.642 48.2805C163.242 47.9468 165.732 47.3674 168.017 46.7089C169.157 46.3802 170.27 46.0249 171.205 45.6635C172.08 45.3256 172.993 44.9115 173.573 44.4092L171.61 42.1411ZM141.195 52.7606L145.887 65.9279L148.713 64.9211L144.021 51.7537L141.195 52.7606ZM145.819 65.6627C145.858 65.9102 145.876 66.3469 145.795 66.7402C145.71 67.1577 145.579 67.2461 145.572 67.25L147.084 69.8411C148.155 69.2162 148.572 68.1333 148.734 67.3421C148.901 66.5267 148.866 65.7173 148.78 65.1863L145.819 65.6627ZM145.572 67.25C145.626 67.2188 145.597 67.2397 145.366 67.329C145.176 67.4025 144.914 67.4983 144.58 67.6155C143.915 67.8494 143.004 68.1561 141.898 68.5194C139.69 69.2455 136.736 70.1884 133.498 71.2095C127.022 73.2512 119.424 75.5998 114.403 77.1395L115.282 80.0077C120.308 78.4667 127.914 76.1156 134.4 74.0706C137.642 73.0484 140.609 72.1012 142.835 71.3694C143.947 71.0038 144.882 70.6897 145.576 70.4456C145.922 70.3239 146.217 70.2165 146.449 70.1268C146.64 70.053 146.896 69.9509 147.084 69.8411L145.572 67.25ZM115.564 77.2586L91.6499 64.1373L90.2068 66.7674L114.121 79.8887L115.564 77.2586ZM91.6096 64.116L85.2545 60.8765L83.8921 63.5493L90.2471 66.7888L91.6096 64.116ZM85.5764 61.0977C85.4359 60.9713 85.2003 60.6845 85.0705 60.3491C84.9525 60.0443 84.9521 59.7963 85.07 59.5576L82.3801 58.2293C81.7986 59.4068 81.9353 60.5603 82.2727 61.432C82.5983 62.2732 83.1365 62.9381 83.5702 63.3282L85.5764 61.0977ZM85.07 59.5576C85.736 58.2089 90.192 50.6366 92.3798 46.9493L89.7997 45.4185C87.6605 49.0241 83.1128 56.7456 82.3801 58.2293L85.07 59.5576ZM115.219 58.0685L113.349 78.4365L116.336 78.7108L118.207 58.3428L115.219 58.0685ZM157.498 47.5513C154.492 46.2108 148.646 43.6588 142.082 41.2806C135.544 38.9119 128.183 36.6746 122.175 36.0192L121.85 39.0015C127.486 39.6163 134.569 41.7494 141.06 44.1012C147.525 46.4434 153.295 48.9618 156.277 50.2913L157.498 47.5513ZM121.825 36.0222C120.022 36.25 118.236 36.5305 116.781 36.4789C116.062 36.4534 115.584 36.3472 115.299 36.21C115.075 36.1023 115.023 36.0098 114.99 35.8823L112.084 36.625C112.369 37.7424 113.107 38.4835 113.996 38.9124C114.825 39.3119 115.784 39.4455 116.675 39.477C118.443 39.5397 120.576 39.2037 122.201 38.9985L121.825 36.0222ZM114.99 35.8823C114.927 35.6332 114.979 35.5538 115.006 35.5123C115.066 35.4199 115.233 35.2521 115.619 35.0797C116.405 34.7284 117.592 34.5847 118.607 34.6591L118.826 31.6672C117.491 31.5693 115.771 31.7261 114.395 32.3407C113.7 32.6512 112.973 33.1328 112.489 33.8803C111.971 34.6785 111.829 35.6293 112.084 36.625L114.99 35.8823ZM118.607 34.6591C119.115 34.6964 119.713 34.8946 120.236 35.1716C120.491 35.3065 120.695 35.4434 120.836 35.5575C121.005 35.6937 120.993 35.7251 120.939 35.6237L123.578 34.198C123.356 33.7859 123.01 33.4575 122.723 33.2254C122.409 32.9712 122.038 32.7312 121.641 32.5209C120.861 32.1076 119.857 31.7428 118.826 31.6672L118.607 34.6591ZM120.939 35.6237C121.102 35.9261 121.325 36.0996 121.437 36.1777C121.563 36.2659 121.682 36.3234 121.763 36.3587C121.924 36.4292 122.089 36.4771 122.216 36.5103C122.481 36.5792 122.813 36.6411 123.171 36.7001C123.894 36.8193 124.916 36.9564 126.129 37.1241C128.578 37.4628 131.941 37.9436 135.769 38.713C143.454 40.2575 152.886 42.9411 160.468 47.8629L162.101 45.3466C154.045 40.1171 144.174 37.3422 136.36 35.7718C132.439 34.9838 129.003 34.493 126.54 34.1524C125.296 33.9804 124.332 33.8509 123.658 33.74C123.317 33.6838 123.097 33.6397 122.972 33.607C122.904 33.5895 122.914 33.5878 122.963 33.6091C122.988 33.6199 123.061 33.653 123.152 33.7169C123.23 33.7707 123.428 33.9199 123.578 34.198L120.939 35.6237ZM159.923 46.7022L159.517 48.5739L162.448 49.2099L162.854 47.3382L159.923 46.7022ZM160.408 50.2774C161.187 50.6008 162.047 51.2602 162.387 52.0802C162.659 52.735 162.765 53.9007 161.182 55.752L163.461 57.7023C165.555 55.2554 165.981 52.914 165.158 50.9308C164.404 49.113 162.756 48.0039 161.557 47.5064L160.408 50.2774ZM160.822 56.6923L160.14 86.0386L163.139 86.1083L163.821 56.762L160.822 56.6923ZM160.141 86.0195C160.128 86.3838 159.973 87.0427 159.54 87.613C159.145 88.133 158.476 88.6425 157.261 88.7564L157.541 91.7433C159.608 91.5495 161.036 90.6029 161.929 89.4275C162.783 88.3026 163.107 87.027 163.139 86.1274L160.141 86.0195ZM157.261 88.7564C154.852 88.9821 153.277 87.1967 152.807 86.2415L150.115 87.5673C150.87 89.0987 153.386 92.1327 157.541 91.7433L157.261 88.7564ZM152.951 86.7284C152.891 86.2236 152.812 85.3748 152.772 84.5028C152.731 83.6007 152.739 82.7911 152.814 82.3065L149.85 81.8438C149.725 82.6482 149.733 83.7169 149.775 84.639C149.819 85.5912 149.904 86.5125 149.971 87.0803L152.951 86.7284ZM152.814 82.3065C153.004 81.0907 156.759 64.8841 158.637 56.8345L155.716 56.1529C153.866 64.0834 150.063 80.4816 149.85 81.8438L152.814 82.3065ZM158.31 55.5115C157.984 55.135 157.64 54.1518 157.845 53.0185C158.032 51.9908 158.662 50.9183 160.163 50.2684L158.971 47.5154C156.491 48.5893 155.247 50.5334 154.893 52.4836C154.559 54.3282 155.01 56.284 156.043 57.4759L158.31 55.5115ZM160.242 47.5522L157.806 46.3254L156.457 49.0048L158.892 50.2316L160.242 47.5522ZM157.356 49.1482L161.613 48.5033L161.164 45.5371L156.907 46.182L157.356 49.1482ZM44.6822 4.80383C45.1378 4.77612 45.6118 4.74951 46.1038 4.72406L45.9487 1.72807C45.4485 1.75395 44.9654 1.78106 44.5001 1.80936L44.6822 4.80383ZM46.1038 4.72406C60.276 3.99072 88.9291 4.22938 118.689 6.34954C148.494 8.4729 179.191 12.4704 197.564 19.1803L198.593 16.3624C179.782 9.49266 148.703 5.48018 118.902 3.35713C89.057 1.23088 60.276 0.986708 45.9487 1.72807L46.1038 4.72406ZM197.713 19.4026C196.956 44.4775 191.853 84.6689 185.691 122.231C179.524 159.822 172.329 194.577 167.425 208.829L170.262 209.805C175.26 195.277 182.489 160.277 188.651 122.717C194.818 85.1294 199.948 44.776 200.712 19.4931L197.713 19.4026ZM167.425 208.829C167.399 208.904 167.369 208.928 167.354 208.938C167.336 208.949 167.286 208.976 167.18 208.972L167.065 211.97C168.484 212.025 169.777 211.215 170.262 209.805L167.425 208.829ZM197.564 19.1803C197.637 19.2071 197.667 19.2408 197.681 19.2609C197.695 19.2812 197.715 19.3228 197.713 19.4026L200.712 19.4931C200.754 18.0835 199.922 16.8478 198.593 16.3624L197.564 19.1803ZM44.5001 1.80936C43.0153 1.89966 41.8585 2.92519 41.5224 4.32422L44.4394 5.02495C44.4629 4.92705 44.5034 4.87897 44.53 4.85626C44.5549 4.83496 44.5984 4.80893 44.6822 4.80383L44.5001 1.80936ZM47.4693 3.95555C60.8398 3.14237 89.6847 3.30126 119.924 5.39232C150.206 7.48635 181.656 11.5047 200.351 18.332L201.38 15.5141C182.244 8.5254 150.406 4.49301 120.131 2.39946C89.8127 0.302944 60.8295 0.137455 47.2872 0.961087L47.4693 3.95555ZM200.5 18.5519C199.733 43.6489 194.311 84.6599 187.826 123.053C181.337 161.471 173.817 197.061 168.895 211.36L171.731 212.336C176.746 197.769 184.3 161.941 190.784 123.553C197.273 85.1403 202.725 43.9587 203.498 18.6435L200.5 18.5519ZM168.895 211.36C168.869 211.434 168.839 211.457 168.826 211.466C168.809 211.477 168.758 211.504 168.652 211.5L168.532 214.497C169.95 214.554 171.245 213.749 171.731 212.336L168.895 211.36ZM200.351 18.332C200.426 18.3593 200.456 18.3932 200.469 18.4126C200.482 18.432 200.502 18.4726 200.5 18.5519L203.498 18.6435C203.542 17.2315 202.708 15.9989 201.38 15.5141L200.351 18.332ZM47.2872 0.961087C46.2453 1.02445 45.3331 1.55577 44.7755 2.39804L47.277 4.05408C47.2983 4.02188 47.3215 4.00179 47.345 3.98824C47.3681 3.97498 47.4066 3.95937 47.4693 3.95555L47.2872 0.961087ZM44.7755 2.39805C44.5587 2.72552 44.4022 3.09002 44.3095 3.47595L47.2265 4.17666C47.2402 4.11968 47.2597 4.08025 47.277 4.05408L44.7755 2.39805ZM41.5224 4.32422C39.1997 13.9931 36.0694 25.875 32.6222 38.9837C29.1769 52.0853 25.4179 66.4017 21.8454 80.9142C14.7066 109.914 8.28619 139.797 6.61017 162.413L9.60197 162.635C11.2575 140.295 17.6199 110.629 24.7584 81.6313C28.3245 67.145 32.0777 52.8504 35.5236 39.7467C38.9676 26.65 42.1075 14.7322 44.4394 5.02495L41.5224 4.32422ZM44.3095 3.47594C39.7446 22.4787 31.942 50.0497 24.72 78.7526C17.5225 107.358 10.9371 136.962 8.92465 159.655L11.9129 159.92C13.9023 137.487 20.4323 108.089 27.6294 79.4846C34.802 50.978 42.6731 23.1316 47.2265 4.17668L44.3095 3.47594ZM168.652 211.5C142.255 210.439 93.4658 202.616 56.805 195.484L56.2321 198.429C92.8943 205.561 141.883 213.427 168.532 214.497L168.652 211.5ZM56.805 195.484C50.0758 194.175 43.7609 192.891 38.0746 191.677L37.4483 194.611C43.1548 195.829 49.4877 197.117 56.2321 198.429L56.805 195.484ZM167.18 208.972C141.704 207.992 93.7171 201.559 56.7622 195.477L56.2749 198.437C93.2379 204.521 141.385 210.982 167.065 211.97L167.18 208.972ZM56.7622 195.477C48.8292 194.171 41.411 192.882 34.8402 191.669L34.2954 194.619C40.8886 195.836 48.3264 197.128 56.2749 198.437L56.7622 195.477ZM36.1253 188.195C35.0047 189.706 33.6645 190.968 32.1658 191.977L33.8414 194.465C35.6164 193.27 37.2067 191.773 38.535 189.982L36.1253 188.195ZM11.0243 191.661C2.0737 185.011 1.42005 174.226 7.40496 166.156L4.99527 164.369C-1.872 173.629 -1.18045 186.33 9.23507 194.069L11.0243 191.661ZM7.40496 166.156C8.52554 164.645 9.86572 163.383 11.3644 162.374L9.68886 159.885C7.9139 161.081 6.32356 162.578 4.99527 164.369L7.40496 166.156ZM32.506 162.69C41.4566 169.34 42.1102 180.124 36.1253 188.195L38.535 189.982C45.4023 180.722 44.7107 168.02 34.2952 160.282L32.506 162.69ZM32.1658 191.977C28.8781 194.191 25.3981 195.434 21.8775 195.483C18.3712 195.532 14.7075 194.398 11.0243 191.661L9.23507 194.069C13.3899 197.156 17.6863 198.542 21.9191 198.483C26.1376 198.424 30.1755 196.934 33.8414 194.465L32.1658 191.977ZM11.3644 162.374C14.6521 160.16 18.1322 158.917 21.6528 158.868C25.1591 158.819 28.8228 159.953 32.506 162.69L34.2952 160.282C30.1404 157.194 25.8439 155.809 21.6111 155.868C17.3927 155.927 13.3547 157.417 9.68886 159.885L11.3644 162.374ZM37.0164 187.594C34.0136 191.643 29.9684 194.149 25.6071 194.842C21.2554 195.533 16.4636 194.439 11.9154 191.06L10.1262 193.468C15.2611 197.283 20.8565 198.634 26.0778 197.804C31.2894 196.976 36.0029 193.997 39.4261 189.381L37.0164 187.594ZM11.9154 191.06C2.96482 184.41 2.31117 173.625 8.29608 165.555L5.88639 163.768C-0.980879 173.028 -0.289326 185.729 10.1262 193.468L11.9154 191.06ZM8.29608 165.555C11.299 161.506 15.3441 159 19.7055 158.307C24.0571 157.615 28.8489 158.709 33.3971 162.088L35.1863 159.68C30.0515 155.865 24.4561 154.514 19.2348 155.344C14.0232 156.172 9.3096 159.152 5.88639 163.768L8.29608 165.555ZM33.3971 162.088C42.3477 168.739 43.0014 179.523 37.0164 187.594L39.4261 189.381C46.2934 180.12 45.6019 167.419 35.1863 159.68L33.3971 162.088ZM21.9649 168.246L20.4588 175.922L23.4027 176.499L24.9088 168.823L21.9649 168.246ZM20.4588 175.922L18.9527 183.598L21.8966 184.176L23.4027 176.499L20.4588 175.922ZM21.6422 177.683L28.7307 179.072L29.3079 176.128L22.2193 174.739L21.6422 177.683ZM22.2193 174.739L15.9184 173.503L15.3413 176.447L21.6422 177.683L22.2193 174.739Z" fill="#7831B2"/>
</svg>
