<svg width="243" height="219" viewBox="0 0 243 219" fill="none" xmlns="http://www.w3.org/2000/svg">
<path fill-rule="evenodd" clip-rule="evenodd" d="M109.01 215.021C167.558 215.021 215.021 167.558 215.021 109.01C215.021 50.4625 167.558 3 109.01 3C50.4625 3 3 50.4625 3 109.01C3 167.558 50.4625 215.021 109.01 215.021ZM109.01 218.021C169.215 218.021 218.021 169.215 218.021 109.01C218.021 48.8056 169.215 -2.42616e-07 109.01 -1.14723e-07C48.8056 1.31704e-08 -1.21076e-08 48.8056 1.15785e-07 109.01C2.43679e-07 169.215 48.8056 218.021 109.01 218.021Z" fill="#7831B2"/>
<path fill-rule="evenodd" clip-rule="evenodd" d="M110.01 215.021C168.558 215.021 216.021 167.558 216.021 109.01C216.021 50.4625 168.558 3 110.01 3C51.4625 3 4 50.4625 4 109.01C4 167.558 51.4625 215.021 110.01 215.021ZM110.01 218.021C170.215 218.021 219.021 169.215 219.021 109.01C219.021 48.8056 170.215 -2.4474e-07 110.01 -1.16847e-07C49.8056 1.10459e-08 1 48.8056 1 109.01C1 169.215 49.8056 218.021 110.01 218.021Z" fill="#7831B2"/>
<path fill-rule="evenodd" clip-rule="evenodd" d="M109.012 197.04C157.629 197.04 197.041 157.628 197.041 109.01C197.041 60.3932 157.629 20.9812 109.012 20.9812C60.3945 20.9812 20.9824 60.3932 20.9824 109.01C20.9824 157.628 60.3945 197.04 109.012 197.04ZM109.012 200.04C159.286 200.04 200.041 159.285 200.041 109.01C200.041 58.7364 159.286 17.9812 109.012 17.9812C58.7376 17.9812 17.9824 58.7364 17.9824 109.01C17.9824 159.285 58.7376 200.04 109.012 200.04Z" fill="#7831B2"/>
<path fill-rule="evenodd" clip-rule="evenodd" d="M107.887 197.04C156.504 197.04 195.916 157.628 195.916 109.01C195.916 60.3932 156.504 20.9812 107.887 20.9812C59.2695 20.9812 19.8574 60.3932 19.8574 109.01C19.8574 157.628 59.2695 197.04 107.887 197.04ZM107.887 200.04C158.161 200.04 198.916 159.285 198.916 109.01C198.916 58.7364 158.161 17.9812 107.887 17.9812C57.6126 17.9812 16.8574 58.7364 16.8574 109.01C16.8574 159.285 57.6126 200.04 107.887 200.04Z" fill="#7831B2"/>
<path fill-rule="evenodd" clip-rule="evenodd" d="M109.012 174.563C145.216 174.563 174.565 145.214 174.565 109.01C174.565 72.8065 145.216 43.4575 109.012 43.4575C72.808 43.4575 43.459 72.8065 43.459 109.01C43.459 145.214 72.808 174.563 109.012 174.563ZM109.012 177.563C146.873 177.563 177.565 146.871 177.565 109.01C177.565 71.1497 146.873 40.4575 109.012 40.4575C71.1512 40.4575 40.459 71.1497 40.459 109.01C40.459 146.871 71.1512 177.563 109.012 177.563Z" fill="#7831B2"/>
<path fill-rule="evenodd" clip-rule="evenodd" d="M110.133 175.687C146.337 175.687 175.686 146.338 175.686 110.134C175.686 73.9303 146.337 44.5813 110.133 44.5813C73.9291 44.5813 44.5801 73.9303 44.5801 110.134C44.5801 146.338 73.9291 175.687 110.133 175.687ZM110.133 178.687C147.994 178.687 178.686 147.995 178.686 110.134C178.686 72.2735 147.994 41.5813 110.133 41.5813C72.2723 41.5813 41.5801 72.2735 41.5801 110.134C41.5801 147.995 72.2723 178.687 110.133 178.687Z" fill="#7831B2"/>
<path fill-rule="evenodd" clip-rule="evenodd" d="M109.011 147.592C130.319 147.592 147.592 130.318 147.592 109.01C147.592 87.7025 130.319 70.429 109.011 70.429C87.703 70.429 70.4296 87.7025 70.4296 109.01C70.4296 130.318 87.703 147.592 109.011 147.592ZM109.011 150.592C131.976 150.592 150.592 131.975 150.592 109.01C150.592 86.0456 131.976 67.429 109.011 67.429C86.0462 67.429 67.4296 86.0456 67.4296 109.01C67.4296 131.975 86.0462 150.592 109.011 150.592Z" fill="#7831B2"/>
<path fill-rule="evenodd" clip-rule="evenodd" d="M109.011 145.344C130.319 145.344 147.592 128.071 147.592 106.763C147.592 85.4549 130.319 68.1814 109.011 68.1814C87.703 68.1814 70.4296 85.4549 70.4296 106.763C70.4296 128.071 87.703 145.344 109.011 145.344ZM109.011 148.344C131.976 148.344 150.592 129.727 150.592 106.763C150.592 83.798 131.976 65.1814 109.011 65.1814C86.0462 65.1814 67.4296 83.798 67.4296 106.763C67.4296 129.727 86.0462 148.344 109.011 148.344Z" fill="#7831B2"/>
<path fill-rule="evenodd" clip-rule="evenodd" d="M109.01 129.611C120.388 129.611 129.611 120.387 129.611 109.01C129.611 97.6332 120.388 88.4101 109.01 88.4101C97.6332 88.4101 88.4102 97.6332 88.4102 109.01C88.4102 120.387 97.6332 129.611 109.01 129.611ZM109.01 132.611C122.044 132.611 132.611 122.044 132.611 109.01C132.611 95.9763 122.044 85.4101 109.01 85.4101C95.9763 85.4101 85.4102 95.9763 85.4102 109.01C85.4102 122.044 95.9763 132.611 109.01 132.611Z" fill="#7831B2"/>
<path fill-rule="evenodd" clip-rule="evenodd" d="M109.681 127.304C120.097 127.304 128.428 119.061 128.428 109.03C128.428 98.999 120.097 90.7555 109.681 90.7555C99.2645 90.7555 90.9336 98.999 90.9336 109.03C90.9336 119.061 99.2645 127.304 109.681 127.304ZM109.681 130.304C121.691 130.304 131.428 120.779 131.428 109.03C131.428 97.2803 121.691 87.7555 109.681 87.7555C97.6701 87.7555 87.9336 97.2803 87.9336 109.03C87.9336 120.779 97.6701 130.304 109.681 130.304Z" fill="#7831B2"/>
<path fill-rule="evenodd" clip-rule="evenodd" d="M113.63 103.385C113.846 104.185 113.372 105.008 112.572 105.223L108.225 106.392L121.949 112.147L217.836 148.492L223.699 143.082C224.308 142.52 225.257 142.558 225.819 143.167C226.017 143.381 226.14 143.638 226.191 143.905C226.453 143.977 226.699 144.12 226.897 144.335C227.459 144.944 227.421 145.893 226.812 146.454L219.61 153.1L223.907 154.901L232.542 146.932C233.151 146.371 234.1 146.409 234.662 147.017C234.86 147.232 234.983 147.489 235.034 147.756C235.296 147.827 235.542 147.971 235.74 148.186C236.302 148.794 236.264 149.743 235.655 150.305L228.56 156.852L232.755 158.612L239.055 152.798C239.664 152.237 240.613 152.275 241.175 152.884C241.373 153.098 241.496 153.355 241.546 153.622C241.809 153.694 242.055 153.837 242.253 154.052C242.814 154.661 242.776 155.61 242.168 156.171L235.616 162.217L235.145 173.948C235.112 174.776 234.414 175.42 233.586 175.387C232.874 175.358 232.298 174.838 232.172 174.167C231.513 173.987 231.041 173.371 231.069 172.66L231.495 162.052L226.706 160.044L226.274 170.78C226.241 171.608 225.543 172.252 224.715 172.219C224.004 172.19 223.428 171.67 223.301 170.999C222.642 170.819 222.17 170.203 222.199 169.491L222.647 158.342L217.756 156.291L217.189 170.415C217.156 171.243 216.458 171.887 215.63 171.854C214.918 171.825 214.342 171.305 214.216 170.634C213.557 170.454 213.085 169.838 213.113 169.126L213.697 154.589L108.21 110.355L110.152 112.846C110.661 113.499 110.544 114.442 109.891 114.951C109.238 115.461 108.295 115.344 107.786 114.69L101.903 107.143C101.846 107.07 101.796 106.993 101.755 106.912C101.138 106.531 100.872 105.747 101.162 105.057C101.482 104.293 102.361 103.934 103.125 104.254L103.711 104.5L111.792 102.326C112.592 102.111 113.415 102.585 113.63 103.385ZM214.957 151.148L215.372 150.766L201.563 145.532L214.957 151.148Z" fill="#7831B2"/>
</svg>
