<svg width="330" height="191" viewBox="0 0 330 191" fill="none" xmlns="http://www.w3.org/2000/svg">
<path d="M2.21697 158.059C0.124359 158.493 0.214248 161.249 2.34684 160.909C9.2731 159.556 16.3131 158.155 23.313 156.659C29.9754 167.709 36.6378 178.759 43.3401 189.904C43.8136 190.71 45.5652 190.419 45.9675 189.468C52.1744 176.238 58.034 162.818 62.9379 149.355C63.6849 150.493 64.432 151.631 65.2928 152.721C65.1853 153.102 65.4989 153.528 65.9199 153.574C69.4829 158.219 73.728 162.577 77.7394 166.698C80.8564 169.967 84.0471 173.092 87.3515 176.17C88.8669 177.543 89.7277 178.634 92.0539 178.436C92.5886 178.434 93.0771 178.005 93.2982 177.577C96.6615 171.578 97.3139 163.593 98.9131 157.221C100.479 151.086 102.8 144.521 103.41 138.341C111.919 148.055 121.746 156.766 132.811 164.285C133.739 164.9 135.217 164.277 135.466 163.279C138.431 150.297 140.246 137.128 139.394 124.301C149.642 133.059 160.981 140.91 172.728 148.142C173.656 148.756 175.174 148.229 175.497 147.087C178.499 136.101 179.98 123.409 178.13 112.343C188.372 120.768 199.59 128.334 211.592 134.9C212.287 135.278 213.316 135.18 213.992 134.56C216.428 132.081 216.612 129.657 216.67 126.615C216.736 122.006 216.381 117.35 216.18 112.742C215.979 108.133 215.738 103.43 215.537 98.8212C215.445 97.9662 215.574 96.6828 215.662 95.3045C218.106 97.2923 220.549 99.2801 223.147 101.315C223.153 101.647 223.54 101.931 223.961 101.977C228.729 105.668 233.53 109.121 238.558 112.479C238.598 112.574 238.484 112.622 238.524 112.716C238.343 113.24 238.958 113.428 239.373 113.141L239.486 113.093C242.425 114.985 245.437 116.733 248.409 118.386C249.257 118.811 250.514 118.617 251.07 117.712C253.991 112.571 250.645 105.264 249.636 100.326C248.082 92.8229 246.448 85.1304 244.399 77.7243C252.028 81.2157 259.656 84.7072 267.244 88.1037C271.366 89.9434 275.5 92.4484 279.842 93.8598C281.686 94.424 282.608 94.7061 284.467 94.0348C285.263 93.6995 285.592 92.8907 285.466 92.2734C282.654 80.8308 279.307 69.3899 274.295 58.7623C282.759 62.0134 291.337 65.2166 300.209 67.8487C302.053 68.4129 303.937 69.072 305.935 69.6832C306.015 69.873 306.322 69.9671 306.703 69.9183C308.701 70.5295 310.659 71.0458 312.65 71.3244C314.374 71.6039 316.018 71.6936 317.364 70.1211C318.334 68.93 318.196 67.6475 318.057 66.365C317.561 62.3276 314.847 58.1074 313.475 54.2154C310.612 46.1467 308.471 37.8856 306.216 29.6724C315.144 20.9951 323.177 11.4654 329.667 1.13285C330.036 0.418881 328.994 -0.147934 328.472 0.519016C314.169 19.9529 296.341 36.7372 275.835 51.297C236.939 79.0791 192.115 100.418 147.364 117.48C129.73 124.238 111.889 130.188 93.9626 135.616C93.7689 135.474 93.5016 135.475 93.3142 135.666C93.3142 135.666 93.2005 135.714 93.2405 135.809C63.1979 144.887 32.7767 152.114 2.21697 158.059ZM44.5221 185.719C38.5668 175.712 32.5378 165.848 26.5825 155.841C38.3362 153.237 50.1636 150.49 61.871 147.458C55.9989 160.212 50.5079 172.917 44.5221 185.719ZM67.8027 150.099C66.7883 148.962 65.7339 147.73 64.7195 146.593C67.989 145.775 71.1048 144.909 74.3343 143.996C72.1592 146.141 69.9441 148.192 67.8027 150.099ZM73.1209 156.687C71.673 154.839 70.2651 153.085 68.7035 151.284C71.2134 148.663 73.7633 146.136 76.3869 143.466C79.3891 142.649 82.3913 141.831 85.3534 140.919C86.7976 140.534 88.0882 140.102 89.5324 139.717C84.1777 145.437 78.6293 151.014 73.1209 156.687ZM76.3641 160.573C75.6232 159.767 74.8424 158.867 74.2153 158.014C80.4858 152.244 86.2828 145.667 91.5451 139.093C95.1156 138.036 98.5725 137.027 102.103 135.875C102.069 136.112 102.036 136.35 102.156 136.635C101.277 138.681 100.439 140.822 99.828 142.867C99.6743 142.82 99.407 142.821 99.3332 142.964C92.3531 149.592 86.1601 157.452 80.1082 164.695C78.313 162.657 76.8313 161.047 76.3641 160.573ZM85.8412 170.996C84.3995 169.48 82.7642 167.822 81.3962 166.164C87.8354 159.205 94.6831 151.627 99.5793 143.866C98.4311 147.814 97.5165 151.998 96.442 155.803C96.1934 156.802 95.9048 157.706 95.6561 158.704C94.022 161.181 92.2342 163.61 90.2926 165.992C88.9471 167.564 87.1068 169.234 85.8412 170.996ZM91.1157 175.255C90.661 175.447 89.0319 174.122 86.9693 172.085C89.0769 170.415 90.7111 167.939 92.2778 165.938C93.0612 164.938 93.9182 163.794 94.6616 162.699C94.4467 163.46 94.2718 164.316 93.9432 165.125C93.5533 166.742 92.5937 174.633 91.1157 175.255ZM104.992 135.105C116.078 131.553 127.198 127.762 138.199 123.688C137.32 135.902 135.867 148.024 133.003 160.293C122.513 152.867 113.113 144.535 104.992 135.105ZM145.282 124.615C144.274 123.81 143.266 123.006 142.258 122.201C144.685 121.291 147.226 120.332 149.654 119.421C148.195 121.042 146.662 122.805 145.282 124.615ZM151.792 129.583C150.05 128.306 148.421 126.98 146.678 125.703C148.927 123.415 150.748 120.748 152.65 118.271C157.01 116.546 161.484 114.773 165.804 112.954C161.325 118.528 156.539 124.008 151.792 129.583ZM159.885 135.449C157.755 133.888 155.512 132.374 153.342 130.718C158.73 124.761 163.651 118.33 168.305 111.9C170.579 110.942 172.853 109.985 175.24 108.979C175.133 109.359 175.333 109.834 175.72 110.118C175.76 110.213 175.914 110.26 175.954 110.355C175.791 111.876 175.709 113.587 175.7 115.155C170.791 122.251 165.028 128.589 159.885 135.449ZM166.697 140.178C164.84 138.949 162.944 137.625 161.087 136.395C166.789 130.865 171.397 124.007 175.59 117.436C175.64 120.097 175.73 122.852 175.666 125.561C175.611 126.702 175.556 127.842 175.501 128.983C173.934 130.984 172.407 133.08 170.727 135.128C169.381 136.701 167.962 138.416 166.697 140.178ZM172.961 144.244C171.338 143.252 169.675 142.164 168.166 141.124C169.585 139.409 170.771 137.457 172.15 135.646C173.228 134.075 174.306 132.503 175.425 131.026C174.857 135.4 174.063 139.869 172.961 144.244ZM212.446 131.523C200.016 124.579 188.524 116.681 178.082 107.782C189.639 102.802 201.035 97.443 212.198 91.847C212.204 92.1796 212.364 92.5592 212.638 92.891C212.831 93.0329 213.025 93.1748 213.219 93.3167C213.044 94.1726 212.942 94.8857 212.949 95.2183C212.866 96.9292 212.897 98.5923 212.929 100.255C212.991 103.581 213.053 106.907 213.002 110.281C213.071 113.94 213.139 117.599 213.208 121.257C213.298 124.013 214.221 128.429 212.446 131.523ZM219.187 93.82C217.791 92.7316 216.356 91.5484 214.96 90.46C218.478 88.6429 222.11 86.7778 225.628 84.9607C224.698 86.2467 223.727 87.4378 222.796 88.7238C221.564 90.2484 219.917 92.0594 219.187 93.82ZM224.888 98.4581C223.299 97.2278 221.824 95.9497 220.275 94.8143C221.928 93.3359 223.033 91.194 224.185 89.4796C225.411 87.6224 226.636 85.7652 227.822 83.8131C227.936 83.7652 228.163 83.6694 228.277 83.6216C232.511 81.2794 236.859 78.8893 241.206 76.4993C235.689 83.7399 230.519 91.1696 224.888 98.4581ZM232.52 104.183C230.43 102.717 228.414 101.108 226.398 99.4986C231.875 92.163 237.312 84.7325 242.095 77.019C242.572 80.0586 243.163 83.0503 243.753 86.042C242.165 88.9458 240.464 91.8974 238.722 94.7541C236.793 97.8016 234.062 100.852 232.52 104.183C232.48 104.088 232.48 104.088 232.52 104.183ZM233.489 104.892C233.602 104.845 233.716 104.797 233.79 104.654C236.38 102.222 238.149 98.795 239.964 95.7955C241.444 93.2722 242.925 90.749 244.178 88.3215C244.723 90.8856 245.154 93.4977 245.738 96.1568C245.997 97.724 246.329 99.1485 246.588 100.716C245.175 102.764 243.915 104.858 242.502 106.906C241.946 107.811 241.123 108.717 240.3 109.622C238.016 108.014 235.732 106.406 233.489 104.892ZM241.729 110.473C242.399 109.52 243.028 108.473 243.584 107.568C244.736 105.854 245.848 104.044 246.693 102.236C246.911 103.708 247.284 105.228 247.502 106.7C247.927 108.979 249.052 111.969 248.568 114.632C246.29 113.356 244.086 111.938 241.729 110.473ZM263.942 83.1251C257.51 80.2475 251.151 77.2271 244.718 74.3495C253.976 68.9973 263.113 63.3605 271.937 57.2969C275.512 68.642 279.427 79.8434 282.279 91.3809C279.291 90.963 274.383 87.8903 272.686 87.0406C269.647 85.8625 266.795 84.4938 263.942 83.1251ZM278.661 57.37C277.238 56.852 275.889 56.1911 274.466 55.6731C277.784 53.3814 281.063 50.9948 284.301 48.5134C283.892 49.1324 283.41 49.8943 283.002 50.5133C281.515 52.704 279.801 54.9904 278.661 57.37ZM285.702 60.1031C283.778 59.3491 281.895 58.69 280.084 57.8881C281.651 55.8872 282.944 53.5547 284.203 51.4598C285.315 49.6505 286.314 47.8891 287.312 46.1277C293.374 41.4512 299.048 36.4908 304.529 31.3886C301.528 36.3402 298.641 41.2439 295.446 46.0536C292.479 50.7675 288.743 55.2464 285.702 60.1031ZM293.699 62.8806C291.662 62.1745 289.624 61.4683 287.546 60.6673C294.729 52.6134 300.304 42.3314 304.941 33.0028C305.717 37.7045 306.76 42.4054 307.991 46.9155C308.071 47.1054 308.19 47.3901 308.157 47.6278C308.975 50.5237 309.907 53.3717 310.992 56.2667C311.192 56.7413 311.432 57.3107 311.712 57.975C311.598 58.0229 311.525 58.1657 311.565 58.2606C310.364 61.4482 308.622 64.305 306.921 67.2566C305.538 66.8335 304.382 66.3145 303.5 66.1273C302.117 65.7042 300.734 65.281 299.505 64.9049C301.105 62.6664 302.238 59.9542 303.532 57.6216C305.153 54.4801 306.775 51.3387 308.243 48.1502C308.317 48.0074 308.277 47.9125 308.237 47.8176C308.077 47.438 307.502 47.3448 307.167 47.8211C305.546 50.9625 303.77 54.057 302.035 57.2463C300.628 59.6268 298.954 62.0081 297.894 64.5775C296.545 63.9167 295.122 63.3986 293.699 62.8806ZM314.563 65.3785C314.392 68.4677 311.411 68.3824 308.417 67.6319C310.125 65.0128 311.366 61.9201 312.345 59.1609C313.492 61.2479 314.759 63.6197 314.563 65.3785Z" fill="#E71985"/>
</svg>
