<svg width="165" height="194" viewBox="0 0 165 194" fill="none" xmlns="http://www.w3.org/2000/svg">
<path d="M32.6309 87.831C37.1254 108.017 51.1727 142.597 79.3053 142.704C88.4915 142.739 95.7319 141.123 101.587 137.573M101.587 137.573C114.21 129.919 120.394 113.274 125.755 84.795M101.587 137.573C102.27 148.359 99.1872 169.913 81.3918 171.409C63.4867 172.913 60.1769 150.233 60.7602 138.705M101.587 137.573C101.583 137.506 101.578 137.44 101.574 137.374M61.136 150.201C47.798 152.938 18.6751 161.023 8.88766 171.47M102.505 148.277C119.244 149.841 154.686 156.704 162.538 171.64M46.3211 154.713L43.1406 180.712L59.811 180.169L67.0277 189.716L82.5986 173.096L98.6441 188.685L105.798 178.669L123.044 178.107L118.176 152.37M124.084 62.6449C124.084 62.6449 119.677 63.5435 113.105 63.8169M113.105 63.8169C100.438 64.3437 79.7255 62.5487 66.9925 47.5266C63.3985 43.2865 60.9003 41.2959 59.0816 40.8548M113.105 63.8169C120.562 63.6401 125.701 62.5921 125.701 62.5921M113.105 63.8169C100.35 64.1192 80.8142 61.8726 68.6094 47.4738C63.8096 41.8111 60.9643 40.1606 59.0816 40.8548M59.0816 40.8548C51.5109 39.0185 55.7119 64.029 41.6496 65.3972M59.0816 40.8548C53.472 42.9232 56.4074 65.8062 41.6496 65.3972M41.6496 65.3972C40.9104 65.4692 40.1208 65.4758 39.2763 65.4097M41.6496 65.3972C41.4025 65.3904 41.1505 65.377 40.8933 65.3569M32.7276 87.679C37.2221 107.865 51.6162 141.021 79.7487 141.127C108.74 141.237 117.764 126.339 125.612 84.6508M59.4655 148.638C46.1275 151.375 17.0046 159.46 7.2172 169.907M101.899 150.916C106.022 151.301 111.214 151.753 116.817 152.438M116.817 152.438C133.963 154.536 154.952 158.82 160.871 170.077M116.817 152.438L121.375 176.544L104.13 177.106L96.9757 187.122L80.8024 173.434L66.817 190.87L59.9868 179.773L43.0254 180.326L44.6527 153.15M116.817 152.438L116.508 150.807M84.1971 2.06215C77.0582 2.39497 70.7054 4.01516 66.4427 5.72446C65.9784 5.71231 65.4974 5.70641 65.0011 5.70726M84.1971 2.06215C96.6621 1.48103 111.524 4.82482 121.84 18.4723C142.119 45.3017 156.464 88.4954 154.805 111.997C153.477 130.799 140.035 146.707 133.48 152.311M84.1971 2.06215C76.5035 2.20354 69.5852 3.89601 65.0011 5.70726M84.1971 2.06215C96.3119 1.83952 110.349 5.46293 120.223 18.5249C140.502 45.3544 154.847 88.548 153.188 112.05C151.86 130.852 138.418 146.76 131.863 152.364M65.0011 5.70726C64.1721 5.70867 63.3005 5.72892 62.3935 5.77029M65.0011 5.70726C64.9423 5.73051 64.8838 5.75379 64.8257 5.77708C64.0584 5.75699 63.2454 5.75399 62.3935 5.77029M62.3935 5.77029C47.7568 6.4379 23.8911 12.6062 20.4657 33.9052C15.7598 63.1663 -14.4412 128.835 19.5957 156.024M62.3935 5.77029C47.9713 6.04626 22.4034 11.8545 18.8487 33.9578C14.1428 63.2189 -16.0582 128.887 17.9787 156.077" stroke="#7831B2" stroke-width="3" stroke-linecap="round"/>
</svg>
