<svg width="189" height="190" viewBox="0 0 189 190" fill="none" xmlns="http://www.w3.org/2000/svg">
<path d="M3.34252 163.112C3.34462 146.391 2.41418 100.494 61.0005 92.3478M3.34168 165.08C0.68061 142.116 12.9238 96.9112 62.7119 92.6932M114.378 86.6001C130.578 82.7383 166.293 85.5038 183.483 127.46M112.495 87.1115C128.695 83.2497 167.81 87.7143 185 129.67M85.4536 172.446L96.9264 185M85.4536 172.446L83.6747 119.179M85.4536 172.446C87.6585 173.847 96.9264 185 96.9264 185M85.4536 172.446C83.2487 171.045 83.6747 119.179 83.6747 119.179M96.9264 185L104.42 170.286M96.9264 185C96.9264 185 102.518 173.884 104.42 170.286M104.42 170.286L94.3496 117.794M104.42 170.286C106.322 166.687 94.3496 117.794 94.3496 117.794M83.2397 110.446L83.6747 119.179M83.6747 119.179L94.3496 117.794M94.3496 117.794L91.9924 107.158C91.9143 109.303 94.3496 117.794 94.3496 117.794ZM117.065 125.329L146.381 120.108M88.289 104.449L74.3586 115.871M74.3586 115.871L62.6514 93.5198L66.7945 97.8313L74.3586 115.871ZM86.8035 104.537L102.952 113.856M102.952 113.856L112.399 87.7836C105.912 99.8932 102.952 113.856 102.952 113.856ZM64.1146 92.9724L87.773 104.008L110.424 87.8544M128.044 65.9543C120.766 90.1732 92.9196 101.227 65.8477 93.0703C38.7758 84.9136 23.712 60.6352 30.99 36.4163C38.268 12.1974 63.1672 -0.823612 90.2391 7.33309C117.311 15.4898 135.322 41.7354 128.044 65.9543ZM128.526 64.054C127.14 68.6687 125.006 72.8769 122.273 76.6095C110.665 92.4661 88.2439 99.7397 66.3303 93.1372C39.2585 84.9805 23.2124 58.7349 30.4904 34.516C31.8772 29.9013 34.0107 25.6931 36.7433 21.9605C48.352 6.10389 70.7728 -1.16969 92.6863 5.43282C119.758 13.5895 135.804 39.8351 128.526 64.054Z" stroke="#7831B2" stroke-width="5" stroke-linecap="square"/>
</svg>
