<svg width="510" height="336" fill="none" xmlns="http://www.w3.org/2000/svg"><path d="M439.177 235.082l.533-44.097-3.462 3.245-.532 44.096 3.461-3.244zm34.267 57.198l-19.44-254.318-3.714 3.482 19.439 254.317 3.715-3.481zM453.23 36.237C291.735-10.73 98.065 22.931 21.041 44.773l-3.374 2.446C94.69 25.377 288.77-5.531 450.266 41.437l2.964-5.2z" fill="#7831B2"/><path d="M37.037 299.056c200.113 60.682 374.315 20.764 436.401-6.78l-4.494 4.848c-62.086 27.544-235.639 66.405-435.752 5.723l3.845-3.791zM21.041 47.219l15.953 251.827-4.752 2.481L17.667 47.219h3.374zM496.502 1l-19.468 9.069-3.462 3.244 19.469-9.068L496.502 1zm3.111 11.65l-16.993 4.453-3.461 3.244 16.993-4.453 3.461-3.245zM13.417 312.46l-.667.511-3.461 3.244.667-.511 3.461-3.244z" fill="#7831B2"/><path d="M12.756 312.971l-7.622 5.842-3.462 3.244 7.623-5.842 3.461-3.244zm-7.628 5.845l-.667.511L1 322.571l.667-.511 3.461-3.244zm502.85 1.416l-12.005-7.87-3.461 3.244 12.004 7.87 3.462-3.244z" fill="#7831B2"/><path d="M437.241 194.235a1 1 0 00-2-.025l2 .025zm-2.532 44.072a1 1 0 002 .024l-2-.024zm5.001-47.322l.999.012.029-2.346-1.712 1.605.684.729zm-.533 44.097l.684.729.311-.291.005-.426-1-.012zm-3.461 3.244l-1-.012-.028 2.346 1.712-1.605-.684-.729zm.532-44.096l-.684-.73-.311.291-.005.426 1 .013zm-8.746 64.942a1 1 0 101.368 1.459l-1.368-1.459zm8.711-5.423a1.001 1.001 0 00-1.368-1.459l1.368 1.459zm3.448-3.248a1 1 0 00-1.367-1.46l1.367 1.46zm-8.5 5.226a1 1 0 101.368 1.459l-1.368-1.459zm4.834-1.782a1 1 0 00-1.368-1.459l1.368 1.459zm-8.501 5.226a1 1 0 101.368 1.459l-1.368-1.459zm26.51-221.21l.998-.075-.159-2.08-1.522 1.426.683.73zm19.44 254.319l.684.729.35-.328-.037-.478-.997.077zm-3.715 3.481l-.997.077.159 2.079 1.522-1.426-.684-.73zM450.29 41.444l-.684-.73-.35.328.036.478.998-.076zm-429.249 3.33l-.273-.963-.17.049-.144.104.587.81zm432.189-8.537l.869.495.628-1.101-1.218-.354-.279.96zm-2.964 5.2l-.28.96.758.22.39-.685-.868-.495zm-432.6 5.782l-.586-.81-.443.321.031.546.999-.057zm455.772 245.057l.734.68-1.139-1.594.405.914zm-436.401 6.78l.29-.957-.57-.173-.422.418.702.712zm-3.845 3.791l-.703-.712-1.197 1.181 1.61.488.29-.957zm435.752-5.723l.406.914.188-.083.14-.151-.734-.68zm-431.95 1.922l.463.886.576-.3-.04-.649-.999.063zM21.041 47.219l.998-.063-.06-.937h-.938v1zm11.201 254.308l-.998.057.088 1.546 1.373-.717-.463-.886zM473.184 12.414a1 1 0 00.844 1.813l-.844-1.813zm20.313-7.255a1 1 0 10-.845-1.813l.845 1.813zm-16.463 4.91l-.422-.907-.145.068-.117.11.684.729zM496.502 1l.684.73L496.08.094l.422.906zm-3.461 3.245l.422.906.145-.067.117-.11-.684-.73zm-19.469 9.068l-.683-.73 1.106 1.637-.423-.907zm3.05-4.151a1 1 0 00.844 1.813l-.844-1.813zm20.313-7.256a1 1 0 10-.845-1.812l.845 1.812zm-18.052 17.466a1 1 0 00.507 1.934l-.507-1.934zm17.5-2.52a1 1 0 00-.507-1.934l.507 1.935zm-13.763.251l-.253-.967-.246.064-.185.173.684.73zm16.993-4.454l.684.73-.938-1.697.254.967zm-3.461 3.245l.253.967.245-.064.185-.174-.683-.73zm-16.993 4.453l-.684-.73.937 1.698-.253-.968zm3.19-4.218a1 1 0 10.507 1.934l-.507-1.934zm17.5-2.52a1 1 0 00-.508-1.934l.508 1.935zM.423 321.788a1 1 0 001.217 1.588l-1.217-1.588zm10.172-5.276a1 1 0 00-1.216-1.588l1.216 1.588zm2.155-3.54l-.608-.794-.04.03-.035.034.683.73zm.667-.511l.684.729-1.292-1.523.608.794zm-3.461 3.244l.608.794.04-.031.036-.033-.684-.73zm-.667.511l-.684-.73 1.292 1.524-.608-.794zm-4.155 2.598l-.608-.794-.04.031-.036.033.684.73zm7.622-5.842l.684.73-1.292-1.524.608.794zm-3.461 3.244l.608.794.04-.03.036-.034-.684-.73zm-7.623 5.842l-.683-.729 1.292 1.523-.609-.794zm2.79-2.73l-.609-.794-.04.03-.035.034.683.73zm.666-.511l.684.73-1.292-1.524.608.794zm-3.461 3.244l.608.794.04-.03.036-.034-.684-.73zm-.667.511l-.684-.73 1.292 1.524-.608-.794zm2.861-4.036a1 1 0 101.217 1.587l-1.217-1.587zm10.172-5.277a1 1 0 10-1.216-1.587l1.216 1.587zm479.018 1.51a.999.999 0 10-1.096 1.673l1.096-1.673zm10.908 9.543a1 1 0 001.097-1.672l-1.097 1.672zm-7.986-11.949l.548-.837-.658-.431-.574.538.684.73zm12.005 7.87l.683.73.928-.869-1.063-.697-.548.836zm-3.462 3.244l-.548.837.658.431.574-.538-.684-.73zm-12.004-7.87l-.684-.73-.927.869 1.062.697.549-.836zm4.032-4.073a1 1 0 10-1.097 1.673l1.097-1.673zm10.908 9.544a1 1 0 001.096-1.673l-1.096 1.673zM435.241 194.21l-.532 44.097 2 .024.532-44.096-2-.025zm3.469-3.237l-.533 44.097 2 .024.532-44.097-1.999-.024zm-.216 43.379l-3.462 3.244 1.368 1.459 3.461-3.244-1.367-1.459zm-1.778 3.986l.532-44.096-2-.025-.532 44.097 2 .024zm.216-43.379l3.461-3.244-1.367-1.459-3.462 3.244 1.368 1.459zm1.775-3.992l-.532 44.096 1.999.025.533-44.097-2-.024zm-6.371 66.419l7.343-6.882-1.368-1.459-7.342 6.882 1.367 1.459zm-3.466 3.245l7.343-6.882-1.368-1.459-7.343 6.882 1.368 1.459zm3.659-3.445l7.132-6.685-1.367-1.46-7.133 6.686 1.368 1.459zm-3.667 3.444l7.133-6.685-1.368-1.459-7.133 6.685 1.368 1.459zm24.145-222.592l19.44 254.318 1.994-.153-19.439-254.317-1.995.152zM472.76 291.55l-3.715 3.482 1.368 1.459 3.715-3.482-1.368-1.459zm-2.034 4.135L451.287 41.367l-1.995.153 19.44 254.318 1.994-.153zM450.973 42.173l3.715-3.482-1.367-1.459-3.715 3.482 1.367 1.46zM21.314 45.735c76.949-21.82 270.405-55.428 431.637-8.538l.558-1.92C291.752-11.766 97.867 21.947 20.769 43.81l.545 1.924zm431.047-9.993l-2.964 5.2 1.737.99 2.965-5.2-1.738-.99zm-1.816 4.734C288.796-6.564 94.507 24.39 17.394 46.256l.546 1.925c76.934-21.817 270.805-52.677 432.046-5.784l.559-1.92zM18.253 48.03l3.375-2.446-1.174-1.62-3.374 2.446 1.174 1.62zm454.78 243.333c-61.887 27.455-235.842 67.343-435.706 6.737l-.58 1.914c200.362 60.757 374.811 20.81 437.097-6.823l-.811-1.828zm-436.698 6.982l-3.846 3.791 1.405 1.424 3.845-3.791-1.404-1.424zm-3.434 5.46c200.359 60.756 374.158 21.869 436.449-5.766l-.811-1.828c-61.883 27.454-235.189 66.288-435.057 5.68l-.58 1.914zm436.777-6l4.494-4.848-1.467-1.36-4.494 4.848 1.467 1.36zm-431.686 1.179L22.04 47.156l-1.996.126L35.996 299.11l1.996-.126zM21.042 46.219h-3.375v2h3.374v-2zm-4.374 1.057l14.576 254.308 1.997-.115L18.665 47.162l-1.997.114zm16.037 255.137l4.752-2.481-.926-1.773-4.752 2.481.926 1.773zM474.028 14.227l19.469-9.068-.845-1.813-19.468 9.068.844 1.813zm3.428-3.252l19.469-9.068-.845-1.813-19.468 9.068.844 1.813zM495.818.271l-3.461 3.244 1.368 1.46 3.461-3.245-1.368-1.46zm-3.199 3.067l-19.469 9.069.845 1.813 19.468-9.069-.844-1.813zm-18.363 10.705l3.462-3.244-1.368-1.46-3.461 3.245 1.367 1.459zm3.21-3.068l19.469-9.069-.845-1.812-19.468 9.068.844 1.813zm1.924 10.332l16.993-4.454-.507-1.935-16.993 4.454.507 1.934zm3.484-3.237l16.993-4.453-.508-1.935-16.992 4.454.507 1.934zm16.055-6.15l-3.461 3.244 1.367 1.46 3.462-3.245-1.368-1.46zm-3.031 3.006l-16.993 4.454.507 1.935 16.993-4.454-.507-1.935zm-16.055 6.15l3.461-3.243-1.368-1.46-3.461 3.245 1.368 1.459zm3.013-3.013l16.993-4.453-.508-1.935-16.992 4.454.507 1.934zM13.359 313.764l.666-.51-1.216-1.588-.667.511 1.217 1.587zm-.626-2.034l-3.461 3.244 1.368 1.46 3.46-3.245-1.367-1.459zm-3.386 3.18l-.666.511 1.216 1.588.667-.511-1.217-1.588zm.626 2.035l3.461-3.245-1.367-1.459-3.462 3.244 1.368 1.46zm-4.23 2.662l7.622-5.842-1.217-1.588-7.622 5.842 1.216 1.588zm6.33-7.366l-3.462 3.244 1.368 1.46 3.461-3.244-1.368-1.46zm-3.386 3.18l-7.623 5.843 1.217 1.587 7.622-5.842-1.216-1.588zm-6.33 7.366l3.46-3.244-1.367-1.46-3.461 3.245 1.367 1.459zm2.713-2.666l.666-.511-1.216-1.588-.667.511 1.217 1.588zm-.626-2.035L.983 321.33l1.368 1.46 3.46-3.244-1.367-1.46zm-3.386 3.18l-.666.511 1.216 1.588.667-.511-1.217-1.588zm.626 2.035l3.461-3.245-1.367-1.459-3.462 3.244 1.368 1.46zm3.394-3.179l8.955-6.864-1.216-1.587-8.956 6.864 1.217 1.587zm-3.438 3.253l8.955-6.864-1.216-1.588-8.956 6.864 1.217 1.588zm490.315-6.934l12.004 7.87 1.097-1.672-12.005-7.871-1.096 1.673zm3.47-3.243l12.004 7.87 1.097-1.672-12.005-7.871-1.096 1.673zm11.869 6.304l-3.462 3.245 1.368 1.459 3.461-3.244-1.367-1.46zm-2.23 3.138l-12.004-7.871-1.097 1.673 12.005 7.871 1.096-1.673zm-11.868-6.305l3.461-3.244-1.368-1.459-3.461 3.244 1.368 1.459zm2.251-3.129l12.005 7.871 1.096-1.673-12.004-7.871-1.097 1.673z" fill="#7831B2"/></svg>