<svg width="292" height="143" fill="none" xmlns="http://www.w3.org/2000/svg"><path d="M98.644 14.642c-.888.003-1.65-.145-2.287-.443a3.8 3.8 0 01-1.479-1.256 4.385 4.385 0 01-.706-1.797 6.382 6.382 0 01.068-2.125 8.19 8.19 0 01.751-2.162 8.597 8.597 0 011.166-1.695 8.608 8.608 0 011.294-1.228 7.802 7.802 0 011.15-.742c.336-.168.576-.253.72-.254a.94.94 0 01.324.053c.096.036.174.132.234.288.133.263.115.497-.052.702a2.518 2.518 0 01-.683.56c-.395.241-.82.572-1.276.994a7.42 7.42 0 00-1.22 1.551c-.359.613-.627 1.334-.806 2.163-.13.684-.123 1.32.023 1.908a2.54 2.54 0 00.957 1.419c.492.346 1.177.518 2.053.516a4.278 4.278 0 001.961-.492 5.138 5.138 0 001.653-1.409 4.915 4.915 0 00.949-2.145 9.75 9.75 0 00.157-2.106c-.025-.696-.14-1.32-.346-1.871-.205-.563-.512-1.013-.921-1.347-.396-.335-.895-.502-1.495-.5a.753.753 0 00-.629.308 1.799 1.799 0 00-.304.739 1.05 1.05 0 01-.305.595.767.767 0 01-.504.2.704.704 0 01-.414-.126.752.752 0 01-.27-.377 1.21 1.21 0 01-.02-.63 2.912 2.912 0 011.4-1.948c.383-.217.827-.326 1.331-.328.816-.002 1.518.206 2.107.624.589.418 1.046.987 1.372 1.706.338.707.543 1.516.617 2.428.086.912.028 1.86-.174 2.845a6.71 6.71 0 01-2.277 3.894 6.544 6.544 0 01-1.906 1.104 6.451 6.451 0 01-2.213.384zm11.711-.052c-.888.003-1.62-.17-2.197-.515a2.874 2.874 0 01-1.191-1.473c-.217-.635-.243-1.367-.077-2.196a5.948 5.948 0 01.77-1.964 6.357 6.357 0 011.401-1.588 6.726 6.726 0 011.833-1.067 5.66 5.66 0 012.033-.384c.312-.001.589.046.829.141.24.084.414.215.523.395.12.167.15.377.091.63a1.05 1.05 0 01-.269.54.672.672 0 01-.467.182.552.552 0 01-.307-.072 3.981 3.981 0 00-.234-.143c-.072-.048-.198-.071-.378-.07a3.778 3.778 0 00-1.925.527 4.943 4.943 0 00-1.527 1.336 4.367 4.367 0 00-.806 1.749c-.083.504-.07.942.039 1.314.12.36.337.64.649.844.325.203.721.304 1.189.302.528-.001.948-.063 1.26-.183.311-.133.557-.278.737-.435.191-.156.347-.295.467-.415a.546.546 0 01.413-.2c.228 0 .384.054.469.162.096.107.12.293.073.557a2.048 2.048 0 01-.61 1.064c-.323.301-.731.536-1.222.706a4.71 4.71 0 01-1.566.256zm6.388.018c-.432 0-.72-.274-.866-.826-.145-.552-.128-1.284.05-2.196.142-.636.303-1.117.483-1.441.191-.337.406-.566.646-.686.132-.073.318-.115.558-.128.24-.025.492-.037.756-.038.876-.003 1.74-.047 2.591-.134a13.01 13.01 0 002.537-.547l.327 1.24c-.623.243-1.295.425-2.015.547-.72.122-1.451.208-2.195.258a43.64 43.64 0 01-2.142.06l-1.045-.159c.155-.708.315-1.453.482-2.233.166-.78.308-1.477.427-2.09.048-.287.143-.522.287-.702.143-.18.305-.271.485-.272.3 0 .522.119.667.359.144.227.163.593.056 1.097-.047.265-.119.583-.214.955s-.196.763-.303 1.17c-.095.41-.19.8-.286 1.172-.083.36-.148.66-.196.9a26.322 26.322 0 00-.32 1.873c-.059.54-.112.949-.159 1.225a.755.755 0 01-.233.414.496.496 0 01-.378.181zm6.21-.019c-.3.001-.516-.172-.649-.52-.121-.347-.176-.821-.165-1.421.023-.612.105-1.285.248-2.017.237-1.153.445-2.065.624-2.738a17.5 17.5 0 01.518-1.621 2.98 2.98 0 01.359-.703c.143-.205.317-.307.521-.308.264 0 .45.125.559.376.12.24.145.534.074.882-.083.432-.214.9-.393 1.405a12.124 12.124 0 00-.411 1.64c-.142.72-.243 1.374-.301 1.963a27.97 27.97 0 00-.087 1.458c-.011.396-.041.69-.088.882a.843.843 0 01-.809.722zm7.577-.004c-.984.003-1.795-.21-2.432-.64a3.318 3.318 0 01-1.299-1.743c-.23-.743-.256-1.59-.078-2.538.131-.672.357-1.26.68-1.766.335-.517.706-.95 1.113-1.299.42-.35.839-.608 1.259-.778.419-.18.779-.272 1.079-.273a.85.85 0 01.324.053.407.407 0 01.217.18c.06.072.078.173.054.306-.059.24-.155.462-.286.666-.132.193-.377.367-.737.525a5.066 5.066 0 00-1.097.687c-.287.24-.521.523-.7.848-.179.312-.304.69-.375 1.135-.19.972-.075 1.752.347 2.339.421.575 1.064.86 1.928.858.84-.002 1.571-.304 2.194-.906.634-.614 1.047-1.425 1.236-2.434.19-.924.129-1.644-.184-2.16-.313-.526-.83-.789-1.55-.787-.372.001-.69.074-.954.22a6.595 6.595 0 00-.826.577 5.33 5.33 0 00-.521.488 3.041 3.041 0 01-.36.343.61.61 0 01-.377.11.505.505 0 01-.397-.162c-.084-.12-.102-.305-.055-.558.048-.276.185-.558.412-.847.24-.288.527-.553.863-.794a4.546 4.546 0 011.114-.598 3.182 3.182 0 011.17-.237c.864-.002 1.566.2 2.107.606.541.394.908.945 1.102 1.653.193.695.195 1.5.005 2.412-.166.9-.488 1.693-.967 2.379a5.107 5.107 0 01-1.761 1.57 4.63 4.63 0 01-2.248.565zm9.458.045c-.612.001-1.11-.123-1.495-.374a2.308 2.308 0 01-.83-.97 3.952 3.952 0 01-.291-1.313c-.013-.48.022-.948.105-1.404.107-.504.262-1.05.464-1.64a18.05 18.05 0 01.717-1.694c.263-.552.526-1.01.789-1.37.108-.156.227-.283.359-.379.144-.096.294-.163.45-.2a1.58 1.58 0 01.467-.073c.144 0 .247.048.307.144.06.083.072.203.037.36-.036.18-.138.408-.305.684-.155.277-.347.613-.574 1.01-.215.397-.43.871-.645 1.424a10.78 10.78 0 00-.536 1.91c-.154.768-.135 1.38.058 1.835.193.456.596.683 1.208.68a2.915 2.915 0 001.367-.363 4.062 4.062 0 001.204-.976c.359-.42.598-.89.717-1.406l.199.342a4.736 4.736 0 00-1.081-.267 10.568 10.568 0 00-1.314-.14 9.992 9.992 0 00-1.35-.014 8.35 8.35 0 00-1.188.111l.231-1.189a8.262 8.262 0 001.764-.22 6.81 6.81 0 001.493-.563 4.96 4.96 0 001.078-.723c.276-.265.431-.512.467-.74.035-.168-.007-.3-.127-.395-.121-.108-.313-.161-.577-.16-.324 0-.666.05-1.025.146-.348.097-.72.218-1.116.364-.395.145-.815.296-1.259.453-.179.049-.33.025-.45-.07-.108-.096-.144-.216-.108-.36.035-.168.149-.325.34-.47.204-.156.396-.27.576-.343.731-.386 1.408-.652 2.032-.798a7.45 7.45 0 011.764-.239c.432-.001.786.064 1.062.195.288.131.493.31.613.538.133.228.169.486.11.774-.071.384-.251.75-.538 1.1a5.145 5.145 0 01-1.096.975 7.627 7.627 0 01-1.42.742 8.093 8.093 0 01-1.619.455l.088-.685a17.01 17.01 0 011.566-.004c.492.022.925.075 1.297.158.372.083.654.22.847.411.204.18.3.42.289.72-.023.48-.19.96-.501 1.441-.299.469-.7.896-1.203 1.282a6.669 6.669 0 01-1.636.94 4.892 4.892 0 01-1.781.348zm8.895-.134c-.552.001-1.002-.13-1.351-.392-.336-.263-.571-.629-.704-1.096-.121-.468-.122-1.008-.004-1.62a6.573 6.573 0 01.591-1.73 8.778 8.778 0 011.094-1.66 8.63 8.63 0 011.419-1.39 6.812 6.812 0 011.654-.958 4.851 4.851 0 011.763-.347c.276-.001.492.07.649.214.156.143.205.359.145.647a.684.684 0 01-.197.379c-.108.096-.264.157-.468.181a5.606 5.606 0 00-2.338.907 6.867 6.867 0 00-1.778 1.751 5.773 5.773 0 00-.931 2.127 4.663 4.663 0 00-.106.954c0 .276.061.636.182 1.08l-.687-1.24c.217.275.409.454.578.538.18.084.432.125.756.124.768-.002 1.547-.497 2.337-1.483.79-.986 1.518-2.422 2.186-4.308.084-.229.197-.403.341-.523a.814.814 0 01.54-.2c.276 0 .486.119.631.358.156.228.223.522.199.882a33.16 33.16 0 00-.067 2.052c.013.6.08 1.164.202 1.691.133.528.362 1.073.687 1.636.072.12.103.258.091.414a.881.881 0 01-.125.45.985.985 0 01-.305.361.736.736 0 01-.432.127.766.766 0 01-.432-.106.93.93 0 01-.253-.306 8.258 8.258 0 01-.452-.988 7.033 7.033 0 01-.327-1.187 9.206 9.206 0 01-.093-1.602c.011-.612.069-1.338.175-2.179l.648-.02c-.512 1.586-1.11 2.854-1.792 3.804-.669.95-1.358 1.63-2.065 2.04-.707.41-1.361.616-1.961.618zm9.222-7.3c-.276.001-.493-.082-.649-.25a.63.63 0 01-.145-.575.69.69 0 01.215-.343c.108-.096.3-.18.575-.253.432-.122 1.008-.231 1.728-.33a19.899 19.899 0 012.555-.15c.504-.002.966.008 1.386.031.433.01.907.051 1.423.122.408.047.72.142.936.285.229.144.325.305.289.485a.806.806 0 01-.161.36.756.756 0 01-.323.236c-.132.06-.3.09-.504.091-.252.001-.546-.01-.882-.033a127.42 127.42 0 00-1.08-.069 11.955 11.955 0 00-1.152-.05c-.828.002-1.494.04-1.998.113-.504.062-.924.135-1.26.22-.336.073-.653.11-.953.11zm2.625 7.301a.649.649 0 01-.594-.322c-.121-.216-.205-.492-.254-.828a7.141 7.141 0 01-.002-1.025c.035-.445.094-.925.176-1.441.083-.528.172-1.039.267-1.53.131-.661.243-1.244.338-1.748.107-.516.19-.942.25-1.279l1.619-.112-.178.774c-.059.3-.125.643-.196 1.027a65.38 65.38 0 01-.231 1.152c-.071.385-.143.757-.214 1.117-.118.6-.195 1.105-.231 1.513a9.22 9.22 0 00-.015.972c.012.252.025.462.037.63.012.156.007.3-.017.432a.964.964 0 01-.143.36.679.679 0 01-.27.217.695.695 0 01-.342.091zm8.828-.062c-.744.002-1.368-.098-1.873-.3-.492-.215-.871-.508-1.136-.879a3.08 3.08 0 01-.507-1.33 5.27 5.27 0 01.087-1.657 6.698 6.698 0 01.68-1.766 7.48 7.48 0 011.238-1.641 6.112 6.112 0 011.672-1.175 4.475 4.475 0 011.961-.456c.636-.002 1.158.099 1.567.301.42.203.709.502.865.898.169.395.194.893.076 1.494-.095.492-.292.93-.591 1.315a3.89 3.89 0 01-1.096.958 5.901 5.901 0 01-1.457.598 6.97 6.97 0 01-1.692.203c-.816.002-1.362-.092-1.638-.283-.265-.192-.373-.407-.326-.647.024-.145.078-.247.162-.307.084-.072.215-.109.395-.11.132 0 .288.024.469.072.192.035.474.052.846.051a4.88 4.88 0 001.619-.257c.492-.17.893-.398 1.205-.687.311-.301.508-.644.591-1.028.072-.36.023-.63-.145-.81-.157-.18-.469-.268-.937-.267a2.98 2.98 0 00-1.349.328c-.42.205-.815.489-1.186.85a5.279 5.279 0 00-1.434 2.722 3.04 3.04 0 00-.016 1.188c.073.348.253.635.542.862.3.215.727.322 1.279.32.624-.001 1.158-.08 1.601-.238a5.16 5.16 0 001.151-.58c.311-.216.575-.403.791-.56.215-.156.407-.235.575-.236.204 0 .348.078.433.233.096.144.12.336.073.576-.048.24-.209.493-.484.758a4.66 4.66 0 01-1.043.723 6.747 6.747 0 01-1.403.562 6.148 6.148 0 01-1.565.202zm6.218.018a.501.501 0 01-.396-.16.739.739 0 01-.163-.396 1.17 1.17 0 01.017-.54c.047-.216.161-.505.34-.865.191-.373.43-.788.717-1.245.287-.468.586-.937.897-1.406.335-.493.676-.98 1.023-1.461.359-.493.7-.932 1.023-1.317.323-.397.592-.71.808-.938.335-.337.653-.584.952-.741.312-.17.624-.254.936-.255.288 0 .486.1.595.304.108.192.192.438.253.738.085.48.164 1.061.238 1.745.085.672.189 1.307.31 1.907.097.504.188.935.273 1.295.097.36.187.666.272.917.096.252.187.468.271.648.085.155.151.293.199.413.048.12.067.246.055.378a1.045 1.045 0 01-.143.45.848.848 0 01-.323.325.705.705 0 01-.414.127c-.228.001-.432-.106-.613-.322-.168-.227-.319-.533-.452-.917a13.957 13.957 0 01-.363-1.24l-.236-1.098a52.603 52.603 0 01-.475-3.095c-.049-.503-.08-.923-.092-1.26l.36.144c-.335.313-.7.71-1.095 1.191-.383.47-.784.992-1.203 1.57a42.835 42.835 0 00-1.202 1.803 29.63 29.63 0 00-1.058 1.875c-.263.469-.49.824-.682 1.064-.179.24-.389.361-.629.362zm12.127-.053c-.408 0-.732-.094-.973-.286a1.69 1.69 0 01-.506-.754 3.305 3.305 0 01-.164-1.044c.011-.384.053-.756.124-1.116.071-.312.166-.684.285-1.117a71.872 71.872 0 01.877-2.667c.155-.408.28-.726.376-.954a8.91 8.91 0 01.411-.974c.132-.228.288-.343.468-.343.156 0 .3.053.432.16a.924.924 0 01.289.414.963.963 0 01.055.558 5.621 5.621 0 01-.25.828c-.131.36-.28.763-.447 1.208-.167.444-.329.895-.484 1.351a8.995 8.995 0 00-.339 1.207 6.827 6.827 0 00-.142.937c-.023.288-.011.528.038.72.048.18.15.269.306.269.384-.002.869-.345 1.456-1.03.599-.686 1.262-1.63 1.992-2.833.335-.529.628-1.021.879-1.478.251-.457.472-.853.663-1.19.191-.349.377-.62.556-.812.18-.192.36-.289.54-.29.276 0 .474.107.594.323.133.204.193.48.182.827.001.312-.01.697-.033 1.153l-.033 1.404c-.011.468-.01.906.003 1.314.037.696.104 1.265.201 1.71.109.43.206.779.291 1.042.084.264.121.48.109.648a.883.883 0 01-.125.378.968.968 0 01-.27.271.631.631 0 01-.359.11c-.42 0-.721-.275-.902-.826-.181-.552-.321-1.29-.419-2.213-.025-.432-.05-.894-.075-1.386a30.262 30.262 0 01-.003-1.476c.023-.492.046-.948.069-1.368l.522.178c-.203.421-.442.884-.717 1.389a45.388 45.388 0 01-1.13 1.929 18.48 18.48 0 01-1.328 1.858 8.221 8.221 0 01-1.49 1.426c-.504.362-1.013.543-1.529.545zM97.095 30.629c-.792.002-1.417-.098-1.873-.3-.456-.203-.787-.49-.992-.862-.193-.371-.296-.803-.309-1.295a7.964 7.964 0 01.177-1.62c.118-.6.28-1.22.482-1.856.214-.648.465-1.315.751-2 .18-.408.34-.72.484-.937.144-.217.306-.325.486-.326a.77.77 0 01.612.268c.157.168.2.402.128.702-.036.18-.137.469-.304.865a34.39 34.39 0 00-.537 1.496 17.75 17.75 0 00-.553 2.125c-.107.529-.124.96-.052 1.296.085.336.272.582.56.737.3.155.72.232 1.26.23a64.4 64.4 0 001.332-.022c.552-.025 1.146-.051 1.782-.077l1.872-.078c.624-.037 1.17-.075 1.638-.112.48-.05.828-.093 1.043-.13.156-.024.294-.072.414-.145.12-.084.204-.222.251-.414a11.42 11.42 0 00.266-2.035c.034-.66.027-1.266-.022-1.818a14.97 14.97 0 00-.147-1.386c-.049-.383-.067-.653-.056-.81a.616.616 0 01.251-.468.748.748 0 01.486-.2c.276 0 .48.107.612.323.145.203.259.46.344.773.061.227.103.563.128 1.007.037.432.056.918.057 1.458.014.54-.003 1.08-.05 1.62a11.823 11.823 0 01-.177 1.44c-.142.697-.381 1.214-.717 1.55-.323.326-.82.543-1.492.653a16 16 0 01-1.116.111 153 153 0 01-1.728.078c-.648.037-1.308.063-1.98.077-.672.026-1.302.046-1.89.06-.575.014-1.05.02-1.421.022zm3.131-.477a.672.672 0 01-.397-.143.646.646 0 01-.235-.431 5.901 5.901 0 01-.002-1.134c.047-.468.106-.949.177-1.44.083-.505.166-.961.249-1.37.142-.72.303-1.357.482-1.909.178-.553.322-.937.429-1.153.072-.168.162-.3.269-.397a.585.585 0 01.432-.163c.156 0 .288.047.396.143a.81.81 0 01.235.377c.048.156.055.336.019.54a3.717 3.717 0 01-.178.612 41.54 41.54 0 00-.286.901c-.096.348-.185.733-.268 1.153-.071.336-.136.72-.195 1.152-.048.433-.089.87-.124 1.315-.035.432-.058.828-.069 1.188 0 .12-.06.24-.179.36a1.85 1.85 0 01-.378.29.788.788 0 01-.377.109zm16.25.456c-.36.001-.756-.105-1.189-.32a6.564 6.564 0 01-1.28-.896 11.751 11.751 0 01-1.136-1.185 6.896 6.896 0 01-.795-1.204 1.759 1.759 0 01-.235-.521 2.226 2.226 0 01-.019-.486 3.67 3.67 0 01.143-.324c.06-.12.138-.229.234-.325.143-.193.389-.451.736-.776a24.12 24.12 0 011.204-1.048c.467-.385.946-.74 1.437-1.066.504-.338.977-.615 1.421-.832.455-.218.845-.327 1.169-.328.132 0 .234.03.306.09.084.06.144.137.18.233a.587.587 0 01.037.288c-.011.264-.185.516-.52.757a9.637 9.637 0 01-1.079.67 21 21 0 00-1.815 1.139c-.528.373-.953.705-1.276.994-.312.288-.473.493-.485.613-.024.096.013.24.109.432.096.191.247.413.452.664.216.252.475.509.775.772.313.263.661.514 1.046.753.228.143.45.28.667.412.228.12.408.245.541.377.144.12.21.257.198.413a.753.753 0 01-.125.36.71.71 0 01-.305.253.875.875 0 01-.396.091zm-5.994 0c-.312 0-.522-.155-.631-.466-.109-.324-.14-.786-.093-1.386.059-.612.171-1.35.337-2.215.071-.36.155-.739.25-1.135l.321-1.189c.107-.408.196-.804.268-1.188.023-.096.041-.193.053-.289a3.04 3.04 0 00.053-.324 2.15 2.15 0 01.197-.594c.084-.157.179-.277.287-.361a.578.578 0 01.36-.145c.276-.001.492.124.649.376.168.24.205.581.11 1.026-.059.3-.155.672-.286 1.116-.119.433-.244.877-.375 1.334-.131.456-.232.858-.303 1.206a34.11 34.11 0 00-.249 1.675 20.7 20.7 0 00-.087 1.224c-.011.312-.035.529-.071.649a.817.817 0 01-.161.378.675.675 0 01-.269.217.669.669 0 01-.36.09zm12.858-.002c-.984.003-1.795-.21-2.432-.64a3.318 3.318 0 01-1.299-1.743c-.23-.743-.256-1.59-.078-2.538.131-.672.357-1.26.68-1.766.335-.517.706-.95 1.113-1.299.42-.35.839-.608 1.259-.777.419-.182.779-.273 1.079-.274a.85.85 0 01.324.053.406.406 0 01.217.18c.06.072.078.174.054.306a2.2 2.2 0 01-.286.666c-.132.193-.377.367-.737.525a5.067 5.067 0 00-1.097.687c-.287.24-.52.523-.7.848-.179.312-.304.69-.375 1.135-.19.973-.075 1.752.347 2.339.421.575 1.064.86 1.928.858.84-.002 1.571-.304 2.194-.906.634-.614 1.047-1.425 1.236-2.434.19-.924.129-1.644-.184-2.16-.313-.526-.83-.789-1.55-.787-.372.001-.69.074-.954.22a6.61 6.61 0 00-.826.578c-.216.18-.39.343-.521.487a3.127 3.127 0 01-.359.343.615.615 0 01-.378.11.505.505 0 01-.397-.162c-.084-.12-.102-.305-.055-.557.048-.277.185-.559.412-.848.24-.288.527-.553.863-.794a4.547 4.547 0 011.114-.598 3.183 3.183 0 011.17-.237c.864-.002 1.566.2 2.107.606.541.394.908.945 1.102 1.653.193.695.195 1.5.005 2.412-.166.9-.488 1.693-.967 2.379a5.106 5.106 0 01-1.761 1.57 4.632 4.632 0 01-2.248.565zm6.416-.018a.501.501 0 01-.396-.161.746.746 0 01-.163-.396 1.184 1.184 0 01.017-.54c.047-.216.161-.504.34-.865.191-.372.43-.787.717-1.244.287-.469.586-.938.897-1.407.335-.493.676-.98 1.023-1.46.359-.494.7-.933 1.023-1.318.323-.396.593-.71.808-.938.335-.337.653-.584.953-.74.311-.17.623-.254.935-.255.288-.001.486.1.595.304.108.191.193.437.253.737.061.312.116.678.165 1.098.049.42.103.851.164 1.295.061.432.134.852.219 1.26.097.503.188.935.273 1.295.097.36.187.665.272.917.096.252.187.467.271.647.085.156.151.294.199.413.048.12.067.246.055.378a1.044 1.044 0 01-.143.45.841.841 0 01-.323.326.706.706 0 01-.414.127c-.228 0-.432-.107-.613-.322-.168-.228-.319-.533-.452-.917a13.977 13.977 0 01-.362-1.24c-.061-.277-.14-.642-.237-1.098-.085-.468-.17-.972-.255-1.512a49.456 49.456 0 01-.219-1.583 21.46 21.46 0 01-.093-1.26l.36.143c-.335.313-.7.71-1.095 1.192a35 35 0 00-1.203 1.57 42.84 42.84 0 00-1.202 1.803c-.383.625-.735 1.25-1.058 1.875-.263.469-.49.823-.682 1.064-.179.24-.389.36-.629.362zm12.792-.038c-.564.002-1.026-.135-1.386-.41-.361-.275-.608-.652-.741-1.132-.133-.491-.14-1.061-.022-1.71l.445-2.305c.143-.744.261-1.38.356-1.909.107-.528.178-.876.214-1.044.024-.145.071-.277.143-.397.084-.12.186-.216.306-.289a.718.718 0 01.377-.109c.276 0 .481.137.613.412.145.276.187.594.128.954-.071.336-.172.738-.303 1.207a16.78 16.78 0 00-.285 1.333l-.143.576c-.047.228-.101.462-.16.703l-.125.594c-.131.636-.13 1.134.003 1.494.133.36.403.539.811.537.228 0 .48-.06.756-.182.288-.12.563-.277.827-.47a3.8 3.8 0 00.664-.65c.18-.229.269-.445.269-.649.011-.312-.073-.564-.254-.755-.168-.192-.414-.347-.739-.466a3.976 3.976 0 00-.702-.232 14.986 14.986 0 00-.919-.195 6.811 6.811 0 00-.936-.142l.304-1.17c.431-.074.917-.177 1.457-.31a28.513 28.513 0 001.709-.474 38.5 38.5 0 001.691-.563 15.493 15.493 0 001.618-.67c.48-.23.887-.423 1.223-.58.348-.169.629-.254.845-.254.372-.001.655.124.847.375.205.24.265.563.182.972-.083.384-.166.762-.249 1.134-.071.36-.149.733-.232 1.117a58.303 58.303 0 00-.391 2.36c-.059.431-.1.827-.123 1.188 0 .24-.005.504-.016.792 0 .276-.011.48-.035.612a.829.829 0 01-.161.36.658.658 0 01-.288.217.73.73 0 01-.36.091c-.252 0-.444-.119-.576-.358a2.24 2.24 0 01-.2-.9c-.002-.6.033-1.2.104-1.8.07-.612.165-1.23.284-1.855.059-.264.119-.558.178-.882.071-.325.142-.643.214-.955.071-.312.13-.588.178-.828l.125-.54.361.376a11.8 11.8 0 01-1.079.525c-.432.181-.923.369-1.475.563-.552.181-1.127.363-1.727.545-.599.181-1.205.351-1.817.509-.599.146-1.175.261-1.727.347l.179-.648a7.66 7.66 0 01.432-.038c.203-.024.437-.037.701-.038.144 0 .342.023.595.07.264.048.534.125.81.232.288.107.559.256.811.448.264.179.469.406.614.682.156.275.229.6.218.971-.023.468-.184.919-.483 1.352a4.776 4.776 0 01-1.096 1.155 6.217 6.217 0 01-1.42.814c-.504.194-.978.29-1.422.292zM95.761 46.651c-.552.002-1.002-.13-1.35-.392-.337-.263-.572-.628-.705-1.096-.121-.468-.122-1.008-.004-1.62a6.571 6.571 0 01.59-1.73 8.823 8.823 0 011.095-1.659c.431-.53.904-.993 1.42-1.39a6.803 6.803 0 011.653-.959 4.85 4.85 0 011.763-.347c.276 0 .493.07.649.214.156.144.205.36.145.648a.678.678 0 01-.197.378c-.108.096-.264.157-.468.181a5.603 5.603 0 00-2.338.907 6.86 6.86 0 00-1.778 1.752 5.77 5.77 0 00-.931 2.126 4.74 4.74 0 00-.106.955c0 .276.061.635.182 1.08l-.686-1.24c.216.274.409.454.577.537.18.084.432.125.756.124.768-.002 1.547-.496 2.337-1.483.79-.986 1.519-2.422 2.186-4.308.084-.228.198-.403.341-.523a.814.814 0 01.54-.2c.276 0 .486.119.631.358.156.228.223.522.2.882a32.45 32.45 0 00-.068 2.052c.013.6.08 1.164.202 1.692.133.527.362 1.072.687 1.636a.68.68 0 01.091.413.882.882 0 01-.125.45.985.985 0 01-.305.362.736.736 0 01-.432.127.766.766 0 01-.432-.107.93.93 0 01-.253-.305 8.418 8.418 0 01-.452-.989 7.035 7.035 0 01-.327-1.187 9.306 9.306 0 01-.093-1.602 20.7 20.7 0 01.175-2.178l.648-.02c-.393 1.201-.829 2.216-1.307 3.046-.478.817-.98 1.479-1.508 1.984-.515.494-1.03.855-1.545 1.085-.516.23-1.002.345-1.458.346zm10.083-.012a.74.74 0 01-.667-.376c-.157-.251-.253-.599-.29-1.043-.025-.456.022-.99.14-1.602.095-.42.197-.775.304-1.063.119-.288.245-.517.376-.685.144-.18.294-.307.45-.38.131-.072.317-.114.557-.127.24-.025.492-.038.756-.038.876-.003 1.74-.047 2.592-.134a13.1 13.1 0 002.537-.547l.326 1.24a10.34 10.34 0 01-2.014.547c-.72.122-1.452.208-2.196.258-.732.038-1.446.058-2.142.06l-1.044-.159c.107-.48.214-.972.321-1.477a82.62 82.62 0 00.303-1.494c.107-.493.202-.943.285-1.351a1.5 1.5 0 01.286-.703c.144-.18.306-.271.486-.271.3-.001.522.118.666.358.145.227.164.593.057 1.097-.048.264-.119.583-.214.955s-.197.763-.304 1.17c-.095.41-.19.8-.285 1.172-.083.36-.149.66-.196.9a25.69 25.69 0 00-.32 1.873c-.059.54-.112.949-.16 1.225a.749.749 0 01-.233.414.493.493 0 01-.377.181zm6.21-.018c-.3.001-.517-.172-.649-.52-.121-.347-.176-.821-.165-1.421.022-.612.105-1.285.247-2.017a53.69 53.69 0 01.624-2.738c.191-.684.364-1.225.519-1.621.095-.265.215-.499.358-.703.144-.205.318-.307.522-.308.264 0 .45.125.558.376.121.24.146.534.074.882-.083.432-.214.9-.393 1.405a12.126 12.126 0 00-.41 1.64c-.143.72-.243 1.374-.302 1.963a27.974 27.974 0 00-.087 1.458c-.011.396-.04.69-.088.882a.837.837 0 01-.287.523.786.786 0 01-.521.2zm4.561-.031c-.288 0-.504-.13-.649-.394-.132-.264-.181-.63-.146-1.098.012-.204.047-.486.106-.846s.131-.762.214-1.207l.249-1.368c.095-.457.178-.877.249-1.261.083-.384.148-.69.196-.919.119-.624.28-1.08.483-1.37.215-.3.527-.48.935-.542a12.42 12.42 0 011.224-.13 15.608 15.608 0 012.79.01c.504.035.882.1 1.134.195.144.06.246.15.307.27.06.107.078.227.054.36-.047.24-.197.414-.449.522a2.03 2.03 0 01-.809.165 5.9 5.9 0 01-.684-.034 9.99 9.99 0 00-.666-.052 9.543 9.543 0 00-.954-.033c-.48 0-.888.026-1.224.075a14.13 14.13 0 00-1.134.22l.881-.58c-.155.481-.31 1.016-.465 1.604a50.732 50.732 0 00-.463 2.162 25.788 25.788 0 00-.284 1.674 34.11 34.11 0 00-.159 1.315c-.036.36-.065.594-.089.702-.036.192-.113.33-.233.415a.645.645 0 01-.414.145zm5.863.019a.501.501 0 01-.396-.16.747.747 0 01-.163-.396 1.183 1.183 0 01.017-.54c.047-.217.161-.505.34-.865.191-.373.43-.788.717-1.245.287-.468.586-.937.897-1.406.335-.493.676-.98 1.023-1.461.359-.493.7-.932 1.023-1.317.323-.397.593-.71.808-.939.336-.337.653-.584.953-.74.311-.17.623-.254.935-.255.288-.001.486.1.595.304.108.192.193.438.253.737.061.312.116.678.165 1.098.049.42.104.852.165 1.295.06.432.133.852.218 1.26.097.504.188.935.273 1.295.097.36.188.666.272.917.097.252.187.468.271.647.085.156.151.294.199.414.049.12.067.246.055.378a1.044 1.044 0 01-.143.45.841.841 0 01-.323.325.706.706 0 01-.414.127c-.228 0-.432-.106-.613-.322-.168-.227-.319-.533-.452-.917a14.311 14.311 0 01-.362-1.24c-.061-.276-.14-.642-.237-1.098a65.25 65.25 0 01-.255-1.511 49.5 49.5 0 01-.219-1.584c-.049-.503-.08-.923-.093-1.26l.36.144c-.335.313-.7.71-1.095 1.19a35 35 0 00-1.203 1.57 42.78 42.78 0 00-1.202 1.804c-.383.625-.735 1.25-1.058 1.875-.263.469-.49.824-.682 1.064-.179.24-.389.361-.629.362zm12.127-.053c-.408 0-.732-.094-.973-.286a1.678 1.678 0 01-.505-.754 3.277 3.277 0 01-.165-1.044c.012-.384.053-.756.124-1.116a26.3 26.3 0 01.286-1.117c.131-.432.274-.883.429-1.351.155-.469.304-.907.447-1.316.155-.408.28-.726.376-.955.155-.42.292-.744.412-.973.131-.228.287-.343.467-.343.156 0 .3.053.432.16a.917.917 0 01.289.414.955.955 0 01.055.557 5.622 5.622 0 01-.25.83c-.131.36-.28.762-.447 1.207a44.76 44.76 0 00-.483 1.351 9.166 9.166 0 00-.34 1.207 6.98 6.98 0 00-.142.936c-.023.288-.01.528.038.72.048.18.151.27.307.27.383-.002.869-.345 1.455-1.03.599-.687 1.263-1.63 1.992-2.833a27.92 27.92 0 00.879-1.478c.251-.457.472-.854.663-1.19.192-.349.377-.62.557-.812.179-.192.359-.289.539-.29.276 0 .474.107.595.323.132.203.193.48.181.827.001.312-.01.696-.033 1.152l-.033 1.404c-.011.469-.01.907.003 1.314.037.696.105 1.266.202 1.71.108.432.205.78.29 1.043.084.264.121.48.109.648a.87.87 0 01-.125.378.98.98 0 01-.269.271.637.637 0 01-.36.109c-.276 0-.504-.125-.685-.376-.168-.252-.301-.605-.398-1.06-.097-.457-.176-.99-.238-1.602-.025-.432-.05-.894-.075-1.386a30.263 30.263 0 01-.003-1.476c.023-.492.046-.948.069-1.368l.523.178a75.56 75.56 0 01-.467.884c-.155.312-.346.667-.573 1.063-.215.385-.484.842-.807 1.37-.407.65-.85 1.27-1.328 1.859a8.259 8.259 0 01-1.491 1.426c-.503.361-1.013.543-1.529.544zm15.952-10.865c-.504.001-.93-.105-1.278-.32a2.203 2.203 0 01-.776-.826c-.169-.336-.247-.654-.236-.953.023-.325.113-.577.268-.757a.736.736 0 01.576-.272c.18 0 .312.101.396.305.097.192.199.407.308.647.096.228.223.425.379.593.168.167.421.25.757.25.228-.001.461-.068.701-.2.24-.145.456-.296.647-.452.264-.217.497-.398.701-.542.204-.157.408-.236.612-.236.144 0 .252.053.324.16.084.097.102.223.055.379-.06.216-.191.456-.395.72a3.639 3.639 0 01-.754.723 4.256 4.256 0 01-1.061.561 3.461 3.461 0 01-1.224.22zm-4.368 10.83c-.408.002-.732-.093-.973-.285a1.68 1.68 0 01-.505-.754 3.277 3.277 0 01-.165-1.044c.012-.384.053-.756.124-1.116.071-.312.166-.684.286-1.117.131-.432.274-.883.429-1.351.155-.468.304-.907.447-1.315.155-.409.28-.727.376-.956.155-.42.292-.744.412-.973.131-.228.287-.343.467-.343.156 0 .3.053.432.16a.923.923 0 01.289.414.963.963 0 01.055.558 5.622 5.622 0 01-.25.828c-.131.36-.28.763-.447 1.208-.167.444-.328.895-.483 1.351a9.005 9.005 0 00-.34 1.207 6.98 6.98 0 00-.142.937c-.023.288-.011.528.038.72.048.18.15.269.306.269.384-.002.87-.345 1.456-1.03.599-.686 1.263-1.63 1.992-2.833a27.92 27.92 0 00.879-1.478c.251-.457.472-.854.663-1.19.192-.349.377-.62.557-.812.179-.192.359-.289.539-.29.276 0 .474.107.595.323.132.204.193.48.181.828.001.312-.01.696-.033 1.152l-.033 1.404c-.011.468-.01.906.003 1.314.037.696.105 1.265.201 1.71.109.43.206.778.291 1.042.084.264.121.48.109.648a.883.883 0 01-.125.378.978.978 0 01-.269.271.637.637 0 01-.36.11c-.42 0-.721-.275-.902-.826-.181-.552-.321-1.29-.419-2.213-.025-.432-.05-.894-.075-1.386a30.262 30.262 0 01-.003-1.476c.023-.492.046-.948.069-1.368l.522.178c-.203.421-.442.884-.717 1.389a45.204 45.204 0 01-1.129 1.929c-.407.65-.85 1.268-1.328 1.858a8.258 8.258 0 01-1.491 1.426c-.503.362-1.013.543-1.529.545zm13.226-.074c-.888.003-1.621-.17-2.198-.516a2.885 2.885 0 01-1.191-1.472c-.217-.636-.243-1.367-.077-2.196a5.97 5.97 0 01.77-1.964 6.358 6.358 0 011.401-1.588 6.717 6.717 0 011.834-1.068 5.657 5.657 0 012.033-.384c.312 0 .588.047.828.142.24.083.414.215.523.394.12.168.151.378.091.63a1.043 1.043 0 01-.269.541.67.67 0 01-.467.181.548.548 0 01-.306-.07 4.04 4.04 0 00-.235-.144c-.072-.048-.198-.072-.378-.071a3.78 3.78 0 00-1.925.528 4.942 4.942 0 00-1.527 1.336 4.38 4.38 0 00-.806 1.748c-.083.505-.07.943.039 1.314.121.36.337.641.65.845.324.203.72.303 1.188.302.528-.002.948-.063 1.26-.184.312-.133.557-.277.737-.434a6.17 6.17 0 00.467-.415.548.548 0 01.414-.2c.228 0 .384.053.468.161.096.108.121.294.073.558-.083.396-.286.75-.61 1.064-.323.3-.73.536-1.222.705-.48.17-1.001.255-1.565.257zm12.203 0c-.36.001-.756-.105-1.189-.32a6.56 6.56 0 01-1.28-.897c-.409-.37-.788-.765-1.136-1.184a6.896 6.896 0 01-.795-1.204 1.76 1.76 0 01-.235-.521 2.165 2.165 0 01-.019-.486 3.41 3.41 0 01.143-.325c.06-.12.138-.228.233-.324.144-.193.389-.451.737-.776.347-.325.748-.674 1.203-1.048.468-.385.947-.74 1.438-1.066.503-.338.977-.615 1.42-.832.456-.218.846-.327 1.17-.328.132 0 .234.03.306.09.084.06.144.137.18.233a.587.587 0 01.037.288c-.012.264-.185.516-.52.757a9.638 9.638 0 01-1.079.67c-.683.386-1.288.765-1.816 1.139a14.71 14.71 0 00-1.275.993c-.312.29-.473.494-.485.614-.024.096.012.24.109.432.096.191.247.413.451.664.217.252.475.509.776.772a8.99 8.99 0 001.046.753c.228.143.45.28.666.412.229.12.409.245.541.377.145.12.211.257.199.413a.716.716 0 01-.43.613.875.875 0 01-.396.091zm-5.994 0c-.312 0-.523-.155-.631-.466-.109-.324-.14-.786-.093-1.386.058-.612.171-1.35.337-2.215a28.6 28.6 0 01.249-1.135l.322-1.189c.107-.408.196-.804.267-1.188.024-.097.042-.193.054-.289.023-.108.041-.216.053-.324.047-.24.113-.438.197-.594.083-.157.179-.277.287-.361a.578.578 0 01.36-.145c.276-.001.492.124.648.376.169.24.206.581.111 1.026-.06.3-.155.672-.286 1.116-.119.433-.244.877-.375 1.333-.131.457-.232.86-.303 1.207a34.11 34.11 0 00-.249 1.675c-.047.492-.076.9-.087 1.224-.011.312-.035.528-.071.648a.817.817 0 01-.161.379.683.683 0 01-.269.217.669.669 0 01-.36.09zm12.858-.002c-.984.003-1.795-.21-2.432-.64a3.325 3.325 0 01-1.3-1.743c-.229-.743-.255-1.59-.077-2.538.13-.672.357-1.26.68-1.766.335-.517.706-.95 1.113-1.299a4.77 4.77 0 011.259-.778c.419-.18.779-.272 1.079-.273a.83.83 0 01.324.053.4.4 0 01.216.18c.061.072.079.174.055.306-.059.24-.155.462-.286.666-.132.193-.378.367-.737.525a5.067 5.067 0 00-1.097.687c-.287.24-.521.523-.7.848a3.35 3.35 0 00-.376 1.135c-.189.973-.074 1.752.348 2.339.421.575 1.063.86 1.927.858.84-.002 1.572-.304 2.194-.906.635-.614 1.047-1.425 1.237-2.434.19-.924.129-1.644-.184-2.16-.314-.526-.83-.789-1.55-.787-.372.001-.69.074-.954.22a6.588 6.588 0 00-.826.578c-.216.18-.39.343-.521.487a3.04 3.04 0 01-.36.343.613.613 0 01-.377.11.503.503 0 01-.397-.162c-.084-.12-.102-.305-.055-.557.047-.277.185-.56.412-.848.24-.288.527-.553.862-.794a4.55 4.55 0 011.115-.597 3.18 3.18 0 011.17-.238c.864-.002 1.566.2 2.107.606.541.394.908.945 1.102 1.653.193.695.195 1.5.005 2.412-.166.9-.489 1.693-.967 2.379a5.124 5.124 0 01-1.761 1.57 4.632 4.632 0 01-2.248.565zm7.531-.058c-.288.001-.504-.13-.648-.394-.133-.264-.182-.63-.147-1.097.012-.205.047-.487.106-.847.06-.36.131-.762.214-1.206l.249-1.37c.095-.455.178-.876.249-1.26.083-.384.149-.69.196-.918.119-.625.28-1.081.483-1.37.215-.3.527-.481.935-.543a12.39 12.39 0 011.224-.13c.444-.036.882-.056 1.314-.057.324 0 .654.01.99.033.336.011.648.034.936.07.288.035.516.088.684.16a.57.57 0 01.307.269c.06.107.078.227.054.36-.047.24-.197.414-.448.523a2.038 2.038 0 01-.81.164c-.252 0-.48-.01-.684-.034a9.994 9.994 0 00-.666-.052 10.01 10.01 0 00-.954-.033c-.48.001-.888.026-1.224.075a14.13 14.13 0 00-1.134.22l.881-.579c-.095.312-.197.655-.304 1.027-.095.36-.196.768-.303 1.225-.107.444-.214.949-.321 1.513a25.788 25.788 0 00-.284 1.675 34.11 34.11 0 00-.159 1.314c-.036.36-.065.594-.089.702-.035.193-.113.33-.233.415a.646.646 0 01-.414.145zm10.908.004c-.984.003-1.795-.21-2.432-.64a3.324 3.324 0 01-1.299-1.743c-.23-.743-.256-1.589-.078-2.538a5.045 5.045 0 01.68-1.765c.335-.517.706-.95 1.114-1.3a4.76 4.76 0 011.258-.777c.42-.182.779-.273 1.079-.274a.85.85 0 01.324.053.4.4 0 01.217.18c.06.072.078.174.054.306-.059.24-.155.462-.286.666-.132.193-.377.368-.737.525a5.055 5.055 0 00-1.096.687 2.98 2.98 0 00-.701.848c-.179.312-.304.69-.375 1.135-.19.973-.074 1.752.347 2.339.421.575 1.064.86 1.928.858.84-.002 1.571-.304 2.194-.906.634-.614 1.047-1.425 1.237-2.434.19-.924.128-1.644-.185-2.16-.313-.526-.83-.789-1.55-.787-.372.002-.69.074-.953.22a6.52 6.52 0 00-.827.578 5.42 5.42 0 00-.521.487 3.04 3.04 0 01-.359.343.616.616 0 01-.378.11.501.501 0 01-.396-.162c-.085-.12-.103-.305-.056-.557.048-.276.185-.559.413-.848a4.56 4.56 0 01.862-.794 4.536 4.536 0 011.115-.597 3.174 3.174 0 011.169-.238c.864-.002 1.566.2 2.107.606.541.395.908.945 1.102 1.653.193.695.195 1.5.005 2.412-.166.9-.488 1.693-.967 2.379a5.112 5.112 0 01-1.76 1.57 4.639 4.639 0 01-2.249.565zm-96.697 16.265a.73.73 0 01-.703-.43c-.133-.3-.206-.665-.218-1.097 0-.216.005-.462.016-.738.011-.276.035-.558.07-.847.047-.288.089-.552.124-.792l.179-.81.25-.991c.095-.349.178-.667.249-.955.084-.3.143-.528.179-.684.024-.156-.013-.27-.109-.342-.096-.084-.264-.125-.504-.125-.192 0-.402.014-.63.038a9.947 9.947 0 00-.738.11 5.627 5.627 0 00-1.636.581c-.468.254-.731.542-.79.866-.06.277-.03.529.091.756.132.216.39.389.775.52.397.13.967.195 1.71.193.265 0 .529-.008.793-.02.264-.013.516-.032.755-.057.252-.036.462-.061.63-.074a3.08 3.08 0 01.324-.036c.3-.001.552.016.756.051.204.036.283.161.235.378-.035.24-.167.432-.395.577-.215.145-.503.247-.863.308a7.291 7.291 0 01-1.224.094l-1.854.005a4.896 4.896 0 01-1.8-.318c-.54-.215-.956-.52-1.244-.915-.277-.395-.368-.857-.273-1.385.07-.324.226-.66.465-1.01.252-.36.61-.697 1.078-1.01.48-.314 1.103-.568 1.87-.762a9.2 9.2 0 011.386-.274c.372-.037.744-.056 1.116-.057.468-.002.834.063 1.098.194.265.132.445.311.541.539.109.228.134.492.074.792a9.36 9.36 0 01-.232.918 71.6 71.6 0 00-.322 1.081c-.095.36-.178.685-.249.973-.06.288-.113.6-.16.937a13.067 13.067 0 00-.141 1.764c.001.264.008.546.02.846.025.288.025.486.002.594a.707.707 0 01-.234.433.67.67 0 01-.467.181zm-6.336 0c-.216.001-.384-.07-.505-.214a.666.666 0 01-.109-.522c.036-.132.126-.264.27-.397.143-.144.383-.3.718-.47a9.47 9.47 0 001.708-1.12 22.05 22.05 0 001.725-1.536l1.135.645c-.407.445-.85.884-1.33 1.318a19.57 19.57 0 01-1.4 1.156 9.31 9.31 0 01-1.259.832c-.383.205-.701.308-.953.309zm12.668-.072c-.48 0-.93-.046-1.35-.14a4.406 4.406 0 01-1.081-.43 2.145 2.145 0 01-.703-.645 1.29 1.29 0 01-.2-.81.79.79 0 01.197-.504c.131-.145.275-.217.431-.218.144 0 .27.072.379.215.12.132.264.294.433.485.18.18.427.34.739.484.312.13.744.196 1.296.194.804-.002 1.416-.148 1.835-.437.432-.302.647-.638.646-1.01.012-.204-.073-.378-.253-.522-.168-.155-.427-.286-.775-.393-.348-.12-.804-.22-1.369-.302-.456-.059-.75-.148-.882-.268a.555.555 0 01-.145-.467c.011-.192.131-.325.359-.397.228-.073.612-.158 1.151-.256.708-.122 1.272-.303 1.691-.545.432-.24.653-.53.664-.866.012-.324-.139-.57-.451-.736-.313-.18-.733-.268-1.261-.267-.6.002-1.098.082-1.493.239a4.73 4.73 0 00-.953.453c-.228.156-.408.235-.54.235a.359.359 0 01-.306-.143.536.536 0 01-.073-.342c.012-.216.107-.432.287-.649a3.02 3.02 0 01.755-.596c.323-.18.701-.32 1.133-.417.443-.11.923-.165 1.439-.166 1.056-.003 1.837.186 2.341.569.517.382.764.91.742 1.582-.023.372-.172.738-.448 1.1-.263.348-.658.649-1.186.903-.527.241-1.199.4-2.015.473l-.018-.27c.744-.002 1.35.075 1.818.23.48.142.829.369 1.046.68.228.3.331.677.308 1.133-.011.528-.214 1.009-.609 1.442-.383.421-.892.759-1.528 1.013a5.766 5.766 0 01-2.051.365zm8.728.046c-.564.002-1.027-.135-1.387-.41-.361-.275-.608-.652-.741-1.132-.133-.491-.14-1.061-.021-1.71.154-.804.302-1.573.445-2.305.142-.745.261-1.38.356-1.91.106-.527.178-.876.213-1.044a1.12 1.12 0 01.144-.396.99.99 0 01.305-.29.726.726 0 01.378-.108c.276-.001.48.136.613.412.144.276.187.593.128.954a20.57 20.57 0 01-.304 1.207 16.78 16.78 0 00-.285 1.332l-.143.577c-.047.228-.101.462-.16.702l-.125.595c-.13.636-.129 1.134.003 1.494.133.36.404.538.812.537a1.9 1.9 0 00.755-.182c.288-.12.564-.278.827-.47.264-.205.485-.422.665-.65.179-.229.269-.445.268-.65.012-.311-.073-.563-.253-.754-.169-.192-.415-.347-.739-.466a3.982 3.982 0 00-.703-.232 15.11 15.11 0 00-.918-.195 6.802 6.802 0 00-.937-.142l.304-1.17c.432-.074.918-.177 1.457-.31a28.382 28.382 0 001.709-.474c.588-.182 1.151-.37 1.691-.563a15.516 15.516 0 001.619-.67c.479-.23.887-.423 1.222-.58.348-.17.63-.254.846-.255.372 0 .654.124.847.376.204.24.265.563.182.971-.083.385-.167.763-.25 1.135-.071.36-.148.733-.231 1.117a50.601 50.601 0 00-.391 2.359 16.77 16.77 0 00-.124 1.188c.001.24-.005.504-.016.792.001.276-.011.48-.035.612a.806.806 0 01-.161.361.66.66 0 01-.287.217.73.73 0 01-.36.09c-.252.002-.445-.118-.577-.357a2.257 2.257 0 01-.2-.9c-.001-.6.033-1.2.104-1.8.071-.612.165-1.23.284-1.855a20.7 20.7 0 00.178-.883c.071-.324.143-.642.214-.954.071-.312.131-.589.178-.829.06-.252.101-.432.125-.54l.361.377a11.55 11.55 0 01-1.079.525 26.28 26.28 0 01-1.475.562 74.59 74.59 0 01-1.727.545c-.599.182-1.205.352-1.816.51-.6.145-1.176.261-1.728.347l.179-.649a7.66 7.66 0 01.432-.037 6.08 6.08 0 01.702-.038c.144 0 .342.023.594.07.264.047.534.125.81.232.289.107.559.256.811.448.265.179.469.406.614.682.156.275.229.599.218.971-.023.468-.184.919-.483 1.351a4.738 4.738 0 01-1.096 1.156 6.196 6.196 0 01-1.42.814c-.503.193-.977.29-1.421.292zm17.609-.07c-.36.002-.756-.105-1.189-.32a6.56 6.56 0 01-1.28-.896 11.642 11.642 0 01-1.136-1.185 6.9 6.9 0 01-.795-1.204 1.761 1.761 0 01-.235-.52 2.166 2.166 0 01-.019-.487 3.41 3.41 0 01.143-.324c.06-.12.138-.229.233-.325.144-.192.389-.451.737-.776.347-.325.748-.674 1.203-1.048.468-.385.947-.74 1.438-1.066.503-.337.977-.615 1.42-.832.456-.217.846-.326 1.17-.327.132 0 .234.029.306.089.084.06.144.137.18.233a.587.587 0 01.037.288c-.012.264-.185.517-.52.758a9.77 9.77 0 01-1.079.669c-.683.386-1.288.766-1.816 1.139a14.73 14.73 0 00-1.275.994c-.312.289-.473.493-.485.613-.024.12.055.33.235.63.181.287.458.616.83.987.373.359.812.694 1.317 1.004.228.144.45.28.667.412.228.12.408.245.54.377.145.12.211.257.199.413a.716.716 0 01-.43.613.875.875 0 01-.396.091zm-5.994 0c-.312.001-.523-.154-.631-.466-.109-.324-.14-.786-.093-1.386.058-.612.171-1.35.337-2.215.071-.36.154-.738.249-1.135l.322-1.188c.107-.409.196-.805.267-1.19.024-.095.042-.191.054-.287.023-.108.041-.217.053-.325.047-.24.113-.438.197-.594.083-.156.179-.277.287-.361a.578.578 0 01.36-.145c.276 0 .492.124.648.376.169.24.206.581.111 1.026-.06.3-.155.672-.286 1.116-.119.433-.244.877-.375 1.334-.131.456-.232.858-.303 1.207-.107.624-.19 1.182-.249 1.674-.047.492-.076.9-.087 1.224-.011.313-.035.529-.071.649a.816.816 0 01-.161.378.683.683 0 01-.269.217.669.669 0 01-.36.091zm10.697-.031c-.552.001-1.002-.13-1.35-.392-.337-.263-.572-.629-.705-1.096-.121-.468-.122-1.008-.003-1.62a6.533 6.533 0 01.59-1.73 8.874 8.874 0 011.094-1.66 8.7 8.7 0 011.419-1.39 6.83 6.83 0 011.654-.958 4.854 4.854 0 011.764-.347c.276-.001.492.07.648.214.156.143.205.36.145.647a.678.678 0 01-.197.379c-.108.096-.263.157-.467.181a5.602 5.602 0 00-2.338.907 6.87 6.87 0 00-1.779 1.751 5.772 5.772 0 00-.931 2.127 4.733 4.733 0 00-.106.954c.001.276.061.636.182 1.08l-.686-1.24c.216.275.409.455.577.538.18.084.432.125.756.124.768-.002 1.547-.496 2.337-1.483.79-.986 1.519-2.422 2.187-4.308.083-.229.197-.403.34-.523a.813.813 0 01.54-.2c.276 0 .486.119.631.358.156.228.223.522.2.882-.047.756-.069 1.44-.068 2.052.013.6.081 1.164.202 1.691.133.528.362 1.073.687 1.636.073.12.103.258.091.414a.872.872 0 01-.125.45.976.976 0 01-.305.361.736.736 0 01-.432.128.765.765 0 01-.432-.107.942.942 0 01-.253-.305 7.134 7.134 0 01-.778-2.176 9.297 9.297 0 01-.094-1.602c.011-.612.069-1.338.176-2.178l.647-.02c-.393 1.2-.829 2.216-1.307 3.046-.478.817-.981 1.479-1.508 1.984-.515.494-1.03.855-1.545 1.084-.516.23-1.002.346-1.458.347zm18.449-.072c-1.368.004-2.347-.15-2.935-.46-.589-.31-.842-.67-.759-1.077a.61.61 0 01.216-.415c.119-.096.281-.145.485-.145.168 0 .324.029.468.088.157.048.337.107.541.179.216.059.486.118.81.177.324.047.738.07 1.242.069a8.966 8.966 0 001.332-.094 4.655 4.655 0 001.043-.31c.3-.144.552-.3.755-.47 0-.336-.145-.635-.433-.898a4.604 4.604 0 00-1.082-.735c-.433-.227-.889-.46-1.37-.698a10.23 10.23 0 01-1.333-.788 3.275 3.275 0 01-.921-1.041c-.204-.396-.253-.87-.147-1.422.119-.6.4-1.147.843-1.64a7.827 7.827 0 011.617-1.355 11.91 11.91 0 011.978-1.032 12.43 12.43 0 011.996-.654c.648-.158 1.194-.237 1.638-.239.216 0 .39.035.522.107a.491.491 0 01.253.287.69.69 0 01.019.414.836.836 0 01-.287.505c-.156.132-.396.229-.72.29-1.223.232-2.285.535-3.184.91-.899.374-1.612.79-2.139 1.248-.515.457-.82.92-.915 1.388-.059.3.037.576.29.827.252.252.595.497 1.027.735.445.227.913.472 1.406.734.492.25.949.532 1.37.842.42.299.745.646.974 1.041.241.396.308.851.201 1.368a2.017 2.017 0 01-.556 1.028 3.1 3.1 0 01-1.06.705 6.32 6.32 0 01-1.475.4c-.54.085-1.11.13-1.71.13zm16.233-.047c-.264 0-.457-.107-.577-.323-.121-.228-.229-.605-.327-1.133a14.329 14.329 0 01-.201-1.601 35.605 35.605 0 01-.058-2.016c.01-.72.039-1.398.085-2.034.071-.78.123-1.447.158-1.999.047-.552.058-.99.033-1.314-.013-.336-.067-.582-.164-.738-.096-.155-.252-.233-.468-.232-.324 0-.737.26-1.24.777-.491.506-1.03 1.228-1.616 2.165-.586.938-1.177 2.062-1.774 3.371a40.966 40.966 0 00-1.683 4.343 1.45 1.45 0 01-.323.56.672.672 0 01-.467.18c-.276.002-.475-.088-.595-.268-.12-.191-.133-.527-.038-1.008a13.14 13.14 0 01.607-2.071c.275-.697.573-1.394.896-2.09.322-.71.627-1.419.913-2.128.299-.709.543-1.417.734-2.126.047-.216.125-.384.233-.504a.562.562 0 01.431-.2c.168 0 .318.047.45.143a.95.95 0 01.343.449l-.683.2c.753-1.13 1.442-1.966 2.064-2.508.635-.542 1.271-.814 1.907-.816.696-.002 1.188.2 1.477.608.289.407.446 1.03.472 1.87.026.84-.02 1.933-.137 3.277-.094.996-.122 1.855-.084 2.574a27.2 27.2 0 00.148 1.836l.182 1.26c.049.335.05.63.002.881a.73.73 0 01-.251.451.647.647 0 01-.449.163zm-8.936-3.502c-.264 0-.45-.06-.558-.179-.109-.12-.139-.27-.091-.45a.608.608 0 01.197-.378c.12-.109.305-.205.557-.29 1.391-.496 2.944-.86 4.66-1.093a42.297 42.297 0 015.525-.358c.42-.002.69.058.81.177.133.12.175.294.128.522-.048.24-.203.444-.467.613-.264.157-.612.236-1.044.237-1.38.004-2.549.05-3.509.136-.948.075-1.746.174-2.394.295a18.82 18.82 0 00-1.655.347c-.444.121-.833.225-1.169.31a4.49 4.49 0 01-.99.11zm13.654 3.578c-.324 0-.528-.137-.613-.412-.084-.276-.001-.715.249-1.315.347-.841.777-1.737 1.291-2.686a29.272 29.272 0 011.757-2.867 34.301 34.301 0 012.172-2.797 22.663 22.663 0 012.461-2.455c.288-.24.515-.397.683-.47.18-.072.342-.109.486-.11.192 0 .342.066.45.197.109.132.145.318.109.558a1.37 1.37 0 01-.125.415c-.059.12-.161.252-.305.397a26.09 26.09 0 01-.611.541 22.24 22.24 0 00-2.765 2.852 26.263 26.263 0 00-2.333 3.373 24.093 24.093 0 00-1.756 3.641c-.179.457-.353.757-.52.902a.893.893 0 01-.63.236zm2.202-5.587a.625.625 0 01-.432-.142.95.95 0 01-.253-.378 25.525 25.525 0 00-.724-1.654c-.217-.455-.421-.85-.614-1.186l-.56-1.006a21.235 21.235 0 01-.525-1.133 6.461 6.461 0 01-.235-.755 1.454 1.454 0 01-.002-.558.892.892 0 01.233-.487c.12-.12.276-.18.468-.181.18 0 .33.053.45.16.132.096.247.264.343.504.169.491.332.917.489 1.276.169.348.332.671.488.97.169.288.337.588.506.9.169.299.338.64.506 1.024.169.383.338.85.507 1.402a.926.926 0 01.037.378 1.18 1.18 0 01-.071.414.709.709 0 01-.233.325.554.554 0 01-.378.127zm14.796 5.537c-.324.001-.528-.136-.613-.412-.084-.276-.001-.714.249-1.315.347-.841.777-1.736 1.291-2.686a29.285 29.285 0 011.757-2.867 34.317 34.317 0 012.172-2.796 22.645 22.645 0 012.461-2.455c.288-.241.515-.398.683-.47.18-.073.342-.11.486-.11.192 0 .342.065.45.197.109.132.145.317.109.558a1.37 1.37 0 01-.125.414c-.059.12-.161.252-.305.397a30.83 30.83 0 01-.611.542 22.226 22.226 0 00-2.765 2.852 26.262 26.262 0 00-2.333 3.373 24.093 24.093 0 00-1.756 3.64c-.179.457-.353.758-.52.902a.892.892 0 01-.63.236zm2.202-5.587a.624.624 0 01-.432-.142.95.95 0 01-.253-.377 25.046 25.046 0 00-.724-1.654 17.534 17.534 0 00-.614-1.187l-.56-1.006a21.204 21.204 0 01-.525-1.132 6.455 6.455 0 01-.235-.756 1.454 1.454 0 01-.002-.558.893.893 0 01.233-.486.638.638 0 01.468-.182c.18 0 .33.053.45.16.132.096.247.264.343.504.169.491.332.917.489 1.276.169.348.332.672.488.971.169.288.337.587.506.899.169.3.338.64.506 1.024.169.384.338.851.507 1.403a.924.924 0 01.037.378 1.18 1.18 0 01-.071.414.709.709 0 01-.233.324.554.554 0 01-.378.127zm11.434 5.421c-.9.003-1.669-.133-2.305-.407-.625-.286-1.118-.68-1.479-1.184a4.077 4.077 0 01-.688-1.78 6.61 6.61 0 01.068-2.16c.118-.552.285-1.105.5-1.657.215-.553.466-1.082.753-1.587.298-.505.609-.98.932-1.424a7.35 7.35 0 01.88-.993c.312-.277.629-.416.953-.417.156 0 .277.041.361.125.096.072.138.186.126.342.001.144-.077.324-.232.54a15.959 15.959 0 00-1.131 1.57 12.814 12.814 0 00-.95 1.749 8.505 8.505 0 00-.608 1.873c-.155.769-.141 1.447.04 2.034.181.576.506 1.025.975 1.347.481.323 1.081.483 1.801.481.624-.002 1.14-.045 1.548-.13.42-.086.761-.189 1.025-.31.276-.12.498-.223.666-.307.179-.085.329-.127.449-.128.216 0 .36.065.433.197.072.12.09.282.055.486-.048.276-.245.547-.592.812-.336.265-.803.488-1.403.67-.588.17-1.313.256-2.177.258zm-2.783-5.05c-.276.061-.486.062-.63.002a.428.428 0 01-.253-.287 1.305 1.305 0 01-.001-.432c.048-.216.191-.403.431-.56.239-.156.557-.271.953-.344.408-.073.852-.14 1.332-.202a32.23 32.23 0 011.457-.184c.48-.062.936-.111 1.368-.148.432-.05.822-.08 1.17-.094.36 0 .6.059.72.178.12.108.163.264.127.468-.071.312-.263.535-.574.667-.312.121-.654.2-1.026.237a19.53 19.53 0 00-1.35.13c-.456.05-.911.105-1.367.166-.456.062-.888.129-1.296.202-.396.061-.75.128-1.061.201zm.689-5.744c-.348.001-.6-.07-.756-.214a.528.528 0 01-.163-.54.765.765 0 01.197-.378.823.823 0 01.467-.271c.816-.17 1.691-.305 2.627-.404a58.795 58.795 0 012.754-.224c.9-.05 1.68-.077 2.34-.079.3 0 .516.077.648.233a.548.548 0 01.145.54 1.117 1.117 0 01-.304.558c-.156.144-.39.217-.702.218a36.879 36.879 0 00-2.772.098c-.78.05-1.446.112-1.997.186a98.3 98.3 0 00-1.44.202 8.66 8.66 0 01-1.044.075zm11.399 10.803c-1.368.004-2.346-.15-2.935-.46-.589-.31-.841-.669-.758-1.077a.606.606 0 01.215-.415c.12-.096.282-.145.486-.145.168 0 .324.029.468.088.156.048.336.107.54.179a9.4 9.4 0 00.811.177c.324.047.738.07 1.242.069a8.966 8.966 0 001.332-.094 4.687 4.687 0 001.043-.31c.3-.144.551-.3.755-.47-.001-.335-.146-.635-.434-.898a4.58 4.58 0 00-1.082-.735c-.432-.227-.889-.46-1.369-.698a10.255 10.255 0 01-1.334-.788 3.272 3.272 0 01-.92-1.041c-.205-.396-.254-.87-.147-1.422.118-.6.399-1.147.842-1.64a7.827 7.827 0 011.617-1.355c.635-.41 1.295-.754 1.978-1.032.695-.29 1.361-.508 1.997-.654.647-.158 1.193-.237 1.637-.239.216 0 .39.035.522.107a.485.485 0 01.253.287c.048.12.055.258.019.414a.831.831 0 01-.287.505c-.156.132-.396.23-.719.29-1.224.232-2.285.535-3.184.91-.9.374-1.613.79-2.14 1.248-.515.457-.82.92-.915 1.388-.059.3.037.576.29.827.253.252.595.497 1.028.736.444.226.913.47 1.405.733.493.25.949.532 1.37.842.421.3.745.646.974 1.041.241.396.308.852.201 1.368a2.01 2.01 0 01-.556 1.028 3.09 3.09 0 01-1.06.705 6.306 6.306 0 01-1.475.4c-.54.086-1.11.13-1.71.131zm9.028-4.202a.548.548 0 01-.45-.197.904.904 0 01-.163-.558c.022-.672.063-1.26.122-1.764.071-.516.16-1.056.267-1.62a44.4 44.4 0 01.356-1.586c.119-.432.232-.828.34-1.189.107-.36.196-.726.267-1.099.036-.216.119-.402.251-.558a.65.65 0 01.539-.254.68.68 0 01.595.322c.145.204.181.522.11.954a9.76 9.76 0 01-.25.955 24.4 24.4 0 00-.66 2.558c-.083.432-.143.792-.178 1.08-.035.288-.065.54-.088.756-.024.217-.047.42-.071.613a4.412 4.412 0 01-.089.63c-.083.348-.214.595-.394.74-.168.144-.336.216-.504.217zm-.638 4.214c-.444 0-.787-.112-1.027-.34-.241-.239-.319-.575-.236-1.007a1.24 1.24 0 01.448-.775c.24-.193.509-.29.809-.29.528-.002.883.14 1.063.428.181.288.236.618.164.99a1.43 1.43 0 01-.394.685c-.192.205-.467.307-.827.309zM96.496 109.447c-.887.002-1.65-.146-2.286-.444a3.803 3.803 0 01-1.48-1.256 4.382 4.382 0 01-.705-1.798 6.378 6.378 0 01.067-2.124 8.199 8.199 0 01.751-2.162 8.601 8.601 0 011.166-1.695 8.608 8.608 0 011.294-1.228 7.798 7.798 0 011.15-.741c.336-.17.575-.254.72-.254.12 0 .227.017.323.053.097.035.175.131.235.287.133.264.115.498-.052.702a2.515 2.515 0 01-.683.56c-.395.241-.82.573-1.276.994a7.41 7.41 0 00-1.22 1.551c-.359.613-.627 1.334-.805 2.163-.131.684-.124 1.32.022 1.907.157.588.476 1.061.957 1.42.493.346 1.177.518 2.053.516a4.275 4.275 0 001.96-.492 5.123 5.123 0 001.654-1.408 4.92 4.92 0 00.949-2.145c.13-.72.183-1.423.157-2.106a5.967 5.967 0 00-.346-1.871c-.205-.564-.512-1.013-.921-1.348-.397-.335-.895-.501-1.495-.5a.753.753 0 00-.63.308 1.805 1.805 0 00-.304.739 1.05 1.05 0 01-.304.595.767.767 0 01-.504.2.704.704 0 01-.414-.126.752.752 0 01-.271-.377c-.06-.18-.067-.39-.02-.63a2.91 2.91 0 011.4-1.948c.384-.217.828-.326 1.332-.328.816-.002 1.518.206 2.107.625.589.418 1.046.987 1.372 1.706.337.707.543 1.516.617 2.428a9.64 9.64 0 01-.173 2.844 6.732 6.732 0 01-2.278 3.895 6.538 6.538 0 01-1.905 1.103 6.473 6.473 0 01-2.213.385zm7.576.014a.499.499 0 01-.396-.161.745.745 0 01-.163-.395 1.183 1.183 0 01.017-.54c.047-.216.161-.505.34-.865.191-.373.43-.788.717-1.244.287-.469.586-.938.897-1.407.335-.493.676-.98 1.023-1.461.359-.493.7-.932 1.023-1.317.323-.397.592-.709.808-.938.335-.337.652-.584.952-.741.312-.169.623-.254.935-.254.288-.001.487.1.595.304.108.192.193.437.254.737.06.312.115.678.164 1.098.049.42.104.851.165 1.295.061.432.134.852.219 1.26.097.503.188.935.273 1.295.097.36.187.665.272.917.096.252.187.468.271.647.085.156.151.294.199.414.048.12.067.246.055.378a1.042 1.042 0 01-.143.45.84.84 0 01-.323.325.705.705 0 01-.414.127c-.228.001-.432-.107-.613-.322-.168-.228-.319-.533-.452-.917a13.872 13.872 0 01-.363-1.241c-.06-.276-.139-.641-.236-1.097-.085-.468-.17-.972-.255-1.511a46.922 46.922 0 01-.22-1.584c-.049-.504-.08-.924-.093-1.26l.361.143c-.336.313-.701.71-1.096 1.192-.383.469-.784.992-1.202 1.569a41.805 41.805 0 00-1.202 1.803c-.383.625-.735 1.25-1.058 1.875-.263.469-.49.824-.682 1.064-.179.241-.389.361-.629.362zm12.972-.073c-.588.002-1.062-.093-1.422-.284a2.022 2.022 0 01-.812-.807 3.025 3.025 0 01-.327-1.133c-.025-.42.005-.84.088-1.261.095-.492.243-1.026.446-1.603.203-.589.352-1.105.447-1.549.094-.505.154-.913.177-1.225a4.75 4.75 0 01.106-.756.984.984 0 01.125-.342.92.92 0 01.252-.235.805.805 0 01.396-.091c.336-.001.564.148.685.448.132.287.157.647.074 1.08-.047.276-.125.6-.232.972-.107.361-.22.733-.339 1.117-.119.385-.227.751-.322 1.099s-.166.643-.214.883c-.083.444-.118.84-.105 1.188.013.336.109.6.29.791.192.18.498.269.918.268.348-.001.714-.08 1.098-.237a4.494 4.494 0 001.078-.634c.336-.264.611-.559.826-.884.216-.336.329-.673.34-1.009 0-.156-.091-.276-.271-.359-.168-.096-.45-.143-.846-.142a10.53 10.53 0 00-1.35.094 18.042 18.042 0 00-2.357.475.545.545 0 01-.306-.053.523.523 0 01-.198-.198.455.455 0 01-.019-.288.881.881 0 01.161-.432.867.867 0 01.431-.271c.252-.097.546-.188.882-.273a13.411 13.411 0 012.231-.42c.372-.049.72-.074 1.044-.075.588-.002 1.038.075 1.35.23.325.155.547.37.668.646.12.276.169.594.146.954-.023.516-.19 1.026-.501 1.531a5.766 5.766 0 01-1.221 1.39 6.21 6.21 0 01-1.635 1.012c-.6.254-1.194.382-1.782.383zm7.321-.02c-.288 0-.504-.131-.649-.395-.132-.263-.181-.629-.146-1.097.012-.204.047-.486.106-.847.059-.36.13-.762.213-1.206l.249-1.369c.095-.456.178-.876.25-1.261.083-.384.148-.69.195-.918.119-.624.28-1.081.483-1.369.216-.301.527-.482.935-.543.384-.061.792-.104 1.224-.13.444-.037.882-.056 1.314-.057.324-.001.654.01.99.033.336.011.648.034.936.069.288.035.516.089.684.16a.57.57 0 01.307.269c.06.108.079.228.055.36-.048.24-.197.415-.449.523a2.036 2.036 0 01-.81.165 5.922 5.922 0 01-.684-.034 9.425 9.425 0 00-.666-.052 9.804 9.804 0 00-.954-.034c-.48.002-.888.027-1.224.076-.336.049-.713.122-1.133.219l.88-.578c-.095.312-.196.654-.303 1.026-.095.361-.197.769-.304 1.225-.107.445-.213.949-.32 1.513a25.227 25.227 0 00-.284 1.675c-.071.516-.124.954-.16 1.314a7.58 7.58 0 01-.088.703c-.036.192-.113.33-.233.414a.646.646 0 01-.414.146zm8.502-.025c-.552.002-1.003-.129-1.351-.392-.337-.263-.572-.628-.705-1.096-.121-.467-.122-1.007-.003-1.62a6.523 6.523 0 01.59-1.729 8.853 8.853 0 011.094-1.66 8.66 8.66 0 011.419-1.39 6.785 6.785 0 011.654-.958 4.826 4.826 0 011.763-.347c.276-.001.492.07.649.214.156.143.204.359.145.647a.681.681 0 01-.197.379c-.108.096-.264.157-.468.181a5.615 5.615 0 00-2.338.907 6.871 6.871 0 00-1.778 1.751 5.767 5.767 0 00-.931 2.127 4.729 4.729 0 00-.106.954c.001.276.061.636.182 1.079l-.686-1.24c.216.276.409.455.577.539.18.083.432.125.756.124.768-.003 1.547-.497 2.337-1.483.79-.986 1.519-2.422 2.186-4.308.084-.228.197-.403.341-.523a.813.813 0 01.54-.2c.276 0 .486.119.63.359.157.227.224.521.2.881a33.15 33.15 0 00-.067 2.052c.013.6.081 1.164.202 1.692.133.527.362 1.073.687 1.636a.672.672 0 01.091.413.876.876 0 01-.125.451.982.982 0 01-.305.361.742.742 0 01-.432.127.768.768 0 01-.432-.107.927.927 0 01-.252-.305 7.136 7.136 0 01-.779-2.176 9.203 9.203 0 01-.094-1.602 20.7 20.7 0 01.175-2.178l.648-.02c-.393 1.201-.829 2.216-1.307 3.046-.478.817-.981 1.478-1.508 1.984-.514.493-1.03.855-1.545 1.084-.516.23-1.001.345-1.457.346zm23.668-.031c-.276.001-.468-.196-.577-.592-.097-.408-.116-.972-.058-1.692s.182-1.554.372-2.503c.072-.36.173-.823.303-1.387.131-.576.274-1.189.428-1.837.155-.661.303-1.309.446-1.945.142-.649.267-1.225.374-1.73l.307.558c-.288-.06-.726-.112-1.314-.159a39.64 39.64 0 00-2.016-.102 51.579 51.579 0 00-2.412-.047c-.312 0-.612.008-.9.02a13.61 13.61 0 00-.792.057c-.24.013-.45.02-.63.02a1.54 1.54 0 01-.522-.089.935.935 0 01-.397-.25.364.364 0 01-.073-.343.839.839 0 01.359-.523c.192-.132.456-.223.791-.272a6.62 6.62 0 011.152-.093 101.775 101.775 0 013.762.061c.6.023 1.135.051 1.603.086.468.022.828.04 1.08.05.66.047 1.104.171 1.333.375.228.191.295.545.2 1.061-.107.504-.232 1.05-.374 1.64a88.917 88.917 0 01-.411 1.728c-.13.577-.255 1.117-.374 1.622-.119.504-.214.93-.285 1.278-.202 1.021-.326 1.891-.372 2.611-.035.709-.082 1.195-.141 1.459-.036.18-.089.342-.161.486a.764.764 0 01-.287.325.655.655 0 01-.414.127zm-7.236.003a.633.633 0 01-.486-.215c-.121-.155-.199-.365-.236-.629a2.857 2.857 0 01.052-.936c.083-.445.184-.925.303-1.441l.41-1.657a34.79 34.79 0 00.392-1.783c.095-.469.196-.997.303-1.585.106-.601.195-1.2.266-1.801.07-.612.087-1.152.05-1.62l1.691-.347c.001.456-.034.972-.104 1.548a29.215 29.215 0 01-.23 1.729c-.083.576-.178 1.11-.285 1.603l-.249 1.26c-.095.469-.196.961-.303 1.477a93.54 93.54 0 01-.321 1.459c-.094.468-.178.877-.249 1.225a20.19 20.19 0 01-.16.738c-.071.349-.185.601-.34.757a.693.693 0 01-.504.218zm12.62-.036c-.408.001-.732-.094-.972-.285a1.684 1.684 0 01-.506-.755 3.275 3.275 0 01-.164-1.043c.011-.384.052-.757.123-1.117.072-.312.167-.684.286-1.117.131-.432.274-.882.429-1.351.155-.468.304-.907.447-1.315.155-.408.28-.727.376-.955.155-.421.292-.745.412-.973.131-.229.287-.343.467-.344.156 0 .3.054.432.161a.93.93 0 01.289.413.964.964 0 01.055.558 5.613 5.613 0 01-.25.829c-.131.36-.28.763-.447 1.207-.167.445-.328.895-.483 1.352a8.944 8.944 0 00-.339 1.207 6.666 6.666 0 00-.142.936c-.024.288-.011.528.037.72.049.18.151.269.307.269.384-.001.869-.344 1.456-1.03.598-.686 1.262-1.63 1.991-2.832.335-.529.628-1.022.879-1.478.251-.457.472-.854.663-1.19.191-.349.377-.619.556-.812.18-.192.36-.289.54-.289.276-.001.474.106.595.322.132.204.193.479.181.827.001.312-.01.697-.033 1.153l-.033 1.404c-.011.468-.01.906.003 1.314.038.696.105 1.265.202 1.709.109.432.206.78.29 1.043.085.264.121.48.11.648a.883.883 0 01-.126.378.939.939 0 01-.269.271.636.636 0 01-.36.109c-.276.001-.504-.124-.685-.376-.168-.251-.301-.605-.398-1.061a15.11 15.11 0 01-.238-1.601l-.075-1.386a30.263 30.263 0 01-.003-1.476c.023-.492.046-.948.069-1.368l.522.178c-.143.277-.298.571-.466.884-.155.312-.346.667-.573 1.063a41.83 41.83 0 01-.807 1.371 18.605 18.605 0 01-1.328 1.857 8.26 8.26 0 01-1.491 1.427c-.503.361-1.013.543-1.529.544zm13.226-.074c-.888.003-1.62-.169-2.197-.515a2.88 2.88 0 01-1.191-1.473c-.218-.635-.243-1.367-.077-2.196a5.947 5.947 0 01.769-1.964 6.366 6.366 0 011.401-1.588 6.744 6.744 0 011.833-1.067 5.664 5.664 0 012.034-.384c.312-.001.588.046.828.142.24.083.414.215.523.394.12.168.151.378.091.63a1.046 1.046 0 01-.269.541.67.67 0 01-.467.181.542.542 0 01-.306-.071 3.555 3.555 0 00-.235-.143c-.072-.048-.198-.072-.378-.071a3.788 3.788 0 00-1.925.527 4.938 4.938 0 00-1.527 1.337 4.374 4.374 0 00-.806 1.748c-.083.504-.07.942.039 1.314.121.359.338.641.65.844.324.203.721.304 1.189.303.528-.002.948-.063 1.259-.184.312-.133.558-.278.737-.434.192-.157.348-.295.467-.415a.548.548 0 01.414-.2c.228 0 .384.053.468.161.097.108.121.294.074.558a2.062 2.062 0 01-.61 1.064c-.323.3-.731.536-1.223.705a4.7 4.7 0 01-1.565.256zm8.028-.004c-.588.001-1.062-.093-1.423-.284a2.015 2.015 0 01-.811-.808 3.014 3.014 0 01-.327-1.133c-.025-.42.004-.84.087-1.26a11.33 11.33 0 01.447-1.604 13.68 13.68 0 00.446-1.549c.095-.504.154-.912.178-1.224.023-.312.058-.565.106-.757a.964.964 0 01.125-.342.95.95 0 01.252-.235.804.804 0 01.395-.09c.336-.002.565.148.685.447.133.288.158.648.075 1.08-.048.276-.125.6-.232.973-.107.36-.22.732-.34 1.117-.119.384-.226.75-.321 1.099-.095.348-.167.642-.214.882a5.5 5.5 0 00-.106 1.188c.013.336.11.6.29.792.193.179.499.268.919.267.348-.001.714-.08 1.097-.237a4.463 4.463 0 001.079-.633c.335-.265.611-.56.826-.884.215-.337.328-.673.34-1.009-.001-.156-.091-.276-.271-.36-.168-.095-.45-.142-.846-.141-.444.001-.894.032-1.35.094-.456.061-.888.134-1.296.219-.408.085-.761.17-1.061.255a.529.529 0 01-.306-.053.523.523 0 01-.199-.197.463.463 0 01-.018-.288.875.875 0 01.161-.433.865.865 0 01.431-.271c.252-.097.546-.188.881-.272a13.432 13.432 0 012.232-.421 8.188 8.188 0 011.043-.075c.588-.001 1.039.075 1.351.23.324.155.547.371.667.647.121.275.17.593.146.953-.022.516-.189 1.027-.5 1.532a5.762 5.762 0 01-1.221 1.389 6.228 6.228 0 01-1.636 1.013 4.593 4.593 0 01-1.781.383zm7.177-.003c-.288.001-.504-.166-.649-.502-.145-.335-.152-.839-.022-1.512l.197-.882c.083-.373.196-.793.339-1.261.155-.481.346-.979.572-1.496.406-.913.771-1.634 1.094-2.163.322-.541.639-.932.951-1.173.311-.24.629-.362.953-.362.252-.001.444.1.577.304.144.204.247.449.307.737.061.288.11.576.146.864.049.383.11.809.183 1.277.085.468.176.942.273 1.421.109.48.23.936.363 1.367.145.432.308.797.489 1.097l-.648.146c.347-.685.717-1.37 1.112-2.055.394-.686.789-1.341 1.183-1.966a40.82 40.82 0 011.113-1.677c.382-.517.706-.884.969-1.101.276-.216.521-.325.737-.326.156 0 .3.035.433.107.132.06.246.131.342.215.132.132.235.293.307.485.073.192.085.48.038.864a33.012 33.012 0 00-.211 2.341 29.68 29.68 0 00-.014 1.728c.014.828.075 1.488.185 1.979.121.492.163.81.128.954a.547.547 0 01-.251.379.749.749 0 01-.486.163c-.288.001-.528-.137-.721-.412-.181-.276-.295-.647-.345-1.115a23.178 23.178 0 01-.111-1.638c-.014-.66.003-1.398.049-2.214.058-.828.152-1.68.282-2.557l.522-.127c-.287.421-.61.902-.969 1.443a217.73 217.73 0 00-1.076 1.659 88.401 88.401 0 00-1.04 1.713c-.323.565-.61 1.099-.861 1.604a1.721 1.721 0 01-.467.541.93.93 0 01-.593.2c-.288.001-.528-.064-.721-.196a1.892 1.892 0 01-.469-.575 6.692 6.692 0 01-.326-.827c-.048-.168-.115-.401-.199-.701a22.74 22.74 0 01-.491-2.267 24.994 24.994 0 01-.183-1.277 11.007 11.007 0 01-.075-1.206l.54-.146c-.407.59-.766 1.167-1.076 1.732a13.136 13.136 0 00-.77 1.748 15.527 15.527 0 00-.518 1.909 19.17 19.17 0 00-.213 1.225 9.239 9.239 0 01-.107.792 1.239 1.239 0 01-.251.523c-.119.144-.293.217-.521.217zm17.068-.066c-.996.003-1.77-.175-2.323-.534a2.554 2.554 0 01-1.084-1.49c-.169-.636-.177-1.35-.022-2.142.13-.589.357-1.177.68-1.766a7.463 7.463 0 011.238-1.642 6.138 6.138 0 011.671-1.175 4.487 4.487 0 011.961-.455c.948-.003 1.645.223 2.09.678.457.455.596 1.126.418 2.015a3.034 3.034 0 01-.878 1.676c-.467.446-1.048.789-1.744 1.031a6.632 6.632 0 01-2.213.366c-.816.003-1.362-.092-1.638-.283-.265-.191-.373-.407-.326-.647.024-.144.078-.246.162-.306.083-.073.215-.109.395-.11.132 0 .288.024.468.071.193.036.475.053.847.052a4.875 4.875 0 001.619-.257c.492-.169.893-.398 1.204-.687a2 2 0 00.592-1.028c.071-.36.023-.63-.146-.81-.156-.179-.468-.268-.936-.267a3.146 3.146 0 00-1.745.545 5.25 5.25 0 00-1.437 1.426 5.13 5.13 0 00-.788 1.928 3.057 3.057 0 00-.015 1.188c.073.348.254.636.542.863.3.215.727.322 1.279.32.624-.002 1.158-.081 1.601-.238.456-.17.839-.363 1.151-.58.311-.216.575-.403.791-.56.215-.156.407-.235.575-.235.204-.001.348.077.433.232.096.144.12.336.073.576-.048.24-.209.493-.484.758a4.68 4.68 0 01-1.043.722c-.419.23-.887.417-1.403.562a6.144 6.144 0 01-1.565.203zm7.478-.003a.742.742 0 01-.667-.376c-.156-.252-.253-.6-.29-1.044-.025-.456.022-.99.14-1.602.143-.636.304-1.117.483-1.441.191-.337.407-.566.647-.686.131-.073.317-.115.557-.128a7.9 7.9 0 01.756-.038c.876-.002 1.74-.047 2.592-.133a13.174 13.174 0 002.537-.547l.327 1.241a10.42 10.42 0 01-2.015.545c-.72.122-1.452.208-2.196.259-.732.038-1.446.058-2.142.06l-1.044-.159c.155-.709.315-1.453.481-2.234.166-.78.309-1.477.427-2.089.048-.288.143-.522.287-.703.143-.18.305-.27.485-.271.3-.001.523.118.667.358.145.227.163.593.057 1.098a14.23 14.23 0 01-.214.954c-.096.373-.197.763-.304 1.171-.095.408-.19.799-.285 1.171-.083.36-.149.66-.196.901-.143.696-.249 1.32-.32 1.872-.059.541-.112.949-.159 1.225a.764.764 0 01-.233.415.499.499 0 01-.378.181zm6.21-.018c-.3.001-.516-.172-.649-.52-.121-.348-.176-.822-.165-1.422.022-.612.105-1.284.247-2.016a53.44 53.44 0 01.624-2.738 17.49 17.49 0 01.519-1.622c.095-.264.214-.498.358-.703.144-.204.317-.306.521-.307.264 0 .451.125.559.376.121.24.145.534.074.882a9.702 9.702 0 01-.393 1.405 12.148 12.148 0 00-.41 1.639 20.887 20.887 0 00-.302 1.963 28.927 28.927 0 00-.086 1.459c-.012.396-.041.69-.089.882a.843.843 0 01-.286.523.79.79 0 01-.522.199zm4.636-.013a.74.74 0 01-.667-.376c-.157-.252-.253-.599-.29-1.043-.025-.456.021-.99.14-1.603a8.35 8.35 0 01.304-1.063c.119-.288.245-.516.376-.685.144-.18.293-.307.449-.379.132-.072.318-.115.558-.128a7.9 7.9 0 01.756-.038c.876-.002 1.74-.047 2.592-.133a13.165 13.165 0 002.536-.547l.327 1.241c-.623.242-1.295.423-2.015.546a21.89 21.89 0 01-2.195.258c-.732.038-1.446.058-2.142.06l-1.044-.159c.107-.481.214-.973.32-1.477a82.71 82.71 0 00.303-1.495c.107-.492.202-.943.285-1.351.047-.288.143-.522.287-.703.143-.18.305-.27.485-.271.3 0 .522.119.667.358.144.228.163.594.056 1.098-.047.264-.119.582-.214.955-.095.372-.196.762-.303 1.17-.095.409-.19.799-.285 1.171-.084.36-.149.661-.196.901-.143.696-.25 1.321-.32 1.873-.059.54-.112.948-.16 1.224a.749.749 0 01-.233.415.492.492 0 01-.377.181zm6.21-.018c-.3.001-.517-.172-.649-.52-.121-.348-.176-.821-.166-1.421.023-.612.106-1.285.248-2.017.237-1.153.445-2.065.624-2.738a17.5 17.5 0 01.518-1.621c.096-.265.215-.499.359-.703.143-.205.317-.307.521-.308.264 0 .45.125.559.377.12.239.145.533.074.881a9.667 9.667 0 01-.393 1.405 11.979 11.979 0 00-.41 1.64c-.143.72-.243 1.374-.302 1.963a27.962 27.962 0 00-.087 1.458c-.011.396-.04.69-.088.882a.84.84 0 01-.287.523.785.785 0 01-.521.199zm5.451-.033c-.552.001-1.002-.129-1.351-.392-.336-.263-.571-.629-.704-1.096-.121-.468-.122-1.008-.004-1.62a6.569 6.569 0 01.591-1.73 8.765 8.765 0 011.094-1.659 8.62 8.62 0 011.419-1.39 6.79 6.79 0 011.654-.959 4.851 4.851 0 011.763-.347c.276 0 .492.07.648.214.157.144.205.36.146.648a.688.688 0 01-.197.378c-.108.097-.264.157-.468.182a5.595 5.595 0 00-2.338.906 6.856 6.856 0 00-1.778 1.751 5.765 5.765 0 00-.931 2.127 4.658 4.658 0 00-.106.954c0 .276.061.636.182 1.08l-.687-1.24c.217.275.409.455.578.538.18.084.432.125.756.124.768-.002 1.547-.496 2.337-1.483.789-.986 1.518-2.422 2.186-4.308.083-.228.197-.402.341-.523a.81.81 0 01.539-.199.69.69 0 01.631.358c.157.227.223.521.2.881a32.438 32.438 0 00-.067 2.053c.013.6.08 1.163.201 1.691.134.528.363 1.073.688 1.636.072.12.103.258.091.414a.88.88 0 01-.125.45.984.984 0 01-.305.361.735.735 0 01-.432.127.76.76 0 01-.432-.107.931.931 0 01-.253-.305 8.356 8.356 0 01-.452-.989 7.01 7.01 0 01-.327-1.187 9.193 9.193 0 01-.093-1.601c.01-.612.069-1.339.175-2.179l.648-.02c-.513 1.586-1.11 2.853-1.792 3.803-.67.95-1.358 1.63-2.065 2.04-.707.41-1.361.616-1.961.618zm15.59-.026a.731.731 0 01-.703-.43c-.132-.3-.205-.666-.218-1.098-.001-.216.005-.462.016-.738.012-.276.035-.558.07-.846.048-.288.089-.552.125-.792l.178-.811c.083-.324.166-.654.25-.991.095-.348.178-.666.25-.954.083-.301.142-.529.178-.685.024-.156-.013-.27-.109-.342-.096-.083-.264-.125-.504-.124a5.82 5.82 0 00-.63.038 9.545 9.545 0 00-.738.11 5.642 5.642 0 00-1.636.58c-.468.254-.731.543-.79.867-.06.276-.029.528.091.755.133.216.391.389.775.52.397.131.967.195 1.711.193a16.102 16.102 0 001.548-.076 9.44 9.44 0 01.629-.074c.168-.024.276-.037.324-.037.3-.001.552.017.757.052.204.036.282.161.234.377-.035.241-.167.433-.394.578-.216.144-.504.247-.864.308a7.35 7.35 0 01-1.223.094l-1.854.005a4.9 4.9 0 01-1.801-.319c-.541-.215-.955-.519-1.244-.915-.277-.395-.368-.857-.273-1.385.071-.324.226-.66.465-1.009.252-.361.611-.698 1.078-1.011.479-.314 1.103-.567 1.87-.762a9.266 9.266 0 011.386-.273c.372-.037.744-.057 1.116-.058.468-.001.834.064 1.098.195.264.132.445.311.541.539.109.227.133.491.074.792a9.347 9.347 0 01-.232.918 62.03 62.03 0 00-.321 1.081c-.096.36-.179.685-.25.973-.06.288-.113.6-.16.936-.047.324-.083.643-.106.955-.023.312-.035.582-.034.81 0 .264.007.546.02.846.024.288.025.486.001.594a.703.703 0 01-.233.432.675.675 0 01-.468.182zm-6.336 0c-.216 0-.384-.071-.504-.215a.667.667 0 01-.109-.522c.035-.132.125-.264.269-.396.144-.145.383-.302.719-.47a9.529 9.529 0 001.707-1.121c.575-.458 1.15-.97 1.725-1.535l1.135.645c-.407.445-.85.884-1.329 1.317-.467.422-.934.807-1.401 1.156-.455.35-.875.627-1.258.832-.384.205-.702.308-.954.309zM93.418 125.473c-.408.002-.732-.094-.973-.285a1.682 1.682 0 01-.505-.754 3.284 3.284 0 01-.165-1.044c.012-.384.053-.756.124-1.116.071-.313.166-.685.286-1.117.13-.433.274-.883.429-1.351.154-.469.303-.907.447-1.316.155-.408.28-.726.375-.955.156-.42.293-.745.412-.973.132-.228.288-.343.468-.343.156-.001.3.053.432.161a.919.919 0 01.289.413c.072.168.09.354.055.558a5.664 5.664 0 01-.25.828c-.131.361-.28.763-.447 1.208-.167.444-.328.895-.483 1.351a9.02 9.02 0 00-.34 1.207 6.815 6.815 0 00-.142.936c-.023.288-.01.528.038.72.048.18.15.27.307.269.384-.001.869-.344 1.455-1.03.599-.685 1.263-1.629 1.992-2.831a27.92 27.92 0 00.879-1.479c.25-.457.472-.853.663-1.19a4.07 4.07 0 01.556-.811c.18-.193.36-.289.54-.29.276-.001.474.107.594.322.133.204.193.48.182.828.001.312-.01.696-.033 1.152l-.033 1.404c-.011.468-.01.906.003 1.314.037.696.105 1.266.202 1.71.109.431.205.779.29 1.043.085.263.121.479.109.647a.872.872 0 01-.125.379.977.977 0 01-.269.271.644.644 0 01-.36.109c-.42.001-.72-.274-.902-.826-.181-.551-.32-1.289-.419-2.213-.025-.432-.05-.894-.075-1.386a30.257 30.257 0 01-.003-1.476c.023-.492.046-.948.069-1.368l.522.179c-.203.42-.442.883-.717 1.388a45.734 45.734 0 01-1.13 1.929 18.726 18.726 0 01-1.327 1.858 8.239 8.239 0 01-1.491 1.426c-.503.361-1.013.543-1.529.544zm19.139-.036a1.85 1.85 0 01-1.315-.5c-.349-.335-.62-.79-.813-1.366-.194-.575-.303-1.235-.329-1.979-.013-.744.063-1.518.229-2.323.095-.48.19-.924.285-1.332.107-.409.226-.811.357-1.207.132-.397.281-.823.448-1.28.178-.468.387-1.003.626-1.604.083-.216.185-.36.305-.432a.8.8 0 01.468-.128.48.48 0 01.378.197c.108.12.169.288.181.504.025.216-.017.462-.124.738a72.774 72.774 0 00-.608 1.676c-.155.48-.292.943-.411 1.387a46.35 46.35 0 00-.321 1.441c-.131.66-.213 1.267-.248 1.819a7.121 7.121 0 00.075 1.475c.073.42.182.75.326.989.157.228.355.341.595.341.36-.001.738-.068 1.134-.201a6.914 6.914 0 001.115-.526c.359-.217.665-.457.916-.722.251-.265.395-.523.43-.775.036-.181-.049-.366-.253-.558-.192-.203-.487-.388-.883-.555a7.232 7.232 0 00-1.405-.41 7.82 7.82 0 00-1.728-.139c-.336.013-.6-.041-.793-.16-.18-.12-.24-.329-.181-.63.047-.192.179-.342.395-.451.216-.12.581-.235 1.097-.345.444-.085.9-.2 1.367-.346.48-.145.942-.302 1.385-.472.456-.169.869-.35 1.241-.543.372-.193.677-.392.917-.597.239-.204.377-.397.412-.577a.844.844 0 00-.235-.755c-.193-.228-.487-.419-.884-.574a6.278 6.278 0 00-1.386-.356 11.29 11.29 0 00-1.729-.121c-.432.001-.852.009-1.26.022l-.882.002a.528.528 0 01-.414-.179.535.535 0 01-.109-.467c.059-.313.293-.559.7-.74.408-.181.972-.273 1.692-.275.96-.003 1.842.067 2.646.208.817.142 1.507.362 2.072.66.564.299.979.676 1.244 1.131.265.443.332.971.202 1.583-.071.361-.311.733-.718 1.118-.395.386-1.006.765-1.833 1.14-.827.374-1.907.725-3.238 1.053l.035-.504c.9.081 1.633.235 2.197.462.576.214 1.009.465 1.298.752.3.287.493.592.578.916.096.312.115.618.056.918-.095.504-.328.973-.699 1.406a5.375 5.375 0 01-1.33 1.138 7.964 7.964 0 01-1.654.778 5.296 5.296 0 01-1.619.275zm11.067-.067c-.744.002-1.368-.098-1.873-.301-.492-.215-.871-.508-1.136-.879a3.08 3.08 0 01-.507-1.33 5.275 5.275 0 01.087-1.657 6.67 6.67 0 01.68-1.766c.334-.6.747-1.148 1.238-1.641a6.138 6.138 0 011.671-1.175 4.475 4.475 0 011.961-.455c.636-.002 1.159.098 1.567.301.42.203.709.502.866.898.169.395.194.893.075 1.494-.095.492-.292.93-.591 1.315a3.855 3.855 0 01-1.096.957 5.844 5.844 0 01-1.456.598 6.906 6.906 0 01-1.692.203c-.816.003-1.362-.092-1.638-.283-.265-.191-.373-.407-.326-.647.024-.144.078-.246.161-.307.084-.072.216-.108.396-.109.132 0 .288.023.468.071.192.035.474.053.846.052.6-.002 1.14-.088 1.62-.257.492-.169.893-.399 1.204-.687a2 2 0 00.592-1.028c.071-.36.023-.63-.146-.81-.156-.179-.468-.268-.936-.267-.468.001-.918.11-1.35.328a4.607 4.607 0 00-1.186.849 5.298 5.298 0 00-1.434 2.722 3.057 3.057 0 00-.015 1.188c.073.348.253.635.542.863.3.215.727.322 1.279.32.624-.002 1.157-.081 1.601-.238.456-.17.839-.363 1.151-.58.311-.217.575-.403.791-.56.215-.157.407-.235.575-.236.204 0 .348.077.433.233.096.144.12.336.073.576-.048.24-.209.493-.484.757a4.648 4.648 0 01-1.043.723 6.692 6.692 0 01-1.403.562 6.144 6.144 0 01-1.565.203zm10.43-.12c-.576.002-1.08-.075-1.513-.23-.432-.154-.763-.357-.991-.609-.229-.251-.319-.515-.272-.791a.9.9 0 01.197-.379.486.486 0 01.378-.163c.12 0 .228.03.324.089l.343.215c.132.084.324.162.576.233.252.059.594.088 1.026.087.672-.002 1.254-.166 1.745-.491.503-.337.826-.908.968-1.713.119-.564.124-1.074.015-1.53a2.72 2.72 0 00-.561-1.204 2.606 2.606 0 00-1.063-.789 3.8 3.8 0 00-1.477-.266 4.218 4.218 0 00-.846.092c-.288.061-.54.092-.756.092a.727.727 0 01-.36-.088.516.516 0 01-.216-.288.723.723 0 01-.019-.36c.071-.324.286-.571.646-.74.372-.181.935-.272 1.691-.274.804-.003 1.519.133 2.143.407.637.275 1.16.663 1.569 1.166.409.491.686 1.084.832 1.78.157.683.153 1.445-.013 2.286a4.218 4.218 0 01-.573 1.477c-.263.433-.586.8-.969 1.101a4.446 4.446 0 01-1.295.67 5.286 5.286 0 01-1.529.22zm-4.22 4.62a.657.657 0 01-.378-.107.466.466 0 01-.199-.287 1.034 1.034 0 01-.001-.468c.036-.18.101-.349.197-.505a9.53 9.53 0 00.287-.541c.107-.204.221-.468.34-.793.119-.324.232-.75.339-1.279.178-.876.272-1.752.282-2.628.01-.876.014-1.764.012-2.664.01-.912.098-1.825.264-2.737.06-.3.161-.523.305-.667a.76.76 0 01.557-.236c.192 0 .348.065.469.197.132.12.222.287.271.503.048.204.043.432-.017.684a14.614 14.614 0 00-.265 2.053 49.54 49.54 0 00-.032 1.872c.013.612.009 1.224-.014 1.836a11.675 11.675 0 01-.23 1.891 12.384 12.384 0 01-.392 1.603c-.155.48-.328.889-.519 1.225-.18.337-.377.596-.593.776a1.006 1.006 0 01-.683.272zm12.508-4.553c-.552.001-1.003-.13-1.351-.393-.337-.263-.572-.628-.705-1.096-.121-.467-.122-1.007-.003-1.62a6.535 6.535 0 01.59-1.729 8.813 8.813 0 011.094-1.659 8.58 8.58 0 011.419-1.39 6.79 6.79 0 011.654-.959 4.847 4.847 0 011.763-.347c.276-.001.492.071.649.214.156.144.204.359.145.648a.682.682 0 01-.197.378c-.108.097-.264.157-.468.182a5.6 5.6 0 00-2.338.906 6.871 6.871 0 00-1.778 1.751 5.774 5.774 0 00-.931 2.127 4.729 4.729 0 00-.106.954c.001.276.062.636.183 1.08l-.687-1.24c.216.275.409.454.577.538.18.083.432.125.756.124.768-.002 1.547-.497 2.337-1.483.79-.986 1.519-2.422 2.186-4.308.084-.228.197-.403.341-.523a.818.818 0 01.54-.2c.276 0 .486.119.631.359.156.227.223.521.2.881-.047.756-.069 1.44-.068 2.052.013.6.081 1.164.202 1.692.133.527.362 1.073.688 1.636.072.12.102.258.09.414a.87.87 0 01-.125.45.982.982 0 01-.305.361.732.732 0 01-.431.127.763.763 0 01-.433-.107.917.917 0 01-.252-.305 7.109 7.109 0 01-.779-2.176 9.302 9.302 0 01-.094-1.602 20.7 20.7 0 01.175-2.178l.648-.02c-.393 1.201-.829 2.216-1.307 3.046-.478.817-.981 1.479-1.508 1.984-.514.494-1.03.855-1.545 1.084-.516.23-1.001.345-1.457.347zm21.634-.152c-1.344.004-2.436-.071-3.277-.224-.828-.166-1.447-.422-1.855-.769a2.19 2.19 0 01-.759-1.312c-.086-.54-.057-1.182.085-1.926.095-.457.208-.979.339-1.567.131-.589.273-1.189.428-1.802.154-.624.303-1.218.446-1.783.143-.564.274-1.063.393-1.495.119-.432.214-.745.285-.937.096-.36.209-.618.341-.775.143-.168.305-.253.485-.253a.624.624 0 01.487.197c.12.119.198.281.235.485.036.192.031.39-.017.594-.035.204-.119.54-.25 1.009a92.53 92.53 0 00-.446 1.621c-.155.624-.321 1.303-.5 2.035-.166.721-.32 1.453-.463 2.198-.178.888-.242 1.524-.193 1.908.06.384.223.654.487.809.229.131.535.238.919.321.384.071.828.124 1.332.158a54.89 54.89 0 004.806-.049c.816-.062 1.458-.166 1.926-.312.467-.157.809-.386 1.024-.687.12-.144.245-.378.377-.703.131-.336.256-.726.375-1.171.131-.444.244-.912.339-1.405.142-.708.255-1.398.337-2.071.083-.672.147-1.29.194-1.854.047-.564.088-1.044.123-1.441.035-.396.064-.666.088-.81.036-.12.096-.246.179-.378.096-.133.21-.241.342-.325a.776.776 0 01.431-.127c.204-.001.372.094.505.286.144.18.211.413.199.702.001.204-.022.534-.069.99-.047.444-.106.954-.177 1.53a32.398 32.398 0 01-.23 1.765 36.511 36.511 0 01-.266 1.639c-.083.408-.167.798-.25 1.17-.083.373-.172.727-.267 1.063l-.268.901a4.85 4.85 0 01-.269.685c-.227.48-.568.859-1.023 1.137-.456.277-1.013.488-1.673.634-.66.134-1.433.22-2.321.259-.876.05-1.854.077-2.934.08zm-.056-.918a24.88 24.88 0 01.193-2.196c.118-.853.284-1.777.498-2.774.107-.492.225-1.008.356-1.549a245.452 245.452 0 00.696-2.954c.107-.42.19-.756.249-1.008.048-.24.107-.451.179-.631.072-.192.161-.342.269-.451.108-.12.24-.18.396-.181.192 0 .348.065.468.197.12.132.199.317.235.557.037.228.025.486-.034.774-.13.685-.315 1.489-.553 2.414a77.685 77.685 0 00-.677 2.864 38.933 38.933 0 00-.48 2.629 29.881 29.881 0 00-.212 2.143l-1.583.166zm12.734.972c-.552.002-1.002-.129-1.351-.392-.336-.263-.571-.628-.704-1.096-.121-.468-.123-1.008-.004-1.62a6.614 6.614 0 01.59-1.73 8.883 8.883 0 011.095-1.659c.43-.529.903-.992 1.418-1.39a6.823 6.823 0 011.654-.958 4.835 4.835 0 011.764-.347c.276-.001.492.07.648.214.156.143.205.359.145.647a.678.678 0 01-.197.379c-.107.096-.263.157-.467.181a5.61 5.61 0 00-2.338.907 6.856 6.856 0 00-1.778 1.751 5.77 5.77 0 00-.932 2.127 4.802 4.802 0 00-.106.954c.001.276.062.636.183 1.079l-.687-1.24c.217.276.409.455.577.539.181.083.433.124.757.123.768-.002 1.547-.496 2.336-1.482.79-.986 1.519-2.422 2.187-4.308a1.19 1.19 0 01.341-.523.809.809 0 01.539-.2.693.693 0 01.631.358c.156.228.223.522.2.882-.046.756-.069 1.44-.068 2.052.014.6.081 1.164.202 1.691.133.528.363 1.073.688 1.636a.69.69 0 01.091.414.896.896 0 01-.125.451.99.99 0 01-.305.36.735.735 0 01-.432.128.768.768 0 01-.432-.107.928.928 0 01-.253-.305 8.27 8.27 0 01-.452-.989 7.037 7.037 0 01-.327-1.187 9.211 9.211 0 01-.093-1.602c.01-.612.069-1.338.175-2.178l.648-.02c-.394 1.201-.829 2.216-1.308 3.045-.478.818-.98 1.479-1.507 1.985-.515.493-1.03.855-1.546 1.084-.515.23-1.001.345-1.457.346zm9.221-7.298c-.276.001-.492-.083-.649-.25a.634.634 0 01.07-.918c.108-.097.3-.181.576-.254.431-.121 1.007-.231 1.727-.329a19.977 19.977 0 012.556-.151c.504-.002.966.009 1.386.032.432.011.906.051 1.422.122.408.047.72.142.937.285.228.144.324.305.289.485a.766.766 0 01-.485.596c-.132.06-.3.091-.504.091-.252.001-.546-.01-.882-.033a127.42 127.42 0 00-1.08-.069 11.975 11.975 0 00-1.152-.051c-.828.002-1.494.04-1.998.114-.504.061-.924.134-1.259.219-.336.073-.654.11-.954.111zm2.626 7.301a.653.653 0 01-.595-.323 2.395 2.395 0 01-.253-.827 7.115 7.115 0 01-.003-1.026c.035-.444.094-.924.177-1.44a44.28 44.28 0 01.267-1.531c.13-.661.243-1.243.338-1.747.107-.517.19-.943.249-1.279l1.62-.113-.179.775c-.059.3-.124.642-.195 1.027-.071.372-.149.756-.232 1.152-.071.384-.142.757-.213 1.117-.119.6-.196 1.104-.231 1.512a9.564 9.564 0 00-.016.973c.013.252.025.461.038.629.012.156.006.3-.017.432a.945.945 0 01-.144.361.677.677 0 01-.269.217.706.706 0 01-.342.091zm7.085-.056c-.552.001-1.003-.13-1.351-.393-.337-.263-.572-.628-.705-1.096-.121-.467-.122-1.007-.003-1.62a6.523 6.523 0 01.59-1.729 8.765 8.765 0 011.094-1.659 8.58 8.58 0 011.419-1.39 6.757 6.757 0 011.654-.959 4.847 4.847 0 011.763-.347c.276-.001.492.07.649.214.156.144.204.359.145.648a.682.682 0 01-.197.378c-.108.096-.264.157-.468.181a5.615 5.615 0 00-2.338.907 6.871 6.871 0 00-1.778 1.751 5.767 5.767 0 00-.931 2.127 4.729 4.729 0 00-.106.954c.001.276.061.636.182 1.08l-.686-1.24c.216.275.409.454.577.538.18.083.432.125.756.124.768-.002 1.547-.497 2.337-1.483.79-.986 1.518-2.422 2.186-4.308.084-.228.197-.403.341-.523a.818.818 0 01.54-.2c.276 0 .486.119.63.359.157.227.224.521.2.881a33.15 33.15 0 00-.067 2.052c.013.6.081 1.164.202 1.692.133.527.362 1.073.687 1.636.073.12.103.257.091.413a.873.873 0 01-.125.451.982.982 0 01-.305.361.742.742 0 01-.432.127.768.768 0 01-.432-.107.927.927 0 01-.252-.305 7.109 7.109 0 01-.779-2.176 9.203 9.203 0 01-.094-1.602 20.7 20.7 0 01.175-2.178l.648-.02c-.393 1.201-.829 2.216-1.307 3.046-.478.817-.981 1.479-1.508 1.984-.514.493-1.03.855-1.545 1.084-.516.23-1.001.345-1.457.347zm8.857.01a.501.501 0 01-.396-.16.749.749 0 01-.163-.396 1.183 1.183 0 01.017-.54c.047-.216.161-.505.34-.865.191-.373.43-.787.717-1.244.287-.469.586-.938.897-1.407.335-.493.676-.98 1.023-1.461.359-.493.7-.932 1.023-1.316.323-.397.592-.71.808-.939.335-.337.652-.584.952-.74.312-.169.624-.254.936-.255.288-.001.486.101.594.304.109.192.193.438.254.738.061.311.115.677.164 1.097.049.42.104.852.165 1.296.061.431.134.851.219 1.259.097.504.188.935.273 1.295.097.36.187.666.272.917.097.252.187.468.271.648.085.155.151.293.199.413.049.12.067.246.055.378a1.029 1.029 0 01-.143.45.834.834 0 01-.323.325.698.698 0 01-.414.127c-.228.001-.432-.106-.613-.322-.168-.227-.319-.533-.452-.917a14.219 14.219 0 01-.362-1.241c-.061-.275-.14-.641-.237-1.097a65.25 65.25 0 01-.255-1.511 49.629 49.629 0 01-.22-1.584c-.049-.503-.08-.923-.093-1.259l.361.143c-.335.313-.701.71-1.096 1.191-.382.469-.783.992-1.202 1.569a42.797 42.797 0 00-1.202 1.804c-.383.625-.735 1.25-1.058 1.875-.263.468-.49.823-.681 1.064-.18.24-.39.361-.63.361zm14.203-.04c-.984.003-1.795-.211-2.431-.641a3.32 3.32 0 01-1.3-1.742c-.23-.744-.256-1.59-.078-2.538a5.01 5.01 0 01.68-1.766c.335-.517.706-.95 1.113-1.299a4.782 4.782 0 011.258-.778c.42-.181.78-.272 1.08-.273.132 0 .24.017.324.053a.402.402 0 01.216.18c.061.071.079.173.055.305a2.19 2.19 0 01-.286.667c-.132.193-.378.367-.737.524a5.129 5.129 0 00-1.097.687 2.986 2.986 0 00-.7.848 3.33 3.33 0 00-.375 1.136c-.19.972-.074 1.752.347 2.339.421.574 1.064.861 1.928.858.84-.002 1.571-.304 2.194-.906.634-.614 1.047-1.425 1.236-2.434.19-.924.129-1.644-.184-2.159-.314-.527-.83-.79-1.55-.788-.372.001-.69.074-.954.219a6.602 6.602 0 00-.826.578c-.216.181-.39.343-.521.488a3.047 3.047 0 01-.36.343.616.616 0 01-.377.109.504.504 0 01-.397-.161c-.084-.12-.102-.306-.055-.558.047-.276.185-.558.412-.847.239-.289.527-.553.862-.794a4.583 4.583 0 011.115-.598 3.182 3.182 0 011.17-.237c.864-.002 1.566.2 2.107.606.541.395.908.946 1.102 1.653.193.695.195 1.499.005 2.412-.166.9-.488 1.693-.967 2.379a5.116 5.116 0 01-1.76 1.571 4.63 4.63 0 01-2.249.564zm9.458.045c-.612.002-1.11-.123-1.495-.373a2.32 2.32 0 01-.83-.97 3.954 3.954 0 01-.291-1.313c-.013-.48.022-.948.105-1.405.107-.504.262-1.05.464-1.639.215-.589.454-1.153.717-1.694a8.506 8.506 0 01.789-1.37 1.52 1.52 0 01.359-.379 1.36 1.36 0 01.449-.2c.156-.048.312-.072.468-.073.144 0 .246.047.306.143.061.084.073.204.037.36-.035.18-.137.409-.304.685-.156.276-.347.613-.574 1.01-.215.396-.43.871-.645 1.424-.215.54-.393 1.177-.536 1.909-.154.768-.134 1.38.059 1.836.193.455.595.682 1.207.68a2.912 2.912 0 001.367-.363 4.073 4.073 0 001.204-.976c.359-.421.598-.89.717-1.406l.199.342a4.653 4.653 0 00-1.081-.267 10.755 10.755 0 00-1.314-.141 10.33 10.33 0 00-1.35-.014 8.34 8.34 0 00-1.188.112l.231-1.189a8.313 8.313 0 001.764-.221 6.841 6.841 0 001.493-.562c.443-.23.803-.471 1.078-.723.275-.265.431-.512.466-.74.036-.168-.006-.3-.127-.395-.12-.108-.312-.161-.576-.161-.324.001-.666.05-1.026.147-.347.097-.719.218-1.115.363-.395.145-.815.297-1.259.454-.18.048-.33.025-.45-.071a.34.34 0 01-.109-.36c.036-.168.15-.324.341-.468.204-.157.396-.272.575-.344.732-.386 1.409-.652 2.033-.798a7.449 7.449 0 011.763-.239c.432-.001.786.064 1.063.195.288.131.492.311.613.538.132.228.169.486.11.774a2.433 2.433 0 01-.538 1.1 5.187 5.187 0 01-1.096.975 7.627 7.627 0 01-1.42.742 8.08 8.08 0 01-1.619.454l.088-.684a16.738 16.738 0 011.566-.004c.492.022.924.075 1.297.158.372.083.654.22.847.412.204.179.301.419.289.719-.023.48-.19.96-.501 1.441-.299.469-.7.896-1.203 1.282a6.657 6.657 0 01-1.636.94 4.87 4.87 0 01-1.781.347zm8.895-.133c-.552.002-1.002-.129-1.35-.392-.337-.263-.572-.629-.705-1.096-.121-.468-.122-1.008-.003-1.62a6.541 6.541 0 01.59-1.73 8.765 8.765 0 011.094-1.659 8.66 8.66 0 011.419-1.39 6.822 6.822 0 011.654-.959 4.868 4.868 0 011.763-.347c.276 0 .492.071.648.215.157.143.205.359.146.647a.688.688 0 01-.197.379c-.108.096-.264.156-.468.181a5.596 5.596 0 00-2.338.907 6.855 6.855 0 00-1.778 1.751 5.77 5.77 0 00-.931 2.126 4.746 4.746 0 00-.106.955c.001.276.061.635.182 1.079l-.686-1.24c.216.275.409.455.577.538.18.084.432.125.756.124.768-.002 1.547-.496 2.337-1.482.79-.987 1.518-2.423 2.186-4.309a1.21 1.21 0 01.341-.523.817.817 0 01.54-.199.69.69 0 01.63.358c.157.228.224.522.2.882a33.15 33.15 0 00-.067 2.052c.013.6.081 1.164.202 1.691.133.528.362 1.073.687 1.636.073.12.103.258.091.414a.87.87 0 01-.125.45.966.966 0 01-.305.361.728.728 0 01-.432.127.768.768 0 01-.432-.106.946.946 0 01-.253-.306 8.414 8.414 0 01-.452-.988 7.067 7.067 0 01-.326-1.187 9.203 9.203 0 01-.094-1.602c.011-.612.069-1.338.175-2.179l.648-.019c-.393 1.201-.829 2.216-1.307 3.045-.478.818-.981 1.479-1.508 1.985-.515.493-1.03.854-1.545 1.084-.516.229-1.002.345-1.458.346zM24.17 142.121a1 1 0 001.398-.207l5.362-7.229a1 1 0 10-1.607-1.191l-4.766 6.425-6.425-4.766a1 1 0 10-1.192 1.607l7.23 5.361zm45.269-74.587c-8.468 9-15.781 13.704-21.969 15.979l.69 1.877c6.553-2.41 14.116-7.325 22.735-16.485l-1.456-1.37zM47.47 83.513c-7.25 2.665-13.051 2.031-17.52.926-2.32-.574-4.097-1.217-5.823-1.694-.82-.227-1.605-.406-2.328-.467-.725-.06-1.457-.008-2.128.296-1.421.643-2.07 2.152-2.331 4.238-.266 2.123-.177 5.202.224 9.54.804 8.697 2.9 22.776 6.212 45.113l1.978-.293c-3.317-22.371-5.4-36.377-6.199-45.004-.4-4.324-.468-7.217-.23-9.108.24-1.928.754-2.476 1.17-2.664.248-.112.603-.17 1.137-.125.535.045 1.179.185 1.962.402 1.477.408 3.594 1.143 5.876 1.707 4.733 1.171 10.961 1.851 18.69-.99l-.69-1.877zm21.734-15.716c-8.32 9.03-15.559 13.606-21.712 15.708l.647 1.892c6.55-2.237 14.056-7.042 22.535-16.245l-1.47-1.355zM47.492 83.505c-7.014 2.396-12.726 1.616-17.204.389-2.313-.634-4.132-1.331-5.882-1.863-.836-.254-1.637-.461-2.377-.554-.738-.093-1.482-.081-2.174.164-1.499.53-2.26 1.946-2.603 3.972-.344 2.034-.327 4.999.007 9.18.67 8.385 2.652 22.018 5.925 43.69l1.978-.299c-3.278-21.703-5.246-35.252-5.91-43.55-.332-4.163-.328-6.916-.028-8.688.3-1.78.839-2.257 1.298-2.42.288-.102.687-.136 1.258-.065.57.072 1.242.24 2.045.484 1.527.464 3.646 1.25 5.935 1.878 4.725 1.294 10.868 2.14 18.379-.425l-.647-1.893z" fill="#FFFCFF"/></svg>