<svg width="512" height="564" fill="none" xmlns="http://www.w3.org/2000/svg"><path d="M162.043 39.907l14.077 7.416-2.593-15.573 1.82-1.763 7.845-7.6 1.82-1.762-15.93-2.224-7.039-14.462-7.039 14.462-15.56 2.224 11.485 11.125-2.594 15.573 13.708-7.416zm0 0v106.05m0 129.782v-31.148h31.119m-54.088-53.766h-15.56s2.964-24.844 7.78-24.844c4.445 0 7.78 24.844 7.78 24.844zm0 0h15.559m-15.559 0s2.963-24.844 7.779-24.844c4.446 0 7.78 24.844 7.78 24.844m-15.559 0l1.938-1.938h15.559l-1.938 1.938m-.37 0h15.559m-15.559 0s3.334-24.844 7.78-24.844c4.445 0 7.779 24.844 7.779 24.844m-15.559 0l1.938-1.938h15.56l-1.939 1.938m0 0h15.56m-15.56 0s3.335-24.844 7.78-24.844c4.446 0 7.78 24.844 7.78 24.844m0 0h15.56m-15.56 0s3.334-24.844 7.78-24.844 7.78 24.844 7.78 24.844m-15.56 0l1.939-1.938h15.559l-1.938 1.938m9.632 268.833h20.401c.504 0 .961-.205 1.292-.536.331-.33.535-.787.535-1.291V300.185a1.827 1.827 0 00-1.827-1.827H93.481a1.825 1.825 0 00-1.828 1.827v157.646c0 1.009.819 1.827 1.828 1.827h20.771-62.239v53.767m255.253-80.836v-14.832m0 0v-50.429m0 50.429v-50.429m0 50.429l1.939-1.938-.001-50.429m-1.938 1.938a33.698 33.698 0 00-10.028 6.934m10.028-6.934l1.938-1.938m-50.099 67.199v-65.261c26.304 11.865 24.081 50.429 24.081 50.429s-1.605-27.846 14.052-43.495m89.861 58.327v-65.262a33.7 33.7 0 00-10.028 6.935c-15.657 15.648-14.052 43.495-14.052 43.495s2.223-38.564-24.081-50.43v65.262m-272.847.742v-65.633a33.682 33.682 0 00-10.028 6.935c-15.657 15.648-14.052 43.495-14.052 43.495s2.222-38.564-24.08-50.43v50.43m0 0v15.203l1.938-1.939v-15.203l-1.939 1.939zM2 433.702h89.653m141.149 0h275.259m-295.264 25.956h57.818c1.009 0 1.827.818 1.827 1.827V562M108.325 316.898v15.574m53.718-15.574v15.574m54.088-15.574v15.574m-5.927 163.154v-40.418s-2.223-9.27-11.485-17.798c-14.819-13.349-26.303-29.665-35.195-47.463l-1.481-3.338m0 0l-.741 1.854m.741-1.854l1.937-1.938-.74 1.854-1.938 1.938m0 0c-8.892 18.911-21.858 35.598-36.677 50.801-7.78 7.787-9.632 15.944-9.632 15.944v10.754M2 447.051h37.417M2 464.478h29.637m276-4.449h31.119m-15.559 15.574h20.375m138.556 54.508h25.933m-12.967 17.057h12.967M91.654 349.158h141.148m-17.206-50.965a1.822 1.822 0 01-1.292.536H110.152a1.827 1.827 0 01-1.827-1.827v-104.25c0-.505.204-.962.535-1.292m106.736 106.833c.331-.33.535-.787.535-1.291v-104.25a1.827 1.827 0 00-1.827-1.827H110.152c-.504 0-.961.204-1.292.535m106.736 106.833l1.938-1.937m-1.938 1.937c.241-.241.415-.548.491-.893.056-.25.146-.5.328-.682l.639-.639c.375-.375.855-.097.48.277m-1.938 1.937c-.375.375-.652-.104-.277-.479l.639-.639c.182-.182.432-.271.683-.327.344-.077.652-.251.893-.492M108.86 191.36l1.938-1.938c.375-.374.652.105.278.48l-.64.639c-.182.182-.431.272-.682.328-.345.076-.653.25-.894.491zm188.378 182.902l1.938-1.938a33.672 33.672 0 0110.028-6.934M163.984 37.969l14.077 7.416-1.938 1.938-14.078-7.416m1.939-1.938l-1.939 1.938m1.939-1.938v106.05l-1.939 1.938V39.907M195.1 164.04c4.445 0 7.78 24.844 7.78 24.844l-1.939 1.938s-3.334-24.844-7.78-24.844m1.939-1.938l-1.939 1.938m1.939-1.938c-.768 0-1.501.74-2.191 1.965m.252-.027a1.2 1.2 0 00-.252.027m9.804 22.345l-1.938 1.938m1.938-1.938c.375-.375-.105-.652-.479-.277l-.64.639c-.182.182-.272.432-.328.682-.076.345-.25.653-.491.894m1.938-1.938s.001 0 0 0zm0 0a1.828 1.828 0 01-.893.492c-.251.055-.501.145-.682.327l-.64.639c-.374.375-.098.855.277.48m188.262 175.098a33.675 33.675 0 00-10.028 6.935l-1.938 1.938a33.675 33.675 0 0110.028-6.935m1.938-1.938l-1.938 1.938m1.938-1.938l.001 50.43-1.939 1.938v-50.43m-194.19-201.319c-3.306 5.871-5.588 22.879-5.588 22.879m5.588-22.879c-4.318.91-7.527 24.817-7.527 24.817m1.939-1.938l-1.939 1.938m1.939-1.938s-3.334-24.844-7.779-24.844l-1.939 1.938c4.446 0 7.779 24.844 7.779 24.844m-8.034-24.817c.69-1.225 1.424-1.965 2.191-1.965l-1.938 1.938c-.085 0-.169.009-.253.027zm0 0c-3.306 5.871-5.589 22.879-5.589 22.879l-1.938 1.938s3.208-23.907 7.527-24.817zm-15.558 0c.69-1.225 1.424-1.965 2.191-1.965l-1.938 1.938c-.085 0-.169.009-.253.027zm0 0c-3.306 5.871-5.589 22.879-5.589 22.879l-1.938 1.938s3.208-23.907 7.527-24.817zm-35.801-21.453s0 0 0 0zm0 0c-.241.241-.415.55-.492.894-.056.251-.145.501-.327.682l-.639.639c-.375.375-.855.098-.48-.277l1.938-1.938zm253.022 227.771l-.009.009m0 0c-15.648 15.65-14.044 43.486-14.044 43.486l-1.938 1.938s-1.605-27.847 14.052-43.495l1.93-1.929zM148.791 164.04c4.445 0 7.78 24.844 7.78 24.844l-1.939 1.938s-3.334-24.844-7.78-24.844m1.939-1.938l-1.939 1.938m1.939-1.938c-.838 0-1.62.753-2.34 1.996m.401-.058c-.135 0-.268.02-.401.058m0 0c-3.417 5.9-5.439 22.848-5.439 22.848m5.439-22.848c-4.578 1.32-7.378 24.786-7.378 24.786m1.939-1.938l-1.939 1.938m1.939-1.938s-3.334-24.844-7.779-24.844m5.84 26.782s-3.333-24.844-7.779-24.844m209.585 199.408c26.303 11.866 24.08 50.43 24.08 50.43l-1.938 1.938s2.223-38.564-24.081-50.43m1.939-1.938l-1.939 1.938m1.939-1.938v50.43l-1.939 1.938v-50.43M133.233 164.04l-1.939 1.938m1.939-1.938c-.838 0-1.62.753-2.34 1.996m.401-.058c-.135 0-.268.02-.401.058m0 0c-3.417 5.9-5.439 22.848-5.439 22.848l-1.939 1.938s2.8-23.466 7.378-24.786zm60.762 106.223c15.254-14.253 17.22-38.086 3.995-54.702l-1.938 1.938c12.642 15.884 11.403 38.363-2.057 52.764zm0 0a40.61 40.61 0 01-2.429 2.097l-1.939 1.938a40.604 40.604 0 004.368-4.035zm-27.671-29.61h31.119l-1.938 1.938h-31.12m1.939-1.938l-1.939 1.938m1.939-1.938v31.148l-1.939 1.938v-31.148m-3.843-4.219c1.065-1.065 2.546-1.712 4.211-1.712l1.939-1.938c-1.667 0-3.148.648-4.213 1.714l-1.937 1.936zm0 0l-.002.002m59.334 55.886s0 0 0 0zM110.796 189.421s.001 0 0 0zm0 0a1.827 1.827 0 00-.492.894c-.055.251-.145.5-.327.682l-.639.639c-.375.375-.855.097-.48-.277l1.938-1.938zm57.766 57.451a.002.002 0 00-.002.002m0 0c-1.065 1.064-2.546 1.711-4.211 1.711l-1.939 1.938c1.667 0 3.148-.648 4.213-1.713l1.937-1.936zm299.852 118.512a33.675 33.675 0 00-10.028 6.935l-1.938 1.938a33.675 33.675 0 0110.028-6.935m1.938-1.938l-1.938 1.938m1.938-1.938l.001 50.43-1.939 1.938v-50.43m-8.088 4.999l-.009.009m0 0c-15.648 15.65-14.044 43.486-14.044 43.486l-1.938 1.938s-1.605-27.847 14.052-43.495l1.93-1.929zm-38.123-6.946c26.303 11.866 24.08 50.43 24.08 50.43l-1.938 1.938s2.223-38.564-24.081-50.43m1.939-1.938l-1.939 1.938m1.939-1.938v50.43l-1.939 1.938v-50.43m-119.141 4.999l-.009.009m0 0c-15.648 15.65-14.043 43.486-14.043 43.486l-1.939 1.938s-1.605-27.847 14.053-43.495l1.929-1.929zm-164.63-157.17c-13.46 14.401-14.699 36.88-2.057 52.764l-1.939 1.938c-13.224-16.616-11.258-40.449 3.996-54.702zm0 0a40.706 40.706 0 014.368-4.035l-1.939 1.938a40.66 40.66 0 00-2.429 2.097zM261.042 365.39c26.304 11.865 24.081 50.429 24.081 50.429l-1.939 1.938s2.223-38.564-24.08-50.429m1.938-1.938l-1.938 1.938m1.938-1.938v50.429l-1.938 1.938v-50.429M92.19 298.891c.24-.241.549-.415.893-.492.251-.055.5-.145.683-.327l.639-.639c.374-.375.097-.854-.278-.48l-1.937 1.938zm0 0s0-.001 0 0zm73.276 89.117l-1.482-3.337-1.939 1.938 1.482 3.337m1.939-1.938l-1.939 1.938m1.939-1.938c8.891 17.799 20.375 34.114 35.194 47.463m-37.133-45.525c8.891 17.799 20.375 34.114 35.194 47.463m35.484 19.775l-1.938 1.937m1.938-1.937c.374-.375-.105-.652-.48-.278l-.64.64c-.181.182-.271.431-.327.682a1.83 1.83 0 01-.491.893m1.938-1.937s0-.001 0 0zm0 0c-.241.24-.549.415-.894.491-.251.056-.5.146-.682.328l-.639.639c-.375.374-.098.854.277.479m-31.607-23.65l-1.939 1.938m1.939-1.938c9.261 8.529 11.485 17.798 11.485 17.798l-1.939 1.938s-2.223-9.269-11.485-17.798m-42.926-11.823c1.621-1.619 3.841-2.637 6.247-2.637l1.938-1.938c-2.407 0-4.629 1.019-6.249 2.64l-1.936 1.935zm0 0l-.003.003m-29.229 11.735c14.819-15.203 27.785-31.889 36.676-50.8l-1.938 1.938c-8.891 18.911-21.858 35.597-36.676 50.8m1.938-1.938l-1.938 1.938m1.938-1.938c-7.78 7.787-9.632 15.944-9.632 15.944l-1.939 1.938s1.853-8.157 9.633-15.944m45.608-3.096l-.003.003m0 0c-1.62 1.62-3.841 2.637-6.246 2.637l-1.939 1.938c2.407 0 4.629-1.019 6.25-2.64l1.935-1.935zM58 372.695l-.008.009m0 0c-15.648 15.65-14.044 43.486-14.044 43.486l-1.938 1.938s-1.605-27.847 14.052-43.495l1.93-1.929zm55.859 85.013h-18.03a.968.968 0 00-.686.284c-.61.611-.178 1.654.686 1.654h18.03m0-1.938c.863 0 1.295 1.044.685 1.654a.968.968 0 01-.685.284m0-1.938h-59.9m59.9 1.938H52.012m-32.144-93.897c26.304 11.866 24.081 50.43 24.081 50.43l-1.938 1.938s2.222-38.564-24.08-50.43m1.938-1.938l-1.939 1.938m1.939-1.938v50.43l-1.939 1.938v-50.43m36.02 90.021l-1.938 1.938m1.939-1.938v53.767l-1.939 1.938v-53.767m73.329-313.698h74.144c1.009 0 1.827.818 1.827 1.827v41.213c0 .505-.204.962-.535 1.292-.33.331-.787.536-1.292.536h-74.144a1.827 1.827 0 01-1.827-1.828v-41.213a1.826 1.826 0 011.827-1.827zm5.582 0h62.609L162.043 42.132l-31.12 103.825zm62.789 73.537c13.897 17.46 11.02 42.89-6.424 56.799-17.445 13.909-42.852 11.03-56.748-6.43-13.896-17.461-11.02-42.891 6.425-56.799 17.444-13.909 42.851-11.03 56.747 6.43zm-25.371 25.097c0 1.67-.649 3.153-1.715 4.22-1.065 1.065-2.547 1.713-4.213 1.713-3.334 0-5.927-2.595-5.927-5.933 0-1.669.648-3.153 1.714-4.219 1.065-1.065 2.547-1.714 4.213-1.714 2.964 0 5.928 2.596 5.928 5.933zm2.593 187.257c0 2.411-1.02 4.637-2.642 6.259-1.621 1.621-3.842 2.64-6.249 2.64-4.816 0-8.892-4.079-8.892-8.899 0-2.412 1.02-4.638 2.642-6.26 1.621-1.621 3.843-2.64 6.25-2.64 5.186 0 8.891 4.079 8.891 8.9zm16.019-413.16l-1.82 1.762-1.938 1.938 1.819-1.762 1.939-1.938zm-15.931-2.229l15.93 2.225-1.938 1.938-15.93-2.225 1.938-1.938zM163.984 2l7.039 14.461-1.939 1.938-7.039-14.461L163.984 2zm21.147 18.451l-7.846 7.6-1.938 1.937 7.845-7.599 1.939-1.938zm-28.189-3.99L163.981 2l-1.939 1.938-7.039 14.461 1.939-1.938zm20.344 11.585l-1.82 1.762-1.938 1.938 1.819-1.762 1.939-1.938zm-1.82 1.763l2.593 15.574-1.938 1.938-2.593-15.574 1.938-1.938zM141.38 18.684l15.56-2.225-1.938 1.938-15.56 2.225 1.938-1.938zm11.485 11.128L141.38 18.688l-1.938 1.938 11.485 11.124 1.938-1.938zm11.115 8.157l-13.708 7.416-1.938 1.938 13.707-7.416 1.939-1.938zm-13.708 7.414l2.593-15.574-1.938 1.938-2.593 15.574 1.938-1.938zm45.202 98.633L163.984 40.19l-1.939 1.938 31.49 103.826 1.939-1.938zm6.346.046a1.83 1.83 0 011.385 1.385c.056.251-.058.501-.24.682l-.639.64c-.375.374-1.176.097-1.551-.278-.374-.374-.652-1.175-.277-1.549l.64-.64c.181-.182.431-.296.682-.24zM163.98 40.19l-31.119 103.826-1.939 1.938 31.12-103.826 1.938-1.938zm39.271 107.993v38.473a.968.968 0 01-.284.685c-.611.61-1.655.178-1.655-.685v-38.473c0-.257.102-.503.284-.685.611-.61 1.655-.178 1.655.685zm13.39 40.748a1.83 1.83 0 011.385 1.385c.056.251-.058.5-.24.682l-.64.639c-.374.375-1.175.098-1.55-.277-.374-.374-.652-1.175-.277-1.55l.639-.639c.182-.182.432-.296.683-.24zm-88.96-44.913h71.402a.97.97 0 110 1.938h-71.402c-.863 0-1.296-1.043-.685-1.654a.968.968 0 01.685-.284zm5.18 0h62.609l-1.938 1.938h-62.61l1.939-1.938zm38.903 44.866s-3.335-24.844-7.78-24.844l-1.939 1.938c4.446 0 7.78 24.844 7.78 24.844l1.939-1.938zm-.005.003h15.56l-1.938 1.938h-15.56l1.938-1.938zm-45.771-44.334l-1.939 1.938c.241-.241.549-.415.894-.491.251-.056.5-.146.682-.327l.64-.64c.374-.374.097-.854-.277-.48zm73.095 44.334h-71.402a.968.968 0 00-.685.284c-.611.61-.178 1.654.685 1.654h71.402a.966.966 0 00.685-.284c.611-.61.179-1.654-.685-1.654zm-86.591 0h101.41c.863 0 1.296 1.044.685 1.654a.968.968 0 01-.685.284h-101.41c-.864 0-1.296-1.044-.686-1.654a.97.97 0 01.686-.284zm105.58 4.165v101.509a.972.972 0 01-.284.685c-.611.611-1.655.178-1.655-.685V193.052c0-.257.102-.504.284-.685.611-.611 1.655-.178 1.655.685zm265.995 335.122H510l-1.938 1.938h-25.933l1.938-1.938zm-95.029-97.524v-14.832l-1.939 1.937v14.833l1.939-1.938zM125.454 186.656v-38.473c0-.863-1.044-1.295-1.655-.685a.968.968 0 00-.284.685v38.473c0 .863 1.044 1.295 1.655.685a.968.968 0 00.284-.685zm371.577 358.57h12.966l-1.938 1.938h-12.966l1.938-1.938zM138.903 211.123c17.445-13.909 42.852-11.03 56.748 6.43l-1.938 1.938c-13.897-17.46-39.304-20.339-56.748-6.43l1.938-1.938zm-13.449-22.236h15.559l-1.938 1.938h-15.56l1.939-1.938zm109.285 242.878h275.258l-1.938 1.938H232.801l1.938-1.938zm-110.3-243.692l-.64.639c-.182.182-.296.432-.24.682a1.83 1.83 0 001.385 1.386c.251.056.501-.059.683-.241l.639-.639c.375-.374.098-1.175-.277-1.55-.375-.374-1.176-.652-1.55-.277zm108.872 108.388a1.83 1.83 0 011.386 1.386c.056.25-.059.5-.24.682l-.64.639c-.374.375-1.176.097-1.55-.277-.375-.375-.652-1.176-.277-1.55l.639-.639c.182-.182.432-.296.682-.241zm-68.962-59.743c2.964 0 5.927 2.596 5.927 5.933l-1.938 1.938c0-3.337-2.964-5.933-5.928-5.933l1.939-1.938zm5.931 5.931c0 1.669-.648 3.153-1.714 4.219l-1.939 1.938c1.066-1.066 1.715-2.55 1.715-4.219l1.938-1.938zm-11.857.003c0-1.669.649-3.153 1.715-4.219l-1.938 1.938c-1.066 1.066-1.715 2.55-1.715 4.219l1.938-1.938zm182.456 173.166v14.832l-1.939 1.938v-14.833l1.939-1.937zm127.534 14.832v-14.832l-1.939 1.937v14.833l1.939-1.938zm-48.159-14.832v14.832l-1.939 1.938v-14.833l1.939-1.937zM164.351 248.582c-3.334 0-5.928-2.596-5.928-5.933l-1.938 1.938c0 3.337 2.593 5.933 5.927 5.933l1.939-1.938zm53.721 66.376v15.574l-1.939 1.938v-15.574l1.939-1.938zm-28.846-40.604c-17.445 13.909-42.851 11.03-56.748-6.431l-1.938 1.938c13.896 17.46 39.303 20.339 56.747 6.431l1.939-1.938zM309.205 430.65v-14.832l-1.939 1.937v14.833l1.939-1.938zM95.821 296.418h134.752c.864 0 1.296 1.044.685 1.654a.966.966 0 01-.685.284H95.821c-.864 0-1.296-1.044-.686-1.654a.968.968 0 01.686-.284zm14.44-1.857V193.052c0-.863-1.044-1.296-1.655-.685a.97.97 0 00-.284.685v101.509c0 .863 1.044 1.296 1.655.685a.968.968 0 00.284-.685zm103.641 2.229h-101.41a.97.97 0 00-.686.284c-.61.61-.178 1.654.686 1.654h101.41a.968.968 0 00.685-.284c.611-.61.178-1.654-.685-1.654zm95.671 161.299h31.12l-1.939 1.938h-31.119l1.938-1.938zm15.565 15.572h20.376l-1.938 1.938H323.2l1.938-1.938zm-90.399-173.075v154.905a.968.968 0 01-.284.685c-.61.611-1.654.178-1.654-.685V300.586c0-.257.102-.503.283-.685.611-.611 1.655-.178 1.655.685zm-70.755 14.372v15.574l-1.939 1.938v-15.574l1.939-1.938zm97.058 100.86v14.832l-1.938 1.938v-14.833l1.938-1.937zm-167.448-68.6h141.148l-1.938 1.938H91.655l1.939-1.938zm15.652-51.239l-.64.639c-.181.182-.296.432-.24.683a1.829 1.829 0 001.386 1.385c.251.056.5-.059.682-.24l.639-.64c.375-.374.098-1.175-.277-1.55-.374-.374-1.176-.651-1.55-.277zm163.708 161.782a1.83 1.83 0 011.386 1.385c.056.251-.059.501-.241.682l-.639.64c-.375.374-1.176.097-1.55-.278-.375-.374-.652-1.175-.278-1.549l.64-.64c.182-.182.431-.296.682-.24zM93.637 297.849a1.82 1.82 0 01.492-.894l-1.939 1.938c-.374.375.105.652.48.277l.64-.639c.181-.182.271-.432.327-.682zm16.624 17.109v15.574l-1.939 1.938v-15.574l1.939-1.938zm104.877 142.759h55.077c.863 0 1.296 1.044.685 1.654a.968.968 0 01-.685.284h-55.077c-.863 0-1.296-1.043-.685-1.654a.968.968 0 01.685-.284zm15.434 0h-17.659a.97.97 0 00-.686.284c-.61.611-.178 1.654.686 1.654h17.659a.968.968 0 00.685-.284c.611-.61.178-1.654-.685-1.654zm43.81 4.169v97.774a.968.968 0 01-.284.685c-.611.61-1.655.178-1.655-.685v-97.774a.97.97 0 111.939 0zm-110.398-40.875c5.186 0 8.891 4.079 8.891 8.9l-1.939 1.938c0-4.821-3.704-8.9-8.891-8.9l1.939-1.938zm48.159 72.674v-40.418l-1.939 1.938v40.418l1.939-1.938zm-39.272-63.777c0 2.411-1.019 4.637-2.641 6.26l-1.939 1.938c1.622-1.623 2.642-3.849 2.642-6.26l1.938-1.938zm-17.779-.002c0-2.411 1.02-4.637 2.642-6.26l-1.939 1.938c-1.622 1.623-2.642 3.849-2.642 6.26l1.939-1.938zm8.891 8.901c-4.816 0-8.891-4.078-8.891-8.899l-1.939 1.938c0 4.821 4.076 8.899 8.892 8.899l1.938-1.938zm-70.39 16.684V300.586c0-.863-1.044-1.296-1.654-.685a.969.969 0 00-.284.685v154.905c0 .863 1.044 1.296 1.655.685a.969.969 0 00.284-.685zM68.03 365.758a33.68 33.68 0 00-10.028 6.935l-1.938 1.938a33.682 33.682 0 0110.028-6.935l1.938-1.938zm-.002 50.43v-50.43l-1.939 1.938v50.43l1.939-1.938zm48.903 37.079v10.754l-1.939 1.938v-10.754l1.939-1.938zm-48.903-21.875v-15.203l-1.939 1.938v15.203l1.939-1.938zm24.55 25.515l-.639.639c-.182.182-.296.431-.24.682a1.83 1.83 0 001.385 1.385c.251.056.5-.058.682-.24l.64-.639c.375-.375.097-1.176-.277-1.55-.375-.375-1.176-.652-1.55-.277zm-88.64-25.142h89.654l-1.939 1.938H2l1.938-1.938zm0 13.35h37.418l-1.939 1.938H2l1.938-1.938zm0 17.424h29.638l-1.939 1.938H2l1.938-1.938z" stroke="#7831B2" stroke-width="2.594" stroke-linecap="round" stroke-linejoin="round"/></svg>