<svg width="150" height="22" fill="none" xmlns="http://www.w3.org/2000/svg"><path d="M11 1l3.09 6.583L21 8.645l-5 5.12L17.18 21 11 17.582 4.82 21 6 13.765l-5-5.12 6.91-1.062L11 1zm32 0l3.09 6.583L53 8.645l-5 5.12L49.18 21 43 17.582 36.82 21 38 13.765l-5-5.12 6.91-1.062L43 1zm32 0l3.09 6.583L85 8.645l-5 5.12L81.18 21 75 17.582 68.82 21 70 13.765l-5-5.12 6.91-1.062L75 1zm32 0l3.09 6.583L117 8.645l-5 5.12L113.18 21 107 17.582 100.82 21l1.18-7.235-5-5.12 6.91-1.062L107 1zm32 0l3.09 6.583L149 8.645l-5 5.12L145.18 21 139 17.582 132.82 21l1.18-7.235-5-5.12 6.91-1.062L139 1z" fill="#7831B2" stroke="#7831B2" stroke-width="2" stroke-linecap="round" stroke-linejoin="round"/></svg>