<svg width="162" height="158" fill="none" xmlns="http://www.w3.org/2000/svg"><path d="M125.601 52.633c-13.836-14.016-27.725-28.136-40.544-43.2-.263-.254-.473-.405-.785-.504-3.278-1.289-6.704-2.111-10.085-3.347-.539-.17-.918-.034-1.206.274-.094.1-.18.207-.28.302-1.575 1.51-3.178 3.104-4.764 4.65-.8.778-2.053.86-2.904.136-2.35-1.997-4.45-4.33-6.582-6.557-.525-.507-1.354-.597-1.862-.073-.756.69-1.427 1.463-2.06 2.271-.787 1.003-2.223 1.237-3.248.48-2.383-1.763-4.764-3.56-6.89-5.653-.579-.61-1.715-.54-2.116.189C29.147 25.91 18.035 51.112 2.49 73.734a3.445 3.445 0 01-.394.457C.264 76.05-.782 81.058.713 83.165c.037.052.066.1.099.154.096.158.288.246.416.378 23.25 23.853 47.304 46.771 71.61 69.429 4.215 4.119 13.246 5.737 17.708.904.093-.101.22-.197.342-.26l.024-.012c22.609-10.567 46.019-19.602 69.326-28.583a.995.995 0 00.642-.53 1.418 1.418 0 00-.039-1.223 1.495 1.495 0 00-.277-.367c-1.92-1.816-3.84-3.632-5.737-5.405-1.018-.95-.959-2.579.138-3.436 1.586-1.239 3.163-2.447 4.763-3.732.561-.421.441-1.4.072-1.858-1.634-1.739-3.302-3.543-4.95-5.308-.736-.789-.828-1.994-.056-2.747 1.708-1.665 3.885-2.951 5.039-5.099.249-.52.289-1.19-.183-1.596a634.109 634.109 0 00-5.748-4.967c-.311-.265-.24-.773-.043-1.13.651-1.249 1.457-2.448 2.108-3.696.25-.52.236-1.294-.182-1.597-10.856-9.06-20.451-19.946-30.184-29.85zm29.031 68.353c1.22 1.153.82 3.181-.747 3.786-20.846 8.051-41.745 16.213-62.057 25.717a2.295 2.295 0 01-2.529-.389c-23.665-21.835-46.486-44.448-70.622-65.701-1.164-1.026-.993-2.887.35-3.667 19.91-11.564 40.844-21.165 61.711-30.896a2.294 2.294 0 012.62.486c23.27 24.121 46.954 47.677 71.274 70.664zM26.508 67.926c-3.252 3.25-6.607 6.553-9.86 9.803-.918.782-1.898 1.597-2.768 2.417-.453.426-1.046.69-1.663.613-2.762-.345-7.269-1.967-7.747-4.358-.102-.51.208-.986.601-1.328C28.764 54.456 50.467 31.442 72.985 9.54a2.36 2.36 0 012.418-.52c1.12.383 2.232.723 3.347 1.077 1.495.476 1.969 2.279.892 3.417-1.321 1.398-2.682 2.75-3.956 4.166-4.772 5.079-9.597 10.056-14.32 14.98-11.43 11.786-23.117 23.578-34.858 35.267zm12.785-28.72c-1.635 1.621-4.282-.676-2.93-2.54 4.799-6.523 9.491-13.252 14.237-19.878 1.716-2.434 3.33-5.223 5.21-7.655.801-1.035 2.316-1.046 3.235-.114 1.12 1.136 2.26 2.252 3.464 3.314 1.033.91 1.135 2.515.16 3.487-7.796 7.769-15.551 15.62-23.376 23.385zm10.171-25.34c-4.643 6.573-9.286 13.146-14.085 19.67-2.555 3.55-5.115 7.149-7.723 10.734-1.638 2.252-4.587.261-3.287-2.2C30.47 30.525 36.235 18.788 42.35 7.208c.694-1.314 2.45-1.623 3.623-.707 1.3 1.018 2.644 1.977 3.972 2.956a2.143 2.143 0 01.517 2.941c-.344.506-.682.994-.997 1.47zM2.977 81.326c-.393-.801.758-1.268 1.474-.734.922.688.738 2.098-.334 1.68a6.71 6.71 0 01-.265-.11c-.441-.23-.716-.513-.875-.836zm71.796 70.016c-21.745-20.278-43.264-40.787-64.092-61.879-1.438-1.456-.344-4.176 1.583-4.872.07-.025.138-.05.206-.077.921-.351 1.994-.271 2.736.376 24.37 21.249 47.334 44.041 70.984 66.035 1.022.951.94 2.608-.389 3.04-3.711 1.208-8.459-.142-11.028-2.623zm8.75-104.695c-.333-.413-.787-.447-1.137-.408a.716.716 0 00-.202.06c-.158.065-.355.053-.51.126C66.062 53.752 50.448 60.83 35.156 68.77 50.685 57.683 66.214 46.597 82.32 36.392a2.289 2.289 0 012.87.348c23.052 23.902 47.444 46.418 70.093 70.639a2.26 2.26 0 01-.261 3.329l-2.414 1.886a2.296 2.296 0 01-2.996-.142 2072.432 2072.432 0 01-66.09-65.805zm70.022 51.526c-1.021.884-2.613.912-3.55-.06-21.277-22.095-43.74-43.106-64.95-65.262-.37-.459-1.097-.602-1.555-.233-15.755 9.74-30.77 20.398-45.834 31.212 1.425-1.261 2.802-2.366 4.228-3.627a4785.326 4785.326 0 0041.533-35.41 2.298 2.298 0 013.223.223c21.41 24.312 44.399 47.09 68.786 68.428.903.79 1.039 2.144.16 2.96-.655.607-1.357 1.176-2.041 1.769zm-1.909-12.012c-.017.034-.043.054-.067.084-.082.102-.169.18-.268.091a743.457 743.457 0 01-65.123-65.78c-.526-.507-1.404-.442-1.863-.073C70.307 32.569 56.192 44.45 42.13 56.434 53.817 44.643 65.344 32.544 76.769 20.5c1.824-1.921 3.793-3.845 5.623-5.895.956-1.071 2.657-1.105 3.6-.024 12.032 13.788 24.856 26.93 37.675 39.837 9.073 9.29 18.065 19.332 28.008 27.788a2.336 2.336 0 01.515 2.928c-.195.348-.382.691-.554 1.027z" fill="#FFFCFF"/><path d="M47.755 88.287c10.262-5.328 20.74-10.243 31.379-14.848 1.563-.68.221-3.004-1.241-2.376-10.64 4.605-21.118 9.52-31.38 14.848-1.61.836-.267 3.16 1.242 2.376zm39.728-7.957c-11.113 3.695-20.778 10.65-31.65 15.05-1.566.675-.158 3.125 1.307 2.503 10.57-4.243 20.135-11.146 30.99-14.846 1.68-.456 1.032-3.164-.647-2.707zM68.82 108.167c8.392-4.823 17.15-10.42 26.302-13.54 1.61-.603 1.062-2.883-.495-2.424-9.456 3.278-18.315 8.927-26.909 13.855-1.514.787-.413 2.896 1.102 2.109zm36.671-7.973c-10.082 4.538-19.25 10.576-28.998 15.754-1.547.803-.449 2.905 1.098 2.102 9.748-5.178 18.916-11.216 28.998-15.754 1.697-.765.448-2.905-1.098-2.102zM72.717 12.497c-9.196 9.9-19.013 19.354-28.521 28.903C33.575 52.04 23.22 63.438 11.82 73.33c-1.317 1.195.554 3.043 1.87 1.847 11.401-9.892 21.808-21.19 32.377-31.93 9.508-9.55 19.325-19.003 28.52-28.902 1.216-1.144-.708-3.092-1.87-1.848z" fill="#FFFCFF"/><path d="M125.601 52.633c-13.836-14.016-27.725-28.136-40.544-43.2-.263-.254-.473-.405-.785-.504-3.278-1.289-6.704-2.111-10.085-3.347-.539-.17-.918-.034-1.206.274-.094.1-.18.207-.28.302-1.575 1.51-3.178 3.104-4.764 4.65-.8.778-2.053.86-2.904.136-2.35-1.997-4.45-4.33-6.582-6.557-.525-.507-1.354-.597-1.862-.073-.756.69-1.427 1.463-2.06 2.271-.787 1.003-2.223 1.237-3.248.48-2.383-1.763-4.764-3.56-6.89-5.653-.579-.61-1.715-.54-2.116.189C29.147 25.91 18.035 51.112 2.49 73.734a3.445 3.445 0 01-.394.457C.264 76.05-.782 81.058.713 83.165c.037.052.066.1.099.154.096.158.288.246.416.378 23.25 23.853 47.304 46.771 71.61 69.429 4.215 4.119 13.246 5.737 17.708.904.093-.101.22-.197.342-.26l.024-.012c22.609-10.567 46.019-19.602 69.326-28.583a.995.995 0 00.642-.53 1.418 1.418 0 00-.039-1.223 1.495 1.495 0 00-.277-.367c-1.92-1.816-3.84-3.632-5.737-5.405-1.018-.95-.959-2.579.138-3.436 1.586-1.239 3.163-2.447 4.763-3.732.561-.421.441-1.4.072-1.858-1.634-1.739-3.302-3.543-4.95-5.308-.736-.789-.828-1.994-.056-2.747 1.708-1.665 3.885-2.951 5.039-5.099.249-.52.289-1.19-.183-1.596a634.109 634.109 0 00-5.748-4.967c-.311-.265-.24-.773-.043-1.13.651-1.249 1.457-2.448 2.108-3.696.25-.52.236-1.294-.182-1.597-10.856-9.06-20.451-19.946-30.184-29.85zm29.031 68.353c1.22 1.153.82 3.181-.747 3.786-20.846 8.051-41.745 16.213-62.057 25.717a2.295 2.295 0 01-2.529-.389c-23.665-21.835-46.486-44.448-70.622-65.701-1.164-1.026-.993-2.887.35-3.667 19.91-11.564 40.844-21.165 61.711-30.896a2.294 2.294 0 012.62.486c23.27 24.121 46.954 47.677 71.274 70.664zM26.508 67.926c-3.252 3.25-6.607 6.553-9.86 9.803-.918.782-1.898 1.597-2.768 2.417-.453.426-1.046.69-1.663.613-2.762-.345-7.269-1.967-7.747-4.358-.102-.51.208-.986.601-1.328C28.764 54.456 50.467 31.442 72.985 9.54a2.36 2.36 0 012.418-.52c1.12.383 2.232.723 3.347 1.077 1.495.476 1.969 2.279.892 3.417-1.321 1.398-2.682 2.75-3.956 4.166-4.772 5.079-9.597 10.056-14.32 14.98-11.43 11.786-23.117 23.578-34.858 35.267zm12.785-28.72c-1.635 1.621-4.282-.676-2.93-2.54 4.799-6.523 9.491-13.252 14.237-19.878 1.716-2.434 3.33-5.223 5.21-7.655.801-1.035 2.316-1.046 3.235-.114 1.12 1.136 2.26 2.252 3.464 3.314 1.033.91 1.135 2.515.16 3.487-7.796 7.769-15.551 15.62-23.376 23.385zm10.171-25.34c-4.643 6.573-9.286 13.146-14.085 19.67-2.555 3.55-5.115 7.149-7.723 10.734-1.638 2.252-4.587.261-3.287-2.2C30.47 30.525 36.235 18.788 42.35 7.208c.694-1.314 2.45-1.623 3.623-.707 1.3 1.018 2.644 1.977 3.972 2.956a2.143 2.143 0 01.517 2.941c-.344.506-.682.994-.997 1.47zM2.977 81.326c-.393-.801.758-1.268 1.474-.734.922.688.738 2.098-.334 1.68a6.71 6.71 0 01-.265-.11c-.441-.23-.716-.513-.875-.836zm71.796 70.016c-21.745-20.278-43.264-40.787-64.092-61.879-1.438-1.456-.344-4.176 1.583-4.872.07-.025.138-.05.206-.077.921-.351 1.994-.271 2.736.376 24.37 21.249 47.334 44.041 70.984 66.035 1.022.951.94 2.608-.389 3.04-3.711 1.208-8.459-.142-11.028-2.623zm8.75-104.695c-.333-.413-.787-.447-1.137-.408a.716.716 0 00-.202.06c-.158.065-.355.053-.51.126C66.062 53.752 50.448 60.83 35.156 68.77 50.685 57.683 66.214 46.597 82.32 36.392a2.289 2.289 0 012.87.348c23.052 23.902 47.444 46.418 70.093 70.639a2.26 2.26 0 01-.261 3.329l-2.414 1.886a2.296 2.296 0 01-2.996-.142 2072.432 2072.432 0 01-66.09-65.805zm70.022 51.526c-1.021.884-2.613.912-3.55-.06-21.277-22.095-43.74-43.106-64.95-65.262-.37-.459-1.097-.602-1.555-.233-15.755 9.74-30.77 20.398-45.834 31.212 1.425-1.261 2.802-2.366 4.228-3.627a4785.326 4785.326 0 0041.533-35.41 2.298 2.298 0 013.223.223c21.41 24.312 44.399 47.09 68.786 68.428.903.79 1.039 2.144.16 2.96-.655.607-1.357 1.176-2.041 1.769zm-1.909-12.012c-.017.034-.043.054-.067.084-.082.102-.169.18-.268.091a743.457 743.457 0 01-65.123-65.78c-.526-.507-1.404-.442-1.863-.073C70.307 32.569 56.192 44.45 42.13 56.434 53.817 44.643 65.344 32.544 76.769 20.5c1.824-1.921 3.793-3.845 5.623-5.895.956-1.071 2.657-1.105 3.6-.024 12.032 13.788 24.856 26.93 37.675 39.837 9.073 9.29 18.065 19.332 28.008 27.788a2.336 2.336 0 01.515 2.928c-.195.348-.382.691-.554 1.027z" stroke="#FFFCFF" stroke-width="1.523"/><path d="M47.755 88.287c10.262-5.328 20.74-10.243 31.379-14.848 1.563-.68.221-3.004-1.241-2.376-10.64 4.605-21.118 9.52-31.38 14.848-1.61.836-.267 3.16 1.242 2.376zm39.728-7.957c-11.113 3.695-20.778 10.65-31.65 15.05-1.566.675-.158 3.125 1.307 2.503 10.57-4.243 20.135-11.146 30.99-14.846 1.68-.456 1.032-3.164-.647-2.707zM68.82 108.167c8.392-4.823 17.15-10.42 26.302-13.54 1.61-.603 1.062-2.883-.495-2.424-9.456 3.278-18.315 8.927-26.909 13.855-1.514.787-.413 2.896 1.102 2.109zm36.671-7.973c-10.082 4.538-19.25 10.576-28.998 15.754-1.547.803-.449 2.905 1.098 2.102 9.748-5.178 18.916-11.216 28.998-15.754 1.697-.765.448-2.905-1.098-2.102zM72.717 12.497c-9.196 9.9-19.013 19.354-28.521 28.903C33.575 52.04 23.22 63.438 11.82 73.33c-1.317 1.195.554 3.043 1.87 1.847 11.401-9.892 21.808-21.19 32.377-31.93 9.508-9.55 19.325-19.003 28.52-28.902 1.216-1.144-.708-3.092-1.87-1.848z" stroke="#FFFCFF" stroke-width="1.523"/></svg>