<svg width="46" height="44" fill="none" xmlns="http://www.w3.org/2000/svg"><path d="M15.809 1.99c-5.154 1.83-10.38 5.28-13.356 9.714-5.806 8.798-.363 19.567 6.533 26.184 7.621 7.25 18.364 8.024 27.22 2.463 3.846-2.393 7.185-5.842 8.854-10.065 1.815-4.505.726-9.573-.943-13.937-1.815-4.856-5.008-9.361-9.436-12.317C28.947.16 22.269.23 15.809 1.99c-.29.07 1.379 2.956 2.323 2.674 5.516-1.548 11.54-1.9 16.622.986 4.79 2.745 7.113 8.094 8.202 13.162 1.669 7.954-2.323 14.57-9.146 18.863-7.912 4.998-18.654 5.35-25.405-1.76-6.46-6.756-8.347-16.68-1.742-23.79 3.049-3.308 7.259-5.983 11.541-7.46.29-.142-1.451-3.027-2.395-2.675z" fill="#7831B2"/><path d="M14.285 26.837c2.395 1.549 4.064 3.942 5.734 6.194 1.089 1.478 1.96 3.449 3.92 3.871.217.07.507 0 .58-.281 1.016-6.265 3.92-12.67 7.04-18.23 1.888-3.309 3.848-6.406 6.098-9.432 1.452-1.971 3.411-4.223 4.355-6.476.435-.985-2.25-3.308-2.686-2.182-.943 2.182-3.048 4.575-4.5 6.476-1.524 2.111-2.976 4.223-4.282 6.475-2.686 4.575-5.081 9.432-6.969 14.36-.435 1.055-.725 2.181-1.016 3.237-.218.774-.363 1.549-.58 2.323 1.088 1.408 1.306 1.689.725.844-.58-1.126-1.451-1.97-2.177-2.956-1.96-2.534-3.702-4.645-6.46-6.475-1.96-1.197-.799 1.618.218 2.252z" fill="#7831B2"/></svg>