<svg width="70" height="71" fill="none" xmlns="http://www.w3.org/2000/svg"><path d="M24.057 4.083C16.215 6.993 8.262 12.48 3.733 19.535c-8.836 13.996-.552 31.128 9.941 41.653 11.598 11.533 27.945 12.765 41.42 3.919C60.95 61.3 66.03 55.813 68.57 49.095c2.762-7.166 1.105-15.228-1.436-22.17-2.761-7.726-7.621-14.892-14.359-19.595-8.725-6.16-18.887-6.047-28.718-3.247-.442.112 2.099 4.702 3.535 4.255 8.394-2.464 17.562-3.024 25.294 1.567 7.29 4.367 10.824 12.877 12.481 20.939 2.54 12.652-3.535 23.178-13.917 30.008-12.04 7.95-28.387 8.51-38.66-2.8C2.96 47.305.089 31.517 10.14 20.207c4.639-5.262 11.045-9.517 17.562-11.868.442-.224-2.21-4.815-3.645-4.255z" fill="#262626"/><path d="M21.737 43.608c3.645 2.464 6.186 6.27 8.726 9.854 1.657 2.351 2.983 5.486 5.965 6.158.331.112.773 0 .884-.448 1.546-9.965 5.964-20.154 10.714-29 2.871-5.263 5.854-10.19 9.278-15.004 2.209-3.135 5.191-6.719 6.627-10.302.663-1.567-3.424-5.262-4.087-3.47-1.436 3.47-4.639 7.277-6.848 10.3-2.32 3.36-4.529 6.719-6.517 10.302-4.087 7.278-7.732 15.004-10.603 22.842-.663 1.68-1.105 3.471-1.547 5.15-.331 1.232-.552 2.464-.883 3.696 1.656 2.24 1.988 2.687 1.104 1.343-.883-1.791-2.209-3.135-3.313-4.702-2.983-4.031-5.634-7.39-9.831-10.302-2.982-1.903-1.215 2.576.331 3.583z" fill="#262626"/></svg>