<svg width="49" height="64" fill="none" xmlns="http://www.w3.org/2000/svg"><path d="M45.373 6.634c-.14-.746-.373-1.486-.882-2.114-1.642-2.256-4.936-3.846-7.584-2.553-2.096 1.071-3.638 3.522-4.834 5.48-1.285 2.058-2.464 4.298-3.654 6.35-1.794 2.938-3.49 5.964-5.184 8.99a50.64 50.64 0 00-2.111 3.899c-.194-.083-.469.028-.451.31-.083.194-.065.475-.054.663-.457.217-.803.709-1.06 1.102-.517.785-1.038 1.477-1.554 2.263-1.307 1.682-2.515 3.453-3.728 5.13-1.126 1.576-2.164 3.053-3.295 4.536-.785.991-1.928 2.286-2.316 3.63-.182.105-.27.205-.252.486-1.43 1.219-3.473 1.627-5.224 2.205-.275.111-.539.41-.428.686.337 2.43.393 4.877.168 7.342-.118 1.138-.424 2.288-.735 3.344a9.264 9.264 0 00-.376 1.53c-.153.576-.119 1.14-.277 1.62-.077.288.31.452.485.253 1.39-1.876 3.58-2.952 5.589-3.924 2.466-1.187 4.849-2.181 7.56-2.441a.642.642 0 00.615-.698c-.157-1.027-.402-1.955-.465-2.987-.052-.846.09-1.608.137-2.365.638-.322.984-.815 1.424-1.313l2.075-2.954c1.384-1.97 2.761-4.034 4.145-6.004 1.295-1.87 2.597-3.646 3.793-5.604.258-.393.692-.985.845-1.56.368-.117.726-.421 1.083-.726.534-.504.868-1.184 1.401-1.688.71-.703 1.418-1.406 2.034-2.104 2.637-2.989 4.976-6.242 7.414-9.408 1.66-2.08 3.417-4.074 4.684-6.413.51-.88.827-1.842 1.05-2.798.211.364.322.64.445 1.104.25 1.022.231 2.248.014 3.298-.424 2.288-1.89 4.452-3.28 6.327-1.482 1.882-2.866 3.852-4.448 5.645-1.494 1.694-3.545 3.516-4.256 5.727-.246.581.356 1.204.895.794 1.177-.732 2.144-1.828 3.023-2.824.973-1.002 1.847-2.093 2.82-3.095 1.845-2.092 3.206-4.437 4.56-6.877 1.185-2.146 2.359-4.48 2.39-7.026-.109-1.785-.381-4.69-2.2-5.238zM6.797 56.782c-1.001.532-1.903 1.153-2.893 1.873.692-.985 1.29-1.964 1.981-2.949.692-.985 1.378-2.063 2.07-3.048l.774-1.179c.17-.293.434-.592.41-.967-.005-.094-.105-.182-.198-.177-.375.023-.633.416-.803.71l-.774 1.178c-.692.985-1.284 2.058-1.976 3.042-.428.686-.944 1.472-1.372 2.158.147-.669.294-1.338.348-2 .23-2.371-.575-4.773-.344-7.143 1.774-.203 3.408-1.151 4.644-2.452.45 1.198 1.356 2.18 2.62 2.856.778.424 1.843.924 2.879.955-.053.663-.013 1.32-.072 1.89.052.844.11 1.783.255 2.623-2.705.354-5.182 1.354-7.549 2.63zm15.147-19.778a121.372 121.372 0 00-3.782 5.792l-2.04 3.518c-.598.98-.998 2.135-2.233 1.928-1.99-.256-3.861-1.65-4.544-3.587.346-.492.686-1.079 1.026-1.665.521-.692 1.137-1.39 1.664-1.987 1.154-1.308 2.143-2.605 3.122-3.902l.196-.26c1.213-1.676 2.433-3.259 3.652-4.842.521-.691.944-1.471 1.466-2.163.175-.2.345-.492.615-.697.93 1.357 2.778 2.375 4.118 2.764.094-.006.094-.006.193.082-1.125 1.577-2.24 3.342-3.453 5.019zm21.449-28.93c-.33 2.283-1.989 4.364-3.296 6.046-1.747 2.18-3.493 4.36-5.047 6.624-1.131 1.483-2.163 3.054-3.195 4.625-1.038 1.478-1.976 3.043-3.218 4.25-.44.498-.973 1.002-1.617 1.23-.738.234-1.61-.184-2.288-.52-1.159-.494-2.335-1.27-2.872-2.369 1.987-2.855 3.67-6.068 5.371-9a215.624 215.624 0 016.843-11.07c1.126-1.576 2.551-4.397 4.81-4.347 2.342-.143 4.916 1.962 4.509 4.531z" fill="#FFFCFF"/><path d="M7.955 52.658c-.692.985-1.378 2.063-2.07 3.048-.691.985-1.29 1.964-1.981 2.95.99-.721 1.892-1.342 2.893-1.874 2.367-1.276 4.844-2.276 7.549-2.63-.146-.84-.203-1.779-.255-2.624.059-.569.019-1.226.072-1.89-1.036-.03-2.1-.53-2.879-.954-1.264-.677-2.17-1.658-2.62-2.856-1.236 1.3-2.87 2.25-4.644 2.452-.23 2.37.574 4.772.344 7.142-.054.663-.2 1.332-.348 2.001.428-.686.944-1.472 1.372-2.158.692-.984 1.284-2.057 1.976-3.042m.59.435l.775-1.179m-.774 1.179l.774-1.179m0 0c.17-.293.434-.592.41-.967-.005-.094-.105-.182-.198-.177-.375.023-.633.416-.803.71m0 0l-.774 1.178m.774-1.179l-.774 1.179m10.798-9.427a121.372 121.372 0 013.782-5.792c1.214-1.677 2.328-3.442 3.453-5.019-.1-.088-.1-.088-.193-.082-1.34-.39-3.189-1.407-4.118-2.764-.27.205-.44.498-.615.697-.522.692-.945 1.472-1.466 2.163-1.22 1.583-2.439 3.166-3.652 4.842l-.196.26c-.979 1.297-1.968 2.594-3.122 3.902-.527.598-1.143 1.295-1.664 1.987-.34.586-.68 1.173-1.026 1.665.683 1.938 2.554 3.331 4.544 3.587 1.235.207 1.635-.949 2.233-1.928m2.04-3.518l-2.04 3.518m2.04-3.518l-2.04 3.518m29.251-39.68c-.14-.746-.373-1.486-.882-2.114-1.642-2.256-4.936-3.846-7.584-2.553-2.096 1.071-3.638 3.522-4.834 5.48-1.285 2.058-2.464 4.298-3.654 6.35-1.794 2.938-3.49 5.964-5.184 8.99a50.64 50.64 0 00-2.111 3.899c-.194-.083-.469.028-.451.31-.083.194-.065.475-.054.663-.457.217-.803.709-1.06 1.102-.517.785-1.038 1.477-1.554 2.263-1.307 1.682-2.515 3.453-3.728 5.13-1.126 1.576-2.164 3.053-3.295 4.536-.785.991-1.928 2.286-2.316 3.63-.182.105-.27.205-.252.486-1.43 1.219-3.473 1.627-5.224 2.205-.275.111-.539.41-.428.686.337 2.43.393 4.877.168 7.342-.118 1.138-.424 2.288-.735 3.344a9.264 9.264 0 00-.376 1.53c-.153.576-.119 1.14-.277 1.62-.077.288.31.452.485.253 1.39-1.876 3.58-2.952 5.589-3.924 2.466-1.187 4.849-2.181 7.56-2.441a.642.642 0 00.615-.698c-.157-1.027-.402-1.955-.465-2.987-.052-.846.09-1.608.137-2.365.638-.322.984-.815 1.424-1.313l2.075-2.954c1.384-1.97 2.761-4.034 4.145-6.004 1.295-1.87 2.597-3.646 3.793-5.604.258-.393.692-.985.845-1.56.368-.117.726-.421 1.083-.726.534-.504.868-1.184 1.401-1.688.71-.703 1.418-1.406 2.034-2.104 2.637-2.989 4.976-6.242 7.414-9.408 1.66-2.08 3.417-4.074 4.684-6.413.51-.88.827-1.842 1.05-2.798.211.364.322.64.445 1.104.25 1.022.231 2.248.014 3.298-.424 2.288-1.89 4.452-3.28 6.327-1.482 1.882-2.866 3.852-4.448 5.645-1.494 1.694-3.545 3.516-4.256 5.727-.246.581.356 1.204.895.794 1.177-.732 2.144-1.828 3.023-2.824.973-1.002 1.847-2.093 2.82-3.095 1.845-2.092 3.206-4.437 4.56-6.877 1.185-2.146 2.359-4.48 2.39-7.026-.109-1.785-.381-4.69-2.2-5.238zm-1.98 1.44c-.33 2.283-1.989 4.364-3.296 6.046-1.747 2.18-3.493 4.36-5.047 6.624-1.131 1.483-2.163 3.054-3.195 4.625-1.038 1.478-1.976 3.043-3.218 4.25-.44.498-.973 1.002-1.617 1.23-.738.234-1.61-.184-2.288-.52-1.159-.494-2.335-1.27-2.872-2.369 1.987-2.855 3.67-6.068 5.371-9a215.624 215.624 0 016.843-11.07c1.126-1.576 2.551-4.397 4.81-4.347 2.342-.143 4.916 1.962 4.509 4.531z" stroke="#FFFCFF" stroke-width="2.284"/></svg>