<svg width="50" height="38" fill="none" xmlns="http://www.w3.org/2000/svg"><path fill-rule="evenodd" clip-rule="evenodd" d="M48.911 23.972c-.397-3.104-3.045-5.129-5.56-6.479-1.265-.644-2.77-.796-4.057-.926l-.18-.018c-5.031-.675.53-11.608 1.589-13.363.264-.54.132-1.08-.265-1.35-.265-.674-.927-1.08-1.721-.674-9.003 5.803-21.051 37.523-1.721 35.768 6.354-.54 12.842-6.479 11.915-12.958zM36.598 6.291l-.145.368c-.47 1.194-1.011 2.567-1.375 3.95l-.069.27-.002-.008-.262.954c-.405 1.754-.655 3.429-.455 4.724.03.187.068.367.117.538.197.64.65 1.484 1.53 1.891.397.135.794.27 1.323.27 1.06 0 2.119.135 3.178.405l1.059.405c1.261.514 2.282 1.273 3.177 2.16l.021.022.112.113-.008.007c.237.297.533.814.67 1.072 1.324 2.43.794 5.534-2.78 8.234-1.722 1.35-3.443 2.024-5.032 2.295-.21.044-.85.134-1.72.134-1.722-.135-3.443-.81-4.635-2.024a6.478 6.478 0 01-.53-.675c-.926-1.215-1.588-2.835-1.72-4.724-.088-.225-.265-.972-.265-2.16a25.74 25.74 0 01.931-5.37c.119-.414.25-.829.393-1.244a9.58 9.58 0 00.153-.117l2.23-5.551c1.192-2.16 2.648-4.185 4.104-5.94zM23.256 23.972c-.397-3.104-3.045-5.129-5.56-6.479-1.265-.644-2.77-.796-4.057-.926l-.18-.018c-5.031-.675.53-11.608 1.589-13.363.264-.54.132-1.08-.265-1.35-.265-.674-.927-1.08-1.721-.674C4.059 6.965-7.99 38.685 11.34 36.93c6.354-.54 12.842-6.479 11.915-12.958zM10.943 6.291l-.145.368c-.47 1.194-1.011 2.567-1.375 3.95l-.068.27a1.055 1.055 0 00-.003-.008l-.262.954c-.405 1.754-.655 3.429-.455 4.724.03.187.068.367.117.538.196.64.65 1.484 1.53 1.891.396.135.794.27 1.323.27 1.06 0 2.119.135 3.178.405l1.059.405c1.261.514 2.282 1.273 3.177 2.16l.021.022.112.113-.008.007c.237.297.533.814.67 1.072 1.324 2.43.794 5.534-2.78 8.234-1.722 1.35-3.443 2.024-5.031 2.295-.211.044-.85.134-1.722.134-1.72-.135-3.442-.81-4.634-2.024a6.47 6.47 0 01-.53-.675c-.926-1.215-1.588-2.835-1.72-4.724-.088-.225-.265-.972-.265-2.16a25.74 25.74 0 01.931-5.37c.119-.414.25-.829.393-1.244l.153-.117 2.23-5.551c1.192-2.16 2.648-4.185 4.104-5.94z" fill="#7831B2"/><path d="M39.114 16.549c-5.031-.675.53-11.608 1.589-13.363.264-.54.132-1.08-.265-1.35-.265-.674-.927-1.08-1.721-.674-9.003 5.803-21.051 37.523-1.721 35.768 6.354-.54 12.842-6.479 11.915-12.958-.397-3.104-3.045-5.129-5.56-6.479-1.265-.644-2.77-.796-4.057-.926m-.18-.018l.18.018m-.18-.018l.18.018M36.598 6.291c-1.456 1.754-2.912 3.779-4.104 5.938l-2.23 5.552m6.334-11.49l-.145.368m.145-.368l-.145.368m-1.84 10.97a3.277 3.277 0 01-.206-.542m10.4 5.266a.523.523 0 00-.008.007m.008-.007l-.008.007m.008-.007a14.77 14.77 0 00-.112-.113m-14.977-3.099a25.738 25.738 0 00-.931 5.371c0 1.188.177 1.935.265 2.16.132 1.89.794 3.51 1.72 4.724.27.382.466.609.53.675 1.192 1.215 2.913 1.89 4.634 2.024.871 0 1.51-.09 1.721-.134 1.59-.27 3.31-.945 5.032-2.295 3.574-2.7 4.104-5.804 2.78-8.234-.137-.258-.433-.775-.67-1.072m-15.08-3.219c.118-.413.248-.828.392-1.243a9.58 9.58 0 00.153-.117m-.546 1.36l.546-1.36m4.026-1.232c-.2-1.295.05-2.97.455-4.724l.262-.954m-.717 5.678c.03.187.068.367.117.538m-.117-.538c.016.143.053.33.117.538m2.046-10.428c-.47 1.194-1.011 2.567-1.375 3.95M44.8 22.36a1.614 1.614 0 00-.104-.12m-10.288-5.153c.197.64.65 1.484 1.53 1.891.397.135.794.27 1.323.27 1.06 0 2.119.135 3.178.405l1.059.405c1.261.514 2.282 1.273 3.177 2.16l.021.022m-9.617-11.63l-.069.27-.002-.01m.071-.26l-.072.26m-.058-.13c.023.04.042.084.059.13m-21.549 5.68c-5.031-.675.53-11.608 1.589-13.363.264-.54.132-1.08-.265-1.35-.265-.674-.927-1.08-1.721-.674C4.059 6.965-7.99 38.685 11.34 36.93c6.354-.54 12.842-6.479 11.915-12.958-.397-3.104-3.045-5.129-5.56-6.479-1.265-.644-2.77-.796-4.057-.926m-.18-.018l.18.018m-.18-.018l.18.018M10.944 6.291C9.487 8.045 8.031 10.07 6.84 12.229l-2.23 5.552m6.334-11.49l-.145.368m.145-.368l-.145.368m-1.84 10.97a3.27 3.27 0 01-.206-.542m10.4 5.266a.523.523 0 00-.008.007m.008-.007l-.008.007m.008-.007a13.124 13.124 0 00-.112-.113M4.063 19.141a25.737 25.737 0 00-.931 5.371c0 1.188.177 1.935.265 2.16.132 1.89.794 3.51 1.72 4.724.27.382.466.609.53.675 1.192 1.215 2.913 1.89 4.634 2.024.871 0 1.51-.09 1.721-.134 1.59-.27 3.31-.945 5.032-2.295 3.574-2.7 4.104-5.804 2.78-8.234-.137-.258-.433-.775-.67-1.072m-15.08-3.219c.118-.413.248-.828.392-1.243l.153-.117m-.546 1.36l.546-1.36m4.026-1.232c-.2-1.295.05-2.97.455-4.724l.262-.954m-.717 5.678c.03.187.068.367.117.538m-.117-.538c.016.143.053.33.117.538m2.046-10.428c-.47 1.194-1.011 2.567-1.375 3.95m9.722 11.751a1.614 1.614 0 00-.105-.12M8.752 17.087c.196.64.65 1.484 1.53 1.891.396.135.794.27 1.323.27 1.06 0 2.119.135 3.178.405l1.059.405c1.261.514 2.282 1.273 3.177 2.16l.021.022M9.423 10.61l-.068.27a1.055 1.055 0 00-.003-.01m.071-.26l-.071.26m-.059-.13c.023.04.043.084.059.13" stroke="#7831B2" stroke-width="1.263"/></svg>