<svg width="117" height="17" fill="none" xmlns="http://www.w3.org/2000/svg"><path d="M8.5 1l2.318 4.937L16 6.733l-3.75 3.841.885 5.426L8.5 13.437 3.865 16l.885-5.426L1 6.734l5.183-.797L8.5 1zm25 0l2.318 4.937L41 6.733l-3.75 3.841.885 5.426-4.635-2.563L28.865 16l.885-5.426L26 6.734l5.183-.797L33.5 1zm25 0l2.318 4.937L66 6.733l-3.75 3.841.885 5.426-4.635-2.563L53.865 16l.885-5.426L51 6.734l5.182-.797L58.5 1zm25 0l2.317 4.937L91 6.733l-3.75 3.841.885 5.426-4.635-2.563L78.865 16l.885-5.426L76 6.734l5.183-.797L83.5 1z" fill="#7831B2" stroke="#7831B2" stroke-width="2" stroke-linecap="round" stroke-linejoin="round"/><path fill-rule="evenodd" clip-rule="evenodd" d="M108.5 13.437l.579.32V2.234L108.5 1l-2.318 4.937-5.182.796 3.75 3.841-.885 5.426 4.635-2.563z" fill="#7831B2"/><path d="M109.079 2.234L108.5 1l-2.318 4.937-5.182.796 3.75 3.841-.885 5.426 4.635-2.563.579.32m0-11.523l.58 1.234 1.159 2.469 5.182.796-3.75 3.841.885 5.426-3.476-1.922-.58-.32m0-11.524v11.523" stroke="#7831B2" stroke-width="2" stroke-linecap="round" stroke-linejoin="round"/></svg>