<svg width="198" height="133" fill="none" xmlns="http://www.w3.org/2000/svg"><path d="M54.375 77.63c-2.071-20.183-5.382-58.36-2.962-58.846 3.02-.605 6.038 2.341 13.098 14.628.301.525.86.855 1.463.855h10.76c2.178 0 1.822-8.465.991-16.069-.196-1.79 2.17-2.698 3.142-1.183 7.04 10.983 16.674 27.375 19.501 37.155.274.95 1.26 1.526 2.18 1.167 11.503-4.48 25.107-18.895-.402-46.3-.688-.739-.629-1.934.231-2.46 12.255-7.498 45.195-9.978 93.053 32.544 1.252 1.112.282 3.164-1.37 2.902-13.259-2.105-33.712-4.898-40.128-4.04-9.263 1.238-11.116 1.857-1.852 15.482 3.829 5.631 6.833 10.403 9.014 14.042.938 1.566-.852 3.063-2.276 1.923-7.737-6.192-17.433-13.488-19.708-13.488-3.542 0-10.47-6.791-11.074 22.365-.032 1.525-1.984 2.368-3.231 1.495-7.865-5.503-20.117-5.083-23.985 29.4-4.415 39.348-25.426 11.556-35.6-7.633a1.45 1.45 0 00-.641-.644c-2.15-1.04-5.314-.928-7.522 3.358-.925 1.796-6.31 2.212-7.147.373-3.172-6.976-7.02-8.799-10.122 6.812M54.374 77.63C30.233 86.958 29.732 57.097 33.49 37.343c.251-1.323-1.07-2.403-2.298-1.857-41.987 18.693-28.773 67.532-14.657 94.183.785 1.48 2.945.934 3.039-.739 2.536-44.948 10.876-33.478 16.443-17.186.595 1.741 3.412 1.528 3.77-.276M54.376 77.63c.075.737.688-.266 0 0zm-14.587 33.838c3.241-15.739 7.662-15.057 11.037-6.992.78 1.864 5.887 1.397 6.927-.334 1.797-2.993 4.258-2.419 6.212-1.367.276.149.49.377.637.654 10.174 19.188 31.185 46.981 35.6 7.632 3.863-34.435 16.469-36.412 24.435-31.33 1.284.82 3.255-.04 3.282-1.565.529-29.265 6.611-23.605 10.154-23.605 2.293 0 13.047 7.967 21.231 14.442 1.431 1.131 2.523.091 1.375-1.328-2.425-2.995-5.585-7.008-9.218-12.35-11.467-16.865-7.83-16.246 1.434-17.485 6.42-.858 27.36 1.707 40.742 3.75 1.654.253 2.625-1.808 1.372-2.92-47.91-42.512-81.657-39.759-93.978-32.236-.861.526-.92 1.72-.232 2.46 25.533 27.464 12.567 43.64 1.125 48.29-.914.372-1.9-.207-2.15-1.164-3.048-11.646-12.468-30.57-18.3-37.378-6.139-7.168-2.182 15.791-3.616 15.791-1.292 0-9.03 1.376-12.504 1.648-.602.046-1.16-.283-1.46-.809-7.066-12.374-10.191-17.235-13.21-16.63-2.42.486 1.186 36.418 3.269 56.511a1.667 1.667 0 01-1.05 1.71C28.765 86.307 29.13 58.571 32.864 39.205c.255-1.323-1.066-2.406-2.295-1.863-41.984 18.554-29.152 64.354-15.085 90.642.79 1.477 2.958.929 3.054-.744 2.53-43.74 11.8-34.194 17.606-18.093.624 1.73 3.271 4.122 3.642 2.321zm24.105-62.986c-3.847 4.803-8.51 14.62.49 19.846 11.381 6.606 8.82-18.825.767-20.364-.48-.092-.95.136-1.257.518zm15.928-5.545c4.118 1.239 11.117 6.441 6.176 17.34-6.176 13.625-16.057-21.675-6.176-17.34zM63.27 50.342c-3.847 4.803-8.51 14.62.49 19.846 11.38 6.607 8.82-18.825.767-20.364-.48-.092-.951.136-1.257.518zm15.935-5.545c4.117 1.238 11.116 6.44 6.175 17.34-6.175 13.625-16.057-21.675-6.175-17.34z" stroke="#A68AD5" stroke-width="3"/></svg>