<svg width="605" height="360" fill="none" xmlns="http://www.w3.org/2000/svg"><path d="M561.969 313.21L538.887 40.618l-4.411 3.732 23.082 272.592 4.411-3.732zM537.967 38.769c-191.755-50.342-421.714-14.262-513.17 9.15L20.79 50.54C112.246 27.128 342.692-6 534.448 44.342l3.519-5.573z" fill="#FFFCFF"/><path d="M43.79 320.473c237.609 65.042 444.452 22.256 518.172-7.267l-5.336 5.197c-73.72 29.523-279.792 71.176-517.402 6.134l4.565-4.064zM24.797 50.54l18.942 269.922-5.643 2.659L20.79 50.541h4.007zM589.348 1l-23.117 9.72-4.11 3.478 23.117-9.72L589.348 1zm3.694 12.486l-20.177 4.774-4.11 3.477 20.177-4.773 4.11-3.477zM15.744 334.84l-.792.548-4.11 3.477.792-.548 4.11-3.477z" fill="#FFFCFF"/><path d="M14.96 335.388l-9.052 6.262-4.11 3.477 9.051-6.262 4.11-3.477zm-9.058 6.265l-.792.548L1 345.678l.792-.548 4.11-3.477zm597.071 1.518l-14.253-8.436-4.11 3.477 14.253 8.436 4.11-3.477z" fill="#FFFCFF"/><path d="M20.79 50.54C112.246 27.128 342.692-6 534.448 44.342l3.519-5.573c-191.755-50.342-421.714-14.262-513.17 9.15L20.79 50.54zm0 0h4.007l18.942 269.922-5.643 2.659L20.79 50.541zm541.372-36.334l23.116-9.72m-19.034 6.234L589.36 1m-20.632 20.729l20.177-4.774m-16.062 1.298l20.177-4.774M1.037 345.689l10.634-7.358m-6.552 3.871l10.634-7.357m568.846 3.366l14.254 8.436m-10.107-11.903L603 343.18M538.887 40.618l23.082 272.592-4.411 3.732L534.476 44.35l4.411-3.732zm23.075 272.588c-73.72 29.523-280.563 72.309-518.173 7.267l-4.565 4.064c237.61 65.042 443.682 23.389 517.402-6.134l5.336-5.197zm4.269-302.485L589.348 1l-4.11 3.477-23.117 9.72 4.11-3.477zm6.634 7.54l20.177-4.774-4.11 3.477-20.177 4.774 4.11-3.478zM14.952 335.387l.792-.548-4.11 3.477-.792.548 4.11-3.477zm-9.044 6.262l9.051-6.262-4.11 3.477-9.05 6.262 4.11-3.477zm-.798.551l.792-.548-4.11 3.477-.792.548 4.11-3.477zm583.61-7.466l14.253 8.436-4.11 3.477-14.253-8.436 4.11-3.477z" stroke="#FFFCFF" stroke-width="2" stroke-linecap="round"/></svg>