<svg width="664" height="354" fill="none" xmlns="http://www.w3.org/2000/svg"><path d="M582.761 227.697l.706-46.473-4.595 3.419-.707 46.473 4.596-3.419zm45.495 80.28l-25.81-268.023-4.932 3.67 25.81 268.023 4.932-3.67zM601.418 38.136c-214.414-49.498-471.547-14.023-573.81 8.996l-4.48 2.578c102.263-23.02 359.94-55.592 574.354-6.094l3.936-5.48z" fill="#FFFCFF"/><path d="M48.845 315.119c265.687 63.952 496.972 21.883 579.403-7.146l-5.966 5.11c-82.432 29.029-312.855 69.984-578.542 6.032l5.105-3.996zM27.608 49.71l21.18 265.398-6.308 2.615L23.128 49.71h4.48zM658.87 1l-25.848 9.558-4.596 3.419 25.848-9.558L658.87 1zM663 13.277l-22.561 4.694-4.596 3.419 22.561-4.694L663 13.277zM17.486 329.245l-.885.539-4.596 3.419.885-.539 4.596-3.419z" fill="#FFFCFF"/><path d="M16.609 329.784l-10.12 6.157-4.596 3.419 10.12-6.157 4.596-3.419zm-10.129 6.16l-.884.538L1 339.901l.885-.538 4.596-3.419zm647.621-8.508l-15.938-8.294-4.595 3.419 15.938 8.294 4.595-3.419z" fill="#FFFCFF"/><path d="M579.362 204.649a.499.499 0 10-.999-.027l.999.027zm-1.706 26.446a.5.5 0 001 .027l-1-.027zm5.811-49.871l.5.008.015-1.015-.813.606.298.401zm-.706 46.473l.298.401.198-.147.004-.247-.5-.007zm-4.596 3.419l-.5-.008-.015 1.014.813-.605-.298-.401zm.707-46.473l-.299-.401-.198.147-.003.246.5.008zm23.574-144.69l.498-.047-.085-.883-.711.53.298.4zm25.81 268.024l.298.401.227-.168-.028-.281-.497.048zm-4.932 3.67l-.498.048.085.882.711-.529-.298-.401zm-25.81-268.024l-.298-.401-.227.168.027.281.498-.048zm-569.906 3.51l-.11-.489-.073.017-.066.038.25.433zm573.81-8.997l.406.292.438-.61-.731-.17-.113.488zm-3.936 5.48l-.112.487.324.075.194-.27-.406-.292zM23.128 49.71l-.25-.434-.271.157.022.313.499-.036zm605.12 258.263l.326.38-.492-.851.166.471zm-579.403 7.146l.117-.486-.235-.057-.19.149.308.394zm-5.105 3.996l-.308-.394-.815.637 1.006.243.117-.486zm578.542-6.032l.166.472.088-.031.071-.061-.325-.38zm-573.493 2.025l.191.462.336-.139-.029-.362-.498.039zM27.609 49.71l.498-.04-.037-.46h-.462v.5zm14.87 268.013l-.498.036.05.691.64-.265-.191-.462zm585.82-304.207a.5.5 0 10.347.938l-.347-.938zm26.195-8.62a.5.5 0 10-.347-.937l.347.938zm-21.471 5.662l-.173-.47-.068.026-.057.042.298.402zM658.87 1l.298.402-.471-.87.173.468zm-4.596 3.42l.174.468.067-.025.058-.042-.299-.402zm-25.848 9.557l-.298-.402.472.87-.174-.468zm4.436-3.889a.5.5 0 10.347.938l-.347-.938zm26.195-8.619a.5.5 0 10-.347-.938l.347.938zm-23.345 19.423a.5.5 0 00.204.979l-.204-.98zm22.765-3.715a.5.5 0 00-.204-.979l.204.98zm-18.038.794l-.102-.49-.108.023-.089.066.299.4zM663 13.277l.298.401-.4-.89.102.49zm-4.596 3.42l.102.489.108-.023.089-.066-.299-.4zm-22.561 4.693l-.298-.401.4.89-.102-.49zm4.47-3.916a.5.5 0 00.204.979l-.204-.98zm22.765-3.715a.5.5 0 00-.204-.979l.204.98zM.782 339.485a.5.5 0 10.52.854l-.52-.854zm12.41-6.38a.5.5 0 10-.52-.854l.52.854zm3.409-3.321l-.26-.428-.02.012-.019.014.299.402zm.885-.539l.298.401-.558-.828.26.427zm-4.596 3.419l.26.427.02-.012.019-.014-.299-.401zm-.885.539l-.298-.402.558.829-.26-.427zm-5.517 2.738l-.26-.427-.02.012-.018.014.298.401zm10.12-6.157l.299.401-.558-.828.26.427zm-4.595 3.419l.26.427.02-.012.018-.014-.298-.401zm-10.12 6.157l-.299-.401.559.828-.26-.427zm3.703-2.878l-.26-.427-.02.012-.019.014.299.401zm.885-.538l.298.401-.558-.828.26.427zm-4.596 3.419l.26.427.02-.012.019-.014-.299-.401zm-.885.538l-.298-.401.558.828-.26-.427zm4.346-3.844a.5.5 0 10.52.854l-.52-.854zm12.41-6.38a.5.5 0 10-.52-.854l.52.854zm616.031-7.561a.501.501 0 00-.462.887l.462-.887zm15.476 9.182a.501.501 0 00.462-.888l-.462.888zm-11.1-12.156l.231-.444-.278-.145-.251.187.298.402zm15.938 8.294l.299.401.64-.476-.708-.368-.231.443zm-4.595 3.419l-.231.444.278.144.251-.187-.298-.401zm-15.938-8.294l-.299-.402-.64.477.708.368.231-.443zm4.856-3.854a.5.5 0 00-.462.887l.462-.887zm15.476 9.181a.5.5 0 10.462-.887l-.462.887zm-70.79-143.434l-.497-.054-.003.025v.025l.5.004zm-4.747 20.168l-.707 26.473 1 .027.706-26.473-.999-.027zm4.604-23.406l-.706 46.473 1 .015.706-46.472-1-.016zm-.505 46.08l-4.595 3.419.596.802 4.596-3.419-.597-.802zm-3.797 3.827l.706-46.472-.999-.016-.707 46.473 1 .015zm.505-46.079l4.596-3.419-.597-.802-4.596 3.419.597.802zm22.779-145.042l25.809 268.023.995-.096-25.809-268.023-.995.096zm26.008 267.574l-4.932 3.67.597.802 4.932-3.67-.597-.802zm-4.136 4.023L598.012 43.575l-.996.096 25.81 268.024.995-.096zM597.813 44.024l4.932-3.67-.597-.801-4.932 3.669.597.802zM27.718 47.62c102.232-23.012 359.279-58.47 573.588-8.997l.225-.974c-214.52-49.523-471.738-14.031-574.032 8.995l.22.976zm573.294-9.776l-3.936 5.48.812.583 3.936-5.48-.812-.583zm-3.417 5.285C383.078-6.393 125.318 26.194 23.018 49.222l.22.976c102.226-23.012 359.82-55.57 574.132-6.095l.225-.974zM23.377 50.143l4.48-2.577-.498-.867-4.48 2.577.498.867zm604.705 257.359c-82.346 28.998-313.533 71.059-579.12 7.131l-.234.972c265.788 63.976 497.17 21.898 579.687-7.16l-.333-.943zm-579.545 7.223l-5.105 3.996.616.787 5.105-3.996-.616-.787zm-4.914 4.876c265.786 63.976 496.307 23.013 578.825-6.046l-.332-.944c-82.345 28.998-312.67 69.946-578.259 6.017l-.234.973zm578.984-6.138l5.967-5.11-.651-.76-5.967 5.11.651.76zm-573.32 1.606L28.107 49.67l-.997.08 21.18 265.398.997-.079zM27.608 49.209h-4.48v1h4.48v-1zm-4.979.537l19.352 268.013.997-.072L23.627 49.674l-.998.072zm20.042 268.439l6.31-2.615-.384-.924-6.309 2.615.383.924zM628.645 14.454l25.848-9.557-.347-.938-25.848 9.557.347.938zm4.55-3.427l25.848-9.558-.346-.938-25.848 9.558.346.938zM658.571.599l-4.595 3.42.597.802 4.595-3.42-.597-.802zm-4.47 3.351l-25.848 9.558.347.938 25.848-9.558-.347-.938zm-25.376 10.428l4.595-3.42-.596-.802-4.596 3.42.597.802zm4.484-3.352l25.848-9.557-.347-.938-25.848 9.557.347.938zm2.707 10.845l22.561-4.694-.204-.979-22.561 4.694.204.979zm4.625-3.41l22.561-4.694-.204-.98-22.561 4.694.204.98zm22.161-5.585l-4.596 3.42.597.801 4.595-3.419-.596-.802zm-4.399 3.33L635.741 20.9l.204.98 22.561-4.694-.203-.98zm-22.161 5.585l4.595-3.419-.597-.802-4.595 3.419.597.802zm4.375-3.338l22.561-4.694-.204-.979-22.561 4.694.204.979zM16.861 330.21l.885-.539-.52-.854-.885.538.52.855zm.326-1.367l-4.595 3.419.597.802 4.595-3.419-.596-.802zm-4.557 3.393l-.885.538.52.855.885-.539-.52-.854zm-.326 1.367l4.595-3.419-.597-.803-4.595 3.419.597.803zm-5.556 2.764l10.12-6.157-.52-.854-10.12 6.157.52.854zm9.562-6.985l-4.595 3.419.596.802 4.596-3.419-.597-.802zm-4.557 3.393l-10.12 6.157.52.854 10.12-6.157-.52-.854zm-9.562 6.985l4.596-3.419-.597-.802-4.596 3.419.597.802zm3.665-2.852l.885-.538-.52-.854-.885.538.52.854zm.326-1.366l-4.595 3.419.597.802 4.595-3.419-.597-.802zm-4.557 3.393l-.885.538.52.854.885-.538-.52-.854zm-.327 1.366l4.596-3.419-.597-.802-4.595 3.42.596.802zm4.568-3.391l11.89-7.234-.52-.854-11.89 7.234.52.854zm-4.565 3.428l11.89-7.234-.519-.854-11.89 7.234.52.854zm632.024-17.336l15.938 8.295.462-.888-15.938-8.294-.462.887zm4.607-3.418l15.939 8.295.461-.887-15.938-8.295-.462.887zm15.871 7.45l-4.596 3.419.597.802 4.596-3.419-.597-.802zm-4.066 3.377l-15.938-8.295-.462.887 15.938 8.295.462-.887zm-15.871-7.45l4.596-3.419-.597-.803-4.596 3.419.597.803zm4.096-3.368l15.938 8.294.462-.887-15.938-8.294-.462.887zm-54.996-138.431l-.353 3.237.994.108.353-3.236-.994-.109zm-.356 3.287l-.353 43.236 1 .008.353-43.236-1-.008z" fill="#FFFCFF"/></svg>