<svg width="664" height="354" fill="none" xmlns="http://www.w3.org/2000/svg"><path d="M582.644 227.697l.706-46.473-4.595 3.419-.706 46.473 4.595-3.419zm45.486 80.28L602.325 39.954l-4.931 3.67 25.805 268.023 4.931-3.67zM601.297 38.136C386.926-11.362 129.845 24.113 27.603 47.132l-4.48 2.578c102.243-23.02 359.869-55.592 574.239-6.094l3.935-5.48z" fill="#7831B2"/><path d="M48.836 315.119c265.633 63.952 496.872 21.883 579.286-7.146l-5.965 5.11c-82.415 29.029-312.791 69.984-578.425 6.032l5.104-3.996zM27.603 49.71L48.78 315.108l-6.308 2.615L23.124 49.71h4.48zM658.738 1l-25.843 9.558-4.595 3.419 25.843-9.558L658.738 1zm4.129 12.277l-22.557 4.694-4.594 3.419 22.556-4.694 4.595-3.419zM17.483 329.245l-.885.539-4.595 3.419.885-.539 4.595-3.419z" fill="#7831B2"/><path d="M16.605 329.784l-10.118 6.157-4.594 3.419 10.118-6.157 4.594-3.419zm-10.125 6.16l-.885.538L1 339.901l.885-.538 4.595-3.419zm647.49-8.508l-15.935-8.294-4.594 3.419 15.935 8.294 4.594-3.419z" fill="#7831B2"/><path d="M579.246 204.649a.5.5 0 10-1-.027l1 .027zm-1.706 26.446a.5.5 0 101 .027l-1-.027zm5.81-49.871l.5.008.015-1.015-.813.606.298.401zm-.706 46.473l.298.401.198-.147.004-.247-.5-.007zm-4.595 3.419l-.5-.008-.015 1.015.813-.606-.298-.401zm.706-46.473l-.298-.401-.198.147-.004.246.5.008zm23.57-144.69l.498-.047-.085-.883-.711.53.298.4zm25.805 268.024l.298.401.226-.168-.027-.281-.497.048zm-4.931 3.67l-.498.048.085.882.711-.529-.298-.401zM597.394 43.623l-.298-.401-.227.168.027.281.498-.048zm-569.79 3.51l-.11-.489-.075.017-.065.038.25.433zm573.693-8.997l.407.292.438-.61-.732-.17-.113.488zm-3.935 5.48l-.112.487.324.075.195-.27-.407-.292zM23.124 49.71l-.25-.434-.272.157.023.313.499-.036zm604.998 258.263l.326.38-.492-.851.166.471zm-579.286 7.146l.117-.486-.235-.057-.19.149.308.394zm-5.104 3.996l-.309-.394-.814.637 1.006.243.117-.486zm578.425-6.032l.166.472.088-.032.071-.06-.325-.38zm-573.378 2.025l.192.462.336-.139-.03-.362-.498.039zM27.603 49.71l.498-.04-.036-.46h-.462v.5zm14.868 268.013l-.498.036.05.691.64-.265-.192-.462zM628.172 13.516a.5.5 0 10.346.938l-.346-.938zm26.189-8.62a.5.5 0 10-.347-.937l.347.938zm-21.466 5.662l-.173-.47-.068.026-.058.042.299.402zM658.738 1l.298.402-.472-.87.174.468zm-4.595 3.42l.173.468.068-.025.058-.042-.299-.402zM628.3 13.976l-.298-.402.472.87-.174-.468zm4.435-3.889a.5.5 0 10.347.938l-.347-.938zm26.19-8.619a.5.5 0 00-.347-.938l.347.938zm-23.34 19.423a.5.5 0 10.203.979l-.203-.98zm22.76-3.715a.5.5 0 00-.204-.979l.204.98zm-18.035.794l-.102-.49-.108.023-.088.066.298.4zm22.557-4.694l.298.401-.4-.89.102.49zm-4.595 3.42l.102.489.108-.023.089-.066-.299-.4zm-22.556 4.693l-.299-.401.4.89-.101-.49zm4.469-3.916a.5.5 0 10.203.979l-.203-.98zm22.76-3.715a.5.5 0 00-.204-.979l.204.98zM.782 339.485a.5.5 0 10.52.854l-.52-.854zm12.407-6.38a.5.5 0 10-.52-.854l.52.854zm3.409-3.321l-.26-.428-.02.012-.019.014.299.402zm.885-.539l.298.401-.558-.828.26.427zm-4.595 3.419l.26.427.02-.012.018-.014-.298-.401zm-.885.539l-.299-.402.559.829-.26-.427zm-5.516 2.738l-.26-.427-.02.012-.018.014.298.401zm10.118-6.157l.299.401-.558-.828.26.427zm-4.594 3.419l.26.427.02-.012.018-.014-.298-.401zM1.893 339.36l-.299-.401.559.828-.26-.427zm3.702-2.878l-.26-.427-.02.012-.019.014.299.401zm.885-.538l.298.401-.558-.828.26.427zm-4.595 3.419l.26.427.02-.012.018-.014-.298-.401zm-.885.538l-.298-.401.558.828-.26-.427zm4.345-3.844a.5.5 0 10.52.854l-.52-.854zm12.408-6.38a.5.5 0 10-.52-.854l.52.854zm615.907-7.561a.5.5 0 10-.462.887l.462-.887zm15.473 9.181a.5.5 0 00.462-.887l-.462.887zm-11.098-12.155l.231-.444-.278-.145-.251.187.298.402zm15.935 8.294l.299.401.64-.476-.708-.368-.231.443zm-4.594 3.419l-.231.444.278.144.251-.187-.298-.401zm-15.935-8.294l-.299-.402-.64.477.708.368.231-.443zm4.855-3.854a.5.5 0 00-.462.887l.462-.887zm15.473 9.181a.5.5 0 00.462-.887l-.462.887zm-70.776-143.434l-.497-.054-.003.025v.025l.5.004zm-4.747 20.168l-.706 26.473 1 .027.706-26.473-1-.027zm4.604-23.406l-.706 46.473 1 .015.706-46.472-1-.016zm-.505 46.08l-4.594 3.419.596.802 4.595-3.419-.597-.802zm-3.796 3.827l.706-46.472-1-.016-.706 46.473 1 .015zm.505-46.079l4.595-3.419-.597-.802-4.595 3.419.597.802zm22.774-145.042l25.804 268.023.995-.096-25.804-268.023-.995.096zm26.003 267.574l-4.931 3.67.597.802 4.931-3.67-.597-.802zm-4.135 4.023L597.892 43.575l-.996.096 25.805 268.024.995-.096zM597.693 44.024l4.931-3.67-.597-.801-4.931 3.669.597.802zM27.713 47.62c102.211-23.012 359.207-58.47 573.472-8.997l.225-.974C386.933-11.874 129.767 23.618 27.493 46.644l.22.976zm573.178-9.776l-3.935 5.48.813.583 3.935-5.48-.813-.583zm-3.416 5.285C383.002-6.393 125.293 26.194 23.014 49.222l.22.976C125.438 27.186 382.98-5.372 597.25 44.103l.225-.974zM23.373 50.143l4.48-2.577-.5-.867-4.479 2.577.499.867zm604.583 257.359c-82.33 28.998-313.47 71.059-579.003 7.131l-.234.972c265.734 63.976 497.07 21.898 579.57-7.16l-.333-.943zm-579.428 7.223l-5.105 3.996.617.787 5.104-3.996-.616-.787zm-4.913 4.876c265.732 63.976 496.207 23.013 578.708-6.046l-.332-.944c-82.329 28.998-312.607 69.946-578.142 6.017l-.234.973zm578.867-6.138l5.966-5.11-.651-.76-5.965 5.11.65.76zm-573.204 1.606L28.102 49.67l-.997.08L48.28 315.148l.997-.079zM27.603 49.209h-4.48v1h4.48v-1zm-4.978.537l19.348 268.013.997-.072L23.622 49.674l-.997.072zm20.038 268.439l6.308-2.615-.383-.924-6.308 2.615.383.924zM628.518 14.454l25.843-9.557-.347-.938-25.842 9.557.346.938zm4.55-3.427l25.843-9.558-.347-.938-25.842 9.558.346.938zM658.439.599l-4.594 3.42.597.802 4.594-3.42-.597-.802zM653.97 3.95l-25.843 9.558.347.938 25.842-9.558-.346-.938zm-25.371 10.428l4.594-3.42-.597-.802-4.594 3.42.597.802zm4.483-3.352l25.843-9.557-.347-.938-25.843 9.557.347.938zm2.706 10.845l22.557-4.694-.204-.979-22.556 4.694.203.979zm4.624-3.41l22.557-4.694-.204-.98-22.557 4.694.204.98zm22.157-5.585l-4.595 3.42.597.801 4.594-3.419-.596-.802zm-4.399 3.33L635.614 20.9l.203.98 22.557-4.694-.204-.98zm-22.156 5.585l4.595-3.419-.597-.802-4.595 3.419.597.802zm4.374-3.338l22.557-4.694-.204-.979-22.556 4.694.203.979zM16.858 330.21l.885-.539-.52-.854-.885.538.52.855zm.326-1.367l-4.595 3.419.597.802 4.595-3.419-.597-.802zm-4.556 3.393l-.885.538.52.855.885-.539-.52-.854zm-.326 1.367l4.594-3.419-.597-.803-4.595 3.419.598.803zm-5.555 2.764l10.118-6.157-.52-.854-10.118 6.157.52.854zm9.56-6.985l-4.595 3.419.597.802 4.595-3.419-.597-.802zm-4.556 3.393l-10.118 6.157.52.854 10.118-6.157-.52-.854zm-9.56 6.985l4.595-3.419-.597-.802-4.595 3.419.597.802zm3.664-2.852l.885-.538-.52-.854-.885.538.52.854zm.326-1.366l-4.595 3.419.597.802 4.595-3.419-.597-.802zm-4.556 3.393l-.885.538.52.854.885-.538-.52-.854zm-.327 1.366l4.595-3.419-.597-.802-4.594 3.42.596.802zm4.567-3.391l11.888-7.234-.52-.854-11.888 7.234.52.854zm-4.564 3.428l11.888-7.234-.52-.854-11.887 7.234.52.854zm631.897-17.336l15.935 8.294.462-.887-15.935-8.294-.462.887zm4.606-3.418l15.935 8.295.462-.887-15.935-8.295-.462.887zm15.868 7.45l-4.595 3.419.597.802 4.595-3.419-.597-.802zm-4.066 3.377l-15.935-8.295-.461.887 15.935 8.295.461-.887zm-15.867-7.45l4.595-3.419-.597-.803-4.595 3.419.597.803zm4.095-3.368l15.935 8.294.462-.887-15.935-8.294-.462.887zm-54.985-138.431l-.353 3.237.994.108.353-3.236-.994-.109zm-.356 3.287l-.353 43.236 1 .008.353-43.236-1-.008z" fill="#7831B2"/></svg>