<svg width="175" height="215" fill="none" xmlns="http://www.w3.org/2000/svg"><path d="M169.373 6.634c-.14-.746-.373-1.486-.882-2.114-1.642-2.256-4.936-3.846-7.583-2.553-2.097 1.071-3.639 3.522-4.836 5.48-1.284 2.058-2.463 4.298-3.653 6.35-1.794 2.938-3.489 5.964-5.184 8.99a50.465 50.465 0 00-2.111 3.899c-.194-.083-.469.028-.452.31-.082.194-.064.475-.053.663-.457.217-.803.709-1.061 1.102-.515.785-1.037 1.477-1.553 2.263-1.307 1.682-2.515 3.453-3.728 5.13-1.126 1.576-2.164 3.053-3.295 4.536-.785.991-1.928 2.286-2.316 3.63-.182.105-.269.205-.252.486-1.43 1.219-3.473 1.627-5.224 2.205-.275.111-.539.41-.428.686.337 2.43.393 4.877.168 7.342-.118 1.138-.424 2.288-.735 3.344a9.133 9.133 0 00-.376 1.53c-.153.576-.119 1.14-.277 1.62-.077.288.309.452.485.253 1.39-1.876 3.58-2.952 5.589-3.924 2.466-1.187 4.849-2.181 7.56-2.441a.642.642 0 00.615-.698c-.157-1.027-.402-1.955-.465-2.987-.052-.846.089-1.608.137-2.365.638-.322.984-.815 1.424-1.313l2.075-2.954c1.384-1.97 2.761-4.034 4.145-6.004 1.295-1.87 2.597-3.646 3.793-5.604.258-.393.692-.985.845-1.56.368-.117.726-.421 1.083-.726.533-.504.868-1.184 1.401-1.688.709-.703 1.418-1.406 2.034-2.104 2.637-2.989 4.976-6.242 7.414-9.408 1.659-2.08 3.417-4.074 4.684-6.413.51-.88.827-1.842 1.051-2.798.21.364.321.64.444 1.104.25 1.022.231 2.248.014 3.298-.424 2.288-1.89 4.452-3.279 6.327-1.483 1.882-2.867 3.852-4.449 5.645-1.494 1.694-3.545 3.516-4.256 5.727-.246.581.356 1.204.895.794 1.177-.732 2.144-1.828 3.024-2.824.972-1.002 1.846-2.093 2.818-3.095 1.847-2.092 3.207-4.437 4.562-6.877 1.184-2.146 2.358-4.48 2.39-7.026-.11-1.785-.382-4.69-2.202-5.238zm-38.576 50.148c-1.001.532-1.903 1.153-2.893 1.873.692-.985 1.29-1.964 1.981-2.949.692-.985 1.378-2.063 2.07-3.048l.774-1.179c.17-.293.434-.592.411-.967-.006-.094-.106-.182-.199-.177-.375.023-.633.416-.803.71l-.774 1.178c-.692.985-1.284 2.058-1.976 3.042-.428.686-.944 1.472-1.372 2.158.147-.669.294-1.338.348-2 .23-2.371-.575-4.773-.344-7.143 1.774-.203 3.408-1.151 4.644-2.452.45 1.198 1.356 2.18 2.62 2.856.778.424 1.843.924 2.879.955-.053.663-.013 1.32-.072 1.89.052.844.109 1.783.255 2.623-2.705.354-5.182 1.354-7.549 2.63zm15.147-19.778a121.687 121.687 0 00-3.782 5.792l-2.04 3.518c-.598.98-.998 2.135-2.233 1.928-1.99-.256-3.861-1.65-4.544-3.587.346-.492.686-1.079 1.026-1.665.522-.692 1.137-1.39 1.664-1.987 1.154-1.308 2.143-2.605 3.122-3.902l.196-.26c1.213-1.676 2.433-3.259 3.652-4.842.522-.691.944-1.471 1.466-2.163.175-.2.345-.492.615-.697.929 1.357 2.778 2.375 4.118 2.764.094-.006.094-.006.193.082-1.125 1.577-2.239 3.342-3.453 5.019zm21.449-28.93c-.33 2.283-1.989 4.364-3.296 6.046-1.747 2.18-3.493 4.36-5.047 6.624-1.131 1.483-2.163 3.054-3.195 4.625-1.038 1.478-1.976 3.043-3.218 4.25-.44.498-.973 1.002-1.617 1.23-.738.234-1.61-.184-2.288-.52-1.159-.494-2.335-1.27-2.872-2.369 1.987-2.855 3.671-6.068 5.371-9 2.211-3.811 4.433-7.435 6.843-11.07 1.126-1.576 2.551-4.397 4.81-4.347 2.342-.143 4.916 1.962 4.509 4.531z" fill="#FFFCFF"/><path d="M131.955 52.658c-.692.985-1.378 2.063-2.07 3.048-.691.985-1.289 1.964-1.981 2.95.99-.721 1.892-1.342 2.893-1.874 2.367-1.276 4.844-2.276 7.549-2.63-.146-.84-.203-1.779-.255-2.624.059-.569.019-1.226.072-1.89-1.036-.03-2.101-.53-2.879-.954-1.264-.677-2.17-1.658-2.62-2.856-1.236 1.3-2.87 2.25-4.644 2.452-.231 2.37.574 4.772.344 7.142-.054.663-.201 1.332-.348 2.001.428-.686.944-1.472 1.372-2.158.692-.984 1.284-2.057 1.976-3.042m.591.435l.774-1.179m-.774 1.179l.774-1.179m0 0c.17-.293.434-.592.411-.967-.006-.094-.106-.182-.199-.177-.375.023-.633.416-.803.71m0 0l-.774 1.178m.774-1.179l-.774 1.179m10.798-9.427a121.687 121.687 0 013.782-5.792c1.214-1.677 2.328-3.442 3.453-5.019-.099-.088-.099-.088-.193-.082-1.34-.39-3.189-1.407-4.118-2.764-.27.205-.44.498-.615.697-.522.692-.944 1.472-1.466 2.163-1.219 1.583-2.439 3.166-3.652 4.842l-.196.26c-.979 1.297-1.968 2.594-3.122 3.902-.527.598-1.142 1.295-1.664 1.987-.34.586-.68 1.173-1.026 1.665.683 1.938 2.554 3.331 4.544 3.587 1.235.207 1.635-.949 2.233-1.928m2.04-3.518l-2.04 3.518m2.04-3.518l-2.04 3.518m29.251-39.68c-.14-.746-.373-1.486-.882-2.114-1.642-2.256-4.936-3.846-7.583-2.553-2.097 1.071-3.639 3.522-4.836 5.48-1.284 2.058-2.463 4.298-3.653 6.35-1.794 2.938-3.489 5.964-5.184 8.99a50.465 50.465 0 00-2.111 3.899c-.194-.083-.469.028-.452.31-.082.194-.064.475-.053.663-.457.217-.803.709-1.061 1.102-.515.785-1.037 1.477-1.553 2.263-1.307 1.682-2.515 3.453-3.728 5.13-1.126 1.576-2.164 3.053-3.295 4.536-.785.991-1.928 2.286-2.316 3.63-.182.105-.269.205-.252.486-1.43 1.219-3.473 1.627-5.224 2.205-.275.111-.539.41-.428.686.337 2.43.393 4.877.168 7.342-.118 1.138-.424 2.288-.735 3.344a9.133 9.133 0 00-.376 1.53c-.153.576-.119 1.14-.277 1.62-.077.288.309.452.485.253 1.39-1.876 3.58-2.952 5.589-3.924 2.466-1.187 4.849-2.181 7.56-2.441a.642.642 0 00.615-.698c-.157-1.027-.402-1.955-.465-2.987-.052-.846.089-1.608.137-2.365.638-.322.984-.815 1.424-1.313l2.075-2.954c1.384-1.97 2.761-4.034 4.145-6.004 1.295-1.87 2.597-3.646 3.793-5.604.258-.393.692-.985.845-1.56.368-.117.726-.421 1.083-.726.533-.504.868-1.184 1.401-1.688.709-.703 1.418-1.406 2.034-2.104 2.637-2.989 4.976-6.242 7.414-9.408 1.659-2.08 3.417-4.074 4.684-6.413.51-.88.827-1.842 1.051-2.798.21.364.321.64.444 1.104.25 1.022.231 2.248.014 3.298-.424 2.288-1.89 4.452-3.279 6.327-1.483 1.882-2.867 3.852-4.449 5.645-1.494 1.694-3.545 3.516-4.256 5.727-.246.581.356 1.204.895.794 1.177-.732 2.144-1.828 3.024-2.824.972-1.002 1.846-2.093 2.818-3.095 1.847-2.092 3.207-4.437 4.562-6.877 1.184-2.146 2.358-4.48 2.39-7.026-.11-1.785-.382-4.69-2.202-5.238zm-1.98 1.44c-.33 2.283-1.989 4.364-3.296 6.046-1.747 2.18-3.493 4.36-5.047 6.624-1.131 1.483-2.163 3.054-3.195 4.625-1.038 1.478-1.976 3.043-3.218 4.25-.44.498-.973 1.002-1.617 1.23-.738.234-1.61-.184-2.288-.52-1.159-.494-2.335-1.27-2.872-2.369 1.987-2.855 3.671-6.068 5.371-9 2.211-3.811 4.433-7.435 6.843-11.07 1.126-1.576 2.551-4.397 4.81-4.347 2.342-.143 4.916 1.962 4.509 4.531z" stroke="#FFFCFF" stroke-width="2.284"/><path d="M126.601 109.634c-13.836-14.017-27.725-28.137-40.544-43.201-.263-.254-.473-.405-.785-.504-3.278-1.289-6.704-2.111-10.085-3.347-.539-.17-.918-.034-1.206.274-.094.1-.18.207-.28.302-1.575 1.51-3.178 3.104-4.764 4.65-.8.778-2.053.86-2.904.136-2.35-1.997-4.45-4.33-6.582-6.557-.525-.507-1.354-.597-1.862-.073-.756.69-1.427 1.463-2.06 2.271-.787 1.003-2.223 1.237-3.248.48-2.383-1.763-4.764-3.56-6.89-5.653-.579-.61-1.715-.54-2.116.189-13.128 24.31-24.24 49.511-39.786 72.133a3.471 3.471 0 01-.394.457c-1.83 1.859-2.877 6.867-1.382 8.974.037.053.066.1.099.155.096.157.288.245.416.377 23.25 23.853 47.304 46.771 71.61 69.429 4.215 4.119 13.246 5.737 17.708.904.093-.101.22-.197.342-.26l.024-.012c22.609-10.567 46.019-19.602 69.326-28.583a.995.995 0 00.642-.53 1.418 1.418 0 00-.039-1.223 1.495 1.495 0 00-.277-.367c-1.92-1.816-3.84-3.632-5.737-5.405-1.018-.95-.959-2.579.138-3.436 1.586-1.239 3.163-2.447 4.763-3.732.561-.421.441-1.4.072-1.858-1.634-1.739-3.302-3.543-4.95-5.308-.736-.789-.828-1.994-.056-2.747 1.708-1.665 3.885-2.951 5.039-5.099.249-.519.289-1.191-.183-1.596-1.929-1.68-3.858-3.361-5.748-4.967-.311-.265-.24-.773-.043-1.131.651-1.248 1.457-2.447 2.108-3.695.25-.52.236-1.294-.182-1.597-10.856-9.06-20.451-19.947-30.184-29.85zm29.031 68.352c1.22 1.153.82 3.181-.747 3.786-20.846 8.051-41.745 16.213-62.057 25.717a2.295 2.295 0 01-2.529-.389c-23.665-21.835-46.486-44.448-70.622-65.701-1.164-1.026-.993-2.887.35-3.667 19.91-11.564 40.844-21.165 61.711-30.896a2.294 2.294 0 012.62.485c23.27 24.122 46.954 47.678 71.274 70.665zM27.508 124.927c-3.252 3.249-6.607 6.552-9.86 9.802-.918.782-1.898 1.597-2.768 2.417-.453.426-1.046.69-1.663.613-2.762-.345-7.269-1.967-7.747-4.358-.102-.51.208-.986.601-1.328 23.693-20.617 45.396-43.631 67.914-65.533a2.36 2.36 0 012.418-.52c1.12.383 2.232.723 3.347 1.077 1.495.476 1.969 2.279.892 3.417-1.321 1.398-2.682 2.75-3.956 4.166-4.772 5.079-9.597 10.056-14.32 14.98-11.43 11.786-23.117 23.578-34.858 35.267zm12.785-28.722c-1.635 1.622-4.282-.675-2.93-2.538 4.799-6.524 9.491-13.253 14.237-19.879 1.716-2.434 3.33-5.223 5.21-7.655.801-1.035 2.316-1.046 3.235-.114 1.12 1.135 2.26 2.252 3.464 3.314 1.033.91 1.135 2.515.16 3.487-7.796 7.769-15.551 15.62-23.376 23.385zm10.171-25.339c-4.643 6.573-9.286 13.146-14.085 19.67-2.555 3.55-5.115 7.149-7.723 10.734-1.638 2.252-4.587.261-3.287-2.2 6.101-11.546 11.866-23.283 17.98-34.863.694-1.314 2.45-1.623 3.623-.707 1.3 1.017 2.644 1.977 3.972 2.956a2.143 2.143 0 01.517 2.941c-.344.506-.682.994-.997 1.47zm-46.487 67.46c-.393-.801.758-1.268 1.474-.734.922.688.738 2.098-.334 1.68a7.38 7.38 0 01-.265-.11c-.441-.23-.716-.513-.875-.836zm71.796 70.016c-21.745-20.278-43.264-40.787-64.092-61.879-1.438-1.456-.344-4.176 1.583-4.872.07-.025.138-.051.206-.077.921-.351 1.994-.271 2.736.376 24.37 21.249 47.334 44.041 70.984 66.035 1.022.951.94 2.608-.389 3.04-3.711 1.208-8.459-.142-11.028-2.623zm8.75-104.695c-.333-.413-.787-.447-1.137-.408a.752.752 0 00-.202.06c-.158.065-.355.053-.51.126-15.612 7.327-31.226 14.404-46.518 22.345 15.529-11.087 31.058-22.173 47.165-32.378a2.289 2.289 0 012.87.348c23.052 23.902 47.444 46.418 70.093 70.639a2.26 2.26 0 01-.261 3.329l-2.414 1.886a2.296 2.296 0 01-2.996-.142 2072.861 2072.861 0 01-66.09-65.805zm70.022 51.526c-1.021.884-2.613.913-3.55-.06-21.277-22.095-43.74-43.106-64.95-65.262-.37-.459-1.097-.602-1.555-.233-15.755 9.74-30.77 20.398-45.834 31.212 1.425-1.261 2.802-2.366 4.228-3.627a4783.52 4783.52 0 0041.533-35.41 2.298 2.298 0 013.223.223c21.41 24.312 44.399 47.09 68.786 68.428.903.79 1.039 2.144.16 2.96-.655.607-1.357 1.176-2.041 1.769zm-1.909-12.012c-.017.034-.043.054-.067.084-.082.102-.169.179-.268.092a743.435 743.435 0 01-65.123-65.78c-.526-.508-1.404-.442-1.863-.074-14.008 12.086-28.123 23.967-42.185 35.951 11.687-11.791 23.214-23.89 34.639-35.934 1.824-1.921 3.793-3.845 5.623-5.895.956-1.071 2.657-1.105 3.6-.024 12.032 13.788 24.856 26.93 37.675 39.837 9.073 9.291 18.065 19.332 28.008 27.788a2.336 2.336 0 01.515 2.928c-.195.348-.382.691-.554 1.027z" fill="#FFFCFF"/><path d="M48.755 145.287c10.262-5.328 20.74-10.243 31.379-14.848 1.563-.68.221-3.004-1.241-2.376-10.64 4.605-21.118 9.52-31.38 14.848-1.61.836-.267 3.16 1.242 2.376zm39.728-7.957c-11.113 3.695-20.778 10.65-31.65 15.05-1.566.675-.158 3.125 1.307 2.503 10.57-4.243 20.135-11.146 30.99-14.845 1.68-.457 1.032-3.165-.647-2.708zM69.82 165.167c8.392-4.823 17.15-10.42 26.302-13.54 1.61-.603 1.062-2.883-.495-2.424-9.456 3.278-18.315 8.927-26.909 13.855-1.514.787-.413 2.896 1.102 2.109zm36.671-7.973c-10.082 4.538-19.25 10.576-28.998 15.754-1.547.803-.449 2.905 1.098 2.102 9.748-5.178 18.916-11.216 28.998-15.754 1.697-.765.448-2.905-1.098-2.102zM73.717 69.497c-9.196 9.9-19.013 19.354-28.521 28.903-10.621 10.64-20.976 22.038-32.376 31.929-1.317 1.196.554 3.044 1.87 1.847 11.401-9.891 21.808-21.188 32.377-31.929 9.508-9.55 19.325-19.003 28.52-28.902 1.216-1.144-.708-3.092-1.87-1.848z" fill="#FFFCFF"/><path d="M126.601 109.634c-13.836-14.017-27.725-28.137-40.544-43.201-.263-.254-.473-.405-.785-.504-3.278-1.289-6.704-2.111-10.085-3.347-.539-.17-.918-.034-1.206.274-.094.1-.18.207-.28.302-1.575 1.51-3.178 3.104-4.764 4.65-.8.778-2.053.86-2.904.136-2.35-1.997-4.45-4.33-6.582-6.557-.525-.507-1.354-.597-1.862-.073-.756.69-1.427 1.463-2.06 2.271-.787 1.003-2.223 1.237-3.248.48-2.383-1.763-4.764-3.56-6.89-5.653-.579-.61-1.715-.54-2.116.189-13.128 24.31-24.24 49.511-39.786 72.133a3.471 3.471 0 01-.394.457c-1.83 1.859-2.877 6.867-1.382 8.974.037.053.066.1.099.155.096.157.288.245.416.377 23.25 23.853 47.304 46.771 71.61 69.429 4.215 4.119 13.246 5.737 17.708.904.093-.101.22-.197.342-.26l.024-.012c22.609-10.567 46.019-19.602 69.326-28.583a.995.995 0 00.642-.53 1.418 1.418 0 00-.039-1.223 1.495 1.495 0 00-.277-.367c-1.92-1.816-3.84-3.632-5.737-5.405-1.018-.95-.959-2.579.138-3.436 1.586-1.239 3.163-2.447 4.763-3.732.561-.421.441-1.4.072-1.858-1.634-1.739-3.302-3.543-4.95-5.308-.736-.789-.828-1.994-.056-2.747 1.708-1.665 3.885-2.951 5.039-5.099.249-.519.289-1.191-.183-1.596-1.929-1.68-3.858-3.361-5.748-4.967-.311-.265-.24-.773-.043-1.131.651-1.248 1.457-2.447 2.108-3.695.25-.52.236-1.294-.182-1.597-10.856-9.06-20.451-19.947-30.184-29.85zm29.031 68.352c1.22 1.153.82 3.181-.747 3.786-20.846 8.051-41.745 16.213-62.057 25.717a2.295 2.295 0 01-2.529-.389c-23.665-21.835-46.486-44.448-70.622-65.701-1.164-1.026-.993-2.887.35-3.667 19.91-11.564 40.844-21.165 61.711-30.896a2.294 2.294 0 012.62.485c23.27 24.122 46.954 47.678 71.274 70.665zM27.508 124.927c-3.252 3.249-6.607 6.552-9.86 9.802-.918.782-1.898 1.597-2.768 2.417-.453.426-1.046.69-1.663.613-2.762-.345-7.269-1.967-7.747-4.358-.102-.51.208-.986.601-1.328 23.693-20.617 45.396-43.631 67.914-65.533a2.36 2.36 0 012.418-.52c1.12.383 2.232.723 3.347 1.077 1.495.476 1.969 2.279.892 3.417-1.321 1.398-2.682 2.75-3.956 4.166-4.772 5.079-9.597 10.056-14.32 14.98-11.43 11.786-23.117 23.578-34.858 35.267zm12.785-28.722c-1.635 1.622-4.282-.675-2.93-2.538 4.799-6.524 9.491-13.253 14.237-19.879 1.716-2.434 3.33-5.223 5.21-7.655.801-1.035 2.316-1.046 3.235-.114 1.12 1.135 2.26 2.252 3.464 3.314 1.033.91 1.135 2.515.16 3.487-7.796 7.769-15.551 15.62-23.376 23.385zm10.171-25.339c-4.643 6.573-9.286 13.146-14.085 19.67-2.555 3.55-5.115 7.149-7.723 10.734-1.638 2.252-4.587.261-3.287-2.2 6.101-11.546 11.866-23.283 17.98-34.863.694-1.314 2.45-1.623 3.623-.707 1.3 1.017 2.644 1.977 3.972 2.956a2.143 2.143 0 01.517 2.941c-.344.506-.682.994-.997 1.47zm-46.487 67.46c-.393-.801.758-1.268 1.474-.734.922.688.738 2.098-.334 1.68a7.38 7.38 0 01-.265-.11c-.441-.23-.716-.513-.875-.836zm71.796 70.016c-21.745-20.278-43.264-40.787-64.092-61.879-1.438-1.456-.344-4.176 1.583-4.872.07-.025.138-.051.206-.077.921-.351 1.994-.271 2.736.376 24.37 21.249 47.334 44.041 70.984 66.035 1.022.951.94 2.608-.389 3.04-3.711 1.208-8.459-.142-11.028-2.623zm8.75-104.695c-.333-.413-.787-.447-1.137-.408a.752.752 0 00-.202.06c-.158.065-.355.053-.51.126-15.612 7.327-31.226 14.404-46.518 22.345 15.529-11.087 31.058-22.173 47.165-32.378a2.289 2.289 0 012.87.348c23.052 23.902 47.444 46.418 70.093 70.639a2.26 2.26 0 01-.261 3.329l-2.414 1.886a2.296 2.296 0 01-2.996-.142 2072.861 2072.861 0 01-66.09-65.805zm70.022 51.526c-1.021.884-2.613.913-3.55-.06-21.277-22.095-43.74-43.106-64.95-65.262-.37-.459-1.097-.602-1.555-.233-15.755 9.74-30.77 20.398-45.834 31.212 1.425-1.261 2.802-2.366 4.228-3.627a4783.52 4783.52 0 0041.533-35.41 2.298 2.298 0 013.223.223c21.41 24.312 44.399 47.09 68.786 68.428.903.79 1.039 2.144.16 2.96-.655.607-1.357 1.176-2.041 1.769zm-1.909-12.012c-.017.034-.043.054-.067.084-.082.102-.169.179-.268.092a743.435 743.435 0 01-65.123-65.78c-.526-.508-1.404-.442-1.863-.074-14.008 12.086-28.123 23.967-42.185 35.951 11.687-11.791 23.214-23.89 34.639-35.934 1.824-1.921 3.793-3.845 5.623-5.895.956-1.071 2.657-1.105 3.6-.024 12.032 13.788 24.856 26.93 37.675 39.837 9.073 9.291 18.065 19.332 28.008 27.788a2.336 2.336 0 01.515 2.928c-.195.348-.382.691-.554 1.027z" stroke="#FFFCFF" stroke-width="1.523"/><path d="M48.755 145.287c10.262-5.328 20.74-10.243 31.379-14.848 1.563-.68.221-3.004-1.241-2.376-10.64 4.605-21.118 9.52-31.38 14.848-1.61.836-.267 3.16 1.242 2.376zm39.728-7.957c-11.113 3.695-20.778 10.65-31.65 15.05-1.566.675-.158 3.125 1.307 2.503 10.57-4.243 20.135-11.146 30.99-14.845 1.68-.457 1.032-3.165-.647-2.708zM69.82 165.167c8.392-4.823 17.15-10.42 26.302-13.54 1.61-.603 1.062-2.883-.495-2.424-9.456 3.278-18.315 8.927-26.909 13.855-1.514.787-.413 2.896 1.102 2.109zm36.671-7.973c-10.082 4.538-19.25 10.576-28.998 15.754-1.547.803-.449 2.905 1.098 2.102 9.748-5.178 18.916-11.216 28.998-15.754 1.697-.765.448-2.905-1.098-2.102zM73.717 69.497c-9.196 9.9-19.013 19.354-28.521 28.903-10.621 10.64-20.976 22.038-32.376 31.929-1.317 1.196.554 3.044 1.87 1.847 11.401-9.891 21.808-21.188 32.377-31.929 9.508-9.55 19.325-19.003 28.52-28.902 1.216-1.144-.708-3.092-1.87-1.848z" stroke="#FFFCFF" stroke-width="1.523"/></svg>