<svg width="247" height="178" fill="none" xmlns="http://www.w3.org/2000/svg"><path d="M11.921 89.37l-9.62-29.098c-.87-2.627.594-5.344 3.237-6.01l97.408-24.591 53.461-15.486 41.199-9.116c2.483-.549 5.065.91 5.918 3.345l10.999 31.405M11.922 89.369l26.28 82.437c.823 2.578 3.57 4.113 6.147 3.435l193.707-50.96c2.634-.693 4.069-3.423 3.177-6.042l-26.71-78.42M11.922 89.369l116.668 19.844c1.407.239 2.821-.13 3.879-1.011l82.054-68.383m-89.717 51.166l10.873-2.484 11.119 34.38-10.903 2.245m-11.089-34.141l-10.874 2.484 11.06 33.902 10.903-2.245m-11.089-34.141l11.089 34.141m-66.84-89.188l-4.59-13.925c-.438-1.326.308-2.696 1.645-3.022L126.329 4.33a2.456 2.456 0 012.744 1.226c1.317 2.483 3.69 7.4 4.783 12.419M67.983 35.437c-2.595-5.069-4.221-11.736-4.938-15.13-.262-1.238.509-2.392 1.736-2.66l34.236-7.49 28.896-7.603c1.27-.334 2.627.401 3.065 1.661l5.223 15.01M14.563 89.31L4.942 60.212c-.869-2.627.595-5.344 3.238-6.01l97.407-24.591 53.461-15.487 41.199-9.115c2.484-.549 5.065.91 5.918 3.345l10.999 31.405M14.563 89.309s118.886 26.883 118.882 20.22c-.003-6.662 83.719-69.77 83.719-69.77M14.563 89.309l17.397 57.148 8.78 25.358c.881 2.545 3.64 4.014 6.189 3.295l101.384-28.595 92.263-22.364c2.684-.651 4.171-3.41 3.267-6.064l-26.679-78.328m-91.068 49.286l10.874-2.484 11.118 34.38-10.903 2.245m-11.089-34.141l-10.873 2.484 11.06 33.902 10.902-2.245m-11.089-34.141l11.089 34.141M75.362 33.797l-3.102-8.569c-.498-1.377.298-2.821 1.713-3.109l51.066-10.371c1.187-.241 2.414.424 2.882 1.562l3.747 9.12" stroke="#7831B2" stroke-width="4" stroke-linejoin="round"/></svg>