<svg width="263" height="202" fill="none" xmlns="http://www.w3.org/2000/svg"><path d="M34.264 71.91l-.374-1.964.373 1.965zm174.978-33.26l.374 1.965-.374-1.965zm6.185 4.21l1.965-.374-1.965.373zm17.597 92.577l-1.964.374 1.964-.374zm-4.135 6.171l.402 1.959-.402-1.959zM57.185 176.786l-.401-1.959.401 1.959zm-6.227-4.041l1.953-.431-1.953.431zM30.086 78.248l-1.953.432 1.953-.432zm3.12-6.336l.373 1.965-.373-1.965zm174.978-33.26l-.373-1.965.373 1.965zm6.185 4.209l-1.965.373 1.965-.373zm17.598 92.578l1.964-.374-1.964.374zm-4.136 6.17l.402 1.959-.402-1.959zM56.127 176.788l-.401-1.96.401 1.96zm-6.227-4.042l1.953-.431-1.953.431zM29.028 78.25l1.953-.432-1.953.432zM4.683 45.124l-.469-1.944.47 1.944zM260.03 152.868l-1.965.374 1.965-.374zm-1.659 2.469l-.397-1.96.397 1.96zM38.452 199.783l-.396-1.96.396 1.96zm-2.486-1.624l-1.954.426 1.954-.426zM3.156 47.62l-1.954.426 1.954-.426zm.468-3.553l-.469-1.944.469 1.944zm255.347 107.744l-1.965.374 1.965-.374zm-1.659 2.47l-.397-1.961.397 1.961zM37.393 198.726l-.396-1.96.396 1.96zm-2.486-1.623l-1.954.425 1.954-.425zM2.097 46.563l-1.954.426 1.954-.426zm50.03 89.618a2 2 0 10-2.855 2.802l2.854-2.802zm2.97 5.881l-1.427 1.401 1.427-1.401zm1.706-.277l-1.797-.878 1.797.878zm8.38-12.596a2 2 0 00-3.595-1.756l3.594 1.756zm66.335-8.898a1.998 1.998 0 00-2.824-.149 1.998 1.998 0 00-.149 2.824l2.973-2.675zm2.419 5.678l-1.486 1.338 1.486-1.338zm1.752-.276l1.826.818-1.826-.818zm7.796-12.517a2.001 2.001 0 00-3.651-1.635l3.651 1.635zm-108.848-39.3l174.979-33.26-.747-3.93L33.89 69.946l.747 3.93zm178.825-30.643l17.598 92.578 3.929-.747-17.597-92.578-3.93.747zm15.026 96.415L56.784 174.827l.803 3.919 171.704-35.179-.803-3.919zM52.911 172.314L32.04 77.817l-3.906.863 20.872 94.496 3.906-.862zm3.873 2.513a3.29 3.29 0 01-3.873-2.513l-3.906.862a7.29 7.29 0 008.582 5.57l-.803-3.919zm174.276-39.016a3.29 3.29 0 01-2.572 3.837l.803 3.919a7.29 7.29 0 005.698-8.503l-3.929.747zm-21.444-95.196a3.29 3.29 0 013.846 2.618l3.93-.747a7.29 7.29 0 00-8.523-5.8l.747 3.93zM33.89 69.945a7.29 7.29 0 00-5.757 8.735l3.906-.863a3.29 3.29 0 012.598-3.942l-.747-3.93zm-.311 3.932l174.979-33.26-.747-3.93-174.979 33.26.747 3.93zm178.825-30.643l17.598 92.578 3.929-.747-17.597-92.578-3.93.747zm15.026 96.415L55.726 174.828l.803 3.919 171.704-35.179-.803-3.919zM51.853 172.315L30.981 77.818l-3.906.863 20.872 94.497 3.906-.863zm3.873 2.513a3.29 3.29 0 01-3.873-2.513l-3.906.863a7.29 7.29 0 008.582 5.569l-.803-3.919zm174.276-39.016a3.29 3.29 0 01-2.572 3.837l.803 3.919a7.29 7.29 0 005.698-8.503l-3.929.747zm-21.444-95.196a3.29 3.29 0 013.846 2.618l3.93-.747a7.29 7.29 0 00-8.523-5.8l.747 3.93zM32.832 69.946a7.29 7.29 0 00-5.757 8.735l3.906-.863a3.29 3.29 0 012.598-3.941l-.747-3.93zm22.386-.884c3.362 15.326 8.353 38.755 12.401 59.228 2.025 10.238 3.81 19.722 5.039 27.079.614 3.68 1.086 6.81 1.378 9.226.303 2.506.382 4.023.313 4.628l3.973.459c.134-1.156-.023-3.153-.315-5.567-.303-2.503-.785-5.699-1.404-9.405-1.237-7.415-3.032-16.944-5.06-27.196-4.055-20.509-9.053-43.966-12.418-59.31l-3.907.858zm27.532-5.29l18.769 98.74 3.929-.747-18.768-98.74-3.93.746zm26.925-5.657l18.868 99.26 3.929-.747-18.867-99.26-3.93.747zm27.228-4.064c3.175 15.284 8.038 38.46 12.311 58.319 2.136 9.928 4.126 19.032 5.684 25.907a508.006 508.006 0 001.981 8.482c.51 2.078.929 3.657 1.2 4.324l3.706-1.503c-.135-.333-.48-1.569-1.021-3.775a508.085 508.085 0 01-1.965-8.412c-1.553-6.854-3.54-15.941-5.675-25.865-4.27-19.845-9.131-43.012-12.305-58.29l-3.916.813zm28.997-6.085l18.966 99.78 3.93-.747-18.966-99.78-3.93.747zm26.826-6.176l18.967 99.78 3.929-.747-18.966-99.78-3.93.747zM36.624 99.344l180.852-34.376-.747-3.93L35.877 95.414l.747 3.93zm4.295 28.261L223.33 92.932l-.747-3.93-182.41 34.673.746 3.93zm5.29 27.532c28.166-6.161 71.083-15.288 108.288-22.642 18.605-3.678 35.766-6.91 48.937-9.106 6.587-1.098 12.155-1.934 16.398-2.438 2.122-.252 3.891-.418 5.277-.494 1.434-.078 2.315-.049 2.742.024l.681-3.941c-.909-.157-2.182-.156-3.64-.077-1.505.082-3.367.259-5.532.516-4.333.514-9.972 1.362-16.584 2.465-13.229 2.206-30.437 5.446-49.055 9.127-37.24 7.361-80.184 16.494-108.367 22.658l.855 3.908zM5.151 47.068c31.511-7.6 79.59-18.63 123.352-27.48 21.882-4.424 42.666-8.3 59.752-10.928 17.167-2.64 30.378-3.985 37.249-3.445l.314-3.987c-7.41-.583-21.079.85-38.171 3.479-17.174 2.641-38.027 6.53-59.937 10.96C83.887 24.53 35.757 35.573 4.214 43.18l.938 3.888zM230.007 5.626l28.058 147.616 3.93-.747L233.936 4.88l-3.929.746zm27.967 147.751L38.056 197.823l.793 3.92 219.918-44.445-.793-3.921zM37.92 197.734L5.11 47.194l-3.908.852 32.81 150.539 3.908-.851zm.136.089a.113.113 0 01-.075-.011.115.115 0 01-.053-.053l-3.646 1.645a4.116 4.116 0 004.567 2.339l-.793-3.92zm-.128-.065a.115.115 0 01-.008-.024l-3.908.851c.062.286.153.56.27.819l3.646-1.646zm220.137-44.516a.115.115 0 01-.091.135l.793 3.921a4.116 4.116 0 003.228-4.803l-3.93.747zM4.215 43.18c-2.23.537-3.477 2.735-3.013 4.866l3.909-.852c-.014-.06 0-.094.008-.106a.038.038 0 01.01-.01s.005-.006.023-.01l-.938-3.888zm-.122 2.831c31.511-7.6 79.59-18.63 123.352-27.48 21.882-4.424 42.666-8.3 59.752-10.928 17.167-2.64 30.378-3.984 37.249-3.445l.314-3.987c-7.41-.583-21.08.85-38.171 3.479-17.174 2.642-38.027 6.53-59.937 10.961C82.828 23.472 34.698 34.515 3.155 42.123l.938 3.888zM228.947 4.57l28.059 147.615 3.93-.747L232.877 3.823l-3.93.747zm27.968 147.75L36.997 196.766l.792 3.92 219.919-44.445-.793-3.921zM36.861 196.677L4.05 46.137l-3.908.852 32.81 150.539 3.908-.851zm.136.089a.123.123 0 01-.037.002c-.01-.002-.02-.004-.032-.01l-1.646 3.646c.76.343 1.632.459 2.507.282l-.792-3.92zm-.07-.008a.109.109 0 01-.067-.081l-3.907.851a4.112 4.112 0 002.33 2.876l1.645-3.646zm220.079-44.573a.115.115 0 01-.091.135l.793 3.921a4.116 4.116 0 003.228-4.803l-3.93.747zM3.155 42.123C.926 42.66-.321 44.859.143 46.989l3.908-.852c-.013-.06.002-.093.01-.106a.035.035 0 01.008-.01s.006-.005.024-.01l-.938-3.888zm46.117 96.86l4.398 4.48 2.855-2.802-4.399-4.48-2.854 2.802zm9.328 3.68l6.582-13.474-3.594-1.756-6.582 13.474 3.594 1.756zm-4.93.8a3.058 3.058 0 004.93-.8l-3.594-1.756a.942.942 0 011.519-.246l-2.855 2.802zm74.875-20.497l3.906 4.341 2.973-2.676-3.906-4.34-2.973 2.675zm8.97 3.545l5.97-13.335-3.651-1.635-5.97 13.335 3.651 1.635zm-5.064.796c1.479 1.644 4.16 1.222 5.064-.796l-3.651-1.635a.942.942 0 011.56-.245l-2.973 2.676z" fill="#7831B2"/></svg>