<svg width="241" height="194" fill="none" xmlns="http://www.w3.org/2000/svg"><path d="M42.941 98.457h95.089l.134-.113m0 0l34.233-28.674m-34.233 28.674l-.134-.376m.134.376l15.55 43.622m18.683-72.296L239 13.88v-8.8H108.131m64.266 64.589l-.057-.057m.057.057l28.372 28.297M106.17 5.082L5.69 88.191c-1.634 1.955-3.921 6.355 0 8.31 3.921 1.956 19.606 1.793 26.958 1.467m44.603 1.466l-2.94 31.777c.163 1.793 1.176 5.573 3.92 6.355 2.746.783 51.466 3.26 75.483 4.4m0 0l45.584-42.532 12.254-10.755c.98-1.467 2.352-5.084 0-7.822-2.353-2.738-16.665-17.11-23.527-23.955m-7.353 5.867l27.449 28.843M32.648 97.48c28.919-31.288 79.404-45.955 79.894-47.91.392-1.565 3.515-4.748 6.862-5.867 5.111-1.708 13.234-1.955 13.234 3.911 0 5.867-15.685 9.289-23.527 10.267-25.096 9.386-54.897 30.31-66.66 39.599l-.98 4.889c9.803 1.564 8.005 10.429 5.881 14.666 8.66 16.622 26.272 50.549 27.449 53.287 1.176 2.738 2.124 8.311 2.45 10.755-.653 3.097-3.823 9.582-11.273 10.756-7.45 1.173-10.947-4.074-11.764-6.845L36.08 120.456c-10.587-7.431-5.392-15.155-1.47-18.088l-1.96-3.911m8.767 0h95.089l.134-.113m0 0l34.233-28.674M136.64 98.344l-.134-.376m.134.376l15.55 43.622m18.683-72.296l66.603-55.789v-8.8h-130.87m64.266 64.589l-.057-.057m.057.057l28.372 28.297M104.645 5.082L4.165 88.19c-.89 1.066-1.974 2.857-2.143 4.582m0 0c-.14 1.442.358 2.839 2.143 3.73 3.921 1.955 19.606 1.792 26.958 1.466m-29.1-5.196c-.21-1.969 1.099-4.214 2.142-5.462L106.595 2M2.022 92.772c.12 1.115.726 2.142 2.143 2.849 3.921 1.955 19.606 1.792 26.958 1.466m44.603 2.347l-2.94 31.777c.163 1.792 1.176 5.573 3.92 6.355.026.008.057.015.091.023m0 0c3.58.807 51.604 3.247 75.392 4.377m-75.392-4.377c2.882.632 13.695-5.191 75.392 4.377m0 0l45.584-42.532m-45.584 42.532l23.253-22.877 22.331-19.655m0 0l12.253-10.755c.981-1.467 2.353-5.084 0-7.822-2.352-2.738-16.665-17.11-23.527-23.955m-7.352 5.867l27.448 28.843M31.123 97.48c28.691-31.652 79.404-45.955 79.894-47.91.392-1.565 3.515-4.748 6.862-5.867 5.111-1.708 13.234-1.955 13.234 3.911 0 5.867-15.685 9.289-23.527 10.267-25.096 9.386-54.897 30.31-66.66 39.599l-.98 4.889c9.802 1.564 8.005 10.429 5.881 14.666 8.66 16.622 26.272 50.549 27.448 53.287 1.177 2.738 2.124 8.311 2.451 10.755-.653 3.097-3.823 9.582-11.273 10.756-7.45 1.173-10.947-4.074-11.764-6.845l-18.135-64.531c-10.587-7.431-5.392-15.155-1.47-18.088l-1.961-3.911" stroke="#7831B2" stroke-width="4" stroke-linecap="round"/></svg>