<svg width="175" height="181" fill="none" xmlns="http://www.w3.org/2000/svg"><path d="M79.93 59.1a1.5 1.5 0 00-2.998-.12l2.998.12zm24.344 53.86l-.389 1.449.389-1.449zm51.023-35.92a1.5 1.5 0 10-2.706-1.295l2.706 1.294zm-78.33.291a1.5 1.5 0 002.658-1.392l-2.657 1.392zm23.661-71.944l.352 1.459-.352-1.459zm72.298 37.667l-1.497-.086 1.497.086zm-27.42 47.98a1.5 1.5 0 001.691 2.48l-1.691-2.48zM92.503 106.83a1.5 1.5 0 10-2.923-.674l2.923.674zm-4.144 11.287l-1.462-.338-.217.943.769.587.91-1.192zm13.773 10.509l-.91 1.192.505.386.628-.095-.223-1.483zm23.466-14.191a1.5 1.5 0 00-2.923-.674l2.923.674zm-36.693 5.287a1.5 1.5 0 00-.16-2.996l.16 2.996zm-46.793.987l-.08-1.498-.165.009-.159.044.404 1.445zm-8.86 1.77a1.5 1.5 0 001.589 2.545l-1.588-2.545zm125.714 23.614l.866-1.224-.072-.052-.078-.042-.716 1.318zm6.47 8.54a1.499 1.499 0 102.915-.707l-2.915.707zM85.239 44.569a1.5 1.5 0 00-1.152 2.77l1.152-2.77zm48.436-1.799l-.935-1.173.935 1.173zm19.584 20.477a1.5 1.5 0 10.346-2.98l-.346 2.98zM83.928 44.268a1.5 1.5 0 00-1.152 2.77l1.152-2.77zm48.436-1.799l-.935-1.173.935 1.173zm19.584 20.477a1.5 1.5 0 00.346-2.98l-.346 2.98zm-71.572-3.815a1.5 1.5 0 10-2.998-.12l2.998.12zm22.89 52.222l.389-1.449-.389 1.449zm51.477-33.824a1.5 1.5 0 10-2.706-1.294l2.706 1.294zm-77.187.127a1.5 1.5 0 002.658-1.392l-2.658 1.392zm94.361-36.209l1.498.087-1.498-.087zm-26.075 48.29a1.5 1.5 0 101.691 2.478l-1.691-2.478zM91.494 105.22a1.5 1.5 0 10-2.923-.674l2.923.674zm-4.144 11.287l-1.462-.337-.217.943.769.587.91-1.193zm13.773 10.509l-.91 1.193.505.385.628-.094-.223-1.484zm19.322-2.904l.223 1.483 1.009-.151.23-.995-1.462-.337zm4.144-11.286a1.499 1.499 0 10-2.923-.675l2.923.675zm-36.693 5.286a1.5 1.5 0 10-.16-2.996l.16 2.996zm-46.793.987l-.08-1.498-.165.009-.159.045.404 1.444zm-8.86 1.771a1.499 1.499 0 101.589 2.545l-1.589-2.545zm88.919 1.925a1.5 1.5 0 10-1.431 2.636l1.431-2.636zm36.797 21.689l.866-1.225-.072-.051-.078-.043-.716 1.319zm6.47 8.54a1.5 1.5 0 002.915-.707l-2.915.707zm-100.992-3.352l-1.495.119 1.495-.119zM35.003 179.01l.056 1.499-.056-1.499zM2.1 151.958l1.496-.118-1.496.118zm28.435-29.338l-.056-1.499.056 1.499zm32.153 35.619l-1.451-.379 1.451.379zM2.85 143.392l-1.45-.38 1.45.38zm48.887-4.812a1.5 1.5 0 00-1.982-2.253l1.982 2.253zm-33.152 8.816a1.5 1.5 0 00-2.659 1.39l2.659-1.39zM76.932 58.98c-.347 8.687.47 20.856 4.276 31.673 3.805 10.814 10.705 20.544 22.677 23.756l.778-2.897c-10.623-2.851-16.986-11.51-20.625-21.855C80.4 79.315 79.592 67.556 79.93 59.1l-2.998-.12zm26.953 55.429c11.964 3.211 21.108 2.022 29.186-4.297 7.914-6.191 14.636-17.195 22.226-33.073l-2.706-1.294c-7.594 15.885-14.065 26.29-21.369 32.004-7.141 5.587-15.239 6.8-26.559 3.763l-.778 2.897zm-24.26-38.47c-4.572-8.728-8.022-24.024-5.86-38.159 1.078-7.043 3.538-13.722 7.871-19.153 4.318-5.412 10.557-9.662 19.344-11.781l-.703-2.917c-9.406 2.269-16.233 6.87-20.986 12.827-4.738 5.939-7.355 13.148-8.49 20.57-2.265 14.797 1.312 30.737 6.167 40.005l2.657-1.392zM100.98 6.846c17.787-4.29 35.805-.634 49.201 6.876 13.489 7.562 21.856 18.74 21.248 29.246l2.995.173c.706-12.205-8.884-24.248-22.776-32.036-13.985-7.84-32.774-11.661-51.371-7.176l.703 2.917zm70.449 36.122c-.333 5.752-.442 10.402-.852 14.585-.406 4.14-1.097 7.663-2.542 11.032-2.881 6.722-8.894 13.148-22.529 22.45l1.691 2.478c13.745-9.377 20.363-16.205 23.596-23.746 1.612-3.761 2.348-7.621 2.77-11.921.417-4.257.537-9.101.861-14.705l-2.995-.173zm-81.85 63.187l-2.682 11.623 2.923.675 2.683-11.624-2.923-.674zm-2.13 13.153l13.773 10.509 1.82-2.385-13.773-10.509-1.82 2.385zm14.906 10.8l19.322-2.904-.446-2.967-19.322 2.905.446 2.966zm20.561-4.05l2.682-11.624-2.923-.674-2.682 11.624 2.923.674zm-34.17-9.333l-46.714 2.485.16 2.996 46.713-2.485-.16-2.996zm-47.038 2.538c-.99.277-2.581.762-4.165 1.325-1.547.551-3.22 1.223-4.29 1.89l1.588 2.545c.765-.477 2.162-1.058 3.708-1.608a63.095 63.095 0 013.966-1.262l-.807-2.89zm79.03 7.776l37.512 20.371 1.432-2.636-37.512-20.371-1.432 2.636zm37.361 20.277a43.59 43.59 0 014.469 3.659c.773.733 1.462 1.462 1.984 2.133.545.701.809 1.215.884 1.524l2.915-.707c-.227-.935-.806-1.855-1.431-2.658-.647-.833-1.453-1.677-2.288-2.469a46.454 46.454 0 00-4.8-3.93l-1.733 2.448zM84.663 45.954a149.707 149.707 0 00-.575 1.386h.002l.006.003a2.84 2.84 0 01.091.037l.268.106c.232.091.571.22 1.007.378.87.314 2.13.744 3.7 1.209 3.136.929 7.527 2.004 12.546 2.586 9.993 1.16 22.73.389 32.902-7.715l-1.87-2.347c-9.263 7.38-21.033 8.202-30.687 7.082-4.805-.557-9.022-1.59-12.04-2.483a63.695 63.695 0 01-3.531-1.154 40.859 40.859 0 01-1.241-.472h-.003l-.575 1.385zm49.947-2.01c2.394-1.908 4.125-2.99 5.36-3.498 1.254-.517 1.669-.318 1.769-.255.177.112.483.483.726 1.58.232 1.046.335 2.399.425 4.021.174 3.117.283 7.153 1.521 10.5.633 1.71 1.585 3.322 3.052 4.58 1.478 1.267 3.387 2.096 5.796 2.375l.346-2.98c-1.893-.22-3.221-.842-4.19-1.673-.979-.84-1.683-1.97-2.19-3.343-1.044-2.821-1.154-6.31-1.339-9.626-.089-1.593-.2-3.184-.492-4.502-.281-1.266-.808-2.68-2.05-3.466-1.319-.835-2.908-.648-4.517.015-1.629.671-3.622 1.962-6.087 3.925l1.87 2.347zm-51.258 1.71a149.707 149.707 0 00-.575 1.385h.002l.006.003a2.84 2.84 0 01.091.037c.062.025.151.061.268.106.232.09.57.22 1.006.377.872.315 2.131.745 3.7 1.21 3.137.928 7.528 2.004 12.546 2.586 9.994 1.16 22.73.388 32.902-7.715l-1.869-2.347c-9.264 7.38-21.033 8.202-30.687 7.082-4.805-.557-9.023-1.59-12.04-2.483a63.695 63.695 0 01-3.532-1.154 40.859 40.859 0 01-1.24-.472h-.003l-.575 1.384zm49.946-2.011c2.395-1.908 4.125-2.99 5.36-3.498 1.255-.517 1.67-.318 1.77-.255.176.112.482.483.726 1.58.231 1.046.335 2.399.425 4.021.174 3.117.283 7.153 1.521 10.5.632 1.71 1.584 3.322 3.051 4.58 1.478 1.267 3.387 2.096 5.797 2.375l.346-2.98c-1.893-.22-3.221-.842-4.19-1.673-.979-.84-1.683-1.97-2.191-3.343-1.043-2.821-1.154-6.31-1.338-9.626-.089-1.593-.2-3.184-.492-4.502-.281-1.266-.809-2.68-2.051-3.466-1.319-.835-2.907-.648-4.517.015-1.628.671-3.621 1.962-6.086 3.925l1.869 2.347zm-55.92 15.369c-.344 8.645.1 20.407 3.54 30.825 3.448 10.439 9.994 19.754 21.96 22.965l.777-2.898c-10.628-2.852-16.619-11.107-19.888-21.007-3.276-9.921-3.73-21.268-3.39-29.766l-2.998-.12zm25.5 53.79c11.895 3.192 21.138 2.57 29.35-3.203 8.068-5.671 14.917-16.174 22.515-32.07l-2.706-1.294c-7.585 15.867-14.157 25.724-21.534 30.909-7.232 5.084-15.46 5.816-26.848 2.76l-.777 2.898zM80.214 76.264c-4.58-8.744-8.427-24.54-6.652-39.171.885-7.293 3.156-14.209 7.343-19.809 4.17-5.576 10.298-9.931 19.066-12.046l-.703-2.916c-9.425 2.273-16.163 7.01-20.765 13.166-4.585 6.131-6.99 13.588-7.92 21.243-1.852 15.267 2.127 31.672 6.973 40.925l2.658-1.392zM99.97 5.238c17.787-4.29 35.805-.633 49.201 6.877 13.489 7.562 21.856 18.74 21.248 29.245l2.995.174c.706-12.205-8.884-24.248-22.776-32.036-13.986-7.84-32.774-11.662-51.371-7.176l.703 2.916zm70.45 36.122c-.166 2.859-.256 5.487-.34 7.917-.085 2.438-.164 4.666-.306 6.762-.283 4.186-.815 7.75-2.1 11.155-2.554 6.766-8.214 13.253-21.832 22.543l1.691 2.478c13.763-9.39 20.06-16.312 22.948-23.962 1.435-3.803 1.995-7.7 2.287-12.011.145-2.154.226-4.433.31-6.86.085-2.435.174-5.03.337-7.848l-2.995-.174zm-81.85 63.187l-2.682 11.624 2.923.674 2.683-11.624-2.923-.674zm-2.13 13.154l13.773 10.509 1.82-2.385-13.773-10.509-1.82 2.385zm14.906 10.8l19.322-2.905-.446-2.966-19.322 2.904.446 2.967zm20.561-4.051l2.682-11.623-2.923-.675-2.682 11.624 2.923.674zm-34.17-9.333l-46.714 2.485.16 2.996 46.713-2.485-.16-2.996zm-47.038 2.539c-.99.276-2.581.761-4.165 1.325-1.547.55-3.221 1.222-4.29 1.89l1.588 2.545c.765-.478 2.162-1.059 3.708-1.609a64.455 64.455 0 013.966-1.262l-.807-2.889zm79.032 7.776l37.512 20.371 1.432-2.637-37.513-20.37-1.431 2.636zm37.361 20.277a43.456 43.456 0 014.469 3.659c.773.732 1.462 1.462 1.984 2.133.545.7.809 1.214.884 1.524l2.915-.707c-.226-.935-.806-1.855-1.43-2.659-.648-.833-1.454-1.677-2.289-2.469a46.586 46.586 0 00-4.8-3.93l-1.733 2.449zm-95.15 4.083a24.232 24.232 0 01-.704 8.068l2.902.759a27.234 27.234 0 00.793-9.064l-2.99.237zm-26.995 27.72c-16.245.605-30.189-11.008-31.35-25.672l-2.99.236c1.304 16.48 16.82 29.091 34.452 28.434l-.112-2.998zM3.597 151.84a24.24 24.24 0 01.704-8.069l-2.902-.759a27.234 27.234 0 00-.793 9.064l2.99-.236zm26.995-27.721c16.245-.605 30.189 11.008 31.35 25.673l2.99-.237c-1.304-16.479-16.821-29.09-34.452-28.434l.112 2.998zm30.646 33.741c-2.84 10.859-13.18 19.164-26.291 19.652l.111 2.998c14.31-.533 25.877-9.636 29.082-21.891l-2.902-.759zM4.3 143.771c2.84-10.859 13.18-19.163 26.291-19.652l-.112-2.998c-14.309.533-25.876 9.636-29.081 21.891l2.902.759zm58.028 4.538c1.156 14.602-10.785 27.117-26.996 27.721l.112 2.998c17.665-.658 31.185-14.413 29.875-30.955l-2.991.236zM35.333 176.03c-16.244.605-30.188-11.008-31.35-25.673l-2.99.237c1.305 16.479 16.822 29.091 34.452 28.434l-.112-2.998zm-31.35-25.673c-1.156-14.601 10.785-27.116 26.996-27.72l-.112-2.998c-17.665.658-31.184 14.413-29.874 30.955l2.99-.237zm26.996-27.72c16.244-.605 30.188 11.008 31.35 25.672l2.99-.236c-1.305-16.48-16.821-29.091-34.452-28.434l.112 2.998zm1.549 41.343c3.11-5.565 10.49-17.731 19.208-25.4l-1.982-2.253c-9.13 8.033-16.718 20.593-19.845 26.19l2.619 1.463zm-15.274-15.889l-1.329.695.001.001.002.004a.32.32 0 00.006.012l.025.047.094.178a119.249 119.249 0 001.644 2.963c1.076 1.875 2.552 4.333 4.136 6.625 1.559 2.255 3.312 4.485 4.953 5.792.798.635 1.783 1.23 2.854 1.29a2.888 2.888 0 001.695-.423c.52-.321.907-.782 1.193-1.295l-2.619-1.463c-.103.185-.167.216-.149.205.032-.02.064-.019.046-.02-.119-.006-.492-.116-1.15-.64-1.27-1.011-2.812-2.92-4.355-5.152-1.517-2.195-2.947-4.574-4.002-6.412a117.608 117.608 0 01-1.598-2.881l-.089-.167a3.442 3.442 0 00-.022-.042l-.005-.01-.001-.002-1.33.695z" fill="#7831B2"/></svg>