<svg width="139" height="137" fill="none" xmlns="http://www.w3.org/2000/svg"><path d="M19.204.127a2 2 0 10-.775 3.924l.775-3.924zm116.133 20.638l1.975.313.361-2.28-2.308-.033-.028 2zm-17.893 113.013l-.306 1.976 1.97.306.312-1.969-1.976-.313zm-10.58-3.666a1.999 1.999 0 10-.614 3.952l.614-3.952zM19.082.106a2 2 0 00-.527 3.966l.527-3.966zm115.485 19.95l-.306 1.976.306-1.976zM117.67 134l-.307 1.976 1.965.305.317-1.963-1.975-.318zm-12.299-3.933a2 2 0 10-.614 3.953l.614-3.953zM136 20.278l1.975.319.32-1.987-1.988-.308-.307 1.976zM19.996 3.678a2 2 0 10-3.858-1.054l3.858 1.054zM3.983 112.845l-1.333 1.49.4.359.528.109.405-1.958zm56.453 13.73a2 2 0 00.811-3.917l-.81 3.917zM20.147 2.621a2 2 0 00-3.802-1.242l3.802 1.242zM4.074 112.269L2.74 113.76l.393.352.516.112.425-1.955zm56.77 12.347l-.425 1.955.047.01.047.008.33-1.973zm46.926 9.896a2 2 0 00.661-3.945l-.661 3.945zm-54.237-34.176l-1.372-1.455 1.372 1.455zm77.132-52.387a2 2 0 10-1.616-3.659l1.616 3.659zm-100.24-2.172a2 2 0 10-3.942.684l3.941-.684zM18.428 4.051c16.347 3.226 41.838 7.846 65.075 11.686 23.148 3.826 44.299 6.92 51.804 7.028l.057-4c-7.13-.102-27.916-3.125-51.208-6.974C60.954 7.956 35.504 3.343 19.204.127l-.775 3.924zM133.36 20.452l-17.892 113.013 3.951.626 17.892-113.013-3.951-.626zm-15.61 111.349l-10.887-1.689-.614 3.952 10.888 1.69.613-3.953zM18.555 4.071C123.79 18.05 123.192 20.315 134.261 22.033l.613-3.952c-10.706-1.662-10.595-4-115.792-17.974l-.527 3.966zm99.422 127.953l-12.606-1.957-.614 3.953 12.606 1.956.614-3.952zm16.284-109.992l1.432.223.614-3.953-1.433-.222-.613 3.952zm-.236-2.072l-18.329 113.722 3.949.636 18.33-113.721-3.95-.637zM16.138 2.624C12.302 16.664 7.014 42.6 3.56 65.807 1.834 77.41.557 88.387.156 96.885c-.2 4.241-.186 7.931.117 10.799.152 1.432.382 2.723.721 3.802.326 1.036.822 2.104 1.656 2.849l2.667-2.981c-.044-.039-.264-.297-.507-1.069-.23-.73-.422-1.733-.559-3.022-.272-2.572-.296-6.031-.1-10.19.393-8.3 1.647-19.127 3.366-30.678 3.438-23.102 8.698-48.875 12.48-62.717l-3.86-1.054zM3.578 114.803l56.858 11.772.811-3.917L4.39 110.886l-.811 3.917zM16.345 1.379C11.85 15.142 6.535 41.276 3.219 64.7 1.56 76.424.392 87.54.082 96.146c-.155 4.295-.098 8.03.236 10.929.167 1.447.41 2.747.757 3.832.333 1.039.834 2.109 1.665 2.853l2.667-2.981c-.045-.041-.27-.306-.523-1.094-.238-.743-.442-1.762-.592-3.069-.301-2.608-.364-6.115-.213-10.326.303-8.409 1.45-19.37 3.101-31.03 3.304-23.343 8.581-49.207 12.967-62.64l-3.802-1.24zm44.168 125.21l47.257 7.923.661-3.945-47.257-7.923-.661 3.945zm-5.608-24.798c13.456-12.688 44.67-40.11 75.76-53.842l-1.616-3.66C97.287 58.32 65.65 86.162 52.161 98.882l2.744 2.91zM28.454 46.119l-1.97.343v.003a.8.8 0 00.002.01l.006.038.026.147.102.564c.089.493.221 1.211.394 2.12.346 1.817.855 4.396 1.508 7.451 1.305 6.103 3.19 14.13 5.505 21.776 2.298 7.59 5.08 15.01 8.238 19.76 1.556 2.341 3.405 4.349 5.608 5.191 1.154.441 2.39.555 3.647.238 1.235-.311 2.362-1.004 3.385-1.969l-2.744-2.91c-.66.623-1.203.896-1.618 1-.393.1-.788.078-1.242-.095-1.01-.386-2.278-1.523-3.705-3.669-2.807-4.224-5.453-11.152-7.74-18.705-2.27-7.497-4.13-15.405-5.422-21.453a333.12 333.12 0 01-1.49-7.363 240.336 240.336 0 01-.518-2.808l-.001-.009v-.001l-1.971.341zM3.649 114.224l56.77 12.347.85-3.909-56.77-12.347-.85 3.909z" fill="#7831B2"/></svg>