<svg width="111" height="110" fill="none" xmlns="http://www.w3.org/2000/svg"><path d="M54.413 18.704l-.282 39.723c-.011 1.674 2.09 2.396 3.124 1.073l23.043-29.496m-25.88-11.297c1.994 14.52 1.48 27.76.75 36.029-.17 1.92 2.688 2.952 3.746 1.335 7.545-11.538 21.397-31.924 22.328-27.557m17.166 54.6c-15.58 24.736-48.044 32.295-72.511 16.884C1.429 84.586-5.776 52.04 9.804 27.304 25.384 2.568 57.848-4.99 82.316 10.421c24.467 15.411 31.672 47.957 16.092 72.693zm2.417-.563c-15.58 24.736-48.044 32.295-72.511 16.884C3.846 84.023-3.36 51.477 12.22 26.74 27.8 2.007 60.265-5.552 84.733 9.859c24.467 15.411 31.672 47.957 16.092 72.693z" stroke="#7831B2" stroke-width="3" stroke-linecap="round"/></svg>