<svg width="292" height="214" fill="none" xmlns="http://www.w3.org/2000/svg"><mask id="a" maskUnits="userSpaceOnUse" x="-6.072" y="-13.076" width="301.681" height="245.65" fill="#000"><path fill="#fff" d="M-6.072-13.076h301.681v245.65H-6.072z"/><path d="M98.694 46.493c1.267 1.782 3.017 2.713 3.908 2.08.892-.633.588-2.59-.679-4.372s-3.017-2.713-3.909-2.08c-.891.633-.587 2.59.68 4.372z"/><path d="M97.59 46.306c1.266 1.782 3.016 2.713 3.908 2.08.892-.633.587-2.59-.68-4.372-1.266-1.782-3.016-2.713-3.908-2.08-.892.633-.588 2.59.68 4.372zm-11.81 9.357c1.267 1.781 3.017 2.712 3.909 2.08.891-.634.587-2.591-.68-4.373-1.267-1.781-3.017-2.712-3.908-2.08-.892.633-.588 2.591.679 4.373z"/><path d="M84.675 55.476c1.267 1.781 3.017 2.712 3.909 2.08.891-.633.587-2.591-.68-4.373-1.267-1.781-3.016-2.712-3.908-2.08-.892.634-.588 2.591.68 4.373zm-11.812 9.356c1.267 1.781 3.017 2.713 3.909 2.08.891-.634.587-2.59-.68-4.373-1.266-1.781-3.016-2.712-3.908-2.08-.892.634-.588 2.591.68 4.373z"/><path d="M71.758 64.645c1.267 1.782 3.017 2.713 3.909 2.08.892-.633.587-2.59-.68-4.372-1.266-1.782-3.016-2.713-3.908-2.08-.892.633-.587 2.59.68 4.372zm99.9 47.334c-1.561 2.274-3.749 3.486-4.887 2.706-1.138-.78-.795-3.255.766-5.529s3.749-3.485 4.887-2.706c1.138.78.795 3.255-.766 5.529z"/><path d="M173.048 111.72c-1.561 2.274-3.749 3.486-4.887 2.706-1.138-.78-.795-3.255.766-5.529s3.749-3.485 4.887-2.706c1.138.78.795 3.255-.766 5.529zm14.067 11.633c-1.561 2.274-2.725 3.405-3.863 2.626-1.138-.78-.795-3.255.766-5.529s3.749-3.486 4.887-2.706c1.138.779-.229 3.335-1.79 5.609z"/><path d="M189.528 123.014c-1.561 2.274-3.749 3.485-4.886 2.706-1.138-.78-.795-3.256.766-5.529 1.561-2.274 3.749-3.486 4.887-2.706 1.137.779.794 3.255-.767 5.529zm15.094 11.552c-1.561 2.274-3.749 3.486-4.887 2.706-1.138-.78-.795-3.255.766-5.529s3.749-3.485 4.887-2.706c1.138.78.795 3.255-.766 5.529z"/><path d="M206.011 134.308c-1.561 2.274-3.749 3.485-4.886 2.705-1.138-.779-.795-3.255.766-5.529s3.749-3.485 4.887-2.706c1.138.78.794 3.256-.767 5.53zm-45.498-2.142c-1.561 2.274-3.749 3.485-4.887 2.705-1.138-.779-.795-3.255.766-5.529s3.749-3.485 4.887-2.705c1.138.779.795 3.255-.766 5.529z"/><path d="M161.902 131.907c-1.561 2.274-3.749 3.485-4.887 2.705-1.138-.779-.795-3.255.766-5.529s3.749-3.485 4.887-2.705c1.138.779.795 3.255-.766 5.529zm15.091 11.552c-1.561 2.274-3.749 3.486-4.887 2.706-1.138-.78-.795-3.255.766-5.529s3.749-3.486 4.887-2.706c1.138.78.795 3.255-.766 5.529z"/><path d="M178.383 143.2c-1.561 2.274-3.749 3.486-4.887 2.706-1.138-.78-.795-3.255.766-5.529s3.749-3.486 4.887-2.706c1.138.78.795 3.255-.766 5.529z"/></mask><path d="M1.899 76.06a1 1 0 101.495 1.327L1.899 76.06zm-.547 2.109l-.748-.664-.411.463.23.574.929-.373zm111.427 3.016a1 1 0 10.941 1.765l-.941-1.765zm16.692-7.76l.47.883.726-.386-.24-.787-.956.29zm.269-.42l.421.906.728-.338-.173-.784-.976.215zm-16.745 7.79a.999.999 0 101.047 1.703l-1.047-1.704zm7.866-3.663l-.421-.907-.053.025-.049.03.523.852zm-2.47 31.149l.98-.199-.98.199zm-3.189 2.09l.572-.82-.572.82zM91.46 92.589a1 1 0 00-1.145 1.64l1.145-1.64zm23.042 16.691l-.578.817.578-.817zm-8.551-6.048l.578-.817-.009-.006-.569.823zm-14.734-11.4a1 1 0 00-1.137 1.645l1.137-1.645zm24.498 6.353l-.988.158.005.029.006.028.977-.215zm1.979 8.979l.977-.215-.977.215zm-83.889 13.458l-.532-.847.971 1.745-.439-.898zm-18.057-37.9a1 1 0 10-1.896.639l1.896-.64zm12.233 22.672a1 1 0 101.28-1.536l-1.28 1.536zm10.074-53.536a1 1 0 101.285 1.533l-1.285-1.533zM287.38 157.335a1.001 1.001 0 001.473-1.353l-1.473 1.353zm1.663 1.796a1 1 0 101.473-1.353l-1.473 1.353zm-140.816 7.486a.999.999 0 10.91-1.78l-.91 1.78zm-20.185-11.449l-.961-.275-.227.791.732.375.456-.891zm-.88.07l-.98-.2-.17.837.8.299.35-.936zm20.662 10.823a1 1 0 101.019-1.721l-1.019 1.721zm-8.846-6.399l.509-.861-.076-.045-.082-.031-.351.937zm151.616-.443l.934.357-1.817-.827.883.47zm-148.098 41l-.983-.183.983.183zm3.222 2.036l.586.811-.586-.811zm31.991-21.884a.999.999 0 10-1.171-1.621l1.171 1.621zm-31.162 20.528l-.591-.806.591.806zm11.78-8.63l-.583-.813-.008.006.591.807zm19.665-12.852a1 1 0 00-1.165-1.626l1.165 1.626zm-32.085 6.692l.98.199.006-.029.004-.029-.99-.141zm-2.587 12.728l-.98-.199.98.199zm105.691 13.635l-.425.905.943-1.76-.518.855zm24.824-47.289a1 1 0 00-1.905-.608l1.905.608zm-32.357-37.39a1 1 0 001.26-1.554l-1.26 1.554zm-64.13-42.462a1 1 0 00-.662 1.888l.662-1.888zM3.394 77.387c9.16-10.313 25.454-26.434 44.528-41.234C67.014 21.339 88.795 7.924 108.937 2.916l-.483-1.94c-20.55 5.11-42.597 18.729-61.758 33.596C27.517 49.454 11.133 65.662 1.9 76.06l1.495 1.328zm-1.295 1.446C11.273 68.504 27.442 51.65 46.59 36.221c19.17-15.446 41.222-29.378 62.168-33.99l-.43-1.953C86.921 4.991 64.575 19.162 45.335 34.664c-19.26 15.52-35.51 32.46-44.731 42.84l1.495 1.33zM113.72 82.95l16.221-8.642-.941-1.765-16.221 8.642.941 1.765zm16.707-9.815c-6.13-20.138-18.897-62.047-20.913-68.56l-1.911.59c2.014 6.508 14.779 48.41 20.911 68.552l1.913-.582zm.289-.346c-4.618-20.95-18.69-65.292-20.695-71.771l-1.911.591c2.025 6.541 16.058 50.766 20.653 71.61l1.953-.43zm-16.674 9.709l7.343-4.514-1.047-1.704-7.343 4.514 1.047 1.704zm7.241-4.46l8.878-4.127-.843-1.814-8.878 4.128.843 1.814zM36.577 120.24c-4.071-3.777-11.397-11.256-18.343-19.382C11.261 92.701 4.78 84.014 2.28 77.796l-1.855.746C3.06 85.1 9.75 94.011 16.714 102.158c6.992 8.179 14.37 15.714 18.502 19.548l1.36-1.466zm-.004-.001c-4.228-3.922-8.483-6.845-13.965-12.761-5.432-5.861-11.971-14.588-20.381-29.793l-1.75.968c8.465 15.305 15.095 24.175 20.664 30.185 5.518 5.955 10.096 9.179 14.071 12.867l1.36-1.466zm75.552-37.814l5.286 26.055 1.96-.398-5.286-26.055-1.96.398zm3.649 27.126L91.46 92.589l-1.145 1.64 24.315 16.962 1.144-1.64zm1.637-1.071c.188.928-.855 1.616-1.637 1.071l-1.144 1.64c2.258 1.576 5.289-.407 4.741-3.109l-1.96.398zm-2.332-.016l-8.55-6.048-1.155 1.632 8.55 6.049 1.155-1.633zm-8.559-6.055L91.217 91.832l-1.137 1.645 15.303 10.578 1.137-1.646zm5.717-19.648l2.49 15.582 1.975-.316-2.49-15.581-1.975.315zm2.501 15.64l1.979 8.979 1.954-.431-1.98-8.98-1.953.431zm-.814 11.696c2.276 1.61 5.347-.422 4.747-3.148l-1.954.431c.207.936-.85 1.641-1.638 1.084l-1.155 1.633zm-23.753-18.15l-56.805 27.776.878 1.797L91.05 93.745l-.879-1.797zm.016-.196c-38.246 16.013-44.394 20.154-56.914 28.024l1.064 1.693c12.412-7.802 18.46-11.894 56.622-27.872l-.772-1.845zm-76.334-8.39c.807 2.395 2.469 6.334 4.85 10.445 2.378 4.105 5.51 8.446 9.278 11.588l1.28-1.536c-3.516-2.932-6.509-7.052-8.827-11.054-2.315-3.997-3.922-7.814-4.686-10.082l-1.896.639zM39.34 53.39c5.051-4.238 13.667-10.982 23.072-17.425 9.422-6.454 19.565-12.555 27.69-15.556l-.693-1.877c-8.368 3.092-18.68 9.312-28.127 15.783C51.818 40.8 43.15 47.583 38.055 51.858l1.285 1.533zm249.513 102.591c-11.854-12.909-32.845-32.997-57.331-51.353-24.469-18.343-52.525-35.03-78.499-41.03l-.45 1.948c25.564 5.905 53.351 22.392 77.749 40.682 24.38 18.277 45.28 38.28 57.058 51.106l1.473-1.353zm1.663 1.796c-11.849-12.904-33.343-33.861-58.596-52.959-25.232-19.081-54.323-36.39-81.356-41.87l-.397 1.96c26.584 5.39 55.383 22.476 80.546 41.506 25.142 19.013 46.548 39.885 58.33 52.716l1.473-1.353zm-141.379 7.059l-20.64-10.559-.911 1.781 20.641 10.558.91-1.78zm-20.134-9.393c7.335-25.6 22.409-81.406 24.826-89.693l-1.92-.56c-2.398 8.222-17.532 64.238-24.828 89.702l1.922.551zm-.861-.007c5.366-26.403 22.682-83.083 25.101-91.379l-1.92-.56c-2.395 8.213-19.753 65.03-25.141 91.54l1.96.399zm20.701 8.903l-9.356-5.539-1.019 1.721 9.356 5.539 1.019-1.721zm-9.514-5.615l-11.816-4.424-.701 1.873 11.815 4.424.702-1.873zm111.652 54.73c5.134-4.924 13.687-14.282 21.735-24.438 8.029-10.133 15.645-21.173 18.812-29.441l-1.868-.715c-3.047 7.956-10.488 18.787-18.511 28.913-8.005 10.102-16.497 19.39-21.552 24.238l1.384 1.443zm.219.045c5.014-4.81 9.981-8.591 16.191-15.957 6.228-7.386 13.741-18.399 24.086-37.855l-1.766-.939c-10.307 19.385-17.744 30.265-23.849 37.505-6.122 7.261-10.872 10.84-16.047 15.803l1.385 1.443zM147.885 165.74l-6.372 34.295 1.966.365 6.372-34.295-1.966-.365zm-1.581 37.325l31.405-22.695-1.171-1.621-31.405 22.695 1.171 1.621zm-4.791-3.03c-.504 2.711 2.56 4.642 4.791 3.03l-1.171-1.621c-.773.558-1.827-.113-1.654-1.044l-1.966-.365zm5.625 1.67l11.78-8.631-1.182-1.613-11.78 8.631 1.182 1.613zm11.771-8.624l19.083-13.665-1.165-1.626-19.083 13.665 1.165 1.626zm-11.174-26.821l-2.818 19.706 1.98.283 2.818-19.706-1.98-.283zm-2.808 19.648l-2.587 12.729 1.96.398 2.587-12.728-1.96-.399zm1.029 14.184c-.779.57-1.847-.117-1.656-1.057l-1.96-.398c-.556 2.736 2.549 4.716 4.798 3.068l-1.182-1.613zm31.08-20.343l71.55 33.627.85-1.81-71.549-33.627-.851 1.81zm.098-.195c48.477 19.353 55.524 24.183 71.359 33.773l1.036-1.711c-15.939-9.653-23.086-14.53-71.653-33.919l-.742 1.857zm94.796-14.98c-.923 2.895-2.877 7.759-5.723 12.864-2.849 5.111-6.556 10.4-10.963 14.201l1.306 1.514c4.655-4.014 8.498-9.527 11.404-14.742 2.91-5.221 4.918-10.208 5.881-13.229l-1.905-.608zm-29.192-38.336c-6.511-5.279-17.577-13.649-29.642-21.622-12.047-7.96-25.161-15.573-35.748-19.286l-.662 1.888c10.343 3.626 23.286 11.123 35.308 19.067 12.005 7.933 23.019 16.264 29.484 21.507l1.26-1.554zM97.064 47.652c.774 1.09 1.75 2.002 2.785 2.552.917.488 2.516.99 3.911 0l-2.315-3.262a.833.833 0 01.517-.17c.034.004-.045.002-.234-.099-.379-.202-.912-.646-1.404-1.339l-3.26 2.318zm6.696 2.552c1.397-.991 1.448-2.666 1.288-3.693-.18-1.159-.721-2.38-1.495-3.469l-3.26 2.318c.493.693.737 1.341.803 1.765.033.211.009.285.017.251a.84.84 0 01.332-.434l2.315 3.262zm-.207-7.162c-.775-1.09-1.75-2.001-2.785-2.552-.918-.488-2.516-.99-3.911 0l2.315 3.262a.836.836 0 01-.517.17c-.034-.003.044-.001.234.1.379.201.912.646 1.404 1.338l3.26-2.318zm-6.696-2.552c-1.397.992-1.448 2.667-1.289 3.694.18 1.158.722 2.38 1.496 3.468l3.26-2.318c-.493-.692-.737-1.34-.803-1.765-.033-.21-.009-.284-.017-.25a.838.838 0 01-.332.433l-2.315-3.262zm-.898 6.975c.775 1.09 1.75 2.002 2.786 2.552.917.488 2.515.99 3.911 0l-2.316-3.262a.836.836 0 01.517-.17c.034.004-.044.002-.233-.099-.38-.202-.912-.646-1.405-1.339l-3.26 2.318zm6.697 2.552c1.396-.991 1.447-2.667 1.288-3.693-.18-1.159-.721-2.38-1.496-3.469l-3.26 2.318c.493.693.737 1.341.803 1.765.033.211.009.285.018.251a.835.835 0 01.331-.434l2.316 3.262zm-.208-7.162c-.774-1.09-1.75-2.001-2.785-2.552-.917-.488-2.515-.99-3.91 0l2.315 3.262a.835.835 0 01-.518.17c-.033-.003.045-.001.234.1.38.201.912.646 1.405 1.338l3.259-2.318zm-6.696-2.552c-1.396.992-1.448 2.667-1.288 3.694.18 1.158.72 2.38 1.495 3.468l3.26-2.318c-.492-.692-.737-1.34-.803-1.764-.032-.212-.008-.285-.017-.252a.838.838 0 01-.331.434l-2.316-3.262zM84.15 56.822c.774 1.089 1.75 2 2.785 2.552.918.488 2.516.99 3.911 0l-2.315-3.263a.835.835 0 01.517-.169c.034.003-.044.001-.234-.1-.38-.202-.912-.646-1.404-1.338l-3.26 2.318zm6.696 2.551c1.397-.991 1.448-2.666 1.289-3.693-.18-1.159-.722-2.38-1.496-3.469l-3.26 2.318c.493.693.737 1.341.803 1.765.033.211.009.285.017.252a.836.836 0 01.332-.434l2.315 3.261zm-.207-7.162c-.774-1.089-1.75-2-2.785-2.552-.918-.488-2.516-.99-3.911 0l2.315 3.262a.835.835 0 01-.517.17c-.034-.003.044-.001.234.1.38.201.912.646 1.404 1.338l3.26-2.318zm-6.696-2.551c-1.397.991-1.448 2.666-1.288 3.693.18 1.158.72 2.38 1.495 3.469l3.26-2.318c-.493-.693-.737-1.341-.803-1.765-.033-.211-.009-.285-.017-.252a.836.836 0 01-.332.434l-2.315-3.261zm-.898 6.975c.775 1.089 1.75 2 2.786 2.552.917.488 2.515.99 3.91 0l-2.315-3.262a.835.835 0 01.517-.17c.034.003-.044.001-.233-.1-.38-.202-.912-.646-1.405-1.338l-3.26 2.318zm6.696 2.551c1.397-.991 1.448-2.666 1.289-3.693-.18-1.159-.721-2.38-1.496-3.469l-3.26 2.318c.493.693.737 1.341.803 1.765.033.212.01.285.018.252a.836.836 0 01.331-.434l2.315 3.261zm-.207-7.162c-.774-1.089-1.75-2-2.785-2.552-.917-.488-2.515-.99-3.91 0l2.314 3.262a.835.835 0 01-.517.17c-.033-.003.045-.001.234.1.38.202.912.646 1.404 1.338l3.26-2.318zm-6.696-2.551c-1.396.991-1.448 2.666-1.288 3.693.18 1.159.72 2.38 1.495 3.469l3.26-2.318c-.492-.693-.737-1.341-.803-1.765-.032-.211-.009-.285-.017-.252a.836.836 0 01-.332.434l-2.315-3.261zM71.233 65.99c.775 1.089 1.75 2 2.786 2.552.917.488 2.515.99 3.91 0l-2.315-3.262a.836.836 0 01.517-.17c.034.003-.044.001-.233-.1-.38-.201-.912-.646-1.405-1.338l-3.26 2.318zm6.696 2.551c1.397-.991 1.448-2.666 1.289-3.693-.18-1.158-.721-2.38-1.496-3.469l-3.26 2.319c.493.692.737 1.34.803 1.764.033.212.01.285.018.252a.836.836 0 01.331-.434l2.315 3.261zm-.207-7.162c-.774-1.089-1.75-2-2.785-2.552-.917-.488-2.515-.99-3.91 0l2.314 3.263a.836.836 0 01-.517.169c-.033-.003.045-.001.234.1.38.202.912.646 1.404 1.339l3.26-2.319zm-6.696-2.551c-1.396.991-1.448 2.666-1.288 3.693.18 1.159.72 2.38 1.495 3.469l3.26-2.318c-.492-.693-.737-1.341-.803-1.765-.032-.211-.009-.285-.017-.252a.836.836 0 01-.332.435l-2.315-3.262zm-.897 6.975c.774 1.09 1.75 2.001 2.785 2.552.917.488 2.515.99 3.91 0l-2.315-3.262a.836.836 0 01.517-.17c.034.003-.044.002-.233-.1-.38-.201-.912-.645-1.405-1.338l-3.26 2.318zm6.696 2.552c1.396-.992 1.448-2.667 1.288-3.694-.18-1.158-.721-2.38-1.495-3.468l-3.26 2.318c.492.692.737 1.34.802 1.765.033.211.01.284.018.251a.836.836 0 01.331-.434l2.316 3.262zm-.207-7.162c-.775-1.09-1.75-2.001-2.786-2.552-.917-.488-2.515-.99-3.91 0l2.315 3.262a.836.836 0 01-.517.17c-.034-.003.044-.002.233.1.38.201.912.645 1.405 1.338l3.26-2.318zm-6.697-2.552c-1.396.992-1.448 2.667-1.288 3.694.18 1.158.721 2.38 1.496 3.468l3.26-2.318c-.493-.692-.738-1.34-.803-1.765-.033-.21-.01-.284-.018-.251a.836.836 0 01-.331.434l-2.316-3.262zm100.088 52.205c-.642.937-1.362 1.571-1.922 1.881-.676.374-.577.039-.185.307l-2.261 3.3c1.53 1.048 3.292.497 4.384-.108 1.209-.669 2.364-1.778 3.282-3.116l-3.298-2.264zm-2.107 2.188c.393.269.115.485.221-.28.088-.632.42-1.531 1.063-2.467l-3.297-2.264c-.919 1.338-1.538 2.814-1.728 4.182-.171 1.237-.051 3.08 1.48 4.129l2.261-3.3zm1.284-2.747c.643-.937 1.363-1.57 1.922-1.88.677-.375.578-.039.186-.308l2.261-3.3c-1.53-1.048-3.292-.496-4.384.108-1.209.67-2.364 1.779-3.282 3.116l3.297 2.264zm2.108-2.188c-.393-.269-.116-.485-.222.28-.087.632-.42 1.531-1.063 2.467l3.298 2.264c.918-1.337 1.538-2.813 1.727-4.182.172-1.237.052-3.08-1.479-4.129l-2.261 3.3zm.105 2.488c-.643.937-1.363 1.571-1.922 1.881-.677.374-.578.039-.186.307l-2.261 3.3c1.53 1.048 3.292.497 4.384-.108 1.209-.67 2.364-1.778 3.282-3.116l-3.297-2.264zm-2.108 2.188c.393.269.116.485.222-.28.087-.632.42-1.531 1.063-2.467l-3.298-2.264c-.918 1.338-1.538 2.814-1.727 4.182-.172 1.237-.052 3.08 1.479 4.129l2.261-3.3zm1.285-2.747c.643-.937 1.362-1.57 1.922-1.88.676-.375.577-.039.185-.308l2.261-3.3c-1.53-1.048-3.292-.496-4.384.108-1.209.67-2.364 1.779-3.282 3.116l3.298 2.264zm2.107-2.188c-.393-.269-.115-.485-.221.28-.088.632-.42 1.531-1.063 2.467l3.297 2.264c.919-1.337 1.538-2.813 1.728-4.182.171-1.237.051-3.08-1.48-4.129l-2.261 3.3zm12.783 14.38c-.782 1.14-1.302 1.737-1.638 1.988-.145.108-.112.04.072.02a.763.763 0 01.482.1l-2.261 3.3c.63.431 1.387.666 2.211.576.771-.083 1.406-.43 1.89-.792.921-.688 1.763-1.793 2.542-2.928l-3.298-2.264zm-1.084 2.108c.393.269.116.484.222-.28.087-.632.42-1.531 1.063-2.468l-3.298-2.263c-.918 1.337-1.538 2.813-1.727 4.182-.172 1.237-.052 3.08 1.479 4.129l2.261-3.3zm1.285-2.748c.643-.936 1.362-1.57 1.922-1.88.676-.374.577-.039.185-.307l2.261-3.3c-1.53-1.048-3.292-.497-4.384.108-1.209.669-2.364 1.778-3.282 3.116l3.298 2.263zm2.107-2.187a1.012 1.012 0 01-.449-.726c0-.011.002.033-.025.149a3.352 3.352 0 01-.143.45c-.308.796-.931 1.847-1.691 2.954l3.298 2.264c.801-1.166 1.642-2.53 2.124-3.776.236-.611.451-1.357.436-2.119-.016-.827-.323-1.835-1.289-2.496l-2.261 3.3zm.106 2.488c-.643.936-1.363 1.57-1.922 1.88-.677.375-.578.039-.186.308l-2.261 3.299c1.53 1.049 3.292.497 4.384-.107 1.209-.67 2.364-1.779 3.282-3.116l-3.297-2.264zm-2.108 2.188c.393.269.116.484.222-.28.087-.632.42-1.531 1.063-2.468l-3.298-2.263c-.918 1.337-1.538 2.813-1.728 4.182-.171 1.236-.051 3.08 1.48 4.128l2.261-3.299zm1.285-2.748c.642-.936 1.362-1.57 1.922-1.88.676-.374.577-.039.185-.307l2.261-3.3c-1.53-1.048-3.292-.497-4.384.108-1.209.669-2.364 1.778-3.282 3.116l3.298 2.263zm2.107-2.187c-.393-.27-.116-.485-.221.279-.088.633-.421 1.531-1.063 2.468l3.297 2.264c.918-1.338 1.538-2.814 1.728-4.183.171-1.236.051-3.079-1.48-4.128l-2.261 3.3zm13.809 14.299c-.643.937-1.362 1.571-1.922 1.881-.676.374-.577.039-.185.307l-2.261 3.3c1.53 1.048 3.292.497 4.384-.108 1.209-.669 2.364-1.778 3.282-3.116l-3.298-2.264zm-2.107 2.188c.393.269.115.485.221-.28.088-.632.42-1.531 1.063-2.467l-3.298-2.264c-.918 1.338-1.537 2.814-1.727 4.182-.171 1.237-.051 3.08 1.48 4.129l2.261-3.3zm1.284-2.747c.643-.937 1.363-1.57 1.922-1.88.677-.375.578-.039.186-.308l2.261-3.3c-1.53-1.048-3.292-.496-4.384.108-1.209.67-2.364 1.779-3.283 3.116l3.298 2.264zm2.108-2.188c-.393-.269-.116-.485-.222.28-.087.632-.42 1.531-1.063 2.467l3.298 2.264c.918-1.337 1.538-2.813 1.727-4.182.172-1.237.052-3.08-1.479-4.129l-2.261 3.3zm.105 2.489c-.643.936-1.363 1.57-1.922 1.88-.677.374-.578.039-.186.307l-2.261 3.3c1.53 1.048 3.292.497 4.384-.108 1.209-.669 2.364-1.778 3.282-3.116l-3.297-2.263zm-2.108 2.187c.393.27.116.485.222-.279.087-.633.42-1.531 1.063-2.468l-3.298-2.264c-.918 1.338-1.538 2.814-1.728 4.183-.171 1.236-.051 3.079 1.48 4.128l2.261-3.3zm1.285-2.747c.642-.936 1.362-1.57 1.922-1.88.676-.375.577-.039.185-.308l2.261-3.299c-1.53-1.049-3.292-.497-4.384.108-1.209.669-2.364 1.778-3.282 3.115l3.298 2.264zm2.107-2.188c-.393-.269-.116-.484-.221.28-.088.632-.421 1.531-1.063 2.468l3.297 2.263c.918-1.337 1.538-2.813 1.728-4.182.171-1.236.051-3.079-1.48-4.128l-2.261 3.299zm-46.783.606c-.643.936-1.363 1.57-1.922 1.88-.677.375-.578.039-.186.308l-2.261 3.299c1.53 1.048 3.292.497 4.384-.108 1.209-.669 2.364-1.778 3.283-3.115l-3.298-2.264zm-2.108 2.188c.393.269.116.484.222-.28.087-.633.42-1.531 1.063-2.468l-3.298-2.264c-.918 1.338-1.538 2.814-1.727 4.183-.172 1.236-.052 3.079 1.479 4.128l2.261-3.299zm1.285-2.748c.643-.936 1.362-1.57 1.922-1.88.676-.375.577-.039.185-.307l2.261-3.3c-1.53-1.048-3.292-.497-4.384.108-1.209.669-2.364 1.778-3.282 3.115l3.298 2.264zm2.107-2.187c-.393-.27-.115-.485-.221.279-.088.633-.42 1.531-1.063 2.468l3.298 2.264c.918-1.338 1.537-2.814 1.727-4.183.171-1.236.051-3.079-1.48-4.128l-2.261 3.3zm.105 2.488c-.643.936-1.362 1.57-1.922 1.88-.676.375-.577.039-.185.307l-2.261 3.3c1.53 1.048 3.292.497 4.384-.108 1.209-.669 2.364-1.778 3.282-3.115l-3.298-2.264zm-2.107 2.187c.393.27.115.485.221-.279.088-.633.42-1.531 1.063-2.468l-3.298-2.264c-.918 1.338-1.537 2.814-1.727 4.183-.171 1.236-.051 3.079 1.48 4.128l2.261-3.3zm1.284-2.747c.643-.936 1.363-1.57 1.922-1.88.677-.375.578-.039.186-.308l2.261-3.299c-1.53-1.048-3.292-.497-4.384.108-1.21.669-2.364 1.778-3.283 3.115l3.298 2.264zm2.108-2.188c-.393-.269-.116-.484-.222.28-.087.633-.42 1.531-1.063 2.468l3.298 2.264c.918-1.338 1.538-2.814 1.727-4.183.172-1.236.052-3.079-1.479-4.128l-2.261 3.299zm13.806 14.3c-.643.937-1.362 1.571-1.922 1.88-.676.375-.577.04-.185.308l-2.261 3.3c1.53 1.048 3.292.497 4.384-.108 1.209-.67 2.364-1.778 3.282-3.116l-3.298-2.264zm-2.107 2.188c.393.269.115.485.221-.28.088-.632.42-1.531 1.063-2.467l-3.298-2.264c-.918 1.337-1.537 2.813-1.727 4.182-.171 1.237-.051 3.08 1.48 4.129l2.261-3.3zm1.284-2.747c.643-.937 1.363-1.571 1.922-1.88.677-.375.578-.039.186-.308l2.261-3.3c-1.53-1.048-3.292-.496-4.384.108-1.209.67-2.364 1.778-3.283 3.116l3.298 2.264zm2.108-2.188c-.393-.269-.116-.485-.222.28-.087.632-.42 1.531-1.063 2.467l3.298 2.264c.918-1.337 1.538-2.813 1.727-4.182.172-1.237.052-3.08-1.479-4.129l-2.261 3.3zm.105 2.488c-.643.937-1.362 1.571-1.922 1.88-.677.375-.578.04-.186.308l-2.26 3.3c1.529 1.048 3.291.497 4.384-.108 1.209-.67 2.364-1.778 3.282-3.116l-3.298-2.264zm-2.108 2.188c.393.269.116.485.222-.28.088-.632.42-1.531 1.063-2.467l-3.298-2.264c-.918 1.337-1.538 2.813-1.727 4.182-.172 1.237-.051 3.08 1.48 4.129l2.26-3.3zm1.285-2.747c.643-.937 1.362-1.571 1.922-1.88.677-.375.577-.039.186-.308l2.26-3.3c-1.529-1.048-3.291-.497-4.384.108-1.209.67-2.364 1.778-3.282 3.116l3.298 2.264zm2.108-2.188c-.393-.269-.116-.485-.222.28-.088.632-.42 1.531-1.063 2.467l3.298 2.264c.918-1.337 1.537-2.813 1.727-4.182.171-1.237.051-3.08-1.48-4.129l-2.26 3.3z" fill="#7831B2" mask="url(#a)"/></svg>