<svg width="275" height="216" fill="none" xmlns="http://www.w3.org/2000/svg"><mask id="a" maskUnits="userSpaceOnUse" x="0" y="0" width="275" height="216" fill="#000"><path fill="#fff" d="M0 0h275v216H0z"/><path d="M98.29 44.33c1.076 1.791 2.676 2.809 3.575 2.273s.755-2.422-.32-4.213c-1.076-1.791-2.676-2.809-3.575-2.273s-.755 2.422.32 4.214z"/><path d="M97.25 44.07c1.076 1.79 2.676 2.808 3.575 2.272.898-.535.755-2.422-.321-4.213-1.075-1.79-2.675-2.808-3.574-2.272s-.755 2.422.32 4.213zm-11.974 8.023c1.076 1.791 2.676 2.809 3.575 2.273.898-.536.755-2.422-.32-4.213-1.076-1.791-2.677-2.809-3.575-2.273-.899.536-.755 2.422.32 4.213z"/><path d="M84.236 51.833c1.075 1.79 2.675 2.808 3.574 2.272s.755-2.422-.32-4.213c-1.076-1.791-2.676-2.809-3.575-2.273s-.755 2.423.32 4.214zm-11.977 8.022c1.075 1.792 2.676 2.809 3.574 2.273.9-.536.756-2.422-.32-4.213s-2.676-2.809-3.575-2.273c-.898.536-.755 2.423.32 4.213z"/><path d="M71.218 59.595c1.076 1.791 2.676 2.809 3.575 2.273s.755-2.422-.32-4.213c-1.076-1.791-2.676-2.809-3.575-2.273s-.755 2.422.32 4.213zm91.803 52.541c-1.661 2.048-3.84 3.037-4.868 2.21-1.028-.828-.515-3.158 1.146-5.207 1.661-2.048 3.84-3.037 4.868-2.21 1.027.828.514 3.159-1.146 5.207z"/><path d="M164.366 111.993c-1.661 2.048-3.84 3.038-4.867 2.21-1.028-.827-.515-3.158 1.146-5.206 1.66-2.048 3.84-3.038 4.867-2.21 1.028.827.515 3.158-1.146 5.206zm12.555 12.128c-1.661 2.048-2.857 3.038-3.885 2.21-1.028-.827-.514-3.158 1.146-5.206 1.661-2.048 3.84-3.038 4.868-2.21 1.027.827-.469 3.158-2.129 5.206z"/><path d="M179.25 123.978c-1.661 2.048-3.84 3.038-4.868 2.211-1.028-.828-.515-3.159 1.146-5.207s3.84-3.037 4.868-2.21c1.027.827.514 3.158-1.146 5.206zm13.54 12.128c-1.661 2.048-3.84 3.038-4.868 2.21-1.028-.827-.515-3.158 1.146-5.206 1.661-2.048 3.84-3.037 4.868-2.21 1.027.827.514 3.158-1.146 5.206z"/><path d="M194.135 135.964c-1.661 2.048-3.84 3.038-4.868 2.21-1.027-.827-.514-3.158 1.147-5.206 1.66-2.048 3.84-3.038 4.867-2.21 1.028.827.515 3.158-1.146 5.206zm-43.268-5.445c-1.661 2.048-3.84 3.038-4.867 2.21-1.028-.827-.515-3.158 1.146-5.206 1.66-2.048 3.84-3.038 4.867-2.21 1.028.827.515 3.158-1.146 5.206z"/><path d="M152.213 130.377c-1.661 2.048-3.84 3.037-4.868 2.21-1.027-.828-.514-3.159 1.146-5.207 1.661-2.048 3.84-3.037 4.868-2.21 1.028.828.514 3.159-1.146 5.207zm13.537 12.127c-1.66 2.048-3.84 3.038-4.867 2.211-1.028-.828-.515-3.159 1.146-5.207s3.84-3.037 4.867-2.21c1.028.827.515 3.158-1.146 5.206z"/><path d="M167.096 142.362c-1.661 2.048-3.84 3.037-4.867 2.21-1.028-.827-.515-3.158 1.146-5.206 1.66-2.048 3.84-3.038 4.867-2.211 1.028.828.515 3.159-1.146 5.207z"/></mask><path d="M2.96 64.478a2 2 0 002.769 2.886l-2.77-2.886zM3 67.2l-1.385-1.443-.895.859.372 1.184L3 67.2zm105.717 10.253a2 2 0 101.594 3.668l-1.594-3.668zm16.929-5.179l.797 1.835 1.511-.657-.356-1.61-1.952.432zm.288-.38l.697 1.874 1.506-.56-.222-1.592-1.981.277zm-17.04 5.23a2 2 0 001.817 3.564l-1.817-3.564zm8.256-1.966l-.697-1.874-.108.04-.104.053.909 1.781zm-4.696 29.47l1.985-.243-1.985.243zm-3.2 1.751l1.267-1.547-1.267 1.547zM88.586 86.863a2 2 0 10-2.535 3.095l2.535-3.095zm20.081 18.425l-1.277 1.539 1.277-1.539zm-7.707-6.398l1.277-1.539-.008-.007-.009-.007-1.26 1.553zM88.408 86.122a2 2 0 00-2.522 3.105l2.522-3.105zm22.249 8.694l-1.993.16.005.059.008.058 1.98-.277zm1.216 8.697l1.981-.277-1.981.277zm-81.082 6.532l-.927-1.772 1.66 3.633-.733-1.861zm-13.38-37.69a2 2 0 10-3.88.98l3.88-.98zm8.237 23.507a2 2 0 002.79-2.866l-2.79 2.866zm13.756-51.815a2 2 0 102.319 3.26l-2.319-3.26zm229.85 120.576a2 2 0 103.146-2.47l-3.146 2.47zm1.453 1.835a2 2 0 003.146-2.471l-3.146 2.471zm-134.697-3.169a2 2 0 102.092-3.409l-2.092 3.409zm-17.863-13.301l-1.873-.702-.578 1.544 1.406.863 1.045-1.705zm-.844 0l-1.923-.552-.472 1.643 1.55.722.845-1.813zm18.312 12.707a2 2 0 002.297-3.275l-2.297 3.275zm-7.366-7.611l1.148-1.637-.144-.102-.16-.074-.844 1.813zM273 166.011l1.805.861-3.491-1.938 1.686 1.077zm-144.437 27.947l-1.931-.519 1.931.519zm2.923 2.18l1.039 1.709-1.039-1.709zm32.718-17.546a2 2 0 10-2.077-3.418l2.077 3.418zm-31.825 16.318l-1.05-1.703 1.05 1.703zm11.891-7.335l-1.031-1.714-.01.006-.009.006 1.05 1.702zm20.272-9.867a2.001 2.001 0 00-2.063-3.428l2.063 3.428zm-31.664 3.073l1.922.552.016-.057.013-.057-1.951-.438zm-3.424 11.924l-1.923-.552 1.923.552zm99.858 20.892l-.988 1.739 2.153-3.365-1.165 1.626zm28.208-42.767a2 2 0 10-3.702-1.513l3.702 1.513zm-29.759-37.654a2 2 0 102.751-2.903l-2.751 2.903zm-56.891-46.94a2 2 0 10-1.611 3.66l1.611-3.66zM5.729 67.363c9.475-9.092 26.188-23.18 45.447-35.804C70.471 18.911 92.123 7.866 111.507 4.642l-.656-3.946C90.637 4.058 68.426 15.47 48.982 28.215 29.503 40.985 12.598 55.23 2.96 64.478l2.769 2.886zm-1.344 1.28c9.505-9.122 26.158-23.917 45.53-37.129C69.333 18.271 91.265 6.77 111.36 3.981l-.549-3.962C89.781 2.937 67.226 14.866 47.66 28.211 28.048 41.587 11.22 56.539 1.614 65.757l2.77 2.886zM110.31 81.12l16.132-7.012-1.595-3.669-16.131 7.013 1.594 3.668zm17.287-9.278c-4.339-19.628-13.381-60.486-14.817-66.841l-3.902.882c1.433 6.342 10.472 47.186 14.814 66.822l3.905-.863zm.317-.227C125.071 51.27 114.952 7.94 113.532 1.654l-3.902.882c1.449 6.411 11.51 49.502 14.323 69.634l3.962-.554zm-17.204 9.072l7.348-3.748-1.818-3.563-7.347 3.748 1.817 3.563zm7.136-3.655l8.784-3.265-1.394-3.75-8.784 3.266 1.394 3.749zM34.23 109.179c-3.573-3.869-9.978-11.505-15.977-19.731C12.205 81.154 6.77 72.524 4.908 66.6l-3.816 1.2c2.082 6.624 7.898 15.733 13.93 24.005 6.081 8.34 12.584 16.097 16.27 20.088l2.938-2.714zm-.004-.001c-3.862-4.182-7.549-7.113-12.32-13.134C17.227 90.14 11.68 81.42 4.82 66.37l-3.64 1.66c6.957 15.26 12.66 24.277 17.591 30.498 4.838 6.105 9.12 9.686 12.517 13.364l2.938-2.714zm73.153-29.507l3.09 25.2 3.97-.486-3.09-25.201-3.97.487zm3.142 25.161L88.586 86.863l-2.535 3.095 21.936 17.968 2.534-3.094zm-.052.039c.002.015 0 .014.002.003a.125.125 0 01.012-.034l.01-.015-.004.003-.005.003h-.001.014c.01 0 .02.003.029.006.01.004.008.005-.005-.005l-2.534 3.094c2.752 2.255 6.889.023 6.452-3.541l-3.97.486zm-.524-1.122l-7.708-6.398-2.555 3.078 7.708 6.398 2.555-3.078zm-7.725-6.412L88.408 86.122l-2.522 3.105L99.7 100.442l2.521-3.105zm5.236-17.381l1.208 15.02 3.987-.32-1.207-15.02-3.988.32zm1.221 15.137l1.215 8.696 3.962-.553-1.216-8.697-3.961.554zm-1.287 11.734c2.771 2.301 6.967.011 6.464-3.591l-3.962.553c.002.016 0 .016.002.003a.109.109 0 01.023-.05l-.005.004-.005.002-.002.001.014-.001a.1.1 0 01.031.007c.01.004.008.005-.005-.006l-2.555 3.078zM86.363 85.993l-56.305 22.191 1.466 3.722L87.83 89.715l-1.467-3.722zm.087-.206c-37.752 12.396-43.985 15.899-56.586 22.486l1.853 3.545c12.374-6.468 18.399-9.89 55.98-22.23l-1.247-3.801zM13.532 73.334c.608 2.41 1.922 6.35 3.917 10.505 1.989 4.142 4.716 8.63 8.199 12.023l2.79-2.866c-3.013-2.935-5.497-6.96-7.383-10.888-1.88-3.915-3.102-7.603-3.645-9.752l-3.878.979zm28.19-26.028c5.115-3.638 13.817-9.395 23.245-14.806 9.464-5.431 19.513-10.426 27.363-12.64l-1.085-3.85c-8.35 2.354-18.751 7.558-28.268 13.02-9.551 5.48-18.362 11.31-23.572 15.016l2.319 3.26zM272.4 162.153c-10.382-13.223-28.954-33.966-51.001-53.32-22.013-19.324-47.672-37.427-72.223-45.148l-1.2 3.815c23.749 7.47 48.902 25.13 70.784 44.339 21.847 19.178 40.251 39.738 50.494 52.784l3.146-2.47zm1.453 1.834c-10.374-13.212-29.36-34.82-52.085-54.94-22.685-20.084-49.297-38.867-74.917-46.173l-1.097 3.847c24.741 7.055 50.806 25.35 73.362 45.321 22.517 19.935 41.339 41.359 51.591 54.416l3.146-2.471zm-135.751-4.107l-18.909-11.597-2.091 3.41 18.908 11.596 2.092-3.409zm-18.082-9.191c8.949-23.892 27.485-75.784 30.426-83.526l-3.74-1.42c-2.892 7.614-21.582 59.916-30.432 83.543l3.746 1.403zm-.795-.149c7.087-24.679 27.841-77.273 30.789-85.033l-3.74-1.42c-2.885 7.597-23.746 60.458-30.894 85.349l3.845 1.104zm18.687 8.88l-8.515-5.973-2.297 3.274 8.515 5.974 2.297-3.275zm-8.819-6.149l-10.946-5.096-1.689 3.626 10.947 5.096 1.688-3.626zm102.684 62.219c5.315-4.34 14.215-12.643 22.684-21.736 8.426-9.048 16.626-19.089 20.344-26.882l-3.61-1.723c-3.43 7.189-11.245 16.842-19.661 25.879-8.374 8.991-17.142 17.163-22.287 21.364l2.53 3.098zm.206.059c5.058-4.13 10.203-7.456 16.734-14.053 6.569-6.637 14.611-16.625 25.969-34.409l-3.372-2.153c-11.27 17.648-19.14 27.383-25.44 33.748-6.339 6.404-11.02 9.358-16.421 13.769l2.53 3.098zm-96.696-54.283l-8.655 32.173 3.862 1.039 8.656-32.173-3.863-1.039zm-2.762 36.581l31.679-19.255-2.077-3.418-31.68 19.255 2.078 3.418zm-5.893-4.408c-.934 3.471 2.853 6.256 5.893 4.408l-2.078-3.418c-.014.009-.016.007-.006.005a.099.099 0 01.03-.002c.017.001.017.005.009-.001-.009-.006-.003-.006.005.014a.136.136 0 01.007.035c.001.012-.002.013.002-.002l-3.862-1.039zm6.797 3.173l11.891-7.335-2.1-3.404-11.891 7.334 2.1 3.405zm11.872-7.324l19.241-11.58-2.063-3.428-19.24 11.581 2.062 3.427zm-10.206-27.496l-4.169 18.55 3.903.877 4.168-18.55-3.902-.877zm-4.14 18.437l-3.424 11.924 3.845 1.104 3.424-11.924-3.845-1.104zm.374 12.978c-.015.01-.017.008-.007.006.009-.003.021-.004.031-.003a.059.059 0 01.014.003l-.005-.004-.004-.003c0 .001.004.006.008.017a.11.11 0 01.007.036c.001.013-.002.013.003-.002l-3.845-1.104c-1.005 3.499 2.833 6.349 5.898 4.459l-2.1-3.405zm31.225-15.241l65.77 37.37 1.976-3.478-65.77-37.369-1.976 3.477zm.163-.149c44.773 22.031 51.087 27.127 65.43 37.405l2.33-3.251c-14.541-10.42-21.047-15.627-65.994-37.743l-1.766 3.589zm91.101-8.5c-1.072 2.622-3.269 7.045-6.33 11.634-3.068 4.601-6.924 9.248-11.278 12.435l2.363 3.228c4.882-3.575 9.043-8.645 12.243-13.444 3.209-4.811 5.532-9.47 6.704-12.34l-3.702-1.513zm-23.306-39.044c-5.84-5.535-15.801-14.354-26.747-22.87-10.914-8.49-22.944-16.786-32.895-21.168l-1.611 3.661c9.476 4.173 21.184 12.211 32.05 20.664 10.834 8.429 20.696 17.162 26.452 22.616l2.751-2.903zm-79.645.246l3.107 2.52-3.107-2.52zm1.346-.142l3.107 2.519-3.107-2.519zM94.861 46.39c.789 1.313 1.864 2.516 3.137 3.325 1.048.666 3.471 1.781 5.916.324l-4.098-6.872a2.87 2.87 0 011.909-.389c.203.034.348.085.43.119a.858.858 0 01.135.067c.008.005-.063-.041-.185-.172a3.1 3.1 0 01-.385-.52l-6.859 4.118zm9.053 3.649c2.452-1.463 2.614-4.133 2.52-5.375-.115-1.506-.672-3.02-1.46-4.333l-6.858 4.118c.131.22.221.42.277.583.058.168.065.251.064.238a.82.82 0 01.005-.156c.008-.09.032-.245.1-.441a2.875 2.875 0 011.254-1.506l4.098 6.872zm1.06-9.708c-.789-1.314-1.864-2.516-3.137-3.326-1.048-.666-3.471-1.78-5.916-.323l4.098 6.87a2.87 2.87 0 01-1.909.39 1.946 1.946 0 01-.43-.118.907.907 0 01-.135-.067c-.008-.006.063.04.186.172.117.126.253.3.385.52l6.858-4.118zm-9.053-3.65c-2.452 1.463-2.614 4.133-2.52 5.376.115 1.505.672 3.02 1.46 4.333l6.859-4.119a3.138 3.138 0 01-.278-.583c-.058-.168-.065-.25-.064-.238a.867.867 0 01-.004.156c-.009.09-.033.245-.101.442a2.87 2.87 0 01-1.254 1.505l-4.098-6.871zm-2.1 9.448c.789 1.314 1.864 2.516 3.137 3.325 1.048.667 3.471 1.782 5.915.324l-4.097-6.871a2.87 2.87 0 011.909-.39c.202.034.347.085.43.12.084.034.128.062.135.066.008.005-.063-.04-.186-.172a3.213 3.213 0 01-.385-.52l-6.858 4.118zm9.052 3.649c2.453-1.463 2.615-4.133 2.52-5.375-.114-1.506-.671-3.02-1.459-4.333l-6.859 4.119c.132.219.222.42.278.582.058.169.065.252.064.239a.87.87 0 01.004-.156 1.97 1.97 0 01.1-.442 2.876 2.876 0 011.255-1.505l4.097 6.87zm1.061-9.708c-.789-1.313-1.864-2.516-3.137-3.325-1.048-.667-3.471-1.782-5.916-.324l4.097 6.871a2.868 2.868 0 01-1.908.39 1.946 1.946 0 01-.43-.12.907.907 0 01-.135-.066c-.009-.005.063.04.185.172.118.127.254.301.385.52l6.859-4.118zm-9.053-3.649c-2.453 1.463-2.614 4.133-2.52 5.375.115 1.506.671 3.02 1.46 4.333l6.858-4.119a3.19 3.19 0 01-.277-.582c-.058-.169-.065-.252-.064-.239a.818.818 0 01-.005.156 1.937 1.937 0 01-.1.442 2.873 2.873 0 01-1.255 1.505l-4.097-6.87zM81.847 54.153c.789 1.313 1.864 2.515 3.137 3.325 1.048.666 3.47 1.781 5.915.323l-4.097-6.87a2.868 2.868 0 011.909-.39c.202.033.347.084.43.119a.913.913 0 01.135.066c.008.006-.064-.04-.186-.172a3.155 3.155 0 01-.385-.52l-6.858 4.119zm9.052 3.648c2.453-1.462 2.615-4.132 2.52-5.374-.114-1.506-.671-3.02-1.46-4.334l-6.858 4.119c.132.22.222.42.278.583.058.168.064.25.063.238 0-.01-.004-.064.005-.156.009-.09.033-.245.1-.442a2.875 2.875 0 011.255-1.505l4.097 6.871zm1.06-9.708c-.788-1.313-1.863-2.516-3.136-3.325-1.049-.666-3.471-1.781-5.916-.324l4.097 6.872a2.868 2.868 0 01-1.908.389 1.941 1.941 0 01-.43-.119.858.858 0 01-.135-.067c-.009-.005.063.041.185.172.118.127.253.302.385.52l6.859-4.118zm-9.052-3.649c-2.453 1.463-2.614 4.133-2.52 5.375.114 1.506.671 3.02 1.46 4.334l6.858-4.12a3.14 3.14 0 01-.278-.582c-.058-.168-.064-.251-.063-.238 0 .01.004.063-.005.156a1.97 1.97 0 01-.1.442 2.876 2.876 0 01-1.255 1.505l-4.097-6.872zm-2.1 9.448c.788 1.313 1.863 2.516 3.136 3.325 1.048.666 3.471 1.781 5.916.324L85.76 50.67a2.868 2.868 0 011.909-.39c.203.034.348.085.43.119a.913.913 0 01.135.067c.009.005-.063-.041-.185-.172a3.16 3.16 0 01-.385-.52l-6.859 4.118zm9.052 3.649c2.453-1.463 2.614-4.133 2.52-5.375-.115-1.506-.672-3.02-1.46-4.333L84.06 51.95c.131.22.221.42.277.583.058.168.065.251.064.238 0-.01-.005-.063.004-.155.01-.091.033-.246.1-.442a2.876 2.876 0 011.255-1.505l4.098 6.87zm1.06-9.708c-.789-1.314-1.864-2.516-3.137-3.325-1.048-.667-3.47-1.782-5.915-.324l4.097 6.871a2.868 2.868 0 01-1.909.389 1.947 1.947 0 01-.43-.118.913.913 0 01-.135-.067c-.008-.006.063.04.186.172.117.126.253.301.385.52l6.858-4.118zm-9.052-3.65c-2.453 1.464-2.615 4.133-2.52 5.376.114 1.505.67 3.02 1.46 4.333l6.858-4.119a3.143 3.143 0 01-.278-.583c-.058-.168-.064-.25-.064-.238a.87.87 0 01-.004.156c-.01.09-.033.245-.1.442a2.875 2.875 0 01-1.255 1.505l-4.097-6.871zM68.83 61.916c.788 1.313 1.863 2.516 3.136 3.325 1.049.666 3.472 1.781 5.916.324l-4.097-6.871a2.869 2.869 0 011.908-.39c.203.034.348.085.43.119a.858.858 0 01.135.067c.009.005-.063-.041-.185-.172a3.16 3.16 0 01-.385-.52l-6.858 4.118zm9.052 3.649c2.453-1.463 2.614-4.133 2.52-5.375-.114-1.506-.671-3.02-1.46-4.333l-6.858 4.118c.132.22.222.42.278.583.058.168.064.251.063.238 0-.01-.004-.063.005-.156a1.97 1.97 0 01.1-.442 2.876 2.876 0 011.255-1.505l4.097 6.872zm1.06-9.708c-.788-1.314-1.863-2.516-3.136-3.325-1.049-.667-3.472-1.782-5.916-.324l4.097 6.87a2.868 2.868 0 01-1.908.39 1.953 1.953 0 01-.43-.118.92.92 0 01-.136-.067c-.008-.006.064.04.186.172.118.126.253.301.385.52l6.858-4.118zm-9.052-3.65c-2.453 1.463-2.615 4.133-2.52 5.375.114 1.506.671 3.02 1.46 4.334l6.858-4.119a3.143 3.143 0 01-.278-.582c-.058-.169-.064-.252-.063-.239 0 .01.004.064-.005.156-.009.09-.033.245-.1.442a2.875 2.875 0 01-1.255 1.505l-4.097-6.871zm-2.1 9.448c.788 1.314 1.863 2.516 3.136 3.326 1.048.666 3.471 1.781 5.916.323l-4.098-6.87a2.868 2.868 0 011.909-.39c.203.033.348.084.43.119a.907.907 0 01.135.066c.008.006-.063-.04-.186-.172a3.155 3.155 0 01-.385-.52l-6.858 4.118zm9.052 3.65c2.452-1.463 2.614-4.133 2.52-5.375-.115-1.506-.672-3.02-1.46-4.334l-6.859 4.119c.132.22.222.42.278.583.058.168.065.25.064.238a.869.869 0 01.004-.156c.01-.09.033-.245.1-.442a2.875 2.875 0 011.255-1.505l4.098 6.871zm1.06-9.709c-.789-1.313-1.864-2.515-3.137-3.325-1.048-.666-3.471-1.781-5.916-.324l4.098 6.872a2.87 2.87 0 01-1.909.389 1.946 1.946 0 01-.43-.119.907.907 0 01-.135-.067c-.008-.005.063.041.185.172.118.127.254.302.385.521l6.859-4.119zm-9.053-3.648c-2.452 1.462-2.614 4.132-2.52 5.374.115 1.506.672 3.02 1.46 4.334l6.858-4.12a3.14 3.14 0 01-.277-.582c-.058-.168-.065-.251-.064-.238a.869.869 0 01-.004.156 1.97 1.97 0 01-.1.442 2.874 2.874 0 01-1.255 1.505l-4.098-6.871zm91.065 57.669c-.524.646-1.013.968-1.218 1.061-.102.046.016-.031.328-.038a2.574 2.574 0 011.637.591l-5.017 6.232c2.325 1.871 5.047 1.095 6.359.499 1.556-.706 2.987-1.904 4.124-3.306l-6.213-5.039zm.747 1.614c.637.513.866 1.141.932 1.487.06.312.008.449.031.343.048-.214.258-.755.782-1.401l-6.214-5.039c-1.137 1.402-2.013 3.05-2.381 4.72-.31 1.411-.499 4.243 1.833 6.122l5.017-6.232zm1.745.429c.524-.646 1.012-.967 1.218-1.061.102-.046-.017.032-.328.039a2.58 2.58 0 01-1.638-.592l5.017-6.231c-2.324-1.872-5.046-1.096-6.358-.5-1.556.706-2.988 1.904-4.125 3.306l6.214 5.039zm-.748-1.614a2.59 2.59 0 01-.932-1.487c-.059-.312-.007-.449-.031-.343-.047.214-.257.755-.781 1.401l6.213 5.039c1.137-1.402 2.014-3.05 2.381-4.72.311-1.411.5-4.243-1.833-6.121l-5.017 6.231zm-.399-.571c-.523.646-1.012.967-1.218 1.06-.102.047.017-.031.328-.038a2.571 2.571 0 011.638.592l-5.017 6.231c2.324 1.871 5.046 1.095 6.359.5 1.556-.707 2.987-1.904 4.124-3.307l-6.214-5.038zm.748 1.614c.637.512.865 1.14.932 1.486.06.312.008.45.031.344.047-.215.258-.756.782-1.402l-6.214-5.038c-1.137 1.401-2.013 3.05-2.381 4.72-.311 1.41-.5 4.243 1.833 6.121l5.017-6.231zm1.745.428c.523-.646 1.012-.967 1.218-1.06.101-.047-.017.031-.328.038a2.571 2.571 0 01-1.638-.592l5.017-6.231c-2.324-1.871-5.047-1.095-6.359-.5-1.556.707-2.987 1.904-4.124 3.307l6.214 5.038zm-.748-1.614a2.584 2.584 0 01-.932-1.486c-.06-.312-.008-.45-.031-.344-.047.215-.258.756-.782 1.402l6.214 5.038c1.137-1.401 2.013-3.05 2.381-4.72.31-1.41.5-4.243-1.833-6.121l-5.017 6.231zm10.81 11.7c-.375.462-.672.799-.908 1.04-.25.254-.343.307-.297.278.041-.026.441-.275 1.115-.295.35-.011.711.044 1.055.167.338.121.592.284.766.423l-5.018 6.232c.909.731 2.089 1.214 3.435 1.174 1.239-.037 2.235-.506 2.91-.932 1.253-.789 2.329-2.029 3.155-3.049l-6.213-5.038zm1.731 1.613c.636.513.865 1.141.931 1.487.06.312.008.45.031.344.048-.215.258-.756.782-1.402l-6.214-5.039c-1.136 1.402-2.013 3.051-2.38 4.721-.311 1.41-.5 4.243 1.832 6.121l5.018-6.232zm1.744.429c.524-.646 1.012-.967 1.218-1.061.102-.046-.017.032-.328.039-.344.008-1.002-.08-1.638-.592l5.017-6.231c-2.324-1.872-5.046-1.096-6.358-.5-1.556.707-2.988 1.904-4.125 3.306l6.214 5.039zm-.748-1.614a3.145 3.145 0 01-.972-1.354 2.8 2.8 0 01-.178-1.123c.023-.389.13-.503-.002-.227-.244.507-.79 1.308-1.575 2.276l6.213 5.038c.876-1.08 1.909-2.469 2.571-3.846.32-.666.713-1.646.779-2.769.074-1.254-.275-2.984-1.819-4.226l-5.017 6.231zm-.398-.571c-.524.646-1.013.967-1.218 1.061-.102.046.016-.032.328-.039a2.577 2.577 0 011.637.592l-5.017 6.231c2.325 1.872 5.047 1.096 6.359.5 1.556-.707 2.987-1.904 4.124-3.306l-6.213-5.039zm.747 1.614c.637.513.866 1.141.932 1.487.06.312.008.449.031.343.048-.214.258-.755.782-1.402l-6.214-5.038c-1.137 1.402-2.013 3.05-2.381 4.72-.31 1.411-.499 4.243 1.833 6.121l5.017-6.231zm1.745.428c.524-.645 1.012-.967 1.218-1.06.102-.046-.017.031-.328.038-.344.008-1.002-.08-1.638-.591l5.017-6.232c-2.324-1.871-5.046-1.095-6.358-.499-1.556.706-2.988 1.904-4.125 3.306l6.214 5.038zm-.748-1.613a2.59 2.59 0 01-.932-1.487c-.059-.312-.007-.449-.031-.344-.047.215-.257.756-.781 1.402l6.213 5.039c1.137-1.402 2.014-3.051 2.381-4.721.311-1.41.5-4.243-1.833-6.121l-5.017 6.232zm11.796 11.699c-.524.646-1.013.967-1.218 1.061-.102.046.016-.032.328-.039.344-.008 1.002.08 1.637.592l-5.017 6.231c2.325 1.872 5.047 1.096 6.359.5 1.556-.707 2.987-1.904 4.124-3.306l-6.213-5.039zm.747 1.614c.637.513.866 1.14.932 1.487.06.311.008.449.031.343.048-.214.258-.756.782-1.402l-6.214-5.038c-1.137 1.402-2.013 3.05-2.381 4.72-.31 1.411-.499 4.243 1.833 6.121l5.017-6.231zm1.745.428c.524-.645 1.012-.967 1.218-1.06.102-.046-.017.031-.328.038-.344.008-1.002-.08-1.638-.591l5.017-6.232c-2.324-1.871-5.046-1.095-6.358-.499-1.556.706-2.988 1.903-4.125 3.306l6.214 5.038zm-.748-1.613a2.59 2.59 0 01-.932-1.487c-.059-.312-.007-.45-.031-.344-.047.215-.257.756-.781 1.402l6.213 5.039c1.137-1.402 2.014-3.051 2.381-4.721.311-1.41.5-4.243-1.833-6.121l-5.017 6.232zm-.399-.571c-.524.645-1.012.967-1.218 1.06-.102.046.017-.031.328-.038a2.575 2.575 0 011.638.591l-5.017 6.232c2.324 1.871 5.046 1.095 6.359.499 1.555-.706 2.987-1.903 4.124-3.306l-6.214-5.038zm.748 1.613a2.59 2.59 0 01.932 1.487c.06.312.008.45.031.344.047-.215.258-.756.782-1.402l-6.214-5.039c-1.137 1.402-2.013 3.051-2.381 4.721-.311 1.41-.5 4.243 1.833 6.121l5.017-6.232zm1.745.429c.523-.646 1.012-.967 1.218-1.06.101-.047-.017.031-.329.038-.344.008-1.002-.08-1.637-.592l5.017-6.231c-2.325-1.872-5.047-1.096-6.359-.5-1.556.707-2.987 1.904-4.124 3.306l6.214 5.039zm-.748-1.614c-.637-.513-.866-1.14-.932-1.487-.06-.311-.008-.449-.031-.343-.047.214-.258.756-.782 1.402l6.214 5.038c1.137-1.402 2.013-3.05 2.381-4.72.31-1.411.499-4.243-1.833-6.121l-5.017 6.231zM147.76 128c-.523.646-1.012.967-1.218 1.06-.102.047.017-.031.328-.038a2.571 2.571 0 011.638.592l-5.017 6.231c2.324 1.871 5.046 1.096 6.359.5 1.556-.707 2.987-1.904 4.124-3.306L147.76 128zm.748 1.614c.637.512.865 1.14.932 1.486.06.312.008.45.031.344.047-.214.258-.756.782-1.402l-6.214-5.038c-1.137 1.402-2.013 3.05-2.381 4.72-.311 1.411-.5 4.243 1.833 6.121l5.017-6.231zm1.745.428c.523-.645 1.012-.967 1.218-1.06.101-.046-.017.031-.328.038a2.571 2.571 0 01-1.638-.592l5.017-6.231c-2.324-1.871-5.047-1.095-6.359-.5-1.556.707-2.987 1.904-4.124 3.307l6.214 5.038zm-.748-1.614a2.584 2.584 0 01-.932-1.486c-.06-.312-.008-.45-.031-.344-.047.215-.258.756-.782 1.402l6.214 5.039c1.137-1.402 2.013-3.051 2.381-4.721.31-1.41.499-4.243-1.833-6.121l-5.017 6.231zm-.399-.571c-.524.646-1.012.967-1.218 1.061-.102.046.017-.032.328-.039a2.587 2.587 0 011.638.592l-5.017 6.231c2.324 1.872 5.046 1.096 6.358.5 1.556-.706 2.988-1.904 4.125-3.306l-6.214-5.039zm.748 1.614a2.58 2.58 0 01.931 1.487c.06.312.008.449.032.343.047-.214.257-.755.781-1.401l-6.214-5.039c-1.136 1.402-2.013 3.05-2.38 4.72-.311 1.411-.5 4.243 1.833 6.121l5.017-6.231zm1.744.429c.524-.646 1.012-.967 1.218-1.061.102-.046-.017.031-.328.038-.344.008-1.002-.08-1.638-.591l5.018-6.231c-2.325-1.872-5.047-1.096-6.359-.5-1.556.706-2.988 1.904-4.125 3.306l6.214 5.039zm-.748-1.614a2.586 2.586 0 01-.931-1.487c-.06-.312-.008-.449-.031-.343-.048.214-.258.755-.782 1.401l6.214 5.039c1.136-1.402 2.013-3.05 2.38-4.72.311-1.411.5-4.243-1.832-6.121l-5.018 6.231zm11.793 11.699c-.523.646-1.012.967-1.218 1.061-.101.046.017-.032.328-.039a2.577 2.577 0 011.638.592l-5.017 6.231c2.324 1.872 5.047 1.096 6.359.5 1.556-.707 2.987-1.904 4.124-3.306l-6.214-5.039zm.748 1.614a2.59 2.59 0 01.932 1.487c.06.312.008.449.031.343.047-.214.258-.755.782-1.402l-6.214-5.038c-1.137 1.402-2.013 3.05-2.381 4.72-.31 1.411-.5 4.243 1.833 6.121l5.017-6.231zm1.745.428c.523-.645 1.012-.967 1.218-1.06.102-.046-.017.031-.328.038a2.575 2.575 0 01-1.638-.591l5.017-6.232c-2.324-1.871-5.046-1.095-6.359-.499-1.556.706-2.987 1.904-4.124 3.306l6.214 5.038zm-.748-1.613a2.59 2.59 0 01-.932-1.487c-.06-.312-.008-.449-.031-.344-.047.215-.258.756-.782 1.402l6.214 5.039c1.137-1.402 2.013-3.05 2.381-4.72.31-1.411.5-4.243-1.833-6.122l-5.017 6.232zm-.399-.571c-.523.645-1.012.967-1.218 1.06-.101.046.017-.031.328-.038a2.575 2.575 0 011.638.591l-5.017 6.232c2.324 1.871 5.046 1.095 6.359.499 1.556-.706 2.987-1.904 4.124-3.306l-6.214-5.038zm.748 1.613a2.59 2.59 0 01.932 1.487c.06.312.008.449.031.344.047-.215.258-.756.782-1.402l-6.214-5.039c-1.137 1.402-2.013 3.051-2.381 4.721-.31 1.41-.5 4.243 1.833 6.121l5.017-6.232zm1.745.429c.523-.646 1.012-.967 1.218-1.061.101-.046-.017.032-.328.039a2.577 2.577 0 01-1.638-.592l5.017-6.231c-2.324-1.872-5.047-1.096-6.359-.5-1.556.707-2.987 1.904-4.124 3.306l6.214 5.039zm-.748-1.614a2.586 2.586 0 01-.932-1.487c-.06-.311-.008-.449-.031-.343-.047.214-.258.755-.782 1.402l6.214 5.038c1.137-1.402 2.013-3.05 2.381-4.72.31-1.411.5-4.243-1.833-6.121l-5.017 6.231z" fill="#7831B2" mask="url(#a)"/></svg>