<svg width="1257" height="2304" fill="none" xmlns="http://www.w3.org/2000/svg"><g opacity=".96" fill-rule="evenodd" clip-rule="evenodd"><path d="M1235.21 1.498a2 2 0 01-1.44 2.438l-5.8 1.506.08 3.467a4.005 4.005 0 01-3 3.964l-4.6 1.193.01 4.206a4.004 4.004 0 01-3 3.88l-4.49 1.164 1.12 4.32a1.994 1.994 0 01-1.43 2.437 2.003 2.003 0 01-2.44-1.434l-1.12-4.319a4.003 4.003 0 012.87-4.876l4.49-1.164-.01-4.206a4.004 4.004 0 013-3.88l4.6-1.193-.08-3.466a3.996 3.996 0 012.99-3.965l5.81-1.505a2.003 2.003 0 012.44 1.433zM97.79 178.135a2 2 0 01-.938 2.669l-6.671 3.201 1.041 4.666a4 4 0 01-2.173 4.477l-5.593 2.684 1.115 5.54a4 4 0 01-2.191 4.396l-5.547 2.661 2.49 5.188a2 2 0 11-3.607 1.73l-2.49-5.187a4 4 0 011.877-5.337l5.547-2.662-1.116-5.54a4 4 0 012.191-4.395l5.593-2.684-1.041-4.666a4.001 4.001 0 012.174-4.478l6.67-3.201a2 2 0 012.669.938z" fill="#7831B2"/><path d="M279.787 333.783a2 2 0 01-2.204-1.772l-.491-4.508-4.804-1.749a4 4 0 01-2.623-3.491l-.178-2.652-5.974-2.174a2 2 0 011.368-3.759l5.974 2.174a4.001 4.001 0 012.623 3.491l.178 2.652 4.804 1.749a4 4 0 012.608 3.325l.491 4.509a2 2 0 01-1.772 2.205zm-91.189-10.312a2 2 0 01-2.513 1.299l-5.9-1.878-4.763 5.11a4.002 4.002 0 01-4.292 1.033l-3.904-1.419-5.626 6.036a2 2 0 01-2.926-2.728l5.625-6.035a4 4 0 014.292-1.033l3.905 1.419 4.763-5.11a3.999 3.999 0 014.139-1.084l5.9 1.877a2 2 0 011.3 2.513zM2.095 1404.09a2 2 0 012.5 1.32l1.218 3.95 2.903.16c1.722.1 3.19 1.28 3.642 2.95l.572 2.1 4.294.24a1.999 1.999 0 11-.218 3.99l-4.295-.23a4.004 4.004 0 01-3.64-2.95l-.574-2.11-2.902-.15a4.016 4.016 0 01-3.604-2.82l-1.218-3.95a1.995 1.995 0 011.322-2.5zm50.292-571.944a2 2 0 012.604 1.103l1.83 4.519 4.575.08a4 4 0 013.692 2.639l.991 2.74 5.898.103a2 2 0 11-.07 3.999l-5.898-.103a4 4 0 01-3.691-2.638l-.992-2.741-4.575-.079a4 4 0 01-3.638-2.499l-1.83-4.519a2 2 0 011.104-2.604zM1103.31 1760.18c1-.46 2.19-.02 2.65.99l2.78 6.09h7.33c1.63 0 3.09.98 3.7 2.48l1.75 4.26h8.62a2 2 0 110 4h-8.62c-1.62 0-3.08-.98-3.7-2.48l-1.75-4.26h-7.33a4 4 0 01-3.64-2.34l-2.78-6.09c-.46-1-.02-2.19.99-2.65z" fill="#A68AD5"/><path d="M1255.94 1912.12c.48 1 .07 2.19-.93 2.68l-4.89 2.39.61 2.76c.39 1.81-.5 3.65-2.16 4.46l-3.76 1.83.68 3.45c.35 1.78-.54 3.57-2.17 4.37l-3.64 1.77 1.68 3.43a2 2 0 01-.92 2.67c-1 .49-2.2.08-2.68-.92l-1.67-3.43a3.984 3.984 0 011.84-5.34l3.64-1.78-.69-3.44a4 4 0 012.18-4.37l3.76-1.84-.61-2.76c-.4-1.81.49-3.65 2.15-4.46l4.9-2.39c.99-.48 2.19-.07 2.68.92zM4.392 2284.48c1.025-.42 2.19.08 2.6 1.11l1.706 4.25 2.399-.39c1.847-.3 3.654.72 4.35 2.46l1.215 3.02 3.032-.42a3.992 3.992 0 014.27 2.47l1.157 2.88 3.241-1.3c1.025-.41 2.19.09 2.601 1.11a1.997 1.997 0 01-1.111 2.6l-3.241 1.3c-2.05.83-4.38-.17-5.202-2.22l-1.157-2.88-3.033.43a4.012 4.012 0 01-4.27-2.48l-1.214-3.02-2.398.39a4.018 4.018 0 01-4.35-2.46l-1.707-4.25a1.997 1.997 0 011.112-2.6z" fill="#7831B2"/></g></svg>