<svg width="1288" height="1917" fill="none" xmlns="http://www.w3.org/2000/svg"><path opacity=".85" d="M1237.16 259.008l-5.81 1.506a1.983 1.983 0 00-1.49 1.982l.08 3.466c.02.929-.6 1.75-1.5 1.983l-4.6 1.192a1.997 1.997 0 00-1.5 1.94l.01 4.206c0 .913-.62 1.711-1.5 1.94l-4.49 1.165a2.008 2.008 0 00-1.44 2.438l1.12 4.318" stroke="#7831B2" stroke-width="4" stroke-linecap="round"/><path opacity=".84" d="M924.227 69.008l1.664 5.964a2.001 2.001 0 001.588 1.434l6.885 1.181a2 2 0 011.608 1.512l.955 4.043a2 2 0 001.608 1.512l8.132 1.396" stroke="#A68AD5" stroke-width="4" stroke-linecap="round"/><path opacity=".96" d="M6.574 1663.01l1.218 3.95c.247.8.966 1.36 1.802 1.41l2.903.16c.86.04 1.594.64 1.82 1.47l.573 2.11c.226.83.96 1.42 1.82 1.47l4.295.23" stroke="#A68AD5" stroke-width="4" stroke-linecap="round"/><path opacity=".78" d="M57.027 1091.01l1.83 4.52a2.016 2.016 0 001.819 1.25l4.575.08c.83.01 1.564.54 1.846 1.32l.991 2.74c.283.78 1.017 1.3 1.846 1.31l5.898.11" stroke="#A68AD5" stroke-width="4" stroke-linecap="round"/><path opacity=".79" d="M1259.03 735.008l2.78 6.091a2.009 2.009 0 001.82 1.168h7.33c.81 0 1.55.49 1.85 1.241l1.75 4.259a2.003 2.003 0 001.85 1.241h8.62" stroke="#A68AD5" stroke-width="4" stroke-linecap="round"/><path opacity=".77" d="M456.027 16.441l4.249-.594a2 2 0 001.657-1.472l.966-3.67a2 2 0 011.73-1.48l2.361-.241a2.001 2.001 0 001.731-1.48l1.304-4.957" stroke="#E71985" stroke-width="4" stroke-linecap="round"/><path opacity=".99" d="M319.09 1820l-.442-5.36a1.991 1.991 0 00-1.389-1.74l-4.693-1.49a2.01 2.01 0 01-1.393-1.82l-.154-3.36a2.01 2.01 0 00-1.393-1.82l-5.972-1.89" stroke="#E71985" stroke-width="4" stroke-linecap="round"/><path opacity=".96" d="M135.062 1534.23l.869 4.5c.178.92.968 1.59 1.903 1.62l2.428.07a2 2 0 011.903 1.62l.619 3.2c.174.91.942 1.57 1.861 1.62l3.058.16c.919.04 1.688.71 1.862 1.61l.59 3.05a1.999 1.999 0 002.343 1.59l3.429-.66" stroke="#A68AD5" stroke-width="4" stroke-linecap="round"/><path opacity=".79" d="M16.398 611.016l.704-5.492a1 1 0 00-.487-.99L11.5 601.54a1 1 0 01-.48-1.027l.704-4.233a1 1 0 00-.482-1.027l-5.685-3.328" stroke="#A68AD5" stroke-width="6" stroke-linecap="round"/><path opacity=".85" d="M1246.7 1248.9l-5.74-1.75c-.89-.27-1.85.1-2.32.9l-1.74 3c-.47.8-1.43 1.18-2.31.91l-4.55-1.39c-.87-.27-1.81.09-2.29.87l-2.19 3.59a2.01 2.01 0 01-2.29.87l-4.44-1.36c-1.06-.32-2.17.27-2.5 1.33l-1.3 4.26" stroke="#7831B2" stroke-width="4" stroke-linecap="round"/><path opacity=".71" d="M1181.56 1912.84l-2.84-4.14c-.23-.33-.62-.49-1.01-.42l-5.47 1.03a.99.99 0 01-1.03-.45l-2.05-3.23c-.22-.34-.62-.52-1.03-.45l-6.1 1.15" stroke="#7831B2" stroke-width="5" stroke-linecap="round"/><path d="M197.188 1724.08l-4.618-1.57c-.879-.3-1.848.05-2.339.83l-1.311 2.1a2.011 2.011 0 01-2.34.84l-3.394-1.16a2.01 2.01 0 00-2.317.8l-1.704 2.61c-.5.76-1.453 1.09-2.317.79l-3.246-1.1a2.008 2.008 0 00-2.536 1.25l-1.123 3.31" stroke="#7831B2" stroke-width="4" stroke-linecap="round"/></svg>