<svg width="1495" height="757" fill="none" xmlns="http://www.w3.org/2000/svg"><g opacity=".85" fill-rule="evenodd" clip-rule="evenodd"><path d="M1457.5 145.262c-.47-.937-.1-2.083.83-2.561l2.91-1.485-.23-3.579a2.66 2.66 0 011.53-2.592l2.09-.969-.26-4.048a1.897 1.897 0 011.77-2.023 1.91 1.91 0 012.03 1.775l.31 4.829a2.66 2.66 0 01-1.53 2.592l-2.09.969.23 3.548a2.662 2.662 0 01-1.45 2.547l-3.58 1.827c-.93.478-2.08.106-2.56-.83z" fill="#E71985"/><path d="M154.574.138a1.904 1.904 0 012.477 1.055l1.817 4.511h5.074c1.123 0 2.125.704 2.506 1.76L167.727 11h5.558a1.904 1.904 0 010 3.807h-6.359a2.666 2.666 0 01-2.507-1.76L163.14 9.51h-5.043a2.665 2.665 0 01-2.472-1.669l-2.106-5.226a1.903 1.903 0 011.055-2.478z" fill="#7831B2"/><path d="M652.574 71.138a1.904 1.904 0 012.477 1.055l1.817 4.511h5.074c1.123 0 2.125.704 2.506 1.76L665.727 82h5.558a1.904 1.904 0 010 3.807h-6.359a2.666 2.666 0 01-2.507-1.76l-1.279-3.537h-5.043a2.665 2.665 0 01-2.472-1.669l-2.106-5.227a1.903 1.903 0 011.055-2.477z" fill="#E71985"/><path d="M733.941 744.447a1.904 1.904 0 011.754 2.043l-.389 5.085 4.617 1.661a1.902 1.902 0 11-1.289 3.582l-5.436-1.956a2.665 2.665 0 01-1.755-2.71l.455-5.952a1.904 1.904 0 012.043-1.753z" fill="#7831B2"/><path d="M.186 377.805a2.284 2.284 0 011.199-3l3.474-1.49.26-4.97a3.046 3.046 0 011.958-2.687l2.574-.98.283-5.398a2.285 2.285 0 114.562.239l-.335 6.389a3.046 3.046 0 01-1.958 2.687l-2.573.98-.258 4.925a3.047 3.047 0 01-1.841 2.64l-4.346 1.864a2.285 2.285 0 01-3-1.199z" fill="#E71985"/><path d="M1289.58 74.346c-.87.587-2.05.356-2.64-.517l-1.82-2.707-3.53.662a2.656 2.656 0 01-2.75-1.216l-1.22-1.958-3.98.749a1.91 1.91 0 01-2.23-1.52 1.91 1.91 0 011.52-2.222l4.76-.893a2.67 2.67 0 012.76 1.216l1.21 1.957 3.5-.656a2.67 2.67 0 012.7 1.131l2.24 3.332c.59.872.36 2.055-.52 2.642zM130.575 707.599a1.904 1.904 0 01-2.377 1.264l-4.211-1.287-1.477 2.488a2.666 2.666 0 01-3.071 1.189l-3.896-1.191-1.823 2.925a2.667 2.667 0 01-3.041 1.139l-3.713-1.135-.86 2.814a1.903 1.903 0 11-3.641-1.113l1.194-3.906a2.666 2.666 0 013.328-1.77l3.966 1.212 1.823-2.924a2.665 2.665 0 013.041-1.139l3.877 1.185 1.477-2.488a2.664 2.664 0 013.071-1.189l5.069 1.549a1.902 1.902 0 011.264 2.377zM1494.47 579.572a2.286 2.286 0 01-2.85 1.517l-3.93-1.2-1.32 2.231a3.049 3.049 0 01-3.51 1.359l-3.62-1.105-1.67 2.676a3.04 3.04 0 01-3.47 1.302l-3.35-1.024-.75 2.45a2.285 2.285 0 01-4.37-1.335l1.2-3.907a3.041 3.041 0 013.8-2.022l3.68 1.127 1.67-2.676a3.051 3.051 0 013.48-1.302l3.59 1.097 1.32-2.231a3.05 3.05 0 013.51-1.359l5.07 1.55a2.282 2.282 0 011.52 2.852z" fill="#7831B2"/></g></svg>