<svg width="1626" height="1892" fill="none" xmlns="http://www.w3.org/2000/svg"><g opacity=".79" fill-rule="evenodd" clip-rule="evenodd"><path d="M19.189 1891.48a2.01 2.01 0 01-2.826-.13l-2.154-2.37-2.53.87a4 4 0 01-4.36-1.2l-.894-1.06-3.773 1.3a2.012 2.012 0 01-2.542-1.24 2.006 2.006 0 011.24-2.55l3.773-1.3a4.005 4.005 0 014.36 1.21l.894 1.06 2.53-.87a4.003 4.003 0 014.26 1.09l2.154 2.36c.744.82.684 2.09-.132 2.83zM95.148 801.785a2 2 0 01-1.581-2.345l.93-4.787-2.256-1.016a4 4 0 01-2.284-4.41l.684-3.52-2.81-1.337a4 4 0 01-2.208-4.375l.654-3.365-3.428-.666a2 2 0 01.763-3.927l3.429.667a4 4 0 013.163 4.689l-.654 3.365 2.81 1.338a4 4 0 012.207 4.375l-.684 3.519 2.256 1.016a4 4 0 012.285 4.41l-.93 4.787a2 2 0 01-2.346 1.582zm1530.272 2.695a1.993 1.993 0 01-2.49 1.327l-5.74-1.754-1.75 2.997a3.992 3.992 0 01-4.62 1.812l-4.55-1.389-2.19 3.589a3.999 3.999 0 01-4.58 1.74l-4.44-1.357-1.3 4.267a2.008 2.008 0 01-2.5 1.327 2 2 0 01-1.33-2.497l1.3-4.266a4.008 4.008 0 015-2.656l4.44 1.357 2.19-3.589a3.997 3.997 0 014.58-1.74l4.55 1.389 1.74-2.996a4.006 4.006 0 014.63-1.813l5.73 1.754a1.993 1.993 0 011.33 2.498zm-45.62-518.592c-1.14.783-2.7.495-3.48-.642l-2.29-3.332-4.51.847a3.511 3.511 0 01-3.61-1.568l-1.5-2.372-5.11.959a2.492 2.492 0 01-2.91-1.995 2.49 2.49 0 011.99-2.919l6.11-1.147a3.49 3.49 0 013.6 1.568l1.5 2.372 4.47-.839a3.498 3.498 0 013.53 1.455l2.85 4.136a2.509 2.509 0 01-.64 3.477z" fill="#7831B2"/><path d="M130.778 27.393a3 3 0 01-1.101-4.097l2.104-3.65-2.77-3.677a3.999 3.999 0 01-.194-4.534l1.549-2.468-3.135-4.161a3 3 0 114.791-3.611l3.965 5.261a4.002 4.002 0 01.194 4.534l-1.549 2.468 2.737 3.633a4 4 0 01.271 4.405l-2.765 4.797a3 3 0 01-4.097 1.1z" fill="#A68AD5"/></g></svg>