<svg width="195" height="119" fill="none" xmlns="http://www.w3.org/2000/svg"><path d="M81.477 34.157C70.27 52.3 63.927 77.42 61.512 88.623c-2.415 11.205-32.057-18.66-32.057-18.66M3.537 78.781a46.835 46.835 0 001.87 5.75c10.362 26.049 42.127 39.087 70.95 29.12 15.434-5.337 25.752-15.055 31.478-27.984M3.537 78.78a45.618 45.618 0 01-1.374-9.327c-.912-21.398 13.34-42.065 36.67-50.133 19.22-6.646 39.75-3.063 54.368 7.788M3.537 78.781a46.891 46.891 0 001.748 5.284c10.362 26.049 42.127 39.086 70.95 29.119 14.575-5.04 25.606-14.997 31.611-26.978M3.536 78.781c-6.54-24.6 8.288-50.63 35.175-59.927 20.038-6.93 40.357-3.874 55.059 8.076m24.376 12.183a537.307 537.307 0 0123.107 11.498m0 0c9.806 5.193 19.352 10.736 23.733 14.605M141.253 50.61c4.845-9.387 10.646-19.003 14.595-25.116M141.253 50.61c-5.2 10.073-9.298 19.884-8.825 24.818m60.495-20.27a43.279 43.279 0 01-3.243 14.144c-7.753 18.62-28.154 30.65-51.28 28.356-28.569-2.834-50.48-26.456-48.937-52.762a43.276 43.276 0 013.243-14.143c7.753-18.62 28.154-30.65 51.28-28.357 28.57 2.834 50.48 26.457 48.937 52.763zm-.151-.117c-1.543 26.305-25.953 45.333-54.523 42.5-28.57-2.835-50.48-26.457-48.937-52.763 1.542-26.306 25.953-45.333 54.523-42.5 28.569 2.834 50.479 26.457 48.937 52.763z" stroke="#7831B2" stroke-width="4" stroke-linecap="round"/></svg>