<svg width="229" height="234" fill="none" xmlns="http://www.w3.org/2000/svg"><path d="M144.058 90.139a9.11 9.11 0 01.275-.196l.115.277s0 0 0 0l.462-.19m-.852.109l.737 1.02v-.003l.002-.006.487.115m-1.226-1.126c.106.225.228.467.366.727m-.366-.727l.366.727m.486-.836c.106.257.191.456.256.597.115.252.154.465.118.638m-.374-1.235l-.149-.361.149.36zm.374 1.235l-.489-.104v-.002h-.001v.001h0v-.001a.118.118 0 01-.029.017c-.016.007-.037.017-.094-.005m.613.094a.523.523 0 01-.311.366.609.609 0 01-.506-.003m0 0l.211-.453-.007-.004m-.204.457l.192-.462a.297.297 0 00.012.005m-.204.457c-.177-.083-.338-.258-.484-.525m.688.068c-.043-.024-.134-.097-.247-.305m0 0l.001.002-.442.235m.441-.237l-.001-.002-.44.239m.441-.237l-.441.237m-1.22-4.006c.111.225.213.445.305.66.093-.053.185-.105.279-.155a9.696 9.696 0 00-.033-.07c-.188-.412-.343-.572-.423-.617a.205.205 0 00-.202-.018c.01.045.031.11.074.2zm0 0l.001.001-.45.219.449-.221v.001zm-1.706 5.723h0l-.003-.002a2.802 2.802 0 01-.503-.466c.105-.052.213-.103.323-.153.047-.022.094-.045.139-.07l.046.048h0l.008.007c.164.16.299.3.407.416l.005.006.005.005c.085.088.141.17.175.245a.379.379 0 01.032.093.37.37 0 01-.046.024.384.384 0 01-.211.038c-.069-.014-.192-.062-.377-.191zm-.708-1.48c-.138.064-.273.13-.405.198a26.816 26.816 0 01-.367-.584c.128-.065.26-.13.395-.194.127.212.252.405.377.58zm-1.279-1.25a14.95 14.95 0 00-.232-.38 4.525 4.525 0 00-.317-.478 1.652 1.652 0 00-.135-.148.73.73 0 00-.207-.14.618.618 0 00-.515 0 .778.778 0 00-.376.392 1.056 1.056 0 00-.061.164l-.317-.23a1.836 1.836 0 00-.094-.066c.028-.108.063-.212.104-.31.132-.318.31-.496.521-.592.259-.118.446-.115.598-.056l.146-.377-.146.377c.183.071.427.255.721.63h0l.004.005c.208.259.441.595.699 1.014-.134.064-.265.13-.393.195zm-.025 1.902l.026.04a9.101 9.101 0 00-.274.17c-.097.058-.191.115-.283.173l-.038-.156a17.494 17.494 0 01-.128-.56c.114-.074.231-.148.353-.221.107.177.22.36.34.548h0l.004.006zm-1.541.463c.038.156.079.315.123.478l-.093.057-.001.001a4.32 4.32 0 01-.372.207 9.771 9.771 0 01-.19-.504c.153-.133.318-.268.493-.404l.04.165zm-.257-1.25c-.209.15-.406.3-.593.451-.083-.304-.17-.6-.261-.888l-.028-.084.229-.25.39-.422.184-.2c-.03.297-.013.667.037 1.096h0v.005c.012.094.026.191.042.291zm.341 2.898c.109-.053.22-.112.333-.179.048.148.097.298.149.45h0l.001.005a.962.962 0 01.047.173c-.072.03-.123.028-.207-.03-.08-.062-.19-.192-.323-.42zm4.686-4.599c.102-.087.208-.172.318-.254l.018.047h0l.002.007c.071.177.146.36.227.55-.07.064-.135.123-.193.179h0l-.004.003a.89.89 0 01-.268.185l-.012-.007a.572.572 0 01-.201-.25.59.59 0 01-.062-.262.184.184 0 01.018-.033.838.838 0 01.156-.164l.001-.001zm3.074-1.257c-.187.086-.364.17-.529.253l-.182-.437.115-.053c.205-.094.326-.086.398-.062.071.023.145.074.213.224a.363.363 0 01.022.057l-.037.018zm-1.899.445a9.45 9.45 0 01.297-.169l.197.478a13.76 13.76 0 00-.294.2c-.036-.09-.072-.176-.105-.262l-.095-.247z" fill="#7831B2" stroke="#7831B2"/><path d="M149.05 101.136a9.11 9.11 0 01.275-.196l.115.277v.001l.462-.191m-.852.109l.737 1.019.001-.002.001-.006.487.115m-1.226-1.126c.106.225.228.467.366.727m-.366-.727l.366.727m.486-.836c.106.257.191.456.256.597.115.252.155.465.118.638m-.374-1.235a63.004 63.004 0 00-.149-.361l.149.361zm.374 1.235l-.489-.104v-.002l-.001.001s0 0 0 0h0l.001-.001c-.004.003-.012.009-.03.017-.016.007-.036.017-.094-.005m.613.094a.52.52 0 01-.311.366.612.612 0 01-.506-.003m0 0l.211-.453-.007-.004m-.204.457l.192-.462.012.005m-.204.457c-.177-.083-.338-.258-.483-.525m.687.068c-.043-.024-.134-.097-.247-.305m0 0l.001.002-.441.235m.44-.237l-.001-.002-.439.239m.44-.237l-.44.237m-1.221-4.006c.111.225.213.445.305.66.093-.053.186-.105.279-.155a9.696 9.696 0 00-.033-.07c-.188-.412-.343-.572-.422-.617-.071-.041-.125-.049-.203-.018a.96.96 0 00.074.2zm0 0l.001.001-.45.219.449-.221v.001zm-1.705 5.723h0l-.004-.002a2.838 2.838 0 01-.503-.466c.105-.052.213-.103.323-.153.048-.022.094-.045.139-.07l.047.048h-.001l.008.007c.164.161.299.299.407.416l.005.006.005.005c.086.088.141.17.175.245a.385.385 0 01.032.093.265.265 0 01-.046.024.37.37 0 01-.21.038c-.069-.014-.193-.062-.377-.191zm-.708-1.48c-.139.064-.274.131-.406.199a25.528 25.528 0 01-.367-.585c.128-.065.26-.13.395-.194.127.212.253.406.378.58zm-1.28-1.25a14.418 14.418 0 00-.232-.381c-.12-.2-.228-.366-.317-.476a1.365 1.365 0 00-.135-.149.732.732 0 00-.207-.14.616.616 0 00-.514 0 .775.775 0 00-.377.392 1.343 1.343 0 00-.061.164l-.317-.231a1.552 1.552 0 00-.094-.064c.029-.109.063-.213.105-.312.131-.317.309-.495.52-.591.259-.118.446-.115.598-.056l.146-.377-.146.377c.183.071.427.255.721.63h0l.004.005c.208.259.441.595.699 1.014-.134.065-.265.13-.393.195zm-.025 1.902l.026.039-.274.17c-.096.059-.191.116-.283.174l-.038-.155c-.048-.197-.09-.384-.127-.561.113-.074.23-.148.352-.221.107.177.22.36.34.548h0l.004.006zm-1.541.463c.038.156.079.315.123.478l-.092.057-.002.001a3.983 3.983 0 01-.372.207 9.634 9.634 0 01-.19-.504c.154-.133.318-.268.494-.404l.039.165zm-.257-1.251c-.208.151-.406.301-.593.452a23.43 23.43 0 00-.289-.972l.23-.249.389-.423.184-.199c-.029.296-.013.666.037 1.095h0v.005c.012.094.026.191.042.291zm.341 2.899c.109-.053.22-.112.334-.179.047.148.096.298.148.451h0l.001.005a.937.937 0 01.047.172c-.072.03-.122.028-.206-.03-.081-.062-.191-.192-.324-.419zm4.686-4.599c.102-.087.208-.172.318-.254l.018.047h0l.003.007c.07.177.145.361.226.551-.07.063-.134.122-.193.178h0l-.004.003a.866.866 0 01-.268.185l-.012-.006a.58.58 0 01-.201-.251.602.602 0 01-.062-.262.2.2 0 01.018-.033.847.847 0 01.156-.164l.001-.001zm3.074-1.257c-.187.086-.364.17-.529.253l-.181-.437.115-.053c.204-.093.325-.086.397-.062.071.023.145.074.214.224a.35.35 0 01.021.057.532.532 0 01-.037.018zm-1.899.445c.098-.058.197-.114.297-.169l.198.478a11.47 11.47 0 00-.295.2 42.243 42.243 0 01-.105-.262l-.095-.247z" stroke="#7831B2"/><path d="M155.71 128.882l-.003.002-.166-.342-.002-.006-.05-.103.051.102.003.006.171.339-.004.002zm0 0c.092-.044.178-.085.261-.121.034.05.068.095.099.134a.795.795 0 00.248.224c.072.03.135.033.189.008.097-.044.199-.104.306-.182a3.19 3.19 0 00.291-.259c.086-.095.152-.185.198-.269.043-.09.053-.161.029-.214a.376.376 0 00-.212-.208.671.671 0 00-.37-.021l-1.039.908zm6.526-2.647c.105.257.191.462.26.611.083.183.077.27.071.295-.005.014-.019.038-.086.068a.218.218 0 01-.172.008c-.044-.021-.132-.085-.241-.279-.135-.25-.254-.483-.357-.7.121-.087.259-.18.412-.279l.113.276zm0 0l.464-.188-.463.189-.001-.001zm-8.073.582c.086-.047.173-.092.262-.135l.013.034v.001c.04.105.081.21.124.317l-.068.06a.942.942 0 00-.291.45 11.837 11.837 0 01-.164-.455h0l-.001-.002a7.22 7.22 0 01-.055-.175l.18-.095zm.703 2.083a.962.962 0 00.635.059c.061.093.121.176.179.249.107.134.246.277.421.361l.012.006.012.005a.726.726 0 00.59.002c.132-.06.262-.139.39-.23l.01-.007.009-.008c.119-.094.231-.194.335-.299l.008-.008.008-.009c.104-.115.196-.237.266-.365l.006-.011.006-.012c.062-.129.151-.377.033-.637a.876.876 0 00-.593-.503c.111-.118.213-.234.308-.348a.867.867 0 01.676.493c.145.317.186.586.156.818l-.001.003a1.72 1.72 0 01-.264.725 2.666 2.666 0 01-.561.619h0l-.002.001a3.09 3.09 0 01-.67.425.69.69 0 01-.468.044 1.78 1.78 0 01-.629-.352 3.982 3.982 0 01-.872-1.021zm1.512-1.358a3.732 3.732 0 00-.347.117l-.086.031a14.348 14.348 0 01-.197-.426l.14-.145h0l.006-.006.119-.13.041.063.291.446.033.05zm.618-1.394a3.024 3.024 0 00-.396.07c.024-.041.046-.082.066-.122.081-.151.205-.442.069-.739a.66.66 0 00-.387-.355.702.702 0 00-.311-.032 1.468 1.468 0 00-.232.048 5.1 5.1 0 00-.58.216c-.09.036-.192.078-.303.126a1.399 1.399 0 00-.817-.474 8.171 8.171 0 011.068-.39h0l.008-.002c.372-.112.696-.165.974-.17h.004c.269-.006.474.045.635.134h0l.007.003c.142.075.272.207.379.44.049.108.083.251.089.441h0v.011c.007.129-.028.32-.155.588a2.338 2.338 0 01-.118.207zm2.812-.481c.14-.112.286-.221.438-.326l.019.049h0l.003.008c.067.172.138.35.215.534-.087.073-.167.141-.239.205h0l-.003.003a1.287 1.287 0 01-.312.212.184.184 0 01-.074.021.072.072 0 01-.032-.01.47.47 0 01-.19-.222.467.467 0 01-.05-.235.22.22 0 01.028-.046 1.04 1.04 0 01.196-.192l.001-.001zm.929-1.804a12.419 12.419 0 00-.303-.654.67.67 0 01-.068-.192l.028-.013c.141-.065.231-.054.317-.012.078.039.233.182.416.581l.028.063c-.14.073-.28.149-.418.227zm.375.938a11.9 11.9 0 01.44-.244c.063.154.126.307.187.46-.155.098-.3.193-.434.284l-.104-.261-.089-.239zm1.508-.275l-.175-.424.183-.085c.252-.115.41-.117.505-.092.085.022.151.068.21.196a.27.27 0 01.017.046.646.646 0 01-.095.05c-.23.106-.445.208-.645.309zm.389 18.187c.039.165.081.334.126.506m-.126-.506l.452-.266.079-.047.372-.227m-.903.54a14 14 0 01-.108-.495l-.035-.174c-.288.201-.554.399-.8.594m.943.075l-.188.111h-.002a6.168 6.168 0 01-.56.296l-.017.007m.893.092l1.65-1.559m-1.65 1.559l.073.267-.135-.231.062-.036zm.777-1.046c.036.166.075.337.119.513.191-.116.391-.235.601-.355m-.72-.158l-.031-.152a14 14 0 01-.105-.579c.197-.123.405-.246.622-.369.115.182.239.369.37.562h0l.004.007a.203.203 0 01.013.018m-.873.513c.15-.09.305-.181.466-.273m.254.431c.147-.089.298-.178.454-.266a9.048 9.048 0 01-.301-.405m-.153.671l-.258-.429.004-.002m.254.431l-.25-.434-.004.003m.407-.24c-.139.08-.275.16-.407.24m-2.136 1.227a7.543 7.543 0 01-.176-.489m.176.489c-.289.13-.424.12-.464.109a.206.206 0 01-.035-.012l.696.363a10.413 10.413 0 01-.197-.46zm-.176-.489c-.1.079-.196.157-.288.235l.138-.753c.041.148.084.299.129.454l.021.064zm4.742-.901c.089-.04.174-.085.255-.134l.084.077h0l.009.008c.18.153.328.285.444.396l.006.006.006.005c.09.08.14.153.168.214.02.043.023.066.023.073l-.001.003a.56.56 0 01-.147.093.771.771 0 01-.35.076c-.1-.009-.249-.054-.455-.172h0l-.004-.002a2.52 2.52 0 01-.524-.411c.158-.079.32-.156.486-.232zm-.451-.893c-.236.108-.465.22-.688.334l-.076-.107a23.414 23.414 0 01-.31-.47c.218-.109.443-.219.677-.328.131.209.264.4.397.571zm-.927-1.427c-.232.109-.456.219-.674.33a12.073 12.073 0 00-.252-.391 3.755 3.755 0 00-.343-.478 1.289 1.289 0 00-.154-.15.704.704 0 00-.232-.129.66.66 0 00-.488.025c-.316.144-.46.453-.533.721l-.508-.305-.059-.034c.04-.102.086-.201.137-.297a1.59 1.59 0 01.752-.732c.36-.164.627-.181.829-.124l.114-.409-.114.409c.219.061.487.231.794.586h0l.005.006c.219.244.461.567.726.972zm-3.891 1.264l-.021-.074.321-.306.494-.47.393-.374v.002c-.064.317-.076.712-.052 1.167h0v.007c.007.101.016.206.027.313-.328.219-.636.436-.923.651-.073-.314-.153-.62-.239-.916zm1.455 3.727c-.081-.052-.191-.167-.322-.378l.002-.001c.19-.086.391-.191.6-.312.044.149.09.3.138.455h0l.002.005a.734.734 0 01.038.17l.001.009a.46.46 0 01-.079.044c-.172.079-.28.065-.38.008zm.332-.721l.394-.231c.052.184.109.373.169.566.071.216.083.389.035.517-.047.128-.161.233-.343.316-.303.139-.585.133-.845-.019l.59-1.149zm4.478-1.304s0 0 0 0h-.001s0 0 0 0h.001z" fill="#7831B2" stroke="#7831B2"/><path d="M148.152 113.833c.082-.044.166-.087.251-.13l.014.036c.04.105.081.211.124.317a2.202 2.202 0 01-.064.059.922.922 0 00-.282.43c-.061-.16-.114-.308-.16-.443h0v-.002a3.992 3.992 0 01-.056-.175c.053-.027.111-.058.173-.092zm.719 2.093a.957.957 0 00.608.054c.061.093.12.176.177.248.107.134.245.278.418.363l.012.005.012.005a.722.722 0 00.591.005c.131-.06.26-.138.386-.23l.01-.006.009-.008c.119-.094.229-.193.332-.298l.008-.008.008-.009c.103-.115.193-.236.262-.364l.006-.012.005-.011c.062-.131.148-.377.031-.634a.878.878 0 00-.592-.504c.108-.115.208-.23.3-.342a.847.847 0 01.485.24c.081.082.14.167.18.256.146.318.187.588.159.82l-.001.002c-.03.258-.115.497-.257.721a2.592 2.592 0 01-.55.613h0l-.001.001a3.015 3.015 0 01-.658.419.66.66 0 01-.456.04 1.777 1.777 0 01-.624-.353 4.063 4.063 0 01-.86-1.013zm1.435-1.405l.033.05c-.109.03-.221.068-.335.112a4.027 4.027 0 00-.08.029c-.043-.09-.088-.186-.135-.289l-.063-.139.136-.142h0l.006-.007.109-.12.039.059.29.447zm.641-1.341a2.872 2.872 0 00-.386.068c.024-.042.047-.084.067-.125.08-.152.2-.441.066-.735a.662.662 0 00-.695-.388 1.332 1.332 0 00-.231.047 4.77 4.77 0 00-.574.213 9.852 9.852 0 00-.294.122 1.293 1.293 0 00-.157-.157 1.384 1.384 0 00-.602-.308c-.018-.005-.036-.008-.053-.011a7.898 7.898 0 011.048-.382v.001l.008-.003c.367-.109.686-.161.96-.164h.004c.264-.005.466.047.625.136h0l.008.004c.14.075.271.208.378.443.05.108.084.252.091.442h0v.011c.008.129-.027.32-.15.586-.03.062-.068.129-.113.2z" stroke="#7831B2"/><path d="M125.027 37.575c-9.627 7.438-60.684 35.408-85.159 48.099 75.424-45.31 76.375-43.636 84.305-48.167l.481-.274c.044-.025.17.092.373.343zm0 0l.011-.008.04.072m-.051-.064l.051.064m0 0l62.661 111.5m-62.661-111.5c5.8 7.314 66.74 110.036 63.461 111.91l-.432.246m-.368-.656l.368.656m-.368-.656l-68.983 37.878m68.983-37.878l.79-.434m-.422 1.09l-6.309 3.605-.002.001m0 0l-63.04 33.616m63.04-33.616l-1.827 1.044M41.486 85.388c8.365 19.6 43.905 91.939 57.014 107.685m0 0c1.592 1.912 2.853 2.99 3.695 3.037l16.561-9.093M98.5 193.073C85.225 178.396 47.104 106.34 39.725 86.394M98.5 193.073c1.492 1.65 2.671 2.575 3.456 2.619l7.124-3.516 9.676-5.159m-40.45-61.59l51.946-29.678m-52.184 29.26c25.799-16.403 51.945-29.679 51.945-29.679m-46.068 41.395l51.946-29.678m-52.184 29.26c25.8-16.403 51.946-29.679 51.946-29.679M90.29 148.73l51.945-29.679m-52.184 29.261c25.8-16.403 51.946-29.679 51.946-29.679m-43.954 42.101l51.946-29.679m-52.184 29.261c25.8-16.403 51.946-29.679 51.946-29.679m-45.363 43.513l51.945-29.679m-52.184 29.26c25.8-16.403 51.946-29.678 51.946-29.678M62.463 96.375c16.961-11.353 34.63-19.786 34.63-19.786m-28.991 28.26c16.962-11.354 34.63-19.786 34.63-19.786M62.701 96.794l34.63-19.786m-28.99 28.26l34.63-19.786" stroke="#7831B2" stroke-width="3" stroke-linecap="round"/></svg>