<svg width="208" height="207" fill="none" xmlns="http://www.w3.org/2000/svg"><path d="M115.083 180.807l-1.491 21.799c-.119 1.749 2.733 2.966 4.251 2.091 3.032-1.748 7-2.544 11.415-.891 1.546.579 3.497-.89 3.004-2.467l-5.79-18.521m19.378-3.989l14.765 4.841L203.83 55.615C183.51 51.97 89.901 19.405 45.941 2.98 189.173 46.5 188.154 49.613 202.92 54.454l1.943.637-42.303 129.216-17.097-5.606M44.654 4.281C27.68 41.239-4.19 117.732 4.134 128.048l76.438 29.375L4.39 127.27C-3.937 116.954 26.587 38.439 45.164 2.724m71.404 57.894l45.85 15.035m-50.4 6.746l46.627 15.29M40.152 89.002l111.905 36.695m10.616-50.823l-45.85-15.035m-4.55 21.782c18.772 4.431 46.627 15.29 46.627 15.29M40.407 88.223c57.883 16.395 111.905 36.695 111.905 36.695m-49.306 45.463c-4.839 3.306-14.915 11.99-20.933 22.849-.808 1.458.943 3.072 2.545 2.616 3.4-.969 7.055-.695 8.824 3.162.693 1.511 3.08 2.127 3.989.733l13.505-20.725m38.469-13.676c-4.363 13.327-18.686 20.594-31.991 16.231-13.305-4.363-20.553-18.704-16.19-32.031 4.363-13.327 18.685-20.593 31.99-16.231 13.305 4.363 20.554 18.704 16.191 32.031zm1.032-.524c-4.363 13.327-18.686 20.594-31.991 16.231-13.304-4.363-20.553-18.703-16.19-32.03 4.363-13.327 18.686-20.594 31.991-16.231 13.304 4.363 20.553 18.703 16.19 32.03z" stroke="#7831B2" stroke-width="4" stroke-linecap="round"/></svg>