<svg width="240" height="228" fill="none" xmlns="http://www.w3.org/2000/svg"><path d="M90.09 208.843C42.504 172.372-43.348 81.352 31.35 14.981c37.39-31.709 82.863.044 86.381 37.67m0 0c9.207 17.711-1.389 21.631-6.545 19.846-11.774-4.076 2.576-20.35 6.545-19.846zm0 0c59.876-56.448 152.911-20.618 104.244 82.153-48.668 102.771-128.326 90.647-128.326 90.647m-3.01-16.338C39.392 165.625-41.7 82.355 32.996 15.983c37.392-31.707 81.22-.959 84.737 36.668m0 0c9.207 17.71-.489 20.956-5.645 19.171-11.774-4.076 1.676-19.675 5.645-19.171zm0 0c59.877-56.449 157.029-19.054 105.888 83.156-51.14 102.211-130.027 89.71-130.027 89.71m37.294-84.309c-5.09-11.173-6.433-38.183 15.749-42.31 22.183-4.127 43.819 11.407 42.292 25.081-1.527 13.673-.504 18.471-17.589 28.869m-33.749 6.804l-1.992 6.933.093.08m0 0l7.856 6.712 11.723-1.131 1.991-6.934m-21.57 1.353h.185m-.185 0l-28.01-.006c-1.175.263-3.811.945-4.952 1.578m52.543 4.008l21.916 13.513c1.385 1.099 4.224 3.678 4.506 5.2m-44.168-15.411l2.525 5.831-11.311 15.362m19.868-18.004l-5.312 3.876.406 17.516m-7.99-77.244s2.035.98 5.201 1.921m0 0c6.093 1.811 16.373 3.477 24.4-2.264 2.267-1.621 3.725-2.283 4.664-2.274m-29.064 4.538c-3.607-1.003-5.98-2.145-5.98-2.145m5.98 2.145c6.162 1.712 15.927 3.015 23.621-2.488 3.027-2.165 4.613-2.619 5.443-2.05m0 0c3.904.036-1.207 11.69 5.461 14.081m-5.461-14.081c2.473 1.694-1.763 12.468 5.461 14.081m0 0c.35.126.733.226 1.151.297m-1.151-.297c.121.027.245.052.372.073m-44.003-3.803c-.967 10.332-.418 27.972 12.984 32.362 13.811 4.525 21.116-.508 31.284-19.202m-44.842-2.356c-5.091-11.173-7.333-39.402 14.85-43.529 22.182-4.126 43.818 11.407 42.292 25.081-1.527 13.674.294 18.702-16.79 29.1m-34.549 6.573l-1.991 6.934 7.949 6.791 11.723-1.131m0 0l1.991-6.934m-1.991 6.934l21.917 13.513c1.384 1.099 4.223 3.677 4.506 5.2m-45.817-24.294l-28.195-.005c-1.176.262-3.811.945-4.953 1.577m27.948 49.963l-6.205-51.513 6.757 11.441 12.526-3.99 8.832 8.87 10.834-5.715-32.744 40.907zm0 0l.403 3.267m6.606-45.278l2.364 5.19-11.31 15.362m19.458-17.527l-4.902 3.399.407 18.433m-80.035-56.824c-2.055 5.414-3.971 16.753 4.801 18.797 8.772 2.044 13.569-7.906 14.87-13.137m-21.264-.113c-6.783-.751-21.92-1.383-28.198 2.095m48.226 3.368c7.743 3.329 23.59 12.072 25.034 20.415l-7.088 24.684m-45.735-50.693l-5.524 11.923 8.035 2.312 1.971 5.671 9.988-5.533 5.251 9.918 4.956-3.678 8.312 2.391 1.645-13.039m16.645-41.928s-2.24-.251-5.416-1.134m0 0c-6.123-1.702-15.727-5.754-19.485-14.891-1.061-2.579-1.946-3.915-2.746-4.406m22.23 19.297c3.584 1.066 6.196 1.358 6.196 1.358m-6.195-1.358c-6.13-1.823-15.104-5.909-18.706-14.667-1.417-3.444-2.52-4.67-3.525-4.63m0 0c-3.328-2.044-5.178 10.545-12.096 9.029m12.096-9.029c-2.994.122-5.12 11.501-12.096 9.029m0 0a6.71 6.71 0 01-1.134-.36m1.134.36a6.443 6.443 0 01-.355-.136m-7.334 9.398c-.967 10.332.79 28.382 14.191 32.773 13.811 4.524 20.411-1.197 30.578-19.891M60.969 147.76c-6.783-.751-21.92-1.383-28.198 2.096m48.086 5.537c1.907.82 4.314 1.837 6.88 3.028m0 0c7.856 3.646 17.206 8.929 18.295 15.217l-6.662 25.897m-11.632-41.114l-1.54 12.213-8.313-2.392-4.956 3.679-5.604-9.03-9.358 6.167-1.547-6.352-8.176-2.352 4.964-12.725m34.53 10.792l.104-.826m7.51-76.004c-3.457-.942-6.737-1.148-9.033-.99-.22-.077-.448-.154-.685-.23m9.717 1.22c6.035 1.646 12.609 5.535 15.426 13.642 5.539 15.938 5.725 38.774 1.312 49.739-3.531 8.772-12.394 14.295-16.384 15.959m-.354-79.34c-3.691-1.119-7.252-1.378-9.717-1.22m9.717 1.22c5.813 1.763 11.95 5.658 14.647 13.418 5.538 15.938 5.724 38.774 1.311 49.739-3.53 8.772-12.393 14.294-16.383 15.959m-9.292-80.336a29.598 29.598 0 00-1.254-.372m1.254.372l-.095.006c-.362-.128-.75-.255-1.159-.378m0 0c-7.084-1.94-19.417-2.675-24.333 6.965-6.754 13.245-31.278 39.941-19.233 58.173M84.38 79.999c-6.921-2.093-20.011-3.264-25.113 6.741-6.753 13.245-31.278 39.94-19.233 58.172m97.829 30.233l4.587-2.295 5.501 5.048-4.585 4.13v16.98l-11.919 15.144-3.209-18.815 10.544-14.226-.919-5.966z" stroke="#7831B2" stroke-width="4" stroke-linecap="round"/></svg>