<svg width="157" height="218" fill="none" xmlns="http://www.w3.org/2000/svg"><path d="M90.114 216.128a2 2 0 10-.403-3.979l.403 3.979zm-71.542-23.093l-1.684 1.079 1.684-1.079zm-5.968-48.817l1.908.598-1.908-.598zm11.49-44.78l.451-1.948-3.17-.733.778 3.16 1.942-.478zm23.126 32.303l1.93.524-1.93-.524zm-1.123 32.279a2.001 2.001 0 003.459-2.008l-3.46 2.008zm4.486-42.148l-1.719-1.022-.076.128-.056.137 1.851.757zm-1.51-64.917l-1.367 1.46.03.029.033.027 1.304-1.516zM37.858 31.359l1.996.113-1.996-.114zm16.78-25.74l1.986.235.515-4.346-3.623 2.455 1.122 1.655zm46.276 50.341l-1.075 1.687 1.075-1.687zm42 37.877l-1.742.982 1.742-.982zm-27.91 110.593a2 2 0 101.162 3.827l-1.162-3.827zm15.961-38.148l-1.96.4 1.96-.4zm-5.137-13.678l1.792-.888-2.094-4.226-1.582 4.443 1.884.671zm-35.02-26.233l1.98-.277-.4-2.865-2.54 1.387.96 1.755zm-11.41 41.805l1.95-.443-1.95.443zm5.723 13.992l.539 1.926 1.969-.55-.594-1.957-1.914.581zm-30.328 3.802l-.161-1.994-2.56.207.828 2.431 1.893-.644zm34.83 30.281a2 2 0 10-.176-3.996l.175 3.996zm-72.498-24.742l1.697-1.059-1.697 1.059zm5.523-93.597l.45-1.949-3.17-.733.778 3.16 1.942-.478zm23.125 32.302l1.93.524-1.93-.524zm-1.123 32.279a2 2 0 103.459-2.008l-3.46 2.008zm4.486-42.148l-1.72-1.022-.075.128-.056.138 1.85.756zm-1.51-64.917l-1.367 1.46.03.029.033.027 1.304-1.516zM36.41 29.832l1.997.114-1.997-.114zM54.887 4.56l1.986.235L57.358.7l-3.516 2.154 1.045 1.706zm44.58 49.873l-1.075 1.687 1.075-1.687zm41.999 37.877l-1.742.983 1.742-.983zm-26.39 112.098a2 2 0 001.162 3.827l-1.162-3.827zm13.888-38.502l-1.96.4 1.96-.4zm-3.335-14.225l1.792-.888-2.094-4.226-1.582 4.443 1.884.671zm-34.748-25.332l1.981-.277-.4-2.866-2.54 1.387.96 1.756zM77.95 166.65l-1.882.678 1.882-.678zm5.724 13.991l.538 1.926 1.97-.55-.594-1.957-1.914.581zm-30.329 3.802l-.16-1.994-2.56.207.827 2.432 1.893-.645zM15.86 85.227l-1.961.392.83 4.152 2.68-3.279-1.55-1.265zm3.73-14.832l-1.722 1.019 1.721-1.019zm-7.76-7.479l.963-1.752-.03-.017-.031-.015-.902 1.784zM8.5 57.604l1.991.184-1.991-.184zm.376-3.143l1.967.361-1.967-.361zm-.348-.15l1.18 1.614-1.18-1.615zM2.72 65.681l-1.747.974 1.747-.974zm12.442 12.731l-1.986-.238-.015.129v.129l2-.02zm96.772 26.176l.678-1.881-3.983-1.435 1.421 3.988 1.884-.672zm10.823 10.804l-2 .012 2-.012zm-2.811 10.405l1.691 1.067.018-.029.018-.03-1.727-1.008zm-.124 6.267l1.614-1.181-1.614 1.181zm1.938 2.503l1.502-1.321-1.502 1.321zm-.221.308l.183-1.991-.183 1.991zm-10.828-6.768l-1.999.063 1.999-.063zm4.127-17.316l-1.725 1.011.065.112.079.102 1.581-1.225zM89.711 212.149c-9.25.936-22.948 1.75-36.22-.653-13.282-2.406-25.829-7.975-33.235-19.539l-3.368 2.157c8.255 12.89 22.073 18.815 35.891 21.318 13.83 2.505 27.973 1.643 37.335.696l-.403-3.979zm-69.455-20.192c-5.053-7.891-7.858-15.192-8.736-22.702-.878-7.518.157-15.388 2.992-24.439l-3.817-1.196c-2.95 9.418-4.11 17.87-3.147 26.099.962 8.238 4.034 16.111 9.34 24.395l3.368-2.157zm-5.744-47.141c1.402-4.474 3.106-8.193 4.823-11.606 1.69-3.357 3.489-6.596 4.905-9.819 2.936-6.681 4.434-13.709 1.797-24.43l-3.884.956c2.403 9.769 1.048 15.896-1.575 21.865-1.363 3.102-3.02 6.061-4.816 9.63-1.767 3.513-3.575 7.447-5.067 12.208l3.817 1.196zm9.132-43.429c2.35.544 6.797 3.088 11.194 8.204 4.338 5.049 8.505 12.47 10.417 22.524l3.93-.748c-2.048-10.765-6.534-18.822-11.313-24.383-4.721-5.494-9.857-8.691-13.326-9.494l-.902 3.897zm25.912 60.625c-1.967-3.388-4.703-13.906-.406-29.747l-3.86-1.048c-4.492 16.559-1.84 28.244.807 32.803l3.459-2.008zm-.406-29.747a82.843 82.843 0 013.285-9.637l-3.703-1.513a86.822 86.822 0 00-3.442 10.102l3.86 1.048zm3.152-9.371c7.562-12.719 11.675-23.952 12.401-26.845l-3.88-.974c-.61 2.429-4.542 13.301-11.959 25.775l3.438 2.044zm12.401-26.845c.271-1.08 2.502-6.503 1.692-13.922-.82-7.513-4.69-16.949-16.018-26.689l-2.608 3.033c10.64 9.15 13.95 17.688 14.65 24.09.71 6.498-1.2 10.935-1.596 12.514l3.88.974zM50.44 55.494c-5.092-4.766-7.8-8.205-9.227-11.638-1.416-3.405-1.665-7.023-1.359-12.384l-3.993-.227c-.316 5.535-.111 9.89 1.659 14.147 1.758 4.228 4.968 8.139 10.186 13.023l2.734-2.92zM39.854 31.472c.328-5.752 1.502-9.805 3.876-13.357 2.411-3.608 6.174-6.873 12.03-10.84l-2.244-3.312c-5.976 4.048-10.262 7.665-13.112 11.93-2.887 4.319-4.188 9.129-4.543 15.352l3.993.227zM52.652 5.383c-.504 4.252-.588 11.011.791 17.617 1.368 6.549 4.265 13.364 10.08 17.149l2.181-3.353c-4.485-2.919-7.058-8.451-8.345-14.614-1.276-6.106-1.198-12.422-.735-16.328l-3.972-.47zm10.87 34.766c5.346 3.479 11.304 5.81 17.378 8.265 6.126 2.476 12.474 5.114 18.94 9.233l2.149-3.374c-6.805-4.335-13.457-7.089-19.59-9.568-6.183-2.498-11.74-4.684-16.695-7.909l-2.182 3.353zM99.84 57.647c18.718 11.926 30.774 18.448 41.333 37.172l3.484-1.964c-11.135-19.747-24.126-26.769-42.667-38.582l-2.15 3.374zm41.333 37.172c7.218 12.803 8.931 21.193 10.965 36.191l3.964-.537c-2.063-15.216-3.868-24.18-11.445-37.618l-3.484 1.964zm10.965 36.191c.991 7.307.724 18.057-1.356 28.566-2.09 10.558-5.94 20.514-11.843 26.537l2.857 2.8c6.715-6.852 10.766-17.728 12.91-28.56 2.154-10.882 2.454-22.079 1.396-29.88l-3.964.537zm-13.199 55.103c-6.233 6.36-11.585 10.759-15.719 13.666-4.177 2.938-7.014 4.286-8.215 4.651l1.162 3.827c1.802-.547 5.046-2.176 9.354-5.206 4.352-3.061 9.889-7.622 16.275-14.138l-2.857-2.8zm-13.993 17.527c2.38-3.582 5.11-9.303 6.882-15.941 1.773-6.64 2.624-14.336 1.097-21.817l-3.919.8c1.367 6.696.626 13.738-1.042 19.985-1.669 6.25-4.228 11.566-6.35 14.759l3.332 2.214zm7.979-37.758c-1.2-5.883-4.471-12.484-5.304-14.166l-3.584 1.776c.86 1.736 3.888 7.892 4.969 13.19l3.919-.8zm-8.98-13.949c-1.439 4.04-2.017 5.253-6.92 13.605l3.449 2.025c4.93-8.397 5.668-9.877 7.239-14.288l-3.768-1.342zm-6.92 13.605c-1.111 1.891-2.717 3.64-4.469 4.492-1.601.779-3.393.868-5.443-.643-2.218-1.635-4.828-5.219-7.388-12.18-2.541-6.912-4.952-16.925-6.936-31.113l-3.962.554c2.006 14.34 4.467 24.66 7.144 31.939 2.659 7.231 5.614 11.695 8.769 14.02 3.324 2.449 6.714 2.408 9.566 1.02 2.702-1.314 4.82-3.768 6.168-6.064l-3.449-2.025zm-27.176-40.922c-2.162 1.181-4.18 3.598-5.914 6.495-1.775 2.962-3.401 6.676-4.678 10.762-2.544 8.142-3.786 18.046-1.81 26.747l3.901-.887c-1.771-7.798-.683-16.952 1.727-24.667 1.2-3.841 2.707-7.255 4.291-9.899 1.623-2.709 3.188-4.378 4.401-5.041l-1.918-3.51zM77.447 168.62c.703 3.093 2.14 6.523 3.385 9.213a141.08 141.08 0 001.67 3.465c.227.458.409.825.543 1.107.16.338.18.405.162.344l3.828-1.162c-.087-.286-.256-.645-.38-.903-.149-.314-.346-.712-.567-1.159-.447-.905-1.021-2.065-1.626-3.371-1.222-2.642-2.51-5.757-3.115-8.421l-3.9.887zm7.136 11.622c-3.204.896-10.597 1.832-17.387 2.551a566.233 566.233 0 01-11.548 1.098l-.754.064-.196.016-.05.004-.012.001h-.004l.16 1.994.162 1.993h.005l.013-.001.051-.004.2-.017.763-.064a593.515 593.515 0 0011.631-1.106c6.674-.707 14.445-1.671 18.043-2.677l-1.077-3.852zM52.9 186.614c1.614 4.741 5.57 11.85 11.387 17.916 5.817 6.069 13.706 11.307 23.2 11.818l.215-3.994c-8.108-.437-15.104-4.934-20.528-10.592-5.426-5.66-9.069-12.268-10.488-16.437l-3.786 1.289zm36.547 25.641c-9.484.417-23.446.999-36.96-1.599-13.521-2.598-26.249-8.312-33.665-20.206l-3.394 2.117c8.259 13.245 22.27 19.32 36.303 22.018 14.038 2.698 28.443 2.082 37.891 1.666l-.175-3.996zM18.822 190.45c-4.966-7.964-7.774-15.274-8.676-22.775-.902-7.504.086-15.342 2.92-24.386l-3.818-1.196c-2.952 9.425-4.06 17.848-3.073 26.06.987 8.216 4.056 16.08 9.253 24.414l3.394-2.117zm-5.757-47.161c1.401-4.473 3.106-8.193 4.823-11.606 1.69-3.357 3.488-6.596 4.905-9.819 2.936-6.681 4.434-13.709 1.797-24.43l-3.884.956c2.403 9.769 1.048 15.896-1.575 21.865-1.364 3.102-3.02 6.062-4.816 9.63-1.767 3.513-3.576 7.447-5.067 12.208l3.817 1.196zm9.132-43.428c2.35.543 6.797 3.087 11.194 8.203 4.338 5.049 8.505 12.47 10.417 22.524l3.93-.748c-2.048-10.764-6.535-18.821-11.314-24.383-4.72-5.493-9.856-8.691-13.326-9.494l-.901 3.898zm25.912 60.624c-1.967-3.388-4.703-13.906-.406-29.747l-3.86-1.047c-4.492 16.559-1.84 28.243.807 32.802l3.459-2.008zm-.406-29.747a82.768 82.768 0 013.284-9.636l-3.703-1.513a86.759 86.759 0 00-3.441 10.102l3.86 1.047zm3.152-9.371c7.562-12.719 11.675-23.952 12.4-26.844l-3.879-.974c-.61 2.428-4.543 13.3-11.96 25.774l3.439 2.044zm12.4-26.844c.272-1.082 2.503-6.504 1.693-13.922-.82-7.514-4.69-16.95-16.018-26.69l-2.608 3.033c10.64 9.15 13.95 17.688 14.65 24.09.71 6.499-1.2 10.935-1.596 12.515l3.88.974zM48.993 53.968c-5.091-4.766-7.799-8.206-9.226-11.639-1.416-3.405-1.665-7.023-1.359-12.383l-3.993-.228c-.316 5.535-.112 9.89 1.658 14.147 1.759 4.229 4.97 8.139 10.187 13.023l2.733-2.92zM38.407 29.946c.32-5.595 2.016-9.81 4.892-13.442 2.92-3.69 7.128-6.866 12.633-10.24l-2.09-3.41c-5.627 3.448-10.316 6.92-13.68 11.167-3.408 4.305-5.384 9.316-5.748 15.697l3.993.228zM52.901 4.324c-.49 4.135-1.02 10.762-.079 17.26.934 6.446 3.381 13.216 9.253 17.038l2.182-3.352c-4.428-2.883-6.603-8.226-7.476-14.258-.865-5.98-.384-12.194.092-16.217l-3.972-.47zm9.174 34.298c5.346 3.48 11.303 5.81 17.378 8.265 6.125 2.476 12.474 5.114 18.94 9.233l2.149-3.373c-6.805-4.336-13.457-7.09-19.59-9.568-6.183-2.5-11.74-4.685-16.695-7.91l-2.182 3.353zM98.392 56.12c18.718 11.926 30.774 18.448 41.332 37.173l3.485-1.965c-11.135-19.747-24.127-26.768-42.667-38.581l-2.15 3.373zm41.332 37.173c7.219 12.802 8.932 21.192 10.966 36.191l3.964-.538c-2.064-15.216-3.868-24.18-11.445-37.618l-3.485 1.965zm10.966 36.191c.991 7.306.724 18.057-1.356 28.565-2.09 10.558-5.94 20.514-11.843 26.538l2.857 2.799c6.715-6.852 10.766-17.728 12.91-28.56 2.154-10.882 2.454-22.079 1.396-29.88l-3.964.538zm-13.199 55.103c-6.293 6.421-11.316 11.234-15.122 14.545-1.903 1.656-3.478 2.915-4.738 3.804-1.304.921-2.127 1.342-2.555 1.472l1.162 3.827c1.074-.326 2.332-1.065 3.7-2.031 1.411-.997 3.098-2.35 5.057-4.054 3.92-3.411 9.027-8.309 15.353-14.764l-2.857-2.799zm-14.274 19.577c2.402-3.614 5.059-9.58 6.755-16.425 1.698-6.853 2.476-14.763.952-22.232l-3.92.799c1.369 6.707.692 13.986-.914 20.471-1.609 6.492-4.104 12.013-6.204 15.173l3.331 2.214zm7.707-38.657c-.567-2.78-1.195-5.936-1.785-8.601a83.998 83.998 0 00-.861-3.588c-.261-.969-.547-1.899-.857-2.525l-3.584 1.776c.113.229.313.805.579 1.79.251.934.527 2.101.817 3.412.581 2.622 1.198 5.724 1.771 8.535l3.92-.799zm-7.179-14.497c-1.404 3.942-4.316 8.742-7.917 12.661l2.946 2.706c3.916-4.262 7.133-9.516 8.739-14.025l-3.768-1.342zm-7.917 12.661c-.916.997-2.334 2.423-4.019 3.273-1.601.807-3.288 1.035-5.115-.048-1.993-1.182-4.483-4.11-6.982-10.58-2.48-6.418-4.866-16.055-6.85-30.244l-3.961.554c2.004 14.338 4.445 24.311 7.08 31.132 2.615 6.769 5.527 10.712 8.672 12.578 3.311 1.964 6.498 1.419 8.957.18 2.374-1.197 4.201-3.092 5.164-4.139l-2.946-2.706zm-25.906-39.078c-2.069 1.131-4.289 3.391-6.332 6.185-2.078 2.842-4.1 6.413-5.713 10.368-3.203 7.853-4.917 17.555-1.809 26.182l3.763-1.356c-2.638-7.325-1.262-15.929 1.75-23.316 1.495-3.666 3.36-6.949 5.238-9.517 1.913-2.616 3.715-4.322 5.021-5.035l-1.918-3.511zm-13.854 42.735c1.022 2.835 2.404 6.153 3.552 8.847.57 1.336 1.103 2.569 1.486 3.467.196.459.357.838.475 1.127.06.144.105.259.139.346.037.097.045.124.04.107l3.828-1.162c-.11-.359-.44-1.137-.803-1.989-.403-.942-.908-2.109-1.486-3.464-1.145-2.689-2.488-5.916-3.468-8.635l-3.763 1.356zm7.067 11.387c-3.204.896-10.597 1.832-17.386 2.551a566.233 566.233 0 01-11.548 1.099l-.755.063-.196.016-.05.004-.012.001h-.003l.16 1.994.162 1.993h.004l.013-.001.052-.004.2-.017.763-.064a565.2 565.2 0 0011.631-1.106c6.674-.707 14.445-1.671 18.042-2.677l-1.077-3.852zm-31.683 6.373c1.587 4.662 5.269 12.191 10.84 18.711 5.56 6.507 13.231 12.267 22.807 12.782l.215-3.994c-8.027-.432-14.77-5.287-19.981-11.386-5.2-6.087-8.648-13.155-10.094-17.403l-3.787 1.29zM17.407 86.492c1.32-1.614 3.087-4.327 4.163-7.33 1.054-2.942 1.604-6.634-.26-9.785l-3.443 2.037c.954 1.613.848 3.857-.063 6.4-.89 2.482-2.395 4.803-3.494 6.147l3.097 2.531zm3.903-17.115c-1.576-2.662-3.712-4.707-5.407-6.067a26.763 26.763 0 00-2.17-1.573 19.945 19.945 0 00-.93-.568c-.003 0-.005-.002-.007-.003l-.002-.001h-.001c0-.001-.001-.001-.964 1.751a405.877 405.877 0 01-.964 1.753l-.002-.001.003.001.027.016a16.345 16.345 0 01.663.408c.461.299 1.111.748 1.844 1.336 1.48 1.188 3.224 2.883 4.467 4.985l3.443-2.037zm-9.481-6.46l.903-1.785h.001l.003.002.003.002.004.002-.007-.004a4.97 4.97 0 01-.355-.218 5.836 5.836 0 01-.904-.75c-.646-.664-1.07-1.445-.985-2.378L6.51 57.42c-.233 2.536 1.007 4.41 2.104 5.536a9.825 9.825 0 002.226 1.699l.054.028.02.01a.482.482 0 01.007.004l.004.002h.001c0 .001.002.001.904-1.784zm-1.337-5.13c.15-1.63.27-2.52.352-2.965l-3.934-.723c-.115.628-.249 1.664-.401 3.322l3.983.367zm-3.144-5.09c-1.707 1.248-3.93 3.237-5.445 5.55C.42 60.511-.71 63.636.973 66.656l3.494-1.948c-.588-1.056-.41-2.45.782-4.27 1.16-1.77 2.977-3.428 4.46-4.513l-2.36-3.229zM.973 66.655c.988 1.772 2.516 3.005 4.01 3.958 1.424.908 3.187 1.77 4.437 2.472 1.386.778 2.394 1.48 3.028 2.272.56.7.882 1.534.728 2.817l3.971.476c.284-2.361-.354-4.265-1.575-5.791-1.146-1.433-2.738-2.445-4.194-3.262-1.593-.894-2.916-1.51-4.244-2.357-1.258-.802-2.148-1.6-2.667-2.533L.973 66.656zm12.189 11.777c.029 2.96.498 5.998.736 7.186l3.922-.785c-.204-1.02-.633-3.798-.659-6.44l-4 .039zm-2.318-23.611c.022-.12.072-.399.053-.71-.01-.16-.107-1.454-1.437-1.876a2.088 2.088 0 00-1.175-.023 2.336 2.336 0 00-.496.199c-.188.1-.353.22-.44.284l2.36 3.229c.079-.058.05-.03-.03.012-.04.021-.167.088-.354.138a1.91 1.91 0 01-1.074-.026 1.947 1.947 0 01-1.15-.98 1.848 1.848 0 01-.197-.717c-.012-.207.02-.335.006-.253l3.934.723zm100.412 51.649c1.633.589 4.118 1.805 6.157 3.477 2.088 1.712 3.333 3.583 3.344 5.457l4-.023c-.021-3.661-2.39-6.545-4.807-8.527-2.466-2.023-5.377-3.441-7.338-4.147l-1.356 3.763zm9.501 8.934c.014 2.442-.611 4.792-1.27 6.572-.326.881-.652 1.6-.894 2.094-.12.246-.219.434-.285.557l-.074.134-.015.027-.002.004v-.001l.001-.001v-.001l1.728 1.008 1.727 1.007.001-.001.001-.002a.02.02 0 01.004-.006l.01-.018.032-.056.107-.195c.089-.165.212-.4.357-.696.291-.593.673-1.437 1.054-2.465.754-2.039 1.535-4.89 1.518-7.984l-4 .023zm-.811 10.393c-1.692-1.067-1.692-1.067-1.693-1.066l-.001.001-.001.003-.005.008-.011.018-.032.053a8.979 8.979 0 00-.377.719 9.86 9.86 0 00-.66 1.882c-.362 1.53-.462 3.775 1.041 5.83l3.229-2.362c-.553-.756-.591-1.644-.378-2.545a5.895 5.895 0 01.546-1.415l.036-.064.004-.006-.002.003-.002.004-.001.002-.001.001c-.001.001-.001.001-1.692-1.066zm-1.739 7.448c.984 1.344 1.631 2.165 2.052 2.643l3.003-2.642c-.298-.339-.859-1.041-1.826-2.363l-3.229 2.362zm3.515-.361c-1.83-.169-4.242-.657-6.146-1.579-1.958-.948-2.828-2.052-2.866-3.26l-3.998.125c.109 3.456 2.685 5.555 5.12 6.735 2.489 1.205 5.418 1.768 7.524 1.962l.366-3.983zm-9.012-4.839c-.033-1.067.319-2.209.986-3.544.703-1.409 1.522-2.617 2.428-4.203.829-1.45 1.675-3.136 1.921-4.954.263-1.937-.169-3.898-1.626-5.778l-3.162 2.45c.792 1.022.945 1.903.824 2.791-.136 1.005-.64 2.125-1.429 3.506-.711 1.244-1.78 2.89-2.535 4.401-.791 1.585-1.469 3.429-1.405 5.456l3.998-.125zm3.854-18.265c-1.336-2.28-2.397-4.884-2.746-5.863l-3.768 1.343c.407 1.141 1.566 3.988 3.063 6.542l3.451-2.022zm3.695 26.108c.055.063-.039-.03-.135-.213a1.855 1.855 0 01-.2-.717 1.946 1.946 0 011.391-2.006c.185-.053.329-.061.375-.063.09-.005.129.003.032-.005l-.366 3.983c.109.01.312.027.524.017.108-.005.302-.02.528-.084.212-.06.635-.215.997-.624.923-1.046.342-2.205.267-2.348a2.95 2.95 0 00-.41-.582l-3.003 2.642z" fill="#7831B2"/></svg>