<svg width="195" height="188" fill="none" xmlns="http://www.w3.org/2000/svg"><path d="M16.134 34.497c-1.886 2.393-2.66 5.514-2.764 8.765-.157 4.942 1.237 10.186 2.641 13.639 7.296 19.566 23.86 64.525 31.75 87.826 7.89 23.302 23.682 24.747 30.593 22.556l96.352-25.777c10.736-2.872 15.219-8.671 16.56-14.496M16.134 34.497c1.384-1.757 3.367-3.122 6.122-3.859L122.424 3.84c6.996-1.872 22.982-1.23 30.961 16.31 7.979 17.538 27.596 69.81 36.408 93.752 1.486 3.208 2.61 8.167 1.473 13.108M16.134 34.497s-17.166 16.045-13.662 29.1c3.503 13.056 37.065 103.824 37.065 103.824 2.432 6.522 11.126 19.362 26.448 18.542 15.321-.82 75.878-18.251 104.241-26.863 5.986-1.823 18.576-10.792 21.04-32.09M17.403 33.374c-1.886 2.394-2.66 5.514-2.764 8.766-.157 4.942 1.237 10.186 2.641 13.639 7.296 19.566 23.86 64.525 31.75 87.826 7.889 23.302 23.682 24.746 30.593 22.556l96.352-25.777c10.736-2.872 15.219-8.671 16.56-14.496M17.403 33.374c1.384-1.756 3.367-3.121 6.121-3.858L123.693 2.718c6.996-1.872 22.982-1.23 30.961 16.31 7.979 17.538 27.596 69.81 36.407 93.752 1.487 3.208 2.611 8.167 1.474 13.108M17.403 33.374S.237 49.42 3.74 62.475C7.244 75.531 40.806 166.3 40.806 166.3c2.432 6.522 11.126 19.361 26.448 18.541 15.321-.82 75.878-18.25 104.24-26.863 5.987-1.822 18.577-10.791 21.041-32.089m-41.365-51.82c7.201 26.835-8.748 54.417-35.625 61.608-26.876 7.19-54.501-8.735-61.703-35.569C46.641 73.272 62.59 45.69 89.467 38.5c26.876-7.19 54.501 8.734 61.703 35.569zm-.928-.534c7.201 26.834-8.748 54.416-35.625 61.607-26.876 7.19-54.501-8.735-61.703-35.57-7.201-26.834 8.748-54.416 35.625-61.606 26.876-7.19 54.501 8.734 61.703 35.569zm-74.858 9.83l26.652-9.7c1.979-.581 5.942-1.058 8.044.879.528.485 1.418.613 1.893.076l6.732-7.62a1.003 1.003 0 011.693.32l9.105 24.943a1 1 0 01-1.174 1.316l-10.07-2.401a1.002 1.002 0 00-1.175 1.316l1.052 2.88a1.001 1.001 0 01-.599 1.283l-29.23 10.637c-.252.092-.53.079-.771-.035l-5.058-2.385a1.004 1.004 0 01-.514-.562l-7.178-19.664a1 1 0 01.598-1.283zm.429-.92l27.057-9.846c2.012-.593 6.038-1.09 8.156.852.526.482 1.41.611 1.886.08l6.896-7.71a1.003 1.003 0 011.689.324l9.115 24.968a1.002 1.002 0 01-1.169 1.317l-10.255-2.373a1.001 1.001 0 00-1.168 1.318l1.056 2.894a1 1 0 01-.598 1.283l-29.684 10.802a1.002 1.002 0 01-.764-.032l-5.118-2.368a1.001 1.001 0 01-.52-.565l-7.178-19.66a1 1 0 01.599-1.283z" stroke="#7831B2" stroke-width="4"/></svg>