<svg width="651" height="864" fill="none" xmlns="http://www.w3.org/2000/svg"><path d="M200.508 86.897l-.931-.66a1.174 1.174 0 00-.129.236l1.06.424zm5.264-7.417l1.061.424a1.142 1.142 0 00-1.992-1.085l.931.66zm-.859 2.146l.932.66c.052-.073.095-.152.129-.236l-1.061-.424zm-5.263 7.418l-1.061-.425a1.142 1.142 0 001.992 1.086l-.931-.661zm-26.767 68.783l-.076 1.14.076-1.14zm121.677 26.458l.902-.701-.902.701zm5.37 47.699l1.061.424-1.061-.424zm-25.208 146.461l-.859.753.859-.753zm41.984 21.958l.236-1.117-.236 1.117zm29.679-23.32l-1.06-.425 1.06.425zm143.453-16.176l1.131-.161-1.131.161zm107.043-70.127l.928.665-.928-.665zM462.265 613.121l-.654-.937.654.937zm-100.178 29.494l.548 1.002-.548-1.002zm130.181-101.318l-1.012.53 1.012-.53zm2.256 35.85l1.06.424-1.06-.424zm73.264-163.85l1.061.425-1.061-.425zM297.237 729.335l1.06.424-1.06-.424zm229.858-257.653l-.432-1.057.432 1.057zm-42.59 30.947l1.06.425-1.06-.425zM270.271 323.372l-1.102-.302 1.102.302zm12.398-54.527l-1.06-.424 1.06.424zm91.579-17.132l1.061.425-1.061-.425zm186.298 189.592l1.06.425-1.06-.425zm83.641-96.431l-1.06-.425v.001l1.06.424zm-46.446-56.243l-.928-.665a1.084 1.084 0 00-.132.241l1.06.424zm-.859 2.146l-1.06-.424a1.142 1.142 0 001.988 1.089l-.928-.665zm46.451 56.231l-1.06-.424a1.141 1.141 0 102.121.848l-1.061-.424zM173.744 155.68l1.06.425a1.144 1.144 0 00-.984-1.564l-.076 1.139zM89.908 93.784l.941-.647a1.142 1.142 0 00-2.002.222l1.06.425zm-.86 2.146l-1.06-.425c-.142.355-.097.757.119 1.071l.942-.646zm83.837 61.896l-.076 1.14c.494.033.953-.256 1.136-.715l-1.06-.425zm122.534 24.31l1.061.425c.151-.377.09-.805-.159-1.126l-.902.701zm-121.677-26.458l.076-1.139a1.143 1.143 0 00-1.137.715l1.061.424zm-.859 2.147l-1.061-.425a1.144 1.144 0 00.985 1.564l.076-1.139zm121.678 26.457l-.902.701a1.142 1.142 0 001.962-.276l-1.06-.425zm6.231 45.553l1.06.425-1.06-.425zm-5.37-47.698l.902-.701a1.144 1.144 0 00-1.963.276l1.061.425zm-.859 2.146l-1.061-.425c-.15.377-.09.806.159 1.126l.902-.701zm5.37 47.699l-1.061-.425a1.143 1.143 0 002.121.849l-1.06-.424zm118.62 18.928l1.061.425a1.142 1.142 0 00-.192-1.167l-.869.742zm-43.445-1.344l1.06.424-1.06-.424zm-.853 2.131l-1.061-.425a1.143 1.143 0 002.121.849l-1.06-.424zm43.44 1.359l-.869.742a1.143 1.143 0 001.929-.317l-1.06-.425zm180.047 35.575l1.06.425a1.142 1.142 0 00-1.988-1.09l.928.665zm-107.043 70.127l1.13-.161a1.142 1.142 0 00-2.191-.263l1.061.424zm-.859 2.146l-1.061-.424a1.145 1.145 0 00-.07.585l1.131-.161zm107.043-70.127l.928.666a1.13 1.13 0 00.132-.241l-1.06-.425zm-20.377 112.07l-.419-1.062a1.14 1.14 0 00-.642.638l1.061.424zm67.68-57.971l1.061.425a1.143 1.143 0 00-2.121-.849l1.06.424zM283.53 266.698l1.06.424-1.06-.424zm17.242-36.816l1.061.425a1.142 1.142 0 10-2.121-.849l1.06.424zm-.84 2.101l-1.061-.425v.001l1.061.424zm-17.238 36.803l-1.061-.424a1.143 1.143 0 002.121.849l-1.06-.425zm208.001 89.975l1.061.424a1.15 1.15 0 00.07-.586l-1.131.162zm-19.124-48.95l.943-.643a1.142 1.142 0 00-2.004.219l1.061.424zm-.859 2.146l-1.061-.424c-.141.353-.097.753.117 1.067l.944-.643zm19.124 48.95l-1.13.161a1.14 1.14 0 002.191.263l-1.061-.424zm-212.493-69.666l1.06.424c.042-.105.069-.216.078-.329l-1.138-.095zm6.186-24.543l1.06.425a1.142 1.142 0 10-2.121-.849l1.061.424zm91.579-17.133l1.061.424a1.143 1.143 0 00-2.121-.849l1.06.425zm-28.711 127.49l-1.061-.425a1.143 1.143 0 002.121.849l-1.06-.424zm27.852-125.344l-1.06-.425v.001l1.06.424zm194.4 159.439l-1.061-.424 1.061.424zm7.859-8.303l1.06.424a1.142 1.142 0 00-1.48-1.487l.42 1.063zm-.859 2.146l.419 1.062c.292-.115.524-.346.641-.638l-1.06-.424zm-7.859 8.304l-1.061-.425a1.143 1.143 0 002.121.849l-1.06-.424zm-296.659-92.072l1.06.424c.016-.04.03-.08.041-.122l-1.101-.302zm6.212-29.985l1.139.094a1.142 1.142 0 00-2.199-.519l1.06.425zm-.859 2.146l-1.06-.425a1.176 1.176 0 00-.078.33l1.138.095zm-6.212 29.985l-1.101-.303a1.143 1.143 0 002.161.727l-1.06-.424zm291.136 115.786l-1.06-.424 1.06.424zm7.241-28.002l1.06.424a1.141 1.141 0 10-2.121-.848l1.061.424zm-.857 2.141l1.06.424-1.06-.424zm-7.235 27.988l-1.06-.424a1.142 1.142 0 102.12.849l-1.06-.425zM270.96 321.84l1.061.425c.016-.04.029-.081.041-.122l-1.102-.303zm.169-.615l1.102.303a1.143 1.143 0 00-2.162-.727l1.06.424zm-.859 2.146l-1.06-.424c-.016.039-.03.08-.041.121l1.101.303zm-.169.616l-1.101-.303a1.142 1.142 0 002.162.727l-1.061-.424zm257.855 145.547l-.431-1.057a1.14 1.14 0 00-.629.633l1.06.424zm33.451-30.377l1.06.425a1.141 1.141 0 10-2.12-.849l1.06.424zm-.859 2.146l1.06.425-1.06-.425zm-33.45 30.377l-1.061-.424a1.142 1.142 0 001.492 1.482l-.431-1.058zm-261.13-126.821l1.137.113a1.143 1.143 0 00-2.197-.538l1.06.425zm-.859 2.146l-1.06-.424c-.04.099-.066.204-.076.311l1.136.113zm9.615 31.44l-.859.753.859-.753zm42.843 19.81l.235-1.118a1.142 1.142 0 00-1.295.693l1.06.425zm-.859 2.146l-1.06-.425a1.142 1.142 0 00.825 1.542l.235-1.117zm29.679-23.321l1.06.425h.001l-1.061-.425zm-28.819 21.177l1.06.424a1.14 1.14 0 00-.825-1.542l-.235 1.118zm-.859 2.146l-.235 1.117a1.142 1.142 0 001.296-.693l-1.061-.424zm168.653 100.079l-1.06-.424 1.06.424zm42.59-30.946l1.061.424a1.144 1.144 0 00-1.493-1.482l.432 1.058zm-.859 2.146l.432 1.057a1.14 1.14 0 00.629-.633l-1.061-.424zm-42.59 30.947l-1.06-.425a1.141 1.141 0 102.12.849l-1.06-.424zm8.626 36.521l1.061.424a1.141 1.141 0 00-.049-.954l-1.012.53zm-7.765-38.662l1.06.424a1.142 1.142 0 00-2.121-.848l1.061.424zm-.857 2.14l1.061.424-1.061-.424zm7.763 38.668l-1.012.53a1.144 1.144 0 002.073-.106l-1.061-.424zm3.115 33.702l1.061.425-1.061-.425zm-2.255-35.849l1.012-.53a1.142 1.142 0 00-2.072.106l1.06.424zm-.859 2.146l-1.06-.424c-.124.309-.107.658.048.954l1.012-.53zm2.256 35.849l-1.061-.424a1.143 1.143 0 002.121.849l-1.06-.425zm-31.403 33.828l-.654-.936a1.138 1.138 0 00-.407.512l1.061.424zm32.251-35.955l1.061.425a1.143 1.143 0 00-2.121-.85l1.06.425zm-.851 2.128l-1.061-.425 1.061.425zm-32.259 35.973l-1.061-.424a1.143 1.143 0 001.715 1.361l-.654-.937zm-100.177 28.659l-.476-1.038.476 1.038zm101.037-30.803l1.061.424a1.143 1.143 0 00-1.715-1.361l.654.937zm-.859 2.146l.654.936c.183-.127.324-.305.407-.512l-1.061-.424zM298.095 727.188l-1.06-.425 1.06.425zm-.859 2.146l-1.06-.425a1.143 1.143 0 002.121.849l-1.061-.424zm-6.437 52.247l1.061.424a1.14 1.14 0 00.061-.638l-1.122.214zm7.274-54.331l1.06.424a1.143 1.143 0 00-2.121-.849l1.061.425zm-.835 2.084l1.061.425-1.061-.425zm-7.297 54.393l-1.122.214a1.143 1.143 0 002.182.21l-1.06-.424zM203.933 86.855l-1.06-.424a1.142 1.142 0 00.579 1.46l.481-1.036zm60.099 168.103l-1.061-.423 1.061.423zm22.437-31.531l-1.031-.491-.029.066 1.06.425zM204.792 84.71l.481-1.036a1.142 1.142 0 00-1.541.611l1.06.425zm59.705 169.143l1.061.425v-.002l-1.061-.423zm21.578-29.385l1.06.424a1.142 1.142 0 00-2.091-.916l1.031.492zm-.859 2.146l1.031.491.029-.067-1.06-.424zm-21.578 29.385l-1.061-.422a1.142 1.142 0 002.122.847l-1.061-.425zm.863-2.145l1.061.423a1.142 1.142 0 00-2.121-.847l1.06.424zm3.347 61.724l1.1-.306a1.142 1.142 0 00-2.161-.119l1.061.425zm-.859 2.146l-1.061-.424a1.139 1.139 0 00-.04.729l1.101-.305zM263.642 256l-1.06-.424-.001.001 1.061.423zm151.006 3.544l.845-.768-.845.768zm.262-5.442l-.767-.846.767.846zm4.876-4.426l.767.846-.767-.846zm5.442.263l.846-.768-.846.768zm49.616 54.645l-.846.768.846-.768zm.724 4.025l1.06.425-1.06-.425zm-.987 1.417l.768.846-.768-.846zm-4.876 4.426l.768.846-.768-.846zm-5.442-.263l-.846.768.846-.768zm-38.652-66.839l-.706.898.706-.898zm-4.88.103l.742.868-.742-.868zm-.131.185l1.06.424-1.06-.424zm1.132 1.091l-.189-1.126.189 1.126zm2.181.266l-.456 1.048.456-1.048zm1.919-.569l-1.06-.426v.002l1.06.424zm.012-.03l1.06.426.001-.002-1.061-.424zm-6.829.607l-.768-.846.768.846zm-3.164 2.872l.768.846-.768-.846zm-.129.187l-1.061-.425 1.061.425zm.809.562l-.767-.846.767.846zm3.164-2.872l.768.846-.768-.846zm.13-.187l1.06.425-1.06-.425zm21.071 14.538l-.846.768.846-.768zm-13.694-15.082l.845-.768-.845.768zm-1.735.312l1.061.425-1.061-.425zm.196 1.085l-.846.768.846-.768zm13.694 15.082l.846-.767-.846.767zm1.734-.312l-1.06-.424 1.06.424zm-26.308-11.815l-1.06-.424 1.06.424zm.339.2l1.061.424-1.061-.424zm-.168.421l-1.06-.425 1.06.425zm-.128.188l-.793-.823.793.823zm.287 2.699l-.962.616.962-.616zm-1.188-1.363l1.06.425v-.001l-1.06-.424zm-.099 2.596l-1.089.343 1.089-.343zm1.44-.114l-1.06-.424 1.06.424zm24.417 8.013l.747.864-.747-.864zm-9.06 7.842l-.748-.863.748.863zm-.145.204l1.06.425-1.06-.425zm.839.598l-.747-.863.747.863zm9.06-7.842l-.748-.864.748.864zm.145-.204l-1.06-.424 1.06.424zm21.41 20.662l-.846.768.846-.768zm-19.482-21.457l.846-.767-.846.767zm-1.734.313l1.06.424-1.06-.424zm.195 1.085l-.846.767.846-.767zm19.482 21.456l-.846.768.846-.768zm1.734-.312l-1.06-.425 1.06.425zm-45.505-29.732l-.846.768.846-.768zm13.467 14.833l.846-.768-.846.768zm.195 1.084l-1.06-.424 1.06.424zm-1.734.313l.846-.768-.846.768zm-13.467-14.833l-.846.768.846-.768zm-.196-1.085l1.061.425-1.061-.425zm60.378 43.017l-.845.768.845-.768zm-11.778-12.972l.846-.767-.846.767zm-1.734.313l1.06.424-1.06-.424zm.195 1.084l-.845.768.845-.768zm11.778 12.972l-.845.768.845-.768zm1.735-.312l-1.061-.424 1.061.424zm-43.816-27.868l.845-.768-.845.768zm19.481 21.457l-.845.768.845-.768zm.196 1.084l1.06.425-1.06-.425zm-1.735.313l.846-.768-.846.768zm-19.481-21.457l-.846.768.846-.768zm-.196-1.084l1.061.424-1.061-.424zm21.75 21.542l-.747-.863.747.863zm9.06-7.842l.748.863-.748-.863zm.84.598l-1.061-.425 1.061.425zm-.146.204l.748.863-.748-.863zm-9.059 7.842l-.748-.864.748.864zm-.84-.598l-1.06-.424 1.06.424zm25.006 6.634l1.089-.344-1.089.344zm-.099 2.595l-1.06-.424 1.06.424zm-.858 2.145l-1.06-.424a1.143 1.143 0 002.121.848l-1.061-.424zm-.33-3.508l-.961.616.961-.616zm-.153-1.119l-1.06-.424 1.06.424zm1.344 2.484l1.061.425a1.143 1.143 0 00-2.121-.849l1.06.424zm-.901 1.338l-.793-.823.793.823zm-.129.188l1.061.424-1.061-.424zm-.168.42l-1.061-.424 1.061.424zm.339.2l1.061.425-1.061-.425zm-4.919 3.618l-.768-.846.768.846zm3.164-2.872l.768.846-.768-.846zm.81.562l-1.061-.424 1.061.424zm-.13.187l.768.846-.768-.846zm-3.164 2.872l-.768-.846.768.846zm-.81-.562l-1.06-.425 1.06.425zm-17.841-14.072l.845-.768-.845.768zm12.005 13.221l.845-.767-.845.767zm.195 1.085l1.06.424-1.06-.424zm-1.734.312l.845-.767-.845.767zm-12.005-13.221l-.846.767.846-.767zm-.196-1.085l-1.06-.424 1.06.424zm15.49 14.334l-.456 1.048.456-1.048zm2.181.266l.189 1.127-.189-1.127zm1.132 1.091l1.06.425-1.06-.425zm-.131.186l.742.868-.742-.868zm-4.88.103l.706-.899-.706.899zm-.234-1.047l1.061.425v-.001l-1.061-.424zm.012-.03l-1.06-.424v.001l1.06.423zM43.823 55.44l1.06.424-1.06-.424zm1.25-15.533l1.12-.227-1.12.227zM21.822 22.413l.09 1.139-.09-1.14zM2.877 36.9l-1.09-.34 1.09.34zm-.35 11.064l-1.132.159.007.046.01.045 1.115-.25zm16.851 17.788l-.31 1.1h.005l.305-1.1zm.21.059l-.305 1.1.004.001.301-1.102zm3.092-45.546l-.09-1.139a1.142 1.142 0 00-.97.715l1.06.424zM45.932 37.76l1.06.424a1.15 1.15 0 00.06-.651l-1.12.227zm-.86 2.146l-1.119.227a1.142 1.142 0 002.18.197l-1.06-.424zM21.823 22.41l-1.06-.424a1.142 1.142 0 001.15 1.563l-.09-1.139zm.86-2.145l1.06.424a1.142 1.142 0 00-1.15-1.563l.09 1.139zm-.86 2.146l.09 1.139c.434-.034.81-.311.971-.714l-1.06-.425zM3.738 34.753l1.06.425.03-.084-1.09-.34zm-.86 2.146l-1.09-.34a1.142 1.142 0 002.151.765l-1.06-.425zm29.424-6.668l1.06.424a1.142 1.142 0 00-1.851-1.248l.79.824zm-8.05 7.732l-.792-.824a1.142 1.142 0 00-.269.4l1.06.424zm-.86 2.146l-1.06-.424a1.142 1.142 0 001.852 1.248l-.791-.824zm8.05-7.732l.792.824a1.15 1.15 0 00.27-.4l-1.061-.424zm14.493 5.384l1.12-.227a1.142 1.142 0 00-2.18-.198l1.06.425zm-1.25 15.533l-1.06-.425 1.06.425zm-.855 2.137l-1.06-.424a1.142 1.142 0 002.12.848l-1.06-.424zm1.246-15.524l-1.06-.425a1.142 1.142 0 00-.06.652l1.12-.227zm2.896 3.952l.825-.79a1.143 1.143 0 00-1.885.365l1.06.425zm42.622 44.464l1.06.425a1.142 1.142 0 00-.235-1.215l-.825.79zm-.859 2.146l-.824.79a1.142 1.142 0 001.885-.365l-1.06-.425zM47.112 46.005l-1.06-.425a1.14 1.14 0 00.236 1.215l.824-.79zm-43.724-.188l1.06.425c.075-.185.1-.386.071-.583l-1.13.158zm.35-11.064l1.09.34a1.142 1.142 0 00-2.15-.764l1.06.424zM2.88 36.9l-1.06-.424a1.14 1.14 0 00-.03.084l1.09.34zm-.35 11.064l-1.132.16a1.142 1.142 0 002.192.265l-1.06-.425zm42.151 5.33l1.06.424a1.142 1.142 0 00-2.12-.85l1.06.425zm-24.235 10.37l.301-1.102a1.142 1.142 0 00-1.361.677l1.06.425zm-.859 2.146l-1.06-.424a1.142 1.142 0 00.759 1.526l.301-1.102zm24.235-10.37l1.06.424-1.06-.425zm40.26 38.918l1.061.424c.17-.425.07-.91-.254-1.233l-.806.809zM44.276 54.669l.806-.808a1.142 1.142 0 00-1.867.384l1.06.424zm-.859 2.147l-1.06-.425c-.17.425-.07.91.254 1.233l.806-.809zm39.808 39.687l-.806.809a1.142 1.142 0 001.866-.385l-1.06-.424zM20.45 63.663l1.06.424c.081-.203.103-.425.062-.64l-1.122.215zM3.388 45.815l.265-1.111a1.142 1.142 0 00-1.325.687l1.06.424zm-.859 2.146l-1.06-.424a1.142 1.142 0 00.795 1.535l.265-1.11zm17.062 17.846l-1.122.215a1.142 1.142 0 002.182.21l-1.06-.425zm.645-2.202l1.06.425a1.143 1.143 0 00-.75-1.524l-.31 1.1zM3.384 45.818l1.115-.25a1.142 1.142 0 00-2.175-.174l1.06.424zm-.859 2.146l-1.06-.424a1.142 1.142 0 00-.054.674l1.114-.25zm16.852 17.788l-.31 1.1a1.142 1.142 0 001.37-.675l-1.06-.425zm1.076-2.089l1.06.425a1.143 1.143 0 00-.754-1.525l-.306 1.1zm-.21-.058l.306-1.1a1.142 1.142 0 00-1.366.675l1.06.425zm-.859 2.146l-1.06-.425a1.142 1.142 0 00.755 1.526l.305-1.101zm.21.058l-.305 1.1a1.142 1.142 0 001.366-.675l-1.06-.425zm72.023 22.917l1.06.424a1.142 1.142 0 00-1.836-1.262l.776.838zm-6.515 6.033l-.776-.838a1.143 1.143 0 00-.284.413l1.06.425zm-.859 2.146l-1.06-.425a1.142 1.142 0 001.836 1.263l-.776-.838zm6.515-6.033l.776.838c.125-.115.222-.256.285-.413l-1.06-.425zm14.823-84.885l-.455-1.047.455 1.047zm.135 36.738l-.597.974.597-.974zm24.3 1.624l.555.998.32-.178.157-.33-1.032-.49zm6.946-10.4l.442 1.053-.442-1.053zm-7.896-23.477l.742-.868-.742.868zm.86-2.147l1.06.424a1.142 1.142 0 00-.318-1.292l-.742.868zM106.441 3.84l-.455-1.047a1.14 1.14 0 00-.605.623l1.06.424zm-.859 2.146l-1.06-.424a1.143 1.143 0 001.516 1.472l-.456-1.048zm23.485 4.485l-.742.868a1.142 1.142 0 001.802-.444l-1.06-.424zm.855-2.145l.742-.868a1.142 1.142 0 00-1.802.444l1.06.424zm7.897 23.477l-.441-1.054a1.138 1.138 0 00-.619.63l1.06.424zm-.859 2.146l-1.06-.425a1.142 1.142 0 001.502 1.478l-.442-1.053zm-7.897-23.477l-1.06-.424c-.182.454-.054.975.318 1.293l.742-.869zm-22.621-6.63l1.06.424a1.143 1.143 0 00-1.516-1.472l.456 1.048zM95.359 14.397l1.06.424-1.06-.424zm-.856 2.137l-1.06-.424a1.142 1.142 0 002.12.849l-1.06-.425zm11.08-10.546l.455 1.047a1.14 1.14 0 00.605-.623l-1.06-.424zm50.935 40.274l1.061.424a1.143 1.143 0 00-.409-1.362l-.652.938zM131.216 26.29l.902-.7a1.141 1.141 0 00-1.962.276l1.06.424zm-.859 2.146l-1.06-.424c-.151.376-.09.805.158 1.125l.902-.7zm25.302 19.972l-.651.938a1.142 1.142 0 001.712-.513l-1.061-.425zM95.356 14.396l1.06.424a1.142 1.142 0 10-2.12-.848l1.06.424zm-1.292 4.927l1.06.424a1.14 1.14 0 00.07-.258l-1.13-.166zm17.649 9.456l1.061.424a1.142 1.142 0 00-.416-1.367l-.645.943zm-8.881-6.07l.644-.943a1.142 1.142 0 00-1.705.518l1.061.425zm-.859 2.146l-1.061-.425a1.142 1.142 0 00.416 1.368l.645-.943zm8.881 6.07l-.644.943a1.142 1.142 0 001.705-.519l-1.061-.424zm20.017 11.276l-1.032-.49a.825.825 0 00-.028.065l1.06.425zm6.946-10.4l1.061.424a1.143 1.143 0 00-1.502-1.477l.441 1.053zm-.859 2.146l.442 1.054c.282-.119.505-.345.619-.63l-1.061-.424zm-6.946 10.4l-1.06-.425a1.14 1.14 0 002.092.915l-1.032-.49zm-5.18-7.399l.653-.937a1.143 1.143 0 00-1.714.513l1.061.424zm17.272 12.026l1.061.424a1.143 1.143 0 00-.408-1.362l-.653.938zm-.859 2.146l-.652.937a1.142 1.142 0 001.713-.513l-1.061-.424zm-17.272-12.026l-1.061-.424a1.143 1.143 0 00.408 1.361l.653-.937zm-29.909-19.77l1.13.166a1.142 1.142 0 00-2.19-.591l1.06.425zm12.511 21.254l1.06.425a1.142 1.142 0 00-.464-1.399l-.596.974zm99.654 39.273l1.061.425a1.142 1.142 0 00-.428-1.375l-.633.95zM156.52 46.264l.652-.938a1.142 1.142 0 00-1.713.513l1.061.425zm-.859 2.146l-1.061-.425a1.143 1.143 0 00.409 1.362l.652-.937zm49.709 33.588l-.633.95a1.142 1.142 0 001.694-.526l-1.061-.424zm-98.794-41.422l.596-.974a1.141 1.141 0 00-1.656.55l1.06.424zm24.301 1.624l1.06.425a1.143 1.143 0 00-1.615-1.423l.555.998zm-.859 2.146l.555.999a1.14 1.14 0 00.505-.574l-1.06-.425zm-24.301-1.623l-1.06-.425a1.142 1.142 0 00.464 1.399l.596-.975zm36.385 6.25l.623-.958a1.143 1.143 0 00-1.683.533l1.06.425zm58.86 38.296l1.061.424a1.143 1.143 0 00-.438-1.382l-.623.958zm-.859 2.146l-.622.957a1.14 1.14 0 001.683-.533l-1.061-.424zm-58.86-38.296l-1.06-.425a1.141 1.141 0 00.437 1.382l.623-.957zm122.431 272.735l-1.081-.368-.038.112-.015.119 1.134.137zm8.72 8.038l1.084.36.043-.13.011-.137-1.138-.093zm-4.628 13.933l1.084.36-1.084-.36zm-.2.603l-.138 1.134.919.112.299-.876-1.08-.37zm-4.208-.51l-1.141.043.037.973.967.118.137-1.134zm-.565-14.804l-1.134-.138-.011.09.004.091 1.141-.043zm1.628-9.448l.137-1.134a1.142 1.142 0 00-1.218.766l1.081.368zm9.28 1.126l1.138.093a1.141 1.141 0 00-1.001-1.226l-.137 1.133zm-.561 6.913l1.081.368a1.13 1.13 0 00.058-.276l-1.139-.092zm-.745 2.188l-1.139-.092a1.142 1.142 0 002.22.46l-1.081-.368zm.56-6.912l-1.081-.368c-.03.089-.049.182-.057.276l1.138.092zm-9.411 3.945l1.081.368c.025-.075.043-.152.052-.231l-1.133-.137zm.881-7.26l1.133.138a1.141 1.141 0 00-2.215-.506l1.082.368zm-.746 2.188l-1.081-.368a1.139 1.139 0 00-.053.231l1.134.137zm-.881 7.26l-1.134-.138a1.142 1.142 0 002.215.506l-1.081-.368zm.744-2.186l.092-1.139a1.144 1.144 0 00-1.174.77l1.082.369zm9.6.778l1.081.369a1.144 1.144 0 00-.988-1.507l-.093 1.138zm-.745 2.188l-.093 1.139a1.143 1.143 0 001.174-.77l-1.081-.369zm-9.601-.778l-1.081-.369a1.141 1.141 0 00.989 1.507l.092-1.138zm8.795 3.238l1.084.36a1.142 1.142 0 00-2.165-.729l1.081.369zm1.344-4.044l1.084.36a1.143 1.143 0 00-2.165-.729l1.081.369zm-.746 2.188l-1.081-.369-.003.009 1.084.36zm-1.343 4.044l-1.081-.369-.003.009 1.084.36zm2.294-6.835l1.084.36a1.142 1.142 0 00-2.165-.728l1.081.368zm-4.628 13.933l1.081.368.003-.008-1.084-.36zm-.745 2.188l-1.084-.36a1.143 1.143 0 002.165.728l-1.081-.368zm4.627-13.933l-1.081-.368-.003.008 1.084.36zm-2.54 7.701l1.081.368.003-.008-1.084-.36zm1.741-5.242l1.084.36a1.141 1.141 0 00-2.165-.728l1.081.368zm-.745 2.188l-1.081-.368-.003.008 1.084.36zm-1.741 5.242l-1.084-.36a1.142 1.142 0 002.165.728l-1.081-.368zm3.831-11.475l1.084.36a1.142 1.142 0 00-2.165-.728l1.081.368zm-4.628 13.933l1.082.368.002-.008-1.084-.36zm-.745 2.188l-1.084-.36a1.141 1.141 0 002.165.728l-1.081-.368zm4.628-13.933l-1.081-.368-.003.008 1.084.36zm-8.09 11.235l1.081.368a1.13 1.13 0 00.061-.412l-1.142.044zm-.565-14.804l1.141-.044a1.14 1.14 0 00-2.222-.325l1.081.369zm-.745 2.188l-1.082-.369a1.157 1.157 0 00-.06.412l1.142-.043zm.565 14.804l-1.142.043a1.143 1.143 0 002.223.325l-1.081-.368zm5.152-2.282l1.081.368.003-.008-1.084-.36zm1.343-4.044l1.084.36a1.142 1.142 0 00-2.165-.728l1.081.368zm-.746 2.188l-1.081-.368-.003.008 1.084.36zm-1.343 4.044l-1.084-.36a1.142 1.142 0 002.165.728l-1.081-.368zm.55-1.585l1.081.368a1.143 1.143 0 00-.944-1.502l-.137 1.134zm-4.208-.511l.138-1.133a1.141 1.141 0 00-1.219.765l1.081.368zm-.745 2.188l-1.082-.368a1.143 1.143 0 00.944 1.502l.138-1.134zm4.207.511l-.138 1.134a1.141 1.141 0 001.219-.766l-1.081-.368zm35.05 481.294l1.047-.457-1.047.457zm-11.726-26.843l-1.047.457 1.047-.457zm-.009-.595l-1.061-.424 1.061.424zm.407-.42l.457 1.047-.457-1.047zm.955-.417l.457 1.047 1.047-.457-.458-1.047-1.046.457zm-5.21-11.926l-1.047.457 1.047-.457zm-.009-.595l-1.06-.424 1.06.424zm.407-.419l-.457-1.047.457 1.047zm6.899-3.014l.457 1.047-.457-1.047zm1.014.398l-1.046.457 1.046-.457zm5.21 11.926l-1.047.457.457 1.047 1.047-.457-.457-1.047zm.956-.418l.457 1.047-.457-1.047zm1.015.398l-1.047.457 1.047-.457zm11.726 26.844l1.047-.457-1.047.457zm.009.594l-1.06-.424 1.06.424zm-.407.42l.457 1.047-.457-1.047zm-1.621.708l-.457-1.046-1.047.457.457 1.047 1.047-.458zm11.599 26.553l1.047-.457-1.047.457zm.009.594l-1.06-.424 1.06.424zm-.407.42l-.457-1.046.457 1.046zm-1.288.563l-.457-1.047-1.355.592.915 1.162.897-.707zm4.717 5.991l.898-.707-.898.707zm.11.764l1.061.424-1.061-.424zm-.407.419l.458 1.047-.458-1.047zm-5.191 2.267l-.457-1.047.457 1.047zm-1.064-.555l-1.12.225 1.12-.225zm-1.49-7.434l1.12-.224-.278-1.39-1.299.567.457 1.047zm-.956.418l-.457-1.047.457 1.047zm-1.014-.398l-1.047.457 1.047-.457zm-11.599-26.552l1.046-.458-.457-1.046-1.046.457.457 1.047zm-1.62.707l-.457-1.047.457 1.047zm-8.123-46.84l.024-1.142-.024 1.142zm.488.187l.746-.865-.746.865zm.075.595l1.06.424-1.06-.424zm-.508 1.27l-1.061-.424 1.061.424zm-.642.15l.425-1.061-.425 1.061zm-.368-.559l1.06.425-1.06-.425zm.508-1.269l-1.061-.425 1.061.425zm-6.467 2.572l.458 1.046-.458-1.046zm4.781-2.088l-.457-1.047.457 1.047zm1.078 1.045l1.061.424-1.061-.424zm-.428.442l-.458-1.047.458 1.047zm-4.781 2.088l.457 1.047-.457-1.047zm-1.078-1.045l-1.061-.425 1.061.425zm8.82-1.121l1.047-.458-1.047.458zm4.284 9.807l-1.046.458 1.046-.458zm.01.635l-1.06-.424 1.06.424zm-1.518.024l-1.047.457 1.047-.457zm-4.285-9.808l1.047-.457-1.047.457zm-.009-.635l1.06.425-1.06-.425zm-8.446 3.356l-1.061-.425a1.143 1.143 0 002.121.849l-1.06-.424zm.859-2.147l-1.061-.424 1.061.424zm.184.137l-1.061-.424 1.061.424zm-.513 1.281l1.061.424-1.061-.424zm-.391.503l.854.758-.854-.758zm.664-1.663l1.142.041-1.142-.041zm.055-.259l1.061.424a1.142 1.142 0 00-2.121-.848l1.06.424zm-.859 2.146l1.061.424-1.061-.424zm.237.028l-1.061-.425 1.061.425zm.504-1.26l1.06.425-1.06-.425zm14.929 7.494l-.023 1.142.023-1.142zm.489.187l.745-.865-.745.865zm.074.594l-1.06-.424 1.06.424zm-.508 1.271l1.06.424-1.06-.424zm-.642.149l.425-1.06-.425 1.06zm-.368-.558l1.06.424-1.06-.424zm.508-1.27l-1.061-.424 1.061.424zm-.677 1.697l-1.06-.424 1.06.424zm.471-1.177l1.061.424-1.061-.424zm-.486-.472l.457 1.047-.457-1.047zm-.194.2l-1.06-.425 1.06.425zm-.471 1.177l1.06.425-1.06-.425zm.487.472l-.458-1.047.458 1.047zm-8.414 1.528l-1.046.457 1.046-.457zm-4.284-9.808l1.047-.457-1.047.457zm-1.518.024l-1.061-.424 1.061.424zm.009.635l1.047-.457-1.047.457zm4.285 9.808l-1.047.457 1.047-.457zm1.518-.024l1.061.425-1.061-.425zm6.625-3.157l-.457-1.047.457 1.047zm-6.193 2.704l.458 1.047-.458-1.047zm-.428.443l-1.061-.425 1.061.425zm1.078 1.045l.457 1.046-.457-1.046zm6.193-2.705l-.457-1.047.457 1.047zm.428-.442l1.061.424-1.061-.424zm-8.377 3.8l-1.06-.424 1.06.424zm.472-1.179l1.06.425-1.06-.425zm-.486-.471l.457 1.047-.457-1.047zm-.193.2l1.06.424-1.06-.424zm-.472 1.178l-1.06-.424 1.06.424zm.486.471l.457 1.047-.457-1.047zm-.693.047l-1.061-.425 1.061.425zm.512-1.281l1.061.425-1.061-.425zm-.184-.137l1.06.425-1.06-.425zm-.859 2.146l-1.06-.424a1.142 1.142 0 102.121.849l-1.061-.425zm.14-.226l-.854-.759.854.759zm.718-1.918l1.061.424a1.143 1.143 0 00-2.121-.849l1.06.425zm-.054.259l1.141.041-1.141-.041zm-.064.655l1.06.425-1.06-.425zm-.504 1.26l-1.061-.425 1.061.425zm-.237-.028l-1.06-.425v.001l1.06.424zm24.092 19.894l1.047-.457-1.047.457zm-10.801-24.725l1.047-.457-1.047.457zm-1.518.024l1.06.424-1.06-.424zm.01.635l1.046-.457-1.046.457zm10.8 24.725l-1.046.457 1.046-.457zm1.519-.023l1.06.424-1.06-.424zm-22.447-20.281l1.047-.457-1.047.457zm10.801 24.726l1.047-.458-1.047.458zm.01.635l1.06.424-1.06-.424zm-1.519.023l-1.046.458 1.046-.458zm-10.8-24.725l1.046-.457-1.046.457zm-.01-.635l1.06.424-1.06-.424zm23.241 22.679l-1.06-.424a1.142 1.142 0 102.121.848l-1.061-.424zm.859-2.146l1.061.424-1.061-.424zm-.236-.028l1.06.424-1.06-.424zm-.504 1.259l-1.061-.424 1.061.424zm-.064.656l-1.141-.041 1.141.041zm.667-1.662l-.854-.758.854.758zm.139-.225l1.061.424a1.143 1.143 0 00-2.121-.849l1.06.425zm-.858 2.145l-1.061-.424 1.061.424zm-.185-.137l-1.06-.424 1.06.424zm.513-1.28l1.06.425-1.06-.425zm-1.796 1.137l-1.06-.424 1.06.424zm.202-.504l1.06.424-1.06-.424zm.328-.338l-.457-1.047.457 1.047zm.825.799l1.06.425-1.06-.425zm-.202.505l-1.06-.425 1.06.425zm-.328.338l.457 1.046-.457-1.046zm1.952 4.129l1.047-.457-1.047.457zm-1.688-3.865l-1.047.457 1.047-.457zm-1.519.023l1.061.425-1.061-.425zm.01.636l-1.047.457 1.047-.457zm1.689 3.865l1.046-.457-1.046.457zm1.518-.024l-1.06-.424 1.06.424zm-9.162-3.388l-.458-1.046.458 1.046zm4.863-2.123l.457 1.046-.457-1.046zm1.078 1.045l1.06.424-1.06-.424zm-.429.442l-.457-1.047.457 1.047zm-4.863 2.124l.457 1.046-.457-1.046zm-1.078-1.045l1.06.424-1.06-.424zm-1.793 1.139l1.061.425-1.061-.425zm.202-.505l-1.06-.424 1.06.424zm.328-.338l.457 1.047-.457-1.047zm.824.799l-1.06-.424 1.06.424zm-.202.505l1.061.425-1.061-.425zm-.327.338l-.458-1.046.458 1.046zm-1.265.298l-1.06-.424 1.06.424zm.509-1.269l1.06.424-1.06-.424zm-.369-.559l-.424 1.06.424-1.06zm-.642.15l1.061.424-1.061-.424zm-.508 1.27l-1.06-.424 1.06.424zm.075.595l-.746.865.746-.865zm.488.187l-.024 1.142.024-1.142zm10.583.808l-.457-1.046.457 1.046zm-4.863 2.124l.457 1.047-.457-1.047zm-.429.442l-1.06-.424 1.06.424zm1.078 1.046l.458 1.046-.458-1.046zm4.863-2.124l-.457-1.047.457 1.047zm.429-.443l1.06.425-1.06-.425zm3.937 5.493l1.047-.458-1.047.458zm-2.414-5.528l-1.047.457 1.047-.457zm-1.519.024l-1.06-.425 1.06.425zm.01.635l1.047-.457-1.047.457zm2.415 5.527l-1.047.458 1.047-.458zm1.518-.023l-1.06-.425 1.06.425zm-12.019-9.097l-1.046.457 1.046-.457zm1.689 3.865l1.046-.457-1.046.457zm.01.635l1.06.425-1.06-.425zm-1.519.024l1.047-.457-1.047.457zm-1.688-3.865l-1.047.457 1.047-.457zm-.01-.636l1.06.425-1.06-.425zm4.129 5.96l-1.046.457 1.046-.457zm2.415 5.527l1.047-.457-1.047.457zm.01.636l-1.061-.425 1.061.425zm-1.519.023l-1.046.457 1.046-.457zm-2.414-5.527l1.046-.457-1.046.457zm-.01-.635l-1.061-.425 1.061.425zm13.892 9.27l1.047-.458-1.047.458zm-2.051-4.697l-1.047.457 1.047-.457zm-1.519.024l-1.06-.425 1.06.425zm.01.635l1.047-.457-1.047.457zm2.052 4.696l-1.047.458 1.047-.458zm1.518-.023l-1.06-.425 1.06.425zm-9.522-4.219l-.457-1.047.457 1.047zm4.863-2.124l.457 1.047-.457-1.047zm1.078 1.045l1.06.424-1.06-.424zm-.429.442l-.457-1.047.457 1.047zm-4.863 2.124l.458 1.047-.458-1.047zm-1.078-1.045l-1.06-.424 1.06.424zm12.611 9.248l1.047-.457-1.047.457zm-1.743-3.99l-1.047.457 1.047-.457zm-1.519.023l-1.06-.424 1.06.424zm.01.635l-1.046.458 1.046-.458zm1.743 3.991l1.047-.458-1.047.458zm1.519-.024l-1.061-.424 1.061.424zm-4.354-5.634l.457 1.047-.457-1.047zm-4.863 2.124l-.457-1.046.457 1.046zm-.429.442l-1.06-.424 1.06.424zm1.078 1.046l.458 1.046-.458-1.046zm4.863-2.124l-.457-1.047.457 1.047zm.429-.443l1.06.425-1.06-.425zm-8.436-3.8l-1.046.457 1.046-.457zm2.052 4.696l1.047-.457-1.047.457zm.01.636l-1.061-.425 1.061.425zm-1.519.023l1.047-.457-1.047.457zm-2.051-4.696l-1.047.457 1.047-.457zm-.01-.635l1.06.424-1.06-.424zm12.507 10.788l-1.06-.425a1.141 1.141 0 102.12.849l-1.06-.424zm.859-2.147l1.06.425-1.06-.425zm-.236-.027l1.06.424-1.06-.424zm-.504 1.259l-1.061-.424 1.061.424zm-.064.655l-1.142-.04 1.142.04zm.663-1.661l.854.759-.854-.759zm.14-.226l1.06.425a1.142 1.142 0 10-2.12-.849l1.06.424zm-.859 2.146l-1.06-.424 1.06.424zm-.184-.137l-1.06-.424 1.06.424zm.512-1.28l1.061.425-1.061-.425zm-1.574 1.283l-1.06-.424 1.06.424zm.337-.841l1.06.425-1.06-.425zm.261-.269l-.458-1.046.458 1.046zm.655.636l-1.06-.425 1.06.425zm-.336.841l1.06.424-1.06-.424zm-.261.269l-.457-1.047.457 1.047zm-7.426-4.499l-1.046.457 1.046-.457zm1.743 3.99l1.047-.457-1.047.457zm.01.635l-1.06-.424 1.06.424zm-1.518.024l1.046-.457-1.046.457zm-1.743-3.99l-1.047.457 1.047-.457zm-.01-.635l1.06.424-1.06-.424zm5.679 4.131l-.457-1.047.457 1.047zm1.206-.527l.457 1.047-.457-1.047zm1.078 1.045l1.061.424-1.061-.424zm-.428.442l-.458-1.047.458 1.047zm-1.206.527l.457 1.047-.457-1.047zm-1.079-1.045l1.061.424-1.061-.424zm7.876 3.855l-.898.706.898-.706zm-3.541-4.496l-.897.706.897-.706zm-1.413.203l-1.06-.424 1.06.424zm-.151.38l1.06.424-1.06-.424zm.117.816l-.897.707.897-.707zm3.541 4.496l.897-.707-.897.707zm1.412-.204l1.061.425-1.061-.425zm.152-.379l-1.06-.425 1.06.425zm-9.35-3.247l1.06.424-1.06-.424zm.471-1.178l-1.06-.424 1.06.424zm.194-.199l.457 1.047-.457-1.047zm.486.471l-1.06-.424 1.06.424zm-.471 1.178l1.061.424-1.061-.424zm-.193.2l.457 1.046-.457-1.046zm-.698.049l-1.06-.424 1.06.424zm.508-1.269l1.061.424-1.061-.424zm-.368-.559l-.425 1.061.425-1.061zm-.642.15l1.061.424-1.061-.424zm-.508 1.27l-1.06-.424 1.06.424zm.075.595l-.746.865.746-.865zm.488.187l.023-1.142-.023 1.142zm9.432 4.82l-1.06-.424a1.143 1.143 0 002.121.849l-1.061-.425zm.859-2.146l1.061.424-1.061-.424zm-.41-.013l1.061.424-1.061-.424zm-.381.953l-1.061-.424 1.061.424zm-.013.881l1.141-.054-1.141.054zm.664-1.595l-.854-.759.854.759zm.139-.225l1.06.425a1.142 1.142 0 10-2.12-.849l1.06.424zm-.859 2.146l-1.06-.424 1.06.424zm-.184-.137l-1.06-.425 1.06.425zm.513-1.281l1.06.424-1.06-.424zm-7.202-3.949l-1.119.225 1.119-.225zm1.036 5.168l1.12-.224-1.12.224zm-.033.359l1.061.424-1.061-.424zm-1.206-.111l1.12-.224-1.12.224zm-1.036-5.167l-1.12.224 1.12-.224zm.033-.359l1.061.424-1.061-.424zm3.644 5.882l.458 1.047-.458-1.047zm3.073-1.342l-.457-1.046.457 1.046zm1.078 1.045l1.061.425-1.061-.425zm-.428.443l-.457-1.047.457 1.047zm-3.073 1.342l.457 1.046-.457-1.046zm-1.078-1.045l-1.061-.425 1.061.425zm-1.729 1.108l1.061.425-1.061-.425zm.493-1.231l-1.06-.425 1.06.425zm.793-.166l.385-1.075-.385 1.075zm.353.517l1.06.425-1.06-.425zm-.521 1.301l-1.06-.425 1.06.425zm-.447.373l-.024 1.142.024-1.142zm-.682-.441l-1.033.487 1.033-.487zM201.44 87.558l5.264-7.417-1.863-1.322-5.264 7.418 1.863 1.322zm3.272-8.503l-.859 2.146 2.121.85.859-2.147-2.121-.849zm-.73 1.91l-5.264 7.417 1.863 1.323 5.264-7.418-1.863-1.322zm-3.272 8.503l.859-2.146-2.121-.849-.859 2.146 2.121.849zM88.105 96.577c6.8 9.905 19.161 24.881 34.187 37.682 14.997 12.776 32.814 23.529 50.515 24.708l.151-2.28c-16.956-1.129-34.304-11.49-49.185-24.167-14.851-12.653-27.08-27.471-33.785-37.236l-1.883 1.293zm84.702 62.39c10.894.726 22.139.38 33.275.05 11.158-.331 22.207-.647 32.809.118 21.174 1.528 40.388 7.353 54.768 25.851l1.803-1.402c-14.937-19.215-34.902-25.176-56.407-26.727-10.737-.775-21.904-.454-33.041-.123-11.159.331-22.29.671-33.056-.047l-.151 2.28zm120.852 26.019c6.512 8.377 9.302 16.218 9.743 23.817.443 7.622-1.47 15.099-4.532 22.756l2.121.849c3.124-7.812 5.162-15.646 4.692-23.738-.472-8.115-3.46-16.389-10.221-25.086l-1.803 1.402zm-19.796 194.212c12.167 13.873 24.784 18.569 42.608 22.323l.471-2.235c-17.6-3.707-29.659-8.252-41.361-21.594l-1.718 1.506zm42.608 22.323c7.371 1.552 13.517-.303 18.627-4.686 5.055-4.335 9.054-11.102 12.348-19.327l-2.121-.85c-3.238 8.087-7.067 14.457-11.714 18.443-4.591 3.937-10.018 5.585-16.669 4.185l-.471 2.235zm172.236-40.453c1.435 10.07 3.644 17.428 6.545 22.437 2.919 5.038 6.596 7.783 10.92 8.389 4.259.597 8.891-.921 13.68-3.819 4.805-2.908 9.904-7.287 15.149-12.641 20.933-21.365 44.945-59.063 62.808-83.989l-1.856-1.33c-18.008 25.127-41.815 62.522-62.584 83.721-5.181 5.288-10.126 9.517-14.7 12.284-4.589 2.778-8.671 4.003-12.18 3.512-3.443-.483-6.587-2.659-9.26-7.273-2.69-4.643-4.844-11.669-6.26-21.613l-2.262.322zm109.102-69.623c6.035-8.421 12.893-11.896 19.417-11.904 6.56-.007 13.058 3.49 18.337 9.578 10.562 12.178 15.936 34.42 6.704 57.479l2.121.849c9.527-23.798 4.061-46.956-7.099-59.825-5.581-6.435-12.664-10.373-20.066-10.365-7.437.008-14.922 3.999-21.27 12.858l1.856 1.33zM461.611 612.184c-14.228 9.938-32.085 13.489-50.062 16.441-17.863 2.934-35.918 5.278-50.01 12.987l1.096 2.005c13.665-7.476 31.232-9.773 49.284-12.738 17.939-2.946 36.293-6.55 51-16.822l-1.308-1.873zm29.645-70.357c6.393 12.216 6.608 23.891 2.207 34.896l2.121.848c4.651-11.627 4.397-24-2.304-36.803l-2.024 1.059zm83.972-137.896c-4.427 1.747-6.899 4.944-8.5 8.942l2.121.849c1.436-3.587 3.527-6.21 7.217-7.666l-.838-2.125zM361.539 641.612c-2.589 1.417-6.845 4.817-12 9.732-5.182 4.94-11.343 11.476-17.751 19.235-12.811 15.51-26.649 35.952-35.612 58.331l2.121.849c8.848-22.094 22.539-42.334 35.252-57.726 6.354-7.693 12.454-14.162 17.566-19.036 5.139-4.899 9.212-8.118 11.52-9.38l-1.096-2.005zM469.769 312.6c9.122 13.387 16.235 29.492 18.938 48.468l2.262-.322c-2.759-19.363-10.019-35.794-19.312-49.432l-1.888 1.286zm56.894 158.025c-25.429 10.383-38.646 20.159-43.218 31.579l2.12.85c4.187-10.456 16.54-19.934 41.962-30.314l-.864-2.115zM275.345 293.292c-.871 10.455-3.573 20.305-6.176 29.778l2.203.605c2.595-9.445 5.359-19.495 6.249-30.193l-2.276-.19zm-6.176 29.778l-.169.615 2.203.605.169-.615-2.203-.605zm-5.199 23.822c-1.112 11.225.812 21.952 9.893 32.306l1.718-1.506c-8.577-9.778-10.402-19.831-9.337-30.574l-2.274-.226zm34.9-115.333c-2.334 5.835-5.313 11.722-8.389 17.836-3.068 6.098-6.227 12.411-8.872 19.026l2.121.848c2.603-6.511 5.719-12.74 8.792-18.847 3.064-6.091 6.092-12.071 8.469-18.014l-2.121-.849zm-17.261 36.862c-3.111 7.778-5.526 16.007-6.264 24.871l2.276.19c.714-8.569 3.051-16.569 6.109-24.213l-2.121-.848zm65.837 109.087c6.864-17.144 10.869-41.186 14.638-64.518 3.786-23.433 7.329-46.118 13.225-60.852l-2.121-.849c-6.013 15.029-9.594 38.027-13.359 61.337-3.782 23.411-7.754 47.173-14.504 64.032l2.121.85zm27.863-125.37c4.003-10.006 8.865-15.776 15.107-16.253 3.151-.24 6.859.837 11.262 3.713 4.402 2.875 9.419 7.498 15.147 14.202l1.737-1.484c-5.804-6.792-10.982-11.592-15.635-14.631-4.653-3.039-8.861-4.369-12.685-4.078-7.71.589-13.038 7.643-17.054 17.682l2.121.849zm266.958 94.46c-8.266 20.648-28.295 42.051-67.039 57.333l.838 2.125c39.174-15.452 59.767-37.238 68.322-58.609l-2.121-.849zM493.463 576.723c-5.1 12.75-16.441 24.697-31.852 35.461l1.308 1.873c15.578-10.881 27.329-23.144 32.665-36.486l-2.121-.848zm73.265-163.85c-1.483 3.703-2.257 8.2-3.17 12.932-.922 4.78-2.001 9.902-4.073 15.076l2.121.849c2.159-5.392 3.27-10.698 4.195-15.492.935-4.843 1.667-9.067 3.048-12.516l-2.121-.849zm-7.243 28.008c-4.233 10.571-12.676 21.518-32.822 29.744l.864 2.115c20.687-8.447 29.603-19.833 34.079-31.01l-2.121-.849zM296.176 728.91c-7.165 17.893-10.831 36.85-7.359 55.032l2.244-.429c-3.362-17.606.166-36.1 7.236-53.754l-2.121-.849zm187.269-226.706c-4.578 11.434-.324 24.08 7.811 39.623l2.024-1.059c-8.15-15.573-11.868-27.341-7.715-37.714l-2.12-.85zm161.803-156.906c9.527-23.798 4.061-46.956-7.099-59.825-5.581-6.435-12.664-10.373-20.066-10.365-7.437.009-14.922 3.999-21.27 12.858l1.856 1.33c6.035-8.42 12.892-11.896 19.417-11.903 6.559-.008 13.058 3.489 18.337 9.577 10.562 12.178 15.935 34.42 6.704 57.479l2.121.849zm-48.567-57.091l-.859 2.146 2.12.849.859-2.147-2.12-.848zm1.129 3.235c6.035-8.42 12.891-11.895 19.415-11.903 6.559-.008 13.057 3.487 18.337 9.574 10.561 12.175 15.936 34.414 6.711 57.471l2.121.848c9.521-23.795 4.053-46.95-7.107-59.816-5.581-6.434-12.663-10.371-20.065-10.362-7.436.009-14.92 4-21.268 12.858l1.856 1.33zm46.584 55.99l.854-2.134-2.121-.848-.854 2.134 2.121.848zM173.82 154.541c-16.956-1.13-34.304-11.491-49.185-24.168-14.852-12.652-27.082-27.471-33.786-37.236l-1.883 1.293c6.8 9.906 19.161 24.881 34.187 37.682 14.997 12.776 32.815 23.529 50.515 24.708l.152-2.279zM88.847 93.359l-.859 2.146 2.121.85.859-2.147-2.12-.849zm-.74 3.217c6.8 9.906 19.161 24.881 34.187 37.682 14.997 12.776 32.815 23.529 50.515 24.708l.152-2.279c-16.956-1.13-34.304-11.49-49.185-24.168-14.852-12.652-27.081-27.471-33.786-37.236l-1.883 1.293zm85.838 61.675l.859-2.146-2.121-.849-.858 2.146 2.12.849zm122.376 23.184c-14.936-19.214-34.901-25.175-56.407-26.727-10.737-.775-21.903-.453-33.041-.123-11.159.331-22.29.671-33.055-.046l-.152 2.279c10.895.726 22.139.381 33.275.05 11.158-.331 22.207-.646 32.809.119 21.175 1.527 40.388 7.352 54.768 25.85l1.803-1.402zm-123.64-26.181l-.859 2.146 2.121.849.859-2.146-2.121-.849zm.126 3.71c10.895.726 22.139.381 33.275.05 11.158-.33 22.207-.646 32.809.119 21.175 1.527 40.388 7.352 54.768 25.85l1.803-1.402c-14.936-19.214-34.901-25.175-56.406-26.727-10.738-.774-21.904-.453-33.042-.123-11.159.331-22.29.671-33.055-.046l-.152 2.279zm122.814 25.743l.859-2.146-2.121-.849-.859 2.146 2.121.849zm6.231 45.553c3.124-7.812 5.163-15.646 4.692-23.738-.471-8.115-3.46-16.389-10.22-25.086l-1.804 1.402c6.512 8.377 9.302 16.218 9.744 23.817.443 7.621-1.471 15.099-4.533 22.756l2.121.849zm-7.491-48.548l-.859 2.146 2.121.849.859-2.146-2.121-.849zm-.7 3.272c6.512 8.377 9.302 16.218 9.744 23.817.443 7.621-1.47 15.099-4.533 22.756l2.121.849c3.124-7.812 5.163-15.646 4.692-23.738-.471-8.115-3.46-16.389-10.22-25.086l-1.804 1.402zm7.332 47.422l.859-2.146-2.121-.849-.859 2.146 2.121.849zm118.429 17.762c-5.804-6.792-10.982-11.591-15.636-14.631-4.652-3.039-8.86-4.369-12.685-4.077-7.71.588-13.037 7.642-17.054 17.681l2.121.849c4.004-10.006 8.866-15.776 15.107-16.253 3.151-.24 6.86.837 11.262 3.713 4.402 2.875 9.419 7.498 15.148 14.202l1.737-1.484zm-45.375-1.027l-.853 2.131 2.121.849.853-2.131-2.121-.849zm1.268 2.98c4.003-9.999 8.865-15.764 15.106-16.238 3.151-.239 6.859.839 11.261 3.715 4.401 2.876 9.417 7.498 15.144 14.2l1.737-1.484c-5.803-6.79-10.98-11.589-15.632-14.628-4.652-3.04-8.859-4.371-12.683-4.081-7.709.585-13.037 7.634-17.054 17.667l2.121.849zm43.44 1.36l.859-2.146-2.121-.849-.859 2.146 2.121.849zm178.059 34.485c-18.008 25.127-41.815 62.522-62.584 83.721-5.181 5.288-10.126 9.517-14.7 12.285-4.589 2.777-8.671 4.003-12.18 3.511-3.443-.483-6.588-2.659-9.26-7.272-2.69-4.644-4.844-11.67-6.261-21.614l-2.261.322c1.435 10.071 3.643 17.428 6.545 22.437 2.919 5.038 6.596 7.783 10.92 8.389 4.259.597 8.89-.92 13.68-3.819 4.805-2.908 9.903-7.287 15.148-12.64 20.934-21.366 44.946-59.063 62.809-83.99l-1.856-1.33zm-107.176 70.368l-.859 2.146 2.121.848.859-2.146-2.121-.848zm-.929 2.731c1.435 10.071 3.644 17.428 6.545 22.437 2.919 5.038 6.596 7.783 10.92 8.389 4.259.597 8.891-.92 13.68-3.819 4.805-2.908 9.904-7.287 15.149-12.64 20.933-21.366 44.945-59.063 62.808-83.989l-1.856-1.331c-18.008 25.127-41.815 62.522-62.584 83.721-5.181 5.288-10.126 9.517-14.7 12.285-4.589 2.777-8.671 4.003-12.18 3.511-3.443-.483-6.587-2.659-9.26-7.272-2.69-4.644-4.844-11.67-6.26-21.614l-2.262.322zm109.234-69.863l.859-2.146-2.12-.849-.859 2.146 2.12.849zM576.925 403.91c39.174-15.452 59.766-37.239 68.322-58.609l-2.121-.849c-8.266 20.648-28.295 42.05-67.039 57.333l.838 2.125zm66.201-59.458l-.859 2.147 2.121.848.859-2.146-2.121-.849zm-66.418 60.966l.858-2.146-2.121-.849-.858 2.147 2.121.848zM284.59 267.122c2.601-6.502 5.712-12.724 8.781-18.823 3.06-6.084 6.085-12.057 8.462-17.992l-2.121-.849c-2.334 5.827-5.309 11.707-8.382 17.814-3.064 6.091-6.219 12.396-8.861 19.002l2.121.848zm15.122-37.664l-.841 2.1 2.121.849.841-2.1-2.121-.849zm-.841 2.101c-2.33 5.825-5.303 11.704-8.374 17.809-3.064 6.088-6.219 12.391-8.863 18.994l2.12.849c2.603-6.499 5.715-12.719 8.783-18.817 3.06-6.081 6.082-12.053 8.455-17.987l-2.121-.848zm-15.117 37.652l.836-2.089-2.121-.849-.836 2.089 2.121.849zm208.072 89.388c-2.758-19.362-10.018-35.793-19.312-49.431l-1.887 1.286c9.121 13.386 16.234 29.491 18.937 48.468l2.262-.323zm-21.316-49.212l-.859 2.146 2.121.848.859-2.146-2.121-.848zm-.742 3.213c9.121 13.386 16.234 29.492 18.938 48.468l2.261-.322c-2.758-19.363-10.018-35.794-19.311-49.432l-1.888 1.286zm21.129 48.731l.859-2.146-2.121-.849-.859 2.146 2.121.849zm-212.416-69.995c.714-8.569 3.051-16.569 6.108-24.213l-2.121-.849c-3.111 7.779-5.525 16.008-6.263 24.872l2.276.19zm3.987-25.062l-.859 2.146 2.12.849.86-2.146-2.121-.849zm-4.924 27.538l.859-2.147-2.121-.849-.859 2.146 2.121.85zm96.504-44.672c-6.013 15.029-9.593 38.028-13.359 61.337-3.782 23.411-7.754 47.173-14.504 64.033l2.121.849c6.864-17.144 10.869-41.185 14.638-64.517 3.786-23.434 7.33-46.118 13.225-60.853l-2.121-.849zm-27.863 125.37l-.849 2.12 2.121.849.849-2.12-2.121-.849zm1.272 2.969c6.86-17.147 10.863-41.183 14.631-64.509 3.785-23.427 7.328-46.104 13.222-60.835l-2.121-.848c-6.012 15.025-9.591 38.015-13.356 61.319-3.78 23.404-7.751 47.162-14.497 64.024l2.121.849zm27.853-125.344l.859-2.146-2.121-.849-.859 2.146 2.121.849zm194.399 159.44c1.436-3.587 3.528-6.21 7.218-7.666l-.839-2.125c-4.427 1.747-6.899 4.944-8.5 8.942l2.121.849zm5.738-9.153l-.859 2.147 2.121.848.859-2.146-2.121-.849zm-.217 1.508c-4.428 1.747-6.9 4.944-8.501 8.942l2.121.849c1.436-3.587 3.528-6.21 7.218-7.666l-.838-2.125zm-6.38 9.791l.859-2.146-2.121-.849-.859 2.146 2.121.849zm-296.618-92.194c2.595-9.444 5.359-19.494 6.25-30.193l-2.277-.189c-.87 10.454-3.573 20.305-6.175 29.777l2.202.605zm4.051-30.712l-.859 2.146 2.121.849.859-2.146-2.121-.849zm-.937 2.476c-.87 10.455-3.573 20.305-6.175 29.777l2.202.606c2.595-9.445 5.359-19.495 6.25-30.193l-2.277-.19zm-4.014 30.504l.859-2.146-2.121-.848-.858 2.146 2.12.848zm291.137 115.787c2.158-5.39 3.269-10.695 4.194-15.488.935-4.842 1.666-9.066 3.046-12.515l-2.121-.848c-1.481 3.703-2.255 8.199-3.168 12.93-.922 4.779-2.001 9.899-4.072 15.072l2.121.849zm5.119-28.851l-.856 2.14 2.12.849.857-2.141-2.121-.848zm-.856 2.14c-1.482 3.701-2.256 8.195-3.168 12.923-.922 4.777-1.999 9.895-4.067 15.066l2.12.848c2.156-5.388 3.265-10.69 4.19-15.481.933-4.839 1.665-9.06 3.045-12.507l-2.12-.849zm-5.115 28.838l.852-2.127-2.121-.849-.851 2.127 2.12.849zM272.062 322.143l.169-.615-2.203-.606-.169.616 2.203.605zm-1.993-1.342l-.859 2.146 2.121.848.859-2.146-2.121-.848zm-.9 2.267l-.169.616 2.203.605.169-.615-2.203-.606zm1.993 1.343l.859-2.146-2.121-.849-.859 2.146 2.121.849zm257.226 146.181c20.687-8.447 29.603-19.833 34.079-31.01l-2.12-.849c-4.234 10.571-12.677 21.518-32.822 29.744l.863 2.115zm31.959-31.859l-.859 2.146 2.12.849.859-2.146-2.12-.849zm-.859 2.146c-4.234 10.571-12.676 21.518-32.822 29.744l.863 2.115c20.687-8.447 29.603-19.833 34.079-31.01l-2.12-.849zm-31.33 31.226l.859-2.146-2.121-.849-.859 2.146 2.121.849zm-251.716-96.559c-8.576-9.778-10.402-19.831-9.337-30.574l-2.273-.226c-1.113 11.225.811 21.951 9.892 32.306l1.718-1.506zm-11.534-31.112l-.859 2.147 2.121.848.859-2.146-2.121-.849zm-.935 2.458c-1.113 11.225.811 21.952 9.892 32.306l1.718-1.506c-8.576-9.778-10.402-19.831-9.337-30.574l-2.273-.226zm11.812 31.977l.858-2.146-2.12-.849-.859 2.146 2.121.849zm70.4-4.359c-3.238 8.086-7.067 14.457-11.713 18.442-4.591 3.937-10.019 5.586-16.67 4.185l-.47 2.235c7.37 1.553 13.516-.303 18.627-4.686 5.054-4.335 9.053-11.101 12.347-19.327l-2.121-.849zm-29.678 23.32l-.859 2.146 2.12.849.859-2.146-2.12-.849zm-.034 3.688c7.37 1.553 13.517-.303 18.627-4.686 5.055-4.335 9.054-11.101 12.347-19.327l-2.12-.849c-3.238 8.086-7.067 14.457-11.714 18.442-4.591 3.937-10.019 5.586-16.67 4.185l-.47 2.235zm30.975-24.013l.858-2.146-2.121-.849-.858 2.146 2.121.849zm-29.645 19.634c-17.599-3.706-29.659-8.251-41.361-21.593l-1.718 1.506c12.168 13.873 24.784 18.569 42.609 22.322l.47-2.235zm-43.938-17.941c12.168 13.873 24.784 18.569 42.609 22.322l.47-2.235c-17.599-3.706-29.659-8.251-41.361-21.593l-1.718 1.506zm43.905 21.629l.858-2.146-2.12-.849-.859 2.146 2.121.849zm168.652 100.08c4.187-10.456 16.54-19.933 41.962-30.314l-.864-2.115c-25.429 10.384-38.646 20.159-43.218 31.58l2.12.849zm40.47-31.796l-.859 2.146 2.121.849.859-2.146-2.121-.849zm-.231 1.513c-25.429 10.384-38.646 20.159-43.218 31.58l2.12.849c4.187-10.456 16.54-19.933 41.962-30.314l-.864-2.115zm-41.098 32.429l.859-2.146-2.12-.849-.859 2.146 2.12.849zm8.578 35.567c-8.148-15.569-11.866-27.336-7.717-37.708l-2.121-.848c-4.573 11.432-.319 24.075 7.814 39.616l2.024-1.06zm-9.838-38.556l-.856 2.139 2.121.849.856-2.139-2.121-.849zm-.856 2.139c-4.578 11.434-.323 24.079 7.811 39.623l2.024-1.06c-8.15-15.573-11.868-27.341-7.714-37.714l-2.121-.849zm9.884 39.517l.859-2.146-2.121-.848-.859 2.146 2.121.848zm3.115 33.703c4.651-11.628 4.397-24-2.304-36.804l-2.024 1.06c6.393 12.215 6.608 23.891 2.207 34.895l2.121.849zm-4.376-36.698l-.859 2.146 2.121.848.858-2.146-2.12-.848zm-.811 3.1c6.393 12.215 6.609 23.891 2.207 34.895l2.121.849c4.651-11.628 4.397-24-2.304-36.804l-2.024 1.06zm4.328 35.744l.859-2.146-2.121-.849-.859 2.146 2.121.849zm-31.809 34.34c15.571-10.876 27.318-23.133 32.658-36.467l-2.121-.85c-5.103 12.744-16.441 24.685-31.845 35.444l1.308 1.873zm30.537-37.316l-.852 2.127 2.121.849.852-2.127-2.121-.849zm-.852 2.127c-5.1 12.751-16.441 24.698-31.852 35.462l1.308 1.873c15.578-10.882 27.329-23.144 32.665-36.486l-2.121-.849zm-30.138 36.823l.859-2.146-2.121-.849-.859 2.146 2.121.849zm-100.76 29.272c5.701-2.619 13.016-4.597 21.305-6.404 8.308-1.811 17.422-3.417 26.845-5.348 18.73-3.837 38.384-8.899 53.064-19.153l-1.308-1.873c-14.254 9.956-33.48 14.95-52.215 18.788-9.309 1.908-18.575 3.545-26.873 5.354-8.317 1.813-15.834 3.832-21.771 6.56l.953 2.076zm99.5-32.266l-.859 2.146 2.121.849.859-2.146-2.121-.849zm-.453 1.634c-14.237 9.945-32.329 13.993-50.397 17.087-17.951 3.075-35.984 5.213-49.603 11.469l.953 2.076c13.265-6.093 30.854-8.179 49.036-11.293 18.066-3.094 36.622-7.2 51.319-17.466l-1.308-1.873zM299.156 727.612c8.844-22.085 22.924-42.278 35.731-57.489 6.399-7.602 12.471-13.947 17.393-18.649 4.955-4.732 8.672-7.728 10.377-8.707l-1.137-1.981c-1.972 1.132-5.867 4.308-10.818 9.037-4.982 4.759-11.11 11.164-17.563 18.828-12.899 15.321-27.138 35.723-36.104 58.112l2.121.849zm62.456-86.873c-3.822 1.755-8.695 5.387-14.099 10.464-5.422 5.094-11.441 11.704-17.55 19.486-12.216 15.564-24.835 35.868-33.787 58.22l2.121.849c8.859-22.121 21.36-42.239 33.463-57.658 6.051-7.708 11.993-14.23 17.317-19.232 5.344-5.021 10.003-8.453 13.488-10.053l-.953-2.076zm-63.315 89.019l.859-2.146-2.121-.849-.859 2.146 2.121.849zm-6.376 51.609c-3.357-17.586.159-36.058 7.212-53.693l-2.121-.848c-7.149 17.874-10.802 36.808-7.334 54.969l2.243-.428zm5.091-54.542l-.834 2.085 2.121.849.834-2.085-2.121-.849zm-.834 2.085c-7.166 17.892-10.831 36.849-7.359 55.031l2.243-.428c-3.361-17.606.167-36.101 7.237-53.754l-2.121-.849zm-5.177 55.241l.859-2.146-2.121-.849-.859 2.147 2.121.848zm-4.36-558.087c13.814-28.999.298-60.803-19.925-86.778-20.257-26.019-47.572-46.636-62.303-53.467l-.961 2.072c14.349 6.654 41.39 27.018 61.461 52.798 20.105 25.824 32.888 56.637 19.666 84.392l2.062.983zm-2.062-.983c-2.969 6.232-6.912 10.146-10.897 14.249-3.983 4.099-7.987 8.368-10.711 15.205l2.122.846c2.546-6.389 6.269-10.386 10.227-14.46 3.955-4.07 8.167-8.236 11.321-14.857l-2.062-.983zm-21.608 29.454c-1.934 4.855-2.359 12.201-2.053 20.075.308 7.924 1.366 16.564 2.516 24.114 1.15 7.554 2.396 14.044 3.082 17.661.171.906.307 1.625.397 2.137.046.257.078.452.098.587.01.069.015.112.017.135.005.053-.006-.016.005-.121a1.126 1.126 0 01.345-.696c.107-.089.371-.234.525-.282.16-.025.46-.011.595.022.283.088.447.26.492.309.11.119.163.231.164.233.014.027.02.043.018.039a6.87 6.87 0 01-.111-.338 85.38 85.38 0 01-.582-2.034l-2.201.611c.269.968.466 1.662.6 2.095.064.207.124.394.178.526.015.036.036.085.062.137.014.027.078.156.197.284.05.054.218.23.504.319.137.034.439.048.6.022.156-.048.421-.194.529-.284a1.148 1.148 0 00.357-.734c.015-.145.001-.283-.003-.328a4.353 4.353 0 00-.031-.242 21.035 21.035 0 00-.108-.657c-.094-.529-.232-1.263-.403-2.166-.687-3.619-1.925-10.071-3.068-17.579-1.144-7.512-2.188-16.057-2.491-23.858-.305-7.851.151-14.771 1.892-19.141l-2.122-.846zm24.529-30.617c.372-.78.724-1.563 1.057-2.348l-2.104-.891a56.89 56.89 0 01-1.015 2.257l2.062.982zm1.074-2.391c10.744-28.514-3.417-59.246-23.454-84.262-20.071-25.058-46.357-44.792-60.707-51.446l-.961 2.072c13.973 6.48 39.992 25.966 59.885 50.802 19.927 24.879 33.391 54.715 23.099 82.029l2.138.805zM204.993 87.28l.86-2.146-2.121-.849-.859 2.146 2.12.849zm-.681-1.534c14.153 6.563 40.662 26.469 60.646 51.759 20.019 25.333 33.167 55.641 21.495 83.174l2.104.891c12.19-28.756-1.675-60.004-21.806-85.481-20.166-25.52-46.945-45.677-61.478-52.415l-.961 2.072zm82.124 134.976a56.463 56.463 0 01-1.857 4.359l2.062.983a58.676 58.676 0 001.933-4.537l-2.138-.805zm.234 5.275l.859-2.145-2.12-.85-.86 2.146 2.121.849zm-21.112 28.279c2.546-6.389 6.269-10.385 10.227-14.459 3.955-4.071 8.167-8.237 11.321-14.858l-2.062-.983c-2.969 6.232-6.912 10.146-10.897 14.249-3.983 4.099-7.987 8.369-10.711 15.206l2.122.845zm19.456-30.233l-.859 2.146 2.121.849.859-2.146-2.121-.849zm-.829 2.079c-2.961 6.216-6.89 10.126-10.865 14.216-3.972 4.087-7.969 8.338-10.699 15.129l2.12.852c2.551-6.346 6.268-10.325 10.217-14.389 3.946-4.06 8.143-8.222 11.289-14.825l-2.062-.983zm-21.565 29.347l-.042.106 2.121.849.042-.106-2.121-.849zm2.079.953l.042-.103-2.12-.852-.044.11 2.122.845zm.042-.104l.817-2.04-2.121-.849-.817 2.04 2.121.849zm-1.301-2.887c-1.934 4.855-2.359 12.201-2.053 20.075.308 7.924 1.366 16.564 2.516 24.114 1.15 7.554 2.396 14.044 3.082 17.661.172.906.307 1.625.397 2.137.046.257.078.452.098.587.01.069.015.112.017.135.005.053-.006-.016.005-.121a1.126 1.126 0 01.345-.696c.107-.089.371-.235.526-.282a2.01 2.01 0 01.594.022c.283.088.447.26.492.309.11.119.163.231.164.233.014.027.02.043.018.039a6.87 6.87 0 01-.111-.338c-.123-.4-.313-1.064-.582-2.034l-2.201.611c.269.968.466 1.662.6 2.095.064.207.125.394.178.526.015.036.036.085.062.137.014.027.078.156.197.284.05.054.218.23.505.319.136.034.438.048.599.022.156-.048.421-.194.529-.284a1.148 1.148 0 00.357-.734c.015-.145.001-.283-.003-.328a4.353 4.353 0 00-.031-.242 21.035 21.035 0 00-.108-.657c-.093-.529-.232-1.263-.403-2.166-.686-3.619-1.925-10.071-3.068-17.579-1.144-7.512-2.188-16.057-2.491-23.858-.305-7.852.151-14.771 1.892-19.141l-2.122-.846zm3.347 61.722l-.617 1.543 2.121.849.617-1.543-2.121-.849zm-.679 2.18c.176.927.315 1.664.408 2.192a21.968 21.968 0 01.122.756c.005.051-.004 0 .002-.086a1.091 1.091 0 01.203-.559 1.138 1.138 0 011.696-.179 1.123 1.123 0 01.238.321l.006.012-.003-.006-.007-.019-.024-.069c-.02-.058-.044-.136-.075-.234a86.62 86.62 0 01-.585-2.044l-2.201.611c.271.977.47 1.673.604 2.107.063.205.124.393.18.527.014.035.037.087.067.144.01.02.091.182.251.329a1.149 1.149 0 001.929-.781c.009-.13-.004-.255-.009-.307a6.278 6.278 0 00-.032-.247 25.054 25.054 0 00-.112-.676c-.097-.543-.239-1.294-.414-2.217l-2.244.425zm1.941.815l.242-.603-2.121-.849-.242.604 2.121.848zm.303-1.24c-1.041-5.488-3.304-17.278-4.622-29.411-.659-6.067-1.08-12.196-.997-17.651.084-5.482.675-10.172 1.97-13.423l-2.122-.846c-1.453 3.648-2.047 8.676-2.132 14.234-.085 5.584.345 11.816 1.01 17.933 1.329 12.235 3.609 24.107 4.649 29.589l2.244-.425zm-3.649-60.483l.859-2.146-2.121-.849-.859 2.146 2.121.849zm150.79 2.351a2.709 2.709 0 01-.509-2.832l-2.121-.85a4.996 4.996 0 00.939 5.218l1.691-1.536zm-.509-2.832c.147-.368.378-.71.694-.996l-1.535-1.692a4.993 4.993 0 00-1.28 1.838l2.121.85zm.694-.996l4.875-4.426-1.535-1.692-4.875 4.426 1.535 1.692zm4.875-4.426a2.712 2.712 0 013.83.184l1.691-1.535a4.996 4.996 0 00-7.056-.341l1.535 1.692zm53.445 54.83c.72.793.884 1.897.509 2.832l2.121.85a4.996 4.996 0 00-.939-5.218l-1.691 1.536zm.509 2.832c-.147.368-.378.71-.694.996l1.536 1.692a4.99 4.99 0 001.279-1.838l-2.121-.85zm-.694.996l-4.875 4.426 1.535 1.692 4.876-4.426-1.536-1.692zm-4.875 4.426a2.71 2.71 0 01-3.829-.184l-1.692 1.535a4.996 4.996 0 007.056.341l-1.535-1.692zm-42.622-67.154a4.996 4.996 0 00-6.327.132l1.484 1.737a2.713 2.713 0 013.432-.073l1.411-1.796zm-6.327.132a1.628 1.628 0 00-.45.63l2.121.848a.673.673 0 01-.187.259l-1.484-1.737zm-.45.63c-.19.475-.111.931.025 1.258.134.321.346.581.557.774.369.338 1.044.737 1.8.61l-.378-2.253c.138-.024.209.012.188.004a.259.259 0 01-.067-.045c-.031-.029-.015-.027.008.029a.634.634 0 01-.012.471l-2.121-.848zm2.382 2.642a2.726 2.726 0 011.536.187l.911-2.095a5.004 5.004 0 00-2.825-.345l.378 2.253zm1.536.187a2.898 2.898 0 001.855.148c.616-.159 1.273-.573 1.581-1.341l-2.121-.848a.108.108 0 01.033-.047c.002-.002-.015.012-.064.024a.61.61 0 01-.373-.031l-.911 2.095zm3.435-1.192l.012-.029-2.12-.851-.012.029 2.12.851zm.013-.031c.291-.729.209-1.741-.589-2.368l-1.411 1.796a.338.338 0 01-.124-.192.14.14 0 01.003-.084l2.121.848zm-8.658-.663l-3.164 2.872 1.536 1.692 3.164-2.873-1.536-1.691zm-3.164 2.872a1.65 1.65 0 00-.422.608l2.121.849a.65.65 0 01-.163.235l-1.536-1.692zm-.422.608c-.65 1.624 1.344 3.008 2.638 1.833l-1.535-1.692c.499-.453 1.269.081 1.018.708l-2.121-.849zm2.638 1.833l3.164-2.872-1.536-1.692-3.163 2.872 1.535 1.692zm3.164-2.872c.185-.169.329-.376.422-.608l-2.121-.849a.642.642 0 01.163-.235l1.536 1.692zm.422-.608c.65-1.624-1.343-3.008-2.638-1.833l1.536 1.691c-.5.454-1.27-.08-1.019-.707l2.121.849zm20.856 13.346l-13.694-15.083-1.691 1.536 13.694 15.082 1.691-1.535zm-13.694-15.083c-1.083-1.193-3.041-.84-3.64.656l2.121.849a.127.127 0 01-.034.042.103.103 0 01-.044.021.115.115 0 01-.094-.032l1.691-1.536zm-3.64.656a2.182 2.182 0 00.41 2.277l1.691-1.536a.104.104 0 01.02.108l-2.121-.849zm.41 2.277l13.694 15.082 1.692-1.535-13.695-15.083-1.691 1.536zm13.694 15.082c1.083 1.193 3.042.841 3.641-.656l-2.121-.848a.11.11 0 01.034-.043.09.09 0 01.043-.02.083.083 0 01.048.004.111.111 0 01.047.028l-1.692 1.535zm3.641-.656a2.178 2.178 0 00-.411-2.276l-1.691 1.535a.102.102 0 01-.019-.107l2.121.848zm-27.168-9.668l.859-2.146-2.12-.849-.86 2.145 2.121.85zm.859-2.146a.792.792 0 01-.334.366c-.27.16-.665.204-1.017-.003a.946.946 0 01-.458-.643.683.683 0 01.028-.369l2.121.848c.164-.409.281-1.326-.532-1.805a1.284 1.284 0 00-1.31.008 1.506 1.506 0 00-.618.749l2.12.849zm-1.781-.649l-.168.42 2.12.849.169-.421-2.121-.848zm-.168.42a.603.603 0 01.139-.21l1.585 1.645a1.67 1.67 0 00.396-.586l-2.12-.849zm.139-.21a4.986 4.986 0 00-1.17 1.735l2.121.85a2.7 2.7 0 01.634-.94l-1.585-1.645zm2.041 2.906a2.72 2.72 0 01-.231-2.468l-2.121-.848a4.999 4.999 0 00.429 4.548l1.923-1.232zm-2.351-3.316l-.859 2.145 2.121.848.858-2.144-2.12-.849zm-.859 2.144a5.016 5.016 0 00-.127 3.364l2.179-.687a2.718 2.718 0 01.069-1.827l-2.121-.85zm-.127 3.364c.129.41.382.77.754 1.009.366.235.777.308 1.153.269.741-.078 1.391-.583 1.682-1.311l-2.12-.848c.006-.015.051-.098.201-.113a.499.499 0 01.319.081c.125.08.176.183.19.226l-2.179.687zm3.589-.033c.322-.802.102-1.606-.252-2.159l-1.923 1.232a.317.317 0 01.046.107c.002.015-.003.001.009-.028l2.12.848zm22.609 6.725l-9.06 7.843 1.496 1.727 9.059-7.842-1.495-1.728zm-9.06 7.843a1.69 1.69 0 00-.458.643l2.121.849a.621.621 0 01-.167.235l-1.496-1.727zm-.458.643c-.651 1.628 1.323 3.033 2.648 1.886l-1.495-1.727c.484-.42 1.207.094.968.69l-2.121-.849zm2.648 1.886l9.06-7.843-1.496-1.727-9.059 7.843 1.495 1.727zm9.06-7.843c.201-.174.358-.395.458-.643l-2.121-.848a.617.617 0 01.167-.236l1.496 1.727zm.458-.643c.651-1.628-1.323-3.033-2.648-1.886l1.495 1.728c-.484.419-1.207-.094-.968-.69l2.121.848zm21.194 19.47l-19.481-21.456-1.692 1.535 19.482 21.457 1.691-1.536zm-19.481-21.456c-1.084-1.193-3.042-.841-3.641.656l2.121.848a.11.11 0 01-.077.063.083.083 0 01-.048-.004.111.111 0 01-.047-.028l1.692-1.535zm-3.641.656a2.18 2.18 0 00.41 2.276l1.692-1.535a.102.102 0 01.019.107l-2.121-.848zm.41 2.276l19.482 21.457 1.691-1.536-19.481-21.456-1.692 1.535zm19.482 21.457c1.083 1.193 3.042.84 3.64-.656l-2.12-.849a.11.11 0 01.033-.042.097.097 0 01.044-.021.11.11 0 01.094.032l-1.691 1.536zm3.64-.656a2.18 2.18 0 00-.41-2.277l-1.691 1.536a.104.104 0 01-.019-.108l2.12.849zm-47.411-29.388l13.467 14.832 1.692-1.535-13.468-14.833-1.691 1.536zm13.467 14.832a.102.102 0 01-.019-.107l2.121.849a2.182 2.182 0 00-.41-2.277l-1.692 1.535zm-.019-.107a.116.116 0 01.034-.043.101.101 0 01.043-.02.104.104 0 01.048.004.111.111 0 01.047.028l-1.692 1.535c1.084 1.193 3.042.841 3.641-.655l-2.121-.849zm.172-.031l-13.468-14.833-1.691 1.536 13.467 14.832 1.692-1.535zm-13.468-14.833a.104.104 0 01.02.108l-2.121-.849a2.182 2.182 0 00.41 2.277l1.691-1.536zm.02.108a.127.127 0 01-.034.042.092.092 0 01-.091.017.123.123 0 01-.047-.028l1.691-1.536c-1.083-1.193-3.041-.84-3.64.656l2.121.849zm60.163 41.824l-11.778-12.971-1.691 1.535 11.778 12.972 1.691-1.536zm-11.778-12.971c-1.083-1.193-3.042-.841-3.64.655l2.12.849a.112.112 0 01-.033.043.1.1 0 01-.044.02.105.105 0 01-.048-.004.107.107 0 01-.046-.028l1.691-1.535zm-3.64.655a2.182 2.182 0 00.41 2.277l1.691-1.535a.1.1 0 01.019.107l-2.12-.849zm.41 2.277l11.778 12.972 1.691-1.535-11.778-12.972-1.691 1.535zm11.778 12.972c1.083 1.193 3.041.84 3.64-.656l-2.121-.848a.12.12 0 01.034-.043.103.103 0 01.044-.021.1.1 0 01.047.004c.022.008.039.02.047.029l-1.691 1.535zm3.64-.656a2.182 2.182 0 00-.41-2.277l-1.691 1.536a.103.103 0 01-.02-.107l2.121.848zm-45.722-27.524l19.482 21.457 1.691-1.536-19.482-21.457-1.691 1.536zm19.482 21.457a.104.104 0 01-.02-.108l2.121.849a2.182 2.182 0 00-.41-2.277l-1.691 1.536zm-.02-.108a.128.128 0 01.034-.043.1.1 0 01.044-.02.1.1 0 01.047.004.105.105 0 01.047.028l-1.691 1.536c1.083 1.193 3.041.84 3.64-.656l-2.121-.849zm.172-.031l-19.482-21.457-1.691 1.536 19.482 21.457 1.691-1.536zm-19.482-21.457c.027.03.034.071.02.108l-2.121-.849a2.182 2.182 0 00.41 2.277l1.691-1.536zm.02.108a.128.128 0 01-.034.043.101.101 0 01-.043.02.104.104 0 01-.048-.004.123.123 0 01-.047-.028l1.691-1.536c-1.083-1.193-3.041-.84-3.64.656l2.121.849zm21.437 21.982l9.06-7.843-1.495-1.727-9.06 7.843 1.495 1.727zm9.06-7.843c-.485.42-1.207-.094-.969-.69l2.121.849c.652-1.628-1.322-3.033-2.647-1.886l1.495 1.727zm-.969-.69a.616.616 0 01.168-.235l1.495 1.727a1.67 1.67 0 00.458-.643l-2.121-.849zm.168-.235l-9.06 7.842 1.495 1.728 9.06-7.843-1.495-1.727zm-9.06 7.842c.485-.419 1.207.094.969.69l-2.121-.848c-.652 1.628 1.322 3.033 2.647 1.886l-1.495-1.728zm.969.69a.62.62 0 01-.168.236l-1.495-1.727a1.662 1.662 0 00-.458.643l2.121.848zm22.855 6.553a2.72 2.72 0 01-.069 1.828l2.121.849a5.016 5.016 0 00.127-3.364l-2.179.687zm-.069 1.828l-.858 2.144 2.121.849.858-2.144-2.121-.849zm1.263 2.993a4.999 4.999 0 00-.429-4.548l-1.923 1.232a2.72 2.72 0 01.231 2.468l2.121.848zm-.429-4.548a.317.317 0 01-.046-.107c-.002-.015.003-.001-.009.028l-2.12-.848c-.322.802-.102 1.606.252 2.159l1.923-1.232zm-.055-.079c-.005.015-.051.098-.201.113a.5.5 0 01-.319-.081.458.458 0 01-.19-.226l2.179-.687a1.84 1.84 0 00-.754-1.009 1.784 1.784 0 00-1.153-.269c-.741.078-1.391.583-1.682 1.311l2.12.848zm-.776 1.636a2.687 2.687 0 01-.634.939l1.585 1.645a4.972 4.972 0 001.17-1.735l-2.121-.849zm-.634.939a1.692 1.692 0 00-.396.586l2.121.849a.604.604 0 01-.14.21l-1.585-1.645zm-.396.586l-.169.421 2.121.849.169-.421-2.121-.849zm-.169.421c-.164.41-.281 1.327.533 1.805.437.258.936.214 1.309-.008a1.51 1.51 0 00.619-.748l-2.121-.849a.781.781 0 01.335-.366 1 1 0 011.016.003c.315.185.428.47.459.642a.682.682 0 01-.029.37l-2.121-.849zm2.461 1.049l.859-2.146-2.121-.849-.859 2.146 2.121.849zm-5.212 4.039l3.164-2.872-1.536-1.692-3.164 2.872 1.536 1.692zm3.164-2.872c-.5.453-1.27-.081-1.019-.708l2.121.849c.65-1.624-1.343-3.008-2.638-1.833l1.536 1.692zm-1.019-.708a.65.65 0 01.163-.235l1.536 1.692c.185-.169.329-.376.422-.608l-2.121-.849zm.163-.235l-3.164 2.872 1.536 1.692 3.164-2.872-1.536-1.692zm-3.164 2.872c.5-.453 1.27.081 1.019.708l-2.121-.849c-.65 1.624 1.344 3.008 2.638 1.833l-1.536-1.692zm1.019.708a.642.642 0 01-.163.235l-1.536-1.692a1.65 1.65 0 00-.422.608l2.121.849zm-19.748-13.729l12.005 13.222 1.691-1.535-12.005-13.222-1.691 1.535zm12.005 13.222a.103.103 0 01-.02-.107l2.121.848a2.18 2.18 0 00-.41-2.276l-1.691 1.535zm-.02-.107a.12.12 0 01.034-.043.09.09 0 01.044-.02.083.083 0 01.048.004.107.107 0 01.046.028l-1.691 1.535c1.083 1.193 3.042.841 3.64-.656l-2.121-.848zm.172-.031l-12.005-13.222-1.691 1.535 12.005 13.222 1.691-1.535zm-12.005-13.222a.103.103 0 01.02.107l-2.121-.848a2.18 2.18 0 00.41 2.276l1.691-1.535zm.02.107a.12.12 0 01-.034.043.103.103 0 01-.044.021.1.1 0 01-.047-.004.123.123 0 01-.047-.029l1.691-1.535c-1.083-1.193-3.041-.841-3.64.656l2.121.848zm13.973 14.958a5.026 5.026 0 002.826.345l-.379-2.253a2.727 2.727 0 01-1.536-.187l-.911 2.095zm2.826.345c-.139.023-.209-.013-.189-.005.011.005.04.02.067.046.031.028.016.026-.007-.029a.64.64 0 01.011-.472l2.121.849a1.646 1.646 0 00-.025-1.258 2.227 2.227 0 00-.556-.774c-.37-.339-1.044-.737-1.801-.61l.379 2.253zm-.118-.46a.656.656 0 01.188-.258l1.484 1.736c.211-.181.358-.402.449-.629l-2.121-.849zm.188-.258a2.712 2.712 0 01-3.432.072l-1.412 1.797a4.999 4.999 0 006.328-.133l-1.484-1.736zm-3.432.072c.076.06.113.139.124.193a.15.15 0 01-.003.084l-2.121-.849c-.292.729-.209 1.742.588 2.369l1.412-1.797zm.121.276l.012-.03-2.121-.847-.012.03 2.121.847zm.012-.029a.135.135 0 01-.033.047c-.003.002.015-.012.063-.025a.59.59 0 01.186-.013.57.57 0 01.187.045l.911-2.095a2.896 2.896 0 00-1.854-.149c-.617.159-1.274.573-1.581 1.341l2.121.849zm-41.189-63.275l49.615 54.646 1.691-1.536-49.615-54.645-1.691 1.535zm40.726 62.716l-49.616-54.646-1.691 1.536 49.615 54.645 1.692-1.535zM44.883 55.864c2.008-5.012 2.387-10.87 1.31-16.184l-2.24.453c.998 4.924.636 10.323-1.19 14.882l2.12.85zm1.31-16.184c-2.373-11.705-12.56-19.347-24.461-18.406l.18 2.277c10.755-.85 19.9 6.015 22.041 16.582l2.24-.453zM21.731 21.274c-9.693.767-17.013 5.898-19.945 15.285l2.18.682c2.622-8.392 9.068-12.987 17.945-13.69l-.18-2.277zM1.787 36.56c-1.371 4.388-.976 7.4-.392 11.564l2.263-.318c-.58-4.129-.899-6.7.309-10.564l-2.18-.681zm-.375 11.655c.888 3.967 2.24 7.794 4.943 11.058 2.715 3.278 6.71 5.89 12.714 7.58l.618-2.2c-5.65-1.589-9.21-3.984-11.572-6.837-2.375-2.867-3.622-6.294-4.474-10.1l-2.23.499zm17.66 18.639l.21.058.611-2.201-.21-.058-.61 2.2zm.215.06c6.76 1.847 12.295 1.322 16.61-.843 4.307-2.163 7.26-5.893 8.986-10.206l-2.12-.849c-1.563 3.904-4.179 7.15-7.892 9.013-3.706 1.86-8.643 2.413-14.982.68l-.602 2.204zm3.484-45.51c10.755-.85 19.9 6.015 22.041 16.583l2.24-.454c-2.373-11.705-12.56-19.347-24.462-18.405l.18 2.277zm22.1 15.931l-.859 2.146 2.121.85.86-2.147-2.122-.849zm1.321 2.344c-2.372-11.705-12.56-19.347-24.46-18.405l.18 2.277c10.755-.851 19.9 6.014 22.041 16.582l2.24-.454zm-23.31-16.842l.859-2.146-2.12-.85-.86 2.147 2.121.849zm-17.84 11.6c2.746-7.968 9.08-12.348 17.73-13.032l-.18-2.278c-9.435.747-16.63 5.629-19.71 14.566l2.16.744zm16.58-14.595l-.86 2.146 2.121.849.859-2.147-2.12-.848zm.11 1.431c-8.588.68-15.343 4.788-18.807 12.314L5 34.542c3.064-6.657 9.01-10.366 16.913-10.991l-.18-2.277zm-18.85 12.42c-.081.237-.16.477-.236.72l2.18.68c.07-.22.142-.44.216-.656l-2.16-.744zm-.206.636l-.859 2.146 2.121.849.859-2.146-2.12-.85zm1.292 2.91c.297-.95.642-1.849 1.032-2.697l-2.075-.955a24.78 24.78 0 00-1.138 2.972l2.18.68zm27.542-7.832l-8.05 7.732 1.582 1.648 8.05-7.732-1.582-1.648zm-8.32 8.131l-.859 2.147 2.12.848.86-2.146-2.121-.849zm.993 3.395l8.05-7.732-1.582-1.648-8.05 7.732 1.582 1.648zm8.32-8.131l.858-2.146-2.12-.85-.86 2.147 2.121.849zm12.312 5.185c.998 4.924.635 10.323-1.19 14.882l2.12.85c2.007-5.014 2.386-10.87 1.309-16.185l-2.24.453zM43.624 52.87l-.855 2.138 2.12.848.856-2.137-2.121-.849zm1.266 2.986c2.004-5.01 2.381-10.863 1.305-16.175l-2.24.454c.998 4.92.636 10.316-1.186 14.873l2.12.848zm1.246-15.524l.859-2.146-2.121-.849-.86 2.146 2.122.85zm1.01 4.318L89.77 89.114l1.649-1.581-42.622-44.465-1.65 1.581zM89.533 87.9l-.86 2.146 2.122.849.859-2.146-2.121-.85zm1.026 1.78L47.937 45.214l-1.65 1.581L88.91 91.26l1.649-1.581zM48.173 46.43l.858-2.146-2.12-.849-.86 2.146 2.122.85zm-43.654-.77c-.579-4.13-.898-6.7.31-10.565l-2.18-.681c-1.371 4.387-.976 7.399-.392 11.563l2.262-.317zm-1.84-11.33l-.86 2.146 2.121.849.859-2.146-2.12-.85zm-.89 2.23c-1.37 4.387-.975 7.4-.39 11.563l2.262-.317c-.58-4.13-.899-6.7.309-10.565l-2.18-.681zm1.8 11.829l.86-2.146-2.121-.85-.859 2.147 2.12.849zm40.032 4.48c-1.564 3.903-4.18 7.148-7.892 9.012-3.706 1.86-8.643 2.414-14.982.681l-.602 2.204c6.76 1.847 12.295 1.323 16.61-.843 4.307-2.163 7.26-5.893 8.986-10.205l-2.12-.85zm-24.235 10.37l-.86 2.147 2.122.848.858-2.146-2.12-.849zm-.1 3.673c6.76 1.847 12.295 1.323 16.61-.843 4.307-2.163 7.26-5.893 8.986-10.205l-2.12-.85c-1.564 3.904-4.179 7.15-7.892 9.013-3.706 1.861-8.643 2.414-14.982.681l-.602 2.204zm25.597-11.048l.858-2.146-2.12-.85-.86 2.147 2.122.849zm40.006 37.685L45.081 53.86l-1.613 1.618 39.808 39.688 1.613-1.618zM43.215 54.245l-.86 2.146 2.121.849.86-2.146-2.121-.849zm-.605 3.38l39.808 39.687 1.612-1.618-39.808-39.687-1.612 1.617zm41.674 39.302l.86-2.146-2.122-.849-.858 2.147 2.12.848zm-62.712-33.48c-.686-3.584-1.215-6.355-1.847-8.503-.636-2.164-1.409-3.823-2.656-5.128-1.247-1.304-2.87-2.151-5.003-2.884-2.118-.728-4.862-1.38-8.413-2.227l-.53 2.222c3.595.857 6.212 1.482 8.201 2.166 1.975.678 3.207 1.374 4.094 2.302.887.927 1.527 2.19 2.116 4.193.593 2.017 1.1 4.66 1.794 8.289l2.244-.43zM2.328 45.393l-.86 2.146 2.122.849.859-2.147-2.121-.848zm-.064 3.681c3.595.857 6.212 1.482 8.201 2.166 1.975.678 3.207 1.374 4.094 2.302.887.928 1.527 2.19 2.116 4.193.593 2.018 1.1 4.66 1.794 8.289l2.244-.43c-.686-3.584-1.215-6.354-1.847-8.503-.636-2.164-1.409-3.823-2.656-5.128-1.247-1.304-2.87-2.151-5.003-2.884-2.118-.728-4.862-1.38-8.413-2.227l-.53 2.222zm18.387 17.16l.86-2.146-2.122-.849-.858 2.146 2.12.849zm-.106-3.726c-5.65-1.59-9.21-3.985-11.573-6.838-2.374-2.867-3.62-6.294-4.473-10.1l-2.23.499c.889 3.967 2.241 7.794 4.944 11.058 2.715 3.278 6.71 5.89 12.713 7.58l.62-2.2zM2.324 45.394l-.859 2.146 2.12.849.86-2.146-2.121-.85zm-.913 2.82c.888 3.967 2.24 7.794 4.943 11.058 2.715 3.279 6.71 5.89 12.714 7.58l.618-2.2c-5.65-1.589-9.21-3.984-11.573-6.837-2.374-2.867-3.62-6.294-4.473-10.1l-2.23.499zm19.026 17.963l.86-2.146-2.122-.85-.858 2.147 2.12.849zm.322-3.615l-.21-.058-.611 2.202.21.058.61-2.201zm-1.576.619l-.86 2.145 2.122.85.859-2.147-2.121-.848zm-.104 3.67l.21.059.61-2.201-.21-.059-.61 2.202zm1.576-.617l.859-2.146-2.121-.85-.859 2.147 2.12.849zM90.84 87.888l-6.515 6.033 1.552 1.676 6.515-6.033-1.552-1.676zm-6.8 6.446l-.858 2.146 2.12.85.86-2.147-2.121-.849zm.978 3.409l6.515-6.033-1.552-1.676-6.515 6.033 1.552 1.676zm6.8-6.447l.859-2.146-2.121-.848-.859 2.146 2.12.849zM105.126 4.94c-5.635 2.45-9.605 5.968-11.689 11.178l2.121.849c1.807-4.518 5.248-7.658 10.478-9.932l-.91-2.095zM93.437 16.118c-.634 1.585-1.086 3.31-1.362 5.186l2.26.332c.253-1.72.663-3.269 1.223-4.67l-2.121-.848zm-1.362 5.186c-1.5 10.206 4.68 17.273 13.044 22.395l1.193-1.948c-8.064-4.938-13.279-11.263-11.977-20.115l-2.26-.332zm13.044 22.395c4.271 2.615 9.374 3.71 13.986 3.828 4.586.117 8.859-.73 11.466-2.18l-1.11-1.997c-2.123 1.181-5.944 2.005-10.298 1.894-4.328-.11-9.01-1.142-12.851-3.493l-1.193 1.948zm25.929 1.14c.727-1.532 1.941-3.883 3.214-5.943.637-1.031 1.275-1.966 1.86-2.683.624-.764 1.064-1.12 1.282-1.21l-.883-2.108c-.786.33-1.532 1.095-2.168 1.873-.675.826-1.371 1.854-2.034 2.928-1.329 2.15-2.583 4.578-3.335 6.163l2.064.98zm6.356-9.837c.835-.35 1.186-1.19 1.348-1.822.18-.7.237-1.56.212-2.49-.051-1.877-.448-4.285-1.15-6.822-1.392-5.035-4.073-10.903-8.006-14.264l-1.484 1.737c3.42 2.923 5.943 8.267 7.289 13.136.667 2.415 1.022 4.633 1.067 6.275.023.828-.035 1.45-.14 1.86-.123.476-.226.37-.019.283l.883 2.107zm-7.596-25.398c-3.653-3.122-7.552-5.285-11.699-6.162-4.161-.881-8.499-.452-12.983 1.498l.91 2.095c4.079-1.774 7.934-2.135 11.6-1.359 3.68.78 7.242 2.72 10.688 5.665l1.484-1.737zm.86-2.147c-3.653-3.122-7.552-5.285-11.699-6.163-4.161-.88-8.499-.451-12.983 1.499l.91 2.094c4.079-1.773 7.934-2.134 11.6-1.358 3.68.78 7.242 2.72 10.688 5.664l1.484-1.736zm-25.287-4.041l-.859 2.146 2.12.848.859-2.146-2.12-.848zm.657 3.618c4.078-1.774 7.933-2.135 11.599-1.359 3.68.78 7.243 2.72 10.688 5.664l1.484-1.736c-3.653-3.122-7.552-5.285-11.699-6.163-4.161-.88-8.499-.451-12.983 1.499l.911 2.095zm24.089 3.862l.859-2.147-2.121-.848-.859 2.146 2.121.848zm-.947-1.702c3.421 2.924 5.943 8.268 7.289 13.137.668 2.415 1.023 4.632 1.068 6.274.023.828-.036 1.451-.141 1.86-.122.477-.225.371-.018.284l.883 2.107c.834-.35 1.185-1.19 1.348-1.822.179-.7.237-1.56.211-2.491-.051-1.877-.448-4.284-1.149-6.82-1.392-5.037-4.074-10.904-8.007-14.265l-1.484 1.736zm7.579 22.184l-.019.047 2.121.85.018-.048-2.12-.849zm-.098.391c-.036.51-.113.857-.194 1.066-.089.226-.118.131.052.06l.883 2.107c.651-.273 1.002-.848 1.192-1.336.198-.506.301-1.107.345-1.735l-2.278-.162zm1.36 2.604l.84-2.099-2.121-.848-.84 2.098 2.121.85zm.918-2.442c.186-2.616-.566-6.861-2.077-11.05-1.514-4.192-3.869-8.553-7.057-11.277l-1.484 1.737c2.754 2.353 4.937 6.286 6.392 10.316 1.456 4.035 2.102 7.94 1.948 10.112l2.278.162zm-8.815-21.034l.859-2.146-2.121-.85-.859 2.147 2.121.849zm-24.138-8.103c-5.634 2.45-9.604 5.968-11.688 11.179l2.121.848c1.807-4.518 5.248-7.658 10.478-9.932l-.911-2.095zM94.298 13.972l-.856 2.138 2.121.849.856-2.138-2.121-.849zm1.265 2.987c1.808-4.514 5.248-7.65 10.475-9.924l-.91-2.095c-5.631 2.449-9.6 5.964-11.685 11.17l2.12.849zm11.08-10.547l.859-2.146-2.121-.849-.858 2.146 2.12.85zm50.527 38.912c-6.637-4.613-12.463-8.974-16.863-12.484-2.2-1.755-4.038-3.294-5.44-4.541-1.424-1.267-2.34-2.184-2.749-2.71l-1.804 1.402c.551.71 1.613 1.75 3.034 3.014 1.442 1.283 3.314 2.849 5.535 4.62 4.443 3.546 10.309 7.936 16.984 12.575l1.303-1.876zm-27.014-19.458l-.859 2.146 2.121.849.859-2.146-2.121-.85zm-.701 3.27c.551.71 1.613 1.751 3.034 3.015 1.442 1.283 3.314 2.849 5.535 4.621 4.443 3.545 10.31 7.935 16.984 12.574l1.303-1.876c-6.637-4.613-12.462-8.974-16.863-12.484-2.2-1.755-4.038-3.293-5.44-4.541-1.424-1.266-2.34-2.183-2.748-2.71l-1.805 1.402zm27.265 19.697l.859-2.147-2.121-.848-.859 2.146 2.121.849zM94.296 13.972c-.634 1.584-1.087 3.309-1.362 5.185l2.26.332c.253-1.72.662-3.269 1.223-4.67l-2.121-.847zm-1.293 4.927l-.859 2.147 2.121.848.86-2.146-2.122-.849zm2.555-1.933l.859-2.146-2.121-.848-.859 2.146 2.121.849zm16.8 10.87l-8.882-6.07-1.289 1.886 8.882 6.07 1.289-1.886zm-10.587-5.552l-.859 2.146 2.121.85.859-2.147-2.121-.849zm-.443 3.514l8.882 6.07 1.289-1.886-8.882-6.07-1.289 1.886zm10.587 5.551l.859-2.146-2.121-.848-.859 2.146 2.121.848zm19.988 11.341c.726-1.53 1.941-3.881 3.214-5.941.637-1.032 1.274-1.967 1.86-2.683.624-.764 1.063-1.12 1.282-1.212l-.883-2.106c-.787.33-1.533 1.094-2.168 1.872-.675.826-1.371 1.854-2.035 2.928-1.328 2.15-2.582 4.579-3.334 6.163l2.064.98zm4.854-11.313l-.859 2.146 2.121.848.859-2.146-2.121-.848zm-.24 1.517c-.787.33-1.533 1.095-2.168 1.873-.675.825-1.371 1.853-2.035 2.927-1.328 2.15-2.582 4.579-3.334 6.163l2.064.98c.726-1.532 1.941-3.882 3.214-5.942.637-1.032 1.274-1.967 1.86-2.683.624-.764 1.064-1.12 1.282-1.211l-.883-2.107zm-5.445 11.877l.859-2.146-2.12-.849-.859 2.146 2.12.85zm-6.893-6.886c1.71 1.192 6.028 4.199 9.919 6.907l5.136 3.575 1.616 1.125.445.31a11.073 11.073 0 01.147.102l.007.005.002.002h.001l.652-.937.653-.938h-.001l-.002-.001-.007-.006a11.073 11.073 0 00-.147-.102l-.445-.31-1.616-1.124-5.136-3.576c-3.891-2.708-8.209-5.714-9.918-6.906l-1.306 1.874zm16.865 10.664l-.859 2.147 2.121.848.859-2.146-2.121-.849zm.201 2.57l.653-.937h-.001l-.002-.001-.007-.006-.03-.02-.116-.081-.446-.31-1.616-1.125-5.136-3.576c-3.891-2.708-8.209-5.714-9.918-6.906l-1.306 1.874c1.71 1.192 6.028 4.199 9.919 6.907l5.136 3.575 1.616 1.125c.193.135.343.24.446.31l.116.082.03.02.007.006h.002l.001.001.652-.937zm-16.212-11.6l.859-2.146-2.121-.85-.859 2.147 2.121.849zM92.934 19.157c-1.5 10.207 4.68 17.274 13.045 22.395l1.192-1.948c-8.064-4.937-13.278-11.263-11.977-20.114l-2.26-.333zm12.581 20.997l-.86 2.146 2.121.85.859-2.147-2.12-.85zm-11.25-18.26l.86-2.146-2.12-.849-.86 2.146 2.12.85zm112.597 57.007c-11.024-7.342-36.389-24.33-49.69-33.575l-1.304 1.875c13.322 9.26 38.706 26.26 49.728 33.601l1.266-1.901zm-51.403-33.062l-.859 2.146 2.121.849.859-2.146-2.121-.849zm-.45 3.508c13.322 9.26 38.706 26.261 49.728 33.601l1.266-1.901c-11.024-7.342-36.389-24.33-49.69-33.575l-1.304 1.875zm51.422 33.075l.859-2.146-2.121-.849-.859 2.146 2.121.849zM105.98 41.55c4.27 2.614 9.373 3.71 13.985 3.828 4.586.117 8.86-.73 11.467-2.18l-1.11-1.997c-2.123 1.18-5.945 2.005-10.299 1.894-4.328-.11-9.01-1.142-12.851-3.494l-1.192 1.949zm23.836.225l-.859 2.146 2.121.849.859-2.146-2.121-.85zm-.353 1.572c-2.123 1.18-5.945 2.005-10.298 1.894-4.329-.11-9.011-1.142-12.851-3.494l-1.193 1.949c4.27 2.614 9.373 3.71 13.985 3.828 4.586.117 8.86-.73 11.467-2.18l-1.11-1.997zm-22.685-.201l.858-2.146-2.12-.849-.859 2.146 2.121.849zm34.701 6.783l58.86 38.296 1.246-1.915-58.86-38.296-1.246 1.915zm58.423 36.914l-.859 2.147 2.121.848.859-2.146-2.121-.849zm.824 1.614l-58.86-38.297-1.246 1.915 58.861 38.296 1.245-1.915zm-58.422-36.915l.858-2.146-2.12-.849-.859 2.146 2.121.85zm121.233 273.445l9.28 1.126.275-2.267-9.28-1.127-.275 2.268zm8.279-.1l-.561 6.912 2.277.185.561-6.912-2.277-.185zm.578 7.004l-1.084-.36v.001l-.001.001-.002.006-.008.025-.031.094-.119.359-.434 1.305-1.377 4.146-2.656 7.996 2.168.72 2.656-7.996 1.377-4.146.433-1.305.12-.359.031-.094.008-.024.002-.007.001-.001-1.084-.361zm-5.712 13.573a2.94 2.94 0 01-.038.114l-.001.005c-.001 0 .724 1.444 2.167.72h.001v-.002l.115-.347 1.267-3.814-2.168-.72-1.267 3.814-.115.347v.002c1.443-.724 2.168.719 2.168.72l.001-.005a2.94 2.94 0 00.038-.114l-2.168-.72zm1.343-4.044l-.548 1.652a27.337 27.337 0 00-.118.354s.724 1.443 2.168.72v-.001l.001-.003.004-.011.042-.125 2.36-7.107-2.168-.72-2.36 7.107-.042.125-.004.011-.001.003.001-.001c1.443-.723 2.167.72 2.167.721l.002-.004.004-.012.111-.337.549-1.652-2.168-.72zm1.741-5.241l-.681 2.051-.189.569-.039.116-.003.009v.002c.724 1.443 2.168.72 2.168.72v-.001l.009-.026 2.246-6.764-2.167-.72-2.247 6.764-.009.026s1.444-.723 2.168.72v-.001l.003-.009.039-.116.189-.569.681-2.051-2.168-.72zm1.344-4.044l-4.05 12.19-.506 1.524-.063.191a.303.303 0 00-.008.024l-.001.003v-.001c.001-.004.003-.008 1.084.361 1.08.37 1.082.365 1.083.361h.001v-.001l.001-.003a.303.303 0 01.008-.024l.063-.191.506-1.524 4.049-12.19-2.167-.72zm-3.407 13.158l-4.207-.51-.275 2.268 4.207.51.275-2.268zm-3.203.58l-.565-14.804-2.283.087.565 14.804 2.283-.087zm-.573-14.623l.881-7.259-2.268-.275-.881 7.259 2.268.275zm.356-8.451l9.28 1.126.275-2.267-9.28-1.127-.275 2.268zm8.337-.376l-.746 2.188 2.162.737.746-2.188-2.162-.737zm-7.865 1.799l.747-2.188-2.162-.737-.747 2.188 2.162.737zm7.807-1.523l-.56 6.913 2.277.184.56-6.912-2.277-.185zm-.503 6.636l-.745 2.189 2.162.736.745-2.188-2.162-.737zm1.474 2.649l.561-6.912-2.277-.184-.561 6.912 2.277.184zm.504-6.636l.745-2.188-2.162-.737-.746 2.189 2.163.736zm-9.36 3.714l.881-7.259-2.267-.275-.881 7.259 2.267.275zm-1.334-7.765l-.745 2.188 2.162.737.746-2.188-2.163-.737zm-.798 2.419l-.881 7.259 2.268.275.881-7.259-2.268-.275zm1.334 7.765l.746-2.188-2.163-.737-.745 2.188 2.162.737zm-.43-1.416l9.601.779.185-2.277-9.601-.779-.185 2.277zm8.612-.728l-.745 2.188 2.162.737.745-2.188-2.162-.737zm.428 1.418l-9.601-.779-.184 2.277 9.6.779.185-2.277zm-8.612.728l.746-2.188-2.163-.737-.745 2.188 2.162.737zm8.798 3.23l1.344-4.044-2.168-.72-1.343 4.044 2.167.72zm-.821-4.773l-.746 2.188 2.162.737.746-2.188-2.162-.737zm-.749 2.197l-2.247 6.764-.008.026s1.444-.723 2.168.72v-.001l.003-.009.039-.116.189-.569.681-2.051-2.168-.72-.681 2.051-.189.569-.039.116-.003.009v.002c.723 1.443 2.167.72 2.167.72l.001-.001.008-.026 2.247-6.764-2.168-.72zm.822 4.772l.746-2.188-2.163-.737-.745 2.188 2.162.737zm-1.419-2.916l-.763 2.296-.135.405-.011.035-.003.008-.001.002c1.444-.723 2.168.721 2.168.721l.016-.047.896-2.7-2.167-.72-.897 2.7-.016.046c0 .001.724 1.445 2.168.721v-.001l.001-.002.003-.008.011-.035.135-.405.762-2.296-2.167-.72zm1.548-4.647l-4.628 13.932 2.168.721 4.628-13.933-2.168-.72zm-4.625 13.924l-.746 2.188 2.163.737.745-2.188-2.162-.737zm1.42 2.917l4.627-13.933-2.168-.72-4.627 13.933 2.168.72zm4.625-13.925l.745-2.188-2.162-.736-.746 2.188 2.163.736zm-2.538 7.693l1.741-5.242-2.168-.72-1.741 5.242 2.168.72zm-.424-5.97l-.745 2.188 2.162.737.745-2.188-2.162-.737zm-.748 2.196l-1.741 5.242 2.168.72 1.741-5.242-2.168-.72zm.424 5.97l.745-2.188-2.162-.737-.745 2.188 2.162.737zm1.666-12.203l-4.627 13.933 2.167.72 4.628-13.933-2.168-.72zm-4.625 13.924l-.745 2.188 2.162.737.746-2.188-2.163-.737zm1.42 2.917l4.628-13.933-2.168-.72-4.628 13.933 2.168.72zm4.625-13.924l.746-2.189-2.163-.736-.745 2.188 2.162.737zm-8.029 10.822l-.566-14.804-2.282.087.565 14.804 2.283-.087zm-2.788-15.129l-.746 2.188 2.163.737.745-2.188-2.162-.737zm-.806 2.6l.565 14.804 2.283-.087-.565-14.804-2.283.087zm2.788 15.129l.745-2.188-2.162-.737-.745 2.188 2.162.737zm5.155-2.29l1.343-4.044-2.168-.72-1.343 4.044 2.168.72zm-.822-4.772l-.746 2.188 2.162.736.746-2.188-2.162-.736zm-.749 2.196l-1.343 4.044 2.168.72 1.343-4.044-2.168-.72zm.822 4.772l.746-2.188-2.162-.737-.746 2.189 2.162.736zm-.394-3.087l-4.207-.51-.275 2.267 4.207.511.275-2.268zm-5.426.255l-.746 2.188 2.163.737.745-2.188-2.162-.737zm.198 3.69l4.207.511.276-2.268-4.208-.51-.275 2.267zm5.426-.255l.746-2.188-2.163-.737-.745 2.189 2.162.736zm35.016 480.469l-11.726-26.844-2.094.915 11.727 26.843 2.093-.914zm-11.726-26.844c.041.095.039.2.004.287l-2.121-.848c-.182.457-.19.988.023 1.476l2.094-.915zm.004.287a.374.374 0 01-.196.203l-.914-2.094c-.48.21-.831.594-1.011 1.043l2.121.848zm-.196.203l.955-.417-.914-2.094-.955.417.914 2.094zm1.544-1.921l-5.209-11.926-2.094.914 5.21 11.926 2.093-.914zm-5.209-11.926a.376.376 0 01.004.287l-2.12-.849a1.91 1.91 0 00.022 1.476l2.094-.914zm.004.287a.369.369 0 01-.196.202l-.914-2.093a1.907 1.907 0 00-1.01 1.042l2.12.849zm-.196.202l6.899-3.013-.915-2.093-6.898 3.013.914 2.093zm6.899-3.013a.37.37 0 01-.489-.192l2.093-.914a1.913 1.913 0 00-2.519-.987l.915 2.093zm-.489-.192l5.209 11.926 2.094-.914-5.21-11.926-2.093.914zm6.713 12.516l.956-.418-.914-2.093-.956.417.914 2.094zm.956-.418a.372.372 0 01-.489-.192l2.093-.914a1.912 1.912 0 00-2.518-.987l.914 2.093zm-.489-.192l11.726 26.844 2.094-.914-11.727-26.844-2.093.914zm11.726 26.844a.376.376 0 01-.004-.287l2.121.849c.182-.457.19-.988-.023-1.476l-2.094.914zm-.004-.287a.369.369 0 01.196-.202l.914 2.093c.48-.209.831-.594 1.011-1.042l-2.121-.849zm.196-.202l-1.621.708.914 2.093 1.621-.708-.914-2.093zm9.388 28.764a.376.376 0 01-.004-.287l2.121.849a1.91 1.91 0 00-.023-1.476l-2.094.914zm-.004-.287a.369.369 0 01.196-.202l.915 2.093c.479-.209.83-.594 1.01-1.042l-2.121-.849zm.196-.202l-1.288.562.914 2.094 1.289-.563-.915-2.093zm-1.728 2.316l4.717 5.991 1.795-1.414-4.718-5.991-1.794 1.414zm4.717 5.991a.373.373 0 01-.053-.367l2.121.848c.24-.6.174-1.326-.273-1.895l-1.795 1.414zm-.053-.367a.376.376 0 01.196-.204l.915 2.094a1.912 1.912 0 001.01-1.042l-2.121-.848zm.196-.204l-5.191 2.267.914 2.094 5.192-2.267-.915-2.094zm-5.191 2.267a.372.372 0 01.513.268l-2.24.449a1.913 1.913 0 002.641 1.377l-.914-2.094zm.513.268l-1.49-7.434-2.24.449 1.49 7.434 2.24-.449zm-3.067-8.257l-.956.418.914 2.093.956-.417-.914-2.094zm-.956.418a.37.37 0 01.489.192l-2.093.914a1.912 1.912 0 002.518.987l-.914-2.093zm-12.613-26.95l-1.62.707.914 2.094 1.62-.708-.914-2.093zm-1.62.707a.372.372 0 01.489.192l-2.093.914a1.913 1.913 0 002.518.988l-.914-2.094zm-7.689-44.651a.37.37 0 01-.234-.089l1.491-1.731a1.914 1.914 0 00-1.21-.464l-.047 2.284zm-.234-.089a.759.759 0 01-.263-.504.415.415 0 01.023-.191l2.12.848c.138-.342.352-1.246-.389-1.884l-1.491 1.731zm-.24-.695l-.509 1.27 2.121.849.508-1.271-2.12-.848zm-.509 1.27a.815.815 0 01.588-.517.435.435 0 01.256.03l-.85 2.121c.314.126.671.155.99.098.285-.05.879-.24 1.137-.883l-2.121-.849zm.844-.487a.433.433 0 01.199.148.688.688 0 01.107.232.89.89 0 01-.039.547l-2.121-.849c-.26.65.048 1.201.217 1.43.193.26.472.487.787.613l.85-2.121zm.267.927l.508-1.27-2.121-.849-.508 1.27 2.121.849zm.508-1.27a.426.426 0 01-.114.154.757.757 0 01-.522.19l.047-2.284c-.947-.019-1.396.753-1.532 1.091l2.121.849zm-7.069 3.194l4.78-2.088-.914-2.093-4.781 2.088.915 2.093zm4.78-2.088a.33.33 0 01-.439-.426l2.121.849c.649-1.622-.995-3.215-2.596-2.516l.914 2.093zm-.439-.426a.333.333 0 01.174-.18l.915 2.094c.47-.206.841-.588 1.032-1.065l-2.121-.849zm.174-.18l-4.78 2.088.914 2.094 4.781-2.088-.915-2.094zm-4.78 2.088a.33.33 0 01.439.426l-2.121-.849c-.649 1.623.995 3.216 2.596 2.517l-.914-2.094zm.439.426a.327.327 0 01-.174.18l-.915-2.093c-.47.205-.841.588-1.032 1.064l2.121.849zm6.713-1.088l4.285 9.808 2.093-.915-4.284-9.808-2.094.915zm4.285 9.808a.316.316 0 01-.004-.247l2.121.849a1.966 1.966 0 00-.024-1.517l-2.093.915zm-.004-.247a.318.318 0 01.588-.009l-2.093.914c.698 1.599 2.978 1.563 3.626-.056l-2.121-.849zm.588-.009l-4.284-9.808-2.093.915 4.284 9.807 2.093-.914zm-4.284-9.808a.32.32 0 01.004.247l-2.121-.849a1.966 1.966 0 00.024 1.517l2.093-.915zm.004.247a.32.32 0 01-.589.009l2.094-.915c-.698-1.598-2.978-1.562-3.626.057l2.121.849zm-8.446 3.355l.859-2.146-2.121-.849-.859 2.146 2.121.849zm.859-2.146a.988.988 0 01-.507.519c-.383.177-.797.1-1.082-.112a.964.964 0 01-.348-1.119l2.121.849c.163-.407.188-1.118-.409-1.562a1.215 1.215 0 00-1.239-.13 1.303 1.303 0 00-.657.706l2.121.849zm-1.937-.712l-.512 1.281 2.121.848.512-1.28-2.121-.849zm-.512 1.281c.028-.071.058-.096.025-.058-.016.019-.037.041-.075.081-.032.034-.084.088-.134.145l1.707 1.517.085-.09c.036-.039.09-.095.144-.158.107-.123.261-.32.369-.589l-2.121-.848zm-.184.168a1.896 1.896 0 00-.346.56l2.12.849a.348.348 0 01-.067.108l-1.707-1.517zm2.659-.863a.386.386 0 01-.026.124l-2.121-.848a1.92 1.92 0 00-.136.642l2.283.082zm-2.147-.724l-.859 2.145 2.121.849.859-2.146-2.121-.848zm-.859 2.145a1.304 1.304 0 00-.01.973c.181.451.585.71.992.758.735.086 1.21-.442 1.375-.854l-2.121-.849a.956.956 0 011.012-.566c.349.041.704.267.862.66a.984.984 0 01.011.727l-2.121-.849zm2.357.877l.504-1.259-2.121-.849-.504 1.259 2.121.849zm.504-1.259c.11-.275.133-.531.14-.697.004-.084.004-.164.004-.217l.001-.125-2.283-.082c-.003.081-.003.159-.003.209.001.058 0 .09-.001.117-.002.055-.007.017.021-.054l2.121.849zm13.846 8.211a.37.37 0 01-.234-.09l1.491-1.73a1.914 1.914 0 00-1.21-.464l-.047 2.284zm-.234-.09a.757.757 0 01-.263-.504.418.418 0 01.023-.191l2.121.849c.137-.343.351-1.246-.39-1.884l-1.491 1.73zm-.24-.695l-.509 1.27 2.121.849.509-1.27-2.121-.849zm-.509 1.27a.815.815 0 01.588-.517.436.436 0 01.256.031l-.85 2.12c.314.126.671.155.99.099.285-.05.88-.24 1.137-.884l-2.121-.849zm.844-.486a.421.421 0 01.199.148c.025.034.075.11.107.232a.887.887 0 01-.039.546l-2.121-.849c-.26.65.048 1.202.218 1.43.192.261.471.487.786.613l.85-2.12zm.267.926l.508-1.27-2.121-.848-.508 1.269 2.121.849zm.508-1.27c-.007.017-.033.081-.114.155a.757.757 0 01-.522.19l.047-2.284c-.947-.02-1.396.753-1.532 1.091l2.121.848zm-.677 1.698l.472-1.178-2.121-.849-.471 1.178 2.12.849zm.472-1.178c.501-1.252-.768-2.482-2.004-1.943l.914 2.094a.776.776 0 01-1.031-.999l2.121.848zm-2.004-1.943c-.364.159-.65.454-.797.822l2.121.849a.78.78 0 01-.41.423l-.914-2.094zm-.797.822l-.471 1.178 2.12.849.472-1.178-2.121-.849zm-.471 1.178c-.502 1.253.768 2.482 2.004 1.943l-.915-2.094a.776.776 0 011.031 1l-2.12-.849zm2.004 1.943c.363-.159.649-.454.796-.822l-2.12-.849a.777.777 0 01.409-.423l.915 2.094zm-7.824.024l-4.284-9.808-2.094.915 4.285 9.807 2.093-.914zm-4.284-9.808c-.698-1.598-2.978-1.562-3.626.057l2.121.849a.32.32 0 01-.589.009l2.094-.915zm-3.626.057a1.966 1.966 0 00.024 1.517l2.093-.915a.32.32 0 01.004.247l-2.121-.849zm.024 1.517l4.284 9.807 2.093-.914-4.284-9.808-2.093.915zm4.284 9.807c.698 1.598 2.978 1.563 3.626-.056l-2.121-.849a.318.318 0 01.588-.009l-2.093.914zm3.626-.056a1.966 1.966 0 00-.024-1.517l-2.093.914a.314.314 0 01-.004-.246l2.121.849zm5.107-4.629l-6.193 2.705.915 2.093 6.192-2.705-.914-2.093zm-6.193 2.705c-.47.205-.841.588-1.032 1.064l2.121.849a.33.33 0 01-.174.18l-.915-2.093zm-1.032 1.064c-.649 1.623.995 3.216 2.596 2.516l-.914-2.093a.33.33 0 01.439.426l-2.121-.849zm2.596 2.516l6.193-2.704-.914-2.094-6.193 2.705.914 2.093zm6.193-2.704c.47-.206.841-.588 1.032-1.065l-2.121-.849a.332.332 0 01.175-.18l.914 2.094zm1.032-1.065c.649-1.622-.995-3.215-2.596-2.516l.914 2.093a.33.33 0 01-.439-.426l2.121.849zm-8.377 3.801l.471-1.179-2.12-.849-.472 1.179 2.121.849zm.471-1.179c.502-1.253-.768-2.482-2.003-1.942l.914 2.093a.776.776 0 01-1.031-1l2.12.849zm-2.003-1.942a1.508 1.508 0 00-.797.821l2.121.849a.776.776 0 01-.41.423l-.914-2.093zm-.797.821l-.471 1.179 2.121.849.471-1.179-2.121-.849zm-.471 1.179c-.502 1.253.768 2.482 2.003 1.942l-.914-2.093a.777.777 0 011.032 1l-2.121-.849zm2.003 1.942c.363-.158.649-.454.797-.821l-2.121-.849a.773.773 0 01.41-.423l.914 2.093zm-.09-.576l.513-1.28-2.121-.849-.513 1.28 2.121.849zm.513-1.28c.162-.406.187-1.118-.41-1.563a1.217 1.217 0 00-1.239-.129c-.388.179-.574.5-.656.706l2.12.849a.984.984 0 01-.507.519c-.382.177-.797.1-1.082-.112a.963.963 0 01-.347-1.119l2.121.849zm-2.305-.986l-.859 2.146 2.121.849.858-2.146-2.12-.849zm1.262 2.995a.377.377 0 01-.068.108l-1.707-1.518a1.909 1.909 0 00-.346.561l2.121.849zm-.068.108l.085-.091c.037-.038.09-.095.144-.157.107-.124.262-.321.369-.589l-2.121-.849c.028-.07.058-.096.025-.057a3.281 3.281 0 01-.074.08 5.077 5.077 0 00-.135.145l1.707 1.518zm-1.195-3.101a1.92 1.92 0 00-.136.642l2.283.082a.398.398 0 01-.026.124l-2.121-.848zm-.136.642c-.003.08-.002.158-.002.208l-.002.118c-.002.055-.007.016.021-.054l2.121.849c.11-.276.133-.532.141-.698.003-.083.003-.163.003-.216l.001-.125-2.283-.082zm.017.272l-.504 1.259 2.121.849.504-1.259-2.121-.849zm-.504 1.259a.956.956 0 011.012-.566c.349.041.704.267.862.66a.985.985 0 01.011.727l-2.121-.848c-.083.208-.17.573-.01.972.181.451.585.71.992.758.735.086 1.21-.442 1.375-.854l-2.121-.849zm1.885.821l.859-2.146-2.121-.849-.859 2.146 2.121.849zm24.078 19.013l-10.801-24.725-2.094.914 10.801 24.726 2.094-.915zm-10.801-24.725c-.698-1.598-2.978-1.563-3.626.056l2.121.849a.32.32 0 01-.589.009l2.094-.914zm-3.626.056a1.966 1.966 0 00.024 1.517l2.093-.914a.318.318 0 01.004.246l-2.121-.849zm.024 1.517l10.801 24.725 2.093-.914-10.801-24.725-2.093.914zm10.801 24.725c.698 1.599 2.977 1.563 3.625-.056l-2.12-.849a.319.319 0 01.588-.009l-2.093.914zm3.625-.056a1.966 1.966 0 00-.023-1.517l-2.094.915a.32.32 0 01-.003-.247l2.12.849zm-24.553-20.248l10.8 24.726 2.094-.915-10.801-24.725-2.093.914zm10.8 24.726a.32.32 0 01-.003-.247l2.12.849a1.966 1.966 0 00-.023-1.517l-2.094.915zm-.003-.247a.319.319 0 01.588-.009l-2.093.915c.698 1.598 2.977 1.563 3.625-.057l-2.12-.849zm.588-.009l-10.801-24.725-2.093.914 10.801 24.726 2.093-.915zm-10.801-24.725a.318.318 0 01.004.246l-2.121-.848a1.963 1.963 0 00.024 1.516l2.093-.914zm.004.246a.318.318 0 01-.588.009l2.093-.914c-.698-1.598-2.978-1.563-3.626.057l2.121.848zm23.242 22.679l.859-2.146-2.121-.849-.859 2.146 2.121.849zm.859-2.146c.083-.208.17-.573.009-.973a1.216 1.216 0 00-.992-.757c-.735-.087-1.209.441-1.374.854l2.12.848a.953.953 0 01-1.012.566 1.065 1.065 0 01-.861-.659.977.977 0 01-.011-.728l2.121.849zm-2.357-.876l-.505 1.259 2.121.849.504-1.26-2.12-.848zm-.505 1.259c-.11.275-.133.531-.14.697-.004.084-.003.163-.003.217l-.001.125 2.283.081c.002-.08.002-.158.002-.208l.001-.117c.003-.055.008-.017-.021.054l-2.121-.849zm-.144 1.039a.34.34 0 01.026-.124l2.121.848a1.92 1.92 0 00.136-.643l-2.283-.081zm2.662-.862c.148-.166.264-.356.346-.56l-2.121-.849a.368.368 0 01.067-.108l1.708 1.517zm-1.775-1.409l-.859 2.146 2.121.849.859-2.146-2.121-.849zm-.859 2.146a.984.984 0 01.507-.519c.383-.177.797-.1 1.082.112a.962.962 0 01.348 1.119l-2.121-.849c-.163.406-.188 1.118.409 1.562.331.247.802.332 1.24.13a1.3 1.3 0 00.656-.706l-2.121-.849zm1.937.712l.512-1.28-2.121-.849-.512 1.28 2.121.849zm.512-1.28c-.028.07-.058.095-.025.057l.075-.081c.032-.034.084-.088.135-.145l-1.708-1.517c-.02.023-.043.046-.085.091-.036.038-.09.094-.144.157-.107.123-.261.32-.369.589l2.121.849zm-1.795 1.137l.201-.505-2.121-.848-.201.504 2.121.849zm.201-.505a.52.52 0 01-.275.285l-.914-2.094a1.769 1.769 0 00-.932.961l2.121.848zm-.275.285a.522.522 0 01-.693-.672l2.121.849c.586-1.464-.898-2.902-2.342-2.271l.914 2.094zm-.693-.672l-.201.504 2.121.849.201-.504-2.121-.849zm-.201.504a.524.524 0 01.275-.284l.914 2.093c.425-.185.759-.53.932-.96l-2.121-.849zm.275-.284a.522.522 0 01.693.672l-2.121-.849c-.586 1.464.898 2.901 2.342 2.27l-.914-2.093zm3.456 4.719l-1.689-3.865-2.093.914 1.689 3.865 2.093-.914zm-1.689-3.865c-.698-1.599-2.977-1.563-3.625.056l2.121.849a.32.32 0 01-.589.009l2.093-.914zm-3.625.056a1.966 1.966 0 00.023 1.517l2.094-.914a.323.323 0 01.004.246l-2.121-.849zm.023 1.517l1.689 3.865 2.093-.914-1.688-3.865-2.094.914zm1.689 3.865c.698 1.599 2.977 1.563 3.626-.056l-2.121-.849a.318.318 0 01.588-.009l-2.093.914zm3.626-.056a1.97 1.97 0 00-.024-1.517l-2.093.914a.314.314 0 01-.004-.246l2.121.849zm-9.766-2.766l4.863-2.124-.915-2.093-4.863 2.124.915 2.093zm4.863-2.124a.331.331 0 01-.44-.426l2.121.849c.65-1.622-.995-3.215-2.596-2.516l.915 2.093zm-.44-.426a.335.335 0 01.175-.18l.914 2.093a1.946 1.946 0 001.032-1.064l-2.121-.849zm.175-.18l-4.863 2.124.914 2.093 4.863-2.124-.914-2.093zm-4.863 2.124a.33.33 0 01.439.426l-2.12-.849c-.65 1.623.995 3.216 2.595 2.516l-.914-2.093zm.439.426a.33.33 0 01-.174.18l-.915-2.093a1.95 1.95 0 00-1.031 1.064l2.12.849zm-1.792 1.14l.202-.506-2.121-.848-.202.505 2.121.849zm.202-.506a.52.52 0 01-.276.285l-.914-2.094c-.424.186-.759.53-.931.961l2.121.848zm-.276.285a.522.522 0 01-.693-.672l2.121.848c.586-1.463-.898-2.901-2.342-2.27l.914 2.094zm-.693-.672l-.202.505 2.121.849.202-.506-2.121-.848zm-.202.505a.517.517 0 01.275-.284l.915 2.093c.424-.185.759-.53.931-.96l-2.121-.849zm.275-.284a.522.522 0 01.694.672l-2.121-.849c-.586 1.464.897 2.901 2.342 2.27l-.915-2.093zm.254 1.769l.508-1.27-2.121-.849-.508 1.27 2.121.849zm.508-1.27c.26-.65-.048-1.201-.217-1.43a1.87 1.87 0 00-.787-.613l-.849 2.12a.424.424 0 01-.2-.147.688.688 0 01-.107-.232.89.89 0 01.039-.547l2.121.849zm-1.004-2.043a1.84 1.84 0 00-.99-.098c-.285.05-.879.24-1.137.883l2.121.849a.815.815 0 01-.588.517.425.425 0 01-.255-.031l.849-2.12zm-2.127.785l-.508 1.271 2.12.848.509-1.27-2.121-.849zm-.508 1.271c-.138.342-.351 1.246.389 1.884l1.491-1.731a.759.759 0 01.263.504.415.415 0 01-.023.191l-2.12-.848zm.389 1.884c.337.29.765.455 1.21.464l.047-2.284a.37.37 0 01.234.089l-1.491 1.731zm1.21.464c.947.019 1.396-.753 1.532-1.091l-2.121-.849a.44.44 0 01.114-.154.757.757 0 01.522-.19l-.047 2.284zm10.15-1.38l-4.863 2.124.914 2.093 4.863-2.124-.914-2.093zm-4.863 2.124a1.95 1.95 0 00-1.032 1.064l2.121.849a.332.332 0 01-.175.18l-.914-2.093zm-1.032 1.064c-.65 1.623.995 3.215 2.596 2.516l-.915-2.093a.331.331 0 01.44.426l-2.121-.849zm2.596 2.516l4.863-2.124-.915-2.093-4.863 2.124.915 2.093zm4.863-2.124a1.95 1.95 0 001.031-1.064l-2.12-.849a.33.33 0 01.174-.18l.915 2.093zm1.031-1.064c.65-1.623-.995-3.215-2.595-2.516l.914 2.093a.33.33 0 01-.439-.426l2.12.849zm3.924 4.61l-2.414-5.527-2.094.914 2.415 5.528 2.093-.915zm-2.414-5.527c-.699-1.598-2.978-1.563-3.626.056l2.121.849a.32.32 0 01-.589.009l2.094-.914zm-3.626.056a1.961 1.961 0 00.024 1.517l2.093-.914a.318.318 0 01.004.246l-2.121-.849zm.024 1.517l2.414 5.528 2.094-.915-2.415-5.527-2.093.914zm2.414 5.528c.698 1.598 2.978 1.562 3.626-.057l-2.121-.849a.32.32 0 01.589-.009l-2.094.915zm3.626-.057a1.966 1.966 0 00-.024-1.517l-2.093.915a.32.32 0 01-.004-.247l2.121.849zm-14.126-9.064l1.688 3.865 2.093-.914-1.688-3.866-2.093.915zm1.688 3.865a.318.318 0 01-.004-.246l2.121.849a1.966 1.966 0 00-.024-1.517l-2.093.914zm-.004-.246a.32.32 0 01.589-.009l-2.094.914c.699 1.598 2.978 1.563 3.626-.056l-2.121-.849zm.589-.009l-1.689-3.866-2.093.915 1.688 3.865 2.094-.914zm-1.689-3.866a.316.316 0 01.004.247l-2.121-.849a1.966 1.966 0 00.024 1.517l2.093-.915zm.004.247a.319.319 0 01-.588.009l2.093-.915c-.698-1.598-2.978-1.562-3.626.057l2.121.849zm2.023 5.992l2.414 5.528 2.094-.915-2.415-5.527-2.093.914zm2.414 5.528a.325.325 0 01-.004-.247l2.121.849a1.966 1.966 0 00-.023-1.517l-2.094.915zm-.004-.247a.32.32 0 01.589-.009l-2.093.914c.698 1.599 2.977 1.563 3.625-.056l-2.121-.849zm.589-.009l-2.415-5.527-2.093.914 2.415 5.527 2.093-.914zm-2.415-5.527a.314.314 0 01.004.246l-2.121-.849a1.97 1.97 0 00.024 1.517l2.093-.914zm.004.246a.318.318 0 01-.588.009l2.093-.914c-.698-1.599-2.977-1.563-3.626.056l2.121.849zm13.879 8.388l-2.052-4.696-2.093.914 2.052 4.697 2.093-.915zm-2.052-4.696c-.698-1.598-2.977-1.563-3.625.056l2.121.849a.32.32 0 01-.589.009l2.093-.914zm-3.625.056a1.966 1.966 0 00.023 1.517l2.094-.914a.323.323 0 01.004.246l-2.121-.849zm.023 1.517l2.052 4.697 2.093-.915-2.051-4.696-2.094.914zm2.052 4.697c.698 1.598 2.978 1.562 3.626-.057l-2.121-.849a.319.319 0 01.588-.009l-2.093.915zm3.626-.057a1.97 1.97 0 00-.024-1.517l-2.093.915a.316.316 0 01-.004-.247l2.121.849zm-10.126-3.597l4.863-2.123-.914-2.094-4.863 2.124.914 2.093zm4.863-2.123a.33.33 0 01-.439-.426l2.12.848c.65-1.622-.995-3.215-2.595-2.516l.914 2.094zm-.439-.426a.332.332 0 01.174-.181l.915 2.094c.47-.206.841-.588 1.031-1.065l-2.12-.848zm.174-.181l-4.863 2.124.915 2.094 4.863-2.124-.915-2.094zm-4.863 2.124a.331.331 0 01.44.426l-2.121-.848c-.649 1.622.995 3.215 2.596 2.516l-.915-2.094zm.44.426a.329.329 0 01-.175.18l-.914-2.093a1.954 1.954 0 00-1.032 1.065l2.121.848zm12.597 8.367l-1.743-3.991-2.094.915 1.743 3.99 2.094-.914zm-1.743-3.991c-.699-1.598-2.978-1.563-3.626.057l2.121.849a.32.32 0 01-.589.009l2.094-.915zm-3.626.057a1.966 1.966 0 00.024 1.517l2.093-.915a.32.32 0 01.004.247l-2.121-.849zm.024 1.517l1.743 3.99 2.093-.915-1.743-3.99-2.093.915zm1.743 3.99c.698 1.598 2.977 1.563 3.625-.057l-2.121-.848a.32.32 0 01.589-.01l-2.093.915zm3.625-.057a1.963 1.963 0 00-.023-1.516l-2.094.914a.323.323 0 01-.004-.246l2.121.848zm-5.871-7.104l-4.863 2.124.914 2.093 4.863-2.124-.914-2.093zm-4.863 2.124a1.95 1.95 0 00-1.032 1.064l2.121.849a.335.335 0 01-.175.18l-.914-2.093zm-1.032 1.064c-.649 1.622.995 3.215 2.596 2.516l-.915-2.093a.331.331 0 01.44.426l-2.121-.849zm2.596 2.516l4.863-2.124-.915-2.093-4.863 2.124.915 2.093zm4.863-2.124a1.95 1.95 0 001.031-1.064l-2.12-.849a.33.33 0 01.174-.18l.915 2.093zm1.031-1.064c.65-1.623-.995-3.216-2.595-2.516l.914 2.093a.33.33 0 01-.439-.426l2.12.849zm-10.542-3.768l2.051 4.697 2.094-.915-2.052-4.696-2.093.914zm2.051 4.697a.325.325 0 01-.004-.247l2.121.849a1.966 1.966 0 00-.023-1.517l-2.094.915zm-.004-.247a.32.32 0 01.589-.009l-2.093.914c.698 1.599 2.977 1.563 3.625-.056l-2.121-.849zm.589-.009l-2.051-4.696-2.094.914 2.052 4.696 2.093-.914zm-2.051-4.696a.318.318 0 01.003.246l-2.12-.849a1.966 1.966 0 00.023 1.517l2.094-.914zm.003.246a.318.318 0 01-.588.009l2.093-.914c-.698-1.598-2.977-1.563-3.625.056l2.12.849zm12.507 10.788l.859-2.146-2.121-.849-.858 2.146 2.12.849zm.859-2.146a1.3 1.3 0 00.01-.973 1.22 1.22 0 00-.992-.758c-.735-.086-1.21.442-1.375.854l2.121.849a.955.955 0 01-1.012.566 1.063 1.063 0 01-.861-.659.984.984 0 01-.012-.728l2.121.849zm-2.357-.877l-.504 1.26 2.121.849.504-1.26-2.121-.849zm-.504 1.26c-.11.275-.133.531-.14.697-.004.084-.004.163-.004.217l-.001.125 2.283.081c.003-.08.003-.158.003-.208l.001-.117c.002-.055.007-.017-.021.054l-2.121-.849zm-.145 1.039a.373.373 0 01.027-.125l2.12.849c.082-.203.128-.42.136-.643l-2.283-.081zm2.659-.862c.149-.167.265-.357.346-.56l-2.12-.849a.341.341 0 01.067-.108l1.707 1.517zm-1.774-1.409l-.859 2.146 2.121.849.858-2.146-2.12-.849zm-.859 2.146a.98.98 0 01.507-.519c.382-.177.797-.1 1.082.112a.961.961 0 01.347 1.119l-2.12-.849c-.163.406-.188 1.118.409 1.562.331.247.802.332 1.239.13.388-.179.574-.5.657-.706l-2.121-.849zm1.936.712l.513-1.28-2.121-.849-.512 1.28 2.12.849zm.513-1.28c-.028.07-.058.095-.025.057.016-.019.037-.041.074-.081.033-.034.085-.088.135-.145l-1.707-1.517-.085.09c-.037.039-.09.095-.144.158-.107.123-.262.32-.369.589l2.121.849zm-1.574 1.282l.336-.84-2.12-.849-.337.841 2.121.848zm.336-.84a.646.646 0 01-.342.353l-.915-2.093a1.636 1.636 0 00-.864.891l2.121.849zm-.342.353a.649.649 0 01-.862-.836l2.121.849c.544-1.358-.833-2.692-2.174-2.106l.915 2.093zm-.862-.836l-.336.841 2.12.849.337-.841-2.121-.849zm-.336.841a.646.646 0 01.342-.353l.914 2.093c.394-.172.705-.492.864-.891l-2.12-.849zm.342-.353a.648.648 0 01.862.835l-2.121-.848c-.544 1.358.833 2.692 2.173 2.106l-.914-2.093zm-8.015-2.995l1.743 3.99 2.093-.914-1.743-3.99-2.093.914zm1.743 3.99a.314.314 0 01-.004-.246l2.121.849a1.966 1.966 0 00-.024-1.517l-2.093.914zm-.004-.246a.318.318 0 01.588-.009l-2.093.914c.698 1.599 2.978 1.563 3.626-.056l-2.121-.849zm.588-.009l-1.743-3.99-2.093.914 1.743 3.99 2.093-.914zm-1.743-3.99a.318.318 0 01.004.246l-2.121-.849a1.966 1.966 0 00.024 1.517l2.093-.914zm.004.246a.318.318 0 01-.588.009l2.093-.914c-.698-1.598-2.978-1.563-3.626.056l2.121.849zm5.076 4.753l1.206-.526-.914-2.094-1.206.527.914 2.093zm1.206-.526a.33.33 0 01-.439-.426l2.121.848c.649-1.622-.996-3.215-2.596-2.516l.914 2.094zm-.439-.426a.332.332 0 01.174-.181l.915 2.094c.47-.206.841-.588 1.032-1.065l-2.121-.848zm.174-.181l-1.206.527.915 2.094 1.206-.527-.915-2.094zm-1.206.527a.331.331 0 01.44.426l-2.121-.849c-.649 1.623.995 3.216 2.596 2.517l-.915-2.094zm.44.426a.328.328 0 01-.175.18l-.914-2.093a1.953 1.953 0 00-1.032 1.064l2.121.849zm7.712 2.724l-3.54-4.496-1.795 1.413 3.54 4.496 1.795-1.413zm-3.54-4.496c-.936-1.189-2.809-.919-3.371.486l2.121.849a.318.318 0 01-.545.078l1.795-1.413zm-3.371.486l-.152.379 2.121.849.152-.379-2.121-.849zm-.152.379a1.968 1.968 0 00.281 1.948l1.795-1.414c.07.09.087.21.045.315l-2.121-.849zm.281 1.948l3.54 4.495 1.795-1.413-3.54-4.496-1.795 1.414zm3.54 4.495c.936 1.189 2.809.92 3.371-.485l-2.121-.849a.318.318 0 01.545-.079l-1.795 1.413zm3.371-.485l.152-.38-2.121-.849-.152.38 2.121.849zm.152-.38a1.966 1.966 0 00-.281-1.947l-1.795 1.413a.32.32 0 01-.045-.315l2.121.849zm-9.351-3.247l.472-1.177-2.121-.849-.471 1.178 2.12.848zm.472-1.177a.78.78 0 01-.41.423l-.914-2.094c-.364.159-.65.454-.797.822l2.121.849zm-.41.423a.776.776 0 01-1.031-1l2.121.849c.501-1.253-.769-2.483-2.004-1.943l.914 2.094zm-1.031-1l-.471 1.178 2.121.848.471-1.177-2.121-.849zm-.471 1.178a.773.773 0 01.41-.423l.914 2.093c.363-.158.649-.453.797-.822l-2.121-.848zm.41-.423c.635-.278 1.288.355 1.03.999l-2.12-.848c-.502 1.252.768 2.482 2.004 1.942l-.914-2.093zm.82 1.521l.508-1.27-2.121-.849-.508 1.27 2.121.849zm.508-1.27c.26-.65-.048-1.201-.217-1.43a1.87 1.87 0 00-.787-.613l-.85 2.121a.433.433 0 01-.199-.148.678.678 0 01-.107-.232.89.89 0 01.039-.547l2.121.849zm-1.004-2.043a1.84 1.84 0 00-.99-.098c-.285.05-.879.24-1.137.883l2.121.849a.815.815 0 01-.588.517.435.435 0 01-.256-.03l.85-2.121zm-2.127.785l-.508 1.271 2.12.848.509-1.27-2.121-.849zm-.508 1.271c-.138.342-.351 1.246.389 1.884l1.491-1.73a.755.755 0 01.263.503.415.415 0 01-.023.191l-2.12-.848zm.389 1.884c.337.29.765.455 1.21.464l.047-2.284a.365.365 0 01.234.09l-1.491 1.73zm1.21.464c.947.019 1.396-.753 1.532-1.091l-2.121-.849a.44.44 0 01.114-.154.757.757 0 01.522-.19l-.047 2.284zm10.517 4.103l.859-2.147-2.121-.848-.859 2.146 2.121.849zm.859-2.147c.097-.243.198-.679-.031-1.13a1.27 1.27 0 00-1.098-.692c-.679-.022-1.196.445-1.402.96l2.121.849c-.073.182-.318.489-.793.474a1.017 1.017 0 01-.866-.559.92.92 0 01-.052-.75l2.121.848zm-2.531-.862l-.382.954 2.121.849.382-.954-2.121-.849zm-.382.954a2.112 2.112 0 00-.132.924c.006.108.018.212.025.279.009.079.013.121.014.156l2.282-.108c-.005-.112-.017-.219-.025-.291l-.016-.171c-.005-.085.01-.034-.027.06l-2.121-.849zm-.093 1.359a.374.374 0 01.026-.153l2.121.848c.101-.253.148-.527.135-.803l-2.282.108zm2.659-.89c.149-.167.265-.358.345-.559l-2.12-.849a.382.382 0 01.067-.11l1.708 1.518zm-1.775-1.408l-.859 2.146 2.121.848.858-2.145-2.12-.849zm-.859 2.146a.985.985 0 01.508-.52 1.064 1.064 0 011.081.113.962.962 0 01.348 1.118l-2.121-.849c-.163.408-.187 1.119.408 1.562.33.246.8.333 1.239.131.388-.179.575-.5.658-.707l-2.121-.848zm1.937.711l.512-1.281-2.121-.849-.512 1.281 2.121.849zm.512-1.281c-.028.071-.058.097-.025.058.016-.018.037-.041.075-.08.032-.034.084-.089.135-.146l-1.708-1.518a2.57 2.57 0 01-.084.091c-.037.038-.09.095-.144.157a2.107 2.107 0 00-.37.589l2.121.849zm-9.381-4.148l1.035 5.167 2.24-.448-1.036-5.168-2.239.449zm1.035 5.167a.51.51 0 01.027-.289l2.121.848c.128-.319.16-.67.092-1.007l-2.24.448zm.027-.289c.188-.472.874-.408.974.089l-2.24.449c.347 1.729 2.731 1.948 3.387.31l-2.121-.848zm.974.089l-1.036-5.168-2.24.449 1.036 5.168 2.24-.449zm-1.036-5.168c.02.097.01.198-.026.29l-2.121-.849c-.128.32-.16.67-.093 1.008l2.24-.449zm-.026.29c-.189.471-.875.408-.974-.089l2.239-.449c-.346-1.73-2.731-1.949-3.386-.311l2.121.849zm3.041 6.505l3.072-1.342-.914-2.093-3.073 1.342.915 2.093zm3.072-1.342a.33.33 0 01-.439-.426l2.121.849c.649-1.623-.995-3.216-2.596-2.516l.914 2.093zm-.439-.426a.328.328 0 01.175-.18l.914 2.093a1.953 1.953 0 001.032-1.064l-2.121-.849zm.175-.18l-3.073 1.342.914 2.093 3.073-1.342-.914-2.093zm-3.073 1.342a.33.33 0 01.439.426l-2.121-.849c-.649 1.622.995 3.216 2.596 2.516l-.914-2.093zm.439.426a.333.333 0 01-.174.18l-.915-2.093c-.47.205-.841.588-1.032 1.064l2.121.849zm-1.728 1.109l.493-1.232-2.121-.849-.493 1.232 2.121.849zm.493-1.232a.884.884 0 01-.401.458c-.086.045-.143.052-.144.053h-.006c.001 0 .001 0 0 0l-.021-.003a.545.545 0 01-.081-.022l.77-2.151a2.145 2.145 0 00-1.001-.084 1.832 1.832 0 00-.577.184 1.402 1.402 0 00-.66.716l2.121.849zm-.653.486a.502.502 0 01-.243-.172.835.835 0 01-.08-.811l2.121.849c.26-.649-.051-1.196-.224-1.423a1.793 1.793 0 00-.804-.594l-.77 2.151zm-.323-.983l-.52 1.3 2.121.849.52-1.3-2.121-.849zm-.52 1.3a.42.42 0 01.114-.154.76.76 0 01.522-.19l-.047 2.284c.947.02 1.397-.754 1.532-1.091l-2.121-.849zm.636-.344a.37.37 0 01.329.215l-2.067.973a1.914 1.914 0 001.691 1.096l.047-2.284zm.329.215a.79.79 0 01.075.38.564.564 0 01-.037.178l-2.121-.849c-.102.255-.229.745.016 1.264l2.067-.973zm-10.215-36.249l11.599 26.552 2.094-.914-11.599-26.553-2.094.915zm6.711 28.687l-11.599-26.553-2.093.915 11.599 26.552 2.093-.914z" fill="#7831B2"/></svg>