<svg width="13" height="12" fill="none" xmlns="http://www.w3.org/2000/svg"><path d="M10.032 3.019a2.572 2.572 0 00-.836-.573 2.52 2.52 0 00-1.971 0 2.572 2.572 0 00-.836.573l-.248.254-.248.255-.496-.51m4.635 0c.239.246.429.537.558.858m-.558-.857l1.214-1.245m-5.85 1.245a2.543 2.543 0 00-1.82-.774m1.82.774L6.61 1.774m-3.033.471c-.684 0-1.339.278-1.822.774m1.822-.774L4.789 1M1.754 3.019A2.676 2.676 0 001 4.887m.754-1.868l1.214-1.245M1 4.887c0 .7.271 1.372.754 1.867M1 4.887L2.214 3.64m-.46 3.113L5.893 11l2.07-2.122 2.069-2.123c.239-.245.429-.536.558-.857a2.7 2.7 0 000-2.021M1.754 6.754L2.968 5.51M1.754 6.754l4.14 4.243 1.213-1.245L2.968 5.51m7.622-1.633l1.215-1.245m0 0c-.13-.32-.32-.612-.559-.857m.559.857a2.7 2.7 0 01-.56 2.878L7.107 9.754 2.968 5.509m8.278-3.735a2.574 2.574 0 00-.836-.573 2.52 2.52 0 00-1.971 0 2.572 2.572 0 00-.836.573l-.496.509-.496-.51A2.545 2.545 0 004.789 1m4.637 0c.338 0 .673.068.985.201L9.198 2.446a2.52 2.52 0 00-.986-.201M9.426 1L8.212 2.245M9.426 1a2.52 2.52 0 00-.986.201L7.226 2.446a2.52 2.52 0 01.986-.201m3.787 1.396c0-.347-.067-.69-.196-1.011l-1.214 1.245c.13.32.196.664.196 1.01M12 3.642l-1.214 1.245M12 3.64c0 .347-.067.69-.196 1.01L10.59 5.896a2.7 2.7 0 00.196-1.011M6.39 3.016l1.213-1.244c.239-.245.523-.44.835-.573L7.224 2.444a2.572 2.572 0 00-.835.572zm0 0l-.001.001m3.645 3.736c.24-.245.429-.536.558-.856l1.214-1.245c-.13.32-.32.611-.559.857l-1.213 1.244zm0 0s0 0 0 0m0 0l-2.07 2.122m-.361-7.101l-.248.254m0 0l-.248.255m.248-.255L6.14 3.273m0 0l.966-.99m-.966.99l-.248.254m1.214-1.244l-.497-.51m.497.51L5.892 3.527m0 0l-.496-.508 1.213-1.245m0 0A2.542 2.542 0 004.79 1m0 0c-.683 0-1.338.278-1.82.774m0 0a2.676 2.676 0 00-.755 1.867m0 0c0 .701.271 1.372.754 1.868m6.207 2.124L5.892 11m5.355-9.228a2.571 2.571 0 00-.835-.573L9.197 2.444c.312.133.596.328.835.573l1.214-1.245z" stroke="#E71985" stroke-width="2" stroke-linecap="round" stroke-linejoin="round"/></svg>