<svg width="75" height="86" fill="none" xmlns="http://www.w3.org/2000/svg"><path d="M73.525 18.25c-.035-.209-.16-.444-.493-.644C60.918 11.566 48.85 5.046 36.23.04c-.36-.109-.594.018-.675.29l-.234.127c-1.884 1.704-2.906 4.46-2.39 6.99-.027.09.036.208.126.236-.171.244-.19.634.142.834 10.333 6.094 21.324 11.3 32.19 16.27-3.272 7.316-8.36 10.226-15.92 11.893-4.194.906-7.768 2.692-8.74 7.243-.999 4.642 2.162 7.181 4.08 10.926 3.046 5.866 2.232 12.838-1.27 18.305-1.599-.88-3.226-1.669-4.672-2.403-3.442-1.932-6.91-3.773-10.262-5.677-5.733-3.12-11.348-6.303-17.108-9.332 4.247-5.34 9.869-9.374 16.412-11.25 3.538-1.006 8.476-.796 11-3.987 2.327-2.856.95-6.438-.763-9.23-2.179-3.528-4.422-6.184-4.782-10.546-.245-3.436.697-6.908 2.304-9.982.28-.607-.474-1.033-.817-.544-2.634 3.554-3.65 7.598-3.02 12.04.266 2.058.946 4.044 1.95 5.93 1.971 3.564 8.076 9.367 1.215 12.63-2.287 1.088-5.111 1.024-7.47 1.695-2.358.67-4.68 1.55-6.788 2.691-4.331 2.348-7.954 5.602-10.993 9.528-.602-.281-1.177-.653-1.69-.907-.602-.281-1.187.036-1.35.58-3.385 1.151-5.488 4.569-5.18 8.123-.504.045-.748.861-.263 1.206 6.071 4.606 13.297 7.98 19.937 11.671 6.398 3.52 12.913 6.974 19.789 9.55.63.19 1.008-.09 1.233-.516 2.72-1.55 4.633-4.334 4.99-7.489.019-.39-.197-.653-.466-.734.198-.336.127-.753-.178-1.043a5.42 5.42 0 00-1.123-.834c2.626-3.853 3.894-8.413 3.436-13.1-.113-1.914-.55-3.727-1.284-5.532-1.056-2.693-3.373-4.778-4.312-7.535-3.425-9.837 9.643-8.947 15.146-11.93 4.124-2.31 7.316-6.09 8.495-10.678l.27.081c.18.055.27.082.422.227.692.308 1.323-.49 1.244-1.206 2.009-1.468 4.01-3.236 5.138-5.366-.25-.472-.35-.798-.475-1.034zM45.188 76.816l.09.027c-.554 2.503-1.655 4.542-3.512 6.156-.062-.118-.152-.145-.332-.2A254.343 254.343 0 0119.83 72.108C14.188 69.014 8.5 65.414 2.55 63.02l.028-.09c-.327-3.165 1.55-6.157 4.584-7.117l.234-.127c6.496 3.845 13.136 7.536 19.776 11.227 3.2 1.76 6.308 3.491 9.507 5.25 2.57 1.57 5.632 3.782 8.51 4.653zM67.38 23.707c-11-5.505-22.089-11.037-33.369-15.935.117-.063.172-.244.226-.426.148-2.13.899-3.98 2.341-5.52l.027-.092C47.782 8.282 59.844 13.515 71.41 19.093c-1.353 1.568-2.588 3.073-4.03 4.614z" fill="#FFFCFF"/><path d="M42.953 60.714c-1.495-3.518-3.958-4.462-7.402-5.405-3.892-1.08-6.665-4.589-10.83-4.762-3.3-.109-5.742 1.822-6.666 4.904-.054.182.008.3.071.417-.144.154-.136.454.107.626 7.593 3.782 15.105 7.836 22.302 12.288.332.2.683.01.855-.235.278.38.817.544 1.187-.036 1.328-2.466 1.549-5.168.376-7.797zM18.9 55.904c1.996-4.043 7.105-4.078 10.52-2.056 1.33.798 2.37 1.904 3.782 2.43 2.103.835 4.028.627 5.879 1.978 3.153 2.24 3.945 6.139 2.202 9.665l-.027.09-.063-.117c-7.313-4.39-14.645-8.389-22.293-11.99zm32.089-26.578c-3.567-2.168-7.602-4.081-11.45-5.641-.359-.11-.62.109-.702.38-.368-.408-1.214.127-.874.626 1.83 2.73 3.118 6.284 6.02 8.052 2.237 1.37 5.566 1.388 7.809-.208 1.54-1.214.616-2.384-.803-3.21zm-.977 2.275c-2.297 1.777-5.559-.1-7.093-1.85-1.23-1.46-2.198-3.138-3.31-4.66 1.986.897 3.882 1.768 5.841 2.756 1.115.535 2.292 1.188 3.379 1.814.934.48 2.724.726 1.183 1.94z" fill="#FFFCFF"/><path d="M73.525 18.25c-.035-.209-.16-.444-.493-.644C60.918 11.566 48.85 5.046 36.23.04c-.36-.109-.594.018-.675.29l-.234.127c-1.884 1.704-2.906 4.46-2.39 6.99-.027.09.036.208.126.236-.171.244-.19.634.142.834 10.333 6.094 21.324 11.3 32.19 16.27-3.272 7.316-8.36 10.226-15.92 11.893-4.194.906-7.768 2.692-8.74 7.243-.999 4.642 2.162 7.181 4.08 10.926 3.046 5.866 2.232 12.838-1.27 18.305-1.599-.88-3.226-1.669-4.672-2.403-3.442-1.932-6.91-3.773-10.262-5.677-5.733-3.12-11.348-6.303-17.108-9.332 4.247-5.34 9.869-9.374 16.412-11.25 3.538-1.006 8.476-.796 11-3.987 2.327-2.856.95-6.438-.763-9.23-2.179-3.528-4.422-6.184-4.782-10.546-.245-3.436.697-6.908 2.304-9.982.28-.607-.474-1.033-.817-.544-2.634 3.554-3.65 7.598-3.02 12.04.266 2.058.946 4.044 1.95 5.93 1.971 3.564 8.076 9.367 1.215 12.63-2.287 1.088-5.111 1.024-7.47 1.695-2.358.67-4.68 1.55-6.788 2.691-4.331 2.348-7.954 5.602-10.993 9.528-.602-.281-1.177-.653-1.69-.907-.602-.281-1.187.036-1.35.58-3.385 1.151-5.488 4.569-5.18 8.123-.504.045-.748.861-.263 1.206 6.071 4.606 13.297 7.98 19.937 11.671 6.398 3.52 12.913 6.974 19.789 9.55.63.19 1.008-.09 1.233-.516 2.72-1.55 4.633-4.334 4.99-7.489.019-.39-.197-.653-.466-.734.198-.336.127-.753-.178-1.043a5.42 5.42 0 00-1.123-.834c2.626-3.853 3.894-8.413 3.436-13.1-.113-1.914-.55-3.727-1.284-5.532-1.056-2.693-3.373-4.778-4.312-7.535-3.425-9.837 9.643-8.947 15.146-11.93 4.124-2.31 7.316-6.09 8.495-10.678l.27.081c.18.055.27.082.422.227.692.308 1.323-.49 1.244-1.206 2.009-1.468 4.01-3.236 5.138-5.366-.25-.472-.35-.798-.475-1.034zM45.188 76.816l.09.027c-.554 2.503-1.655 4.542-3.512 6.156-.062-.118-.152-.145-.332-.2A254.343 254.343 0 0119.83 72.108C14.188 69.014 8.5 65.414 2.55 63.02l.028-.09c-.327-3.165 1.55-6.157 4.584-7.117l.234-.127c6.496 3.845 13.136 7.536 19.776 11.227 3.2 1.76 6.308 3.491 9.507 5.25 2.57 1.57 5.632 3.782 8.51 4.653zM67.38 23.707c-11-5.505-22.089-11.037-33.369-15.935.117-.063.172-.244.226-.426.148-2.13.899-3.98 2.341-5.52l.027-.092C47.782 8.282 59.844 13.515 71.41 19.093c-1.353 1.568-2.588 3.073-4.03 4.614z" stroke="#FFFCFF" stroke-width="1.523"/><path d="M42.953 60.714c-1.495-3.518-3.958-4.462-7.402-5.405-3.892-1.08-6.665-4.589-10.83-4.762-3.3-.109-5.742 1.822-6.666 4.904-.054.182.008.3.071.417-.144.154-.136.454.107.626 7.593 3.782 15.105 7.836 22.302 12.288.332.2.683.01.855-.235.278.38.817.544 1.187-.036 1.328-2.466 1.549-5.168.376-7.797zM18.9 55.904c1.996-4.043 7.105-4.078 10.52-2.056 1.33.798 2.37 1.904 3.782 2.43 2.103.835 4.028.627 5.879 1.978 3.153 2.24 3.945 6.139 2.202 9.665l-.027.09-.063-.117c-7.313-4.39-14.645-8.389-22.293-11.99zm32.089-26.578c-3.567-2.168-7.602-4.081-11.45-5.641-.359-.11-.62.109-.702.38-.368-.408-1.214.127-.874.626 1.83 2.73 3.118 6.284 6.02 8.052 2.237 1.37 5.566 1.388 7.809-.208 1.54-1.214.616-2.384-.803-3.21zm-.977 2.275c-2.297 1.777-5.559-.1-7.093-1.85-1.23-1.46-2.198-3.138-3.31-4.66 1.986.897 3.882 1.768 5.841 2.756 1.115.535 2.292 1.188 3.379 1.814.934.48 2.724.726 1.183 1.94z" stroke="#FFFCFF" stroke-width="1.523"/></svg>