<svg width="645" height="273" fill="none" xmlns="http://www.w3.org/2000/svg"><path d="M49.74 72.793c13.725 36.825 48.447 110.077 77.542 108.486 29.094-1.592 98.246-23.579 129.186-34.373M50.094 74.939s39.712 106.968 77.541 108.485c37.829 1.518 97.085-29.187 128.024-39.982m-172.965.631C60.3 160.225 13.301 193.068 4.46 195.221c8.842-2.153 56.98-32.097 79.375-48.25m80.691 29.541c8.178 27.304 26.912 83.461 36.421 89.66m-32.84-88.042c8.179 27.304 24.262 82.132 33.771 88.331m-6.5-123.167l-49.583 12.635m10.068 42.878l14.022 33.34m14.515-96.209l-49.583 12.635m15.451 61.396l14.022 33.34M52.828 70.616c44.531 4.195 154.678 51.872 205.057 75.59a.95.95 0 01.522 1.134c-9.081 33.333-32.21 102.954-54.234 122.434a.95.95 0 01-.871.206c-73.815-18.057-162.252-56.85-198.1-74.396a.949.949 0 01-.494-1.162c12.051-38.612 37.86-115.6 47.497-123.632.185-.154.383-.197.623-.174zm-2.443 1.281c44.532 4.196 154.678 51.873 205.058 75.591a.95.95 0 01.522 1.134c-9.082 33.333-32.21 102.954-54.234 122.434a.95.95 0 01-.871.206c-73.815-18.058-162.253-56.85-198.1-74.396a.949.949 0 01-.494-1.162c12.05-38.612 37.859-115.6 47.497-123.632.185-.154.383-.197.622-.175z" stroke="#FFFCFF" stroke-width="3" stroke-linecap="round"/><path d="M374.527 142.479c-.852.143-.95 1.127-.438 1.569-.128.285-.056.713.257 1.013 7.268 5.204 14.025 11.022 20.994 16.54l.809-.927c-6.118-6.189-13.059-11.536-20.128-16.598l54.456-10.181 27.527-5.141c8.749-1.642 17.57-2.856 26.134-5.083l.527 1.056c.568-.272 1.136-.543 1.618-.8.398-.242.326-.67.028-.884.482-.257.353-1.027-.343-.998-9.475.972-18.919 3.17-28.265 4.912l-27.527 5.141-55.649 10.381zm21.61 19.692c-.388 6.576.559 13.279 1.89 19.654.114.685 1.123.956 1.549.356l.071-.099 3.194-1.328-.669-1.383c-.398.243-.81.4-1.292.656 1.374-2.253 2.479-4.55 3.555-7.018l1.051-.528c6.928-3.624 13.528-8.161 20.299-12.199a1646.203 1646.203 0 0120.171-11.914c12.435-7.362 25.297-14.268 37.888-21.744l-.641-1.213c-13.246 6.707-26.008 14.212-38.869 21.646a996.884 996.884 0 00-20.739 12.185c-6.444 3.895-13.372 7.519-19.461 11.97-.383-.199-.895-.114-1.15.457-1.132 2.653-2.365 5.235-3.867 7.774-1.045-5.719-1.565-11.438-2.099-17.243l-.881-.029z" fill="#FFFCFF"/><path d="M395.269 161.701l.555.698c.071-.099.156-.114.227-.214l.015.086.966.014c14.88-6.364 29.774-12.643 44.654-19.008 14.383-6.193 28.938-11.887 42.979-18.55l-.527-1.056c-14.512 5.423-28.753 11.944-43.079 17.952-14.895 6.279-29.789 12.558-44.754 18.936-.086.015-.242.129-.227.214l-.809.928zm6.817 17.684l.727 1.517c1.065-.442 2.626-.49 3.691-.932 1.065-.443 1.932-1.385 2.584-2.198 1.665 1.568 3.414 3.122 5.079 4.691 3.742 3.508 7.441 7.287 11.466 10.395.697.499 1.591-.442 1.036-1.141-.1-.071-.199-.143-.228-.314.085-.014.241-.128.312-.228 10.413-10.543 20.086-21.841 30.086-32.754 10.242-11.042 21.123-21.927 30.625-33.724.368-.414-.172-1.027-.599-.956-.085.015-.27-.042-.34.058-.086.014-.086.014-.157.114-1.05.528-2.015 1.041-3.066 1.569l.542 1.142c-9.534 9.515-18.398 19.886-27.505 29.857-10.213 11.213-20.909 22.155-30.809 33.667-.071.1-.142.2-.128.286-2.945-2.938-6.202-5.647-9.204-8.399-3.514-3.194-7.142-6.545-10.797-9.54l-1.051.528c1.167 1.212 2.334 2.424 3.571 3.537a65.191 65.191 0 00-5.835 2.825z" fill="#FFFCFF"/><path d="M414.393 172.821l11.528 10.334m-38.267-36.288l9.409 8.309m87.075-31.505c-8.564 2.227-17.385 3.441-26.134 5.083l-27.527 5.141-54.456 10.181c7.069 5.062 14.01 10.409 20.128 16.598l-.809.927c-6.969-5.518-13.726-11.336-20.994-16.54-.313-.3-.385-.728-.257-1.013-.512-.442-.414-1.426.438-1.569l55.649-10.381 27.527-5.141c9.346-1.742 18.79-3.94 28.265-4.912.696-.029.825.741.343.998.298.214.37.642-.028.884-.482.257-1.05.528-1.618.8m-.527-1.056l.527 1.056m-.527-1.056c-14.512 5.423-28.753 11.944-43.079 17.952-14.895 6.279-29.789 12.558-44.754 18.936-.086.015-.242.129-.227.214l-.809.928.555.698c.071-.099.156-.114.227-.214l.015.086.966.014c14.88-6.364 29.774-12.643 44.654-19.008 14.383-6.193 28.938-11.887 42.979-18.55m-.821 1.897c-12.591 7.476-25.453 14.382-37.888 21.744a1646.203 1646.203 0 00-20.171 11.914c-6.771 4.038-13.371 8.575-20.299 12.199l-1.051.528c-1.076 2.468-2.181 4.765-3.555 7.018.482-.256.894-.413 1.292-.656l.669 1.383-3.194 1.328-.071.099c-.426.6-1.435.329-1.549-.356-1.331-6.375-2.278-13.078-1.89-19.654l.881.029c.534 5.805 1.054 11.524 2.099 17.243 1.502-2.539 2.735-5.121 3.867-7.774.255-.571.767-.656 1.15-.457 6.089-4.451 13.017-8.075 19.461-11.97a996.884 996.884 0 0120.739-12.185c12.861-7.434 25.623-14.939 38.869-21.646l.641 1.213zm0 0l-.542-1.142c1.051-.528 2.016-1.041 3.066-1.569.071-.1.071-.1.157-.114.07-.1.255-.043.34-.058.427-.071.967.542.599.956-9.502 11.797-20.383 22.682-30.625 33.724-10 10.913-19.673 22.211-30.086 32.754-.071.1-.227.214-.312.228.029.171.128.243.228.314.555.699-.339 1.64-1.036 1.141-4.025-3.108-7.724-6.887-11.466-10.395-1.665-1.569-3.414-3.123-5.079-4.691-.652.813-1.519 1.755-2.584 2.198-1.065.442-2.626.49-3.691.932l-.727-1.517a65.191 65.191 0 015.835-2.825c-1.237-1.113-2.404-2.325-3.571-3.537l1.051-.528c3.655 2.995 7.283 6.346 10.797 9.54 3.002 2.752 6.259 5.461 9.204 8.399-.014-.086.057-.186.128-.286 9.9-11.512 20.596-22.454 30.809-33.667 9.107-9.971 17.971-20.342 27.505-29.857z" stroke="#FFFCFF" stroke-width="3" stroke-linecap="round"/><path d="M576.371 15.682c-.502.094-.549.68-.241.937-.072.171-.025.425.163.6 4.356 3.012 8.416 6.395 12.599 9.598l.467-.56c-3.687-3.61-7.851-6.712-12.087-9.643l32.073-6.658 16.212-3.362c5.153-1.074 10.353-1.893 15.389-3.313l.324.622c.333-.168.665-.335.948-.493.232-.149.185-.402.006-.526.282-.158.197-.614-.214-.59-5.59.683-11.147 2.096-16.652 3.235l-16.212 3.362-32.775 6.79zm12.999 11.465c-.155 3.913-.382 8.862.478 12.637.075.406 1.539-.419 1.783-.78l.041-.06c.624-.275 5.157-2.527 5.782-2.802l-4.321 1.163c-.232.148-.473.246-.756.404.787-1.355 1.414-2.732 2.022-4.211l.615-.326c4.053-2.231 7.903-5.002 11.859-7.478a962.143 962.143 0 0111.787-7.306c7.266-4.515 14.789-8.764 22.146-13.348l-.392-.714c-7.753 4.134-15.211 8.738-22.728 13.3a590.529 590.529 0 00-12.119 7.474c-3.765 2.387-7.819 4.619-11.367 7.333-.229-.115-.53-.058-.674.284-.639 1.59-1.338 3.138-2.197 4.664-.684-3.388-1.056-6.782-1.438-10.227l-.521-.007z" fill="#FFFCFF"/><path d="M589.662 26.882l.337.409c.04-.06.091-.07.131-.13l.01.05.571-.002c8.723-3.948 16.644-7.851 25.367-11.8 8.431-3.842 16.969-7.388 25.192-11.506l-.324-.622c-8.516 3.386-16.858 7.42-25.258 11.151-8.732 3.899-16.654 7.801-25.427 11.76-.05.01-.141.079-.131.13l-.468.56zm3.421 10.432l.412.815c.624-.275 1.239-.6 1.864-.875.426-.5 1.468-.486 1.845-.977 1.001.914 2.053 1.818 3.055 2.732 2.252 2.044 4.482 4.25 6.897 6.052.418.29.935-.28.599-.69-.06-.041-.119-.082-.138-.184a.389.389 0 00.182-.139c6.034-6.383 11.623-13.207 17.409-19.806 5.927-6.677 12.235-13.269 17.716-20.388.214-.25-.113-.608-.364-.561-.05.01-.16-.022-.201.038-.05.01-.05.01-.091.07-.615.325-1.18.64-1.795.966l.333.673c-5.526 5.762-10.647 12.026-15.916 18.055-5.909 6.78-12.106 13.403-17.826 20.356-.041.06-.082.12-.072.171-1.775-1.713-3.731-3.287-5.537-4.89-2.114-1.86-4.296-3.811-6.491-5.55l-.615.325c.703.708 1.407 1.415 2.151 2.062a38.445 38.445 0 00-3.417 1.745z" fill="#FFFCFF"/><path d="M602.28 33.622l4.736 4.287m-20.91-19.854l4.736 4.286m50.104-19.06c-5.036 1.42-10.236 2.24-15.389 3.313l-16.212 3.362-32.073 6.658c4.236 2.93 8.4 6.032 12.087 9.643l-.467.56c-4.183-3.203-8.243-6.586-12.599-9.599-.188-.174-.235-.428-.163-.599-.308-.257-.261-.843.241-.937l32.775-6.79 16.212-3.363c5.505-1.14 11.062-2.551 16.652-3.235.411-.024.496.432.214.59.179.124.226.377-.006.526-.283.158-.615.325-.948.493m-.324-.622l.324.622m-.324-.622c-8.516 3.386-16.858 7.42-25.258 11.151-8.732 3.899-16.654 7.801-25.427 11.76-.05.01-.141.079-.131.13l-.468.56.337.409c.04-.06.091-.07.131-.13l.01.05.571-.002c8.723-3.948 16.644-7.851 25.367-11.8 8.431-3.842 16.969-7.388 25.192-11.506m-.464 1.137c-7.357 4.584-14.88 8.833-22.146 13.348a962.143 962.143 0 00-11.787 7.306c-3.956 2.476-7.806 5.247-11.859 7.478l-.615.326c-.608 1.479-1.235 2.856-2.022 4.211.283-.158.524-.256.756-.404l4.321-1.163c-.625.275-5.158 2.527-5.782 2.802l-.041.06c-.244.361-1.708 1.186-1.783.78-.86-3.775-.633-8.724-.478-12.637l.521.007c.382 3.445.754 6.84 1.438 10.227.859-1.526 1.558-3.074 2.197-4.664.144-.342.445-.399.674-.284 3.548-2.714 7.602-4.946 11.367-7.333a590.529 590.529 0 0112.119-7.474c7.517-4.562 14.975-9.166 22.728-13.3l.392.714zm0 0l-.333-.673c.615-.325 1.18-.641 1.795-.967.041-.06.041-.06.091-.07.041-.06.151-.028.201-.037.251-.047.578.311.364.561-5.481 7.12-11.789 13.71-17.716 20.389-5.786 6.598-11.375 13.422-17.409 19.805a.389.389 0 01-.182.14c.019.1.078.142.138.183.336.41-.181.98-.599.69-2.415-1.803-4.645-4.008-6.897-6.052-1.002-.914-2.054-1.818-3.055-2.732-.377.49-1.419.477-1.845.977-.625.274-1.24.6-1.864.875l-.412-.815a38.445 38.445 0 013.417-1.745c-.744-.647-1.448-1.355-2.151-2.062l.615-.326c2.195 1.74 4.377 3.691 6.491 5.551 1.806 1.603 3.762 3.177 5.537 4.89-.01-.05.031-.11.072-.17 5.72-6.954 11.917-13.578 17.826-20.357 5.269-6.03 10.39-12.293 15.916-18.055z" stroke="#FFFCFF" stroke-width="3" stroke-linecap="round"/></svg>