<svg width="223" height="166" fill="none" xmlns="http://www.w3.org/2000/svg"><mask id="a" fill="#fff"><path fill-rule="evenodd" clip-rule="evenodd" d="M1.988 107.196c11.844-4.29 24.997-5.918 37.574-6.279 1.611-.067 2.121 2.045 1.147 3.039.379 2.188.76 4.376 1.14 6.563l.002.01c2.673 15.359 5.345 30.708 7.399 46.082.105.561-.148 1.073-.555 1.38.238.653-.064 1.522-1.052 1.822l-.112.021c-.099.715-.688 1.289-1.444.965a2.392 2.392 0 01-.379-.163 2.485 2.485 0 00-.378-.162c-4.047 1.001-8.263 1.736-12.429 2.462a441.24 441.24 0 00-4.929.877c-1.169.217-2.396.504-3.656.798-4.055.946-8.439 1.97-12.25.993-.764.258-1.5.047-1.688-.964-2.851-18.402-5.772-36.559-10.305-54.65-.3-.989.38-1.696 1.143-1.954.162-.379.344-.645.772-.84zm36.299 2.437c-.314-1.684-.607-3.256-.788-4.848-2.62.254-5.241.508-7.841.874l-2.62.255c-1.02.131-2.063.295-3.105.46-1.042.164-2.085.329-3.104.46l-2.243.416-.31.043c-2.262.309-4.431.605-6.683 1.023l-2.397.213c-.953.177-1.883.32-2.813.464-.93.144-1.86.287-2.814.464.196.429.259.765.322 1.102l.447 1.776 1.53 6.336.292 1.572c.51 2.112 1.04 4.336 1.438 6.469l.294 1.572c.488 1.999.865 4.02 1.242 6.041l1.57 8.419c.099.837.22 1.643.339 2.434.123.82.244 1.625.337 2.435l.118 1.256c.059.628.151 1.278.243 1.929.093.651.185 1.301.244 1.929l.293 1.572c.23 1.235.327 2.378.425 3.522l.11 1.837c.027 1.389.166 2.757.305 4.125 1.465-.853 3.217-1.41 5.123-1.764l3.028-.562a44.179 44.179 0 011.972-.308c.65-.092 1.3-.183 1.973-.308l2.936-.429 3.7-.687 3.343-.737 5.157-.957 3.966-.504c.673-.125 1.367-.138 1.948-.13l-1.862-9.991-.39-2.715-1.215-6.511-.306-2.266c-.293-1.572-.565-3.031-.746-4.623l-.544-2.919c-.092-.811-.214-1.616-.337-2.436a77.466 77.466 0 01-.34-2.433l-.355-1.908c-.15-.801-.275-1.636-.398-2.455a67.313 67.313 0 00-.369-2.281l-.223-1.817c-.104-.561-.18-1.128-.258-1.694a34.466 34.466 0 00-.257-1.695l-.377-2.02z"/><path fill-rule="evenodd" clip-rule="evenodd" d="M2.735 106.101c11.845-4.289 24.997-5.918 37.574-6.278 1.612-.067 2.122 2.045 1.147 3.039.379 2.188.76 4.375 1.14 6.562l.002.01c2.673 15.359 5.345 30.708 7.4 46.082.104.561-.149 1.073-.555 1.381.237.653-.065 1.522-1.053 1.821l-.112.021c-.099.715-.688 1.289-1.444.965-.123-.035-.25-.099-.378-.162a2.295 2.295 0 00-.379-.162c-4.047 1.001-8.263 1.735-12.429 2.461-1.655.288-3.303.576-4.929.877-1.169.217-2.396.504-3.656.798-4.055.947-8.439 1.97-12.25.994-.764.258-1.5.046-1.688-.964-2.85-18.403-5.772-36.56-10.305-54.65-.3-.99.38-1.697 1.144-1.955.161-.378.343-.644.771-.84zm36.3 2.437c-.315-1.684-.608-3.256-.789-4.848-2.62.254-5.241.508-7.84.875l-2.621.254c-1.02.131-2.062.296-3.105.46a107.94 107.94 0 01-3.104.46l-2.242.417-.31.042c-2.263.309-4.432.606-6.684 1.024l-2.396.212a93.99 93.99 0 01-2.814.465c-.93.143-1.86.287-2.813.464.195.428.258.765.321 1.102l.447 1.775 1.53 6.336.293 1.572c.51 2.112 1.04 4.336 1.438 6.469l.293 1.572c.489 2 .865 4.021 1.242 6.041l1.57 8.42c.1.837.22 1.642.34 2.433.123.82.244 1.625.336 2.436l.118 1.255c.059.628.151 1.279.244 1.929.092.651.184 1.302.243 1.93l.293 1.571c.23 1.235.328 2.379.425 3.522l.11 1.838c.027 1.389.166 2.756.306 4.124 1.465-.852 3.217-1.41 5.123-1.764l3.027-.562c.673-.125 1.323-.216 1.973-.308.65-.091 1.3-.183 1.972-.308l2.936-.429 3.7-.687 3.343-.736 5.158-.958 3.966-.504c.672-.125 1.366-.137 1.948-.129l-1.863-9.991-.39-2.715-1.214-6.512-.307-2.266c-.293-1.571-.565-3.031-.746-4.623l-.544-2.919a67.968 67.968 0 00-.337-2.435 76.838 76.838 0 01-.339-2.434l-.356-1.908c-.149-.8-.274-1.635-.398-2.455a64.801 64.801 0 00-.369-2.281l-.222-1.817a33.27 33.27 0 01-.258-1.694 34.127 34.127 0 00-.258-1.694l-.377-2.021zm111.987-56.521c-.05.13-.108.253-.177.364.618 3.47 1.238 6.941 1.858 10.412l.003.015c4.352 24.37 8.701 48.724 12.42 73.053.166.891-.039 1.667-.424 2.107-11.115 2.494-34.031 7.609-36.775 8.118-.757.325-1.533-.084-1.832-1.688-4.854-29.162-9.754-57.947-16.3-86.794-.412-1.584.212-2.622.969-2.947 34.192-7.495 41.062-5.065 40.258-2.64zm-2.066 9.014c-.498-2.674-.964-5.17-1.316-7.686-2.662.125-5.323.25-7.951.554l-2.662.125c-1.032.1-2.084.248-3.136.398-1.052.149-2.104.298-3.136.397l-2.257.42-.313.033c-2.289.25-4.482.488-6.748.908l-2.436.084a59.44 59.44 0 01-2.837.434c-.94.128-1.879.257-2.838.435.246.692.346 1.227.445 1.761l.645 2.832 2.233 10.098.465 2.496c.745 3.366 1.522 6.91 2.154 10.297l.465 2.496c.711 3.188 1.309 6.396 1.908 9.605l2.492 13.37c.19 1.323.399 2.599.604 3.852.212 1.299.421 2.574.6 3.855l.253 1.982c.126.991.289 2.021.452 3.052.163 1.03.326 2.06.452 3.051l.466 2.496c.365 1.961.585 3.764.804 5.568l.306 2.894c.174 2.181.46 4.341.746 6.501 1.413-1.184 3.152-1.876 5.07-2.232l3.046-.566a29.43 29.43 0 011.991-.277c.657-.076 1.314-.152 1.991-.278l2.967-.366 3.723-.691 3.352-.807 5.19-.963 4.016-.377c.677-.126 1.387-.073 1.984.001l-2.958-15.866-.685-4.299-1.928-10.34-.551-3.586c-.466-2.495-.898-4.813-1.25-7.33l-.865-4.634c-.179-1.281-.388-2.557-.6-3.855-.205-1.254-.414-2.53-.603-3.853l-.565-3.03c-.237-1.271-.453-2.594-.666-3.892a166.71 166.71 0 00-.617-3.616l-.419-2.873a86.79 86.79 0 01-.442-2.685c-.138-.896-.276-1.793-.442-2.684l-.599-3.209z"/><path fill-rule="evenodd" clip-rule="evenodd" d="M149.93 51.264a2.18 2.18 0 01-.176.363c.618 3.472 1.238 6.942 1.857 10.413l.003.015c4.352 24.37 8.701 48.724 12.42 73.052.166.892-.039 1.668-.424 2.108-11.115 2.494-34.031 7.609-36.775 8.118-.756.325-1.533-.084-1.832-1.689-4.854-29.161-9.754-57.946-16.299-86.793-.412-1.584.211-2.622.968-2.947 34.192-7.495 41.062-5.066 40.258-2.64zm-2.066 9.014c-.498-2.674-.963-5.17-1.316-7.686-2.661.125-5.323.25-7.951.553l-2.662.126a70.733 70.733 0 00-3.136.397c-1.052.15-2.104.299-3.136.398l-2.256.42-.313.033c-2.289.249-4.483.488-6.749.908l-2.436.084c-.959.178-1.898.306-2.837.434-.939.128-1.879.257-2.838.434.246.693.346 1.227.446 1.762l.644 2.831 2.233 10.099.466 2.496c.744 3.366 1.521 6.91 2.153 10.297l.465 2.496c.711 3.187 1.31 6.396 1.908 9.605l2.493 13.37c.189 1.323.398 2.599.603 3.852.212 1.299.421 2.574.6 3.855l.253 1.982c.126.991.289 2.021.452 3.051.163 1.031.326 2.061.452 3.052l.466 2.495c.365 1.961.585 3.765.804 5.569l.307 2.894c.173 2.181.459 4.341.745 6.501 1.413-1.185 3.152-1.876 5.07-2.232l3.046-.566c.677-.126 1.334-.201 1.992-.277a28.819 28.819 0 001.991-.278l2.966-.366 3.724-.691 3.351-.807 5.19-.963 4.016-.377c.677-.126 1.387-.073 1.984 0l-2.958-15.865-.685-4.299-1.927-10.34-.552-3.586c-.466-2.496-.898-4.813-1.25-7.33l-.864-4.635c-.18-1.28-.388-2.556-.601-3.855a197.58 197.58 0 01-.603-3.852l-.565-3.03c-.237-1.271-.453-2.594-.666-3.892-.204-1.251-.405-2.48-.617-3.616l-.419-2.874c-.166-.89-.304-1.788-.442-2.684a86.66 86.66 0 00-.442-2.685l-.599-3.208zM91.483 71.417c.876-.279 1.857.004 2.066 1.127 1.415 6.9 2.664 13.868 3.913 20.831.998 5.57 1.996 11.136 3.078 16.663a1042.4 1042.4 0 002.048 10.582c1.743 8.84 3.491 17.705 4.656 26.618.062.337.104.561.034.807-.049.357-.232.623-.659.819-4.36 1.944-9.403 2.706-14.224 3.435-1.1.166-2.188.33-3.254.507-6.503 1.207-12.936 2.169-19.585 2.59-.758-.177-1.179-1.385-1.295-1.966-.797-2.408-1.46-4.723-2.145-7.151l-.28-.878c-2.138-7.733-3.736-15.683-5.334-23.632l-.3-.99-.859-4.603c-.471-2.529-.963-5.065-1.456-7.605-1.233-6.363-2.472-12.75-3.413-19.133l-.188-1.01c-.37-2.603-.718-5.094-.975-7.718l-.251-1.347a6.623 6.623 0 01-.09-.796c-.02-.258-.039-.515-.091-.796-.035-.807.442-1.36.982-1.576.07-.245.161-.378.386-.42 11.325-3.961 23.707-4.75 35.527-5.434.806-.034 1.36.444 1.709 1.076zm-.857 2.25l-.112.02c-1.836.11-3.538.31-5.241.51l-4.323.453c-2.488.346-5.109.6-7.505.813l-3.61.554c-3.047.45-6.116.787-9.206 1.012l-1.815.22c-1.03.076-1.948.13-3 .093l.65 3.48.201 1.705 1.403 7.521.384 1.439a73.263 73.263 0 001.298 6.96l.069 1.613 1.297 6.96.14 1.368 1.339 7.185c.51 2.112.928 4.357 1.347 6.602l.356 1.909c.275 1.168.528 2.37.782 3.571.253 1.202.506 2.403.782 3.572l.384 1.438c.22 1.179.467 2.353.715 3.526.248 1.174.496 2.347.715 3.526l.293 1.572c.427 1.663.761 3.459 1.075 5.143l.181 1.592.88 4.715c2.333-.549 4.688-.986 6.93-1.403l3.252-.603c2.13-.396 4.26-.791 6.411-1.075l3.231-.715c2.67-.612 5.452-1.245 8.255-1.765l2.243-.417a18.95 18.95 0 013.65-.329 68.3 68.3 0 01-.541-2.28 68.349 68.349 0 00-.541-2.281l-.251-1.347a93.009 93.009 0 00-.58-2.796c-.2-.921-.401-1.842-.579-2.796l-.74-3.347-1.172-6.287-.328-2.378-1.088-5.837-.432-2.94-1.507-8.083-.363-1.326-3.056-16.39c-.16-1.48-.453-3.052-.746-4.623l-.244-1.93c-.105-.561-.186-1.156-.268-1.75a37.897 37.897 0 00-.269-1.75l-.314-1.684c-.076-1.032-.243-1.93-.432-2.94z"/><path fill-rule="evenodd" clip-rule="evenodd" d="M92.23 70.323c.876-.28 1.857.003 2.066 1.126 1.416 6.9 2.665 13.868 3.913 20.832.998 5.569 1.996 11.135 3.078 16.663a1015.45 1015.45 0 002.049 10.581c1.743 8.84 3.49 17.705 4.655 26.619.063.336.105.561.034.806-.049.358-.231.624-.659.819-4.36 1.945-9.402 2.707-14.223 3.435-1.1.166-2.189.331-3.255.507-6.503 1.207-12.935 2.169-19.585 2.591-.757-.178-1.179-1.385-1.295-1.967-.796-2.407-1.46-4.723-2.145-7.151l-.28-.877c-2.137-7.734-3.736-15.683-5.334-23.633l-.3-.989-.858-4.603c-.472-2.53-.964-5.066-1.456-7.605-1.234-6.363-2.472-12.75-3.414-19.134l-.188-1.01c-.37-2.603-.718-5.093-.975-7.717l-.251-1.347a7.015 7.015 0 01-.09-.796c-.02-.258-.039-.516-.091-.797-.034-.806.442-1.36.982-1.576.07-.245.162-.378.386-.42C66.32 70.72 78.7 69.93 90.52 69.246c.806-.033 1.36.445 1.71 1.077zm-.856 2.25l-.112.02c-1.836.109-3.54.309-5.242.509l-4.323.454c-2.488.345-5.109.6-7.505.812l-3.609.554c-3.048.45-6.117.787-9.207 1.013l-1.815.22c-1.03.075-1.948.13-2.999.092l.649 3.48.202 1.705 1.402 7.522.384 1.438a73.263 73.263 0 001.298 6.96l.069 1.614 1.297 6.96.14 1.368 1.34 7.184c.509 2.112.927 4.358 1.346 6.603l.356 1.908c.276 1.169.529 2.37.782 3.572.253 1.201.506 2.403.782 3.571l.384 1.439c.22 1.179.468 2.352.715 3.526.248 1.173.496 2.347.716 3.525l.293 1.572c.426 1.663.76 3.459 1.075 5.143l.18 1.593.88 4.715c2.333-.55 4.688-.987 6.93-1.403l3.252-.604c2.13-.395 4.26-.791 6.412-1.074l3.23-.716c2.67-.612 5.452-1.244 8.255-1.765l2.243-.416a18.795 18.795 0 013.651-.329c-.203-.776-.372-1.528-.542-2.281-.169-.752-.338-1.505-.541-2.28l-.251-1.348c-.178-.954-.379-1.875-.579-2.796a93.009 93.009 0 01-.58-2.796l-.74-3.347-1.172-6.286-.327-2.379-1.089-5.837-.432-2.94-1.507-8.082-.363-1.327-3.056-16.39c-.16-1.48-.453-3.051-.746-4.623l-.244-1.93a37.901 37.901 0 01-.268-1.75c-.082-.594-.164-1.189-.268-1.75l-.314-1.684c-.077-1.031-.244-1.93-.432-2.94zM198.035.851c.864-.35 1.899.219 2.242 2.058 2.24 11.322 4.317 22.732 6.393 34.136v.001c1.661 9.12 3.32 18.236 5.062 27.3 1.076 5.773 2.192 11.556 3.309 17.345 2.798 14.496 5.603 29.032 7.818 43.58.103.552.171.92.128 1.309l-.002.071c-.743 1.297-36.245 8.387-38.589 6.389-.34-.739-.58-1.655-.688-2.213-1.092-3.984-2.036-7.805-3.015-11.81l-.387-1.451c-3.074-12.751-5.622-25.79-8.169-38.829l-.421-1.634-1.406-7.542c-.773-4.146-1.567-8.302-2.362-12.466-1.992-10.43-3.992-20.902-5.688-31.333l-.309-1.655c-.676-4.252-1.318-8.32-1.883-12.592l-.411-2.207c-.086-.46-.135-.879-.184-1.298-.022-.185-.031-.242-.047-.344a32.86 32.86 0 01-.137-.954c-1.719-2.99 32.287-5.867 38.746-5.86zm-.618 3.54l-.112.021c-1.865-.034-3.583.094-5.301.223l-4.369.24c-2.504.275-5.155.386-7.581.456l-3.627.483c-2.998.37-5.619.857-8.905 1.467l-.221.041-1.831.15c-1.044.003-1.977-.014-3.056-.194l.891 4.778.402 2.78 2.298 12.324.558 2.37c.574 3.7 1.26 7.38 2.127 11.405l.255 2.617 2.127 11.404.299 2.228 2.195 11.773c.764 3.474 1.449 7.152 2.135 10.831l.583 3.127c.417 1.921.813 3.893 1.21 5.865.397 1.973.794 3.945 1.21 5.866l.558 2.37c.36 1.931.748 3.858 1.136 5.784.389 1.926.777 3.852 1.137 5.784l.48 2.575c.627 2.738 1.175 5.681 1.69 8.44l.368 2.596 1.785 9.573c2.323-.621 4.68-1.059 6.926-1.476l3.255-.604c2.133-.396 4.266-.792 6.433-1.004l3.222-.788c2.66-.684 5.432-1.389 8.238-1.91l2.246-.417a11.829 11.829 0 013.695-.115c-.296-1.277-.9-4.362-1.16-5.598a178.83 178.83 0 00-.815-3.75l-.412-2.207a245.065 245.065 0 00-.913-4.588c-.311-1.513-.622-3.025-.914-4.588l-1.141-5.498-1.92-10.3-.608-3.884-1.784-9.565-.779-4.803-2.469-13.244-.524-2.187-5.007-26.855c-.334-2.412-.814-4.987-1.294-7.562l-.471-3.148c-.171-.92-.323-1.89-.475-2.862-.152-.97-.304-1.941-.476-2.861l-.514-2.76c-.197-1.676-.471-3.147-.78-4.803z"/><path fill-rule="evenodd" clip-rule="evenodd" d="M196.943.098c.864-.35 1.899.218 2.242 2.058 2.24 11.321 4.317 22.732 6.393 34.136l.001.001c1.66 9.12 3.319 18.236 5.061 27.299a2698.502 2698.502 0 003.31 17.346c2.797 14.496 5.603 29.032 7.817 43.58.103.552.172.92.128 1.309l-.002.071c-.743 1.296-36.245 8.387-38.589 6.389-.34-.739-.58-1.655-.688-2.213-1.092-3.984-2.036-7.806-3.015-11.811l-.387-1.45c-3.074-12.751-5.621-25.79-8.169-38.829l-.421-1.635-1.406-7.541c-.773-4.146-1.567-8.303-2.362-12.466-1.992-10.431-3.992-20.902-5.688-31.333l-.308-1.655c-.677-4.252-1.319-8.32-1.883-12.592l-.412-2.207c-.086-.46-.135-.88-.184-1.298-.022-.185-.031-.242-.047-.344a32.86 32.86 0 01-.137-.954c-1.719-2.99 32.287-5.867 38.746-5.861zm-.618 3.54l-.112.021c-1.865-.034-3.583.094-5.301.223l-4.369.24c-2.504.275-5.155.386-7.581.456l-3.626.483c-2.999.37-5.62.857-8.906 1.467l-.221.041-1.831.15c-1.044.003-1.977-.014-3.056-.194l.891 4.778.403 2.78 2.297 12.324.558 2.37c.574 3.7 1.26 7.379 2.127 11.405l.255 2.617 2.127 11.404.299 2.228 2.195 11.772c.764 3.474 1.45 7.153 2.136 10.832l.583 3.127c.416 1.921.813 3.893 1.209 5.865.397 1.972.794 3.945 1.21 5.866l.558 2.37c.36 1.931.748 3.858 1.137 5.784.388 1.926.776 3.852 1.136 5.783l.48 2.576c.627 2.738 1.176 5.681 1.69 8.44l.368 2.596 1.785 9.573c2.323-.621 4.681-1.059 6.926-1.476l3.255-.604c2.133-.396 4.266-.792 6.434-1.004l3.221-.788c2.66-.685 5.432-1.39 8.239-1.911l2.245-.416a11.799 11.799 0 013.695-.115c-.296-1.278-.9-4.362-1.16-5.598a177.457 177.457 0 00-.815-3.75l-.412-2.207c-.291-1.564-.602-3.076-.913-4.589a253.35 253.35 0 01-.914-4.588l-1.141-5.497-1.92-10.3-.608-3.884-1.784-9.565-.779-4.804-2.469-13.243-.524-2.187-5.007-26.855c-.334-2.412-.814-4.987-1.294-7.563l-.471-3.147a103.54 103.54 0 01-.475-2.862 99.702 99.702 0 00-.476-2.861l-.514-2.76c-.197-1.676-.471-3.147-.78-4.803z"/></mask><path fill-rule="evenodd" clip-rule="evenodd" d="M1.988 107.196c11.844-4.29 24.997-5.918 37.574-6.279 1.611-.067 2.121 2.045 1.147 3.039.379 2.188.76 4.376 1.14 6.563l.002.01c2.673 15.359 5.345 30.708 7.399 46.082.105.561-.148 1.073-.555 1.38.238.653-.064 1.522-1.052 1.822l-.112.021c-.099.715-.688 1.289-1.444.965a2.392 2.392 0 01-.379-.163 2.485 2.485 0 00-.378-.162c-4.047 1.001-8.263 1.736-12.429 2.462a441.24 441.24 0 00-4.929.877c-1.169.217-2.396.504-3.656.798-4.055.946-8.439 1.97-12.25.993-.764.258-1.5.047-1.688-.964-2.851-18.402-5.772-36.559-10.305-54.65-.3-.989.38-1.696 1.143-1.954.162-.379.344-.645.772-.84zm36.299 2.437c-.314-1.684-.607-3.256-.788-4.848-2.62.254-5.241.508-7.841.874l-2.62.255c-1.02.131-2.063.295-3.105.46-1.042.164-2.085.329-3.104.46l-2.243.416-.31.043c-2.262.309-4.431.605-6.683 1.023l-2.397.213c-.953.177-1.883.32-2.813.464-.93.144-1.86.287-2.814.464.196.429.259.765.322 1.102l.447 1.776 1.53 6.336.292 1.572c.51 2.112 1.04 4.336 1.438 6.469l.294 1.572c.488 1.999.865 4.02 1.242 6.041l1.57 8.419c.099.837.22 1.643.339 2.434.123.82.244 1.625.337 2.435l.118 1.256c.059.628.151 1.278.243 1.929.093.651.185 1.301.244 1.929l.293 1.572c.23 1.235.327 2.378.425 3.522l.11 1.837c.027 1.389.166 2.757.305 4.125 1.465-.853 3.217-1.41 5.123-1.764l3.028-.562a44.179 44.179 0 011.972-.308c.65-.092 1.3-.183 1.973-.308l2.936-.429 3.7-.687 3.343-.737 5.157-.957 3.966-.504c.673-.125 1.367-.138 1.948-.13l-1.862-9.991-.39-2.715-1.215-6.511-.306-2.266c-.293-1.572-.565-3.031-.746-4.623l-.544-2.919c-.092-.811-.214-1.616-.337-2.436a77.466 77.466 0 01-.34-2.433l-.355-1.908c-.15-.801-.275-1.636-.398-2.455a67.313 67.313 0 00-.369-2.281l-.223-1.817c-.104-.561-.18-1.128-.258-1.694a34.466 34.466 0 00-.257-1.695l-.377-2.02z" fill="#7831B2"/><path fill-rule="evenodd" clip-rule="evenodd" d="M2.735 106.101c11.845-4.289 24.997-5.918 37.574-6.278 1.612-.067 2.122 2.045 1.147 3.039.379 2.188.76 4.375 1.14 6.562l.002.01c2.673 15.359 5.345 30.708 7.4 46.082.104.561-.149 1.073-.555 1.381.237.653-.065 1.522-1.053 1.821l-.112.021c-.099.715-.688 1.289-1.444.965-.123-.035-.25-.099-.378-.162a2.295 2.295 0 00-.379-.162c-4.047 1.001-8.263 1.735-12.429 2.461-1.655.288-3.303.576-4.929.877-1.169.217-2.396.504-3.656.798-4.055.947-8.439 1.97-12.25.994-.764.258-1.5.046-1.688-.964-2.85-18.403-5.772-36.56-10.305-54.65-.3-.99.38-1.697 1.144-1.955.161-.378.343-.644.771-.84zm36.3 2.437c-.315-1.684-.608-3.256-.789-4.848-2.62.254-5.241.508-7.84.875l-2.621.254c-1.02.131-2.062.296-3.105.46a107.94 107.94 0 01-3.104.46l-2.242.417-.31.042c-2.263.309-4.432.606-6.684 1.024l-2.396.212a93.99 93.99 0 01-2.814.465c-.93.143-1.86.287-2.813.464.195.428.258.765.321 1.102l.447 1.775 1.53 6.336.293 1.572c.51 2.112 1.04 4.336 1.438 6.469l.293 1.572c.489 2 .865 4.021 1.242 6.041l1.57 8.42c.1.837.22 1.642.34 2.433.123.82.244 1.625.336 2.436l.118 1.255c.059.628.151 1.279.244 1.929.092.651.184 1.302.243 1.93l.293 1.571c.23 1.235.328 2.379.425 3.522l.11 1.838c.027 1.389.166 2.756.306 4.124 1.465-.852 3.217-1.41 5.123-1.764l3.027-.562c.673-.125 1.323-.216 1.973-.308.65-.091 1.3-.183 1.972-.308l2.936-.429 3.7-.687 3.343-.736 5.158-.958 3.966-.504c.672-.125 1.366-.137 1.948-.129l-1.863-9.991-.39-2.715-1.214-6.512-.307-2.266c-.293-1.571-.565-3.031-.746-4.623l-.544-2.919a67.968 67.968 0 00-.337-2.435 76.838 76.838 0 01-.339-2.434l-.356-1.908c-.149-.8-.274-1.635-.398-2.455a64.801 64.801 0 00-.369-2.281l-.222-1.817a33.27 33.27 0 01-.258-1.694 34.127 34.127 0 00-.258-1.694l-.377-2.021zm111.987-56.521c-.05.13-.108.253-.177.364.618 3.47 1.238 6.941 1.858 10.412l.003.015c4.352 24.37 8.701 48.724 12.42 73.053.166.891-.039 1.667-.424 2.107-11.115 2.494-34.031 7.609-36.775 8.118-.757.325-1.533-.084-1.832-1.688-4.854-29.162-9.754-57.947-16.3-86.794-.412-1.584.212-2.622.969-2.947 34.192-7.495 41.062-5.065 40.258-2.64zm-2.066 9.014c-.498-2.674-.964-5.17-1.316-7.686-2.662.125-5.323.25-7.951.554l-2.662.125c-1.032.1-2.084.248-3.136.398-1.052.149-2.104.298-3.136.397l-2.257.42-.313.033c-2.289.25-4.482.488-6.748.908l-2.436.084a59.44 59.44 0 01-2.837.434c-.94.128-1.879.257-2.838.435.246.692.346 1.227.445 1.761l.645 2.832 2.233 10.098.465 2.496c.745 3.366 1.522 6.91 2.154 10.297l.465 2.496c.711 3.188 1.309 6.396 1.908 9.605l2.492 13.37c.19 1.323.399 2.599.604 3.852.212 1.299.421 2.574.6 3.855l.253 1.982c.126.991.289 2.021.452 3.052.163 1.03.326 2.06.452 3.051l.466 2.496c.365 1.961.585 3.764.804 5.568l.306 2.894c.174 2.181.46 4.341.746 6.501 1.413-1.184 3.152-1.876 5.07-2.232l3.046-.566a29.43 29.43 0 011.991-.277c.657-.076 1.314-.152 1.991-.278l2.967-.366 3.723-.691 3.352-.807 5.19-.963 4.016-.377c.677-.126 1.387-.073 1.984.001l-2.958-15.866-.685-4.299-1.928-10.34-.551-3.586c-.466-2.495-.898-4.813-1.25-7.33l-.865-4.634c-.179-1.281-.388-2.557-.6-3.855-.205-1.254-.414-2.53-.603-3.853l-.565-3.03c-.237-1.271-.453-2.594-.666-3.892a166.71 166.71 0 00-.617-3.616l-.419-2.873a86.79 86.79 0 01-.442-2.685c-.138-.896-.276-1.793-.442-2.684l-.599-3.209z" fill="#7831B2"/><path fill-rule="evenodd" clip-rule="evenodd" d="M149.93 51.264a2.18 2.18 0 01-.176.363c.618 3.472 1.238 6.942 1.857 10.413l.003.015c4.352 24.37 8.701 48.724 12.42 73.052.166.892-.039 1.668-.424 2.108-11.115 2.494-34.031 7.609-36.775 8.118-.756.325-1.533-.084-1.832-1.689-4.854-29.161-9.754-57.946-16.299-86.793-.412-1.584.211-2.622.968-2.947 34.192-7.495 41.062-5.066 40.258-2.64zm-2.066 9.014c-.498-2.674-.963-5.17-1.316-7.686-2.661.125-5.323.25-7.951.553l-2.662.126a70.733 70.733 0 00-3.136.397c-1.052.15-2.104.299-3.136.398l-2.256.42-.313.033c-2.289.249-4.483.488-6.749.908l-2.436.084c-.959.178-1.898.306-2.837.434-.939.128-1.879.257-2.838.434.246.693.346 1.227.446 1.762l.644 2.831 2.233 10.099.466 2.496c.744 3.366 1.521 6.91 2.153 10.297l.465 2.496c.711 3.187 1.31 6.396 1.908 9.605l2.493 13.37c.189 1.323.398 2.599.603 3.852.212 1.299.421 2.574.6 3.855l.253 1.982c.126.991.289 2.021.452 3.051.163 1.031.326 2.061.452 3.052l.466 2.495c.365 1.961.585 3.765.804 5.569l.307 2.894c.173 2.181.459 4.341.745 6.501 1.413-1.185 3.152-1.876 5.07-2.232l3.046-.566c.677-.126 1.334-.201 1.992-.277a28.819 28.819 0 001.991-.278l2.966-.366 3.724-.691 3.351-.807 5.19-.963 4.016-.377c.677-.126 1.387-.073 1.984 0l-2.958-15.865-.685-4.299-1.927-10.34-.552-3.586c-.466-2.496-.898-4.813-1.25-7.33l-.864-4.635c-.18-1.28-.388-2.556-.601-3.855a197.58 197.58 0 01-.603-3.852l-.565-3.03c-.237-1.271-.453-2.594-.666-3.892-.204-1.251-.405-2.48-.617-3.616l-.419-2.874c-.166-.89-.304-1.788-.442-2.684a86.66 86.66 0 00-.442-2.685l-.599-3.208zM91.483 71.417c.876-.279 1.857.004 2.066 1.127 1.415 6.9 2.664 13.868 3.913 20.831.998 5.57 1.996 11.136 3.078 16.663a1042.4 1042.4 0 002.048 10.582c1.743 8.84 3.491 17.705 4.656 26.618.062.337.104.561.034.807-.049.357-.232.623-.659.819-4.36 1.944-9.403 2.706-14.224 3.435-1.1.166-2.188.33-3.254.507-6.503 1.207-12.936 2.169-19.585 2.59-.758-.177-1.179-1.385-1.295-1.966-.797-2.408-1.46-4.723-2.145-7.151l-.28-.878c-2.138-7.733-3.736-15.683-5.334-23.632l-.3-.99-.859-4.603c-.471-2.529-.963-5.065-1.456-7.605-1.233-6.363-2.472-12.75-3.413-19.133l-.188-1.01c-.37-2.603-.718-5.094-.975-7.718l-.251-1.347a6.623 6.623 0 01-.09-.796c-.02-.258-.039-.515-.091-.796-.035-.807.442-1.36.982-1.576.07-.245.161-.378.386-.42 11.325-3.961 23.707-4.75 35.527-5.434.806-.034 1.36.444 1.709 1.076zm-.857 2.25l-.112.02c-1.836.11-3.538.31-5.241.51l-4.323.453c-2.488.346-5.109.6-7.505.813l-3.61.554c-3.047.45-6.116.787-9.206 1.012l-1.815.22c-1.03.076-1.948.13-3 .093l.65 3.48.201 1.705 1.403 7.521.384 1.439a73.263 73.263 0 001.298 6.96l.069 1.613 1.297 6.96.14 1.368 1.339 7.185c.51 2.112.928 4.357 1.347 6.602l.356 1.909c.275 1.168.528 2.37.782 3.571.253 1.202.506 2.403.782 3.572l.384 1.438c.22 1.179.467 2.353.715 3.526.248 1.174.496 2.347.715 3.526l.293 1.572c.427 1.663.761 3.459 1.075 5.143l.181 1.592.88 4.715c2.333-.549 4.688-.986 6.93-1.403l3.252-.603c2.13-.396 4.26-.791 6.411-1.075l3.231-.715c2.67-.612 5.452-1.245 8.255-1.765l2.243-.417a18.95 18.95 0 013.65-.329 68.3 68.3 0 01-.541-2.28 68.349 68.349 0 00-.541-2.281l-.251-1.347a93.009 93.009 0 00-.58-2.796c-.2-.921-.401-1.842-.579-2.796l-.74-3.347-1.172-6.287-.328-2.378-1.088-5.837-.432-2.94-1.507-8.083-.363-1.326-3.056-16.39c-.16-1.48-.453-3.052-.746-4.623l-.244-1.93c-.105-.561-.186-1.156-.268-1.75a37.897 37.897 0 00-.269-1.75l-.314-1.684c-.076-1.032-.243-1.93-.432-2.94z" fill="#7831B2"/><path fill-rule="evenodd" clip-rule="evenodd" d="M92.23 70.323c.876-.28 1.857.003 2.066 1.126 1.416 6.9 2.665 13.868 3.913 20.832.998 5.569 1.996 11.135 3.078 16.663a1015.45 1015.45 0 002.049 10.581c1.743 8.84 3.49 17.705 4.655 26.619.063.336.105.561.034.806-.049.358-.231.624-.659.819-4.36 1.945-9.402 2.707-14.223 3.435-1.1.166-2.189.331-3.255.507-6.503 1.207-12.935 2.169-19.585 2.591-.757-.178-1.179-1.385-1.295-1.967-.796-2.407-1.46-4.723-2.145-7.151l-.28-.877c-2.137-7.734-3.736-15.683-5.334-23.633l-.3-.989-.858-4.603c-.472-2.53-.964-5.066-1.456-7.605-1.234-6.363-2.472-12.75-3.414-19.134l-.188-1.01c-.37-2.603-.718-5.093-.975-7.717l-.251-1.347a7.015 7.015 0 01-.09-.796c-.02-.258-.039-.516-.091-.797-.034-.806.442-1.36.982-1.576.07-.245.162-.378.386-.42C66.32 70.72 78.7 69.93 90.52 69.246c.806-.033 1.36.445 1.71 1.077zm-.856 2.25l-.112.02c-1.836.109-3.54.309-5.242.509l-4.323.454c-2.488.345-5.109.6-7.505.812l-3.609.554c-3.048.45-6.117.787-9.207 1.013l-1.815.22c-1.03.075-1.948.13-2.999.092l.649 3.48.202 1.705 1.402 7.522.384 1.438a73.263 73.263 0 001.298 6.96l.069 1.614 1.297 6.96.14 1.368 1.34 7.184c.509 2.112.927 4.358 1.346 6.603l.356 1.908c.276 1.169.529 2.37.782 3.572.253 1.201.506 2.403.782 3.571l.384 1.439c.22 1.179.468 2.352.715 3.526.248 1.173.496 2.347.716 3.525l.293 1.572c.426 1.663.76 3.459 1.075 5.143l.18 1.593.88 4.715c2.333-.55 4.688-.987 6.93-1.403l3.252-.604c2.13-.395 4.26-.791 6.412-1.074l3.23-.716c2.67-.612 5.452-1.244 8.255-1.765l2.243-.416a18.795 18.795 0 013.651-.329c-.203-.776-.372-1.528-.542-2.281-.169-.752-.338-1.505-.541-2.28l-.251-1.348c-.178-.954-.379-1.875-.579-2.796a93.009 93.009 0 01-.58-2.796l-.74-3.347-1.172-6.286-.327-2.379-1.089-5.837-.432-2.94-1.507-8.082-.363-1.327-3.056-16.39c-.16-1.48-.453-3.051-.746-4.623l-.244-1.93a37.901 37.901 0 01-.268-1.75c-.082-.594-.164-1.189-.268-1.75l-.314-1.684c-.077-1.031-.244-1.93-.432-2.94zM198.035.851c.864-.35 1.899.219 2.242 2.058 2.24 11.322 4.317 22.732 6.393 34.136v.001c1.661 9.12 3.32 18.236 5.062 27.3 1.076 5.773 2.192 11.556 3.309 17.345 2.798 14.496 5.603 29.032 7.818 43.58.103.552.171.92.128 1.309l-.002.071c-.743 1.297-36.245 8.387-38.589 6.389-.34-.739-.58-1.655-.688-2.213-1.092-3.984-2.036-7.805-3.015-11.81l-.387-1.451c-3.074-12.751-5.622-25.79-8.169-38.829l-.421-1.634-1.406-7.542c-.773-4.146-1.567-8.302-2.362-12.466-1.992-10.43-3.992-20.902-5.688-31.333l-.309-1.655c-.676-4.252-1.318-8.32-1.883-12.592l-.411-2.207c-.086-.46-.135-.879-.184-1.298-.022-.185-.031-.242-.047-.344a32.86 32.86 0 01-.137-.954c-1.719-2.99 32.287-5.867 38.746-5.86zm-.618 3.54l-.112.021c-1.865-.034-3.583.094-5.301.223l-4.369.24c-2.504.275-5.155.386-7.581.456l-3.627.483c-2.998.37-5.619.857-8.905 1.467l-.221.041-1.831.15c-1.044.003-1.977-.014-3.056-.194l.891 4.778.402 2.78 2.298 12.324.558 2.37c.574 3.7 1.26 7.38 2.127 11.405l.255 2.617 2.127 11.404.299 2.228 2.195 11.773c.764 3.474 1.449 7.152 2.135 10.831l.583 3.127c.417 1.921.813 3.893 1.21 5.865.397 1.973.794 3.945 1.21 5.866l.558 2.37c.36 1.931.748 3.858 1.136 5.784.389 1.926.777 3.852 1.137 5.784l.48 2.575c.627 2.738 1.175 5.681 1.69 8.44l.368 2.596 1.785 9.573c2.323-.621 4.68-1.059 6.926-1.476l3.255-.604c2.133-.396 4.266-.792 6.433-1.004l3.222-.788c2.66-.684 5.432-1.389 8.238-1.91l2.246-.417a11.829 11.829 0 013.695-.115c-.296-1.277-.9-4.362-1.16-5.598a178.83 178.83 0 00-.815-3.75l-.412-2.207a245.065 245.065 0 00-.913-4.588c-.311-1.513-.622-3.025-.914-4.588l-1.141-5.498-1.92-10.3-.608-3.884-1.784-9.565-.779-4.803-2.469-13.244-.524-2.187-5.007-26.855c-.334-2.412-.814-4.987-1.294-7.562l-.471-3.148c-.171-.92-.323-1.89-.475-2.862-.152-.97-.304-1.941-.476-2.861l-.514-2.76c-.197-1.676-.471-3.147-.78-4.803z" fill="#7831B2"/><path fill-rule="evenodd" clip-rule="evenodd" d="M196.943.098c.864-.35 1.899.218 2.242 2.058 2.24 11.321 4.317 22.732 6.393 34.136l.001.001c1.66 9.12 3.319 18.236 5.061 27.299a2698.502 2698.502 0 003.31 17.346c2.797 14.496 5.603 29.032 7.817 43.58.103.552.172.92.128 1.309l-.002.071c-.743 1.296-36.245 8.387-38.589 6.389-.34-.739-.58-1.655-.688-2.213-1.092-3.984-2.036-7.806-3.015-11.811l-.387-1.45c-3.074-12.751-5.621-25.79-8.169-38.829l-.421-1.635-1.406-7.541c-.773-4.146-1.567-8.303-2.362-12.466-1.992-10.431-3.992-20.902-5.688-31.333l-.308-1.655c-.677-4.252-1.319-8.32-1.883-12.592l-.412-2.207c-.086-.46-.135-.88-.184-1.298-.022-.185-.031-.242-.047-.344a32.86 32.86 0 01-.137-.954c-1.719-2.99 32.287-5.867 38.746-5.861zm-.618 3.54l-.112.021c-1.865-.034-3.583.094-5.301.223l-4.369.24c-2.504.275-5.155.386-7.581.456l-3.626.483c-2.999.37-5.62.857-8.906 1.467l-.221.041-1.831.15c-1.044.003-1.977-.014-3.056-.194l.891 4.778.403 2.78 2.297 12.324.558 2.37c.574 3.7 1.26 7.379 2.127 11.405l.255 2.617 2.127 11.404.299 2.228 2.195 11.772c.764 3.474 1.45 7.153 2.136 10.832l.583 3.127c.416 1.921.813 3.893 1.209 5.865.397 1.972.794 3.945 1.21 5.866l.558 2.37c.36 1.931.748 3.858 1.137 5.784.388 1.926.776 3.852 1.136 5.783l.48 2.576c.627 2.738 1.176 5.681 1.69 8.44l.368 2.596 1.785 9.573c2.323-.621 4.681-1.059 6.926-1.476l3.255-.604c2.133-.396 4.266-.792 6.434-1.004l3.221-.788c2.66-.685 5.432-1.39 8.239-1.911l2.245-.416a11.799 11.799 0 013.695-.115c-.296-1.278-.9-4.362-1.16-5.598a177.457 177.457 0 00-.815-3.75l-.412-2.207c-.291-1.564-.602-3.076-.913-4.589a253.35 253.35 0 01-.914-4.588l-1.141-5.497-1.92-10.3-.608-3.884-1.784-9.565-.779-4.804-2.469-13.243-.524-2.187-5.007-26.855c-.334-2.412-.814-4.987-1.294-7.563l-.471-3.147a103.54 103.54 0 01-.475-2.862 99.702 99.702 0 00-.476-2.861l-.514-2.76c-.197-1.676-.471-3.147-.78-4.803z" fill="#7831B2"/><path clip-rule="evenodd" d="M1.988 107.196c11.844-4.29 24.997-5.918 37.574-6.279 1.611-.067 2.121 2.045 1.147 3.039.379 2.188.76 4.376 1.14 6.563l.002.01c2.673 15.359 5.345 30.708 7.399 46.082.105.561-.148 1.073-.555 1.38.238.653-.064 1.522-1.052 1.822l-.112.021c-.099.715-.688 1.289-1.444.965a2.392 2.392 0 01-.379-.163 2.485 2.485 0 00-.378-.162c-4.047 1.001-8.263 1.736-12.429 2.462a441.24 441.24 0 00-4.929.877c-1.169.217-2.396.504-3.656.798-4.055.946-8.439 1.97-12.25.993-.764.258-1.5.047-1.688-.964-2.851-18.402-5.772-36.559-10.305-54.65-.3-.989.38-1.696 1.143-1.954.162-.379.344-.645.772-.84zm36.299 2.437c-.314-1.684-.607-3.256-.788-4.848-2.62.254-5.241.508-7.841.874l-2.62.255c-1.02.131-2.063.295-3.105.46-1.042.164-2.085.329-3.104.46l-2.243.416-.31.043c-2.262.309-4.431.605-6.683 1.023l-2.397.213c-.953.177-1.883.32-2.813.464-.93.144-1.86.287-2.814.464.196.429.259.765.322 1.102l.447 1.776 1.53 6.336.292 1.572c.51 2.112 1.04 4.336 1.438 6.469l.294 1.572c.488 1.999.865 4.02 1.242 6.041l1.57 8.419c.099.837.22 1.643.339 2.434.123.82.244 1.625.337 2.435l.118 1.256c.059.628.151 1.278.243 1.929.093.651.185 1.301.244 1.929l.293 1.572c.23 1.235.327 2.378.425 3.522l.11 1.837c.027 1.389.166 2.757.305 4.125 1.465-.853 3.217-1.41 5.123-1.764l3.028-.562a44.179 44.179 0 011.972-.308c.65-.092 1.3-.183 1.973-.308l2.936-.429 3.7-.687 3.343-.737 5.157-.957 3.966-.504c.673-.125 1.367-.138 1.948-.13l-1.862-9.991-.39-2.715-1.215-6.511-.306-2.266c-.293-1.572-.565-3.031-.746-4.623l-.544-2.919c-.092-.811-.214-1.616-.337-2.436a77.466 77.466 0 01-.34-2.433l-.355-1.908c-.15-.801-.275-1.636-.398-2.455a67.313 67.313 0 00-.369-2.281l-.223-1.817c-.104-.561-.18-1.128-.258-1.694a34.466 34.466 0 00-.257-1.695l-.377-2.02z" stroke="#7831B2" stroke-width="2" mask="url(#a)"/><path clip-rule="evenodd" d="M2.735 106.101c11.845-4.289 24.997-5.918 37.574-6.278 1.612-.067 2.122 2.045 1.147 3.039.379 2.188.76 4.375 1.14 6.562l.002.01c2.673 15.359 5.345 30.708 7.4 46.082.104.561-.149 1.073-.555 1.381.237.653-.065 1.522-1.053 1.821l-.112.021c-.099.715-.688 1.289-1.444.965-.123-.035-.25-.099-.378-.162a2.295 2.295 0 00-.379-.162c-4.047 1.001-8.263 1.735-12.429 2.461-1.655.288-3.303.576-4.929.877-1.169.217-2.396.504-3.656.798-4.055.947-8.439 1.97-12.25.994-.764.258-1.5.046-1.688-.964-2.85-18.403-5.772-36.56-10.305-54.65-.3-.99.38-1.697 1.144-1.955.161-.378.343-.644.771-.84zm36.3 2.437c-.315-1.684-.608-3.256-.789-4.848-2.62.254-5.241.508-7.84.875l-2.621.254c-1.02.131-2.062.296-3.105.46a107.94 107.94 0 01-3.104.46l-2.242.417-.31.042c-2.263.309-4.432.606-6.684 1.024l-2.396.212a93.99 93.99 0 01-2.814.465c-.93.143-1.86.287-2.813.464.195.428.258.765.321 1.102l.447 1.775 1.53 6.336.293 1.572c.51 2.112 1.04 4.336 1.438 6.469l.293 1.572c.489 2 .865 4.021 1.242 6.041l1.57 8.42c.1.837.22 1.642.34 2.433.123.82.244 1.625.336 2.436l.118 1.255c.059.628.151 1.279.244 1.929.092.651.184 1.302.243 1.93l.293 1.571c.23 1.235.328 2.379.425 3.522l.11 1.838c.027 1.389.166 2.756.306 4.124 1.465-.852 3.217-1.41 5.123-1.764l3.027-.562c.673-.125 1.323-.216 1.973-.308.65-.091 1.3-.183 1.972-.308l2.936-.429 3.7-.687 3.343-.736 5.158-.958 3.966-.504c.672-.125 1.366-.137 1.948-.129l-1.863-9.991-.39-2.715-1.214-6.512-.307-2.266c-.293-1.571-.565-3.031-.746-4.623l-.544-2.919a67.968 67.968 0 00-.337-2.435 76.838 76.838 0 01-.339-2.434l-.356-1.908c-.149-.8-.274-1.635-.398-2.455a64.801 64.801 0 00-.369-2.281l-.222-1.817a33.27 33.27 0 01-.258-1.694 34.127 34.127 0 00-.258-1.694l-.377-2.021zm111.987-56.521c-.05.13-.108.253-.177.364.618 3.47 1.238 6.941 1.858 10.412l.003.015c4.352 24.37 8.701 48.724 12.42 73.053.166.891-.039 1.667-.424 2.107-11.115 2.494-34.031 7.609-36.775 8.118-.757.325-1.533-.084-1.832-1.688-4.854-29.162-9.754-57.947-16.3-86.794-.412-1.584.212-2.622.969-2.947 34.192-7.495 41.062-5.065 40.258-2.64zm-2.066 9.014c-.498-2.674-.964-5.17-1.316-7.686-2.662.125-5.323.25-7.951.554l-2.662.125c-1.032.1-2.084.248-3.136.398-1.052.149-2.104.298-3.136.397l-2.257.42-.313.033c-2.289.25-4.482.488-6.748.908l-2.436.084a59.44 59.44 0 01-2.837.434c-.94.128-1.879.257-2.838.435.246.692.346 1.227.445 1.761l.645 2.832 2.233 10.098.465 2.496c.745 3.366 1.522 6.91 2.154 10.297l.465 2.496c.711 3.188 1.309 6.396 1.908 9.605l2.492 13.37c.19 1.323.399 2.599.604 3.852.212 1.299.421 2.574.6 3.855l.253 1.982c.126.991.289 2.021.452 3.052.163 1.03.326 2.06.452 3.051l.466 2.496c.365 1.961.585 3.764.804 5.568l.306 2.894c.174 2.181.46 4.341.746 6.501 1.413-1.184 3.152-1.876 5.07-2.232l3.046-.566a29.43 29.43 0 011.991-.277c.657-.076 1.314-.152 1.991-.278l2.967-.366 3.723-.691 3.352-.807 5.19-.963 4.016-.377c.677-.126 1.387-.073 1.984.001l-2.958-15.866-.685-4.299-1.928-10.34-.551-3.586c-.466-2.495-.898-4.813-1.25-7.33l-.865-4.634c-.179-1.281-.388-2.557-.6-3.855-.205-1.254-.414-2.53-.603-3.853l-.565-3.03c-.237-1.271-.453-2.594-.666-3.892a166.71 166.71 0 00-.617-3.616l-.419-2.873a86.79 86.79 0 01-.442-2.685c-.138-.896-.276-1.793-.442-2.684l-.599-3.209z" stroke="#7831B2" stroke-width="2" mask="url(#a)"/><path clip-rule="evenodd" d="M149.93 51.264a2.18 2.18 0 01-.176.363c.618 3.472 1.238 6.942 1.857 10.413l.003.015c4.352 24.37 8.701 48.724 12.42 73.052.166.892-.039 1.668-.424 2.108-11.115 2.494-34.031 7.609-36.775 8.118-.756.325-1.533-.084-1.832-1.689-4.854-29.161-9.754-57.946-16.299-86.793-.412-1.584.211-2.622.968-2.947 34.192-7.495 41.062-5.066 40.258-2.64zm-2.066 9.014c-.498-2.674-.963-5.17-1.316-7.686-2.661.125-5.323.25-7.951.553l-2.662.126a70.733 70.733 0 00-3.136.397c-1.052.15-2.104.299-3.136.398l-2.256.42-.313.033c-2.289.249-4.483.488-6.749.908l-2.436.084c-.959.178-1.898.306-2.837.434-.939.128-1.879.257-2.838.434.246.693.346 1.227.446 1.762l.644 2.831 2.233 10.099.466 2.496c.744 3.366 1.521 6.91 2.153 10.297l.465 2.496c.711 3.187 1.31 6.396 1.908 9.605l2.493 13.37c.189 1.323.398 2.599.603 3.852.212 1.299.421 2.574.6 3.855l.253 1.982c.126.991.289 2.021.452 3.051.163 1.031.326 2.061.452 3.052l.466 2.495c.365 1.961.585 3.765.804 5.569l.307 2.894c.173 2.181.459 4.341.745 6.501 1.413-1.185 3.152-1.876 5.07-2.232l3.046-.566c.677-.126 1.334-.201 1.992-.277a28.819 28.819 0 001.991-.278l2.966-.366 3.724-.691 3.351-.807 5.19-.963 4.016-.377c.677-.126 1.387-.073 1.984 0l-2.958-15.865-.685-4.299-1.927-10.34-.552-3.586c-.466-2.496-.898-4.813-1.25-7.33l-.864-4.635c-.18-1.28-.388-2.556-.601-3.855a197.58 197.58 0 01-.603-3.852l-.565-3.03c-.237-1.271-.453-2.594-.666-3.892-.204-1.251-.405-2.48-.617-3.616l-.419-2.874c-.166-.89-.304-1.788-.442-2.684a86.66 86.66 0 00-.442-2.685l-.599-3.208zM91.483 71.417c.876-.279 1.857.004 2.066 1.127 1.415 6.9 2.664 13.868 3.913 20.831.998 5.57 1.996 11.136 3.078 16.663a1042.4 1042.4 0 002.048 10.582c1.743 8.84 3.491 17.705 4.656 26.618.062.337.104.561.034.807-.049.357-.232.623-.659.819-4.36 1.944-9.403 2.706-14.224 3.435-1.1.166-2.188.33-3.254.507-6.503 1.207-12.936 2.169-19.585 2.59-.758-.177-1.179-1.385-1.295-1.966-.797-2.408-1.46-4.723-2.145-7.151l-.28-.878c-2.138-7.733-3.736-15.683-5.334-23.632l-.3-.99-.859-4.603c-.471-2.529-.963-5.065-1.456-7.605-1.233-6.363-2.472-12.75-3.413-19.133l-.188-1.01c-.37-2.603-.718-5.094-.975-7.718l-.251-1.347a6.623 6.623 0 01-.09-.796c-.02-.258-.039-.515-.091-.796-.035-.807.442-1.36.982-1.576.07-.245.161-.378.386-.42 11.325-3.961 23.707-4.75 35.527-5.434.806-.034 1.36.444 1.709 1.076zm-.857 2.25l-.112.02c-1.836.11-3.538.31-5.241.51l-4.323.453c-2.488.346-5.109.6-7.505.813l-3.61.554c-3.047.45-6.116.787-9.206 1.012l-1.815.22c-1.03.076-1.948.13-3 .093l.65 3.48.201 1.705 1.403 7.521.384 1.439a73.263 73.263 0 001.298 6.96l.069 1.613 1.297 6.96.14 1.368 1.339 7.185c.51 2.112.928 4.357 1.347 6.602l.356 1.909c.275 1.168.528 2.37.782 3.571.253 1.202.506 2.403.782 3.572l.384 1.438c.22 1.179.467 2.353.715 3.526.248 1.174.496 2.347.715 3.526l.293 1.572c.427 1.663.761 3.459 1.075 5.143l.181 1.592.88 4.715c2.333-.549 4.688-.986 6.93-1.403l3.252-.603c2.13-.396 4.26-.791 6.411-1.075l3.231-.715c2.67-.612 5.452-1.245 8.255-1.765l2.243-.417a18.95 18.95 0 013.65-.329 68.3 68.3 0 01-.541-2.28 68.349 68.349 0 00-.541-2.281l-.251-1.347a93.009 93.009 0 00-.58-2.796c-.2-.921-.401-1.842-.579-2.796l-.74-3.347-1.172-6.287-.328-2.378-1.088-5.837-.432-2.94-1.507-8.083-.363-1.326-3.056-16.39c-.16-1.48-.453-3.052-.746-4.623l-.244-1.93c-.105-.561-.186-1.156-.268-1.75a37.897 37.897 0 00-.269-1.75l-.314-1.684c-.076-1.032-.243-1.93-.432-2.94z" stroke="#7831B2" stroke-width="2" mask="url(#a)"/><path clip-rule="evenodd" d="M92.23 70.323c.876-.28 1.857.003 2.066 1.126 1.416 6.9 2.665 13.868 3.913 20.832.998 5.569 1.996 11.135 3.078 16.663a1015.45 1015.45 0 002.049 10.581c1.743 8.84 3.49 17.705 4.655 26.619.063.336.105.561.034.806-.049.358-.231.624-.659.819-4.36 1.945-9.402 2.707-14.223 3.435-1.1.166-2.189.331-3.255.507-6.503 1.207-12.935 2.169-19.585 2.591-.757-.178-1.179-1.385-1.295-1.967-.796-2.407-1.46-4.723-2.145-7.151l-.28-.877c-2.137-7.734-3.736-15.683-5.334-23.633l-.3-.989-.858-4.603c-.472-2.53-.964-5.066-1.456-7.605-1.234-6.363-2.472-12.75-3.414-19.134l-.188-1.01c-.37-2.603-.718-5.093-.975-7.717l-.251-1.347a7.015 7.015 0 01-.09-.796c-.02-.258-.039-.516-.091-.797-.034-.806.442-1.36.982-1.576.07-.245.162-.378.386-.42C66.32 70.72 78.7 69.93 90.52 69.246c.806-.033 1.36.445 1.71 1.077zm-.856 2.25l-.112.02c-1.836.109-3.54.309-5.242.509l-4.323.454c-2.488.345-5.109.6-7.505.812l-3.609.554c-3.048.45-6.117.787-9.207 1.013l-1.815.22c-1.03.075-1.948.13-2.999.092l.649 3.48.202 1.705 1.402 7.522.384 1.438a73.263 73.263 0 001.298 6.96l.069 1.614 1.297 6.96.14 1.368 1.34 7.184c.509 2.112.927 4.358 1.346 6.603l.356 1.908c.276 1.169.529 2.37.782 3.572.253 1.201.506 2.403.782 3.571l.384 1.439c.22 1.179.468 2.352.715 3.526.248 1.173.496 2.347.716 3.525l.293 1.572c.426 1.663.76 3.459 1.075 5.143l.18 1.593.88 4.715c2.333-.55 4.688-.987 6.93-1.403l3.252-.604c2.13-.395 4.26-.791 6.412-1.074l3.23-.716c2.67-.612 5.452-1.244 8.255-1.765l2.243-.416a18.795 18.795 0 013.651-.329c-.203-.776-.372-1.528-.542-2.281-.169-.752-.338-1.505-.541-2.28l-.251-1.348c-.178-.954-.379-1.875-.579-2.796a93.009 93.009 0 01-.58-2.796l-.74-3.347-1.172-6.286-.327-2.379-1.089-5.837-.432-2.94-1.507-8.082-.363-1.327-3.056-16.39c-.16-1.48-.453-3.051-.746-4.623l-.244-1.93a37.901 37.901 0 01-.268-1.75c-.082-.594-.164-1.189-.268-1.75l-.314-1.684c-.077-1.031-.244-1.93-.432-2.94zM198.035.851c.864-.35 1.899.219 2.242 2.058 2.24 11.322 4.317 22.732 6.393 34.136v.001c1.661 9.12 3.32 18.236 5.062 27.3 1.076 5.773 2.192 11.556 3.309 17.345h0c2.798 14.496 5.603 29.032 7.818 43.58.103.552.171.92.128 1.309l-.002.071c-.743 1.297-36.245 8.387-38.589 6.389-.34-.739-.58-1.655-.688-2.213-1.092-3.984-2.036-7.805-3.015-11.81l-.387-1.451c-3.074-12.751-5.622-25.79-8.169-38.829l-.421-1.634-1.406-7.542c-.773-4.146-1.567-8.302-2.362-12.466-1.992-10.43-3.992-20.902-5.688-31.333l-.309-1.655c-.676-4.252-1.318-8.32-1.883-12.592l-.411-2.207c-.086-.46-.135-.879-.184-1.298-.022-.185-.031-.242-.047-.344a32.86 32.86 0 01-.137-.954c-1.719-2.99 32.287-5.867 38.746-5.86zm-.618 3.54l-.112.021c-1.865-.034-3.583.094-5.301.223l-4.369.24c-2.504.275-5.155.386-7.581.456l-3.627.483c-2.998.37-5.619.857-8.905 1.467l-.221.041-1.831.15c-1.044.003-1.977-.014-3.056-.194l.891 4.778.402 2.78 2.298 12.324.558 2.37c.574 3.7 1.26 7.38 2.127 11.405l.255 2.617 2.127 11.404.299 2.228 2.195 11.773c.764 3.474 1.449 7.152 2.135 10.831l.583 3.127c.417 1.921.813 3.893 1.21 5.865.397 1.973.794 3.945 1.21 5.866l.558 2.37c.36 1.931.748 3.858 1.136 5.784.389 1.926.777 3.852 1.137 5.784l.48 2.575c.627 2.738 1.175 5.681 1.69 8.44l.368 2.596 1.785 9.573c2.323-.621 4.68-1.059 6.926-1.476l3.255-.604c2.133-.396 4.266-.792 6.433-1.004l3.222-.788c2.66-.684 5.432-1.389 8.238-1.91l2.246-.417a11.829 11.829 0 013.695-.115c-.296-1.277-.9-4.362-1.16-5.598a178.83 178.83 0 00-.815-3.75l-.412-2.207a245.065 245.065 0 00-.913-4.588c-.311-1.513-.622-3.025-.914-4.588l-1.141-5.498-1.92-10.3-.608-3.884-1.784-9.565-.779-4.803-2.469-13.244-.524-2.187-5.007-26.855c-.334-2.412-.814-4.987-1.294-7.562l-.471-3.148c-.171-.92-.323-1.89-.475-2.862-.152-.97-.304-1.941-.476-2.861l-.514-2.76c-.197-1.676-.471-3.147-.78-4.803z" stroke="#7831B2" stroke-width="2" mask="url(#a)"/><path clip-rule="evenodd" d="M196.943.098c.864-.35 1.899.218 2.242 2.058 2.24 11.321 4.317 22.732 6.393 34.136l.001.001c1.66 9.12 3.319 18.236 5.061 27.299a2698.502 2698.502 0 003.31 17.346h0c2.797 14.496 5.603 29.032 7.817 43.58.103.552.172.92.128 1.309l-.002.071c-.743 1.296-36.245 8.387-38.589 6.389-.34-.739-.58-1.655-.688-2.213-1.092-3.984-2.036-7.806-3.015-11.811l-.387-1.45c-3.074-12.751-5.621-25.79-8.169-38.829l-.421-1.635-1.406-7.541c-.773-4.146-1.567-8.303-2.362-12.466-1.992-10.431-3.992-20.902-5.688-31.333l-.308-1.655c-.677-4.252-1.319-8.32-1.883-12.592l-.412-2.207c-.086-.46-.135-.88-.184-1.298-.022-.185-.031-.242-.047-.344a32.86 32.86 0 01-.137-.954c-1.719-2.99 32.287-5.867 38.746-5.861zm-.618 3.54l-.112.021c-1.865-.034-3.583.094-5.301.223l-4.369.24c-2.504.275-5.155.386-7.581.456l-3.626.483c-2.999.37-5.62.857-8.906 1.467l-.221.041-1.831.15c-1.044.003-1.977-.014-3.056-.194l.891 4.778.403 2.78 2.297 12.324.558 2.37c.574 3.7 1.26 7.379 2.127 11.405l.255 2.617 2.127 11.404.299 2.228 2.195 11.772c.764 3.474 1.45 7.153 2.136 10.832l.583 3.127c.416 1.921.813 3.893 1.209 5.865.397 1.972.794 3.945 1.21 5.866l.558 2.37c.36 1.931.748 3.858 1.137 5.784.388 1.926.776 3.852 1.136 5.783l.48 2.576c.627 2.738 1.176 5.681 1.69 8.44l.368 2.596 1.785 9.573c2.323-.621 4.681-1.059 6.926-1.476l3.255-.604c2.133-.396 4.266-.792 6.434-1.004l3.221-.788c2.66-.685 5.432-1.39 8.239-1.911l2.245-.416a11.799 11.799 0 013.695-.115c-.296-1.278-.9-4.362-1.16-5.598a177.457 177.457 0 00-.815-3.75l-.412-2.207c-.291-1.564-.602-3.076-.913-4.589a253.35 253.35 0 01-.914-4.588l-1.141-5.497-1.92-10.3-.608-3.884-1.784-9.565-.779-4.804-2.469-13.243-.524-2.187-5.007-26.855c-.334-2.412-.814-4.987-1.294-7.563l-.471-3.147a103.54 103.54 0 01-.475-2.862 99.702 99.702 0 00-.476-2.861l-.514-2.76c-.197-1.676-.471-3.147-.78-4.803z" stroke="#7831B2" stroke-width="2" mask="url(#a)"/></svg>