<svg width="52" height="69" fill="none" xmlns="http://www.w3.org/2000/svg"><path d="M2.72 10.029l20.515-6.002c.42-.123.87.037 1.116.395L45.429 35.14a.99.99 0 01-.546 1.51l-9.693 2.835a.99.99 0 00-.57 1.472l15.223 24.52c.594.957-.623 2.001-1.497 1.285L13.713 38.38a.989.989 0 01.356-1.717l8.156-2.385a.989.989 0 00.439-1.641L2.28 11.669a.989.989 0 01.439-1.64z" stroke="#E71985" stroke-width="3"/><path d="M2.72 8.043L23.235 2.04c.42-.123.87.037 1.116.395l21.078 30.719a.99.99 0 01-.546 1.51L35.19 37.5a.99.99 0 00-.57 1.472l15.223 24.52c.594.957-.623 2-1.497 1.284L13.713 36.394a.989.989 0 01.356-1.717l8.156-2.386a.989.989 0 00.439-1.64L2.28 9.683a.989.989 0 01.439-1.64z" stroke="#E71985" stroke-width="3"/></svg>