<svg width="80" height="142" fill="none" xmlns="http://www.w3.org/2000/svg"><path d="M75.7 4.23L32.465 2.125a2.047 2.047 0 00-2.01 1.304L3.467 73.842c-.488 1.275.415 2.645 1.79 2.712l20.427.994c1.335.065 2.238 1.367 1.82 2.626L9.116 135.62c-.718 2.164 2.17 3.642 3.554 1.819l54.783-72.226c.979-1.29.112-3.13-1.512-3.21l-17.188-.836c-1.522-.074-2.414-1.717-1.64-3.02L77.34 7.25c.774-1.303-.118-2.947-1.64-3.02z" stroke="#7831B2" stroke-width="3"/><path d="M74.309 6.099L31.074 3.995a2.046 2.046 0 00-2.01 1.305L2.075 75.71c-.489 1.275.415 2.646 1.79 2.713l20.427.993c1.335.065 2.237 1.367 1.82 2.626L7.724 137.488c-.717 2.164 2.171 3.642 3.554 1.819l54.784-72.226c.979-1.29.111-3.13-1.513-3.21l-17.187-.836c-1.522-.074-2.318-.912-1.544-2.215L76.044 9.924c.774-1.303-.215-3.751-1.736-3.825z" stroke="#7831B2" stroke-width="3"/></svg>