<svg width="147" height="171" fill="none" xmlns="http://www.w3.org/2000/svg"><path d="M40 60.51c-.13.35-.29.58-.479.689-.182.112-.403.119-.663.022-.308-.115-.517-.3-.626-.551-.107-.259-.093-.567.04-.924.188-.508.392-1.015.611-1.52.228-.509.464-1.007.708-1.495.25-.485.497-.948.74-1.39l.22.412a1.792 1.792 0 01-.465.119 2.213 2.213 0 01-1.023-.113c-.356-.133-.582-.331-.68-.594a1.084 1.084 0 01-.011-.756.702.702 0 01.343-.387c.165-.087.382-.096.653-.026.293.07.574.081.842.033a3.91 3.91 0 00.752-.2 1.33 1.33 0 01.4-.097c.146-.016.3.007.465.069.247.092.437.241.57.448.137.2.203.42.2.66.003.244-.08.476-.247.695a13.036 13.036 0 00-.935 1.54c-.275.53-.514 1.035-.716 1.515-.192.476-.35.882-.476 1.218-.116.333-.19.543-.223.633zm-7.07 13.618c-.364-.136-.59-.342-.683-.62a1.212 1.212 0 01.015-.827c.082-.22.207-.4.376-.54.179-.144.43-.253.754-.328a27.897 27.897 0 001.74-.429c.504-.14.932-.285 1.284-.435.355-.157.636-.325.843-.506.217-.185.368-.39.452-.617a.38.38 0 00-.016-.334c-.047-.104-.16-.19-.338-.256a2.277 2.277 0 00-.855-.155 4.056 4.056 0 00-.77.087c-.237.052-.452.097-.646.134a.902.902 0 01-.485-.017.856.856 0 01-.502-.505 1.013 1.013 0 01-.005-.741.888.888 0 01.245-.377c.103-.087.253-.156.451-.207a7.334 7.334 0 011.748-.262 3.976 3.976 0 011.49.24c.547.205.953.466 1.217.784.267.311.414.66.442 1.046.028.386-.038.795-.199 1.227a2.73 2.73 0 01-.41.727c-.18.23-.438.454-.777.672-.331.22-.777.433-1.337.638-.553.208-1.252.412-2.099.611l-.27-.628a3.275 3.275 0 00.757.388c.185.07.398.137.638.204.24.066.505.141.794.226.295.087.6.19.915.307.527.197.857.434.988.71.134.269.146.551.036.846a.806.806 0 01-.425.451c-.207.095-.45.09-.731-.015a41.273 41.273 0 00-2.946-.984l-.992-.289a10.1 10.1 0 01-.7-.226zm-3.354 14.777c-.561-.21-.974-.43-1.239-.663-.265-.232-.417-.472-.457-.722a1.51 1.51 0 01.09-.776c.084-.227.204-.401.358-.523.157-.13.349-.151.575-.067.103.039.18.091.234.158.06.07.117.146.172.229.055.083.13.166.224.248a1.4 1.4 0 00.429.23c.547.205 1.034.356 1.458.452.434.092.785.122 1.055.09.272-.04.441-.149.507-.327.044-.117.022-.227-.064-.33-.087-.102-.276-.224-.567-.364-.291-.14-.724-.318-1.3-.533-.273-.102-.442-.279-.505-.529a1.25 1.25 0 01.048-.757.577.577 0 01.229-.301c.102-.064.233-.081.394-.052.444.064.82.1 1.13.106.31.006.555-.024.735-.09.18-.065.296-.166.347-.304a.209.209 0 00.003-.163c-.012-.051-.053-.098-.124-.14a1.227 1.227 0 00-.296-.146c-.418-.156-.781-.25-1.09-.279a4.108 4.108 0 00-.794-.003c-.228.024-.428.047-.6.069a1.023 1.023 0 01-.494-.056.804.804 0 01-.3-.23 1.314 1.314 0 01-.218-.421.802.802 0 01.028-.483c.06-.164.215-.306.462-.425a3.09 3.09 0 01.924-.253 5.299 5.299 0 011.228.002c.45.05.907.163 1.373.337.561.21.994.462 1.298.755.314.29.508.605.584.946.083.344.054.705-.086 1.083a1.583 1.583 0 01-.302.497 1.479 1.479 0 01-.506.386c-.2.097-.45.16-.749.189a3.957 3.957 0 01-1.045-.086l.088-.425c.518.202.927.414 1.227.635.302.215.515.44.639.673.13.237.192.479.186.727a2.228 2.228 0 01-.148.743c-.16.432-.41.766-.746 1a2.55 2.55 0 01-1.177.428 5.164 5.164 0 01-1.51-.06 9.476 9.476 0 01-1.708-.475zm-1.64 16.205c-.349-.131-.548-.362-.596-.693-.049-.331.04-.798.264-1.403.202-.542.434-1.05.695-1.523.265-.48.515-.923.75-1.327a6.85 6.85 0 00.557-1.118.917.917 0 00.053-.238 2.373 2.373 0 00-.002-.341l.327.79a5.198 5.198 0 00-1.205.407 6.924 6.924 0 00-1.182.696 8.477 8.477 0 00-1.074.936l-.276-.925c.145.133.252.224.32.272.067.049.166.098.296.147.33.122.659.222.989.299.333.07.675.135 1.027.196.351.061.72.14 1.105.237.394.093.814.223 1.26.389a.77.77 0 01.4.338c.099.154.157.332.176.535.02.195-.005.389-.076.582a.853.853 0 01-.338.436c-.144.095-.333.099-.566.012a14.532 14.532 0 00-1.506-.481 27.4 27.4 0 00-1.304-.3c-.41-.091-.82-.186-1.228-.284a10.306 10.306 0 01-1.24-.381 1.303 1.303 0 01-.575-.403 1.464 1.464 0 01-.264-.58c-.034-.2-.021-.383.04-.548.095-.254.231-.516.41-.785.187-.275.485-.574.895-.898.449-.348.9-.64 1.355-.877.462-.234.902-.41 1.32-.528a5 5 0 011.12-.214c.33-.026.59-.003.782.07.322.12.559.29.71.511.155.214.24.446.257.695.024.25-.004.483-.083.696a7.935 7.935 0 01-.504 1.102c-.18.34-.37.671-.569.996a42.68 42.68 0 00-.576 1.016 9.674 9.674 0 00-.513 1.158 2.675 2.675 0 00-.163.596 1.671 1.671 0 01-.098.421.589.589 0 01-.437.388c-.208.056-.452.031-.733-.074zm-7.813 14.741c-.404-.151-.72-.331-.946-.541a1.413 1.413 0 01-.409-.693 1.39 1.39 0 01.076-.769.98.98 0 01.37-.495c.176-.114.38-.128.613-.041a.424.424 0 01.203.146c.049.058.094.125.135.203.044.071.102.144.176.219.076.067.19.129.34.186.24.089.494.161.763.214.269.054.527.084.774.09.254.009.47-.016.648-.074.178-.059.293-.16.347-.305a.484.484 0 00.026-.26c-.013-.09-.078-.189-.194-.295a3.212 3.212 0 00-.559-.385 15.622 15.622 0 01-1.326-.871c-.32-.253-.548-.487-.686-.703-.136-.223-.2-.45-.191-.682.008-.231.067-.495.177-.79.076-.206.182-.428.318-.667.145-.243.326-.5.544-.771.123-.165.247-.275.369-.331.122-.056.276-.049.46.02.39.146.729.264 1.015.355.295.087.563.164.803.231.248.069.49.14.728.213.248.069.515.157.803.265.445.166.735.412.872.737.14.318.146.626.02.923a.697.697 0 01-.354.384.672.672 0 01-.513-.005 20.22 20.22 0 00-1.742-.569 98.741 98.741 0 01-.858-.274 18.392 18.392 0 01-1.051-.381l.94-.2a3.29 3.29 0 00-.346.363 1.246 1.246 0 00-.152.284.598.598 0 00-.037.162.33.33 0 00.084.184c.06.069.157.153.293.25.138.091.333.207.584.348.687.398 1.188.761 1.502 1.09.315.328.49.656.524.982.045.321-.007.681-.156 1.08a2.255 2.255 0 01-1.02 1.202c-.477.275-1.055.415-1.735.419-.68.004-1.424-.145-2.232-.448z" fill="#7831B2"/><path fill-rule="evenodd" clip-rule="evenodd" d="M40.233.666L40.42 0c74.64 18.732 90.396 24.055 98.408 26.761 2.184.738 3.792 1.281 5.86 1.849l.595.163c.472.13.765.411.941.667l.775.1-.507 1.821c-.369 2.909-2.653 12.941-5.884 26.197-3.303 13.548-7.637 30.626-12.06 47.346-4.423 16.716-8.939 33.089-12.607 45.222-1.832 6.06-3.46 11.092-4.765 14.587-.649 1.737-1.238 3.15-1.75 4.13-.25.478-.526.942-.83 1.298a2.676 2.676 0 01-.674.581 1.92 1.92 0 01-1.486.211l-8.334-2.287H98.1l-.019-.006h-.002l-2.238-.614a1.663 1.663 0 01-.48-.218l-73.343-22.45-.02-.006-20.621-6.036-.317-.355c-.69-.775-.915-1.884-1.004-2.837-.097-1.03-.063-2.284.063-3.699.286-5.695 2.189-15.387 4.982-26.934 2.81-11.617 6.555-25.245 10.571-38.847 8.02-27.161 17.17-54.375 22.16-65.27a1.657 1.657 0 012.4-.708zM42.69 4.21C38.162 15.7 29.03 41.718 20.689 67.847c-4.284 13.421-8.353 26.852-11.477 38.34-3.13 11.505-5.277 20.941-5.781 26.47-.056 1.173-.032 2.084.056 2.742.034.255.074.44.109.57l7.724 2.632 11.627 3.56.02.005 82.453 24.136 37.363-133.998c-8.048-1.41-25.703-6.12-44.86-11.579C78.485 15.186 57.333 8.826 42.69 4.21zm21.978 25.594a1.66 1.66 0 011.952-1.309c11.208 2.236 21.966 5.189 29.915 7.58a358.19 358.19 0 019.541 3.01 247.422 247.422 0 013.348 1.137l.18.063.059.02.003.002-.177.505.178-.505a1.667 1.667 0 01.955 2.263 1.658 1.658 0 01-2.087 1.43L65.718 32.251a1.666 1.666 0 01-1.071-2.3c.005-.05.012-.1.022-.149zm-2.22 11.13a1.66 1.66 0 011.952-1.31c11.208 2.237 21.966 5.19 29.916 7.58a358.129 358.129 0 019.541 3.01 251.664 251.664 0 013.347 1.137l.18.064.059.02.003.002s.002 0-.177.505l.179-.505a1.667 1.667 0 01.955 2.262 1.66 1.66 0 01-2.089 1.432L63.499 43.382a1.666 1.666 0 01-1.072-2.3c.005-.05.013-.1.023-.15zM48.032 62.04a1.66 1.66 0 011.981-1.263c16.649 3.732 32.741 8.148 44.667 11.629a801.85 801.85 0 0114.324 4.322 538.44 538.44 0 015.027 1.597l.269.087.091.03h.001l-.165.51.165-.51a1.667 1.667 0 01.994 2.276 1.658 1.658 0 01-2.088 1.432L49.072 64.527a1.666 1.666 0 01-1.072-2.3 2.02 2.02 0 01.03-.187zm-4.44 13.355a1.66 1.66 0 011.982-1.262c16.649 3.731 32.741 8.147 44.667 11.628a802.104 802.104 0 0114.324 4.323 538.44 538.44 0 015.027 1.596l.269.088.091.03h.001l-.166.51.166-.51a1.667 1.667 0 01.994 2.275 1.658 1.658 0 01-2.088 1.432L44.633 77.883a1.666 1.666 0 01-1.072-2.3c.007-.061.017-.124.03-.187zm-4.438 14.469a1.66 1.66 0 011.981-1.263c16.649 3.732 32.741 8.148 44.667 11.629a805.408 805.408 0 0114.324 4.322 556.564 556.564 0 015.027 1.597l.269.087.091.03h.001l-.166.51.166-.51a1.668 1.668 0 01.994 2.276 1.658 1.658 0 01-2.088 1.432L40.194 92.352a1.666 1.666 0 01-1.072-2.3 2.02 2.02 0 01.03-.187zm-3.33 15.581a1.66 1.66 0 011.982-1.262c16.648 3.731 32.74 8.147 44.666 11.628a805.152 805.152 0 0114.325 4.323 479.429 479.429 0 015.027 1.596l.269.088.091.029.001.001-.166.51.166-.51a1.667 1.667 0 01.994 2.276 1.658 1.658 0 01-2.088 1.431l-64.226-17.623a1.665 1.665 0 01-1.071-2.299 1.79 1.79 0 01.03-.188zm-5.548 15.582a1.66 1.66 0 011.981-1.263c16.648 3.732 32.74 8.148 44.666 11.629a806.657 806.657 0 0114.325 4.322 575.31 575.31 0 015.027 1.597l.269.087.09.03h.002l-.166.51.166-.51a1.668 1.668 0 01.994 2.276 1.66 1.66 0 01-2.088 1.432l-64.225-17.623a1.667 1.667 0 01-1.072-2.3 2.02 2.02 0 01.03-.187z" fill="#7831B2"/></svg>