<svg width="258" height="208" fill="none" xmlns="http://www.w3.org/2000/svg"><path d="M2.658 72.568c34.602 22.138 108.125 59.622 132.77 41.861C161 96 202.21 32.882 221.118 4.385M74.942 111.4c-8.433 27.596-26.796 84.629-32.787 91.993m0 0c5.99-7.364 27.128-62.692 35.56-90.288m-35.56 90.288c40.408-7.756 139.54-31.192 212.806-62.888 6.466-30.061-18.823-104.37-32.275-137.768C166.095 14.54 43.039 44.32 3.536 69.002c-3.571 11.688 24.258 94.463 38.62 134.39zM163.36 87.001c23.995 17.672 74.938 52.815 86.743 52.01M4.304 74.139S104.685 138.544 137.074 116c32.389-22.543 62.283-85.503 81.191-114m-50.91 84.098c23.996 17.672 71.899 53.373 83.705 52.568M40.933 206c40.408-7.756 139.539-31.192 212.805-62.888 6.466-30.061-18.823-104.371-32.275-137.768C164.873 17.148 41.816 46.927 2.313 71.61-1.258 83.298 26.572 166.073 40.933 206z" stroke="#7831B2" stroke-width="3" stroke-linecap="round"/></svg>