<svg width="297" height="261" fill="none" xmlns="http://www.w3.org/2000/svg"><path d="M128.678 91.07l36.737 13.732c.615.231.845.982.464 1.518l-.28.392c-.263.368-.74.514-1.164.356l-37.239-13.92m1.482-2.078l-1.482 2.078m1.482-2.078l6.629 39.596a.903.903 0 01-.156.673v0c-.467.655-1.492.418-1.624-.375l-6.331-37.816M16.544 68.292C51.728 50.702 170.455 10.36 252.77 19.609c.44.05.787.383.862.82l22.891 131.883m-.087-4.943L253.72 20.683a1.001 1.001 0 00-1.732-.488v0a1.002 1.002 0 00-.236.858l24.684 126.316zm0 0l1.064 5.444M37.984 190.578l1.132 6.554.33 1.234-1.462-7.788zm0 0L17.768 68.809a.816.816 0 00-1.285-.526v0a.816.816 0 00-.323.804l21.824 121.491zm131.45 15.199l7.329 41.8m0 0L121.429 259m55.334-11.423l59.848-10.095m-67.599-32.611l7.329 41.799m0 0l-55.334 11.424m55.334-11.424l11.181-2.04m0 0l49.121-8.266m-49.121 8.266l-8.392-41.712m15.834-100.117a41.772 41.772 0 00-4.404-13.482c-9.278-17.577-30.654-28.173-53.575-24.818-28.316 4.146-48.269 28.014-44.565 53.313a41.766 41.766 0 004.404 13.482c9.278 17.577 30.653 28.173 53.574 24.818 28.317-4.146 48.269-28.015 44.566-53.313zM27.204 210.796L2.186 61.362a.902.902 0 01.193-.723v0a.902.902 0 011.587.425l25.016 149.434a.904.904 0 01-.193.723v0a.903.903 0 01-1.587-.425zm266.185-47.683c-46.032 22.863-162.771 64.548-264.248 49.874a.994.994 0 01-.663-1.564l.18-.252a1 1 0 01.961-.409c100.288 14.885 215.788-25.627 263.272-48.753.562-.273 1.077.409.714.918v0a.57.57 0 01-.216.186zm-16.956-9.682c-29.437 19.491-136.01 57.967-236.216 45.566a.996.996 0 01-.686-1.568l.165-.231c.214-.301.577-.458.943-.412 101.527 12.94 205.633-26.023 233.811-45.373a.96.96 0 01.994-.056l.826.41c.68.337.797 1.245.163 1.664zM4.688 60.846C51.676 36.298 167.15-3.054 261.559 7.591a1 1 0 00.977-.494l.186-.32a.992.992 0 00-.745-1.49C166.441-5.163 49.67 35.243 4.086 59.632a.644.644 0 00-.257.252v0c-.339.584.26 1.275.859.962zm23.581 152.085c101.266 14.85 218.055-26.533 264.602-49.453.409-.201.605-.643.511-1.089L260.133 4.622a.996.996 0 00-.888-.789C159.411-4.897 50.783 38.905 2.707 59.022c-.428.178-.653.619-.577 1.076l25.302 152.009a.996.996 0 00.837.824zM128.987 92.783l6.118 36.549a1 1 0 001.623.606l28.594-23.573a1 1 0 00-.286-1.708l-34.713-12.976a1 1 0 00-1.336 1.102zm6.838 38.736l29.298-24.152a.32.32 0 00.058-.064v0c.225-.314-.181-.692-.479-.446l-29.297 24.153a.294.294 0 00-.059.063v0c-.224.314.181.692.479.446zM259.921 3.481l33.156 157.476c.169.801 1.209 1.018 1.684.352v0a.942.942 0 00.154-.739L261.759 3.094c-.169-.8-1.209-1.018-1.684-.352v0a.942.942 0 00-.154.74zM127.477 94.857l6.119 36.548a1 1 0 001.622.607l28.594-23.573a1 1 0 00-.286-1.708l-34.712-12.976a1 1 0 00-1.337 1.102z" stroke="#7831B2" stroke-width="3" stroke-linecap="round" stroke-linejoin="round"/></svg>