<svg width="267" height="219" fill="none" xmlns="http://www.w3.org/2000/svg"><path fill-rule="evenodd" clip-rule="evenodd" d="M204.191 4.168c-9.218 4.36-32.418 12.853-57.811 21.633-24.632 8.517-51.442 17.343-69.826 23.004 3.988 17.202 15.242 57.27 26.94 94.001 6.008 18.863 12.122 36.812 17.419 50.312 2.651 6.755 5.083 12.36 7.184 16.399.158.304.314.598.467.883.769 1.326 1.474 2.411 2.108 3.245.706.929 1.224 1.409 1.546 1.623l10.325-2.92 14.802-4.694 104.707-34.618L204.191 4.168zm54.777 150.612l-24.537-71.61c.545 1.51 1.09 3.02 1.633 4.532 7.755 21.578 15.282 43.221 20.539 59.578a638.43 638.43 0 012.365 7.5zm-3.895 25.032l-.025.009-2.813.983c-.182.064-.368.09-.55.084l-93.415 29.62-25.189 8.328c-.309.102-.877.246-1.535-.018-1.116-.448-2.129-1.54-3.039-2.782-.807-1.102-1.663-2.509-2.561-4.171a65.845 65.845 0 01-.83-1.479c-2.252-4.135-4.841-9.803-7.632-16.539-5.587-13.479-12.044-31.37-18.326-50.132-12.553-37.49-24.472-78.657-27.355-95.22l-.214-1.225 1.166-.436c93.199-34.88 113.063-40.986 123.439-44.176 2.657-.817 4.692-1.442 7.177-2.31l.742-.26c.731-.256 1.293.12 1.418.208.185.131.311.278.374.355.138.169.26.367.358.54.209.364.463.875.753 1.497.583 1.256 1.373 3.096 2.331 5.424 1.921 4.663 4.55 11.351 7.632 19.39 6.164 16.079 14.148 37.594 21.908 59.186 7.76 21.589 15.3 43.269 20.573 59.674 2.634 8.197 4.711 15.103 5.966 20.029.625 2.455 1.058 4.467 1.248 5.92.094.713.14 1.378.092 1.923a2.93 2.93 0 01-.222.927c-.147.331-.462.803-1.073 1.017l-10.398 3.634zM188.999 35.55a1.5 1.5 0 00-1.987-1.257l-38.029 13.291a1.5 1.5 0 00-.772 2.22 1.5 1.5 0 001.987 1.257l38.029-13.291a1.5 1.5 0 00.772-2.22zm6.936 15.89l-.19-.655-.071.02-.205.06-.791.233a510.458 510.458 0 00-12.806 3.991c-7.841 2.56-17.572 5.958-24.996 9.285a1.5 1.5 0 00-.654 2.172 1.5 1.5 0 001.987 1.258l38.673-13.518a1.5 1.5 0 00.772-2.22 1.5 1.5 0 00-1.909-1.282l.19.656zm11.475 22.254c.028.092.046.184.056.276a1.5 1.5 0 01-.772 2.22l-92.816 32.44a1.5 1.5 0 01-1.987-1.258 1.5 1.5 0 01.715-2.198c23.384-9.26 46.616-17.38 63.998-23.183a1371.274 1371.274 0 0120.983-6.825 951.873 951.873 0 017.42-2.311l.27-.083.261-.079h.001l.199.653-.199-.653a1.501 1.501 0 011.871 1.001zm6.594 18.898c.027.092.046.184.056.276a1.5 1.5 0 01-.772 2.22l-92.816 32.44a1.5 1.5 0 01-1.987-1.257 1.5 1.5 0 01.715-2.198c23.383-9.261 46.615-17.38 63.997-23.184a1370.558 1370.558 0 0120.984-6.825 911.315 911.315 0 017.817-2.432l.133-.04.002-.001.198.654-.198-.654a1.501 1.501 0 011.871 1.001zm6.593 18.898c.028.092.047.184.056.276a1.5 1.5 0 01-.771 2.22l-92.816 32.44a1.5 1.5 0 01-1.987-1.257 1.5 1.5 0 01.714-2.198c23.384-9.261 46.616-17.38 63.998-23.184a1369.226 1369.226 0 0120.983-6.824 884.156 884.156 0 017.42-2.312l.244-.074.287-.087.002-.001.198.654-.198-.654a1.5 1.5 0 011.87 1.001zm4.922 18.551l-.198-.654-.002.001-.133.04-.398.121-1.548.476a884.156 884.156 0 00-5.872 1.836 1369.226 1369.226 0 00-20.983 6.824c-17.382 5.804-40.614 13.924-63.998 23.184a1.5 1.5 0 00-.714 2.198 1.499 1.499 0 001.986 1.258l92.816-32.441a1.5 1.5 0 00.772-2.22 1.5 1.5 0 00-1.926-1.277l.198.654zm8.266 19.246c.028.091.046.183.056.275a1.5 1.5 0 01-.772 2.22l-92.816 32.441a1.5 1.5 0 01-1.987-1.258 1.5 1.5 0 01.715-2.198c23.384-9.26 46.616-17.38 63.998-23.184a1365.612 1365.612 0 0120.983-6.824c2.53-.8 4.517-1.418 5.872-1.836l1.548-.476.201-.061.196-.06.134-.04.001-.001.199.654-.199-.654a1.501 1.501 0 011.871 1.002z" fill="#7831B2"/><path d="M2.13 120.841c-.189-.976-.259-1.991.064-3.005.933-3.549 4.226-7.092 8.117-6.811 3.104.28 6.193 2.512 8.617 4.312 2.58 1.879 5.12 4.03 7.582 5.948 3.636 2.7 7.191 5.557 10.747 8.413a66.26 66.26 0 014.493 3.717c.198-.194.591-.193.707.158.195.196.31.547.387.781.668.041 1.333.472 1.841.824 1.017.704 1.996 1.292 3.012 1.997 2.427 1.41 4.774 2.976 7.083 4.425 2.152 1.37 4.148 2.662 6.261 3.916 1.449.822 3.485 1.841 4.614 3.288.275.039.432.118.547.469 2.353.786 5.071.285 7.51.134.394.001.864.236.86.626a41.492 41.492 0 003.35 9.022c.697 1.328 1.63 2.579 2.526 3.712.428.508.895 1.134 1.206 1.681.467.625.697 1.328 1.125 1.836.234.313-.163.702-.476.546-2.622-1.606-5.845-1.847-8.793-2.049-3.616-.242-7.037-.289-10.506.718a.847.847 0 01-1.097-.549c-.304-1.327-.451-2.576-.873-3.865-.346-1.054-.89-1.914-1.315-2.812-.943-.08-1.608-.511-2.392-.903l-3.99-2.584c-2.66-1.723-5.36-3.563-8.02-5.286-2.504-1.644-4.969-3.172-7.393-4.972-.508-.352-1.33-.861-1.797-1.487-.511.038-1.1-.158-1.688-.355-.902-.353-1.644-1.018-2.545-1.371-1.215-.51-2.43-1.02-3.527-1.569-4.7-2.351-9.161-5.171-13.702-7.834-3.053-1.724-6.187-3.292-8.883-5.522-1.055-.822-1.912-1.838-2.65-2.894-.084.547-.087.937-.013 1.561.185 1.366.803 2.851 1.58 4.023 1.63 2.579 4.486 4.497 7.108 6.103 2.74 1.567 5.401 3.29 8.221 4.701 2.664 1.332 6.076 2.55 8.023 4.895.585.587.144 1.64-.72 1.403-1.806-.316-3.53-1.178-5.096-1.962-1.685-.745-3.29-1.646-4.975-2.391-3.29-1.646-6.105-3.838-8.957-6.146-2.5-2.035-5.078-4.304-6.35-7.39-.73-2.225-1.802-5.896.177-7.452zm71.866 42.224c1.493.16 2.906.475 4.476.869-1.33-.862-2.542-1.762-3.872-2.624-1.33-.861-2.699-1.84-4.03-2.701l-1.524-1.057c-.352-.274-.822-.509-.976-.978-.038-.117.042-.273.16-.311.473-.155.982.197 1.334.471l1.525 1.057c1.33.861 2.58 1.879 3.91 2.74.86.626 1.877 1.331 2.738 1.957-.506-.742-1.011-1.485-1.398-2.266-1.433-2.774-1.603-6.091-3.035-8.865-2.286.619-4.761.263-6.916-.718.025 1.678-.617 3.316-1.848 4.757-.754.896-1.825 2.025-3.088 2.569.387.781.656 1.601 1.004 2.265.346 1.054.73 2.226.957 3.319 3.507-.89 7.047-.882 10.583-.484zm-28.26-16.686a159.167 159.167 0 017.47 5.207l4.22 3.287c1.212.9 2.264 2.112 3.687 1.257 2.33-1.283 3.964-3.894 3.868-6.586-.665-.431-1.369-.979-2.072-1.527-.979-.587-2.076-1.136-3.016-1.606-2.056-1.029-3.904-2.126-5.74-3.227l-.367-.221c-2.309-1.449-4.579-2.78-6.85-4.112-.978-.588-1.876-1.331-2.855-1.919-.313-.156-.665-.43-1.096-.548-.49 2.106-2.276 4.248-3.74 5.376-.119.039-.119.039-.199.195 2.152 1.371 4.38 2.975 6.69 4.424zM5.27 121.628c1.513 2.618 4.566 4.342 6.994 5.752 3.21 1.802 6.42 3.604 9.432 5.601 2.114 1.253 4.148 2.662 6.181 4.072 1.996 1.292 3.911 2.74 6.028 3.603.783.392 1.685.745 2.59.708 1.023-.076 1.896-1.01 2.57-1.75 1.19-1.168 2.263-2.688 2.394-4.287-3.834-2.506-7.466-5.597-10.984-8.336-4.572-3.561-9.068-6.888-13.8-10.137-2.153-1.371-5.277-4.109-8.04-2.945-2.957.969-5.111 4.789-3.365 7.719z" fill="#7831B2"/><path fill-rule="evenodd" clip-rule="evenodd" d="M1.233 117.558a11.223 11.223 0 013.238-5.304c1.574-1.429 3.628-2.391 5.912-2.226l.009.001h.009c1.75.158 3.439.858 4.962 1.709 1.525.852 2.949 1.895 4.158 2.793 1.665 1.213 3.336 2.556 4.957 3.859.897.722 1.78 1.431 2.637 2.099 3.646 2.708 7.21 5.571 10.756 8.42a65.614 65.614 0 014.116 3.379 1.381 1.381 0 011.324.745c.12.155.206.315.268.445.707.209 1.312.625 1.676.878.493.342.98.657 1.48.981l.006.004c.485.314.983.637 1.493.989 1.684.98 3.342 2.041 4.955 3.073.717.459 1.425.912 2.123 1.35l.005.003 1.022.652c1.77 1.13 3.445 2.2 5.204 3.243.163.092.338.19.523.292.596.333 1.288.718 1.946 1.144.774.501 1.573 1.103 2.209 1.832a1.45 1.45 0 01.673.518c.914.242 1.917.294 2.995.255a38.634 38.634 0 002.142-.153c.52-.047 1.05-.095 1.62-.13l.032-.002h.032a2.1 2.1 0 011.12.328c.315.204.678.586.731 1.15a40.49 40.49 0 003.244 8.71c.649 1.235 1.528 2.42 2.413 3.54.434.516.922 1.165 1.27 1.766.251.347.442.703.592.985l.028.053c.176.33.295.54.43.701l.02.022.018.024c.469.628.258 1.342-.104 1.73-.333.356-.974.632-1.621.308l-.039-.019-.036-.023c-2.378-1.456-5.346-1.699-8.338-1.903-3.589-.241-6.86-.275-10.147.677a1.847 1.847 0 01-2.34-1.194l-.014-.044-.01-.044a40.162 40.162 0 01-.302-1.477c-.152-.795-.288-1.512-.547-2.3-.21-.645-.478-1.155-.777-1.725-.083-.158-.168-.32-.255-.492-.734-.162-1.341-.481-1.841-.745a23.632 23.632 0 00-.33-.171l-.05-.024-4.037-2.615c-1.335-.864-2.679-1.758-4.017-2.647l-.003-.002a378.66 378.66 0 00-4-2.636l-.005-.004a397.22 397.22 0 00-1.737-1.131c-1.902-1.233-3.812-2.47-5.69-3.864l-.175-.119c-.391-.264-1.012-.681-1.508-1.196-.54-.057-1.063-.233-1.456-.365l-.08-.026-.024-.008-.024-.01c-.536-.21-1.013-.505-1.405-.748l-.03-.018c-.423-.263-.758-.467-1.11-.605l-.011-.004-.029-.012c-1.203-.505-2.443-1.026-3.57-1.589-3.561-1.783-6.998-3.837-10.396-5.869-1.122-.67-2.24-1.339-3.357-1.994-.533-.301-1.074-.6-1.62-.901-2.51-1.386-5.106-2.82-7.39-4.707a10.896 10.896 0 01-.571-.479c.25.646.578 1.279.947 1.836l.006.009.006.009c1.49 2.355 4.143 4.167 6.773 5.777.944.54 1.861 1.088 2.769 1.63 1.789 1.067 3.541 2.113 5.39 3.038.529.264 1.086.523 1.672.796l.406.189c.728.339 1.485.699 2.226 1.095 1.46.781 2.922 1.736 4.015 3.04.578.61.65 1.458.344 2.107a1.729 1.729 0 01-2.02.943c-1.936-.347-3.755-1.257-5.275-2.017l-.035-.018a59.15 59.15 0 01-2.499-1.201l-.01-.005a57.052 57.052 0 00-2.445-1.176l-.021-.009-.022-.011c-3.397-1.7-6.285-3.954-9.138-6.263l-.002-.002c-2.492-2.028-5.264-4.437-6.644-7.783l-.014-.035-.012-.035c-.365-1.113-.85-2.688-.973-4.209-.105-1.305.04-2.821 1.027-3.915-.13-.904-.143-1.901.177-2.923zm69.38 33.1c.566-.035 1.151-.087 1.71-.136l.28-.025a8.267 8.267 0 01-1.99.161zm7.944 11.274c.368.509.744.996 1.106 1.455l.01.013.01.012c.408.483.832 1.056 1.1 1.529l.032.055.011.015c-.77-.288-1.56-.501-2.355-.664l.545-1.253a47.624 47.624 0 01-.983-.655l.524-.507zm-20.538-5.333l-.194-.098-3.945-2.555c-1.324-.857-2.659-1.745-4-2.636l-.002-.002a416.57 416.57 0 00-4.015-2.646c-.6-.393-1.192-.778-1.78-1.159-1.895-1.228-3.737-2.422-5.562-3.778l-.014-.01-.013-.009-.25-.172c-.515-.351-1.021-.697-1.316-1.091l-.085-.115a3.39 3.39 0 001.096-.406l-.198.387.768.49a132.55 132.55 0 013.263 2.167 119.87 119.87 0 003.423 2.255 158.412 158.412 0 017.405 5.161l4.22 3.287.01.007c.18.133.338.26.51.397a19.993 19.993 0 00.679.526zm-4.208-5.809l-.01-.007a160.09 160.09 0 00-7.516-5.239l-.01-.006-.008-.006a118.497 118.497 0 01-3.375-2.223l-.237-.16c-.656-.444-1.311-.887-1.961-1.316 1.096-1.035 2.231-2.48 2.879-4.038l.023.012c.44.267.87.571 1.335.9l.014.011c.46.326.955.677 1.477.99l.009.005c2.272 1.333 4.53 2.658 6.823 4.097l.009.006.376.225c1.835 1.101 3.713 2.216 5.807 3.264.93.465 1.97.986 2.897 1.539.53.413 1.086.845 1.633 1.228-.118 2.11-1.46 4.144-3.345 5.182l-.017.009-.016.01c-.212.127-.36.151-.468.148-.12-.003-.27-.04-.477-.148a4.938 4.938 0 01-.725-.493c-.087-.067-.186-.147-.291-.231a23.815 23.815 0 00-.605-.472l-4.221-3.287zm-14.476-18.154c-1.852-1.351-3.66-2.794-5.455-4.225a283.555 283.555 0 00-2.79-2.209c-4.586-3.571-9.098-6.91-13.85-10.173l-.014-.009-.014-.01a34.559 34.559 0 01-.995-.67c-.85-.584-1.873-1.288-2.88-1.8-1.465-.747-3.267-1.302-5.051-.568-1.748.586-3.21 1.98-3.999 3.63-.8 1.672-.956 3.72.12 5.532.852 1.471 2.11 2.65 3.42 3.625 1.235.919 2.57 1.694 3.724 2.363l.21.122.007.004.006.004c3.216 1.805 6.394 3.589 9.37 5.562l.02.014.022.013c2.078 1.232 4.083 2.621 6.122 4.034l.013.009.013.008a87.764 87.764 0 011.336.887c-3.437-1.728-6.736-3.7-10.071-5.694-1.136-.679-2.276-1.361-3.428-2.036l-.007-.004-.007-.004c-.571-.323-1.14-.637-1.702-.948-2.505-1.385-4.907-2.713-7.035-4.474l-.012-.009-.011-.009c-.95-.739-1.74-1.67-2.446-2.678l-1.012-1.446.289-.227-.116-.599c-.175-.903-.215-1.727.035-2.511l.007-.025.007-.025c.418-1.588 1.372-3.192 2.654-4.355 1.276-1.158 2.81-1.826 4.415-1.713 1.352.124 2.756.679 4.157 1.462 1.4.782 2.731 1.754 3.945 2.656l.008.005c1.634 1.191 3.23 2.474 4.823 3.755.91.732 1.819 1.462 2.732 2.174l.01.007.009.007c3.618 2.687 7.159 5.531 10.717 8.39l.013.01.013.01a59.385 59.385 0 012.678 2.138zM2.329 122.123l-.186 1.223a5.89 5.89 0 00-.053 1.478 9.016 9.016 0 01-.068-.588c-.074-.922.03-1.621.307-2.113zm.394 5.3c.307.787.7 1.54 1.136 2.2 1.772 2.795 4.818 4.816 7.426 6.413l.013.008.013.007c.879.503 1.766 1.032 2.662 1.567 1.83 1.09 3.696 2.204 5.608 3.16.557.279 1.147.553 1.734.826l.394.183c.723.337 1.439.678 2.128 1.047 1.236.661 2.33 1.382 3.155 2.258-1.458-.346-2.884-1.053-4.31-1.766l-.02-.011-.023-.009c-.817-.362-1.618-.763-2.444-1.176l-.01-.005a59.36 59.36 0 00-2.499-1.201c-3.174-1.591-5.907-3.715-8.752-6.017-2.499-2.034-4.873-4.153-6.043-6.961a44.465 44.465 0 01-.168-.523zM73.9 162.049c-3.214-.349-6.48-.379-9.746.303a45.523 45.523 0 00-.739-2.407l-.034-.106-.04-.074a12.358 12.358 0 01-.448-1.005l-.02-.051-.128-.305c1.08-.688 1.955-1.645 2.558-2.361 1.026-1.202 1.705-2.556 1.966-3.986 1.742.574 3.633.779 5.471.45.467 1.088.78 2.269 1.114 3.537l.013.049c.264 1.001.542 2.058.929 3.094a70.298 70.298 0 01-1.163-.835l-.011-.007a44.22 44.22 0 00-1.976-1.385l-1.49-1.033a4.09 4.09 0 00-.806-.503c-.346-.155-.864-.297-1.431-.112-.365.12-.597.386-.718.621a1.25 1.25 0 00-.081.953c.159.485.47.807.72 1.016.125.105.25.195.349.264l.05.036c.08.057.138.097.192.139l.022.017 1.561 1.082.013.008c.654.424 1.319.877 1.995 1.338l.006.004c.62.422 1.248.851 1.872 1.259zm-4.881-5.79v.002zm-52.897-38.571c-.4-.256-.797-.53-1.198-.806-.793-.548-1.603-1.106-2.494-1.56-1.314-.669-2.44-.898-3.406-.491l-.038.016-.039.013c-1.192.39-2.27 1.382-2.856 2.605-.579 1.21-.627 2.534.038 3.651l.007.012c.661 1.144 1.685 2.134 2.885 3.026 1.14.849 2.384 1.571 3.556 2.252l.182.105.01.006c3.192 1.792 6.422 3.605 9.459 5.616 2.136 1.269 4.187 2.69 6.204 4.088l.002.001c.48.311.943.622 1.397.926 1.512 1.014 2.916 1.956 4.451 2.582l.036.015.034.017c.745.372 1.449.624 2.084.604.229-.022.51-.144.86-.417.354-.276.688-.633 1.03-1.009l.019-.02.02-.02c.963-.946 1.732-2.032 2.003-3.097-2.694-1.806-5.299-3.885-7.798-5.879-.918-.732-1.821-1.453-2.71-2.144-4.554-3.548-9.03-6.859-13.738-10.092z" fill="#7831B2"/></svg>