<svg width="186" height="174" fill="none" xmlns="http://www.w3.org/2000/svg"><path d="M90.222 5.355l-.5.297C82.94 9.694 81.04 9.236 36.874 36.3M3.83 57.51c9.21 20.314 48.1 95.176 62.223 111.384m0 0c1.719 1.972 3.07 3.076 3.958 3.107l22.113-12.675m-26.07 9.568C51.774 153.805 10.18 79.296 2 58.599m64.052 110.294c1.609 1.7 2.87 2.645 3.699 2.675l7.413-3.831 7.197-4.009-10.215-20.213-3.925 2.339M36.873 36.3A4376.008 4376.008 0 002.135 57.843c9.238-5.009 22.114-12.197 35.246-19.705m-.508-1.838l.508 1.838m0 0C60.447 24.95 84.303 10.777 90.633 5.697l6.884 11.626m-73.922 51.73a830.702 830.702 0 0121.561-13.574l4.49 14.561a812.883 812.883 0 00-18.457 11.674m.26.432l18.196-10.843 5.13 15.012M39.847 95.21l14.928-8.895m0 0l-.784-.705a789.29 789.29 0 00-14.403 9.168m15.187-8.463l4.738 13.249a773.27 773.27 0 00-12.331 7.875m.259.432l12.072-7.193 3.865 13.894a757.448 757.448 0 00-8.603 5.528m.26.432l9.447-5.63 4.418 13.647a735.277 735.277 0 00-6.532 4.212m.26.432l6.272-3.737 5.246 13.257a687.57 687.57 0 00-4.185 2.709M138.053 3.245c-11.37 5.822-69.487 24.896-97.21 33.302 86.612-32.282 87.278-30.38 96.34-33.534l.549-.192c.05-.017.158.128.321.424zm0 0l.012-.006.027.079m-.039-.073l.039.073m0 0l43.558 126.606M138.092 3.318c4.597 8.606 48.056 125.875 44.308 127.179l-.493.172m-.257-.745l.257.745m-.257-.745l-78.557 25.866m78.557-25.866l.9-.297m-.643 1.042l-7.21 2.51m0 0l-71.604 22.611m71.604-22.611l-2.091.727M42.57 36.56c4.916 21.75 27.885 102.903 38.442 121.601m0 0c1.284 2.273 2.383 3.623 3.245 3.831l18.836-6.202m-22.08 2.371C70.08 140.53 44.388 59.179 40.557 37.261m40.454 120.9c.876 1.412 1.657 2.416 2.325 2.947.445.355 1.042.328 1.591.173l7.198-2.028 10.967-3.463M61.434 50.121l28.139-9.795M67.362 62.46l28.616-9.961M70.23 80.72l68.678-23.905m-71.714 5.168c10.875-4.852 28.616-9.96 28.616-9.96M70.065 80.244c34.555-13.628 68.678-23.906 68.678-23.906M75.11 94.647l68.678-23.906M74.944 94.17c34.555-13.628 68.678-23.906 68.678-23.906M84.868 122.5l68.678-23.906m-68.844 23.43c34.554-13.628 68.678-23.905 68.678-23.905m-73.39 10.455l68.677-23.906m-68.844 23.43C114.377 94.469 148.5 84.191 148.5 84.191m-58.754 52.234l68.678-23.906M89.581 135.95c34.554-13.628 68.678-23.906 68.678-23.906M61.268 49.646l28.138-9.795m-51.782-1.52L138.651 2 184 129.651 82.431 162.123 37.624 38.331z" stroke="#7831B2" stroke-width="3" stroke-linecap="round"/></svg>