<svg width="243" height="186" fill="none" xmlns="http://www.w3.org/2000/svg"><path d="M126.598 77.291c-.755-8.553 4.608-16.819 12.748-19.65 8.141-2.83 22.005-7.284 27.244 5.323m-18.39 68.665c-.755-8.553 4.608-16.819 12.748-19.649 8.141-2.831 22.005-7.285 27.244 5.321m-110.933 37.15c-.755-8.553 4.608-16.819 12.749-19.65 8.14-2.83 22.004-7.284 27.243 5.322m-59.637-34.576c-.755-8.553 4.608-16.82 12.748-19.65 8.141-2.83 22.005-7.284 27.244 5.322M241 124.666L203.967 4.972a.734.734 0 00-1.333-.153.728.728 0 00-.067.582l37.43 120.976m1.003-1.711l-1.003 1.711m1.003-1.711c-34.144 20.98-122.322 61.733-202.412 57.287a.888.888 0 00-.817.437.877.877 0 00.713 1.322c79.85 4.093 167.497-36.433 201.513-57.335M96.881 37.357c11.809 22.264 38.092 75.797 48.745 111.813M45.193 118.944c44.863-17.304 138.727-51.525 155.283-49.97m-51.11-19.558a8.466 8.466 0 01-1.043 2.73c-2.103 3.527-6.68 5.516-11.459 4.628-5.903-1.097-9.876-6.17-8.874-11.33a8.443 8.443 0 011.043-2.73c2.102-3.526 6.68-5.516 11.458-4.628 5.903 1.097 9.877 6.17 8.875 11.33zm.271-.452c-1.002 5.16-6.599 8.455-12.502 7.358-5.903-1.097-9.876-6.17-8.874-11.33 1.001-5.16 6.598-8.455 12.501-7.358 5.903 1.097 9.877 6.17 8.875 11.33zm21.331 54.79a8.466 8.466 0 01-1.043 2.729c-2.103 3.527-6.68 5.517-11.459 4.629-5.903-1.097-9.876-6.17-8.874-11.33a8.443 8.443 0 011.043-2.73c2.102-3.527 6.68-5.516 11.458-4.628 5.903 1.097 9.877 6.17 8.875 11.33zm.271-.452c-1.002 5.16-6.599 8.454-12.502 7.357-5.903-1.097-9.876-6.169-8.874-11.33 1.001-5.16 6.598-8.454 12.501-7.357 5.903 1.096 9.877 6.17 8.875 11.33zm-71.212 23.274a8.464 8.464 0 01-1.043 2.729c-2.102 3.527-6.68 5.516-11.459 4.629-5.903-1.097-9.876-6.17-8.874-11.331a8.478 8.478 0 011.043-2.729c2.102-3.527 6.68-5.516 11.459-4.628 5.902 1.097 9.876 6.169 8.874 11.33zm.271-.453c-1.001 5.161-6.599 8.455-12.502 7.358-5.903-1.097-9.876-6.169-8.874-11.33 1.001-5.16 6.599-8.455 12.501-7.358 5.903 1.097 9.877 6.17 8.875 11.33zM80.382 77.672a8.465 8.465 0 01-1.043 2.729c-2.103 3.527-6.68 5.517-11.459 4.629-5.903-1.097-9.876-6.17-8.874-11.33a8.465 8.465 0 011.043-2.73c2.102-3.527 6.68-5.516 11.458-4.628 5.903 1.097 9.877 6.17 8.875 11.33zm.271-.453c-1.002 5.161-6.599 8.455-12.502 7.358-5.903-1.097-9.876-6.17-8.874-11.33 1.001-5.16 6.598-8.454 12.501-7.358 5.903 1.097 9.876 6.17 8.875 11.33zm-21.482 85.739c79.229 2.734 138.652-29.437 159.138-46.366.35-.289.46-.75.307-1.176l-33.647-94.122a1.085 1.085 0 00-.999-.72C120.148 19.201 52.805 50.375 26.263 66.62c-.433.264-.6.78-.436 1.258l32.347 94.345c.146.426.546.718.998.734zm-20.324 19.007c79.486 4.319 166.873-35.796 201.471-56.874.424-.259.593-.757.447-1.23L203.698 4.059a1.082 1.082 0 00-.912-.758C128.685-5.164 39.776 29.741 3.705 48.686c-.448.235-.649.734-.52 1.221l34.672 131.251c.12.454.519.781.99.807zm-2.237.031L2.023 51.066a.698.698 0 01.073-.53.704.704 0 011.288.174L37.97 181.64a.697.697 0 01-.073.531c-.316.539-1.129.429-1.288-.174zm20.252-18.904L24.636 69.097a.746.746 0 01.062-.619.753.753 0 011.361.136l32.227 93.994a.747.747 0 01-.063.62.754.754 0 01-1.36-.136zm160.961-45.221c-19.928 16.757-79.391 49.36-158.94 46.822-.662-.021-1.068-.74-.734-1.31a.888.888 0 01.795-.433c78.194 2.763 137.133-28.489 158.45-45.615.291-.233.688.13.499.452a.33.33 0 01-.07.084zm-33.857-96.012a.875.875 0 01-.775.431c-63.216-1.437-129.94 29.121-157.084 45.521-.415.251-.872-.233-.627-.65a.445.445 0 01.152-.158c26-16.071 93.493-47.574 157.604-46.444a.862.862 0 01.73 1.3zM3.541 49.949C40.164 30.902 128.334-3.42 201.879 5.026a.912.912 0 00.893-.446.9.9 0 00-.676-1.354C127.707-5 38.637 30.198 3.076 49.008a.502.502 0 00-.2.195c-.266.453.198.99.665.747zm180.293-27.314l33.484 93.667a.762.762 0 001.373.128.756.756 0 00.06-.636l-33.485-93.667a.762.762 0 00-1.373-.128.75.75 0 00-.059.636zM58.161 164.669c79.229 2.735 138.652-29.437 159.138-46.366.35-.289.46-.749.307-1.176l-33.647-94.122a1.085 1.085 0 00-.999-.72C119.138 20.913 51.795 52.087 25.253 68.332c-.433.265-.6.78-.436 1.258l32.347 94.345c.146.426.546.719.997.734zm-20.324 19.007c79.486 4.319 166.873-35.796 201.471-56.874.424-.259.593-.756.447-1.229L202.688 5.77a1.082 1.082 0 00-.912-.758C127.675-3.453 38.766 31.452 2.695 50.397c-.448.235-.649.734-.52 1.222l34.672 131.25c.12.455.519.781.99.807z" stroke="#7831B2" stroke-width="3"/></svg>