<svg width="235" height="175" fill="none" xmlns="http://www.w3.org/2000/svg"><path d="M142.537 81l-1.891-.65 1.891.65zm-33.272 13.986l.649-1.892-.649 1.892zm-17.648-31.45l1.891.65-1.89-.65zm33.272-13.987l-.649 1.892.649-1.892zm14.108 37.906l-1.565-1.245 1.565 1.245zM95.157 57.08l-1.566-1.245 1.566 1.245zm16.267 40.052a2 2 0 00-.397-3.98l.397 3.98zm.851.24a2 2 0 10-.183-3.997l.183 3.996zm22.672-7.482a2 2 0 10.775 3.924l-.775-3.924zm37.171 27.17a2 2 0 003.756-1.376l-3.756 1.376zm-38.245-26.923a2 2 0 10.775 3.924l-.775-3.924zm37.056 27.648a2 2 0 003.756-1.376l-3.756 1.376zM232 137.673l1.565 1.245.547-.687-.136-.868-1.976.31zm-1.26 1.584l.796 1.835.459-.199.311-.391-1.566-1.245zM43.251 149.999l.354-1.969-.354 1.969zm-.888-.877l1.965-.37-1.965.37zm168.439-24.032l-1.96.396 1.96-.396zm-.475 1.132l1.044 1.706-1.044-1.706zM189.735 24.235l.328-1.973-.328 1.973zm.892.864l1.961-.396-1.961.396zM24.147 47.897l.792 1.836-.793-1.836zm-.616 1.196l1.965-.37-1.965.37zm-3.523 117.163l.392-1.962-.392 1.962zm-.871-.949l-1.987.228 1.987-.228zm212.744-28.472l1.976-.31-1.976.31zm-.623 1.165l.789 1.838-.789-1.838zM211.206 9.513l-.508 1.934.508-1.934zm.8.888l-1.976.31 1.976-.31zM4.037 26.505l.67 1.884-.67-1.884zm-.694 1.147l1.987-.228-1.987.228zm14.414 138.312l-1.987.228 1.987-.228zm1.272.364l1.565 1.245-1.565-1.245zM2.155 28.138l1.566 1.245-1.566-1.245zm-.15.526l-1.987.228 1.987-.228zm1.422-.163l-1.987.228 1.987-.228zm15.753 137.3l-1.987.228 1.987-.228zm21.734-16l1.965-.37-1.965.37zm1.351.334l1.566 1.245-1.566-1.245zM22.308 49.543l1.565 1.245-1.565-1.245zm-.153.617l1.965-.37-1.965.37zm1.504-.283l1.966-.37-1.966.37zm18.76 99.641l1.965-.37-1.966.37zm-23.55 17.013l-1.565-1.245 1.566 1.245zm.526 1.438l.386-1.962-.386 1.962zm.361-1.762l.395-1.96-.395 1.96zm189.887-38.759l-1.058-1.697 1.058 1.697zm.084-.075l1.565 1.245-1.565-1.245zm-167.56 22.909l-1.566-1.245 1.566 1.245zm.55 1.43l-.349 1.969.348-1.969zm.313-1.753l.355-1.968-.355 1.968zM189.535 25.533l-1.565-1.245 1.565 1.245zm-.843.323l-.33 1.972.33-1.972zm.298-1.742l.32-1.974-.32 1.974zM23.462 48.189l.801 1.833-.8-1.833zm-.176.137l-1.565-1.245 1.565 1.245zm-19.59-20.57l.663 1.887-.663-1.887zm-.562-.851L4.7 28.15l-1.565-1.245zM210.998 10.8l1.565 1.245-1.565-1.245zm-.965.32l.51-1.933-.51 1.934zm.481-1.786l-.502 1.936.502-1.936zM3.365 26.737l-.676-1.882.676 1.882zm185.924-.44l-1.96.395 1.96-.395zm.153-.634l1.565 1.245-1.565-1.245zm21.286 100.454l-1.565-1.245 1.565 1.245zm-1.364-.328l1.96-.395-1.96.395zm1.517-.305l1.961-.396-1.961.396zm1.264-114.115l-1.976.311 1.976-.31zm-1.319-.347l1.565 1.245-1.565-1.245zM41.984 151.582l-.353 1.968.353-1.968zm-.888-.878l-1.966.371 1.966-.371zm168.439-24.031l-1.96.396 1.96-.396zm-.475 1.132l1.044 1.706-1.044-1.706zM188.468 25.818l.327-1.973-.327 1.973zm.892.864l1.961-.396-1.961.396zM22.88 49.48l.792 1.836-.793-1.836zm-.616 1.196l1.965-.37-1.965.37zM18.74 167.838l.392-1.961-.392 1.961zm-.872-.949l-1.986.228 1.986-.228zm212.745-28.471l1.976-.31-1.976.31zm-.623 1.165l-.789-1.838.789 1.838zM190.807 25.992l-1.961.395 1.961-.396zm18.482 100.853l1.02 1.72-1.02-1.72zm.65-115.75l-.508 1.935.508-1.935zm.8.889l-1.976.31 1.976-.31zm-.066-.384l1.976-.31-1.976.31zM23.823 49.075l.782 1.84-.782-1.84zM2.77 28.088l.67 1.884-.67-1.884zm-.694 1.147l1.987-.228-1.987.228zm99.347 9.553l-.544-1.925.544 1.925zM75.315 64.615l1.993-.174-.002-.018-.002-.018-1.989.21zm2.631 14.132l1.306-1.515-1.306 1.515zm11.757-2.183l1.72 1.019.177-.298.066-.34-1.963-.381zm-.597-12.732l1.954-.43-.026-.117-.04-.114-1.888.661zm-4.317-4.138l.365 1.967-.365-1.967zm57.716-10.115l.829 1.82.127-.057.117-.075-1.073-1.688zm7.561-1.404l.792-1.836-.792 1.836zm4.881 10.463l-1.987.228 1.987-.228zm-2.325 11.146l-.365-1.967.365 1.967zm4.919-4.294a2 2 0 10-3.951.625l3.951-.624zm-5.823 14.78a2 2 0 000 4v-4zm-11.072.08a19.683 19.683 0 01-3.214 5.86l3.131 2.49a23.681 23.681 0 003.865-7.05l-3.782-1.3zm-30.732 12.745C96.69 88.558 89.621 75.49 93.508 64.184l-3.782-1.3c-4.741 13.789 3.992 28.883 18.89 33.993l1.298-3.784zm-16.406-28.91a19.665 19.665 0 013.214-5.86l-3.13-2.489a23.663 23.663 0 00-3.866 7.049l3.782 1.3zm30.732-12.744c13.224 4.535 20.293 17.603 16.406 28.909l3.782 1.3c4.741-13.788-3.992-28.883-18.89-33.993l-1.298 3.784zm13.192 34.769c-5.838 7.342-16.846 10.545-27.518 6.885l-1.298 3.783c12.093 4.148 24.942.632 31.947-8.179l-3.131-2.489zm-40.71-27.885c5.838-7.342 16.846-10.544 27.518-6.884l1.298-3.784c-12.093-4.147-24.942-.632-31.947 8.179l3.131 2.49zm44.743 20.988c-3.888 11.307-17.507 17.28-30.731 12.745l-1.298 3.783c14.898 5.11 31.071-1.44 35.812-15.227l-3.783-1.301zm-30.731 12.745c-13.224-4.536-20.293-17.604-16.406-28.91l-3.783-1.3c-4.74 13.789 3.993 28.883 18.891 33.993l1.298-3.783zm-16.406-28.91c3.888-11.306 17.507-17.28 30.731-12.744l1.298-3.784c-14.898-5.11-31.071 1.44-35.812 15.228l3.783 1.3zm30.731-12.744c13.224 4.536 20.293 17.603 16.406 28.909l3.783 1.3c4.741-13.788-3.993-28.883-18.891-33.993l-1.298 3.784zm-47.373 86.465c-.95-5.969-.4-15.16 4.291-23.192 4.626-7.918 13.41-14.946 29.447-16.544l-.397-3.98c-17.2 1.714-27.178 9.39-32.503 18.506-5.26 9.002-5.849 19.175-4.789 25.838l3.95-.628zm0 0c-.912-5.729.979-15.355 6.598-23.728 5.555-8.277 14.635-15.156 27.991-15.769l-.183-3.996c-14.83.68-24.991 8.389-31.13 17.536-6.073 9.05-8.325 19.681-7.227 26.585l3.95-.628zm58.036-43.054c8.573-1.693 28.045.453 36.396 23.246l3.756-1.376c-9.227-25.184-31.05-27.745-40.927-25.794l.775 3.924zm-1.074.247c8.518-1.682 27.914.888 36.281 23.724l3.756-1.376c-9.211-25.14-30.879-28.233-40.812-26.272l.775 3.924zM3.441 29.972c19.417-6.91 52.717-15.949 90.302-20.852 37.602-4.905 79.332-5.648 115.688 3.91l1.017-3.869C173.388-.582 131.08.216 93.225 5.154c-37.873 4.94-71.45 14.048-91.125 21.05l1.34 3.768zm205.322-17.678l19.876 126.435 3.951-.621-19.875-126.435-3.952.621zm20.439 125.451c-18.823 8.082-51.631 19.075-89.626 26.064-38.006 6.99-81.062 9.947-120.443 2.068l-.785 3.923c40.063 8.014 83.673 4.983 121.952-2.057 38.289-7.043 71.384-18.123 90.48-26.322l-1.578-3.676zM19.857 166.662L4.063 29.007l-3.974.456 15.794 137.654 3.974-.455zm3.815-115.346C52.609 38.82 124.585 17.238 188.14 27.79l.655-3.946c-64.638-10.731-137.446 11.165-166.709 23.8l1.586 3.672zM187.4 27.077l20.175 99.992 3.921-.792-20.175-99.99-3.921.79zm20.616 99.022c-22.725 13.905-86.788 37.673-165.678 23.514l-.707 3.937c79.949 14.349 144.998-9.675 168.473-24.039l-2.088-3.412zM43.061 150.334L24.23 50.305l-3.93.74 18.831 100.03 3.931-.741zM210.17 11.68l19.855 126.304 3.952-.621-19.855-126.304-3.952.621zm20.266 124.748l-1.26 1.584 3.131 2.49 1.259-1.584-3.13-2.49zm2.281 2.518L212.649 11.29l-3.952.62 20.068 127.657 3.951-.621zm-43.87-112.559l20.075 99.492 3.921-.791-20.075-99.492-3.921.791zm22.478 99.007L191.25 25.901l-3.921.791 20.074 99.493 3.921-.791zM4.041 28.62c19.15-6.878 52.365-15.968 89.972-20.956 37.625-4.99 79.483-5.85 115.999 3.606l1.003-3.872c-37.217-9.639-79.652-8.722-117.528-3.7C55.594 8.725 22.102 17.884 2.69 24.856l1.352 3.765zM210.543 9.187C173.767-.503 131.812.197 94.166 5.03 56.502 9.864 22.993 18.856 3.033 25.87l1.326 3.773C24.066 22.719 57.3 13.795 94.675 8.997c37.393-4.8 78.773-5.448 114.849 4.058l1.019-3.868zM24.263 50.022C52.63 37.626 124.794 15.739 188.67 26.088l.64-3.948C124.355 11.615 51.362 33.815 22.661 46.356l1.602 3.666zm164.759-26.139c-64.008-10.707-136.09 10.649-165.981 23.35l1.564 3.682C54.18 38.347 125.433 17.302 188.362 27.828l.66-3.945zm19.247 101.242c-23.604 13.995-87.046 36.9-164.884 22.866l-.71 3.937c78.891 14.223 143.3-8.935 167.634-23.363l-2.04-3.44zm-165.9 28.556c80.288 14.191 145.436-10.257 168.333-24.536l-2.117-3.394c-22.135 13.804-86.29 37.995-165.52 23.991l-.697 3.939zm188.835-17.843c-18.587 8.063-51.496 19.179-89.725 26.267-38.239 7.09-81.658 10.124-121.328 2.142l-.79 3.921c40.358 8.121 84.335 5.011 122.847-2.13 38.524-7.143 71.723-18.346 90.588-26.53l-1.592-3.67zM19.008 169.932c40.26 7.923 84.044 4.754 122.373-2.391 38.339-7.146 71.36-18.296 90.155-26.449l-1.591-3.67c-18.517 8.033-51.251 19.095-89.297 26.187-38.057 7.094-81.29 10.188-120.867 2.398l-.773 3.925zm25.376-20.784l-18.76-99.64-3.93.74 18.759 99.64 3.93-.74zM20.189 50.53l18.76 99.641 3.93-.74L24.12 49.79l-3.93.74zm.978 115.043L5.414 28.273l-3.974.456 15.753 137.3 3.974-.456zM.017 28.893L15.77 166.191l3.974-.456-15.752-137.3-3.974.456zm4.69-.504C24.126 21.48 57.427 12.441 95.01 7.537c37.603-4.905 79.332-5.648 115.688 3.91l1.017-3.869c-37.06-9.743-79.368-8.945-117.222-4.007-37.874 4.94-71.45 14.048-91.126 21.05l1.34 3.768zM210.03 10.711l19.876 126.435 3.951-.621L213.982 10.09l-3.952.621zm20.439 125.451c-18.823 8.082-51.631 19.076-89.626 26.064-38.006 6.99-81.062 9.947-120.443 2.068l-.785 3.923c40.063 8.014 83.673 4.983 121.952-2.057 38.289-7.043 71.384-18.123 90.48-26.322l-1.578-3.676zM21.124 165.079L5.33 27.424l-3.974.456L17.15 165.535l3.974-.456zm3.815-115.346c28.938-12.495 100.913-34.077 164.468-23.525l.656-3.946C125.424 11.53 52.616 33.426 23.353 46.061l1.586 3.672zm163.728-24.239l20.175 99.992 3.921-.791-20.175-99.992-3.921.791zm20.616 99.022c-22.724 13.905-86.788 37.673-165.678 23.514l-.707 3.937c79.95 14.349 144.998-9.675 168.473-24.039l-2.088-3.412zM44.328 148.752L25.496 48.722l-3.93.74 18.831 100.03 3.931-.74zm-.723-.722a.898.898 0 01.723.722l-3.93.74a3.103 3.103 0 002.5 2.475l.707-3.937zm165.237-22.544a.945.945 0 01.441-.97l2.088 3.412c1.16-.71 1.636-2.025 1.392-3.233l-3.921.791zm-19.435-99.278a.906.906 0 01-.74-.714l3.921-.79a3.094 3.094 0 00-2.525-2.442l-.656 3.946zM23.353 46.061c-1.386.598-2.043 2.044-1.788 3.402l3.931-.74a.937.937 0 01-.557 1.01l-1.585-3.672zM20.4 164.294c.391.079.68.4.724.785l-3.974.456a3.093 3.093 0 002.465 2.682l.785-3.923zm209.506-27.148a.94.94 0 01.563-.984l1.578 3.676c1.36-.584 2.02-1.981 1.81-3.313l-3.951.621zm-19.208-125.7a.91.91 0 01-.668-.735l3.952-.62a3.091 3.091 0 00-2.267-2.513l-1.017 3.869zM3.367 24.622c-1.418.504-2.167 1.894-2.01 3.259l3.973-.456a.938.938 0 01-.622.965l-1.341-3.768zm12.403 141.57c.276 2.406 3.321 3.27 4.824 1.381l-3.13-2.49c.71-.892 2.15-.487 2.28.653l-3.974.456zM.59 26.893a2.714 2.714 0 00-.572 2l3.974-.457c.039.34-.06.68-.271.947l-3.13-2.49zm4.824 1.38c-.276-2.406-3.32-3.27-4.824-1.38l3.13 2.49c-.709.892-2.149.487-2.28-.654l3.974-.456zM17.193 166.03c-.04-.339.058-.68.27-.946l3.131 2.49a2.715 2.715 0 00.573-2l-3.974.456zm21.755-15.858c.439 2.33 3.41 3.06 4.883 1.209l-3.13-2.49c.655-.825 1.982-.502 2.178.541l-3.93.74zM20.742 48.298a2.764 2.764 0 00-.553 2.232l3.931-.74c.067.353-.024.717-.247.998l-3.13-2.49zm4.883 1.21c-.439-2.33-3.41-3.06-4.883-1.21l3.131 2.49c-.656.825-1.983.502-2.18-.54l3.932-.74zm14.828 100.38a1.236 1.236 0 01.247-.998l3.13 2.49c.5-.628.702-1.443.554-2.232l-3.931.74zm-23.149 15.398c-1.34 1.686-.444 4.223 1.704 4.646l.773-3.925a1.105 1.105 0 01.654 1.769l-3.13-2.49zm2.847-1.039a2.904 2.904 0 00-2.847 1.039l3.13 2.49a1.096 1.096 0 01-1.072.392l.789-3.921zm190.551-35.102c.24-.15.435-.332.59-.527l-3.131-2.49c.108-.135.249-.268.424-.377l2.117 3.394zm-170.1 19.892c-1.384 1.739-.36 4.269 1.766 4.644l.696-3.939c.797.141 1.212 1.101.668 1.785l-3.13-2.49zm2.783-1.046a2.902 2.902 0 00-2.784 1.046l3.13 2.49c-.26.328-.669.47-1.055.401l.71-3.937zM187.97 24.288a1.11 1.11 0 011.052-.405l-.66 3.945a2.889 2.889 0 002.738-1.05l-3.13-2.49zm.7 1.8a1.12 1.12 0 01-.7-1.8l3.13 2.49c1.362-1.712.4-4.283-1.79-4.638l-.64 3.948zM22.662 46.356a2.45 2.45 0 00-.941.725l3.13 2.49c-.14.178-.34.342-.588.45l-1.602-3.665zM3.031 25.87c.722-.253 1.423.101 1.744.594A1.451 1.451 0 014.7 28.15l-3.13-2.49a2.549 2.549 0 00-.145 2.985c.559.859 1.707 1.43 2.935.998l-1.326-3.774zM209.434 9.555a1.07 1.07 0 011.11-.368l-1.019 3.868a2.928 2.928 0 003.039-1.01l-3.13-2.49zm.579 1.715a1.08 1.08 0 01-.579-1.715l3.13 2.49c1.302-1.636.525-4.11-1.548-4.647l-1.003 3.872zM2.689 24.855a2.511 2.511 0 00-1.12.805l3.13 2.49c-.154.194-.379.37-.658.47l-1.352-3.765zm188.561 1.046c.072.356-.017.724-.243 1.007l-3.13-2.49a2.772 2.772 0 00-.548 2.274l3.921-.79zm17.913 98.971c.647-.813 1.954-.503 2.161.522l-3.921.791c.467 2.314 3.425 3.021 4.891 1.177l-3.131-2.49zm-.242 1.007a1.228 1.228 0 01.242-1.007l3.131 2.49c.509-.64.709-1.472.548-2.274l-3.921.791zm5.2-114.82c-.372-2.364-3.375-3.15-4.861-1.282l3.131 2.49c-.678.852-2.051.496-2.222-.587l3.952-.621zM42.338 149.613a.895.895 0 01.723.721l-3.93.741a3.103 3.103 0 002.5 2.475l.707-3.937zm165.237-22.544a.945.945 0 01.441-.97l2.088 3.412c1.16-.711 1.635-2.025 1.392-3.234l-3.921.792zM188.14 27.791a.906.906 0 01-.74-.714l3.921-.79a3.094 3.094 0 00-2.526-2.442l-.655 3.946zM22.086 47.644c-1.386.598-2.043 2.044-1.788 3.402l3.931-.74a.937.937 0 01-.557 1.01l-1.586-3.672zm-2.953 118.233c.39.078.68.4.724.785l-3.974.455a3.094 3.094 0 002.465 2.683l.785-3.923zm209.506-27.148a.94.94 0 01.563-.984l1.578 3.676c1.359-.584 2.019-1.981 1.81-3.313l-3.951.621zM192.767 25.596c-.467-2.314-3.424-3.02-4.89-1.178l3.13 2.49c-.647.814-1.954.504-2.161-.521l3.921-.791zm17.542 102.969c-.839.498-1.726.126-2.134-.369-.396-.481-.581-1.355-.014-2.068l3.131 2.49c.803-1.01.563-2.245-.028-2.964-.604-.734-1.828-1.221-2.995-.529l2.04 3.44zm-.878-115.535a.91.91 0 01-.668-.736l3.952-.62a3.091 3.091 0 00-2.267-2.513l-1.017 3.869zm3.218-1.74c.054.347-.039.702-.258.977l-3.131-2.49a2.745 2.745 0 00-.563 2.134l3.952-.621zM23.041 47.234c.753-.32 1.507.03 1.858.525a1.516 1.516 0 01-.048 1.812l-3.13-2.49a2.484 2.484 0 00-.082 2.995c.583.821 1.759 1.352 2.966.84l-1.564-3.682zM2.1 26.204c-1.418.504-2.167 1.894-2.01 3.259l3.973-.456a.937.937 0 01-.622.965L2.1 26.204zM89.366 60.3c-.38-2.533-.213-6.643 1.555-10.503 1.73-3.78 5.013-7.377 11.047-9.085l-1.089-3.849c-7.252 2.053-11.416 6.51-13.595 11.268-2.143 4.678-2.35 9.593-1.874 12.763l3.956-.594zm12.602-19.588c8.202-2.322 16.487-3.524 23.186-2.193 3.318.66 6.185 1.927 8.477 3.934 2.283 1.998 4.101 4.82 5.19 8.767l3.856-1.063c-1.271-4.61-3.472-8.141-6.411-10.714-2.929-2.564-6.484-4.083-10.332-4.847-7.632-1.516-16.651-.112-25.055 2.267l1.089 3.849zM73.323 64.789c.19 2.169.55 5.492 1.02 8.422.235 1.46.503 2.868.801 4 .149.563.317 1.106.51 1.573.162.388.457 1.021.987 1.478l2.61-3.03c.229.196.226.326.098.017a8.642 8.642 0 01-.337-1.057c-.25-.947-.493-2.205-.719-3.614-.45-2.807-.8-6.03-.985-8.138l-3.985.349zm3.318 15.473c.733.632 1.84 1.056 2.885 1.319 1.12.281 2.464.449 3.862.392 2.76-.113 6.113-1.144 8.035-4.39l-3.441-2.038c-.97 1.638-2.741 2.349-4.758 2.431-.991.04-1.95-.08-2.724-.275a6.105 6.105 0 01-.934-.307c-.254-.111-.335-.18-.314-.162l-2.611 3.03zm15.025-3.317c.909-4.68-.049-11.013-.606-13.543l-3.907.86c.53 2.405 1.333 8.074.586 11.92l3.927.763zm-.672-13.774c-.324-.926-.967-2.292-1.904-3.418-.883-1.06-2.492-2.429-4.666-2.025l.73 3.933c.015-.003.06-.017.198.057.164.088.395.272.664.595.547.657.986 1.56 1.203 2.18l3.775-1.322zm-6.57-5.443c-.606.112-1.41.185-2.576.336-1.076.14-2.345.337-3.543.687-1.17.342-2.478.886-3.474 1.844-1.086 1.046-1.689 2.484-1.505 4.23l3.978-.42c-.05-.483.077-.712.302-.928.315-.304.9-.618 1.82-.886.892-.26 1.912-.427 2.937-.56.936-.122 2.049-.232 2.79-.37l-.73-3.933zm59.154-6.461a10.91 10.91 0 012.816-1.218c1.208-.324 2.208-.327 2.88-.037l1.584-3.673c-1.879-.81-3.931-.575-5.501-.154a14.877 14.877 0 00-3.925 1.706l2.146 3.376zm5.696-1.255c1.202.518 1.823 1.094 2.314 2.17.576 1.267.977 3.244 1.372 6.684l3.974-.456c-.391-3.41-.836-5.976-1.706-7.885-.956-2.099-2.383-3.33-4.37-4.186l-1.584 3.673zm3.686 8.854c.412 3.59.724 5.877.549 7.427-.079.712-.243 1.003-.349 1.129-.08.095-.278.28-.903.395l.73 3.933c1.265-.235 2.401-.763 3.234-1.753.807-.96 1.136-2.126 1.263-3.257.24-2.134-.176-5.069-.55-8.33l-3.974.456zm-.703 8.951c-1.854.345-3.439.458-4.705.02-1.086-.377-2.246-1.273-3.02-3.782l-3.823 1.179c1.076 3.488 3.026 5.512 5.533 6.382 2.327.807 4.818.492 6.745.134l-.73-3.933zm-7.725-3.762c-.899-2.913-1.613-6.177-1.765-8.807-.076-1.325 0-2.363.191-3.075.094-.348.199-.555.277-.667a.474.474 0 01.078-.092.08.08 0 01.021-.015l-1.658-3.64c-1.505.686-2.234 2.09-2.58 3.374-.35 1.3-.41 2.82-.322 4.345.176 3.07.984 6.671 1.935 9.756l3.823-1.18zm9.058 2.06c.565 3.575 1.385 6.791 1.984 9.246.304 1.249.542 2.26.679 3.06.154.89.116 1.184.12 1.168l3.881.971c.223-.894.09-1.955-.059-2.818-.164-.956-.435-2.098-.735-3.329-.611-2.503-1.385-5.544-1.919-8.922l-3.951.624zm2.783 13.474c.073-.29.24-.302-.019-.147-.241.145-.649.306-1.224.447-1.139.28-2.508.381-3.412.381v4c1.112 0 2.821-.118 4.366-.497.766-.188 1.602-.466 2.324-.898.704-.421 1.553-1.146 1.846-2.315l-3.881-.971z" fill="#7831B2"/></svg>