<svg width="178" height="164" fill="none" xmlns="http://www.w3.org/2000/svg"><path d="M110.094 82.523l-1.419-.485 1.419.485zM79.966 95.259l-.49 1.418.49-1.418zm-15.981-28.64l1.42.486-1.42-.486zm30.128-12.735l.49-1.418-.49 1.418zM106.89 88.4l-1.177-.93 1.177.93zm-39.7-27.658l-1.176-.93 1.176.93zm5.625-16.755l-.41-1.442.41 1.442zm-23.72 23.596l1.495-.13-.001-.013-.002-.013-1.492.156zm2.39 12.911l.983-1.133-.983 1.133zM62.166 78.5l1.293.76.131-.222.05-.254-1.474-.284zm-.541-11.632l1.465-.321-.02-.087-.029-.085-1.416.493zm-3.923-3.78l-.275-1.475.275 1.475zm52.436-9.241l.625 1.363.095-.043.088-.057-.808-1.263zm6.869-1.283l.597-1.376-.597 1.376zm4.435 9.559l-1.49.17 1.49-.17zm-2.113 10.182l-.275-1.474.275 1.474zm4.157-3.87a1.5 1.5 0 00-2.964.466l2.964-.465zm-4.977 13.778a1.5 1.5 0 100 3v-3zm52.665-28.226l-1.419.485 1.419-.486zM159.68 32.91l-1.177.93 1.177-.93zM63.134 8.316l-.489-1.418.49 1.418zM5.828 111.017l-1.42.485 1.42-.485zm11.494 21.076l-1.177.93 1.177-.93zm96.546 24.594l.489 1.418-.489-1.418zm58.306-103.704l-1.419.486 1.419-.486zM160.68 31.907l-1.177.93 1.177-.93zM64.133 7.313l-.489-1.418.49 1.418zM6.826 110.014l-1.42.485 1.42-.485zM18.32 131.09l-1.177.93 1.177-.93zm96.546 24.594l.489 1.418-.489-1.418zm-5.45-74.59c-3.589 10.497-16.121 15.975-28.22 11.803l-.977 2.835c13.367 4.611 27.812-1.315 32.036-13.668l-2.839-.97zm-28.22 11.803c-12.1-4.174-18.64-16.235-15.05-26.737l-2.839-.97c-4.222 12.349 3.546 25.933 16.912 30.543l.978-2.837zM66.147 66.16c3.59-10.497 16.121-15.975 28.22-11.802l.978-2.837c-13.367-4.61-27.813 1.316-32.037 13.669l2.839.97zm28.22-11.802c12.1 4.173 18.641 16.234 15.05 26.735l2.839.971c4.223-12.35-3.546-25.933-16.911-30.543l-.978 2.837zm14.309 27.68a18.245 18.245 0 01-2.963 5.432l2.353 1.86a21.24 21.24 0 003.448-6.322l-2.838-.97zM80.455 93.84c-12.1-4.174-18.642-16.234-15.05-26.736l-2.84-.97c-4.222 12.348 3.547 25.932 16.912 30.542l.978-2.836zm-15.05-26.736a18.259 18.259 0 012.962-5.433l-2.353-1.86a21.258 21.258 0 00-3.448 6.322l2.838.97zm28.22-11.803c12.099 4.173 18.641 16.234 15.05 26.736l2.838.97c4.223-12.349-3.545-25.932-16.91-30.542l-.979 2.836zm12.087 32.168c-5.378 6.802-15.487 9.74-25.257 6.37l-.978 2.837c10.843 3.74 22.337.56 28.588-7.346l-2.353-1.86zM68.367 61.672c5.378-6.802 15.487-9.74 25.257-6.37l.978-2.836c-10.843-3.74-22.337-.561-28.588 7.346l2.353 1.86zm-17.43 71.975c-.873-5.512-.37-13.991 3.94-21.409 4.259-7.332 12.335-13.802 26.993-15.272l-.3-2.985c-15.536 1.558-24.506 8.52-29.288 16.75-4.73 8.144-5.263 17.356-4.31 23.385l2.964-.469zm0 0c-.845-5.333.904-14.211 6.046-21.916 5.094-7.634 13.43-13.983 25.677-14.548l-.138-2.997c-13.36.617-22.506 7.595-28.035 15.879-5.48 8.213-7.496 17.842-6.514 24.051l2.963-.469zm52.979-39.708c7.886-1.566 25.764.423 33.423 21.444l2.819-1.027c-8.312-22.811-27.951-25.122-36.827-23.36l.585 2.943zm-.976.226c7.845-1.558 25.648.826 33.319 21.88l2.818-1.027c-8.299-22.778-27.803-25.567-36.721-23.796l.584 2.943zM61.547 63.69c-.354-2.368-.198-6.19 1.44-9.785 1.609-3.535 4.662-6.889 10.238-8.476l-.82-2.885c-6.494 1.848-10.206 5.852-12.15 10.118-1.915 4.206-2.1 8.629-1.675 11.471l2.967-.443zm11.678-18.26c7.468-2.126 15.051-3.24 21.21-2.01 3.055.611 5.714 1.79 7.847 3.667 2.126 1.872 3.81 4.508 4.814 8.17l2.893-.793c-1.139-4.157-3.107-7.325-5.725-9.629-2.61-2.298-5.786-3.666-9.241-4.356-6.862-1.37-15-.103-22.619 2.066l.822 2.885zM47.602 67.713c.172 1.976.499 5.004.924 7.67.212 1.33.454 2.604.721 3.623a11 11 0 00.45 1.394c.143.347.387.863.807 1.228l1.965-2.267c.146.126.12.183 0-.107a8.268 8.268 0 01-.32-1.009c-.23-.88-.454-2.043-.66-3.334-.41-2.574-.73-5.527-.898-7.458l-2.989.26zm2.902 13.915c.61.528 1.558.901 2.493 1.138.991.25 2.182.4 3.42.348 2.453-.1 5.374-1.019 7.043-3.853l-2.585-1.522c-.958 1.627-2.693 2.3-4.58 2.378a9.166 9.166 0 01-2.563-.26 5.818 5.818 0 01-.898-.298 2.575 2.575 0 01-.342-.181l-.023-.017-1.965 2.267zm13.136-2.844c.812-4.206-.045-9.936-.55-12.237l-2.93.642c.484 2.207 1.227 7.442.535 11.026l2.945.57zm-.598-12.41c-.285-.82-.852-2.03-1.673-3.02-.778-.939-2.135-2.078-3.941-1.74l.55 2.948c.152-.028.51.017 1.081.706.529.638.944 1.501 1.15 2.093l2.833-.986zm-5.614-4.76c-.56.104-1.315.173-2.357.309-.974.127-2.107.305-3.172.618-1.045.306-2.175.785-3.025 1.608-.918.89-1.425 2.102-1.27 3.59l2.984-.312c-.057-.548.1-.858.372-1.122.341-.33.93-.635 1.784-.886.834-.245 1.78-.399 2.716-.521.868-.114 1.855-.212 2.518-.336l-.55-2.949zm53.519-6.504c.551-.352 1.55-.855 2.645-1.15 1.125-.305 2.115-.325 2.82-.02l1.193-2.752c-1.613-.7-3.396-.503-4.795-.125a13.178 13.178 0 00-3.479 1.52l1.616 2.527zm5.465-1.17c1.153.5 1.782 1.079 2.266 2.147.548 1.21.916 3.065 1.275 6.206l2.98-.34c-.356-3.118-.756-5.413-1.522-7.104-.831-1.833-2.061-2.905-3.806-3.661l-1.193 2.752zm3.541 8.353c.371 3.252.663 5.396.499 6.861-.077.686-.239 1.024-.392 1.207-.134.16-.388.355-1.005.47l.551 2.949c1.1-.206 2.058-.662 2.754-1.493.677-.809.962-1.802 1.073-2.8.213-1.9-.157-4.527-.5-7.534l-2.98.34zm-.898 8.538c-1.69.315-3.2.435-4.432.005-1.097-.382-2.216-1.291-2.945-3.666l-2.868.88c.952 3.104 2.659 4.864 4.826 5.62 2.032.708 4.225.436 5.97.11l-.551-2.95zm-7.377-3.66c-.82-2.676-1.477-5.686-1.617-8.126-.07-1.228-.003-2.216.185-2.916.191-.714.432-.88.518-.919l-1.249-2.727c-1.246.57-1.866 1.745-2.167 2.87-.305 1.139-.361 2.487-.282 3.863.158 2.768.884 6.03 1.744 8.834l2.868-.88zm8.845 1.73c.511 3.25 1.252 6.174 1.797 8.42.276 1.14.494 2.075.622 2.818.063.37.098.66.11.884.012.237-.007.325-.006.322l2.911.724c.184-.74.077-1.645-.058-2.436-.148-.86-.391-1.893-.664-3.018-.553-2.284-1.261-5.077-1.748-8.18l-2.964.466zm2.523 12.444c.036-.144.104-.095-.165.067-.257.155-.661.31-1.198.444-1.066.263-2.336.357-3.173.357v3c.993 0 2.52-.106 3.892-.445.682-.168 1.408-.413 2.026-.785.605-.365 1.293-.967 1.529-1.914l-2.911-.724zM172.594 53.5a72.367 72.367 0 00-11.737-21.521l-2.354 1.86a69.348 69.348 0 0111.252 20.632l2.839-.97zm-11.737-21.52C139.57 5.054 100.142-6.035 62.645 6.898l.979 2.836C100.046-2.83 138.09 8.019 158.503 33.84l2.354-1.86zM62.645 6.898C16.353 22.864-9.918 69.607 4.408 111.502l2.838-.971C-6.447 70.483 18.596 25.264 63.624 9.734l-.979-2.836zM4.408 111.502a72.349 72.349 0 0011.736 21.521l2.354-1.86a69.366 69.366 0 01-11.252-20.632l-2.838.971zm11.736 21.521c21.287 26.926 60.716 38.015 98.212 25.082l-.978-2.836c-36.423 12.563-74.467 1.715-94.88-24.106l-2.354 1.86zm98.212 25.082c46.292-15.967 72.563-62.709 58.238-104.604l-2.839.97c13.694 40.049-11.35 85.268-56.377 100.798l.978 2.836zm59.236-105.607a72.322 72.322 0 00-11.737-21.521l-2.353 1.86a69.35 69.35 0 0111.252 20.632l2.838-.97zm-11.737-21.521C140.569 4.05 101.14-7.038 63.644 5.895l.978 2.836c36.423-12.563 74.467-1.715 94.88 24.106l2.353-1.86zM63.644 5.895C17.352 21.86-8.919 68.604 5.406 110.499l2.839-.971C-5.45 69.48 19.595 24.261 64.622 8.731l-.978-2.836zM5.406 110.499a72.349 72.349 0 0011.737 21.521l2.354-1.86a69.354 69.354 0 01-11.252-20.632l-2.839.971zm11.737 21.521c21.287 26.926 60.715 38.015 98.212 25.082l-.979-2.836c-36.422 12.563-74.466 1.715-94.88-24.106l-2.353 1.86zm98.212 25.082c46.292-15.966 72.563-62.709 58.237-104.604l-2.838.97c13.693 40.049-11.351 85.268-56.378 100.798l.979 2.836z" fill="#7831B2"/></svg>