<svg width="249" height="176" fill="none" xmlns="http://www.w3.org/2000/svg"><path d="M98.04 78.437c-17.18 19.121-31.927 39.724-43.799 61.299-2.897 5.196-5.893 10.751-5.395 16.477.036 1.062.834 1.887 2.25 1.913 1.168-.038 2.461-1 2.425-2.063-.375-4.737 1.742-9.271 4.187-13.673 2.903-5.338 5.967-10.54 9.198-15.747 6.374-10.341 13.571-20.424 21.337-30.17 4.411-5.53 9.07-10.994 13.723-16.318.706-.873.181-2.203-.716-2.67-1.149-.39-2.423.147-3.21.952z" fill="#A68AD5"/><path d="M91.352 90.276c14.663 5.841 27.179 15.012 35.841 26.503 1.575 2.076 5.67-.039 4.094-2.116-9.218-12.111-22.129-21.765-37.528-27.937-2.54-.982-5.028 2.5-2.407 3.55zM84 101.996c7.418 1.889 14.014 5.436 19.836 9.504 5.34 3.657 11.236 7.935 12.296 14.139.475 2.466 4.946 1.26 4.552-1.137-1.196-6.909-7.481-11.813-13.471-15.875-6.551-4.54-13.635-8.355-21.876-10.502-2.72-.693-4.058 3.178-1.338 3.871zm-16.864 23.222c5.54 1.028 10.336 3.782 14.713 6.619 3.807 2.502 7.676 5.497 8.15 9.877.123.989 1.68 1.577 2.775 1.33 1.348-.327 1.812-1.405 1.776-2.467-.61-5.085-4.861-8.848-9.324-11.612-5.025-3.242-10.39-6.332-16.758-7.476-2.807-.619-4.225 3.183-1.332 3.729zm86.245-31.011c1.927-7.788 7.416-15.052 15.444-19.42 7.348-4.063 17.193-6.149 25.267-3.996 3.542.95 6.682 3.473 6.278 6.959-.143 1.352-.861 2.509-2.308 3.193-1.274.537-2.87.8-4.094.201-2.763-1.613.245-5.537 2.063-7.084 3.378-2.872 7.707-4.64 12.172-5.705 10.105-2.307 20.906-3.517 30.105-.408 1.15.388 2.492 2.204 3.203 1.188.539-.867.435-2.282-.715-2.67-10.182-3.504-21.892-4.477-33.005-1.995-5.553 1.17-11.156 3.475-15.153 7.147-3.297 2.94-5.761 7.769-3.079 11.228 2.681 3.458 8.865 3.12 12.49.31 3.884-3.03 3.863-8.205 1.255-11.453-3.077-3.943-8.764-5.392-14.261-5.5-5.41-.181-10.871.773-16.035 2.568-12.195 4.359-21.364 13.796-24.011 24.656-.297 1.072.24 2.118 1.563 2.36 1.076.178 2.604-.438 2.821-1.579zm-36.052-20.371c10.892-6.458 20.566-15.051 28.243-24.244 3.34-3.962 6.02-8.485 6.404-13.298.275-4.301-1.423-8.466-5.508-10.882-3.666-2.21-9.034-2.694-12.995-.167-3.783 2.376-5.936 6.59-4.212 10.173 1.882 3.868 7.471 5.145 12.231 3.902 5.629-1.562 9.261-6.334 11.002-10.9 3.495-9.422-.482-19.868-8.594-26.01-2.15-1.678-5.616 1.27-3.466 2.947 5.715 4.255 9.351 10.783 8.624 17.572-.325 3.502-1.698 7.474-4.555 10.184-2.324 2.257-6.493 3.699-9.493 1.903-2.5-1.52-1.413-4.828.879-6.356 2.647-1.83 6.377-1.077 8.616.525 6.622 5.026 1.185 13.856-3.241 19.162-7.124 8.303-15.916 16.286-25.925 22.134-2.799 1.399-.644 4.894 1.99 3.355zm-68.434 83.155c-6.799 6.738-18.93 15.528-29.1 15.569-4.422.07-9.114-1.269-10.96-4.754-2.089-3.691 3.253-11.625 5.975-14.761-1.295 3.127.18-2.203-.716-2.67-1.143-.531-2.417.006-3.203.811-2.636 3.061-5.464 6.696-5.299 10.519.084 3.754 2.779 6.929 6.364 8.799 7.745 3.936 18.938 1.523 26.929-1.993 5.015-2.216 9.568-5.268 13.144-8.856 1.918-1.904-1.21-4.711-3.134-2.664z" fill="#A68AD5"/><path d="M99.176 79.5c9.969 3.7 19.122 9.017 26.825 15.568a74 74 0 0110.15 10.482c.725.925 1.45 1.85 2.175 2.929.544.77 1.541 1.772 1.541 2.697-.091.694-.725 1.233-1.178 1.773-.907.925-1.904 1.772-2.901 2.62-14.953 13.179-32.625 24.046-52.019 32.061-10.875 4.625-22.294 8.17-33.984 10.867-3.172.694-1.903 4.856 1.268 4.162 22.113-5.087 43.138-13.41 61.807-24.817 9.425-5.703 18.125-12.023 26.191-19.036 1.813-1.541 4.078-3.16 5.075-5.087 1.269-2.466.544-4.624-.906-6.628-2.81-4.239-6.435-8.246-10.15-11.868-8.7-8.324-19.485-15.03-31.357-19.422-1.269-.463-2.719-.308-3.444.77-.634 1.002-.362 2.467.907 2.93z" fill="#A68AD5"/><path d="M98.546 76.34c-17.762 20.193-32.806 42.081-44.678 65.125-2.9 5.549-5.89 11.483-5.075 17.726.09 1.156-1.003 2.081.537 2.158 1.27 0 2.629-1.002 2.538-2.158-.634-5.164 1.45-10.019 3.897-14.721 2.9-5.703 5.981-11.252 9.244-16.801 6.434-11.021 13.775-21.734 21.75-32.061 4.531-5.858 9.334-11.638 14.138-17.264.725-.925.09-2.39-.907-2.929-1.268-.462-.628.077-1.444.925z" fill="#A68AD5"/><path d="M90.841 89.98c16.222 6.86 29.269 16.264 39.238 29.057 1.812 2.312 6.163.154 4.35-2.158-10.603-13.487-24.103-23.431-41.141-30.676-2.81-1.156-5.347 2.544-2.447 3.777zm-8.432 11.485c8.156 2.313 15.497 6.397 22.022 11.021 5.981 4.162 12.597 9.018 14.047 15.8.634 2.697 5.437 1.541 4.894-1.079-1.632-7.553-8.701-13.102-15.407-17.726-7.341-5.164-15.225-9.557-24.288-12.177-2.99-.848-4.259 3.314-1.268 4.161zm-9.607 12.486c7.069 2.004 13.14 5.78 18.94 9.634 5.257 3.545 10.876 7.707 12.689 13.41v-1.079.154c.181-.308.453-.694.634-1.002l.181-.154c1.269.462 2.447.848 3.716 1.31l-.091-.077c-.815-2.697-5.619-1.541-4.894 1.079l.091.077c.453 1.464 2.175 1.85 3.716 1.31 3.897-1.464-.453-7.321-1.903-9.171-2.447-3.006-5.529-5.472-8.882-7.861-6.887-4.779-14.228-9.48-22.837-11.869-3.172-.694-4.532 3.391-1.36 4.239zm-6.612 12.176c6.072 1.311 10.419 4.47 15.313 7.707 4.26 2.852 8.61 6.243 9.334 11.021.181 1.079 1.903 1.773 3.081 1.542 1.45-.308 1.904-1.464 1.813-2.621-.906-5.549-5.71-9.787-10.694-12.947-5.619-3.7-10.6-7.245-17.578-8.709-3.082-.771-4.44 3.314-1.269 4.007zM56.037 138.69c7.07 2.466 15.316 5.78 18.216 12.254.544 1.079 1.631 1.85 3.081 1.542 1.179-.231 2.266-1.465 1.813-2.621-3.535-7.784-12.053-11.791-20.572-14.874-1.269-.463-.719-.308-1.444.771-.634 1.001-2.362 2.466-1.094 2.928zm98.061-44.39c1.722-8.4 7.34-16.108 15.859-20.578 7.794-4.162 18.397-6.088 27.279-3.468 3.896 1.156 7.431 4.007 7.159 7.784-.091 1.464-.816 2.697-2.356 3.391-1.36.54-3.082.77-4.441.077-3.081-1.85 0-6.011 1.903-7.63 3.535-3.006 8.157-4.778 12.96-5.78 10.875-2.158 22.656-.925 32.806 2.774 1.269.463 2.719.309 3.444-.77.544-.925.363-2.466-.906-2.929-11.238-4.162-24.016-5.626-35.979-3.314-5.981 1.079-11.962 3.391-16.131 7.245-3.444 3.082-5.891 8.246-2.809 12.1 3.081 3.853 3.787 1.699 7.593-1.23 4.079-3.16 3.807-8.786.816-12.408-3.534-4.393-3.788-4.166-9.769-4.474-5.891-.385-11.781.463-17.309 2.235-13.051 4.316-22.566 14.258-24.922 25.973-.272 1.156.362 2.312 1.812 2.62 1.178.231 2.809-.385 2.991-1.618zm-37.976-19.656c11.238-6.474 21.116-14.566 28.819-24.046 3.353-4.084 5.982-8.786 6.163-13.872.09-4.547-1.903-9.017-6.344-11.715-3.987-2.466-8.603-1.625-12.681.918-3.897 2.389-5.075 5.248-3.082 9.101 2.175 4.162 6.157 5.703 11.141 4.547 5.891-1.464 9.516-6.396 11.147-11.175 3.263-9.865-.634-21.04-9.516-27.822-2.356-1.85-5.89 1.156-3.534 3.006 6.253 4.7 9.606 11.714 9.153 18.882-.181 3.7-1.45 7.86-4.35 10.635-2.356 2.313-6.706 3.7-9.969 1.696-2.718-1.696-1.722-5.164.635-6.705 2.718-1.85 6.706-.925 9.153.848 7.25 5.549 1.903 14.72-2.538 20.192-7.159 8.555-16.131 16.03-26.462 21.888-2.9 1.387-.453 5.164 2.265 3.622zm-69.238 85.394c-7.069 7.091-17.853 11.946-28.91 11.638-4.802-.077-9.968-1.696-12.143-5.549-2.447-4.085.997-8.247 3.806-11.561.725-.924.09-2.389-.906-2.928-1.269-.617-2.628-.077-3.444.77-2.719 3.237-5.619 7.091-5.256 11.253.272 4.084 3.353 7.63 7.34 9.788 8.61 4.547 20.663 2.312 29.182-1.233 5.347-2.236 10.15-5.395 13.866-9.172 1.994-2.004-1.54-5.164-3.535-3.006z" fill="#A68AD5"/></svg>