<svg width="313" height="234" fill="none" xmlns="http://www.w3.org/2000/svg"><path fill-rule="evenodd" clip-rule="evenodd" d="M80.235 23.416c-17.24 9.833-29.444 22.736-34.167 37.677-6.436 20.36 2.11 41.135 21.574 58.351 19.463 17.215 49.67 30.668 85.858 36.139 36.177 5.471 71.584 1.905 99.556-8.238a146.147 146.147 0 007.422-2.92c12.539-5.744 23.095-12.943 30.936-21.297 6.146-6.549 10.612-13.793 13.079-21.597 6.439-20.373-1.873-41.15-21.081-58.357-19.211-17.21-49.165-30.662-85.351-36.133-29.279-4.427-58.06-2.937-82.808 3.175-12.974 3.204-24.81 7.67-35.018 13.2zm188.155 4.912c6.317 3.898 12.017 8.123 17.023 12.607 17.799 15.946 26.953 35.335 23.526 55.022 4.183-19.043-4.254-38.207-22.176-54.263-5.33-4.775-11.486-9.26-18.373-13.366zm-6.687 118.839c-8.558 3.919-17.979 7.157-28.027 9.638-25.146 6.21-54.325 7.712-83.975 3.229-36.615-5.536-67.157-19.175-86.904-36.865-19.75-17.693-28.855-39.626-21.94-61.501 2.622-8.297 7.347-15.923 13.753-22.748 6.483-6.908 14.699-13.008 24.247-18.173 6.546-3.725 13.755-6.997 21.48-9.774C129.072.645 165.236-2.947 201.86 2.59c36.615 5.536 67.157 19.175 86.904 36.865 19.749 17.693 28.855 39.626 21.94 61.501-6.249 19.77-24.409 35.725-49.001 46.211zM64.943 121.06c-6.422-5.786-11.712-12.017-15.676-18.544 3.848 6.441 9.074 12.629 15.531 18.414l.145.13zm29.538 73.78c-8.262 5.653-22.224 6.221-35.009.2-8.033-3.783-13.9-9.377-16.952-15.271-3.045-5.881-3.27-11.977-.24-17.049 1.042-1.744 2.412-3.277 4.058-4.585 3.03-2.079 6.834-3.482 11.123-4.114 7.313-1.078 15.87.122 23.9 3.904 8.034 3.783 13.9 9.377 16.952 15.271 3.046 5.88 3.27 11.977.24 17.049-1.042 1.745-2.419 3.283-4.072 4.595zm-49.318-39.585c9.32-6.836 24.85-7.346 38.594-.873 8.526 4.015 14.934 10.033 18.338 16.607 3.412 6.588 3.829 13.816.152 19.972-1.39 2.327-3.251 4.305-5.458 5.924a23.11 23.11 0 01-.507.361c-3.676 2.893-8.408 4.73-13.59 5.494-7.934 1.169-17.086-.14-25.616-4.157-8.526-4.016-14.934-10.033-18.338-16.607-3.412-6.588-3.828-13.816-.151-19.972 1.5-2.514 3.545-4.614 5.981-6.298.196-.153.394-.304.595-.451zm-13.367 73.112c-4.68 3.01-12.214 3.011-18.855-.856-4.173-2.43-7.057-5.854-8.402-9.356-1.341-3.492-1.145-7.006.715-9.833a10.103 10.103 0 012.382-2.524c1.71-1.104 3.8-1.809 6.124-2.063 3.993-.437 8.569.482 12.741 2.912 4.173 2.43 7.058 5.854 8.403 9.356 1.34 3.492 1.144 7.006-.715 9.833-.64.973-1.447 1.82-2.393 2.531zm-25.53-25.283c5.832-4.057 14.864-3.899 22.416.498 4.694 2.734 8.076 6.663 9.694 10.875 1.622 4.222 1.477 8.783-1.01 12.563a13.218 13.218 0 01-3.84 3.804c-2.302 1.707-5.153 2.721-8.19 3.053-4.666.51-9.88-.567-14.575-3.301-4.695-2.734-8.077-6.662-9.695-10.875-1.621-4.222-1.477-8.783 1.01-12.563a13.254 13.254 0 013.854-3.814c.111-.081.223-.162.336-.24z" fill="#7831B2"/><path d="M164.391 84.486c-1.082-.442-2.007-1.205-2.773-2.289-.748-1.13-1.221-2.397-1.42-3.8a7.783 7.783 0 01.506-4.086c.269-.66.584-1.303.946-1.925.429-.65 1.074-1.295 1.937-1.934.862-.638 2.079-1.27 3.649-1.894 1.57-.625 3.63-1.242 6.181-1.851 1.833-.462 3.256-.927 4.269-1.394 1.078-.495 1.869-1.025 2.373-1.59a7.695 7.695 0 001.273-2.122c.689-1.7.511-3.286-.537-4.76-1.028-1.52-3.189-2.954-6.483-4.3-2.023-.826-3.803-1.305-5.34-1.438-1.518-.18-2.834-.25-3.947-.209-1.048.013-1.971-.144-2.771-.471-.706-.288-1.198-.765-1.477-1.43-.232-.644-.214-1.297.054-1.958.173-.425.453-.778.842-1.06.408-.329.838-.51 1.291-.546 1.832-.188 4.019-.037 6.564.452 2.563.442 4.809 1.057 6.739 1.845 3.293 1.345 5.76 2.903 7.4 4.674 1.706 1.743 2.723 3.562 3.051 5.457.375 1.915.179 3.816-.587 5.705a13.304 13.304 0 01-1.903 3.268c-.789.999-1.95 1.9-3.484 2.705-1.486.824-3.618 1.55-6.396 2.176-2.22.47-3.916.932-5.089 1.389-1.153.41-1.963.85-2.428 1.32a4.924 4.924 0 00-1.071 1.626c-.307.755-.368 1.446-.183 2.072.185.626.436 1.224.753 1.794.336.522.607 1.073.811 1.652.223.531.191 1.151-.097 1.86-.211.519-.581.89-1.111 1.114-.463.196-.977.179-1.542-.052zm-6.919 15.833c-1.459-.596-2.533-1.53-3.224-2.803-.671-1.32-.681-2.782-.029-4.388.441-1.086 1.148-1.815 2.122-2.188.993-.42 1.961-.437 2.902-.053 1.929.788 3.083 1.865 3.461 3.23a6.106 6.106 0 01-.238 4.031c-.364.898-.981 1.608-1.853 2.133-.824.544-1.871.557-3.141.038z" fill="#7831B2"/></svg>