<svg width="156" height="169" fill="none" xmlns="http://www.w3.org/2000/svg"><path d="M99.344 149.856c21.131-20.773 16.778-51.146 3.685-74.716 15.104 27.189 16.367 52.384-3.684 74.716zm0 0c-4.192 4.669-7.054 6.981-12.501 10.098-15.249 8.725-30.228 8.512-44.91 2.623m57.411-12.721c-1.977 1.944-9.592 7.637-12.017 8.983-14.737 8.186-30.061 8.975-45.394 3.738m0 0c-11.99-4.095-28.986-18.921-36.301-37.902m36.3 37.902a55.038 55.038 0 01-18.507-12.238c-3.54-3.553-7.975-9.668-10.534-14.275m36.118-8.326l1.875-8.805m0 0l1.388-6.518m-1.388 6.518l6.508 1.386-7.312-1.557m.804.171l-9.57-2.038 8.766 1.867m2.192-6.347l5.542-26.02c7.162.19 19.523 4.157 17.737 18.183-1.33 10.444-13.654 10.225-23.279 7.837zm0 0c-3.542-.879-6.836-2.071-9.328-3.176a53.716 53.716 0 008.193 2.831m0 0c9.513 2.448 21.08 2.528 23.347-8.12 3-14.087-10.575-17.992-17.737-18.183 0 0-3.086 12.784-4.635 20.822a225.904 225.904 0 00-.975 5.481zm0 0a437.874 437.874 0 00-1.057 6.692m0 0c-.762 5.06-1.303 9.127-1.303 9.127m101.679-78.33c6.41-13.18.411-31.933-11.16-41.775 13.348 11.353 18.474 28.925 11.16 41.776zm0 0a22.163 22.163 0 01-3.052 4.682c-6.185 7.27-15.07 10.906-23.98 10.705m27.032-15.386a24.488 24.488 0 01-2.632 3.752c-6.154 7.234-15.276 11.363-24.4 11.634m0 0c-7.134.213-18.086-3.195-25.7-11.76m25.7 11.76c-4.146-.093-7.349.032-11.236-1.743-2.571-1.174-6.12-3.521-8.381-5.445m17.403-11.54l-.753-5.015m0 0l-.558-3.712m.558 3.712l3.707-.556-4.165.625m.458-.069l-5.451.82 4.993-.75m-.1-3.782l-2.226-14.822c3.816-1.317 11.121-1.67 12.954 6.081 1.365 5.772-5.178 8.096-10.728 8.74zm0 0c-2.042.237-4.015.26-5.548.17 1.391.081 3.104.063 4.881-.128m0 0c5.502-.591 11.619-2.837 10.708-8.903-1.205-8.024-9.138-7.398-12.954-6.081 0 0 .902 7.354 1.676 11.9.163.959.36 2.013.57 3.084zm0 0c.248 1.263.515 2.552.767 3.74m0 0a328.89 328.89 0 001.119 5.071M104.721 80.35c14.747 26.547 4.946 60.051-21.315 74.637-26.26 14.587-59.717 3.289-74.464-23.258-14.747-26.548-5.199-58.292 21.061-72.879 26.26-14.586 59.972-5.048 74.718 21.5zm.809-1.125c14.747 26.547 5.414 59.893-20.846 74.479-26.26 14.587-59.503 4.89-74.25-21.657-14.747-26.548-5.413-59.893 20.847-74.48 26.26-14.586 59.502-4.89 74.249 21.658zm35.69-69.027c13.032 11.085 14.492 30.697 3.526 43.588-10.965 12.89-30.848 13.552-43.88 2.467-13.033-11.085-14.278-29.719-3.313-42.61 10.965-12.89 30.634-14.53 43.667-3.445zm.204-.753c13.032 11.085 14.707 30.52 3.742 43.411-10.965 12.89-30.418 14.355-43.451 3.27-13.032-11.085-14.707-30.521-3.742-43.412 10.965-12.89 30.418-14.354 43.451-3.27z" stroke="#7831B2" stroke-width="4" stroke-linecap="round"/></svg>