<svg width="192" height="256" fill="none" xmlns="http://www.w3.org/2000/svg"><path d="M104.488 178.507c13.576 18.289 10.818 35.409 10.789 44.749.058.432.077 1.447-.311 2.053m-10.478-46.802c-13.302-17.922-55.568-40.119-76.244-49.553a1.648 1.648 0 01-.91-1.911l.965-3.872m76.189 55.336c-4.723-14.057-52.761-42.748-76.19-55.336m0 0l-10.279-5.263a1.661 1.661 0 01-.76-2.151l7.216-16.288m0 0l-2.684-9.475a1.657 1.657 0 00-1.39-1.193L4.353 86.804c-1.447-.18-1.972-2.01-.842-2.933l11.697-9.548a1.66 1.66 0 00.56-1.694l-3.57-14.105c-.35-1.384 1.094-2.535 2.362-1.883l12.481 6.416a1.654 1.654 0 001.524-.006l8.72-4.57M24.475 99.47l1.73 5.218c.474 1.432 2.455 1.538 3.079.164l6.87-15.13c.242-.534.747-.9 1.33-.963l8.464-.92m-8.663-29.356l-26.384-7.118c-1.413-.381-1.672-2.277-.416-3.028l22.961-13.734c.55-.328.862-.944.801-1.582L31.75 6.717c-.138-1.454 1.53-2.364 2.674-1.46l20.178 15.936c.468.37 1.1.46 1.652.233l24.403-9.993c1.305-.534 2.637.705 2.202 2.048l-8.242 25.437m-37.33 19.564l3.181 10.429m-3.181-10.43l8.662 29.357m28.668-48.92l6.772-3.548a1.66 1.66 0 00.867-1.204l2.378-14.617c.22-1.354 1.891-1.87 2.835-.877l10.422 10.98a1.654 1.654 0 001.671.446l15.111-4.496c1.43-.426 2.649 1.112 1.911 2.411l-8.43 14.835c-.33.58-.28 1.303.126 1.833l7.194 9.369M74.616 38.918l17.749 24.596m23.108-9.464l13.885 3.005a1.663 1.663 0 011.302 1.77c-.323 3.716-.65 7.922-.958 12.466M115.473 54.05l2.018 2.623c.932 1.211-.13 2.934-1.629 2.64l-15.79-3.087a1.655 1.655 0 00-1.541.51l-6.166 6.778m41.159 99.777c10.414 19.945 12.802 24.518 31.023 34.031.072.037.142.081.208.128l1.316.952m-32.547-35.111a18.61 18.61 0 01-.699-1.505m.699 1.505a12.844 12.844 0 01-.699-1.505m33.246 36.616c.787-.581 2.665-1.497 3.879-.521 1.215.977 2.48 2.901 2.96 3.741m-6.839-3.22c-5.249 3.658-10.854 7.105-16.407 10.251m23.246-7.031c.692-.362 2.238-.87 2.892-.003.654.867 3.198 4.037 4.388 5.513m-7.28-5.51c-11.221 10.115-44.17 25.416-59.241 31.802m66.521-26.292c.574-.427 2.18-.739 4.014 1.425a454.199 454.199 0 014.522 5.449c.533.651.497 1.594-.119 2.167-4.775 4.438-17.353 13.894-37.537 23.356-25.52 11.965-29.218 14.463-34.329 14.471-.692.001-1.286-.475-1.489-1.138l-2.083-6.81a2.22 2.22 0 00-.198-.439c-.534-.952-.953-2.755.952-3.754m66.267-34.727c-23.013 17.403-53.767 30.403-66.267 34.727m0 0l-1.393-5.667c-.041-.165-.114-.32-.17-.481-.195-.56-.124-1.536 1.309-2.287m0 0l-1.196-5.422c-.041-.399.401-1.496 2.493-2.693m0 0c4.027-1.544 10.689-4.375 18.469-8.152m-3.733-145.866c-2.044 30.13-3.26 75.11 3.123 90.495m-3.123-90.495l3.32.46a1.648 1.648 0 011.421 1.837c-3.089 24.931-7.281 73.81-1.618 88.198M49.637 82.075l2.697 2.238c1.128.935.578 2.769-.878 2.927l-5.508.598m3.689-5.763l-.056-.047m.056.047l-3.689 5.763m3.689-5.763l1.09-1.705m34.845-9.39l6.793-7.466m0 0l-9.594-.789m66.893 145.928c-22.542-43.65-67.478-133.944-66.893-145.928m66.893 145.928a292.357 292.357 0 01-16.229 8.504M82.771 62.725L64.05 61.187a1.655 1.655 0 00-1.53.758L50.728 80.37m82.707 136.787C111.546 175.373 64.36 89.517 50.728 80.37m54.657 96.254c13.575 18.29 10.817 35.41 10.789 44.75.058.432.076 1.447-.312 2.053m-10.477-46.803c-13.347-17.981-55.072-38.642-75.645-47.967a1.639 1.639 0 01-.956-1.625l.411-5.743m76.19 55.335c-4.724-14.056-52.762-42.747-76.19-55.335m0 0l-10.28-5.264a1.66 1.66 0 01-.76-2.15l7.217-16.288m0 0l-2.643-9.327a1.657 1.657 0 00-1.593-1.206H3.659c-1.536 0-2.244-1.913-1.08-2.917l13.424-11.572a1.661 1.661 0 00.442-1.91l-5.05-11.815c-.559-1.31.681-2.67 2.034-2.231l14.61 4.744c.423.137.882.1 1.276-.107l8.867-4.647m-12.81 40.988l2.17 7.78c.408 1.464 2.402 1.653 3.078.292l7.382-14.869c.16-.32.418-.582.738-.743l8.105-4.091m-8.663-29.357l.245.807m-.245-.807c.081.275.163.544.245.807m-.245-.807c-4.086-1.08-15.042-2.347-15.758-2.43a1.732 1.732 0 01-.075-.01c-5.235-.847-10.237-2.073-14.389-2.774-1.583-.268-2.193-2.568-.865-3.473 15.14-10.32 18.136-9.905 27.151-15.142.6-.35.911-1.042.783-1.726L29.94 3.971c-.274-1.458 1.354-2.516 2.572-1.67l10.879 7.555 12.1 9.457a1.654 1.654 0 001.657.223l12.828-5.366 10.707-3.374c1.268-.4 2.452.782 2.006 2.037-3.155 8.87-7.33 14.858-7.33 25.764m0 0l5.123-1.276a1.658 1.658 0 001.25-1.462l1.639-18.372c.121-1.364 1.747-2.002 2.76-1.083l12.743 11.549c.385.348.91.496 1.419.4l14.402-2.728c1.389-.263 2.448 1.227 1.743 2.456l-7.384 12.883a1.662 1.662 0 00.124 1.838l7.191 9.366m-41.01-13.57c4.554 5.806 7.223 9.345 11.685 14.42 4.462 5.074 6.216 8.613 6.216 8.613m23.109-9.463l13.884 3.005a1.662 1.662 0 011.302 1.77 680.399 680.399 0 00-.958 12.466M116.37 52.168s6.098 10.125 1.861 9.4c-3.512-.601-13.692-5.293-17.071-6.88a1.657 1.657 0 00-1.934.388l-5.965 6.555m41.159 99.778c10.415 19.945 12.803 24.517 31.024 34.031.071.037.142.08.207.127l1.317.952m-32.548-35.11a19.347 19.347 0 01-.699-1.506m.699 1.506a12.862 12.862 0 01-.699-1.506m33.247 36.616c.787-.58 2.664-1.497 3.879-.52 1.214.976 2.479 2.901 2.96 3.741m-6.839-3.221c-5.249 3.658-10.855 7.106-16.408 10.251m23.247-7.03c.691-.362 2.237-.87 2.891-.003.654.867 3.198 4.036 4.388 5.513m-7.279-5.51c-11.222 10.114-44.17 25.415-59.242 31.802m66.521-26.292c.574-.427 2.18-.739 4.014 1.424a470.535 470.535 0 014.522 5.449 1.67 1.67 0 01-.08 2.206l-.008.008c-4.503 4.753-15.332 16.182-35.508 25.641-25.566 11.986-31.026 12.44-36.39 12.169a1.646 1.646 0 01-1.487-1.167l-2.084-6.81a2.25 2.25 0 00-.197-.44c-.535-.951-.954-2.755.951-3.753m66.267-34.727c-23.013 17.402-53.767 30.402-66.267 34.727m0 0l-1.393-5.667c-.04-.165-.113-.321-.169-.481-.195-.56-.124-1.537 1.308-2.287m0 0l-1.196-5.422c-.04-.399.402-1.496 2.493-2.693m0 0c4.028-1.544 10.69-4.375 18.469-8.152m-3.733-145.866c-2.043 30.13-3.259 75.11 3.123 90.494m-3.123-90.494l3.321.46a1.647 1.647 0 011.42 1.836c-3.089 24.932-7.281 73.811-1.618 88.198m-83.188-79.71l2.698 2.237c1.127.936.577 2.77-.878 2.927l-5.508.599m3.688-5.764l-.056-.046m.056.046l-3.688 5.764m3.688-5.764l1.091-1.704m-10.26-11.46c-1.073-3.305-1.831-5.974-2.937-9.622m0 0c1.986 6.344 4.348 9.51 6.295 16.447 1.287 4.587 2.123 12.103 2.123 12.103m39.623-16.859l6.793-7.466m0 0l-9.593-.788M150.56 206.77C118.833 163.443 83.083 72.827 83.668 60.843M150.56 206.77a291.023 291.023 0 01-16.229 8.505M83.668 60.843l-18.722-1.539a1.655 1.655 0 00-1.53.758L51.624 78.488m82.707 136.787c-20.337-43.122-69.075-127.64-82.707-136.787" stroke="#A68AD5" stroke-width="3"/></svg>