<svg width="124" height="251" fill="none" xmlns="http://www.w3.org/2000/svg"><path d="M101.606 114.95v-6.561c0-7.447-4.115-14.185-10.734-17.554a20.276 20.276 0 00-9.124-2.128H65.11c-4.114 0-8.229 1.242-11.628 3.724l-.895.532c-5.188 3.724-8.229 9.575-8.229 15.958v102.311l57.248-20.214v-30.675m-51.16 60.464v-11.703m48.297 11.704v-28.015M53.484 92.432S29.87 72.927 20.567 56.614c-1.252-2.305-4.293-3.014-6.619-1.418-1.431 1.064-2.147 3.014-1.789 4.787 2.147 7.98 9.84 30.144 32.023 46.989M5.183 35.158S-.899 28.42 3.752 20.263C8.224 12.107 17.885 18.49 20.21 2c0 0 15.206 27.661.715 33.158m37.39 35.285h29.34m-27.733-6.382h26.119m-71.915-9.044s-7.334.178-7.156-13.653m12.346 13.653l.179-.354c1.789-4.078 1.61-8.866-.179-12.944m-10.734 9.22l2.863 30.853c.179 1.064 1.61 1.064 1.61 0l1.968-13.476m42.038 138.483v-72.522M93.38 192.79v-31.562M61.895 203.43v-38.123m21.11 32.449v-42.379m22.001-1.063l-5.725 10.285-20.752-11.703 22.183-38.478 20.573 11.526-4.651 8.156M93.38 220.807V203.43m-5.726 17.377v-8.688m-11.271 8.688V206.09m-10.734 14.718v-9.575m-10.913 9.574v-5.852m3.576-147.704L44.358 54.13l15.564 6.56m27.736 6.561l13.954-13.121-15.564 6.56m-16.64-5.672l3.578-19.86 3.936 20.569m-14.85 4.965l-5.01-18.973 10.555 13.298m16.461 5.674l5.01-18.972-10.734 13.298M44.357 128.96s32.023 1.418 54.206-31.208M62.25 115.66s18.963-5.497 28.623-25.001m-46.514 18.264s12.523 1.064 25.046-9.752m-24.147 4.076s8.408-.531 14.67-6.737M24.45 230.204h95.63c1.06 0 1.919.854 1.919 1.907v14.98a1.913 1.913 0 01-1.919 1.908H24.45a1.913 1.913 0 01-1.918-1.908v-14.98c0-1.053.859-1.907 1.918-1.907zm8.411-9.399h78.814c1.059 0 1.918.854 1.918 1.908v5.582a1.913 1.913 0 01-1.918 1.908H32.862a1.913 1.913 0 01-1.919-1.908v-5.582c0-1.054.86-1.908 1.919-1.908zM87.656 71.863c0 9.303-6.568 16.845-14.67 16.845s-14.67-7.542-14.67-16.845c0-9.303 6.568-16.845 14.67-16.845s14.67 7.541 14.67 16.845zm-66.73-36.705H6.974c-1.79 0-3.22 1.419-3.22 3.192 0 1.773 1.43 3.192 3.22 3.192h13.954c1.789 0 3.22-1.419 3.22-3.192 0-1.773-1.431-3.192-3.22-3.192zm84.079 119.157c-2.863-1.596-3.757-5.142-2.147-7.802l5.904-10.284c1.61-2.837 5.188-3.724 7.871-2.128 2.863 1.596 3.757 5.142 2.147 7.802l-5.904 10.284c-1.431 2.66-5.009 3.724-7.871 2.128z" stroke="#FFFCFF" stroke-width="3.807" stroke-miterlimit="10" stroke-linecap="round" stroke-linejoin="round"/></svg>