<svg width="243" height="219" fill="none" xmlns="http://www.w3.org/2000/svg"><path fill-rule="evenodd" clip-rule="evenodd" d="M109.01 215.021c58.548 0 106.011-47.463 106.011-106.011C215.021 50.462 167.558 3 109.01 3 50.462 3 3 50.462 3 109.01s47.462 106.011 106.01 106.011zm0 3c60.205 0 109.011-48.806 109.011-109.011C218.021 48.806 169.215 0 109.01 0 48.806 0 0 48.806 0 109.01c0 60.205 48.806 109.011 109.01 109.011z" fill="#7831B2"/><path fill-rule="evenodd" clip-rule="evenodd" d="M110.01 215.021c58.548 0 106.011-47.463 106.011-106.011C216.021 50.462 168.558 3 110.01 3 51.462 3 4 50.462 4 109.01s47.462 106.011 106.01 106.011zm0 3c60.205 0 109.011-48.806 109.011-109.011C219.021 48.806 170.215 0 110.01 0 49.806 0 1 48.806 1 109.01c0 60.205 48.806 109.011 109.01 109.011z" fill="#7831B2"/><path fill-rule="evenodd" clip-rule="evenodd" d="M109.012 197.04c48.617 0 88.029-39.412 88.029-88.03 0-48.617-39.412-88.029-88.029-88.029s-88.03 39.412-88.03 88.029c0 48.618 39.413 88.03 88.03 88.03zm0 3c50.274 0 91.029-40.755 91.029-91.03 0-50.274-40.755-91.029-91.029-91.029-50.274 0-91.03 40.755-91.03 91.029 0 50.275 40.756 91.03 91.03 91.03z" fill="#7831B2"/><path fill-rule="evenodd" clip-rule="evenodd" d="M107.887 197.04c48.617 0 88.029-39.412 88.029-88.03 0-48.617-39.412-88.029-88.029-88.029s-88.03 39.412-88.03 88.029c0 48.618 39.413 88.03 88.03 88.03zm0 3c50.274 0 91.029-40.755 91.029-91.03 0-50.274-40.755-91.029-91.029-91.029-50.274 0-91.03 40.755-91.03 91.029 0 50.275 40.756 91.03 91.03 91.03z" fill="#7831B2"/><path fill-rule="evenodd" clip-rule="evenodd" d="M109.012 174.563c36.204 0 65.553-29.349 65.553-65.553 0-36.204-29.349-65.553-65.553-65.553-36.204 0-65.553 29.35-65.553 65.553 0 36.204 29.349 65.553 65.553 65.553zm0 3c37.861 0 68.553-30.692 68.553-68.553 0-37.86-30.692-68.553-68.553-68.553-37.86 0-68.553 30.693-68.553 68.553 0 37.861 30.692 68.553 68.553 68.553z" fill="#7831B2"/><path fill-rule="evenodd" clip-rule="evenodd" d="M110.133 175.687c36.204 0 65.553-29.349 65.553-65.553 0-36.204-29.349-65.553-65.553-65.553-36.204 0-65.553 29.35-65.553 65.553 0 36.204 29.35 65.553 65.553 65.553zm0 3c37.861 0 68.553-30.692 68.553-68.553 0-37.86-30.692-68.553-68.553-68.553-37.86 0-68.553 30.692-68.553 68.553s30.692 68.553 68.553 68.553z" fill="#7831B2"/><path fill-rule="evenodd" clip-rule="evenodd" d="M109.011 147.592c21.308 0 38.581-17.274 38.581-38.582s-17.273-38.581-38.581-38.581c-21.308 0-38.581 17.273-38.581 38.581 0 21.308 17.273 38.582 38.581 38.582zm0 3c22.965 0 41.581-18.617 41.581-41.582 0-22.964-18.616-41.581-41.581-41.581-22.965 0-41.581 18.617-41.581 41.581 0 22.965 18.616 41.582 41.581 41.582z" fill="#7831B2"/><path fill-rule="evenodd" clip-rule="evenodd" d="M109.011 145.344c21.308 0 38.581-17.273 38.581-38.581 0-21.308-17.273-38.582-38.581-38.582-21.308 0-38.581 17.274-38.581 38.582s17.273 38.581 38.581 38.581zm0 3c22.965 0 41.581-18.617 41.581-41.581 0-22.965-18.616-41.582-41.581-41.582-22.965 0-41.581 18.617-41.581 41.582 0 22.964 18.616 41.581 41.581 41.581z" fill="#7831B2"/><path fill-rule="evenodd" clip-rule="evenodd" d="M109.01 129.611c11.378 0 20.601-9.224 20.601-20.601 0-11.377-9.223-20.6-20.601-20.6-11.377 0-20.6 9.223-20.6 20.6s9.223 20.601 20.6 20.601zm0 3c13.034 0 23.601-10.567 23.601-23.601 0-13.034-10.567-23.6-23.601-23.6-13.034 0-23.6 10.566-23.6 23.6s10.566 23.601 23.6 23.601z" fill="#7831B2"/><path fill-rule="evenodd" clip-rule="evenodd" d="M109.681 127.304c10.416 0 18.747-8.243 18.747-18.274s-8.331-18.275-18.747-18.275S90.934 99 90.934 109.03c0 10.031 8.33 18.274 18.747 18.274zm0 3c12.01 0 21.747-9.525 21.747-21.274 0-11.75-9.737-21.275-21.747-21.275S87.934 97.28 87.934 109.03c0 11.749 9.736 21.274 21.747 21.274z" fill="#7831B2"/><path fill-rule="evenodd" clip-rule="evenodd" d="M113.63 103.385c.216.8-.258 1.623-1.058 1.838l-4.347 1.169 13.724 5.755 95.887 36.345 5.863-5.41a1.5 1.5 0 012.492.823 1.499 1.499 0 01.621 2.549l-7.202 6.646 4.297 1.801 8.635-7.969a1.502 1.502 0 012.492.824 1.499 1.499 0 01.621 2.549l-7.095 6.547 4.195 1.76 6.3-5.814a1.501 1.501 0 012.491.824 1.5 1.5 0 01.622 2.549l-6.552 6.046-.471 11.731a1.5 1.5 0 01-2.973.219 1.502 1.502 0 01-1.103-1.507l.426-10.608-4.789-2.008-.432 10.736a1.5 1.5 0 01-2.973.219 1.5 1.5 0 01-1.102-1.508l.448-11.149-4.891-2.051-.567 14.124a1.5 1.5 0 01-2.973.219 1.502 1.502 0 01-1.103-1.508l.584-14.537-105.487-44.234 1.942 2.491a1.5 1.5 0 01-2.366 1.844l-5.883-7.547a1.414 1.414 0 01-.148-.231 1.5 1.5 0 011.37-2.658l.586.246 8.081-2.174a1.5 1.5 0 011.838 1.059zm101.327 47.763l.415-.382-13.809-5.234 13.394 5.616z" fill="#7831B2"/></svg>