<svg width="330" height="191" fill="none" xmlns="http://www.w3.org/2000/svg"><path d="M2.217 158.059c-2.093.434-2.003 3.19.13 2.85 6.926-1.353 13.966-2.754 20.966-4.25 6.662 11.05 13.325 22.1 20.027 33.245.474.806 2.225.515 2.627-.436 6.207-13.23 12.067-26.65 16.97-40.113.748 1.138 1.495 2.276 2.356 3.366-.108.381.206.807.627.853 3.563 4.645 7.808 9.003 11.82 13.124a226.912 226.912 0 009.612 9.472c1.515 1.373 2.376 2.464 4.702 2.266.535-.002 1.023-.431 1.244-.859 3.364-5.999 4.016-13.984 5.615-20.356 1.566-6.135 3.887-12.7 4.497-18.88 8.509 9.714 18.336 18.425 29.401 25.944.928.615 2.406-.008 2.655-1.006 2.965-12.982 4.78-26.151 3.928-38.978 10.248 8.758 21.587 16.609 33.334 23.841.928.614 2.446.087 2.769-1.055 3.002-10.986 4.483-23.678 2.633-34.744 10.242 8.425 21.46 15.991 33.462 22.557.695.378 1.724.28 2.4-.34 2.436-2.479 2.62-4.903 2.678-7.945.066-4.609-.289-9.265-.49-13.873-.201-4.609-.442-9.312-.643-13.92-.092-.856.037-2.14.125-3.517 2.444 1.987 4.887 3.975 7.485 6.01.006.332.393.616.814.662a255.408 255.408 0 0014.597 10.502c.04.095-.074.143-.034.237-.181.524.434.712.849.425l.113-.048c2.939 1.892 5.951 3.64 8.923 5.293.848.425 2.105.231 2.661-.674 2.921-5.141-.425-12.448-1.434-17.386-1.554-7.503-3.188-15.196-5.237-22.602 7.629 3.492 15.257 6.983 22.845 10.38 4.122 1.84 8.256 4.344 12.598 5.756 1.844.564 2.766.846 4.625.175.796-.335 1.125-1.144.999-1.762-2.812-11.442-6.159-22.883-11.171-33.51 8.464 3.25 17.042 6.454 25.914 9.086 1.844.564 3.728 1.223 5.726 1.834.08.19.387.284.768.235 1.998.611 3.956 1.128 5.947 1.406 1.724.28 3.368.37 4.714-1.203.97-1.191.832-2.474.693-3.756-.496-4.037-3.21-8.258-4.582-12.15-2.863-8.068-5.004-16.33-7.259-24.543 8.928-8.677 16.961-18.207 23.451-28.54.369-.713-.673-1.28-1.195-.613-14.303 19.434-32.131 36.218-52.637 50.778-38.896 27.782-83.72 49.121-128.471 66.183-17.634 6.758-35.475 12.708-53.401 18.136a.486.486 0 00-.649.05s-.113.048-.073.143c-30.043 9.078-60.464 16.305-91.024 22.25zm42.305 27.66c-5.955-10.007-11.984-19.871-17.94-29.878 11.754-2.604 23.582-5.351 35.289-8.383-5.872 12.754-11.363 25.459-17.349 38.261zm23.28-35.62c-1.014-1.137-2.068-2.369-3.083-3.506 3.27-.818 6.386-1.684 9.615-2.597a176.509 176.509 0 01-6.531 6.103zm5.319 6.588c-1.448-1.848-2.856-3.602-4.417-5.403 2.51-2.621 5.06-5.148 7.683-7.818 3.002-.817 6.004-1.635 8.966-2.547 1.445-.385 2.735-.817 4.18-1.202-5.355 5.72-10.904 11.297-16.412 16.97zm3.243 3.886c-.74-.806-1.522-1.706-2.149-2.559 6.27-5.77 12.068-12.347 17.33-18.921 3.57-1.057 7.028-2.066 10.558-3.218-.034.237-.067.475.053.76-.879 2.046-1.717 4.187-2.328 6.232-.154-.047-.421-.046-.495.097-6.98 6.628-13.173 14.488-19.225 21.731-1.795-2.038-3.277-3.648-3.744-4.122zm9.477 10.423c-1.441-1.516-3.077-3.174-4.445-4.832 6.44-6.959 13.287-14.537 18.183-22.298-1.148 3.948-2.063 8.132-3.137 11.937-.249.999-.537 1.903-.786 2.901a89.842 89.842 0 01-5.363 7.288c-1.346 1.572-3.186 3.242-4.452 5.004zm5.275 4.259c-.455.192-2.084-1.133-4.147-3.17 2.108-1.67 3.742-4.146 5.309-6.147.783-1 1.64-2.144 2.384-3.239-.215.761-.39 1.617-.719 2.426-.39 1.617-1.35 9.508-2.827 10.13zm13.876-40.15c11.086-3.552 22.206-7.343 33.207-11.417-.879 12.214-2.332 24.336-5.196 36.605-10.49-7.426-19.89-15.758-28.011-25.188zm40.29-10.49l-3.024-2.414c2.427-.91 4.968-1.869 7.396-2.78-1.459 1.621-2.992 3.384-4.372 5.194zm6.51 4.968c-1.742-1.277-3.371-2.603-5.114-3.88 2.249-2.288 4.07-4.955 5.972-7.432 4.36-1.725 8.834-3.498 13.154-5.317-4.479 5.574-9.265 11.054-14.012 16.629zm8.093 5.866c-2.13-1.561-4.373-3.075-6.543-4.731 5.388-5.957 10.309-12.388 14.963-18.818l6.935-2.921c-.107.38.093.855.48 1.139.04.095.194.142.234.237a49.311 49.311 0 00-.254 4.8c-4.909 7.096-10.672 13.434-15.815 20.294zm6.812 4.729c-1.857-1.229-3.753-2.553-5.61-3.783 5.702-5.53 10.31-12.388 14.503-18.959.05 2.661.14 5.416.076 8.125l-.165 3.422c-1.567 2.001-3.094 4.097-4.774 6.145-1.346 1.573-2.765 3.288-4.03 5.05zm6.264 4.066a106.534 106.534 0 01-4.795-3.12c1.419-1.715 2.605-3.667 3.984-5.478 1.078-1.571 2.156-3.143 3.275-4.62-.568 4.374-1.362 8.843-2.464 13.218zm39.485-12.721c-12.43-6.944-23.922-14.842-34.364-23.741 11.557-4.98 22.953-10.339 34.116-15.935.006.333.166.712.44 1.044l.581.426c-.175.856-.277 1.569-.27 1.901-.083 1.711-.052 3.374-.02 5.037.062 3.326.124 6.652.073 10.026l.206 10.976c.09 2.756 1.013 7.172-.762 10.266zm6.741-37.703c-1.396-1.088-2.831-2.272-4.227-3.36 3.518-1.817 7.15-3.682 10.668-5.5-.93 1.287-1.901 2.478-2.832 3.764-1.232 1.524-2.879 3.335-3.609 5.096zm5.701 4.638c-1.589-1.23-3.064-2.508-4.613-3.644 1.653-1.478 2.758-3.62 3.91-5.334 1.226-1.858 2.451-3.715 3.637-5.667l.455-.191c4.234-2.343 8.582-4.733 12.929-7.123-5.517 7.24-10.687 14.67-16.318 21.96zm7.632 5.725c-2.09-1.466-4.106-3.075-6.122-4.684 5.477-7.336 10.914-14.766 15.697-22.48.477 3.04 1.068 6.031 1.658 9.023a215.032 215.032 0 01-5.031 8.712c-1.929 3.048-4.66 6.098-6.202 9.429-.04-.095-.04-.095 0 0zm.969.709c.113-.047.227-.095.301-.238 2.59-2.432 4.359-5.859 6.174-8.858 1.48-2.524 2.961-5.047 4.214-7.475.545 2.565.976 5.177 1.56 7.836.259 1.567.591 2.992.85 4.559-1.413 2.048-2.673 4.142-4.086 6.19-.556.905-1.379 1.811-2.202 2.716-2.284-1.608-4.568-3.216-6.811-4.73zm8.24 5.581c.67-.953 1.299-2 1.855-2.905 1.152-1.714 2.264-3.524 3.109-5.332.218 1.472.591 2.992.809 4.464.425 2.279 1.55 5.269 1.066 7.932-2.278-1.276-4.482-2.694-6.839-4.159zm22.213-27.348c-6.432-2.877-12.791-5.898-19.224-8.775 9.258-5.353 18.395-10.99 27.219-17.053 3.575 11.345 7.49 22.546 10.342 34.084-2.988-.418-7.896-3.49-9.593-4.34-3.039-1.178-5.891-2.547-8.744-3.916zm14.719-25.755c-1.423-.518-2.772-1.179-4.195-1.697a246.13 246.13 0 009.835-7.16c-.409.62-.891 1.381-1.299 2-1.487 2.191-3.201 4.477-4.341 6.857zm7.041 2.733c-1.924-.754-3.807-1.413-5.618-2.215 1.567-2 2.86-4.333 4.119-6.428 1.112-1.81 2.111-3.57 3.109-5.332 6.062-4.677 11.736-9.637 17.217-14.74-3.001 4.952-5.888 9.856-9.083 14.666-2.967 4.713-6.703 9.192-9.744 14.05zm7.997 2.778c-2.037-.706-4.075-1.413-6.153-2.214 7.183-8.054 12.758-18.336 17.395-27.664a139.378 139.378 0 003.05 13.913c.08.19.199.474.166.712.818 2.896 1.75 5.744 2.835 8.639l.72 1.708c-.114.048-.187.19-.147.286-1.201 3.187-2.943 6.044-4.644 8.996-1.383-.424-2.539-.943-3.421-1.13l-3.995-1.222c1.6-2.239 2.733-4.95 4.027-7.283 1.621-3.142 3.243-6.283 4.711-9.472.074-.143.034-.237-.006-.332-.16-.38-.735-.473-1.07.003-1.621 3.142-3.397 6.236-5.132 9.425-1.407 2.38-3.081 4.762-4.141 7.331-1.349-.66-2.772-1.178-4.195-1.696zm20.864 2.498c-.171 3.089-3.152 3.003-6.146 2.253 1.708-2.62 2.949-5.712 3.928-8.471 1.147 2.087 2.414 4.459 2.218 6.218z" fill="#E71985"/></svg>