<svg width="165" height="194" fill="none" xmlns="http://www.w3.org/2000/svg"><path d="M32.63 87.831c4.495 20.186 18.543 54.766 46.675 54.873 9.186.035 16.427-1.581 22.282-5.131m0 0c12.623-7.654 18.807-24.299 24.168-52.778m-24.168 52.778c.683 10.786-2.4 32.34-20.195 33.836-17.905 1.504-21.215-21.176-20.632-32.704m40.827-1.132l-.013-.199m-40.438 12.827c-13.338 2.737-42.46 10.822-52.248 21.269m93.617-23.193c16.739 1.564 52.181 8.427 60.033 23.363M46.321 154.713l-3.18 25.999 16.67-.543 7.217 9.547 15.57-16.62 16.046 15.589 7.154-10.016 17.246-.562-4.868-25.737m5.908-89.725s-4.407.898-10.979 1.172m0 0c-12.667.527-33.38-1.268-46.112-16.29-3.594-4.24-6.093-6.231-7.911-6.672m54.023 22.962c7.457-.177 12.596-1.225 12.596-1.225m-12.596 1.225c-12.755.302-32.29-1.944-44.496-16.343-4.8-5.663-7.645-7.313-9.527-6.62m0 0C51.51 39.02 55.712 64.03 41.65 65.398m17.432-24.542c-5.61 2.068-2.675 24.951-17.432 24.542m0 0c-.74.072-1.53.079-2.374.013m2.374-.013c-.247-.007-.5-.02-.757-.04M32.728 87.68c4.494 20.186 18.888 53.342 47.02 53.448 28.992.11 38.016-14.788 45.864-56.476m-66.147 63.987c-13.338 2.737-42.46 10.822-52.248 21.269m94.682-18.991c4.123.385 9.315.837 14.918 1.522m0 0c17.146 2.098 38.135 6.382 44.054 17.639m-44.054-17.639l4.558 24.106-17.245.562-7.154 10.016-16.174-13.688-13.985 17.436-6.83-11.097-16.962.553 1.628-27.176m72.164-.712l-.309-1.631M84.198 2.062c-7.14.333-13.493 1.953-17.755 3.662A51.766 51.766 0 0065 5.707m19.196-3.645c12.465-.581 27.327 2.763 37.643 16.41 20.279 26.83 34.624 70.023 32.965 93.525-1.328 18.802-14.77 34.71-21.325 40.314M84.197 2.062c-7.694.142-14.612 1.834-19.196 3.645m19.196-3.645c12.115-.222 26.152 3.4 36.026 16.463 20.279 26.83 34.624 70.023 32.965 93.525-1.328 18.802-14.77 34.71-21.325 40.314M65.001 5.707c-.829.002-1.7.022-2.608.063m2.608-.063l-.175.07a54.37 54.37 0 00-2.432-.007m0 0c-14.637.668-38.503 6.836-41.928 28.135-4.706 29.261-34.907 94.93-.87 122.119M62.393 5.77c-14.422.276-39.99 6.085-43.544 28.188-4.706 29.26-34.907 94.929-.87 122.119" stroke="#7831B2" stroke-width="3" stroke-linecap="round"/></svg>