<svg width="153" height="95" fill="none" xmlns="http://www.w3.org/2000/svg"><path d="M1.184 25.713a.62.62 0 01-.612-.204c-.162-.187-.243-.52-.244-.997a46.638 46.638 0 00-.067-2.192 45.61 45.61 0 00-.108-1.852c-.034-.582-.065-1.145-.092-1.69a46.87 46.87 0 01-.06-1.716c-.007-.857.132-1.639.414-2.347a4.272 4.272 0 011.323-1.78c.6-.48 1.363-.816 2.291-1.008.846-.175 1.598-.128 2.254.14.667.267 1.19.716 1.565 1.35.386.618.581 1.386.587 2.304a4.51 4.51 0 01-.295 1.77 4.816 4.816 0 01-.926 1.479c-.402.426-.884.79-1.447 1.09a6.67 6.67 0 01-1.831.654c-.576.12-1.071.154-1.486.105-.402-.051-.713-.158-.93-.322-.218-.163-.327-.367-.33-.612a.724.724 0 01.129-.449.62.62 0 01.358-.221.924.924 0 01.463.014c.153.03.348.057.586.081.247.01.6-.032 1.058-.127a4.34 4.34 0 001.592-.66 3.64 3.64 0 001.097-1.183c.27-.472.398-.977.385-1.513.001-.589-.123-1.071-.373-1.449a1.896 1.896 0 00-.955-.795c-.401-.162-.843-.193-1.324-.093-.882.182-1.545.558-1.991 1.128-.436.556-.655 1.276-.656 2.158.006.563.022 1.117.05 1.663.038.543.077 1.117.117 1.721.05.603.09 1.268.119 1.998.028.73.048 1.564.059 2.506.006.268-.05.5-.168.696-.11.182-.294.3-.552.354zM12.368 23.4c-.54.112-1.008.074-1.402-.114-.383-.19-.686-.501-.91-.933-.213-.434-.322-.962-.329-1.586a6.564 6.564 0 01.232-1.813 8.813 8.813 0 01.74-1.844 8.612 8.612 0 011.111-1.645c.435-.507.91-.93 1.429-1.27a4.85 4.85 0 011.658-.692c.27-.056.496-.03.678.08.182.11.273.311.272.605a.683.683 0 01-.117.41c-.086.117-.227.207-.422.272a5.597 5.597 0 00-2.109 1.355 6.853 6.853 0 00-1.391 2.071 5.766 5.766 0 00-.486 2.27c0 .355.029.674.087.956.056.27.188.61.395 1.02l-.921-1.077c.267.227.492.364.673.412.194.046.449.036.766-.03.752-.155 1.416-.795 1.993-1.919.576-1.124 1.002-2.677 1.278-4.658a1.2 1.2 0 01.23-.58.811.811 0 01.488-.303c.27-.056.5.019.69.225.199.191.323.466.373.823.106.75.22 1.425.345 2.024a8.38 8.38 0 00.537 1.617c.236.49.57.979 1.001 1.465a.682.682 0 01.172.387.88.88 0 01-.032.467.984.984 0 01-.227.414.735.735 0 01-.397.211.768.768 0 01-.445-.018.93.93 0 01-.309-.249 8.279 8.279 0 01-.641-.878c-.2-.314-.386-.68-.558-1.098a9.231 9.231 0 01-.413-1.55c-.112-.602-.2-1.325-.265-2.17l.631-.148c-.145 1.255-.368 2.337-.67 3.245-.305.896-.665 1.645-1.08 2.245-.405.586-.838 1.043-1.297 1.371-.459.328-.912.538-1.358.63zm9.05-2.901c.08-.385.193-.818.338-1.302.142-.495.299-1.011.47-1.549.182-.54.367-1.069.554-1.585.196-.531.385-1.011.566-1.44a27.79 27.79 0 01.741-1.57c.253-.493.506-.9.758-1.223.262-.335.504-.526.727-.573.235-.048.461.01.679.172.23.161.462.456.698.885.162.31.348.706.558 1.19.21.483.425 1.015.643 1.595.216.568.415 1.146.597 1.733.183.587.333 1.132.449 1.635l-1.522.462a21.95 21.95 0 00-.503-1.808 24.726 24.726 0 00-.648-1.888c-.234-.6-.458-1.118-.67-1.552-.215-.446-.404-.738-.567-.875l.658-.284a21.13 21.13 0 00-.907 1.658c-.3.626-.567 1.288-.802 1.986-.175.514-.338 1.001-.488 1.461a31.3 31.3 0 00-.404 1.334c-.11.415-.218.841-.324 1.28l-1.6.258zm8.33 1.787c-.236.049-.435.004-.598-.134a.629.629 0 01-.237-.52c-.005-.146.027-.374.098-.682.073-.297.144-.637.212-1.019a5.89 5.89 0 00.091-1.158l.821.768c-.17.01-.433.04-.79.09a20.25 20.25 0 00-1.312.234 109.595 109.595 0 00-3.828.866c-.618.152-1.204.31-1.758.474-.555.164-1.06.33-1.515.497l.56-.76a13.07 13.07 0 00.132 1.26c.037.238.067.446.092.625l.077.37c.03.202-.01.37-.117.502a.72.72 0 01-.457.278c-.282.059-.499-.013-.651-.214a1.876 1.876 0 01-.323-.76 5.398 5.398 0 01-.132-.727 5.737 5.737 0 01-.054-.706c.008-.197.045-.377.11-.537.05-.17.147-.325.29-.465.142-.14.338-.26.587-.36.284-.108.669-.23 1.155-.368a31.687 31.687 0 011.67-.455 52.72 52.72 0 011.942-.476 55.949 55.949 0 011.915-.433c.305-.063.641-.126 1.008-.19a7.895 7.895 0 011.072-.148c.348-.035.6.023.753.175.166.15.252.42.26.81.002.306-.022.636-.072.989a5.553 5.553 0 01-.233 1.004 2.912 2.912 0 01-.347.807c-.129.21-.269.332-.422.363zm6.24.841c-.716.148-1.336.203-1.859.164-.52-.027-.916-.135-1.188-.324-.272-.189-.406-.424-.403-.707a.869.869 0 01.134-.505c.107-.133.273-.222.496-.268a.872.872 0 01.406.008c.13.034.278.07.445.11.17.05.396.077.679.08.294 0 .67-.047 1.129-.142.564-.117 1.008-.337 1.333-.662.325-.324.553-.733.684-1.226a5.855 5.855 0 00.208-1.66c0-.356-.023-.7-.067-1.034-.033-.337-.07-.696-.113-1.08a54.339 54.339 0 01-.13-1.333 26.107 26.107 0 01-.085-1.839l.652.398c-.209.889-.447 1.63-.716 2.225-.272.584-.555 1.053-.849 1.407-.296.344-.592.601-.888.772a2.906 2.906 0 01-.8.313c-1.021.211-1.82-.065-2.395-.828-.577-.775-.872-2.142-.885-4.1-.01-.819.02-1.444.09-1.875.082-.433.197-.739.344-.916a.885.885 0 01.503-.325.626.626 0 01.452.054c.123.06.205.19.246.39.053.197.068.476.044.836-.035.78-.038 1.503-.01 2.171.026.657.094 1.224.205 1.704.112.48.266.84.463 1.08.194.23.45.312.768.246.493-.102.923-.454 1.288-1.057.363-.614.66-1.399.892-2.353.24-.97.418-2.035.533-3.199.038-.35.098-.59.182-.717.082-.14.234-.233.457-.279a.692.692 0 01.474.068c.163.076.284.247.363.513.09.25.11.614.06 1.09a19.27 19.27 0 00-.073 1.688c.015.487.05.952.104 1.394.053.43.113.87.182 1.322.078.438.143.927.194 1.468.048.529.078 1.148.09 1.856.01.819-.078 1.523-.262 2.113-.182.6-.434 1.1-.756 1.498a3.52 3.52 0 01-1.166.94c-.44.238-.925.412-1.454.521zm9.932-6.668c-.729.15-1.36.177-1.895.08-.526-.113-.956-.324-1.29-.635a3.085 3.085 0 01-.763-1.202 5.275 5.275 0 01-.248-1.64c.01-.602.115-1.224.313-1.866a7.469 7.469 0 01.884-1.855 6.113 6.113 0 011.403-1.485c.55-.42 1.16-.7 1.83-.839.622-.128 1.154-.134 1.595-.017.453.115.796.35 1.029.706.244.354.369.837.373 1.449.005.5-.1.97-.316 1.407a3.87 3.87 0 01-.882 1.156 5.895 5.895 0 01-1.307.877 6.96 6.96 0 01-1.617.537c-.799.165-1.353.182-1.662.05-.298-.135-.447-.324-.449-.569-.005-.146.027-.257.097-.332.068-.088.19-.15.366-.186a1.86 1.86 0 01.473-.025c.195-.003.475-.043.84-.118a4.883 4.883 0 001.534-.575c.448-.264.796-.57 1.043-.915a2 2 0 00.374-1.124c-.003-.368-.105-.622-.306-.765-.189-.144-.512-.17-.97-.074a2.981 2.981 0 00-1.257.59c-.37.285-.7.642-.992 1.07-.28.425-.495.893-.647 1.402a5.037 5.037 0 00-.212 1.551c.005.44.08.83.223 1.167.14.326.375.572.703.737.338.15.777.17 1.318.058.61-.126 1.118-.311 1.52-.554.413-.257.75-.522 1.012-.797s.483-.51.663-.707c.18-.197.352-.312.517-.346.2-.041.356.006.47.142.123.121.186.305.187.55.002.244-.106.524-.323.838-.207.3-.5.606-.876.917a6.72 6.72 0 01-1.262.83 6.158 6.158 0 01-1.493.512zm7.027-1.436c-.282.059-.528-.062-.737-.362-.209-.3-.317-.792-.324-1.477-.007-.33.005-.834.036-1.515a12.8 12.8 0 01.32-2.272c.215-.976.428-1.755.638-2.337.208-.595.44-1.041.697-1.34.257-.298.544-.48.861-.545a.644.644 0 01.626.183c.183.17.332.39.45.66.117.27.222.543.316.817.124.367.27.772.435 1.215.177.442.361.888.552 1.338.203.448.413.87.63 1.267.228.394.461.72.698.976l-.605.273c.202-.74.428-1.486.677-2.236.25-.75.505-1.47.766-2.162a40.48 40.48 0 01.754-1.865c.271-.583.514-1.007.729-1.272.227-.268.445-.423.657-.467a.888.888 0 01.445.018c.141.032.268.08.379.142.156.103.288.24.398.414.11.174.18.453.21.84.07.867.157 1.645.263 2.334.115.675.226 1.24.332 1.696.18.808.372 1.443.578 1.903.217.457.322.76.316.908a.541.541 0 01-.17.421.743.743 0 01-.443.258c-.282.058-.545-.029-.789-.26-.232-.234-.42-.575-.561-1.023-.135-.414-.28-.941-.438-1.583a28.995 28.995 0 01-.395-2.179 33.37 33.37 0 01-.236-2.561l.486-.23c-.197.47-.417 1.006-.66 1.608-.234.588-.475 1.2-.723 1.84a94.492 94.492 0 00-.676 1.886 31.65 31.65 0 00-.521 1.744c-.083.25-.2.458-.349.624a.933.933 0 01-.541.314c-.283.058-.53.042-.746-.048a1.892 1.892 0 01-.575-.47 6.605 6.605 0 01-.485-.744c-.08-.155-.193-.37-.336-.648a24.899 24.899 0 01-.935-2.122 25.177 25.177 0 01-.435-1.215c-.135-.413-.24-.802-.315-1.167l.5-.25a20.14 20.14 0 00-.708 1.911c-.18.613-.315 1.235-.404 1.867a15.66 15.66 0 00-.125 1.974c0 .478.013.892.037 1.242.035.348.053.614.054.798-.005.21-.053.396-.14.562-.09.165-.245.27-.468.317zm16.69-3.49c-.87.18-1.622.158-2.257-.066a2.88 2.88 0 01-1.462-1.205c-.34-.579-.512-1.29-.515-2.136a5.936 5.936 0 01.36-2.078 6.34 6.34 0 011.054-1.835A6.71 6.71 0 0168.4 2.801a5.656 5.656 0 011.915-.782 2.19 2.19 0 01.84-.027c.252.033.45.127.591.282.152.14.224.34.216.598 0 .233-.052.428-.155.584a.672.672 0 01-.422.271.549.549 0 01-.314-.008 4.032 4.032 0 00-.258-.094c-.08-.032-.209-.03-.385.006a3.776 3.776 0 00-1.78.901c-.52.451-.93.99-1.229 1.615a4.376 4.376 0 00-.44 1.874c.02.51.121.937.302 1.28.19.327.46.56.806.696.359.134.767.154 1.226.06.517-.108.916-.252 1.197-.432.279-.193.49-.384.635-.573.157-.191.282-.358.375-.5a.546.546 0 01.365-.278c.223-.046.387-.025.491.064.116.086.177.264.184.532a2.05 2.05 0 01-.384 1.164c-.257.36-.61.671-1.057.935a4.71 4.71 0 01-1.482.564zm11.656-2.375a.73.73 0 01-.775-.28c-.19-.267-.335-.611-.434-1.032a17.306 17.306 0 01-.132-.726 10.53 10.53 0 01-.101-.843 48.808 48.808 0 00-.037-.801l.012-.83c.017-.334.032-.674.046-1.02.024-.36.042-.69.054-.986.021-.31.034-.546.037-.706-.008-.158-.066-.262-.175-.313-.11-.063-.284-.07-.519-.021a6.05 6.05 0 00-.61.163c-.218.07-.451.154-.7.255a5.62 5.62 0 00-1.487.896c-.408.341-.608.677-.601 1.006-.003.283.078.523.241.722.173.185.461.303.864.355.415.049.986-.002 1.715-.153.258-.053.516-.113.772-.178.256-.065.499-.134.729-.206.24-.086.44-.152.602-.198a3.07 3.07 0 01.31-.101 4.45 4.45 0 01.752-.1c.207-.006.309.101.305.322.014.243-.077.457-.27.645-.183.184-.445.343-.785.474-.328.13-.722.242-1.18.337l-1.816.375a4.896 4.896 0 01-1.828.048c-.573-.103-1.04-.318-1.402-.648-.35-.332-.533-.766-.545-1.302.004-.332.089-.693.254-1.082.173-.404.458-.806.853-1.206.407-.403.967-.776 1.68-1.12a9.2 9.2 0 011.302-.545c.357-.11.718-.204 1.082-.279.459-.095.83-.104 1.116-.029.285.076.498.216.638.42.152.201.229.455.23.76.005.257-.01.573-.042.947-.035.363-.068.737-.099 1.123-.02.372-.037.707-.05 1.003 0 .295.01.611.031.95.02.327.048.645.088.956.04.31.083.577.129.8.053.259.116.534.189.825.082.277.122.471.12.582a.705.705 0 01-.141.47.673.673 0 01-.422.271zm-6.209 1.267c-.211.043-.39.007-.537-.11a.667.667 0 01-.211-.49c.008-.136.07-.283.184-.442.112-.17.315-.371.61-.604a9.457 9.457 0 001.449-1.44A21.97 21.97 0 0077.96 5.49l1.242.405c-.31.518-.656 1.037-1.039 1.557-.373.506-.753.977-1.141 1.412a9.354 9.354 0 01-1.066 1.067c-.335.277-.626.441-.872.493zM7.818 40.716c-.964.2-1.8.152-2.51-.142a3.326 3.326 0 01-1.624-1.448c-.374-.682-.569-1.506-.585-2.47a5.016 5.016 0 01.313-1.866 5.962 5.962 0 01.83-1.496c.34-.426.7-.763 1.077-1.013.375-.261.71-.422 1.003-.483a.829.829 0 01.328-.013.4.4 0 01.248.133c.074.058.112.154.115.288a2.2 2.2 0 01-.147.71c-.09.216-.296.436-.617.661a5.057 5.057 0 00-.936.893 2.971 2.971 0 00-.517.97 3.32 3.32 0 00-.14 1.188c.009.99.279 1.731.81 2.222.527.479 1.214.63 2.06.456.823-.17 1.479-.613 1.968-1.327.5-.728.74-1.605.724-2.63.001-.945-.204-1.638-.614-2.08-.412-.454-.971-.608-1.676-.462-.364.076-.661.21-.89.405a6.578 6.578 0 00-.695.732 5.4 5.4 0 00-.412.582c-.1.167-.195.303-.284.408a.614.614 0 01-.348.182.502.502 0 01-.42-.078c-.107-.101-.162-.28-.166-.536-.01-.28.069-.584.234-.912a4.53 4.53 0 01.685-.95 4.54 4.54 0 01.973-.809 3.177 3.177 0 011.098-.466c.846-.175 1.575-.117 2.186.173.61.278 1.08.744 1.411 1.399.33.642.492 1.43.489 2.362.018.915-.14 1.756-.47 2.524a5.112 5.112 0 01-1.41 1.89 4.632 4.632 0 01-2.091 1.003zm8.249-4.685c-.447.093-.838.07-1.173-.07a1.805 1.805 0 01-.823-.693 3.004 3.004 0 01-.403-1.148 5.644 5.644 0 01-.07-1.401c.035-.485.112-.942.231-1.371a4.28 4.28 0 01.49-1.095c.197-.297.418-.472.665-.523a.607.607 0 01.314.009.47.47 0 01.255.167.546.546 0 01.119.307c.01.108-.015.285-.074.53-.05.23-.116.508-.196.83a6.63 6.63 0 00-.18.994c-.04.339-.033.674.024 1.006.043.211.099.39.166.535a.556.556 0 00.26.277c.12.049.262.056.426.022a2.782 2.782 0 001.105-.523c.361-.27.69-.608.986-1.012.308-.407.568-.835.782-1.283.211-.46.358-.907.44-1.341l.516 1.786a10.77 10.77 0 01-1.029 1.868 5.88 5.88 0 01-1.307 1.41 3.695 3.695 0 01-1.524.72zm4.349 2.097c-.259.053-.462-.01-.609-.187a2.672 2.672 0 01-.386-.71c-.07-.219-.134-.5-.192-.843a15.654 15.654 0 01-.136-2.343 36.58 36.58 0 01.12-2.084c.033-.374.07-.725.114-1.052.04-.34.07-.61.09-.81.04-.4.108-.72.205-.961.109-.243.27-.386.48-.43.2-.042.396.047.588.264.192.218.286.523.282.916.006.268-.02.642-.081 1.12-.063.466-.122.95-.178 1.452a13.71 13.71 0 00-.069 1.264c-.003.577.014 1.075.052 1.496.039.422.09.79.156 1.108.037.237.077.431.12.582.044.15.066.286.067.409a.894.894 0 01-.156.491c-.088.166-.244.271-.467.318zm7.006-1.505c-.976.202-1.77.182-2.383-.058a2.554 2.554 0 01-1.36-1.245c-.294-.588-.445-1.286-.453-2.093.01-.603.115-1.225.313-1.867a7.465 7.465 0 01.884-1.855 6.112 6.112 0 011.403-1.485c.55-.42 1.16-.7 1.83-.838.928-.192 1.656-.11 2.183.247.539.354.81.984.814 1.89a3.036 3.036 0 01-.525 1.818c-.368.53-.869.982-1.502 1.358-.62.374-1.32.64-2.095.801-.799.166-1.353.182-1.662.05-.298-.134-.447-.324-.449-.569-.005-.146.027-.256.097-.332.068-.088.19-.15.366-.186a1.86 1.86 0 01.473-.024c.195-.004.475-.044.84-.119a4.883 4.883 0 001.535-.575c.447-.264.795-.569 1.042-.914.245-.357.37-.732.374-1.125-.003-.367-.105-.622-.306-.764-.189-.145-.512-.17-.97-.075-.6.124-1.134.418-1.601.883a5.232 5.232 0 00-1.122 1.684 5.121 5.121 0 00-.385 2.046c.005.44.08.83.223 1.167.14.326.375.572.703.737.338.15.777.17 1.318.058.61-.126 1.118-.31 1.52-.553.413-.257.75-.523 1.012-.798s.483-.51.663-.707c.18-.196.352-.311.517-.346.2-.04.356.006.47.142.123.122.186.305.187.55.002.244-.106.524-.323.838-.207.3-.5.606-.876.917a6.72 6.72 0 01-1.262.83 6.154 6.154 0 01-1.493.512zm10.195-2.201c-.564.116-1.073.142-1.528.077-.454-.066-.819-.198-1.093-.399-.274-.2-.416-.44-.425-.72a.883.883 0 01.117-.411.482.482 0 01.338-.235.599.599 0 01.335.022l.379.142c.146.056.35.093.611.113.26.008.6-.032 1.023-.12.658-.136 1.195-.413 1.611-.83.426-.43.628-1.054.606-1.871.003-.577-.094-1.077-.293-1.502a2.73 2.73 0 00-.79-1.068 2.61 2.61 0 00-1.2-.56 3.799 3.799 0 00-1.5.034 4.14 4.14 0 00-.811.26c-.27.117-.51.197-.722.241a.728.728 0 01-.37-.015.516.516 0 01-.27-.238.733.733 0 01-.091-.35c.005-.331.166-.616.485-.853.328-.252.862-.454 1.602-.607.787-.163 1.514-.173 2.181-.029a4.051 4.051 0 011.771.828c.5.4.89.925 1.172 1.578.291.638.44 1.385.445 2.242a4.216 4.216 0 01-.265 1.562c-.17.477-.414.9-.729 1.272-.318.36-.696.665-1.134.915a5.3 5.3 0 01-1.455.522zm-3.208 5.37a.666.666 0 01-.392-.03.467.467 0 01-.253-.242 1.023 1.023 0 01-.094-.458 1.515 1.515 0 01.091-.534c.053-.158.11-.354.173-.587a6.72 6.72 0 00.174-.845 8.97 8.97 0 00.076-1.32 13.982 13.982 0 00-.25-2.633c-.166-.86-.34-1.73-.522-2.612a16.256 16.256 0 01-.29-2.734c-.002-.306.053-.544.165-.714a.762.762 0 01.499-.342.603.603 0 01.498.099.93.93 0 01.367.438c.088.19.128.415.12.674.005.734.056 1.422.152 2.064.105.628.22 1.241.344 1.84.136.598.254 1.198.354 1.802.1.604.152 1.237.154 1.898.013.598-.008 1.148-.063 1.65a6.572 6.572 0 01-.263 1.304c-.109.365-.25.658-.425.878a1.009 1.009 0 01-.615.403zm12.912-7.286c-.729.15-1.36.177-1.896.08-.525-.112-.955-.324-1.289-.634a3.085 3.085 0 01-.763-1.203 5.275 5.275 0 01-.248-1.64c.01-.602.115-1.224.313-1.866a7.467 7.467 0 01.884-1.855 6.111 6.111 0 011.402-1.485c.55-.42 1.16-.7 1.83-.838.623-.13 1.155-.135 1.596-.018.453.115.795.35 1.029.706.244.354.369.837.373 1.449.005.501-.1.97-.316 1.407-.206.422-.5.808-.882 1.157a5.891 5.891 0 01-1.307.877 6.96 6.96 0 01-1.617.536c-.799.166-1.353.182-1.662.05-.298-.134-.447-.324-.449-.569-.005-.146.027-.257.097-.332.068-.088.19-.15.366-.186a1.85 1.85 0 01.473-.024c.195-.004.475-.044.839-.12a4.881 4.881 0 001.535-.574c.448-.264.796-.569 1.043-.914a2 2 0 00.373-1.125c-.002-.367-.104-.622-.305-.764-.189-.145-.513-.17-.97-.075a2.982 2.982 0 00-1.257.59c-.37.286-.7.642-.992 1.07a5.29 5.29 0 00-.86 2.953c.006.44.08.83.223 1.167.142.326.376.572.704.737.338.15.777.17 1.317.058.611-.126 1.119-.31 1.522-.553.412-.257.75-.523 1.011-.798.262-.275.483-.51.663-.707.18-.196.352-.312.516-.346.2-.041.357.006.47.142.124.122.186.305.188.55.002.244-.106.524-.323.838-.207.3-.5.606-.876.917a6.715 6.715 0 01-1.262.83 6.154 6.154 0 01-1.493.512zm6.431-2.36c.08-.384.192-.818.337-1.301.143-.496.3-1.012.47-1.55a76.7 76.7 0 01.554-1.585c.197-.53.386-1.011.566-1.44a27.87 27.87 0 01.742-1.57c.253-.493.506-.9.758-1.222.261-.336.504-.527.727-.573.235-.049.461.008.679.172.229.16.462.456.697.885.163.31.349.706.559 1.19.21.483.424 1.014.642 1.594.216.568.415 1.146.598 1.733.183.587.332 1.132.449 1.635l-1.522.462a21.912 21.912 0 00-.503-1.808 24.738 24.738 0 00-.648-1.888 20.74 20.74 0 00-.67-1.552c-.215-.446-.404-.738-.568-.875l.659-.284a20.96 20.96 0 00-.907 1.659 17.67 17.67 0 00-.802 1.985 96.521 96.521 0 00-.488 1.462c-.15.46-.285.904-.405 1.333-.11.415-.218.842-.323 1.28l-1.601.258zm8.329 1.788c-.235.048-.434.004-.598-.134a.629.629 0 01-.236-.521c-.006-.146.027-.373.098-.682.073-.297.144-.636.212-1.018s.098-.768.091-1.159l.82.768c-.169.01-.432.04-.79.09a20.06 20.06 0 00-1.311.235 110.329 110.329 0 00-3.828.865c-.618.152-1.204.31-1.759.474-.554.164-1.059.33-1.514.497l.56-.759a13.168 13.168 0 00.132 1.26c.036.237.067.445.092.624l.076.37c.03.202-.009.37-.116.502a.72.72 0 01-.457.278c-.282.059-.5-.013-.651-.214a1.877 1.877 0 01-.323-.76 5.382 5.382 0 01-.132-.727 5.717 5.717 0 01-.054-.706 1.6 1.6 0 01.11-.537c.05-.17.147-.324.29-.464.142-.14.338-.26.586-.36.284-.108.67-.231 1.156-.368a31.72 31.72 0 011.67-.456 52.724 52.724 0 011.942-.476 56.121 56.121 0 011.914-.432c.306-.064.642-.127 1.008-.19a7.89 7.89 0 011.073-.149c.348-.035.599.023.753.175.166.15.252.42.26.81a6.93 6.93 0 01-.072.99c-.05.353-.127.687-.233 1.003a2.912 2.912 0 01-.348.808c-.128.21-.268.33-.421.363zm3.72-3.233a.74.74 0 01-.728-.236c-.204-.215-.368-.536-.494-.964-.116-.441-.177-.974-.183-1.598.012-.652.073-1.154.184-1.508.12-.368.285-.635.496-.801.115-.098.288-.176.52-.237a7.62 7.62 0 01.734-.188 26.426 26.426 0 002.513-.649 13.15 13.15 0 002.376-1.043l.568 1.15a10.28 10.28 0 01-1.864.938c-.681.264-1.38.494-2.1.692-.71.183-1.405.346-2.086.487l-1.056.052c.01-.724.018-1.486.024-2.284.007-.798.007-1.508 0-2.132-.011-.292.035-.54.14-.746.105-.205.245-.326.421-.363.294-.06.536.012.725.218.188.194.28.549.276 1.064.006.269 0 .595-.019.978-.018.384-.04.787-.062 1.208-.012.42-.027.82-.045 1.204-.01.37-.013.677-.012.922 0 .71.02 1.343.062 1.898.05.541.08.952.09 1.232a.753.753 0 01-.146.453.494.494 0 01-.333.252zm6.082-1.259c-.294.061-.54-.066-.74-.38-.188-.316-.337-.77-.447-1.36-.1-.603-.155-1.279-.162-2.024a52.49 52.49 0 01.063-2.807c.05-.71.11-1.273.183-1.692.04-.279.11-.532.21-.76.1-.23.25-.365.45-.406.258-.054.465.032.622.257.166.21.25.494.25.849.005.44-.03.925-.104 1.455-.062.528-.087 1.09-.073 1.688.004.734.037 1.395.097 1.983.07.574.14 1.056.208 1.446.068.39.098.684.09.882a.84.84 0 01-.176.57.788.788 0 01-.471.3zm6.042-1.231c-.553.114-1.033.072-1.441-.125-.409-.197-.726-.518-.953-.96-.229-.456-.35-1.013-.364-1.672-.01-.819-.019-1.601-.026-2.347-.01-.758-.021-1.405-.034-1.942V18.1a1.12 1.12 0 01.06-.417.997.997 0 01.242-.344.724.724 0 01.348-.182c.27-.056.498.038.683.281.197.242.303.544.317.91-.002.343-.02.757-.055 1.242-.023.483-.027.937-.012 1.363l-.025.593c0 .233-.006.473-.016.72 0 .233-.002.436-.003.608 0 .65.1 1.137.303 1.463.202.325.503.447.902.364.224-.046.458-.156.704-.33a4.06 4.06 0 00.716-.625c.217-.253.39-.51.521-.77.13-.26.174-.49.133-.689-.051-.308-.185-.538-.4-.69-.203-.153-.476-.256-.817-.308a3.979 3.979 0 00-.735-.087 15.27 15.27 0 00-.94-.008 6.837 6.837 0 00-.945.049l.063-1.208c.408-.158.863-.356 1.365-.595a28.46 28.46 0 001.58-.805c.54-.295 1.054-.592 1.544-.889.555-.335 1.04-.662 1.451-.98.424-.321.785-.592 1.082-.812.307-.236.566-.375.778-.419.364-.075.666-.009.905.2.248.193.372.498.373.915-.005.393-.01.78-.017 1.161.002.367.001.747-.003 1.14a56.358 56.358 0 00.09 2.39c.028.435.068.831.117 1.188.049.236.096.495.143.78.056.27.085.472.089.606a.818.818 0 01-.086.386.655.655 0 01-.238.27.727.727 0 01-.335.16c-.246.052-.459-.027-.637-.235a2.26 2.26 0 01-.376-.841 15.096 15.096 0 01-.259-1.785 25.73 25.73 0 01-.093-1.874c.005-.27.004-.57-.003-.9.005-.332.011-.658.018-.978.008-.32.01-.603.009-.847.008-.26.012-.444.014-.555l.429.298c-.239.208-.556.452-.952.73-.386.263-.83.545-1.332.845-.504.288-1.032.581-1.583.879-.551.298-1.11.585-1.678.862-.558.262-1.1.49-1.623.685l.045-.671c.092-.031.23-.072.416-.123.195-.065.421-.124.68-.177.14-.03.34-.046.596-.05.268-.007.549.015.84.065.305.047.6.14.885.276.295.123.541.305.738.546.209.239.345.541.409.908.07.463.003.937-.203 1.42a4.745 4.745 0 01-.842 1.351 6.21 6.21 0 01-1.228 1.082c-.455.29-.9.48-1.334.57zm11.056-2.306c-.282.058-.527-.063-.736-.363-.21-.3-.317-.792-.324-1.477-.007-.329.005-.834.035-1.514a12.8 12.8 0 01.32-2.272c.216-.976.428-1.755.638-2.338.208-.594.44-1.04.698-1.339.257-.298.544-.48.86-.546a.644.644 0 01.627.183c.182.17.332.391.45.66.116.27.221.543.315.818.125.366.27.771.435 1.215.177.441.362.887.553 1.338.203.448.413.87.63 1.266.228.394.46.72.698.977l-.605.272c.202-.74.427-1.485.677-2.235.249-.75.504-1.47.765-2.162a40.48 40.48 0 01.754-1.866c.272-.583.515-1.007.73-1.272.226-.267.445-.423.657-.467a.884.884 0 01.444.019c.142.032.268.08.38.142.155.102.288.24.397.414.11.173.18.453.211.839.07.868.156 1.646.262 2.335.115.674.226 1.24.333 1.696.18.808.372 1.442.577 1.902.217.458.323.76.317.909a.544.544 0 01-.17.421.747.747 0 01-.444.257c-.282.058-.545-.028-.789-.26-.232-.233-.419-.574-.56-1.023-.135-.413-.28-.94-.438-1.582a28.596 28.596 0 01-.396-2.18 33.727 33.727 0 01-.236-2.56l.486-.23c-.197.47-.417 1.006-.66 1.607a211.32 211.32 0 00-.722 1.84 93.195 93.195 0 00-.676 1.887c-.203.618-.377 1.2-.522 1.744-.083.25-.199.458-.348.623a.933.933 0 01-.542.315c-.282.058-.53.042-.745-.048a1.892 1.892 0 01-.575-.47 6.615 6.615 0 01-.485-.745l-.336-.647a24.87 24.87 0 01-.936-2.123 25.136 25.136 0 01-.435-1.215c-.135-.413-.24-.802-.315-1.166l.5-.25c-.28.658-.516 1.295-.708 1.91-.18.614-.314 1.236-.404 1.867-.08.617-.122 1.275-.124 1.974 0 .478.012.892.036 1.243.035.348.053.614.055.797-.006.21-.053.397-.141.562-.089.166-.244.271-.468.318zM7.9 57.02a.74.74 0 01-.729-.235c-.204-.215-.368-.537-.493-.964-.116-.442-.178-.974-.184-1.598.012-.652.074-1.155.184-1.509.12-.368.285-.635.496-.8.115-.098.288-.177.521-.237a7.62 7.62 0 01.733-.189 26.405 26.405 0 002.513-.648 13.22 13.22 0 002.376-1.043l.569 1.15c-.563.362-1.184.674-1.865.938-.68.263-1.38.494-2.1.691-.71.184-1.405.346-2.086.487l-1.055.053c.009-.725.017-1.486.023-2.284.007-.798.007-1.509 0-2.132-.011-.292.036-.54.14-.746.105-.206.245-.327.421-.363.294-.06.536.012.726.218.187.194.279.549.275 1.064.006.268 0 .594-.018.978l-.063 1.208c-.011.419-.026.82-.045 1.204-.01.37-.013.676-.011.921 0 .71.02 1.344.062 1.899.05.54.08.951.089 1.231a.753.753 0 01-.145.453.495.495 0 01-.334.253zm6.081-1.258c-.294.06-.54-.066-.74-.38-.188-.316-.337-.77-.447-1.36-.1-.604-.154-1.279-.162-2.025.002-1.177.023-2.112.063-2.807.05-.709.11-1.273.183-1.692.04-.278.11-.531.21-.76.1-.23.25-.364.45-.406.258-.053.466.032.622.257.166.211.25.494.25.85.005.44-.03.925-.104 1.455-.062.527-.087 1.09-.073 1.687.005.735.037 1.396.098 1.984.07.574.138 1.056.207 1.446.068.39.098.684.09.882a.84.84 0 01-.176.57.788.788 0 01-.47.299zm5.335-1.122c-.54.111-1.008.074-1.402-.115-.383-.19-.686-.501-.91-.933-.213-.434-.322-.962-.328-1.586a6.581 6.581 0 01.231-1.813 8.809 8.809 0 01.74-1.844 8.606 8.606 0 011.112-1.645 6.8 6.8 0 011.428-1.27 4.848 4.848 0 011.658-.692c.27-.056.496-.03.678.08.182.11.273.311.273.606a.683.683 0 01-.118.41c-.086.116-.227.206-.421.271a5.598 5.598 0 00-2.11 1.355 6.855 6.855 0 00-1.39 2.071 5.766 5.766 0 00-.487 2.27c0 .355.03.674.087.956.056.27.188.61.396 1.021l-.922-1.078c.268.227.492.364.674.413.193.045.448.035.765-.03.752-.156 1.417-.796 1.993-1.92.576-1.124 1.002-2.676 1.279-4.657.036-.24.112-.434.229-.58a.811.811 0 01.488-.304c.27-.056.5.019.69.225.2.191.323.466.373.823.106.75.221 1.425.345 2.024.133.585.312 1.124.537 1.617.236.49.57.979 1.002 1.466a.683.683 0 01.172.387.882.882 0 01-.033.466.983.983 0 01-.226.414.734.734 0 01-.398.211.768.768 0 01-.445-.018.933.933 0 01-.309-.248 8.29 8.29 0 01-.64-.879c-.2-.314-.387-.68-.559-1.097a9.233 9.233 0 01-.413-1.551 20.56 20.56 0 01-.265-2.17l.631-.148c-.144 1.255-.368 2.337-.67 3.245-.305.896-.665 1.645-1.08 2.245-.405.587-.837 1.044-1.297 1.371-.459.328-.912.538-1.358.63zm9.8-2.028c-.281.058-.52-.027-.714-.257-.183-.231-.304-.58-.364-1.046a8.568 8.568 0 01-.065-.85 56.506 56.506 0 01-.033-1.225l-.03-1.39c.001-.466-.002-.895-.009-1.285.005-.393.007-.706.008-.94-.009-.635.057-1.114.199-1.438.15-.337.42-.576.807-.718a12.4 12.4 0 011.173-.371 15.55 15.55 0 012.736-.548c.5-.067.884-.079 1.15-.036a.57.57 0 01.48.544c.002.245-.11.446-.334.602a2.033 2.033 0 01-.76.323 5.896 5.896 0 01-.678.104 10.03 10.03 0 00-.663.082c-.24.025-.554.077-.941.158-.47.097-.865.203-1.184.318-.32.115-.675.262-1.067.441l.747-.742A30.57 30.57 0 0029.44 46a49.929 49.929 0 00-.02 2.21c.001.6.02 1.166.057 1.698.034.52.07.96.107 1.32.038.36.056.595.054.705.004.196-.045.346-.145.453a.644.644 0 01-.376.225zm10.71-2.308c-.565.117-1.074.143-1.529.078-.454-.066-.819-.198-1.093-.4-.275-.2-.416-.44-.425-.72a.881.881 0 01.117-.41.481.481 0 01.337-.235.599.599 0 01.336.022l.379.142c.146.056.35.093.611.113.26.007.6-.032 1.023-.12.658-.136 1.195-.413 1.611-.83.426-.43.628-1.055.606-1.871.003-.577-.094-1.077-.293-1.502a2.73 2.73 0 00-.79-1.068 2.609 2.609 0 00-1.2-.56c-.46-.09-.96-.078-1.5.034a4.15 4.15 0 00-.811.26c-.27.117-.51.197-.722.241a.73.73 0 01-.37-.015.517.517 0 01-.27-.238.733.733 0 01-.091-.35c.005-.331.166-.616.485-.853.328-.252.861-.454 1.602-.608.787-.162 1.514-.172 2.181-.028a4.051 4.051 0 011.77.828c.5.4.89.925 1.173 1.578.291.638.44 1.385.445 2.242a4.217 4.217 0 01-.265 1.562c-.17.477-.414.9-.73 1.272-.317.36-.695.665-1.133.915a5.295 5.295 0 01-1.455.521zm-3.21 5.37a.666.666 0 01-.392-.03.467.467 0 01-.252-.241 1.021 1.021 0 01-.095-.459c0-.183.03-.36.092-.533.053-.158.11-.354.173-.587.064-.222.122-.504.174-.845.052-.342.078-.782.076-1.32a13.983 13.983 0 00-.25-2.633c-.166-.86-.34-1.73-.522-2.612a16.264 16.264 0 01-.29-2.734c-.002-.306.053-.544.165-.714a.762.762 0 01.498-.343.603.603 0 01.499.1.93.93 0 01.367.438c.088.19.128.415.12.674.005.734.056 1.422.152 2.064.105.628.22 1.241.344 1.84.136.597.254 1.198.354 1.802.1.604.152 1.237.154 1.898.013.598-.008 1.148-.063 1.65a6.569 6.569 0 01-.264 1.304c-.108.365-.25.658-.424.878a1.008 1.008 0 01-.615.403zm11.343-6.96c-.54.111-1.008.073-1.402-.115-.382-.19-.686-.501-.91-.933-.212-.434-.322-.963-.328-1.586a6.581 6.581 0 01.231-1.813 8.814 8.814 0 01.74-1.844 8.616 8.616 0 011.112-1.645c.434-.507.91-.93 1.428-1.27a4.848 4.848 0 011.658-.692c.27-.056.497-.03.679.08.182.11.272.311.272.605a.683.683 0 01-.117.41c-.087.117-.227.207-.422.272a5.598 5.598 0 00-2.11 1.355 6.853 6.853 0 00-1.39 2.071 5.768 5.768 0 00-.487 2.27c0 .355.03.674.088.956.056.27.187.61.395 1.02l-.922-1.077c.268.227.492.364.674.412.193.046.448.036.766-.03.752-.155 1.416-.795 1.992-1.92.576-1.123 1.003-2.676 1.279-4.657a1.19 1.19 0 01.23-.58.811.811 0 01.488-.303c.27-.056.5.018.69.224.199.192.323.467.372.824a32.6 32.6 0 00.345 2.024c.134.585.313 1.124.537 1.617.236.49.57.979 1.002 1.465a.683.683 0 01.172.387.88.88 0 01-.032.467.983.983 0 01-.227.414.734.734 0 01-.398.211.768.768 0 01-.444-.018.932.932 0 01-.31-.249 8.29 8.29 0 01-.64-.878 7.06 7.06 0 01-.558-1.098 9.243 9.243 0 01-.413-1.55c-.112-.602-.2-1.325-.265-2.17l.63-.149c-.144 1.256-.367 2.338-.67 3.246-.304.896-.664 1.644-1.08 2.245-.405.586-.837 1.043-1.296 1.371-.46.328-.912.538-1.359.63zm9.05-2.902c.08-.385.193-.818.338-1.302.143-.495.3-1.011.47-1.55.182-.54.367-1.068.554-1.584.197-.531.386-1.011.566-1.44a27.87 27.87 0 01.742-1.57c.253-.493.506-.9.758-1.223.261-.336.503-.527.727-.573.235-.048.461.009.679.172.229.161.462.456.697.885.163.31.349.706.559 1.19a34.122 34.122 0 011.24 3.328c.183.587.332 1.132.448 1.634l-1.521.462a21.991 21.991 0 00-.503-1.807 24.738 24.738 0 00-.648-1.888 20.7 20.7 0 00-.67-1.552c-.215-.446-.404-.738-.568-.876l.659-.283c-.294.477-.596 1.03-.907 1.658a17.69 17.69 0 00-.802 1.986 105.18 105.18 0 00-.489 1.461c-.15.46-.284.905-.404 1.334-.11.415-.218.841-.323 1.28l-1.601.258zm8.33 1.787c-.235.049-.434.004-.598-.134a.629.629 0 01-.236-.52c-.006-.146.027-.374.098-.682.073-.298.144-.637.212-1.019.068-.381.098-.767.091-1.158l.82.767a12.46 12.46 0 00-.79.09c-.345.047-.782.126-1.311.235a110.336 110.336 0 00-3.828.866c-.618.152-1.204.31-1.759.474-.554.163-1.059.33-1.514.497l.56-.76a12.952 12.952 0 00.132 1.26c.036.238.067.446.092.624l.076.37c.03.203-.009.37-.116.503a.72.72 0 01-.457.278c-.282.058-.5-.013-.651-.215a1.876 1.876 0 01-.323-.76 5.397 5.397 0 01-.132-.726 5.734 5.734 0 01-.054-.706 1.6 1.6 0 01.11-.537c.05-.17.146-.325.29-.465.142-.14.337-.26.586-.36.284-.108.67-.23 1.156-.368a31.666 31.666 0 011.67-.456 52.668 52.668 0 011.942-.475 55.99 55.99 0 011.914-.433 31.75 31.75 0 011.008-.19 7.894 7.894 0 011.073-.148c.348-.036.599.023.753.175.165.15.252.42.26.81a6.83 6.83 0 01-.072.989c-.05.353-.127.688-.233 1.004a2.913 2.913 0 01-.348.807c-.128.21-.268.331-.421.363zm4.67-3.448c-.54.112-1.007.074-1.401-.114-.383-.19-.686-.502-.91-.933-.213-.434-.322-.963-.328-1.587a6.574 6.574 0 01.231-1.812 8.809 8.809 0 01.74-1.844 8.603 8.603 0 011.112-1.645c.434-.507.91-.93 1.428-1.27a4.85 4.85 0 011.658-.692c.27-.056.496-.03.678.08.182.11.273.31.273.605a.683.683 0 01-.118.41c-.086.116-.227.207-.421.271a5.598 5.598 0 00-2.11 1.356 6.852 6.852 0 00-1.39 2.07 5.765 5.765 0 00-.487 2.27c0 .356.029.674.087.956.056.27.188.611.395 1.022l-.921-1.078c.267.226.492.364.673.412.194.046.449.036.766-.03.752-.155 1.416-.795 1.993-1.92.576-1.123 1.002-2.676 1.279-4.657.036-.24.112-.434.229-.58a.811.811 0 01.488-.304c.27-.056.5.02.69.225.2.192.323.466.373.824.106.75.221 1.424.345 2.024a8.38 8.38 0 00.537 1.617c.236.49.57.978 1.002 1.465a.683.683 0 01.171.387.882.882 0 01-.032.466.984.984 0 01-.227.415.734.734 0 01-.397.21.768.768 0 01-.445-.018.931.931 0 01-.309-.248 8.278 8.278 0 01-.64-.878c-.2-.314-.387-.68-.559-1.098a9.231 9.231 0 01-.413-1.55c-.112-.602-.2-1.325-.265-2.17l.631-.149c-.144 1.255-.368 2.337-.67 3.245-.305.897-.665 1.645-1.08 2.246-.405.586-.838 1.043-1.297 1.37-.459.329-.912.539-1.358.631zm9.596-1.967c-.282.059-.528-.062-.737-.362-.21-.3-.317-.792-.324-1.477l.015-.904c.007-.381.034-.815.08-1.303.055-.502.142-1.028.261-1.58.215-.975.427-1.755.638-2.337.208-.595.44-1.041.697-1.34.257-.297.544-.48.861-.545a.644.644 0 01.626.183c.182.17.332.39.45.66.116.27.222.543.315.817.125.367.27.772.436 1.215.177.442.36.888.552 1.338.203.449.413.87.63 1.267.228.394.461.72.698.977l-.605.272c.202-.74.428-1.485.677-2.235.25-.75.504-1.471.766-2.163a40.48 40.48 0 01.753-1.865c.272-.583.515-1.007.73-1.272.226-.268.445-.423.657-.467a.886.886 0 01.445.018c.141.032.267.08.378.143.156.102.29.24.398.413.11.174.18.454.21.84.07.867.158 1.646.263 2.335.116.674.226 1.24.333 1.695.18.809.372 1.443.577 1.903.218.457.323.76.317.909a.541.541 0 01-.17.42.743.743 0 01-.443.258c-.282.058-.545-.028-.79-.26-.231-.233-.418-.575-.56-1.023a22.77 22.77 0 01-.438-1.582 29.005 29.005 0 01-.396-2.18 33.323 33.323 0 01-.235-2.56l.485-.23c-.197.47-.417 1.005-.66 1.607-.234.588-.474 1.201-.722 1.84a93.195 93.195 0 00-.676 1.887 31.185 31.185 0 00-.521 1.743c-.083.25-.2.458-.35.624a.933.933 0 01-.54.314c-.283.059-.531.043-.746-.048a1.894 1.894 0 01-.575-.469 6.615 6.615 0 01-.485-.745l-.336-.647a24.87 24.87 0 01-.935-2.123 25.136 25.136 0 01-.436-1.215c-.134-.413-.24-.802-.315-1.166l.5-.25c-.28.658-.516 1.295-.708 1.91a13.413 13.413 0 00-.404 1.867c-.08.617-.122 1.275-.124 1.974 0 .478.013.892.036 1.242.035.349.054.614.055.798-.006.21-.053.397-.141.562-.088.166-.244.271-.468.317zM16.39 71.492c-1.316.272-2.401.417-3.255.435-.845.003-1.503-.125-1.973-.383a2.194 2.194 0 01-1.006-1.133c-.192-.512-.293-1.147-.302-1.905.001-.466.007-1 .017-1.602.01-.603.03-1.22.059-1.85.026-.643.053-1.255.08-1.837.026-.581.054-1.096.084-1.543.03-.447.061-.772.093-.975.02-.372.08-.648.178-.827.107-.194.248-.309.425-.345.2-.042.371-.01.516.095a.884.884 0 01.327.428c.074.181.109.376.103.586.006.207-.008.553-.043 1.038a91.018 91.018 0 00-.112 1.678c-.026.642-.053 1.34-.081 2.093-.02.74-.024 1.488-.014 2.246.004.906.068 1.542.193 1.908.136.364.35.596.64.695.25.083.571.127.964.131.391-.007.837-.044 1.338-.11.51-.082 1.065-.184 1.664-.308a54.29 54.29 0 003.035-.702c.787-.224 1.395-.454 1.824-.69.427-.247.715-.54.866-.877.088-.166.164-.42.228-.764.061-.356.105-.764.133-1.223.04-.461.056-.943.05-1.444a27.498 27.498 0 00-.084-2.096 47.5 47.5 0 00-.182-1.856c-.067-.562-.123-1.04-.168-1.436-.045-.395-.07-.665-.076-.811.01-.125.044-.26.1-.407.067-.148.157-.277.269-.386a.789.789 0 01.397-.211c.2-.042.384.018.552.18.178.147.29.363.336.647.042.2.085.528.13.984.043.445.088.956.134 1.535.058.576.1 1.168.128 1.775.037.592.06 1.145.068 1.658 0 .417-.003.816-.01 1.197-.007.381-.023.746-.05 1.095-.027.337-.055.649-.081.936-.029.275-.07.517-.126.724a2.605 2.605 0 01-.775 1.319c-.39.362-.894.681-1.512.956-.62.263-1.36.502-2.222.717-.848.225-1.801.446-2.859.665zm-.239-.888a25.082 25.082 0 01-.25-2.19 38.48 38.48 0 01-.069-2.817c.006-.504.02-1.033.039-1.589.02-.556.037-1.092.053-1.61l.036-1.423c.021-.433.035-.78.043-1.038a3.619 3.619 0 01.049-.654c.031-.202.089-.367.173-.495a.513.513 0 01.351-.256.603.603 0 01.498.099c.145.105.259.27.343.499.081.216.122.47.121.765.01.696-.01 1.521-.058 2.475a77.52 77.52 0 00-.09 2.941c-.01.958.01 1.849.057 2.672.06.821.134 1.535.223 2.141l-1.519.48zm17.572-2.588c-.353.073-.762.048-1.23-.076a6.548 6.548 0 01-1.433-.623 11.758 11.758 0 01-1.351-.933 6.895 6.895 0 01-1.02-1.02 1.76 1.76 0 01-.335-.465 2.23 2.23 0 01-.116-.472c.016-.101.04-.217.075-.346.035-.13.09-.252.164-.365.102-.217.29-.52.566-.908.275-.387.598-.81.969-1.266.38-.471.779-.915 1.195-1.332a12.25 12.25 0 011.225-1.099c.402-.304.762-.489 1.08-.554a.465.465 0 01.318.026.495.495 0 01.223.193.598.598 0 01.094.274c.042.261-.078.543-.358.846-.28.303-.588.594-.923.871a21.1 21.1 0 00-1.55 1.48c-.442.47-.792.88-1.051 1.228-.247.345-.365.577-.352.697-.004.1.06.233.193.401.133.17.325.356.576.562.262.203.567.403.915.6a9 9 0 001.175.53c.253.094.498.184.736.27.248.071.45.158.606.26.165.089.258.21.277.366a.764.764 0 01-.05.378.71.71 0 01-.249.309.873.873 0 01-.37.168zm-5.874 1.197c-.305.063-.542-.047-.711-.33-.172-.296-.295-.742-.37-1.34a24.359 24.359 0 01-.113-2.237c-.002-.367.003-.754.017-1.162l.077-1.229c.023-.421.03-.827.023-1.218a2.418 2.418 0 00-.005-.293c.002-.11-.003-.22-.013-.328a2.152 2.152 0 01.074-.622c.05-.17.12-.306.209-.41a.577.577 0 01.323-.214c.27-.056.507.023.711.238.213.201.318.529.314.983.002.306-.017.69-.056 1.151-.03.448-.064.908-.1 1.381a16.24 16.24 0 00-.056 1.243c.021.633.052 1.197.093 1.69a21 21 0 00.16 1.218c.051.308.071.524.06.649a.827.827 0 01-.082.403.677.677 0 01-.22.266.668.668 0 01-.335.161zm12.599-2.57c-.964.2-1.8.152-2.511-.142a3.327 3.327 0 01-1.623-1.447c-.374-.683-.569-1.506-.585-2.471a5.017 5.017 0 01.313-1.866 5.965 5.965 0 01.83-1.495c.34-.426.7-.764 1.077-1.014.375-.26.71-.422 1.003-.483a.83.83 0 01.328-.013.4.4 0 01.248.133c.074.058.112.155.115.289-.01.247-.06.484-.147.71-.09.215-.296.435-.617.661a5.056 5.056 0 00-.937.892 2.974 2.974 0 00-.516.97c-.113.343-.16.739-.14 1.188.009.99.279 1.732.809 2.222.528.48 1.215.631 2.061.456.823-.17 1.479-.612 1.968-1.326.499-.728.74-1.605.724-2.631 0-.944-.204-1.637-.614-2.08-.412-.453-.971-.607-1.676-.461-.364.075-.661.21-.89.405a6.574 6.574 0 00-.695.731c-.175.22-.312.414-.413.582-.1.168-.194.304-.283.408a.614.614 0 01-.348.182.502.502 0 01-.42-.078c-.107-.1-.163-.279-.167-.536-.008-.28.07-.584.235-.912.176-.33.405-.647.685-.95.29-.318.614-.587.973-.808a3.177 3.177 0 011.098-.467c.846-.175 1.575-.117 2.186.173.61.278 1.08.745 1.411 1.4.329.642.492 1.43.489 2.361.018.916-.14 1.757-.47 2.524a5.111 5.111 0 01-1.41 1.89 4.635 4.635 0 01-2.091 1.003zm6.283-1.3a.502.502 0 01-.42-.078.748.748 0 01-.24-.355 1.177 1.177 0 01-.091-.533c.003-.22.056-.526.16-.915.112-.403.264-.857.453-1.362.187-.517.386-1.036.597-1.557.23-.55.466-1.096.71-1.636a24.22 24.22 0 01.738-1.495c.237-.453.438-.813.603-1.08.261-.398.523-.703.785-.916a1.96 1.96 0 01.866-.437c.282-.058.496.002.643.18.145.166.277.39.397.671.122.294.249.641.38 1.043.133.401.273.813.422 1.236.146.41.302.807.467 1.19.196.474.371.879.527 1.214.167.334.317.615.45.845.145.227.277.42.396.58.114.135.206.257.278.365a.807.807 0 01.13.359c.019.155.002.312-.05.47a.84.84 0 01-.252.383.704.704 0 01-.38.207c-.224.046-.445-.018-.665-.193-.211-.19-.42-.459-.627-.808-.207-.35-.408-.73-.604-1.143-.115-.258-.265-.601-.452-1.028a65.656 65.656 0 01-.553-1.43 49.274 49.274 0 01-.532-1.507c-.15-.484-.264-.89-.344-1.216l.382.068a12.37 12.37 0 00-.834 1.386c-.282.536-.57 1.129-.864 1.778a42.557 42.557 0 00-.816 2.007c-.25.689-.47 1.372-.661 2.048a8.388 8.388 0 01-.455 1.179c-.127.272-.309.431-.544.48zm12.527-2.592c-.552.115-1.033.073-1.44-.124-.41-.198-.727-.518-.953-.961-.23-.455-.35-1.012-.364-1.671-.01-.82-.02-1.601-.027-2.347-.01-.758-.02-1.405-.034-1.942V54.64a1.12 1.12 0 01.061-.417 1 1 0 01.241-.344.724.724 0 01.349-.182c.27-.056.498.037.683.281.197.241.302.544.317.909-.003.343-.021.758-.056 1.243a17.41 17.41 0 00-.012 1.362l-.024.594c-.001.233-.007.473-.017.72 0 .233-.001.435-.003.607 0 .65.1 1.137.303 1.463.202.326.503.448.903.365.223-.046.458-.156.703-.33.258-.175.497-.384.717-.626.217-.253.39-.51.52-.77.13-.259.175-.489.133-.688-.05-.308-.184-.538-.4-.69-.203-.154-.475-.257-.817-.308a3.972 3.972 0 00-.735-.087c-.296-.012-.61-.015-.939-.008a6.82 6.82 0 00-.946.048l.063-1.207a20.6 20.6 0 001.366-.595 28.46 28.46 0 001.58-.805 39.048 39.048 0 001.543-.89c.556-.335 1.04-.662 1.452-.98.424-.32.784-.591 1.082-.812.306-.235.566-.374.777-.418.364-.075.666-.01.905.199.249.193.373.498.373.915-.004.393-.01.78-.017 1.162.003.367.002.747-.003 1.14a56.264 56.264 0 00.09 2.39c.029.434.068.83.118 1.188.048.235.096.495.142.78.056.27.086.472.09.606a.816.816 0 01-.087.385.655.655 0 01-.238.27.729.729 0 01-.334.161c-.247.051-.46-.027-.637-.236a2.262 2.262 0 01-.376-.84 15.117 15.117 0 01-.26-1.785 25.73 25.73 0 01-.093-1.874c.005-.27.005-.571-.002-.9.005-.332.01-.658.018-.978.007-.32.01-.603.008-.848.008-.259.013-.443.014-.554l.43.297c-.24.209-.556.452-.952.73-.387.264-.831.546-1.333.846-.504.288-1.031.58-1.582.879-.551.297-1.11.585-1.679.861-.558.263-1.099.491-1.622.685l.044-.67a6.5 6.5 0 01.416-.123c.195-.065.422-.124.68-.178.141-.029.34-.046.597-.05a4.39 4.39 0 01.84.065c.304.048.599.14.885.277.295.123.54.305.737.546.21.238.345.541.409.908.071.463.004.937-.202 1.42a4.743 4.743 0 01-.842 1.35 6.21 6.21 0 01-1.229 1.082c-.454.29-.899.48-1.334.57zm17.33-10.35c-.399.083-.732.011-1-.215-.267-.227-.401-.58-.402-1.057.002-.343.096-.632.28-.867.194-.248.473-.41.837-.485.33-.068.605-.04.827.086.22.114.382.276.487.488.116.208.172.448.167.719.006.268-.085.538-.274.81-.191.26-.498.434-.921.521zm.07 6.732c-.411.085-.75.014-1.018-.212-.27-.239-.404-.56-.402-.965a1.256 1.256 0 01.336-.952c.239-.27.51-.436.816-.5.317-.065.58-.04.788.077.22.113.383.282.49.505.12.22.174.454.164.701.009.28-.081.556-.27.828-.18.258-.48.43-.904.518zm2.255 4.11a.789.789 0 01-.427-.022.575.575 0 01-.323-.227.632.632 0 01-.133-.377.97.97 0 01.085-.385c.058-.135.174-.287.347-.458a12.576 12.576 0 001.907-2.508c.533-.92.937-1.898 1.213-2.935.287-1.04.433-2.111.437-3.215-.007-1.396-.178-2.61-.514-3.643-.327-1.048-.75-1.91-1.27-2.587-.523-.688-1.094-1.195-1.712-1.52-.272-.128-.457-.255-.557-.382a.735.735 0 01-.127-.433.966.966 0 01.212-.577.885.885 0 01.887-.33c.128.022.313.088.556.197.524.284 1.032.694 1.522 1.23.491.535.934 1.197 1.33 1.985s.706 1.692.93 2.712c.232 1.006.35 2.115.357 3.327a13.643 13.643 0 01-.432 3.6 12.85 12.85 0 01-1.267 3.203 12.36 12.36 0 01-1.984 2.671c-.231.244-.43.408-.597.491-.164.096-.31.157-.44.183zM63.974 84.291a1 1 0 00-1.705 1.046l1.705-1.046zm87.129 10.08a1 1 0 001.031-.968l.286-8.995a1 1 0 00-1.999-.064l-.254 7.996-7.996-.254a1 1 0 00-.063 2l8.995.285zm-88.834-9.034c2.167 3.534 4.82 5.668 7.896 6.725 3.05 1.05 6.415 1.002 9.962.368l-.353-1.97c-3.37.605-6.355.607-8.96-.288-2.577-.886-4.881-2.686-6.84-5.88l-1.705 1.044zm17.858 7.093c4.835-.868 10.186-2.867 15.77-4.907 5.621-2.052 11.524-4.166 17.596-5.355 6.061-1.186 12.246-1.44 18.419.2 6.164 1.636 12.383 5.178 18.494 11.689l1.458-1.37c-6.339-6.754-12.877-10.51-19.439-12.253-6.552-1.74-13.06-1.453-19.317-.228-6.247 1.222-12.289 3.39-17.898 5.44-5.646 2.061-10.81 3.986-15.436 4.814l.353 1.97zM62.3 85.516c2.16 3.521 4.808 5.635 7.884 6.662 3.048 1.017 6.412.93 9.956.249l-.378-1.965c-3.368.648-6.35.685-8.945-.18-2.569-.858-4.863-2.633-6.812-5.811L62.3 85.516zm17.84 6.91c4.86-.934 10.244-3.03 15.865-5.172 5.658-2.159 11.601-4.383 17.711-5.674 6.1-1.287 12.319-1.632 18.517-.056 6.188 1.573 12.426 5.076 18.544 11.594l1.459-1.367c-6.352-6.769-12.915-10.49-19.51-12.166-6.585-1.673-13.13-1.29-19.424.039-6.284 1.327-12.365 3.609-18.01 5.76-5.683 2.168-10.88 4.184-15.53 5.079l.378 1.964z" fill="#E71985"/></svg>