<svg width="103" height="101" fill="none" xmlns="http://www.w3.org/2000/svg"><path d="M63.467 88.621a.597.597 0 01-.323.021.436.436 0 01-.263-.143.48.48 0 01-.133-.272.73.73 0 01.03-.299c.032-.106.105-.231.22-.375.49-.634.895-1.32 1.215-2.06.32-.74.539-1.514.655-2.32.125-.81.14-1.632.047-2.465-.128-1.052-.363-1.953-.707-2.703-.338-.761-.732-1.374-1.183-1.839-.453-.473-.927-.805-1.421-.996-.216-.073-.367-.152-.453-.239a.558.558 0 01-.133-.316.735.735 0 01.109-.453.67.67 0 01.638-.328c.098.006.243.04.436.1.419.168.837.433 1.253.793.416.361.808.822 1.175 1.381.367.56.68 1.215.937 1.964.263.739.45 1.564.56 2.478.12.94.117 1.858-.008 2.754a9.778 9.778 0 01-.672 2.528c-.329.8-.748 1.53-1.258 2.19-.153.204-.288.345-.406.422-.115.087-.22.146-.315.177zm-2.701-7.974c-.293.098-.55.073-.771-.074-.221-.148-.353-.402-.396-.762-.028-.26.017-.485.135-.678.124-.205.32-.351.587-.44.242-.08.452-.083.63-.008a.821.821 0 01.409.325c.106.147.169.323.189.527.028.202-.017.414-.135.636-.121.213-.337.371-.648.474zm.644 5.072c-.302.1-.564.077-.785-.07-.224-.156-.353-.387-.387-.693a.957.957 0 01.17-.747c.155-.225.345-.374.57-.449.232-.077.432-.081.599-.012.175.067.313.18.413.338.109.156.17.327.184.515.032.21-.012.426-.13.648-.112.21-.324.367-.634.47zM48.636 89.98c-.405.135-.77.146-1.095.033a1.572 1.572 0 01-.8-.641c-.213-.323-.353-.733-.422-1.228l-.225-1.769c-.074-.57-.14-1.058-.196-1.461-.049-.407-.08-.675-.094-.804a.851.851 0 01.01-.32.76.76 0 01.15-.281.55.55 0 01.247-.168c.198-.066.378-.015.538.152.17.164.276.384.318.657.029.26.051.574.068.943.025.366.062.709.11 1.029l.034.45c.02.175.037.357.051.544l.051.459c.057.49.175.849.356 1.077.18.228.418.293.711.195a1.45 1.45 0 00.501-.31c.178-.156.34-.334.484-.536.14-.21.249-.418.324-.626.075-.207.088-.384.04-.531-.066-.228-.187-.39-.362-.485-.166-.098-.38-.152-.642-.161a3.01 3.01 0 00-.56-.001c-.225.017-.46.043-.708.077a5.17 5.17 0 00-.707.12l-.059-.917c.294-.155.619-.345.975-.569.366-.227.738-.476 1.118-.746.38-.27.741-.54 1.084-.807.388-.302.724-.59 1.006-.867.29-.28.538-.515.742-.708.21-.204.393-.332.549-.384.267-.089.5-.065.698.07.204.125.324.344.361.658l.09.878c.033.276.066.563.097.86a42.727 42.727 0 00.278 1.795c.06.325.124.62.192.886.057.173.116.365.176.575.066.2.106.35.12.45.014.101.004.2-.03.298a.498.498 0 01-.156.225.551.551 0 01-.237.15c-.182.061-.348.02-.5-.121a1.718 1.718 0 01-.357-.601 11.67 11.67 0 01-.352-1.324 19.63 19.63 0 01-.235-1.405 19.73 19.73 0 00-.08-.679 80.19 80.19 0 01-.073-.74 22.139 22.139 0 00-.068-.64l-.038-.418.349.186a8.87 8.87 0 01-.652.634 20.09 20.09 0 01-.928.755c-.354.262-.725.53-1.114.803-.388.273-.784.539-1.187.798-.397.247-.784.467-1.16.66l-.026-.51a5.82 5.82 0 01.302-.13c.141-.066.307-.13.496-.194.104-.034.252-.064.445-.09a3.3 3.3 0 01.638-.025c.233.01.463.053.69.13.232.067.433.183.603.348.177.161.306.378.387.649a1.96 1.96 0 01-.028 1.089c-.104.38-.276.745-.515 1.093s-.515.656-.829.924a3.032 3.032 0 01-.954.547zm-9.197 3.058a.38.38 0 01-.323-.022.568.568 0 01-.211-.247.902.902 0 01-.116-.393 3.083 3.083 0 01.04-.705c.05-.314.123-.67.221-1.067.096-.407.2-.816.313-1.228.124-.435.254-.867.39-1.296.141-.44.283-.838.424-1.192.139-.363.258-.653.36-.869.16-.322.33-.576.51-.76.184-.195.388-.33.612-.405.207-.069.374-.043.5.079.124.112.243.27.357.471.118.21.244.462.379.753.134.291.276.59.425.895.146.298.298.583.456.857.189.34.357.63.503.87.155.236.292.436.413.597.129.159.245.293.348.403.098.092.178.176.242.25a.613.613 0 01.128.26c.029.116.03.235.004.36a.639.639 0 01-.156.31.533.533 0 01-.267.19c-.164.054-.337.025-.517-.087a2.613 2.613 0 01-.543-.555 10.66 10.66 0 01-.555-.809c-.109-.184-.252-.43-.43-.735-.172-.318-.352-.66-.541-1.03-.192-.378-.37-.741-.533-1.09a16.675 16.675 0 01-.365-.887l.293.018a9.433 9.433 0 00-.506 1.119c-.165.429-.33.901-.494 1.417a32.443 32.443 0 00-.438 1.586 22.545 22.545 0 00-.317 1.603c-.079.4-.158.71-.239.929-.072.216-.194.353-.367.41zm-4.613 1.534c-.708.235-1.342.273-1.902.114a2.52 2.52 0 01-1.348-.95c-.341-.481-.56-1.085-.657-1.812a3.819 3.819 0 01.071-1.435 4.52 4.52 0 01.494-1.2 3.62 3.62 0 01.721-.86c.26-.23.497-.38.712-.453a.627.627 0 01.246-.038.302.302 0 01.198.078c.06.037.098.107.112.208.014.187-.002.37-.048.549-.05.17-.185.354-.406.552-.262.25-.471.502-.627.756a2.26 2.26 0 00-.303.777 2.532 2.532 0 00-.001.908c.094.747.361 1.282.804 1.605.439.315.97.37 1.59.163a2.324 2.324 0 001.365-1.174c.311-.593.416-1.276.313-2.049-.082-.712-.297-1.216-.644-1.514-.35-.306-.784-.373-1.302-.2a1.489 1.489 0 00-.634.383c-.147.164-.3.369-.458.613-.113.182-.2.34-.26.476-.06.135-.12.246-.177.332a.465.465 0 01-.246.168.38.38 0 01-.323-.022c-.09-.066-.147-.196-.172-.39-.031-.21 0-.446.096-.708a3.49 3.49 0 01.432-.777c.19-.265.41-.497.66-.695a2.42 2.42 0 01.786-.449c.621-.206 1.175-.227 1.66-.062.483.157.878.467 1.185.931.304.456.495 1.036.575 1.74.093.688.05 1.336-.133 1.944a3.882 3.882 0 01-.895 1.55 3.509 3.509 0 01-1.484.94zM29.887 96.2c-.26.085-.57.102-.932.05a4.95 4.95 0 01-1.133-.343 8.892 8.892 0 01-1.099-.586 5.23 5.23 0 01-.857-.68 1.335 1.335 0 01-.292-.32 1.69 1.69 0 01-.13-.346c.004-.078.012-.167.027-.268a.946.946 0 01.091-.29c.058-.172.173-.417.346-.734s.38-.664.618-1.04c.245-.39.506-.76.782-1.11.283-.363.558-.675.825-.937.277-.265.531-.436.764-.514a.352.352 0 01.242-.008.375.375 0 01.185.126c.049.06.08.127.095.199.054.193-.011.416-.195.67-.185.253-.39.499-.618.738-.4.44-.746.858-1.037 1.252-.29.394-.518.734-.683 1.019-.155.282-.223.468-.203.557.005.075.066.17.18.286.115.115.276.24.483.372.215.13.462.255.74.373.288.116.598.215.931.296.199.05.391.096.578.139.193.032.352.08.478.143.133.052.213.136.241.252a.582.582 0 01-.004.29.54.54 0 01-.16.254.661.661 0 01-.263.16zm-4.314 1.42c-.225.074-.413.012-.565-.188-.155-.207-.286-.533-.395-.977a18.504 18.504 0 01-.282-1.678 23.28 23.28 0 01-.09-.877l-.05-.934c-.019-.32-.049-.627-.088-.921a1.855 1.855 0 00-.03-.22 2.323 2.323 0 00-.039-.247 1.637 1.637 0 01.001-.476.852.852 0 01.121-.328.437.437 0 01.225-.19.55.55 0 01.556.118c.178.133.285.37.322.713.028.231.048.522.059.874.017.34.032.69.046 1.05.014.36.036.675.067.943.071.475.144.898.218 1.267.083.366.159.667.227.904.066.227.1.389.103.484a.628.628 0 01-.026.311.512.512 0 01-.143.22.506.506 0 01-.237.151zm-8.422 2.727c-.966.321-1.77.526-2.41.615-.636.076-1.142.038-1.518-.115a1.666 1.666 0 01-.857-.767c-.19-.369-.32-.839-.395-1.41a92.95 92.95 0 01-.127-1.21 49.165 49.165 0 01-.119-1.401l-.101-1.392a56.278 56.278 0 01-.072-1.172 9.518 9.518 0 01-.016-.743c-.016-.283.004-.496.062-.64.063-.155.16-.255.29-.298a.472.472 0 01.396.027.67.67 0 01.284.294c.072.13.114.274.129.433.022.155.042.418.059.787.014.36.034.785.062 1.275l.123 1.587c.05.559.113 1.124.187 1.694.082.683.187 1.158.313 1.423.134.263.315.418.542.468.195.04.441.045.737.014.294-.04.626-.107.997-.202a41.024 41.024 0 003.447-1.175c.572-.238 1.009-.465 1.311-.68.3-.225.491-.47.575-.739.052-.132.087-.331.104-.596a8.57 8.57 0 00-.007-.934c-.01-.352-.04-.716-.089-1.094a20.976 20.976 0 00-.247-1.574c-.1-.504-.2-.965-.3-1.383-.1-.418-.184-.774-.253-1.069a9.89 9.89 0 01-.128-.605c-.003-.095.01-.2.04-.316a.95.95 0 01.168-.315.598.598 0 01.28-.194c.147-.049.29-.02.431.087.147.096.25.248.31.459.049.147.11.39.184.73.072.332.15.714.236 1.147.094.43.178.872.252 1.327.08.444.145.86.196 1.246.037.314.07.615.098.903.028.288.048.565.06.83l.02.714a3.64 3.64 0 01-.031.557c-.05.4-.206.755-.468 1.063-.262.308-.613.593-1.053.854-.443.253-.98.499-1.61.737-.618.244-1.315.495-2.092.753zm-.258-.649a19.092 19.092 0 01-.38-1.63 29.28 29.28 0 01-.3-2.119c-.039-.38-.076-.78-.11-1.202a198.873 198.873 0 00-.199-2.295 41.217 41.217 0 00-.059-.787 2.755 2.755 0 01-.02-.497.949.949 0 01.086-.39.39.39 0 01.242-.224.456.456 0 01.384.031.788.788 0 01.301.346c.08.156.133.345.159.567.068.525.126 1.149.174 1.872.047.724.111 1.466.19 2.227.077.723.17 1.393.277 2.01.117.614.236 1.146.356 1.596l-1.1.495zm45.245-27.023c-.207.069-.402 0-.586-.209-.183-.207-.308-.57-.373-1.085l-.068-.683a13.138 13.138 0 01-.054-.99 11.99 11.99 0 01.057-1.215c.076-.755.168-1.361.275-1.82.104-.466.24-.823.407-1.07.167-.248.367-.411.6-.488a.487.487 0 01.487.082c.152.113.284.266.396.46.112.193.215.389.31.588.126.265.27.558.434.878.172.317.35.637.533.96.192.32.387.62.585.9.206.277.41.502.61.676l-.43.258c.086-.576.19-1.158.313-1.746.121-.587.25-1.153.386-1.698.136-.544.27-1.035.403-1.473.153-.464.299-.805.437-1.024.147-.222.298-.358.454-.41a.671.671 0 01.336-.026c.11.012.208.037.297.075a.99.99 0 01.336.277c.098.12.175.326.232.614.128.648.263 1.228.403 1.738.145.5.278.916.399 1.25.206.594.406 1.056.601 1.385.204.325.31.545.318.657.02.118-.01.23-.09.333a.563.563 0 01-.312.233c-.207.069-.412.026-.616-.127-.195-.155-.366-.396-.512-.722-.138-.3-.294-.685-.468-1.155a22.064 22.064 0 01-.49-1.61 25.333 25.333 0 01-.401-1.91l.345-.216c-.107.372-.226.795-.356 1.27-.124.464-.251.948-.382 1.452-.121.501-.235.996-.342 1.482-.099.484-.179.938-.24 1.362-.04.196-.11.363-.207.5a.707.707 0 01-.38.286.937.937 0 01-.565.029 1.433 1.433 0 01-.474-.303 5.028 5.028 0 01-.43-.52l-.31-.459a18.974 18.974 0 01-1.324-2.397 8.47 8.47 0 01-.34-.852l.354-.233a15.311 15.311 0 00-.364 1.504c-.081.479-.128.96-.14 1.444-.007.473.02.973.08 1.5.042.36.087.672.136.934.057.26.094.459.11.597a.95.95 0 01-.056.436c-.052.133-.16.226-.324.28zm-7.046 2.328c-.396.132-.752.144-1.065.037a1.56 1.56 0 01-.766-.624c-.198-.308-.327-.697-.386-1.167a5 5 0 01.015-1.388c.075-.495.207-.98.394-1.456.185-.484.416-.93.692-1.34.283-.42.604-.78.964-1.083a3.672 3.672 0 011.186-.668c.199-.066.371-.065.518.001.146.067.232.21.258.433a.52.52 0 01-.053.32.634.634 0 01-.293.241 4.243 4.243 0 00-1.468 1.208 5.21 5.21 0 00-.865 1.685 4.39 4.39 0 00-.166 1.755c.03.268.08.506.15.713.065.2.194.444.386.736l-.788-.732c.221.147.402.231.543.251.15.018.34-.012.574-.09.552-.183.995-.724 1.33-1.623.335-.898.52-2.107.553-3.626a.914.914 0 01.122-.458.615.615 0 01.34-.272.523.523 0 01.54.11c.166.126.284.323.352.588.146.556.292 1.055.438 1.496.151.43.333.82.546 1.172.22.35.514.689.882 1.018a.52.52 0 01.163.277c.037.112.043.23.017.354a.748.748 0 01-.134.333.556.556 0 01-.28.194.58.58 0 01-.337.025.706.706 0 01-.254-.16 6.299 6.299 0 01-.56-.606 5.36 5.36 0 01-.516-.779c-.16-.311-.31-.69-.447-1.133a15.657 15.657 0 01-.39-1.613l.462-.168c.002.96-.072 1.795-.22 2.507-.15.703-.355 1.299-.614 1.788-.254.478-.54.861-.856 1.149-.316.288-.639.486-.967.595zM45.458 77.4c.026-.297.072-.634.139-1.012.064-.386.136-.789.218-1.21.09-.423.182-.838.277-1.244.102-.418.201-.797.3-1.137.133-.438.273-.854.42-1.248a5.84 5.84 0 01.463-.99c.167-.276.332-.441.496-.496a.619.619 0 01.526.07c.187.101.388.303.603.606.149.22.324.502.525.848a26.014 26.014 0 011.225 2.401c.189.427.349.825.48 1.194l-1.104.483a16.702 16.702 0 00-.537-1.32 18.858 18.858 0 00-.653-1.367c-.23-.432-.443-.803-.64-1.111-.201-.318-.37-.521-.504-.61l.47-.273c-.179.386-.358.83-.536 1.331-.17.499-.314 1.021-.43 1.569-.087.403-.166.785-.239 1.145-.072.36-.135.707-.187 1.041-.046.323-.09.654-.13.995l-1.182.335zm6.423.615a.506.506 0 01-.685-.42 2.216 2.216 0 01.014-.523c.029-.23.052-.493.07-.787a4.53 4.53 0 00-.033-.882l.684.507a8.808 8.808 0 00-.586.137c-.256.066-.578.164-.966.293a83.877 83.877 0 00-2.804.99c-.452.169-.88.34-1.282.512s-.768.342-1.096.508l.355-.621a10.034 10.034 0 00.21.938c.048.176.09.33.124.463l.09.272c.04.15.026.28-.044.39a.546.546 0 01-.32.25c-.206.068-.376.033-.508-.105a1.427 1.427 0 01-.31-.545 4.102 4.102 0 01-.162-.537 4.353 4.353 0 01-.103-.527c-.011-.15 0-.288.035-.415a.822.822 0 01.178-.376c.095-.118.231-.226.41-.324.204-.106.483-.232.837-.379.36-.158.765-.321 1.216-.49.458-.181.93-.358 1.42-.53.486-.18.953-.346 1.402-.495.224-.075.471-.152.742-.232.267-.09.532-.158.793-.207.26-.057.453-.035.582.066.138.098.227.294.267.588.028.231.04.482.033.753-.006.27-.035.53-.088.778-.04.253-.104.466-.19.64-.078.17-.173.273-.285.31zm-12.978 2.37c-.397.132-.752.145-1.065.038-.305-.11-.56-.318-.767-.624-.197-.309-.326-.698-.386-1.168a5 5 0 01.015-1.387c.076-.496.207-.981.395-1.457.185-.483.415-.93.692-1.339.282-.42.603-.781.963-1.083a3.672 3.672 0 011.187-.668c.198-.066.37-.066.517 0 .147.067.233.211.258.433a.52.52 0 01-.052.32.634.634 0 01-.294.242 4.243 4.243 0 00-1.468 1.208 5.21 5.21 0 00-.864 1.684 4.39 4.39 0 00-.167 1.755c.031.268.081.506.15.714.066.199.194.444.387.735l-.788-.732c.22.148.402.231.543.252.15.017.34-.013.573-.09.552-.184.996-.725 1.33-1.623.336-.899.52-2.108.554-3.626a.914.914 0 01.121-.458.615.615 0 01.341-.272.523.523 0 01.54.109c.166.127.283.323.352.588.146.557.291 1.055.437 1.497.152.43.334.82.546 1.172.22.349.515.688.882 1.017A.52.52 0 0144 77.9c.037.113.042.23.017.355a.748.748 0 01-.135.332.556.556 0 01-.28.194.58.58 0 01-.337.026.706.706 0 01-.254-.16 6.299 6.299 0 01-.56-.607 5.354 5.354 0 01-.516-.779 7.026 7.026 0 01-.446-1.133 15.65 15.65 0 01-.39-1.613l.462-.168c.001.96-.072 1.796-.22 2.507-.15.703-.355 1.3-.615 1.789-.254.478-.539.86-.855 1.148-.317.288-.64.486-.967.595zm-5.98 1.917a3.36 3.36 0 01-1.143.192c-.348-.009-.634-.077-.858-.204-.224-.127-.351-.296-.383-.507a.67.67 0 01.052-.32c.044-.1.121-.17.234-.206a.452.452 0 01.254-.013l.297.074c.115.029.272.04.47.031a3.51 3.51 0 00.76-.18c.483-.161.862-.417 1.139-.768.282-.363.38-.851.291-1.465-.048-.435-.165-.804-.352-1.107-.18-.315-.41-.56-.688-.736a1.972 1.972 0 00-.953-.317 2.878 2.878 0 00-1.125.158 3.143 3.143 0 00-.587.267 2.85 2.85 0 01-.522.246.55.55 0 01-.28.02.39.39 0 01-.224-.155.558.558 0 01-.1-.255c-.025-.251.072-.48.29-.687.225-.219.61-.419 1.153-.6.578-.192 1.124-.263 1.638-.213.524.047.992.203 1.405.469.411.257.751.62 1.02 1.087.276.456.453 1.006.533 1.652a3.21 3.21 0 01-.063 1.201 3.099 3.099 0 01-.437 1.024 3.35 3.35 0 01-.773.79c-.31.219-.66.393-1.048.522zm-1.943 4.332a.503.503 0 01-.297.013.354.354 0 01-.211-.16.777.777 0 01-.112-.338 1.163 1.163 0 01.022-.41c.026-.124.052-.277.078-.458.03-.173.049-.39.058-.653a6.84 6.84 0 00-.06-1.003 10.543 10.543 0 00-.419-1.963c-.2-.635-.407-1.276-.622-1.925a12.4 12.4 0 01-.458-2.037c-.028-.23-.008-.415.061-.553.075-.15.19-.25.346-.302a.456.456 0 01.383.03.707.707 0 01.315.3c.083.135.133.301.15.497.068.553.166 1.068.295 1.544.134.464.274.917.42 1.358.155.438.296.88.425 1.328.129.446.223.92.282 1.418.063.45.095.866.098 1.25.002.383-.026.718-.084 1.006a1.96 1.96 0 01-.242.7.764.764 0 01-.428.359zm-5.911-1.649a.526.526 0 01-.56-.13c-.158-.16-.28-.412-.366-.758a6.501 6.501 0 01-.124-.635 38.971 38.971 0 01-.132-.921l-.145-1.047c-.04-.351-.08-.674-.12-.968a59.12 59.12 0 00-.076-.71c-.062-.478-.055-.845.023-1.102.084-.267.266-.472.545-.613.261-.135.545-.263.85-.383a11.758 11.758 0 012.01-.654c.37-.094.658-.137.862-.128a.431.431 0 01.41.368.536.536 0 01-.2.484 1.54 1.54 0 01-.543.31c-.182.06-.348.106-.5.138a7.589 7.589 0 00-.492.12 7.41 7.41 0 00-.695.202c-.345.115-.633.23-.863.344-.23.115-.485.258-.764.427l.497-.626c.002.383.018.806.046 1.267.036.458.096 1.014.178 1.669.054.452.118.877.192 1.275.071.39.137.718.197.986s.094.444.103.528c.02.147-.004.265-.07.354a.488.488 0 01-.263.203zm-7.196 2.392c-.397.132-.752.145-1.065.038-.305-.11-.56-.318-.767-.624-.197-.309-.326-.698-.386-1.168a5 5 0 01.015-1.388 6.73 6.73 0 01.395-1.456 6.55 6.55 0 01.692-1.339c.282-.42.603-.781.963-1.083a3.669 3.669 0 011.187-.668c.198-.066.37-.066.517 0 .147.067.233.211.258.433a.52.52 0 01-.052.32.634.634 0 01-.294.241 4.243 4.243 0 00-1.467 1.208 5.212 5.212 0 00-.865 1.685 4.39 4.39 0 00-.167 1.755c.031.268.081.506.15.713.066.2.195.445.387.736l-.788-.732c.221.147.402.231.543.252.15.017.34-.013.573-.09.552-.184.996-.725 1.33-1.623.336-.9.52-2.108.554-3.627a.916.916 0 01.122-.458.615.615 0 01.34-.271.523.523 0 01.54.109c.166.127.283.323.352.588.146.556.291 1.055.437 1.496.152.43.334.82.546 1.173.22.349.515.688.882 1.017a.53.53 0 01.164.277.67.67 0 01.016.355.747.747 0 01-.134.332.556.556 0 01-.28.194.58.58 0 01-.337.026.706.706 0 01-.254-.16 6.273 6.273 0 01-.56-.607 5.36 5.36 0 01-.515-.779 7.021 7.021 0 01-.447-1.133 15.686 15.686 0 01-.39-1.613l.462-.168c.001.96-.072 1.795-.22 2.507-.15.703-.355 1.3-.615 1.789-.253.478-.539.86-.855 1.148-.317.288-.64.486-.967.595zm-8.38 2.801a.56.56 0 01-.57-.114c-.171-.144-.323-.372-.455-.683a5.058 5.058 0 01-.278-1.19c-.049-.492-.046-.877.006-1.154.058-.288.159-.504.303-.648a1 1 0 01.37-.224c.167-.075.346-.143.536-.207a19.97 19.97 0 001.833-.71 9.91 9.91 0 001.696-.996l.53.818a7.827 7.827 0 01-1.322.871c-.489.259-.995.494-1.518.707-.518.2-1.027.384-1.527.55l-.79.134c-.056-.548-.117-1.123-.182-1.726a88.585 88.585 0 00-.188-1.608 1.14 1.14 0 01.04-.575c.06-.164.156-.268.285-.31a.546.546 0 01.565.1c.158.13.258.39.3.778.029.202.053.448.073.74.02.29.039.596.059.916.028.317.052.621.071.912.026.28.05.512.073.696.062.537.133 1.012.213 1.427.086.404.144.71.175.921a.573.573 0 01-.07.355.375.375 0 01-.228.22zm4.465-1.485c-.216.072-.413-.002-.59-.221-.17-.222-.322-.55-.456-.986a10.039 10.039 0 01-.3-1.514 39.954 39.954 0 01-.199-2.123 13.39 13.39 0 01-.01-1.292c.005-.213.036-.41.09-.592.056-.182.156-.297.303-.346.19-.063.354-.016.491.14.144.144.231.35.262.618.043.332.06.7.05 1.107 0 .403.03.83.093 1.28.068.553.15 1.049.248 1.487.103.427.197.784.283 1.072.086.289.134.508.145.658a.64.64 0 01-.41.712zm53.63-30.632c-.207.07-.403 0-.587-.208-.183-.208-.308-.57-.373-1.086a19.28 19.28 0 01-.106-1.146 9.748 9.748 0 01.042-1.742c.076-.755.167-1.361.274-1.82.104-.466.24-.823.407-1.07.167-.248.367-.41.6-.488a.487.487 0 01.487.083c.152.112.284.265.396.459.112.193.215.389.31.588.126.265.27.558.434.878.172.318.35.638.533.96.192.321.387.621.585.9.206.278.41.503.611.676l-.431.259c.087-.576.191-1.158.313-1.746.121-.588.25-1.154.386-1.698.136-.545.27-1.036.403-1.474.153-.464.3-.805.437-1.024.147-.221.298-.358.454-.41a.671.671 0 01.336-.025c.11.012.208.036.297.074.127.064.239.156.336.277.098.121.175.326.232.614.129.649.263 1.228.403 1.739.146.498.279.915.399 1.25.206.594.406 1.055.601 1.384.204.326.31.545.318.657.02.119-.01.23-.09.333a.563.563 0 01-.311.233c-.208.069-.413.027-.617-.126-.195-.156-.366-.397-.512-.723-.137-.3-.293-.685-.468-1.155a22.064 22.064 0 01-.489-1.609 25.333 25.333 0 01-.402-1.911l.345-.216c-.107.372-.226.795-.356 1.27-.124.465-.251.949-.381 1.453-.122.5-.236.995-.343 1.482-.099.484-.178.938-.24 1.361a1.32 1.32 0 01-.207.501.707.707 0 01-.38.285.937.937 0 01-.565.03 1.433 1.433 0 01-.474-.304 5.018 5.018 0 01-.43-.52c-.075-.109-.178-.262-.31-.458a18.87 18.87 0 01-1.324-2.397 8.3 8.3 0 01-.34-.852l.355-.233a15.303 15.303 0 00-.365 1.504c-.081.478-.128.96-.14 1.443-.007.473.02.973.08 1.5.042.36.087.672.136.934.057.26.094.459.111.597a.951.951 0 01-.057.437c-.052.132-.16.226-.323.28zm-8.117 2.713c-.405.135-.77.146-1.095.033a1.572 1.572 0 01-.8-.641c-.213-.323-.353-.733-.421-1.228-.08-.617-.155-1.207-.226-1.769-.074-.57-.14-1.058-.196-1.461-.048-.407-.08-.675-.094-.805a.852.852 0 01.01-.32.758.758 0 01.15-.28.548.548 0 01.247-.168c.198-.066.378-.016.538.152.17.164.276.383.319.657.028.26.05.574.067.943.025.366.062.709.11 1.029l.034.45c.02.175.037.357.051.544l.051.459c.057.49.176.849.356 1.077.181.227.418.293.711.195a1.45 1.45 0 00.501-.31 3.07 3.07 0 00.484-.536c.141-.21.25-.419.324-.626.075-.207.089-.385.04-.532-.066-.227-.186-.389-.361-.484-.167-.099-.381-.152-.643-.161a3.01 3.01 0 00-.56-.001c-.224.017-.46.042-.707.077a5.17 5.17 0 00-.708.12l-.059-.917c.294-.155.619-.345.976-.57.365-.226.738-.475 1.117-.745.38-.27.742-.54 1.084-.807.389-.302.724-.591 1.006-.867.29-.28.538-.515.743-.708.21-.204.392-.332.548-.384.267-.089.5-.066.698.07.204.125.324.344.361.658.032.297.061.59.09.878.034.276.066.563.097.86a43.61 43.61 0 00.278 1.794c.06.326.124.622.192.887.058.173.116.365.176.575.066.2.106.35.12.45.014.1.004.2-.03.298a.498.498 0 01-.156.225.55.55 0 01-.237.15c-.181.06-.348.02-.5-.121a1.715 1.715 0 01-.357-.602c-.143-.432-.26-.873-.352-1.323a19.564 19.564 0 01-.235-1.405 16.94 16.94 0 00-.08-.68c-.026-.25-.05-.496-.073-.738a22.215 22.215 0 00-.068-.64l-.038-.42.35.187a9.12 9.12 0 01-.653.634 20.09 20.09 0 01-.928.755c-.354.262-.725.53-1.114.803a32.74 32.74 0 01-1.187.797c-.397.248-.784.468-1.16.66l-.026-.51a5.75 5.75 0 01.303-.13c.14-.065.306-.13.496-.193.103-.035.251-.065.444-.09a3.3 3.3 0 01.638-.025c.233.009.463.053.69.13.232.067.433.183.603.347.178.162.307.378.387.65.094.343.085.706-.028 1.089-.104.38-.275.744-.514 1.093a4.76 4.76 0 01-.83.924 3.03 3.03 0 01-.953.547zM50.57 63.72a.56.56 0 01-.57-.114c-.172-.144-.324-.372-.456-.684a5.054 5.054 0 01-.278-1.189c-.048-.493-.046-.877.006-1.154.058-.288.159-.504.303-.648a.995.995 0 01.37-.224c.168-.075.346-.144.536-.207.63-.21 1.24-.446 1.833-.71a9.915 9.915 0 001.696-.996l.53.818a7.828 7.828 0 01-1.321.87 16.2 16.2 0 01-1.52.707c-.517.201-1.026.385-1.526.551l-.79.133a360.53 360.53 0 00-.182-1.725 87.473 87.473 0 00-.187-1.609 1.14 1.14 0 01.04-.574c.06-.165.155-.268.284-.311a.546.546 0 01.565.1c.158.13.258.39.3.779.03.201.053.448.073.739.02.291.04.597.059.917.028.317.052.62.072.912a23.784 23.784 0 00.285 2.123c.086.403.144.71.175.92a.573.573 0 01-.069.355.375.375 0 01-.229.22zm4.464-1.485c-.216.072-.413-.002-.59-.221-.17-.223-.322-.551-.456-.987a10.039 10.039 0 01-.3-1.513 39.962 39.962 0 01-.199-2.123c-.025-.54-.028-.97-.01-1.293.005-.213.036-.41.09-.592.056-.181.156-.296.303-.345.19-.063.354-.017.492.139.143.144.23.35.262.619.042.331.059.7.05 1.106-.001.404.03.83.092 1.28.069.553.151 1.05.248 1.487.103.427.197.785.283 1.073.086.288.134.507.146.657a.64.64 0 01-.411.713zM41.63 65.87c.027-.297.073-.634.14-1.011.064-.386.136-.79.217-1.21.09-.424.183-.838.278-1.245.101-.417.201-.796.3-1.136.132-.438.272-.854.42-1.249a5.84 5.84 0 01.462-.989c.168-.276.333-.442.497-.496a.618.618 0 01.526.07c.187.1.388.303.603.606.149.22.324.502.524.848a25.812 25.812 0 011.225 2.401c.19.427.35.825.481 1.194l-1.104.482a16.667 16.667 0 00-.537-1.319 18.794 18.794 0 00-.653-1.367c-.23-.433-.443-.803-.64-1.112-.202-.317-.37-.52-.504-.61l.47-.272c-.179.386-.358.83-.537 1.33-.17.499-.313 1.022-.429 1.57-.087.403-.166.784-.239 1.144-.072.36-.135.708-.187 1.042-.046.323-.09.654-.13.994l-1.183.335zm6.424.616a.506.506 0 01-.685-.42 2.216 2.216 0 01.013-.524c.03-.23.053-.493.07-.787a4.529 4.529 0 00-.032-.881l.684.506a8.924 8.924 0 00-.586.138c-.256.066-.578.163-.967.292a82.963 82.963 0 00-2.804.99c-.451.17-.878.34-1.281.513-.403.172-.768.341-1.096.508l.355-.622a10.008 10.008 0 00.21.938c.048.176.09.33.124.463l.09.273c.04.15.025.28-.044.389a.546.546 0 01-.32.25c-.206.069-.376.034-.508-.105a1.426 1.426 0 01-.31-.545 4.086 4.086 0 01-.163-.536 4.349 4.349 0 01-.102-.528c-.011-.15 0-.288.035-.415a.823.823 0 01.177-.376 1.35 1.35 0 01.41-.323c.205-.106.484-.233.837-.38.36-.157.765-.32 1.217-.49.457-.18.93-.357 1.42-.53a29.8 29.8 0 012.143-.727c.268-.089.532-.157.794-.206.259-.057.453-.035.582.066.138.098.227.294.266.588.029.23.04.481.034.752-.006.271-.035.53-.088.778-.04.254-.104.467-.19.64-.078.17-.173.273-.285.31zm-11.055 1.731c-.535.177-1.008.253-1.42.227-.404-.038-.746-.16-1.025-.365a2.34 2.34 0 01-.68-.84 4.015 4.015 0 01-.33-1.215 5.098 5.098 0 01.071-1.435 5.68 5.68 0 01.503-1.478 4.63 4.63 0 01.924-1.243c.378-.366.812-.63 1.304-.794.457-.152.857-.203 1.199-.154.35.047.629.195.835.443.216.245.352.598.408 1.06.049.377.01.74-.113 1.089a2.94 2.94 0 01-.562.95 4.46 4.46 0 01-.907.776 5.262 5.262 0 01-1.17.548c-.586.195-1.001.256-1.246.184-.235-.076-.364-.206-.387-.39-.017-.11-.003-.196.043-.26.044-.071.13-.129.26-.172a1.44 1.44 0 01.353-.06 3.73 3.73 0 00.621-.163c.431-.144.8-.333 1.105-.569.314-.239.548-.5.704-.781.153-.291.213-.585.182-.882-.034-.277-.133-.46-.296-.55-.155-.092-.401-.082-.738.03a2.258 2.258 0 00-.893.556c-.253.247-.47.545-.652.894a4.026 4.026 0 00-.388 2.303c.043.332.133.619.27.861a1.1 1.1 0 00.595.494c.267.084.599.06.996-.072.448-.15.814-.333 1.096-.552.288-.23.518-.46.69-.69.174-.23.319-.428.437-.592.118-.164.238-.266.359-.306.146-.05.268-.027.366.065.103.08.166.214.189.398.023.185-.034.405-.17.661a3.515 3.515 0 01-.578.769 5.09 5.09 0 01-.877.738c-.33.215-.69.388-1.078.517zm-7.133 2.299a3.36 3.36 0 01-1.142.193c-.348-.01-.634-.078-.858-.205-.224-.127-.352-.296-.383-.506a.672.672 0 01.052-.32c.043-.1.121-.17.233-.207a.452.452 0 01.255-.013l.297.074c.115.03.272.04.47.031a3.51 3.51 0 00.76-.18c.482-.16.862-.417 1.139-.768.282-.363.379-.85.29-1.465-.047-.435-.165-.804-.351-1.107-.18-.315-.41-.56-.689-.736a1.974 1.974 0 00-.952-.317 2.877 2.877 0 00-1.126.158 3.13 3.13 0 00-.587.267 2.854 2.854 0 01-.521.246.55.55 0 01-.28.02.391.391 0 01-.225-.155.559.559 0 01-.099-.255c-.025-.251.072-.48.29-.687.225-.219.609-.419 1.152-.6.579-.191 1.125-.263 1.64-.213.522.047.99.203 1.404.47.41.256.75.619 1.02 1.086.275.456.453 1.006.532 1.652a3.21 3.21 0 01-.062 1.202 3.097 3.097 0 01-.437 1.024 3.35 3.35 0 01-.773.79 4.01 4.01 0 01-1.049.52zm-1.942 4.333a.503.503 0 01-.298.012.354.354 0 01-.21-.16.78.78 0 01-.112-.337 1.163 1.163 0 01.022-.411c.026-.124.052-.277.078-.458a5.12 5.12 0 00.057-.653 6.826 6.826 0 00-.058-1.003c-.08-.674-.22-1.329-.42-1.963-.2-.634-.408-1.276-.622-1.925a12.286 12.286 0 01-.458-2.036c-.029-.231-.008-.416.06-.554a.583.583 0 01.346-.302.456.456 0 01.384.031.707.707 0 01.314.299c.083.135.133.301.15.497.069.554.167 1.068.296 1.544.134.464.274.917.42 1.358.154.438.296.88.425 1.328.128.447.223.92.282 1.418.063.45.095.866.097 1.25.003.383-.025.719-.083 1.007-.05.285-.13.518-.243.7a.764.764 0 01-.427.358zm-5.535-1.775c-.716.238-1.316.293-1.798.166a1.935 1.935 0 01-1.133-.82c-.272-.417-.447-.93-.523-1.539a5.095 5.095 0 01.07-1.435 5.682 5.682 0 01.503-1.478c.245-.475.553-.89.925-1.243.377-.365.811-.63 1.303-.793.682-.227 1.236-.23 1.664-.007.437.22.696.672.779 1.355.07.504-.008.977-.235 1.417a3.6 3.6 0 01-1.011 1.157c-.435.337-.937.6-1.506.789-.587.195-1.002.256-1.246.184-.236-.075-.365-.205-.388-.39-.017-.11-.002-.196.044-.259.043-.072.13-.13.259-.173.095-.031.212-.051.353-.06a3.74 3.74 0 00.621-.163c.432-.143.8-.333 1.105-.569a2.53 2.53 0 00.704-.781c.153-.29.214-.585.183-.882-.035-.276-.133-.46-.297-.55-.155-.092-.4-.082-.737.03-.44.146-.816.415-1.127.807a3.978 3.978 0 00-.696 1.369 3.899 3.899 0 00-.11 1.578c.042.331.132.618.27.86a1.1 1.1 0 00.594.494c.267.084.6.06.996-.072.449-.15.814-.333 1.096-.552.288-.23.518-.46.691-.69.173-.23.318-.428.436-.592.119-.164.238-.266.359-.306.146-.049.268-.027.366.065.104.081.167.214.19.398.022.185-.035.405-.17.662-.13.244-.323.5-.579.768-.248.265-.54.51-.876.738a4.66 4.66 0 01-1.079.517zm-8.595.553c-.328.11-.624.126-.888.05a1.367 1.367 0 01-.68-.45 2.282 2.282 0 01-.405-.83 4.294 4.294 0 01-.175-1.051c-.017-.37.001-.72.053-1.055.061-.337.152-.627.273-.868.122-.242.273-.394.454-.454a.46.46 0 01.237-.021c.08.012.15.046.207.104.054.05.093.123.116.22a1.4 1.4 0 01-.01.407 20.81 20.81 0 01-.074.644 5.032 5.032 0 00-.048.765c0 .26.035.512.106.757.052.156.11.285.172.39.06.094.134.156.22.185.095.026.202.02.323-.02.276-.093.538-.256.786-.492.247-.236.465-.52.652-.85a5.61 5.61 0 00.476-1.038c.118-.365.19-.715.213-1.05l.545 1.302a8.152 8.152 0 01-.61 1.5c-.24.463-.526.856-.86 1.178-.325.32-.686.545-1.083.677zm3.456 1.199c-.19.063-.348.034-.474-.087a2.027 2.027 0 01-.353-.502 4.87 4.87 0 01-.219-.619 11.93 11.93 0 01-.308-1.756 27.8 27.8 0 01-.092-1.582 19.26 19.26 0 01-.007-.804c0-.26-.001-.465-.004-.618a2.718 2.718 0 01.07-.744c.061-.193.17-.315.324-.367.147-.048.302 0 .466.148.164.147.26.37.292.666.028.202.04.486.038.852-.007.357-.009.728-.006 1.111.008.372.027.692.058.96.049.435.105.81.171 1.124.066.314.137.588.214.822.049.176.096.318.142.428.046.11.074.21.086.303a.68.68 0 01-.074.384c-.052.133-.16.226-.324.28zM8 77.887c-.708.235-1.342.273-1.902.114a2.52 2.52 0 01-1.349-.95c-.34-.481-.56-1.085-.656-1.811a3.819 3.819 0 01.07-1.435c.12-.453.284-.853.494-1.202a3.62 3.62 0 01.722-.859c.259-.23.496-.38.712-.453a.63.63 0 01.246-.038c.077.003.143.03.198.078.06.038.097.107.112.208.014.187-.002.37-.049.549-.049.17-.184.354-.406.552a3.85 3.85 0 00-.626.756 2.26 2.26 0 00-.303.778c-.055.268-.056.57-.002.907.094.747.362 1.282.804 1.605.44.315.97.37 1.59.163.605-.2 1.06-.592 1.365-1.174.311-.593.416-1.276.314-2.048-.083-.712-.297-1.217-.645-1.514-.35-.306-.784-.373-1.301-.201a1.488 1.488 0 00-.635.383c-.147.165-.3.369-.458.614-.112.181-.199.34-.26.475-.06.135-.119.246-.177.332a.465.465 0 01-.246.169.38.38 0 01-.323-.023c-.089-.066-.146-.196-.172-.389-.031-.21 0-.447.096-.709.104-.265.248-.524.433-.777.19-.265.41-.497.66-.695a2.4 2.4 0 01.786-.448c.62-.207 1.174-.228 1.66-.063.482.157.877.467 1.184.932.304.455.496 1.035.575 1.738.094.69.05 1.338-.132 1.945a3.885 3.885 0 01-.895 1.55 3.508 3.508 0 01-1.485.94zm52.509-30.274a.553.553 0 01-.608-.144 2.225 2.225 0 01-.417-.74 13.122 13.122 0 01-.163-.536 7.985 7.985 0 01-.15-.627c-.034-.22-.067-.42-.098-.601l-.064-.627a92.144 92.144 0 00-.055-.774 31.118 31.118 0 00-.046-.748 12.631 12.631 0 00-.034-.536c-.02-.118-.073-.192-.159-.22-.089-.038-.22-.028-.392.029a4.583 4.583 0 00-.444.177 7.547 7.547 0 00-.505.254 4.26 4.26 0 00-1.04.807c-.277.293-.398.564-.364.812a.823.823 0 00.245.523c.146.124.373.188.68.191.317 0 .742-.088 1.277-.266a13.152 13.152 0 001.096-.422 7.29 7.29 0 01.436-.202c.115-.057.19-.092.224-.103.216-.072.402-.12.557-.142.155-.023.241.05.258.216a.613.613 0 01-.147.51c-.121.156-.304.298-.548.427a5.514 5.514 0 01-.859.358l-1.333.443c-.466.155-.923.22-1.371.197-.44-.027-.81-.149-1.112-.365-.293-.22-.468-.531-.525-.935-.025-.25.007-.53.096-.838.096-.32.274-.648.536-.985.271-.34.66-.67 1.166-.992.363-.236.673-.411.932-.526.26-.115.522-.217.79-.306.336-.112.615-.152.837-.12a.813.813 0 01.517.26.944.944 0 01.24.554c.026.193.042.432.05.718.006.276.014.562.025.856.017.282.034.536.05.76.026.223.062.46.107.714a10.465 10.465 0 00.317 1.306c.063.19.135.392.215.606.086.202.133.344.142.428a.536.536 0 01-.066.367.51.51 0 01-.293.242zm-4.56 1.501a.468.468 0 01-.414-.035.506.506 0 01-.202-.35.66.66 0 01.1-.35c.07-.139.205-.308.406-.51a7.12 7.12 0 00.963-1.213c.306-.466.598-.972.878-1.516l.97.196c-.188.418-.402.84-.645 1.266a15.02 15.02 0 01-.734 1.166c-.245.36-.481.659-.709.898-.227.239-.432.388-.613.448zm-4.001 1.316c-.639.212-1.206.262-1.703.149a2.182 2.182 0 01-1.206-.78c-.308-.407-.5-.929-.576-1.566a4.52 4.52 0 01.089-1.6c.13-.532.34-1.025.632-1.477a5.098 5.098 0 011.067-1.204c.414-.34.871-.592 1.372-.759.224-.074.434-.106.63-.094a.72.72 0 01.47.16c.126.093.197.237.214.433a.797.797 0 01-.065.454.51.51 0 01-.294.242.415.415 0 01-.237.021 3.004 3.004 0 00-.203-.048c-.063-.017-.16-.004-.289.039a2.86 2.86 0 00-1.26.836 3.749 3.749 0 00-.782 1.326 3.33 3.33 0 00-.166 1.453c.06.383.172.696.339.938.172.23.394.383.667.455.282.07.59.048.927-.063.38-.127.668-.27.863-.431.193-.17.336-.333.428-.488.1-.159.18-.295.238-.41a.414.414 0 01.25-.242c.164-.055.29-.053.375.005.095.055.157.183.185.385a1.56 1.56 0 01-.187.912c-.161.293-.399.56-.712.798a3.56 3.56 0 01-1.066.556zm-12.251 4.102c-.207.069-.402 0-.586-.208-.183-.208-.308-.57-.373-1.086a19.28 19.28 0 01-.106-1.146 9.746 9.746 0 01.041-1.742c.076-.755.168-1.361.275-1.82.104-.466.24-.823.407-1.07.167-.248.367-.41.6-.488a.487.487 0 01.487.083c.152.112.284.265.396.458.112.194.215.39.31.589.125.265.27.558.433.878.172.317.35.638.534.96.192.32.387.62.585.9.206.278.41.503.61.676l-.43.259c.086-.577.19-1.159.312-1.746.122-.588.25-1.154.387-1.699.136-.544.27-1.035.403-1.473.153-.464.299-.805.437-1.024.147-.222.298-.358.453-.41a.671.671 0 01.337-.025c.109.011.208.036.297.074.127.063.239.156.336.277.098.121.175.326.232.614.128.649.262 1.228.403 1.739.145.498.278.915.399 1.25.206.593.406 1.055.601 1.384.204.326.31.545.318.657a.41.41 0 01-.091.333.562.562 0 01-.31.233c-.208.069-.413.027-.617-.126-.195-.156-.366-.397-.512-.723-.138-.3-.294-.685-.468-1.155a22.045 22.045 0 01-.49-1.609 25.335 25.335 0 01-.402-1.911l.346-.216c-.107.372-.226.795-.356 1.27a171.7 171.7 0 00-.382 1.452 71.39 71.39 0 00-.343 1.483c-.098.484-.178.937-.239 1.36-.04.197-.11.364-.207.502a.707.707 0 01-.38.285.939.939 0 01-.565.03 1.432 1.432 0 01-.474-.304 5.014 5.014 0 01-.43-.52l-.31-.458a19.033 19.033 0 01-1.324-2.397 8.32 8.32 0 01-.34-.852l.354-.233a15.311 15.311 0 00-.364 1.503c-.081.479-.128.96-.14 1.444-.007.473.02.973.08 1.5.042.36.087.672.136.934.057.26.094.459.11.597a.95.95 0 01-.056.437c-.052.132-.16.225-.324.28zm-5.161 1.701c-.535.178-1.008.254-1.419.227-.405-.038-.747-.16-1.025-.364a2.342 2.342 0 01-.68-.84 4.015 4.015 0 01-.33-1.215 5.098 5.098 0 01.071-1.435 5.681 5.681 0 01.503-1.478 4.64 4.64 0 01.924-1.244c.377-.365.812-.63 1.303-.793.458-.152.857-.203 1.2-.154.35.047.629.194.835.443.215.245.351.598.408 1.06.048.377.01.74-.114 1.088a2.94 2.94 0 01-.562.95c-.25.285-.552.544-.906.777a5.267 5.267 0 01-1.17.547c-.586.196-1.002.257-1.246.184-.236-.075-.365-.205-.387-.39-.017-.109-.003-.195.043-.259.043-.072.13-.13.26-.172a1.35 1.35 0 01.353-.06 3.72 3.72 0 00.62-.163c.432-.144.8-.333 1.105-.57.314-.238.549-.498.704-.78.153-.291.214-.585.183-.882-.034-.277-.133-.46-.297-.55-.155-.092-.4-.082-.737.03a2.257 2.257 0 00-.893.556 3.485 3.485 0 00-.653.893 4.027 4.027 0 00-.387 2.304c.043.332.133.618.27.86.135.234.333.399.594.494.268.084.6.06.996-.072.45-.149.815-.333 1.097-.551.287-.23.518-.46.69-.69.173-.231.319-.428.437-.592.118-.164.237-.267.358-.307.147-.048.269-.027.367.066.103.08.166.213.189.398.022.184-.034.405-.17.66-.13.246-.322.502-.578.77a5.09 5.09 0 01-.877.737 4.66 4.66 0 01-1.079.517zm-6.886 5.905c-.526.175-.988.27-1.384.287-.394.026-.702-.021-.923-.14-.22-.118-.343-.284-.366-.497a.661.661 0 01.057-.393.628.628 0 01.35-.246.66.66 0 01.306-.03c.1.014.215.029.345.044.132.023.305.023.517 0 .222-.025.5-.094.837-.206.414-.137.73-.343.945-.616.216-.274.352-.602.407-.985.064-.387.067-.81.01-1.271a5.954 5.954 0 00-.14-.774c-.055-.251-.115-.52-.18-.805a41.524 41.524 0 01-.214-.994 19.94 19.94 0 01-.227-1.38l.526.243c-.079.689-.193 1.27-.343 1.742a4.976 4.976 0 01-.515 1.136 2.72 2.72 0 01-.6.66 2.197 2.197 0 01-.575.306c-.75.25-1.375.112-1.874-.413-.503-.534-.845-1.539-1.026-3.015-.08-.617-.112-1.09-.097-1.422.023-.334.083-.575.178-.722a.67.67 0 01.35-.289.473.473 0 01.344 0c.098.035.171.126.22.273.057.145.093.353.107.627.042.591.103 1.137.183 1.639a7 7 0 00.304 1.267c.126.352.273.61.443.774.166.156.366.196.599.118.362-.12.654-.424.876-.91.22-.496.374-1.114.465-1.854a17.06 17.06 0 00.12-2.46c-.003-.268.022-.454.074-.557.049-.113.155-.196.32-.25a.523.523 0 01.362.008c.129.044.235.162.318.355.089.182.136.455.141.818.017.484.048.91.093 1.28.054.366.121.713.201 1.042.077.32.161.647.253.981.097.323.188.687.274 1.09.083.395.16.86.23 1.392.08.617.077 1.156-.01 1.617-.084.47-.23.869-.438 1.197a2.672 2.672 0 01-.794.811c-.311.219-.66.393-1.049.522zm-11.193-.7c.026-.297.073-.634.14-1.012.063-.386.136-.79.217-1.21.09-.423.183-.838.278-1.244.101-.418.201-.797.3-1.137.132-.438.272-.854.42-1.248a5.84 5.84 0 01.462-.99c.168-.276.333-.441.497-.496a.619.619 0 01.526.07c.186.101.387.303.602.606.15.22.325.502.525.848a25.806 25.806 0 011.225 2.401c.19.427.35.825.481 1.194l-1.104.483a16.667 16.667 0 00-.537-1.32 18.816 18.816 0 00-.653-1.367 15.77 15.77 0 00-.641-1.112c-.2-.317-.369-.52-.503-.61l.47-.272c-.179.386-.358.83-.537 1.331-.17.498-.313 1.021-.43 1.569a91.91 91.91 0 00-.238 1.145c-.073.36-.135.707-.187 1.041-.047.323-.09.654-.131.994l-1.182.336zm6.424.615a.506.506 0 01-.685-.42 2.215 2.215 0 01.013-.524c.03-.23.053-.492.07-.786a4.53 4.53 0 00-.033-.882l.685.507a8.794 8.794 0 00-.586.137c-.256.066-.578.164-.967.293a83.877 83.877 0 00-2.804.99c-.451.169-.878.34-1.281.512a18.61 18.61 0 00-1.096.508l.355-.622a10.034 10.034 0 00.21.938c.048.177.09.33.124.463l.09.273c.04.15.025.28-.044.389a.546.546 0 01-.32.25c-.206.07-.376.034-.508-.104a1.427 1.427 0 01-.31-.546 4.086 4.086 0 01-.163-.536 4.353 4.353 0 01-.102-.527c-.012-.15 0-.288.035-.415a.822.822 0 01.177-.376 1.35 1.35 0 01.41-.324c.205-.106.484-.232.837-.379.36-.158.765-.321 1.217-.49.457-.181.93-.358 1.42-.53a41.22 41.22 0 011.401-.495c.225-.075.472-.152.742-.232.268-.09.532-.158.794-.207.259-.057.453-.035.582.066.138.098.227.294.266.588.029.231.04.482.034.753a4.25 4.25 0 01-.088.778c-.04.253-.104.466-.19.64-.078.17-.173.273-.285.31zm-12.978 2.37c-.397.132-.752.145-1.065.038-.305-.11-.56-.318-.767-.624-.198-.309-.327-.698-.386-1.168a5 5 0 01.015-1.387c.075-.496.207-.981.395-1.457.184-.483.415-.93.691-1.339.283-.42.604-.781.964-1.083a3.67 3.67 0 011.186-.668c.199-.066.371-.066.518 0 .146.067.232.211.258.433a.52.52 0 01-.052.32.634.634 0 01-.294.242 4.243 4.243 0 00-1.468 1.208 5.21 5.21 0 00-.865 1.684 4.39 4.39 0 00-.166 1.755c.03.268.08.506.15.714.065.198.194.444.386.735l-.788-.732c.222.148.403.231.543.252.15.017.341-.013.574-.09.552-.184.996-.725 1.33-1.623.335-.899.52-2.108.554-3.626a.916.916 0 01.121-.459.615.615 0 01.341-.271.523.523 0 01.539.109c.166.127.284.323.352.588.146.557.292 1.055.438 1.497.152.43.334.82.546 1.172.22.349.515.688.882 1.017.08.07.135.162.163.277a.67.67 0 01.017.355.747.747 0 01-.134.332.556.556 0 01-.28.194.58.58 0 01-.337.026.706.706 0 01-.254-.16 6.286 6.286 0 01-.56-.607 5.36 5.36 0 01-.516-.779 6.934 6.934 0 01-.446-1.133 15.686 15.686 0 01-.39-1.613l.461-.168c.002.96-.071 1.795-.22 2.507-.15.703-.355 1.3-.614 1.789-.254.478-.54.86-.856 1.148-.316.288-.639.486-.966.595zm-8.212 2.73a.47.47 0 01-.478-.1c-.138-.127-.228-.37-.27-.73a35.495 35.495 0 00-.244-1.648 34.703 34.703 0 00-.244-1.388c-.076-.435-.15-.858-.217-1.267a38.056 38.056 0 01-.198-1.29 4.696 4.696 0 01.107-1.806c.15-.56.43-1.046.838-1.46.409-.415.954-.735 1.636-.962.621-.206 1.19-.237 1.707-.092a2.37 2.37 0 011.297.88c.344.432.559.995.644 1.686.068.467.046.921-.067 1.362a3.67 3.67 0 01-.567 1.197 4.226 4.226 0 01-.993.949 5.047 5.047 0 01-1.32.655c-.423.14-.792.21-1.108.21-.308-.003-.55-.057-.729-.161a.566.566 0 01-.301-.433.551.551 0 01.057-.35.47.47 0 01.25-.198.7.7 0 01.35-.03c.117.009.267.012.448.01.186-.015.448-.078.785-.19.44-.146.82-.359 1.139-.638.325-.29.566-.62.721-.988.162-.38.214-.773.158-1.176-.052-.444-.188-.797-.408-1.06a1.436 1.436 0 00-.789-.515 1.7 1.7 0 00-1.004.046c-.647.215-1.114.557-1.399 1.026-.28.458-.38 1.02-.304 1.686.054.423.115.84.183 1.25.077.406.157.835.24 1.288.09.45.18.948.265 1.496.085.548.173 1.176.264 1.885a.958.958 0 01-.066.54c-.066.147-.194.252-.384.315z" fill="#E71985"/><path fill-rule="evenodd" clip-rule="evenodd" d="M102.446 1.87a.76.76 0 01.526.936l-1.837 6.582a.758.758 0 11-1.459-.41l1.328-4.758c-4.975 3.115-8.233 6.714-10.332 10.563-2.322 4.255-3.254 8.862-3.477 13.548-.224 4.693.263 9.43.757 13.948l.067.609c.467 4.266.915 8.352.69 11.905-.14 2.736-.685 5.23-1.983 7.293-1.311 2.082-3.346 3.652-6.326 4.606l-.015-.049-.123.04a.76.76 0 01-.46-1.447c2.703-.866 4.444-2.239 5.562-3.98 1.128-1.756 1.667-3.957 1.832-6.55.176-3.456-.322-7.475-.864-11.857l-.063-.512c-.562-4.553-1.14-9.452-.98-14.327.16-4.883 1.062-9.78 3.483-14.332 2.174-4.086 5.55-7.856 10.638-11.083l-3.937-1.104a.76.76 0 01.408-1.463l5.322 1.493.046-.026.025.046 1.172.329z" fill="#E71985"/></svg>