<svg width="159" height="169" fill="none" xmlns="http://www.w3.org/2000/svg"><path d="M10.79 14a4.717 4.717 0 01-1.386-.23 9.26 9.26 0 01-1.55-.644 10.921 10.921 0 01-1.477-.985 8.174 8.174 0 01-1.209-1.203 4.998 4.998 0 01-.777-1.347 2.505 2.505 0 01-.111-1.386c.095-.528.322-1.063.68-1.604.36-.553.82-1.1 1.383-1.642A16.929 16.929 0 018.302 3.35c.73-.53 1.521-1.036 2.372-1.519.432-.241.78-.428 1.043-.561.264-.133.492-.2.684-.2.216 0 .378.065.486.197.12.12.15.3.091.54-.035.24-.16.462-.376.666-.204.193-.521.404-.953.633-.851.459-1.624.929-2.319 1.411A18.63 18.63 0 007.551 5.89c-.491.446-.88.867-1.167 1.264-.287.385-.46.721-.52 1.01-.06.347.002.725.182 1.133.193.395.494.796.903 1.203.409.395.92.765 1.532 1.112.613.334 1.31.608 2.09.821.492.155.805.304.937.448a.548.548 0 01.145.54.659.659 0 01-.25.432c-.133.096-.336.145-.612.146zm-7.955.023c-.288 0-.499-.112-.631-.34-.12-.228-.17-.6-.147-1.116.035-.528.136-1.23.302-2.107.19-.948.404-1.837.642-2.665.238-.841.459-1.592.661-2.252.203-.661.34-1.195.41-1.604.084-.396.131-.708.143-.936.011-.24.017-.456.016-.648 0-.192.024-.396.071-.612.048-.24.137-.415.269-.523a.764.764 0 01.504-.182c.264 0 .45.09.558.269.12.18.193.42.218.72.024.287.013.6-.034.935-.036.324-.083.63-.142.919-.095.516-.25 1.11-.464 1.783a282.27 282.27 0 00-.626 2.108A25.92 25.92 0 004.05 9.88a25.594 25.594 0 00-.25 1.458c-.046.36-.076.648-.087.865-.012.204-.03.39-.053.558a8.603 8.603 0 01-.07.594.923.923 0 01-.27.487.696.696 0 01-.485.181zm13.703-.058c-.744.002-1.368-.098-1.873-.3-.492-.215-.87-.508-1.136-.88a3.082 3.082 0 01-.506-1.33 5.274 5.274 0 01.086-1.656 6.67 6.67 0 01.68-1.766 7.475 7.475 0 011.239-1.642 6.118 6.118 0 011.671-1.174 4.476 4.476 0 011.961-.456c.636-.002 1.158.098 1.567.301.42.203.709.502.866.898.169.395.194.893.075 1.493a3.055 3.055 0 01-.591 1.316 3.872 3.872 0 01-1.096.957 5.894 5.894 0 01-1.457.599 6.958 6.958 0 01-1.691.203c-.816.002-1.363-.092-1.64-.284-.263-.19-.372-.406-.325-.647.024-.144.078-.246.162-.306.084-.072.216-.109.396-.11.132 0 .288.024.468.071.192.036.474.053.846.052.6-.002 1.14-.087 1.62-.257.491-.17.893-.398 1.204-.687.311-.301.509-.644.592-1.028.07-.36.022-.63-.146-.81-.157-.18-.469-.268-.937-.267a2.97 2.97 0 00-1.349.328c-.42.205-.815.488-1.186.85-.36.36-.665.775-.915 1.244a5.077 5.077 0 00-.52 1.478 3.062 3.062 0 00-.015 1.188c.073.348.254.635.542.862.3.215.727.322 1.279.32.624-.002 1.158-.081 1.601-.238a5.16 5.16 0 001.151-.58 43.4 43.4 0 00.79-.56c.217-.157.408-.235.576-.236.204 0 .349.077.433.233.096.144.12.336.073.576-.047.24-.209.492-.484.757a4.66 4.66 0 01-1.043.723c-.42.23-.887.417-1.402.562a6.158 6.158 0 01-1.566.203zm12.73-10.837c-.505.001-.931-.106-1.28-.32a2.205 2.205 0 01-.775-.826c-.17-.336-.248-.653-.236-.954.023-.324.112-.576.268-.756A.734.734 0 0127.82 0c.18 0 .313.101.397.305.097.192.199.407.307.647.097.228.223.425.38.593.168.167.42.25.756.25.228-.001.462-.068.702-.2.24-.145.455-.296.647-.452.263-.217.497-.398.7-.542.204-.157.408-.236.612-.236.144 0 .252.053.325.16.084.097.102.223.054.379-.06.216-.19.456-.394.72a3.64 3.64 0 01-.754.723 4.252 4.252 0 01-1.061.561 3.458 3.458 0 01-1.224.22zm-4.37 10.83c-.407.002-.732-.093-.972-.285a1.681 1.681 0 01-.506-.754 3.28 3.28 0 01-.164-1.044c.011-.384.052-.756.124-1.116.071-.312.166-.684.285-1.117.131-.432.274-.883.43-1.351.154-.469.303-.907.447-1.315.155-.409.28-.727.375-.955a8.69 8.69 0 01.412-.974c.132-.228.288-.343.468-.343.156 0 .3.053.432.16a.925.925 0 01.289.414c.072.168.09.354.055.558a5.678 5.678 0 01-.25.828c-.131.36-.28.763-.448 1.208-.167.444-.328.895-.483 1.351a9.049 9.049 0 00-.34 1.207 6.823 6.823 0 00-.141.937 2.31 2.31 0 00.037.72c.049.18.151.269.307.268.384 0 .87-.344 1.456-1.03.598-.685 1.262-1.63 1.992-2.832.335-.529.628-1.021.879-1.478.25-.457.472-.853.663-1.19a4.08 4.08 0 01.556-.812c.18-.192.36-.289.54-.29.276 0 .474.107.594.323.133.204.193.48.182.827 0 .312-.01.696-.033 1.153L32.05 8.43a24.9 24.9 0 00.002 1.314c.038.696.105 1.265.202 1.71.11.43.206.778.29 1.042.085.264.121.48.11.648a.883.883 0 01-.125.378.965.965 0 01-.27.271.635.635 0 01-.36.11c-.42 0-.72-.275-.901-.826-.181-.552-.321-1.29-.42-2.213a291.54 291.54 0 01-.074-1.386 30.264 30.264 0 01-.003-1.476c.023-.492.046-.948.069-1.368l.522.178c-.203.421-.442.884-.717 1.389a45.987 45.987 0 01-1.13 1.929 18.573 18.573 0 01-1.328 1.858 8.242 8.242 0 01-1.49 1.426c-.504.362-1.013.543-1.53.545zm13.226-.074c-.888.002-1.62-.17-2.197-.516a2.878 2.878 0 01-1.191-1.472c-.217-.636-.243-1.368-.077-2.196a5.94 5.94 0 01.77-1.964 6.348 6.348 0 011.4-1.588 6.723 6.723 0 011.834-1.068 5.66 5.66 0 012.033-.384c.312 0 .589.047.829.142.24.083.414.215.523.394.12.168.15.378.09.63a1.048 1.048 0 01-.268.541.673.673 0 01-.468.181.549.549 0 01-.306-.07 3.997 3.997 0 00-.234-.144c-.072-.048-.198-.072-.378-.071a3.778 3.778 0 00-1.925.528c-.6.337-1.108.783-1.527 1.336a4.38 4.38 0 00-.806 1.749c-.083.504-.07.942.038 1.313.121.36.338.641.65.844.325.204.72.304 1.189.303.528-.002.948-.063 1.26-.184.311-.133.557-.277.737-.434.191-.156.347-.295.467-.415a.546.546 0 01.413-.2c.228 0 .384.053.469.161.096.108.12.294.073.558a2.05 2.05 0 01-.61 1.064c-.323.3-.73.536-1.222.705a4.71 4.71 0 01-1.566.257zm7.024.015c-.408.002-.732-.093-.972-.285a1.682 1.682 0 01-.506-.754 3.28 3.28 0 01-.164-1.044c.011-.384.052-.756.124-1.116a26.7 26.7 0 01.285-1.117 72.725 72.725 0 01.876-2.667c.156-.408.28-.726.376-.955a8.69 8.69 0 01.412-.973c.132-.228.288-.343.468-.343.156 0 .3.053.432.16a.925.925 0 01.289.414.97.97 0 01.055.558 5.678 5.678 0 01-.25.828c-.132.36-.28.763-.448 1.208-.167.444-.328.895-.483 1.35a9.032 9.032 0 00-.34 1.208 6.825 6.825 0 00-.141.936c-.023.288-.011.528.037.72.049.18.151.27.307.27.384-.002.87-.345 1.456-1.03.598-.687 1.262-1.63 1.992-2.833.334-.529.627-1.022.878-1.478.252-.457.473-.854.664-1.19a4.08 4.08 0 01.556-.812c.18-.192.36-.289.54-.29.276 0 .474.107.594.323.133.203.193.48.182.827 0 .312-.01.696-.033 1.152L52.3 8.371c-.01.468-.01.906.003 1.314.038.695.105 1.265.202 1.709.109.432.206.78.29 1.043.085.264.121.48.11.648a.883.883 0 01-.125.378.965.965 0 01-.27.27.634.634 0 01-.36.11c-.276 0-.504-.125-.684-.376-.169-.252-.302-.605-.399-1.06-.097-.457-.176-.99-.237-1.602-.025-.432-.05-.894-.075-1.386a30.263 30.263 0 01-.003-1.476c.023-.492.046-.948.069-1.368l.522.178c-.143.277-.299.571-.466.884-.155.312-.347.667-.574 1.063-.215.385-.484.842-.807 1.37-.406.65-.849 1.27-1.328 1.859a8.241 8.241 0 01-1.49 1.426c-.504.361-1.014.543-1.53.544zM3.068 44.035a1.854 1.854 0 01-1.316-.5c-.348-.335-.62-.79-.813-1.366-.193-.576-.302-1.235-.328-1.98-.014-.743.063-1.517.229-2.322.095-.48.19-.924.285-1.333.107-.408.226-.81.357-1.207a43.6 43.6 0 01.447-1.279c.18-.468.388-1.003.627-1.604.083-.216.185-.36.305-.433a.8.8 0 01.468-.127c.144 0 .27.065.378.197.108.12.169.287.181.503.025.216-.017.462-.124.739a74.982 74.982 0 00-.609 1.676c-.154.48-.291.942-.41 1.387a45.91 45.91 0 00-.321 1.44c-.13.661-.213 1.267-.248 1.82a7.15 7.15 0 00.075 1.475c.073.42.182.75.326.99.157.227.355.34.595.34.36-.002.738-.069 1.134-.202.395-.145.767-.32 1.114-.525a4.39 4.39 0 00.917-.722c.251-.265.395-.524.43-.776.036-.18-.049-.365-.253-.557-.193-.203-.487-.389-.883-.555a7.262 7.262 0 00-1.405-.41 7.874 7.874 0 00-1.729-.14c-.336.013-.6-.04-.792-.16-.18-.119-.24-.329-.181-.629.047-.192.179-.342.395-.45.215-.122.581-.237 1.097-.346.444-.085.9-.2 1.367-.346.48-.145.941-.303 1.385-.472.456-.17.87-.35 1.24-.543.372-.193.678-.392.918-.597.24-.205.377-.397.412-.577a.845.845 0 00-.235-.756c-.193-.227-.487-.418-.884-.573a6.266 6.266 0 00-1.387-.356 11.26 11.26 0 00-1.728-.121c-.432.001-.852.008-1.26.021l-.882.003a.532.532 0 01-.414-.179.537.537 0 01-.11-.468c.06-.312.294-.558.701-.74.408-.18.972-.272 1.692-.274.96-.003 1.842.066 2.646.208.816.142 1.507.362 2.071.66.565.299.98.675 1.245 1.13.265.444.332.972.202 1.584-.072.36-.31.733-.718 1.118-.395.385-1.006.765-1.833 1.14-.828.374-1.907.725-3.238 1.053l.035-.505c.9.082 1.632.236 2.197.462.576.215 1.009.465 1.297.753.301.287.494.592.579.916.096.312.115.618.056.918-.095.504-.328.973-.7 1.406a5.374 5.374 0 01-1.329 1.137 7.99 7.99 0 01-1.654.78 5.324 5.324 0 01-1.62.274zm11.067-.068c-.744.002-1.369-.098-1.873-.3-.492-.215-.871-.508-1.136-.879a3.083 3.083 0 01-.507-1.33 5.278 5.278 0 01.086-1.657 6.739 6.739 0 01.68-1.766c.335-.6.748-1.148 1.239-1.641a6.12 6.12 0 011.671-1.175 4.476 4.476 0 011.961-.456c.636-.001 1.158.1 1.567.302.42.203.709.502.866.898.169.395.194.893.075 1.493a3.07 3.07 0 01-.59 1.316 3.873 3.873 0 01-1.097.957 5.895 5.895 0 01-1.457.598 6.958 6.958 0 01-1.691.203c-.816.002-1.362-.092-1.639-.283-.264-.192-.373-.407-.325-.647.024-.145.077-.247.161-.307.084-.072.216-.108.396-.109.132 0 .288.023.468.07.192.036.474.053.846.052.6-.001 1.14-.087 1.62-.256.491-.17.893-.399 1.204-.688a2 2 0 00.592-1.027c.071-.36.022-.63-.146-.81-.156-.18-.469-.269-.937-.267a2.97 2.97 0 00-1.349.328 4.59 4.59 0 00-1.186.849 5.3 5.3 0 00-.915 1.244c-.251.47-.424.962-.519 1.478a3.061 3.061 0 00-.015 1.188c.072.348.253.635.542.862.3.216.726.322 1.278.32.624-.001 1.158-.08 1.602-.238.456-.169.84-.362 1.15-.579.312-.217.576-.404.791-.56.216-.157.408-.235.576-.236.204 0 .348.077.432.233.097.144.121.336.074.576-.048.24-.21.492-.485.757-.263.253-.61.494-1.042.723-.42.23-.887.416-1.403.562-.503.133-1.025.2-1.565.202zm6.774-1.027c.155-.36.352-.763.59-1.207.24-.457.497-.932.772-1.425.287-.492.573-.973.86-1.442.3-.481.58-.914.843-1.298.347-.493.694-.956 1.041-1.39.348-.432.677-.781.988-1.046.323-.277.6-.416.827-.417.24 0 .45.101.63.305.193.203.362.539.507 1.006.097.336.2.762.309 1.277a34.002 34.002 0 01.548 3.509c.061.612.098 1.175.111 1.691l-1.583.149c-.013-.576-.057-1.2-.13-1.872a24.738 24.738 0 00-.257-1.979 20.739 20.739 0 00-.345-1.655c-.122-.48-.248-.803-.38-.97l.701-.147c-.383.41-.79.89-1.22 1.443a17.718 17.718 0 00-1.185 1.786c-.275.469-.532.913-.77 1.334-.24.42-.46.83-.664 1.226a55.84 55.84 0 00-.573 1.19l-1.62-.068zm7.801 3.416c-.24 0-.426-.083-.558-.25a.629.629 0 01-.128-.558c.024-.144.101-.36.233-.649.131-.276.269-.594.412-.955.143-.36.25-.733.321-1.117l.65.916a11.77 11.77 0 00-.792-.07 20.019 20.019 0 00-1.332-.032 109.969 109.969 0 00-3.924.084 40.06 40.06 0 00-1.817.113c-.576.05-1.104.11-1.584.184l.7-.632a13.117 13.117 0 00-.123 1.26 38.9 38.9 0 01-.034.63v.379c-.011.204-.083.36-.214.468a.72.72 0 01-.504.182c-.288 0-.486-.113-.595-.34a1.875 1.875 0 01-.164-.81 5.396 5.396 0 01.017-.738c.023-.3.053-.534.088-.702.048-.193.12-.36.215-.505.084-.156.21-.289.377-.397.168-.109.384-.187.648-.236.3-.049.701-.092 1.205-.13a32.464 32.464 0 011.728-.112 52.484 52.484 0 011.998-.078 56.5 56.5 0 011.962-.042c.312 0 .654.005 1.026.016.372-.001.732.022 1.08.069.348.035.582.142.703.322.132.18.163.461.092.845-.06.3-.149.619-.268.955a5.57 5.57 0 01-.43.937c-.155.3-.323.541-.503.722-.167.18-.329.27-.485.271zm5.946 2.071c-.732.002-1.35-.068-1.854-.21-.504-.131-.87-.316-1.1-.555-.228-.24-.312-.498-.253-.774a.87.87 0 01.233-.468c.132-.109.312-.163.54-.164.144 0 .276.03.396.089.12.06.258.125.414.197.156.083.373.155.649.214.288.06.666.088 1.134.087.576-.002 1.056-.13 1.44-.382a2.66 2.66 0 00.915-1.065 5.87 5.87 0 00.536-1.585c.071-.349.119-.69.142-1.027.035-.336.07-.696.105-1.08.036-.384.083-.828.141-1.333.06-.516.154-1.122.285-1.818l.559.52c-.383.83-.765 1.508-1.148 2.037-.383.517-.754.92-1.113 1.21-.36.276-.701.47-1.025.578a2.906 2.906 0 01-.846.147c-1.043.003-1.77-.427-2.18-1.29-.41-.875-.425-2.273-.046-4.194.154-.804.31-1.41.464-1.82.167-.408.34-.684.52-.829a.885.885 0 01.558-.217.63.63 0 01.432.142c.108.084.163.228.163.432.013.204-.029.48-.124.828-.19.757-.339 1.465-.445 2.126a9.196 9.196 0 00-.14 1.71c.013.492.091.876.236 1.151.145.264.379.395.703.394.504-.001.995-.26 1.474-.778.48-.53.928-1.238 1.346-2.128.43-.9.817-1.91 1.163-3.027.107-.336.215-.559.322-.667.108-.12.276-.18.504-.181a.69.69 0 01.45.16c.144.108.229.3.253.576.037.264-.016.624-.16 1.08a19.32 19.32 0 00-.41 1.64c-.082.48-.141.942-.176 1.386-.035.432-.064.876-.087 1.332-.011.444-.046.936-.105 1.476a25.76 25.76 0 01-.284 1.837c-.154.805-.38 1.477-.68 2.018-.298.553-.645.992-1.04 1.317a3.525 3.525 0 01-1.331.688c-.48.145-.99.219-1.53.22zm20.069-2.145a.665.665 0 01-.378-.107.611.611 0 01-.235-.287.8.8 0 01-.019-.378c.024-.156.095-.348.215-.576.131-.229.269-.493.412-.794.143-.3.269-.636.376-1.009l.09.342c-.215.013-.563.038-1.043.075-.48.025-1.044.057-1.692.095-.648.026-1.332.051-2.052.078a138.16 138.16 0 01-4.05.155c-.575.026-1.043.039-1.403.04-.564.002-1.027-.075-1.387-.23-.36-.155-.637-.37-.83-.646a2.31 2.31 0 01-.344-.989 4.08 4.08 0 01.088-1.242c.059-.312.142-.69.25-1.135l.374-1.44c.143-.505.28-.98.41-1.424.132-.456.25-.835.358-1.135.084-.264.203-.505.358-.721.156-.216.336-.325.54-.325a.56.56 0 01.414.16.811.811 0 01.235.378.89.89 0 01.037.504c-.035.18-.137.516-.304 1.008-.155.48-.333 1.087-.536 1.82a33.222 33.222 0 00-.57 2.468c-.083.42-.052.768.092 1.043.145.276.451.413.92.412.9-.003 1.805-.017 2.717-.044a162.633 162.633 0 005.004-.284c.707-.05 1.301-.088 1.781-.113.48-.038.804-.056.972-.057.456-.001.78.094.973.285.192.192.24.522.146.99a5.022 5.022 0 01-.197.702 9.498 9.498 0 01-.322.811 6.172 6.172 0 01-.322.685 2.681 2.681 0 01-.485.65.845.845 0 01-.593.235zm-6.937-3.22c-.001-.384.016-.822.05-1.314.048-.504.1-1.002.16-1.495.07-.492.141-.93.212-1.314a34.02 34.02 0 01.321-1.513c.13-.505.274-1.003.429-1.495.095-.277.215-.505.358-.685a.716.716 0 01.558-.272c.168 0 .312.053.432.16.12.096.199.228.235.396.048.168.055.354.02.558-.037.18-.102.414-.197.703-.084.288-.179.63-.286 1.026a66.4 66.4 0 00-.303 1.333 17.51 17.51 0 00-.249 1.585c-.035.444-.052.84-.05 1.188 0 .348-.005.672-.017.972l-1.673.167zm6.677-.451l-1.62-.031c.143-.325.274-.68.393-1.063a25.782 25.782 0 00.696-2.829c.142-.672.237-1.218.284-1.638.06-.432.094-.775.106-1.027.023-.252.047-.444.07-.576a1.18 1.18 0 01.27-.577.65.65 0 01.485-.235c.24 0 .45.083.63.25.18.168.253.425.218.774-.023.36-.058.714-.105 1.062a26.255 26.255 0 01-.356 2.035c-.13.66-.255 1.219-.374 1.675-.107.456-.22.853-.34 1.189a13.86 13.86 0 01-.357.991zm5.77 1.244c-.408 0-.732-.094-.972-.286a1.682 1.682 0 01-.506-.754 3.28 3.28 0 01-.164-1.044c.01-.384.052-.756.123-1.116.072-.312.167-.684.286-1.117.13-.432.274-.883.429-1.351.155-.468.304-.907.447-1.315.155-.409.28-.727.376-.955a8.91 8.91 0 01.411-.974c.132-.228.288-.342.468-.343.156 0 .3.053.432.16a.924.924 0 01.289.414c.072.168.09.354.055.558a5.678 5.678 0 01-.25.829c-.131.36-.28.762-.447 1.207-.167.444-.328.895-.483 1.351a9.032 9.032 0 00-.34 1.207 6.823 6.823 0 00-.142.937c-.023.288-.01.528.038.72.049.18.15.27.307.269.384-.002.869-.345 1.455-1.03.599-.686 1.263-1.63 1.992-2.832a28 28 0 00.879-1.479c.25-.456.472-.853.663-1.19.191-.348.377-.619.556-.811.18-.193.36-.29.54-.29.276 0 .474.107.594.323.133.203.194.48.182.827.001.312-.01.696-.033 1.152l-.033 1.404c-.011.468-.01.906.003 1.314.037.696.105 1.266.202 1.71.109.431.206.78.29 1.043.085.264.121.48.11.648a.882.882 0 01-.126.378.964.964 0 01-.27.27.635.635 0 01-.359.11c-.42.001-.72-.274-.902-.826-.18-.551-.32-1.289-.419-2.212-.025-.432-.05-.894-.075-1.386a30.262 30.262 0 01-.003-1.476c.023-.492.046-.948.069-1.368l.522.178c-.203.42-.442.883-.716 1.388a46.108 46.108 0 01-1.13 1.93c-.407.648-.85 1.268-1.328 1.857a8.247 8.247 0 01-1.49 1.426c-.504.362-1.014.543-1.53.545zM76.187 32.99c-.504.002-.93-.105-1.279-.32a2.206 2.206 0 01-.776-.826c-.168-.335-.247-.653-.236-.953.024-.324.113-.576.269-.757a.734.734 0 01.575-.272c.18 0 .312.102.397.305.096.192.199.408.307.647.097.228.223.426.38.593.168.168.42.251.756.25.156 0 .312-.03.468-.091.168-.073.324-.157.467-.253.156-.109.294-.211.414-.308.263-.216.497-.397.7-.542.204-.156.408-.235.612-.235.144 0 .252.053.324.16.085.096.103.223.055.379-.06.216-.19.456-.394.72a3.642 3.642 0 01-.755.723 4.25 4.25 0 01-1.06.56 3.457 3.457 0 01-1.224.22zm-4.368 10.83c-.408.002-.732-.093-.972-.285a1.682 1.682 0 01-.506-.754 3.28 3.28 0 01-.164-1.044c.01-.384.052-.756.123-1.116.071-.312.167-.684.286-1.117a72.21 72.21 0 01.876-2.666c.155-.409.28-.727.376-.955a8.91 8.91 0 01.411-.974c.132-.228.288-.342.468-.343.156 0 .3.053.432.161a.925.925 0 01.289.413c.072.168.09.354.055.558a5.663 5.663 0 01-.25.829c-.131.36-.28.763-.447 1.207a44.76 44.76 0 00-.483 1.351 9.027 9.027 0 00-.34 1.207 6.842 6.842 0 00-.142.937c-.023.288-.01.528.038.72.048.18.15.27.307.269.384-.001.869-.345 1.455-1.03.599-.686 1.263-1.63 1.992-2.832a28.04 28.04 0 00.879-1.478c.25-.457.472-.854.663-1.19.191-.349.377-.62.556-.812.18-.193.36-.289.54-.29.276 0 .474.107.594.323.133.203.193.48.182.827 0 .312-.01.696-.033 1.152l-.033 1.404c-.011.468-.01.907.003 1.315.037.695.105 1.265.202 1.709.109.432.205.78.29 1.043.085.264.121.48.11.648a.883.883 0 01-.126.378.966.966 0 01-.27.27.636.636 0 01-.359.11c-.42.001-.72-.274-.902-.825-.181-.552-.32-1.29-.419-2.213-.025-.432-.05-.894-.075-1.386a30.263 30.263 0 01-.003-1.476c.023-.492.046-.948.069-1.368l.522.178c-.203.42-.442.883-.717 1.388a45.932 45.932 0 01-1.13 1.93 18.596 18.596 0 01-1.327 1.857 8.237 8.237 0 01-1.491 1.426c-.503.362-1.013.543-1.529.545zm19.607-.09c-.888.002-1.62-.17-2.198-.517a2.878 2.878 0 01-1.19-1.472c-.218-.636-.244-1.368-.078-2.196a5.94 5.94 0 01.77-1.964 6.347 6.347 0 011.4-1.588 6.722 6.722 0 011.834-1.067 5.658 5.658 0 012.033-.384c.312-.001.588.046.829.142.24.083.414.214.522.394.12.168.151.378.092.63a1.049 1.049 0 01-.269.54.673.673 0 01-.468.182.549.549 0 01-.306-.071 3.96 3.96 0 00-.234-.144c-.072-.047-.198-.071-.378-.07a3.778 3.778 0 00-1.925.527c-.6.338-1.108.783-1.527 1.336a4.38 4.38 0 00-.806 1.748c-.083.505-.07.943.039 1.314.12.36.337.642.65.845.324.203.72.303 1.188.302.528-.001.948-.063 1.26-.183.312-.133.557-.278.737-.434.192-.157.347-.295.467-.416a.547.547 0 01.414-.199c.228 0 .384.053.468.16.096.108.12.294.073.559a2.05 2.05 0 01-.61 1.063c-.323.301-.73.536-1.222.706a4.71 4.71 0 01-1.565.256zm12.436-.018c-.288 0-.486-.155-.595-.466-.109-.312-.164-.708-.165-1.188 0-.36.029-.762.088-1.206.059-.456.124-.913.195-1.369.071-.456.136-.882.195-1.278.071-.397.124-.727.16-.99.047-.337.076-.625.088-.865a7.62 7.62 0 00.034-.756l.343.467-1.296.004c-.384 0-.846.02-1.386.057-.528.026-1.05.064-1.566.113a9.35 9.35 0 00-1.295.202l.844-.993a10.6 10.6 0 01-.122 2.035 38.493 38.493 0 01-.373 2.197c-.071.348-.148.738-.231 1.17a26.55 26.55 0 01-.268 1.243c-.095.396-.184.715-.267.955-.072.192-.18.354-.323.487a.79.79 0 01-.522.181c-.24 0-.414-.113-.523-.34-.108-.228-.127-.522-.056-.882.048-.264.113-.565.196-.9.084-.349.16-.71.232-1.081.071-.373.136-.709.196-1.009.13-.6.213-1.116.248-1.549.047-.444.082-.834.106-1.17.035-.336.082-.66.141-.972.072-.265.18-.469.323-.613.156-.145.371-.247.647-.308.408-.085.882-.147 1.422-.184.552-.05 1.116-.081 1.692-.095a82.027 82.027 0 011.674-.023c.696-.002 1.2.135 1.513.41.312.275.397.76.255 1.457-.048.24-.107.577-.178 1.009-.071.432-.154.912-.249 1.44a35.78 35.78 0 00-.212 1.603 17.06 17.06 0 00-.105 1.476c-.011.193-.011.39.002.594.012.204.006.378-.017.523a.845.845 0 01-.845.614zm5.065.004c-.408 0-.733-.094-.973-.286a1.69 1.69 0 01-.506-.754 3.305 3.305 0 01-.164-1.044c.011-.384.052-.756.123-1.116.072-.312.167-.685.286-1.117.131-.432.274-.883.429-1.351.155-.469.304-.907.447-1.316.155-.408.28-.726.376-.955.155-.42.292-.744.412-.973.131-.228.287-.343.467-.343.156 0 .3.053.432.16a.916.916 0 01.289.414.955.955 0 01.055.558 5.497 5.497 0 01-.25.828c-.131.36-.28.763-.447 1.208a44.76 44.76 0 00-.483 1.351 8.993 8.993 0 00-.339 1.207 6.674 6.674 0 00-.142.936c-.024.288-.011.529.037.72.049.18.151.27.307.27.384-.002.869-.345 1.456-1.03.598-.686 1.262-1.63 1.991-2.832a27.92 27.92 0 00.879-1.479c.251-.457.472-.853.663-1.19.192-.348.377-.619.557-.811.179-.193.359-.29.539-.29.276 0 .474.107.595.322.132.204.193.48.182.828 0 .312-.011.696-.034 1.152l-.033 1.404c-.011.468-.01.906.003 1.314.038.696.105 1.266.202 1.71.109.431.206.779.29 1.043.085.264.121.48.11.648a.897.897 0 01-.125.378.968.968 0 01-.27.27.636.636 0 01-.36.11c-.42 0-.72-.274-.901-.826-.182-.551-.321-1.289-.419-2.213-.025-.432-.05-.894-.075-1.385a30.263 30.263 0 01-.004-1.476c.023-.492.046-.949.069-1.369l.523.179c-.203.42-.442.883-.717 1.388a46.498 46.498 0 01-1.13 1.93 18.56 18.56 0 01-1.328 1.857 8.225 8.225 0 01-1.491 1.426c-.503.362-1.012.543-1.528.545zm16.639-.048c-.36.001-.756-.106-1.188-.32a6.536 6.536 0 01-1.28-.897c-.409-.37-.788-.765-1.137-1.184a6.896 6.896 0 01-.795-1.204 1.786 1.786 0 01-.235-.522 2.226 2.226 0 01-.019-.486 3.67 3.67 0 01.143-.324c.06-.12.138-.228.234-.325.143-.192.389-.45.736-.776.347-.325.748-.674 1.204-1.047.467-.385.946-.74 1.437-1.066.503-.338.977-.615 1.42-.832.456-.218.846-.327 1.17-.328.132 0 .234.03.306.09.084.06.144.137.18.233a.587.587 0 01.037.288c-.011.264-.185.517-.52.758-.336.24-.695.463-1.079.669a21 21 0 00-1.815 1.139c-.527.373-.953.704-1.276.993-.311.29-.473.494-.485.614-.023.12.055.33.236.629.18.288.457.617.83.988.373.359.811.693 1.316 1.004.228.143.451.28.667.412.228.12.409.245.541.377.144.12.21.257.199.413a.713.713 0 01-.431.613.875.875 0 01-.396.091zm-5.994 0c-.312 0-.522-.155-.631-.467-.108-.324-.139-.785-.093-1.386.059-.612.171-1.35.337-2.215.072-.36.155-.738.25-1.134l.321-1.19c.107-.407.196-.804.267-1.188.024-.096.042-.192.054-.288.024-.108.041-.216.053-.324.048-.24.113-.439.197-.595.083-.156.179-.276.287-.36a.578.578 0 01.36-.146c.276 0 .492.125.649.377.168.239.205.58.11 1.025-.06.3-.155.673-.286 1.117-.119.432-.244.877-.375 1.333-.131.456-.232.859-.303 1.207a33.84 33.84 0 00-.248 1.675c-.047.492-.076.9-.088 1.224-.011.312-.034.528-.07.648a.838.838 0 01-.161.379.679.679 0 01-.27.216.669.669 0 01-.36.091zm10.536-.013c-.408.002-.732-.093-.972-.285a1.681 1.681 0 01-.506-.754 3.277 3.277 0 01-.165-1.044c.012-.384.053-.756.124-1.116.071-.313.166-.685.286-1.117a65.106 65.106 0 01.876-2.666c.155-.409.28-.727.375-.956.156-.42.293-.745.412-.973.132-.228.288-.343.468-.343.156 0 .3.053.432.16a.932.932 0 01.289.414.963.963 0 01.055.558 5.745 5.745 0 01-.25.828c-.131.36-.28.763-.447 1.208-.167.444-.328.895-.483 1.351a9.01 9.01 0 00-.34 1.207 6.98 6.98 0 00-.142.936c-.023.288-.01.528.038.72.048.18.151.27.307.27.384-.002.869-.345 1.455-1.03.599-.686 1.263-1.63 1.992-2.832a27.88 27.88 0 00.879-1.479c.251-.457.472-.853.663-1.19.191-.348.377-.619.556-.811.18-.193.36-.29.54-.29.276 0 .474.107.594.322.133.204.193.48.182.828.001.312-.01.696-.033 1.152l-.033 1.404c-.011.468-.01.906.003 1.314.037.696.105 1.266.202 1.71.109.431.205.779.29 1.043.084.264.121.48.109.647a.87.87 0 01-.125.379.964.964 0 01-.269.27.637.637 0 01-.36.11c-.276 0-.504-.125-.685-.377-.168-.251-.301-.605-.398-1.06-.097-.456-.176-.99-.238-1.602-.025-.432-.05-.894-.075-1.386a30.263 30.263 0 01-.003-1.476c.023-.492.046-.948.069-1.368l.522.179c-.143.276-.298.57-.466.883a20.57 20.57 0 01-.573 1.064 46.35 46.35 0 01-.807 1.37c-.407.65-.85 1.268-1.328 1.858a8.258 8.258 0 01-1.491 1.426c-.503.361-1.013.543-1.529.544zm10.754-.03c-.432.001-.72-.274-.865-.826-.146-.551-.129-1.283.049-2.196.142-.636.303-1.117.482-1.441.192-.337.407-.565.647-.686.132-.072.318-.115.558-.128a7.9 7.9 0 01.756-.038 26.404 26.404 0 002.591-.133 13.01 13.01 0 002.537-.547l.327 1.24a10.26 10.26 0 01-2.015.546 21.67 21.67 0 01-2.195.259c-.732.038-1.446.058-2.142.06l-1.045-.16c.155-.708.315-1.452.481-2.233.167-.78.309-1.477.428-2.089a1.5 1.5 0 01.286-.703c.144-.18.306-.27.486-.271.3 0 .522.118.666.358.145.228.164.594.057 1.098-.048.264-.119.582-.214.955-.095.372-.196.762-.303 1.17-.096.409-.191.799-.286 1.171-.083.36-.148.66-.196.9a26.341 26.341 0 00-.32 1.874c-.058.54-.112.948-.159 1.224a.754.754 0 01-.233.415.496.496 0 01-.378.18zm6.21-.018c-.3.001-.516-.172-.649-.52-.121-.348-.176-.821-.165-1.421.023-.613.105-1.285.248-2.017.237-1.153.445-2.065.623-2.738.191-.684.364-1.225.519-1.621.095-.265.215-.499.358-.703.144-.205.318-.307.522-.308.264 0 .45.125.558.377.121.24.146.533.074.881-.083.433-.214.9-.392 1.406a12.07 12.07 0 00-.411 1.639c-.142.72-.243 1.374-.301 1.962a27.974 27.974 0 00-.087 1.459c-.011.396-.041.69-.088.882a.842.842 0 01-.809.722zm4.562-.03c-.288 0-.504-.131-.649-.395-.133-.263-.181-.63-.146-1.097.011-.204.046-.486.106-.847.059-.36.13-.762.213-1.206l.249-1.369c.095-.456.178-.877.249-1.26.083-.385.149-.691.196-.92.119-.624.28-1.08.483-1.369.215-.3.527-.481.935-.542a12.39 12.39 0 011.224-.13c.443-.037.881-.056 1.313-.057.324-.001.654.01.991.033.336.01.648.034.936.069.288.035.516.089.684.16.144.06.246.15.307.27.06.107.078.227.054.359-.047.24-.197.415-.448.523a2.038 2.038 0 01-.81.165 5.9 5.9 0 01-.684-.034 9.987 9.987 0 00-.666-.053 10.01 10.01 0 00-.954-.033c-.48.002-.888.027-1.224.076-.336.049-.714.122-1.134.219l.881-.579c-.095.313-.196.655-.304 1.027-.095.36-.196.769-.303 1.225-.107.444-.214.949-.321 1.513a26.488 26.488 0 00-.284 1.675 34.11 34.11 0 00-.159 1.314c-.035.36-.065.594-.088.703-.036.192-.114.33-.233.414a.646.646 0 01-.414.145zM6.739 60.005c-.36.002-.756-.105-1.189-.32a6.54 6.54 0 01-1.28-.897c-.408-.37-.787-.765-1.136-1.184a6.885 6.885 0 01-.795-1.204 1.757 1.757 0 01-.235-.521 2.224 2.224 0 01-.02-.486c.037-.096.084-.205.144-.325.06-.12.138-.228.233-.324.144-.193.39-.451.737-.776s.748-.675 1.203-1.048c.468-.385.947-.74 1.438-1.066.503-.337.977-.615 1.42-.832.456-.217.845-.326 1.17-.327.131 0 .233.029.306.089.084.06.144.137.18.233a.598.598 0 01.037.288c-.012.264-.185.517-.52.758a9.623 9.623 0 01-1.079.669c-.683.386-1.288.765-1.816 1.139a14.77 14.77 0 00-1.275.993c-.312.29-.473.494-.485.614-.024.12.055.33.235.63.181.287.458.616.83.987.373.359.812.694 1.317 1.004.228.143.45.28.667.412.228.12.408.245.54.377.145.12.211.257.2.413a.763.763 0 01-.126.36.71.71 0 01-.305.253.874.874 0 01-.396.092zm-5.994 0c-.312 0-.522-.155-.63-.467-.11-.323-.14-.785-.094-1.386.059-.612.171-1.35.337-2.214.071-.36.154-.739.25-1.135l.32-1.19c.108-.407.197-.804.268-1.188.024-.096.042-.192.054-.288.023-.108.041-.216.053-.324a2.15 2.15 0 01.197-.595 1.12 1.12 0 01.287-.36.577.577 0 01.36-.145c.275-.001.492.124.648.376.169.24.206.581.11 1.025-.059.3-.154.673-.285 1.117-.119.432-.244.877-.375 1.333a16.26 16.26 0 00-.303 1.207c-.107.624-.19 1.183-.249 1.675-.046.492-.076.9-.087 1.224-.011.312-.035.528-.07.648a.826.826 0 01-.162.379.676.676 0 01-.27.216.668.668 0 01-.359.091zm8.376.012a.502.502 0 01-.396-.161.748.748 0 01-.163-.396 1.184 1.184 0 01.017-.54c.047-.216.16-.504.34-.865.19-.372.43-.787.717-1.244.287-.469.586-.937.897-1.406.335-.493.676-.98 1.022-1.461.36-.493.7-.932 1.024-1.317.323-.397.592-.71.807-.938.336-.337.653-.584.953-.741a1.96 1.96 0 01.935-.255c.288 0 .486.1.595.304.108.192.193.438.253.738.061.312.116.678.165 1.097.049.42.104.852.165 1.296.06.432.134.852.219 1.26.097.503.188.935.273 1.294.096.36.187.666.272.918.096.252.187.467.271.647.084.156.15.294.199.413.048.12.067.246.055.378-.012.156-.06.306-.143.45a.842.842 0 01-.323.326.705.705 0 01-.414.127c-.228 0-.433-.107-.613-.322-.168-.228-.32-.534-.452-.917a13.995 13.995 0 01-.363-1.241c-.06-.276-.14-.642-.236-1.098a49.266 49.266 0 01-.475-3.095c-.05-.503-.08-.923-.093-1.259l.36.143c-.335.313-.7.71-1.095 1.191-.383.47-.784.992-1.202 1.57a42.675 42.675 0 00-1.202 1.803c-.383.625-.736 1.25-1.058 1.875-.263.469-.49.823-.682 1.064-.18.24-.39.361-.629.362zm12.932 4.445c-.732.002-1.35-.068-1.854-.21-.504-.131-.87-.316-1.1-.556-.228-.239-.312-.497-.253-.773.083-.42.34-.63.773-.632.144 0 .276.03.396.089.12.06.258.125.414.197.156.083.373.155.649.214.288.059.666.088 1.134.087.576-.002 1.056-.13 1.44-.383a2.66 2.66 0 00.915-1.064c.239-.457.418-.985.536-1.586.071-.348.119-.69.142-1.026.035-.336.07-.696.105-1.08.036-.384.083-.829.141-1.333.06-.516.154-1.122.285-1.818l.559.52c-.383.829-.765 1.508-1.148 2.037-.383.517-.754.92-1.113 1.21-.36.276-.701.47-1.025.578a2.905 2.905 0 01-.846.147c-1.043.003-1.77-.427-2.18-1.29-.41-.875-.425-2.273-.046-4.194.154-.805.31-1.411.464-1.82.167-.408.34-.684.52-.829a.885.885 0 01.558-.218c.288 0 .474.101.559.305.084.204.055.57-.088 1.098a25.18 25.18 0 00-.445 2.125 9.196 9.196 0 00-.14 1.71c.013.493.091.877.236 1.152.145.264.379.395.703.394.504-.001.995-.26 1.474-.778.48-.53.927-1.239 1.345-2.128.43-.901.818-1.91 1.164-3.027.107-.336.214-.559.322-.667.108-.12.276-.18.504-.181a.69.69 0 01.45.16c.144.108.229.3.253.575.037.264-.016.625-.16 1.081a19.311 19.311 0 00-.41 1.64c-.082.48-.141.942-.176 1.386-.035.432-.064.876-.087 1.332a17.82 17.82 0 01-.105 1.476c-.059.528-.153 1.14-.284 1.837-.214 1.08-.548 1.928-1.002 2.54-.443.626-.97 1.066-1.581 1.32a5.198 5.198 0 01-1.997.383zm11.336-4.532c-.792.002-1.44-.164-1.945-.499a2.996 2.996 0 01-1.083-1.419c-.218-.61-.327-1.313-.329-2.105-.002-.804.086-1.668.264-2.592.154-.829.38-1.574.68-2.234a8.911 8.911 0 011.003-1.75 6.63 6.63 0 011.204-1.245 4.82 4.82 0 011.258-.723 8.767 8.767 0 011.691-.437 25.262 25.262 0 001.547-.274c.528-.11.978-.231 1.35-.364.371-.133.653-.2.845-.2a.754.754 0 01.396.106.646.646 0 01.326.737c-.035.204-.161.379-.377.523a2.995 2.995 0 01-.809.327 13.17 13.17 0 01-1.781.383c-.528.061-1.014.123-1.458.184-.444.05-.875.164-1.295.346-.408.157-.809.44-1.204.849-.383.397-.73.896-1.04 1.497a7.522 7.522 0 00-.662 2c-.25 1.285-.361 2.329-.335 3.133.037.792.219 1.373.543 1.744.337.371.806.556 1.406.554a2.827 2.827 0 001.241-.31c.42-.216.809-.5 1.168-.849.371-.349.683-.727.934-1.136.263-.42.43-.83.5-1.226.096-.432.09-.798-.02-1.098a1.156 1.156 0 00-.577-.7c-.288-.167-.673-.25-1.153-.249-.636.002-1.35.184-2.14.546-.78.363-1.564.91-2.355 1.645l-.577-.682a6.933 6.933 0 011.67-1.679 6.714 6.714 0 011.942-.977 6.244 6.244 0 011.907-.33c.732-.002 1.344.134 1.837.409a2.22 2.22 0 011.047 1.149c.205.503.224 1.127.058 1.872a5.96 5.96 0 01-.734 1.838 7.548 7.548 0 01-1.293 1.623 6.872 6.872 0 01-1.707 1.175 4.59 4.59 0 01-1.943.438zm11.45-.015c-.984.003-1.794-.21-2.431-.64a3.323 3.323 0 01-1.3-1.743c-.23-.743-.256-1.59-.078-2.538.13-.672.357-1.26.68-1.766.335-.517.706-.95 1.113-1.299.42-.35.839-.608 1.259-.777.42-.182.779-.273 1.079-.274a.85.85 0 01.324.053.402.402 0 01.217.18c.06.072.078.174.054.306-.06.24-.155.462-.286.667-.132.192-.377.367-.737.524a5.055 5.055 0 00-1.097.687c-.287.24-.52.523-.7.848a3.32 3.32 0 00-.375 1.135c-.19.972-.074 1.752.347 2.339.421.575 1.064.86 1.928.858.84-.002 1.571-.304 2.194-.906.634-.614 1.047-1.425 1.236-2.433.19-.925.129-1.645-.184-2.16-.313-.527-.83-.79-1.55-.787-.372 0-.69.074-.954.218a6.578 6.578 0 00-.826.579 5.44 5.44 0 00-.521.487 3.03 3.03 0 01-.36.343.614.614 0 01-.377.11.503.503 0 01-.397-.162c-.084-.12-.102-.305-.055-.557.048-.277.185-.56.412-.848.24-.288.527-.553.862-.794a4.547 4.547 0 011.115-.597 3.176 3.176 0 011.17-.238c.864-.002 1.566.2 2.107.606.54.395.908.946 1.102 1.653.193.696.195 1.5.005 2.412-.166.9-.488 1.694-.967 2.379a5.117 5.117 0 01-1.76 1.571 4.635 4.635 0 01-2.249.564zm9.458.046c-.612.001-1.11-.123-1.495-.374a2.311 2.311 0 01-.83-.97 3.957 3.957 0 01-.29-1.313c-.014-.48.021-.948.104-1.404a13.93 13.93 0 01.465-1.64c.214-.588.453-1.153.716-1.694.263-.552.526-1.01.789-1.37.155-.216.347-.379.575-.488a1.72 1.72 0 01.701-.164c.144 0 .246.048.307.144.06.083.072.203.036.36-.035.18-.137.408-.304.684-.155.277-.347.613-.574 1.01-.215.397-.43.871-.645 1.424-.214.54-.393 1.177-.535 1.91-.155.768-.135 1.38.058 1.835.193.456.595.682 1.207.68a2.916 2.916 0 001.367-.363 4.067 4.067 0 001.204-.976c.36-.42.598-.89.717-1.406l.199.342c-.3-.12-.66-.208-1.08-.267a10.8 10.8 0 00-1.315-.14 9.992 9.992 0 00-1.35-.014c-.444.013-.84.05-1.188.11l.231-1.188a8.26 8.26 0 001.764-.22 6.8 6.8 0 001.493-.563 4.96 4.96 0 001.078-.723c.276-.265.431-.511.467-.74.035-.168-.007-.3-.127-.395-.12-.108-.313-.161-.577-.16a3.99 3.99 0 00-1.025.146c-.348.097-.72.219-1.116.364-.395.145-.815.296-1.259.453-.18.049-.33.025-.45-.07a.338.338 0 01-.108-.36c.035-.168.149-.325.34-.47.204-.156.396-.27.576-.343.73-.386 1.408-.652 2.032-.798a7.441 7.441 0 011.763-.239c.432 0 .786.064 1.063.195.288.132.492.311.613.539.133.227.17.485.11.773-.071.385-.25.751-.538 1.1a5.167 5.167 0 01-1.096.975c-.431.29-.904.536-1.42.742a8.084 8.084 0 01-1.619.455l.088-.685a17.026 17.026 0 011.567-.004c.492.023.924.075 1.296.158s.654.22.847.412c.204.18.3.419.29.719-.024.48-.19.96-.502 1.441-.298.47-.7.896-1.203 1.282a6.679 6.679 0 01-1.636.94 4.895 4.895 0 01-1.78.348zm14.833-.133c-.408.002-.732-.093-.972-.285a1.682 1.682 0 01-.506-.754 3.28 3.28 0 01-.164-1.044c.01-.384.052-.756.123-1.116a26.3 26.3 0 01.286-1.117c.13-.432.274-.883.429-1.351.155-.469.304-.907.447-1.316.155-.408.28-.726.376-.955a8.88 8.88 0 01.411-.973c.132-.228.288-.343.468-.343.156 0 .3.053.432.16a.924.924 0 01.289.414c.072.168.09.354.055.558a5.678 5.678 0 01-.25.828c-.131.36-.28.763-.447 1.208a44.76 44.76 0 00-.483 1.351 9.027 9.027 0 00-.34 1.207 6.825 6.825 0 00-.142.936c-.023.288-.01.529.038.72.048.18.15.27.307.27.384-.002.869-.345 1.455-1.03.599-.686 1.263-1.63 1.992-2.832a28.04 28.04 0 00.879-1.479c.25-.457.472-.853.663-1.19.191-.348.377-.619.556-.811.18-.193.36-.29.54-.29.276 0 .474.107.594.322.133.204.194.48.182.828.001.312-.01.696-.033 1.152l-.033 1.404c-.011.468-.01.906.003 1.314.037.696.105 1.266.202 1.71.109.431.205.779.29 1.043.085.264.121.48.11.648a.884.884 0 01-.126.378.966.966 0 01-.27.27.635.635 0 01-.359.11c-.42 0-.72-.274-.902-.826-.18-.551-.32-1.289-.419-2.213-.025-.432-.05-.893-.075-1.385a30.263 30.263 0 01-.003-1.476c.023-.492.046-.949.069-1.369l.522.179c-.203.42-.442.883-.717 1.388a45.822 45.822 0 01-1.13 1.93 18.666 18.666 0 01-1.327 1.857 8.24 8.24 0 01-1.49 1.426c-.504.362-1.014.543-1.53.545zm12.698-.09c-.48.002-.93-.045-1.35-.14a4.408 4.408 0 01-1.081-.429 2.162 2.162 0 01-.704-.646 1.297 1.297 0 01-.2-.81.794.794 0 01.197-.504c.132-.144.276-.216.432-.217.144 0 .27.071.378.215.12.132.265.293.433.485.18.18.427.34.74.484.312.13.744.196 1.296.194.804-.002 1.416-.148 1.835-.437.431-.301.647-.638.646-1.01.011-.204-.073-.378-.254-.521-.168-.156-.426-.287-.774-.394-.349-.12-.805-.22-1.369-.302-.456-.059-.75-.148-.883-.268a.555.555 0 01-.145-.467c.012-.192.132-.325.36-.397.227-.073.611-.158 1.15-.256.709-.122 1.272-.303 1.692-.544.431-.242.652-.53.664-.866.011-.324-.14-.57-.452-.737-.312-.18-.732-.268-1.26-.266-.6.001-1.098.08-1.494.238a4.762 4.762 0 00-.953.453c-.228.156-.407.235-.54.235a.36.36 0 01-.306-.143.536.536 0 01-.072-.342c.011-.216.107-.432.286-.649.192-.216.443-.415.755-.596.323-.18.701-.32 1.133-.417a6.02 6.02 0 011.44-.166c1.055-.003 1.836.187 2.34.57.518.382.765.91.742 1.581-.023.372-.172.739-.447 1.1-.264.348-.659.65-1.186.903-.528.241-1.2.4-2.015.474l-.019-.27c.744-.003 1.35.074 1.819.228.48.143.828.37 1.045.681.229.3.332.678.309 1.134-.011.528-.214 1.008-.61 1.441-.382.421-.891.759-1.527 1.013a5.765 5.765 0 01-2.051.365zm21.759-.043c-.264 0-.456-.107-.577-.323-.12-.227-.229-.605-.326-1.133a14.07 14.07 0 01-.202-1.601 36.527 36.527 0 01-.059-2.016c.011-.72.039-1.398.086-2.034.07-.78.123-1.447.157-1.999a8.71 8.71 0 00.034-1.314c-.013-.336-.068-.582-.164-.737-.096-.156-.253-.234-.469-.233-.324 0-.737.26-1.24.778-.491.505-1.03 1.226-1.615 2.164-.586.938-1.178 2.061-1.775 3.371a41.024 41.024 0 00-1.682 4.343c-.083.24-.191.426-.323.559a.674.674 0 01-.467.181c-.276.001-.475-.088-.595-.268-.12-.192-.133-.528-.038-1.008.142-.696.345-1.387.607-2.072.275-.697.573-1.393.896-2.09.322-.71.626-1.418.913-2.127a16.58 16.58 0 00.733-2.126c.048-.216.125-.384.233-.505a.564.564 0 01.431-.199.74.74 0 01.45.143.957.957 0 01.344.449l-.684.2c.754-1.13 1.442-1.966 2.065-2.508.635-.542 1.27-.814 1.906-.816.696-.001 1.188.201 1.477.608.289.407.447 1.031.473 1.871.025.84-.02 1.932-.137 3.276-.094.997-.122 1.855-.084 2.575.037.72.087 1.331.148 1.835l.182 1.26c.049.336.05.63.002.882a.73.73 0 01-.251.45.645.645 0 01-.449.164zm-8.936-3.503c-.264 0-.45-.059-.558-.178-.109-.12-.14-.27-.092-.45a.612.612 0 01.198-.379c.12-.108.305-.205.557-.29 1.39-.495 2.944-.86 4.66-1.093a42.285 42.285 0 015.525-.357c.42-.001.69.058.81.178.133.12.175.293.127.521-.047.24-.203.445-.466.613-.264.157-.612.236-1.044.237-1.38.004-2.55.05-3.509.136-.948.075-1.746.173-2.394.295-.648.11-1.2.226-1.655.347a63.87 63.87 0 01-1.17.31c-.323.072-.653.11-.99.11zm13.429 3.526a.741.741 0 01-.667-.376c-.157-.252-.253-.6-.29-1.043-.025-.456.021-.99.14-1.603a8.3 8.3 0 01.304-1.063 2.97 2.97 0 01.376-.685c.144-.18.294-.306.449-.379.132-.072.318-.115.558-.127a7.58 7.58 0 01.756-.039c.876-.002 1.74-.047 2.592-.133a13.09 13.09 0 002.536-.547l.327 1.24c-.623.243-1.295.425-2.015.547a21.92 21.92 0 01-2.195.258c-.732.038-1.446.058-2.142.06l-1.044-.16a92.439 92.439 0 00.623-2.972c.107-.491.202-.941.285-1.35.048-.288.143-.522.287-.703.143-.18.305-.27.485-.27.3-.002.522.118.667.357.144.228.163.594.056 1.098-.047.264-.118.582-.214.955-.095.372-.196.762-.303 1.17-.095.409-.19.799-.285 1.171-.084.36-.149.66-.196.9a25.69 25.69 0 00-.32 1.874c-.059.54-.112.948-.16 1.224a.749.749 0 01-.233.415.493.493 0 01-.377.181zm6.21-.018c-.3.001-.517-.172-.649-.52-.121-.347-.176-.821-.166-1.421.023-.612.106-1.285.248-2.017.237-1.153.445-2.065.624-2.738a17.5 17.5 0 01.518-1.621c.096-.265.215-.499.359-.703.143-.205.317-.307.521-.308.264 0 .45.125.559.377.12.24.145.533.074.881a9.667 9.667 0 01-.393 1.405 11.979 11.979 0 00-.41 1.64c-.143.72-.243 1.374-.302 1.963a27.974 27.974 0 00-.087 1.458c-.011.396-.04.69-.088.882a.838.838 0 01-.287.523.786.786 0 01-.521.2zm4.561-.03c-.288 0-.504-.131-.649-.395-.132-.263-.181-.63-.146-1.097.012-.204.047-.486.106-.847.059-.36.13-.762.213-1.206l.249-1.369c.095-.456.178-.877.25-1.26l.196-.92c.118-.624.279-1.08.482-1.369.216-.3.527-.481.935-.542.384-.061.792-.104 1.224-.13a15.606 15.606 0 012.79.01c.504.035.882.1 1.134.195a.566.566 0 01.362.63c-.048.24-.197.414-.449.522a2.038 2.038 0 01-.81.165c-.252 0-.48-.011-.684-.034a9.99 9.99 0 00-.666-.053 10.19 10.19 0 00-.954-.033c-.48.002-.888.027-1.224.076-.336.049-.713.122-1.133.219l.88-.579c-.154.48-.309 1.015-.464 1.604a49.222 49.222 0 00-.463 2.161 25.124 25.124 0 00-.284 1.675c-.071.516-.124.954-.159 1.314-.036.36-.065.594-.089.703-.035.192-.113.33-.233.414a.645.645 0 01-.414.145zm5.863.019a.501.501 0 01-.396-.161.747.747 0 01-.163-.396 1.184 1.184 0 01.017-.54c.047-.216.161-.504.34-.865.191-.372.43-.787.717-1.244.287-.468.586-.937.897-1.406.335-.493.676-.98 1.023-1.461.359-.493.7-.932 1.023-1.317.323-.397.592-.71.808-.938.335-.337.652-.584.952-.741.312-.169.624-.254.936-.255.288 0 .486.1.594.305.109.191.193.437.254.737.061.312.115.678.164 1.097.049.42.104.852.165 1.296.061.432.134.852.219 1.26.097.503.188.935.273 1.295.097.36.187.665.272.917.097.252.187.467.271.647.085.156.151.294.199.413.049.12.067.246.055.378a1.03 1.03 0 01-.143.45.84.84 0 01-.323.326.705.705 0 01-.414.127c-.228 0-.432-.107-.613-.322-.168-.228-.319-.534-.452-.917a14.308 14.308 0 01-.362-1.241c-.061-.276-.14-.642-.237-1.098-.085-.467-.17-.971-.255-1.51a49.555 49.555 0 01-.22-1.584c-.049-.504-.08-.924-.093-1.26l.361.143c-.335.313-.701.71-1.096 1.191-.382.47-.783.992-1.202 1.57a42.836 42.836 0 00-1.202 1.803c-.383.625-.735 1.25-1.058 1.875-.263.469-.49.823-.681 1.064-.18.24-.39.361-.63.362zm12.127-.053c-.408.002-.732-.093-.973-.285a1.678 1.678 0 01-.505-.754 3.278 3.278 0 01-.165-1.044c.012-.384.053-.756.124-1.116.071-.313.166-.685.285-1.117.131-.432.274-.883.429-1.351.155-.469.304-.907.447-1.316.156-.408.281-.726.376-.955a8.85 8.85 0 01.412-.973c.132-.228.287-.343.467-.343.156 0 .301.053.433.16a.931.931 0 01.289.414.97.97 0 01.055.558 5.75 5.75 0 01-.25.828c-.131.36-.281.763-.448 1.208a44.76 44.76 0 00-.483 1.351 8.992 8.992 0 00-.339 1.207 6.983 6.983 0 00-.142.936c-.023.288-.011.528.038.72.048.18.15.27.306.27.384-.002.87-.345 1.456-1.03.599-.687 1.263-1.63 1.992-2.832a27.92 27.92 0 00.879-1.479c.251-.457.472-.853.663-1.19a4.09 4.09 0 01.556-.811c.18-.193.359-.29.539-.29.276 0 .475.107.595.322.133.204.193.48.182.828.001.312-.01.696-.033 1.152l-.033 1.404c-.011.468-.01.906.003 1.314.037.696.104 1.266.201 1.71.109.431.206.779.291 1.043.084.263.121.48.109.647a.87.87 0 01-.125.379.965.965 0 01-.269.27.637.637 0 01-.36.11c-.276 0-.504-.125-.685-.377-.168-.251-.301-.605-.398-1.06-.097-.456-.176-.99-.238-1.602-.025-.432-.05-.894-.075-1.386a30.263 30.263 0 01-.003-1.475c.023-.493.046-.949.069-1.369l.522.179c-.143.276-.299.57-.466.883a19.99 19.99 0 01-.574 1.064c-.215.384-.484.841-.806 1.37-.407.65-.85 1.268-1.328 1.858a8.254 8.254 0 01-1.491 1.426c-.503.361-1.013.543-1.529.544zm11.584-.032c-.408 0-.732-.094-.973-.286a1.68 1.68 0 01-.505-.754 3.277 3.277 0 01-.165-1.044c.011-.384.053-.756.124-1.116.071-.312.166-.685.285-1.117.131-.432.274-.883.429-1.351.155-.469.304-.907.447-1.316.155-.408.281-.726.376-.955a8.76 8.76 0 01.412-.973c.132-.228.287-.343.467-.343.156 0 .3.053.433.16a.932.932 0 01.289.414c.072.168.09.354.055.558a5.745 5.745 0 01-.25.828c-.131.36-.281.763-.448 1.208-.167.444-.328.895-.483 1.351a8.993 8.993 0 00-.339 1.207 6.98 6.98 0 00-.142.937c-.023.288-.011.528.038.72.048.18.15.269.306.269.384-.002.87-.345 1.456-1.03.599-.686 1.262-1.63 1.992-2.832a27.92 27.92 0 00.879-1.479c.25-.456.472-.853.663-1.19.191-.348.376-.619.556-.811.18-.193.359-.29.539-.29.276 0 .475.107.595.323.133.203.193.479.182.827.001.312-.01.696-.033 1.152l-.033 1.404c-.011.468-.01.906.003 1.314.037.696.104 1.266.201 1.71.109.431.206.78.291 1.043.084.264.121.48.109.648a.884.884 0 01-.125.378.978.978 0 01-.269.27.636.636 0 01-.36.11c-.42 0-.721-.274-.902-.826-.181-.551-.321-1.289-.419-2.213-.025-.431-.05-.893-.075-1.385a30.263 30.263 0 01-.003-1.476c.023-.492.046-.949.069-1.369l.522.179c-.203.42-.442.883-.717 1.388a45.458 45.458 0 01-1.13 1.93 18.712 18.712 0 01-1.327 1.857 8.258 8.258 0 01-1.491 1.426c-.503.362-1.013.543-1.529.544zM23.376 166.695a1 1 0 01-.806-1.162l1.607-8.855a1 1 0 111.968.357l-1.428 7.871 7.871 1.428a1 1 0 01-.357 1.968l-8.855-1.607zm23.453-84.039c-.774 12.334.795 20.886 3.368 26.956l-1.842.78c-2.724-6.429-4.31-15.308-3.522-27.861l1.996.125zm3.368 26.956c3.014 7.112 7.444 10.91 11.307 13.415 2.005 1.299 3.69 2.156 5.218 3.09.726.442 1.394.892 1.933 1.379.54.487 1.002 1.057 1.24 1.754.503 1.477-.155 2.982-1.498 4.599-1.367 1.646-3.674 3.688-7.113 6.362-6.895 5.361-18.6 13.462-37.16 26.322l-1.14-1.643c18.59-12.881 30.233-20.94 37.072-26.258 3.428-2.666 5.585-4.594 6.803-6.06 1.242-1.496 1.29-2.244 1.142-2.677-.087-.258-.288-.556-.686-.915-.399-.36-.94-.733-1.634-1.156-1.308-.799-3.293-1.84-5.265-3.119-4.092-2.653-8.847-6.731-12.06-14.313l1.84-.78zm-3.4-26.605c-.896 12.246.716 20.656 3.39 26.583l-1.822.823c-2.848-6.309-4.476-15.072-3.562-27.552l1.995.146zm3.39 26.583c3.05 6.756 7.526 10.389 11.483 12.817 2.044 1.254 3.797 2.104 5.382 3.018.757.436 1.456.879 2.03 1.354.572.475 1.073 1.027 1.368 1.699.638 1.456.126 2.98-1.118 4.616-1.248 1.642-3.423 3.657-6.702 6.273-6.576 5.246-17.877 13.124-35.926 25.558l-1.134-1.647c18.074-12.452 29.305-20.283 35.813-25.475 3.264-2.603 5.27-4.489 6.357-5.92 1.093-1.437 1.073-2.156.878-2.603-.123-.279-.37-.594-.813-.961-.442-.367-1.025-.743-1.752-1.161-1.382-.797-3.406-1.805-5.429-3.046-4.176-2.562-8.995-6.465-12.26-13.699l1.824-.823z" fill="#FFFCFF"/></svg>