<svg width="152" height="69" fill="none" xmlns="http://www.w3.org/2000/svg"><path d="M106.893 48.403c30.547-5.61 36.93-24.003 39.955-45.061-1.94 10.22-4.617 19.229-9.37 26.534-5.995 9.214-15.295 15.719-30.585 18.527z" fill="#7831B2"/><path d="M146.445.662a.763.763 0 011.511.198l-1.511-.198zm-39.414 48.49a.762.762 0 11-.275-1.497l.275 1.497zM146.864.232a.762.762 0 011.061.186l3.937 5.608a.762.762 0 11-1.248.874l-3.499-4.985-4.99 3.496a.762.762 0 01-.875-1.246l5.614-3.933zm1.092.628a209.2 209.2 0 01-.354 2.59l-1.509-.217c.122-.852.239-1.71.352-2.57l1.511.197zm-.354 2.59c-1.517 10.553-3.888 20.574-9.795 28.664-5.931 8.122-15.354 14.205-30.776 17.038l-.275-1.497c15.125-2.778 24.167-8.696 29.82-16.438 5.676-7.774 8.008-17.478 9.517-27.984l1.509.217zm.449-2.463c-.147.84-.299 1.672-.455 2.496l-1.497-.283c.155-.818.305-1.643.451-2.476l1.501.263zm-.455 2.496c-1.946 10.254-4.645 19.378-9.479 26.808l-1.277-.83c4.672-7.18 7.326-16.074 9.259-26.261l1.497.283zm-9.479 26.808c-6.126 9.414-15.62 16.02-31.086 18.86l-.275-1.496c15.114-2.776 24.218-9.179 30.084-18.193l1.277.83zM5.187 35.737c-.879.131-1.655.096-2.329-.107a3.815 3.815 0 01-1.647-1.027 4.384 4.384 0 01-.96-1.676 6.37 6.37 0 01-.244-2.11c.047-.82.19-1.569.428-2.247a8.646 8.646 0 01.907-1.846 8.675 8.675 0 011.102-1.401c.38-.384.723-.684 1.03-.9.308-.216.533-.334.675-.356a.92.92 0 01.329.006c.1.021.192.105.274.25.17.241.187.475.05.702a2.514 2.514 0 01-.594.652 8.235 8.235 0 00-1.118 1.168 7.41 7.41 0 00-.982 1.711c-.265.659-.426 1.41-.481 2.255-.03.696.07 1.324.3 1.884.241.558.626.98 1.154 1.264.539.272 1.241.342 2.108.213a4.278 4.278 0 001.87-.77 5.122 5.122 0 001.43-1.633 4.899 4.899 0 00.627-2.259 9.743 9.743 0 00-.151-2.106c-.127-.684-.332-1.284-.616-1.8-.285-.527-.655-.927-1.108-1.198-.442-.274-.96-.366-1.553-.278a.753.753 0 00-.578.396c-.114.211-.179.47-.194.775-.01.256-.081.467-.214.632a.768.768 0 01-.47.27.705.705 0 01-.428-.063.752.752 0 01-.323-.334 1.22 1.22 0 01-.111-.62 2.904 2.904 0 011.101-2.129c.348-.27.772-.443 1.27-.517.808-.12 1.533-.017 2.177.311.644.328 1.18.824 1.607 1.488.437.65.76 1.42.965 2.312.219.889.3 1.835.243 2.838a6.714 6.714 0 01-1.686 4.181 6.545 6.545 0 01-1.726 1.368 6.462 6.462 0 01-2.134.7zm7.699-8.5c-.273.04-.5-.01-.678-.153a.63.63 0 01-.228-.549.695.695 0 01.163-.37c.093-.11.27-.222.532-.334.41-.182.964-.374 1.662-.576a20 20 0 012.508-.52c.499-.075.958-.131 1.377-.17.43-.052.904-.08 1.426-.085.41-.013.733.036.968.146.247.109.366.255.357.438a.816.816 0 01-.107.38.756.756 0 01-.286.279 1.221 1.221 0 01-.485.163c-.25.038-.542.07-.878.095-.336.026-.696.056-1.08.089-.373.02-.755.058-1.147.117-.82.122-1.473.256-1.961.402-.49.134-.895.267-1.215.4-.322.12-.631.203-.928.248zm3.664 6.838a.651.651 0 01-.635-.233 2.405 2.405 0 01-.372-.78 7.178 7.178 0 01-.152-1.015 18.16 18.16 0 01-.035-1.45 45.01 45.01 0 01.04-1.553c.033-.672.06-1.264.08-1.776.03-.526.051-.96.06-1.3l1.588-.347c-.018.209-.039.473-.064.792-.015.305-.03.653-.044 1.043-.016.379-.036.77-.061 1.174-.014.39-.03.768-.049 1.135-.03.61-.032 1.12-.007 1.529.035.395.077.716.126.963.049.248.092.454.129.618.035.152.05.296.046.43a.945.945 0 01-.09.377.674.674 0 01-.235.253.694.694 0 01-.325.14zm5.793-.884c-.285.042-.523-.092-.715-.403-.193-.31-.273-.808-.242-1.492.011-.329.051-.832.12-1.51a12.79 12.79 0 01.446-2.249c.269-.962.524-1.727.767-2.297.24-.582.497-1.015.77-1.298.273-.283.57-.45.891-.497a.645.645 0 01.615.217c.173.18.31.409.412.685.102.275.192.553.27.832.105.373.227.785.368 1.237.152.45.312.905.478 1.366.177.458.364.891.558 1.299.207.406.421.743.644 1.013l-.62.239c.243-.728.51-1.46.8-2.194.291-.735.586-1.44.886-2.115.299-.675.584-1.282.856-1.82.303-.567.57-.977.8-1.229.24-.254.468-.398.681-.43a.889.889 0 01.444.043c.14.04.263.095.37.163.15.111.275.256.375.436.1.179.154.462.163.848.022.87.066 1.652.133 2.345.078.68.157 1.25.238 1.711.135.817.292 1.46.471 1.93.192.47.28.778.266.925a.541.541 0 01-.193.411.743.743 0 01-.457.232c-.285.043-.543-.058-.774-.303-.219-.246-.387-.597-.503-1.052a22.79 22.79 0 01-.35-1.603 29.16 29.16 0 01-.274-2.197 33.251 33.251 0 01-.093-2.57l.497-.201c-.222.458-.472.98-.748 1.567-.266.574-.54 1.173-.824 1.797-.27.623-.53 1.238-.78 1.845a31.618 31.618 0 00-.617 1.711 1.732 1.732 0 01-.384.603.933.933 0 01-.558.284c-.285.042-.532.013-.742-.09a1.894 1.894 0 01-.548-.5 6.601 6.601 0 01-.443-.77l-.3-.665a24.71 24.71 0 01-.817-2.17 24.986 24.986 0 01-.367-1.237c-.111-.42-.195-.814-.25-1.181l.513-.222a20.108 20.108 0 00-.813 1.867 13.308 13.308 0 00-.507 1.84 15.673 15.673 0 00-.234 1.964c-.026.477-.037.89-.033 1.242.016.35.02.616.01.799a1.245 1.245 0 01-.171.553c-.098.16-.26.257-.485.29zm16.886-2.542c-.985.147-1.778.084-2.377-.19a2.555 2.555 0 01-1.29-1.318c-.26-.603-.372-1.308-.335-2.114a6.683 6.683 0 01.416-1.845 7.465 7.465 0 01.986-1.803 6.106 6.106 0 011.483-1.404 4.478 4.478 0 011.875-.735c.63-.094 1.16-.07 1.595.07.446.14.775.394.988.763.225.366.322.855.292 1.466a3.034 3.034 0 01-.625 1.785c-.397.508-.922.932-1.575 1.272a6.651 6.651 0 01-2.138.684c-.807.12-1.362.106-1.663-.043-.29-.15-.429-.348-.417-.592.003-.146.041-.255.115-.327.073-.083.198-.139.376-.165.13-.02.289-.02.474.002.195.007.477-.017.845-.072a4.888 4.888 0 001.566-.489c.462-.239.826-.523 1.092-.854a2 2 0 00.436-1.102c.017-.367-.07-.627-.263-.78-.18-.154-.503-.197-.966-.128-.463.07-.892.242-1.288.52a4.6 4.6 0 00-1.05 1.012 5.282 5.282 0 00-1.023 2.9c-.019.439.034.831.159 1.177.122.333.343.591.662.774.328.169.766.213 1.312.131.618-.092 1.135-.248 1.55-.468.427-.234.779-.48 1.055-.74.277-.26.51-.483.701-.669.191-.186.37-.291.536-.316.202-.03.356.026.462.167.116.128.168.315.156.559-.012.244-.135.517-.369.82a4.65 4.65 0 01-.926.865c-.382.288-.817.54-1.307.76a6.17 6.17 0 01-1.52.427zm8.083-4.119c-.45.068-.84.023-1.167-.135a1.804 1.804 0 01-.784-.737 3.002 3.002 0 01-.34-1.169 5.63 5.63 0 01.01-1.402c.06-.482.163-.934.306-1.355.155-.424.34-.779.551-1.065.212-.286.443-.448.692-.485a.609.609 0 01.314.026.471.471 0 01.245.181c.06.076.094.18.102.313.004.108-.03.283-.104.524-.063.228-.143.5-.241.819-.1.306-.179.633-.236.98a3.51 3.51 0 00-.031 1.006c.032.213.077.395.136.544a.556.556 0 00.243.29c.118.056.26.071.426.046.38-.057.758-.21 1.133-.46s.722-.569 1.04-.956a7.37 7.37 0 00.853-1.237c.236-.448.408-.886.514-1.314l.417 1.811a10.705 10.705 0 01-1.132 1.807 5.886 5.886 0 01-1.385 1.334 3.698 3.698 0 01-1.562.634zm4.228 2.333c-.26.04-.46-.034-.597-.22a2.67 2.67 0 01-.346-.73 6.377 6.377 0 01-.146-.851 15.62 15.62 0 01-.005-2.346 36.04 36.04 0 01.236-2.073c.053-.372.11-.72.171-1.044.059-.337.104-.604.135-.803.062-.397.148-.713.258-.948.123-.236.29-.37.505-.403.201-.03.392.069.572.297.18.227.257.537.23.93a7.967 7.967 0 01-.143 1.112c-.088.462-.174.942-.257 1.44-.074.483-.12.903-.14 1.257a15.822 15.822 0 00-.03 1.497c.014.422.045.793.093 1.114.024.239.053.434.088.587.035.152.05.29.044.412a.892.892 0 01-.183.482c-.098.16-.26.257-.485.29zm5.48-.873c-.547.082-1.012.018-1.395-.192-.371-.211-.657-.538-.857-.981-.188-.445-.268-.979-.24-1.602a6.55 6.55 0 01.332-1.796c.21-.625.49-1.225.842-1.8a8.665 8.665 0 011.201-1.58 6.797 6.797 0 011.498-1.187 4.854 4.854 0 011.694-.6c.274-.04.498-.001.674.118.175.12.255.326.238.62a.683.683 0 01-.14.402c-.092.111-.238.194-.436.248a5.603 5.603 0 00-2.182 1.235 6.852 6.852 0 00-1.505 1.99 5.76 5.76 0 00-.612 2.238c-.02.355-.008.674.034.959.041.273.154.62.338 1.04l-.86-1.126c.254.241.47.39.65.449.19.056.446.06.766.013.76-.114 1.46-.716 2.097-1.805.638-1.09 1.15-2.616 1.536-4.578a1.2 1.2 0 01.261-.566.812.812 0 01.505-.276.692.692 0 01.677.263c.188.202.297.483.326.842.065.755.142 1.434.233 2.04.1.59.25 1.139.446 1.643a6.51 6.51 0 00.92 1.518.68.68 0 01.15.396.878.878 0 01-.058.463.98.98 0 01-.25.401.734.734 0 01-.408.189.769.769 0 01-.444-.043.931.931 0 01-.294-.265 8.272 8.272 0 01-.592-.913 7.05 7.05 0 01-.497-1.126 9.227 9.227 0 01-.326-1.57 20.569 20.569 0 01-.144-2.18l.638-.113c-.276 1.642-.682 2.982-1.219 4.02-.524 1.037-1.107 1.809-1.747 2.317-.64.508-1.257.806-1.85.895zm12.612-1.885c-.985.147-1.778.084-2.377-.19a2.554 2.554 0 01-1.29-1.318c-.26-.603-.372-1.308-.335-2.114a6.683 6.683 0 01.416-1.845 7.465 7.465 0 01.986-1.803 6.092 6.092 0 011.484-1.404 4.478 4.478 0 011.874-.735c.938-.14 1.66-.018 2.168.367.518.384.754 1.027.708 1.932a3.033 3.033 0 01-.625 1.785c-.398.508-.923.932-1.576 1.272a6.65 6.65 0 01-2.137.684c-.808.12-1.362.106-1.664-.043-.29-.15-.428-.348-.416-.592.002-.146.04-.255.115-.327.072-.083.197-.139.376-.165.13-.02.288-.02.473.002.195.007.477-.017.845-.072a4.89 4.89 0 001.566-.489c.462-.238.826-.523 1.092-.854a2 2 0 00.436-1.102c.018-.367-.07-.627-.263-.78-.18-.154-.502-.197-.966-.128-.463.07-.892.242-1.288.52a4.602 4.602 0 00-1.05 1.012 5.275 5.275 0 00-1.022 2.9c-.02.439.033.831.158 1.177.123.333.343.591.662.774.329.169.766.213 1.313.131.617-.092 1.134-.248 1.55-.468a5.18 5.18 0 001.055-.74c.276-.26.51-.483.7-.669.191-.186.37-.291.536-.316.202-.03.356.026.462.167.116.128.169.315.157.56-.012.243-.135.516-.37.818a4.65 4.65 0 01-.926.866 6.724 6.724 0 01-1.306.76 6.16 6.16 0 01-1.52.427zm7.1-1.043c-.285.043-.524-.091-.716-.402-.192-.311-.273-.808-.242-1.492.012-.33.052-.833.12-1.51.067-.69.216-1.439.446-2.25.269-.961.525-1.727.767-2.297.24-.582.498-1.014.77-1.298.274-.283.57-.449.892-.497a.645.645 0 01.615.218c.172.18.31.408.412.684.102.276.192.553.27.833.105.372.227.784.367 1.236.153.45.312.906.478 1.366.178.459.364.892.559 1.3.206.405.42.743.643 1.013l-.62.238c.243-.728.51-1.459.8-2.194.291-.734.586-1.44.886-2.115.3-.675.585-1.282.856-1.82.304-.566.57-.976.8-1.229.24-.254.468-.397.682-.43a.888.888 0 01.443.044c.14.04.263.094.37.163.15.11.276.256.376.435.1.179.154.462.163.849.021.87.065 1.651.133 2.345.077.68.157 1.25.238 1.71.134.817.291 1.46.47 1.931.192.469.281.777.267.924a.54.54 0 01-.194.411.743.743 0 01-.457.232c-.285.043-.542-.058-.773-.302-.22-.247-.387-.597-.504-1.053-.111-.42-.228-.954-.35-1.603-.109-.65-.2-1.383-.273-2.197a33.202 33.202 0 01-.094-2.569l.498-.202c-.223.458-.472.98-.749 1.568-.266.573-.54 1.172-.823 1.796a95.303 95.303 0 00-.78 1.845 31.588 31.588 0 00-.618 1.711 1.731 1.731 0 01-.383.603.934.934 0 01-.559.284c-.284.043-.532.013-.741-.09a1.888 1.888 0 01-.549-.5 6.595 6.595 0 01-.443-.77l-.3-.665a25.04 25.04 0 01-1.184-3.407 11.54 11.54 0 01-.25-1.181l.514-.222a20.11 20.11 0 00-.813 1.868 13.307 13.307 0 00-.507 1.84 15.651 15.651 0 00-.234 1.963c-.026.477-.037.891-.033 1.242.016.35.02.616.01.8a1.246 1.246 0 01-.172.552c-.097.16-.259.257-.484.291zM5.484 51.826c-.475.071-.928.09-1.357.057a4.417 4.417 0 01-1.133-.267 2.16 2.16 0 01-.79-.537 1.296 1.296 0 01-.316-.771.792.792 0 01.121-.527c.11-.162.241-.255.396-.278.142-.021.277.031.406.158.138.112.304.251.499.416.205.152.472.275.802.372.328.084.766.085 1.312.004.795-.12 1.38-.352 1.753-.699.383-.36.547-.724.492-1.092-.019-.204-.128-.363-.327-.479-.19-.13-.464-.222-.825-.277-.362-.067-.828-.1-1.399-.1-.46.008-.764-.037-.912-.136a.555.555 0 01-.212-.442c-.017-.191.083-.34.298-.445.215-.104.582-.244 1.102-.419.683-.223 1.214-.485 1.594-.784.392-.301.57-.619.532-.953-.036-.322-.221-.543-.555-.663-.335-.131-.764-.158-1.287-.08-.593.089-1.075.24-1.443.452a4.8 4.8 0 00-.878.586c-.202.188-.369.292-.5.311a.36.36 0 01-.323-.097.536.536 0 01-.122-.327c-.02-.216.043-.443.189-.683.158-.242.378-.475.66-.7a4.202 4.202 0 011.06-.576 6.059 6.059 0 011.402-.373c1.044-.157 1.845-.082 2.4.223.568.303.89.789.965 1.456.031.372-.063.756-.283 1.152-.21.383-.557.739-1.042 1.066-.487.315-1.129.569-1.926.76l-.057-.264c.736-.11 1.347-.122 1.833-.037.496.071.875.245 1.134.522.27.262.427.62.471 1.075.066.524-.064 1.029-.392 1.514-.318.472-.773.88-1.365 1.223a5.774 5.774 0 01-1.977.66zm8.108-1.175c-.546.081-1.011.017-1.395-.192-.371-.211-.657-.538-.857-.982-.188-.444-.268-.978-.24-1.6a6.554 6.554 0 01.332-1.797 8.79 8.79 0 01.842-1.8 8.624 8.624 0 011.202-1.58 6.797 6.797 0 011.497-1.188 4.853 4.853 0 011.695-.599c.273-.04.497-.001.673.118.175.12.255.326.238.62a.683.683 0 01-.14.402c-.092.111-.238.194-.436.248a5.602 5.602 0 00-2.182 1.235 6.85 6.85 0 00-1.505 1.99 5.76 5.76 0 00-.612 2.238c-.02.354-.008.674.034.959.041.273.154.62.338 1.04l-.86-1.126c.254.241.471.39.65.449.19.056.446.06.766.013.76-.114 1.46-.716 2.097-1.806.638-1.09 1.15-2.615 1.536-4.577.05-.238.137-.427.261-.567a.812.812 0 01.506-.275.692.692 0 01.676.263c.188.202.297.483.327.842.064.755.142 1.434.232 2.04.1.59.25 1.138.447 1.642.208.503.515 1.009.919 1.518a.68.68 0 01.15.396.88.88 0 01-.058.464.98.98 0 01-.25.401.734.734 0 01-.408.189.769.769 0 01-.444-.043.931.931 0 01-.294-.266 8.272 8.272 0 01-.592-.912 7.055 7.055 0 01-.497-1.126 9.237 9.237 0 01-.326-1.57 20.569 20.569 0 01-.144-2.18l.639-.114c-.215 1.245-.498 2.312-.85 3.202-.355.877-.756 1.604-1.203 2.18-.438.563-.896.995-1.372 1.297-.477.302-.941.486-1.392.554zm11.755-1.648c-.606.09-1.117.04-1.534-.153a2.314 2.314 0 01-.963-.838 3.952 3.952 0 01-.48-1.256 6.785 6.785 0 01-.1-1.404c.031-.514.105-1.077.22-1.689.126-.613.28-1.206.462-1.779.18-.584.373-1.074.58-1.47a1.49 1.49 0 01.499-.565c.221-.142.445-.23.67-.264.143-.02.251.011.325.097.071.075.101.191.088.351-.008.183-.076.424-.201.721l-.42 1.082a12.52 12.52 0 00-.431 1.502 10.744 10.744 0 00-.252 1.965c-.041.783.068 1.385.325 1.807.257.423.689.589 1.294.498a2.918 2.918 0 001.3-.558 4.064 4.064 0 001.05-1.14 3.27 3.27 0 00.505-1.493l.246.308a4.734 4.734 0 00-1.108-.107c-.415-.01-.855.006-1.322.052-.456.032-.902.093-1.338.182a8.403 8.403 0 00-1.16.282l.056-1.209a8.267 8.267 0 001.713-.474 6.804 6.804 0 001.396-.773 4.96 4.96 0 00.962-.871c.234-.302.352-.568.354-.799.01-.171-.05-.295-.183-.373-.135-.089-.333-.114-.594-.075-.32.048-.652.146-.994.295-.33.146-.68.32-1.051.52-.37.201-.764.412-1.18.632-.171.074-.323.072-.456-.005a.339.339 0 01-.16-.34c.01-.171.1-.342.269-.513.179-.184.352-.325.52-.423.667-.488 1.298-.85 1.894-1.084a7.452 7.452 0 011.711-.492c.428-.064.788-.051 1.08.038.305.088.534.236.686.444.164.206.238.455.221.749-.014.39-.138.779-.371 1.165a5.156 5.156 0 01-.943 1.123 7.572 7.572 0 01-1.298.94c-.48.278-.992.506-1.536.685l-.012-.69a17.022 17.022 0 011.55-.231c.49-.05.925-.06 1.305-.032.381.028.68.123.899.284.229.148.359.371.391.67.048.477-.047.977-.285 1.497a5.028 5.028 0 01-1.004 1.442 6.69 6.69 0 01-1.482 1.167 4.895 4.895 0 01-1.713.602zm10.39-1.662c-.986.148-1.779.084-2.379-.19a2.554 2.554 0 01-1.29-1.317c-.26-.604-.371-1.31-.334-2.115.043-.6.182-1.216.416-1.845a7.458 7.458 0 01.986-1.803c.426-.56.92-1.029 1.483-1.404a4.478 4.478 0 011.875-.735c.63-.094 1.16-.07 1.595.071.446.14.775.394.988.762.225.366.322.855.292 1.466a3.033 3.033 0 01-.625 1.785c-.397.508-.922.933-1.575 1.273a6.653 6.653 0 01-2.138.683c-.807.12-1.362.106-1.663-.043-.29-.15-.429-.348-.417-.592.003-.146.041-.255.115-.327.073-.083.198-.138.376-.165.13-.02.289-.019.474.002.195.007.477-.017.845-.072a4.89 4.89 0 001.566-.488c.462-.24.826-.524 1.092-.855a2 2 0 00.436-1.102c.018-.366-.07-.626-.263-.78-.18-.154-.503-.197-.966-.128-.463.07-.892.243-1.288.52a4.6 4.6 0 00-1.05 1.012c-.303.41-.544.864-.725 1.364-.18.5-.279 1.012-.297 1.536-.02.44.033.832.157 1.177.123.333.344.591.663.774.328.17.766.213 1.312.131.618-.092 1.134-.248 1.55-.468.427-.233.779-.48 1.055-.74.277-.26.51-.482.701-.668.191-.187.37-.292.536-.317.202-.03.356.026.462.168.116.128.168.314.156.558-.012.245-.135.518-.369.82a4.652 4.652 0 01-.926.866c-.382.287-.818.54-1.307.759a6.17 6.17 0 01-1.52.427zm10.306-1.631c-.57.085-1.08.082-1.53-.008-.451-.09-.808-.243-1.07-.459-.264-.215-.392-.462-.385-.742a.88.88 0 01.14-.403.482.482 0 01.35-.216.6.6 0 01.334.04l.37.164c.143.063.345.112.605.146.258.022.6 0 1.028-.063.665-.1 1.217-.346 1.656-.739.449-.406.685-1.018.709-1.834.035-.575-.035-1.08-.21-1.515a2.728 2.728 0 00-.73-1.11 2.61 2.61 0 00-1.168-.625c-.454-.114-.954-.13-1.5-.049-.273.04-.548.112-.824.214a3.77 3.77 0 01-.735.2.73.73 0 01-.37-.035.516.516 0 01-.256-.253.732.732 0 01-.07-.353c.023-.33.2-.606.531-.825.342-.233.886-.406 1.634-.517.796-.12 1.523-.088 2.181.092.67.179 1.245.487 1.723.925.476.426.837.973 1.083 1.64.256.652.362 1.406.32 2.262a4.209 4.209 0 01-.351 1.544 4.069 4.069 0 01-.8 1.229 4.417 4.417 0 01-1.183.85 5.3 5.3 0 01-1.482.44zm-3.503 5.18a.666.666 0 01-.39-.05.466.466 0 01-.239-.256 1.023 1.023 0 01-.07-.463c.01-.183.05-.359.122-.527a9.61 9.61 0 00.205-.576 6.73 6.73 0 00.221-.834c.071-.338.12-.776.15-1.314.032-.672.013-1.33-.06-1.974a36.33 36.33 0 00-.239-1.965 111.46 111.46 0 01-.245-2.001 13.659 13.659 0 01-.075-2.08c.017-.21.052-.385.104-.526a.699.699 0 01.224-.324.79.79 0 01.394-.168.604.604 0 01.492.126.932.932 0 01.342.459c.078.194.105.42.084.678-.036.733-.024 1.423.036 2.069.07.632.151 1.25.242 1.856.102.603.187 1.209.254 1.817.066.609.083 1.243.048 1.903-.02.597-.072 1.145-.155 1.642a6.568 6.568 0 01-.335 1.287c-.129.36-.286.644-.473.853a1.01 1.01 0 01-.637.368zm13.016-6.53c-.784.118-1.416.11-1.898-.025-.481-.134-.85-.37-1.107-.708-.245-.339-.41-.75-.495-1.235a7.937 7.937 0 01-.062-1.628c.03-.611.1-1.246.207-1.905.118-.672.268-1.368.452-2.087a6.45 6.45 0 01.342-.997c.11-.235.255-.365.433-.392a.772.772 0 01.646.176c.18.143.255.368.229.676-.01.183-.068.483-.175.899-.096.414-.2.933-.314 1.557a17.85 17.85 0 00-.237 2.182c-.037.806.095 1.368.398 1.687.314.316.875.414 1.683.294.332-.05.77-.121 1.315-.215a311.39 311.39 0 011.753-.335c.626-.117 1.24-.233 1.842-.348a85.882 85.882 0 001.604-.349c.468-.118.806-.211 1.015-.279.15-.046.28-.114.388-.203.106-.1.169-.25.188-.447a11.38 11.38 0 00-.034-2.05 12.915 12.915 0 00-.287-1.795c-.117-.54-.233-.99-.348-1.349-.104-.372-.162-.636-.173-.792a.615.615 0 01.18-.5.746.746 0 01.452-.268c.273-.04.49.036.653.23.173.18.324.419.453.715.093.216.185.542.274.977.1.422.19.9.27 1.434.091.532.153 1.068.186 1.609.042.527.054 1.01.035 1.45-.04.71-.2 1.255-.483 1.637-.273.368-.734.655-1.383.861a15.96 15.96 0 01-1.088.272c-.495.098-1.062.207-1.7.327a52.78 52.78 0 01-1.948.364c-.661.123-1.282.234-1.862.333-.568.097-1.036.173-1.404.228zm3.03-.925a.672.672 0 01-.414-.084.646.646 0 01-.295-.392 5.892 5.892 0 01-.168-1.121 33.46 33.46 0 01-.035-1.45c.008-.51.024-.974.047-1.39.036-.733.102-1.386.198-1.958.097-.572.182-.973.257-1.203.047-.176.116-.32.209-.43a.584.584 0 01.403-.225.576.576 0 01.413.084.812.812 0 01.288.339c.07.147.103.324.098.531a3.755 3.755 0 01-.088.632 48.7 48.7 0 00-.152.932c-.043.358-.075.751-.096 1.179-.022.343-.03.732-.026 1.168.017.434.04.873.07 1.317.028.433.063.828.105 1.185.015.18-.078.37-.28.57-.202.187-.38.293-.534.316zm12.963-1.446c-.986.147-1.778.084-2.378-.19a2.555 2.555 0 01-1.29-1.318c-.26-.604-.372-1.309-.335-2.114a6.72 6.72 0 01.416-1.845 7.461 7.461 0 01.987-1.803 6.11 6.11 0 011.483-1.404 4.477 4.477 0 011.874-.735c.939-.14 1.66-.018 2.168.367.519.383.754 1.027.708 1.932a3.033 3.033 0 01-.625 1.785c-.397.508-.923.932-1.576 1.272a6.65 6.65 0 01-2.137.684c-.808.12-1.362.106-1.664-.043-.29-.15-.428-.348-.416-.593.002-.145.04-.254.115-.326.072-.084.198-.139.376-.165.13-.02.288-.02.473.002a4.94 4.94 0 00.846-.072 4.885 4.885 0 001.565-.489c.462-.239.826-.523 1.092-.854.265-.343.41-.71.436-1.102.018-.367-.07-.627-.262-.78-.181-.155-.503-.197-.966-.128a2.974 2.974 0 00-1.288.52 4.606 4.606 0 00-1.05 1.012 5.29 5.29 0 00-.725 1.363c-.18.5-.28 1.012-.298 1.536-.02.44.034.832.158 1.177.123.334.344.592.662.775.33.169.767.213 1.313.13.617-.091 1.134-.247 1.55-.467.427-.234.778-.48 1.055-.74.277-.26.51-.483.701-.669.19-.186.37-.291.535-.316.202-.03.356.025.462.167.117.128.169.315.157.559-.012.244-.135.517-.37.82a4.653 4.653 0 01-.926.865c-.381.288-.817.54-1.306.76a6.16 6.16 0 01-1.52.427zM78.95 40.9a.742.742 0 01-.715-.276c-.192-.226-.338-.555-.44-.989-.09-.447-.123-.982-.094-1.605.048-.65.137-1.148.267-1.495.14-.36.32-.618.54-.772.12-.09.298-.16.534-.207.234-.06.481-.109.742-.148.867-.13 1.716-.298 2.547-.507.84-.223 1.65-.526 2.43-.91l.505 1.18c-.581.33-1.22.607-1.914.832a22 22 0 01-2.136.574 43.82 43.82 0 01-2.112.37l-1.057-.006c.05-.723.1-1.482.15-2.278.052-.796.091-1.505.12-2.128.004-.291.064-.537.18-.736.116-.2.263-.312.441-.34.297-.043.535.042.713.258.176.204.248.564.216 1.078-.009.268-.033.593-.073.975-.04.382-.083.782-.13 1.201-.034.418-.071.818-.111 1.2-.03.368-.051.674-.063.919-.04.709-.054 1.342-.043 1.898.02.543.027.954.02 1.234a.753.753 0 01-.17.444.495.495 0 01-.347.234zm6.144-.919c-.296.045-.536-.096-.718-.42-.17-.326-.294-.787-.37-1.382a13.184 13.184 0 01-.05-2.03c.067-1.174.14-2.106.218-2.797.09-.705.181-1.265.277-1.68a2.99 2.99 0 01.252-.746c.113-.223.27-.35.472-.38.26-.039.464.058.608.291.154.22.221.507.201.861-.019.44-.08.922-.183 1.447a12.085 12.085 0 00-.168 1.68 20.89 20.89 0 00-.012 1.985c.038.577.08 1.061.127 1.455.047.393.06.688.041.885a.839.839 0 01-.207.558.789.789 0 01-.488.273zm5.217-.78c-.404.061-.739.014-1.004-.14a1.682 1.682 0 01-.611-.673 3.279 3.279 0 01-.315-1.008 6.763 6.763 0 01-.04-1.122c.025-.319.065-.701.12-1.146.066-.446.142-.912.227-1.398.085-.486.169-.941.25-1.366.095-.426.172-.759.234-.998.092-.439.18-.78.265-1.023.097-.244.235-.38.413-.407a.67.67 0 01.451.096c.147.088.262.21.346.367a.962.962 0 01.136.544 5.65 5.65 0 01-.126.855c-.078.376-.167.795-.267 1.26-.1.463-.194.932-.281 1.406a9.007 9.007 0 00-.16 1.242 6.819 6.819 0 00-.004.947c.019.288.066.523.142.706.075.171.189.245.343.222.38-.057.81-.467 1.29-1.23.493-.765 1.013-1.795 1.56-3.089a27.98 27.98 0 00.654-1.59c.182-.488.343-.912.483-1.272.138-.373.282-.667.432-.884.15-.216.314-.338.492-.364.273-.041.485.037.636.232.16.183.26.446.3.792.046.308.091.69.135 1.144l.172 1.393c.058.465.123.898.195 1.3.138.682.288 1.236.449 1.66.17.411.317.741.44.99.121.248.19.457.203.624a.897.897 0 01-.07.393.961.961 0 01-.227.307.636.636 0 01-.34.16c-.273.04-.517-.05-.733-.273-.203-.224-.386-.555-.549-.991a14.95 14.95 0 01-.469-1.55c-.087-.423-.18-.876-.276-1.359-.085-.484-.157-.97-.218-1.459-.05-.49-.093-.944-.132-1.363l.543.101c-.101.294-.212.608-.332.941-.108.332-.246.71-.413 1.135a41.58 41.58 0 01-.599 1.472 18.567 18.567 0 01-1.043 2.03 8.228 8.228 0 01-1.268 1.627c-.445.43-.923.683-1.434.76zm13.083-1.973c-.985.147-1.778.084-2.377-.19a2.553 2.553 0 01-1.29-1.318c-.26-.603-.372-1.308-.335-2.114a6.683 6.683 0 01.416-1.845 7.455 7.455 0 01.987-1.803 6.079 6.079 0 011.483-1.404 4.474 4.474 0 011.875-.735c.937-.14 1.659-.018 2.167.367.518.383.754 1.027.708 1.932a3.03 3.03 0 01-.625 1.785c-.397.508-.923.932-1.576 1.272a6.654 6.654 0 01-2.137.684c-.807.12-1.362.106-1.664-.043-.289-.15-.428-.348-.416-.592.002-.146.041-.255.115-.327.072-.083.197-.139.375-.165.131-.02.289-.019.474.002.195.007.478-.017.846-.072a4.907 4.907 0 001.566-.488c.461-.24.825-.524 1.091-.855.264-.343.409-.71.436-1.102.018-.367-.07-.626-.263-.78-.18-.154-.502-.197-.965-.128-.606.09-1.155.355-1.648.792a5.234 5.234 0 00-1.215 1.619 5.119 5.119 0 00-.498 2.02c-.019.44.033.832.158 1.178.123.333.343.591.662.774.329.169.767.213 1.313.131.617-.092 1.134-.248 1.55-.468.426-.233.778-.48 1.054-.74.278-.26.512-.482.702-.669.191-.186.369-.291.535-.316.202-.03.356.026.462.167.116.128.168.315.157.56-.012.244-.135.517-.369.818a4.671 4.671 0 01-.926.866 6.763 6.763 0 01-1.307.76 6.153 6.153 0 01-1.521.427zM9.145 67.522c-.973.145-1.807.052-2.5-.281a3.327 3.327 0 01-1.54-1.535c-.337-.701-.486-1.534-.448-2.498a5.01 5.01 0 01.416-1.845c.256-.56.56-1.041.912-1.446a4.772 4.772 0 011.132-.951c.39-.24.732-.383 1.03-.427a.83.83 0 01.328.006.4.4 0 01.24.146c.07.062.103.16.099.294-.024.246-.086.48-.187.701-.102.21-.32.418-.653.625a5.056 5.056 0 00-.985.839c-.25.28-.439.593-.57.94-.131.335-.2.727-.205 1.177-.046.989.182 1.743.684 2.262.501.508 1.18.697 2.034.57.831-.125 1.511-.53 2.04-1.215.539-.699.828-1.56.87-2.586.052-.942-.114-1.644-.499-2.108-.387-.476-.936-.66-1.649-.554-.368.055-.672.173-.912.354-.228.18-.472.41-.734.692a5.45 5.45 0 00-.444.558c-.11.162-.212.292-.306.391a.615.615 0 01-.358.163.504.504 0 01-.416-.102c-.1-.106-.146-.287-.136-.543.007-.28.102-.58.285-.898.194-.32.44-.624.737-.91a4.528 4.528 0 011.017-.753 3.178 3.178 0 011.123-.404c.855-.128 1.58-.03 2.174.293.593.312 1.037.804 1.332 1.475.293.66.412 1.454.357 2.384-.033.915-.237 1.746-.61 2.493a5.111 5.111 0 01-1.514 1.809 4.637 4.637 0 01-2.144.884zm10.48-1.584c-.63.094-1.18.067-1.652-.081a2.771 2.771 0 01-1.19-.768 4.052 4.052 0 01-.765-1.341 7.374 7.374 0 01-.376-1.781 15.086 15.086 0 01-.044-2.122 9.73 9.73 0 01.346-2.308 8.897 8.897 0 01.74-1.875 6.617 6.617 0 011.009-1.406 4.832 4.832 0 011.14-.898 7.552 7.552 0 011.077-.47c.367-.14.725-.266 1.072-.378.347-.113.665-.221.953-.325.506-.185.934-.37 1.282-.555.349-.186.618-.293.808-.321a.756.756 0 01.408.048.647.647 0 01.43.682c-.006.207-.104.397-.297.572a3.009 3.009 0 01-.753.44c-.615.273-1.184.486-1.708.637-.513.137-.985.268-1.416.393a4.51 4.51 0 00-1.232.53c-.38.215-.736.553-1.068 1.015-.321.448-.591.992-.811 1.63a7.508 7.508 0 00-.364 2.074c-.059 1.307-.017 2.356.126 3.147.152.778.417 1.326.792 1.646.388.318.878.433 1.472.344a2.83 2.83 0 001.184-.486 4.919 4.919 0 001.032-1.01c.317-.398.57-.818.758-1.259.2-.454.305-.882.318-1.284.031-.441-.029-.802-.18-1.083a1.158 1.158 0 00-.674-.609c-.31-.123-.702-.15-1.177-.078-.63.094-1.31.377-2.04.85-.718.471-1.415 1.127-2.09 1.968l-.672-.59a6.922 6.922 0 011.409-1.903 6.71 6.71 0 011.78-1.249 6.244 6.244 0 011.84-.602c.724-.108 1.35-.062 1.877.138.526.188.927.516 1.204.984.276.468.387 1.082.33 1.843a5.949 5.949 0 01-.458 1.924 7.532 7.532 0 01-1.043 1.793 6.87 6.87 0 01-1.518 1.41 4.594 4.594 0 01-1.86.714zM30.231 68.9c-.725.108-1.347.129-1.867.06-.518-.055-.908-.185-1.17-.388-.26-.204-.381-.447-.363-.728.02-.428.245-.674.672-.737a.876.876 0 01.406.03c.127.041.274.086.439.135.166.06.39.099.673.117.294.017.672-.01 1.135-.079.57-.085 1.026-.28 1.37-.586.342-.306.592-.701.75-1.186.17-.486.27-1.035.3-1.645.02-.355.017-.7-.01-1.036a82.132 82.132 0 00-.052-1.084 54.22 54.22 0 01-.055-1.338 26.103 26.103 0 01.016-1.84l.63.434c-.258.875-.538 1.603-.84 2.181-.303.567-.612 1.02-.925 1.357-.316.327-.626.567-.93.722-.295.14-.567.23-.816.267-1.033.154-1.815-.165-2.347-.959-.533-.806-.752-2.186-.656-4.14.035-.818.1-1.44.194-1.867.105-.428.237-.727.394-.896a.886.886 0 01.52-.296c.285-.042.484.031.597.22.113.19.138.556.074 1.1a25.13 25.13 0 00-.131 2.165 9.173 9.173 0 00.11 1.712c.085.485.22.853.402 1.104.182.24.433.336.754.288.498-.075.947-.403 1.346-.984.396-.593.737-1.359 1.021-2.299.294-.953.53-2.008.71-3.162.057-.348.131-.584.222-.706.09-.135.246-.22.472-.253a.692.692 0 01.47.094c.158.085.27.262.334.532.075.255.075.62 0 1.091a19.229 19.229 0 00-.168 1.68c-.012.488-.003.953.027 1.397.029.433.065.876.108 1.33.054.441.092.933.112 1.475.019.531.015 1.15-.013 1.858-.054 1.1-.261 1.985-.622 2.658-.347.682-.804 1.194-1.373 1.533a5.203 5.203 0 01-1.92.67zm8.39-8.73c-.452.067-.84.022-1.168-.135a1.805 1.805 0 01-.784-.738 3 3 0 01-.339-1.168 5.625 5.625 0 01.009-1.402 6.92 6.92 0 01.307-1.356c.155-.423.338-.778.55-1.065.212-.286.443-.448.692-.485a.608.608 0 01.314.026.471.471 0 01.246.181c.06.076.093.18.101.313.004.108-.03.283-.103.525-.063.227-.144.5-.242.818a6.59 6.59 0 00-.236.981 3.496 3.496 0 00-.031 1.005c.032.214.077.395.136.544a.557.557 0 00.244.29c.117.056.26.071.425.046.38-.056.758-.21 1.133-.46.376-.25.723-.569 1.04-.956.331-.389.615-.801.853-1.237a5.8 5.8 0 00.514-1.314l.417 1.812a10.7 10.7 0 01-1.132 1.806 5.885 5.885 0 01-1.384 1.335 3.7 3.7 0 01-1.562.633zm4.228 2.333c-.262.039-.46-.035-.598-.22a2.667 2.667 0 01-.346-.73 6.406 6.406 0 01-.146-.852c-.03-.36-.044-.745-.045-1.157-.001-.413.012-.809.04-1.189a35.876 35.876 0 01.236-2.073c.054-.372.11-.72.171-1.044.06-.336.104-.604.135-.802.062-.398.148-.714.259-.949.122-.236.29-.37.504-.403.202-.03.393.07.572.297.18.228.257.538.23.93a7.985 7.985 0 01-.142 1.113c-.089.462-.175.941-.258 1.439-.073.484-.12.903-.14 1.258a15.893 15.893 0 00-.03 1.496c.014.422.046.794.093 1.114.024.239.054.435.089.587.035.153.049.29.043.412a.893.893 0 01-.183.482c-.097.16-.259.257-.484.29zm7.082-1.113c-.736.11-1.369.101-1.898-.026-.518-.14-.936-.375-1.252-.704a3.083 3.083 0 01-.696-1.242 5.267 5.267 0 01-.156-1.65 6.68 6.68 0 01.415-1.845 7.459 7.459 0 01.987-1.803c.426-.561.92-1.03 1.483-1.404a4.478 4.478 0 011.875-.735c.63-.095 1.16-.07 1.595.07.445.14.775.394.988.762.225.367.322.856.292 1.467a3.05 3.05 0 01-.393 1.386c-.23.41-.545.78-.945 1.106-.39.313-.842.58-1.355.803a6.967 6.967 0 01-1.645.446c-.807.12-1.362.106-1.663-.043-.29-.15-.429-.348-.417-.593.003-.145.04-.254.115-.326.073-.084.198-.139.376-.165.13-.02.288-.02.474.002.195.007.477-.017.845-.072a4.884 4.884 0 001.565-.489c.462-.239.826-.523 1.093-.854.264-.343.41-.71.435-1.102.018-.367-.07-.627-.262-.78-.181-.155-.503-.197-.966-.128a2.974 2.974 0 00-1.288.52 4.609 4.609 0 00-1.05 1.012 5.278 5.278 0 00-.725 1.363c-.18.5-.28 1.012-.298 1.536-.019.44.034.832.158 1.177.123.334.344.592.663.775.328.169.766.213 1.312.13.617-.091 1.134-.248 1.55-.467.427-.234.778-.48 1.055-.74.277-.26.51-.483.701-.669.19-.186.37-.291.536-.316.201-.03.355.025.462.167.116.128.168.314.156.559-.012.244-.135.517-.369.82a4.653 4.653 0 01-.926.865c-.382.288-.818.54-1.307.76a6.16 6.16 0 01-1.52.427zm7.402-1.088c-.427.063-.753-.167-.978-.691-.224-.524-.314-1.25-.271-2.179.048-.65.137-1.148.268-1.495.14-.36.32-.618.54-.772.12-.09.297-.16.533-.207.234-.06.482-.109.743-.148.867-.13 1.715-.298 2.546-.507a13.13 13.13 0 002.431-.91l.505 1.18c-.582.33-1.22.607-1.915.832a22.19 22.19 0 01-2.136.574c-.719.144-1.423.267-2.111.37l-1.057-.006c.05-.723.1-1.482.15-2.278.05-.796.09-1.505.119-2.128.005-.292.065-.537.18-.736.117-.2.264-.312.442-.34.296-.043.534.042.712.258.176.204.248.563.216 1.078-.009.268-.033.593-.073.975-.04.382-.083.782-.13 1.202-.034.417-.071.817-.111 1.199-.03.368-.05.674-.063.919-.04.709-.054 1.342-.043 1.898.02.543.027.954.02 1.234a.752.752 0 01-.17.444.494.494 0 01-.347.234zm6.145-.919c-.297.045-.537-.096-.719-.42-.17-.326-.294-.787-.37-1.382a13.17 13.17 0 01-.05-2.03 51.88 51.88 0 01.219-2.797c.089-.705.18-1.265.277-1.68a2.95 2.95 0 01.252-.746c.112-.223.27-.35.47-.38.262-.039.465.058.609.291.154.22.221.507.202.861-.02.44-.08.922-.184 1.447a12.07 12.07 0 00-.167 1.68c-.036.733-.04 1.395-.013 1.985.038.576.08 1.061.127 1.454.047.394.06.689.042.886a.84.84 0 01-.208.558.789.789 0 01-.487.273zm5.216-.78c-.403.06-.738.014-1.004-.14a1.683 1.683 0 01-.61-.673 3.273 3.273 0 01-.316-1.008 6.741 6.741 0 01-.04-1.122 26.5 26.5 0 01.12-1.146c.066-.446.142-.912.227-1.398.085-.486.169-.941.251-1.366a32.9 32.9 0 01.233-.998 8.67 8.67 0 01.266-1.023c.096-.245.234-.38.412-.407a.67.67 0 01.451.096.93.93 0 01.347.367.962.962 0 01.136.544c-.007.195-.05.48-.127.855-.077.376-.166.795-.267 1.26-.1.463-.194.932-.28 1.405a9.023 9.023 0 00-.16 1.243 6.824 6.824 0 00-.005.947c.02.288.067.523.143.706.074.171.188.245.342.222.38-.057.81-.467 1.291-1.23.493-.765 1.012-1.795 1.559-3.089.254-.572.472-1.102.654-1.59.182-.488.343-.912.483-1.272.139-.373.283-.667.432-.884.15-.216.314-.338.492-.364.273-.041.485.037.636.232.16.182.26.446.3.792.047.309.092.69.135 1.144l.172 1.393c.058.465.123.898.195 1.3.139.682.288 1.236.45 1.66.17.412.316.741.439.99.122.248.19.457.202.624a.882.882 0 01-.068.393.964.964 0 01-.228.307.635.635 0 01-.34.16c-.415.062-.753-.167-1.013-.686-.26-.519-.505-1.228-.737-2.127-.088-.424-.18-.877-.277-1.36a30.52 30.52 0 01-.218-1.459c-.05-.49-.093-.944-.131-1.363l.543.101c-.14.445-.309.938-.507 1.477-.199.539-.478 1.23-.837 2.071a18.595 18.595 0 01-1.044 2.03 8.228 8.228 0 01-1.268 1.627c-.445.43-.923.683-1.434.76zM84.786 56.2a.731.731 0 01-.758-.323c-.175-.278-.301-.629-.377-1.054a17.485 17.485 0 01-.091-.732 10.518 10.518 0 01-.054-.847c.005-.292.007-.56.007-.802l.058-.827c.036-.333.07-.671.103-1.016.044-.358.08-.685.108-.98.04-.31.065-.543.077-.703 0-.158-.052-.265-.157-.322-.108-.069-.28-.086-.518-.05-.19.028-.396.071-.618.129-.222.057-.46.13-.714.216a5.63 5.63 0 00-1.535.811c-.426.319-.645.642-.656.971a1.08 1.08 0 00.2.734c.163.194.444.328.844.402.411.072.985.053 1.721-.057.261-.04.522-.084.781-.135.26-.05.506-.106.74-.165a9.3 9.3 0 01.613-.165c.163-.048.268-.076.315-.083.297-.044.55-.064.756-.059.207.006.303.119.288.34 0 .242-.102.451-.307.627-.192.175-.462.318-.81.43a7.136 7.136 0 01-1.197.27l-1.835.275a4.906 4.906 0 01-1.829-.054c-.566-.134-1.02-.375-1.365-.724-.331-.35-.489-.794-.472-1.33.023-.331.128-.686.314-1.066.196-.393.503-.778.92-1.156.428-.38 1.008-.72 1.74-1.024a9.214 9.214 0 011.331-.472c.363-.09.728-.163 1.096-.218.464-.07.836-.058 1.116.033.281.091.486.243.615.454.14.21.203.467.188.772-.01.256-.042.57-.096.942-.055.36-.109.732-.16 1.116-.042.37-.077.703-.106.998a15.755 15.755 0 00.013 1.908c.022.312.05.58.084.806.04.261.087.539.143.834.066.28.096.477.088.587a.704.704 0 01-.168.462.674.674 0 01-.436.247zm-6.272.919c-.214.032-.39-.014-.53-.139a.666.666 0 01-.185-.5c.016-.136.086-.28.209-.431.121-.164.335-.354.643-.57a9.452 9.452 0 001.527-1.356c.502-.536.997-1.125 1.483-1.768l1.218.473a19.848 19.848 0 01-2.343 2.842 9.34 9.34 0 01-1.123 1.005c-.35.259-.65.407-.899.444z" fill="#7831B2"/></svg>