<svg width="154" height="153" fill="none" xmlns="http://www.w3.org/2000/svg"><path d="M14.78 31.077a.72.72 0 01-.623-.084c-.177-.137-.342-.346-.497-.626-.107-.244-.25-.615-.429-1.113a55.139 55.139 0 01-.594-1.759c-.22-.686-.448-1.42-.683-2.201-.227-.796-.45-1.606-.673-2.429a76.068 76.068 0 01-.576-2.418l.551-.101c-.026.082-.087.306-.183.67-.085.36-.2.811-.345 1.352-.149.529-.308 1.11-.476 1.745-.17.634-.34 1.282-.514 1.943a122.9 122.9 0 01-.511 1.886 71.44 71.44 0 01-.44 1.547 34.82 34.82 0 01-.29 1.019c-.137.438-.287.787-.45 1.045-.164.259-.39.43-.678.511a.668.668 0 01-.616-.124c-.19-.145-.376-.423-.555-.834-.198-.43-.417-.98-.657-1.647-.243-.68-.491-1.42-.744-2.22a91.453 91.453 0 01-.74-2.467c-.228-.845-.437-1.647-.628-2.403l.438.025c-.184.364-.37.785-.558 1.263a28.146 28.146 0 00-.96 3.136 43.818 43.818 0 00-.345 1.483 27.428 27.428 0 00-.298 2.369 33.02 33.02 0 00-.086 1.933c.002.536.008.927.016 1.175a1.88 1.88 0 01-.07.544c-.05.176-.126.323-.23.44a.82.82 0 01-.399.244c-.207.059-.404.003-.59-.169-.175-.175-.277-.445-.306-.811A14.29 14.29 0 010 32.74a24.3 24.3 0 01.452-4.527c.124-.659.277-1.326.459-2.002.194-.679.403-1.325.627-1.938.222-.624.45-1.182.684-1.673.232-.503.46-.905.686-1.206.223-.313.427-.496.612-.548.253-.073.478-.05.674.07.208.115.384.296.53.541a3.1 3.1 0 01.332.841c.16.604.343 1.27.55 1.996l.66 2.189c.234.732.472 1.438.715 2.117.24.668.465 1.259.674 1.773l-.515-.097c.187-.614.382-1.312.583-2.093.202-.781.405-1.581.608-2.4.204-.82.4-1.599.588-2.339l.51-1.96a52.6 52.6 0 01.337-1.182c.089-.3.187-.546.294-.738.104-.205.222-.363.352-.475.13-.112.276-.19.438-.237a.812.812 0 01.574.043c.182.072.347.213.494.42.158.205.288.467.392.787.057.158.133.424.227.796.093.373.207.815.34 1.326.13.5.27 1.04.423 1.62l.488 1.714c.317 1.07.59 1.916.816 2.537a23.5 23.5 0 00.548 1.398c.135.298.209.514.222.648a1.18 1.18 0 01-.065.43.734.734 0 01-.208.321.729.729 0 01-.321.185zm5.405-1.483c-.542.155-1.024.149-1.446-.018-.422-.167-.762-.463-1.02-.889-.262-.437-.424-.983-.486-1.64l-.198-2.339c-.065-.755-.124-1.4-.176-1.933-.04-.538-.067-.892-.078-1.064a1.119 1.119 0 01.03-.42 1 1 0 01.215-.36.723.723 0 01.334-.208c.266-.076.5.001.702.23.214.227.342.52.383.884.022.343.034.757.035 1.243.013.483.043.937.088 1.36l.02.594c.016.232.028.472.036.72l.041.605c.047.648.184 1.127.41 1.437.225.31.534.41.926.297.22-.062.446-.189.678-.38.244-.194.467-.42.668-.677.198-.268.353-.537.463-.805.111-.269.139-.501.083-.697-.074-.304-.224-.523-.45-.658-.214-.14-.493-.222-.838-.248a3.978 3.978 0 00-.739-.033c-.297.01-.609.03-.937.06-.331.02-.645.06-.94.118l-.026-1.209a19.95 19.95 0 001.319-.693c.494-.278 1-.584 1.516-.918a39.861 39.861 0 001.475-1c.53-.376.988-.737 1.375-1.085.4-.35.74-.647 1.02-.889.289-.257.537-.415.745-.474.357-.102.663-.058.917.132.262.175.408.47.44.886.024.392.046.779.067 1.16.03.365.056.744.08 1.137a56.358 56.358 0 00.266 2.376c.06.432.128.824.204 1.177.065.231.132.486.2.767.075.265.12.465.132.598a.816.816 0 01-.057.39.655.655 0 01-.218.288.729.729 0 01-.321.185c-.243.069-.46.006-.653-.189-.184-.21-.33-.48-.437-.811a15.105 15.105 0 01-.389-1.761 25.79 25.79 0 01-.23-1.862c-.015-.27-.038-.57-.069-.898-.02-.331-.037-.656-.053-.976a34.88 34.88 0 00-.054-.846c-.011-.259-.02-.443-.027-.554l.45.265c-.223.226-.521.492-.896.798a26.48 26.48 0 01-1.267.94c-.481.325-.986.656-1.514.993-.527.338-1.064.665-1.61.983-.538.303-1.06.57-1.569.802l-.004-.673a7.7 7.7 0 01.406-.152c.19-.08.411-.155.665-.227.139-.04.336-.07.591-.094.267-.026.548-.025.843.004.307.024.608.095.902.21.304.101.562.265.777.49.225.224.383.515.473.877.105.456.073.933-.097 1.431a4.745 4.745 0 01-.741 1.409 6.208 6.208 0 01-1.146 1.168c-.432.323-.862.545-1.289.666zm15.812-4.501a.503.503 0 01-.425-.048.749.749 0 01-.264-.336 1.186 1.186 0 01-.131-.524c-.013-.221.018-.53.092-.925.083-.41.2-.874.353-1.392a48.65 48.65 0 01.48-1.597c.19-.565.385-1.126.589-1.683.211-.572.42-1.087.626-1.544.204-.47.378-.844.523-1.123.231-.415.47-.738.716-.97.254-.248.53-.414.83-.5.278-.078.496-.034.656.132.156.155.304.37.444.641.144.284.296.621.457 1.012.161.39.331.791.51 1.202.177.399.36.783.553 1.153.23.458.435.849.615 1.172.19.32.361.59.51.81.162.215.308.398.438.549.124.127.225.241.304.343.079.103.13.219.155.35.032.152.026.31-.015.471a.84.84 0 01-.223.4.704.704 0 01-.364.235c-.219.063-.445.015-.677-.144-.224-.173-.452-.426-.684-.76-.232-.333-.46-.698-.686-1.095-.134-.25-.309-.58-.526-.992a66.634 66.634 0 01-.657-1.386 49.312 49.312 0 01-.641-1.464 22.047 22.047 0 01-.432-1.187l.386.04a12.41 12.41 0 00-.73 1.443 34.72 34.72 0 00-.732 1.836 42.633 42.633 0 00-.667 2.062 29.55 29.55 0 00-.509 2.091c-.125.523-.248.926-.367 1.209-.107.28-.276.453-.507.519zm18.085-5.15c-.75.214-1.407.252-1.97.113a3.06 3.06 0 01-1.384-.786 3.958 3.958 0 01-.86-1.308 5.083 5.083 0 01-.337-1.514 5.142 5.142 0 01.09-1.523c.103-.516.262-1.01.477-1.483.226-.476.484-.905.775-1.287a5.04 5.04 0 01.955-.983c.346-.274.693-.46 1.04-.558a.583.583 0 01.375.005.848.848 0 01.299.196.65.65 0 01.173.344c.013.046-.068.156-.243.33-.175.175-.382.39-.621.645a9.832 9.832 0 00-.696.779 2.743 2.743 0 00-.477.753 12.827 12.827 0 00-.59 1.478c-.15.442-.3.81-.454 1.103-.145.278-.345.453-.599.526-.473.134-.839.251-1.098.35a2.637 2.637 0 00-.618.325 2.526 2.526 0 00-.473.51c-.193.242-.355.55-.485.924-.12.37-.214.74-.283 1.11-.062.354-.106.635-.135.842-.068.42-.154.73-.258.935-.107.193-.236.31-.386.353a.595.595 0 01-.598-.129c-.168-.152-.267-.41-.296-.777-.023-.168-.018-.437.013-.808.032-.371.064-.786.095-1.244.04-.473.07-.918.088-1.335a6.857 6.857 0 00.001-1.048 8.242 8.242 0 00-.216-1.286 20.19 20.19 0 00-.276-1.1 4.655 4.655 0 01-.17-.794.906.906 0 01.11-.537.745.745 0 01.447-.333c.266-.076.482-.038.65.114.165.14.302.357.41.65a10.197 10.197 0 01.414 1.586c.069.33.12.665.155 1.004.018.282.02.618.006 1.009a18.3 18.3 0 01-.167 2.368c-.036.36-.07.656-.103.89l-.037.33-1.212-.049c.01-.227.041-.492.093-.794a8.58 8.58 0 01.218-.941c.094-.327.215-.648.362-.964.147-.317.321-.603.522-.86.256-.373.534-.67.832-.892a4.206 4.206 0 011.004-.548c.38-.158.823-.31 1.331-.454.08-.023.18-.132.3-.328.13-.2.264-.431.4-.695.146-.278.289-.543.43-.795.136-.264.258-.473.363-.628l1.417-.478a7.84 7.84 0 00-.569.498 5.267 5.267 0 00-.638.781c-.2.307-.359.67-.476 1.09-.118.42-.154.905-.11 1.454.03.59.168 1.094.411 1.51.244.418.567.72.969.904.41.17.863.185 1.36.044a2.85 2.85 0 001.18-.654c.333-.32.59-.686.772-1.1.178-.425.282-.873.31-1.342.04-.473.003-.93-.11-1.373a3.672 3.672 0 00-.422-1.021c-.187-.309-.472-.52-.855-.636-.382-.116-.925-.074-1.629.127-.289.082-.54.078-.752-.011-.204-.104-.31-.255-.316-.453-.024-.13.018-.267.127-.41a1.62 1.62 0 01.45-.39c.203-.12.42-.213.65-.28.624-.176 1.17-.232 1.638-.166.48.063.892.22 1.238.471.357.248.649.57.874.968.226.397.393.83.5 1.298.167.627.218 1.267.155 1.922a5.332 5.332 0 01-.511 1.886 4.968 4.968 0 01-1.181 1.571c-.495.453-1.117.786-1.868 1zm10.103-2.894c-.762.216-1.431.232-2.008.047a2.998 2.998 0 01-1.428-1.072c-.375-.53-.671-1.175-.888-1.937-.22-.773-.37-1.628-.45-2.566a9.74 9.74 0 01.046-2.334 8.9 8.9 0 01.492-1.956 6.56 6.56 0 01.82-1.524 4.83 4.83 0 011.014-1.038 8.86 8.86 0 011.51-.879 25.286 25.286 0 001.414-.683c.478-.249.878-.487 1.2-.716.322-.229.575-.37.76-.422a.754.754 0 01.41-.005.647.647 0 01.514.621c.02.206-.053.408-.221.606a2.997 2.997 0 01-.69.533c-.574.35-1.111.635-1.61.852-.492.202-.943.393-1.354.572a4.5 4.5 0 00-1.153.684c-.35.262-.659.643-.928 1.144-.26.486-.459 1.06-.595 1.723a7.522 7.522 0 00-.093 2.104c.109 1.303.285 2.339.528 3.105.252.752.584 1.263.998 1.532.425.266.926.316 1.503.152a2.827 2.827 0 001.11-.634 4.9 4.9 0 00.895-1.134c.262-.437.459-.886.59-1.347.138-.476.188-.915.149-1.316-.026-.441-.132-.792-.318-1.05a1.158 1.158 0 00-.746-.518c-.323-.083-.716-.058-1.177.073-.612.174-1.25.543-1.913 1.106-.651.56-1.258 1.3-1.819 2.221l-.741-.5a6.928 6.928 0 011.151-2.069 6.71 6.71 0 011.604-1.467 6.242 6.242 0 011.746-.834c.704-.2 1.33-.235 1.88-.104.545.119.985.393 1.319.822.334.429.522 1.024.564 1.785a5.956 5.956 0 01-.207 1.968 7.542 7.542 0 01-.802 1.913 6.869 6.869 0 01-1.325 1.594 4.588 4.588 0 01-1.751.948zm8.627-2.457c-.392.112-.73.108-1.014-.01a1.683 1.683 0 01-.692-.59 3.281 3.281 0 01-.441-.96 6.755 6.755 0 01-.185-1.107c-.016-.32-.025-.704-.028-1.152a69.838 69.838 0 01.119-2.804c.038-.435.072-.775.102-1.021.035-.447.079-.796.132-1.048.064-.256.183-.408.356-.457a.668.668 0 01.46.037.925.925 0 01.39.32.964.964 0 01.205.521c.018.195.013.483-.015.866-.029.382-.063.81-.103 1.283-.04.473-.072.95-.098 1.431a9.02 9.02 0 00.002 1.254c.02.331.059.645.118.94.055.283.133.51.231.682.096.16.219.219.368.176.37-.105.744-.567 1.122-1.386.39-.822.772-1.91 1.148-3.265.178-.6.326-1.154.444-1.661.117-.508.222-.95.315-1.325.09-.387.194-.698.315-.932.12-.234.267-.375.44-.425.266-.075.486-.026.66.15.183.16.317.408.4.746.086.3.18.673.281 1.118l.35 1.36c.117.454.236.875.36 1.264.225.66.445 1.19.658 1.59.223.386.41.695.563.926.153.23.247.428.282.593a.882.882 0 01-.018.398.965.965 0 01-.186.334.636.636 0 01-.316.202c-.405.115-.769-.068-1.093-.55-.324-.481-.659-1.153-1.004-2.015-.142-.41-.291-.847-.449-1.314a30.23 30.23 0 01-.404-1.42c-.112-.48-.214-.924-.306-1.335l.552.03c-.081.46-.186.97-.313 1.53a45.98 45.98 0 01-.563 2.164c-.215.734-.473 1.45-.774 2.147a8.235 8.235 0 01-1.047 1.777c-.386.484-.828.797-1.324.938zm10.066-2.865c-.277.079-.53-.024-.761-.308-.23-.283-.375-.767-.432-1.449-.013-.22-.03-.522-.05-.902a16.957 16.957 0 01-.017-1.306c.019-.504.067-1.036.145-1.595.143-.988.297-1.781.465-2.378.163-.608.362-1.07.597-1.386.234-.316.507-.519.819-.608a.644.644 0 01.637.137c.195.157.36.365.497.626.136.26.261.524.375.791.151.357.326.75.523 1.18.209.427.425.859.649 1.294.235.432.476.838.72 1.217.258.376.514.684.769.923l-.584.316c.147-.753.318-1.513.512-2.28.193-.765.395-1.503.605-2.211.21-.709.415-1.348.615-1.916.228-.601.44-1.042.634-1.322.206-.284.413-.455.621-.514a.888.888 0 01.445-.014c.144.021.273.06.388.114.163.09.306.218.428.383s.212.439.27.822c.134.86.278 1.63.434 2.31.164.664.316 1.22.456 1.666.238.793.477 1.412.715 1.855.25.44.378.735.383.883a.539.539 0 01-.14.433.743.743 0 01-.422.289c-.277.079-.546.012-.806-.201-.249-.217-.46-.543-.635-.98a22.807 22.807 0 01-.552-1.546 28.972 28.972 0 01-.555-2.144 32.965 32.965 0 01-.422-2.537l.467-.264a133.08 133.08 0 00-.54 1.65c-.19.604-.386 1.233-.586 1.89a93.79 93.79 0 00-.535 1.93 31.632 31.632 0 00-.393 1.777 1.732 1.732 0 01-.302.648.933.933 0 01-.517.353c-.277.079-.526.08-.747.006a1.893 1.893 0 01-.608-.425 6.624 6.624 0 01-.538-.708l-.383-.621a25.009 25.009 0 01-1.612-3.228 10.964 10.964 0 01-.399-1.14l.48-.287a20.13 20.13 0 00-.565 1.958 13.33 13.33 0 00-.267 1.891c-.035.622-.028 1.28.02 1.978.037.477.079.889.128 1.237.06.344.099.608.113.79.01.21-.023.4-.1.572-.075.171-.223.288-.442.35zM8.376 49.537c-.762.216-1.39.29-1.885.218-.494-.072-.89-.258-1.188-.56-.287-.305-.503-.693-.65-1.163a7.964 7.964 0 01-.27-1.607 16.98 16.98 0 01-.04-1.916c.03-.683.09-1.392.18-2.129.061-.442.131-.786.21-1.033.08-.248.206-.396.38-.445a.771.771 0 01.662.092c.196.119.3.333.313.64.015.184-.004.489-.057.916-.042.423-.079.951-.11 1.584-.033.633-.018 1.365.044 2.196.041.537.142.958.303 1.261.173.3.42.486.739.557.331.068.757.028 1.276-.12.323-.092.748-.22 1.276-.382.524-.174 1.09-.36 1.694-.557l1.781-.582c.59-.205 1.106-.39 1.546-.552.448-.178.771-.314.97-.407a1.14 1.14 0 00.358-.252c.093-.114.136-.27.13-.467a11.43 11.43 0 00-.298-2.03 12.94 12.94 0 00-.515-1.744 15.09 15.09 0 00-.518-1.294c-.152-.356-.243-.61-.274-.764a.616.616 0 01.114-.52.746.746 0 01.413-.323c.266-.075.492-.027.678.144.194.157.374.374.54.651.12.203.253.515.398.935.153.406.303.868.451 1.388.16.516.29 1.04.392 1.572.11.518.183.996.22 1.435.053.708-.037 1.27-.268 1.686-.223.4-.642.744-1.26 1.032-.22.1-.568.237-1.043.41-.478.16-1.025.341-1.642.542a52.5 52.5 0 01-1.885.611c-.64.207-1.24.397-1.803.57-.55.17-1.005.305-1.362.406zm2.884-1.308a.67.67 0 01-.42-.03.647.647 0 01-.344-.352 5.9 5.9 0 01-.31-1.09 33.69 33.69 0 01-.222-1.435 36.98 36.98 0 01-.132-1.384 16.886 16.886 0 01-.055-1.969c.022-.58.055-.989.1-1.226.023-.181.074-.333.151-.455a.584.584 0 01.371-.274.575.575 0 01.42.03c.13.063.24.163.33.3.088.137.143.308.165.514.016.145.014.358-.006.638-.012.266-.022.58-.03.945.002.36.02.755.055 1.182.023.342.065.73.125 1.162.072.428.152.861.239 1.298.084.425.169.813.256 1.162.033.116.008.248-.075.396a1.85 1.85 0 01-.284.38.79.79 0 01-.334.208zm10.937-2.59c-.392.111-.73.108-1.014-.011a1.683 1.683 0 01-.691-.59 3.278 3.278 0 01-.442-.959 6.745 6.745 0 01-.184-1.108c-.017-.32-.026-.704-.029-1.152.009-.452.024-.924.046-1.417.022-.492.046-.955.073-1.387.038-.435.072-.775.102-1.02.035-.447.08-.797.132-1.049.065-.255.183-.408.357-.457a.668.668 0 01.46.038.926.926 0 01.39.319.964.964 0 01.205.522c.017.194.012.483-.016.865-.028.383-.063.81-.103 1.283-.04.473-.072.95-.098 1.432a9.13 9.13 0 00.002 1.253c.02.332.059.645.118.94.055.284.133.511.231.683.096.16.219.218.369.175.369-.105.743-.567 1.121-1.386.39-.822.772-1.91 1.148-3.265.178-.6.326-1.153.444-1.66.117-.508.223-.95.315-1.326.09-.387.195-.698.315-.932.12-.233.267-.375.44-.424.266-.076.486-.026.66.148.183.16.317.41.4.748.086.3.18.672.281 1.117l.35 1.36a24 24 0 00.36 1.264c.225.66.445 1.19.659 1.59.222.387.41.695.562.926.154.23.247.429.282.594a.883.883 0 01-.018.398.965.965 0 01-.186.333.635.635 0 01-.316.203c-.266.075-.52.017-.762-.176-.23-.197-.454-.501-.671-.913a14.961 14.961 0 01-.664-1.477 194.06 194.06 0 01-.449-1.313c-.146-.47-.28-.944-.404-1.42-.112-.48-.213-.925-.305-1.335l.55.03c-.062.305-.131.63-.208.976-.064.343-.152.736-.263 1.18-.102.428-.237.94-.404 1.537a18.608 18.608 0 01-.774 2.148 8.24 8.24 0 01-1.047 1.776c-.386.485-.828.797-1.324.939zm13.136-3.852c-.554.157-1.06.22-1.518.188-.458-.031-.832-.137-1.12-.317-.288-.18-.447-.41-.477-.688a.882.882 0 01.087-.418.482.482 0 01.32-.259.6.6 0 01.336-.002l.388.114c.15.045.356.067.618.067.259-.01.596-.076 1.011-.194.647-.184 1.162-.5 1.547-.945.392-.462.548-1.099.466-1.911-.039-.576-.173-1.068-.401-1.477a2.73 2.73 0 00-.867-1.007 2.61 2.61 0 00-1.239-.47c-.464-.056-.962-.008-1.493.144a4.141 4.141 0 00-.79.318c-.26.136-.494.234-.702.294a.73.73 0 01-.37.012.516.516 0 01-.287-.218.734.734 0 01-.116-.342c-.02-.331.12-.627.421-.887.309-.275.826-.516 1.553-.723.774-.22 1.498-.283 2.174-.188a4.05 4.05 0 011.827.696c.527.362.955.857 1.284 1.487.337.615.54 1.35.608 2.204a4.215 4.215 0 01-.15 1.577 4.073 4.073 0 01-.633 1.322c-.29.383-.646.714-1.065.996a5.3 5.3 0 01-1.412.627zm-2.806 5.59a.665.665 0 01-.394 0 .467.467 0 01-.269-.223 1.022 1.022 0 01-.128-.45 1.527 1.527 0 01.052-.54 9.22 9.22 0 00.13-.598 6.96 6.96 0 00.112-.855c.026-.345.02-.785-.022-1.323a13.98 13.98 0 00-.442-2.606c-.228-.846-.466-1.702-.712-2.567a16.271 16.271 0 01-.49-2.706c-.024-.305.013-.546.112-.724a.762.762 0 01.473-.378.603.603 0 01.504.062c.16.08.293.216.398.411.102.183.159.404.17.663.058.732.16 1.414.302 2.047.151.619.31 1.222.478 1.81.18.586.34 1.176.485 1.772.145.595.242 1.222.293 1.881.057.595.076 1.145.058 1.65a6.571 6.571 0 01-.167 1.32c-.081.372-.201.674-.36.907a1.008 1.008 0 01-.584.447zm12.821-8.31c-.946.269-1.784.283-2.514.041a3.326 3.326 0 01-1.725-1.324c-.423-.653-.678-1.46-.764-2.421a5.015 5.015 0 01.175-1.884 5.964 5.964 0 01.718-1.552c.309-.45.642-.813 1-1.09.355-.288.676-.473.965-.555a.828.828 0 01.326-.037.402.402 0 01.257.114c.078.053.123.146.136.28.008.247-.023.487-.094.719-.075.22-.264.456-.567.704a5.07 5.07 0 00-.87.959c-.21.31-.358.645-.443 1.005-.087.35-.105.748-.053 1.195.082.987.405 1.706.97 2.157.562.439 1.258.54 2.089.303.808-.23 1.43-.719 1.866-1.467.444-.762.62-1.655.529-2.677-.069-.941-.323-1.617-.765-2.028-.445-.422-1.013-.535-1.706-.338-.357.102-.643.258-.858.469a6.575 6.575 0 00-.639.78 5.438 5.438 0 00-.368.611 3.028 3.028 0 01-.253.428.615.615 0 01-.334.207.503.503 0 01-.425-.047c-.114-.093-.182-.267-.205-.522-.03-.279.026-.588.166-.927a4.57 4.57 0 01.615-.999c.265-.337.569-.63.91-.877.338-.258.692-.44 1.061-.545.831-.236 1.563-.233 2.194.012.627.233 1.13.664 1.51 1.292.374.617.594 1.39.66 2.32.084.911-.01 1.762-.285 2.551a5.11 5.11 0 01-1.268 1.99 4.631 4.631 0 01-2.01 1.152zm13.04-3.732c-.347.099-.758.103-1.232.014a6.547 6.547 0 01-1.476-.516 11.744 11.744 0 01-1.416-.832 6.888 6.888 0 01-1.092-.943 1.76 1.76 0 01-.368-.438 2.23 2.23 0 01-.15-.462c.008-.103.025-.22.05-.351.024-.132.07-.258.136-.376.086-.224.252-.54.498-.947.246-.407.537-.851.874-1.334.345-.497.71-.97 1.094-1.416.393-.46.773-.856 1.14-1.185.38-.333.726-.544 1.038-.632a.465.465 0 01.318.002.495.495 0 01.238.176c.06.083.098.172.113.267.06.258-.038.548-.295.87a9.61 9.61 0 01-.856.937 21.107 21.107 0 00-1.438 1.588c-.406.502-.726.936-.958 1.302-.221.363-.322.603-.3.722.003.099.077.227.222.386.145.158.35.33.615.517.277.183.596.36.956.533a8.99 8.99 0 001.212.44c.258.077.51.149.754.217.252.053.46.124.622.215.172.076.273.191.304.344a.763.763 0 01-.022.381.71.71 0 01-.226.326.875.875 0 01-.356.195zm-5.77 1.624c-.3.086-.546-.007-.735-.277-.192-.282-.348-.719-.466-1.309a24.312 24.312 0 01-.277-2.223 27.37 27.37 0 01-.068-1.16l-.014-1.23a16.58 16.58 0 00-.066-1.217 2.437 2.437 0 00-.027-.292 3.048 3.048 0 00-.036-.327 2.17 2.17 0 01.027-.625c.038-.173.098-.315.179-.425a.577.577 0 01.307-.237c.265-.076.507-.014.726.186.228.185.356.504.385.957.025.305.034.69.029 1.152.003.449.003.91 0 1.385-.001.475.01.89.037 1.244.067.63.139 1.189.216 1.679.088.486.171.887.248 1.201.074.304.11.518.109.643a.827.827 0 01-.053.408.675.675 0 01-.2.282.668.668 0 01-.322.185zm12.375-3.486c-.946.27-1.784.284-2.514.042a3.327 3.327 0 01-1.725-1.324c-.423-.653-.677-1.46-.764-2.422a5.015 5.015 0 01.175-1.883 5.963 5.963 0 01.718-1.552c.309-.45.642-.813 1-1.09.355-.288.676-.473.965-.555a.83.83 0 01.327-.037.403.403 0 01.257.114c.077.053.122.146.135.28.008.247-.023.486-.094.719-.075.22-.264.455-.567.704-.36.314-.65.634-.869.958-.211.31-.36.646-.444 1.006-.087.35-.105.748-.053 1.195.082.987.405 1.706.97 2.157.562.438 1.258.54 2.09.303.807-.23 1.429-.719 1.865-1.467.444-.763.62-1.655.529-2.677-.069-.941-.323-1.617-.765-2.028-.444-.423-1.013-.535-1.705-.338-.358.102-.644.258-.859.469a6.566 6.566 0 00-.638.78 5.438 5.438 0 00-.37.611 3.028 3.028 0 01-.252.428.614.614 0 01-.334.207.503.503 0 01-.425-.047c-.114-.093-.182-.267-.205-.522-.03-.279.026-.588.167-.928a4.58 4.58 0 01.614-.998c.265-.337.569-.63.91-.877.339-.258.692-.44 1.062-.545.83-.237 1.562-.233 2.193.012.627.233 1.13.663 1.51 1.292.374.617.595 1.39.66 2.32.084.911-.01 1.762-.285 2.551a5.11 5.11 0 01-1.267 1.99 4.632 4.632 0 01-2.012 1.152zm16.4-4.669c-.947.27-1.785.284-2.515.042a3.326 3.326 0 01-1.725-1.324c-.423-.653-.677-1.46-.764-2.421a5.015 5.015 0 01.175-1.884 5.96 5.96 0 01.718-1.552c.31-.45.642-.813 1-1.09.355-.288.677-.473.965-.555a.827.827 0 01.326-.037.403.403 0 01.258.114c.077.053.122.146.135.28.008.247-.023.486-.094.719-.075.22-.264.455-.567.704-.36.314-.65.634-.869.959-.211.31-.359.645-.443 1.005a3.32 3.32 0 00-.053 1.195c.081.987.404 1.706.97 2.157.56.439 1.257.54 2.088.303.808-.23 1.43-.719 1.866-1.467.444-.763.62-1.655.529-2.677-.068-.941-.323-1.617-.765-2.028-.444-.423-1.013-.535-1.705-.338-.358.102-.644.258-.859.469a6.575 6.575 0 00-.638.78 5.45 5.45 0 00-.37.611 3.047 3.047 0 01-.252.428.614.614 0 01-.334.207.502.502 0 01-.425-.047c-.114-.093-.182-.267-.205-.522-.03-.279.026-.588.167-.927.152-.343.356-.676.614-.999.266-.337.569-.63.91-.877.339-.258.692-.44 1.062-.545.83-.237 1.562-.233 2.193.012.628.233 1.13.664 1.51 1.292.374.617.595 1.39.66 2.32.085.911-.01 1.762-.285 2.551-.277.778-.7 1.44-1.267 1.99a4.633 4.633 0 01-2.011 1.152zm4.89-8.99c-.266.075-.497.053-.693-.066a.63.63 0 01-.296-.514.696.696 0 01.114-.388c.078-.122.24-.255.485-.4.383-.234.907-.496 1.573-.785a19.89 19.89 0 012.42-.838c.484-.139.932-.253 1.342-.345.419-.107.886-.197 1.402-.269.406-.065.732-.058.98.021.258.076.395.206.41.389a.816.816 0 01-.058.39.757.757 0 01-.247.314 1.22 1.22 0 01-.46.225c-.243.069-.529.138-.859.207-.33.069-.682.144-1.058.226-.368.067-.742.155-1.123.263-.796.227-1.427.444-1.892.651-.468.196-.852.38-1.152.553-.304.162-.6.283-.889.365zm4.51 6.313a.65.65 0 01-.66-.149 2.407 2.407 0 01-.468-.727 7.192 7.192 0 01-.281-.987c-.087-.437-.16-.915-.221-1.434a44.247 44.247 0 01-.16-1.545 196.78 196.78 0 00-.149-1.773 45.465 45.465 0 00-.107-1.299l1.528-.547.039.794c.024.305.055.652.09 1.04.033.378.063.769.09 1.173.037.389.07.766.099 1.132.049.61.112 1.116.189 1.519.085.387.168.7.249.94.08.238.15.437.207.595.054.147.088.287.1.42a.946.946 0 01-.04.387.677.677 0 01-.2.281.695.695 0 01-.304.18zm5.63-1.62c-.278.078-.532-.024-.762-.308-.23-.284-.374-.767-.431-1.45a25.311 25.311 0 01-.076-1.513c-.022-.692.029-1.455.153-2.289.143-.989.298-1.781.465-2.378.164-.608.363-1.07.597-1.387.234-.316.507-.518.82-.607a.642.642 0 01.637.136c.195.157.36.366.497.627.136.26.26.524.375.791.15.356.325.75.523 1.18.209.427.424.858.648 1.294.235.432.476.837.721 1.217.258.376.514.683.768.923l-.584.316c.148-.754.318-1.513.512-2.28a55.73 55.73 0 01.606-2.212c.21-.708.415-1.347.615-1.915.227-.602.439-1.043.634-1.323.206-.283.412-.454.62-.513a.887.887 0 01.445-.015c.144.022.273.06.388.114.163.091.306.219.428.384s.213.439.272.821c.133.86.277 1.63.433 2.31.164.664.316 1.22.456 1.667.238.793.476 1.411.714 1.855.25.44.379.734.383.883a.543.543 0 01-.138.432.748.748 0 01-.425.29c-.277.078-.544.011-.805-.202-.249-.216-.46-.543-.634-.98a23.205 23.205 0 01-.552-1.545 29.002 29.002 0 01-.555-2.144 33.375 33.375 0 01-.424-2.538l.468-.264c-.162.483-.342 1.033-.541 1.651-.19.604-.385 1.233-.584 1.889a92.826 92.826 0 00-.537 1.93 31.439 31.439 0 00-.392 1.778 1.724 1.724 0 01-.302.647.933.933 0 01-.517.353c-.277.08-.526.081-.747.007a1.895 1.895 0 01-.608-.426 6.6 6.6 0 01-.537-.707l-.383-.621a24.28 24.28 0 01-1.088-2.048 24.46 24.46 0 01-.523-1.18 10.884 10.884 0 01-.4-1.14l.48-.287c-.231.677-.42 1.33-.566 1.958a13.274 13.274 0 00-.266 1.89c-.035.622-.028 1.282.02 1.979.035.476.078.888.127 1.236.061.345.099.608.114.791.01.21-.023.4-.1.572-.075.17-.224.288-.442.35zm16.411-4.692c-.958.273-1.753.312-2.383.117a2.552 2.552 0 01-1.446-1.141c-.336-.566-.538-1.251-.605-2.056a6.684 6.684 0 01.176-1.884 7.382 7.382 0 01.746-1.915 6.1 6.1 0 011.289-1.584 4.474 4.474 0 011.764-.97c.612-.174 1.142-.219 1.59-.134.459.08.819.29 1.077.629.27.335.429.807.479 1.417a3.048 3.048 0 01-.39 1.851c-.33.556-.796 1.044-1.4 1.465a6.629 6.629 0 01-2.03.953c-.785.223-1.336.28-1.654.171-.306-.112-.47-.29-.489-.534-.016-.145.007-.258.072-.339.06-.092.179-.163.351-.212a1.86 1.86 0 01.47-.059c.195-.018.471-.078.829-.18a4.888 4.888 0 001.489-.686c.427-.296.751-.625.973-.988.218-.374.314-.757.29-1.15-.029-.365-.15-.612-.36-.739-.2-.13-.525-.131-.974-.003a2.974 2.974 0 00-1.21.681c-.348.311-.652.69-.912 1.139a5.24 5.24 0 00-.542 1.446 5.016 5.016 0 00-.098 1.562c.038.439.14.821.307 1.148.166.315.418.543.757.683.348.126.786.113 1.317-.038.6-.171 1.093-.392 1.478-.664.392-.286.709-.576.949-.87.241-.293.444-.544.61-.753.165-.21.327-.337.489-.383.196-.056.357-.02.48.107.132.112.208.29.226.534.02.244-.067.531-.26.86a4.662 4.662 0 01-.807.979 6.69 6.69 0 01-1.197.921 6.148 6.148 0 01-1.451.62zm7.481-5.125c-.438.125-.829.13-1.173.017a1.801 1.801 0 01-.872-.632 2.988 2.988 0 01-.486-1.115 5.598 5.598 0 01-.172-1.392 6.927 6.927 0 01.13-1.385c.098-.44.234-.816.408-1.127.173-.311.382-.502.623-.57a.611.611 0 01.315-.015c.106.02.195.07.266.149.07.067.116.166.141.296.018.108.007.286-.034.534-.033.234-.079.515-.135.843a6.719 6.719 0 00-.108 1.004 3.54 3.54 0 00.098 1.002c.059.207.128.381.205.521a.556.556 0 00.279.258c.124.04.266.036.429-.01a2.786 2.786 0 001.064-.602c.339-.296.642-.657.908-1.082.277-.428.505-.874.685-1.337a5.86 5.86 0 00.341-1.37l.645 1.744a10.682 10.682 0 01-.889 1.938 5.88 5.88 0 01-1.2 1.502 3.7 3.7 0 01-1.468.83zm4.491 1.772c-.254.073-.461.026-.619-.141a2.639 2.639 0 01-.437-.68 6.352 6.352 0 01-.255-.826 16.166 16.166 0 01-.307-2.327 17.718 17.718 0 01-.03-.965 32.301 32.301 0 01.033-2.18c.015-.342.026-.613.031-.814.011-.402.054-.727.134-.974.092-.25.24-.405.448-.464.196-.056.399.017.606.22.208.203.323.5.347.893.027.267.028.641.002 1.123-.028.47-.053.957-.071 1.46-.011.49-.003.912.023 1.267.039.575.093 1.071.162 1.488.069.418.149.782.237 1.094.055.234.108.424.162.57.054.148.087.282.097.404a.887.887 0 01-.119.502c-.076.171-.225.288-.444.35zm5.319-1.57c-.531.151-1 .147-1.407-.011-.395-.162-.721-.45-.975-.864-.243-.417-.391-.937-.443-1.558a6.57 6.57 0 01.097-1.825A8.796 8.796 0 01128 8.741c.271-.626.6-1.2.988-1.723a6.783 6.783 0 011.331-1.37 4.843 4.843 0 011.603-.812c.265-.076.493-.066.682.03.19.096.295.29.316.584a.674.674 0 01-.087.417c-.076.122-.211.223-.401.302a5.616 5.616 0 00-2.004 1.506 6.872 6.872 0 00-1.235 2.167 5.745 5.745 0 00-.319 2.3c.026.354.078.67.157.946.076.266.232.596.469.99l-.998-1.007c.284.206.518.327.702.361.196.032.45.003.762-.086.738-.21 1.354-.897 1.846-2.06.493-1.163.804-2.743.934-4.739.018-.242.08-.44.186-.595a.812.812 0 01.465-.339.693.693 0 01.705.174c.212.177.356.441.433.794.16.74.324 1.405.491 1.993.176.574.395 1.099.654 1.573.272.472.64.935 1.106 1.389.103.095.169.22.2.373a.86.86 0 01.002.467.98.98 0 01-.195.43.74.74 0 01-.381.24.769.769 0 01-.445.014.93.93 0 01-.326-.225 8.371 8.371 0 01-.703-.829 6.884 6.884 0 01-.638-1.054 9.338 9.338 0 01-.526-1.516 20.561 20.561 0 01-.423-2.144l.619-.195c-.063 1.665-.293 3.047-.692 4.146-.386 1.096-.863 1.937-1.434 2.523-.569.586-1.142.962-1.719 1.126zm6.893-9.523c-.266.075-.495.053-.692-.065a.63.63 0 01-.297-.515.705.705 0 01.114-.388c.078-.122.24-.255.485-.4.383-.234.907-.495 1.574-.785a19.974 19.974 0 012.418-.838c.485-.138.933-.253 1.343-.345a12.99 12.99 0 011.402-.268c.406-.066.732-.06.98.02.258.076.395.206.41.389a.809.809 0 01-.058.39.761.761 0 01-.246.314 1.232 1.232 0 01-.461.225c-.243.069-.529.138-.858.207-.33.069-.683.144-1.059.226-.367.067-.742.155-1.122.264-.797.226-1.428.443-1.893.65-.468.196-.852.38-1.152.553a4.6 4.6 0 01-.888.366zm4.511 6.313a.65.65 0 01-.66-.149 2.416 2.416 0 01-.469-.727 7.324 7.324 0 01-.281-.987 17.872 17.872 0 01-.221-1.434 45.48 45.48 0 01-.159-1.545 190.43 190.43 0 00-.15-1.773 45.409 45.409 0 00-.107-1.298l1.528-.548.039.794c.025.305.055.652.091 1.04.032.378.062.769.09 1.173.036.389.069.766.098 1.132.049.61.112 1.116.189 1.519.085.387.169.7.249.94.08.238.149.437.207.595a1.7 1.7 0 01.101.42.96.96 0 01-.039.387.678.678 0 01-.202.281.688.688 0 01-.304.18zm7.901-2.286c-.565.16-1.048.198-1.446.112a2.02 2.02 0 01-1.001-.557 3.006 3.006 0 01-.622-1.002 4.908 4.908 0 01-.259-1.237c-.042-.5-.043-1.054-.006-1.664.036-.621.039-1.158.009-1.612-.046-.51-.1-.92-.162-1.226a4.828 4.828 0 01-.103-.757.975.975 0 01.027-.363.932.932 0 01.179-.294.807.807 0 01.356-.195c.323-.092.583-.01.781.245.206.24.328.58.365 1.02.029.278.043.61.041.998-.005.376-.013.765-.023 1.167-.009.402-.014.784-.011 1.145.004.36.014.663.034.907.04.45.114.841.221 1.172.104.32.268.548.494.683.234.12.553.124.957.009.334-.096.665-.271.992-.526.326-.255.615-.556.866-.902s.436-.704.555-1.075c.116-.382.133-.736.053-1.063-.043-.15-.161-.24-.359-.272-.186-.047-.472-.015-.853.093-.427.122-.851.274-1.273.456a18.203 18.203 0 00-2.14 1.096.539.539 0 01-.309.032.523.523 0 01-.245-.136.457.457 0 01-.096-.272.887.887 0 01.037-.46.87.87 0 01.342-.378 7.95 7.95 0 01.774-.501 13.114 13.114 0 012.034-1.01 8.12 8.12 0 01.984-.355c.566-.161 1.02-.21 1.363-.145.354.062.627.209.818.441.191.233.324.526.399.878.118.503.097 1.04-.066 1.61a5.736 5.736 0 01-.797 1.668 6.215 6.215 0 01-1.3 1.418 4.562 4.562 0 01-1.61.852zM16.259 63.946c-.277.08-.51-.016-.7-.287-.19-.27-.35-.636-.48-1.098a9.082 9.082 0 01-.245-1.185 53.81 53.81 0 01-.184-1.37 155.48 155.48 0 00-.16-1.283c-.038-.4-.077-.733-.114-.996a9.713 9.713 0 00-.15-.856 7.618 7.618 0 00-.173-.737l.457.356-1.246.355c-.37.105-.81.25-1.319.432-.5.167-.993.345-1.476.532-.483.188-.88.37-1.192.546l.542-1.184c.207.64.353 1.303.436 1.99.095.685.174 1.423.238 2.216.026.355.058.751.095 1.19.038.438.064.861.08 1.268.017.407.017.738.002.992-.017.204-.076.39-.178.556a.789.789 0 01-.453.316c-.231.066-.43.004-.596-.186-.166-.19-.264-.468-.293-.834a14.334 14.334 0 01-.056-.92 24.233 24.233 0 00-.071-1.102c-.033-.378-.061-.72-.086-1.024a12.013 12.013 0 00-.181-1.558 34.11 34.11 0 00-.217-1.155c-.057-.333-.1-.657-.127-.974-.003-.274.045-.5.144-.677.11-.181.29-.339.54-.472.368-.193.808-.38 1.318-.563a25.67 25.67 0 011.602-.55 81.291 81.291 0 011.605-.475c.67-.19 1.192-.196 1.568-.016.376.18.59.624.641 1.333.02.244.054.584.103 1.019.05.435.1.92.152 1.454.064.53.141 1.064.231 1.6.087.524.187 1.007.3 1.45.041.187.096.377.163.57.067.193.11.362.126.507a.843.843 0 01-.646.82zm7.04-2.097c-.555.158-1.06.22-1.519.189-.458-.032-.831-.138-1.12-.318-.288-.18-.447-.409-.476-.688a.883.883 0 01.087-.417.482.482 0 01.319-.26.599.599 0 01.336-.002l.388.114c.15.045.356.067.618.068.259-.012.596-.076 1.012-.195.646-.184 1.161-.499 1.546-.945.393-.461.548-1.098.466-1.911-.039-.575-.172-1.068-.401-1.477-.22-.423-.51-.76-.867-1.007a2.609 2.609 0 00-1.238-.47c-.465-.055-.963-.007-1.494.144a4.145 4.145 0 00-.789.318c-.26.137-.495.235-.702.294a.727.727 0 01-.371.012.516.516 0 01-.287-.218.734.734 0 01-.116-.341c-.02-.332.121-.627.421-.888.309-.275.827-.516 1.554-.723.773-.22 1.498-.283 2.173-.188a4.05 4.05 0 011.827.697c.527.36.955.857 1.284 1.487.337.615.54 1.35.609 2.203a4.22 4.22 0 01-.15 1.578 4.078 4.078 0 01-.634 1.322 4.42 4.42 0 01-1.064.995 5.3 5.3 0 01-1.413.627zm-2.807 5.59a.666.666 0 01-.393 0 .467.467 0 01-.27-.223 1.023 1.023 0 01-.128-.45 1.524 1.524 0 01.053-.54c.041-.16.084-.36.129-.597a6.79 6.79 0 00.112-.856c.026-.344.02-.785-.021-1.323a12.326 12.326 0 00-.312-1.95 36.238 36.238 0 00-.49-1.92c-.173-.65-.34-1.3-.5-1.954a13.667 13.667 0 01-.343-2.054c-.01-.21.002-.388.036-.535a.7.7 0 01.18-.35.789.789 0 01.369-.218.603.603 0 01.504.063.93.93 0 01.398.41c.102.183.159.404.17.663.059.732.16 1.415.302 2.048.151.618.31 1.221.478 1.81.18.585.341 1.175.486 1.77a11.8 11.8 0 01.292 1.883c.057.595.076 1.144.058 1.649a6.571 6.571 0 01-.167 1.32c-.081.372-.2.675-.36.907a1.008 1.008 0 01-.583.447zm10.802-7.773c-.531.151-1 .147-1.407-.011-.395-.162-.72-.45-.976-.864-.243-.417-.391-.937-.443-1.558a6.567 6.567 0 01.098-1.825 8.811 8.811 0 01.602-1.893c.271-.626.6-1.2.989-1.723.396-.537.84-.994 1.33-1.37a4.848 4.848 0 011.604-.813c.265-.075.493-.065.682.03.19.097.295.291.316.585a.683.683 0 01-.087.417c-.077.122-.21.223-.4.302a5.598 5.598 0 00-2.005 1.506 6.855 6.855 0 00-1.236 2.167 5.766 5.766 0 00-.318 2.3c.026.354.078.67.157.947.076.265.232.595.47.989l-.999-1.007c.284.206.517.327.702.361.196.032.45.003.762-.086.738-.21 1.354-.897 1.846-2.06s.804-2.743.934-4.739a1.2 1.2 0 01.186-.595.811.811 0 01.465-.339.692.692 0 01.705.174c.212.177.356.441.432.794.16.74.325 1.405.492 1.993.176.574.394 1.099.654 1.574.272.471.64.934 1.106 1.388.103.095.17.22.2.373a.88.88 0 01.002.467.983.983 0 01-.195.43.734.734 0 01-.381.24.768.768 0 01-.445.014.93.93 0 01-.327-.225 8.27 8.27 0 01-.703-.829 7.053 7.053 0 01-.637-1.054 9.232 9.232 0 01-.526-1.516 20.588 20.588 0 01-.423-2.144l.618-.195c-.062 1.665-.292 3.047-.69 4.146-.388 1.096-.865 1.937-1.435 2.523-.569.586-1.142.962-1.72 1.126zm11.573-3.332a6.052 6.052 0 01-1.337.23 4.409 4.409 0 01-1.157-.12 2.16 2.16 0 01-.853-.43c-.22-.2-.357-.441-.412-.725a.794.794 0 01.052-.539c.088-.175.207-.283.357-.326.138-.04.279-.005.422.104.152.094.335.21.549.35.222.123.503.212.843.265.336.041.77-.014 1.3-.165.774-.22 1.323-.526 1.648-.918.333-.407.449-.79.347-1.147-.044-.2-.173-.344-.385-.433-.205-.104-.489-.16-.853-.169-.368-.02-.834.007-1.4.08-.455.068-.762.062-.922-.018a.555.555 0 01-.267-.41c-.04-.188.039-.348.238-.48.2-.131.546-.317 1.04-.558.647-.309 1.14-.636 1.479-.982.35-.35.484-.687.404-1.014-.078-.315-.29-.51-.635-.586-.35-.088-.778-.06-1.286.085-.577.164-1.035.376-1.373.634a4.763 4.763 0 00-.794.694c-.177.213-.328.337-.455.373a.36.36 0 01-.334-.054.536.536 0 01-.163-.31c-.048-.21-.014-.445.1-.702.125-.26.313-.52.564-.778.262-.262.588-.498.977-.709a6.086 6.086 0 011.34-.55c1.016-.29 1.82-.318 2.41-.087.6.228.982.669 1.143 1.322.078.364.035.757-.132 1.179-.159.407-.458.804-.897 1.19-.442.376-1.045.71-1.81 1.003l-.092-.255c.716-.203 1.32-.294 1.813-.273.501.008.898.132 1.191.373.302.226.503.561.605 1.006.133.511.069 1.029-.194 1.553-.254.509-.653.972-1.196 1.388a5.766 5.766 0 01-1.875.909zm5.863-2.68c.051-.39.132-.83.24-1.323a65.7 65.7 0 01.356-1.58c.142-.551.288-1.092.437-1.62.157-.545.31-1.037.458-1.479.2-.569.408-1.108.625-1.619a7.68 7.68 0 01.666-1.275c.236-.354.464-.563.683-.625.23-.066.46-.025.69.122.24.143.494.42.76.831.185.297.4.679.645 1.146.245.466.498.98.757 1.543.257.55.498 1.112.723 1.685.226.572.415 1.104.567 1.597l-1.484.573c-.169-.551-.38-1.14-.633-1.766a24.713 24.713 0 00-.785-1.836 20.776 20.776 0 00-.782-1.499c-.247-.429-.457-.706-.63-.831l.636-.33c-.258.497-.519 1.07-.783 1.72a17.69 17.69 0 00-.655 2.038 112.7 112.7 0 00-.38 1.494c-.115.47-.217.922-.305 1.36-.08.421-.156.854-.229 1.3l-1.577.374zm8.437 1.172c-.23.066-.433.036-.605-.09a.629.629 0 01-.274-.502c-.017-.145 0-.374.047-.687.052-.301.097-.645.137-1.03.04-.387.042-.774.006-1.163l.875.706c-.168.023-.429.072-.782.147-.34.072-.771.182-1.29.33a70.3 70.3 0 00-1.502.447 66.1 66.1 0 00-1.518.45 30.89 30.89 0 00-1.435.484c-.467.158-.914.316-1.343.476-.425.17-.809.336-1.15.496l.503-.798a13.031 13.031 0 00.224 1.246c.054.234.1.44.137.616l.104.363c.044.2.018.37-.08.51a.72.72 0 01-.435.31.584.584 0 01-.46-.037.865.865 0 01-.36-.346 2.151 2.151 0 01-.223-.517 7.15 7.15 0 01-.11-.455 4.084 4.084 0 01-.114-.53 2.99 2.99 0 01-.066-.43 1.6 1.6 0 01.07-.544 1.08 1.08 0 01.255-.484c.132-.15.318-.284.559-.403.275-.128.65-.279 1.125-.451.483-.188 1.027-.38 1.633-.577a52.61 52.61 0 011.901-.617c.652-.21 1.277-.4 1.878-.571l.623-.178c.23-.066.469-.127.715-.185.245-.057.483-.1.712-.127.344-.061.599-.021.764.119.176.137.282.4.318.789.024.305.025.635.002.991a5.573 5.573 0 01-.16 1.019 2.91 2.91 0 01-.287.83c-.113.22-.244.35-.394.393zm3.474-3.497c-.415.119-.768-.068-1.058-.56-.29-.491-.472-1.2-.549-2.126-.036-.651-.011-1.157.073-1.518.093-.376.238-.655.436-.836.107-.105.275-.196.502-.274.224-.089.464-.169.718-.241.842-.24 1.662-.517 2.458-.831.805-.33 1.569-.734 2.293-1.215l.652 1.106c-.535.402-1.132.76-1.791 1.072-.66.312-1.341.593-2.043.843a44.33 44.33 0 01-2.046.639l-1.048.13a504.6 504.6 0 00-.144-2.28 117.06 117.06 0 00-.156-2.126 1.497 1.497 0 01.084-.754c.09-.213.22-.344.394-.393.289-.082.535-.028.74.164.2.18.318.527.352 1.04.026.268.044.594.053.978.01.384.019.787.026 1.209.02.418.034.82.044 1.204.017.37.036.676.056.92.052.709.119 1.338.2 1.889.09.536.15.943.18 1.221a.753.753 0 01-.112.463.495.495 0 01-.314.276zm5.973-1.7c-.289.082-.544-.026-.766-.325-.211-.302-.393-.743-.546-1.323a13.2 13.2 0 01-.31-2.008 52.532 52.532 0 01-.143-2.804 17.6 17.6 0 01.059-1.701c.02-.28.071-.538.154-.774.082-.235.222-.381.418-.437.254-.072.468-.002.64.21.181.199.285.475.311.83.038.438.039.924.004 1.458-.024.53-.007 1.094.05 1.689.059.732.14 1.389.243 1.97.112.568.216 1.043.313 1.428.097.384.148.675.155.873a.84.84 0 01-.134.58.788.788 0 01-.448.334zm5.07-1.444c-.392.112-.73.108-1.013-.01a1.684 1.684 0 01-.692-.59 3.283 3.283 0 01-.442-.96 6.756 6.756 0 01-.184-1.107c-.016-.32-.026-.704-.029-1.153.009-.451.024-.923.046-1.416.022-.493.046-.955.073-1.387.038-.435.072-.776.102-1.021a8.69 8.69 0 01.132-1.048c.065-.256.184-.408.357-.458a.668.668 0 01.46.038.926.926 0 01.39.32.964.964 0 01.205.521c.018.195.012.483-.016.865-.028.383-.063.81-.102 1.284-.04.473-.073.95-.098 1.431a9 9 0 00.001 1.254c.02.331.059.644.118.94.056.283.133.51.232.682.095.16.218.219.368.176.37-.105.743-.567 1.121-1.386.39-.822.773-1.91 1.148-3.265.178-.6.327-1.154.444-1.661.118-.508.223-.95.315-1.325a4.12 4.12 0 01.315-.932c.12-.234.268-.376.44-.425.266-.076.486-.026.66.149.184.16.317.409.4.747.086.3.18.673.281 1.118l.35 1.36c.117.453.237.875.36 1.264.225.66.445 1.19.659 1.59.222.386.41.694.563.925.153.231.246.43.28.594a.883.883 0 01-.017.398.965.965 0 01-.186.334.634.634 0 01-.316.202c-.404.115-.768-.068-1.093-.55-.324-.481-.659-1.153-1.004-2.016-.141-.409-.29-.846-.449-1.313a31.49 31.49 0 01-.404-1.42c-.112-.48-.213-.924-.305-1.335l.551.03c-.081.46-.185.97-.313 1.53-.127.56-.315 1.282-.563 2.163a18.57 18.57 0 01-.774 2.148 8.236 8.236 0 01-1.047 1.777c-.386.484-.828.797-1.324.938zm16.004-4.556c-.346.098-.757.103-1.231.013a6.548 6.548 0 01-1.476-.515 11.764 11.764 0 01-1.416-.832 6.893 6.893 0 01-1.092-.943 1.76 1.76 0 01-.368-.438 2.228 2.228 0 01-.15-.463c.008-.102.025-.219.05-.35.025-.133.07-.258.136-.377.086-.224.252-.54.498-.946.246-.407.537-.852.874-1.334.345-.498.71-.97 1.094-1.416.393-.461.773-.856 1.141-1.186.38-.332.725-.543 1.037-.632a.465.465 0 01.319.003.496.496 0 01.237.176.6.6 0 01.113.267c.06.257-.037.547-.295.87a9.619 9.619 0 01-.856.936 21.126 21.126 0 00-1.438 1.589c-.406.502-.725.936-.958 1.302-.221.362-.321.603-.3.721.003.1.077.228.222.386.145.159.35.331.615.518.277.183.596.36.957.532.372.169.776.316 1.21.441.26.077.51.148.755.216.252.053.46.125.623.216.17.076.272.19.303.344a.764.764 0 01-.022.38.71.71 0 01-.226.327.873.873 0 01-.356.195zm-5.77 1.624c-.3.085-.544-.007-.734-.278-.192-.282-.348-.718-.466-1.308a24.316 24.316 0 01-.277-2.223 27.47 27.47 0 01-.068-1.16l-.014-1.231c-.008-.422-.03-.828-.066-1.217a2.415 2.415 0 00-.027-.291 3.052 3.052 0 00-.036-.327 2.15 2.15 0 01.027-.626c.038-.172.098-.314.179-.425a.576.576 0 01.307-.237c.265-.075.507-.013.726.187.228.184.356.503.385.957.025.305.034.689.029 1.152.003.448.003.91.001 1.385-.002.474.01.889.036 1.243.067.63.139 1.19.216 1.68.089.486.171.886.249 1.201.073.303.11.518.108.643a.824.824 0 01-.053.408.675.675 0 01-.2.282.667.667 0 01-.322.185zm10.138-2.868c-.392.112-.73.108-1.013-.01a1.683 1.683 0 01-.692-.59 3.28 3.28 0 01-.442-.96 6.756 6.756 0 01-.184-1.107c-.016-.32-.026-.704-.029-1.153.009-.451.024-.923.046-1.416.022-.493.046-.956.073-1.387.038-.435.072-.776.102-1.021.035-.447.08-.796.132-1.049.065-.255.184-.407.357-.457a.668.668 0 01.46.038.925.925 0 01.39.32.964.964 0 01.205.521 5.66 5.66 0 01-.016.865c-.028.383-.063.81-.102 1.284-.04.473-.073.95-.098 1.431a9 9 0 00.001 1.254c.02.33.059.644.118.94.056.283.133.51.232.682.095.16.218.218.368.176.37-.105.743-.567 1.121-1.386.39-.822.773-1.91 1.148-3.265.179-.6.327-1.154.444-1.661.118-.508.223-.95.315-1.325a4.12 4.12 0 01.315-.932c.12-.234.268-.376.44-.425.266-.076.487-.026.66.149.184.16.317.409.4.747.087.3.18.673.281 1.118l.35 1.36c.117.453.236.875.36 1.264.225.66.445 1.19.659 1.59.222.386.41.694.563.925.153.231.246.43.28.594a.883.883 0 01-.016.398.974.974 0 01-.187.334.635.635 0 01-.316.202c-.405.115-.769-.068-1.093-.55-.323-.481-.659-1.153-1.004-2.016-.141-.409-.29-.846-.448-1.313-.147-.47-.282-.943-.405-1.42-.112-.48-.213-.925-.305-1.335l.551.03c-.081.46-.185.97-.313 1.53a46 46 0 01-.563 2.163 18.608 18.608 0 01-.773 2.148 8.236 8.236 0 01-1.048 1.777c-.386.484-.827.797-1.324.938zm-72.099 37.05c-1.292.369-2.364.593-3.214.673-.843.065-1.508-.014-1.995-.237a2.193 2.193 0 01-1.087-1.057c-.23-.496-.376-1.122-.441-1.877-.033-.465-.066-.998-.1-1.6a64.807 64.807 0 01-.078-1.849 517.87 517.87 0 01-.055-1.837 73.69 73.69 0 01-.028-1.545 12.9 12.9 0 01.02-.98c-.005-.372.034-.651.118-.838.092-.2.225-.326.398-.375a.625.625 0 01.522.057.884.884 0 01.358.404c.087.175.136.367.145.576.021.206.033.552.034 1.038-.002.475.001 1.035.01 1.682.021.642.046 1.34.073 2.094.035.738.086 1.485.151 2.24.07.903.18 1.533.332 1.89.163.352.393.568.69.645.255.065.579.085.971.06.39-.035.83-.105 1.326-.208a35.81 35.81 0 001.637-.43 54.503 54.503 0 002.975-.92c.768-.282 1.358-.556 1.768-.823.408-.278.674-.59.8-.938.076-.172.133-.431.171-.78.035-.358.05-.768.044-1.228a15.29 15.29 0 00-.056-1.444 27.544 27.544 0 00-.238-2.084 47.66 47.66 0 00-.317-1.838c-.108-.555-.2-1.029-.273-1.42-.074-.39-.12-.658-.135-.803.001-.125.024-.263.07-.413.055-.153.135-.288.24-.405a.789.789 0 01.38-.24c.197-.055.384-.009.564.14.188.133.315.34.383.62.055.197.123.52.201.972.076.44.158.947.246 1.521.1.57.186 1.157.258 1.76.08.59.143 1.14.19 1.65.03.416.056.814.077 1.194.021.381.032.746.031 1.096-.003.338-.008.65-.013.94a4.79 4.79 0 01-.072.731 2.606 2.606 0 01-.677 1.372c-.363.39-.842.745-1.437 1.064-.599.308-1.32.6-2.164.878-.83.286-1.764.577-2.803.873zm-.303-.867a25.125 25.125 0 01-.41-2.167 38.467 38.467 0 01-.275-2.804 67.536 67.536 0 01-.078-1.587 190.968 190.968 0 00-.133-3.032c-.011-.433-.022-.78-.034-1.038a3.613 3.613 0 01.001-.655c.017-.204.062-.373.136-.507a.512.512 0 01.332-.281.603.603 0 01.504.062c.152.094.278.252.378.472.097.21.156.461.178.755.06.694.101 1.518.123 2.472.023.955.064 1.935.126 2.94.06.956.144 1.843.252 2.66.12.815.246 1.522.38 2.12l-1.48.59zm17.335-3.869c-.346.099-.757.103-1.232.014a6.548 6.548 0 01-1.475-.516 11.764 11.764 0 01-1.416-.832 6.893 6.893 0 01-1.092-.943 1.76 1.76 0 01-.368-.438c-.07-.155-.12-.31-.15-.462a3.01 3.01 0 01.05-.351c.024-.132.07-.258.136-.376.086-.224.252-.54.497-.947.246-.406.538-.851.874-1.334.345-.497.71-.97 1.095-1.416.392-.46.773-.856 1.14-1.185.38-.333.725-.544 1.037-.632a.465.465 0 01.32.002.495.495 0 01.236.176.6.6 0 01.114.267c.06.258-.038.547-.295.87a9.633 9.633 0 01-.857.937 21.126 21.126 0 00-1.438 1.588c-.406.502-.725.936-.958 1.302-.22.363-.32.603-.3.722.004.099.078.227.223.386.145.158.35.33.615.517.277.183.595.36.956.533a8.99 8.99 0 001.211.44c.259.077.51.149.754.217.252.053.46.124.623.215.171.076.273.19.304.344a.764.764 0 01-.023.381.71.71 0 01-.225.326.873.873 0 01-.356.195zm-5.77 1.624c-.3.086-.545-.007-.734-.277-.193-.283-.348-.719-.466-1.309a24.316 24.316 0 01-.278-2.223 29.14 29.14 0 01-.068-1.16l-.013-1.23c-.008-.423-.03-.828-.066-1.217a2.415 2.415 0 00-.027-.292 3.022 3.022 0 00-.037-.326c-.02-.245-.01-.453.028-.626a1.12 1.12 0 01.178-.425.575.575 0 01.307-.237c.266-.076.508-.014.727.186.227.185.356.504.385.957.024.305.034.69.028 1.152.003.449.004.91.002 1.385s.01.89.036 1.244c.067.63.139 1.189.216 1.679.088.486.171.887.248 1.201.074.304.11.518.108.643a.824.824 0 01-.052.408.675.675 0 01-.2.282.667.667 0 01-.322.185zm12.376-3.486c-.946.27-1.785.284-2.514.042a3.326 3.326 0 01-1.725-1.324c-.423-.653-.678-1.46-.764-2.422a5.015 5.015 0 01.175-1.883 5.962 5.962 0 01.718-1.552c.309-.45.642-.813 1-1.09.355-.288.676-.473.965-.555a.83.83 0 01.326-.037.402.402 0 01.257.114c.078.053.123.146.136.28.008.247-.024.487-.095.719-.074.22-.263.455-.567.704-.36.314-.649.634-.868.959a2.97 2.97 0 00-.444 1.005 3.32 3.32 0 00-.053 1.195c.082.987.405 1.706.97 2.156.561.44 1.258.54 2.089.304.808-.23 1.43-.719 1.865-1.467.444-.763.62-1.655.53-2.677-.069-.941-.324-1.617-.765-2.028-.445-.423-1.013-.535-1.706-.338-.358.102-.644.258-.858.469a6.567 6.567 0 00-.639.78 5.45 5.45 0 00-.369.61 3.036 3.036 0 01-.252.428.614.614 0 01-.334.208.502.502 0 01-.425-.048c-.114-.092-.182-.266-.205-.521-.03-.279.026-.588.166-.927.152-.343.357-.676.614-.999.266-.337.57-.63.911-.877.338-.258.692-.44 1.061-.545.831-.237 1.562-.233 2.193.012.628.233 1.131.663 1.51 1.292.375.617.595 1.39.66 2.32.085.911-.01 1.762-.284 2.551-.278.778-.7 1.44-1.268 1.99a4.633 4.633 0 01-2.01 1.152zm6.171-1.757a.502.502 0 01-.425-.047.748.748 0 01-.264-.337 1.184 1.184 0 01-.13-.524c-.014-.221.017-.53.092-.925.082-.41.2-.874.352-1.391.149-.53.31-1.062.481-1.597.189-.566.384-1.127.588-1.683.211-.572.42-1.087.627-1.545.203-.47.377-.844.522-1.122.232-.415.47-.74.716-.971.254-.247.531-.413.831-.499.277-.079.495-.035.655.132.157.155.305.368.445.64.143.284.295.621.456 1.012.161.391.331.792.51 1.202.177.4.361.784.554 1.153.23.458.435.85.614 1.172.191.32.361.59.511.81.161.216.307.399.437.549.124.127.225.242.304.344.08.102.13.218.155.349.032.153.027.31-.015.472a.841.841 0 01-.223.4.705.705 0 01-.363.235c-.22.062-.445.014-.678-.144-.224-.174-.452-.427-.684-.76-.232-.333-.46-.699-.686-1.096-.133-.25-.309-.58-.526-.992a66.634 66.634 0 01-.656-1.385 49.575 49.575 0 01-.642-1.464 22.034 22.034 0 01-.431-1.188l.385.04c-.237.392-.481.873-.73 1.443a34.76 34.76 0 00-.732 1.837 42.633 42.633 0 00-.666 2.061 29.537 29.537 0 00-.51 2.092c-.125.522-.247.925-.366 1.208-.108.28-.277.453-.508.519zm12.304-3.503c-.543.154-1.025.148-1.447-.019-.421-.166-.762-.463-1.02-.888-.262-.437-.424-.984-.486-1.64l-.198-2.339c-.065-.755-.124-1.4-.176-1.934-.04-.537-.067-.892-.078-1.063a1.12 1.12 0 01.03-.42.998.998 0 01.215-.361.725.725 0 01.335-.207c.265-.076.499 0 .702.23.214.226.341.52.382.883.023.343.035.758.036 1.244.013.483.042.936.088 1.36.004.148.01.346.019.593.016.233.028.473.036.72l.042.606c.047.648.183 1.126.409 1.436.225.31.534.41.927.298.219-.062.445-.189.677-.38a4.06 4.06 0 00.669-.677c.198-.268.352-.537.463-.806.11-.268.138-.5.082-.697-.074-.303-.224-.522-.45-.658-.213-.138-.493-.221-.837-.248a3.978 3.978 0 00-.74-.033c-.296.01-.609.03-.937.061-.331.02-.644.06-.94.118l-.025-1.209a20.49 20.49 0 001.318-.694c.495-.278 1-.584 1.517-.918a40.19 40.19 0 001.474-1c.53-.375.988-.736 1.376-1.084.4-.35.739-.647 1.02-.89.288-.256.536-.414.744-.473.358-.102.663-.058.917.132.262.175.409.47.44.885.024.393.047.78.068 1.16.029.366.056.745.08 1.137a56.434 56.434 0 00.265 2.377c.06.432.129.824.204 1.177.066.23.132.486.2.767.075.265.12.464.133.598a.816.816 0 01-.058.39.655.655 0 01-.218.287.729.729 0 01-.321.185c-.242.07-.46.006-.653-.188a2.26 2.26 0 01-.436-.812 15.085 15.085 0 01-.39-1.76 25.678 25.678 0 01-.23-1.862c-.015-.27-.038-.57-.069-.898-.02-.331-.037-.657-.053-.977-.016-.32-.034-.601-.054-.845a48.25 48.25 0 00-.026-.554l.45.265c-.223.225-.522.491-.896.798a26.86 26.86 0 01-1.267.94c-.482.325-.986.656-1.514.993-.528.337-1.065.665-1.61.983-.538.302-1.061.57-1.57.802l-.003-.673a7.63 7.63 0 01.405-.153 6.06 6.06 0 01.666-.227c.138-.04.335-.07.59-.093.268-.026.549-.025.844.003.306.025.607.095.902.211.303.101.562.264.776.49.225.223.383.515.474.876.105.457.072.934-.098 1.432a4.746 4.746 0 01-.74 1.408 6.212 6.212 0 01-1.146 1.169c-.433.322-.862.544-1.29.666zm10.726-7.452a.55.55 0 01-.487-.067.908.908 0 01-.308-.492 21.47 21.47 0 01-.362-1.732 32.637 32.637 0 01-.184-1.632 45.554 45.554 0 01-.087-1.622c-.003-.448-.002-.86.003-1.236s-.008-.752-.04-1.13c-.025-.218.004-.42.089-.605a.65.65 0 01.45-.39.678.678 0 01.66.148c.195.157.316.453.365.888.023.343.03.672.02.987a25.283 25.283 0 00.058 2.64c.038.439.079.802.123 1.088.044.287.084.538.12.752.037.214.07.417.099.608.04.188.07.399.086.631.014.358-.045.63-.179.818-.122.185-.264.3-.426.346zm.53 4.228c-.426.122-.787.106-1.08-.047-.296-.166-.463-.467-.501-.906a1.245 1.245 0 01.22-.868c.18-.25.412-.416.701-.498.508-.145.888-.103 1.14.124.252.228.394.53.427.908.011.259-.054.514-.194.766-.129.25-.366.423-.713.521zm42.226-1.723a.999.999 0 10-.745 1.855l.745-1.856zm-.171.047a1 1 0 10-.634 1.898l.634-1.898zm25.202 89.464a1 1 0 001.036-.963l.326-8.994a1 1 0 00-1.999-.073l-.29 7.995-7.995-.29a1 1 0 00-.072 1.999l8.994.326zm-25.404-88.584l-.372.928h.001l.004.002.023.01.09.037a70.077 70.077 0 011.728.746c1.175.524 2.841 1.299 4.802 2.298 3.928 2 9.014 4.885 13.688 8.44 4.688 3.565 8.881 7.744 11.124 12.305 2.214 4.503 2.538 9.384-.5 14.559l1.725 1.012c3.419-5.826 3.042-11.425.57-16.453-2.443-4.97-6.92-9.374-11.708-13.015-4.804-3.653-10.003-6.6-13.99-8.63a107.661 107.661 0 00-4.896-2.343 73.14 73.14 0 00-1.781-.769l-.098-.04-.027-.01-.006-.004h-.003l-.374.927zm30.588 39.325c-8.261 14.072-11.514 24.728-12.137 32.498-.623 7.763 1.379 12.708 3.711 15.216l1.464-1.362c-1.842-1.982-3.774-6.31-3.182-13.694.592-7.376 3.704-17.739 11.869-31.646l-1.725-1.012zm-30.703-39.256l-.317.949h.001l.006.001.021.008.091.03c.08.028.201.07.358.127.316.112.779.282 1.365.508a86.852 86.852 0 014.791 2.017c3.913 1.786 8.966 4.43 13.574 7.871 4.619 3.45 8.713 7.646 10.819 12.51 2.082 4.81 2.256 10.354-1.095 16.666l1.766.938c3.635-6.845 3.49-13.025 1.164-18.398-2.302-5.32-6.706-9.769-11.457-13.318-4.763-3.558-9.954-6.27-13.941-8.089a88.202 88.202 0 00-4.903-2.064 60.599 60.599 0 00-1.789-.658l-.1-.034-.026-.009a.139.139 0 00-.008-.002l-.002-.001-.318.948zm29.614 40.687c-14.062 26.483-9.39 42.566-4.791 47.51l1.465-1.362c-3.752-4.034-8.791-19.064 5.092-45.21l-1.766-.938z" fill="#E71985"/></svg>