<svg width="133" height="61" fill="none" xmlns="http://www.w3.org/2000/svg"><path fill-rule="evenodd" clip-rule="evenodd" d="M95.34 42.913a.684.684 0 00.797.54c6.968-1.26 11.616-3.58 15.097-6.694 3.465-3.1 5.726-6.947 7.975-11.148.013-.026.025-.053.036-.08l.522-1.387c3.884-10.331 5.791-15.402 11.859-21.73l.005 4.399a.68.68 0 00.686.672.68.68 0 00.683-.674l-.008-6.056a.668.668 0 00-.262-.528.693.693 0 00-.844-.143l-5.738.007a.68.68 0 00-.683.674.679.679 0 00.685.672l3.473-.005c-2.751 1.988-4.641 4.777-6.167 7.926-1.209 2.496-2.22 5.293-3.247 8.133-.583 1.613-1.171 3.24-1.803 4.834-1.767 4.451-3.916 8.764-7.351 12.281-3.421 3.503-8.154 6.254-15.156 7.522l-.01.002a.674.674 0 00-.55.783z" fill="#7831B2"/><path d="M4.659 31.593c-.79.116-1.487.085-2.092-.094a3.424 3.424 0 01-1.48-.908 3.861 3.861 0 01-.862-1.481 5.548 5.548 0 01-.219-1.866 7.11 7.11 0 01.385-1.986 7.537 7.537 0 01.815-1.632c.318-.486.648-.9.989-1.24.34-.339.65-.604.926-.795.276-.19.478-.295.606-.314a.838.838 0 01.295.005c.09.019.172.092.246.22.153.214.168.421.046.621-.122.2-.3.393-.534.578-.32.261-.655.605-1.004 1.032-.339.425-.633.93-.882 1.513-.239.582-.383 1.246-.433 1.993-.026.615.064 1.17.27 1.665a2.26 2.26 0 001.037 1.118c.483.24 1.114.303 1.893.188a3.876 3.876 0 001.68-.681c.52-.377.948-.858 1.284-1.444a4.28 4.28 0 00.563-1.996 8.484 8.484 0 00-.136-1.862 5.22 5.22 0 00-.553-1.591c-.256-.466-.588-.82-.995-1.06-.397-.242-.862-.323-1.395-.245a.676.676 0 00-.52.35c-.102.186-.16.415-.173.685a.916.916 0 01-.193.559.69.69 0 01-.422.239.642.642 0 01-.384-.056.671.671 0 01-.29-.295 1.064 1.064 0 01-.1-.548 2.546 2.546 0 01.989-1.883 2.422 2.422 0 011.14-.457c.726-.107 1.378-.015 1.956.275.579.29 1.06.729 1.444 1.316.392.574.681 1.256.867 2.043a8.36 8.36 0 01.218 2.509 5.856 5.856 0 01-3.065 4.906 5.864 5.864 0 01-1.917.62zm6.915-7.514c-.245.036-.448-.01-.609-.136a.553.553 0 01-.058-.811c.083-.098.243-.197.478-.296a12.3 12.3 0 011.493-.509c.638-.18 1.389-.333 2.253-.46.447-.066.86-.116 1.236-.15.386-.046.813-.07 1.28-.075.37-.012.66.031.87.129.223.096.33.225.322.387a.674.674 0 01-.353.583 1.11 1.11 0 01-.436.144 11.44 11.44 0 01-.79.084c-.3.023-.624.049-.969.078a10.76 10.76 0 00-1.03.104c-.736.108-1.324.227-1.762.355a9.4 9.4 0 00-1.091.354c-.29.107-.567.18-.834.219zm3.292 6.045a.59.59 0 01-.571-.205 2.113 2.113 0 01-.334-.691 6.249 6.249 0 01-.137-.897c-.027-.392-.037-.82-.031-1.282.004-.472.016-.93.036-1.372.03-.594.054-1.117.072-1.57.027-.465.046-.849.054-1.15l1.426-.306-.058.7c-.013.27-.026.577-.039.922-.015.335-.033.68-.055 1.037-.013.345-.027.68-.043 1.004-.027.54-.03.99-.007 1.352.031.349.069.633.113.851.044.22.083.401.116.546.031.135.045.262.041.38a.826.826 0 01-.08.334.602.602 0 01-.211.224.63.63 0 01-.292.123zm5.203-.781c-.256.037-.47-.081-.643-.356-.173-.275-.245-.714-.217-1.32.01-.29.046-.735.108-1.334.06-.609.193-1.272.4-1.988.242-.85.471-1.528.69-2.032.215-.514.446-.896.691-1.147.246-.25.512-.397.8-.44a.585.585 0 01.553.193c.155.16.279.361.37.605.092.244.173.49.243.736.094.33.204.694.33 1.093.137.398.28.8.429 1.208.16.405.327.788.502 1.148.185.359.378.658.578.896l-.557.21c.218-.643.458-1.289.719-1.938.261-.65.526-1.273.795-1.87.269-.597.525-1.134.77-1.61.272-.5.511-.862.717-1.086.217-.225.421-.351.613-.38a.81.81 0 01.398.039c.125.035.236.083.333.144.135.098.247.226.337.384.089.159.138.409.146.75.02.77.059 1.46.12 2.074.07.6.14 1.105.213 1.512.121.722.262 1.291.423 1.707.173.414.252.687.24.817a.483.483 0 01-.174.364.672.672 0 01-.41.205c-.257.037-.488-.052-.696-.268-.196-.218-.347-.528-.452-.93-.1-.372-.205-.844-.314-1.418a25.237 25.237 0 01-.246-1.942 28.969 28.969 0 01-.084-2.271l.447-.178a112.184 112.184 0 00-1.412 2.973 82.13 82.13 0 00-.7 1.631c-.213.535-.398 1.04-.555 1.513a1.528 1.528 0 01-.345.533.844.844 0 01-.501.251 1.133 1.133 0 01-.666-.079 1.691 1.691 0 01-.493-.442 5.823 5.823 0 01-.398-.681l-.27-.588a21.715 21.715 0 01-1.063-3.012c-.1-.37-.175-.72-.224-1.044l.46-.197a17.656 17.656 0 00-.73 1.652 11.609 11.609 0 00-.455 1.627 13.63 13.63 0 00-.21 1.735c-.023.422-.033.788-.03 1.098.015.31.018.544.01.706a1.09 1.09 0 01-.155.49c-.087.141-.232.227-.435.257zm15.167-2.247c-.885.13-1.597.074-2.135-.169a2.275 2.275 0 01-1.159-1.164c-.234-.534-.334-1.157-.3-1.87.038-.53.163-1.075.373-1.63.218-.57.514-1.1.886-1.595a5.44 5.44 0 011.332-1.241 4.06 4.06 0 011.684-.65c.565-.083 1.043-.062 1.432.063.4.123.697.348.888.674.202.324.29.756.262 1.296a2.655 2.655 0 01-.56 1.578c-.358.45-.83.824-1.416 1.125-.576.299-1.216.5-1.92.604-.725.107-1.223.094-1.494-.038-.26-.133-.385-.308-.374-.524.002-.129.036-.225.103-.288.065-.074.178-.123.338-.146.117-.018.259-.017.425.001.176.007.429-.014.76-.063a4.446 4.446 0 001.406-.432c.414-.211.741-.463.98-.755a1.75 1.75 0 00.392-.975c.016-.324-.063-.553-.236-.689-.162-.137-.452-.174-.867-.113a2.706 2.706 0 00-1.157.46c-.346.233-.66.53-.944.894a4.653 4.653 0 00-.65 1.205 4.39 4.39 0 00-.268 1.358c-.017.389.03.736.142 1.041.11.295.308.523.595.684.295.15.688.189 1.179.117.554-.082 1.019-.22 1.392-.414a4.63 4.63 0 00.948-.654c.248-.23.458-.427.63-.592.17-.164.33-.257.48-.28.181-.026.32.023.415.149.105.113.151.278.14.494-.01.216-.12.457-.33.724-.202.255-.48.51-.833.766a6.063 6.063 0 01-1.173.67 5.59 5.59 0 01-1.366.379zm7.261-3.642c-.406.06-.755.02-1.049-.119a1.611 1.611 0 01-.704-.652 2.623 2.623 0 01-.305-1.033c-.05-.4-.047-.813.008-1.24a6.04 6.04 0 01.276-1.198c.139-.374.304-.688.494-.941s.398-.396.622-.43a.555.555 0 01.282.024c.091.03.165.083.22.16.054.067.084.16.091.276.004.096-.027.25-.093.464a23.72 23.72 0 01-.217.724c-.09.27-.16.56-.211.867a3.053 3.053 0 00-.029.889c.03.189.07.349.123.48a.494.494 0 00.219.258.668.668 0 00.382.04c.341-.05.68-.186 1.017-.407a4.28 4.28 0 00.935-.845c.297-.344.552-.709.766-1.094.212-.396.366-.783.461-1.161l.375 1.601a9.434 9.434 0 01-1.017 1.597 5.251 5.251 0 01-1.243 1.18 3.353 3.353 0 01-1.403.56zm3.797 2.063c-.234.035-.413-.03-.536-.194a2.347 2.347 0 01-.311-.646 5.58 5.58 0 01-.131-.753 13.561 13.561 0 01-.005-2.074 31.502 31.502 0 01.212-1.832c.048-.329.1-.637.154-.923.053-.298.093-.534.12-.71a3.14 3.14 0 01.233-.838c.11-.21.261-.328.453-.356.181-.027.353.06.514.262.162.201.23.475.207.822a6.94 6.94 0 01-.128.984c-.08.408-.157.832-.232 1.272a11.85 11.85 0 00-.125 1.112c-.032.509-.041.95-.028 1.323.013.373.041.701.084.985.022.21.048.384.08.519.03.134.044.256.039.364a.782.782 0 01-.165.426c-.087.142-.232.227-.435.257zm4.922-.772c-.49.072-.908.015-1.253-.17-.334-.186-.59-.476-.77-.867-.168-.394-.24-.866-.215-1.416.02-.518.119-1.047.298-1.588.188-.553.44-1.083.756-1.59a7.625 7.625 0 011.08-1.398 6.097 6.097 0 011.344-1.05 4.41 4.41 0 011.523-.53c.245-.036.446-.001.604.105.158.105.23.287.214.547a.596.596 0 01-.125.356c-.084.098-.214.171-.392.219a5.052 5.052 0 00-1.96 1.092 6.065 6.065 0 00-1.352 1.759 5.03 5.03 0 00-.55 1.978 4.19 4.19 0 00.031.848c.037.242.138.548.304.92l-.773-.995c.229.213.423.345.584.396.17.05.4.054.688.011.683-.1 1.31-.632 1.884-1.595.573-.964 1.033-2.313 1.38-4.047.044-.21.122-.377.234-.5a.733.733 0 01.454-.245.627.627 0 01.607.233c.17.179.267.427.294.745.058.667.127 1.267.209 1.802a7.31 7.31 0 00.4 1.453c.188.444.463.892.826 1.342.08.096.125.212.135.35a.767.767 0 01-.052.41.866.866 0 01-.224.354.665.665 0 01-.367.167.701.701 0 01-.399-.038.832.832 0 01-.264-.234 7.3 7.3 0 01-.532-.807 6.183 6.183 0 01-.446-.995 8.035 8.035 0 01-.293-1.389 17.89 17.89 0 01-.13-1.927l.574-.1c-.248 1.452-.613 2.637-1.095 3.554-.47.917-.994 1.6-1.569 2.048-.575.45-1.129.713-1.662.792zm11.329-1.667c-.886.13-1.597.074-2.136-.168a2.276 2.276 0 01-1.158-1.164c-.234-.534-.334-1.157-.301-1.87.04-.531.163-1.075.373-1.631.22-.568.514-1.1.886-1.594.383-.496.827-.91 1.333-1.241a4.06 4.06 0 011.683-.65c.843-.124 1.492-.016 1.947.325.466.339.678.908.636 1.708a2.655 2.655 0 01-.561 1.578c-.357.449-.829.824-1.416 1.125-.576.299-1.215.5-1.92.604-.725.106-1.223.094-1.493-.038-.26-.133-.385-.308-.375-.524.003-.129.037-.225.104-.288.065-.074.177-.123.337-.146a1.68 1.68 0 01.426.001c.175.007.428-.015.759-.063a4.44 4.44 0 001.406-.432c.415-.211.742-.463.981-.756.237-.303.368-.627.392-.974.016-.324-.063-.554-.236-.689-.163-.137-.452-.175-.868-.113a2.706 2.706 0 00-1.157.46c-.346.232-.66.53-.943.894a4.65 4.65 0 00-.65 1.205 4.386 4.386 0 00-.268 1.358c-.018.389.03.736.142 1.04.11.296.308.524.594.685.296.15.689.189 1.18.116.554-.081 1.018-.22 1.392-.414.383-.206.699-.424.947-.654.249-.23.459-.426.63-.59.171-.165.332-.259.48-.28.182-.027.32.022.416.148.104.113.151.277.14.493-.01.216-.12.458-.331.725-.201.254-.478.51-.832.765a6.066 6.066 0 01-1.174.672c-.43.18-.885.307-1.365.377zm6.376-.922c-.256.038-.47-.08-.642-.355-.173-.275-.245-.715-.218-1.32.01-.29.047-.735.108-1.334.06-.61.194-1.272.4-1.989.242-.85.472-1.527.69-2.03.216-.515.447-.898.692-1.148.245-.25.512-.397.8-.44a.584.584 0 01.553.193c.155.16.278.36.37.605.091.243.172.489.242.736.094.33.204.694.33 1.093.137.398.28.8.43 1.207.16.406.326.789.501 1.149a4.9 4.9 0 00.578.896l-.557.21c.219-.643.459-1.29.72-1.939.26-.65.525-1.273.794-1.87.27-.597.526-1.133.77-1.608.272-.502.512-.864.718-1.087.216-.225.42-.351.612-.38a.81.81 0 01.399.038c.125.036.236.084.332.144.135.098.247.227.337.385.09.158.139.409.147.75.019.77.058 1.46.119 2.074.07.6.14 1.105.214 1.512.12.722.262 1.291.423 1.707.172.414.252.686.239.817 0 .14-.059.26-.174.363a.671.671 0 01-.41.205c-.256.038-.488-.051-.695-.267-.197-.218-.348-.528-.453-.93-.1-.372-.204-.845-.313-1.418a25.233 25.233 0 01-.247-1.942 28.966 28.966 0 01-.084-2.271l.448-.179c-.2.405-.425.867-.673 1.386-.239.507-.486 1.036-.74 1.588a85.14 85.14 0 00-.7 1.631c-.213.535-.398 1.04-.555 1.513a1.528 1.528 0 01-.344.533.844.844 0 01-.502.25 1.134 1.134 0 01-.666-.078 1.69 1.69 0 01-.492-.442 5.813 5.813 0 01-.398-.681l-.27-.588a21.833 21.833 0 01-1.063-3.012c-.1-.371-.175-.72-.225-1.044l.461-.197a17.667 17.667 0 00-.73 1.651 11.613 11.613 0 00-.456 1.627c-.103.541-.173 1.12-.21 1.736-.023.422-.033.788-.029 1.098.014.309.017.544.01.706a1.09 1.09 0 01-.155.49c-.088.14-.233.227-.436.256zM4.926 45.817a5.53 5.53 0 01-1.22.051 4.02 4.02 0 01-1.017-.236 1.942 1.942 0 01-.71-.475 1.137 1.137 0 01-.283-.682.692.692 0 01.109-.466c.098-.143.216-.225.355-.245.128-.02.25.027.364.139.125.1.274.222.449.368a2.3 2.3 0 00.72.328c.295.075.688.076 1.179.004.714-.105 1.24-.31 1.574-.617.344-.32.491-.641.442-.966-.017-.18-.114-.321-.293-.423-.17-.115-.417-.196-.741-.245a7.201 7.201 0 00-1.256-.089c-.414.007-.687-.033-.82-.12a.488.488 0 01-.19-.39c-.015-.17.074-.301.267-.394.193-.092.523-.216.99-.37.613-.198 1.09-.429 1.432-.694.352-.266.511-.547.477-.842-.032-.285-.198-.48-.498-.586-.301-.116-.686-.14-1.156-.071-.533.078-.965.212-1.296.4-.333.177-.596.35-.788.518-.182.166-.332.258-.45.275a.327.327 0 01-.29-.086.47.47 0 01-.11-.29c-.018-.19.039-.391.17-.603.142-.214.34-.42.593-.618.264-.2.582-.37.953-.51.38-.153.8-.263 1.258-.33.939-.138 1.657-.072 2.156.197.51.268.799.697.867 1.288.028.328-.057.668-.254 1.018-.188.339-.5.653-.936.942-.438.279-1.014.503-1.73.673l-.052-.234c.662-.097 1.21-.108 1.647-.033.446.063.786.217 1.019.461.243.233.383.55.423.951.06.463-.058.91-.353 1.339-.285.417-.694.777-1.225 1.08a5.24 5.24 0 01-1.776.583zm7.282-1.039c-.49.072-.908.016-1.252-.17-.334-.186-.59-.475-.77-.867-.169-.393-.24-.865-.216-1.416.02-.517.12-1.047.299-1.588.188-.553.44-1.083.755-1.59a7.621 7.621 0 011.08-1.397 6.091 6.091 0 011.345-1.05c.492-.277 1-.453 1.522-.53.245-.036.447-.002.605.104.158.105.229.288.214.547a.597.597 0 01-.126.357c-.083.098-.214.17-.392.218a5.054 5.054 0 00-1.96 1.093 6.068 6.068 0 00-1.351 1.758 5.03 5.03 0 00-.55 1.979 4.12 4.12 0 00.03.848c.038.24.139.548.304.92l-.773-.996c.23.213.424.345.584.397.171.05.4.053.689.01.682-.1 1.31-.631 1.883-1.595.573-.963 1.033-2.312 1.38-4.047.044-.21.123-.377.235-.5a.733.733 0 01.453-.244.628.628 0 01.608.232c.169.179.267.427.293.745.058.667.128 1.268.209 1.803.09.523.224 1.007.401 1.453.188.444.463.891.826 1.341a.6.6 0 01.135.35.766.766 0 01-.052.41.869.869 0 01-.224.355.665.665 0 01-.368.166.701.701 0 01-.398-.037.833.833 0 01-.265-.235 7.34 7.34 0 01-.531-.806 6.185 6.185 0 01-.446-.996 8.043 8.043 0 01-.293-1.388 17.89 17.89 0 01-.13-1.927l.574-.1c-.193 1.1-.447 2.043-.764 2.83-.318.775-.678 1.418-1.08 1.928-.393.497-.804.88-1.232 1.146-.429.267-.845.43-1.25.49zm10.559-1.456c-.544.08-1.003.035-1.378-.135a2.07 2.07 0 01-.865-.742 3.464 3.464 0 01-.43-1.11 5.912 5.912 0 01-.092-1.241c.03-.455.096-.953.199-1.493.113-.542.252-1.066.415-1.573.16-.517.335-.95.521-1.299.11-.209.26-.376.448-.5.199-.126.4-.203.602-.233.128-.019.225.01.291.086.065.065.091.169.08.31-.008.162-.068.374-.18.637l-.379.956a11.1 11.1 0 00-.387 1.328 9.41 9.41 0 00-.226 1.738c-.036.691.061 1.224.292 1.597.232.374.62.52 1.163.44a2.65 2.65 0 001.168-.493 3.63 3.63 0 00.943-1.007 2.86 2.86 0 00.453-1.321l.221.273a4.317 4.317 0 00-.995-.095 9.809 9.809 0 00-1.187.046c-.41.028-.811.082-1.203.16-.393.07-.74.152-1.041.25l.05-1.068a7.514 7.514 0 001.539-.42c.482-.2.9-.427 1.254-.683a4.43 4.43 0 00.864-.77c.21-.267.316-.502.317-.706.01-.152-.045-.262-.164-.33-.121-.078-.299-.1-.534-.066a3.623 3.623 0 00-.892.26c-.297.13-.611.283-.944.46-.333.178-.686.364-1.06.558-.154.066-.29.064-.41-.004a.298.298 0 01-.144-.3c.01-.152.09-.303.242-.454.16-.163.316-.288.466-.374.6-.431 1.168-.75 1.703-.958a6.78 6.78 0 011.537-.435c.384-.057.707-.045.97.034.273.078.479.208.616.392a.927.927 0 01.198.662 2.109 2.109 0 01-.334 1.03c-.21.342-.491.673-.846.993a6.81 6.81 0 01-1.166.831 7.326 7.326 0 01-1.38.605l-.01-.61c.497-.094.961-.162 1.391-.204.44-.044.832-.053 1.173-.028.342.025.611.108.807.251a.76.76 0 01.352.592c.043.422-.043.864-.256 1.324a4.445 4.445 0 01-.902 1.275c-.387.4-.83.743-1.332 1.032a4.45 4.45 0 01-1.538.532zm9.332-1.47c-.886.13-1.597.075-2.136-.168a2.275 2.275 0 01-1.158-1.164c-.234-.534-.335-1.157-.301-1.87a5.803 5.803 0 01.373-1.63c.219-.57.514-1.1.886-1.595.383-.496.827-.91 1.332-1.241a4.06 4.06 0 011.684-.65c.566-.083 1.043-.062 1.433.063.4.123.696.348.887.673.202.324.29.757.263 1.297a2.655 2.655 0 01-.561 1.578c-.357.449-.829.824-1.416 1.125-.576.299-1.216.5-1.92.604-.725.106-1.223.094-1.494-.038-.26-.133-.384-.308-.374-.524.002-.129.037-.225.104-.288.065-.074.177-.123.337-.146a1.68 1.68 0 01.426.001c.175.007.428-.014.759-.063a4.444 4.444 0 001.406-.432c.415-.211.742-.463.981-.755.237-.303.368-.628.392-.975.016-.324-.063-.554-.236-.689-.163-.137-.452-.175-.868-.113a2.705 2.705 0 00-1.157.46c-.346.232-.66.53-.943.894a4.653 4.653 0 00-.65 1.205 4.39 4.39 0 00-.268 1.358c-.018.389.03.736.141 1.04.11.296.309.524.595.685.296.15.689.189 1.18.116.554-.081 1.018-.22 1.392-.413.383-.207.698-.425.947-.655.249-.229.459-.426.63-.59.171-.165.331-.258.48-.28.182-.027.32.022.416.148.104.113.151.277.14.493-.01.216-.121.458-.331.725a4.15 4.15 0 01-.832.765 6.063 6.063 0 01-1.174.672c-.43.18-.886.307-1.365.377zm9.258-1.442c-.512.075-.97.073-1.375-.007s-.725-.215-.962-.405c-.236-.19-.35-.41-.345-.657a.772.772 0 01.126-.356.434.434 0 01.314-.191.548.548 0 01.3.036l.333.144c.128.056.31.1.543.13.232.019.54 0 .924-.056.597-.088 1.093-.306 1.487-.653.403-.36.615-.9.636-1.622.032-.508-.03-.955-.187-1.339a2.41 2.41 0 00-1.706-1.534 3.477 3.477 0 00-1.347-.043 3.78 3.78 0 00-.74.189 3.43 3.43 0 01-.66.178.664.664 0 01-.332-.032.46.46 0 01-.23-.224.638.638 0 01-.064-.312c.02-.292.18-.535.478-.73.306-.205.796-.358 1.468-.457.714-.105 1.367-.077 1.958.082.602.158 1.118.43 1.548.818.428.377.752.86.973 1.449.23.577.325 1.244.288 2a3.673 3.673 0 01-.316 1.365 3.595 3.595 0 01-.718 1.087 3.97 3.97 0 01-1.063.751 4.822 4.822 0 01-1.331.39zm-3.147 4.58a.607.607 0 01-.35-.045.416.416 0 01-.215-.226.89.89 0 01-.062-.409c.008-.162.044-.317.109-.466.056-.137.117-.307.184-.51a5.91 5.91 0 00.199-.736c.063-.3.108-.686.134-1.162.03-.594.012-1.176-.053-1.745a31.598 31.598 0 00-.215-1.738 98.04 98.04 0 01-.22-1.768 11.935 11.935 0 01-.068-1.84c.016-.184.047-.34.093-.464a.618.618 0 01.202-.287.716.716 0 01.353-.148.549.549 0 01.443.111.825.825 0 01.307.406c.07.172.094.372.075.6-.032.648-.022 1.257.033 1.828.063.56.135 1.106.217 1.64.092.534.168 1.07.228 1.608s.074 1.098.043 1.682a10.893 10.893 0 01-.139 1.452c-.075.44-.175.819-.301 1.138a2.268 2.268 0 01-.425.754.91.91 0 01-.572.325zm11.69-5.772c-.703.103-1.271.095-1.703-.023-.433-.119-.765-.327-.995-.626a2.58 2.58 0 01-.444-1.092 6.92 6.92 0 01-.056-1.44c.027-.54.089-1.1.186-1.683.105-.595.24-1.21.406-1.845.105-.38.208-.674.307-.882.1-.207.23-.323.39-.346a.701.701 0 01.579.155c.16.127.23.326.205.597-.008.163-.06.428-.157.796-.086.366-.18.825-.281 1.376a15.527 15.527 0 00-.214 1.929c-.033.712.086 1.21.358 1.491.283.28.786.367 1.512.26.298-.044.692-.107 1.181-.19.487-.093 1.012-.191 1.574-.295l1.655-.308c.55-.113 1.03-.216 1.44-.309a16.4 16.4 0 00.912-.246 1.02 1.02 0 00.349-.18c.095-.09.152-.22.169-.395a9.933 9.933 0 00-.03-1.813 11.274 11.274 0 00-.258-1.586c-.106-.478-.21-.875-.313-1.193-.093-.329-.145-.563-.155-.7a.539.539 0 01.161-.442.673.673 0 01.406-.237c.245-.036.44.032.587.203.155.16.29.37.407.632.083.191.165.48.246.864.09.373.17.796.242 1.267.082.47.138.945.167 1.423.038.466.049.894.032 1.282-.036.627-.18 1.11-.434 1.447-.245.326-.66.58-1.242.762-.209.063-.535.143-.978.24a150.1 150.1 0 01-1.526.289c-.571.116-1.154.223-1.75.322-.594.108-1.152.206-1.673.294-.51.086-.93.153-1.261.202zm2.722-.819a.611.611 0 01-.37-.074.573.573 0 01-.266-.347 5.14 5.14 0 01-.151-.99c-.02-.416-.03-.843-.031-1.283.007-.451.021-.86.042-1.228.032-.648.091-1.225.178-1.731s.163-.86.23-1.064a.962.962 0 01.188-.38.527.527 0 01.362-.199.524.524 0 01.371.074c.11.07.195.17.259.3a1 1 0 01.088.47 3.273 3.273 0 01-.08.558c-.04.231-.086.506-.135.824-.04.317-.068.664-.087 1.042-.02.303-.027.647-.023 1.033.015.383.036.772.063 1.164.025.383.056.732.094 1.048.013.159-.07.327-.25.503-.183.166-.343.26-.482.28zm11.644-1.279c-.885.13-1.597.075-2.136-.168a2.276 2.276 0 01-1.158-1.164c-.234-.534-.334-1.157-.3-1.87.038-.53.163-1.075.373-1.63.218-.569.514-1.1.886-1.595.382-.495.826-.91 1.332-1.24a4.06 4.06 0 011.684-.65c.842-.125 1.491-.016 1.946.324.466.339.678.908.636 1.708a2.655 2.655 0 01-.56 1.578c-.358.45-.83.824-1.416 1.125-.576.299-1.216.5-1.92.604-.725.107-1.223.094-1.494-.038-.26-.133-.385-.307-.374-.523.002-.13.036-.226.103-.29.065-.073.177-.122.337-.145.118-.017.26-.017.426.002.175.006.428-.015.76-.064a4.44 4.44 0 001.405-.432c.415-.211.742-.463.981-.755.238-.303.368-.628.392-.975.016-.324-.063-.553-.236-.689-.163-.137-.452-.175-.868-.113a2.706 2.706 0 00-1.156.46c-.347.233-.661.53-.944.894a4.646 4.646 0 00-.65 1.205 4.386 4.386 0 00-.268 1.358c-.017.389.03.736.142 1.041.11.295.308.523.595.684.295.15.688.189 1.178.117.555-.082 1.02-.22 1.393-.414.383-.207.699-.425.947-.654.249-.23.459-.427.63-.592.171-.164.332-.257.481-.28.181-.026.32.023.415.149.105.113.151.278.14.494-.01.216-.12.457-.33.724-.202.255-.48.51-.833.766a6.067 6.067 0 01-1.174.67c-.43.182-.885.308-1.365.379zm6.649-.961a.672.672 0 01-.643-.244c-.172-.2-.303-.491-.394-.874-.082-.396-.11-.869-.085-1.42.043-.574.123-1.015.24-1.321.126-.319.288-.546.485-.683.108-.08.268-.14.48-.183.21-.052.432-.096.666-.13a23.83 23.83 0 002.287-.449 11.886 11.886 0 002.184-.804l.453 1.043a9.375 9.375 0 01-1.72.736 19.99 19.99 0 01-1.918.507 39.64 39.64 0 01-1.896.327l-.95-.005c.045-.639.09-1.31.135-2.014.046-.703.081-1.33.107-1.881.004-.258.058-.475.162-.651.104-.176.236-.276.396-.3.267-.039.48.037.64.228.158.18.223.498.194.952-.007.237-.03.525-.065.862l-.116 1.063c-.032.369-.065.722-.1 1.06-.028.325-.046.596-.057.812a22.432 22.432 0 00-.04 1.679c.02.48.026.843.02 1.09a.66.66 0 01-.153.393.446.446 0 01-.312.207zm5.519-.812c-.267.039-.482-.085-.645-.372-.153-.288-.264-.695-.334-1.221a11.463 11.463 0 01-.044-1.795 44.89 44.89 0 01.197-2.473c.08-.623.162-1.118.248-1.484.05-.244.126-.464.227-.66.1-.198.242-.31.423-.337a.512.512 0 01.546.258c.139.194.2.448.181.761a8.45 8.45 0 01-.165 1.279c-.082.462-.132.957-.15 1.485a18.153 18.153 0 00-.011 1.755c.034.51.072.938.114 1.286.042.348.054.608.037.783a.735.735 0 01-.187.493.711.711 0 01-.437.242zm4.686-.69c-.363.054-.664.012-.903-.124a1.497 1.497 0 01-.548-.595 2.867 2.867 0 01-.283-.891 5.875 5.875 0 01-.036-.992c.022-.282.058-.62.107-1.013a61.87 61.87 0 01.43-2.443c.084-.377.154-.672.209-.883.083-.388.162-.689.239-.904.087-.216.21-.336.37-.36a.608.608 0 01.406.085.824.824 0 01.31.324.841.841 0 01.123.48 4.929 4.929 0 01-.114.757c-.07.332-.15.703-.24 1.113-.09.41-.174.825-.252 1.244a7.91 7.91 0 00-.144 1.098c-.02.293-.022.572-.003.837.017.255.06.463.127.624.067.151.17.217.308.196.342-.05.728-.412 1.16-1.087.442-.676.909-1.586 1.4-2.73.228-.506.424-.974.588-1.406.163-.431.307-.806.433-1.125.125-.33.254-.59.389-.781.134-.191.281-.299.441-.322.246-.036.436.032.571.205.145.161.235.395.27.7.042.273.082.61.122 1.012l.154 1.231c.052.41.11.794.175 1.149.124.603.259 1.093.403 1.468.154.364.285.655.395.875.11.22.17.404.182.552a.768.768 0 01-.062.347.854.854 0 01-.204.271.575.575 0 01-.305.142c-.245.036-.465-.045-.658-.241-.183-.199-.348-.49-.494-.877a13.038 13.038 0 01-.42-1.37c-.08-.373-.162-.774-.249-1.2a26.247 26.247 0 01-.196-1.29c-.044-.434-.083-.835-.118-1.206l.488.09c-.091.26-.19.537-.299.831-.097.293-.22.628-.37 1.004-.141.363-.32.797-.538 1.301-.277.62-.59 1.218-.938 1.794a7.297 7.297 0 01-1.139 1.439c-.4.38-.829.604-1.287.671zm11.751-1.744c-.885.13-1.597.074-2.135-.169a2.275 2.275 0 01-1.159-1.164c-.234-.534-.334-1.157-.3-1.87.039-.53.163-1.074.373-1.63.219-.569.514-1.1.886-1.595.382-.495.826-.91 1.332-1.24a4.06 4.06 0 011.684-.65c.843-.124 1.491-.016 1.947.324.466.34.678.908.636 1.708a2.655 2.655 0 01-.562 1.578c-.356.45-.828.824-1.415 1.125-.576.3-1.216.5-1.92.604-.725.107-1.223.094-1.494-.038-.26-.133-.385-.307-.374-.523.002-.13.037-.226.103-.289.065-.074.178-.123.338-.146a1.7 1.7 0 01.425.002c.176.006.429-.015.76-.064a4.442 4.442 0 001.406-.432c.415-.211.742-.463.98-.755a1.75 1.75 0 00.392-.975c.016-.324-.062-.553-.236-.689-.162-.136-.451-.174-.867-.113a2.846 2.846 0 00-1.48.7 4.629 4.629 0 00-1.091 1.43 4.463 4.463 0 00-.448 1.788c-.017.388.03.735.142 1.04.11.295.309.523.595.685.295.15.688.188 1.179.116.554-.082 1.019-.22 1.392-.414.384-.207.7-.425.948-.654.248-.23.458-.427.63-.591.17-.165.331-.258.48-.28.182-.027.32.023.415.148.105.113.152.278.141.494-.01.216-.121.457-.331.724-.202.255-.479.51-.833.766a6.068 6.068 0 01-1.173.67 5.59 5.59 0 01-1.366.379zM8.214 59.693c-.874.129-1.623.046-2.245-.248a2.965 2.965 0 01-1.384-1.357c-.302-.62-.436-1.356-.402-2.208a4.37 4.37 0 01.374-1.631c.23-.495.503-.921.819-1.279a4.27 4.27 0 011.017-.84c.35-.213.657-.339.924-.378a.758.758 0 01.295.005c.09.019.162.062.216.129.063.055.092.142.089.26a1.918 1.918 0 01-.168.62c-.092.185-.287.37-.586.553a4.526 4.526 0 00-.885.74 2.618 2.618 0 00-.512.832 2.89 2.89 0 00-.185 1.04c-.041.875.164 1.542.615 2 .45.45 1.06.617 1.827.504a2.764 2.764 0 001.832-1.074c.484-.618.744-1.38.78-2.286.049-.832-.1-1.454-.446-1.864-.348-.42-.842-.584-1.482-.49-.33.05-.603.154-.819.314a5.867 5.867 0 00-.659.612 4.92 4.92 0 00-.4.493 2.68 2.68 0 01-.274.346.556.556 0 01-.321.143.457.457 0 01-.374-.09c-.09-.093-.131-.254-.122-.48.006-.248.091-.512.255-.793a4.06 4.06 0 01.663-.806c.276-.265.58-.487.913-.665a2.886 2.886 0 011.009-.357c.768-.113 1.419-.027 1.953.26.532.275.931.71 1.196 1.303.263.583.37 1.286.32 2.108a5.226 5.226 0 01-.548 2.203 4.536 4.536 0 01-1.359 1.6 4.2 4.2 0 01-1.926.781zm9.413-1.4c-.566.083-1.06.06-1.483-.072a2.495 2.495 0 01-1.069-.679 3.57 3.57 0 01-.687-1.185 6.423 6.423 0 01-.338-1.575 13.132 13.132 0 01-.04-1.876 8.475 8.475 0 01.311-2.04 7.792 7.792 0 01.664-1.657c.274-.49.577-.905.907-1.243.33-.338.671-.603 1.024-.794.313-.164.635-.303.967-.416.33-.123.651-.235.963-.334.312-.1.598-.196.856-.287a9.254 9.254 0 001.152-.491c.313-.164.555-.259.726-.284a.69.69 0 01.366.043.58.58 0 01.297.23c.069.096.099.22.09.372-.006.183-.095.352-.267.506-.175.143-.4.273-.677.389-.552.242-1.063.43-1.534.563a64.46 64.46 0 00-1.272.348 4.08 4.08 0 00-1.106.468c-.342.19-.662.489-.96.897a5.543 5.543 0 00-.729 1.442 6.546 6.546 0 00-.326 1.834c-.053 1.155-.016 2.082.113 2.781.137.688.374 1.173.712 1.456.348.28.788.382 1.322.304a2.566 2.566 0 001.063-.43 4.39 4.39 0 00.927-.892c.285-.353.512-.724.681-1.114a3.04 3.04 0 00.285-1.135c.028-.39-.026-.71-.162-.957a1.034 1.034 0 00-.605-.539c-.278-.109-.63-.132-1.057-.07-.565.084-1.176.334-1.832.753-.645.416-1.271.996-1.878 1.74l-.603-.523a6.128 6.128 0 011.265-1.682 6.032 6.032 0 011.599-1.103 5.675 5.675 0 011.653-.533c.65-.096 1.212-.055 1.686.122a1.99 1.99 0 011.081.87c.249.414.348.957.297 1.629a5.194 5.194 0 01-.411 1.7 6.635 6.635 0 01-.937 1.586c-.395.487-.85.902-1.364 1.246a4.165 4.165 0 01-1.67.632zm9.527 2.619c-.65.095-1.21.113-1.676.053-.466-.05-.816-.164-1.05-.344-.235-.18-.344-.394-.327-.643.019-.378.22-.595.604-.652a.797.797 0 01.364.027c.114.037.246.076.394.119a2.3 2.3 0 00.605.104 5.19 5.19 0 001.02-.07c.512-.075.921-.248 1.23-.518.307-.27.532-.62.674-1.048.153-.43.242-.915.27-1.455a6.795 6.795 0 00-.01-.916 72.705 72.705 0 00-.047-.958c-.019-.34-.035-.734-.049-1.182-.015-.46-.01-1.001.014-1.627l.566.383c-.232.774-.483 1.417-.754 1.928-.273.502-.55.901-.831 1.2a3.22 3.22 0 01-.836.638 2.64 2.64 0 01-.732.236c-.928.137-1.63-.146-2.108-.848-.48-.712-.676-1.932-.59-3.66.032-.723.09-1.273.174-1.65.095-.379.213-.643.354-.792a.799.799 0 01.467-.262c.256-.037.435.028.537.195.102.167.124.491.066.971-.07.686-.11 1.324-.118 1.915-.01.58.024 1.085.1 1.513.076.429.196.754.36.977.164.212.39.296.677.254.448-.066.851-.356 1.21-.87.356-.524.662-1.201.917-2.032.264-.843.477-1.775.637-2.796.052-.308.118-.516.2-.624.08-.12.221-.194.424-.223a.63.63 0 01.421.082c.143.076.243.233.301.47.067.227.067.548 0 .966a16.783 16.783 0 00-.15 1.485c-.011.43-.003.842.024 1.235.025.382.058.774.097 1.176.048.39.082.824.1 1.304.017.47.013 1.017-.012 1.642-.048.972-.234 1.755-.558 2.35-.312.603-.723 1.055-1.233 1.355-.51.3-1.086.498-1.726.592zm7.536-7.719c-.405.06-.754.02-1.048-.119a1.612 1.612 0 01-.704-.652 2.62 2.62 0 01-.305-1.033c-.05-.4-.047-.813.008-1.24a6.01 6.01 0 01.276-1.198c.139-.374.304-.688.494-.941s.398-.396.622-.43a.555.555 0 01.281.024c.092.03.166.083.221.16.054.067.084.16.091.276.004.096-.027.251-.093.464a23.72 23.72 0 01-.217.724c-.09.27-.16.56-.211.867a3.05 3.05 0 00-.029.889c.03.189.07.349.123.48a.494.494 0 00.219.258.668.668 0 00.382.04c.341-.05.68-.186 1.018-.407.337-.221.648-.503.934-.845.297-.344.552-.709.766-1.094.212-.396.366-.783.461-1.161l.374 1.601a9.442 9.442 0 01-1.016 1.597 5.248 5.248 0 01-1.243 1.18 3.353 3.353 0 01-1.403.56zm3.798 2.063c-.234.035-.413-.03-.536-.194a2.343 2.343 0 01-.311-.646 5.563 5.563 0 01-.131-.753 13.613 13.613 0 01-.005-2.074 31.547 31.547 0 01.212-1.832c.048-.329.1-.637.154-.923.053-.298.093-.534.12-.71a3.14 3.14 0 01.233-.838c.11-.21.261-.328.453-.356.181-.027.353.06.514.262.162.201.23.475.207.822-.008.237-.05.565-.128.984-.08.408-.157.832-.232 1.272a13.785 13.785 0 00-.153 2.435c.013.373.041.702.084.985.022.21.048.384.08.519.03.134.044.256.038.364a.78.78 0 01-.164.426c-.087.142-.232.227-.435.257zm6.362-.984c-.662.097-1.23.09-1.705-.023-.466-.124-.841-.332-1.125-.622a2.714 2.714 0 01-.625-1.098 4.584 4.584 0 01-.14-1.46c.039-.53.163-1.074.373-1.63.219-.569.514-1.1.886-1.594.383-.496.827-.91 1.332-1.241a4.06 4.06 0 011.684-.65c.566-.083 1.043-.062 1.433.063.4.123.696.347.887.673.202.324.29.756.263 1.296-.02.443-.138.852-.353 1.226a3.44 3.44 0 01-.85.978 5.34 5.34 0 01-1.216.71 6.34 6.34 0 01-1.478.394c-.725.106-1.223.094-1.494-.038-.26-.133-.385-.308-.374-.524.002-.129.037-.225.104-.289.065-.073.177-.122.337-.146.117-.017.26-.016.426.002.175.006.428-.015.759-.063a4.44 4.44 0 001.406-.432c.415-.212.742-.463.98-.756a1.75 1.75 0 00.392-.974c.017-.324-.062-.554-.235-.69-.163-.136-.452-.174-.868-.113a2.706 2.706 0 00-1.157.46c-.346.233-.66.531-.943.895a4.65 4.65 0 00-.651 1.205c-.162.442-.25.895-.268 1.358-.017.389.03.735.142 1.04.11.295.309.523.595.685.296.15.688.188 1.179.116.555-.081 1.019-.22 1.393-.414.383-.206.698-.424.947-.654.249-.23.458-.426.63-.59.17-.166.331-.259.48-.28.182-.027.32.022.416.147.104.114.15.278.14.494-.01.216-.121.458-.331.724a4.15 4.15 0 01-.832.766 6.063 6.063 0 01-1.174.671c-.43.182-.886.308-1.366.378zm6.648-.962c-.384.057-.676-.147-.878-.61-.201-.464-.282-1.106-.244-1.927.044-.574.124-1.015.24-1.322.127-.318.288-.546.486-.682.107-.08.267-.141.479-.183a6.92 6.92 0 01.667-.13c.779-.115 1.54-.265 2.287-.45a11.903 11.903 0 002.184-.803l.453 1.043a9.373 9.373 0 01-1.72.735c-.624.2-1.263.368-1.918.508-.646.127-1.278.236-1.897.327l-.95-.005c.045-.64.09-1.31.136-2.014.045-.704.08-1.33.106-1.881.005-.258.059-.475.163-.652.104-.176.236-.276.396-.3.267-.038.48.038.64.229.158.18.223.497.194.952-.008.237-.03.524-.066.862-.035.337-.074.692-.116 1.062-.03.37-.064.723-.1 1.06-.027.326-.046.597-.057.813a22.482 22.482 0 00-.039 1.678c.019.48.025.844.02 1.091a.659.659 0 01-.154.392.445.445 0 01-.312.207zm5.52-.812c-.267.04-.482-.084-.646-.371-.153-.289-.264-.696-.333-1.222a11.464 11.464 0 01-.044-1.794 45.62 45.62 0 01.196-2.474c.08-.623.163-1.117.249-1.484.05-.243.125-.463.226-.66s.242-.31.424-.336a.512.512 0 01.546.257c.138.194.199.448.18.762a8.464 8.464 0 01-.164 1.279c-.083.462-.133.957-.15 1.485a18.218 18.218 0 00-.012 1.755c.034.51.072.938.114 1.286.042.347.055.608.038.782a.736.736 0 01-.187.494.712.712 0 01-.438.241zm4.685-.689c-.363.053-.663.012-.902-.125a1.498 1.498 0 01-.549-.594 2.862 2.862 0 01-.282-.892 5.874 5.874 0 01-.037-.991c.023-.282.059-.62.108-1.013.06-.395.128-.807.204-1.236.077-.43.152-.832.225-1.208.085-.377.154-.67.21-.883a7.55 7.55 0 01.238-.903c.087-.217.21-.337.37-.36a.609.609 0 01.406.085.823.823 0 01.311.324.84.84 0 01.122.48 4.932 4.932 0 01-.114.757c-.069.332-.149.703-.24 1.113-.09.41-.174.824-.252 1.243a7.76 7.76 0 00-.143 1.099 5.93 5.93 0 00-.004.837c.017.254.06.462.128.624.067.151.17.216.308.196.341-.05.728-.413 1.16-1.087.442-.676.908-1.587 1.4-2.731.228-.505.424-.974.587-1.405.163-.432.308-.807.434-1.126.124-.329.254-.59.388-.78.135-.192.282-.3.442-.323.245-.036.435.033.57.206.145.16.235.394.27.7.042.273.083.61.122 1.011l.155 1.232c.051.41.11.793.175 1.148.124.604.258 1.093.403 1.469.153.363.285.655.395.874.11.22.17.404.182.553a.769.769 0 01-.062.346.854.854 0 01-.204.272.574.574 0 01-.306.141c-.373.055-.676-.147-.91-.606-.233-.459-.454-1.086-.662-1.88-.079-.375-.162-.776-.248-1.202a26.368 26.368 0 01-.197-1.29 126.22 126.22 0 01-.117-1.205l.487.089c-.125.394-.277.829-.455 1.305a40.255 40.255 0 01-.752 1.832c-.276.62-.589 1.217-.937 1.794a7.298 7.298 0 01-1.139 1.438c-.4.38-.83.605-1.288.672zm14.453-2.126a.661.661 0 01-.681-.286c-.158-.245-.27-.555-.338-.931a14.914 14.914 0 01-.082-.647 9.138 9.138 0 01-.049-.75c.004-.257.007-.493.007-.708l.052-.731c.032-.294.062-.594.092-.898.04-.317.072-.606.097-.867.035-.273.058-.48.07-.621 0-.14-.047-.235-.142-.285-.097-.06-.251-.076-.465-.044-.17.025-.355.063-.555.114-.2.05-.413.114-.641.19a5.081 5.081 0 00-1.38.718c-.382.282-.578.568-.589.859a.945.945 0 00.18.649c.147.171.4.29.758.355.37.063.885.046 1.546-.051a15.753 15.753 0 001.367-.265 8.49 8.49 0 01.55-.146 2.6 2.6 0 01.283-.073c.267-.04.493-.057.68-.052.185.005.271.105.257.3 0 .214-.091.4-.275.555-.173.154-.415.28-.727.38-.302.098-.66.178-1.076.239l-1.648.242a4.475 4.475 0 01-1.643-.047c-.508-.119-.917-.332-1.226-.64-.297-.31-.439-.702-.424-1.176.021-.293.115-.607.282-.942.176-.348.451-.689.826-1.023.385-.335.906-.637 1.563-.905a8.36 8.36 0 011.196-.417c.326-.08.654-.145.985-.193.416-.061.75-.051 1.002.03.252.08.436.214.552.4.126.186.183.413.169.683-.01.227-.038.505-.086.833-.05.318-.098.647-.144.986-.038.328-.07.622-.095.883-.015.26-.022.539-.02.839a11.712 11.712 0 00.107 1.56c.035.231.078.477.129.737.06.249.085.422.078.52a.617.617 0 01-.15.407.607.607 0 01-.392.219zm-5.634.813a.564.564 0 01-.476-.123.583.583 0 01-.166-.442.762.762 0 01.188-.382c.109-.144.301-.312.577-.503a8.45 8.45 0 001.372-1.199 19.63 19.63 0 001.332-1.563l1.094.418c-.303.442-.64.883-1.009 1.323-.36.428-.725.825-1.095 1.19-.359.364-.695.66-1.01.888-.314.229-.583.36-.807.393z" fill="#7831B2"/></svg>