<svg width="157" height="142" fill="none" xmlns="http://www.w3.org/2000/svg"><path d="M34.703 35.734a.646.646 0 01-.563-.036c-.166-.112-.327-.288-.483-.53a17.378 17.378 0 01-.455-.97 49.512 49.512 0 01-.644-1.54c-.24-.6-.49-1.244-.75-1.93-.254-.7-.506-1.41-.757-2.134a68.53 68.53 0 01-.669-2.132l.487-.126c-.018.076-.059.28-.122.613-.052.328-.127.74-.223 1.234-.1.483-.204 1.015-.315 1.595l-.337 1.774a110.32 110.32 0 01-.338 1.724 64.064 64.064 0 01-.295 1.415c-.08.408-.146.719-.195.931-.095.402-.207.724-.337.966-.13.243-.322.41-.575.502a.598.598 0 01-.559-.073c-.18-.118-.363-.355-.55-.712a19.337 19.337 0 01-.692-1.435c-.26-.594-.53-1.242-.807-1.944a82.507 82.507 0 01-.818-2.164c-.258-.744-.496-1.449-.715-2.115l.393-.005c-.14.338-.28.727-.419 1.167a25.347 25.347 0 00-.66 2.873c-.086.49-.157.941-.215 1.352-.072.75-.111 1.464-.117 2.143 0 .665.016 1.245.046 1.739.036.48.066.83.089 1.052.014.166.005.33-.028.492a.99.99 0 01-.178.409.736.736 0 01-.342.244c-.182.066-.362.028-.54-.114-.166-.145-.275-.381-.324-.708-.04-.237-.08-.613-.117-1.128a21.846 21.846 0 01.117-4.087c.07-.599.165-1.207.285-1.824a25 25 0 01.438-1.778c.159-.573.328-1.088.506-1.543a6.04 6.04 0 01.538-1.125c.18-.295.35-.472.512-.53.223-.081.426-.075.61.02.192.09.361.24.507.452.145.21.262.455.351.732.18.531.387 1.116.618 1.755l.73 1.92c.256.642.514 1.26.775 1.853.257.584.495 1.1.715 1.548l-.466-.055a46.79 46.79 0 00.389-1.914c.13-.713.261-1.443.392-2.19.13-.748.256-1.459.378-2.134.128-.69.239-1.286.331-1.79.102-.508.178-.868.227-1.081a3.35 3.35 0 01.217-.681c.08-.19.175-.34.285-.448a1.02 1.02 0 01.377-.24.728.728 0 01.516.001c.168.054.324.17.469.346.154.174.288.4.4.68.062.139.147.372.254.7a461.159 461.159 0 00.87 2.592l.546 1.506c.352.94.649 1.68.892 2.224.242.543.435.949.578 1.218.14.259.22.448.24.567.014.133.004.262-.03.39a.66.66 0 01-.166.3.654.654 0 01-.276.187zm4.745-1.673c-.476.173-.907.198-1.296.075a1.861 1.861 0 01-.97-.732c-.261-.375-.44-.855-.538-1.439-.114-.727-.223-1.422-.325-2.084-.107-.673-.2-1.247-.28-1.723-.071-.48-.117-.795-.138-.948a1.009 1.009 0 010-.38.9.9 0 01.17-.336.65.65 0 01.286-.207c.233-.085.447-.031.643.162.206.189.339.445.398.767.042.306.08.677.111 1.113.042.432.097.837.165 1.214l.055.53c.029.208.055.422.078.643.03.208.054.388.075.54.084.579.236 1 .458 1.263.221.264.504.333.848.208.193-.07.387-.198.583-.384.206-.19.391-.406.555-.649.16-.253.282-.504.364-.752.082-.247.092-.458.03-.63-.086-.267-.234-.454-.445-.562-.2-.11-.456-.167-.766-.169a3.566 3.566 0 00-.663.018c-.265.027-.544.065-.835.114a6.125 6.125 0 00-.834.165l-.1-1.082c.342-.193.721-.428 1.136-.706.425-.28.858-.587 1.3-.92.44-.332.86-.662 1.256-.99.45-.37.837-.723 1.163-1.059.335-.34.62-.627.856-.862.242-.248.454-.406.636-.472.314-.114.59-.094.83.06.245.14.395.395.449.766.047.35.091.695.134 1.035.05.327.098.665.145 1.015a50.755 50.755 0 00.387 2.114c.082.383.168.73.258 1.042.073.203.149.428.227.675.085.233.137.41.157.528a.736.736 0 01-.027.354.59.59 0 01-.176.27.654.654 0 01-.276.187c-.213.077-.412.035-.596-.127a2.033 2.033 0 01-.443-.7 13.59 13.59 0 01-.46-1.554 23.173 23.173 0 01-.325-1.655 20.15 20.15 0 00-.118-.8c-.038-.296-.075-.587-.11-.873a26.299 26.299 0 00-.101-.755 40.068 40.068 0 00-.059-.494l.42.209c-.186.216-.436.473-.752.772-.31.284-.667.592-1.074.924-.41.321-.842.65-1.293.986-.45.336-.91.664-1.379.983-.462.306-.913.579-1.353.819l-.046-.603c.077-.04.195-.094.353-.163a5.42 5.42 0 01.581-.245c.122-.045.296-.085.523-.122.238-.04.49-.057.755-.05.276.003.55.047.821.131.278.072.52.202.726.39.216.186.376.438.48.756.123.403.124.832.003 1.29a4.27 4.27 0 01-.574 1.31c-.271.42-.589.793-.951 1.12a3.591 3.591 0 01-1.112.68zm13.868-5.04a.45.45 0 01-.383-.016.673.673 0 01-.258-.284 1.067 1.067 0 01-.15-.462c-.026-.198-.018-.476.024-.835.048-.373.124-.797.227-1.27.1-.484.21-.971.33-1.463.132-.518.272-1.034.419-1.546.153-.526.307-1.001.463-1.425.152-.434.284-.78.397-1.039.18-.387.373-.692.579-.916.211-.238.449-.404.712-.5.243-.088.441-.063.595.076.15.13.296.312.438.547.146.245.304.538.473.878.169.34.347.688.533 1.045.183.347.372.68.568.999.236.396.444.733.625 1.012.19.275.36.506.508.693.159.183.3.338.427.464.118.107.216.203.293.29a.726.726 0 01.161.302.938.938 0 01.017.425.755.755 0 01-.174.373.631.631 0 01-.311.233c-.192.07-.398.041-.615-.086a3.094 3.094 0 01-.661-.638 12.612 12.612 0 01-.684-.939c-.135-.215-.313-.5-.533-.856a44.37 44.37 0 01-1.342-2.472 19.813 19.813 0 01-.462-1.037l.347.011a11.17 11.17 0 00-.562 1.34c-.18.514-.36 1.078-.538 1.694a38.405 38.405 0 00-.467 1.89c-.133.645-.24 1.281-.322 1.907-.08.477-.164.846-.252 1.107-.079.259-.22.424-.422.498zm15.863-5.765c-.658.239-1.244.314-1.757.225a2.743 2.743 0 01-1.289-.616 3.555 3.555 0 01-.852-1.119 4.571 4.571 0 01-.398-1.335 4.627 4.627 0 01-.015-1.371c.059-.47.17-.923.332-1.36a6.56 6.56 0 01.612-1.204c.242-.375.506-.689.793-.942.292-.267.59-.456.894-.566a.523.523 0 01.337-.02.761.761 0 01.28.157.585.585 0 01.177.297c.014.041-.051.145-.197.313-.145.167-.317.373-.515.617a8.842 8.842 0 00-.573.742 2.49 2.49 0 00-.38.706c-.188.493-.333.947-.434 1.363a6.965 6.965 0 01-.336 1.017c-.113.259-.28.429-.503.51-.415.15-.735.278-.96.383a2.368 2.368 0 00-.534.332c-.13.116-.26.278-.39.486a2.81 2.81 0 00-.377.86c-.083.34-.144.677-.182 1.012a20.93 20.93 0 00-.067.765c-.035.38-.092.664-.172.854-.084.18-.192.293-.323.341a.533.533 0 01-.544-.078c-.16-.125-.264-.35-.314-.677-.031-.15-.044-.391-.04-.726.005-.334.008-.708.007-1.12a30.37 30.37 0 00-.006-1.204 6.172 6.172 0 00-.066-.94 7.407 7.407 0 00-.275-1.139 18.188 18.188 0 00-.317-.969 4.188 4.188 0 01-.202-.7.816.816 0 01.064-.489.668.668 0 01.38-.327c.232-.085.429-.064.589.061.156.116.292.301.408.558a9.15 9.15 0 01.47 1.395c.083.29.15.588.203.89.034.252.057.553.07.904a16.455 16.455 0 010 2.134c-.009.325-.02.593-.035.805l-.013.297-1.087.034a5.868 5.868 0 01.032-.718 7.76 7.76 0 01.136-.858 6.03 6.03 0 01.262-.887 4.04 4.04 0 01.413-.805 3.36 3.36 0 01.688-.852 3.77 3.77 0 01.865-.555c.33-.166.717-.33 1.162-.491.07-.026.153-.13.247-.314.104-.187.21-.403.315-.648.113-.259.224-.506.333-.74a5.7 5.7 0 01.287-.587l1.238-.518a7.04 7.04 0 00-.478.483c-.179.203-.353.45-.522.74a3.5 3.5 0 00-.357 1.008c-.079.384-.08.821-.007 1.31.066.528.22.97.465 1.33.244.358.552.607.924.748.378.126.785.11 1.22-.048a2.537 2.537 0 001.014-.661c.279-.308.486-.653.622-1.035.133-.393.197-.8.193-1.224a3.69 3.69 0 00-.186-1.223 3.303 3.303 0 00-.442-.889c-.187-.265-.456-.437-.806-.516-.35-.08-.833-.007-1.45.217-.253.092-.478.105-.674.039-.189-.08-.293-.21-.311-.386-.03-.116-.001-.24.087-.376s.215-.262.378-.379a2.46 2.46 0 01.565-.291c.547-.199 1.032-.283 1.455-.253.433.026.813.14 1.138.343.336.2.617.47.844.812.227.342.404.72.53 1.133.189.55.275 1.122.26 1.712a4.8 4.8 0 01-.338 1.724 4.467 4.467 0 01-.957 1.484c-.414.437-.95.776-1.608 1.015zm8.86-3.238c-.669.243-1.267.3-1.795.17a2.69 2.69 0 01-1.346-.87c-.37-.45-.676-1.01-.918-1.68a12.233 12.233 0 01-.566-2.273 8.774 8.774 0 01-.106-2.095c.047-.66.153-1.255.316-1.785.17-.543.382-1.016.637-1.419a4.34 4.34 0 01.843-.994 7.86 7.86 0 011.294-.884c.46-.248.868-.482 1.224-.703a9.157 9.157 0 001.028-.718c.274-.226.491-.368.653-.427a.676.676 0 01.368-.03.58.58 0 01.499.524c.032.184-.021.37-.16.557a2.69 2.69 0 01-.584.522c-.491.351-.954.64-1.387.866a57.78 57.78 0 00-1.175.6c-.36.176-.69.405-.988.686-.297.257-.55.618-.759 1.084a5.66 5.66 0 00-.423 1.583 6.773 6.773 0 00.05 1.892c.18 1.162.403 2.08.67 2.751.273.658.603 1.095.99 1.31.397.211.849.225 1.355.04.344-.124.662-.337.954-.638.288-.312.53-.67.728-1.074.207-.408.355-.823.442-1.245a3.14 3.14 0 00.05-1.189c-.05-.394-.167-.702-.35-.922a1.038 1.038 0 00-.701-.417c-.294-.053-.644-.007-1.049.14-.537.196-1.084.567-1.642 1.114-.547.543-1.043 1.245-1.487 2.107l-.696-.402a6.23 6.23 0 01.9-1.927 6.025 6.025 0 011.343-1.418 5.6 5.6 0 011.51-.858c.617-.225 1.176-.296 1.675-.213.496.072.907.29 1.233.653.327.363.533.885.62 1.565.079.568.059 1.16-.061 1.777a6.788 6.788 0 01-.598 1.767 6.173 6.173 0 01-1.084 1.512 4.11 4.11 0 01-1.508.961zm7.566-2.75c-.344.125-.647.144-.908.055a1.51 1.51 0 01-.657-.484 2.95 2.95 0 01-.456-.833 6.082 6.082 0 01-.235-.981 24.1 24.1 0 01-.1-1.032 57.361 57.361 0 01-.07-2.521c.006-.392.015-.7.026-.922.003-.402.02-.719.052-.948.042-.233.138-.377.29-.432a.599.599 0 01.414.004.83.83 0 01.37.262c.112.12.184.271.216.454.029.174.042.433.041.777-.001.345-.004.73-.01 1.157-.006.427-.005.857.003 1.29.004.423.031.798.08 1.124.039.296.094.574.166.835.067.25.151.45.25.597.096.137.21.182.341.134.324-.117.63-.555.916-1.313.297-.762.57-1.762.82-3 .122-.55.22-1.056.293-1.518.073-.463.139-.866.198-1.208.055-.353.13-.638.223-.856.093-.217.215-.354.367-.409.233-.084.433-.054.6.092.174.132.309.347.406.644.095.264.202.592.322.985.13.389.262.788.4 1.197.132.4.266.77.401 1.11.244.577.474 1.039.69 1.384.224.332.412.597.563.794.152.197.248.369.29.515.03.115.033.234.01.358a.868.868 0 01-.146.31.57.57 0 01-.27.202c-.355.129-.693-.012-1.013-.423-.321-.412-.663-.993-1.027-1.744-.153-.358-.314-.74-.485-1.15-.16-.411-.311-.827-.452-1.246-.13-.423-.25-.816-.358-1.178l.496-.008c-.044.417-.105.881-.184 1.392-.078.51-.2 1.168-.367 1.975a16.47 16.47 0 01-.556 1.975 7.407 7.407 0 01-.825 1.659c-.315.459-.69.767-1.125.925zm8.828-3.208c-.243.088-.476.012-.7-.228-.225-.24-.384-.663-.479-1.272l-.103-.806c-.042-.34-.075-.73-.097-1.169-.015-.453-.005-.933.029-1.439.065-.896.153-1.616.265-2.162.108-.555.257-.982.447-1.28.19-.3.42-.498.694-.597a.577.577 0 01.58.082c.184.128.345.304.484.53.139.224.267.453.386.685.158.31.339.652.543 1.025.214.37.435.742.663 1.119.238.372.479.72.722 1.045.254.32.502.58.746.779l-.502.32a38.51 38.51 0 01.313-2.076c.125-.7.258-1.373.401-2.022a37.48 37.48 0 01.43-1.756c.166-.554.327-.963.483-1.226.167-.267.342-.434.524-.5a.793.793 0 01.397-.041c.13.01.248.036.355.077.152.071.287.177.407.317.119.14.218.38.295.72.173.762.351 1.443.534 2.042.189.586.36 1.074.513 1.466.264.696.517 1.235.758 1.618.252.379.385.635.399.767a.49.49 0 01-.097.397.67.67 0 01-.361.286c-.243.088-.487.045-.734-.13-.236-.177-.446-.457-.63-.837-.173-.35-.37-.8-.592-1.351a25.574 25.574 0 01-.632-1.887 30.016 30.016 0 01-.54-2.248l.402-.267a105.862 105.862 0 00-.784 3.245 84.963 84.963 0 00-.357 1.765c-.1.576-.18 1.115-.238 1.618a1.558 1.558 0 01-.23.6.837.837 0 01-.44.35 1.112 1.112 0 01-.668.053 1.698 1.698 0 01-.571-.343 5.95 5.95 0 01-.527-.6 20.342 20.342 0 01-.914-1.337 22.53 22.53 0 01-1.115-1.988 9.856 9.856 0 01-.43-.997l.412-.287a18.145 18.145 0 00-.383 1.791c-.08.569-.12 1.14-.118 1.713.008.56.056 1.15.143 1.772.063.425.127.792.193 1.1.076.306.127.54.151.703.022.187.005.36-.052.518-.058.159-.182.273-.375.343zM30.141 52.69c-.668.243-1.225.348-1.672.316-.448-.033-.814-.175-1.1-.427a2.65 2.65 0 01-.655-1.001 7.172 7.172 0 01-.344-1.424 15.295 15.295 0 01-.157-1.716 25.036 25.036 0 01.026-1.92c.027-.4.068-.713.123-.94.056-.226.16-.367.311-.422a.69.69 0 01.599.04c.183.094.29.28.321.555.025.163.027.438.006.824-.01.382-.01.858.002 1.428.012.569.072 1.224.18 1.965.07.48.187.85.35 1.112a.989.989 0 00.697.452c.301.04.68-.023 1.135-.188a61.88 61.88 0 001.118-.424c.458-.19.952-.392 1.481-.607.53-.215 1.048-.427 1.557-.635.516-.221.965-.42 1.349-.593.39-.188.67-.33.842-.427.124-.068.226-.15.305-.248.076-.108.104-.25.086-.427a10.291 10.291 0 00-.395-1.802 11.65 11.65 0 00-.571-1.53 13.87 13.87 0 00-.546-1.127c-.158-.31-.256-.533-.294-.668a.554.554 0 01.07-.473.67.67 0 01.349-.316c.233-.085.438-.056.615.086.184.128.36.311.526.55.12.173.259.444.415.812.162.354.326.76.492 1.215.175.453.325.915.45 1.386.131.457.227.881.289 1.272.091.632.047 1.142-.134 1.528-.174.373-.528.709-1.062 1.006-.191.104-.494.248-.908.433-.418.175-.896.372-1.436.591-.535.23-1.085.452-1.648.668-.56.226-1.085.434-1.578.625-.482.187-.88.337-1.194.451zm2.5-1.355a.601.601 0 01-.38 0 .58.58 0 01-.329-.294 5.299 5.299 0 01-.347-.958c-.102-.41-.199-.834-.289-1.272a33.327 33.327 0 01-.206-1.233 15.195 15.195 0 01-.174-1.761c-.017-.522-.013-.89.012-1.106a.988.988 0 01.106-.418.524.524 0 01.315-.269.515.515 0 01.378 0 .73.73 0 01.314.248c.088.117.148.267.18.45.024.13.036.32.035.573.007.239.018.522.033.849.026.323.067.675.125 1.056.042.306.104.65.185 1.034.092.38.19.763.296 1.149.102.376.203.718.303 1.026.037.101.023.22-.041.36a1.664 1.664 0 01-.231.358.71.71 0 01-.286.208zm9.625-3.017c-.344.125-.646.143-.908.054a1.51 1.51 0 01-.656-.484 2.948 2.948 0 01-.456-.832 6.067 6.067 0 01-.236-.982c-.035-.286-.067-.63-.098-1.031-.021-.406-.038-.83-.05-1.273-.01-.444-.019-.86-.022-1.248.007-.393.016-.7.027-.922.003-.403.02-.72.052-.949.041-.233.138-.377.29-.432a.598.598 0 01.414.004.838.838 0 01.37.262c.112.12.184.271.216.455.028.173.042.432.04.777 0 .344-.004.73-.01 1.157-.006.426-.005.856.003 1.29.005.422.032.797.081 1.123.038.296.094.574.165.835.068.25.152.45.25.597.096.138.21.183.342.135.324-.118.629-.556.916-1.314.296-.762.57-1.762.82-3 .122-.55.22-1.055.292-1.518.073-.463.14-.865.198-1.208a3.66 3.66 0 01.223-.855c.093-.218.216-.354.367-.41.233-.084.433-.053.6.092.174.132.31.347.406.645.096.263.203.592.322.984l.4 1.197c.133.4.267.77.402 1.11.243.578.473 1.04.69 1.385.224.332.411.596.563.794.151.197.248.368.29.514.03.115.033.234.009.358a.868.868 0 01-.146.311.57.57 0 01-.27.202c-.233.084-.464.048-.693-.11-.219-.161-.438-.42-.659-.776a13.43 13.43 0 01-.688-1.282c-.152-.357-.314-.74-.485-1.149-.16-.412-.311-.828-.452-1.247a150.8 150.8 0 01-.357-1.178l.495-.008c-.037.277-.079.574-.125.889-.036.311-.09.67-.16 1.074-.065.39-.153.859-.265 1.404a16.73 16.73 0 01-.556 1.975 7.406 7.406 0 01-.825 1.66c-.315.458-.69.767-1.126.925zm11.515-4.288c-.486.176-.935.265-1.348.266-.412 0-.753-.071-1.022-.214-.27-.143-.426-.339-.47-.587a.793.793 0 01.051-.38.433.433 0 01.27-.252.537.537 0 01.3-.024l.355.078c.137.03.323.038.557.021.231-.026.529-.106.893-.238.567-.206 1.009-.522 1.325-.946.322-.439.42-1.02.296-1.743-.071-.514-.222-.946-.453-1.298a2.452 2.452 0 00-.84-.848 2.339 2.339 0 00-1.138-.344 3.41 3.41 0 00-1.328.224 3.707 3.707 0 00-.686.336 3.387 3.387 0 01-.61.308.653.653 0 01-.331.034.463.463 0 01-.27-.177.661.661 0 01-.126-.299c-.039-.296.068-.57.32-.822.26-.266.707-.515 1.345-.747.678-.246 1.323-.349 1.934-.307a3.63 3.63 0 011.679.509c.495.29.91.707 1.244 1.252.34.53.569 1.175.684 1.937a3.78 3.78 0 01-.034 1.423c-.09.446-.252.855-.484 1.226a3.965 3.965 0 01-.889.96c-.36.269-.769.486-1.224.652zm-2.158 5.19a.595.595 0 01-.352.025.419.419 0 01-.255-.183.92.92 0 01-.144-.395 1.374 1.374 0 01.013-.487c.027-.147.053-.329.078-.545.028-.205.044-.463.046-.774a8.102 8.102 0 00-.103-1.184 12.58 12.58 0 00-.561-2.31c-.258-.743-.525-1.495-.8-2.256a14.64 14.64 0 01-.61-2.394c-.041-.272-.023-.49.054-.657a.685.685 0 01.4-.368.54.54 0 01.454.023.838.838 0 01.382.343c.103.158.168.353.195.584.099.652.232 1.258.4 1.816.175.545.355 1.076.543 1.593.197.514.38 1.033.547 1.557.167.525.294 1.08.38 1.669.09.53.142 1.021.157 1.475a5.95 5.95 0 01-.066 1.194c-.049.34-.137.618-.264.836a.905.905 0 01-.494.438zm10.95-8.266c-.83.302-1.58.368-2.248.198a2.985 2.985 0 01-1.628-1.078c-.42-.559-.7-1.266-.838-2.122a4.513 4.513 0 01.038-1.7 5.36 5.36 0 01.544-1.438 4.28 4.28 0 01.826-1.04c.3-.28.575-.467.829-.56a.743.743 0 01.29-.053c.091.001.17.03.237.086.072.042.119.123.139.242.023.221.01.438-.04.651-.052.203-.206.425-.462.667-.302.305-.54.61-.717.915-.17.29-.28.601-.333.93a3 3 0 00.028 1.074c.136.88.47 1.504 1.005 1.872.53.358 1.16.405 1.89.14.708-.258 1.233-.736 1.576-1.434.35-.712.45-1.523.304-2.434-.12-.84-.392-1.43-.813-1.77-.425-.35-.94-.415-1.548-.194-.314.114-.56.272-.739.475a5.901 5.901 0 00-.522.74 4.887 4.887 0 00-.291.57 2.73 2.73 0 01-.2.4.552.552 0 01-.285.207.45.45 0 01-.384-.015c-.108-.076-.18-.227-.216-.455-.044-.248-.014-.529.09-.842a4.11 4.11 0 01.486-.934c.217-.32.47-.6.76-.844.286-.253.591-.439.915-.556.73-.265 1.384-.308 1.964-.129.577.17 1.054.523 1.433 1.063.375.529.621 1.208.739 2.038.133.812.102 1.58-.093 2.305a4.594 4.594 0 01-1.009 1.864 4.155 4.155 0 01-1.727 1.161zm11.435-4.173c-.304.11-.671.14-1.102.09a5.865 5.865 0 01-1.353-.368 10.67 10.67 0 01-1.32-.656 6.184 6.184 0 01-1.038-.776 1.581 1.581 0 01-.357-.37 2.015 2.015 0 01-.164-.405 3.11 3.11 0 01.023-.317c.013-.12.046-.235.098-.346.063-.206.191-.5.385-.88.195-.38.427-.798.698-1.252.278-.468.574-.914.89-1.339.322-.438.638-.817.946-1.136.319-.322.615-.533.888-.632a.417.417 0 01.285-.018c.09.025.164.073.224.143.06.07.1.147.118.232.071.227.002.493-.209.799-.21.306-.445.604-.707.894a18.89 18.89 0 00-1.186 1.515c-.332.476-.59.886-.775 1.229-.175.339-.25.56-.223.666.01.088.084.199.224.332.14.132.334.274.583.424.26.147.556.286.89.417.344.128.715.234 1.112.319.236.051.466.1.688.145a2 2 0 01.572.154c.158.057.256.154.293.29.03.114.032.229.004.342a.639.639 0 01-.18.307.785.785 0 01-.307.197zm-5.062 1.823c-.263.095-.488.028-.675-.202-.19-.241-.357-.622-.5-1.144a21.887 21.887 0 01-.389-1.976c-.05-.326-.094-.67-.135-1.035l-.09-1.103c-.034-.378-.079-.74-.136-1.087a2.19 2.19 0 00-.042-.26 2.758 2.758 0 00-.054-.29 1.935 1.935 0 01-.015-.562c.023-.158.068-.289.133-.393a.518.518 0 01.26-.232c.232-.085.453-.044.662.12.215.152.35.43.405.835.041.271.074.615.099 1.03.03.403.06.816.089 1.242.028.426.065.797.11 1.113.1.56.2 1.057.3 1.492.11.43.21.784.3 1.061.085.268.13.458.137.57a.744.744 0 01-.021.37.607.607 0 01-.162.264.6.6 0 01-.276.187zm10.857-3.912c-.83.302-1.58.368-2.248.198a2.986 2.986 0 01-1.628-1.078c-.42-.559-.699-1.267-.837-2.123a4.516 4.516 0 01.037-1.7 5.369 5.369 0 01.545-1.437c.247-.423.523-.77.826-1.04.299-.281.575-.468.828-.56a.743.743 0 01.29-.053.36.36 0 01.237.086c.073.042.12.123.14.241.022.222.01.439-.04.651-.052.203-.207.426-.463.668-.301.305-.54.61-.716.915-.17.29-.281.6-.334.93-.056.318-.047.676.029 1.074.135.88.47 1.504 1.004 1.872.53.358 1.16.404 1.89.14.708-.258 1.234-.736 1.576-1.434.35-.712.45-1.524.304-2.434-.12-.84-.391-1.43-.813-1.77-.425-.35-.94-.416-1.548-.195-.314.114-.56.273-.739.475a5.903 5.903 0 00-.522.74 4.872 4.872 0 00-.291.571 2.728 2.728 0 01-.2.4.55.55 0 01-.285.207.45.45 0 01-.384-.015c-.107-.076-.18-.228-.216-.455-.044-.248-.014-.529.09-.842.115-.317.277-.629.487-.934.216-.32.47-.601.76-.844.286-.253.59-.439.915-.557.728-.265 1.383-.308 1.963-.128.577.169 1.055.523 1.434 1.062.374.53.62 1.209.738 2.038.134.812.103 1.58-.093 2.306a4.596 4.596 0 01-1.008 1.864 4.158 4.158 0 01-1.728 1.161zm14.384-5.228c-.83.302-1.58.368-2.249.198a2.984 2.984 0 01-1.627-1.078c-.42-.559-.7-1.266-.838-2.122a4.515 4.515 0 01.037-1.7 5.363 5.363 0 01.545-1.438c.248-.422.523-.77.826-1.04.299-.28.575-.467.828-.56a.742.742 0 01.29-.053.36.36 0 01.237.086c.073.042.12.123.14.242.022.221.01.438-.04.651-.052.203-.206.425-.462.667-.302.305-.541.61-.717.915-.17.29-.28.6-.333.93-.057.319-.047.677.028 1.074.135.88.47 1.504 1.005 1.872.53.358 1.16.405 1.889.14.708-.258 1.234-.736 1.577-1.434.349-.712.45-1.523.304-2.434-.121-.84-.392-1.43-.813-1.77-.425-.35-.941-.415-1.549-.194-.313.114-.56.272-.738.475a5.904 5.904 0 00-.522.74 4.885 4.885 0 00-.292.57 2.755 2.755 0 01-.199.4.552.552 0 01-.286.207.45.45 0 01-.383-.015c-.108-.076-.18-.227-.217-.455-.044-.248-.014-.529.09-.842.115-.317.277-.628.487-.934.216-.32.47-.6.76-.844.286-.253.59-.439.915-.556.729-.265 1.383-.308 1.964-.129.577.17 1.054.523 1.433 1.063.375.529.62 1.208.738 2.037.134.813.103 1.581-.093 2.306a4.6 4.6 0 01-1.008 1.864 4.158 4.158 0 01-1.727 1.161zm3.807-8.371c-.233.085-.441.08-.624-.014a.567.567 0 01-.298-.443.626.626 0 01.078-.355c.061-.114.198-.244.408-.39.328-.233.781-.501 1.359-.803a17.847 17.847 0 012.112-.905c.425-.155.819-.286 1.18-.395.368-.122.781-.232 1.238-.33.359-.084.652-.099.878-.043.236.052.367.16.392.322a.735.735 0 01-.027.354.676.676 0 01-.201.297 1.101 1.101 0 01-.398.23c-.213.078-.464.158-.755.24-.291.083-.602.174-.933.271a10.63 10.63 0 00-.988.308c-.699.253-1.25.488-1.653.703a9.271 9.271 0 00-.997.57 4.102 4.102 0 01-.771.383zm4.438 5.374a.583.583 0 01-.6-.091 2.164 2.164 0 01-.466-.622 6.53 6.53 0 01-.314-.867c-.105-.387-.202-.81-.289-1.272-.091-.472-.171-.93-.24-1.376-.091-.598-.173-1.125-.246-1.58a42.176 42.176 0 00-.179-1.157l1.333-.588.086.71c.041.271.09.58.147.927.053.336.104.685.155 1.045.057.346.11.683.159 1.01.083.543.171.993.266 1.348.101.342.195.618.282.827.087.21.162.383.223.521.058.129.097.252.117.371a.85.85 0 01-.011.348.6.6 0 01-.162.266.613.613 0 01-.261.18zm4.936-1.81c-.243.088-.477.012-.701-.228-.225-.24-.384-.663-.478-1.272a22.83 22.83 0 01-.164-1.352 11.661 11.661 0 01-.008-2.062c.065-.896.154-1.616.265-2.162.108-.555.257-.982.447-1.28.19-.3.421-.498.695-.598a.576.576 0 01.579.082c.184.129.345.305.484.53.139.225.267.454.386.686.158.31.339.651.543 1.025.214.37.435.742.663 1.118.238.373.479.721.723 1.046.254.32.502.58.746.779l-.503.32c.084-.684.189-1.377.314-2.076.124-.7.258-1.373.401-2.022.143-.648.286-1.234.429-1.756.166-.554.327-.963.484-1.226.166-.267.341-.434.523-.5a.795.795 0 01.397-.041c.131.01.249.036.355.077a1.2 1.2 0 01.407.317c.119.14.218.38.295.719.174.763.351 1.444.534 2.043.189.586.36 1.074.514 1.466.263.696.516 1.235.758 1.618.251.379.385.634.398.767a.49.49 0 01-.097.397.667.667 0 01-.361.286c-.243.088-.487.045-.733-.13-.237-.177-.447-.457-.631-.837-.172-.35-.369-.801-.592-1.351a26.049 26.049 0 01-.633-1.887 30.528 30.528 0 01-.539-2.248l.402-.267c-.114.443-.24.948-.379 1.515-.132.553-.267 1.13-.404 1.73a88.303 88.303 0 00-.358 1.765c-.1.576-.18 1.115-.238 1.618a1.557 1.557 0 01-.229.6.843.843 0 01-.441.35 1.113 1.113 0 01-.668.053 1.699 1.699 0 01-.571-.343 6.004 6.004 0 01-.527-.6l-.382-.533a21.593 21.593 0 01-1.103-1.767 20.605 20.605 0 01-.543-1.025 9.633 9.633 0 01-.431-.997l.412-.287a18.03 18.03 0 00-.382 1.791 11.99 11.99 0 00-.119 1.713c.008.56.056 1.15.144 1.772.062.425.126.792.192 1.1.077.305.127.54.152.703.022.187.004.36-.053.518-.057.158-.182.273-.374.342zm14.392-5.249c-.84.306-1.548.391-2.124.256a2.291 2.291 0 01-1.368-.931c-.337-.486-.56-1.088-.671-1.805a6.025 6.025 0 01.037-1.7c.099-.61.282-1.198.547-1.764a5.486 5.486 0 011.053-1.502c.435-.445.94-.772 1.517-.982.537-.195 1.009-.269 1.415-.222.417.044.752.21 1.004.496.263.283.436.696.519 1.24a2.74 2.74 0 01-.232 1.685c-.259.519-.645.986-1.159 1.402a5.97 5.97 0 01-1.757.983c-.689.25-1.179.337-1.471.26-.281-.082-.438-.232-.471-.449-.024-.13-.009-.232.043-.308.048-.087.15-.158.301-.213.112-.04.25-.068.417-.083.173-.028.416-.1.73-.213.506-.184.936-.42 1.289-.71.364-.293.633-.609.809-.948a1.8 1.8 0 00.186-1.049c-.049-.326-.172-.54-.369-.64-.187-.104-.477-.085-.872.059a2.673 2.673 0 00-1.04.688c-.291.3-.539.66-.743 1.079a4.734 4.734 0 00-.394 1.33c-.069.473-.066.942.011 1.408.062.39.177.727.349 1.009.167.272.407.46.72.564.319.09.711.052 1.177-.118.526-.191.953-.42 1.28-.689.333-.281.598-.561.795-.84.197-.278.363-.516.498-.714.134-.198.272-.322.414-.374.172-.063.317-.04.435.065.126.092.205.247.238.465.033.217-.027.48-.179.788a4.149 4.149 0 01-.66.928 6.026 6.026 0 01-1.014.902 5.496 5.496 0 01-1.26.647zm6.373-5.07c-.384.14-.735.17-1.05.09a1.62 1.62 0 01-.821-.511 2.683 2.683 0 01-.505-.97 5.055 5.055 0 01-.243-1.237 6.296 6.296 0 01.029-1.25c.061-.4.159-.746.295-1.036.135-.29.309-.474.521-.551a.545.545 0 01.28-.033c.096.011.179.05.249.116a.496.496 0 01.145.257c.023.095.023.256.002.481-.014.212-.037.467-.067.765a5.97 5.97 0 00-.032.907c.008.306.059.604.151.891.066.183.139.334.217.455.074.11.163.182.266.213a.65.65 0 00.382-.036c.324-.117.629-.32.914-.607a4.35 4.35 0 00.745-1.028c.22-.402.397-.816.529-1.242.128-.437.2-.853.217-1.25l.689 1.523a9.605 9.605 0 01-.673 1.793 5.262 5.262 0 01-.98 1.423 3.307 3.307 0 01-1.26.837zm4.132 1.304c-.223.08-.411.052-.564-.088a2.399 2.399 0 01-.434-.582 5.86 5.86 0 01-.28-.724 14.234 14.234 0 01-.422-2.067c-.034-.252-.063-.54-.089-.863-.03-.333-.054-.669-.073-1.006a24.136 24.136 0 01-.035-.951 33.03 33.03 0 00-.025-.731c-.015-.362.004-.656.06-.882.065-.23.189-.379.371-.445.172-.063.358-.01.556.16.199.168.321.428.368.778.04.237.065.573.072 1.006.005.423.014.861.03 1.315a14.21 14.21 0 00.34 2.458c.088.37.182.69.281.965.064.206.124.373.182.502.057.128.095.246.111.355a.795.795 0 01-.074.457c-.058.159-.183.273-.375.343zm4.662-1.746c-.466.17-.886.196-1.26.08-.364-.12-.674-.358-.929-.713-.244-.359-.409-.815-.495-1.37a5.943 5.943 0 01-.028-1.641 7.953 7.953 0 01.419-1.736 7.76 7.76 0 01.776-1.607c.32-.507.688-.945 1.104-1.314a4.35 4.35 0 011.384-.83c.232-.084.437-.09.612-.016.176.074.283.242.32.504a.614.614 0 01-.051.38c-.061.114-.175.212-.34.295a5.02 5.02 0 00-1.698 1.478 6.18 6.18 0 00-.969 2.022 5.177 5.177 0 00-.139 2.081c.045.316.112.596.2.84.085.233.246.518.483.857l-.957-.84c.267.167.483.26.651.28.177.016.403-.026.677-.126.647-.235 1.155-.89 1.521-1.964.367-1.074.546-2.51.536-4.308.001-.219.044-.4.129-.546a.73.73 0 01.394-.333.622.622 0 01.643.11c.2.146.346.374.437.685.191.654.38 1.24.566 1.756.194.504.423.96.686 1.37a5.79 5.79 0 001.078 1.174.602.602 0 01.202.322.788.788 0 01.032.419.877.877 0 01-.148.398.662.662 0 01-.325.239.69.69 0 01-.398.04.836.836 0 01-.306-.18 7.488 7.488 0 01-.683-.7 6.349 6.349 0 01-.637-.903 8.412 8.412 0 01-.567-1.326 18.591 18.591 0 01-.514-1.896l.541-.214c.05 1.497-.069 2.75-.356 3.761-.276 1.007-.651 1.791-1.124 2.353-.472.562-.961.935-1.467 1.119zm5.566-8.976c-.233.084-.44.08-.624-.015a.568.568 0 01-.22-.797c.062-.115.198-.244.408-.39.328-.234.781-.502 1.36-.803a17.83 17.83 0 012.111-.906 22.04 22.04 0 011.18-.394c.368-.123.781-.232 1.238-.33.359-.084.652-.099.879-.043.235.051.366.159.391.322a.723.723 0 01-.027.354.676.676 0 01-.201.297 1.099 1.099 0 01-.398.23c-.213.078-.464.158-.755.24-.291.083-.602.173-.933.27a11.16 11.16 0 00-.989.308c-.698.254-1.249.489-1.652.704a9.394 9.394 0 00-.996.569 4.113 4.113 0 01-.772.384zm4.438 5.374a.583.583 0 01-.6-.091 2.164 2.164 0 01-.466-.623 6.532 6.532 0 01-.314-.867c-.105-.386-.202-.81-.289-1.272-.091-.471-.171-.93-.24-1.375a161.08 161.08 0 00-.247-1.58c-.066-.47-.126-.855-.178-1.157l1.333-.588.086.709c.041.272.09.581.147.927.053.337.104.685.155 1.046.057.346.11.682.16 1.009.082.544.17.993.265 1.35.101.341.195.617.282.826.087.21.162.383.224.521a1.6 1.6 0 01.117.37.85.85 0 01-.012.349.6.6 0 01-.162.265.615.615 0 01-.261.181zm6.928-2.552c-.497.18-.926.245-1.287.193a1.815 1.815 0 01-.932-.436 2.7 2.7 0 01-.62-.86 4.379 4.379 0 01-.31-1.091 10.41 10.41 0 01-.111-1.492c-.008-.56-.04-1.041-.094-1.446a10.706 10.706 0 00-.223-1.09 4.241 4.241 0 01-.14-.671.877.877 0 01.001-.328.826.826 0 01.142-.275.713.713 0 01.306-.197c.283-.103.521-.046.714.17.2.203.331.5.392.89.043.249.077.546.1.894.019.337.037.686.053 1.048.017.36.037.703.063 1.027.026.323.055.594.088.811.064.401.155.747.272 1.037.113.28.275.474.486.58.217.094.502.076.857-.053.293-.106.578-.284.854-.534a3.99 3.99 0 00.718-.863c.203-.326.346-.66.429-1a1.79 1.79 0 00-.02-.956c-.048-.132-.16-.206-.339-.221-.17-.03-.423.016-.757.137-.375.137-.745.3-1.111.49a16.114 16.114 0 00-1.846 1.119.482.482 0 01-.274.048.467.467 0 01-.228-.107.412.412 0 01-.104-.237.812.812 0 01.004-.415.782.782 0 01.283-.36 6.86 6.86 0 01.661-.5 11.954 11.954 0 011.756-1.033c.299-.155.585-.282.859-.381.496-.18.899-.253 1.211-.216.32.032.574.146.76.343.185.196.323.45.412.762.138.443.153.925.043 1.447a5.132 5.132 0 01-.607 1.546 5.577 5.577 0 01-1.074 1.354 4.104 4.104 0 01-1.387.866zM38.111 65.111c-.242.088-.457.017-.644-.214-.186-.23-.353-.548-.5-.954a8.17 8.17 0 01-.293-1.046c-.09-.404-.173-.81-.252-1.217l-.224-1.14c-.06-.357-.116-.653-.167-.887a8.734 8.734 0 00-.188-.757 6.838 6.838 0 00-.201-.65l.432.29-1.094.398a19.07 19.07 0 00-1.152.47 29.77 29.77 0 00-1.288.572c-.42.199-.765.387-1.033.564l.41-1.096a9.53 9.53 0 01.517 1.758c.128.607.246 1.264.353 1.971a88 88 0 00.161 1.06c.061.391.112.769.152 1.133.04.364.062.66.065.888a1.112 1.112 0 01-.125.51.708.708 0 01-.385.313c-.203.073-.384.03-.545-.13-.161-.159-.266-.402-.316-.728-.04-.238-.076-.512-.108-.821a22.35 22.35 0 00-.133-.984l-.142-.913a10.934 10.934 0 00-.261-1.385 29.32 29.32 0 00-.267-1.022 10.668 10.668 0 01-.176-.865c-.02-.245.008-.45.086-.617.087-.17.238-.322.453-.457a9.54 9.54 0 011.144-.588c.451-.21.918-.408 1.4-.595.492-.19.961-.366 1.407-.528.587-.214 1.054-.252 1.402-.114.348.138.567.523.659 1.155.033.217.085.52.156.907.072.387.148.818.229 1.294.09.471.193.945.308 1.42.11.464.231.89.36 1.28.049.165.11.333.182.502.073.168.121.317.145.446a.757.757 0 01-.526.776zm6.169-2.328c-.486.176-.935.265-1.347.265-.412.001-.753-.07-1.023-.213-.27-.143-.426-.339-.47-.587a.794.794 0 01.051-.38.433.433 0 01.27-.252.537.537 0 01.3-.024l.355.078c.137.03.323.038.558.021.23-.027.528-.106.893-.238.567-.207 1.008-.522 1.324-.946.322-.439.421-1.02.296-1.743-.071-.514-.222-.946-.453-1.299a2.45 2.45 0 00-.84-.847 2.338 2.338 0 00-1.138-.344 3.41 3.41 0 00-1.328.224 3.714 3.714 0 00-.686.336 3.38 3.38 0 01-.61.308.651.651 0 01-.331.034.463.463 0 01-.27-.177.66.66 0 01-.126-.299c-.038-.296.069-.57.32-.822.26-.266.708-.515 1.346-.747.678-.246 1.322-.349 1.933-.307.621.038 1.18.208 1.68.509.494.29.909.708 1.243 1.251.341.53.57 1.176.685 1.938.078.499.066.974-.034 1.423a3.67 3.67 0 01-.484 1.226 3.97 3.97 0 01-.89.96c-.36.269-.769.486-1.224.652zm-2.158 5.19a.597.597 0 01-.352.025.42.42 0 01-.255-.183.921.921 0 01-.143-.395 1.371 1.371 0 01.013-.487c.026-.147.052-.329.077-.545.029-.205.044-.463.046-.774a8.072 8.072 0 00-.102-1.184 11.1 11.1 0 00-.404-1.73 32.626 32.626 0 00-.56-1.69 96.22 96.22 0 01-.572-1.72 12.308 12.308 0 01-.436-1.82 1.83 1.83 0 01-.002-.481.63.63 0 01.14-.326.708.708 0 01.315-.218.54.54 0 01.456.023.844.844 0 01.382.343c.103.158.167.353.194.584.099.652.232 1.258.4 1.817.175.544.356 1.075.543 1.592.197.514.38 1.033.547 1.557.167.525.294 1.08.38 1.669.09.53.142 1.021.157 1.475.016.453-.006.851-.066 1.194-.048.34-.137.618-.264.836a.906.906 0 01-.494.438zm9.177-7.655c-.466.169-.886.195-1.26.079-.365-.12-.674-.358-.929-.712-.244-.36-.41-.816-.496-1.37a5.91 5.91 0 01-.027-1.642 7.93 7.93 0 01.419-1.735 7.744 7.744 0 01.775-1.607c.32-.507.689-.945 1.105-1.314a4.35 4.35 0 011.383-.83c.233-.084.438-.09.613-.016.176.074.282.242.32.503a.615.615 0 01-.051.38c-.062.114-.175.213-.34.296a5.025 5.025 0 00-1.698 1.478 6.163 6.163 0 00-.97 2.021 5.191 5.191 0 00-.139 2.082c.046.316.113.596.201.84.085.232.245.518.483.856l-.957-.84c.266.168.483.261.65.28.178.016.404-.026.677-.125.648-.235 1.155-.89 1.522-1.964.367-1.075.546-2.51.536-4.309 0-.218.044-.4.129-.545a.728.728 0 01.394-.333.62.62 0 01.642.11c.201.145.347.374.437.685.19.654.38 1.239.567 1.756.194.503.423.96.685 1.369.273.406.633.797 1.079 1.174.097.08.165.187.202.323a.793.793 0 01.032.418.885.885 0 01-.148.398.66.66 0 01-.326.24.688.688 0 01-.398.04.834.834 0 01-.306-.18 7.42 7.42 0 01-.682-.7 6.34 6.34 0 01-.637-.904 8.318 8.318 0 01-.567-1.326 18.528 18.528 0 01-.514-1.895l.54-.214c.05 1.496-.068 2.75-.355 3.76-.277 1.008-.651 1.792-1.124 2.354-.472.562-.961.935-1.467 1.119zm10.148-3.723a5.46 5.46 0 01-1.183.292 3.947 3.947 0 01-1.043-.034 1.936 1.936 0 01-.79-.332 1.167 1.167 0 01-.416-.624.715.715 0 01.013-.486c.068-.163.167-.267.299-.315.121-.044.25-.022.385.066.141.075.312.168.513.278.207.097.464.159.77.185.305.016.69-.061 1.155-.23.678-.247 1.15-.556 1.416-.928.273-.386.352-.736.238-1.05-.052-.177-.176-.298-.372-.364-.19-.08-.447-.113-.774-.098-.33.006-.746.06-1.248.161-.403.09-.678.103-.826.042a.498.498 0 01-.265-.35c-.049-.167.012-.315.182-.446.17-.13.469-.32.895-.566.56-.318.981-.643 1.262-.975.291-.335.39-.646.297-.934-.089-.278-.29-.44-.605-.486-.318-.056-.7-.003-1.146.158-.506.184-.902.403-1.188.656-.29.243-.513.468-.667.673-.145.202-.273.323-.384.363a.322.322 0 01-.302-.028.482.482 0 01-.166-.267c-.056-.186-.04-.398.045-.635.096-.242.248-.486.456-.734.218-.251.495-.484.83-.698.341-.227.73-.42 1.165-.578.89-.324 1.607-.4 2.15-.23.553.166.922.536 1.107 1.111.094.322.08.677-.043 1.066-.116.375-.359.75-.727 1.125-.372.365-.891.702-1.557 1.013l-.098-.222c.628-.228 1.163-.348 1.605-.36.45-.025.813.06 1.09.258.284.184.486.472.605.864.152.45.127.918-.075 1.405-.195.472-.523.913-.982 1.32a5.172 5.172 0 01-1.62.934zm5.078-2.775c.021-.352.065-.752.132-1.201.063-.46.135-.939.217-1.439.093-.504.189-.998.288-1.482.106-.497.212-.949.317-1.354.143-.522.295-1.02.457-1.491.161-.472.333-.867.515-1.186.19-.332.38-.534.572-.604.202-.073.41-.051.625.066.225.113.47.346.734.697.184.255.4.583.65.986.248.403.507.848.775 1.336.265.477.516.966.754 1.464.238.499.441.964.609 1.397l-1.292.607a19.698 19.698 0 00-.68-1.543c-.26-.56-.532-1.092-.818-1.596-.286-.504-.55-.935-.795-1.294-.249-.369-.454-.604-.617-.705l.548-.337a18.84 18.84 0 00-.591 1.592 15.937 15.937 0 00-.457 1.87c-.09.48-.171.934-.245 1.362-.074.429-.136.841-.188 1.239-.044.383-.085.776-.122 1.18l-1.388.436zm7.627.515a.6.6 0 01-.548-.042.565.565 0 01-.277-.432c-.024-.13-.024-.336-.001-.62.027-.273.046-.584.057-.933a5.348 5.348 0 00-.068-1.042l.827.577c-.149.031-.379.092-.69.182-.3.086-.679.212-1.134.378-.426.154-.864.32-1.316.495a62.53 62.53 0 00-1.33.501c-.432.168-.85.343-1.254.524-.408.172-.798.342-1.172.512a19.8 19.8 0 00-.998.518l.4-.747a11.69 11.69 0 00.28 1.103c.062.206.116.387.161.543l.116.32c.052.176.04.33-.04.461a.647.647 0 01-.37.307.523.523 0 01-.413-.005.777.777 0 01-.345-.287 1.937 1.937 0 01-.232-.45 6.404 6.404 0 01-.128-.4 3.676 3.676 0 01-.135-.468 2.693 2.693 0 01-.086-.381 1.44 1.44 0 01.028-.493.97.97 0 01.197-.45 1.6 1.6 0 01.475-.397c.239-.132.565-.29.98-.476.42-.199.895-.406 1.424-.62.535-.23 1.09-.454 1.663-.674.57-.23 1.118-.44 1.644-.632l.547-.199c.202-.073.412-.144.628-.21.216-.068.426-.121.63-.16.304-.077.534-.057.69.058.167.111.279.34.335.687.042.272.063.568.065.889.001.32-.025.628-.078.923a2.62 2.62 0 01-.205.763c-.087.204-.196.33-.327.377zm2.888-3.356c-.365.133-.692-.012-.983-.434-.29-.423-.499-1.047-.626-1.872-.074-.582-.084-1.037-.031-1.366.059-.343.171-.602.337-.777.09-.101.234-.194.432-.277.195-.094.404-.182.627-.263a23.712 23.712 0 002.148-.9c.7-.347 1.358-.758 1.975-1.235l.654.95a9.264 9.264 0 01-1.535 1.074c-.571.323-1.163.618-1.776.887-.606.254-1.203.489-1.79.702l-.93.183c-.085-.646-.177-1.324-.273-2.035-.098-.71-.19-1.343-.275-1.896a1.35 1.35 0 01.028-.682c.066-.196.175-.322.327-.377.253-.092.477-.059.672.1.192.148.319.452.382.911.04.238.077.529.11.872.033.344.066.705.1 1.083.044.374.082.733.115 1.077.04.33.075.603.108.82.092.633.192 1.193.3 1.682.115.474.194.836.238 1.084a.678.678 0 01-.07.421.445.445 0 01-.264.268zm5.238-1.904c-.253.092-.489.012-.706-.242-.208-.257-.399-.641-.572-1.152a11.876 11.876 0 01-.405-1.78 47.272 47.272 0 01-.306-2.505 15.856 15.856 0 01-.055-1.53c0-.252.03-.486.088-.703.06-.216.175-.356.347-.418.223-.081.418-.032.587.148.174.166.284.407.33.723.062.39.094.827.096 1.308.013.477.063.98.152 1.51.099.653.213 1.237.343 1.752.135.502.259.922.37 1.26.111.338.176.596.194.773a.757.757 0 01-.463.856zm4.447-1.616c-.344.125-.646.143-.908.055a1.512 1.512 0 01-.656-.485 2.953 2.953 0 01-.457-.832 6.078 6.078 0 01-.235-.982 24.11 24.11 0 01-.099-1.03 64.97 64.97 0 01-.071-2.522c.007-.393.016-.7.027-.922a7.67 7.67 0 01.052-.948c.041-.233.138-.378.29-.433a.598.598 0 01.414.005.83.83 0 01.37.261.87.87 0 01.216.455c.028.173.042.432.04.777 0 .345-.004.73-.01 1.157-.006.427-.005.856.003 1.29.005.423.032.797.081 1.123.038.296.094.575.165.835.068.251.152.45.25.598.096.137.21.182.342.134.324-.118.629-.556.915-1.314.297-.762.57-1.762.82-3 .123-.55.22-1.055.293-1.518.073-.462.14-.865.198-1.208.056-.353.13-.638.223-.855.093-.218.216-.354.367-.41.233-.084.433-.053.6.093.174.131.31.346.406.644.095.264.203.592.322.984l.4 1.198c.133.399.267.769.402 1.11a9.93 9.93 0 00.69 1.384c.224.332.411.596.563.794.151.197.248.369.29.514.03.115.033.235.009.358a.867.867 0 01-.146.311.57.57 0 01-.27.202c-.355.129-.692-.013-1.013-.424-.32-.411-.663-.992-1.027-1.744-.152-.357-.314-.74-.485-1.149-.16-.412-.311-.827-.452-1.247-.13-.423-.25-.816-.358-1.178l.496-.008c-.044.418-.105.882-.183 1.392-.079.51-.201 1.169-.367 1.975a16.74 16.74 0 01-.556 1.975 7.41 7.41 0 01-.825 1.66c-.315.458-.69.767-1.126.925zm14.037-5.102c-.304.11-.671.14-1.101.09a5.866 5.866 0 01-1.354-.368 10.67 10.67 0 01-1.32-.656 6.184 6.184 0 01-1.037-.776 1.581 1.581 0 01-.358-.37 2.006 2.006 0 01-.163-.404c0-.093.008-.199.022-.318.014-.12.046-.235.098-.346.063-.206.191-.5.386-.88.194-.38.427-.798.697-1.252.278-.468.574-.914.89-1.339.322-.438.638-.817.946-1.135.319-.323.615-.534.888-.633a.417.417 0 01.286-.018.447.447 0 01.223.143c.06.07.1.147.119.232.07.227 0 .493-.21.799-.21.306-.445.604-.707.894a19.02 19.02 0 00-1.186 1.515c-.332.477-.59.886-.775 1.229-.175.339-.25.56-.223.666.01.088.084.199.224.332.14.132.334.274.583.424.26.147.556.286.89.417.344.127.715.234 1.112.319.236.052.466.1.689.145.229.032.419.083.571.154.158.058.256.154.294.29.03.114.031.229.003.342a.632.632 0 01-.181.307.778.778 0 01-.306.197zM95.7 44.18c-.263.096-.488.028-.675-.203-.19-.24-.357-.621-.5-1.143a21.851 21.851 0 01-.389-1.976c-.05-.326-.094-.67-.134-1.035l-.09-1.103a15.03 15.03 0 00-.137-1.087 2.149 2.149 0 00-.042-.26 2.743 2.743 0 00-.054-.29 1.938 1.938 0 01-.015-.562c.023-.158.068-.289.133-.393a.518.518 0 01.26-.232c.233-.084.453-.044.662.12.215.152.35.43.405.835.041.271.074.615.099 1.03.03.403.06.816.089 1.242.028.426.065.797.11 1.113.1.56.2 1.058.3 1.492.11.43.21.784.3 1.061.085.268.13.458.137.57a.742.742 0 01-.021.37.607.607 0 01-.162.264.599.599 0 01-.276.187zm8.893-3.215c-.344.125-.647.143-.908.054a1.506 1.506 0 01-.656-.484 2.938 2.938 0 01-.457-.832 6.077 6.077 0 01-.235-.982 23.57 23.57 0 01-.099-1.031 64.901 64.901 0 01-.071-2.521c.007-.393.016-.7.027-.922.003-.403.02-.719.051-.949.042-.233.139-.377.291-.432a.598.598 0 01.414.005.83.83 0 01.369.261.87.87 0 01.217.455c.028.173.042.432.041.777-.002.345-.005.73-.011 1.157-.006.426-.005.856.003 1.29.005.422.031.797.081 1.123.038.296.093.574.165.835.068.251.151.45.251.598.095.137.209.182.341.134.323-.118.629-.556.915-1.314.297-.762.571-1.762.821-3 .122-.55.219-1.055.292-1.518.073-.462.139-.865.198-1.208.056-.353.13-.638.223-.855.093-.218.215-.354.367-.41.233-.084.433-.053.6.092.174.132.309.347.406.645.096.263.203.592.322.984.129.39.263.788.4 1.197.132.4.266.77.402 1.11.243.578.473 1.04.69 1.385.223.332.411.596.563.794.151.197.248.369.289.514.03.115.033.235.01.358a.877.877 0 01-.146.311.568.568 0 01-.271.202c-.354.129-.691-.013-1.012-.424-.32-.411-.663-.992-1.026-1.744-.153-.357-.315-.74-.486-1.149a27.556 27.556 0 01-.452-1.247c-.13-.423-.249-.816-.358-1.178l.496-.008a30.35 30.35 0 01-.183 1.392c-.079.51-.201 1.169-.367 1.975a16.944 16.944 0 01-.556 1.975 7.44 7.44 0 01-.825 1.66c-.315.458-.691.767-1.126.925zM42.404 78.763c-1.133.412-2.078.681-2.835.807-.75.112-1.35.083-1.8-.086a1.969 1.969 0 01-1.04-.879c-.237-.43-.408-.982-.514-1.654-.059-.415-.122-.89-.191-1.428a58.031 58.031 0 01-.187-1.653 368.55 368.55 0 01-.165-1.644c-.052-.52-.093-.982-.124-1.384a11.295 11.295 0 01-.043-.879c-.03-.334-.012-.587.051-.759.07-.186.181-.307.333-.362a.56.56 0 01.47.019.793.793 0 01.347.338c.09.152.145.32.167.508.032.183.064.493.096.929.028.426.066.928.116 1.507.06.575.125 1.199.197 1.873.079.66.171 1.326.278 1.999.12.805.259 1.362.417 1.673.168.305.387.484.658.534.232.043.523.04.873-.007a10.77 10.77 0 001.173-.271 32.1 32.1 0 001.439-.489 48.842 48.842 0 002.604-1.015c.67-.301 1.18-.584 1.531-.85.347-.275.566-.572.657-.892.057-.158.091-.395.104-.709.008-.324-.005-.692-.04-1.104a13.51 13.51 0 00-.14-1.291 25.055 25.055 0 00-.346-1.854 42.813 42.813 0 00-.4-1.627c-.133-.492-.244-.91-.335-1.256-.09-.345-.148-.583-.172-.712a1.38 1.38 0 01.036-.374c.04-.141.104-.268.19-.379a.708.708 0 01.325-.239c.172-.063.343-.033.514.089.176.108.303.285.381.532.063.173.144.459.243.859.095.39.2.839.316 1.348.126.505.24 1.026.343 1.562.109.523.2 1.011.274 1.467.053.37.102.726.145 1.066.043.34.075.666.097.98l.048.843c.01.249.004.469-.018.66a2.35 2.35 0 01-.519 1.273c-.3.373-.706.722-1.219 1.046-.516.314-1.144.622-1.882.924-.724.31-1.542.63-2.453.961zm-.326-.759c-.17-.535-.34-1.173-.505-1.916-.16-.757-.3-1.59-.424-2.497a58.22 58.22 0 01-.17-1.418c-.054-.497-.107-.977-.16-1.44l-.151-1.27a67.67 67.67 0 00-.096-.928 3.253 3.253 0 01-.041-.588 1.12 1.12 0 01.09-.463.46.46 0 01.279-.273.54.54 0 01.455.023c.142.075.265.208.368.4.1.182.17.403.207.665.098.618.187 1.355.268 2.209.08.854.18 1.73.299 2.628.114.853.245 1.643.394 2.37.159.722.317 1.348.474 1.875l-1.287.623zm15.271-4.57c-.303.111-.67.141-1.101.091a5.866 5.866 0 01-1.353-.369 10.265 10.265 0 01-1.32-.656 6.19 6.19 0 01-1.038-.776 1.583 1.583 0 01-.357-.37 2.003 2.003 0 01-.164-.404c0-.092.008-.198.022-.318a1.14 1.14 0 01.098-.346c.063-.206.192-.5.386-.88.195-.38.427-.798.698-1.252.277-.468.574-.914.89-1.338.322-.439.637-.817.946-1.136.318-.322.614-.533.887-.633a.417.417 0 01.286-.017c.09.025.164.072.224.142.06.07.099.148.118.233.07.226.001.492-.209.798-.21.306-.446.604-.707.894-.46.534-.855 1.04-1.187 1.516-.331.476-.59.885-.775 1.228-.175.339-.249.561-.222.666.009.089.083.2.223.332.14.133.334.274.584.425.259.146.556.285.89.416.343.128.714.234 1.111.32.237.05.466.1.689.145.23.031.42.083.571.154.158.057.256.153.294.289.03.115.032.23.004.343a.638.638 0 01-.181.306.782.782 0 01-.307.198zm-5.061 1.823c-.264.096-.488.028-.675-.202-.19-.24-.357-.622-.5-1.144a21.844 21.844 0 01-.39-1.975 26.343 26.343 0 01-.134-1.036l-.09-1.103c-.034-.377-.08-.74-.136-1.086a2.172 2.172 0 00-.043-.26 2.737 2.737 0 00-.053-.29 1.939 1.939 0 01-.015-.563 1.01 1.01 0 01.133-.393.516.516 0 01.26-.231c.232-.085.453-.045.661.12.216.151.35.43.406.834.04.272.074.615.098 1.031.031.402.06.816.09 1.242.027.425.064.796.11 1.112.1.56.2 1.058.3 1.492.11.43.21.784.299 1.062.085.267.13.457.137.57a.741.741 0 01-.02.368.607.607 0 01-.162.266.598.598 0 01-.276.186zm10.857-3.912c-.83.302-1.58.368-2.248.198a2.984 2.984 0 01-1.628-1.078c-.42-.559-.7-1.266-.838-2.122a4.516 4.516 0 01.037-1.7 5.367 5.367 0 01.545-1.438c.248-.422.523-.77.826-1.04.3-.28.575-.467.828-.56a.742.742 0 01.29-.053.36.36 0 01.238.086c.072.042.119.123.139.242.023.221.01.438-.04.651-.052.203-.206.425-.462.667-.302.305-.54.61-.717.915a2.67 2.67 0 00-.333.93 3 3 0 00.028 1.074c.136.88.47 1.504 1.005 1.872.53.358 1.16.405 1.89.14.708-.258 1.233-.736 1.576-1.434.35-.712.45-1.523.304-2.434-.12-.84-.392-1.43-.813-1.77-.425-.35-.941-.415-1.548-.194-.314.114-.56.272-.739.475a5.895 5.895 0 00-.522.74 4.91 4.91 0 00-.292.57 2.725 2.725 0 01-.199.4.55.55 0 01-.285.207.45.45 0 01-.384-.015c-.108-.076-.18-.227-.216-.455-.045-.248-.014-.529.09-.842a4.11 4.11 0 01.486-.934c.217-.32.47-.6.76-.844.286-.253.591-.439.915-.556.729-.265 1.384-.308 1.964-.129.577.17 1.054.523 1.433 1.063.375.529.621 1.208.738 2.038.134.812.103 1.58-.092 2.305a4.597 4.597 0 01-1.009 1.864 4.157 4.157 0 01-1.727 1.162zm5.413-1.967a.45.45 0 01-.384-.015.673.673 0 01-.258-.285 1.067 1.067 0 01-.15-.462c-.026-.197-.018-.475.024-.835a15.2 15.2 0 01.227-1.27c.1-.484.21-.971.33-1.462.132-.519.272-1.034.419-1.547.153-.526.307-1 .463-1.424.152-.434.284-.78.397-1.04.18-.387.373-.692.579-.916.211-.237.449-.404.712-.5.243-.088.441-.062.595.077.15.129.296.311.438.546.146.245.304.538.473.878.17.34.347.689.533 1.046.183.346.373.679.568.998.236.396.444.734.625 1.012.19.275.36.506.508.693.159.184.3.338.427.465.118.106.216.202.293.289a.73.73 0 01.162.303.941.941 0 01.016.424.756.756 0 01-.174.373.632.632 0 01-.31.234c-.193.07-.398.04-.616-.086a3.089 3.089 0 01-.66-.638 12.584 12.584 0 01-.685-.94c-.135-.214-.313-.5-.533-.855a44.77 44.77 0 01-1.343-2.472 19.8 19.8 0 01-.461-1.038l.347.012c-.188.366-.375.813-.562 1.34-.18.513-.36 1.078-.538 1.693a38.406 38.406 0 00-.466 1.89 26.5 26.5 0 00-.323 1.908c-.08.476-.164.845-.252 1.107-.079.258-.22.424-.421.497zm10.79-3.922c-.475.173-.907.198-1.295.075a1.86 1.86 0 01-.97-.732c-.262-.375-.442-.855-.539-1.439-.114-.727-.223-1.422-.325-2.084-.106-.673-.2-1.248-.28-1.723-.071-.48-.117-.795-.138-.948a1.007 1.007 0 010-.38.897.897 0 01.17-.336.65.65 0 01.286-.208c.233-.084.447-.03.643.163.206.189.339.445.398.767.043.306.08.677.111 1.113.042.432.097.837.165 1.214l.055.53c.03.208.055.422.078.643l.076.54c.083.579.236 1 .457 1.263.222.264.505.333.849.208.192-.07.386-.198.582-.384.206-.19.392-.406.555-.65.16-.252.282-.503.364-.75.082-.248.092-.459.03-.631-.086-.267-.234-.455-.445-.562-.2-.11-.455-.167-.765-.169a3.567 3.567 0 00-.664.018c-.265.027-.543.065-.835.114a6.133 6.133 0 00-.834.165l-.1-1.082a17.83 17.83 0 001.136-.706c.426-.28.859-.587 1.3-.92.44-.332.86-.662 1.256-.99.45-.37.838-.723 1.163-1.06.335-.339.62-.626.856-.861.242-.249.454-.406.636-.472.314-.114.59-.094.83.06.245.14.395.395.45.766l.134 1.035c.05.327.097.665.144 1.015a50.13 50.13 0 00.388 2.114c.081.383.167.73.257 1.042.073.203.15.428.227.675.085.233.137.409.157.528a.735.735 0 01-.026.354.59.59 0 01-.177.27.653.653 0 01-.276.187c-.213.077-.412.035-.596-.128a2.032 2.032 0 01-.443-.7 13.576 13.576 0 01-.46-1.553 23.19 23.19 0 01-.324-1.655 20.18 20.18 0 00-.118-.8 94.927 94.927 0 01-.11-.873 26.68 26.68 0 00-.102-.755 37.75 37.75 0 00-.059-.495l.42.21c-.185.216-.436.473-.752.772-.309.284-.667.592-1.074.924-.41.321-.841.65-1.292.986-.451.336-.911.663-1.38.983-.462.306-.913.578-1.352.819l-.047-.603c.077-.04.195-.094.353-.163.165-.083.359-.165.581-.245.122-.045.296-.085.524-.122.237-.04.489-.057.755-.05.275.003.55.047.82.131.278.072.52.202.726.39.216.186.376.438.48.756.123.403.124.832.003 1.29a4.27 4.27 0 01-.573 1.31c-.272.42-.59.793-.952 1.12a3.589 3.589 0 01-1.111.68zm9.13-7.363a.492.492 0 01-.44-.029.814.814 0 01-.308-.422 19.562 19.562 0 01-.434-1.529 29.4 29.4 0 01-.268-1.451 41.07 41.07 0 01-.18-1.45 53.912 53.912 0 01-.076-1.108 10.147 10.147 0 00-.108-1.01 1.022 1.022 0 01.041-.549.584.584 0 01.379-.378.607.607 0 01.6.091c.184.128.312.386.383.773.042.306.069.6.08.883a22.772 22.772 0 00.22 2.364c.062.391.121.714.18.968.057.254.109.476.154.666.046.19.089.37.127.54.049.166.088.352.117.56.036.32 0 .568-.108.744-.098.174-.217.286-.36.337zm.743 3.758c-.375.136-.698.145-.97.026-.277-.13-.445-.39-.507-.78a1.12 1.12 0 01.143-.792c.144-.236.342-.4.595-.492.446-.162.788-.149 1.028.04.24.188.387.45.44.786.026.232-.015.465-.125.7-.1.23-.3.402-.605.512zM16.76 59.588a.896.896 0 011.268-.053.9.9 0 01.053 1.27l-1.321-1.217zm.158-.028a.896.896 0 011.268.024.9.9 0 01-.023 1.27l-1.245-1.294zm14.117 82.338a.898.898 0 01-1.21-.381l-3.737-7.172a.897.897 0 111.591-.832l3.322 6.375 6.364-3.326a.896.896 0 011.21.381.9.9 0 01-.38 1.213l-7.16 3.742zM17.42 60.196l.66.609-.003.004-.015.016-.06.066-.233.26c-.204.231-.503.572-.877 1.012-.75.88-1.801 2.154-3.004 3.722-2.41 3.142-5.416 7.45-7.83 12.14-2.422 4.706-4.205 9.718-4.262 14.286-.055 4.51 1.566 8.596 6.025 11.621l-1.007 1.488C1.794 102.015-.06 97.326.001 92.29c.062-4.977 1.988-10.282 4.461-15.088 2.482-4.821 5.556-9.223 8.002-12.412a96.803 96.803 0 013.062-3.793 71.091 71.091 0 011.146-1.313c.029-.03.05-.055.064-.07l.017-.02.005-.004.001-.002.661.608zm-9.599 43.736c12.124 8.224 18.873 15.613 22.377 21.677 3.501 6.058 3.788 10.845 2.867 13.782l-1.712-.539c.727-2.321.622-6.58-2.708-12.343-3.327-5.756-9.849-12.961-21.83-21.089l1.006-1.488zm9.719-43.724l.623.647-.004.004-.015.014a7.716 7.716 0 01-.061.06l-.242.24c-.212.214-.522.53-.91.94a77.93 77.93 0 00-3.102 3.49c-2.48 2.962-5.554 7.06-7.958 11.635-2.41 4.586-4.107 9.573-3.936 14.334.17 4.709 2.17 9.274 7.32 13.1l-1.068 1.444C2.6 101.967.332 96.896.142 91.637c-.188-5.207 1.662-10.52 4.14-15.236 2.486-4.728 5.645-8.936 8.172-11.954a79.17 79.17 0 013.175-3.57 56.02 56.02 0 011.196-1.226l.068-.066a.782.782 0 01.017-.018l.005-.004.002-.002.623.647zm-8.284 44.464c21.614 16.052 24.037 30.909 22.22 36.699l-1.712-.539c1.482-4.724-.238-18.868-21.577-34.716l1.069-1.444z" fill="#E71985"/></svg>