<svg width="241" height="180" fill="none" xmlns="http://www.w3.org/2000/svg"><path d="M108.695 121.279c-7.99 17.717-17.765 35.356-27.899 45.982-10.502 11.507-21.356 16.129-30.905 6.63-15.502-15.419-28.07-20.229-36.913-20.334 9.018-.324 21.935 4.009 37.667 19.658 8.89 8.842 19.686 4.556 29.194-4.973.32-.32.638-.647.957-.981 10.122-11.092 19.916-28.579 27.899-45.982z" fill="#7831B2"/><path d="M123.008 87.571a1.002 1.002 0 00-1.9-.632l1.9.632zM.226 157.646a.998.998 0 00.94 1.054l8.998.528a1 1 0 001.06-.938 1 1 0 00-.942-1.054l-7.998-.468.47-7.964a1.001 1.001 0 00-2-.117l-.528 8.959zm122.908-69.945a1.001 1.001 0 00-1.899-.632l1.899.632zM.002 157.333a.999.999 0 00.94 1.054l8.999.528a1.001 1.001 0 001.058-.938.999.999 0 00-.94-1.054l-7.999-.469.471-7.964a.998.998 0 00-.941-1.054 1 1 0 00-1.059.937l-.53 8.96zm121.106-70.394c-3.324 9.9-7.915 21.935-13.326 33.932l1.827.817c5.441-12.063 10.055-24.16 13.399-34.117l-1.9-.632zm-13.326 33.932c-7.982 17.698-17.7 35.206-27.712 45.703l1.452 1.373c10.257-10.754 20.088-28.524 28.087-46.259l-1.827-.817zM80.07 166.574a62.07 62.07 0 01-.941.965l1.42 1.406c.325-.326.65-.658.973-.998l-1.452-1.373zm-28.717 5.935c-15.85-15.766-29.022-20.286-38.41-19.949l.072 1.994c8.645-.31 21.309 3.836 36.922 19.366l1.416-1.411zm-38.41-19.949c-5.598.202-9.822 2.132-12.383 4.399l1.33 1.491c2.181-1.93 5.947-3.711 11.124-3.896l-.072-1.994zm66.186 14.979c-4.694 4.704-9.61 8.011-14.346 9.107-4.658 1.079-9.227.045-13.43-4.137l-1.416 1.411c4.687 4.662 9.96 5.905 15.3 4.669 5.26-1.218 10.498-4.819 15.312-9.644l-1.42-1.406zm42.106-80.47c-3.287 9.789-7.935 21.772-13.451 33.796l1.823.829c5.545-12.089 10.219-24.14 13.527-33.993l-1.899-.632zm-13.451 33.796c-7.971 17.379-17.714 34.751-27.73 45.725l1.483 1.341c10.23-11.208 20.076-28.81 28.07-46.237l-1.823-.829zm-27.73 45.725c-5.203 5.702-10.384 9.568-15.33 10.901-4.844 1.306-9.583.214-14.125-4.305l-1.416 1.411c5.007 4.981 10.47 6.327 16.065 4.819 5.494-1.481 10.992-5.68 16.29-11.485l-1.483-1.341zM50.6 173.186c-15.606-15.522-28.41-20.517-37.61-20.626l-.024 1.995c8.486.1 20.819 4.726 36.217 20.042l1.416-1.411zM12.99 152.56c-5.71-.068-10.017 1.752-12.654 4.086l1.33 1.491c2.222-1.966 6.027-3.645 11.3-3.582l.024-1.995zM92.325 32.144c-.272.046-.495-.116-.669-.487-.163-.385-.277-.936-.34-1.654a21.909 21.909 0 01-.049-2.523c.01-.366.033-.837.068-1.414.033-.588.071-1.214.116-1.877.042-.675.08-1.337.116-1.987.032-.66.06-1.248.08-1.762l.397.497c-.294-.01-.736.01-1.325.062-.576.05-1.246.127-2.008.233-.764.093-1.561.21-2.39.352-.308.053-.603.109-.886.17-.282.06-.54.121-.772.185-.235.052-.441.094-.62.124-.177.03-.354.03-.53 0a.943.943 0 01-.433-.182.36.36 0 01-.13-.324c.012-.22.1-.412.268-.574.167-.162.413-.294.736-.398a6.64 6.64 0 011.122-.282 102.769 102.769 0 013.726-.562 44.292 44.292 0 011.597-.18l1.075-.13c.66-.063 1.12-.014 1.379.148.258.15.383.488.375 1.011a57.492 57.492 0 01-.096 1.674 88.367 88.367 0 01-.117 1.768c-.033.588-.066 1.14-.1 1.656-.032.515-.055.95-.068 1.304-.028 1.037-.006 1.913.069 2.63.084.701.118 1.187.104 1.457a1.915 1.915 0 01-.078.505.76.76 0 01-.23.367.656.656 0 01-.387.193zm-7.146 1.199a.637.637 0 01-.516-.131c-.145-.133-.258-.327-.338-.58a2.817 2.817 0 01-.105-.93c.008-.45.028-.939.059-1.466.04-.541.084-1.107.129-1.697.044-.59.074-1.197.09-1.819a90.15 90.15 0 00.034-1.608 30.923 30.923 0 00-.038-1.814 8.435 8.435 0 00-.22-1.602l1.612-.62c.077.448.129.96.155 1.54.038.576.058 1.155.061 1.737.014.58.01 1.121-.014 1.623l-.035 1.281L86 28.759c-.021.514-.046 1.01-.073 1.488l-.042 1.245c-.012.354-.024.605-.035.753-.012.354-.082.621-.21.8a.692.692 0 01-.461.298zm14.841-2.51c-.972.166-1.808.09-2.509-.228a3.327 3.327 0 01-1.574-1.498c-.351-.693-.518-1.52-.5-2.483a4.984 4.984 0 01.377-1.849 5.94 5.94 0 01.882-1.461 4.772 4.772 0 011.113-.973c.384-.247.725-.396 1.02-.447a.835.835 0 01.33-.001c.1.02.182.066.243.14.072.061.107.159.105.292a2.18 2.18 0 01-.171.703c-.098.211-.312.424-.64.638a5.048 5.048 0 00-.969.857c-.244.284-.427.6-.55.949a3.3 3.3 0 00-.181 1.178c-.026.988.219 1.736.733 2.243.512.495 1.194.67 2.047.525.829-.14 1.501-.559 2.016-1.253.525-.709.796-1.575.815-2.598.033-.94-.147-1.638-.543-2.093-.397-.466-.951-.639-1.661-.518-.368.063-.67.187-.906.373a6.567 6.567 0 00-.72.705 5.448 5.448 0 00-.433.566 3.026 3.026 0 01-.298.396.615.615 0 01-.355.17.506.506 0 01-.418-.093c-.103-.104-.152-.283-.147-.54 0-.279.089-.579.265-.9.188-.324.428-.632.72-.924a4.54 4.54 0 011-.771 3.19 3.19 0 011.115-.427c.854-.145 1.581-.063 2.184.247.6.299 1.054.78 1.363 1.444.307.651.444 1.442.408 2.37-.014.913-.2 1.746-.557 2.5a5.113 5.113 0 01-1.478 1.835c-.612.48-1.321.79-2.126.927zm10.304-1.808c-.878.149-1.63.1-2.257-.144a2.882 2.882 0 01-1.422-1.252c-.32-.588-.469-1.304-.442-2.146.023-.72.166-1.406.432-2.059a6.323 6.323 0 011.118-1.793 6.723 6.723 0 011.633-1.352 5.68 5.68 0 011.944-.713 2.22 2.22 0 01.842.002c.251.042.445.143.582.301.147.145.213.347.196.605a1.035 1.035 0 01-.176.576.675.675 0 01-.431.255.555.555 0 01-.315-.02 4.037 4.037 0 00-.255-.101c-.079-.035-.207-.038-.385-.008a3.783 3.783 0 00-1.813.837 4.911 4.911 0 00-1.285 1.567c-.312.6-.48 1.217-.505 1.852.002.51.088.938.257 1.286.181.333.441.574.783.722.355.146.763.18 1.225.101.521-.088.926-.218 1.213-.388a2.76 2.76 0 00.656-.549c.163-.185.294-.348.392-.486a.546.546 0 01.375-.264c.226-.038.388-.011.489.08.113.09.168.27.166.537a2.046 2.046 0 01-.424 1.147c-.27.35-.633.648-1.09.896a4.729 4.729 0 01-1.503.51zm5.854-.96c-.285.048-.527-.081-.726-.387-.199-.306-.29-.8-.273-1.483.004-.329.034-.832.088-1.509.052-.689.185-1.44.399-2.253.248-.965.489-1.734.719-2.308.228-.585.477-1.022.744-1.31.267-.289.561-.46.88-.514a.647.647 0 01.621.204c.177.176.319.4.427.674.108.273.204.548.288.825.113.369.244.778.394 1.226.162.445.33.896.507 1.352.187.454.383.882.587 1.284.215.4.436.733.665.998l-.615.25c.227-.73.478-1.466.754-2.204a56.32 56.32 0 01.841-2.129c.286-.68.559-1.29.819-1.833.292-.572.55-.986.774-1.242.236-.259.46-.407.674-.443a.888.888 0 01.444.034c.14.036.266.088.375.154.152.108.28.25.383.427.104.176.165.457.183.843.039.867.1 1.646.182 2.336.092.677.183 1.244.274 1.702.152.812.323 1.45.512 1.916.202.463.298.769.287.916a.542.542 0 01-.186.414.742.742 0 01-.452.241c-.285.049-.544-.047-.781-.286-.224-.24-.399-.587-.526-1.04a22.184 22.184 0 01-.384-1.591 28.788 28.788 0 01-.32-2.185 32.58 32.58 0 01-.149-2.561l.495-.212a122.435 122.435 0 00-1.502 3.388 86.188 86.188 0 00-.742 1.857 30.493 30.493 0 00-.582 1.72 1.74 1.74 0 01-.371.61.938.938 0 01-.553.294c-.284.048-.532.023-.745-.074a1.919 1.919 0 01-.559-.488 6.526 6.526 0 01-.459-.759l-.315-.657c-.135-.292-.277-.62-.424-.984a25.738 25.738 0 01-.833-2.39c-.12-.416-.212-.807-.274-1.173l.509-.232a19.696 19.696 0 00-.774 1.88c-.202.605-.358 1.22-.469 1.846a15.65 15.65 0 00-.193 1.964c-.017.476-.019.889-.007 1.24.024.347.033.613.028.796a1.244 1.244 0 01-.161.555c-.094.162-.254.262-.478.3zm17.454-2.955c-.972.166-1.808.09-2.509-.228a3.322 3.322 0 01-1.574-1.499c-.351-.693-.517-1.52-.5-2.482.017-.683.142-1.3.377-1.849.245-.564.538-1.05.883-1.462a4.737 4.737 0 011.113-.972c.384-.248.724-.397 1.02-.447a.835.835 0 01.329-.001.406.406 0 01.244.14c.071.06.106.158.105.292a2.19 2.19 0 01-.172.703c-.098.21-.312.423-.64.637a5.045 5.045 0 00-.969.857c-.243.284-.426.6-.549.95-.126.337-.186.73-.182 1.178-.026.988.22 1.735.733 2.242.512.496 1.194.671 2.048.526.829-.141 1.501-.56 2.016-1.254.523-.708.796-1.574.815-2.597.033-.94-.148-1.638-.543-2.093-.398-.467-.951-.64-1.662-.518-.367.062-.669.186-.906.372a6.638 6.638 0 00-.72.706 5.689 5.689 0 00-.433.565 3.07 3.07 0 01-.297.397.617.617 0 01-.356.17.503.503 0 01-.417-.093c-.103-.104-.152-.284-.148-.54.001-.279.089-.58.266-.9.188-.324.428-.632.719-.925a4.534 4.534 0 011.001-.771 3.19 3.19 0 011.115-.427c.854-.145 1.581-.062 2.183.248.599.298 1.054.78 1.364 1.443.307.652.443 1.442.407 2.371-.013.913-.199 1.746-.558 2.499a5.097 5.097 0 01-1.476 1.836c-.613.48-1.322.79-2.127.926zm5.838-8.387c-.273.046-.5 0-.682-.14a.624.624 0 01-.24-.541.686.686 0 01.156-.373c.09-.112.265-.227.525-.344.407-.19.957-.394 1.652-.61a19.96 19.96 0 012.499-.57c.497-.085.955-.15 1.374-.198.428-.06.903-.1 1.425-.115.411-.022.735.02.972.126.25.103.372.246.367.429a.803.803 0 01-.099.381.752.752 0 01-.281.284c-.12.082-.28.14-.481.174-.25.042-.542.08-.878.113-.335.032-.695.07-1.078.11a12.04 12.04 0 00-1.146.14c-.817.14-1.469.287-1.954.443-.488.144-.89.285-1.208.424a4.572 4.572 0 01-.923.267zm3.812 6.744a.653.653 0 01-.641-.218c-.156-.193-.285-.45-.389-.772a7.147 7.147 0 01-.173-1.009c-.04-.442-.062-.924-.066-1.445-.006-.533-.004-1.05.008-1.55.019-.67.033-1.262.042-1.773.02-.526.031-.958.033-1.299l1.581-.378-.047.79c-.009.306-.016.653-.022 1.043-.008.377-.02.768-.036 1.171-.007.39-.015.768-.025 1.134-.017.61-.009 1.118.025 1.525.043.393.092.713.146.959.054.245.102.45.142.613.038.151.056.294.055.428a.931.931 0 01-.081.378.68.68 0 01-.23.257.693.693 0 01-.322.146zm9.48-1.742c-.569.097-1.08.105-1.532.025-.453-.081-.814-.226-1.081-.436-.268-.209-.401-.453-.401-.733a.881.881 0 01.132-.404.484.484 0 01.346-.223.607.607 0 01.336.034c.104.043.229.094.373.155.144.06.348.104.608.133.259.016.602-.012 1.029-.084.663-.113 1.21-.37 1.641-.771.441-.415.664-1.03.67-1.845.023-.574-.057-1.077-.24-1.507a2.736 2.736 0 00-.755-1.091 2.626 2.626 0 00-1.182-.6c-.457-.105-.959-.11-1.504-.018a4.158 4.158 0 00-.819.231c-.274.108-.519.18-.731.216a.73.73 0 01-.37-.028.514.514 0 01-.263-.247.732.732 0 01-.079-.35c.017-.331.188-.61.516-.835.336-.24.878-.423 1.624-.55.794-.135 1.522-.12 2.185.047.675.164 1.256.46 1.743.887.486.415.86.952 1.119 1.612.269.646.393 1.396.368 2.25a4.191 4.191 0 01-.318 1.548 4.074 4.074 0 01-.774 1.242 4.424 4.424 0 01-1.167.873c-.45.222-.941.379-1.474.47zm-3.397 5.24a.67.67 0 01-.391-.042.467.467 0 01-.244-.25 1.015 1.015 0 01-.079-.46 1.52 1.52 0 01.11-.528c.058-.156.123-.349.193-.58.072-.218.14-.497.203-.835.065-.34.105-.777.123-1.314a13.872 13.872 0 00-.161-2.632 191.44 191.44 0 00-.432-2.621 16.144 16.144 0 01-.197-2.735c.009-.305.072-.54.19-.706a.764.764 0 01.511-.324.607.607 0 01.496.116c.15.096.268.246.352.45.082.193.114.418.098.675-.021.732.006 1.42.08 2.063.084.629.177 1.244.28 1.846.116.6.214 1.202.293 1.808.08.605.11 1.238.089 1.897a12.362 12.362 0 01-.12 1.641 6.452 6.452 0 01-.309 1.29c-.121.361-.272.648-.455.861a1.014 1.014 0 01-.63.38zm11.281-6.473c-.403.069-.739.029-1.009-.12a1.69 1.69 0 01-.625-.658 3.276 3.276 0 01-.336-.999 6.74 6.74 0 01-.064-1.118c.018-.319.05-.7.095-1.145.057-.447.123-.914.198-1.4.075-.486.149-.942.222-1.367a32.5 32.5 0 01.213-1.001c.082-.44.164-.781.244-1.025.091-.247.227-.385.404-.415a.669.669 0 01.453.086c.15.084.268.204.355.359a.954.954 0 01.147.54c-.003.194-.039.48-.108.856-.07.376-.15.796-.24 1.26-.091.465-.176.935-.252 1.41a8.918 8.918 0 00-.134 1.242c-.016.33-.011.645.016.944.025.288.077.521.157.702.078.169.195.24.348.214.379-.064.801-.482 1.266-1.253.477-.774.975-1.812 1.495-3.114.242-.576.45-1.109.621-1.6.171-.49.323-.916.457-1.279.13-.374.268-.67.413-.89.146-.219.307-.344.485-.374.272-.046.486.027.641.219.165.178.27.44.317.784.054.306.107.686.16 1.138l.202 1.386c.067.462.141.893.222 1.292.153.678.315 1.227.484 1.647.18.407.334.733.461.978.128.245.2.452.216.619a.867.867 0 01-.06.392.956.956 0 01-.221.311.636.636 0 01-.337.167c-.272.046-.519-.04-.739-.257-.208-.22-.399-.545-.571-.977a14.919 14.919 0 01-.502-1.535c-.097-.421-.198-.871-.305-1.35a29.69 29.69 0 01-.249-1.451c-.059-.488-.114-.94-.161-1.357l.546.089c-.095.296-.2.61-.313.946-.101.333-.231.713-.389 1.14-.148.414-.337.908-.569 1.481a18.367 18.367 0 01-1.001 2.046 8.173 8.173 0 01-1.234 1.65c-.437.438-.909.7-1.419.787zm8.653-8.849c-.273.047-.5 0-.682-.139a.63.63 0 01-.24-.541.694.694 0 01.156-.373c.09-.113.266-.227.525-.345.407-.19.958-.393 1.652-.608a19.966 19.966 0 012.499-.572c.497-.084.955-.15 1.374-.197.428-.061.904-.1 1.425-.115.412-.022.735.02.973.125.25.104.372.247.366.43a.76.76 0 01-.379.666c-.12.08-.281.138-.482.172-.249.043-.541.08-.877.113-.336.033-.696.07-1.078.111a12.06 12.06 0 00-1.147.14c-.817.14-1.468.287-1.954.443-.488.143-.889.285-1.207.424a4.58 4.58 0 01-.924.266zm3.813 6.745a.654.654 0 01-.642-.219 2.396 2.396 0 01-.389-.771 7.147 7.147 0 01-.173-1.009 18.106 18.106 0 01-.065-1.445c-.007-.534-.004-1.05.007-1.55.019-.67.033-1.262.043-1.774.019-.525.03-.958.032-1.298l1.581-.378-.047.79c-.008.306-.016.653-.022 1.042-.008.378-.02.769-.036 1.172-.006.39-.014.767-.024 1.133-.017.61-.009 1.119.024 1.526.043.393.092.713.146.958.055.246.102.45.142.613.039.152.058.294.056.428a.916.916 0 01-.082.378.677.677 0 01-.229.258.698.698 0 01-.322.146zm8.708-1.52c-.984.168-1.778.121-2.384-.14a2.557 2.557 0 01-1.319-1.287c-.273-.597-.399-1.298-.379-2.102.031-.6.156-1.217.376-1.85a7.41 7.41 0 01.95-1.818 6.09 6.09 0 011.455-1.431 4.485 4.485 0 011.861-.773c.628-.106 1.159-.094 1.597.038.449.13.784.376 1.005.74.233.36.341.846.324 1.456a3.02 3.02 0 01-.588 1.793c-.387.516-.904.95-1.55 1.303a6.672 6.672 0 01-2.125.726c-.806.137-1.36.134-1.666-.008-.292-.145-.436-.339-.43-.583 0-.145.036-.255.11-.328.07-.084.194-.142.372-.172.13-.023.289-.025.474-.008.195.003.477-.027.844-.09a4.893 4.893 0 001.556-.52c.458-.247.817-.539 1.076-.874.258-.348.395-.717.413-1.109.01-.366-.083-.623-.28-.772-.184-.15-.507-.187-.969-.108a3 3 0 00-1.278.545c-.38.272-.723.615-1.03 1.032a5.291 5.291 0 00-.696 1.375 5.01 5.01 0 00-.266 1.538c-.01.44.051.83.183 1.171.13.33.357.583.679.759.333.162.772.196 1.317.103.616-.104 1.13-.27 1.542-.499a5.156 5.156 0 001.039-.76c.273-.264.501-.492.688-.681.187-.19.364-.299.529-.327.201-.035.356.018.467.157.118.126.175.31.168.554-.007.244-.124.52-.353.825-.217.292-.52.586-.908.883a6.761 6.761 0 01-1.292.785 6.174 6.174 0 01-1.512.458zm5.32 2.009a.606.606 0 01-.434-.072c-.122-.077-.179-.194-.17-.354.002-.134.035-.291.102-.472.054-.18.154-.415.298-.707.179-.382.316-.758.411-1.126a8.97 8.97 0 00.246-1.117c.057-.385.088-.767.097-1.145.012-.354.086-.634.221-.839a.806.806 0 01.559-.368c.402-.069.711-.012.925.17.224.168.326.479.307.931a6.1 6.1 0 01-.197 1.308c-.112.48-.266.968-.461 1.463a7.35 7.35 0 01-.678 1.372 2.08 2.08 0 01-.531.637c-.214.17-.447.276-.695.319zm17.992-5.96c-.356.06-.765.021-1.228-.118a6.56 6.56 0 01-1.413-.67 11.77 11.77 0 01-1.321-.977 6.836 6.836 0 01-.985-1.053 1.735 1.735 0 01-.32-.473 2.246 2.246 0 01-.1-.475c.02-.1.049-.215.088-.343a1.23 1.23 0 01.176-.358c.109-.213.309-.508.597-.884.29-.377.627-.787 1.015-1.23.396-.456.811-.884 1.242-1.285.44-.415.862-.766 1.263-1.053.414-.29.781-.461 1.101-.515a.467.467 0 01.317.037.492.492 0 01.217.2c.052.088.08.18.084.276.033.262-.096.539-.386.831a9.69 9.69 0 01-.955.836 21.09 21.09 0 00-1.602 1.42 14.62 14.62 0 00-1.095 1.189c-.259.335-.385.563-.377.683-.003.122.11.315.338.58.226.253.555.53.985.834a7.79 7.79 0 001.468.77c.249.103.491.201.727.295.245.08.444.173.597.28.163.094.251.219.266.374a.761.761 0 01-.064.375.71.71 0 01-.259.3.882.882 0 01-.376.154zm-5.92.99c-.308.053-.542-.066-.701-.354-.162-.3-.269-.75-.324-1.347a24.502 24.502 0 01-.037-2.234c.011-.366.03-.752.058-1.157l.119-1.222c.038-.42.06-.824.066-1.213a2.38 2.38 0 00.004-.292 2.99 2.99 0 00-.001-.328c.007-.244.038-.45.095-.617a1.1 1.1 0 01.223-.402.578.578 0 01.331-.202c.273-.047.508.04.704.262.206.208.299.538.28.99a13.21 13.21 0 01-.096 1.146c-.045.445-.094.902-.148 1.373-.053.47-.085.882-.098 1.237-.001.631.011 1.194.034 1.687.036.492.076.898.118 1.219.041.308.054.525.039.649a.836.836 0 01-.096.399.672.672 0 01-.23.257.67.67 0 01-.34.15zm10.56-1.798c-.545.093-1.012.039-1.399-.162-.377-.203-.669-.524-.879-.962-.198-.44-.289-.97-.274-1.592a6.474 6.474 0 01.295-1.798 8.688 8.688 0 01.804-1.813 8.55 8.55 0 011.169-1.601 6.77 6.77 0 011.474-1.216 4.862 4.862 0 011.683-.633c.273-.046.498-.012.676.103.179.116.263.32.252.613a.678.678 0 01-.131.405c-.091.113-.235.198-.432.256a5.614 5.614 0 00-2.158 1.278 6.847 6.847 0 00-1.465 2.015 5.765 5.765 0 00-.564 2.245c-.012.355.006.673.055.956.047.272.166.616.36 1.032l-.885-1.106c.259.235.48.38.66.434.191.052.448.051.767-.003.758-.13 1.445-.744 2.061-1.845.615-1.1 1.096-2.633 1.44-4.597.044-.239.127-.429.25-.57a.81.81 0 01.499-.286c.273-.047.5.036.683.248.193.198.308.475.345.833.08.752.172 1.428.275 2.03.114.587.274 1.13.482 1.63.219.496.537.994.952 1.494a.672.672 0 01.159.392.884.884 0 01-.048.464.974.974 0 01-.242.405.734.734 0 01-.405.197.775.775 0 01-.445-.034.948.948 0 01-.3-.258 8.035 8.035 0 01-.611-.898 6.872 6.872 0 01-.521-1.113 9.231 9.231 0 01-.36-1.56 20.485 20.485 0 01-.191-2.17l.637-.127c-.188 1.246-.449 2.316-.783 3.21-.336.883-.721 1.617-1.158 2.2-.426.571-.874 1.012-1.345 1.323-.471.31-.931.504-1.382.58zm15.75-2.664c-.356.061-.765.021-1.228-.118a6.585 6.585 0 01-1.414-.67 11.699 11.699 0 01-1.32-.977 6.904 6.904 0 01-.986-1.053 1.753 1.753 0 01-.319-.473 2.245 2.245 0 01-.1-.475c.02-.1.049-.215.087-.343.039-.128.098-.247.176-.358.11-.212.31-.507.598-.884.289-.377.627-.787 1.015-1.23.396-.455.811-.884 1.241-1.285.441-.415.863-.766 1.264-1.053.414-.29.78-.46 1.1-.515a.467.467 0 01.317.037.494.494 0 01.218.2c.052.088.08.18.084.277.033.261-.096.538-.388.83-.29.293-.609.571-.953.837-.61.492-1.145.965-1.603 1.42-.458.454-.823.85-1.094 1.188-.26.335-.385.563-.377.683-.003.122.109.315.338.58.226.253.555.53.984.834.429.291.918.548 1.468.77.25.103.492.201.728.295.245.08.444.173.596.28.163.094.252.219.266.374a.75.75 0 01-.063.375.706.706 0 01-.26.3.872.872 0 01-.375.154zm-5.921.99c-.308.053-.542-.065-.701-.354-.161-.3-.269-.75-.323-1.347a24.143 24.143 0 01-.037-2.234c.01-.366.029-.751.057-1.157.04-.407.079-.815.12-1.222.038-.42.059-.824.066-1.213a2.38 2.38 0 00.004-.292 2.98 2.98 0 00-.001-.328c.006-.244.038-.45.095-.617.056-.167.13-.302.223-.402a.575.575 0 01.331-.202c.272-.047.506.04.704.262.206.208.299.538.279.99-.008.306-.04.687-.095 1.146-.045.445-.095.902-.148 1.373-.053.47-.086.882-.098 1.237-.001.631.01 1.194.034 1.687.036.492.075.898.118 1.219.041.308.054.525.039.649a.835.835 0 01-.096.399.674.674 0 01-.231.257.671.671 0 01-.34.15zM93.691 48.063c-.284.048-.506-.072-.665-.36-.16-.29-.28-.67-.361-1.141-.06-.354-.1-.754-.115-1.2a52.65 52.65 0 01-.036-1.379c-.006-.46-.013-.89-.02-1.29a23.22 23.22 0 00-.008-1 9.595 9.595 0 00-.057-.864 7.536 7.536 0 00-.092-.749l.416.403-1.28.217c-.378.065-.831.16-1.358.286a33.53 33.53 0 00-1.528.37 9.373 9.373 0 00-1.246.412l.668-1.115c.137.657.21 1.33.22 2.02.02.689.02 1.43-.002 2.223-.013.354-.024.75-.034 1.189-.01.439-.028.86-.056 1.266s-.063.733-.106.983a1.23 1.23 0 01-.237.532.79.79 0 01-.485.265c-.237.04-.428-.042-.573-.248-.145-.206-.213-.492-.203-.858.003-.268.018-.574.044-.918.024-.356.04-.723.048-1.101s.017-.72.025-1.024c.03-.612.025-1.133-.013-1.564a32.639 32.639 0 00-.09-1.168 11.748 11.748 0 01-.023-.98c.026-.272.099-.49.216-.656.13-.168.326-.304.588-.41.389-.15.847-.29 1.374-.416.537-.14 1.088-.264 1.655-.372.578-.111 1.128-.21 1.65-.3.686-.117 1.207-.066 1.562.153.355.22.52.683.495 1.391a33.4 33.4 0 00-.007 1.021c.002.437 0 .923-.005 1.458.006.533.025 1.07.057 1.61a17 17 0 00.143 1.47c.02.19.054.385.1.584.047.198.07.37.07.516a.808.808 0 01-.21.473.846.846 0 01-.52.27zm7.236-1.324c-.568.097-1.08.105-1.532.025-.453-.081-.813-.226-1.081-.436-.268-.209-.401-.453-.4-.733a.876.876 0 01.131-.404.482.482 0 01.346-.223.601.601 0 01.335.034c.105.043.23.094.374.155.145.06.347.104.608.133.26.016.602-.012 1.028-.084.663-.113 1.211-.37 1.642-.772.44-.414.664-1.03.67-1.844.023-.574-.057-1.077-.241-1.507a2.717 2.717 0 00-.755-1.091 2.61 2.61 0 00-1.182-.6c-.456-.105-.958-.11-1.502-.018a4.166 4.166 0 00-.82.231c-.275.108-.518.18-.731.216a.734.734 0 01-.371-.028.516.516 0 01-.262-.247.73.73 0 01-.079-.35c.017-.331.188-.61.515-.835.337-.24.879-.423 1.625-.55.794-.135 1.522-.12 2.184.047.675.164 1.256.46 1.744.887.487.415.859.952 1.119 1.612.269.646.392 1.396.368 2.25a4.19 4.19 0 01-.318 1.548 4.094 4.094 0 01-.774 1.242c-.331.348-.72.639-1.167.873a5.33 5.33 0 01-1.474.47zM97.53 51.98a.67.67 0 01-.391-.043.467.467 0 01-.245-.25 1.015 1.015 0 01-.079-.46 1.52 1.52 0 01.11-.528c.06-.156.124-.349.194-.58.072-.218.14-.497.203-.835.064-.339.105-.777.122-1.314a12.23 12.23 0 00-.1-1.968 36.048 36.048 0 00-.282-1.955c-.102-.663-.198-1.326-.288-1.99a13.56 13.56 0 01-.118-2.075c.012-.209.043-.384.092-.526a.7.7 0 01.218-.328.792.792 0 01.39-.176.606.606 0 01.496.116.93.93 0 01.351.45c.082.193.115.418.098.675-.02.732.007 1.42.08 2.063.084.629.178 1.244.281 1.846.116.6.213 1.202.293 1.808.08.605.11 1.238.089 1.897a12.41 12.41 0 01-.12 1.641 6.529 6.529 0 01-.309 1.29c-.12.361-.273.648-.456.862a1.01 1.01 0 01-.629.38zm13.662-6.861c-.97.165-1.807.09-2.508-.228a3.323 3.323 0 01-1.574-1.499c-.352-.693-.518-1.52-.501-2.483a4.976 4.976 0 01.378-1.848 5.95 5.95 0 01.882-1.462 4.777 4.777 0 011.113-.972c.384-.248.725-.397 1.02-.447a.837.837 0 01.33-.002.4.4 0 01.243.14c.071.062.106.159.105.293-.019.245-.076.48-.171.703-.098.21-.311.423-.641.637a5.067 5.067 0 00-.968.857c-.244.284-.427.6-.55.95a3.286 3.286 0 00-.182 1.177c-.025.988.22 1.736.734 2.243.511.495 1.194.67 2.047.526.829-.142 1.501-.56 2.016-1.254.525-.709.796-1.575.815-2.598.033-.94-.147-1.638-.543-2.093-.397-.466-.951-.639-1.661-.518-.368.063-.669.187-.906.373a6.68 6.68 0 00-.72.705 5.419 5.419 0 00-.433.566 3.152 3.152 0 01-.298.396.611.611 0 01-.354.17.506.506 0 01-.419-.093c-.103-.103-.152-.283-.147-.539 0-.28.089-.58.265-.901.188-.324.428-.632.719-.924a4.54 4.54 0 011.002-.771c.364-.22.736-.362 1.114-.427.854-.145 1.582-.063 2.184.248.6.298 1.054.779 1.363 1.443.307.652.443 1.442.408 2.37-.014.913-.2 1.746-.558 2.5a5.101 5.101 0 01-1.477 1.835c-.612.48-1.321.79-2.127.927zm6.533-1.076a.6.6 0 01-.394-.06c-.119-.053-.204-.16-.256-.32-.052-.162-.039-.37.038-.627.074-.352.265-.834.575-1.445.321-.613.728-1.296 1.221-2.047a27.81 27.81 0 011.72-2.333 26.653 26.653 0 012.094-2.287c.384-.393.699-.69.945-.89.255-.213.463-.357.62-.433a1.71 1.71 0 01.45-.149c.19-.032.353 0 .492.098.148.084.225.241.228.471a.993.993 0 01-.167.52 2.172 2.172 0 01-.48.501c-.873.67-1.69 1.453-2.45 2.348a25.636 25.636 0 00-2.071 2.847 31.777 31.777 0 00-1.697 3.003c-.139.254-.283.442-.433.565a.822.822 0 01-.435.238zm6.569-1.155a.794.794 0 01-.507-.078c-.149-.083-.314-.268-.498-.552a27.384 27.384 0 00-1.201-1.562 27.198 27.198 0 00-1.371-1.588 20.351 20.351 0 00-1.42-1.452 13.372 13.372 0 00-1.306-1.107 3.518 3.518 0 01-.646-.563.92.92 0 01-.219-.637.879.879 0 01.126-.44c.074-.134.219-.22.432-.256a.948.948 0 01.616.077c.186.09.449.27.788.54.251.188.546.441.88.76.336.32.691.684 1.067 1.094.387.407.769.822 1.147 1.243.374.41.723.806 1.045 1.188.334.38.604.71.81.991.346.451.571.801.675 1.05.102.238.149.443.142.614a.71.71 0 01-.144.443c-.088.125-.227.203-.416.235zm7.01-1.194c-.971.166-1.807.09-2.508-.228a3.329 3.329 0 01-1.575-1.498c-.35-.694-.518-1.521-.499-2.483.017-.683.142-1.3.376-1.849.244-.564.539-1.05.883-1.462a4.777 4.777 0 011.113-.972c.385-.248.724-.397 1.021-.447a.832.832 0 01.328-.002.41.41 0 01.245.141c.071.06.106.158.105.292-.019.246-.076.48-.173.703-.098.21-.311.423-.64.637a5.034 5.034 0 00-.968.857 2.96 2.96 0 00-.55.95c-.125.337-.185.73-.181 1.178-.026.987.218 1.735.733 2.242.512.496 1.194.671 2.047.526.829-.141 1.501-.56 2.016-1.254.524-.708.796-1.574.815-2.597.033-.94-.148-1.638-.542-2.093-.398-.467-.952-.64-1.663-.518-.368.062-.669.186-.905.372a6.558 6.558 0 00-.72.706 5.398 5.398 0 00-.433.565 2.972 2.972 0 01-.298.397.618.618 0 01-.355.17.505.505 0 01-.418-.093c-.103-.104-.153-.284-.148-.54.001-.279.089-.58.266-.9.189-.324.428-.632.72-.925a4.53 4.53 0 011-.771c.365-.22.737-.362 1.116-.427.853-.145 1.58-.062 2.182.248.6.298 1.055.78 1.364 1.443.308.652.443 1.442.408 2.371-.014.913-.2 1.746-.558 2.499a5.107 5.107 0 01-1.476 1.836c-.613.48-1.322.79-2.128.926zm6.431-2.151c.093-.38.221-.809.383-1.285.16-.489.334-.998.524-1.528a75.79 75.79 0 01.609-1.56c.215-.523.42-.995.616-1.417a27.76 27.76 0 01.797-1.538c.27-.483.537-.88.801-1.192.272-.326.522-.508.747-.546.236-.04.462.024.673.195.224.168.447.47.668.905.152.315.324.716.519 1.205.193.49.389 1.027.588 1.612.196.574.375 1.156.537 1.748.164.591.295 1.14.393 1.645l-1.539.407a21.609 21.609 0 00-.441-1.819 24.725 24.725 0 00-.583-1.903c-.214-.607-.42-1.13-.618-1.57-.199-.452-.378-.75-.538-.892l.669-.26a20.55 20.55 0 00-.964 1.621 17.514 17.514 0 00-.872 1.951c-.194.507-.373.987-.539 1.44a33.95 33.95 0 00-.451 1.315c-.124.41-.246.831-.367 1.265l-1.612.201zm8.276 2.07c-.238.04-.435-.012-.594-.155a.628.628 0 01-.219-.527c-.001-.145.04-.371.122-.676.084-.294.166-.63.247-1.008.082-.378.125-.761.131-1.151l.795.793c-.17.005-.434.026-.794.063-.347.035-.787.098-1.321.188a110.884 110.884 0 00-3.861.73c-.624.131-1.216.269-1.776.413-.561.143-1.072.291-1.534.443l.586-.738c.003.158.012.35.027.579.015.228.035.455.062.681.029.238.052.446.071.625l.065.372c.022.203-.022.368-.135.496a.723.723 0 01-.467.262c-.285.048-.499-.03-.644-.236a1.845 1.845 0 01-.297-.77 5.24 5.24 0 01-.107-.728 5.715 5.715 0 01-.03-.705c.015-.197.058-.374.128-.532a1.06 1.06 0 01.307-.452c.147-.135.347-.248.6-.34a14.55 14.55 0 011.168-.326 32.16 32.16 0 011.688-.397c.634-.144 1.287-.28 1.961-.406.671-.139 1.314-.26 1.93-.365.308-.053.647-.104 1.016-.155.368-.063.726-.1 1.079-.111.349-.023.599.044.747.2.161.155.238.427.232.817a6.948 6.948 0 01-.105.983c-.062.35-.151.681-.268.993a2.841 2.841 0 01-.377.792c-.135.205-.279.321-.433.347zm9.29-4.023a.733.733 0 01-.766-.307c-.182-.272-.314-.62-.399-1.043a18.246 18.246 0 01-.107-.728 10.266 10.266 0 01-.072-.844 46.735 46.735 0 00-.009-.8l.041-.826c.028-.332.055-.67.081-1.015a38.4 38.4 0 00.087-.98c.032-.31.053-.544.062-.703-.002-.157-.057-.263-.164-.318-.109-.066-.282-.08-.519-.04a6.13 6.13 0 00-.616.142 9.97 9.97 0 00-.71.23 5.632 5.632 0 00-1.52.842c-.419.326-.631.654-.635.982-.013.282.059.524.216.728.167.19.451.318.852.383.414.064.988.033 1.722-.093.26-.044.52-.094.779-.15.259-.056.504-.117.737-.18.243-.078.446-.137.61-.177.161-.052.266-.082.314-.09a4.51 4.51 0 01.755-.074c.207.001.305.112.295.332.005.242-.093.453-.294.633-.188.178-.456.327-.801.446a7.333 7.333 0 01-1.193.294l-1.83.312a4.926 4.926 0 01-1.832-.016c-.57-.122-1.03-.353-1.381-.694-.339-.343-.507-.782-.502-1.317.017-.33.115-.687.293-1.07.187-.395.486-.786.895-1.172.422-.387.995-.74 1.721-1.057.52-.235.961-.4 1.322-.499a11.66 11.66 0 011.092-.24c.462-.079.835-.076 1.118.01.283.085.491.232.624.44.145.206.213.461.205.766a9.36 9.36 0 01-.076.942c-.047.36-.093.732-.137 1.116-.034.37-.062.703-.084.998a14.87 14.87 0 00-.002.947c.008.326.026.645.055.956.029.31.062.578.101.802.045.26.098.536.161.829.073.279.106.473.101.584a.706.706 0 01-.159.463.672.672 0 01-.431.256zm-6.258 1.047a.625.625 0 01-.535-.127.667.667 0 01-.194-.495c.013-.136.08-.28.199-.435.119-.166.329-.36.632-.58.52-.38 1.02-.842 1.5-1.385.491-.545.974-1.143 1.447-1.795l1.229.447a19.72 19.72 0 01-1.093 1.515c-.391.492-.788.948-1.191 1.369a9.33 9.33 0 01-1.104 1.025c-.345.265-.641.419-.89.461zm8.906-8.873c-.273.046-.501 0-.683-.14a.627.627 0 01-.24-.541.686.686 0 01.156-.372c.091-.113.266-.228.526-.345.406-.19.957-.393 1.651-.609a19.977 19.977 0 012.499-.571c.497-.085.955-.15 1.375-.198.427-.06.903-.099 1.424-.115.411-.021.735.02.973.126.25.103.372.246.367.43a.759.759 0 01-.38.666 1.23 1.23 0 01-.482.172c-.249.042-.541.08-.877.113-.336.033-.695.07-1.078.11-.374.028-.756.075-1.147.141-.817.14-1.468.287-1.954.442a10.55 10.55 0 00-1.207.424 4.597 4.597 0 01-.923.267zm3.811 6.744a.654.654 0 01-.641-.218 2.396 2.396 0 01-.389-.772 7.297 7.297 0 01-.173-1.008 18.11 18.11 0 01-.065-1.446 44.08 44.08 0 01.007-1.55c.019-.67.033-1.261.043-1.773.019-.525.03-.958.033-1.299l1.58-.378-.047.791c-.008.305-.015.652-.022 1.042-.008.378-.02.768-.036 1.172-.006.39-.014.767-.024 1.133-.017.61-.009 1.118.024 1.525.043.394.092.713.147.959.054.245.101.45.141.613.039.151.057.294.056.428a.948.948 0 01-.082.378.67.67 0 01-.229.258.699.699 0 01-.323.145zm14.533-2.547a6.05 6.05 0 01-1.357.085 4.431 4.431 0 01-1.139-.243 2.166 2.166 0 01-.803-.519 1.29 1.29 0 01-.332-.763.787.787 0 01.11-.528c.106-.164.236-.259.39-.285.142-.024.279.025.409.149.142.11.311.244.509.405.208.146.479.264.811.353.33.078.767.07 1.313-.023.793-.135 1.373-.38 1.739-.733.376-.368.533-.734.47-1.1-.023-.202-.136-.36-.338-.47-.191-.126-.469-.212-.83-.26-.365-.06-.831-.083-1.402-.07-.461.017-.766-.022-.917-.118a.55.55 0 01-.221-.436c-.021-.19.075-.34.288-.45.213-.108.578-.255 1.095-.44.678-.238 1.205-.51 1.578-.816.387-.308.557-.629.512-.961-.043-.32-.232-.537-.569-.65-.338-.124-.768-.142-1.29-.053-.591.1-1.07.26-1.435.48a4.764 4.764 0 00-.865.603c-.199.192-.364.299-.494.321a.361.361 0 01-.326-.09.54.54 0 01-.129-.324c-.025-.214.034-.443.175-.685.153-.245.368-.482.646-.711a4.22 4.22 0 011.049-.598c.42-.18.885-.314 1.394-.401 1.043-.178 1.845-.12 2.407.173.575.29.907.768.997 1.433.039.37-.047.754-.259 1.154-.201.387-.542.748-1.02 1.085-.481.324-1.118.59-1.911.799l-.064-.263c.735-.125 1.346-.15 1.834-.075.498.06.881.226 1.146.497.277.256.441.61.495 1.063.077.52-.043 1.027-.362 1.518-.307.477-.754.893-1.34 1.248a5.786 5.786 0 01-1.964.699zm8.09-1.341c-.545.093-1.012.038-1.399-.162-.377-.203-.671-.524-.88-.962-.197-.44-.288-.97-.273-1.592a6.51 6.51 0 01.294-1.799 8.844 8.844 0 01.803-1.812 8.643 8.643 0 011.17-1.601 6.84 6.84 0 011.473-1.216 4.881 4.881 0 011.685-.633c.272-.046.498-.012.676.103.178.116.262.32.251.613a.678.678 0 01-.131.405c-.091.113-.234.198-.431.256a5.605 5.605 0 00-2.159 1.278 6.842 6.842 0 00-1.464 2.015 5.732 5.732 0 00-.565 2.245c-.012.355.006.673.055.956.046.272.167.615.361 1.032l-.886-1.106c.26.235.48.38.66.434.192.052.448.051.768-.003.758-.13 1.445-.744 2.06-1.845.616-1.1 1.095-2.633 1.441-4.597a1.19 1.19 0 01.249-.57.813.813 0 01.5-.286c.272-.047.5.036.682.248.193.197.308.475.345.833.081.751.173 1.428.276 2.03.113.587.273 1.13.482 1.63.219.496.537.994.951 1.494a.679.679 0 01.159.392.884.884 0 01-.048.464.982.982 0 01-.241.405.735.735 0 01-.406.196.77.77 0 01-.444-.033.93.93 0 01-.301-.258 8.312 8.312 0 01-.611-.898 6.946 6.946 0 01-.52-1.113 9.04 9.04 0 01-.36-1.56 20.483 20.483 0 01-.191-2.171l.637-.127c-.189 1.247-.449 2.317-.783 3.211-.336.883-.723 1.617-1.158 2.2-.426.571-.875 1.012-1.345 1.323-.472.31-.932.504-1.382.58zm9.956-1.677c-.426.072-.757-.15-.993-.669-.235-.518-.341-1.24-.317-2.168.034-.649.113-1.148.236-1.497.132-.362.308-.623.524-.78.118-.094.294-.166.53-.219.232-.063.479-.118.74-.162a26.57 26.57 0 002.537-.56c.837-.24 1.641-.558 2.414-.957l.53 1.166c-.576.341-1.209.631-1.899.87-.691.239-1.399.445-2.125.617-.717.158-1.418.296-2.105.413l-1.059.016c.034-.722.069-1.48.103-2.275.033-.795.058-1.504.073-2.125a1.498 1.498 0 01.166-.739c.112-.201.256-.317.434-.347.296-.05.536.03.718.242.181.2.261.557.24 1.07-.003.268-.02.592-.052.974s-.067.783-.104 1.202c-.026.417-.056.816-.088 1.198-.022.368-.036.674-.043.918a24.98 24.98 0 00-.003 1.895c.032.54.047.95.046 1.23a.75.75 0 01-.16.446.497.497 0 01-.343.24zm6.131-1.044c-.297.05-.539-.085-.728-.404-.177-.322-.311-.78-.401-1.37-.08-.607-.11-1.281-.092-2.025.042-1.173.095-2.104.159-2.795.074-.705.156-1.265.242-1.68.05-.276.129-.526.237-.75.107-.225.262-.355.464-.39.26-.044.464.049.614.279.159.215.233.5.22.854-.01.44-.061.921-.153 1.447a12.065 12.065 0 00-.132 1.68c-.02.732-.01 1.392.03 1.98.05.574.102 1.057.157 1.448.055.391.075.685.06.882a.838.838 0 01-.677.844zm9.891-1.684a.731.731 0 01-.765-.307c-.182-.273-.315-.62-.4-1.043a16.712 16.712 0 01-.106-.728 10.28 10.28 0 01-.072-.844 58.855 58.855 0 00-.01-.8l.041-.826c.028-.333.055-.671.081-1.016.036-.358.065-.685.088-.98.032-.309.052-.543.062-.703-.003-.157-.058-.263-.165-.317-.108-.067-.281-.08-.519-.04a6.38 6.38 0 00-.616.142c-.22.062-.457.138-.71.23-.584.22-1.09.501-1.519.841-.42.327-.632.654-.636.983-.013.281.06.524.216.728.168.19.452.317.853.383.413.063.987.032 1.721-.093a17.002 17.002 0 001.516-.331c.243-.078.446-.137.61-.177.162-.052.267-.082.314-.09a4.41 4.41 0 01.755-.073c.208 0 .306.111.295.332.005.242-.093.453-.293.632-.189.178-.456.327-.801.446a7.32 7.32 0 01-1.194.295l-1.83.311c-.64.11-1.25.104-1.832-.016-.569-.121-1.029-.352-1.381-.693-.339-.343-.506-.782-.5-1.317.016-.33.113-.687.291-1.07.188-.396.487-.787.895-1.172.422-.387.995-.74 1.721-1.058.521-.234.961-.4 1.323-.498a11.55 11.55 0 011.093-.24c.461-.08.834-.076 1.116.01.284.085.492.231.625.44.145.205.214.46.205.766-.004.255-.03.57-.076.941-.048.36-.094.733-.137 1.116-.034.37-.062.703-.085.998a14.9 14.9 0 00-.001.947 13.37 13.37 0 00.155 1.758c.045.26.099.536.162.829.072.28.106.474.1.584a.7.7 0 01-.158.464.675.675 0 01-.432.256zm-6.258 1.047c-.213.036-.391-.006-.533-.128a.66.66 0 01-.196-.495c.013-.136.08-.28.201-.434.117-.166.327-.36.631-.581a9.511 9.511 0 001.499-1.385c.492-.545.974-1.143 1.447-1.794l1.23.446c-.329.505-.692 1.01-1.094 1.516-.39.491-.787.947-1.191 1.368-.391.419-.759.76-1.103 1.026-.345.265-.642.419-.891.46zm8.906-8.874c-.273.047-.5 0-.682-.139a.627.627 0 01-.24-.541.694.694 0 01.156-.373c.09-.113.265-.227.526-.345.405-.19.956-.393 1.65-.608a20.02 20.02 0 012.5-.572c.497-.084.955-.15 1.374-.197.429-.061.903-.1 1.425-.115.411-.022.735.02.972.125.25.104.372.247.367.43a.803.803 0 01-.099.38.752.752 0 01-.281.285 1.22 1.22 0 01-.481.173c-.25.043-.542.08-.878.113-.335.033-.695.07-1.078.111a12.04 12.04 0 00-1.146.14c-.817.14-1.469.287-1.954.443-.488.143-.89.285-1.208.424a4.572 4.572 0 01-.923.266zm3.812 6.745a.652.652 0 01-.641-.219c-.156-.192-.285-.45-.389-.771a7.147 7.147 0 01-.173-1.009c-.04-.442-.062-.924-.066-1.445-.006-.534-.004-1.05.008-1.55.019-.67.033-1.262.042-1.773.02-.526.03-.959.033-1.3l1.58-.377-.046.79c-.009.306-.016.653-.022 1.042-.008.378-.021.769-.036 1.172-.007.39-.015.767-.025 1.133-.017.61-.009 1.119.025 1.526.043.393.092.712.146.958.054.246.102.45.143.613.038.152.056.294.055.428a.949.949 0 01-.082.378.68.68 0 01-.23.258.693.693 0 01-.322.146zm7.09-1.226c-.402.069-.738.029-1.007-.12a1.679 1.679 0 01-.626-.658 3.275 3.275 0 01-.337-.999 6.741 6.741 0 01-.064-1.118c.019-.319.05-.7.096-1.145a72.696 72.696 0 01.421-2.767c.084-.427.155-.761.211-1.001.084-.44.165-.781.245-1.026.092-.246.226-.384.404-.414a.672.672 0 01.454.086.941.941 0 01.355.359.962.962 0 01.147.54 5.54 5.54 0 01-.109.855c-.069.377-.15.797-.241 1.262-.09.464-.174.934-.251 1.408a8.91 8.91 0 00-.133 1.243 6.68 6.68 0 00.016.944c.025.287.077.521.157.702.077.169.193.24.348.214.378-.065.801-.482 1.265-1.254.477-.773.975-1.81 1.495-3.113.242-.576.449-1.109.622-1.6.171-.49.323-.916.455-1.28.131-.373.27-.67.415-.889.145-.219.306-.344.484-.374.272-.046.486.027.642.219.164.178.27.44.317.783.052.307.105.687.159 1.139l.202 1.386c.067.462.141.892.222 1.291.153.679.314 1.228.485 1.648.179.406.333.732.46.978.128.245.2.451.217.619a.881.881 0 01-.061.392.957.957 0 01-.221.311.635.635 0 01-.337.167c-.415.07-.757-.15-1.029-.663-.27-.512-.532-1.214-.782-2.106-.097-.421-.199-.871-.305-1.35a29.725 29.725 0 01-.251-1.451c-.059-.488-.112-.94-.159-1.357l.545.089c-.13.447-.289.942-.476 1.483a45.367 45.367 0 01-.794 2.084 18.559 18.559 0 01-1.002 2.046 8.214 8.214 0 01-1.234 1.65c-.437.438-.91.7-1.42.787zm16.055-2.733a.734.734 0 01-.767-.307c-.181-.273-.314-.62-.398-1.043a15.2 15.2 0 01-.107-.729 10.266 10.266 0 01-.072-.843 46.09 46.09 0 00-.01-.8l.041-.826c.028-.333.055-.671.081-1.016.036-.358.065-.685.088-.98.032-.309.053-.543.062-.702-.003-.158-.058-.264-.164-.318-.109-.067-.283-.08-.52-.04-.189.033-.395.08-.615.142a9.988 9.988 0 00-.711.23c-.584.22-1.09.501-1.519.841-.42.327-.631.654-.636.983-.012.281.06.524.217.728.166.19.451.318.852.383.413.063.987.032 1.722-.093a14.763 14.763 0 001.515-.331c.244-.078.446-.137.61-.177.162-.052.267-.081.314-.09.296-.05.547-.075.756-.073.207 0 .305.111.294.332.005.242-.093.453-.293.633-.19.177-.456.326-.801.445a7.38 7.38 0 01-1.193.295l-1.831.311c-.64.11-1.25.104-1.832-.016-.569-.121-1.029-.352-1.381-.693-.339-.343-.506-.782-.501-1.317.016-.33.114-.687.292-1.07.188-.396.487-.787.896-1.172.421-.387.995-.74 1.72-1.058a9.23 9.23 0 011.323-.498c.36-.098.725-.178 1.092-.24.462-.08.835-.076 1.117.01.284.085.492.231.625.44.145.205.213.46.204.766-.004.255-.03.57-.075.941-.048.36-.094.733-.137 1.116-.034.37-.062.703-.085.998-.01.293-.011.61-.001.948.007.326.025.645.054.955.029.311.063.578.102.803.044.26.098.535.16.828.072.28.107.474.101.584a.705.705 0 01-.158.464.675.675 0 01-.431.256zm-6.259 1.047c-.213.036-.39-.006-.534-.128a.664.664 0 01-.195-.495.87.87 0 01.2-.434c.118-.166.329-.36.631-.581a9.43 9.43 0 001.501-1.385c.49-.545.973-1.143 1.447-1.794l1.229.446a19.786 19.786 0 01-2.285 2.884c-.391.419-.759.76-1.103 1.026-.345.265-.641.419-.891.46zM92.167 64.619c-.604.103-1.117.063-1.538-.12a2.316 2.316 0 01-.982-.817 3.937 3.937 0 01-.507-1.243 6.754 6.754 0 01-.13-1.398c.021-.514.083-1.076.185-1.689.114-.614.255-1.209.425-1.784a8.58 8.58 0 01.55-1.478 1.54 1.54 0 01.292-.432c.126-.118.263-.209.41-.27a1.59 1.59 0 01.45-.15c.142-.024.251.006.327.09.073.073.105.189.096.348-.005.183-.067.425-.186.724-.108.298-.24.66-.399 1.088-.146.425-.279.928-.399 1.506a10.692 10.692 0 00-.21 1.967c-.025.78.097 1.38.363 1.795.267.416.702.573 1.306.47.45-.077.88-.271 1.29-.584.41-.313.752-.699 1.026-1.158.285-.473.442-.974.474-1.501l.253.303a4.757 4.757 0 00-1.112-.084c-.415-.002-.855.024-1.321.08-.457.04-.902.11-1.336.209a8.412 8.412 0 00-1.155.305l.03-1.207a8.291 8.291 0 001.706-.509 6.808 6.808 0 001.38-.8c.4-.298.715-.594.944-.888.228-.306.34-.574.338-.805.007-.17-.057-.293-.192-.368-.136-.086-.335-.106-.596-.062-.32.055-.65.16-.988.314a14.89 14.89 0 00-1.041.542c-.367.208-.756.426-1.168.654-.17.077-.322.079-.456.005a.338.338 0 01-.168-.336c.007-.171.094-.344.259-.518.175-.187.345-.332.51-.433.658-.5 1.283-.874 1.875-1.12a7.473 7.473 0 011.701-.527c.427-.072.788-.067 1.082.016.307.082.539.224.696.428.169.202.248.45.237.743-.006.39-.122.78-.347 1.17-.226.39-.532.77-.92 1.14a7.577 7.577 0 01-1.279.965 8.109 8.109 0 01-1.523.714l-.027-.687a17.072 17.072 0 011.546-.264c.49-.059.925-.078 1.307-.058.381.02.683.108.905.265.232.142.367.362.406.659.058.476-.027.976-.254 1.5a5.01 5.01 0 01-.975 1.459c-.42.46-.907.859-1.458 1.195a4.916 4.916 0 01-1.702.636zm16.133-2.874c-.783.133-1.415.137-1.9.013-.485-.123-.859-.351-1.124-.682-.252-.334-.426-.741-.521-1.223a7.93 7.93 0 01-.096-1.623c.017-.61.072-1.244.166-1.903.105-.674.241-1.37.409-2.092.109-.43.216-.765.322-1.001.106-.237.247-.37.424-.4a.774.774 0 01.65.162c.182.139.264.362.244.669-.005.183-.058.483-.157.9-.087.416-.18.936-.28 1.56-.1.624-.164 1.351-.191 2.181-.018.538.037.965.165 1.284a1.1 1.1 0 00.676.631c.322.103.75.11 1.283.018.331-.056.769-.137 1.312-.241.541-.117 1.123-.24 1.746-.37l1.836-.386a78.41 78.41 0 001.6-.382 18.28 18.28 0 001.009-.299c.149-.05.278-.12.384-.211.104-.103.164-.253.179-.45.034-.721.008-1.403-.077-2.044a12.659 12.659 0 00-.326-1.784 15.121 15.121 0 00-.376-1.338c-.112-.37-.175-.632-.191-.787a.614.614 0 01.171-.503.746.746 0 01.445-.276c.273-.046.493.026.659.216.178.176.333.41.469.703.098.214.196.537.295.97.109.418.208.893.3 1.424.103.528.176 1.062.22 1.601.053.525.075 1.007.065 1.446-.024.708-.173 1.256-.448 1.642-.266.373-.72.67-1.365.889a16.7 16.7 0 01-1.084.293c-.494.109-1.058.229-1.693.362a52.96 52.96 0 01-1.943.403 112.051 112.051 0 01-3.257.628zm3.012-.987a.674.674 0 01-.415-.075.643.643 0 01-.304-.385 5.919 5.919 0 01-.192-1.115c-.031-.468-.053-.95-.065-1.446-.002-.51.003-.971.017-1.387a16.97 16.97 0 01.157-1.957c.085-.573.162-.974.232-1.205a1.09 1.09 0 01.2-.434.584.584 0 01.398-.232.58.58 0 01.416.075.813.813 0 01.295.332c.073.145.11.321.109.528a3.73 3.73 0 01-.075.632c-.04.261-.084.572-.132.933-.036.358-.059.75-.071 1.177-.015.343-.015.731-.001 1.166.026.433.058.87.098 1.313.037.43.08.824.129 1.18.02.118-.019.246-.117.384a1.83 1.83 0 01-.324.346.795.795 0 01-.355.17zm16.127-2.236c-.356.06-.765.021-1.228-.119a6.534 6.534 0 01-1.413-.67 11.715 11.715 0 01-1.321-.977 6.846 6.846 0 01-.986-1.052 1.752 1.752 0 01-.319-.474 2.246 2.246 0 01-.1-.474c.02-.1.049-.215.088-.343a1.23 1.23 0 01.176-.358c.109-.213.308-.508.598-.885.288-.377.626-.786 1.013-1.229.398-.456.812-.884 1.242-1.286.441-.415.862-.766 1.264-1.053.414-.288.78-.46 1.101-.515a.468.468 0 01.317.037.505.505 0 01.218.2c.051.088.079.18.084.277.032.262-.097.539-.388.831a9.654 9.654 0 01-.953.836c-.611.493-1.145.966-1.604 1.42-.458.455-.823.85-1.094 1.188-.26.336-.385.564-.376.684-.008.098.052.233.179.406.127.173.313.366.557.58.256.21.554.42.895.63.353.207.739.396 1.158.567.25.104.492.202.728.295.246.08.444.174.597.281.163.094.251.218.266.374a.712.712 0 01-.324.674.872.872 0 01-.375.155zm-5.92.99c-.309.052-.542-.066-.701-.354-.162-.3-.27-.75-.324-1.347a24.187 24.187 0 01-.036-2.234c.01-.366.029-.752.056-1.157l.119-1.222c.038-.42.06-.824.066-1.214.007-.098.009-.195.005-.292a2.98 2.98 0 00-.002-.327 2.12 2.12 0 01.096-.617c.056-.168.131-.302.223-.403a.575.575 0 01.331-.202c.273-.046.507.041.703.263.207.208.301.538.281.99-.009.305-.041.687-.096 1.146-.045.444-.094.902-.147 1.372a15.2 15.2 0 00-.099 1.237c-.002.632.01 1.194.034 1.688.035.492.076.898.119 1.218.04.31.053.526.038.65a.813.813 0 01-.096.398.682.682 0 01-.231.258.664.664 0 01-.339.149zm12.699-2.126c-.972.165-1.808.09-2.509-.229a3.322 3.322 0 01-1.574-1.498c-.351-.693-.518-1.52-.501-2.482a5 5 0 01.377-1.85c.245-.563.539-1.05.883-1.46a4.757 4.757 0 011.113-.973c.384-.248.725-.397 1.021-.447a.838.838 0 01.329-.002.4.4 0 01.243.14c.072.062.107.159.105.292-.018.246-.076.48-.171.704-.098.21-.312.423-.641.637a5.064 5.064 0 00-.968.857c-.244.284-.427.6-.55.95a3.286 3.286 0 00-.182 1.177c-.025.988.22 1.736.733 2.243.512.496 1.195.67 2.048.526.83-.142 1.501-.56 2.016-1.254.524-.709.796-1.575.815-2.598.034-.94-.147-1.638-.543-2.093-.397-.466-.952-.639-1.662-.518-.367.063-.669.187-.905.373a6.55 6.55 0 00-.72.705 5.434 5.434 0 00-.434.566 2.893 2.893 0 01-.297.396.612.612 0 01-.355.17.504.504 0 01-.418-.093c-.103-.103-.153-.283-.148-.539.001-.28.09-.58.266-.901.188-.324.428-.632.719-.924a4.555 4.555 0 011.001-.771c.365-.22.737-.362 1.116-.427.852-.145 1.581-.063 2.182.248.6.298 1.055.78 1.364 1.443.307.652.443 1.442.408 2.37-.014.913-.2 1.746-.558 2.5a5.1 5.1 0 01-1.477 1.835c-.612.48-1.321.79-2.126.927zm6.333-1.079a.502.502 0 01-.417-.092.754.754 0 01-.228-.362 1.175 1.175 0 01-.073-.534c.01-.22.074-.523.192-.907.126-.398.293-.845.5-1.342a49.39 49.39 0 01.651-1.531c.249-.54.504-1.075.766-1.606a24.04 24.04 0 01.792-1.464c.252-.443.466-.796.641-1.056.275-.387.547-.682.817-.886.279-.217.574-.352.881-.405.285-.048.497.019.638.201.139.17.264.398.374.683.112.297.227.648.345 1.052.118.405.246.82.38 1.247.132.414.274.815.426 1.202.18.48.342.889.485 1.229.156.337.297.623.422.857.137.231.263.428.376.591.11.14.198.264.266.374.067.11.106.23.117.362.014.156-.008.311-.066.467a.842.842 0 01-.265.373.711.711 0 01-.388.193c-.224.039-.445-.033-.659-.215-.204-.196-.404-.472-.599-.827a14.114 14.114 0 01-.566-1.16l-.416-1.04a64.86 64.86 0 01-.504-1.444 48.48 48.48 0 01-.481-1.52 21.85 21.85 0 01-.302-1.224l.379.08c-.278.364-.573.815-.882 1.353a34.292 34.292 0 00-.927 1.742 43.55 43.55 0 00-.886 1.972 29.53 29.53 0 00-.732 2.019 8.26 8.26 0 01-.496 1.159c-.136.266-.323.42-.561.46zm13.673-2.364c-.734.125-1.368.13-1.9.014-.522-.13-.945-.355-1.269-.676a3.077 3.077 0 01-.722-1.225 5.251 5.251 0 01-.191-1.643c.031-.6.156-1.216.377-1.849.23-.646.546-1.252.949-1.819a6.11 6.11 0 011.455-1.431 4.49 4.49 0 011.861-.772c.628-.107 1.16-.095 1.597.037.449.13.784.377 1.006.74.232.36.34.846.323 1.456a3.04 3.04 0 01-.364 1.392 3.866 3.866 0 01-.923 1.122c-.384.32-.83.596-1.339.829a6.977 6.977 0 01-1.636.479c-.806.137-1.361.134-1.667-.008-.292-.144-.435-.338-.428-.582-.001-.146.035-.255.108-.328.07-.085.194-.143.372-.173.131-.022.289-.025.474-.008.196.003.478-.027.844-.09a4.899 4.899 0 001.557-.52c.457-.247.816-.539 1.075-.874.258-.348.395-.717.413-1.109.01-.366-.083-.623-.279-.772-.185-.15-.507-.186-.97-.108a2.99 2.99 0 00-1.278.546 4.61 4.61 0 00-1.029 1.031 5.231 5.231 0 00-.696 1.375 4.981 4.981 0 00-.267 1.539c-.009.439.051.829.183 1.17.131.33.357.583.68.759.332.162.772.196 1.316.104.616-.105 1.13-.272 1.542-.5a5.169 5.169 0 001.04-.76c.272-.264.5-.492.687-.681.188-.19.364-.299.529-.327.202-.034.358.018.467.157.119.126.175.31.168.554-.007.245-.124.52-.352.825a4.646 4.646 0 01-.909.883 6.73 6.73 0 01-1.292.785 6.165 6.165 0 01-1.512.458z" fill="#7831B2"/></svg>