<svg width="219" height="86" fill="none" xmlns="http://www.w3.org/2000/svg"><path d="M7.95 13.77a4.227 4.227 0 01-1.25-.191 8.32 8.32 0 01-1.4-.564 9.823 9.823 0 01-1.341-.873 7.37 7.37 0 01-1.1-1.072 4.52 4.52 0 01-.715-1.208 2.27 2.27 0 01-.117-1.25c.08-.478.277-.963.593-1.456a8.481 8.481 0 011.224-1.498 15.22 15.22 0 011.742-1.473c.65-.487 1.356-.953 2.115-1.398.385-.223.696-.395.931-.518.236-.123.44-.186.612-.188.195-.003.341.054.44.172.11.106.14.268.088.486-.029.217-.139.42-.33.606-.181.177-.464.37-.85.582-.759.424-1.448.857-2.068 1.3-.608.432-1.136.852-1.583 1.26A7.583 7.583 0 003.907 7.64c-.254.35-.406.657-.456.917-.05.315.01.656.177 1.022.179.355.454.713.826 1.076.373.352.836.68 1.391.986a8.71 8.71 0 001.889.72c.444.133.727.264.848.392.131.128.177.29.136.486a.595.595 0 01-.22.393c-.117.089-.3.135-.548.139zm-7.153.11c-.26.005-.45-.095-.572-.3-.11-.203-.159-.539-.144-1.005.025-.477.107-1.112.246-1.905.16-.859.341-1.663.546-2.414a92.8 92.8 0 01.568-2.04 12.58 12.58 0 00.35-1.453c.07-.358.109-.64.116-.847.008-.217.01-.412.008-.585a2.562 2.562 0 01.056-.553c.04-.218.118-.376.235-.475a.685.685 0 01.451-.17c.237-.004.406.075.505.236.11.161.179.377.205.647.025.26.019.542-.02.846-.028.293-.067.57-.117.83a13.35 13.35 0 01-.396 1.616c-.174.61-.353 1.246-.537 1.91a23.208 23.208 0 00-.457 1.908c-.1.555-.168.994-.206 1.32-.039.326-.062.586-.07.781a6.154 6.154 0 01-.04.505c-.009.14-.028.32-.057.537a.833.833 0 01-.236.443.624.624 0 01-.434.169zm12.663-.178c-.884.014-1.615-.17-2.193-.551a3.001 3.001 0 01-1.19-1.558c-.215-.669-.248-1.432-.099-2.29a4.54 4.54 0 01.59-1.603 5.38 5.38 0 01.986-1.185 4.28 4.28 0 011.122-.716c.376-.169.698-.255.968-.259a.743.743 0 01.292.044.362.362 0 01.196.16c.055.064.073.156.053.275a1.99 1.99 0 01-.25.606c-.116.175-.334.335-.656.481-.386.19-.711.401-.978.633-.255.22-.462.478-.62.773a3.008 3.008 0 00-.323 1.03c-.16.88-.046 1.582.34 2.107.385.514.966.765 1.743.753.755-.011 1.409-.292 1.962-.842.563-.562.924-1.299 1.083-2.211.16-.837.096-1.486-.192-1.948-.287-.472-.755-.704-1.402-.694-.335.006-.62.075-.855.209a5.91 5.91 0 00-.737.531 4.902 4.902 0 00-.462.446 2.733 2.733 0 01-.32.314.55.55 0 01-.338.103.451.451 0 01-.358-.141c-.077-.107-.096-.275-.056-.503.04-.25.16-.507.36-.77.212-.263.468-.505.767-.727.309-.232.64-.416.995-.551a2.846 2.846 0 011.048-.228c.777-.012 1.411.163 1.902.524.491.35.828.843 1.01 1.48.182.625.194 1.351.033 2.177a5.427 5.427 0 01-.84 2.158 4.604 4.604 0 01-1.565 1.439 4.152 4.152 0 01-2.015.534zm6.627-.118c-.259.004-.456-.144-.59-.446-.134-.301-.146-.756-.037-1.364.05-.294.146-.74.287-1.338.142-.609.364-1.262.667-1.96.354-.83.673-1.485.957-1.966.284-.492.565-.848.842-1.07.277-.22.561-.333.852-.337a.58.58 0 01.523.268c.132.182.227.403.285.662.058.26.105.519.141.778.049.346.108.73.18 1.151.082.422.17.848.262 1.28.104.432.218.842.343 1.23.135.388.286.717.452.985l-.581.139a38.96 38.96 0 01.975-1.868c.347-.623.694-1.219 1.041-1.788.348-.569.674-1.077.98-1.526.339-.472.625-.806.86-1.005.244-.199.464-.3.658-.303.14-.002.27.029.39.092.12.052.223.115.31.19.121.117.215.262.282.435.068.172.083.432.045.779-.085.782-.14 1.487-.162 2.116a26.42 26.42 0 00.007 1.56c.022.747.086 1.342.19 1.785.114.442.156.729.126.86a.49.49 0 01-.221.344.666.666 0 01-.435.153c-.26.004-.477-.117-.653-.364-.166-.246-.273-.58-.323-1.002-.05-.39-.09-.882-.12-1.478-.02-.595-.014-1.262.018-2 .043-.748.117-1.518.224-2.31l.468-.122a114.557 114.557 0 00-1.803 2.824 84.52 84.52 0 00-.915 1.558c-.283.513-.535 1-.754 1.458a1.562 1.562 0 01-.414.494.837.837 0 01-.531.187 1.113 1.113 0 01-.65-.169 1.707 1.707 0 01-.429-.513 5.978 5.978 0 01-.303-.743l-.187-.632a22.455 22.455 0 01-.468-2.04 23.79 23.79 0 01-.18-1.152 9.935 9.935 0 01-.081-1.087l.483-.138a18.203 18.203 0 00-.947 1.575 12.058 12.058 0 00-.672 1.587c-.175.534-.323 1.11-.443 1.73-.08.424-.139.793-.177 1.108a8.27 8.27 0 01-.086.716c-.04.185-.114.343-.22.475-.106.132-.261.2-.466.202zm15.525-.238c-.712.01-1.297-.132-1.755-.428a2.706 2.706 0 01-.99-1.27c-.203-.549-.31-1.181-.321-1.896-.011-.726.058-1.507.207-2.344.129-.75.324-1.424.584-2.024.26-.611.555-1.141.882-1.59a5.97 5.97 0 011.068-1.138 4.323 4.323 0 011.123-.668 7.855 7.855 0 011.515-.413c.517-.084.98-.172 1.388-.265.473-.105.876-.22 1.209-.344.332-.124.585-.188.758-.19a.677.677 0 01.357.092.582.582 0 01.302.661c-.03.185-.14.344-.333.477a2.69 2.69 0 01-.724.303c-.58.172-1.112.294-1.597.366-.474.062-.91.123-1.308.183-.399.05-.785.158-1.16.327-.365.146-.723.406-1.073.78a5.69 5.69 0 00-.918 1.363 6.807 6.807 0 00-.572 1.813c-.209 1.163-.297 2.107-.264 2.833.043.714.213 1.237.51 1.568.307.332.73.493 1.27.485a2.535 2.535 0 001.112-.294c.375-.2.721-.46 1.04-.78a4.97 4.97 0 00.826-1.036 3.15 3.15 0 00.436-1.112c.08-.392.07-.722-.03-.991a1.044 1.044 0 00-.528-.626c-.262-.148-.608-.218-1.04-.212-.571.01-1.21.181-1.918.517-.696.336-1.395.84-2.097 1.512l-.528-.61a6.24 6.24 0 011.482-1.534 6.024 6.024 0 011.735-.905 5.592 5.592 0 011.71-.318c.659-.01 1.21.106 1.657.348.446.231.764.573.955 1.026.19.452.215 1.015.074 1.689a5.393 5.393 0 01-.638 1.667 6.801 6.801 0 01-1.143 1.48 6.165 6.165 0 01-1.522 1.08 4.111 4.111 0 01-1.741.418zm8.064-.124c-.367.005-.66-.077-.878-.247a1.52 1.52 0 01-.463-.675 2.972 2.972 0 01-.16-.94c.005-.348.038-.684.098-1.01.06-.283.141-.62.243-1.011.113-.392.236-.8.37-1.225.134-.425.263-.822.387-1.193.134-.37.243-.659.326-.866a7.87 7.87 0 01.36-.883c.115-.208.253-.313.415-.316.14-.002.27.045.39.14.121.096.21.22.265.37a.882.882 0 01.057.504c-.03.173-.102.424-.215.75a111.9 111.9 0 01-.389 1.095c-.144.404-.284.812-.418 1.226a8.168 8.168 0 00-.29 1.093c-.061.294-.1.576-.117.848-.018.26-.004.476.042.649.046.162.139.242.279.24.345-.006.777-.321 1.297-.947.53-.626 1.115-1.485 1.757-2.579a25.3 25.3 0 00.773-1.345c.22-.415.414-.775.582-1.081.168-.317.331-.563.49-.74.16-.175.32-.264.482-.267.248-.003.428.091.539.285.121.182.179.43.173.745.004.281-.001.628-.017 1.04l-.013 1.268c-.004.423.002.818.018 1.186.042.628.11 1.142.202 1.541.103.389.194.702.273.939.08.237.115.432.106.583a.8.8 0 01-.108.344.868.868 0 01-.239.247.57.57 0 01-.322.102c-.248.004-.455-.106-.62-.331-.155-.225-.278-.543-.37-.954-.093-.41-.17-.891-.233-1.443-.028-.39-.056-.806-.084-1.25a27.409 27.409 0 01-.02-1.332c.014-.445.03-.857.046-1.236l.471.155a67.53 67.53 0 01-.408.803c-.136.283-.304.606-.504.966-.188.35-.425.765-.709 1.246a16.754 16.754 0 01-1.172 1.693 7.42 7.42 0 01-1.324 1.304c-.448.332-.904.502-1.368.509zm9.669-.149c-.388.006-.651-.24-.788-.736s-.131-1.157.018-1.983c.121-.576.26-1.011.417-1.306.168-.306.36-.515.574-.627.117-.067.284-.107.5-.121a6.81 6.81 0 01.679-.043 23.647 23.647 0 002.328-.15 11.732 11.732 0 002.275-.522l.308 1.116a9.265 9.265 0 01-1.805.516c-.646.118-1.303.204-1.97.258-.658.042-1.3.068-1.926.078l-.94-.132c.13-.641.265-1.315.405-2.022.14-.706.26-1.337.36-1.89a1.35 1.35 0 01.25-.638c.126-.165.27-.248.433-.25.27-.005.47.1.603.315.133.204.154.534.064.99-.04.24-.1.527-.181.865-.081.337-.167.69-.259 1.06-.08.37-.162.723-.243 1.06-.07.327-.126.598-.166.816-.12.63-.208 1.195-.265 1.694-.047.489-.09.858-.129 1.107a.681.681 0 01-.205.377.444.444 0 01-.337.168zm5.583-.086c-.27.004-.466-.15-.59-.462-.112-.313-.167-.74-.165-1.282.014-.552.08-1.16.2-1.823.2-1.043.375-1.87.528-2.479.163-.62.312-1.11.447-1.47.083-.24.187-.452.314-.638s.282-.28.465-.284c.237-.003.406.108.507.334.111.215.137.48.077.795-.07.391-.182.816-.337 1.273-.144.457-.26.952-.35 1.485-.12.652-.202 1.243-.248 1.775-.035.52-.055.96-.06 1.318-.006.357-.029.623-.07.797a.76.76 0 01-.251.475.707.707 0 01-.467.186zm4.902-.091c-.497.007-.903-.106-1.22-.34-.305-.233-.52-.56-.646-.98-.114-.421-.122-.91-.022-1.463a5.932 5.932 0 01.51-1.568 7.959 7.959 0 01.964-1.51 7.76 7.76 0 011.26-1.272c.469-.375.96-.67 1.476-.884a4.344 4.344 0 011.58-.333c.249-.004.444.058.586.186.143.128.189.322.139.583a.618.618 0 01-.173.344c-.096.088-.235.145-.418.17-.754.12-1.451.4-2.092.844a6.176 6.176 0 00-1.578 1.6 5.22 5.22 0 00-.812 1.931 4.3 4.3 0 00-.084.863c.004.25.063.573.177.973l-.633-1.112c.198.246.374.406.526.48.163.073.39.107.681.103.69-.01 1.385-.466 2.084-1.365.698-.9 1.337-2.204 1.915-3.914.072-.207.172-.366.3-.476a.728.728 0 01.483-.186.622.622 0 01.571.316c.144.203.207.468.19.793a29.665 29.665 0 00-.036 1.854c.02.541.086 1.05.201 1.525.126.475.339.964.638 1.469a.62.62 0 01.087.373.799.799 0 01-.108.407.887.887 0 01-.27.33.658.658 0 01-.386.12.688.688 0 01-.39-.092.84.84 0 01-.231-.273 7.466 7.466 0 01-.418-.887 6.399 6.399 0 01-.308-1.069 8.371 8.371 0 01-.103-1.444c.002-.553.046-1.21.132-1.97l.582-.024c-.34 1.088-.72 2.01-1.14 2.764-.42.743-.864 1.346-1.331 1.808-.458.452-.916.784-1.377.997-.461.213-.896.322-1.306.329zm14.94 1.964c-.216.004-.368-.075-.457-.236a.664.664 0 01-.088-.47c.02-.13.071-.3.154-.507.094-.207.188-.436.281-.687.104-.25.187-.496.248-.735l.44.172a48.154 48.154 0 00-1.957.095c-.4.028-.81.05-1.23.068-.42.028-.825.05-1.213.067a37.41 37.41 0 01-1.035.032c-.604.01-1.043-.092-1.316-.304-.273-.213-.429-.514-.467-.904-.038-.389-.007-.845.093-1.366.05-.283.125-.636.226-1.06.101-.435.213-.887.336-1.354.133-.468.26-.91.384-1.323.134-.414.248-.74.341-.98.114-.306.251-.54.41-.706a.824.824 0 01.628-.27c.14-.002.26.056.358.174.1.107.14.269.121.486.001.076-.055.282-.168.62l-.386 1.257c-.144.49-.292 1.013-.446 1.568a22.832 22.832 0 00-.349 1.533c-.09.489-.1.836-.032 1.04.078.194.306.288.684.283.54-.009 1.04-.027 1.505-.056.474-.029.916-.057 1.326-.085.409-.04.792-.072 1.147-.1.356-.037.69-.059 1.003-.063.431-.007.72.097.863.311.154.215.201.474.141.778a4.25 4.25 0 01-.169.604c-.072.24-.154.48-.248.72-.093.24-.171.446-.233.62a6.095 6.095 0 01-.253.395.838.838 0 01-.271.28.707.707 0 01-.37.103zm-1.537-3.13c.103-.315.211-.674.324-1.077l.337-1.257c.123-.424.214-.816.273-1.174.07-.348.125-.669.163-.962a35.43 35.43 0 00.172-1.466c.03-.206.06-.385.09-.537.049-.283.132-.506.248-.67a.647.647 0 01.546-.269.567.567 0 01.473.22c.121.15.183.34.187.567a7.04 7.04 0 01-.098 1.009c-.049.347-.103.706-.162 1.075-.06.283-.136.625-.227 1.028-.09.402-.187.82-.288 1.256a49.75 49.75 0 01-.305 1.24c-.102.38-.194.696-.277.947l-1.456.07zm6.38.878c-.367.005-.66-.077-.878-.247a1.52 1.52 0 01-.463-.675 2.975 2.975 0 01-.16-.94c.005-.347.038-.684.098-1.01.06-.282.141-.62.243-1.011.113-.392.236-.8.37-1.225.134-.425.263-.822.387-1.192.134-.371.243-.66.326-.867a7.87 7.87 0 01.359-.883c.116-.208.254-.313.416-.315.14-.003.27.044.39.14a.83.83 0 01.265.37c.067.15.086.318.057.503-.03.173-.102.424-.216.75-.113.327-.243.692-.388 1.096-.144.403-.284.811-.418 1.225a8.17 8.17 0 00-.29 1.094 5.99 5.99 0 00-.117.847c-.018.26-.004.476.042.65.046.16.138.24.279.239.345-.006.777-.321 1.296-.947.53-.626 1.116-1.485 1.758-2.579a25.3 25.3 0 00.773-1.344 86.4 86.4 0 01.582-1.082c.168-.317.331-.563.49-.74.16-.175.32-.264.482-.267.248-.003.428.091.539.285.121.182.179.43.173.745.004.281-.001.628-.017 1.04l-.013 1.268c-.004.423.002.818.018 1.187.042.627.11 1.141.202 1.54.103.39.194.702.273.94.08.236.115.43.106.583a.8.8 0 01-.108.343.868.868 0 01-.239.247.57.57 0 01-.322.103c-.378.005-.651-.24-.82-.736-.17-.495-.304-1.16-.403-1.993-.028-.39-.056-.806-.084-1.25a27.536 27.536 0 01-.02-1.332c.014-.445.03-.857.045-1.236l.472.155c-.177.382-.387.802-.628 1.261a41.46 41.46 0 01-.993 1.755 17.02 17.02 0 01-1.172 1.692 7.42 7.42 0 01-1.324 1.304c-.448.332-.904.502-1.368.509zm14.621-.225a.656.656 0 01-.637-.38c-.123-.27-.193-.599-.21-.988-.003-.195 0-.418.006-.667a9.71 9.71 0 01.053-.765c.04-.26.074-.5.103-.716l.15-.734c.072-.294.143-.593.213-.897.082-.316.153-.604.214-.865.071-.272.122-.479.152-.62.02-.141-.014-.244-.102-.307-.087-.075-.239-.11-.454-.107a5.42 5.42 0 00-.566.041 8.46 8.46 0 00-.662.108 5.042 5.042 0 00-1.465.542c-.417.234-.65.498-.7.791a.98.98 0 00.091.682c.122.193.356.346.703.46.358.114.871.165 1.54.155a14.07 14.07 0 001.392-.087 8.29 8.29 0 01.564-.073c.151-.024.248-.036.291-.037.27-.004.497.009.68.038.185.03.257.143.216.338a.727.727 0 01-.348.526c-.192.133-.45.229-.772.288a6.53 6.53 0 01-1.1.098l-1.666.026a4.387 4.387 0 01-1.623-.268c-.489-.187-.865-.458-1.13-.811-.253-.354-.34-.77-.261-1.248.06-.293.195-.599.406-.916.222-.329.541-.637.958-.925.427-.289.984-.525 1.672-.709a8.238 8.238 0 011.243-.263c.334-.037.668-.059 1.002-.064.421-.006.751.048.99.164.24.115.404.275.493.48.1.204.126.442.076.714-.04.228-.106.505-.198.832-.092.316-.184.642-.276.98-.082.326-.153.62-.214.88-.05.261-.094.544-.132.848-.039.293-.067.58-.084.862a9.712 9.712 0 00-.022.732c.004.238.013.493.028.764.026.26.029.438.008.536a.637.637 0 01-.204.393.603.603 0 01-.418.17zm-5.697.072a.556.556 0 01-.456-.189.603.603 0 01-.104-.47c.03-.119.11-.24.237-.36.127-.133.341-.277.64-.433a8.5 8.5 0 001.523-1.031c.511-.42 1.022-.888 1.532-1.405l1.029.569a18.062 18.062 0 01-2.426 2.265 8.4 8.4 0 01-1.122.764c-.342.19-.627.286-.853.29zm14.899-.213c-.259.004-.455-.145-.59-.446-.134-.302-.146-.757-.037-1.365.05-.293.146-.74.288-1.337.141-.61.363-1.263.666-1.961.354-.83.673-1.484.957-1.965.284-.492.565-.849.842-1.07.277-.22.561-.333.853-.338a.58.58 0 01.522.268c.132.183.227.403.285.662.058.26.105.519.141.778.049.346.109.73.18 1.152.082.421.169.848.262 1.28.104.432.218.842.343 1.23.135.388.286.716.452.984l-.581.14c.304-.623.629-1.246.975-1.869.347-.623.694-1.219 1.041-1.787.348-.57.674-1.078.981-1.527.338-.471.624-.806.858-1.005.246-.199.465-.3.659-.302a.792.792 0 01.39.091c.12.052.223.116.311.19.12.118.214.263.282.435.067.172.082.432.044.78a29.83 29.83 0 00-.162 2.115c-.012.618-.01 1.138.007 1.56.023.748.086 1.342.19 1.785.114.443.156.73.126.86a.488.488 0 01-.221.345.67.67 0 01-.435.152c-.259.004-.477-.117-.653-.363-.166-.247-.273-.581-.323-1.003a20.92 20.92 0 01-.12-1.477c-.02-.596-.014-1.263.018-2a30.77 30.77 0 01.224-2.311l.468-.121a113.73 113.73 0 00-1.803 2.823c-.315.525-.62 1.044-.915 1.558-.283.514-.535 1-.754 1.458a1.57 1.57 0 01-.414.494.835.835 0 01-.531.187 1.112 1.112 0 01-.65-.168 1.705 1.705 0 01-.429-.514 5.982 5.982 0 01-.302-.743 20.578 20.578 0 01-.429-1.57 21.562 21.562 0 01-.227-1.102 22.505 22.505 0 01-.18-1.151 9.93 9.93 0 01-.081-1.088l.483-.137a18.456 18.456 0 00-.947 1.575 12.059 12.059 0 00-.672 1.587c-.175.533-.323 1.11-.443 1.73-.08.423-.139.792-.177 1.107a8.444 8.444 0 01-.086.717 1.136 1.136 0 01-.22.475c-.106.131-.261.199-.466.202zm15.345-.252c-.669.01-1.231-.074-1.687-.25-.445-.189-.789-.45-1.032-.781a2.79 2.79 0 01-.471-1.196 4.766 4.766 0 01.058-1.496 6.048 6.048 0 01.591-1.602 6.7 6.7 0 011.094-1.496 5.48 5.48 0 011.489-1.08 4.01 4.01 0 011.757-.433c.572-.009 1.043.076 1.413.255.38.178.643.445.789.8.156.355.185.805.085 1.348a2.748 2.748 0 01-.516 1.195 3.48 3.48 0 01-.974.876 5.281 5.281 0 01-1.303.556 6.225 6.225 0 01-1.518.203c-.734.01-1.226-.068-1.477-.238-.24-.17-.34-.363-.3-.58.02-.13.067-.224.141-.279.075-.066.193-.1.355-.103.119-.002.259.018.422.059.173.03.427.042.761.037a4.371 4.371 0 001.453-.25c.44-.159.799-.37 1.075-.634a1.81 1.81 0 00.52-.935c.06-.326.013-.569-.141-.73-.142-.16-.424-.236-.845-.23a2.67 2.67 0 00-1.209.311 4.15 4.15 0 00-1.057.78c-.318.33-.588.708-.808 1.134-.22.426-.37.873-.449 1.34a2.8 2.8 0 000 1.073c.07.313.236.57.498.772.272.191.657.283 1.153.275.561-.008 1.04-.086 1.437-.233a4.61 4.61 0 001.028-.536c.278-.2.512-.37.704-.515.192-.144.364-.217.515-.219.183-.003.314.066.392.205.088.129.112.302.072.52-.039.217-.182.446-.426.689a4.197 4.197 0 01-.929.664 6.02 6.02 0 01-1.255.523 5.51 5.51 0 01-1.405.2zm6.101-6.66c-.249.003-.444-.07-.587-.22a.574.574 0 01.053-.83c.095-.087.267-.166.514-.235.387-.114.903-.22 1.549-.316a17.827 17.827 0 012.296-.165 21.76 21.76 0 011.247.013c.388.005.815.036 1.28.094.367.038.649.12.846.247.206.127.295.272.265.435a.743.743 0 01-.141.327.675.675 0 01-.288.216 1.09 1.09 0 01-.452.088 10.94 10.94 0 01-.793-.02 96.777 96.777 0 00-.972-.05c-.335-.028-.68-.038-1.036-.033-.745.011-1.343.053-1.795.125a9.28 9.28 0 00-1.13.212c-.301.07-.587.107-.856.111zm2.447 6.56a.585.585 0 01-.539-.284 2.182 2.182 0 01-.238-.744 6.476 6.476 0 01-.014-.926c.026-.401.074-.835.142-1.302.068-.478.142-.94.222-1.385.109-.598.204-1.125.283-1.581.09-.468.16-.853.209-1.158l1.455-.12-.151.702c-.05.271-.104.581-.164.929-.059.337-.124.684-.194 1.043-.06.348-.119.684-.179 1.01-.1.544-.163 1-.19 1.369-.016.358-.017.65-.003.877.015.228.028.417.041.569.013.14.01.27-.01.39a.864.864 0 01-.124.327.615.615 0 01-.24.199.62.62 0 01-.306.086zm8.485-.13c-.885.014-1.616-.17-2.194-.551a3.002 3.002 0 01-1.189-1.559c-.215-.668-.248-1.431-.099-2.29a4.538 4.538 0 01.59-1.602 5.38 5.38 0 01.986-1.185 4.28 4.28 0 011.122-.716c.375-.169.698-.255.967-.26a.742.742 0 01.292.045.361.361 0 01.197.16c.055.064.072.156.053.275-.051.218-.134.42-.25.605-.116.176-.335.336-.656.482a4.51 4.51 0 00-.978.633c-.256.22-.462.478-.62.773a3.026 3.026 0 00-.324 1.03c-.159.88-.046 1.582.34 2.107.385.514.967.765 1.743.753.756-.011 1.41-.292 1.962-.843.564-.56.925-1.298 1.083-2.21.16-.837.097-1.487-.191-1.948-.288-.472-.755-.704-1.403-.694a1.765 1.765 0 00-.854.208 5.897 5.897 0 00-.737.532 4.924 4.924 0 00-.463.446 2.67 2.67 0 01-.319.314.55.55 0 01-.338.102.45.45 0 01-.358-.14c-.077-.108-.096-.275-.056-.503.039-.25.159-.507.36-.77.212-.263.467-.506.766-.727a4.07 4.07 0 01.995-.552 2.85 2.85 0 011.049-.227c.777-.012 1.411.163 1.902.523.491.35.827.844 1.01 1.48.182.626.193 1.352.033 2.178-.139.815-.419 1.534-.841 2.158a4.607 4.607 0 01-1.565 1.438 4.151 4.151 0 01-2.015.535zm6.003-1.035c.136-.327.308-.693.518-1.097.209-.415.435-.846.676-1.294.252-.448.505-.886.757-1.312.263-.438.511-.832.743-1.182.306-.449.613-.87.92-1.266a6.86 6.86 0 01.875-.956c.288-.253.534-.382.739-.385.216-.003.406.086.571.268.175.181.331.482.467.903.091.302.188.685.292 1.15.105.464.204.971.299 1.522.094.54.173 1.087.235 1.639.062.551.103 1.06.121 1.526l-1.423.152a19.591 19.591 0 00-.139-1.689 22.197 22.197 0 00-.584-3.274c-.114-.432-.232-.723-.353-.872l.629-.14c-.339.373-.7.812-1.08 1.317a15.858 15.858 0 00-1.044 1.625c-.242.426-.468.83-.678 1.213-.21.383-.404.754-.582 1.114-.167.35-.334.71-.501 1.08l-1.458-.042zm7.055 2.996a.6.6 0 01-.505-.22.57.57 0 01-.121-.502c.02-.13.087-.326.201-.588.115-.25.235-.54.36-.867.124-.327.216-.664.276-1.012l.595.82c-.152-.02-.389-.037-.713-.054a17.915 17.915 0 00-1.198-.014c-.454.007-.923.02-1.408.038-.475.007-.949.02-1.424.038-.464.018-.917.047-1.358.086-.442.028-.868.062-1.278.1-.409.05-.78.105-1.114.164l.622-.578c-.019.14-.038.315-.056.52-.019.207-.032.413-.04.619a33.78 33.78 0 01-.023.57l.005.34a.562.562 0 01-.188.426.645.645 0 01-.45.17.525.525 0 01-.391-.14.787.787 0 01-.233-.387 1.998 1.998 0 01-.072-.503c-.002-.12.001-.26.01-.423a3.63 3.63 0 01.025-.488c.008-.162.022-.293.042-.39.041-.175.103-.327.188-.459a.966.966 0 01.334-.362c.15-.1.343-.174.579-.22.269-.048.63-.091 1.083-.13.463-.051.981-.092 1.552-.122a47.185 47.185 0 011.795-.093 50.23 50.23 0 011.764-.06l.582-.008c.216-.004.438-.002.664.006.227.007.443.025.649.055.313.027.525.122.635.282.121.161.152.415.093.763-.05.272-.127.56-.23.865a5.024 5.024 0 01-.375.85 2.637 2.637 0 01-.444.658c-.148.165-.293.248-.433.25zm4.42-2.246c-.367.006-.66-.076-.878-.246a1.523 1.523 0 01-.464-.676 2.987 2.987 0 01-.16-.94c.006-.347.038-.683.098-1.01.061-.282.142-.62.244-1.01a64.037 64.037 0 01.756-2.417c.135-.371.244-.66.327-.867.134-.382.254-.676.359-.884.115-.207.254-.312.416-.315.14-.002.27.045.39.14.12.096.209.22.265.37a.87.87 0 01.056.503 5.13 5.13 0 01-.215.751c-.114.327-.243.692-.388 1.095a40.06 40.06 0 00-.418 1.226 8.081 8.081 0 00-.291 1.093 6.167 6.167 0 00-.117.847 2.09 2.09 0 00.042.65c.046.161.139.241.279.24.346-.006.778-.322 1.297-.947.53-.626 1.116-1.486 1.757-2.58.295-.48.553-.929.773-1.344.22-.415.415-.776.583-1.082.167-.316.331-.563.49-.739.159-.175.32-.265.482-.267.248-.004.427.09.538.284.122.183.179.43.173.745.005.282-.001.629-.016 1.04l-.013 1.269c-.005.422.001.818.018 1.186.042.628.109 1.142.201 1.541.104.389.195.701.274.939.079.237.114.431.106.583a.8.8 0 01-.108.343.88.88 0 01-.239.248.57.57 0 01-.323.102c-.377.006-.651-.24-.82-.735-.17-.496-.304-1.16-.403-1.993l-.084-1.25a28.191 28.191 0 01-.02-1.333c.015-.444.03-.856.046-1.236l.472.155c-.178.382-.387.803-.628 1.262a43.435 43.435 0 01-.993 1.754 16.75 16.75 0 01-1.173 1.692 7.385 7.385 0 01-1.323 1.305c-.448.332-.904.501-1.368.508zm14.96-.23c-.324.005-.681-.087-1.072-.276a5.884 5.884 0 01-1.162-.794 10.65 10.65 0 01-1.036-1.057 6.218 6.218 0 01-.728-1.078 1.595 1.595 0 01-.218-.468 2.051 2.051 0 01-.023-.439c.031-.087.073-.185.125-.294a1.1 1.1 0 01.206-.296c.127-.175.345-.412.653-.709.308-.297.665-.617 1.07-.96.415-.352.842-.678 1.28-.978.448-.31.871-.566 1.267-.767.407-.201.756-.304 1.047-.309a.42.42 0 01.277.077.451.451 0 01.165.21.532.532 0 01.036.259c-.007.238-.16.468-.459.69a8.524 8.524 0 01-.962.616A18.96 18.96 0 00171.1 5.72c-.47.343-.848.646-1.136.91-.276.265-.419.452-.428.56-.02.109.053.297.219.566.166.257.418.551.758.882.339.32.738.617 1.195.892.207.127.408.248.605.364.206.106.37.217.49.334.131.107.193.23.184.371a.644.644 0 01-.38.559.782.782 0 01-.355.086zm-5.389.067c-.281.004-.472-.134-.573-.414-.102-.29-.135-.707-.1-1.25.046-.553.138-1.221.277-2.003.06-.326.13-.669.211-1.028l.275-1.077c.091-.37.167-.728.226-1.076a2.16 2.16 0 00.045-.26 2.71 2.71 0 00.044-.294 1.93 1.93 0 01.17-.539c.073-.142.158-.251.254-.329a.516.516 0 01.322-.135c.248-.004.444.107.587.333.155.214.192.522.112.924-.05.272-.131.61-.244 1.012-.102.391-.209.794-.322 1.208-.112.413-.198.777-.258 1.093a31.49 31.49 0 00-.204 1.514c-.036.445-.057.814-.064 1.107-.006.281-.025.477-.055.586a.752.752 0 01-.141.343.602.602 0 01-.24.199.597.597 0 01-.322.086zM3.914 28.297c-.885.014-1.616-.17-2.194-.551a3.002 3.002 0 01-1.19-1.559c-.214-.668-.248-1.432-.099-2.29a4.54 4.54 0 01.591-1.602 5.38 5.38 0 01.986-1.185c.372-.32.746-.559 1.122-.716.375-.169.697-.255.967-.26a.743.743 0 01.292.045.362.362 0 01.197.16c.055.064.072.156.052.275a1.99 1.99 0 01-.25.605c-.115.175-.334.336-.656.482-.385.19-.711.4-.977.633a2.66 2.66 0 00-.62.773 3.005 3.005 0 00-.324 1.029c-.16.88-.046 1.583.34 2.108.385.514.966.765 1.743.753.755-.011 1.41-.292 1.962-.843.563-.561.924-1.298 1.083-2.21.16-.837.096-1.487-.191-1.948-.288-.473-.756-.704-1.403-.694-.334.005-.62.075-.855.208-.224.134-.47.311-.736.532a4.9 4.9 0 00-.463.446 2.728 2.728 0 01-.319.314.55.55 0 01-.338.102.451.451 0 01-.358-.14c-.078-.108-.096-.275-.057-.503.04-.25.16-.507.36-.77a4.13 4.13 0 01.767-.727 4.1 4.1 0 01.995-.552 2.846 2.846 0 011.049-.227c.776-.012 1.41.163 1.902.523.49.35.827.844 1.01 1.48.182.626.193 1.352.033 2.178a5.443 5.443 0 01-.841 2.158 4.603 4.603 0 01-1.565 1.438 4.153 4.153 0 01-2.015.535zm9.523-.162c-.571.008-1.058-.082-1.46-.27a2.495 2.495 0 01-.968-.83 3.673 3.673 0 01-.522-1.293 6.689 6.689 0 01-.122-1.64c.023-.607.095-1.242.214-1.905a8.82 8.82 0 01.584-2.024c.26-.611.555-1.141.882-1.59.339-.461.694-.84 1.068-1.139.373-.298.747-.52 1.123-.667a6.774 6.774 0 011.015-.292 20.43 20.43 0 011-.21c.323-.06.619-.118.888-.177a9.12 9.12 0 001.209-.343c.332-.125.585-.188.758-.19a.676.676 0 01.357.091.583.583 0 01.302.662c-.03.185-.141.344-.333.477a2.687 2.687 0 01-.724.303c-.58.172-1.112.294-1.597.366-.474.062-.91.123-1.308.183-.399.05-.786.158-1.16.327-.366.146-.723.406-1.073.78a5.69 5.69 0 00-.918 1.363 6.812 6.812 0 00-.572 1.813c-.209 1.163-.297 2.107-.264 2.832.043.715.213 1.238.51 1.57.307.33.73.492 1.27.483a2.533 2.533 0 001.112-.293c.374-.2.721-.46 1.04-.78a5 5 0 00.826-1.037c.232-.382.377-.753.436-1.111.08-.392.07-.722-.031-.992a1.044 1.044 0 00-.527-.625c-.262-.148-.608-.218-1.04-.212-.572.009-1.211.181-1.918.517-.697.336-1.396.84-2.098 1.512l-.527-.61a6.242 6.242 0 011.482-1.534 6.025 6.025 0 011.734-.905 5.592 5.592 0 011.711-.319c.659-.01 1.21.106 1.657.349.446.231.764.573.954 1.025.19.453.215 1.016.075 1.69a5.393 5.393 0 01-.639 1.667 6.807 6.807 0 01-1.142 1.48 6.165 6.165 0 01-1.522 1.08 4.113 4.113 0 01-1.742.418zm9.095 3.923c-.658.01-1.214-.046-1.67-.17-.454-.111-.786-.274-.994-.488-.209-.213-.288-.445-.238-.695.07-.38.3-.573.688-.58a.782.782 0 01.357.076c.109.053.233.11.375.173.141.074.336.136.585.186.26.05.6.073 1.021.066.518-.008.948-.128 1.29-.361.341-.233.612-.557.81-.972.21-.415.364-.894.464-1.437.06-.315.098-.625.115-.928.028-.304.056-.63.083-.977.027-.347.064-.748.11-1.204.048-.467.126-1.015.235-1.646l.509.464c-.334.753-.67 1.37-1.008 1.852-.338.471-.667.84-.987 1.104a3.22 3.22 0 01-.915.534 2.587 2.587 0 01-.758.142c-.939.015-1.597-.365-1.976-1.14-.379-.785-.41-2.047-.09-3.785.129-.728.26-1.278.395-1.648.146-.37.299-.622.458-.755.16-.133.327-.2.5-.203.258-.004.427.086.505.269.078.183.056.514-.066.992a22.837 22.837 0 00-.375 1.924 8.327 8.327 0 00-.106 1.546c.017.444.093.79.226 1.037.133.236.346.352.637.347.453-.006.892-.246 1.316-.719.425-.483.82-1.128 1.185-1.936.376-.818.712-1.734 1.01-2.746.093-.305.187-.507.282-.606.096-.11.246-.166.45-.17a.62.62 0 01.408.14c.13.096.209.268.234.517.036.238-.008.564-.13.977-.154.556-.27 1.05-.35 1.485-.07.434-.117.852-.143 1.254-.026.39-.047.791-.063 1.203-.004.401-.03.846-.077 1.335a23.039 23.039 0 01-.233 1.661c-.18.978-.47 1.746-.871 2.305-.391.57-.86.972-1.407 1.208a4.657 4.657 0 01-1.79.37zm8.518-6.811c-.41.006-.752-.08-1.024-.26a1.628 1.628 0 01-.61-.755 2.722 2.722 0 01-.163-1.087c.004-.412.063-.83.175-1.254.112-.424.257-.817.435-1.177.189-.36.395-.656.618-.887.223-.231.448-.348.674-.352.108-.002.2.019.277.06a.424.424 0 01.197.193.494.494 0 01.053.292c-.01.097-.061.25-.155.457-.083.197-.188.431-.313.704a5.997 5.997 0 00-.327.85 3.186 3.186 0 00-.148.896c.003.195.021.363.056.503.034.13.095.227.182.29a.656.656 0 00.374.092 2.49 2.49 0 001.064-.277 4.31 4.31 0 001.041-.73 6.64 6.64 0 00.908-1.006 5.25 5.25 0 00.614-1.115l.155 1.672a9.655 9.655 0 01-1.224 1.482c-.436.44-.9.783-1.392 1.029a3.316 3.316 0 01-1.468.38zm3.487 2.596c-.238.003-.406-.086-.506-.269a2.42 2.42 0 01-.221-.695 5.81 5.81 0 01-.028-.78 14.226 14.226 0 01.276-2.101 32.231 32.231 0 01.457-1.828c.092-.326.185-.63.277-.914.093-.294.165-.528.216-.702.103-.349.217-.621.344-.818.137-.197.303-.297.497-.3.184-.003.342.108.475.334.133.225.164.512.094.86a7.46 7.46 0 01-.26.979 49.81 49.81 0 00-.402 1.257c-.123.425-.215.795-.275 1.11-.1.51-.169.956-.206 1.336-.037.38-.054.716-.05 1.008-.007.217-.004.396.009.537.013.14.01.265-.01.374a.807.807 0 01-.221.41c-.106.131-.261.199-.466.202zm6.441-.148c-.669.01-1.231-.073-1.687-.25-.445-.189-.79-.449-1.032-.781a2.791 2.791 0 01-.471-1.196 4.781 4.781 0 01.058-1.496 6.06 6.06 0 01.59-1.602 6.736 6.736 0 011.095-1.496 5.494 5.494 0 011.489-1.08 4.01 4.01 0 011.758-.433c.571-.008 1.042.077 1.412.255.38.178.643.445.789.8.156.356.185.805.085 1.349a2.76 2.76 0 01-.516 1.194c-.254.34-.578.632-.974.876a5.29 5.29 0 01-1.302.557c-.473.126-.98.194-1.519.202-.734.011-1.226-.068-1.477-.238-.24-.17-.34-.363-.3-.58.02-.13.067-.223.142-.279.074-.066.192-.1.354-.102.119-.002.26.017.422.058.173.03.427.042.761.037a4.373 4.373 0 001.453-.25c.44-.158.799-.37 1.075-.634a1.81 1.81 0 00.52-.934c.06-.326.013-.57-.14-.73-.143-.16-.425-.237-.846-.23-.42.006-.824.11-1.21.31-.374.19-.726.45-1.055.78a4.772 4.772 0 00-1.258 2.474c-.07.392-.07.75 0 1.073.07.314.236.571.498.773.272.19.657.282 1.153.275.561-.009 1.04-.087 1.437-.234.408-.158.75-.336 1.028-.536.278-.199.512-.37.704-.514.193-.144.364-.217.515-.22.184-.002.314.066.392.206.088.128.112.301.072.519-.04.217-.182.447-.426.689a4.187 4.187 0 01-.929.664 6.03 6.03 0 01-1.254.524 5.55 5.55 0 01-1.406.2zm6.724-.087c-.388.006-.651-.24-.788-.736s-.131-1.157.018-1.983c.12-.576.26-1.012.417-1.307.168-.306.36-.515.574-.626.117-.067.284-.107.5-.122.215-.025.441-.039.679-.043a23.648 23.648 0 002.328-.15 11.738 11.738 0 002.275-.522l.308 1.117a9.265 9.265 0 01-1.805.515c-.646.119-1.303.205-1.97.258-.658.043-1.3.069-1.926.079l-.94-.132c.13-.642.265-1.315.405-2.022.14-.706.26-1.337.36-1.89.04-.262.122-.474.25-.639.126-.164.27-.248.433-.25.27-.004.47.101.603.316.133.203.154.534.064.99-.04.24-.1.527-.181.864-.081.338-.168.691-.26 1.06-.08.37-.16.724-.242 1.061-.07.326-.126.598-.166.815a23.4 23.4 0 00-.265 1.695c-.047.488-.09.857-.129 1.107a.681.681 0 01-.205.377.444.444 0 01-.337.168zm5.583-.086c-.27.004-.466-.15-.59-.462-.112-.313-.167-.74-.165-1.282.013-.553.08-1.16.2-1.823.199-1.044.375-1.87.528-2.479.163-.62.312-1.11.447-1.47.083-.24.187-.452.314-.639.127-.186.282-.28.465-.283.237-.004.406.108.507.334.111.215.137.48.077.795a8.8 8.8 0 01-.337 1.273c-.144.457-.26.952-.35 1.484-.12.652-.202 1.244-.248 1.776-.035.52-.055.96-.06 1.317-.006.358-.029.624-.07.798a.76.76 0 01-.251.475.708.708 0 01-.467.186zm4.74-.072c-.367.005-.66-.077-.878-.247a1.52 1.52 0 01-.463-.676 2.975 2.975 0 01-.16-.94c.005-.347.038-.683.098-1.01.06-.282.141-.62.243-1.01.113-.393.236-.801.37-1.226.134-.424.263-.822.387-1.192.134-.37.243-.66.326-.867.135-.381.254-.675.36-.883.115-.207.253-.313.415-.315.14-.002.27.044.39.14.121.096.21.22.266.37.067.15.085.318.056.503-.03.174-.102.424-.215.751-.114.327-.243.692-.388 1.095-.145.403-.285.812-.419 1.225a8.185 8.185 0 00-.29 1.094c-.06.293-.1.576-.117.847a2.03 2.03 0 00.042.65c.046.161.139.241.279.239.345-.005.777-.32 1.297-.947.53-.625 1.115-1.485 1.757-2.578.295-.482.552-.93.773-1.345.22-.415.414-.776.582-1.082a3.68 3.68 0 01.49-.739c.16-.176.32-.265.482-.267.248-.004.428.09.539.284.121.182.179.43.173.745.004.282-.001.629-.017 1.04l-.013 1.269c-.004.422.002.818.019 1.186.041.628.109 1.141.201 1.54.103.39.194.702.273.94.08.237.115.431.106.583a.8.8 0 01-.108.343.87.87 0 01-.239.248.569.569 0 01-.322.102c-.378.006-.651-.24-.82-.735-.17-.496-.304-1.16-.403-1.993a185 185 0 01-.084-1.25 27.406 27.406 0 01-.02-1.333c.014-.445.03-.857.046-1.236l.471.155c-.177.382-.387.803-.628 1.261a41.62 41.62 0 01-.993 1.755 16.74 16.74 0 01-1.172 1.692 7.413 7.413 0 01-1.324 1.305c-.448.332-.904.501-1.368.508zm14.621-.226a.657.657 0 01-.637-.38c-.123-.269-.193-.598-.21-.988-.003-.195 0-.417.006-.667a9.24 9.24 0 01.054-.764c.039-.261.073-.5.102-.717l.15-.734c.072-.294.143-.593.214-.897.081-.316.152-.604.213-.865.071-.272.122-.479.153-.62.019-.141-.015-.243-.102-.307-.088-.075-.24-.11-.455-.107a5.408 5.408 0 00-.566.041 9.045 9.045 0 00-.662.108 5.045 5.045 0 00-1.465.543c-.417.234-.65.497-.7.79a.98.98 0 00.091.682c.122.193.356.347.703.46.358.114.871.166 1.54.155a14.07 14.07 0 001.392-.086 8.34 8.34 0 01.565-.074c.15-.024.247-.036.29-.037.27-.004.497.01.68.039.185.03.257.142.217.338a.727.727 0 01-.349.525c-.192.133-.45.23-.772.289a6.533 6.533 0 01-1.1.098l-1.666.025a4.387 4.387 0 01-1.623-.267c-.489-.188-.865-.458-1.13-.812-.253-.354-.34-.77-.261-1.248a2.63 2.63 0 01.407-.916c.221-.328.54-.637.957-.925.427-.288.985-.524 1.672-.708a8.236 8.236 0 011.243-.263 9.91 9.91 0 011.003-.064c.42-.007.75.048.99.163.239.116.403.276.492.48.1.205.126.443.076.714-.04.228-.106.506-.198.832-.092.316-.184.642-.276.98-.082.326-.153.62-.213.88-.05.262-.095.544-.133.848-.039.293-.067.58-.084.863a9.767 9.767 0 00-.021.732c.003.238.013.492.027.763.026.26.029.438.009.536a.637.637 0 01-.205.393.604.604 0 01-.418.17zm-5.697.072a.556.556 0 01-.456-.188.603.603 0 01-.104-.47.78.78 0 01.237-.361c.127-.132.341-.276.64-.433a8.503 8.503 0 001.523-1.03c.512-.42 1.022-.889 1.532-1.406l1.029.57c-.36.406-.754.807-1.18 1.204-.415.386-.83.739-1.246 1.06a8.39 8.39 0 01-1.121.764c-.343.19-.627.286-.854.29zM82.924 24.4c-.473.117-.797.11-.971-.017-.175-.127-.242-.305-.203-.533a.98.98 0 01.284-.524c.159-.166.48-.306.965-.422a27.684 27.684 0 013.082-.616 22.132 22.132 0 012.974-.257c.378-.006.654.06.829.199a.477.477 0 01.218.516.569.569 0 01-.236.427c-.128.1-.332.151-.613.155a20.687 20.687 0 00-3.12.276c-.42.06-.812.137-1.178.23a13.61 13.61 0 00-1.048.275c-.333.092-.66.19-.983.292zm.781-3.977c-.473.083-.797.06-.972-.066-.175-.128-.237-.322-.187-.583a.786.786 0 01.349-.493c.203-.144.546-.252 1.03-.324.657-.13 1.325-.227 2.004-.291a31.47 31.47 0 011.924-.127c.604-.031 1.138-.05 1.602-.058.658-.01 1.106.054 1.346.191.24.127.34.304.3.532a.752.752 0 01-.269.443c-.139.1-.348.152-.629.156-.82.012-1.537.04-2.152.082-.614.03-1.17.077-1.665.139-.485.05-.942.112-1.373.184-.43.06-.867.132-1.308.215zm16.994 10.434c-.658.01-1.215-.047-1.67-.17-.455-.112-.786-.275-.995-.488-.208-.214-.287-.446-.237-.696a.786.786 0 01.204-.425c.117-.1.278-.15.483-.154a.78.78 0 01.358.076c.109.052.234.11.375.173.141.074.336.136.585.186.26.05.6.072 1.021.065.518-.008.948-.128 1.29-.36.341-.233.612-.557.81-.972.21-.415.364-.894.464-1.438a7.06 7.06 0 00.115-.928c.028-.304.055-.63.083-.976.027-.348.064-.749.111-1.205.047-.467.125-1.015.234-1.645l.508.463c-.333.753-.669 1.37-1.007 1.853-.338.47-.667.839-.987 1.104-.32.254-.625.432-.915.534a2.602 2.602 0 01-.758.142c-.939.014-1.597-.366-1.976-1.14-.38-.785-.41-2.047-.09-3.786.129-.728.26-1.277.395-1.648.146-.37.299-.622.458-.755.16-.132.326-.2.499-.202a.56.56 0 01.39.124c.099.074.149.204.152.388.014.184-.02.433-.102.749a22.91 22.91 0 00-.375 1.924 8.336 8.336 0 00-.106 1.545c.017.444.093.79.226 1.037.133.236.345.352.637.348.453-.007.892-.247 1.316-.72.424-.482.819-1.128 1.185-1.935.376-.819.712-1.734 1.01-2.747.092-.304.186-.506.282-.605.096-.11.246-.167.451-.17a.623.623 0 01.407.14c.13.096.209.268.234.517.036.238-.008.563-.131.977a17.35 17.35 0 00-.349 1.485 13.6 13.6 0 00-.143 1.253c-.027.39-.047.792-.063 1.204-.004.401-.03.846-.077 1.334a22.667 22.667 0 01-.233 1.662c-.129.727-.325 1.337-.587 1.829-.263.503-.569.903-.921 1.2-.352.299-.748.51-1.188.637-.43.136-.887.208-1.373.216zm9.881-4.248c-.799.012-1.459-.135-1.982-.441a2.595 2.595 0 01-1.088-1.316c-.203-.571-.235-1.232-.095-1.982a5.342 5.342 0 01.669-1.782 5.703 5.703 0 011.24-1.449 6.035 6.035 0 011.636-.984 5.07 5.07 0 011.824-.37c.28-.004.529.036.746.119a.85.85 0 01.475.35c.11.15.14.34.089.568a.946.946 0 01-.235.491.603.603 0 01-.418.169.49.49 0 01-.276-.06 3.53 3.53 0 00-.213-.128c-.065-.042-.179-.062-.34-.06a3.39 3.39 0 00-1.725.499c-.535.311-.987.72-1.357 1.223a3.948 3.948 0 00-.704 1.588c-.069.456-.052.851.05 1.186.113.323.311.574.594.754.294.18.652.267 1.073.26.474-.007.851-.067 1.13-.18a2.5 2.5 0 00.658-.4c.17-.144.308-.27.415-.38a.49.49 0 01.369-.185c.205-.003.346.044.423.14.088.096.112.264.073.503a1.86 1.86 0 01-.536.967 3.037 3.037 0 01-1.091.65 4.216 4.216 0 01-1.404.25zm11.181-.156c-.259.004-.439-.134-.54-.414-.102-.28-.156-.637-.162-1.07a8.193 8.193 0 01.064-1.09c.048-.413.101-.825.159-1.238.058-.413.112-.798.16-1.157.06-.358.104-.657.132-.896.039-.304.062-.564.07-.78.018-.218.025-.445.021-.684l.314.418-1.165.018c-.345.005-.76.028-1.245.068-.475.029-.943.069-1.407.119-.463.05-.85.116-1.162.197l.747-.906a9.643 9.643 0 01-.085 1.838 35.55 35.55 0 01-.31 1.988c-.06.315-.125.668-.194 1.06-.07.39-.145.766-.226 1.124a9.258 9.258 0 01-.23.865 1.122 1.122 0 01-.284.444.709.709 0 01-.467.17c-.216.003-.374-.098-.474-.302-.1-.205-.121-.47-.061-.796.04-.239.095-.51.166-.815.071-.315.136-.641.195-.978l.165-.913c.11-.543.178-1.01.205-1.401.037-.401.064-.754.081-1.058.028-.304.066-.597.116-.88.061-.239.155-.424.283-.556.138-.132.331-.227.578-.285a9.534 9.534 0 011.276-.183c.496-.05 1.002-.085 1.52-.104a71.49 71.49 0 011.505-.04c.626-.01 1.081.108 1.365.353.284.245.367.683.247 1.313-.04.217-.089.521-.148.912-.059.392-.128.826-.207 1.304-.068.478-.126.961-.172 1.45-.047.477-.072.922-.077 1.333-.008.174-.005.353.008.537.014.184.011.34-.009.471a.73.73 0 01-.253.394.756.756 0 01-.499.17zm6.187-.095c-.895.014-1.594-.138-2.095-.455a2.31 2.31 0 01-.992-1.334c-.159-.572-.175-1.216-.045-1.934a6.03 6.03 0 01.591-1.602 6.7 6.7 0 011.094-1.495 5.477 5.477 0 011.489-1.08 4.003 4.003 0 011.757-.433c.572-.01 1.043.076 1.413.254.38.179.643.445.789.8.156.356.185.805.085 1.349a2.744 2.744 0 01-.77 1.523c-.415.407-.933.724-1.556.95a5.943 5.943 0 01-1.985.356c-.734.011-1.226-.068-1.477-.237-.24-.17-.34-.363-.3-.58.02-.131.067-.224.141-.28.075-.065.193-.1.355-.102.119-.002.259.017.422.058.173.03.427.043.761.037a4.373 4.373 0 001.453-.25c.44-.158.798-.37 1.075-.634a1.81 1.81 0 00.52-.934c.06-.326.013-.57-.141-.73-.142-.16-.424-.237-.845-.23a2.67 2.67 0 00-1.209.31c-.375.19-.727.45-1.057.781-.318.33-.588.708-.808 1.134-.22.426-.37.873-.449 1.34a2.76 2.76 0 000 1.072c.07.314.235.571.498.773.272.19.657.282 1.153.275.561-.009 1.04-.086 1.437-.233.408-.159.75-.337 1.028-.536.277-.2.512-.371.704-.515.192-.144.364-.217.515-.22.183-.002.314.066.392.206.088.129.112.302.072.519-.04.217-.182.447-.426.69a4.197 4.197 0 01-.929.664 6.042 6.042 0 01-1.255.523 5.51 5.51 0 01-1.405.2zm5.799-.024a.536.536 0 01-.342-.108c-.098-.064-.159-.171-.183-.323-.024-.151.017-.336.121-.554.093-.25.267-.562.52-.935.253-.372.571-.789.952-1.25.382-.46.812-.939 1.29-1.434.488-.495 1.015-.99 1.579-1.487a19.285 19.285 0 011.76-1.376c.395-.299.715-.52.961-.665.257-.155.46-.256.611-.302.15-.045.29-.07.419-.071a.57.57 0 01.424.156c.12.096.165.247.136.453a.903.903 0 01-.22.442 1.96 1.96 0 01-.496.382 14.483 14.483 0 00-2.498 1.76 23.171 23.171 0 00-2.232 2.262 28.73 28.73 0 00-1.921 2.451 1.723 1.723 0 01-.463.446.733.733 0 01-.418.153zm5.987-.125a.707.707 0 01-.439-.139c-.12-.096-.242-.284-.365-.563a25.404 25.404 0 00-.849-1.564 25.217 25.217 0 00-.996-1.61 18.544 18.544 0 00-1.059-1.495 12.06 12.06 0 00-1.005-1.171 3.14 3.14 0 01-.495-.594.833.833 0 01-.106-.6c.02-.098.051-.19.093-.278a.447.447 0 01.175-.198.719.719 0 01.323-.07.847.847 0 01.536.155c.153.106.361.303.624.592.198.203.423.47.676.802.253.332.518.707.794 1.126.287.418.569.841.845 1.27.276.419.531.821.763 1.208.244.386.438.72.582.999.244.451.395.796.453 1.033.057.227.071.416.041.568a.655.655 0 01-.189.377.54.54 0 01-.402.152zm11.462-.224c-.798.012-1.459-.135-1.982-.441a2.6 2.6 0 01-1.088-1.316c-.203-.572-.235-1.232-.095-1.982.12-.641.343-1.235.669-1.782a5.707 5.707 0 011.241-1.45 6.02 6.02 0 011.636-.983 5.065 5.065 0 011.823-.37 1.99 1.99 0 01.747.119.845.845 0 01.474.35c.11.15.14.34.09.568a.954.954 0 01-.235.49.605.605 0 01-.419.17.494.494 0 01-.276-.061 3.547 3.547 0 00-.212-.127c-.066-.042-.179-.062-.341-.06-.615.01-1.19.176-1.724.498a4.45 4.45 0 00-1.358 1.224 3.962 3.962 0 00-.704 1.587c-.069.457-.052.852.05 1.186.113.323.311.575.595.755.294.18.651.266 1.072.26.475-.008.852-.068 1.13-.18.279-.124.498-.257.658-.4.17-.144.309-.27.415-.38a.49.49 0 01.37-.185c.205-.003.346.043.423.14.087.096.111.264.072.503-.07.358-.249.68-.536.967a3.03 3.03 0 01-1.09.65c-.43.159-.898.242-1.405.25zm5.199-6.631c-.248.004-.443-.069-.586-.218a.574.574 0 01.052-.83c.096-.088.268-.167.515-.236.387-.114.903-.22 1.549-.316a17.836 17.836 0 012.296-.165 21.76 21.76 0 011.247.013c.388.005.815.036 1.28.094.367.038.649.12.845.247.207.127.296.272.266.435a.742.742 0 01-.141.327.675.675 0 01-.288.216 1.094 1.094 0 01-.452.088 10.94 10.94 0 01-.793-.02 99.937 99.937 0 00-.972-.05 10.7 10.7 0 00-1.037-.033c-.744.012-1.342.053-1.795.125a9.289 9.289 0 00-1.129.213c-.301.07-.587.106-.857.11zm2.448 6.562a.585.585 0 01-.539-.285 2.182 2.182 0 01-.238-.744 6.477 6.477 0 01-.014-.926c.026-.401.074-.835.142-1.302.068-.478.142-.94.222-1.385.109-.598.204-1.125.283-1.581.09-.468.16-.853.209-1.158l1.455-.12-.151.702c-.05.271-.105.581-.164.929-.06.337-.124.684-.194 1.043-.06.348-.12.685-.179 1.01-.1.544-.163 1-.19 1.369-.016.358-.017.65-.003.878.015.227.028.416.041.568.013.14.01.27-.01.39a.864.864 0 01-.124.327.615.615 0 01-.24.199.622.622 0 01-.306.086zm7.633 3.93c-.658.01-1.215-.047-1.67-.17-.455-.112-.787-.275-.995-.488-.208-.214-.287-.445-.237-.695.07-.38.299-.574.687-.58a.778.778 0 01.357.076c.109.052.234.11.375.173a2.3 2.3 0 00.586.186c.26.05.6.072 1.021.066.517-.009.947-.129 1.289-.362a2.39 2.39 0 00.811-.971 5.33 5.33 0 00.464-1.438 7.25 7.25 0 00.115-.928c.028-.304.055-.63.082-.976.027-.348.064-.749.111-1.205a23.9 23.9 0 01.234-1.645l.509.463c-.334.753-.67 1.37-1.008 1.853-.338.47-.667.839-.986 1.104-.32.254-.625.432-.915.534a2.602 2.602 0 01-.759.142c-.938.014-1.597-.366-1.976-1.14-.379-.785-.409-2.047-.09-3.786.129-.728.261-1.277.396-1.648.145-.37.298-.622.458-.755.16-.132.326-.2.499-.202.259-.004.427.085.506.268.078.183.056.514-.066.993a22.54 22.54 0 00-.376 1.924 8.396 8.396 0 00-.106 1.545c.018.444.093.79.227 1.037.133.236.345.352.636.348.453-.007.892-.247 1.317-.72.424-.483.819-1.128 1.184-1.935a20.23 20.23 0 001.01-2.747c.093-.305.187-.506.283-.605.095-.11.245-.167.45-.17a.62.62 0 01.407.14c.131.096.209.268.235.517.036.238-.008.563-.131.977a17.39 17.39 0 00-.35 1.485c-.069.434-.116.852-.143 1.253-.026.39-.047.792-.062 1.204-.005.401-.031.846-.077 1.334a23.292 23.292 0 01-.234 1.662c-.179.978-.469 1.746-.871 2.305-.391.57-.859.972-1.406 1.208a4.658 4.658 0 01-1.791.369zm6.997-5.098c.136-.327.308-.693.518-1.097.209-.415.435-.846.676-1.294.252-.448.505-.886.757-1.312.263-.438.511-.832.743-1.182.306-.449.613-.87.92-1.266a6.92 6.92 0 01.875-.956c.288-.253.534-.382.739-.385.216-.003.406.086.571.268.175.181.331.482.467.903.091.302.188.685.292 1.15.105.463.204.971.299 1.522.094.54.173 1.087.235 1.639.063.551.103 1.06.121 1.526l-1.423.151a19.591 19.591 0 00-.139-1.688 22.655 22.655 0 00-.253-1.784 18.532 18.532 0 00-.331-1.49c-.114-.432-.232-.723-.353-.872l.629-.14c-.339.373-.7.812-1.08 1.317-.37.504-.718 1.046-1.044 1.625-.242.426-.468.83-.678 1.213-.21.383-.404.754-.581 1.114-.168.35-.335.71-.502 1.08l-1.458-.042zm7.055 2.996a.6.6 0 01-.505-.22.57.57 0 01-.121-.502c.02-.13.087-.326.202-.588.114-.25.234-.54.359-.867.124-.327.216-.664.276-1.012l.595.82c-.152-.02-.389-.037-.713-.054a17.904 17.904 0 00-1.198-.014c-.453.007-.923.02-1.408.038-.475.007-.949.02-1.424.038-.464.018-.916.047-1.358.086-.442.028-.868.062-1.278.1-.409.05-.78.105-1.114.164l.623-.578c-.02.14-.039.314-.057.52-.019.207-.032.413-.039.619-.008.217-.016.407-.024.57l.005.34c-.008.185-.07.327-.188.426a.645.645 0 01-.45.17c-.259.003-.439-.097-.539-.301a1.7 1.7 0 01-.157-.73 5.03 5.03 0 01.006-.666 5.34 5.34 0 01.071-.635c.041-.174.103-.326.188-.458a.967.967 0 01.334-.362c.15-.1.343-.174.579-.22.269-.048.63-.091 1.083-.131.463-.05.981-.09 1.552-.121a47.392 47.392 0 011.795-.093 50.23 50.23 0 011.764-.06l.583-.009c.215-.003.437 0 .663.006.227.008.443.026.649.056.313.027.525.122.635.282.121.161.152.415.093.763a6.26 6.26 0 01-.23.865 5.024 5.024 0 01-.375.85 2.61 2.61 0 01-.444.658c-.148.165-.293.248-.433.25zm6.037-2.287c-.668.01-1.231-.073-1.687-.25-.445-.188-.789-.449-1.032-.78a2.803 2.803 0 01-.471-1.196 4.767 4.767 0 01.058-1.497 6.082 6.082 0 01.591-1.602 6.732 6.732 0 011.094-1.495 5.493 5.493 0 011.489-1.08 4.01 4.01 0 011.758-.433c.571-.01 1.042.076 1.412.254.38.179.643.446.789.8.157.356.185.805.085 1.349a2.748 2.748 0 01-.516 1.194c-.253.34-.578.632-.974.877a5.29 5.29 0 01-1.302.556 6.232 6.232 0 01-1.519.202c-.734.011-1.226-.068-1.477-.237-.24-.17-.34-.363-.3-.58.02-.131.067-.224.142-.28.074-.065.192-.1.354-.102.119-.002.259.017.422.058.173.03.427.043.761.037a4.371 4.371 0 001.453-.25c.44-.158.799-.37 1.075-.634a1.8 1.8 0 00.52-.934c.06-.326.013-.57-.14-.73-.143-.16-.425-.237-.846-.23-.42.006-.824.11-1.209.31a4.11 4.11 0 00-1.056.781 4.766 4.766 0 00-1.258 2.474 2.8 2.8 0 000 1.072c.07.314.236.571.498.773.273.19.657.282 1.153.275.561-.009 1.04-.086 1.437-.233a4.61 4.61 0 001.028-.536c.278-.2.513-.371.705-.515.192-.144.363-.217.514-.22.184-.002.314.066.392.206.088.129.112.302.073.519-.04.217-.182.447-.427.69a4.173 4.173 0 01-.929.664 6.005 6.005 0 01-1.254.523c-.452.126-.92.193-1.406.2zm6.724-.087c-.388.006-.651-.24-.788-.736s-.131-1.157.018-1.983c.121-.576.26-1.011.417-1.306.168-.306.359-.515.574-.627.117-.067.284-.107.499-.121a6.63 6.63 0 01.68-.043 23.627 23.627 0 002.328-.15 11.732 11.732 0 002.275-.523l.308 1.117a9.257 9.257 0 01-1.805.516c-.646.118-1.303.204-1.971.258-.657.042-1.299.068-1.925.078l-.941-.132c.131-.641.266-1.315.406-2.022.141-.706.261-1.337.36-1.89.039-.261.122-.474.249-.639.127-.164.272-.247.434-.25.269-.004.471.101.603.316.133.204.154.534.064.99-.039.24-.1.527-.181.865-.081.337-.168.69-.259 1.06-.081.37-.162.723-.243 1.06-.07.327-.126.598-.165.816-.12.63-.209 1.195-.266 1.694-.047.488-.089.858-.129 1.107a.678.678 0 01-.205.377.442.442 0 01-.337.168zm5.583-.086c-.269.004-.466-.15-.589-.462-.113-.313-.168-.74-.166-1.282.014-.552.08-1.16.199-1.823.2-1.043.376-1.87.529-2.479.163-.62.312-1.11.447-1.47.083-.24.187-.452.314-.638s.282-.28.465-.284c.237-.003.406.108.507.334.111.215.137.48.077.795a8.86 8.86 0 01-.337 1.273c-.144.457-.261.952-.35 1.485a19.207 19.207 0 00-.248 1.775c-.035.52-.055.96-.06 1.318-.006.357-.029.623-.069.797a.765.765 0 01-.252.475.707.707 0 01-.467.186zm3.734-6.64c-.248.004-.443-.069-.586-.219a.574.574 0 01.053-.83c.095-.087.267-.166.514-.235.387-.114.903-.22 1.549-.316a17.836 17.836 0 012.296-.166c.453-.006.869-.002 1.247.014.388.005.815.036 1.28.094.367.038.649.12.845.247.207.127.296.272.266.435a.742.742 0 01-.141.327.675.675 0 01-.288.216 1.094 1.094 0 01-.452.088c-.226.003-.491-.003-.793-.02a98.332 98.332 0 00-.972-.05 10.7 10.7 0 00-1.037-.033c-.744.011-1.342.053-1.794.125a9.272 9.272 0 00-1.13.212c-.301.07-.587.107-.857.111zm2.448 6.562a.585.585 0 01-.539-.285 2.182 2.182 0 01-.238-.744 6.477 6.477 0 01-.014-.926c.026-.401.074-.836.142-1.303.068-.477.142-.94.222-1.385.109-.597.204-1.124.283-1.58.09-.468.16-.854.209-1.158l1.455-.12-.151.702c-.05.271-.104.58-.164.928-.059.337-.124.685-.194 1.044-.06.347-.119.684-.179 1.01-.1.544-.163 1-.19 1.369-.016.357-.017.65-.003.877.015.228.028.417.041.569.013.14.01.27-.01.39a.864.864 0 01-.124.327.615.615 0 01-.24.198.619.619 0 01-.306.087zm6.369-.131c-.497.008-.903-.105-1.22-.339-.305-.233-.521-.56-.646-.981-.114-.421-.122-.909-.022-1.463a5.94 5.94 0 01.51-1.568 7.953 7.953 0 01.965-1.51 7.773 7.773 0 011.259-1.271c.469-.376.961-.67 1.476-.884a4.338 4.338 0 011.581-.333c.248-.004.443.058.586.186.142.127.188.322.138.583a.618.618 0 01-.173.344c-.096.088-.235.144-.418.169a5.023 5.023 0 00-2.092.844 6.173 6.173 0 00-1.578 1.601 5.226 5.226 0 00-.812 1.93c-.06.316-.088.604-.084.864.004.249.063.573.177.972l-.632-1.112c.198.246.373.406.525.48.163.073.39.108.681.103.691-.01 1.385-.466 2.084-1.365.698-.899 1.337-2.204 1.915-3.914a1.09 1.09 0 01.3-.476.73.73 0 01.483-.186.623.623 0 01.572.316c.143.204.206.468.19.794a29.77 29.77 0 00-.037 1.853c.019.542.086 1.05.201 1.525.126.475.339.965.638 1.47a.627.627 0 01.087.372.805.805 0 01-.107.408.886.886 0 01-.271.33.654.654 0 01-.386.119.688.688 0 01-.39-.092.85.85 0 01-.231-.273 7.465 7.465 0 01-.418-.887 6.379 6.379 0 01-.308-1.068 8.41 8.41 0 01-.103-1.445c.003-.553.047-1.209.132-1.969l.582-.025c-.339 1.089-.719 2.01-1.139 2.764-.42.744-.864 1.347-1.332 1.809-.457.451-.916.783-1.377.996-.461.213-.896.323-1.306.33z" fill="#7831B2"/><path fill-rule="evenodd" clip-rule="evenodd" d="M80.788 42.064c-1.438 4.413-2.15 7.435-2.267 9.51-.082 1.443.111 2.583.694 3.422.601.868 1.495 1.242 2.404 1.423.87.173 1.822.208 2.826.245 3.187.118 6.913.257 10.316 4.866 3.633 4.922 4.025 9.632 3.085 13.529a16.88 16.88 0 01-.277 1.006 18.57 18.57 0 01-3.073 5.584l.27-5.66a.902.902 0 00-.854-.946.9.9 0 00-.94.841.902.902 0 00-.138.438l-.389 8.117a.902.902 0 00.856.945l8.083.39a.9.9 0 00.94-.84.901.901 0 00-.718-1.383l-5.897-.286c1.382-1.709 2.743-3.981 3.57-6.641.17-.506.322-1.026.45-1.56 1.06-4.39.581-9.654-3.388-15.03-3.984-5.397-8.887-5.548-12.104-5.647-.842-.026-1.568-.048-2.133-.16-.678-.135-1.05-.355-1.277-.683-.247-.356-.447-1.013-.375-2.288.102-1.798.722-4.517 2.047-8.635.54-1.658 1.191-3.535 1.964-5.661l-.014-.005.15-.416-1.69-.619a176.692 176.692 0 00-2.121 6.144z" fill="#7831B2"/></svg>