<svg width="243" height="160" fill="none" xmlns="http://www.w3.org/2000/svg"><path d="M8.754 14.393a4.723 4.723 0 01-1.39-.213 9.268 9.268 0 01-1.557-.624c-.52-.28-1.017-.602-1.491-.967A8.175 8.175 0 013.092 11.4a5.002 5.002 0 01-.795-1.338 2.504 2.504 0 01-.13-1.384c.089-.53.309-1.067.66-1.612a9.4 9.4 0 011.361-1.659 16.908 16.908 0 011.937-1.632 25.208 25.208 0 012.353-1.548c.428-.247.773-.438 1.035-.574.262-.136.49-.205.681-.208.216-.004.379.06.49.19.12.118.154.298.097.539-.032.24-.155.464-.367.671-.201.195-.516.41-.945.645a24.23 24.23 0 00-2.3 1.44c-.677.478-1.264.943-1.76 1.394-.486.452-.87.878-1.151 1.278-.282.389-.451.727-.507 1.016-.055.349.011.726.197 1.131.198.393.505.79.919 1.192.414.39.93.754 1.547 1.093a9.712 9.712 0 002.1.796c.495.148.809.293.943.435a.548.548 0 01.152.538.658.658 0 01-.245.436c-.13.098-.334.149-.61.153zM.8 14.515c-.288.004-.5-.107-.635-.332-.124-.227-.177-.598-.161-1.114.028-.529.119-1.232.274-2.11.177-.951.38-1.843.607-2.674.227-.844.437-1.597.631-2.26.194-.663.324-1.2.39-1.608.078-.397.12-.71.13-.938.008-.24.01-.457.007-.648a2.826 2.826 0 01.063-.614c.044-.24.132-.416.262-.526a.763.763 0 01.501-.187c.264-.004.451.083.562.261.123.178.199.417.227.717.029.287.021.6-.021.936a9.826 9.826 0 01-.13.92 14.737 14.737 0 01-.441 1.79c-.194.674-.393 1.38-.598 2.115a25.918 25.918 0 00-.507 2.114c-.111.613-.188 1.1-.23 1.461-.043.361-.068.65-.077.866a7.02 7.02 0 01-.045.558 8.61 8.61 0 01-.063.595.922.922 0 01-.263.49.696.696 0 01-.483.188zm14.084-.198c-.984.015-1.797-.188-2.44-.61a3.327 3.327 0 01-1.322-1.726c-.24-.74-.277-1.586-.111-2.537.122-.674.34-1.265.657-1.774a5.965 5.965 0 011.096-1.313c.415-.355.83-.619 1.248-.793.417-.187.776-.282 1.076-.287a.83.83 0 01.324.05c.097.034.17.093.22.176.06.07.08.173.058.305a2.22 2.22 0 01-.278.67c-.129.194-.372.372-.73.534-.429.21-.791.444-1.087.7a2.97 2.97 0 00-.69.857 3.32 3.32 0 00-.36 1.14c-.177.974-.051 1.752.378 2.334.429.57 1.075.848 1.939.835.84-.013 1.567-.325 2.182-.934.626-.622 1.028-1.438 1.204-2.449.178-.927.107-1.646-.212-2.157-.32-.523-.84-.779-1.56-.768-.372.006-.69.083-.951.23a6.61 6.61 0 00-.82.59 5.433 5.433 0 00-.514.493c-.13.146-.248.262-.354.348a.614.614 0 01-.377.113.503.503 0 01-.398-.155c-.086-.12-.107-.305-.063-.558.044-.276.178-.56.401-.852.236-.291.52-.56.852-.805a4.541 4.541 0 011.107-.611 3.177 3.177 0 011.166-.252c.864-.013 1.57.18 2.115.58.546.388.92.934 1.124 1.639.202.693.214 1.497.036 2.412-.154.902-.466 1.699-.935 2.39a5.11 5.11 0 01-1.74 1.593 4.632 4.632 0 01-2.241.592zm7.37-.13c-.289.004-.507-.16-.656-.494-.15-.334-.163-.838-.042-1.512.055-.325.162-.819.32-1.481.157-.675.404-1.398.74-2.172.395-.918.75-1.643 1.066-2.176.315-.545.627-.94.935-1.185.309-.244.625-.37.949-.374a.644.644 0 01.58.297c.148.202.253.446.318.733.064.287.116.574.157.862.054.383.12.808.2 1.275.09.467.188.94.291 1.418.116.478.242.932.381 1.362.15.43.318.793.503 1.09l-.646.154c.338-.689.7-1.379 1.085-2.069s.771-1.35 1.157-1.98c.387-.63.75-1.193 1.09-1.69.377-.522.695-.893.956-1.113.272-.22.517-.332.733-.335.156-.003.3.031.433.1.133.059.248.13.346.212.134.13.238.29.313.48.075.192.091.48.05.864a32.642 32.642 0 00-.181 2.343c-.014.685-.01 1.26.008 1.728.025.828.095 1.487.21 1.977.128.49.175.808.141.952a.541.541 0 01-.246.382.743.743 0 01-.483.17c-.288.004-.53-.13-.727-.403-.184-.274-.303-.644-.359-1.111a22.824 22.824 0 01-.133-1.636c-.022-.66-.015-1.398.02-2.215.048-.828.13-1.682.25-2.56l.52-.134a128.099 128.099 0 00-2.005 3.127c-.351.582-.69 1.157-1.018 1.726a31.594 31.594 0 00-.84 1.615c-.128.23-.28.412-.459.547a.934.934 0 01-.59.207c-.289.005-.53-.058-.724-.187a1.893 1.893 0 01-.476-.569 6.613 6.613 0 01-.337-.822l-.209-.7a24.936 24.936 0 01-.72-3.535 10.967 10.967 0 01-.09-1.204l.537-.153c-.399.594-.75 1.176-1.053 1.745a13.37 13.37 0 00-.747 1.757c-.195.591-.36 1.23-.493 1.916-.089.47-.155.878-.197 1.227a9.395 9.395 0 01-.096.794c-.045.204-.126.38-.244.526-.118.145-.29.22-.519.224zm17.264-.265c-.791.012-1.442-.146-1.95-.474a2.998 2.998 0 01-1.103-1.405c-.225-.609-.344-1.31-.356-2.101-.012-.804.065-1.67.23-2.596.144-.83.36-1.578.65-2.242.29-.677.617-1.264.981-1.761.377-.51.772-.93 1.187-1.26a4.833 4.833 0 011.25-.74A8.763 8.763 0 0142.09.885a25.29 25.29 0 001.544-.293 10.16 10.16 0 001.344-.381c.37-.138.651-.208.843-.21a.755.755 0 01.398.101.647.647 0 01.335.733c-.033.205-.156.38-.37.528a2.998 2.998 0 01-.805.336c-.645.19-1.237.325-1.776.405-.527.068-1.012.136-1.455.203a4.502 4.502 0 00-1.29.361c-.406.163-.804.45-1.194.865-.377.402-.718.905-1.02 1.51a7.523 7.523 0 00-.636 2.008c-.232 1.287-.33 2.333-.294 3.136.048.792.237 1.37.567 1.738.342.367.812.545 1.412.536.408-.006.82-.114 1.237-.325.417-.222.803-.51 1.157-.863.367-.354.673-.737.919-1.149.257-.424.42-.834.485-1.231.09-.434.078-.8-.035-1.098-.1-.31-.296-.541-.586-.693-.291-.163-.676-.242-1.156-.234-.636.01-1.347.2-2.134.573-.774.371-1.552.93-2.332 1.673l-.587-.675a6.927 6.927 0 011.648-1.7 6.709 6.709 0 011.93-1 6.241 6.241 0 011.902-.354c.732-.011 1.346.117 1.842.386.496.256.85.635 1.062 1.136.212.5.24 1.124.082 1.87a5.96 5.96 0 01-.71 1.848 7.543 7.543 0 01-1.27 1.64 6.87 6.87 0 01-1.692 1.195 4.589 4.589 0 01-1.938.462zm8.97-.137c-.409.006-.734-.085-.977-.273a1.684 1.684 0 01-.515-.748 3.282 3.282 0 01-.178-1.042c.006-.384.042-.756.108-1.118.068-.313.158-.686.271-1.12.126-.434.263-.886.412-1.356.149-.47.292-.91.43-1.321.15-.41.27-.73.363-.96.15-.422.282-.748.399-.978.129-.23.283-.346.463-.349.156-.002.3.05.434.155a.924.924 0 01.294.41.964.964 0 01.063.557c-.033.193-.113.47-.24.832-.126.362-.27.766-.43 1.213-.162.446-.317.898-.466 1.357a9.03 9.03 0 00-.324 1.21c-.067.326-.11.639-.13.939-.019.288-.003.528.048.72.05.178.154.267.31.265.384-.006.864-.356 1.442-1.049.59-.693 1.24-1.645 1.954-2.856.328-.533.615-1.03.86-1.49.245-.459.46-.858.647-1.197a4.1 4.1 0 01.546-.819c.177-.194.356-.293.536-.296.276-.004.475.1.599.315.135.202.199.477.192.825.005.312-.001.696-.018 1.153l-.015 1.404c-.005.468.002.906.02 1.314.047.695.122 1.264.224 1.707.115.43.216.776.305 1.039.088.263.127.478.117.646a.883.883 0 01-.12.38c-.07.11-.159.2-.266.274a.634.634 0 01-.358.114c-.276.004-.506-.118-.69-.368-.171-.25-.309-.601-.412-1.056a14.846 14.846 0 01-.258-1.598c-.031-.431-.062-.893-.094-1.384-.02-.492-.027-.984-.022-1.476.016-.493.033-.949.05-1.37l.526.173c-.14.278-.292.574-.455.889-.151.314-.338.671-.56 1.07-.21.388-.473.848-.789 1.38a18.587 18.587 0 01-1.303 1.875 8.24 8.24 0 01-1.472 1.445c-.498.367-1.006.555-1.522.563zm10.752-.165c-.431.007-.724-.265-.876-.814-.153-.55-.146-1.282.02-2.197.134-.638.29-1.12.464-1.447.187-.34.4-.57.638-.694.13-.074.316-.119.556-.135.24-.027.491-.043.755-.047a26.44 26.44 0 002.59-.166 13.09 13.09 0 002.53-.579l.342 1.237c-.62.25-1.29.44-2.007.571a21.95 21.95 0 01-2.192.286 44.35 44.35 0 01-2.141.087l-1.047-.146c.146-.71.296-1.457.452-2.24.156-.782.29-1.48.4-2.094.044-.289.136-.524.278-.706.14-.183.301-.275.481-.278.3-.004.524.112.672.35.147.226.17.591.07 1.097-.043.265-.11.584-.2.957-.091.374-.187.765-.289 1.175-.09.41-.18.8-.27 1.174-.078.361-.14.662-.184.903a25.897 25.897 0 00-.295 1.877c-.052.54-.1.95-.144 1.226a.753.753 0 01-.227.418.494.494 0 01-.376.185zm6.21-.095c-.3.005-.519-.166-.656-.512-.126-.346-.187-.819-.184-1.42a13.22 13.22 0 01.221-2.019 52.45 52.45 0 01.588-2.745c.182-.687.347-1.23.497-1.628a2.97 2.97 0 01.35-.707c.14-.206.313-.311.517-.314.264-.004.452.119.564.37.123.237.152.53.085.88a9.726 9.726 0 01-.374 1.41 12.08 12.08 0 00-.39 1.644 20.915 20.915 0 00-.275 1.966 27.64 27.64 0 00-.068 1.46c-.006.396-.031.69-.076.883a.84.84 0 01-.28.526.788.788 0 01-.52.206zm5.45-.101c-.552.008-1.004-.117-1.356-.375-.34-.26-.58-.622-.718-1.088-.127-.466-.136-1.006-.025-1.62.1-.577.288-1.156.568-1.736.29-.593.648-1.15 1.072-1.673a8.608 8.608 0 011.4-1.408 6.799 6.799 0 011.642-.979 4.85 4.85 0 011.758-.369c.276-.004.493.065.652.206.158.142.21.357.154.646a.683.683 0 01-.193.381c-.106.098-.261.16-.465.187a5.598 5.598 0 00-2.326.936 6.853 6.853 0 00-1.755 1.773 5.768 5.768 0 00-.903 2.138 4.745 4.745 0 00-.094.956c.005.276.07.635.197 1.077l-.703-1.232c.22.273.415.45.584.531.181.082.434.12.758.115.768-.012 1.54-.516 2.317-1.512.777-.996 1.487-2.44 2.13-4.335.08-.23.192-.405.334-.527a.811.811 0 01.537-.206.692.692 0 01.635.35c.16.226.23.519.212.879-.037.757-.05 1.44-.04 2.053.02.6.095 1.162.223 1.688a6.44 6.44 0 00.71 1.628.683.683 0 01.095.412.88.88 0 01-.119.452.982.982 0 01-.3.365.733.733 0 01-.43.133.768.768 0 01-.434-.102.933.933 0 01-.256-.302 8.272 8.272 0 01-.466-.983 7.065 7.065 0 01-.342-1.183 9.238 9.238 0 01-.114-1.6 20.56 20.56 0 01.147-2.18l.647-.029c-.378 1.206-.8 2.227-1.267 3.062-.468.823-.962 1.491-1.482 2.003-.508.5-1.018.868-1.531 1.104-.512.235-.997.357-1.453.364zM87.515 15.6c-.24.003-.41-.084-.508-.262a.733.733 0 01-.098-.521c.022-.144.08-.331.172-.56.104-.23.208-.484.312-.762.116-.277.208-.549.275-.814l.49.19c-.24.004-.552.015-.936.033-.372.018-.785.042-1.241.073-.444.03-.9.056-1.367.075-.468.031-.917.056-1.35.075-.43.018-.815.03-1.15.035-.673.01-1.16-.102-1.464-.338-.304-.235-.477-.568-.52-1-.042-.431-.008-.936.103-1.513.056-.313.14-.705.252-1.174.113-.482.237-.982.374-1.5.148-.519.29-1.007.427-1.465.15-.458.276-.82.38-1.086.126-.338.279-.598.456-.781a.918.918 0 01.697-.299.494.494 0 01.4.192c.109.119.154.298.133.538.002.084-.06.313-.187.687-.114.374-.257.838-.429 1.393-.16.542-.325 1.121-.495 1.736a24.598 24.598 0 00-.388 1.698c-.1.541-.112.926-.037 1.152.088.215.341.32.761.313.6-.01 1.158-.03 1.673-.062.528-.032 1.02-.063 1.475-.094.456-.043.881-.08 1.277-.11.395-.042.767-.066 1.115-.07.48-.008.8.107.96.344.17.238.223.525.156.862a4.76 4.76 0 01-.188.67c-.08.264-.171.53-.275.795-.104.266-.19.495-.26.688a6.776 6.776 0 01-.281.437.931.931 0 01-.302.31.788.788 0 01-.412.115zm-1.71-3.466c.116-.35.235-.748.36-1.194.126-.458.25-.922.375-1.392.137-.47.239-.904.305-1.3.078-.386.138-.741.181-1.066a39.292 39.292 0 00.191-1.623c.033-.228.066-.427.1-.595.055-.313.147-.56.276-.743.141-.194.344-.293.608-.297a.632.632 0 01.525.244.989.989 0 01.208.627 7.76 7.76 0 01-.109 1.118c-.054.384-.114.781-.18 1.19-.067.314-.151.693-.252 1.139-.102.445-.208.909-.321 1.39-.113.482-.226.94-.34 1.374-.113.422-.215.771-.307 1.049l-1.62.079zm7.096.971c-.408.006-.733-.085-.976-.273a1.684 1.684 0 01-.516-.748 3.282 3.282 0 01-.178-1.042c.007-.384.043-.756.11-1.117.067-.313.157-.687.27-1.12.126-.435.263-.887.411-1.357.15-.47.292-.91.43-1.32.15-.411.271-.731.364-.96.15-.423.282-.749.399-.979.128-.23.282-.346.462-.349a.677.677 0 01.435.155.924.924 0 01.294.41.963.963 0 01.063.557c-.033.193-.113.47-.24.832-.126.362-.27.766-.431 1.213-.161.446-.316.899-.465 1.357-.15.446-.257.85-.324 1.211-.067.325-.11.638-.13.938a2.25 2.25 0 00.047.72c.051.179.155.267.31.265.385-.006.865-.356 1.443-1.048.59-.694 1.24-1.646 1.954-2.857.328-.533.615-1.03.86-1.489.245-.46.46-.86.647-1.198a4.1 4.1 0 01.546-.819c.177-.194.355-.293.535-.296.276-.004.476.101.599.315.135.202.2.477.193.825.005.312-.001.696-.018 1.153l-.015 1.404c-.005.468.002.906.02 1.314.047.695.122 1.264.224 1.707.115.43.216.776.304 1.04.088.262.128.477.118.645a.885.885 0 01-.12.38.96.96 0 01-.266.274.635.635 0 01-.358.114c-.42.006-.724-.265-.913-.814-.188-.55-.338-1.285-.448-2.208-.03-.431-.061-.893-.093-1.384a30.26 30.26 0 01-.022-1.476c.016-.492.033-.949.05-1.37l.525.173c-.197.423-.43.889-.698 1.397a46.095 46.095 0 01-1.105 1.943 18.585 18.585 0 01-1.303 1.874 8.236 8.236 0 01-1.472 1.445c-.499.367-1.006.555-1.522.563zm16.26-.249a.73.73 0 01-.708-.421c-.137-.298-.214-.663-.233-1.095-.003-.216-.001-.462.007-.738a10 10 0 01.059-.847c.043-.288.081-.553.114-.794l.167-.812c.079-.326.158-.657.237-.994.091-.35.17-.669.237-.958.08-.301.136-.53.17-.686.021-.157-.016-.27-.113-.34-.098-.083-.266-.123-.506-.12a6.069 6.069 0 00-.63.047 9.774 9.774 0 00-.736.119 5.68 5.68 0 00-1.629.6c-.464.26-.724.552-.779.877-.055.277-.022.528.102.754.135.214.396.384.782.51.398.126.969.184 1.713.172.264-.004.528-.014.791-.03.264-.016.516-.038.755-.065a9.53 9.53 0 01.629-.082c.168-.027.276-.04.324-.041.3-.005.552.01.756.043.205.032.285.157.24.374-.032.24-.161.434-.387.582-.214.147-.5.254-.859.319a7.293 7.293 0 01-1.223.109l-1.854.028a4.896 4.896 0 01-1.804-.296c-.543-.208-.962-.508-1.256-.9-.282-.39-.379-.851-.291-1.38.067-.326.218-.664.452-1.016.247-.364.601-.705 1.065-1.024.475-.32 1.095-.581 1.86-.785a9.19 9.19 0 011.382-.291c.371-.042.743-.065 1.115-.071.468-.007.834.053 1.1.181.266.128.449.305.549.532.111.226.139.49.084.79-.044.253-.118.56-.22.922-.103.35-.205.711-.308 1.085-.09.361-.169.687-.237.976-.055.288-.104.601-.147.938-.043.325-.074.643-.094.955-.019.313-.027.583-.023.81.004.265.014.547.031.847.028.287.031.485.009.593a.704.704 0 01-.228.436.672.672 0 01-.465.187zm-6.335.08c-.216.002-.385-.067-.508-.21a.668.668 0 01-.116-.52c.034-.132.122-.265.264-.4.142-.146.38-.305.713-.478a9.45 9.45 0 001.693-1.143 21.91 21.91 0 001.704-1.556l1.144.63c-.401.451-.838.896-1.312 1.335a19.54 19.54 0 01-1.386 1.173 9.358 9.358 0 01-1.247.848c-.381.21-.697.316-.949.32zm16.569-.236c-.288.004-.506-.16-.655-.495-.15-.333-.163-.837-.042-1.511.056-.325.162-.819.32-1.481.158-.675.404-1.398.741-2.172.394-.918.749-1.643 1.065-2.176.315-.545.627-.94.935-1.185.309-.244.625-.37.949-.374a.643.643 0 01.58.297c.148.202.253.446.318.733.064.287.117.574.157.862.054.383.12.808.199 1.275.092.467.189.94.292 1.418.116.478.243.932.381 1.362.151.43.318.793.503 1.09l-.646.154c.338-.689.699-1.379 1.085-2.069.385-.69.771-1.35 1.157-1.98.387-.63.75-1.193 1.091-1.69.376-.522.694-.893.955-1.113.272-.22.517-.332.733-.335.156-.003.3.03.433.1.133.059.248.13.346.212.134.13.238.29.313.48.075.192.091.48.049.864a32.294 32.294 0 00-.18 2.343c-.013.685-.011 1.26.009 1.728.024.828.094 1.487.21 1.977.127.49.174.808.14.952a.538.538 0 01-.246.382.74.74 0 01-.483.17c-.288.004-.53-.13-.727-.403-.184-.274-.303-.644-.359-1.111a23.127 23.127 0 01-.133-1.636 29.34 29.34 0 01.02-2.215c.048-.829.131-1.682.249-2.56l.52-.134c-.281.425-.598.91-.95 1.455-.339.533-.691 1.09-1.054 1.672-.351.582-.69 1.157-1.018 1.726a31.657 31.657 0 00-.839 1.615c-.129.23-.282.412-.46.547a.933.933 0 01-.591.207c-.288.005-.529-.058-.723-.187a1.883 1.883 0 01-.476-.569 6.66 6.66 0 01-.337-.823l-.209-.698a24.036 24.036 0 01-.52-2.26 24.24 24.24 0 01-.2-1.276 10.697 10.697 0 01-.09-1.204l.537-.153c-.399.594-.75 1.176-1.053 1.745a13.37 13.37 0 00-.747 1.757c-.195.591-.36 1.23-.493 1.916-.089.47-.155.878-.197 1.227a9.376 9.376 0 01-.096.794c-.045.204-.126.38-.244.526-.118.145-.291.22-.519.223zm17.066-.28c-.744.012-1.369-.08-1.876-.277-.496-.209-.878-.497-1.148-.865a3.086 3.086 0 01-.524-1.324 5.26 5.26 0 01.065-1.657c.123-.59.342-1.181.656-1.774a7.487 7.487 0 011.217-1.657 6.13 6.13 0 011.656-1.195 4.473 4.473 0 011.955-.48c.636-.01 1.159.084 1.571.282.423.197.715.493.877.886.174.394.206.891.095 1.493-.088.493-.28.934-.574 1.323a3.86 3.86 0 01-1.083.97 5.889 5.889 0 01-1.449.617 6.959 6.959 0 01-1.689.224c-.815.012-1.363-.075-1.642-.263-.267-.188-.378-.402-.334-.643.022-.144.075-.247.158-.309.083-.073.214-.11.394-.114.132-.002.288.02.469.065.193.033.475.047.847.041a4.864 4.864 0 001.616-.277c.489-.175.888-.41 1.195-.702.307-.305.5-.65.578-1.035.067-.361.015-.63-.156-.808-.159-.177-.472-.262-.94-.255a2.984 2.984 0 00-1.345.344 4.61 4.61 0 00-1.175.864 5.31 5.31 0 00-.899 1.256 5.031 5.031 0 00-.499 1.484c-.077.433-.077.83 0 1.188.077.347.262.632.553.856.303.211.731.313 1.283.304.624-.01 1.157-.095 1.598-.258a5.123 5.123 0 001.143-.594c.309-.22.57-.41.784-.57.213-.16.404-.24.572-.243.204-.003.349.073.436.228.098.142.125.334.08.575-.044.24-.202.495-.474.763a4.64 4.64 0 01-1.033.736 6.7 6.7 0 01-1.395.58 6.154 6.154 0 01-1.563.221zm6.784-7.376c-.276.004-.493-.077-.651-.243a.629.629 0 01-.153-.573.693.693 0 01.211-.345c.106-.098.297-.185.572-.261.43-.127 1.004-.244 1.722-.35a19.92 19.92 0 012.554-.184c.504-.008.966-.003 1.386.015.432.005.907.04 1.424.104.409.042.722.133.94.274.231.14.329.3.296.481a.81.81 0 01-.157.363.752.752 0 01-.32.239 1.224 1.224 0 01-.503.097c-.252.004-.546-.003-.882-.022-.336-.019-.697-.037-1.081-.056a12.09 12.09 0 00-1.153-.036c-.828.013-1.493.059-1.996.139-.503.067-.922.146-1.256.235a4.568 4.568 0 01-.953.123zm2.722 7.267a.65.65 0 01-.599-.315 2.413 2.413 0 01-.265-.824 7.248 7.248 0 01-.015-1.026c.029-.445.081-.925.158-1.443.076-.529.158-1.04.246-1.534.122-.662.227-1.245.315-1.75.1-.518.178-.945.233-1.282l1.618-.133-.168.777c-.056.3-.116.643-.182 1.028-.067.374-.139.759-.217 1.156a83.32 83.32 0 01-.199 1.12c-.11.6-.181 1.106-.211 1.515-.017.396-.018.72-.003.972.016.251.031.461.046.629.014.156.011.3-.011.432a.954.954 0 01-.139.362.668.668 0 01-.267.22.692.692 0 01-.34.096zm9.437-.145c-.984.015-1.797-.188-2.44-.61a3.334 3.334 0 01-1.323-1.726c-.239-.74-.276-1.586-.11-2.537.121-.674.34-1.265.657-1.774a5.95 5.95 0 011.096-1.313 4.75 4.75 0 011.248-.793c.417-.187.775-.282 1.075-.287a.829.829 0 01.325.05.4.4 0 01.219.176c.061.07.081.173.059.305a2.22 2.22 0 01-.278.67c-.129.194-.373.372-.73.534-.429.21-.791.444-1.088.7-.284.245-.514.53-.689.857a3.32 3.32 0 00-.36 1.14c-.177.974-.051 1.753.378 2.334.428.57 1.075.848 1.939.834.84-.012 1.567-.324 2.182-.933.626-.622 1.028-1.438 1.204-2.449.178-.927.107-1.646-.213-2.157-.32-.523-.84-.779-1.56-.768-.372.006-.689.083-.95.23-.25.148-.523.345-.819.59a5.396 5.396 0 00-.515.493c-.13.146-.248.262-.355.348a.611.611 0 01-.376.113.5.5 0 01-.398-.156c-.086-.118-.107-.304-.063-.557.044-.276.178-.56.401-.852.236-.292.52-.56.852-.805a4.536 4.536 0 011.107-.611 3.172 3.172 0 011.166-.252c.864-.013 1.569.18 2.115.58.546.387.921.934 1.123 1.639.203.693.215 1.497.037 2.412-.154.902-.466 1.699-.935 2.39-.47.68-1.05 1.21-1.74 1.593a4.632 4.632 0 01-2.241.592zm6.676-1.146c.151-.362.342-.767.576-1.215.233-.46.483-.937.752-1.434.28-.496.561-.98.842-1.453.292-.484.568-.92.826-1.309.34-.497.681-.964 1.022-1.401a7.72 7.72 0 01.974-1.06c.32-.28.594-.423.822-.426.24-.004.451.095.634.296.196.201.369.535.52 1 .101.335.209.76.325 1.274.116.514.227 1.076.332 1.687.105.598.193 1.203.262 1.814s.114 1.174.134 1.69l-1.582.168a22.117 22.117 0 00-.154-1.87 24.86 24.86 0 00-.283-1.975 20.502 20.502 0 00-.367-1.651c-.127-.478-.258-.8-.393-.966l.7-.155c-.378.414-.778.9-1.202 1.459a17.907 17.907 0 00-1.161 1.8c-.268.472-.519.92-.753 1.343a31.55 31.55 0 00-.647 1.235 57.47 57.47 0 00-.558 1.196l-1.621-.047zm7.846 3.318c-.24.004-.427-.077-.562-.243a.627.627 0 01-.134-.556c.021-.144.096-.362.224-.652.127-.278.26-.598.399-.96a5.98 5.98 0 00.307-1.12l.662.907a11.76 11.76 0 00-.793-.06 20.036 20.036 0 00-1.333-.015 74.05 74.05 0 00-1.565.042c-.528.008-1.056.022-1.584.042-.515.02-1.019.052-1.51.095-.492.032-.965.069-1.421.112-.455.055-.868.115-1.239.18l.692-.64a13.12 13.12 0 00-.107 1.262 38 38 0 01-.026.63l.006.378c-.009.204-.079.362-.209.472a.72.72 0 01-.501.187.586.586 0 01-.435-.155.863.863 0 01-.258-.428 2.15 2.15 0 01-.081-.557 7.368 7.368 0 01.011-.468 4.07 4.07 0 01.028-.54c.009-.18.025-.325.047-.433.045-.193.115-.362.208-.508a1.09 1.09 0 01.372-.401c.167-.111.381-.192.645-.244.299-.053.7-.101 1.204-.145.515-.056 1.09-.1 1.726-.134.647-.046 1.313-.08 1.996-.103a56.147 56.147 0 011.962-.066l.648-.01c.239-.003.486-.001.738.007s.492.028.721.06c.348.032.584.136.707.314.134.178.169.46.103.845-.056.3-.141.62-.256.958a5.627 5.627 0 01-.417.942 2.932 2.932 0 01-.493.728c-.166.182-.326.275-.482.277zm4.915-2.487c-.408.006-.734-.085-.976-.273a1.685 1.685 0 01-.516-.749 3.288 3.288 0 01-.178-1.041 6.8 6.8 0 01.109-1.118c.067-.313.158-.686.271-1.12.125-.434.262-.886.411-1.356.149-.47.292-.911.43-1.321.15-.41.271-.73.363-.96.15-.422.283-.748.399-.978.129-.23.283-.346.463-.35a.67.67 0 01.435.156.933.933 0 01.294.41.967.967 0 01.062.557c-.033.192-.112.47-.239.832-.126.362-.27.766-.431 1.212a42.5 42.5 0 00-.466 1.358c-.149.446-.257.85-.323 1.21a6.95 6.95 0 00-.13.939c-.019.288-.004.528.047.72.051.178.154.267.31.264.384-.005.865-.355 1.442-1.048.59-.693 1.241-1.645 1.955-2.856.328-.533.614-1.03.859-1.49.245-.46.461-.859.648-1.197.187-.351.368-.624.546-.819.177-.195.355-.293.535-.296.276-.004.476.1.599.315.135.202.199.477.193.825.004.312-.002.696-.019 1.152l-.014 1.405c-.005.468.002.906.02 1.314.046.695.121 1.264.224 1.706.115.43.216.777.304 1.04.088.262.127.478.118.646a.885.885 0 01-.12.38.973.973 0 01-.266.274.638.638 0 01-.359.114c-.419.006-.724-.265-.912-.815-.189-.549-.338-1.284-.448-2.207-.031-.432-.062-.893-.093-1.385a30.26 30.26 0 01-.023-1.476c.017-.492.034-.948.051-1.368l.525.172c-.198.423-.43.888-.699 1.396a45.664 45.664 0 01-1.104 1.944 18.59 18.59 0 01-1.304 1.874 8.207 8.207 0 01-1.472 1.444c-.498.368-1.005.556-1.521.564zm16.638-.255c-.36.006-.758-.096-1.193-.306a6.574 6.574 0 01-1.292-.88 11.89 11.89 0 01-1.152-1.17 6.921 6.921 0 01-.81-1.194 1.748 1.748 0 01-.242-.519 2.173 2.173 0 01-.025-.485c.034-.097.08-.206.139-.326.058-.121.134-.23.229-.328.141-.194.383-.456.726-.785.343-.33.739-.684 1.19-1.063.462-.39.936-.752 1.423-1.083a12.33 12.33 0 011.409-.85c.453-.223.841-.337 1.165-.342a.463.463 0 01.307.085.493.493 0 01.184.232.586.586 0 01.04.287c-.007.264-.178.519-.51.764a9.583 9.583 0 01-1.07.682c-.678.395-1.278.782-1.8 1.162-.522.38-.943.716-1.263 1.01-.307.292-.466.499-.476.619-.022.12.059.329.243.626.185.285.466.611.843.977a7.75 7.75 0 001.33.988c.23.14.454.275.672.404.23.116.412.24.546.37.145.117.214.254.204.41a.757.757 0 01-.121.362.708.708 0 01-.302.257.87.87 0 01-.394.096zm-5.994.074c-.312.005-.524-.148-.637-.459-.113-.322-.15-.783-.111-1.384.051-.613.153-1.352.308-2.219.066-.361.145-.74.235-1.138l.305-1.192c.102-.41.186-.807.252-1.192a2.43 2.43 0 00.05-.29c.022-.108.038-.216.049-.324.044-.24.107-.44.189-.597a1.1 1.1 0 01.282-.364.578.578 0 01.358-.15c.276-.004.494.119.654.368.171.238.212.579.123 1.024a12.47 12.47 0 01-.271 1.12c-.113.434-.232.88-.357 1.338-.125.458-.221.862-.288 1.21A34.15 34.15 0 00186.4 9.1c-.04.492-.064.9-.071 1.225-.007.312-.028.528-.062.649a.822.822 0 01-.157.38.672.672 0 01-.266.22.669.669 0 01-.359.096zM4.265 30.482c-.983.015-1.796-.189-2.439-.611a3.327 3.327 0 01-1.322-1.726c-.24-.74-.277-1.586-.111-2.537.121-.674.34-1.265.657-1.774a5.964 5.964 0 011.096-1.313 4.77 4.77 0 011.248-.793c.417-.186.776-.282 1.075-.287a.828.828 0 01.325.05c.097.034.17.093.219.176.061.071.08.173.059.305-.057.241-.15.465-.278.67-.13.195-.372.372-.73.534-.429.21-.791.444-1.087.7a2.97 2.97 0 00-.69.857 3.32 3.32 0 00-.36 1.14c-.177.975-.051 1.753.378 2.334.429.57 1.075.848 1.939.835.84-.013 1.567-.324 2.182-.934.626-.621 1.028-1.438 1.204-2.448.178-.927.107-1.646-.213-2.157-.32-.523-.84-.78-1.56-.769-.372.006-.688.083-.95.231-.25.148-.523.344-.82.589a5.452 5.452 0 00-.514.494c-.13.146-.248.261-.354.347a.614.614 0 01-.377.114.503.503 0 01-.398-.156c-.086-.119-.107-.305-.063-.557.044-.277.178-.561.401-.852.236-.292.52-.56.852-.806a4.54 4.54 0 011.107-.61 3.176 3.176 0 011.166-.252c.864-.014 1.569.18 2.115.58.546.387.92.933 1.123 1.638.203.693.215 1.497.037 2.412-.154.902-.466 1.7-.935 2.39-.47.68-1.05 1.21-1.74 1.593a4.633 4.633 0 01-2.241.593zm10.592-.18c-.636.01-1.177-.09-1.625-.3a2.77 2.77 0 01-1.076-.92 4.056 4.056 0 01-.58-1.43 7.381 7.381 0 01-.136-1.817c.026-.672.105-1.375.238-2.11a9.74 9.74 0 01.65-2.242c.29-.676.617-1.263.981-1.761.376-.51.772-.93 1.187-1.26.415-.33.831-.577 1.249-.74.37-.137.746-.245 1.129-.323.383-.09.753-.167 1.113-.233.359-.065.688-.13.987-.195.526-.116.974-.243 1.344-.38.37-.138.65-.209.843-.212a.754.754 0 01.397.102.647.647 0 01.336.733c-.033.205-.156.38-.37.528a3 3 0 01-.805.336 13.26 13.26 0 01-1.776.406c-.527.068-1.012.135-1.455.202a4.503 4.503 0 00-1.29.362c-.407.162-.804.45-1.194.864-.378.402-.718.905-1.02 1.51a7.522 7.522 0 00-.636 2.008c-.232 1.288-.33 2.333-.294 3.137.048.791.237 1.37.566 1.737.342.367.813.546 1.413.537.408-.007.82-.115 1.237-.325.417-.223.802-.51 1.157-.864a5.5 5.5 0 00.918-1.148c.258-.424.42-.835.486-1.232.089-.433.077-.8-.035-1.097-.1-.31-.296-.542-.587-.694-.29-.163-.676-.241-1.156-.234-.636.01-1.347.2-2.133.573-.774.372-1.552.93-2.333 1.674l-.586-.675a6.928 6.928 0 011.648-1.7 6.707 6.707 0 011.929-1.001 6.241 6.241 0 011.903-.354c.732-.01 1.346.118 1.842.386.496.257.85.635 1.061 1.136.212.501.24 1.125.083 1.871a5.962 5.962 0 01-.71 1.847 7.542 7.542 0 01-1.27 1.64 6.87 6.87 0 01-1.693 1.196 4.589 4.589 0 01-1.937.462zm10.115 4.345c-.732.011-1.351-.051-1.857-.187-.506-.125-.875-.305-1.107-.541-.231-.237-.32-.494-.264-.77.078-.422.333-.636.765-.642a.874.874 0 01.397.084 14 14 0 00.417.191c.157.082.374.15.651.206.29.056.668.08 1.136.073.576-.009 1.053-.142 1.434-.4.38-.258.68-.617.901-1.076.233-.46.405-.99.516-1.592.067-.35.11-.692.128-1.028.031-.337.062-.697.092-1.082.03-.384.071-.829.123-1.334.052-.517.14-1.124.26-1.822l.566.514c-.371.833-.744 1.517-1.12 2.05-.377.523-.742.93-1.098 1.224-.356.281-.695.479-1.017.591a2.87 2.87 0 01-.844.157c-1.043.016-1.776-.404-2.197-1.262-.421-.87-.455-2.267-.1-4.193.143-.806.29-1.415.44-1.825.162-.41.331-.69.509-.836a.885.885 0 01.555-.224c.288-.005.475.094.562.297.087.203.063.57-.073 1.1-.18.758-.32 1.468-.417 2.13a9.19 9.19 0 00-.118 1.712c.02.492.103.874.251 1.148.148.262.384.39.708.385.504-.007.992-.273 1.464-.796.472-.535.911-1.25 1.318-2.145.418-.906.792-1.92 1.123-3.041.103-.338.208-.561.314-.671.106-.122.273-.184.501-.188a.692.692 0 01.453.155c.145.106.232.297.26.572.04.264-.008.625-.145 1.083-.17.615-.3 1.163-.389 1.644-.076.481-.13.944-.159 1.389-.029.432-.052.877-.07 1.333-.004.444-.033.936-.085 1.477a25.36 25.36 0 01-.26 1.84c-.199 1.084-.522 1.935-.968 2.554-.435.63-.956 1.076-1.564 1.338a5.197 5.197 0 01-1.992.408zm9.472-7.544c-.456.007-.836-.089-1.139-.288-.303-.2-.53-.478-.679-.836a3.004 3.004 0 01-.18-1.203c.005-.456.07-.92.195-1.39a6.93 6.93 0 01.484-1.303c.21-.4.439-.727.687-.983.248-.256.498-.385.75-.39a.614.614 0 01.307.068.47.47 0 01.22.213c.049.083.068.19.058.323-.01.108-.068.277-.172.507-.093.217-.209.477-.348.78-.14.29-.261.603-.364.94a3.511 3.511 0 00-.165.993c.004.216.025.402.063.558.038.143.106.25.203.32.109.07.248.105.415.102a2.781 2.781 0 001.184-.306c.405-.198.79-.468 1.158-.81a7.37 7.37 0 001.009-1.113 5.88 5.88 0 00.683-1.235l.172 1.851c-.41.607-.864 1.154-1.36 1.642a5.918 5.918 0 01-1.55 1.14 3.696 3.696 0 01-1.631.42zm3.878 2.875c-.264.004-.451-.095-.562-.297a2.673 2.673 0 01-.246-.77 6.416 6.416 0 01-.032-.864 14.8 14.8 0 01.109-1.154 17.716 17.716 0 01.418-2.113c.09-.36.187-.722.289-1.084.102-.362.205-.7.309-1.013.103-.325.183-.585.24-.778.114-.385.241-.687.382-.906.153-.218.337-.329.553-.332.204-.003.38.12.528.37.147.25.182.567.104.952-.044.265-.14.627-.29 1.085-.149.446-.297.91-.446 1.393-.137.47-.239.88-.305 1.229a15.868 15.868 0 00-.23 1.48c-.041.42-.06.793-.054 1.117-.009.24-.006.438.009.593.014.156.01.294-.012.415a.893.893 0 01-.245.453c-.118.146-.29.22-.519.224zm7.164-.163c-.744.011-1.37-.081-1.876-.278-.496-.208-.878-.496-1.148-.864a3.086 3.086 0 01-.524-1.324 5.274 5.274 0 01.064-1.657c.123-.59.342-1.182.657-1.775a7.461 7.461 0 011.217-1.657 6.112 6.112 0 011.656-1.195c.62-.31 1.271-.47 1.955-.48.636-.01 1.16.084 1.57.282.424.197.716.493.878.887.174.393.206.89.095 1.492-.088.494-.28.935-.574 1.323-.282.377-.643.7-1.083.971a5.892 5.892 0 01-1.449.616 6.956 6.956 0 01-1.688.224c-.816.013-1.364-.075-1.643-.263-.267-.188-.378-.402-.334-.643.022-.144.075-.247.158-.308.083-.073.214-.111.394-.114.132-.002.288.02.469.065.192.033.475.046.847.04.6-.009 1.138-.1 1.616-.276.49-.176.887-.41 1.195-.703a2 2 0 00.578-1.035c.067-.36.015-.63-.156-.807-.159-.178-.472-.263-.94-.256a2.983 2.983 0 00-1.345.345c-.417.21-.808.498-1.175.864a5.294 5.294 0 00-.899 1.256 5.04 5.04 0 00-.5 1.484 3.06 3.06 0 00.001 1.188c.077.347.262.632.553.855.303.212.731.313 1.283.305.624-.01 1.157-.096 1.598-.259a5.152 5.152 0 001.143-.593c.309-.221.57-.411.784-.57.213-.16.404-.24.572-.243.204-.003.35.073.436.227.098.143.125.334.08.575-.044.24-.202.495-.474.763a4.62 4.62 0 01-1.033.736 6.717 6.717 0 01-1.395.58 6.156 6.156 0 01-1.563.222zm7.478-.097c-.432.007-.724-.265-.877-.814-.152-.55-.146-1.282.02-2.197.135-.638.29-1.12.464-1.447.187-.34.4-.57.638-.694.13-.074.316-.119.556-.135.24-.027.491-.043.755-.047a26.38 26.38 0 002.59-.166c.862-.11 1.706-.302 2.53-.579l.342 1.237c-.62.25-1.29.44-2.007.571-.718.131-1.449.226-2.192.286a43.03 43.03 0 01-2.141.086l-1.046-.146c.145-.71.295-1.456.451-2.239.157-.782.29-1.48.4-2.094.044-.289.136-.524.278-.706.14-.183.301-.275.481-.278.3-.005.524.112.672.35.147.226.171.591.07 1.097-.043.265-.11.584-.2.957-.091.374-.187.765-.289 1.175-.09.41-.18.8-.27 1.174-.078.361-.14.662-.184.903a25.842 25.842 0 00-.295 1.877c-.052.54-.1.95-.144 1.226a.754.754 0 01-.227.418.495.495 0 01-.375.185zm6.209-.095c-.3.005-.519-.166-.656-.512-.125-.346-.187-.82-.184-1.42.015-.611.089-1.285.221-2.019.223-1.155.419-2.07.588-2.745.182-.687.348-1.23.497-1.628a2.97 2.97 0 01.35-.707c.14-.206.313-.311.517-.314.264-.004.452.119.564.37.123.237.152.53.085.88a9.74 9.74 0 01-.374 1.41 12.24 12.24 0 00-.39 1.644 20.92 20.92 0 00-.275 1.966 27.64 27.64 0 00-.068 1.46c-.006.396-.031.69-.076.883a.84.84 0 01-.28.526.788.788 0 01-.52.206zm5.271-.08c-.408.006-.733-.085-.976-.274a1.684 1.684 0 01-.516-.748 3.282 3.282 0 01-.177-1.041 6.8 6.8 0 01.108-1.118c.068-.313.158-.686.271-1.12a70.71 70.71 0 01.842-2.677c.15-.41.27-.73.363-.96.15-.422.282-.748.399-.978.128-.23.283-.347.463-.35a.67.67 0 01.434.156.925.925 0 01.294.41.964.964 0 01.063.557 5.6 5.6 0 01-.24.831c-.126.362-.27.766-.43 1.213-.162.447-.317.899-.466 1.357-.15.447-.257.85-.324 1.211-.067.325-.11.638-.13.939-.019.288-.003.528.048.719.05.18.154.268.31.265.384-.006.864-.355 1.442-1.048.59-.693 1.24-1.645 1.954-2.856.328-.533.615-1.03.86-1.49.245-.46.46-.859.647-1.198.187-.35.369-.623.546-.818.177-.195.356-.294.535-.296.276-.005.476.1.6.315.135.201.199.477.192.825.005.312-.001.696-.018 1.152l-.015 1.404c-.005.469.002.907.02 1.314.047.696.122 1.265.224 1.707.115.43.216.777.304 1.04.088.262.128.478.118.646a.883.883 0 01-.12.38.964.964 0 01-.266.274.634.634 0 01-.358.113c-.42.007-.724-.265-.913-.814-.188-.549-.337-1.285-.447-2.207-.031-.432-.062-.893-.094-1.385-.02-.492-.027-.984-.022-1.476.016-.492.033-.948.05-1.369l.525.172c-.197.423-.43.889-.698 1.397a46.095 46.095 0 01-1.105 1.943 18.585 18.585 0 01-1.303 1.875 8.24 8.24 0 01-1.472 1.444c-.499.368-1.006.556-1.522.564zm16.26-.25a.73.73 0 01-.708-.42c-.137-.299-.214-.663-.233-1.095-.003-.216-.001-.462.007-.738.007-.276.027-.559.059-.847.043-.29.081-.554.114-.794l.167-.813c.08-.325.158-.656.237-.994.09-.349.17-.668.237-.957.08-.302.136-.53.17-.687.021-.156-.016-.27-.113-.34-.098-.083-.266-.122-.506-.119a6.064 6.064 0 00-.63.046 9.319 9.319 0 00-.736.12 5.622 5.622 0 00-1.629.6c-.464.26-.724.552-.779.876-.055.277-.022.529.102.755.135.214.396.384.782.51.398.126.969.183 1.713.172.264-.004.528-.014.791-.03.264-.016.516-.038.755-.066.252-.04.462-.067.63-.082.167-.026.275-.04.323-.04.3-.005.552.01.756.042.205.033.285.158.24.374a.804.804 0 01-.387.582c-.214.148-.5.254-.86.32a7.286 7.286 0 01-1.222.108l-1.853.029a4.898 4.898 0 01-1.805-.297c-.543-.207-.962-.507-1.256-.899-.282-.391-.38-.852-.291-1.381.067-.326.218-.664.452-1.016.247-.363.602-.705 1.065-1.024.475-.32 1.095-.58 1.86-.784.55-.153 1.01-.25 1.382-.292.371-.041.743-.065 1.115-.07.468-.008.835.052 1.1.18.266.128.45.306.549.532.111.226.14.49.084.791-.044.253-.118.56-.22.921-.103.35-.205.712-.307 1.085-.091.362-.17.687-.238.976a14.97 14.97 0 00-.147.938 14.23 14.23 0 00-.094.956 10.56 10.56 0 00-.023.81c.004.264.014.546.03.846.03.288.032.486.01.594a.705.705 0 01-.228.436.673.673 0 01-.465.187zm-6.335.08c-.216.003-.385-.067-.507-.209a.666.666 0 01-.116-.52.874.874 0 01.263-.4c.142-.146.38-.306.713-.479a9.46 9.46 0 001.693-1.142 21.969 21.969 0 001.704-1.556l1.144.63c-.401.45-.838.895-1.312 1.335a19.54 19.54 0 01-1.386 1.173c-.45.355-.866.637-1.247.847-.38.21-.697.317-.95.32zm17.766-3.207c-.526.128-.886.122-1.08-.02-.195-.14-.27-.337-.226-.59.033-.204.138-.398.316-.58.177-.183.535-.339 1.073-.467a30.876 30.876 0 013.428-.683 24.711 24.711 0 013.308-.284c.42-.007.727.066.92.22a.53.53 0 01.244.572.628.628 0 01-.263.472c-.142.11-.37.168-.681.172a23.135 23.135 0 00-3.47.306c-.467.067-.904.151-1.31.254-.407.09-.796.192-1.166.305-.37.102-.735.21-1.093.323zm.869-4.405c-.527.091-.887.067-1.082-.074-.194-.141-.263-.356-.207-.645.044-.217.173-.399.387-.546.226-.16.608-.28 1.147-.36a22.69 22.69 0 012.227-.322 35.038 35.038 0 012.14-.14 50.518 50.518 0 011.782-.064c.732-.01 1.231.06 1.497.212.266.14.377.336.333.588a.834.834 0 01-.298.491c-.155.11-.388.168-.7.173-.912.014-1.71.044-2.393.09-.683.035-1.3.086-1.852.155a25.53 25.53 0 00-1.527.203c-.479.068-.964.147-1.454.239zm18.899 11.556c-.732.01-1.351-.052-1.857-.188-.506-.124-.875-.305-1.106-.541-.232-.237-.32-.493-.264-.77a.863.863 0 01.227-.472c.13-.11.309-.166.537-.17a.87.87 0 01.397.084c.121.058.26.122.417.192.158.081.375.15.652.206.289.055.667.08 1.135.072.576-.009 1.054-.142 1.434-.4a2.66 2.66 0 00.902-1.076c.233-.46.404-.99.515-1.592.067-.349.11-.691.129-1.028.03-.336.061-.697.091-1.081.03-.385.071-.83.124-1.334a25.68 25.68 0 01.26-1.823l.566.514c-.372.834-.745 1.517-1.121 2.051-.376.522-.742.93-1.097 1.223-.356.282-.695.479-1.018.592-.31.1-.591.153-.843.157-1.044.016-1.777-.405-2.198-1.263-.421-.87-.455-2.267-.1-4.193.144-.806.29-1.414.44-1.825.162-.41.332-.689.509-.836a.886.886 0 01.555-.224.625.625 0 01.434.137c.109.083.166.226.169.43.015.204-.023.48-.114.83-.18.758-.319 1.469-.417 2.13a9.243 9.243 0 00-.118 1.712c.02.492.104.875.252 1.149.148.261.384.39.708.385.504-.008.992-.273 1.464-.797.472-.535.911-1.25 1.317-2.144.418-.907.793-1.92 1.124-3.042.102-.337.207-.561.313-.67.107-.122.274-.185.502-.188a.692.692 0 01.452.155c.146.106.233.296.261.572.04.263-.009.624-.146 1.082-.17.615-.3 1.163-.389 1.644-.076.482-.129.944-.158 1.389-.03.432-.053.877-.07 1.333-.005.444-.034.937-.085 1.478a25.646 25.646 0 01-.26 1.84c-.144.806-.362 1.482-.653 2.026-.292.557-.633 1-1.024 1.33a3.52 3.52 0 01-1.321.704 5.305 5.305 0 01-1.527.24zm10.988-4.705c-.888.013-1.622-.15-2.203-.488a2.881 2.881 0 01-1.211-1.458c-.226-.633-.261-1.364-.105-2.195a5.95 5.95 0 01.743-1.973 6.354 6.354 0 011.38-1.606 6.706 6.706 0 011.82-1.09 5.656 5.656 0 012.027-.409c.312-.005.589.04.831.131.241.08.417.21.528.389.122.166.155.375.099.628-.044.229-.131.41-.261.544a.676.676 0 01-.466.187.55.55 0 01-.307-.067 3.73 3.73 0 00-.236-.14c-.073-.047-.199-.07-.379-.067a3.778 3.778 0 00-1.918.552 4.923 4.923 0 00-1.509 1.355 4.364 4.364 0 00-.783 1.758c-.077.505-.058.943.056 1.314.125.358.346.636.661.835.327.2.724.295 1.192.288.528-.008.947-.074 1.257-.199.31-.137.554-.285.732-.443.189-.16.343-.3.461-.421a.546.546 0 01.411-.205c.228-.003.385.049.471.155.097.107.124.292.08.557a2.045 2.045 0 01-.596 1.071c-.319.305-.723.545-1.213.72a4.708 4.708 0 01-1.562.277zm12.435-.172c-.288.004-.488-.15-.601-.46-.112-.31-.172-.705-.18-1.185-.005-.36.019-.762.072-1.207.053-.457.112-.914.177-1.37.065-.458.124-.885.178-1.282.066-.397.115-.728.147-.992a9.87 9.87 0 00.077-.865c.02-.24.028-.493.024-.757l.349.463-1.296.02c-.383.006-.845.03-1.385.075a32.95 32.95 0 00-1.564.132 9.352 9.352 0 00-1.293.218l.831-1.003c.035.671.003 1.35-.095 2.035-.085.686-.2 1.42-.344 2.202-.067.35-.139.74-.216 1.174a27.07 27.07 0 01-.251 1.245c-.09.398-.175.717-.255.959a1.238 1.238 0 01-.317.49.788.788 0 01-.519.188c-.24.004-.416-.107-.527-.334-.112-.226-.134-.52-.068-.88.044-.265.106-.566.184-.904.079-.349.152-.71.218-1.083s.127-.71.182-1.011c.123-.602.199-1.12.229-1.552a33.5 33.5 0 00.09-1.171c.031-.337.074-.661.129-.974.068-.265.173-.47.315-.617.153-.146.368-.252.643-.316.406-.09.879-.158 1.419-.202a25.677 25.677 0 011.69-.116 82.443 82.443 0 011.674-.043c.696-.01 1.202.12 1.518.39.316.272.408.756.274 1.454-.044.241-.099.578-.164 1.011-.066.433-.142.914-.23 1.444-.076.53-.14 1.064-.192 1.605a17.06 17.06 0 00-.085 1.477 4.94 4.94 0 00.009.594c.015.204.012.378-.01.523a.813.813 0 01-.281.436.847.847 0 01-.556.188zm6.881-.106c-.996.015-1.772-.153-2.33-.504a2.554 2.554 0 01-1.102-1.477c-.178-.634-.195-1.348-.051-2.142.123-.59.342-1.181.657-1.774a7.451 7.451 0 011.216-1.657 6.128 6.128 0 011.656-1.196c.62-.31 1.271-.47 1.955-.48.636-.01 1.16.085 1.571.282.423.198.715.494.877.887.174.393.206.891.095 1.493a3.037 3.037 0 01-.856 1.687c-.461.451-1.038.802-1.73 1.053-.68.25-1.416.381-2.208.394-.816.012-1.364-.076-1.643-.263-.266-.188-.378-.403-.333-.643.021-.145.074-.247.157-.309.083-.073.214-.111.394-.114.132-.002.288.02.469.065.193.033.475.047.847.041a4.88 4.88 0 001.616-.277c.489-.175.888-.41 1.195-.702.308-.305.5-.65.579-1.035.066-.361.014-.63-.157-.808-.159-.177-.472-.262-.94-.255a2.984 2.984 0 00-1.345.344 4.61 4.61 0 00-1.175.864 5.311 5.311 0 00-.899 1.256 5.06 5.06 0 00-.499 1.484c-.077.433-.077.83 0 1.188.078.347.262.632.553.856.304.211.731.313 1.283.304.624-.01 1.157-.096 1.598-.258a5.158 5.158 0 001.144-.594c.308-.22.569-.41.783-.57.213-.16.404-.24.572-.243.204-.003.349.073.436.228.098.142.125.334.081.575-.045.24-.203.495-.475.763a4.64 4.64 0 01-1.033.736 6.7 6.7 0 01-1.395.58 6.154 6.154 0 01-1.563.221zm6.449-.027a.597.597 0 01-.38-.12c-.109-.07-.177-.19-.203-.357-.027-.167.018-.372.134-.614.104-.277.297-.622.578-1.035.282-.412.635-.874 1.059-1.384.425-.51.903-1.04 1.434-1.588a34.635 34.635 0 011.757-1.647 21.42 21.42 0 011.957-1.524c.439-.331.795-.577 1.069-.737.285-.172.512-.284.679-.334.167-.051.323-.077.467-.08a.63.63 0 01.47.173c.134.106.185.274.152.502-.033.18-.115.344-.244.49a2.18 2.18 0 01-.552.422 16.095 16.095 0 00-2.778 1.951 25.58 25.58 0 00-2.482 2.504 31.734 31.734 0 00-2.137 2.715c-.177.231-.348.396-.515.494a.815.815 0 01-.465.17zm6.659-.137a.792.792 0 01-.489-.155c-.133-.106-.269-.314-.405-.624a28.412 28.412 0 00-.945-1.732 27.275 27.275 0 00-1.107-1.783 20.62 20.62 0 00-1.178-1.656 13.41 13.41 0 00-1.118-1.297 3.439 3.439 0 01-.55-.658.913.913 0 01-.118-.664 1.36 1.36 0 01.103-.308.501.501 0 01.195-.219.802.802 0 01.359-.077.945.945 0 01.596.17c.17.118.402.337.694.656.22.225.47.521.752.889.282.367.576.783.883 1.246.319.464.633.933.94 1.408.307.463.59.91.849 1.337.27.428.486.797.647 1.107.271.5.439.881.503 1.144.064.251.079.46.046.63a.72.72 0 01-.21.417c-.106.11-.255.166-.447.168zm12.747-.25c-.888.014-1.623-.149-2.204-.488a2.88 2.88 0 01-1.21-1.458c-.226-.632-.261-1.364-.106-2.194a5.93 5.93 0 01.744-1.974 6.33 6.33 0 011.379-1.605 6.721 6.721 0 011.82-1.09 5.655 5.655 0 012.028-.41c.312-.004.589.04.83.132.241.08.417.21.528.388.123.166.156.376.1.629-.045.228-.132.41-.262.544a.672.672 0 01-.465.187.55.55 0 01-.307-.067 4.335 4.335 0 00-.236-.14c-.073-.048-.199-.07-.379-.067a3.776 3.776 0 00-1.918.551 4.938 4.938 0 00-1.51 1.356 4.391 4.391 0 00-.783 1.758c-.076.505-.057.943.056 1.313.126.358.346.637.661.836.327.2.725.295 1.193.288.528-.008.947-.075 1.257-.2a2.76 2.76 0 00.731-.443c.19-.159.344-.299.462-.42a.546.546 0 01.411-.205c.228-.004.384.048.47.155.098.106.125.292.081.556a2.052 2.052 0 01-.596 1.072c-.319.305-.724.545-1.213.72a4.713 4.713 0 01-1.562.276zm5.782-7.343c-.276.004-.493-.077-.652-.242a.631.631 0 01-.152-.574.69.69 0 01.21-.345c.107-.098.297-.185.572-.26.43-.127 1.005-.244 1.723-.351a19.905 19.905 0 012.554-.183 24.73 24.73 0 011.386.014c.432.006.907.04 1.424.105.409.041.722.133.94.273.23.14.329.301.296.482a.822.822 0 01-.157.362.752.752 0 01-.32.24 1.224 1.224 0 01-.503.097c-.252.004-.546-.004-.882-.023a163.35 163.35 0 00-1.081-.055 11.77 11.77 0 00-1.153-.036c-.828.012-1.493.059-1.996.138-.503.068-.922.146-1.257.235a4.555 4.555 0 01-.952.123zm2.722 7.267a.65.65 0 01-.599-.315c-.124-.214-.212-.488-.265-.824a7.222 7.222 0 01-.016-1.026c.03-.444.082-.925.158-1.442.076-.53.158-1.04.247-1.534.122-.662.227-1.246.315-1.751.1-.518.178-.945.233-1.282l1.618-.133-.168.777c-.056.3-.117.644-.183 1.029-.066.373-.138.758-.216 1.155-.066.385-.132.758-.199 1.12a14.431 14.431 0 00-.211 1.515c-.018.396-.019.72-.003.972s.031.462.046.63c.014.155.01.3-.012.432a.952.952 0 01-.138.362.682.682 0 01-.267.22.692.692 0 01-.34.095zm8.489 4.353c-.732.011-1.351-.052-1.857-.188-.506-.124-.875-.305-1.107-.54-.231-.237-.319-.494-.264-.771.078-.421.333-.635.765-.642a.871.871 0 01.397.084c.121.058.26.122.417.192.157.081.374.15.651.206.289.055.668.08 1.135.072.576-.008 1.054-.142 1.435-.4.38-.257.68-.616.901-1.075.233-.46.405-.99.516-1.593.067-.349.109-.691.128-1.028.031-.336.061-.697.092-1.081.03-.385.071-.83.123-1.334a26.27 26.27 0 01.26-1.822l.566.513c-.371.834-.745 1.518-1.12 2.051-.377.522-.742.93-1.098 1.223-.356.282-.695.48-1.017.592-.31.1-.592.153-.844.157-1.044.016-1.776-.405-2.197-1.263-.422-.87-.455-2.267-.1-4.192.143-.807.29-1.415.44-1.826.161-.41.331-.689.509-.835a.886.886 0 01.555-.225c.288-.004.475.095.562.297.087.203.063.57-.073 1.1-.18.759-.32 1.469-.417 2.13a9.158 9.158 0 00-.118 1.712c.019.492.103.875.251 1.149.148.262.384.39.708.385.504-.008.992-.273 1.464-.797.472-.535.911-1.25 1.318-2.144a22.46 22.46 0 001.123-3.042c.103-.337.208-.56.314-.67.106-.122.273-.185.501-.188a.693.693 0 01.453.155c.145.106.232.296.26.572.04.264-.008.624-.145 1.082-.171.615-.3 1.163-.389 1.645-.077.48-.129.944-.159 1.388a44.94 44.94 0 00-.069 1.333 17.66 17.66 0 01-.086 1.478 25.09 25.09 0 01-.26 1.84c-.199 1.083-.522 1.934-.969 2.553-.434.63-.955 1.077-1.563 1.338a5.195 5.195 0 01-1.992.409zm7.782-5.646c.151-.362.342-.767.576-1.215.233-.46.483-.938.752-1.434.28-.496.561-.98.842-1.453.292-.484.568-.92.826-1.309.34-.497.681-.964 1.022-1.401.342-.438.666-.79.974-1.06.32-.28.594-.422.822-.426.24-.004.451.095.634.296.195.201.369.535.52 1 .101.335.209.76.325 1.274.116.514.227 1.076.332 1.687.105.598.193 1.203.262 1.814s.114 1.174.134 1.69l-1.582.168a22.117 22.117 0 00-.154-1.87 24.863 24.863 0 00-.283-1.975 20.507 20.507 0 00-.367-1.65c-.127-.479-.258-.801-.393-.967l.7-.155c-.378.414-.778.9-1.202 1.459a17.912 17.912 0 00-1.161 1.8c-.268.472-.52.92-.753 1.343-.234.424-.449.835-.647 1.234-.186.387-.372.786-.558 1.197l-1.621-.047zm7.846 3.318c-.24.004-.427-.077-.562-.243-.135-.166-.179-.351-.135-.556.022-.145.097-.362.225-.652.127-.278.26-.598.399-.96.138-.362.241-.736.307-1.12l.662.907a11.812 11.812 0 00-.793-.06 20.105 20.105 0 00-1.333-.015c-.504.007-1.025.021-1.565.042-.528.008-1.056.022-1.584.042a30.25 30.25 0 00-1.51.095c-.492.032-.966.069-1.421.112-.455.055-.868.115-1.239.18l.692-.64a13.12 13.12 0 00-.107 1.262c-.008.24-.017.45-.026.63l.006.378c-.009.205-.079.362-.209.472a.72.72 0 01-.501.187c-.288.005-.488-.106-.599-.332a1.871 1.871 0 01-.175-.808 5.289 5.289 0 01.007-.738c.019-.3.046-.535.079-.703.045-.193.115-.362.208-.508a1.09 1.09 0 01.372-.401c.167-.11.381-.192.645-.244.299-.053.7-.101 1.204-.145.515-.056 1.09-.1 1.726-.134.647-.046 1.313-.08 1.996-.103a55.903 55.903 0 011.962-.066l.647-.01c.24-.003.487-.001.739.007s.492.028.721.061c.348.03.584.135.707.313.134.178.169.46.102.845-.055.3-.14.62-.255.958a5.63 5.63 0 01-.417.942 2.934 2.934 0 01-.493.728c-.166.183-.326.275-.482.277zm6.714-2.533c-.744.012-1.37-.08-1.877-.277-.495-.209-.877-.497-1.147-.865a3.074 3.074 0 01-.524-1.324c-.068-.503-.046-1.055.064-1.657.123-.59.342-1.181.657-1.774a7.487 7.487 0 011.217-1.657 6.1 6.1 0 011.656-1.195 4.474 4.474 0 011.955-.48c.636-.01 1.159.084 1.57.282.423.197.716.493.878.886.174.394.206.891.095 1.493a3.06 3.06 0 01-.574 1.323c-.282.376-.643.7-1.083.97a5.888 5.888 0 01-1.449.617 6.959 6.959 0 01-1.689.224c-.816.012-1.363-.076-1.642-.263-.267-.188-.378-.402-.334-.643.022-.144.074-.247.158-.309.082-.073.214-.11.394-.114.132-.002.288.02.469.065.192.033.475.047.847.041a4.864 4.864 0 001.616-.277c.489-.175.887-.41 1.195-.702.307-.305.5-.65.578-1.035.067-.361.015-.63-.156-.808-.159-.177-.472-.262-.94-.255a2.984 2.984 0 00-1.345.344c-.417.21-.809.499-1.175.864a5.309 5.309 0 00-.899 1.256 5.032 5.032 0 00-.499 1.484c-.078.433-.078.83 0 1.188.077.347.262.632.553.856.303.211.731.313 1.283.304.624-.01 1.157-.095 1.598-.258a5.171 5.171 0 001.143-.594c.309-.22.57-.41.784-.57.213-.16.404-.24.572-.243.204-.003.349.073.435.228.099.142.126.334.081.575-.044.24-.202.495-.474.763-.26.256-.605.501-1.033.736a6.723 6.723 0 01-1.395.58 6.159 6.159 0 01-1.563.221zm7.477-.096c-.431.006-.724-.265-.876-.815-.153-.55-.146-1.282.02-2.197.135-.638.289-1.12.464-1.447.187-.339.399-.57.638-.694.131-.074.316-.118.556-.134.239-.028.491-.044.755-.048a26.421 26.421 0 002.59-.165 13.06 13.06 0 002.529-.58l.343 1.238c-.62.25-1.289.44-2.007.57-.718.132-1.449.227-2.192.286a44.35 44.35 0 01-2.141.087l-1.046-.146c.145-.71.295-1.457.451-2.24.156-.782.29-1.48.4-2.094.044-.288.136-.524.277-.706.142-.182.302-.275.482-.277.3-.005.524.112.672.35.147.225.171.59.071 1.096a14.08 14.08 0 01-.202.958c-.09.373-.186.765-.288 1.174-.09.41-.18.801-.27 1.175-.078.36-.14.662-.184.902a25.712 25.712 0 00-.295 1.877c-.052.541-.1.95-.144 1.227a.752.752 0 01-.227.417.496.496 0 01-.376.186zm6.21-.095c-.3.004-.519-.166-.656-.512-.125-.346-.187-.82-.184-1.42.015-.612.088-1.285.221-2.02.223-1.155.419-2.07.588-2.745.182-.686.347-1.229.497-1.627a2.97 2.97 0 01.35-.708c.14-.206.313-.31.517-.314.264-.004.452.12.564.37.123.238.152.531.085.88a9.704 9.704 0 01-.374 1.41c-.161.507-.29 1.055-.389 1.645a20.92 20.92 0 00-.276 1.966 28.715 28.715 0 00-.068 1.46c-.006.395-.031.69-.076.882a.842.842 0 01-.799.733zm4.153-7.355c-.276.005-.494-.076-.652-.242a.63.63 0 01-.153-.573.693.693 0 01.211-.346c.106-.097.297-.184.572-.26.43-.127 1.004-.244 1.723-.35.73-.108 1.581-.17 2.553-.184.504-.008.966-.003 1.386.015.433.005.907.04 1.424.104.409.042.722.133.941.274.23.14.328.3.295.481a.81.81 0 01-.157.363.752.752 0 01-.32.239 1.219 1.219 0 01-.502.097c-.252.004-.547-.003-.883-.022-.336-.02-.697-.038-1.081-.056a12.08 12.08 0 00-1.153-.036c-.827.013-1.493.059-1.996.139-.503.067-.922.146-1.256.235a4.563 4.563 0 01-.952.122zm2.721 7.268a.65.65 0 01-.599-.315 2.412 2.412 0 01-.264-.824 7.074 7.074 0 01-.016-1.026c.029-.445.082-.926.158-1.443.076-.53.158-1.04.246-1.534.122-.662.227-1.245.316-1.75.1-.518.177-.946.232-1.283l1.618-.132-.168.776c-.055.301-.116.644-.182 1.03-.067.372-.139.757-.217 1.155a83.32 83.32 0 01-.199 1.119c-.11.602-.181 1.107-.21 1.515-.018.397-.019.72-.003.972.015.252.031.462.045.63.015.156.011.3-.011.432a.938.938 0 01-.139.362.672.672 0 01-.266.22.695.695 0 01-.341.096zm7.083-.145c-.552.009-1.004-.117-1.356-.375-.34-.259-.579-.621-.718-1.087-.128-.466-.136-1.006-.025-1.62a6.563 6.563 0 01.567-1.737 8.815 8.815 0 011.073-1.673 8.642 8.642 0 011.4-1.407 6.796 6.796 0 011.642-.98 4.843 4.843 0 011.758-.368c.276-.005.493.064.651.206.159.141.21.356.154.645a.68.68 0 01-.192.381c-.106.098-.261.16-.465.188a5.6 5.6 0 00-2.326.935 6.84 6.84 0 00-1.755 1.773 5.75 5.75 0 00-.903 2.138 4.75 4.75 0 00-.094.956c.004.276.07.635.197 1.077l-.703-1.231c.22.272.415.45.584.53.181.082.434.12.758.115.768-.012 1.54-.516 2.317-1.512.777-.995 1.487-2.44 2.13-4.335.08-.229.192-.405.334-.527a.811.811 0 01.537-.206.692.692 0 01.635.35c.16.226.23.519.212.88-.037.756-.05 1.44-.041 2.052.021.6.096 1.163.224 1.689a6.43 6.43 0 00.709 1.627.679.679 0 01.096.413.873.873 0 01-.119.452.989.989 0 01-.3.364.735.735 0 01-.43.133.768.768 0 01-.434-.102.933.933 0 01-.257-.302 8.505 8.505 0 01-.465-.983 7.107 7.107 0 01-.342-1.183 9.201 9.201 0 01-.114-1.6c.002-.612.051-1.339.146-2.18l.648-.028c-.378 1.206-.8 2.226-1.267 3.061-.468.824-.962 1.491-1.482 2.003-.508.5-1.019.868-1.531 1.104-.513.236-.997.357-1.453.364zM113.964 158.345c-.026.552.4 1.02.951 1.047l8.99.432a1 1 0 10.096-1.998l-7.991-.384.384-7.991a1 1 0 00-1.997-.096l-.433 8.99zm.31-.951a1 1 0 00.951 1.047l8.989.432a1 1 0 10.096-1.998l-7.991-.384.385-7.991a1 1 0 00-1.998-.096l-.432 8.99zm1.362 1.739c4.526-4.111 10.177-11.734 12.502-21.326 2.336-9.638 1.3-21.221-7.515-33.111l-1.607 1.191c8.443 11.388 9.383 22.356 7.179 31.449-2.216 9.139-7.621 16.427-11.904 20.317l1.345 1.48zm4.987-54.437C109.53 89.732 95.642 93.293 88.939 91.969c-1.674-.33-2.819-.917-3.552-1.97-.755-1.084-1.205-2.848-1.036-5.827.34-5.977 3.123-16.16 9.475-33.566l-1.879-.686c-6.34 17.373-9.233 27.823-9.592 34.138-.18 3.166.263 5.464 1.39 7.084 1.15 1.65 2.875 2.407 4.806 2.789 7.716 1.525 19.986-2.18 30.465 11.956l1.607-1.191zm-4.678 53.486c4.526-4.111 10.178-11.734 12.503-21.326 2.336-9.638 1.299-21.221-7.516-33.111l-1.607 1.191c8.443 11.388 9.383 22.356 7.179 31.449-2.215 9.139-7.621 16.427-11.904 20.317l1.345 1.48zm4.987-54.437c-11.093-14.964-24.981-11.402-31.684-12.727-1.674-.33-2.819-.917-3.552-1.97-.755-1.084-1.205-2.848-1.035-5.827.34-5.977 3.122-16.16 9.474-33.566l-1.879-.686c-6.339 17.373-9.232 27.822-9.592 34.138-.18 3.166.263 5.464 1.39 7.084 1.15 1.65 2.875 2.407 4.806 2.79 7.716 1.524 19.986-2.18 30.465 11.955l1.607-1.191z" fill="#7831B2"/></svg>