<svg width="153" height="96" fill="none" xmlns="http://www.w3.org/2000/svg"><path d="M5.5 48.71a.616.616 0 01-.481-.065.876.876 0 01-.34-.318 1.158 1.158 0 01-.139-.51c-.001-.229.102-.612.31-1.15.209-.538.493-1.29.852-2.254a78.13 78.13 0 001.27-3.699c.312-.954.602-1.863.87-2.725.28-.882.534-1.692.763-2.431.226-.755.43-1.423.613-2.005.182-.58.33-1.064.44-1.45.25-.792.505-1.381.764-1.767.274-.388.614-.628 1.02-.718.547-.121 1.018-.029 1.414.277.392.29.77.771 1.132 1.445.156.26.36.698.61 1.315.249.6.523 1.318.823 2.153.312.816.62 1.69.926 2.621.317.913.601 1.825.852 2.737.264.892.48 1.72.65 2.486.167.75.255 1.37.265 1.859a2.01 2.01 0 01-.13.741 1.59 1.59 0 01-.388.578c-.16.167-.349.274-.568.323-.218.048-.406.016-.562-.097-.137-.1-.25-.28-.34-.539a7.544 7.544 0 01-.258-1.049 35.115 35.115 0 00-.89-4.006 55.183 55.183 0 00-1.203-3.765 36.105 36.105 0 00-1.246-3.067c-.404-.86-.737-1.475-.999-1.843l.456-.052a23.017 23.017 0 00-.631 1.811c-.233.724-.48 1.533-.74 2.426-.264.878-.533 1.774-.805 2.686-.261.894-.516 1.737-.767 2.53-.284.932-.569 1.831-.852 2.697a46.51 46.51 0 01-.823 2.272 16.25 16.25 0 01-.688 1.554c-.144.31-.315.537-.513.68a1.588 1.588 0 01-.666.32zm27.21-6.012c-1.015.225-1.893.224-2.632-.006-.727-.248-1.32-.633-1.78-1.154a5.28 5.28 0 01-1.04-1.81 6.78 6.78 0 01-.33-2.04 6.83 6.83 0 01.24-2.02 9.032 9.032 0 01.75-1.937 9.725 9.725 0 011.133-1.652 6.714 6.714 0 011.349-1.234c.482-.336.958-.556 1.426-.66a.778.778 0 01.5.036c.146.066.273.16.383.284.109.123.177.28.203.471.014.063-.103.203-.35.422a35.45 35.45 0 00-.877.81c-.342.305-.67.632-.987.98-.32.333-.551.655-.695.966a17.239 17.239 0 00-.902 1.92 10.304 10.304 0 01-.69 1.432c-.215.36-.495.577-.838.653a18.91 18.91 0 00-1.49.38c-.336.107-.62.236-.848.385a3.349 3.349 0 00-.67.64c-.276.307-.515.704-.718 1.192-.188.484-.343.969-.464 1.455-.11.467-.191.837-.245 1.111-.124.552-.263.96-.417 1.224-.158.248-.339.394-.542.44-.312.069-.574-.004-.786-.22-.212-.215-.323-.567-.333-1.056-.017-.226.01-.584.081-1.075.072-.492.147-1.04.225-1.648.09-.627.164-1.217.222-1.77.07-.573.097-1.038.083-1.396a10.992 10.992 0 00-.186-1.728c-.09-.554-.184-1.05-.281-1.487-.1-.453-.155-.81-.164-1.07a1.21 1.21 0 01.188-.705.993.993 0 01.622-.409c.36-.08.645-.011.857.204.208.2.373.499.494.898a13.465 13.465 0 01.426 2.143c.066.444.108.893.127 1.348.002.377-.022.824-.07 1.343a24.463 24.463 0 01-.41 3.14 29.68 29.68 0 01-.206 1.176l-.076.435-1.609-.16c.032-.301.093-.651.186-1.048.092-.398.213-.81.364-1.237.151-.427.337-.845.558-1.254.22-.41.475-.778.763-1.104.37-.475.762-.85 1.177-1.121.415-.273.875-.49 1.38-.65a16.2 16.2 0 011.807-.5c.109-.024.25-.162.424-.414.19-.255.386-.552.589-.892.215-.36.426-.701.633-1.026.203-.34.38-.609.534-.807l1.924-.525c-.214.146-.48.352-.797.62a6.932 6.932 0 00-.912.988c-.29.392-.53.864-.719 1.414-.189.55-.276 1.192-.26 1.926-.006.788.137 1.469.428 2.043.291.575.698 1.001 1.218 1.28.533.258 1.135.313 1.806.164a3.768 3.768 0 001.623-.778c.468-.4.84-.867 1.114-1.403a5.44 5.44 0 00.519-1.762 5.46 5.46 0 00-.039-1.835 4.9 4.9 0 00-.48-1.393c-.226-.425-.589-.73-1.088-.914-.5-.184-1.227-.17-2.18.04-.39.087-.723.063-.999-.073-.264-.154-.392-.363-.385-.627-.023-.175.044-.354.2-.536.157-.182.367-.344.63-.484.28-.144.576-.25.888-.32.844-.187 1.575-.218 2.192-.093.634.122 1.17.363 1.611.724.457.358.82.81 1.088 1.357a6.44 6.44 0 01.565 1.768c.171.847.189 1.703.053 2.569a7.11 7.11 0 01-.828 2.47 6.625 6.625 0 01-1.696 1.999c-.694.563-1.549.958-2.564 1.183zm13.674-3.058c-1.03.228-1.923.197-2.676-.095-.74-.31-1.346-.824-1.816-1.539-.458-.734-.802-1.617-1.03-2.648-.233-1.046-.365-2.197-.397-3.452-.037-1.122.045-2.157.245-3.102.197-.962.466-1.816.808-2.564.355-.767.758-1.422 1.211-1.965.453-.543.93-.977 1.432-1.301a11.68 11.68 0 012.078-1.051 33.769 33.769 0 001.937-.799c.656-.293 1.207-.58 1.654-.858.446-.28.794-.447 1.044-.502.187-.042.37-.033.546.026a.862.862 0 01.635.867c.012.276-.102.539-.341.788a3.996 3.996 0 01-.96.656 17.68 17.68 0 01-2.211 1.007c-.67.23-1.286.449-1.846.655a6.004 6.004 0 00-1.589.82c-.485.32-.927.804-1.325 1.45-.385.625-.695 1.374-.927 2.245-.221.852-.318 1.783-.29 2.794.042 1.744.196 3.136.459 4.175.276 1.02.678 1.726 1.207 2.117.545.387 1.208.494 1.989.32.53-.117 1.04-.37 1.528-.756a6.58 6.58 0 001.279-1.44 7.38 7.38 0 00.89-1.746c.223-.623.324-1.202.303-1.739 0-.59-.113-1.064-.34-1.424a1.544 1.544 0 00-.953-.747c-.423-.136-.947-.134-1.572.005-.828.183-1.705.624-2.632 1.321-.912.694-1.777 1.632-2.597 2.813l-.947-.724c.443-1.032 1.008-1.92 1.696-2.662a8.947 8.947 0 012.25-1.827c.812-.475 1.608-.8 2.39-.973.952-.211 1.789-.208 2.509.009.717.202 1.28.6 1.692 1.198.41.597.614 1.404.61 2.421a7.943 7.943 0 01-.43 2.603c-.283.866-.69 1.694-1.22 2.483a9.157 9.157 0 01-1.887 2.017c-.73.555-1.531.93-2.406 1.124zm14.91-3.284c-1.281.285-2.398.237-3.35-.141a4.435 4.435 0 01-2.192-1.899c-.511-.902-.787-1.997-.826-3.283-.023-.912.104-1.744.38-2.493a7.956 7.956 0 011.079-2.01c.446-.574.918-1.031 1.416-1.37.495-.357.938-.578 1.328-.664.172-.038.318-.046.438-.024.135.02.246.077.333.172.099.077.152.204.159.383-.01.33-.07.646-.183.95-.116.288-.386.586-.81.893-.503.39-.914.793-1.232 1.207a4 4 0 00-.67 1.304c-.143.458-.198.987-.164 1.585.031 1.321.405 2.303 1.121 2.948.713.628 1.632.818 2.757.568 1.093-.243 1.96-.844 2.599-1.806.65-.98.956-2.154.914-3.522-.017-1.258-.303-2.177-.858-2.76-.558-.596-1.306-.79-2.244-.583-.484.108-.877.293-1.179.557-.286.26-.59.59-.911.989-.23.296-.41.557-.54.783-.13.226-.253.409-.37.55a.82.82 0 01-.46.249c-.219.048-.406.016-.562-.097-.144-.132-.222-.368-.232-.71-.017-.373.081-.78.295-1.221.229-.444.528-.871.896-1.28.38-.43.807-.794 1.28-1.096a4.235 4.235 0 011.456-.643c1.125-.25 2.097-.186 2.918.189.818.36 1.453.972 1.908 1.838.45.85.683 1.897.696 3.14.042 1.22-.151 2.345-.579 3.373a6.815 6.815 0 01-1.844 2.548 6.177 6.177 0 01-2.767 1.377zm13.66-17.83c-.656.146-1.242.128-1.757-.052-.52-.197-.935-.481-1.247-.854-.316-.39-.51-.78-.58-1.175-.063-.428-.018-.782.133-1.062a.977.977 0 01.672-.517c.234-.053.435.042.603.283.18.223.376.474.586.756.19.269.412.49.663.664.268.17.62.206 1.057.11a1.73 1.73 0 00.584-.253c.197-.142.376-.297.536-.463a9.99 9.99 0 00.45-.518c.193-.24.368-.45.524-.633.153-.197.305-.362.456-.494.166-.135.336-.222.507-.26a.484.484 0 01.469.117c.137.1.197.26.18.477-.016.298-.119.649-.308 1.051a4.848 4.848 0 01-.776 1.156c-.34.387-.748.731-1.222 1.033a4.61 4.61 0 01-1.53.634zm-2.593 15.35c-.531.118-.98.087-1.349-.094a2.245 2.245 0 01-.874-.838 4.374 4.374 0 01-.512-1.312c-.096-.504-.148-1-.159-1.49.004-.426.022-.938.053-1.535.047-.6.105-1.228.172-1.882.068-.655.137-1.268.207-1.84.085-.577.157-1.027.216-1.352.082-.591.168-1.053.258-1.385.106-.334.276-.528.51-.58a.89.89 0 01.61.086c.203.103.368.255.494.456.143.198.22.435.232.71.008.261-.021.645-.09 1.151a133.44 133.44 0 01-.237 1.7c-.09.627-.17 1.26-.242 1.898a12.04 12.04 0 00-.097 1.668c0 .443.027.863.083 1.26.052.382.137.691.255.927.114.22.273.308.476.263.5-.11 1.033-.696 1.601-1.756.584-1.064 1.179-2.483 1.785-4.256.285-.784.525-1.51.722-2.176.196-.666.37-1.246.524-1.739.149-.508.313-.913.492-1.215.179-.302.385-.48.62-.531.359-.08.648.004.867.25.23.228.388.57.473 1.026.09.406.185.91.286 1.51l.358 1.838c.12.612.246 1.183.38 1.71.248.896.498 1.619.751 2.169.266.531.491.956.677 1.276.185.32.295.59.328.812a1.19 1.19 0 01-.055.529 1.285 1.285 0 01-.274.429.847.847 0 01-.437.244c-.36.08-.693-.018-1-.294-.291-.28-.565-.702-.822-1.268a19.945 19.945 0 01-.767-2.018c-.156-.555-.32-1.15-.494-1.783a40.41 40.41 0 01-.426-1.921 220.22 220.22 0 01-.302-1.802l.732.084c-.108.4-.226.828-.355 1.283-.113.451-.26.967-.443 1.549-.17.562-.39 1.233-.66 2.014a24.784 24.784 0 01-1.197 2.798c-.459.889-.97 1.65-1.534 2.283-.553.614-1.165.995-1.836 1.145zm29.645-6.577c-.468.104-1.015.078-1.64-.078a8.736 8.736 0 01-1.923-.803 15.685 15.685 0 01-1.82-1.219 9.195 9.195 0 01-1.379-1.34 2.344 2.344 0 01-.455-.613 2.961 2.961 0 01-.164-.627c.02-.136.05-.29.094-.463.044-.174.114-.337.211-.49.132-.291.378-.698.737-1.22.36-.523.782-1.092 1.269-1.708a22.76 22.76 0 011.567-1.798 16.357 16.357 0 011.612-1.489c.531-.412 1.008-.665 1.429-.76.172-.037.314-.028.425.03a.666.666 0 01.302.252.803.803 0 01.13.365c.06.347-.093.725-.461 1.135-.369.409-.773.802-1.214 1.178a28.146 28.146 0 00-2.039 2.002 19.472 19.472 0 00-1.377 1.657c-.323.465-.475.778-.456.937.003.163.165.414.486.753.318.323.772.672 1.364 1.05.588.36 1.255.671 2.001.932.339.122.668.237.987.346.331.09.602.203.812.337.222.114.348.275.377.481.023.176.003.344-.06.505a.946.946 0 01-.325.417c-.139.112-.302.19-.49.231zm-7.807 1.708c-.406.09-.725-.053-.956-.427-.234-.391-.406-.984-.517-1.779a32.471 32.471 0 01-.194-2.98c-.01-.49-.01-1.006 0-1.55l.079-1.64a22.22 22.22 0 00.008-1.623c.004-.132 0-.262-.013-.391 0-.148-.007-.293-.023-.437a2.866 2.866 0 01.086-.83c.065-.228.155-.412.271-.553.129-.16.271-.256.427-.29.36-.08.677.021.953.304.288.264.434.699.437 1.304.008.408-.01.92-.053 1.536a161.93 161.93 0 01-.107 1.843c-.04.632-.057 1.185-.05 1.658.04.844.091 1.594.155 2.252.08.654.159 1.194.237 1.62.074.409.105.697.093.864.01.194-.023.374-.102.539a.902.902 0 01-.289.359.89.89 0 01-.442.22zm16.306 2.552c-.953.212-1.778.297-2.475.255-.695-.027-1.225-.163-1.591-.41-.366-.246-.55-.558-.551-.934-.009-.26.047-.486.169-.677.141-.179.359-.301.656-.367a1.18 1.18 0 01.542.003c.173.043.372.09.596.138.227.064.529.096.906.094.392-.005.892-.075 1.502-.21.749-.167 1.338-.47 1.765-.908.427-.439.723-.988.888-1.648.181-.662.263-1.402.246-2.217a10.414 10.414 0 00-.109-1.378c-.05-.447-.108-.926-.172-1.437a75.498 75.498 0 01-.197-1.775 34.712 34.712 0 01-.15-2.45l.877.519c-.261 1.188-.565 2.182-.912 2.98-.351.783-.719 1.413-1.104 1.892-.389.463-.779.812-1.17 1.046a3.867 3.867 0 01-1.059.432c-.906.201-1.688.112-2.346-.266-.642-.382-1.149-1.081-1.522-2.096-.357-1.02-.557-2.4-.6-4.145-.029-1.091-.001-1.925.085-2.501.1-.58.247-.99.44-1.229.193-.24.414-.387.664-.442.234-.052.435-.031.604.062.165.079.276.25.335.516.075.262.1.633.075 1.114a33.85 33.85 0 00.028 2.895c.047.875.149 1.63.307 2.267.157.637.37 1.115.637 1.432.264.302.606.406 1.028.313.656-.146 1.222-.623 1.698-1.434.472-.826.853-1.877 1.144-3.154.302-1.297.519-2.721.649-4.275.044-.468.12-.788.23-.96.106-.188.307-.314.604-.38a.925.925 0 01.471.018c.173.044.32.15.44.32.132.152.224.385.278.701.066.297.079.687.039 1.171-.058.85-.08 1.6-.066 2.252.029.65.084 1.268.166 1.856.078.573.167 1.16.267 1.76.113.582.208 1.232.286 1.953.074.704.126 1.529.155 2.473.029 1.091-.073 2.032-.308 2.821-.231.806-.557 1.476-.979 2.012a4.692 4.692 0 01-1.537 1.275 7.056 7.056 0 01-1.929.723zm13.576-9.305c-.75.166-1.429.21-2.036.132-.607-.078-1.096-.248-1.465-.51-.37-.263-.563-.58-.581-.954.006-.197.055-.38.149-.549a.642.642 0 01.445-.32.8.8 0 01.448.024l.507.182c.197.071.469.117.818.139.345.005.799-.055 1.361-.18.875-.194 1.586-.573 2.133-1.137.559-.582.816-1.418.771-2.506-.007-.769-.146-1.434-.418-1.997a3.642 3.642 0 00-1.075-1.409 3.48 3.48 0 00-1.611-.724c-.614-.11-1.281-.084-1.999.075-.36.08-.718.2-1.076.362a5 5 0 01-.958.335.97.97 0 01-.494-.013.69.69 0 01-.365-.313.98.98 0 01-.127-.463c0-.443.21-.825.63-1.148.433-.342 1.141-.622 2.125-.84 1.046-.232 2.016-.259 2.908-.08.907.176 1.699.533 2.376 1.071.673.523 1.204 1.216 1.592 2.08.401.846.613 1.84.637 2.981a5.628 5.628 0 01-.323 2.088 5.439 5.439 0 01-.948 1.71c-.417.486-.915.9-1.495 1.241a7.062 7.062 0 01-1.929.723zm-4.176 7.22a.886.886 0 01-.523-.032.623.623 0 01-.341-.317 1.36 1.36 0 01-.135-.61 2.034 2.034 0 01.112-.713c.068-.211.141-.473.219-.786a8.92 8.92 0 00.217-1.13c.062-.456.088-1.043.076-1.762a18.7 18.7 0 00-.384-3.504 268.365 268.365 0 00-.746-3.473 21.685 21.685 0 01-.439-3.639c-.009-.408.06-.726.206-.955.158-.248.378-.404.659-.466a.803.803 0 01.666.123c.207.118.372.31.497.578.122.251.18.55.174.895.021.979.101 1.895.241 2.75.153.834.317 1.65.494 2.446.193.793.361 1.592.507 2.395.145.804.226 1.646.241 2.528.029.797.012 1.53-.053 2.2a8.726 8.726 0 01-.326 1.744c-.137.49-.32.882-.549 1.179a1.347 1.347 0 01-.813.549zm17.094-9.988c-1.156.257-2.159.242-3.01-.045a3.84 3.84 0 01-1.972-1.578c-.465-.766-.708-1.712-.728-2.838a7.916 7.916 0 01.441-2.777c.323-.908.78-1.73 1.37-2.468a8.953 8.953 0 012.083-1.912 7.542 7.542 0 012.539-1.08c.406-.09.779-.107 1.119-.051.337.04.601.161.794.364.204.184.304.45.299.794.003.311-.062.571-.196.781a.897.897 0 01-.557.37c-.172.038-.311.036-.419-.006a5.455 5.455 0 00-.346-.12c-.108-.041-.279-.036-.513.016a5.04 5.04 0 00-2.356 1.236 6.573 6.573 0 00-1.607 2.175 5.826 5.826 0 00-.55 2.507c.036.68.178 1.247.426 1.7a2.1 2.1 0 001.088.914c.481.172 1.025.19 1.635.055.687-.152 1.216-.351 1.588-.598.368-.262.646-.52.836-.775a8.17 8.17 0 00.489-.674.728.728 0 01.482-.378c.297-.065.515-.04.656.076.156.113.241.348.255.706.005.54-.158 1.06-.49 1.559-.335.484-.799.906-1.391 1.267a6.275 6.275 0 01-1.965.78zM15.598 68.956c-1.156.257-2.16.242-3.01-.045a3.84 3.84 0 01-1.972-1.578c-.465-.766-.708-1.712-.728-2.838a7.918 7.918 0 01.44-2.778c.324-.907.78-1.73 1.37-2.467a8.956 8.956 0 012.084-1.912 7.541 7.541 0 012.538-1.08c.406-.09.78-.107 1.12-.052.336.04.6.162.793.365.205.184.305.449.3.794.003.31-.062.571-.196.781a.897.897 0 01-.557.37c-.172.038-.312.036-.42-.006a5.376 5.376 0 00-.345-.12c-.108-.041-.279-.036-.513.016-.89.197-1.676.61-2.356 1.236a6.576 6.576 0 00-1.607 2.175 5.833 5.833 0 00-.55 2.507c.036.68.178 1.247.426 1.7a2.1 2.1 0 001.088.914c.48.172 1.025.19 1.634.055.688-.152 1.217-.352 1.588-.598.368-.262.647-.52.836-.775.205-.259.369-.484.49-.675.118-.206.279-.332.482-.377.296-.066.515-.04.656.076.156.113.24.348.255.705.005.54-.159 1.06-.49 1.56-.335.484-.799.906-1.39 1.267a6.28 6.28 0 01-1.966.78zm12.204-2.634c-1.281.284-2.398.237-3.35-.142a4.435 4.435 0 01-2.192-1.898c-.511-.903-.787-1.997-.826-3.283-.023-.913.104-1.744.38-2.494a7.95 7.95 0 011.079-2.009c.446-.574.918-1.031 1.416-1.371.495-.356.938-.577 1.328-.664.172-.038.318-.045.438-.023.135.02.246.077.333.172.099.076.152.204.159.383-.01.33-.07.646-.183.95-.116.288-.386.585-.81.893-.503.39-.914.792-1.232 1.207a3.99 3.99 0 00-.67 1.304c-.143.458-.198.986-.164 1.585.031 1.32.405 2.303 1.121 2.947.713.629 1.632.818 2.757.569 1.093-.243 1.96-.845 2.598-1.806.652-.98.956-2.154.915-3.522-.017-1.258-.303-2.178-.858-2.76-.558-.597-1.306-.791-2.244-.583-.484.107-.877.293-1.179.556-.286.26-.59.59-.911.99-.23.296-.41.557-.54.783-.13.225-.253.408-.37.549-.104.121-.257.204-.46.25-.219.048-.406.016-.562-.097-.144-.132-.222-.369-.232-.71-.017-.374.081-.78.295-1.221a6.11 6.11 0 01.896-1.28c.38-.43.807-.795 1.28-1.096a4.235 4.235 0 011.456-.643c1.125-.25 2.098-.187 2.918.189.817.359 1.453.972 1.908 1.838.45.85.683 1.897.696 3.14.042 1.22-.151 2.344-.579 3.373a6.816 6.816 0 01-1.844 2.548 6.178 6.178 0 01-2.767 1.376zm21.5-4.844c-1.157.257-2.16.242-3.01-.045a3.841 3.841 0 01-1.973-1.578c-.464-.766-.707-1.711-.727-2.838a7.916 7.916 0 01.44-2.777c.324-.908.78-1.73 1.37-2.468a8.954 8.954 0 012.084-1.912 7.543 7.543 0 012.538-1.08c.406-.09.78-.107 1.12-.051.336.04.6.161.793.364.205.184.305.45.3.794.003.311-.062.571-.196.781a.897.897 0 01-.557.37c-.172.038-.312.036-.42-.005a5.316 5.316 0 00-.346-.12c-.107-.042-.278-.037-.512.015-.89.198-1.676.61-2.357 1.236a6.576 6.576 0 00-1.607 2.175 5.833 5.833 0 00-.55 2.507c.036.68.179 1.247.427 1.7.26.434.622.739 1.087.914.481.172 1.026.19 1.635.055.688-.152 1.217-.351 1.588-.598.368-.262.647-.52.836-.775.205-.259.368-.483.49-.674.118-.207.278-.333.482-.378.296-.065.515-.04.656.076.156.113.24.348.254.706.006.54-.158 1.06-.49 1.559-.335.484-.798.906-1.39 1.267a6.28 6.28 0 01-1.966.78zm15.894-3.477c-.468.104-1.015.078-1.64-.079a8.734 8.734 0 01-1.923-.802 15.685 15.685 0 01-1.82-1.219 9.195 9.195 0 01-1.379-1.341 2.347 2.347 0 01-.455-.612 2.967 2.967 0 01-.164-.627c.02-.136.05-.29.094-.464.044-.173.114-.336.211-.49.132-.29.378-.697.737-1.22.36-.522.783-1.091 1.269-1.707a22.757 22.757 0 011.567-1.798 16.346 16.346 0 011.612-1.489c.532-.413 1.008-.666 1.43-.76.171-.037.313-.028.424.03a.66.66 0 01.302.252.799.799 0 01.13.365c.06.347-.093.725-.461 1.134-.368.41-.773.803-1.214 1.18a28.129 28.129 0 00-2.039 2c-.58.637-1.039 1.19-1.377 1.658-.323.465-.475.777-.456.937-.004.132.085.309.265.531.18.222.44.468.778.737.354.266.764.527 1.231.784a11.98 11.98 0 001.578.683c.338.121.667.237.986.346.331.09.602.203.812.336.222.115.348.276.377.482.023.175.003.344-.06.505a.948.948 0 01-.325.416c-.139.113-.302.19-.49.232zm-7.807 1.708c-.406.09-.725-.053-.955-.428-.234-.39-.407-.983-.518-1.778a32.435 32.435 0 01-.194-2.98c-.01-.49-.01-1.006 0-1.55l.08-1.64c.022-.562.025-1.103.008-1.624a3.358 3.358 0 00-.013-.39c0-.148-.008-.294-.024-.438a2.866 2.866 0 01.087-.83c.064-.227.154-.411.27-.552a.77.77 0 01.427-.291c.36-.08.677.022.953.305.288.264.434.699.437 1.304.009.408-.009.92-.053 1.536-.031.597-.067 1.211-.107 1.843a21.62 21.62 0 00-.05 1.658c.04.844.091 1.594.155 2.252.08.654.159 1.194.237 1.62.074.409.105.697.093.864.01.194-.023.373-.101.538a.902.902 0 01-.29.36.89.89 0 01-.442.22zm13.72-3.02c-.532.118-.981.087-1.35-.094a2.244 2.244 0 01-.874-.838 4.372 4.372 0 01-.512-1.313c-.095-.503-.148-1-.158-1.489.003-.426.021-.938.052-1.535.047-.6.105-1.228.173-1.883.068-.654.136-1.267.206-1.84.085-.576.157-1.026.217-1.35.081-.593.168-1.054.258-1.386.106-.334.276-.528.51-.58a.89.89 0 01.61.086c.202.103.367.255.494.456.142.198.22.435.231.71.009.261-.02.645-.089 1.151-.067.507-.147 1.074-.237 1.7a59.28 59.28 0 00-.243 1.898 12.04 12.04 0 00-.097 1.668c0 .443.028.863.083 1.26.052.382.137.69.255.927.114.22.273.308.476.263.5-.11 1.034-.696 1.602-1.757.583-1.063 1.178-2.482 1.784-4.255.285-.784.526-1.51.722-2.176.197-.666.371-1.246.524-1.739.15-.508.314-.913.492-1.215.18-.302.386-.48.62-.531.36-.08.648.004.867.25.23.227.389.57.473 1.026a30 30 0 01.286 1.51l.359 1.838c.12.612.246 1.182.38 1.71.247.896.498 1.619.75 2.169.266.531.492.956.677 1.276.186.319.295.59.328.812a1.17 1.17 0 01-.055.528 1.286 1.286 0 01-.273.43.847.847 0 01-.438.244c-.547.122-1.017-.151-1.41-.818-.394-.666-.787-1.587-1.179-2.762-.156-.555-.32-1.15-.494-1.783-.157-.637-.3-1.278-.426-1.921a220.45 220.45 0 01-.301-1.802l.731.084a43.07 43.07 0 01-.537 2.012 61.44 61.44 0 01-.92 2.834 24.792 24.792 0 01-1.198 2.798c-.459.889-.97 1.65-1.534 2.283-.552.614-1.164.995-1.836 1.144zm12.81-4.243c.1-.514.242-1.094.426-1.742.18-.663.38-1.354.597-2.074.232-.724.469-1.432.708-2.124a47.55 47.55 0 01.727-1.931c.311-.741.63-1.443.959-2.106.328-.663.657-1.211.987-1.645.342-.453.662-.712.958-.778.313-.07.615.003.909.216.309.21.624.6.947 1.167.222.41.478.935.767 1.575.29.64.586 1.345.887 2.114.299.753.575 1.52.83 2.299.255.78.464 1.503.63 2.171l-2.021.645a29.301 29.301 0 00-.705-2.4 32.99 32.99 0 00-.9-2.505 27.67 27.67 0 00-.923-2.057c-.295-.59-.552-.975-.773-1.156l.872-.39a27.932 27.932 0 00-1.177 2.228c-.387.84-.731 1.727-1.032 2.663-.224.689-.431 1.341-.623 1.957a42.845 42.845 0 00-.513 1.786 73.678 73.678 0 00-.407 1.712l-2.13.375zm11.139 2.224c-.313.07-.579.014-.8-.167a.839.839 0 01-.324-.69c-.01-.194.029-.498.117-.911.092-.397.18-.851.263-1.361a7.93 7.93 0 00.1-1.547l1.108 1.008c-.225.017-.576.063-1.051.135-.46.07-1.041.182-1.744.338-.657.146-1.334.304-2.034.476-.687.152-1.373.313-2.056.48-.668.165-1.318.342-1.948.531-.633.173-1.241.35-1.825.528a30.62 30.62 0 00-1.57.57l.732-1.023c.014.21.038.466.073.77.034.304.077.606.127.906.054.316.099.593.135.83l.11.493c.043.269-.006.492-.147.671a.96.96 0 01-.604.38c-.375.083-.665-.008-.872-.274-.206-.265-.354-.601-.444-1.007a7.175 7.175 0 01-.19-.966 7.612 7.612 0 01-.086-.94c.007-.264.052-.503.136-.718.064-.227.19-.436.377-.625.188-.189.447-.353.776-.492.377-.149.888-.32 1.534-.512a42.269 42.269 0 012.218-.64 70.35 70.35 0 012.58-.67 74.832 74.832 0 012.544-.614l.843-.187c.312-.07.634-.132.966-.19.331-.057.65-.095.958-.114.463-.053.799.02 1.007.22.224.195.345.554.362 1.074a9.1 9.1 0 01-.076 1.32c-.06.472-.157.92-.292 1.343a3.883 3.883 0 01-.448 1.083c-.167.283-.352.447-.555.492zm12.537-6.076c-.469.104-1.015.078-1.64-.078a8.73 8.73 0 01-1.923-.803 15.712 15.712 0 01-1.82-1.219 9.231 9.231 0 01-1.379-1.34 2.36 2.36 0 01-.455-.613 2.928 2.928 0 01-.164-.627c.019-.136.05-.29.094-.464.043-.173.114-.336.211-.489.132-.291.378-.698.737-1.22a32.33 32.33 0 011.268-1.708 22.882 22.882 0 011.568-1.798 16.301 16.301 0 011.612-1.489c.531-.412 1.008-.666 1.429-.76.172-.037.314-.028.425.03a.666.666 0 01.302.252.815.815 0 01.13.365c.06.347-.094.725-.462 1.135-.368.409-.772.802-1.213 1.178a28.272 28.272 0 00-2.039 2.002 19.702 19.702 0 00-1.378 1.657c-.323.465-.475.778-.456.937-.003.132.085.31.266.531.18.223.44.468.778.737.354.266.764.527 1.231.784a11.97 11.97 0 001.577.683c.339.121.667.237.987.346.331.09.602.203.812.337.222.114.348.275.377.481.023.175.003.344-.06.505a.945.945 0 01-.325.417 1.17 1.17 0 01-.49.231zm-7.807 1.708c-.406.09-.725-.053-.956-.428-.234-.39-.406-.983-.517-1.778a32.435 32.435 0 01-.194-2.98c-.01-.49-.01-1.006 0-1.55l.079-1.64c.023-.561.025-1.103.008-1.623.004-.132 0-.263-.013-.391 0-.148-.007-.293-.023-.437a2.866 2.866 0 01.086-.83c.065-.228.155-.412.271-.553.129-.16.271-.256.427-.29.36-.08.677.021.953.304.288.264.433.699.437 1.304.008.408-.009.92-.053 1.536a161.93 161.93 0 01-.107 1.843c-.04.632-.057 1.185-.05 1.658.039.844.091 1.594.155 2.252.08.654.159 1.194.237 1.62.074.409.105.697.093.864.01.194-.024.374-.102.538a.899.899 0 01-.289.36.887.887 0 01-.442.22zm16.747-3.667c-1.281.285-2.398.237-3.351-.141a4.436 4.436 0 01-2.191-1.899c-.511-.902-.787-1.997-.826-3.283-.023-.912.104-1.744.38-2.493a7.958 7.958 0 011.079-2.01c.446-.574.918-1.031 1.416-1.371.495-.356.938-.577 1.328-.663a1.11 1.11 0 01.438-.024c.135.02.246.077.333.172.099.077.152.204.158.383-.008.33-.069.646-.182.95-.116.288-.386.586-.81.893-.503.39-.914.792-1.232 1.207-.305.396-.528.83-.669 1.304-.144.458-.199.987-.165 1.585.031 1.321.405 2.303 1.121 2.948.713.628 1.632.818 2.757.568 1.093-.243 1.959-.845 2.598-1.806.652-.98.956-2.154.915-3.522-.017-1.258-.303-2.178-.858-2.76-.558-.596-1.306-.791-2.244-.583-.484.107-.877.293-1.179.557-.286.26-.59.59-.911.989a7.28 7.28 0 00-.54.783 4.05 4.05 0 01-.369.549.822.822 0 01-.461.25c-.219.048-.406.016-.562-.097-.144-.132-.222-.369-.232-.71-.017-.374.081-.78.295-1.221.229-.444.528-.871.896-1.28.38-.43.807-.794 1.281-1.096.47-.318.955-.532 1.455-.643 1.125-.25 2.097-.186 2.918.189.817.36 1.453.972 1.908 1.838.451.85.683 1.897.696 3.14.042 1.22-.152 2.344-.579 3.373a6.813 6.813 0 01-1.844 2.548 6.176 6.176 0 01-2.767 1.376zm13.66-17.83c-.657.146-1.242.128-1.758-.052-.518-.197-.934-.481-1.246-.855-.316-.388-.509-.78-.58-1.174-.063-.428-.018-.782.133-1.062a.977.977 0 01.672-.518c.234-.052.435.043.603.284.181.223.376.474.586.755.191.27.412.49.663.665.268.17.62.206 1.057.11.203-.046.398-.13.583-.253.198-.142.377-.297.537-.463.172-.186.322-.359.45-.518.282-.358.534-.66.758-.906.221-.262.464-.422.729-.481a.485.485 0 01.469.117c.137.1.197.26.179.477-.015.298-.118.649-.307 1.051a4.853 4.853 0 01-.776 1.156 5.683 5.683 0 01-1.222 1.033c-.458.298-.968.51-1.53.634zm-2.593 15.35c-.531.118-.981.087-1.349-.094a2.248 2.248 0 01-.874-.838 4.368 4.368 0 01-.512-1.313c-.096-.503-.148-1-.159-1.489.004-.426.021-.938.053-1.535.047-.6.104-1.228.172-1.882.068-.655.137-1.268.207-1.84.085-.577.157-1.027.216-1.352.082-.591.168-1.053.258-1.385.106-.334.276-.528.511-.58a.89.89 0 01.609.086c.203.103.368.255.494.456.143.198.22.435.232.71.008.261-.021.645-.089 1.151-.068.507-.147 1.074-.238 1.7-.09.627-.171 1.259-.242 1.898a11.89 11.89 0 00-.097 1.668c0 .443.027.863.083 1.26.052.382.136.691.254.927.115.22.274.308.477.263.5-.11 1.033-.696 1.601-1.757.584-1.063 1.179-2.482 1.785-4.255.285-.784.525-1.51.722-2.176.196-.666.371-1.246.523-1.739.15-.508.314-.913.493-1.215.179-.302.385-.48.62-.531.359-.08.648.004.866.25.231.227.389.57.474 1.026.09.406.185.91.286 1.51l.358 1.838c.12.612.246 1.182.38 1.71.248.896.498 1.619.751 2.169.266.531.491.956.677 1.276.185.319.295.59.327.812a1.17 1.17 0 01-.054.528 1.291 1.291 0 01-.274.43.845.845 0 01-.437.244c-.547.122-1.017-.151-1.411-.817-.394-.667-.786-1.588-1.178-2.763-.156-.555-.321-1.15-.494-1.783-.158-.637-.3-1.278-.426-1.922-.111-.647-.212-1.247-.302-1.801l.732.084a44.812 44.812 0 01-.537 2.012c-.214.735-.521 1.68-.92 2.834a24.806 24.806 0 01-1.199 2.798c-.458.889-.969 1.65-1.534 2.283-.552.614-1.164.995-1.835 1.144zM15.648 90.128c.1-.514.241-1.094.425-1.742.181-.663.38-1.354.597-2.074.233-.724.47-1.432.709-2.124.252-.712.494-1.355.727-1.931.31-.741.63-1.443.958-2.106.329-.663.658-1.211.988-1.645.342-.453.661-.712.958-.778.312-.07.615.003.908.216.31.21.625.6.948 1.167.221.41.477.935.767 1.575.29.64.585 1.345.887 2.114.298.754.575 1.52.83 2.3.254.778.464 1.502.629 2.17l-2.02.645a29.263 29.263 0 00-.705-2.4 32.993 32.993 0 00-.9-2.505 27.69 27.69 0 00-.923-2.056c-.295-.59-.553-.976-.773-1.157l.872-.39a27.936 27.936 0 00-1.177 2.228 23.56 23.56 0 00-1.032 2.663 151.04 151.04 0 00-.623 1.957 42.84 42.84 0 00-.513 1.786 74.186 74.186 0 00-.407 1.713l-2.13.374zm11.139 2.224c-.313.07-.58.014-.8-.167a.839.839 0 01-.325-.69c-.01-.194.03-.498.118-.91.092-.398.18-.852.263-1.362.084-.51.117-1.026.1-1.546l1.108 1.007a16.05 16.05 0 00-1.052.135c-.46.07-1.04.182-1.744.338a93.72 93.72 0 00-2.033.476c-.687.152-1.373.313-2.057.48a40.55 40.55 0 00-1.947.531c-.633.173-1.242.35-1.825.528a30.53 30.53 0 00-1.57.57l.732-1.023c.014.21.038.467.073.77.034.304.077.606.127.906.054.316.098.593.135.83.052.235.088.399.11.493.042.269-.006.492-.147.671a.961.961 0 01-.604.38c-.375.083-.665-.008-.872-.274-.206-.265-.355-.601-.445-1.007a7.193 7.193 0 01-.19-.966 7.63 7.63 0 01-.085-.94c.007-.263.052-.503.136-.718a1.44 1.44 0 01.377-.625c.188-.189.446-.353.776-.492.377-.149.888-.32 1.534-.512a42.24 42.24 0 012.218-.64 70.197 70.197 0 012.58-.67 74.717 74.717 0 012.543-.614l.844-.187c.312-.07.634-.132.966-.19.331-.057.65-.095.957-.114.464-.053.8.02 1.008.22.224.195.344.554.361 1.075a9.13 9.13 0 01-.076 1.32 7.372 7.372 0 01-.292 1.342 3.883 3.883 0 01-.448 1.083c-.167.283-.351.447-.554.492zm8.549-5.166c-1.281.284-2.398.237-3.35-.142a4.435 4.435 0 01-2.192-1.898c-.512-.903-.787-1.997-.827-3.283-.022-.913.105-1.745.381-2.494a7.948 7.948 0 011.079-2.01c.446-.574.918-1.03 1.416-1.37.495-.356.938-.578 1.328-.664.172-.038.318-.046.438-.023a.538.538 0 01.333.171c.099.077.151.204.158.383-.008.33-.07.647-.182.95-.117.288-.387.586-.81.893a6.74 6.74 0 00-1.232 1.207 3.98 3.98 0 00-.67 1.304c-.143.459-.198.987-.164 1.586.03 1.32.405 2.303 1.121 2.947.713.628 1.632.818 2.757.568 1.093-.242 1.96-.844 2.598-1.806.651-.98.956-2.154.915-3.521-.017-1.258-.303-2.178-.858-2.76-.559-.597-1.306-.792-2.244-.584-.484.108-.877.293-1.18.557-.286.26-.59.59-.91.989-.23.296-.41.558-.54.783-.13.226-.253.409-.37.55a.824.824 0 01-.46.249c-.22.049-.406.016-.563-.097-.144-.131-.22-.368-.231-.71-.017-.373.08-.78.294-1.221.23-.444.528-.871.896-1.28.38-.429.808-.794 1.282-1.096.47-.317.955-.532 1.455-.642 1.125-.25 2.097-.187 2.918.188.817.36 1.453.972 1.908 1.839.45.85.683 1.897.696 3.14.041 1.22-.152 2.344-.579 3.373a6.816 6.816 0 01-1.844 2.547 6.177 6.177 0 01-2.767 1.377zm19.143-4.051c-.734.163-1.292.123-1.674-.12-.362-.231-.547-.657-.554-1.279a1.591 1.591 0 01.553-1.278c1.626-1.459 2.99-2.77 4.093-3.932 1.099-1.178 1.977-2.241 2.636-3.19.654-.965 1.124-1.84 1.409-2.624.281-.8.415-1.526.401-2.178-.012-.866-.25-1.494-.712-1.883-.467-.404-1.177-.5-2.13-.29-.796.177-1.486.429-2.07.755-.567.322-1.065.662-1.494 1.02-.413.354-.763.66-1.05.92-.286.261-.53.414-.734.459-.296.066-.544.022-.742-.13a.932.932 0 01-.296-.672c.005-.198.045-.387.12-.568.075-.18.226-.386.453-.617a12.608 12.608 0 012.622-2.032 10.28 10.28 0 013.067-1.246c1.203-.267 2.165-.25 2.887.048a2.84 2.84 0 011.608 1.487c.354.708.54 1.544.556 2.507.016.734-.107 1.548-.367 2.442-.245.89-.7 1.868-1.365 2.933-.665 1.066-1.6 2.248-2.803 3.547-1.19 1.28-2.711 2.7-4.562 4.258l-.437-.641c.227.064.454.088.68.07a5.61 5.61 0 00.736-.114 21.334 21.334 0 002.013-.57c.763-.25 1.597-.517 2.502-.8.92-.286 1.88-.54 2.879-.762.765-.17 1.279-.144 1.541.076.274.202.413.458.416.768a.952.952 0 01-.281.726c-.188.19-.5.333-.937.43a61.209 61.209 0 00-5.431 1.45c-.69.219-1.318.416-1.885.59-.568.176-1.117.322-1.648.44zm19.071-4.452c-1.093.242-2.123.184-3.087-.176-.95-.363-1.727-1.06-2.332-2.088-.593-1.049-.91-2.478-.951-4.288-.035-1.189.111-2.303.438-3.343.323-1.054.73-1.989 1.222-2.803.491-.813.992-1.474 1.503-1.98.51-.507.945-.8 1.304-.88.281-.062.49-.043.627.058.134.085.202.316.203.692.018.226-.023.448-.122.667-.103.203-.268.42-.495.65a8.545 8.545 0 00-1.341 1.822 10.48 10.48 0 00-.954 2.35 9.249 9.249 0 00-.308 2.6c.015 1.03.166 1.93.452 2.703.302.77.739 1.336 1.311 1.7.589.362 1.32.445 2.195.251.875-.194 1.689-.661 2.442-1.402.754-.74 1.348-1.717 1.784-2.928.436-1.211.639-2.625.608-4.24-.005-1.13-.15-2.114-.433-2.953-.288-.853-.69-1.485-1.208-1.895-.517-.41-1.15-.532-1.9-.365a5.26 5.26 0 00-1.69.694 6.445 6.445 0 00-1.453 1.208 9.479 9.479 0 00-1.221 1.697 2.344 2.344 0 01-.39.455c-.148.147-.363.252-.644.315-.296.066-.536.02-.718-.136-.182-.156-.273-.382-.273-.677.009-.33.158-.764.448-1.304.287-.555.702-1.123 1.245-1.702a10.617 10.617 0 011.958-1.59 7.698 7.698 0 012.455-1.012c1.234-.273 2.285-.154 3.152.358.865.497 1.532 1.324 2.001 2.482.483 1.138.732 2.558.749 4.259.04 1.58-.121 3.001-.48 4.26-.36 1.26-.857 2.346-1.49 3.257-.638.895-1.354 1.62-2.15 2.173-.794.553-1.614.923-2.457 1.11zM86.75 76c-.296.066-.536.02-.718-.136-.179-.14-.284-.355-.315-.643-.015-.292.055-.602.211-.932a131.177 131.177 0 012.655-4.768 96.1 96.1 0 015.987-9.023 89.238 89.238 0 013.5-4.39c.285-.342.533-.594.743-.755.21-.162.44-.27.69-.325.265-.06.47-.023.614.11.16.128.259.319.299.572.036.238.008.515-.086.83-.097.3-.268.6-.513.9a98.119 98.119 0 00-4.716 5.89 78.887 78.887 0 00-3.845 5.72 92.044 92.044 0 00-3.336 5.904c-.176.317-.368.557-.579.718-.19.173-.387.283-.59.328zm1.017-10.379c-.969.215-1.798.21-2.486-.014-.69-.224-1.213-.624-1.57-1.2s-.544-1.272-.561-2.088a4.01 4.01 0 01.448-1.968 5.315 5.315 0 011.313-1.619 4.4 4.4 0 011.84-.9c.297-.066.527-.026.69.118.16.128.247.338.263.63a1.064 1.064 0 01-.214.588c-.125.175-.33.36-.614.554-.604.38-1.017.775-1.237 1.184-.224.394-.328.81-.313 1.25-.004.574.175 1.01.536 1.306.36.297.892.368 1.595.212.672-.15 1.17-.415 1.495-.799.321-.399.476-.884.464-1.455-.002-.524-.17-.953-.507-1.288-.337-.335-.747-.45-1.232-.342-.312.07-.593.058-.843-.034-.238-.111-.36-.33-.367-.656-.001-.377.1-.661.302-.854a1.44 1.44 0 01.698-.4c.828-.184 1.541-.146 2.14.115a2.946 2.946 0 011.434 1.255c.342.58.52 1.27.533 2.07a3.896 3.896 0 01-.477 1.95 4.425 4.425 0 01-1.334 1.524c-.565.404-1.231.691-1.996.861zm9.944 7.701c-.984.218-1.823.208-2.515-.032-.677-.243-1.202-.651-1.575-1.224-.36-.592-.559-1.302-.595-2.13a3.585 3.585 0 01.443-1.77 4.402 4.402 0 011.297-1.467 4.642 4.642 0 011.828-.848c.312-.07.547-.048.703.065.156.113.24.307.252.583.002.23-.057.447-.175.654-.102.203-.297.36-.583.473-.616.251-1.042.584-1.278.997a2.512 2.512 0 00-.326 1.301c.003.606.207 1.044.611 1.315.416.252.945.307 1.585.164.672-.149 1.193-.46 1.563-.936.382-.495.573-1.07.575-1.726-.029-.649-.24-1.16-.634-1.53-.394-.372-.903-.489-1.528-.35-.344.076-.613.046-.807-.091-.195-.138-.301-.36-.32-.667.002-.36.096-.636.284-.825.203-.193.453-.322.75-.388.843-.187 1.593-.132 2.249.165a3.338 3.338 0 011.54 1.404c.387.635.58 1.354.578 2.158a4.465 4.465 0 01-.464 2.119 4.888 4.888 0 01-1.401 1.663c-.59.442-1.276.75-2.057.923z" fill="#7831B2"/></svg>