<svg width="78" height="105" fill="none" xmlns="http://www.w3.org/2000/svg"><path d="M23.423 47.903a.762.762 0 001.526 0h-1.526zm54.06-39.94a.76.76 0 00.476-.965L75.748.516a.763.763 0 00-1.444.49l1.965 5.762-5.776 1.961a.76.76 0 10.492 1.44l6.498-2.205zm-52.534 39.94c-.003-11.051 2.639-26.22 10.438-36.012 3.88-4.872 9.024-8.4 15.77-9.464 6.76-1.065 15.22.333 25.743 5.499l.674-1.365C66.87 1.305 58.085-.205 50.918.924c-7.182 1.132-12.648 4.901-16.725 10.02-8.115 10.189-10.772 25.772-10.77 36.959h1.526zm-.036-1.026C24.911 35.809 27.21 20.82 34.66 11.21 38.362 6.434 43.327 2.997 49.936 2c6.63-1 15.003.44 25.53 5.609l.674-1.366C65.441.99 56.745-.567 49.708.495 42.652 1.56 37.356 5.244 33.452 10.28c-7.765 10.017-10.067 25.427-10.064 36.597h1.525zM10.198 86.2a4.815 4.815 0 01-1.412.22 9.442 9.442 0 01-1.702-.127 11.13 11.13 0 01-1.742-.478 8.325 8.325 0 01-1.552-.773 5.082 5.082 0 01-1.181-1.05 2.538 2.538 0 01-.55-1.3c-.078-.539-.03-1.126.143-1.76.17-.648.44-1.322.81-2.022a17.15 17.15 0 011.376-2.172 25.573 25.573 0 011.805-2.218c.34-.37.615-.66.827-.873.212-.211.411-.348.596-.41.209-.07.386-.058.533.035.154.076.241.24.26.49.043.243-.007.497-.15.763-.135.25-.374.554-.717.912a24.58 24.58 0 00-1.788 2.097c-.509.67-.935 1.3-1.278 1.889a8.55 8.55 0 00-.723 1.588c-.154.462-.214.841-.179 1.138.055.354.234.698.54 1.033.312.32.73.61 1.256.871.52.25 1.133.445 1.835.583a9.905 9.905 0 002.28.126c.526-.008.875.036 1.049.132.185.092.289.25.312.473a.666.666 0 01-.104.497c-.096.135-.277.246-.544.335zm-7.674 2.555c-.278.093-.517.05-.718-.126-.189-.181-.355-.524-.498-1.028-.135-.52-.263-1.228-.383-2.125a33.8 33.8 0 01-.233-2.771c-.04-.886-.066-1.679-.082-2.38a14.05 14.05 0 00-.117-1.674 6.51 6.51 0 00-.162-.947c-.066-.235-.13-.444-.192-.63a2.859 2.859 0 01-.127-.611c-.031-.246 0-.443.092-.59a.777.777 0 01.428-.334c.255-.085.463-.058.625.08.174.135.32.343.44.624.117.27.205.573.267.912.07.323.122.633.157.93.074.527.114 1.149.123 1.865.02.712.043 1.455.07 2.228.024.763.076 1.496.157 2.2.082.628.157 1.122.227 1.484.07.362.133.649.191.86.055.2.097.385.128.555.039.154.08.352.122.594a.933.933 0 01-.104.555.708.708 0 01-.41.33zm13.592-4.508c-.949.316-1.8.369-2.552.157a3.384 3.384 0 01-1.813-1.263c-.46-.643-.755-1.45-.886-2.42a5.058 5.058 0 01.091-1.916c.158-.605.378-1.14.66-1.606a4.84 4.84 0 01.966-1.15c.347-.308.665-.51.954-.606a.844.844 0 01.33-.052.41.41 0 01.267.104c.08.05.13.142.15.277.02.25-.002.494-.063.733-.066.227-.247.474-.544.74a5.12 5.12 0 00-.839 1.01c-.2.324-.335.67-.404 1.04a3.357 3.357 0 000 1.212c.128.997.49 1.711 1.084 2.142.59.42 1.302.49 2.136.213.81-.27 1.42-.794 1.828-1.572.416-.793.555-1.705.416-2.737-.113-.95-.403-1.624-.87-2.02-.47-.408-1.054-.497-1.748-.265-.359.12-.642.29-.85.514-.197.22-.402.493-.614.82a5.53 5.53 0 00-.347.636c-.08.18-.16.329-.237.444a.63.63 0 01-.33.226.512.512 0 01-.434-.029c-.12-.089-.197-.262-.232-.52-.042-.28 0-.596.127-.947.139-.354.332-.7.579-1.04a4.68 4.68 0 01.885-.93 3.23 3.23 0 011.053-.6c.833-.278 1.576-.307 2.228-.088.649.207 1.18.621 1.593 1.24.41.609.668 1.382.777 2.322.128.92.07 1.786-.173 2.598a5.182 5.182 0 01-1.197 2.073 4.712 4.712 0 01-1.99 1.26zm7.104-2.385c-.278.093-.54 0-.787-.277s-.415-.76-.505-1.449a25.642 25.642 0 01-.145-1.53c-.054-.7-.037-1.476.051-2.327.1-1.008.22-1.819.363-2.431.139-.624.32-1.101.544-1.432.224-.331.492-.55.804-.653a.656.656 0 01.654.11c.205.15.382.353.533.611.15.258.29.52.417.785.17.354.365.745.585 1.172.232.423.472.85.719 1.282.259.427.521.827.788 1.2.278.37.552.67.822.9l-.579.347c.116-.77.254-1.547.416-2.333.162-.785.333-1.542.514-2.27.181-.727.36-1.383.537-1.968.205-.62.4-1.077.584-1.37.197-.296.4-.479.608-.548.15-.05.3-.062.451-.035.147.015.28.048.4.098.17.085.32.208.452.37.13.16.235.434.313.819.174.866.355 1.64.545 2.321.197.666.377 1.222.539 1.668.278.794.549 1.41.811 1.848.274.435.417.727.43.877a.548.548 0 01-.122.445.755.755 0 01-.417.312c-.278.093-.554.037-.828-.167-.262-.208-.492-.529-.689-.964-.185-.4-.396-.914-.632-1.541a29.347 29.347 0 01-.66-2.148 33.767 33.767 0 01-.546-2.552l.463-.289c-.143.497-.3 1.063-.474 1.698a208.5 208.5 0 00-.508 1.94c-.162.67-.314 1.33-.457 1.981-.13.647-.236 1.253-.317 1.82a1.754 1.754 0 01-.278.67.949.949 0 01-.509.38c-.278.093-.53.107-.758.041a1.925 1.925 0 01-.637-.404 6.715 6.715 0 01-.58-.692l-.416-.612a24.993 24.993 0 01-1.2-2.026 25.371 25.371 0 01-.585-1.172c-.185-.4-.338-.78-.458-1.138l.475-.311a20.395 20.395 0 00-.485 2.01 13.4 13.4 0 00-.185 1.928c-.007.631.03 1.299.111 2.004.058.48.12.896.186 1.247.078.346.128.612.151.796.02.212-.005.406-.075.584-.07.177-.214.302-.434.375zm14.98-5.008c-.532.177-1.009.195-1.43.052-.409-.146-.752-.423-1.03-.83-.267-.412-.44-.932-.522-1.56a6.65 6.65 0 01.016-1.853c.1-.662.276-1.31.526-1.946a8.72 8.72 0 01.925-1.79 6.903 6.903 0 011.29-1.45 4.933 4.933 0 011.592-.896c.266-.09.498-.09.695 0 .197.088.312.28.347.577a.691.691 0 01-.069.427c-.073.127-.204.235-.393.323a5.691 5.691 0 00-1.968 1.618 6.945 6.945 0 00-1.156 2.253 5.836 5.836 0 00-.22 2.344c.044.358.111.676.204.953.089.265.263.593.521.981l-1.06-.975c.298.196.541.308.73.334.2.023.457-.017.77-.121.74-.247 1.335-.971 1.782-2.172.447-1.202.691-2.817.733-4.845.007-.247.061-.45.161-.612a.825.825 0 01.457-.364.705.705 0 01.724.144c.224.169.382.43.475.785.197.743.394 1.408.591 1.997.205.574.45 1.095.736 1.565.298.465.693.918 1.188 1.356a.692.692 0 01.22.37c.05.15.058.307.023.473a.994.994 0 01-.18.445.746.746 0 01-.375.26.782.782 0 01-.452.035.949.949 0 01-.341-.214 8.398 8.398 0 01-.753-.808 7.15 7.15 0 01-.695-1.039 9.353 9.353 0 01-.603-1.513 20.852 20.852 0 01-.528-2.153l.62-.225c.004 1.281-.092 2.398-.288 3.349-.2.94-.474 1.736-.821 2.39-.34.64-.721 1.152-1.146 1.537-.424.385-.856.651-1.296.798zm9.731-3.222a.755.755 0 01-.764-.15c-.231-.192-.436-.496-.614-.912-.17-.431-.295-.96-.377-1.588a8.517 8.517 0 01-.047-1.12c.023-.316.072-.575.145-.78a1.3 1.3 0 01.312-.508c.104-.111.27-.212.498-.3.224-.1.463-.193.717-.278.845-.281 1.665-.6 2.46-.954a13.33 13.33 0 002.274-1.335l.713 1.091a10.6 10.6 0 01-1.77 1.168c-.657.346-1.336.662-2.038.948a44.27 44.27 0 01-2.049.74l-1.059.18c-.05-.497-.105-1.005-.163-1.525a84.11 84.11 0 00-.186-1.536 94.842 94.842 0 00-.157-1.392 1.514 1.514 0 01.052-.767c.08-.22.208-.359.382-.416.29-.097.542-.053.758.132.212.173.348.52.406 1.04.039.269.072.598.099.986.027.39.054.797.081 1.225.04.423.072.83.1 1.218.034.373.067.683.098.93.086.716.182 1.35.29 1.905.117.539.196.949.239 1.23a.763.763 0 01-.093.473.503.503 0 01-.306.295zm5.99-1.995c-.289.096-.553-.002-.792-.294-.228-.297-.433-.735-.615-1.317-.174-.596-.31-1.27-.406-2.02-.14-1.186-.23-2.13-.273-2.835a17.77 17.77 0 01-.019-1.727 3 3 0 01.122-.791c.073-.242.208-.397.404-.462.255-.085.475-.024.66.184.194.193.311.468.354.826.058.443.081.935.07 1.478 0 .539.043 1.109.128 1.71.093.738.206 1.4.337 1.985.14.57.267 1.047.383 1.432.116.385.182.678.197.878a.85.85 0 01-.11.595.801.801 0 01-.44.358zm3.193-2.16c.035-.397.096-.848.185-1.352.084-.516.18-1.055.289-1.617.119-.566.242-1.12.37-1.663.134-.558.267-1.065.398-1.52.177-.584.364-1.14.56-1.668.197-.528.403-.968.62-1.323.223-.37.445-.59.665-.664.231-.077.466-.047.706.092.25.135.521.404.81.808.201.292.437.67.707 1.131a35.37 35.37 0 011.652 3.204c.255.57.471 1.101.649 1.594l-1.482.647a22.213 22.213 0 00-.724-1.76 25.071 25.071 0 00-.88-1.825 21.033 21.033 0 00-.864-1.483c-.27-.424-.496-.695-.678-.814l.631-.364a21.23 21.23 0 00-.717 1.779 17.906 17.906 0 00-.572 2.096 139.73 139.73 0 00-.318 1.53c-.096.481-.178.945-.248 1.392-.061.431-.119.874-.173 1.328l-1.586.451zm8.626.803c-.232.078-.438.056-.62-.063a.638.638 0 01-.301-.496c-.023-.147-.018-.38.017-.699.038-.308.07-.658.092-1.05a6.019 6.019 0 00-.047-1.179l.921.675c-.17.031-.432.093-.787.185-.344.09-.776.22-1.297.394a111.939 111.939 0 00-3.762 1.33c-.605.227-1.178.456-1.718.688-.54.23-1.03.458-1.47.682l.474-.832a13.35 13.35 0 00.284 1.253c.066.235.122.44.168.618l.122.363c.054.2.035.374-.058.52a.731.731 0 01-.428.335c-.277.093-.505.047-.683-.138a1.902 1.902 0 01-.417-.728 5.455 5.455 0 01-.22-.715 5.775 5.775 0 01-.14-.705c-.015-.2 0-.385.046-.554.031-.177.11-.345.238-.503.127-.157.31-.302.55-.433.273-.142.647-.312 1.122-.509a32.185 32.185 0 011.632-.659 51.25 51.25 0 011.904-.71 56.974 56.974 0 011.881-.666c.301-.1.633-.204.995-.312.36-.12.714-.212 1.065-.278.348-.077.608-.048.782.087.185.13.305.392.36.785.038.308.054.643.046 1.004a5.635 5.635 0 01-.115 1.04 2.948 2.948 0 01-.255.854c-.104.228-.23.366-.381.416zm4.303-4.032c-.532.178-1.009.195-1.43.053-.409-.146-.752-.423-1.03-.831-.267-.412-.44-.931-.522-1.559a6.646 6.646 0 01.016-1.853c.1-.663.276-1.311.526-1.947a8.726 8.726 0 01.925-1.79 6.898 6.898 0 011.29-1.45 4.935 4.935 0 011.592-.896c.266-.089.498-.089.695 0 .196.088.312.28.347.577a.692.692 0 01-.07.427c-.072.127-.204.235-.393.324a5.69 5.69 0 00-1.967 1.618 6.946 6.946 0 00-1.157 2.252 5.835 5.835 0 00-.218 2.345c.042.358.11.675.203.952.089.266.262.593.521.982l-1.06-.976c.298.197.54.308.73.335.2.023.457-.018.77-.122.74-.246 1.334-.97 1.782-2.172.447-1.201.69-2.816.732-4.845.008-.246.062-.45.162-.612a.826.826 0 01.457-.364.705.705 0 01.724.144c.224.17.382.431.475.785.197.743.394 1.409.591 1.998.205.573.45 1.095.736 1.564.298.466.693.918 1.187 1.357a.692.692 0 01.22.37.89.89 0 01.024.473.995.995 0 01-.18.444.747.747 0 01-.375.26.782.782 0 01-.452.035.946.946 0 01-.342-.213 8.422 8.422 0 01-.752-.808 7.158 7.158 0 01-.695-1.04 9.36 9.36 0 01-.603-1.512 20.858 20.858 0 01-.528-2.153l.62-.226c.004 1.282-.092 2.398-.288 3.35-.2.939-.474 1.736-.821 2.39-.34.64-.721 1.152-1.146 1.537-.424.385-.856.65-1.296.797zM7.622 104.966c-.278.091-.54 0-.788-.277-.247-.278-.415-.761-.504-1.45a25.572 25.572 0 01-.146-1.53 12.95 12.95 0 01.051-2.327c.1-1.009.221-1.819.364-2.431.138-.624.32-1.101.543-1.432.224-.332.492-.55.804-.653a.656.656 0 01.655.11c.204.15.382.353.532.61.151.259.29.52.418.786.17.354.365.745.585 1.172.232.423.471.85.718 1.281.259.428.522.828.788 1.201.278.369.552.67.822.901l-.578.347c.115-.771.254-1.548.415-2.334.162-.785.333-1.542.514-2.27.181-.727.36-1.383.538-1.969.204-.62.399-1.076.584-1.368.197-.297.399-.48.607-.55a.905.905 0 01.452-.034c.146.015.28.048.4.098.17.084.32.208.451.37.131.16.236.434.313.819.174.866.356 1.64.545 2.321.197.666.377 1.222.54 1.668.278.793.548 1.41.81 1.848.275.434.418.727.43.877a.548.548 0 01-.122.445.753.753 0 01-.417.312c-.277.092-.553.036-.827-.167-.263-.208-.493-.529-.69-.964-.185-.4-.396-.914-.631-1.541a29.422 29.422 0 01-.661-2.148 33.739 33.739 0 01-.546-2.552l.463-.289c-.142.497-.3 1.063-.473 1.698-.166.62-.336 1.267-.509 1.94-.162.67-.314 1.33-.456 1.981a32.16 32.16 0 00-.318 1.819 1.755 1.755 0 01-.277.67.954.954 0 01-.51.382c-.277.092-.53.106-.758.04a1.904 1.904 0 01-.637-.404 6.8 6.8 0 01-.579-.692c-.1-.146-.24-.35-.417-.612a25.164 25.164 0 01-1.2-2.026 25.529 25.529 0 01-.584-1.172c-.186-.4-.338-.78-.458-1.138l.474-.312a20.403 20.403 0 00-.485 2.01c-.108.64-.17 1.282-.184 1.929-.008.631.03 1.299.11 2.003.059.482.12.897.186 1.248.078.346.128.611.151.796.02.212-.005.406-.075.584-.069.177-.214.302-.433.376zm16.457-5.502c-.717.24-1.352.342-1.904.307-.544-.05-1.003-.21-1.378-.484a3.13 3.13 0 01-.915-1.12 5.341 5.341 0 01-.446-1.622 6.774 6.774 0 01.091-1.917 7.56 7.56 0 01.67-1.975 6.2 6.2 0 011.239-1.664 4.552 4.552 0 011.747-1.063c.614-.205 1.15-.274 1.61-.209.47.061.845.258 1.123.588.29.327.473.799.55 1.415.066.504.016.99-.15 1.455-.157.45-.408.874-.751 1.27a5.93 5.93 0 01-1.215 1.04c-.467.297-.99.542-1.569.735-.787.262-1.345.345-1.672.249-.317-.1-.49-.273-.522-.52-.023-.146-.004-.261.058-.346.058-.096.174-.173.347-.231a1.89 1.89 0 01.475-.081c.197-.027.474-.1.833-.22a4.968 4.968 0 001.482-.763c.42-.32.735-.668.943-1.046.204-.388.285-.781.242-1.178-.046-.37-.18-.614-.4-.733-.208-.123-.538-.11-.99.041-.45.15-.85.4-1.197.746-.34.33-.63.73-.874 1.195a5.357 5.357 0 00-.485 1.49 5.1 5.1 0 00-.028 1.588c.058.443.18.826.365 1.15.181.31.448.53.799.657.359.111.805.079 1.337-.099.602-.2 1.092-.447 1.47-.74.386-.308.694-.616.926-.924.231-.308.426-.572.584-.791.158-.22.318-.356.48-.41.197-.066.361-.037.492.086.14.108.224.285.255.531.031.246-.044.54-.225.884-.174.327-.432.67-.775 1.028a6.834 6.834 0 01-1.175.988c-.443.289-.926.52-1.447.693zm7.369-5.534c-.44.147-.838.17-1.193.07-.355-.1-.66-.3-.915-.6a3.043 3.043 0 01-.544-1.108 5.707 5.707 0 01-.238-1.403 6.999 6.999 0 01.068-1.41 4.28 4.28 0 01.364-1.16c.162-.323.365-.526.608-.607a.62.62 0 01.318-.029.483.483 0 01.278.139.553.553 0 01.157.294c.023.108.019.289-.012.543-.023.239-.055.525-.098.86a6.698 6.698 0 00-.063 1.022c0 .347.049.684.145 1.01.07.209.147.382.232.52a.57.57 0 00.296.249.744.744 0 00.434-.03 2.83 2.83 0 001.053-.658c.331-.316.623-.695.873-1.138a7.45 7.45 0 00.636-1.386 5.86 5.86 0 00.283-1.404l.736 1.738a10.84 10.84 0 01-.815 2.004 5.966 5.966 0 01-1.151 1.577 3.76 3.76 0 01-1.452.907zm4.643 1.592c-.255.085-.467.046-.637-.115a2.714 2.714 0 01-.475-.67 6.502 6.502 0 01-.296-.826 15.815 15.815 0 01-.418-2.344 37.045 37.045 0 01-.129-2.113c-.01-.381-.015-.74-.011-1.074 0-.346-.002-.622-.006-.826-.008-.408.022-.739.092-.993.08-.258.225-.422.434-.491.196-.066.405 0 .625.196.22.196.351.492.394.889.039.27.056.649.053 1.138-.008.477-.01.971-.005 1.483.011.497.039.924.081 1.282.066.582.144 1.082.233 1.501.088.42.185.786.29 1.097.065.235.129.426.19.572.063.146.101.281.117.404a.904.904 0 01-.098.514c-.07.177-.214.302-.434.376zm1.862-8.456c-.267.09-.502.078-.707-.034a.64.64 0 01-.324-.508.705.705 0 01.098-.398c.074-.127.232-.27.475-.428.378-.254.899-.543 1.562-.867a20.291 20.291 0 012.42-.96c.486-.161.935-.298 1.348-.41.42-.127.891-.24 1.412-.336.41-.085.74-.092.996-.023.266.065.41.19.434.375a.827.827 0 01-.04.398.768.768 0 01-.238.33c-.108.1-.26.183-.457.248-.243.081-.53.164-.862.249-.332.085-.687.177-1.065.278-.37.084-.747.19-1.129.318-.798.266-1.43.514-1.892.745-.467.22-.849.424-1.146.613a4.64 4.64 0 01-.885.41zm4.87 6.194a.663.663 0 01-.676-.121 2.432 2.432 0 01-.51-.716 7.285 7.285 0 01-.33-.987 17.51 17.51 0 01-.29-1.444 44.665 44.665 0 01-.233-1.558 202.2 202.2 0 00-.233-1.79 46.295 46.295 0 00-.168-1.311l1.528-.624.075.802c.04.308.086.659.14 1.051.05.381.099.776.145 1.184.054.392.105.773.151 1.143a14.6 14.6 0 00.262 1.53c.104.389.203.703.295.941.093.239.172.437.238.595.062.146.102.287.122.421a.955.955 0 01-.023.393.686.686 0 01-.191.294.706.706 0 01-.301.197zm7.93-2.641c-.543.181-1.034.197-1.47.047-.436-.15-.795-.435-1.077-.854-.285-.431-.475-.978-.568-1.64l-.308-2.361c-.1-.763-.19-1.413-.267-1.952-.066-.543-.108-.9-.128-1.074a1.134 1.134 0 01.012-.427c.042-.143.11-.268.202-.376a.735.735 0 01.33-.225c.266-.089.507-.022.724.202.227.219.37.511.428.877.039.347.07.766.093 1.259.036.489.086.947.152 1.374l.046.6c.027.235.05.478.07.728l.07.612c.077.654.238 1.134.481 1.438.243.304.562.39.955.26.22-.074.444-.213.672-.417.239-.208.455-.447.648-.716.189-.281.333-.56.433-.838.1-.277.118-.514.052-.71-.089-.304-.251-.52-.486-.647-.224-.13-.512-.201-.863-.213a4.05 4.05 0 00-.753 0c-.3.024-.617.059-.949.105a6.941 6.941 0 00-.95.162l-.08-1.224c.393-.208.829-.462 1.307-.763.49-.304.99-.637 1.499-1a40.98 40.98 0 001.452-1.08c.52-.404.97-.791 1.348-1.161.39-.374.722-.69.995-.948.282-.273.527-.445.735-.514.36-.12.672-.089.938.092.274.165.436.458.487.877.042.397.083.788.122 1.173.046.37.09.752.134 1.148a56.915 56.915 0 00.377 2.397c.081.435.168.83.261 1.183.077.231.157.487.238.768.089.266.143.466.162.6a.826.826 0 01-.04.399.665.665 0 01-.208.3.742.742 0 01-.319.203c-.243.08-.467.027-.671-.162a2.29 2.29 0 01-.481-.802 15.28 15.28 0 01-.476-1.767 26.076 26.076 0 01-.319-1.876 22.787 22.787 0 00-.11-.907c-.035-.335-.068-.664-.1-.987a29.775 29.775 0 00-.092-.855 32.8 32.8 0 00-.053-.56l.47.248a11.82 11.82 0 01-.874.85c-.359.312-.774.649-1.244 1.01-.475.351-.972.71-1.493 1.075-.521.366-1.051.723-1.592 1.07-.532.33-1.05.626-1.556.884l-.035-.682c.089-.042.224-.1.405-.173.189-.089.41-.175.665-.26a3.45 3.45 0 01.597-.122c.27-.038.555-.05.856-.035.313.011.622.07.926.173.313.088.583.242.811.461.24.216.413.505.521.866.128.458.117.943-.034 1.456a4.811 4.811 0 01-.688 1.46c-.32.467-.69.879-1.11 1.237-.425.346-.851.591-1.28.734z" fill="#E71985"/></svg>