<svg width="292" height="143" fill="none" xmlns="http://www.w3.org/2000/svg"><path d="M98.646 14.642c-.888.003-1.65-.145-2.287-.443a3.801 3.801 0 01-1.479-1.256 4.382 4.382 0 01-.706-1.798 6.38 6.38 0 01.068-2.124 8.194 8.194 0 01.751-2.162 8.597 8.597 0 011.166-1.696 8.71 8.71 0 011.294-1.228 7.803 7.803 0 011.15-.741c.336-.169.576-.254.72-.254.12 0 .228.017.324.053s.174.131.234.287c.133.264.115.498-.052.702a2.517 2.517 0 01-.683.56c-.395.242-.82.573-1.276.994a7.4 7.4 0 00-1.22 1.552c-.36.613-.628 1.334-.806 2.162-.13.684-.123 1.32.022 1.908a2.54 2.54 0 00.957 1.42c.493.346 1.178.518 2.054.515a4.279 4.279 0 001.961-.492 5.138 5.138 0 001.653-1.408 4.915 4.915 0 00.949-2.145c.13-.72.183-1.423.157-2.107a5.964 5.964 0 00-.346-1.87c-.205-.564-.512-1.013-.921-1.348-.396-.335-.895-.501-1.495-.5a.751.751 0 00-.629.308 1.8 1.8 0 00-.305.74c-.047.251-.148.45-.304.594a.767.767 0 01-.504.2.703.703 0 01-.414-.125.752.752 0 01-.27-.377 1.21 1.21 0 01-.02-.63 2.91 2.91 0 011.4-1.948c.383-.218.827-.327 1.331-.328.816-.003 1.518.205 2.107.623.589.419 1.046.987 1.372 1.706.337.708.543 1.517.617 2.429a9.61 9.61 0 01-.174 2.844 6.71 6.71 0 01-2.277 3.895 6.544 6.544 0 01-1.906 1.103 6.451 6.451 0 01-2.213.385zm11.711-.052c-.888.002-1.62-.17-2.197-.516a2.874 2.874 0 01-1.191-1.472c-.217-.636-.243-1.368-.077-2.196a5.948 5.948 0 01.77-1.964 6.338 6.338 0 011.401-1.589 6.726 6.726 0 011.833-1.067 5.66 5.66 0 012.033-.384c.312 0 .588.046.829.142.24.083.414.215.523.394.12.168.15.378.091.63a1.05 1.05 0 01-.269.54.675.675 0 01-.468.182.548.548 0 01-.306-.071 3.981 3.981 0 00-.234-.143c-.072-.048-.198-.072-.378-.071a3.778 3.778 0 00-1.925.527 4.943 4.943 0 00-1.527 1.337 4.367 4.367 0 00-.806 1.748c-.083.504-.07.942.039 1.314.12.36.337.641.649.844.325.203.721.304 1.189.303.528-.002.948-.063 1.26-.184a2.82 2.82 0 00.737-.434c.191-.157.347-.295.467-.415a.544.544 0 01.413-.2c.228 0 .384.053.469.161.096.108.12.294.073.558-.083.396-.286.75-.61 1.063a3.379 3.379 0 01-1.222.706 4.71 4.71 0 01-1.566.257zm6.388.017c-.432.001-.72-.274-.866-.825-.145-.552-.128-1.284.05-2.197.142-.636.303-1.117.483-1.441.191-.337.406-.565.646-.686.132-.072.318-.115.558-.128a7.9 7.9 0 01.756-.038c.876-.002 1.74-.047 2.591-.133.864-.099 1.71-.281 2.537-.548l.327 1.241a10.33 10.33 0 01-2.015.546c-.72.122-1.451.209-2.195.259-.732.038-1.446.058-2.142.06l-1.045-.16c.155-.708.315-1.452.482-2.232.166-.781.308-1.477.427-2.09a1.49 1.49 0 01.287-.703c.143-.18.305-.27.485-.271.3 0 .522.118.667.358.144.228.163.594.056 1.098-.047.264-.119.582-.214.955-.095.372-.196.762-.303 1.17-.095.409-.191.799-.286 1.171-.083.36-.148.66-.196.9a26.341 26.341 0 00-.32 1.874c-.059.54-.112.948-.159 1.224a.754.754 0 01-.233.415.496.496 0 01-.378.181zm6.21-.018c-.3 0-.516-.173-.649-.52-.121-.348-.176-.822-.165-1.422a13.18 13.18 0 01.248-2.017c.237-1.152.445-2.065.624-2.737.19-.685.363-1.225.518-1.622a2.98 2.98 0 01.359-.703c.143-.204.317-.307.521-.307.264-.001.45.124.559.376.12.24.145.534.074.882-.083.432-.214.9-.393 1.405-.167.504-.304 1.05-.411 1.64-.142.72-.243 1.374-.301 1.962a27.97 27.97 0 00-.087 1.458c-.011.396-.041.69-.088.883a.847.847 0 01-.287.522.79.79 0 01-.522.2zm7.577-.004c-.984.003-1.795-.211-2.432-.641a3.326 3.326 0 01-1.3-1.742c-.229-.744-.255-1.59-.077-2.538.131-.673.357-1.261.68-1.766.335-.517.706-.95 1.113-1.3.42-.349.839-.608 1.259-.777.419-.181.779-.272 1.079-.273.132 0 .24.017.324.053a.407.407 0 01.217.18c.06.071.078.173.054.305a2.21 2.21 0 01-.286.667c-.132.192-.378.367-.737.524a5.066 5.066 0 00-1.097.687 2.986 2.986 0 00-.7.848 3.332 3.332 0 00-.375 1.135c-.19.973-.075 1.753.347 2.34.421.574 1.064.86 1.928.858.84-.003 1.571-.305 2.194-.907.634-.614 1.046-1.425 1.236-2.433.19-.925.129-1.645-.184-2.16-.314-.527-.83-.79-1.55-.787-.372 0-.69.074-.954.219a6.595 6.595 0 00-.826.578 5.33 5.33 0 00-.521.487 3.041 3.041 0 01-.36.344.61.61 0 01-.377.109.505.505 0 01-.397-.161c-.084-.12-.102-.306-.055-.558.048-.276.185-.559.412-.847a4.59 4.59 0 01.863-.795 4.545 4.545 0 011.114-.597 3.182 3.182 0 011.17-.237c.864-.003 1.566.199 2.107.605.541.395.908.946 1.102 1.653.193.696.195 1.5.005 2.412-.166.9-.488 1.694-.967 2.379a5.116 5.116 0 01-1.761 1.571 4.632 4.632 0 01-2.248.565zm9.458.044c-.612.002-1.111-.123-1.495-.373a2.308 2.308 0 01-.83-.97 3.952 3.952 0 01-.291-1.313c-.013-.48.022-.948.105-1.405.107-.504.262-1.05.464-1.639.215-.589.454-1.153.717-1.694.263-.553.526-1.01.789-1.37a1.54 1.54 0 01.359-.38c.144-.096.294-.162.45-.199.155-.048.311-.073.467-.073.144 0 .247.047.307.143.06.084.072.204.036.36-.035.18-.137.408-.304.685-.155.276-.347.613-.574 1.01-.215.396-.43.87-.645 1.423a10.829 10.829 0 00-.536 1.91c-.154.768-.135 1.38.058 1.836.193.455.596.682 1.208.68a2.915 2.915 0 001.367-.364 4.06 4.06 0 001.204-.975c.359-.421.598-.89.717-1.406l.199.341a4.741 4.741 0 00-1.081-.267c-.408-.07-.846-.117-1.314-.14a9.992 9.992 0 00-1.35-.014 8.35 8.35 0 00-1.188.111l.231-1.188a8.262 8.262 0 001.764-.221 6.81 6.81 0 001.493-.563 4.96 4.96 0 001.078-.723c.276-.265.431-.511.467-.74.035-.167-.007-.3-.127-.395-.121-.107-.313-.16-.577-.16-.324 0-.666.05-1.025.147-.348.097-.72.218-1.116.363-.395.145-.815.296-1.259.454-.18.048-.33.025-.45-.07a.34.34 0 01-.109-.36c.036-.169.15-.325.341-.47.204-.156.396-.27.576-.343.731-.386 1.408-.652 2.032-.798a7.442 7.442 0 011.763-.24c.432 0 .787.064 1.063.196.288.13.493.31.613.538.133.227.169.485.11.773-.071.385-.251.751-.538 1.1a5.145 5.145 0 01-1.096.975 7.51 7.51 0 01-1.42.742 8.093 8.093 0 01-1.619.455l.088-.684a17.014 17.014 0 011.566-.005 7.64 7.64 0 011.297.158c.372.083.654.22.847.412.204.18.3.42.289.72-.023.48-.19.96-.501 1.44-.299.47-.7.897-1.203 1.282-.491.386-1.037.7-1.636.94a4.892 4.892 0 01-1.781.348zm8.895-.134c-.552.002-1.002-.129-1.351-.392-.336-.263-.571-.628-.704-1.096-.121-.467-.122-1.008-.004-1.62a6.573 6.573 0 01.591-1.73 8.778 8.778 0 011.094-1.659 8.63 8.63 0 011.419-1.39 6.812 6.812 0 011.654-.959 4.851 4.851 0 011.763-.347c.276 0 .492.07.649.214.156.144.205.36.145.648a.684.684 0 01-.197.378c-.108.097-.264.157-.468.182a5.606 5.606 0 00-2.338.907 6.867 6.867 0 00-1.778 1.75 5.773 5.773 0 00-.931 2.127 4.662 4.662 0 00-.106.955c0 .276.061.636.182 1.08l-.687-1.24c.217.275.409.454.578.538.18.083.432.124.756.123.768-.002 1.547-.496 2.337-1.482.79-.987 1.518-2.423 2.186-4.309a1.21 1.21 0 01.341-.523.814.814 0 01.54-.2c.276 0 .486.12.631.359.156.227.223.521.199.881a33.16 33.16 0 00-.067 2.052c.013.6.08 1.164.202 1.692.133.527.362 1.073.687 1.636a.68.68 0 01.091.413.881.881 0 01-.125.45.985.985 0 01-.305.362.736.736 0 01-.432.127.766.766 0 01-.432-.107.93.93 0 01-.253-.305 8.258 8.258 0 01-.452-.989 7.035 7.035 0 01-.327-1.187 9.207 9.207 0 01-.093-1.601c.011-.613.069-1.339.175-2.179l.648-.02c-.512 1.586-1.11 2.853-1.792 3.803-.67.95-1.358 1.63-2.065 2.04-.707.41-1.361.616-1.961.618zm9.221-7.299c-.276.001-.492-.082-.648-.25a.63.63 0 01-.145-.576.69.69 0 01.215-.342c.108-.096.3-.181.575-.254.432-.121 1.008-.23 1.728-.329a19.887 19.887 0 012.555-.151c.504-.002.966.009 1.386.032.432.01.907.051 1.423.121.408.047.72.142.936.286.229.143.325.305.289.485a.806.806 0 01-.161.36.756.756 0 01-.323.235c-.132.06-.3.091-.504.092-.252 0-.546-.01-.882-.034a127.42 127.42 0 00-1.08-.069 11.951 11.951 0 00-1.152-.05c-.828.002-1.494.04-1.998.114-.504.061-.924.134-1.26.22-.336.072-.654.11-.954.11zm2.626 7.3a.649.649 0 01-.594-.322c-.121-.215-.205-.491-.254-.827a6.996 6.996 0 01-.002-1.026c.035-.444.094-.924.176-1.44a44.28 44.28 0 01.267-1.531c.131-.66.243-1.243.338-1.747.107-.517.19-.943.25-1.279l1.619-.113-.178.775c-.059.3-.125.642-.196 1.026a65.38 65.38 0 01-.231 1.153c-.071.384-.143.756-.214 1.117-.119.6-.195 1.104-.231 1.512a9.22 9.22 0 00-.015.972c.012.252.025.462.037.63.012.156.007.3-.017.432a.964.964 0 01-.143.36.679.679 0 01-.27.217.695.695 0 01-.342.091zm8.828-.061c-.744.002-1.368-.098-1.873-.3-.492-.215-.871-.508-1.136-.88a3.08 3.08 0 01-.507-1.33 5.27 5.27 0 01.087-1.656c.13-.589.357-1.177.68-1.766a7.48 7.48 0 011.238-1.642 6.112 6.112 0 011.672-1.175 4.475 4.475 0 011.961-.456c.636-.001 1.158.1 1.567.302.42.203.709.502.865.897.169.396.194.894.076 1.494a3.06 3.06 0 01-.591 1.316 3.89 3.89 0 01-1.096.957 5.901 5.901 0 01-1.457.598 6.964 6.964 0 01-1.692.203c-.816.003-1.362-.092-1.638-.283-.265-.191-.373-.407-.326-.647.024-.144.078-.246.162-.306.083-.073.215-.11.395-.11.132 0 .288.024.469.071.192.035.474.053.846.052a4.884 4.884 0 001.619-.257c.492-.17.893-.399 1.205-.688.311-.3.508-.643.591-1.027.072-.36.023-.63-.145-.81-.157-.18-.469-.269-.937-.267a2.98 2.98 0 00-1.349.328c-.42.205-.815.488-1.186.85a5.278 5.278 0 00-1.434 2.721 3.039 3.039 0 00-.016 1.188c.073.348.253.636.542.863.3.215.727.322 1.279.32.624-.002 1.157-.081 1.601-.239a5.143 5.143 0 001.151-.579c.311-.217.575-.404.791-.56.215-.157.407-.236.575-.236.204 0 .348.077.433.233.096.143.12.335.073.576-.048.24-.209.492-.484.757a4.66 4.66 0 01-1.043.723c-.419.23-.887.417-1.403.562a6.148 6.148 0 01-1.565.203zm6.218.018a.502.502 0 01-.396-.161.739.739 0 01-.163-.396 1.17 1.17 0 01.017-.54c.047-.216.16-.504.34-.865.191-.372.43-.787.717-1.244.287-.469.586-.938.897-1.407.335-.493.676-.98 1.023-1.46.359-.494.7-.933 1.023-1.318.323-.397.592-.71.808-.938.335-.337.653-.584.952-.74.312-.17.624-.255.936-.255.288-.001.486.1.594.304.109.191.193.437.254.737.085.48.164 1.062.238 1.745.085.672.189 1.308.31 1.907.097.504.188.936.273 1.296.097.36.187.665.272.917.096.252.187.467.271.647.084.156.151.294.199.413.048.12.067.246.055.378a1.045 1.045 0 01-.143.45.848.848 0 01-.323.326.705.705 0 01-.414.127c-.228 0-.432-.107-.613-.322-.168-.228-.319-.533-.452-.917a13.957 13.957 0 01-.363-1.24l-.236-1.098a65.33 65.33 0 01-.255-1.511 49.574 49.574 0 01-.22-1.584c-.049-.504-.08-.924-.092-1.26l.36.143c-.335.313-.701.71-1.095 1.192a34.52 34.52 0 00-1.203 1.57 41.881 41.881 0 00-1.202 1.803 29.63 29.63 0 00-1.058 1.875c-.263.469-.49.823-.682 1.064-.179.24-.389.36-.629.362zm12.127-.054c-.408.001-.733-.094-.973-.285a1.69 1.69 0 01-.506-.755 3.305 3.305 0 01-.164-1.043c.011-.384.053-.756.124-1.117.071-.312.166-.684.285-1.116a71.872 71.872 0 01.877-2.667c.155-.408.28-.727.375-.955a8.96 8.96 0 01.412-.973c.132-.229.288-.343.468-.344.156 0 .3.054.432.161a.924.924 0 01.289.413.963.963 0 01.055.558 5.621 5.621 0 01-.25.829c-.131.36-.28.763-.448 1.207a44.8 44.8 0 00-.483 1.352 8.991 8.991 0 00-.339 1.207 6.824 6.824 0 00-.142.936c-.023.288-.011.528.038.72.048.18.15.27.306.27.384-.002.869-.346 1.456-1.031.598-.686 1.262-1.63 1.992-2.832a27.9 27.9 0 00.879-1.479c.251-.456.472-.853.663-1.19.191-.348.377-.619.556-.811.18-.193.36-.29.54-.29.276 0 .474.107.594.323.133.203.193.479.182.827.001.312-.01.696-.033 1.152l-.033 1.404c-.011.468-.01.906.003 1.314.037.696.104 1.266.201 1.71.109.431.206.779.291 1.043.084.264.121.48.109.648a.897.897 0 01-.125.378.968.968 0 01-.27.27.634.634 0 01-.359.11c-.42 0-.721-.274-.902-.826-.181-.551-.321-1.289-.419-2.212-.025-.432-.05-.894-.075-1.386a30.262 30.262 0 01-.003-1.476c.023-.492.046-.948.069-1.368l.522.178c-.203.42-.442.883-.717 1.388a45.382 45.382 0 01-1.13 1.93 18.48 18.48 0 01-1.328 1.857 8.197 8.197 0 01-1.491 1.427c-.503.361-1.012.543-1.528.544zM97.097 30.63c-.792.002-1.417-.098-1.873-.301-.457-.203-.787-.49-.992-.861-.193-.372-.296-.803-.309-1.295a7.97 7.97 0 01.177-1.62 17 17 0 01.482-1.856c.214-.649.465-1.316.751-2 .18-.409.34-.721.484-.938.144-.216.306-.325.486-.325a.77.77 0 01.612.268c.157.168.2.401.128.702-.036.18-.137.468-.304.864a32.99 32.99 0 00-.537 1.496c-.203.6-.387 1.31-.554 2.126-.106.528-.123.96-.05 1.296.084.336.27.581.559.736.3.155.72.232 1.26.23.336 0 .78-.008 1.332-.021a288.36 288.36 0 011.782-.078c.636-.025 1.26-.051 1.872-.077.624-.038 1.17-.075 1.638-.113.48-.05.828-.092 1.043-.129.156-.024.294-.073.414-.145.12-.084.204-.223.251-.415a11.42 11.42 0 00.266-2.035c.034-.66.027-1.266-.022-1.818a14.97 14.97 0 00-.147-1.385c-.049-.384-.068-.654-.056-.81a.616.616 0 01.251-.469.748.748 0 01.486-.2c.276 0 .48.108.612.323.145.204.259.461.344.773.061.228.103.564.128 1.008.037.432.056.918.057 1.458.014.54-.003 1.08-.05 1.62a11.821 11.821 0 01-.177 1.44c-.142.697-.381 1.213-.717 1.55-.323.325-.82.543-1.492.653a16 16 0 01-1.116.111c-.504.026-1.08.051-1.728.077-.648.038-1.308.064-1.98.078-.672.026-1.302.046-1.89.06-.576.013-1.05.02-1.421.021zm3.131-.478a.672.672 0 01-.397-.142.646.646 0 01-.235-.432 5.9 5.9 0 01-.002-1.134c.047-.468.106-.948.177-1.44.083-.505.166-.96.249-1.37.142-.72.303-1.356.482-1.909.178-.552.322-.936.429-1.153.072-.168.161-.3.269-.397a.585.585 0 01.432-.163c.156 0 .288.047.396.143a.81.81 0 01.235.377c.048.156.055.336.019.54a3.717 3.717 0 01-.178.613 47.22 47.22 0 00-.287.9c-.095.349-.184.733-.267 1.154-.071.336-.136.72-.196 1.152-.047.432-.088.87-.123 1.314-.035.433-.058.829-.069 1.189 0 .12-.06.24-.179.36a1.855 1.855 0 01-.378.29.79.79 0 01-.377.108zm16.25.457c-.36 0-.756-.106-1.189-.32a6.565 6.565 0 01-1.28-.897c-.409-.37-.787-.766-1.136-1.185a6.892 6.892 0 01-.795-1.203 1.759 1.759 0 01-.235-.522 2.226 2.226 0 01-.019-.486 3.41 3.41 0 01.143-.324c.06-.12.138-.228.234-.325.143-.192.389-.45.736-.776a24.12 24.12 0 011.204-1.047c.467-.386.946-.741 1.437-1.067.504-.337.977-.614 1.42-.832.456-.217.846-.326 1.17-.327a.47.47 0 01.306.089c.084.06.144.138.18.233a.587.587 0 01.037.288c-.011.264-.185.517-.52.758a9.652 9.652 0 01-1.079.67c-.683.385-1.288.765-1.815 1.138-.528.374-.953.705-1.276.994-.312.289-.473.494-.485.614-.024.096.013.24.109.431.096.192.247.413.451.665.217.251.476.509.776.772.313.263.661.514 1.046.753.228.143.45.28.667.412a2.2 2.2 0 01.54.376c.145.12.211.257.199.414a.753.753 0 01-.125.36.71.71 0 01-.305.253.874.874 0 01-.396.09zm-5.994 0c-.312 0-.522-.155-.631-.467-.109-.323-.14-.785-.093-1.385.059-.613.171-1.351.337-2.215.071-.36.154-.739.25-1.135l.321-1.19c.107-.408.196-.804.267-1.188a2.43 2.43 0 00.054-.288 3.04 3.04 0 00.053-.324c.048-.24.113-.439.197-.595.084-.156.179-.276.287-.36a.578.578 0 01.36-.146c.276 0 .492.125.649.376.168.24.205.582.11 1.026-.06.3-.155.673-.286 1.117-.119.432-.244.877-.375 1.333-.131.456-.232.859-.303 1.207-.107.624-.19 1.182-.249 1.675-.047.492-.076.9-.087 1.224-.011.312-.035.528-.071.648a.817.817 0 01-.161.379.675.675 0 01-.269.216.669.669 0 01-.36.091zm12.858-.002c-.984.003-1.795-.21-2.432-.641a3.318 3.318 0 01-1.299-1.742c-.23-.744-.256-1.59-.078-2.538.131-.672.357-1.261.68-1.766a5.98 5.98 0 011.113-1.3c.42-.349.839-.608 1.259-.777.419-.181.779-.272 1.079-.273.132 0 .24.017.324.053a.406.406 0 01.217.18c.06.071.078.173.054.305a2.2 2.2 0 01-.286.667c-.132.192-.377.367-.737.524a5.067 5.067 0 00-1.097.687 2.986 2.986 0 00-.7.848 3.33 3.33 0 00-.375 1.136c-.19.972-.075 1.752.347 2.338.421.575 1.064.861 1.928.859.84-.003 1.571-.305 2.194-.907.634-.613 1.047-1.425 1.236-2.433.19-.925.129-1.645-.184-2.16-.313-.527-.83-.79-1.55-.787-.372 0-.69.074-.954.219a6.6 6.6 0 00-.826.578 5.18 5.18 0 00-.521.488 3.038 3.038 0 01-.36.343.61.61 0 01-.377.109.505.505 0 01-.397-.161c-.084-.12-.102-.306-.055-.558.048-.276.185-.558.412-.847a4.59 4.59 0 01.863-.795 4.544 4.544 0 011.114-.597 3.183 3.183 0 011.17-.237c.864-.003 1.566.2 2.107.605.541.395.908.946 1.102 1.653.193.696.195 1.5.005 2.412-.166.9-.488 1.694-.967 2.38a5.107 5.107 0 01-1.761 1.57 4.633 4.633 0 01-2.248.565zm6.416-.019a.5.5 0 01-.396-.16.746.746 0 01-.163-.396 1.183 1.183 0 01.017-.54c.047-.216.161-.505.34-.865.191-.373.43-.788.717-1.244.287-.47.586-.938.897-1.407.335-.493.676-.98 1.023-1.461.359-.493.7-.932 1.023-1.317.323-.397.593-.71.808-.938.335-.337.653-.584.952-.741.312-.17.624-.254.936-.255.288 0 .486.1.595.304.108.192.193.438.253.738.061.311.116.677.165 1.097.048.42.103.852.164 1.296.061.431.134.851.219 1.259.097.504.188.935.273 1.295.097.36.187.666.272.917.096.252.187.468.271.648.085.155.151.293.199.413.048.12.067.246.055.378a1.044 1.044 0 01-.143.45.848.848 0 01-.323.325.706.706 0 01-.414.128c-.228 0-.432-.107-.613-.323-.168-.227-.319-.533-.452-.916a13.967 13.967 0 01-.362-1.241c-.061-.276-.14-.642-.237-1.098a52.587 52.587 0 01-.475-3.095c-.049-.503-.08-.923-.092-1.259l.36.143c-.335.313-.7.71-1.095 1.191a35 35 0 00-1.203 1.57 42.84 42.84 0 00-1.202 1.803c-.383.625-.735 1.25-1.058 1.875-.263.469-.49.824-.682 1.064-.179.24-.389.361-.629.362zm12.792-.037c-.564.001-1.026-.135-1.386-.41-.361-.275-.608-.652-.741-1.132-.133-.492-.14-1.062-.022-1.71l.445-2.305c.143-.745.261-1.381.356-1.91.107-.528.178-.876.214-1.044.024-.144.071-.276.143-.396.084-.12.186-.217.306-.29a.719.719 0 01.377-.108c.276-.001.481.136.613.412.145.275.187.593.128.953-.071.337-.172.739-.303 1.207a16.78 16.78 0 00-.285 1.333l-.143.577a19.18 19.18 0 01-.161.702l-.124.594c-.131.637-.13 1.135.003 1.494.133.36.403.54.811.538.228 0 .48-.061.756-.182.288-.121.563-.278.827-.47.263-.205.485-.422.664-.65.18-.23.269-.445.269-.65.011-.311-.073-.563-.254-.755-.168-.191-.414-.346-.739-.465a3.967 3.967 0 00-.702-.232 15.06 15.06 0 00-.919-.196 6.826 6.826 0 00-.936-.141l.304-1.17c.431-.074.917-.177 1.457-.311a28.513 28.513 0 001.709-.473 41.87 41.87 0 001.691-.563 15.471 15.471 0 001.618-.67c.48-.23.887-.423 1.223-.58.348-.17.629-.254.845-.255.372 0 .655.124.847.376.205.24.265.563.182.971-.083.384-.166.763-.249 1.135-.071.36-.149.732-.232 1.117a58.328 58.328 0 00-.391 2.359c-.059.432-.1.828-.123 1.188 0 .24-.005.504-.016.792 0 .276-.011.48-.035.612a.829.829 0 01-.161.36.658.658 0 01-.288.218.73.73 0 01-.36.09c-.252.001-.444-.118-.576-.358a2.24 2.24 0 01-.2-.9c-.002-.6.033-1.2.104-1.8.07-.612.165-1.23.284-1.854.059-.264.118-.559.178-.883.071-.324.142-.642.214-.954.071-.313.13-.589.178-.829l.125-.54.361.377a11.8 11.8 0 01-1.079.525 26.28 26.28 0 01-1.475.562c-.552.182-1.127.363-1.727.545-.6.182-1.205.352-1.817.51-.599.145-1.175.26-1.727.346l.179-.648a7.39 7.39 0 01.431-.037c.204-.025.438-.038.702-.038.144 0 .342.023.595.07.264.047.534.124.81.232.288.107.559.256.811.447.264.18.469.407.613.682.157.276.23.6.219.972-.023.468-.184.918-.483 1.351a4.776 4.776 0 01-1.096 1.155 6.217 6.217 0 01-1.42.814c-.504.194-.978.291-1.422.293zm-46.787 16.1c-.552.002-1.002-.129-1.35-.392-.337-.263-.572-.628-.705-1.096-.121-.467-.122-1.007-.004-1.62a6.572 6.572 0 01.59-1.73 8.828 8.828 0 011.095-1.658c.431-.53.904-.993 1.42-1.39a6.804 6.804 0 011.653-.96 4.85 4.85 0 011.763-.347c.276 0 .492.071.649.215.156.143.205.359.145.647a.685.685 0 01-.197.379c-.108.096-.264.156-.468.181a5.604 5.604 0 00-2.338.907 6.86 6.86 0 00-1.778 1.751 5.771 5.771 0 00-.931 2.127 4.747 4.747 0 00-.106.954c0 .276.061.636.182 1.08l-.687-1.24c.217.275.41.454.578.538.18.083.432.125.756.124.768-.003 1.547-.497 2.337-1.483.79-.986 1.518-2.423 2.186-4.309a1.21 1.21 0 01.341-.523.814.814 0 01.54-.2c.276 0 .486.12.631.359.156.228.223.521.199.881a33.18 33.18 0 00-.067 2.053c.013.6.08 1.163.202 1.691.133.528.362 1.073.687 1.636.072.12.103.258.091.414a.882.882 0 01-.125.45.985.985 0 01-.305.361.736.736 0 01-.432.127.766.766 0 01-.432-.106.93.93 0 01-.253-.306 8.25 8.25 0 01-.452-.988 7.035 7.035 0 01-.327-1.187 9.206 9.206 0 01-.093-1.602c.011-.612.069-1.338.175-2.179l.648-.02c-.393 1.202-.829 2.217-1.307 3.046-.478.818-.981 1.48-1.508 1.985-.515.493-1.03.855-1.546 1.084-.515.23-1 .345-1.457.346zm10.083-.011a.74.74 0 01-.667-.376c-.157-.252-.253-.6-.29-1.043-.025-.456.022-.99.14-1.603.095-.42.197-.774.304-1.063.119-.288.245-.516.376-.685.144-.18.294-.306.45-.379.131-.072.317-.115.557-.128a7.9 7.9 0 01.756-.038c.876-.002 1.74-.047 2.592-.133a13.108 13.108 0 002.537-.548l.326 1.241a10.34 10.34 0 01-2.014.546c-.72.122-1.452.208-2.196.259-.732.038-1.446.058-2.142.06l-1.044-.16c.107-.48.214-.972.321-1.476a82.7 82.7 0 00.303-1.495c.106-.492.201-.943.285-1.35a1.49 1.49 0 01.286-.704c.144-.18.306-.27.486-.271.3 0 .522.118.666.358.145.228.164.594.057 1.098a14.23 14.23 0 01-.214.954c-.095.373-.197.763-.304 1.171-.095.409-.19.799-.285 1.171-.083.36-.149.66-.196.9a25.784 25.784 0 00-.32 1.874c-.059.54-.112.948-.16 1.224a.749.749 0 01-.233.415.493.493 0 01-.377.181zm6.21-.018c-.3 0-.517-.173-.649-.52-.121-.348-.176-.822-.166-1.422.023-.612.106-1.284.248-2.017a53.61 53.61 0 01.624-2.737c.191-.685.364-1.225.519-1.622.095-.264.215-.498.358-.703.144-.204.318-.307.522-.307.264-.001.45.124.558.376.121.24.145.534.074.882-.083.432-.214.9-.393 1.405-.167.504-.303 1.05-.41 1.64a20.82 20.82 0 00-.302 1.962 27.974 27.974 0 00-.087 1.458c-.011.396-.04.69-.088.883a.837.837 0 01-.287.522.786.786 0 01-.521.2zm4.561-.032c-.288.001-.504-.13-.649-.394-.132-.263-.181-.629-.146-1.097.012-.204.047-.486.106-.846s.131-.763.214-1.207l.249-1.369c.095-.456.178-.876.249-1.26l.196-.92c.119-.623.28-1.08.483-1.369.215-.3.527-.481.935-.542.384-.061.792-.105 1.223-.13a15.572 15.572 0 012.79.01c.505.035.883.1 1.135.195.144.06.246.149.307.269.06.108.078.228.054.36-.047.24-.197.414-.449.523a2.028 2.028 0 01-.809.164 5.9 5.9 0 01-.684-.034 9.99 9.99 0 00-.666-.052 10.19 10.19 0 00-.954-.033c-.48.001-.888.027-1.224.076a14.13 14.13 0 00-1.134.219l.881-.579a30.57 30.57 0 00-.465 1.604 50.732 50.732 0 00-.463 2.161 25.788 25.788 0 00-.284 1.675c-.071.516-.124.954-.16 1.314a7.63 7.63 0 01-.088.703c-.036.192-.113.33-.233.414a.645.645 0 01-.414.145zm5.863.02a.501.501 0 01-.396-.161.747.747 0 01-.163-.396 1.183 1.183 0 01.017-.54c.047-.216.161-.505.34-.865.191-.373.43-.787.717-1.244.287-.469.586-.938.897-1.407.335-.493.676-.98 1.023-1.46.359-.494.7-.933 1.023-1.318.323-.397.593-.71.808-.938.335-.337.653-.584.953-.74.311-.17.623-.255.935-.256.288 0 .486.101.595.305.108.191.193.437.253.737.061.312.116.678.165 1.097.049.42.104.852.164 1.296.061.432.134.852.219 1.26.097.503.188.935.273 1.294.097.36.187.666.272.918.097.252.187.467.271.647.085.156.151.294.199.413.049.12.067.246.055.378a1.044 1.044 0 01-.143.45.841.841 0 01-.323.326.706.706 0 01-.414.127c-.228 0-.432-.107-.613-.322-.168-.228-.319-.534-.452-.917a14.319 14.319 0 01-.362-1.241c-.061-.276-.14-.642-.237-1.097-.085-.468-.17-.972-.255-1.512a49.5 49.5 0 01-.219-1.583c-.049-.504-.08-.924-.093-1.26l.36.143c-.335.313-.7.71-1.095 1.191-.383.47-.784.993-1.203 1.57a42.711 42.711 0 00-1.202 1.803c-.383.626-.735 1.25-1.058 1.876-.263.468-.49.823-.682 1.064-.179.24-.389.36-.629.361zm12.127-.054c-.408.001-.732-.094-.973-.285a1.678 1.678 0 01-.505-.755 3.277 3.277 0 01-.165-1.043c.012-.384.053-.756.124-1.117a26.3 26.3 0 01.286-1.116c.131-.433.274-.883.429-1.352.155-.468.304-.907.447-1.315.155-.409.28-.727.376-.955.155-.42.292-.745.412-.973.131-.229.287-.343.467-.344.156 0 .3.053.432.161a.924.924 0 01.289.413.955.955 0 01.055.558 5.619 5.619 0 01-.25.829c-.131.36-.28.763-.447 1.207-.167.445-.328.895-.483 1.351a9.166 9.166 0 00-.34 1.207 6.983 6.983 0 00-.142.937c-.023.288-.011.528.038.72.048.18.15.27.306.269.384-.001.87-.345 1.456-1.03.599-.686 1.263-1.63 1.992-2.832a27.88 27.88 0 00.879-1.479c.251-.456.472-.853.663-1.19.192-.348.377-.619.557-.811.179-.193.359-.29.539-.29.276 0 .474.107.595.322.132.204.193.48.181.828.001.312-.01.696-.033 1.152l-.033 1.404c-.011.468-.01.906.003 1.314.037.696.105 1.266.202 1.71.108.431.205.779.29 1.043.084.263.121.48.109.647a.884.884 0 01-.125.379.98.98 0 01-.269.27.637.637 0 01-.36.11c-.276 0-.504-.125-.685-.377-.169-.251-.301-.605-.398-1.06-.097-.456-.176-.99-.238-1.602-.025-.432-.05-.894-.075-1.385a30.263 30.263 0 01-.003-1.476c.023-.492.046-.949.069-1.369l.522.179c-.143.276-.298.57-.466.883a20.57 20.57 0 01-.573 1.064c-.215.384-.484.841-.807 1.37-.407.65-.85 1.269-1.328 1.858a8.259 8.259 0 01-1.491 1.426c-.503.362-1.013.544-1.529.545zm15.952-10.865c-.504.002-.93-.105-1.278-.32a2.204 2.204 0 01-.776-.826c-.169-.335-.247-.653-.236-.953.023-.324.113-.576.268-.757a.736.736 0 01.576-.272c.18 0 .312.102.396.305.097.192.199.408.308.648.096.227.223.425.379.592.168.168.421.251.757.25.228 0 .461-.067.701-.2.24-.145.455-.295.647-.452.264-.216.497-.397.701-.542.204-.156.407-.235.611-.236.144 0 .253.054.325.161.084.096.102.222.055.378-.06.216-.191.457-.395.721a3.639 3.639 0 01-.754.723 4.252 4.252 0 01-1.061.56 3.46 3.46 0 01-1.224.22zm-4.368 10.831c-.408.001-.732-.094-.973-.285a1.68 1.68 0 01-.505-.755 3.277 3.277 0 01-.165-1.043c.012-.384.053-.756.124-1.116.071-.313.166-.685.286-1.117.131-.433.274-.883.429-1.352.155-.468.304-.906.447-1.315.155-.408.28-.727.376-.955.155-.42.292-.745.412-.973.131-.229.287-.343.467-.343.156-.001.3.053.432.16a.923.923 0 01.289.413.963.963 0 01.055.558 5.618 5.618 0 01-.25.829c-.131.36-.28.763-.447 1.207-.167.445-.328.895-.483 1.352a9.01 9.01 0 00-.34 1.207 6.98 6.98 0 00-.142.936c-.023.288-.011.528.038.72.048.18.15.27.306.27.384-.002.87-.345 1.456-1.031.599-.686 1.263-1.63 1.992-2.832a27.88 27.88 0 00.879-1.479c.251-.456.472-.853.663-1.19.192-.348.377-.619.557-.811.179-.193.359-.29.539-.29.276 0 .474.107.595.322.132.204.193.48.181.828.001.312-.01.696-.033 1.152l-.033 1.404c-.011.468-.01.906.003 1.314.037.696.104 1.266.201 1.71.109.431.206.779.291 1.043.084.264.121.48.109.648a.883.883 0 01-.125.378.978.978 0 01-.269.27.637.637 0 01-.36.11c-.42 0-.721-.274-.902-.826-.181-.551-.321-1.289-.419-2.213-.025-.431-.05-.893-.075-1.385a30.262 30.262 0 01-.003-1.476c.023-.492.046-.948.069-1.368l.522.178c-.203.42-.442.883-.717 1.388a45.204 45.204 0 01-1.129 1.93c-.407.649-.85 1.268-1.328 1.857a8.259 8.259 0 01-1.491 1.427c-.504.361-1.013.543-1.529.544zm13.226-.075c-.888.003-1.621-.169-2.198-.515a2.884 2.884 0 01-1.191-1.473c-.217-.635-.243-1.367-.077-2.195a5.948 5.948 0 01.77-1.965 6.358 6.358 0 011.401-1.588 6.727 6.727 0 011.833-1.067 5.666 5.666 0 012.034-.384c.312-.001.588.046.828.142.24.083.414.214.523.394.12.168.151.377.091.63a1.043 1.043 0 01-.269.54.67.67 0 01-.467.182.548.548 0 01-.306-.071 4.343 4.343 0 00-.235-.144c-.072-.047-.198-.071-.378-.07a3.778 3.778 0 00-1.925.527 4.941 4.941 0 00-1.527 1.337 4.38 4.38 0 00-.806 1.748c-.083.504-.07.942.039 1.314.121.36.337.64.65.844.324.203.72.304 1.188.303.528-.002.948-.063 1.26-.184a2.79 2.79 0 00.737-.434c.192-.157.347-.295.467-.416a.548.548 0 01.414-.199c.228 0 .384.053.468.16.096.108.121.294.073.559-.083.396-.286.75-.61 1.063-.323.301-.73.536-1.222.706-.48.17-1.002.255-1.565.257zm12.203 0c-.36.002-.757-.105-1.189-.32a6.531 6.531 0 01-1.28-.896c-.409-.37-.788-.766-1.137-1.185a6.948 6.948 0 01-.794-1.203 1.734 1.734 0 01-.235-.522 2.166 2.166 0 01-.019-.486 3.16 3.16 0 01.143-.324c.06-.12.138-.228.233-.325.144-.192.389-.45.737-.776.347-.325.748-.674 1.203-1.047a17.28 17.28 0 011.438-1.067c.503-.337.977-.614 1.42-.832.456-.217.846-.326 1.17-.327a.47.47 0 01.306.089c.084.06.144.137.18.233a.599.599 0 01.037.288c-.012.264-.185.517-.52.758a9.77 9.77 0 01-1.079.669c-.683.386-1.288.766-1.816 1.14a14.73 14.73 0 00-1.275.993c-.312.289-.473.493-.485.614-.024.096.012.24.109.431.096.192.247.413.451.665.217.251.475.508.776.772.312.263.661.514 1.046.753.228.143.45.28.666.412.229.119.409.244.541.376.145.12.211.257.199.413a.713.713 0 01-.431.613.868.868 0 01-.395.092zm-5.994 0c-.312.001-.523-.154-.631-.466-.109-.323-.14-.785-.093-1.386.058-.612.171-1.35.337-2.215.071-.36.154-.738.249-1.134l.322-1.19c.107-.407.196-.804.267-1.188.024-.096.042-.192.054-.288.023-.108.041-.216.053-.324.047-.24.113-.439.197-.595.083-.156.179-.276.287-.36a.578.578 0 01.36-.146c.276 0 .492.125.648.376.169.24.206.582.111 1.026-.06.3-.155.672-.286 1.117-.119.432-.244.877-.375 1.333-.131.456-.232.859-.303 1.207-.107.624-.19 1.182-.249 1.675-.047.492-.076.9-.087 1.224-.012.312-.035.528-.071.648a.827.827 0 01-.161.379.679.679 0 01-.27.216.663.663 0 01-.359.091zm12.857-.001c-.984.003-1.794-.211-2.431-.641a3.325 3.325 0 01-1.3-1.742c-.229-.744-.255-1.59-.077-2.538a5.01 5.01 0 01.68-1.766c.335-.517.706-.95 1.113-1.3a4.765 4.765 0 011.259-.777c.419-.181.779-.272 1.079-.273.132 0 .24.017.324.053a.4.4 0 01.216.18c.061.071.079.173.055.305a2.21 2.21 0 01-.286.667c-.132.192-.378.367-.737.524a5.063 5.063 0 00-1.097.687 2.986 2.986 0 00-.7.848 3.332 3.332 0 00-.376 1.135c-.189.973-.074 1.753.347 2.34.422.574 1.064.86 1.928.858.84-.003 1.572-.305 2.194-.907.635-.614 1.047-1.425 1.237-2.433.19-.925.129-1.645-.185-2.16-.313-.527-.829-.79-1.549-.787-.372 0-.69.074-.954.219a6.666 6.666 0 00-.827.578c-.215.18-.389.343-.52.487a3.04 3.04 0 01-.36.344.616.616 0 01-.378.109.502.502 0 01-.396-.161c-.084-.12-.103-.306-.055-.558.047-.276.185-.558.412-.847.239-.289.527-.554.862-.795a4.554 4.554 0 011.115-.597 3.183 3.183 0 011.17-.237c.864-.003 1.566.199 2.107.605.541.395.908.946 1.101 1.653.194.696.196 1.5.006 2.412-.166.9-.489 1.694-.967 2.38a5.124 5.124 0 01-1.761 1.57 4.636 4.636 0 01-2.249.565zm7.532-.058c-.288 0-.504-.13-.648-.394-.133-.264-.182-.63-.147-1.098a8.73 8.73 0 01.106-.846c.06-.36.131-.763.214-1.207l.249-1.369c.095-.456.178-.876.249-1.26.083-.385.149-.69.196-.919.119-.624.28-1.08.483-1.37.215-.3.527-.48.935-.542a12.36 12.36 0 011.224-.13c.444-.037.881-.056 1.313-.058.324 0 .655.01.991.034.336.01.648.034.936.069.288.035.516.088.684.16.144.06.246.15.307.269.06.108.078.228.054.36-.047.24-.197.414-.448.523a2.038 2.038 0 01-.81.164c-.252.001-.48-.01-.684-.034a9.994 9.994 0 00-.666-.051 10.01 10.01 0 00-.954-.034c-.48.002-.888.027-1.224.076a14.09 14.09 0 00-1.134.22l.881-.58a69.07 69.07 0 00-.304 1.028c-.095.36-.196.768-.303 1.224-.107.445-.214.949-.321 1.513a25.8 25.8 0 00-.284 1.675c-.071.516-.124.954-.159 1.315-.036.36-.065.594-.089.702-.035.192-.113.33-.233.415a.646.646 0 01-.414.145zm10.908.004c-.984.003-1.795-.21-2.432-.641a3.324 3.324 0 01-1.299-1.742c-.23-.744-.256-1.59-.078-2.538.131-.672.357-1.261.68-1.766.335-.517.706-.95 1.114-1.3a4.76 4.76 0 011.258-.777c.419-.181.779-.272 1.079-.273.132 0 .24.017.324.053a.403.403 0 01.217.18c.06.071.078.173.054.305a2.2 2.2 0 01-.286.667c-.132.192-.377.367-.737.524a5.03 5.03 0 00-1.096.687 2.98 2.98 0 00-.701.848 3.33 3.33 0 00-.375 1.136c-.19.972-.074 1.752.347 2.339.421.574 1.064.86 1.928.858.84-.002 1.571-.305 2.194-.907.634-.613 1.047-1.425 1.237-2.433.19-.925.128-1.644-.185-2.16-.313-.527-.83-.79-1.55-.787-.372.001-.69.074-.953.219a6.53 6.53 0 00-.827.578c-.216.18-.389.343-.521.488a3.127 3.127 0 01-.359.343.615.615 0 01-.378.109.501.501 0 01-.396-.161c-.085-.12-.103-.306-.056-.558.048-.276.185-.558.412-.847a4.59 4.59 0 01.863-.795 4.547 4.547 0 011.114-.597 3.183 3.183 0 011.17-.237c.864-.003 1.566.2 2.107.606.541.394.908.945 1.102 1.652.193.696.195 1.5.005 2.412-.166.9-.488 1.694-.967 2.38a5.112 5.112 0 01-1.76 1.57 4.639 4.639 0 01-2.249.565zm-96.697 16.265a.73.73 0 01-.703-.43c-.133-.3-.206-.666-.218-1.098-.001-.216.004-.462.016-.738.011-.276.035-.558.07-.846.047-.288.089-.552.124-.792l.179-.811c.083-.324.166-.655.25-.99.095-.349.178-.667.249-.955.084-.3.143-.529.179-.685.024-.156-.013-.27-.109-.342-.096-.083-.264-.125-.504-.124a5.82 5.82 0 00-.63.038 9.95 9.95 0 00-.738.11 5.626 5.626 0 00-1.637.58c-.467.254-.73.543-.79.867-.059.276-.028.528.092.756.133.215.39.389.775.52.396.13.966.195 1.71.192a16.142 16.142 0 001.548-.076c.252-.037.462-.062.63-.074.168-.025.276-.037.324-.037.3 0 .552.017.756.052.204.035.283.161.235.377-.035.24-.167.433-.395.577-.215.145-.503.248-.863.309a7.291 7.291 0 01-1.224.093l-1.854.006a4.895 4.895 0 01-1.8-.319c-.541-.214-.956-.52-1.245-.914-.276-.395-.367-.857-.273-1.386.072-.324.227-.66.466-1.009.252-.36.61-.698 1.078-1.011.48-.313 1.103-.567 1.87-.761a9.192 9.192 0 011.386-.274 11.55 11.55 0 011.116-.058c.468-.001.834.064 1.098.195.265.131.445.31.541.538.109.228.133.492.074.792a9.367 9.367 0 01-.232.919c-.107.348-.214.709-.322 1.08a61.97 61.97 0 00-.249.974c-.06.288-.113.6-.16.936a13.067 13.067 0 00-.141 1.764c.001.264.008.547.02.846.025.288.025.486.001.594a.701.701 0 01-.233.433.67.67 0 01-.467.182zm-6.336 0c-.216 0-.384-.07-.505-.215a.666.666 0 01-.109-.521.87.87 0 01.27-.397c.143-.144.383-.301.718-.47a9.465 9.465 0 001.708-1.121c.575-.458 1.15-.97 1.725-1.535l1.135.645c-.407.445-.85.884-1.33 1.317a19.59 19.59 0 01-1.4 1.157 9.39 9.39 0 01-1.259.831c-.383.205-.701.308-.953.309zm12.668-.073c-.48.001-.93-.045-1.35-.14a4.406 4.406 0 01-1.081-.429 2.148 2.148 0 01-.703-.646 1.29 1.29 0 01-.2-.81.79.79 0 01.197-.504c.131-.144.275-.217.431-.217.144 0 .27.071.379.215.12.131.264.293.433.484.18.18.426.341.739.484.312.131.744.196 1.296.195.804-.003 1.416-.149 1.835-.438.432-.301.647-.638.646-1.01.012-.204-.073-.378-.253-.52-.168-.157-.427-.288-.775-.395-.348-.119-.804-.22-1.369-.302-.456-.058-.75-.147-.882-.267a.555.555 0 01-.145-.468c.011-.192.131-.324.359-.397.228-.072.612-.157 1.151-.255.708-.122 1.272-.304 1.691-.545.432-.241.653-.53.664-.866.012-.324-.139-.57-.451-.737-.313-.179-.733-.267-1.261-.266-.6.002-1.098.081-1.493.238a4.736 4.736 0 00-.953.453c-.228.157-.408.235-.54.236a.359.359 0 01-.306-.143.536.536 0 01-.073-.342c.012-.216.107-.433.287-.649a3.01 3.01 0 01.754-.596c.324-.181.702-.32 1.134-.417.443-.11.923-.165 1.439-.167 1.056-.003 1.837.187 2.341.57.517.382.764.91.742 1.581-.023.372-.173.739-.448 1.1-.263.348-.658.65-1.186.903-.527.242-1.199.4-2.015.474l-.018-.27c.744-.002 1.35.074 1.818.229.48.142.829.37 1.046.68.228.3.331.678.308 1.134-.011.528-.214 1.008-.609 1.442-.383.42-.892.758-1.528 1.012a5.762 5.762 0 01-2.051.366zm8.728.047c-.564.001-1.027-.136-1.387-.41-.361-.275-.608-.653-.741-1.132-.133-.492-.14-1.062-.021-1.71.154-.805.302-1.573.445-2.306.142-.744.261-1.38.356-1.909.106-.528.178-.876.213-1.044a1.15 1.15 0 01.143-.397.998.998 0 01.306-.288.724.724 0 01.378-.11c.276 0 .48.137.613.413.144.275.187.593.128.953a20.57 20.57 0 01-.304 1.207 16.78 16.78 0 00-.285 1.333l-.143.576a18.71 18.71 0 01-.16.703l-.125.594c-.131.637-.129 1.135.003 1.494.133.36.404.539.812.538.228 0 .479-.062.755-.182a4.04 4.04 0 00.827-.47 3.88 3.88 0 00.665-.65c.179-.23.269-.445.268-.65.012-.312-.073-.563-.253-.755-.169-.191-.415-.347-.739-.466a4.019 4.019 0 00-.703-.232 15.11 15.11 0 00-.918-.195 6.825 6.825 0 00-.937-.141l.304-1.171c.432-.073.918-.177 1.457-.31a28.308 28.308 0 001.709-.473c.588-.182 1.151-.37 1.691-.563a15.516 15.516 0 001.619-.671c.479-.23.887-.423 1.222-.58.348-.169.63-.253.846-.254.372-.001.654.124.847.376.204.239.265.563.182.97l-.25 1.136c-.071.36-.148.732-.231 1.116a50.601 50.601 0 00-.391 2.36 16.77 16.77 0 00-.124 1.188c.001.24-.005.504-.016.792.001.276-.011.48-.035.612a.806.806 0 01-.161.36.658.658 0 01-.288.217.723.723 0 01-.359.091c-.252.001-.445-.118-.577-.358a2.257 2.257 0 01-.2-.9c-.001-.6.033-1.2.104-1.8.071-.612.165-1.23.284-1.854.059-.265.119-.559.178-.883.071-.324.143-.642.214-.955.071-.312.131-.588.178-.828.06-.252.101-.432.125-.54l.361.376c-.276.157-.635.332-1.079.526-.432.18-.923.368-1.475.562a74.59 74.59 0 01-1.727.545c-.599.182-1.205.352-1.816.51-.6.145-1.176.26-1.728.346l.179-.648a7.66 7.66 0 01.432-.038c.204-.024.438-.037.702-.038.144 0 .342.023.594.07.264.048.534.125.81.232.289.108.559.257.811.448.265.18.469.407.614.682.156.276.229.6.218.972-.023.468-.184.918-.483 1.351a4.738 4.738 0 01-1.096 1.155 6.196 6.196 0 01-1.42.814c-.503.194-.977.291-1.421.292zm17.609-.07c-.36.001-.757-.106-1.189-.32a6.56 6.56 0 01-1.28-.897c-.409-.37-.788-.766-1.137-1.184a6.948 6.948 0 01-.794-1.204 1.734 1.734 0 01-.235-.521 2.166 2.166 0 01-.019-.486c.035-.096.083-.205.143-.325.06-.12.138-.228.233-.325.144-.192.389-.45.737-.776.347-.325.748-.674 1.203-1.047.468-.386.947-.74 1.438-1.066.503-.338.977-.615 1.42-.832.456-.218.846-.327 1.17-.328.132 0 .234.03.306.09a.488.488 0 01.18.233.599.599 0 01.037.287c-.012.265-.185.517-.52.758a9.775 9.775 0 01-1.079.67c-.683.385-1.288.765-1.816 1.139a14.71 14.71 0 00-1.275.993c-.312.29-.473.494-.485.614-.024.12.055.33.235.629.181.288.458.617.83.988a7.8 7.8 0 001.317 1.004c.228.143.45.28.666.412.229.12.409.245.541.376.145.12.211.258.199.414a.713.713 0 01-.431.613.868.868 0 01-.395.091zm-5.994 0c-.312 0-.523-.155-.631-.467-.109-.323-.14-.785-.093-1.385.058-.612.171-1.35.337-2.215a28.6 28.6 0 01.249-1.135l.322-1.189c.107-.408.196-.805.267-1.189.024-.096.042-.192.054-.288.023-.108.041-.216.053-.324.047-.24.113-.438.197-.595.083-.156.179-.276.287-.36a.578.578 0 01.36-.146c.276 0 .492.125.648.377.169.239.206.58.111 1.025-.06.3-.155.673-.286 1.117-.119.432-.244.877-.375 1.333-.131.456-.232.859-.303 1.207-.107.624-.19 1.183-.249 1.675-.047.492-.076.9-.087 1.224-.012.312-.035.528-.071.648a.816.816 0 01-.161.379.679.679 0 01-.27.216.663.663 0 01-.359.092zm10.697-.032c-.552.002-1.002-.129-1.35-.392-.337-.263-.572-.628-.705-1.096-.121-.467-.122-1.007-.003-1.62a6.533 6.533 0 01.59-1.73 8.825 8.825 0 011.094-1.659 8.66 8.66 0 011.419-1.39 6.814 6.814 0 011.654-.959 4.857 4.857 0 011.764-.347c.276 0 .492.07.648.214.156.144.205.36.145.648a.678.678 0 01-.197.378c-.108.097-.263.157-.467.182a5.6 5.6 0 00-2.338.907 6.871 6.871 0 00-1.779 1.75 5.773 5.773 0 00-.931 2.128 4.733 4.733 0 00-.106.954c.001.276.061.636.182 1.08l-.686-1.24c.216.275.409.454.577.538.18.083.432.124.756.123.768-.002 1.547-.496 2.337-1.482.79-.987 1.519-2.423 2.187-4.309a1.21 1.21 0 01.34-.523.813.813 0 01.54-.2c.276 0 .486.12.631.359.156.227.223.521.2.881-.047.756-.069 1.44-.068 2.053.013.6.081 1.163.202 1.69.133.529.362 1.074.687 1.637.073.12.103.258.091.414a.872.872 0 01-.125.45.976.976 0 01-.305.36.736.736 0 01-.432.128.766.766 0 01-.432-.107.943.943 0 01-.253-.305 8.425 8.425 0 01-.452-.989 7.036 7.036 0 01-.326-1.187 9.297 9.297 0 01-.094-1.601c.011-.612.069-1.338.175-2.179l.648-.02c-.393 1.201-.829 2.217-1.307 3.046-.478.818-.981 1.479-1.508 1.984-.515.494-1.03.855-1.545 1.085-.516.23-1.002.345-1.458.346zm18.449-.072c-1.368.004-2.347-.149-2.935-.459-.589-.31-.842-.67-.759-1.078a.61.61 0 01.216-.414c.119-.097.281-.145.485-.146.168 0 .324.03.468.089.156.047.337.107.541.178.216.06.486.119.81.178.324.047.738.07 1.242.068a8.94 8.94 0 001.332-.094 4.655 4.655 0 001.043-.309c.3-.145.552-.301.755-.47 0-.336-.145-.636-.434-.899-.276-.263-.637-.508-1.081-.735a77.163 77.163 0 00-1.37-.698c-.48-.238-.925-.5-1.333-.788a3.277 3.277 0 01-.921-1.041c-.204-.395-.253-.87-.147-1.422.119-.6.4-1.147.843-1.64a7.827 7.827 0 011.617-1.355 11.91 11.91 0 011.978-1.032 12.43 12.43 0 011.996-.653c.648-.158 1.194-.238 1.638-.24.216 0 .39.036.522.107a.491.491 0 01.253.288.68.68 0 01.018.413.83.83 0 01-.286.505c-.156.133-.396.23-.72.29-1.223.232-2.285.535-3.184.91-.899.374-1.612.79-2.139 1.248-.515.458-.82.92-.915 1.389-.06.3.037.576.29.827.252.251.595.496 1.027.735.445.227.913.471 1.406.734.492.25.949.531 1.37.842.42.299.745.646.974 1.04.241.396.308.852.201 1.368a2.017 2.017 0 01-.556 1.028 3.1 3.1 0 01-1.06.705 6.31 6.31 0 01-1.476.4c-.539.086-1.109.13-1.709.131zm16.233-.047c-.264 0-.457-.107-.577-.322-.121-.228-.229-.606-.327-1.133a14.097 14.097 0 01-.201-1.602 35.605 35.605 0 01-.058-2.016c.01-.72.039-1.398.085-2.034.071-.78.123-1.446.158-1.998.047-.553.058-.99.033-1.315-.013-.335-.067-.581-.164-.737-.096-.156-.252-.233-.468-.233-.324.001-.738.26-1.24.778-.491.505-1.03 1.227-1.616 2.165-.586.937-1.177 2.061-1.774 3.37a40.966 40.966 0 00-1.683 4.344 1.47 1.47 0 01-.323.559.673.673 0 01-.467.181c-.276.001-.475-.088-.595-.268-.12-.192-.133-.528-.038-1.008a13.14 13.14 0 01.607-2.072c.275-.697.573-1.393.896-2.09.322-.71.627-1.418.913-2.127.299-.709.543-1.418.734-2.126a1.09 1.09 0 01.233-.505.562.562 0 01.431-.2c.168 0 .318.048.45.143a.95.95 0 01.343.45l-.683.2c.753-1.13 1.442-1.967 2.064-2.509.635-.541 1.271-.813 1.907-.815.696-.002 1.188.2 1.477.608.289.407.446 1.03.472 1.87.026.84-.02 1.932-.137 3.277-.094.996-.122 1.854-.084 2.574.037.72.087 1.332.148 1.835l.182 1.26c.049.336.05.63.002.882a.73.73 0 01-.251.45.647.647 0 01-.449.164zm-8.936-3.502c-.264 0-.45-.059-.558-.178-.109-.12-.139-.27-.091-.45a.608.608 0 01.197-.379c.12-.108.305-.204.557-.29 1.391-.495 2.944-.86 4.66-1.093a42.297 42.297 0 015.525-.358c.42-.001.69.058.81.178.133.12.175.293.128.521-.048.24-.203.445-.467.614-.264.156-.612.235-1.044.237-1.38.004-2.549.05-3.509.136-.948.075-1.746.173-2.394.295a18.78 18.78 0 00-1.655.347 65.88 65.88 0 01-1.169.31c-.324.072-.654.11-.99.11zm13.654 3.578c-.324.001-.528-.136-.613-.412-.084-.276-.001-.714.249-1.315.347-.84.777-1.736 1.291-2.686a29.273 29.273 0 011.757-2.867 34.283 34.283 0 012.172-2.796 22.645 22.645 0 012.461-2.455c.288-.241.515-.398.683-.47a1.33 1.33 0 01.486-.11c.192 0 .342.065.45.197.109.132.145.318.109.558a1.37 1.37 0 01-.125.414c-.059.12-.161.252-.305.397a30.83 30.83 0 01-.611.542 22.232 22.232 0 00-2.765 2.852 26.263 26.263 0 00-2.333 3.373 24.093 24.093 0 00-1.756 3.64c-.179.457-.353.758-.52.902a.893.893 0 01-.63.236zM179.2 56.9a.624.624 0 01-.432-.143.95.95 0 01-.253-.377c-.265-.66-.507-1.21-.724-1.654a17.49 17.49 0 00-.614-1.186l-.56-1.007a21.24 21.24 0 01-.525-1.132 6.461 6.461 0 01-.235-.755 1.454 1.454 0 01-.002-.559.892.892 0 01.233-.486.638.638 0 01.468-.182c.18 0 .33.053.45.161.132.096.247.263.343.503.169.492.332.917.489 1.277.169.347.332.67.488.97.169.288.337.587.506.899.169.3.338.64.506 1.024.169.384.338.851.507 1.403a.926.926 0 01.037.378c0 .144-.023.282-.071.414a.709.709 0 01-.233.325.554.554 0 01-.378.127zm14.796 5.536c-.324.002-.528-.136-.613-.412-.084-.275-.001-.714.249-1.314.347-.841.777-1.737 1.291-2.686a29.093 29.093 0 011.757-2.867 34.317 34.317 0 012.172-2.797 22.645 22.645 0 012.461-2.455c.287-.24.515-.397.683-.47.18-.072.342-.109.486-.11.192 0 .342.066.45.197.108.132.145.318.109.558a1.37 1.37 0 01-.125.414c-.059.12-.161.253-.305.397-.144.133-.347.313-.611.542a22.313 22.313 0 00-2.766 2.852 26.356 26.356 0 00-2.332 3.373 24.094 24.094 0 00-1.756 3.641c-.179.457-.353.757-.52.902a.892.892 0 01-.63.235zm2.202-5.586a.625.625 0 01-.432-.143.95.95 0 01-.253-.377c-.266-.66-.507-1.21-.724-1.654a17.97 17.97 0 00-.614-1.186l-.56-1.006a21.204 21.204 0 01-.525-1.133 6.713 6.713 0 01-.236-.755 1.474 1.474 0 01-.001-.558.886.886 0 01.233-.487c.12-.12.276-.18.468-.181.18 0 .33.053.45.16.132.096.247.264.343.503.169.492.332.918.489 1.277.169.348.331.671.488.97.169.288.337.588.506.9a11.678 11.678 0 011.013 2.426.925.925 0 01.037.378c0 .144-.023.282-.071.414a.71.71 0 01-.233.325.555.555 0 01-.378.127zm11.433 5.42c-.9.003-1.668-.132-2.304-.407-.625-.286-1.118-.68-1.479-1.183a4.077 4.077 0 01-.688-1.78 6.61 6.61 0 01.068-2.16 10.78 10.78 0 01.5-1.658c.215-.553.466-1.081.752-1.586.299-.505.61-.98.933-1.425.288-.385.581-.716.88-.992.312-.277.629-.416.953-.417.156 0 .276.04.361.125.096.071.138.185.126.341.001.144-.077.325-.232.541a15.959 15.959 0 00-1.131 1.57 12.814 12.814 0 00-.95 1.748 8.505 8.505 0 00-.608 1.874c-.155.768-.141 1.446.04 2.034a2.49 2.49 0 00.975 1.347c.481.322 1.081.483 1.801.48.624-.001 1.14-.045 1.548-.13a4.81 4.81 0 001.025-.309c.276-.12.498-.223.666-.308.179-.084.329-.127.449-.127.216 0 .36.065.433.197.072.12.09.281.055.486-.048.276-.245.546-.593.811-.335.265-.802.489-1.402.67-.588.17-1.314.256-2.178.259zm-2.782-5.05c-.276.062-.486.062-.63.003a.427.427 0 01-.253-.288 1.305 1.305 0 01-.001-.432c.048-.216.191-.402.431-.559.239-.157.557-.271.953-.345.408-.073.852-.14 1.332-.202.491-.073.977-.134 1.457-.184.48-.061.936-.11 1.368-.148.432-.05.822-.08 1.17-.093.36-.001.6.058.72.178.12.107.163.263.127.467-.071.313-.263.535-.574.668a3.9 3.9 0 01-1.026.237 18.93 18.93 0 00-1.35.13c-.456.05-.911.105-1.367.166-.456.061-.888.129-1.296.202-.396.06-.75.128-1.061.2zm.689-5.743c-.348 0-.6-.07-.756-.214a.53.53 0 01-.164-.54.775.775 0 01.198-.378.823.823 0 01.467-.272 26.34 26.34 0 012.627-.403 58.931 58.931 0 012.754-.224c.9-.05 1.68-.077 2.34-.08.3 0 .516.077.648.233a.548.548 0 01.145.54 1.11 1.11 0 01-.305.559c-.155.144-.389.217-.701.218a36.773 36.773 0 00-2.772.098c-.78.05-1.446.112-1.997.186-.552.073-1.032.14-1.44.202a8.87 8.87 0 01-1.044.075zm11.399 10.803c-1.368.003-2.346-.15-2.935-.46-.589-.31-.841-.67-.758-1.078a.606.606 0 01.215-.414c.12-.097.282-.145.486-.146.168 0 .324.03.468.089.156.047.336.107.54.178.216.06.486.119.811.178.324.047.738.07 1.242.068a8.942 8.942 0 001.331-.094 4.68 4.68 0 001.044-.309c.299-.144.551-.301.755-.47-.001-.336-.146-.635-.434-.899a4.58 4.58 0 00-1.082-.734c-.432-.227-.889-.46-1.369-.698a10.244 10.244 0 01-1.334-.789 3.272 3.272 0 01-.92-1.04c-.205-.396-.254-.87-.147-1.422a3.41 3.41 0 01.842-1.64 7.827 7.827 0 011.617-1.356c.635-.41 1.295-.753 1.978-1.031.695-.29 1.361-.508 1.997-.654.647-.158 1.193-.238 1.637-.239.216 0 .39.035.522.106a.488.488 0 01.253.288.69.69 0 01.019.414.831.831 0 01-.287.505c-.156.132-.396.229-.719.29-1.224.231-2.285.534-3.184.909-.9.374-1.613.79-2.14 1.248-.515.458-.82.92-.915 1.389-.059.3.037.576.29.827s.595.496 1.028.735c.444.227.913.471 1.405.734.493.25.949.531 1.37.842.421.299.745.646.974 1.041.241.395.308.851.201 1.367a2.01 2.01 0 01-.556 1.028 3.09 3.09 0 01-1.06.705 6.306 6.306 0 01-1.475.4c-.54.086-1.11.13-1.71.132zm9.028-4.203a.548.548 0 01-.45-.197.904.904 0 01-.163-.557c.022-.672.063-1.26.122-1.765.071-.516.16-1.056.266-1.62.131-.625.25-1.153.357-1.585.119-.433.232-.829.339-1.19.108-.36.197-.726.268-1.098a1.14 1.14 0 01.251-.559.65.65 0 01.539-.253.675.675 0 01.595.322c.144.203.181.521.11.954a9.76 9.76 0 01-.25.954 24.377 24.377 0 00-.66 2.558c-.083.432-.143.793-.178 1.08-.035.289-.065.54-.088.757-.024.216-.047.42-.071.612a4.412 4.412 0 01-.089.63c-.083.349-.214.595-.394.74-.168.144-.336.217-.504.217zm-.638 4.214c-.444.001-.787-.112-1.027-.339-.241-.24-.319-.575-.236-1.007.059-.325.208-.583.448-.776.24-.192.509-.29.809-.29.528-.002.883.141 1.063.429.181.287.236.617.164.99a1.43 1.43 0 01-.394.685c-.192.204-.467.307-.827.308zM96.498 109.447c-.888.003-1.65-.145-2.287-.443-.624-.311-1.117-.729-1.478-1.256a4.389 4.389 0 01-.706-1.798 6.38 6.38 0 01.067-2.124 8.19 8.19 0 01.751-2.163 8.582 8.582 0 011.166-1.695 8.71 8.71 0 011.294-1.228 7.797 7.797 0 011.15-.74c.336-.17.575-.254.72-.255.12 0 .227.017.324.053.096.036.174.132.234.287.133.264.115.498-.052.703a2.514 2.514 0 01-.683.56 8.25 8.25 0 00-1.276.993c-.443.422-.85.939-1.22 1.552-.359.613-.627 1.334-.806 2.162-.13.684-.123 1.32.023 1.908.157.588.476 1.061.957 1.419.493.347 1.177.519 2.053.516a4.261 4.261 0 001.96-.491 5.141 5.141 0 001.654-1.409 4.91 4.91 0 00.949-2.145 9.75 9.75 0 00.157-2.106 5.961 5.961 0 00-.346-1.871c-.205-.563-.512-1.013-.921-1.347-.397-.335-.895-.502-1.495-.5a.753.753 0 00-.63.308 1.805 1.805 0 00-.304.739c-.047.252-.149.45-.304.594a.767.767 0 01-.504.2.704.704 0 01-.414-.125.753.753 0 01-.271-.377c-.06-.18-.067-.39-.02-.63a2.909 2.909 0 011.4-1.948c.384-.217.828-.327 1.332-.328.816-.002 1.518.206 2.107.624.589.418 1.046.987 1.372 1.706.337.707.543 1.517.617 2.428.086.912.028 1.86-.174 2.845a6.71 6.71 0 01-2.277 3.894 6.54 6.54 0 01-1.905 1.104 6.45 6.45 0 01-2.214.384zm7.576.015a.505.505 0 01-.396-.161.749.749 0 01-.163-.396 1.17 1.17 0 01.017-.54c.047-.216.161-.504.34-.865.191-.372.43-.787.717-1.244.287-.469.586-.938.897-1.406.335-.493.676-.98 1.023-1.461.358-.493.7-.932 1.023-1.317.323-.397.592-.71.808-.939.335-.336.652-.583.952-.74a1.96 1.96 0 01.935-.255c.288-.001.487.101.595.304.108.192.193.438.254.738.06.312.115.677.164 1.097.049.42.104.852.165 1.296.061.432.134.851.219 1.259.097.504.188.936.273 1.295.096.36.187.666.272.918.096.251.187.467.271.647.085.156.151.293.199.413.048.12.067.246.055.378a1.05 1.05 0 01-.143.451.838.838 0 01-.323.324.706.706 0 01-.414.128c-.228 0-.432-.107-.613-.323-.168-.227-.319-.533-.452-.916a14.069 14.069 0 01-.363-1.241l-.236-1.098c-.085-.467-.17-.971-.255-1.511a46.875 46.875 0 01-.22-1.583c-.049-.504-.08-.924-.093-1.26l.361.143c-.336.313-.701.71-1.096 1.191-.383.469-.784.992-1.202 1.569a42.475 42.475 0 00-1.202 1.804c-.383.625-.735 1.25-1.058 1.875-.263.469-.49.823-.682 1.064-.179.24-.389.361-.629.362zm12.972-.073c-.588.001-1.062-.093-1.422-.284a2.018 2.018 0 01-.812-.808 3.014 3.014 0 01-.327-1.133c-.025-.42.005-.84.088-1.26.094-.492.243-1.027.446-1.603a13.51 13.51 0 00.447-1.55c.094-.504.154-.912.177-1.224.023-.312.059-.564.106-.757a.984.984 0 01.125-.342.95.95 0 01.252-.235c.108-.06.24-.09.396-.091.336-.001.564.149.685.448.132.288.157.648.074 1.08-.047.276-.125.6-.232.973-.107.36-.22.732-.339 1.117-.119.384-.227.75-.322 1.099-.095.348-.166.642-.214.882a5.44 5.44 0 00-.105 1.189c.013.336.109.599.29.791.192.179.498.268.918.267.348-.001.714-.08 1.098-.237a4.458 4.458 0 001.078-.633c.336-.265.611-.56.826-.884.215-.337.329-.673.34-1.009 0-.156-.091-.276-.271-.36-.168-.095-.45-.142-.846-.141-.444.001-.894.032-1.35.094a18.056 18.056 0 00-2.357.474.529.529 0 01-.306-.053.52.52 0 01-.198-.197.455.455 0 01-.019-.288.889.889 0 01.161-.433.87.87 0 01.431-.271c.252-.097.546-.187.882-.272a13.411 13.411 0 012.231-.421c.372-.049.72-.074 1.044-.075.588-.001 1.038.075 1.35.23.325.156.547.371.668.647.12.275.169.593.146.953-.023.516-.19 1.027-.501 1.532a5.744 5.744 0 01-1.221 1.389 6.228 6.228 0 01-1.636 1.013 4.593 4.593 0 01-1.781.383zm7.321-.021c-.288.001-.504-.131-.649-.394-.132-.264-.181-.63-.146-1.098.011-.204.047-.486.106-.846s.13-.762.213-1.207l.249-1.368c.095-.457.178-.877.249-1.261.084-.384.149-.69.196-.919.119-.624.28-1.08.483-1.369.216-.301.527-.482.935-.543.384-.061.792-.104 1.224-.129.444-.037.882-.057 1.314-.058.324-.001.654.01.99.033.336.011.648.034.936.07.288.035.516.088.684.16a.563.563 0 01.362.629c-.048.24-.197.414-.449.523a2.036 2.036 0 01-.81.164c-.252.001-.48-.01-.684-.034a10.061 10.061 0 00-.666-.052 10.19 10.19 0 00-.954-.033c-.48.001-.888.026-1.224.075-.336.049-.714.122-1.133.22l.88-.579c-.095.312-.196.655-.303 1.027a41.719 41.719 0 00-.624 2.738 25.093 25.093 0 00-.284 1.674c-.071.517-.124.955-.16 1.315-.035.36-.064.594-.088.702-.036.192-.113.331-.233.415a.645.645 0 01-.414.145zm8.502-.024c-.552.001-1.003-.129-1.351-.392-.337-.263-.572-.629-.705-1.096-.121-.468-.122-1.008-.003-1.62a6.53 6.53 0 01.59-1.73 8.765 8.765 0 011.094-1.659 8.62 8.62 0 011.419-1.39 6.79 6.79 0 011.654-.959 4.868 4.868 0 011.763-.347c.276-.001.492.071.649.214.156.144.204.36.145.648a.688.688 0 01-.197.379c-.108.096-.264.156-.468.181a5.6 5.6 0 00-2.338.906 6.86 6.86 0 00-1.778 1.752 5.77 5.77 0 00-.931 2.126 4.729 4.729 0 00-.106.954c.001.276.061.636.182 1.08l-.686-1.24c.216.275.409.455.577.538.18.084.432.125.756.124.768-.002 1.547-.496 2.337-1.482.79-.987 1.518-2.423 2.186-4.309a1.21 1.21 0 01.341-.523.812.812 0 01.54-.199.689.689 0 01.63.358c.157.228.224.521.2.881a33.205 33.205 0 00-.067 2.053c.013.6.081 1.163.202 1.691.133.528.362 1.073.687 1.636.073.12.103.258.091.414a.87.87 0 01-.125.45.974.974 0 01-.305.361.735.735 0 01-.432.127.768.768 0 01-.432-.106.946.946 0 01-.253-.306 8.414 8.414 0 01-.452-.988 7.149 7.149 0 01-.326-1.188 9.184 9.184 0 01-.094-1.601c.011-.612.069-1.338.175-2.179l.648-.02c-.393 1.201-.829 2.217-1.307 3.046-.478.817-.981 1.479-1.508 1.984-.515.494-1.03.855-1.545 1.085-.516.229-1.001.345-1.457.346zm23.668-.031c-.276.001-.468-.197-.577-.593-.097-.407-.116-.971-.058-1.691a21.91 21.91 0 01.372-2.504c.072-.36.172-.822.303-1.386.131-.577.274-1.189.428-1.838.155-.66.303-1.308.446-1.945.142-.648.267-1.225.374-1.729l.307.557a11.655 11.655 0 00-1.314-.158 39.523 39.523 0 00-2.016-.102 51.579 51.579 0 00-2.412-.048c-.312.001-.612.008-.9.021-.288.013-.552.032-.792.056-.24.013-.45.02-.63.02s-.354-.029-.522-.088a.934.934 0 01-.397-.251.362.362 0 01-.073-.342.839.839 0 01.359-.523c.192-.133.456-.223.791-.272a6.62 6.62 0 011.152-.094 101.775 101.775 0 013.762.062c.6.022 1.134.05 1.603.085l1.08.051c.66.046 1.104.17 1.333.374.228.192.295.545.2 1.062-.107.504-.232 1.05-.374 1.639a89.842 89.842 0 01-.411 1.729c-.13.576-.255 1.117-.374 1.621s-.214.931-.285 1.279c-.202 1.02-.326 1.891-.372 2.611-.035.708-.082 1.194-.141 1.458-.036.18-.089.343-.161.487a.77.77 0 01-.287.325.661.661 0 01-.414.127zm-7.236.002a.632.632 0 01-.486-.214c-.121-.156-.199-.366-.236-.63a2.83 2.83 0 01.052-.936c.083-.444.184-.924.303-1.441l.41-1.657c.143-.576.274-1.171.392-1.783.095-.468.196-.997.303-1.585.106-.6.195-1.2.266-1.8.07-.613.087-1.153.05-1.62l1.691-.348c.001.456-.034.972-.104 1.549a29.191 29.191 0 01-.23 1.728 22.922 22.922 0 01-.285 1.603l-.249 1.261-.303 1.477c-.107.504-.214.99-.321 1.459l-.249 1.224c-.071.349-.125.595-.16.739-.071.348-.185.6-.34.757a.692.692 0 01-.504.217zm12.62-.036c-.408.002-.732-.093-.972-.285a1.68 1.68 0 01-.506-.754 3.281 3.281 0 01-.164-1.044c.011-.384.052-.756.123-1.116a26.3 26.3 0 01.286-1.117c.131-.432.274-.883.429-1.351.155-.469.304-.907.447-1.316.155-.408.28-.726.376-.955a8.88 8.88 0 01.411-.973c.132-.228.288-.343.468-.343.156-.001.3.053.432.161a.919.919 0 01.289.413.964.964 0 01.055.558 5.608 5.608 0 01-.25.828c-.131.361-.28.763-.447 1.208-.167.444-.328.895-.483 1.351a9.153 9.153 0 00-.34 1.207 6.809 6.809 0 00-.141.936c-.024.288-.011.528.037.72.049.18.151.27.307.269.384-.001.869-.344 1.455-1.03.599-.685 1.263-1.629 1.992-2.831.335-.529.628-1.022.879-1.479.251-.457.472-.853.663-1.19.191-.348.377-.619.556-.811.18-.193.36-.289.54-.29.276-.001.474.107.594.322.133.204.194.48.182.828.001.312-.01.696-.033 1.152l-.033 1.404c-.011.468-.01.906.003 1.314.038.696.105 1.266.202 1.71.109.431.205.779.29 1.043.085.264.121.479.11.647a.882.882 0 01-.126.379.964.964 0 01-.269.271.644.644 0 01-.36.109c-.276 0-.504-.125-.685-.376-.168-.252-.301-.606-.398-1.061-.097-.456-.176-.99-.238-1.602-.025-.432-.05-.894-.075-1.385a30.263 30.263 0 01-.003-1.476c.023-.493.046-.949.069-1.369l.522.179c-.143.276-.298.571-.466.883a20.57 20.57 0 01-.573 1.064c-.215.384-.484.841-.807 1.37a18.619 18.619 0 01-1.328 1.858 8.252 8.252 0 01-1.491 1.426c-.503.362-1.013.543-1.529.544zm13.226-.073c-.888.002-1.62-.169-2.197-.516a2.873 2.873 0 01-1.191-1.472c-.218-.636-.244-1.368-.077-2.196a5.939 5.939 0 01.769-1.964 6.33 6.33 0 011.401-1.588 6.721 6.721 0 011.833-1.068 5.684 5.684 0 012.034-.383c.312-.001.588.046.828.141.24.084.414.215.523.395.12.167.151.377.091.63a1.04 1.04 0 01-.269.54.67.67 0 01-.467.182.55.55 0 01-.306-.072 5.183 5.183 0 00-.235-.143c-.072-.048-.198-.071-.378-.071a3.776 3.776 0 00-1.925.528 4.934 4.934 0 00-1.527 1.336 4.38 4.38 0 00-.806 1.748c-.083.505-.07.943.039 1.314.121.36.337.641.65.844.324.203.721.304 1.189.303.528-.001.947-.063 1.259-.184.312-.132.558-.277.737-.434a5.98 5.98 0 00.467-.415.547.547 0 01.414-.199c.228-.001.384.053.468.161.096.107.121.293.073.557a2.05 2.05 0 01-.609 1.064c-.323.301-.731.536-1.223.706a4.725 4.725 0 01-1.565.256zm8.028-.005c-.588.002-1.062-.093-1.423-.284a2.019 2.019 0 01-.811-.807 3.024 3.024 0 01-.327-1.134c-.025-.419.004-.84.087-1.26.095-.492.244-1.027.447-1.603a13.74 13.74 0 00.446-1.549c.095-.505.154-.913.177-1.225.024-.312.059-.564.107-.756a.957.957 0 01.125-.343.942.942 0 01.251-.234c.108-.06.24-.09.396-.091.336-.001.565.148.685.448.133.287.158.647.075 1.079a9.38 9.38 0 01-.232.973c-.107.36-.221.733-.34 1.117-.119.384-.226.751-.321 1.099s-.167.643-.214.883a5.5 5.5 0 00-.106 1.188c.013.336.11.6.29.791.193.18.499.269.919.268a2.917 2.917 0 001.097-.238 4.463 4.463 0 001.079-.633c.335-.265.611-.559.826-.884.215-.337.328-.673.34-1.009-.001-.156-.091-.276-.271-.359-.168-.096-.45-.143-.846-.142-.444.001-.894.033-1.35.094a18.168 18.168 0 00-2.357.475.545.545 0 01-.306-.053.526.526 0 01-.199-.198.463.463 0 01-.018-.288.872.872 0 01.161-.432.852.852 0 01.431-.271c.252-.097.546-.188.881-.273a13.437 13.437 0 012.231-.42c.372-.049.72-.074 1.044-.075.588-.002 1.038.075 1.351.23.324.155.547.37.667.646.121.276.17.594.146.954-.022.516-.189 1.026-.5 1.531a5.744 5.744 0 01-1.221 1.389 6.202 6.202 0 01-1.636 1.013 4.557 4.557 0 01-1.781.383zm7.177-.002c-.288.001-.504-.167-.649-.502-.145-.336-.152-.84-.022-1.512l.196-.883c.084-.372.197-.792.34-1.261.155-.48.345-.979.572-1.495.406-.914.771-1.635 1.094-2.164.322-.54.639-.931.951-1.172.311-.241.629-.362.953-.363.252 0 .444.1.577.304.144.204.247.45.307.738.061.287.11.575.146.863.049.384.11.81.183 1.278.085.467.176.941.273 1.421.109.48.23.935.363 1.367.145.431.308.797.489 1.096l-.648.146c.347-.685.717-1.37 1.112-2.055.394-.685.789-1.34 1.183-1.965.395-.625.766-1.184 1.112-1.677.383-.518.707-.884.97-1.101.276-.217.521-.326.737-.326.156 0 .3.035.433.107.132.059.246.131.342.215.132.131.235.293.307.485.073.191.085.479.038.864a32.988 32.988 0 00-.211 2.34 29.68 29.68 0 00-.014 1.728c.014.828.075 1.488.185 1.98.121.491.163.809.128.953a.543.543 0 01-.252.379.738.738 0 01-.485.163c-.288.001-.528-.136-.721-.412-.181-.275-.296-.647-.345-1.115a22.517 22.517 0 01-.111-1.637c-.014-.66.003-1.398.049-2.214.058-.829.152-1.681.282-2.557l.522-.128c-.287.421-.61.902-.969 1.443a217.73 217.73 0 00-1.076 1.659 88.401 88.401 0 00-1.04 1.713c-.323.565-.61 1.1-.861 1.605a1.732 1.732 0 01-.467.541.936.936 0 01-.593.2c-.288 0-.528-.065-.721-.196a1.905 1.905 0 01-.469-.575 6.755 6.755 0 01-.326-.827c-.048-.168-.115-.402-.199-.702-.085-.311-.17-.659-.255-1.043a25.978 25.978 0 01-.419-2.501 10.99 10.99 0 01-.075-1.205l.54-.146a19.863 19.863 0 00-1.076 1.731 13.25 13.25 0 00-.77 1.748 15.544 15.544 0 00-.518 1.91c-.095.468-.166.876-.213 1.224a9.274 9.274 0 01-.107.793 1.235 1.235 0 01-.251.522c-.119.145-.293.217-.521.218zm17.068-.067c-.996.003-1.77-.175-2.323-.533a2.553 2.553 0 01-1.084-1.491c-.169-.635-.177-1.349-.022-2.142a6.67 6.67 0 01.68-1.766 7.434 7.434 0 011.238-1.641 6.116 6.116 0 011.671-1.175 4.475 4.475 0 011.961-.456c.948-.002 1.645.224 2.09.678.457.455.596 1.127.418 2.015a3.037 3.037 0 01-.878 1.677c-.467.445-1.048.789-1.744 1.031a6.632 6.632 0 01-2.213.366c-.816.002-1.362-.092-1.638-.283-.265-.192-.373-.407-.326-.647.024-.145.078-.247.161-.307.084-.072.216-.109.396-.109.132 0 .288.023.468.071.192.035.475.052.847.051a4.875 4.875 0 001.619-.256c.492-.17.893-.399 1.204-.688.312-.301.509-.643.592-1.027.071-.361.023-.631-.146-.81-.156-.18-.468-.269-.936-.267-.612.001-1.194.183-1.745.545a5.222 5.222 0 00-1.437 1.426 5.123 5.123 0 00-.788 1.928 3.057 3.057 0 00-.015 1.188c.073.348.253.635.542.862.3.216.727.322 1.279.321.624-.002 1.158-.082 1.601-.239a5.143 5.143 0 001.151-.579c.311-.217.575-.404.791-.56.215-.157.407-.235.575-.236.204-.001.348.077.433.233.096.144.12.335.073.576-.048.24-.209.492-.484.757a4.648 4.648 0 01-1.043.723 6.747 6.747 0 01-1.403.562 6.144 6.144 0 01-1.565.202zm7.478-.003a.74.74 0 01-.667-.376c-.156-.251-.253-.599-.29-1.043-.025-.456.022-.99.14-1.603.143-.636.304-1.116.483-1.441.191-.336.407-.565.647-.686.131-.072.317-.115.557-.127.24-.025.492-.038.756-.038.876-.003 1.74-.047 2.592-.134a13.1 13.1 0 002.537-.547l.326 1.241a10.32 10.32 0 01-2.014.546c-.72.122-1.452.208-2.196.258-.732.038-1.446.058-2.142.06l-1.044-.159c.154-.708.315-1.453.481-2.233.166-.781.309-1.477.427-2.09.048-.288.143-.522.287-.702.143-.18.305-.271.485-.272.3 0 .523.119.667.358.145.228.163.594.056 1.098a13.57 13.57 0 01-.213.955l-.304 1.171c-.095.408-.19.798-.285 1.171-.083.36-.149.66-.196.9a25.673 25.673 0 00-.32 1.873c-.059.54-.112.948-.159 1.224a.757.757 0 01-.233.415.496.496 0 01-.378.181zm6.21-.017c-.3 0-.516-.173-.649-.521-.121-.347-.176-.821-.165-1.421.022-.612.105-1.284.247-2.017a53.69 53.69 0 01.624-2.738c.191-.684.363-1.225.519-1.621.095-.264.214-.499.358-.703.143-.204.317-.307.521-.308.264 0 .451.125.559.377.121.239.145.533.074.882-.083.432-.214.9-.393 1.405a12.11 12.11 0 00-.41 1.639c-.143.72-.243 1.375-.302 1.963a30.365 30.365 0 00-.087 1.458c-.011.396-.04.69-.088.882a.84.84 0 01-.808.723zm4.636-.014a.739.739 0 01-.667-.376c-.157-.251-.253-.599-.29-1.043-.025-.456.021-.99.14-1.602.095-.421.196-.775.304-1.063a2.93 2.93 0 01.376-.685c.144-.181.293-.307.449-.379.132-.073.318-.115.558-.128.24-.025.492-.037.756-.038.876-.003 1.74-.047 2.592-.134.863-.098 1.709-.28 2.536-.547l.327 1.241a10.31 10.31 0 01-2.015.546 21.89 21.89 0 01-2.195.258c-.732.038-1.446.058-2.142.06l-1.044-.159a121.387 121.387 0 00.623-2.971c.107-.493.202-.943.285-1.351a1.49 1.49 0 01.287-.703c.143-.18.305-.271.485-.272.3 0 .522.119.667.359.144.227.163.593.056 1.097-.047.265-.119.583-.214.955s-.196.763-.303 1.171c-.095.408-.19.798-.286 1.171-.083.36-.148.66-.196.9a25.716 25.716 0 00-.319 1.873c-.059.54-.112.949-.16 1.225a.746.746 0 01-.233.414.489.489 0 01-.377.181zm6.21-.017c-.3.001-.517-.173-.649-.52-.121-.348-.176-.822-.166-1.422.023-.612.106-1.284.248-2.017.237-1.152.445-2.065.624-2.737.19-.685.363-1.225.518-1.622.096-.264.215-.498.359-.703.143-.204.317-.307.521-.307.264-.001.45.124.559.376.12.24.145.534.074.882-.083.432-.214.9-.393 1.405a11.963 11.963 0 00-.41 1.639 20.887 20.887 0 00-.302 1.963 27.962 27.962 0 00-.087 1.458c-.011.396-.04.69-.088.882a.834.834 0 01-.287.523.786.786 0 01-.521.2zm5.451-.034c-.552.002-1.002-.129-1.351-.392-.336-.263-.571-.628-.704-1.096-.121-.468-.122-1.008-.004-1.62a6.614 6.614 0 01.59-1.73 8.883 8.883 0 011.095-1.659 8.66 8.66 0 011.419-1.39 6.785 6.785 0 011.654-.958 4.841 4.841 0 011.763-.347c.276-.001.492.07.648.214.157.143.205.359.146.647a.69.69 0 01-.197.379c-.108.096-.264.157-.468.181a5.61 5.61 0 00-2.338.907 6.856 6.856 0 00-1.778 1.751 5.75 5.75 0 00-.931 2.127 4.658 4.658 0 00-.106.954c0 .276.061.636.182 1.079l-.687-1.24c.217.276.409.455.578.539.18.083.432.124.756.124.768-.003 1.547-.497 2.337-1.483.789-.986 1.518-2.422 2.186-4.308a1.19 1.19 0 01.341-.523.809.809 0 01.539-.2.692.692 0 01.631.358c.157.228.223.522.2.882-.046.756-.069 1.44-.067 2.052.013.6.08 1.164.201 1.691a6.5 6.5 0 00.688 1.637.679.679 0 01.091.413.886.886 0 01-.125.451.992.992 0 01-.305.361.742.742 0 01-.432.127.768.768 0 01-.432-.107.94.94 0 01-.253-.305 8.27 8.27 0 01-.452-.989 7.037 7.037 0 01-.327-1.187 9.211 9.211 0 01-.093-1.602c.01-.612.069-1.338.175-2.178l.648-.02c-.513 1.585-1.11 2.853-1.792 3.803-.67.95-1.358 1.63-2.065 2.04-.707.41-1.361.616-1.961.617zm15.59-.026a.73.73 0 01-.703-.43c-.132-.3-.205-.665-.218-1.097-.001-.216.005-.462.016-.738.012-.276.035-.558.07-.847.048-.288.089-.552.125-.792l.178-.81.25-.991c.095-.348.178-.667.249-.955.084-.3.143-.528.179-.684.024-.156-.013-.27-.109-.342-.096-.084-.264-.125-.504-.125a6.378 6.378 0 00-.63.038c-.228.025-.474.062-.738.11a5.642 5.642 0 00-1.636.581c-.468.253-.731.542-.791.866-.059.276-.028.528.092.756.133.216.391.389.775.52.397.131.967.195 1.711.193.264-.001.528-.008.792-.02.264-.013.516-.032.756-.057.252-.036.461-.061.629-.073.168-.025.276-.037.324-.037.3-.001.552.016.756.052.205.035.283.161.235.377-.035.24-.167.432-.394.577-.216.145-.504.247-.864.309a7.265 7.265 0 01-1.224.093l-1.854.005a4.875 4.875 0 01-1.8-.319c-.541-.214-.955-.519-1.244-.914-.277-.395-.368-.857-.273-1.385.071-.325.226-.661.465-1.01.252-.36.611-.697 1.078-1.011.479-.313 1.103-.567 1.87-.761a9.213 9.213 0 011.386-.274c.372-.037.744-.056 1.116-.057.468-.002.834.063 1.098.195.264.131.445.31.541.538.109.228.133.492.074.792a9.428 9.428 0 01-.232.919c-.107.348-.214.708-.321 1.081-.096.36-.179.684-.25.972a14.4 14.4 0 00-.16.937c-.047.324-.083.642-.106.954-.023.312-.035.582-.034.81 0 .264.007.546.02.846.024.288.025.486.001.594a.708.708 0 01-.233.433.674.674 0 01-.468.181zm-6.336 0c-.216.001-.384-.071-.504-.214-.109-.156-.145-.33-.109-.522.035-.132.125-.265.269-.397.143-.144.383-.301.719-.47a9.475 9.475 0 001.707-1.121 21.83 21.83 0 001.725-1.535l1.135.645a19.964 19.964 0 01-2.73 2.474 9.386 9.386 0 01-1.258.831c-.384.205-.702.308-.954.309zM93.42 125.474c-.408.001-.732-.094-.972-.285a1.686 1.686 0 01-.506-.755 3.278 3.278 0 01-.164-1.043c.01-.385.052-.757.123-1.117.071-.312.166-.684.285-1.117.132-.432.275-.882.43-1.351.154-.468.303-.907.447-1.315.155-.409.28-.727.376-.955.155-.421.292-.745.411-.973.132-.229.288-.343.468-.344.156 0 .3.053.432.161a.926.926 0 01.289.413c.072.168.09.354.055.558a5.69 5.69 0 01-.25.829c-.131.36-.28.763-.447 1.207-.167.445-.328.895-.483 1.351a9.061 9.061 0 00-.34 1.207 6.852 6.852 0 00-.142.937 2.25 2.25 0 00.038.72c.048.18.15.269.307.269.384-.001.869-.345 1.455-1.03.599-.686 1.263-1.63 1.992-2.832.335-.529.628-1.022.879-1.478.25-.457.472-.854.663-1.19.191-.349.377-.619.556-.812.18-.192.36-.289.54-.289.276-.001.474.106.594.322.133.204.193.479.182.827.001.312-.01.696-.033 1.152l-.033 1.405c-.011.468-.01.906.003 1.314.037.695.105 1.265.202 1.709.109.432.205.779.29 1.043.084.264.121.48.109.648a.868.868 0 01-.125.378.964.964 0 01-.269.271.636.636 0 01-.36.109c-.42.001-.72-.274-.902-.825-.181-.552-.32-1.29-.419-2.213-.025-.432-.05-.894-.075-1.386a30.263 30.263 0 01-.003-1.476c.023-.492.046-.948.069-1.368l.522.178c-.203.421-.442.884-.717 1.388a46.206 46.206 0 01-1.13 1.93 18.596 18.596 0 01-1.327 1.857 8.246 8.246 0 01-1.491 1.427c-.503.361-1.013.542-1.529.544zm19.139-.036a1.855 1.855 0 01-1.315-.501c-.349-.335-.62-.79-.813-1.365-.194-.576-.303-1.236-.329-1.979a10.57 10.57 0 01.229-2.323c.095-.48.19-.925.285-1.333.107-.408.226-.811.357-1.207.131-.396.281-.823.447-1.279.179-.469.388-1.003.627-1.604.083-.216.185-.361.305-.433a.8.8 0 01.468-.127c.144-.001.27.065.378.197.108.119.169.287.181.503.025.216-.017.462-.124.739a72.861 72.861 0 00-.608 1.675c-.155.481-.292.943-.411 1.387-.107.445-.214.925-.321 1.441a13.955 13.955 0 00-.248 1.819 7.135 7.135 0 00.075 1.476c.073.42.182.749.326.989.157.228.355.341.595.34.36-.001.738-.068 1.134-.201.395-.145.767-.32 1.115-.525.359-.217.665-.458.916-.723.251-.264.395-.523.43-.775.036-.18-.049-.366-.253-.557-.192-.204-.487-.389-.883-.556a7.302 7.302 0 00-1.405-.41 7.882 7.882 0 00-1.728-.139c-.336.013-.601-.04-.793-.16-.18-.119-.241-.329-.181-.629.047-.192.179-.343.395-.451.216-.121.581-.236 1.097-.345.444-.086.9-.201 1.367-.346.48-.146.942-.303 1.385-.472.456-.169.869-.351 1.241-.544.372-.193.677-.392.917-.596.239-.205.377-.397.412-.577a.846.846 0 00-.235-.756c-.193-.227-.487-.418-.884-.573a6.223 6.223 0 00-1.386-.356 11.165 11.165 0 00-1.729-.121c-.432.001-.852.008-1.26.021l-.882.003a.531.531 0 01-.414-.179.537.537 0 01-.109-.468c.059-.312.293-.559.7-.74.408-.181.972-.273 1.692-.275.96-.002 1.842.067 2.646.209.816.142 1.507.362 2.072.66.564.298.979.675 1.244 1.13.265.444.332.972.202 1.584-.071.36-.311.733-.718 1.118-.395.385-1.006.765-1.833 1.139s-1.907.726-3.238 1.053l.035-.504c.9.082 1.632.236 2.197.462.576.214 1.009.465 1.298.752.3.287.493.593.578.917.096.311.115.617.056.918-.095.504-.328.972-.699 1.406a5.35 5.35 0 01-1.33 1.137 7.968 7.968 0 01-1.654.779 5.326 5.326 0 01-1.619.275zm11.067-.068c-.744.002-1.368-.098-1.873-.301-.492-.214-.871-.507-1.136-.878a3.084 3.084 0 01-.507-1.331 5.267 5.267 0 01.087-1.656 6.67 6.67 0 01.68-1.766 7.463 7.463 0 011.238-1.642 6.113 6.113 0 011.671-1.174 4.476 4.476 0 011.961-.456c.636-.002 1.159.099 1.567.302.42.202.709.502.866.897.169.396.194.894.075 1.494a3.06 3.06 0 01-.591 1.316 3.855 3.855 0 01-1.096.957 5.92 5.92 0 01-1.456.598 7.004 7.004 0 01-1.692.203c-.816.002-1.362-.092-1.638-.284-.265-.191-.373-.407-.326-.647.024-.144.078-.246.161-.306.084-.072.216-.109.396-.109.132-.001.288.023.468.07.192.036.474.053.846.052.6-.002 1.14-.087 1.62-.257.491-.169.893-.398 1.204-.687.312-.301.509-.643.592-1.028.071-.36.023-.63-.146-.809-.156-.18-.468-.269-.936-.268a3 3 0 00-1.35.328 4.612 4.612 0 00-1.186.85 5.292 5.292 0 00-1.434 2.722 3.057 3.057 0 00-.015 1.188c.073.347.253.635.542.862.3.215.727.322 1.279.321.624-.002 1.157-.082 1.601-.239a5.143 5.143 0 001.151-.579c.311-.217.575-.404.791-.561.215-.156.407-.235.575-.235.204-.001.348.077.433.233.096.143.12.335.073.575-.048.241-.209.493-.485.758-.263.253-.61.494-1.042.723a6.747 6.747 0 01-1.403.562 6.144 6.144 0 01-1.565.202zm10.43-.119c-.576.001-1.08-.075-1.513-.23-.432-.155-.763-.358-.991-.609-.229-.252-.319-.515-.272-.792a.88.88 0 01.197-.378.482.482 0 01.378-.163.59.59 0 01.324.089l.343.215c.132.084.324.161.576.232.252.06.594.089 1.026.087.672-.002 1.254-.165 1.745-.491.503-.337.826-.908.968-1.712.119-.565.124-1.075.015-1.53a2.725 2.725 0 00-.561-1.205 2.612 2.612 0 00-1.063-.789c-.433-.179-.925-.267-1.477-.266a4.15 4.15 0 00-.846.093c-.288.061-.54.091-.756.092a.728.728 0 01-.36-.089.52.52 0 01-.217-.287.734.734 0 01-.018-.36c.071-.325.286-.571.646-.74.372-.181.935-.273 1.691-.275.804-.002 1.519.134 2.143.408a4.05 4.05 0 011.569 1.165c.409.491.686 1.085.832 1.78.157.684.153 1.446-.013 2.286a4.23 4.23 0 01-.573 1.478 4.092 4.092 0 01-.969 1.101 4.42 4.42 0 01-1.295.669 5.286 5.286 0 01-1.529.221zm-4.22 4.62a.673.673 0 01-.378-.107.468.468 0 01-.199-.288 1.02 1.02 0 01-.001-.468c.036-.18.101-.348.197-.504.084-.145.179-.325.287-.541.107-.204.221-.469.34-.793a9.04 9.04 0 00.339-1.279 13.99 13.99 0 00.282-2.629c.01-.876.014-1.764.012-2.664.01-.912.098-1.824.264-2.737.06-.3.161-.522.305-.667a.759.759 0 01.557-.235.603.603 0 01.469.197.933.933 0 01.271.503c.048.204.043.432-.017.684-.142.72-.231 1.404-.265 2.053a49.54 49.54 0 00-.032 1.872c.013.612.009 1.224-.014 1.836a11.65 11.65 0 01-.23 1.89 12.343 12.343 0 01-.392 1.603 6.604 6.604 0 01-.519 1.226c-.18.336-.377.595-.593.776-.203.18-.431.271-.683.272zm12.508-4.554c-.552.002-1.003-.129-1.351-.392-.337-.263-.572-.628-.705-1.096-.121-.468-.122-1.008-.003-1.62a6.541 6.541 0 01.59-1.73 8.813 8.813 0 011.094-1.659 8.66 8.66 0 011.419-1.39 6.822 6.822 0 011.654-.959 4.868 4.868 0 011.763-.347c.276 0 .492.071.649.215.156.143.204.359.145.647a.688.688 0 01-.197.379c-.108.096-.264.156-.468.181a5.602 5.602 0 00-2.338.907 6.855 6.855 0 00-1.778 1.751 5.77 5.77 0 00-.931 2.126 4.746 4.746 0 00-.106.955c.001.276.062.635.182 1.079l-.686-1.24c.216.275.409.455.577.538.18.084.432.125.756.124.768-.002 1.547-.496 2.337-1.482.79-.987 1.519-2.423 2.186-4.309a1.21 1.21 0 01.341-.523.817.817 0 01.54-.199.693.693 0 01.631.358c.156.228.223.522.199.882a33.15 33.15 0 00-.067 2.052c.013.6.081 1.164.202 1.691.133.528.362 1.073.687 1.636.073.12.103.258.091.414a.87.87 0 01-.125.45.966.966 0 01-.305.361.728.728 0 01-.432.127.768.768 0 01-.432-.106.932.932 0 01-.252-.306 8.258 8.258 0 01-.453-.988 7.163 7.163 0 01-.326-1.187 9.203 9.203 0 01-.094-1.602c.011-.612.069-1.338.175-2.179l.648-.019c-.393 1.201-.829 2.216-1.307 3.045-.478.818-.981 1.479-1.508 1.985-.514.493-1.03.854-1.545 1.084-.516.229-1.001.345-1.457.346zm21.634-.151c-1.344.004-2.436-.071-3.277-.225-.828-.166-1.447-.422-1.855-.769a2.19 2.19 0 01-.759-1.312c-.086-.539-.057-1.181.085-1.926.095-.456.208-.978.339-1.567.131-.588.273-1.189.428-1.801.154-.624.303-1.219.446-1.783.143-.565.274-1.063.393-1.495.119-.433.214-.745.285-.937.096-.361.209-.619.341-.775.143-.169.305-.253.485-.254.204 0 .366.065.487.197.12.12.198.281.235.485.036.192.031.39-.017.594-.036.205-.119.541-.25 1.009-.131.457-.28.997-.446 1.621-.155.625-.321 1.303-.5 2.036-.166.72-.32 1.453-.463 2.197-.178.889-.242 1.525-.193 1.909.06.384.223.653.487.808.229.132.535.239.919.322.384.071.828.123 1.332.158.516.022 1.08.033 1.692.031 1.272-.003 2.31-.03 3.114-.081.816-.062 1.458-.166 1.926-.311.467-.157.809-.386 1.024-.687.12-.144.245-.379.377-.703.131-.337.256-.727.375-1.171.131-.445.244-.913.339-1.405.142-.709.255-1.399.337-2.071.083-.672.147-1.291.194-1.855.047-.564.088-1.044.123-1.44.035-.396.064-.666.088-.81.036-.12.095-.247.179-.379.096-.132.21-.24.341-.325a.79.79 0 01.432-.127c.204-.001.372.095.505.287.144.179.211.413.199.701.001.204-.022.534-.069.99-.047.444-.106.955-.177 1.531a32.364 32.364 0 01-.23 1.764 37.503 37.503 0 01-.266 1.639c-.083.408-.167.799-.25 1.171-.083.372-.172.726-.267 1.063l-.268.9a4.756 4.756 0 01-.269.685c-.227.481-.568.86-1.023 1.137-.456.277-1.013.489-1.673.635-.66.134-1.433.22-2.321.258a53.43 53.43 0 01-2.934.081zm-.056-.918c.022-.624.087-1.356.193-2.197a38.27 38.27 0 01.498-2.773c.107-.492.225-1.009.356-1.549.131-.541.256-1.063.375-1.567l.321-1.387c.107-.42.19-.757.249-1.009.048-.24.107-.45.179-.63.072-.193.161-.343.269-.451a.514.514 0 01.396-.181.602.602 0 01.468.196c.12.132.199.318.235.558.037.228.025.486-.034.774-.13.684-.315 1.489-.553 2.413-.238.925-.463 1.88-.677 2.864a38.956 38.956 0 00-.48 2.63c-.107.816-.177 1.53-.212 2.142l-1.583.167zm12.734.972c-.552.001-1.002-.129-1.351-.392-.336-.263-.571-.629-.704-1.096-.121-.468-.123-1.008-.004-1.62a6.565 6.565 0 01.59-1.73 8.819 8.819 0 011.095-1.659c.43-.529.903-.993 1.418-1.39a6.808 6.808 0 011.654-.959 4.856 4.856 0 011.764-.347c.276-.001.492.071.648.214.156.144.205.36.145.648a.675.675 0 01-.197.378c-.108.097-.263.157-.467.182a5.595 5.595 0 00-2.338.906 6.856 6.856 0 00-1.778 1.751 5.784 5.784 0 00-.932 2.127 4.802 4.802 0 00-.106.954c.001.276.062.636.183 1.08l-.687-1.24c.217.275.409.455.577.538.18.084.433.125.757.124.768-.002 1.546-.496 2.336-1.483.79-.986 1.519-2.422 2.187-4.308.083-.228.197-.402.341-.523a.808.808 0 01.539-.199.691.691 0 01.631.358c.156.227.223.521.2.881-.046.756-.069 1.44-.068 2.052.014.6.081 1.164.202 1.692.133.528.363 1.073.688 1.636a.69.69 0 01.091.414.89.89 0 01-.125.45.993.993 0 01-.305.361.735.735 0 01-.432.127.76.76 0 01-.432-.107.907.907 0 01-.253-.305 8.046 8.046 0 01-.452-.989 7.01 7.01 0 01-.327-1.187 9.29 9.29 0 01-.094-1.601c.011-.612.07-1.339.176-2.179l.648-.02c-.394 1.201-.829 2.217-1.308 3.046-.478.817-.98 1.479-1.507 1.984-.515.494-1.03.855-1.546 1.085-.515.229-1.001.344-1.457.346zm9.221-7.298c-.276 0-.492-.083-.649-.251a.629.629 0 01-.145-.575.697.697 0 01.215-.343c.108-.096.3-.181.576-.253.431-.122 1.007-.231 1.727-.329a19.962 19.962 0 012.556-.152c.504-.001.966.01 1.386.032.432.011.906.052 1.422.122.408.047.72.142.937.286.228.143.324.305.289.485a.817.817 0 01-.162.36.74.74 0 01-.323.235 1.22 1.22 0 01-.504.092c-.252 0-.546-.011-.882-.034a127.42 127.42 0 00-1.08-.069 11.666 11.666 0 00-1.152-.05c-.828.002-1.494.04-1.998.113-.504.062-.924.135-1.259.22-.336.073-.654.11-.954.111zm2.626 7.3a.652.652 0 01-.595-.322 2.41 2.41 0 01-.253-.827 7.115 7.115 0 01-.003-1.026c.035-.445.094-.925.177-1.441.083-.528.172-1.038.267-1.531.13-.66.243-1.242.338-1.747.107-.516.19-.942.249-1.278l1.62-.113-.179.774c-.059.301-.124.643-.195 1.027-.072.372-.149.756-.232 1.153-.071.384-.142.756-.213 1.116a14.35 14.35 0 00-.231 1.513c-.023.396-.028.72-.016.972.013.252.025.462.038.63.012.156.006.3-.017.432a.947.947 0 01-.144.36.66.66 0 01-.269.217.695.695 0 01-.342.091zm7.085-.056c-.552.002-1.003-.129-1.351-.392-.337-.263-.572-.629-.705-1.096-.121-.468-.122-1.008-.003-1.62a6.541 6.541 0 01.59-1.73 8.765 8.765 0 011.094-1.659 8.62 8.62 0 011.419-1.39 6.822 6.822 0 011.654-.959 4.868 4.868 0 011.763-.347c.276 0 .492.071.649.214.156.144.204.36.145.648a.688.688 0 01-.197.379c-.108.096-.264.156-.468.181a5.602 5.602 0 00-2.338.907 6.855 6.855 0 00-1.778 1.751 5.77 5.77 0 00-.931 2.126 4.746 4.746 0 00-.106.955c.001.276.061.635.182 1.079l-.686-1.24c.216.275.409.455.577.538.18.084.432.125.756.124.768-.002 1.547-.496 2.337-1.482.79-.987 1.518-2.423 2.186-4.309a1.21 1.21 0 01.341-.523.812.812 0 01.54-.199.69.69 0 01.63.358c.157.228.224.521.2.882a33.15 33.15 0 00-.067 2.052c.013.6.081 1.164.202 1.691.133.528.362 1.073.687 1.636.073.12.103.258.091.414a.87.87 0 01-.125.45.966.966 0 01-.305.361.728.728 0 01-.432.127.768.768 0 01-.432-.106.946.946 0 01-.253-.306 8.414 8.414 0 01-.452-.988 7.067 7.067 0 01-.326-1.187 9.203 9.203 0 01-.094-1.602c.011-.612.069-1.338.175-2.179l.648-.02c-.393 1.202-.829 2.217-1.307 3.046-.478.818-.981 1.479-1.508 1.984-.515.494-1.03.855-1.545 1.085-.516.229-1.001.345-1.457.346zm8.857.011a.502.502 0 01-.396-.161.749.749 0 01-.163-.396 1.184 1.184 0 01.017-.54c.047-.216.161-.504.34-.865.191-.372.43-.787.717-1.244.287-.468.586-.937.897-1.406.335-.493.676-.98 1.023-1.461.359-.493.7-.932 1.023-1.317.323-.397.592-.71.808-.938.335-.337.652-.584.952-.741.312-.169.624-.254.936-.255.288 0 .486.101.594.305.109.191.193.437.254.737.061.312.115.678.164 1.098.049.419.104.851.165 1.295.061.432.134.852.219 1.259.097.504.188.936.273 1.296.097.359.187.665.272.917.096.252.187.467.271.647.085.156.151.294.199.414a.789.789 0 01.055.377 1.046 1.046 0 01-.143.451.847.847 0 01-.323.325.712.712 0 01-.414.127c-.228.001-.432-.107-.613-.322-.168-.228-.319-.533-.452-.917a14.321 14.321 0 01-.362-1.241c-.061-.276-.14-.642-.237-1.097-.085-.468-.17-.972-.255-1.512a49.187 49.187 0 01-.22-1.583c-.049-.504-.08-.924-.093-1.26l.361.143c-.336.313-.701.71-1.096 1.191-.383.469-.783.993-1.202 1.57a42.754 42.754 0 00-1.202 1.803c-.383.625-.735 1.25-1.058 1.875-.263.469-.49.824-.682 1.064-.179.241-.389.361-.629.362zm14.203-.04c-.984.002-1.795-.211-2.432-.642a3.323 3.323 0 01-1.299-1.742c-.23-.743-.256-1.589-.078-2.538a5.01 5.01 0 01.68-1.766c.335-.517.706-.95 1.113-1.299a4.777 4.777 0 011.258-.777c.42-.181.78-.272 1.08-.273a.813.813 0 01.324.053.396.396 0 01.216.179c.06.072.079.174.055.306-.059.24-.155.462-.287.667-.131.192-.377.367-.736.524a5.051 5.051 0 00-1.097.687 2.973 2.973 0 00-.7.848 3.325 3.325 0 00-.375 1.135c-.19.973-.075 1.752.347 2.339.421.575 1.064.861 1.928.859.84-.003 1.571-.305 2.194-.907.634-.613 1.047-1.425 1.236-2.433.19-.925.129-1.645-.185-2.16-.313-.527-.829-.789-1.549-.787-.372.001-.69.074-.954.218a6.698 6.698 0 00-.827.579c-.215.18-.389.343-.52.487a2.966 2.966 0 01-.36.343.605.605 0 01-.377.109.503.503 0 01-.397-.16c-.084-.12-.102-.306-.055-.558.047-.276.185-.559.412-.847.239-.289.527-.554.862-.795a4.546 4.546 0 011.115-.597 3.177 3.177 0 011.169-.237c.864-.003 1.567.199 2.108.606.541.394.908.945 1.102 1.652.193.696.195 1.5.005 2.412-.166.901-.488 1.694-.967 2.379a5.105 5.105 0 01-1.76 1.571 4.646 4.646 0 01-2.249.565zm9.458.045c-.612.002-1.11-.123-1.495-.374a2.314 2.314 0 01-.83-.97 3.948 3.948 0 01-.291-1.313c-.013-.48.022-.948.105-1.404.107-.504.262-1.051.464-1.639.215-.589.454-1.154.717-1.694a8.52 8.52 0 01.789-1.371c.107-.156.227-.282.359-.379.143-.096.293-.163.449-.199.156-.048.312-.073.468-.073.144-.001.246.047.306.143.061.084.073.204.037.36-.035.18-.137.408-.304.685-.156.276-.347.613-.574 1.009-.215.397-.43.871-.645 1.424a10.804 10.804 0 00-.536 1.91c-.154.768-.135 1.38.058 1.835.194.456.596.683 1.208.681a2.914 2.914 0 001.367-.364 4.054 4.054 0 001.204-.975c.359-.421.598-.89.717-1.406l.199.341a4.757 4.757 0 00-1.081-.267 10.762 10.762 0 00-1.314-.14 9.992 9.992 0 00-1.35-.014 8.35 8.35 0 00-1.188.111l.231-1.189a8.186 8.186 0 001.764-.221 6.81 6.81 0 001.493-.562c.443-.229.803-.47 1.078-.723.275-.265.431-.511.466-.739.036-.168-.006-.3-.127-.396-.12-.108-.312-.161-.576-.16-.324.001-.666.05-1.026.147-.347.097-.719.218-1.115.363-.395.145-.815.296-1.259.453-.18.049-.33.025-.45-.07a.341.341 0 01-.109-.36c.036-.168.15-.324.341-.469.204-.157.396-.271.575-.344.732-.386 1.409-.652 2.033-.797a7.397 7.397 0 011.763-.239c.432-.002.786.063 1.063.195.288.131.492.31.613.538.132.227.169.485.11.774a2.43 2.43 0 01-.538 1.099 5.157 5.157 0 01-1.096.975 7.568 7.568 0 01-1.42.742 8.082 8.082 0 01-1.619.455l.088-.684a16.757 16.757 0 011.566-.005c.492.023.924.075 1.297.158.372.083.654.221.847.412.204.179.3.419.289.719-.023.48-.19.961-.501 1.442-.299.469-.7.896-1.203 1.281a6.692 6.692 0 01-1.636.941 4.913 4.913 0 01-1.781.347zm8.895-.133c-.552.001-1.002-.13-1.35-.393-.337-.263-.572-.628-.705-1.096-.121-.467-.122-1.007-.003-1.62a6.523 6.523 0 01.59-1.729 8.765 8.765 0 011.094-1.659 8.58 8.58 0 011.419-1.39 6.757 6.757 0 011.654-.959 4.847 4.847 0 011.763-.347c.276-.001.492.07.648.214.157.144.205.359.146.648a.688.688 0 01-.197.378c-.108.096-.264.157-.468.181a5.61 5.61 0 00-2.338.907 6.871 6.871 0 00-1.778 1.751 5.767 5.767 0 00-.931 2.127 4.729 4.729 0 00-.106.954c.001.276.061.636.182 1.08l-.686-1.24c.216.275.409.454.577.538.18.083.432.125.756.124.768-.002 1.547-.497 2.337-1.483.79-.986 1.518-2.422 2.186-4.308.084-.228.197-.403.341-.523a.818.818 0 01.54-.2c.276 0 .486.119.63.359.157.227.223.521.2.881-.046.756-.069 1.44-.067 2.052.013.6.08 1.164.202 1.692.133.527.362 1.073.687 1.636.073.12.103.257.091.413a.873.873 0 01-.125.451.982.982 0 01-.305.361.742.742 0 01-.432.127.768.768 0 01-.432-.107.942.942 0 01-.253-.305 8.43 8.43 0 01-.452-.989 7.014 7.014 0 01-.326-1.187 9.203 9.203 0 01-.094-1.602 20.7 20.7 0 01.175-2.178l.648-.02c-.393 1.201-.829 2.216-1.307 3.046-.478.817-.981 1.479-1.508 1.984-.515.493-1.03.855-1.545 1.084-.516.23-1.002.345-1.458.347zM24.17 142.121a1 1 0 001.398-.207l5.362-7.229a1 1 0 10-1.607-1.191l-4.766 6.425-6.425-4.766a1 1 0 10-1.192 1.607l7.23 5.361zm45.269-74.587c-8.468 9-15.781 13.704-21.969 15.979l.69 1.877c6.553-2.41 14.116-7.325 22.735-16.485l-1.456-1.37zM47.47 83.513c-7.25 2.665-13.051 2.031-17.52.926-2.32-.574-4.097-1.217-5.823-1.694-.82-.227-1.605-.406-2.328-.467-.725-.06-1.457-.008-2.128.296-1.421.643-2.07 2.152-2.331 4.238-.266 2.123-.177 5.202.224 9.54.804 8.697 2.9 22.776 6.212 45.113l1.978-.293c-3.317-22.371-5.4-36.377-6.199-45.004-.4-4.324-.468-7.217-.23-9.108.24-1.928.754-2.476 1.17-2.664.248-.112.603-.17 1.137-.125.535.045 1.179.185 1.962.402 1.477.408 3.594 1.143 5.876 1.707 4.733 1.171 10.961 1.851 18.69-.99l-.69-1.877zm21.734-15.716c-8.32 9.03-15.559 13.606-21.712 15.708l.647 1.892c6.55-2.237 14.056-7.042 22.535-16.245l-1.47-1.355zM47.492 83.505c-7.014 2.396-12.726 1.616-17.204.389-2.313-.634-4.132-1.331-5.882-1.863-.836-.254-1.637-.461-2.377-.554-.738-.093-1.482-.081-2.174.164-1.499.53-2.26 1.946-2.603 3.972-.344 2.034-.327 4.999.007 9.18.67 8.385 2.652 22.018 5.925 43.69l1.978-.299c-3.278-21.703-5.246-35.252-5.91-43.55-.332-4.163-.328-6.916-.028-8.688.3-1.78.839-2.257 1.298-2.42.288-.102.687-.136 1.258-.065.57.072 1.242.24 2.045.484 1.527.464 3.646 1.25 5.935 1.878 4.725 1.294 10.868 2.14 18.379-.425l-.647-1.893z" fill="#FFFCFF"/></svg>