<svg width="226" height="71" fill="none" xmlns="http://www.w3.org/2000/svg"><path d="M4.566 11.74c-.8.003-1.488-.13-2.062-.4a3.426 3.426 0 01-1.333-1.135 3.97 3.97 0 01-.637-1.626 5.785 5.785 0 01.061-1.92 7.42 7.42 0 01.678-1.956A7.775 7.775 0 012.324 3.17 7.84 7.84 0 013.49 2.06a7.031 7.031 0 011.038-.67c.302-.153.519-.23.649-.23a.84.84 0 01.292.048c.086.033.157.12.211.26.12.238.104.45-.047.635a2.27 2.27 0 01-.616.506c-.356.218-.74.518-1.15.899-.4.38-.767.848-1.1 1.403-.324.554-.566 1.206-.727 1.955-.118.619-.111 1.194.02 1.725a2.3 2.3 0 00.863 1.283c.444.313 1.061.469 1.851.467a3.848 3.848 0 001.769-.445 4.63 4.63 0 001.49-1.274 4.445 4.445 0 00.856-1.939 8.85 8.85 0 00.142-1.905 5.413 5.413 0 00-.312-1.691c-.185-.51-.462-.916-.83-1.219-.358-.302-.808-.453-1.349-.451a.678.678 0 00-.567.278c-.13.174-.221.397-.274.668a.949.949 0 01-.275.538.69.69 0 01-.454.18.633.633 0 01-.374-.112.68.68 0 01-.244-.342 1.108 1.108 0 01-.018-.57A2.635 2.635 0 015.597.298 2.404 2.404 0 016.797 0c.736-.002 1.37.186 1.9.564.531.378.944.892 1.237 1.543.305.639.49 1.37.557 2.195a8.718 8.718 0 01-.157 2.572 6.092 6.092 0 01-2.054 3.521 5.899 5.899 0 01-1.718.998 5.805 5.805 0 01-1.996.348zm10.561-.046c-.801.002-1.461-.153-1.982-.467a2.6 2.6 0 01-1.074-1.33c-.196-.575-.219-1.237-.069-1.986.129-.64.36-1.233.694-1.776a5.738 5.738 0 011.263-1.436 6.06 6.06 0 011.654-.965 5.09 5.09 0 011.833-.347c.281-.001.53.042.747.128a.85.85 0 01.471.356c.109.152.136.342.083.57a.949.949 0 01-.243.489.606.606 0 01-.421.164.494.494 0 01-.276-.065 3.61 3.61 0 00-.212-.13c-.065-.042-.178-.064-.34-.063a3.4 3.4 0 00-1.736.477c-.54.305-1 .708-1.377 1.208a3.965 3.965 0 00-.727 1.581c-.075.456-.063.852.035 1.188.109.325.304.58.586.763.292.184.65.275 1.072.274.476-.002.854-.057 1.135-.166.281-.12.503-.251.665-.393.173-.141.313-.267.421-.375a.492.492 0 01.373-.18c.206-.001.346.047.422.145.087.097.11.265.066.504a1.855 1.855 0 01-.55.962 3.05 3.05 0 01-1.102.638c-.432.153-.903.23-1.411.232zm5.76.016c-.39 0-.65-.248-.78-.747-.132-.499-.117-1.16.044-1.986.128-.575.273-1.01.435-1.303.172-.304.367-.51.583-.62.119-.065.286-.104.503-.115a6.71 6.71 0 01.681-.035 23.75 23.75 0 002.337-.12c.78-.09 1.542-.255 2.288-.496l.294 1.122a9.306 9.306 0 01-1.816.494c-.65.11-1.31.188-1.98.234a40.04 40.04 0 01-1.931.054l-.942-.144c.14-.64.284-1.313.434-2.019.15-.706.278-1.335.385-1.889.043-.26.13-.472.259-.635.129-.164.275-.245.437-.246.27 0 .471.107.602.324.13.206.147.537.05.992a12.42 12.42 0 01-.193.864c-.085.336-.177.69-.273 1.058-.086.37-.172.722-.258 1.059-.075.326-.134.597-.176.814a23.46 23.46 0 00-.289 1.694c-.053.488-.1.857-.143 1.107a.682.682 0 01-.21.375.446.446 0 01-.341.164zm5.6-.017c-.271 0-.466-.156-.586-.47-.109-.315-.158-.743-.149-1.285.02-.554.095-1.162.224-1.824a47.55 47.55 0 01.562-2.475 15.8 15.8 0 01.468-1.466c.086-.24.194-.451.323-.636.13-.185.286-.278.47-.278.238 0 .406.113.504.34.109.217.13.483.067.797a8.7 8.7 0 01-.355 1.27c-.15.457-.274.951-.37 1.483a19.112 19.112 0 00-.272 1.775c-.042.52-.068.96-.078 1.318-.01.358-.037.624-.08.798a.761.761 0 01-.729.653zm6.831-.003c-.887.002-1.618-.191-2.192-.58a3.004 3.004 0 01-1.172-1.575c-.207-.672-.23-1.437-.07-2.295.118-.608.322-1.14.613-1.597a5.391 5.391 0 011.004-1.174c.378-.316.756-.55 1.135-.704.378-.163.702-.246.973-.246a.76.76 0 01.292.047.363.363 0 01.195.163c.055.065.071.157.05.276-.054.217-.14.418-.259.603-.118.174-.34.332-.664.474a4.56 4.56 0 00-.989.621c-.26.218-.47.474-.631.767a3.01 3.01 0 00-.339 1.026c-.171.88-.067 1.585.313 2.115.38.52.96.779 1.738.776.758-.002 1.417-.275 1.979-.82.572-.554.944-1.288 1.115-2.2.171-.835.116-1.486-.167-1.952-.282-.477-.748-.714-1.397-.712a1.771 1.771 0 00-.86.198c-.227.13-.475.305-.745.523a4.92 4.92 0 00-.47.44 2.637 2.637 0 01-.324.31.553.553 0 01-.34.1.452.452 0 01-.358-.146c-.076-.108-.093-.276-.05-.504.043-.25.167-.505.372-.766a4.2 4.2 0 01.777-.719 4.094 4.094 0 011.005-.54 2.86 2.86 0 011.055-.214c.78-.003 1.413.18 1.9.547.488.357.82.855.994 1.495.174.629.176 1.355.004 2.18-.15.815-.44 1.532-.871 2.151a4.619 4.619 0 01-1.588 1.421 4.171 4.171 0 01-2.028.51zm8.529.04c-.552.001-1.001-.111-1.348-.338a2.088 2.088 0 01-.749-.877 3.582 3.582 0 01-.262-1.187c-.012-.434.02-.857.095-1.27.096-.456.236-.95.419-1.482a16.1 16.1 0 01.645-1.532c.237-.5.474-.913.712-1.239.097-.141.205-.255.324-.343.13-.087.265-.147.405-.18.14-.044.281-.066.422-.066.13 0 .222.043.276.13.054.075.066.184.033.325-.032.163-.123.369-.274.619-.14.25-.313.554-.518.913-.194.358-.388.788-.581 1.287a9.749 9.749 0 00-.483 1.727c-.14.695-.122 1.248.052 1.66.174.412.537.617 1.089.615.41-.001.822-.11 1.233-.33.41-.217.772-.511 1.085-.881.324-.38.54-.805.647-1.271l.179.308a4.248 4.248 0 00-.974-.241 9.654 9.654 0 00-1.186-.127 9.14 9.14 0 00-1.217-.013c-.4.013-.757.046-1.071.101l.209-1.075a7.424 7.424 0 001.59-.2 6.125 6.125 0 001.346-.508c.4-.207.724-.425.972-.654.249-.24.389-.462.42-.668.033-.152-.005-.271-.114-.358-.108-.097-.281-.146-.52-.145-.291 0-.6.045-.924.133a13.53 13.53 0 00-1.006.328c-.357.132-.735.268-1.135.41-.162.044-.297.023-.406-.063a.307.307 0 01-.098-.326c.032-.152.135-.293.307-.424a2.25 2.25 0 01.52-.31c.659-.35 1.27-.59 1.832-.722a6.694 6.694 0 011.59-.216c.39-.001.709.058.958.176.26.119.444.281.553.487.12.206.152.439.099.7a2.188 2.188 0 01-.485.994 4.653 4.653 0 01-.988.881 6.83 6.83 0 01-1.281.671 7.276 7.276 0 01-1.46.412l.08-.62a15.3 15.3 0 011.412-.003c.444.02.833.068 1.169.143.336.075.59.199.764.372.184.162.27.379.26.65-.02.434-.17.869-.45 1.303-.27.424-.632.81-1.086 1.16a6.018 6.018 0 01-1.475.85 4.402 4.402 0 01-1.606.314zm8.021-.121c-.498.001-.904-.117-1.218-.355-.304-.238-.515-.568-.635-.99-.11-.424-.11-.912-.004-1.466a5.953 5.953 0 01.533-1.564 7.961 7.961 0 01.987-1.5 7.782 7.782 0 011.279-1.257c.475-.37.972-.659 1.491-.867a4.363 4.363 0 011.59-.313c.25-.001.444.063.585.193.141.13.185.325.131.586a.619.619 0 01-.178.342c-.097.087-.237.142-.421.164-.758.11-1.46.384-2.108.82a6.194 6.194 0 00-1.604 1.583c-.42.609-.7 1.25-.84 1.923a4.3 4.3 0 00-.095.863c0 .25.055.575.164.976l-.62-1.121c.196.249.37.411.521.487.163.075.39.112.682.112.693-.002 1.395-.45 2.107-1.341.713-.892 1.37-2.19 1.972-3.896.076-.206.178-.364.308-.473.14-.12.302-.18.486-.18.249 0 .438.107.569.324.141.206.201.471.18.797a29.61 29.61 0 00-.06 1.855c.011.543.072 1.053.181 1.53.12.477.327.97.62 1.479a.619.619 0 01.082.374.799.799 0 01-.113.407.89.89 0 01-.275.326.66.66 0 01-.39.116.69.69 0 01-.389-.097.842.842 0 01-.228-.276 7.49 7.49 0 01-.407-.894 6.39 6.39 0 01-.295-1.073 8.377 8.377 0 01-.084-1.448c.01-.554.062-1.21.158-1.97l.584-.018c-.462 1.433-1 2.58-1.616 3.439-.604.859-1.225 1.473-1.862 1.844-.638.37-1.227.557-1.768.559zm8.315-6.599c-.25 0-.444-.075-.585-.227a.571.571 0 01-.131-.52.63.63 0 01.194-.31c.097-.087.27-.164.519-.23.39-.11.909-.208 1.557-.297.66-.089 1.429-.134 2.305-.137.454-.001.871.008 1.25.029.39.01.817.046 1.282.11.368.042.65.128.845.258.206.13.293.276.26.439a.74.74 0 01-.145.326.683.683 0 01-.291.212 1.1 1.1 0 01-.455.083c-.227 0-.492-.01-.795-.03-.303-.021-.628-.042-.974-.063a10.754 10.754 0 00-1.039-.046c-.747.003-1.347.037-1.801.103a9.342 9.342 0 00-1.136.199c-.303.066-.59.1-.86.1zm2.368 6.6a.586.586 0 01-.537-.291 2.181 2.181 0 01-.229-.748 6.511 6.511 0 01-.002-.928c.032-.402.085-.836.16-1.303.075-.477.155-.939.24-1.384.118-.597.22-1.123.305-1.58.097-.466.172-.851.225-1.155l1.46-.102-.16.7c-.054.271-.112.58-.177.928-.064.337-.133.684-.208 1.042-.065.348-.129.684-.193 1.01-.107.543-.176.999-.208 1.368-.02.358-.026.65-.014.879.011.227.022.417.033.57.011.14.006.27-.015.39a.86.86 0 01-.13.326.61.61 0 01-.242.196.625.625 0 01-.308.082zm7.959-.056c-.67.002-1.233-.088-1.688-.272-.444-.194-.786-.458-1.024-.794a2.792 2.792 0 01-.457-1.203 4.782 4.782 0 01.077-1.498 6.068 6.068 0 01.614-1.596 6.756 6.756 0 011.117-1.485 5.5 5.5 0 011.507-1.062 4.027 4.027 0 011.768-.412c.573-.002 1.044.09 1.413.273.379.183.639.453.78.811.153.358.175.808.068 1.35a2.765 2.765 0 01-.533 1.19 3.493 3.493 0 01-.988.866 5.28 5.28 0 01-1.314.54 6.26 6.26 0 01-1.525.184c-.736.002-1.228-.083-1.477-.256-.239-.173-.337-.368-.294-.585.022-.13.07-.223.146-.277.075-.065.194-.098.356-.099.12 0 .26.021.423.064.173.032.427.048.763.047a4.394 4.394 0 001.46-.232c.443-.154.805-.36 1.086-.622.28-.272.459-.582.534-.93.064-.325.02-.569-.132-.731-.14-.163-.422-.243-.844-.242-.422.001-.828.1-1.217.297a4.155 4.155 0 00-1.07.768 4.789 4.789 0 00-1.293 2.46 2.77 2.77 0 00-.014 1.075c.066.315.229.575.489.78.27.194.655.29 1.153.29.563-.002 1.044-.074 1.444-.216a4.67 4.67 0 001.038-.524c.28-.196.518-.365.713-.507.194-.141.367-.212.519-.213.184 0 .314.07.39.21.087.13.109.304.066.521-.043.217-.189.446-.437.685-.237.229-.55.447-.94.654-.378.207-.8.376-1.265.508a5.55 5.55 0 01-1.412.183zm5.608.016a.452.452 0 01-.358-.145.678.678 0 01-.147-.358 1.075 1.075 0 01.015-.488c.043-.196.145-.456.307-.782.172-.337.388-.712.647-1.125.259-.424.528-.848.809-1.272.302-.446.61-.886.922-1.32.324-.447.631-.843.923-1.192.291-.358.534-.641.728-.848.302-.305.589-.528.859-.67.28-.152.562-.23.843-.23.26 0 .439.09.537.275.097.173.174.396.228.667.077.433.148.96.215 1.578.077.607.17 1.182.28 1.724.087.455.169.846.245 1.171.088.325.17.602.246.83.087.227.168.422.244.585.076.14.136.265.18.373.043.109.06.223.05.342a.945.945 0 01-.13.407.76.76 0 01-.291.294.634.634 0 01-.373.115c-.206 0-.39-.096-.553-.291a3.11 3.11 0 01-.407-.83c-.12-.346-.23-.72-.328-1.121l-.213-.992a59.665 59.665 0 01-.23-1.367 44.72 44.72 0 01-.198-1.431 20.02 20.02 0 01-.083-1.14l.325.13c-.303.283-.632.642-.988 1.077a30.65 30.65 0 00-1.085 1.42 38.731 38.731 0 00-1.084 1.63c-.344.565-.662 1.13-.953 1.695a7.532 7.532 0 01-.615.962c-.162.218-.351.327-.567.327zm10.934-.048c-.368.001-.66-.085-.877-.258a1.52 1.52 0 01-.456-.682 2.973 2.973 0 01-.148-.943 6.04 6.04 0 01.112-1.01c.064-.282.15-.619.257-1.01.118-.39.247-.798.387-1.221.14-.424.274-.82.403-1.19.14-.369.253-.657.34-.863.14-.38.263-.674.37-.88.12-.207.26-.31.422-.31a.6.6 0 01.39.145c.12.097.206.222.26.373a.87.87 0 01.05.505 5.145 5.145 0 01-.225.749c-.119.326-.253.69-.404 1.092-.15.401-.296.809-.436 1.221-.14.402-.241.766-.305 1.092a6.183 6.183 0 00-.128.846c-.022.26-.01.478.033.651.044.163.136.244.277.244.346-.001.784-.312 1.313-.932.54-.62 1.138-1.473 1.796-2.56.301-.479.566-.924.792-1.337.226-.413.426-.772.598-1.076.173-.315.34-.56.502-.734.162-.174.324-.261.486-.262.249 0 .428.097.536.292.12.184.174.433.164.748 0 .282-.01.63-.03 1.042l-.03 1.27a21.2 21.2 0 00.003 1.187c.034.63.094 1.145.182 1.546.098.39.185.705.262.943.076.239.109.434.098.586a.799.799 0 01-.113.342.87.87 0 01-.243.245.571.571 0 01-.324.098c-.379.001-.65-.248-.813-.746-.163-.499-.29-1.166-.378-2-.022-.391-.045-.81-.067-1.254a26.97 26.97 0 01-.003-1.334c.02-.445.041-.858.062-1.237l.471.16c-.183.381-.399.8-.647 1.256a41.643 41.643 0 01-1.018 1.744 16.841 16.841 0 01-1.198 1.68 7.45 7.45 0 01-1.344 1.29c-.454.327-.913.49-1.379.492zm17.436-.083c-.714.002-1.277-.089-1.688-.272-.412-.183-.71-.443-.895-.779a2.67 2.67 0 01-.278-1.17 7.22 7.22 0 01.159-1.466c.107-.543.252-1.102.435-1.677.193-.587.419-1.19.677-1.809a5.83 5.83 0 01.437-.848c.129-.195.275-.293.437-.294.228 0 .412.08.553.243.141.151.179.363.115.634-.032.163-.124.424-.274.782-.14.359-.302.81-.484 1.352-.183.543-.35 1.184-.499 1.922-.097.478-.112.869-.047 1.172a.998.998 0 00.505.666c.271.14.65.21 1.137.208.303 0 .703-.007 1.201-.02.497-.023 1.033-.046 1.606-.07.574-.023 1.136-.046 1.688-.07a78.155 78.155 0 001.477-.101c.433-.045.746-.084.941-.117a1.02 1.02 0 00.373-.131c.108-.077.184-.202.227-.375.139-.64.219-1.254.239-1.84.031-.597.025-1.145-.02-1.644a13.47 13.47 0 00-.132-1.253c-.044-.347-.061-.59-.051-.732a.558.558 0 01.227-.424.67.67 0 01.438-.18c.248 0 .433.097.552.291a2.2 2.2 0 01.31.7c.055.205.093.51.116.91.033.39.05.83.051 1.319.012.488-.003.976-.045 1.464-.032.478-.085.912-.16 1.303-.128.63-.344 1.097-.646 1.402-.292.293-.74.49-1.346.59a14.37 14.37 0 01-1.006.1c-.455.023-.974.046-1.558.07-.584.034-1.179.057-1.785.07-.606.023-1.174.041-1.704.054a63.7 63.7 0 01-1.283.02zm2.824-.432a.605.605 0 01-.358-.129.586.586 0 01-.212-.39 5.406 5.406 0 01-.002-1.025c.042-.423.096-.858.16-1.303.074-.456.149-.868.224-1.237.129-.652.273-1.227.435-1.727.161-.5.29-.847.387-1.042a.99.99 0 01.243-.36.526.526 0 01.389-.147c.141 0 .26.043.357.13.098.086.168.2.212.34.044.141.049.304.017.489-.021.13-.075.315-.161.554-.075.228-.161.5-.258.814a15.01 15.01 0 00-.241 1.042 14.68 14.68 0 00-.176 1.043c-.043.39-.08.786-.111 1.188-.032.39-.053.749-.063 1.074 0 .109-.054.217-.162.326a1.65 1.65 0 01-.34.262.71.71 0 01-.34.098zm14.653.413c-.325.001-.682-.095-1.072-.29a5.886 5.886 0 01-1.154-.81 10.503 10.503 0 01-1.025-1.071 6.229 6.229 0 01-.717-1.089 1.613 1.613 0 01-.212-.47 2.047 2.047 0 01-.017-.44c.032-.087.076-.185.129-.294a1.12 1.12 0 01.211-.293c.129-.174.351-.408.664-.702.313-.294.675-.61 1.085-.947.421-.348.853-.67 1.296-.964.454-.305.881-.556 1.281-.752.411-.197.762-.296 1.054-.296.119 0 .212.026.277.08a.45.45 0 01.162.211.534.534 0 01.033.26c-.01.24-.166.468-.469.685a8.62 8.62 0 01-.972.605c-.616.35-1.162.693-1.637 1.03a13.4 13.4 0 00-1.151.899c-.281.261-.426.446-.437.555-.021.087.011.217.098.39.087.173.223.374.407.601.196.227.429.46.7.698.282.238.596.465.943.68.206.13.406.254.601.373.206.108.368.221.488.34.13.109.19.233.179.374a.693.693 0 01-.113.326.641.641 0 01-.275.229.787.787 0 01-.357.082zm-5.405 0c-.281 0-.471-.14-.569-.422-.098-.292-.126-.71-.084-1.253.053-.553.154-1.22.304-2.002.064-.326.139-.668.225-1.026l.29-1.075c.096-.37.177-.728.241-1.075.022-.087.038-.174.048-.26.022-.099.038-.196.048-.294.043-.217.102-.396.178-.538a.996.996 0 01.259-.326.519.519 0 01.324-.13c.249-.002.444.112.585.34.152.216.185.525.099.927a11.62 11.62 0 01-.257 1.01c-.107.39-.22.792-.338 1.205-.119.412-.21.776-.274 1.09-.096.565-.171 1.07-.224 1.515-.042.445-.068.814-.079 1.107-.01.282-.031.478-.063.586a.752.752 0 01-.146.342.6.6 0 01-.243.196.598.598 0 01-.324.083zm11.594-.002c-.887.003-1.618-.19-2.192-.58a3.004 3.004 0 01-1.173-1.574c-.207-.672-.23-1.437-.069-2.295a4.54 4.54 0 01.613-1.597 5.373 5.373 0 011.004-1.174 4.33 4.33 0 011.134-.704c.379-.163.703-.246.974-.247.119 0 .216.016.292.048a.36.36 0 01.195.163c.054.065.071.157.049.276a1.967 1.967 0 01-.258.603c-.119.174-.34.332-.665.474a4.558 4.558 0 00-.988.621 2.7 2.7 0 00-.632.767 3.023 3.023 0 00-.338 1.026c-.171.88-.067 1.585.313 2.115.38.52.959.779 1.738.776.758-.002 1.417-.275 1.979-.82.572-.554.944-1.288 1.115-2.2.171-.835.115-1.486-.167-1.952-.282-.477-.748-.714-1.397-.712-.336 0-.622.067-.86.198a5.93 5.93 0 00-.746.523 4.9 4.9 0 00-.469.44 2.715 2.715 0 01-.324.31.555.555 0 01-.341.1.451.451 0 01-.357-.146c-.076-.108-.093-.277-.05-.504.043-.25.167-.505.372-.766.215-.262.475-.501.777-.719a4.085 4.085 0 011.005-.54 2.863 2.863 0 011.055-.215c.779-.002 1.412.18 1.9.548.488.357.819.855.993 1.495.175.628.176 1.355.005 2.18-.15.815-.44 1.532-.872 2.151a4.61 4.61 0 01-1.587 1.42 4.171 4.171 0 01-2.028.511zm5.786-.016a.453.453 0 01-.358-.146.677.677 0 01-.147-.358 1.084 1.084 0 01.016-.488c.042-.195.145-.456.306-.782.173-.337.388-.712.647-1.125.259-.424.528-.848.809-1.272.302-.445.609-.886.922-1.32.324-.446.631-.843.923-1.191.291-.36.534-.642.728-.849.303-.304.589-.528.859-.67.281-.152.562-.23.844-.23.259 0 .438.091.536.275.098.174.174.396.229.667.054.282.104.613.148.992.044.38.093.77.148 1.172.055.39.121.77.198 1.138.087.456.169.846.246 1.171.087.326.169.602.245.83.087.227.169.422.245.585.076.14.135.265.179.374a.73.73 0 01.049.341.932.932 0 01-.129.408.755.755 0 01-.291.293.633.633 0 01-.373.115c-.206 0-.39-.096-.553-.291a3.12 3.12 0 01-.407-.829 12.53 12.53 0 01-.327-1.122c-.055-.25-.126-.58-.213-.992a46.71 46.71 0 01-.428-2.798 18.927 18.927 0 01-.084-1.14l.325.13a11.12 11.12 0 00-.988 1.077 31.31 31.31 0 00-1.084 1.42 38.531 38.531 0 00-1.084 1.63c-.345.565-.663 1.13-.954 1.695a7.46 7.46 0 01-.615.962c-.162.218-.351.327-.567.328zm11.535-.034c-.509.001-.926-.122-1.251-.37a1.875 1.875 0 01-.668-1.024c-.12-.445-.126-.96-.019-1.546l.401-2.085c.129-.673.235-1.248.321-1.726.096-.477.161-.792.193-.944.021-.13.064-.25.129-.359a.896.896 0 01.275-.26.653.653 0 01.341-.1c.249 0 .433.124.552.373.131.25.169.537.116.862-.064.304-.155.668-.274 1.092a15.34 15.34 0 00-.257 1.205l-.128.52c-.043.207-.091.419-.145.636l-.113.537c-.117.576-.116 1.026.003 1.351.12.325.364.488.732.486.205 0 .433-.055.681-.164.26-.11.508-.251.746-.426.238-.185.437-.38.599-.587.162-.207.243-.402.242-.587.011-.282-.066-.51-.228-.683-.152-.173-.374-.313-.667-.421a3.552 3.552 0 00-.633-.21c-.26-.064-.536-.123-.828-.176a6.157 6.157 0 00-.845-.128l.274-1.059c.389-.066.827-.16 1.314-.28a25.56 25.56 0 001.541-.428 35.82 35.82 0 001.525-.509 13.94 13.94 0 001.459-.606c.433-.208.8-.382 1.103-.524.313-.153.567-.23.762-.23.335-.001.59.112.764.34.184.216.239.508.164.877-.075.348-.15.69-.225 1.026-.064.326-.134.663-.209 1.01a53.764 53.764 0 00-.352 2.133c-.054.39-.091.75-.112 1.075.001.217-.004.455-.014.716 0 .25-.01.434-.032.553a.73.73 0 01-.145.326.593.593 0 01-.259.196.659.659 0 01-.325.082c-.227.001-.4-.107-.52-.323a2.035 2.035 0 01-.18-.814 13.67 13.67 0 01.094-1.627c.063-.554.149-1.113.256-1.678a20.3 20.3 0 00.16-.797l.193-.864c.065-.282.118-.532.161-.749.054-.228.091-.39.113-.488l.325.34c-.249.142-.573.3-.973.475-.389.164-.832.334-1.33.509-.497.164-1.016.328-1.557.493-.541.164-1.087.317-1.638.46-.541.132-1.06.236-1.558.314l.161-.587c.087-.01.217-.022.39-.033.184-.022.395-.034.633-.035.13 0 .308.021.536.064.238.043.481.112.73.21.26.096.504.231.732.404.238.162.422.368.553.617.141.249.207.542.196.878-.02.423-.165.83-.435 1.222-.259.391-.588.74-.988 1.045-.4.304-.827.55-1.281.736a3.6 3.6 0 01-1.281.264zM1.936 26.215c-.498.002-.904-.116-1.218-.354-.304-.238-.515-.568-.635-.991-.11-.423-.11-.911-.004-1.465a5.953 5.953 0 01.533-1.564 7.98 7.98 0 01.987-1.5 7.783 7.783 0 011.28-1.257c.474-.37.971-.66 1.49-.867a4.365 4.365 0 011.59-.314c.25 0 .444.064.585.194.141.13.185.325.131.585a.619.619 0 01-.178.343c-.097.087-.237.141-.421.164-.757.11-1.46.384-2.108.82a6.195 6.195 0 00-1.604 1.583c-.42.609-.7 1.25-.84 1.923a4.299 4.299 0 00-.095.863c0 .25.055.575.164.976l-.619-1.121c.195.248.369.41.52.486.163.076.39.113.682.112.693-.002 1.395-.449 2.107-1.34.713-.892 1.37-2.19 1.972-3.896.075-.206.178-.364.308-.473.14-.12.302-.18.486-.18a.623.623 0 01.569.323c.141.206.201.472.18.797a29.61 29.61 0 00-.06 1.856c.011.542.072 1.052.181 1.53.12.476.327.97.62 1.479a.619.619 0 01.082.374.799.799 0 01-.113.407.889.889 0 01-.275.326.661.661 0 01-.39.115.691.691 0 01-.389-.096.842.842 0 01-.228-.276 7.483 7.483 0 01-.408-.894 6.395 6.395 0 01-.294-1.074 8.373 8.373 0 01-.084-1.448c.01-.553.062-1.21.158-1.97l.584-.017c-.355 1.085-.748 2.004-1.179 2.753-.431.74-.884 1.338-1.36 1.795-.464.446-.928.773-1.393.98-.465.208-.903.312-1.314.313zm9.091-.01a.667.667 0 01-.6-.34c-.142-.227-.23-.542-.263-.943-.022-.413.02-.895.127-1.45.086-.38.177-.7.274-.96.108-.26.22-.467.34-.62.129-.163.264-.277.405-.343.118-.065.286-.103.502-.115a6.85 6.85 0 01.682-.035 23.71 23.71 0 002.337-.12c.779-.09 1.541-.254 2.288-.495l.294 1.122a9.31 9.31 0 01-1.817.494 19.75 19.75 0 01-1.98.233c-.66.035-1.303.053-1.93.055l-.942-.144c.096-.434.193-.88.289-1.335.096-.456.187-.907.273-1.352.096-.445.182-.852.257-1.221.043-.261.129-.473.258-.636.13-.163.276-.245.438-.245.27-.001.47.107.601.323.13.206.147.537.051.993a12.54 12.54 0 01-.193.863c-.086.337-.177.69-.274 1.059a45.08 45.08 0 01-.257 1.058 28.196 28.196 0 00-.465 2.508c-.053.489-.101.858-.144 1.107a.682.682 0 01-.21.375.446.446 0 01-.34.164zm5.6-.016c-.27 0-.466-.156-.585-.47-.11-.315-.159-.743-.15-1.286.021-.553.096-1.161.224-1.823a47.55 47.55 0 01.563-2.476c.172-.619.328-1.108.467-1.466.087-.239.194-.45.324-.636.13-.184.286-.277.47-.278.238 0 .406.113.504.34.108.217.13.483.066.798-.075.39-.193.814-.354 1.27-.15.457-.274.95-.37 1.483a18.94 18.94 0 00-.272 1.774c-.042.521-.069.96-.078 1.319-.01.358-.037.624-.08.797a.76.76 0 01-.729.654zm4.113-.029c-.26.001-.454-.118-.585-.356-.12-.238-.163-.57-.132-.992.01-.185.043-.44.096-.766.053-.325.117-.689.192-1.09l.225-1.238c.086-.413.16-.793.225-1.14.075-.348.134-.624.176-.83.107-.565.253-.978.436-1.239.194-.272.475-.435.843-.49a10.97 10.97 0 011.103-.118 13.976 13.976 0 012.516.009c.455.032.796.09 1.023.176a.514.514 0 01.326.569c-.043.217-.178.375-.405.473-.227.099-.47.148-.73.149a5.49 5.49 0 01-.617-.031 9.083 9.083 0 00-.6-.047 9.055 9.055 0 00-.86-.03 7.95 7.95 0 00-1.104.068c-.303.045-.644.11-1.022.199l.794-.524c-.14.435-.28.918-.419 1.45a45.087 45.087 0 00-.418 1.954 23.45 23.45 0 00-.256 1.515 31.5 31.5 0 00-.144 1.188 7.012 7.012 0 01-.08.635c-.032.174-.102.299-.21.375a.58.58 0 01-.373.131zm5.287.017a.452.452 0 01-.357-.145.677.677 0 01-.147-.358 1.074 1.074 0 01.015-.488c.043-.195.145-.456.307-.782.172-.337.388-.712.646-1.125.26-.424.529-.848.81-1.272.301-.445.609-.886.922-1.32a22 22 0 01.922-1.191c.291-.36.534-.642.729-.849.302-.304.588-.528.859-.67.28-.152.562-.23.843-.23.26 0 .438.091.536.275.098.174.174.396.229.667.055.282.104.613.148.992.044.38.094.77.149 1.171.055.39.12.77.197 1.14.087.455.17.845.246 1.17.087.326.169.602.245.83.087.227.169.422.245.585.076.14.136.265.18.373.043.109.06.223.049.342a.945.945 0 01-.13.407.758.758 0 01-.29.294.634.634 0 01-.374.115c-.205 0-.39-.096-.552-.291a3.11 3.11 0 01-.408-.829c-.12-.347-.229-.72-.327-1.122-.055-.25-.126-.58-.213-.992a60.206 60.206 0 01-.23-1.366 44.416 44.416 0 01-.198-1.432 19.933 19.933 0 01-.084-1.14l.325.13a11.23 11.23 0 00-.988 1.077c-.345.424-.706.897-1.084 1.42a38.61 38.61 0 00-1.084 1.63c-.345.565-.663 1.13-.954 1.695a7.536 7.536 0 01-.615.962c-.161.218-.35.327-.567.327zm10.935-.047c-.368 0-.66-.086-.877-.259a1.521 1.521 0 01-.456-.682 2.973 2.973 0 01-.148-.943c.01-.348.047-.684.111-1.01.065-.282.15-.619.258-1.01.118-.39.247-.798.387-1.221.14-.424.274-.82.403-1.19.14-.369.253-.657.339-.863.14-.38.263-.674.371-.88.119-.206.26-.31.422-.31.14 0 .27.047.39.145a.842.842 0 01.26.373c.065.152.082.32.05.505a5.133 5.133 0 01-.226.75c-.118.325-.253.689-.403 1.09-.151.403-.296.81-.436 1.223-.14.402-.242.765-.306 1.09a6.2 6.2 0 00-.128.848c-.021.26-.01.477.034.65.044.163.136.244.276.244.347-.001.784-.312 1.313-.932.54-.62 1.138-1.473 1.796-2.56.302-.478.566-.924.792-1.337.227-.413.426-.772.599-1.076.172-.315.34-.56.501-.734.162-.174.324-.261.487-.262.248 0 .427.097.536.292.12.184.174.433.164.748 0 .282-.01.63-.03 1.042l-.03 1.27c-.01.422-.01.819.002 1.187.034.63.095 1.145.182 1.546a17 17 0 00.262.943c.076.239.11.434.099.586a.8.8 0 01-.113.342.871.871 0 01-.243.245.572.572 0 01-.324.098c-.25.001-.455-.112-.618-.34-.152-.227-.272-.547-.36-.959a13.546 13.546 0 01-.213-1.448c-.023-.39-.045-.808-.068-1.253-.012-.444-.013-.89-.003-1.334.02-.445.042-.857.063-1.237l.47.161c-.129.25-.269.516-.42.799-.14.282-.312.603-.517.962-.194.347-.437.76-.728 1.239a16.82 16.82 0 01-1.197 1.68 7.44 7.44 0 01-1.345 1.289c-.453.327-.913.49-1.378.492zm14.384-9.824c-.454.001-.838-.095-1.153-.29a1.992 1.992 0 01-.7-.746c-.151-.304-.222-.59-.212-.862.021-.293.102-.521.242-.684a.661.661 0 01.519-.246c.162 0 .281.091.358.276.086.173.179.368.277.585.087.205.2.384.342.536.151.151.379.226.682.226.206-.001.416-.061.633-.181.216-.131.41-.267.583-.409.237-.196.448-.36.632-.49.184-.142.367-.213.551-.213.13 0 .228.048.293.145.076.087.092.2.05.342-.054.196-.173.413-.356.652-.173.229-.4.446-.68.653a3.84 3.84 0 01-.957.507 3.11 3.11 0 01-1.104.199zm-3.939 9.793c-.368 0-.66-.085-.877-.258a1.521 1.521 0 01-.456-.682 2.973 2.973 0 01-.148-.944c.01-.347.047-.683.112-1.01.064-.281.15-.618.257-1.009.118-.391.247-.798.387-1.222.14-.423.274-.82.403-1.189.14-.37.253-.657.34-.864.139-.38.263-.673.37-.88.12-.206.26-.31.422-.31.14 0 .27.048.39.145a.837.837 0 01.26.374c.066.152.082.32.05.504a5.142 5.142 0 01-.226.75c-.118.325-.252.69-.403 1.091-.15.402-.296.81-.435 1.222a8.18 8.18 0 00-.307 1.091 6.2 6.2 0 00-.128.847c-.02.26-.01.478.034.651.044.163.136.244.277.243.346 0 .784-.311 1.312-.931.54-.62 1.139-1.474 1.797-2.56.301-.479.566-.925.792-1.338.226-.412.426-.771.598-1.075.173-.316.34-.56.502-.734.162-.174.324-.262.486-.262.249 0 .428.096.536.291.12.184.174.434.164.748 0 .283-.01.63-.03 1.042l-.03 1.27c-.01.423-.009.819.003 1.188.034.629.094 1.144.182 1.545.098.39.185.705.262.944.076.238.109.433.098.585a.8.8 0 01-.113.342.871.871 0 01-.243.245.572.572 0 01-.324.099c-.379 0-.65-.248-.813-.746-.164-.5-.29-1.166-.378-2.001-.022-.39-.045-.808-.068-1.253-.011-.445-.012-.89-.002-1.335.02-.445.041-.857.062-1.237l.47.162c-.182.38-.398.798-.646 1.255a41.65 41.65 0 01-1.018 1.744 16.82 16.82 0 01-1.198 1.68 7.44 7.44 0 01-1.344 1.29c-.454.326-.913.49-1.379.492zm11.926-.068c-.8.003-1.461-.153-1.981-.466a2.6 2.6 0 01-1.074-1.331c-.196-.575-.22-1.237-.07-1.986.129-.64.36-1.232.695-1.776a5.733 5.733 0 011.263-1.436 6.055 6.055 0 011.653-.965 5.092 5.092 0 011.833-.347c.282 0 .53.042.747.128a.85.85 0 01.472.357c.108.152.136.341.082.57a.949.949 0 01-.242.488.606.606 0 01-.422.164.495.495 0 01-.276-.064 3.54 3.54 0 00-.211-.13c-.065-.043-.179-.064-.341-.064a3.4 3.4 0 00-1.736.477c-.54.306-1 .709-1.377 1.209a3.962 3.962 0 00-.727 1.58c-.075.456-.063.852.035 1.189.109.325.304.58.586.763.293.183.65.275 1.072.273.476-.001.855-.056 1.136-.166.28-.12.502-.25.664-.392.173-.142.314-.267.421-.376a.492.492 0 01.373-.18c.206 0 .347.048.423.145.086.098.108.266.066.505a1.856 1.856 0 01-.55.962 3.05 3.05 0 01-1.102.637c-.433.154-.903.23-1.412.232zm11.004.001c-.325 0-.682-.096-1.072-.29a5.902 5.902 0 01-1.154-.81 10.68 10.68 0 01-1.025-1.072 6.227 6.227 0 01-.717-1.088 1.592 1.592 0 01-.212-.471 2.015 2.015 0 01-.017-.44 3.05 3.05 0 01.13-.293c.053-.109.123-.207.21-.294.13-.174.35-.407.664-.701.313-.294.675-.61 1.085-.947.421-.349.853-.67 1.296-.964.454-.306.881-.556 1.281-.753.41-.196.762-.295 1.055-.296a.447.447 0 01.439.292.542.542 0 01.032.26c-.01.239-.166.467-.469.685a8.53 8.53 0 01-.972.605 19.17 19.17 0 00-1.637 1.03c-.476.338-.86.637-1.15.899-.282.26-.427.446-.438.554-.021.087.011.217.098.39.087.174.223.374.407.602.196.227.429.46.7.697.282.238.596.465.943.681.206.13.406.254.601.373.206.108.368.221.488.34.13.108.19.233.18.374a.691.691 0 01-.114.326.641.641 0 01-.275.228.785.785 0 01-.357.083zm-5.405 0c-.281 0-.471-.14-.57-.422-.097-.293-.125-.71-.083-1.253a22.05 22.05 0 01.304-2.003c.064-.325.14-.668.225-1.026l.29-1.075c.097-.369.177-.727.241-1.075.022-.087.038-.173.048-.26.022-.098.038-.196.048-.293.043-.217.102-.397.178-.538a.996.996 0 01.259-.326.52.52 0 01.324-.131c.249-.001.444.112.585.34.152.216.185.525.1.927-.054.272-.14.608-.258 1.01-.108.39-.22.793-.338 1.205-.118.413-.21.777-.274 1.091-.096.565-.17 1.07-.224 1.515-.042.445-.068.814-.079 1.107-.01.282-.031.477-.063.586a.748.748 0 01-.146.342.61.61 0 01-.243.196.601.601 0 01-.324.082zm11.594-.002c-.887.003-1.618-.19-2.192-.58a3.003 3.003 0 01-1.172-1.575c-.208-.672-.23-1.437-.07-2.294a4.54 4.54 0 01.613-1.597 5.394 5.394 0 011.004-1.175 4.3 4.3 0 011.134-.703c.379-.164.703-.246.974-.247.119 0 .216.016.292.048a.363.363 0 01.195.162c.054.065.07.157.05.277-.054.217-.14.418-.259.603-.119.174-.34.332-.665.474a4.521 4.521 0 00-.988.621 2.68 2.68 0 00-.632.767 3.01 3.01 0 00-.338 1.026c-.171.88-.067 1.584.313 2.115.38.52.96.778 1.738.776.758-.002 1.417-.275 1.979-.82.572-.555.944-1.288 1.115-2.2.171-.836.115-1.487-.167-1.952-.282-.477-.748-.714-1.397-.712-.336 0-.622.066-.86.197a5.93 5.93 0 00-.745.523 4.92 4.92 0 00-.47.441c-.119.13-.227.234-.324.31a.553.553 0 01-.34.099.452.452 0 01-.358-.146c-.076-.108-.093-.276-.05-.504.043-.25.167-.505.372-.766.215-.26.475-.5.777-.718a4.096 4.096 0 011.005-.54 2.86 2.86 0 011.055-.215c.779-.002 1.412.18 1.9.548.488.357.819.855.993 1.494.175.63.176 1.356.005 2.181-.15.814-.44 1.531-.872 2.151a4.618 4.618 0 01-1.587 1.42 4.17 4.17 0 01-2.028.511zm6.792-.052c-.26 0-.455-.118-.585-.357-.12-.238-.164-.569-.133-.992.011-.185.043-.44.096-.765.054-.326.118-.69.193-1.091l.224-1.238c.086-.412.16-.792.225-1.14l.177-.83c.107-.565.252-.978.435-1.239.194-.271.475-.435.843-.49.346-.055.714-.095 1.104-.117a13.543 13.543 0 012.077-.023c.303.01.585.031.844.063.26.032.466.08.617.145a.514.514 0 01.326.568c-.042.217-.177.375-.404.473a1.83 1.83 0 01-.73.15c-.228 0-.433-.01-.617-.032a9.017 9.017 0 00-.601-.047 9.057 9.057 0 00-.86-.03 7.95 7.95 0 00-1.104.069c-.303.044-.643.11-1.022.198l.794-.523c-.086.282-.177.591-.274.928a38.966 38.966 0 00-.563 2.476 23.53 23.53 0 00-.256 1.514c-.064.467-.112.863-.143 1.188a6.936 6.936 0 01-.08.635c-.032.174-.102.3-.21.375a.58.58 0 01-.373.132zm9.835.004c-.887.002-1.618-.191-2.192-.58a3.004 3.004 0 01-1.172-1.575c-.207-.672-.23-1.437-.07-2.295a4.54 4.54 0 01.613-1.597 5.395 5.395 0 011.004-1.174 4.3 4.3 0 011.134-.703c.379-.164.703-.247.974-.247a.76.76 0 01.292.047.363.363 0 01.195.163c.054.065.07.157.05.276a1.99 1.99 0 01-.259.603c-.119.174-.34.332-.664.474a4.59 4.59 0 00-.99.621 2.69 2.69 0 00-.63.767 3.008 3.008 0 00-.34 1.026c-.17.88-.066 1.585.314 2.115.38.52.96.779 1.738.777.758-.003 1.417-.276 1.979-.82.572-.555.944-1.288 1.115-2.2.171-.836.116-1.487-.167-1.953-.282-.477-.748-.714-1.397-.712-.336.001-.622.067-.86.198-.227.13-.475.305-.745.523-.195.163-.352.31-.47.44a2.637 2.637 0 01-.324.31.554.554 0 01-.34.1.452.452 0 01-.358-.146c-.076-.108-.093-.276-.05-.504.043-.25.167-.505.372-.766a4.2 4.2 0 01.777-.719 4.093 4.093 0 011.005-.54 2.86 2.86 0 011.055-.214c.779-.003 1.412.18 1.9.547.488.357.819.855.993 1.495.175.628.176 1.355.005 2.18-.15.815-.44 1.532-.872 2.151a4.618 4.618 0 01-1.587 1.421 4.17 4.17 0 01-2.028.51zm17.42-.068a.659.659 0 01-.634-.388c-.119-.271-.185-.602-.197-.993 0-.195.005-.417.015-.667.01-.25.031-.505.063-.765.043-.26.08-.5.112-.716l.161-.733c.075-.294.15-.592.225-.896.086-.315.161-.603.226-.863a14.9 14.9 0 00.161-.62c.021-.14-.012-.243-.098-.308-.087-.076-.239-.113-.455-.113-.173 0-.363.012-.568.034a8.95 8.95 0 00-.665.1 5.056 5.056 0 00-1.476.525c-.422.23-.659.49-.713.783a.981.981 0 00.083.684c.119.195.352.351.699.47.357.118.871.176 1.542.174a13.42 13.42 0 001.396-.069 8.31 8.31 0 01.568-.067 2.77 2.77 0 01.292-.033c.27-.001.498.015.682.047.184.032.254.145.211.34a.728.728 0 01-.355.523c-.195.13-.454.223-.779.279a6.548 6.548 0 01-1.103.084l-1.672.005a4.403 4.403 0 01-1.624-.288c-.487-.194-.861-.47-1.122-.827-.249-.357-.331-.775-.246-1.252.064-.294.204-.598.42-.913.227-.326.551-.63.972-.914.432-.284.994-.513 1.687-.689a8.25 8.25 0 011.249-.247 10.27 10.27 0 011.006-.052c.422-.002.752.057.99.176.239.119.401.28.488.487.098.206.12.444.067.716a8.808 8.808 0 01-.209.83c-.097.315-.194.641-.29.978a62.06 62.06 0 00-.226.88 14.338 14.338 0 00-.239 1.709 9.492 9.492 0 00-.031.732c0 .239.006.494.018.765.022.26.022.44.001.537a.645.645 0 01-.21.391.607.607 0 01-.422.164zm-5.713 0a.557.557 0 01-.455-.193.603.603 0 01-.099-.472.789.789 0 01.243-.359c.13-.13.346-.272.648-.425a8.54 8.54 0 001.54-1.013 19.69 19.69 0 001.555-1.388l1.024.583a18.108 18.108 0 01-2.462 2.237 8.458 8.458 0 01-1.135.752c-.346.185-.632.278-.859.279zm11.423-.065a5.44 5.44 0 01-1.218-.127 3.953 3.953 0 01-.974-.388 1.948 1.948 0 01-.635-.584 1.177 1.177 0 01-.18-.732.722.722 0 01.178-.456c.119-.13.248-.196.389-.196.13 0 .244.064.341.194.109.12.239.265.391.439.162.162.384.308.666.437.282.119.671.177 1.169.176.725-.003 1.277-.134 1.655-.396.389-.272.583-.577.582-.913.011-.184-.066-.342-.228-.471-.152-.14-.385-.26-.699-.356a7.081 7.081 0 00-1.234-.273c-.411-.053-.677-.134-.796-.242a.505.505 0 01-.131-.423c.011-.174.119-.293.324-.359a9.316 9.316 0 011.039-.23c.638-.111 1.146-.275 1.524-.494.389-.218.589-.479.599-.782.01-.293-.126-.515-.407-.667-.282-.162-.661-.242-1.137-.24-.541.001-.99.073-1.347.215a4.309 4.309 0 00-.859.41c-.205.141-.367.212-.486.213a.326.326 0 01-.277-.13.485.485 0 01-.065-.309c.01-.195.096-.39.258-.587.173-.195.4-.375.681-.539a3.81 3.81 0 011.021-.377 5.473 5.473 0 011.299-.15c.952-.003 1.656.169 2.111.514.466.346.689.823.668 1.43-.021.337-.155.668-.403.995-.238.315-.594.587-1.07.816-.475.219-1.081.362-1.817.429l-.016-.244c.67-.002 1.217.067 1.639.207.433.129.748.334.943.615.206.271.299.613.278 1.025-.01.477-.193.912-.549 1.303-.345.381-.804.686-1.377.916a5.188 5.188 0 01-1.85.33zm7.87.041c-.509.002-.926-.121-1.251-.37a1.875 1.875 0 01-.668-1.023c-.12-.445-.126-.96-.019-1.546l.401-2.085c.129-.673.235-1.248.321-1.726.096-.477.161-.792.193-.944.021-.13.064-.25.129-.359a.896.896 0 01.275-.26.652.652 0 01.341-.1c.249 0 .433.124.552.373.131.25.169.537.116.862-.064.305-.156.668-.274 1.092-.107.423-.193.825-.257 1.205l-.128.521a17.05 17.05 0 01-.145.635c-.043.206-.08.386-.113.538-.117.575-.116 1.025.003 1.35.12.325.364.488.732.486.205 0 .433-.055.681-.164.26-.11.508-.251.746-.426.237-.185.437-.38.599-.587.162-.207.243-.402.242-.587.011-.282-.066-.51-.228-.683-.152-.173-.374-.313-.667-.42a3.548 3.548 0 00-.633-.21 13.7 13.7 0 00-.828-.177 6.148 6.148 0 00-.845-.128l.274-1.059c.389-.066.827-.16 1.314-.28a25.55 25.55 0 001.541-.428 36.25 36.25 0 001.525-.509 14.046 14.046 0 001.459-.606c.432-.208.8-.382 1.103-.524.313-.153.567-.23.762-.23.335-.001.59.112.764.34.184.216.239.508.164.878-.075.347-.15.689-.225 1.026-.064.325-.134.662-.209 1.01-.053.282-.112.613-.176.992-.064.37-.123.75-.176 1.14-.054.391-.091.75-.112 1.075.001.217-.004.456-.014.716 0 .25-.01.434-.032.553a.741.741 0 01-.145.326.593.593 0 01-.259.196.66.66 0 01-.325.083c-.227 0-.4-.108-.52-.324a2.034 2.034 0 01-.18-.814 13.67 13.67 0 01.094-1.627 22.93 22.93 0 01.256-1.677c.053-.24.107-.505.16-.798l.193-.863c.065-.283.118-.532.161-.75.054-.228.091-.39.113-.488l.325.34c-.249.142-.573.3-.973.476-.389.163-.832.333-1.33.508-.497.164-1.016.328-1.557.493a41.07 41.07 0 01-1.638.46c-.541.132-1.06.236-1.558.314l.161-.586a6.9 6.9 0 01.39-.034c.184-.022.395-.034.633-.035.13 0 .308.021.535.064.239.043.482.113.731.21.26.096.504.231.732.404.238.162.422.368.553.617.141.25.207.542.196.878-.02.424-.165.83-.435 1.222-.259.392-.588.74-.988 1.045-.4.305-.827.55-1.281.736a3.6 3.6 0 01-1.281.264zm15.878-.062c-.325.001-.682-.095-1.072-.29a5.882 5.882 0 01-1.154-.81c-.369-.335-.71-.692-1.025-1.071a6.16 6.16 0 01-.716-1.088 1.562 1.562 0 01-.212-.472 2.05 2.05 0 01-.018-.44c.033-.086.076-.184.13-.292a1.09 1.09 0 01.21-.294c.129-.174.351-.408.664-.702.313-.294.675-.61 1.085-.947.422-.348.854-.67 1.297-.964.454-.305.88-.556 1.28-.752.411-.197.763-.296 1.055-.296a.42.42 0 01.276.08.45.45 0 01.163.211.558.558 0 01.033.26c-.011.24-.167.468-.47.686a8.63 8.63 0 01-.972.605c-.616.349-1.162.692-1.637 1.03a13.29 13.29 0 00-1.151.898c-.28.261-.426.446-.437.555-.021.108.05.298.212.569.163.26.413.557.749.893.336.324.732.627 1.187.908.206.13.406.253.601.372.206.108.369.222.488.34.13.109.19.233.179.374a.682.682 0 01-.113.326.635.635 0 01-.275.229.785.785 0 01-.357.082zm-5.405 0c-.281 0-.471-.14-.569-.422-.098-.292-.126-.71-.084-1.253.053-.553.154-1.22.304-2.002.064-.326.14-.668.225-1.026l.29-1.075c.097-.37.177-.728.241-1.075.022-.087.038-.174.048-.26a2.5 2.5 0 00.048-.294c.043-.217.102-.396.178-.537a1.01 1.01 0 01.259-.327.519.519 0 01.324-.13c.249-.002.444.112.585.34.152.216.185.525.1.927-.054.271-.14.608-.258 1.01-.107.39-.22.792-.338 1.205-.118.413-.209.776-.274 1.091a31.07 31.07 0 00-.224 1.514c-.042.445-.068.814-.078 1.107-.011.282-.032.478-.064.586a.75.75 0 01-.145.342.614.614 0 01-.243.197.604.604 0 01-.325.082zm9.646-.028c-.497.001-.903-.117-1.218-.355-.303-.238-.515-.568-.635-.99-.109-.424-.11-.912-.003-1.465a5.963 5.963 0 01.532-1.564c.27-.533.599-1.033.987-1.5a7.785 7.785 0 011.28-1.258c.475-.37.972-.659 1.491-.866a4.367 4.367 0 011.59-.314c.249-.001.444.063.585.193.141.13.184.325.131.586a.624.624 0 01-.178.342c-.097.087-.238.142-.422.164-.757.11-1.46.384-2.108.82a6.193 6.193 0 00-1.603 1.583 5.217 5.217 0 00-.84 1.923 4.362 4.362 0 00-.096.863c.001.25.056.575.165.976l-.62-1.121c.196.249.369.411.521.487.162.075.39.112.682.112.692-.002 1.395-.45 2.107-1.341.712-.892 1.369-2.19 1.972-3.896.075-.206.177-.364.307-.473a.73.73 0 01.487-.18c.248 0 .438.107.568.324.141.206.202.471.181.797a29.616 29.616 0 00-.061 1.855c.012.543.072 1.053.182 1.53.12.477.326.97.62 1.479a.623.623 0 01.082.374.806.806 0 01-.113.407.9.9 0 01-.275.326.662.662 0 01-.39.116.687.687 0 01-.389-.097.837.837 0 01-.228-.276 7.555 7.555 0 01-.408-.894 6.307 6.307 0 01-.294-1.073 8.41 8.41 0 01-.085-1.448c.01-.554.063-1.21.158-1.97l.585-.018c-.355 1.086-.748 2.004-1.179 2.754-.432.739-.885 1.337-1.36 1.794-.464.446-.929.773-1.394.98-.464.208-.902.313-1.314.314zm16.636-.065c-1.234.003-2.116-.135-2.647-.416-.531-.28-.759-.605-.684-.974a.55.55 0 01.194-.375.679.679 0 01.438-.131c.152 0 .292.026.422.08.141.043.303.096.488.161.194.054.438.107.73.16.293.043.666.064 1.12.062.444 0 .844-.03 1.201-.084.357-.067.671-.16.941-.28.27-.13.497-.273.681-.425-.001-.304-.131-.575-.392-.813a4.114 4.114 0 00-.975-.664 61.59 61.59 0 00-1.235-.631 9.211 9.211 0 01-1.202-.713 2.95 2.95 0 01-.83-.941c-.185-.358-.229-.786-.133-1.286a3.09 3.09 0 01.76-1.483c.41-.457.896-.865 1.458-1.225.573-.37 1.167-.681 1.783-.933a11.124 11.124 0 011.801-.59c.584-.144 1.076-.216 1.476-.217.195 0 .352.032.471.097a.442.442 0 01.228.26.625.625 0 01.017.374.748.748 0 01-.259.456c-.14.12-.356.207-.648.262-1.104.21-2.061.484-2.871.822-.811.34-1.454.715-1.929 1.13-.465.413-.74.831-.826 1.255-.053.271.034.52.262.748.227.227.536.448.926.664.401.205.824.426 1.268.664.444.226.856.48 1.235.761.379.27.672.584.879.941.217.358.277.77.181 1.237a1.824 1.824 0 01-.501.929 2.793 2.793 0 01-.957.637 5.66 5.66 0 01-1.33.362c-.487.078-1 .117-1.541.119zm14.637-.043c-.238 0-.411-.096-.52-.291-.109-.206-.207-.548-.295-1.025-.076-.39-.137-.873-.181-1.448a32.692 32.692 0 01-.053-1.822 32.1 32.1 0 01.077-1.84 69.13 69.13 0 00.143-1.807c.042-.499.052-.895.029-1.188-.011-.304-.06-.526-.147-.667-.087-.14-.228-.21-.423-.21-.292 0-.665.235-1.118.703-.443.457-.928 1.11-1.457 1.957-.528.848-1.061 1.864-1.6 3.048a37.283 37.283 0 00-1.517 3.927 1.314 1.314 0 01-.291.506.606.606 0 01-.422.163c-.249.001-.427-.08-.536-.242-.108-.173-.12-.477-.034-.911.128-.63.311-1.255.548-1.874.247-.63.516-1.26.807-1.89.291-.64.565-1.282.824-1.923.269-.64.489-1.282.661-1.922a.996.996 0 01.21-.456.509.509 0 01.389-.18.67.67 0 01.406.128c.13.087.233.222.309.406l-.616.181c.679-1.022 1.3-1.777 1.862-2.267.572-.49 1.145-.736 1.719-.738.627-.002 1.071.181 1.332.55.26.368.402.932.425 1.691.024.76-.018 1.747-.123 2.962-.085.901-.11 1.677-.076 2.328.034.65.078 1.204.133 1.66l.165 1.138c.044.304.044.57.002.798a.663.663 0 01-.227.407.583.583 0 01-.405.148zm-8.057-3.166c-.239 0-.406-.053-.504-.162-.098-.108-.125-.243-.082-.406a.554.554 0 01.178-.342c.108-.099.275-.186.502-.262 1.255-.449 2.655-.778 4.202-.99a38.03 38.03 0 014.982-.323c.379-.001.623.052.731.16.119.109.157.266.115.472-.043.217-.183.402-.421.555-.238.142-.552.213-.941.214a37.11 37.11 0 00-3.165.123c-.855.068-1.574.157-2.158.267-.584.1-1.082.204-1.493.314-.4.11-.751.203-1.054.28-.292.065-.59.099-.892.1zm12.312 3.235c-.292 0-.477-.123-.553-.373-.076-.249-.001-.645.225-1.188.312-.76.7-1.57 1.163-2.429.463-.87.992-1.733 1.585-2.592a30.885 30.885 0 011.959-2.528 20.417 20.417 0 012.218-2.22c.26-.218.465-.36.616-.425a1.2 1.2 0 01.438-.1c.173 0 .309.06.406.179.098.119.131.287.099.504a1.252 1.252 0 01-.113.374 1.444 1.444 0 01-.275.36c-.13.119-.313.282-.551.49a20.158 20.158 0 00-2.494 2.578 23.782 23.782 0 00-2.103 3.05 21.877 21.877 0 00-1.584 3.292c-.161.412-.317.684-.469.815a.8.8 0 01-.567.213zm1.985-5.051a.566.566 0 01-.39-.13.872.872 0 01-.228-.34 22.803 22.803 0 00-.652-1.496c-.196-.411-.38-.769-.554-1.072l-.505-.91c-.153-.303-.31-.645-.473-1.024a6.036 6.036 0 01-.213-.683 1.317 1.317 0 01-.001-.505.8.8 0 01.21-.44.572.572 0 01.422-.163.583.583 0 01.406.145c.119.086.222.238.309.455.153.444.3.829.441 1.154.152.314.299.607.44.877.152.26.304.531.456.813.152.27.305.58.457.926.152.347.304.77.457 1.268a.842.842 0 01.033.342 1.08 1.08 0 01-.064.375.641.641 0 01-.21.293.5.5 0 01-.341.115zm13.342 5.006c-.292.001-.476-.123-.553-.372-.076-.25-.001-.646.225-1.19.312-.76.7-1.569 1.163-2.428.464-.869.992-1.733 1.585-2.592a30.87 30.87 0 011.959-2.528 20.344 20.344 0 012.219-2.22c.259-.218.464-.36.616-.425a1.19 1.19 0 01.438-.099c.173 0 .308.059.406.178.097.119.13.287.098.504a1.252 1.252 0 01-.113.375 1.419 1.419 0 01-.275.359c-.129.12-.313.283-.551.49a20.227 20.227 0 00-2.494 2.578 23.78 23.78 0 00-2.103 3.05 21.88 21.88 0 00-1.583 3.292c-.162.413-.318.684-.469.815a.805.805 0 01-.568.213zm1.986-5.05a.561.561 0 01-.39-.13.851.851 0 01-.228-.341 23.325 23.325 0 00-.653-1.495 15.56 15.56 0 00-.554-1.073l-.505-.91c-.152-.303-.31-.644-.473-1.024a5.788 5.788 0 01-.212-.683 1.316 1.316 0 01-.002-.504.813.813 0 01.21-.44.571.571 0 01.422-.164c.162 0 .298.048.406.145.119.086.223.238.31.455.152.444.299.829.44 1.154.152.314.299.607.44.878.153.26.305.53.457.812a10.58 10.58 0 01.913 2.195.86.86 0 01.034.341c0 .13-.022.255-.065.375a.641.641 0 01-.21.293.497.497 0 01-.34.115zm10.309 4.901c-.811.002-1.504-.12-2.078-.369-.563-.259-1.008-.615-1.333-1.07a3.682 3.682 0 01-.621-1.61 6.032 6.032 0 01.061-1.953c.107-.5.258-.999.451-1.498.194-.5.42-.978.679-1.434.269-.457.55-.886.841-1.289a6.63 6.63 0 01.793-.897c.281-.25.568-.376.86-.377.141 0 .249.037.325.113.086.065.125.168.114.309 0 .13-.07.293-.21.489a14.32 14.32 0 00-1.019 1.419c-.324.5-.61 1.027-.857 1.58a7.69 7.69 0 00-.548 1.695c-.14.695-.127 1.308.036 1.84.164.52.457.925.879 1.217.434.292.975.437 1.624.435.563-.002 1.028-.041 1.396-.118a4.26 4.26 0 00.924-.28c.249-.109.449-.202.6-.278a1.01 1.01 0 01.406-.115c.195 0 .325.059.39.178.065.108.081.255.049.44-.042.249-.22.493-.534.733-.302.24-.724.442-1.264.606-.53.153-1.185.231-1.964.234zM204.913 21c-.249.055-.438.056-.568.002a.39.39 0 01-.228-.26 1.19 1.19 0 01-.001-.39c.043-.196.172-.364.389-.506.216-.142.502-.245.859-.312.368-.066.768-.127 1.201-.182.443-.067.881-.122 1.314-.167.433-.055.844-.1 1.233-.133a13.9 13.9 0 011.055-.085c.325 0 .541.053.65.16.108.098.146.24.114.424a.831.831 0 01-.518.603c-.281.11-.589.181-.924.215-.39.023-.796.062-1.218.117a47.97 47.97 0 00-1.233.15c-.411.056-.8.117-1.168.183-.357.055-.676.116-.957.181zm.622-5.193c-.314 0-.542-.064-.683-.193a.482.482 0 01-.147-.488.706.706 0 01.178-.342.746.746 0 01.422-.246 23.742 23.742 0 012.369-.365c.854-.09 1.682-.157 2.482-.202.812-.046 1.515-.07 2.11-.072.271 0 .466.07.585.21.13.13.174.293.131.488a1.015 1.015 0 01-.275.505c-.14.131-.351.197-.632.198a33.07 33.07 0 00-2.5.088 27.74 27.74 0 00-1.801.168c-.498.067-.93.128-1.298.183a7.934 7.934 0 01-.941.068zm10.278 9.768c-1.233.003-2.115-.135-2.646-.416-.531-.28-.759-.605-.684-.974a.55.55 0 01.194-.375c.108-.087.254-.131.438-.132.151 0 .292.026.422.08.141.043.303.097.487.162.195.053.439.107.731.16a7.85 7.85 0 001.12.062c.444-.001.844-.03 1.201-.085.357-.066.671-.159.941-.28.27-.13.497-.272.681-.424-.001-.304-.132-.575-.392-.813a4.114 4.114 0 00-.975-.664c-.39-.205-.802-.416-1.235-.632a9.303 9.303 0 01-1.203-.712 2.958 2.958 0 01-.829-.942c-.185-.357-.229-.786-.133-1.285a3.09 3.09 0 01.76-1.483c.41-.457.896-.865 1.458-1.225a10.75 10.75 0 011.783-.933c.627-.262 1.227-.46 1.8-.591.584-.143 1.077-.215 1.477-.216.195 0 .352.032.471.096a.442.442 0 01.228.26.625.625 0 01.017.374.753.753 0 01-.259.457c-.14.12-.357.207-.649.262-1.103.21-2.06.483-2.871.822-.811.339-1.454.715-1.929 1.129-.464.413-.739.832-.825 1.255-.053.272.034.521.262.748.227.227.536.449.926.665.401.205.823.426 1.268.663.444.227.855.48 1.235.762.379.27.672.584.878.941.217.357.278.77.181 1.236a1.817 1.817 0 01-.501.93 2.79 2.79 0 01-.956.637 5.66 5.66 0 01-1.33.362 10.11 10.11 0 01-1.542.119zm8.141-3.8a.495.495 0 01-.406-.178.815.815 0 01-.147-.504c.02-.608.057-1.14.11-1.595.064-.467.144-.956.24-1.466.118-.564.225-1.042.322-1.433.107-.39.209-.75.306-1.075.097-.326.177-.657.241-.993.032-.196.108-.364.226-.506a.587.587 0 01.487-.229.61.61 0 01.536.292c.13.184.163.471.099.862a8.997 8.997 0 01-.225.863 23.55 23.55 0 00-.596 2.313c-.075.39-.128.716-.16.977-.032.26-.058.488-.079.684l-.064.553a4.06 4.06 0 01-.08.57c-.075.315-.194.538-.356.668-.151.13-.302.197-.454.197zm-.576 3.81c-.4.001-.709-.101-.926-.307-.217-.216-.288-.52-.213-.91a1.13 1.13 0 01.405-.701c.216-.175.459-.262.729-.263.477-.001.796.128.959.388.163.26.212.558.148.895a1.293 1.293 0 01-.356.62c-.173.184-.421.277-.746.278zM4.455 52.533c-.801.003-1.489-.13-2.063-.4a3.427 3.427 0 01-1.333-1.136 3.97 3.97 0 01-.637-1.626 5.785 5.785 0 01.06-1.92 7.42 7.42 0 01.678-1.955 7.773 7.773 0 011.052-1.533 7.833 7.833 0 011.166-1.11 7.03 7.03 0 011.037-.67c.303-.153.52-.23.649-.23a.82.82 0 01.292.048c.087.032.157.119.212.26.12.238.104.45-.047.635a2.271 2.271 0 01-.616.506 7.43 7.43 0 00-1.15.898c-.4.381-.767.849-1.101 1.403-.323.554-.565 1.206-.726 1.955-.118.619-.111 1.194.02 1.725.142.531.43.96.863 1.283.444.314 1.062.47 1.851.467a3.847 3.847 0 001.769-.444 4.628 4.628 0 001.49-1.274 4.445 4.445 0 00.856-1.94 8.848 8.848 0 00.142-1.904 5.414 5.414 0 00-.312-1.691c-.185-.51-.462-.916-.83-1.219-.359-.302-.808-.453-1.35-.452a.678.678 0 00-.567.279c-.129.174-.22.396-.274.668a.949.949 0 01-.275.538.69.69 0 01-.454.18.633.633 0 01-.373-.113.68.68 0 01-.245-.341 1.108 1.108 0 01-.017-.57 2.634 2.634 0 011.262-1.76 2.404 2.404 0 011.2-.297c.736-.002 1.37.186 1.9.564.532.378.944.892 1.238 1.543.304.639.49 1.37.557 2.195a8.724 8.724 0 01-.157 2.572 6.092 6.092 0 01-2.054 3.521 5.9 5.9 0 01-1.718.998 5.805 5.805 0 01-1.995.347zm6.831.014a.452.452 0 01-.358-.146.678.678 0 01-.147-.358 1.073 1.073 0 01.015-.488c.043-.195.146-.456.307-.782.172-.337.388-.712.647-1.125.259-.424.528-.847.809-1.271.302-.446.609-.886.922-1.321.323-.446.63-.843.922-1.191.292-.359.534-.642.729-.848.302-.305.588-.528.859-.67.28-.153.562-.23.843-.23.26-.001.439.09.536.275.098.173.174.395.229.666.055.282.104.613.148.993s.094.77.149 1.171c.055.39.12.77.197 1.139.088.455.17.846.246 1.171.088.325.17.602.246.83.087.227.168.422.244.585.076.14.136.265.18.373.043.109.06.223.05.342a.945.945 0 01-.13.407.76.76 0 01-.291.294.634.634 0 01-.373.115c-.206 0-.39-.096-.553-.291a3.113 3.113 0 01-.407-.83c-.12-.346-.23-.72-.328-1.121l-.213-.992a60.29 60.29 0 01-.23-1.367 44.743 44.743 0 01-.198-1.431 19.942 19.942 0 01-.084-1.14l.325.13c-.302.283-.631.642-.987 1.077a31.41 31.41 0 00-1.085 1.419 38.605 38.605 0 00-1.084 1.63c-.345.565-.662 1.13-.953 1.696a7.524 7.524 0 01-.615.961c-.162.218-.351.327-.567.328zm11.697-.067c-.53.002-.958-.083-1.283-.256a1.826 1.826 0 01-.732-.73 2.736 2.736 0 01-.294-1.025 4.47 4.47 0 01.078-1.14c.086-.444.22-.927.403-1.449.182-.532.317-.999.402-1.4.086-.456.14-.825.16-1.108.021-.282.053-.51.096-.684a.874.874 0 01.113-.309.843.843 0 01.227-.212.725.725 0 01.357-.083c.303 0 .509.134.617.405.12.26.142.586.068.977a8.39 8.39 0 01-.21.88 77.07 77.07 0 01-.306 1.01c-.107.347-.204.678-.29.993-.085.315-.15.58-.193.798a4.94 4.94 0 00-.095 1.074c.012.304.099.542.262.716.173.162.45.242.828.241.314 0 .644-.072.99-.214.345-.142.67-.333.972-.572.303-.24.55-.507.745-.8.194-.304.296-.608.306-.912 0-.141-.081-.25-.244-.325-.152-.086-.406-.13-.763-.128-.4.001-.806.03-1.217.085a16.379 16.379 0 00-2.125.429.483.483 0 01-.276-.048.472.472 0 01-.18-.179.42.42 0 01-.016-.26.8.8 0 01.145-.391.781.781 0 01.389-.245c.227-.088.492-.17.795-.247a12.114 12.114 0 012.012-.38c.335-.044.649-.067.94-.068.531-.001.937.068 1.219.209.292.14.493.335.601.584.11.25.153.536.132.862-.02.467-.17.928-.451 1.385-.28.456-.647.875-1.101 1.256a5.604 5.604 0 01-1.475.916 4.131 4.131 0 01-1.606.346zm6.601-.018c-.26.001-.454-.118-.585-.356-.12-.239-.163-.57-.132-.993.01-.184.042-.44.096-.765.053-.325.117-.69.192-1.09l.225-1.238c.085-.413.16-.793.224-1.14l.177-.83c.107-.565.252-.978.435-1.239.195-.272.476-.435.843-.49.346-.056.714-.095 1.104-.117a13.543 13.543 0 012.077-.023c.303.01.585.031.844.063.26.032.466.08.617.145a.514.514 0 01.326.568c-.042.218-.177.375-.404.474-.227.098-.47.147-.73.148a5.74 5.74 0 01-.617-.03 8.95 8.95 0 00-.6-.048 9.02 9.02 0 00-.861-.03c-.433.001-.8.024-1.104.068-.303.045-.643.11-1.022.198l.794-.523c-.086.283-.177.592-.274.929a41.01 41.01 0 00-.273 1.107 30.34 30.34 0 00-.29 1.368 23.514 23.514 0 00-.255 1.515c-.064.466-.112.862-.144 1.188a6.97 6.97 0 01-.08.635c-.032.174-.102.299-.21.375a.58.58 0 01-.373.131zm7.666-.022c-.498.002-.904-.116-1.218-.354-.304-.238-.515-.568-.635-.991-.11-.423-.11-.911-.004-1.465a5.947 5.947 0 01.533-1.564 7.97 7.97 0 01.986-1.5 7.782 7.782 0 011.28-1.257c.475-.37.972-.659 1.491-.866a4.365 4.365 0 011.59-.314c.249 0 .444.064.585.194.14.13.184.324.13.585a.62.62 0 01-.177.342c-.097.087-.238.142-.422.164-.757.11-1.46.384-2.108.82a6.193 6.193 0 00-1.603 1.583c-.42.609-.7 1.25-.84 1.923a4.298 4.298 0 00-.095.863c0 .25.055.575.164.976l-.619-1.121c.195.249.369.41.52.486.163.076.39.113.682.112.693-.002 1.395-.448 2.107-1.34.713-.892 1.37-2.19 1.972-3.895.075-.207.178-.364.307-.473.14-.12.303-.18.487-.18a.624.624 0 01.569.323c.14.206.2.472.18.797a29.602 29.602 0 00-.06 1.856c.011.542.072 1.052.181 1.529.12.477.327.97.62 1.48a.618.618 0 01.082.373.799.799 0 01-.113.408.89.89 0 01-.275.326.661.661 0 01-.39.115.69.69 0 01-.389-.097.84.84 0 01-.228-.276 7.497 7.497 0 01-.407-.894 6.391 6.391 0 01-.295-1.073 8.365 8.365 0 01-.084-1.448c.01-.554.062-1.21.157-1.97l.585-.018c-.355 1.086-.748 2.004-1.179 2.754-.431.739-.884 1.337-1.36 1.794-.464.446-.928.773-1.393.98-.465.208-.903.312-1.314.313zm21.342-.027c-.249 0-.422-.178-.52-.536-.088-.369-.105-.879-.053-1.53.053-.65.165-1.405.336-2.263.065-.326.156-.744.273-1.254.118-.521.247-1.075.386-1.661a154.585 154.585 0 00.74-3.322l.277.503c-.26-.053-.655-.1-1.186-.143a35.386 35.386 0 00-1.818-.092 46.427 46.427 0 00-2.175-.043c-.281.001-.552.007-.811.019-.26.011-.498.028-.714.05-.217.012-.406.018-.568.019-.163 0-.32-.027-.471-.08a.847.847 0 01-.358-.227.328.328 0 01-.065-.31.757.757 0 01.323-.472c.173-.12.41-.202.714-.246a5.929 5.929 0 011.038-.085 91.256 91.256 0 013.393.056c.54.02 1.022.046 1.445.077l.973.046c.596.042.996.155 1.202.338.206.173.266.493.18.96-.095.456-.208.95-.337 1.482a81.87 81.87 0 01-.37 1.564c-.117.52-.23 1.01-.337 1.465-.107.456-.193.842-.257 1.157-.182.922-.294 1.71-.336 2.36-.03.64-.073 1.08-.127 1.319-.032.163-.08.31-.145.44a.69.69 0 01-.259.294.59.59 0 01-.373.114zm-6.525.002a.57.57 0 01-.438-.194c-.109-.141-.18-.33-.213-.57a2.572 2.572 0 01.047-.846c.075-.401.166-.836.273-1.303l.37-1.498c.129-.521.247-1.058.354-1.612.085-.424.176-.901.272-1.433.097-.543.177-1.086.24-1.628a7.68 7.68 0 00.046-1.465l1.525-.314c0 .413-.03.88-.094 1.4a25.807 25.807 0 01-.208 1.563 20.78 20.78 0 01-.257 1.45l-.224 1.14-.273 1.335c-.096.456-.193.895-.29 1.319l-.224 1.107c-.064.315-.113.538-.145.668-.064.315-.166.543-.307.684a.623.623 0 01-.454.197zm11.38-.032c-.368 0-.66-.085-.877-.258a1.521 1.521 0 01-.456-.683 2.976 2.976 0 01-.148-.943c.01-.347.047-.684.111-1.01.065-.282.15-.618.258-1.01.118-.39.247-.797.387-1.221.14-.424.274-.82.403-1.19.14-.369.253-.657.339-.863.14-.38.263-.673.371-.88.119-.206.26-.31.421-.31a.6.6 0 01.39.145.83.83 0 01.26.374c.066.151.083.32.05.504a5.146 5.146 0 01-.225.75c-.118.325-.253.69-.403 1.091-.15.402-.296.81-.436 1.222-.14.402-.242.766-.306 1.091a6.196 6.196 0 00-.128.847c-.02.26-.01.477.034.65.044.163.136.245.277.244.346 0 .783-.311 1.312-.931.54-.62 1.139-1.474 1.796-2.56.302-.479.566-.924.793-1.337.226-.413.425-.772.598-1.076.172-.315.34-.56.501-.734.162-.174.324-.261.487-.262.248 0 .427.097.536.292.12.184.174.433.164.748 0 .282-.01.63-.03 1.041l-.03 1.27c-.01.423-.009.82.003 1.188.034.63.094 1.145.182 1.546.098.39.185.704.261.943.077.238.11.434.1.586a.801.801 0 01-.114.342.871.871 0 01-.243.245.572.572 0 01-.324.098c-.249 0-.455-.113-.617-.34-.153-.227-.272-.547-.36-.96a13.542 13.542 0 01-.214-1.447c-.022-.39-.045-.808-.068-1.253a27.36 27.36 0 01-.003-1.335c.021-.444.042-.857.063-1.237l.47.162c-.129.25-.269.516-.42.798-.14.283-.312.604-.517.962-.194.348-.436.76-.727 1.24A16.83 16.83 0 0166.17 50.6a7.45 7.45 0 01-1.344 1.29c-.454.326-.913.49-1.379.492zm11.926-.067c-.8.002-1.461-.153-1.981-.466a2.601 2.601 0 01-1.074-1.332c-.196-.574-.22-1.236-.07-1.985a5.38 5.38 0 01.694-1.776 5.732 5.732 0 011.263-1.436 6.055 6.055 0 011.654-.965 5.09 5.09 0 011.833-.347c.281 0 .53.042.747.128a.849.849 0 01.471.357c.109.152.136.342.083.57a.95.95 0 01-.243.488.607.607 0 01-.421.164.493.493 0 01-.276-.064 3.66 3.66 0 00-.212-.13c-.065-.043-.178-.064-.34-.064a3.4 3.4 0 00-1.736.477c-.54.305-1 .708-1.377 1.209a3.964 3.964 0 00-.727 1.58c-.075.456-.063.852.035 1.188.109.325.304.58.586.763.293.184.65.275 1.072.274.476-.001.855-.057 1.136-.166a2.51 2.51 0 00.664-.392c.173-.142.313-.267.421-.376a.492.492 0 01.373-.18c.206 0 .347.048.423.145.086.098.108.266.066.505a1.855 1.855 0 01-.55.961 3.05 3.05 0 01-1.102.638c-.433.153-.903.23-1.412.232zm7.239-.004c-.53.001-.958-.084-1.283-.257a1.825 1.825 0 01-.732-.73 2.736 2.736 0 01-.294-1.025c-.023-.38.004-.76.078-1.14.086-.444.22-.927.403-1.449.183-.532.317-.999.403-1.4.085-.456.138-.826.16-1.108.02-.282.052-.51.095-.684a.875.875 0 01.113-.31.84.84 0 01.227-.211.725.725 0 01.357-.083c.303 0 .509.135.618.405.12.26.141.586.067.977a8.39 8.39 0 01-.21.88 77.07 77.07 0 01-.306 1.01c-.107.347-.204.678-.29.993-.085.315-.15.58-.192.798a4.94 4.94 0 00-.095 1.074c.011.304.098.542.26.715.174.163.45.243.83.242.313 0 .643-.072.989-.214.346-.142.67-.333.972-.573.303-.239.551-.506.745-.8a1.8 1.8 0 00.306-.911c0-.141-.081-.25-.244-.325-.151-.087-.406-.13-.763-.128-.4.001-.806.03-1.217.085a16.434 16.434 0 00-2.125.429.484.484 0 01-.276-.048.472.472 0 01-.18-.179.42.42 0 01-.016-.26.8.8 0 01.145-.391.78.78 0 01.39-.245c.226-.088.491-.17.794-.247a12.104 12.104 0 012.012-.38c.335-.044.649-.067.941-.068.53-.001.936.068 1.218.209.292.14.493.335.602.584.108.25.152.537.131.862-.02.467-.17.928-.451 1.385-.28.456-.647.875-1.1 1.256a5.603 5.603 0 01-1.476.916 4.131 4.131 0 01-1.606.346zm6.472-.002c-.26 0-.455-.15-.586-.454-.13-.304-.137-.76-.019-1.367l.177-.798a15.5 15.5 0 01.306-1.14 14.3 14.3 0 01.516-1.353c.366-.825.695-1.477.986-1.956.29-.488.577-.842.858-1.06.28-.218.567-.327.86-.328.226 0 .4.091.52.276.13.184.222.406.276.666.055.26.1.52.132.78.044.348.1.733.165 1.156.077.423.159.851.246 1.285.099.434.208.846.328 1.236.13.39.277.72.44.991l-.584.132c.313-.62.647-1.238 1.002-1.858.356-.62.712-1.212 1.068-1.777.355-.565.69-1.07 1.002-1.516.346-.468.637-.8.875-.996.248-.196.47-.294.665-.294.14 0 .27.031.39.096.119.054.221.119.308.194.12.12.212.266.277.44.065.173.077.433.034.78a29.63 29.63 0 00-.19 2.117 26.54 26.54 0 00-.013 1.562c.013.749.068 1.345.167 1.79.109.444.147.732.115.862a.49.49 0 01-.226.342.669.669 0 01-.438.148c-.26 0-.477-.123-.65-.372-.163-.25-.267-.585-.31-1.008a20.74 20.74 0 01-.102-1.481c-.012-.597.003-1.264.045-2.002a30.1 30.1 0 01.254-2.312l.47-.115c-.258.38-.55.815-.873 1.304-.313.478-.636.979-.97 1.5a85.183 85.183 0 00-.938 1.55c-.291.51-.55.993-.776 1.45-.119.206-.259.37-.421.49a.84.84 0 01-.535.18c-.26 0-.477-.059-.65-.177a1.711 1.711 0 01-.423-.52 5.994 5.994 0 01-.294-.748l-.18-.634a22.574 22.574 0 01-.608-3.204 9.942 9.942 0 01-.067-1.09l.487-.132a17.97 17.97 0 00-.97 1.565c-.27.51-.501 1.037-.695 1.58a14.208 14.208 0 00-.467 1.727 17.5 17.5 0 00-.192 1.107 8.325 8.325 0 01-.096.717 1.131 1.131 0 01-.226.472c-.108.13-.265.196-.47.197zm15.39-.06c-.898.002-1.596-.158-2.095-.482a2.311 2.311 0 01-.977-1.349c-.152-.574-.159-1.22-.02-1.936a6.069 6.069 0 01.613-1.597 6.752 6.752 0 011.117-1.484 5.5 5.5 0 011.507-1.062 4.026 4.026 0 011.768-.412c.855-.002 1.483.202 1.884.613.412.411.538 1.018.378 1.822a2.752 2.752 0 01-.792 1.516c-.422.402-.946.713-1.573.932a5.97 5.97 0 01-1.995.33c-.736.003-1.229-.082-1.478-.255-.238-.173-.336-.368-.293-.585.021-.13.069-.223.145-.278.076-.065.195-.098.357-.098.119 0 .26.02.422.064.173.032.428.047.763.046a4.388 4.388 0 001.46-.232c.444-.153.806-.36 1.086-.621a1.81 1.81 0 00.534-.93c.064-.325.02-.569-.132-.731-.141-.163-.422-.243-.844-.242a2.83 2.83 0 00-1.573.493 4.732 4.732 0 00-1.296 1.29 4.628 4.628 0 00-.71 1.742 2.77 2.77 0 00-.014 1.075c.065.314.228.574.489.78.27.194.655.29 1.153.29.562-.002 1.044-.074 1.444-.216a4.66 4.66 0 001.037-.524c.281-.196.519-.365.713-.507.195-.141.368-.212.519-.213.184 0 .314.07.39.21.087.13.109.304.066.521-.043.217-.188.446-.436.685a4.214 4.214 0 01-.94.654 6.07 6.07 0 01-1.265.508 5.54 5.54 0 01-1.412.183zm6.743-.003a.667.667 0 01-.601-.34c-.141-.227-.229-.542-.262-.943-.022-.413.02-.895.127-1.45.128-.575.273-1.009.435-1.302.173-.305.367-.511.583-.62.119-.066.287-.104.503-.116.216-.022.443-.034.682-.034a23.803 23.803 0 002.337-.12 11.793 11.793 0 002.287-.495l.295 1.122a9.32 9.32 0 01-1.817.493 19.72 19.72 0 01-1.98.233 39.29 39.29 0 01-1.931.055l-.942-.144c.139-.64.284-1.314.434-2.02.15-.705.278-1.335.385-1.888.043-.26.129-.473.258-.636.13-.163.276-.245.438-.245.271 0 .471.107.601.324.131.205.148.536.051.992-.042.24-.107.527-.192.863-.086.337-.178.69-.274 1.059-.086.37-.172.722-.257 1.059-.075.325-.134.597-.177.814-.129.63-.225 1.194-.289 1.693-.053.489-.1.858-.143 1.107a.68.68 0 01-.21.375.446.446 0 01-.341.164zm5.6-.016c-.271.001-.466-.156-.586-.47-.108-.315-.158-.743-.148-1.285.02-.554.094-1.162.223-1.824a47.55 47.55 0 01.562-2.475 15.8 15.8 0 01.468-1.466c.086-.24.193-.451.323-.636.129-.185.286-.278.47-.278.238 0 .406.113.504.34.109.217.131.483.067.798a8.77 8.77 0 01-.355 1.27c-.15.456-.273.95-.37 1.482a19.132 19.132 0 00-.272 1.775c-.042.52-.068.96-.078 1.318-.01.358-.036.624-.079.798a.758.758 0 01-.259.473.709.709 0 01-.47.18zm4.18-.011a.666.666 0 01-.601-.34c-.142-.228-.229-.543-.262-.944-.023-.412.019-.895.126-1.449.086-.38.177-.7.274-.96.108-.261.221-.468.34-.62a1.15 1.15 0 01.405-.343c.119-.066.286-.104.503-.115a6.71 6.71 0 01.681-.035 23.74 23.74 0 002.337-.12 11.787 11.787 0 002.288-.495l.294 1.122a9.29 9.29 0 01-1.816.493 19.75 19.75 0 01-1.98.234 39.29 39.29 0 01-1.931.054l-.942-.144c.096-.434.193-.88.289-1.335.096-.456.187-.907.273-1.352.096-.445.182-.852.257-1.221.043-.26.129-.472.258-.636.13-.163.276-.244.438-.245.27 0 .471.107.601.324.13.206.147.537.051.992-.043.24-.107.527-.193.864-.086.336-.177.69-.273 1.058a51.4 51.4 0 01-.258 1.059c-.075.326-.134.597-.176.814-.129.63-.225 1.194-.289 1.694-.053.488-.101.857-.143 1.107a.688.688 0 01-.211.375.444.444 0 01-.34.163zm5.6-.017c-.271.001-.466-.156-.586-.47-.109-.314-.158-.743-.149-1.285.021-.554.095-1.161.223-1.824.215-1.042.402-1.867.563-2.475a16.33 16.33 0 01.467-1.466 2.67 2.67 0 01.324-.636c.129-.184.286-.277.47-.278.238 0 .406.113.504.34.108.217.131.483.066.798-.075.39-.193.814-.354 1.27-.15.456-.274.95-.37 1.482a19.139 19.139 0 00-.272 1.775c-.042.521-.068.96-.078 1.319-.01.358-.037.624-.08.797a.762.762 0 01-.258.473.71.71 0 01-.47.18zm4.915-.03c-.497.002-.903-.117-1.218-.354-.303-.238-.515-.569-.635-.991-.109-.423-.11-.911-.003-1.465a5.927 5.927 0 01.532-1.564 7.94 7.94 0 01.987-1.5 7.78 7.78 0 011.279-1.257 6.11 6.11 0 011.491-.867 4.366 4.366 0 011.59-.313c.249-.001.444.063.585.193.141.13.185.325.131.586a.611.611 0 01-.178.342c-.097.087-.237.142-.421.164-.757.11-1.46.384-2.108.82a6.195 6.195 0 00-1.604 1.583 5.23 5.23 0 00-.839 1.923 4.216 4.216 0 00-.096.863c.001.25.055.575.165.976l-.62-1.122c.196.25.369.412.521.487.162.076.39.113.682.112.692-.002 1.395-.449 2.107-1.34.712-.892 1.369-2.19 1.971-3.896.075-.206.178-.364.308-.472.14-.12.302-.18.486-.18a.62.62 0 01.569.323c.141.206.201.471.18.797a29.616 29.616 0 00-.061 1.855c.012.543.073 1.053.182 1.53.12.477.327.97.62 1.48a.61.61 0 01.082.373.795.795 0 01-.112.407.893.893 0 01-.276.327.66.66 0 01-.389.115.693.693 0 01-.39-.097.845.845 0 01-.227-.276 7.398 7.398 0 01-.408-.894 6.4 6.4 0 01-.295-1.073 8.32 8.32 0 01-.084-1.448c.009-.554.062-1.21.158-1.97l.584-.018c-.462 1.433-1 2.58-1.615 3.438-.604.86-1.225 1.474-1.863 1.845-.637.37-1.227.557-1.768.558zm14.058-.023a.659.659 0 01-.634-.39c-.119-.27-.185-.6-.197-.991 0-.196.005-.418.015-.668.01-.25.031-.504.063-.765.043-.26.08-.5.112-.716l.161-.733c.075-.293.15-.592.225-.896.086-.315.161-.602.225-.863.076-.272.129-.478.161-.619.022-.141-.011-.244-.098-.309-.086-.076-.238-.113-.454-.113a5.378 5.378 0 00-.568.035 8.917 8.917 0 00-.666.1 5.08 5.08 0 00-1.476.524c-.421.23-.658.49-.712.783a.981.981 0 00.083.684c.119.195.352.351.699.47.357.118.871.176 1.542.174a14.177 14.177 0 001.396-.068 7.68 7.68 0 01.568-.067 2.77 2.77 0 01.292-.034c.27 0 .498.015.682.047.184.032.254.146.211.341a.727.727 0 01-.356.522c-.194.13-.454.224-.778.279a6.572 6.572 0 01-1.104.084l-1.671.005a4.4 4.4 0 01-1.624-.288c-.487-.194-.861-.47-1.122-.827-.249-.357-.332-.775-.246-1.252.064-.294.204-.598.42-.913.226-.326.55-.63.972-.914.432-.283.994-.513 1.686-.688a8.296 8.296 0 011.249-.248c.336-.034.671-.05 1.007-.052.422-.001.752.058.99.176.238.119.401.281.488.487.098.206.12.445.067.716a8.542 8.542 0 01-.21.83 69.2 69.2 0 00-.29.978 83.7 83.7 0 00-.225.88 14.32 14.32 0 00-.239 1.71 9.492 9.492 0 00-.031.732c0 .238.006.493.018.764.022.26.022.44.001.537a.635.635 0 01-.21.392.608.608 0 01-.422.164zm-5.713 0a.557.557 0 01-.455-.194.603.603 0 01-.099-.472.797.797 0 01.243-.359c.13-.13.346-.272.648-.425a8.54 8.54 0 001.54-1.013 19.687 19.687 0 001.555-1.388l1.024.583a18.078 18.078 0 01-2.462 2.237 8.458 8.458 0 01-1.135.752c-.345.185-.632.278-.859.279zM1.679 67.024c-.368.001-.66-.085-.877-.258a1.52 1.52 0 01-.456-.682 2.973 2.973 0 01-.148-.943c.01-.348.047-.684.111-1.01.064-.282.15-.619.257-1.01a60.104 60.104 0 01.79-2.411c.14-.369.253-.657.34-.863.14-.38.263-.674.37-.88.12-.206.26-.31.422-.31.14 0 .27.048.39.145.12.097.206.222.26.374.066.151.082.32.05.504a5.139 5.139 0 01-.225.75c-.119.325-.253.689-.404 1.09-.15.403-.295.81-.435 1.223a8.18 8.18 0 00-.306 1.091 6.196 6.196 0 00-.128.847c-.021.26-.01.477.034.65.043.163.136.244.276.244.347-.001.784-.312 1.313-.931.54-.62 1.138-1.474 1.796-2.56.302-.479.566-.925.792-1.338.226-.413.426-.771.598-1.075.173-.316.34-.56.502-.734.162-.174.324-.261.486-.262.249 0 .428.097.536.292.12.184.175.433.164.748.001.282-.009.629-.03 1.041l-.03 1.27c-.01.423-.008.82.003 1.188.034.63.095 1.144.182 1.546.099.39.186.704.262.943.076.238.11.433.099.585a.8.8 0 01-.113.343.872.872 0 01-.243.244.572.572 0 01-.324.099c-.38 0-.65-.248-.814-.746-.163-.5-.289-1.166-.377-2.001-.023-.39-.045-.808-.068-1.253-.012-.445-.013-.89-.003-1.335.02-.445.041-.857.062-1.237l.471.162c-.183.38-.398.798-.646 1.255a41.641 41.641 0 01-1.019 1.744 16.84 16.84 0 01-1.197 1.68c-.432.522-.88.952-1.345 1.29-.453.326-.913.49-1.378.491zm17.257-.032a1.67 1.67 0 01-1.185-.453c-.315-.303-.56-.714-.734-1.234-.174-.52-.273-1.117-.296-1.79a9.54 9.54 0 01.207-2.1c.085-.434.17-.836.257-1.205.096-.37.204-.733.322-1.091.118-.359.252-.744.403-1.157.161-.424.35-.907.565-1.45.075-.196.167-.326.275-.392a.719.719 0 01.422-.115.43.43 0 01.34.178c.098.109.153.26.164.456.022.195-.015.417-.112.667-.215.576-.398 1.08-.548 1.515-.14.435-.264.853-.37 1.255-.097.401-.194.836-.29 1.302a12.661 12.661 0 00-.224 1.645 6.5 6.5 0 00.068 1.334c.066.38.164.678.294.894.142.206.32.309.537.308.324 0 .665-.061 1.022-.182a6.1 6.1 0 001.005-.474c.324-.197.6-.415.826-.654.227-.24.356-.473.388-.7.032-.164-.044-.332-.228-.505-.174-.184-.439-.351-.796-.502a6.53 6.53 0 00-1.267-.37 7.08 7.08 0 00-1.559-.127c-.303.012-.54-.036-.714-.144-.163-.108-.217-.298-.164-.57.043-.173.162-.309.356-.407.195-.109.525-.213.99-.312.4-.077.81-.181 1.233-.313.432-.131.848-.273 1.248-.426.411-.154.784-.317 1.12-.492.334-.174.61-.354.826-.54.216-.184.34-.358.372-.521a.766.766 0 00-.212-.683c-.174-.206-.44-.379-.797-.519a5.636 5.636 0 00-1.25-.322 10.119 10.119 0 00-1.559-.11c-.39.002-.768.008-1.136.02l-.795.003a.48.48 0 01-.374-.162.487.487 0 01-.098-.423c.053-.282.264-.505.631-.669.368-.164.876-.247 1.525-.248.866-.003 1.661.06 2.387.188.736.128 1.358.327 1.868.597.509.27.883.61 1.122 1.022.239.4.3.878.181 1.432-.064.326-.28.663-.646 1.01-.357.349-.908.692-1.654 1.03-.746.34-1.719.657-2.92.953l.032-.456c.812.074 1.472.213 1.981.418.52.193.91.42 1.17.68.272.26.445.536.522.828.087.282.104.559.05.83a2.71 2.71 0 01-.63 1.272 4.852 4.852 0 01-1.199 1.028 7.206 7.206 0 01-1.491.704 4.79 4.79 0 01-1.46.249zm9.98-.062c-.671.003-1.234-.088-1.689-.271-.444-.194-.785-.459-1.024-.795a2.793 2.793 0 01-.457-1.203 4.782 4.782 0 01.078-1.497 6.07 6.07 0 01.613-1.597 6.753 6.753 0 011.116-1.484 5.52 5.52 0 011.508-1.062 4.027 4.027 0 011.768-.412c.573-.002 1.044.09 1.412.273.38.183.64.453.781.811.153.358.175.808.068 1.35a2.764 2.764 0 01-.533 1.19 3.496 3.496 0 01-.988.866 5.31 5.31 0 01-1.313.54 6.274 6.274 0 01-1.526.184c-.736.002-1.228-.084-1.477-.256-.239-.173-.337-.368-.294-.586.022-.13.07-.222.146-.276.075-.066.194-.099.357-.1.119 0 .26.022.422.065.173.032.427.047.763.046a4.397 4.397 0 001.46-.232c.443-.153.805-.36 1.086-.621a1.81 1.81 0 00.534-.93c.064-.325.02-.569-.132-.731-.14-.163-.422-.243-.844-.242-.422.001-.828.1-1.217.296a4.152 4.152 0 00-1.07.768 4.787 4.787 0 00-1.293 2.462c-.075.39-.08.748-.013 1.074.065.314.228.574.488.78.271.194.655.29 1.153.29.563-.002 1.044-.074 1.444-.216a4.69 4.69 0 001.038-.524c.28-.196.518-.365.713-.507.194-.141.367-.212.519-.213.184 0 .314.07.39.21.087.13.109.304.066.521-.043.217-.188.446-.437.685-.237.228-.55.446-.94.654a6.05 6.05 0 01-1.264.508 5.6 5.6 0 01-1.412.183zm9.404-.107c-.519.001-.973-.068-1.363-.208-.39-.14-.688-.323-.894-.55-.206-.228-.288-.466-.245-.716a.8.8 0 01.178-.342.434.434 0 01.34-.148c.108 0 .206.027.292.08l.31.195c.118.076.292.146.52.21.226.054.535.08.924.079.606-.002 1.13-.15 1.574-.444.454-.305.745-.821.873-1.548.107-.51.111-.972.013-1.384a2.47 2.47 0 00-.506-1.089 2.35 2.35 0 00-.959-.713 3.424 3.424 0 00-1.331-.24c-.25 0-.503.028-.763.083a3.4 3.4 0 01-.681.083.656.656 0 01-.325-.08.466.466 0 01-.196-.26.665.665 0 01-.017-.326c.065-.293.259-.516.583-.669.335-.163.844-.246 1.525-.248.725-.002 1.37.12 1.933.369a3.65 3.65 0 011.414 1.054c.369.444.62.98.75 1.609.142.618.139 1.307-.011 2.067a3.82 3.82 0 01-.517 1.336 3.685 3.685 0 01-.874.995 3.983 3.983 0 01-1.167.606 4.768 4.768 0 01-1.38.199zM34.517 71a.598.598 0 01-.341-.097.422.422 0 01-.18-.26.925.925 0 010-.423c.032-.163.09-.315.177-.456.076-.13.162-.293.259-.489.097-.185.199-.424.306-.717.108-.293.21-.679.306-1.156.16-.793.246-1.585.255-2.377.009-.792.012-1.595.01-2.409.01-.825.089-1.65.238-2.474.054-.272.145-.473.275-.603a.686.686 0 01.503-.213.54.54 0 01.422.178c.12.108.2.26.245.455.043.184.038.39-.015.618-.129.651-.208 1.27-.24 1.856-.02.575-.03 1.14-.028 1.693a27.85 27.85 0 01-.013 1.66c-.02.553-.09 1.123-.207 1.71a11.34 11.34 0 01-.354 1.449c-.14.434-.296.804-.468 1.108-.162.304-.34.538-.534.701a.909.909 0 01-.616.246zm11.277-4.117c-.498.001-.904-.117-1.218-.355-.304-.238-.515-.568-.635-.99-.11-.423-.11-.912-.004-1.465a5.953 5.953 0 01.532-1.564c.27-.533.599-1.033.987-1.5a7.785 7.785 0 011.28-1.257 6.11 6.11 0 011.491-.867 4.364 4.364 0 011.59-.314c.249 0 .444.064.585.194.14.13.184.325.13.585a.619.619 0 01-.177.343c-.097.087-.238.142-.422.164-.757.11-1.46.384-2.108.82a6.194 6.194 0 00-1.603 1.583c-.42.608-.7 1.25-.84 1.923a4.298 4.298 0 00-.095.862c0 .25.055.575.164.976l-.62-1.12c.196.248.37.41.521.486.163.075.39.113.682.112.693-.002 1.395-.449 2.107-1.34.712-.892 1.37-2.19 1.972-3.896.075-.206.178-.364.307-.473.14-.12.303-.18.487-.18.249 0 .438.107.569.324.14.206.2.471.18.797a29.6 29.6 0 00-.061 1.855c.012.543.073 1.052.182 1.53.12.477.327.97.62 1.479a.618.618 0 01.082.374.798.798 0 01-.113.407.89.89 0 01-.275.326.661.661 0 01-.39.115.69.69 0 01-.389-.096.842.842 0 01-.228-.276 7.481 7.481 0 01-.408-.894 6.384 6.384 0 01-.294-1.073 8.375 8.375 0 01-.084-1.449c.01-.553.062-1.21.157-1.97l.585-.017c-.355 1.086-.748 2.004-1.179 2.753-.431.74-.884 1.337-1.36 1.795-.464.446-.928.773-1.393.98-.465.208-.903.312-1.314.313zm19.508-.137c-1.212.004-2.197-.064-2.955-.203-.747-.15-1.304-.381-1.673-.695a1.984 1.984 0 01-.684-1.186c-.077-.488-.052-1.069.077-1.742.086-.412.187-.885.305-1.417s.247-1.074.386-1.628c.14-.565.273-1.102.402-1.612s.247-.962.354-1.352c.108-.391.194-.674.258-.847.086-.326.188-.56.307-.701.13-.152.275-.229.438-.23.184 0 .33.06.438.179a.8.8 0 01.212.438 1.29 1.29 0 01-.015.538 10.85 10.85 0 01-.225.912c-.118.412-.252.9-.402 1.465-.14.565-.29 1.178-.45 1.84-.15.652-.29 1.314-.418 1.988-.161.803-.22 1.378-.175 1.725.055.347.201.591.44.731.206.12.482.216.828.291.347.064.747.112 1.202.143.465.02.974.03 1.525.028a48.856 48.856 0 002.808-.073c.736-.056 1.315-.15 1.736-.281.422-.143.73-.35.924-.621.108-.131.221-.343.34-.636.118-.304.23-.657.338-1.059a13.5 13.5 0 00.305-1.27c.129-.64.23-1.265.305-1.873a43.55 43.55 0 00.174-1.677l.111-1.302c.032-.358.058-.602.08-.733a1.39 1.39 0 01.161-.342c.087-.12.19-.217.308-.294a.71.71 0 01.39-.115c.183 0 .335.086.454.26.13.162.19.373.18.634 0 .184-.02.483-.063.895-.042.401-.095.863-.159 1.384a29.435 29.435 0 01-.207 1.595 32.773 32.773 0 01-.24 1.482c-.075.37-.15.722-.225 1.059-.075.336-.156.656-.242.96-.086.294-.166.565-.241.815a4.357 4.357 0 01-.242.62 2.356 2.356 0 01-.923 1.027c-.41.25-.914.442-1.509.574a13.71 13.71 0 01-2.093.234c-.79.045-1.671.07-2.645.072zm-.05-.83c.02-.564.078-1.226.173-1.986.107-.77.256-1.606.45-2.507.096-.445.203-.912.32-1.4.119-.49.231-.962.338-1.418l.29-1.254c.096-.38.171-.684.225-.912a3.27 3.27 0 01.161-.57c.064-.174.145-.31.243-.407a.462.462 0 01.356-.164c.173 0 .314.059.423.178.108.119.179.287.212.504.033.206.022.439-.031.7a36.098 36.098 0 01-.498 2.182 67.41 67.41 0 00-.611 2.59 35.077 35.077 0 00-.433 2.377c-.096.738-.16 1.383-.19 1.937l-1.429.15zm11.482.879c-.498.002-.904-.117-1.218-.354-.304-.238-.516-.569-.635-.991-.11-.423-.11-.911-.004-1.465a5.953 5.953 0 01.532-1.564 8.06 8.06 0 01.987-1.5 7.777 7.777 0 011.28-1.257c.475-.37.972-.66 1.49-.867a4.364 4.364 0 011.59-.313c.25-.001.445.063.586.193.14.13.184.325.13.586a.62.62 0 01-.177.342c-.097.087-.238.142-.422.164-.757.11-1.46.384-2.108.82a6.195 6.195 0 00-1.603 1.583c-.42.609-.7 1.25-.84 1.923a4.306 4.306 0 00-.095.863c0 .25.055.575.164.976l-.62-1.122c.196.25.37.412.521.487.163.076.39.113.682.112.693-.002 1.395-.449 2.107-1.34.712-.892 1.37-2.19 1.972-3.896.075-.206.178-.364.307-.472a.73.73 0 01.487-.18.618.618 0 01.568.323c.142.206.202.471.18.797a29.53 29.53 0 00-.06 1.855 7.6 7.6 0 00.182 1.53c.12.477.327.97.62 1.48a.618.618 0 01.082.373.8.8 0 01-.113.407.89.89 0 01-.275.327.661.661 0 01-.39.115.69.69 0 01-.389-.097.84.84 0 01-.228-.276 7.483 7.483 0 01-.408-.894 6.39 6.39 0 01-.294-1.073 8.365 8.365 0 01-.085-1.448c.01-.554.063-1.21.158-1.97l.585-.018c-.355 1.086-.748 2.004-1.179 2.754-.431.739-.884 1.337-1.36 1.794-.464.446-.928.773-1.393.98-.465.208-.903.312-1.314.313zm8.314-6.598c-.248 0-.443-.075-.584-.227a.571.571 0 01-.131-.52.63.63 0 01.194-.31c.097-.087.27-.163.519-.23.389-.109.908-.208 1.557-.296.66-.09 1.428-.135 2.305-.137.454-.002.87.008 1.25.029.389.01.816.046 1.282.11.368.042.65.128.844.258.206.13.293.276.261.439a.74.74 0 01-.145.326.685.685 0 01-.292.212 1.1 1.1 0 01-.454.083c-.227 0-.492-.01-.796-.03-.303-.021-.627-.042-.974-.063a10.757 10.757 0 00-1.038-.046c-.747.002-1.347.037-1.802.103a9.337 9.337 0 00-1.136.198c-.302.066-.59.1-.86.1zm2.369 6.6a.586.586 0 01-.537-.29 2.183 2.183 0 01-.229-.749 6.526 6.526 0 01-.002-.928c.032-.401.085-.835.16-1.302.075-.478.155-.939.24-1.384.118-.597.22-1.124.305-1.58.096-.467.171-.852.225-1.156l1.46-.102-.16.7c-.054.272-.113.581-.177.929-.064.336-.134.684-.209 1.042-.064.347-.128.684-.192 1.01a12.86 12.86 0 00-.208 1.367 8.46 8.46 0 00-.014.88c.01.227.022.417.033.569.012.14.006.271-.015.39a.859.859 0 01-.13.326.61.61 0 01-.242.196.625.625 0 01-.308.082zm6.388-.05c-.498.001-.904-.117-1.218-.355-.304-.238-.516-.568-.636-.99-.109-.424-.11-.912-.003-1.465a5.953 5.953 0 01.532-1.564c.27-.533.599-1.033.987-1.5a7.782 7.782 0 011.28-1.257c.475-.37.972-.66 1.49-.867a4.364 4.364 0 011.59-.314c.25 0 .445.064.585.194.141.13.185.325.132.585a.618.618 0 01-.178.343c-.097.087-.238.141-.422.164-.757.11-1.46.384-2.108.82a6.194 6.194 0 00-1.603 1.583c-.421.608-.7 1.25-.84 1.922a4.291 4.291 0 00-.096.863c.001.25.056.575.165.976l-.62-1.121c.196.249.37.411.521.487.163.075.39.113.682.112.693-.002 1.395-.449 2.107-1.34.712-.892 1.37-2.19 1.972-3.896.075-.206.177-.364.307-.473.14-.12.303-.18.487-.18a.622.622 0 01.568.324c.141.205.201.471.18.797a29.594 29.594 0 00-.06 1.855c.012.542.073 1.052.182 1.53.12.477.327.97.62 1.479a.623.623 0 01.082.374.797.797 0 01-.113.407.882.882 0 01-.275.326.661.661 0 01-.39.115.69.69 0 01-.39-.096.84.84 0 01-.227-.276 7.467 7.467 0 01-.408-.894 6.4 6.4 0 01-.294-1.074 8.376 8.376 0 01-.085-1.448c.01-.553.063-1.21.158-1.97l.585-.017c-.355 1.086-.748 2.004-1.18 2.753-.43.74-.883 1.337-1.359 1.795-.464.446-.928.772-1.393.98-.465.207-.903.312-1.314.313zm7.987.01a.45.45 0 01-.357-.146.677.677 0 01-.147-.357 1.07 1.07 0 01.015-.489c.043-.195.145-.456.306-.782a15.3 15.3 0 01.647-1.125c.259-.423.528-.847.809-1.271.302-.446.609-.886.922-1.321.324-.446.631-.843.923-1.19.291-.36.534-.642.728-.85.302-.304.589-.527.859-.669a1.75 1.75 0 01.843-.23c.26 0 .439.09.537.275.097.173.174.396.228.667.055.282.104.612.149.992.044.38.093.77.148 1.171.055.39.121.77.198 1.14.087.454.169.845.246 1.17.087.325.169.602.245.83.087.227.169.422.245.585.076.14.136.265.179.374a.73.73 0 01.05.341.959.959 0 01-.129.407.764.764 0 01-.292.294.633.633 0 01-.373.115c-.206 0-.39-.096-.552-.291a3.115 3.115 0 01-.408-.83c-.12-.346-.229-.72-.327-1.121-.055-.25-.126-.58-.213-.992a58.933 58.933 0 01-.231-1.367 43.913 43.913 0 01-.198-1.431 19.677 19.677 0 01-.083-1.14l.325.13c-.303.283-.632.642-.988 1.077a31.27 31.27 0 00-1.084 1.419 38.509 38.509 0 00-1.084 1.63c-.345.566-.663 1.13-.954 1.696a7.466 7.466 0 01-.615.962c-.162.217-.351.326-.567.327zm12.807-.037c-.888.003-1.618-.19-2.193-.58a3.008 3.008 0 01-1.172-1.575c-.207-.672-.23-1.437-.07-2.294.118-.608.322-1.14.613-1.597a5.4 5.4 0 011.004-1.175c.378-.315.756-.55 1.135-.703.378-.163.702-.246.973-.246a.74.74 0 01.292.048.36.36 0 01.195.162c.054.065.071.157.05.276-.054.217-.14.418-.259.603-.118.174-.34.332-.664.474a4.564 4.564 0 00-.989.621 2.68 2.68 0 00-.631.767 3.002 3.002 0 00-.339 1.026c-.171.88-.067 1.585.313 2.115.38.52.96.779 1.739.776.757-.002 1.417-.275 1.978-.819.572-.555.944-1.288 1.115-2.2.171-.836.116-1.487-.167-1.953-.282-.476-.748-.714-1.397-.712a1.772 1.772 0 00-.86.198c-.227.13-.475.305-.745.523-.195.163-.351.31-.47.44a2.715 2.715 0 01-.324.31.553.553 0 01-.341.1.453.453 0 01-.357-.146c-.076-.108-.093-.277-.05-.505.043-.25.167-.505.372-.766.216-.26.475-.5.777-.718a4.122 4.122 0 011.005-.54 2.865 2.865 0 011.055-.214c.779-.002 1.412.18 1.9.548.488.356.819.855.994 1.494.174.629.176 1.356.005 2.181a5.443 5.443 0 01-.872 2.15 4.622 4.622 0 01-1.588 1.421 4.17 4.17 0 01-2.027.51zm8.528.041c-.552.002-1.001-.11-1.348-.338a2.086 2.086 0 01-.748-.876 3.578 3.578 0 01-.263-1.188c-.011-.434.02-.857.095-1.27.096-.455.236-.95.419-1.482a16.08 16.08 0 01.645-1.531c.237-.5.475-.913.712-1.24a1.42 1.42 0 01.324-.342c.129-.087.264-.147.405-.18a1.43 1.43 0 01.422-.066c.13 0 .222.042.276.13.054.075.065.183.033.325-.032.162-.123.369-.274.619-.14.25-.313.554-.518.913-.194.358-.387.787-.581 1.287a9.698 9.698 0 00-.483 1.727c-.139.694-.122 1.248.052 1.66.174.411.537.616 1.089.615a2.616 2.616 0 001.233-.33 3.665 3.665 0 001.085-.881c.324-.38.54-.805.647-1.272l.179.31a4.245 4.245 0 00-.974-.242 9.643 9.643 0 00-1.185-.127 9.156 9.156 0 00-1.218-.013c-.4.012-.757.046-1.071.1l.209-1.074a7.431 7.431 0 001.59-.2 6.128 6.128 0 001.346-.508c.4-.207.724-.425.972-.654.249-.24.389-.462.421-.668.032-.152-.006-.271-.114-.358-.109-.097-.282-.146-.52-.145-.292 0-.601.045-.925.133a13.31 13.31 0 00-1.006.328c-.356.131-.735.268-1.135.41-.162.044-.297.023-.406-.064a.308.308 0 01-.098-.325c.032-.152.135-.293.308-.424a2.24 2.24 0 01.518-.31c.659-.35 1.27-.59 1.833-.722a6.69 6.69 0 011.59-.216c.389-.001.709.058.958.176.26.119.444.281.553.487a.967.967 0 01.099.7 2.186 2.186 0 01-.485.994 4.653 4.653 0 01-.988.881 6.83 6.83 0 01-1.281.671 7.263 7.263 0 01-1.46.411l.08-.618c.509-.023.979-.025 1.412-.004.444.02.833.068 1.169.143.336.075.59.199.764.372.184.162.271.379.261.65-.021.434-.171.869-.452 1.304-.269.423-.631.81-1.085 1.158a5.992 5.992 0 01-1.475.85 4.399 4.399 0 01-1.606.314zm8.021-.12c-.497.001-.903-.117-1.218-.355-.303-.237-.515-.568-.635-.99-.109-.423-.11-.912-.003-1.465a5.925 5.925 0 01.532-1.564 7.933 7.933 0 01.987-1.5 7.78 7.78 0 011.279-1.257 6.11 6.11 0 011.491-.867 4.366 4.366 0 011.59-.314c.249 0 .444.064.585.194.141.13.185.325.131.585a.612.612 0 01-.178.343c-.097.087-.237.142-.421.164-.757.11-1.46.384-2.108.82a6.197 6.197 0 00-1.604 1.583 5.25 5.25 0 00-.84 1.922 4.282 4.282 0 00-.095.863c.001.25.055.575.165.976l-.62-1.12c.196.248.369.41.521.486.162.075.39.113.682.112.692-.002 1.395-.449 2.107-1.34.712-.892 1.369-2.19 1.971-3.896.075-.206.178-.364.308-.473a.73.73 0 01.486-.18c.249 0 .439.107.569.324.141.206.201.471.18.797a29.616 29.616 0 00-.061 1.855c.012.543.073 1.053.182 1.53.12.477.327.97.62 1.479a.61.61 0 01.082.374.795.795 0 01-.112.407.893.893 0 01-.276.326.658.658 0 01-.389.115.693.693 0 01-.39-.096.846.846 0 01-.227-.276 7.389 7.389 0 01-.408-.894 6.4 6.4 0 01-.295-1.073 8.321 8.321 0 01-.084-1.449c.009-.553.062-1.21.158-1.97l.584-.017c-.355 1.086-.747 2.004-1.179 2.754-.431.739-.884 1.337-1.359 1.794-.464.446-.929.773-1.394.98-.465.207-.903.312-1.314.313z" fill="#FFFCFF"/></svg>