<svg width="164" height="162" fill="none" xmlns="http://www.w3.org/2000/svg"><path d="M41.586 99.206a.765.765 0 00-1.008-.386.76.76 0 00-.387 1.005l1.395-.62zm-.12-.065a.765.765 0 00-1.03-.324.758.758 0 00-.325 1.025l1.355-.701zM7.438 161.766a.767.767 0 001.08.023l4.96-4.734a.758.758 0 00.023-1.075.765.765 0 00-1.08-.023l-4.409 4.207-4.225-4.391a.766.766 0 00-1.08-.023.76.76 0 00-.023 1.076l4.754 4.94zm33.45-62.25l-.697.309.002.004.008.017.03.069a54.886 54.886 0 01.555 1.33 80.09 80.09 0 011.421 3.822c1.098 3.192 2.36 7.487 3.038 11.933.679 4.458.755 8.99-.451 12.694-1.192 3.658-3.63 6.517-8.087 7.746l.408 1.466c5.01-1.383 7.801-4.662 9.13-8.743 1.315-4.032 1.203-8.838.51-13.391-.696-4.567-1.989-8.957-3.103-12.197a81.234 81.234 0 00-1.45-3.895 56.304 56.304 0 00-.604-1.447l-.009-.02-.002-.005v-.001s-.001-.001-.698.308zm-4.18 37.924c-12.109 3.342-19.618 7.471-24.127 11.411-4.504 3.937-6.048 7.722-6.104 10.342l1.526.032c.045-2.073 1.299-5.484 5.586-9.231 4.282-3.743 11.559-7.786 23.526-11.088l-.408-1.466zm4.08-37.949l-.677.35v.002l.002.004a.45.45 0 01.008.015l.033.065a41.808 41.808 0 01.613 1.267 66.2 66.2 0 011.565 3.66c1.205 3.068 2.58 7.212 3.28 11.56.703 4.359.716 8.847-.73 12.645-1.428 3.757-4.305 6.901-9.544 8.589l.47 1.447c5.676-1.83 8.908-5.304 10.502-9.497 1.58-4.15 1.532-8.942.81-13.424-.724-4.493-2.139-8.749-3.366-11.873a66.69 66.69 0 00-1.602-3.746 45.36 45.36 0 00-.673-1.387l-.01-.019a.556.556 0 01-.002-.005l-.001-.002-.678.35zm-5.45 38.157c-21.965 7.077-28.002 18.411-28.112 23.576l1.526.032c.09-4.22 5.367-15.173 27.057-22.161l-.47-1.447zM5.523 44.05c-.87.191-1.648.21-2.335.055-.679-.17-1.251-.473-1.718-.91a4.38 4.38 0 01-1.078-1.602A6.348 6.348 0 010 39.507a8.14 8.14 0 01.27-2.269c.2-.707.46-1.341.778-1.902a8.653 8.653 0 011.003-1.474 7.78 7.78 0 01.967-.968c.292-.236.509-.37.65-.401a.92.92 0 01.328-.018c.102.015.2.091.292.23.186.23.22.461.1.696a2.51 2.51 0 01-.549.692 8.22 8.22 0 00-1.035 1.241 7.389 7.389 0 00-.862 1.774c-.22.674-.327 1.435-.324 2.28.02.696.164 1.315.432 1.857.28.539.695.932 1.243 1.18.557.232 1.264.254 2.121.065a4.291 4.291 0 001.815-.898c.55-.465.988-1.04 1.316-1.727.337-.7.493-1.465.468-2.294a9.71 9.71 0 00-.299-2.088 5.937 5.937 0 00-.741-1.75c-.322-.506-.72-.879-1.192-1.118-.46-.242-.984-.298-1.571-.168a.753.753 0 00-.55.434c-.1.218-.146.48-.14.786.008.256-.048.47-.17.645a.767.767 0 01-.45.302.708.708 0 01-.433-.034.754.754 0 01-.346-.31 1.216 1.216 0 01-.154-.61 2.892 2.892 0 01.951-2.198c.33-.294.74-.495 1.234-.604.798-.177 1.53-.124 2.197.159.667.282 1.237.739 1.71 1.37.483.618.859 1.364 1.127 2.237.28.87.428 1.808.442 2.811a6.687 6.687 0 01-1.393 4.284 6.549 6.549 0 01-1.629 1.483 6.485 6.485 0 01-2.084.847zM16.98 41.5c-.869.191-1.623.18-2.262-.035a2.886 2.886 0 01-1.484-1.182c-.35-.573-.532-1.281-.547-2.124a5.902 5.902 0 01.331-2.08 6.324 6.324 0 011.03-1.848 6.72 6.72 0 011.566-1.432 5.681 5.681 0 011.909-.808c.305-.067.586-.08.841-.039.254.03.453.121.598.273.153.138.228.336.224.595.003.233-.046.428-.147.585a.674.674 0 01-.419.276.553.553 0 01-.315-.004 4.027 4.027 0 00-.26-.09c-.08-.03-.21-.027-.386.012a3.79 3.79 0 00-1.771.925c-.514.458-.917 1-1.208 1.63a4.353 4.353 0 00-.413 1.877c.027.509.134.933.32 1.273.196.325.468.553.818.684.361.129.771.143 1.23.041.516-.114.914-.263 1.193-.447.277-.196.486-.39.629-.581.153-.194.276-.362.368-.505a.547.547 0 01.362-.282c.223-.05.387-.03.493.056.117.085.181.261.192.529.003.404-.12.793-.369 1.167-.252.363-.6.68-1.045.95a4.73 4.73 0 01-1.478.584zm6.26-1.346c-.423.093-.765-.114-1.026-.62-.26-.508-.402-1.225-.424-2.153.003-.651.057-1.154.163-1.509.115-.369.277-.638.485-.807.114-.098.287-.18.52-.243.229-.075.473-.142.731-.199a26.45 26.45 0 002.51-.683c.824-.28 1.613-.639 2.366-1.075l.587 1.14a10.38 10.38 0 01-1.856.963c-.678.273-1.377.513-2.094.72-.709.194-1.404.366-2.085.516l-1.057.068c0-.724-.004-1.484-.009-2.28-.005-.797-.015-1.507-.03-2.13a1.49 1.49 0 01.129-.746c.102-.207.24-.33.417-.368.293-.065.537.004.73.207.19.19.287.544.291 1.058.01.268.01.593-.004.977-.013.383-.028.785-.045 1.206-.006.419-.015.82-.028 1.203-.004.37-.004.676.002.92.01.71.04 1.341.09 1.895.058.54.093.949.106 1.228a.75.75 0 01-.139.454.495.495 0 01-.33.258zm6.077-1.343c-.294.065-.543-.058-.748-.369-.193-.313-.348-.764-.467-1.35a13.118 13.118 0 01-.191-2.02 52.113 52.113 0 01.022-2.804c.04-.708.092-1.272.16-1.692.036-.278.102-.532.199-.762.096-.23.245-.367.444-.41.259-.058.468.025.628.247.17.208.257.49.262.844a9.57 9.57 0 01-.082 1.454 12.03 12.03 0 00-.05 1.686c.016.733.058 1.393.127 1.98.078.57.155 1.051.229 1.44.074.388.108.681.103.879a.837.837 0 01-.168.571.79.79 0 01-.468.306zm7.419-1.62c-.963.212-1.803.177-2.52-.107a3.331 3.331 0 01-1.647-1.422c-.385-.675-.592-1.495-.622-2.458-.016-.684.079-1.306.287-1.867a5.946 5.946 0 01.81-1.505c.336-.43.69-.772 1.065-1.027.372-.266.705-.431.999-.496a.836.836 0 01.329-.018.404.404 0 01.25.129c.074.057.114.153.12.287a2.186 2.186 0 01-.138.711c-.087.216-.29.439-.609.668a5.058 5.058 0 00-.926.905c-.23.296-.397.621-.503.976a3.31 3.31 0 00-.124 1.187c.024.989.305 1.725.843 2.207.536.47 1.227.613 2.073.426.822-.182 1.473-.633 1.953-1.352.49-.734.72-1.613.688-2.637-.013-.943-.228-1.631-.645-2.067-.42-.447-.982-.593-1.687-.437-.364.08-.66.22-.887.416a6.584 6.584 0 00-.685.74 5.453 5.453 0 00-.405.588c-.098.168-.19.306-.278.41a.616.616 0 01-.347.188.505.505 0 01-.423-.073c-.108-.098-.166-.276-.174-.532-.013-.28.061-.584.222-.914.172-.333.397-.652.673-.959.286-.32.607-.594.964-.82a3.19 3.19 0 011.094-.481c.845-.187 1.577-.14 2.194.141.614.27 1.092.728 1.434 1.377.339.637.514 1.42.524 2.351.03.914-.114 1.756-.435 2.526a5.103 5.103 0 01-1.387 1.908 4.65 4.65 0 01-2.08 1.03zm9.271-1.975c-.599.132-1.113.117-1.544-.046a2.32 2.32 0 01-1.021-.768 3.947 3.947 0 01-.568-1.219 6.754 6.754 0 01-.199-1.392c-.004-.514.03-1.08.102-1.697a17.9 17.9 0 01.337-1.805 8.596 8.596 0 01.479-1.505 1.55 1.55 0 01.27-.446 1.36 1.36 0 01.397-.29c.142-.081.29-.138.443-.172.14-.031.25-.006.33.074.077.07.115.184.114.343.004.184-.047.428-.151.733-.093.303-.208.672-.345 1.107a12.45 12.45 0 00-.325 1.527 10.709 10.709 0 00-.114 1.976c.014.782.164 1.375.451 1.778.287.403.73.538 1.329.406a2.926 2.926 0 001.26-.647c.395-.332.718-.735.97-1.208.26-.487.394-.995.4-1.524l.267.29a4.757 4.757 0 00-1.115-.03 10.96 10.96 0 00-1.317.145c-.454.063-.896.154-1.325.274a8.404 8.404 0 00-1.14.362l-.029-1.209a8.295 8.295 0 001.68-.591c.52-.263.967-.552 1.34-.867.386-.319.686-.63.901-.936.213-.317.312-.59.298-.82-.001-.172-.071-.291-.21-.359-.14-.08-.34-.09-.598-.034-.317.07-.642.191-.973.363-.32.169-.658.366-1.014.592-.356.226-.735.463-1.135.711-.166.086-.318.095-.456.027a.338.338 0 01-.184-.328c-.002-.171.076-.348.233-.53.166-.196.329-.348.49-.457.632-.533 1.238-.937 1.818-1.212a7.49 7.49 0 011.675-.61c.423-.093.784-.105 1.083-.036.31.066.549.197.716.394.178.193.27.437.274.73.013.39-.084.786-.29 1.188a5.153 5.153 0 01-.864 1.185c-.36.374-.77.716-1.231 1.027-.46.31-.957.573-1.488.788l-.06-.686a17.116 17.116 0 011.532-.338 7.674 7.674 0 011.304-.123c.382.002.688.075.918.221.238.131.384.345.438.64.08.473.02.977-.18 1.512a5.019 5.019 0 01-.903 1.507 6.68 6.68 0 01-1.4 1.266 4.914 4.914 0 01-1.67.719zm8.683-2.029c-.54.12-1.01.088-1.408-.094-.386-.185-.694-.49-.925-.918-.22-.43-.337-.957-.352-1.58-.02-.584.05-1.189.206-1.812a8.774 8.774 0 01.715-1.852 8.592 8.592 0 011.09-1.658c.429-.512.9-.942 1.414-1.288a4.87 4.87 0 011.652-.715c.27-.06.497-.036.681.07.184.107.278.307.282.601a.68.68 0 01-.112.411c-.085.117-.224.21-.419.277a5.612 5.612 0 00-2.094 1.383 6.84 6.84 0 00-1.365 2.087 5.738 5.738 0 00-.455 2.273c.005.355.04.672.102.953.06.27.197.607.41 1.014l-.939-1.063c.272.223.499.357.681.402.195.043.45.03.767-.04.752-.167 1.409-.815 1.97-1.945.561-1.13.966-2.687 1.215-4.668.032-.24.106-.435.221-.583a.813.813 0 01.486-.31c.27-.06.501.012.694.215.202.188.33.46.386.817.117.747.242 1.42.375 2.015a8.36 8.36 0 00.561 1.607c.244.486.586.97 1.025 1.449a.68.68 0 01.178.384.877.877 0 01-.025.466.98.98 0 01-.222.417.737.737 0 01-.395.216.774.774 0 01-.446-.012.933.933 0 01-.313-.244 8.264 8.264 0 01-.656-.867 7.036 7.036 0 01-.575-1.088 9.197 9.197 0 01-.436-1.542c-.121-.6-.22-1.32-.297-2.162l.63-.158c-.16 1.656-.473 3.02-.936 4.091-.452 1.07-.98 1.88-1.584 2.43-.604.551-1.2.892-1.787 1.021zm7.46-9.085c-.27.06-.5.024-.689-.106a.63.63 0 01-.266-.53.693.693 0 01.137-.38c.085-.117.255-.24.51-.37.396-.21.936-.44 1.62-.69a20.021 20.021 0 012.47-.693 24.14 24.14 0 011.364-.264c.426-.082.899-.144 1.42-.185.409-.041.735-.015.978.078.254.091.383.229.387.412a.814.814 0 01-.08.386.756.756 0 01-.266.298 1.227 1.227 0 01-.474.197c-.247.054-.537.106-.871.155-.334.05-.692.104-1.073.164-.371.045-.751.11-1.139.196-.81.179-1.454.358-1.932.537-.48.168-.875.329-1.186.483a4.574 4.574 0 01-.91.312zm4.142 6.559a.655.655 0 01-.652-.187 2.405 2.405 0 01-.427-.753 7.155 7.155 0 01-.222-1c-.062-.44-.107-.922-.137-1.443a44.411 44.411 0 01-.068-1.55c-.014-.671-.03-1.263-.045-1.775a45.25 45.25 0 00-.03-1.3l1.561-.456-.008.793c.007.306.017.653.03 1.043.01.378.017.77.02 1.174.014.39.024.768.032 1.134.013.611.046 1.12.099 1.525.063.39.127.708.194.951.066.243.123.445.172.606.045.15.07.292.076.425a.942.942 0 01-.063.382.675.675 0 01-.217.27.697.697 0 01-.316.161zm8.63-1.944c-.727.161-1.36.197-1.898.107-.528-.104-.962-.31-1.301-.615a3.081 3.081 0 01-.782-1.19 5.247 5.247 0 01-.272-1.633 6.662 6.662 0 01.286-1.867 7.42 7.42 0 01.86-1.865 6.112 6.112 0 011.384-1.503 4.493 4.493 0 011.822-.863c.623-.137 1.156-.15 1.6-.04.455.108.802.338 1.04.69.25.35.383.83.395 1.441.013.5-.085.97-.296 1.41-.2.424-.49.814-.867 1.167-.368.339-.8.637-1.298.894a6.994 6.994 0 01-1.613.559c-.798.176-1.353.2-1.665.073-.3-.13-.453-.317-.458-.561-.008-.146.023-.257.092-.334.067-.088.188-.151.364-.19a1.8 1.8 0 01.474-.031c.196-.007.475-.05.84-.13a4.91 4.91 0 001.53-.596c.445-.27.79-.58 1.032-.928.24-.36.36-.736.358-1.129-.007-.366-.113-.619-.317-.758-.191-.142-.516-.162-.974-.06a2.993 2.993 0 00-1.25.607c-.368.29-.694.65-.98 1.081a5.27 5.27 0 00-.629 1.41 5.01 5.01 0 00-.19 1.551c.012.44.092.827.24 1.162.147.324.385.565.717.726.34.145.78.158 1.32.039.611-.135 1.117-.326 1.518-.575.41-.262.744-.532 1.002-.81.259-.278.477-.516.654-.715.178-.199.349-.317.513-.353.2-.044.357.001.473.135.126.12.19.302.196.546.005.244-.099.525-.311.842a4.646 4.646 0 01-.866.927 6.73 6.73 0 01-1.253.848 6.188 6.188 0 01-1.49.531zm6.094-1.309a.506.506 0 01-.423-.072.747.747 0 01-.244-.351 1.177 1.177 0 01-.1-.53c0-.221.05-.527.147-.917.107-.404.252-.86.435-1.366.18-.518.372-1.04.576-1.563.222-.552.451-1.1.687-1.643a24.34 24.34 0 01.719-1.503c.231-.456.428-.818.59-1.087.255-.4.513-.709.773-.926.269-.231.556-.38.861-.448.282-.062.498-.005.648.17.147.164.283.386.407.665.186.45.39 1 .608 1.651.228.637.466 1.235.714 1.794.203.47.385.872.546 1.205.172.33.326.609.463.836.149.225.284.416.405.574.116.134.21.254.284.36a.805.805 0 01.135.357 1.04 1.04 0 01-.043.47.84.84 0 01-.247.386.707.707 0 01-.378.212c-.223.05-.446-.012-.67-.183-.213-.186-.426-.452-.639-.798-.213-.346-.42-.723-.622-1.133-.119-.256-.274-.596-.468-1.02a65.912 65.912 0 01-.575-1.419 48.971 48.971 0 01-.555-1.497 22.588 22.588 0 01-.362-1.209l.384.063c-.261.376-.533.842-.817 1.395a35.28 35.28 0 00-.84 1.787c-.274.65-.537 1.322-.789 2.015-.24.692-.451 1.377-.633 2.055a8.329 8.329 0 01-.438 1.183c-.125.273-.304.435-.539.487zm11.864-2.64c-.4.089-.737.065-1.014-.07a1.686 1.686 0 01-.657-.628 3.269 3.269 0 01-.385-.983 6.713 6.713 0 01-.12-1.115c.003-.32.016-.703.04-1.15a72.143 72.143 0 01.284-2.787c.065-.431.119-.769.163-1.012a8.61 8.61 0 01.194-1.037c.08-.25.208-.395.384-.434a.673.673 0 01.458.064c.152.077.277.19.372.342a.964.964 0 01.173.532c.007.195-.015.482-.066.861-.05.38-.11.804-.178 1.273-.068.47-.13.943-.183 1.421a8.957 8.957 0 00-.073 1.25c0 .331.021.646.062.943.04.286.104.518.193.694.085.165.204.231.358.197.376-.083.777-.521 1.204-1.315.438-.797.886-1.859 1.34-3.187.215-.587.396-1.13.543-1.629.149-.5.28-.933.394-1.302.112-.38.236-.684.371-.91.134-.226.29-.359.465-.398.27-.06.487.003.652.188.174.17.293.426.357.768.067.304.139.68.214 1.13l.27 1.377c.09.459.185.886.286 1.28.186.671.374 1.213.565 1.625.2.398.369.716.508.955.139.24.222.442.247.608a.882.882 0 01-.041.396.996.996 0 01-.206.322.64.64 0 01-.329.183c-.412.09-.764-.114-1.061-.613-.296-.499-.59-1.188-.885-2.068-.118-.416-.242-.862-.372-1.336a30.62 30.62 0 01-.321-1.438 190.56 190.56 0 01-.227-1.35l.55.063c-.108.454-.243.956-.403 1.507-.16.55-.391 1.258-.692 2.122-.259.72-.558 1.419-.9 2.095a8.229 8.229 0 01-1.154 1.71c-.415.46-.875.745-1.38.857zm18.917-4.215c-.776.171-1.409.207-1.899.106-.491-.1-.876-.31-1.157-.628-.268-.32-.462-.72-.581-1.197a7.977 7.977 0 01-.176-1.618c-.013-.61.012-1.248.074-1.912.07-.678.172-1.382.305-2.111a6.46 6.46 0 01.273-1.018c.094-.241.229-.382.405-.42a.776.776 0 01.658.13c.189.13.28.35.275.658.004.183-.033.485-.111.908-.067.42-.135.944-.205 1.573a17.98 17.98 0 00-.085 2.19c.009.539.085.964.23 1.276.154.31.39.509.705.599.328.087.756.072 1.285-.045.328-.073.761-.174 1.3-.305.534-.143 1.11-.295 1.728-.456.616-.16 1.222-.319 1.816-.475a80.74 80.74 0 001.579-.46c.46-.15.791-.266.995-.348a1.14 1.14 0 00.374-.23c.099-.107.151-.26.157-.457a11.38 11.38 0 00-.178-2.042 12.837 12.837 0 00-.413-1.768 14.92 14.92 0 00-.442-1.32c-.13-.364-.206-.623-.228-.777a.611.611 0 01.145-.511.748.748 0 01.432-.298c.271-.06.493.001.67.183.185.168.353.395.502.68.108.21.223.528.343.956.129.413.252.883.369 1.41.129.523.229 1.054.3 1.59.079.523.124 1.004.136 1.443.01.71-.112 1.264-.369 1.664-.247.386-.687.705-1.321.955-.227.087-.584.203-1.069.347-.488.132-1.046.28-1.675.444-.626.175-1.267.34-1.923.498-.652.168-1.265.322-1.837.461-.561.136-1.023.244-1.387.325zm2.963-1.133a.675.675 0 01-.419-.055.644.644 0 01-.323-.37 5.997 5.997 0 01-.247-1.106c-.054-.466-.1-.947-.136-1.442a36.51 36.51 0 01-.05-1.388 16.73 16.73 0 01.061-1.965c.056-.577.113-.983.173-1.217.034-.179.093-.327.178-.444a.583.583 0 01.387-.251.578.578 0 01.419.054c.126.07.23.176.311.318.081.142.126.316.135.523.008.145-.007.357-.043.635a42 42 0 00-.086.94c-.019.36-.023.753-.014 1.181.002.343.021.732.056 1.166.047.431.101.867.162 1.308.058.429.121.82.188 1.173.026.117-.007.247-.099.39-.082.129-.184.25-.307.363a.796.796 0 01-.346.187zm16.012-3.022c-.353.078-.764.058-1.233-.06a6.599 6.599 0 01-1.447-.6c-.48-.275-.936-.579-1.367-.913a6.943 6.943 0 01-1.038-1.004 1.75 1.75 0 01-.341-.459 2.149 2.149 0 01-.124-.47c.014-.1.038-.216.07-.346a1.25 1.25 0 01.159-.367c.099-.218.284-.523.554-.914.271-.39.589-.817.953-1.278a17.24 17.24 0 011.179-1.347c.42-.436.824-.808 1.212-1.114.399-.31.758-.499 1.075-.569a.468.468 0 01.319.022c.095.04.171.103.227.189a.594.594 0 01.097.273c.047.26-.07.543-.346.85-.277.306-.581.6-.913.882a21.305 21.305 0 00-1.532 1.499c-.436.476-.781.89-1.036 1.241-.242.348-.357.582-.343.702-.003.098.064.23.2.397.135.167.331.35.585.552.266.2.575.395.925.587.363.19.758.36 1.186.511.255.092.503.178.742.26.25.068.453.152.611.252.167.086.261.206.283.36a.758.758 0 01-.045.379.708.708 0 01-.244.311.885.885 0 01-.368.174zm-5.871 1.278c-.304.068-.544-.039-.717-.32-.177-.292-.306-.736-.389-1.331a24.144 24.144 0 01-.147-2.232 28.008 28.008 0 010-1.16l.06-1.228c.017-.421.019-.827.006-1.217.003-.098 0-.196-.01-.292a2.75 2.75 0 00-.017-.328 2.086 2.086 0 01.065-.621c.048-.17.116-.308.203-.414a.577.577 0 01.321-.218c.27-.06.509.017.717.229.216.197.325.523.327.976.007.306-.006.69-.039 1.15-.024.447-.05.908-.081 1.38-.03.473-.042.887-.037 1.242.03.632.069 1.194.117 1.687.06.49.12.894.178 1.212.056.307.079.522.07.647a.816.816 0 01-.076.404.682.682 0 01-.218.269.666.666 0 01-.333.165zm12.592-2.745c-.963.213-1.803.178-2.519-.106a3.33 3.33 0 01-1.648-1.422c-.384-.676-.592-1.495-.622-2.458a4.997 4.997 0 01.287-1.867 5.974 5.974 0 01.81-1.505 4.79 4.79 0 011.066-1.027c.372-.266.704-.432.998-.496a.836.836 0 01.329-.018.404.404 0 01.25.129c.075.057.115.153.12.287a2.195 2.195 0 01-.138.71c-.087.217-.29.44-.609.67a5.039 5.039 0 00-.925.903 2.97 2.97 0 00-.504.977c-.109.343-.15.739-.124 1.187.023.989.305 1.725.843 2.207.537.47 1.227.612 2.073.426.822-.182 1.473-.633 1.954-1.352.489-.734.719-1.614.688-2.637-.013-.943-.229-1.631-.646-2.067-.42-.447-.982-.593-1.687-.437-.364.08-.66.219-.887.417a6.649 6.649 0 00-.685.74 5.351 5.351 0 00-.405.586 3.073 3.073 0 01-.278.412.62.62 0 01-.346.187.506.506 0 01-.423-.073c-.109-.098-.167-.276-.175-.532-.013-.28.061-.584.222-.914.172-.333.397-.652.673-.959.286-.32.607-.594.964-.82a3.194 3.194 0 011.093-.481c.846-.187 1.577-.14 2.195.141.614.27 1.092.728 1.434 1.377.339.637.513 1.42.523 2.351.032.914-.113 1.756-.435 2.526a5.087 5.087 0 01-1.386 1.908 4.648 4.648 0 01-2.08 1.03zm6.279-1.387a.507.507 0 01-.423-.072.748.748 0 01-.244-.351 1.179 1.179 0 01-.1-.53c0-.221.05-.527.147-.916.107-.405.252-.86.435-1.367.18-.518.373-1.04.576-1.563.222-.552.451-1.1.688-1.643a23.24 23.24 0 01.718-1.503c.231-.456.428-.818.589-1.087.257-.4.514-.709.774-.926.269-.23.556-.38.861-.448.282-.062.498-.005.648.17.147.164.283.386.407.665.126.291.258.636.397 1.035.138.4.284.809.44 1.229.152.408.314.801.485 1.181.203.47.386.872.546 1.205.172.33.326.609.463.836.149.225.284.416.405.574.117.133.211.254.284.36a.804.804 0 01.135.357c.022.155.007.311-.043.47a.834.834 0 01-.247.386.709.709 0 01-.377.212c-.224.05-.447-.012-.67-.183-.215-.186-.427-.452-.64-.798a14.07 14.07 0 01-.622-1.133c-.118-.256-.275-.596-.467-1.02a51.461 51.461 0 01-1.131-2.917c-.156-.48-.277-.883-.362-1.208l.384.063c-.262.376-.533.842-.817 1.395a35.28 35.28 0 00-.84 1.787 42.64 42.64 0 00-.789 2.016 29.32 29.32 0 00-.632 2.054c-.158.513-.304.907-.439 1.183-.125.273-.304.435-.539.487zm12.52-2.766c-.553.122-1.035.088-1.447-.103-.412-.192-.735-.507-.968-.946-.237-.451-.366-1.006-.389-1.663-.022-.818-.042-1.599-.06-2.343-.021-.757-.041-1.403-.062-1.938-.009-.538-.014-.893-.015-1.064-.009-.146.01-.285.054-.418a.992.992 0 01.237-.346.722.722 0 01.346-.187c.271-.06.5.03.689.27.201.239.311.54.331.904.003.343-.01.757-.038 1.241-.016.482-.014.936.007 1.36l-.016.594c.003.232.001.472-.006.719l.006.606c.009.648.118 1.134.325 1.456.208.323.51.44.91.352.223-.05.457-.163.701-.34.256-.179.491-.39.709-.635.213-.256.384-.514.51-.775.127-.261.169-.491.124-.69-.056-.307-.193-.534-.411-.683-.206-.15-.481-.25-.824-.296a3.993 3.993 0 00-.737-.077 15.252 15.252 0 00-.942.006c-.332 0-.648.02-.947.062l.045-1.207c.407-.163.86-.368 1.36-.613a28.324 28.324 0 001.572-.826 39.874 39.874 0 001.535-.91 15.44 15.44 0 001.44-1c.42-.325.778-.6 1.073-.825.305-.24.562-.382.774-.429.364-.08.668-.018.91.186.252.19.381.492.387.908v1.16c.007.367.012.746.013 1.138a53.9 53.9 0 00.124 2.385c.036.434.081.829.136 1.185.052.234.103.492.154.776.059.269.092.47.097.604a.812.812 0 01-.08.386.66.66 0 01-.234.273.746.746 0 01-.333.165c-.247.055-.461-.02-.643-.226a2.283 2.283 0 01-.389-.835 15.11 15.11 0 01-.285-1.777 25.26 25.26 0 01-.121-1.87c.001-.27-.004-.57-.015-.898 0-.332.001-.657.004-.977.002-.32.001-.602-.004-.846.004-.259.006-.443.006-.554l.434.29c-.235.213-.55.46-.943.743-.384.27-.825.557-1.323.863-.501.295-1.026.595-1.574.9-.548.305-1.105.6-1.67.885a20.8 20.8 0 01-1.617.706l.036-.67c.091-.033.23-.075.415-.129.195-.067.421-.13.679-.186.141-.032.34-.051.597-.059.269-.01.55.008.843.053.306.043.603.131.891.264.297.118.547.296.747.534.213.235.354.536.423.901.078.461.017.935-.182 1.421a4.747 4.747 0 01-.825 1.36 6.22 6.22 0 01-1.215 1.097c-.452.296-.895.492-1.329.588zM7.262 60.065c-.505.112-.97.043-1.396-.207-.413-.252-.777-.638-1.09-1.158-.313-.52-.562-1.14-.747-1.86a10.462 10.462 0 01-.275-2.314 42.22 42.22 0 01-.008-1.36 21.5 21.5 0 01.09-1.254c.044-.415.098-.862.164-1.343.074-.495.164-1.061.268-1.698.036-.229.104-.39.206-.487a.803.803 0 01.43-.224.481.481 0 01.414.111c.131.094.227.245.285.453.07.205.083.454.037.746a72.47 72.47 0 00-.235 1.764c-.049.502-.083.982-.104 1.44-.01.457-.011.948-.005 1.474.014.672.064 1.281.149 1.827.096.543.226 1.018.39 1.423.162.394.34.692.533.895.202.189.42.257.655.205a3.603 3.603 0 001.067-.438 6.81 6.81 0 00.979-.75 4.37 4.37 0 00.742-.9c.19-.312.274-.595.255-.848-.004-.184-.127-.347-.368-.49-.232-.157-.56-.275-.985-.353a7.306 7.306 0 00-1.464-.1 7.908 7.908 0 00-1.722.233c-.326.085-.596.09-.81.014-.202-.078-.307-.27-.313-.576.005-.197.102-.372.29-.524.185-.163.518-.354 1-.57.416-.178.838-.388 1.264-.63.439-.244.857-.496 1.255-.756.41-.262.776-.527 1.098-.794.323-.268.58-.527.77-.778.19-.25.284-.468.28-.65a.844.844 0 00-.393-.687c-.238-.181-.567-.305-.989-.371a6.308 6.308 0 00-1.434-.051 11.31 11.31 0 00-1.719.25c-.423.094-.832.19-1.229.29l-.863.191a.535.535 0 01-.444-.086.535.535 0 01-.208-.433c-.009-.317.167-.607.527-.87.36-.264.893-.474 1.597-.63.94-.207 1.819-.328 2.637-.361.83-.036 1.553.03 2.17.201.617.17 1.104.45 1.462.837.355.376.534.876.538 1.501.007.367-.147.781-.463 1.244-.304.46-.82.96-1.55 1.502-.73.542-1.71 1.115-2.944 1.718l-.074-.499c.899-.112 1.649-.119 2.25-.018.611.086 1.088.238 1.433.456.356.216.61.473.763.77.162.284.246.578.252.884.016.512-.112 1.019-.382 1.52a5.36 5.36 0 01-1.057 1.394c-.446.43-.93.8-1.453 1.112a5.347 5.347 0 01-1.526.613zm10.823-2.427c-.728.16-1.361.196-1.899.106-.528-.104-.962-.309-1.301-.614a3.079 3.079 0 01-.783-1.19 5.25 5.25 0 01-.271-1.634 6.662 6.662 0 01.286-1.867c.198-.657.485-1.28.86-1.865a6.113 6.113 0 011.384-1.502 4.491 4.491 0 011.822-.863c.623-.138 1.156-.151 1.6-.04.455.108.802.338 1.04.69.25.35.382.83.395 1.44.013.501-.085.97-.296 1.41-.2.425-.49.814-.867 1.167-.368.34-.8.637-1.298.895a6.994 6.994 0 01-1.613.558c-.798.177-1.353.201-1.665.074-.3-.13-.453-.318-.458-.562-.008-.145.023-.257.092-.333.067-.089.188-.152.364-.191.13-.029.287-.039.474-.031.195-.007.475-.05.84-.13a4.907 4.907 0 001.53-.596c.445-.27.789-.58 1.032-.928.24-.36.36-.736.358-1.128-.008-.367-.113-.62-.317-.759-.191-.142-.516-.162-.974-.06a2.996 2.996 0 00-1.251.607c-.367.29-.693.65-.979 1.082a5.273 5.273 0 00-.629 1.409 5.01 5.01 0 00-.19 1.551c.012.44.092.827.24 1.162.146.324.385.566.717.726.34.145.78.159 1.32.04.611-.136 1.117-.327 1.518-.575.41-.263.744-.533 1.002-.81.258-.279.476-.517.654-.716.177-.199.348-.316.513-.352.2-.045.357 0 .473.134.125.12.19.302.196.546.005.244-.099.525-.312.842a4.651 4.651 0 01-.865.927 6.67 6.67 0 01-1.253.848 6.182 6.182 0 01-1.49.532zm10.188-2.343c-.564.124-1.074.157-1.53.099-.457-.059-.825-.186-1.103-.383-.278-.196-.423-.434-.436-.714a.88.88 0 01.112-.41.483.483 0 01.335-.24.603.603 0 01.336.017l.382.137c.147.053.352.088.614.103.26.004.601-.04 1.024-.134.658-.145 1.192-.429 1.603-.85.42-.437.614-1.063.58-1.878-.005-.575-.11-1.074-.315-1.495a2.726 2.726 0 00-.808-1.055 2.62 2.62 0 00-1.211-.542 3.82 3.82 0 00-1.503.056c-.27.06-.54.15-.809.27a3.71 3.71 0 01-.72.251.732.732 0 01-.372-.01.516.516 0 01-.274-.234.73.73 0 01-.096-.347c0-.331.159-.617.474-.86.325-.255.858-.465 1.598-.628.786-.174 1.515-.194 2.186-.06a4.07 4.07 0 011.786.802c.506.392.906.911 1.198 1.558.301.633.46 1.377.479 2.232a4.195 4.195 0 01-.243 1.564 4.065 4.065 0 01-.713 1.28 4.426 4.426 0 01-1.124.93 5.328 5.328 0 01-1.45.54zm-3.14 5.406a.669.669 0 01-.393-.023.467.467 0 01-.256-.238 1.015 1.015 0 01-.102-.457 1.511 1.511 0 01.085-.534 9.69 9.69 0 00.164-.588c.062-.222.116-.505.163-.846.047-.342.066-.782.057-1.32a13.907 13.907 0 00-.289-2.624c-.178-.856-.365-1.723-.56-2.6a16.18 16.18 0 01-.33-2.726c-.007-.305.044-.544.154-.715a.763.763 0 01.495-.349.607.607 0 01.501.092c.155.088.28.233.374.433.091.188.135.412.13.67.016.733.077 1.42.182 2.06.115.624.239 1.235.372 1.832a31.2 31.2 0 01.38 1.793c.11.602.17 1.233.182 1.893.022.596.01 1.146-.04 1.647-.048.502-.13.937-.244 1.306-.103.367-.241.66-.413.883a1.01 1.01 0 01-.611.411zm11.27-7.11c-.54.12-1.01.088-1.407-.094-.386-.185-.695-.491-.926-.919-.219-.43-.336-.956-.352-1.579a6.576 6.576 0 01.206-1.813 8.771 8.771 0 01.715-1.851 8.59 8.59 0 011.091-1.659c.428-.512.9-.94 1.413-1.288a4.871 4.871 0 011.652-.715c.27-.06.498-.036.682.071.184.107.277.307.281.6a.68.68 0 01-.111.412c-.085.117-.225.209-.42.276a5.614 5.614 0 00-2.094 1.384 6.843 6.843 0 00-1.365 2.087 5.737 5.737 0 00-.454 2.273c.005.354.039.672.101.953.06.269.197.607.41 1.014l-.938-1.063c.271.222.498.356.68.402.195.043.45.03.768-.041.752-.166 1.408-.814 1.97-1.945.56-1.13.966-2.686 1.214-4.668.033-.24.107-.434.221-.583a.814.814 0 01.486-.31.7.7 0 01.695.215c.202.189.33.461.385.817.117.748.242 1.42.375 2.016a8.37 8.37 0 00.562 1.607 6.44 6.44 0 001.025 1.448.68.68 0 01.178.385.876.876 0 01-.026.465.981.981 0 01-.221.417.737.737 0 01-.396.217.773.773 0 01-.446-.012.933.933 0 01-.313-.244 8.265 8.265 0 01-.655-.868 7.043 7.043 0 01-.575-1.088 9.18 9.18 0 01-.436-1.542c-.122-.599-.22-1.32-.297-2.162l.63-.157c-.127 1.255-.335 2.338-.625 3.249-.293.899-.643 1.651-1.05 2.257-.398.59-.825 1.053-1.28 1.387-.456.334-.907.55-1.353.649zm16.79-3.691c-.4.088-.737.065-1.014-.07a1.686 1.686 0 01-.657-.628 3.27 3.27 0 01-.385-.983 6.746 6.746 0 01-.12-1.115c.003-.32.016-.703.04-1.15a65.34 65.34 0 01.285-2.788c.064-.431.118-.768.162-1.011a8.64 8.64 0 01.194-1.037c.08-.251.208-.396.384-.435a.672.672 0 01.458.065.92.92 0 01.372.34.96.96 0 01.174.533 5.65 5.65 0 01-.067.862c-.05.38-.11.803-.178 1.273-.068.469-.13.942-.183 1.42-.056.467-.08.883-.073 1.25 0 .331.021.646.063.944.039.285.103.517.191.694.087.165.206.23.358.197.376-.084.778-.522 1.205-1.316.438-.796.885-1.858 1.341-3.186.214-.588.395-1.13.543-1.63.147-.499.279-.933.393-1.302.113-.38.236-.684.37-.91.135-.226.29-.358.467-.398.27-.06.487.003.651.188.174.17.292.426.356.768.068.304.14.681.215 1.13l.27 1.377c.09.459.185.886.285 1.28.187.672.375 1.213.566 1.625.2.398.369.716.508.955.14.24.222.442.247.609a.877.877 0 01-.042.395.959.959 0 01-.205.322.637.637 0 01-.33.183c-.41.09-.764-.113-1.06-.612-.296-.5-.591-1.19-.886-2.07-.117-.415-.24-.86-.371-1.335a29.946 29.946 0 01-.32-1.438c-.084-.485-.16-.935-.227-1.35l.55.063c-.109.454-.243.956-.404 1.507-.16.551-.391 1.258-.692 2.123a18.53 18.53 0 01-.9 2.095 8.226 8.226 0 01-1.154 1.709c-.415.46-.875.745-1.38.857zm20.47-4.54c-.869.191-1.647.21-2.335.055-.678-.17-1.25-.472-1.718-.91a4.379 4.379 0 01-1.078-1.602 6.349 6.349 0 01-.39-2.086c-.01-.82.08-1.576.27-2.269.2-.707.46-1.34.778-1.902a8.655 8.655 0 011.002-1.473 7.79 7.79 0 01.967-.969c.293-.236.51-.37.65-.401a.923.923 0 01.329-.017c.102.014.199.09.291.23.187.229.22.46.1.696a2.51 2.51 0 01-.548.691c-.335.32-.68.734-1.036 1.242a7.396 7.396 0 00-.861 1.773c-.22.675-.328 1.435-.324 2.28.02.696.163 1.315.432 1.857.28.54.695.932 1.243 1.18.557.233 1.264.254 2.121.065a4.29 4.29 0 001.815-.898 5.12 5.12 0 001.315-1.727 4.88 4.88 0 00.469-2.294 9.712 9.712 0 00-.3-2.088c-.174-.673-.42-1.257-.74-1.75-.322-.506-.72-.879-1.192-1.118-.46-.242-.984-.298-1.572-.168a.753.753 0 00-.55.434c-.099.218-.145.48-.139.786.008.256-.049.47-.17.645a.769.769 0 01-.45.302.708.708 0 01-.433-.033.754.754 0 01-.346-.31 1.218 1.218 0 01-.155-.61 2.893 2.893 0 01.952-2.2c.329-.293.74-.494 1.233-.603.799-.176 1.531-.123 2.198.159.667.282 1.237.74 1.71 1.37.483.618.858 1.364 1.127 2.237.28.871.427 1.808.441 2.811a6.685 6.685 0 01-1.392 4.284 6.547 6.547 0 01-1.629 1.483 6.484 6.484 0 01-2.085.847zm7.422-1.603a.505.505 0 01-.423-.073.748.748 0 01-.244-.35 1.18 1.18 0 01-.1-.53c0-.222.05-.527.147-.917.107-.404.252-.86.435-1.366.18-.519.372-1.04.576-1.563.222-.553.451-1.1.687-1.643.246-.558.485-1.059.719-1.503.231-.456.427-.819.59-1.088.255-.4.513-.708.773-.925.269-.232.556-.38.861-.448.282-.063.498-.006.648.17.147.163.283.385.407.664.126.291.258.637.397 1.036.138.399.285.808.44 1.228.152.408.314.802.485 1.181.203.47.385.873.545 1.205.173.33.327.61.464.837.149.225.284.416.405.573.116.134.21.254.284.36a.803.803 0 01.135.358c.022.154.007.31-.044.47a.838.838 0 01-.246.385.707.707 0 01-.378.213c-.223.049-.446-.012-.67-.184-.213-.186-.426-.452-.64-.797a14.245 14.245 0 01-.621-1.133c-.119-.256-.275-.596-.468-1.02a65.625 65.625 0 01-.575-1.42 49.347 49.347 0 01-.555-1.497c-.156-.48-.277-.883-.362-1.208l.384.062a12.48 12.48 0 00-.817 1.396 34.876 34.876 0 00-.84 1.787c-.274.65-.537 1.321-.79 2.015-.24.691-.45 1.376-.632 2.054-.157.514-.303.908-.439 1.184-.124.272-.303.435-.538.486zm12.688-2.84c-.575.127-1.06.136-1.455.026a2.028 2.028 0 01-.968-.614c-.252-.3-.44-.645-.564-1.035a4.931 4.931 0 01-.185-1.248c-.013-.5.018-1.053.092-1.659.072-.617.107-1.152.104-1.606a11.548 11.548 0 00-.09-1.232 4.7 4.7 0 01-.058-.76.958.958 0 01.05-.36.93.93 0 01.195-.283.809.809 0 01.368-.174c.329-.072.584.025.768.291.191.252.292.598.304 1.037.013.28.007.612-.018.998-.027.375-.058.762-.092 1.162-.034.4-.06.78-.078 1.14-.02.36-.025.663-.02.907.014.45.065.845.152 1.181.084.325.236.562.454.71.227.134.546.155.957.065a2.93 2.93 0 001.023-.466 4.39 4.39 0 00.92-.847c.272-.33.478-.677.62-1.04.138-.373.176-.726.115-1.056-.034-.152-.148-.25-.342-.292-.185-.057-.472-.043-.86.042a10.4 10.4 0 00-1.3.38 18.5 18.5 0 00-1.223.49c-.38.17-.709.33-.984.476a.54.54 0 01-.311.013.524.524 0 01-.237-.15.461.461 0 01-.08-.277.877.877 0 01.065-.456.865.865 0 01.364-.356c.225-.148.493-.3.804-.454a13.53 13.53 0 012.094-.886 8.12 8.12 0 011.007-.296c.575-.127 1.032-.149 1.372-.064.35.082.614.245.792.488.177.243.294.542.349.898.088.509.034 1.042-.162 1.6a5.721 5.721 0 01-.897 1.616 6.21 6.21 0 01-1.383 1.337 4.603 4.603 0 01-1.662.754zm7.164-1.583c-.281.062-.522-.02-.719-.246-.187-.229-.314-.575-.38-1.039a8.789 8.789 0 01-.079-.848 58.093 58.093 0 01-.05-1.222l-.05-1.388a57.148 57.148 0 00-.028-1.283c0-.392-.003-.705-.005-.938-.018-.634.041-1.113.178-1.438.147-.34.413-.582.799-.729.363-.141.753-.27 1.17-.387.427-.131.852-.243 1.275-.337.317-.07.643-.13.977-.179.331-.06.641-.105.931-.132a2.62 2.62 0 01.705.01.571.571 0 01.358.197.524.524 0 01.131.34c.005.244-.104.446-.327.605-.223.16-.476.271-.758.333a5.892 5.892 0 01-.676.113c-.206.02-.426.051-.664.092a9.973 9.973 0 00-.941.17 8.92 8.92 0 00-1.183.335c-.318.12-.673.272-1.063.456l.738-.752c-.026.325-.051.68-.076 1.066-.016.372-.027.792-.034 1.26-.009.456-.005.97.011 1.543.011.6.038 1.164.082 1.694.041.519.084.958.127 1.316.042.359.065.593.065.704.006.195-.041.346-.14.454a.643.643 0 01-.374.23zm8.32-1.838c-.54.12-1.009.088-1.407-.094-.386-.185-.695-.491-.925-.919-.22-.43-.337-.956-.352-1.579a6.536 6.536 0 01.205-1.813 8.82 8.82 0 01.715-1.851 8.63 8.63 0 011.091-1.659 6.803 6.803 0 011.413-1.287 4.883 4.883 0 011.652-.715c.271-.06.497-.036.682.07.183.107.278.307.282.6a.675.675 0 01-.113.412c-.084.117-.224.21-.419.277a5.616 5.616 0 00-2.094 1.383 6.845 6.845 0 00-1.364 2.087 5.72 5.72 0 00-.455 2.273c.005.355.039.672.101.953.06.27.198.607.411 1.014l-.939-1.063c.271.222.498.356.68.402.195.043.451.03.768-.04.752-.167 1.408-.815 1.969-1.945.561-1.13.966-2.687 1.215-4.669a1.19 1.19 0 01.222-.582.81.81 0 01.485-.31c.27-.06.502.012.694.215.203.188.331.46.386.817.118.747.243 1.419.375 2.015a8.35 8.35 0 00.562 1.607c.243.486.585.969 1.025 1.449a.68.68 0 01.178.384.874.874 0 01-.025.466.994.994 0 01-.222.417.737.737 0 01-.395.216.776.776 0 01-.447-.012.938.938 0 01-.313-.244 8.33 8.33 0 01-.655-.867 7.053 7.053 0 01-.575-1.089 9.04 9.04 0 01-.436-1.542 20.83 20.83 0 01-.298-2.162l.631-.157c-.126 1.255-.335 2.338-.626 3.25-.291.898-.641 1.65-1.049 2.256-.398.591-.825 1.054-1.28 1.387-.455.334-.906.55-1.353.649zM11.183 75.508c-.87.192-1.623.18-2.262-.034a2.887 2.887 0 01-1.484-1.182c-.35-.573-.532-1.282-.547-2.125a5.904 5.904 0 01.331-2.08 6.324 6.324 0 011.03-1.848 6.72 6.72 0 011.566-1.432A5.684 5.684 0 0111.726 66c.305-.067.586-.08.841-.039.253.03.453.122.597.274.154.137.23.336.225.594.003.233-.046.428-.147.585a.673.673 0 01-.419.276.552.552 0 01-.315-.003 4.028 4.028 0 00-.26-.09c-.081-.032-.21-.028-.386.011-.67.148-1.26.457-1.771.925-.514.458-.917 1-1.208 1.63a4.353 4.353 0 00-.414 1.877c.028.51.134.933.321 1.273.196.325.468.553.818.684.361.13.771.143 1.229.042.517-.114.915-.264 1.194-.448.277-.196.486-.39.628-.58.154-.194.277-.363.368-.506a.547.547 0 01.363-.282c.223-.05.387-.03.493.057.117.084.181.26.192.528.003.404-.12.793-.369 1.168-.252.362-.6.678-1.045.948a4.73 4.73 0 01-1.478.585zm12.28-2.676a.745.745 0 01-.734-.225c-.207-.212-.377-.53-.508-.955-.123-.44-.192-.97-.207-1.593.003-.651.057-1.154.163-1.509.115-.369.276-.638.485-.807.114-.098.287-.18.519-.243.23-.075.474-.141.732-.198.857-.19 1.694-.418 2.51-.684.824-.28 1.613-.638 2.366-1.075l.587 1.14a10.38 10.38 0 01-1.856.963c-.679.273-1.377.513-2.094.72-.709.194-1.404.366-2.085.516l-1.057.068a455.31 455.31 0 00-.009-2.28c-.005-.797-.015-1.507-.03-2.13-.016-.29.027-.54.129-.746.102-.207.24-.33.417-.368.293-.065.537.004.73.207.19.19.287.544.291 1.058.01.268.009.593-.004.977-.013.383-.028.785-.046 1.206-.005.419-.014.82-.027 1.203-.004.37-.004.676.001.92.01.71.04 1.341.09 1.895.058.54.094.949.107 1.228a.75.75 0 01-.139.454.495.495 0 01-.33.258zm6.078-1.343c-.294.065-.543-.058-.748-.369-.193-.313-.349-.764-.467-1.35a13.12 13.12 0 01-.191-2.02 52.026 52.026 0 01.022-2.804c.04-.708.092-1.272.159-1.692.037-.278.103-.532.2-.762.096-.23.245-.367.444-.41.258-.058.468.025.628.247.17.208.257.49.262.844a9.7 9.7 0 01-.082 1.454c-.055.528-.072 1.09-.05 1.687.016.733.058 1.392.127 1.978.078.572.154 1.052.229 1.44.074.39.108.682.103.88a.836.836 0 01-.168.571.79.79 0 01-.468.306zm5.331-1.196c-.54.119-1.01.088-1.407-.094-.386-.185-.695-.491-.926-.919-.219-.43-.336-.957-.352-1.579-.019-.585.05-1.19.207-1.813a8.779 8.779 0 01.714-1.851 8.591 8.591 0 011.091-1.659 6.83 6.83 0 011.413-1.288 4.87 4.87 0 011.652-.715c.27-.06.498-.036.682.07.184.108.278.308.281.601a.68.68 0 01-.111.412c-.085.117-.225.209-.42.276a5.614 5.614 0 00-2.094 1.383 6.84 6.84 0 00-1.365 2.088 5.737 5.737 0 00-.454 2.272c.005.355.039.673.101.954.06.269.197.607.41 1.014l-.938-1.063c.271.222.498.356.68.402.195.043.45.029.768-.041.752-.166 1.408-.814 1.97-1.945.56-1.13.966-2.686 1.214-4.668.033-.24.107-.434.221-.583a.813.813 0 01.486-.31.7.7 0 01.695.215c.202.189.33.461.385.817.117.748.242 1.42.375 2.016a8.37 8.37 0 00.562 1.607c.243.486.585.969 1.025 1.448.096.102.156.23.178.384a.876.876 0 01-.026.466.98.98 0 01-.221.417.744.744 0 01-.395.217.774.774 0 01-.447-.012.934.934 0 01-.313-.244 8.292 8.292 0 01-.655-.868 7.045 7.045 0 01-.575-1.088 9.198 9.198 0 01-.436-1.542c-.122-.6-.22-1.32-.297-2.162l.63-.157c-.127 1.255-.335 2.338-.625 3.249-.293.899-.643 1.651-1.05 2.257-.398.59-.825 1.053-1.28 1.387-.456.334-.907.55-1.353.649zm9.795-2.164c-.282.062-.522-.02-.72-.246-.187-.229-.313-.575-.38-1.04a8.515 8.515 0 01-.078-.847c-.02-.364-.036-.771-.05-1.222l-.05-1.388a57.138 57.138 0 00-.028-1.283c-.001-.392-.003-.705-.005-.938-.019-.634.04-1.113.178-1.438.146-.34.413-.582.799-.729.363-.141.753-.27 1.17-.387a15.638 15.638 0 012.734-.586c.502-.074.886-.091 1.153-.052a.573.573 0 01.358.197.524.524 0 01.132.34c.005.243-.104.445-.328.605-.223.16-.475.27-.757.333a5.923 5.923 0 01-.677.113c-.205.02-.426.051-.664.091a10.1 10.1 0 00-.941.172c-.47.103-.864.215-1.182.334-.319.12-.673.272-1.063.456l.738-.752a30.39 30.39 0 00-.11 1.663c-.014.604-.01 1.34.01 2.206a33.52 33.52 0 00.209 3.01c.043.359.065.594.065.704.006.195-.04.346-.14.454a.646.646 0 01-.373.23zm10.7-2.456c-.563.124-1.074.157-1.53.099-.457-.059-.824-.187-1.102-.383-.278-.196-.423-.434-.436-.713a.88.88 0 01.111-.412.483.483 0 01.335-.24.603.603 0 01.337.018l.381.137c.148.053.353.088.615.103.26.005.6-.04 1.024-.134.657-.145 1.192-.429 1.603-.85.42-.437.613-1.063.58-1.878-.006-.576-.11-1.074-.315-1.495a2.728 2.728 0 00-.808-1.055c-.346-.28-.75-.46-1.212-.542a3.821 3.821 0 00-1.503.056c-.27.06-.54.15-.808.27a3.734 3.734 0 01-.72.251.734.734 0 01-.372-.01.516.516 0 01-.274-.234.73.73 0 01-.096-.346c0-.332.158-.618.474-.86.325-.256.857-.466 1.597-.629.787-.174 1.516-.194 2.186-.06a4.068 4.068 0 011.787.802c.506.392.905.911 1.197 1.558.302.633.461 1.377.48 2.233a4.195 4.195 0 01-.244 1.563 4.064 4.064 0 01-.713 1.28 4.422 4.422 0 01-1.123.93 5.319 5.319 0 01-1.45.54zm-3.139 5.406a.669.669 0 01-.393-.023.467.467 0 01-.256-.238 1.014 1.014 0 01-.102-.457 1.513 1.513 0 01.084-.534c.051-.158.106-.354.165-.588.061-.222.116-.504.163-.846a8.9 8.9 0 00.057-1.32 13.9 13.9 0 00-.29-2.624c-.178-.856-.365-1.723-.56-2.6-.186-.892-.296-1.8-.33-2.726-.007-.305.045-.543.155-.715a.763.763 0 01.495-.349.607.607 0 01.5.092c.156.088.28.233.375.433.09.188.135.412.13.67.016.733.076 1.42.182 2.06.115.624.239 1.235.371 1.832.145.594.272 1.191.382 1.793.109.602.17 1.233.181 1.893.022.597.009 1.146-.04 1.647a6.5 6.5 0 01-.245 1.306c-.103.367-.24.66-.413.883-.16.22-.364.357-.61.411zm11.27-7.11c-.54.12-1.01.088-1.408-.094-.386-.185-.694-.491-.925-.919-.22-.43-.336-.956-.352-1.579a6.53 6.53 0 01.206-1.813 8.779 8.779 0 01.715-1.851 8.59 8.59 0 011.09-1.659c.429-.512.9-.94 1.414-1.288a4.872 4.872 0 011.652-.714c.27-.06.497-.037.681.07.184.107.278.307.282.6a.68.68 0 01-.112.412c-.085.117-.224.209-.419.276a5.614 5.614 0 00-2.094 1.384 6.84 6.84 0 00-1.365 2.087 5.737 5.737 0 00-.455 2.273c.005.354.04.672.102.953.06.269.197.607.41 1.014l-.939-1.063c.272.222.499.356.681.402.195.043.45.03.768-.04.751-.167 1.408-.815 1.97-1.946.56-1.13.965-2.686 1.214-4.668.032-.24.106-.434.221-.582a.813.813 0 01.486-.31c.27-.06.501.012.694.215.203.188.33.46.386.816.117.748.242 1.42.375 2.016.142.582.33 1.118.561 1.607a6.44 6.44 0 001.025 1.448.68.68 0 01.178.385.876.876 0 01-.025.465.98.98 0 01-.222.417.737.737 0 01-.395.217.774.774 0 01-.446-.012.934.934 0 01-.313-.244 8.278 8.278 0 01-.656-.868 7.053 7.053 0 01-.575-1.088 9.199 9.199 0 01-.436-1.542c-.121-.599-.22-1.32-.297-2.162l.63-.157c-.126 1.255-.335 2.338-.625 3.249-.292.9-.642 1.651-1.05 2.257-.397.59-.824 1.053-1.28 1.387-.455.334-.906.55-1.352.649zm9.03-3.026c.074-.385.18-.82.32-1.304.135-.496.284-1.014.448-1.553.175-.542.352-1.072.533-1.59.189-.534.371-1.016.546-1.447.234-.555.474-1.08.72-1.577.248-.496.495-.907.743-1.231.257-.34.497-.534.72-.583.235-.052.463.002.683.162.233.157.47.449.712.874.167.306.36.7.577 1.18.218.479.44 1.007.668 1.582.224.564.432 1.138.623 1.722.192.583.35 1.125.473 1.626l-1.519.483a21.815 21.815 0 00-.53-1.798 24.662 24.662 0 00-.676-1.875 20.583 20.583 0 00-.694-1.54c-.222-.443-.416-.731-.581-.866l.655-.292c-.287.48-.582 1.036-.885 1.668-.291.629-.55 1.293-.775 1.994a107.29 107.29 0 00-.469 1.465c-.143.462-.272.907-.385 1.337a54.88 54.88 0 00-.306 1.283l-1.601.28zm8.374 1.666c-.235.052-.435.01-.6-.125a.627.627 0 01-.245-.517c-.008-.145.021-.373.088-.682.07-.297.135-.637.198-1.02.063-.381.088-.767.075-1.157l.833.755c-.17.013-.433.046-.79.1a20.18 20.18 0 00-1.312.254 110.559 110.559 0 00-3.824.918 40.25 40.25 0 00-1.756.498c-.553.172-1.057.344-1.511.518l.55-.766a13.128 13.128 0 00.15 1.255c.04.237.074.445.102.623l.082.368c.033.202-.004.37-.11.503a.723.723 0 01-.454.285c-.282.062-.5-.007-.656-.205a1.87 1.87 0 01-.334-.755 5.354 5.354 0 01-.143-.723 5.693 5.693 0 01-.064-.704c.005-.197.04-.377.102-.538a1.08 1.08 0 01.284-.468 1.79 1.79 0 01.583-.368c.283-.111.668-.24 1.153-.383.495-.159 1.05-.318 1.668-.48a52.788 52.788 0 011.94-.501 55.983 55.983 0 011.912-.46c.305-.067.641-.135 1.008-.204.364-.08.721-.135 1.072-.163.349-.04.601.014.758.164.168.147.258.415.272.805.006.305-.013.635-.058.988a5.545 5.545 0 01-.22 1.006 2.9 2.9 0 01-.336.81c-.125.213-.264.335-.417.37zm4.632-3.509c-.54.12-1.009.088-1.407-.094-.386-.184-.694-.49-.925-.918-.22-.43-.337-.957-.352-1.58-.02-.584.05-1.188.206-1.812a8.773 8.773 0 01.715-1.852 8.589 8.589 0 011.09-1.658c.429-.512.9-.941 1.414-1.288a4.87 4.87 0 011.652-.715c.27-.06.497-.036.681.07.184.107.278.307.282.601a.68.68 0 01-.112.411c-.085.117-.224.21-.419.277a5.613 5.613 0 00-2.094 1.383 6.839 6.839 0 00-1.365 2.088 5.738 5.738 0 00-.455 2.272c.005.355.04.673.102.954.06.269.197.607.41 1.013l-.939-1.063c.272.223.499.357.681.402.195.043.45.03.767-.04.752-.166 1.409-.815 1.97-1.945.561-1.13.966-2.686 1.215-4.668.032-.24.106-.435.221-.583a.813.813 0 01.485-.31c.27-.06.502.012.695.215.202.189.33.46.386.817.117.747.242 1.42.375 2.016.142.582.329 1.118.561 1.606.244.486.586.97 1.026 1.449.096.101.155.23.177.384a.883.883 0 01-.025.466.98.98 0 01-.222.417.729.729 0 01-.396.216.772.772 0 01-.445-.011.934.934 0 01-.313-.244 8.276 8.276 0 01-.656-.868 7.037 7.037 0 01-.575-1.088 9.193 9.193 0 01-.436-1.542c-.121-.6-.22-1.32-.297-2.162l.63-.158c-.126 1.256-.335 2.339-.625 3.25-.292.899-.642 1.651-1.05 2.257-.398.59-.825 1.053-1.28 1.387-.455.334-.906.55-1.353.648zm9.59-2.1c-.282.063-.53-.054-.745-.35-.213-.297-.329-.787-.346-1.47l.002-.903c.002-.38.023-.815.062-1.302.049-.502.128-1.029.24-1.581.2-.977.402-1.758.605-2.343.2-.596.426-1.045.68-1.347.252-.301.538-.487.854-.557a.648.648 0 01.631.174c.185.168.339.386.46.653.12.268.23.538.328.811.13.364.282.766.454 1.207.183.438.375.88.573 1.328.21.444.426.863.649 1.255.236.39.473.712.715.966l-.604.28c.193-.742.408-1.489.647-2.241.239-.753.485-1.476.737-2.17.251-.694.495-1.318.728-1.873.264-.586.502-1.012.713-1.28.224-.27.44-.429.652-.476a.895.895 0 01.446.012c.142.03.269.076.382.137.157.1.292.236.405.408.112.171.186.45.222.834.082.865.182 1.641.298 2.328.124.672.244 1.234.357 1.688.191.804.394 1.435.606 1.89.225.454.335.755.331.903a.544.544 0 01-.164.423.75.75 0 01-.441.263c-.282.063-.547-.02-.794-.247-.237-.23-.429-.569-.578-1.014-.14-.411-.294-.935-.461-1.574a28.803 28.803 0 01-.428-2.17 33.674 33.674 0 01-.274-2.553l.484-.236c-.191.472-.403 1.01-.639 1.614-.225.59-.458 1.206-.697 1.848-.227.639-.444 1.27-.65 1.892-.195.62-.36 1.203-.497 1.749-.081.25-.194.46-.341.627a.942.942 0 01-.539.322c-.281.062-.53.05-.747-.038a1.897 1.897 0 01-.584-.46 6.6 6.6 0 01-.496-.737 23.144 23.144 0 01-.82-1.605 25.12 25.12 0 01-.948-2.35c-.142-.41-.252-.796-.333-1.159l.497-.257c-.272.661-.5 1.3-.682 1.918a13.225 13.225 0 00-.377 1.869 15.496 15.496 0 00-.097 1.973c.007.477.025.89.054 1.24.04.346.063.612.067.795a1.234 1.234 0 01-.134.563c-.086.166-.24.274-.464.324zm15.011-3.316c-.399.089-.737.065-1.014-.07a1.68 1.68 0 01-.657-.628 3.225 3.225 0 01-.385-.983 6.615 6.615 0 01-.12-1.115c.003-.32.016-.703.039-1.15a65.172 65.172 0 01.285-2.788c.064-.43.118-.768.162-1.011.063-.443.127-.789.195-1.037.079-.25.207-.396.384-.435a.673.673 0 01.458.065.93.93 0 01.372.341.966.966 0 01.173.532c.007.195-.016.483-.066.862-.051.38-.111.804-.178 1.273-.068.469-.13.943-.183 1.42a8.82 8.82 0 00-.073 1.25c0 .332.021.646.062.944.039.286.104.517.192.694.086.165.205.23.359.197.375-.083.776-.522 1.204-1.316.438-.796.885-1.858 1.341-3.186.214-.587.395-1.13.542-1.63.147-.498.279-.932.394-1.301.112-.381.236-.684.37-.91.134-.227.29-.36.466-.398.271-.06.487.003.652.187.173.17.292.427.356.768.068.305.139.681.215 1.131l.27 1.377c.09.458.184.885.285 1.28.186.67.374 1.212.565 1.624.199.398.369.717.509.956.139.239.222.442.247.608a.883.883 0 01-.042.396.962.962 0 01-.206.321.634.634 0 01-.329.183c-.411.091-.764-.113-1.06-.612-.296-.5-.592-1.189-.887-2.069-.117-.416-.24-.86-.37-1.335-.12-.477-.226-.957-.321-1.439-.083-.485-.16-.934-.227-1.349l.55.063c-.109.453-.243.955-.403 1.506a45.433 45.433 0 01-.692 2.123 18.43 18.43 0 01-.901 2.095 8.202 8.202 0 01-1.153 1.71c-.415.459-.875.745-1.38.856z" fill="#E71985"/></svg>