<svg width="117" height="68" fill="none" xmlns="http://www.w3.org/2000/svg"><path d="M4.935 33.878c-.408.156-.719.16-.932.01-.202-.169-.302-.4-.302-.695a1.56 1.56 0 01.245-.89c.186-.271.61-.537 1.273-.8a60.03 60.03 0 013.054-1.193 63.75 63.75 0 013.184-1.05 35.86 35.86 0 012.991-.812c.422-.093.774-.057 1.057.11a.722.722 0 01.43.716.977.977 0 01-.199.658c-.144.163-.394.293-.75.388a50.043 50.043 0 00-3.332.936c-.947.308-1.807.606-2.58.892-.772.286-1.494.577-2.166.874-.66.277-1.317.563-1.973.856zm5.012 4.198c-.25.055-.471-.019-.664-.222-.177-.206-.29-.607-.34-1.203-.087-.98-.134-1.97-.143-2.967.004-1.017.021-2.012.05-2.986.027-.99.05-1.92.07-2.793a35.83 35.83 0 00.026-2.317 1.355 1.355 0 01.144-.794.91.91 0 01.63-.484c.36-.08.665.008.919.263.265.236.401.665.408 1.286.019.75.02 1.602.002 2.557-.002.95-.023 1.93-.061 2.939a809.73 809.73 0 01-.082 2.845c-.012.904-.012 1.682.002 2.335.01.49-.089.856-.297 1.098-.209.243-.43.39-.664.443zm12.935-1.444c-.734.163-1.292.122-1.674-.12-.362-.232-.547-.658-.554-1.279a1.59 1.59 0 01.552-1.278c1.627-1.459 2.992-2.77 4.094-3.932 1.099-1.178 1.977-2.241 2.635-3.19.655-.965 1.125-1.84 1.41-2.624.281-.8.415-1.526.401-2.179-.012-.866-.25-1.493-.712-1.882-.467-.405-1.177-.501-2.13-.29-.796.177-1.486.428-2.07.755-.567.322-1.065.662-1.494 1.02-.413.353-.763.66-1.05.92-.286.26-.53.413-.734.459-.297.065-.544.022-.742-.131a.932.932 0 01-.296-.672c.005-.197.045-.387.12-.567.075-.18.226-.386.453-.617a12.608 12.608 0 012.622-2.032 10.28 10.28 0 013.067-1.246c1.203-.267 2.165-.25 2.887.048a2.84 2.84 0 011.608 1.487c.354.708.54 1.544.556 2.507.016.734-.107 1.548-.367 2.441-.245.89-.7 1.869-1.365 2.934-.666 1.065-1.6 2.247-2.803 3.547-1.19 1.28-2.711 2.7-4.562 4.257l-.437-.64c.227.064.454.087.68.07.24-.02.486-.059.736-.114a21.335 21.335 0 002.013-.57 172.97 172.97 0 012.502-.8c.92-.287 1.88-.54 2.879-.762.765-.17 1.279-.145 1.54.076.275.201.414.457.417.768a.952.952 0 01-.281.726c-.188.19-.5.332-.938.43a61.046 61.046 0 00-5.43 1.45c-.69.218-1.318.415-1.885.59a21.14 21.14 0 01-1.648.44zm26.956-.056c-.953.211-1.778.296-2.476.254-.694-.026-1.224-.163-1.59-.41-.366-.246-.55-.557-.552-.934-.008-.26.048-.486.17-.677.14-.178.36-.3.656-.367.187-.041.368-.04.541.003.174.044.373.09.596.138.228.065.53.096.906.094.393-.005.893-.075 1.503-.21.75-.166 1.338-.469 1.765-.908.427-.439.723-.988.888-1.647.18-.663.263-1.402.245-2.218a10.396 10.396 0 00-.108-1.377c-.05-.448-.108-.927-.172-1.437-.064-.51-.13-1.102-.197-1.776a34.83 34.83 0 01-.15-2.45l.877.519c-.26 1.189-.565 2.182-.912 2.98-.351.783-.72 1.414-1.105 1.892-.389.464-.778.812-1.169 1.046a3.874 3.874 0 01-1.06.432c-1.358.302-2.428-.05-3.209-1.058-.784-1.022-1.203-2.838-1.258-5.449-.029-1.091 0-1.925.084-2.501.101-.58.248-.99.44-1.229.193-.24.415-.387.665-.442.234-.052.435-.031.604.063.164.078.276.25.335.515.075.262.1.634.075 1.114a33.613 33.613 0 00.028 2.895c.046.875.149 1.63.306 2.267.158.637.37 1.115.638 1.433.263.302.606.406 1.028.312.656-.145 1.222-.623 1.698-1.434.472-.826.853-1.877 1.143-3.154.303-1.297.52-2.721.65-4.274.044-.469.12-.79.23-.96.105-.188.307-.315.603-.38a.922.922 0 01.633.08c.219.1.384.325.495.677.123.333.156.818.1 1.453a25.793 25.793 0 00-.065 2.252c.029.649.084 1.267.166 1.856.078.572.167 1.159.267 1.76.113.58.208 1.232.286 1.952.074.704.126 1.529.155 2.473.03 1.092-.073 2.032-.308 2.822-.231.805-.558 1.475-.98 2.012a4.696 4.696 0 01-1.536 1.275 7.066 7.066 0 01-1.929.723zm13.575-9.306c-.75.167-1.428.21-2.035.132-.608-.078-1.096-.248-1.466-.51-.37-.262-.563-.58-.58-.953.005-.198.055-.381.149-.55a.642.642 0 01.445-.32.798.798 0 01.448.024c.142.05.311.111.507.183.196.07.469.117.818.138.345.005.799-.055 1.361-.18.875-.194 1.586-.573 2.133-1.136.559-.583.816-1.419.77-2.507-.006-.769-.145-1.434-.417-1.997a3.64 3.64 0 00-1.075-1.408 3.48 3.48 0 00-1.611-.725c-.614-.11-1.281-.084-2 .075-.359.08-.717.2-1.075.362a5.027 5.027 0 01-.958.335.972.972 0 01-.494-.013.688.688 0 01-.365-.313.977.977 0 01-.127-.463c0-.442.21-.825.63-1.148.433-.341 1.14-.621 2.125-.84 1.046-.232 2.016-.258 2.908-.08.907.176 1.7.533 2.376 1.071.673.523 1.204 1.216 1.592 2.08.4.846.613 1.84.637 2.982a5.623 5.623 0 01-.323 2.087 5.434 5.434 0 01-.949 1.71c-.416.486-.915.9-1.494 1.241a7.06 7.06 0 01-1.93.723zm-4.175 7.22a.887.887 0 01-.523-.031.622.622 0 01-.34-.318 1.362 1.362 0 01-.136-.61 2.033 2.033 0 01.112-.712c.068-.212.14-.474.219-.787.082-.296.154-.673.216-1.13.063-.456.088-1.043.076-1.762a16.412 16.412 0 00-.262-2.621c-.143-.87-.31-1.734-.501-2.593-.178-.878-.35-1.758-.512-2.64a18.229 18.229 0 01-.293-2.762c.003-.28.033-.515.089-.708a.934.934 0 01.268-.453 1.05 1.05 0 01.508-.26.804.804 0 01.666.123c.206.118.372.31.497.578.121.252.18.55.174.895.02.98.1 1.895.241 2.75.153.834.317 1.65.494 2.447.192.793.361 1.591.507 2.395.145.803.226 1.646.241 2.527.03.797.012 1.53-.053 2.2a8.763 8.763 0 01-.326 1.744c-.137.49-.32.882-.55 1.18a1.345 1.345 0 01-.812.548zm17.72-10.053c-1.28.284-2.398.237-3.35-.141a4.436 4.436 0 01-2.192-1.899c-.511-.902-.787-1.997-.826-3.283-.022-.913.105-1.744.38-2.493a7.947 7.947 0 011.08-2.01c.445-.574.918-1.031 1.416-1.371.495-.356.937-.577 1.328-.663a1.12 1.12 0 01.437-.024c.135.02.246.077.333.172.099.077.152.204.159.383-.01.33-.07.646-.183.95-.116.288-.386.586-.81.893a6.74 6.74 0 00-1.231 1.207c-.306.396-.53.83-.67 1.304-.144.458-.199.987-.164 1.585.03 1.321.404 2.303 1.12 2.947.714.629 1.633.819 2.757.569 1.093-.243 1.96-.845 2.599-1.806.65-.98.956-2.154.915-3.522-.017-1.258-.303-2.178-.858-2.76-.56-.596-1.307-.791-2.244-.583-.484.107-.878.293-1.18.557-.286.26-.59.59-.911.989-.23.296-.409.557-.54.783-.13.225-.253.409-.37.549-.103.122-.257.205-.46.25-.219.048-.406.016-.562-.097-.144-.132-.221-.369-.232-.71-.017-.374.081-.78.295-1.221.23-.445.528-.871.896-1.28.38-.43.807-.794 1.281-1.096a4.23 4.23 0 011.455-.643c1.125-.25 2.098-.186 2.918.189.818.36 1.454.972 1.908 1.838.45.85.683 1.897.697 3.14.04 1.22-.152 2.344-.58 3.373a6.814 6.814 0 01-1.843 2.548 6.177 6.177 0 01-2.768 1.376zm17.648-3.94c-.468.104-1.015.078-1.64-.078a8.733 8.733 0 01-1.923-.803 15.685 15.685 0 01-1.82-1.219 9.19 9.19 0 01-1.379-1.34 2.347 2.347 0 01-.455-.613 2.975 2.975 0 01-.164-.627c.02-.136.05-.29.094-.463a1.65 1.65 0 01.211-.49c.132-.291.378-.698.737-1.22.36-.523.782-1.092 1.269-1.708a22.756 22.756 0 011.567-1.798 16.348 16.348 0 011.612-1.488c.531-.413 1.008-.666 1.43-.76.171-.038.313-.029.424.029a.66.66 0 01.302.252.799.799 0 01.13.365c.06.347-.093.725-.461 1.135-.368.41-.773.802-1.214 1.179a28.129 28.129 0 00-2.039 2c-.58.637-1.039 1.19-1.378 1.658-.322.465-.474.778-.455.937.003.163.165.414.486.753.318.323.772.673 1.364 1.05.588.36 1.255.671 2.001.932.339.122.668.237.987.346.331.09.602.203.812.337.222.114.348.275.377.481.023.176.003.344-.06.505a.946.946 0 01-.325.417c-.14.113-.302.19-.49.231zM86.8 22.205c-.406.09-.725-.052-.956-.427-.234-.39-.406-.984-.517-1.778a32.438 32.438 0 01-.194-2.981c-.01-.49-.01-1.006 0-1.55l.079-1.639c.023-.562.026-1.104.008-1.624.004-.132 0-.262-.012-.39 0-.148-.008-.294-.024-.438a2.866 2.866 0 01.086-.83 1.5 1.5 0 01.271-.552c.129-.16.271-.257.427-.292.36-.08.677.022.953.305.288.264.434.699.437 1.304.008.408-.01.92-.053 1.536a161.93 161.93 0 01-.107 1.843 21.68 21.68 0 00-.05 1.659 45.7 45.7 0 00.155 2.251c.08.655.159 1.194.237 1.62.074.41.105.697.093.864a1.1 1.1 0 01-.102.539.901.901 0 01-.289.359.89.89 0 01-.442.22zm13.925-3.09c-.719.16-1.343.118-1.872-.125-.513-.247-.924-.656-1.23-1.227-.292-.574-.448-1.277-.469-2.108a8.759 8.759 0 01.275-2.421c.22-.852.537-1.677.95-2.473.41-.812.894-1.55 1.451-2.215a9.066 9.066 0 011.88-1.72 6.466 6.466 0 012.198-.954c.359-.08.661-.049.906.094.244.142.369.41.374.801a.909.909 0 01-.148.55c-.113.156-.299.279-.558.37a7.473 7.473 0 00-2.786 1.846 9.129 9.129 0 00-1.815 2.788c-.415 1.01-.617 2.021-.605 3.035.007.474.052.898.135 1.273.08.36.262.81.546 1.354l-1.249-1.42c.361.297.663.476.906.537.258.057.599.04 1.02-.054 1-.222 1.873-1.088 2.62-2.597.747-1.51 1.286-3.588 1.616-6.234.044-.321.142-.58.295-.779.165-.216.38-.354.645-.413.36-.08.668.016.924.286.269.252.44.616.513 1.091.156.998.322 1.896.499 2.692.189.778.437 1.493.746 2.146.324.649.779 1.293 1.363 1.934a.904.904 0 01.237.513c.045.203.034.41-.034.622a1.31 1.31 0 01-.294.557.978.978 0 01-.526.289c-.234.052-.432.047-.594-.016a1.25 1.25 0 01-.416-.326 11.098 11.098 0 01-.872-1.158 9.474 9.474 0 01-.765-1.453c-.225-.573-.418-1.26-.579-2.06-.162-.8-.293-1.762-.395-2.886l.838-.21c-.169 1.675-.446 3.122-.832 4.338-.389 1.201-.854 2.206-1.396 3.014-.53.79-1.097 1.407-1.703 1.853-.606.446-1.206.735-1.799.866zM17.732 60.088c-.469.104-1.016.078-1.64-.079a8.734 8.734 0 01-1.924-.802 15.675 15.675 0 01-1.819-1.219 9.191 9.191 0 01-1.38-1.341 2.347 2.347 0 01-.455-.612 2.963 2.963 0 01-.163-.627c.019-.136.05-.29.093-.464.044-.173.114-.336.211-.489.133-.291.378-.698.738-1.22a32.33 32.33 0 011.268-1.708 22.776 22.776 0 011.568-1.798 16.346 16.346 0 011.612-1.489c.53-.412 1.007-.666 1.429-.76.172-.037.313-.028.424.03a.66.66 0 01.302.252.797.797 0 01.13.365c.06.347-.093.725-.461 1.134-.368.41-.773.803-1.213 1.18-.78.697-1.46 1.364-2.04 2a19.69 19.69 0 00-1.377 1.658c-.323.465-.475.778-.456.937.003.163.166.414.487.753.317.323.772.672 1.363 1.05a10.31 10.31 0 002.002.932c.338.121.667.237.986.346.332.09.602.203.812.336.222.115.348.276.378.482a1.03 1.03 0 01-.06.505.946.946 0 01-.326.416c-.139.113-.302.19-.49.232zm-7.808 1.708c-.406.09-.724-.053-.955-.428-.234-.39-.407-.983-.518-1.778a32.43 32.43 0 01-.194-2.98c-.01-.49-.01-1.006 0-1.55l.08-1.64c.022-.562.025-1.103.008-1.624a3.358 3.358 0 00-.013-.39c0-.148-.008-.293-.023-.437a2.866 2.866 0 01.086-.83c.064-.228.154-.412.27-.553.13-.16.272-.256.428-.291.359-.08.677.022.952.305.288.264.434.699.437 1.304.009.408-.009.92-.052 1.536a163.74 163.74 0 01-.108 1.843c-.04.632-.056 1.184-.05 1.658.04.844.092 1.594.156 2.252.08.654.158 1.194.236 1.62.075.409.106.697.094.864.01.194-.024.374-.102.538a.901.901 0 01-.29.36.89.89 0 01-.442.22zm13.925-3.09c-.718.16-1.342.118-1.871-.125-.514-.247-.924-.656-1.231-1.227-.292-.574-.448-1.277-.468-2.109a8.756 8.756 0 01.274-2.42c.22-.853.538-1.677.951-2.473.41-.812.893-1.55 1.45-2.215a9.061 9.061 0 011.88-1.72 6.464 6.464 0 012.198-.955c.36-.08.661-.048.906.094.245.143.37.41.375.802a.91.91 0 01-.149.55c-.113.156-.299.279-.557.369a7.464 7.464 0 00-2.786 1.847 9.137 9.137 0 00-1.816 2.788c-.415 1.01-.616 2.021-.604 3.035.006.473.051.898.134 1.273.08.359.262.81.547 1.354l-1.25-1.42c.361.297.663.476.906.537.259.057.599.04 1.02-.054 1-.222 1.874-1.088 2.62-2.597.747-1.51 1.286-3.588 1.616-6.234.044-.322.142-.58.295-.779.165-.217.38-.355.646-.413a.924.924 0 01.924.286c.269.252.44.616.512 1.091.156.998.322 1.895.499 2.692a11.2 11.2 0 00.746 2.145c.325.65.78 1.294 1.364 1.935a.91.91 0 01.237.513c.045.203.033.41-.035.622a1.31 1.31 0 01-.294.557.978.978 0 01-.526.289c-.234.052-.432.046-.593-.016a1.241 1.241 0 01-.417-.326 11.04 11.04 0 01-.871-1.158 9.413 9.413 0 01-.765-1.453c-.226-.573-.419-1.26-.58-2.06-.161-.8-.293-1.762-.395-2.887l.839-.21c-.17 1.676-.447 3.123-.832 4.34-.39 1.2-.855 2.205-1.397 3.013-.53.79-1.097 1.407-1.703 1.853-.606.446-1.205.734-1.799.866zm26.088-5.862c-.422.094-.953-.01-1.593-.31s-1.353-.707-2.14-1.221a17.284 17.284 0 01-2.066-1.558 32.863 32.863 0 01-1.379-1.341 2.818 2.818 0 01-.14-.19.59.59 0 01-.04-.286.413.413 0 01.037-.279c.057-.111.118-.206.182-.286.457-.38.945-.84 1.464-1.382a41.978 41.978 0 001.518-1.689c.481-.566.902-1.069 1.263-1.51.446-.574.847-1.097 1.2-1.569.355-.472.65-.734.883-.785.188-.042.347-.028.477.041a.74.74 0 01.354.266c.09.111.143.239.158.383.04.253-.058.586-.294 1-.22.409-.522.86-.904 1.355a26.17 26.17 0 01-2.083 2.355c-.32.333-.627.647-.922.942-.28.292-.511.54-.695.745-.188.189-.278.299-.271.33.014.063.134.2.362.412.223.196.54.437.947.723.42.268.892.548 1.416.842.581.33 1.094.61 1.538.838.456.21.818.4 1.085.571.264.154.407.32.43.495.036.238-.01.47-.141.695-.134.21-.35.348-.646.413zm-14.803 3.31a.519.519 0 01-.406-.058.653.653 0 01-.307-.276.823.823 0 01-.164-.406c-.05-.3.092-.734.425-1.3.334-.565.785-1.19 1.354-1.873a27.913 27.913 0 011.901-2.069 38.9 38.9 0 011.076-1.025c.302-.264.55-.475.745-.633.194-.157.34-.272.44-.343l.554.836c-.151-.016-.492-.112-1.023-.29-.535-.192-1.224-.53-2.07-1.015a9.18 9.18 0 01-1.324-.985 8.323 8.323 0 01-1.093-1.159c-.284-.395-.45-.736-.497-1.02a1.234 1.234 0 01.024-.448.905.905 0 01.232-.396.971.971 0 01.442-.22c.25-.056.53.062.841.354.31.291.68.66 1.106 1.106.427.447.94.874 1.538 1.282.652.428 1.224.752 1.715.971.491.219.902.374 1.234.464l-.042 1.361c-.46.365-.921.762-1.383 1.192-.45.411-.917.892-1.4 1.442a32.572 32.572 0 00-1.787 2.142c-.492.666-.918 1.22-1.28 1.66-.348.422-.632.657-.85.705zm7.383-1.516a.698.698 0 01-.681-.193 2.244 2.244 0 01-.417-.768 4.282 4.282 0 01-.148-1 24.193 24.193 0 01.02-2.02c.046-.747.056-1.626.029-2.637a36.814 36.814 0 01.021-2.119 34.64 34.64 0 01.207-2.282c.027-.318.13-.669.307-1.052.174-.4.433-.637.776-.713.281-.062.507-.006.677.17.17.175.268.432.294.77-.004.28-.044.69-.12 1.231-.065.523-.14 1.146-.225 1.87-.07.72-.097 1.52-.081 2.402l.033.927c.028.42.048.882.062 1.387.03.502.054.98.072 1.435.035.45.055.799.06 1.044a2.607 2.607 0 01-.195 1.002.936.936 0 01-.69.546zm10.756-3.837c.099-.513.24-1.094.424-1.74.181-.664.38-1.355.597-2.075.233-.724.47-1.432.71-2.124a47.7 47.7 0 01.726-1.932c.31-.74.63-1.443.959-2.105.328-.663.657-1.211.987-1.645.342-.453.661-.712.958-.778.313-.07.615.003.908.216.31.21.625.6.948 1.167.222.41.477.934.767 1.575.29.64.585 1.345.887 2.114.298.753.575 1.52.83 2.299.255.78.464 1.503.629 2.171l-2.02.645a29.234 29.234 0 00-.705-2.4 33.006 33.006 0 00-.9-2.505 27.645 27.645 0 00-.923-2.057c-.295-.59-.553-.975-.773-1.156l.872-.39a27.932 27.932 0 00-1.177 2.228c-.387.84-.731 1.727-1.032 2.663-.224.688-.432 1.341-.623 1.957a42.84 42.84 0 00-.513 1.786 74.186 74.186 0 00-.407 1.712l-2.13.374zm11.138 2.225c-.313.07-.579.013-.8-.167a.838.838 0 01-.325-.69c-.01-.194.03-.498.118-.911.092-.398.18-.851.263-1.361a7.93 7.93 0 00.1-1.547l1.108 1.008c-.225.017-.576.062-1.051.135-.46.07-1.042.182-1.745.338-.656.145-1.333.304-2.033.476-.687.152-1.373.312-2.056.48a41.89 41.89 0 00-1.948.53c-.633.174-1.242.35-1.825.529a30.53 30.53 0 00-1.57.57l.732-1.024a17.508 17.508 0 00.2 1.676c.054.317.099.594.135.831.052.235.088.399.11.492.043.27-.006.493-.147.672a.96.96 0 01-.604.38c-.375.083-.665-.008-.872-.274-.206-.265-.355-.601-.445-1.007a7.175 7.175 0 01-.19-.966 7.63 7.63 0 01-.085-.94c.007-.264.052-.503.136-.718a1.44 1.44 0 01.377-.625c.188-.19.447-.353.776-.492.377-.149.888-.32 1.534-.512a42.246 42.246 0 012.218-.64 70.145 70.145 0 012.58-.67 74.66 74.66 0 012.543-.614l.844-.187c.312-.07.634-.133.966-.19.331-.057.65-.095.958-.114.463-.054.799.02 1.007.219.224.196.344.555.361 1.075.009.408-.016.848-.076 1.32a7.45 7.45 0 01-.291 1.343 3.881 3.881 0 01-.449 1.083c-.166.283-.351.447-.554.492zm8.549-5.167c-1.281.285-2.398.237-3.35-.141a4.435 4.435 0 01-2.192-1.899c-.511-.902-.787-1.997-.826-3.283-.023-.913.104-1.744.38-2.493a7.948 7.948 0 011.079-2.01c.446-.574.918-1.031 1.416-1.371.495-.356.938-.577 1.328-.663.172-.038.318-.046.438-.024.135.02.246.077.333.172.099.077.152.204.158.383a2.93 2.93 0 01-.182.95c-.117.288-.386.586-.81.893-.503.39-.914.793-1.232 1.207a4 4 0 00-.67 1.304c-.143.458-.198.987-.164 1.585.031 1.321.405 2.303 1.121 2.948.713.628 1.632.817 2.757.568 1.093-.243 1.96-.844 2.598-1.806.651-.98.957-2.154.915-3.522-.017-1.258-.303-2.178-.858-2.76-.558-.596-1.306-.79-2.243-.583-.485.107-.878.293-1.18.557-.286.26-.59.59-.911.989-.23.296-.41.557-.54.783a4.04 4.04 0 01-.37.55.82.82 0 01-.46.249c-.219.048-.406.016-.562-.097-.144-.132-.222-.368-.232-.71-.017-.374.081-.78.295-1.221.229-.444.528-.871.896-1.28.38-.43.807-.794 1.28-1.096a4.235 4.235 0 011.456-.643c1.125-.25 2.097-.186 2.918.189.817.36 1.453.972 1.908 1.838.45.85.683 1.897.696 3.14.041 1.22-.151 2.344-.579 3.373a6.814 6.814 0 01-1.844 2.548 6.177 6.177 0 01-2.767 1.376zm9.589-2.152c-.375.084-.705-.073-.99-.468-.284-.396-.437-1.05-.46-1.963a33.82 33.82 0 01.02-2.02c.024-.924.152-1.935.383-3.036.268-1.305.536-2.347.805-3.128.266-.797.567-1.396.904-1.799.337-.402.716-.65 1.138-.744a.859.859 0 01.838.232c.247.224.45.515.612.872.161.358.307.719.437 1.083.173.486.374 1.024.603 1.612.245.585.499 1.176.762 1.773.28.593.567 1.152.864 1.677.312.52.629.95.95 1.288l-.802.375c.255-.99.542-1.989.86-2.993.318-1.005.644-1.97.98-2.897.335-.927.658-1.76.969-2.502.35-.782.667-1.352.948-1.71.297-.36.586-.572.867-.634.203-.045.4-.04.594.015.189.04.358.101.507.183.21.134.39.315.539.544.149.23.248.6.296 1.114a43.1 43.1 0 00.395 3.109c.166.897.325 1.648.475 2.254.255 1.075.524 1.916.806 2.525.299.606.445 1.008.44 1.206a.722.722 0 01-.219.565.99.99 0 01-.586.351c-.375.083-.727-.027-1.056-.331-.314-.307-.57-.759-.768-1.354a30.435 30.435 0 01-.614-2.1 38.73 38.73 0 01-.569-2.898 44.47 44.47 0 01-.363-3.41l.643-.315c-.254.63-.537 1.348-.85 2.155-.3.788-.609 1.61-.927 2.467-.302.854-.59 1.696-.865 2.528-.259.827-.48 1.606-.662 2.334a2.308 2.308 0 01-.453.838c-.18.22-.42.364-.716.43-.375.083-.707.066-.995-.05a2.521 2.521 0 01-.775-.615 8.81 8.81 0 01-.661-.984l-.46-.857a33.202 33.202 0 01-1.288-2.812 33.522 33.522 0 01-.604-1.61 14.62 14.62 0 01-.442-1.55l.662-.343a26.867 26.867 0 00-.907 2.56 17.75 17.75 0 00-.503 2.497 20.91 20.91 0 00-.129 2.635c.01.636.035 1.188.073 1.655.053.464.083.818.088 1.062-.004.28-.063.53-.177.752-.115.223-.32.367-.617.432zm22.393 1.178c-.953.211-1.778.296-2.476.254-.694-.026-1.224-.162-1.59-.409-.366-.246-.55-.558-.552-.935a1.16 1.16 0 01.169-.676c.141-.18.36-.301.657-.367.187-.042.368-.04.541.002.174.044.372.09.596.139.227.064.529.095.906.094.392-.005.893-.076 1.502-.21.75-.167 1.338-.47 1.765-.909.427-.439.724-.988.889-1.647.18-.663.262-1.402.245-2.218a10.414 10.414 0 00-.109-1.377 107.2 107.2 0 00-.171-1.437c-.064-.51-.13-1.102-.197-1.775a35.262 35.262 0 01-.151-2.45l.878.518c-.261 1.189-.565 2.182-.913 2.98-.35.783-.719 1.414-1.104 1.893-.389.463-.779.812-1.169 1.046a3.884 3.884 0 01-1.06.432c-1.359.301-2.428-.052-3.209-1.058-.784-1.023-1.203-2.84-1.258-5.45-.03-1.09-.001-1.925.084-2.5.1-.58.248-.99.44-1.23.193-.239.414-.386.664-.442.235-.052.436-.03.604.063.165.078.277.25.336.515.074.263.099.634.075 1.115a33.444 33.444 0 00.028 2.894c.046.875.148 1.63.306 2.268.158.637.37 1.114.637 1.432.264.302.607.406 1.028.313.656-.146 1.222-.624 1.698-1.434.473-.826.854-1.878 1.144-3.155.302-1.296.519-2.72.65-4.274.043-.469.12-.789.229-.96.106-.188.307-.314.604-.38a.923.923 0 01.633.08c.218.1.383.325.494.678.123.333.157.817.101 1.452-.057.849-.079 1.6-.066 2.252.03.649.085 1.268.166 1.856.078.573.167 1.16.268 1.76.112.581.208 1.232.285 1.952a33.4 33.4 0 01.156 2.473c.029 1.092-.074 2.033-.308 2.822-.231.805-.558 1.476-.98 2.012a4.699 4.699 0 01-1.536 1.275 7.056 7.056 0 01-1.929.723z" fill="#7831B2"/></svg>