<svg width="63" height="44" fill="none" xmlns="http://www.w3.org/2000/svg"><path d="M13.93 18.704l7.94-1.936.062 2.226-5.544 1.352.117 3.362 4.582-1.117.058 2.061-4.582 1.117.153 5.41-2.396.584-.39-13.06zm9.158 1.213l2.15-.525.059 2.061c.29-.737.664-1.354 1.124-1.848.468-.51.97-.83 1.507-.96.116-.03.205-.045.267-.047a.549.549 0 01.161-.021l.07 2.187a4.509 4.509 0 00-1.785.88c-.518.41-.883.914-1.096 1.509l.181 5.829-2.343.571-.295-9.636zM34.04 27.14c-.77.187-1.48.188-2.13 0a3.537 3.537 0 01-1.632-1.066c-.436-.523-.745-1.158-.927-1.904a5.532 5.532 0 01-.088-2.257c.126-.748.39-1.442.789-2.082a5.786 5.786 0 011.537-1.672 5.82 5.82 0 012.162-1.01c.665-.161 1.266-.203 1.804-.124.538.079.988.278 1.35.597.36.308.606.735.74 1.283.236.968-.028 1.81-.792 2.528-.752.714-2.008 1.286-3.768 1.715-.35.086-.73.172-1.141.26-.414.076-.866.15-1.355.22l-.061-1.542c.428-.067.82-.132 1.175-.194a33.85 33.85 0 001.036-.234c.758-.185 1.34-.383 1.746-.593.417-.213.7-.442.85-.689a.985.985 0 00.127-.772c-.057-.233-.16-.405-.311-.517a1.024 1.024 0 00-.57-.212 1.937 1.937 0 00-.748.052c-.455.11-.847.324-1.178.64a3.24 3.24 0 00-.766 1.112c-.189.442-.3.92-.335 1.435a5.15 5.15 0 00.144 1.576c.096.397.249.742.457 1.038.216.28.48.475.791.585.31.11.676.113 1.096.01a2.785 2.785 0 001.23-.651c.366-.324.623-.714.77-1.17l1.995.125a4.913 4.913 0 01-.886 1.531 6.45 6.45 0 01-1.4 1.25 5.667 5.667 0 01-1.71.732zm9.632-2.349c-.77.188-1.48.188-2.13 0a3.537 3.537 0 01-1.632-1.065c-.436-.524-.746-1.158-.928-1.904a5.533 5.533 0 01-.087-2.258 5.696 5.696 0 01.788-2.082c.397-.653.91-1.21 1.538-1.672a5.82 5.82 0 012.162-1.009c.665-.162 1.266-.204 1.804-.125.538.079.988.278 1.35.597.36.308.606.736.74 1.284.236.967-.028 1.81-.792 2.527-.752.715-2.008 1.286-3.768 1.716-.35.085-.73.172-1.141.26-.414.076-.866.149-1.355.219l-.061-1.542c.428-.067.82-.132 1.175-.194.353-.073.698-.151 1.036-.234.758-.185 1.34-.382 1.746-.592.417-.213.7-.443.85-.69a.985.985 0 00.127-.771c-.057-.234-.16-.406-.311-.517a1.024 1.024 0 00-.571-.213 1.937 1.937 0 00-.747.052 2.548 2.548 0 00-1.178.64c-.322.3-.577.671-.766 1.113-.189.44-.3.919-.335 1.434-.035.515.013 1.04.144 1.577.096.396.249.742.456 1.037.217.28.481.476.792.585.31.11.676.113 1.096.01a2.786 2.786 0 001.23-.651 2.62 2.62 0 00.77-1.17l1.995.125c-.19.54-.485 1.05-.886 1.532-.401.48-.868.897-1.4 1.249a5.666 5.666 0 01-1.71.732z" fill="#7831B2"/><path d="M53.745 5.38c1.99 1.162 3.658 2.589 4.93 4.261 3.298 4.337 3.405 9.661.76 14.883-.92 1.814-2.17 3.61-3.73 5.333-2.884 2.973-6.703 5.698-11.337 7.88-12.453 5.866-26.61 5.852-35.113.883-1.99-1.162-3.658-2.589-4.93-4.261-3.298-4.337-3.405-9.661-.76-14.884.92-1.813 2.17-3.609 3.73-5.332 2.884-2.973 6.703-5.698 11.337-7.88C31.085.397 45.242.41 53.745 5.38z" stroke="#7831B2" stroke-width="2"/></svg>