<svg width="330" height="192" fill="none" xmlns="http://www.w3.org/2000/svg"><path d="M185.086 155.04c-.719.321-1.479.297-2.278-.072-.762-.386-1.849-1.195-3.259-2.425a39.456 39.456 0 01-2.692-2.678c-.864-1.021-1.745-2.284-2.643-3.788-.898-1.505-1.845-3.374-2.841-5.606-1.046-2.346-1.986-5.011-2.819-7.996a120.715 120.715 0 01-2.119-8.717c-.381-1.872-.451-3.247-.208-4.127.226-.917.755-1.561 1.588-1.933.529-.236.95-.106 1.262.39.295.458.563 1.109.804 1.955.347 1.387.732 2.962 1.155 4.724.423 1.762.872 3.581 1.345 5.456a93.261 93.261 0 001.655 5.386c.574 1.694 1.175 3.195 1.804 4.503.953 1.933 1.856 3.549 2.707 4.848.89 1.282 1.724 2.339 2.503 3.17a27.678 27.678 0 002.142 1.903c.627.491 1.164.932 1.611 1.323.429.352.745.756.948 1.21.219.492.273.967.16 1.426-.059.479-.334.829-.825 1.048zm-8.606-17.459c-1.071.75-1.925 1.176-2.56 1.278-.635.102-1.114.043-1.439-.175-.324-.218-.528-.422-.613-.611-.219-.492-.321-.923-.304-1.293.054-.387.247-.768.579-1.143.369-.392.926-.822 1.67-1.29a154.78 154.78 0 016.683-3.933 107.53 107.53 0 016.803-3.512c1.135-.506 1.953-.758 2.453-.754.484-.034.852.232 1.106.8.354.794.229 1.531-.376 2.209-.605.678-1.8 1.506-3.587 2.484a178.26 178.26 0 00-4.501 2.417 68.93 68.93 0 00-3.222 1.777 45.758 45.758 0 00-2.692 1.746zm-13.833-14.992a4.716 4.716 0 01-1.324.387c-.408 0-.757-.071-1.048-.213a1.576 1.576 0 01-.663-.725c-.203-.454-.258-.883-.166-1.287.075-.442.381-.873.919-1.295 1.685-1.205 3.728-2.524 6.128-3.958 2.4-1.433 4.901-2.844 7.502-4.231 2.602-1.388 5.019-2.58 7.251-3.576.757-.337 1.424-.521 2-.551.614-.047 1.129.04 1.546.263.417.222.727.56.929 1.014.219.492.191.936-.086 1.332-.24.379-.832.779-1.778 1.201-4.011 1.789-7.443 3.502-10.297 5.138-2.854 1.636-5.178 3.036-6.972 4.199-1.795 1.163-3.108 1.931-3.941 2.302zm47.975 21.195a1.901 1.901 0 01-1.395.078c-.42-.13-.835-.399-1.244-.806a7.023 7.023 0 01-1.012-1.658 268.09 268.09 0 00-3.404-7.327 130.855 130.855 0 00-3.486-6.747c-1.097-2.051-2.102-3.644-3.017-4.778-.615-.769-1.07-1.383-1.365-1.841a10.562 10.562 0 01-.772-1.425c-.287-.643-.372-1.24-.255-1.791.117-.551.478-.962 1.084-1.232.529-.236 1.173-.115 1.931.363.758.479 1.668 1.502 2.73 3.069 1.045 1.53 2.281 3.791 3.707 6.784 1.447 2.939 3.105 6.758 4.975 11.458l-2.368-1.801c-1.655-4.116-2.674-7.722-3.057-10.817-.345-3.112-.229-5.75.349-7.913.577-2.163 1.433-3.905 2.567-5.228 1.172-1.339 2.458-2.321 3.857-2.946.757-.337 1.344-.395 1.761-.172.399.184.692.485.878.901.169.378.213.834.134 1.369-.096.496-.449.926-1.058 1.288-1.778 1.202-3.048 2.676-3.811 4.422-.742 1.692-1.097 3.643-1.065 5.851.033 2.208.381 4.616 1.045 7.223.664 2.607 1.543 5.391 2.637 8.35.43 1.169.713 2.109.849 2.82.119.672.077 1.19-.124 1.552-.185.4-.542.718-1.071.954zm28.529-12.863c-2.686 1.198-5.117 1.647-7.292 1.348a11.014 11.014 0 01-5.777-2.731c-1.638-1.537-2.998-3.516-4.078-5.938-.844-1.892-1.347-3.935-1.51-6.131-.18-2.233.027-4.412.622-6.537a16.214 16.214 0 012.9-5.853c1.378-1.794 3.182-3.189 5.414-4.185 2.498-1.114 4.788-1.32 6.871-.615 2.121.687 3.806 2.43 5.055 5.23.894 2.005 1.057 3.996.488 5.974-.57 1.978-1.718 3.828-3.444 5.551-1.743 1.685-3.939 3.118-6.588 4.3-2.345 1.046-4.08 1.48-5.203 1.301-1.086-.197-1.78-.635-2.084-1.316-.186-.416-.226-.761-.122-1.035.126-.328.454-.61.984-.847.416-.185.979-.346 1.69-.482.711-.135 1.69-.481 2.939-1.038 2.081-.929 3.76-1.995 5.037-3.2 1.315-1.222 2.177-2.491 2.588-3.808.431-1.372.368-2.683-.189-3.931-.641-1.438-1.482-2.356-2.521-2.754-1.002-.415-2.335-.251-4 .492-2.043.911-3.608 2.335-4.695 4.271-1.049 1.92-1.607 4.074-1.675 6.464-.031 2.372.461 4.694 1.473 6.964.675 1.513 1.537 2.784 2.586 3.813a7.055 7.055 0 003.726 1.945c1.472.25 3.135-.038 4.989-.865 2.006-.895 3.561-1.883 4.665-2.966 1.126-1.137 1.981-2.222 2.564-3.253.621-1.048 1.106-1.945 1.454-2.69.369-.8.799-1.309 1.291-1.529.416-.185.759-.179 1.029.018.269.197.53.58.784 1.147.303.681.263 1.607-.123 2.777-.364 1.115-1.01 2.31-1.938 3.586-.928 1.276-2.058 2.506-3.39 3.69a18.7 18.7 0 01-4.52 2.833zm30.925-13.796c-2.686 1.198-5.116 1.647-7.292 1.347a11.008 11.008 0 01-5.777-2.73c-1.638-1.537-2.998-3.517-4.078-5.938-.844-1.892-1.347-3.935-1.51-6.131-.18-2.233.028-4.412.622-6.538a16.203 16.203 0 012.901-5.853c1.377-1.793 3.181-3.188 5.414-4.184 1.664-.743 3.237-1.082 4.718-1.016 1.518.048 2.897.545 4.135 1.49 1.221.906 2.245 2.287 3.072 4.14.895 2.006 1.057 3.997.488 5.975-.569 1.978-1.717 3.828-3.444 5.551-1.743 1.685-3.939 3.118-6.587 4.3-2.346 1.046-4.081 1.48-5.204 1.301-1.086-.197-1.78-.635-2.084-1.316-.186-.416-.226-.761-.121-1.035.125-.328.453-.61.983-.847.416-.185.979-.346 1.69-.482.711-.135 1.69-.482 2.939-1.038 2.081-.929 3.76-1.995 5.037-3.2 1.315-1.222 2.177-2.491 2.588-3.809.431-1.371.368-2.682-.189-3.93-.641-1.438-1.481-2.356-2.521-2.754-1.002-.415-2.335-.251-4 .491-1.551.693-2.828 1.693-3.832 3.003-.982 1.255-1.676 2.699-2.082 4.331-.406 1.633-.528 3.343-.365 5.13a16.408 16.408 0 001.383 5.236c.675 1.513 1.537 2.784 2.585 3.813a7.055 7.055 0 003.726 1.945c1.472.25 3.136-.038 4.99-.865 2.005-.895 3.56-1.883 4.665-2.966 1.125-1.137 1.98-2.222 2.563-3.253.621-1.048 1.106-1.945 1.454-2.69.369-.8.799-1.309 1.291-1.529.416-.185.759-.18 1.029.018.269.197.531.58.784 1.147.304.681.263 1.607-.123 2.776-.364 1.116-1.01 2.311-1.938 3.587-.928 1.276-2.058 2.506-3.389 3.69a18.725 18.725 0 01-4.521 2.833z" fill="#7831B2"/><path fill-rule="evenodd" clip-rule="evenodd" d="M323.916 102.895c1.317-6.717 1.162-13.257-.609-19.41-4.608-16.013-19.385-26.66-39.891-30.964-20.622-4.327-48.145-2.226-75.629 7.697-44.585 16.098-76.925 47.432-82.542 76.091-1.317 6.716-1.162 13.256.609 19.409 4.608 16.014 19.385 26.661 39.891 30.964 20.623 4.328 47.146 2.226 74.63-7.697 44.584-16.098 77.924-47.432 83.541-76.09zm2.349.374c1.368-6.982 1.218-13.836-.65-20.328-9.805-34.07-63.212-45.277-119.288-25.03-45.391 16.389-78.617 48.363-84.431 78.024-1.368 6.981-1.218 13.835.65 20.327 9.805 34.071 63.212 45.278 119.288 25.031 45.391-16.389 78.617-48.364 84.431-78.024z" fill="#7831B2"/><path fill-rule="evenodd" clip-rule="evenodd" d="M309.296 133.373c14.793-17.365 20.012-35.77 15.519-51.383-4.493-15.612-19.137-26.485-40.2-30.905-20.991-4.404-47.817-2.234-75.436 7.739-27.619 9.972-51.527 25.758-66.27 43.065-14.793 17.366-21.012 35.772-16.519 51.384 4.493 15.612 19.137 27.485 40.2 31.904 20.991 4.405 48.817 1.234 76.436-8.738 27.619-9.972 51.527-25.758 66.27-43.066zm-65.44 45.949c56.076-20.247 93.586-64.28 83.781-98.35-9.805-34.072-63.212-45.278-119.288-25.031-56.076 20.246-93.586 64.28-83.781 98.351 9.805 34.071 63.212 45.277 119.288 25.03z" fill="#7831B2"/><path d="M72.243 92.35c-19.367-2.033-39.218-5.783-52.5-12.069C5.507 73.922-2.28 65.073 3.791 53.041c11.171-22.136 9.634-35.494 5.826-43.638 4.313 8.17 6.425 21.609-4.946 44.141C-.98 64.745 6.468 73.644 18.51 79.68c.404.203.816.403 1.233.601 13.722 6.13 33.434 9.945 52.5 12.069z" fill="#7831B2"/><path fill-rule="evenodd" clip-rule="evenodd" d="M2.957.773a1.5 1.5 0 011.402-.77L16.039.7l1.543.05a1.5 1.5 0 01.435.08 1.5 1.5 0 01-.361 2.972L15.9 3.698l-8.117-.265a31.178 31.178 0 013.176 5.302c4.585 8.712 6.563 22.67-4.95 45.485-2.595 5.144-2.161 9.619.227 13.55 2.452 4.035 7.04 7.61 12.945 10.57.39.194.786.387 1.188.578 13.502 6.028 33.017 9.822 52.035 11.94 13.096 1.375 25.973 1.961 36.425 2.015a1.5 1.5 0 011.276 2.275 1.5 1.5 0 01-1.376.886c-10.435-.054-23.386-.716-36.648-2.193-19.39-2.035-39.444-5.802-52.966-12.197C11.91 78.423 6.098 74.476 2.9 69.613-.388 64.616-.805 58.82 2.452 52.365c11.012-21.82 9.37-34.676 5.821-42.294a29.379 29.379 0 00-2.76-4.253l-.227 3.806-.187 5.728a1.5 1.5 0 01-2.942.36 1.493 1.493 0 01-.19-.825l.322-5.401.252-7.724c.012-.385.169-.731.416-.989z" fill="#7831B2"/></svg>