<svg width="193" height="119" fill="none" xmlns="http://www.w3.org/2000/svg"><path d="M66.81 70.902c-.354.115-.66.032-.916-.25-.248-.298-.463-.84-.644-1.627-.18-.787-.346-1.875-.497-3.265a107.812 107.812 0 01-.38-3.72 176.447 176.447 0 00-.26-2.887c-.044-.288-.018-.518.078-.688a.794.794 0 01.464-.379c.228-.074.447.019.658.278.211.26.352.693.424 1.3.09.741.177 1.527.259 2.359l.229 2.386c.07.76.144 1.43.22 2.011.036.38.089.754.158 1.122.081.365.17.734.266 1.106.097.373.204.78.323 1.22.062.27.055.5-.022.69a.597.597 0 01-.36.344zm-7.382 2.446c-.251.082-.49.027-.716-.164-.23-.203-.382-.627-.453-1.272a164.74 164.74 0 00-.21-1.863c-.076-.62-.148-1.246-.216-1.88-.072-.645-.15-1.314-.237-2.005a235.01 235.01 0 00-.254-2.227c-.093-.79-.19-1.648-.29-2.575-.044-.289-.018-.518.078-.688.092-.182.258-.312.498-.39.25-.082.476.009.675.272.208.248.355.699.441 1.352l.425 3.913c.151 1.276.286 2.482.404 3.617.129 1.132.251 2.146.367 3.042a.914.914 0 01-.111.529.66.66 0 01-.401.339zm-1.434-5.326c-.32.104-.576.15-.77.137-.186-.027-.326-.089-.42-.184a.614.614 0 01-.163-.383.846.846 0 01.054-.415c.066-.148.209-.27.43-.367a54.837 54.837 0 015.822-2.524 65.72 65.72 0 012.921-1.029c.32-.104.585-.14.798-.108.22.016.384.076.494.18.11.102.178.218.208.348a.8.8 0 01-.163.545 1.02 1.02 0 01-.514.338 66.944 66.944 0 00-3.549 1.252c-.962.378-1.773.718-2.431 1.02a79.96 79.96 0 00-1.633.742 9.485 9.485 0 01-1.085.448zm14.354 1.073c-.525.172-.994.186-1.406.043-.402-.147-.738-.422-1.008-.827-.26-.407-.427-.92-.503-1.54a6.567 6.567 0 01.03-1.827c.102-.652.279-1.29.53-1.915a8.61 8.61 0 01.921-1.758 6.803 6.803 0 011.279-1.42 4.85 4.85 0 011.571-.873c.262-.086.49-.084.683.005.193.088.306.279.338.57a.683.683 0 01-.071.422c-.073.124-.203.23-.39.316a5.598 5.598 0 00-1.945 1.581 6.852 6.852 0 00-1.152 2.213 5.767 5.767 0 00-.232 2.31c.04.353.104.666.194.94.085.262.254.586.506.97l-1.036-.968c.291.195.53.307.715.335.198.024.45-.014.758-.115.73-.238 1.32-.948 1.767-2.129.448-1.18.699-2.771.754-4.77.009-.244.063-.444.163-.603a.812.812 0 01.452-.356.692.692 0 01.71.147c.22.169.373.428.462.777.189.734.378 1.392.568 1.974.198.566.435 1.082.713 1.547.29.46.675.909 1.158 1.345a.682.682 0 01.214.365.88.88 0 01.02.467.982.982 0 01-.18.438.734.734 0 01-.37.253.767.767 0 01-.445.031.93.93 0 01-.335-.212 8.271 8.271 0 01-.734-.802A7.058 7.058 0 0176.37 65a9.237 9.237 0 01-.582-1.495 20.577 20.577 0 01-.504-2.126l.61-.218c-.004 1.263-.106 2.363-.306 3.3-.203.924-.478 1.707-.823 2.35-.338.628-.717 1.13-1.137 1.507-.42.377-.847.636-1.28.778zm11.89-3.897c-.753.246-1.378.342-1.875.29-.496-.053-.9-.225-1.209-.515-.298-.294-.529-.673-.693-1.137a7.967 7.967 0 01-.33-1.596 16.982 16.982 0 01-.114-1.913c.005-.683.038-1.395.1-2.134.044-.444.101-.79.171-1.04s.19-.404.362-.46a.77.77 0 01.665.067c.2.112.313.321.338.629.021.182.014.487-.023.916-.026.425-.042.954-.05 1.588-.008.633.035 1.364.128 2.192.097.801.321 1.334.673 1.598.362.26.931.264 1.707.011.32-.104.74-.247 1.261-.43a306.62 306.62 0 011.672-.621l1.757-.649c.582-.228 1.09-.431 1.524-.61a18.2 18.2 0 00.953-.444c.141-.071.258-.16.35-.265.087-.118.124-.275.11-.472a11.435 11.435 0 00-.374-2.018 12.954 12.954 0 00-.58-1.723 15.118 15.118 0 00-.567-1.273c-.165-.35-.266-.6-.303-.753a.615.615 0 01.095-.523.746.746 0 01.4-.339c.263-.085.49-.046.683.118.2.15.388.36.565.63.127.198.272.505.432.92.168.399.336.855.504 1.369.179.51.329 1.028.45 1.557.13.513.222.988.276 1.425.08.706.011 1.27-.204 1.694-.208.409-.614.769-1.22 1.08-.217.108-.56.258-1.027.449-.472.179-1.012.38-1.62.604-.605.235-1.225.463-1.86.682-.632.232-1.225.444-1.78.638-.545.19-.993.343-1.347.458zm2.832-1.416a.671.671 0 01-.42-.014.647.647 0 01-.357-.339 5.908 5.908 0 01-.352-1.078c-.1-.46-.191-.934-.275-1.424a37.158 37.158 0 01-.185-1.38 16.926 16.926 0 01-.13-1.964c0-.58.018-.99.054-1.229.016-.182.06-.335.134-.46a.584.584 0 01.36-.288.574.574 0 01.421.014.813.813 0 01.34.287c.094.133.156.303.184.508.022.144.029.357.02.637-.002.266 0 .58.004.945.017.36.05.754.101 1.18.036.34.092.726.17 1.156.087.425.183.855.287 1.288.1.422.2.806.3 1.152.044.175-.016.377-.18.608-.169.219-.327.352-.476.4zm11.064-3.098c-.525.171-.994.185-1.406.042-.402-.146-.738-.422-1.008-.826-.26-.408-.427-.921-.503-1.54a6.563 6.563 0 01.029-1.827c.103-.652.28-1.29.53-1.915a8.607 8.607 0 01.922-1.759 6.797 6.797 0 011.279-1.42c.488-.4 1.012-.69 1.57-.872.263-.086.491-.084.684.004.193.089.306.28.338.572a.683.683 0 01-.071.42c-.073.125-.203.23-.389.316a5.595 5.595 0 00-1.946 1.582 6.852 6.852 0 00-1.153 2.212 5.767 5.767 0 00-.23 2.31c.039.353.103.667.192.94.086.263.255.586.507.971l-1.036-.968c.291.195.53.307.715.334.197.025.45-.014.758-.114.73-.238 1.319-.948 1.767-2.13.448-1.18.699-2.77.753-4.77.01-.243.064-.444.164-.602a.81.81 0 01.452-.356.691.691 0 01.71.147c.219.168.373.427.462.777.189.733.378 1.391.568 1.973.197.567.435 1.082.713 1.547.289.461.675.91 1.158 1.345a.68.68 0 01.214.366.877.877 0 01.02.467.993.993 0 01-.179.437.734.734 0 01-.372.254.766.766 0 01-.444.031.935.935 0 01-.335-.213 8.278 8.278 0 01-.734-.801 7.05 7.05 0 01-.677-1.03 9.197 9.197 0 01-.582-1.494 20.464 20.464 0 01-.505-2.127l.611-.218c-.004 1.264-.106 2.364-.306 3.3-.203.924-.478 1.708-.823 2.351-.338.628-.717 1.13-1.137 1.507-.42.377-.847.636-1.28.777zm21.035-6.843c-.342.112-.752.132-1.23.06a6.566 6.566 0 01-1.494-.459 11.757 11.757 0 01-1.446-.778 6.851 6.851 0 01-1.127-.9 1.763 1.763 0 01-.385-.424 2.276 2.276 0 01-.167-.457c.004-.102.016-.22.036-.352.02-.133.06-.26.122-.38.077-.228.231-.55.462-.966.23-.416.504-.871.822-1.366.326-.51.673-.996 1.04-1.456.375-.476.74-.885 1.095-1.228.367-.347.704-.57 1.012-.671a.466.466 0 01.319-.01.496.496 0 01.243.167c.064.08.106.168.124.263.07.254-.017.548-.262.88a9.617 9.617 0 01-.82.968 21.48 21.48 0 00-1.377 1.642c-.386.518-.689.963-.908 1.338-.207.37-.298.614-.272.732.014.122.154.297.418.527.26.218.625.446 1.094.684a7.7 7.7 0 001.562.55c.261.067.515.13.761.188.254.043.465.107.631.192.174.07.28.18.317.332a.77.77 0 01-.008.381.71.71 0 01-.213.335.878.878 0 01-.349.208zm-5.704 1.842c-.296.097-.544.013-.744-.25-.203-.274-.375-.704-.515-1.29a24.12 24.12 0 01-.362-2.21 30.03 30.03 0 01-.112-1.157l-.06-1.23a16.487 16.487 0 00-.112-1.213 2.512 2.512 0 00-.038-.29 3.149 3.149 0 00-.049-.325 2.124 2.124 0 01.004-.626c.031-.174.085-.318.162-.432a.577.577 0 01.298-.248c.262-.086.506-.033.733.158.234.176.374.49.421.942.036.304.06.688.072 1.15.02.448.038.91.054 1.384.016.474.043.888.083 1.242.091.626.184 1.183.279 1.67.107.482.205.879.295 1.19.085.301.129.514.132.64.022.143.01.28-.037.409a.675.675 0 01-.189.289.67.67 0 01-.315.197zM125.7 51.73c-.935.305-1.772.35-2.511.137a3.332 3.332 0 01-1.774-1.258c-.447-.636-.732-1.433-.855-2.39-.083-.68-.049-1.31.103-1.89.16-.594.379-1.12.659-1.578a4.81 4.81 0 01.958-1.126c.344-.302.658-.499.943-.592a.829.829 0 01.325-.049c.102.005.189.04.261.104.079.05.128.141.146.274.018.247-.005.488-.067.723-.066.223-.246.465-.54.725a5.062 5.062 0 00-.831.99c-.2.318-.335.659-.406 1.023-.074.352-.076.75-.007 1.195.119.984.469 1.69 1.051 2.119.578.417 1.277.492 2.099.224.798-.26 1.401-.773 1.808-1.537.415-.779.557-1.677.427-2.695-.104-.938-.384-1.604-.841-1.998-.46-.405-1.032-.496-1.717-.273-.354.116-.634.283-.84.501a6.487 6.487 0 00-.608.805c-.15.238-.265.446-.346.624-.081.178-.16.323-.236.436a.616.616 0 01-.326.22.503.503 0 01-.427-.03c-.117-.089-.192-.26-.224-.515-.04-.277.004-.588.131-.932.139-.349.331-.689.576-1.021.253-.348.545-.651.877-.911a3.174 3.174 0 011.039-.585c.822-.268 1.552-.292 2.192-.072.637.21 1.156.62 1.558 1.234.398.602.648 1.367.748 2.293.119.908.057 1.761-.187 2.56a5.106 5.106 0 01-1.192 2.036 4.631 4.631 0 01-1.966 1.229zm7.002-2.303c-.274.09-.532-.004-.773-.278-.241-.275-.403-.752-.486-1.432a25.8 25.8 0 01-.132-1.51c-.049-.69-.027-1.455.066-2.293.105-.994.229-1.792.374-2.394.14-.614.322-1.083.544-1.408.222-.325.487-.538.795-.638a.645.645 0 01.643.112c.2.15.373.352.519.607.147.255.282.514.405.776.165.35.354.737.568 1.16.225.419.457.841.697 1.268.252.422.507.819.767 1.189.271.366.538.663.802.893l-.571.338c.119-.759.26-1.524.425-2.297.164-.773.338-1.518.521-2.234s.363-1.362.541-1.938c.206-.61.4-1.058.584-1.345.195-.29.396-.47.601-.537a.887.887 0 01.444-.031c.144.016.275.05.392.1.167.084.314.206.442.367.128.16.229.43.302.81a32.8 32.8 0 00.521 2.291c.189.658.362 1.208.518 1.649.269.783.53 1.392.786 1.826.266.43.405.72.415.868a.54.54 0 01-.122.438.742.742 0 01-.412.304c-.274.09-.545.033-.813-.17-.257-.206-.48-.525-.671-.955a22.92 22.92 0 01-.611-1.524 28.86 28.86 0 01-.635-2.121c-.2-.806-.373-1.646-.519-2.52l.457-.281c-.143.488-.302 1.045-.477 1.67-.167.61-.338 1.247-.513 1.91a94.904 94.904 0 00-.463 1.949 31.455 31.455 0 00-.324 1.791 1.723 1.723 0 01-.278.658.929.929 0 01-.503.373c-.274.09-.522.101-.746.035a1.89 1.89 0 01-.623-.402 6.49 6.49 0 01-.565-.687l-.406-.606a22.34 22.34 0 01-.564-.914 26.547 26.547 0 01-1.169-2.25 10.78 10.78 0 01-.442-1.125l.468-.304a20.382 20.382 0 00-.491 1.977c-.11.63-.175 1.263-.194 1.9-.012.623.02 1.281.095 1.976.054.475.112.885.175 1.23.073.343.121.605.143.787.017.21-.009.4-.078.575-.069.174-.213.296-.429.367zm14.764-4.835c-.525.17-.993.185-1.406.042-.401-.147-.737-.422-1.008-.826-.259-.408-.427-.921-.502-1.54a6.57 6.57 0 01.028-1.827c.103-.652.28-1.29.531-1.915a8.598 8.598 0 01.922-1.759 6.782 6.782 0 011.278-1.42c.489-.4 1.012-.69 1.571-.873.263-.085.49-.084.683.005.193.088.306.279.338.571a.683.683 0 01-.071.421c-.073.125-.203.23-.389.316a5.607 5.607 0 00-1.946 1.581 6.851 6.851 0 00-1.152 2.213 5.747 5.747 0 00-.231 2.31c.039.353.103.666.193.94.085.262.254.586.506.971l-1.036-.969c.291.196.53.307.715.335.198.024.45-.014.758-.114.73-.239 1.319-.948 1.767-2.13.448-1.18.699-2.77.754-4.77a1.2 1.2 0 01.163-.603.81.81 0 01.452-.355.693.693 0 01.711.147c.219.168.373.427.461.777.189.733.378 1.39.568 1.973.198.566.435 1.082.713 1.547.289.461.676.91 1.158 1.345a.682.682 0 01.214.366.877.877 0 01.02.467.982.982 0 01-.179.437.734.734 0 01-.372.253.767.767 0 01-.444.032.933.933 0 01-.334-.213 8.171 8.171 0 01-.735-.802 7.05 7.05 0 01-.677-1.029 9.193 9.193 0 01-.582-1.495 20.48 20.48 0 01-.504-2.126l.61-.218c-.004 1.264-.106 2.363-.306 3.3-.203.924-.477 1.708-.823 2.35-.338.628-.717 1.13-1.137 1.508-.42.376-.846.635-1.28.777zm9.591-3.11a.74.74 0 01-.75-.153c-.227-.19-.426-.492-.598-.903-.164-.426-.284-.949-.36-1.568a8.298 8.298 0 01-.038-1.104 2.99 2.99 0 01.147-.768 1.29 1.29 0 01.311-.499c.103-.109.267-.207.491-.292.221-.098.457-.187.708-.27a26.04 26.04 0 002.425-.923 13.1 13.1 0 002.245-1.3l.693 1.08c-.518.422-1.102.801-1.749 1.139-.647.337-1.317.644-2.009.92-.685.261-1.358.5-2.02.716l-1.043.17c-.046-.49-.096-.991-.15-1.504a80.306 80.306 0 00-.172-1.515c-.05-.502-.098-.96-.145-1.373-.043-.289-.025-.541.056-.757.081-.216.208-.351.379-.407.285-.093.533-.048.744.136.208.172.339.514.392 1.027.037.265.067.59.091.974.024.383.048.785.072 1.207.035.417.065.818.089 1.202.032.368.062.673.091.916.079.707.169 1.334.272 1.88.111.533.186.937.226 1.215a.756.756 0 01-.094.466.497.497 0 01-.304.288zm5.904-1.926c-.285.093-.545-.005-.778-.295-.222-.294-.42-.728-.595-1.302a13.176 13.176 0 01-.386-1.995 52.193 52.193 0 01-.249-2.796c-.03-.71-.032-1.277-.006-1.702.009-.28.051-.54.124-.779.074-.239.208-.39.402-.453.251-.082.466-.02.647.186.189.191.303.463.342.817.054.436.074.922.059 1.457-.003.531.035 1.093.115 1.686.086.73.192 1.383.317 1.96.133.563.255 1.034.367 1.414.111.38.174.67.188.867a.847.847 0 01-.112.585.792.792 0 01-.435.35zm3.154-2.108c.037-.39.1-.834.191-1.33.087-.509.185-1.04.295-1.593.121-.557.246-1.102.375-1.636.136-.55.27-1.048.402-1.495a27.52 27.52 0 01.563-1.641 7.6 7.6 0 01.617-1.3c.222-.363.442-.58.659-.65.228-.075.459-.043.694.095.245.135.509.402.791.802.196.29.425.663.688 1.12.262.457.534.962.815 1.514.278.54.54 1.093.787 1.656.246.563.456 1.088.627 1.575l-1.461.628a21.88 21.88 0 00-.701-1.74 24.603 24.603 0 00-.853-1.805c-.3-.571-.58-1.06-.839-1.468-.263-.42-.483-.688-.661-.807l.623-.355a20.62 20.62 0 00-.717 1.749c-.228.655-.42 1.343-.577 2.063-.117.53-.225 1.032-.323 1.506s-.182.93-.253 1.37c-.064.425-.123.86-.179 1.308l-1.563.434zm8.476.852c-.228.074-.431.052-.609-.067a.628.628 0 01-.292-.491c-.022-.145-.015-.374.021-.689.04-.303.073-.648.098-1.035a6.02 6.02 0 00-.038-1.162l.9.672c-.167.03-.425.088-.775.177a20.29 20.29 0 00-1.277.379 108.225 108.225 0 00-3.708 1.285c-.598.22-1.163.443-1.695.667-.533.224-1.016.445-1.45.662l.472-.816c.025.155.062.345.11.57.048.224.101.446.161.666.063.232.116.436.161.61l.117.36c.052.198.032.368-.06.512a.724.724 0 01-.424.327c-.273.09-.497.043-.67-.14a1.872 1.872 0 01-.406-.72 5.356 5.356 0 01-.211-.708 5.62 5.62 0 01-.133-.695c-.013-.197.003-.38.05-.546.031-.175.11-.339.236-.494a1.76 1.76 0 01.544-.423c.27-.139.639-.303 1.107-.494a31.885 31.885 0 011.609-.639 52.615 52.615 0 011.878-.688 54.83 54.83 0 011.854-.642c.296-.097.623-.197.981-.301a7.858 7.858 0 011.049-.267c.342-.074.598-.044.768.09.181.13.297.39.347.777.036.304.05.634.04.99a5.53 5.53 0 01-.121 1.024 2.88 2.88 0 01-.256.841c-.104.223-.23.36-.378.407zm4.259-3.946c-.525.171-.993.185-1.406.042-.401-.146-.737-.422-1.008-.826-.259-.407-.427-.92-.502-1.54a6.534 6.534 0 01.029-1.827c.102-.652.279-1.29.53-1.915a8.598 8.598 0 01.922-1.759 6.81 6.81 0 011.278-1.42c.489-.4 1.012-.69 1.571-.872.263-.086.49-.084.683.004.193.089.306.28.338.572a.683.683 0 01-.071.42c-.073.125-.202.23-.389.317a5.594 5.594 0 00-1.945 1.58 6.834 6.834 0 00-1.153 2.213 5.747 5.747 0 00-.231 2.31c.039.353.104.667.193.94.086.263.254.586.506.971l-1.035-.968c.291.195.529.307.715.335.197.024.449-.015.757-.115.731-.238 1.32-.948 1.767-2.129.448-1.181.699-2.771.754-4.771.009-.243.064-.444.163-.602a.813.813 0 01.452-.356.693.693 0 01.711.147c.219.168.373.427.462.777a32.7 32.7 0 00.567 1.973c.198.567.436 1.083.713 1.547.29.461.676.91 1.159 1.345a.688.688 0 01.214.366.877.877 0 01.019.467.971.971 0 01-.179.437.734.734 0 01-.372.254.767.767 0 01-.444.031.933.933 0 01-.334-.212 8.171 8.171 0 01-.735-.802 7.05 7.05 0 01-.676-1.03 9.28 9.28 0 01-.583-1.494 20.741 20.741 0 01-.504-2.127l.61-.218c-.004 1.264-.106 2.364-.306 3.3-.203.924-.477 1.708-.823 2.351-.338.628-.717 1.13-1.137 1.507-.42.377-.846.636-1.28.777zM65.754 88.04c-.457.149-.9.243-1.329.282a4.465 4.465 0 01-1.16-.076 2.154 2.154 0 01-.869-.4 1.297 1.297 0 01-.44-.707.795.795 0 01.033-.541c.08-.178.195-.291.344-.34.136-.044.279-.014.426.089.155.087.342.198.561.328.227.115.511.193.853.233.337.029.768-.042 1.293-.213.765-.25 1.302-.576 1.612-.98.317-.42.418-.806.303-1.16-.052-.197-.186-.337-.401-.418-.208-.096-.495-.142-.859-.136-.368-.006-.833.038-1.395.133-.453.084-.76.09-.923.017a.555.555 0 01-.282-.4c-.048-.187.025-.35.22-.488.194-.14.533-.34 1.017-.597.636-.334 1.116-.68 1.44-1.038.337-.363.459-.705.366-1.028-.089-.312-.308-.5-.656-.562-.353-.075-.78-.03-1.282.134-.57.186-1.02.413-1.348.685-.332.26-.587.5-.767.724-.169.219-.316.349-.441.39a.36.36 0 01-.336-.042.54.54 0 01-.174-.303c-.056-.21-.032-.444.073-.705a3 3 0 01.534-.8 4.19 4.19 0 01.95-.745 6.1 6.1 0 011.319-.6c1.004-.328 1.805-.387 2.403-.179.61.205 1.007.631 1.193 1.278.092.36.063.755-.088 1.183-.143.413-.426.82-.85 1.224-.427.392-1.018.749-1.771 1.07l-.101-.251c.707-.23 1.307-.344 1.8-.341.502-.012.903.097 1.205.326.31.215.524.543.643.984.152.504.107 1.025-.135 1.558-.235.519-.616.996-1.142 1.433a5.753 5.753 0 01-1.84.979zm7.796-2.505c-.525.17-.994.185-1.406.042-.402-.147-.738-.422-1.008-.826-.26-.408-.427-.921-.503-1.541a6.563 6.563 0 01.029-1.827c.103-.652.28-1.29.53-1.915a8.608 8.608 0 01.922-1.758 6.797 6.797 0 011.279-1.421c.488-.4 1.012-.69 1.57-.872.263-.086.49-.084.684.004.193.089.305.28.338.572a.683.683 0 01-.071.42c-.073.125-.203.23-.39.317a5.597 5.597 0 00-1.945 1.581 6.854 6.854 0 00-1.153 2.213 5.765 5.765 0 00-.23 2.309c.039.354.103.667.192.94.086.263.255.587.506.972l-1.035-.97c.291.197.53.308.715.336.197.024.45-.014.758-.115.73-.238 1.319-.948 1.767-2.13.448-1.18.699-2.77.753-4.77.01-.243.064-.444.164-.602a.812.812 0 01.452-.356.692.692 0 01.71.147c.22.168.373.427.462.777.189.733.378 1.391.568 1.973.197.567.435 1.083.713 1.548.29.46.675.909 1.158 1.345a.685.685 0 01.214.366.877.877 0 01.02.466.986.986 0 01-.18.438.733.733 0 01-.371.253.767.767 0 01-.444.032.94.94 0 01-.335-.213 8.322 8.322 0 01-.734-.802 7.065 7.065 0 01-.677-1.03 9.214 9.214 0 01-.582-1.494 20.566 20.566 0 01-.505-2.127l.61-.218c-.004 1.264-.105 2.364-.305 3.3-.203.925-.478 1.709-.824 2.35-.337.628-.716 1.132-1.136 1.508-.42.377-.847.636-1.28.778zm14.264-4.616a.503.503 0 01-.426-.031.749.749 0 01-.277-.326 1.188 1.188 0 01-.15-.52c-.022-.22-.003-.529.056-.927.068-.413.167-.881.3-1.404.129-.534.269-1.072.42-1.614.167-.572.341-1.14.523-1.704.19-.58.38-1.102.568-1.568.185-.477.345-.857.48-1.14.215-.424.441-.757.678-.998.245-.257.515-.433.812-.53.274-.09.493-.054.66.107.162.149.318.357.468.623.154.278.319.61.494.994.176.384.362.778.556 1.182.191.392.39.769.596 1.13.248.45.468.833.659 1.149.203.313.383.576.541.789.17.21.322.387.458.532.128.123.234.233.317.332.082.1.139.214.168.343.037.152.038.31.003.473a.84.84 0 01-.208.408.704.704 0 01-.354.248c-.217.071-.444.032-.683-.118-.23-.165-.467-.41-.712-.733-.245-.324-.487-.68-.727-1.07-.143-.243-.33-.567-.563-.97a66.072 66.072 0 01-.709-1.36 49.118 49.118 0 01-.696-1.439 22.172 22.172 0 01-.477-1.17l.387.026c-.222.4-.448.89-.675 1.47-.22.563-.44 1.184-.661 1.862-.21.674-.406 1.37-.588 2.085a29.55 29.55 0 00-.43 2.11c-.105.526-.212.934-.32 1.222-.097.284-.26.463-.488.537zm17.877-5.832c-.741.242-1.396.305-1.965.187a3.06 3.06 0 01-1.413-.732 3.968 3.968 0 01-.908-1.275 5.09 5.09 0 01-.394-1.5 5.167 5.167 0 01.032-1.525c.083-.52.223-1.02.42-1.5a7.35 7.35 0 01.725-1.316c.284-.408.59-.748.918-1.019a3.035 3.035 0 011.017-.597.583.583 0 01.376-.008c.113.038.215.1.306.184a.65.65 0 01.185.337c.015.045-.061.159-.229.34-.169.18-.367.403-.597.667a9.704 9.704 0 00-.665.805 2.748 2.748 0 00-.449.77 12.678 12.678 0 00-.533 1.5c-.132.447-.269.82-.412 1.119-.134.284-.327.466-.578.548-.468.153-.829.283-1.084.392a2.626 2.626 0 00-.606.349c-.149.124-.3.3-.453.526-.184.25-.334.564-.45.942a9.198 9.198 0 00-.24 1.12c-.049.356-.083.639-.103.848-.052.42-.126.735-.222.943-.1.197-.224.32-.373.368a.595.595 0 01-.602-.107c-.174-.145-.282-.4-.326-.764-.029-.168-.035-.437-.017-.809.017-.372.033-.787.048-1.246.022-.474.034-.92.037-1.338a6.858 6.858 0 00-.039-1.047 8.25 8.25 0 00-.265-1.277 20 20 0 00-.317-1.09 4.66 4.66 0 01-.2-.786.906.906 0 01.088-.54.745.745 0 01.435-.35c.263-.086.48-.056.654.09.17.133.315.345.435.634a10.18 10.18 0 01.473 1.568c.082.327.146.66.193.998.029.28.044.617.045 1.007a18.323 18.323 0 01-.078 2.374c-.021.36-.044.658-.068.893l-.025.33-1.213-.002c.002-.228.022-.493.062-.797.04-.303.101-.62.183-.95.082-.329.19-.655.325-.976.135-.322.298-.615.49-.88.241-.381.507-.689.797-.922.29-.234.617-.429.983-.586.373-.172.81-.34 1.312-.504.08-.026.176-.139.287-.34.123-.203.247-.44.374-.708.135-.284.268-.555.398-.812.127-.269.241-.482.34-.64l1.398-.533a7.875 7.875 0 00-.549.52c-.207.22-.41.487-.609.805a3.898 3.898 0 00-.434 1.107c-.101.424-.12.91-.055 1.457.053.588.209 1.087.469 1.494.259.408.593.697 1.002.866.416.155.869.152 1.36-.008a2.825 2.825 0 001.154-.698c.321-.332.565-.708.731-1.129.162-.431.248-.882.259-1.353a4.097 4.097 0 00-.162-1.367 3.662 3.662 0 00-.461-1.005c-.199-.3-.492-.502-.878-.603-.386-.101-.928-.038-1.623.189-.286.093-.536.099-.752.018-.208-.096-.319-.243-.333-.44-.03-.13.007-.268.111-.416a1.6 1.6 0 01.435-.406c.198-.128.411-.23.64-.304.616-.2 1.159-.277 1.629-.228.482.045.9.186 1.255.423.367.234.67.545.911.934.24.388.423.815.549 1.278.19.62.265 1.258.227 1.915a5.328 5.328 0 01-.439 1.904 4.978 4.978 0 01-1.12 1.615c-.478.471-1.087.828-1.829 1.07zm9.986-3.276c-.753.246-1.421.287-2.005.124a3.003 3.003 0 01-1.468-1.017c-.395-.515-.715-1.149-.961-1.902a13.67 13.67 0 01-.547-2.548 9.793 9.793 0 01-.042-2.334 8.9 8.9 0 01.417-1.972 6.661 6.661 0 01.761-1.555c.299-.438.624-.797.975-1.075.473-.37.964-.68 1.475-.936a25.6 25.6 0 001.388-.736c.468-.267.859-.52 1.171-.761.313-.241.561-.391.743-.45a.756.756 0 01.41-.021.647.647 0 01.537.601c.029.205-.037.41-.197.614a3.017 3.017 0 01-.67.559 13.25 13.25 0 01-1.577.912c-.483.22-.927.428-1.33.623a4.496 4.496 0 00-1.126.727c-.34.275-.634.668-.884 1.178-.243.496-.419 1.077-.53 1.745a7.547 7.547 0 00-.013 2.106c.158 1.298.374 2.326.646 3.083.28.742.631 1.24 1.055 1.493.435.25.937.28 1.508.095.388-.127.75-.352 1.086-.676.332-.336.615-.725.85-1.168.245-.446.425-.902.538-1.368.12-.481.154-.921.099-1.32-.042-.44-.162-.786-.357-1.038a1.157 1.157 0 00-.766-.489c-.326-.07-.717-.031-1.173.118-.605.197-1.228.59-1.869 1.178-.63.584-1.208 1.347-1.734 2.288l-.759-.472a6.918 6.918 0 011.072-2.11 6.692 6.692 0 011.547-1.527 6.23 6.23 0 011.713-.9c.696-.227 1.321-.286 1.874-.176.55.099.999.356 1.35.772.35.416.561 1.003.632 1.763a5.937 5.937 0 01-.133 1.974 7.52 7.52 0 01-.729 1.942 6.882 6.882 0 01-1.263 1.643 4.595 4.595 0 01-1.714 1.013zm10.947 1.163c-.696.227-1.306.35-1.83.37-.52.03-.926-.033-1.217-.19-.291-.158-.451-.377-.479-.658a.863.863 0 01.077-.518c.092-.144.246-.25.463-.321a.874.874 0 01.405-.038c.132.02.284.04.455.06.174.032.402.033.683.005a5.775 5.775 0 001.106-.267c.547-.178.964-.447 1.251-.805.287-.36.468-.79.544-1.295a5.88 5.88 0 00.022-1.673c-.04-.353-.1-.693-.181-1.02-.07-.33-.148-.684-.233-1.06a52.386 52.386 0 01-.276-1.312 26.518 26.518 0 01-.29-1.817l.693.323c-.109.906-.264 1.67-.465 2.291-.205.61-.434 1.107-.687 1.493-.257.374-.522.662-.797.865a2.9 2.9 0 01-.759.4c-.993.323-1.817.138-2.473-.557-.659-.706-1.104-2.032-1.335-3.976-.101-.813-.14-1.437-.119-1.873.034-.44.113-.757.24-.95a.884.884 0 01.463-.378.628.628 0 01.456.003c.129.046.225.166.288.36.074.19.12.466.137.827.052.778.129 1.498.231 2.158.098.65.229 1.207.393 1.67.164.465.357.806.58 1.023.219.207.482.26.79.16.479-.157.867-.555 1.163-1.194.293-.651.501-1.464.625-2.438.132-.99.19-2.07.174-3.238-.001-.353.033-.597.102-.734.065-.147.206-.256.423-.327a.691.691 0 01.478.014c.171.058.31.215.419.47.116.24.176.599.18 1.077.019.638.057 1.2.115 1.686.069.482.155.94.259 1.373.099.422.208.853.327 1.294.126.426.245.905.355 1.437.107.52.205 1.132.296 1.835.101.813.092 1.522-.025 2.128-.114.618-.309 1.143-.585 1.573a3.522 3.522 0 01-1.055 1.064 5.286 5.286 0 01-1.387.68zm13.844-9.23c-.742.241-1.397.303-1.965.186a3.06 3.06 0 01-1.413-.732 3.952 3.952 0 01-.908-1.275 5.09 5.09 0 01-.395-1.5 5.134 5.134 0 01.033-1.525c.083-.52.223-1.02.419-1.5.208-.485.45-.923.726-1.316.284-.408.589-.748.917-1.019a3.038 3.038 0 011.017-.597.584.584 0 01.376-.009c.114.039.216.1.306.184a.646.646 0 01.186.337c.015.046-.062.16-.23.34-.168.182-.367.404-.596.668-.233.253-.455.521-.666.804a2.776 2.776 0 00-.449.772 12.86 12.86 0 00-.533 1.499c-.132.447-.269.82-.411 1.119-.135.283-.328.466-.579.548-.467.153-.829.283-1.084.392a2.638 2.638 0 00-.605.349c-.149.124-.3.3-.453.526-.184.25-.334.563-.45.942a9.094 9.094 0 00-.241 1.12c-.048.356-.082.639-.102.847-.052.421-.126.736-.223.944-.1.197-.224.319-.372.367a.596.596 0 01-.603-.106c-.173-.145-.282-.4-.325-.765-.029-.167-.035-.436-.017-.808.017-.372.033-.787.047-1.246.022-.475.035-.92.037-1.338a6.824 6.824 0 00-.038-1.047 8.354 8.354 0 00-.265-1.277c-.108-.407-.214-.77-.318-1.09a4.723 4.723 0 01-.2-.786.913.913 0 01.089-.54.745.745 0 01.435-.35c.262-.086.48-.056.654.089.17.134.315.345.434.635a9.515 9.515 0 01.474 1.568c.081.327.146.66.193.997.028.281.043.617.045 1.008.012.387.012.791-.002 1.213-.018.41-.044.796-.076 1.16-.022.36-.044.658-.069.894l-.025.33-1.212-.003c.002-.227.022-.493.062-.796.04-.303.101-.62.183-.95.081-.33.19-.655.325-.977.135-.321.298-.614.489-.879.242-.381.507-.689.797-.922.29-.234.618-.429.983-.586.373-.172.811-.34 1.313-.504.08-.026.175-.14.286-.34.123-.204.248-.44.375-.709.135-.283.267-.554.398-.811.127-.269.24-.482.34-.641l1.398-.532a7.88 7.88 0 00-.55.52 5.201 5.201 0 00-.608.805 3.9 3.9 0 00-.434 1.107c-.102.424-.12.91-.055 1.457.053.588.209 1.086.468 1.494.259.408.593.696 1.002.866.417.154.87.152 1.361-.008a2.826 2.826 0 001.154-.699c.321-.332.564-.708.73-1.128.162-.431.249-.882.259-1.353a4.097 4.097 0 00-.162-1.367 3.66 3.66 0 00-.46-1.005c-.199-.3-.492-.502-.878-.603-.387-.101-.928-.038-1.624.189-.285.093-.536.099-.751.018-.208-.097-.319-.243-.333-.44-.03-.13.007-.268.11-.416.104-.147.249-.283.436-.407a2.74 2.74 0 01.639-.303c.616-.2 1.159-.277 1.63-.229.481.045.9.186 1.255.424.366.234.67.545.91.934.241.388.424.815.55 1.278.189.62.265 1.258.227 1.914a5.329 5.329 0 01-.44 1.904 4.963 4.963 0 01-1.12 1.615c-.477.472-1.087.828-1.828 1.07zM67.916 103.14c.036-.391.1-.834.19-1.331.087-.508.185-1.038.295-1.592.121-.557.246-1.102.375-1.637.136-.55.27-1.047.402-1.494a28.02 28.02 0 01.563-1.642c.197-.518.403-.951.618-1.3.222-.362.442-.58.658-.65.229-.074.46-.042.694.096.246.134.51.402.792.802.195.29.424.662.687 1.12.263.457.535.962.816 1.514.277.54.54 1.092.786 1.656.247.563.456 1.088.627 1.575l-1.46.628a22.012 22.012 0 00-.701-1.741 24.82 24.82 0 00-.854-1.804c-.3-.571-.58-1.061-.838-1.468-.263-.42-.484-.688-.661-.807l.623-.355c-.24.507-.478 1.09-.718 1.749-.228.655-.42 1.342-.576 2.062-.118.53-.225 1.033-.323 1.507-.098.473-.183.93-.254 1.37a58.57 58.57 0 00-.179 1.308l-1.562.434zm8.475.851c-.228.075-.43.053-.608-.066a.63.63 0 01-.293-.492c-.022-.144-.015-.373.022-.688.04-.304.072-.649.097-1.036a5.938 5.938 0 00-.038-1.161l.901.672c-.167.029-.426.088-.775.177-.339.085-.764.211-1.278.379-.479.156-.973.324-1.483.503-.502.163-1.002.333-1.5.508-.487.171-.959.35-1.416.537-.46.176-.901.351-1.323.527-.42.187-.796.367-1.131.539l.472-.817a13.057 13.057 0 00.271 1.237c.063.232.117.436.161.61l.117.36c.052.197.032.368-.06.512a.719.719 0 01-.423.327c-.274.089-.498.042-.67-.141a1.87 1.87 0 01-.406-.72 5.316 5.316 0 01-.212-.707 5.709 5.709 0 01-.132-.695c-.014-.198.002-.38.049-.546.031-.175.11-.339.237-.494.126-.155.307-.296.543-.423.27-.139.64-.304 1.108-.494a31.325 31.325 0 011.609-.639 53.75 53.75 0 011.877-.688c.643-.235 1.26-.449 1.854-.643l.616-.2c.228-.075.464-.146.707-.212.244-.067.48-.12.707-.155.342-.074.598-.044.768.09.181.13.297.389.348.777.036.303.049.634.04.99a5.53 5.53 0 01-.121 1.024 2.91 2.91 0 01-.256.841c-.104.223-.23.359-.379.407zm4.877-4.034c-.582.191-1.094.226-1.537.105a2.312 2.312 0 01-1.09-.667 3.965 3.965 0 01-.68-1.16 6.806 6.806 0 01-.333-1.368 13.967 13.967 0 01-.063-1.703 17.91 17.91 0 01.16-1.832c.08-.606.189-1.122.328-1.546a1.55 1.55 0 01.225-.471c.107-.136.23-.245.367-.328.133-.094.274-.165.422-.213.137-.045.25-.031.336.042.083.06.132.172.146.33.021.183-.005.432-.08.746-.062.31-.14.69-.234 1.137-.083.444-.141.96-.175 1.553-.038.58-.012 1.24.078 1.98.09.78.297 1.356.62 1.73.325.374.778.466 1.36.276.433-.141.83-.397 1.189-.766.359-.37.64-.802.845-1.298a3.274 3.274 0 00.249-1.558l.294.263a4.69 4.69 0 00-1.11.079c-.41.058-.842.148-1.294.27-.445.107-.875.24-1.29.402a8.358 8.358 0 00-1.095.47l-.146-1.201a8.299 8.299 0 001.61-.752 6.845 6.845 0 001.247-.994 4.98 4.98 0 00.803-1.02c.181-.336.253-.62.217-.846-.018-.171-.1-.284-.243-.338-.148-.065-.347-.058-.598.025a3.91 3.91 0 00-.93.455c-.302.198-.618.428-.95.688-.332.26-.684.533-1.058.819-.157.1-.306.125-.45.07a.34.34 0 01-.215-.308c-.018-.171.042-.354.18-.551.146-.211.293-.38.442-.504.577-.592 1.14-1.053 1.688-1.383a7.448 7.448 0 011.604-.77c.411-.134.768-.181 1.071-.141.315.036.565.144.75.324.196.175.31.409.342.702.051.387-.007.79-.172 1.21-.166.42-.414.843-.743 1.266a7.562 7.562 0 01-1.123 1.142 8.128 8.128 0 01-1.4.93l-.127-.678a17.22 17.22 0 011.489-.485 7.55 7.55 0 011.282-.248c.38-.037.69.008.933.13.25.109.415.306.497.596.126.463.115.972-.033 1.526a5.035 5.035 0 01-.75 1.589 6.685 6.685 0 01-1.267 1.397c-.488.4-1.017.692-1.588.877zm8.275-2.793c-.388.126-.726.136-1.013.028a1.687 1.687 0 01-.714-.563 3.27 3.27 0 01-.478-.942 6.751 6.751 0 01-.226-1.1 26.675 26.675 0 01-.072-1.15 56.142 56.142 0 01-.008-1.418c.003-.493.01-.956.02-1.388.022-.437.043-.778.064-1.025.018-.447.049-.799.092-1.052.055-.259.168-.415.339-.47a.663.663 0 01.46.02.92.92 0 01.403.304c.12.137.195.309.224.514.025.193.031.481.017.865-.013.383-.031.812-.053 1.286s-.037.952-.044 1.434c-.01.47.006.888.05 1.253.031.33.082.642.153.934.066.282.152.506.257.674.101.156.226.21.375.16.365-.118.72-.593 1.068-1.426.358-.836.699-1.94 1.023-3.306a28 28 0 00.38-1.677c.099-.512.187-.957.265-1.336.075-.39.168-.705.28-.943.111-.24.252-.386.424-.441.262-.086.484-.045.665.123.189.153.331.397.428.732.096.296.204.665.323 1.106l.4 1.346c.135.449.27.865.408 1.249.25.65.49 1.172.719 1.565.236.377.436.678.597.903.162.225.263.419.304.582.03.13.029.262-.002.399a.962.962 0 01-.173.34.629.629 0 01-.31.213c-.398.132-.77-.038-1.112-.507-.342-.47-.702-1.127-1.08-1.976-.157-.403-.323-.835-.498-1.295a30.096 30.096 0 01-.458-1.404c-.13-.475-.248-.916-.356-1.323l.553.01c-.064.462-.15.976-.255 1.54a45.994 45.994 0 01-.481 2.183 18.58 18.58 0 01-.691 2.176 8.205 8.205 0 01-.98 1.815c-.367.499-.796.827-1.287.988zm19.665-6.49c-.308.1-.712.062-1.212-.116s-1.061-.43-1.686-.757a12.874 12.874 0 01-1.655-1.012 25.302 25.302 0 01-1.127-.902 2.071 2.071 0 01-.119-.131.447.447 0 01-.05-.211.31.31 0 01.007-.21c.035-.087.074-.163.116-.227.313-.317.644-.696.992-1.138a32.22 32.22 0 001.01-1.371c.318-.457.596-.863.834-1.218.291-.462.552-.882.782-1.26.23-.377.431-.594.602-.65a.507.507 0 01.358-.003c.11.027.205.085.284.172a.542.542 0 01.146.275c.048.186-.001.442-.147.767-.135.322-.327.68-.576 1.078-.242.382-.498.756-.77 1.122-.184.249-.389.512-.614.787-.215.272-.421.529-.62.77-.188.238-.343.44-.465.606-.126.155-.186.244-.178.267.015.045.115.139.3.28.181.13.434.288.759.472a22.3 22.3 0 001.118.526c.458.204.861.375 1.209.514.356.124.64.239.852.347.208.096.327.209.356.338a.777.777 0 01-.054.529c-.085.166-.235.285-.452.356zm-10.81 3.545a.387.387 0 01-.307-.014.491.491 0 01-.25-.183.617.617 0 01-.151-.292c-.06-.22.015-.554.223-1 .207-.446.499-.945.874-1.497.384-.567.806-1.128 1.269-1.683.291-.347.534-.629.729-.843.206-.22.376-.394.51-.526a7.63 7.63 0 01.303-.288l.475.583c-.076 0-.22-.017-.433-.048a12.278 12.278 0 01-.812-.227c-.33-.12-.716-.278-1.159-.475a6.846 6.846 0 01-1.06-.638 6.264 6.264 0 01-.9-.786c-.24-.275-.39-.516-.445-.726a.924.924 0 01-.015-.336.68.68 0 01.145-.312.734.734 0 01.314-.197c.182-.06.4.008.653.204.253.195.555.442.906.744.351.303.765.584 1.241.846.519.273.969.473 1.351.6.383.128.701.214.955.257l.067 1.02c-.317.305-.632.635-.945.99-.306.339-.62.732-.941 1.178a24.222 24.222 0 00-1.178 1.728c-.319.533-.597.977-.834 1.333-.23.34-.425.535-.585.588zm5.402-1.667a.524.524 0 01-.523-.095 1.658 1.658 0 01-.367-.543 3.167 3.167 0 01-.183-.735c-.028-.32-.053-.646-.073-.98l-.084-1.128a38.487 38.487 0 00-.145-1.372 57.142 57.142 0 01-.09-1.031l-.061-1.116a16.5 16.5 0 01.001-1.156 2.424 2.424 0 01.153-.807c.101-.311.277-.507.528-.59.205-.066.378-.04.517.079.14.118.232.303.276.554.017.208.017.518 0 .927-.011.395-.021.865-.032 1.412 0 .543.038 1.142.113 1.799l.093.69c.051.31.1.655.147 1.03.058.373.111.728.158 1.066.059.335.099.593.12.775.025.27.001.524-.073.763a.704.704 0 01-.475.458zm11.91.81c-.696.227-1.306.35-1.83.37-.52.03-.926-.033-1.217-.19-.291-.158-.451-.377-.479-.658a.865.865 0 01.077-.518c.092-.143.246-.25.463-.321a.868.868 0 01.405-.037c.132.02.284.038.455.06.174.03.402.032.683.004.292-.032.661-.121 1.106-.266.547-.18.964-.447 1.251-.806.287-.36.468-.79.544-1.294a5.883 5.883 0 00.022-1.674c-.04-.353-.1-.693-.181-1.02a75.37 75.37 0 00-.233-1.06 52.085 52.085 0 01-.276-1.311 26.488 26.488 0 01-.29-1.818l.693.323c-.109.907-.264 1.67-.465 2.29-.205.61-.434 1.109-.687 1.493-.256.375-.522.664-.797.867-.266.188-.52.32-.759.399-.662.216-1.252.206-1.77-.028-.507-.24-.937-.724-1.289-1.455-.34-.734-.59-1.751-.749-3.05-.101-.812-.14-1.438-.119-1.873.034-.44.113-.757.24-.95a.886.886 0 01.463-.378.636.636 0 01.456.003c.129.047.225.167.288.36.074.19.12.466.137.827.052.778.129 1.498.231 2.159.098.649.229 1.206.393 1.67.164.464.357.805.58 1.023.219.206.482.259.79.159.479-.157.867-.555 1.163-1.194.293-.651.501-1.463.625-2.438.132-.99.19-2.07.174-3.238-.001-.353.033-.598.102-.734.065-.147.207-.256.423-.327a.695.695 0 01.353-.02c.133.02.25.088.352.206.109.104.195.271.259.503.07.217.108.508.113.872.019.638.057 1.2.115 1.686.069.482.155.94.259 1.373.099.422.208.854.327 1.295.126.425.245.904.355 1.436.107.52.205 1.132.296 1.835.101.813.092 1.522-.025 2.129-.114.618-.309 1.142-.585 1.573a3.519 3.519 0 01-1.055 1.063 5.299 5.299 0 01-1.387.68zm5.873-6.592a.606.606 0 01-.399-.003c-.125-.035-.225-.13-.299-.281-.075-.152-.093-.361-.053-.626.021-.362.14-.867.357-1.518.228-.655.53-1.391.907-2.208a28.27 28.27 0 011.36-2.565c.53-.892 1.108-1.75 1.736-2.573.322-.446.589-.785.803-1.02.222-.248.405-.422.55-.52.145-.097.286-.168.423-.213a.634.634 0 01.501.026c.159.062.256.207.293.434.021.183-.008.363-.089.54a2.18 2.18 0 01-.402.567 16.11 16.11 0 00-2.078 2.685 25.665 25.665 0 00-1.631 3.126 32.006 32.006 0 00-1.239 3.226c-.1.272-.216.48-.345.623a.828.828 0 01-.395.3zm6.32-2.1a.788.788 0 01-.512-.003c-.159-.062-.35-.222-.572-.476a27.685 27.685 0 00-1.414-1.376 27.796 27.796 0 00-1.585-1.376 20.612 20.612 0 00-1.614-1.234 13.307 13.307 0 00-1.452-.91 3.497 3.497 0 01-.72-.465.919.919 0 01-.309-.6.887.887 0 01.06-.455c.054-.144.184-.249.389-.316a.948.948 0 01.621-.013c.197.062.482.202.856.421.277.15.603.359.981.627s.782.578 1.212.93c.442.348.88.704 1.314 1.067.43.352.832.694 1.206 1.027.385.329.7.617.945.866.407.397.68.712.819.944.135.22.212.417.23.588a.725.725 0 01-.077.46c-.069.137-.195.234-.378.294zm6.941 2.45c-.695.227-1.305.35-1.829.37-.52.03-.926-.033-1.217-.19-.291-.158-.451-.377-.48-.658a.868.868 0 01.078-.517c.092-.144.246-.252.463-.322a.864.864 0 01.404-.037c.133.02.285.04.455.06.175.03.402.033.683.004.293-.032.661-.121 1.106-.266.548-.18.965-.447 1.252-.806.287-.36.468-.79.543-1.294a5.845 5.845 0 00.023-1.674c-.04-.353-.1-.693-.182-1.02a81.37 81.37 0 00-.232-1.06 52.657 52.657 0 01-.276-1.311c-.103-.51-.2-1.115-.29-1.818l.692.323c-.108.906-.263 1.67-.464 2.291-.205.61-.434 1.108-.687 1.493-.257.374-.522.663-.797.866-.267.188-.52.32-.76.399-.992.324-1.816.138-2.472-.556-.66-.707-1.105-2.032-1.335-3.977-.101-.813-.141-1.437-.119-1.873.033-.44.113-.757.24-.95a.884.884 0 01.463-.378.626.626 0 01.455.003c.129.046.225.166.288.36.075.19.121.466.137.827.052.778.129 1.498.231 2.159.099.65.23 1.206.394 1.67.164.464.357.804.579 1.023.219.206.483.259.791.159.479-.156.867-.554 1.163-1.194.292-.651.501-1.464.625-2.438.131-.99.189-2.069.174-3.238-.001-.353.032-.597.102-.734.065-.147.206-.256.423-.327a.69.69 0 01.478.015c.17.058.31.214.418.469.116.24.177.599.181 1.077.019.638.057 1.2.114 1.686.069.482.156.94.259 1.373.1.422.209.853.328 1.294.126.426.244.905.355 1.437.106.52.205 1.133.295 1.835.101.813.093 1.522-.025 2.129-.114.617-.309 1.142-.585 1.573a3.515 3.515 0 01-1.054 1.063 5.274 5.274 0 01-1.388.68zm5.502-3.517a.6.6 0 01-.438-.01c-.132-.057-.206-.165-.22-.325a1.474 1.474 0 01.032-.484c.027-.185.092-.433.192-.744.121-.405.201-.797.241-1.177a9.02 9.02 0 00.082-1.143 9.667 9.667 0 00-.073-1.151c-.039-.353-.007-.641.097-.865a.807.807 0 01.498-.446c.388-.127.701-.115.939.034.246.135.392.428.438.88.047.376.046.818-.002 1.326-.042.494-.123 1-.244 1.519a7.287 7.287 0 01-.47 1.46 2.07 2.07 0 01-.431.708c-.188.2-.401.339-.641.418zm10.135-6.298a.503.503 0 01-.427-.031.754.754 0 01-.277-.327 1.19 1.19 0 01-.15-.519c-.021-.22-.002-.53.057-.927.067-.413.167-.881.3-1.404a43.71 43.71 0 01.42-1.614c.167-.572.341-1.14.523-1.704.19-.58.379-1.102.568-1.568.185-.477.345-.857.48-1.14.215-.425.441-.757.678-.998.244-.257.515-.433.812-.53.273-.09.493-.054.659.106.162.15.319.357.469.624.153.278.318.61.494.994s.361.778.556 1.181c.191.393.39.77.596 1.131.248.45.467.832.659 1.149.203.312.383.575.541.789.17.21.322.387.458.532.128.122.234.233.316.332.083.1.139.214.169.343.037.152.038.31.003.472a.849.849 0 01-.208.409.704.704 0 01-.354.248c-.217.07-.445.031-.683-.118-.23-.165-.468-.41-.712-.733-.245-.325-.487-.68-.728-1.07l-.563-.97a51.299 51.299 0 01-1.405-2.798c-.202-.465-.36-.855-.476-1.171l.387.025c-.223.401-.448.891-.676 1.47-.219.564-.44 1.185-.66 1.863-.21.674-.406 1.37-.589 2.085a30.195 30.195 0 00-.429 2.11c-.106.526-.213.933-.321 1.221-.096.284-.259.463-.487.538zm11.523-3.778c-.388.126-.725.135-1.013.027a1.69 1.69 0 01-.714-.562 3.3 3.3 0 01-.478-.942 6.81 6.81 0 01-.226-1.1 27.422 27.422 0 01-.072-1.15 54.719 54.719 0 01-.008-1.418c.003-.493.01-.956.02-1.389.022-.436.043-.778.064-1.024.018-.448.049-.799.092-1.053.055-.257.168-.414.339-.47a.668.668 0 01.461.02.924.924 0 01.402.305c.12.137.195.308.224.513.026.194.031.482.017.866-.013.383-.031.812-.053 1.286a45.06 45.06 0 00-.044 1.434c-.01.47.006.888.049 1.253.032.33.083.641.154.934.066.281.152.506.257.673.102.157.226.21.375.162.365-.119.721-.595 1.068-1.427.358-.837.699-1.939 1.023-3.307.155-.606.282-1.165.381-1.677.098-.511.186-.957.264-1.335a4.07 4.07 0 01.28-.944c.111-.238.252-.385.424-.44.262-.086.484-.045.665.123.189.153.331.397.428.731.096.297.204.666.323 1.107l.401 1.346c.134.448.269.865.407 1.249.25.65.49 1.172.719 1.564.237.377.436.678.598.903.161.225.262.42.303.583a.88.88 0 01-.002.398.969.969 0 01-.173.34.641.641 0 01-.309.215c-.263.086-.518.037-.768-.147-.237-.188-.473-.483-.705-.887a14.91 14.91 0 01-.72-1.45 176.19 176.19 0 01-.498-1.296 30.106 30.106 0 01-.458-1.403 249.45 249.45 0 01-.356-1.323l.553.01c-.052.306-.109.634-.172.983a20.31 20.31 0 01-.218 1.188c-.086.432-.202.95-.346 1.552a18.61 18.61 0 01-.691 2.176 8.212 8.212 0 01-.98 1.815c-.367.498-.796.828-1.287.988zm12.54-4.129c-.753.246-1.378.343-1.875.29-.496-.052-.899-.224-1.209-.514-.298-.294-.528-.674-.692-1.138a7.948 7.948 0 01-.332-1.596 17.146 17.146 0 01-.113-1.913 28.53 28.53 0 01.099-2.134 6.47 6.47 0 01.172-1.04c.07-.25.191-.403.362-.46a.77.77 0 01.665.068c.201.111.313.32.338.628.021.182.014.488-.023.916-.026.425-.042.955-.05 1.588-.008.634.035 1.365.128 2.193.097.8.322 1.334.673 1.598.362.26.932.264 1.707.01.32-.103.74-.247 1.261-.43.517-.194 1.075-.4 1.672-.62l1.757-.65c.582-.227 1.09-.43 1.524-.61.442-.195.759-.343.954-.444.14-.071.257-.16.348-.265.088-.117.126-.274.112-.472a11.509 11.509 0 00-.374-2.017 13.142 13.142 0 00-.581-1.723 15.41 15.41 0 00-.567-1.273c-.165-.35-.266-.601-.303-.753a.616.616 0 01.095-.523.746.746 0 01.4-.34c.263-.085.49-.046.683.119.2.15.388.359.565.63.128.198.272.504.432.919.169.4.336.856.504 1.37.179.509.329 1.028.451 1.556.129.513.221.988.275 1.425.079.706.011 1.271-.204 1.695-.208.408-.614.768-1.22 1.08-.217.108-.559.257-1.027.448-.472.18-1.012.38-1.62.604a52.31 52.31 0 01-1.861.683 113.262 113.262 0 01-3.126 1.095zm2.833-1.416a.674.674 0 01-.422-.014.647.647 0 01-.356-.338 5.91 5.91 0 01-.352-1.078c-.099-.46-.191-.935-.275-1.425a36.575 36.575 0 01-.185-1.379 16.938 16.938 0 01-.129-1.964c-.001-.58.017-.99.053-1.23.016-.181.061-.335.134-.46a.583.583 0 01.36-.288.574.574 0 01.421.014.81.81 0 01.34.287c.094.134.156.303.185.508.022.144.028.357.018.638-.001.265 0 .58.006.945.016.36.05.753.1 1.178.036.342.092.728.169 1.157.089.426.184.855.288 1.288.1.422.2.806.3 1.152.044.175-.016.378-.18.608-.169.22-.327.353-.475.401zm11.646-3.288c-.559.183-1.04.238-1.441.167a2.025 2.025 0 01-1.022-.518 3.007 3.007 0 01-.659-.978 4.942 4.942 0 01-.305-1.226 11.157 11.157 0 01-.069-1.662c.011-.623-.006-1.16-.053-1.612a11.607 11.607 0 00-.208-1.219 4.727 4.727 0 01-.132-.752.952.952 0 01.014-.364.912.912 0 01.167-.301c.084-.09.2-.16.348-.208.32-.105.583-.033.79.215.215.233.349.568.404 1.005.04.277.066.61.079.996.008.376.015.765.02 1.167.005.403.016.784.033 1.145.017.36.039.662.068.905.058.448.147.836.266 1.163.115.316.289.537.519.664.239.111.557.102.957-.028a2.92 2.92 0 00.971-.563c.317-.268.594-.579.831-.934a3.81 3.81 0 00.514-1.095c.101-.387.105-.742.013-1.065-.049-.148-.172-.234-.369-.258-.189-.04-.472.002-.849.125-.422.138-.84.306-1.255.504a18.257 18.257 0 00-2.097 1.177.536.536 0 01-.307.043.524.524 0 01-.25-.127.467.467 0 01-.107-.268.874.874 0 01.021-.46.868.868 0 01.326-.392c.21-.169.462-.346.755-.53a13.371 13.371 0 011.994-1.086c.339-.16.662-.291.97-.392.559-.182 1.011-.247 1.356-.196.356.048.635.184.834.41.2.225.344.512.433.862.137.498.136 1.035-.005 1.61a5.734 5.734 0 01-.734 1.698 6.203 6.203 0 01-1.244 1.466 4.572 4.572 0 01-1.577.912zM76.653 118.2c-.754.246-1.422.287-2.005.124a3.008 3.008 0 01-1.468-1.017c-.395-.515-.715-1.149-.96-1.902a13.598 13.598 0 01-.548-2.548 9.735 9.735 0 01-.042-2.334 8.917 8.917 0 01.417-1.973 6.612 6.612 0 01.761-1.554c.3-.439.624-.797.975-1.076.473-.368.964-.68 1.474-.935a24.34 24.34 0 001.388-.737c.469-.266.86-.52 1.172-.761.313-.241.56-.391.743-.45a.745.745 0 01.41-.02.642.642 0 01.537.601c.029.205-.037.409-.198.613a2.973 2.973 0 01-.67.559 13.02 13.02 0 01-1.576.912 69.13 69.13 0 00-1.33.624 4.475 4.475 0 00-1.126.727c-.34.275-.635.667-.885 1.178-.242.496-.418 1.077-.529 1.744a7.524 7.524 0 00-.013 2.106c.158 1.299.374 2.327.646 3.084.28.742.631 1.239 1.055 1.492.434.25.937.281 1.507.095.388-.126.75-.352 1.086-.676.333-.335.616-.724.85-1.167a5.53 5.53 0 00.538-1.368c.121-.481.154-.921.1-1.32-.043-.441-.162-.787-.358-1.038a1.158 1.158 0 00-.765-.489c-.326-.071-.717-.031-1.173.117-.605.198-1.228.59-1.87 1.178-.629.584-1.207 1.347-1.733 2.289l-.76-.472a6.937 6.937 0 011.073-2.111 6.737 6.737 0 011.546-1.527 6.258 6.258 0 011.714-.899c.696-.227 1.32-.286 1.874-.176.55.098 1 .355 1.35.771.35.416.56 1.004.631 1.763a5.961 5.961 0 01-.132 1.975 7.542 7.542 0 01-.73 1.942 6.858 6.858 0 01-1.262 1.642 4.575 4.575 0 01-1.715 1.014zm9.282-3.009c-.536.175-1.018.187-1.446.036-.428-.151-.779-.434-1.053-.849-.278-.427-.46-.967-.547-1.62-.101-.813-.197-1.59-.287-2.33a177.27 177.27 0 00-.25-1.926l-.118-1.059a1.126 1.126 0 01.014-.422.99.99 0 01.202-.368.722.722 0 01.326-.22c.262-.086.499-.018.71.204.222.217.36.507.415.868.036.341.064.755.084 1.241.03.482.077.934.139 1.356l.042.592c.025.231.046.471.063.717l.065.604c.072.646.226 1.119.463 1.421.237.301.55.388.938.262.216-.071.437-.206.663-.406.236-.203.45-.437.641-.701.188-.276.332-.551.433-.823.1-.273.119-.506.055-.7-.085-.3-.243-.514-.474-.64-.219-.131-.501-.203-.846-.216a3.881 3.881 0 00-.74-.005 15.61 15.61 0 00-.934.096c-.33.032-.642.083-.935.154l-.072-1.208c.388-.202.819-.45 1.291-.743a27.73 27.73 0 001.48-.975c.504-.353.983-.705 1.436-1.055.515-.395.96-.774 1.334-1.136.386-.365.714-.674.985-.927.279-.268.52-.435.726-.502.354-.115.661-.083.922.097.268.165.426.454.472.868.04.392.077.777.112 1.157.044.364.085.742.124 1.133a55.6 55.6 0 00.355 2.365c.077.429.16.819.248 1.168.075.228.151.481.229.759.085.262.137.46.156.593a.814.814 0 01-.043.392.654.654 0 01-.207.295.733.733 0 01-.314.197c-.24.078-.46.024-.66-.163a2.272 2.272 0 01-.467-.795 15.09 15.09 0 01-.455-1.744 25.817 25.817 0 01-.301-1.852 22.49 22.49 0 00-.103-.895c-.032-.33-.062-.655-.09-.974-.028-.319-.057-.6-.086-.843a43.567 43.567 0 00-.047-.552l.459.248a11.61 11.61 0 01-.865.831c-.355.305-.765.634-1.23.988-.47.342-.96.692-1.475 1.049-.515.358-1.04.705-1.572 1.043-.526.323-1.038.61-1.537.861l-.03-.672a7.87 7.87 0 01.4-.168c.186-.086.405-.17.656-.252.137-.044.332-.083.587-.115a4.31 4.31 0 01.842-.029c.308.013.61.072.91.176.307.09.571.243.794.461.234.214.403.5.507.857.122.452.108.93-.044 1.434-.14.5-.368.979-.686 1.436a6.205 6.205 0 01-1.101 1.211c-.42.339-.84.577-1.263.715zm19.612-6.416c-.753.245-1.421.286-2.005.123a2.999 2.999 0 01-1.468-1.017c-.395-.515-.715-1.148-.961-1.901a13.688 13.688 0 01-.547-2.548 9.793 9.793 0 01-.042-2.334c.077-.732.216-1.39.417-1.974a6.648 6.648 0 01.762-1.554c.298-.438.623-.796.974-1.075.473-.37.965-.681 1.475-.935a25.73 25.73 0 001.388-.737c.468-.267.859-.52 1.171-.761.313-.241.561-.391.743-.451a.765.765 0 01.41-.02.65.65 0 01.537.6c.029.206-.037.41-.197.614-.165.193-.388.38-.67.56-.56.372-1.086.676-1.577.912a75.67 75.67 0 00-1.33.623 4.524 4.524 0 00-1.126.727c-.34.275-.634.668-.884 1.178-.243.496-.419 1.078-.53 1.745a7.547 7.547 0 00-.013 2.106c.159 1.299.374 2.327.646 3.084.28.741.632 1.239 1.055 1.492.435.249.937.281 1.508.095.388-.126.75-.352 1.086-.676a4.96 4.96 0 00.85-1.167c.245-.446.425-.903.538-1.369.121-.481.154-.921.099-1.319-.042-.441-.162-.787-.357-1.039a1.157 1.157 0 00-.766-.489c-.325-.07-.717-.031-1.173.118-.605.197-1.228.59-1.869 1.178-.63.584-1.208 1.347-1.734 2.288l-.759-.471a6.916 6.916 0 011.072-2.111 6.698 6.698 0 011.547-1.527 6.252 6.252 0 011.713-.9c.696-.227 1.321-.285 1.874-.175.55.098 1 .355 1.35.771.35.416.561 1.004.632 1.763a5.935 5.935 0 01-.133 1.974 7.508 7.508 0 01-.729 1.942 6.876 6.876 0 01-1.263 1.643 4.6 4.6 0 01-1.714 1.014zm9.283-3.01c-.537.175-1.019.187-1.446.037-.428-.151-.779-.434-1.054-.85-.278-.426-.46-.966-.547-1.62-.101-.812-.197-1.589-.287-2.33a191.1 191.1 0 00-.249-1.925 176 176 0 01-.119-1.06 1.142 1.142 0 01.014-.421c.043-.14.11-.263.202-.37a.729.729 0 01.326-.22c.262-.084.499-.016.71.205.223.218.361.507.416.868.036.342.063.756.083 1.242.031.482.077.934.139 1.355l.042.593c.025.231.046.47.064.717l.064.604c.072.646.226 1.119.463 1.42.237.302.55.389.938.262.217-.07.438-.205.663-.405a4.11 4.11 0 00.642-.702c.187-.276.332-.55.432-.822.1-.273.119-.506.056-.7-.086-.301-.244-.514-.474-.641-.22-.13-.502-.202-.847-.216a4.054 4.054 0 00-.74-.005c-.296.021-.608.053-.934.097a6.86 6.86 0 00-.935.153l-.072-1.207c.389-.202.819-.45 1.292-.743a29.34 29.34 0 001.48-.975 41.03 41.03 0 001.436-1.056 15.38 15.38 0 001.333-1.135c.386-.366.714-.675.985-.927.279-.268.521-.435.726-.502.354-.116.661-.084.922.097.268.165.426.454.473.868.039.39.076.777.112 1.156.043.365.084.743.123 1.134a56.885 56.885 0 00.355 2.364c.077.43.16.819.249 1.169.074.228.15.481.228.758.086.263.138.461.156.593a.813.813 0 01-.043.393.65.65 0 01-.206.295.733.733 0 01-.315.197c-.239.078-.459.023-.659-.164a2.256 2.256 0 01-.467-.794 15.156 15.156 0 01-.456-1.745 25.656 25.656 0 01-.301-1.852 23.807 23.807 0 00-.102-.894c-.032-.33-.063-.655-.091-.974-.028-.32-.057-.6-.086-.843a61.197 61.197 0 00-.047-.552l.459.247a11.52 11.52 0 01-.865.83c-.355.307-.765.636-1.23.99-.469.342-.961.692-1.475 1.049-.515.357-1.039.705-1.572 1.043a20.71 20.71 0 01-1.537.861l-.03-.672a7.61 7.61 0 01.4-.168c.186-.086.405-.17.656-.252.137-.045.332-.083.587-.116a4.4 4.4 0 01.843-.03c.307.015.61.074.909.178.307.088.572.243.794.461.234.214.403.499.507.857.122.452.108.93-.043 1.434-.14.5-.369.978-.687 1.436-.318.457-.685.86-1.101 1.211-.419.338-.84.577-1.262.714zm9.797-3.196a.5.5 0 01-.427-.031.753.753 0 01-.277-.326 1.19 1.19 0 01-.15-.519c-.021-.22-.002-.529.057-.927.067-.414.167-.882.3-1.404.128-.535.268-1.073.42-1.614.167-.572.341-1.14.523-1.705a24.6 24.6 0 01.568-1.567c.185-.477.345-.857.48-1.141.215-.424.441-.756.678-.998a1.95 1.95 0 01.812-.53c.273-.09.493-.053.659.107.162.149.318.357.469.624.228.43.483.959.764 1.587.288.612.582 1.186.882 1.719.248.45.467.832.659 1.149.203.312.383.575.541.789.17.209.322.387.458.532.128.122.234.233.316.332a.807.807 0 01.169.343c.037.152.038.309.003.472a.853.853 0 01-.208.409.709.709 0 01-.354.248c-.217.071-.445.031-.683-.118-.23-.165-.468-.41-.712-.734-.245-.324-.487-.68-.728-1.07-.142-.243-.33-.566-.563-.97a52.258 52.258 0 01-1.405-2.798c-.202-.465-.36-.855-.476-1.17l.387.025c-.223.4-.448.89-.676 1.47-.22.564-.44 1.185-.66 1.863-.21.674-.406 1.369-.589 2.085a30.12 30.12 0 00-.429 2.109c-.106.527-.213.934-.321 1.222-.097.284-.259.463-.487.537zm13.502-4.404c-.935.305-1.772.35-2.511.137a3.322 3.322 0 01-1.773-1.258c-.448-.636-.733-1.433-.856-2.39a5.027 5.027 0 01.103-1.89 5.97 5.97 0 01.659-1.577c.292-.462.611-.837.958-1.127.344-.301.658-.5.943-.592a.834.834 0 01.325-.05.41.41 0 01.261.105c.08.05.128.142.146.275.018.246-.005.487-.067.722-.066.223-.246.465-.54.725a5.054 5.054 0 00-.831.99c-.2.318-.335.659-.405 1.023-.075.352-.077.75-.008 1.195.119.984.469 1.69 1.051 2.119.578.417 1.277.492 2.099.224.798-.261 1.401-.773 1.808-1.537.415-.78.558-1.677.428-2.695-.104-.938-.385-1.604-.841-1.998-.461-.405-1.033-.496-1.718-.273-.353.116-.633.283-.84.502a6.596 6.596 0 00-.608.804c-.15.238-.265.446-.346.624a3.039 3.039 0 01-.236.437.62.62 0 01-.326.22.503.503 0 01-.427-.032c-.117-.088-.191-.26-.224-.513-.04-.278.004-.59.131-.933.139-.348.331-.69.576-1.021.253-.347.545-.651.877-.911a3.175 3.175 0 011.04-.585c.821-.268 1.552-.292 2.192-.071.636.209 1.155.62 1.557 1.233.398.603.648 1.367.748 2.294.119.907.057 1.76-.187 2.56a5.108 5.108 0 01-1.192 2.036 4.638 4.638 0 01-1.966 1.228zm14.305-4.685a.787.787 0 01-.671-.084c-.219-.131-.477-.4-.774-.808a6.605 6.605 0 01-.541-.96 8.794 8.794 0 01-.429-1.317 17.768 17.768 0 01-.307-1.87 18.581 18.581 0 01-.11-2.368c.02-.827.063-1.643.129-2.447.05-.584.153-1.022.311-1.313.157-.291.384-.485.681-.582.216-.07.358-.022.426.145.075.153.119.365.132.639-.017.372-.039.808-.065 1.309a81.85 81.85 0 00-.044 1.548c-.015.534-.015 1.076.001 1.627.023.536.069 1.044.138 1.527.083.603.186 1.112.309 1.527.134.41.274.744.42.999.147.254.28.47.4.646.132.172.239.326.322.463.094.134.148.28.162.44a.906.906 0 01-.089.54.629.629 0 01-.401.339zm-.968-5.175c-.339.198-.609.3-.81.302-.19-.001-.326-.052-.409-.151a.572.572 0 01-.141-.314 1.04 1.04 0 01.049-.49c.05-.154.142-.298.276-.43.142-.147.332-.278.572-.394.64-.323 1.346-.654 2.118-.995.773-.34 1.505-.63 2.197-.867.365-.12.627-.148.786-.086.159.06.253.214.282.457.036.304-.068.565-.312.783-.248.207-.639.423-1.172.647-.536.213-1.01.406-1.421.577a23.34 23.34 0 00-2.015.961zm-2.278-5.126c-.217.07-.411.096-.581.076a.658.658 0 01-.381-.18.684.684 0 01-.151-.348.852.852 0 01.083-.5c.077-.151.21-.283.401-.396a29.971 29.971 0 011.908-1.001c.73-.352 1.486-.687 2.266-1.004.78-.318 1.506-.587 2.179-.806.274-.09.515-.124.724-.104.205.01.37.07.494.18.136.107.211.26.225.457a.681.681 0 01-.134.517c-.119.14-.338.262-.657.366a28.98 28.98 0 00-3.065 1.17c-.86.382-1.564.719-2.112 1.01-.549.294-.948.48-1.199.563zm15.381 6.38c-1.05.343-1.962.369-2.738.079-.78-.302-1.407-.866-1.879-1.697-.465-.845-.775-1.912-.93-3.2a13.32 13.32 0 01-.099-1.52 11.313 11.313 0 00-.077-1.281 18.636 18.636 0 00-.179-1.361 10.506 10.506 0 00-.177-.832 18.23 18.23 0 01-.209-1.163c-.013-.236.02-.423.101-.563a.719.719 0 01.423-.328.635.635 0 01.648.13c.204.16.378.482.523.965.153.468.281 1.133.386 1.995.032.33.051.697.056 1.099.016.399.034.802.054 1.213.02.41.05.79.09 1.145.14 1.204.385 2.108.734 2.714.36.602.781.982 1.262 1.14.488.144 1.018.123 1.588-.063.947-.31 1.601-.857 1.963-1.644.373-.791.475-1.89.306-3.3a32.322 32.322 0 00-.272-1.993 95.3 95.3 0 00-.273-1.71 54.112 54.112 0 01-.244-1.909c-.08-.592-.052-1.087.083-1.485.147-.401.397-.66.751-.775.194-.063.361-.054.501.026.151.077.243.243.275.497.022.22.032.444.03.672v.87c.01.339.048.806.117 1.402.079.668.173 1.345.283 2.029.117.668.22 1.354.311 2.057.152 1.162.13 2.198-.066 3.106-.195.91-.57 1.677-1.124 2.299-.555.623-1.294 1.085-2.218 1.386zm7.293-2.436a.681.681 0 01-.591-.072c-.178-.12-.286-.356-.326-.708a2.839 2.839 0 01.017-.762c.036-.277.07-.617.103-1.02.044-.404.057-.908.038-1.507-.007-.603-.067-1.366-.179-2.29a28.498 28.498 0 00-.223-1.612 55.911 55.911 0 00-.291-1.59c-.092-.513-.172-.954-.242-1.322-.074-.38-.121-.642-.143-.787a1.98 1.98 0 01.126-1.006 1.02 1.02 0 01.653-.61 1.734 1.734 0 011.309.064c.423.178.833.486 1.229.925.392.427.776.927 1.151 1.499.372.56.739 1.16 1.099 1.8.356.628.701 1.241 1.035 1.84.334.598.668 1.139 1.003 1.623.335.484.661.863.978 1.139.313.264.629.38.948.353l-.686.508c.123-.356.222-.691.296-1.006.074-.314.105-.665.092-1.052a12.342 12.342 0 00-.104-1.424 55.002 55.002 0 00-.277-2.068c-.106-.673-.206-1.328-.301-1.966a20.809 20.809 0 01-.193-1.868 13.544 13.544 0 01.024-1.844c.036-.353.102-.615.198-.785a.819.819 0 01.481-.384c.217-.07.399-.054.546.05a.877.877 0 01.321.463c.079.201.11.43.093.689-.038.618-.04 1.212-.006 1.781.031.558.08 1.117.149 1.675.076.543.161 1.115.256 1.715.103.585.19 1.22.261 1.903.112.885.168 1.694.167 2.426-.005.72-.111 1.324-.319 1.808-.201.469-.552.786-1.054.95-.433.14-.851.119-1.252-.065-.393-.2-.772-.513-1.138-.935-.357-.44-.705-.944-1.043-1.516a62.269 62.269 0 01-1.036-1.84 34.318 34.318 0 00-1.086-1.88 14.29 14.29 0 00-1.185-1.658c-.414-.496-.861-.88-1.342-1.152l.269-.164c.155.67.286 1.283.392 1.841.107.559.196 1.085.269 1.579.081.479.148.937.202 1.373.106 1.14.174 2.197.202 3.172.024.964-.028 1.852-.154 2.663-.032.25-.106.47-.221.659a.904.904 0 01-.515.395zm12.847-8.602a.551.551 0 01-.49-.049c-.147-.103-.256-.263-.327-.48a21.824 21.824 0 01-.427-1.716 34.169 34.169 0 01-.246-1.624 47.377 47.377 0 01-.149-1.618c-.019-.448-.034-.86-.043-1.235a11.253 11.253 0 00-.084-1.128 1.141 1.141 0 01.067-.608.648.648 0 01.435-.407.677.677 0 01.665.123c.2.15.333.44.399.874.036.342.054.67.056.985a25.999 25.999 0 00.16 2.637c.054.436.108.797.163 1.082.055.285.105.534.149.747.044.213.085.414.122.604.048.186.084.395.109.627.028.357-.021.632-.147.824-.115.19-.253.31-.412.362zm.69 4.206c-.422.137-.783.135-1.082-.007-.302-.154-.481-.45-.535-.886a1.243 1.243 0 01.188-.876c.169-.257.396-.431.681-.524.502-.164.883-.137 1.143.08.261.219.415.516.461.892.022.258-.033.515-.164.773-.119.252-.35.436-.692.548zM92.552 28.368a1 1 0 01-1.695 1.063l1.695-1.063zm-.017.177a1 1 0 11-1.755.96l1.755-.96zM.023 19.578a1 1 0 01.765-1.19l8.794-1.913a1 1 0 01.425 1.954L2.19 20.13l1.7 7.817a1 1 0 11-1.954.425L.023 19.578zm91.682 9.321l-.848.532v-.001l-.003-.005-.013-.02-.052-.083a73.885 73.885 0 00-1.04-1.568 105.444 105.444 0 00-3.113-4.32c-2.663-3.512-6.403-8.006-10.729-11.977-4.34-3.983-9.194-7.37-14.08-8.77-4.824-1.382-9.685-.837-14.24 3.069l-1.302-1.518C51.413-.16 56.99-.78 62.377.764 67.7 2.29 72.827 5.916 77.26 9.984c4.445 4.08 8.266 8.676 10.97 12.24a107.491 107.491 0 013.172 4.404 76.664 76.664 0 011.148 1.738l.001.001-.846.532zM47.587 5.756c-12.389 10.622-22.3 15.71-29.837 17.699-7.53 1.987-12.751.892-15.632-.96l1.081-1.682c2.276 1.463 6.878 2.598 14.04.708 7.155-1.888 16.803-6.786 29.046-17.283l1.302 1.518zm44.07 23.269l-.877.48-.003-.006-.011-.02-.047-.083a60.999 60.999 0 00-.929-1.584 86.198 86.198 0 00-2.833-4.358c-2.45-3.536-5.947-8.04-10.15-11.967-4.213-3.935-9.067-7.222-14.227-8.433-5.104-1.198-10.59-.389-16.21 4.028l-1.235-1.573C51.228.72 57.337-.23 63.037 1.107c5.643 1.324 10.8 4.87 15.135 8.919 4.345 4.057 7.932 8.686 10.429 12.289a88.252 88.252 0 012.9 4.46 62.59 62.59 0 01.964 1.644c.022.04.04.071.05.092a2.91 2.91 0 01.018.031l.001.002-.877.48zM46.371 7.082C22.795 25.609 6.139 23.857.46 20.207l1.08-1.683c4.635 2.978 20.32 5.277 43.595-13.015l1.236 1.573z" fill="#7831B2"/></svg>