<svg width="268" height="141" fill="none" xmlns="http://www.w3.org/2000/svg"><path d="M93.912 63.672a1 1 0 00-2-.006l2 .006zm173.493-2.639a1 1 0 00.375-1.363l-4.447-7.824a1 1 0 00-1.739.988l3.953 6.955-6.954 3.953a1 1 0 00.988 1.74l7.824-4.449zM94.004 64.358a1 1 0 10-1.997.11l1.997-.11zm173.279-3.624a1 1 0 00.396-1.358l-4.33-7.89a1 1 0 00-1.753.963l3.848 7.013-7.013 3.849a1 1 0 00.962 1.753l7.89-4.33zm-175.37 2.932c-.032 10.46.478 22.645 1.813 34.147 1.332 11.483 3.494 22.363 6.801 30.171 1.651 3.902 3.622 7.117 5.986 9.248 2.396 2.16 5.211 3.211 8.422 2.701 3.154-.5 6.546-2.483 10.208-6.055 3.672-3.58 7.692-8.831 12.101-16.018l-1.704-1.046c-4.363 7.111-8.284 12.21-11.793 15.632-3.519 3.432-6.549 5.104-9.125 5.512-2.52.4-4.746-.387-6.77-2.212-2.056-1.853-3.886-4.767-5.484-8.541-3.193-7.543-5.33-18.196-6.656-29.623-1.324-11.408-1.831-23.511-1.8-33.91l-2-.006zm45.331 54.194c10.973-17.885 19.568-31.725 27.552-42.111 7.98-10.38 15.285-17.222 23.638-21.183 8.34-3.955 17.836-5.09 30.297-3.841 12.479 1.25 27.854 4.884 47.915 10.403l.53-1.928c-20.063-5.52-35.582-9.196-48.246-10.465-12.682-1.271-22.576-.138-31.353 4.024-8.763 4.156-16.3 11.278-24.366 21.77-8.062 10.487-16.714 24.425-27.671 42.285l1.704 1.046zM92.007 64.468c.57 10.34 1.416 22.378 2.915 33.722 1.496 11.324 3.654 22.038 6.877 29.692 1.611 3.824 3.522 6.971 5.824 9.038 2.337 2.1 5.087 3.089 8.235 2.522 3.083-.556 6.407-2.582 10.018-6.178 3.622-3.607 7.611-8.87 12.019-16.055l-1.705-1.046c-4.363 7.113-8.258 12.231-11.725 15.684-3.479 3.463-6.45 5.174-8.962 5.627-2.448.441-4.592-.288-6.544-2.041-1.987-1.785-3.757-4.625-5.316-8.327-3.116-7.397-5.247-17.891-6.738-29.178-1.49-11.269-2.332-23.246-2.901-33.57l-1.997.11zm45.888 52.741c10.977-17.892 19.421-31.824 27.208-42.323 7.784-10.493 14.839-17.453 22.988-21.477 8.132-4.015 17.471-5.164 29.934-3.8 12.484 1.365 28.019 5.242 48.497 11.209l.56-1.92c-20.482-5.968-36.165-9.891-48.839-11.278-12.694-1.389-22.451-.243-31.037 3.996-8.568 4.23-15.851 11.485-23.709 22.079-7.854 10.588-16.354 24.616-27.307 42.468l1.705 1.046zM54.948 20.276c-.516 0-.954-.168-1.314-.504-.348-.336-.618-.792-.81-1.368-.192-.576-.3-1.236-.324-1.98-.012-.744.066-1.518.234-2.322.096-.48.192-.924.288-1.332.108-.408.228-.81.36-1.206.132-.396.282-.822.45-1.278.18-.468.39-1.002.63-1.602.084-.216.186-.36.306-.432a.799.799 0 01.468-.126c.144 0 .27.066.378.198.108.12.168.288.18.504.024.216-.018.462-.126.738a74.94 74.94 0 00-.612 1.674c-.156.48-.294.942-.414 1.386-.108.444-.216.924-.324 1.44-.132.66-.216 1.266-.252 1.818a7.15 7.15 0 00.072 1.476c.072.42.18.75.324.99.156.228.354.342.594.342.36 0 .738-.066 1.134-.198a6.788 6.788 0 001.116-.522 4.36 4.36 0 00.918-.72c.252-.264.396-.522.432-.774.036-.18-.048-.366-.252-.558-.192-.204-.486-.39-.882-.558a7.258 7.258 0 00-1.404-.414 7.87 7.87 0 00-1.728-.144c-.336.012-.6-.042-.792-.162-.18-.12-.24-.33-.18-.63.048-.192.18-.342.396-.45.216-.12.582-.234 1.098-.342.444-.084.9-.198 1.368-.342.48-.144.942-.3 1.386-.468.456-.168.87-.348 1.242-.54.372-.192.678-.39.918-.594.24-.204.378-.396.414-.576a.846.846 0 00-.234-.756c-.192-.228-.486-.42-.882-.576a6.267 6.267 0 00-1.386-.36 11.249 11.249 0 00-1.728-.126c-.432 0-.852.006-1.26.018h-.882a.532.532 0 01-.414-.18.537.537 0 01-.108-.468c.06-.312.294-.558.702-.738.408-.18.972-.27 1.692-.27.96 0 1.842.072 2.646.216.816.144 1.506.366 2.07.666.563.3.977.678 1.241 1.134.264.444.33.972.198 1.584-.072.36-.312.732-.72 1.116-.395.384-1.007.762-1.835 1.134-.828.372-1.908.72-3.24 1.044l.036-.504c.9.084 1.632.24 2.196.468.576.216 1.008.468 1.296.756.3.288.492.594.576.918.096.312.114.618.054.918-.096.504-.33.972-.702 1.404a5.37 5.37 0 01-1.332 1.134 7.987 7.987 0 01-1.656.774c-.564.18-1.104.27-1.62.27zm11.085-.054c-.888 0-1.62-.174-2.196-.522a2.88 2.88 0 01-1.188-1.476c-.216-.636-.24-1.368-.072-2.196a5.938 5.938 0 01.774-1.962 6.341 6.341 0 011.404-1.584 6.717 6.717 0 011.836-1.062 5.657 5.657 0 012.034-.378c.312 0 .588.048.828.144.24.084.414.216.522.396.12.168.15.378.09.63a1.048 1.048 0 01-.27.54.673.673 0 01-.468.18.55.55 0 01-.306-.072 4 4 0 00-.234-.144c-.072-.048-.198-.072-.378-.072-.684 0-1.326.174-1.926.522-.6.336-1.11.78-1.53 1.332a4.375 4.375 0 00-.81 1.746c-.084.504-.072.942.036 1.314.12.36.336.642.648.846.324.204.72.306 1.188.306.528 0 .948-.06 1.26-.18.312-.132.558-.276.738-.432.192-.156.348-.294.468-.414a.546.546 0 01.414-.198c.228 0 .384.054.468.162.096.108.12.294.072.558a2.05 2.05 0 01-.612 1.062c-.324.3-.732.534-1.224.702a4.71 4.71 0 01-1.566.252zm8.911.018c-.996 0-1.77-.18-2.322-.54a2.555 2.555 0 01-1.08-1.494c-.168-.636-.174-1.35-.018-2.142.132-.588.36-1.176.684-1.764.336-.6.75-1.146 1.242-1.638a6.112 6.112 0 011.674-1.17c.624-.3 1.278-.45 1.962-.45.948 0 1.644.228 2.088.684.456.456.594 1.128.414 2.016a3.037 3.037 0 01-.882 1.674c-.468.444-1.05.786-1.746 1.026-.684.24-1.422.36-2.214.36-.816 0-1.362-.096-1.638-.288-.264-.192-.372-.408-.324-.648.024-.144.078-.246.162-.306.084-.072.216-.108.396-.108.132 0 .288.024.468.072.192.036.474.054.846.054.6 0 1.14-.084 1.62-.252.492-.168.894-.396 1.206-.684a2 2 0 00.594-1.026c.072-.36.024-.63-.144-.81-.156-.18-.468-.27-.936-.27-.612 0-1.194.18-1.746.54a5.23 5.23 0 00-1.44 1.422 5.121 5.121 0 00-.792 1.926A3.06 3.06 0 0073 17.612c.072.348.252.636.54.864.3.216.726.324 1.278.324.624 0 1.158-.078 1.602-.234.456-.168.84-.36 1.152-.576.312-.216.576-.402.792-.558.216-.156.408-.234.576-.234.204 0 .348.078.432.234.096.144.12.336.072.576-.048.24-.21.492-.486.756a4.653 4.653 0 01-1.044.72c-.42.228-.888.414-1.404.558a6.155 6.155 0 01-1.566.198zm7.387 0c-.288 0-.504-.132-.648-.396-.132-.264-.18-.63-.144-1.098.012-.204.048-.486.108-.846s.132-.762.216-1.206l.252-1.368c.096-.456.18-.876.252-1.26.084-.384.15-.69.198-.918.12-.624.282-1.08.486-1.368.216-.3.528-.48.936-.54.384-.06.792-.102 1.224-.126.444-.036.882-.054 1.314-.054.324 0 .654.012.99.036.336.012.648.036.936.072.288.036.516.09.684.162a.57.57 0 01.306.27c.06.108.078.228.054.36-.048.24-.198.414-.45.522a2.034 2.034 0 01-.81.162c-.252 0-.48-.012-.684-.036a9.996 9.996 0 00-.666-.054c-.24-.024-.558-.036-.954-.036-.48 0-.888.024-1.224.072-.336.048-.714.12-1.134.216l.882-.576a67.52 67.52 0 00-.306 1.026c-.096.36-.198.768-.306 1.224-.108.444-.216.948-.324 1.512-.12.588-.216 1.146-.288 1.674-.072.516-.126.954-.162 1.314-.036.36-.066.594-.09.702-.036.192-.114.33-.234.414a.644.644 0 01-.414.144zm10.907.036c-.984 0-1.794-.216-2.43-.648a3.327 3.327 0 01-1.296-1.746c-.228-.744-.252-1.59-.072-2.538.132-.672.36-1.26.684-1.764a5.962 5.962 0 011.116-1.296 4.77 4.77 0 011.26-.774c.42-.18.78-.27 1.08-.27a.83.83 0 01.324.054.402.402 0 01.216.18c.06.072.078.174.054.306-.06.24-.156.462-.288.666-.132.192-.378.366-.738.522a5.055 5.055 0 00-1.098.684c-.288.24-.522.522-.702.846a3.32 3.32 0 00-.378 1.134c-.192.972-.078 1.752.342 2.34.42.576 1.062.864 1.926.864.84 0 1.572-.3 2.196-.9.636-.612 1.05-1.422 1.242-2.43.192-.924.132-1.644-.18-2.16-.312-.528-.828-.792-1.548-.792-.372 0-.69.072-.954.216a6.576 6.576 0 00-.828.576 5.45 5.45 0 00-.522.486 3.029 3.029 0 01-.36.342.614.614 0 01-.378.108.503.503 0 01-.396-.162c-.084-.12-.102-.306-.054-.558.048-.276.186-.558.414-.846.24-.288.528-.552.864-.792.348-.252.72-.45 1.116-.594a3.177 3.177 0 011.17-.234c.864 0 1.566.204 2.106.612.54.396.906.948 1.098 1.656.192.696.192 1.5 0 2.412-.168.9-.492 1.692-.972 2.376a5.112 5.112 0 01-1.764 1.566 4.633 4.633 0 01-2.25.558zm16.709-.828a1.047 1.047 0 01-.288.612.733.733 0 01-.54.216c-.288 0-.498-.084-.63-.252-.12-.168-.15-.408-.09-.72.228-1.128.468-2.298.72-3.51.252-1.224.528-2.436.828-3.636a41.054 41.054 0 011.026-3.402l.468.414c-.54.348-1.002.618-1.386.81-.384.18-.714.306-.99.378-.276.072-.51.108-.702.108-.312 0-.54-.084-.684-.252-.144-.168-.192-.39-.144-.666a.679.679 0 01.234-.414c.132-.108.312-.18.54-.216a5.183 5.183 0 001.278-.432c.42-.216.9-.498 1.44-.846.192-.132.366-.222.522-.27.168-.048.33-.072.486-.072.204 0 .366.054.486.162.12.096.198.228.234.396.048.168.036.36-.036.576-.108.348-.27.864-.486 1.548-.204.684-.438 1.506-.702 2.466a76.936 76.936 0 00-1.584 7.002zm3.874.81c-.468 0-.828-.15-1.08-.45-.252-.312-.336-.69-.252-1.134.072-.312.222-.564.45-.756a1.24 1.24 0 01.792-.288c.36 0 .642.084.846.252.216.168.36.372.432.612.072.24.084.486.036.738a1.403 1.403 0 01-.378.72c-.204.204-.486.306-.846.306zm5.89.018c-.744 0-1.338-.078-1.782-.234-.444-.168-.756-.384-.936-.648a1.214 1.214 0 01-.144-.918.733.733 0 01.252-.45.742.742 0 01.486-.162c.192 0 .324.042.396.126.084.084.174.186.27.306.096.12.252.222.468.306.228.084.576.126 1.044.126.588 0 1.152-.066 1.692-.198a5.69 5.69 0 001.494-.576c.444-.264.81-.582 1.098-.954.3-.372.498-.792.594-1.26.072-.348 0-.636-.216-.864-.204-.228-.516-.42-.936-.576-.42-.156-.93-.3-1.53-.432-.864-.18-1.542-.354-2.034-.522-.492-.168-.846-.348-1.062-.54a1.168 1.168 0 01-.378-.702c-.024-.264.006-.582.09-.954.06-.324.168-.702.324-1.134.168-.432.402-.936.702-1.512.192-.372.39-.636.594-.792.204-.168.45-.252.738-.252.624 0 1.164-.012 1.62-.036.468-.036.894-.072 1.278-.108.384-.036.768-.066 1.152-.09a13.56 13.56 0 011.26-.054c.54 0 .906.096 1.098.288a.67.67 0 01.198.666.733.733 0 01-.324.468c-.168.096-.39.144-.666.144-.6 0-1.14.018-1.62.054-.48.024-.954.06-1.422.108-.456.036-.948.066-1.476.09-.528.024-1.146.03-1.854.018l1.26-.612c-.42.636-.732 1.182-.936 1.638-.192.456-.312.84-.36 1.152a.755.755 0 00-.018.36c.024.096.114.192.27.288.168.084.438.18.81.288.384.096.918.216 1.602.36.792.156 1.428.354 1.908.594.492.228.858.486 1.098.774.252.288.402.606.45.954.06.348.048.72-.036 1.116a4.648 4.648 0 01-1.152 2.232c-.588.648-1.344 1.164-2.268 1.548-.924.384-1.956.576-3.096.576zM52.41 36.258c-.288 0-.504-.168-.648-.504-.144-.336-.15-.84-.018-1.512.06-.324.174-.816.342-1.476.168-.672.426-1.392.774-2.16.408-.912.774-1.632 1.098-2.16.324-.54.642-.93.954-1.17.312-.24.63-.36.954-.36.252 0 .444.102.576.306.144.204.246.45.306.738s.108.576.144.864c.048.384.108.81.18 1.278.084.468.174.942.27 1.422.108.48.228.936.36 1.368.144.432.306.798.486 1.098l-.648.144c.348-.684.72-1.368 1.116-2.052.396-.684.792-1.338 1.188-1.962.396-.624.768-1.182 1.115-1.674.384-.516.708-.882.972-1.098.277-.216.523-.324.739-.324.155 0 .3.036.431.108.133.06.246.132.343.216.131.132.233.294.305.486.072.192.084.48.036.864-.107.864-.18 1.644-.215 2.34-.025.684-.03 1.26-.019 1.728.012.828.072 1.488.18 1.98.12.492.163.81.127.954a.541.541 0 01-.252.378.742.742 0 01-.486.162c-.288 0-.528-.138-.72-.414-.18-.276-.294-.648-.343-1.116a22.824 22.824 0 01-.108-1.638 29.03 29.03 0 01.055-2.214c.06-.828.156-1.68.288-2.556l.521-.126c-.288.42-.611.9-.971 1.44-.349.528-.709 1.08-1.08 1.656-.36.576-.708 1.146-1.044 1.71a31.617 31.617 0 00-.864 1.602 1.732 1.732 0 01-.468.54.933.933 0 01-.594.198c-.288 0-.528-.066-.72-.198a1.892 1.892 0 01-.468-.576 6.616 6.616 0 01-.324-.828l-.198-.702a24.873 24.873 0 01-.486-2.268 25.135 25.135 0 01-.18-1.278 10.965 10.965 0 01-.072-1.206l.54-.144a20.15 20.15 0 00-1.08 1.728c-.3.564-.558 1.146-.774 1.746a15.678 15.678 0 00-.522 1.908c-.096.468-.168.876-.216 1.224a9.158 9.158 0 01-.108.792 1.248 1.248 0 01-.252.522c-.12.144-.294.216-.522.216zm15.338 0c-.408 0-.732-.096-.972-.288a1.684 1.684 0 01-.504-.756 3.281 3.281 0 01-.162-1.044c.012-.384.054-.756.126-1.116.072-.312.168-.684.288-1.116.132-.432.276-.882.432-1.35.156-.468.306-.906.45-1.314.156-.408.282-.726.378-.954a8.68 8.68 0 01.414-.972c.132-.228.288-.342.468-.342.156 0 .3.054.432.162a.925.925 0 01.288.414c.072.168.09.354.054.558a5.67 5.67 0 01-.252.828c-.132.36-.282.762-.45 1.206-.168.444-.33.894-.486 1.35-.156.444-.27.846-.342 1.206a6.83 6.83 0 00-.144.936c-.024.288-.012.528.036.72.048.18.15.27.306.27.384 0 .87-.342 1.458-1.026.6-.684 1.266-1.626 1.998-2.826.336-.528.63-1.02.882-1.476.252-.456.474-.852.666-1.188.192-.348.378-.618.558-.81.18-.192.36-.288.54-.288.276 0 .474.108.594.324.132.204.192.48.18.828 0 .312-.012.696-.036 1.152l-.036 1.404c-.012.468-.012.906 0 1.314.036.696.102 1.266.198 1.71.108.432.204.78.288 1.044.084.264.12.48.108.648a.883.883 0 01-.126.378.963.963 0 01-.27.27.634.634 0 01-.36.108c-.276 0-.504-.126-.684-.378-.168-.252-.3-.606-.396-1.062a14.96 14.96 0 01-.234-1.602c-.024-.432-.048-.894-.072-1.386a30.262 30.262 0 010-1.476c.024-.492.048-.948.072-1.368l.522.18c-.144.276-.3.57-.468.882-.156.312-.348.666-.576 1.062-.216.384-.486.84-.81 1.368a18.6 18.6 0 01-1.332 1.854 8.235 8.235 0 01-1.494 1.422c-.504.36-1.014.54-1.53.54zm10.755 0c-.432 0-.72-.276-.864-.828-.144-.552-.126-1.284.054-2.196.144-.636.306-1.116.486-1.44.192-.336.408-.564.648-.684.132-.072.318-.114.558-.126.24-.024.492-.036.756-.036.876 0 1.74-.042 2.592-.126.864-.096 1.71-.276 2.538-.54l.324 1.242c-.624.24-1.296.42-2.016.54-.72.12-1.452.204-2.196.252-.732.036-1.446.054-2.142.054l-1.044-.162c.156-.708.318-1.452.486-2.232.168-.78.312-1.476.432-2.088.048-.288.144-.522.288-.702.144-.18.306-.27.486-.27.3 0 .522.12.666.36.144.228.162.594.054 1.098-.048.264-.12.582-.216.954s-.198.762-.306 1.17c-.096.408-.192.798-.288 1.17-.084.36-.15.66-.198.9a25.85 25.85 0 00-.324 1.872c-.06.54-.114.948-.162 1.224a.753.753 0 01-.234.414.495.495 0 01-.378.18zm6.21 0c-.3 0-.516-.174-.648-.522-.12-.348-.174-.822-.162-1.422.024-.612.108-1.284.252-2.016.24-1.152.45-2.064.63-2.736a17.59 17.59 0 01.522-1.62 2.97 2.97 0 01.36-.702c.144-.204.318-.306.522-.306.264 0 .45.126.558.378.12.24.144.534.072.882-.084.432-.216.9-.396 1.404-.168.504-.306 1.05-.414 1.638-.144.72-.246 1.374-.306 1.962a28.388 28.388 0 00-.09 1.458c-.012.396-.042.69-.09.882a.84.84 0 01-.288.522.788.788 0 01-.522.198zm6.26 4.5c-.731 0-1.35-.072-1.853-.216-.504-.132-.87-.318-1.098-.558-.228-.24-.312-.498-.252-.774a.87.87 0 01.234-.468c.132-.108.312-.162.54-.162.144 0 .276.03.396.09s.258.126.414.198c.156.084.372.156.648.216.288.06.666.09 1.134.09.576 0 1.056-.126 1.44-.378.384-.252.69-.606.918-1.062.24-.456.42-.984.54-1.584.072-.348.12-.69.144-1.026.036-.336.072-.696.108-1.08.036-.384.084-.828.144-1.332.06-.516.156-1.122.288-1.818l.558.522c-.384.828-.768 1.506-1.152 2.034-.384.516-.756.918-1.116 1.206-.36.276-.702.468-1.026.576a2.906 2.906 0 01-.846.144c-1.044 0-1.77-.432-2.178-1.296-.408-.876-.42-2.274-.036-4.194.156-.804.312-1.41.468-1.818.168-.408.342-.684.522-.828a.885.885 0 01.558-.216c.18 0 .324.048.432.144.108.084.162.228.162.432.012.204-.03.48-.126.828a25.204 25.204 0 00-.45 2.124 9.19 9.19 0 00-.144 1.71c.012.492.09.876.234 1.152.144.264.378.396.702.396.504 0 .996-.258 1.476-.774.48-.528.93-1.236 1.35-2.124.432-.9.822-1.908 1.17-3.024.108-.336.216-.558.324-.666.108-.12.276-.18.504-.18.168 0 .318.054.45.162.144.108.228.3.252.576.036.264-.018.624-.162 1.08-.18.612-.318 1.158-.414 1.638-.084.48-.144.942-.18 1.386a43.71 43.71 0 00-.09 1.332c-.012.444-.048.936-.108 1.476-.06.528-.156 1.14-.288 1.836-.156.804-.384 1.476-.684 2.016-.3.552-.648.99-1.044 1.314-.396.324-.84.552-1.332.684-.48.144-.99.216-1.53.216zm7.989-11.79c-.276 0-.492-.084-.648-.252-.144-.168-.192-.36-.144-.576a.696.696 0 01.216-.342c.108-.096.3-.18.576-.252.432-.12 1.008-.228 1.728-.324a19.905 19.905 0 012.556-.144c.504 0 .966.012 1.386.036.432.012.906.054 1.422.126.408.048.72.144.936.288.228.144.324.306.288.486a.817.817 0 01-.162.36.756.756 0 01-.324.234c-.132.06-.3.09-.504.09-.252 0-.546-.012-.882-.036-.336-.024-.696-.048-1.08-.072a11.96 11.96 0 00-1.152-.054c-.828 0-1.494.036-1.998.108-.504.06-.924.132-1.26.216a4.56 4.56 0 01-.954.108zm2.61 7.308a.65.65 0 01-.594-.324 2.409 2.409 0 01-.252-.828 7.193 7.193 0 010-1.026c.036-.444.096-.924.18-1.44a44.51 44.51 0 01.27-1.53c.132-.66.246-1.242.342-1.746.108-.516.192-.942.252-1.278l1.62-.108-.18.774c-.06.3-.126.642-.198 1.026-.072.372-.15.756-.234 1.152a94.42 94.42 0 01-.216 1.116c-.12.6-.198 1.104-.234 1.512-.024.396-.03.72-.018.972s.024.462.036.63c.012.156.006.3-.018.432a.947.947 0 01-.144.36.676.676 0 01-.27.216.694.694 0 01-.342.09zm8.221 0c-.564 0-1.026-.138-1.386-.414-.36-.276-.606-.654-.738-1.134-.132-.492-.138-1.062-.018-1.71.156-.804.306-1.572.45-2.304.144-.744.264-1.38.36-1.908.108-.528.18-.876.216-1.044a1.12 1.12 0 01.144-.396.998.998 0 01.306-.288.724.724 0 01.378-.108c.276 0 .48.138.612.414.144.276.186.594.126.954a19.94 19.94 0 01-.306 1.206c-.12.468-.216.912-.288 1.332l-.144.576c-.048.228-.102.462-.162.702l-.126.594c-.132.636-.132 1.134 0 1.494.132.36.402.54.81.54.228 0 .48-.06.756-.18.288-.12.564-.276.828-.468.264-.204.486-.42.666-.648.18-.228.27-.444.27-.648.012-.312-.072-.564-.252-.756-.168-.192-.414-.348-.738-.468a3.977 3.977 0 00-.702-.234 15.21 15.21 0 00-.918-.198 6.83 6.83 0 00-.936-.144l.306-1.17c.432-.072.918-.174 1.458-.306a28.47 28.47 0 001.71-.468c.588-.18 1.152-.366 1.692-.558a15.495 15.495 0 001.62-.666c.48-.228.888-.42 1.224-.576.348-.168.63-.252.846-.252.372 0 .654.126.846.378.204.24.264.564.18.972-.084.384-.168.762-.252 1.134-.072.36-.15.732-.234 1.116a56.104 56.104 0 00-.396 2.358c-.06.432-.102.828-.126 1.188 0 .24-.006.504-.018.792 0 .276-.012.48-.036.612a.817.817 0 01-.162.36.655.655 0 01-.288.216.729.729 0 01-.36.09c-.252 0-.444-.12-.576-.36a2.261 2.261 0 01-.198-.9c0-.6.036-1.2.108-1.8.072-.612.168-1.23.288-1.854.06-.264.12-.558.18-.882.072-.324.144-.642.216-.954.072-.312.132-.588.18-.828.06-.252.102-.432.126-.54l.36.378c-.276.156-.636.33-1.08.522-.432.18-.924.366-1.476.558-.552.18-1.128.36-1.728.54-.6.18-1.206.348-1.818.504-.6.144-1.176.258-1.728.342l.18-.648c.096-.012.24-.024.432-.036.204-.024.438-.036.702-.036.144 0 .342.024.594.072.264.048.534.126.81.234.288.108.558.258.81.45.264.18.468.408.612.684.156.276.228.6.216.972-.024.468-.186.918-.486 1.35a4.744 4.744 0 01-1.098 1.152 6.21 6.21 0 01-1.422.81c-.504.192-.978.288-1.422.288z" fill="#7831B2"/><path fill-rule="evenodd" clip-rule="evenodd" d="M12.123 4.569a18.827 18.827 0 00-8.545 10.994C.666 25.53 6.301 35.934 16.143 38.81c4.76 1.391 9.638.767 13.736-1.376a18.828 18.828 0 008.544-10.993C41.335 16.473 35.7 6.069 25.858 3.193c-4.76-1.39-9.638-.767-13.735 1.376zm-.961-1.75C15.867.07 21.625-.817 27.24.824 38.15 4.012 44.37 15.53 41.153 26.542A20.842 20.842 0 0130.84 39.184c-4.706 2.75-10.463 3.637-16.08 1.996C3.85 37.992-2.37 26.474.848 15.462A20.842 20.842 0 0111.162 2.82zm17.264 6.607a.998.998 0 01-.073.425l-5.26 12.966c-.596 1.472-2.701 1.354-3.122-.163l-3.972-14.31a1.006 1.006 0 011.285-1.221.989.989 0 01.596.542c2.042 4.642 3.211 9.106 3.854 12.203.743-2.36 1.72-5.329 2.626-7.676.507-1.313 1.014-2.49 1.464-3.255.203-.346.481-.767.841-1.014.196-.134.565-.318 1.02-.207.454.11.697.442.812.659a1 1 0 01-.071 1.051z" fill="#7831B2"/></svg>