<svg width="153" height="62" fill="none" xmlns="http://www.w3.org/2000/svg"><path d="M43.948 16.037c-.414 0-.765-.134-1.054-.401-.279-.268-.495-.63-.649-1.089a5.507 5.507 0 01-.26-1.575 8.309 8.309 0 01.188-1.847c.077-.382.154-.735.23-1.06.087-.324.184-.644.29-.959.105-.315.225-.654.36-1.017.144-.372.313-.797.505-1.274.067-.172.15-.286.245-.344a.644.644 0 01.375-.1c.116 0 .217.053.303.158a.63.63 0 01.145.4c.019.172-.015.368-.101.588-.193.506-.356.95-.49 1.331-.126.382-.236.75-.333 1.103-.086.353-.173.735-.26 1.146a11.025 11.025 0 00-.201 1.446c-.02.439 0 .83.057 1.174.058.334.145.596.26.787.125.182.284.273.476.273.289 0 .592-.053.91-.158.316-.115.615-.253.894-.415.288-.172.533-.363.735-.573.202-.21.318-.415.347-.616.029-.143-.039-.29-.202-.444-.154-.162-.39-.31-.707-.444a5.845 5.845 0 00-1.126-.329 6.353 6.353 0 00-1.385-.114c-.269.01-.48-.034-.635-.13-.144-.095-.192-.262-.144-.5.039-.153.145-.273.318-.358.173-.096.466-.187.88-.272a10.19 10.19 0 001.096-.273c.385-.114.755-.238 1.111-.372.366-.134.697-.277.996-.43.298-.152.543-.31.735-.472.193-.162.303-.315.332-.458a.67.67 0 00-.187-.602c-.154-.181-.39-.334-.707-.458a5.054 5.054 0 00-1.111-.286 9.082 9.082 0 00-1.385-.1c-.346 0-.683.004-1.01.014h-.707a.428.428 0 01-.332-.143.427.427 0 01-.086-.373c.048-.248.235-.443.562-.587.327-.143.78-.214 1.356-.214.77 0 1.477.057 2.121.171.654.115 1.207.292 1.66.53.451.239.783.54.995.902.211.353.264.774.159 1.26-.058.287-.25.583-.578.888-.317.306-.807.606-1.471.902-.664.296-1.53.573-2.597.83l.029-.4c.721.067 1.308.19 1.76.372.462.172.808.372 1.039.601.24.23.394.473.461.73.077.249.092.492.044.731a2.379 2.379 0 01-.563 1.117 4.298 4.298 0 01-1.068.902 6.424 6.424 0 01-1.327.616 4.296 4.296 0 01-1.298.215zm8.885-.043c-.712 0-1.299-.139-1.76-.416a2.296 2.296 0 01-.953-1.174c-.173-.506-.192-1.088-.057-1.747a4.702 4.702 0 01.62-1.56 5.057 5.057 0 011.125-1.26 5.395 5.395 0 011.472-.845 4.573 4.573 0 011.63-.301c.25 0 .471.038.664.114a.755.755 0 01.418.315c.096.134.12.301.072.502a.83.83 0 01-.216.43.541.541 0 01-.375.142.443.443 0 01-.245-.057 3.164 3.164 0 00-.188-.114c-.058-.039-.159-.058-.303-.058-.548 0-1.063.139-1.544.415-.48.268-.89.621-1.226 1.06-.327.43-.544.893-.65 1.39-.067.4-.057.748.03 1.044.096.287.269.511.519.673.26.163.577.244.952.244.423 0 .76-.048 1.01-.143.25-.105.447-.22.591-.344.154-.124.28-.234.376-.33a.439.439 0 01.331-.157c.183 0 .308.043.376.129.076.086.096.234.057.444-.067.315-.23.596-.49.845a2.72 2.72 0 01-.981.558c-.385.134-.803.2-1.255.2zm7.142.014c-.798 0-1.418-.143-1.86-.43a2.033 2.033 0 01-.866-1.188c-.135-.506-.14-1.074-.015-1.704.106-.468.289-.936.548-1.403.27-.478.602-.912.996-1.303a4.899 4.899 0 011.342-.931 3.608 3.608 0 011.572-.358c.76 0 1.318.181 1.674.544.365.363.476.897.332 1.604a2.41 2.41 0 01-.707 1.331 3.805 3.805 0 01-1.4.817 5.36 5.36 0 01-1.774.286c-.654 0-1.092-.076-1.313-.23-.212-.152-.298-.324-.26-.515.02-.114.063-.195.13-.243.067-.057.173-.086.317-.086.106 0 .231.02.375.057.154.029.38.043.679.043.48 0 .913-.066 1.298-.2.394-.134.717-.315.967-.544.25-.239.408-.511.476-.816.057-.287.019-.502-.116-.645-.125-.143-.375-.215-.75-.215-.49 0-.957.144-1.4.43a4.176 4.176 0 00-1.154 1.131 4.057 4.057 0 00-.634 1.532 2.416 2.416 0 00-.015.945c.058.277.202.506.433.688.24.171.582.257 1.024.257.5 0 .929-.062 1.284-.186a4.1 4.1 0 00.924-.458c.25-.172.461-.32.635-.444.173-.124.327-.186.461-.186.164 0 .28.062.347.186.077.115.096.268.057.458-.038.191-.168.392-.39.602-.21.2-.49.391-.836.572-.337.182-.712.33-1.125.444a4.965 4.965 0 01-1.256.158zm5.921 0a.559.559 0 01-.52-.315c-.105-.21-.144-.501-.115-.873a6.62 6.62 0 01.087-.674c.048-.286.105-.606.173-.959l.202-1.088c.077-.363.144-.697.202-1.002l.158-.73c.097-.497.226-.86.39-1.089.173-.239.423-.382.75-.43.308-.047.635-.08.981-.1.356-.028.707-.043 1.053-.043.26 0 .524.01.794.029.27.01.52.028.75.057a2.1 2.1 0 01.548.129c.116.048.197.12.245.215a.415.415 0 01.044.286c-.039.191-.159.33-.36.415a1.641 1.641 0 01-.65.13c-.202 0-.385-.01-.548-.03a8.071 8.071 0 00-.534-.042 8.096 8.096 0 00-.765-.029c-.385 0-.712.02-.98.057-.27.039-.573.096-.91.172l.707-.458c-.077.248-.159.52-.245.816-.077.287-.159.611-.245.974a24.87 24.87 0 00-.26 1.203c-.096.467-.173.911-.23 1.331-.059.41-.102.76-.13 1.046a6.077 6.077 0 01-.073.558c-.029.153-.091.263-.187.33a.519.519 0 01-.332.114zm8.742.029c-.788 0-1.438-.172-1.947-.516a2.648 2.648 0 01-1.04-1.389c-.182-.592-.201-1.265-.057-2.019a3.972 3.972 0 01.548-1.403c.27-.41.568-.754.895-1.031a3.83 3.83 0 011.01-.616c.336-.143.625-.215.865-.215a.67.67 0 01.26.043.322.322 0 01.173.144c.048.057.063.138.043.243-.048.19-.125.367-.23.53-.106.153-.303.29-.592.415-.346.162-.64.344-.88.544-.23.191-.418.415-.563.673a2.626 2.626 0 00-.303.902c-.153.774-.062 1.394.275 1.862.336.458.85.687 1.543.687.673 0 1.26-.239 1.76-.716.51-.487.842-1.131.996-1.933.154-.735.106-1.308-.144-1.718-.25-.42-.664-.63-1.241-.63-.298 0-.553.057-.765.171a5.28 5.28 0 00-.663.459 4.367 4.367 0 00-.419.386 2.412 2.412 0 01-.288.272.495.495 0 01-.303.086.405.405 0 01-.318-.129c-.067-.095-.082-.243-.043-.443.038-.22.149-.444.332-.673.192-.23.423-.44.692-.63a3.66 3.66 0 01.895-.473c.317-.124.63-.186.938-.186.692 0 1.255.162 1.688.487.432.315.726.754.88 1.317.153.554.153 1.193 0 1.919a4.748 4.748 0 01-.78 1.89c-.384.535-.856.95-1.413 1.246a3.736 3.736 0 01-1.804.444zM42.837 28.88c-.452 0-.775-.096-.967-.287-.183-.181-.236-.454-.159-.816a.945.945 0 01.49-.673 43.062 43.062 0 002.915-1.762c.798-.544 1.453-1.05 1.962-1.517.51-.478.9-.926 1.169-1.346.27-.43.442-.836.52-1.217.105-.506.047-.903-.174-1.189-.221-.296-.625-.444-1.212-.444-.49 0-.928.057-1.313.172a6.16 6.16 0 00-1.01.4c-.288.154-.533.287-.735.402-.202.114-.366.172-.49.172-.184 0-.323-.058-.42-.172-.086-.124-.115-.268-.086-.43a.942.942 0 01.145-.315c.067-.095.182-.195.346-.3a7.605 7.605 0 011.803-.845 6.22 6.22 0 011.962-.33c.74 0 1.303.134 1.688.401.395.258.645.616.75 1.074.116.458.116.97 0 1.532-.086.43-.264.888-.533 1.375-.26.487-.654.998-1.183 1.532-.53.535-1.231 1.103-2.107 1.704-.865.592-1.943 1.222-3.231 1.89l-.174-.43c.125.068.255.11.39.13.144.019.293.028.447.028.356 0 .774-.024 1.255-.071.481-.048 1.006-.096 1.573-.144a21.724 21.724 0 011.789-.071c.471 0 .77.08.894.243.135.153.183.32.145.501a.568.568 0 01-.26.387c-.135.086-.337.129-.606.129a37.064 37.064 0 00-3.376.143c-.433.038-.827.072-1.183.1-.356.029-.697.043-1.024.043zm14.095-.13c-.23 0-.404-.133-.519-.4-.115-.268-.12-.669-.014-1.203.048-.258.139-.65.274-1.174a10.06 10.06 0 01.62-1.719c.327-.725.62-1.298.88-1.718.26-.43.515-.74.765-.93.25-.192.505-.287.764-.287.202 0 .356.08.462.243.115.162.197.358.245.587.048.23.087.459.116.688.038.305.086.644.144 1.016.067.372.14.75.216 1.131.087.382.183.745.289 1.089.115.343.245.634.39.873l-.52.115a34.35 34.35 0 01.895-1.633 44.84 44.84 0 01.952-1.56c.317-.497.615-.94.894-1.332.308-.41.568-.702.78-.874.22-.171.418-.257.59-.257.126 0 .241.028.347.086.106.047.197.105.274.171.106.105.188.234.246.387.057.153.067.382.028.687a25.718 25.718 0 00-.173 1.862 22.926 22.926 0 00-.014 1.375c.01.658.058 1.183.144 1.575.096.391.13.644.101.759a.43.43 0 01-.202.3.598.598 0 01-.39.13c-.23 0-.423-.11-.577-.33-.144-.22-.235-.516-.274-.888a18.038 18.038 0 01-.086-1.303 22.92 22.92 0 01.043-1.761c.048-.659.125-1.337.23-2.034l.42-.1a92.57 92.57 0 00-1.645 2.463c-.289.458-.568.912-.837 1.36-.26.449-.49.874-.693 1.275a1.38 1.38 0 01-.375.43.751.751 0 01-.476.157c-.23 0-.423-.053-.577-.158a1.51 1.51 0 01-.375-.458 5.25 5.25 0 01-.26-.659l-.158-.558a19.65 19.65 0 01-.534-2.82 8.653 8.653 0 01-.058-.96l.433-.115c-.327.468-.616.926-.866 1.375-.24.448-.447.911-.62 1.389-.164.467-.303.973-.419 1.518-.076.372-.134.696-.173.973a7.232 7.232 0 01-.086.63.99.99 0 01-.202.416c-.096.114-.236.171-.419.171zm12.295 0c-.327 0-.587-.076-.78-.229a1.34 1.34 0 01-.403-.601 2.594 2.594 0 01-.13-.83c.01-.306.043-.602.1-.888.059-.249.135-.545.232-.888.105-.344.22-.702.346-1.074.125-.372.245-.72.36-1.045a33.6 33.6 0 01.303-.76 7.24 7.24 0 01.332-.773c.106-.181.231-.272.376-.272.125 0 .24.043.346.13a.736.736 0 01.23.329.761.761 0 01.044.444 4.477 4.477 0 01-.202.658 129.8 129.8 0 01-.36.96 35.38 35.38 0 00-.39 1.073 7.142 7.142 0 00-.275.96 5.394 5.394 0 00-.115.744c-.02.23-.01.42.029.573.038.143.12.215.245.215.308 0 .698-.272 1.169-.816.48-.544 1.014-1.294 1.601-2.248.27-.42.505-.812.707-1.174.202-.363.38-.678.534-.945a3.24 3.24 0 01.447-.645c.145-.153.289-.229.433-.229.221 0 .38.086.476.258.106.162.154.382.144.658 0 .249-.01.554-.028.917l-.03 1.117c-.009.372-.009.72 0 1.045.03.554.082 1.007.16 1.36.086.344.163.62.23.83.068.21.096.383.087.516a.698.698 0 01-.101.301.767.767 0 01-.217.215.511.511 0 01-.288.086c-.221 0-.404-.1-.548-.301-.135-.2-.24-.482-.318-.845-.077-.363-.14-.787-.187-1.274-.02-.344-.039-.711-.058-1.103-.01-.391-.01-.783 0-1.174.02-.391.038-.754.058-1.088l.418.143c-.115.22-.24.453-.375.702-.125.248-.279.53-.462.845-.173.305-.39.668-.649 1.088a14.806 14.806 0 01-1.068 1.475 6.577 6.577 0 01-1.197 1.13c-.404.287-.813.43-1.226.43zm8.619 0c-.346 0-.577-.22-.692-.658-.115-.44-.101-1.022.043-1.747.116-.506.245-.888.39-1.146.154-.267.327-.448.52-.544a1.07 1.07 0 01.446-.1 5.89 5.89 0 01.606-.029c.702 0 1.395-.033 2.078-.1a10.57 10.57 0 002.034-.43l.26.989c-.5.19-1.039.334-1.616.429-.577.095-1.164.162-1.76.2-.587.03-1.16.043-1.717.043l-.837-.128c.125-.564.255-1.155.39-1.776.134-.62.25-1.174.346-1.661.038-.23.115-.415.23-.558.116-.144.246-.215.39-.215.24 0 .419.095.534.286.115.181.13.473.043.874a10.6 10.6 0 01-.173.759c-.077.295-.158.606-.245.93-.077.325-.154.635-.23.931-.068.286-.121.525-.16.716a20.36 20.36 0 00-.26 1.49 15.1 15.1 0 01-.13.973.598.598 0 01-.187.33.398.398 0 01-.303.142zm4.978 0c-.24 0-.414-.138-.52-.415-.096-.277-.139-.654-.13-1.131.02-.487.087-1.021.203-1.604.192-.916.36-1.642.505-2.176.153-.544.293-.974.418-1.29.077-.21.173-.395.288-.558.116-.162.255-.243.419-.243.211 0 .36.1.447.3.096.192.116.426.058.702a7.684 7.684 0 01-.318 1.117 9.54 9.54 0 00-.331 1.303 16.547 16.547 0 00-.246 1.561c-.038.458-.062.845-.072 1.16a3.56 3.56 0 01-.072.702.667.667 0 01-.23.415.634.634 0 01-.42.157zm5.018 3.58c-.587 0-1.082-.057-1.486-.172-.404-.105-.697-.253-.88-.444-.183-.19-.25-.396-.202-.615a.69.69 0 01.188-.373c.105-.085.25-.128.433-.128.115 0 .22.023.317.071.096.048.207.1.332.158.125.066.298.124.52.171.23.048.533.072.908.072.462 0 .847-.1 1.154-.3.308-.201.553-.483.736-.845.192-.363.337-.783.433-1.26.058-.277.096-.55.115-.817a50.4 50.4 0 00.087-.859c.029-.305.067-.659.115-1.06.048-.41.125-.892.231-1.446l.447.415c-.307.66-.615 1.199-.923 1.619-.308.41-.606.73-.895.959-.288.22-.562.372-.822.458-.25.077-.476.115-.678.115-.837 0-1.419-.344-1.746-1.031-.327-.697-.336-1.81-.028-3.337.125-.64.25-1.121.375-1.446.134-.324.274-.544.418-.659a.713.713 0 01.447-.171c.145 0 .26.038.346.114.087.067.13.182.13.344.01.162-.024.382-.1.659a19.932 19.932 0 00-.361 1.69 7.255 7.255 0 00-.116 1.36c.01.39.072.696.188.916.115.21.303.315.563.315.404 0 .798-.205 1.183-.616.384-.42.745-.983 1.082-1.69.346-.715.658-1.517.937-2.405.087-.267.173-.444.26-.53.087-.095.221-.143.404-.143.135 0 .255.043.36.129.116.086.184.239.203.458.029.21-.015.497-.13.86a15.31 15.31 0 00-.332 1.302c-.067.382-.115.75-.144 1.103-.03.343-.053.697-.072 1.06-.01.353-.039.744-.087 1.174-.048.42-.125.907-.23 1.46-.126.64-.309 1.174-.549 1.604-.24.439-.52.788-.837 1.045a2.83 2.83 0 01-1.067.544 4.275 4.275 0 01-1.227.172zm6.403-9.379c-.221 0-.395-.067-.52-.2a.503.503 0 01-.115-.459.554.554 0 01.173-.272c.087-.076.24-.143.462-.2.346-.096.808-.181 1.385-.258a16.16 16.16 0 012.049-.114c.403 0 .774.01 1.11.028.347.01.727.043 1.14.1.327.039.577.115.75.23.183.114.26.243.231.386a.638.638 0 01-.13.287.602.602 0 01-.259.186.99.99 0 01-.404.071c-.202 0-.438-.01-.707-.028-.27-.02-.558-.038-.866-.058a9.668 9.668 0 00-.923-.042c-.664 0-1.198.028-1.602.085a8.42 8.42 0 00-1.01.172 3.68 3.68 0 01-.764.086zm2.092 5.814a.523.523 0 01-.476-.258 1.907 1.907 0 01-.202-.659 5.66 5.66 0 010-.816c.028-.353.077-.735.144-1.145.067-.42.14-.826.216-1.218.106-.525.197-.988.274-1.389.087-.41.154-.749.203-1.016l1.298-.086c-.039.162-.087.367-.144.616-.049.238-.101.51-.16.816-.057.296-.12.601-.187.916-.057.306-.115.602-.173.888-.096.477-.158.878-.187 1.203a7.39 7.39 0 00-.015.773c.01.2.02.368.03.501.009.124.004.239-.015.344a.75.75 0 01-.116.286.542.542 0 01-.216.172.56.56 0 01-.274.072zm6.589 0c-.452 0-.822-.11-1.111-.33a1.647 1.647 0 01-.591-.902c-.106-.391-.111-.845-.015-1.36.125-.64.245-1.25.361-1.833.115-.592.211-1.098.288-1.518l.173-.83a.897.897 0 01.116-.315.796.796 0 01.245-.23.583.583 0 01.303-.085c.221 0 .385.11.491.33.115.219.149.472.101.758a16.1 16.1 0 01-.246.96c-.096.372-.173.725-.23 1.059l-.116.458c-.038.182-.082.368-.13.559l-.101.472c-.106.506-.106.902 0 1.189.106.286.323.43.65.43.182 0 .384-.049.605-.144.231-.095.453-.22.664-.372a3.02 3.02 0 00.534-.516c.144-.181.216-.353.216-.515.01-.248-.057-.449-.202-.602-.134-.152-.331-.277-.591-.372a3.192 3.192 0 00-.563-.186c-.231-.057-.476-.11-.736-.158a5.48 5.48 0 00-.75-.114l.245-.93c.347-.058.736-.14 1.169-.244.442-.105.899-.23 1.371-.373a32.54 32.54 0 001.356-.443c.49-.172.923-.349 1.298-.53.385-.182.712-.334.981-.459.279-.133.505-.2.678-.2.299 0 .525.1.678.3.164.192.212.45.145.774l-.202.902c-.058.286-.12.582-.188.888a41.55 41.55 0 00-.317 1.876c-.048.343-.082.658-.101.945 0 .19-.005.4-.015.63 0 .22-.009.382-.028.487a.66.66 0 01-.13.286.529.529 0 01-.231.172.59.59 0 01-.289.071c-.202 0-.356-.095-.461-.286a1.78 1.78 0 01-.159-.716c0-.477.029-.955.086-1.432.058-.487.135-.978.231-1.475.048-.21.097-.444.145-.701.057-.258.115-.511.173-.76.057-.247.106-.467.144-.658.048-.2.082-.344.101-.43l.289.301c-.222.124-.51.263-.866.415a21.37 21.37 0 01-1.183.444 62.2 62.2 0 01-1.385.43 35.12 35.12 0 01-1.457.4c-.481.115-.943.206-1.385.273l.144-.516c.077-.01.192-.019.346-.028.164-.02.351-.029.563-.029.115 0 .274.02.476.057.212.039.428.1.649.186.231.086.447.206.649.358.212.144.376.325.491.545.125.22.183.477.173.773a2.04 2.04 0 01-.389 1.074 3.79 3.79 0 01-.881.916 4.963 4.963 0 01-1.139.645 3.247 3.247 0 01-1.14.229z" fill="#FFD754"/><path fill-rule="evenodd" clip-rule="evenodd" d="M9.716 3.635a14.995 14.995 0 00-6.848 8.745c-2.334 7.93 2.183 16.206 10.07 18.494a14.848 14.848 0 0011.01-1.095 14.996 14.996 0 006.849-8.745c2.334-7.93-2.183-16.206-10.071-18.494a14.847 14.847 0 00-11.01 1.095zm-.77-1.392C12.718.056 17.333-.65 21.834.655c8.745 2.536 13.73 11.699 11.151 20.459a16.608 16.608 0 01-8.267 10.057c-3.77 2.187-8.386 2.894-12.887 1.588C3.086 30.223-1.9 21.06.68 12.3A16.608 16.608 0 018.946 2.243zM22.784 7.5a.79.79 0 01-.059.338L18.51 18.15c-.479 1.171-2.166 1.077-2.503-.13L12.823 6.638a.8.8 0 01.559-.982.803.803 0 01.95.442c1.635 3.692 2.573 7.244 3.088 9.707.596-1.877 1.378-4.24 2.105-6.107.407-1.044.813-1.98 1.173-2.589.163-.275.386-.61.674-.806.157-.107.453-.253.818-.165.363.088.559.352.651.524a.791.791 0 01-.057.837zm39.273 27.537a.793.793 0 01.358 1.067c-.124.248-.248.5-.371.759l-.004.008c-1.054 2.219-2.027 4.831-2.63 7.494-.677 2.985-.876 5.977-.256 8.536.376 1.554 1.053 2.95 2.12 4.1a9.92 9.92 0 002.494 1.704c1.68.823 3.854 1.396 6.631 1.61 1.658.05 3.539-.057 5.668-.351 7.126-.986 13.76-4.06 20.15-7.685 2.576-1.462 5.1-3.006 7.597-4.534l1.791-1.094.003-.002c2.836-1.983 5.634-3.936 8.408-5.64 5.693-3.494 11.421-6.022 17.416-5.58 6.032.446 12.136 3.878 18.625 11.85l-.028.022c.27.296.54.6.81.911l.562-5.251a.8.8 0 01.882-.707c.44.046.759.438.712.875l-.762 7.12a.799.799 0 01-.881.706l-7.174-.756a.797.797 0 01-.712-.875.8.8 0 01.882-.707l5.203.549c-5.855-6.713-11.367-9.699-16.701-10.41-5.741-.767-11.439 1.077-17.374 4.09-2.948 1.498-5.93 3.27-8.986 5.133l-.096.066-.106.075c-2.922 2.043-5.931 4.144-9.048 6.067-6.232 3.844-12.964 7.02-20.471 7.645-2.403.2-4.548.218-6.458.073-2.976-.094-5.374-.668-7.273-1.632a10.39 10.39 0 01-2.912-2.16c-1.399-1.343-2.292-2.962-2.784-4.735-.766-2.76-.551-5.856.14-8.834.692-2.982 1.876-5.906 3.114-8.364.127-.268.256-.531.386-.788a.804.804 0 011.075-.355zm65.571 2.1a22.816 22.816 0 013.784-.114 17.696 17.696 0 00-3.784.113z" fill="#FFD754"/></svg>