<svg width="193" height="43" fill="none" xmlns="http://www.w3.org/2000/svg"><path d="M59.078 5.22h6.084c.48 0 .876.127 1.188.379.324.252.564.576.72.972.168.396.252.816.252 1.26 0 .504-.102.996-.306 1.476a4.07 4.07 0 01-.864 1.26 4.206 4.206 0 01-1.296.882c.528.18.936.504 1.224.972.288.456.432.99.432 1.602 0 .588-.12 1.128-.36 1.62-.24.492-.57.912-.99 1.26-.42.348-.888.618-1.404.81a4.608 4.608 0 01-1.62.288H56.36l2.718-12.78zm3.348 11.377a2.1 2.1 0 00.918-.216 2.802 2.802 0 001.35-1.422c.144-.324.216-.654.216-.99 0-.324-.06-.618-.18-.882a1.421 1.421 0 00-.486-.63 1.15 1.15 0 00-.756-.252h-4.284l-.918 4.392h4.14zm.864-5.706c.3 0 .588-.066.864-.198.288-.144.54-.336.756-.576.228-.24.402-.516.522-.828.132-.312.198-.642.198-.99 0-.48-.12-.876-.36-1.188-.228-.324-.552-.486-.972-.486h-3.906l-.9 4.266h3.798zm8.45 7.289c-.791 0-1.463-.18-2.015-.54-.54-.36-.954-.84-1.242-1.44a4.557 4.557 0 01-.432-1.997c0-.756.144-1.476.432-2.16a6.125 6.125 0 011.188-1.854 5.79 5.79 0 011.8-1.278 5.437 5.437 0 012.25-.468c.924 0 1.662.21 2.214.63.564.408.936.96 1.116 1.656l-1.638.486c-.144-.456-.384-.804-.72-1.044-.336-.24-.75-.36-1.242-.36-.48 0-.948.108-1.404.324a3.98 3.98 0 00-1.206.918c-.348.384-.63.828-.846 1.332a4.276 4.276 0 00-.306 1.62c0 .54.096 1.02.288 1.44.192.42.456.756.792 1.008.348.24.744.36 1.188.36.348 0 .696-.066 1.044-.198a3.55 3.55 0 00.936-.522c.288-.228.504-.474.648-.738l1.458.468a4.585 4.585 0 01-1.098 1.224 5.487 5.487 0 01-1.494.828 4.895 4.895 0 01-1.71.306zm10.067 0c-.948 0-1.734-.221-2.358-.665a3.756 3.756 0 01-1.314-1.8c-.252-.744-.318-1.554-.198-2.43.096-.66.294-1.278.594-1.854a5.786 5.786 0 011.188-1.548 5.274 5.274 0 011.638-1.062 5.285 5.285 0 011.998-.378c.576 0 1.11.096 1.602.288.492.18.888.462 1.188.846.3.372.45.84.45 1.404 0 .948-.402 1.68-1.206 2.196-.792.504-2.064.756-3.816.756-.444 0-.912-.006-1.404-.018a46.9 46.9 0 01-1.602-.108l.306-1.17c.504.036.966.066 1.386.09.432.012.858.018 1.278.018.888 0 1.578-.072 2.07-.216.504-.144.858-.342 1.062-.594.204-.264.294-.57.27-.918a1.105 1.105 0 00-.27-.702 1.405 1.405 0 00-.648-.432 2.623 2.623 0 00-.9-.144c-.444 0-.87.09-1.278.27-.408.168-.78.414-1.116.738-.324.324-.6.702-.828 1.134-.216.432-.36.9-.432 1.404-.096.696-.06 1.32.108 1.872.168.54.462.966.882 1.278.42.3.948.45 1.584.45.444 0 .828-.06 1.152-.18.324-.132.588-.282.792-.45.216-.18.372-.33.468-.45l.162-.198 1.368.45-.234.324c-.156.216-.402.462-.738.738-.336.276-.768.522-1.296.738-.528.216-1.164.324-1.908.324zm9.372 0c-.768 0-1.404-.107-1.908-.323-.492-.216-.852-.522-1.08-.918-.228-.396-.324-.858-.288-1.386.06-.708.366-1.266.918-1.674.552-.42 1.428-.822 2.628-1.206.54-.18.96-.348 1.26-.504.312-.156.54-.33.684-.522.144-.204.228-.438.252-.702.036-.432-.084-.762-.36-.99-.276-.228-.672-.342-1.188-.342-.48 0-.936.102-1.368.306-.432.192-.78.468-1.044.828l-1.134-.702c.384-.516.9-.912 1.548-1.188.66-.288 1.41-.432 2.25-.432 1.008 0 1.758.228 2.25.684.492.444.72 1.056.684 1.836-.048.708-.33 1.272-.846 1.692-.516.408-1.302.78-2.358 1.116-.624.204-1.116.39-1.476.558-.36.168-.618.354-.774.558a1.368 1.368 0 00-.288.702c-.048.444.096.786.432 1.026.336.228.84.342 1.512.342.504 0 .984-.102 1.44-.306a3.342 3.342 0 001.17-.864l1.008.864c-.444.48-.99.858-1.638 1.134-.636.276-1.398.414-2.286.414zm9.67 0c-.936 0-1.728-.221-2.376-.665a3.984 3.984 0 01-1.422-1.782c-.288-.744-.372-1.548-.252-2.412.096-.66.294-1.284.594-1.872A5.786 5.786 0 0198.58 9.9a5.496 5.496 0 011.656-1.062 5.03 5.03 0 011.98-.396c.936 0 1.728.228 2.376.684a3.86 3.86 0 011.422 1.782c.3.732.39 1.536.27 2.412a5.41 5.41 0 01-.594 1.854c-.3.588-.69 1.11-1.17 1.566a5.67 5.67 0 01-1.656 1.062 5.333 5.333 0 01-2.016.378zm.18-1.295c.432 0 .846-.09 1.242-.27a3.713 3.713 0 001.098-.792 4.4 4.4 0 00.828-1.152c.228-.432.378-.888.45-1.368.096-.66.042-1.26-.162-1.8-.204-.54-.516-.966-.936-1.278-.42-.324-.924-.486-1.512-.486-.432 0-.846.096-1.242.288-.396.18-.762.432-1.098.756a4.036 4.036 0 00-.828 1.152c-.216.432-.36.9-.432 1.404-.084.66-.024 1.26.18 1.8s.516.966.936 1.278c.42.312.912.468 1.476.468zM111.746 18l1.98-9.395h7.794L119.522 18h-1.584l1.728-8.154h-4.608L113.33 18h-1.584zm14.784.18c-.936 0-1.728-.221-2.376-.665a3.984 3.984 0 01-1.422-1.782c-.288-.744-.372-1.548-.252-2.412.096-.66.294-1.284.594-1.872a5.786 5.786 0 011.188-1.548 5.499 5.499 0 011.656-1.062 5.03 5.03 0 011.98-.396c.936 0 1.728.228 2.376.684a3.86 3.86 0 011.422 1.782c.3.732.39 1.536.27 2.412a5.41 5.41 0 01-.594 1.854c-.3.588-.69 1.11-1.17 1.566a5.67 5.67 0 01-1.656 1.062 5.333 5.333 0 01-2.016.378zm.18-1.295c.432 0 .846-.09 1.242-.27a3.713 3.713 0 001.098-.792 4.4 4.4 0 00.828-1.152c.228-.432.378-.888.45-1.368.096-.66.042-1.26-.162-1.8-.204-.54-.516-.966-.936-1.278-.42-.324-.924-.486-1.512-.486-.432 0-.846.096-1.242.288-.396.18-.762.432-1.098.756a4.036 4.036 0 00-.828 1.152c-.216.432-.36.9-.432 1.404-.084.66-.024 1.26.18 1.8s.516.966.936 1.278c.42.312.912.468 1.476.468zM132.423 18c.528-1.571 1.26-3.15 2.196-4.733.936-1.596 2.112-3.15 3.528-4.662h1.62l1.35 9.396h-1.656l-.918-7.938a23.763 23.763 0 00-2.772 3.978c-.36.66-.69 1.32-.99 1.98-.3.66-.57 1.32-.81 1.98h-1.548zm12.167-9.395h1.44l-.432 2.016a5.418 5.418 0 011.728-1.584c.672-.396 1.356-.594 2.052-.594.468 0 .858.09 1.17.27.324.18.57.438.738.774.168.336.258.75.27 1.242a7.018 7.018 0 011.17-1.26c.408-.336.84-.588 1.296-.756.456-.18.918-.27 1.386-.27.516 0 .924.096 1.224.288.3.192.516.462.648.81.144.336.216.732.216 1.188 0 .252-.018.516-.054.792a12.96 12.96 0 01-.144.864L156.092 18h-1.584l1.116-5.256c.108-.504.162-.942.162-1.314 0-.528-.114-.918-.342-1.17-.216-.264-.534-.396-.954-.396-.396 0-.792.108-1.188.324a4.119 4.119 0 00-1.116.864 5.547 5.547 0 00-.864 1.296L150.134 18h-1.584l1.116-5.256c.06-.264.102-.504.126-.72.024-.216.036-.42.036-.612 0-.528-.108-.918-.324-1.17-.216-.252-.534-.378-.954-.378-.588 0-1.176.228-1.764.684-.576.444-1.044 1.038-1.404 1.782L144.176 18h-1.584l1.998-9.396zm18.573 9.575c-.936 0-1.728-.221-2.376-.665a3.984 3.984 0 01-1.422-1.782c-.288-.744-.372-1.548-.252-2.412.096-.66.294-1.284.594-1.872a5.786 5.786 0 011.188-1.548 5.499 5.499 0 011.656-1.062 5.03 5.03 0 011.98-.396c.936 0 1.728.228 2.376.684a3.86 3.86 0 011.422 1.782c.3.732.39 1.536.27 2.412a5.41 5.41 0 01-.594 1.854c-.3.588-.69 1.11-1.17 1.566a5.67 5.67 0 01-1.656 1.062 5.333 5.333 0 01-2.016.378zm.18-1.295c.432 0 .846-.09 1.242-.27a3.713 3.713 0 001.098-.792 4.4 4.4 0 00.828-1.152c.228-.432.378-.888.45-1.368.096-.66.042-1.26-.162-1.8-.204-.54-.516-.966-.936-1.278-.42-.324-.924-.486-1.512-.486-.432 0-.846.096-1.242.288-.396.18-.762.432-1.098.756a4.036 4.036 0 00-.828 1.152c-.216.432-.36.9-.432 1.404-.084.66-.024 1.26.18 1.8s.516.966.936 1.278c.42.312.912.468 1.476.468zm8.124-8.28h1.404l-.378 1.764a5.774 5.774 0 011.674-1.386c.648-.36 1.308-.54 1.98-.54.696 0 1.29.18 1.782.54.492.36.87.84 1.134 1.44.264.588.396 1.236.396 1.944 0 .744-.138 1.464-.414 2.16a6.457 6.457 0 01-1.134 1.872c-.48.552-1.032.99-1.656 1.314a4.26 4.26 0 01-1.962.468c-.732 0-1.338-.192-1.818-.576a3.152 3.152 0 01-1.026-1.458l-1.206 5.688h-1.584l2.808-13.23zm2.628 8.208c.504 0 .978-.12 1.422-.36a4.324 4.324 0 001.17-.972c.348-.408.618-.858.81-1.35a4.003 4.003 0 00.306-1.512c0-.516-.096-.984-.288-1.404a2.422 2.422 0 00-.828-1.026c-.348-.252-.762-.378-1.242-.378-.264 0-.552.054-.864.162-.3.108-.6.264-.9.468-.3.192-.57.414-.81.666a2.826 2.826 0 00-.522.81l-.576 2.682c.084.408.228.78.432 1.116.216.336.486.606.81.81.324.192.684.288 1.08.288zm10.019 1.332c-.72 0-1.35-.138-1.89-.414a2.448 2.448 0 01-1.17-1.26c-.228-.564-.264-1.284-.108-2.16.192-.948.402-1.896.63-2.844.228-.96.456-1.914.684-2.862h1.584c-.228.96-.456 1.926-.684 2.898-.228.96-.438 1.926-.63 2.898-.144.84-.036 1.458.324 1.854.36.396.84.594 1.44.594.564 0 1.032-.186 1.404-.558.372-.372.6-.864.684-1.476.084-.636-.03-1.134-.342-1.494-.3-.372-.852-.558-1.656-.558h-2.07l.198-1.242h2.268c.576 0 1.08.084 1.512.252.444.168.804.408 1.08.72s.468.684.576 1.116c.12.42.144.888.072 1.404-.108.708-.348 1.296-.72 1.764a3.27 3.27 0 01-1.368 1.044c-.54.216-1.146.324-1.818.324zm6.714-9.54h1.584L190.414 18h-1.584l1.998-9.396zM56.234 38l1.98-9.395h1.764l1.962 5.94 4.518-5.94h1.854L66.332 38H64.82l1.512-7.182-4.158 5.508h-1.008l-1.89-5.544L57.746 38h-1.512zm15.107.18c-1.464 0-2.196-.791-2.196-2.375 0-.228.018-.468.054-.72.036-.264.084-.546.144-.846l1.206-5.634h1.566l-1.134 5.328c-.108.48-.162.894-.162 1.242 0 1.092.468 1.638 1.404 1.638.408 0 .816-.09 1.224-.27a4.561 4.561 0 001.17-.81c.384-.348.714-.762.99-1.242l1.242-5.886h1.584l-1.584 7.452a1.73 1.73 0 01-.036.126v.108c0 .216.132.33.396.342L76.921 38c-.132.012-.252.024-.36.036a1.116 1.116 0 01-.27.036c-.324 0-.57-.072-.738-.216a.72.72 0 01-.252-.576c0-.072.006-.156.018-.252.012-.108.03-.246.054-.414.036-.168.078-.378.126-.63a5.833 5.833 0 01-1.908 1.62 4.79 4.79 0 01-2.25.576zm7.833-.18l1.98-9.395h1.584l-.846 3.96h4.914l.828-3.96h1.584L87.238 38h-1.584l.882-4.194H81.64L80.758 38h-1.584zm9.454 2.755c.504-.072.912-.168 1.224-.288.324-.108.606-.282.846-.522.24-.228.498-.546.774-.954l.522-.792-1.818-9.594h1.638l1.296 7.974.612-1.008c.504-.828.93-1.554 1.278-2.178.348-.624.642-1.194.882-1.71.252-.528.462-1.038.63-1.53.168-.492.324-1.008.468-1.548h1.566c-.156.576-.33 1.116-.522 1.62s-.42 1.032-.684 1.584c-.264.552-.6 1.176-1.008 1.872a87.38 87.38 0 01-1.494 2.466l-1.44 2.322c-.408.66-.792 1.212-1.152 1.656-.36.456-.72.822-1.08 1.098a3.393 3.393 0 01-1.098.594c-.372.132-.78.204-1.224.216l-.216-1.278zm11.736-12.15h1.44l-.432 2.016a5.418 5.418 0 011.728-1.584c.672-.396 1.356-.594 2.052-.594.468 0 .858.09 1.17.27.324.18.57.438.738.774.168.336.258.75.27 1.242a7.018 7.018 0 011.17-1.26c.408-.336.84-.588 1.296-.756.456-.18.918-.27 1.386-.27.516 0 .924.096 1.224.288.3.192.516.462.648.81.144.336.216.732.216 1.188 0 .252-.018.516-.054.792a12.96 12.96 0 01-.144.864L111.866 38h-1.584l1.116-5.256c.108-.504.162-.942.162-1.314 0-.528-.114-.918-.342-1.17-.216-.264-.534-.396-.954-.396-.396 0-.792.108-1.188.324a4.119 4.119 0 00-1.116.864 5.547 5.547 0 00-.864 1.296L105.908 38h-1.584l1.116-5.256c.06-.264.102-.504.126-.72.024-.216.036-.42.036-.612 0-.528-.108-.918-.324-1.17-.216-.252-.534-.378-.954-.378-.588 0-1.176.228-1.764.684-.576.444-1.044 1.038-1.404 1.782L99.95 38h-1.584l1.998-9.396zm17.744 9.54c-.72 0-1.35-.138-1.89-.414a2.448 2.448 0 01-1.17-1.26c-.228-.564-.264-1.284-.108-2.16.192-.948.402-1.896.63-2.844.228-.96.456-1.914.684-2.862h1.584c-.228.96-.456 1.926-.684 2.898-.228.96-.438 1.926-.63 2.898-.144.84-.036 1.458.324 1.854.36.396.84.594 1.44.594.564 0 1.032-.186 1.404-.558.372-.372.6-.864.684-1.476.084-.636-.03-1.134-.342-1.494-.3-.372-.852-.558-1.656-.558h-2.07l.198-1.242h2.268c.576 0 1.08.084 1.512.252.444.168.804.408 1.08.72s.468.684.576 1.116c.12.42.144.888.072 1.404-.108.708-.348 1.296-.72 1.764a3.27 3.27 0 01-1.368 1.044c-.54.216-1.146.324-1.818.324zm6.714-9.54h1.584L124.408 38h-1.584l1.998-9.396z" fill="#262626"/><path fill-rule="evenodd" clip-rule="evenodd" d="M12.074 4.541a18.676 18.676 0 00-8.512 10.97C.679 25.468 6.344 35.89 16.194 38.794a18.37 18.37 0 0013.732-1.336 18.676 18.676 0 008.512-10.968c2.883-9.96-2.782-20.38-12.632-23.285A18.369 18.369 0 0012.074 4.54zm-.966-1.752C15.805.054 21.561-.818 27.182.84c10.92 3.22 17.173 14.758 13.987 25.76a20.673 20.673 0 01-10.277 12.612c-4.697 2.736-10.453 3.608-16.073 1.95C3.899 37.941-2.354 26.404.83 15.401A20.673 20.673 0 0111.108 2.79zm17.284 6.658a.997.997 0 01-.072.425l-5.222 12.95c-.592 1.47-2.698 1.346-3.123-.173L15.96 8.33a1 1 0 011.88-.674c2.055 4.648 3.237 9.115 3.889 12.214.736-2.358 1.704-5.324 2.604-7.669.503-1.311 1.007-2.486 1.454-3.25.202-.346.48-.766.838-1.012.196-.134.564-.316 1.02-.204.454.112.698.445.814.661a1 1 0 01-.069 1.052z" fill="#262626"/></svg>