<svg width="134" height="55" fill="none" xmlns="http://www.w3.org/2000/svg"><path d="M76.99 25.515c-.396 0-.72-.097-.973-.292a1.464 1.464 0 01-.518-.8c-.093-.347-.097-.75-.013-1.207l.316-1.626c.1-.525.185-.973.252-1.346l.152-.737a.795.795 0 01.101-.28.703.703 0 01.215-.202.506.506 0 01.265-.076c.194 0 .337.097.43.292.101.194.13.419.088.673-.05.237-.122.52-.214.85a11.92 11.92 0 00-.203.94l-.1.407c-.034.161-.072.326-.114.495l-.089.42c-.092.448-.092.8 0 1.054.093.254.282.38.569.38.16 0 .337-.041.53-.126.203-.085.396-.195.582-.33a2.71 2.71 0 00.467-.458c.127-.16.19-.313.19-.457.008-.22-.05-.398-.177-.533a1.249 1.249 0 00-.518-.33 2.785 2.785 0 00-.493-.166 11.91 11.91 0 00-.644-.14 4.765 4.765 0 00-.657-.101l.214-.826c.304-.05.645-.122 1.024-.215.387-.094.788-.204 1.2-.33a27.95 27.95 0 001.188-.395c.43-.152.809-.309 1.137-.47.337-.16.623-.296.86-.406.244-.119.442-.178.593-.178.261 0 .46.09.594.267.143.17.185.398.127.686-.06.27-.118.538-.177.8a49.7 49.7 0 01-.165.788 40.23 40.23 0 00-.278 1.663c-.042.305-.071.585-.088.839 0 .17-.004.355-.013.559 0 .194-.008.338-.025.431a.58.58 0 01-.114.255.461.461 0 01-.202.152.509.509 0 01-.253.063c-.177 0-.311-.084-.404-.254a1.603 1.603 0 01-.139-.635c0-.423.025-.846.076-1.27.05-.432.118-.868.202-1.308.042-.186.084-.394.126-.622.05-.23.102-.454.152-.674.05-.22.093-.415.126-.584.043-.178.072-.305.089-.38l.252.266c-.193.11-.446.233-.758.368-.303.127-.648.258-1.036.394a53.34 53.34 0 01-1.213.38 31.57 31.57 0 01-1.276.357c-.421.101-.825.182-1.213.24l.126-.456a5.29 5.29 0 01.304-.026c.143-.017.307-.025.493-.025a3.16 3.16 0 01.985.216c.202.076.392.182.569.317.185.127.328.288.43.483.109.195.16.423.15.686-.016.33-.13.648-.34.952a3.34 3.34 0 01-.771.813 4.35 4.35 0 01-.998.572 2.797 2.797 0 01-.998.203zm-7.604-5.157c-.193 0-.345-.059-.454-.178a.445.445 0 01-.102-.406.492.492 0 01.152-.241c.076-.068.21-.127.404-.178a9.26 9.26 0 011.214-.229 13.892 13.892 0 011.794-.101c.354 0 .678.008.973.025.303.008.636.038.998.089.286.034.505.102.657.203.16.102.227.216.202.343a.577.577 0 01-.114.254.531.531 0 01-.227.165.855.855 0 01-.354.064c-.177 0-.383-.009-.619-.026a85.311 85.311 0 00-.758-.05 8.353 8.353 0 00-.809-.038c-.581 0-1.049.025-1.402.076a7.244 7.244 0 00-.885.152 3.24 3.24 0 01-.67.076zm1.833 5.157a.456.456 0 01-.417-.229 1.705 1.705 0 01-.177-.584 5.086 5.086 0 010-.724c.025-.313.067-.652.126-1.016.06-.372.122-.732.19-1.08.092-.465.172-.876.24-1.232a32.4 32.4 0 00.177-.901l1.137-.077-.127.547a53.834 53.834 0 01-.303 1.537c-.05.27-.1.533-.151.787-.085.423-.14.779-.165 1.067a6.62 6.62 0 00-.012.686c.008.178.017.326.025.444.008.11.004.212-.013.305a.672.672 0 01-.1.254.476.476 0 01-.19.153.484.484 0 01-.24.063zm-7.439 3.163c-.515 0-.949-.051-1.302-.153-.354-.093-.611-.224-.771-.393-.16-.17-.22-.352-.177-.547a.614.614 0 01.164-.33.58.58 0 01.38-.114.61.61 0 01.277.063c.084.043.181.09.29.14.11.06.262.11.456.153.202.042.467.063.796.063.404 0 .741-.089 1.01-.267.27-.177.485-.427.645-.75.168-.32.295-.693.38-1.117a5.64 5.64 0 00.1-.724c.025-.237.05-.49.076-.762.025-.27.059-.584.101-.94.042-.364.11-.791.202-1.283l.392.369a8.761 8.761 0 01-.809 1.435c-.27.364-.53.648-.783.851a2.51 2.51 0 01-.72.406 2.029 2.029 0 01-.594.102c-.733 0-1.243-.305-1.53-.915-.285-.618-.294-1.604-.024-2.959.11-.567.219-.995.328-1.283.118-.288.24-.482.367-.584a.62.62 0 01.391-.152c.127 0 .228.033.304.101.075.06.113.161.113.305.009.144-.02.339-.088.584-.135.534-.24 1.033-.316 1.5a6.51 6.51 0 00-.101 1.206c.008.347.063.618.164.813.101.186.266.279.493.279.354 0 .7-.182 1.036-.546.337-.373.653-.872.948-1.499a15.88 15.88 0 00.821-2.134c.076-.237.152-.393.227-.47.076-.084.194-.127.354-.127a.48.48 0 01.316.115c.101.076.16.211.177.406.025.186-.013.44-.114.762-.126.432-.223.817-.29 1.156-.06.339-.101.665-.127.978a32.44 32.44 0 00-.063.94c-.008.313-.034.66-.076 1.041-.042.373-.11.805-.202 1.296-.11.567-.27 1.041-.48 1.422a3.07 3.07 0 01-.733.928c-.278.228-.59.39-.935.482a3.7 3.7 0 01-1.074.153zm-8.755-3.176c-.304 0-.506-.194-.607-.584-.1-.39-.088-.906.038-1.55.101-.448.215-.787.341-1.015.135-.238.287-.399.455-.483a.924.924 0 01.392-.09 5.6 5.6 0 01.53-.024c.615 0 1.222-.03 1.82-.09a9.154 9.154 0 001.782-.38l.227.876a7.21 7.21 0 01-1.415.381c-.505.085-1.02.144-1.542.178-.514.025-1.015.038-1.503.038l-.733-.114c.11-.5.223-1.025.341-1.575.118-.55.219-1.042.303-1.474a1.06 1.06 0 01.202-.495c.102-.127.215-.19.342-.19.21 0 .366.084.467.253.101.161.114.42.038.775-.034.186-.084.41-.152.673-.067.263-.139.538-.214.826-.068.288-.135.563-.203.826a25.43 25.43 0 00-.139.635c-.1.49-.177.931-.227 1.32-.042.382-.08.67-.114.864a.533.533 0 01-.164.292.346.346 0 01-.265.127zm4.359 0c-.21 0-.362-.122-.455-.368-.084-.245-.122-.58-.114-1.003a9.36 9.36 0 01.177-1.423c.169-.813.316-1.456.443-1.93.134-.483.256-.864.366-1.144a2.1 2.1 0 01.253-.495c.1-.144.223-.216.366-.216.185 0 .316.089.392.267.084.17.1.377.05.622a6.907 6.907 0 01-.278.99 8.5 8.5 0 00-.29 1.157c-.101.508-.173.97-.215 1.384-.034.407-.055.75-.063 1.029a3.2 3.2 0 01-.063.622.593.593 0 01-.57.508zm-11.909 0c-.286 0-.513-.067-.682-.203a1.189 1.189 0 01-.354-.533 2.327 2.327 0 01-.113-.737c.008-.27.038-.533.088-.787.05-.22.118-.483.202-.788a45.209 45.209 0 01.619-1.88c.11-.288.198-.512.266-.673.11-.296.206-.525.29-.686.093-.16.203-.241.329-.241.11 0 .21.038.303.114a.65.65 0 01.202.292c.05.119.063.25.038.394a4.03 4.03 0 01-.177.584 71.41 71.41 0 01-.316.851c-.117.314-.231.631-.34.953a6.388 6.388 0 00-.342 1.511 1.62 1.62 0 00.025.509c.034.127.106.19.215.19.27 0 .61-.241 1.024-.724.42-.483.888-1.147 1.402-1.994.236-.373.442-.72.62-1.042.176-.321.332-.6.467-.838.135-.245.265-.436.392-.572.126-.135.252-.203.379-.203.193 0 .332.077.417.229.092.144.134.339.126.584 0 .22-.008.491-.025.813l-.026.99c-.008.331-.008.64 0 .928.026.491.072.893.14 1.207.075.305.143.55.202.736.059.187.084.339.075.458a.626.626 0 01-.088.266.678.678 0 01-.19.19.444.444 0 01-.252.077c-.194 0-.354-.089-.48-.267-.118-.178-.211-.427-.279-.75a10.604 10.604 0 01-.164-1.13c-.017-.304-.033-.63-.05-.977a21.53 21.53 0 010-1.042c.017-.347.033-.669.05-.965l.367.127c-.101.194-.21.402-.329.622-.11.22-.244.47-.404.75-.152.27-.341.592-.569.965a13.12 13.12 0 01-.935 1.308c-.337.406-.686.74-1.048 1.003-.354.254-.712.381-1.075.381zm-10.767 0c-.202 0-.354-.118-.455-.355-.101-.237-.105-.593-.013-1.067.043-.229.123-.576.24-1.042.119-.474.3-.982.544-1.524.286-.643.543-1.151.77-1.524.228-.381.451-.656.67-.826.22-.169.443-.254.67-.254a.45.45 0 01.404.216c.101.144.173.318.215.521.042.203.076.407.101.61.034.27.076.571.127.901.059.33.122.665.19 1.004.075.339.16.66.252.965.1.305.215.563.341.775l-.455.102c.244-.483.506-.966.784-1.448.277-.483.555-.945.833-1.385.279-.44.54-.834.784-1.181.27-.364.497-.622.682-.775.194-.152.367-.228.518-.228.11 0 .21.025.304.076a.97.97 0 01.24.152.95.95 0 01.214.343c.05.136.06.339.026.61a23.17 23.17 0 00-.152 1.651 20.8 20.8 0 00-.013 1.22c.009.584.05 1.05.127 1.396.084.348.114.572.088.674a.382.382 0 01-.177.266.52.52 0 01-.34.115c-.203 0-.371-.098-.506-.292-.127-.195-.207-.458-.24-.788-.034-.305-.06-.69-.076-1.156a20.6 20.6 0 01.038-1.562c.042-.584.11-1.186.202-1.804l.366-.089a94.724 94.724 0 00-1.44 2.185 67.42 67.42 0 00-.733 1.207c-.227.398-.43.774-.607 1.13a1.212 1.212 0 01-.328.381.652.652 0 01-.417.14.868.868 0 01-.505-.14 1.332 1.332 0 01-.329-.406 4.673 4.673 0 01-.227-.584 15.996 15.996 0 01-.316-1.232 17.557 17.557 0 01-.29-1.766 7.776 7.776 0 01-.051-.851l.379-.102c-.287.415-.54.822-.758 1.22a9.39 9.39 0 00-.544 1.232c-.143.415-.265.863-.366 1.346-.068.33-.118.618-.152.864-.025.245-.05.432-.076.559a.882.882 0 01-.177.368c-.084.102-.206.152-.366.152zm47.244-11.277c-.523 0-.94-.055-1.251-.165-.312-.119-.531-.271-.657-.458a.86.86 0 01-.101-.647.517.517 0 01.177-.318.52.52 0 01.34-.114c.135 0 .228.03.279.089.059.06.122.131.19.216a.768.768 0 00.328.216c.16.059.404.089.733.089.412 0 .808-.047 1.187-.14a3.983 3.983 0 001.049-.407c.312-.186.569-.41.77-.673.211-.262.35-.559.418-.889.05-.245 0-.449-.152-.61-.143-.16-.362-.296-.657-.406a8.149 8.149 0 00-1.074-.305 12.506 12.506 0 01-1.428-.368c-.345-.119-.594-.246-.745-.381a.825.825 0 01-.266-.496 2.22 2.22 0 01.064-.673c.042-.228.117-.495.227-.8.118-.305.282-.66.493-1.067.135-.262.274-.449.417-.559a.786.786 0 01.518-.178c.438 0 .817-.008 1.137-.025.329-.025.628-.05.897-.076.27-.026.54-.047.809-.064a9.61 9.61 0 01.884-.038c.38 0 .636.068.771.203a.475.475 0 01.14.47.518.518 0 01-.228.33.935.935 0 01-.468.102c-.421 0-.8.013-1.137.038-.337.017-.67.043-.998.077-.32.025-.666.046-1.036.063-.371.017-.805.021-1.302.013l.885-.432a8.456 8.456 0 00-.657 1.156 3.606 3.606 0 00-.253.813.536.536 0 00-.013.254c.017.067.08.135.19.203.118.06.307.127.568.203.27.068.645.153 1.125.254.556.11 1.002.25 1.34.42.345.16.602.342.77.545.177.204.282.428.316.674.042.245.034.508-.025.787a3.286 3.286 0 01-.809 1.575c-.413.457-.944.821-1.592 1.092-.649.271-1.373.407-2.173.407zm-4.135-.013c-.328 0-.58-.106-.758-.317-.177-.22-.236-.487-.177-.8a.958.958 0 01.316-.534.867.867 0 01.556-.203c.253 0 .45.06.594.178a.85.85 0 01.303.431c.05.17.06.343.026.521a.992.992 0 01-.266.508c-.143.144-.34.216-.594.216zm-2.719-.572a.74.74 0 01-.202.432.513.513 0 01-.38.153c-.202 0-.349-.06-.442-.178-.084-.118-.105-.288-.063-.508.16-.796.329-1.621.506-2.477.177-.863.37-1.719.58-2.565.22-.856.46-1.656.721-2.401l.329.292c-.38.246-.704.436-.973.572-.27.127-.502.216-.695.266a2 2 0 01-.493.077c-.22 0-.38-.06-.48-.178-.101-.119-.135-.275-.101-.47a.48.48 0 01.164-.292.779.779 0 01.379-.153c.303-.059.602-.16.897-.305a12.24 12.24 0 001.011-.597 1.4 1.4 0 01.366-.19c.118-.034.232-.05.342-.05a.49.49 0 01.505.393.687.687 0 01-.025.406l-.341 1.093a86.868 86.868 0 00-.493 1.74 54.488 54.488 0 00-1.112 4.94zm-11.729.585c-.691 0-1.26-.152-1.706-.457a2.347 2.347 0 01-.91-1.232c-.16-.525-.177-1.122-.05-1.791a3.55 3.55 0 01.48-1.245 4.2 4.2 0 01.783-.915c.295-.245.59-.427.885-.546.294-.127.547-.19.758-.19a.58.58 0 01.227.038.283.283 0 01.152.127c.042.05.055.123.038.216-.042.17-.11.326-.202.47-.093.135-.266.258-.519.368-.303.144-.56.305-.77.483-.202.17-.367.368-.493.597-.126.22-.215.487-.265.8-.135.686-.055 1.236.24 1.651.294.407.745.61 1.352.61.59 0 1.103-.212 1.541-.635.447-.432.737-1.004.872-1.715.135-.652.093-1.16-.126-1.524-.22-.373-.582-.559-1.087-.559-.261 0-.484.05-.67.152-.177.102-.37.237-.58.407a3.832 3.832 0 00-.367.343 2.127 2.127 0 01-.253.241.43.43 0 01-.265.076.352.352 0 01-.278-.114c-.06-.085-.072-.216-.038-.394.034-.194.13-.393.29-.597.169-.203.371-.39.607-.559.244-.177.505-.317.783-.419a2.22 2.22 0 01.822-.165c.606 0 1.099.144 1.478.432.379.28.636.669.77 1.169.136.49.136 1.058 0 1.702a4.242 4.242 0 01-.682 1.676c-.337.474-.75.843-1.238 1.105a3.239 3.239 0 01-1.58.394zm-7.657-.025a.488.488 0 01-.455-.28c-.093-.186-.126-.444-.101-.775a6.05 6.05 0 01.076-.597c.042-.254.093-.537.151-.85l.177-.966c.068-.322.127-.618.177-.89.06-.27.105-.486.14-.647.084-.44.197-.762.34-.965a.937.937 0 01.657-.381c.27-.043.556-.072.86-.09.311-.025.619-.037.922-.037.227 0 .46.008.695.025.236.009.455.026.657.051a1.8 1.8 0 01.48.114.4.4 0 01.253.445.495.495 0 01-.316.368 1.422 1.422 0 01-.569.114 4.1 4.1 0 01-.48-.025 6.646 6.646 0 00-.467-.038 7.001 7.001 0 00-.67-.025c-.337 0-.623.017-.86.05a9.843 9.843 0 00-.795.153l.619-.407c-.067.22-.139.462-.215.724a32.14 32.14 0 00-.215.864c-.075.313-.151.669-.227 1.067-.084.415-.152.809-.202 1.181-.05.364-.089.673-.114.927-.025.254-.046.42-.063.496-.025.135-.08.233-.164.292a.45.45 0 01-.291.101zm-5.185 0c-.7 0-1.243-.127-1.63-.381a1.802 1.802 0 01-.758-1.055c-.118-.448-.122-.952-.013-1.511.093-.415.253-.83.48-1.245.236-.423.527-.809.872-1.156a4.29 4.29 0 011.175-.825 3.127 3.127 0 011.378-.318c.665 0 1.154.161 1.465.483.32.321.417.796.29 1.422-.083.466-.29.86-.618 1.181a3.324 3.324 0 01-1.226.725 4.64 4.64 0 01-1.554.254c-.573 0-.956-.068-1.15-.204-.185-.135-.261-.288-.227-.457.017-.102.054-.173.113-.216.06-.05.152-.076.278-.076.093 0 .203.017.329.05.135.026.333.039.594.039.42 0 .8-.06 1.137-.178a2.34 2.34 0 00.846-.483c.22-.211.358-.453.417-.724.051-.254.017-.444-.1-.571-.11-.127-.33-.19-.658-.19a2.2 2.2 0 00-1.225.38 3.625 3.625 0 00-1.567 2.362 2.17 2.17 0 00-.013.84c.05.245.177.448.38.609.21.152.509.228.896.228.438 0 .813-.055 1.125-.165.32-.118.59-.254.809-.406.219-.153.404-.284.556-.394.151-.11.286-.165.404-.165.143 0 .244.055.303.165.068.102.084.237.05.406-.033.17-.147.348-.34.534-.186.178-.43.347-.733.508-.295.16-.624.292-.986.394-.354.093-.72.14-1.1.14zm-6.256-.013c-.623 0-1.137-.123-1.541-.368a2.031 2.031 0 01-.834-1.042c-.152-.449-.169-.965-.05-1.55.1-.5.281-.96.542-1.384a4.48 4.48 0 01.986-1.118 4.709 4.709 0 011.289-.75c.463-.177.94-.266 1.428-.266.219 0 .412.034.58.102.17.059.291.152.367.28.085.118.106.266.064.444a.74.74 0 01-.19.38.47.47 0 01-.329.128.384.384 0 01-.214-.051 2.781 2.781 0 00-.165-.102c-.05-.034-.139-.05-.265-.05-.48 0-.93.122-1.352.368-.421.237-.78.55-1.074.94a3.094 3.094 0 00-.569 1.232c-.059.355-.05.664.026.927.084.254.236.453.455.597.227.144.505.216.834.216.37 0 .665-.042.884-.127.219-.093.392-.195.518-.305.135-.11.244-.207.328-.292a.383.383 0 01.291-.14c.16 0 .27.038.329.114.067.077.084.208.05.394-.059.28-.202.53-.43.75a2.37 2.37 0 01-.859.495 3.292 3.292 0 01-1.099.178zm-7.781.038a1.3 1.3 0 01-.923-.356c-.244-.237-.434-.559-.568-.965a4.942 4.942 0 01-.228-1.397 7.46 7.46 0 01.164-1.639c.068-.338.135-.652.203-.94.075-.288.16-.571.252-.85.093-.28.198-.58.316-.902.127-.33.274-.707.442-1.13.06-.153.131-.255.215-.306a.559.559 0 01.329-.089c.1 0 .19.047.265.14a.564.564 0 01.127.356c.016.152-.013.326-.089.52-.168.45-.312.843-.43 1.182-.11.338-.206.664-.29.978a32.53 32.53 0 00-.228 1.016 9.886 9.886 0 00-.176 1.283c-.017.39 0 .736.05 1.041.05.297.126.53.227.699.11.16.249.241.417.241.253 0 .519-.046.797-.14.277-.101.539-.224.783-.368.253-.152.467-.322.644-.508s.278-.368.303-.546c.026-.127-.033-.258-.176-.394-.135-.144-.341-.275-.62-.394a5.078 5.078 0 00-.985-.292 5.495 5.495 0 00-1.213-.101c-.236.008-.421-.03-.556-.115-.126-.084-.169-.232-.126-.444.033-.136.126-.242.278-.318.151-.084.408-.165.77-.241.312-.06.632-.14.96-.241.338-.102.662-.212.974-.33.32-.12.61-.246.871-.382.262-.135.476-.275.645-.419.168-.144.265-.28.29-.406a.6.6 0 00-.164-.534c-.135-.16-.341-.296-.619-.406a4.382 4.382 0 00-.973-.254 7.857 7.857 0 00-1.213-.09c-.303 0-.598.005-.884.014h-.62a.372.372 0 01-.29-.127.38.38 0 01-.076-.33c.042-.22.206-.394.493-.521.286-.127.682-.19 1.188-.19.673-.001 1.293.05 1.857.151.573.102 1.057.259 1.453.47.396.212.687.479.872.8.185.314.232.687.139 1.118-.05.254-.22.517-.505.788-.279.27-.708.538-1.29.8-.58.263-1.339.508-2.274.737l.026-.356c.631.06 1.145.17 1.541.33.404.153.708.33.91.534.21.203.345.419.404.648.068.22.08.436.038.647a2.116 2.116 0 01-.493.991 3.773 3.773 0 01-.935.8 5.59 5.59 0 01-1.162.546 3.72 3.72 0 01-1.137.19z" fill="#7831B2"/><path fill-rule="evenodd" clip-rule="evenodd" d="M8.51 3.224a13.275 13.275 0 00-5.998 7.758c-2.044 7.033 1.911 14.375 8.82 16.404 3.341.981 6.766.541 9.642-.97a13.275 13.275 0 005.998-7.758c2.044-7.034-1.911-14.376-8.82-16.405a12.856 12.856 0 00-9.642.971zM7.835 1.99C11.138.05 15.18-.577 19.122.58c7.66 2.25 12.025 10.378 9.767 18.148a14.69 14.69 0 01-7.24 8.921c-3.303 1.94-7.345 2.567-11.288 1.41C2.703 26.808-1.662 18.68.595 10.91a14.69 14.69 0 017.24-8.921zm12.12 4.661a.708.708 0 01-.052.3l-3.692 9.15c-.419 1.038-1.897.955-2.192-.116L11.23 5.888a.71.71 0 01.489-.871.695.695 0 01.831.392c1.433 3.275 2.255 6.425 2.705 8.61.522-1.665 1.208-3.76 1.844-5.416.356-.927.712-1.756 1.028-2.297.142-.244.338-.54.59-.715a.886.886 0 01.716-.147.89.89 0 01.57.465.71.71 0 01-.05.742zm34.397 24.432a.707.707 0 01.313.947c-.109.219-.218.444-.325.673l-.003.007c-.924 1.968-1.776 4.285-2.304 6.647-.593 2.648-.767 5.302-.224 7.572.33 1.379.922 2.616 1.856 3.636a8.685 8.685 0 002.185 1.512c1.471.73 3.375 1.239 5.808 1.429 1.451.044 3.099-.05 4.963-.312 6.241-.875 12.052-3.6 17.647-6.817 2.257-1.297 4.467-2.666 6.655-4.022l1.569-.97.002-.002c2.484-1.759 4.934-3.492 7.363-5.002 4.986-3.1 10.003-5.343 15.254-4.95 5.282.395 10.628 3.44 16.311 10.51l-.024.02c.236.263.473.533.71.809l.492-4.658a.703.703 0 111.396.149l-.667 6.315a.703.703 0 01-.773.627l-6.282-.67a.704.704 0 01-.624-.777.703.703 0 01.772-.627l4.557.487c-5.127-5.955-9.955-8.603-14.627-9.235-5.027-.68-10.018.956-15.215 3.63-2.582 1.328-5.194 2.9-7.87 4.552l-.084.059-.094.066c-2.559 1.812-5.194 3.676-7.924 5.382-5.458 3.41-11.354 6.227-17.929 6.781-2.104.177-3.983.193-5.655.064-2.607-.083-4.707-.591-6.37-1.447a9.11 9.11 0 01-2.55-1.916c-1.226-1.191-2.008-2.627-2.44-4.2-.67-2.449-.481-5.194.124-7.836.606-2.645 1.642-5.24 2.727-7.419.111-.238.224-.471.338-.699a.7.7 0 01.942-.315zm57.427 1.863a19.723 19.723 0 013.228-.108c-1.08-.08-2.154-.04-3.228.108z" fill="#7831B2"/></svg>