<svg width="147" height="90" fill="none" xmlns="http://www.w3.org/2000/svg"><path d="M14.987 43.958c-.36.08-.667-.122-.922-.607-.242-.503-.429-1.232-.559-2.187-.13-.954-.206-2.076-.23-3.366-.01-.489-.011-1.12-.002-1.892.005-.788.016-1.626.032-2.515.012-.904.02-1.79.024-2.66 0-.885-.002-1.671-.007-2.359l.56.638c-.392.005-.978.062-1.757.169a52.66 52.66 0 00-2.656.442c-1.01.175-2.062.383-3.155.626-.406.09-.795.184-1.166.283-.372.1-.71.199-1.016.3-.309.084-.58.153-.815.205-.234.052-.47.063-.705.033-.236-.03-.432-.1-.588-.213a.483.483 0 01-.193-.425c0-.295.106-.556.318-.783.212-.227.53-.42.953-.58.42-.175.911-.325 1.474-.45a134.588 134.588 0 014.917-.993 58.446 58.446 0 012.112-.345l1.421-.242c.873-.128 1.487-.092 1.843.107.352.184.54.626.564 1.326.005.687 0 1.434-.019 2.24-.005.789-.018 1.578-.04 2.37a265.92 265.92 0 01-.024 2.218c-.01.69-.012 1.273-.005 1.746.029 1.387.116 2.556.261 3.507.158.932.236 1.578.234 1.94.005.244-.018.47-.07.679a1.017 1.017 0 01-.282.505.873.873 0 01-.502.283zm-9.425 2.067a.845.845 0 01-.695-.141c-.2-.169-.363-.42-.486-.753-.127-.349-.193-.76-.2-1.234a47.491 47.491 0 01-.018-1.962l.061-2.276a47.02 47.02 0 000-2.434c-.01-.637-.03-1.353-.058-2.15a41.358 41.358 0 00-.169-2.42c-.083-.818-.215-1.526-.397-2.125l2.103-.934c.132.593.234 1.276.307 2.046.088.767.153 1.54.194 2.317.057.774.087 1.497.088 2.168l.036 1.713a132.231 132.231 0 01.028 4.002l.025 1.666c.006.473.007.81.002 1.007.007.474-.069.835-.227 1.083a.92.92 0 01-.594.427zm19.57-4.318c-1.28.284-2.397.237-3.35-.142a4.435 4.435 0 01-2.191-1.898c-.512-.903-.787-1.997-.827-3.283-.022-.913.105-1.744.381-2.493a7.954 7.954 0 011.078-2.01c.447-.574.919-1.031 1.417-1.371.495-.356.937-.577 1.328-.664.172-.038.317-.045.437-.023a.54.54 0 01.333.172c.1.076.152.204.159.383a2.96 2.96 0 01-.182.95c-.117.288-.387.585-.81.893a6.71 6.71 0 00-1.232 1.207c-.306.396-.529.83-.67 1.304-.144.458-.199.986-.164 1.585.03 1.32.404 2.303 1.12 2.947.714.629 1.633.818 2.757.569 1.094-.243 1.96-.845 2.599-1.806.651-.98.956-2.154.915-3.522-.017-1.258-.303-2.178-.858-2.76-.559-.597-1.307-.791-2.244-.583-.484.107-.877.293-1.18.556-.286.26-.59.59-.91.99-.23.296-.41.557-.54.783a4.11 4.11 0 01-.37.549.822.822 0 01-.46.25c-.22.048-.407.016-.563-.097-.144-.132-.221-.369-.231-.71-.017-.374.08-.78.294-1.221a6.11 6.11 0 01.896-1.28c.38-.43.807-.795 1.281-1.096.47-.318.956-.532 1.456-.643 1.124-.25 2.097-.187 2.918.189.817.36 1.453.972 1.907 1.838.451.85.683 1.897.697 3.14.041 1.22-.152 2.344-.58 3.373a6.816 6.816 0 01-1.843 2.548 6.178 6.178 0 01-2.768 1.376zm13.583-3.087c-1.156.256-2.159.241-3.01-.045a3.841 3.841 0 01-1.972-1.579c-.465-.765-.707-1.71-.728-2.837a7.917 7.917 0 01.441-2.778 8.46 8.46 0 011.37-2.467 8.952 8.952 0 012.083-1.913 7.54 7.54 0 012.539-1.08c.406-.09.78-.106 1.12-.05.336.04.6.16.793.364.205.184.304.449.3.794.002.31-.063.57-.196.78a.897.897 0 01-.558.37c-.171.039-.311.037-.419-.005a5.376 5.376 0 00-.346-.12c-.107-.041-.278-.036-.513.016a5.034 5.034 0 00-2.356 1.235 6.576 6.576 0 00-1.607 2.176 5.833 5.833 0 00-.55 2.507c.036.68.178 1.247.426 1.7.26.434.623.738 1.088.914.48.172 1.026.19 1.635.055.687-.152 1.217-.352 1.588-.598.368-.262.647-.52.836-.776.205-.258.368-.483.49-.674.118-.206.278-.332.481-.377.297-.066.516-.04.656.076.156.112.241.348.255.705.005.54-.158 1.06-.49 1.56-.335.483-.798.906-1.39 1.267a6.28 6.28 0 01-1.966.78zm5.577-11.145c-.36.08-.665.033-.916-.14a.841.841 0 01-.354-.709.929.929 0 01.183-.507c.112-.156.338-.321.677-.495.527-.28 1.246-.587 2.155-.92.925-.337 2.02-.645 3.286-.926a32.67 32.67 0 011.814-.354c.566-.109 1.195-.19 1.888-.246.545-.056.979-.02 1.301.104.339.122.51.305.516.55a1.09 1.09 0 01-.107.515 1.009 1.009 0 01-.355.398c-.154.117-.364.204-.63.263a16.76 16.76 0 01-1.158.208c-.444.066-.92.139-1.427.218-.494.06-1 .148-1.515.263-1.078.239-1.934.478-2.57.717a14.01 14.01 0 00-1.577.645c-.417.191-.82.33-1.21.416zm5.508 8.76c-.343.075-.632-.008-.867-.25-.218-.248-.407-.582-.567-1.006a9.589 9.589 0 01-.296-1.335 24.15 24.15 0 01-.182-1.927 59.633 59.633 0 01-.09-2.07 221.62 221.62 0 00-.06-2.37 61.1 61.1 0 00-.04-1.737l2.077-.609c-.003.28-.007.633-.01 1.06.008.408.021.872.038 1.393.014.505.023 1.027.028 1.567.017.52.031 1.025.041 1.515.017.815.062 1.494.132 2.035.084.523.17.946.258 1.27.088.325.164.595.228.81.061.2.095.39.102.568a1.25 1.25 0 01-.084.51.901.901 0 01-.289.36.926.926 0 01-.419.215zm12.285-2.726c-1.28.284-2.397.236-3.35-.142a4.435 4.435 0 01-2.191-1.899c-.512-.902-.787-1.997-.827-3.282-.022-.913.105-1.744.381-2.494a7.95 7.95 0 011.078-2.01c.447-.574.919-1.03 1.417-1.37.495-.356.937-.578 1.328-.664.172-.038.318-.046.437-.023a.53.53 0 01.333.172c.1.076.152.203.159.382a2.93 2.93 0 01-.183.95c-.116.288-.386.586-.81.893-.503.39-.913.793-1.231 1.207a3.96 3.96 0 00-.67 1.304c-.144.458-.199.987-.164 1.586.03 1.32.404 2.303 1.12 2.947.714.628 1.633.818 2.757.568 1.094-.242 1.96-.844 2.599-1.806.651-.98.956-2.154.915-3.521-.017-1.258-.303-2.178-.858-2.76-.559-.597-1.307-.792-2.244-.584-.484.108-.877.293-1.18.557-.286.26-.59.59-.91.989-.23.296-.41.558-.54.783-.13.226-.254.409-.37.55a.827.827 0 01-.46.249c-.22.049-.407.016-.563-.097-.144-.131-.221-.368-.231-.71-.017-.373.08-.78.294-1.221a6.11 6.11 0 01.896-1.28 6.04 6.04 0 011.281-1.096c.47-.317.956-.532 1.456-.643 1.124-.249 2.097-.186 2.918.189.817.36 1.453.972 1.907 1.838.451.851.683 1.897.697 3.14.041 1.22-.152 2.345-.58 3.374a6.817 6.817 0 01-1.843 2.547 6.178 6.178 0 01-2.768 1.377zm17.157-3.831c-.422.093-.769-.027-1.04-.36-.257-.352-.457-.808-.597-1.367a23.078 23.078 0 01-.19-.966 14.082 14.082 0 01-.15-1.122 76.784 76.784 0 00-.065-1.067V23.69c.016-.446.03-.9.042-1.362.025-.48.042-.919.053-1.314.022-.415.035-.73.036-.943-.013-.21-.093-.348-.239-.414-.15-.081-.38-.087-.692-.018-.25.055-.52.132-.81.229-.29.097-.6.215-.93.353a7.492 7.492 0 00-1.965 1.223c-.537.463-.797.915-.782 1.354.002.376.114.696.336.958.234.243.62.395 1.158.456.554.057 1.315-.022 2.283-.236a22.573 22.573 0 001.994-.541c.318-.12.584-.212.8-.276a3.78 3.78 0 01.41-.14 5.93 5.93 0 011-.148c.276-.012.414.129.414.424.023.323-.094.61-.349.864-.24.25-.585.466-1.036.648a9.727 9.727 0 01-1.567.47l-2.414.536a6.531 6.531 0 01-2.436.098c-.766-.125-1.393-.404-1.882-.836-.474-.436-.724-1.011-.752-1.726 0-.443.106-.925.318-1.448.224-.54.596-1.082 1.115-1.623.535-.545 1.274-1.053 2.218-1.525.677-.347 1.253-.598 1.727-.752.473-.154.952-.285 1.437-.393.609-.135 1.104-.154 1.486-.059.382.096.668.278.859.547.206.266.314.602.322 1.01.01.342-.002.763-.04 1.263-.04.484-.076.984-.109 1.5-.02.495-.037.942-.047 1.337.005.392.025.814.06 1.265a17.482 17.482 0 00.321 2.338c.076.344.166.709.268 1.096.114.368.171.626.171.773a.94.94 0 01-.18.63.897.897 0 01-.556.37zm-8.253 1.806c-.281.062-.52.017-.719-.136a.888.888 0 01-.291-.648c.009-.182.088-.38.237-.593.146-.23.413-.502.802-.817a12.613 12.613 0 001.904-1.947c.618-.76 1.22-1.59 1.807-2.49l1.663.515a26.343 26.343 0 01-1.354 2.096 26.322 26.322 0 01-1.495 1.905c-.493.584-.96 1.065-1.4 1.441-.442.377-.826.601-1.154.674zm14.194-3.125c-.375.083-.7-.016-.976-.3-.276-.282-.501-.708-.676-1.275-.163-.587-.255-1.296-.276-2.127.004-.87.077-1.541.217-2.015.153-.493.369-.852.646-1.077.151-.132.381-.24.69-.325.306-.101.63-.19.974-.266a35.215 35.215 0 003.337-.912 17.455 17.455 0 003.148-1.436l.78 1.523a13.7 13.7 0 01-2.468 1.285c-.902.364-1.83.685-2.785.962-.943.259-1.867.488-2.773.69l-1.406.09c-.001-.967-.005-1.982-.012-3.046-.006-1.064-.02-2.011-.04-2.842-.021-.39.036-.721.172-.997.135-.276.32-.44.554-.492.39-.087.715.005.971.276.254.255.383.727.388 1.414.013.357.012.792-.006 1.304-.017.512-.038 1.049-.06 1.611-.007.559-.02 1.094-.037 1.606-.006.493-.005.903.002 1.23.013.947.053 1.79.119 2.53.078.72.125 1.266.142 1.64.002.229-.06.43-.185.606a.66.66 0 01-.44.343zm8.084-1.793c-.39.087-.722-.078-.995-.492-.256-.419-.464-1.02-.621-1.805a17.585 17.585 0 01-.254-2.697c-.02-1.568-.01-2.816.03-3.743.052-.946.122-1.699.211-2.26a3.96 3.96 0 01.266-1.017c.129-.307.326-.49.591-.55.344-.075.622.035.836.332.225.277.341.653.348 1.127.016.587-.021 1.234-.11 1.942a16.124 16.124 0 00-.066 2.252c.02.978.077 1.86.169 2.642.103.764.205 1.405.303 1.924.1.519.145.91.138 1.174a1.12 1.12 0 01-.224.762 1.05 1.05 0 01-.622.409zm6.034-1.339c-.375.083-.7-.017-.976-.3-.276-.282-.502-.708-.677-1.275-.162-.587-.254-1.296-.275-2.127.004-.575.034-1.065.092-1.471.073-.41.171-.743.294-1 .136-.275.295-.483.477-.621.15-.132.38-.24.69-.326.305-.1.63-.189.974-.265a35.207 35.207 0 003.337-.912 17.474 17.474 0 003.148-1.436l.78 1.523c-.743.492-1.565.92-2.468 1.285-.903.364-1.831.685-2.786.962-.942.258-1.866.488-2.772.69l-1.406.09c.002-.656 0-1.328-.005-2.015s-.016-1.365-.033-2.033c-.001-.672-.006-1.285-.015-1.84-.02-.39.037-.722.172-.998.136-.275.32-.44.555-.491.39-.087.714.005.97.276.254.255.383.726.388 1.414a18.5 18.5 0 01-.005 1.304c-.018.512-.038 1.049-.06 1.611a77.4 77.4 0 01-.038 1.606c-.005.493-.004.903.002 1.229.014.947.054 1.79.12 2.53.077.72.125 1.267.142 1.64.002.23-.06.431-.185.607a.659.659 0 01-.44.343zm8.083-1.793c-.39.086-.722-.078-.994-.493-.257-.418-.464-1.02-.621-1.804a17.53 17.53 0 01-.255-2.697 70.52 70.52 0 01.03-3.743c.053-.946.123-1.7.212-2.26a3.95 3.95 0 01.266-1.017c.128-.307.325-.49.591-.55.343-.076.622.035.835.332.226.277.342.653.349 1.127.015.586-.021 1.234-.11 1.942a16.168 16.168 0 00-.066 2.251c.02.98.077 1.86.168 2.643.104.763.205 1.405.304 1.924.099.518.145.91.138 1.174.015.291-.059.545-.224.762a1.052 1.052 0 01-.623.409zm7.091-1.598c-.718.16-1.342.117-1.871-.126-.514-.246-.924-.655-1.231-1.226-.292-.575-.447-1.278-.468-2.109a8.766 8.766 0 01.274-2.42c.221-.853.538-1.677.951-2.473.41-.813.894-1.55 1.451-2.215a9.05 9.05 0 011.88-1.72 6.461 6.461 0 012.197-.955c.36-.08.662-.048.906.094.245.142.37.41.375.802a.91.91 0 01-.149.55c-.113.155-.298.278-.557.369a7.466 7.466 0 00-2.786 1.847 9.13 9.13 0 00-1.815 2.787c-.415 1.01-.617 2.022-.605 3.035.006.474.051.898.135 1.273.079.36.261.81.546 1.354l-1.249-1.419c.361.297.663.476.905.537.259.057.599.039 1.021-.055 1-.221 1.873-1.087 2.62-2.597.746-1.51 1.285-3.587 1.616-6.234.043-.32.141-.58.294-.778.165-.217.38-.355.646-.414a.923.923 0 01.924.287c.269.252.44.615.512 1.09.156.999.322 1.896.499 2.693.189.777.438 1.492.747 2.145.324.65.778 1.294 1.363 1.935a.917.917 0 01.237.512c.045.203.033.41-.034.623a1.312 1.312 0 01-.295.557.979.979 0 01-.526.288c-.234.052-.432.047-.593-.015a1.244 1.244 0 01-.417-.326 11.091 11.091 0 01-.871-1.159 9.392 9.392 0 01-.765-1.453 12.343 12.343 0 01-.58-2.059 27.47 27.47 0 01-.395-2.887l.839-.21c-.214 2.21-.63 4.032-1.246 5.463-.601 1.428-1.304 2.51-2.107 3.246-.804.735-1.597 1.19-2.378 1.363zm20.299-4.48c-.422.095-.768-.025-1.039-.359-.258-.352-.458-.808-.598-1.367a23.336 23.336 0 01-.19-.965 13.895 13.895 0 01-.15-1.122 63.298 63.298 0 00-.065-1.068V11.37c.016-.446.03-.9.043-1.361.024-.481.042-.92.052-1.315.023-.415.035-.729.037-.942-.014-.21-.094-.348-.24-.414-.149-.082-.38-.088-.692-.019a8.08 8.08 0 00-.81.229 13.35 13.35 0 00-.929.354 7.504 7.504 0 00-1.966 1.222c-.536.464-.797.915-.781 1.354.001.376.113.696.335.958.234.243.621.395 1.158.456.554.057 1.315-.021 2.284-.236.343-.076.685-.16 1.025-.252a19.6 19.6 0 00.969-.289c.317-.12.584-.212.799-.276.212-.08.349-.126.411-.14a5.941 5.941 0 011-.148c.276-.012.414.13.414.424.022.323-.094.611-.349.864-.24.25-.585.466-1.037.648a9.709 9.709 0 01-1.567.47l-2.413.536a6.53 6.53 0 01-2.437.098c-.765-.125-1.392-.403-1.882-.836-.473-.436-.724-1.011-.751-1.726 0-.443.106-.925.318-1.447.224-.542.595-1.083 1.114-1.624.535-.545 1.275-1.053 2.219-1.525.677-.347 1.252-.597 1.726-.752.474-.154.953-.285 1.437-.392.609-.135 1.105-.155 1.487-.06.381.096.668.278.858.547.207.266.314.603.323 1.01.01.342-.003.763-.04 1.263-.04.484-.076.984-.109 1.5-.021.496-.037.942-.048 1.337.005.393.025.814.06 1.266.031.435.076.86.135 1.273.058.413.121.768.187 1.064.076.344.165.71.267 1.096.115.368.172.626.172.774a.942.942 0 01-.18.63.897.897 0 01-.557.369zm-8.253 1.807c-.281.063-.52.017-.718-.135a.89.89 0 01-.292-.649c.009-.182.088-.38.238-.593.145-.23.413-.502.802-.817a12.61 12.61 0 001.903-1.947c.618-.76 1.221-1.59 1.808-2.49l1.663.516a26.592 26.592 0 01-2.849 4c-.493.584-.96 1.065-1.401 1.441-.441.377-.826.601-1.154.674zM13.597 66.728c-1.155.256-2.159.241-3.009-.046a3.84 3.84 0 01-1.972-1.578c-.465-.765-.708-1.711-.728-2.838a7.917 7.917 0 01.44-2.777c.324-.907.78-1.73 1.37-2.467a8.955 8.955 0 012.084-1.913 7.541 7.541 0 012.538-1.08c.406-.09.78-.107 1.12-.051.336.04.6.161.793.365.205.184.305.448.3.794.003.31-.062.57-.196.78a.897.897 0 01-.557.37c-.172.038-.312.036-.42-.005a5.376 5.376 0 00-.345-.12c-.108-.042-.279-.037-.513.015-.89.198-1.676.61-2.357 1.236a6.576 6.576 0 00-1.606 2.176 5.832 5.832 0 00-.55 2.506c.036.68.178 1.247.426 1.7a2.1 2.1 0 001.088.914c.48.172 1.025.19 1.634.056.688-.153 1.217-.352 1.588-.599.369-.261.647-.52.836-.775.205-.258.369-.483.49-.674.118-.206.279-.332.482-.377.296-.066.515-.04.656.075.156.113.24.348.255.706.005.54-.159 1.06-.49 1.56-.335.483-.799.906-1.39 1.266a6.28 6.28 0 01-1.966.78zm15.896-3.478c-.47.104-1.016.078-1.64-.078a8.734 8.734 0 01-1.924-.803 15.685 15.685 0 01-1.82-1.219 9.19 9.19 0 01-1.378-1.34 2.345 2.345 0 01-.456-.613 2.961 2.961 0 01-.163-.627c.019-.136.05-.29.093-.464a1.65 1.65 0 01.211-.489c.132-.291.378-.698.738-1.22a32.33 32.33 0 011.268-1.708 22.795 22.795 0 011.567-1.798 16.332 16.332 0 011.612-1.488c.532-.413 1.008-.666 1.43-.76.172-.038.313-.029.424.029a.66.66 0 01.302.252.798.798 0 01.13.365c.06.347-.093.725-.461 1.135-.368.41-.773.802-1.214 1.178a28.13 28.13 0 00-2.039 2.002 19.69 19.69 0 00-1.377 1.657c-.323.465-.475.778-.456.937-.004.132.085.31.265.532.18.222.44.467.778.736.354.266.765.527 1.231.784a12 12 0 001.578.683c.338.121.667.237.986.346.332.09.602.203.812.337.222.114.348.275.378.481.022.176.002.344-.06.505a.946.946 0 01-.326.417c-.139.113-.302.19-.49.231zm-7.808 1.708c-.406.09-.724-.052-.955-.427-.234-.391-.407-.984-.518-1.779a32.436 32.436 0 01-.194-2.98c-.01-.49-.01-1.006 0-1.55l.08-1.64c.022-.561.025-1.103.008-1.623a3.24 3.24 0 00-.013-.39 4.06 4.06 0 00-.023-.438 2.867 2.867 0 01.086-.83c.064-.228.154-.412.27-.552.13-.16.271-.257.428-.292.359-.08.676.022.952.305.288.264.434.699.437 1.304.009.408-.009.92-.052 1.536a189.4 189.4 0 01-.108 1.843c-.04.632-.057 1.185-.05 1.658.04.844.092 1.594.156 2.252.08.655.158 1.194.236 1.62.075.41.106.697.093.864.01.194-.023.374-.101.539a.902.902 0 01-.29.359.89.89 0 01-.442.22zm13.72-3.02c-.532.118-.981.087-1.349-.094a2.246 2.246 0 01-.874-.838 4.379 4.379 0 01-.513-1.312c-.095-.504-.148-1-.158-1.49.004-.426.021-.938.052-1.535.048-.6.105-1.228.173-1.882.068-.654.137-1.268.206-1.84.086-.577.158-1.027.217-1.352.081-.591.168-1.053.258-1.384.106-.335.276-.529.51-.58a.89.89 0 01.61.085c.203.103.367.255.494.456.142.198.22.435.231.71.009.261-.02.645-.089 1.151-.067.507-.147 1.074-.237 1.7a63.4 63.4 0 00-.243 1.898 12.04 12.04 0 00-.097 1.668c0 .443.028.863.083 1.26.052.382.137.691.255.927.114.22.273.308.476.263.5-.11 1.034-.696 1.602-1.756.583-1.064 1.178-2.483 1.785-4.256.284-.784.525-1.51.721-2.176.197-.666.371-1.246.524-1.739.15-.508.314-.913.493-1.215.178-.302.385-.479.62-.531.359-.08.648.004.866.25.23.228.389.57.474 1.026.09.406.185.91.285 1.51l.359 1.838c.12.613.246 1.183.38 1.71.247.896.498 1.619.751 2.169.265.531.49.956.676 1.276.186.32.295.59.328.812.023.175.004.352-.055.529a1.286 1.286 0 01-.273.429.847.847 0 01-.438.245c-.546.12-1.017-.152-1.41-.818-.394-.667-.787-1.588-1.179-2.763-.156-.555-.32-1.15-.494-1.783-.157-.637-.3-1.277-.426-1.921a220.45 220.45 0 01-.301-1.802l.731.084a43.028 43.028 0 01-.537 2.012c-.213.736-.52 1.68-.92 2.834a24.802 24.802 0 01-1.198 2.798c-.458.889-.97 1.65-1.534 2.283-.552.614-1.164.995-1.836 1.145zm12.81-4.243c.1-.514.242-1.094.426-1.742.18-.662.38-1.354.597-2.074.232-.724.469-1.432.708-2.124a47.7 47.7 0 01.727-1.931c.311-.741.63-1.443.959-2.106.328-.663.657-1.211.987-1.645.342-.453.662-.712.958-.778.313-.07.616.003.909.217.309.21.624.599.947 1.166.222.41.478.935.767 1.575.29.64.586 1.346.887 2.114a39.7 39.7 0 01.83 2.3c.255.779.465 1.502.63 2.17l-2.021.645a29.234 29.234 0 00-.705-2.4 33.006 33.006 0 00-.9-2.505 27.607 27.607 0 00-.923-2.056c-.295-.59-.552-.976-.773-1.156l.872-.39a27.9 27.9 0 00-1.177 2.227c-.387.84-.731 1.728-1.032 2.663a150.4 150.4 0 00-.622 1.957 42.687 42.687 0 00-.514 1.786 72.723 72.723 0 00-.407 1.713l-2.13.374zm11.14 2.224c-.313.07-.58.014-.8-.167a.839.839 0 01-.325-.69c-.01-.194.029-.498.117-.91.092-.398.18-.852.264-1.362.083-.51.116-1.026.1-1.546l1.108 1.007a15.63 15.63 0 00-1.052.136c-.46.069-1.041.181-1.744.337-.656.146-1.334.304-2.034.476-.687.152-1.372.313-2.056.48-.668.166-1.318.342-1.947.531a66.76 66.76 0 00-1.825.528 30.53 30.53 0 00-1.57.57l.731-1.023a18.107 18.107 0 00.2 1.676c.054.316.099.593.135.83l.11.493c.043.269-.006.493-.147.671a.96.96 0 01-.604.38c-.374.083-.665-.008-.871-.273-.207-.266-.355-.602-.445-1.008a7.175 7.175 0 01-.19-.966 7.61 7.61 0 01-.086-.94c.007-.263.053-.503.136-.718a1.44 1.44 0 01.378-.625c.187-.189.446-.353.776-.491.376-.15.887-.32 1.533-.513a42.269 42.269 0 012.218-.64 70.15 70.15 0 012.58-.67 74.66 74.66 0 012.544-.613l.843-.188c.313-.069.634-.132.966-.19.331-.056.65-.095.958-.114.463-.053.8.02 1.007.22.224.196.345.554.362 1.075.008.407-.017.847-.076 1.32-.06.471-.157.92-.292 1.343a3.881 3.881 0 01-.448 1.082c-.167.283-.352.447-.555.492zm12.536-6.076c-.468.104-1.015.078-1.64-.078a8.734 8.734 0 01-1.923-.803 15.685 15.685 0 01-1.82-1.219 9.195 9.195 0 01-1.379-1.34 2.347 2.347 0 01-.455-.613 2.961 2.961 0 01-.164-.627c.02-.135.05-.29.094-.463a1.65 1.65 0 01.211-.49c.132-.291.378-.698.737-1.22.36-.523.782-1.092 1.268-1.708a22.777 22.777 0 011.568-1.798A16.346 16.346 0 0170 41.996c.531-.413 1.008-.666 1.43-.76.171-.038.313-.028.424.029a.66.66 0 01.302.252.797.797 0 01.13.365c.06.347-.093.725-.461 1.135-.368.41-.773.802-1.214 1.179a28.129 28.129 0 00-2.039 2 19.69 19.69 0 00-1.377 1.659c-.323.465-.475.777-.456.937-.004.131.085.308.265.53.18.223.44.468.778.738.354.265.764.527 1.231.784.483.253 1.008.48 1.577.682.339.122.668.237.987.347.331.09.602.202.812.336.222.114.348.275.377.481a1.01 1.01 0 01-.06.506.947.947 0 01-.325.416c-.14.113-.302.19-.49.231zm-7.807 1.708c-.406.09-.725-.052-.956-.427-.234-.39-.406-.983-.517-1.778a32.431 32.431 0 01-.194-2.981c-.01-.49-.01-1.006 0-1.549l.079-1.64c.023-.562.026-1.104.008-1.624.004-.132 0-.262-.012-.39 0-.148-.008-.294-.024-.438a2.866 2.866 0 01.086-.83 1.5 1.5 0 01.271-.552c.129-.16.271-.257.427-.292.36-.08.677.022.953.305.288.264.434.699.437 1.305.008.407-.01.92-.053 1.535a161.93 161.93 0 01-.107 1.843c-.04.632-.057 1.185-.05 1.659.04.843.091 1.594.155 2.251.08.655.159 1.194.237 1.62.074.41.105.697.093.864.01.194-.023.374-.102.539a.902.902 0 01-.289.359.89.89 0 01-.442.221zm13.925-3.09c-.719.16-1.343.118-1.872-.125-.513-.247-.924-.655-1.23-1.227-.292-.574-.448-1.277-.469-2.108a8.752 8.752 0 01.275-2.421c.22-.852.537-1.676.95-2.473.41-.812.894-1.55 1.451-2.215a9.061 9.061 0 011.88-1.72 6.466 6.466 0 012.198-.954c.359-.08.661-.049.906.094.244.142.37.41.374.802a.91.91 0 01-.148.549c-.113.156-.299.28-.558.37a7.465 7.465 0 00-2.786 1.847 9.135 9.135 0 00-1.815 2.787c-.415 1.01-.617 2.022-.605 3.035.007.474.052.898.135 1.273.08.36.262.81.546 1.354l-1.249-1.42c.361.298.663.477.906.537.258.058.599.04 1.02-.054 1-.222 1.873-1.088 2.62-2.597.747-1.51 1.285-3.588 1.616-6.234.044-.321.142-.58.294-.778.166-.217.38-.355.646-.414.36-.08.668.016.924.287.27.251.44.615.513 1.09.156.998.322 1.896.499 2.692.189.778.437 1.493.746 2.146.324.649.779 1.294 1.363 1.934a.91.91 0 01.237.513c.045.203.034.41-.034.622-.052.209-.15.394-.294.557a.978.978 0 01-.526.289c-.235.052-.432.047-.594-.016a1.242 1.242 0 01-.416-.325c-.309-.358-.6-.744-.872-1.159a9.41 9.41 0 01-.765-1.453c-.225-.573-.418-1.26-.58-2.06-.16-.8-.292-1.762-.394-2.886l.838-.21c-.214 2.21-.63 4.031-1.246 5.463-.601 1.428-1.303 2.51-2.107 3.245-.804.736-1.596 1.19-2.377 1.364zM16.007 89c-.735.162-1.293.122-1.674-.12-.363-.232-.548-.658-.554-1.28a1.591 1.591 0 01.552-1.277c1.627-1.46 2.991-2.77 4.093-3.932 1.1-1.178 1.978-2.242 2.636-3.19.655-.965 1.124-1.84 1.41-2.624.28-.8.415-1.526.4-2.179-.011-.866-.249-1.493-.712-1.882-.466-.405-1.176-.501-2.13-.29-.796.177-1.486.428-2.069.754A10.25 10.25 0 0016.465 74c-.414.354-.763.661-1.05.921-.286.26-.531.413-.734.458-.297.066-.544.023-.742-.13a.932.932 0 01-.296-.672c.005-.198.045-.387.12-.567.074-.18.225-.386.453-.617a12.608 12.608 0 012.622-2.032 10.28 10.28 0 013.067-1.246c1.202-.267 2.165-.251 2.886.048A2.84 2.84 0 0124.4 71.65c.354.708.539 1.543.556 2.507.015.734-.107 1.548-.368 2.441-.245.89-.7 1.868-1.365 2.934-.665 1.065-1.599 2.247-2.802 3.547-1.191 1.28-2.712 2.7-4.562 4.257l-.437-.64c.227.064.453.087.679.07a5.61 5.61 0 00.737-.114 21.335 21.335 0 002.012-.57 174.22 174.22 0 012.502-.8c.92-.287 1.88-.54 2.88-.762.765-.17 1.279-.145 1.54.076.275.201.413.457.417.768a.952.952 0 01-.282.726c-.187.189-.5.332-.937.43a61.1 61.1 0 00-5.43 1.45c-.69.218-1.318.415-1.886.59-.567.175-1.116.322-1.648.44zm19.07-4.453c-1.093.243-2.122.184-3.087-.175-.949-.363-1.726-1.06-2.331-2.089-.594-1.048-.91-2.478-.952-4.288-.034-1.189.112-2.303.439-3.342.323-1.055.73-1.99 1.221-2.803.492-.814.993-1.474 1.503-1.98.51-.507.945-.8 1.305-.88.28-.063.49-.043.627.057.134.085.201.316.203.693.017.225-.024.448-.123.666-.102.203-.267.42-.495.65a8.545 8.545 0 00-1.34 1.823c-.4.711-.718 1.495-.954 2.35a9.249 9.249 0 00-.308 2.6c.015 1.03.166 1.93.452 2.703.301.769.739 1.335 1.311 1.7.588.361 1.32.445 2.194.25.875-.194 1.69-.66 2.443-1.402.753-.74 1.348-1.716 1.784-2.928.436-1.21.639-2.624.608-4.24-.005-1.13-.15-2.114-.434-2.952-.288-.854-.69-1.486-1.207-1.896-.517-.41-1.15-.531-1.9-.365a5.259 5.259 0 00-1.69.695 6.447 6.447 0 00-1.453 1.207 9.483 9.483 0 00-1.221 1.697 2.344 2.344 0 01-.391.455c-.148.148-.362.253-.643.315-.297.066-.536.02-.719-.135-.182-.157-.273-.382-.273-.677.01-.33.159-.765.448-1.304.287-.556.702-1.123 1.245-1.702a10.617 10.617 0 011.959-1.59 7.695 7.695 0 012.455-1.012c1.234-.274 2.284-.155 3.152.358.864.496 1.531 1.323 2 2.481.483 1.139.732 2.558.75 4.26.039 1.58-.122 3-.481 4.26-.36 1.26-.857 2.346-1.49 3.256-.638.896-1.354 1.62-2.149 2.173-.795.554-1.614.924-2.457 1.111zm13.2-2.683c-.296.066-.535.02-.718-.135-.178-.141-.283-.355-.314-.643-.016-.292.055-.603.21-.932a131.092 131.092 0 012.655-4.769 96.1 96.1 0 015.988-9.023 89.191 89.191 0 013.5-4.39c.285-.342.532-.593.742-.755.21-.161.44-.27.69-.325.266-.059.47-.022.614.11.16.128.26.32.3.573.036.237.007.514-.087.83-.097.3-.268.6-.513.9a98.158 98.158 0 00-4.716 5.89 78.886 78.886 0 00-3.844 5.72 92.094 92.094 0 00-3.337 5.903c-.175.318-.368.557-.578.718a1.302 1.302 0 01-.591.328zm1.017-10.378c-.968.215-1.797.21-2.486-.014-.689-.224-1.212-.624-1.57-1.2-.357-.577-.544-1.273-.56-2.089a4.004 4.004 0 01.448-1.968 5.318 5.318 0 011.312-1.618 4.402 4.402 0 011.84-.9c.298-.066.528-.027.69.117.16.128.248.338.263.63a1.064 1.064 0 01-.213.588c-.125.176-.33.36-.615.555-.604.38-1.016.774-1.237 1.184-.224.394-.328.81-.313 1.249-.003.575.175 1.01.536 1.307.361.297.893.367 1.596.211.672-.149 1.17-.415 1.494-.798.322-.4.476-.884.464-1.455-.001-.524-.17-.954-.507-1.289-.336-.335-.747-.449-1.231-.341-.313.069-.594.058-.843-.035-.238-.11-.36-.33-.367-.656-.002-.376.099-.66.302-.853.215-.212.448-.346.698-.401.828-.184 1.54-.145 2.14.115a2.945 2.945 0 011.433 1.255c.342.58.52 1.27.533 2.07a3.897 3.897 0 01-.477 1.95 4.425 4.425 0 01-1.333 1.525c-.566.404-1.231.69-1.997.86zm9.944 7.7c-.984.219-1.822.208-2.514-.032-.677-.243-1.202-.65-1.575-1.224-.36-.591-.56-1.301-.595-2.13a3.585 3.585 0 01.443-1.77 4.403 4.403 0 011.297-1.467 4.642 4.642 0 011.827-.848c.313-.07.547-.047.703.066.156.112.24.307.253.583.001.229-.057.447-.175.653-.103.203-.297.36-.583.474-.617.251-1.043.583-1.279.996a2.512 2.512 0 00-.326 1.302c.004.605.207 1.044.611 1.314.417.252.945.307 1.586.165.672-.149 1.192-.461 1.562-.937.382-.494.574-1.07.576-1.725-.03-.65-.24-1.16-.635-1.531-.394-.372-.903-.488-1.528-.35-.343.077-.612.046-.807-.09-.194-.138-.3-.36-.32-.668.002-.36.097-.635.284-.825a1.56 1.56 0 01.75-.387c.844-.187 1.593-.132 2.25.165a3.34 3.34 0 011.54 1.403c.387.635.58 1.355.577 2.158a4.452 4.452 0 01-.464 2.12 4.885 4.885 0 01-1.401 1.662 5.31 5.31 0 01-2.057.924z" fill="#7831B2"/></svg>