<svg width="92" height="102" fill="none" xmlns="http://www.w3.org/2000/svg"><g fill="#7831B2"><path fill-rule="evenodd" clip-rule="evenodd" d="M53.102 83.904c-.065.018-.13.035-.196.051-9.78 2.504-16.495 5.583-20.925 8.502-3.834 2.525-6.008 4.965-6.93 6.847l-1.927-3.714a.692.692 0 00-.924-.295.672.672 0 00-.299.911l2.813 5.425a.692.692 0 00.924.295l5.504-2.773a.672.672 0 00.299-.911.691.691 0 00-.924-.295l-3.645 1.836c1.024-1.555 2.878-3.573 5.87-5.712 4.283-3.06 10.853-6.333 20.51-8.805l.207-.054c4.967-1.322 8.25-3.993 10.238-7.475 1.976-3.46 2.643-7.666 2.507-12.03-.272-8.72-3.759-18.295-6.886-24.46a.676.676 0 00-.228-.257l-.02-.041a.691.691 0 00-.922-.303.672.672 0 00-.307.908c3.08 6.072 6.541 15.524 6.866 24.05.162 4.258-.461 8.229-2.25 11.427-1.774 3.173-4.725 5.64-9.349 6.872l-.006.001z"/><path d="M9.245 29.832c-.232.05-.423-.006-.57-.17-.15-.175-.32-.482-.507-.922-.159-.359-.321-.81-.487-1.352a31.408 31.408 0 01-.442-1.74 30.529 30.529 0 01-.318-1.782 66.89 66.89 0 00-.247-1.766 7.571 7.571 0 00-.225-1.147c-.077-.29-.172-.492-.287-.61-.115-.116-.268-.154-.458-.112-.285.062-.6.366-.942.91-.335.533-.67 1.262-1.005 2.187-.335.926-.638 2.014-.911 3.265a35.976 35.976 0 00-.643 4.09 1.284 1.284 0 01-.176.548.608.608 0 01-.377.246c-.243.053-.435.013-.576-.12-.143-.144-.219-.433-.228-.868-.01-.632.035-1.27.134-1.914a34.33 34.33 0 01.385-1.986c.147-.677.278-1.35.393-2.02.126-.672.204-1.334.235-1.986 0-.196.036-.357.108-.482a.508.508 0 01.342-.255.682.682 0 01.424.038.86.86 0 01.389.325l-.564.303c.446-1.124.89-1.981 1.334-2.57.455-.591.962-.948 1.522-1.07.613-.134 1.086-.052 1.419.247.333.298.593.81.778 1.534.185.725.356 1.682.513 2.871.11.883.251 1.634.423 2.252.173.617.334 1.14.486 1.565l.404 1.06c.108.282.166.537.173.765a.645.645 0 01-.134.439.585.585 0 01-.365.227zM.695 28.49c-.232.051-.408.035-.526-.048-.119-.084-.175-.208-.167-.373a.539.539 0 01.1-.367c.085-.117.23-.236.435-.357 1.13-.695 2.428-1.307 3.894-1.835a38.565 38.565 0 014.798-1.361c.37-.081.62-.081.749 0 .14.079.21.221.213.429.004.217-.093.424-.293.62-.202.187-.493.322-.873.405a37.578 37.578 0 00-3.066.785c-.82.245-1.505.482-2.052.711a17.05 17.05 0 00-1.391.616c-.367.19-.69.354-.97.491-.272.125-.555.22-.85.285zm12.513.508a.674.674 0 01-.66-.2c-.187-.188-.34-.472-.458-.85-.11-.392-.172-.864-.186-1.419.003-.383.023-.71.062-.98.05-.273.116-.495.2-.667a1.11 1.11 0 01.322-.414c.102-.088.257-.16.466-.217.207-.067.426-.126.659-.177a24.083 24.083 0 002.258-.609c.742-.25 1.451-.569 2.129-.957l.527 1.015a9.368 9.368 0 01-1.669.857c-.61.243-1.239.457-1.884.642a41.48 41.48 0 01-1.876.46l-.95.06c0-.438 0-.885-.004-1.344-.003-.458-.01-.91-.022-1.355a92.12 92.12 0 00-.01-1.227 1.32 1.32 0 01.116-.665c.092-.184.217-.293.376-.328.264-.058.483.004.656.184.172.17.259.485.262.943.01.238.008.528-.004.87-.011.34-.025.699-.04 1.074-.005.372-.014.73-.025 1.07-.004.33-.004.602 0 .82.01.632.037 1.194.081 1.687.053.48.085.845.097 1.094a.663.663 0 01-.126.404.445.445 0 01-.297.229zm5.468-1.196c-.265.058-.489-.052-.673-.328-.174-.28-.314-.68-.42-1.203a11.57 11.57 0 01-.172-1.798 46.026 46.026 0 01.02-2.496c.036-.631.083-1.133.143-1.507a2.61 2.61 0 01.18-.678c.087-.205.22-.327.4-.367.232-.05.42.023.565.221.153.185.231.436.236.752.01.39-.015.822-.075 1.294-.05.47-.064.97-.044 1.502.014.652.052 1.24.114 1.762.07.509.138.936.205 1.282.067.346.098.607.093.783a.74.74 0 01-.152.509.712.712 0 01-.42.272zm4.012-.894a.633.633 0 01-.647-.219c-.168-.204-.282-.512-.342-.925a7.485 7.485 0 01-.07-.755 49.73 49.73 0 01-.045-1.089l-.046-1.235a51.578 51.578 0 00-.024-1.142c0-.35-.002-.628-.005-.835-.016-.565.038-.992.16-1.281.133-.302.372-.518.72-.65.326-.125.677-.24 1.053-.344a14.239 14.239 0 012.46-.522c.45-.066.796-.081 1.037-.046a.516.516 0 01.322.175.464.464 0 01.118.302c.004.218-.094.397-.295.54-.2.142-.427.24-.681.296a5.359 5.359 0 01-.61.1 9.165 9.165 0 00-.596.082 9.15 9.15 0 00-.847.153 8.059 8.059 0 00-1.064.298c-.286.106-.605.241-.956.406l.664-.67c-.044.447-.077.94-.1 1.48a45.92 45.92 0 00.01 1.965c.01.534.034 1.037.074 1.509.037.461.075.852.114 1.171.039.32.058.529.058.627.006.173-.036.308-.125.404a.582.582 0 01-.337.205zm5.17-1.098a.458.458 0 01-.38-.064.665.665 0 01-.22-.313 1.04 1.04 0 01-.09-.472c0-.197.044-.468.132-.816.096-.36.227-.765.391-1.216.163-.462.335-.926.518-1.392.2-.492.406-.98.62-1.463.22-.497.436-.943.646-1.338.208-.406.384-.73.53-.969.23-.356.462-.63.696-.824.242-.206.5-.339.775-.399.253-.055.448-.005.583.151.132.146.254.344.366.592.113.26.232.567.357.922.124.355.256.72.396 1.094.137.363.282.714.436 1.052.183.419.346.776.49 1.073.156.293.294.542.418.744.133.2.255.37.364.51.104.12.19.227.255.322.066.095.106.2.122.318a.916.916 0 01-.04.418.745.745 0 01-.221.344.637.637 0 01-.34.189c-.201.044-.402-.011-.602-.164a3.064 3.064 0 01-.576-.71 12.392 12.392 0 01-.56-1.009l-.42-.907a58.94 58.94 0 01-.517-1.264 43.606 43.606 0 01-.5-1.333c-.14-.428-.249-.787-.325-1.076l.345.055c-.235.336-.48.75-.735 1.243-.246.48-.498 1.01-.756 1.591a37.515 37.515 0 00-.71 1.795 26.038 26.038 0 00-.57 1.829 7.34 7.34 0 01-.394 1.053c-.112.243-.273.388-.484.434zm10.673-2.351c-.36.079-.663.058-.912-.063a1.509 1.509 0 01-.591-.559 2.892 2.892 0 01-.347-.875 5.927 5.927 0 01-.107-.993c.003-.284.014-.626.036-1.024.032-.4.07-.818.116-1.255.046-.436.093-.845.14-1.227.058-.384.106-.684.146-.9.056-.395.114-.703.175-.924.072-.223.187-.352.345-.387a.61.61 0 01.412.058.83.83 0 01.335.303c.096.133.148.29.156.474a4.97 4.97 0 01-.06.768c-.046.337-.1.715-.16 1.133-.062.418-.116.84-.165 1.265a8 8 0 00-.065 1.113 6 6 0 00.056.84c.035.255.092.46.172.618.078.147.185.205.322.175.338-.074.7-.464 1.084-1.171.394-.71.797-1.655 1.207-2.837.193-.523.355-1.007.488-1.451.133-.445.251-.831.354-1.16.102-.339.212-.609.334-.81.12-.202.26-.32.419-.354.243-.053.438.002.586.167.156.151.263.38.32.684.061.27.126.606.194 1.006l.242 1.226c.08.408.166.788.257 1.14.167.597.337 1.08.508 1.446.18.354.332.638.457.85.126.214.2.394.222.543a.775.775 0 01-.037.352.857.857 0 01-.185.286.575.575 0 01-.296.163c-.243.053-.468-.012-.676-.196-.197-.186-.382-.468-.556-.846a13.19 13.19 0 01-.519-1.345c-.105-.37-.217-.767-.334-1.189a26.615 26.615 0 01-.288-1.281c-.075-.432-.143-.832-.204-1.201l.495.055c-.073.268-.153.553-.24.856a18.4 18.4 0 01-.3 1.033 37.06 37.06 0 01-.446 1.343 16.407 16.407 0 01-.81 1.866c-.31.592-.657 1.1-1.038 1.522-.374.41-.788.664-1.242.763zm11.953-12.466c-.443.097-.84.085-1.188-.035a1.992 1.992 0 01-.843-.57c-.214-.259-.345-.52-.393-.782-.042-.286-.012-.522.09-.709a.66.66 0 01.455-.345c.158-.034.295.029.408.19.122.148.254.315.396.503a1.8 1.8 0 00.45.443c.18.113.418.138.714.073.2-.044.394-.146.58-.307a4.96 4.96 0 00.482-.516c.19-.238.361-.44.513-.603a.909.909 0 01.493-.321.331.331 0 01.317.078c.092.067.133.173.121.317-.01.2-.08.433-.208.702a3.23 3.23 0 01-.525.77c-.23.258-.505.488-.826.689-.31.199-.655.34-1.036.423zM48.73 21.228c-.359.079-.663.058-.912-.063a1.51 1.51 0 01-.591-.559 2.892 2.892 0 01-.347-.875 5.927 5.927 0 01-.107-.993c.003-.284.015-.626.036-1.024a62.63 62.63 0 01.257-2.482c.057-.384.106-.684.146-.9a7.6 7.6 0 01.174-.924c.072-.223.187-.352.346-.387a.61.61 0 01.412.058.83.83 0 01.334.304c.096.132.148.29.157.474.005.173-.015.429-.06.767-.047.337-.1.715-.161 1.133-.061.418-.116.84-.165 1.265a8 8 0 00-.009 1.953 2 2 0 00.172.618c.078.147.185.205.322.175.339-.074.7-.464 1.084-1.171.395-.71.797-1.655 1.207-2.838.193-.522.355-1.006.488-1.45.133-.445.251-.831.355-1.16.1-.339.212-.609.333-.81.12-.202.26-.32.419-.354.243-.053.438.002.586.167.156.151.263.38.32.684.061.27.126.606.194 1.006l.242 1.226c.081.408.167.789.257 1.14.167.598.337 1.08.508 1.446.18.355.332.638.458.851.125.213.2.393.221.542a.775.775 0 01-.037.352.855.855 0 01-.185.286.575.575 0 01-.296.163c-.37.081-.687-.1-.954-.545-.266-.444-.532-1.058-.797-1.842-.105-.37-.217-.766-.334-1.189a26.497 26.497 0 01-.288-1.28c-.075-.433-.143-.833-.204-1.202l.495.056c-.098.403-.219.85-.363 1.341a40.7 40.7 0 01-.623 1.89 16.415 16.415 0 01-.81 1.866c-.31.592-.656 1.1-1.038 1.522-.373.41-.787.664-1.242.763zm11.638-2.578c-.782.17-1.46.16-2.035-.03a2.592 2.592 0 01-1.334-1.053c-.315-.51-.479-1.14-.493-1.892a5.212 5.212 0 01.298-1.852 5.616 5.616 0 01.927-1.645c.408-.504.877-.93 1.41-1.275a5.141 5.141 0 011.716-.72c.275-.06.527-.072.758-.034a.855.855 0 01.536.243c.139.123.206.299.203.53a.921.921 0 01-.133.52.607.607 0 01-.376.246.502.502 0 01-.284-.003 3.583 3.583 0 00-.234-.08c-.073-.028-.188-.025-.347.01a3.423 3.423 0 00-1.594.824c-.462.407-.825.89-1.087 1.45a3.84 3.84 0 00-.372 1.672c.025.454.12.832.288 1.134.176.289.422.492.736.61.325.114.694.126 1.106.036.465-.102.823-.235 1.074-.399a2.5 2.5 0 00.566-.517c.138-.172.249-.322.33-.45a.49.49 0 01.327-.251c.2-.044.348-.027.443.05.106.076.164.232.173.47.003.36-.107.707-.332 1.04-.226.323-.54.605-.94.845a4.25 4.25 0 01-1.33.52zm10.752-2.32c-.317.07-.687.053-1.11-.052a5.957 5.957 0 01-1.3-.535 10.616 10.616 0 01-1.231-.812 6.177 6.177 0 01-.933-.894 1.565 1.565 0 01-.308-.409 1.957 1.957 0 01-.11-.418 3.05 3.05 0 01.063-.309c.03-.115.077-.224.142-.326.09-.194.256-.466.5-.814.242-.348.528-.728.857-1.138.337-.424.69-.823 1.06-1.2.379-.388.742-.719 1.09-.992.36-.275.682-.444.968-.506a.425.425 0 01.287.019.445.445 0 01.204.168c.05.077.08.158.088.243.04.232-.063.484-.312.757a8.62 8.62 0 01-.821.786c-.527.465-.987.91-1.38 1.334-.391.425-.702.793-.931 1.106-.218.31-.321.518-.308.624-.003.088.057.206.179.355.122.148.298.312.526.49.24.178.517.352.833.524.326.169.682.32 1.067.455.229.08.451.158.667.23.224.061.407.136.55.225.15.076.235.183.255.321a.633.633 0 01-.26.614.793.793 0 01-.332.155zm-5.281 1.14c-.275.06-.49-.035-.647-.285-.158-.26-.274-.656-.35-1.186a21.313 21.313 0 01-.13-1.987c-.008-.327-.008-.67 0-1.033l.053-1.094c.015-.374.017-.736.006-1.083.002-.088 0-.174-.01-.26 0-.098-.004-.196-.015-.292a1.885 1.885 0 01.059-.553.988.988 0 01.183-.368.52.52 0 01.289-.195c.243-.053.457.015.644.204.195.176.293.466.295.87.006.271-.006.613-.035 1.024-.022.398-.046.807-.073 1.228-.027.421-.038.79-.034 1.106.027.562.062 1.063.105 1.501.054.437.108.796.16 1.08.05.273.072.465.063.576a.726.726 0 01-.068.36.604.604 0 01-.196.24.605.605 0 01-.3.146zm9.279-2.014c-.359.079-.663.058-.912-.063a1.51 1.51 0 01-.591-.559 2.892 2.892 0 01-.346-.875 5.926 5.926 0 01-.108-.992c.003-.285.015-.627.036-1.025a61.901 61.901 0 01.257-2.482c.057-.384.106-.684.146-.9a7.6 7.6 0 01.174-.924c.072-.223.187-.352.346-.387a.61.61 0 01.412.058.83.83 0 01.334.304.85.85 0 01.157.474c.005.173-.015.429-.06.767-.046.338-.1.715-.161 1.133-.061.418-.116.84-.164 1.265a7.861 7.861 0 00-.066 1.113c0 .295.019.575.056.84a2 2 0 00.172.618c.078.147.185.205.323.175.338-.074.699-.464 1.083-1.17.395-.71.797-1.656 1.207-2.838.193-.523.356-1.007.488-1.451.133-.445.251-.831.355-1.16.1-.339.212-.609.333-.81.12-.201.26-.32.419-.354.243-.053.438.002.586.167.156.151.263.38.32.684.061.27.126.606.194 1.006l.242 1.226c.081.408.167.789.257 1.14.168.598.337 1.08.508 1.446.18.354.332.638.458.851.125.213.2.393.221.542a.772.772 0 01-.037.352.855.855 0 01-.185.286.574.574 0 01-.296.163c-.37.081-.687-.1-.954-.545-.266-.444-.532-1.058-.797-1.842-.105-.37-.217-.766-.334-1.189a26.494 26.494 0 01-.288-1.28c-.075-.433-.143-.833-.204-1.202l.495.056c-.098.403-.219.85-.363 1.341a40.7 40.7 0 01-.623 1.89 16.417 16.417 0 01-.81 1.866c-.31.592-.656 1.1-1.038 1.522-.373.41-.787.664-1.242.763zM87.072 2.99c-.444.097-.84.086-1.189-.035-.35-.13-.632-.32-.843-.57-.213-.259-.344-.52-.392-.782-.042-.286-.012-.522.09-.708a.66.66 0 01.454-.346c.159-.034.295.029.409.19.122.148.254.316.396.503.129.18.278.327.448.443.181.113.42.138.715.073.138-.03.27-.086.395-.168.134-.095.255-.198.363-.31.116-.123.217-.238.304-.344.19-.239.362-.44.513-.604a.908.908 0 01.493-.321.331.331 0 01.317.078c.093.067.133.173.121.318-.01.199-.08.432-.208.7-.12.256-.294.513-.525.771a3.82 3.82 0 01-.826.69c-.31.198-.655.34-1.035.422zm-1.754 10.235c-.36.079-.663.058-.912-.063a1.509 1.509 0 01-.592-.559 2.892 2.892 0 01-.346-.875 5.927 5.927 0 01-.107-.992c.002-.285.014-.626.035-1.024.032-.4.071-.82.117-1.255.046-.437.093-.846.14-1.227.057-.385.106-.685.146-.901.055-.395.114-.703.175-.924.071-.223.186-.352.345-.387a.61.61 0 01.412.058.83.83 0 01.334.304c.097.132.149.29.157.474a4.97 4.97 0 01-.06.767c-.046.338-.1.715-.16 1.133-.062.418-.117.84-.165 1.265-.05.416-.073.787-.066 1.113a6 6 0 00.056.84c.035.255.093.46.173.618.077.147.184.206.322.175.338-.074.699-.464 1.083-1.17.395-.71.797-1.656 1.207-2.838.193-.523.356-1.007.489-1.451a68.9 68.9 0 01.354-1.16c.101-.339.212-.609.333-.81.121-.201.26-.32.42-.354.242-.053.438.002.585.167.157.151.263.38.32.684.062.27.126.606.194 1.007l.243 1.225c.08.409.166.789.256 1.14.168.598.337 1.08.509 1.446.179.355.332.638.457.851.126.213.2.394.222.542a.774.774 0 01-.037.352.857.857 0 01-.185.286.574.574 0 01-.296.163c-.37.081-.688-.1-.954-.545-.267-.444-.532-1.058-.797-1.842-.106-.37-.217-.766-.334-1.189a26.611 26.611 0 01-.289-1.28c-.075-.432-.143-.833-.204-1.202l.495.056c-.097.404-.218.85-.363 1.341-.145.49-.352 1.12-.622 1.89a16.408 16.408 0 01-.81 1.866 7.344 7.344 0 01-1.039 1.522c-.373.41-.787.664-1.241.763zM4.85 45.397a.674.674 0 01-.661-.2c-.187-.189-.34-.473-.458-.851-.11-.391-.172-.864-.186-1.418.003-.58.052-1.028.147-1.343.103-.33.249-.569.437-.719.102-.088.258-.16.467-.217a6.94 6.94 0 01.658-.177 24.08 24.08 0 002.258-.608c.742-.25 1.451-.569 2.129-.958l.528 1.016a9.375 9.375 0 01-1.67.857c-.61.243-1.238.457-1.884.641-.638.173-1.263.326-1.875.46l-.951.06c-.001-.644-.004-1.321-.008-2.03-.005-.71-.014-1.341-.028-1.896-.014-.259.025-.48.117-.665.091-.183.216-.293.375-.327.264-.058.483.003.656.184.172.17.26.484.262.942.01.239.009.528-.003.87-.012.341-.026.7-.041 1.074-.005.373-.013.73-.025 1.071a27.268 27.268 0 00.081 2.507c.053.48.085.844.097 1.093a.663.663 0 01-.125.404.445.445 0 01-.298.23zm5.467-1.197c-.264.058-.489-.051-.673-.328-.173-.279-.313-.68-.42-1.203a11.567 11.567 0 01-.172-1.798 46 46 0 01.02-2.496c.036-.63.084-1.133.144-1.506.032-.248.092-.474.18-.679.086-.205.22-.327.4-.366.232-.051.42.023.564.22.153.186.231.436.236.752.01.391-.014.823-.074 1.295-.05.47-.065.97-.045 1.501.014.653.052 1.24.114 1.762.07.51.139.937.205 1.283.067.346.098.607.093.783a.74.74 0 01-.151.508.712.712 0 01-.421.273zm4.796-1.065c-.486.106-.908.078-1.266-.084-.347-.164-.625-.437-.832-.818-.197-.383-.303-.851-.317-1.405a5.757 5.757 0 01.186-1.615c.15-.568.364-1.117.643-1.648a7.641 7.641 0 01.981-1.477c.386-.456.81-.838 1.272-1.147a4.405 4.405 0 011.486-.637c.243-.053.448-.032.613.063.166.095.25.273.253.535a.6.6 0 01-.1.366c-.076.104-.202.186-.377.246a5.055 5.055 0 00-1.884 1.232 6.084 6.084 0 00-1.228 1.859 5.063 5.063 0 00-.41 2.023c.005.316.035.6.092.85.053.239.177.54.37.902l-.846-.946c.244.198.448.317.613.357.175.039.405.027.69-.036.676-.148 1.267-.725 1.772-1.732.505-1.006.87-2.392 1.093-4.156.03-.214.096-.387.2-.52a.733.733 0 01.436-.275.63.63 0 01.625.191c.182.168.298.41.347.727.105.666.218 1.264.337 1.795.128.519.296.996.505 1.43.22.433.527.863.922 1.29.087.09.14.205.16.342a.774.774 0 01-.023.415.87.87 0 01-.199.372.664.664 0 01-.355.192.702.702 0 01-.402-.01.838.838 0 01-.282-.217 7.351 7.351 0 01-.59-.773 6.248 6.248 0 01-.517-.968 8.12 8.12 0 01-.392-1.374 18.077 18.077 0 01-.267-1.925l.567-.14c-.114 1.118-.301 2.082-.562 2.893-.264.8-.578 1.47-.945 2.01-.358.526-.742.938-1.152 1.235-.41.298-.815.49-1.217.578zm19.651-4.298c-.254.055-.459-.042-.615-.292-.156-.25-.28-.583-.374-1a7.97 7.97 0 01-.157-1.064 46.867 46.867 0 01-.093-1.225c-.025-.41-.05-.792-.075-1.148-.014-.357-.03-.654-.05-.89a8.486 8.486 0 00-.09-.767 6.644 6.644 0 00-.116-.663l.393.34-1.142.25c-.338.074-.74.178-1.21.313-.46.123-.912.255-1.357.396a8.49 8.49 0 00-1.102.421l.551-1.022a9.29 9.29 0 01.286 1.79 33.8 33.8 0 01.096 1.978c.005.316.013.67.023 1.06.01.392.012.769.005 1.13a9.166 9.166 0 01-.051.88c-.026.181-.09.343-.19.485a.713.713 0 01-.425.257.493.493 0 01-.527-.197c-.14-.177-.213-.428-.22-.755-.009-.238-.01-.511-.001-.819a21.56 21.56 0 00-.005-.982c-.01-.337-.017-.642-.022-.913a10.54 10.54 0 00-.08-1.392c-.045-.395-.09-.74-.134-1.037a10.32 10.32 0 01-.063-.871 1.19 1.19 0 01.165-.594c.11-.155.28-.285.511-.39a9.689 9.689 0 011.217-.43 23.46 23.46 0 011.472-.404 75.597 75.597 0 011.47-.338c.613-.134 1.084-.111 1.413.068.328.18.497.585.506 1.217.005.218.018.52.039.91.02.388.04.821.06 1.298.028.474.07.952.122 1.432.05.47.114.904.193 1.302.027.169.066.34.116.515s.08.327.086.457a.716.716 0 01-.17.43.762.762 0 01-.455.264zm4.462-.96c-.359.079-.663.058-.912-.063a1.51 1.51 0 01-.591-.559 2.892 2.892 0 01-.347-.875 5.928 5.928 0 01-.107-.993c.003-.284.015-.626.036-1.024a62.63 62.63 0 01.257-2.482c.057-.384.106-.684.146-.9a7.64 7.64 0 01.174-.924c.072-.223.187-.352.346-.387a.61.61 0 01.412.058.83.83 0 01.334.304c.096.131.148.29.157.474a4.97 4.97 0 01-.06.767c-.046.337-.1.715-.161 1.133-.061.418-.116.84-.164 1.265a7.861 7.861 0 00-.066 1.113c0 .295.019.575.056.84a2 2 0 00.172.618c.078.147.185.205.322.175.339-.074.7-.464 1.084-1.171.394-.71.797-1.655 1.207-2.838.193-.522.355-1.006.488-1.45.133-.445.251-.831.355-1.16.1-.339.212-.609.333-.81.12-.201.26-.32.419-.354.243-.053.438.002.586.167.156.151.263.38.32.684.061.27.126.606.194 1.006l.242 1.226c.081.408.167.788.257 1.14.167.598.337 1.08.508 1.446.18.355.332.638.458.851.125.213.2.393.221.542a.774.774 0 01-.037.352.856.856 0 01-.185.286.574.574 0 01-.296.163c-.243.053-.468-.012-.676-.196-.197-.186-.382-.468-.556-.846a13.167 13.167 0 01-.519-1.345c-.105-.37-.217-.767-.334-1.189a26.615 26.615 0 01-.288-1.28c-.075-.433-.143-.833-.204-1.202l.495.056a70.03 70.03 0 01-.24.855 17.59 17.59 0 01-.3 1.033 37.58 37.58 0 01-.446 1.343 16.415 16.415 0 01-.81 1.866c-.31.592-.656 1.1-1.038 1.522-.373.41-.787.664-1.242.763zm14.651-3.205c-.317.07-.687.052-1.11-.052a5.952 5.952 0 01-1.3-.535 10.616 10.616 0 01-1.23-.813 6.177 6.177 0 01-.934-.894 1.568 1.568 0 01-.307-.408 1.964 1.964 0 01-.111-.418c.013-.09.034-.193.063-.31.03-.115.077-.224.143-.325.09-.195.255-.466.499-.814.243-.349.529-.728.857-1.139.338-.423.691-.823 1.061-1.199.378-.388.741-.72 1.09-.992.36-.275.682-.444.967-.507a.425.425 0 01.287.02.445.445 0 01.204.168c.05.076.08.157.088.243.041.231-.063.484-.312.757a8.62 8.62 0 01-.82.786c-.528.465-.987.91-1.38 1.334-.392.424-.703.793-.932 1.105-.218.31-.32.519-.308.625.002.109.112.276.33.502.214.215.521.448.922.7.397.24.849.448 1.353.621.23.081.452.158.668.231.224.06.407.135.549.225.15.076.235.183.255.32a.633.633 0 01-.26.614.792.792 0 01-.332.155zm-5.28 1.14c-.276.06-.49-.036-.647-.286-.158-.26-.275-.655-.35-1.185a21.313 21.313 0 01-.131-1.988c-.007-.326-.007-.67 0-1.033l.053-1.093c.016-.375.018-.736.006-1.083.003-.088 0-.175-.009-.26 0-.099-.005-.196-.015-.292a1.884 1.884 0 01.058-.554.987.987 0 01.183-.367.52.52 0 01.29-.195c.242-.053.457.015.643.203.195.176.294.466.296.87.006.272-.006.613-.036 1.024-.021.398-.045.808-.072 1.229-.027.421-.039.79-.034 1.106.027.562.062 1.063.105 1.501.054.436.107.796.16 1.08.05.273.071.465.063.576a.726.726 0 01-.069.36.603.603 0 01-.196.239.606.606 0 01-.299.147zm8.688-1.885a.674.674 0 01-.66-.2c-.187-.188-.34-.472-.458-.85-.11-.392-.172-.864-.186-1.419.002-.58.051-1.027.147-1.343.103-.328.249-.568.437-.718.102-.088.257-.16.466-.217.207-.067.426-.126.659-.177a24.091 24.091 0 002.257-.609c.742-.25 1.452-.568 2.13-.957l.527 1.015a9.378 9.378 0 01-1.67.857c-.61.243-1.238.457-1.883.642a39.92 39.92 0 01-1.876.46l-.95.06c-.002-.645-.004-1.322-.009-2.03a97.706 97.706 0 00-.027-1.896 1.32 1.32 0 01.116-.665c.092-.184.217-.293.376-.328.264-.058.483.004.656.184.171.17.259.485.262.943.01.238.008.528-.004.87-.011.34-.025.699-.04 1.074-.005.372-.014.73-.026 1.07-.003.33-.003.602.002.82.009.632.036 1.194.08 1.687.053.48.085.845.097 1.094a.663.663 0 01-.126.404.445.445 0 01-.297.229zm5.468-1.196c-.265.058-.489-.052-.673-.328-.174-.28-.314-.68-.42-1.203a11.57 11.57 0 01-.172-1.798 46.027 46.027 0 01.02-2.496c.035-.63.083-1.133.143-1.507a2.61 2.61 0 01.18-.678c.087-.205.22-.327.4-.367.232-.05.42.023.565.221.153.185.231.436.236.752.01.39-.015.822-.075 1.294-.05.47-.064.97-.044 1.502.014.652.051 1.24.113 1.762.07.509.14.936.206 1.282.067.346.098.607.093.783a.74.74 0 01-.152.509.712.712 0 01-.42.272zm4.641-1.015c-.359.078-.663.057-.912-.063a1.509 1.509 0 01-.591-.56 2.89 2.89 0 01-.347-.874 5.927 5.927 0 01-.107-.993c.003-.284.015-.626.036-1.024a55.795 55.795 0 01.257-2.482c.057-.384.106-.684.146-.9a7.6 7.6 0 01.174-.924c.072-.223.187-.352.346-.387a.61.61 0 01.412.058.83.83 0 01.334.303.85.85 0 01.156.474 4.97 4.97 0 01-.06.767c-.046.338-.1.716-.16 1.134-.062.417-.116.84-.165 1.265-.05.415-.072.786-.065 1.113 0 .295.018.575.056.84.035.254.092.46.172.618.078.147.185.205.322.175.339-.074.7-.464 1.084-1.171.394-.71.797-1.655 1.207-2.838.193-.523.355-1.006.488-1.45.133-.445.251-.831.354-1.16.102-.339.213-.61.334-.81.12-.202.26-.32.419-.354.243-.054.438.002.586.166.156.152.263.38.32.684.061.271.126.607.194 1.007l.242 1.226c.081.408.166.788.257 1.14a9.71 9.71 0 00.508 1.446c.18.354.332.638.458.85.125.214.199.394.221.542a.774.774 0 01-.037.353.857.857 0 01-.185.286.574.574 0 01-.296.163c-.243.053-.468-.012-.676-.196-.197-.187-.382-.468-.556-.846a13.158 13.158 0 01-.519-1.345c-.105-.37-.217-.767-.334-1.19a26.497 26.497 0 01-.288-1.28c-.075-.432-.143-.832-.204-1.201l.495.055c-.073.268-.153.553-.24.856-.077.3-.176.645-.3 1.033-.115.374-.264.822-.446 1.343a16.407 16.407 0 01-.81 1.865c-.31.593-.656 1.1-1.038 1.522-.373.41-.787.664-1.242.764zm14.651-3.205c-.317.07-.687.052-1.11-.052a5.952 5.952 0 01-1.3-.535 10.602 10.602 0 01-1.23-.813 6.182 6.182 0 01-.934-.894 1.567 1.567 0 01-.308-.408 1.957 1.957 0 01-.11-.418 2.99 2.99 0 01.063-.31c.03-.115.077-.224.143-.326a5.9 5.9 0 01.498-.813c.244-.349.53-.728.858-1.139.338-.423.691-.823 1.06-1.199.379-.389.742-.72 1.091-.992.36-.276.682-.445.967-.507a.425.425 0 01.287.02.445.445 0 01.204.168c.05.076.08.157.088.243.041.231-.063.483-.312.756a8.597 8.597 0 01-.82.786c-.528.465-.988.91-1.38 1.335-.392.424-.703.793-.932 1.105-.218.31-.32.518-.308.625.002.109.112.276.33.502.214.215.521.448.921.7.398.24.85.447 1.354.621.23.081.451.158.667.231.225.06.408.135.55.224.15.077.235.184.255.321a.633.633 0 01-.26.614.792.792 0 01-.332.155zm-5.28 1.139c-.276.06-.491-.035-.647-.285-.158-.26-.275-.656-.35-1.186a21.31 21.31 0 01-.131-1.987c-.007-.326-.007-.67 0-1.033l.053-1.093c.016-.375.018-.736.006-1.083a2.12 2.12 0 00-.009-.26 2.68 2.68 0 00-.015-.292 1.885 1.885 0 01.058-.554.989.989 0 01.183-.368.52.52 0 01.289-.194.66.66 0 01.644.203c.195.176.294.466.296.87.006.272-.006.613-.036 1.024-.021.398-.045.808-.072 1.229-.028.42-.039.79-.034 1.105.026.563.061 1.063.105 1.502.054.436.107.796.16 1.08.05.273.071.465.063.576a.725.725 0 01-.069.359.602.602 0 01-.195.24.606.606 0 01-.3.147zm10.845-2.372c-.877.192-1.594.184-2.15-.022a2.293 2.293 0 01-1.243-1.088c-.272-.52-.417-1.139-.434-1.856 0-.536.087-1.09.257-1.663a6.6 6.6 0 01.774-1.66c.348-.525.763-.97 1.245-1.338a4.06 4.06 0 011.64-.769c.56-.122 1.04-.134 1.438-.036.41.096.722.301.937.615.225.311.344.739.355 1.283a2.672 2.672 0 01-.45 1.622c-.325.476-.77.885-1.336 1.227a6.04 6.04 0 01-1.88.739c-.718.157-1.217.179-1.498.065-.27-.115-.407-.282-.412-.5-.007-.13.02-.228.083-.296.06-.08.17-.136.328-.17.116-.026.258-.035.426-.028.176-.006.428-.044.755-.116a4.44 4.44 0 001.377-.53c.4-.241.71-.517.929-.827a1.76 1.76 0 00.322-1.005c-.007-.326-.102-.551-.285-.675-.172-.126-.465-.144-.877-.054s-.787.27-1.125.541c-.33.258-.624.58-.88.963a4.67 4.67 0 00-.566 1.255c-.13.455-.188.915-.172 1.382.01.39.083.736.216 1.034a1.3 1.3 0 00.645.646c.306.13.702.141 1.188.035.55-.12 1.005-.29 1.365-.511a4.63 4.63 0 00.902-.722c.232-.248.428-.46.588-.637.16-.177.314-.282.462-.314.18-.04.321 0 .426.12.112.106.17.268.175.486.005.217-.088.467-.28.75-.183.27-.443.544-.778.825-.326.28-.701.53-1.127.755-.418.212-.865.37-1.34.474z"/></g></svg>