<svg width="173" height="112" fill="none" xmlns="http://www.w3.org/2000/svg"><path d="M66.336 53.164a.762.762 0 101.517.151l-1.517-.15zM172.99 2.117a.762.762 0 00-.638-.87L165.571.2a.762.762 0 10-.232 1.507l6.028.93-.931 6.027a.762.762 0 101.508.233l1.047-6.78zM66.431 53.743a.762.762 0 001.517.15l-1.517-.15zm1.422-.428c1.02-10.235 4.618-25 12.056-36.152 3.714-5.569 8.362-10.2 14.088-12.942 5.713-2.734 12.556-3.613 20.729-1.589l.367-1.48C106.603-.95 99.394-.052 93.339 2.846c-6.043 2.892-10.881 7.748-14.698 13.471-7.625 11.432-11.272 26.467-12.305 36.847l1.517.151zm46.873-50.683l.42.106.381-1.476-.434-.11-.367 1.48zm.42.106c16.889 4.365 29.959 5.283 39.454 4.642 9.464-.638 15.446-2.83 18.088-4.765l-.902-1.23c-2.306 1.689-7.951 3.844-17.289 4.474-9.307.628-22.213-.266-38.97-4.597l-.381 1.476zM67.948 53.894c1.02-10.237 4.596-25.148 12.012-36.445 3.704-5.64 8.34-10.344 14.058-13.138 5.703-2.786 12.538-3.701 20.708-1.679l.367-1.48C106.601-.95 99.396-.013 93.348 2.942c-6.033 2.948-10.858 7.876-14.663 13.67-7.599 11.576-11.22 26.753-12.254 37.13l1.517.152zm47.198-51.156c16.876 4.362 29.689 5.597 38.928 5.276 9.205-.32 14.954-2.188 17.612-4.134l-.901-1.23c-2.289 1.676-7.667 3.524-16.764 3.84-9.062.315-21.725-.894-38.494-5.228l-.381 1.476zM10.265 94.453c-.258.057-.47-.007-.634-.192-.166-.197-.354-.543-.562-1.038a14.188 14.188 0 01-.541-1.523 35.737 35.737 0 01-.49-1.958 34.792 34.792 0 01-.353-2.008c-.1-.777-.19-1.44-.275-1.987-.073-.55-.156-.981-.25-1.293-.085-.325-.19-.554-.318-.685-.128-.132-.298-.175-.509-.128-.316.07-.665.412-1.046 1.026-.372.6-.743 1.42-1.115 2.462-.372 1.042-.71 2.268-1.012 3.676a41.044 41.044 0 00-.714 4.607 1.46 1.46 0 01-.195.615.674.674 0 01-.419.278c-.27.06-.483.015-.64-.135-.158-.162-.243-.488-.253-.978-.01-.711.04-1.43.15-2.155.118-.74.26-1.486.426-2.236.164-.762.31-1.52.437-2.275.14-.757.227-1.502.261-2.236 0-.221.04-.402.12-.543a.564.564 0 01.379-.287.746.746 0 01.471.043.96.96 0 01.432.365l-.626.342c.495-1.266.988-2.23 1.481-2.894.505-.665 1.068-1.067 1.69-1.205.68-.151 1.205-.058 1.575.278.37.336.658.912.864 1.728.206.816.395 1.893.57 3.233.122.994.278 1.839.47 2.535.191.696.37 1.283.539 1.763l.449 1.192c.12.318.183.606.191.862a.733.733 0 01-.149.495.648.648 0 01-.404.256zM.772 92.94c-.258.057-.453.039-.585-.055-.131-.094-.193-.234-.185-.42a.613.613 0 01.111-.413c.094-.131.255-.265.483-.402 1.254-.783 2.696-1.472 4.324-2.067a42.375 42.375 0 015.328-1.532c.41-.091.687-.091.83 0 .155.089.234.25.237.483.005.245-.103.478-.325.7-.224.21-.548.36-.97.454-1.349.3-2.484.595-3.404.885-.911.276-1.67.543-2.278.8a18.75 18.75 0 00-1.544.694c-.408.213-.768.398-1.078.553-.301.14-.616.247-.944.32zm13.893.572a.742.742 0 01-.733-.225c-.207-.212-.377-.531-.508-.957-.123-.44-.191-.973-.207-1.597.003-.431.026-.8.069-1.105.055-.307.129-.557.221-.75.102-.207.221-.363.358-.467.114-.099.286-.18.518-.244.23-.076.473-.142.731-.2.857-.19 1.692-.418 2.507-.684a13.133 13.133 0 002.364-1.079l.586 1.144c-.558.37-1.176.691-1.854.965a21.93 21.93 0 01-2.092.722c-.707.194-1.402.367-2.082.518l-1.056.068c.002-.493 0-.997-.003-1.513a83.236 83.236 0 00-.025-1.526 111.44 111.44 0 00-.011-1.382 1.498 1.498 0 01.13-.749c.1-.207.24-.33.416-.37.293-.064.536.005.729.208.19.192.287.546.29 1.062.011.268.01.594-.004.979-.013.384-.028.787-.045 1.21-.005.42-.015.821-.028 1.206-.004.37-.003.677.002.922.01.712.04 1.345.09 1.9.058.54.093.951.106 1.231a.754.754 0 01-.139.456.495.495 0 01-.33.257zm6.07-1.346c-.293.065-.542-.058-.746-.37-.193-.314-.349-.765-.467-1.354a13.204 13.204 0 01-.19-2.025 52.375 52.375 0 01.022-2.81c.04-.711.092-1.276.159-1.697.036-.28.103-.534.2-.764.096-.231.244-.369.443-.413.259-.057.468.026.628.249.17.208.257.49.262.846.011.44-.016.927-.083 1.458a12.091 12.091 0 00-.05 1.69c.016.736.058 1.397.127 1.984.078.574.154 1.055.228 1.445.074.39.108.683.103.881a.842.842 0 01-.636.88zm4.456-1.007c-.282.062-.521-.02-.72-.247-.186-.229-.312-.576-.378-1.041a8.54 8.54 0 01-.078-.85c-.02-.365-.037-.774-.05-1.226l-.05-1.392a58.066 58.066 0 00-.028-1.286 156.53 156.53 0 00-.005-.94c-.018-.636.041-1.117.178-1.442.146-.34.412-.584.798-.73.362-.143.752-.272 1.17-.39a15.561 15.561 0 012.731-.587c.5-.074.884-.091 1.151-.052a.571.571 0 01.358.197.526.526 0 01.13.34c.006.245-.103.448-.326.608-.223.16-.475.272-.757.334a5.876 5.876 0 01-.676.113c-.205.02-.426.052-.663.092-.24.028-.553.086-.94.171-.47.105-.863.217-1.181.336-.318.12-.672.272-1.062.457l.737-.754a30.543 30.543 0 00-.11 1.667 49.96 49.96 0 00.011 2.213c.01.6.037 1.167.081 1.698.042.52.084.96.127 1.32.043.36.064.594.064.705.007.195-.04.347-.139.456a.645.645 0 01-.373.23zm5.74-1.236a.503.503 0 01-.423-.073.75.75 0 01-.244-.352 1.186 1.186 0 01-.1-.531c0-.222.05-.528.147-.919.107-.405.252-.862.435-1.37.18-.52.372-1.042.575-1.567.222-.554.45-1.103.687-1.647.245-.56.484-1.062.718-1.507.23-.457.427-.82.589-1.09.255-.402.513-.711.772-.929a1.97 1.97 0 01.86-.449c.282-.062.498-.006.648.17.147.165.282.387.406.667.126.292.259.638.397 1.038s.284.81.439 1.231c.152.41.314.804.484 1.185.204.472.385.874.545 1.208.172.33.327.61.463.838.149.226.284.418.405.575.116.134.21.255.283.362a.807.807 0 01.135.358c.022.155.008.312-.043.47a.842.842 0 01-.247.388.705.705 0 01-.377.212c-.223.05-.446-.011-.669-.183-.213-.187-.426-.453-.639-.8a13.844 13.844 0 01-.62-1.136c-.12-.256-.275-.597-.468-1.022a65.8 65.8 0 01-.574-1.423 49.475 49.475 0 01-.555-1.501 22.154 22.154 0 01-.36-1.212l.382.062c-.26.378-.532.844-.815 1.4a35.09 35.09 0 00-.84 1.791 42.744 42.744 0 00-.788 2.021c-.24.693-.451 1.38-.633 2.06-.156.515-.302.91-.438 1.186-.124.274-.303.437-.538.489zm11.85-2.648c-.399.089-.736.065-1.012-.07a1.685 1.685 0 01-.657-.63 3.285 3.285 0 01-.385-.985 6.76 6.76 0 01-.119-1.118c.003-.32.016-.705.04-1.153a72.719 72.719 0 01.284-2.795c.064-.433.119-.77.163-1.014a8.56 8.56 0 01.194-1.04c.08-.252.207-.397.383-.436a.668.668 0 01.458.065c.152.077.276.19.37.342a.964.964 0 01.175.534c.006.195-.016.483-.067.863-.051.38-.11.806-.178 1.277-.068.47-.13.945-.183 1.424-.056.468-.08.886-.072 1.253 0 .332.02.648.062.946.039.287.102.519.191.696.086.165.205.231.358.198.375-.084.776-.523 1.203-1.32.438-.798.885-1.863 1.34-3.194.214-.59.395-1.134.542-1.634.148-.5.279-.936.393-1.306.113-.381.236-.686.37-.912.135-.227.29-.36.466-.399.27-.06.486.003.65.188.174.17.292.427.356.77.068.305.14.683.215 1.134l.27 1.38c.089.46.184.888.284 1.284.186.672.374 1.215.565 1.628.199.399.368.718.507.958.14.24.222.443.246.61a.883.883 0 01-.04.397.965.965 0 01-.206.322.635.635 0 01-.329.184c-.27.06-.52-.014-.75-.222-.22-.21-.425-.527-.618-.952-.192-.424-.385-.93-.576-1.514-.117-.417-.24-.864-.37-1.34a30.36 30.36 0 01-.32-1.442c-.084-.486-.16-.937-.227-1.352l.55.062c-.082.301-.17.623-.267.964a20.89 20.89 0 01-.333 1.163c-.128.422-.293.926-.495 1.512a18.64 18.64 0 01-.9 2.101 8.243 8.243 0 01-1.152 1.714c-.415.46-.874.747-1.379.86zM56.053 73.24c-.493.11-.933.096-1.32-.04a2.21 2.21 0 01-.936-.64c-.237-.293-.382-.586-.435-.882-.047-.322-.014-.588.1-.798a.735.735 0 01.504-.388c.176-.04.327.032.453.213.136.167.283.356.44.567a2 2 0 00.499.498c.2.128.465.155.793.083.223-.05.438-.165.643-.346.204-.193.383-.386.536-.58.212-.269.401-.495.57-.68.165-.197.348-.318.547-.362a.364.364 0 01.352.088c.103.076.148.195.135.358-.012.224-.09.487-.231.79a3.64 3.64 0 01-.583.867 4.26 4.26 0 01-.917.776 3.461 3.461 0 01-1.15.476zm-1.947 11.525c-.4.089-.737.065-1.013-.07a1.685 1.685 0 01-.657-.63 3.285 3.285 0 01-.385-.985 6.759 6.759 0 01-.119-1.118c.003-.32.017-.705.04-1.153a65.102 65.102 0 01.285-2.795c.064-.433.118-.77.162-1.014a8.76 8.76 0 01.194-1.04c.08-.252.208-.397.383-.436a.668.668 0 01.458.065.926.926 0 01.371.342.964.964 0 01.174.534c.006.195-.016.483-.067.863-.05.38-.11.806-.178 1.277-.068.47-.129.945-.182 1.424a8.874 8.874 0 00-.073 1.253c0 .332.02.648.062.946.039.287.103.519.191.696.086.165.206.231.358.198.375-.084.776-.523 1.203-1.32.438-.798.885-1.863 1.34-3.195a28 28 0 00.542-1.633c.148-.5.279-.936.394-1.306a4.04 4.04 0 01.37-.913c.134-.226.289-.359.465-.398.27-.06.487.003.65.188.174.17.293.427.356.77.068.305.14.683.215 1.134l.27 1.38c.09.46.184.888.284 1.284.186.672.375 1.215.565 1.628.199.399.368.718.508.958.139.24.221.443.246.61a.884.884 0 01-.041.396.966.966 0 01-.206.323.636.636 0 01-.328.183c-.41.092-.764-.113-1.06-.613-.295-.5-.59-1.192-.885-2.074-.117-.417-.24-.864-.37-1.34a30.12 30.12 0 01-.32-1.442c-.084-.486-.16-.937-.227-1.352l.55.062a31.96 31.96 0 01-.404 1.51c-.16.553-.39 1.263-.69 2.13a18.611 18.611 0 01-.9 2.1 8.244 8.244 0 01-1.153 1.714c-.415.46-.874.747-1.379.86zm12.92-2.903c-.867.192-1.62.181-2.26-.034a2.885 2.885 0 01-1.48-1.185c-.35-.575-.532-1.285-.547-2.13a5.943 5.943 0 01.331-2.086 6.35 6.35 0 011.029-1.852 6.73 6.73 0 011.564-1.436 5.644 5.644 0 011.907-.81c.305-.069.585-.082.84-.04.254.03.452.122.597.274.154.138.228.337.224.596.003.233-.046.429-.146.587a.675.675 0 01-.419.277.55.55 0 01-.315-.004 3.937 3.937 0 00-.26-.09c-.08-.031-.209-.028-.385.012a3.782 3.782 0 00-1.77.927 4.939 4.939 0 00-1.206 1.634 4.377 4.377 0 00-.413 1.882c.027.51.134.936.32 1.276.195.326.467.555.817.687.36.129.77.142 1.227.041.517-.114.914-.264 1.193-.45.276-.196.486-.39.628-.581.154-.194.276-.363.368-.506a.547.547 0 01.361-.284c.223-.05.388-.03.493.057.117.085.181.261.191.53a2.05 2.05 0 01-.368 1.17c-.251.364-.6.681-1.044.952a4.72 4.72 0 01-1.476.586zm11.938-2.611c-.352.078-.762.058-1.231-.06a6.558 6.558 0 01-1.445-.602 11.79 11.79 0 01-1.366-.915 6.908 6.908 0 01-1.036-1.007 1.767 1.767 0 01-.342-.46c-.06-.158-.1-.315-.123-.47.015-.102.038-.218.07-.348a1.24 1.24 0 01.16-.368c.098-.218.283-.524.553-.916.27-.392.587-.82.952-1.282a17.08 17.08 0 011.178-1.35c.42-.438.823-.81 1.21-1.118.4-.31.757-.5 1.074-.57a.466.466 0 01.318.022c.096.04.171.103.227.19a.598.598 0 01.098.273c.045.26-.07.545-.347.852a9.8 9.8 0 01-.91.885 21.122 21.122 0 00-1.532 1.503c-.436.478-.78.893-1.035 1.244-.242.35-.357.584-.342.704-.003.099.064.232.199.399.136.166.33.35.584.553.266.2.574.395.925.588.362.19.757.362 1.184.513.255.091.501.178.741.26.25.068.453.152.61.252.167.086.261.207.284.362a.765.765 0 01-.046.38.712.712 0 01-.244.312.873.873 0 01-.368.174zm-5.863 1.282c-.305.068-.544-.04-.718-.32-.175-.294-.305-.74-.388-1.336a24.35 24.35 0 01-.146-2.238 28.905 28.905 0 010-1.163l.06-1.231c.017-.422.019-.829.006-1.22.002-.099 0-.196-.01-.293 0-.11-.006-.22-.017-.328a2.151 2.151 0 01.064-.624c.049-.17.117-.308.204-.414a.577.577 0 01.32-.219c.27-.06.509.017.716.23.216.197.326.524.328.978.007.307-.007.691-.04 1.154-.023.448-.05.91-.08 1.383-.03.475-.043.89-.038 1.245.03.634.069 1.197.117 1.691.06.491.119.897.177 1.216.056.307.08.524.07.649a.828.828 0 01-.076.404c-.05.11-.122.2-.217.27a.67.67 0 01-.332.166zm10.303-2.267c-.399.088-.736.065-1.013-.07a1.687 1.687 0 01-.656-.63 3.283 3.283 0 01-.385-.986 6.77 6.77 0 01-.119-1.118c.003-.32.016-.705.04-1.153a73.643 73.643 0 01.284-2.795c.064-.432.118-.77.163-1.014a8.7 8.7 0 01.194-1.04c.08-.251.207-.396.383-.435a.669.669 0 01.458.064.926.926 0 01.37.342.964.964 0 01.175.534c.006.195-.016.484-.067.864-.051.38-.11.806-.178 1.276-.068.47-.13.945-.183 1.425-.056.468-.08.885-.073 1.253 0 .332.021.647.063.946.039.286.102.518.191.696.086.165.205.23.358.197.375-.083.776-.523 1.203-1.319.438-.799.885-1.864 1.34-3.195.214-.589.395-1.133.542-1.634.147-.5.279-.935.393-1.305a4.08 4.08 0 01.37-.913c.135-.227.29-.36.466-.398.27-.06.487.002.65.187.174.171.292.428.356.77.068.306.14.683.215 1.134l.27 1.38c.089.46.184.888.284 1.284.186.673.374 1.216.564 1.629.2.398.369.718.508.957.14.24.222.444.246.61a.883.883 0 01-.04.397.966.966 0 01-.206.322.636.636 0 01-.329.184c-.41.091-.763-.114-1.059-.614-.296-.5-.59-1.192-.885-2.074-.117-.417-.24-.863-.37-1.339-.12-.478-.226-.959-.32-1.442-.084-.486-.16-.937-.227-1.353l.55.063c-.11.454-.244.958-.404 1.51-.16.553-.391 1.262-.691 2.129a18.611 18.611 0 01-.9 2.1 8.244 8.244 0 01-1.152 1.714c-.415.461-.874.748-1.379.86zm13.272-14.037c-.493.109-.933.096-1.32-.04a2.211 2.211 0 01-.936-.641c-.237-.292-.382-.586-.436-.882-.046-.322-.013-.587.1-.797a.734.734 0 01.505-.389c.176-.039.327.032.454.213.135.167.281.356.44.567a2 2 0 00.498.499c.2.127.465.155.793.082.153-.034.299-.097.438-.19a2.94 2.94 0 00.403-.347c.129-.14.242-.27.338-.389.212-.268.402-.495.57-.68.165-.197.348-.317.547-.361a.365.365 0 01.352.088c.102.075.148.195.135.357-.013.224-.089.488-.23.79a3.63 3.63 0 01-.585.868c-.255.29-.56.549-.916.775a3.47 3.47 0 01-1.15.477zm-1.948 11.525c-.398.088-.736.065-1.012-.071a1.684 1.684 0 01-.657-.63 3.286 3.286 0 01-.385-.985 6.77 6.77 0 01-.119-1.118c.003-.32.016-.705.04-1.153a73.643 73.643 0 01.284-2.795c.064-.432.119-.77.163-1.014.062-.444.126-.79.194-1.04.08-.251.207-.396.383-.436a.669.669 0 01.458.065.927.927 0 01.371.342.965.965 0 01.174.534c.007.195-.016.483-.067.864-.05.38-.11.806-.178 1.276-.068.47-.129.945-.182 1.425a8.86 8.86 0 00-.073 1.252c0 .333.02.648.062.947.039.286.103.518.191.695.086.166.205.232.358.198.375-.083.776-.523 1.203-1.319.438-.799.885-1.864 1.34-3.195a27.72 27.72 0 00.542-1.634c.147-.5.279-.935.394-1.305a4.04 4.04 0 01.37-.913c.133-.227.289-.36.465-.398.27-.06.486.002.65.187.174.171.293.428.356.77.068.305.139.683.215 1.134l.27 1.38c.089.46.184.888.284 1.284.186.673.375 1.215.565 1.628.199.4.368.719.508.958.139.24.221.443.246.61a.887.887 0 01-.041.397.968.968 0 01-.206.322.634.634 0 01-.329.184c-.41.091-.763-.114-1.059-.614-.296-.5-.59-1.192-.884-2.074a198.59 198.59 0 01-.372-1.339 30.89 30.89 0 01-.32-1.442c-.083-.486-.159-.937-.226-1.353l.55.063c-.11.454-.243.958-.404 1.51a47.759 47.759 0 01-.69 2.129 18.695 18.695 0 01-.9 2.1 8.255 8.255 0 01-1.153 1.714c-.415.461-.874.748-1.379.86zM5.384 111.979a.744.744 0 01-.733-.225c-.207-.213-.377-.532-.508-.958-.122-.441-.191-.972-.207-1.597.003-.653.057-1.157.163-1.513.115-.37.277-.639.485-.808.114-.1.286-.181.518-.245a7.69 7.69 0 01.732-.199c.856-.19 1.692-.418 2.506-.685a13.06 13.06 0 002.364-1.078l.586 1.143c-.558.37-1.175.692-1.853.965-.678.274-1.376.514-2.092.723-.708.193-1.402.366-2.083.517l-1.055.068c-.001-.726-.004-1.488-.01-2.287a104.72 104.72 0 00-.03-2.134 1.502 1.502 0 01.13-.749c.101-.207.24-.33.416-.369.293-.065.536.004.73.207.19.192.286.546.29 1.062.01.269.009.595-.004.979-.013.385-.029.788-.046 1.21-.005.42-.014.821-.027 1.206-.005.37-.004.678.001.923.01.711.04 1.344.09 1.899.058.541.094.952.106 1.231a.755.755 0 01-.139.456.494.494 0 01-.33.258zm6.07-1.346c-.293.065-.542-.06-.746-.371-.193-.313-.348-.765-.467-1.354a13.22 13.22 0 01-.19-2.025 52.552 52.552 0 01.022-2.81c.04-.71.092-1.276.159-1.697.037-.279.103-.534.2-.764.096-.23.244-.368.444-.412.258-.058.467.026.627.248.17.209.257.49.262.847.011.44-.016.926-.083 1.457-.055.53-.071 1.093-.05 1.691.016.735.058 1.397.127 1.984.078.573.154 1.054.228 1.445.074.389.109.682.103.881a.838.838 0 01-.168.572.797.797 0 01-.467.308zm5.326-1.201c-.54.12-1.008.088-1.405-.094-.386-.185-.694-.492-.925-.921-.219-.431-.336-.959-.351-1.584-.02-.585.05-1.191.206-1.816.166-.64.404-1.259.714-1.857a8.58 8.58 0 011.09-1.663 6.795 6.795 0 011.412-1.292 4.865 4.865 0 011.65-.716c.27-.06.497-.037.68.07.184.107.278.308.282.602a.684.684 0 01-.112.413c-.085.117-.224.209-.419.277a5.602 5.602 0 00-2.092 1.387 6.85 6.85 0 00-1.363 2.093 5.767 5.767 0 00-.455 2.278c.005.357.04.675.102.956.06.271.196.609.41 1.017l-.938-1.066c.27.223.498.358.68.404.194.043.45.029.766-.041.751-.168 1.407-.817 1.968-1.95.56-1.134.965-2.694 1.214-4.681a1.2 1.2 0 01.22-.584.816.816 0 01.486-.311.696.696 0 01.694.215c.202.189.33.462.384.82.117.749.242 1.422.375 2.02.142.584.329 1.121.56 1.611.244.487.585.972 1.024 1.452a.68.68 0 01.178.386.88.88 0 01-.025.467.98.98 0 01-.221.417.728.728 0 01-.395.218.768.768 0 01-.446-.012.921.921 0 01-.313-.245 8.194 8.194 0 01-.654-.87 6.997 6.997 0 01-.575-1.091 9.21 9.21 0 01-.435-1.545 20.61 20.61 0 01-.297-2.168l.63-.158c-.127 1.259-.335 2.345-.625 3.258-.292.902-.642 1.655-1.049 2.263-.397.593-.824 1.056-1.279 1.391-.455.335-.905.551-1.35.65zm21.818-4.84c-.281.063-.509-.047-.682-.328-.173-.282-.312-.657-.416-1.126a9.103 9.103 0 01-.173-1.199c-.04-.458-.075-.918-.104-1.379a206.63 206.63 0 00-.083-1.292 23.48 23.48 0 00-.056-1.003 9.7 9.7 0 00-.1-.864 7.639 7.639 0 00-.129-.746l.436.383-1.267.28a21.34 21.34 0 00-1.343.354c-.51.138-1.013.287-1.507.445a9.342 9.342 0 00-1.224.475l.612-1.151c.17.651.275 1.323.318 2.015.054.689.09 1.432.107 2.228.005.356.013.754.024 1.194.012.441.014.865.006 1.273-.008.408-.027.737-.057.991-.029.203-.1.385-.212.545a.79.79 0 01-.47.289c-.235.052-.43-.021-.585-.221-.155-.2-.237-.483-.244-.851-.01-.268-.011-.575-.002-.922a24.13 24.13 0 00-.005-1.106c-.01-.379-.019-.721-.025-1.028a12.016 12.016 0 00-.09-1.567c-.05-.445-.099-.834-.148-1.168a11.844 11.844 0 01-.07-.98c.013-.274.075-.497.184-.669.121-.174.31-.321.567-.44.38-.17.831-.332 1.351-.484a25.67 25.67 0 011.635-.455 82.73 82.73 0 011.632-.38c.68-.151 1.203-.126 1.568.076s.553.66.563 1.37a34 34 0 00.042 1.025c.024.438.046.925.066 1.462.033.534.078 1.071.137 1.613.056.528.127 1.017.214 1.465.03.19.073.384.129.581.056.196.088.368.096.513a.843.843 0 01-.694.782zm4.955-1.08c-.399.088-.736.064-1.013-.071a1.681 1.681 0 01-.656-.63 3.278 3.278 0 01-.385-.985 6.765 6.765 0 01-.119-1.118c.003-.32.016-.705.04-1.153a73.643 73.643 0 01.284-2.795c.064-.432.118-.77.163-1.014.061-.444.126-.79.194-1.04.08-.251.207-.397.383-.436a.669.669 0 01.458.065.926.926 0 01.37.342.965.965 0 01.175.534c.006.195-.016.483-.067.864-.051.38-.11.806-.178 1.276-.069.47-.13.945-.183 1.425a9.17 9.17 0 00-.073 1.252c0 .333.021.648.063.946.039.288.102.519.19.696.087.166.206.231.359.198.375-.084.776-.523 1.202-1.319.439-.799.885-1.864 1.34-3.195.215-.59.395-1.134.543-1.634.147-.5.279-.935.393-1.305.113-.382.236-.686.37-.913.135-.227.29-.36.466-.398.27-.06.486.002.65.187.174.171.292.428.356.77.068.305.14.683.215 1.134l.269 1.38c.09.46.185.888.285 1.284.186.673.374 1.215.564 1.628.2.4.369.718.508.959.14.239.222.442.246.609a.886.886 0 01-.04.397.959.959 0 01-.206.322.637.637 0 01-.329.184c-.27.059-.52-.014-.75-.221-.22-.21-.425-.527-.618-.952-.192-.425-.384-.93-.576-1.515-.117-.417-.24-.863-.37-1.339-.12-.478-.226-.959-.321-1.442a165.13 165.13 0 01-.226-1.353l.549.063c-.08.3-.17.622-.266.963-.085.339-.196.726-.333 1.163-.128.422-.293.926-.495 1.513a18.517 18.517 0 01-.9 2.1 8.236 8.236 0 01-1.152 1.714c-.415.462-.874.748-1.379.86zm16.267-3.609c-.352.078-.763.058-1.232-.059a6.56 6.56 0 01-1.444-.602c-.48-.275-.935-.58-1.366-.916a6.903 6.903 0 01-1.036-1.006 1.759 1.759 0 01-.342-.46 2.222 2.222 0 01-.123-.47c.014-.103.038-.218.07-.349.033-.13.086-.252.159-.367.099-.219.283-.525.553-.917.27-.392.588-.819.953-1.281.374-.477.767-.927 1.177-1.35.42-.438.824-.81 1.21-1.118.4-.31.758-.5 1.075-.57a.466.466 0 01.318.021.5.5 0 01.227.19.6.6 0 01.097.273c.046.261-.07.545-.346.853-.276.307-.58.602-.911.884a21.164 21.164 0 00-1.532 1.503c-.435.478-.78.893-1.034 1.245-.243.349-.357.583-.343.703.003.123.125.311.366.565.238.243.58.505 1.024.788.442.271.943.505 1.503.7.254.092.501.178.74.26.25.068.453.152.61.253.168.086.262.206.284.361a.765.765 0 01-.045.38.71.71 0 01-.245.312.873.873 0 01-.367.174zm-5.864 1.283c-.305.067-.544-.04-.717-.322-.176-.293-.305-.738-.389-1.334a24.325 24.325 0 01-.145-2.238 28.716 28.716 0 010-1.163l.06-1.232c.016-.422.018-.828.005-1.22.003-.098 0-.196-.01-.292 0-.111-.005-.22-.017-.329a2.154 2.154 0 01.065-.623 1.12 1.12 0 01.204-.414.577.577 0 01.32-.22c.27-.06.508.017.716.23.216.198.325.524.328.979.006.306-.007.69-.04 1.153-.023.448-.05.91-.08 1.384-.03.474-.043.89-.038 1.245.03.633.069 1.197.117 1.69.06.492.118.897.177 1.216.056.307.08.524.07.649a.828.828 0 01-.076.405.674.674 0 01-.217.269.679.679 0 01-.333.167zm9.647-2.122a.742.742 0 01-.733-.225c-.207-.213-.376-.532-.508-.958-.122-.44-.19-.973-.206-1.597.003-.653.057-1.157.163-1.513.114-.37.276-.64.485-.809.113-.099.286-.18.518-.244a7.74 7.74 0 01.731-.199c.856-.19 1.692-.418 2.507-.685a13.11 13.11 0 002.364-1.078l.586 1.143a10.35 10.35 0 01-1.854.965 22.03 22.03 0 01-2.092.723c-.708.194-1.402.366-2.082.517l-1.056.068c-.001-.726-.004-1.488-.009-2.287-.005-.798-.015-1.51-.03-2.134a1.498 1.498 0 01.129-.749c.102-.207.24-.33.416-.369.294-.065.537.004.73.208.19.191.287.545.29 1.061.01.268.01.595-.004.98-.013.384-.028.787-.045 1.209-.006.42-.015.822-.028 1.206-.004.37-.004.677.002.922.01.712.04 1.345.089 1.9.058.54.094.951.107 1.231a.754.754 0 01-.14.456.496.496 0 01-.33.258zm6.071-1.347c-.293.065-.542-.058-.747-.37-.192-.314-.348-.765-.466-1.354a13.201 13.201 0 01-.191-2.025 52.585 52.585 0 01.022-2.81c.04-.71.093-1.276.16-1.697.036-.279.103-.534.2-.764.096-.23.244-.368.443-.412.258-.058.467.025.627.248.17.209.257.49.262.846.012.44-.016.927-.082 1.458a12.106 12.106 0 00-.05 1.691c.015.735.057 1.396.126 1.984.078.573.154 1.055.229 1.444.074.39.108.684.103.882a.84.84 0 01-.169.572.79.79 0 01-.467.307zm5.154-1.143c-.399.088-.736.065-1.013-.07a1.686 1.686 0 01-.656-.63 3.286 3.286 0 01-.385-.986 6.77 6.77 0 01-.119-1.118c.003-.32.016-.705.04-1.153a72.575 72.575 0 01.284-2.794c.064-.433.118-.771.163-1.015a8.7 8.7 0 01.194-1.04c.08-.251.207-.396.383-.435a.67.67 0 01.457.064.926.926 0 01.372.343.965.965 0 01.174.533c.006.196-.016.484-.067.864-.051.38-.11.806-.179 1.276-.068.47-.128.945-.182 1.425-.056.468-.08.885-.073 1.253 0 .332.02.647.062.946.04.286.103.518.192.696.086.165.205.23.358.197.375-.083.776-.523 1.202-1.319.439-.798.885-1.864 1.34-3.195a27.95 27.95 0 00.543-1.634c.147-.5.278-.935.393-1.305.112-.382.236-.686.37-.913.134-.226.29-.36.466-.398.27-.06.486.002.65.187.174.171.292.428.356.77.068.306.14.683.215 1.134l.269 1.38c.09.46.185.888.285 1.284.186.673.374 1.215.564 1.629.2.398.369.718.508.957.14.24.222.444.246.61a.884.884 0 01-.04.397.966.966 0 01-.206.323.636.636 0 01-.329.183c-.27.06-.52-.014-.75-.22-.22-.21-.425-.528-.618-.953a14.95 14.95 0 01-.576-1.515c-.117-.417-.24-.863-.371-1.339a30.903 30.903 0 01-.32-1.442c-.083-.486-.159-.937-.226-1.353l.549.063c-.081.3-.17.622-.266.963a20.86 20.86 0 01-.333 1.163 43.38 43.38 0 01-.495 1.513 18.586 18.586 0 01-.9 2.1 8.247 8.247 0 01-1.152 1.714c-.415.461-.875.748-1.379.86zm16.267-3.609c-.352.078-.763.059-1.232-.059a6.56 6.56 0 01-1.444-.602c-.48-.275-.935-.58-1.367-.915a6.903 6.903 0 01-1.035-1.007 1.76 1.76 0 01-.342-.46 2.22 2.22 0 01-.123-.47c.014-.102.038-.218.07-.349a1.24 1.24 0 01.159-.367c.099-.219.283-.524.553-.916.27-.392.588-.82.953-1.282.374-.477.766-.927 1.177-1.35.42-.438.824-.81 1.21-1.118.4-.31.757-.5 1.074-.57a.466.466 0 01.319.021.5.5 0 01.227.19.599.599 0 01.097.273c.046.261-.07.545-.346.853a9.69 9.69 0 01-.911.885 21.164 21.164 0 00-1.532 1.502c-.435.478-.78.893-1.034 1.245-.243.349-.357.584-.343.703.003.123.125.311.366.565.238.243.58.505 1.024.788.441.271.943.505 1.503.7.254.092.501.178.74.26.25.068.453.153.61.253.167.086.262.207.284.362a.764.764 0 01-.045.379.71.71 0 01-.245.312.874.874 0 01-.367.174zm-5.864 1.282c-.305.068-.544-.039-.717-.32-.176-.294-.305-.738-.389-1.335a24.32 24.32 0 01-.145-2.238 28.726 28.726 0 010-1.163l.059-1.231c.017-.422.02-.83.006-1.22a2.19 2.19 0 00-.01-.293c0-.11-.005-.22-.017-.329a2.148 2.148 0 01.065-.623c.048-.17.116-.309.204-.414a.577.577 0 01.32-.22c.27-.059.508.017.716.23.216.198.325.524.328.98.006.305-.007.69-.04 1.152-.023.448-.05.91-.08 1.384-.03.474-.043.89-.038 1.245.03.633.069 1.197.117 1.69.06.492.118.897.177 1.216.056.308.08.524.07.65a.825.825 0 01-.076.404c-.05.11-.122.2-.217.27a.668.668 0 01-.333.166zm12.041-2.67c-.973.215-1.769.207-2.386-.025a2.558 2.558 0 01-1.38-1.226c-.302-.585-.463-1.281-.482-2.09a6.7 6.7 0 01.286-1.872 7.482 7.482 0 01.859-1.87 6.115 6.115 0 011.383-1.506 4.48 4.48 0 011.82-.865c.621-.138 1.154-.152 1.598-.041.454.108.8.339 1.039.692.25.35.382.832.395 1.445a3.036 3.036 0 01-.5 1.827c-.36.535-.855.996-1.484 1.381a6.65 6.65 0 01-2.086.832c-.798.177-1.353.202-1.664.074-.3-.13-.452-.318-.457-.563-.008-.146.023-.257.092-.334.066-.089.187-.153.363-.192.13-.028.287-.039.473-.03.196-.007.476-.05.84-.131a4.901 4.901 0 001.529-.598c.444-.27.788-.581 1.03-.93.24-.36.36-.738.359-1.132-.008-.367-.114-.62-.317-.76-.192-.142-.516-.162-.974-.06a2.984 2.984 0 00-1.25.609 4.58 4.58 0 00-.977 1.084c-.274.43-.483.9-.628 1.413a5.041 5.041 0 00-.19 1.555c.011.441.091.83.24 1.166.145.324.384.566.715.727.34.146.78.159 1.32.04.61-.136 1.114-.328 1.515-.577.41-.263.743-.534 1.001-.813.259-.278.476-.517.653-.717.177-.199.349-.317.513-.353.199-.044.356 0 .472.135.126.12.191.302.196.547.005.245-.098.526-.312.844-.203.304-.49.614-.864.93a6.7 6.7 0 01-1.252.85 6.15 6.15 0 01-1.488.533z" fill="#7831B2"/></svg>