<svg width="403" height="51" fill="none" xmlns="http://www.w3.org/2000/svg"><path fill-rule="evenodd" clip-rule="evenodd" d="M293.427 43.043l-.052.244c10.184 2.145 19.051 1.462 27.013-.654 8.517-1.977 15.826-5.477 22.452-8.96a592.249 592.249 0 003.878-2.067c5.125-2.748 9.841-5.276 14.53-6.882 5.791-1.984 11.434-2.517 17.557-.245 5.751 2.134 12.03 6.78 19.277 15.266l-6.516-.655a1 1 0 10-.201 1.99l8.955.9a1 1 0 001.095-.894l.212-2.102.08-.066-.065-.08.674-6.707a1 1 0 10-1.99-.2l-.48 4.771c-7.199-8.328-13.74-13.059-19.994-15.232-6.819-2.37-13.169-1.657-19.44.535-5.28 1.845-10.572 4.766-16.063 7.797-.983.543-1.972 1.089-2.969 1.633-6.6 3.602-13.593 7.157-21.475 9.257-7.594 1.758-16.167 2.265-26.165.375a1 1 0 10-.371 1.965l.058.011z" fill="#7831B2"/><path d="M9.243 13.692a4.72 4.72 0 01-1.385-.24 9.266 9.266 0 01-1.545-.655 10.936 10.936 0 01-1.471-.997 8.183 8.183 0 01-1.2-1.212 5.002 5.002 0 01-.768-1.353 2.506 2.506 0 01-.102-1.387c.098-.527.329-1.06.691-1.599a9.401 9.401 0 011.394-1.631 16.91 16.91 0 011.97-1.593 25.208 25.208 0 012.382-1.501 28.48 28.48 0 011.047-.553c.264-.131.493-.196.685-.195.216 0 .377.068.485.2.12.12.149.3.087.54-.037.24-.164.462-.38.665-.206.19-.525.4-.958.625A24.23 24.23 0 007.847 4.2a18.54 18.54 0 00-1.788 1.36c-.494.441-.886.86-1.176 1.254-.29.383-.465.718-.527 1.006-.061.347-.003.726.175 1.134.19.397.488.8.894 1.21.407.398.915.773 1.525 1.124.61.338 1.305.618 2.084.837.492.159.803.31.934.454.144.145.19.325.142.541a.658.658 0 01-.254.431c-.133.095-.337.143-.613.141zm-7.956-.037c-.288 0-.497-.116-.628-.344-.12-.229-.165-.601-.139-1.117.038-.528.144-1.23.316-2.105a33.05 33.05 0 01.66-2.66c.244-.84.47-1.588.676-2.248.207-.659.348-1.192.422-1.6.086-.395.135-.707.148-.935.013-.24.02-.456.021-.648 0-.192.026-.396.075-.611.049-.24.14-.414.272-.521a.763.763 0 01.505-.178c.264.001.45.092.557.273.119.18.19.42.213.72.022.289.009.6-.04.936-.038.324-.088.63-.149.918a14.738 14.738 0 01-.476 1.78c-.207.67-.42 1.372-.64 2.103a25.92 25.92 0 00-.55 2.103 25.58 25.58 0 00-.258 1.457c-.05.36-.081.648-.094.864-.013.204-.032.39-.057.557a8.6 8.6 0 01-.075.594.921.921 0 01-.272.485.696.696 0 01-.487.178zm12.207.039c-.552-.003-1.002-.137-1.348-.402-.335-.266-.568-.633-.697-1.102-.118-.468-.116-1.008.007-1.62a6.54 6.54 0 01.602-1.725 8.811 8.811 0 011.106-1.65c.434-.527.91-.987 1.428-1.38a6.798 6.798 0 011.66-.947 4.848 4.848 0 011.766-.333c.276 0 .492.074.647.219.155.144.202.36.141.648a.683.683 0 01-.2.377c-.108.096-.264.155-.469.178a5.598 5.598 0 00-2.344.89 6.854 6.854 0 00-1.79 1.737 5.767 5.767 0 00-.946 2.12 4.745 4.745 0 00-.112.953c-.001.276.057.636.175 1.081l-.678-1.245c.215.277.406.458.573.543.18.084.432.128.756.13.768.003 1.55-.486 2.347-1.466.796-.98 1.535-2.411 2.215-4.292.085-.228.2-.401.345-.52a.811.811 0 01.54-.196.692.692 0 01.629.363c.155.229.22.523.194.883a32.45 32.45 0 00-.082 2.052c.01.6.073 1.164.19 1.692a6.45 6.45 0 00.677 1.642c.072.12.1.258.088.414a.88.88 0 01-.128.45.983.983 0 01-.308.358.734.734 0 01-.432.124.768.768 0 01-.432-.11.932.932 0 01-.25-.307 8.29 8.29 0 01-.446-.992 7.053 7.053 0 01-.318-1.19 9.238 9.238 0 01-.083-1.602 20.57 20.57 0 01.19-2.177l.648-.015c-.401 1.198-.844 2.21-1.328 3.036-.483.813-.99 1.471-1.52 1.973-.519.49-1.037.847-1.554 1.072-.517.226-1.003.338-1.46.336zm20.053.038c-.323-.001-.695-.165-1.113-.49a13.342 13.342 0 01-1.362-1.25 12.953 12.953 0 01-1.254-1.481c-.322-.47-.584-.873-.786-1.21a2.169 2.169 0 01-.071-.162.443.443 0 01.019-.216.31.31 0 01.072-.198 1.32 1.32 0 01.181-.179c.397-.202.83-.458 1.3-.768.481-.321.945-.65 1.39-.983.446-.334.837-.632 1.175-.895.421-.346.8-.662 1.138-.949.337-.286.596-.429.776-.428a.5.5 0 01.341.11c.096.06.168.144.215.253a.538.538 0 01.053.306c-.013.192-.14.42-.381.682-.23.263-.525.544-.886.842a19.706 19.706 0 01-1.914 1.377c-.29.19-.566.37-.831.536-.253.167-.464.31-.632.43-.169.107-.253.172-.253.196 0 .048.065.169.196.361.132.18.322.41.573.687.263.265.562.548.896.85.37.338.7.627.986.868.3.23.532.429.7.598.167.156.244.3.232.433a.782.782 0 01-.219.485c-.132.131-.313.196-.54.195zm-11.375-.034a.39.39 0 01-.288-.11.49.49 0 01-.179-.252.619.619 0 01-.052-.325c.013-.227.188-.52.526-.88.337-.358.771-.74 1.301-1.145.542-.418 1.12-.817 1.734-1.198.385-.238.704-.429.956-.572.265-.143.481-.256.65-.339a7.82 7.82 0 01.379-.178l.266.703c-.107-.036-.34-.163-.7-.381-.359-.23-.807-.592-1.345-1.086a6.884 6.884 0 01-.806-.94 6.237 6.237 0 01-.607-1.029c-.142-.336-.207-.613-.194-.829a.921.921 0 01.091-.323.679.679 0 01.236-.251.729.729 0 01.36-.089c.192.001.377.134.556.399.179.265.387.596.626.993.238.397.542.794.912 1.192.406.422.77.754 1.094.995.323.242.598.423.825.544l-.257.989c-.396.19-.8.404-1.208.642-.397.226-.819.5-1.264.822a25.08 25.08 0 00-1.662 1.27c-.47.407-.874.74-1.21 1.003-.326.25-.572.376-.74.375zm5.651.116a.523.523 0 01-.467-.254 1.682 1.682 0 01-.177-.631 3.21 3.21 0 01.058-.756c.086-.456.202-.947.348-1.474.159-.54.312-1.18.46-1.924.097-.48.22-.995.366-1.546a26 26 0 01.53-1.636c.073-.228.206-.467.4-.718.192-.263.421-.394.685-.393.216 0 .372.08.467.236.095.157.124.36.087.612a7.91 7.91 0 01-.292.881c-.134.372-.292.815-.474 1.33-.17.515-.323 1.097-.458 1.744l-.13.683c-.049.312-.11.654-.184 1.025a63.55 63.55 0 01-.185 1.062c-.05.335-.093.593-.13.773a1.952 1.952 0 01-.309.7.702.702 0 01-.595.286zm8.503-1.023c.158-.36.357-.76.6-1.203.242-.455.502-.928.78-1.419.29-.49.58-.969.87-1.436.303-.478.587-.909.853-1.292.35-.49.7-.95 1.05-1.38.35-.431.682-.778.995-1.04.325-.275.602-.411.83-.41.24 0 .45.104.628.308.191.205.358.542.5 1.01.094.337.194.764.3 1.28a34.61 34.61 0 01.524 3.513c.057.612.09 1.176.1 1.692l-1.585.137c-.01-.576-.048-1.2-.117-1.873a24.755 24.755 0 00-.243-1.98 20.73 20.73 0 00-.334-1.658c-.118-.481-.243-.806-.374-.974l.703-.141c-.386.406-.796.884-1.231 1.434-.422.55-.821 1.143-1.196 1.777-.278.467-.538.91-.78 1.328-.242.42-.466.826-.672 1.221a55.21 55.21 0 00-.581 1.186l-1.62-.08zm7.778 3.474c-.24-.001-.426-.086-.557-.255a.629.629 0 01-.123-.558c.024-.144.103-.36.237-.647.133-.275.273-.593.418-.952.146-.36.255-.731.33-1.115l.643.921c-.168-.024-.432-.05-.792-.075a20.06 20.06 0 00-1.331-.043 70.76 70.76 0 00-1.567.011 69.716 69.716 0 00-1.584.011c-.516.01-1.02.031-1.512.065a47.7 47.7 0 00-1.422.083c-.456.046-.87.098-1.243.157l.705-.627a13.114 13.114 0 00-.132 1.26c-.013.24-.026.45-.039.63l-.002.377c-.013.204-.085.36-.218.467a.72.72 0 01-.505.178c-.288-.001-.485-.116-.592-.345a1.877 1.877 0 01-.158-.81 5.402 5.402 0 01.021-.739c.026-.3.057-.533.093-.701a1.6 1.6 0 01.219-.503 1.08 1.08 0 01.38-.394c.168-.107.384-.184.649-.231.3-.047.702-.087 1.206-.12a31.757 31.757 0 011.729-.1 52.84 52.84 0 011.998-.064c.684-.02 1.338-.03 1.962-.027l.648.004c.24 0 .486.008.738.02.252.014.492.04.72.076.347.038.581.147.7.327.131.181.16.463.086.847-.061.3-.153.617-.274.953a5.582 5.582 0 01-.436.934 2.91 2.91 0 01-.508.717c-.169.18-.331.269-.487.268zm5.629-2.368c-.564-.003-1.025-.143-1.384-.42-.359-.278-.603-.657-.733-1.138-.13-.492-.133-1.063-.01-1.71l.46-2.302c.148-.743.271-1.379.37-1.906.11-.528.184-.875.22-1.043a1.13 1.13 0 01.146-.395.998.998 0 01.307-.287.724.724 0 01.379-.106c.276.001.48.14.61.417.143.276.183.594.122.954a19.95 19.95 0 01-.312 1.205c-.122.467-.22.91-.294 1.33l-.147.576a19.31 19.31 0 01-.165.7l-.129.594c-.135.636-.137 1.134-.007 1.494.13.36.4.542.808.544.228.001.48-.058.757-.177.288-.118.565-.273.83-.464.265-.203.488-.417.669-.645.181-.227.272-.442.273-.646.013-.312-.07-.565-.249-.757-.167-.193-.412-.35-.735-.472a3.978 3.978 0 00-.701-.237c-.288-.073-.594-.14-.917-.202a6.833 6.833 0 00-.936-.149l.312-1.168c.432-.07.918-.17 1.459-.3a27.577 27.577 0 001.712-.46c.589-.177 1.154-.36 1.695-.55a15.503 15.503 0 001.623-.658c.48-.226.89-.416 1.226-.57.35-.167.632-.25.848-.249.372.002.653.13.844.382.203.241.261.565.175.973-.085.384-.171.761-.257 1.133-.073.36-.153.731-.239 1.115a56.084 56.084 0 00-.407 2.356c-.062.431-.106.827-.131 1.187-.002.24-.009.504-.022.792a3.76 3.76 0 01-.039.612.818.818 0 01-.164.36.655.655 0 01-.288.214.729.729 0 01-.36.088c-.253-.001-.444-.122-.575-.362a2.26 2.26 0 01-.194-.901c.003-.6.041-1.2.116-1.8.075-.611.174-1.229.297-1.852.061-.264.122-.558.184-.882.073-.323.147-.641.22-.953.074-.311.135-.587.184-.827.061-.252.104-.431.129-.54l.358.38c-.277.155-.638.328-1.083.517-.432.178-.925.362-1.478.552-.553.177-1.13.354-1.73.532-.602.177-1.208.342-1.82.495-.602.142-1.178.253-1.73.334l.183-.647c.096-.011.24-.023.432-.034.204-.023.438-.034.702-.033.144.001.342.026.593.075.264.05.534.129.81.238.287.11.556.26.807.454.264.18.466.41.61.686.154.277.224.601.21.973-.026.468-.19.918-.492 1.348-.29.43-.657.813-1.103 1.147a6.19 6.19 0 01-1.426.804c-.505.19-.979.283-1.423.28zM66.605 3.139c-.504-.003-.93-.113-1.276-.33a2.208 2.208 0 01-.77-.832c-.167-.337-.244-.655-.23-.955.025-.324.116-.575.273-.755A.733.733 0 0165.18 0c.18 0 .311.103.394.308.095.192.196.409.303.65.095.228.22.426.375.595.168.169.42.254.755.255.228.002.462-.063.703-.194a5.57 5.57 0 00.65-.447c.265-.215.5-.394.705-.537.204-.155.409-.232.613-.231.144 0 .251.055.323.163.084.097.1.223.052.378-.06.216-.194.456-.4.719-.192.25-.445.49-.759.716a4.218 4.218 0 01-1.064.553 3.457 3.457 0 01-1.225.21zm-4.442 10.797c-.408-.002-.731-.1-.97-.292a1.685 1.685 0 01-.501-.758 3.282 3.282 0 01-.157-1.045c.014-.384.057-.756.131-1.116.073-.311.171-.683.293-1.114.134-.432.28-.881.438-1.348.159-.468.31-.905.456-1.312.158-.408.286-.725.383-.952.158-.42.297-.743.418-.97.133-.228.29-.341.47-.34.156 0 .3.055.431.164a.926.926 0 01.286.415.964.964 0 01.052.558 5.679 5.679 0 01-.256.827c-.134.36-.286.76-.456 1.204-.17.443-.334.892-.492 1.348a9.025 9.025 0 00-.348 1.204 6.833 6.833 0 00-.148.935c-.025.288-.014.528.033.72.047.18.148.271.305.272.383.002.871-.338 1.462-1.02.603-.68 1.274-1.62 2.011-2.816.339-.527.635-1.017.89-1.472.253-.455.477-.85.67-1.185.194-.347.381-.616.562-.807.181-.192.362-.287.542-.286.276.001.473.11.592.327.131.204.19.48.176.829-.001.312-.015.696-.041 1.152l-.042 1.403c-.015.468-.017.906-.007 1.314.033.697.097 1.267.19 1.711.106.433.2.781.284 1.045.083.265.118.481.105.649a.883.883 0 01-.128.377.963.963 0 01-.271.27.635.635 0 01-.36.105c-.42-.001-.72-.279-.897-.832-.177-.552-.312-1.291-.404-2.216-.022-.432-.044-.894-.065-1.386-.01-.492-.008-.984.007-1.476.026-.492.052-.948.078-1.367l.521.182c-.206.419-.448.88-.726 1.383a45.95 45.95 0 01-1.143 1.92 18.607 18.607 0 01-1.34 1.848 8.236 8.236 0 01-1.501 1.415c-.506.358-1.017.536-1.533.533zm16.601.077c-.288-.002-.504-.17-.646-.507-.142-.337-.146-.84-.011-1.512.061-.324.178-.815.349-1.475.17-.67.432-1.39.784-2.156.412-.91.781-1.628 1.108-2.155.326-.538.646-.927.959-1.166.313-.238.632-.357.956-.355a.644.644 0 01.574.308c.143.205.244.452.303.74.058.288.105.576.14.865.046.384.104.81.174 1.278.082.469.17.943.263 1.424.106.48.224.937.354 1.37.142.432.302.799.481 1.1l-.649.14c.351-.682.727-1.364 1.126-2.046.399-.683.798-1.335 1.197-1.957.399-.622.773-1.178 1.124-1.669.386-.514.712-.878.977-1.093.277-.215.523-.322.74-.32a.87.87 0 01.43.11c.132.06.246.132.342.217.131.132.232.295.303.487.072.193.082.48.032.864a32.618 32.618 0 00-.226 2.34c-.028.683-.036 1.26-.026 1.727.008.828.065 1.489.17 1.981.118.493.159.81.122.955a.541.541 0 01-.254.376.742.742 0 01-.486.16c-.288-.001-.528-.14-.719-.417-.178-.277-.29-.65-.336-1.118a22.85 22.85 0 01-.1-1.638 29.09 29.09 0 01.063-2.214c.064-.828.164-1.68.3-2.555l.523-.123c-.29.419-.616.897-.979 1.435a261.2 261.2 0 00-1.088 1.651 94.506 94.506 0 00-1.051 1.706 31.608 31.608 0 00-.872 1.597 1.73 1.73 0 01-.47.538.933.933 0 01-.595.196c-.288-.002-.528-.069-.72-.202a1.892 1.892 0 01-.465-.578 6.61 6.61 0 01-.32-.83 22.888 22.888 0 01-.442-1.748 25.185 25.185 0 01-.402-2.504 10.971 10.971 0 01-.067-1.206l.541-.141a20.34 20.34 0 00-1.088 1.723 13.34 13.34 0 00-.782 1.742 15.69 15.69 0 00-.53 1.906 19.41 19.41 0 00-.222 1.223 9.17 9.17 0 01-.112.791 1.246 1.246 0 01-.254.521c-.121.144-.295.215-.523.214zm17.068.06c-.744-.003-1.368-.108-1.871-.314-.491-.218-.868-.514-1.13-.887a3.084 3.084 0 01-.498-1.335 5.272 5.272 0 01.098-1.655 6.694 6.694 0 01.692-1.761 7.466 7.466 0 011.25-1.632 6.111 6.111 0 011.679-1.163 4.474 4.474 0 011.964-.44c.636.002 1.157.107 1.565.313.419.206.705.507.859.904.167.396.188.895.066 1.494a3.064 3.064 0 01-.6 1.311c-.29.37-.658.687-1.103.95-.433.25-.92.445-1.46.586a6.954 6.954 0 01-1.694.19c-.816-.003-1.361-.102-1.636-.295-.263-.193-.37-.41-.321-.65.025-.143.079-.245.163-.305.084-.071.217-.107.397-.106.132 0 .288.026.467.074.192.037.474.057.846.058.6.003 1.14-.079 1.621-.244.493-.166.896-.392 1.21-.679a2 2 0 00.598-1.023c.074-.36.027-.63-.14-.81-.155-.181-.467-.273-.935-.275a2.982 2.982 0 00-1.351.318 4.594 4.594 0 00-1.192.84 5.29 5.29 0 00-1.453 2.712 3.061 3.061 0 00-.023 1.188c.07.348.249.637.536.866.299.217.724.327 1.276.33.624.003 1.159-.073 1.603-.227a5.155 5.155 0 001.155-.57c.313-.215.578-.4.794-.555.217-.155.41-.232.578-.231.204 0 .347.08.43.236.096.144.119.337.07.576-.049.24-.212.491-.49.754a4.64 4.64 0 01-1.047.715c-.421.226-.89.41-1.407.552a6.154 6.154 0 01-1.566.19zm10.055.029c-.888-.004-1.619-.182-2.194-.532a2.882 2.882 0 01-1.181-1.482c-.213-.637-.234-1.369-.062-2.196.147-.707.408-1.36.783-1.958a6.345 6.345 0 011.411-1.578 6.718 6.718 0 011.841-1.053 5.658 5.658 0 012.036-.37c.312.002.588.052.827.149.24.085.413.218.52.398.12.169.149.379.088.63a1.05 1.05 0 01-.273.54.672.672 0 01-.469.177.545.545 0 01-.305-.073 4.027 4.027 0 00-.234-.145c-.072-.049-.197-.073-.377-.074a3.78 3.78 0 00-1.929.513 4.943 4.943 0 00-1.536 1.325 4.383 4.383 0 00-.818 1.742c-.086.504-.076.942.03 1.314.118.36.333.644.644.85.323.205.719.309 1.187.31.528.003.948-.055 1.26-.173.313-.13.56-.274.74-.429.193-.155.35-.292.47-.412a.547.547 0 01.415-.196c.228.001.384.056.468.164.095.109.118.295.069.559a2.054 2.054 0 01-.617 1.059c-.325.298-.734.53-1.227.696a4.71 4.71 0 01-1.567.245zm11.895.091a.73.73 0 01-.7-.435c-.131-.301-.201-.667-.211-1.1.001-.215.008-.461.021-.737.014-.276.039-.558.076-.846.05-.288.093-.552.13-.791l.184-.81c.085-.323.171-.653.256-.988.098-.348.183-.666.257-.953.085-.3.146-.528.183-.683.024-.156-.011-.27-.107-.343-.095-.084-.263-.127-.503-.128a6 6 0 00-.63.033 9.998 9.998 0 00-.739.104 5.621 5.621 0 00-1.64.569c-.47.25-.735.537-.796.86a1.08 1.08 0 00.086.757c.131.216.388.391.772.525.395.134.965.203 1.709.206a15.229 15.229 0 001.548-.064c.252-.036.462-.059.63-.07.169-.023.277-.035.325-.034.3.001.552.02.755.057.204.037.282.163.233.38a.807.807 0 01-.399.573c-.217.143-.505.244-.865.302a7.3 7.3 0 01-1.225.085l-1.854-.009a4.895 4.895 0 01-1.798-.332c-.539-.219-.952-.527-1.238-.924-.274-.397-.362-.86-.264-1.387.074-.324.231-.659.473-1.006.254-.359.615-.693 1.085-1.003.481-.31 1.106-.559 1.875-.747a9.206 9.206 0 011.387-.264c.372-.034.745-.05 1.117-.049.468.002.833.07 1.097.203.263.134.442.314.537.543.107.228.13.492.068.792a9.276 9.276 0 01-.238.917c-.109.348-.219.707-.329 1.079-.097.36-.183.683-.256.97-.062.288-.117.6-.167.936a13.689 13.689 0 00-.152 1.763c-.001.264.004.546.014.846.023.288.022.486-.002.594a.709.709 0 01-.236.43.674.674 0 01-.469.179zm-6.336-.047c-.216-.002-.384-.074-.503-.219a.671.671 0 01-.106-.522.874.874 0 01.272-.395c.145-.143.386-.298.722-.465a9.474 9.474 0 001.716-1.108c.578-.453 1.156-.96 1.735-1.522l1.131.653c-.41.443-.856.879-1.338 1.308-.47.418-.94.8-1.41 1.146-.457.346-.879.62-1.264.822-.385.202-.703.303-.955.302zm17.212 2.509c-.24-.001-.408-.092-.503-.272a.733.733 0 01-.088-.523 2.66 2.66 0 01.183-.557c.109-.228.218-.479.327-.755a5.86 5.86 0 00.292-.808l.485.2c-.24-.001-.552.004-.936.014-.372.01-.786.026-1.242.048-.444.022-.9.038-1.368.048a56.873 56.873 0 01-2.503.06c-.672-.003-1.157-.125-1.456-.367-.299-.24-.465-.578-.499-1.01-.034-.432.01-.936.133-1.511.061-.312.153-.701.275-1.169.122-.48.256-.977.403-1.492.158-.515.31-1 .457-1.456.158-.455.291-.815.4-1.078.134-.336.291-.593.472-.772a.918.918 0 01.703-.285c.156 0 .288.068.395.2.108.12.149.3.124.54 0 .085-.067.312-.201.684l-.457 1.384c-.17.539-.347 1.114-.53 1.725-.17.6-.311 1.163-.421 1.69-.111.54-.131.924-.06 1.152.083.216.335.325.755.327.6.003 1.158-.006 1.674-.028.528-.021 1.02-.043 1.476-.065.456-.034.883-.062 1.279-.084.396-.034.768-.05 1.116-.049.48.002.797.124.952.364.167.241.214.53.14.865a4.8 4.8 0 01-.201.665c-.085.264-.182.527-.291.79-.11.264-.201.492-.274.684a6.29 6.29 0 01-.29.43.927.927 0 01-.307.305.786.786 0 01-.414.106zm-1.64-3.5c.121-.347.249-.742.383-1.186.134-.455.268-.917.403-1.384.146-.467.256-.899.329-1.295.086-.383.154-.737.203-1.06.05-.324.093-.618.13-.882.038-.276.069-.522.094-.738.037-.227.074-.425.111-.593.061-.312.158-.557.291-.737.145-.191.349-.286.613-.285.216.001.39.086.521.254a.99.99 0 01.195.631c-.013.348-.057.72-.131 1.116-.062.383-.129.78-.203 1.187a237.26 237.26 0 01-.624 2.517c-.122.48-.244.935-.366 1.366-.122.42-.232.767-.329 1.043l-1.62.046zm11.559.108c.157-.36.357-.76.599-1.204.242-.454.503-.927.781-1.418.29-.49.58-.97.871-1.436.302-.479.586-.91.852-1.292.35-.49.7-.95 1.05-1.381.35-.43.681-.777.995-1.04.325-.274.602-.41.83-.41.24.001.449.104.628.309.191.205.358.542.5 1.01.094.337.194.763.3 1.28a34.592 34.592 0 01.523 3.512c.058.613.091 1.177.101 1.693l-1.585.136c-.009-.576-.048-1.2-.117-1.872a24.843 24.843 0 00-.243-1.981 20.618 20.618 0 00-.335-1.658c-.117-.48-.242-.805-.373-.974l.703-.14c-.386.406-.797.884-1.231 1.434-.423.55-.821 1.142-1.196 1.776-.278.467-.539.91-.78 1.329a33.2 33.2 0 00-.672 1.22 54.94 54.94 0 00-.582 1.186l-1.619-.08zm7.778 3.473c-.24 0-.426-.085-.557-.254a.63.63 0 01-.123-.559c.024-.143.103-.36.237-.646.133-.276.272-.593.418-.953.146-.359.255-.73.329-1.114l.644.92c-.168-.024-.432-.05-.792-.075-.348-.025-.792-.04-1.332-.042a70.75 70.75 0 00-1.566.01 69.127 69.127 0 00-1.584.012c-.516.01-1.02.03-1.512.065-.492.021-.966.05-1.422.083-.457.046-.871.098-1.243.156l.705-.627a13.117 13.117 0 00-.132 1.26c-.013.24-.026.45-.039.63l-.002.378c-.013.204-.085.36-.218.467a.72.72 0 01-.505.178c-.288-.002-.485-.117-.592-.345a1.867 1.867 0 01-.158-.811 5.457 5.457 0 01.021-.738c.025-.3.056-.534.093-.701.049-.192.122-.36.219-.503a1.08 1.08 0 01.379-.395c.169-.107.385-.184.649-.23a14.56 14.56 0 011.207-.121 31.616 31.616 0 011.729-.1 52.604 52.604 0 011.998-.063c.684-.02 1.338-.03 1.962-.027l.648.003c.24.001.486.008.738.021.252.014.492.039.72.076.347.037.581.146.7.327.131.18.16.463.086.846-.061.3-.153.618-.274.953a5.553 5.553 0 01-.437.934c-.157.3-.326.539-.507.718-.169.179-.331.268-.487.267zm3.085-2.379a.504.504 0 01-.396-.164.75.75 0 01-.16-.397 1.186 1.186 0 01.021-.54c.049-.216.164-.503.346-.862.193-.371.435-.784.725-1.239.291-.466.593-.933.907-1.4.338-.49.682-.975 1.033-1.453.362-.49.706-.927 1.032-1.31.325-.394.597-.704.814-.931.338-.335.657-.58.957-.734.313-.167.626-.25.938-.248.288.002.485.105.592.31.107.192.19.438.249.738.058.312.111.679.157 1.099.046.42.098.852.156 1.297.058.432.128.852.21 1.26.093.505.181.938.264 1.298.094.36.183.667.266.92.094.252.183.468.267.648.083.157.148.295.196.415a.81.81 0 01.052.379 1.042 1.042 0 01-.146.449.839.839 0 01-.326.322.701.701 0 01-.414.124c-.228 0-.432-.11-.611-.326-.167-.23-.315-.536-.445-.92a13.77 13.77 0 01-.355-1.244c-.058-.276-.135-.643-.229-1.1a67.888 67.888 0 01-.245-1.512 48.55 48.55 0 01-.208-1.585 22.31 22.31 0 01-.085-1.26l.36.145c-.338.31-.705.705-1.104 1.183-.386.466-.79.986-1.213 1.56a42.48 42.48 0 00-1.214 1.795 29.623 29.623 0 00-1.071 1.867c-.266.467-.496.82-.689 1.059-.181.239-.391.358-.631.357zm16.751.059a.73.73 0 01-.699-.435c-.131-.3-.201-.667-.211-1.1.001-.215.008-.461.021-.737.013-.276.039-.558.076-.846a69.6 69.6 0 00.13-.791l.183-.81c.086-.323.171-.653.257-.988.097-.348.183-.665.256-.953.086-.3.147-.527.183-.683.025-.156-.01-.27-.106-.343-.096-.084-.263-.127-.503-.128-.192 0-.403.01-.631.033a9.976 9.976 0 00-.738.105 5.617 5.617 0 00-1.641.568c-.469.25-.734.537-.796.86-.061.276-.032.528.087.757.131.216.388.392.771.525.396.134.965.203 1.709.206a16.156 16.156 0 001.549-.064 9.76 9.76 0 01.63-.07c.168-.023.276-.034.324-.034.3.001.552.02.756.057.204.037.281.164.232.38-.037.24-.17.43-.398.574-.217.143-.506.243-.866.302a7.29 7.29 0 01-1.224.084l-1.854-.009a4.899 4.899 0 01-1.799-.332c-.539-.218-.951-.526-1.237-.924-.275-.397-.362-.86-.264-1.387.073-.323.231-.659.473-1.006.253-.358.615-.693 1.084-1.003.482-.31 1.107-.559 1.876-.747a9.182 9.182 0 011.387-.264c.372-.034.744-.05 1.116-.048.468.002.834.07 1.097.203.264.133.443.314.538.542.107.229.129.493.068.792a9.276 9.276 0 01-.238.917c-.11.348-.219.707-.329 1.079-.098.36-.183.683-.257.97-.061.288-.116.6-.166.936a13.682 13.682 0 00-.152 1.763c-.001.264.003.546.014.846.023.288.022.486-.003.594a.7.7 0 01-.236.431.673.673 0 01-.469.178zm-6.335-.047c-.216-.001-.384-.074-.503-.219a.663.663 0 01-.106-.522.867.867 0 01.272-.395c.145-.143.385-.298.722-.465a9.462 9.462 0 001.715-1.108c.578-.453 1.157-.96 1.735-1.522l1.131.654a19.902 19.902 0 01-2.747 2.453c-.458.346-.879.62-1.264.822-.385.202-.703.303-.955.302zm19.829.001c-.576-.002-1.08-.083-1.511-.24-.431-.159-.76-.364-.987-.617-.227-.253-.316-.518-.266-.793a.878.878 0 01.199-.378.483.483 0 01.379-.16c.12 0 .228.031.324.092l.341.217c.131.085.323.164.575.237.251.061.593.093 1.025.095.672.003 1.255-.157 1.748-.478.506-.334.833-.902.98-1.706.123-.563.131-1.073.025-1.53a2.725 2.725 0 00-.552-1.208 2.606 2.606 0 00-1.058-.797c-.432-.182-.923-.274-1.475-.277a4.153 4.153 0 00-.847.086c-.288.059-.54.088-.756.087a.731.731 0 01-.36-.092.516.516 0 01-.214-.29.734.734 0 01-.017-.36c.074-.323.291-.568.652-.734.373-.178.937-.266 1.693-.262.804.003 1.517.145 2.14.424a4.052 4.052 0 011.561 1.177c.405.494.679 1.089.82 1.786.152.684.143 1.446-.029 2.285a4.226 4.226 0 01-.583 1.474 4.07 4.07 0 01-.977 1.093 4.41 4.41 0 01-1.299.66 5.299 5.299 0 01-1.531.21zm-4.251 4.589a.668.668 0 01-.378-.11.467.467 0 01-.196-.289 1.01 1.01 0 01.002-.468c.037-.18.103-.348.2-.503a9.48 9.48 0 00.291-.539 6.63 6.63 0 00.345-.79c.122-.324.238-.749.348-1.277.184-.875.284-1.75.3-2.626.016-.876.026-1.764.031-2.664.016-.912.11-1.824.282-2.735.062-.3.165-.521.309-.664a.762.762 0 01.559-.232.604.604 0 01.467.2c.132.121.221.29.268.506.047.204.04.432-.021.684-.147.719-.24 1.402-.279 2.05-.027.636-.042 1.26-.045 1.872.009.612 0 1.224-.027 1.836a11.681 11.681 0 01-.242 1.889c-.111.587-.245 1.12-.404 1.6-.158.48-.334.886-.527 1.222-.182.335-.381.592-.598.77-.205.18-.433.269-.685.268zm14.628-4.415c-.984-.005-1.793-.224-2.427-.66a3.329 3.329 0 01-1.288-1.751c-.225-.745-.245-1.591-.06-2.538.135-.672.365-1.259.692-1.761a5.941 5.941 0 011.122-1.291 4.755 4.755 0 011.263-.768c.421-.178.782-.267 1.082-.265.132 0 .239.019.323.055a.4.4 0 01.215.181c.06.073.078.175.053.306-.061.24-.158.462-.291.665-.133.192-.38.364-.74.519a5.08 5.08 0 00-1.102.679c-.289.238-.524.52-.705.842-.182.312-.31.689-.384 1.133-.196.97-.086 1.751.331 2.341.418.578 1.058.87 1.922.873.84.004 1.574-.293 2.201-.89.638-.609 1.056-1.417 1.253-2.424.196-.923.139-1.643-.17-2.16-.31-.53-.825-.797-1.545-.8-.372-.002-.69.069-.955.212a6.613 6.613 0 00-.83.572c-.217.179-.392.34-.524.483a3.084 3.084 0 01-.362.34.612.612 0 01-.378.107.505.505 0 01-.396-.164c-.083-.12-.1-.306-.051-.558.049-.276.188-.557.418-.844.241-.287.53-.55.867-.788a4.56 4.56 0 011.119-.589c.397-.154.787-.23 1.171-.229.864.004 1.565.212 2.103.622.538.399.902.952 1.091 1.661.188.697.185 1.501-.011 2.412-.173.9-.5 1.69-.983 2.372a5.12 5.12 0 01-1.772 1.557 4.63 4.63 0 01-2.252.548zm6.698-1.013c.157-.36.357-.76.599-1.203.242-.455.503-.928.781-1.419.29-.49.58-.969.871-1.436.302-.478.586-.909.851-1.292.351-.49.701-.95 1.051-1.381.35-.43.681-.777.995-1.04.325-.274.602-.41.83-.41.24.002.449.105.628.31.191.204.358.541.499 1.01.095.336.195.763.301 1.28a34.59 34.59 0 01.523 3.511c.058.613.091 1.177.101 1.693l-1.585.137c-.009-.576-.049-1.2-.117-1.873a24.85 24.85 0 00-.243-1.981 20.62 20.62 0 00-.335-1.658c-.117-.48-.242-.805-.373-.973l.702-.141a20.98 20.98 0 00-1.23 1.434c-.423.55-.821 1.142-1.196 1.777-.278.466-.539.91-.78 1.328a32.26 32.26 0 00-.672 1.221 54.94 54.94 0 00-.582 1.185l-1.619-.079zm7.778 3.474c-.24-.001-.426-.086-.557-.255a.63.63 0 01-.123-.558c.024-.144.103-.36.237-.647.133-.276.272-.593.418-.952.146-.36.255-.731.329-1.115l.644.921a11.28 11.28 0 00-.792-.075c-.348-.026-.792-.04-1.332-.043a110.27 110.27 0 00-3.924.054 40.52 40.52 0 00-1.818.1c-.577.045-1.105.103-1.585.173l.705-.627a13.117 13.117 0 00-.132 1.26c-.013.24-.026.45-.039.63l-.002.377c-.013.204-.085.36-.218.467a.72.72 0 01-.505.178c-.288-.002-.485-.117-.592-.345a1.867 1.867 0 01-.158-.81 5.296 5.296 0 01.021-.739c.025-.3.056-.533.093-.701.049-.192.122-.36.219-.503a1.07 1.07 0 01.379-.394 1.76 1.76 0 01.649-.231c.301-.047.703-.087 1.207-.12a31.735 31.735 0 011.728-.1 52.723 52.723 0 011.999-.064c.684-.02 1.338-.03 1.962-.027.312.002.654.01 1.026.023.372.002.732.027 1.079.077.348.038.582.147.701.327.131.18.16.463.086.847-.061.3-.153.617-.274.952a5.553 5.553 0 01-.437.934c-.157.3-.326.539-.507.718-.169.18-.331.269-.487.268zm4.963-2.389c-.408-.002-.731-.1-.97-.293a1.69 1.69 0 01-.501-.758 3.287 3.287 0 01-.157-1.045c.014-.384.058-.755.131-1.115.074-.312.171-.683.293-1.115a76.977 76.977 0 01.895-2.66c.158-.407.285-.724.382-.952.158-.42.297-.743.419-.97.133-.227.289-.34.469-.34.156 0 .3.055.431.164a.92.92 0 01.286.415.957.957 0 01.052.559 5.647 5.647 0 01-.256.826c-.134.36-.285.761-.456 1.204-.17.444-.334.893-.492 1.348a8.927 8.927 0 00-.347 1.204 6.855 6.855 0 00-.149.936c-.025.288-.014.528.033.72.047.18.149.27.305.271.384.002.871-.338 1.463-1.019.603-.681 1.273-1.62 2.011-2.817.338-.526.634-1.017.888-1.472.254-.454.478-.85.672-1.184.193-.348.381-.617.562-.808.18-.191.361-.286.541-.285.276 0 .473.11.592.326.131.205.19.481.177.83-.002.311-.016.695-.042 1.151l-.042 1.404c-.014.468-.016.906-.006 1.314.032.696.096 1.266.19 1.71.106.433.2.782.283 1.046.083.264.118.48.105.649a.882.882 0 01-.128.377.96.96 0 01-.271.269.633.633 0 01-.36.106c-.42-.002-.719-.28-.897-.832-.177-.553-.312-1.292-.403-2.216a224.79 224.79 0 01-.066-1.386c-.01-.492-.008-.984.007-1.476.026-.492.052-.948.078-1.368l.521.182c-.206.42-.448.88-.726 1.383a45.2 45.2 0 01-1.143 1.92 18.563 18.563 0 01-1.341 1.849 8.201 8.201 0 01-1.5 1.415c-.506.357-1.017.535-1.533.533zm10.048-7.244c-.276-.001-.491-.086-.647-.255a.631.631 0 01-.141-.577.695.695 0 01.218-.34c.108-.096.3-.18.577-.25.432-.118 1.009-.223 1.729-.316a19.918 19.918 0 012.557-.132c.504.002.966.016 1.386.042.432.014.905.058 1.421.133.408.05.719.147.935.292.227.145.322.308.286.487a.761.761 0 01-.489.592c-.132.06-.301.089-.505.088a12.561 12.561 0 01-.881-.04c-.336-.026-.696-.051-1.08-.077a11.967 11.967 0 00-1.152-.06c-.828-.003-1.494.03-1.998.1-.505.057-.925.127-1.261.21a4.57 4.57 0 01-.955.103zm2.577 7.32a.652.652 0 01-.593-.327 2.399 2.399 0 01-.248-.829 7.175 7.175 0 01.005-1.026c.038-.444.1-.924.186-1.44.087-.527.179-1.036.277-1.528.135-.66.252-1.24.35-1.744.111-.516.197-.941.258-1.277l1.621-.1-.184.773c-.061.3-.129.641-.203 1.025a58.59 58.59 0 01-.239 1.15c-.074.384-.147.756-.221 1.116a14.386 14.386 0 00-.241 1.51 9.23 9.23 0 00-.022.972c.01.252.021.463.033.63.011.157.004.3-.02.432a.962.962 0 01-.146.36.675.675 0 01-.271.215.692.692 0 01-.342.088zm8.827.005c-.996-.005-1.769-.188-2.319-.551a2.551 2.551 0 01-1.073-1.499c-.165-.637-.168-1.35-.008-2.142a6.66 6.66 0 01.692-1.76 7.448 7.448 0 011.249-1.633 6.1 6.1 0 011.68-1.162 4.472 4.472 0 011.964-.441c.948.004 1.643.235 2.084.693.454.458.589 1.131.405 2.018a3.031 3.031 0 01-.89 1.67c-.47.442-1.053.781-1.75 1.018a6.646 6.646 0 01-2.216.35c-.816-.004-1.361-.102-1.637-.296-.263-.193-.37-.41-.321-.65.025-.143.08-.245.164-.304.084-.072.216-.107.396-.107.132 0 .288.026.468.074.192.037.474.057.846.058.6.003 1.14-.078 1.621-.244.493-.166.896-.392 1.209-.679.313-.298.513-.64.599-1.023.073-.36.027-.63-.141-.81-.155-.181-.466-.273-.934-.275-.612-.003-1.195.175-1.749.532a5.227 5.227 0 00-1.446 1.416 5.113 5.113 0 00-.801 1.922 3.068 3.068 0 00-.024 1.188c.071.348.249.637.536.866.299.218.725.328 1.277.33.624.003 1.158-.073 1.603-.226a5.149 5.149 0 001.155-.571c.313-.215.577-.4.794-.554.217-.155.409-.233.577-.232.204.001.348.08.431.236.095.145.119.337.069.576-.049.24-.212.492-.489.754-.265.251-.614.49-1.047.715-.421.226-.89.41-1.407.552a6.151 6.151 0 01-1.567.19zm6.218.064a.5.5 0 01-.395-.163.743.743 0 01-.16-.397 1.172 1.172 0 01.02-.54c.049-.216.165-.503.346-.863.194-.37.436-.784.726-1.238a44.8 44.8 0 01.906-1.4c.339-.49.683-.975 1.033-1.453.362-.49.706-.927 1.032-1.31.326-.394.597-.705.814-.932.338-.334.657-.579.958-.733.313-.167.625-.25.937-.248.288.001.486.104.593.309.107.192.19.439.248.739.059.312.111.678.157 1.099.046.42.098.852.156 1.296.058.433.128.853.21 1.261.094.505.182.937.264 1.297.095.36.183.667.266.92.095.252.184.469.267.649.083.156.149.295.196.415.048.12.065.246.052.378a1.029 1.029 0 01-.146.45.836.836 0 01-.325.322.706.706 0 01-.415.124c-.228-.001-.431-.11-.61-.327-.167-.229-.316-.535-.446-.92s-.248-.799-.354-1.244c-.059-.276-.135-.642-.229-1.099a62.516 62.516 0 01-.245-1.513 48.646 48.646 0 01-.209-1.585 21.286 21.286 0 01-.084-1.26l.359.146c-.337.31-.705.704-1.103 1.182-.386.467-.791.987-1.213 1.56a42.475 42.475 0 00-1.215 1.795 29.603 29.603 0 00-1.07 1.867c-.266.467-.496.82-.689 1.06-.181.238-.392.357-.632.356zm13.856.029c-.744-.004-1.367-.11-1.87-.315-.491-.219-.868-.514-1.13-.888a3.08 3.08 0 01-.498-1.334 5.259 5.259 0 01.098-1.655 6.659 6.659 0 01.692-1.761 7.448 7.448 0 011.249-1.633 6.1 6.1 0 011.68-1.162 4.472 4.472 0 011.964-.44c.636.002 1.157.107 1.564.312.419.206.706.508.86.904.166.397.188.895.065 1.495a3.046 3.046 0 01-.6 1.311c-.29.37-.657.687-1.102.949-.433.25-.92.446-1.461.587a6.967 6.967 0 01-1.693.19c-.816-.003-1.361-.102-1.637-.295-.263-.193-.37-.41-.321-.65.025-.144.08-.245.164-.305.084-.072.216-.107.396-.106.132 0 .288.025.468.074.192.037.474.056.846.058.6.003 1.14-.079 1.621-.245.493-.165.896-.391 1.209-.678.313-.299.513-.64.599-1.023.073-.36.027-.63-.141-.81-.155-.182-.466-.273-.934-.275a2.984 2.984 0 00-1.352.318 4.608 4.608 0 00-1.192.84 5.294 5.294 0 00-.923 1.238 5.006 5.006 0 00-.529 1.473 3.068 3.068 0 00-.024 1.188c.071.349.249.638.536.867.299.217.725.327 1.277.33.624.003 1.158-.073 1.603-.227a5.153 5.153 0 001.155-.57c.313-.215.577-.4.794-.555.217-.155.409-.232.577-.231.204 0 .348.08.431.236.095.144.119.336.069.576-.049.24-.212.491-.489.754a4.65 4.65 0 01-1.047.715c-.421.226-.89.41-1.407.551a6.156 6.156 0 01-1.567.191zm12.802-10.742c-.504-.002-.929-.112-1.276-.33a2.203 2.203 0 01-.77-.831c-.167-.337-.243-.655-.23-.955.026-.324.117-.576.274-.755a.733.733 0 01.577-.267c.18 0 .311.103.394.307.096.193.197.41.304.65.094.228.22.427.375.596.167.168.419.253.755.255.228.001.462-.064.702-.195a5.61 5.61 0 00.651-.447c.265-.215.499-.393.704-.537.205-.155.409-.232.613-.23.144 0 .252.054.323.163.084.096.101.222.053.378-.061.216-.194.455-.4.718-.193.251-.446.49-.759.717a4.29 4.29 0 01-1.065.553 3.455 3.455 0 01-1.225.21zm-4.441 10.798c-.408-.002-.732-.1-.971-.293a1.689 1.689 0 01-.501-.758 3.316 3.316 0 01-.157-1.045c.014-.384.058-.755.131-1.115.074-.312.172-.683.294-1.115.134-.431.28-.88.438-1.348.158-.467.31-.904.456-1.312.158-.407.285-.724.382-.952.158-.42.298-.743.419-.97.133-.227.289-.34.469-.34.156 0 .3.056.432.164a.935.935 0 01.286.415.965.965 0 01.051.559 5.647 5.647 0 01-.256.827c-.133.359-.285.76-.455 1.203-.17.444-.334.893-.493 1.348a9.067 9.067 0 00-.347 1.205 6.692 6.692 0 00-.148.935c-.026.288-.015.528.032.72.047.18.149.27.305.271.384.002.872-.337 1.463-1.019.603-.681 1.273-1.62 2.011-2.817.338-.526.634-1.017.889-1.471.254-.455.477-.85.671-1.185a4.09 4.09 0 01.562-.808c.181-.191.361-.286.541-.285.276.001.474.11.593.326.131.205.189.481.176.83-.002.311-.015.695-.042 1.151l-.042 1.404c-.014.468-.016.906-.006 1.314.033.696.096 1.266.19 1.71.106.433.2.782.283 1.046.083.264.118.48.105.649a.87.87 0 01-.128.377.95.95 0 01-.271.269.633.633 0 01-.36.106c-.42-.002-.719-.28-.896-.832-.178-.553-.313-1.291-.404-2.216-.022-.432-.044-.894-.066-1.386a30.26 30.26 0 01.007-1.476c.026-.492.052-.948.078-1.368l.521.183c-.206.419-.448.88-.726 1.382a45.211 45.211 0 01-1.143 1.92 18.717 18.717 0 01-1.34 1.849 8.244 8.244 0 01-1.501 1.415c-.506.357-1.016.535-1.532.533zM5.443 29.71a9.938 9.938 0 01-2.087-.225 5.653 5.653 0 01-1.779-.674 3.415 3.415 0 01-1.2-1.212c-.286-.493-.41-1.081-.37-1.765a4.155 4.155 0 01.531-1.924 5.432 5.432 0 011.267-1.506 8.031 8.031 0 011.733-1.072 9.832 9.832 0 011.929-.64 8.794 8.794 0 011.873-.207l-.043 1.386a8.032 8.032 0 00-2.18.35 6.591 6.591 0 00-1.785.82 4.345 4.345 0 00-1.23 1.2c-.29.455-.448.946-.474 1.474-.014.408.056.774.21 1.1.167.312.418.583.753.813.347.217.784.387 1.311.51.528.11 1.152.167 1.872.17a7.497 7.497 0 002.071-.278 6.51 6.51 0 001.822-.856 4.868 4.868 0 001.302-1.326 3.349 3.349 0 00.53-1.671 1.81 1.81 0 00-.408-1.244c-.275-.361-.681-.633-1.22-.816-.528-.194-1.151-.293-1.871-.297l.438-1.383c.648.014 1.26.095 1.835.242a4.5 4.5 0 011.527.655c.443.29.777.658 1.003 1.103.238.433.337.961.299 1.585a4.771 4.771 0 01-.64 2.247 5.876 5.876 0 01-1.647 1.81c-.686.513-1.486.918-2.4 1.213-.913.284-1.904.424-2.972.419zm-.542 4.444c-.216 0-.396-.097-.539-.29-.143-.193-.226-.487-.248-.883-.01-.384.046-.87.169-1.458.11-.563.245-1.168.404-1.816l.531-1.96c.183-.67.367-1.348.55-2.03l.53-1.978a27.64 27.64 0 00.423-1.834 31.54 31.54 0 00.426-2.482c.087-.708.15-1.29.188-1.746.038-.467.07-.78.094-.935.061-.276.158-.491.291-.647.145-.167.313-.25.505-.25a.663.663 0 01.628.381c.143.253.208.541.194.865-.002.504-.071 1.2-.207 2.087a60.63 60.63 0 01-.517 2.842c-.147.695-.33 1.439-.55 2.23-.208.79-.428 1.594-.66 2.409a119.82 119.82 0 00-.659 2.373c-.207.767-.378 1.48-.513 2.14a9.541 9.541 0 00-.223 1.456c-.026.42-.057.708-.094.864a.893.893 0 01-.254.449.58.58 0 01-.47.213zm13.579-4.401c-.984-.005-1.793-.224-2.427-.66a3.327 3.327 0 01-1.288-1.751c-.224-.745-.245-1.591-.06-2.538a5.016 5.016 0 01.692-1.761 5.962 5.962 0 011.122-1.291 4.77 4.77 0 011.264-.768c.42-.178.78-.267 1.08-.265.133 0 .24.019.325.055a.403.403 0 01.215.181c.06.072.077.175.052.306-.06.24-.158.462-.29.665-.134.191-.38.364-.741.519a5.05 5.05 0 00-1.101.679 2.97 2.97 0 00-.706.842 3.32 3.32 0 00-.383 1.133c-.197.97-.087 1.751.33 2.341.418.578 1.059.869 1.923.873.84.004 1.573-.293 2.2-.89.639-.609 1.056-1.417 1.253-2.424.196-.923.14-1.643-.17-2.16-.31-.53-.824-.797-1.544-.8-.372-.002-.69.069-.955.211-.253.143-.53.334-.83.573-.218.179-.392.34-.525.483a3.021 3.021 0 01-.362.34.614.614 0 01-.378.107.503.503 0 01-.395-.164c-.084-.12-.101-.306-.052-.558.05-.276.189-.557.418-.844.241-.287.53-.55.868-.788.349-.25.722-.447 1.118-.59.397-.153.787-.23 1.171-.228.864.004 1.566.212 2.104.622.538.399.901.952 1.09 1.661.189.697.185 1.5-.011 2.412-.172.9-.5 1.69-.983 2.372a5.11 5.11 0 01-1.771 1.557 4.633 4.633 0 01-2.253.548zm10.682-.077c-.576-.002-1.08-.083-1.511-.24-.431-.159-.76-.364-.987-.617-.227-.253-.316-.518-.267-.793a.882.882 0 01.2-.378.481.481 0 01.379-.16.6.6 0 01.323.092l.341.217c.132.085.324.164.575.237.252.061.594.093 1.026.095.672.003 1.255-.157 1.748-.478.506-.334.832-.902.98-1.706.123-.563.13-1.073.025-1.53a2.73 2.73 0 00-.552-1.208 2.61 2.61 0 00-1.059-.797c-.43-.182-.922-.274-1.474-.277a4.138 4.138 0 00-.847.086c-.288.059-.54.088-.756.087a.729.729 0 01-.36-.092.516.516 0 01-.215-.29.734.734 0 01-.016-.36c.074-.323.29-.568.651-.734.373-.178.938-.266 1.694-.262.804.003 1.517.145 2.14.423a4.05 4.05 0 011.56 1.178c.406.494.68 1.089.82 1.785.153.685.144 1.447-.028 2.286a4.218 4.218 0 01-.583 1.474c-.266.43-.592.795-.977 1.093a4.417 4.417 0 01-1.3.66c-.48.142-.99.212-1.53.21zm-4.251 4.589a.666.666 0 01-.378-.11.466.466 0 01-.197-.289 1.022 1.022 0 01.003-.468c.036-.18.103-.348.2-.503.084-.144.181-.323.29-.539.11-.203.224-.467.346-.79a8.97 8.97 0 00.348-1.277c.184-.875.284-1.75.3-2.626.016-.876.026-1.764.03-2.664.016-.912.11-1.824.283-2.735.061-.3.164-.521.309-.664a.762.762 0 01.559-.232.604.604 0 01.467.2c.132.12.22.29.268.506.047.204.04.432-.021.683-.148.72-.24 1.403-.28 2.051-.027.636-.042 1.26-.044 1.872.009.612 0 1.224-.027 1.836a11.776 11.776 0 01-.243 1.889c-.11.587-.245 1.12-.403 1.6a6.54 6.54 0 01-.528 1.222c-.181.335-.38.592-.597.77-.205.18-.433.269-.685.268zm11.152-4.449c-.288-.001-.503-.17-.645-.507-.143-.337-.146-.84-.011-1.512.061-.324.177-.815.349-1.474.17-.672.432-1.39.783-2.157.413-.91.782-1.628 1.108-2.155.327-.538.647-.927.96-1.165.313-.239.631-.357.955-.356a.644.644 0 01.575.309c.143.204.244.45.303.74.058.287.105.576.14.864.046.384.104.81.174 1.279.082.468.17.942.263 1.423.106.48.224.937.354 1.37.142.432.302.799.48 1.1l-.648.14a43.21 43.21 0 011.125-2.046c.4-.682.799-1.334 1.198-1.957.398-.622.773-1.178 1.123-1.668.387-.515.712-.88.977-1.094.277-.215.524-.322.74-.32.156 0 .3.037.431.11.132.06.246.133.341.217.132.133.233.295.304.487.071.193.082.48.032.865a32.615 32.615 0 00-.227 2.339c-.027.683-.035 1.26-.026 1.727.009.828.066 1.489.171 1.981.118.493.158.811.122.955a.542.542 0 01-.254.377.742.742 0 01-.487.16c-.288-.002-.527-.141-.718-.418-.178-.277-.29-.65-.337-1.117-.046-.433-.08-.979-.1-1.639-.009-.66.012-1.398.064-2.214.064-.827.164-1.679.3-2.554l.523-.124c-.29.419-.617.897-.98 1.436-.35.526-.712 1.076-1.087 1.65a94.358 94.358 0 00-1.052 1.706 31.613 31.613 0 00-.871 1.598c-.133.227-.29.406-.47.538a.933.933 0 01-.595.195c-.288-.001-.528-.069-.72-.201a1.894 1.894 0 01-.465-.579 6.597 6.597 0 01-.32-.83l-.195-.702a24.79 24.79 0 01-.475-2.27 25.06 25.06 0 01-.174-1.279 10.97 10.97 0 01-.067-1.206l.54-.142c-.41.586-.773 1.16-1.087 1.723a13.326 13.326 0 00-.782 1.743 15.686 15.686 0 00-.531 1.905c-.098.468-.172.875-.222 1.223a9.119 9.119 0 01-.111.792 1.247 1.247 0 01-.255.52c-.12.144-.295.215-.523.214zm15.339.071c-.408-.002-.732-.1-.97-.293a1.684 1.684 0 01-.501-.758 3.282 3.282 0 01-.157-1.045c.013-.384.057-.756.13-1.115.074-.312.172-.683.294-1.115.134-.431.28-.88.438-1.348.158-.467.31-.904.456-1.312.158-.407.285-.724.383-.952.157-.42.297-.743.418-.97.133-.227.29-.34.47-.34.156 0 .3.056.43.164a.926.926 0 01.287.415.964.964 0 01.051.559 5.668 5.668 0 01-.255.826c-.134.36-.286.761-.456 1.204-.17.444-.334.893-.492 1.348a9.016 9.016 0 00-.348 1.205 6.83 6.83 0 00-.148.935c-.025.288-.015.528.033.72.047.18.148.27.304.271.384.002.872-.338 1.463-1.019.603-.681 1.274-1.62 2.011-2.817.338-.526.635-1.017.889-1.471.254-.455.478-.85.671-1.185a4.06 4.06 0 01.562-.808c.181-.191.361-.286.541-.285.276.001.474.11.593.326.131.205.19.481.176.83a22.48 22.48 0 01-.041 1.151l-.043 1.404a23.93 23.93 0 00-.006 1.314c.033.696.096 1.266.19 1.71.106.433.2.782.284 1.046.082.265.117.48.105.649a.882.882 0 01-.128.377.964.964 0 01-.271.269.635.635 0 01-.36.106c-.277-.001-.504-.128-.683-.381-.167-.253-.297-.607-.391-1.064-.094-.456-.17-.99-.227-1.603-.022-.432-.044-.894-.066-1.386a30.39 30.39 0 01.007-1.476c.027-.492.053-.948.079-1.368l.52.183c-.145.275-.302.568-.471.88-.158.31-.351.664-.581 1.059-.218.383-.49.837-.816 1.364a18.601 18.601 0 01-1.341 1.848 8.235 8.235 0 01-1.5 1.415c-.506.358-1.017.535-1.533.533zm13.689-.045c-.576-.003-1.08-.083-1.51-.241-.432-.158-.761-.364-.988-.617-.227-.253-.316-.517-.266-.793a.882.882 0 01.2-.377.481.481 0 01.378-.16.6.6 0 01.324.091c.095.06.21.133.34.218.132.084.324.163.576.236.251.062.593.093 1.025.095.672.003 1.255-.156 1.748-.478.506-.333.833-.902.98-1.705.123-.564.131-1.074.025-1.53a2.728 2.728 0 00-.552-1.209 2.61 2.61 0 00-1.058-.796c-.432-.183-.923-.275-1.475-.277a4.139 4.139 0 00-.847.086 3.81 3.81 0 01-.756.086.728.728 0 01-.36-.091.516.516 0 01-.214-.29.734.734 0 01-.017-.36c.074-.323.291-.568.652-.735.373-.178.937-.265 1.693-.262.804.004 1.517.145 2.14.424a4.051 4.051 0 011.56 1.177c.406.494.68 1.09.82 1.786.153.685.144 1.447-.028 2.286a4.216 4.216 0 01-.583 1.474 4.07 4.07 0 01-.977 1.093 4.417 4.417 0 01-1.299.66c-.48.142-.99.211-1.53.209zM60.84 34.43a.666.666 0 01-.378-.11.466.466 0 01-.196-.288 1.022 1.022 0 01.002-.468c.037-.18.103-.348.2-.503.085-.144.182-.324.29-.539.11-.203.225-.467.346-.79a8.97 8.97 0 00.348-1.277c.184-.875.284-1.75.3-2.627a192.5 192.5 0 00.03-2.663c.017-.912.111-1.824.283-2.735.062-.3.165-.521.31-.665a.762.762 0 01.558-.231c.192 0 .348.068.467.2a.93.93 0 01.268.505c.047.204.04.433-.021.684-.147.72-.24 1.403-.28 2.05-.026.637-.041 1.26-.044 1.873.009.612 0 1.224-.027 1.836a11.776 11.776 0 01-.242 1.889c-.111.587-.245 1.12-.404 1.6a6.597 6.597 0 01-.527 1.221c-.182.335-.381.592-.598.771a1 1 0 01-.685.267zm13.134.06c-.732-.002-1.35-.077-1.853-.224-.504-.134-.869-.322-1.096-.563-.227-.24-.31-.5-.248-.775a.869.869 0 01.236-.467c.132-.107.313-.16.54-.16a.869.869 0 01.396.093c.12.06.258.127.413.2.156.084.372.157.647.218.288.062.666.094 1.134.096.576.002 1.056-.121 1.442-.372a2.66 2.66 0 00.923-1.057c.242-.455.424-.982.547-1.582a7.8 7.8 0 00.149-1.025c.037-.336.075-.696.113-1.08.037-.384.087-.827.15-1.331a26.16 26.16 0 01.296-1.817l.556.525c-.388.826-.775 1.502-1.162 2.029-.386.514-.76.914-1.121 1.2-.362.275-.704.465-1.029.572a2.903 2.903 0 01-.847.14c-1.043-.005-1.767-.44-2.171-1.306-.404-.878-.41-2.276-.017-4.194.16-.804.318-1.409.476-1.816.17-.407.345-.683.526-.826a.885.885 0 01.559-.213c.18 0 .324.05.431.146.108.084.161.229.16.433.011.204-.032.48-.13.827a25.22 25.22 0 00-.46 2.122 9.191 9.191 0 00-.151 1.71c.01.491.086.876.229 1.152.142.265.376.398.7.4.504.002.997-.254 1.48-.768.482-.526.935-1.232 1.359-2.117.436-.898.83-1.905 1.184-3.02.11-.335.219-.556.327-.664.109-.12.277-.178.505-.177.168 0 .318.055.45.164.143.108.226.3.248.577.035.264-.02.624-.166 1.08a19.272 19.272 0 00-.422 1.635c-.086.48-.148.942-.186 1.385-.038.432-.07.876-.097 1.332-.014.444-.052.936-.114 1.476a25.896 25.896 0 01-.297 1.834c-.16.803-.39 1.474-.693 2.013-.303.55-.653.987-1.05 1.31a3.52 3.52 0 01-1.335.677 5.31 5.31 0 01-1.531.209zm11.096-4.466c-.744-.003-1.367-.108-1.87-.315-.491-.218-.868-.514-1.13-.887a3.085 3.085 0 01-.498-1.334 5.275 5.275 0 01.098-1.656 6.693 6.693 0 01.692-1.76 7.47 7.47 0 011.25-1.633 6.115 6.115 0 011.679-1.162 4.474 4.474 0 011.964-.441c.636.003 1.157.107 1.564.313.42.206.706.508.86.904.166.397.188.895.065 1.494a3.05 3.05 0 01-.6 1.312c-.29.37-.657.687-1.102.949-.433.25-.92.445-1.46.587a6.96 6.96 0 01-1.694.19c-.816-.004-1.361-.102-1.636-.295-.263-.194-.37-.41-.321-.65.024-.144.079-.245.163-.305.084-.072.217-.107.397-.106.132 0 .287.025.467.074.192.037.474.056.846.058.6.002 1.14-.079 1.621-.245.493-.165.896-.392 1.21-.678a2 2 0 00.598-1.023c.074-.36.027-.63-.14-.811-.156-.18-.467-.272-.935-.274a2.981 2.981 0 00-1.352.317 4.599 4.599 0 00-1.191.84c-.362.36-.67.772-.924 1.239-.254.466-.43.958-.529 1.473a3.06 3.06 0 00-.023 1.188c.07.348.249.637.536.867.299.217.724.327 1.276.33.624.002 1.158-.073 1.603-.227a5.15 5.15 0 001.155-.57c.313-.215.578-.4.794-.555.217-.155.41-.232.577-.232.204.002.348.08.431.236.096.145.119.337.07.577-.05.24-.213.49-.49.754-.265.25-.614.489-1.047.715-.421.226-.89.41-1.407.551a6.158 6.158 0 01-1.567.191zm6.93-7.24c-.276-.001-.491-.086-.647-.255a.631.631 0 01-.14-.577.696.696 0 01.217-.34c.108-.096.3-.18.577-.25.432-.118 1.009-.223 1.73-.316a19.908 19.908 0 012.556-.132c.504.002.966.016 1.386.042.432.014.906.058 1.421.133.408.05.72.147.935.292.227.145.322.308.286.487a.827.827 0 01-.164.36.76.76 0 01-.325.232c-.132.06-.3.089-.504.088a12.565 12.565 0 01-.882-.04 88.494 88.494 0 00-1.08-.077 11.958 11.958 0 00-1.152-.06c-.828-.003-1.494.03-1.998.1a10.38 10.38 0 00-1.261.21c-.337.07-.655.104-.955.103zm2.577 7.32a.651.651 0 01-.593-.327 2.409 2.409 0 01-.248-.829 7.182 7.182 0 01.005-1.026c.038-.444.1-.924.186-1.44.087-.527.179-1.036.277-1.528.135-.66.252-1.24.35-1.744.11-.516.197-.941.258-1.277l1.62-.1c-.048.203-.11.46-.183.773-.061.3-.129.64-.203 1.025-.073.371-.153.755-.239 1.15-.074.384-.147.756-.221 1.116a14.386 14.386 0 00-.241 1.51 9.36 9.36 0 00-.022.972c.01.252.021.462.033.63.01.157.004.3-.02.432a.946.946 0 01-.146.36.676.676 0 01-.271.215.694.694 0 01-.342.088zm8.863-.014c-.888-.003-1.619-.18-2.194-.531a2.882 2.882 0 01-1.181-1.482c-.213-.637-.234-1.369-.062-2.196a5.97 5.97 0 01.783-1.959 6.346 6.346 0 011.412-1.577 6.714 6.714 0 011.84-1.054 5.663 5.663 0 012.036-.368c.312.001.588.05.828.148.239.085.413.217.52.398.119.169.148.379.087.63a1.05 1.05 0 01-.273.54.672.672 0 01-.469.177.547.547 0 01-.305-.073 3.995 3.995 0 00-.234-.145c-.071-.049-.197-.073-.377-.074a3.78 3.78 0 00-1.929.513 4.944 4.944 0 00-1.536 1.325 4.382 4.382 0 00-.818 1.742c-.086.504-.076.942.03 1.314.119.36.333.644.644.85.323.205.719.308 1.187.31.528.003.948-.055 1.261-.174.312-.13.559-.273.74-.428.192-.155.349-.293.47-.412a.543.543 0 01.414-.196c.228.001.384.056.468.164.095.109.118.295.069.558a2.047 2.047 0 01-.617 1.06c-.325.298-.734.53-1.227.696a4.71 4.71 0 01-1.567.245zm11.895.092a.73.73 0 01-.7-.436c-.131-.3-.201-.666-.211-1.099.001-.216.008-.462.022-.737.013-.276.038-.558.075-.846.05-.288.093-.552.13-.792l.184-.809c.085-.323.171-.653.256-.989.098-.347.183-.665.257-.952.085-.3.146-.528.183-.683.025-.156-.011-.27-.107-.343-.095-.084-.263-.127-.503-.128a6 6 0 00-.63.033 10.09 10.09 0 00-.739.104 5.621 5.621 0 00-1.64.569c-.469.25-.735.536-.796.86-.061.276-.033.528.086.756.131.217.389.392.772.526.395.134.965.203 1.709.206a15.229 15.229 0 001.548-.064c.252-.036.463-.059.631-.07a3.09 3.09 0 01.324-.035c.3.002.552.021.756.058.203.037.281.163.232.38-.037.239-.17.43-.399.573-.217.143-.505.244-.865.302a7.3 7.3 0 01-1.225.085l-1.854-.009a4.891 4.891 0 01-1.798-.332c-.539-.219-.952-.527-1.238-.924-.274-.397-.362-.86-.263-1.387.073-.324.231-.66.472-1.006.254-.359.615-.693 1.085-1.003.481-.31 1.106-.559 1.875-.747a9.214 9.214 0 011.387-.264c.373-.034.745-.05 1.117-.049.468.002.833.07 1.097.203.263.133.442.314.537.543.107.228.13.492.069.792a9.63 9.63 0 01-.239.917c-.109.347-.219.707-.329 1.078-.097.36-.183.684-.256.971-.061.288-.117.6-.166.935-.05.324-.087.642-.113.954-.025.312-.038.582-.039.81-.002.264.003.546.014.846.022.288.021.486-.003.594a.709.709 0 01-.236.43.674.674 0 01-.469.179zm-6.336-.048a.616.616 0 01-.503-.218.667.667 0 01-.105-.522c.036-.132.127-.264.271-.395.145-.143.386-.298.723-.465a9.468 9.468 0 001.715-1.108c.578-.453 1.156-.96 1.735-1.522l1.131.653c-.41.442-.856.878-1.338 1.308-.47.418-.94.8-1.41 1.146a9.3 9.3 0 01-1.263.822c-.385.202-.704.303-.956.301zm20.099.129c-.984-.004-1.793-.224-2.427-.66a3.329 3.329 0 01-1.288-1.751c-.224-.745-.245-1.591-.06-2.538a5.02 5.02 0 01.692-1.761 5.942 5.942 0 011.122-1.291 4.775 4.775 0 011.264-.768c.42-.178.781-.267 1.081-.265a.82.82 0 01.323.055.405.405 0 01.216.181c.059.073.077.175.052.306-.061.24-.158.462-.291.665-.133.192-.38.364-.74.519-.433.202-.8.428-1.101.679a2.97 2.97 0 00-.706.842 3.314 3.314 0 00-.383 1.133c-.197.97-.087 1.751.331 2.341.417.578 1.058.87 1.922.873.84.004 1.573-.293 2.2-.89.639-.609 1.056-1.417 1.253-2.424.196-.923.14-1.643-.17-2.16-.31-.53-.824-.797-1.544-.8-.372-.002-.691.069-.955.212a6.52 6.52 0 00-.831.572c-.217.179-.392.34-.524.483a3.008 3.008 0 01-.362.34.612.612 0 01-.378.107.505.505 0 01-.396-.164c-.083-.12-.1-.306-.051-.558.049-.276.189-.557.418-.844a4.56 4.56 0 01.868-.788c.349-.25.722-.447 1.118-.589.397-.154.787-.23 1.171-.229.864.004 1.565.212 2.104.622.538.399.901.952 1.09 1.661.189.697.185 1.501-.011 2.412-.172.9-.5 1.69-.983 2.372a5.117 5.117 0 01-1.771 1.557 4.635 4.635 0 01-2.253.548zm7.199-7.275c-.276-.001-.492-.086-.647-.255a.631.631 0 01-.141-.576.693.693 0 01.217-.341c.109-.096.301-.179.577-.25.433-.118 1.009-.223 1.73-.316a19.892 19.892 0 012.556-.132c.504.002.966.017 1.386.042.432.014.906.059 1.422.133.407.05.719.147.934.292.228.145.323.308.286.488a.816.816 0 01-.164.359.748.748 0 01-.325.232c-.132.06-.3.089-.504.088a12.516 12.516 0 01-.882-.04c-.336-.026-.696-.051-1.08-.077a11.894 11.894 0 00-1.151-.06c-.828-.003-1.495.03-1.999.1-.504.057-.924.127-1.261.21a4.54 4.54 0 01-.954.103zm2.576 7.32a.652.652 0 01-.593-.327c-.119-.216-.201-.493-.248-.829a7.175 7.175 0 01.005-1.026c.038-.444.1-.923.187-1.439.086-.527.178-1.037.277-1.529.135-.659.251-1.24.35-1.744.11-.516.196-.941.258-1.277l1.62-.1-.183.773c-.062.3-.129.641-.203 1.025a77.9 77.9 0 01-.239 1.15 91.91 91.91 0 01-.222 1.116 14.65 14.65 0 00-.241 1.51 9.51 9.51 0 00-.022.973c.011.252.022.462.033.63.011.156.005.3-.02.432a.946.946 0 01-.146.359.667.667 0 01-.271.215.692.692 0 01-.342.088zm7.984-2.879c-.456-.002-.834-.106-1.133-.311a1.808 1.808 0 01-.662-.85 3.01 3.01 0 01-.156-1.206 5.64 5.64 0 01.222-1.385 6.92 6.92 0 01.51-1.294c.218-.395.454-.718.707-.968.253-.251.505-.376.757-.375a.61.61 0 01.306.073.47.47 0 01.215.217.547.547 0 01.053.325c-.013.108-.074.275-.183.503-.097.215-.218.473-.363.772a6.592 6.592 0 00-.383.934 3.509 3.509 0 00-.184.99 2.53 2.53 0 00.051.558.558.558 0 00.197.325.735.735 0 00.413.11 2.8 2.8 0 001.19-.283c.408-.19.8-.452 1.173-.787a7.358 7.358 0 001.031-1.093c.302-.406.538-.813.708-1.22l.135 1.854a10.677 10.677 0 01-1.393 1.614 5.882 5.882 0 01-1.571 1.109 3.697 3.697 0 01-1.64.388zm3.82 2.952c-.264-.002-.449-.105-.556-.309a2.685 2.685 0 01-.231-.775 6.5 6.5 0 01-.014-.864c.026-.36.07-.744.132-1.151.062-.408.135-.798.221-1.17.061-.275.141-.587.238-.934.098-.36.202-.72.311-1.079.11-.36.22-.695.329-1.006.109-.324.195-.582.256-.773.121-.384.255-.683.4-.898.157-.216.343-.323.559-.322.204.001.378.128.52.38.143.253.172.571.086.955a7.971 7.971 0 01-.311 1.079c-.158.443-.316.904-.474 1.383-.146.468-.256.875-.33 1.223a15.807 15.807 0 00-.259 1.475c-.05.42-.075.791-.077 1.115-.013.24-.014.438-.003.594a1.48 1.48 0 01-.02.414.885.885 0 01-.254.449c-.12.143-.295.215-.523.214zm7.166-.021c-.996-.005-1.769-.188-2.319-.551a2.551 2.551 0 01-1.073-1.499c-.166-.637-.168-1.35-.009-2.142a6.698 6.698 0 01.693-1.76 7.448 7.448 0 011.249-1.633 6.111 6.111 0 011.679-1.162 4.477 4.477 0 011.964-.441c.636.003 1.158.107 1.565.313.419.206.706.507.86.904.166.397.188.895.065 1.494a3.038 3.038 0 01-.89 1.67c-.47.442-1.053.781-1.75 1.018a6.65 6.65 0 01-2.216.35c-.816-.004-1.362-.102-1.637-.296-.263-.193-.37-.41-.321-.65.025-.143.079-.245.164-.305.084-.071.216-.107.396-.106.132 0 .288.026.468.075.192.036.474.056.846.057.6.003 1.14-.078 1.621-.244.493-.166.896-.392 1.209-.679.313-.298.513-.64.599-1.023.073-.36.027-.63-.141-.81-.155-.181-.466-.273-.934-.275a2.985 2.985 0 00-1.352.318 4.606 4.606 0 00-1.192.84 5.315 5.315 0 00-.923 1.238 5.006 5.006 0 00-.529 1.474 3.068 3.068 0 00-.024 1.188c.071.348.249.637.536.866.299.218.725.328 1.277.33.624.003 1.158-.073 1.603-.227a5.14 5.14 0 001.154-.57c.313-.215.578-.4.795-.555.217-.154.409-.232.577-.23.204 0 .348.079.431.235.095.145.118.337.069.576-.049.24-.212.492-.489.754-.265.251-.614.49-1.047.715a6.76 6.76 0 01-1.407.552 6.157 6.157 0 01-1.567.19zm6.93-7.24c-.276-.002-.492-.087-.647-.255a.631.631 0 01-.141-.577.694.694 0 01.217-.341c.109-.096.301-.179.578-.25.432-.117 1.009-.223 1.729-.316a19.908 19.908 0 012.557-.132c.504.003.966.017 1.385.043.432.014.906.058 1.422.132.408.05.719.148.934.293.228.145.323.307.286.487a.762.762 0 01-.488.592c-.133.06-.301.088-.505.087a12.57 12.57 0 01-.882-.04c-.336-.025-.695-.05-1.079-.077a11.964 11.964 0 00-1.152-.059c-.828-.004-1.494.03-1.999.099-.504.057-.924.127-1.261.21a4.61 4.61 0 01-.954.104zm2.576 7.32a.65.65 0 01-.592-.327 2.4 2.4 0 01-.248-.83 7.149 7.149 0 01.004-1.025c.038-.444.101-.924.187-1.44a44.14 44.14 0 01.277-1.528c.135-.66.252-1.241.35-1.745.11-.515.196-.94.258-1.277l1.62-.1-.183.773c-.062.3-.129.642-.203 1.025a66.83 66.83 0 01-.239 1.151c-.074.384-.148.755-.221 1.115a14.4 14.4 0 00-.241 1.511 9.27 9.27 0 00-.023.972c.011.252.022.462.033.63.012.156.005.3-.02.432a.943.943 0 01-.145.36.68.68 0 01-.271.214.698.698 0 01-.343.088zm16.03.073c-.984-.004-1.793-.224-2.427-.659a3.323 3.323 0 01-1.288-1.752c-.225-.745-.245-1.59-.06-2.538.135-.671.365-1.258.692-1.76a5.942 5.942 0 011.122-1.292 4.755 4.755 0 011.263-.768c.421-.178.781-.266 1.081-.265.132 0 .24.02.324.056a.4.4 0 01.215.18c.06.073.078.175.053.307a2.2 2.2 0 01-.291.665c-.133.19-.38.364-.741.518-.432.202-.8.428-1.101.679a2.99 2.99 0 00-.706.843 3.327 3.327 0 00-.383 1.132c-.196.971-.086 1.752.331 2.342.418.578 1.058.869 1.922.872.84.004 1.574-.292 2.201-.89.638-.608 1.056-1.417 1.253-2.424.196-.923.139-1.643-.17-2.16-.31-.53-.825-.796-1.545-.8-.372-.001-.69.07-.955.212a6.611 6.611 0 00-.83.572c-.217.18-.392.34-.525.484a3.014 3.014 0 01-.361.34.615.615 0 01-.379.106.503.503 0 01-.395-.164c-.083-.12-.1-.306-.051-.558.049-.276.188-.557.418-.844.241-.287.53-.55.867-.788.349-.25.722-.447 1.119-.589.397-.154.787-.23 1.171-.228.864.004 1.565.211 2.103.622.538.398.902.952 1.091 1.66.188.697.185 1.501-.012 2.413-.172.899-.499 1.69-.983 2.371a5.108 5.108 0 01-1.771 1.558 4.628 4.628 0 01-2.252.547zm16.781-.048c-.576-.003-1.08-.083-1.511-.241-.431-.158-.76-.364-.987-.617-.227-.253-.316-.517-.266-.793a.878.878 0 01.199-.377.483.483 0 01.379-.16c.12 0 .228.03.324.091l.341.218c.131.084.323.163.575.236.251.062.593.093 1.025.095.672.003 1.255-.156 1.748-.478.506-.333.832-.902.98-1.705.123-.564.131-1.074.025-1.53a2.735 2.735 0 00-.552-1.209 2.61 2.61 0 00-1.059-.797c-.431-.182-.922-.274-1.474-.276a4.148 4.148 0 00-.847.086 3.77 3.77 0 01-.756.086.73.73 0 01-.36-.091.516.516 0 01-.214-.29.734.734 0 01-.017-.36c.074-.323.291-.568.652-.735.373-.178.937-.265 1.693-.262.804.004 1.517.145 2.14.424a4.053 4.053 0 011.561 1.177c.405.494.679 1.09.819 1.786.153.685.144 1.447-.028 2.286a4.226 4.226 0 01-.583 1.473 4.076 4.076 0 01-.977 1.094 4.41 4.41 0 01-1.299.66 5.299 5.299 0 01-1.531.209zm-4.251 4.588a.668.668 0 01-.378-.11.467.467 0 01-.196-.288 1.01 1.01 0 01.002-.468c.037-.18.103-.348.2-.503.085-.144.182-.324.291-.54.108-.203.224-.466.345-.79a8.85 8.85 0 00.348-1.276c.184-.875.284-1.75.3-2.627.016-.875.026-1.764.03-2.663.017-.912.111-1.824.283-2.735.061-.3.164-.521.309-.665a.762.762 0 01.559-.231c.192 0 .348.067.467.2a.93.93 0 01.268.505c.047.204.04.432-.021.684-.148.72-.241 1.403-.28 2.05-.027.637-.041 1.26-.044 1.873.009.612 0 1.224-.027 1.835a11.795 11.795 0 01-.242 1.89 12.64 12.64 0 01-.404 1.6 6.597 6.597 0 01-.527 1.221c-.182.335-.381.592-.598.771-.205.18-.433.268-.685.267zM210.05 30.6c-.744-.003-1.368-.108-1.871-.314-.491-.219-.868-.514-1.13-.887a3.092 3.092 0 01-.498-1.335 5.288 5.288 0 01.098-1.655 6.693 6.693 0 01.692-1.761 7.451 7.451 0 011.25-1.632 6.11 6.11 0 011.679-1.163 4.472 4.472 0 011.964-.44c.636.002 1.157.107 1.565.313.419.206.705.507.859.904.167.396.188.895.065 1.494a3.046 3.046 0 01-.6 1.311 3.89 3.89 0 01-1.102.95c-.433.25-.92.445-1.461.586a6.962 6.962 0 01-1.693.19c-.816-.003-1.361-.102-1.636-.295-.263-.193-.37-.41-.321-.65.024-.143.079-.245.163-.305.085-.071.217-.107.397-.106.132 0 .288.025.467.074.192.037.474.056.846.058.6.003 1.14-.079 1.621-.244.493-.166.896-.392 1.209-.679.314-.298.513-.64.599-1.023.074-.36.027-.63-.14-.81-.155-.181-.467-.273-.935-.275a2.98 2.98 0 00-1.351.318 4.592 4.592 0 00-1.192.84 5.279 5.279 0 00-1.453 2.712 3.047 3.047 0 00-.023 1.188c.07.348.249.637.536.866.299.217.724.327 1.276.33.624.003 1.159-.073 1.603-.227a5.153 5.153 0 001.155-.57c.313-.215.578-.4.794-.555.217-.155.41-.232.578-.231.204 0 .347.08.43.236.096.144.119.336.07.576-.049.24-.212.491-.49.754a4.65 4.65 0 01-1.047.715c-.421.226-.89.41-1.407.552a6.148 6.148 0 01-1.566.19zm9.404.008a6.06 6.06 0 01-1.35-.15 4.436 4.436 0 01-1.078-.437 2.164 2.164 0 01-.699-.652 1.305 1.305 0 01-.194-.81.792.792 0 01.201-.504c.132-.143.277-.214.433-.214.144.001.269.074.377.218.119.133.262.295.429.488.179.18.425.344.736.49.311.133.743.2 1.295.204.804.003 1.417-.138 1.838-.424.433-.298.651-.633.653-1.005.013-.204-.071-.378-.25-.523-.167-.157-.425-.29-.772-.4-.347-.121-.803-.226-1.367-.312-.455-.062-.749-.154-.88-.274a.553.553 0 01-.142-.469c.013-.192.133-.323.362-.394.228-.071.612-.153 1.153-.247.708-.117 1.273-.294 1.694-.532.433-.238.657-.525.67-.86.014-.325-.135-.572-.446-.741-.312-.181-.731-.273-1.259-.276-.6-.003-1.098.073-1.495.227a4.77 4.77 0 00-.956.446c-.229.155-.409.232-.541.231a.362.362 0 01-.306-.145.537.537 0 01-.07-.342c.013-.216.11-.432.291-.647.193-.215.446-.412.759-.59a4.187 4.187 0 011.136-.41 6.075 6.075 0 011.44-.155c1.056.005 1.835.2 2.338.587.514.386.757.916.73 1.587-.025.372-.177.738-.455 1.096-.265.347-.663.645-1.192.895-.529.238-1.202.39-2.018.459l-.017-.27c.744.003 1.35.084 1.817.242.479.146.826.376 1.041.689.227.3.327.68.301 1.135-.015.528-.221 1.007-.619 1.437-.386.419-.897.752-1.535 1.001a5.761 5.761 0 01-2.053.35zm8.977 4.595c-.732-.003-1.35-.078-1.853-.224-.503-.135-.868-.322-1.095-.563-.227-.241-.31-.5-.249-.775a.874.874 0 01.236-.467c.133-.108.313-.161.541-.16.144 0 .276.031.396.092.119.06.257.127.413.2.155.085.371.158.647.219.287.061.665.093 1.133.095.576.003 1.057-.121 1.442-.371a2.66 2.66 0 00.923-1.058c.242-.455.424-.982.547-1.582.074-.347.123-.689.149-1.025.038-.336.075-.696.113-1.08.038-.383.088-.827.15-1.33.062-.516.161-1.122.296-1.817l.556.524c-.388.826-.775 1.503-1.161 2.029-.387.514-.761.914-1.122 1.2-.361.275-.704.466-1.029.572a2.904 2.904 0 01-.846.14c-1.044-.005-1.768-.44-2.172-1.306-.404-.878-.41-2.276-.017-4.194.16-.803.319-1.409.477-1.816.169-.407.345-.682.525-.826a.885.885 0 01.559-.213c.18 0 .324.05.432.146.107.085.161.229.16.433.011.204-.033.48-.13.827a24.99 24.99 0 00-.46 2.122 9.167 9.167 0 00-.152 1.71c.01.492.086.876.229 1.153.143.264.376.397.7.399.504.002.997-.254 1.48-.768.482-.525.935-1.231 1.359-2.117.437-.898.831-1.904 1.184-3.019.11-.335.219-.557.327-.664.109-.12.277-.179.505-.178a.69.69 0 01.449.164c.144.109.227.301.25.577.035.264-.021.624-.167 1.08a19.174 19.174 0 00-.422 1.636c-.086.48-.148.94-.186 1.385-.038.432-.07.875-.096 1.331-.014.444-.053.936-.115 1.476-.063.527-.161 1.14-.297 1.834-.159.804-.39 1.475-.693 2.013-.302.55-.652.987-1.05 1.31a3.515 3.515 0 01-1.335.677 5.302 5.302 0 01-1.531.21zm7.26-4.448a.502.502 0 01-.395-.164.743.743 0 01-.16-.397 1.172 1.172 0 01.02-.54c.049-.216.164-.503.346-.862.194-.371.436-.784.726-1.239.29-.466.592-.933.906-1.4.339-.49.683-.975 1.033-1.453.362-.49.706-.927 1.032-1.31.326-.394.597-.704.814-.931.338-.335.657-.58.958-.734.313-.167.625-.25.937-.248.288.002.485.104.593.309.107.192.19.439.248.74.059.311.111.678.157 1.098.046.42.098.852.156 1.297.058.432.128.852.21 1.26.094.505.182.937.264 1.298.095.36.183.667.266.92.095.252.184.468.267.648.083.157.149.295.196.415.048.12.065.247.052.378a1.03 1.03 0 01-.146.45.837.837 0 01-.325.322.707.707 0 01-.415.124c-.228 0-.431-.11-.61-.326-.167-.23-.316-.536-.446-.92-.13-.385-.248-.8-.354-1.244-.059-.276-.135-.643-.229-1.1a62.615 62.615 0 01-.245-1.512 48.638 48.638 0 01-.209-1.585 21.294 21.294 0 01-.084-1.26l.359.145c-.337.31-.705.705-1.103 1.183-.386.466-.791.986-1.213 1.56a42.418 42.418 0 00-1.215 1.795 29.575 29.575 0 00-1.07 1.867c-.267.466-.496.82-.689 1.059-.181.239-.392.358-.632.357zm12.973.024c-.588-.003-1.062-.101-1.421-.295a2.02 2.02 0 01-.806-.814 3.008 3.008 0 01-.319-1.135c-.022-.42.01-.84.096-1.26.098-.491.25-1.025.457-1.6.207-.587.359-1.102.457-1.546.098-.503.16-.91.186-1.223a4.66 4.66 0 01.111-.755.962.962 0 01.128-.342.927.927 0 01.253-.233.803.803 0 01.396-.088c.336.002.564.153.682.453.131.289.153.65.067 1.08-.049.276-.128.6-.238.972-.11.36-.226.73-.347 1.114-.122.384-.232.749-.329 1.097-.098.347-.171.64-.22.88a5.42 5.42 0 00-.114 1.188c.011.336.105.6.284.793.192.181.497.273.917.275.348.001.714-.075 1.099-.23a4.453 4.453 0 001.083-.624c.337-.263.615-.556.832-.878.218-.335.333-.671.347-1.007.001-.156-.089-.276-.269-.361-.167-.097-.449-.146-.845-.148a10.34 10.34 0 00-1.35.084 18.135 18.135 0 00-2.36.457.538.538 0 01-.306-.056.517.517 0 01-.197-.199.463.463 0 01-.017-.288.888.888 0 01.164-.43.867.867 0 01.433-.269 7.85 7.85 0 01.884-.266 13.333 13.333 0 012.233-.404 8.218 8.218 0 011.045-.067c.588.003 1.037.083 1.349.24.323.158.544.375.663.652.118.276.165.594.139.954-.026.516-.196 1.025-.511 1.528a5.737 5.737 0 01-1.23 1.38 6.218 6.218 0 01-1.643 1 4.57 4.57 0 01-1.783.37zm6.354-7.243c-.276-.002-.492-.087-.647-.255a.631.631 0 01-.141-.577.7.7 0 01.217-.34c.109-.096.301-.18.578-.25.432-.118 1.009-.224 1.729-.316a19.918 19.918 0 012.557-.132c.504.002.966.016 1.386.042.432.014.905.058 1.421.133.408.05.719.147.935.292.227.145.322.307.285.487a.761.761 0 01-.488.592c-.133.06-.301.088-.505.087a12.57 12.57 0 01-.882-.04c-.335-.025-.695-.05-1.079-.076a11.964 11.964 0 00-1.152-.06c-.828-.004-1.494.03-1.998.099-.505.058-.925.128-1.261.21-.337.07-.655.105-.955.104zm2.576 7.32a.65.65 0 01-.592-.327 2.4 2.4 0 01-.248-.83 7.149 7.149 0 01.004-1.025c.038-.444.101-.924.187-1.44a44.14 44.14 0 01.277-1.528c.135-.66.252-1.24.35-1.744.111-.516.196-.942.258-1.277l1.621-.1c-.049.203-.111.46-.184.772-.061.3-.129.642-.203 1.025-.073.372-.153.756-.239 1.151-.074.384-.148.756-.221 1.115a14.4 14.4 0 00-.241 1.511 9.27 9.27 0 00-.023.972c.011.252.022.462.033.63.012.156.005.3-.02.432a.943.943 0 01-.145.36.68.68 0 01-.271.214.699.699 0 01-.343.089zm7.085-.004c-.552-.002-1.001-.136-1.348-.402-.335-.265-.567-.633-.697-1.101-.118-.469-.115-1.009.007-1.62.111-.576.312-1.15.602-1.725a8.847 8.847 0 011.106-1.651c.434-.526.91-.986 1.428-1.38a6.802 6.802 0 011.661-.946 4.846 4.846 0 011.765-.334c.276.001.492.074.647.22.156.144.203.36.141.648a.68.68 0 01-.199.377c-.109.095-.265.155-.469.178a5.593 5.593 0 00-2.344.889 6.838 6.838 0 00-1.79 1.738 5.745 5.745 0 00-.946 2.12 4.765 4.765 0 00-.113.953c-.001.276.057.636.175 1.08l-.678-1.245c.215.277.406.458.574.543.179.085.431.128.755.13.768.003 1.55-.485 2.347-1.466.796-.98 1.535-2.41 2.216-4.291.085-.228.199-.401.344-.52a.812.812 0 01.541-.196.692.692 0 01.628.363c.155.228.22.523.194.883a33.13 33.13 0 00-.081 2.051c.009.6.072 1.165.19 1.693.13.529.355 1.076.676 1.641.072.12.101.259.088.415a.87.87 0 01-.128.449.98.98 0 01-.307.359.737.737 0 01-.433.124.764.764 0 01-.431-.11.923.923 0 01-.251-.308 8.296 8.296 0 01-.445-.992 7.005 7.005 0 01-.319-1.19 9.215 9.215 0 01-.082-1.601c.014-.612.078-1.338.19-2.178l.648-.015c-.402 1.199-.845 2.21-1.328 3.036-.484.814-.991 1.472-1.522 1.973-.518.49-1.035.848-1.552 1.073-.518.226-1.004.338-1.46.335zm9.271-7.229c-.276-.001-.492-.086-.647-.255a.63.63 0 01-.142-.577.696.696 0 01.218-.34c.108-.096.301-.18.577-.25.433-.118 1.009-.223 1.73-.316a19.892 19.892 0 012.556-.132c.504.002.966.016 1.386.042.432.014.906.058 1.421.133.408.05.72.147.935.292.227.145.323.308.286.487a.817.817 0 01-.164.36.756.756 0 01-.325.232c-.132.06-.3.089-.504.088a12.57 12.57 0 01-.882-.04 121.45 121.45 0 00-1.08-.077 11.964 11.964 0 00-1.152-.06c-.828-.003-1.494.03-1.998.1a10.15 10.15 0 00-1.261.21c-.336.07-.654.104-.954.103zm2.576 7.32a.652.652 0 01-.593-.327c-.119-.216-.201-.493-.248-.829a7.175 7.175 0 01.005-1.026c.038-.444.1-.923.186-1.439a44.1 44.1 0 01.278-1.529c.135-.66.251-1.24.35-1.744.11-.516.196-.941.257-1.277l1.621-.1-.184.773c-.061.3-.129.641-.202 1.025-.074.371-.154.755-.24 1.15-.073.384-.147.756-.221 1.116-.123.6-.203 1.103-.241 1.51a9.23 9.23 0 00-.022.972c.011.253.022.462.033.63.011.157.004.3-.02.433a.945.945 0 01-.146.359.674.674 0 01-.271.215.691.691 0 01-.342.088zm7.084-.003c-.552-.003-1.001-.137-1.348-.402-.335-.266-.567-.633-.697-1.102-.118-.468-.115-1.008.008-1.62a6.53 6.53 0 01.602-1.725 8.793 8.793 0 011.105-1.65 8.627 8.627 0 011.429-1.38 6.796 6.796 0 011.66-.947 4.85 4.85 0 011.766-.334c.276.002.491.075.647.22.155.144.202.36.141.648a.689.689 0 01-.2.377c-.108.096-.265.155-.469.178a5.599 5.599 0 00-2.344.89 6.853 6.853 0 00-1.79 1.737 5.778 5.778 0 00-.946 2.12 4.759 4.759 0 00-.112.953c-.001.276.057.636.175 1.08l-.678-1.244c.214.277.405.458.573.543.18.084.431.127.755.129.768.003 1.551-.485 2.347-1.465.797-.98 1.535-2.411 2.216-4.292a1.2 1.2 0 01.344-.52.812.812 0 01.541-.196.693.693 0 01.629.363c.155.229.219.523.194.883-.052.756-.079 1.44-.082 2.051.009.6.073 1.165.19 1.693.13.529.355 1.076.677 1.642.071.12.101.258.088.414a.89.89 0 01-.128.45.982.982 0 01-.308.358.732.732 0 01-.432.124.77.77 0 01-.432-.11.935.935 0 01-.251-.307 8.296 8.296 0 01-.445-.992 7.103 7.103 0 01-.318-1.19 9.206 9.206 0 01-.083-1.602c.015-.612.078-1.338.19-2.177l.648-.015c-.401 1.198-.844 2.21-1.328 3.035-.484.814-.991 1.472-1.521 1.974-.518.49-1.036.847-1.553 1.072-.517.226-1.004.338-1.46.336zm9.018.113a.6.6 0 01-.378-.128c-.108-.072-.173-.192-.196-.36-.023-.169.026-.372.147-.612.109-.275.308-.616.598-1.023.29-.407.652-.861 1.087-1.363.434-.502.922-1.022 1.465-1.56a34.193 34.193 0 011.789-1.611 21.476 21.476 0 011.987-1.485c.446-.322.807-.56 1.084-.715.288-.167.517-.274.685-.32.168-.048.324-.071.468-.07.192 0 .348.061.467.182.132.108.179.276.142.504a.998.998 0 01-.254.485c-.133.143-.319.28-.56.412a16.148 16.148 0 00-2.817 1.895 25.734 25.734 0 00-2.531 2.454 31.772 31.772 0 00-2.19 2.672c-.182.227-.356.388-.525.483a.815.815 0 01-.468.16zm6.66-.005a.793.793 0 01-.486-.164c-.131-.109-.262-.32-.393-.632a27.252 27.252 0 00-.91-1.75 27.52 27.52 0 00-1.071-1.805 20.545 20.545 0 00-1.145-1.68 13.286 13.286 0 00-1.092-1.319 3.48 3.48 0 01-.536-.668.917.917 0 01-.105-.667 1.32 1.32 0 01.109-.305.495.495 0 01.199-.215.8.8 0 01.36-.07.95.95 0 01.594.182c.167.121.394.344.68.67.215.228.46.53.734.903.275.373.561.794.858 1.264.31.47.614.945.912 1.426.298.47.572.92.822 1.354.262.433.47.806.625 1.119.261.505.421.89.48 1.154.059.252.07.462.033.63a.722.722 0 01-.218.413c-.108.108-.258.16-.45.16zM2.04 45.66c-.408-.003-.732-.1-.971-.293a1.683 1.683 0 01-.5-.758 3.28 3.28 0 01-.158-1.045c.014-.384.058-.756.131-1.116.074-.311.172-.683.294-1.114a73.913 73.913 0 01.894-2.66c.158-.407.285-.725.382-.952.158-.42.298-.743.419-.97.133-.228.29-.341.47-.34.155 0 .3.055.43.164a.925.925 0 01.287.415.964.964 0 01.051.558 5.672 5.672 0 01-.256.827 112 112 0 01-.455 1.204c-.17.443-.334.892-.492 1.348a9.022 9.022 0 00-.348 1.204 6.83 6.83 0 00-.148.935c-.026.288-.015.528.032.72.047.18.15.271.305.272.384.002.872-.338 1.463-1.02.603-.68 1.273-1.62 2.01-2.816.34-.526.635-1.017.89-1.472.254-.455.478-.85.671-1.185.194-.347.38-.616.562-.807.18-.191.361-.287.541-.286.276.002.474.11.593.327.13.205.19.48.176.829-.002.312-.015.696-.042 1.152l-.042 1.403c-.014.468-.016.906-.006 1.314.033.697.096 1.267.19 1.711.106.433.2.781.283 1.046.083.264.118.48.105.648a.883.883 0 01-.127.378.964.964 0 01-.272.268.635.635 0 01-.36.107c-.42-.002-.719-.28-.896-.832-.178-.553-.312-1.292-.404-2.216a225.13 225.13 0 01-.066-1.387c-.01-.492-.007-.984.007-1.476.026-.492.052-.947.078-1.367l.521.182c-.205.42-.448.88-.726 1.383a45.93 45.93 0 01-1.143 1.92 18.594 18.594 0 01-1.34 1.848 8.234 8.234 0 01-1.5 1.415c-.507.358-1.017.536-1.533.533zm22.972.087c-.288-.001-.485-.158-.592-.47-.106-.313-.158-.71-.156-1.19.001-.36.033-.761.095-1.205.063-.456.13-.911.205-1.367.074-.456.142-.881.203-1.277.074-.396.13-.725.167-.99.05-.335.081-.623.094-.863.025-.24.038-.492.04-.756l.34.47-1.297-.006a20.82 20.82 0 00-1.386.048c-.528.021-1.05.055-1.566.1-.517.046-.949.11-1.297.192l.85-.986c.021.672-.024 1.35-.135 2.034-.1.683-.229 1.415-.388 2.194-.074.348-.154.737-.24 1.169a27.82 27.82 0 01-.275 1.24c-.098.396-.19.714-.275.953a1.239 1.239 0 01-.326.485.789.789 0 01-.523.178c-.24-.002-.413-.117-.52-.345-.107-.228-.124-.522-.05-.882.05-.264.116-.564.202-.9.086-.347.165-.706.24-1.078.073-.372.14-.707.202-1.007.135-.6.22-1.115.259-1.547.05-.444.088-.834.113-1.17.038-.335.087-.66.149-.97.073-.265.182-.468.327-.611.156-.144.373-.245.649-.303.408-.083.883-.14 1.423-.174a25.65 25.65 0 011.692-.082c.588-.01 1.146-.013 1.674-.01.696.003 1.2.143 1.51.42.311.278.393.765.246 1.46-.05.24-.111.575-.185 1.007-.074.432-.16.911-.259 1.439-.086.527-.16 1.061-.223 1.6-.063.529-.1 1.02-.115 1.476-.013.192-.014.39-.003.594.011.204.005.378-.02.522a.843.843 0 01-.849.608zm7.346-.056c-.576-.003-1.08-.083-1.511-.24-.432-.159-.76-.364-.988-.617-.226-.253-.315-.518-.266-.794a.88.88 0 01.2-.377.481.481 0 01.379-.16.6.6 0 01.323.091c.096.061.21.133.341.218.132.085.323.164.575.237.252.06.594.093 1.026.095.672.003 1.254-.157 1.748-.478.505-.334.832-.903.98-1.706.122-.563.13-1.073.025-1.53a2.73 2.73 0 00-.553-1.208 2.608 2.608 0 00-1.058-.797 3.799 3.799 0 00-1.475-.277 4.139 4.139 0 00-.846.086 3.82 3.82 0 01-.757.087.728.728 0 01-.36-.092.516.516 0 01-.214-.29.734.734 0 01-.016-.36c.073-.323.29-.568.651-.734.373-.178.938-.266 1.693-.262.804.003 1.518.145 2.14.423a4.05 4.05 0 011.561 1.178c.406.494.68 1.089.82 1.785.153.685.143 1.447-.029 2.286a4.22 4.22 0 01-.582 1.474c-.266.43-.592.795-.977 1.093a4.418 4.418 0 01-1.3.66c-.48.142-.99.212-1.53.21zm-4.252 4.589a.666.666 0 01-.377-.11.466.466 0 01-.197-.29 1.02 1.02 0 01.002-.467c.037-.18.104-.348.2-.503a9.48 9.48 0 00.291-.539c.109-.203.224-.467.346-.79.121-.324.237-.75.348-1.277a12.32 12.32 0 00.243-1.96c.039-.66.06-1.32.063-1.98.015-.672.036-1.344.063-2.016a13.56 13.56 0 01.244-2.069c.049-.204.11-.371.182-.503a.7.7 0 01.271-.287.789.789 0 01.415-.106.604.604 0 01.467.2c.131.12.22.29.267.506.048.204.04.432-.02.683a14.54 14.54 0 00-.28 2.051 49.68 49.68 0 00-.045 1.872c.01.612 0 1.224-.026 1.836a11.774 11.774 0 01-.243 1.889c-.11.587-.245 1.12-.403 1.6-.159.48-.334.886-.528 1.221-.181.336-.38.593-.598.772a1.007 1.007 0 01-.685.267zm14.628-4.415c-.984-.005-1.793-.224-2.427-.66a3.327 3.327 0 01-1.288-1.751c-.224-.745-.244-1.591-.06-2.538a5.016 5.016 0 01.692-1.761 5.963 5.963 0 011.122-1.291 4.769 4.769 0 011.264-.768c.42-.178.78-.267 1.08-.265.133 0 .24.019.325.055a.402.402 0 01.215.181c.06.072.077.175.052.306a2.2 2.2 0 01-.29.665c-.134.192-.38.364-.741.519-.433.202-.8.428-1.101.679-.29.238-.525.52-.706.842a3.32 3.32 0 00-.383 1.133c-.197.97-.086 1.751.33 2.341.418.578 1.059.869 1.923.873.84.004 1.573-.293 2.2-.89.639-.609 1.056-1.417 1.253-2.424.196-.923.14-1.643-.17-2.16-.31-.53-.824-.797-1.544-.8-.372-.002-.69.069-.955.211a6.58 6.58 0 00-.83.573c-.218.179-.392.34-.525.483a3.021 3.021 0 01-.362.34.614.614 0 01-.378.107.503.503 0 01-.395-.164c-.084-.12-.101-.306-.052-.558.05-.276.189-.557.418-.844.241-.287.53-.55.868-.788a4.58 4.58 0 011.119-.59 3.19 3.19 0 011.17-.228c.864.004 1.566.212 2.104.622.538.399.901.952 1.09 1.661.189.697.185 1.5-.011 2.412-.172.9-.5 1.69-.983 2.372a5.112 5.112 0 01-1.771 1.557 4.634 4.634 0 01-2.253.548zm12.948-10.776c-.504-.003-.93-.113-1.276-.33a2.207 2.207 0 01-.77-.832c-.167-.337-.244-.655-.23-.955.025-.324.117-.575.273-.755a.733.733 0 01.578-.267c.18 0 .311.103.394.308.095.192.196.409.303.65.095.228.22.426.376.595.167.169.418.254.754.255a1.3 1.3 0 00.469-.087 2.9 2.9 0 00.469-.25c.156-.108.295-.209.415-.304.265-.215.5-.394.705-.537.204-.155.409-.232.613-.231.144 0 .252.055.323.163.084.097.101.223.052.379-.06.215-.194.455-.399.718-.193.25-.446.49-.76.716a4.244 4.244 0 01-1.064.553 3.455 3.455 0 01-1.225.21zM51.24 45.886c-.408-.002-.731-.1-.97-.292a1.683 1.683 0 01-.5-.759 3.279 3.279 0 01-.158-1.044c.014-.384.057-.756.131-1.116.073-.311.171-.683.293-1.114.134-.432.28-.881.438-1.348.159-.468.31-.905.457-1.312.157-.408.285-.725.382-.953.158-.419.297-.742.418-.97.133-.227.29-.34.47-.34.156.001.3.056.431.165a.925.925 0 01.286.415.963.963 0 01.052.558 5.668 5.668 0 01-.256.827c-.134.36-.286.76-.456 1.204a44.6 44.6 0 00-.492 1.348 9.02 9.02 0 00-.347 1.204 6.832 6.832 0 00-.149.935c-.025.288-.014.528.033.72.047.18.149.271.305.272.384.002.871-.338 1.462-1.02.604-.68 1.274-1.62 2.011-2.816.339-.527.635-1.017.89-1.472.253-.455.477-.85.67-1.185.194-.347.382-.616.562-.807.181-.192.362-.287.542-.286.276.001.473.11.592.327.131.204.19.48.176.829-.001.312-.015.696-.04 1.151-.015.456-.03.924-.043 1.404a24.03 24.03 0 00-.006 1.314c.032.697.096 1.267.19 1.711.106.433.2.781.283 1.045.083.265.118.481.105.649a.882.882 0 01-.128.377.964.964 0 01-.271.27.635.635 0 01-.36.105c-.42-.001-.72-.279-.897-.832-.177-.552-.312-1.291-.404-2.215-.022-.433-.043-.895-.065-1.387-.01-.492-.008-.984.007-1.476.026-.492.052-.948.078-1.367l.521.182c-.206.419-.448.88-.726 1.383-.279.502-.66 1.143-1.143 1.92a18.598 18.598 0 01-1.34 1.848 8.232 8.232 0 01-1.501 1.415c-.506.358-1.017.536-1.533.533zm10.075-.979c.157-.36.357-.76.6-1.204.242-.455.502-.927.78-1.418.29-.49.58-.97.87-1.436.303-.479.587-.91.853-1.292.35-.49.7-.95 1.05-1.381.35-.43.681-.777.995-1.04.325-.274.602-.41.83-.41.24.001.45.104.628.309.191.205.358.542.5 1.01.094.337.194.763.3 1.28a34.349 34.349 0 01.523 3.513c.058.611.091 1.176.1 1.692l-1.584.136a22.57 22.57 0 00-.117-1.872 24.711 24.711 0 00-.243-1.981 20.739 20.739 0 00-.335-1.658c-.117-.48-.242-.805-.373-.974l.703-.14c-.386.406-.797.884-1.231 1.434-.423.55-.821 1.142-1.196 1.776-.278.467-.538.91-.78 1.329a33.2 33.2 0 00-.672 1.22 52.77 52.77 0 00-.581 1.186l-1.62-.08zm7.778 3.474c-.24-.002-.426-.086-.557-.255a.629.629 0 01-.123-.559c.024-.144.103-.36.237-.647.133-.275.272-.592.418-.952a6 6 0 00.33-1.114l.643.92a11.69 11.69 0 00-.792-.075c-.348-.025-.792-.04-1.332-.042a70.75 70.75 0 00-1.566.01 69.712 69.712 0 00-1.584.012c-.516.01-1.02.03-1.512.065-.492.021-.966.05-1.422.083-.457.046-.87.098-1.243.156l.705-.626a13.118 13.118 0 00-.132 1.26c-.013.239-.026.449-.039.629l-.002.378c-.013.204-.085.36-.218.467a.72.72 0 01-.505.178.584.584 0 01-.43-.164.865.865 0 01-.251-.434 2.158 2.158 0 01-.07-.558c.001-.132.008-.288.02-.468.002-.18.014-.36.04-.54.012-.18.03-.324.055-.431.05-.192.122-.36.219-.504a1.08 1.08 0 01.38-.394c.168-.107.384-.184.648-.23.3-.047.703-.087 1.207-.121a31.767 31.767 0 011.729-.1 52.841 52.841 0 011.998-.063c.684-.02 1.338-.03 1.962-.027l.648.003c.24.001.486.008.738.021.252.014.492.039.72.076.347.037.58.146.7.327.131.18.16.463.086.846-.061.3-.153.618-.274.953a5.562 5.562 0 01-.437.934c-.157.3-.326.539-.507.718-.169.179-.331.268-.487.268zm6.763-2.399c-.996-.005-1.769-.188-2.32-.551a2.555 2.555 0 01-1.073-1.499c-.164-.637-.167-1.35-.008-2.142a6.693 6.693 0 01.692-1.76 7.467 7.467 0 011.25-1.633 6.11 6.11 0 011.68-1.162 4.473 4.473 0 011.963-.441c.948.004 1.643.235 2.085.693.454.458.59 1.131.405 2.018a3.036 3.036 0 01-.89 1.67c-.47.442-1.053.781-1.75 1.018a6.644 6.644 0 01-2.216.35c-.816-.004-1.362-.102-1.637-.296-.263-.193-.37-.41-.32-.65.024-.143.078-.245.163-.304.084-.072.216-.107.396-.107.132.001.288.026.468.075.192.036.474.056.846.057.6.003 1.14-.078 1.62-.244.494-.166.897-.392 1.21-.678a2 2 0 00.599-1.024c.073-.36.026-.63-.14-.81-.156-.181-.467-.273-.935-.275-.612-.002-1.195.175-1.749.532a5.232 5.232 0 00-1.446 1.416 5.12 5.12 0 00-.801 1.922 3.059 3.059 0 00-.024 1.188c.07.348.25.637.536.866.3.218.725.328 1.277.33.624.003 1.158-.072 1.603-.226a5.155 5.155 0 001.154-.571c.314-.215.578-.4.795-.554.217-.155.41-.233.577-.232.204.001.348.08.431.236.095.145.118.337.07.576-.05.24-.213.491-.49.754-.265.251-.614.49-1.047.715-.421.227-.89.41-1.407.552a6.158 6.158 0 01-1.567.19zm7.478.052a.74.74 0 01-.664-.38c-.155-.254-.25-.602-.283-1.046-.022-.456.028-.99.151-1.601.147-.636.311-1.115.493-1.438.193-.335.41-.562.65-.681.133-.072.32-.113.56-.124.24-.023.492-.033.756-.032.876.004 1.74-.034 2.592-.114a13.091 13.091 0 002.54-.529l.319 1.244c-.625.237-1.298.414-2.019.53-.72.117-1.453.198-2.197.242-.732.033-1.446.048-2.142.045l-1.043-.167c.159-.707.325-1.45.496-2.23.172-.78.319-1.474.442-2.086.049-.288.146-.521.29-.7.146-.18.308-.27.488-.268.3.001.522.122.664.363.143.228.16.595.05 1.098-.05.264-.123.582-.221.953-.098.372-.201.761-.311 1.169-.098.407-.196.797-.294 1.168-.085.36-.153.66-.202.9a25.831 25.831 0 00-.332 1.87c-.063.54-.119.947-.168 1.223a.753.753 0 01-.236.413.494.494 0 01-.379.178zm6.21.029c-.3-.002-.515-.177-.645-.525-.119-.349-.17-.823-.156-1.423a13.19 13.19 0 01.261-2.015c.246-1.15.46-2.062.643-2.733.195-.683.372-1.222.53-1.617a2.97 2.97 0 01.363-.7c.145-.204.319-.305.523-.304.264.001.45.128.556.38.12.24.142.535.068.883a9.72 9.72 0 01-.402 1.402c-.17.503-.311 1.048-.422 1.636a20.96 20.96 0 00-.315 1.96c-.05.576-.083 1.062-.097 1.458-.013.396-.045.69-.094.882a.84.84 0 01-.29.52.789.789 0 01-.523.196zm4.636.021a.74.74 0 01-.665-.38c-.154-.254-.249-.602-.283-1.046-.022-.456.029-.99.152-1.602a8.42 8.42 0 01.31-1.06 2.95 2.95 0 01.382-.682c.145-.18.295-.305.451-.376.133-.072.319-.113.559-.124.24-.023.492-.033.756-.032.876.004 1.74-.034 2.593-.114a13.086 13.086 0 002.54-.529l.318 1.244c-.625.237-1.297.414-2.018.53-.72.117-1.453.198-2.197.243-.732.032-1.446.047-2.142.044l-1.044-.167c.11-.48.22-.971.331-1.475.11-.503.215-1 .313-1.492.11-.492.208-.941.294-1.349.05-.288.147-.521.291-.7.145-.18.308-.27.488-.268.3.001.521.122.664.363.143.228.16.594.049 1.098-.05.264-.123.581-.22.953-.098.372-.202.761-.312 1.169-.098.407-.195.797-.293 1.168-.086.36-.153.66-.202.9a25.84 25.84 0 00-.333 1.87c-.062.54-.118.947-.168 1.223a.753.753 0 01-.236.413.494.494 0 01-.378.178zm6.21.029c-.3-.002-.516-.176-.646-.525-.118-.349-.17-.823-.155-1.423a13.19 13.19 0 01.26-2.015c.246-1.15.46-2.062.644-2.733.195-.683.371-1.222.529-1.617a2.96 2.96 0 01.363-.7c.145-.204.32-.305.524-.304.264.001.449.128.556.38.119.24.141.535.068.883-.086.431-.22.899-.403 1.402-.17.503-.311 1.048-.421 1.636-.148.72-.253 1.373-.315 1.96a28.23 28.23 0 00-.097 1.458c-.014.396-.045.69-.094.882a.843.843 0 01-.29.52.789.789 0 01-.523.196zm7.576.053c-.984-.005-1.793-.224-2.427-.66a3.329 3.329 0 01-1.288-1.751c-.225-.745-.245-1.592-.06-2.539a5.02 5.02 0 01.692-1.76 5.942 5.942 0 011.122-1.291 4.77 4.77 0 011.263-.768c.421-.179.782-.267 1.082-.265a.82.82 0 01.323.055.405.405 0 01.216.181c.059.072.077.174.052.306-.061.24-.158.462-.291.665-.133.191-.38.364-.74.519a5.08 5.08 0 00-1.102.678c-.289.24-.524.52-.705.843-.182.311-.31.689-.384 1.132-.196.971-.086 1.752.332 2.342.417.578 1.058.869 1.922.873.84.004 1.573-.293 2.2-.89.639-.61 1.056-1.417 1.253-2.424.196-.923.139-1.644-.17-2.161-.31-.53-.824-.796-1.544-.8-.372 0-.691.07-.955.212-.253.143-.53.334-.831.573-.217.179-.392.34-.524.483a3.085 3.085 0 01-.362.34.612.612 0 01-.378.107.504.504 0 01-.396-.164c-.083-.12-.1-.307-.051-.558.049-.276.188-.558.418-.844.241-.287.53-.55.867-.788a4.57 4.57 0 011.119-.59 3.18 3.18 0 011.171-.228c.864.004 1.565.211 2.103.622.539.398.902.952 1.091 1.66.189.698.185 1.502-.011 2.413-.173.9-.5 1.69-.983 2.371a5.11 5.11 0 01-1.772 1.558 4.629 4.629 0 01-2.252.548zm7.37.016c-.288-.002-.503-.17-.645-.507-.143-.337-.146-.84-.011-1.512.061-.324.177-.815.348-1.475.172-.67.433-1.39.784-2.156.413-.91.782-1.628 1.108-2.155.327-.538.647-.927.96-1.166.313-.238.631-.357.955-.355a.645.645 0 01.575.308c.143.205.244.452.303.74.058.288.105.576.14.865.046.384.104.81.174 1.278.082.469.169.943.263 1.424.106.48.224.937.354 1.37.142.432.302.799.481 1.1l-.649.14c.351-.682.726-1.364 1.126-2.046.399-.682.798-1.335 1.197-1.957a39.86 39.86 0 011.123-1.669c.387-.514.712-.878.977-1.093.277-.215.524-.322.74-.32.156 0 .3.037.431.11.132.06.246.132.341.217.132.132.233.295.304.487.071.192.082.48.032.864a33.09 33.09 0 00-.227 2.34c-.027.683-.036 1.26-.026 1.727.009.828.065 1.489.171 1.981.118.493.158.81.122.955a.54.54 0 01-.254.376.742.742 0 01-.487.16c-.288-.001-.527-.14-.718-.417-.178-.277-.291-.65-.337-1.118a22.89 22.89 0 01-.1-1.638c-.009-.66.012-1.398.064-2.214.064-.828.164-1.68.3-2.554l.523-.124c-.29.418-.617.897-.979 1.435a206.2 206.2 0 00-1.088 1.651c-.362.575-.713 1.143-1.052 1.706a31.832 31.832 0 00-.871 1.598c-.133.227-.29.406-.47.537a.934.934 0 01-.595.196c-.288-.002-.528-.069-.719-.202a1.885 1.885 0 01-.466-.578 6.656 6.656 0 01-.32-.83l-.195-.702a25.155 25.155 0 01-.649-3.55 10.904 10.904 0 01-.067-1.206l.541-.141c-.411.586-.774 1.16-1.088 1.723a13.3 13.3 0 00-.782 1.742 15.602 15.602 0 00-.531 1.906c-.098.468-.172.875-.222 1.223a8.908 8.908 0 01-.111.791 1.245 1.245 0 01-.255.521c-.12.144-.295.215-.523.214zm20.303.093c-.288 0-.503-.17-.646-.506-.142-.337-.146-.841-.011-1.513.062-.323.178-.815.349-1.474.171-.671.432-1.39.784-2.156.412-.91.781-1.629 1.108-2.155.326-.539.646-.927.959-1.166.313-.239.632-.357.956-.355a.646.646 0 01.575.308c.143.205.243.451.302.74.059.288.105.576.14.864.046.384.104.81.174 1.279.082.468.17.943.264 1.423.105.48.223.937.353 1.37.142.433.303.8.481 1.1l-.648.141c.351-.682.726-1.364 1.125-2.047a55.96 55.96 0 011.197-1.956c.399-.622.774-1.179 1.124-1.669.386-.514.712-.879.977-1.094.277-.214.523-.321.739-.32.156 0 .3.037.432.11.132.06.245.133.341.217.131.133.233.296.304.488.071.192.081.48.032.864a32.509 32.509 0 00-.227 2.339 29.24 29.24 0 00-.026 1.728c.008.828.065 1.488.171 1.98.117.493.158.811.121.955a.54.54 0 01-.253.377.744.744 0 01-.487.16c-.288-.002-.528-.14-.718-.418-.179-.276-.291-.649-.337-1.117-.046-.432-.08-.978-.101-1.639-.008-.66.013-1.398.065-2.213.063-.828.163-1.68.299-2.555l.523-.123c-.29.418-.616.897-.979 1.435-.35.526-.713 1.077-1.087 1.651a94.032 94.032 0 00-1.052 1.705 31.003 31.003 0 00-.871 1.598 1.74 1.74 0 01-.471.538.934.934 0 01-.595.195c-.288-.001-.528-.068-.719-.201a1.897 1.897 0 01-.465-.578 6.497 6.497 0 01-.32-.83 21.905 21.905 0 01-.442-1.748 25.068 25.068 0 01-.403-2.504 10.89 10.89 0 01-.066-1.206l.54-.141a20.34 20.34 0 00-1.088 1.723 13.44 13.44 0 00-.782 1.742 15.78 15.78 0 00-.53 1.905 19.25 19.25 0 00-.222 1.223 9.215 9.215 0 01-.112.792 1.243 1.243 0 01-.254.52c-.121.144-.295.215-.523.214zm15.536.055c-.552-.003-1.002-.137-1.348-.403-.335-.266-.567-.633-.697-1.101-.118-.469-.116-1.009.007-1.62.111-.576.311-1.15.602-1.726a8.799 8.799 0 011.106-1.65c.434-.526.91-.986 1.428-1.38a6.787 6.787 0 011.661-.946 4.843 4.843 0 011.765-.334c.276.001.492.074.647.219.155.145.202.36.141.648a.682.682 0 01-.2.378c-.108.095-.264.154-.469.177a5.604 5.604 0 00-2.344.89 6.853 6.853 0 00-1.79 1.737 5.759 5.759 0 00-.945 2.12 4.693 4.693 0 00-.113.953c-.001.276.057.637.175 1.081l-.678-1.245c.215.277.406.458.573.543.18.085.432.128.756.13.768.003 1.55-.486 2.347-1.466.796-.98 1.535-2.41 2.215-4.292.085-.227.2-.4.345-.52a.81.81 0 01.541-.196.692.692 0 01.628.363c.155.229.22.523.194.883a32.38 32.38 0 00-.081 2.052c.009.6.072 1.164.19 1.693a6.44 6.44 0 00.676 1.64c.072.121.101.26.088.415a.87.87 0 01-.128.45.98.98 0 01-.307.358.737.737 0 01-.433.124.77.77 0 01-.432-.11.934.934 0 01-.25-.307 7.103 7.103 0 01-.764-2.182 9.206 9.206 0 01-.083-1.602c.015-.612.078-1.337.19-2.177l.648-.015c-.401 1.198-.844 2.21-1.328 3.036-.483.814-.99 1.471-1.521 1.973-.518.49-1.036.847-1.553 1.073-.517.225-1.003.337-1.459.335zm9.27-7.23c-.276-.002-.491-.087-.647-.255a.631.631 0 01-.141-.577.696.696 0 01.218-.34c.108-.096.301-.18.577-.25.432-.118 1.009-.224 1.729-.316a19.936 19.936 0 012.557-.133c.504.003.966.017 1.386.043.432.014.906.058 1.421.133.408.05.72.147.935.292.227.145.322.307.286.487a.827.827 0 01-.164.36.756.756 0 01-.325.232 1.23 1.23 0 01-.505.088 12.612 12.612 0 01-.881-.04 121.45 121.45 0 00-1.08-.078 11.964 11.964 0 00-1.152-.059c-.828-.004-1.494.03-1.998.099-.505.058-.925.128-1.261.21-.337.07-.655.105-.955.104zm2.577 7.32a.652.652 0 01-.593-.327 2.4 2.4 0 01-.248-.83 7.175 7.175 0 01.005-1.025c.038-.444.1-.924.186-1.44.087-.527.179-1.037.277-1.528.135-.66.252-1.24.35-1.745.111-.515.197-.94.258-1.276l1.621-.1-.184.772c-.061.3-.129.642-.203 1.025-.073.372-.153.756-.239 1.151-.074.384-.147.756-.221 1.115a14.4 14.4 0 00-.241 1.511 9.23 9.23 0 00-.022.972c.01.252.021.462.033.63.011.156.004.3-.02.432a.961.961 0 01-.146.36.674.674 0 01-.271.214.691.691 0 01-.342.089zm8.827.004c-.996-.004-1.769-.188-2.319-.55a2.551 2.551 0 01-1.073-1.5c-.165-.636-.168-1.35-.008-2.141a6.659 6.659 0 01.692-1.761 7.446 7.446 0 011.249-1.632 6.1 6.1 0 011.68-1.163 4.472 4.472 0 011.964-.44c.636.002 1.157.107 1.564.313.419.206.706.507.86.904.166.396.188.895.065 1.494a3.031 3.031 0 01-.89 1.67c-.47.442-1.053.781-1.75 1.018a6.646 6.646 0 01-2.216.35c-.816-.004-1.361-.103-1.637-.296-.263-.193-.37-.41-.321-.65.025-.143.08-.245.164-.305.084-.071.216-.107.396-.106.132 0 .288.025.468.074.192.037.474.056.846.058.6.003 1.14-.079 1.621-.244.493-.166.896-.392 1.209-.679.313-.298.513-.64.599-1.023.073-.36.027-.63-.141-.81-.155-.181-.466-.273-.934-.275a2.984 2.984 0 00-1.352.318 4.609 4.609 0 00-1.192.84 5.315 5.315 0 00-.923 1.238 5.034 5.034 0 00-.529 1.474 3.068 3.068 0 00-.024 1.188c.071.348.249.637.536.866.299.217.725.327 1.277.33.624.003 1.158-.073 1.603-.227a5.153 5.153 0 001.155-.57c.313-.215.577-.4.794-.555.217-.155.409-.232.577-.231.204 0 .348.08.431.236.095.144.119.336.069.576-.049.24-.212.491-.489.754a4.65 4.65 0 01-1.047.715c-.421.226-.89.41-1.407.552a6.156 6.156 0 01-1.567.19zm10.431-.041c-.576-.003-1.08-.084-1.511-.241-.431-.158-.761-.364-.987-.617-.227-.253-.316-.517-.267-.793a.89.89 0 01.2-.377.483.483 0 01.379-.16c.12 0 .228.03.323.09l.341.219c.132.084.324.163.575.236.252.061.594.093 1.026.095.672.003 1.255-.156 1.748-.478.506-.334.832-.902.98-1.706.123-.563.131-1.073.025-1.53a2.735 2.735 0 00-.552-1.208 2.616 2.616 0 00-1.059-.797c-.431-.182-.923-.274-1.475-.277a4.132 4.132 0 00-.846.086c-.288.06-.54.088-.756.087a.73.73 0 01-.36-.092.518.518 0 01-.215-.289.746.746 0 01-.016-.36c.074-.324.291-.569.651-.735.373-.178.938-.266 1.694-.262.804.004 1.517.145 2.14.424a4.05 4.05 0 011.56 1.177c.406.494.679 1.09.82 1.786.153.685.143 1.447-.028 2.286a4.226 4.226 0 01-.583 1.473c-.266.43-.592.795-.977 1.094a4.435 4.435 0 01-1.299.66 5.299 5.299 0 01-1.531.209zm-4.252 4.588a.665.665 0 01-.377-.11.468.468 0 01-.197-.289 1.039 1.039 0 01.002-.468c.037-.18.104-.347.201-.503.084-.143.181-.323.29-.538.109-.204.224-.467.346-.79.121-.324.237-.75.348-1.277.135-.66.216-1.313.243-1.961.039-.66.06-1.32.063-1.98.015-.672.036-1.344.063-2.016.027-.684.109-1.373.244-2.069.049-.203.11-.371.182-.503a.704.704 0 01.271-.286.792.792 0 01.415-.106c.192 0 .348.067.467.2a.93.93 0 01.268.505c.047.204.04.432-.021.684-.148.72-.241 1.403-.28 2.05-.027.636-.042 1.26-.045 1.872.01.612.001 1.224-.026 1.836a11.798 11.798 0 01-.243 1.89 12.43 12.43 0 01-.403 1.6 6.53 6.53 0 01-.528 1.22c-.181.336-.38.593-.597.772a1.01 1.01 0 01-.686.267zm12.219-4.444c-.408-.002-.732-.1-.971-.292a1.69 1.69 0 01-.501-.758 3.316 3.316 0 01-.157-1.045c.014-.384.058-.756.131-1.116.074-.311.172-.683.294-1.114a73.913 73.913 0 01.894-2.66c.158-.407.285-.725.382-.953a8.69 8.69 0 01.419-.97c.133-.227.289-.34.469-.34.156.001.3.056.432.165a.935.935 0 01.286.415.965.965 0 01.051.558 5.649 5.649 0 01-.256.827 112 112 0 01-.455 1.204c-.17.443-.334.892-.493 1.348a9.067 9.067 0 00-.347 1.204 6.692 6.692 0 00-.148.935c-.026.288-.015.528.032.72.047.18.149.271.305.272.384.002.872-.338 1.463-1.02.603-.68 1.273-1.62 2.011-2.816a28.65 28.65 0 00.889-1.472c.254-.455.477-.85.671-1.185.194-.347.381-.616.562-.807.181-.192.361-.287.541-.286.276.001.474.11.593.327.131.205.189.48.176.829a22.24 22.24 0 01-.042 1.152l-.042 1.403c-.014.468-.016.906-.006 1.314.033.697.096 1.267.19 1.711.106.433.2.781.283 1.046.083.264.118.48.105.648a.87.87 0 01-.128.377.949.949 0 01-.271.27.633.633 0 01-.36.106c-.42-.002-.719-.28-.896-.833-.178-.552-.312-1.291-.404-2.216a224.79 224.79 0 01-.066-1.386c-.01-.492-.007-.984.007-1.476.026-.492.052-.947.078-1.367l.521.182c-.205.419-.448.88-.726 1.383a45.225 45.225 0 01-1.143 1.92 18.704 18.704 0 01-1.34 1.848 8.237 8.237 0 01-1.501 1.415c-.506.358-1.016.536-1.532.533zm11.728.036c-.552-.002-1.001-.136-1.348-.402-.335-.265-.567-.633-.697-1.101-.118-.469-.115-1.009.007-1.62.111-.576.312-1.15.602-1.725a8.847 8.847 0 011.106-1.651 8.626 8.626 0 011.428-1.38 6.805 6.805 0 011.661-.946 4.846 4.846 0 011.765-.334c.276.001.492.074.647.22.156.144.203.36.141.648a.68.68 0 01-.199.377c-.109.095-.265.155-.469.178a5.593 5.593 0 00-2.344.889 6.838 6.838 0 00-1.79 1.738 5.745 5.745 0 00-.946 2.12 4.765 4.765 0 00-.113.953c-.001.276.057.636.175 1.08l-.678-1.245c.215.277.406.458.574.543.179.085.431.128.755.13.768.003 1.55-.485 2.347-1.466.796-.98 1.535-2.41 2.216-4.291a1.2 1.2 0 01.344-.52.812.812 0 01.541-.196.692.692 0 01.628.363c.155.228.22.523.194.883a33.13 33.13 0 00-.081 2.051c.009.6.072 1.164.19 1.693.13.529.355 1.076.676 1.641.072.12.101.259.088.415a.87.87 0 01-.128.449.98.98 0 01-.307.359.737.737 0 01-.433.124.765.765 0 01-.431-.11.923.923 0 01-.251-.308 8.296 8.296 0 01-.445-.992 7.005 7.005 0 01-.319-1.19 9.215 9.215 0 01-.082-1.601c.014-.612.078-1.338.19-2.178l.648-.015c-.402 1.198-.845 2.21-1.328 3.036-.484.814-.991 1.472-1.521 1.973-.519.49-1.036.847-1.553 1.073-.517.226-1.004.337-1.46.335zm8.857.077a.503.503 0 01-.395-.164.75.75 0 01-.16-.396 1.186 1.186 0 01.021-.54c.048-.216.164-.504.345-.863.194-.37.436-.784.726-1.238.29-.467.593-.934.907-1.4.338-.49.682-.975 1.032-1.453.363-.49.707-.927 1.032-1.31.326-.394.598-.705.815-.932.337-.334.656-.579.957-.733.313-.167.625-.25.937-.248.288.001.486.104.593.309.107.192.19.438.248.739.059.312.111.678.157 1.098.046.42.098.853.156 1.297.058.432.128.853.211 1.261.093.505.181.937.264 1.297.094.36.183.667.265.92.095.252.184.468.267.649.084.156.149.294.196.415.048.12.065.246.053.378a1.056 1.056 0 01-.146.45.84.84 0 01-.326.322.701.701 0 01-.414.124c-.228-.001-.432-.11-.611-.327-.167-.229-.315-.535-.446-.92-.13-.385-.248-.8-.354-1.244-.059-.276-.135-.642-.229-1.099a51.563 51.563 0 01-.454-3.098 23.156 23.156 0 01-.084-1.26l.36.145c-.338.31-.706.705-1.104 1.183-.386.467-.79.987-1.213 1.56a41.48 41.48 0 00-1.214 1.795 29.595 29.595 0 00-1.071 1.867c-.266.467-.496.82-.689 1.06-.181.238-.392.357-.632.356zm13.857.028c-.996-.005-1.77-.188-2.32-.55a2.555 2.555 0 01-1.073-1.5c-.165-.636-.168-1.35-.008-2.142a6.693 6.693 0 01.692-1.76 7.477 7.477 0 011.249-1.633 6.13 6.13 0 011.68-1.162 4.472 4.472 0 011.964-.44c.948.003 1.643.235 2.085.693.454.458.589 1.13.404 2.018a3.036 3.036 0 01-.889 1.67c-.47.441-1.054.78-1.751 1.017a6.643 6.643 0 01-2.216.35c-.816-.004-1.361-.102-1.636-.295-.263-.194-.37-.41-.321-.65.024-.144.079-.245.163-.305.084-.072.217-.107.397-.106.132 0 .287.025.467.074.192.037.474.056.846.058.6.003 1.14-.079 1.621-.245.493-.165.896-.392 1.209-.678.314-.299.513-.64.599-1.023.074-.36.027-.63-.14-.811-.155-.18-.467-.272-.935-.274a3.136 3.136 0 00-1.748.532 5.231 5.231 0 00-1.447 1.415 5.114 5.114 0 00-.801 1.922 3.047 3.047 0 00-.023 1.188c.07.349.249.637.536.867.299.217.724.327 1.276.33.624.002 1.158-.073 1.603-.227a5.153 5.153 0 001.155-.57c.313-.215.578-.4.794-.555.217-.155.41-.232.578-.231.203 0 .347.08.43.236.096.144.119.336.07.576-.049.24-.213.49-.49.754-.265.25-.614.489-1.047.715a6.71 6.71 0 01-1.407.551 6.144 6.144 0 01-1.566.191z" fill="#7831B2"/></svg>