<svg width="337" height="154" fill="none" xmlns="http://www.w3.org/2000/svg"><path d="M162.91 76.671a1 1 0 10-2-.006l2 .006zm173.493-2.638a1 1 0 00.375-1.364l-4.447-7.824a1 1 0 00-1.739.988l3.953 6.955-6.954 3.954a1 1 0 00.988 1.738l7.824-4.447zm-173.401 3.325a1 1 0 00-1.997.11l1.997-.11zm173.279-3.624a1 1 0 00.396-1.358l-4.33-7.89a1 1 0 00-1.753.962l3.848 7.013-7.013 3.849a1 1 0 00.962 1.753l7.89-4.33zM160.91 76.665c-.031 10.46.479 22.645 1.813 34.148 1.333 11.483 3.495 22.363 6.801 30.171 1.652 3.902 3.623 7.117 5.987 9.248 2.396 2.16 5.211 3.211 8.422 2.701 3.154-.5 6.545-2.483 10.208-6.055 3.672-3.58 7.692-8.831 12.101-16.018l-1.704-1.046c-4.363 7.111-8.284 12.21-11.793 15.632-3.519 3.432-6.549 5.104-9.125 5.512-2.52.4-4.746-.387-6.77-2.212-2.056-1.853-3.886-4.767-5.484-8.541-3.193-7.543-5.33-18.196-6.656-29.623-1.324-11.408-1.831-23.512-1.8-33.91l-2-.007zm45.332 54.195c10.973-17.885 19.568-31.726 27.552-42.112 7.98-10.38 15.285-17.222 23.638-21.183 8.34-3.955 17.836-5.09 30.297-3.841 12.479 1.25 27.854 4.884 47.915 10.404l.53-1.929c-20.063-5.52-35.582-9.196-48.246-10.465-12.682-1.271-22.576-.138-31.353 4.024-8.763 4.156-16.3 11.279-24.366 21.771-8.062 10.486-16.715 24.425-27.671 42.285l1.704 1.046zm-45.237-53.392c.57 10.34 1.416 22.377 2.915 33.721 1.496 11.325 3.654 22.039 6.877 29.693 1.611 3.824 3.522 6.971 5.823 9.038 2.337 2.1 5.088 3.089 8.235 2.522 3.084-.556 6.408-2.582 10.019-6.178 3.622-3.607 7.611-8.87 12.019-16.055l-1.705-1.046c-4.363 7.113-8.258 12.231-11.725 15.684-3.479 3.463-6.451 5.174-8.962 5.627-2.449.441-4.593-.288-6.544-2.041-1.987-1.785-3.758-4.625-5.317-8.327-3.115-7.397-5.246-17.891-6.737-29.179-1.49-11.268-2.332-23.246-2.901-33.57l-1.997.11zm45.888 52.741c10.977-17.892 19.421-31.824 27.208-42.323 7.784-10.494 14.839-17.453 22.988-21.477 8.132-4.016 17.471-5.165 29.934-3.801 12.484 1.366 28.019 5.242 48.497 11.209l.56-1.92c-20.482-5.968-36.165-9.89-48.839-11.278-12.694-1.388-22.451-.243-31.037 3.996-8.568 4.23-15.851 11.486-23.709 22.08-7.854 10.587-16.354 24.615-27.307 42.468l1.705 1.046zM60.128 20.276c-.276 0-.468-.198-.576-.594-.096-.408-.114-.972-.054-1.692.06-.72.186-1.554.378-2.502.072-.36.174-.822.306-1.386.132-.576.276-1.188.432-1.836.156-.66.306-1.308.45-1.944.144-.648.27-1.224.378-1.728l.306.558c-.288-.06-.726-.114-1.314-.162a39.492 39.492 0 00-2.016-.108 51.58 51.58 0 00-2.412-.054c-.312 0-.612.006-.9.018-.288.012-.552.03-.792.054-.24.012-.45.018-.63.018s-.354-.03-.522-.09a.94.94 0 01-.396-.252.362.362 0 01-.072-.342.837.837 0 01.36-.522c.192-.132.456-.222.792-.27.336-.06.72-.09 1.152-.09a101.216 101.216 0 013.762.072c.6.024 1.134.054 1.602.09l1.08.054c.66.048 1.104.174 1.332.378.228.192.294.546.198 1.062-.108.504-.234 1.05-.378 1.638a90.19 90.19 0 01-.414 1.728c-.132.576-.258 1.116-.378 1.62s-.216.93-.288 1.278c-.204 1.02-.33 1.89-.378 2.61-.036.708-.084 1.194-.144 1.458-.036.18-.09.342-.162.486a.763.763 0 01-.288.324.654.654 0 01-.414.126zm-7.236-.018a.634.634 0 01-.486-.216c-.12-.156-.198-.366-.234-.63a2.835 2.835 0 01.054-.936c.084-.444.186-.924.306-1.44l.414-1.656c.144-.576.276-1.17.396-1.782.096-.468.198-.996.306-1.584.108-.6.198-1.2.27-1.8a8.47 8.47 0 00.054-1.62l1.692-.342c0 .456-.036.972-.108 1.548-.06.576-.138 1.152-.234 1.728-.084.576-.18 1.11-.288 1.602l-.252 1.26a95.187 95.187 0 01-.63 2.934l-.252 1.224c-.072.348-.126.594-.162.738-.072.348-.186.6-.342.756a.69.69 0 01-.504.216zm15.03.018c-.984 0-1.794-.216-2.43-.648a3.327 3.327 0 01-1.296-1.746c-.228-.744-.252-1.59-.072-2.538.132-.672.36-1.26.684-1.764a5.962 5.962 0 011.116-1.296 4.77 4.77 0 011.26-.774c.42-.18.78-.27 1.08-.27a.83.83 0 01.324.054.402.402 0 01.216.18c.06.072.078.174.054.306-.06.24-.156.462-.288.666-.132.192-.378.366-.738.522a5.055 5.055 0 00-1.098.684c-.288.24-.522.522-.702.846a3.32 3.32 0 00-.378 1.134c-.192.972-.078 1.752.342 2.34.42.576 1.062.864 1.926.864.84 0 1.572-.3 2.196-.9.636-.612 1.05-1.422 1.242-2.43.192-.924.132-1.644-.18-2.16-.312-.528-.828-.792-1.548-.792-.372 0-.69.072-.954.216a6.576 6.576 0 00-.828.576 5.45 5.45 0 00-.522.486 3.029 3.029 0 01-.36.342.614.614 0 01-.378.108.503.503 0 01-.396-.162c-.084-.12-.102-.306-.054-.558.048-.276.186-.558.414-.846.24-.288.528-.552.864-.792.348-.252.72-.45 1.116-.594a3.177 3.177 0 011.17-.234c.864 0 1.566.204 2.106.612.54.396.906.948 1.098 1.656.192.696.192 1.5 0 2.412-.168.9-.492 1.692-.972 2.376a5.112 5.112 0 01-1.764 1.566 4.633 4.633 0 01-2.25.558zm10.447-.054c-.888 0-1.62-.174-2.196-.522a2.88 2.88 0 01-1.188-1.476c-.216-.636-.24-1.368-.072-2.196a5.938 5.938 0 01.774-1.962 6.341 6.341 0 011.404-1.584 6.717 6.717 0 011.836-1.062 5.657 5.657 0 012.034-.378c.312 0 .588.048.828.144.24.084.414.216.522.396.12.168.15.378.09.63a1.048 1.048 0 01-.27.54.673.673 0 01-.468.18.55.55 0 01-.306-.072 4 4 0 00-.234-.144c-.072-.048-.198-.072-.378-.072-.684 0-1.326.174-1.926.522-.6.336-1.11.78-1.53 1.332a4.375 4.375 0 00-.81 1.746c-.084.504-.072.942.036 1.314.12.36.336.642.648.846.324.204.72.306 1.188.306.528 0 .948-.06 1.26-.18.312-.132.558-.276.738-.432.192-.156.348-.294.468-.414a.546.546 0 01.414-.198c.228 0 .384.054.468.162.096.108.12.294.072.558a2.05 2.05 0 01-.612 1.062c-.324.3-.732.534-1.224.702a4.71 4.71 0 01-1.566.252zm5.924.036c-.288 0-.504-.168-.648-.504-.144-.336-.15-.84-.018-1.512.06-.324.174-.816.342-1.476.168-.672.426-1.392.774-2.16.408-.912.774-1.632 1.098-2.16.324-.54.642-.93.954-1.17.312-.24.63-.36.954-.36.252 0 .444.102.576.306.144.204.246.45.306.738s.108.576.144.864c.048.384.108.81.18 1.278.084.468.174.942.27 1.422.108.48.228.936.36 1.368.144.432.306.798.486 1.098l-.648.144c.348-.684.72-1.368 1.116-2.052.396-.684.792-1.338 1.188-1.962.396-.624.768-1.182 1.116-1.674.384-.516.708-.882.972-1.098.276-.216.522-.324.738-.324.156 0 .3.036.432.108.132.06.246.132.342.216.132.132.234.294.306.486.072.192.084.48.036.864-.108.864-.18 1.644-.216 2.34-.024.684-.03 1.26-.018 1.728.012.828.072 1.488.18 1.98.12.492.162.81.126.954a.541.541 0 01-.252.378.742.742 0 01-.486.162c-.288 0-.528-.138-.72-.414-.18-.276-.294-.648-.342-1.116a22.824 22.824 0 01-.108-1.638 29.03 29.03 0 01.054-2.214c.06-.828.156-1.68.288-2.556l.522-.126c-.288.42-.612.9-.972 1.44-.348.528-.708 1.08-1.08 1.656-.36.576-.708 1.146-1.044 1.71a31.617 31.617 0 00-.864 1.602 1.732 1.732 0 01-.468.54.933.933 0 01-.594.198c-.288 0-.528-.066-.72-.198a1.892 1.892 0 01-.468-.576 6.616 6.616 0 01-.324-.828l-.198-.702a24.873 24.873 0 01-.486-2.268 25.135 25.135 0 01-.18-1.278 10.965 10.965 0 01-.072-1.206l.54-.144a20.15 20.15 0 00-1.08 1.728c-.3.564-.558 1.146-.774 1.746a15.678 15.678 0 00-.522 1.908c-.096.468-.168.876-.216 1.224a9.158 9.158 0 01-.108.792 1.248 1.248 0 01-.252.522c-.12.144-.294.216-.522.216zm17.678.018c-.984 0-1.794-.216-2.43-.648a3.327 3.327 0 01-1.296-1.746c-.228-.744-.252-1.59-.072-2.538.132-.672.36-1.26.684-1.764a5.953 5.953 0 011.116-1.296 4.77 4.77 0 011.26-.774c.42-.18.78-.27 1.08-.27a.83.83 0 01.324.054.402.402 0 01.216.18c.06.072.078.174.054.306-.06.24-.156.462-.288.666-.132.192-.378.366-.738.522a5.055 5.055 0 00-1.098.684c-.288.24-.522.522-.702.846a3.32 3.32 0 00-.378 1.134c-.192.972-.078 1.752.342 2.34.42.576 1.062.864 1.926.864.84 0 1.572-.3 2.196-.9.636-.612 1.05-1.422 1.242-2.43.192-.924.132-1.644-.18-2.16-.312-.528-.828-.792-1.548-.792-.372 0-.69.072-.954.216a6.576 6.576 0 00-.828.576 5.45 5.45 0 00-.522.486 3.029 3.029 0 01-.36.342.614.614 0 01-.378.108.503.503 0 01-.396-.162c-.084-.12-.102-.306-.054-.558.048-.276.186-.558.414-.846.24-.288.528-.552.864-.792.348-.252.72-.45 1.116-.594a3.177 3.177 0 011.17-.234c.864 0 1.566.204 2.106.612.54.396.906.948 1.098 1.656.192.696.192 1.5 0 2.412-.168.9-.492 1.692-.972 2.376a5.112 5.112 0 01-1.764 1.566 4.633 4.633 0 01-2.25.558zm7.165-7.308c-.276 0-.492-.084-.648-.252a.63.63 0 01-.144-.576.696.696 0 01.216-.342c.108-.096.3-.18.576-.252.432-.12 1.008-.228 1.728-.324a19.905 19.905 0 012.556-.144c.504 0 .966.012 1.386.036.432.012.906.054 1.422.126.408.048.72.144.936.288.228.144.324.306.288.486a.817.817 0 01-.162.36.756.756 0 01-.324.234c-.132.06-.3.09-.504.09-.252 0-.546-.012-.882-.036-.336-.024-.696-.048-1.08-.072a11.96 11.96 0 00-1.152-.054c-.828 0-1.494.036-1.998.108-.504.06-.924.132-1.26.216a4.56 4.56 0 01-.954.108zm2.61 7.308a.65.65 0 01-.594-.324 2.409 2.409 0 01-.252-.828 7.193 7.193 0 010-1.026c.036-.444.096-.924.18-1.44a44.51 44.51 0 01.27-1.53c.132-.66.246-1.242.342-1.746.108-.516.192-.942.252-1.278l1.62-.108-.18.774c-.06.3-.126.642-.198 1.026-.072.372-.15.756-.234 1.152a94.42 94.42 0 01-.216 1.116c-.12.6-.198 1.104-.234 1.512-.024.396-.03.72-.018.972s.024.462.036.63c.012.156.006.3-.018.432a.947.947 0 01-.144.36.676.676 0 01-.27.216.694.694 0 01-.342.09zm9.625-.126c-.576 0-1.08-.078-1.512-.234-.432-.156-.762-.36-.99-.612-.228-.252-.318-.516-.27-.792a.882.882 0 01.198-.378.482.482 0 01.378-.162c.12 0 .228.03.324.09l.342.216c.132.084.324.162.576.234.252.06.594.09 1.026.09.672 0 1.254-.162 1.746-.486.504-.336.828-.906.972-1.71.12-.564.126-1.074.018-1.53a2.73 2.73 0 00-.558-1.206 2.609 2.609 0 00-1.062-.792c-.432-.18-.924-.27-1.476-.27-.276 0-.558.03-.846.09-.288.06-.54.09-.756.09a.729.729 0 01-.36-.09.516.516 0 01-.216-.288.734.734 0 01-.018-.36c.072-.324.288-.57.648-.738.372-.18.936-.27 1.692-.27.804 0 1.518.138 2.142.414a4.05 4.05 0 011.566 1.17c.408.492.684 1.086.828 1.782.156.684.15 1.446-.018 2.286a4.216 4.216 0 01-.576 1.476 4.075 4.075 0 01-.972 1.098c-.384.288-.816.51-1.296.666-.48.144-.99.216-1.53.216zm-4.23 4.608a.665.665 0 01-.378-.108.467.467 0 01-.198-.288 1.022 1.022 0 010-.468c.036-.18.102-.348.198-.504.084-.144.18-.324.288-.54.108-.204.222-.468.342-.792.12-.324.234-.75.342-1.278.18-.876.276-1.752.288-2.628.012-.876.018-1.764.018-2.664.012-.912.102-1.824.27-2.736.06-.3.162-.522.306-.666a.762.762 0 01.558-.234c.192 0 .348.066.468.198.132.12.222.288.27.504.048.204.042.432-.018.684-.144.72-.234 1.404-.27 2.052-.024.636-.036 1.26-.036 1.872.012.612.006 1.224-.018 1.836a11.78 11.78 0 01-.234 1.89 12.51 12.51 0 01-.396 1.602c-.156.48-.33.888-.522 1.224-.18.336-.378.594-.594.774-.204.18-.432.27-.684.27zm12.197-4.5c-.408 0-.732-.096-.972-.288a1.684 1.684 0 01-.504-.756 3.281 3.281 0 01-.162-1.044c.012-.384.054-.756.126-1.116.072-.312.168-.684.288-1.116.132-.432.276-.882.432-1.35.156-.468.306-.906.45-1.314.156-.408.282-.726.378-.954a8.68 8.68 0 01.414-.972c.132-.228.288-.342.468-.342.156 0 .3.054.432.162a.925.925 0 01.288.414c.072.168.09.354.054.558a5.67 5.67 0 01-.252.828c-.132.36-.282.762-.45 1.206-.168.444-.33.894-.486 1.35-.156.444-.27.846-.342 1.206a6.83 6.83 0 00-.144.936c-.024.288-.012.528.036.72.048.18.15.27.306.27.384 0 .87-.342 1.458-1.026.6-.684 1.266-1.626 1.998-2.826.336-.528.63-1.02.882-1.476.252-.456.474-.852.666-1.188.192-.348.378-.618.558-.81.18-.192.36-.288.54-.288.276 0 .474.108.594.324.132.204.192.48.18.828 0 .312-.012.696-.036 1.152l-.036 1.404c-.012.468-.012.906 0 1.314.036.696.102 1.266.198 1.71.108.432.204.78.288 1.044.084.264.12.48.108.648a.883.883 0 01-.126.378.964.964 0 01-.27.27.635.635 0 01-.36.108c-.276 0-.504-.126-.684-.378-.168-.252-.3-.606-.396-1.062a14.96 14.96 0 01-.234-1.602c-.024-.432-.048-.894-.072-1.386a30.262 30.262 0 010-1.476c.024-.492.048-.948.072-1.368l.522.18c-.144.276-.3.57-.468.882-.156.312-.348.666-.576 1.062-.216.384-.486.84-.81 1.368a18.6 18.6 0 01-1.332 1.854 8.235 8.235 0 01-1.494 1.422c-.504.36-1.014.54-1.53.54zm10.014-7.29c-.276 0-.492-.084-.648-.252-.144-.168-.192-.36-.144-.576a.696.696 0 01.216-.342c.108-.096.3-.18.576-.252.432-.12 1.008-.228 1.728-.324a19.905 19.905 0 012.556-.144c.504 0 .966.012 1.386.036.432.012.906.054 1.422.126.408.048.72.144.936.288.228.144.324.306.288.486a.817.817 0 01-.162.36.756.756 0 01-.324.234c-.132.06-.3.09-.504.09-.252 0-.546-.012-.882-.036-.336-.024-.696-.048-1.08-.072a11.96 11.96 0 00-1.152-.054c-.828 0-1.494.036-1.998.108-.504.06-.924.132-1.26.216a4.56 4.56 0 01-.954.108zm2.61 7.308a.65.65 0 01-.594-.324 2.409 2.409 0 01-.252-.828 7.193 7.193 0 010-1.026c.036-.444.096-.924.18-1.44a44.51 44.51 0 01.27-1.53c.132-.66.246-1.242.342-1.746.108-.516.192-.942.252-1.278l1.62-.108-.18.774c-.06.3-.126.642-.198 1.026-.072.372-.15.756-.234 1.152a94.42 94.42 0 01-.216 1.116c-.12.6-.198 1.104-.234 1.512-.024.396-.03.72-.018.972s.024.462.036.63c.012.156.006.3-.018.432a.947.947 0 01-.144.36.676.676 0 01-.27.216.694.694 0 01-.342.09zm8.828-.036c-.996 0-1.77-.18-2.322-.54a2.555 2.555 0 01-1.08-1.494c-.168-.636-.174-1.35-.018-2.142.132-.588.36-1.176.684-1.764.336-.6.75-1.146 1.242-1.638a6.112 6.112 0 011.674-1.17c.624-.3 1.278-.45 1.962-.45.636 0 1.158.102 1.566.306.42.204.708.504.864.9.168.396.192.894.072 1.494a3.037 3.037 0 01-.882 1.674c-.468.444-1.05.786-1.746 1.026-.684.24-1.422.36-2.214.36-.816 0-1.362-.096-1.638-.288-.264-.192-.372-.408-.324-.648.024-.144.078-.246.162-.306.084-.072.216-.108.396-.108.132 0 .288.024.468.072.192.036.474.054.846.054.6 0 1.14-.084 1.62-.252.492-.168.894-.396 1.206-.684a2 2 0 00.594-1.026c.072-.36.024-.63-.144-.81-.156-.18-.468-.27-.936-.27s-.918.108-1.35.324c-.42.204-.816.486-1.188.846-.36.36-.666.774-.918 1.242a5.04 5.04 0 00-.522 1.476 3.06 3.06 0 00-.018 1.188c.072.348.252.636.54.864.3.216.726.324 1.278.324.624 0 1.158-.078 1.602-.234.456-.168.84-.36 1.152-.576.312-.216.576-.402.792-.558.216-.156.408-.234.576-.234.204 0 .348.078.432.234.096.144.12.336.072.576-.048.24-.21.492-.486.756a4.653 4.653 0 01-1.044.72c-.42.228-.888.414-1.404.558a6.155 6.155 0 01-1.566.198zM58.58 36.258c-.36 0-.756-.108-1.188-.324a6.55 6.55 0 01-1.278-.9 11.76 11.76 0 01-1.134-1.188c-.336-.42-.6-.822-.792-1.206a1.76 1.76 0 01-.234-.522 2.225 2.225 0 01-.018-.486c.036-.096.084-.204.144-.324.06-.12.138-.228.234-.324.144-.192.39-.45.738-.774s.75-.672 1.206-1.044c.468-.384.948-.738 1.44-1.062a12.26 12.26 0 011.422-.828c.456-.216.846-.324 1.17-.324.132 0 .234.03.306.09.084.06.144.138.18.234a.598.598 0 01.036.288c-.012.264-.186.516-.522.756a9.62 9.62 0 01-1.08.666c-.684.384-1.29.762-1.818 1.134-.528.372-.954.702-1.278.99-.312.288-.474.492-.486.612-.024.12.054.33.234.63.18.288.456.618.828.99.372.36.81.696 1.314 1.008.228.144.45.282.666.414.228.12.408.246.54.378.144.12.21.258.198.414a.763.763 0 01-.126.36.71.71 0 01-.306.252.873.873 0 01-.396.09zm-5.994-.018c-.312 0-.522-.156-.63-.468-.108-.324-.138-.786-.09-1.386.06-.612.174-1.35.342-2.214.072-.36.156-.738.252-1.134l.324-1.188c.108-.408.198-.804.27-1.188.024-.096.042-.192.054-.288a3.04 3.04 0 00.054-.324 2.15 2.15 0 01.198-.594c.084-.156.18-.276.288-.36a.576.576 0 01.36-.144c.276 0 .492.126.648.378.168.24.204.582.108 1.026-.06.3-.156.672-.288 1.116-.12.432-.246.876-.378 1.332-.132.456-.234.858-.306 1.206a34.22 34.22 0 00-.252 1.674c-.048.492-.078.9-.09 1.224-.012.312-.036.528-.072.648a.826.826 0 01-.162.378.676.676 0 01-.27.216.668.668 0 01-.36.09zm12.858.036c-.984 0-1.794-.216-2.43-.648a3.327 3.327 0 01-1.296-1.746c-.228-.744-.252-1.59-.072-2.538.132-.672.36-1.26.684-1.764a5.962 5.962 0 011.116-1.296 4.77 4.77 0 011.26-.774c.42-.18.78-.27 1.08-.27a.83.83 0 01.324.054.402.402 0 01.216.18c.06.072.078.174.054.306-.06.24-.156.462-.288.666-.132.192-.378.366-.738.522a5.055 5.055 0 00-1.098.684c-.288.24-.522.522-.702.846a3.32 3.32 0 00-.378 1.134c-.192.972-.078 1.752.342 2.34.42.576 1.062.864 1.926.864.84 0 1.572-.3 2.196-.9.636-.612 1.05-1.422 1.242-2.43.192-.924.132-1.644-.18-2.16-.312-.528-.828-.792-1.548-.792-.372 0-.69.072-.954.216a6.576 6.576 0 00-.828.576 5.45 5.45 0 00-.522.486 3.029 3.029 0 01-.36.342.614.614 0 01-.378.108.503.503 0 01-.396-.162c-.084-.12-.102-.306-.054-.558.048-.276.186-.558.414-.846.24-.288.528-.552.864-.792.348-.252.72-.45 1.116-.594a3.177 3.177 0 011.17-.234c.864 0 1.566.204 2.106.612.54.396.906.948 1.098 1.656.192.696.192 1.5 0 2.412-.168.9-.492 1.692-.972 2.376a5.112 5.112 0 01-1.764 1.566 4.633 4.633 0 01-2.25.558zm10.68-.126c-.575 0-1.08-.078-1.511-.234-.432-.156-.762-.36-.99-.612-.228-.252-.318-.516-.27-.792a.882.882 0 01.198-.378.482.482 0 01.378-.162c.12 0 .228.03.324.09l.342.216c.132.084.324.162.576.234.252.06.594.09 1.026.09.672 0 1.254-.162 1.746-.486.504-.336.828-.906.972-1.71.12-.564.126-1.074.018-1.53a2.73 2.73 0 00-.558-1.206 2.609 2.609 0 00-1.062-.792c-.432-.18-.924-.27-1.476-.27-.276 0-.558.03-.846.09-.288.06-.54.09-.756.09a.729.729 0 01-.36-.09.516.516 0 01-.216-.288.734.734 0 01-.018-.36c.072-.324.288-.57.648-.738.372-.18.936-.27 1.692-.27.804 0 1.518.138 2.142.414a4.05 4.05 0 011.566 1.17c.408.492.684 1.086.828 1.782.156.684.15 1.446-.018 2.286a4.216 4.216 0 01-.576 1.476 4.075 4.075 0 01-.972 1.098c-.384.288-.816.51-1.296.666-.48.144-.99.216-1.53.216zm-4.23 4.608a.665.665 0 01-.377-.108.467.467 0 01-.198-.288 1.022 1.022 0 010-.468c.036-.18.102-.348.198-.504.084-.144.18-.324.288-.54.108-.204.222-.468.342-.792.12-.324.234-.75.342-1.278.18-.876.276-1.752.288-2.628.012-.876.018-1.764.018-2.664.012-.912.102-1.824.27-2.736.06-.3.162-.522.306-.666a.762.762 0 01.558-.234c.192 0 .348.066.468.198.132.12.222.288.27.504.048.204.042.432-.018.684-.144.72-.234 1.404-.27 2.052-.024.636-.036 1.26-.036 1.872.012.612.006 1.224-.018 1.836a11.78 11.78 0 01-.234 1.89 12.51 12.51 0 01-.396 1.602c-.156.48-.33.888-.522 1.224-.18.336-.378.594-.594.774-.204.18-.432.27-.684.27zm14.608-4.482c-.984 0-1.794-.216-2.43-.648a3.327 3.327 0 01-1.296-1.746c-.228-.744-.252-1.59-.072-2.538.132-.672.36-1.26.684-1.764a5.962 5.962 0 011.116-1.296 4.77 4.77 0 011.26-.774c.42-.18.78-.27 1.08-.27a.83.83 0 01.324.054.402.402 0 01.216.18c.06.072.078.174.054.306-.06.24-.156.462-.288.666-.132.192-.378.366-.738.522a5.055 5.055 0 00-1.098.684c-.288.24-.522.522-.702.846a3.32 3.32 0 00-.378 1.134c-.192.972-.078 1.752.342 2.34.42.576 1.062.864 1.926.864.84 0 1.572-.3 2.196-.9.636-.612 1.05-1.422 1.242-2.43.192-.924.132-1.644-.18-2.16-.312-.528-.828-.792-1.548-.792-.372 0-.69.072-.954.216a6.576 6.576 0 00-.828.576 5.45 5.45 0 00-.522.486 3.029 3.029 0 01-.36.342.614.614 0 01-.378.108.503.503 0 01-.396-.162c-.084-.12-.102-.306-.054-.558.048-.276.186-.558.414-.846.24-.288.528-.552.864-.792.348-.252.72-.45 1.116-.594a3.177 3.177 0 011.17-.234c.864 0 1.566.204 2.106.612.54.396.906.948 1.098 1.656.192.696.192 1.5 0 2.412-.168.9-.492 1.692-.972 2.376a5.112 5.112 0 01-1.764 1.566 4.633 4.633 0 01-2.25.558zm7.165-7.308c-.276 0-.492-.084-.648-.252a.63.63 0 01-.144-.576.696.696 0 01.216-.342c.108-.096.3-.18.576-.252.432-.12 1.008-.228 1.728-.324a19.905 19.905 0 012.556-.144c.504 0 .966.012 1.386.036.432.012.906.054 1.422.126.408.048.72.144.936.288.228.144.324.306.288.486a.817.817 0 01-.162.36.756.756 0 01-.324.234c-.132.06-.3.09-.504.09-.252 0-.546-.012-.882-.036-.336-.024-.696-.048-1.08-.072a11.96 11.96 0 00-1.152-.054c-.828 0-1.494.036-1.998.108-.504.06-.924.132-1.26.216a4.56 4.56 0 01-.954.108zm2.61 7.308a.65.65 0 01-.594-.324 2.409 2.409 0 01-.252-.828 7.193 7.193 0 010-1.026c.036-.444.096-.924.18-1.44a44.51 44.51 0 01.27-1.53c.132-.66.246-1.242.342-1.746.108-.516.192-.942.252-1.278l1.62-.108-.18.774c-.06.3-.126.642-.198 1.026-.072.372-.15.756-.234 1.152a94.42 94.42 0 01-.216 1.116c-.12.6-.198 1.104-.234 1.512-.024.396-.03.72-.018.972s.024.462.036.63c.012.156.006.3-.018.432a.947.947 0 01-.144.36.676.676 0 01-.27.216.694.694 0 01-.342.09zm12.506-.018c-.36 0-.756-.108-1.188-.324a6.55 6.55 0 01-1.278-.9 11.76 11.76 0 01-1.134-1.188c-.336-.42-.6-.822-.792-1.206a1.76 1.76 0 01-.234-.522 2.225 2.225 0 01-.018-.486c.036-.096.084-.204.144-.324.06-.12.138-.228.234-.324.144-.192.39-.45.738-.774s.75-.672 1.206-1.044c.468-.384.948-.738 1.44-1.062a12.26 12.26 0 011.422-.828c.456-.216.846-.324 1.17-.324.132 0 .234.03.306.09.084.06.144.138.18.234a.598.598 0 01.036.288c-.012.264-.186.516-.522.756a9.62 9.62 0 01-1.08.666c-.684.384-1.29.762-1.818 1.134-.528.372-.954.702-1.278.99-.312.288-.474.492-.486.612-.024.12.054.33.234.63.18.288.456.618.828.99.372.36.81.696 1.314 1.008.228.144.45.282.666.414.228.12.408.246.54.378.144.12.21.258.198.414a.763.763 0 01-.126.36.71.71 0 01-.306.252.873.873 0 01-.396.09zm-5.994-.018c-.312 0-.522-.156-.63-.468-.108-.324-.138-.786-.09-1.386.06-.612.174-1.35.342-2.214.072-.36.156-.738.252-1.134l.324-1.188c.108-.408.198-.804.27-1.188.024-.096.042-.192.054-.288a3.04 3.04 0 00.054-.324 2.15 2.15 0 01.198-.594c.084-.156.18-.276.288-.36a.576.576 0 01.36-.144c.276 0 .492.126.648.378.168.24.204.582.108 1.026-.06.3-.156.672-.288 1.116-.12.432-.246.876-.378 1.332-.132.456-.234.858-.306 1.206a34.22 34.22 0 00-.252 1.674c-.048.492-.078.9-.09 1.224-.012.312-.036.528-.072.648a.826.826 0 01-.162.378.676.676 0 01-.27.216.668.668 0 01-.36.09zm12.857.036c-.984 0-1.794-.216-2.43-.648a3.327 3.327 0 01-1.296-1.746c-.228-.744-.252-1.59-.072-2.538.132-.672.36-1.26.684-1.764a5.962 5.962 0 011.116-1.296 4.77 4.77 0 011.26-.774c.42-.18.78-.27 1.08-.27a.83.83 0 01.324.054.402.402 0 01.216.18c.06.072.078.174.054.306-.06.24-.156.462-.288.666-.132.192-.378.366-.738.522a5.055 5.055 0 00-1.098.684c-.288.24-.522.522-.702.846a3.32 3.32 0 00-.378 1.134c-.192.972-.078 1.752.342 2.34.42.576 1.062.864 1.926.864.84 0 1.572-.3 2.196-.9.636-.612 1.05-1.422 1.242-2.43.192-.924.132-1.644-.18-2.16-.312-.528-.828-.792-1.548-.792-.372 0-.69.072-.954.216a6.576 6.576 0 00-.828.576 5.45 5.45 0 00-.522.486 3.029 3.029 0 01-.36.342.614.614 0 01-.378.108.503.503 0 01-.396-.162c-.084-.12-.102-.306-.054-.558.048-.276.186-.558.414-.846.24-.288.528-.552.864-.792.348-.252.72-.45 1.116-.594a3.177 3.177 0 011.17-.234c.864 0 1.566.204 2.106.612.54.396.906.948 1.098 1.656.192.696.192 1.5 0 2.412-.168.9-.492 1.692-.972 2.376a5.112 5.112 0 01-1.764 1.566 4.633 4.633 0 01-2.25.558zm10.394-.036c-.996 0-1.77-.18-2.322-.54a2.555 2.555 0 01-1.08-1.494c-.168-.636-.174-1.35-.018-2.142.132-.588.36-1.176.684-1.764.336-.6.75-1.146 1.242-1.638a6.112 6.112 0 011.674-1.17c.624-.3 1.278-.45 1.962-.45.636 0 1.158.102 1.566.306.42.204.708.504.864.9.168.396.192.894.072 1.494a3.037 3.037 0 01-.882 1.674c-.468.444-1.05.786-1.746 1.026-.684.24-1.422.36-2.214.36-.816 0-1.362-.096-1.638-.288-.264-.192-.372-.408-.324-.648.024-.144.078-.246.162-.306.084-.072.216-.108.396-.108.132 0 .288.024.468.072.192.036.474.054.846.054.6 0 1.14-.084 1.62-.252.492-.168.894-.396 1.206-.684a2 2 0 00.594-1.026c.072-.36.024-.63-.144-.81-.156-.18-.468-.27-.936-.27s-.918.108-1.35.324c-.42.204-.816.486-1.188.846-.36.36-.666.774-.918 1.242a5.04 5.04 0 00-.522 1.476 3.06 3.06 0 00-.018 1.188c.072.348.252.636.54.864.3.216.726.324 1.278.324.624 0 1.158-.078 1.602-.234.456-.168.84-.36 1.152-.576.312-.216.576-.402.792-.558.216-.156.408-.234.576-.234.204 0 .348.078.432.234.096.144.12.336.072.576-.048.24-.21.492-.486.756a4.653 4.653 0 01-1.044.72c-.42.228-.888.414-1.404.558a6.155 6.155 0 01-1.566.198zm15.377.108c-.612 0-1.11-.126-1.494-.378a2.314 2.314 0 01-.828-.972 3.957 3.957 0 01-.288-1.314c-.012-.48.024-.948.108-1.404.108-.504.264-1.05.468-1.638.216-.588.456-1.152.72-1.692a8.623 8.623 0 01.792-1.368c.108-.156.228-.282.36-.378.144-.096.294-.162.45-.198.156-.048.312-.072.468-.072.144 0 .246.048.306.144.06.084.072.204.036.36-.036.18-.138.408-.306.684-.156.276-.348.612-.576 1.008-.216.396-.432.87-.648 1.422-.216.54-.396 1.176-.54 1.908-.156.768-.138 1.38.054 1.836.192.456.594.684 1.206.684.456 0 .912-.12 1.368-.36.456-.24.858-.564 1.206-.972.36-.42.6-.888.72-1.404l.198.342c-.3-.12-.66-.21-1.08-.27-.408-.072-.846-.12-1.314-.144a10.165 10.165 0 00-1.35-.018 8.38 8.38 0 00-1.188.108l.234-1.188a8.253 8.253 0 001.764-.216 6.8 6.8 0 001.494-.558 4.958 4.958 0 001.08-.72c.276-.264.432-.51.468-.738.036-.168-.006-.3-.126-.396-.12-.108-.312-.162-.576-.162-.324 0-.666.048-1.026.144-.348.096-.72.216-1.116.36-.396.144-.816.294-1.26.45-.18.048-.33.024-.45-.072-.108-.096-.144-.216-.108-.36.036-.168.15-.324.342-.468.204-.156.396-.27.576-.342.732-.384 1.41-.648 2.034-.792a7.441 7.441 0 011.764-.234c.432 0 .786.066 1.062.198.288.132.492.312.612.54.132.228.168.486.108.774-.072.384-.252.75-.54 1.098a5.16 5.16 0 01-1.098.972 7.574 7.574 0 01-1.422.738 8.082 8.082 0 01-1.62.45l.09-.684a17.012 17.012 0 011.566 0c.492.024.924.078 1.296.162s.654.222.846.414c.204.18.3.42.288.72-.024.48-.192.96-.504 1.44-.3.468-.702.894-1.206 1.278a6.675 6.675 0 01-1.638.936 4.894 4.894 0 01-1.782.342zm8.734-.09c-.408 0-.732-.096-.972-.288a1.684 1.684 0 01-.504-.756 3.281 3.281 0 01-.162-1.044c.012-.384.054-.756.126-1.116.072-.312.168-.684.288-1.116.132-.432.276-.882.432-1.35.156-.468.306-.906.45-1.314.156-.408.282-.726.378-.954a8.68 8.68 0 01.414-.972c.132-.228.288-.342.468-.342.156 0 .3.054.432.162a.925.925 0 01.288.414c.072.168.09.354.054.558a5.67 5.67 0 01-.252.828c-.132.36-.282.762-.45 1.206-.168.444-.33.894-.486 1.35-.156.444-.27.846-.342 1.206a6.83 6.83 0 00-.144.936c-.024.288-.012.528.036.72.048.18.15.27.306.27.384 0 .87-.342 1.458-1.026.6-.684 1.266-1.626 1.998-2.826.336-.528.63-1.02.882-1.476.252-.456.474-.852.666-1.188.192-.348.378-.618.558-.81.18-.192.36-.288.54-.288.276 0 .474.108.594.324.132.204.192.48.18.828 0 .312-.012.696-.036 1.152l-.036 1.404c-.012.468-.012.906 0 1.314.036.696.102 1.266.198 1.71.108.432.204.78.288 1.044.084.264.12.48.108.648a.883.883 0 01-.126.378.964.964 0 01-.27.27.635.635 0 01-.36.108c-.276 0-.504-.126-.684-.378-.168-.252-.3-.606-.396-1.062a14.96 14.96 0 01-.234-1.602c-.024-.432-.048-.894-.072-1.386a30.262 30.262 0 010-1.476c.024-.492.048-.948.072-1.368l.522.18c-.144.276-.3.57-.468.882-.156.312-.348.666-.576 1.062-.216.384-.486.84-.81 1.368a18.6 18.6 0 01-1.332 1.854 8.235 8.235 0 01-1.494 1.422c-.504.36-1.014.54-1.53.54zm10.069-1.026c.156-.36.354-.762.594-1.206.24-.456.498-.93.774-1.422.288-.492.576-.972.864-1.44.3-.48.582-.912.846-1.296.348-.492.696-.954 1.044-1.386.348-.432.678-.78.99-1.044.324-.276.6-.414.828-.414.24 0 .45.102.63.306.192.204.36.54.504 1.008.096.336.198.762.306 1.278.108.516.21 1.08.306 1.692.096.6.174 1.206.234 1.818.06.612.096 1.176.108 1.692l-1.584.144c-.012-.576-.054-1.2-.126-1.872a24.744 24.744 0 00-.252-1.98 20.743 20.743 0 00-.342-1.656c-.12-.48-.246-.804-.378-.972l.702-.144c-.384.408-.792.888-1.224 1.44-.42.552-.816 1.146-1.188 1.782-.276.468-.534.912-.774 1.332-.24.42-.462.828-.666 1.224-.192.384-.384.78-.576 1.188l-1.62-.072zm7.794 3.438c-.24 0-.426-.084-.558-.252a.629.629 0 01-.126-.558c.024-.144.102-.36.234-.648.132-.276.27-.594.414-.954a5.95 5.95 0 00.324-1.116l.648.918a11.737 11.737 0 00-.792-.072 20.054 20.054 0 00-1.332-.036 109.95 109.95 0 00-3.924.072c-.636.024-1.242.06-1.818.108-.576.048-1.104.108-1.584.18l.702-.63a13.12 13.12 0 00-.126 1.26c-.012.24-.024.45-.036.63v.378c-.012.204-.084.36-.216.468a.72.72 0 01-.504.18c-.288 0-.486-.114-.594-.342a1.876 1.876 0 01-.162-.81 5.386 5.386 0 01.018-.738c.024-.3.054-.534.09-.702a1.6 1.6 0 01.216-.504 1.08 1.08 0 01.378-.396c.168-.108.384-.186.648-.234.3-.048.702-.09 1.206-.126a31.706 31.706 0 011.728-.108 52.7 52.7 0 011.998-.072 56.038 56.038 0 011.962-.036c.312 0 .654.006 1.026.018.372 0 .732.024 1.08.072.348.036.582.144.702.324.132.18.162.462.09.846-.06.3-.15.618-.27.954-.12.336-.264.648-.432.936-.156.3-.324.54-.504.72-.168.18-.33.27-.486.27zm6.753-2.43c-.996 0-1.77-.18-2.322-.54a2.555 2.555 0 01-1.08-1.494c-.168-.636-.174-1.35-.018-2.142.132-.588.36-1.176.684-1.764.336-.6.75-1.146 1.242-1.638a6.112 6.112 0 011.674-1.17c.624-.3 1.278-.45 1.962-.45.636 0 1.158.102 1.566.306.42.204.708.504.864.9.168.396.192.894.072 1.494a3.037 3.037 0 01-.882 1.674c-.468.444-1.05.786-1.746 1.026-.684.24-1.422.36-2.214.36-.816 0-1.362-.096-1.638-.288-.264-.192-.372-.408-.324-.648.024-.144.078-.246.162-.306.084-.072.216-.108.396-.108.132 0 .288.024.468.072.192.036.474.054.846.054.6 0 1.14-.084 1.62-.252.492-.168.894-.396 1.206-.684a2 2 0 00.594-1.026c.072-.36.024-.63-.144-.81-.156-.18-.468-.27-.936-.27s-.918.108-1.35.324c-.42.204-.816.486-1.188.846-.36.36-.666.774-.918 1.242a5.04 5.04 0 00-.522 1.476 3.06 3.06 0 00-.018 1.188c.072.348.252.636.54.864.3.216.726.324 1.278.324.624 0 1.158-.078 1.602-.234.456-.168.84-.36 1.152-.576.312-.216.576-.402.792-.558.216-.156.408-.234.576-.234.204 0 .348.078.432.234.096.144.12.336.072.576-.048.24-.21.492-.486.756a4.653 4.653 0 01-1.044.72c-.42.228-.888.414-1.404.558a6.155 6.155 0 01-1.566.198zm10.682.036c-.984 0-1.794-.216-2.43-.648a3.327 3.327 0 01-1.296-1.746c-.228-.744-.252-1.59-.072-2.538.132-.672.36-1.26.684-1.764a5.962 5.962 0 011.116-1.296 4.77 4.77 0 011.26-.774c.42-.18.78-.27 1.08-.27a.83.83 0 01.324.054.402.402 0 01.216.18c.06.072.078.174.054.306-.06.24-.156.462-.288.666-.132.192-.378.366-.738.522a5.055 5.055 0 00-1.098.684c-.288.24-.522.522-.702.846a3.32 3.32 0 00-.378 1.134c-.192.972-.078 1.752.342 2.34.42.576 1.062.864 1.926.864.84 0 1.572-.3 2.196-.9.636-.612 1.05-1.422 1.242-2.43.192-.924.132-1.644-.18-2.16-.312-.528-.828-.792-1.548-.792-.372 0-.69.072-.954.216a6.576 6.576 0 00-.828.576 5.45 5.45 0 00-.522.486 3.029 3.029 0 01-.36.342.614.614 0 01-.378.108.503.503 0 01-.396-.162c-.084-.12-.102-.306-.054-.558.048-.276.186-.558.414-.846.24-.288.528-.552.864-.792.348-.252.72-.45 1.116-.594a3.177 3.177 0 011.17-.234c.864 0 1.566.204 2.106.612.54.396.906.948 1.098 1.656.192.696.192 1.5 0 2.412-.168.9-.492 1.692-.972 2.376a5.112 5.112 0 01-1.764 1.566 4.633 4.633 0 01-2.25.558zm-129.515 16c-.984 0-1.794-.216-2.43-.648a3.327 3.327 0 01-1.296-1.746c-.228-.744-.252-1.59-.072-2.538.132-.672.36-1.26.684-1.764a5.962 5.962 0 011.116-1.296 4.77 4.77 0 011.26-.774c.42-.18.78-.27 1.08-.27a.83.83 0 01.324.054.402.402 0 01.216.18c.06.072.078.174.054.306-.06.24-.156.462-.288.666-.132.192-.378.366-.738.522a5.055 5.055 0 00-1.098.684c-.288.24-.522.522-.702.846a3.32 3.32 0 00-.378 1.134c-.192.972-.078 1.752.342 2.34.42.576 1.062.864 1.926.864.84 0 1.572-.3 2.196-.9.636-.612 1.05-1.422 1.242-2.43.192-.924.132-1.644-.18-2.16-.312-.528-.828-.792-1.548-.792-.372 0-.69.072-.954.216a6.576 6.576 0 00-.828.576 5.45 5.45 0 00-.522.486 3.029 3.029 0 01-.36.342.614.614 0 01-.378.108.503.503 0 01-.396-.162c-.084-.12-.102-.306-.054-.558.048-.276.186-.558.414-.846.24-.288.528-.552.864-.792.348-.252.72-.45 1.116-.594a3.177 3.177 0 011.17-.234c.864 0 1.566.204 2.106.612.54.396.906.948 1.098 1.656.192.696.192 1.5 0 2.412-.168.9-.492 1.692-.972 2.376a5.112 5.112 0 01-1.764 1.566 4.633 4.633 0 01-2.25.558zm10.593-.018c-.636 0-1.176-.108-1.62-.324a2.771 2.771 0 01-1.062-.936 4.057 4.057 0 01-.558-1.44 7.38 7.38 0 01-.108-1.818c.036-.672.126-1.374.27-2.106a9.74 9.74 0 01.684-2.232c.3-.672.636-1.254 1.008-1.746a6.621 6.621 0 011.206-1.242c.42-.324.84-.564 1.26-.72.372-.132.75-.234 1.134-.306.384-.084.756-.156 1.116-.216.36-.06.69-.12.99-.18.528-.108.978-.228 1.35-.36.372-.132.654-.198.846-.198.144 0 .276.036.396.108a.647.647 0 01.324.738c-.036.204-.162.378-.378.522-.216.132-.486.24-.81.324-.648.18-1.242.306-1.782.378-.528.06-1.014.12-1.458.18a4.502 4.502 0 00-1.296.342c-.408.156-.81.438-1.206.846-.384.396-.732.894-1.044 1.494a7.52 7.52 0 00-.666 1.998c-.252 1.284-.366 2.328-.342 3.132.036.792.216 1.374.54 1.746.336.372.804.558 1.404.558.408 0 .822-.102 1.242-.306.42-.216.81-.498 1.17-.846.372-.348.684-.726.936-1.134.264-.42.432-.828.504-1.224.096-.432.09-.798-.018-1.098a1.157 1.157 0 00-.576-.702c-.288-.168-.672-.252-1.152-.252-.636 0-1.35.18-2.142.54-.78.36-1.566.906-2.358 1.638l-.576-.684a6.926 6.926 0 011.674-1.674 6.71 6.71 0 011.944-.972 6.242 6.242 0 011.908-.324c.732 0 1.344.138 1.836.414.492.264.84.648 1.044 1.152.204.504.222 1.128.054 1.872a5.957 5.957 0 01-.738 1.836 7.54 7.54 0 01-1.296 1.62c-.516.48-1.086.87-1.71 1.17a4.589 4.589 0 01-1.944.432zm17.602.018c-.984 0-1.794-.216-2.43-.648a3.327 3.327 0 01-1.296-1.746c-.228-.744-.252-1.59-.072-2.538.132-.672.36-1.26.684-1.764a5.962 5.962 0 011.116-1.296 4.77 4.77 0 011.26-.774c.42-.18.78-.27 1.08-.27a.83.83 0 01.324.054.402.402 0 01.216.18c.06.072.078.174.054.306-.06.24-.156.462-.288.666-.132.192-.378.366-.738.522a5.055 5.055 0 00-1.098.684c-.288.24-.522.522-.702.846a3.32 3.32 0 00-.378 1.134c-.192.972-.078 1.752.342 2.34.42.576 1.062.864 1.926.864.84 0 1.572-.3 2.196-.9.636-.612 1.05-1.422 1.242-2.43.192-.924.132-1.644-.18-2.16-.312-.528-.828-.792-1.548-.792-.372 0-.69.072-.954.216a6.576 6.576 0 00-.828.576 5.45 5.45 0 00-.522.486 3.029 3.029 0 01-.36.342.614.614 0 01-.378.108.503.503 0 01-.396-.162c-.084-.12-.102-.306-.054-.558.048-.276.186-.558.414-.846.24-.288.528-.552.864-.792.348-.252.72-.45 1.116-.594a3.177 3.177 0 011.17-.234c.864 0 1.566.204 2.106.612.54.396.906.948 1.098 1.656.192.696.192 1.5 0 2.412-.168.9-.492 1.692-.972 2.376a5.112 5.112 0 01-1.764 1.566 4.633 4.633 0 01-2.25.558zm10.593-.018c-.636 0-1.176-.108-1.62-.324a2.771 2.771 0 01-1.062-.936 4.057 4.057 0 01-.558-1.44 7.38 7.38 0 01-.108-1.818c.036-.672.126-1.374.27-2.106a9.74 9.74 0 01.684-2.232c.3-.672.636-1.254 1.008-1.746a6.621 6.621 0 011.206-1.242c.42-.324.84-.564 1.26-.72.372-.132.75-.234 1.134-.306.384-.084.756-.156 1.116-.216.36-.06.69-.12.99-.18.528-.108.978-.228 1.35-.36.372-.132.654-.198.846-.198.144 0 .276.036.396.108a.647.647 0 01.324.738c-.036.204-.162.378-.378.522-.216.132-.486.24-.81.324-.648.18-1.242.306-1.782.378-.528.06-1.014.12-1.458.18a4.502 4.502 0 00-1.296.342c-.408.156-.81.438-1.206.846-.384.396-.732.894-1.044 1.494a7.52 7.52 0 00-.666 1.998c-.252 1.284-.366 2.328-.342 3.132.036.792.216 1.374.54 1.746.336.372.804.558 1.404.558.408 0 .822-.102 1.242-.306.42-.216.81-.498 1.17-.846.372-.348.684-.726.936-1.134.264-.42.432-.828.504-1.224.096-.432.09-.798-.018-1.098a1.157 1.157 0 00-.576-.702c-.288-.168-.672-.252-1.152-.252-.636 0-1.35.18-2.142.54-.78.36-1.566.906-2.358 1.638l-.576-.684a6.926 6.926 0 011.674-1.674 6.71 6.71 0 011.944-.972 6.242 6.242 0 011.908-.324c.732 0 1.344.138 1.836.414.492.264.84.648 1.044 1.152.204.504.222 1.128.054 1.872a5.96 5.96 0 01-.738 1.836 7.54 7.54 0 01-1.296 1.62c-.516.48-1.086.87-1.71 1.17a4.589 4.589 0 01-1.944.432zm10.047 4.5c-.732 0-1.35-.072-1.854-.216-.504-.132-.87-.318-1.098-.558-.228-.24-.312-.498-.252-.774.084-.42.342-.63.774-.63.144 0 .276.03.396.09s.258.126.414.198c.156.084.372.156.648.216.288.06.666.09 1.134.09.576 0 1.056-.126 1.44-.378.384-.252.69-.606.918-1.062.24-.456.42-.984.54-1.584.072-.348.12-.69.144-1.026.036-.336.072-.696.108-1.08.036-.384.084-.828.144-1.332.06-.516.156-1.122.288-1.818l.558.522c-.384.828-.768 1.506-1.152 2.034-.384.516-.756.918-1.116 1.206-.36.276-.702.468-1.026.576a2.906 2.906 0 01-.846.144c-1.044 0-1.77-.432-2.178-1.296-.408-.876-.42-2.274-.036-4.194.156-.804.312-1.41.468-1.818.168-.408.342-.684.522-.828a.885.885 0 01.558-.216c.288 0 .474.102.558.306.084.204.054.57-.09 1.098a25.204 25.204 0 00-.45 2.124 9.19 9.19 0 00-.144 1.71c.012.492.09.876.234 1.152.144.264.378.396.702.396.504 0 .996-.258 1.476-.774.48-.528.93-1.236 1.35-2.124.432-.9.822-1.908 1.17-3.024.108-.336.216-.558.324-.666.108-.12.276-.18.504-.18.168 0 .318.054.45.162.144.108.228.3.252.576.036.264-.018.624-.162 1.08-.18.612-.318 1.158-.414 1.638-.084.48-.144.942-.18 1.386a43.71 43.71 0 00-.09 1.332c-.012.444-.048.936-.108 1.476-.06.528-.156 1.14-.288 1.836-.216 1.08-.552 1.926-1.008 2.538-.444.624-.972 1.062-1.584 1.314a5.197 5.197 0 01-1.998.378zm9.586-7.398c-.456 0-.834-.102-1.134-.306a1.804 1.804 0 01-.666-.846 3.004 3.004 0 01-.162-1.206 5.64 5.64 0 01.216-1.386c.132-.468.3-.9.504-1.296.216-.396.45-.72.702-.972.252-.252.504-.378.756-.378.12 0 .222.024.306.072a.47.47 0 01.216.216.545.545 0 01.054.324c-.012.108-.072.276-.18.504-.096.216-.216.474-.36.774-.144.288-.27.6-.378.936a3.512 3.512 0 00-.18.99c0 .216.018.402.054.558a.556.556 0 00.198.324.732.732 0 00.414.108c.384 0 .78-.096 1.188-.288a4.795 4.795 0 001.17-.792 7.374 7.374 0 001.026-1.098c.3-.408.534-.816.702-1.224l.144 1.854c-.42.6-.882 1.14-1.386 1.62a5.884 5.884 0 01-1.566 1.116 3.696 3.696 0 01-1.638.396zm3.834 2.934c-.264 0-.45-.102-.558-.306a2.673 2.673 0 01-.234-.774 6.406 6.406 0 01-.018-.864 15.657 15.657 0 01.342-2.322 36.38 36.38 0 01.54-2.016c.108-.36.216-.696.324-1.008.108-.324.192-.582.252-.774.12-.384.252-.684.396-.9.156-.216.342-.324.558-.324.204 0 .378.126.522.378.144.252.174.57.09.954-.048.264-.15.624-.306 1.08-.156.444-.312.906-.468 1.386a13.66 13.66 0 00-.324 1.224c-.12.564-.204 1.056-.252 1.476-.048.42-.072.792-.072 1.116a4.85 4.85 0 000 .594c.012.156.006.294-.018.414a.893.893 0 01-.252.45c-.12.144-.294.216-.522.216zm7.165-.054c-.744 0-1.368-.102-1.872-.306-.492-.216-.87-.51-1.134-.882a3.085 3.085 0 01-.504-1.332 5.274 5.274 0 01.09-1.656c.132-.588.36-1.176.684-1.764.336-.6.75-1.146 1.242-1.638a6.112 6.112 0 011.674-1.17c.624-.3 1.278-.45 1.962-.45.636 0 1.158.102 1.566.306.42.204.708.504.864.9.168.396.192.894.072 1.494-.096.492-.294.93-.594 1.314-.288.372-.654.69-1.098.954-.432.252-.918.45-1.458.594a6.958 6.958 0 01-1.692.198c-.816 0-1.362-.096-1.638-.288-.264-.192-.372-.408-.324-.648.024-.144.078-.246.162-.306.084-.072.216-.108.396-.108.132 0 .288.024.468.072.192.036.474.054.846.054.6 0 1.14-.084 1.62-.252.492-.168.894-.396 1.206-.684a2 2 0 00.594-1.026c.072-.36.024-.63-.144-.81-.156-.18-.468-.27-.936-.27s-.918.108-1.35.324c-.42.204-.816.486-1.188.846-.36.36-.666.774-.918 1.242a5.04 5.04 0 00-.522 1.476 3.06 3.06 0 00-.018 1.188c.072.348.252.636.54.864.3.216.726.324 1.278.324.624 0 1.158-.078 1.602-.234.456-.168.84-.36 1.152-.576.312-.216.576-.402.792-.558.216-.156.408-.234.576-.234.204 0 .348.078.432.234.096.144.12.336.072.576-.048.24-.21.492-.486.756a4.653 4.653 0 01-1.044.72c-.42.228-.888.414-1.404.558a6.155 6.155 0 01-1.566.198zm7.479.018c-.432 0-.72-.276-.864-.828-.144-.552-.126-1.284.054-2.196.144-.636.306-1.116.486-1.44.192-.336.408-.564.648-.684.132-.072.318-.114.558-.126.24-.024.492-.036.756-.036.876 0 1.74-.042 2.592-.126.864-.096 1.71-.276 2.538-.54l.324 1.242c-.624.24-1.296.42-2.016.54-.72.12-1.452.204-2.196.252-.732.036-1.446.054-2.142.054l-1.044-.162c.156-.708.318-1.452.486-2.232.168-.78.312-1.476.432-2.088.048-.288.144-.522.288-.702.144-.18.306-.27.486-.27.3 0 .522.12.666.36.144.228.162.594.054 1.098-.048.264-.12.582-.216.954s-.198.762-.306 1.17c-.096.408-.192.798-.288 1.17-.084.36-.15.66-.198.9a25.85 25.85 0 00-.324 1.872c-.06.54-.114.948-.162 1.224a.753.753 0 01-.234.414.495.495 0 01-.378.18zm6.21 0c-.3 0-.516-.174-.648-.522-.12-.348-.174-.822-.162-1.422.024-.612.108-1.284.252-2.016.24-1.152.45-2.064.63-2.736a17.59 17.59 0 01.522-1.62 2.97 2.97 0 01.36-.702c.144-.204.318-.306.522-.306.264 0 .45.126.558.378.12.24.144.534.072.882-.084.432-.216.9-.396 1.404-.168.504-.306 1.05-.414 1.638-.144.72-.246 1.374-.306 1.962a28.388 28.388 0 00-.09 1.458c-.012.396-.042.69-.09.882a.84.84 0 01-.288.522.788.788 0 01-.522.198zm5.272 0c-.408 0-.732-.096-.972-.288a1.684 1.684 0 01-.504-.756 3.281 3.281 0 01-.162-1.044c.012-.384.054-.756.126-1.116.072-.312.168-.684.288-1.116.132-.432.276-.882.432-1.35.156-.468.306-.906.45-1.314.156-.408.282-.726.378-.954a8.68 8.68 0 01.414-.972c.132-.228.288-.342.468-.342.156 0 .3.054.432.162a.925.925 0 01.288.414c.072.168.09.354.054.558a5.67 5.67 0 01-.252.828c-.132.36-.282.762-.45 1.206-.168.444-.33.894-.486 1.35-.156.444-.27.846-.342 1.206a6.83 6.83 0 00-.144.936c-.024.288-.012.528.036.72.048.18.15.27.306.27.384 0 .87-.342 1.458-1.026.6-.684 1.266-1.626 1.998-2.826.336-.528.63-1.02.882-1.476.252-.456.474-.852.666-1.188.192-.348.378-.618.558-.81.18-.192.36-.288.54-.288.276 0 .474.108.594.324.132.204.192.48.18.828 0 .312-.012.696-.036 1.152l-.036 1.404c-.012.468-.012.906 0 1.314.036.696.102 1.266.198 1.71.108.432.204.78.288 1.044.084.264.12.48.108.648a.883.883 0 01-.126.378.964.964 0 01-.27.27.635.635 0 01-.36.108c-.42 0-.72-.276-.9-.828-.18-.552-.318-1.29-.414-2.214-.024-.432-.048-.894-.072-1.386a30.262 30.262 0 010-1.476c.024-.492.048-.948.072-1.368l.522.18c-.204.42-.444.882-.72 1.386a45.963 45.963 0 01-1.134 1.926 18.6 18.6 0 01-1.332 1.854 8.235 8.235 0 01-1.494 1.422c-.504.36-1.014.54-1.53.54zm11.584 0c-.408 0-.732-.096-.972-.288a1.684 1.684 0 01-.504-.756 3.281 3.281 0 01-.162-1.044c.012-.384.054-.756.126-1.116.072-.312.168-.684.288-1.116.132-.432.276-.882.432-1.35.156-.468.306-.906.45-1.314.156-.408.282-.726.378-.954a8.68 8.68 0 01.414-.972c.132-.228.288-.342.468-.342.156 0 .3.054.432.162a.925.925 0 01.288.414c.072.168.09.354.054.558a5.67 5.67 0 01-.252.828c-.132.36-.282.762-.45 1.206-.168.444-.33.894-.486 1.35-.156.444-.27.846-.342 1.206a6.83 6.83 0 00-.144.936c-.024.288-.012.528.036.72.048.18.15.27.306.27.384 0 .87-.342 1.458-1.026.6-.684 1.266-1.626 1.998-2.826.336-.528.63-1.02.882-1.476.252-.456.474-.852.666-1.188.192-.348.378-.618.558-.81.18-.192.36-.288.54-.288.276 0 .474.108.594.324.132.204.192.48.18.828 0 .312-.012.696-.036 1.152l-.036 1.404c-.012.468-.012.906 0 1.314.036.696.102 1.266.198 1.71.108.432.204.78.288 1.044.084.264.12.48.108.648a.883.883 0 01-.126.378.964.964 0 01-.27.27.635.635 0 01-.36.108c-.276 0-.504-.126-.684-.378-.168-.252-.3-.606-.396-1.062a14.96 14.96 0 01-.234-1.602c-.024-.432-.048-.894-.072-1.386a30.262 30.262 0 010-1.476c.024-.492.048-.948.072-1.368l.522.18c-.144.276-.3.57-.468.882-.156.312-.348.666-.576 1.062-.216.384-.486.84-.81 1.368a18.6 18.6 0 01-1.332 1.854 8.235 8.235 0 01-1.494 1.422c-.504.36-1.014.54-1.53.54zM54.476 68.348c-.612 0-1.11-.126-1.494-.378a2.314 2.314 0 01-.828-.972 3.957 3.957 0 01-.288-1.314c-.012-.48.024-.948.108-1.404.108-.504.264-1.05.468-1.638.216-.588.456-1.152.72-1.692a8.623 8.623 0 01.792-1.368c.108-.156.228-.282.36-.378.144-.096.294-.162.45-.198.156-.048.312-.072.468-.072.144 0 .246.048.306.144.06.084.072.204.036.36-.036.18-.138.408-.306.684-.156.276-.348.612-.576 1.008-.216.396-.432.87-.648 1.422-.216.54-.396 1.176-.54 1.908-.156.768-.138 1.38.054 1.836.192.456.594.684 1.206.684.456 0 .912-.12 1.368-.36.456-.24.858-.564 1.206-.972.36-.42.6-.888.72-1.404l.198.342c-.3-.12-.66-.21-1.08-.27-.408-.072-.846-.12-1.314-.144a10.165 10.165 0 00-1.35-.018 8.38 8.38 0 00-1.188.108l.234-1.188a8.253 8.253 0 001.764-.216 6.8 6.8 0 001.494-.558 4.958 4.958 0 001.08-.72c.276-.264.432-.51.468-.738.036-.168-.006-.3-.126-.396-.12-.108-.312-.162-.576-.162-.324 0-.666.048-1.026.144-.348.096-.72.216-1.116.36-.396.144-.816.294-1.26.45-.18.048-.33.024-.45-.072a.339.339 0 01-.108-.36c.036-.168.15-.324.342-.468.204-.156.396-.27.576-.342.732-.384 1.41-.648 2.034-.792a7.441 7.441 0 011.764-.234c.432 0 .786.066 1.062.198.288.132.492.312.612.54.132.228.168.486.108.774-.072.384-.252.75-.54 1.098a5.16 5.16 0 01-1.098.972 7.574 7.574 0 01-1.422.738 8.082 8.082 0 01-1.62.45l.09-.684a17.012 17.012 0 011.566 0c.492.024.924.078 1.296.162s.654.222.846.414c.204.18.3.42.288.72-.024.48-.192.96-.504 1.44-.3.468-.702.894-1.206 1.278a6.675 6.675 0 01-1.638.936 4.894 4.894 0 01-1.782.342zm16.13-.126c-1.369 0-2.347-.156-2.935-.468-.588-.312-.84-.672-.756-1.08a.608.608 0 01.216-.414c.12-.096.282-.144.486-.144.168 0 .324.03.468.09.156.048.336.108.54.18.216.06.486.12.81.18.324.048.738.072 1.242.072.492 0 .936-.03 1.332-.09a4.668 4.668 0 001.044-.306c.3-.144.552-.3.756-.468 0-.336-.144-.636-.432-.9a4.583 4.583 0 00-1.08-.738 70.088 70.088 0 00-1.368-.702c-.48-.24-.924-.504-1.332-.792a3.28 3.28 0 01-.918-1.044c-.204-.396-.252-.87-.144-1.422.12-.6.402-1.146.846-1.638a7.813 7.813 0 011.62-1.35c.636-.408 1.296-.75 1.98-1.026a12.42 12.42 0 011.998-.648c.648-.156 1.194-.234 1.638-.234.216 0 .39.036.522.108a.488.488 0 01.252.288c.048.12.054.258.018.414a.829.829 0 01-.288.504c-.156.132-.396.228-.72.288-1.224.228-2.286.528-3.186.9-.9.372-1.614.786-2.142 1.242-.516.456-.822.918-.918 1.386-.06.3.036.576.288.828s.594.498 1.026.738c.444.228.912.474 1.404.738.492.252.948.534 1.368.846.42.3.744.648.972 1.044.24.396.306.852.198 1.368-.084.396-.27.738-.558 1.026-.276.288-.63.522-1.062.702-.432.18-.924.312-1.476.396-.54.084-1.11.126-1.71.126zm16.232 0c-.264 0-.456-.108-.576-.324-.12-.228-.228-.606-.324-1.134-.084-.432-.15-.966-.198-1.602a35.74 35.74 0 01-.054-2.016 34.8 34.8 0 01.09-2.034c.072-.78.126-1.446.162-1.998.048-.552.06-.99.036-1.314-.012-.336-.066-.582-.162-.738-.096-.156-.252-.234-.468-.234-.324 0-.738.258-1.242.774-.492.504-1.032 1.224-1.62 2.16-.588.936-1.182 2.058-1.782 3.366a41.006 41.006 0 00-1.692 4.338c-.084.24-.192.426-.324.558a.673.673 0 01-.468.18c-.276 0-.474-.09-.594-.27-.12-.192-.132-.528-.036-1.008a13.13 13.13 0 01.612-2.07 39.1 39.1 0 01.9-2.088c.324-.708.63-1.416.918-2.124.3-.708.546-1.416.738-2.124.048-.216.126-.384.234-.504a.564.564 0 01.432-.198c.168 0 .318.048.45.144a.959.959 0 01.342.45l-.684.198c.756-1.128 1.446-1.962 2.07-2.502.636-.54 1.272-.81 1.908-.81.696 0 1.188.204 1.476.612.288.408.444 1.032.468 1.872.024.84-.024 1.932-.144 3.276-.096.996-.126 1.854-.09 2.574.036.72.084 1.332.144 1.836l.18 1.26c.048.336.048.63 0 .882a.733.733 0 01-.252.45.648.648 0 01-.45.162zm-8.928-3.528c-.264 0-.45-.06-.558-.18-.108-.12-.138-.27-.09-.45a.612.612 0 01.198-.378c.12-.108.306-.204.558-.288 1.392-.492 2.946-.852 4.662-1.08a42.294 42.294 0 015.526-.342c.42 0 .69.06.81.18.132.12.174.294.126.522-.048.24-.204.444-.468.612-.264.156-.612.234-1.044.234-1.38 0-2.55.042-3.51.126-.948.072-1.746.168-2.394.288-.648.108-1.2.222-1.656.342-.444.12-.834.222-1.17.306a4.55 4.55 0 01-.99.108zm13.646 3.618c-.324 0-.528-.138-.612-.414-.084-.276 0-.714.252-1.314.348-.84.78-1.734 1.296-2.682a29.25 29.25 0 011.764-2.862c.672-.96 1.398-1.89 2.178-2.79.78-.9 1.602-1.716 2.466-2.448.288-.24.516-.396.684-.468.18-.072.342-.108.486-.108a.55.55 0 01.45.198c.108.132.144.318.108.558a1.396 1.396 0 01-.126.414c-.06.12-.162.252-.306.396a29.37 29.37 0 01-.612.54 22.252 22.252 0 00-2.772 2.844 26.304 26.304 0 00-2.34 3.366 24.156 24.156 0 00-1.764 3.636c-.18.456-.354.756-.522.9a.89.89 0 01-.63.234zm2.214-5.58a.626.626 0 01-.432-.144.952.952 0 01-.252-.378 25.612 25.612 0 00-.72-1.656c-.216-.456-.42-.852-.612-1.188a393.24 393.24 0 00-.558-1.008 21.399 21.399 0 01-.522-1.134 6.625 6.625 0 01-.234-.756 1.455 1.455 0 010-.558.884.884 0 01.234-.486c.12-.12.276-.18.468-.18.18 0 .33.054.45.162.132.096.246.264.342.504.168.492.33.918.486 1.278.168.348.33.672.486.972.168.288.336.588.504.9.168.3.336.642.504 1.026.168.384.336.852.504 1.404a.945.945 0 01.036.378c0 .144-.024.282-.072.414a.708.708 0 01-.234.324.553.553 0 01-.378.126zm14.784 5.58c-.324 0-.528-.138-.612-.414-.084-.276 0-.714.252-1.314.348-.84.78-1.734 1.296-2.682a29.25 29.25 0 011.764-2.862c.672-.96 1.398-1.89 2.178-2.79.78-.9 1.602-1.716 2.466-2.448.288-.24.516-.396.684-.468.18-.072.342-.108.486-.108a.55.55 0 01.45.198c.108.132.144.318.108.558a1.396 1.396 0 01-.126.414c-.06.12-.162.252-.306.396a29.37 29.37 0 01-.612.54 22.252 22.252 0 00-2.772 2.844 26.304 26.304 0 00-2.34 3.366 24.156 24.156 0 00-1.764 3.636c-.18.456-.354.756-.522.9a.89.89 0 01-.63.234zm2.214-5.58a.626.626 0 01-.432-.144.952.952 0 01-.252-.378 25.612 25.612 0 00-.72-1.656c-.216-.456-.42-.852-.612-1.188a393.24 393.24 0 00-.558-1.008 21.399 21.399 0 01-.522-1.134 6.625 6.625 0 01-.234-.756 1.455 1.455 0 010-.558.884.884 0 01.234-.486c.12-.12.276-.18.468-.18.18 0 .33.054.45.162.132.096.246.264.342.504.168.492.33.918.486 1.278.168.348.33.672.486.972.168.288.336.588.504.9.168.3.336.642.504 1.026.168.384.336.852.504 1.404a.945.945 0 01.036.378c0 .144-.024.282-.072.414a.708.708 0 01-.234.324.553.553 0 01-.378.126zm11.422 5.454c-.9 0-1.668-.138-2.304-.414-.624-.288-1.116-.684-1.476-1.188a4.072 4.072 0 01-.684-1.782c-.096-.672-.072-1.392.072-2.16.12-.552.288-1.104.504-1.656.216-.552.468-1.08.756-1.584.3-.504.612-.978.936-1.422.288-.384.582-.714.882-.99.312-.276.63-.414.954-.414.156 0 .276.042.36.126.096.072.138.186.126.342 0 .144-.078.324-.234.54-.396.48-.774 1.002-1.134 1.566-.36.552-.678 1.134-.954 1.746-.276.6-.48 1.224-.612 1.872-.156.768-.144 1.446.036 2.034.18.576.504 1.026.972 1.35.48.324 1.08.486 1.8.486.624 0 1.14-.042 1.548-.126a4.8 4.8 0 001.026-.306c.276-.12.498-.222.666-.306.18-.084.33-.126.45-.126.216 0 .36.066.432.198.072.12.09.282.054.486-.048.276-.246.546-.594.81-.336.264-.804.486-1.404.666-.588.168-1.314.252-2.178.252zm-2.772-5.058c-.276.06-.486.06-.63 0a.43.43 0 01-.252-.288 1.305 1.305 0 010-.432c.048-.216.192-.402.432-.558.24-.156.558-.27.954-.342.408-.072.852-.138 1.332-.198.492-.072.978-.132 1.458-.18.48-.06.936-.108 1.368-.144.432-.048.822-.078 1.17-.09.36 0 .6.06.72.18.12.108.162.264.126.468-.072.312-.264.534-.576.666a3.89 3.89 0 01-1.026.234c-.432.024-.882.066-1.35.126-.456.048-.912.102-1.368.162-.456.06-.888.126-1.296.198-.396.06-.75.126-1.062.198zm.702-5.742c-.348 0-.6-.072-.756-.216a.53.53 0 01-.162-.54.772.772 0 01.198-.378.826.826 0 01.468-.27c.816-.168 1.692-.3 2.628-.396a58.925 58.925 0 012.754-.216c.9-.048 1.68-.072 2.34-.072.3 0 .516.078.648.234a.548.548 0 01.144.54c-.048.216-.15.402-.306.558-.156.144-.39.216-.702.216-1.068 0-1.992.03-2.772.09-.78.048-1.446.108-1.998.18s-1.032.138-1.44.198a8.806 8.806 0 01-1.044.072zm11.375 10.836c-1.368 0-2.346-.156-2.934-.468-.588-.312-.84-.672-.756-1.08a.608.608 0 01.216-.414c.12-.096.282-.144.486-.144.168 0 .324.03.468.09.156.048.336.108.54.18.216.06.486.12.81.18.324.048.738.072 1.242.072.492 0 .936-.03 1.332-.09a4.668 4.668 0 001.044-.306c.3-.144.552-.3.756-.468 0-.336-.144-.636-.432-.9a4.583 4.583 0 00-1.08-.738 70.088 70.088 0 00-1.368-.702c-.48-.24-.924-.504-1.332-.792a3.28 3.28 0 01-.918-1.044c-.204-.396-.252-.87-.144-1.422.12-.6.402-1.146.846-1.638a7.813 7.813 0 011.62-1.35c.636-.408 1.296-.75 1.98-1.026a12.42 12.42 0 011.998-.648c.648-.156 1.194-.234 1.638-.234.216 0 .39.036.522.108a.488.488 0 01.252.288c.048.12.054.258.018.414a.829.829 0 01-.288.504c-.156.132-.396.228-.72.288-1.224.228-2.286.528-3.186.9-.9.372-1.614.786-2.142 1.242-.516.456-.822.918-.918 1.386-.06.3.036.576.288.828s.594.498 1.026.738c.444.228.912.474 1.404.738.492.252.948.534 1.368.846.42.3.744.648.972 1.044.24.396.306.852.198 1.368-.084.396-.27.738-.558 1.026-.276.288-.63.522-1.062.702-.432.18-.924.312-1.476.396-.54.084-1.11.126-1.71.126zm9.038-4.176a.55.55 0 01-.45-.198c-.108-.144-.162-.33-.162-.558.024-.672.066-1.26.126-1.764a32.54 32.54 0 01.27-1.62c.132-.624.252-1.152.36-1.584.12-.432.234-.828.342-1.188.108-.36.198-.726.27-1.098.036-.216.12-.402.252-.558a.65.65 0 01.54-.252c.252 0 .45.108.594.324.144.204.18.522.108.954-.072.336-.156.654-.252.954a25.368 25.368 0 00-.666 2.556c-.084.432-.144.792-.18 1.08-.036.288-.066.54-.09.756a45.1 45.1 0 01-.072.612 4.415 4.415 0 01-.09.63c-.084.348-.216.594-.396.738-.168.144-.336.216-.504.216zm-.648 4.212c-.444 0-.786-.114-1.026-.342-.24-.24-.318-.576-.234-1.008.06-.324.21-.582.45-.774.24-.192.51-.288.81-.288.528 0 .882.144 1.062.432.18.288.234.618.162.99-.06.252-.192.48-.396.684-.192.204-.468.306-.828.306z" fill="#7831B2"/><path d="M16.963 8.071l3.971 14.31c.168.602.997.646 1.233.065l5.26-12.967M16.964 8.072c2.206 5.015 3.379 9.828 3.964 12.875.136.708 1.27.786 1.484.096 1.53-4.921 4.419-13.67 5.201-12.196m11.77 17.869c-3.065 10.49-13.96 16.536-24.337 13.504C4.67 37.188-1.257 26.227 1.807 15.737 4.872 5.247 15.768-.8 26.144 2.233 36.52 5.264 42.447 16.226 39.383 26.716zm.81-.45C37.13 36.755 26.234 42.8 15.858 39.77 5.481 36.738-.446 25.777 2.62 15.287 5.683 4.797 16.579-1.25 26.955 1.782c10.376 3.032 16.303 13.993 13.239 24.483z" stroke="#7831B2" stroke-width="2" stroke-linecap="round"/></svg>