<svg width="192" height="59" fill="none" xmlns="http://www.w3.org/2000/svg"><path d="M98.078 33.29a.385.385 0 01-.315-.137.626.626 0 01-.113-.388c.017-.467.046-.875.088-1.225.05-.358.113-.733.189-1.125.092-.434.176-.8.251-1.1.084-.3.164-.576.24-.826.075-.25.137-.504.188-.762a.786.786 0 01.176-.388.455.455 0 01.377-.175c.176 0 .314.075.415.225.1.142.126.363.075.663-.05.233-.109.454-.176.663a17.574 17.574 0 00-.465 1.775c-.059.3-.1.55-.126.75l-.063.525c-.016.15-.033.292-.05.425a3.06 3.06 0 01-.063.438c-.058.242-.15.412-.276.512a.545.545 0 01-.352.15zm-.453 2.926c-.31 0-.549-.08-.716-.238-.168-.166-.223-.4-.164-.7a.864.864 0 01.314-.537.885.885 0 01.566-.2c.369 0 .616.1.742.3a.917.917 0 01-.164 1.162c-.134.142-.327.213-.578.213zm-5.86-.025c-.955 0-1.638-.108-2.049-.325-.41-.217-.587-.467-.528-.75a.422.422 0 01.151-.288.53.53 0 01.34-.1c.117 0 .226.021.326.063.11.033.235.075.377.125.151.041.34.083.566.125.227.033.516.05.868.05.343 0 .653-.021.93-.063.277-.05.52-.12.73-.212.209-.1.385-.209.527-.325 0-.234-.1-.442-.302-.626a3.2 3.2 0 00-.754-.512c-.302-.159-.62-.321-.955-.488a7.176 7.176 0 01-.93-.55 2.282 2.282 0 01-.642-.725c-.142-.275-.176-.604-.1-.988a2.37 2.37 0 01.59-1.137c.319-.35.696-.663 1.132-.938a8.347 8.347 0 011.383-.713c.486-.2.951-.35 1.395-.45.453-.108.834-.162 1.145-.162.15 0 .272.025.364.075a.34.34 0 01.176.2.468.468 0 01.013.287.575.575 0 01-.201.35c-.11.092-.277.159-.503.2-.855.159-1.597.367-2.226.626-.628.258-1.127.545-1.496.862-.36.317-.574.638-.64.963-.043.208.024.4.2.575.176.175.415.346.717.513.31.158.637.329.98.512.344.175.663.371.956.588.293.208.52.45.679.725.168.275.214.592.138.95a1.397 1.397 0 01-.39.713c-.192.2-.44.362-.741.487a4.417 4.417 0 01-1.031.275 7.805 7.805 0 01-1.195.088zm-6.499-.025c-.629 0-1.165-.096-1.61-.288a2.543 2.543 0 01-1.03-.825 2.818 2.818 0 01-.478-1.237 4.57 4.57 0 01.05-1.5c.084-.384.201-.768.352-1.151.151-.383.327-.75.528-1.1.21-.35.428-.68.654-.988.201-.267.406-.496.616-.688.218-.191.44-.287.666-.287.11 0 .193.03.252.087.067.05.096.13.088.238 0 .1-.055.225-.164.375-.276.333-.54.696-.792 1.088a8.938 8.938 0 00-.666 1.212 5.91 5.91 0 00-.427 1.3c-.11.534-.101 1.005.025 1.413.125.4.352.713.679.938.335.225.754.338 1.257.338.436 0 .796-.03 1.081-.088.293-.058.532-.129.717-.212.192-.084.348-.154.465-.213a.786.786 0 01.314-.087c.151 0 .252.045.302.137.05.084.063.196.038.338-.034.191-.172.379-.415.562-.235.184-.562.338-.98.463-.412.117-.919.175-1.522.175zm-1.936-3.513c-.193.041-.34.041-.44 0a.3.3 0 01-.176-.2.9.9 0 010-.3c.033-.15.134-.28.301-.388.168-.108.39-.187.667-.237.285-.05.595-.096.93-.138.344-.05.683-.092 1.018-.125.336-.042.654-.075.956-.1.302-.033.574-.054.817-.063.252 0 .42.042.503.125.084.075.113.184.088.326a.64.64 0 01-.402.462 2.732 2.732 0 01-.717.163 13.24 13.24 0 00-.943.087c-.318.033-.637.071-.955.113-.319.041-.62.087-.906.137-.276.042-.523.088-.741.138zm.49-3.988c-.243 0-.42-.05-.528-.15a.367.367 0 01-.113-.376.535.535 0 01.138-.262.578.578 0 01.327-.188c.57-.116 1.182-.208 1.836-.275a41.437 41.437 0 011.923-.15c.629-.033 1.173-.05 1.634-.05.21 0 .36.054.453.163.1.1.134.225.1.375a.774.774 0 01-.213.387c-.109.1-.272.15-.49.15-.746 0-1.392.021-1.936.063-.545.033-1.01.075-1.396.125-.386.05-.72.096-1.006.137-.276.034-.52.05-.729.05zm-8.078 7.589c-.227 0-.369-.096-.428-.288-.058-.192 0-.496.176-.913a19.85 19.85 0 01.906-1.863c.36-.666.77-1.329 1.232-1.987.47-.667.976-1.313 1.52-1.938a15.74 15.74 0 011.723-1.7c.202-.167.36-.276.478-.326a.931.931 0 01.34-.075c.134 0 .238.046.314.138.075.091.1.22.075.387a.967.967 0 01-.088.288 1.115 1.115 0 01-.213.275c-.101.092-.243.217-.428.375a15.493 15.493 0 00-1.936 1.975 18.288 18.288 0 00-1.635 2.338 16.735 16.735 0 00-1.232 2.526c-.125.316-.247.525-.364.625a.624.624 0 01-.44.163zm1.546-3.876a.439.439 0 01-.301-.1.662.662 0 01-.176-.263 17.71 17.71 0 00-.503-1.15 12.155 12.155 0 00-.428-.825 291.95 291.95 0 00-.39-.7 14.815 14.815 0 01-.364-.788 4.575 4.575 0 01-.164-.525 1.003 1.003 0 010-.388.612.612 0 01.164-.337.444.444 0 01.327-.125c.125 0 .23.037.314.112.092.067.172.184.239.35.117.342.23.638.34.888.117.242.23.467.339.675.117.2.234.408.352.625a8.129 8.129 0 01.704 1.688.651.651 0 01.025.263c0 .1-.017.196-.05.287a.492.492 0 01-.164.225.388.388 0 01-.264.088zM63.87 36.254c-.227 0-.37-.096-.428-.288-.059-.192 0-.496.176-.913.243-.583.545-1.204.905-1.863.36-.666.771-1.329 1.232-1.987a23.85 23.85 0 011.522-1.938 15.73 15.73 0 011.722-1.7c.201-.167.36-.276.478-.326a.932.932 0 01.34-.075c.133 0 .238.046.313.138.076.091.101.22.076.387a.964.964 0 01-.088.288 1.114 1.114 0 01-.214.275c-.1.092-.243.217-.427.375a15.492 15.492 0 00-1.937 1.975 18.268 18.268 0 00-1.634 2.338 16.745 16.745 0 00-1.232 2.526c-.126.316-.247.525-.365.625a.624.624 0 01-.44.163zm1.546-3.876a.44.44 0 01-.302-.1.662.662 0 01-.176-.263 17.71 17.71 0 00-.503-1.15c-.15-.317-.293-.592-.427-.825l-.39-.7a14.895 14.895 0 01-.365-.788 4.596 4.596 0 01-.163-.525 1.007 1.007 0 010-.388.613.613 0 01.163-.337.444.444 0 01.327-.125c.126 0 .23.037.315.112.092.067.171.184.238.35.118.342.23.638.34.888.117.242.23.467.34.675.117.2.234.408.351.625a8.128 8.128 0 01.704 1.688.653.653 0 01.026.263.83.83 0 01-.05.287.492.492 0 01-.164.225.388.388 0 01-.264.088zm-4.842 3.813a.427.427 0 01-.402-.225c-.084-.159-.16-.421-.227-.788a9.79 9.79 0 01-.138-1.112 24.633 24.633 0 01-.038-1.4c.009-.5.03-.972.063-1.413a53.4 53.4 0 00.113-1.388 5.87 5.87 0 00.025-.913c-.008-.233-.046-.404-.113-.513-.067-.108-.176-.162-.327-.162-.226 0-.515.18-.867.537-.344.35-.721.85-1.132 1.5-.41.65-.825 1.43-1.244 2.339-.42.9-.813 1.904-1.182 3.013a1.01 1.01 0 01-.226.387.471.471 0 01-.327.126c-.193 0-.331-.063-.415-.188-.084-.133-.092-.367-.025-.7.1-.484.243-.963.427-1.438.193-.483.402-.967.629-1.45.226-.492.44-.984.64-1.476.21-.491.382-.983.516-1.475a.759.759 0 01.164-.35.395.395 0 01.301-.137c.118 0 .223.033.315.1.1.066.18.17.239.312l-.478.138c.528-.784 1.01-1.363 1.446-1.738.444-.375.888-.563 1.332-.563.487 0 .83.142 1.031.425.202.284.31.717.327 1.3.017.584-.017 1.343-.1 2.276a12.423 12.423 0 00-.063 1.788c.025.5.059.925.1 1.275l.126.875a1.87 1.87 0 010 .613.508.508 0 01-.176.312.454.454 0 01-.314.113zm-6.236-2.45c-.184 0-.314-.042-.39-.126-.075-.083-.096-.187-.063-.312a.425.425 0 01.139-.263c.083-.075.213-.141.39-.2.972-.341 2.057-.592 3.256-.75a29.696 29.696 0 013.86-.237c.293 0 .481.041.565.125.092.083.122.204.088.362-.033.167-.142.309-.327.425-.184.109-.427.163-.729.163-.964 0-1.781.029-2.452.087-.662.05-1.22.117-1.672.2-.452.075-.838.155-1.156.238-.31.083-.583.154-.818.212-.226.05-.456.075-.691.075zm-5.102 2.45c-.956 0-1.639-.108-2.05-.325-.41-.217-.586-.467-.528-.75a.422.422 0 01.151-.288.53.53 0 01.34-.1c.117 0 .226.021.327.063.109.033.234.075.377.125.15.041.34.083.566.125.226.033.515.05.867.05.344 0 .654-.021.93-.063.277-.05.52-.12.73-.212.21-.1.385-.209.528-.325 0-.234-.101-.442-.302-.626a3.201 3.201 0 00-.755-.512c-.301-.159-.62-.321-.955-.488a7.19 7.19 0 01-.93-.55 2.283 2.283 0 01-.641-.725c-.143-.275-.176-.604-.101-.988a2.37 2.37 0 01.59-1.137c.32-.35.697-.663 1.132-.938a8.348 8.348 0 011.383-.713c.486-.2.952-.35 1.396-.45.452-.108.834-.162 1.144-.162.15 0 .272.025.364.075a.34.34 0 01.176.2.468.468 0 01.013.287.575.575 0 01-.201.35c-.109.092-.277.159-.503.2-.855.159-1.597.367-2.225.626-.629.258-1.128.545-1.496.862-.36.317-.575.638-.642.963-.041.208.026.4.202.575.176.175.415.346.716.513.31.158.637.329.98.512.344.175.663.371.956.588.294.208.52.45.68.725.167.275.213.592.138.95a1.395 1.395 0 01-.39.713c-.193.2-.44.362-.742.487a4.416 4.416 0 01-1.03.275 7.805 7.805 0 01-1.195.088zm-11.266.088c-.427 0-.775-.088-1.043-.263a1.61 1.61 0 01-.579-.675 2.735 2.735 0 01-.2-.913 4.69 4.69 0 01.075-.975c.075-.35.184-.73.326-1.138.151-.408.319-.8.503-1.175.185-.383.37-.7.553-.95.076-.109.16-.196.252-.263a.952.952 0 01.314-.137c.11-.034.218-.05.327-.05.1 0 .172.033.214.1.042.058.05.141.025.25a1.574 1.574 0 01-.214.475c-.109.192-.243.425-.402.7-.15.275-.302.604-.453.988-.15.375-.276.816-.377 1.325-.109.533-.096.958.038 1.275.134.317.415.475.842.475.319 0 .637-.083.956-.25a2.85 2.85 0 00.842-.675c.252-.292.42-.617.503-.975l.138.238a3.315 3.315 0 00-.754-.188 7.546 7.546 0 00-.918-.1 7.136 7.136 0 00-.943-.013c-.31.009-.587.034-.83.075l.164-.825a5.797 5.797 0 001.232-.15c.394-.1.742-.229 1.044-.387.31-.159.561-.325.754-.5.193-.184.302-.355.327-.513.025-.117-.005-.208-.088-.275-.084-.075-.218-.113-.403-.113-.226 0-.465.034-.716.1-.243.067-.503.15-.78.25-.276.1-.57.205-.88.313-.126.033-.23.017-.314-.05-.076-.067-.1-.15-.076-.25.026-.117.105-.225.24-.325.142-.108.276-.188.402-.238.511-.266.985-.45 1.42-.55a5.228 5.228 0 011.232-.162c.302 0 .55.046.742.137a.867.867 0 01.428.375.735.735 0 01.075.538c-.05.267-.176.52-.377.763a3.598 3.598 0 01-.767.675c-.302.2-.633.37-.993.512a5.67 5.67 0 01-1.132.313l.063-.475a11.72 11.72 0 011.094 0c.344.016.645.054.905.112.26.059.457.154.591.288.143.125.21.292.201.5-.017.333-.134.667-.352 1a3.5 3.5 0 01-.842.888 4.67 4.67 0 01-1.144.65c-.41.158-.826.238-1.245.238zm112.486-11.176c-.285 0-.512-.067-.679-.2a1.168 1.168 0 01-.352-.525 2.252 2.252 0 01-.113-.726c.008-.266.037-.525.088-.775.05-.216.117-.475.201-.775a51.694 51.694 0 01.616-1.85c.109-.284.197-.505.264-.663.109-.292.205-.517.289-.675.092-.158.201-.238.327-.238a.47.47 0 01.302.113c.092.075.159.17.201.288a.67.67 0 01.038.387 4.054 4.054 0 01-.176.575c-.093.25-.197.53-.315.838-.117.308-.23.62-.339.938a6.196 6.196 0 00-.34 1.487c-.016.2-.008.367.025.5.034.125.105.188.214.188.268 0 .608-.237 1.019-.713.419-.475.884-1.129 1.395-1.963.235-.366.44-.708.616-1.025.176-.316.331-.591.465-.825.134-.242.264-.43.39-.563.126-.133.251-.2.377-.2.193 0 .331.075.415.226.092.141.134.333.126.575 0 .216-.009.483-.025.8l-.025.975c-.009.325-.009.63 0 .913.025.483.071.879.138 1.187.075.3.142.542.201.726.059.183.084.333.075.45a.597.597 0 01-.276.45.447.447 0 01-.252.075.567.567 0 01-.477-.263c-.118-.175-.21-.42-.277-.738a10.133 10.133 0 01-.163-1.112c-.017-.3-.034-.621-.051-.963a21.9 21.9 0 010-1.025c.017-.342.034-.659.051-.95l.364.125c-.1.191-.209.396-.327.612-.109.217-.243.463-.402.738-.151.267-.339.584-.566.95-.285.45-.595.88-.93 1.288-.335.4-.683.73-1.044.988-.352.25-.708.375-1.068.375zm-8.091 0c-.285 0-.511-.067-.679-.2a1.168 1.168 0 01-.352-.525 2.252 2.252 0 01-.113-.726c.008-.266.037-.525.088-.775.05-.216.117-.475.201-.775a51.694 51.694 0 01.616-1.85c.109-.284.197-.505.264-.663.109-.292.205-.517.289-.675.092-.158.201-.238.327-.238.109 0 .21.038.302.113.092.075.159.17.201.288a.67.67 0 01.038.387 4.054 4.054 0 01-.176.575c-.093.25-.197.53-.315.838-.117.308-.23.62-.339.938a6.196 6.196 0 00-.34 1.487c-.016.2-.008.367.026.5.033.125.104.188.213.188.268 0 .608-.237 1.019-.713.419-.475.884-1.129 1.395-1.963.235-.366.44-.708.616-1.025.176-.316.331-.591.465-.825.134-.242.264-.43.39-.563.126-.133.252-.2.377-.2.193 0 .331.075.415.226.092.141.134.333.126.575 0 .216-.009.483-.025.8l-.025.975c-.009.325-.009.63 0 .913.025.483.071.879.138 1.187.075.3.142.542.201.726.059.183.084.333.075.45a.597.597 0 01-.276.45.447.447 0 01-.252.075c-.293 0-.502-.192-.628-.575-.126-.384-.222-.896-.289-1.538-.017-.3-.034-.621-.051-.963a21.9 21.9 0 010-1.025c.017-.342.034-.659.051-.95l.364.125c-.142.291-.31.612-.503.962-.192.35-.456.796-.792 1.338-.285.45-.595.88-.93 1.288-.335.4-.683.73-1.044.988-.352.25-.708.375-1.068.375zm-8.02 0c-.302 0-.503-.192-.603-.575-.101-.384-.088-.892.037-1.526.101-.441.214-.775.34-1 .134-.233.285-.392.452-.475a.93.93 0 01.39-.088c.168-.016.344-.024.528-.024.612 0 1.215-.03 1.811-.088a9.185 9.185 0 001.772-.375l.227.863a7.259 7.259 0 01-1.409.375c-.502.083-1.014.141-1.533.175-.512.025-1.01.037-1.496.037l-.73-.112c.109-.492.222-1.009.34-1.55.117-.542.218-1.026.302-1.45.033-.2.1-.363.201-.488.1-.125.213-.188.339-.188.21 0 .365.083.465.25.101.158.113.413.038.763a9.864 9.864 0 01-.151.662c-.067.259-.138.53-.214.813a40.57 40.57 0 01-.201.813c-.058.25-.105.458-.138.625a17.47 17.47 0 00-.226 1.3c-.042.375-.08.658-.113.85a.527.527 0 01-.164.288.345.345 0 01-.264.125zm4.337 0c-.209 0-.36-.121-.452-.363-.084-.242-.122-.57-.113-.987a8.97 8.97 0 01.176-1.4c.167-.801.314-1.434.44-1.901.134-.475.255-.85.364-1.125a2.04 2.04 0 01.252-.488c.1-.142.222-.212.364-.212.185 0 .315.087.39.262.084.167.101.37.05.613a6.6 6.6 0 01-.276.975c-.117.35-.214.73-.289 1.137-.101.5-.172.955-.214 1.363-.034.4-.055.738-.063 1.013-.008.275-.029.48-.063.613a.582.582 0 01-.566.5zm-9.56-.013c-.52 0-.956-.07-1.308-.212a1.864 1.864 0 01-.792-.613 2.15 2.15 0 01-.352-.925 3.636 3.636 0 01.063-1.15c.092-.409.252-.817.478-1.226.235-.416.524-.796.867-1.137a4.267 4.267 0 011.17-.813 3.135 3.135 0 011.37-.313c.444 0 .809.071 1.094.213.293.142.494.35.603.625.118.275.134.621.051 1.038a2.131 2.131 0 01-.415.912 2.71 2.71 0 01-.767.663 4.12 4.12 0 01-1.019.413 4.874 4.874 0 01-1.181.137c-.57 0-.952-.066-1.144-.2-.185-.133-.26-.283-.227-.45.017-.1.055-.17.113-.212.059-.05.151-.075.277-.075.092 0 .201.016.327.05.134.025.331.037.591.037.419 0 .796-.058 1.131-.175a2.34 2.34 0 00.843-.475c.217-.208.356-.446.414-.713.051-.25.017-.437-.1-.562-.109-.125-.327-.188-.654-.188s-.641.075-.943.225c-.293.142-.57.338-.83.588a3.67 3.67 0 00-.641.863 3.486 3.486 0 00-.364 1.025c-.059.3-.063.575-.013.825.05.242.176.442.377.6.21.15.507.225.893.225.436 0 .809-.054 1.119-.163.318-.116.587-.25.804-.4.218-.15.403-.279.554-.387.15-.108.285-.163.402-.163.142 0 .243.055.302.163.067.1.083.233.05.4-.034.167-.147.342-.34.525a3.236 3.236 0 01-.729.5 4.7 4.7 0 01-.98.388 4.324 4.324 0 01-1.094.137zm-7.683-2c-.318 0-.582-.071-.792-.213a1.254 1.254 0 01-.465-.587c-.092-.25-.13-.53-.113-.838.008-.317.058-.638.151-.963.092-.325.209-.625.352-.9.151-.275.314-.5.49-.675.176-.175.352-.263.528-.263.084 0 .155.017.214.05a.33.33 0 01.151.15.376.376 0 01.037.226c-.008.075-.05.191-.125.35-.067.15-.151.329-.252.537-.1.2-.188.417-.264.65a2.466 2.466 0 00-.126.688c0 .15.013.28.038.388.025.1.071.175.138.225.076.05.172.075.29.075.268 0 .544-.067.829-.2a3.36 3.36 0 00.818-.55c.268-.234.507-.488.716-.763.21-.284.373-.567.49-.85l.101 1.287a7.427 7.427 0 01-.968 1.126 4.11 4.11 0 01-1.094.775 2.592 2.592 0 01-1.144.275zm2.678 2.038c-.184 0-.314-.071-.39-.213-.075-.15-.13-.33-.163-.537a4.439 4.439 0 01-.013-.6 10.703 10.703 0 01.239-1.613 26.337 26.337 0 01.377-1.4c.076-.25.151-.484.227-.7.075-.226.134-.405.176-.538.083-.267.176-.476.276-.626.109-.15.239-.224.39-.224.142 0 .264.087.365.262.1.175.121.396.062.663a5.42 5.42 0 01-.213.75c-.109.308-.218.63-.327.962a9.567 9.567 0 00-.227.85 11.44 11.44 0 00-.176 1.026 7 7 0 00-.05.775 3.51 3.51 0 000 .413c.009.108.004.204-.012.287a.628.628 0 01-.176.313c-.084.1-.206.15-.365.15zm-9.373 3.1c-.512 0-.943-.05-1.295-.15-.352-.091-.608-.22-.767-.387-.16-.167-.218-.346-.176-.538.058-.292.239-.438.54-.438a.61.61 0 01.277.063c.084.042.18.088.289.138.109.058.26.108.453.15.201.041.465.062.792.062.402 0 .737-.087 1.005-.262a1.85 1.85 0 00.642-.738c.167-.317.293-.684.377-1.1.05-.242.084-.48.1-.713.026-.233.051-.483.076-.75s.058-.575.1-.925c.042-.359.109-.78.202-1.263l.389.363c-.268.575-.536 1.046-.804 1.412a4.56 4.56 0 01-.78.838c-.251.192-.49.325-.716.4a2.04 2.04 0 01-.591.1c-.73 0-1.237-.3-1.522-.9-.285-.608-.293-1.58-.025-2.913.109-.559.218-.98.327-1.263.117-.283.239-.475.365-.575.125-.1.255-.15.389-.15.202 0 .332.07.39.212.059.142.038.396-.063.763a17.286 17.286 0 00-.314 1.475c-.075.45-.109.846-.101 1.188.009.342.063.609.164.8.1.184.264.275.49.275.352 0 .696-.179 1.031-.537.335-.367.65-.859.943-1.475.302-.626.574-1.326.817-2.1.076-.234.151-.389.227-.463.075-.084.192-.126.352-.126.117 0 .222.038.314.113.1.075.159.208.176.4.025.183-.013.434-.113.75a13.22 13.22 0 00-.289 1.138c-.059.333-.101.654-.126.963-.025.3-.046.608-.063.925-.008.308-.034.65-.075 1.025a17.22 17.22 0 01-.202 1.275c-.15.75-.385 1.338-.704 1.763-.31.433-.679.738-1.106.913a3.647 3.647 0 01-1.395.262zm-7.018-3.125c-.444 0-.821-.075-1.131-.225a1.924 1.924 0 01-.742-.65 2.807 2.807 0 01-.39-1 5.127 5.127 0 01-.075-1.263c.025-.467.088-.955.188-1.463a6.717 6.717 0 011.182-2.763c.268-.35.549-.638.842-.863.294-.225.587-.392.88-.5a5.28 5.28 0 01.793-.213c.268-.058.528-.108.779-.15.251-.041.482-.083.691-.125a7.12 7.12 0 00.943-.25c.26-.091.457-.137.591-.137a.53.53 0 01.277.075.451.451 0 01.226.512c-.025.142-.113.263-.264.363a2.096 2.096 0 01-.566.225 9.291 9.291 0 01-1.244.263c-.369.041-.708.083-1.019.125-.31.033-.611.112-.905.237-.285.109-.566.304-.842.588a4.394 4.394 0 00-.729 1.038 5.19 5.19 0 00-.466 1.387c-.176.892-.255 1.617-.238 2.176.025.55.15.954.377 1.212.234.259.561.388.98.388.285 0 .575-.07.868-.212.293-.15.566-.346.817-.588.26-.242.478-.504.654-.788.184-.291.302-.575.352-.85.067-.3.063-.554-.013-.763a.805.805 0 00-.402-.487c-.201-.117-.469-.175-.805-.175-.444 0-.943.125-1.496.375-.545.25-1.094.63-1.647 1.138l-.402-.475a4.828 4.828 0 011.169-1.163 4.707 4.707 0 011.358-.675c.469-.15.914-.225 1.333-.225.511 0 .938.095 1.282.287.344.183.587.45.729.8.143.35.155.784.038 1.3a4.108 4.108 0 01-.516 1.276 5.22 5.22 0 01-.905 1.125c-.36.333-.758.604-1.194.813-.436.2-.889.3-1.358.3zm-7.399.012c-.687 0-1.253-.15-1.697-.45a2.311 2.311 0 01-.905-1.213c-.16-.516-.176-1.104-.05-1.762.092-.467.251-.876.477-1.226a4.15 4.15 0 01.78-.9c.293-.242.587-.42.88-.538.293-.125.545-.187.754-.187.092 0 .168.013.227.038a.277.277 0 01.15.125c.042.05.055.12.038.212a1.53 1.53 0 01-.201.463c-.092.133-.264.254-.515.362-.302.142-.558.3-.767.475a2.068 2.068 0 00-.49.588c-.126.217-.214.48-.265.788-.134.675-.054 1.216.24 1.625.292.4.74.6 1.344.6.587 0 1.098-.208 1.534-.625.444-.425.734-.988.868-1.688.134-.642.092-1.142-.126-1.5-.218-.367-.578-.55-1.081-.55-.26 0-.482.05-.667.15-.176.1-.368.233-.578.4a3.803 3.803 0 00-.365.337c-.092.1-.175.18-.25.238a.43.43 0 01-.265.075.352.352 0 01-.276-.113c-.06-.083-.072-.212-.038-.387a1.32 1.32 0 01.289-.588c.168-.2.369-.383.603-.55.243-.175.503-.313.78-.413.276-.108.549-.162.817-.162.604 0 1.094.142 1.471.425.377.275.633.659.767 1.15.134.484.134 1.042 0 1.676a4.15 4.15 0 01-.679 1.65c-.335.467-.746.83-1.232 1.088a3.252 3.252 0 01-1.572.387zm-12.294-.012c-.444 0-.822-.075-1.132-.225a1.933 1.933 0 01-.742-.65 2.809 2.809 0 01-.39-1 5.097 5.097 0 01-.075-1.263c.025-.467.088-.955.189-1.463a6.737 6.737 0 01.478-1.55c.21-.467.444-.872.704-1.213a4.61 4.61 0 01.842-.863 3.37 3.37 0 01.88-.5c.26-.092.524-.163.792-.213.268-.058.528-.108.78-.15.251-.041.482-.083.691-.125.369-.075.683-.158.943-.25.26-.091.457-.137.591-.137.1 0 .193.025.277.075a.45.45 0 01.226.512c-.025.142-.113.263-.264.363-.151.092-.34.167-.566.225a9.315 9.315 0 01-1.245.263c-.368.041-.708.083-1.018.125-.31.033-.612.112-.905.237-.285.109-.566.304-.843.588a4.389 4.389 0 00-.729 1.038c-.21.408-.364.87-.465 1.387-.176.892-.256 1.617-.239 2.176.025.55.151.954.377 1.212.235.259.562.388.981.388.285 0 .574-.07.868-.212.293-.15.565-.346.817-.588.26-.242.478-.504.654-.788.184-.291.301-.575.352-.85.067-.3.062-.554-.013-.763a.805.805 0 00-.402-.487c-.201-.117-.47-.175-.805-.175-.444 0-.943.125-1.496.375-.545.25-1.094.63-1.647 1.138l-.402-.475a4.825 4.825 0 011.169-1.163 4.698 4.698 0 011.358-.675c.47-.15.913-.225 1.332-.225.512 0 .94.095 1.283.287.343.183.587.45.729.8.142.35.155.784.038 1.3a4.126 4.126 0 01-.516 1.276 5.243 5.243 0 01-.905 1.125c-.36.333-.758.604-1.194.813-.436.2-.889.3-1.358.3zm-7.399.012c-.687 0-1.253-.15-1.697-.45a2.311 2.311 0 01-.905-1.213c-.16-.516-.176-1.104-.05-1.762.092-.467.25-.876.477-1.226a4.15 4.15 0 01.78-.9c.293-.242.586-.42.88-.538.293-.125.544-.187.754-.187.092 0 .168.013.226.038a.281.281 0 01.151.125c.042.05.055.12.038.212-.042.167-.11.321-.201.463-.093.133-.264.254-.516.362-.302.142-.557.3-.767.475a2.068 2.068 0 00-.49.588c-.126.217-.214.48-.264.788-.134.675-.054 1.216.239 1.625.293.4.742.6 1.345.6.587 0 1.098-.208 1.534-.625.444-.425.733-.988.867-1.688.135-.642.093-1.142-.125-1.5-.218-.367-.579-.55-1.081-.55-.26 0-.482.05-.667.15a4.52 4.52 0 00-.578.4 3.771 3.771 0 00-.365.337c-.092.1-.176.18-.251.238a.43.43 0 01-.264.075.352.352 0 01-.277-.113c-.059-.083-.071-.212-.038-.387.034-.192.13-.388.29-.588.167-.2.368-.383.603-.55.243-.175.503-.313.78-.413a2.23 2.23 0 01.817-.162c.603 0 1.094.142 1.47.425.378.275.633.659.768 1.15.134.484.134 1.042 0 1.676a4.15 4.15 0 01-.68 1.65c-.334.467-.745.83-1.231 1.088a3.25 3.25 0 01-1.572.387zm-11.909 0c-.687 0-1.253-.15-1.697-.45a2.312 2.312 0 01-.906-1.213c-.159-.516-.176-1.104-.05-1.762.092-.467.251-.876.478-1.226a4.15 4.15 0 01.78-.9c.293-.242.586-.42.88-.538.293-.125.544-.187.754-.187.092 0 .167.013.226.038a.28.28 0 01.15.125c.043.05.055.12.039.212-.042.167-.11.321-.202.463-.092.133-.264.254-.515.362-.302.142-.557.3-.767.475a2.066 2.066 0 00-.49.588c-.126.217-.214.48-.264.788-.134.675-.055 1.216.239 1.625.293.4.741.6 1.345.6.587 0 1.098-.208 1.534-.625.444-.425.733-.988.867-1.688.134-.642.092-1.142-.126-1.5-.218-.367-.578-.55-1.08-.55-.26 0-.483.05-.667.15a4.59 4.59 0 00-.578.4 3.771 3.771 0 00-.365.337c-.092.1-.176.18-.252.238a.43.43 0 01-.264.075.352.352 0 01-.276-.113c-.059-.083-.071-.212-.038-.387.034-.192.13-.388.29-.588.167-.2.368-.383.603-.55.243-.175.503-.313.78-.413a2.23 2.23 0 01.816-.162c.604 0 1.094.142 1.472.425.377.275.632.659.766 1.15.135.484.135 1.042 0 1.676a4.153 4.153 0 01-.678 1.65 3.56 3.56 0 01-1.233 1.088 3.25 3.25 0 01-1.571.387zm-7.461-.025c-.696 0-1.237-.125-1.622-.375a1.775 1.775 0 01-.755-1.038c-.117-.441-.121-.937-.012-1.487a4.64 4.64 0 01.477-1.226 5.19 5.19 0 01.868-1.137 4.272 4.272 0 011.17-.813 3.14 3.14 0 011.37-.313c.444 0 .808.071 1.093.213.294.142.495.35.604.625.117.275.134.621.05 1.038a2.11 2.11 0 01-.616 1.163 3.315 3.315 0 01-1.22.712 4.65 4.65 0 01-1.546.25c-.57 0-.951-.066-1.144-.2-.184-.133-.26-.283-.226-.45.017-.1.054-.17.113-.212.059-.05.15-.075.277-.075a1.3 1.3 0 01.326.05c.135.025.332.037.591.037.42 0 .797-.058 1.132-.175a2.34 2.34 0 00.842-.475c.218-.208.356-.446.415-.713.05-.25.017-.437-.1-.562-.11-.125-.327-.188-.654-.188s-.642.075-.943.225c-.293.142-.57.338-.83.588a3.678 3.678 0 00-1.006 1.888c-.058.3-.063.575-.012.825.05.242.176.442.377.6.21.15.507.225.892.225.436 0 .81-.054 1.12-.163.318-.116.586-.25.804-.4.218-.15.402-.279.553-.387.151-.108.285-.163.403-.163.142 0 .243.055.301.163.067.1.084.233.05.4-.033.167-.146.342-.339.525a3.251 3.251 0 01-.73.5c-.292.159-.62.288-.98.388a4.321 4.321 0 01-1.093.137zm-10.16-.7c.109-.25.247-.53.415-.838.167-.316.347-.645.54-.987.201-.342.402-.675.604-1 .21-.334.406-.634.59-.9.243-.342.487-.663.73-.963.243-.3.473-.542.691-.726.226-.191.42-.287.578-.287a.57.57 0 01.44.212c.135.142.252.376.352.7.068.234.139.53.214.888a23.528 23.528 0 01.377 2.438c.042.425.068.817.076 1.175l-1.106.1a15.16 15.16 0 00-.088-1.3 16.891 16.891 0 00-.177-1.375 14.38 14.38 0 00-.238-1.15c-.084-.334-.172-.559-.264-.675l.49-.1c-.268.283-.553.616-.855 1-.293.383-.57.796-.83 1.238a65.69 65.69 0 00-.54.925 22.35 22.35 0 00-.466.85c-.134.267-.268.542-.402.825l-1.131-.05zm5.443 2.388a.468.468 0 01-.39-.175.435.435 0 01-.087-.388c.016-.1.07-.25.163-.45.092-.191.189-.412.29-.662.1-.25.175-.509.226-.775l.452.637a8.184 8.184 0 00-.553-.05 14.066 14.066 0 00-.93-.025 76.597 76.597 0 00-2.741.05 29.23 29.23 0 00-1.27.075 17.6 17.6 0 00-1.106.125l.49-.437a9.044 9.044 0 00-.088.875c-.008.166-.017.312-.025.437v.263a.43.43 0 01-.151.325.505.505 0 01-.352.125c-.201 0-.34-.08-.415-.238a1.297 1.297 0 01-.113-.562 3.725 3.725 0 01.012-.513c.017-.208.038-.37.063-.487.034-.134.084-.25.151-.35a.751.751 0 01.264-.275 1.25 1.25 0 01.453-.163c.21-.033.49-.063.842-.088.36-.033.763-.058 1.207-.075.453-.024.918-.041 1.396-.05a39.28 39.28 0 011.37-.024c.218 0 .457.004.717.012.26 0 .511.017.754.05.243.025.407.1.49.225.093.125.114.32.063.588a4.73 4.73 0 01-.188.662 3.86 3.86 0 01-.302.65 2.023 2.023 0 01-.352.5c-.117.125-.23.188-.34.188zM44.07 25.103c-.285 0-.511-.067-.679-.2a1.17 1.17 0 01-.352-.525 2.266 2.266 0 01-.113-.726 4.68 4.68 0 01.088-.775c.05-.216.117-.475.201-.775.092-.3.193-.613.302-.938a56 56 0 01.314-.912c.11-.284.197-.505.264-.663.11-.292.206-.517.29-.675.092-.158.2-.238.326-.238.11 0 .21.038.302.113.092.075.16.17.201.288.05.116.063.245.038.387a3.912 3.912 0 01-.176.575c-.092.25-.197.53-.314.838-.118.308-.23.62-.34.938a6.251 6.251 0 00-.34 1.487c-.016.2-.008.367.026.5.034.125.105.188.214.188.268 0 .607-.237 1.018-.713.42-.475.884-1.129 1.395-1.963.235-.366.44-.708.617-1.025.176-.316.33-.591.465-.825.134-.242.264-.43.39-.563.125-.133.25-.2.377-.2.192 0 .33.075.414.226.093.141.135.333.126.575 0 .216-.008.483-.025.8l-.025.975c-.008.325-.008.63 0 .913.025.483.071.879.138 1.187.076.3.143.542.201.726.06.183.084.333.076.45a.613.613 0 01-.088.262.672.672 0 01-.189.188.446.446 0 01-.251.075c-.193 0-.352-.088-.478-.263-.117-.175-.21-.42-.276-.738a10.322 10.322 0 01-.164-1.112c-.017-.3-.033-.621-.05-.963a20.857 20.857 0 010-1.025c.017-.342.033-.659.05-.95l.365.125c-.1.191-.21.396-.327.612a27.482 27.482 0 01-.968 1.688c-.285.45-.595.88-.93 1.288-.336.4-.684.73-1.044.988-.352.25-.708.375-1.069.375zm-6.1.062c-.427 0-.775-.087-1.043-.262a1.61 1.61 0 01-.579-.675 2.735 2.735 0 01-.2-.913 4.69 4.69 0 01.075-.975c.075-.35.184-.73.326-1.138.151-.409.319-.8.503-1.175.185-.384.37-.7.553-.95.076-.109.16-.196.252-.263a.95.95 0 01.314-.137 1.11 1.11 0 01.327-.05c.1 0 .172.033.214.1.042.058.05.141.025.25a1.573 1.573 0 01-.214.475l-.402.7c-.15.275-.302.604-.453.987-.15.376-.276.817-.377 1.326-.109.533-.096.958.038 1.275.134.317.415.475.842.475.319 0 .637-.083.956-.25a2.85 2.85 0 00.842-.675 2.27 2.27 0 00.503-.975l.138.237a3.32 3.32 0 00-.754-.187 7.526 7.526 0 00-.918-.1 7.136 7.136 0 00-.943-.013c-.31.009-.587.034-.83.075l.164-.825a5.791 5.791 0 001.232-.15c.394-.1.742-.23 1.044-.388.31-.158.561-.325.754-.5.193-.183.302-.354.327-.512.025-.117-.005-.209-.088-.275-.084-.075-.218-.113-.403-.113-.226 0-.465.034-.716.1-.243.067-.503.15-.78.25-.276.1-.57.204-.88.313-.126.033-.23.016-.314-.05-.076-.067-.1-.15-.076-.25.026-.117.105-.225.24-.325.142-.109.276-.188.402-.238.511-.267.985-.45 1.42-.55a5.223 5.223 0 011.232-.163c.302 0 .55.046.742.138a.867.867 0 01.428.375.735.735 0 01.075.538c-.05.266-.176.52-.377.762a3.595 3.595 0 01-.767.675 5.29 5.29 0 01-.993.513 5.67 5.67 0 01-1.132.313l.063-.476c.394-.016.759-.016 1.094 0 .344.017.645.055.905.113s.457.154.591.288c.143.125.21.291.201.5-.017.333-.134.666-.352 1-.21.325-.49.62-.842.888a4.67 4.67 0 01-1.144.65c-.41.158-.826.237-1.245.237zm127.997-11.188c-.696 0-1.236-.125-1.622-.375a1.775 1.775 0 01-.754-1.038c-.118-.442-.122-.938-.013-1.488a4.65 4.65 0 01.478-1.225c.235-.417.524-.796.867-1.138a4.28 4.28 0 011.17-.812 3.137 3.137 0 011.37-.313c.444 0 .809.071 1.094.213.293.141.494.35.603.625.118.275.134.62.051 1.038a2.11 2.11 0 01-.616 1.162 3.32 3.32 0 01-1.22.713c-.478.167-.993.25-1.546.25-.57 0-.952-.067-1.144-.2-.185-.133-.26-.283-.227-.45.017-.1.055-.171.113-.213.059-.05.151-.075.277-.075.092 0 .201.017.327.05.134.025.331.038.591.038.419 0 .796-.059 1.131-.175a2.34 2.34 0 00.843-.475 1.39 1.39 0 00.415-.713c.05-.25.016-.438-.101-.563-.109-.125-.327-.187-.654-.187s-.641.075-.943.225c-.293.142-.57.338-.829.588a3.664 3.664 0 00-1.006 1.887c-.059.3-.063.576-.013.826.05.241.176.441.377.6.21.15.507.225.893.225.436 0 .809-.054 1.119-.163.318-.117.587-.25.805-.4.217-.15.402-.28.553-.387.151-.109.285-.163.402-.163.143 0 .243.054.302.163.067.1.084.233.05.4-.033.166-.147.341-.339.525a3.267 3.267 0 01-.73.5c-.293.158-.62.287-.98.387a4.324 4.324 0 01-1.094.138zm-7.26.025c-.687 0-1.253-.15-1.697-.45a2.312 2.312 0 01-.905-1.213c-.159-.517-.176-1.104-.05-1.763.092-.466.251-.875.477-1.225.235-.358.495-.658.78-.9.293-.242.587-.421.88-.538.293-.125.545-.187.754-.187.093 0 .168.012.227.037a.283.283 0 01.151.125c.041.05.054.121.037.213a1.53 1.53 0 01-.201.462c-.092.134-.264.255-.515.363-.302.142-.558.3-.767.475a2.076 2.076 0 00-.491.588 2.321 2.321 0 00-.264.787c-.134.675-.054 1.217.239 1.626.294.4.742.6 1.345.6.587 0 1.098-.209 1.534-.625.445-.425.734-.988.868-1.688.134-.642.092-1.142-.126-1.5-.218-.367-.578-.55-1.081-.55-.26 0-.482.05-.666.15a4.63 4.63 0 00-.579.4 3.743 3.743 0 00-.364.337c-.093.1-.176.18-.252.238a.43.43 0 01-.264.075.351.351 0 01-.276-.113c-.059-.083-.072-.212-.038-.387a1.32 1.32 0 01.289-.588c.168-.2.369-.383.603-.55a3.19 3.19 0 01.78-.413c.277-.108.549-.162.817-.162.604 0 1.094.141 1.471.425.377.275.633.658.767 1.15.134.483.134 1.042 0 1.675a4.15 4.15 0 01-.679 1.65c-.335.467-.746.83-1.232 1.088a3.252 3.252 0 01-1.572.388zm-4.794-.012c-.251 0-.528-.076-.829-.226a4.555 4.555 0 01-.893-.625 8.172 8.172 0 01-.792-.825 4.76 4.76 0 01-.553-.838 1.214 1.214 0 01-.164-.362 1.545 1.545 0 01-.012-.338 2.31 2.31 0 01.1-.225.866.866 0 01.164-.225c.1-.133.272-.312.515-.537.243-.225.524-.467.843-.725.326-.267.662-.513 1.005-.738.352-.234.683-.425.994-.575.318-.15.59-.225.817-.225.092 0 .163.02.214.062.058.042.1.096.125.163a.406.406 0 01.025.2c-.008.183-.13.358-.364.525a6.69 6.69 0 01-.755.462c-.477.267-.901.53-1.269.788-.369.259-.667.488-.893.688-.218.2-.331.341-.339.425-.017.083.037.23.163.437.126.2.318.43.578.688.26.25.566.483.918.7.159.1.314.196.465.288.16.083.285.17.377.262.101.084.147.18.139.288a.502.502 0 01-.302.425.615.615 0 01-.277.062zm-4.186-.013c-.218 0-.365-.108-.44-.325-.076-.225-.097-.546-.063-.963.042-.425.121-.938.239-1.538.05-.25.109-.512.176-.787l.226-.825c.076-.284.138-.559.189-.826.016-.066.029-.133.037-.2.017-.075.03-.15.038-.225.034-.166.08-.304.138-.412a.776.776 0 01.202-.25.4.4 0 01.251-.1c.193 0 .344.087.453.262.117.167.142.405.075.713a9.085 9.085 0 01-.201.775c-.084.3-.172.609-.264.925a11.21 11.21 0 00-.214.838c-.075.433-.134.82-.176 1.163a15.6 15.6 0 00-.063.85 2.068 2.068 0 01-.05.45.57.57 0 01-.113.262.466.466 0 01-.189.15.468.468 0 01-.251.063zm-6.371-5.051c-.193 0-.344-.058-.453-.175a.437.437 0 01.05-.638c.076-.066.21-.125.403-.175a9.284 9.284 0 011.207-.225c.511-.066 1.106-.1 1.785-.1.352 0 .675.009.968.025.302.009.633.038.993.088.285.033.503.1.654.2.159.1.226.212.201.337a.529.529 0 01-.339.413.862.862 0 01-.352.062c-.176 0-.382-.008-.616-.025a87.406 87.406 0 00-.755-.05 8.4 8.4 0 00-.804-.037c-.579 0-1.044.025-1.396.075a7.298 7.298 0 00-.88.15c-.235.05-.457.075-.666.075zm1.823 5.076a.454.454 0 01-.415-.225 1.65 1.65 0 01-.176-.575 4.899 4.899 0 010-.713c.025-.308.067-.642.125-1 .059-.367.122-.721.189-1.063.092-.458.172-.862.239-1.212.075-.359.134-.655.176-.888l1.131-.075-.125.537a77.39 77.39 0 00-.139.713c-.05.258-.104.525-.163.8-.05.267-.101.525-.151.775a9.858 9.858 0 00-.163 1.05 6.51 6.51 0 00-.013.676c.008.175.017.32.025.437.009.109.004.209-.012.3a.664.664 0 01-.101.25.468.468 0 01-.189.15.485.485 0 01-.238.063zm-6.828 0c-.687 0-1.253-.15-1.697-.45a2.307 2.307 0 01-.905-1.213c-.16-.517-.176-1.104-.051-1.763.093-.466.252-.875.478-1.225.235-.358.495-.658.78-.9a3.32 3.32 0 01.88-.538c.293-.125.545-.187.754-.187a.58.58 0 01.226.037.28.28 0 01.151.125c.042.05.055.121.038.213a1.53 1.53 0 01-.201.462c-.092.134-.264.255-.516.363-.301.142-.557.3-.767.475a2.073 2.073 0 00-.49.588 2.279 2.279 0 00-.264.787c-.134.675-.054 1.217.239 1.626.293.4.742.6 1.345.6.587 0 1.098-.209 1.534-.625.444-.425.733-.988.868-1.688.134-.642.092-1.142-.126-1.5-.218-.367-.579-.55-1.081-.55-.26 0-.482.05-.667.15a4.52 4.52 0 00-.578.4 3.89 3.89 0 00-.365.337c-.092.1-.176.18-.251.238a.43.43 0 01-.264.075.353.353 0 01-.277-.113c-.058-.083-.071-.212-.037-.387a1.31 1.31 0 01.289-.588c.167-.2.368-.383.603-.55.243-.175.503-.313.78-.413.276-.108.549-.162.817-.162.603 0 1.094.141 1.471.425.377.275.633.658.767 1.15.134.483.134 1.042 0 1.675a4.164 4.164 0 01-.679 1.65c-.335.467-.746.83-1.232 1.088a3.252 3.252 0 01-1.572.388zm-7.248-.088c-.402 0-.754-.054-1.056-.162-.302-.108-.532-.25-.692-.425-.159-.175-.222-.359-.188-.55a.61.61 0 01.138-.263.337.337 0 01.264-.112c.084 0 .159.02.226.062l.239.15c.093.058.227.113.403.163.176.041.415.062.716.062.47 0 .876-.112 1.22-.337.352-.234.578-.63.679-1.188.084-.392.088-.746.012-1.063a1.898 1.898 0 00-.389-.837 1.829 1.829 0 00-.742-.55 2.676 2.676 0 00-1.031-.188c-.193 0-.39.02-.591.062a2.645 2.645 0 01-.528.063.515.515 0 01-.252-.063.358.358 0 01-.15-.2.495.495 0 01-.013-.25c.05-.225.201-.396.453-.512.259-.125.653-.188 1.181-.188.562 0 1.061.096 1.497.288a2.786 2.786 0 011.672 2.05c.109.475.104 1.005-.013 1.588a2.907 2.907 0 01-.402 1.025c-.185.3-.411.555-.679.763-.268.2-.57.354-.905.462-.336.1-.692.15-1.069.15zm-2.954 3.201a.47.47 0 01-.265-.075.324.324 0 01-.138-.2.71.71 0 010-.325 1.05 1.05 0 01.138-.35c.059-.1.126-.225.202-.375.075-.142.155-.325.239-.55.083-.225.163-.521.238-.888a9.689 9.689 0 00.202-1.825c.008-.609.012-1.226.012-1.85.009-.634.071-1.268.189-1.901.042-.208.113-.363.213-.463a.534.534 0 01.39-.162c.134 0 .243.046.327.137.092.084.155.2.189.35.033.142.029.3-.013.476-.101.5-.163.975-.189 1.425-.016.442-.025.875-.025 1.3.009.425.005.85-.012 1.275a8.076 8.076 0 01-.164 1.313 8.54 8.54 0 01-.276 1.113 4.562 4.562 0 01-.365.85 1.793 1.793 0 01-.415.537.703.703 0 01-.477.188zm-4.506-3.113c-.688 0-1.253-.15-1.698-.45a2.318 2.318 0 01-.905-1.213c-.159-.517-.176-1.104-.05-1.763a3.46 3.46 0 01.478-1.225c.234-.358.494-.658.779-.9.293-.242.587-.421.88-.538.294-.125.545-.187.754-.187.093 0 .168.012.227.037a.283.283 0 01.151.125c.042.05.054.121.037.213a1.53 1.53 0 01-.201.462c-.092.134-.264.255-.515.363-.302.142-.558.3-.767.475a2.056 2.056 0 00-.49.588 2.279 2.279 0 00-.264.787c-.135.675-.055 1.217.238 1.626.294.4.742.6 1.346.6.586 0 1.098-.209 1.533-.625.445-.425.734-.988.868-1.688.134-.642.092-1.142-.126-1.5-.218-.367-.578-.55-1.081-.55-.26 0-.482.05-.666.15a4.63 4.63 0 00-.579.4 3.743 3.743 0 00-.364.337c-.092.1-.176.18-.252.238a.43.43 0 01-.264.075.351.351 0 01-.276-.113c-.059-.083-.072-.212-.038-.387a1.32 1.32 0 01.289-.588 3.2 3.2 0 01.604-.55c.243-.175.502-.313.779-.413.277-.108.549-.162.817-.162.604 0 1.094.141 1.471.425.377.275.633.658.767 1.15.134.483.134 1.042 0 1.675a4.15 4.15 0 01-.679 1.65c-.335.467-.746.83-1.232 1.088a3.249 3.249 0 01-1.571.388zm-4.794-.012c-.252 0-.528-.076-.83-.226a4.555 4.555 0 01-.893-.625 8.172 8.172 0 01-.792-.825 4.76 4.76 0 01-.553-.838 1.24 1.24 0 01-.164-.362 1.61 1.61 0 01-.012-.338c.025-.066.059-.141.1-.225a.866.866 0 01.164-.225c.1-.133.272-.312.515-.537.243-.225.524-.467.843-.725.327-.267.662-.513 1.006-.738.352-.234.683-.425.993-.575.318-.15.591-.225.817-.225.092 0 .163.02.214.062.058.042.1.096.125.163.026.066.034.133.026.2-.009.183-.13.358-.365.525-.235.167-.486.32-.754.462-.478.267-.901.53-1.27.788-.369.259-.667.488-.893.688-.218.2-.331.341-.339.425-.017.083.037.23.163.437.126.2.319.43.578.688.26.25.566.483.918.7.159.1.315.196.465.288.16.083.285.17.378.262.1.084.146.18.138.288a.496.496 0 01-.302.425.613.613 0 01-.276.062zm-4.187-.013c-.218 0-.365-.108-.44-.325-.075-.225-.096-.546-.063-.963.042-.425.122-.938.239-1.538.05-.25.109-.512.176-.787l.226-.825c.076-.284.139-.559.189-.826a1.76 1.76 0 00.038-.2c.016-.075.029-.15.037-.225a1.49 1.49 0 01.139-.412.762.762 0 01.201-.25.403.403 0 01.251-.1c.193 0 .344.087.453.262.117.167.142.405.075.713a9.085 9.085 0 01-.201.775c-.084.3-.172.609-.264.925-.092.317-.163.596-.214.838-.075.433-.134.82-.176 1.163a15.6 15.6 0 00-.063.85 2.068 2.068 0 01-.05.45.57.57 0 01-.113.262.466.466 0 01-.189.15.465.465 0 01-.251.063zm-9.42 0c-.696 0-1.236-.125-1.622-.375a1.775 1.775 0 01-.754-1.038c-.118-.442-.122-.938-.013-1.488a4.65 4.65 0 01.478-1.225c.235-.417.524-.796.867-1.138a4.264 4.264 0 011.17-.812 3.134 3.134 0 011.37-.313c.444 0 .809.071 1.094.213.293.141.494.35.603.625.118.275.134.62.051 1.038a2.11 2.11 0 01-.616 1.162 3.32 3.32 0 01-1.22.713c-.478.167-.993.25-1.546.25-.57 0-.952-.067-1.144-.2-.185-.133-.26-.283-.227-.45.017-.1.055-.171.113-.213.059-.05.151-.075.277-.075.092 0 .201.017.327.05.134.025.331.038.591.038.419 0 .796-.059 1.131-.175a2.34 2.34 0 00.843-.475 1.38 1.38 0 00.414-.713c.051-.25.017-.438-.1-.563-.109-.125-.327-.187-.654-.187s-.641.075-.943.225c-.293.142-.57.338-.83.588-.251.25-.465.537-.641.862a3.485 3.485 0 00-.364 1.025c-.059.3-.063.576-.013.826.05.241.176.441.377.6.21.15.507.225.893.225.436 0 .809-.054 1.119-.163.318-.117.587-.25.804-.4.218-.15.403-.28.554-.387.151-.109.285-.163.402-.163.142 0 .243.054.302.163.067.1.083.233.05.4-.034.166-.147.341-.339.525a3.267 3.267 0 01-.73.5c-.293.158-.62.287-.98.387a4.324 4.324 0 01-1.094.138zm-7.989-5.051c-.193 0-.343-.058-.452-.175a.436.436 0 01-.101-.4.484.484 0 01.15-.238c.076-.066.21-.125.403-.175a9.31 9.31 0 011.207-.225c.511-.066 1.107-.1 1.785-.1.352 0 .675.009.968.025a9.3 9.3 0 01.994.088c.285.033.503.1.653.2.16.1.227.212.202.337a.566.566 0 01-.114.25.523.523 0 01-.226.163.855.855 0 01-.352.062c-.176 0-.381-.008-.616-.025a87.06 87.06 0 00-.754-.05 8.405 8.405 0 00-.805-.037c-.578 0-1.043.025-1.395.075a7.29 7.29 0 00-.88.15 3.2 3.2 0 01-.667.075zm1.823 5.076a.455.455 0 01-.415-.225 1.666 1.666 0 01-.176-.575 4.957 4.957 0 010-.713c.025-.308.067-.642.126-1 .059-.367.121-.721.189-1.063.092-.458.171-.862.239-1.212.075-.359.134-.655.175-.888l1.132-.075-.126.537c-.042.209-.088.446-.138.713-.05.258-.105.525-.163.8-.05.267-.101.525-.151.775a9.955 9.955 0 00-.164 1.05c-.016.276-.02.5-.012.676.008.175.016.32.025.437a1.17 1.17 0 01-.013.3.654.654 0 01-.1.25.471.471 0 01-.189.15.488.488 0 01-.239.063zm-8.817-.012c-.285 0-.512-.067-.68-.2a1.168 1.168 0 01-.351-.526 2.265 2.265 0 01-.113-.725c.008-.266.037-.525.088-.775.05-.217.117-.475.2-.775a55.149 55.149 0 01.616-1.85c.11-.284.198-.505.265-.663.109-.292.205-.517.289-.675.092-.159.201-.238.327-.238.109 0 .21.038.301.113.093.075.16.17.202.287.05.117.063.246.037.388a3.928 3.928 0 01-.176.575c-.092.25-.197.53-.314.838-.117.308-.23.62-.34.937a6.25 6.25 0 00-.339 1.488c-.017.2-.008.367.025.5.034.125.105.188.214.188.268 0 .608-.238 1.018-.713.42-.475.885-1.13 1.396-1.963.235-.367.44-.708.616-1.025.176-.317.331-.592.465-.825.134-.242.264-.43.39-.563.126-.133.251-.2.377-.2.193 0 .331.075.415.225.092.142.134.334.126.575 0 .217-.009.484-.026.8l-.025.976a17.31 17.31 0 000 .912c.025.484.072.88.139 1.188.075.3.142.542.2.725.06.184.085.334.076.45a.611.611 0 01-.088.263.67.67 0 01-.188.187.445.445 0 01-.252.075c-.193 0-.352-.087-.478-.262-.117-.175-.21-.421-.276-.738a10.327 10.327 0 01-.164-1.112l-.05-.963a21.11 21.11 0 010-1.025l.05-.95.365.125c-.1.191-.21.395-.327.612a14.47 14.47 0 01-.402.738c-.151.267-.34.583-.566.95-.285.45-.595.88-.93 1.288-.335.4-.683.729-1.044.987-.352.25-.708.375-1.068.375zm-5.565-.076c-.403 0-.755-.054-1.056-.162-.302-.108-.533-.25-.692-.425-.16-.175-.222-.359-.189-.55a.61.61 0 01.139-.263.337.337 0 01.264-.112c.084 0 .159.02.226.062l.239.15c.092.058.226.113.402.163.176.041.415.062.717.062.47 0 .876-.112 1.22-.337.351-.234.578-.63.678-1.188.084-.392.088-.746.013-1.063a1.892 1.892 0 00-.39-.837 1.82 1.82 0 00-.742-.55 2.673 2.673 0 00-1.03-.188c-.193 0-.39.02-.591.062a2.648 2.648 0 01-.528.063.51.51 0 01-.252-.063.358.358 0 01-.15-.2.508.508 0 01-.013-.25c.05-.225.2-.396.452-.512.26-.125.654-.188 1.182-.188.562 0 1.06.096 1.496.288a2.78 2.78 0 011.672 2.05c.11.475.105 1.005-.012 1.588-.076.383-.21.725-.403 1.025-.184.3-.41.555-.679.763-.268.2-.57.354-.905.462-.335.1-.691.15-1.068.15zm-2.955 3.201a.467.467 0 01-.264-.075.325.325 0 01-.138-.2.707.707 0 010-.325 1.05 1.05 0 01.138-.35c.059-.1.126-.225.201-.375.076-.142.155-.325.24-.55.083-.225.163-.521.238-.888a9.662 9.662 0 00.201-1.825c.008-.609.013-1.226.013-1.85.008-.634.071-1.268.188-1.901.042-.208.114-.363.214-.463a.533.533 0 01.39-.162c.134 0 .243.046.327.137.092.084.155.2.188.35.034.142.03.3-.012.476-.1.5-.164.975-.189 1.425-.017.442-.025.875-.025 1.3.008.425.004.85-.013 1.275a8.14 8.14 0 01-.163 1.313c-.075.409-.168.78-.277 1.113a4.55 4.55 0 01-.364.85 1.792 1.792 0 01-.415.537.706.706 0 01-.478.188zm-5.591-8.189c-.193 0-.344-.058-.453-.175a.436.436 0 01-.1-.4.483.483 0 01.15-.238c.076-.066.21-.125.403-.175a9.309 9.309 0 011.207-.225 13.98 13.98 0 011.785-.1c.352 0 .675.009.968.025.302.009.633.038.993.088.285.033.503.1.654.2.16.1.227.212.201.337a.528.528 0 01-.34.413.858.858 0 01-.351.062c-.176 0-.381-.008-.616-.025a85.894 85.894 0 00-.755-.05 8.4 8.4 0 00-.804-.037c-.578 0-1.044.025-1.396.075a7.29 7.29 0 00-.88.15c-.234.05-.456.075-.666.075zm1.823 5.076a.455.455 0 01-.415-.225 1.666 1.666 0 01-.176-.575 4.957 4.957 0 010-.713c.025-.308.067-.642.126-1 .058-.367.121-.721.188-1.063.093-.458.172-.862.24-1.212.075-.359.133-.655.175-.888l1.132-.075-.126.537c-.042.209-.088.446-.138.713-.05.258-.105.525-.164.8-.05.267-.1.525-.15.775a9.95 9.95 0 00-.164 1.05 6.822 6.822 0 00.013 1.113 1.17 1.17 0 01-.013.3.656.656 0 01-.1.25.472.472 0 01-.19.15.487.487 0 01-.238.063zm-6.827 0c-.688 0-1.254-.15-1.698-.45a2.311 2.311 0 01-.905-1.213c-.16-.517-.176-1.104-.05-1.763a3.46 3.46 0 01.478-1.225c.234-.358.494-.658.779-.9.293-.242.587-.421.88-.538.293-.125.545-.187.754-.187.093 0 .168.012.227.037a.28.28 0 01.15.125c.043.05.055.121.038.213a1.55 1.55 0 01-.2.462c-.093.134-.265.255-.516.363a3.53 3.53 0 00-.767.475 2.067 2.067 0 00-.49.588 2.3 2.3 0 00-.265.787c-.134.675-.054 1.217.24 1.626.293.4.741.6 1.344.6a2.15 2.15 0 001.534-.625c.445-.425.734-.988.868-1.688.134-.642.092-1.142-.126-1.5-.218-.367-.578-.55-1.081-.55-.26 0-.482.05-.666.15a4.6 4.6 0 00-.579.4c-.15.125-.272.237-.364.337-.093.1-.176.18-.252.238a.43.43 0 01-.264.075.352.352 0 01-.276-.113c-.06-.083-.072-.212-.038-.387a1.32 1.32 0 01.289-.588c.168-.2.369-.383.603-.55.244-.175.503-.313.78-.413a2.23 2.23 0 01.817-.162c.604 0 1.094.141 1.471.425.377.275.633.658.767 1.15.134.483.134 1.042 0 1.675a4.153 4.153 0 01-.679 1.65c-.335.467-.746.83-1.232 1.088a3.25 3.25 0 01-1.572.388zm-12.348-.012c-.201 0-.352-.117-.453-.35-.1-.234-.105-.584-.012-1.05.042-.226.121-.568.239-1.026.117-.467.297-.967.54-1.5.285-.634.54-1.134.767-1.5.226-.376.448-.647.666-.813.218-.167.44-.25.667-.25.176 0 .31.07.402.212.1.142.172.313.214.513.042.2.075.4.1.6.034.267.076.563.126.888.059.325.122.654.189.987.075.334.159.65.251.95.1.3.214.555.34.763l-.453.1c.243-.475.503-.95.78-1.425.276-.475.553-.93.83-1.363.276-.433.536-.82.779-1.163.268-.358.494-.612.679-.762.192-.15.364-.225.515-.225.109 0 .21.025.302.075a.97.97 0 01.239.15.933.933 0 01.213.337c.05.134.06.334.026.6a22.48 22.48 0 00-.151 1.626c-.017.475-.021.875-.013 1.2.008.575.05 1.034.126 1.375.084.342.113.563.088.663a.376.376 0 01-.176.262.52.52 0 01-.34.113c-.2 0-.368-.096-.502-.288-.126-.191-.206-.45-.24-.775-.033-.3-.058-.679-.075-1.137-.008-.459.004-.971.038-1.538.042-.575.109-1.167.201-1.776l.365-.087c-.201.292-.428.625-.68 1-.242.367-.494.75-.754 1.15-.251.4-.494.796-.729 1.188-.226.392-.427.763-.603 1.113a1.205 1.205 0 01-.327.375.654.654 0 01-.415.137.87.87 0 01-.503-.137 1.316 1.316 0 01-.327-.4 4.586 4.586 0 01-.226-.575l-.138-.488a15.83 15.83 0 01-.34-1.575c-.05-.3-.092-.596-.126-.888-.033-.3-.05-.58-.05-.838l.377-.1c-.285.409-.536.809-.754 1.2-.21.392-.39.797-.54 1.213-.143.409-.265.85-.365 1.326-.067.325-.117.608-.151.85a6.34 6.34 0 01-.075.55.864.864 0 01-.177.362c-.083.1-.205.15-.364.15zm-4.138-.026c-.62 0-1.131-.12-1.533-.362a2.004 2.004 0 01-.83-1.025c-.151-.442-.168-.95-.05-1.526.1-.491.28-.946.54-1.362a4.41 4.41 0 01.98-1.1 4.697 4.697 0 011.283-.738 3.97 3.97 0 011.42-.263c.219 0 .411.034.58.1.167.059.288.15.364.275.084.117.105.263.063.438a.726.726 0 01-.189.375.471.471 0 01-.327.125.386.386 0 01-.214-.05 2.788 2.788 0 00-.163-.1c-.05-.033-.138-.05-.264-.05-.478 0-.926.12-1.345.363a3.44 3.44 0 00-1.069.925 3.03 3.03 0 00-.566 1.212c-.058.35-.05.655.026.913.083.25.234.446.452.588.226.141.503.212.83.212.369 0 .662-.041.88-.125.218-.091.39-.191.515-.3.135-.108.243-.204.327-.287a.382.382 0 01.29-.138c.159 0 .268.038.326.113.067.075.084.204.05.387-.058.275-.2.521-.427.738-.226.208-.511.37-.855.487-.335.117-.7.175-1.094.175zm-7.296.038c-.688 0-1.253-.15-1.698-.45a2.312 2.312 0 01-.905-1.213c-.159-.517-.176-1.104-.05-1.763.092-.466.252-.875.478-1.225.235-.358.494-.658.78-.9.293-.242.586-.421.88-.538.293-.125.544-.187.754-.187.092 0 .167.012.226.037a.28.28 0 01.15.125c.043.05.055.121.039.213-.042.167-.11.32-.202.462-.092.134-.264.255-.515.363-.302.142-.557.3-.767.475a2.067 2.067 0 00-.49.588 2.279 2.279 0 00-.264.787c-.134.675-.055 1.217.239 1.626.293.4.741.6 1.345.6.587 0 1.098-.209 1.534-.625.444-.425.733-.988.867-1.688.134-.642.092-1.142-.126-1.5-.218-.367-.578-.55-1.08-.55-.26 0-.483.05-.667.15a4.52 4.52 0 00-.578.4 3.771 3.771 0 00-.365.337c-.092.1-.176.18-.252.238a.43.43 0 01-.264.075.352.352 0 01-.276-.113c-.059-.083-.071-.212-.038-.387.034-.192.13-.388.29-.588.167-.2.368-.383.603-.55.243-.175.503-.313.78-.413a2.23 2.23 0 01.816-.162c.604 0 1.094.141 1.471.425.378.275.633.658.767 1.15.134.483.134 1.042 0 1.675a4.15 4.15 0 01-.679 1.65c-.335.467-.745.83-1.232 1.088a3.25 3.25 0 01-1.571.388zm-5.444 0c-.193 0-.327-.138-.402-.413-.068-.283-.08-.675-.038-1.175s.13-1.08.264-1.738c.05-.25.121-.57.214-.962.092-.4.192-.826.301-1.276.11-.458.214-.908.315-1.35l.264-1.2.213.387a8.21 8.21 0 00-.917-.112 27.736 27.736 0 00-1.409-.075 36.232 36.232 0 00-1.684-.038c-.218 0-.428.005-.629.013s-.385.02-.553.037a9.012 9.012 0 01-.44.013c-.126 0-.247-.02-.365-.063a.657.657 0 01-.276-.175.25.25 0 01-.05-.237.582.582 0 01.25-.363 1.32 1.32 0 01.554-.187c.235-.042.503-.063.805-.063a71.13 71.13 0 012.627.05c.42.017.792.038 1.12.063l.754.037c.46.034.77.121.93.263.16.133.205.38.138.737-.075.35-.163.73-.264 1.138-.092.4-.188.8-.289 1.2-.092.4-.18.776-.264 1.126-.084.35-.15.646-.201.887-.143.709-.23 1.313-.264 1.813-.025.492-.059.83-.1 1.013a1.334 1.334 0 01-.114.337.53.53 0 01-.201.225.459.459 0 01-.29.088zm-5.054-.013a.443.443 0 01-.34-.15.905.905 0 01-.163-.437 1.957 1.957 0 01.038-.65c.058-.309.13-.642.213-1l.29-1.15c.1-.4.192-.813.276-1.238.067-.325.138-.692.214-1.1.075-.417.138-.834.188-1.25.05-.426.063-.801.038-1.126L38.8 5.65c0 .317-.025.675-.076 1.076-.041.4-.096.8-.163 1.2-.059.4-.126.77-.201 1.113-.05.25-.11.541-.176.875l-.214 1.025c-.075.35-.15.688-.226 1.013l-.176.85c-.05.241-.088.412-.113.512-.05.242-.13.417-.24.525a.48.48 0 01-.351.15z" fill="#7831B2"/><path fill-rule="evenodd" clip-rule="evenodd" d="M8.467 3.173A13.088 13.088 0 002.5 10.81c-2.034 6.924 1.902 14.15 8.776 16.148 3.325.966 6.732.533 9.594-.956a13.089 13.089 0 005.968-7.636c2.034-6.923-1.902-14.15-8.776-16.147a12.916 12.916 0 00-9.594.955zm-.67-1.214A14.32 14.32 0 0119.026.572c7.62 2.214 11.964 10.214 9.717 17.863a14.495 14.495 0 01-7.204 8.781c-3.286 1.91-7.308 2.527-11.23 1.387C2.69 26.389-1.655 18.388.592 10.74a14.495 14.495 0 017.204-8.781zm12.057 4.588a.69.69 0 01-.05.295L16.13 15.85c-.417 1.021-1.887.94-2.181-.114l-2.774-9.94a.698.698 0 01.897-.848c.18.06.334.191.417.377 1.425 3.224 2.242 6.325 2.691 8.476.52-1.64 1.201-3.702 1.835-5.332.354-.912.708-1.729 1.022-2.26.142-.241.336-.533.588-.705a.888.888 0 01.712-.144.883.883 0 01.567.458.69.69 0 01-.05.73zm92.896 28.911a.692.692 0 01.312.932 42.54 42.54 0 00-.324.662l-.003.007c-.919 1.938-1.766 4.218-2.292 6.544-.589 2.606-.763 5.218-.223 7.453.328 1.357.918 2.575 1.847 3.579a8.646 8.646 0 002.174 1.488c1.464.718 3.358 1.22 5.779 1.406 1.444.044 3.083-.05 4.938-.307 6.21-.86 11.992-3.544 17.559-6.71 2.246-1.276 4.445-2.624 6.622-3.959l1.56-.955.003-.001c2.471-1.732 4.909-3.437 7.326-4.924 4.961-3.052 9.953-5.26 15.177-4.873 5.256.39 10.575 3.386 16.23 10.346l-.024.02c.235.259.471.524.706.796l.49-4.586a.698.698 0 01.768-.617c.384.04.662.383.621.764l-.664 6.216a.698.698 0 01-.768.618l-6.251-.66a.695.695 0 11.147-1.382l4.534.479c-5.102-5.86-9.905-8.468-14.553-9.09-5.003-.668-9.968.941-15.14 3.573-2.569 1.307-5.167 2.855-7.831 4.48l-.083.059-.093.065c-2.546 1.784-5.168 3.618-7.885 5.297-5.43 3.357-11.297 6.13-17.839 6.675-2.093.175-3.963.19-5.627.064-2.594-.082-4.683-.583-6.338-1.425a9.046 9.046 0 01-2.538-1.886c-1.219-1.173-1.997-2.586-2.426-4.134-.667-2.41-.48-5.113.122-7.713.603-2.604 1.635-5.157 2.714-7.303.111-.234.223-.464.336-.688a.7.7 0 01.937-.31zm57.14 1.833a19.84 19.84 0 013.298-.099l-.086-.006a15.401 15.401 0 00-3.212.105z" fill="#7831B2"/></svg>