<svg width="46" height="44" viewBox="0 0 46 44" fill="none" xmlns="http://www.w3.org/2000/svg">
<path d="M15.8089 1.99054C10.6554 3.82058 5.4293 7.26952 2.45334 11.7039C-3.35342 20.5022 2.09041 31.2713 8.98594 37.8876C16.6073 45.1374 27.3498 45.9117 36.2051 40.3511C40.0521 37.958 43.391 34.5091 45.0605 30.2859C46.8751 25.7811 45.7863 20.7133 44.1169 16.3494C42.3022 11.4927 39.1085 6.98797 34.6809 4.03174C28.9467 0.160491 22.2689 0.230878 15.8089 1.99054C15.5186 2.06092 17.188 4.94677 18.1316 4.66522C23.648 3.11672 29.6725 2.76479 34.7535 5.65063C39.544 8.3957 41.8667 13.7451 42.9555 18.8129C44.6249 26.7666 40.6328 33.3829 33.8098 37.6764C25.8981 42.6739 15.1556 43.0258 8.40527 35.9168C1.94525 29.1597 0.0580478 19.2352 6.66324 12.1262C9.71179 8.81802 13.9217 6.14334 18.2042 4.66522C18.4945 4.52445 16.7525 1.63861 15.8089 1.99054Z" fill="#7831B2"/>
<path d="M14.2846 26.837C16.6799 28.3855 18.3493 30.7786 20.0188 33.031C21.1075 34.5091 21.9786 36.4799 23.9383 36.9022C24.1561 36.9726 24.4464 36.9022 24.519 36.6207C25.5352 30.3563 28.4386 23.9511 31.5597 18.3906C33.4469 15.0824 35.4067 11.9854 37.6568 8.9588C39.1085 6.98798 41.0683 4.73562 42.0119 2.48325C42.4474 1.49784 39.7618 -0.824909 39.3263 0.301273C38.3827 2.48325 36.2777 4.87639 34.826 6.77682C33.3017 8.88842 31.8501 11 30.5435 13.2524C27.8579 17.8275 25.4626 22.6842 23.5754 27.6112C23.1399 28.667 22.8496 29.7932 22.5592 30.849C22.3415 31.6232 22.1963 32.3975 21.9786 33.1717C23.0673 34.5795 23.2851 34.861 22.7044 34.0164C22.1237 32.8902 21.2527 32.0455 20.5269 31.0601C18.5671 28.5262 16.8251 26.4146 14.0668 24.5846C12.1071 23.388 13.2684 26.2035 14.2846 26.837Z" fill="#7831B2"/>
</svg>
