<svg width="70" height="71" viewBox="0 0 70 71" fill="none" xmlns="http://www.w3.org/2000/svg">
<path d="M24.057 4.08265C16.2147 6.9939 8.26198 12.4805 3.73334 19.5347C-5.10304 33.5311 3.18107 50.6627 13.6743 61.1879C25.272 72.721 41.6193 73.9527 55.0948 65.1069C60.9489 61.2999 66.0298 55.8133 68.5703 49.0951C71.3316 41.9289 69.6748 33.867 67.1343 26.9248C64.373 19.1988 59.513 12.0326 52.7752 7.32982C44.0493 1.1714 33.8875 1.28337 24.057 4.08265C23.6152 4.19462 26.1556 8.78544 27.5916 8.33756C35.9861 5.87419 45.1539 5.31433 52.8857 9.90515C60.1757 14.272 63.7102 22.7818 65.3671 30.8438C67.9075 43.4965 61.8325 54.0218 51.4498 60.852C39.4102 68.802 23.0629 69.3618 12.7906 58.0528C2.96016 47.3035 0.0883334 31.5156 10.1397 20.2065C14.7788 14.9439 21.1852 10.689 27.702 8.33756C28.1438 8.11361 25.4929 3.5228 24.057 4.08265Z" fill="#262626"/>
<path d="M21.7374 43.6084C25.3824 46.0718 27.9228 49.8788 30.4633 53.4619C32.1201 55.8133 33.4456 58.9485 36.4278 59.6203C36.7592 59.7323 37.201 59.6203 37.3115 59.1724C38.8578 49.207 43.276 39.0176 48.0256 30.1719C50.8974 24.9092 53.8797 19.9825 57.3038 15.1677C59.5129 12.0325 62.4952 8.44947 63.9311 4.86639C64.5938 3.29879 60.507 -0.396255 59.8442 1.39528C58.4083 4.86639 55.2051 8.67341 52.996 11.6966C50.6765 15.0558 48.4674 18.4149 46.4792 21.998C42.3924 29.2761 38.7474 37.0021 35.8756 44.8401C35.2128 46.5197 34.771 48.3112 34.3292 49.9908C33.9978 51.2225 33.7769 52.4541 33.4456 53.6858C35.1024 55.9252 35.4338 56.3731 34.5501 55.0295C33.6665 53.2379 32.341 51.8943 31.2365 50.3267C28.2542 46.2957 25.6033 42.9366 21.406 40.0253C18.4237 38.1218 20.191 42.6007 21.7374 43.6084Z" fill="#262626"/>
</svg>
