<svg width="75" height="86" viewBox="0 0 75 86" fill="none" xmlns="http://www.w3.org/2000/svg">
<path d="M73.5253 18.2499C73.4898 18.0414 73.3643 17.8056 73.0319 17.6061C60.9182 11.5661 48.8504 5.04545 36.2308 0.0388906C35.8712 -0.0699598 35.6371 0.0569393 35.5556 0.328926C35.4385 0.392375 35.4385 0.392376 35.3215 0.455825C33.438 2.16008 32.4159 4.91618 32.9325 7.44584C32.9054 7.5365 32.9681 7.65438 33.058 7.68159C32.8866 7.92636 32.8678 8.31622 33.2002 8.51574C43.5327 14.61 54.5237 19.8158 65.3892 24.7858C62.1181 32.1021 57.0297 35.0117 49.4702 36.6789C45.2764 37.585 41.7016 39.3706 40.7299 43.9219C39.731 48.5639 42.8923 51.103 44.8098 54.8477C47.8564 60.7143 47.0417 67.6864 43.5404 73.153C41.941 72.2733 40.3144 71.4843 38.8676 70.7497C35.4263 68.818 31.9577 66.977 28.6063 65.0726C22.8734 61.9528 17.2577 58.7697 11.4977 55.7406C15.7454 50.401 21.3667 46.3671 27.9102 44.4913C31.4475 43.4854 36.3856 43.6946 38.9107 40.5035C41.2373 37.6479 39.8593 34.0664 38.1468 31.2736C35.968 27.7464 33.7245 25.0896 33.3645 20.7285C33.1195 17.2922 34.0621 13.8198 35.6695 10.7465C35.9496 10.139 35.1948 9.71281 34.852 10.2024C32.2181 13.7561 31.2025 17.7997 31.8322 22.2424C32.0979 24.3005 32.7775 26.2862 33.7812 28.1722C35.753 31.7357 41.8582 37.5392 34.9971 40.8022C32.71 41.8898 29.8856 41.826 27.5274 42.4966C25.1692 43.1672 22.8466 44.0463 20.7394 45.1884C16.4078 47.536 12.7851 50.7904 9.74565 54.7158C9.14352 54.4347 8.56856 54.0629 8.05633 53.8089C7.4542 53.5278 6.86886 53.845 6.70584 54.389C3.32121 55.54 1.21836 58.9578 1.52602 62.5119C1.02219 62.5572 0.777661 63.3732 1.26272 63.7178C7.33436 68.3245 14.5599 71.6983 21.2001 75.3893C27.5978 78.9081 34.1126 82.3634 40.9889 84.9393C41.6182 85.1298 41.9966 84.8487 42.2223 84.4226C44.9421 82.8726 46.8547 80.0895 47.2119 76.9343C47.2307 76.5445 47.0154 76.2815 46.7457 76.1999C46.9442 75.8644 46.8731 75.4474 46.5679 75.1572C46.2626 74.867 45.8674 74.5496 45.4451 74.3229C48.0706 70.47 49.3392 65.9096 48.8809 61.2221C48.7678 59.3091 48.3307 57.4957 47.5967 55.6913C46.5407 52.9984 44.224 50.9127 43.2851 48.1564C39.8597 38.3186 52.9283 39.209 58.4306 36.2269C62.5552 33.9155 65.7472 30.1351 66.9259 25.5476C67.0158 25.5748 67.1057 25.602 67.1956 25.6293C67.3754 25.6837 67.4653 25.7109 67.6179 25.856C68.31 26.1643 68.9413 25.3666 68.8617 24.6503C70.8707 23.1818 72.8713 21.4141 74 19.2836C73.7491 18.8121 73.6508 18.4857 73.5253 18.2499ZM45.1882 76.8162L45.2781 76.8434C44.7243 79.3457 43.6228 81.3855 41.7664 82.9991C41.7037 82.8812 41.6138 82.854 41.434 82.7996C34.0642 79.5799 26.893 76.0248 19.8304 72.107C14.1875 69.0145 8.50066 65.4142 2.55048 63.0198L2.57765 62.9291C2.25121 59.7649 4.12831 56.7731 7.16173 55.8125C7.2788 55.7491 7.2788 55.7491 7.39587 55.6856C13.8918 59.5308 20.532 63.2218 27.1723 66.9129C30.3711 68.6723 33.48 70.4044 36.6789 72.1638C39.2484 73.7327 42.3114 75.9454 45.1882 76.8162ZM67.3794 23.7072C56.38 18.2022 45.2908 12.67 34.0113 7.77239C34.1284 7.70894 34.1827 7.52762 34.2371 7.34629C34.3853 5.21566 35.1357 3.36618 36.5781 1.82506C36.5781 1.82506 36.5781 1.82506 36.6052 1.7344C47.7824 8.28208 59.8438 13.5152 71.4097 19.0928C70.0572 20.6612 68.8218 22.166 67.3794 23.7072Z" fill="#FFFCFF"/>
<path d="M42.9528 60.7135C41.4577 57.1955 38.9948 56.2522 35.5515 55.3088C31.6586 54.2293 28.8861 50.7201 24.7215 50.5473C21.4204 50.438 18.9787 52.3688 18.055 55.4513C18.0006 55.6327 18.0634 55.7505 18.1261 55.8684C17.9819 56.0225 17.9902 56.3217 18.2328 56.494C25.8263 60.2759 33.3384 64.3297 40.5348 68.7824C40.8672 68.982 41.2184 68.7916 41.3898 68.5468C41.6679 68.9277 42.2073 69.0909 42.5773 68.5107C43.9046 66.0448 44.1259 63.343 42.9528 60.7135ZM18.8996 55.9048C20.8958 51.8614 26.0053 51.8258 29.4195 53.8482C30.7492 54.6462 31.7905 55.7525 33.2017 56.2786C35.305 57.113 37.2304 56.9047 39.0808 58.2559C42.2336 60.4958 43.0264 64.3946 41.2831 67.9212C41.2831 67.9212 41.2831 67.9212 41.2559 68.0119L41.1932 67.894C33.8798 63.5047 26.5475 59.5053 18.8996 55.9048Z" fill="#FFFCFF"/>
<path d="M50.9885 29.3258C47.4217 27.1584 43.3866 25.2448 39.5397 23.6847C39.1801 23.5759 38.9188 23.7935 38.8372 24.0654C38.4693 23.6574 37.6226 24.1922 37.9634 24.6909C39.793 27.4202 41.0812 30.9745 43.9831 32.7429C46.2202 34.1123 49.5485 34.1309 51.7916 32.5355C53.3323 31.3208 52.4081 30.1511 50.9885 29.3258ZM50.0124 31.6014C47.715 33.3781 44.4534 31.5009 42.9187 29.7508C41.6893 28.2909 40.7211 26.6134 39.6088 25.0901C41.595 25.988 43.4913 26.8586 45.4503 27.8472C46.5646 28.3822 47.7417 29.0352 48.8289 29.661C49.7635 30.1416 51.5531 30.3867 50.0124 31.6014Z" fill="#FFFCFF"/>
<path d="M73.5253 18.2499C73.4898 18.0414 73.3643 17.8056 73.0319 17.6061C60.9182 11.5661 48.8504 5.04545 36.2308 0.0388906C35.8712 -0.0699598 35.6371 0.0569393 35.5556 0.328926C35.4385 0.392375 35.4385 0.392376 35.3215 0.455825C33.438 2.16008 32.4159 4.91618 32.9325 7.44584C32.9054 7.5365 32.9681 7.65438 33.058 7.68159C32.8866 7.92636 32.8678 8.31622 33.2002 8.51574C43.5327 14.61 54.5237 19.8158 65.3892 24.7858C62.1181 32.1021 57.0297 35.0117 49.4702 36.6789C45.2764 37.585 41.7016 39.3706 40.7299 43.9219C39.731 48.5639 42.8923 51.103 44.8098 54.8477C47.8564 60.7143 47.0417 67.6864 43.5404 73.153C41.941 72.2733 40.3144 71.4843 38.8676 70.7497C35.4263 68.818 31.9577 66.977 28.6063 65.0726C22.8734 61.9528 17.2577 58.7697 11.4977 55.7406C15.7454 50.401 21.3667 46.3671 27.9102 44.4913C31.4475 43.4854 36.3856 43.6946 38.9107 40.5035C41.2373 37.6479 39.8593 34.0664 38.1468 31.2736C35.968 27.7464 33.7245 25.0896 33.3645 20.7285C33.1195 17.2922 34.0621 13.8198 35.6695 10.7465C35.9496 10.139 35.1948 9.71281 34.852 10.2024C32.2181 13.7561 31.2025 17.7997 31.8322 22.2424C32.0979 24.3005 32.7775 26.2862 33.7812 28.1722C35.753 31.7357 41.8582 37.5392 34.9971 40.8022C32.71 41.8898 29.8856 41.826 27.5274 42.4966C25.1692 43.1672 22.8466 44.0463 20.7394 45.1884C16.4078 47.536 12.7851 50.7904 9.74565 54.7158C9.14352 54.4347 8.56856 54.0629 8.05633 53.8089C7.4542 53.5278 6.86886 53.845 6.70584 54.389C3.32121 55.54 1.21836 58.9578 1.52602 62.5119C1.02219 62.5572 0.777661 63.3732 1.26272 63.7178C7.33436 68.3245 14.5599 71.6983 21.2001 75.3893C27.5978 78.9081 34.1126 82.3634 40.9889 84.9393C41.6182 85.1298 41.9966 84.8487 42.2223 84.4226C44.9421 82.8726 46.8547 80.0895 47.2119 76.9343C47.2307 76.5445 47.0154 76.2815 46.7457 76.1999C46.9442 75.8644 46.8731 75.4474 46.5679 75.1572C46.2626 74.867 45.8674 74.5496 45.4451 74.3229C48.0706 70.47 49.3392 65.9096 48.8809 61.2221C48.7678 59.3091 48.3307 57.4957 47.5967 55.6913C46.5407 52.9984 44.224 50.9127 43.2851 48.1564C39.8597 38.3186 52.9283 39.209 58.4306 36.2269C62.5552 33.9155 65.7472 30.1351 66.9259 25.5476C67.0158 25.5748 67.1057 25.602 67.1956 25.6293C67.3754 25.6837 67.4653 25.7109 67.6179 25.856C68.31 26.1643 68.9413 25.3666 68.8617 24.6503C70.8707 23.1818 72.8713 21.4141 74 19.2836C73.7491 18.8121 73.6508 18.4857 73.5253 18.2499ZM45.1882 76.8162L45.2781 76.8434C44.7243 79.3457 43.6228 81.3855 41.7664 82.9991C41.7037 82.8812 41.6138 82.854 41.434 82.7996C34.0642 79.5799 26.893 76.0248 19.8304 72.107C14.1875 69.0145 8.50066 65.4142 2.55048 63.0198L2.57765 62.9291C2.25121 59.7649 4.12831 56.7731 7.16173 55.8125C7.2788 55.7491 7.2788 55.7491 7.39587 55.6856C13.8918 59.5308 20.532 63.2218 27.1723 66.9129C30.3711 68.6723 33.48 70.4044 36.6789 72.1638C39.2484 73.7327 42.3114 75.9454 45.1882 76.8162ZM67.3794 23.7072C56.38 18.2022 45.2908 12.67 34.0113 7.77239C34.1284 7.70894 34.1827 7.52762 34.2371 7.34629C34.3853 5.21566 35.1357 3.36618 36.5781 1.82506C36.5781 1.82506 36.5781 1.82506 36.6052 1.7344C47.7824 8.28208 59.8438 13.5152 71.4097 19.0928C70.0572 20.6612 68.8218 22.166 67.3794 23.7072Z" stroke="#FFFCFF" stroke-width="1.52292"/>
<path d="M42.9528 60.7135C41.4577 57.1955 38.9948 56.2522 35.5515 55.3088C31.6586 54.2293 28.8861 50.7201 24.7215 50.5473C21.4204 50.438 18.9787 52.3688 18.055 55.4513C18.0006 55.6327 18.0634 55.7505 18.1261 55.8684C17.9819 56.0225 17.9902 56.3217 18.2328 56.494C25.8263 60.2759 33.3384 64.3297 40.5348 68.7824C40.8672 68.982 41.2184 68.7916 41.3898 68.5468C41.6679 68.9277 42.2073 69.0909 42.5773 68.5107C43.9046 66.0448 44.1259 63.343 42.9528 60.7135ZM18.8996 55.9048C20.8958 51.8614 26.0053 51.8258 29.4195 53.8482C30.7492 54.6462 31.7905 55.7525 33.2017 56.2786C35.305 57.113 37.2304 56.9047 39.0808 58.2559C42.2336 60.4958 43.0264 64.3946 41.2831 67.9212C41.2831 67.9212 41.2831 67.9212 41.2559 68.0119L41.1932 67.894C33.8798 63.5047 26.5475 59.5053 18.8996 55.9048Z" stroke="#FFFCFF" stroke-width="1.52292"/>
<path d="M50.9885 29.3258C47.4217 27.1584 43.3866 25.2448 39.5397 23.6847C39.1801 23.5759 38.9188 23.7935 38.8372 24.0654C38.4693 23.6574 37.6226 24.1922 37.9634 24.6909C39.793 27.4202 41.0812 30.9745 43.9831 32.7429C46.2202 34.1123 49.5485 34.1309 51.7916 32.5355C53.3323 31.3208 52.4081 30.1511 50.9885 29.3258ZM50.0124 31.6014C47.715 33.3781 44.4534 31.5009 42.9187 29.7508C41.6893 28.2909 40.7211 26.6134 39.6088 25.0901C41.595 25.988 43.4913 26.8586 45.4503 27.8472C46.5646 28.3822 47.7417 29.0352 48.8289 29.661C49.7635 30.1416 51.5531 30.3867 50.0124 31.6014Z" stroke="#FFFCFF" stroke-width="1.52292"/>
</svg>
