<svg width="24" height="24" fill="none" xmlns="http://www.w3.org/2000/svg"><path fill-rule="evenodd" clip-rule="evenodd" d="M21.234 18.982a3.996 3.996 0 01-2.251 2.251c-1.337.53-4.248.5-6.136.482a87.3 87.3 0 00-.844-.006c-.24 0-.52.002-.826.005-1.889.018-4.817.047-6.154-.481a3.996 3.996 0 01-2.25-2.251c-.53-1.337-.501-4.25-.482-6.138.003-.313.006-.598.006-.844 0-.24-.003-.52-.006-.826-.018-1.889-.046-4.818.481-6.155a3.996 3.996 0 012.251-2.251c1.337-.53 4.248-.501 6.136-.482.314.003.599.006.844.006.24 0 .52-.003.826-.006 1.888-.018 4.817-.046 6.154.482a3.996 3.996 0 012.25 2.251c.53 1.337.501 4.249.482 6.138-.003.313-.006.598-.006.843s.003.53.006.844c.02 1.89.049 4.805-.481 6.138zM5.932 12a6.062 6.062 0 016.07-6.072A6.062 6.062 0 0118.075 12a6.062 6.062 0 01-6.071 6.073A6.062 6.062 0 015.932 12zm12.39-4.904a1.416 1.416 0 100-2.833 1.416 1.416 0 000 2.833z" fill="#262626"/><path fill-rule="evenodd" clip-rule="evenodd" d="M23.76 7.117c-.09-1.897-.524-3.578-1.914-4.962C20.462.77 18.782.337 16.886.24 14.93.13 9.07.13 7.116.24 5.224.33 3.544.764 2.154 2.148.764 3.534.337 5.215.241 7.112c-.11 1.955-.11 7.816 0 9.772.09 1.897.524 3.577 1.913 4.962 1.39 1.385 3.065 1.818 4.962 1.913 1.954.111 7.814.111 9.77 0 1.896-.09 3.576-.523 4.96-1.913 1.385-1.385 1.818-3.065 1.913-4.962.111-1.956.111-7.812 0-9.767zm-2.526 11.865a3.996 3.996 0 01-2.251 2.251c-1.337.53-4.248.5-6.136.482a87.3 87.3 0 00-.844-.006c-.24 0-.52.002-.826.005-1.889.018-4.817.047-6.154-.481a3.996 3.996 0 01-2.25-2.251c-.53-1.337-.501-4.25-.482-6.138.003-.313.006-.598.006-.844 0-.24-.003-.52-.006-.826-.018-1.889-.046-4.818.481-6.155a3.996 3.996 0 012.251-2.251c1.337-.53 4.248-.501 6.136-.482.314.003.599.006.844.006.24 0 .52-.003.826-.006 1.888-.018 4.817-.046 6.154.482a3.996 3.996 0 012.25 2.251c.53 1.337.501 4.249.482 6.138-.003.313-.006.598-.006.843s.003.53.006.844c.02 1.89.049 4.805-.481 6.138z" fill="#262626"/><path d="M12.003 15.948A3.955 3.955 0 018.056 12a3.951 3.951 0 013.947-3.947A3.951 3.951 0 0115.95 12a3.955 3.955 0 01-3.947 3.948z" fill="#262626"/></svg>