<svg width="49" height="64" viewBox="0 0 49 64" fill="none" xmlns="http://www.w3.org/2000/svg">
<path d="M45.3731 6.63366C45.2334 5.88816 45 5.14839 44.4914 4.51971C42.8488 2.2638 39.5548 0.674463 36.9075 1.96749C34.8108 3.03833 33.2687 5.48908 32.0725 7.44738C30.7884 9.50532 29.6094 11.7453 28.419 13.7975C26.6247 16.735 24.9298 19.7606 23.235 22.7863C22.4668 24.0586 21.7923 25.3252 21.1236 26.6857C20.9305 26.6032 20.6552 26.7143 20.6725 26.996C20.5903 27.1896 20.6076 27.4713 20.6191 27.6591C20.1623 27.8756 19.8164 28.368 19.5584 28.7608C19.0425 29.5464 18.5208 30.2381 18.0049 31.0238C16.6977 32.7061 15.49 34.4766 14.2765 36.1532C13.151 37.7301 12.1133 39.2075 10.982 40.6905C10.1966 41.6811 9.05376 42.9764 8.66602 44.3197C8.48444 44.425 8.39653 44.5247 8.4138 44.8064C6.98422 46.0249 4.94083 46.4327 3.18996 47.0111C2.91472 47.1222 2.65099 47.4211 2.76192 47.6971C3.09892 50.1271 3.15492 52.5743 2.92992 55.0388C2.81167 56.1771 2.50608 57.3268 2.19474 58.3827C2.03618 58.8637 1.88339 59.4386 1.81851 59.9138C1.66571 60.4887 1.70025 61.0521 1.5417 61.5331C1.4653 61.8206 1.85148 61.9854 2.0273 61.7862C3.41659 59.9103 5.60702 58.8337 7.61587 57.8625C10.0815 56.6749 12.465 55.6807 15.1756 55.4207C15.5503 55.3977 15.814 55.0988 15.791 54.7232C15.634 53.696 15.3891 52.7684 15.3258 51.7355C15.274 50.8903 15.4153 50.1277 15.4629 49.3707C16.1013 49.0489 16.4471 48.5564 16.8867 48.0583C17.5785 47.0734 18.2702 46.0885 18.962 45.1036C20.3455 43.1338 21.7233 41.0702 23.1068 39.1004C24.4024 37.2303 25.7038 35.454 26.9 33.4957C27.158 33.1029 27.5918 32.5109 27.7446 31.936C28.1135 31.8191 28.4709 31.5145 28.8283 31.2099C29.3615 30.706 29.6959 30.0257 30.2291 29.5218C30.9381 28.8187 31.6472 28.1155 32.2625 27.418C34.8998 24.429 37.2388 21.1755 39.6773 18.0101C41.3361 15.9292 43.0943 13.9365 44.3611 11.5969C44.8713 10.7174 45.1884 9.75541 45.4118 8.79918C45.6222 9.16333 45.7331 9.43931 45.8556 9.9031C46.1062 10.9246 46.0874 12.1511 45.8697 13.2012C45.4459 15.4893 43.9802 17.6526 42.5909 19.5284C41.1079 21.41 39.7244 23.3798 38.142 25.1732C36.6476 26.867 34.5969 28.6891 33.8863 30.9004C33.6398 31.4811 34.2421 32.104 34.7811 31.694C35.9584 30.9622 36.9254 29.8662 37.8045 28.8699C38.7773 27.8678 39.6506 26.7775 40.6234 25.7755C42.4695 23.6831 43.83 21.3378 45.1848 18.8985C46.3694 16.7524 47.5426 14.4184 47.5745 11.8716C47.4651 10.0874 47.193 7.18211 45.3731 6.63366ZM6.79746 56.7815C5.79591 57.3141 4.89379 57.9348 3.90376 58.6552C4.59552 57.6703 5.19362 56.6911 5.88538 55.7063C6.57715 54.7214 7.26316 53.6426 7.95492 52.6577C8.2129 52.2649 8.47087 51.8721 8.72884 51.4793C8.89891 51.1861 9.16264 50.8872 9.13961 50.5116C9.13385 50.4177 9.03443 50.3295 8.94077 50.3353C8.5661 50.3582 8.30813 50.751 8.13807 51.0442C7.88009 51.437 7.62212 51.8298 7.36415 52.2226C6.67238 53.2075 6.08003 54.2805 5.38827 55.2654C4.96023 55.9514 4.44429 56.737 4.01625 57.423C4.16329 56.7542 4.31033 56.0854 4.3637 55.4223C4.59445 53.0518 3.78912 50.6504 4.01987 48.2799C5.79378 48.0771 7.42797 47.1288 8.66446 45.8279C9.11396 47.0257 10.0203 48.0071 11.284 48.6838C12.0621 49.1075 13.127 49.6079 14.163 49.6387C14.1097 50.3018 14.15 50.9591 14.0908 51.5283C14.1426 52.3734 14.2002 53.3124 14.3457 54.1518C11.6409 54.5058 9.1637 55.5057 6.79746 56.7815ZM21.9441 37.0037C20.6485 38.8738 19.3586 40.8378 18.1624 42.7961C17.4822 43.9688 16.8019 45.1415 16.1216 46.3142C15.5235 47.2933 15.1243 48.4488 13.8894 48.2416C11.8993 47.9864 10.0276 46.5928 9.34471 44.6552C9.69059 44.1627 10.0307 43.5764 10.3708 42.99C10.8925 42.2983 11.5079 41.6009 12.0354 41.0031C13.1892 39.6954 14.1783 38.3978 15.1572 37.1008C15.2225 37.0143 15.2877 36.9278 15.3529 36.8414C16.5664 35.1648 17.7856 33.5821 19.0048 31.9994C19.5265 31.3077 19.9488 30.5278 20.4705 29.8361C20.6463 29.6368 20.8164 29.3436 21.0859 29.1386C22.0152 30.4956 23.864 31.5136 25.2041 31.9029C25.2977 31.8972 25.2977 31.8972 25.3972 31.9853C24.2716 33.5623 23.1576 35.3271 21.9441 37.0037ZM43.393 8.07438C43.0628 10.3567 41.4041 12.4376 40.0969 14.1199C38.3503 16.3004 36.6036 18.4809 35.05 20.7438C33.9187 22.2269 32.8868 23.7981 31.8549 25.3694C30.8172 26.8467 29.879 28.4122 28.6368 29.6192C28.1972 30.1174 27.664 30.6213 27.0198 30.8492C26.282 31.0829 25.4102 30.665 24.7315 30.3294C23.573 29.8348 22.3972 29.0584 21.8598 27.9602C23.8472 25.1052 25.5306 21.8918 27.2312 18.96C29.442 15.1488 31.6643 11.5254 34.074 7.89047C35.1996 6.31351 36.625 3.49288 38.8845 3.54315C41.2261 3.39989 43.7996 5.50459 43.393 8.07438Z" fill="#FFFCFF"/>
<path d="M7.95492 52.6577C7.26316 53.6426 6.57715 54.7214 5.88538 55.7063C5.19362 56.6911 4.59552 57.6703 3.90376 58.6552C4.89379 57.9348 5.79591 57.3141 6.79746 56.7815C9.1637 55.5057 11.6409 54.5058 14.3457 54.1518C14.2002 53.3124 14.1426 52.3734 14.0908 51.5283C14.15 50.9591 14.1097 50.3018 14.163 49.6387C13.127 49.6079 12.0621 49.1075 11.284 48.6838C10.0203 48.0071 9.11396 47.0257 8.66446 45.8279C7.42797 47.1288 5.79378 48.0771 4.01987 48.2799C3.78912 50.6504 4.59445 53.0518 4.3637 55.4223C4.31033 56.0854 4.16329 56.7542 4.01625 57.423C4.44429 56.737 4.96023 55.9514 5.38827 55.2654C6.08003 54.2805 6.67238 53.2075 7.36415 52.2226M7.95492 52.6577C8.2129 52.2649 8.47087 51.8721 8.72884 51.4793M7.95492 52.6577L8.72884 51.4793M8.72884 51.4793C8.89891 51.1861 9.16264 50.8872 9.13961 50.5116C9.13385 50.4177 9.03443 50.3295 8.94077 50.3353C8.5661 50.3582 8.30813 50.751 8.13807 51.0442M8.13807 51.0442C7.88009 51.437 7.62212 51.8298 7.36415 52.2226M8.13807 51.0442L7.36415 52.2226M18.1624 42.7961C19.3586 40.8378 20.6485 38.8738 21.9441 37.0037C23.1576 35.3271 24.2716 33.5623 25.3972 31.9853C25.2977 31.8972 25.2977 31.8972 25.2041 31.9029C23.864 31.5136 22.0152 30.4956 21.0859 29.1386C20.8164 29.3436 20.6463 29.6368 20.4705 29.8361C19.9488 30.5278 19.5265 31.3077 19.0048 31.9994C17.7856 33.5821 16.5664 35.1648 15.3529 36.8414C15.2877 36.9278 15.2225 37.0143 15.1572 37.1008C14.1783 38.3978 13.1892 39.6954 12.0354 41.0031C11.5079 41.6009 10.8925 42.2983 10.3708 42.99C10.0307 43.5764 9.69059 44.1627 9.34471 44.6552C10.0276 46.5928 11.8993 47.9864 13.8894 48.2416C15.1243 48.4488 15.5235 47.2933 16.1216 46.3142M18.1624 42.7961C17.4822 43.9688 16.8019 45.1415 16.1216 46.3142M18.1624 42.7961L16.1216 46.3142M45.3731 6.63366C45.2334 5.88816 45 5.14839 44.4914 4.51971C42.8488 2.2638 39.5548 0.674463 36.9075 1.96749C34.8108 3.03833 33.2687 5.48908 32.0725 7.44738C30.7884 9.50532 29.6094 11.7453 28.419 13.7975C26.6247 16.735 24.9298 19.7606 23.235 22.7863C22.4668 24.0586 21.7923 25.3252 21.1236 26.6857C20.9305 26.6032 20.6552 26.7143 20.6725 26.996C20.5903 27.1896 20.6076 27.4713 20.6191 27.6591C20.1623 27.8756 19.8164 28.368 19.5584 28.7608C19.0425 29.5464 18.5208 30.2381 18.0049 31.0238C16.6977 32.7061 15.49 34.4766 14.2765 36.1532C13.151 37.7301 12.1133 39.2074 10.982 40.6905C10.1966 41.6811 9.05376 42.9764 8.66602 44.3197C8.48444 44.425 8.39653 44.5247 8.4138 44.8064C6.98422 46.0249 4.94083 46.4327 3.18996 47.0111C2.91472 47.1222 2.65099 47.4211 2.76192 47.6971C3.09892 50.1271 3.15492 52.5743 2.92992 55.0388C2.81167 56.1771 2.50608 57.3268 2.19474 58.3827C2.03618 58.8637 1.88339 59.4386 1.81851 59.9138C1.66571 60.4887 1.70025 61.0521 1.5417 61.5331C1.4653 61.8206 1.85148 61.9854 2.0273 61.7862C3.41659 59.9103 5.60702 58.8337 7.61587 57.8625C10.0815 56.6749 12.465 55.6807 15.1756 55.4207C15.5503 55.3977 15.814 55.0988 15.791 54.7232C15.634 53.696 15.3891 52.7684 15.3258 51.7355C15.274 50.8903 15.4153 50.1277 15.4629 49.3707C16.1013 49.0489 16.4471 48.5564 16.8867 48.0583C17.5785 47.0734 18.2702 46.0885 18.962 45.1036C20.3455 43.1338 21.7233 41.0702 23.1068 39.1004C24.4024 37.2303 25.7038 35.454 26.9 33.4957C27.158 33.1029 27.5918 32.5109 27.7446 31.936C28.1135 31.8191 28.4709 31.5145 28.8283 31.2099C29.3615 30.706 29.6959 30.0257 30.2291 29.5218C30.9381 28.8187 31.6472 28.1155 32.2625 27.418C34.8998 24.429 37.2388 21.1755 39.6773 18.0101C41.3361 15.9292 43.0943 13.9365 44.3611 11.5969C44.8713 10.7174 45.1884 9.75541 45.4118 8.79918C45.6222 9.16333 45.7331 9.43931 45.8556 9.9031C46.1062 10.9246 46.0874 12.1511 45.8697 13.2012C45.4459 15.4893 43.9802 17.6526 42.5909 19.5284C41.1079 21.41 39.7244 23.3798 38.142 25.1732C36.6476 26.867 34.5969 28.6891 33.8863 30.9004C33.6398 31.4811 34.2421 32.104 34.7811 31.694C35.9584 30.9622 36.9254 29.8662 37.8045 28.8699C38.7773 27.8678 39.6506 26.7775 40.6234 25.7755C42.4695 23.6831 43.83 21.3378 45.1848 18.8985C46.3694 16.7524 47.5426 14.4184 47.5745 11.8716C47.4651 10.0874 47.193 7.18211 45.3731 6.63366ZM43.393 8.07438C43.0628 10.3567 41.4041 12.4376 40.0969 14.1199C38.3503 16.3004 36.6036 18.4809 35.05 20.7438C33.9187 22.2269 32.8868 23.7981 31.8549 25.3694C30.8172 26.8467 29.879 28.4122 28.6368 29.6192C28.1972 30.1174 27.664 30.6213 27.0198 30.8492C26.282 31.0829 25.4102 30.6649 24.7315 30.3294C23.573 29.8348 22.3972 29.0584 21.8598 27.9602C23.8472 25.1052 25.5306 21.8918 27.2312 18.96C29.442 15.1488 31.6643 11.5254 34.074 7.89047C35.1996 6.31351 36.625 3.49288 38.8845 3.54315C41.2261 3.39989 43.7996 5.50459 43.393 8.07438Z" stroke="#FFFCFF" stroke-width="2.28437"/>
</svg>
