<svg width="15" height="15" viewBox="0 0 15 15" fill="none" xmlns="http://www.w3.org/2000/svg">
<g clip-path="url(#clip0_368_4431)">
<path fill-rule="evenodd" clip-rule="evenodd" d="M6.7765 -0.377521C6.98548 -0.400738 7.17372 -0.250143 7.19694 -0.0411574C7.22015 0.167828 7.06956 0.356065 6.86057 0.379281C5.90219 0.485749 5.0085 0.914925 4.32622 1.59634C3.64395 2.27776 3.21365 3.17091 3.10598 4.12916C3.0825 4.33811 2.89407 4.48847 2.68511 4.46499C2.47616 4.44151 2.3258 4.25309 2.34928 4.04413C2.47624 2.91422 2.98363 1.86106 3.78813 1.05757C4.59263 0.254081 5.64643 -0.25198 6.7765 -0.377521ZM6.74563 1.68552C6.95201 1.64525 7.15195 1.77991 7.19222 1.98629C7.23249 2.19267 7.09782 2.39262 6.89144 2.43288C6.46321 2.51643 6.06965 2.72587 5.76113 3.03439C5.45262 3.3429 5.24318 3.73646 5.15963 4.1647C5.11936 4.37108 4.91942 4.50574 4.71304 4.46547C4.50666 4.42521 4.372 4.22526 4.41226 4.01888C4.52484 3.4419 4.80702 2.91163 5.2227 2.49595C5.63838 2.08027 6.16865 1.79809 6.74563 1.68552ZM2.72797 9.53181V11.1741C2.72735 11.3265 2.75864 11.4774 2.81984 11.6171C2.88103 11.7568 2.97079 11.8822 3.08336 11.9853C3.19592 12.0883 3.32881 12.1668 3.47352 12.2156C3.61823 12.2645 3.77157 12.2826 3.92371 12.2689C5.61155 12.0859 7.23285 11.5103 8.65732 10.5883C9.9826 9.74785 11.1062 8.62647 11.9484 7.30381C12.8753 5.87571 13.4522 4.24975 13.6323 2.55768C13.646 2.40631 13.6279 2.25374 13.5793 2.10969C13.5307 1.96564 13.4526 1.83328 13.3499 1.72102C13.2472 1.60876 13.1223 1.51907 12.983 1.45766C12.8436 1.39624 12.693 1.36445 12.5407 1.36431H10.8952C10.629 1.3617 10.371 1.45577 10.1691 1.62901C9.9673 1.80224 9.83547 2.04281 9.79821 2.30587C9.72876 2.83143 9.59995 3.34746 9.41425 3.84412C9.34046 4.04006 9.32449 4.253 9.36823 4.45771C9.41198 4.66243 9.51361 4.85034 9.66108 4.99918L10.3577 5.6944C9.57686 7.06489 8.43986 8.19963 7.06665 8.97891L6.37005 8.28369C6.22091 8.13651 6.03263 8.03508 5.82751 7.99142C5.62239 7.94776 5.40902 7.9637 5.2127 8.03735C4.71505 8.22268 4.198 8.35123 3.6714 8.42055C3.40495 8.45806 3.16161 8.592 2.98767 8.79689C2.81372 9.00179 2.72129 9.26334 2.72797 9.53181Z" fill="#FFFCFF"/>
</g>
<defs>
<clipPath id="clip0_368_4431">
<rect width="15" height="15" fill="white" transform="matrix(-1 0 0 1 15 0)"/>
</clipPath>
</defs>
</svg>
