<svg width="15" height="15" fill="none" xmlns="http://www.w3.org/2000/svg"><g clip-path="url(#clip0_368_4431)"><path fill-rule="evenodd" clip-rule="evenodd" d="M6.777-.378A.38.38 0 016.86.38a4.25 4.25 0 00-3.755 3.75.38.38 0 01-.757-.085A5.012 5.012 0 016.777-.378zm-.031 2.064a.38.38 0 11.145.747A2.192 2.192 0 005.16 4.165a.38.38 0 11-.748-.146 2.954 2.954 0 012.334-2.333zM2.728 9.532v1.642a1.093 1.093 0 001.196 1.095 10.868 10.868 0 004.733-1.68 10.686 10.686 0 003.291-3.285 10.821 10.821 0 001.684-4.746 1.093 1.093 0 00-1.091-1.194h-1.646a1.098 1.098 0 00-1.097.942 7.017 7.017 0 01-.384 1.538A1.093 1.093 0 009.661 5l.697.695A8.768 8.768 0 017.067 8.98l-.697-.695a1.098 1.098 0 00-1.157-.247 7.055 7.055 0 01-1.542.384 1.098 1.098 0 00-.943 1.11z" fill="#FFFCFF"/></g><defs><clipPath id="clip0_368_4431"><path fill="#fff" transform="matrix(-1 0 0 1 15 0)" d="M0 0h15v15H0z"/></clipPath></defs></svg>