<svg width="23" height="24" viewBox="0 0 23 24" fill="none" xmlns="http://www.w3.org/2000/svg">
<path d="M14.2706 10.2279C13.7935 9.58998 13.1847 9.06214 12.4856 8.68019C11.7865 8.29823 11.0134 8.0711 10.2188 8.01419C9.42418 7.95729 8.62664 8.07193 7.88024 8.35036C7.13384 8.62879 6.45605 9.06449 5.89284 9.6279L2.55951 12.9612C1.54752 14.009 0.987552 15.4124 1.00021 16.869C1.01287 18.3257 1.59714 19.7191 2.62718 20.7491C3.65723 21.7792 5.05063 22.3634 6.50728 22.3761C7.96393 22.3887 9.36727 21.8288 10.4151 20.8168L12.3151 18.9168" stroke="#262626" stroke-width="2" stroke-linecap="round" stroke-linejoin="round"/>
<path d="M8 13.1484C8.47717 13.7863 9.08595 14.3142 9.78506 14.6961C10.4842 15.0781 11.2572 15.3052 12.0518 15.3621C12.8464 15.419 13.644 15.3044 14.3904 15.0259C15.1368 14.7475 15.8146 14.3118 16.3778 13.7484L19.7111 10.4151C20.7231 9.36728 21.2831 7.96393 21.2704 6.50728C21.2578 5.05063 20.6735 3.65723 19.6434 2.62719C18.6134 1.59714 17.22 1.01287 15.7633 1.00021C14.3067 0.987552 12.9033 1.54752 11.8556 2.55951L9.94444 4.45951" stroke="#262626" stroke-width="2" stroke-linecap="round" stroke-linejoin="round"/>
</svg>
