<svg width="23" height="19" fill="none" xmlns="http://www.w3.org/2000/svg"><path d="M22.886 1.704c-.31 3.236-1.651 11.09-2.334 14.715-.288 1.533-.857 2.048-1.407 2.098-1.197.11-2.105-.785-3.263-1.54-1.813-1.181-2.838-1.916-4.597-3.068-2.034-1.332-.716-2.064.443-3.26.304-.313 5.574-5.077 5.676-5.509.013-.054.025-.256-.096-.362-.12-.105-.298-.07-.426-.04-.182.04-3.078 1.942-8.689 5.705-.822.561-1.566.835-2.233.82-.736-.015-2.15-.413-3.202-.753-1.29-.416-2.315-.637-2.226-1.344.046-.369.557-.746 1.532-1.13 6.005-2.6 10.009-4.314 12.012-5.142C19.796.529 20.986.119 21.76.105c.17-.003.551.04.798.238a.86.86 0 01.293.554c.042.267.054.538.035.807z" fill="#262626"/></svg>