<svg width="15" height="15" fill="none" xmlns="http://www.w3.org/2000/svg"><path d="M11.594 1.982A6.707 6.707 0 006.815 0 6.765 6.765 0 00.96 10.136l-.96 3.5 3.583-.94a6.736 6.736 0 003.23.822h.002c3.723 0 6.821-3.032 6.821-6.758 0-1.805-.767-3.5-2.042-4.778zM6.815 12.379c-1.01 0-2-.27-2.861-.782l-.204-.122-2.125.557.567-2.073-.134-.213a5.598 5.598 0 01-.859-2.989 5.624 5.624 0 015.62-5.616c1.5 0 2.91.585 3.968 1.647 1.06 1.062 1.711 2.472 1.708 3.972 0 3.099-2.584 5.62-5.68 5.62zm3.08-4.206c-.167-.086-.998-.493-1.153-.548-.155-.058-.268-.085-.38.085-.113.17-.436.548-.536.664-.098.112-.198.127-.366.042-.992-.496-1.643-.886-2.298-2.009-.173-.298.174-.277.496-.922.055-.113.028-.21-.015-.295-.042-.085-.38-.916-.52-1.254-.137-.33-.277-.283-.38-.29-.098-.006-.21-.006-.323-.006a.625.625 0 00-.45.21c-.156.17-.591.579-.591 1.41 0 .83.605 1.634.688 1.747.085.113 1.19 1.817 2.885 2.55 1.072.463 1.492.503 2.027.424.326-.049.999-.408 1.139-.804.14-.396.14-.733.097-.803-.04-.077-.152-.12-.32-.201z" fill="#FFFCFF"/></svg>