<svg width="292" height="237" fill="none" xmlns="http://www.w3.org/2000/svg"><path d="M19.109 179.413l-7.989 2.33c-5.88 4.66-14.912 18.307-3.994 35.616 6.124 0 116.392 11.16 169.762 17.04h4.264l103.918-52.656c1.775-1.553 5.862-4.66 1.601-4.66m0 0c-4.26 0-71.677 34.617-104.853 51.926m104.853-51.926c-8.255-14.38-1.22-24.41 3.329-27.627l-111.178 48.93c-52.704-4.327-158.578-12.982-160.442-12.982-3.783 0-5.215 1.776-5.659 2.33-1.331 1.997-3.994 7.989-3.994 15.977 0 7.989 3.994 7.872 6.324 8.655m271.62-35.283c4.261 0 1.776 3.107 0 4.66L181.818 235h-5.326c-53.37-5.88-161.64-17.641-167.765-17.641-10.918-17.309-1.886-30.956 3.994-35.616l7.99-2.33m265.96-2.33c-4.26 0-72.343 34.129-105.519 51.438l-166.1-16.155m166.766 16.643L15.051 212.366m166.767 16.643c-6.125-7.456-4.882-23.078-3.329-29.957m86.942-51.593l22.635 2.33m-111.178 49.263c-1.553 6.879-3.129 22.501 2.996 29.957M64.379 90.873l-43.606 10.651c-1.22.222-3.528.999-2.996 2.33.533 1.332 13.315 2.996 19.64 3.662l88.209 5.325m11.779 1.863l22.174 2.465c4.216 4.881 10.652 17.308 2.663 27.96-6.658 1.331-96.42-7.656-140.47-12.316 2.44-.444 6.59-6.191 3.661-25.63m-3.327 25.63c-.777 1.22-1.865 3.928 0 4.993 1.864 1.065 91.316 10.429 135.81 14.978l112.842-44.27c2.108-7.655 5.059-24.232 0-29.291-5.06-5.06-17.642-5.437-23.301-4.993m.665 9.986c1.864-.8 11.872-4.328 16.643-5.992M23.437 139.803h-6.99c-1.332.444-3.196 1.731 0 3.328m0 0c3.195 1.598 94.378 9.866 139.648 14.082l4.151.564c4.549 4.882 11.384 17.841 2.33 30.623-18.641-1.598-101.13-11.228-141.074-15.444m-5.055-29.825c15.711 12.516 10.603 24.832 5.055 29.825m0 0c39.944 4.216 123.431 14.513 142.072 16.111 9.054-12.782 2.822-26.408-1.727-31.29l-6.446-.632c-45.27-4.217-134.157-12.416-137.353-14.014m3.454 29.825c5.548-4.993 12.257-17.309-3.454-29.825m1.062 31.955v2.995l144.464 15.312m0 0l109.846-49.596c3.551-4.66 9.587-16.709 5.326-27.627-2.13-3.994-7.545-6.102-9.986-6.657m-105.186 83.88L20.711 178.081v-2.995m142.863 18.307l111.448-49.596c3.55-4.66 9.586-16.709 5.325-27.627-2.13-3.994-7.545-6.102-9.986-6.657m-2.599 4.993l-94.535 39.61m-1.332 6.99c.999 5.436 2.397 17.508 0 22.301m6.271-23.136c1.997 4.183 2.982 12.551 1.385 19.475M59.714 50.376l-11.98-.777m0 0c-4.105 6.102-11.207 20.836-4.816 30.955 2.852 3.489 7.48 4.09 8.81 4.66l80.554 29.957 113.175-10.318c2.109-.666 6.258-2.397 5.992-3.994-.266-1.598-4.105-2.441-5.992-2.663L135.944 110.51c-4.105-7.322-9.454-24.232 1.997-33.285h10.985M47.734 49.599h11.254m-11.254 0c-4.105 6.102-9.117 20.836-2.726 30.955 3.462 3.462 6.99 4.55 8.322 4.66l80.655 29.2 113.074-9.561c2.108-.666 6.257-2.397 5.991-3.994-.266-1.598-4.105-2.441-5.991-2.663L136.587 109.91c-4.105-7.323-8.495-23.632 2.955-32.685h10.985m-94.803-23.3l75.227 21.302M50.399 59.584c-1.11 4.55-2.663 15.045 0 20.638m6.657-18.308c-.777 4.439-1.864 14.38 0 18.64m6.99-16.643c-1.332 4.66-3.196 15.445 0 21.303M250.12 67.573c-3.328 3.883-8.788 15.178-3.994 29.291M79.357 21.64H63.714c-1.664.554-4.39 2.211-5.992 4.992-1.733 3.012-5.658 8.655-1.997 18.308 1.048 2.762 1.653 2.912 1.997 3.829m0 0c.62 1.645.357.926 0 0zm0 0l93.203 28.125 103.522-9.653c1.553-1.11 4.194-3.528 2.33-4.327-1.864-.799-4.771-.333-5.991 0l-97.864 9.32c-3.106-6.324-7.056-21.037 1.998-29.292m75.228-12.981l26.229 5.699-69.502 4.62m67.573-4.993c-3.218 4.77-7.723 16.842 0 26.961m-71.235-46.6l43.938-7.323m-42.606 11.983c.888 2.663 2.13 9.32 0 14.646m4.992-15.645c1.11 3.33 2.663 11.051 0 15.312m6.325-16.976v14.979M75.536 12.685L152.59 2l82.281 2.027c3.275.138 9.124-.363 9.923 6.294.998 8.322 4.327 12.982-5.659 15.978-7.989 2.396-44.16 12.093-61.248 16.642l-94.201-3.994c-1.886 0-10.847-3.288-10.847-3.288m112.338 120.97c1.332 3.661 4.224 12.611 1.029 20.866m80.827-30.036l22.635 2.33M65.98 90.873l-43.606 10.651c-1.22.222-3.528.999-2.995 2.33.532 1.332 13.314 2.996 19.639 3.662l88.209 5.325m12.315 1.668l21.638 2.66c4.216 4.881 10.652 17.308 2.663 27.96-6.657 1.331-96.42-7.656-140.47-12.316 2.44-.444 6.59-6.191 3.661-25.63m-3.327 25.63c-.777 1.22-1.864 3.928 0 4.993 1.864 1.065 90.303 11.187 134.796 15.736l113.856-45.028c2.108-7.655 5.059-24.232 0-29.291-5.06-5.06-17.642-5.437-23.301-4.993m.665 9.986c1.864-.8 11.872-4.328 16.644-5.992M25.038 139.803h-6.99c-1.331.444-3.195 1.731 0 3.328m250.712-29.117l-95.264 39.989m0 7.103c.999 5.436 2.397 17.508 0 22.301m6.271-23.136c1.997 4.183 2.983 12.551 1.385 19.475M55.992 53.926l61.049 17.432 11.983 3.334M52 59.584c-1.11 4.55-2.663 15.045 0 20.638m6.657-18.308c-.777 4.439-1.864 14.38 0 18.64m6.99-16.643c-1.332 4.66-3.196 15.445 0 21.303m186.075-17.641c-3.328 3.883-8.787 15.178-3.994 29.291M80.959 21.64H65.314c-1.664.554-4.383 2.611-5.991 4.992-1.946 2.88-5.66 8.655-1.998 18.308a2365.29 2365.29 0 012.018 5.331m0 0c.619 1.646-.548-1.467-.904-2.393l.904 2.393zm0 0l93.182 26.623 103.522-9.653c1.554-1.11 4.194-3.528 2.33-4.327-1.864-.799-4.771-.333-5.991 0l-97.863 9.32c-3.107-6.324-7.057-21.037 1.997-29.292m75.228-12.981l24.3 5.326m0 0l-67.573 4.992m67.573-4.992c-3.218 4.77-7.722 16.842 0 26.961m-71.252-46.864l40.927-6.821m-39.578 11.745c.888 2.663 2.13 9.32 0 14.646m4.992-15.645c1.11 3.33 2.663 11.051 0 15.312m6.325-16.976v14.979M76.299 12.319L154.19 2l82.116 2.063c2.828.267 9.289-.399 10.088 6.258.999 8.322 4.327 12.982-5.659 15.978-7.989 2.396-44.16 12.093-61.247 16.642l-94.202-3.994c-1.886 0-10.847-3.288-10.847-3.288m112.339 120.97c1.331 3.661 4.223 12.611 1.028 20.866M75.536 12.319l99.021 4.327c4.787 8.319 4.175 12.983 0 21.303 0 0-67.191-1.485-98.259-4.592 3.995-2.996 8.825-11.186-.762-21.038zm.762.332l99.86 3.995c4.787 8.319 4.175 12.983 0 21.303 0 0-68.792-.888-99.86-3.995 3.995-2.995 9.587-11.45 0-21.303z" stroke="#7831B2" stroke-width="3" stroke-linecap="round"/></svg>