<svg width="192" height="162" fill="none" xmlns="http://www.w3.org/2000/svg"><path d="M12.166 73.37l-9.621-29.1c-.87-2.626.594-5.343 3.237-6.01l97.408-24.59 53.461-15.487 41.199-9.115c2.483-.55 5.065.91 5.918 3.345l10.999 31.404M12.166 73.37l26.28 82.437c.823 2.578 3.57 4.112 6.148 3.434L238.3 108.28c2.634-.692 4.069-3.422 3.177-6.041l-26.71-78.42M12.166 73.368l116.669 19.843c1.406.24 2.82-.13 3.878-1.01l82.054-68.384M125.05 74.984l10.873-2.483 11.119 34.379-10.903 2.245m-11.089-34.14l-10.874 2.483 11.06 33.902 10.903-2.245m-11.089-34.14l11.089 34.14m-66.84-89.188l-4.59-13.925c-.438-1.326.308-2.696 1.645-3.021l60.219-14.662a2.456 2.456 0 012.744 1.226c1.317 2.483 3.69 7.399 4.783 12.418M68.227 19.437c-2.595-5.07-4.221-11.737-4.938-15.13-.262-1.238.51-2.392 1.736-2.66l34.237-7.491 28.895-7.603c1.27-.334 2.627.402 3.065 1.662l5.223 15.01M14.807 73.308L5.186 44.212c-.869-2.627.595-5.344 3.238-6.011l97.407-24.59 53.461-15.487 41.2-9.115c2.483-.55 5.065.91 5.917 3.345l10.999 31.404M14.808 73.31s118.885 26.882 118.881 20.22c-.003-6.662 83.719-69.77 83.719-69.77m-202.6 49.55l17.396 57.147 8.78 25.358c.881 2.546 3.64 4.014 6.19 3.295l101.384-28.595 92.262-22.363c2.684-.651 4.171-3.411 3.267-6.065l-26.679-78.328M126.34 73.044l10.874-2.483 11.118 34.379-10.902 2.245m-11.09-34.14l-10.873 2.483 11.06 33.902 10.903-2.245m-11.09-34.14l11.09 34.14M75.606 17.797l-3.102-8.57c-.498-1.376.298-2.82 1.713-3.108l51.066-10.372c1.187-.24 2.414.425 2.882 1.563l3.747 9.12" stroke="#7831B2" stroke-width="4" stroke-linejoin="round"/></svg>