<svg width="209" height="207" fill="none" xmlns="http://www.w3.org/2000/svg"><path d="M48.51 98.656h107.908l.152-.128m0 0l38.848-32.598M156.57 98.528l-.152-.428m.152.428l17.647 49.592m21.201-82.19L271 2.507V-7.497H122.488m72.93 73.427l-.065-.065m.065.065l32.196 32.17M120.263-7.497L6.237 86.984c-1.854 2.224-4.45 7.226 0 9.449S28.487 98.47 36.83 98.1m50.616 1.667l-3.337 36.126c.185 2.038 1.335 6.335 4.45 7.225 3.114.889 58.403 3.705 85.658 5.002m0 0l51.729-48.353 13.905-12.227c1.113-1.667 2.67-5.78 0-8.892-2.669-3.112-18.911-19.452-26.698-27.233m-8.344 6.67l31.149 32.79m-199.129 6.67c32.818-35.57 90.109-52.243 90.665-54.467.445-1.778 3.989-5.397 7.787-6.669 5.8-1.942 15.018-2.223 15.018 4.446 0 6.67-17.799 10.56-26.698 11.672-28.48 10.67-62.298 34.458-75.647 45.017l-1.112 5.558c11.124 1.778 9.084 11.856 6.674 16.673 9.827 18.897 29.814 57.467 31.149 60.58 1.335 3.112 2.41 9.448 2.78 12.227-.74 3.519-4.338 10.893-12.792 12.227-8.455 1.333-12.423-4.632-13.35-7.781l-20.58-73.362c-12.014-8.448-6.118-17.229-1.669-20.564l-2.224-4.446m9.9 0h107.907l.153-.128m0 0l38.848-32.598M154.79 98.528l-.153-.428m.153.428l17.647 49.592m21.201-82.19L269.22 2.507V-7.497H120.708m72.93 73.427l-.065-.065m.065.065l32.196 32.17M118.483-7.497L4.457 86.984c-1.01 1.212-2.24 3.248-2.432 5.21m0 0c-.16 1.64.407 3.227 2.432 4.239 4.45 2.223 22.249 2.037 30.592 1.667M2.025 92.194c-.238-2.239 1.248-4.79 2.432-6.21L120.696-11M2.026 92.194c.134 1.267.822 2.434 2.431 3.238 4.45 2.223 22.249 2.038 30.592 1.667m50.617 2.668l-3.338 36.126c.186 2.038 1.335 6.335 4.45 7.225l.103.026m0 0c4.064.917 58.561 3.691 85.556 4.976m-85.556-4.976c3.271.717 15.543-5.901 85.556 4.976m0 0l51.729-48.353m-51.729 48.353l26.388-26.008 25.341-22.345m0 0l13.905-12.227c1.113-1.667 2.67-5.78 0-8.892-2.67-3.112-18.912-19.452-26.699-27.233m-8.343 6.67l31.149 32.79m-199.129 6.67c32.56-35.984 90.109-52.243 90.665-54.467.445-1.778 3.989-5.397 7.787-6.669 5.8-1.942 15.018-2.223 15.018 4.446 0 6.67-17.799 10.56-26.699 11.672-28.478 10.67-62.297 34.458-75.646 45.017l-1.113 5.558c11.125 1.778 9.085 11.856 6.675 16.673 9.827 18.897 29.813 57.467 31.149 60.58 1.334 3.112 2.41 9.448 2.78 12.227-.741 3.519-4.338 10.893-12.793 12.227-8.454 1.333-12.422-4.632-13.349-7.781l-20.58-73.362c-12.015-8.448-6.119-17.229-1.669-20.564l-2.225-4.446" stroke="#7831B2" stroke-width="3" stroke-linecap="round"/></svg>