<svg width="225" height="192" fill="none" xmlns="http://www.w3.org/2000/svg"><path fill-rule="evenodd" clip-rule="evenodd" d="M19.064.679a1.985 1.985 0 00-1.066.232 1.988 1.988 0 00-1.957 1.708c-.135.946-.34 2.355-.602 4.163v.003C12.52 26.9 2.433 96.459.478 130.09l-.097 1.666 1.622.401 1.835.454 27.293 9.446v1.1l-1.771 43.001c-.206 4.996 5.8 7.653 9.37 4.238l36.682-35.071.046-.046 103.526 31.513 1.304.397.842-1.066c1.166-1.478 2.325-2.908 3.485-4.34l.001-.001c4.672-5.767 9.37-11.566 14.723-20.652 3.962-6.724 8.284-15.244 13.272-26.92 5.255-10.685 9.525-21.056 11.377-29.17l.276-1.21-.964-.789a540.62 540.62 0 00-3.139-2.55 410.206 410.206 0 00-7.854-6.233c-19.003-14.84-46.257-34.475-76.726-51.942C98.656 21.149 56.781 3.03 19.064.679zm.414 6.147l.125-.868c35.316 3.374 75.564 20.2 111.725 40.063 31.418 17.259 59.593 36.722 78.529 51.388a644.825 644.825 0 017.794 6.184l.531.435c.036.028.071.056.108.082.468.379.929.752 1.382 1.121-3.919 10.732-7.456 19.699-10.697 27.29a335.64 335.64 0 01-7.446 14.211c-8.017 14.484-16.75 28.033-22.611 35.702-22.57-9.649-36.164-15.14-104.09-31.825a2.127 2.127 0 00-.359-.055 1.99 1.99 0 00-1.623.529l-23.112 21.908-.008.007-.008.008-12.876 12.474c-1.02.989-2.687.177-2.608-1.174l.913-15.705.003-.059v-.059l-.018-25.224.097-2.365a2.01 2.01 0 00-.907-1.763 2.122 2.122 0 00-.211-.177 2.002 2.002 0 00-.98-.87l-13.707-5.705-.141-.059-.148-.037-13.899-3.44C10.241 92.581 20.212 20.441 21.834 9.085a2.012 2.012 0 00-2.355-2.26zm36.688 19.759a1.989 1.989 0 00-2.348 1.566 2.011 2.011 0 001.577 2.355c14.588 2.936 33.46 10.576 51.223 19.013 17.727 8.42 34.196 17.56 43.926 23.393.949.57 2.177.264 2.741-.683a2.005 2.005 0 00-.697-2.745c-9.83-5.894-26.414-15.095-44.269-23.576-17.818-8.464-37.06-16.286-52.154-19.323zM202.435 116.7a2.012 2.012 0 00-1.641-2.312 1.989 1.989 0 00-2.304 1.629c-.677 4.018-2.36 10.875-5.195 18.223-2.841 7.361-6.787 15.079-11.93 20.926a2.002 2.002 0 00.187 2.823 1.997 1.997 0 002.822-.173c5.576-6.338 9.727-14.536 12.654-22.12 2.931-7.597 4.685-14.713 5.407-18.996zM62.029 96.296c2.075 1.045 4.092.627 5.612-.1 1.414-.278 2.624-.991 3.424-1.6 1.679-1.277 3.123-3.163 4.16-5.278 1.036-2.116 1.642-4.416 1.631-6.53-.009-1.836-.557-4.96-3.478-6.432-2.076-1.046-4.092-.627-5.613.1-1.414.277-2.623.991-3.424 1.6-1.679 1.277-3.123 3.162-4.16 5.278-1.036 2.116-1.642 4.416-1.631 6.53.01 1.836.557 4.96 3.479 6.432zM37.836 84.11c2.077 1.046 4.093.627 5.614-.1 1.413-.278 2.622-.992 3.423-1.6 1.678-1.277 3.123-3.162 4.159-5.278 1.037-2.116 1.642-4.416 1.632-6.53-.01-1.836-.558-4.96-3.48-6.432-2.075-1.046-4.092-.627-5.613.1-1.413.278-2.622.992-3.422 1.6-1.679 1.277-3.123 3.162-4.16 5.278-1.036 2.116-1.642 4.416-1.631 6.53.009 1.836.557 4.96 3.479 6.432zm48.388 24.372c2.075 1.045 4.09.627 5.61-.1 1.415-.277 2.625-.991 3.426-1.6 1.679-1.277 3.123-3.162 4.16-5.278 1.036-2.116 1.642-4.416 1.631-6.53-.009-1.836-.557-4.96-3.478-6.432-2.075-1.045-4.09-.628-5.611.1-1.415.276-2.625.99-3.426 1.6-1.678 1.276-3.123 3.162-4.16 5.277-1.036 2.116-1.642 4.416-1.631 6.53.01 1.837.557 4.961 3.479 6.433zM47.438 75.358c-.203.414-.422.809-.652 1.18-1.368 2.202-3.156 3.599-4.561 3.58-.393.25-.782.429-1.154.526-.527.137-1.022.11-1.45-.105-1.67-.84-1.687-4.251-.038-7.617.203-.414.422-.809.653-1.18 1.367-2.202 3.155-3.599 4.56-3.58a4.09 4.09 0 011.154-.526c.527-.137 1.022-.111 1.45.105 1.67.84 1.687 4.251.038 7.617zm24.193 12.186c-.203.414-.422.809-.653 1.18-1.368 2.203-3.156 3.6-4.561 3.58-.392.25-.78.429-1.153.526-.527.137-1.022.11-1.45-.105-1.67-.84-1.688-4.251-.039-7.617.203-.415.422-.809.653-1.18 1.368-2.203 3.156-3.6 4.561-3.58.393-.25.781-.429 1.153-.526.528-.137 1.023-.111 1.45.105 1.67.84 1.688 4.251.039 7.617zm16.378 17.367c.428.215.923.241 1.45.104.372-.097.76-.275 1.152-.525 1.406.02 3.194-1.377 4.563-3.58.23-.372.449-.766.652-1.18 1.649-3.366 1.632-6.776-.039-7.618-.428-.215-.923-.241-1.45-.104a4.09 4.09 0 00-1.152.525c-1.406-.02-3.194 1.378-4.562 3.58-.231.372-.45.766-.653 1.18-1.648 3.366-1.631 6.777.039 7.618z" fill="#7831B2"/></svg>