<svg width="171" height="132" fill="none" xmlns="http://www.w3.org/2000/svg"><path d="M126.598 23.291c-.755-8.553 4.608-16.819 12.748-19.65 8.141-2.83 22.005-7.284 27.244 5.322M148.2 77.63c-.755-8.553 4.608-16.82 12.748-19.65 8.141-2.83 22.005-7.284 27.244 5.322m-110.933 37.15c-.755-8.553 4.608-16.82 12.749-19.65 8.14-2.83 22.004-7.284 27.243 5.322M57.614 51.547c-.755-8.553 4.608-16.82 12.748-19.65 8.141-2.83 22.005-7.284 27.244 5.322M241 70.666L203.967-49.028a.734.734 0 00-1.333-.153.728.728 0 00-.067.582l37.43 120.976m1.003-1.71l-1.003 1.71m1.003-1.71c-34.144 20.979-122.322 61.732-202.412 57.286a.888.888 0 00-.817.437.877.877 0 00.713 1.322c79.85 4.093 167.497-36.433 201.513-57.335M96.881-16.643C108.69 5.62 134.973 59.154 145.626 95.17M45.193 64.944C90.056 47.64 183.92 13.42 200.476 14.974m-51.11-19.558a8.466 8.466 0 01-1.043 2.73c-2.103 3.527-6.68 5.516-11.459 4.628-5.903-1.097-9.876-6.17-8.874-11.33a8.444 8.444 0 011.043-2.73c2.102-3.527 6.68-5.516 11.458-4.628 5.903 1.097 9.877 6.17 8.875 11.33zm.271-.452c-1.002 5.16-6.599 8.455-12.502 7.358-5.903-1.097-9.876-6.17-8.874-11.33 1.001-5.16 6.598-8.455 12.501-7.358 5.903 1.097 9.877 6.17 8.875 11.33zm21.331 54.79a8.466 8.466 0 01-1.043 2.729c-2.103 3.527-6.68 5.517-11.459 4.629-5.903-1.097-9.876-6.17-8.874-11.33a8.443 8.443 0 011.043-2.73c2.102-3.527 6.68-5.516 11.458-4.628 5.903 1.097 9.877 6.17 8.875 11.33zm.271-.452c-1.002 5.16-6.599 8.454-12.502 7.357-5.903-1.096-9.876-6.17-8.874-11.33 1.001-5.16 6.598-8.454 12.501-7.358 5.903 1.097 9.877 6.17 8.875 11.33zm-71.212 23.274a8.466 8.466 0 01-1.043 2.729c-2.102 3.527-6.68 5.516-11.459 4.628-5.903-1.096-9.876-6.169-8.874-11.33a8.47 8.47 0 011.043-2.729c2.102-3.527 6.68-5.516 11.459-4.628 5.902 1.097 9.876 6.17 8.874 11.33zm.271-.453c-1.001 5.16-6.599 8.455-12.502 7.358-5.903-1.097-9.876-6.17-8.874-11.33 1.001-5.16 6.599-8.454 12.501-7.358 5.903 1.097 9.877 6.17 8.875 11.33zM80.382 23.672a8.465 8.465 0 01-1.043 2.729c-2.103 3.527-6.68 5.517-11.459 4.629-5.903-1.097-9.876-6.17-8.874-11.33a8.465 8.465 0 011.043-2.73c2.102-3.527 6.68-5.516 11.458-4.628 5.903 1.097 9.877 6.17 8.875 11.33zm.271-.453c-1.002 5.161-6.599 8.455-12.502 7.358-5.903-1.097-9.876-6.17-8.874-11.33 1.001-5.16 6.598-8.454 12.501-7.358 5.903 1.097 9.876 6.17 8.875 11.33zm-21.482 85.739c79.229 2.734 138.652-29.437 159.138-46.366.35-.29.46-.75.307-1.176l-33.647-94.122a1.085 1.085 0 00-.999-.72C120.148-34.799 52.805-3.625 26.263 12.62c-.433.264-.6.78-.436 1.258l32.347 94.345c.146.426.546.718.998.734zm-20.324 19.007c79.486 4.319 166.873-35.796 201.471-56.874.424-.259.593-.756.447-1.23L203.698-49.94a1.082 1.082 0 00-.912-.758C128.685-59.164 39.776-24.259 3.705-5.314c-.448.235-.649.734-.52 1.221l34.672 131.251c.12.454.519.781.99.807zm-2.237.031L2.023-2.934a.705.705 0 011.36-.356l34.589 130.93a.697.697 0 01-.073.531c-.316.539-1.129.429-1.288-.174zm20.252-18.904L24.636 15.097a.746.746 0 01.062-.619.753.753 0 011.361.136l32.227 93.994a.747.747 0 01-.063.62.754.754 0 01-1.36-.136zm160.961-45.221c-19.928 16.756-79.391 49.36-158.94 46.822-.662-.021-1.068-.74-.734-1.31a.888.888 0 01.795-.433c78.194 2.763 137.133-28.49 158.45-45.614.291-.234.688.13.499.45a.31.31 0 01-.07.085zm-33.857-96.012a.875.875 0 01-.775.431C119.975-33.147 53.251-2.589 26.107 13.812c-.415.25-.872-.234-.627-.651a.445.445 0 01.152-.158c26-16.071 93.493-47.574 157.604-46.444a.862.862 0 01.73 1.3zM3.541-4.051c36.623-19.048 124.793-53.37 198.338-44.924a.912.912 0 00.893-.446.9.9 0 00-.676-1.354C127.707-59 38.637-23.802 3.076-4.992a.502.502 0 00-.2.195c-.266.453.198.99.665.747zm180.293-27.314l33.484 93.667a.762.762 0 001.373.128.755.755 0 00.06-.636l-33.485-93.667a.762.762 0 00-1.373-.128.75.75 0 00-.059.636zM58.161 110.669c79.229 2.735 138.652-29.437 159.138-46.366.35-.289.46-.75.307-1.176l-33.647-94.122a1.085 1.085 0 00-.999-.72C119.138-33.087 51.795-1.913 25.253 14.332c-.433.265-.6.78-.436 1.258l32.347 94.345c.146.426.546.719.997.734zm-20.324 19.007c79.486 4.319 166.873-35.796 201.471-56.874.424-.259.593-.756.447-1.23L202.688-48.23a1.082 1.082 0 00-.912-.758C127.675-57.453 38.766-22.548 2.695-3.603c-.448.235-.649.734-.52 1.222l34.672 131.25c.12.455.519.781.99.807z" stroke="#7831B2" stroke-width="3"/></svg>