<svg width="176" height="181" fill="none" xmlns="http://www.w3.org/2000/svg"><path d="M123.48 87.643c-31.974 11.19-27.791 35.785-22.793 47.781-4.998-11.996-3.686-39.788 23.792-47.78m-.999 0c-16.122-1.517-28.097-14.427-26.747-28.835a23.64 23.64 0 012.093-7.75c4.726-10.206 16.493-16.82 29.542-15.593 16.122 1.517 28.096 14.426 26.746 28.834a23.623 23.623 0 01-2.092 7.75c-4.726 10.207-16.493 16.82-29.542 15.593zm27.757-11.49c8.66-3.997 26.981-6.291 41.373 15.302m-42.372-14.803c8.659-3.997 26.98-5.79 41.373 15.802m63.267 6.214l-49.731-119.99a.756.756 0 00-1.384-.028v0a.759.759 0 00-.013.607l50.264 121.274m.864-1.863l-.864 1.863m.864-1.863c-33.042 24.966-119.683 75.58-202.42 78.746a.918.918 0 00-.798.531v0a.91.91 0 00.862 1.296c82.456-3.507 168.574-53.836 201.492-78.71M26.967 61.928v0a.938.938 0 011.707.01l42.139 93.598a.776.776 0 01-.004.645v0a.776.776 0 01-1.412-.008l-42.43-94.245zm0 0c25.188-19.165 92.884-60.417 159.238-65.21a.995.995 0 01.974.574l43.831 94.074a.961.961 0 01-.177 1.103c-19.349 19.45-77.352 58.519-159.174 63.349a1.006 1.006 0 01-.968-.574L26.967 61.928zm128.752 1.063c-1.35 14.408-15.513 24.859-31.635 23.343-16.121-1.517-28.096-14.426-26.746-28.834 1.35-14.409 15.513-24.86 31.635-23.343 16.121 1.516 28.096 14.425 26.746 28.834zM2.01 45.544c34.624-22.839 123.693-69.753 201.043-68.487a.934.934 0 01.827 1.332v0a.94.94 0 01-.875.547C125.472-22.685 36.755 22.627 2.01 45.545zm50.623 131.862c82.195-3.208 168.205-53.188 201.661-78.291.365-.274.476-.743.301-1.164L204.75-22.313a.994.994 0 00-.898-.616C126.798-24.527 38.708 20.215 3.53 43.259c-.388.254-.527.728-.368 1.164L51.66 176.752a.995.995 0 00.973.655zm-2.205.245L2.116 45.827a.726.726 0 01.022-.555v0a.726.726 0 011.341.055l48.313 131.825a.726.726 0 01-.023.555v0a.726.726 0 01-1.34-.055zm179.969-83.754c-18.844 19.23-76.772 58.65-158.766 63.733a.907.907 0 01-.884-1.281v0a.913.913 0 01.775-.524c80.626-4.72 138.146-42.694 158.382-62.439.276-.269.719.068.557.417v0a.325.325 0 01-.064.094zM186.179-1.135l43.546 93.462a.785.785 0 001.424-.001v0a.785.785 0 00-.001-.662L187.603-1.798a.785.785 0 00-1.424.002v0a.785.785 0 000 .661zM70.793 157.682c81.819-4.831 139.819-43.899 159.168-63.348a.963.963 0 00.177-1.103L186.307-.843a.997.997 0 00-.974-.574C119.513 3.32 52.265 41.405 26.602 60.725c-.374.281-.48.77-.285 1.194L69.822 157.1c.171.375.56.607.971.582zm-42.295-96.9c26.295-19.56 91.883-57.571 156.987-62.21a.902.902 0 00.754-.52v0a.894.894 0 00-.876-1.271C119.369 1.823 53.083 40.883 27.931 59.994a.459.459 0 00-.14.177v0c-.211.455.306.91.707.611zm23.263 118.49c82.195-3.208 168.205-53.188 201.661-78.291.364-.273.475-.743.301-1.164L203.877-20.448a.993.993 0 00-.897-.616C125.926-22.662 37.836 22.08 2.657 45.125c-.388.254-.526.727-.367 1.163l48.498 132.329a.995.995 0 00.973.655z" stroke="#7831B2" stroke-width="3" stroke-linecap="round"/></svg>