<svg width="153" height="96" fill="none" xmlns="http://www.w3.org/2000/svg"><path d="M5.5 48.711a.616.616 0 01-.481-.065.876.876 0 01-.34-.318 1.158 1.158 0 01-.139-.51c-.001-.23.102-.613.31-1.15.209-.539.493-1.29.852-2.255.372-.984.795-2.217 1.27-3.698.312-.955.602-1.863.87-2.726.28-.881.534-1.692.763-2.43.226-.756.43-1.424.613-2.005.182-.581.33-1.065.44-1.45.25-.793.505-1.382.764-1.767.274-.389.614-.628 1.02-.718.547-.122 1.018-.03 1.414.276.392.29.77.772 1.132 1.445.156.26.36.699.61 1.315.249.6.523 1.318.823 2.153.312.816.62 1.69.926 2.622.317.913.601 1.825.852 2.736.264.892.48 1.721.65 2.486.167.75.255 1.37.265 1.86a2.01 2.01 0 01-.13.741 1.591 1.591 0 01-.388.578c-.16.166-.349.274-.568.322-.218.049-.406.017-.562-.096-.137-.1-.25-.28-.34-.54a7.547 7.547 0 01-.258-1.048 35.121 35.121 0 00-.89-4.007 55.198 55.198 0 00-1.203-3.764 36.092 36.092 0 00-1.246-3.067c-.404-.861-.737-1.476-.999-1.844l.456-.052a23.017 23.017 0 00-.631 1.812c-.233.724-.48 1.532-.74 2.426-.264.878-.533 1.773-.805 2.686-.261.894-.516 1.737-.767 2.53-.284.932-.569 1.83-.852 2.697-.286.85-.56 1.607-.823 2.272a16.235 16.235 0 01-.688 1.554c-.144.31-.315.537-.513.679a1.588 1.588 0 01-.666.32zm27.21-6.012c-1.015.225-1.893.223-2.632-.006-.727-.249-1.32-.633-1.78-1.154a5.278 5.278 0 01-1.04-1.81 6.78 6.78 0 01-.33-2.04 6.827 6.827 0 01.24-2.02 9.032 9.032 0 01.75-1.937 9.725 9.725 0 011.133-1.653 6.714 6.714 0 011.349-1.233c.482-.337.958-.557 1.426-.661a.778.778 0 01.5.037c.146.066.273.16.383.284.109.123.177.28.203.47.014.063-.103.204-.35.422a36.52 36.52 0 00-.877.81c-.342.305-.67.632-.987.98-.32.334-.551.656-.695.966-.372.69-.672 1.33-.902 1.921a10.304 10.304 0 01-.69 1.432c-.215.359-.495.576-.838.653-.64.142-1.137.268-1.49.38-.336.107-.62.235-.848.384-.214.146-.437.36-.67.64-.276.307-.515.705-.718 1.192-.188.484-.343.97-.464 1.455-.11.467-.191.838-.245 1.112-.124.552-.263.96-.417 1.223-.158.248-.339.395-.542.44-.312.07-.574-.004-.786-.219-.212-.215-.323-.568-.333-1.057-.017-.226.01-.584.081-1.075.072-.491.147-1.04.225-1.648a46.5 46.5 0 00.222-1.77c.07-.572.097-1.038.083-1.395a10.992 10.992 0 00-.186-1.729 26.736 26.736 0 00-.281-1.486c-.1-.453-.155-.81-.164-1.07-.008-.26.054-.496.188-.706a.993.993 0 01.622-.408c.36-.08.645-.012.857.203.208.2.373.5.494.899a13.465 13.465 0 01.426 2.142c.066.444.108.894.127 1.349.002.376-.022.824-.07 1.343a24.463 24.463 0 01-.41 3.14 29.68 29.68 0 01-.206 1.176l-.076.434-1.609-.159c.032-.302.093-.652.186-1.049.092-.397.213-.81.364-1.236.151-.427.337-.845.558-1.255a5.8 5.8 0 01.763-1.103c.37-.476.762-.85 1.177-1.122.415-.272.875-.49 1.38-.65a16.2 16.2 0 011.807-.5c.109-.024.25-.162.424-.413.19-.255.386-.553.589-.893.215-.36.426-.7.633-1.025.203-.34.38-.61.534-.807l1.924-.525c-.214.145-.48.352-.797.619a6.939 6.939 0 00-.912.989c-.29.392-.53.863-.719 1.413-.189.55-.276 1.192-.26 1.926-.006.788.137 1.47.428 2.044.291.575.698 1 1.218 1.279.533.258 1.135.313 1.806.164a3.768 3.768 0 001.623-.778c.468-.399.84-.866 1.114-1.402a5.44 5.44 0 00.519-1.762 5.46 5.46 0 00-.039-1.836 4.898 4.898 0 00-.48-1.393c-.226-.425-.589-.73-1.088-.914-.5-.184-1.227-.17-2.18.041-.39.087-.723.062-.999-.073-.264-.155-.392-.364-.385-.627-.023-.176.044-.354.2-.537.157-.182.367-.343.63-.484.28-.144.576-.25.888-.32.844-.187 1.575-.218 2.192-.093.634.122 1.17.364 1.611.725.457.357.82.81 1.088 1.356a6.44 6.44 0 01.565 1.768c.171.847.189 1.704.053 2.57a7.11 7.11 0 01-.828 2.47 6.625 6.625 0 01-1.696 1.998c-.694.564-1.549.959-2.564 1.184zm13.674-3.059c-1.03.229-1.923.197-2.676-.094-.74-.311-1.346-.824-1.816-1.54-.458-.734-.802-1.616-1.03-2.647-.233-1.047-.365-2.197-.397-3.452-.037-1.123.045-2.157.245-3.103.197-.961.466-1.816.808-2.564.355-.767.758-1.422 1.211-1.965.453-.543.93-.977 1.432-1.3a11.68 11.68 0 012.078-1.052 33.769 33.769 0 001.937-.798 13.88 13.88 0 001.654-.859c.446-.28.794-.446 1.044-.502.187-.042.37-.033.546.026a.862.862 0 01.635.867c.012.276-.102.54-.341.789a3.996 3.996 0 01-.96.656c-.792.421-1.53.757-2.211 1.006-.67.23-1.286.45-1.846.656a6.004 6.004 0 00-1.589.82c-.485.32-.927.803-1.325 1.449-.385.626-.695 1.375-.927 2.246-.221.852-.318 1.783-.29 2.793.042 1.744.196 3.136.459 4.176.276 1.02.678 1.726 1.207 2.116.545.388 1.208.495 1.989.321.53-.118 1.04-.37 1.528-.757.484-.402.91-.882 1.279-1.439a7.38 7.38 0 00.89-1.746c.223-.623.324-1.203.303-1.74 0-.59-.113-1.064-.34-1.423a1.544 1.544 0 00-.953-.748c-.423-.135-.947-.134-1.572.005-.828.184-1.705.624-2.632 1.322-.912.694-1.777 1.631-2.597 2.813l-.947-.724c.443-1.033 1.008-1.92 1.696-2.663a8.945 8.945 0 012.25-1.826c.812-.476 1.608-.8 2.39-.973.952-.212 1.789-.209 2.509.008.717.202 1.28.601 1.692 1.198.41.598.614 1.405.61 2.422a7.943 7.943 0 01-.43 2.603c-.283.866-.69 1.693-1.22 2.483a9.157 9.157 0 01-1.887 2.017c-.73.555-1.531.93-2.406 1.123zm14.91-3.283c-1.281.284-2.398.237-3.35-.142a4.435 4.435 0 01-2.192-1.898c-.511-.903-.787-1.997-.826-3.283-.023-.913.104-1.744.38-2.494a7.954 7.954 0 011.079-2.01c.446-.573.918-1.03 1.416-1.37.495-.356.938-.577 1.328-.664.172-.038.318-.046.438-.023a.535.535 0 01.333.172c.099.076.152.204.159.383-.01.33-.07.646-.183.95-.116.288-.386.585-.81.892-.503.39-.914.793-1.232 1.208a3.99 3.99 0 00-.67 1.304c-.143.458-.198.986-.164 1.585.031 1.32.405 2.303 1.121 2.947.713.629 1.632.818 2.757.569 1.093-.243 1.96-.845 2.599-1.806.65-.98.956-2.154.914-3.522-.017-1.258-.303-2.178-.858-2.76-.558-.597-1.306-.791-2.244-.584-.484.108-.877.294-1.179.557-.286.26-.59.59-.911.99-.23.296-.41.557-.54.782-.13.226-.253.41-.37.55-.103.121-.257.204-.46.25-.219.048-.406.016-.562-.097-.144-.132-.222-.369-.232-.71-.017-.374.081-.781.295-1.222.229-.444.528-.87.896-1.28a6.06 6.06 0 011.28-1.096 4.25 4.25 0 011.456-.642c1.125-.25 2.097-.187 2.918.188.818.36 1.453.973 1.908 1.839.45.85.683 1.897.696 3.14.042 1.22-.151 2.344-.579 3.373a6.815 6.815 0 01-1.844 2.548 6.176 6.176 0 01-2.767 1.376zm13.66-17.83c-.656.145-1.242.128-1.757-.053-.52-.196-.935-.48-1.247-.854-.316-.389-.51-.78-.58-1.174-.063-.429-.018-.783.133-1.062a.977.977 0 01.672-.518c.234-.052.435.043.603.284.18.222.376.474.586.755.19.27.412.49.663.664.268.17.62.207 1.057.11a1.73 1.73 0 00.584-.252c.197-.143.376-.297.536-.464.172-.185.322-.358.45-.518.193-.239.368-.45.524-.632.153-.198.305-.363.456-.494.166-.136.336-.223.507-.26a.484.484 0 01.469.117c.137.1.197.26.18.476-.016.299-.119.65-.308 1.052a4.848 4.848 0 01-.776 1.155c-.34.387-.748.731-1.222 1.033a4.61 4.61 0 01-1.53.635zm-2.593 15.35c-.531.118-.98.086-1.349-.094a2.245 2.245 0 01-.874-.839 4.374 4.374 0 01-.512-1.312c-.096-.503-.148-1-.159-1.489.004-.427.022-.939.053-1.536.047-.6.105-1.228.172-1.882.068-.654.137-1.268.207-1.84a43.37 43.37 0 01.216-1.351c.082-.592.168-1.053.258-1.385.106-.335.276-.528.51-.58a.89.89 0 01.61.086c.203.102.368.254.494.455.143.198.22.435.232.711.008.26-.021.644-.09 1.15-.067.508-.146 1.074-.237 1.7-.09.627-.17 1.26-.242 1.898-.075.623-.107 1.18-.097 1.669 0 .442.027.862.083 1.26.052.382.137.69.255.927.114.22.273.308.476.263.5-.111 1.033-.697 1.601-1.757.584-1.064 1.179-2.482 1.785-4.256.285-.784.525-1.51.722-2.175.196-.667.37-1.246.524-1.74.149-.508.313-.913.492-1.215.179-.302.385-.479.62-.53.359-.08.648.003.867.25.23.227.388.569.473 1.026.09.406.185.909.286 1.51l.358 1.837c.12.613.246 1.183.38 1.71.248.896.498 1.62.751 2.17.266.53.491.956.677 1.275.185.32.295.59.328.813.022.175.004.351-.055.528a1.285 1.285 0 01-.274.43.847.847 0 01-.437.244c-.36.08-.693-.018-1-.295-.291-.28-.565-.702-.822-1.268a19.945 19.945 0 01-.767-2.017c-.156-.556-.32-1.15-.494-1.784a40.41 40.41 0 01-.426-1.92 220.22 220.22 0 01-.302-1.802l.732.083c-.108.401-.226.829-.355 1.283-.113.452-.26.968-.443 1.55-.17.561-.39 1.233-.66 2.014a24.784 24.784 0 01-1.197 2.798c-.459.888-.97 1.649-1.534 2.282-.553.614-1.165.996-1.836 1.145zm29.645-6.577c-.468.104-1.015.077-1.64-.079a8.736 8.736 0 01-1.923-.802 15.685 15.685 0 01-1.82-1.22 9.195 9.195 0 01-1.379-1.34 2.344 2.344 0 01-.455-.612 2.963 2.963 0 01-.164-.628c.02-.135.05-.29.094-.463.044-.174.114-.337.211-.49.132-.29.378-.698.737-1.22.36-.522.782-1.091 1.269-1.707a22.776 22.776 0 011.567-1.799 16.357 16.357 0 011.612-1.488c.531-.413 1.008-.666 1.429-.76.172-.038.314-.028.425.03a.666.666 0 01.302.252.803.803 0 01.13.364c.06.347-.093.726-.461 1.135-.369.41-.773.803-1.214 1.179a28.167 28.167 0 00-2.039 2.001 19.67 19.67 0 00-1.377 1.658c-.323.465-.475.777-.456.937.003.163.165.414.486.752.318.323.772.673 1.364 1.05a10.28 10.28 0 002.001.932c.339.122.668.238.987.347.331.09.602.202.812.336.222.115.348.275.377.482.023.175.003.343-.06.505a.946.946 0 01-.325.416c-.139.113-.302.19-.49.232zm-7.807 1.707c-.406.09-.725-.052-.956-.427-.234-.39-.406-.983-.517-1.778a32.471 32.471 0 01-.194-2.98c-.01-.49-.01-1.006 0-1.55l.079-1.64a22.22 22.22 0 00.008-1.624c.004-.132 0-.262-.013-.39 0-.148-.007-.294-.023-.438a2.866 2.866 0 01.086-.83c.065-.228.155-.411.271-.552.129-.16.271-.257.427-.291.36-.08.677.021.953.304.288.264.434.7.437 1.305.008.408-.01.92-.053 1.536-.031.597-.067 1.211-.107 1.843-.04.631-.057 1.184-.05 1.658.04.843.091 1.594.155 2.252.08.654.159 1.194.237 1.619.074.41.105.698.093.864.01.195-.023.374-.102.539a.901.901 0 01-.289.36.89.89 0 01-.442.22zm16.306 2.553c-.953.211-1.778.296-2.475.254-.695-.026-1.225-.163-1.591-.41-.366-.246-.55-.557-.551-.934-.009-.26.047-.486.169-.676.141-.18.359-.302.656-.367.188-.042.368-.041.542.002.173.044.372.09.596.139.227.064.529.095.906.094.392-.005.892-.076 1.502-.21.749-.167 1.338-.47 1.765-.909.427-.439.723-.988.888-1.647.181-.663.263-1.402.246-2.218a10.414 10.414 0 00-.109-1.377c-.05-.448-.108-.927-.172-1.437a75.498 75.498 0 01-.197-1.776 34.712 34.712 0 01-.15-2.45l.877.52c-.261 1.188-.565 2.181-.912 2.98-.351.782-.719 1.413-1.104 1.892-.389.463-.779.812-1.17 1.046a3.867 3.867 0 01-1.059.431c-.906.201-1.688.113-2.346-.266-.642-.382-1.149-1.08-1.522-2.096-.357-1.019-.557-2.4-.6-4.144-.029-1.092-.001-1.926.085-2.502.1-.58.247-.99.44-1.229.193-.239.414-.386.664-.442.234-.052.435-.03.604.063.165.078.276.25.335.515.075.262.1.634.075 1.115a33.85 33.85 0 00.028 2.894c.047.875.149 1.63.307 2.268.157.637.37 1.114.637 1.432.264.302.606.406 1.028.313.656-.146 1.222-.624 1.698-1.434.472-.826.853-1.878 1.144-3.155a29.85 29.85 0 00.649-4.274c.044-.469.12-.789.23-.96.106-.188.307-.315.604-.38a.925.925 0 01.471.018.76.76 0 01.44.32c.132.151.224.385.278.7.066.297.079.688.039 1.172-.058.849-.08 1.6-.066 2.252.029.649.084 1.267.166 1.856.078.573.167 1.16.267 1.76.113.581.208 1.232.286 1.952.074.705.126 1.53.155 2.473.029 1.092-.073 2.032-.308 2.822-.231.805-.557 1.476-.979 2.012a4.692 4.692 0 01-1.537 1.275 7.056 7.056 0 01-1.929.723zm13.576-9.305c-.75.166-1.429.21-2.036.132-.607-.079-1.096-.249-1.465-.511-.37-.262-.563-.58-.581-.953a1.19 1.19 0 01.149-.55.642.642 0 01.445-.32.8.8 0 01.448.024c.142.05.311.111.507.183.197.07.469.117.818.138.345.005.799-.054 1.361-.18.875-.193 1.586-.572 2.133-1.136.559-.583.816-1.419.771-2.507-.007-.768-.146-1.434-.418-1.996a3.642 3.642 0 00-1.075-1.41 3.48 3.48 0 00-1.611-.723c-.614-.11-1.281-.085-1.999.075-.36.08-.718.2-1.076.361a4.993 4.993 0 01-.958.335.969.969 0 01-.494-.013.69.69 0 01-.365-.312.98.98 0 01-.127-.464c0-.442.21-.825.63-1.147.433-.342 1.141-.622 2.125-.84 1.046-.233 2.016-.26 2.908-.08a5.399 5.399 0 012.376 1.07c.673.523 1.204 1.217 1.592 2.08.401.846.613 1.84.637 2.982a5.628 5.628 0 01-.323 2.087 5.439 5.439 0 01-.948 1.71c-.417.486-.915.9-1.495 1.242a7.062 7.062 0 01-1.929.723zm-4.176 7.22a.887.887 0 01-.523-.032.623.623 0 01-.341-.318 1.36 1.36 0 01-.135-.609 2.033 2.033 0 01.112-.713c.068-.212.141-.474.219-.786.082-.297.154-.674.217-1.13.062-.456.088-1.044.076-1.762a18.7 18.7 0 00-.384-3.504 268.365 268.365 0 00-.746-3.473 21.685 21.685 0 01-.439-3.64c-.009-.407.06-.726.206-.955a1.02 1.02 0 01.659-.466.803.803 0 01.666.123c.207.118.372.31.497.578.122.252.18.55.174.896.021.978.101 1.895.241 2.749.153.834.317 1.65.494 2.447.193.793.361 1.591.507 2.395.145.803.226 1.646.241 2.528.029.796.012 1.53-.053 2.2a8.726 8.726 0 01-.326 1.743c-.137.49-.32.883-.549 1.18a1.347 1.347 0 01-.813.548zm17.094-9.988c-1.156.256-2.159.241-3.01-.045a3.84 3.84 0 01-1.972-1.579c-.465-.765-.708-1.711-.728-2.837a7.916 7.916 0 01.441-2.778 8.46 8.46 0 011.37-2.467 8.953 8.953 0 012.083-1.913 7.542 7.542 0 012.539-1.08c.406-.09.779-.106 1.119-.05.337.04.601.16.794.364.204.184.304.449.299.794.003.31-.062.57-.196.78a.897.897 0 01-.557.37c-.172.038-.311.037-.419-.005a5.462 5.462 0 00-.346-.12c-.108-.042-.279-.036-.513.016a5.03 5.03 0 00-2.356 1.235 6.573 6.573 0 00-1.607 2.176 5.826 5.826 0 00-.55 2.507c.036.68.178 1.247.426 1.7.26.434.623.738 1.088.914.481.172 1.025.19 1.635.055.687-.153 1.216-.352 1.588-.598.368-.262.646-.52.836-.776a8.12 8.12 0 00.489-.674.728.728 0 01.482-.377c.297-.066.515-.04.656.076.156.112.241.348.255.705.005.54-.158 1.06-.49 1.56-.335.483-.799.906-1.391 1.267a6.273 6.273 0 01-1.965.78zM15.598 68.957c-1.156.256-2.16.241-3.01-.046a3.84 3.84 0 01-1.972-1.578c-.465-.765-.708-1.711-.728-2.838a7.918 7.918 0 01.44-2.777 8.47 8.47 0 011.37-2.467 8.956 8.956 0 012.084-1.913 7.541 7.541 0 012.538-1.08c.406-.09.78-.107 1.12-.051.336.04.6.161.793.365.205.184.305.448.3.794.003.31-.062.57-.196.78a.897.897 0 01-.557.37c-.172.038-.312.036-.42-.005a5.376 5.376 0 00-.345-.12c-.108-.042-.279-.037-.513.015a5.04 5.04 0 00-2.356 1.236 6.576 6.576 0 00-1.607 2.176 5.833 5.833 0 00-.55 2.506c.036.68.178 1.247.426 1.7a2.1 2.1 0 001.088.914c.48.172 1.025.19 1.634.056.688-.153 1.217-.352 1.588-.599.368-.261.647-.52.836-.775.205-.258.369-.483.49-.674.118-.206.279-.332.482-.377.296-.066.515-.04.656.075.156.113.24.348.255.706.005.54-.159 1.06-.49 1.56-.335.483-.799.906-1.39 1.266a6.28 6.28 0 01-1.966.78zm12.204-2.634c-1.281.284-2.398.237-3.35-.142a4.435 4.435 0 01-2.192-1.898c-.511-.903-.787-1.997-.826-3.283-.023-.913.104-1.745.38-2.494a7.948 7.948 0 011.079-2.01c.446-.574.918-1.03 1.416-1.37.495-.356.938-.578 1.328-.664.172-.038.318-.046.438-.023a.535.535 0 01.333.172c.099.076.152.204.159.382-.01.33-.07.647-.183.95-.116.288-.386.586-.81.893a6.74 6.74 0 00-1.232 1.207 4 4 0 00-.67 1.304c-.143.459-.198.987-.164 1.586.031 1.32.405 2.303 1.121 2.947.713.628 1.632.818 2.757.568 1.093-.242 1.96-.844 2.598-1.805.652-.98.956-2.155.915-3.522-.017-1.259-.303-2.178-.858-2.76-.558-.597-1.306-.792-2.244-.584-.484.108-.877.293-1.179.557-.286.26-.59.59-.911.989-.23.297-.41.558-.54.783-.13.226-.253.409-.37.55a.83.83 0 01-.46.25c-.219.048-.406.015-.562-.097-.144-.132-.222-.37-.232-.711-.017-.373.081-.78.295-1.221a6.11 6.11 0 01.896-1.28 6.06 6.06 0 011.28-1.096 4.232 4.232 0 011.456-.642c1.125-.25 2.098-.187 2.918.188.817.36 1.453.972 1.908 1.839.45.85.683 1.897.696 3.14.042 1.22-.151 2.344-.579 3.373a6.816 6.816 0 01-1.844 2.547 6.177 6.177 0 01-2.767 1.377zm21.5-4.844c-1.157.256-2.16.241-3.01-.045a3.841 3.841 0 01-1.973-1.579c-.464-.765-.707-1.711-.727-2.837a7.916 7.916 0 01.44-2.778c.324-.907.78-1.73 1.37-2.467a8.956 8.956 0 012.084-1.913 7.543 7.543 0 012.538-1.08c.406-.09.78-.107 1.12-.05.336.04.6.16.793.364.205.184.305.449.3.794.003.31-.062.57-.196.78a.897.897 0 01-.557.37c-.172.038-.312.037-.42-.005a5.316 5.316 0 00-.346-.12c-.107-.042-.278-.036-.512.016a5.037 5.037 0 00-2.357 1.235 6.579 6.579 0 00-1.607 2.176 5.833 5.833 0 00-.55 2.507c.036.68.179 1.247.427 1.7.26.434.622.738 1.087.914.481.172 1.026.19 1.635.055.688-.153 1.217-.352 1.588-.598.368-.262.647-.52.836-.776.205-.258.368-.483.49-.674.118-.206.278-.332.482-.377.296-.066.515-.04.656.076.156.112.24.348.254.705.006.54-.158 1.06-.49 1.56-.335.483-.798.906-1.39 1.267a6.28 6.28 0 01-1.966.78zm15.894-3.477c-.468.103-1.015.077-1.64-.08a8.734 8.734 0 01-1.923-.802 15.685 15.685 0 01-1.82-1.218 9.195 9.195 0 01-1.379-1.342 2.347 2.347 0 01-.455-.611 2.968 2.968 0 01-.164-.628c.02-.135.05-.29.094-.463.044-.174.114-.337.211-.49.132-.291.378-.698.737-1.22.36-.523.783-1.092 1.269-1.708a22.755 22.755 0 011.567-1.798 16.346 16.346 0 011.612-1.488c.532-.413 1.008-.666 1.43-.76.171-.038.313-.028.424.029a.66.66 0 01.302.253.798.798 0 01.13.364c.06.347-.093.725-.461 1.135-.368.41-.773.802-1.214 1.179a28.129 28.129 0 00-2.039 2 19.67 19.67 0 00-1.377 1.659c-.323.465-.475.777-.456.937-.004.131.085.308.265.53.18.223.44.469.778.738.354.265.764.527 1.231.784a11.98 11.98 0 001.578.682c.338.122.667.237.986.347.331.09.602.202.812.336.222.114.348.275.377.482.023.175.003.343-.06.505a.948.948 0 01-.325.416c-.139.113-.302.19-.49.231zm-7.807 1.707c-.406.09-.725-.052-.955-.427-.234-.39-.407-.983-.518-1.778a32.435 32.435 0 01-.194-2.981c-.01-.49-.01-1.006 0-1.549l.08-1.64c.022-.562.025-1.104.008-1.624a3.358 3.358 0 00-.013-.39c0-.148-.008-.294-.024-.438a2.866 2.866 0 01.087-.83c.064-.228.154-.412.27-.552.129-.16.271-.257.427-.292.36-.08.677.022.953.305.288.264.434.699.437 1.305.009.407-.009.92-.053 1.535a161.93 161.93 0 01-.107 1.843c-.04.632-.057 1.185-.05 1.659.04.843.091 1.594.155 2.252.08.654.159 1.194.237 1.619.074.41.105.697.093.864.01.194-.023.374-.101.539a.901.901 0 01-.29.359.89.89 0 01-.442.221zm13.72-3.02c-.532.119-.981.087-1.35-.093a2.244 2.244 0 01-.874-.839 4.372 4.372 0 01-.512-1.312c-.095-.503-.148-1-.158-1.49.003-.426.021-.938.052-1.535.047-.6.105-1.228.173-1.882.068-.654.136-1.268.206-1.84.085-.577.157-1.027.217-1.351.081-.592.168-1.054.258-1.385.106-.335.276-.529.51-.58a.89.89 0 01.61.086c.202.102.367.254.494.455.142.198.22.435.231.711.009.26-.02.644-.089 1.15-.067.507-.147 1.074-.237 1.7a63.4 63.4 0 00-.243 1.898c-.075.623-.107 1.18-.097 1.669 0 .442.028.862.083 1.26.052.382.137.69.255.926.114.22.273.309.476.264.5-.111 1.034-.697 1.602-1.757.583-1.064 1.178-2.482 1.784-4.256.285-.784.526-1.51.722-2.176.197-.666.371-1.245.524-1.738.15-.509.314-.914.492-1.216.18-.302.386-.479.62-.53.36-.08.648.003.867.25.23.227.389.569.473 1.025.09.406.186.91.286 1.51l.359 1.838c.12.613.246 1.183.38 1.71.247.896.498 1.62.75 2.17.266.53.492.956.677 1.275.186.32.295.59.328.812.023.176.004.352-.055.529a1.284 1.284 0 01-.273.43.846.846 0 01-.438.244c-.547.121-1.017-.152-1.41-.818-.394-.667-.787-1.587-1.179-2.762-.156-.556-.32-1.15-.494-1.784-.157-.637-.3-1.277-.426-1.921-.11-.647-.211-1.248-.301-1.802l.731.084a43.07 43.07 0 01-.537 2.012 61.42 61.42 0 01-.92 2.835 24.792 24.792 0 01-1.198 2.798c-.459.888-.97 1.649-1.534 2.282-.552.614-1.164.996-1.836 1.145zm12.81-4.243c.1-.514.242-1.094.426-1.741.18-.663.38-1.355.597-2.075.232-.723.469-1.431.708-2.124.252-.711.494-1.355.727-1.931.311-.74.63-1.443.959-2.106.328-.663.657-1.21.987-1.645.342-.452.662-.712.958-.777.313-.07.615.002.909.216.309.21.624.599.947 1.166.222.41.478.935.767 1.576.29.64.586 1.345.887 2.114.299.753.575 1.52.83 2.298.255.78.464 1.504.63 2.172l-2.021.645a29.301 29.301 0 00-.705-2.4 33.009 33.009 0 00-.9-2.505 27.685 27.685 0 00-.923-2.057c-.295-.59-.552-.976-.773-1.156l.872-.39a27.932 27.932 0 00-1.177 2.228c-.387.84-.731 1.727-1.032 2.662-.224.69-.431 1.342-.623 1.958a42.845 42.845 0 00-.513 1.785 73.557 73.557 0 00-.407 1.713l-2.13.374zm11.139 2.224c-.313.07-.579.014-.8-.166a.838.838 0 01-.324-.69c-.01-.195.029-.498.117-.911.092-.398.18-.852.263-1.362a7.93 7.93 0 00.1-1.546l1.108 1.008c-.225.017-.576.062-1.051.135-.46.069-1.041.182-1.744.337-.657.146-1.334.305-2.034.476a95.78 95.78 0 00-2.056.481c-.668.165-1.318.341-1.948.53-.633.174-1.241.35-1.825.528a29.89 29.89 0 00-1.57.57l.732-1.023c.014.21.038.467.073.77.034.304.077.606.127.907.054.316.099.592.135.83l.11.492c.043.27-.006.493-.147.672a.96.96 0 01-.604.38c-.375.083-.665-.008-.872-.274-.206-.266-.354-.602-.444-1.008a7.178 7.178 0 01-.19-.965 7.612 7.612 0 01-.086-.94c.007-.264.052-.504.136-.719a1.44 1.44 0 01.377-.624c.188-.19.447-.353.776-.492.377-.15.888-.32 1.534-.512a42.269 42.269 0 012.218-.64 70.35 70.35 0 012.58-.67 75.08 75.08 0 012.544-.614c.265-.06.546-.122.843-.187.312-.07.634-.133.966-.19.331-.057.65-.095.958-.114.463-.054.799.019 1.007.219.224.196.345.554.362 1.075a9.1 9.1 0 01-.076 1.32c-.06.472-.157.92-.292 1.343a3.882 3.882 0 01-.448 1.083c-.167.282-.352.446-.555.491zm12.537-6.075c-.469.104-1.015.077-1.64-.079a8.73 8.73 0 01-1.923-.802 15.712 15.712 0 01-1.82-1.22 9.231 9.231 0 01-1.379-1.34 2.362 2.362 0 01-.455-.612 2.928 2.928 0 01-.164-.628c.019-.135.05-.29.094-.463a1.65 1.65 0 01.211-.49c.132-.29.378-.698.737-1.22s.782-1.091 1.268-1.707a22.882 22.882 0 011.568-1.798 16.289 16.289 0 011.612-1.489c.531-.413 1.008-.666 1.429-.76.172-.038.314-.028.425.03a.667.667 0 01.302.252.815.815 0 01.13.364c.06.347-.094.726-.462 1.135-.368.41-.772.802-1.213 1.179a28.272 28.272 0 00-2.039 2.001c-.58.637-1.039 1.19-1.378 1.658-.323.465-.475.777-.456.937-.003.132.085.309.266.53.18.223.44.469.778.738.354.266.764.527 1.231.784.482.253 1.008.48 1.577.682.339.122.667.237.987.347.331.09.602.202.812.336.222.115.348.275.377.482.023.175.003.343-.06.505a.945.945 0 01-.325.416 1.17 1.17 0 01-.49.232zm-7.807 1.707c-.406.09-.725-.052-.956-.427-.234-.39-.406-.983-.517-1.778a32.438 32.438 0 01-.194-2.98c-.01-.49-.01-1.006 0-1.55l.079-1.64a22.09 22.09 0 00.008-1.624c.004-.132 0-.262-.013-.39 0-.148-.007-.294-.023-.438a2.866 2.866 0 01.086-.83 1.5 1.5 0 01.271-.552c.129-.16.271-.257.427-.291.36-.08.677.022.953.304.288.264.433.7.437 1.305.008.408-.009.92-.053 1.536-.031.597-.067 1.211-.107 1.843-.04.631-.057 1.184-.05 1.658.039.843.091 1.594.155 2.252.08.654.159 1.194.237 1.619.074.41.105.698.093.864.01.195-.024.374-.102.539a.899.899 0 01-.289.36.887.887 0 01-.442.22zm16.747-3.666c-1.281.284-2.398.237-3.351-.142a4.436 4.436 0 01-2.191-1.898c-.511-.903-.787-1.997-.826-3.283-.023-.913.104-1.744.38-2.494a7.958 7.958 0 011.079-2.01c.446-.573.918-1.03 1.416-1.37.495-.356.938-.577 1.328-.664a1.11 1.11 0 01.438-.023.535.535 0 01.333.172c.099.076.152.204.158.382-.008.33-.069.647-.182.95-.116.289-.386.586-.81.893-.503.39-.914.793-1.232 1.208-.305.395-.528.83-.669 1.304-.144.458-.199.986-.165 1.585.031 1.32.405 2.303 1.121 2.947.713.629 1.632.818 2.757.568 1.093-.242 1.959-.844 2.598-1.805.652-.98.956-2.155.915-3.522-.017-1.258-.303-2.178-.858-2.76-.558-.597-1.306-.791-2.244-.584-.484.108-.877.293-1.179.557-.286.26-.59.59-.911.989a7.28 7.28 0 00-.54.783 4.05 4.05 0 01-.369.55.822.822 0 01-.461.25c-.219.048-.406.016-.562-.097-.144-.132-.222-.37-.232-.711-.017-.373.081-.78.295-1.22.229-.445.528-.872.896-1.281a6.04 6.04 0 011.281-1.096c.47-.317.955-.531 1.455-.642 1.125-.25 2.097-.187 2.918.188.817.36 1.453.973 1.908 1.839.451.85.683 1.897.696 3.14.042 1.22-.152 2.344-.579 3.373a6.813 6.813 0 01-1.844 2.548 6.175 6.175 0 01-2.767 1.376zm13.66-17.83c-.657.145-1.242.128-1.758-.053-.518-.196-.934-.48-1.246-.854-.316-.389-.509-.78-.58-1.174-.063-.429-.018-.783.133-1.062a.977.977 0 01.672-.518c.234-.052.435.043.603.284.181.222.376.474.586.755.191.269.412.49.663.664.268.17.62.207 1.057.11.203-.045.398-.13.583-.253.198-.142.377-.296.537-.463.172-.186.322-.358.45-.518.282-.357.534-.659.758-.905.221-.262.464-.423.729-.482a.485.485 0 01.469.118c.137.1.197.26.179.476-.015.299-.118.65-.307 1.052a4.853 4.853 0 01-.776 1.155 5.683 5.683 0 01-1.222 1.033c-.458.299-.968.51-1.53.635zm-2.593 15.35c-.531.118-.981.086-1.349-.094a2.248 2.248 0 01-.874-.839 4.368 4.368 0 01-.512-1.312c-.096-.503-.148-1-.159-1.49.004-.426.021-.938.053-1.535.047-.6.104-1.228.172-1.882.068-.654.137-1.268.207-1.84.085-.577.157-1.027.216-1.351.082-.592.168-1.054.258-1.385.106-.335.276-.528.511-.58a.89.89 0 01.609.086c.203.102.368.254.494.455.143.198.22.435.232.711.008.26-.021.644-.089 1.15-.068.508-.147 1.074-.238 1.7a60.3 60.3 0 00-.242 1.898 11.9 11.9 0 00-.097 1.669c0 .442.027.862.083 1.26.052.381.136.69.254.926.115.221.274.309.477.264.5-.111 1.033-.697 1.601-1.757.584-1.064 1.179-2.482 1.785-4.256.285-.784.525-1.51.722-2.176.196-.666.371-1.245.523-1.738.15-.509.314-.914.493-1.216.179-.302.385-.479.62-.53.359-.08.648.003.866.25.231.227.389.569.474 1.025.09.407.185.91.286 1.51l.358 1.838c.12.613.246 1.183.38 1.71.248.896.498 1.62.751 2.17.266.53.491.956.677 1.275.185.32.295.59.327.812a1.17 1.17 0 01-.054.529 1.29 1.29 0 01-.274.43.845.845 0 01-.437.244c-.547.121-1.017-.152-1.411-.818-.394-.667-.786-1.587-1.178-2.762-.156-.556-.321-1.15-.494-1.784-.158-.637-.3-1.277-.426-1.921-.111-.647-.212-1.248-.302-1.801l.732.083a44.848 44.848 0 01-.537 2.012c-.214.736-.521 1.68-.92 2.835a24.806 24.806 0 01-1.199 2.798c-.458.888-.969 1.649-1.534 2.282-.552.614-1.164.996-1.835 1.145zM15.648 90.128c.1-.513.241-1.094.425-1.741.181-.663.38-1.355.597-2.075.233-.723.47-1.431.709-2.124.252-.711.494-1.355.727-1.931.31-.74.63-1.443.958-2.106.329-.662.658-1.21.988-1.644.342-.453.661-.713.958-.779.312-.069.615.003.908.217.31.21.625.599.948 1.166.221.41.477.935.767 1.576.29.64.585 1.345.887 2.114.298.753.575 1.52.83 2.299.254.779.464 1.503.629 2.17l-2.02.646a29.276 29.276 0 00-.705-2.4 33.006 33.006 0 00-.9-2.505 27.69 27.69 0 00-.923-2.057c-.295-.59-.553-.975-.773-1.156l.872-.39a27.932 27.932 0 00-1.177 2.228 23.57 23.57 0 00-1.032 2.662c-.224.69-.432 1.342-.623 1.958a42.84 42.84 0 00-.513 1.785 74.186 74.186 0 00-.407 1.713l-2.13.374zm11.139 2.225c-.313.069-.58.013-.8-.167a.839.839 0 01-.325-.69c-.01-.195.03-.498.118-.911.092-.398.18-.852.263-1.362.084-.51.117-1.025.1-1.546l1.108 1.008c-.225.017-.576.062-1.052.135-.46.069-1.04.182-1.744.338a93.72 93.72 0 00-2.033.475c-.687.153-1.373.313-2.057.481a40.55 40.55 0 00-1.947.53c-.633.174-1.242.35-1.825.528a30.53 30.53 0 00-1.57.57l.732-1.023c.014.21.038.467.073.77.034.304.077.606.127.907.054.316.098.592.135.83l.11.492c.042.27-.006.493-.147.672a.96.96 0 01-.604.38c-.375.083-.665-.008-.872-.274-.206-.266-.355-.602-.445-1.008a7.19 7.19 0 01-.19-.966 7.63 7.63 0 01-.085-.94c.007-.263.052-.502.136-.718a1.44 1.44 0 01.377-.624c.188-.19.446-.353.776-.492.377-.15.888-.32 1.534-.512a42.24 42.24 0 012.218-.64 70.197 70.197 0 012.58-.67 74.717 74.717 0 012.543-.614c.266-.06.547-.121.844-.187.312-.07.634-.133.966-.19.331-.057.65-.095.957-.114.464-.054.8.02 1.008.219.224.196.344.554.361 1.075.009.408-.017.848-.076 1.32-.059.472-.156.92-.292 1.343-.116.435-.265.796-.448 1.083-.167.282-.351.446-.554.492zm8.549-5.167c-1.281.284-2.398.237-3.35-.142a4.435 4.435 0 01-2.192-1.898c-.512-.903-.787-1.997-.827-3.283-.022-.913.105-1.744.381-2.494a7.948 7.948 0 011.079-2.009c.446-.574.918-1.031 1.416-1.371.495-.356.938-.577 1.328-.664.172-.038.318-.046.438-.023a.54.54 0 01.333.172c.099.076.151.204.158.383-.008.33-.07.646-.182.95-.117.288-.387.585-.81.892a6.74 6.74 0 00-1.232 1.208c-.305.395-.529.83-.67 1.304-.143.458-.198.986-.164 1.585.03 1.32.405 2.303 1.121 2.947.713.629 1.632.818 2.757.569 1.093-.243 1.96-.845 2.598-1.806.651-.98.956-2.154.915-3.522-.017-1.258-.303-2.178-.858-2.76-.559-.597-1.306-.791-2.244-.583-.484.107-.877.293-1.18.556-.286.26-.59.59-.91.99-.23.296-.41.557-.54.783a4.04 4.04 0 01-.37.549c-.104.121-.257.204-.46.25-.22.048-.406.016-.563-.097-.144-.132-.22-.369-.231-.71-.017-.374.08-.78.294-1.222.23-.444.528-.87.896-1.28a6.04 6.04 0 011.282-1.095c.47-.318.955-.532 1.455-.643 1.125-.25 2.097-.187 2.918.189.817.359 1.453.972 1.908 1.838.45.85.683 1.897.696 3.14.041 1.22-.152 2.344-.579 3.373a6.816 6.816 0 01-1.844 2.548 6.177 6.177 0 01-2.767 1.376zm19.143-4.05c-.734.162-1.292.122-1.674-.12-.362-.232-.547-.658-.554-1.28a1.591 1.591 0 01.553-1.277c1.626-1.46 2.99-2.77 4.093-3.932 1.099-1.178 1.977-2.242 2.636-3.19.654-.965 1.124-1.84 1.409-2.624.281-.8.415-1.526.401-2.179-.012-.866-.25-1.493-.712-1.882-.467-.405-1.177-.501-2.13-.29-.796.177-1.486.428-2.07.754-.567.323-1.065.663-1.494 1.02a51.99 51.99 0 00-1.05.921c-.286.26-.53.413-.734.458-.296.066-.544.023-.742-.13a.932.932 0 01-.296-.672c.005-.198.045-.387.12-.567.075-.18.226-.386.453-.617a12.608 12.608 0 012.622-2.032 10.28 10.28 0 013.067-1.246c1.203-.267 2.165-.251 2.887.048a2.84 2.84 0 011.608 1.487c.354.708.54 1.543.556 2.507.016.734-.107 1.548-.367 2.441-.245.89-.7 1.868-1.365 2.934-.665 1.065-1.6 2.247-2.803 3.547-1.19 1.28-2.711 2.7-4.562 4.257l-.437-.64c.227.064.454.087.68.07a5.61 5.61 0 00.736-.114 21.334 21.334 0 002.013-.57 174.66 174.66 0 012.502-.8c.92-.287 1.88-.54 2.879-.762.765-.17 1.279-.145 1.541.076.274.201.413.457.416.768a.952.952 0 01-.281.726c-.188.189-.5.332-.937.43a61.209 61.209 0 00-5.431 1.45c-.69.218-1.318.415-1.885.59a21.3 21.3 0 01-1.648.44zm19.071-4.453c-1.093.243-2.123.184-3.087-.175-.95-.363-1.727-1.06-2.332-2.089-.593-1.048-.91-2.478-.951-4.288-.035-1.189.111-2.303.438-3.342.323-1.055.73-1.99 1.222-2.803.491-.814.992-1.474 1.503-1.98.51-.507.945-.8 1.304-.88.281-.063.49-.043.627.057.134.085.202.316.203.693.018.226-.023.448-.122.666-.103.203-.268.42-.495.65a8.545 8.545 0 00-1.341 1.823 10.48 10.48 0 00-.954 2.35 9.249 9.249 0 00-.308 2.6c.015 1.03.166 1.93.452 2.703.302.769.739 1.335 1.311 1.7.589.361 1.32.445 2.195.25.875-.193 1.689-.66 2.442-1.402.754-.74 1.348-1.716 1.784-2.928.436-1.21.639-2.624.608-4.24-.005-1.13-.15-2.114-.433-2.952-.288-.854-.69-1.486-1.208-1.896-.517-.41-1.15-.531-1.9-.365a5.258 5.258 0 00-1.69.695 6.447 6.447 0 00-1.453 1.207 9.483 9.483 0 00-1.221 1.697 2.344 2.344 0 01-.39.455c-.148.148-.363.253-.644.315-.296.066-.536.02-.718-.135-.182-.157-.273-.382-.273-.677.009-.33.158-.765.448-1.304.287-.556.702-1.123 1.245-1.702a10.617 10.617 0 011.958-1.59 7.695 7.695 0 012.455-1.012c1.234-.274 2.285-.155 3.152.358.865.496 1.532 1.323 2.001 2.481.483 1.139.732 2.558.749 4.26.04 1.58-.121 3-.48 4.26-.36 1.26-.857 2.346-1.49 3.256-.638.896-1.354 1.62-2.15 2.173-.794.554-1.614.924-2.457 1.111zM86.75 76c-.296.066-.536.02-.718-.135-.179-.141-.284-.355-.315-.643-.015-.292.055-.603.211-.932a131.177 131.177 0 012.655-4.769 96.1 96.1 0 015.987-9.023 89.238 89.238 0 013.5-4.39c.285-.342.533-.593.743-.755.21-.161.44-.27.69-.325.265-.059.47-.022.614.11.16.128.259.32.299.573.036.237.008.514-.086.83-.097.3-.268.6-.513.9a98.119 98.119 0 00-4.716 5.89 78.886 78.886 0 00-3.845 5.72 92.046 92.046 0 00-3.336 5.903c-.176.318-.368.557-.579.718-.19.174-.387.283-.59.328zm1.017-10.378c-.969.215-1.798.21-2.486-.014-.69-.224-1.213-.624-1.57-1.2-.357-.577-.544-1.273-.561-2.089a4.01 4.01 0 01.448-1.968 5.317 5.317 0 011.313-1.618 4.402 4.402 0 011.84-.9c.297-.066.527-.027.69.117.16.128.247.338.263.63a1.065 1.065 0 01-.214.588c-.125.176-.33.36-.614.555-.604.38-1.017.774-1.237 1.184-.224.394-.328.81-.313 1.25-.004.574.175 1.01.536 1.306.36.297.892.367 1.595.211.672-.149 1.17-.415 1.495-.798.321-.4.476-.884.464-1.455-.002-.524-.17-.954-.507-1.289-.337-.335-.747-.449-1.232-.341-.312.069-.593.058-.843-.035-.238-.11-.36-.33-.367-.656-.001-.376.1-.66.302-.853a1.44 1.44 0 01.698-.401c.828-.184 1.541-.145 2.14.115a2.946 2.946 0 011.434 1.255c.342.58.52 1.27.533 2.07a3.897 3.897 0 01-.477 1.95 4.425 4.425 0 01-1.334 1.525c-.565.404-1.231.69-1.996.86zm9.944 7.7c-.984.219-1.823.208-2.515-.032-.677-.243-1.202-.65-1.575-1.224-.36-.591-.559-1.301-.595-2.13a3.585 3.585 0 01.443-1.77 4.402 4.402 0 011.297-1.467 4.642 4.642 0 011.828-.848c.312-.07.547-.047.703.066.156.112.24.307.252.583.002.229-.057.447-.175.653-.102.203-.297.36-.583.474-.616.251-1.042.583-1.278.996a2.511 2.511 0 00-.326 1.302c.003.605.207 1.044.611 1.314.416.252.945.307 1.585.165.672-.149 1.193-.461 1.563-.937.382-.494.573-1.07.575-1.725-.029-.65-.24-1.16-.634-1.531-.394-.372-.903-.488-1.528-.35-.344.077-.613.046-.807-.09-.195-.138-.301-.36-.32-.667.002-.361.096-.636.284-.826a1.56 1.56 0 01.75-.387c.843-.187 1.593-.132 2.249.165a3.336 3.336 0 011.54 1.403c.387.635.58 1.355.578 2.158a4.465 4.465 0 01-.464 2.12 4.888 4.888 0 01-1.401 1.662 5.31 5.31 0 01-2.057.924z" fill="#7831B2"/></svg>