<svg width="156" height="168" fill="none" xmlns="http://www.w3.org/2000/svg"><path d="M90.973 166.649a2 2 0 10-.402-3.979l.402 3.979zm-71.542-23.093l-1.684 1.079 1.684-1.079zm-5.968-48.817l1.909.598-1.909-.598zm11.491-44.78l.45-1.948-3.17-.733.778 3.16 1.942-.478zM48.08 82.263l1.93.524-1.93-.524zm-1.123 32.279a2 2 0 003.46-2.008l-3.46 2.008zm4.486-42.148l-1.719-1.022-.076.128-.056.138 1.851.756zm-1.51-64.917l-1.367 1.46.031.028.032.028 1.304-1.516zM38.717-18.12l1.997.113-1.997-.113zm16.78-25.74l1.986.235.515-4.346-3.623 2.455 1.122 1.655zm46.276 50.34l-1.074 1.687 1.074-1.687zm42 37.877l-1.742.982 1.742-.982zm-27.91 110.593a2 2 0 101.162 3.827l-1.162-3.827zm15.961-38.148l-1.959.4 1.959-.4zm-5.137-13.678l1.792-.888-2.094-4.226-1.582 4.443 1.884.671zm-35.02-26.233l1.98-.277-.4-2.865-2.54 1.387.96 1.755zm-11.41 41.805l1.95-.443-1.95.443zm5.724 13.992l.538 1.926 1.97-.55-.595-1.957-1.913.581zm-30.329 3.802l-.16-1.994-2.56.207.827 2.431 1.893-.644zm34.83 30.281a2 2 0 10-.176-3.996l.176 3.996zM17.984 142.03l1.697-1.059-1.697 1.059zm5.523-93.597l.45-1.949-3.17-.733.778 3.16 1.942-.478zm23.125 32.302l1.93.524-1.93-.524zm-1.123 32.279a2 2 0 103.46-2.008l-3.46 2.008zm4.486-42.148l-1.719-1.022-.076.128-.056.138 1.851.756zM48.485 5.95l-1.367 1.46.031.029.032.027 1.304-1.516zM37.27-19.647l1.996.114-1.996-.114zM55.746-44.92l1.987.236.485-4.095-3.516 2.154 1.044 1.706zm44.58 49.874l-1.075 1.687 1.075-1.687zm42 37.877l-1.742.983 1.742-.983zm-26.39 112.098a2 2 0 101.162 3.827l-1.162-3.827zm13.887-38.502l-1.959.4 1.959-.4zm-3.335-14.225l1.792-.888-2.094-4.226-1.582 4.443 1.884.671zM91.741 76.87l1.98-.277-.4-2.866-2.54 1.388.96 1.755zm-12.932 40.3l-1.882.678 1.882-.678zm5.724 13.991l.539 1.926 1.969-.55-.594-1.957-1.914.581zm-30.328 3.802l-.161-1.994-2.56.207.828 2.432 1.893-.645zM16.718 35.748l-1.961.392.83 4.152 2.68-3.279-1.549-1.265zm3.73-14.831l-1.722 1.018 1.722-1.018zm-7.76-7.48l.963-1.752-.03-.017-.03-.015-.903 1.784zM9.36 8.125l1.992.184-1.992-.184zm.376-3.143l1.967.361-1.967-.361zm-.348-.15l1.181 1.614L9.39 4.83zM3.58 16.202l-1.747.974 1.747-.974zm12.44 12.732l-1.986-.238-.015.129.001.129 2-.02zm96.772 26.177l.678-1.882-3.983-1.435 1.421 3.988 1.884-.671zm10.823 10.803l-2 .012 2-.012zm-2.811 10.405l1.691 1.067.019-.029.017-.03-1.727-1.008zm-.124 6.267l1.614-1.18-1.614 1.18zm1.939 2.503l1.501-1.32-1.501 1.32zm-.222.308l.183-1.992-.183 1.992zm-10.827-6.768l-1.999.063 1.999-.063zm4.127-17.316l-1.726 1.011.066.112.079.102 1.581-1.225zM90.571 162.67c-9.251.936-22.948 1.75-36.22-.653-13.283-2.406-25.83-7.975-33.235-19.539l-3.369 2.157c8.255 12.89 22.073 18.815 35.891 21.318 13.83 2.504 27.974 1.643 37.335.696l-.402-3.979zm-69.456-20.192c-5.053-7.891-7.857-15.192-8.735-22.702-.879-7.518.157-15.388 2.992-24.44l-3.817-1.195c-2.95 9.418-4.11 17.87-3.148 26.099.963 8.238 4.035 16.111 9.34 24.395l3.369-2.157zm-5.743-47.141c1.4-4.474 3.105-8.193 4.823-11.606 1.689-3.357 3.488-6.596 4.904-9.819 2.937-6.681 4.435-13.709 1.797-24.43l-3.884.956c2.404 9.77 1.049 15.896-1.575 21.865-1.363 3.102-3.02 6.062-4.816 9.63-1.767 3.513-3.575 7.447-5.066 12.208l3.817 1.196zm9.132-43.429c2.35.544 6.797 3.088 11.193 8.204 4.339 5.049 8.505 12.47 10.418 22.524l3.93-.748c-2.05-10.764-6.535-18.822-11.315-24.383-4.72-5.494-9.857-8.691-13.326-9.494l-.901 3.897zm25.911 60.625c-1.967-3.388-4.702-13.906-.405-29.747l-3.86-1.048c-4.493 16.56-1.841 28.244.806 32.803l3.46-2.008zm-.405-29.747a82.815 82.815 0 013.284-9.637l-3.703-1.513a86.825 86.825 0 00-3.442 10.102l3.86 1.048zm3.151-9.371c7.563-12.719 11.675-23.952 12.401-26.845l-3.88-.974c-.609 2.429-4.542 13.3-11.959 25.775l3.438 2.044zM65.563 46.57c.272-1.08 2.503-6.503 1.692-13.922-.82-7.514-4.69-16.949-16.018-26.689l-2.608 3.033c10.641 9.15 13.95 17.688 14.65 24.09.71 6.498-1.199 10.935-1.595 12.514l3.88.974zM51.3 6.015c-5.091-4.766-7.8-8.205-9.227-11.638-1.416-3.405-1.664-7.023-1.358-12.384l-3.994-.227c-.316 5.535-.111 9.89 1.659 14.147C40.137.14 43.348 4.052 48.565 8.936l2.734-2.92zM40.714-18.007c.328-5.752 1.5-9.805 3.875-13.357 2.411-3.608 6.174-6.873 12.03-10.84l-2.244-3.312c-5.975 4.048-10.261 7.665-13.111 11.93-2.888 4.319-4.189 9.129-4.544 15.352l3.994.227zM53.51-44.096c-.504 4.252-.588 11.011.791 17.617 1.368 6.549 4.265 13.364 10.08 17.149l2.182-3.353c-4.485-2.919-7.06-8.451-8.346-14.614-1.275-6.106-1.198-12.422-.735-16.328l-3.972-.47zM64.381-9.33c5.346 3.479 11.304 5.81 17.379 8.265 6.125 2.476 12.473 5.114 18.939 9.233l2.149-3.374C96.044.46 89.392-2.295 83.258-4.774c-6.182-2.499-11.74-4.684-16.694-7.909L64.382-9.33zM100.7 8.168c18.718 11.926 30.774 18.448 41.332 37.172l3.484-1.964c-11.134-19.747-24.126-26.769-42.667-38.582L100.7 8.168zm41.332 37.172c7.219 12.803 8.932 21.193 10.966 36.191l3.963-.537c-2.063-15.216-3.867-24.18-11.445-37.618l-3.484 1.964zm10.966 36.191c.991 7.307.724 18.057-1.356 28.566-2.09 10.558-5.94 20.514-11.844 26.537l2.857 2.8c6.716-6.852 10.766-17.728 12.91-28.56 2.154-10.882 2.454-22.08 1.396-29.88l-3.963.537zm-13.2 55.103c-6.232 6.36-11.585 10.759-15.719 13.666-4.177 2.938-7.014 4.286-8.215 4.651l1.162 3.827c1.802-.547 5.047-2.176 9.355-5.206 4.351-3.061 9.888-7.622 16.274-14.138l-2.857-2.8zm-13.993 17.527c2.38-3.582 5.111-9.303 6.883-15.941 1.772-6.64 2.624-14.336 1.097-21.817l-3.919.8c1.366 6.696.625 13.738-1.043 19.985-1.668 6.25-4.228 11.566-6.349 14.759l3.331 2.214zm7.98-37.758c-1.201-5.883-4.471-12.484-5.305-14.166l-3.584 1.776c.86 1.736 3.888 7.892 4.97 13.19l3.919-.8zm-8.981-13.949c-1.438 4.04-2.016 5.253-6.92 13.605l3.45 2.025c4.93-8.397 5.668-9.877 7.238-14.288l-3.768-1.342zm-6.92 13.605c-1.11 1.891-2.717 3.64-4.468 4.492-1.602.779-3.393.868-5.444-.643-2.218-1.635-4.828-5.219-7.387-12.18-2.542-6.912-4.953-16.925-6.937-31.113l-3.961.554c2.005 14.34 4.467 24.66 7.143 31.939 2.66 7.231 5.614 11.695 8.77 14.02 3.323 2.449 6.713 2.408 9.565 1.02 2.702-1.314 4.821-3.768 6.169-6.064l-3.45-2.025zM90.708 75.137c-2.163 1.181-4.18 3.598-5.915 6.495-1.774 2.962-3.4 6.675-4.678 10.762-2.543 8.142-3.785 18.046-1.809 26.747l3.9-.887c-1.77-7.798-.683-16.952 1.727-24.667 1.2-3.841 2.708-7.255 4.291-9.9 1.623-2.709 3.188-4.377 4.401-5.04l-1.917-3.51zm-12.402 44.004c.703 3.093 2.14 6.523 3.385 9.213.63 1.36 1.224 2.562 1.671 3.465.226.458.408.825.542 1.107.161.338.181.405.163.344l3.827-1.162c-.087-.286-.256-.645-.379-.903-.15-.314-.346-.712-.568-1.159-.447-.905-1.02-2.065-1.625-3.371-1.222-2.642-2.51-5.757-3.115-8.421l-3.9.887zm7.136 11.622c-3.204.895-10.597 1.832-17.387 2.551a566.352 566.352 0 01-11.548 1.098l-.754.064-.196.016-.05.004-.012.001h-.003l.16 1.994.162 1.993h.004l.013-.001.052-.004.2-.017.762-.064a594.727 594.727 0 0011.631-1.106c6.674-.707 14.446-1.671 18.043-2.677l-1.077-3.852zm-31.683 6.372c1.614 4.741 5.571 11.85 11.387 17.916 5.818 6.069 13.706 11.307 23.2 11.818l.216-3.994c-8.109-.437-15.105-4.934-20.529-10.592-5.426-5.66-9.068-12.268-10.488-16.437l-3.786 1.289zm36.547 25.641c-9.484.417-23.445.999-36.96-1.599-13.521-2.598-26.248-8.312-33.665-20.206l-3.394 2.117c8.26 13.245 22.271 19.32 36.303 22.018 14.038 2.698 28.444 2.082 37.892 1.666l-.176-3.996zM19.68 140.971c-4.966-7.964-7.774-15.274-8.676-22.775-.902-7.504.087-15.342 2.92-24.386l-3.818-1.196c-2.952 9.425-4.06 17.848-3.073 26.06.988 8.216 4.056 16.08 9.253 24.414l3.394-2.117zM13.924 93.81c1.402-4.473 3.106-8.193 4.823-11.606 1.69-3.357 3.489-6.596 4.905-9.819 2.937-6.68 4.435-13.709 1.797-24.43l-3.884.956c2.403 9.77 1.048 15.896-1.575 21.865-1.363 3.102-3.02 6.062-4.816 9.63-1.767 3.513-3.575 7.447-5.067 12.208l3.818 1.196zm9.132-43.428c2.35.543 6.797 3.087 11.194 8.203 4.339 5.049 8.505 12.47 10.417 22.524l3.93-.747c-2.048-10.765-6.534-18.822-11.313-24.384-4.721-5.493-9.857-8.691-13.326-9.494l-.902 3.898zm25.912 60.624c-1.967-3.388-4.703-13.906-.406-29.747l-3.86-1.047c-4.492 16.559-1.84 28.243.807 32.802l3.46-2.008zm-.406-29.747a82.813 82.813 0 013.285-9.636l-3.703-1.513a86.813 86.813 0 00-3.442 10.102l3.86 1.047zm3.152-9.37c7.563-12.72 11.675-23.953 12.401-26.845l-3.88-.974c-.61 2.428-4.542 13.3-11.959 25.774l3.438 2.044zm12.401-26.845c.272-1.082 2.502-6.504 1.692-13.922-.82-7.514-4.69-16.95-16.018-26.69L47.18 7.465c10.641 9.15 13.95 17.688 14.65 24.09.71 6.499-1.199 10.935-1.596 12.515l3.88.974zM49.852 4.489c-5.092-4.766-7.8-8.206-9.227-11.639-1.416-3.405-1.664-7.022-1.359-12.383l-3.993-.228c-.316 5.535-.111 9.89 1.659 14.147C38.69-1.385 41.9 2.525 47.118 7.409l2.734-2.92zM39.266-19.533c.32-5.595 2.016-9.81 4.892-13.442 2.921-3.69 7.128-6.866 12.633-10.24l-2.09-3.41c-5.626 3.448-10.316 6.92-13.68 11.167-3.408 4.305-5.384 9.316-5.748 15.697l3.993.228zM53.76-45.155c-.49 4.135-1.019 10.762-.078 17.26.933 6.446 3.38 13.216 9.253 17.038l2.182-3.353c-4.428-2.881-6.603-8.225-7.476-14.257-.866-5.98-.385-12.194.092-16.217l-3.973-.47zm9.175 34.298c5.345 3.48 11.303 5.81 17.378 8.265C86.438-.116 92.786 2.522 99.25 6.641l2.15-3.373C94.596-1.068 87.944-3.822 81.81-6.3c-6.182-2.5-11.74-4.685-16.694-7.91l-2.182 3.353zM99.25 6.64c18.718 11.926 30.775 18.448 41.333 37.173l3.484-1.965C132.932 22.101 119.941 15.08 101.4 3.267L99.25 6.64zm41.333 37.173c7.218 12.802 8.932 21.192 10.966 36.19l3.963-.537c-2.063-15.216-3.868-24.18-11.445-37.618l-3.484 1.965zm10.966 36.19c.99 7.307.723 18.058-1.357 28.566-2.089 10.558-5.94 20.514-11.843 26.538l2.857 2.799c6.715-6.852 10.766-17.728 12.91-28.56 2.154-10.881 2.454-22.08 1.396-29.88l-3.963.538zm-13.2 55.104c-6.293 6.421-11.316 11.234-15.121 14.545-1.904 1.656-3.479 2.915-4.739 3.804-1.304.921-2.127 1.342-2.554 1.472l1.162 3.827c1.073-.326 2.332-1.065 3.699-2.031 1.412-.997 3.098-2.35 5.057-4.054 3.92-3.411 9.027-8.309 15.353-14.764l-2.857-2.799zm-14.273 19.577c2.402-3.614 5.059-9.58 6.755-16.425 1.697-6.853 2.475-14.763.951-22.232l-3.919.799c1.369 6.707.691 13.986-.915 20.471-1.608 6.492-4.104 12.013-6.204 15.173l3.332 2.214zm7.706-38.657c-.567-2.78-1.195-5.936-1.785-8.601a83.998 83.998 0 00-.861-3.588c-.261-.969-.547-1.899-.857-2.525l-3.584 1.776c.114.229.314.805.579 1.79.252.934.528 2.101.818 3.412.58 2.622 1.197 5.724 1.771 8.535l3.919-.799zm-7.179-14.497c-1.404 3.942-4.316 8.742-7.916 12.661l2.945 2.706c3.916-4.262 7.133-9.516 8.739-14.025l-3.768-1.342zm-7.916 12.661c-.917.997-2.334 2.423-4.02 3.273-1.601.807-3.288 1.035-5.115-.048-1.992-1.182-4.482-4.11-6.982-10.58-2.479-6.418-4.866-16.055-6.85-30.244l-3.961.554c2.005 14.338 4.445 24.311 7.08 31.132 2.615 6.769 5.527 10.712 8.672 12.578 3.312 1.964 6.499 1.419 8.957.18 2.374-1.197 4.202-3.092 5.164-4.139l-2.945-2.706zM90.782 75.115c-2.07 1.13-4.29 3.39-6.332 6.184-2.078 2.842-4.1 6.413-5.713 10.367-3.203 7.855-4.917 17.556-1.81 26.183l3.764-1.356c-2.639-7.325-1.263-15.929 1.75-23.316 1.494-3.666 3.36-6.95 5.238-9.517 1.912-2.616 3.715-4.322 5.02-5.035l-1.917-3.51zm-13.855 42.734c1.022 2.835 2.404 6.153 3.552 8.847.57 1.336 1.103 2.569 1.487 3.467.196.459.356.838.475 1.127.059.144.105.259.138.346.038.097.045.124.04.107l3.828-1.162c-.11-.359-.439-1.137-.803-1.989-.403-.942-.908-2.109-1.485-3.464-1.146-2.689-2.489-5.916-3.468-8.635l-3.764 1.356zm7.068 11.387c-3.204.896-10.597 1.832-17.387 2.551a566.352 566.352 0 01-11.548 1.099l-.754.063-.196.016-.05.004-.012.001h-.004l.16 1.994.162 1.993h.005l.013-.001.051-.004.2-.017.763-.064a565.202 565.202 0 0011.631-1.106c6.674-.707 14.445-1.671 18.043-2.677l-1.077-3.852zm-31.684 6.373c1.588 4.662 5.269 12.191 10.84 18.711 5.56 6.507 13.231 12.267 22.807 12.782l.215-3.994c-8.027-.432-14.769-5.287-19.98-11.386-5.201-6.087-8.649-13.155-10.095-17.403l-3.786 1.29zM18.268 37.013c1.319-1.614 3.087-4.327 4.162-7.33 1.055-2.942 1.604-6.634-.26-9.785l-3.443 2.037c.955 1.613.849 3.857-.062 6.4-.89 2.482-2.396 4.803-3.495 6.147l3.098 2.531zm3.902-17.115c-1.575-2.663-3.711-4.707-5.406-6.067a26.793 26.793 0 00-2.17-1.573 20.082 20.082 0 00-.931-.568c-.003 0-.005-.002-.006-.003l-.003-.001a162.19 162.19 0 00-.965 1.751l-.964 1.753-.002-.001.003.002.028.015.131.077c.12.071.302.182.532.331.46.299 1.11.748 1.843 1.336 1.48 1.188 3.224 2.883 4.467 4.985l3.443-2.037zm-9.48-6.46c.901-1.786.902-1.785.902-1.785h.002l.002.002.004.002c.002 0 .003.002.003.002l-.006-.004a4.964 4.964 0 01-.355-.218 5.836 5.836 0 01-.904-.75c-.647-.664-1.071-1.445-.985-2.378l-3.984-.367c-.233 2.536 1.007 4.41 2.104 5.536a9.824 9.824 0 002.06 1.606 6.49 6.49 0 00.22.121l.02.01.008.004.003.002h.002c0 .001.001.001.903-1.784zm-1.337-5.13c.15-1.63.27-2.52.351-2.965L7.77 4.62c-.115.628-.248 1.664-.4 3.322l3.983.367zm-3.145-5.09C6.5 4.465 4.277 6.454 2.763 8.767c-1.483 2.264-2.614 5.389-.93 8.409l3.494-1.948c-.59-1.056-.41-2.45.782-4.27 1.16-1.77 2.977-3.428 4.46-4.513L8.207 3.217zM1.833 17.176c.987 1.772 2.516 3.005 4.01 3.958 1.424.908 3.186 1.77 4.436 2.472 1.387.778 2.395 1.48 3.028 2.272.56.7.882 1.534.728 2.817l3.972.476c.283-2.361-.355-4.265-1.576-5.791-1.146-1.433-2.738-2.445-4.194-3.262-1.593-.894-2.916-1.51-4.244-2.357-1.258-.802-2.147-1.6-2.666-2.533l-3.494 1.948zM14.02 28.954c.029 2.96.498 5.998.736 7.186l3.922-.785c-.204-1.02-.632-3.798-.658-6.44l-4 .039zM11.703 5.343c.022-.12.072-.399.054-.71-.01-.16-.107-1.454-1.437-1.876a2.088 2.088 0 00-1.176-.023 2.336 2.336 0 00-.496.199c-.187.1-.352.22-.44.284l2.361 3.229c.078-.058.05-.03-.03.012-.04.021-.168.088-.354.138-.173.047-.581.13-1.075-.026a1.948 1.948 0 01-1.15-.98 1.848 1.848 0 01-.196-.717c-.013-.207.02-.335.005-.253l3.934.723zm100.412 51.65c1.634.587 4.119 1.804 6.158 3.476 2.088 1.712 3.333 3.583 3.343 5.457l4-.023c-.02-3.661-2.39-6.545-4.807-8.527-2.466-2.023-5.377-3.44-7.338-4.147l-1.356 3.763zm9.501 8.933c.014 2.442-.61 4.792-1.269 6.572a23.05 23.05 0 01-.894 2.094c-.121.246-.22.434-.286.557l-.073.134-.016.027-.002.004v-.001l.001-.001c.001-.001.001-.001 1.728 1.007 1.727 1.008 1.727 1.008 1.728 1.007l.002-.003a.05.05 0 00.003-.006l.01-.018.032-.056a21.21 21.21 0 00.465-.892 27 27 0 001.053-2.464c.754-2.039 1.536-4.89 1.518-7.984l-4 .023zm-.811 10.393a252.393 252.393 0 00-1.692-1.066l-.001.001-.002.003-.005.008-.011.018-.032.053a9.202 9.202 0 00-.377.719 9.81 9.81 0 00-.659 1.882c-.363 1.53-.463 3.775 1.041 5.83l3.228-2.362c-.553-.756-.591-1.644-.377-2.545a5.754 5.754 0 01.545-1.415l.037-.064.004-.006-.003.003-.002.004-.001.002h-.001c0 .001-.001.002-1.692-1.065zm-1.738 7.448c.983 1.344 1.63 2.165 2.051 2.643l3.003-2.642c-.298-.339-.859-1.041-1.826-2.363l-3.228 2.362zm3.514-.361c-1.83-.169-4.241-.657-6.146-1.58-1.958-.947-2.827-2.051-2.865-3.26l-3.998.126c.108 3.456 2.684 5.555 5.12 6.735 2.488 1.205 5.417 1.768 7.523 1.962l.366-3.983zm-9.011-4.84c-.034-1.066.318-2.208.985-3.543.704-1.409 1.522-2.617 2.429-4.203.829-1.45 1.674-3.136 1.921-4.954.262-1.937-.169-3.898-1.626-5.778l-3.162 2.45c.791 1.022.944 1.903.824 2.79-.137 1.006-.64 2.126-1.43 3.507-.711 1.244-1.78 2.89-2.534 4.4-.792 1.586-1.469 3.43-1.405 5.457l3.998-.125zm3.853-18.264c-1.336-2.28-2.397-4.884-2.746-5.863l-3.768 1.343c.407 1.141 1.566 3.988 3.063 6.542l3.451-2.022zm3.695 26.108c.056.063-.039-.03-.134-.213a1.829 1.829 0 01-.201-.717 1.944 1.944 0 011.391-2.006c.186-.053.329-.061.375-.063.09-.005.129.003.032-.005l-.366 3.983c.109.01.312.027.525.017.107-.005.301-.02.527-.084.212-.06.635-.215.997-.624.924-1.046.342-2.205.268-2.348a2.961 2.961 0 00-.411-.582l-3.003 2.642z" fill="#7831B2"/></svg>