<svg width="117" height="69" fill="none" xmlns="http://www.w3.org/2000/svg"><path d="M5.317 34.617c-.407.156-.718.16-.931.01-.202-.168-.302-.4-.302-.695a1.56 1.56 0 01.245-.89c.186-.271.61-.537 1.273-.8a60.03 60.03 0 013.054-1.193A63.719 63.719 0 0111.84 30a35.91 35.91 0 012.991-.812c.422-.093.774-.057 1.057.11a.722.722 0 01.43.716.977.977 0 01-.199.659c-.144.163-.394.292-.75.387a49.872 49.872 0 00-3.332.936c-.948.309-1.808.606-2.58.892-.772.286-1.494.578-2.166.874-.66.278-1.317.563-1.974.856zm5.013 4.198c-.25.055-.471-.018-.664-.222-.177-.206-.29-.607-.34-1.202-.087-.98-.134-1.97-.143-2.968.004-1.017.02-2.012.05-2.986.027-.989.05-1.92.07-2.793a36.62 36.62 0 00.026-2.317 1.355 1.355 0 01.144-.794.91.91 0 01.63-.484.932.932 0 01.919.264c.265.236.401.664.408 1.286.019.75.02 1.601.002 2.556-.002.951-.023 1.93-.061 2.939-.027.99-.054 1.938-.082 2.845a68.94 68.94 0 00.002 2.335c.01.49-.089.856-.297 1.099-.209.242-.43.39-.664.442zm12.935-1.444c-.734.163-1.292.123-1.674-.12-.363-.231-.547-.657-.554-1.279a1.591 1.591 0 01.552-1.278c1.627-1.459 2.991-2.77 4.094-3.932 1.099-1.178 1.977-2.241 2.635-3.19.655-.965 1.124-1.84 1.41-2.624.28-.8.415-1.526.401-2.178-.012-.866-.25-1.494-.713-1.883-.466-.404-1.176-.5-2.129-.29-.796.177-1.486.429-2.07.755-.567.322-1.066.662-1.494 1.02-.413.354-.763.66-1.05.92-.286.261-.53.414-.734.459-.297.066-.544.022-.742-.13a.932.932 0 01-.296-.672c.005-.198.045-.387.12-.568.074-.18.225-.386.453-.617a12.614 12.614 0 012.622-2.032 10.28 10.28 0 013.067-1.246c1.203-.267 2.165-.25 2.887.048a2.84 2.84 0 011.608 1.487c.354.708.54 1.544.556 2.507.016.734-.107 1.548-.368 2.442-.245.89-.7 1.868-1.365 2.933-.665 1.065-1.599 2.248-2.802 3.547-1.19 1.28-2.712 2.7-4.562 4.258l-.437-.641c.227.064.454.088.68.07.24-.02.486-.058.736-.114a21.369 21.369 0 002.012-.57c.764-.25 1.598-.518 2.502-.8.92-.286 1.88-.54 2.88-.762.765-.17 1.279-.144 1.54.076.275.202.414.458.417.768a.952.952 0 01-.282.726c-.187.19-.5.333-.937.43a61.082 61.082 0 00-5.43 1.45c-.69.219-1.318.416-1.885.59-.568.176-1.117.322-1.648.44zm26.956-.056c-.953.211-1.778.296-2.476.254-.694-.026-1.224-.163-1.59-.409-.366-.247-.55-.558-.552-.935-.008-.26.048-.486.17-.677.14-.178.359-.3.656-.366.187-.042.368-.041.541.002.174.044.373.09.596.139.228.064.53.095.906.094.392-.006.893-.076 1.502-.21.75-.167 1.339-.47 1.766-.909.427-.439.723-.988.888-1.647.18-.663.262-1.402.245-2.218a10.398 10.398 0 00-.109-1.377c-.05-.448-.107-.927-.17-1.437-.065-.51-.13-1.102-.198-1.776a34.69 34.69 0 01-.15-2.45l.877.52c-.261 1.188-.565 2.181-.912 2.98-.351.782-.72 1.413-1.105 1.892-.389.463-.778.812-1.169 1.046a3.874 3.874 0 01-1.06.431c-1.358.302-2.428-.05-3.209-1.058-.784-1.022-1.203-2.838-1.258-5.448-.03-1.092-.001-1.926.084-2.502.101-.58.248-.99.44-1.229.193-.239.415-.386.665-.442.234-.052.435-.03.603.063.165.078.277.25.336.515.075.262.1.634.075 1.115a33.611 33.611 0 00.028 2.894c.046.875.148 1.63.306 2.268.158.637.37 1.114.637 1.432.264.302.607.406 1.029.313.656-.146 1.222-.624 1.697-1.434.473-.826.854-1.878 1.144-3.155.303-1.296.52-2.72.65-4.274.043-.469.12-.789.23-.96.105-.188.307-.315.603-.38a.922.922 0 01.633.08c.218.1.383.325.494.677.123.334.157.818.101 1.453-.057.849-.08 1.6-.066 2.252.03.649.085 1.267.166 1.856.078.573.167 1.16.268 1.76.113.581.208 1.232.286 1.952.074.705.126 1.53.155 2.473.03 1.092-.074 2.032-.308 2.822-.231.805-.558 1.476-.98 2.012a4.696 4.696 0 01-1.536 1.275 7.06 7.06 0 01-1.93.723zm13.575-9.305c-.75.166-1.428.21-2.035.132-.608-.079-1.096-.249-1.466-.511-.37-.262-.563-.58-.58-.953.005-.198.055-.38.149-.55a.642.642 0 01.445-.32.799.799 0 01.448.024c.142.05.311.111.507.183.196.07.469.117.817.138.346.005.8-.054 1.362-.18.875-.193 1.585-.572 2.132-1.136.56-.583.816-1.418.772-2.507-.007-.768-.146-1.434-.419-1.996a3.64 3.64 0 00-1.074-1.41 3.478 3.478 0 00-1.611-.723c-.615-.11-1.281-.085-2 .075-.359.08-.717.2-1.075.361a5.034 5.034 0 01-.958.335.972.972 0 01-.495-.013.688.688 0 01-.364-.312.979.979 0 01-.127-.464c0-.442.21-.825.63-1.147.432-.342 1.14-.622 2.124-.84 1.047-.233 2.016-.26 2.908-.08.908.175 1.7.532 2.377 1.07.673.523 1.204 1.217 1.592 2.08.4.846.613 1.84.637 2.982a5.622 5.622 0 01-.324 2.087 5.433 5.433 0 01-.948 1.71 5.89 5.89 0 01-1.495 1.242 7.067 7.067 0 01-1.929.723zm-4.175 7.22a.887.887 0 01-.523-.032.622.622 0 01-.341-.318 1.361 1.361 0 01-.135-.609 2.034 2.034 0 01.112-.713c.068-.212.14-.474.219-.786.081-.297.154-.674.216-1.13.063-.456.088-1.044.076-1.762a16.424 16.424 0 00-.262-2.622c-.143-.87-.31-1.734-.501-2.593a138.14 138.14 0 01-.512-2.64 18.226 18.226 0 01-.293-2.761c.003-.28.033-.516.088-.709a.933.933 0 01.269-.452c.135-.129.304-.216.507-.26a.805.805 0 01.667.122c.206.118.372.31.497.578.121.252.18.55.174.896.02.978.1 1.895.241 2.749.153.835.317 1.65.494 2.447.192.793.361 1.591.507 2.395.145.803.225 1.646.24 2.528.03.796.013 1.53-.052 2.2a8.762 8.762 0 01-.326 1.743c-.137.49-.32.883-.55 1.18a1.345 1.345 0 01-.812.548zm17.72-10.053c-1.281.284-2.398.237-3.35-.142a4.435 4.435 0 01-2.192-1.898c-.511-.903-.787-1.997-.826-3.283-.023-.913.104-1.744.38-2.494a7.948 7.948 0 011.079-2.01c.446-.574.918-1.03 1.417-1.37.494-.356.937-.578 1.327-.664.172-.038.318-.046.438-.023a.538.538 0 01.333.171c.099.077.152.204.159.383-.01.33-.07.647-.183.95-.116.288-.386.586-.81.893-.503.39-.914.793-1.232 1.207a4 4 0 00-.67 1.304c-.143.458-.198.987-.164 1.586.031 1.32.405 2.303 1.121 2.947.713.628 1.632.818 2.757.568 1.093-.242 1.96-.844 2.599-1.805.65-.98.956-2.155.914-3.522-.017-1.259-.303-2.178-.858-2.76-.558-.597-1.306-.792-2.243-.584-.485.108-.878.293-1.18.557-.286.26-.59.59-.911.989-.23.297-.41.558-.54.783a4.04 4.04 0 01-.37.55.82.82 0 01-.46.249c-.219.049-.406.016-.562-.096-.144-.132-.221-.37-.232-.711-.017-.373.081-.78.295-1.221.229-.444.528-.871.896-1.28a6.06 6.06 0 011.28-1.096 4.232 4.232 0 011.456-.642c1.125-.25 2.098-.187 2.918.188.818.36 1.453.972 1.908 1.838.45.851.683 1.898.696 3.14.042 1.22-.151 2.345-.579 3.374a6.814 6.814 0 01-1.844 2.547 6.176 6.176 0 01-2.767 1.377zm17.648-3.94c-.469.104-1.015.077-1.64-.08a8.732 8.732 0 01-1.923-.802 15.685 15.685 0 01-1.82-1.218 9.185 9.185 0 01-1.379-1.342 2.343 2.343 0 01-.455-.612 2.973 2.973 0 01-.164-.627 4.6 4.6 0 01.094-.463c.043-.174.114-.337.21-.49.133-.291.379-.698.738-1.22.36-.522.782-1.091 1.268-1.707a22.754 22.754 0 011.568-1.799 16.355 16.355 0 011.612-1.488c.531-.413 1.008-.666 1.43-.76.171-.038.313-.028.424.029a.66.66 0 01.302.253.798.798 0 01.13.364c.06.347-.094.726-.462 1.135a12.8 12.8 0 01-1.213 1.179c-.78.697-1.46 1.364-2.039 2-.58.638-1.04 1.19-1.378 1.659-.323.465-.475.777-.456.937.004.163.166.414.487.752.318.323.772.673 1.364 1.05.588.36 1.255.672 2.001.932.339.122.667.237.987.347.331.09.602.202.812.336.222.114.348.275.377.482.023.175.003.343-.06.505a.946.946 0 01-.326.416c-.138.113-.301.19-.489.232zm-7.808 1.707c-.406.09-.724-.052-.955-.427-.234-.39-.406-.983-.517-1.778a32.44 32.44 0 01-.194-2.98 40.02 40.02 0 010-1.55l.079-1.64c.023-.562.025-1.104.008-1.624a3.24 3.24 0 00-.013-.39 4.06 4.06 0 00-.023-.438 2.868 2.868 0 01.086-.83 1.49 1.49 0 01.271-.552c.129-.16.271-.257.427-.292.36-.08.677.022.953.305.288.264.434.699.437 1.305a17.3 17.3 0 01-.053 1.535 162.08 162.08 0 01-.107 1.844c-.04.631-.057 1.184-.05 1.658.04.843.091 1.594.155 2.252.08.654.159 1.194.236 1.619.075.41.106.698.094.864a1.1 1.1 0 01-.102.539.901.901 0 01-.289.359.89.89 0 01-.442.221zm13.926-3.09c-.719.16-1.343.118-1.872-.125-.514-.247-.924-.655-1.23-1.226-.292-.575-.448-1.278-.469-2.11a8.755 8.755 0 01.274-2.42 11.8 11.8 0 01.951-2.473c.41-.812.894-1.55 1.451-2.215a9.075 9.075 0 011.88-1.72 6.466 6.466 0 012.198-.954c.359-.08.661-.049.905.094.245.142.37.41.375.802a.91.91 0 01-.149.549c-.112.156-.298.28-.557.37a7.473 7.473 0 00-2.786 1.847 9.13 9.13 0 00-1.815 2.787c-.415 1.01-.617 2.022-.605 3.035.007.474.052.898.135 1.273.08.36.262.81.546 1.354l-1.249-1.42c.36.298.663.477.906.537.258.058.598.04 1.02-.054 1-.222 1.873-1.087 2.62-2.597.747-1.51 1.285-3.588 1.616-6.234.043-.321.142-.58.294-.778.165-.217.381-.355.646-.414a.923.923 0 01.924.287c.269.251.44.615.513 1.09.155.998.322 1.896.498 2.693.189.777.438 1.492.747 2.145.324.649.779 1.294 1.363 1.934a.904.904 0 01.237.513c.045.203.034.41-.034.622a1.31 1.31 0 01-.294.557.982.982 0 01-.526.29c-.235.051-.432.046-.594-.017a1.24 1.24 0 01-.416-.325 10.97 10.97 0 01-.872-1.159 9.48 9.48 0 01-.765-1.453c-.225-.572-.418-1.259-.58-2.06a27.49 27.49 0 01-.394-2.886l.838-.21c-.169 1.676-.446 3.122-.832 4.338-.389 1.201-.854 2.206-1.396 3.014-.53.79-1.097 1.408-1.703 1.853-.606.446-1.206.735-1.799.867zM18.114 60.828c-.468.104-1.015.078-1.64-.078a8.733 8.733 0 01-1.923-.803 15.668 15.668 0 01-1.82-1.219 9.191 9.191 0 01-1.379-1.34 2.345 2.345 0 01-.455-.613 2.96 2.96 0 01-.164-.627c.02-.135.05-.29.094-.463.044-.174.114-.337.211-.49.132-.291.378-.698.737-1.22.36-.523.783-1.092 1.269-1.708a22.776 22.776 0 011.567-1.798 16.355 16.355 0 011.612-1.488c.532-.413 1.008-.666 1.43-.76.172-.038.313-.029.424.029a.661.661 0 01.302.252.798.798 0 01.13.365c.06.347-.093.725-.461 1.135-.368.41-.773.802-1.214 1.179a28.129 28.129 0 00-2.039 2c-.58.637-1.039 1.19-1.377 1.658-.323.465-.475.778-.456.937.003.164.165.414.486.753.318.323.772.673 1.364 1.05a10.31 10.31 0 002.002.932c.338.122.667.237.986.347.331.09.602.202.812.336.222.114.348.275.378.481.022.176.002.344-.06.505a.946.946 0 01-.326.417c-.139.113-.302.19-.49.231zm-7.807 1.708c-.406.09-.725-.052-.955-.427-.234-.39-.407-.984-.518-1.778a32.44 32.44 0 01-.194-2.981c-.01-.49-.01-1.006 0-1.549l.08-1.64c.022-.562.025-1.104.008-1.624a3.358 3.358 0 00-.013-.39c0-.148-.008-.294-.024-.438a2.866 2.866 0 01.087-.83c.064-.228.154-.412.27-.552.129-.16.271-.257.428-.292.359-.08.676.022.952.305.288.264.434.699.437 1.305.009.407-.009.92-.053 1.535a170.18 170.18 0 01-.107 1.843c-.04.632-.057 1.185-.05 1.659.04.843.092 1.594.156 2.251.08.655.158 1.194.236 1.62.074.41.105.697.093.864a1.1 1.1 0 01-.101.539.9.9 0 01-.29.359.89.89 0 01-.442.221zm13.925-3.09c-.718.16-1.342.118-1.872-.125-.513-.247-.924-.656-1.23-1.227-.292-.574-.448-1.277-.468-2.108a8.759 8.759 0 01.274-2.421c.22-.852.538-1.676.95-2.473.41-.812.894-1.55 1.451-2.215a9.064 9.064 0 011.88-1.72 6.464 6.464 0 012.198-.954c.36-.08.661-.049.906.094.244.142.37.41.374.801a.911.911 0 01-.148.55c-.113.156-.299.28-.557.37a7.465 7.465 0 00-2.786 1.846 9.137 9.137 0 00-1.816 2.788c-.415 1.01-.617 2.021-.605 3.035.007.474.052.898.135 1.273.08.36.262.81.547 1.354l-1.25-1.42c.361.297.663.476.906.537.259.058.599.04 1.02-.054 1-.222 1.874-1.088 2.62-2.597.747-1.51 1.286-3.588 1.616-6.234.044-.321.142-.58.295-.778.165-.217.38-.355.645-.414.36-.08.668.016.924.286.27.252.44.616.513 1.091.156.998.322 1.896.499 2.692.189.778.438 1.493.746 2.146.325.649.779 1.294 1.364 1.934a.91.91 0 01.236.513c.045.203.034.41-.034.622a1.31 1.31 0 01-.294.557.98.98 0 01-.526.289c-.234.052-.432.047-.593-.016a1.242 1.242 0 01-.417-.325 11.04 11.04 0 01-.872-1.16 9.418 9.418 0 01-.764-1.452c-.226-.573-.42-1.26-.58-2.06a27.45 27.45 0 01-.395-2.886l.838-.21c-.168 1.675-.446 3.122-.831 4.338-.39 1.201-.855 2.206-1.397 3.014-.53.79-1.097 1.407-1.703 1.853-.606.446-1.205.735-1.799.867zm26.088-5.861c-.422.093-.953-.01-1.593-.31a17.992 17.992 0 01-2.14-1.222 17.306 17.306 0 01-2.066-1.558 33.052 33.052 0 01-1.38-1.34 2.844 2.844 0 01-.14-.19.592.592 0 01-.039-.287.413.413 0 01.037-.279 1.69 1.69 0 01.182-.286c.457-.38.945-.84 1.464-1.382a41.987 41.987 0 001.518-1.689c.48-.565.902-1.068 1.263-1.51.446-.573.846-1.096 1.2-1.568.355-.472.649-.734.883-.786.188-.042.347-.028.477.041a.74.74 0 01.354.266c.09.111.143.239.158.383.04.253-.058.587-.294 1-.22.409-.522.86-.904 1.355a26.181 26.181 0 01-2.083 2.355c-.32.334-.627.648-.922.942-.28.292-.511.54-.695.745-.188.189-.278.3-.271.33.014.063.134.2.361.412.224.196.54.437.948.724.42.267.892.548 1.416.841.58.33 1.094.61 1.538.839.456.21.818.4 1.085.57.264.155.407.32.43.495.036.238-.011.47-.141.695-.134.21-.35.348-.646.414zm-14.803 3.308a.52.52 0 01-.406-.057.653.653 0 01-.307-.276.824.824 0 01-.164-.406c-.05-.3.091-.733.425-1.299.333-.566.785-1.19 1.354-1.874a27.932 27.932 0 011.901-2.069 38.9 38.9 0 011.076-1.025c.302-.264.55-.474.744-.632.195-.158.341-.273.44-.344l.555.836c-.151-.016-.492-.112-1.023-.29-.535-.192-1.224-.53-2.07-1.015a9.182 9.182 0 01-1.324-.985 8.317 8.317 0 01-1.093-1.158c-.285-.396-.45-.736-.497-1.021a1.228 1.228 0 01.024-.448.905.905 0 01.231-.395.971.971 0 01.443-.221c.25-.056.53.062.84.354.311.291.68.66 1.107 1.107a9.6 9.6 0 001.538 1.28c.652.43 1.224.754 1.715.972a8.93 8.93 0 001.234.464l-.042 1.362a22.8 22.8 0 00-1.383 1.191c-.45.412-.917.892-1.401 1.442a32.662 32.662 0 00-1.787 2.142c-.491.666-.917 1.22-1.278 1.66-.35.422-.633.657-.852.706zm7.383-1.515a.698.698 0 01-.682-.193 2.243 2.243 0 01-.416-.768 4.28 4.28 0 01-.148-1 24.19 24.19 0 01.019-2.02c.047-.747.057-1.626.03-2.636a36.817 36.817 0 01.021-2.12c.044-.763.113-1.524.206-2.282.028-.318.13-.668.308-1.052.174-.399.432-.636.776-.713.281-.062.507-.006.677.17.17.175.268.432.294.77-.004.28-.044.69-.12 1.232-.065.522-.14 1.145-.225 1.869-.07.72-.097 1.52-.082 2.402.007.179.019.488.034.927.028.42.048.883.062 1.387.03.502.053.98.072 1.435.035.451.055.8.06 1.044-.002.36-.067.695-.196 1.002a.936.936 0 01-.69.546zm10.755-3.836c.1-.514.241-1.094.425-1.742.181-.663.38-1.354.597-2.074.233-.724.47-1.432.709-2.124.252-.712.494-1.355.727-1.931.31-.741.63-1.443.959-2.106.328-.663.657-1.211.987-1.645.342-.453.661-.712.958-.778.312-.07.615.003.908.216.31.21.625.6.948 1.167.221.41.477.935.767 1.575.29.64.585 1.345.887 2.114.298.754.575 1.52.83 2.3.254.778.464 1.502.629 2.17l-2.02.645a29.253 29.253 0 00-.705-2.4 33.009 33.009 0 00-.9-2.505 27.682 27.682 0 00-.923-2.056c-.295-.59-.553-.976-.773-1.156l.872-.39a27.932 27.932 0 00-1.177 2.227c-.388.84-.732 1.728-1.032 2.663a151.04 151.04 0 00-.623 1.957 42.928 42.928 0 00-.513 1.786 74.196 74.196 0 00-.407 1.713l-2.13.374zm11.139 2.224c-.313.07-.58.014-.8-.167a.838.838 0 01-.325-.69c-.01-.194.03-.498.118-.91.092-.398.18-.852.263-1.362.084-.51.117-1.026.1-1.547l1.108 1.008c-.225.018-.576.063-1.051.135-.46.07-1.042.182-1.745.338-.656.146-1.334.304-2.033.476-.687.152-1.373.313-2.057.48a40.95 40.95 0 00-1.947.531c-.633.173-1.242.35-1.825.528a29.89 29.89 0 00-1.57.57l.732-1.023c.014.21.038.467.073.77.034.304.077.606.127.906.053.316.098.593.135.83.052.235.088.399.11.493.042.269-.006.492-.147.671a.96.96 0 01-.604.38c-.375.083-.666-.008-.872-.274-.206-.265-.355-.601-.445-1.007a7.178 7.178 0 01-.19-.966 7.632 7.632 0 01-.085-.94c.007-.264.052-.503.136-.718a1.44 1.44 0 01.377-.625c.188-.189.446-.353.776-.492.377-.149.888-.32 1.534-.512a42.24 42.24 0 012.218-.64 70.397 70.397 0 012.58-.67 74.717 74.717 0 012.543-.614l.844-.187c.312-.07.634-.132.965-.19a8.91 8.91 0 01.959-.114c.463-.053.799.02 1.007.22.224.195.344.554.361 1.075a9.09 9.09 0 01-.076 1.32 7.372 7.372 0 01-.292 1.342 3.879 3.879 0 01-.448 1.083c-.166.283-.351.447-.554.492zm8.549-5.166c-1.281.284-2.398.237-3.35-.142a4.436 4.436 0 01-2.192-1.898c-.512-.903-.787-1.997-.827-3.283-.022-.913.105-1.744.381-2.494a7.947 7.947 0 011.079-2.01c.446-.574.918-1.03 1.416-1.37.495-.356.938-.577 1.328-.664.172-.038.318-.046.437-.023a.535.535 0 01.334.172c.099.076.151.203.158.382-.008.33-.07.647-.182.95-.117.288-.387.586-.81.893a6.74 6.74 0 00-1.232 1.207 3.98 3.98 0 00-.67 1.304c-.143.459-.198.987-.164 1.586.03 1.32.405 2.303 1.121 2.947.713.628 1.632.818 2.757.568 1.093-.242 1.96-.844 2.598-1.805.651-.98.956-2.155.915-3.522-.017-1.258-.303-2.178-.858-2.76-.559-.597-1.306-.792-2.244-.584-.484.108-.877.293-1.18.557-.286.26-.59.59-.91.989-.23.297-.41.558-.54.783-.13.226-.253.409-.37.55a.83.83 0 01-.46.25c-.22.048-.406.015-.563-.097-.144-.132-.22-.37-.231-.711-.017-.373.08-.78.294-1.221a6.11 6.11 0 01.896-1.28c.38-.429.808-.794 1.282-1.096.47-.317.955-.532 1.455-.642 1.125-.25 2.097-.187 2.918.188.817.36 1.453.972 1.907 1.838.451.851.684 1.898.697 3.14.041 1.22-.152 2.345-.579 3.374a6.816 6.816 0 01-1.844 2.547 6.177 6.177 0 01-2.767 1.377zm9.588-2.152c-.375.083-.704-.074-.989-.47-.284-.395-.438-1.05-.46-1.962-.015-.44-.009-1.113.019-2.02.025-.923.153-1.935.384-3.035.267-1.305.536-2.348.805-3.13.266-.796.567-1.395.904-1.798.337-.402.716-.65 1.138-.744.328-.072.607.005.838.232.246.224.45.515.612.872.16.358.306.72.436 1.084.174.486.375 1.023.604 1.611.244.585.498 1.176.762 1.773.28.594.567 1.153.864 1.677.312.52.629.95.95 1.289l-.802.374c.255-.99.542-1.988.86-2.993.318-1.005.644-1.97.98-2.897.335-.927.658-1.76.969-2.501.35-.783.666-1.353.948-1.71.297-.361.586-.573.867-.635.203-.045.4-.04.593.016.19.04.359.1.508.182.21.134.39.315.538.544.15.23.248.6.297 1.115.109 1.155.24 2.192.395 3.108.166.897.324 1.649.475 2.254.255 1.075.524 1.916.806 2.526.299.605.445 1.007.44 1.205a.722.722 0 01-.22.565.99.99 0 01-.585.351c-.375.083-.727-.027-1.057-.33-.314-.308-.57-.76-.767-1.355a30.414 30.414 0 01-.614-2.1 38.74 38.74 0 01-.569-2.898 44.475 44.475 0 01-.363-3.41l.643-.315c-.254.63-.537 1.348-.85 2.155-.3.788-.61 1.61-.927 2.467-.302.854-.59 1.697-.865 2.528-.259.828-.48 1.606-.662 2.335a2.31 2.31 0 01-.453.838c-.18.22-.42.363-.716.429-.375.083-.707.067-.995-.05a2.523 2.523 0 01-.775-.614 8.828 8.828 0 01-.661-.985 30.421 30.421 0 01-1.09-2.143 33.25 33.25 0 01-.658-1.525 33.486 33.486 0 01-.604-1.612 14.642 14.642 0 01-.442-1.549l.662-.343a26.877 26.877 0 00-.907 2.561 17.77 17.77 0 00-.503 2.496 20.908 20.908 0 00-.129 2.635c.01.637.035 1.188.073 1.655.053.464.082.818.088 1.063-.004.279-.063.53-.178.752-.114.222-.32.366-.617.432zm22.394 1.177c-.953.212-1.779.296-2.476.255-.694-.027-1.224-.163-1.591-.41-.366-.246-.55-.558-.551-.934a1.16 1.16 0 01.169-.677c.141-.179.36-.301.656-.367.188-.042.368-.04.542.003.173.043.372.09.596.138.227.064.529.096.906.094.392-.005.893-.075 1.502-.21.75-.167 1.338-.47 1.765-.908.427-.44.723-.988.888-1.648.181-.663.263-1.402.246-2.218a10.413 10.413 0 00-.109-1.377c-.05-.448-.107-.927-.171-1.437-.064-.51-.13-1.102-.198-1.775a35.328 35.328 0 01-.15-2.45l.877.519c-.26 1.188-.564 2.182-.912 2.98-.351.782-.719 1.413-1.104 1.892-.389.463-.779.812-1.169 1.046a3.884 3.884 0 01-1.06.432c-1.359.301-2.429-.051-3.209-1.058-.784-1.023-1.204-2.839-1.258-5.449-.03-1.092-.001-1.925.084-2.502.1-.58.247-.989.44-1.228.193-.24.414-.387.664-.443.234-.051.436-.03.604.063.165.078.277.25.336.516.074.262.099.633.075 1.114a33.466 33.466 0 00.027 2.895c.047.874.149 1.63.307 2.267s.37 1.114.637 1.432c.264.302.607.406 1.028.313.656-.146 1.222-.624 1.698-1.434.472-.826.854-1.877 1.144-3.155.302-1.296.519-2.72.65-4.274.043-.468.12-.789.229-.96.106-.188.307-.314.604-.38a.923.923 0 01.633.08c.218.1.383.326.494.678.123.333.157.817.101 1.452-.058.849-.08 1.6-.066 2.252.029.65.085 1.268.166 1.856.078.573.167 1.16.268 1.76.112.582.207 1.232.285 1.953.075.704.126 1.529.156 2.473.029 1.091-.074 2.032-.309 2.821-.231.806-.557 1.476-.979 2.012a4.7 4.7 0 01-1.536 1.275 7.087 7.087 0 01-1.929.723z" fill="#7831B2"/></svg>