<svg width="324" height="352" fill="none" xmlns="http://www.w3.org/2000/svg"><path d="M142.305 322.607a2 2 0 002.628-3.015l-2.628 3.015zM53.861 5.465l-1.276-1.54-.018.015-.017.015 1.31 1.51zm128.598 95.282l.679-1.881-.679 1.881zM286.06 70.578l1.978.297.038-.254-.027-.255-1.989.212zm18.324-10.919l1.225-1.58-1.225 1.58zm48.613 37.13l-1.981-.275 1.981.276zm-33.351 22.299l-1.409 1.42.699.693.975-.13-.265-1.983zM141.453 322.445a2 2 0 002.424-3.182l-2.424 3.182zM51.176 8.46l-1.275-1.54-.018.015-.018.015 1.311 1.51zm128.599 95.282l.679-1.881-.679 1.881zm109.811-34.356l1.978.297.038-.253-.027-.256-1.989.212zm18.324-10.919l1.225-1.58-1.225 1.58zm48.613 37.13l-1.98-.275 1.98.276zm-33.35 22.299l-1.409 1.42.698.693.975-.13-.264-1.983zm-178.24 201.696c-41.179-35.906-94.039-87.956-121.334-144.177-13.635-28.083-20.822-57.07-17.11-85.532 3.705-28.416 18.305-56.545 48.683-82.907L52.55 3.955C21.545 30.862 6.372 59.84 2.522 89.365-1.322 118.847 6.151 148.637 20 177.163c27.673 56.998 81.074 109.494 122.305 145.445l2.628-3.015zM55.136 7.006c30.043-24.878 62.826-24.408 88.767-10.307 26.052 14.162 45.186 42.07 47.605 72.03l3.987-.323c-2.533-31.377-22.508-60.45-49.682-75.221-27.285-14.832-61.847-15.245-93.228 10.74l2.551 3.08zm136.578 62.46c7.201 14.31 6.114 22.16 3.264 26.017-2.901 3.924-8.299 4.661-11.84 3.383l-1.358 3.762c4.804 1.734 12.23.894 16.414-4.768 4.237-5.73 4.498-15.475-2.906-30.192l-3.574 1.798zm-8.576 29.4c-2.13-.769-3.524-1.757-4.414-2.806-.88-1.039-1.353-2.235-1.495-3.58-.295-2.78.829-6.217 2.91-9.718 2.051-3.452 4.873-6.694 7.546-9 1.337-1.152 2.589-2.03 3.64-2.582 1.132-.594 1.736-.655 1.899-.632l.554-3.961c-1.447-.203-2.992.358-4.312 1.052-1.4.735-2.905 1.81-4.393 3.095-2.979 2.569-6.087 6.139-8.373 9.985-2.257 3.797-3.877 8.143-3.449 12.183.219 2.065.974 4.037 2.422 5.745 1.438 1.695 3.474 3.031 6.107 3.981l1.358-3.762zm11.718-28.828c48.747-44.89 111.022-51.903 150.367-27.84 19.63 12.006 33.693 31.805 37.648 58.8 3.963 27.042-2.204 61.448-23.38 102.547l3.556 1.832c21.428-41.588 27.901-76.848 23.782-104.959-4.126-28.16-18.867-49.001-39.519-61.632-41.223-25.212-105.435-17.485-155.164 28.31l2.71 2.942zm164.635 133.507c-42.378 82.25-95.284 117.747-137.435 132.752-21.101 7.511-39.556 9.904-52.717 10.422-6.581.259-11.835.049-15.432-.223a83.177 83.177 0 01-4.109-.405 46.93 46.93 0 01-1.297-.181l-.059-.01-.013-.002h-.001l-.337 1.971c-.339 1.971-.337 1.972-.335 1.972l.007.001.023.004.081.013c.069.011.168.027.298.046.26.039.639.093 1.134.155a88.09 88.09 0 004.306.424c3.734.283 9.143.498 15.891.232 13.495-.531 32.359-2.982 53.902-10.651 43.136-15.356 96.819-51.563 139.649-134.688l-3.556-1.832zM288.049 70.366c-.23-2.156-.262-4.634.055-6.918.324-2.324.979-4.227 1.945-5.44.866-1.085 2.041-1.715 3.932-1.492 2.061.244 5.045 1.523 9.178 4.725l2.45-3.163c-4.363-3.379-8.039-5.165-11.159-5.534-3.289-.389-5.816.823-7.528 2.971-1.612 2.022-2.413 4.747-2.779 7.382-.372 2.675-.328 5.488-.072 7.893l3.978-.424zm15.11-9.125c10.822 8.381 24.006 13.306 33.544 18.12 4.876 2.46 8.757 4.857 11.274 7.617 2.426 2.66 3.581 5.645 3.039 9.536l3.962.551c.723-5.2-.911-9.346-4.045-12.782-3.042-3.335-7.49-6-12.428-8.493-10.092-5.093-22.478-9.642-32.896-17.712l-2.45 3.163zm47.857 35.273c-.877 6.311-5.931 11.116-12.533 14.596-6.543 3.449-14.135 5.333-19.101 5.996l.529 3.965c5.308-.709 13.379-2.702 20.438-6.422 6.999-3.69 13.484-9.348 14.629-17.584l-3.962-.55zm-29.961 21.155c-5.884-5.841-14.611-15.258-21.653-24.5-3.524-4.626-6.584-9.154-8.658-13.134-2.131-4.092-3-7.204-2.706-9.16l-3.956-.594c-.5 3.325.951 7.447 3.115 11.602 2.222 4.267 5.434 9 9.023 13.71 7.185 9.43 16.045 18.986 22.017 24.915l2.818-2.839zM143.877 319.263c-38.829-29.588-92.123-80.829-120.41-137.801C9.331 152.996 1.506 123.233 4.714 94.09 7.916 65.001 22.133 36.313 52.487 9.97l-2.622-3.02C18.837 33.877 4.062 63.454.74 93.653c-3.318 30.145 4.797 60.692 19.145 89.588 28.675 57.752 82.507 109.438 121.569 139.204l2.424-3.182zM52.452 10.001c30.043-24.878 62.825-24.408 88.766-10.307 26.053 14.161 45.187 42.07 47.605 72.03l3.987-.323c-2.533-31.377-22.507-60.45-49.681-75.221-27.285-14.832-61.847-15.245-93.228 10.74L52.45 10zM189.03 72.46c7.2 14.31 6.113 22.16 3.263 26.017-2.901 3.924-8.299 4.661-11.839 3.383l-1.358 3.762c4.804 1.734 12.229.894 16.414-4.768 4.236-5.73 4.498-15.475-2.907-30.192l-3.573 1.798zm-8.576 29.4c-2.131-.769-3.524-1.756-4.414-2.806-.881-1.039-1.353-2.235-1.496-3.58-.294-2.78.829-6.217 2.91-9.718 2.051-3.452 4.873-6.694 7.547-9 1.336-1.152 2.588-2.03 3.64-2.582 1.132-.594 1.736-.655 1.898-.632l.554-3.961c-1.447-.203-2.991.358-4.312 1.052-1.4.735-2.904 1.81-4.393 3.095-2.978 2.569-6.087 6.139-8.373 9.985-2.256 3.797-3.876 8.143-3.448 12.183.218 2.065.974 4.037 2.422 5.744 1.438 1.696 3.474 3.032 6.107 3.982l1.358-3.762zm11.717-28.828C240.933 28.13 302.203 20.9 341.029 44.829c19.378 11.942 33.327 31.713 37.469 58.771 4.149 27.103-1.53 61.639-21.711 102.98l3.595 1.755c20.418-41.828 26.378-77.199 22.07-105.34-4.315-28.186-18.919-48.996-39.324-61.571-40.739-25.106-103.953-17.113-153.666 28.668l2.709 2.943zM356.787 206.58c-40.373 82.704-92.811 117.626-134.987 131.954-21.119 7.174-39.719 9.204-53.025 9.442-6.652.119-11.977-.209-15.627-.566a84.956 84.956 0 01-4.173-.502 45.58 45.58 0 01-1.061-.167l-.26-.046-.06-.011-.012-.002-.002-.001s.001.001-.379 1.964c-.379 1.964-.377 1.964-.375 1.965a.02.02 0 01.007.001l.023.004.082.015a34.326 34.326 0 001.453.236 90.57 90.57 0 004.369.526c3.786.369 9.266.706 16.087.583 13.641-.244 32.662-2.323 54.239-9.653 43.216-14.682 96.469-50.354 137.296-133.987l-3.595-1.755zM291.575 69.174c-.23-2.156-.262-4.634.056-6.918.323-2.324.978-4.227 1.945-5.439.865-1.086 2.04-1.716 3.931-1.492 2.062.243 5.045 1.522 9.178 4.724l2.45-3.163c-4.363-3.379-8.039-5.165-11.158-5.534-3.29-.389-5.816.823-7.529 2.972-1.612 2.021-2.413 4.746-2.779 7.381-.372 2.675-.328 5.488-.072 7.893l3.978-.424zm15.11-9.125c10.822 8.381 24.006 13.306 33.544 18.12 4.876 2.46 8.757 4.857 11.275 7.617 2.425 2.66 3.58 5.645 3.039 9.536l3.961.551c.724-5.2-.911-9.346-4.045-12.782-3.042-3.335-7.49-6-12.428-8.493-10.091-5.093-22.478-9.642-32.896-17.712l-2.45 3.163zm47.858 35.273c-.878 6.311-5.931 11.116-12.533 14.596-6.543 3.449-14.136 5.333-19.102 5.996l.529 3.965c5.308-.709 13.38-2.702 20.438-6.422 6.999-3.69 13.484-9.348 14.629-17.584l-3.961-.55zm-29.962 21.155c-5.884-5.841-14.611-15.258-21.653-24.5-3.523-4.625-6.584-9.154-8.657-13.134-2.132-4.092-3.001-7.204-2.707-9.16l-3.956-.594c-.5 3.325.951 7.447 3.115 11.602 2.223 4.267 5.435 9 9.024 13.71 7.184 9.43 16.044 18.986 22.017 24.915l2.817-2.839z" fill="#7831B2"/></svg>