<svg width="182" height="212" fill="none" xmlns="http://www.w3.org/2000/svg"><path d="M179.781 44.871c-.097-.514-.418-1.093-1.252-1.575-30.366-14.53-60.635-30.25-92.22-42.208-.899-.257-1.477.065-1.67.74l-.577.322c-4.623 4.277-7.064 11.126-5.684 17.364a.505.505 0 00.32.579c-.417.61-.449 1.575.386 2.057 25.935 14.724 53.476 27.229 80.696 39.155-7.867 18.2-20.419 25.565-39.166 29.94-10.401 2.381-19.229 6.916-21.478 18.202-2.312 11.512 5.648 17.685 10.558 26.88 7.799 14.404 6.032 31.672-2.476 45.306-4.013-2.122-8.09-4.018-11.717-5.786-8.634-4.662-17.333-9.098-25.743-13.695-14.38-7.522-28.471-15.206-42.915-22.503 10.37-13.345 24.206-23.508 40.417-28.365 8.764-2.606 21.059-2.253 27.223-10.228 5.683-7.14 2.12-15.95-2.245-22.798-5.552-8.649-11.233-15.143-12.291-25.915-.737-8.488 1.479-17.106 5.364-24.76.674-1.51-1.22-2.54-2.055-1.317-6.42 8.875-8.797 18.907-7.065 29.872.737 5.08 2.502 9.968 5.07 14.598 5.039 8.745 20.445 22.891 3.495 31.189-5.65 2.766-12.68 2.702-18.522 4.439-5.843 1.738-11.589 3.989-16.79 6.884-10.69 5.949-19.583 14.118-26.999 23.926-1.509-.675-2.953-1.575-4.237-2.186-1.508-.675-2.953.129-3.338 1.479-8.38 2.959-13.484 11.481-12.586 20.259-1.252.129-1.83 2.155-.61 2.991 15.278 11.187 33.382 19.288 50.041 28.193 16.05 8.487 32.388 16.813 49.593 22.952 1.573.45 2.504-.257 3.049-1.318 6.71-3.924 11.365-10.87 12.137-18.684.032-.964-.514-1.607-1.188-1.8.482-.836.289-1.865-.481-2.573-.771-.707-1.766-1.478-2.825-2.025 6.389-9.615 9.376-20.934 8.061-32.509-.352-4.727-1.507-9.196-3.401-13.633-2.728-6.624-8.569-11.703-11.008-18.488-8.89-24.21 23.66-22.446 37.24-30.004 10.176-5.854 17.978-15.308 20.74-26.69.225.063.449.128.674.192.449.129.674.193 1.059.546 1.734.74 3.275-1.254 3.05-3.023 4.944-3.698 9.856-8.136 12.585-13.442-.642-1.157-.899-1.96-1.219-2.54zm-68.327 145.765l.224.064c-1.284 6.206-3.949 11.287-8.508 15.339-.16-.29-.385-.354-.834-.482-18.457-7.715-36.433-16.266-54.151-25.717-14.156-7.459-28.44-16.171-43.333-21.892l.064-.225c-.93-7.814 3.629-15.274 11.14-17.751l.579-.322c16.306 9.291 32.965 18.196 49.624 27.101 8.025 4.243 15.825 8.422 23.85 12.666 6.451 3.793 14.154 9.162 21.345 11.219zm53.238-132.065c-27.573-13.244-55.371-26.553-83.618-38.286.29-.16.418-.61.546-1.061.29-5.273 2.088-9.872 5.62-13.73l.063-.226c28.054 15.817 58.26 28.353 87.245 41.758-3.307 3.924-6.325 7.686-9.856 11.545z" fill="#7831B2"/><path d="M105.292 150.894c-3.851-8.649-10.014-10.899-18.616-13.117-9.727-2.539-16.755-11.123-27.124-11.411-8.218-.16-14.221 4.696-16.405 12.349-.128.45.032.739.193 1.029-.353.386-.321 1.125.288 1.543 19.035 9.098 37.877 18.87 55.948 29.64.835.482 1.702 0 2.119-.611.706.932 2.054 1.318 2.953-.129 3.211-6.142 3.661-12.83.644-19.293zm-60.026-11.086c4.816-10.065 17.528-10.324 26.098-5.437 3.338 1.928 5.97 4.629 9.501 5.883 5.264 1.993 10.047 1.413 14.702 4.692 7.928 5.434 10.045 15.048 5.839 23.826l-.064.225-.16-.289c-18.36-10.609-36.753-20.253-55.916-28.9zm78.852-66.796c-8.956-5.24-19.067-9.837-28.696-13.565-.9-.258-1.541.29-1.734.964-.93-.996-3.017.355-2.15 1.576 4.653 6.688 7.99 15.434 15.277 19.71 5.617 3.31 13.899 3.245 19.421-.775 3.788-3.055 1.445-5.916-2.118-7.91zm-2.344 5.66c-5.65 4.47-13.835-.063-17.719-4.339-3.113-3.569-5.585-7.684-8.41-11.414 4.976 2.154 9.727 4.243 14.638 6.622 2.793 1.286 5.746 2.861 8.474 4.372 2.343 1.158 6.805 1.704 3.017 4.759z" fill="#7831B2"/><path d="M179.781 44.871c-.097-.514-.418-1.093-1.252-1.575-30.366-14.53-60.635-30.25-92.22-42.208-.899-.257-1.477.065-1.67.74l-.577.322c-4.623 4.277-7.064 11.126-5.684 17.364a.505.505 0 00.32.579c-.417.61-.449 1.575.386 2.057 25.935 14.724 53.476 27.229 80.696 39.155-7.867 18.2-20.419 25.565-39.166 29.94-10.401 2.381-19.229 6.916-21.478 18.202-2.312 11.512 5.648 17.685 10.558 26.88 7.799 14.404 6.032 31.672-2.476 45.306-4.013-2.122-8.09-4.018-11.717-5.786-8.634-4.662-17.333-9.098-25.743-13.695-14.38-7.522-28.471-15.206-42.915-22.503 10.37-13.345 24.206-23.508 40.417-28.365 8.764-2.606 21.059-2.253 27.223-10.228 5.683-7.14 2.12-15.95-2.245-22.798-5.552-8.649-11.233-15.143-12.291-25.915-.737-8.488 1.479-17.106 5.364-24.76.674-1.51-1.22-2.54-2.055-1.317-6.42 8.875-8.797 18.907-7.065 29.872.737 5.08 2.502 9.968 5.07 14.598 5.039 8.745 20.445 22.891 3.495 31.189-5.65 2.766-12.68 2.702-18.522 4.439-5.843 1.738-11.589 3.989-16.79 6.884-10.69 5.949-19.583 14.118-26.999 23.926-1.509-.675-2.953-1.575-4.237-2.186-1.508-.675-2.953.129-3.338 1.479-8.38 2.959-13.484 11.481-12.586 20.259-1.252.129-1.83 2.155-.61 2.991 15.278 11.187 33.382 19.288 50.041 28.193 16.05 8.487 32.388 16.813 49.593 22.952 1.573.45 2.504-.257 3.049-1.318 6.71-3.924 11.365-10.87 12.137-18.684.032-.964-.514-1.607-1.188-1.8.482-.836.289-1.865-.481-2.573-.771-.707-1.766-1.478-2.825-2.025 6.389-9.615 9.376-20.934 8.061-32.509-.352-4.727-1.507-9.196-3.401-13.633-2.728-6.624-8.569-11.703-11.008-18.488-8.89-24.21 23.66-22.446 37.24-30.004 10.176-5.854 17.978-15.308 20.74-26.69.225.063.449.128.674.192.449.129.674.193 1.059.546 1.734.74 3.275-1.254 3.05-3.023 4.944-3.698 9.856-8.136 12.585-13.442-.642-1.157-.899-1.96-1.219-2.54zm-68.327 145.765l.224.064c-1.284 6.206-3.949 11.287-8.508 15.339-.16-.29-.385-.354-.834-.482-18.457-7.715-36.433-16.266-54.151-25.717-14.156-7.459-28.44-16.171-43.333-21.892l.064-.225c-.93-7.814 3.629-15.274 11.14-17.751l.579-.322c16.306 9.291 32.965 18.196 49.624 27.101 8.025 4.243 15.825 8.422 23.85 12.666 6.451 3.793 14.154 9.162 21.345 11.219zm53.238-132.065c-27.573-13.244-55.371-26.553-83.618-38.286.29-.16.418-.61.546-1.061.29-5.273 2.088-9.872 5.62-13.73l.063-.226c28.054 15.817 58.26 28.353 87.245 41.758-3.307 3.924-6.325 7.686-9.856 11.545z" stroke="#7831B2"/><path d="M105.292 150.894c-3.851-8.649-10.014-10.899-18.616-13.117-9.727-2.539-16.755-11.123-27.124-11.411-8.218-.16-14.221 4.696-16.405 12.349-.128.45.032.739.193 1.029-.353.386-.321 1.125.288 1.543 19.035 9.098 37.877 18.87 55.948 29.64.835.482 1.702 0 2.119-.611.706.932 2.054 1.318 2.953-.129 3.211-6.142 3.661-12.83.644-19.293zm-60.026-11.086c4.816-10.065 17.528-10.324 26.098-5.437 3.338 1.928 5.97 4.629 9.501 5.883 5.264 1.993 10.047 1.413 14.702 4.692 7.928 5.434 10.045 15.048 5.839 23.826l-.064.225-.16-.289c-18.36-10.609-36.753-20.253-55.916-28.9zm78.852-66.796c-8.956-5.24-19.067-9.837-28.696-13.565-.9-.258-1.541.29-1.734.964-.93-.996-3.017.355-2.15 1.576 4.653 6.688 7.99 15.434 15.277 19.71 5.617 3.31 13.899 3.245 19.421-.775 3.788-3.055 1.445-5.916-2.118-7.91zm-2.344 5.66c-5.65 4.47-13.835-.063-17.719-4.339-3.113-3.569-5.585-7.684-8.41-11.414 4.976 2.154 9.727 4.243 14.638 6.622 2.793 1.286 5.746 2.861 8.474 4.372 2.343 1.158 6.805 1.704 3.017 4.759z" stroke="#7831B2"/></svg>