<svg width="217" height="222" fill="none" xmlns="http://www.w3.org/2000/svg"><path d="M203.903 100.347c-13.743-5.832-41.849-21.915-67.902-16.273 27.943-6.354 59.157 11.995 72.779 18.727M27.938 7.621S15.09 34.849 16.048 53.6C14.73 34.224 26.698 2.052 27.208 5.777m9.74 179.863c11.873-14.778 39.24-52.627 53.723-85.8m0 0c14.484-33.172-9.503-63.27-23.306-74.174C59.6 20.15 40.096 8.156 24.19 4.33m66.48 95.512c-14.484 33.172-32.048 52.061-67.19 106.268M90.67 99.842c14.484-33.173-8.88-65.659-22.684-76.562C60.223 17.762 43.81 3.997 22.931 3m45.132 130.319c-17.367-5.222-49.554-22.902-60.811-50.939C-4.74 52.52 11.415 22.502 21.439 3.69m57.4 132.315l80.813-18.715m-87.623 15.349L47.954 78.326M29.166 208.821l20.296 10.03a1.434 1.434 0 002.061-1.175c2.02-24.583 15.078-93.51 48.488-120.42l.142-.115c18.478-14.883 31.793-25.608 56.545-24.718 24.415.877 48.071 18.455 56.756 28.049M86.27 142.318c11.843 9.693 41.372 23.784 67.995 19.2 33.444-5.759 52.893-45.159 59.735-59.062m-114.81 27.08l2.127-12.063m27.631 8.62l17.322 9.222m-88.974-32.707L41.38 93.683" stroke="#7831B2" stroke-width="5" stroke-linecap="round"/></svg>