<svg width="155" height="168" fill="none" xmlns="http://www.w3.org/2000/svg"><path d="M144.792 25.701h.001c.005-.028.007-.125-.084-.325a20.26 20.26 0 01-.263-.614l-.115-.277a9.11 9.11 0 00-.275.196c.106.225.228.467.366.727.113.208.204.281.247.305m.123-.012l.001-.001.001-.005.001-.003.487.115-.489-.104v-.002h-.001v.001h0v-.001zm0 0a.118.118 0 01-.029.017c-.016.007-.037.017-.094-.005m0 0l.007.004-.211.453.192-.462a.297.297 0 00.012.005zm-1.908-4.074c.111.225.213.445.305.66.093-.053.185-.105.279-.155a9.696 9.696 0 00-.033-.07c-.188-.413-.343-.572-.423-.618a.205.205 0 00-.202-.017c.01.045.031.11.074.2zm0 0l.001.001-.45.219.449-.221v.001zm-4.705 6.745s0 0 0 0l-.262-.425.263.425h-.001zm0 0l.303-.186c.057.182.118.368.182.559.075.214.097.382.065.503-.031.12-.122.215-.27.283a.683.683 0 01-.722-.075l.442-1.084zm2.996-1.024a2.802 2.802 0 01-.503-.466c.105-.052.213-.103.323-.153.047-.022.094-.046.139-.07l.046.048h0l.008.007c.164.16.299.3.407.416l.005.006.005.005a.86.86 0 01.175.245.379.379 0 01.032.093.37.37 0 01-.046.024.384.384 0 01-.211.038c-.069-.014-.192-.062-.377-.191h0l-.003-.002zm-.705-1.479c-.138.065-.273.131-.405.2l-.061-.092c-.108-.17-.21-.334-.306-.493.128-.065.26-.13.395-.194.127.212.253.405.377.58zm1.925-1.835c.102-.087.208-.172.318-.254l.018.047h0l.002.007c.071.177.146.36.227.55-.07.064-.135.123-.193.179h0l-.004.003a.887.887 0 01-.268.185l-.012-.007a.58.58 0 01-.201-.25.59.59 0 01-.062-.262.184.184 0 01.018-.033.835.835 0 01.156-.164l.001-.001zm.731.738l.044.098-.058.055c-.125.12-.254.212-.389.273a.506.506 0 01-.51-.033 1.068 1.068 0 01-.386-.463 1.072 1.072 0 01-.105-.516l1.404.586zm2.343-1.995c-.187.086-.364.17-.529.253l-.182-.437.115-.053c.205-.093.326-.086.398-.062.071.023.145.074.213.224a.363.363 0 01.022.057l-.037.018zm-1.899.445a9.45 9.45 0 01.297-.169c.067.16.133.319.197.478a13.76 13.76 0 00-.294.2c-.036-.09-.072-.176-.105-.262l-.095-.247zm-4.652 3.51c-.096.058-.191.115-.283.173l-.038-.155a17.494 17.494 0 01-.128-.561c.114-.074.231-.148.353-.221.107.177.22.36.34.548h0l.004.006.026.04a9.101 9.101 0 00-.274.17zm.666-2.307c-.134.064-.265.13-.393.195a14.777 14.777 0 00-.232-.38 4.525 4.525 0 00-.317-.478l-.39.314.39-.314a1.639 1.639 0 00-.135-.148.73.73 0 00-.207-.14.616.616 0 00-.514 0 .776.776 0 00-.377.392 1.169 1.169 0 00-.061.164l-.317-.23a1.836 1.836 0 00-.094-.066c.028-.108.063-.212.104-.31.132-.318.31-.496.521-.592.259-.118.446-.115.598-.056l.161-.414-.161.414c.183.071.427.255.721.63h0l.004.005c.208.259.441.595.699 1.014zm-2.295-.082c-.03.296-.013.666.037 1.095h0v.005c.012.094.026.191.042.291-.209.15-.406.301-.593.452-.083-.304-.17-.6-.261-.888l-.028-.084.229-.25.39-.422.184-.2zm.743 4.71c-.08-.063-.19-.193-.323-.42.109-.053.22-.112.333-.179.048.148.097.298.149.45h0l.001.005a.965.965 0 01.047.173c-.072.03-.122.028-.207-.03zm-.284-1.59l-.093.057-.001.001a4.32 4.32 0 01-.372.207 9.771 9.771 0 01-.19-.504c.154-.133.318-.268.493-.404l.04.165c.038.156.079.315.123.478z" fill="#7831B2" stroke="#7831B2"/><path d="M149.785 36.698v-.001c.005-.028.007-.124-.084-.324a20.69 20.69 0 01-.263-.614l-.115-.277a9.11 9.11 0 00-.275.196c.106.224.228.467.366.727.113.207.204.281.247.304m.124-.011v-.002l.001-.004.001-.003.487.115-.489-.104v-.003.001h-.001.001zm0 0a.136.136 0 01-.03.017c-.016.007-.036.016-.094-.006m0 0l.008.004-.212.453.192-.461a.197.197 0 00.012.004zm-1.908-4.073c.111.224.213.444.305.66.093-.054.186-.105.279-.155l-.032-.071c-.189-.412-.344-.571-.423-.617-.071-.04-.125-.048-.202-.018a.89.89 0 00.073.2zm0 0h.001l-.45.22.449-.222v.002zm-4.704 6.745h-.001l-.262-.426.263.425s0 0 0 0zm0 0l.302-.187c.057.182.118.369.183.56.074.214.096.382.064.503-.031.12-.121.215-.27.283a.681.681 0 01-.721-.076l.442-1.083zm2.995-1.025a2.837 2.837 0 01-.503-.465c.105-.052.213-.103.323-.154.048-.022.094-.045.139-.07l.047.048h0l.007.008c.164.16.299.299.407.416l.005.005.005.005c.086.088.141.17.175.246a.379.379 0 01.032.093.383.383 0 01-.046.024.382.382 0 01-.21.038c-.069-.014-.193-.062-.377-.191h0l-.004-.003zm-.704-1.478a11.11 11.11 0 00-.406.2l-.061-.092c-.108-.17-.21-.334-.306-.493.128-.065.26-.13.395-.194.127.212.253.405.378.58zm1.924-1.836a6.19 6.19 0 01.318-.253l.018.046h0l.003.008c.07.177.145.36.226.55-.07.063-.134.123-.193.178h0l-.003.004a.905.905 0 01-.248.177l-.02.008a.578.578 0 01-.214-.257.604.604 0 01-.062-.262.15.15 0 01.019-.033.792.792 0 01.155-.164l.001-.002zm.732.738l.043.099-.058.055c-.125.12-.254.211-.388.273a.508.508 0 01-.511-.033 1.074 1.074 0 01-.386-.463 1.084 1.084 0 01-.105-.517l1.405.586zm2.342-1.994a14.9 14.9 0 00-.529.253l-.181-.437a4.33 4.33 0 01.115-.053c.204-.094.325-.086.397-.063.071.024.145.075.214.225a.35.35 0 01.021.056.532.532 0 01-.037.019zm-1.899.445c.098-.059.198-.115.297-.17l.198.478a11.47 11.47 0 00-.295.2 47.976 47.976 0 01-.105-.261l-.095-.247zm-4.652 3.509a29.62 29.62 0 00-.283.173l-.038-.155c-.048-.197-.09-.384-.127-.56.113-.075.23-.148.352-.221.107.176.22.359.34.548h0l.004.005a.791.791 0 00.026.04 19.79 19.79 0 00-.274.17zm.666-2.306c-.134.064-.265.13-.393.195a18.665 18.665 0 00-.231-.381 4.65 4.65 0 00-.318-.477l-.39.314.39-.314a1.503 1.503 0 00-.135-.149.728.728 0 00-.207-.139.616.616 0 00-.514-.001.776.776 0 00-.377.393 1.303 1.303 0 00-.061.164l-.317-.231a1.836 1.836 0 00-.094-.065c.029-.109.063-.212.105-.311.131-.317.31-.495.52-.592.259-.118.446-.114.598-.055l.161-.414-.161.414c.183.07.427.255.721.63h0l.004.005c.208.258.441.595.699 1.014zm-2.295-.083a5.34 5.34 0 00.037 1.095h0v.006c.013.094.026.19.042.29-.208.151-.406.302-.593.453a23.146 23.146 0 00-.289-.973l.23-.249.389-.422.184-.2zm.744 4.71c-.081-.063-.191-.193-.324-.42.109-.052.22-.112.334-.178.047.148.096.298.148.45h0l.002.005c.026.076.04.133.046.172-.072.03-.122.029-.206-.03zm-.285-1.589l-.092.057h-.002a4.29 4.29 0 01-.371.208 9.784 9.784 0 01-.191-.504c.154-.134.318-.268.494-.404l.039.165c.038.156.079.315.123.478z" stroke="#7831B2"/><path d="M155.708 63.424l-.003.002-.166-.342-.002-.006-.05-.103.051.102.003.006.171.339-.004.002zm0 0c.092-.044.178-.084.261-.121.035.05.068.095.099.134a.792.792 0 00.248.224c.072.03.135.033.189.008.097-.044.199-.104.306-.182a3.19 3.19 0 00.291-.259 1.46 1.46 0 00.198-.27c.043-.09.053-.16.029-.212a.377.377 0 00-.212-.21.665.665 0 00-.37-.02l-1.039.908zm6.526-2.647c.105.257.192.462.26.611.083.183.077.27.071.295-.005.014-.019.038-.086.068a.217.217 0 01-.171.008c-.045-.02-.133-.085-.242-.28-.135-.25-.254-.482-.357-.7.121-.086.259-.179.412-.278.04.095.077.187.113.276zm0 0l.464-.188-.463.189h-.001zm-8.073.581c.086-.046.173-.09.262-.134l.013.034s0 0 0 0c.04.106.081.211.124.317a1.724 1.724 0 01-.068.061.93.93 0 00-.29.45 10.601 10.601 0 01-.165-.455h0v-.002a4.412 4.412 0 01-.056-.175c.055-.028.115-.06.18-.096zm.704 2.084c.204.09.422.112.634.06.062.092.121.175.179.247.107.135.246.278.421.362l.012.006.012.005a.728.728 0 00.59.002c.132-.06.262-.139.39-.23l.01-.007.009-.008c.12-.094.231-.194.335-.299l.008-.008.008-.009c.104-.115.196-.237.266-.365l.006-.011.006-.011c.062-.13.151-.378.033-.638a.877.877 0 00-.593-.503c.111-.117.213-.234.308-.348a.857.857 0 01.497.239.872.872 0 01.179.254c.145.317.186.586.156.818l-.001.003a1.714 1.714 0 01-.264.725 2.672 2.672 0 01-.561.619h0l-.002.001a3.09 3.09 0 01-.67.425.688.688 0 01-.468.044 1.793 1.793 0 01-.629-.352 3.982 3.982 0 01-.871-1.021zm1.511-1.358a3.75 3.75 0 00-.347.117 5.56 5.56 0 00-.086.031c-.043-.09-.087-.186-.134-.288a15.636 15.636 0 01-.063-.138l.14-.145h0l.006-.006.119-.13.041.063.292.446.032.05zm.618-1.394a3.078 3.078 0 00-.396.07 2.07 2.07 0 00.066-.122c.081-.151.205-.442.069-.739a.66.66 0 00-.387-.355.692.692 0 00-.311-.032 1.424 1.424 0 00-.232.048c-.148.04-.346.116-.58.216-.09.036-.192.078-.303.126a1.253 1.253 0 00-.16-.159 1.393 1.393 0 00-.657-.315 8.166 8.166 0 011.068-.39h0l.008-.002c.372-.112.696-.165.974-.17h.004c.269-.006.474.045.635.134h0l.007.004c.142.074.272.206.379.44.049.107.083.25.089.44h0v.011c.007.129-.028.32-.155.588a2.266 2.266 0 01-.118.207zm2.813-.481c.139-.112.285-.221.437-.326l.019.049h0l.003.008c.067.172.139.35.215.534-.087.073-.167.141-.239.205h0l-.003.003c-.111.1-.215.167-.312.212a.183.183 0 01-.074.02c-.005 0-.014 0-.031-.01a.466.466 0 01-.191-.22.47.47 0 01-.05-.236.229.229 0 01.028-.047 1.09 1.09 0 01.197-.191l.001-.001zm.928-1.804a11.979 11.979 0 00-.303-.654.717.717 0 01-.068-.192.544.544 0 01.028-.013c.141-.065.231-.054.317-.012.078.04.233.182.416.581l.028.063c-.14.073-.28.149-.418.227zm.375.938a11.9 11.9 0 01.44-.244l.188.46c-.156.098-.301.193-.435.284l-.104-.261-.089-.24zm1.508-.275l-.175-.424c.062-.03.123-.058.183-.085.252-.115.41-.117.505-.092.085.022.152.068.21.196a.293.293 0 01.017.046.758.758 0 01-.095.05c-.23.105-.445.208-.645.31z" fill="#7831B2" stroke="#7831B2"/><path d="M150.559 47.79a3.02 3.02 0 01.386-.068c.045-.071.083-.138.113-.2.124-.267.158-.457.15-.586v-.01h0a1.154 1.154 0 00-.091-.443c-.107-.235-.238-.368-.378-.443l-.008-.004h0a1.209 1.209 0 00-.625-.136h-.004 0a3.523 3.523 0 00-.959.164l-.009.002h0a7.91 7.91 0 00-1.048.382l.053.01-.112.488.112-.487a1.402 1.402 0 01.759.464c.108-.046.206-.086.294-.121a4.77 4.77 0 01.574-.213m.793 1.2l-.66-.718m.66.719c.024-.042.047-.084.067-.125m-.86-1.076l.002-.001.131.483m-.133-.482h-.002l.135.482m-.133-.482a1.4 1.4 0 01.231-.047.689.689 0 01.311.034l-.017-.006-.153.476c-.04-.017-.12-.009-.239.025m-1.749 1.305c.082-.045.166-.088.251-.13l.014.035c.04.105.081.211.124.318a2.139 2.139 0 01-.064.058.926.926 0 00-.282.43c-.061-.16-.114-.308-.16-.444h0v-.001a4.441 4.441 0 01-.056-.175l.173-.091zm.719 2.092a.958.958 0 00.608.054c.061.093.12.176.177.248.107.134.245.278.418.363l.012.005.012.005a.724.724 0 00.591.005c.131-.06.26-.138.387-.23l.009-.007.009-.007c.119-.094.229-.193.332-.298l.008-.008.008-.009a1.92 1.92 0 00.262-.364l.006-.012.005-.011c.062-.13.148-.377.031-.634a.878.878 0 00-.592-.504c.108-.115.208-.23.3-.342a.872.872 0 01.665.496c.146.318.187.588.159.82l-.001.002a1.69 1.69 0 01-.257.721 2.587 2.587 0 01-.55.613h0l-.001.001c-.223.183-.443.32-.658.42a.664.664 0 01-.456.04 1.792 1.792 0 01-.624-.354 4.03 4.03 0 01-.86-1.013zm1.435-1.405l.033.05a3.56 3.56 0 00-.335.112l-.08.029a20.27 20.27 0 01-.198-.428l.136-.142h0l.006-.007.109-.12.039.06.29.446z" stroke="#7831B2"/><path d="M125.025-27.883c-9.627 7.438-60.684 35.408-85.158 48.099 75.423-45.31 76.375-43.636 84.304-48.167l.481-.274c.044-.025.17.092.373.343zm0 0l.011-.008.04.072m-.051-.064l.051.064m0 0l62.661 111.5m-62.661-111.5c5.8 7.314 66.74 110.036 63.461 111.91l-.432.246m-.368-.656l.368.656m-.368-.656l-68.983 37.878m68.983-37.878l.79-.434m-.422 1.09l-6.309 3.605-.002.001m0 0l-63.04 33.616m63.04-33.616l-1.827 1.044M41.484 19.93c8.365 19.6 43.905 91.939 57.014 107.685m0 0c1.592 1.912 2.853 2.99 3.695 3.037l16.561-9.093m-20.256 6.056C85.224 112.938 47.102 40.882 39.723 20.936m58.775 106.679c1.492 1.65 2.671 2.575 3.456 2.619l7.124-3.516 9.676-5.159m-40.45-61.59l51.946-29.678M78.066 59.55c25.799-16.403 51.946-29.679 51.946-29.679M83.943 71.267L135.89 41.59M83.706 70.85c25.8-16.403 51.946-29.679 51.946-29.679M90.288 83.272l51.945-29.679m-52.184 29.26c25.8-16.402 51.946-29.678 51.946-29.678m-43.954 42.1l51.946-29.678m-52.184 29.26c25.8-16.403 51.946-29.678 51.946-29.678m-45.363 43.513l51.945-29.679m-52.183 29.26c25.799-16.402 51.945-29.678 51.945-29.678M62.461 30.917c16.962-11.353 34.63-19.786 34.63-19.786M68.1 39.391c16.962-11.354 34.63-19.786 34.63-19.786M62.7 31.336L97.33 11.55M68.338 39.81l34.631-19.786" stroke="#7831B2" stroke-width="3" stroke-linecap="round"/></svg>