<svg width="153" height="117" fill="none" xmlns="http://www.w3.org/2000/svg"><path d="M90.222-51.645l-.5.297C82.94-47.306 81.04-47.764 36.874-20.7M3.83.51c9.21 20.314 48.1 95.176 62.223 111.384m0 0c1.719 1.972 3.07 3.076 3.958 3.107l22.113-12.675m-26.07 9.568C51.774 96.805 10.18 22.296 2 1.599m64.052 110.294c1.609 1.7 2.87 2.645 3.699 2.675l7.413-3.831 7.197-4.009-10.215-20.213-3.925 2.34M36.873-20.7A4375.534 4375.534 0 002.135.843c9.238-5.008 22.114-12.197 35.246-19.705m-.508-1.838l.508 1.838m0 0C60.447-32.05 84.303-46.223 90.633-51.303l6.884 11.626m-73.922 51.73A830.838 830.838 0 0145.156-1.521l4.49 14.561a812.883 812.883 0 00-18.457 11.674m.26.432l18.196-10.843 5.13 15.012M39.847 38.21l14.928-8.895m0 0l-.784-.705a789.29 789.29 0 00-14.403 9.168m15.187-8.463l4.738 13.249a773.27 773.27 0 00-12.331 7.875m.259.432l12.072-7.193 3.865 13.894a754.688 754.688 0 00-8.603 5.528m.26.432l9.447-5.63L68.9 71.55a739.8 739.8 0 00-6.532 4.212m.26.432l6.272-3.737 5.246 13.257c-1.394.895-2.79 1.799-4.185 2.71m68.092-142.178c-11.37 5.822-69.487 24.896-97.21 33.302 86.612-32.282 87.278-30.38 96.34-33.534l.549-.192c.05-.017.158.128.321.424zm0 0l.012-.006.027.079m-.039-.073l.039.073m0 0L181.65 72.924M138.092-53.682c4.597 8.605 48.056 125.875 44.308 127.179l-.493.172m-.257-.745l.257.745m-.257-.745L103.093 98.79m78.557-25.867l.9-.296m-.643 1.042l-7.21 2.51m0 0L103.093 98.79m71.604-22.612l-2.091.728M42.57-20.44C47.486 1.31 70.455 82.463 81.012 101.161m0 0c1.284 2.273 2.383 3.623 3.245 3.831l18.836-6.202m-22.08 2.371C70.08 83.53 44.388 2.179 40.557-19.739m40.454 120.9c.876 1.412 1.657 2.416 2.325 2.947.445.355 1.042.328 1.591.173l7.198-2.028 10.967-3.463M61.434-6.879l28.139-9.795M67.362 5.458l28.616-9.96M70.23 23.72L138.91-.186M67.195 4.983C78.07.131 95.811-4.977 95.811-4.977M70.065 23.244C104.62 9.617 138.743-.66 138.743-.66M75.11 37.647l68.678-23.906M74.944 37.17c34.555-13.628 68.678-23.905 68.678-23.905M84.868 65.498l68.678-23.906m-68.844 23.43c34.554-13.628 68.678-23.905 68.678-23.905M79.99 51.573l68.677-23.906m-68.844 23.43C114.377 37.47 148.5 27.191 148.5 27.191M89.747 79.425l68.678-23.906M89.581 78.95c34.554-13.627 68.678-23.905 68.678-23.905M61.268-7.354l28.138-9.795m-51.782-1.52L138.651-55 184 72.651 82.431 105.123 37.624-18.669z" stroke="#7831B2" stroke-width="3" stroke-linecap="round"/></svg>