<svg width="128" height="188" fill="none" xmlns="http://www.w3.org/2000/svg"><path d="M2 16.737C38.729 5.554 115.303-20.471 132.78-28.935c.549-.265 1.175.021 1.372.598l58.554 170.89a1 1 0 01-.616 1.268l-11.308 3.953M2 16.737C119.053-27.07 120.339-25.458 132.585-29.74l.743-.26c1.888-.66 65.635 171.418 60.368 173.259l-13.236 4.626M2 16.736c5.723 32.875 47.536 164.278 58.619 168.551.16.062.301.043.467-.004l10.607-3 111.592-35.384M3.5 16.279c7.399 32.865 46.252 165.202 57.324 169.645.174.07.328.045.506-.014l132.568-43.83M78.423 18.143l38.027-13.29M86.434 34.886l38.673-13.517M42.103 75.713l92.816-32.441M116.226 4.207L78.198 17.498m8.01 16.742c14.697-6.584 38.674-13.516 38.674-13.516M41.878 75.067c46.7-18.493 92.816-32.44 92.816-32.44M48.697 94.61l92.815-32.44m-93.04 31.795c46.699-18.493 92.815-32.44 92.815-32.44m-79.403 70.882L154.7 99.966m-93.041 31.796c46.7-18.494 92.816-32.441 92.816-32.441M55.29 113.509l92.816-32.441m-93.04 31.796c46.699-18.494 92.815-32.441 92.815-32.441m-79.403 70.882l92.816-32.441M68.253 150.66c46.699-18.494 92.816-32.441 92.816-32.441" stroke="#7831B2" stroke-width="3" stroke-linecap="round"/></svg>