<svg width="162" height="171" fill="none" xmlns="http://www.w3.org/2000/svg"><path d="M3.343 144.112C3.345 127.391 2.414 81.494 61 73.348M3.343 146.08c-2.661-22.964 9.582-68.169 59.37-72.387m51.666-6.093c16.2-3.862 51.915-1.096 69.105 40.86m-70.988-40.348c16.2-3.862 55.315.602 72.505 42.558m-99.546 42.776L96.926 166m-11.472-12.554l-1.78-53.267m1.78 53.267C87.659 154.847 96.926 166 96.926 166m-11.472-12.554c-2.205-1.401-1.78-53.267-1.78-53.267M96.927 166l7.494-14.714M96.926 166s5.592-11.116 7.494-14.714m0 0L94.35 98.794m10.07 52.492c1.902-3.599-10.07-52.492-10.07-52.492m-11.11-7.348l.435 8.733m0 0l10.675-1.385m0 0l-2.358-10.636c-.078 2.145 2.358 10.636 2.358 10.636zm22.715 7.535l29.316-5.221m-58.092-15.66l-13.93 11.423m0 0L62.65 74.52l4.143 4.311 7.565 18.04zm12.445-11.334l16.148 9.319m0 0l9.447-26.072c-6.487 12.11-9.447 26.072-9.447 26.072zM64.115 73.972l23.658 11.035 22.651-16.153m17.62-21.9c-7.278 24.22-35.124 35.273-62.196 27.116-27.072-8.156-42.136-32.435-34.858-56.654 7.278-24.219 32.177-37.24 59.25-29.083 27.071 8.157 45.082 34.402 37.804 58.621zm.482-1.9a41.31 41.31 0 01-6.253 12.555c-11.608 15.857-34.03 23.13-55.943 16.528-27.072-8.156-43.118-34.402-35.84-58.621a41.336 41.336 0 016.253-12.555c11.609-15.857 34.03-23.13 55.943-16.528 27.072 8.157 43.118 34.402 35.84 58.621z" stroke="#7831B2" stroke-width="5" stroke-linecap="square"/></svg>