<svg width="179" height="207" fill="none" xmlns="http://www.w3.org/2000/svg"><path d="M78.227 93.124a1.5 1.5 0 00-3-.013l3 .013zm21.936 44.808l-.337 1.462.337-1.462zm42.187-31.829a1.5 1.5 0 10-2.752-1.194l2.752 1.194zm13.636-29.362l1.499.033-1.499-.033zm-21.83 41.218a1.5 1.5 0 101.781 2.414l-1.781-2.414zm-58.314-9.216a1.5 1.5 0 002.607-1.484l-2.607 1.484zm8.72-55.814a1.5 1.5 0 00-1.674-2.49l1.674 2.49zm63.72 4.98a1.5 1.5 0 00-2.061 2.18l2.061-2.18zm-58.008 75.238a1.5 1.5 0 10-2.945-.569l2.945.569zm-3.385 9.626l-1.473-.284-.183.948.788.559.868-1.223zm11.94 8.47l-.868 1.223.519.368.625-.117-.276-1.474zm19.603-12.667a1.5 1.5 0 10-2.946-.568l2.946.568zm-31.013 5.767a1.5 1.5 0 10-.267-2.988l.267 2.988zm-47.032 3.596a1.5 1.5 0 101.68 2.485l-1.68-2.485zm106.929 16.355l.823-1.254-.074-.049-.08-.04-.669 1.343zM82.118 80.459a1.5 1.5 0 00-1.054 2.81l1.054-2.81zm40.736-2.77l-.977-1.139.977 1.138zm16.982 16.762a1.5 1.5 0 00.24-2.99l-.24 2.99zM81.637 80.463a1.5 1.5 0 00-1.071 2.802l1.071-2.802zm40.102-2.99l-.977-1.138.977 1.138zm17.125 16.953a1.5 1.5 0 00.24-2.99l-.24 2.99zm-60.258-1.29a1.5 1.5 0 10-3-.011l3 .012zm20.66 43.467l.337-1.462-.337 1.462zm42.632-30.069a1.5 1.5 0 10-2.752-1.194l2.752 1.194zm13.189-31.122l1.499.033-1.499-.033zm-20.685 41.438a1.5 1.5 0 001.78 2.415l-1.78-2.415zm-58.052-7.851a1.5 1.5 0 002.607-1.483l-2.607 1.483zm8.754-57.94a1.5 1.5 0 10-1.55-2.57l1.55 2.57zm63.684 6.916a1.5 1.5 0 00-2.168 2.074l2.168-2.074zm-59.412 73.842a1.5 1.5 0 10-2.946-.568l2.946.568zm-3.386 9.627l-1.472-.284-.183.948.788.559.867-1.223zm11.94 8.47l-.868 1.223.52.368.625-.117-.277-1.474zm16.218-3.041l.276 1.475 1.003-.188.194-1.002-1.473-.285zm3.385-9.626a1.5 1.5 0 10-2.945-.568l2.945.568zm-31.013 5.767a1.5 1.5 0 10-.266-2.988l.266 2.988zm-46.129 4.925a1.5 1.5 0 001.681 2.485l-1.68-2.485zm74.427-2.407a1.498 1.498 0 00-2.011.673 1.498 1.498 0 00.673 2.011l1.338-2.684zm31.601 17.433l.823-1.254-.074-.049-.08-.04-.669 1.343zm10.738-120.122a1.5 1.5 0 10-.742-2.907l.742 2.907zm-40.635 8.827l-.651 1.352.493.236.529-.135-.371-1.453zM64.595 26.695l-1.453.371.173.677.63.304.65-1.352zm-.954-3.735l-.371-1.453-1.454.371.371 1.454 1.454-.372zm55.787-12.695a1.5 1.5 0 00-.743-2.907l.743 2.907zm1.1-3.022a1.5 1.5 0 00-1.284 2.712l1.284-2.712zm50.918 25.762l.879-1.216-.112-.08-.125-.06-.642 1.356zm.902 3.527l.981 1.134-.981-1.134zM160.785 38.6a1.5 1.5 0 10.613 2.937l-.613-2.937zm-18.421 6.913l1.413-.503-.441-1.238-1.285.275.313 1.467zm4.692 13.168l1.48-.238-.021-.136-.046-.13-1.413.504zm-.972 3.12l.756 1.296-.756-1.295zM114.599 71.83l-.722 1.315.556.305.606-.186-.44-1.434zM90.684 58.709l.722-1.315-.02-.011-.02-.01-.682 1.336zm-6.355-3.24l-1.003 1.115.147.132.175.09.681-1.337zm6.517-16.029l.612-1.369-1.22-.546-.682 1.15 1.29.765zM116.686 51l-.613 1.369.447.2.479-.102-.313-1.467zm1.277.6a1.5 1.5 0 00-2.988-.275l2.988.275zm38.925-10.679l1.352-.649-.238-.496-.504-.225-.61 1.37zm-33.818-11.28l.163-1.492-.176-.019-.175.022.188 1.488zm-9.779-.13l-1.453.37 1.453-.37zm5.18-3.091l-.11 1.496.11-1.496zm2.222 2.46a1.5 1.5 0 102.639-1.425l-2.639 1.425zm41.917 11.715a1.5 1.5 0 10-2.931-.636l2.931.636zm-1.872 1.553l-1.466-.318-.265 1.224 1.157.48.574-1.386zm1.339 7.836l-1.14-.976-.347.406-.012.535 1.499.035zm-.681 29.346l1.499.054v-.02l-1.499-.034zm-4.239 4.176l-.14-1.493.14 1.493zm-5.94-3.345l-1.49.176.03.256.114.23 1.346-.662zm-.129-4.83l-1.482-.23 1.482.23zm5.845-25.58l1.46.34.174-.745-.501-.578-1.133.982zm.9-6.86l.596 1.376 1.431-.62-.675-1.406-1.352.65zM119.876 7.676l.666-1.345-.518-.256-.557.157.409 1.444zm51.555 25.539h1.5v-.931l-.835-.414-.665 1.345zM65.127 23.182l-.408-1.443-1.091.31v1.133h1.5zm92.275 18.404a1.5 1.5 0 00-.743-2.907l.743 2.907zm-40.636 8.827l-.65 1.352.492.236.529-.135-.371-1.453zM64.839 25.438l-1.451.38.175.67.626.302.65-1.352zm-.59-2.257l-.41-1.443-1.413.401.372 1.422 1.45-.38zM119.71 8.997a1.5 1.5 0 10-.819-2.886l.819 2.886zm1.062-3.01a1.5 1.5 0 00-1.284 2.711l1.284-2.711zm50.918 25.761l.879-1.216-.112-.08-.125-.06-.642 1.356zm.902 3.527l.981 1.134-.981-1.134zm-11.563 2.069a1.5 1.5 0 10.613 2.937l-.613-2.937zm-17.008 6.41a1.5 1.5 0 10-2.826 1.007l2.826-1.007zm3.279 13.67l1.48-.238-.021-.135-.046-.13-1.413.504zm-.972 3.121l.756 1.296-.756-1.296zm-31.485 10.029l-.722 1.315.556.305.605-.186-.439-1.434zM90.928 57.452l.722-1.315-.02-.01-.02-.011-.682 1.336zm-6.355-3.24l-1.003 1.116.147.132.175.09.681-1.337zm-.848-3.319l-1.345-.664 1.345.664zM92.38 38.95a1.5 1.5 0 00-2.58-1.53l2.58 1.53zm25.827 11.394a1.5 1.5 0 00-2.988-.275l2.988.275zm3.806-20.833l.162-1.49L122 28l-.175.022.188 1.488zm-8.476-1.256l-1.453.371 1.453-.371zm5.18-3.09l-.11 1.495.11-1.496zm3.541 1.747l1.32-.713-1.32.713zm38.21 12.952a1.5 1.5 0 101.633-2.516l-1.633 2.516zm.921-.843l1.465.318.462-2.127-2.152.326.225 1.483zm-.407 1.872l-1.465-.318-.266 1.224 1.157.48.574-1.386zm1.339 7.835l-1.139-.975-.348.406-.012.534 1.499.035zm-.681 29.346l1.499.054v-.019l-1.499-.035zm-10.179.831l-1.49.176.031.256.113.231 1.346-.663zm5.716-30.41l1.46.34.174-.744-.501-.579-1.133.983zm2.39-7.602l.596 1.376 2.942-1.273-2.863-1.443-.675 1.34zm-2.435-1.227l-.225-1.483-4.654.705 4.204 2.118.675-1.34zM44.592-4.693l.09 1.497-.09-1.497zM198.078 9.77l-.515 1.41.515-1.41zm1.133 1.677l-1.499-.045 1.499.045zm-30.368 189.869l-1.419-.488 1.419.488zm-1.722 1.154l.058-1.499-.058 1.499zM42.981-3.325l1.458.35-1.458-.35zm4.397-2.217l-.09-1.497.09 1.497zM200.866 8.923l-.515 1.409.515-1.409zm1.133 1.675l-1.499-.046 1.499.046zm-31.686 193.25l1.418.488-1.418-.488zm-1.721 1.15l-.06 1.499.06-1.499zM45.768-4.174l1.459.35-1.459-.35zM6.61 154.413a1.5 1.5 0 002.992.222l-2.992-.222zm2.315-2.758a1.5 1.5 0 002.988.265l-2.988-.265zm29.15 32.022a1.5 1.5 0 10-.627 2.934l.627-2.934zm-3.235-.008a1.5 1.5 0 10-.545 2.95l.545-2.95zm2.49-2.581l1.205.894-1.205-.894zm-27.2 3.777l-.895 1.204.895-1.204zM6.2 157.263l1.205.893-1.205-.893zm27.2-3.777l.895-1.204-.894 1.204zm-.396 31.735l-.838-1.244.838 1.244zM10.527 153.13l.837 1.244-.837-1.244zm14.382 7.693a1.5 1.5 0 10-2.944-.577l2.944.577zm-5.956 14.775a1.5 1.5 0 002.944.578l-2.944-.578zm9.778-4.526a1.5 1.5 0 10.577-2.944l-.577 2.944zm-12.813-5.569a1.5 1.5 0 00-.577 2.944l.577-2.944zm59.31-72.392c-.03 7.374 1.028 17.67 4.58 26.738 3.55 9.064 9.711 17.165 20.018 19.545l.675-2.924c-8.943-2.064-14.53-9.112-17.9-17.715-3.368-8.599-4.403-18.488-4.374-25.631l-3-.013zm24.598 46.283c10.244 2.364 18.007 1.081 24.703-4.567 6.538-5.513 11.896-15.068 17.821-28.724l-2.752-1.194c-5.929 13.663-11.058 22.611-17.003 27.625-5.786 4.88-12.501 6.151-22.094 3.936l-.675 2.924zm54.66-62.686c-.108 4.885-.058 8.806-.278 12.35-.217 3.5-.692 6.475-1.797 9.338-2.204 5.708-7.038 11.291-18.255 19.563l1.781 2.414c11.324-8.351 16.748-14.359 19.273-20.897 1.258-3.26 1.765-6.572 1.992-10.233.224-3.617.179-7.732.283-12.47l-2.999-.065zm-76.037 30.551c-3.592-6.311-6.729-16.865-6.58-27.412.147-10.535 3.554-20.771 12.693-26.918l-1.674-2.49c-10.256 6.899-13.864 18.276-14.02 29.365-.155 11.078 3.115 22.159 6.974 28.939l2.607-1.484zm67.772-47.17c5.379 5.082 8.39 10.926 8.265 16.619l2.999.066c.15-6.821-3.446-13.427-9.203-18.865l-2.061 2.18zm-58.892 72.489l-1.913 9.911 2.946.568 1.912-9.91-2.945-.569zm-1.308 11.418l.14.1 1.736-2.447-.14-.1-1.736 2.447zm.14.1l11.8 8.37 1.736-2.447-11.8-8.37-1.736 2.447zm12.944 8.621l16.218-3.04-.553-2.949-16.218 3.041.553 2.948zm17.414-4.23l1.913-9.911-2.946-.568-1.913 9.91 2.946.569zm-29.367-7.132l-.256.023.266 2.988.257-.023-.267-2.988zm-.123 1.517l-.083-1.497h-.006l-.02.001-.081.005-.314.017-1.193.066-4.27.242c-3.54.202-8.277.476-13.065.767-4.787.29-9.629.597-13.377.864-1.872.133-3.48.256-4.671.363-.596.053-1.097.103-1.482.149-.317.038-.716.089-.981.174l.911 2.858c-.065.021.017-.004.426-.053.341-.041.81-.088 1.393-.14a276.57 276.57 0 014.617-.359c3.732-.265 8.562-.571 13.346-.862a3803.84 3803.84 0 0117.32-1.007l1.192-.067.313-.017.08-.004.02-.002h.007l-.082-1.498zm-39.543 1.151c-.978.312-2.408 1.069-3.684 1.801a60.447 60.447 0 00-3.415 2.115l1.68 2.485c.725-.49 1.97-1.275 3.23-1.998 1.301-.748 2.47-1.344 3.1-1.545l-.911-2.858zm66.891 5.522l32.27 16.091 1.338-2.685-32.269-16.091-1.339 2.685zm32.116 16.003c.386.254.952.749 1.635 1.413.665.647 1.363 1.374 2.015 2.048.626.646 1.251 1.287 1.707 1.678.119.102.251.209.388.302.104.071.345.231.659.31.165.042.485.097.86-.016.438-.132.768-.439.948-.805.153-.311.167-.598.165-.75a2.01 2.01 0 00-.05-.409l-2.927.658a.978.978 0 01-.023-.205 1.37 1.37 0 01.143-.618c.164-.334.47-.62.877-.743a1.39 1.39 0 01.743-.02c.221.056.341.151.297.121a1.642 1.642 0 01-.128-.103c-.326-.279-.841-.803-1.503-1.487-.636-.656-1.374-1.425-2.08-2.112-.689-.669-1.432-1.345-2.08-1.77l-1.646 2.508zM81.591 81.864l-.526 1.404h.001l.003.002.009.003.031.012.113.04a45.815 45.815 0 001.987.645c1.343.404 3.263.923 5.583 1.392l.594-2.941a59.931 59.931 0 01-5.315-1.324 43.139 43.139 0 01-1.838-.596 12.648 12.648 0 01-.09-.033l-.021-.007a.101.101 0 01-.004-.002l-.527 1.405zm7.201 3.498c8.809 1.778 23.992 2.95 35.04-6.536l-1.955-2.276c-9.922 8.52-23.844 7.617-32.49 5.871l-.595 2.94zm35.04-6.536c2.879-2.472 4.46-3.006 5.294-3.073l-.24-2.99c-1.786.143-3.967 1.175-7.009 3.787l1.955 2.276zm5.294-3.073a1.044 1.044 0 01-.805-.284c-.099-.1-.096-.15-.043-.017.103.264.213.747.335 1.52.222 1.413.458 3.676.902 5.884.88 4.381 2.819 9.976 8.564 11.471l.756-2.903c-3.859-1.004-5.505-4.81-6.379-9.159-.433-2.156-.617-4.09-.88-5.76-.121-.769-.27-1.549-.507-2.152-.118-.299-.305-.684-.625-1.004a1.962 1.962 0 00-1.558-.586l.24 2.99zm8.953 18.574a4.11 4.11 0 001.109.12c.305-.002.44-.012.648.004l.24-2.99c-.385-.03-.747-.015-.917-.013a1.19 1.19 0 01-.324-.024l-.756 2.903zM81.101 81.864l-.535 1.401h.002l.003.002c.003 0 .006.002.01.004l.032.011.113.042a38.242 38.242 0 002.02.64c1.396.402 3.441.92 6.073 1.403l.54-2.951a60.803 60.803 0 01-5.784-1.335 35.077 35.077 0 01-1.835-.58 9.963 9.963 0 01-.102-.038h-.002c0-.001 0 0 0 0l-.535 1.4zm7.718 3.503c8.91 1.634 23.304 2.34 33.897-6.756l-1.954-2.276c-9.507 8.163-22.688 7.68-31.402 6.081l-.541 2.95zm33.897-6.756c1.928-1.656 3.291-2.508 4.233-2.883.915-.365 1.237-.21 1.324-.161l1.467-2.617c-1.143-.64-2.478-.576-3.901-.01-1.395.556-3.052 1.656-5.077 3.395l1.954 2.276zm5.557-3.044c.041.023.196.133.378.585.181.45.325 1.08.447 1.91.12.821.206 1.746.304 2.776.096 1.013.202 2.112.363 3.212.319 2.175.873 4.533 2.139 6.461 1.317 2.007 3.347 3.458 6.359 3.852l.389-2.975c-2.13-.278-3.394-1.233-4.241-2.523-.898-1.368-1.377-3.195-1.678-5.25a61.896 61.896 0 01-.345-3.06c-.095-1.002-.188-2.014-.322-2.929-.133-.906-.318-1.813-.632-2.594-.314-.778-.82-1.593-1.694-2.082l-1.467 2.617zm9.99 18.796c.197.026.397.047.601.063l.24-2.99a9.17 9.17 0 01-.452-.048l-.389 2.975zm-62.657-1.239c-.03 7.333.7 17.297 3.933 26.04 3.239 8.763 9.09 16.523 19.39 18.9l.674-2.923c-8.949-2.065-14.207-8.784-17.25-17.017-3.051-8.253-3.776-17.802-3.747-24.987l-3-.013zm23.323 44.94c10.175 2.349 18.036 1.549 24.866-3.638 6.689-5.079 12.17-14.218 18.103-27.892l-2.752-1.194c-5.92 13.645-11.149 22.128-17.165 26.697-5.875 4.461-12.716 5.335-22.378 3.104l-.674 2.923zm54.658-62.685c-.053 2.425-.05 4.653-.048 6.71.002 2.065.003 3.948-.053 5.72-.113 3.539-.453 6.543-1.424 9.43-1.928 5.731-6.461 11.352-17.66 19.611l1.78 2.415c11.342-8.364 16.495-14.444 18.723-21.07 1.107-3.29 1.463-6.628 1.579-10.291.059-1.83.057-3.763.055-5.818-.002-2.062-.005-4.256.047-6.641l-2.999-.066zm-74.63 32.137c-3.698-6.498-7.211-17.694-7.213-28.783-.001-11.08 3.483-21.713 13.36-27.675l-1.55-2.568C72.42 55.21 68.743 67.1 68.744 78.733c.002 11.623 3.657 23.328 7.606 30.266l2.607-1.483zm67.663-47.467c4.567 4.774 7.082 10.114 6.967 15.33l2.999.066c.138-6.25-2.873-12.321-7.798-17.47l-2.168 2.074zm-60.19 71.2l-1.912 9.911 2.945.568 1.913-9.911-2.946-.568zm-1.308 11.418l.14.1 1.736-2.447-.14-.1-1.736 2.447zm.14.1l11.8 8.37 1.736-2.447-11.8-8.37-1.735 2.447zm12.945 8.621l16.217-3.04-.553-2.949-16.217 3.04.553 2.949zm17.414-4.23l1.912-9.911-2.945-.568-1.913 9.91 2.946.569zm-29.367-7.132l-.257.023.267 2.988.256-.023-.266-2.988zm-.124 1.517l-.103-1.496h-.007l-.02.002-.077.005-.303.021-1.15.081a1841.591 1841.591 0 00-16.863 1.263c-4.699.374-9.5.78-13.322 1.156-1.909.187-3.583.368-4.881.535-1.232.158-2.286.321-2.83.5l.938 2.85c.215-.071.952-.205 2.274-.374 1.255-.162 2.895-.339 4.793-.526 3.793-.373 8.573-.777 13.266-1.151a1939.013 1939.013 0 0117.984-1.341l.302-.021.077-.006.02-.001h.006l-.103-1.497zm-39.557 2.067c-1.778.586-3.028 1.503-4.003 2.367-.466.414-.908.852-1.25 1.177-.37.35-.658.603-.929.785l1.681 2.485c.487-.329.924-.726 1.31-1.093.414-.391.76-.739 1.178-1.109.793-.702 1.691-1.347 2.952-1.762l-.939-2.85zm66.907 4.606l32.27 16.091 1.338-2.685-32.27-16.09-1.338 2.684zm32.116 16.003c.937.615 2.531 1.902 3.936 3.21a24.21 24.21 0 011.774 1.801c.227.263.394.479.503.644.13.195.109.215.084.103l2.927-.658c-.098-.435-.326-.825-.511-1.103a9.464 9.464 0 00-.734-.948c-.551-.638-1.258-1.346-1.999-2.036-1.473-1.37-3.203-2.778-4.334-3.521l-1.646 2.508zm10.819-124.283l-40.264 10.28.742 2.907 40.264-10.28-.742-2.907zm-39.243 10.382L65.245 25.343l-1.3 2.704 51.926 24.975 1.301-2.704zM66.048 26.323l-.954-3.734-2.907.743.955 3.734 2.906-.743zm-2.036-1.91l55.416-14.148-.743-2.907-55.416 14.149.743 2.907zm55.232-14.458l51.561 24.406 1.283-2.712-51.56-24.406-1.284 2.712zm51.324 24.266c.148.107.329.262.496.445.169.186.287.36.35.5.063.137.044.174.05.141.009-.058.036-.026-.098.09l1.963 2.269c.59-.51.98-1.15 1.097-1.886.113-.71-.052-1.354-.282-1.86-.442-.968-1.254-1.722-1.819-2.13l-1.757 2.43zm.798 1.177c-.144.124-.606.384-1.486.724-.82.317-1.84.644-2.938.961a91.336 91.336 0 01-6.157 1.517l.613 2.937c1.6-.334 4.09-.913 6.374-1.571 1.141-.33 2.254-.684 3.189-1.046.875-.338 1.788-.752 2.368-1.254l-1.963-2.268zm-30.415 10.619l4.692 13.167 2.826-1.007-4.692-13.167-2.826 1.007zm4.624 12.902c.039.248.057.684-.024 1.078-.085.417-.216.505-.223.51l1.512 2.59c1.071-.624 1.488-1.707 1.65-2.499a6.261 6.261 0 00.046-2.155l-2.961.476zm-.247 1.587c.054-.03.025-.01-.206.08-.19.073-.452.169-.785.286a152.2 152.2 0 01-2.683.904 777.191 777.191 0 01-8.4 2.69 2768.313 2768.313 0 01-19.095 5.93l.88 2.868a2784.426 2784.426 0 0019.117-5.937 778.817 778.817 0 008.435-2.701 153.67 153.67 0 002.741-.924c.346-.122.641-.23.873-.319.191-.074.447-.176.635-.286l-1.512-2.59zM115.32 70.515L91.406 57.394l-1.443 2.63 23.914 13.121 1.443-2.63zM91.366 57.372l-6.356-3.24-1.362 2.674 6.355 3.24 1.363-2.674zm-6.034-3.018a2.143 2.143 0 01-.505-.748c-.118-.305-.119-.553-.001-.792l-2.69-1.328c-.581 1.177-.445 2.33-.107 3.202a5.127 5.127 0 001.297 1.896l2.006-2.23zm-.506-1.54c.666-1.349 5.122-8.921 7.31-12.608l-2.58-1.531c-2.14 3.605-6.687 11.327-7.42 12.81l2.69 1.329zm5.407-12.005l25.84 11.56 1.225-2.739-25.84-11.559-1.225 2.739zM117 52.468l25.679-5.487-.627-2.933-25.678 5.486.626 2.934zm-2.024-1.142l-1.87 20.368 2.987.274 1.871-20.367-2.988-.275zm42.523-11.774c-2.988-1.332-8.573-3.854-14.875-6.2-6.278-2.339-13.377-4.546-19.39-5.202l-.325 2.983c5.631.614 12.446 2.712 18.668 5.03 6.2 2.308 11.701 4.792 14.701 6.13l1.221-2.74zm-34.616-11.399c-.92.117-1.98.33-2.986.53-1.035.203-2.034.395-2.935.5-.928.107-1.593.1-2.006.001-.191-.046-.25-.094-.247-.091.023.018.037.052.036.047l-2.906.743c.344 1.346 1.412 1.977 2.418 2.219.945.226 2.042.177 3.051.06 1.036-.12 2.149-.335 3.169-.536 1.05-.207 1.989-.396 2.782-.496l-.376-2.977zm-8.138.987c-.063-.25-.011-.328.016-.37.06-.092.227-.26.613-.433.786-.351 1.973-.495 2.988-.42l.219-2.992c-1.335-.098-3.055.059-4.431.673-.695.31-1.422.793-1.906 1.54-.518.798-.66 1.749-.405 2.745l2.906-.743zm3.617-1.223c.508.037 1.107.235 1.629.512a3.8 3.8 0 01.6.386c.169.136.158.168.103.066l2.639-1.425c-.222-.412-.568-.74-.855-.973a6.767 6.767 0 00-1.082-.704c-.78-.414-1.784-.779-2.815-.854l-.219 2.992zM159.68 39.96l-.407 1.871 2.932.636.406-1.871-2.931-.636zm.485 3.575c.779.323 1.639.983 1.979 1.803.272.654.378 1.82-1.206 3.671l2.28 1.95c2.093-2.446 2.52-4.788 1.697-6.77-.754-1.819-2.402-2.928-3.601-3.425l-1.149 2.77zm.414 6.415l-.682 29.346 2.999.07.682-29.347-2.999-.07zm-.681 29.327c-.013.364-.168 1.023-.602 1.593-.394.52-1.064 1.03-2.278 1.144l.28 2.987c2.067-.194 3.495-1.14 4.387-2.316.855-1.125 1.178-2.4 1.211-3.3l-2.998-.108zm-2.88 2.737c-2.409.225-3.984-1.56-4.455-2.515l-2.691 1.326c.755 1.531 3.271 4.565 7.426 4.176l-.28-2.987zm-4.311-2.028a33.957 33.957 0 01-.178-2.226c-.041-.902-.033-1.712.042-2.196l-2.964-.463c-.125.805-.117 1.873-.075 2.795.043.953.129 1.874.196 2.442l2.979-.352zm-.136-4.422c.19-1.216 3.945-17.422 5.823-25.472l-2.921-.682c-1.851 7.93-5.653 24.329-5.866 25.691l2.964.463zm5.496-26.795c-.57-.659-1.123-1.649-1.191-2.508-.03-.39.04-.712.217-.994.18-.288.551-.66 1.337-1l-1.192-2.752c-1.205.521-2.113 1.243-2.686 2.158-.578.92-.738 1.91-.666 2.824.137 1.748 1.125 3.326 1.914 4.236l2.267-1.964zm1.119-6.527l-.945-1.969-2.705 1.298.945 1.97 2.705-1.299zM119.21 9.021l51.555 25.539 1.331-2.689-51.554-25.539-1.332 2.689zm50.721 24.195v2.28h3v-2.28h-3zm-103.304-8.21v-1.824h-3v1.825h3zm-1.09-.38L120.284 9.12l-.818-2.887L64.719 21.74l.817 2.887zm91.122 14.053l-40.264 10.28.742 2.907 40.265-10.28-.743-2.907zM117.416 49.06L65.489 24.086l-1.3 2.704 51.927 24.975 1.3-2.704zM66.29 25.058l-.59-2.256-2.902.759.59 2.256 2.902-.759zm-1.632-.434L119.71 8.997l-.819-2.886-55.052 15.627.82 2.886zm54.83-15.926l51.561 24.406 1.283-2.712-51.56-24.405-1.284 2.711zm51.324 24.266c.148.107.329.263.496.445.169.186.287.36.35.5.063.138.044.175.05.142.009-.059.036-.026-.098.09l1.963 2.268c.59-.51.98-1.15 1.097-1.886.113-.71-.052-1.353-.282-1.859-.442-.97-1.254-1.723-1.819-2.132l-1.757 2.432zm.798 1.177c-.144.125-.606.384-1.486.724-.82.317-1.84.645-2.938.961a91.336 91.336 0 01-6.157 1.518l.613 2.937c1.6-.334 4.09-.914 6.375-1.572 1.14-.329 2.253-.684 3.188-1.046.875-.337 1.788-.752 2.368-1.254l-1.963-2.268zm-30.415 10.62l4.692 13.167 2.826-1.007-4.692-13.167-2.826 1.007zm4.624 12.902c.039.247.057.684-.024 1.077-.085.418-.216.506-.223.51l1.512 2.591c1.071-.625 1.488-1.708 1.65-2.499a6.261 6.261 0 00.046-2.156l-2.961.477zm-.247 1.587c.054-.031.025-.01-.206.079-.19.074-.452.17-.786.286-.665.234-1.576.541-2.682.904a774.697 774.697 0 01-8.4 2.69 2773.4 2773.4 0 01-19.095 5.93l.879 2.869A2755.285 2755.285 0 00134.4 66.07a779.077 779.077 0 008.435-2.702c1.112-.365 2.047-.68 2.741-.923.346-.122.641-.23.873-.32a4.75 4.75 0 00.635-.285l-1.512-2.591zm-30.008 10.009L91.65 56.137l-1.443 2.63L114.12 71.89l1.443-2.63zM91.61 56.116l-6.356-3.24-1.362 2.673 6.355 3.24 1.363-2.673zm-6.034-3.018a2.144 2.144 0 01-.505-.749c-.118-.305-.119-.553-.001-.791l-2.69-1.329c-.581 1.178-.445 2.331-.107 3.203a5.13 5.13 0 001.297 1.896l2.006-2.23zm-.506-1.54c.666-1.35 5.122-8.921 7.31-12.609l-2.58-1.53c-2.14 3.605-6.687 11.327-7.42 12.81l2.69 1.329zm30.149-1.49l-1.87 20.368 2.987.275 1.871-20.368-2.988-.275zm42.279-10.517c-3.006-1.34-8.852-3.892-15.416-6.27-6.538-2.37-13.899-4.606-19.907-5.262l-.325 2.983c5.636.614 12.719 2.747 19.21 5.1 6.465 2.341 12.235 4.86 15.217 6.19l1.221-2.74zm-35.673-11.529c-1.803.228-3.589.509-5.044.457-.719-.026-1.197-.132-1.482-.269-.224-.108-.276-.2-.309-.328l-2.906.743c.285 1.117 1.023 1.858 1.912 2.287.829.4 1.788.534 2.679.565 1.768.063 3.901-.273 5.526-.479l-.376-2.976zm-6.835-.14c-.063-.249-.011-.328.016-.37.06-.092.227-.26.613-.432.786-.352 1.973-.495 2.988-.42l.219-2.993c-1.335-.098-3.055.06-4.431.674-.695.31-1.422.792-1.906 1.54-.518.797-.66 1.748-.405 2.744l2.906-.743zm3.617-1.223c.508.037 1.106.236 1.629.513a3.8 3.8 0 01.6.386c.169.136.157.167.103.066l2.639-1.426c-.222-.412-.568-.74-.855-.973a6.78 6.78 0 00-1.082-.704c-.78-.413-1.784-.778-2.815-.854l-.219 2.992zm2.332.965c.163.302.386.476.498.554.126.088.245.145.326.18a2.9 2.9 0 00.453.152c.265.07.597.131.955.19.723.12 1.745.256 2.958.424 2.449.339 5.812.82 9.64 1.589 7.685 1.544 17.117 4.228 24.699 9.15l1.633-2.516c-8.056-5.23-17.927-8.005-25.741-9.575-3.921-.788-7.357-1.279-9.82-1.62-1.244-.172-2.208-.301-2.882-.412a8.538 8.538 0 01-.686-.133c-.068-.017-.058-.02-.009.002.025.01.098.044.189.108.078.054.276.203.426.481l-2.639 1.426zm38.984 11.078l-.406 1.872 2.931.636.406-1.872-2.931-.636zm.485 3.575c.779.324 1.639.983 1.979 1.803.272.655.378 1.82-1.205 3.672l2.279 1.95c2.094-2.447 2.52-4.788 1.697-6.771-.754-1.818-2.402-2.927-3.601-3.425l-1.149 2.771zm.414 6.415l-.682 29.347 2.999.07.682-29.347-2.999-.07zm-.681 29.327c-.013.365-.168 1.024-.601 1.594-.395.52-1.064 1.03-2.279 1.143l.28 2.987c2.067-.194 3.495-1.14 4.388-2.315.854-1.125 1.178-2.401 1.21-3.3l-2.998-.109zm-2.88 2.737c-2.409.226-3.984-1.56-4.454-2.514l-2.692 1.325c.755 1.532 3.271 4.566 7.426 4.176l-.28-2.987zm-4.31-2.028a33.162 33.162 0 01-.179-2.225c-.041-.902-.033-1.712.042-2.197l-2.964-.462c-.125.804-.117 1.873-.075 2.795.044.952.129 1.874.196 2.441l2.98-.352zm-.137-4.421c.19-1.216 3.945-17.423 5.823-25.473l-2.921-.681c-1.85 7.93-5.653 24.329-5.866 25.69l2.964.463zm5.496-26.796c-.326-.376-.67-1.36-.465-2.492.187-1.028.817-2.1 2.318-2.75l-1.192-2.754c-2.48 1.074-3.724 3.018-4.078 4.969-.334 1.844.117 3.8 1.15 4.992l2.267-1.965zm1.932-7.959l-2.436-1.227-1.349 2.68 2.435 1.227 1.35-2.68zm-2.886 1.596l4.257-.645-.449-2.966-4.257.645.449 2.966zM44.682-3.196c.456-.028.93-.054 1.422-.08l-.155-2.996c-.5.026-.984.053-1.449.081l.182 2.995zm1.422-.08c14.172-.733 42.825-.495 72.585 1.626 29.805 2.123 60.502 6.12 78.875 12.83l1.029-2.818c-18.811-6.87-49.89-10.882-79.691-13.005-29.845-2.126-58.626-2.37-72.953-1.629l.155 2.996zm151.609 14.679c-.757 25.075-5.86 65.266-12.022 102.828-6.167 37.591-13.362 72.346-18.266 86.598l2.837.976c4.998-14.528 12.227-49.528 18.389-87.088 6.167-37.588 11.297-77.941 12.061-103.224l-2.999-.09zm-30.288 189.426c-.026.075-.056.099-.071.109-.018.011-.068.038-.174.034l-.115 2.998c1.419.055 2.712-.755 3.197-2.165l-2.837-.976zM197.564 11.18a.23.23 0 01.117.08.238.238 0 01.032.143l2.999.09a3.191 3.191 0 00-2.119-3.13l-1.029 2.817zM44.5-6.19c-1.485.09-2.642 1.115-2.978 2.514l2.917.701a.307.307 0 01.091-.169.244.244 0 01.152-.052L44.5-6.191zm2.97 2.146c13.37-.814 42.215-.655 72.454 1.436 30.282 2.094 61.732 6.113 80.427 12.94l1.029-2.818C182.244.525 150.406-3.507 120.131-5.6 89.813-7.697 60.83-7.863 47.287-7.039l.182 2.995zM200.5 10.552c-.767 25.097-6.189 66.108-12.674 104.501-6.489 38.418-14.009 74.008-18.931 88.307l2.836.976c5.015-14.567 12.569-50.395 19.053-88.783 6.489-38.413 11.941-79.594 12.714-104.91l-2.998-.091zM168.895 203.36c-.026.074-.056.097-.069.106-.017.011-.068.038-.174.034l-.12 2.997c1.418.057 2.713-.748 3.199-2.161l-2.836-.976zm31.456-193.028c.075.027.105.061.118.08.013.02.033.06.031.14l2.998.091a3.185 3.185 0 00-2.118-3.129l-1.029 2.818zM47.287-7.038a3.217 3.217 0 00-2.511 1.436l2.501 1.656a.201.201 0 01.068-.066.278.278 0 01.124-.032l-.182-2.995zm-2.511 1.436a3.378 3.378 0 00-.467 1.078l2.918.7a.383.383 0 01.05-.122l-2.502-1.656zm-3.254 1.926c-2.322 9.67-5.453 21.551-8.9 34.66-3.445 13.101-7.204 27.418-10.777 41.93-7.138 29-13.559 58.883-15.235 81.499l2.992.222c1.655-22.34 8.018-52.006 15.156-81.004 3.567-14.486 7.32-28.78 10.766-41.884 3.444-13.097 6.584-25.015 8.915-34.722l-2.917-.7zm2.788-.848C39.745 14.479 31.941 42.05 24.72 70.753c-7.197 28.605-13.783 58.209-15.795 80.902l2.988.265c1.99-22.433 8.52-51.831 15.716-80.435 7.173-28.507 15.044-56.353 19.598-75.308l-2.917-.701zM168.651 203.5c-26.397-1.061-75.186-8.884-111.847-16.016l-.573 2.945c36.662 7.132 85.651 14.998 112.3 16.068l.12-2.997zM56.805 187.484a1060.585 1060.585 0 01-18.73-3.807l-.627 2.934c5.707 1.218 12.04 2.506 18.784 3.818l.573-2.945zm110.375 13.488c-25.476-.98-73.463-7.413-110.418-13.495l-.487 2.96c36.963 6.084 85.11 12.545 110.79 13.533l.115-2.998zM56.762 187.477a1163.801 1163.801 0 01-21.922-3.808l-.545 2.95a1171.566 1171.566 0 0021.98 3.818l.487-2.96zm-20.637-7.282a16.127 16.127 0 01-3.96 3.782l1.676 2.488a19.125 19.125 0 004.694-4.483l-2.41-1.787zm-25.1 3.466c-8.951-6.65-9.605-17.435-3.62-25.505l-2.41-1.787c-6.867 9.26-6.175 21.961 4.24 29.7l1.79-2.408zm-3.62-25.505a16.126 16.126 0 013.96-3.782l-1.676-2.489a19.148 19.148 0 00-4.694 4.484l2.41 1.787zm25.101-3.466c8.95 6.65 9.604 17.434 3.62 25.505l2.409 1.787c6.867-9.26 6.176-21.962-4.24-29.7l-1.789 2.408zm-.34 29.287c-3.288 2.214-6.768 3.457-10.288 3.506-3.507.049-7.17-1.085-10.854-3.822l-1.789 2.408c4.155 3.087 8.451 4.473 12.684 4.414 4.219-.059 8.256-1.549 11.922-4.018l-1.675-2.488zm-20.802-29.603c3.288-2.214 6.768-3.457 10.289-3.506 3.506-.049 7.17 1.085 10.853 3.822l1.79-2.408c-4.156-3.088-8.452-4.473-12.685-4.414-4.218.059-8.256 1.549-11.922 4.017l1.675 2.489zm25.652 25.22c-3.002 4.049-7.048 6.555-11.409 7.248-4.352.691-9.143-.403-13.692-3.782l-1.789 2.408c5.135 3.815 10.73 5.166 15.952 4.336 5.211-.828 9.925-3.807 13.348-8.423l-2.41-1.787zm-25.1 3.466c-8.951-6.65-9.605-17.435-3.62-25.505l-2.41-1.787c-6.867 9.26-6.175 21.961 4.24 29.7l1.79-2.408zm-3.62-25.505c3.003-4.049 7.048-6.555 11.41-7.248 4.351-.692 9.143.402 13.691 3.781l1.79-2.408c-5.135-3.815-10.73-5.166-15.952-4.336-5.212.828-9.925 3.808-13.349 8.424l2.41 1.787zm25.101-3.467c8.95 6.651 9.604 17.435 3.62 25.506l2.41 1.787c6.866-9.261 6.175-21.962-4.24-29.701l-1.79 2.408zm-11.432 6.158l-1.506 7.676 2.944.577 1.506-7.676-2.944-.577zm-1.506 7.676l-1.506 7.676 2.944.578 1.506-7.677-2.944-.577zm1.183 1.761l7.089 1.389.577-2.944-7.089-1.389-.577 2.944zm.577-2.944l-6.3-1.236-.578 2.944 6.301 1.236.577-2.944z" fill="#7831B2"/></svg>