<svg width="137" height="131" fill="none" xmlns="http://www.w3.org/2000/svg"><path d="M110.094 49.523l-1.419-.486 1.419.486zM79.966 62.258l-.49 1.418.49-1.418zM63.985 33.62l1.42.485-1.42-.485zm30.128-12.736l.49-1.418-.49 1.418zM106.89 55.4l-1.177-.93 1.177.93zm-39.7-27.658l-1.176-.93 1.176.93zm5.625-16.755l-.41-1.443.41 1.443zm-23.72 23.596l1.495-.13-.001-.014-.002-.013-1.492.157zm2.39 12.91l.983-1.133-.983 1.134zM62.166 45.5l1.293.761.131-.222.05-.254-1.474-.285zm-.541-11.632l1.465-.32-.02-.088-.029-.085-1.416.493zm-3.923-3.78l.275 1.475-.275-1.475zm52.436-9.24l.625 1.363.095-.044.088-.056-.808-1.264zm6.869-1.284l.597-1.376-.597 1.377zm4.435 9.56l-1.49.17 1.49-.17zm-2.113 10.182l-.275-1.475.275 1.475zm4.157-3.87a1.5 1.5 0 00-2.964.466l2.964-.466zm-4.977 13.777a1.5 1.5 0 100 3v-3zm52.665-28.226l-1.419.485 1.419-.485zM159.68-.091l-1.177.93 1.177-.93zM63.134-24.685l-.489-1.418.49 1.418zM5.828 78.016l-1.42.485 1.42-.485zM17.32 99.093l-1.177.93 1.177-.93zm96.546 24.594l.489 1.418-.489-1.418zm58.306-103.704l-1.419.485 1.419-.485zM160.679-1.094l-1.177.93 1.177-.93zM64.133-25.688l-.489-1.418.49 1.418zM6.826 77.013l-1.42.485 1.42-.485zM18.32 98.09l-1.177.93 1.177-.93zm96.546 24.594l.489 1.418-.489-1.418zm-5.45-74.591c-3.589 10.498-16.121 15.976-28.22 11.803l-.977 2.836c13.367 4.61 27.812-1.315 32.036-13.669l-2.839-.97zm-28.22 11.803c-12.1-4.174-18.64-16.234-15.05-26.736l-2.839-.97c-4.222 12.349 3.546 25.932 16.912 30.542l.978-2.836zM66.147 33.16c3.59-10.498 16.121-15.976 28.22-11.803l.978-2.836c-13.367-4.61-27.813 1.315-32.037 13.668l2.839.971zm28.22-11.803c12.1 4.173 18.641 16.234 15.05 26.736l2.839.97c4.223-12.349-3.546-25.932-16.911-30.542l-.978 2.836zm14.309 27.68a18.245 18.245 0 01-2.963 5.433l2.353 1.86a21.24 21.24 0 003.448-6.322l-2.838-.97zM80.455 60.84c-12.1-4.173-18.642-16.234-15.05-26.736l-2.84-.97c-4.222 12.349 3.547 25.932 16.912 30.542l.978-2.836zm-15.05-26.736a18.257 18.257 0 012.962-5.432l-2.353-1.86a21.258 21.258 0 00-3.448 6.322l2.838.97zm28.22-11.803c12.099 4.174 18.641 16.235 15.05 26.736l2.838.97c4.223-12.348-3.545-25.932-16.91-30.542l-.979 2.836zm12.087 32.169c-5.378 6.802-15.487 9.74-25.257 6.37l-.978 2.836c10.843 3.74 22.337.561 28.588-7.346l-2.353-1.86zM68.367 28.672c5.378-6.802 15.487-9.74 25.257-6.37l.978-2.837c-10.843-3.74-22.337-.56-28.588 7.346l2.353 1.86zm-17.43 71.975c-.873-5.512-.37-13.991 3.94-21.41 4.259-7.331 12.335-13.802 26.993-15.271l-.3-2.985c-15.536 1.557-24.506 8.52-29.288 16.75-4.73 8.144-5.263 17.355-4.31 23.385l2.964-.469zm0 0c-.845-5.333.904-14.212 6.046-21.917 5.094-7.633 13.43-13.982 25.677-14.547l-.138-2.997c-13.36.616-22.506 7.595-28.035 15.879-5.48 8.213-7.496 17.842-6.514 24.051l2.963-.469zm52.979-39.708c7.886-1.566 25.764.423 33.423 21.443l2.819-1.027c-8.312-22.81-27.951-25.122-36.827-23.359l.585 2.943zm-.976.225c7.845-1.558 25.648.827 33.319 21.88l2.818-1.027c-8.299-22.777-27.803-25.566-36.721-23.795l.584 2.942zM61.547 30.69c-.354-2.367-.198-6.19 1.44-9.784 1.609-3.535 4.662-6.89 10.238-8.476l-.82-2.886c-6.494 1.848-10.206 5.852-12.15 10.118-1.915 4.206-2.1 8.629-1.675 11.472l2.967-.444zm11.678-18.26c7.468-2.126 15.051-3.24 21.21-2.01 3.055.61 5.714 1.789 7.847 3.667 2.126 1.871 3.81 4.508 4.814 8.17l2.893-.794c-1.139-4.156-3.107-7.324-5.725-9.628-2.61-2.298-5.786-3.666-9.241-4.356-6.862-1.371-15-.104-22.619 2.065l.822 2.886zM47.602 34.712c.172 1.977.499 5.005.924 7.671.212 1.33.454 2.603.721 3.622.133.508.282.987.45 1.394.143.348.387.864.807 1.228l1.965-2.267c.146.127.12.183 0-.106a8.262 8.262 0 01-.32-1.01c-.23-.88-.454-2.042-.66-3.333-.41-2.575-.73-5.527-.898-7.458l-2.989.26zm2.902 13.915c.61.529 1.558.902 2.493 1.138.991.25 2.182.4 3.42.349 2.453-.101 5.374-1.019 7.043-3.854l-2.585-1.522c-.958 1.627-2.693 2.3-4.58 2.378a9.162 9.162 0 01-2.563-.26 5.83 5.83 0 01-.898-.297 2.593 2.593 0 01-.342-.182l-.023-.017-1.965 2.267zm13.136-2.843c.812-4.206-.045-9.936-.55-12.238l-2.93.643c.484 2.207 1.227 7.442.535 11.026l2.945.569zm-.598-12.41c-.285-.82-.852-2.03-1.673-3.02-.778-.94-2.135-2.079-3.941-1.741l.55 2.949c.152-.028.51.016 1.081.705.529.639.944 1.502 1.15 2.094l2.833-.987zm-5.614-4.761c-.56.104-1.315.173-2.357.31-.974.127-2.107.304-3.172.617-1.045.307-2.175.786-3.025 1.609-.918.889-1.425 2.102-1.27 3.59l2.984-.313c-.057-.547.1-.857.372-1.122.341-.33.93-.635 1.784-.885.834-.245 1.78-.4 2.716-.522.868-.113 1.855-.211 2.518-.335l-.55-2.95zm53.519-6.503c.551-.352 1.55-.856 2.645-1.151 1.125-.304 2.115-.325 2.82-.02l1.193-2.752c-1.613-.7-3.396-.502-4.795-.125a13.175 13.175 0 00-3.479 1.52l1.616 2.528zm5.465-1.17c1.153.5 1.782 1.078 2.266 2.146.548 1.21.916 3.066 1.275 6.207l2.98-.34c-.356-3.119-.756-5.414-1.522-7.105-.831-1.832-2.061-2.904-3.806-3.66l-1.193 2.752zm3.541 8.353c.371 3.252.663 5.395.499 6.86-.077.686-.239 1.025-.392 1.208-.134.16-.388.354-1.005.47l.551 2.948c1.1-.205 2.058-.661 2.754-1.493.677-.808.962-1.802 1.073-2.8.213-1.9-.157-4.527-.5-7.534l-2.98.34zm-.898 8.537c-1.69.316-3.2.436-4.432.006-1.097-.383-2.216-1.292-2.945-3.666l-2.868.88c.952 3.104 2.659 4.863 4.826 5.619 2.032.708 4.225.436 5.97.11l-.551-2.949zm-7.377-3.66c-.82-2.676-1.477-5.686-1.617-8.125-.07-1.228-.003-2.217.185-2.917.191-.713.432-.879.518-.918l-1.249-2.728c-1.246.57-1.866 1.745-2.167 2.87-.305 1.14-.361 2.488-.282 3.864.158 2.767.884 6.03 1.744 8.833l2.868-.88zm8.845 1.731c.511 3.25 1.252 6.173 1.797 8.42.276 1.14.494 2.075.622 2.818.063.37.098.66.11.884.012.236-.007.325-.006.321l2.911.725c.184-.74.077-1.646-.058-2.437-.148-.86-.391-1.892-.664-3.018-.553-2.283-1.261-5.076-1.748-8.179l-2.964.466zm2.523 12.443c.036-.144.104-.095-.165.068-.257.154-.661.31-1.198.443-1.066.263-2.336.358-3.173.358v3c.993 0 2.52-.107 3.892-.445.682-.169 1.408-.414 2.026-.786.605-.364 1.293-.967 1.529-1.913l-2.911-.725zm49.549-27.843a72.367 72.367 0 00-11.737-21.522L158.503.84a69.349 69.349 0 0111.252 20.632l2.839-.97zM160.857-1.021c-21.287-26.925-60.715-38.014-98.212-25.082l.979 2.836C100.046-35.829 138.09-24.98 158.503.84l2.354-1.86zM62.645-26.103C16.353-10.136-9.918 36.607 4.408 78.501l2.838-.97C-6.447 37.483 18.596-7.736 63.624-23.267l-.979-2.836zM4.408 78.501a72.357 72.357 0 0011.736 21.522l2.354-1.86A69.355 69.355 0 017.246 77.53l-2.838.97zm11.736 21.522c21.287 26.925 60.716 38.014 98.212 25.082l-.978-2.836c-36.423 12.562-74.467 1.714-94.88-24.107l-2.354 1.861zm98.212 25.082c46.292-15.967 72.563-62.71 58.238-104.604l-2.839.97c13.694 40.048-11.35 85.267-56.377 100.798l.978 2.836zm59.236-105.607a72.322 72.322 0 00-11.737-21.522l-2.353 1.86a69.349 69.349 0 0111.252 20.632l2.838-.97zM161.855-2.024c-21.286-26.925-60.715-38.014-98.211-25.082l.978 2.837c36.423-12.563 74.467-1.715 94.88 24.106l2.353-1.86zM63.644-27.106C17.352-11.139-8.919 35.604 5.406 77.498l2.839-.97C-5.45 36.48 19.595-8.74 64.622-24.27l-.978-2.836zM5.406 77.498A72.355 72.355 0 0017.143 99.02l2.354-1.86A69.355 69.355 0 018.245 76.527l-2.839.97zM17.143 99.02c21.287 26.925 60.715 38.014 98.212 25.082l-.979-2.836c-36.422 12.562-74.466 1.714-94.88-24.107l-2.353 1.86zm98.212 25.082c46.292-15.967 72.563-62.709 58.237-104.604l-2.838.97c13.693 40.048-11.351 85.267-56.378 100.798l.979 2.836z" fill="#7831B2"/></svg>