<svg width="192" height="162" viewBox="0 0 192 162" fill="none" xmlns="http://www.w3.org/2000/svg">
<path d="M12.1657 73.3694L2.54453 44.2715C1.67593 41.6446 3.13927 38.9279 5.78233 38.2607L103.19 13.6703L156.651 -1.81597L197.85 -10.9311C200.333 -11.4805 202.915 -10.0212 203.768 -7.58647L214.767 23.8183M12.1657 73.3694L38.4468 155.806C39.2686 158.384 42.0154 159.918 44.5935 159.24L238.3 108.28C240.934 107.588 242.369 104.858 241.477 102.239L214.767 23.8183M12.1657 73.3694L128.835 93.2123C130.241 93.4515 131.655 93.0829 132.713 92.2012L214.767 23.8183M125.05 74.9844L135.923 72.5006L147.042 106.88L136.139 109.125M125.05 74.9844L114.176 77.4682L125.236 111.37L136.139 109.125M125.05 74.9844L136.139 109.125M69.2985 19.9372L64.7083 6.0121C64.2712 4.68617 65.0167 3.31625 66.3537 2.99072L126.573 -11.6714C127.644 -11.9324 128.789 -11.4411 129.317 -10.4453C130.634 -7.96231 133.007 -3.04636 134.1 1.97306M68.2266 19.4371C65.632 14.3678 64.0058 7.70016 63.2889 4.30736C63.0272 3.06855 63.7981 1.91487 65.025 1.64644L99.2617 -5.84427L128.157 -13.4466C129.427 -13.7806 130.784 -13.0452 131.222 -11.7851L136.445 3.2241M14.8071 73.3094L5.18594 44.2116C4.31734 41.5846 5.78069 38.868 8.42374 38.2007L105.831 13.6104L159.292 -1.87594L200.492 -10.9911C202.975 -11.5405 205.557 -10.0812 206.409 -7.64644L217.408 23.7583M14.8071 73.3094C14.8071 73.3094 133.693 100.191 133.689 93.5288C133.686 86.8665 217.408 23.7583 217.408 23.7583M14.8071 73.3094L32.2043 130.456L40.9841 155.814C41.8655 158.36 44.6235 159.828 47.1731 159.109L148.558 130.514L240.82 108.151C243.504 107.5 244.991 104.74 244.087 102.086L217.408 23.7583M126.34 73.0443L137.214 70.5605L148.332 104.94L137.43 107.185M126.34 73.0443L115.467 75.5281L126.527 109.43L137.43 107.185M126.34 73.0443L137.43 107.185M75.6056 17.7968L72.5045 9.22766C72.0063 7.85106 72.8023 6.40608 74.2171 6.11873L125.283 -4.25282C126.47 -4.49392 127.697 -3.82841 128.165 -2.69012L131.912 6.42966" stroke="#7831B2" stroke-width="4" stroke-linejoin="round"/>
</svg>
