<svg width="209" height="207" viewBox="0 0 209 207" fill="none" xmlns="http://www.w3.org/2000/svg">
<path d="M48.5102 98.6558H156.418L156.57 98.528M156.57 98.528L195.418 65.9296M156.57 98.528L156.418 98.1M156.57 98.528L174.217 148.12M195.418 65.9296L271 2.50688V-7.49705H122.488M195.418 65.9296L195.353 65.8651M195.418 65.9296L227.614 98.1M120.263 -7.49705L6.23724 86.9845C4.38316 89.2076 1.78745 94.2096 6.23724 96.4327C10.687 98.6558 28.4861 98.4705 36.8295 98.1M87.4459 99.7673L84.1086 135.893C84.294 137.931 85.4435 142.228 88.5584 143.118C91.6732 144.007 146.962 146.823 174.217 148.12M174.217 148.12L225.946 99.7673L239.851 87.5403C240.964 85.873 242.521 81.7603 239.851 78.6479C237.182 75.5356 220.94 59.1958 213.153 51.415M204.809 58.0843L235.958 90.875M36.8295 97.5443C69.6467 61.9748 126.938 45.3016 127.494 43.0785C127.939 41.3 131.483 37.6807 135.281 36.4092C141.081 34.4673 150.299 34.1861 150.299 40.8554C150.299 47.5247 132.5 51.4151 123.601 52.5266C95.1218 63.1975 61.3034 86.9846 47.954 97.5443L46.8415 103.102C57.966 104.88 55.9265 114.958 53.5162 119.775C63.3429 138.672 83.3299 177.242 84.6648 180.355C85.9997 183.467 87.0751 189.803 87.4459 192.582C86.7043 196.101 83.1074 203.475 74.6528 204.809C66.1982 206.142 62.2304 200.177 61.3034 197.028L40.7232 123.666C28.7087 115.218 34.6047 106.437 39.0545 103.102L36.8296 98.6558M46.7299 98.6558H154.637L154.79 98.528M154.79 98.528L193.638 65.9296M154.79 98.528L154.637 98.1M154.79 98.528L172.437 148.12M193.638 65.9296L269.22 2.50688V-7.49705H120.708M193.638 65.9296L193.573 65.8651M193.638 65.9296L225.834 98.1M118.483 -7.49705L4.45696 86.9845C3.44681 88.1957 2.21652 90.2318 2.02544 92.1939M2.02544 92.1939C1.86581 93.8332 2.43153 95.4208 4.45696 96.4327C8.90676 98.6558 26.7059 98.4705 35.0492 98.1M2.02544 92.1939C1.78699 89.9554 3.27315 87.4031 4.45696 85.9837L120.696 -11M2.02544 92.1939C2.16045 93.4613 2.84833 94.6282 4.45696 95.4319C8.90676 97.655 26.7059 97.4697 35.0492 97.0992M85.6656 99.7673L82.3283 135.893C82.5137 137.931 83.6632 142.228 86.7781 143.118C86.8078 143.126 86.8423 143.135 86.8814 143.144M86.8814 143.144C90.9455 144.061 145.442 146.835 172.437 148.12M86.8814 143.144C90.1524 143.861 102.424 137.243 172.437 148.12M172.437 148.12L224.166 99.7673M172.437 148.12L198.825 122.112L224.166 99.7673M224.166 99.7673L238.071 87.5403C239.184 85.873 240.741 81.7603 238.071 78.6479C235.401 75.5356 219.159 59.1958 211.372 51.415M203.029 58.0843L234.178 90.875M35.0492 97.5443C67.6083 61.561 125.158 45.3016 125.714 43.0785C126.159 41.3 129.703 37.6807 133.501 36.4092C139.301 34.4673 148.519 34.1861 148.519 40.8554C148.519 47.5247 130.72 51.4151 121.82 52.5266C93.3415 63.1975 59.5231 86.9846 46.1737 97.5443L45.0612 103.102C56.1857 104.88 54.1462 114.958 51.7359 119.775C61.5625 138.672 81.5495 177.242 82.8845 180.355C84.2194 183.467 85.2948 189.803 85.6656 192.582C84.924 196.101 81.3271 203.475 72.8724 204.809C64.4178 206.142 60.4501 200.177 59.5231 197.028L38.9429 123.666C26.9284 115.218 32.8244 106.437 37.2742 103.102L35.0493 98.6558" stroke="#7831B2" stroke-width="3" stroke-linecap="round"/>
</svg>
