<svg width="226" height="180" viewBox="0 0 226 180" fill="none" xmlns="http://www.w3.org/2000/svg">
<mask id="path-1-outside-1_328_11065" maskUnits="userSpaceOnUse" x="-3.25351e-08" y="-36" width="275" height="216" fill="black">
<rect fill="white" x="-3.25351e-08" y="-36" width="275" height="216"/>
<path d="M98.2904 8.3305C99.366 10.1215 100.966 11.1389 101.865 10.603C102.764 10.0672 102.62 8.18088 101.545 6.38991C100.469 4.59895 98.8688 3.58151 97.9701 4.11739C97.0714 4.65327 97.2149 6.53955 98.2904 8.3305Z"/>
<path d="M97.2502 8.06981C98.3257 9.86077 99.9261 10.8782 100.825 10.3423C101.723 9.80646 101.58 7.92018 100.504 6.12921C99.4289 4.33826 97.8285 3.32081 96.9299 3.85669C96.0312 4.39257 96.1746 6.27885 97.2502 8.06981Z"/>
<path d="M85.276 16.0932C86.3516 17.8841 87.952 18.9016 88.8506 18.3657C89.7493 17.8298 89.6059 15.9435 88.5303 14.1526C87.4548 12.3616 85.8544 11.3442 84.9557 11.8801C84.057 12.4159 84.2005 14.3022 85.276 16.0932Z"/>
<path d="M84.2355 15.8325C85.311 17.6235 86.9114 18.6409 87.8101 18.1051C88.7088 17.5692 88.5653 15.6829 87.4898 13.892C86.4142 12.101 84.8138 11.0835 83.9152 11.6194C83.0165 12.1553 83.1599 14.0416 84.2355 15.8325Z"/>
<path d="M72.2588 23.8555C73.3343 25.6465 74.9347 26.6639 75.8334 26.128C76.7321 25.5922 76.5886 23.7059 75.5131 21.9149C74.4375 20.124 72.8371 19.1065 71.9385 19.6424C71.0398 20.1783 71.1832 22.0646 72.2588 23.8555Z"/>
<path d="M71.2183 23.5952C72.2939 25.3861 73.8943 26.4036 74.793 25.8677C75.6916 25.3318 75.5482 23.4456 74.4726 21.6546C73.3971 19.8636 71.7967 18.8462 70.898 19.3821C69.9994 19.9179 70.1428 21.8042 71.2183 23.5952Z"/>
<path d="M163.021 76.1358C161.36 78.1838 159.181 79.1733 158.153 78.3459C157.125 77.5185 157.638 75.1875 159.299 73.1395C160.96 71.0915 163.139 70.1019 164.167 70.9294C165.194 71.7568 164.681 74.0878 163.021 76.1358Z"/>
<path d="M164.366 75.9931C162.705 78.0412 160.526 79.0307 159.499 78.2033C158.471 77.3759 158.984 75.0449 160.645 72.9968C162.305 70.9488 164.485 69.9593 165.512 70.7867C166.54 71.6141 166.027 73.9451 164.366 75.9931Z"/>
<path d="M176.921 88.121C175.26 90.169 174.064 91.1585 173.036 90.3311C172.008 89.5037 172.522 87.1727 174.182 85.1247C175.843 83.0767 178.022 82.0871 179.05 82.9146C180.077 83.742 178.581 86.0729 176.921 88.121Z"/>
<path d="M179.25 87.9784C177.589 90.0264 175.41 91.0159 174.382 90.1885C173.354 89.3611 173.867 87.0301 175.528 84.9821C177.189 82.9341 179.368 81.9446 180.396 82.772C181.423 83.5994 180.91 85.9304 179.25 87.9784Z"/>
<path d="M192.79 100.106C191.129 102.154 188.95 103.144 187.922 102.316C186.894 101.489 187.407 99.1581 189.068 97.11C190.729 95.062 192.908 94.0725 193.936 94.8999C194.963 95.7273 194.45 98.0583 192.79 100.106Z"/>
<path d="M194.135 99.964C192.474 102.012 190.295 103.002 189.267 102.174C188.24 101.347 188.753 99.0157 190.414 96.9677C192.074 94.9197 194.254 93.9302 195.281 94.7576C196.309 95.585 195.796 97.916 194.135 99.964Z"/>
<path d="M150.867 94.5193C149.206 96.5673 147.027 97.5568 146 96.7294C144.972 95.902 145.485 93.571 147.146 91.523C148.806 89.4749 150.986 88.4854 152.013 89.3128C153.041 90.1402 152.528 92.4712 150.867 94.5193Z"/>
<path d="M152.213 94.3766C150.552 96.4247 148.373 97.4142 147.345 96.5868C146.318 95.7594 146.831 93.4284 148.491 91.3803C150.152 89.3323 152.331 88.3428 153.359 89.1702C154.387 89.9976 153.873 92.3286 152.213 94.3766Z"/>
<path d="M165.75 106.504C164.09 108.552 161.91 109.542 160.883 108.715C159.855 107.887 160.368 105.556 162.029 103.508C163.69 101.46 165.869 100.471 166.896 101.298C167.924 102.125 167.411 104.456 165.75 106.504Z"/>
<path d="M167.096 106.362C165.435 108.41 163.256 109.399 162.229 108.572C161.201 107.745 161.714 105.414 163.375 103.366C165.035 101.318 167.215 100.328 168.242 101.155C169.27 101.983 168.757 104.314 167.096 106.362Z"/>
</mask>
<path d="M2.95953 28.4775C2.16254 29.2423 2.13642 30.5084 2.9012 31.3054C3.66598 32.1023 4.93204 32.1285 5.72903 31.3637L2.95953 28.4775ZM3 31.2L1.61525 29.757L0.719984 30.616L1.09203 31.7997L3 31.2ZM108.717 41.4532C107.704 41.8935 107.239 43.0717 107.68 44.0847C108.12 45.0977 109.298 45.5619 110.311 45.1215L108.717 41.4532ZM125.646 36.2744L126.443 38.1085L127.954 37.4516L127.598 35.8426L125.646 36.2744ZM125.934 35.8932L126.631 37.7678L128.137 37.2079L127.915 35.6163L125.934 35.8932ZM108.894 41.1245C107.91 41.6264 107.519 42.8309 108.021 43.8149C108.523 44.7989 109.727 45.1896 110.711 44.6878L108.894 41.1245ZM117.15 39.1583L116.453 37.2836L116.345 37.324L116.241 37.3767L117.15 39.1583ZM112.454 68.628L114.439 68.3845L112.454 68.628ZM109.254 70.3791L110.521 68.8319L109.254 70.3791ZM88.5859 50.8633C87.7314 50.1633 86.4713 50.2886 85.7713 51.1431C85.0714 51.9976 85.1967 53.2577 86.0511 53.9576L88.5859 50.8633ZM108.667 69.2882L107.39 70.827L108.667 69.2882ZM100.96 62.8898L102.237 61.351L102.229 61.3441L102.22 61.3372L100.96 62.8898ZM88.4077 50.1217C87.5502 49.4255 86.2906 49.5562 85.5944 50.4137C84.8981 51.2712 85.0288 52.5308 85.8863 53.227L88.4077 50.1217ZM110.657 58.8159L108.664 58.9761L108.669 59.0346L108.677 59.0927L110.657 58.8159ZM111.873 67.5127L113.854 67.2358L111.873 67.5127ZM30.7909 74.0451L29.8644 72.2726L31.5242 75.9058L30.7909 74.0451ZM17.4102 36.3557C17.1399 35.2847 16.0526 34.6356 14.9816 34.9059C13.9106 35.1762 13.2615 36.2635 13.5318 37.3345L17.4102 36.3557ZM25.6479 59.8617C26.4392 60.6324 27.7054 60.6158 28.4761 59.8245C29.2468 59.0332 29.2301 57.767 28.4388 56.9963L25.6479 59.8617ZM39.4043 8.04678C38.5042 8.68703 38.2936 9.93571 38.9338 10.8358C39.5741 11.7359 40.8228 11.9465 41.7229 11.3063L39.4043 8.04678ZM269.254 128.623C269.936 129.492 271.193 129.643 272.062 128.961C272.931 128.279 273.082 127.022 272.4 126.153L269.254 128.623ZM270.707 130.457C271.389 131.326 272.646 131.478 273.515 130.795C274.384 130.113 274.535 128.856 273.853 127.987L270.707 130.457ZM136.01 127.289C136.952 127.867 138.184 127.572 138.761 126.63C139.338 125.688 139.043 124.457 138.102 123.88L136.01 127.289ZM118.147 113.988L116.274 113.286L115.696 114.83L117.102 115.693L118.147 113.988ZM117.303 113.988L115.38 113.436L114.908 115.079L116.458 115.801L117.303 113.988ZM135.615 126.695C136.519 127.329 137.766 127.11 138.4 126.206C139.035 125.302 138.816 124.055 137.912 123.42L135.615 126.695ZM128.249 119.084L129.397 117.447L129.253 117.345L129.093 117.271L128.249 119.084ZM273 130.011L274.805 130.872L271.314 128.934L273 130.011ZM128.563 157.958L126.632 157.439L128.563 157.958ZM131.486 160.138L132.525 161.847L131.486 160.138ZM164.204 142.592C165.148 142.019 165.448 140.788 164.875 139.845C164.301 138.901 163.071 138.601 162.127 139.174L164.204 142.592ZM132.379 158.91L131.329 157.207L132.379 158.91ZM144.27 151.575L143.239 149.861L143.229 149.867L143.22 149.873L144.27 151.575ZM164.542 141.708C165.488 141.138 165.793 139.909 165.224 138.963C164.654 138.016 163.425 137.711 162.479 138.28L164.542 141.708ZM132.878 144.781L134.8 145.333L134.816 145.276L134.829 145.219L132.878 144.781ZM129.454 156.705L127.531 156.153L129.454 156.705ZM229.312 177.597L228.324 179.336L230.477 175.971L229.312 177.597ZM257.52 134.83C257.938 133.808 257.448 132.64 256.426 132.222C255.403 131.805 254.236 132.295 253.818 133.317L257.52 134.83ZM227.761 97.1761C228.562 97.9358 229.828 97.9018 230.588 97.1001C231.348 96.2983 231.314 95.0324 230.512 94.2727L227.761 97.1761ZM170.87 50.2354C169.86 49.7903 168.679 50.249 168.234 51.26C167.789 52.2709 168.248 53.4512 169.259 53.8963L170.87 50.2354ZM5.72903 31.3637C15.2037 22.272 31.9169 8.18435 51.1755 -4.43976C70.4723 -17.089 92.1226 -28.1336 111.508 -31.358L110.852 -35.3038C90.6372 -31.9415 68.4256 -20.5301 48.9826 -7.78509C29.5013 4.98503 12.5967 19.2299 2.95953 28.4775L5.72903 31.3637ZM4.38475 32.6431C13.8901 23.522 30.543 8.72753 49.9148 -4.4848C69.3326 -17.7285 91.2646 -29.2301 111.361 -32.019L110.812 -35.981C89.7823 -33.0628 67.227 -21.1341 47.661 -7.78938C28.0491 5.58668 11.2218 20.5387 1.61525 29.757L4.38475 32.6431ZM110.311 45.1215L126.443 38.1085L124.848 34.4402L108.717 41.4532L110.311 45.1215ZM127.598 35.8426C123.259 16.2147 114.217 -24.6434 112.781 -30.998L108.879 -30.1162C110.312 -23.7735 119.351 17.0702 123.693 36.7061L127.598 35.8426ZM127.915 35.6163C125.071 15.2692 114.952 -28.0605 113.532 -34.3461L109.63 -33.4643C111.079 -27.0527 121.14 16.0379 123.953 36.17L127.915 35.6163ZM110.711 44.6878L118.059 40.9399L116.241 37.3767L108.894 41.1245L110.711 44.6878ZM117.847 41.033L126.631 37.7678L125.237 34.0185L116.453 37.2836L117.847 41.033ZM34.2301 73.1789C30.6573 69.3103 24.2516 61.6737 18.2534 53.4478C12.2054 45.1536 6.76992 36.5243 4.90798 30.6003L1.09203 31.7997C3.17406 38.4239 8.98971 47.5328 15.0214 55.8046C21.103 64.1447 27.6058 71.9019 31.2916 75.8928L34.2301 73.1789ZM34.2263 73.1779C30.364 68.996 26.6774 66.0648 21.9059 60.044C17.2272 54.1402 11.6813 45.4204 4.81979 30.3704L1.18021 32.0297C8.13718 47.2891 13.8405 56.307 18.771 62.5284C23.6088 68.6328 27.8914 72.2143 31.2878 75.8918L34.2263 73.1779ZM107.379 43.6708L110.469 68.8714L114.439 68.3845L111.349 43.1839L107.379 43.6708ZM110.521 68.8319L88.5859 50.8633L86.0511 53.9576L107.987 71.9262L110.521 68.8319ZM110.469 68.8714C110.471 68.8863 110.469 68.8854 110.471 68.8735C110.473 68.8622 110.478 68.8503 110.483 68.8402C110.488 68.8308 110.493 68.8263 110.493 68.8254C110.494 68.8248 110.493 68.8264 110.489 68.8284C110.487 68.8293 110.486 68.83 110.484 68.8305C110.483 68.831 110.482 68.8311 110.483 68.8311C110.483 68.831 110.488 68.83 110.497 68.8306C110.507 68.8313 110.517 68.8336 110.526 68.8372C110.536 68.8409 110.534 68.8422 110.521 68.8319L107.987 71.9262C110.739 74.1808 114.876 71.9488 114.439 68.3845L110.469 68.8714ZM109.945 67.7493L102.237 61.351L99.6823 64.4287L107.39 70.827L109.945 67.7493ZM102.22 61.3372L88.4077 50.1217L85.8863 53.227L99.6991 64.4425L102.22 61.3372ZM107.456 43.9558L108.664 58.9761L112.651 58.6556L111.444 43.6353L107.456 43.9558ZM108.677 59.0927L109.892 67.7895L113.854 67.2358L112.638 58.539L108.677 59.0927ZM107.39 70.827C110.161 73.1278 114.357 70.8379 113.854 67.2358L109.892 67.7895C109.894 67.8053 109.892 67.8046 109.894 67.7923C109.896 67.7806 109.901 67.7682 109.906 67.7576C109.912 67.7478 109.916 67.7432 109.917 67.7424C109.917 67.7419 109.916 67.7436 109.912 67.7458C109.91 67.7468 109.908 67.7475 109.907 67.7481C109.905 67.7486 109.905 67.7488 109.905 67.7488C109.905 67.7487 109.91 67.7476 109.919 67.7483C109.93 67.7489 109.941 67.7514 109.95 67.7551C109.96 67.759 109.958 67.7604 109.945 67.7493L107.39 70.827ZM86.3631 49.9935L30.0575 72.1843L31.5242 75.9058L87.8297 53.7149L86.3631 49.9935ZM86.4497 49.7869C48.6979 62.1833 42.4649 65.686 29.8644 72.2726L31.7174 75.8175C44.0908 69.3496 50.1159 65.9278 87.6976 53.5872L86.4497 49.7869ZM13.5318 37.3345C14.1398 39.7434 15.4543 43.6833 17.4492 47.8388C19.4378 51.9812 22.1647 56.4691 25.6479 59.8617L28.4388 56.9963C25.425 54.0608 22.9409 50.0356 21.0552 46.1077C19.1757 42.1927 17.9526 38.5047 17.4102 36.3557L13.5318 37.3345ZM41.7229 11.3063C46.8374 7.6683 55.5386 1.91063 64.9673 -3.50031C74.4312 -8.93139 84.4786 -13.9256 92.3292 -16.1389L91.2439 -19.9888C82.8948 -17.635 72.493 -12.431 62.9764 -6.96961C53.4246 -1.48808 44.6142 4.34093 39.4043 8.04678L41.7229 11.3063ZM272.4 126.153C262.018 112.93 243.446 92.1872 221.399 72.8328C199.386 53.5087 173.727 35.4061 149.176 27.6845L147.976 31.5003C171.725 38.9695 196.878 56.6302 218.76 75.8389C240.607 95.0174 259.011 115.577 269.254 128.623L272.4 126.153ZM273.853 127.987C263.479 114.775 244.493 93.1671 221.768 73.0469C199.083 52.9626 172.471 34.1799 146.851 26.8742L145.754 30.7209C170.495 37.7759 196.559 56.0711 219.116 76.0418C241.633 95.9766 260.455 117.401 270.707 130.457L273.853 127.987ZM138.102 123.88L119.193 112.283L117.102 115.693L136.01 127.289L138.102 123.88ZM120.02 114.689C128.969 90.7971 147.505 38.9047 150.446 31.163L146.706 29.7426C143.814 37.3568 125.124 89.6592 116.274 113.286L120.02 114.689ZM119.225 114.54C126.312 89.8614 147.066 37.2665 150.014 29.5074L146.274 28.087C143.389 35.6837 122.528 88.5449 115.38 113.436L119.225 114.54ZM137.912 123.42L129.397 117.447L127.1 120.721L135.615 126.695L137.912 123.42ZM129.093 117.271L118.147 112.175L116.458 115.801L127.405 120.897L129.093 117.271ZM231.777 179.49C237.092 175.15 245.992 166.847 254.461 157.754C262.887 148.706 271.087 138.665 274.805 130.872L271.195 129.149C267.765 136.338 259.95 145.991 251.534 155.028C243.16 164.019 234.392 172.191 229.247 176.392L231.777 179.49ZM231.983 179.549C237.041 175.419 242.186 172.093 248.717 165.496C255.286 158.859 263.328 148.871 274.686 131.087L271.314 128.934C260.044 146.582 252.174 156.317 245.874 162.682C239.535 169.086 234.854 172.04 229.453 176.451L231.983 179.549ZM135.287 125.266L126.632 157.439L130.494 158.478L139.15 126.305L135.287 125.266ZM132.525 161.847L164.204 142.592L162.127 139.174L130.447 158.429L132.525 161.847ZM126.632 157.439C125.698 160.91 129.485 163.695 132.525 161.847L130.447 158.429C130.433 158.438 130.431 158.436 130.441 158.434C130.45 158.432 130.461 158.431 130.471 158.432C130.488 158.433 130.488 158.437 130.48 158.431C130.471 158.425 130.477 158.425 130.485 158.445C130.489 158.456 130.491 158.468 130.492 158.48C130.493 158.492 130.49 158.493 130.494 158.478L126.632 157.439ZM133.429 160.612L145.32 153.277L143.22 149.873L131.329 157.207L133.429 160.612ZM145.301 153.288L164.542 141.708L162.479 138.28L143.239 149.861L145.301 153.288ZM135.095 125.792L130.926 144.342L134.829 145.219L138.997 126.669L135.095 125.792ZM130.955 144.229L127.531 156.153L131.376 157.257L134.8 145.333L130.955 144.229ZM131.329 157.207C131.314 157.217 131.312 157.215 131.322 157.213C131.331 157.21 131.343 157.209 131.353 157.21C131.362 157.211 131.367 157.213 131.367 157.213C131.367 157.213 131.365 157.212 131.362 157.209C131.358 157.206 131.357 157.205 131.358 157.206C131.358 157.207 131.362 157.212 131.366 157.223C131.37 157.234 131.373 157.247 131.373 157.259C131.374 157.272 131.371 157.272 131.376 157.257L127.531 156.153C126.526 159.652 130.364 162.502 133.429 160.612L131.329 157.207ZM162.554 141.966L228.324 179.336L230.3 175.858L164.53 138.489L162.554 141.966ZM162.717 141.817C207.49 163.848 213.804 168.944 228.147 179.222L230.477 175.971C215.936 165.551 209.43 160.344 164.483 138.228L162.717 141.817ZM253.818 133.317C252.746 135.939 250.549 140.362 247.488 144.951C244.42 149.552 240.564 154.199 236.21 157.386L238.573 160.614C243.455 157.039 247.616 151.969 250.816 147.17C254.025 142.359 256.348 137.7 257.52 134.83L253.818 133.317ZM230.512 94.2727C224.672 88.7379 214.711 79.9186 203.765 71.4032C192.851 62.9127 180.821 54.6166 170.87 50.2354L169.259 53.8963C178.735 58.0686 190.443 66.1073 201.309 74.5604C212.143 82.9886 222.005 91.7219 227.761 97.1761L230.512 94.2727ZM150.867 94.5193L153.974 97.0386L150.867 94.5193ZM152.213 94.3766L155.32 96.8959L152.213 94.3766ZM94.8613 10.3899C95.65 11.7033 96.725 12.9056 97.9981 13.7149C99.0463 14.3814 101.469 15.4963 103.914 14.0386L99.8164 7.16749C100.575 6.71526 101.308 6.71017 101.725 6.77844C101.928 6.81163 102.073 6.8627 102.155 6.89688C102.239 6.93163 102.283 6.95934 102.29 6.96373C102.298 6.9691 102.227 6.92293 102.105 6.7916C101.987 6.66514 101.851 6.49048 101.72 6.27114L94.8613 10.3899ZM103.914 14.0386C106.366 12.576 106.528 9.90598 106.434 8.66389C106.319 7.15806 105.762 5.64355 104.974 4.33055L98.1156 8.44927C98.2473 8.66863 98.3374 8.86984 98.3932 9.03192C98.4513 9.20038 98.4577 9.28319 98.4567 9.27037C98.456 9.26075 98.4524 9.20681 98.4615 9.11448C98.4704 9.02364 98.4943 8.86928 98.5618 8.67248C98.7012 8.26625 99.0566 7.62055 99.8164 7.16749L103.914 14.0386ZM104.974 4.33055C104.185 3.01716 103.11 1.81485 101.837 1.00549C100.789 0.339053 98.366 -0.775873 95.9214 0.681841L100.019 7.55293C99.2604 8.00516 98.5271 8.01025 98.1102 7.94197C97.9075 7.90879 97.7625 7.85771 97.6801 7.82354C97.5963 7.78879 97.552 7.76108 97.5451 7.75669C97.5366 7.75132 97.6083 7.79748 97.7305 7.92882C97.8482 8.05528 97.9838 8.22993 98.1156 8.44927L104.974 4.33055ZM95.9214 0.681841C93.4687 2.14444 93.307 4.81442 93.4014 6.05652C93.5159 7.56235 94.0727 9.07686 94.8613 10.3899L101.72 6.27114C101.588 6.05179 101.498 5.85058 101.442 5.6885C101.384 5.52005 101.377 5.43723 101.378 5.45006C101.379 5.45968 101.383 5.51362 101.374 5.60595C101.365 5.69679 101.341 5.85115 101.273 6.04795C101.134 6.45418 100.779 7.09987 100.019 7.55293L95.9214 0.681841ZM93.821 10.1292C94.6098 11.4426 95.6847 12.6449 96.9578 13.4542C98.0061 14.1207 100.429 15.2356 102.873 13.7779L98.7761 6.90679C99.5345 6.45456 100.268 6.44947 100.685 6.51774C100.887 6.55093 101.032 6.60201 101.115 6.63618C101.199 6.67093 101.243 6.69864 101.25 6.70303C101.258 6.7084 101.187 6.66223 101.064 6.5309C100.947 6.40444 100.811 6.22978 100.679 6.01045L93.821 10.1292ZM102.873 13.7779C105.326 12.3153 105.488 9.64528 105.393 8.40319C105.279 6.89736 104.722 5.38285 103.934 4.06985L97.0753 8.18857C97.2071 8.40793 97.2971 8.60914 97.353 8.77123C97.4111 8.93968 97.4175 9.0225 97.4165 9.00967C97.4157 9.00005 97.4121 8.94611 97.4212 8.85378C97.4302 8.76295 97.4541 8.60858 97.5216 8.41178C97.661 8.00555 98.0164 7.35985 98.7761 6.90679L102.873 13.7779ZM103.934 4.06985C103.145 2.75646 102.07 1.55415 100.797 0.744788C99.7486 0.0783561 97.3258 -1.03657 94.8812 0.421141L98.9785 7.29223C98.2202 7.74446 97.4869 7.74955 97.0699 7.68128C96.8672 7.64809 96.7222 7.59701 96.6398 7.56284C96.556 7.52809 96.5117 7.50038 96.5048 7.49599C96.4964 7.49062 96.5681 7.53679 96.6903 7.66812C96.808 7.79458 96.9436 7.96924 97.0753 8.18857L103.934 4.06985ZM94.8812 0.421141C92.4285 1.88374 92.2668 4.55372 92.3612 5.79582C92.4757 7.30165 93.0325 8.81617 93.821 10.1292L100.679 6.01045C100.548 5.79109 100.458 5.58988 100.402 5.4278C100.344 5.25935 100.337 5.17653 100.338 5.18936C100.339 5.19898 100.343 5.25292 100.333 5.34525C100.324 5.43609 100.301 5.59044 100.233 5.78725C100.094 6.19348 99.7383 6.83917 98.9785 7.29223L94.8812 0.421141ZM81.8469 18.1525C82.6356 19.4659 83.7105 20.6682 84.9837 21.4776C86.0319 22.144 88.4547 23.259 90.8993 21.8012L86.802 14.9302C87.5603 14.4779 88.2936 14.4728 88.7106 14.5411C88.9133 14.5743 89.0583 14.6254 89.1407 14.6595C89.2245 14.6943 89.2688 14.722 89.2757 14.7264C89.2841 14.7318 89.2124 14.6856 89.0902 14.5543C88.9725 14.4278 88.8369 14.2532 88.7052 14.0338L81.8469 18.1525ZM90.8993 21.8012C93.352 20.3386 93.5137 17.6687 93.4193 16.4266C93.3048 14.9207 92.748 13.4062 91.9595 12.0932L85.1012 16.2119C85.2329 16.4313 85.323 16.6325 85.3788 16.7946C85.4369 16.963 85.4433 17.0459 85.4423 17.033C85.4416 17.0234 85.438 16.9695 85.4471 16.8771C85.456 16.7863 85.4799 16.6319 85.5474 16.4351C85.6868 16.0289 86.0422 15.3832 86.802 14.9302L90.8993 21.8012ZM91.9595 12.0932C91.1707 10.7798 90.0958 9.57752 88.8227 8.76816C87.7744 8.10172 85.3516 6.9868 82.907 8.44451L87.0044 15.3156C86.246 15.7678 85.5127 15.7729 85.0957 15.7046C84.8931 15.6715 84.7481 15.6204 84.6657 15.5862C84.5819 15.5515 84.5376 15.5237 84.5307 15.5194C84.5222 15.514 84.5939 15.5602 84.7161 15.6915C84.8338 15.8179 84.9695 15.9926 85.1012 16.2119L91.9595 12.0932ZM82.907 8.44451C80.4543 9.90711 80.2926 12.5771 80.387 13.8192C80.5015 15.325 81.0583 16.8395 81.8469 18.1525L88.7052 14.0338C88.5734 13.8145 88.4834 13.6133 88.4275 13.4512C88.3694 13.2827 88.363 13.1999 88.364 13.2127C88.3647 13.2223 88.3684 13.2763 88.3593 13.3686C88.3503 13.4595 88.3264 13.6138 88.2589 13.8106C88.1195 14.2168 87.7641 14.8625 87.0044 15.3156L82.907 8.44451ZM80.8063 17.8919C81.5951 19.2053 82.67 20.4076 83.9431 21.217C84.9914 21.8834 87.4142 22.9983 89.8588 21.5406L85.7614 14.6695C86.5198 14.2173 87.2531 14.2122 87.67 14.2805C87.8727 14.3137 88.0177 14.3647 88.1001 14.3989C88.1839 14.4337 88.2282 14.4614 88.2351 14.4658C88.2436 14.4711 88.1719 14.425 88.0497 14.2936C87.932 14.1672 87.7963 13.9925 87.6646 13.7732L80.8063 17.8919ZM89.8588 21.5406C92.3115 20.078 92.4732 17.408 92.3788 16.1659C92.2643 14.6601 91.7075 13.1456 90.9189 11.8326L84.0606 15.9513C84.1924 16.1707 84.2824 16.3719 84.3383 16.534C84.3964 16.7024 84.4028 16.7852 84.4018 16.7724C84.4011 16.7628 84.3974 16.7088 84.4065 16.6165C84.4155 16.5257 84.4394 16.3713 84.5069 16.1745C84.6463 15.7683 85.0017 15.1226 85.7614 14.6695L89.8588 21.5406ZM90.9189 11.8326C90.1302 10.5192 89.0553 9.31689 87.7822 8.50753C86.7339 7.84109 84.3111 6.72617 81.8665 8.18388L85.9638 15.055C85.2055 15.5072 84.4722 15.5123 84.0552 15.444C83.8525 15.4108 83.7075 15.3598 83.6251 15.3256C83.5413 15.2908 83.497 15.2631 83.4901 15.2587C83.4817 15.2534 83.5534 15.2995 83.6756 15.4309C83.7933 15.5573 83.9289 15.732 84.0606 15.9513L90.9189 11.8326ZM81.8665 8.18388C79.4138 9.64648 79.2521 12.3165 79.3465 13.5586C79.461 15.0644 80.0178 16.5789 80.8063 17.8919L87.6646 13.7732C87.5329 13.5538 87.4428 13.3526 87.387 13.1905C87.3289 13.0221 87.3225 12.9393 87.3235 12.9521C87.3242 12.9617 87.3278 13.0157 87.3187 13.108C87.3098 13.1988 87.2859 13.3532 87.2184 13.55C87.079 13.9562 86.7236 14.6019 85.9638 15.055L81.8665 8.18388ZM68.8296 25.9149C69.6184 27.2283 70.6933 28.4306 71.9664 29.2399C73.0147 29.9064 75.4375 31.0213 77.8821 29.5636L73.7847 22.6925C74.5431 22.2403 75.2764 22.2352 75.6934 22.3035C75.896 22.3366 76.041 22.3877 76.1234 22.4219C76.2072 22.4566 76.2515 22.4844 76.2584 22.4887C76.2669 22.4941 76.1952 22.4479 76.073 22.3166C75.9553 22.1902 75.8197 22.0155 75.6879 21.7962L68.8296 25.9149ZM77.8821 29.5636C80.3348 28.101 80.4965 25.431 80.4021 24.1889C80.2876 22.6831 79.7308 21.1686 78.9422 19.8556L72.0839 23.9743C72.2157 24.1936 72.3057 24.3949 72.3616 24.5569C72.4197 24.7254 72.4261 24.8082 72.4251 24.7954C72.4244 24.7858 72.4207 24.7318 72.4298 24.6395C72.4388 24.5486 72.4627 24.3943 72.5302 24.1975C72.6696 23.7913 73.025 23.1456 73.7847 22.6925L77.8821 29.5636ZM78.9422 19.8556C78.1535 18.5422 77.0786 17.3399 75.8055 16.5305C74.7572 15.8641 72.3344 14.7491 69.8898 16.2069L73.9871 23.0779C73.2288 23.5302 72.4955 23.5353 72.0785 23.467C71.8758 23.4338 71.7308 23.3827 71.6484 23.3486C71.5646 23.3138 71.5203 23.2861 71.5134 23.2817C71.505 23.2763 71.5767 23.3225 71.6989 23.4538C71.8166 23.5803 71.9522 23.755 72.0839 23.9743L78.9422 19.8556ZM69.8898 16.2069C67.4371 17.6695 67.2754 20.3394 67.3698 21.5815C67.4843 23.0874 68.0411 24.6019 68.8296 25.9149L75.6879 21.7962C75.5562 21.5768 75.4661 21.3756 75.4103 21.2135C75.3522 21.0451 75.3458 20.9622 75.3468 20.9751C75.3475 20.9847 75.3511 21.0386 75.342 21.131C75.3331 21.2218 75.3092 21.3762 75.2417 21.573C75.1023 21.9792 74.7469 22.6249 73.9871 23.0779L69.8898 16.2069ZM67.7892 25.6545C68.5779 26.9679 69.6529 28.1702 70.926 28.9796C71.9743 29.646 74.3971 30.761 76.8416 29.3033L72.7443 22.4322C73.5027 21.9799 74.2359 21.9748 74.6529 22.0431C74.8556 22.0763 75.0006 22.1274 75.083 22.1616C75.1668 22.1963 75.2111 22.224 75.218 22.2284C75.2264 22.2338 75.1547 22.1876 75.0325 22.0563C74.9148 21.9298 74.7792 21.7552 74.6475 21.5358L67.7892 25.6545ZM76.8416 29.3033C79.2944 27.8407 79.456 25.1707 79.3616 23.9286C79.2471 22.4227 78.6903 20.9082 77.9018 19.5952L71.0435 23.714C71.1752 23.9333 71.2653 24.1345 71.3212 24.2966C71.3792 24.4651 71.3856 24.5479 71.3846 24.535C71.3839 24.5254 71.3803 24.4715 71.3894 24.3792C71.3983 24.2883 71.4222 24.134 71.4897 23.9372C71.6291 23.5309 71.9845 22.8852 72.7443 22.4322L76.8416 29.3033ZM77.9018 19.5952C77.113 18.2818 76.0381 17.0795 74.765 16.2702C73.7167 15.6037 71.2939 14.4888 68.8494 15.9465L72.9467 22.8176C72.1883 23.2698 71.455 23.2749 71.0381 23.2067C70.8354 23.1735 70.6904 23.1224 70.608 23.0882C70.5242 23.0535 70.4799 23.0258 70.473 23.0214C70.4645 23.016 70.5362 23.0622 70.6584 23.1935C70.7761 23.32 70.9118 23.4946 71.0435 23.714L77.9018 19.5952ZM68.8494 15.9465C66.3966 17.4091 66.2349 20.0791 66.3294 21.3212C66.4438 22.827 67.0007 24.3415 67.7892 25.6545L74.6475 21.5358C74.5157 21.3165 74.4257 21.1153 74.3698 20.9532C74.3117 20.7847 74.3054 20.7019 74.3063 20.7147C74.3071 20.7244 74.3107 20.7783 74.3016 20.8706C74.2926 20.9615 74.2687 21.1158 74.2012 21.3126C74.0619 21.7189 73.7065 22.3645 72.9467 22.8176L68.8494 15.9465ZM159.914 73.6165C159.39 74.2622 158.901 74.5835 158.696 74.677C158.594 74.7232 158.712 74.6456 159.024 74.6386C159.368 74.6309 160.026 74.7187 160.661 75.2303L155.644 81.4615C157.969 83.333 160.691 82.5571 162.003 81.9613C163.559 81.2548 164.99 80.0574 166.127 78.6551L159.914 73.6165ZM160.661 75.2303C161.298 75.743 161.527 76.3709 161.593 76.717C161.653 77.0289 161.601 77.1663 161.624 77.0604C161.672 76.8461 161.882 76.3049 162.406 75.6588L156.192 70.6202C155.055 72.022 154.179 73.6704 153.811 75.3404C153.501 76.7511 153.312 79.5834 155.644 81.4615L160.661 75.2303ZM162.406 75.6588C162.93 75.013 163.418 74.6917 163.624 74.5983C163.726 74.5521 163.607 74.6296 163.296 74.6366C162.952 74.6443 162.294 74.5566 161.658 74.045L166.675 67.8137C164.351 65.9423 161.629 66.7182 160.317 67.314C158.761 68.0204 157.329 69.2179 156.192 70.6202L162.406 75.6588ZM161.658 74.045C161.021 73.5322 160.793 72.9044 160.726 72.5583C160.667 72.2464 160.719 72.1089 160.695 72.2148C160.648 72.4292 160.438 72.9703 159.914 73.6165L166.127 78.6551C167.264 77.2532 168.141 75.6048 168.508 73.9348C168.819 72.5242 169.008 69.6918 166.675 67.8137L161.658 74.045ZM161.259 73.4738C160.736 74.1196 160.247 74.4409 160.041 74.5343C159.939 74.5805 160.058 74.503 160.369 74.496C160.714 74.4883 161.372 74.576 162.007 75.0876L156.99 81.3189C159.314 83.1904 162.036 82.4144 163.349 81.8186C164.905 81.1122 166.336 79.9147 167.473 78.5125L161.259 73.4738ZM162.007 75.0876C162.644 75.6004 162.872 76.2282 162.939 76.5744C162.999 76.8862 162.947 77.0237 162.97 76.9178C163.017 76.7034 163.228 76.1623 163.752 75.5162L157.538 70.4775C156.401 71.8794 155.525 73.5278 155.157 75.1978C154.846 76.6085 154.657 79.4408 156.99 81.3189L162.007 75.0876ZM163.752 75.5162C164.275 74.8704 164.764 74.5491 164.97 74.4557C165.071 74.4095 164.953 74.487 164.642 74.494C164.297 74.5017 163.639 74.414 163.004 73.9024L168.021 67.6711C165.697 65.7996 162.974 66.5755 161.662 67.1713C160.106 67.8778 158.675 69.0753 157.538 70.4775L163.752 75.5162ZM163.004 73.9024C162.367 73.3896 162.139 72.7617 162.072 72.4156C162.012 72.1037 162.064 71.9663 162.041 72.0722C161.994 72.2865 161.783 72.8277 161.259 73.4738L167.473 78.5125C168.61 77.1106 169.486 75.4622 169.854 73.7922C170.164 72.3816 170.354 69.5492 168.021 67.6711L163.004 73.9024ZM173.814 85.6017C173.439 86.0636 173.142 86.4012 172.906 86.642C172.656 86.896 172.563 86.9487 172.609 86.9196C172.65 86.8941 173.05 86.6447 173.724 86.6246C174.074 86.6142 174.435 86.6687 174.779 86.7922C175.117 86.9132 175.371 87.076 175.545 87.2155L170.527 93.4467C171.436 94.1781 172.616 94.6611 173.962 94.6211C175.201 94.5842 176.197 94.1145 176.872 93.6891C178.125 92.9004 179.201 91.66 180.027 90.6403L173.814 85.6017ZM175.545 87.2155C176.181 87.7282 176.41 88.3561 176.476 88.7022C176.536 89.0141 176.484 89.1515 176.507 89.0456C176.555 88.8313 176.765 88.2901 177.289 87.644L171.075 82.6054C169.939 84.0073 169.062 85.6556 168.695 87.3256C168.384 88.7363 168.195 91.5686 170.527 93.4467L175.545 87.2155ZM177.289 87.644C177.813 86.9982 178.301 86.6769 178.507 86.5835C178.609 86.5373 178.49 86.6148 178.179 86.6218C177.835 86.6295 177.177 86.5418 176.541 86.0302L181.558 79.7989C179.234 77.9275 176.512 78.7034 175.2 79.2992C173.644 80.0056 172.212 81.2031 171.075 82.6054L177.289 87.644ZM176.541 86.0302C176.097 85.6722 175.761 85.1969 175.569 84.676C175.389 84.1886 175.378 83.7811 175.391 83.5528C175.414 83.1644 175.521 83.0501 175.389 83.3262C175.145 83.8332 174.599 84.6336 173.814 85.6017L180.027 90.6403C180.903 89.5603 181.936 88.1712 182.598 86.7939C182.918 86.1278 183.311 85.1476 183.377 84.0254C183.451 82.7707 183.102 81.0415 181.558 79.7989L176.541 86.0302ZM176.143 85.4591C175.619 86.1048 175.13 86.4262 174.925 86.5196C174.823 86.5658 174.941 86.4883 175.253 86.4813C175.597 86.4735 176.255 86.5613 176.89 87.0729L171.873 93.3042C174.198 95.1756 176.92 94.3997 178.232 93.8039C179.788 93.0975 181.219 91.9 182.356 90.4977L176.143 85.4591ZM176.89 87.0729C177.527 87.5856 177.756 88.2135 177.822 88.5596C177.882 88.8715 177.83 89.009 177.853 88.9031C177.901 88.6887 178.111 88.1476 178.635 87.5014L172.421 82.4628C171.284 83.8647 170.408 85.5131 170.04 87.183C169.73 88.5937 169.541 91.4261 171.873 93.3042L176.89 87.0729ZM178.635 87.5014C179.159 86.8557 179.647 86.5344 179.853 86.4409C179.955 86.3947 179.836 86.4723 179.525 86.4793C179.181 86.487 178.523 86.3992 177.887 85.8876L182.904 79.6564C180.58 77.7849 177.858 78.5608 176.546 79.1566C174.99 79.8631 173.558 81.0605 172.421 82.4628L178.635 87.5014ZM177.887 85.8876C177.25 85.3749 177.022 84.747 176.955 84.4009C176.896 84.089 176.948 83.9516 176.924 84.0575C176.877 84.2718 176.667 84.813 176.143 85.4591L182.356 90.4977C183.493 89.0958 184.37 87.4475 184.737 85.7775C185.048 84.3668 185.237 81.5345 182.904 79.6564L177.887 85.8876ZM189.683 97.587C189.159 98.2328 188.67 98.5541 188.465 98.6475C188.363 98.6937 188.481 98.6162 188.793 98.6092C189.137 98.6015 189.795 98.6892 190.43 99.2008L185.413 105.432C187.738 107.304 190.46 106.528 191.772 105.932C193.328 105.225 194.759 104.028 195.896 102.626L189.683 97.587ZM190.43 99.2008C191.067 99.7136 191.296 100.341 191.362 100.688C191.422 100.999 191.37 101.137 191.393 101.031C191.441 100.817 191.651 100.275 192.175 99.6293L185.961 94.5907C184.824 95.9926 183.948 97.641 183.58 99.311C183.27 100.722 183.081 103.554 185.413 105.432L190.43 99.2008ZM192.175 99.6293C192.699 98.9836 193.187 98.6623 193.393 98.5688C193.495 98.5227 193.376 98.6002 193.065 98.6072C192.721 98.6149 192.063 98.5271 191.427 98.0156L196.444 91.7843C194.12 89.9128 191.398 90.6887 190.086 91.2845C188.53 91.991 187.098 93.1885 185.961 94.5907L192.175 99.6293ZM191.427 98.0156C190.79 97.5028 190.562 96.875 190.495 96.5288C190.436 96.217 190.488 96.0795 190.464 96.1854C190.417 96.3998 190.206 96.9409 189.683 97.587L195.896 102.626C197.033 101.224 197.91 99.5754 198.277 97.9054C198.588 96.4947 198.777 93.6624 196.444 91.7843L191.427 98.0156ZM191.028 97.4447C190.505 98.0904 190.016 98.4118 189.81 98.5052C189.708 98.5514 189.827 98.4739 190.138 98.4669C190.483 98.4591 191.141 98.5469 191.776 99.0585L186.759 105.29C189.083 107.161 191.805 106.385 193.118 105.79C194.673 105.083 196.105 103.886 197.242 102.483L191.028 97.4447ZM191.776 99.0585C192.413 99.5712 192.641 100.199 192.708 100.545C192.768 100.857 192.716 100.995 192.739 100.889C192.786 100.674 192.997 100.133 193.521 99.487L187.307 94.4484C186.17 95.8503 185.294 97.4987 184.926 99.1686C184.615 100.579 184.426 103.412 186.759 105.29L191.776 99.0585ZM193.521 99.487C194.044 98.8413 194.533 98.52 194.739 98.4265C194.84 98.3803 194.722 98.4579 194.41 98.4648C194.066 98.4726 193.408 98.3848 192.773 97.8732L197.79 91.6419C195.465 89.7705 192.743 90.5464 191.431 91.1422C189.875 91.8487 188.444 93.0461 187.307 94.4484L193.521 99.487ZM192.773 97.8732C192.136 97.3605 191.907 96.7326 191.841 96.3865C191.781 96.0746 191.833 95.9371 191.81 96.043C191.763 96.2574 191.552 96.7986 191.028 97.4447L197.242 102.483C198.379 101.081 199.255 99.4331 199.623 97.7631C199.933 96.3524 200.122 93.5201 197.79 91.6419L192.773 97.8732ZM147.76 92C147.237 92.6457 146.748 92.967 146.542 93.0605C146.44 93.1067 146.559 93.0291 146.87 93.0221C147.215 93.0144 147.873 93.1022 148.508 93.6138L143.491 99.845C145.815 101.716 148.537 100.941 149.85 100.345C151.406 99.6383 152.837 98.4409 153.974 97.0386L147.76 92ZM148.508 93.6138C149.145 94.1265 149.373 94.7543 149.44 95.1005C149.5 95.4124 149.448 95.5498 149.471 95.4439C149.518 95.2296 149.729 94.6884 150.253 94.0423L144.039 89.0037C142.902 90.4055 142.026 92.0539 141.658 93.7239C141.347 95.1346 141.158 97.9669 143.491 99.845L148.508 93.6138ZM150.253 94.0423C150.776 93.3965 151.265 93.0752 151.471 92.9818C151.572 92.9356 151.454 93.0131 151.143 93.0201C150.798 93.0278 150.14 92.9401 149.505 92.4285L154.522 86.1972C152.198 84.3257 149.475 85.1017 148.163 85.6975C146.607 86.4039 145.176 87.6014 144.039 89.0037L150.253 94.0423ZM149.505 92.4285C148.868 91.9157 148.64 91.2879 148.573 90.9417C148.513 90.6299 148.565 90.4924 148.542 90.5983C148.495 90.8127 148.284 91.3538 147.76 92L153.974 97.0386C155.111 95.6367 155.987 93.9883 156.355 92.3183C156.665 90.9077 156.854 88.0753 154.522 86.1972L149.505 92.4285ZM149.106 91.8573C148.582 92.5031 148.094 92.8244 147.888 92.9178C147.786 92.964 147.905 92.8865 148.216 92.8795C148.56 92.8718 149.218 92.9595 149.854 93.4711L144.837 99.7024C147.161 101.574 149.883 100.798 151.195 100.202C152.751 99.4957 154.183 98.2982 155.32 96.8959L149.106 91.8573ZM149.854 93.4711C150.491 93.9839 150.719 94.6117 150.785 94.9578C150.845 95.2697 150.793 95.4072 150.817 95.3013C150.864 95.0869 151.074 94.5458 151.598 93.8996L145.384 88.861C144.248 90.2629 143.371 91.9113 143.004 93.5813C142.693 94.9919 142.504 97.8243 144.837 99.7024L149.854 93.4711ZM151.598 93.8996C152.122 93.2539 152.61 92.9326 152.816 92.8391C152.918 92.7929 152.799 92.8705 152.488 92.8775C152.144 92.8852 151.486 92.7974 150.85 92.2858L155.868 86.0546C153.543 84.1831 150.821 84.959 149.509 85.5548C147.953 86.2613 146.521 87.4587 145.384 88.861L151.598 93.8996ZM150.85 92.2858C150.214 91.7731 149.985 91.1452 149.919 90.7991C149.859 90.4872 149.911 90.3498 149.888 90.4557C149.84 90.6701 149.63 91.2112 149.106 91.8573L155.32 96.8959C156.456 95.4941 157.333 93.8457 157.7 92.1757C158.011 90.765 158.2 87.9327 155.868 86.0546L150.85 92.2858ZM162.643 103.985C162.12 104.631 161.631 104.952 161.425 105.046C161.324 105.092 161.442 105.014 161.753 105.007C162.098 105 162.756 105.087 163.391 105.599L158.374 111.83C160.698 113.702 163.421 112.926 164.733 112.33C166.289 111.623 167.72 110.426 168.857 109.024L162.643 103.985ZM163.391 105.599C164.028 106.112 164.256 106.74 164.323 107.086C164.383 107.398 164.331 107.535 164.354 107.429C164.401 107.215 164.612 106.674 165.136 106.027L158.922 100.989C157.785 102.391 156.909 104.039 156.541 105.709C156.231 107.12 156.041 109.952 158.374 111.83L163.391 105.599ZM165.136 106.027C165.659 105.382 166.148 105.06 166.354 104.967C166.456 104.921 166.337 104.998 166.026 105.005C165.681 105.013 165.023 104.925 164.388 104.414L169.405 98.1824C167.081 96.3109 164.359 97.0869 163.046 97.6827C161.49 98.3891 160.059 99.5866 158.922 100.989L165.136 106.027ZM164.388 104.414C163.751 103.901 163.523 103.273 163.456 102.927C163.396 102.615 163.448 102.478 163.425 102.583C163.378 102.798 163.167 103.339 162.643 103.985L168.857 109.024C169.994 107.622 170.87 105.974 171.238 104.304C171.548 102.893 171.738 100.06 169.405 98.1824L164.388 104.414ZM163.989 103.843C163.466 104.488 162.977 104.81 162.771 104.903C162.669 104.949 162.788 104.872 163.099 104.865C163.444 104.857 164.102 104.945 164.737 105.456L159.72 111.688C162.044 113.559 164.766 112.783 166.079 112.187C167.635 111.481 169.066 110.283 170.203 108.881L163.989 103.843ZM164.737 105.456C165.374 105.969 165.602 106.597 165.669 106.943C165.729 107.255 165.677 107.392 165.7 107.287C165.747 107.072 165.958 106.531 166.482 105.885L160.268 100.846C159.131 102.248 158.255 103.897 157.887 105.567C157.577 106.977 157.387 109.81 159.72 111.688L164.737 105.456ZM166.482 105.885C167.005 105.239 167.494 104.918 167.7 104.824C167.801 104.778 167.683 104.856 167.372 104.863C167.027 104.87 166.369 104.783 165.734 104.271L170.751 98.0398C168.427 96.1684 165.704 96.9443 164.392 97.5401C162.836 98.2465 161.405 99.444 160.268 100.846L166.482 105.885ZM165.734 104.271C165.097 103.758 164.869 103.131 164.802 102.784C164.742 102.473 164.794 102.335 164.771 102.441C164.724 102.655 164.513 103.196 163.989 103.843L170.203 108.881C171.34 107.479 172.216 105.831 172.584 104.161C172.894 102.75 173.084 99.9179 170.751 98.0398L165.734 104.271Z" fill="#7831B2" mask="url(#path-1-outside-1_328_11065)"/>
</svg>
