<svg width="176" height="181" viewBox="0 0 176 181" fill="none" xmlns="http://www.w3.org/2000/svg">
<path d="M123.48 87.6431C91.5059 98.8337 95.689 123.428 100.687 135.424C95.689 123.428 97.0013 95.6357 124.479 87.6432M123.48 87.6431C107.358 86.1268 95.3834 73.2175 96.7334 58.8092C96.9906 56.0639 97.713 53.4622 98.8256 51.0595C103.552 40.8528 115.319 34.2389 128.368 35.4662C144.49 36.9825 156.464 49.8919 155.114 64.3001C154.857 67.0455 154.135 69.6472 153.022 72.0498C148.296 82.2566 136.529 88.8704 123.48 87.6431ZM151.237 76.1538C159.897 72.1568 178.218 69.8627 192.61 91.4557M150.238 76.6535C158.897 72.6565 177.218 70.8621 191.611 92.4551M254.878 98.6686L205.147 -21.3204C204.895 -21.9286 204.04 -21.9464 203.763 -21.3491V-21.3491C203.674 -21.1574 203.67 -20.9373 203.75 -20.742L254.014 100.532M254.878 98.6686L254.014 100.532M254.878 98.6686C221.836 123.635 135.195 174.249 52.4573 177.415C52.1127 177.429 51.8053 177.633 51.6603 177.946V177.946C51.3731 178.566 51.8389 179.271 52.5216 179.242C134.978 175.735 221.096 125.406 254.014 100.532M26.967 61.9283V61.9283C27.3049 61.1989 28.3439 61.2048 28.674 61.938L70.8129 155.536C70.9054 155.742 70.9041 155.977 70.8095 156.181V156.181C70.5299 156.785 69.6702 156.78 69.3971 156.173L26.967 61.9283ZM26.967 61.9283C52.155 42.7626 119.851 1.51104 186.205 -3.28236C186.618 -3.31217 187.004 -3.08304 187.179 -2.70802L231.01 91.3664C231.186 91.7438 231.127 92.1741 230.833 92.4692C211.484 111.919 153.481 150.988 71.6585 155.818C71.2507 155.842 70.8644 155.614 70.6911 155.244L26.967 61.9283ZM155.719 62.9905C154.369 77.3987 140.206 87.8498 124.084 86.3335C107.963 84.8173 95.9879 71.9079 97.3379 57.4997C98.6878 43.0914 112.851 32.6404 128.973 34.1567C145.094 35.6729 157.069 48.5823 155.719 62.9905ZM2.01014 45.5449C36.6337 22.7065 125.703 -24.2081 203.053 -22.942C203.731 -22.9309 204.165 -22.2251 203.88 -21.6097V-21.6097C203.723 -21.2694 203.38 -21.0552 203.005 -21.0631C125.472 -22.6846 36.7555 22.6261 2.01014 45.5449ZM52.6334 177.407C134.828 174.199 220.838 124.219 254.294 99.1157C254.659 98.8424 254.77 98.3725 254.595 97.9518L204.75 -22.3131C204.598 -22.6787 204.248 -22.9208 203.852 -22.929C126.798 -24.5272 38.7083 20.2151 3.5295 43.2593C3.14165 43.5134 3.00276 43.9873 3.16234 44.4227L51.6599 176.752C51.8088 177.159 52.2009 177.424 52.6334 177.407ZM50.4282 177.652L2.11554 45.8267C2.04929 45.6459 2.05753 45.4462 2.13845 45.2715V45.2715C2.41043 44.6845 3.25648 44.7197 3.47914 45.3273L51.7918 177.152C51.858 177.333 51.8498 177.533 51.7688 177.707V177.707C51.4969 178.294 50.6508 178.259 50.4282 177.652ZM230.397 93.8982C211.553 113.128 153.625 152.548 71.6308 157.631C70.9479 157.674 70.4597 156.971 70.7473 156.35V156.35C70.8878 156.047 71.1883 155.845 71.5221 155.826C152.148 151.106 209.668 113.132 229.904 93.3873C230.18 93.1181 230.623 93.4546 230.461 93.8044V93.8044C230.445 93.8398 230.424 93.8703 230.397 93.8982ZM186.179 -1.13491L229.725 92.3268C230.007 92.9322 230.868 92.9315 231.149 92.3256V92.3256C231.246 92.1157 231.246 91.8737 231.148 91.664L187.603 -1.79767C187.32 -2.40311 186.459 -2.4024 186.179 -1.79649V-1.79649C186.081 -1.58666 186.082 -1.34459 186.179 -1.13491ZM70.7932 157.682C152.612 152.851 210.612 113.783 229.961 94.3343C230.254 94.0392 230.314 93.6089 230.138 93.2315L186.307 -0.842893C186.132 -1.21792 185.745 -1.44702 185.333 -1.41733C119.513 3.31991 52.2651 41.4052 26.6015 60.7249C26.228 61.0061 26.1222 61.4941 26.3166 61.9194L69.8217 157.1C69.9931 157.475 70.3819 157.707 70.7932 157.682ZM28.4985 60.7823C54.793 41.2214 120.381 3.21068 185.485 -1.42809C185.812 -1.45143 186.101 -1.6503 186.239 -1.94826V-1.94826C186.527 -2.56932 186.045 -3.27127 185.363 -3.21912C119.369 1.82294 53.083 40.8832 27.9312 59.9941C27.8689 60.0414 27.823 60.1003 27.7902 60.1713V60.1713C27.5797 60.6255 28.0968 61.0811 28.4985 60.7823ZM51.7611 179.272C133.956 176.064 219.966 126.084 253.422 100.981C253.786 100.708 253.897 100.238 253.723 99.8169L203.877 -20.448C203.726 -20.8136 203.375 -21.0557 202.98 -21.0639C125.926 -22.662 37.8361 22.0803 2.65725 45.1245C2.2694 45.3785 2.1305 45.8524 2.29009 46.2878L50.7877 178.617C50.9366 179.024 51.3287 179.289 51.7611 179.272Z" stroke="#7831B2" stroke-width="3" stroke-linecap="round"/>
</svg>
