<svg width="171" height="132" viewBox="0 0 171 132" fill="none" xmlns="http://www.w3.org/2000/svg">
<path d="M126.598 23.2911C125.843 14.7382 131.206 6.47203 139.346 3.64189C147.487 0.811747 161.351 -3.64287 166.59 8.96347M148.2 77.6288C147.445 69.0759 152.808 60.8097 160.948 57.9796C169.089 55.1494 182.953 50.6948 188.192 63.3012M77.2588 100.451C76.5036 91.8977 81.8669 83.6316 90.0076 80.8014C98.1483 77.9713 112.012 73.5166 117.251 86.123M57.6137 51.5467C56.8585 42.9938 62.2217 34.7276 70.3624 31.8975C78.5031 29.0673 92.3673 24.6127 97.606 37.2191M241 70.6662L203.967 -49.0282C203.779 -49.635 202.956 -49.7293 202.634 -49.1809C202.531 -49.0048 202.507 -48.7937 202.567 -48.5989L239.997 72.3774M241 70.6662L239.997 72.3774M241 70.6662C206.856 91.646 118.678 132.399 38.5882 127.953C38.2548 127.934 37.9398 128.103 37.7714 128.39C37.4379 128.959 37.8228 129.678 38.4838 129.712C118.334 133.805 205.981 93.2788 239.997 72.3774M96.8807 -16.6431C108.69 5.62137 134.973 59.1542 145.626 95.1699M45.1935 64.9443C90.0561 47.6397 183.92 13.4194 200.476 14.9747M149.366 -4.58381C149.175 -3.60051 148.818 -2.68498 148.323 -1.85467C146.22 1.67264 141.643 3.66188 136.864 2.77398C130.961 1.67708 126.988 -3.39556 127.99 -8.55607C128.18 -9.53936 128.538 -10.4549 129.033 -11.2852C131.135 -14.8125 135.713 -16.8018 140.491 -15.9139C146.394 -14.8169 150.368 -9.74431 149.366 -4.58381ZM149.637 -5.03611C148.635 0.124395 143.038 3.41859 137.135 2.32168C131.232 1.22477 127.259 -3.84786 128.261 -9.00837C129.262 -14.1689 134.859 -17.4631 140.762 -16.3662C146.665 -15.2693 150.639 -10.1966 149.637 -5.03611ZM170.968 49.7539C170.777 50.7372 170.42 51.6527 169.925 52.483C167.822 56.0103 163.245 57.9996 158.466 57.1117C152.563 56.0148 148.59 50.9421 149.592 45.7816C149.782 44.7983 150.14 43.8828 150.635 43.0525C152.737 39.5252 157.315 37.5359 162.093 38.4238C167.996 39.5207 171.97 44.5934 170.968 49.7539ZM171.239 49.3016C170.237 54.4621 164.64 57.7563 158.737 56.6594C152.834 55.5625 148.861 50.4898 149.863 45.3293C150.864 40.1688 156.461 36.8746 162.364 37.9715C168.267 39.0684 172.241 44.1411 171.239 49.3016ZM100.027 72.5757C99.8363 73.559 99.4786 74.4745 98.9838 75.3049C96.8815 78.8322 92.3036 80.8214 87.5255 79.9335C81.6225 78.8366 77.6492 73.764 78.6507 68.6035C78.8416 67.6202 79.1993 66.7046 79.6941 65.8743C81.7964 62.347 86.3743 60.3578 91.1525 61.2457C97.0554 62.3426 101.029 67.4152 100.027 72.5757ZM100.298 72.1234C99.2966 77.2839 93.6993 80.5781 87.7964 79.4812C81.8935 78.3843 77.9201 73.3117 78.9217 68.1512C79.9233 62.9907 85.5205 59.6965 91.4234 60.7934C97.3263 61.8903 101.3 66.9629 100.298 72.1234ZM80.382 23.6718C80.1912 24.6551 79.8335 25.5706 79.3386 26.4009C77.2363 29.9282 72.6585 31.9175 67.8803 31.0296C61.9774 29.9327 58.004 24.86 59.0056 19.6995C59.1964 18.7162 59.5541 17.8007 60.049 16.9704C62.1513 13.4431 66.7291 11.4538 71.5073 12.3417C77.4102 13.4387 81.3836 18.5113 80.382 23.6718ZM80.653 23.2195C79.6514 28.38 74.0542 31.6742 68.1512 30.5773C62.2483 29.4804 58.275 24.4077 59.2765 19.2472C60.2781 14.0867 65.8753 10.7925 71.7782 11.8894C77.6812 12.9864 81.6545 18.059 80.653 23.2195ZM59.1715 108.958C138.4 111.692 197.823 79.5211 218.309 62.5917C218.659 62.3027 218.769 61.8422 218.616 61.4159L184.969 -32.7062C184.818 -33.1297 184.421 -33.417 183.97 -33.4267C120.148 -34.7978 52.8048 -3.62424 26.263 12.6205C25.8302 12.8854 25.6633 13.4002 25.8274 13.8789L58.1737 108.224C58.3197 108.65 58.7199 108.942 59.1715 108.958ZM38.8475 127.965C118.333 132.284 205.72 92.1686 240.318 71.0905C240.742 70.8322 240.911 70.3345 240.765 69.8614L203.698 -49.9413C203.571 -50.3522 203.215 -50.6499 202.786 -50.6989C128.685 -59.1642 39.7761 -24.2585 3.70456 -5.31444C3.25681 -5.07929 3.05641 -4.58018 3.18518 -4.09271L37.8569 127.158C37.9771 127.612 38.3759 127.939 38.8475 127.965ZM36.6099 127.996L2.02314 -2.9332C1.97568 -3.11286 2.00184 -3.30394 2.09587 -3.4644C2.41171 -4.0034 3.22435 -3.89309 3.38378 -3.28957L37.9706 127.639C38.018 127.819 37.9919 128.01 37.8978 128.17C37.582 128.709 36.7694 128.599 36.6099 127.996ZM56.8621 109.092L24.6359 15.0974C24.5654 14.8918 24.5881 14.6658 24.6981 14.4781C25.0228 13.9239 25.8513 14.0064 26.0594 14.6135L58.2856 108.608C58.3562 108.814 58.3335 109.04 58.2235 109.228C57.8988 109.782 57.0703 109.699 56.8621 109.092ZM217.823 63.8708C197.895 80.6275 138.432 113.231 58.8839 110.693C58.2215 110.672 57.8148 109.953 58.1488 109.383C58.3119 109.105 58.62 108.939 58.9436 108.95C137.138 111.713 196.077 80.4606 217.394 63.3355C217.685 63.102 218.082 63.4654 217.893 63.7865C217.874 63.8191 217.852 63.8465 217.823 63.8708ZM183.966 -32.1411C183.805 -31.8676 183.509 -31.7028 183.191 -31.71C119.975 -33.1469 53.2505 -2.58876 26.107 13.8115C25.6923 14.062 25.2353 13.5778 25.4797 13.1606C25.5179 13.0955 25.5675 13.0431 25.6319 13.0033C51.6324 -3.06842 119.125 -34.5709 183.236 -33.4406C183.899 -33.4289 184.3 -32.7113 183.966 -32.1411ZM3.541 -4.05007C40.1637 -23.0995 128.334 -57.4218 201.879 -48.9753C202.24 -48.9339 202.589 -49.1084 202.772 -49.4208C203.103 -49.9859 202.749 -50.7029 202.096 -50.7751C127.707 -58.9997 38.637 -23.8017 3.07639 -4.99168C2.99058 -4.94629 2.92436 -4.88067 2.87539 -4.7971C2.60985 -4.34394 3.07398 -3.80714 3.541 -4.05007ZM183.834 -31.3652L217.318 62.302C217.535 62.9088 218.365 62.986 218.691 62.4297C218.804 62.2369 218.826 62.0043 218.751 61.7941L185.266 -31.873C185.05 -32.4799 184.219 -32.5571 183.893 -32.0007C183.78 -31.808 183.758 -31.5754 183.834 -31.3652ZM58.1615 110.669C137.39 113.404 196.813 81.2323 217.299 64.303C217.649 64.014 217.759 63.5535 217.606 63.1272L183.959 -30.995C183.808 -31.4185 183.411 -31.7057 182.96 -31.7154C119.138 -33.0865 51.7948 -1.91298 25.253 14.3317C24.8202 14.5966 24.6533 15.1115 24.8174 15.5902L57.1637 109.935C57.3097 110.361 57.7099 110.654 58.1615 110.669ZM37.8374 129.676C117.323 133.995 204.71 93.8799 239.308 72.8018C239.732 72.5434 239.901 72.0457 239.755 71.5727L202.688 -48.23C202.561 -48.641 202.205 -48.9386 201.776 -48.9876C127.675 -57.453 38.7661 -22.5472 2.69455 -3.60317C2.2468 -3.36802 2.04639 -2.86892 2.17517 -2.38145L36.8469 128.869C36.9671 129.324 37.3659 129.65 37.8374 129.676Z" stroke="#7831B2" stroke-width="3"/>
</svg>
