<svg width="208" height="207" viewBox="0 0 208 207" fill="none" xmlns="http://www.w3.org/2000/svg">
<path d="M115.083 180.807L113.592 202.606C113.473 204.355 116.325 205.572 117.843 204.697C120.875 202.949 124.843 202.153 129.258 203.806C130.804 204.385 132.755 202.916 132.262 201.339L126.472 182.818M145.85 178.829L160.615 183.67L203.83 55.6151C183.51 51.9688 89.9013 19.4057 45.9412 2.97931C189.173 46.4991 188.154 49.6126 202.919 54.4544L204.862 55.0914L162.559 184.307L145.462 178.701M44.6544 4.28098C27.6786 41.2385 -4.19141 117.732 4.13478 128.048L80.5723 157.423L4.38964 127.27C-3.93655 116.954 26.5873 38.4386 45.164 2.72433M116.568 60.6177L162.418 75.6526M112.018 82.3992L158.645 97.6888M40.1523 89.0022L152.057 125.697M162.673 74.8741L116.823 59.8393M112.273 81.6205C131.045 86.0522 158.9 96.9102 158.9 96.9102M40.4071 88.224C98.2897 104.619 152.312 124.919 152.312 124.919M103.006 170.382C98.1674 173.688 88.0906 182.372 82.0731 193.231C81.2649 194.689 83.0164 196.303 84.6181 195.847C88.0188 194.878 91.6725 195.152 93.4417 199.009C94.1351 200.52 96.5227 201.136 97.4308 199.742L110.936 179.017M149.405 165.341C145.042 178.668 130.719 185.935 117.414 181.572C104.109 177.209 96.8606 162.868 101.224 149.541C105.587 136.214 119.909 128.948 133.214 133.31C146.519 137.673 153.768 152.014 149.405 165.341ZM150.437 164.817C146.074 178.144 131.751 185.411 118.446 181.048C105.142 176.685 97.8928 162.345 102.256 149.018C106.619 135.691 120.942 128.424 134.247 132.787C147.551 137.15 154.8 151.49 150.437 164.817Z" stroke="#7831B2" stroke-width="4" stroke-linecap="round"/>
</svg>
