<svg width="147" height="90" viewBox="0 0 147 90" fill="none" xmlns="http://www.w3.org/2000/svg">
<path d="M14.9866 44.1872C14.6273 44.2669 14.3202 44.0646 14.0653 43.5803C13.8225 43.077 13.6362 42.348 13.5064 41.3935C13.3765 40.4389 13.2997 39.317 13.2758 38.0275C13.2656 37.5381 13.2649 36.9073 13.2739 36.135C13.2793 35.3471 13.29 34.5089 13.306 33.6204C13.3184 32.7162 13.3265 31.8294 13.3303 30.9599C13.3306 30.0749 13.3282 29.2887 13.3233 28.6015L13.8827 29.2394C13.4905 29.2445 12.9048 29.3007 12.1255 29.408C11.3619 29.5119 10.4768 29.6591 9.47016 29.8497C8.46008 30.0246 7.40833 30.2334 6.31491 30.476C5.90879 30.5661 5.52002 30.6605 5.1486 30.7593C4.77718 30.8581 4.43874 30.9578 4.13326 31.0583C3.82433 31.1433 3.55271 31.2117 3.3184 31.2637C3.0841 31.3157 2.84894 31.3269 2.61293 31.2973C2.37692 31.2677 2.18084 31.1965 2.02469 31.0837C1.88416 30.9673 1.82 30.8259 1.8322 30.6593C1.8323 30.3642 1.93825 30.1031 2.15005 29.8758C2.36185 29.6486 2.67951 29.4552 3.10301 29.2956C3.52305 29.1205 4.01423 28.9706 4.57655 28.8458C5.35756 28.6725 6.17154 28.5001 7.0185 28.3286C7.88107 28.1536 8.70633 27.9951 9.49427 27.8531C10.2822 27.711 10.986 27.5959 11.6056 27.5076C12.2217 27.4036 12.6955 27.3231 13.027 27.2659C13.8999 27.1378 14.5143 27.1736 14.87 27.3733C15.2222 27.5574 15.4103 27.9991 15.4344 28.6985C15.4394 29.3857 15.4331 30.1328 15.4154 30.9398C15.41 31.7277 15.3967 32.5173 15.3756 33.3087C15.3701 34.0966 15.362 34.8359 15.3514 35.5266C15.3407 36.2173 15.3388 36.7995 15.3456 37.2733C15.3746 38.6599 15.4619 39.8288 15.6073 40.7799C15.7649 41.7118 15.8428 42.3583 15.8409 42.7193C15.8461 42.964 15.8226 43.1905 15.7704 43.3987C15.7183 43.6069 15.6245 43.7752 15.4891 43.9036C15.3728 44.0441 15.2053 44.1387 14.9866 44.1872ZM5.56245 46.2535C5.31252 46.309 5.08086 46.262 4.86745 46.1127C4.6662 45.9443 4.50402 45.6935 4.38091 45.3602C4.25434 45.0113 4.18767 44.6 4.18089 44.1262C4.162 43.524 4.15615 42.8698 4.16333 42.1635C4.18267 41.438 4.20288 40.6797 4.22398 39.8883C4.24507 39.097 4.24535 38.2856 4.22481 37.4543C4.21461 36.8174 4.19489 36.1007 4.16566 35.3041C4.13297 34.4919 4.07684 33.6849 3.99728 32.8831C3.91426 32.0657 3.78173 31.3576 3.59972 30.7588L5.70339 29.825C5.83508 30.4185 5.93724 31.1006 6.00987 31.8712C6.09812 32.6383 6.16293 33.4106 6.20432 34.188C6.26133 34.9621 6.29058 35.6849 6.29209 36.3565C6.30234 36.8459 6.31429 37.4169 6.32795 38.0694C6.33815 38.7063 6.34747 39.3762 6.35591 40.0791C6.36088 40.7663 6.36065 41.4301 6.35523 42.0705C6.36543 42.7074 6.37392 43.2627 6.3807 43.7365C6.38748 44.2103 6.38823 44.5461 6.38296 44.7439C6.38974 45.2177 6.31412 45.5787 6.15611 45.8268C6.01026 46.0558 5.81237 46.1981 5.56245 46.2535ZM25.1323 41.9362C23.8514 42.2204 22.7347 42.1732 21.7821 41.7945C20.845 41.4124 20.1146 40.7796 19.5908 39.896C19.0792 38.9934 18.8036 37.8992 18.7641 36.6132C18.7419 35.7003 18.8689 34.8691 19.145 34.1195C19.4334 33.3508 19.7929 32.681 20.2234 32.1102C20.6696 31.5359 21.1418 31.0788 21.64 30.7388C22.1348 30.3832 22.5774 30.1621 22.9679 30.0755C23.1397 30.0373 23.2855 30.0296 23.4052 30.0522C23.5406 30.0713 23.6516 30.1286 23.7384 30.2241C23.8372 30.3005 23.8901 30.4281 23.897 30.6068C23.8882 30.9365 23.8274 31.2532 23.7145 31.5569C23.5981 31.845 23.3281 32.1425 22.9046 32.4495C22.4012 32.8398 21.9906 33.2423 21.6729 33.657C21.3673 34.0525 21.1442 34.4872 21.0034 34.9609C20.8592 35.419 20.8044 35.9475 20.8389 36.5462C20.8697 37.8669 21.2433 38.8493 21.9598 39.4934C22.6729 40.1218 23.5918 40.3113 24.7164 40.0618C25.8098 39.8192 26.676 39.2173 27.315 38.2561C27.9661 37.2758 28.2711 36.1018 28.2299 34.7343C28.213 33.4761 27.9269 32.5562 27.3718 31.9747C26.8132 31.3775 26.0653 31.1828 25.128 31.3908C24.6438 31.4982 24.2507 31.6838 23.9486 31.9475C23.6622 32.2077 23.3584 32.5373 23.0372 32.9364C22.808 33.233 22.6283 33.4942 22.4981 33.7197C22.3678 33.9453 22.2445 34.1283 22.1282 34.2689C22.0241 34.3903 21.8704 34.4736 21.6674 34.5186C21.4487 34.5671 21.2613 34.535 21.1051 34.4221C20.9611 34.2902 20.884 34.0532 20.8737 33.7114C20.8565 33.3382 20.9547 32.9313 21.1683 32.4906C21.3975 32.0464 21.6961 31.6196 22.0642 31.2101C22.4444 30.7816 22.8714 30.4164 23.3453 30.1146C23.8157 29.7972 24.3009 29.583 24.8007 29.4721C25.9254 29.2226 26.898 29.2854 27.7188 29.6606C28.5361 30.0201 29.1719 30.6329 29.6263 31.499C30.0772 32.3496 30.3094 33.3961 30.3229 34.6387C30.3641 35.8587 30.1711 36.9832 29.7438 38.0122C29.3131 39.0256 28.6984 39.8748 27.8999 40.5601C27.117 41.2418 26.1944 41.7006 25.1323 41.9362ZM38.715 38.8489C37.5591 39.1054 36.556 39.0903 35.7058 38.8036C34.8677 38.4979 34.2101 37.9719 33.7331 37.2254C33.2683 36.46 33.0256 35.5141 33.0052 34.3878C32.9882 33.4246 33.1351 32.4988 33.4461 31.6103C33.7692 30.7028 34.2259 29.8804 34.8162 29.143C35.4186 28.3865 36.113 27.749 36.8994 27.2304C37.6857 26.7117 38.5318 26.3519 39.4378 26.1509C39.8439 26.0608 40.2171 26.0436 40.5572 26.0992C40.8938 26.1393 41.1585 26.2608 41.351 26.4639C41.5557 26.648 41.6554 26.9127 41.6501 27.258C41.6535 27.5687 41.5883 27.829 41.4546 28.0389C41.3175 28.2332 41.1317 28.3564 40.8974 28.4084C40.7256 28.4465 40.5859 28.4447 40.4783 28.403C40.3707 28.3613 40.2553 28.3214 40.1321 28.2831C40.0245 28.2415 39.8536 28.2466 39.6193 28.2986C38.7289 28.4961 37.9435 28.908 37.263 29.5343C36.579 30.1449 36.0434 30.8702 35.6561 31.71C35.281 32.5307 35.0976 33.3663 35.106 34.2167C35.1422 34.897 35.2843 35.4636 35.5323 35.9167C35.7925 36.3506 36.1551 36.6553 36.6202 36.8307C37.1008 37.0027 37.6457 37.0211 38.2549 36.886C38.9422 36.7335 39.4716 36.5341 39.8431 36.2878C40.2111 36.0259 40.4897 35.7674 40.6789 35.5123C40.8838 35.2538 41.047 35.0291 41.1686 34.8383C41.2866 34.6318 41.4472 34.506 41.6503 34.461C41.9471 34.3951 42.1657 34.4204 42.3062 34.5367C42.4624 34.6495 42.5474 34.8847 42.5611 35.2422C42.5661 35.782 42.4028 36.3017 42.0712 36.8014C41.7361 37.2854 41.2726 37.7079 40.6807 38.0686C40.1044 38.4259 39.4492 38.686 38.715 38.8489ZM44.2922 27.7043C43.9329 27.784 43.6275 27.7371 43.3759 27.5635C43.14 27.3864 43.022 27.1503 43.0221 26.8553C43.0309 26.6731 43.0917 26.5039 43.2045 26.3477C43.3174 26.1916 43.5431 26.0268 43.8815 25.8533C44.4092 25.5724 45.1278 25.2655 46.0373 24.9326C46.9624 24.5962 48.0575 24.2877 49.3228 24.0069C49.9788 23.8614 50.5837 23.7436 51.1373 23.6535C51.7031 23.5444 52.3322 23.4622 53.0247 23.4069C53.5696 23.3515 54.0035 23.3864 54.3262 23.5114C54.6646 23.633 54.8363 23.8162 54.8415 24.0609C54.8483 24.2396 54.8127 24.4114 54.7346 24.5763C54.6686 24.722 54.5505 24.8548 54.3804 24.9744C54.2259 25.0907 54.0159 25.1782 53.7503 25.2371C53.4223 25.3099 53.0362 25.3792 52.5919 25.445C52.1476 25.5108 51.672 25.5835 51.1653 25.6632C50.6706 25.7238 50.1656 25.8112 49.6501 25.9256C48.5723 26.1647 47.7158 26.4039 47.0806 26.6432C46.4418 26.8668 45.9159 27.0819 45.5028 27.2882C45.0862 27.479 44.6827 27.6177 44.2922 27.7043ZM49.8001 36.4633C49.4565 36.5395 49.1676 36.4561 48.9334 36.2131C48.7148 35.9666 48.5257 35.6315 48.3662 35.208C48.2622 34.887 48.1634 34.4418 48.0699 33.8725C47.9885 33.2842 47.928 32.642 47.8883 31.9461C47.8452 31.2346 47.8151 30.5447 47.7979 29.8766C47.7791 28.9793 47.7595 28.1888 47.7389 27.5051C47.7304 26.8022 47.7167 26.2234 47.6978 25.7687L49.7753 25.1603C49.7718 25.4397 49.7682 25.7929 49.7646 26.2198C49.7731 26.6276 49.786 27.0919 49.8031 27.6125C49.8168 28.1175 49.8262 28.6399 49.8312 29.1796C49.8484 29.7002 49.8621 30.2053 49.8724 30.6947C49.8895 31.5103 49.9335 32.1889 50.0044 32.7304C50.0876 33.2528 50.1733 33.6763 50.2617 34.0008C50.3501 34.3254 50.4264 34.5953 50.4905 34.8105C50.5512 35.0101 50.585 35.1993 50.5919 35.378C50.5987 35.5568 50.5709 35.7268 50.5084 35.8882C50.4424 36.034 50.346 36.1537 50.2193 36.2473C50.0961 36.3566 49.9563 36.4286 49.8001 36.4633ZM62.0853 33.7376C60.8044 34.0218 59.6877 33.9745 58.735 33.5959C57.798 33.2138 57.0676 32.581 56.5438 31.6974C56.0322 30.7948 55.7566 29.7005 55.7171 28.4146C55.6949 27.5017 55.8219 26.6705 56.098 25.9209C56.3864 25.1522 56.7458 24.4824 57.1764 23.9116C57.6226 23.3373 58.0948 22.8802 58.593 22.5402C59.0877 22.1846 59.5304 21.9635 59.9209 21.8768C60.0927 21.8387 60.2385 21.831 60.3582 21.8536C60.4936 21.8727 60.6046 21.93 60.6913 22.0255C60.7902 22.1019 60.8431 22.2295 60.85 22.4082C60.8412 22.7379 60.7804 23.0546 60.6675 23.3583C60.5511 23.6463 60.2811 23.9439 59.8576 24.2509C59.3542 24.6412 58.9436 25.0437 58.6259 25.4584C58.3203 25.8539 58.0971 26.2886 57.9564 26.7623C57.8122 27.2204 57.7574 27.7489 57.7919 28.3476C57.8227 29.6683 58.1963 30.6507 58.9128 31.2948C59.6259 31.9232 60.5447 32.1127 61.6694 31.8632C62.7628 31.6206 63.629 31.0187 64.268 30.0575C64.9191 29.0772 65.2241 27.9032 65.1829 26.5357C65.166 25.2775 64.8799 24.3576 64.3248 23.776C63.7662 23.1789 63.0183 22.9842 62.081 23.1922C61.5968 23.2996 61.2037 23.4852 60.9016 23.7489C60.6152 24.0091 60.3114 24.3387 59.9902 24.7377C59.761 25.0344 59.5813 25.2956 59.4511 25.5211C59.3208 25.7467 59.1975 25.9297 59.0812 26.0703C58.9771 26.1917 58.8234 26.275 58.6204 26.32C58.4017 26.3685 58.2143 26.3364 58.0581 26.2235C57.9141 26.0916 57.837 25.8546 57.8267 25.5128C57.8095 25.1396 57.9076 24.7327 58.1213 24.292C58.3505 23.8478 58.6491 23.421 59.0172 23.0115C59.3974 22.583 59.8244 22.2178 60.2983 21.916C60.7687 21.5986 61.2539 21.3844 61.7537 21.2735C62.8783 21.024 63.851 21.0868 64.6718 21.462C65.4891 21.8215 66.1249 22.4343 66.5793 23.3004C67.0302 24.151 67.2624 25.1975 67.2759 26.4401C67.3171 27.6601 67.1241 28.7846 66.6968 29.8136C66.2661 30.8269 65.6514 31.6762 64.8529 32.3615C64.07 33.0432 63.1474 33.5019 62.0853 33.7376ZM79.2415 29.9067C78.8197 30.0002 78.4735 29.8804 78.2029 29.5471C77.9445 29.1947 77.745 28.7391 77.6046 28.1802C77.5423 27.899 77.479 27.5771 77.4149 27.2144C77.3509 26.8516 77.3007 26.4776 77.2643 26.0923C77.2437 25.7036 77.2221 25.3478 77.1996 25.025C77.1997 24.73 77.1999 24.3612 77.2 23.9187C77.2158 23.4727 77.2298 23.0189 77.2421 22.5572C77.2666 22.0765 77.2841 21.6383 77.2946 21.2427C77.3173 20.8279 77.3296 20.5138 77.3314 20.3003C77.3176 20.0903 77.2378 19.9523 77.092 19.8863C76.9428 19.8047 76.712 19.7986 76.3996 19.8679C76.1497 19.9233 75.8798 19.9996 75.5899 20.0967C75.3001 20.1938 74.9903 20.3117 74.6605 20.4504C73.8985 20.7833 73.2432 21.1909 72.6947 21.6732C72.1583 22.1364 71.8978 22.5875 71.9133 23.0266C71.9149 23.4032 72.0267 23.7225 72.2488 23.9847C72.483 24.2277 72.869 24.3797 73.407 24.4406C73.9606 24.4981 74.7216 24.4194 75.6901 24.2045C76.0337 24.1283 76.3756 24.0442 76.7158 23.9524C77.056 23.8605 77.3788 23.7643 77.6843 23.6637C78.0019 23.5441 78.2683 23.4522 78.4835 23.3881C78.6953 23.3083 78.8324 23.2615 78.8949 23.2476C79.2854 23.161 79.6186 23.1116 79.8946 23.0996C80.1705 23.0875 80.3084 23.229 80.3083 23.524C80.3308 23.8468 80.2144 24.1349 79.9592 24.3882C79.7196 24.638 79.3742 24.854 78.9229 25.036C78.4873 25.2146 77.9648 25.3715 77.3557 25.5067L74.9423 26.0421C74.0988 26.2292 73.2866 26.2619 72.5057 26.1402C71.7405 26.015 71.1132 25.7362 70.6239 25.3039C70.1503 24.8682 69.8997 24.2928 69.8722 23.5778C69.8724 23.1352 69.9784 22.6528 70.1903 22.1305C70.4143 21.5891 70.7859 21.0478 71.305 20.5065C71.8397 19.9618 72.5792 19.4535 73.5234 18.9818C74.2003 18.635 74.7757 18.3844 75.2496 18.2301C75.7234 18.0758 76.2024 17.9449 76.6866 17.8375C77.2958 17.7023 77.7913 17.6826 78.1731 17.7781C78.5548 17.8737 78.8411 18.056 79.0319 18.3251C79.2384 18.5907 79.3458 18.9274 79.3544 19.3352C79.3647 19.6771 79.3515 20.098 79.3149 20.5978C79.2748 21.0819 79.2382 21.5817 79.2051 22.0971C79.1841 22.5935 79.1683 23.0395 79.1577 23.4352C79.1628 23.8274 79.1826 24.2491 79.2172 24.7003C79.2483 25.1359 79.2933 25.5602 79.3521 25.9733C79.411 26.3864 79.4733 26.7413 79.5392 27.0381C79.6154 27.3817 79.7047 27.747 79.8069 28.1341C79.9214 28.502 79.9785 28.7598 79.9785 28.9073C79.9958 29.1329 79.9358 29.3429 79.7987 29.5372C79.6615 29.7315 79.4758 29.8547 79.2415 29.9067ZM70.9888 31.713C70.7076 31.7754 70.4682 31.7302 70.2704 31.5774C70.0847 31.4056 69.9876 31.1895 69.979 30.9292C69.9878 30.7469 70.0668 30.5491 70.2161 30.3357C70.362 30.1067 70.6293 29.8343 71.0182 29.5186C71.6848 28.9774 72.3193 28.3285 72.9218 27.5721C73.5398 26.8122 74.1423 25.9819 74.7292 25.0815L76.3925 25.5974C75.9896 26.2932 75.5381 26.9916 75.0381 27.6925C74.5502 28.3744 74.0519 29.0094 73.5432 29.5975C73.0502 30.1822 72.5832 30.6628 72.1422 31.0392C71.7013 31.4157 71.3168 31.6403 70.9888 31.713ZM85.1832 28.5884C84.8083 28.6715 84.483 28.5717 84.2071 28.2887C83.9313 28.0057 83.7058 27.5804 83.5307 27.0129C83.3678 26.4263 83.2761 25.7173 83.2555 24.886C83.2593 24.0166 83.3315 23.345 83.4723 22.8712C83.6252 22.3784 83.8405 22.0193 84.1182 21.7938C84.2693 21.6619 84.4992 21.5535 84.8082 21.4686C85.1137 21.368 85.4382 21.2796 85.7819 21.2034C86.9221 20.9504 88.0346 20.6462 89.1194 20.2908C90.2164 19.9163 91.2656 19.4377 92.2671 18.8549L93.0476 20.3781C92.3046 20.8707 91.4819 21.299 90.5793 21.6632C89.6768 22.0273 88.7482 22.3481 87.7936 22.6254C86.8512 22.8837 85.927 23.1133 85.021 23.3143L83.6153 23.4049C83.6139 22.4383 83.6099 21.4231 83.6033 20.3592C83.5967 19.2954 83.5831 18.3478 83.5626 17.5166C83.5419 17.1278 83.5993 16.7955 83.7348 16.5196C83.8702 16.2437 84.0551 16.0798 84.2894 16.0278C84.6799 15.9412 85.0035 16.0332 85.2603 16.3041C85.5136 16.5593 85.6427 17.0305 85.6477 17.7177C85.6614 18.0752 85.6596 18.5099 85.642 19.0219C85.6245 19.5338 85.6044 20.071 85.5816 20.6332C85.5745 21.192 85.5621 21.7274 85.5446 22.2394C85.5392 22.7322 85.54 23.1418 85.5468 23.4681C85.5604 24.4156 85.6 25.2591 85.6657 25.9984C85.7435 26.7186 85.7911 27.2653 85.8083 27.6384C85.81 27.8675 85.7483 28.0697 85.6233 28.2449C85.5173 28.4323 85.3707 28.5468 85.1832 28.5884ZM93.2667 26.7949C92.8762 26.8816 92.5447 26.7175 92.2724 26.3026C92.0157 25.8843 91.8085 25.2829 91.6509 24.4984C91.5054 23.6948 91.4206 22.7958 91.3967 21.8014C91.3764 20.2326 91.3864 18.9848 91.4266 18.0581C91.479 17.1123 91.5495 16.3591 91.6382 15.7986C91.6869 15.4272 91.7756 15.088 91.9041 14.7809C92.0326 14.4737 92.2296 14.2907 92.4952 14.2318C92.8388 14.1556 93.1173 14.2658 93.3307 14.5627C93.5562 14.8404 93.6723 15.2162 93.6791 15.69C93.6945 16.2766 93.6579 16.9239 93.5691 17.6319C93.496 18.3365 93.4741 19.087 93.5033 19.8836C93.5238 20.8624 93.5799 21.7432 93.6716 22.5259C93.7755 23.2895 93.8768 23.9308 93.9755 24.4497C94.0743 24.9687 94.1201 25.36 94.1131 25.6238C94.1286 25.9154 94.0539 26.1696 93.889 26.3865C93.724 26.6033 93.5166 26.7395 93.2667 26.7949ZM99.3009 25.4562C98.926 25.5393 98.6006 25.4394 98.3248 25.1565C98.0489 24.8735 97.8235 24.4482 97.6484 23.8807C97.4855 23.294 97.3937 22.5851 97.3732 21.7538C97.3768 21.1794 97.4074 20.6891 97.4648 20.283C97.5378 19.8735 97.636 19.5403 97.7593 19.2835C97.8947 19.0076 98.0536 18.8003 98.2359 18.6615C98.3869 18.5297 98.6169 18.4213 98.9258 18.3364C99.2313 18.2358 99.5559 18.1474 99.8995 18.0712C101.04 17.8182 102.152 17.514 103.237 17.1586C104.334 16.7841 105.383 16.3055 106.385 15.7227L107.165 17.2458C106.422 17.7384 105.6 18.1668 104.697 18.531C103.794 18.8951 102.866 19.2158 101.911 19.4932C100.969 19.7514 100.045 19.9811 99.1387 20.1821L97.7329 20.2727C97.7349 19.6167 97.7334 18.9451 97.7284 18.2579C97.7234 17.5706 97.7124 16.8929 97.6952 16.2248C97.6937 15.5532 97.6887 14.9397 97.6803 14.3843C97.6596 13.9956 97.7169 13.6633 97.8524 13.3874C97.9879 13.1115 98.1727 12.9476 98.407 12.8956C98.7975 12.8089 99.1212 12.901 99.3779 13.1718C99.6312 13.427 99.7603 13.8983 99.7653 14.5855C99.7791 14.943 99.7772 15.3777 99.7597 15.8897C99.7421 16.4016 99.722 16.9387 99.6992 17.501C99.6921 18.0598 99.6798 18.5952 99.6623 19.1072C99.6569 19.6 99.6576 20.0096 99.6644 20.3358C99.678 21.2834 99.7176 22.1268 99.7833 22.8662C99.8612 23.5864 99.9087 24.1331 99.9259 24.5062C99.9276 24.7353 99.8659 24.9374 99.7409 25.1127C99.635 25.3001 99.4883 25.4146 99.3009 25.4562ZM107.384 23.6627C106.994 23.7494 106.662 23.5852 106.39 23.1704C106.133 22.752 105.926 22.1506 105.769 21.3662C105.623 20.5626 105.538 19.6636 105.514 18.6692C105.494 17.1004 105.504 15.8526 105.544 14.9259C105.597 13.9801 105.667 13.2269 105.756 12.6664C105.805 12.295 105.893 11.9558 106.022 11.6486C106.15 11.3415 106.347 11.1585 106.613 11.0996C106.956 11.0233 107.235 11.1336 107.448 11.4305C107.674 11.7082 107.79 12.084 107.797 12.5577C107.812 13.1443 107.776 13.7916 107.687 14.4997C107.614 15.2042 107.592 15.9548 107.621 16.7514C107.641 17.7302 107.698 18.6109 107.789 19.3937C107.893 20.1573 107.994 20.7986 108.093 21.3175C108.192 21.8364 108.238 22.2278 108.231 22.4916C108.246 22.7831 108.172 23.0374 108.007 23.2542C107.842 23.4711 107.634 23.6073 107.384 23.6627ZM114.475 22.0649C113.757 22.2243 113.133 22.1824 112.604 21.9393C112.09 21.6927 111.68 21.2838 111.373 20.7128C111.081 20.1382 110.926 19.4353 110.905 18.604C110.879 17.8231 110.971 17.0161 111.179 16.1832C111.4 15.3312 111.717 14.5069 112.13 13.7105C112.54 12.8985 113.024 12.1602 113.581 11.4957C114.15 10.8121 114.777 10.2388 115.461 9.77565C116.16 9.30906 116.893 8.99085 117.658 8.82104C118.018 8.74133 118.32 8.77267 118.564 8.91506C118.809 9.05745 118.934 9.32475 118.939 9.71696C118.949 9.91134 118.9 10.0944 118.79 10.2662C118.677 10.4223 118.492 10.5455 118.233 10.6356C117.174 11.0344 116.246 11.6502 115.447 12.4829C114.664 13.3122 114.059 14.2413 113.632 15.2703C113.217 16.2802 113.015 17.2919 113.027 18.3054C113.033 18.7792 113.078 19.2035 113.162 19.5784C113.241 19.9377 113.423 20.3889 113.708 20.9322L112.459 19.5131C112.82 19.81 113.122 19.9888 113.364 20.0496C113.623 20.107 113.963 20.0889 114.385 19.9953C115.385 19.7735 116.258 18.9078 117.005 17.3982C117.751 15.8887 118.29 13.8107 118.621 11.1642C118.664 10.8432 118.762 10.5838 118.915 10.386C119.08 10.1691 119.295 10.0312 119.561 9.97229C119.92 9.89258 120.228 9.98813 120.485 10.2589C120.754 10.5107 120.925 10.8743 120.997 11.3498C121.153 12.3478 121.319 13.2451 121.496 14.0417C121.685 14.8192 121.934 15.5343 122.243 16.187C122.567 16.8361 123.021 17.481 123.606 18.1216C123.734 18.257 123.813 18.4279 123.843 18.6345C123.888 18.8375 123.876 19.0449 123.809 19.2566C123.757 19.4649 123.658 19.6505 123.514 19.8136C123.382 19.9576 123.207 20.0538 122.988 20.1024C122.754 20.1544 122.556 20.1491 122.395 20.0865C122.249 20.0206 122.11 19.912 121.978 19.761C121.67 19.4034 121.379 19.0172 121.107 18.6023C120.834 18.1874 120.58 17.7032 120.342 17.1495C120.117 16.5767 119.923 15.8903 119.762 15.0902C119.601 14.2901 119.469 13.3277 119.367 12.2031L120.206 11.9926C119.992 14.2034 119.576 16.0247 118.96 17.4562C118.359 18.8842 117.656 19.9661 116.853 20.7016C116.049 21.4372 115.256 21.8916 114.475 22.0649ZM134.774 17.5859C134.352 17.6795 134.006 17.5596 133.735 17.2263C133.477 16.8739 133.277 16.4183 133.137 15.8594C133.075 15.5783 133.011 15.2563 132.947 14.8936C132.883 14.5309 132.833 14.1569 132.797 13.7716C132.776 13.3828 132.755 13.0271 132.732 12.7043C132.732 12.4092 132.732 12.0405 132.732 11.5979C132.748 11.1519 132.762 10.6981 132.775 10.2365C132.799 9.75577 132.817 9.31758 132.827 8.9219C132.85 8.50714 132.862 8.19302 132.864 7.97957C132.85 7.76957 132.77 7.63158 132.624 7.56558C132.475 7.48396 132.244 7.47781 131.932 7.54712C131.682 7.60257 131.412 7.67884 131.122 7.77593C130.833 7.87301 130.523 7.99092 130.193 8.12964C129.431 8.46259 128.776 8.8702 128.227 9.35246C127.691 9.81564 127.43 10.2668 127.446 10.7058C127.447 11.0824 127.559 11.4018 127.781 11.6639C128.015 11.907 128.402 12.0589 128.939 12.1199C129.493 12.1773 130.254 12.0986 131.223 11.8838C131.566 11.8075 131.908 11.7235 132.248 11.6316C132.588 11.5397 132.911 11.4435 133.217 11.343C133.534 11.2233 133.801 11.1314 134.016 11.0673C134.228 10.9876 134.365 10.9407 134.427 10.9269C134.818 10.8402 135.151 10.7909 135.427 10.7788C135.703 10.7668 135.841 10.9083 135.841 11.2033C135.863 11.5261 135.747 11.8141 135.492 12.0674C135.252 12.3173 134.907 12.5332 134.455 12.7153C134.02 12.8939 133.497 13.0507 132.888 13.1859L130.475 13.7213C129.631 13.9085 128.819 13.9412 128.038 13.8194C127.273 13.6942 126.646 13.4155 126.156 12.9832C125.683 12.5474 125.432 11.972 125.405 11.257C125.405 10.8145 125.511 10.3321 125.723 9.80977C125.947 9.26839 126.318 8.72705 126.837 8.18577C127.372 7.64102 128.112 7.13279 129.056 6.66107C129.733 6.31421 130.308 6.06364 130.782 5.90934C131.256 5.75505 131.735 5.62418 132.219 5.51675C132.828 5.38159 133.324 5.3618 133.706 5.45738C134.087 5.55296 134.374 5.73528 134.564 6.00434C134.771 6.26993 134.878 6.60665 134.887 7.01448C134.897 7.35636 134.884 7.7772 134.847 8.277C134.807 8.76118 134.771 9.26097 134.738 9.77639C134.717 10.2727 134.701 10.7187 134.69 11.1144C134.695 11.5066 134.715 11.9283 134.75 12.3796C134.781 12.8152 134.826 13.2395 134.885 13.6526C134.943 14.0656 135.006 14.4205 135.072 14.7173C135.148 15.061 135.237 15.4263 135.339 15.8133C135.454 16.1813 135.511 16.439 135.511 16.5865C135.528 16.8121 135.468 17.0221 135.331 17.2164C135.194 17.4108 135.008 17.5339 134.774 17.5859ZM126.521 19.3923C126.24 19.4547 126.001 19.4095 125.803 19.2567C125.617 19.0848 125.52 18.8687 125.511 18.6084C125.52 18.4262 125.599 18.2284 125.749 18.015C125.894 17.7859 126.162 17.5136 126.551 17.1978C127.217 16.6566 127.852 16.0078 128.454 15.2513C129.072 14.4914 129.675 13.6612 130.262 12.7607L131.925 13.2767C131.522 13.9725 131.071 14.6708 130.571 15.3718C130.083 16.0536 129.584 16.6886 129.076 17.2768C128.583 17.8615 128.116 18.342 127.675 18.7185C127.234 19.0949 126.849 19.3195 126.521 19.3923ZM13.5975 66.9566C12.4416 67.2131 11.4385 67.198 10.5882 66.9113C9.7501 66.6056 9.09255 66.0795 8.61555 65.3331C8.15072 64.5677 7.90807 63.6218 7.88763 62.4954C7.8706 61.5323 8.01756 60.6065 8.32851 59.718C8.65161 58.8105 9.10831 57.988 9.69861 57.2507C10.3011 56.4942 10.9955 55.8567 11.7818 55.3381C12.5681 54.8194 13.4143 54.4596 14.3202 54.2586C14.7264 54.1685 15.0995 54.1513 15.4396 54.2069C15.7763 54.247 16.0409 54.3685 16.2335 54.5716C16.4382 54.7557 16.5379 55.0204 16.5326 55.3657C16.5359 55.6764 16.4708 55.9366 16.3371 56.1466C16.1999 56.3409 16.0142 56.4641 15.7799 56.516C15.608 56.5542 15.4683 56.5524 15.3608 56.5107C15.2532 56.469 15.1378 56.4291 15.0146 56.3908C14.907 56.3492 14.736 56.3543 14.5017 56.4063C13.6114 56.6038 12.826 57.0157 12.1455 57.642C11.4615 58.2526 10.9259 58.9779 10.5386 59.8177C10.1634 60.6384 9.98006 61.474 9.98844 62.3243C10.0247 63.0047 10.1668 63.5713 10.4148 64.0244C10.675 64.4583 11.0376 64.763 11.5026 64.9384C11.9833 65.1104 12.5282 65.1288 13.1374 64.9937C13.8247 64.8412 14.354 64.6418 14.7255 64.3955C15.0935 64.1335 15.3721 63.8751 15.5614 63.62C15.7663 63.3615 15.9295 63.1368 16.051 62.946C16.1691 62.7395 16.3297 62.6137 16.5327 62.5687C16.8295 62.5028 17.0482 62.5281 17.1887 62.6444C17.3448 62.7572 17.4298 62.9924 17.4436 63.3499C17.4486 63.8896 17.2853 64.4094 16.9536 64.9091C16.6185 65.3931 16.155 65.8156 15.5631 66.1763C14.9868 66.5336 14.3316 66.7937 13.5975 66.9566ZM29.4925 63.4792C29.0239 63.5832 28.4772 63.557 27.8525 63.4006C27.2243 63.2285 26.5832 62.9611 25.929 62.5981C25.2905 62.2317 24.6841 61.8254 24.1098 61.3792C23.5512 60.9296 23.0914 60.4825 22.7306 60.0381C22.519 59.8229 22.3672 59.6189 22.2753 59.4262C22.1955 59.2145 22.1409 59.0053 22.1115 58.7988C22.1306 58.6635 22.1619 58.509 22.2054 58.3355C22.2488 58.162 22.3191 57.9988 22.4164 57.8462C22.5484 57.5547 22.7941 57.1478 23.1535 56.6255C23.5129 56.1033 23.9357 55.5342 24.4218 54.9183C24.9201 54.2833 25.4427 53.6839 25.9895 53.12C26.5485 52.5371 27.0858 52.041 27.6014 51.6316C28.1326 51.2187 28.609 50.9655 29.0308 50.8719C29.2026 50.8338 29.344 50.8434 29.4551 50.9007C29.5818 50.9545 29.6824 51.0387 29.757 51.1533C29.8316 51.2679 29.8749 51.3894 29.887 51.5178C29.9476 51.8649 29.7939 52.2432 29.4259 52.6526C29.0578 53.0621 28.6533 53.455 28.2124 53.8314C27.4329 54.5288 26.7533 55.1959 26.1734 55.8326C25.5936 56.4693 25.1344 57.0219 24.7958 57.4903C24.4728 57.9553 24.3209 58.2677 24.3399 58.4273C24.3364 58.5592 24.4249 58.7363 24.6053 58.9585C24.7857 59.1807 25.045 59.4263 25.3834 59.6954C25.7373 59.9611 26.1476 60.2224 26.6144 60.4794C27.0968 60.7329 27.6225 60.9604 28.1917 61.162C28.53 61.2835 28.8589 61.3991 29.1782 61.5085C29.5096 61.5989 29.7803 61.7109 29.9902 61.8446C30.2123 61.9592 30.3381 62.1198 30.3675 62.3263C30.39 62.5016 30.37 62.6699 30.3075 62.8313C30.245 62.9927 30.1364 63.1315 29.9819 63.2477C29.8431 63.3605 29.6799 63.4376 29.4925 63.4792ZM21.685 65.1868C21.2789 65.2769 20.9605 65.1345 20.7298 64.7596C20.4956 64.369 20.3232 63.7763 20.2124 62.9815C20.1137 62.1675 20.049 61.1739 20.0181 60.0008C20.0079 59.5114 20.0081 58.9951 20.0187 58.4519C20.0449 57.9052 20.0711 57.3586 20.0973 56.8119C20.1201 56.2496 20.1228 55.7082 20.1057 55.1875C20.1092 55.0557 20.1049 54.9255 20.0928 54.7971C20.0928 54.6496 20.0851 54.5038 20.0695 54.3597C20.0627 54.0335 20.0914 53.7567 20.1557 53.5293C20.22 53.302 20.3103 53.1181 20.4266 52.9776C20.5551 52.8179 20.6974 52.7208 20.8536 52.6862C21.2129 52.6064 21.5304 52.7081 21.8063 52.9911C22.0943 53.2549 22.2399 53.6897 22.2432 54.2954C22.2517 54.7032 22.2342 55.2152 22.1906 55.8312C22.1591 56.4282 22.1234 57.0426 22.0832 57.6742C22.0431 58.3059 22.0264 58.8587 22.0332 59.3324C22.0728 60.1759 22.1246 60.9265 22.1886 61.5842C22.2682 62.2385 22.347 62.7783 22.425 63.2035C22.4995 63.6131 22.5306 63.9012 22.5184 64.0678C22.5287 64.2621 22.4948 64.4417 22.4167 64.6066C22.3507 64.7523 22.2543 64.8721 22.1276 64.9657C22.02 65.0715 21.8724 65.1453 21.685 65.1868ZM35.4044 62.1676C34.8733 62.2854 34.4238 62.254 34.056 62.0734C33.7038 61.8893 33.4123 61.6098 33.1816 61.2349C32.9475 60.8443 32.7767 60.4069 32.6692 59.9227C32.574 59.4194 32.5212 58.923 32.511 58.4336C32.5146 58.0067 32.5321 57.4948 32.5635 56.8978C32.6106 56.2973 32.6681 55.67 32.736 55.0158C32.8039 54.3615 32.8726 53.7481 32.9423 53.1754C33.0275 52.5992 33.0997 52.1489 33.1588 51.8244C33.2405 51.2327 33.3266 50.7711 33.417 50.4396C33.5229 50.1047 33.6931 49.9113 33.9274 49.8593C34.1304 49.8142 34.3335 49.8429 34.5365 49.9454C34.7395 50.0479 34.9043 50.1998 35.0309 50.4011C35.1732 50.599 35.2503 50.8359 35.2624 51.1119C35.271 51.3722 35.2413 51.7557 35.1735 52.2624C35.1056 52.7692 35.0265 53.3358 34.936 53.9622C34.8456 54.5887 34.7646 55.2212 34.6933 55.8598C34.6184 56.4828 34.5861 57.039 34.5964 57.5284C34.5962 57.971 34.6239 58.391 34.6793 58.7884C34.7312 59.1702 34.8161 59.4792 34.9341 59.7152C35.0485 59.9357 35.2073 60.0234 35.4104 59.9783C35.9102 59.8674 36.444 59.2819 37.0119 58.2217C37.5954 57.1581 38.1902 55.7396 38.7965 53.9661C39.0814 53.1818 39.322 52.4565 39.5183 51.7901C39.7147 51.1238 39.8893 50.5442 40.0422 50.0514C40.1916 49.543 40.3557 49.1378 40.5346 48.8359C40.7134 48.534 40.92 48.357 41.1543 48.305C41.5136 48.2253 41.8025 48.3087 42.0211 48.5552C42.2518 48.7827 42.4096 49.1246 42.4945 49.5811C42.5846 49.9872 42.6799 50.4905 42.7803 51.091C42.8964 51.688 43.0159 52.3007 43.1389 52.9289C43.2585 53.5416 43.385 54.1117 43.5184 54.6394C43.7663 55.5349 44.0168 56.2578 44.27 56.808C44.5353 57.3392 44.7608 57.7644 44.9464 58.0838C45.132 58.4032 45.2412 58.674 45.2741 58.8961C45.2966 59.0714 45.2783 59.2476 45.2193 59.4246C45.1567 59.5859 45.0656 59.7291 44.9458 59.854C44.826 59.9789 44.6802 60.0604 44.5084 60.0985C43.9617 60.2198 43.4915 59.9472 43.0977 59.2807C42.704 58.6141 42.3113 57.6933 41.9194 56.5183C41.7634 55.9629 41.5988 55.3685 41.4254 54.735C41.2677 54.098 41.1257 53.4576 40.9992 52.8137C40.8883 52.1663 40.7879 51.5658 40.6978 51.0122L41.4293 51.0957C41.285 51.7014 41.1061 52.372 40.8924 53.1078C40.6786 53.8436 40.372 54.7884 39.9725 55.9423C39.6285 56.9037 39.2291 57.8363 38.7741 58.7403C38.3156 59.6287 37.8043 60.3895 37.24 61.0228C36.6879 61.6369 36.0761 62.0185 35.4044 62.1676ZM48.2159 57.9239C48.315 57.4102 48.4566 56.8298 48.6408 56.1825C48.8215 55.5196 49.0204 54.8281 49.2376 54.108C49.4704 53.3844 49.7067 52.6764 49.9464 51.984C50.1983 51.2726 50.4406 50.6288 50.6733 50.0527C50.9842 49.3118 51.3038 48.6099 51.632 47.9471C51.9602 47.2843 52.2893 46.736 52.6192 46.3022C52.9612 45.8494 53.2806 45.5901 53.5774 45.5242C53.8898 45.4549 54.1926 45.527 54.4858 45.7406C54.7947 45.9507 55.1104 46.3395 55.433 46.9071C55.655 47.3168 55.9108 47.8418 56.2004 48.4823C56.49 49.1228 56.7856 49.8275 57.0873 50.5964C57.3856 51.3497 57.6621 52.1159 57.917 52.8952C58.1718 53.6745 58.3816 54.3983 58.5462 55.0665L56.5259 55.7114C56.344 54.9651 56.1091 54.165 55.8213 53.311C55.5456 52.438 55.2457 51.6032 54.9214 50.8065C54.5972 50.0098 54.2894 49.3242 53.998 48.7497C53.7032 48.1595 53.4456 47.7742 53.2253 47.5936L54.0975 47.2034C53.7154 47.8454 53.323 48.588 52.9201 49.4313C52.5328 50.2712 52.1889 51.1587 51.8883 52.094C51.6642 52.7829 51.4566 53.4354 51.2655 54.0514C51.0744 54.6674 50.9032 55.2626 50.7521 55.837C50.613 56.3923 50.4775 56.9632 50.3454 57.5497L48.2159 57.9239ZM59.3541 60.1482C59.0416 60.2175 58.7753 60.1618 58.5549 59.9813C58.3346 59.8007 58.2262 59.5707 58.2298 59.2913C58.2194 59.097 58.2586 58.7933 58.3472 58.3803C58.4393 57.9829 58.5271 57.5291 58.6106 57.0189C58.6941 56.5087 58.7272 55.9933 58.7101 55.4726L59.8187 56.4804C59.593 56.4977 59.2425 56.5427 58.7669 56.6155C58.307 56.6847 57.7256 56.7973 57.0227 56.9533C56.3667 57.0988 55.6889 57.2574 54.9895 57.429C54.3022 57.5815 53.6166 57.7417 52.9328 57.9099C52.2646 58.0745 51.6155 58.2513 50.9855 58.4402C50.352 58.6136 49.7436 58.7895 49.1605 58.9681C48.5808 59.1622 48.0575 59.3521 47.5906 59.5376L48.3224 58.5148C48.3362 58.7248 48.3604 58.9817 48.395 59.2854C48.4296 59.5891 48.472 59.8911 48.5223 60.1913C48.576 60.5072 48.621 60.784 48.6573 61.0218C48.7093 61.2561 48.7457 61.4201 48.7665 61.5138C48.8098 61.7828 48.7611 62.0067 48.6205 62.1854C48.4833 62.3797 48.282 62.5063 48.0164 62.5652C47.6416 62.6484 47.3509 62.5572 47.1445 62.2916C46.938 62.026 46.7898 61.6902 46.6997 61.284C46.6286 61.0376 46.5654 60.7156 46.51 60.3182C46.4546 59.9208 46.426 59.6075 46.4244 59.3784C46.4314 59.1146 46.4766 58.8752 46.56 58.66C46.6243 58.4327 46.7502 58.2245 46.9377 58.0354C47.1252 57.8463 47.3838 57.6824 47.7136 57.5436C48.0902 57.3945 48.6014 57.2237 49.247 57.0313C49.9048 56.8198 50.6442 56.6066 51.4651 56.3917C52.2982 56.1577 53.1582 55.9341 54.0451 55.721C54.9285 55.4922 55.7764 55.2877 56.5886 55.1075C56.8541 55.0486 57.1353 54.9862 57.4321 54.9203C57.7445 54.851 58.0664 54.7878 58.3979 54.7306C58.7294 54.6735 59.0488 54.6354 59.3559 54.6164C59.8193 54.5628 60.1551 54.6358 60.3633 54.8354C60.5871 55.0316 60.7076 55.39 60.7248 55.9107C60.7333 56.3185 60.708 56.7584 60.6488 57.2304C60.5897 57.7025 60.4923 58.1502 60.3568 58.5736C60.2404 59.0091 60.091 59.3701 59.9087 59.6563C59.742 59.9392 59.5571 60.1031 59.3541 60.1482ZM71.8912 54.0724C71.4226 54.1764 70.8759 54.1501 70.2512 53.9937C69.623 53.8217 68.9819 53.5542 68.3277 53.1913C67.6892 52.8249 67.0828 52.4186 66.5085 51.9724C65.9499 51.5227 65.4901 51.0757 65.1293 50.6313C64.9177 50.416 64.7659 50.2121 64.674 50.0194C64.5942 49.8077 64.5396 49.5985 64.5102 49.392C64.5293 49.2566 64.5606 49.1022 64.6041 48.9287C64.6475 48.7551 64.7178 48.592 64.8151 48.4393C64.9471 48.1478 65.1928 47.741 65.5522 47.2187C65.9116 46.6965 66.3344 46.1274 66.8205 45.5115C67.3188 44.8765 67.8414 44.277 68.3882 43.7132C68.9472 43.1303 69.4845 42.6341 70.0001 42.2247C70.5313 41.8119 71.0077 41.5587 71.4295 41.4651C71.6013 41.427 71.7427 41.4366 71.8538 41.4939C71.9805 41.5477 72.0811 41.6319 72.1557 41.7465C72.2303 41.8611 72.2736 41.9826 72.2857 42.111C72.3463 42.4581 72.1926 42.8364 71.8246 43.2458C71.4565 43.6552 71.052 44.0482 70.6111 44.4246C69.8316 45.122 69.152 45.7891 68.5721 46.4258C67.9923 47.0625 67.5331 47.6151 67.1945 48.0835C66.8715 48.5485 66.7196 48.8608 66.7386 49.0205C66.7351 49.1524 66.8236 49.3294 67.004 49.5516C67.1844 49.7738 67.4437 50.0195 67.7821 50.2886C68.136 50.5542 68.5463 50.8156 69.0131 51.0726C69.4955 51.3261 70.0212 51.5536 70.5904 51.7551C70.9287 51.8767 71.2576 51.9922 71.5769 52.1017C71.9083 52.192 72.179 52.3041 72.3889 52.4378C72.611 52.5524 72.7368 52.713 72.7662 52.9195C72.7887 53.0948 72.7687 53.2631 72.7062 53.4245C72.6437 53.5859 72.5351 53.7247 72.3806 53.8409C72.2418 53.9536 72.0786 54.0308 71.8912 54.0724ZM64.0837 55.78C63.6776 55.8701 63.3592 55.7277 63.1285 55.3528C62.8943 54.9622 62.7219 54.3695 62.6111 53.5746C62.5124 52.7607 62.4477 51.7671 62.4168 50.5939C62.4066 50.1045 62.4068 49.5883 62.4174 49.0451C62.4436 48.4984 62.4698 47.9518 62.496 47.4051C62.5188 46.8428 62.5215 46.3014 62.5044 45.7807C62.5079 45.6488 62.5036 45.5187 62.4915 45.3902C62.4915 45.2427 62.4838 45.097 62.4682 44.9529C62.4614 44.6266 62.4901 44.3498 62.5544 44.1225C62.6187 43.8952 62.709 43.7113 62.8253 43.5707C62.9538 43.4111 63.0961 43.314 63.2523 43.2793C63.6116 43.1996 63.9291 43.3013 64.205 43.5842C64.493 43.8481 64.6386 44.2829 64.6419 44.8886C64.6504 45.2964 64.6329 45.8083 64.5893 46.4244C64.5578 47.0214 64.5221 47.6357 64.4819 48.2674C64.4418 48.8991 64.4251 49.4518 64.4319 49.9256C64.4715 50.7691 64.5233 51.5197 64.5873 52.1774C64.6669 52.8317 64.7457 53.3714 64.8237 53.7967C64.8982 54.2062 64.9293 54.4943 64.9171 54.6609C64.9274 54.8553 64.8935 55.0349 64.8154 55.1998C64.7494 55.3455 64.653 55.4652 64.5263 55.5589C64.4187 55.6647 64.2711 55.7384 64.0837 55.78ZM78.0088 52.6905C77.2902 52.8499 76.6664 52.8081 76.1371 52.5649C75.6235 52.3183 75.2132 51.9095 74.9063 51.3384C74.6149 50.7639 74.459 50.061 74.4384 49.2297C74.4126 48.4487 74.504 47.6418 74.7126 46.8088C74.9333 45.9568 75.2503 45.1326 75.6636 44.3362C76.0734 43.5241 76.557 42.7858 77.1143 42.1214C77.6837 41.4378 78.3104 40.8644 78.9943 40.4013C79.6939 39.9347 80.4264 39.6165 81.1917 39.4467C81.551 39.367 81.853 39.3983 82.0976 39.5407C82.3423 39.6831 82.4671 39.9504 82.4722 40.3426C82.4825 40.537 82.433 40.7201 82.3236 40.8918C82.2108 41.048 82.025 41.1711 81.7664 41.2613C80.7077 41.6601 79.779 42.2759 78.9804 43.1086C78.1974 43.9379 77.5923 44.867 77.1651 45.896C76.7499 46.9059 76.5483 47.9176 76.5601 48.9311C76.5669 49.4048 76.6118 49.8292 76.695 50.2041C76.7747 50.5633 76.9568 51.0146 77.2412 51.5579L75.9922 50.1387C76.3531 50.4356 76.655 50.6145 76.8979 50.6753C77.1565 50.7327 77.4966 50.7145 77.9184 50.621C78.9181 50.3992 79.7913 49.5335 80.538 48.0239C81.2848 46.5143 81.8235 44.4363 82.1541 41.7899C82.1976 41.4688 82.2958 41.2094 82.4485 41.0116C82.6135 40.7947 82.8287 40.6569 83.0943 40.5979C83.4535 40.5182 83.7615 40.6138 84.0183 40.8846C84.2872 41.1363 84.458 41.5 84.5307 41.9755C84.6866 42.9734 84.8529 43.8707 85.0296 44.6673C85.2185 45.4449 85.4673 46.16 85.776 46.8126C86.1003 47.4618 86.5548 48.1066 87.1394 48.7472C87.2678 48.8826 87.3467 49.0536 87.3761 49.2601C87.4212 49.4632 87.4098 49.6706 87.3421 49.8823C87.2899 50.0905 87.1918 50.2762 87.0477 50.4392C86.9158 50.5832 86.7405 50.6795 86.5218 50.728C86.2875 50.78 86.0897 50.7747 85.9283 50.7122C85.7825 50.6462 85.6437 50.5377 85.5119 50.3867C85.2031 50.0291 84.9125 49.6428 84.6402 49.228C84.3679 48.8131 84.1129 48.3288 83.8754 47.7751C83.65 47.2024 83.4567 46.5159 83.2956 45.7158C83.1344 44.9157 83.0029 43.9534 82.9009 42.8288L83.7392 42.6182C83.525 44.8291 83.1096 46.6503 82.493 48.0818C81.892 49.5099 81.1897 50.5917 80.3859 51.3273C79.5822 52.0628 78.7898 52.5172 78.0088 52.6905ZM16.0065 89.2275C15.2724 89.3904 14.7144 89.3503 14.3327 89.1072C13.9701 88.8763 13.7854 88.4501 13.7787 87.8289C13.7701 87.5685 13.8153 87.3291 13.9143 87.1104C14.0133 86.8918 14.1522 86.7053 14.331 86.5509C15.9576 85.0919 17.3221 83.7813 18.4245 82.6189C19.5234 81.4409 20.4019 80.3774 21.06 79.4283C21.7146 78.4636 22.1843 77.5891 22.4692 76.8048C22.7506 76.0048 22.8845 75.2786 22.8708 74.6261C22.859 73.7601 22.6214 73.1326 22.1582 72.7437C21.6915 72.3392 20.9817 72.2427 20.0289 72.4541C19.2323 72.6308 18.5423 72.8822 17.9591 73.2083C17.3915 73.5309 16.8933 73.8709 16.4645 74.2282C16.0514 74.5821 15.7016 74.8892 15.4152 75.1494C15.1287 75.4096 14.884 75.5622 14.6809 75.6073C14.3841 75.6731 14.1368 75.6297 13.9391 75.4769C13.7534 75.305 13.6546 75.0811 13.6425 74.8052C13.6478 74.6073 13.6878 74.4182 13.7625 74.2377C13.8371 74.0573 13.9882 73.8517 14.2156 73.6209C14.9777 72.8454 15.8518 72.168 16.8377 71.5887C17.8358 70.9903 18.8581 70.5751 19.9047 70.3429C21.1074 70.076 22.0697 70.092 22.7915 70.3907C23.5255 70.6704 24.0616 71.166 24.3998 71.8777C24.7536 72.5858 24.939 73.4215 24.956 74.3847C24.9714 75.1188 24.8488 75.9327 24.5881 76.8263C24.3431 77.7165 23.8881 78.6943 23.2231 79.7596C22.5581 80.825 21.624 82.0074 20.4209 83.3068C19.2299 84.5872 17.7092 86.0062 15.8587 87.564L15.4216 86.9235C15.6489 86.9878 15.8754 87.0113 16.101 86.994C16.3422 86.9733 16.5878 86.9352 16.8377 86.8797C17.4157 86.7515 18.0865 86.5617 18.8502 86.3103C19.6138 86.0589 20.4478 85.792 21.3521 85.5094C22.2719 85.2234 23.2317 84.9694 24.2314 84.7476C24.9968 84.5778 25.5105 84.6032 25.7725 84.8237C26.0466 85.0251 26.1854 85.2811 26.1887 85.5917C26.2008 85.8677 26.107 86.1097 25.9073 86.3179C25.7198 86.507 25.4074 86.6501 24.97 86.7471C23.7985 87.0071 22.7728 87.2592 21.8928 87.5036C21.0129 87.748 20.2284 87.9794 19.5393 88.1979C18.8503 88.4163 18.222 88.613 17.6545 88.7881C17.0869 88.9632 16.5376 89.1097 16.0065 89.2275ZM35.0775 84.775C33.9841 85.0176 32.955 84.9592 31.9902 84.5996C31.0411 84.2366 30.2638 83.5404 29.6585 82.5111C29.0653 81.4626 28.7482 80.0334 28.7072 78.2233C28.6729 77.0345 28.8191 75.9204 29.1457 74.881C29.4688 73.826 29.8761 72.8916 30.3675 72.0778C30.8589 71.2641 31.3598 70.6039 31.8702 70.0973C32.3806 69.5907 32.8154 69.2976 33.1747 69.2179C33.4559 69.1555 33.665 69.1747 33.802 69.2754C33.9356 69.3604 34.0032 69.5913 34.0048 69.9679C34.0221 70.1935 33.9813 70.4156 33.8823 70.6342C33.7798 70.8373 33.6149 71.0541 33.3874 71.2849C32.8927 71.788 32.4456 72.3952 32.0462 73.1066C31.6468 73.818 31.329 74.6015 31.0926 75.457C30.8685 76.2934 30.7658 77.1602 30.7846 78.0574C30.7999 79.0865 30.9505 79.9873 31.2366 80.7597C31.5383 81.5286 31.9755 82.0953 32.548 82.46C33.1362 82.8211 33.8677 82.9047 34.7424 82.7106C35.6171 82.5165 36.4312 82.0491 37.1847 81.3083C37.9381 80.5676 38.5328 79.5916 38.9688 78.3804C39.4048 77.1692 39.6075 75.7557 39.5768 74.14C39.572 73.0103 39.4274 72.0262 39.1431 71.1879C38.8553 70.334 38.4529 69.7021 37.9359 69.2924C37.4188 68.8826 36.7854 68.761 36.0357 68.9273C35.4265 69.0625 34.8633 69.2939 34.346 69.6218C33.8252 69.934 33.3409 70.3364 32.893 70.8291C32.4572 71.3028 32.0501 71.8684 31.6715 72.526C31.5743 72.6787 31.4441 72.8305 31.2809 72.9814C31.1333 73.1289 30.919 73.2338 30.6378 73.2962C30.341 73.362 30.1016 73.3168 29.9194 73.1606C29.7372 73.0043 29.6462 72.7787 29.6463 72.4837C29.6551 72.1539 29.8045 71.7192 30.0945 71.1796C30.381 70.6244 30.796 70.057 31.3394 69.4776C31.8984 68.8947 32.5511 68.3647 33.2975 67.8877C34.0595 67.4072 34.8779 67.07 35.7526 66.8759C36.9866 66.6021 38.0374 66.7214 38.9049 67.2336C39.769 67.7302 40.436 68.5574 40.9059 69.7151C41.388 70.8537 41.6374 72.2734 41.6542 73.9741C41.6936 75.5551 41.5334 76.9756 41.1738 78.2354C40.8141 79.4952 40.3174 80.5805 39.6836 81.4914C39.0464 82.3867 38.3303 83.111 37.5353 83.6643C36.7403 84.2177 35.921 84.5879 35.0775 84.775ZM48.2779 82.0922C47.9811 82.158 47.7417 82.1128 47.5595 81.9566C47.3808 81.8159 47.2759 81.6016 47.2447 81.3135C47.2292 81.0219 47.2996 80.7113 47.4559 80.3816C48.3224 78.7471 49.2072 77.1577 50.1101 75.6135C51.0252 74.0502 51.9803 72.519 52.9752 71.0199C53.9701 69.5208 55.011 68.0443 56.0979 66.5904C57.1969 65.1174 58.3636 63.6539 59.598 62.2C59.8828 61.8582 60.1301 61.6067 60.3402 61.4454C60.5502 61.284 60.7802 61.1756 61.0301 61.1202C61.2957 61.0613 61.5004 61.0978 61.6444 61.2297C61.8041 61.3582 61.9038 61.5491 61.9436 61.8025C61.98 62.0403 61.9512 62.3171 61.8574 62.6329C61.7601 62.9331 61.5891 63.2333 61.3443 63.5334C59.5978 65.5598 58.0256 67.523 56.628 69.4228C55.2303 71.3226 53.9489 73.2294 52.7837 75.1432C51.6152 77.0414 50.5029 79.009 49.4471 81.0461C49.2717 81.3636 49.079 81.603 48.8689 81.7644C48.678 81.9379 48.481 82.0471 48.2779 82.0922ZM49.2941 71.7137C48.3256 71.9286 47.4969 71.9239 46.808 71.6998C46.1192 71.4757 45.5961 71.0755 45.2387 70.4992C44.8814 69.923 44.6943 69.227 44.6772 68.4113C44.6566 67.7275 44.8061 67.0716 45.1256 66.4435C45.4607 65.8119 45.8983 65.2723 46.4381 64.8247C46.9936 64.3737 47.6072 64.0737 48.2789 63.9247C48.5757 63.8588 48.8056 63.898 48.9687 64.0421C49.1283 64.1705 49.2159 64.3805 49.2314 64.6721C49.2261 64.8699 49.1549 65.066 49.0177 65.2604C48.8927 65.4356 48.6879 65.6203 48.4032 65.8146C47.7991 66.1945 47.3868 66.5891 47.1663 66.9986C46.9423 67.3925 46.838 67.809 46.8535 68.248C46.8498 68.8225 47.0284 69.2581 47.3893 69.555C47.7502 69.8519 48.282 69.9224 48.985 69.7664C49.6566 69.6174 50.1548 69.3512 50.4794 68.9678C50.8006 68.5687 50.9553 68.0837 50.9433 67.5127C50.9417 66.9886 50.7727 66.5591 50.4361 66.224C50.0996 65.8889 49.6892 65.7751 49.2049 65.8826C48.8925 65.9519 48.6114 65.9405 48.3615 65.8484C48.1238 65.7373 48.0015 65.5186 47.9947 65.1923C47.9931 64.8157 48.0938 64.5311 48.297 64.3386C48.5122 64.1269 48.7448 63.9934 48.9947 63.9379C49.8226 63.7543 50.5359 63.7927 51.1345 64.0532C51.7488 64.3103 52.2267 64.7287 52.5684 65.3084C52.9101 65.8882 53.0878 66.5781 53.1014 67.3781C53.1098 68.081 52.9508 68.7308 52.6243 69.3277C52.3135 69.9211 51.869 70.4295 51.291 70.8527C50.7251 71.2569 50.0595 71.5439 49.2941 71.7137ZM59.2381 79.4146C58.2541 79.633 57.4159 79.6223 56.7235 79.3825C56.0468 79.1393 55.5219 78.7313 55.149 78.1585C54.7882 77.5666 54.5898 76.8567 54.5536 76.0289C54.5469 75.4076 54.6946 74.8176 54.9967 74.2589C55.3111 73.6811 55.7433 73.1919 56.2936 72.7912C56.8404 72.3749 57.4497 72.0922 58.1213 71.9432C58.4337 71.8739 58.668 71.8956 58.8242 72.0085C58.9803 72.1213 59.0644 72.3157 59.0765 72.5917C59.0781 72.8208 59.0199 73.0385 58.9018 73.245C58.7994 73.448 58.605 73.6059 58.3186 73.7186C57.7024 73.97 57.2762 74.3022 57.0401 74.7152C56.8161 75.109 56.7075 75.5429 56.7142 76.0166C56.7175 76.6223 56.9213 77.0606 57.3255 77.3314C57.742 77.5832 58.2704 77.6381 58.9108 77.496C59.5825 77.347 60.1032 77.0348 60.473 76.5594C60.855 76.0649 61.0469 75.4897 61.0489 74.8337C61.0196 74.1846 60.8081 73.6743 60.4143 73.3028C60.0204 72.9313 59.5111 72.8148 58.8863 72.9535C58.5427 73.0297 58.2737 72.9992 58.0794 72.8621C57.885 72.7249 57.7784 72.5027 57.7594 72.1955C57.7613 71.8346 57.8559 71.5595 58.0434 71.3704C58.2465 71.1779 58.4965 71.0487 58.7933 70.9828C59.6368 70.7957 60.3865 70.8506 61.0423 71.1476C61.6982 71.4446 62.2118 71.9124 62.5829 72.5512C62.9697 73.1865 63.1621 73.9059 63.1601 74.7094C63.1789 75.4592 63.0243 76.1654 62.696 76.8283C62.3643 77.4755 61.8973 78.0298 61.295 78.4912C60.7048 78.9335 60.0192 79.2414 59.2381 79.4146Z" fill="#7831B2"/>
</svg>
