<svg width="153" height="96" viewBox="0 0 153 96" fill="none" xmlns="http://www.w3.org/2000/svg">
<path d="M5.50058 48.711C5.31314 48.7525 5.15262 48.7308 5.01902 48.6457C4.8698 48.5641 4.75616 48.4582 4.67811 48.328C4.5966 48.1822 4.55067 48.0121 4.54032 47.8177C4.53866 47.5887 4.64205 47.2052 4.85049 46.6673C5.05892 46.1293 5.34292 45.378 5.70249 44.4132C6.07421 43.4293 6.49721 42.1964 6.97149 40.7145C7.28419 39.7601 7.57432 38.8517 7.84187 37.9893C8.12158 37.1078 8.37609 36.2974 8.60542 35.5582C8.83129 34.8034 9.03543 34.1353 9.21785 33.554C9.40027 32.9727 9.54708 32.4894 9.65827 32.1042C9.90845 31.3112 10.1629 30.7221 10.4216 30.3369C10.6959 29.9482 11.0362 29.7089 11.4423 29.6188C11.989 29.4975 12.4601 29.5896 12.8557 29.8952C13.2478 30.1851 13.6251 30.6668 13.9876 31.3403C14.1437 31.6007 14.3475 32.039 14.5989 32.6551C14.8469 33.2557 15.1208 33.9734 15.4208 34.8082C15.7329 35.624 16.0415 36.4979 16.3466 37.4299C16.6639 38.3429 16.9482 39.2549 17.1995 40.1661C17.463 41.0582 17.6796 41.887 17.8495 42.6524C18.0158 43.4021 18.1041 44.0217 18.1143 44.5111C18.1195 44.7558 18.076 45.0031 17.9839 45.253C17.8884 45.4872 17.7591 45.6798 17.5959 45.8308C17.4362 45.9973 17.247 46.1048 17.0283 46.1534C16.8096 46.2019 16.6222 46.1697 16.466 46.0569C16.329 45.9561 16.2153 45.7765 16.1252 45.5179C16.0316 45.2436 15.9458 44.8939 15.8678 44.4687C15.6548 43.1393 15.3585 41.8038 14.9789 40.4621C14.5993 39.1205 14.198 37.8657 13.7749 36.6976C13.3484 35.5138 12.9331 34.4915 12.529 33.6306C12.125 32.7697 11.792 32.1552 11.5301 31.7872L11.9856 31.7353C11.7946 32.2038 11.5844 32.8077 11.355 33.5469C11.1223 34.2705 10.8755 35.0791 10.6149 35.9728C10.3508 36.8508 10.0824 37.7462 9.80963 38.659C9.54901 39.5527 9.29362 40.396 9.04344 41.189C8.75852 42.1209 8.47447 43.0197 8.19129 43.8856C7.90466 44.7359 7.6302 45.4933 7.36792 46.1579C7.10564 46.8225 6.87639 47.3404 6.68016 47.7117C6.53601 48.0223 6.36499 48.2488 6.1671 48.391C5.97268 48.5489 5.75051 48.6555 5.50058 48.711ZM32.7098 42.6988C31.6945 42.924 30.8172 42.922 30.078 42.6927C29.3509 42.4442 28.7575 42.0596 28.2978 41.5388C27.8381 41.0181 27.4912 40.4149 27.2572 39.7293C27.0387 39.0402 26.9288 38.3599 26.9272 37.6883C26.9067 37.0045 26.9867 36.3312 27.1674 35.6683C27.3447 34.9898 27.5948 34.3443 27.9178 33.7318C28.2564 33.1159 28.6341 32.565 29.0507 32.0792C29.4796 31.5743 29.9292 31.1632 30.3996 30.8458C30.8822 30.5092 31.3577 30.289 31.8263 30.185C32.0138 30.1434 32.1804 30.1557 32.3261 30.2216C32.4719 30.2876 32.5994 30.3823 32.7087 30.5055C32.818 30.6288 32.8856 30.7859 32.9116 30.9768C32.9255 31.0392 32.8091 31.1798 32.5626 31.3984C32.3161 31.6169 32.0236 31.8867 31.6851 32.2076C31.3431 32.513 31.0141 32.84 30.6982 33.1887C30.3787 33.5218 30.1469 33.8436 30.0028 34.1542C29.6312 34.8431 29.3307 35.4834 29.1014 36.0751C28.8687 36.6512 28.6386 37.1283 28.4111 37.5066C28.1958 37.8657 27.9163 38.0834 27.5727 38.1597C26.9322 38.3018 26.4359 38.4283 26.0835 38.5392C25.7468 38.6467 25.4639 38.7751 25.2348 38.9242C25.0213 39.0699 24.7982 39.2833 24.5655 39.5644C24.2895 39.8715 24.0499 40.2688 23.8467 40.7564C23.6591 41.2405 23.5044 41.7255 23.3828 42.2114C23.2733 42.6782 23.1916 43.0487 23.1377 43.3229C23.0143 43.8747 22.8753 44.2825 22.7208 44.5462C22.5628 44.7943 22.3823 44.9409 22.1792 44.986C21.8668 45.0553 21.6048 44.9823 21.3931 44.767C21.1815 44.5518 21.0705 44.1994 21.0603 43.71C21.043 43.4844 21.07 43.1261 21.1413 42.635C21.2126 42.1438 21.2875 41.5946 21.3658 40.9872C21.4562 40.3608 21.5302 39.7707 21.5876 39.2171C21.6572 38.6445 21.6852 38.1794 21.6714 37.8219C21.6525 37.2197 21.5902 36.6435 21.4846 36.0933C21.3945 35.5397 21.301 35.0442 21.2039 34.6068C21.1034 34.1538 21.0489 33.7972 21.0403 33.5369C21.0317 33.2765 21.0943 33.0414 21.228 32.8315C21.3773 32.6181 21.5847 32.4819 21.8503 32.423C22.2095 32.3433 22.495 32.411 22.7066 32.6263C22.9148 32.826 23.0796 33.1254 23.2009 33.5246C23.2651 33.7398 23.3387 34.0348 23.4219 34.4097C23.5051 34.7846 23.5735 35.2037 23.6271 35.6671C23.6929 36.1114 23.7353 36.5609 23.7542 37.0156C23.7558 37.3922 23.7322 37.8399 23.6835 38.3588C23.6503 38.8742 23.5972 39.4105 23.5241 39.9675C23.4476 40.5089 23.3641 41.0191 23.2737 41.4981C23.1989 41.9736 23.1302 42.3658 23.0677 42.6747C23.0172 42.9645 22.992 43.1094 22.992 43.1094L21.3833 42.95C21.4147 42.6481 21.4764 42.2984 21.5685 41.901C21.6606 41.5036 21.7822 41.0915 21.9334 40.6646C22.0845 40.2378 22.2703 39.8196 22.4909 39.4101C22.7114 39.0006 22.9658 38.6328 23.254 38.3066C23.6238 37.8312 24.0161 37.4574 24.431 37.185C24.8458 36.9127 25.3058 36.6959 25.8109 36.5347C26.3281 36.3544 26.9304 36.188 27.6176 36.0355C27.727 36.0113 27.8685 35.8733 28.0421 35.6218C28.2314 35.3667 28.4276 35.0692 28.6307 34.7291C28.846 34.3699 29.057 34.0281 29.2636 33.7036C29.4668 33.3636 29.6448 33.0946 29.7976 32.8968L31.7215 32.3717C31.508 32.5174 31.2424 32.7238 30.9247 32.9909C30.6226 33.2546 30.3188 33.5843 30.0133 33.9798C29.7233 34.3719 29.4837 34.843 29.2943 35.3931C29.105 35.9432 29.018 36.5853 29.0333 37.3194C29.0279 38.1073 29.1708 38.7885 29.4622 39.363C29.7535 39.9375 30.1595 40.3637 30.68 40.6416C31.2127 40.9003 31.8149 40.9552 32.4865 40.8062C33.1114 40.6676 33.652 40.4083 34.1086 40.0284C34.5773 39.6294 34.9488 39.1618 35.2232 38.6257C35.4941 38.0739 35.667 37.4865 35.7418 36.8635C35.8323 36.237 35.8195 35.6253 35.7034 35.0282C35.6081 34.5249 35.4478 34.0606 35.2223 33.6354C34.9968 33.2101 34.6342 32.9054 34.1345 32.7213C33.6347 32.5372 32.9085 32.5508 31.9556 32.7622C31.5651 32.8489 31.2319 32.8244 30.956 32.689C30.6923 32.5344 30.564 32.3253 30.571 32.0615C30.5485 31.8862 30.6154 31.7075 30.7716 31.5253C30.9279 31.3431 31.1379 31.1818 31.4017 31.0413C31.6812 30.8974 31.9771 30.7908 32.2895 30.7214C33.133 30.5343 33.8637 30.5033 34.4814 30.6285C35.1148 30.7502 35.6519 30.9916 36.0925 31.3527C36.5488 31.7104 36.9114 32.1626 37.1802 32.7093C37.449 33.2561 37.6371 33.8453 37.7445 34.4771C37.916 35.324 37.9339 36.1805 37.7983 37.0464C37.6782 37.9089 37.402 38.7323 36.9696 39.5165C36.5494 40.2817 35.9843 40.9479 35.2743 41.5152C34.5799 42.079 33.7251 42.4735 32.7098 42.6988ZM46.3842 39.6403C45.3533 39.869 44.4612 39.8375 43.7082 39.5457C42.9672 39.2348 42.3617 38.7217 41.8917 38.0066C41.4338 37.2723 41.0905 36.3897 40.8617 35.3588C40.6295 34.3123 40.4972 33.1616 40.4646 31.9069C40.4285 30.784 40.5105 29.7497 40.7104 28.804C40.9068 27.8426 41.1761 26.988 41.5182 26.2401C41.8725 25.4732 42.2762 24.8182 42.7294 24.2752C43.1825 23.7321 43.6599 23.2984 44.1615 22.9741C44.8368 22.5456 45.5293 22.1953 46.2392 21.9231C46.9647 21.6474 47.6104 21.3812 48.1762 21.1246C48.8323 20.8315 49.3834 20.5453 49.8296 20.2661C50.2757 19.9868 50.6237 19.8195 50.8736 19.764C51.061 19.7224 51.2433 19.7312 51.4202 19.7903C51.6129 19.8459 51.7673 19.9509 51.8835 20.1054C51.9963 20.2443 52.0535 20.4282 52.0551 20.6573C52.0672 20.9333 51.9534 21.1961 51.7138 21.446C51.4708 21.6802 51.1505 21.8987 50.7531 22.1016C49.9615 22.5231 49.2247 22.8586 48.5426 23.1083C47.8727 23.3389 47.2574 23.5574 46.6968 23.7637C46.1327 23.9544 45.6033 24.2275 45.1085 24.5831C44.6225 24.904 44.1807 25.3872 43.783 26.0327C43.3976 26.659 43.0884 27.4078 42.8556 28.2789C42.6349 29.1309 42.5382 30.0619 42.5656 31.072C42.6084 32.8161 42.7616 34.208 43.025 35.2476C43.3006 36.2681 43.703 36.9737 44.2321 37.3644C44.7769 37.7516 45.4398 37.8585 46.2209 37.6853C46.7519 37.5674 47.2614 37.3151 47.7492 36.9283C48.2335 36.5258 48.6597 36.0461 49.0278 35.4891C49.4115 34.9287 49.7085 34.3466 49.9187 33.7427C50.141 33.1198 50.2419 32.5402 50.2212 32.0039C50.2214 31.4138 50.1079 30.9392 49.8807 30.5799C49.6656 30.2015 49.3481 29.9523 48.9282 29.8324C48.5048 29.6969 47.9807 29.6985 47.3559 29.8371C46.528 30.0208 45.6506 30.4613 44.7236 31.1586C43.8123 31.8525 42.9469 32.7902 42.1273 33.9717L41.18 33.2477C41.6229 32.2153 42.1881 31.3278 42.8756 30.5853C43.5596 29.8271 44.3095 29.2182 45.1253 28.7586C45.9377 28.2834 46.7344 27.9591 47.5154 27.7859C48.4682 27.5745 49.3047 27.5773 50.0248 27.7945C50.7415 27.9961 51.3054 28.3954 51.7165 28.9925C52.1276 29.5897 52.3312 30.3967 52.3274 31.4137C52.3358 32.2641 52.1923 33.1317 51.897 34.0167C51.6138 34.8826 51.2075 35.7103 50.6779 36.4997C50.1448 37.2736 49.5155 37.9458 48.7899 38.5165C48.0608 39.0716 47.2589 39.4462 46.3842 39.6403ZM61.2938 36.3569C60.0129 36.6411 58.8962 36.5939 57.9435 36.2152C57.0065 35.8331 56.2761 35.2003 55.7523 34.3168C55.2407 33.4142 54.9651 32.3199 54.9256 31.0339C54.9034 30.1211 55.0304 29.2898 55.3065 28.5402C55.5949 27.7715 55.9544 27.1017 56.3849 26.5309C56.8311 25.9566 57.3033 25.4995 57.8015 25.1595C58.2962 24.8039 58.7389 24.5828 59.1294 24.4962C59.3012 24.4581 59.447 24.4503 59.5667 24.4729C59.7021 24.492 59.8131 24.5493 59.8999 24.6448C59.9987 24.7212 60.0516 24.8488 60.0585 25.0275C60.0497 25.3573 59.9889 25.674 59.876 25.9776C59.7596 26.2657 59.4896 26.5632 59.0661 26.8702C58.5627 27.2606 58.1521 27.663 57.8344 28.0777C57.5288 28.4733 57.3057 28.9079 57.1649 29.3817C57.0207 29.8398 56.9659 30.3682 57.0004 30.9669C57.0312 32.2876 57.4048 33.27 58.1213 33.9141C58.8344 34.5426 59.7533 34.732 60.8779 34.4825C61.9713 34.2399 62.8375 33.638 63.4765 32.6768C64.1276 31.6965 64.4326 30.5226 64.3914 29.155C64.3745 27.8968 64.0884 26.9769 63.5333 26.3954C62.9747 25.7982 62.2268 25.6036 61.2895 25.8115C60.8053 25.9189 60.4122 26.1045 60.1101 26.3682C59.8237 26.6284 59.5199 26.958 59.1987 27.3571C58.9695 27.6538 58.7898 27.9149 58.6596 28.1405C58.5293 28.366 58.406 28.5491 58.2897 28.6896C58.1856 28.811 58.0319 28.8943 57.8289 28.9393C57.6102 28.9879 57.4228 28.9557 57.2666 28.8428C57.1226 28.7109 57.0455 28.474 57.0352 28.1321C57.018 27.759 57.1161 27.352 57.3298 26.9113C57.559 26.4671 57.8576 26.0403 58.2257 25.6309C58.6059 25.2023 59.0329 24.8372 59.5068 24.5354C59.9772 24.2179 60.4624 24.0038 60.9622 23.8929C62.0869 23.6433 63.0595 23.7062 63.8803 24.0813C64.6976 24.4408 65.3334 25.0536 65.7878 25.9198C66.2387 26.7703 66.4709 27.8168 66.4844 29.0594C66.5256 30.2795 66.3326 31.404 65.9053 32.4329C65.4746 33.4463 64.8599 34.2956 64.0614 34.9808C63.2785 35.6626 62.3559 36.1213 61.2938 36.3569ZM74.9536 18.527C74.2976 18.6725 73.7118 18.655 73.1965 18.4743C72.6776 18.278 72.2621 17.9933 71.9499 17.62C71.6341 17.2312 71.4408 16.8398 71.3697 16.4458C71.3074 16.0171 71.3518 15.6631 71.5029 15.3838C71.6539 15.1044 71.8779 14.9318 72.1747 14.866C72.409 14.814 72.6102 14.9086 72.7785 15.1499C72.9589 15.3721 73.1541 15.6238 73.364 15.905C73.5548 16.1741 73.776 16.3954 74.0275 16.5691C74.2947 16.7392 74.647 16.7758 75.0844 16.6788C75.2874 16.6337 75.4818 16.5496 75.6676 16.4265C75.8655 16.2842 76.0443 16.1298 76.204 15.9633C76.3759 15.7776 76.526 15.605 76.6545 15.4454C76.8472 15.206 77.0217 14.9952 77.178 14.813C77.3307 14.6152 77.4827 14.4504 77.6337 14.3186C77.8003 14.1833 77.9696 14.0965 78.1414 14.0584C78.3288 14.0168 78.485 14.0559 78.6099 14.1757C78.747 14.2764 78.8068 14.4352 78.7894 14.6522C78.7737 14.9506 78.6711 15.3012 78.4818 15.7037C78.3047 16.0872 78.046 16.4724 77.7057 16.8593C77.3654 17.2462 76.9584 17.5905 76.4845 17.8923C76.0262 18.1907 75.5159 18.4022 74.9536 18.527ZM72.3608 33.877C71.8298 33.9948 71.3803 33.9634 71.0124 33.7828C70.6602 33.5987 70.3687 33.3192 70.1381 32.9443C69.9039 32.5537 69.7331 32.1163 69.6257 31.6321C69.5304 31.1288 69.4776 30.6324 69.4674 30.143C69.471 29.7161 69.4885 29.2042 69.52 28.6072C69.567 28.0067 69.6245 27.3794 69.6924 26.7252C69.7603 26.0709 69.8291 25.4575 69.8987 24.8848C69.9839 24.3086 70.0561 23.8583 70.1152 23.5338C70.197 22.9421 70.283 22.4805 70.3734 22.149C70.4794 21.8141 70.6495 21.6207 70.8838 21.5687C71.0869 21.5236 71.2899 21.5523 71.4929 21.6548C71.6959 21.7573 71.8608 21.9092 71.9874 22.1105C72.1296 22.3084 72.2068 22.5453 72.2188 22.8213C72.2274 23.0816 72.1978 23.4651 72.1299 23.9718C72.0621 24.4786 71.9829 25.0452 71.8925 25.6716C71.802 26.2981 71.7211 26.9306 71.6497 27.5692C71.5749 28.1922 71.5426 28.7484 71.5528 29.2378C71.5527 29.6804 71.5803 30.1004 71.6357 30.4978C71.6876 30.8796 71.7726 31.1886 71.8905 31.4246C72.005 31.6451 72.1637 31.7327 72.3668 31.6877C72.8666 31.5768 73.4005 30.9913 73.9683 29.9311C74.5518 28.8675 75.1467 27.4489 75.7529 25.6755C76.0378 24.8912 76.2784 24.1659 76.4748 23.4995C76.6711 22.8332 76.8457 22.2536 76.9986 21.7608C77.148 21.2524 77.3121 20.8472 77.491 20.5453C77.6699 20.2434 77.8764 20.0664 78.1107 20.0144C78.47 19.9347 78.7589 20.0181 78.9775 20.2646C79.2082 20.4921 79.366 20.834 79.4509 21.2905C79.541 21.6966 79.6363 22.1999 79.7368 22.8004C79.8528 23.3974 79.9724 24.0101 80.0954 24.6383C80.2149 25.251 80.3414 25.8211 80.4749 26.3488C80.7227 27.2443 80.9732 27.9672 81.2264 28.5174C81.4918 29.0486 81.7172 29.4738 81.9028 29.7932C82.0884 30.1126 82.1977 30.3834 82.2306 30.6055C82.2531 30.7808 82.2348 30.957 82.1757 31.1339C82.1132 31.2953 82.022 31.4385 81.9022 31.5634C81.7824 31.6883 81.6366 31.7698 81.4648 31.8079C81.1055 31.8876 80.7724 31.7895 80.4653 31.5134C80.1738 31.2339 79.8998 30.8113 79.6431 30.2454C79.3865 29.6796 79.1307 29.007 78.8759 28.2277C78.7199 27.6723 78.5552 27.0779 78.3819 26.4444C78.2242 25.8074 78.0821 25.167 77.9556 24.5231C77.8448 23.8757 77.7443 23.2752 77.6543 22.7216L78.3857 22.8051C78.278 23.206 78.1598 23.6337 78.0313 24.0884C77.9183 24.5396 77.7706 25.0558 77.5882 25.6371C77.4179 26.1993 77.1982 26.8709 76.9289 27.6517C76.585 28.6131 76.1855 29.5457 75.7305 30.4497C75.272 31.3381 74.7607 32.0989 74.1965 32.7322C73.6444 33.3463 73.0325 33.7279 72.3608 33.877ZM102.006 27.2997C101.538 27.4036 100.991 27.3774 100.366 27.221C99.738 27.049 99.0969 26.7815 98.4427 26.4186C97.8042 26.0522 97.1978 25.6459 96.6235 25.1997C96.0649 24.75 95.6051 24.303 95.2443 23.8586C95.0326 23.6433 94.8809 23.4394 94.789 23.2467C94.7092 23.0349 94.6546 22.8258 94.6252 22.6193C94.6443 22.4839 94.6756 22.3295 94.719 22.1559C94.7625 21.9824 94.8328 21.8193 94.9301 21.6666C95.0621 21.3751 95.3078 20.9682 95.6672 20.446C96.0266 19.9237 96.4494 19.3547 96.9355 18.7387C97.4338 18.1037 97.9564 17.5043 98.5032 16.9405C99.0622 16.3576 99.5995 15.8614 100.115 15.452C100.646 15.0392 101.123 14.786 101.544 14.6924C101.716 14.6543 101.858 14.6639 101.969 14.7212C102.095 14.775 102.196 14.8592 102.271 14.9738C102.345 15.0883 102.389 15.2098 102.401 15.3383C102.461 15.6854 102.308 16.0636 101.94 16.4731C101.571 16.8825 101.167 17.2755 100.726 17.6519C99.9466 18.3493 99.267 19.0163 98.6871 19.653C98.1073 20.2898 97.648 20.8423 97.3095 21.3108C96.9865 21.7758 96.8346 22.0881 96.8536 22.2478C96.857 22.4109 97.0192 22.6617 97.3401 23.0003C97.6576 23.3232 98.1122 23.673 98.7038 24.0498C99.292 24.411 99.9592 24.7218 100.705 24.9824C101.044 25.104 101.373 25.2195 101.692 25.329C102.023 25.4193 102.294 25.5314 102.504 25.6651C102.726 25.7797 102.852 25.9402 102.881 26.1468C102.904 26.3221 102.884 26.4904 102.821 26.6518C102.759 26.8131 102.65 26.9519 102.496 27.0682C102.357 27.1809 102.194 27.2581 102.006 27.2997ZM94.1987 29.0073C93.7926 29.0974 93.4741 28.955 93.2435 28.5801C93.0093 28.1895 92.8368 27.5968 92.726 26.8019C92.6274 25.988 92.5627 24.9944 92.5318 23.8212C92.5216 23.3318 92.5217 22.8155 92.5323 22.2723C92.5586 21.7257 92.5848 21.179 92.611 20.6324C92.6337 20.0701 92.6365 19.5286 92.6194 19.008C92.6229 18.8761 92.6186 18.746 92.6065 18.6175C92.6065 18.47 92.5988 18.3242 92.5832 18.1802C92.5764 17.8539 92.6051 17.5771 92.6694 17.3498C92.7337 17.1225 92.824 16.9386 92.9403 16.798C93.0688 16.6384 93.2111 16.5413 93.3673 16.5066C93.7266 16.4269 94.0441 16.5285 94.32 16.8115C94.608 17.0754 94.7536 17.5102 94.7569 18.1158C94.7654 18.5237 94.7479 19.0356 94.7043 19.6517C94.6728 20.2487 94.637 20.863 94.5969 21.4947C94.5568 22.1264 94.5401 22.6791 94.5469 23.1529C94.5865 23.9963 94.6383 24.7469 94.7023 25.4047C94.7819 26.059 94.8607 26.5987 94.9387 27.0239C95.0131 27.4335 95.0443 27.7216 95.0321 27.8882C95.0424 28.0826 95.0085 28.2622 94.9304 28.427C94.8644 28.5728 94.768 28.6925 94.6413 28.7862C94.5337 28.892 94.3861 28.9657 94.1987 29.0073ZM110.505 31.5599C109.552 31.7713 108.727 31.8561 108.03 31.8142C107.335 31.7879 106.805 31.6515 106.439 31.4049C106.073 31.1584 105.889 30.8468 105.888 30.4702C105.879 30.2099 105.935 29.9843 106.057 29.7935C106.198 29.6148 106.416 29.4925 106.713 29.4266C106.901 29.385 107.081 29.386 107.255 29.4294C107.428 29.4729 107.627 29.5189 107.851 29.5676C108.078 29.6319 108.38 29.6632 108.757 29.6616C109.149 29.6565 109.649 29.5864 110.259 29.4513C111.008 29.2849 111.597 28.9823 112.024 28.5434C112.451 28.1044 112.747 27.5553 112.912 26.8959C113.093 26.233 113.175 25.4937 113.158 24.678C113.151 24.2043 113.115 23.7452 113.049 23.3009C112.999 22.8532 112.941 22.3742 112.877 21.8639C112.813 21.3537 112.748 20.7619 112.68 20.0885C112.609 19.3995 112.559 18.583 112.53 17.6389L113.407 18.1572C113.146 19.3459 112.842 20.3393 112.495 21.1375C112.144 21.9201 111.776 22.5508 111.391 23.0296C111.002 23.4929 110.612 23.8416 110.221 24.0757C109.843 24.2908 109.49 24.4347 109.162 24.5075C108.256 24.7085 107.474 24.6197 106.816 24.2412C106.174 23.8591 105.667 23.1605 105.294 22.1451C104.937 21.1263 104.737 19.7448 104.694 18.0007C104.665 16.909 104.693 16.0752 104.779 15.499C104.879 14.9194 105.026 14.5099 105.219 14.2705C105.412 14.0311 105.633 13.8836 105.883 13.8282C106.117 13.7762 106.318 13.7971 106.487 13.8909C106.652 13.969 106.763 14.1409 106.822 14.4064C106.897 14.6685 106.922 15.0399 106.897 15.5206C106.866 16.5601 106.875 17.525 106.925 18.4153C106.972 19.29 107.074 20.0458 107.232 20.6828C107.389 21.3197 107.602 21.7971 107.869 22.1147C108.133 22.4168 108.475 22.521 108.897 22.4275C109.553 22.2819 110.119 21.804 110.595 20.9937C111.067 20.1678 111.448 19.1162 111.739 17.839C112.041 16.5428 112.258 15.118 112.388 13.5649C112.432 13.0963 112.508 12.7762 112.618 12.6044C112.724 12.417 112.925 12.2904 113.222 12.2245C113.378 12.1899 113.535 12.196 113.693 12.2429C113.866 12.2863 114.013 12.3931 114.133 12.5632C114.265 12.7143 114.357 12.9477 114.411 13.2636C114.477 13.5604 114.49 13.9509 114.45 14.435C114.392 15.2836 114.37 16.0342 114.384 16.6867C114.413 17.3358 114.468 17.9545 114.55 18.5429C114.628 19.1156 114.717 19.7022 114.817 20.3027C114.93 20.8841 115.025 21.5349 115.103 22.2552C115.177 22.9598 115.229 23.7841 115.258 24.7282C115.287 25.8198 115.185 26.7604 114.95 27.5499C114.719 28.3551 114.393 29.0258 113.971 29.5619C113.549 30.098 113.037 30.523 112.434 30.8369C111.851 31.163 111.208 31.404 110.505 31.5599ZM124.081 22.2546C123.331 22.4209 122.652 22.465 122.045 22.3867C121.438 22.3084 120.949 22.1381 120.58 21.8759C120.21 21.6138 120.017 21.2961 119.999 20.923C120.005 20.7251 120.054 20.5421 120.148 20.3738C120.242 20.2055 120.39 20.0988 120.593 20.0537C120.749 20.0191 120.899 20.0269 121.041 20.0773C121.183 20.1277 121.352 20.1885 121.548 20.2597C121.745 20.3309 122.017 20.377 122.366 20.3979C122.711 20.4033 123.165 20.3436 123.727 20.2188C124.602 20.0247 125.313 19.6458 125.86 19.0819C126.419 18.499 126.676 17.6635 126.631 16.5753C126.624 15.8065 126.485 15.141 126.213 14.5786C125.953 13.9971 125.594 13.5276 125.138 13.1699C124.678 12.7966 124.141 12.5552 123.527 12.4457C122.913 12.3361 122.246 12.3611 121.528 12.5205C121.168 12.6002 120.81 12.7207 120.452 12.882C120.095 13.0432 119.776 13.1551 119.494 13.2174C119.323 13.2556 119.158 13.2512 119 13.2043C118.838 13.1417 118.717 13.0376 118.635 12.8918C118.554 12.7459 118.511 12.5915 118.508 12.4283C118.508 11.9858 118.718 11.6032 119.138 11.2806C119.571 10.9388 120.279 10.6588 121.263 10.4405C122.309 10.2083 123.279 10.1817 124.171 10.3608C125.078 10.5363 125.87 10.8932 126.547 11.4315C127.22 11.9541 127.751 12.6476 128.139 13.5119C128.54 14.3572 128.752 15.3508 128.776 16.4928C128.795 17.2425 128.687 17.9384 128.453 18.5804C128.234 19.219 127.918 19.789 127.505 20.2904C127.088 20.7761 126.59 21.1899 126.01 21.5316C125.427 21.8576 124.784 22.0986 124.081 22.2546ZM119.905 29.4744C119.718 29.5159 119.544 29.5055 119.382 29.4429C119.24 29.3926 119.126 29.2867 119.041 29.1252C118.956 28.9638 118.911 28.7607 118.906 28.516C118.901 28.2713 118.938 28.0336 119.018 27.8028C119.086 27.5911 119.159 27.3291 119.237 27.0167C119.319 26.72 119.391 26.3434 119.454 25.887C119.516 25.4306 119.542 24.8432 119.53 24.1247C119.511 22.9325 119.383 21.7645 119.146 20.6207C118.908 19.477 118.66 18.3194 118.4 17.1479C118.152 15.9573 118.006 14.7441 117.961 13.5085C117.952 13.1006 118.021 12.7822 118.167 12.5532C118.325 12.3051 118.545 12.1498 118.826 12.0874C119.076 12.032 119.298 12.0729 119.492 12.21C119.699 12.3281 119.864 12.5208 119.989 12.7881C120.111 13.0398 120.169 13.3383 120.163 13.6836C120.184 14.6624 120.264 15.5788 120.404 16.4327C120.557 17.2675 120.721 18.0832 120.898 18.8798C121.091 19.673 121.259 20.4713 121.405 21.2749C121.55 22.0784 121.631 22.921 121.646 23.8026C121.675 24.5992 121.658 25.3324 121.593 26.0023C121.529 26.6722 121.42 27.2535 121.267 27.7463C121.13 28.2357 120.947 28.6287 120.718 28.9254C120.504 29.2186 120.233 29.4016 119.905 29.4744ZM136.999 19.4868C135.843 19.7433 134.84 19.7282 133.989 19.4416C133.151 19.1359 132.494 18.6098 132.017 17.8634C131.552 17.0979 131.309 16.152 131.289 15.0257C131.272 14.0625 131.419 13.1367 131.73 12.2483C132.053 11.3407 132.51 10.5183 133.1 9.78092C133.702 9.02447 134.397 8.38693 135.183 7.8683C135.969 7.34967 136.816 6.98985 137.722 6.78885C138.128 6.69875 138.501 6.68152 138.841 6.73717C139.178 6.7772 139.442 6.89877 139.635 7.10188C139.839 7.28591 139.939 7.5506 139.934 7.89595C139.937 8.20659 139.872 8.46689 139.738 8.67683C139.601 8.87115 139.415 8.99431 139.181 9.04629C139.009 9.08441 138.87 9.08263 138.762 9.04094C138.654 8.99926 138.539 8.9593 138.416 8.92108C138.308 8.87939 138.137 8.88454 137.903 8.93652C137.013 9.13406 136.227 9.54596 135.547 10.1722C134.863 10.7829 134.327 11.5081 133.94 12.3479C133.565 13.1687 133.381 14.0042 133.39 14.8546C133.426 15.5349 133.568 16.1016 133.816 16.5546C134.076 16.9886 134.439 17.2932 134.904 17.4687C135.385 17.6407 135.929 17.6591 136.539 17.5239C137.226 17.3714 137.755 17.172 138.127 16.9257C138.495 16.6638 138.773 16.4053 138.963 16.1503C139.168 15.8917 139.331 15.6671 139.452 15.4762C139.57 15.2697 139.731 15.144 139.934 15.0989C140.231 15.0331 140.449 15.0583 140.59 15.1746C140.746 15.2875 140.831 15.5227 140.845 15.8802C140.85 16.4199 140.687 16.9396 140.355 17.4393C140.02 17.9234 139.556 18.3458 138.964 18.7066C138.388 19.0639 137.733 19.324 136.999 19.4868ZM15.5975 68.9566C14.4416 69.2131 13.4385 69.198 12.5882 68.9113C11.7501 68.6056 11.0925 68.0795 10.6156 67.3331C10.1507 66.5677 9.90807 65.6218 9.88763 64.4954C9.8706 63.5323 10.0176 62.6065 10.3285 61.718C10.6516 60.8105 11.1083 59.988 11.6986 59.2507C12.3011 58.4942 12.9955 57.8567 13.7818 57.3381C14.5681 56.8194 15.4143 56.4596 16.3202 56.2586C16.7264 56.1685 17.0995 56.1513 17.4396 56.2069C17.7763 56.247 18.0409 56.3685 18.2335 56.5716C18.4382 56.7557 18.5379 57.0204 18.5326 57.3657C18.5359 57.6764 18.4708 57.9366 18.3371 58.1466C18.1999 58.3409 18.0142 58.4641 17.7799 58.516C17.608 58.5542 17.4683 58.5524 17.3608 58.5107C17.2532 58.469 17.1378 58.4291 17.0146 58.3908C16.907 58.3492 16.736 58.3543 16.5017 58.4063C15.6114 58.6038 14.826 59.0157 14.1455 59.642C13.4615 60.2526 12.9259 60.9779 12.5386 61.8177C12.1634 62.6384 11.9801 63.474 11.9884 64.3243C12.0247 65.0047 12.1668 65.5713 12.4148 66.0244C12.675 66.4583 13.0376 66.763 13.5026 66.9384C13.9833 67.1104 14.5282 67.1288 15.1374 66.9937C15.8247 66.8412 16.354 66.6418 16.7255 66.3955C17.0935 66.1335 17.3721 65.8751 17.5614 65.62C17.7663 65.3615 17.9295 65.1368 18.051 64.946C18.1691 64.7395 18.3297 64.6137 18.5327 64.5687C18.8295 64.5028 19.0482 64.5281 19.1887 64.6444C19.3448 64.7572 19.4298 64.9924 19.4436 65.3499C19.4486 65.8896 19.2853 66.4094 18.9536 66.9091C18.6185 67.3931 18.155 67.8156 17.5631 68.1763C16.9868 68.5336 16.3316 68.7937 15.5975 68.9566ZM27.8017 66.3226C26.5209 66.6068 25.4041 66.5596 24.4515 66.1809C23.5145 65.7988 22.7841 65.166 22.2603 64.2825C21.7486 63.3799 21.4731 62.2856 21.4336 60.9996C21.4113 60.0868 21.5383 59.2555 21.8145 58.5059C22.1028 57.7372 22.4623 57.0674 22.8929 56.4966C23.3391 55.9224 23.8113 55.4652 24.3095 55.1252C24.8042 54.7696 25.2468 54.5485 25.6373 54.4619C25.8091 54.4238 25.9549 54.416 26.0747 54.4386C26.21 54.4577 26.3211 54.5151 26.4078 54.6105C26.5067 54.6869 26.5596 54.8145 26.5665 54.9932C26.5577 55.323 26.4968 55.6397 26.3839 55.9433C26.2676 56.2314 25.9976 56.5289 25.574 56.836C25.0706 57.2263 24.6601 57.6287 24.3423 58.0434C24.0368 58.439 23.8136 58.8736 23.6729 59.3474C23.5287 59.8055 23.4738 60.3339 23.5083 60.9326C23.5391 62.2533 23.9128 63.2357 24.6293 63.8798C25.3424 64.5083 26.2612 64.6977 27.3859 64.4482C28.4793 64.2056 29.3455 63.6037 29.9844 62.6425C30.6356 61.6622 30.9405 60.4883 30.8993 59.1207C30.8824 57.8625 30.5964 56.9427 30.0412 56.3611C29.4826 55.7639 28.7347 55.5693 27.7975 55.7772C27.3133 55.8847 26.9201 56.0702 26.6181 56.3339C26.3316 56.5941 26.0278 56.9237 25.7066 57.3228C25.4775 57.6195 25.2978 57.8806 25.1675 58.1062C25.0373 58.3317 24.914 58.5148 24.7977 58.6553C24.6935 58.7767 24.5399 58.86 24.3368 58.9051C24.1182 58.9536 23.9307 58.9214 23.7746 58.8085C23.6306 58.6766 23.5534 58.4397 23.5431 58.0978C23.5259 57.7247 23.6241 57.3177 23.8377 56.877C24.0669 56.4328 24.3656 56.006 24.7336 55.5966C25.1138 55.168 25.5409 54.8029 26.0148 54.5011C26.4852 54.1836 26.9703 53.9695 27.4702 53.8586C28.5948 53.6091 29.5675 53.6719 30.3882 54.047C31.2055 54.4065 31.8413 55.0193 32.2957 55.8855C32.7467 56.736 32.9789 57.7826 32.9923 59.0251C33.0336 60.2452 32.8405 61.3697 32.4133 62.3986C31.9825 63.412 31.3679 64.2613 30.5694 64.9465C29.7864 65.6283 28.8639 66.087 27.8017 66.3226ZM49.3013 61.4789C48.1454 61.7353 47.1424 61.7202 46.2921 61.4336C45.454 61.1279 44.7964 60.6018 44.3194 59.8554C43.8546 59.0899 43.612 58.144 43.5915 57.0177C43.5745 56.0545 43.7214 55.1287 44.0324 54.2403C44.3555 53.3328 44.8122 52.5103 45.4025 51.7729C46.0049 51.0165 46.6993 50.379 47.4857 49.8603C48.272 49.3417 49.1182 48.9819 50.0241 48.7809C50.4302 48.6908 50.8034 48.6735 51.1435 48.7292C51.4802 48.7692 51.7448 48.8908 51.9373 49.0939C52.1421 49.2779 52.2418 49.5426 52.2364 49.888C52.2398 50.1986 52.1746 50.4589 52.0409 50.6689C51.9038 50.8632 51.718 50.9863 51.4837 51.0383C51.3119 51.0764 51.1722 51.0746 51.0646 51.033C50.957 50.9913 50.8416 50.9513 50.7184 50.9131C50.6109 50.8714 50.4399 50.8766 50.2056 50.9285C49.3153 51.1261 48.5298 51.538 47.8493 52.1642C47.1654 52.7749 46.6297 53.5001 46.2424 54.3399C45.8673 55.1607 45.6839 55.9962 45.6923 56.8466C45.7285 57.5269 45.8706 58.0936 46.1187 58.5466C46.3788 58.9806 46.7414 59.2853 47.2065 59.4607C47.6871 59.6327 48.2321 59.6511 48.8412 59.5159C49.5285 59.3634 50.0579 59.164 50.4294 58.9177C50.7974 58.6558 51.076 58.3973 51.2653 58.1423C51.4701 57.8838 51.6333 57.6591 51.7549 57.4682C51.873 57.2617 52.0335 57.136 52.2366 57.0909C52.5334 57.0251 52.752 57.0503 52.8926 57.1666C53.0487 57.2795 53.1337 57.5147 53.1474 57.8722C53.1525 58.4119 52.9892 58.9316 52.6575 59.4313C52.3224 59.9154 51.8589 60.3378 51.267 60.6986C50.6907 61.0559 50.0355 61.316 49.3013 61.4789ZM65.1964 58.0015C64.7277 58.1054 64.1811 58.0792 63.5564 57.9228C62.9282 57.7508 62.2871 57.4833 61.6329 57.1204C60.9944 56.754 60.388 56.3477 59.8137 55.9015C59.2551 55.4518 58.7953 55.0048 58.4345 54.5604C58.2228 54.3451 58.0711 54.1412 57.9791 53.9485C57.8994 53.7367 57.8448 53.5276 57.8154 53.3211C57.8345 53.1857 57.8658 53.0313 57.9092 52.8577C57.9527 52.6842 58.023 52.5211 58.1203 52.3684C58.2522 52.0769 58.498 51.67 58.8574 51.1478C59.2168 50.6255 59.6396 50.0565 60.1257 49.4405C60.624 48.8055 61.1465 48.2061 61.6934 47.6423C62.2524 47.0594 62.7897 46.5632 63.3053 46.1538C63.8365 45.741 64.3129 45.4878 64.7347 45.3942C64.9065 45.3561 65.0479 45.3657 65.159 45.423C65.2856 45.4768 65.3863 45.561 65.4609 45.6756C65.5354 45.7901 65.5788 45.9116 65.5909 46.0401C65.6515 46.3872 65.4978 46.7654 65.1297 47.1749C64.7617 47.5843 64.3572 47.9773 63.9163 48.3537C63.1368 49.0511 62.4572 49.7181 61.8773 50.3548C61.2975 50.9916 60.8382 51.5441 60.4997 52.0126C60.1767 52.4776 60.0248 52.7899 60.0438 52.9496C60.0403 53.0815 60.1287 53.2585 60.3091 53.4807C60.4896 53.7029 60.7489 53.9486 61.0872 54.2177C61.4412 54.4833 61.8515 54.7446 62.3183 55.0017C62.8006 55.2552 63.3264 55.4827 63.8956 55.6842C64.2339 55.8058 64.5628 55.9213 64.882 56.0308C65.2135 56.1211 65.4842 56.2332 65.6941 56.3669C65.9162 56.4815 66.042 56.642 66.0714 56.8486C66.0939 57.0239 66.0739 57.1922 66.0114 57.3536C65.9488 57.5149 65.8403 57.6537 65.6858 57.77C65.547 57.8827 65.3838 57.9599 65.1964 58.0015ZM57.3889 59.7091C56.9828 59.7992 56.6643 59.6568 56.4337 59.2819C56.1995 58.8913 56.027 58.2986 55.9162 57.5037C55.8176 56.6898 55.7528 55.6962 55.722 54.523C55.7118 54.0336 55.7119 53.5173 55.7225 52.9741C55.7488 52.4275 55.775 51.8808 55.8012 51.3342C55.8239 50.7719 55.8267 50.2304 55.8095 49.7098C55.8131 49.5779 55.8088 49.4478 55.7967 49.3193C55.7967 49.1718 55.789 49.026 55.7734 48.882C55.7666 48.5557 55.7953 48.2789 55.8596 48.0516C55.9239 47.8243 56.0142 47.6404 56.1305 47.4998C56.259 47.3402 56.4013 47.2431 56.5575 47.2084C56.9168 47.1287 57.2343 47.2303 57.5102 47.5133C57.7982 47.7772 57.9438 48.212 57.9471 48.8176C57.9556 49.2255 57.9381 49.7374 57.8945 50.3535C57.863 50.9505 57.8272 51.5648 57.7871 52.1965C57.747 52.8282 57.7303 53.3809 57.7371 53.8547C57.7767 54.6981 57.8285 55.4487 57.8925 56.1065C57.9721 56.7608 58.0509 57.3005 58.1288 57.7257C58.2033 58.1353 58.2345 58.4234 58.2223 58.59C58.2326 58.7844 58.1987 58.964 58.1206 59.1288C58.0546 59.2746 57.9582 59.3943 57.8315 59.488C57.7239 59.5938 57.5763 59.6675 57.3889 59.7091ZM71.1083 56.6898C70.5772 56.8077 70.1277 56.7763 69.7599 56.5956C69.4076 56.4116 69.1162 56.1321 68.8855 55.7571C68.6513 55.3666 68.4805 54.9292 68.3731 54.445C68.2778 53.9417 68.2251 53.4453 68.2148 52.9559C68.2184 52.529 68.236 52.017 68.2674 51.42C68.3145 50.8196 68.372 50.1923 68.4399 49.538C68.5078 48.8838 68.5765 48.2703 68.6461 47.6976C68.7314 47.1215 68.8035 46.6712 68.8627 46.3467C68.9444 45.7549 69.0305 45.2933 69.1208 44.9619C69.2268 44.627 69.397 44.4335 69.6313 44.3816C69.8343 44.3365 70.0374 44.3652 70.2404 44.4677C70.4434 44.5701 70.6082 44.722 70.7348 44.9234C70.8771 45.1213 70.9542 45.3582 70.9663 45.6341C70.9748 45.8944 70.9452 46.278 70.8774 46.7847C70.8095 47.2914 70.7304 47.858 70.6399 48.4845C70.5494 49.1109 70.4685 49.7435 70.3972 50.3821C70.3223 51.0051 70.29 51.5613 70.3003 52.0507C70.3001 52.4932 70.3277 52.9132 70.3831 53.3107C70.4351 53.6925 70.52 54.0014 70.6379 54.2375C70.7524 54.4579 70.9112 54.5456 71.1142 54.5006C71.6141 54.3897 72.1479 53.8041 72.7158 52.744C73.2992 51.6803 73.8941 50.2618 74.5004 48.4884C74.7853 47.7041 75.0259 46.9787 75.2222 46.3124C75.4185 45.6461 75.5931 45.0665 75.746 44.5737C75.8955 44.0652 76.0596 43.6601 76.2384 43.3581C76.4173 43.0562 76.6239 42.8793 76.8582 42.8273C77.2174 42.7476 77.5064 42.831 77.7249 43.0775C77.9557 43.3049 78.1135 43.6469 78.1984 44.1033C78.2885 44.5094 78.3838 45.0128 78.4842 45.6133C78.6003 46.2103 78.7198 46.8229 78.8428 47.4512C78.9624 48.0639 79.0889 48.634 79.2223 49.1616C79.4702 50.0572 79.7207 50.7801 79.9739 51.3303C80.2392 51.8614 80.4647 52.2867 80.6503 52.6061C80.8359 52.9255 80.9451 53.1962 80.978 53.4184C81.0005 53.5937 80.9822 53.7698 80.9231 53.9468C80.8606 54.1082 80.7695 54.2513 80.6497 54.3762C80.5299 54.5012 80.3841 54.5827 80.2123 54.6208C79.6655 54.7421 79.1953 54.4695 78.8016 53.8029C78.4079 53.1364 78.0151 52.2156 77.6233 51.0406C77.4673 50.4852 77.3027 49.8907 77.1293 49.2572C76.9716 48.6203 76.8295 47.9798 76.7031 47.3359C76.5922 46.6886 76.4918 46.0881 76.4017 45.5344L77.1332 45.618C76.9889 46.2236 76.8099 46.8943 76.5962 47.6301C76.3825 48.3658 76.0759 49.3107 75.6763 50.4646C75.3324 51.4259 74.9329 52.3586 74.4779 53.2626C74.0195 54.151 73.5081 54.9118 72.9439 55.5451C72.3918 56.1592 71.7799 56.5408 71.1083 56.6898ZM83.9197 52.4461C84.0188 51.9325 84.1605 51.352 84.3446 50.7048C84.5254 50.0419 84.7243 49.3504 84.9415 48.6302C85.1743 47.9066 85.4105 47.1987 85.6503 46.5063C85.9021 45.7948 86.1445 45.1511 86.3772 44.575C86.6881 43.8341 87.0077 43.1322 87.3359 42.4694C87.6641 41.8065 87.9932 41.2582 88.323 40.8245C88.6651 40.3717 88.9845 40.1123 89.2813 40.0465C89.5937 39.9772 89.8965 40.0493 90.1897 40.2628C90.4985 40.4729 90.8143 40.8618 91.1369 41.4294C91.3589 41.839 91.6146 42.3641 91.9043 43.0046C92.1939 43.645 92.4895 44.3497 92.7912 45.1186C93.0895 45.8719 93.366 46.6382 93.6208 47.4175C93.8757 48.1968 94.0854 48.9206 94.2501 49.5888L92.2298 50.2337C92.0478 49.4874 91.8129 48.6872 91.5252 47.8333C91.2495 46.9603 90.9496 46.1254 90.6253 45.3287C90.3011 44.5321 89.9932 43.8465 89.7019 43.2719C89.4071 42.6818 89.1495 42.2964 88.9291 42.1159L89.8013 41.7257C89.4193 42.3677 89.0268 43.1103 88.6239 43.9536C88.2367 44.7934 87.8927 45.681 87.5922 46.6163C87.3681 47.3052 87.1605 47.9576 86.9694 48.5737C86.7783 49.1897 86.6071 49.7849 86.4559 50.3593C86.3169 50.9145 86.1813 51.4855 86.0493 52.072L83.9197 52.4461ZM95.0579 54.6704C94.7455 54.7397 94.4792 54.6841 94.2588 54.5035C94.0385 54.323 93.9301 54.093 93.9337 53.8136C93.9233 53.6192 93.9625 53.3155 94.0511 52.9025C94.1432 52.5051 94.231 52.0513 94.3145 51.5412C94.398 51.031 94.4311 50.5155 94.4139 49.9949L95.5225 51.0027C95.2969 51.02 94.9464 51.065 94.4708 51.1377C94.0109 51.207 93.4295 51.3196 92.7266 51.4755C92.0705 51.6211 91.3928 51.7797 90.6933 51.9512C90.0061 52.1037 89.3205 52.264 88.6367 52.4321C87.9685 52.5968 87.3194 52.7735 86.6893 52.9625C86.0558 53.1358 85.4475 53.3118 84.8643 53.4903C84.2846 53.6845 83.7613 53.8743 83.2944 54.0599L84.0263 53.0371C84.0401 53.2471 84.0643 53.5039 84.0989 53.8076C84.1335 54.1114 84.1759 54.4133 84.2261 54.7136C84.2798 55.0295 84.3249 55.3063 84.3612 55.544C84.4132 55.7784 84.4496 55.9424 84.4704 56.0361C84.5137 56.3051 84.465 56.5289 84.3244 56.7077C84.1872 56.902 83.9859 57.0286 83.7203 57.0875C83.3454 57.1707 83.0548 57.0795 82.8484 56.8139C82.6419 56.5483 82.4937 56.2124 82.4036 55.8063C82.3325 55.5598 82.2693 55.2379 82.2139 54.8405C82.1585 54.443 82.1299 54.1298 82.1283 53.9007C82.1353 53.6369 82.1805 53.3974 82.2639 53.1823C82.3282 52.9549 82.4541 52.7467 82.6415 52.5576C82.829 52.3685 83.0877 52.2046 83.4175 52.0659C83.7941 51.9168 84.3052 51.746 84.9509 51.5536C85.6087 51.3421 86.3481 51.1289 87.169 50.914C88.0021 50.68 88.8621 50.4564 89.749 50.2432C90.6324 50.0145 91.4802 49.81 92.2925 49.6297C92.558 49.5708 92.8392 49.5085 93.136 49.4426C93.4484 49.3733 93.7703 49.3101 94.1018 49.2529C94.4333 49.1957 94.7526 49.1577 95.0598 49.1387C95.5232 49.085 95.859 49.158 96.0672 49.3577C96.291 49.5539 96.4115 49.9123 96.4286 50.4329C96.4372 50.8408 96.4119 51.2807 96.3527 51.7527C96.2935 52.2247 96.1962 52.6724 96.0607 53.0958C95.9443 53.5314 95.7949 53.8923 95.6126 54.1786C95.4459 54.4614 95.261 54.6254 95.0579 54.6704ZM107.595 48.5947C107.126 48.6986 106.58 48.6724 105.955 48.516C105.327 48.344 104.686 48.0765 104.032 47.7136C103.393 47.3472 102.787 46.9409 102.212 46.4947C101.654 46.045 101.194 45.598 100.833 45.1536C100.622 44.9383 100.47 44.7343 100.378 44.5417C100.298 44.3299 100.243 44.1208 100.214 43.9143C100.233 43.7789 100.264 43.6245 100.308 43.4509C100.351 43.2774 100.422 43.1143 100.519 42.9616C100.651 42.6701 100.897 42.2632 101.256 41.741C101.615 41.2187 102.038 40.6496 102.524 40.0337C103.023 39.3987 103.545 38.7993 104.092 38.2355C104.651 37.6525 105.188 37.1564 105.704 36.747C106.235 36.3341 106.712 36.0809 107.133 35.9874C107.305 35.9492 107.447 35.9588 107.558 36.0161C107.684 36.07 107.785 36.1542 107.86 36.2688C107.934 36.3833 107.977 36.5048 107.99 36.6332C108.05 36.9803 107.896 37.3586 107.528 37.7681C107.16 38.1775 106.756 38.5704 106.315 38.9469C105.536 39.6443 104.856 40.3113 104.276 40.948C103.696 41.5847 103.237 42.1373 102.898 42.6058C102.575 43.0708 102.423 43.3831 102.442 43.5428C102.439 43.6747 102.527 43.8517 102.708 44.0739C102.888 44.2961 103.148 44.5417 103.486 44.8109C103.84 45.0765 104.25 45.3378 104.717 45.5948C105.199 45.8484 105.725 46.0759 106.294 46.2774C106.633 46.399 106.961 46.5145 107.281 46.624C107.612 46.7143 107.883 46.8263 108.093 46.96C108.315 47.0746 108.441 47.2352 108.47 47.4417C108.493 47.617 108.473 47.7854 108.41 47.9467C108.348 48.1081 108.239 48.2469 108.085 48.3631C107.946 48.4759 107.782 48.5531 107.595 48.5947ZM99.7876 50.3023C99.3815 50.3924 99.063 50.25 98.8324 49.875C98.5982 49.4845 98.4257 48.8918 98.3149 48.0969C98.2163 47.2829 98.1515 46.2894 98.1207 45.1162C98.1105 44.6268 98.1106 44.1105 98.1212 43.5673C98.1475 43.0207 98.1737 42.474 98.1999 41.9274C98.2226 41.3651 98.2254 40.8236 98.2082 40.303C98.2118 40.1711 98.2075 40.0409 98.1954 39.9125C98.1954 39.765 98.1877 39.6192 98.1721 39.4752C98.1653 39.1489 98.194 38.8721 98.2583 38.6448C98.3226 38.4175 98.4129 38.2335 98.5292 38.093C98.6577 37.9334 98.8 37.8363 98.9562 37.8016C99.3155 37.7219 99.633 37.8235 99.9089 38.1065C100.197 38.3704 100.342 38.8052 100.346 39.4108C100.354 39.8187 100.337 40.3306 100.293 40.9467C100.262 41.5437 100.226 42.158 100.186 42.7897C100.146 43.4214 100.129 43.9741 100.136 44.4479C100.175 45.2913 100.227 46.0419 100.291 46.6997C100.371 47.354 100.45 47.8937 100.528 48.3189C100.602 48.7285 100.633 49.0166 100.621 49.1832C100.631 49.3776 100.597 49.5572 100.519 49.722C100.453 49.8678 100.357 49.9875 100.23 50.0812C100.123 50.187 99.975 50.2607 99.7876 50.3023ZM116.535 46.6358C115.254 46.92 114.137 46.8728 113.184 46.4941C112.247 46.112 111.517 45.4792 110.993 44.5957C110.482 43.6931 110.206 42.5988 110.167 41.3128C110.144 40.4 110.271 39.5687 110.547 38.8191C110.836 38.0504 111.195 37.3806 111.626 36.8098C112.072 36.2355 112.544 35.7784 113.042 35.4384C113.537 35.0828 113.98 34.8617 114.37 34.7751C114.542 34.737 114.688 34.7292 114.808 34.7518C114.943 34.7709 115.054 34.8282 115.141 34.9237C115.24 35.0001 115.293 35.1277 115.299 35.3064C115.291 35.6362 115.23 35.9529 115.117 36.2565C115.001 36.5446 114.731 36.8421 114.307 37.1491C113.804 37.5394 113.393 37.9419 113.075 38.3566C112.77 38.7522 112.547 39.1868 112.406 39.6606C112.262 40.1187 112.207 40.6471 112.241 41.2458C112.272 42.5665 112.646 43.5489 113.362 44.193C114.075 44.8215 114.994 45.0109 116.119 44.7614C117.212 44.5188 118.078 43.9169 118.717 42.9557C119.369 41.9754 119.673 40.8015 119.632 39.4339C119.615 38.1757 119.329 37.2558 118.774 36.6743C118.216 36.0771 117.468 35.8825 116.53 36.0904C116.046 36.1978 115.653 36.3834 115.351 36.6471C115.065 36.9073 114.761 37.2369 114.44 37.636C114.21 37.9327 114.031 38.1938 113.9 38.4194C113.77 38.6449 113.647 38.828 113.531 38.9685C113.426 39.0899 113.273 39.1732 113.07 39.2182C112.851 39.2668 112.664 39.2346 112.508 39.1217C112.364 38.9898 112.286 38.7529 112.276 38.411C112.259 38.0379 112.357 37.6309 112.571 37.1902C112.8 36.746 113.099 36.3192 113.467 35.9098C113.847 35.4812 114.274 35.1161 114.748 34.8143C115.218 34.4968 115.703 34.2827 116.203 34.1718C117.328 33.9222 118.3 33.9851 119.121 34.3602C119.938 34.7197 120.574 35.3325 121.029 36.1987C121.48 37.0492 121.712 38.0957 121.725 39.3383C121.767 40.5584 121.573 41.6829 121.146 42.7118C120.715 43.7252 120.101 44.5745 119.302 45.2597C118.519 45.9415 117.597 46.4002 116.535 46.6358ZM130.195 28.8059C129.538 28.9514 128.953 28.9339 128.437 28.7532C127.919 28.5569 127.503 28.2722 127.191 27.8989C126.875 27.5101 126.682 27.1187 126.611 26.7247C126.548 26.296 126.593 25.942 126.744 25.6627C126.895 25.3833 127.119 25.2107 127.416 25.1449C127.65 25.0929 127.851 25.1875 128.019 25.4288C128.2 25.651 128.395 25.9027 128.605 26.1839C128.796 26.453 129.017 26.6743 129.268 26.848C129.536 27.0181 129.888 27.0547 130.325 26.9577C130.528 26.9126 130.723 26.8285 130.908 26.7054C131.106 26.5631 131.285 26.4087 131.445 26.2422C131.617 26.0565 131.767 25.8839 131.895 25.7243C132.177 25.3669 132.429 25.065 132.653 24.8186C132.874 24.5567 133.117 24.3962 133.382 24.3373C133.57 24.2957 133.726 24.3348 133.851 24.4546C133.988 24.5553 134.048 24.7141 134.03 24.9311C134.015 25.2295 133.912 25.5801 133.723 25.9826C133.546 26.3661 133.287 26.7513 132.947 27.1382C132.606 27.5251 132.199 27.8694 131.725 28.1712C131.267 28.4696 130.757 28.6811 130.195 28.8059ZM127.602 44.1559C127.071 44.2737 126.621 44.2423 126.253 44.0617C125.901 43.8776 125.61 43.5981 125.379 43.2232C125.145 42.8326 124.974 42.3952 124.867 41.911C124.771 41.4077 124.719 40.9113 124.708 40.4219C124.712 39.995 124.729 39.4831 124.761 38.8861C124.808 38.2856 124.865 37.6583 124.933 37.004C125.001 36.3498 125.07 35.7364 125.14 35.1637C125.225 34.5875 125.297 34.1372 125.356 33.8127C125.438 33.221 125.524 32.7594 125.614 32.4279C125.72 32.093 125.89 31.8996 126.125 31.8476C126.328 31.8025 126.531 31.8312 126.734 31.9337C126.937 32.0362 127.102 32.1881 127.228 32.3894C127.371 32.5873 127.448 32.8242 127.46 33.1002C127.468 33.3605 127.439 33.744 127.371 34.2507C127.303 34.7575 127.224 35.324 127.133 35.9505C127.043 36.577 126.962 37.2095 126.891 37.8481C126.816 38.4711 126.783 39.0273 126.794 39.5167C126.794 39.9593 126.821 40.3793 126.877 40.7767C126.929 41.1585 127.013 41.4674 127.131 41.7035C127.246 41.924 127.405 42.0116 127.608 41.9666C128.108 41.8557 128.641 41.2702 129.209 40.21C129.793 39.1464 130.388 37.7278 130.994 35.9544C131.279 35.1701 131.519 34.4448 131.716 33.7784C131.912 33.1121 132.087 32.5325 132.239 32.0397C132.389 31.5313 132.553 31.1261 132.732 30.8242C132.911 30.5223 133.117 30.3453 133.352 30.2933C133.711 30.2136 134 30.297 134.218 30.5435C134.449 30.771 134.607 31.1129 134.692 31.5694C134.782 31.9755 134.877 32.4788 134.978 33.0793C135.094 33.6763 135.213 34.289 135.336 34.9172C135.456 35.5299 135.582 36.1 135.716 36.6276C135.964 37.5232 136.214 38.2461 136.467 38.7963C136.733 39.3275 136.958 39.7527 137.144 40.0721C137.329 40.3915 137.439 40.6623 137.471 40.8844C137.494 41.0597 137.476 41.2359 137.417 41.4128C137.354 41.5742 137.263 41.7174 137.143 41.8423C137.023 41.9672 136.878 42.0487 136.706 42.0868C136.159 42.2081 135.689 41.9355 135.295 41.269C134.901 40.6024 134.509 39.6816 134.117 38.5066C133.961 37.9512 133.796 37.3568 133.623 36.7233C133.465 36.0863 133.323 35.4459 133.197 34.802C133.086 34.1546 132.985 33.5541 132.895 33.0005L133.627 33.084C133.482 33.6897 133.303 34.3603 133.09 35.0961C132.876 35.8319 132.569 36.7767 132.17 37.9306C131.826 38.892 131.426 39.8246 130.971 40.7286C130.513 41.617 130.002 42.3778 129.437 43.0111C128.885 43.6252 128.273 44.0068 127.602 44.1559ZM15.6484 90.1282C15.7475 89.6145 15.8891 89.0341 16.0733 88.3868C16.254 87.7239 16.453 87.0324 16.6701 86.3123C16.9029 85.5887 17.1392 84.8807 17.3789 84.1883C17.6308 83.4769 17.8731 82.8331 18.1059 82.257C18.4168 81.5161 18.7363 80.8142 19.0645 80.1514C19.3928 79.4886 19.7218 78.9403 20.0517 78.5065C20.3937 78.0537 20.7132 77.7944 21.0099 77.7285C21.3223 77.6592 21.6251 77.7313 21.9184 77.9449C22.2272 78.155 22.5429 78.5438 22.8655 79.1114C23.0875 79.5211 23.3433 80.0461 23.6329 80.6866C23.9225 81.3271 24.2182 82.0318 24.5199 82.8007C24.8181 83.554 25.0947 84.3202 25.3495 85.0995C25.6044 85.8788 25.8141 86.6026 25.9787 87.2708L23.9585 87.9157C23.7765 87.1694 23.5416 86.3693 23.2538 85.5153C22.9782 84.6423 22.6782 83.8075 22.354 83.0108C22.0297 82.2141 21.7219 81.5285 21.4306 80.954C21.1357 80.3638 20.8781 79.9785 20.6578 79.7979L21.53 79.4077C21.148 80.0497 20.7555 80.7923 20.3526 81.6356C19.9653 82.4755 19.6214 83.363 19.3209 84.2983C19.0967 84.9872 18.8891 85.6397 18.698 86.2557C18.5069 86.8717 18.3358 87.4669 18.1846 88.0413C18.0456 88.5966 17.91 89.1675 17.7779 89.754L15.6484 90.1282ZM26.7866 92.3525C26.4742 92.4218 26.2078 92.3661 25.9875 92.1856C25.7671 92.005 25.6588 91.775 25.6623 91.4956C25.652 91.3013 25.6911 90.9976 25.7798 90.5846C25.8719 90.1872 25.9597 89.7334 26.0432 89.2232C26.1266 88.713 26.1598 88.1976 26.1426 87.6769L27.2512 88.6848C27.0256 88.702 26.675 88.747 26.1995 88.8198C25.7396 88.889 25.1582 89.0016 24.4552 89.1576C23.7992 89.3031 23.1215 89.4617 22.422 89.6333C21.7347 89.7858 21.0492 89.946 20.3653 90.1142C19.6971 90.2788 19.048 90.4556 18.418 90.6445C17.7845 90.8179 17.1762 90.9938 16.593 91.1724C16.0133 91.3665 15.49 91.5564 15.0231 91.7419L15.7549 90.7191C15.7687 90.9291 15.793 91.186 15.8276 91.4897C15.8622 91.7934 15.9046 92.0954 15.9548 92.3956C16.0085 92.7115 16.0535 92.9883 16.0899 93.2261C16.1419 93.4604 16.1783 93.6244 16.1991 93.7181C16.2424 93.9871 16.1937 94.211 16.0531 94.3897C15.9159 94.584 15.7145 94.7106 15.449 94.7695C15.0741 94.8527 14.7835 94.7615 14.577 94.4959C14.3706 94.2303 14.2223 93.8945 14.1322 93.4883C14.0612 93.2419 13.9979 92.9199 13.9425 92.5225C13.8871 92.1251 13.8586 91.8118 13.8569 91.5827C13.864 91.3189 13.9092 91.0795 13.9925 90.8643C14.0568 90.637 14.1827 90.4288 14.3702 90.2397C14.5577 90.0506 14.8163 89.8867 15.1461 89.7479C15.5228 89.5988 16.0339 89.428 16.6796 89.2356C17.3374 89.0241 18.0767 88.8109 18.8977 88.596C19.7308 88.362 20.5908 88.1384 21.4776 87.9253C22.3611 87.6965 23.2089 87.492 24.0211 87.3118C24.2867 87.2529 24.5679 87.1905 24.8646 87.1246C25.177 87.0553 25.499 86.9921 25.8305 86.9349C26.162 86.8778 26.4813 86.8397 26.7885 86.8207C27.2519 86.7671 27.5876 86.8401 27.7958 87.0397C28.0196 87.2359 28.1401 87.5943 28.1573 88.115C28.1658 88.5228 28.1405 88.9627 28.0814 89.4347C28.0222 89.9068 27.9249 90.3545 27.7894 90.7779C27.6729 91.2134 27.5236 91.5744 27.3412 91.8606C27.1745 92.1435 26.9897 92.3074 26.7866 92.3525ZM35.3355 87.1861C34.0547 87.4703 32.9379 87.4231 31.9853 87.0444C31.0483 86.6623 30.3179 86.0295 29.7941 85.146C29.2824 84.2434 29.0069 83.1491 28.9674 81.8631C28.9451 80.9502 29.0721 80.119 29.3483 79.3694C29.6366 78.6007 29.9961 77.9309 30.4267 77.3601C30.8729 76.7858 31.3451 76.3287 31.8433 75.9887C32.338 75.6331 32.7806 75.412 33.1711 75.3254C33.3429 75.2872 33.4887 75.2795 33.6085 75.3021C33.7438 75.3212 33.8549 75.3785 33.9416 75.474C34.0405 75.5504 34.0934 75.678 34.1003 75.8567C34.0915 76.1865 34.0306 76.5032 33.9177 76.8068C33.8013 77.0949 33.5314 77.3924 33.1078 77.6994C32.6044 78.0897 32.1939 78.4922 31.8761 78.9069C31.5706 79.3025 31.3474 79.7371 31.2067 80.2108C31.0625 80.6689 31.0076 81.1974 31.0421 81.7961C31.0729 83.1168 31.4466 84.0992 32.1631 84.7433C32.8761 85.3717 33.795 85.5612 34.9197 85.3117C36.0131 85.0691 36.8793 84.4672 37.5182 83.506C38.1694 82.5257 38.4743 81.3518 38.4331 79.9842C38.4162 78.726 38.1302 77.8061 37.575 77.2246C37.0164 76.6274 36.2685 76.4328 35.3313 76.6407C34.8471 76.7481 34.4539 76.9337 34.1519 77.1974C33.8654 77.4576 33.5616 77.7872 33.2404 78.1863C33.0112 78.4829 32.8315 78.7441 32.7013 78.9696C32.5711 79.1952 32.4478 79.3782 32.3315 79.5188C32.2273 79.6402 32.0737 79.7235 31.8706 79.7685C31.6519 79.817 31.4645 79.7849 31.3084 79.672C31.1644 79.5401 31.0872 79.3032 31.0769 78.9613C31.0597 78.5881 31.1579 78.1812 31.3715 77.7405C31.6007 77.2963 31.8994 76.8695 32.2674 76.46C32.6476 76.0315 33.0747 75.6663 33.5486 75.3645C34.019 75.0471 34.5041 74.8329 35.0039 74.7221C36.1286 74.4725 37.1013 74.5353 37.922 74.9105C38.7393 75.27 39.3751 75.8828 39.8295 76.749C40.2805 77.5995 40.5126 78.646 40.5261 79.8886C40.5673 81.1086 40.3743 82.2331 39.9471 83.2621C39.5163 84.2755 38.9017 85.1248 38.1032 85.81C37.3202 86.4918 36.3977 86.9505 35.3355 87.1861ZM54.479 83.1355C53.7448 83.2984 53.1869 83.2583 52.8052 83.0152C52.4426 82.7843 52.2579 82.3581 52.2512 81.7369C52.2426 81.4765 52.2878 81.2371 52.3868 81.0184C52.4858 80.7998 52.6247 80.6133 52.8035 80.4589C54.4301 78.9999 55.7946 77.6893 56.897 76.5269C57.9959 75.3489 58.8744 74.2854 59.5325 73.3363C60.1871 72.3716 60.6568 71.4971 60.9417 70.7128C61.2231 69.9128 61.357 69.1866 61.3433 68.5341C61.3314 67.6681 61.0939 67.0406 60.6307 66.6517C60.164 66.2472 59.4542 66.1507 58.5014 66.3621C57.7047 66.5388 57.0148 66.7902 56.4316 67.1163C55.864 67.4389 55.3658 67.7789 54.937 68.1362C54.5239 68.4901 54.1741 68.7972 53.8877 69.0574C53.6012 69.3176 53.3565 69.4702 53.1534 69.5153C52.8566 69.5811 52.6093 69.5377 52.4115 69.3849C52.2259 69.213 52.1271 68.9891 52.115 68.7132C52.1203 68.5153 52.1603 68.3262 52.2349 68.1457C52.3096 67.9653 52.4607 67.7597 52.6881 67.5289C53.4502 66.7534 54.3243 66.076 55.3102 65.4967C56.3083 64.8983 57.3306 64.4831 58.3771 64.2509C59.5799 63.984 60.5422 64 61.264 64.2987C61.998 64.5784 62.5341 65.074 62.8723 65.7857C63.2261 66.4938 63.4115 67.3295 63.4285 68.2927C63.4439 69.0268 63.3213 69.8407 63.0606 70.7343C62.8156 71.6245 62.3606 72.6023 61.6956 73.6676C61.0305 74.733 60.0965 75.9154 58.8934 77.2148C57.7024 78.4952 56.1817 79.9142 54.3312 81.472L53.8941 80.8315C54.1214 80.8958 54.3479 80.9193 54.5735 80.902C54.8147 80.8813 55.0603 80.8432 55.3102 80.7877C55.8881 80.6595 56.559 80.4697 57.3226 80.2183C58.0863 79.9669 58.9203 79.7 59.8246 79.4174C60.7444 79.1314 61.7042 78.8774 62.7039 78.6557C63.4693 78.4858 63.983 78.5112 64.245 78.7317C64.5191 78.9331 64.6578 79.1891 64.6612 79.4997C64.6733 79.7757 64.5795 80.0177 64.3798 80.2259C64.1923 80.415 63.8799 80.5581 63.4425 80.6551C62.271 80.9151 61.2453 81.1672 60.3653 81.4116C59.4854 81.656 58.7009 81.8874 58.0118 82.1059C57.3228 82.3243 56.6945 82.521 56.1269 82.6961C55.5594 82.8712 55.0101 83.0177 54.479 83.1355ZM73.55 78.683C72.4566 78.9256 71.4275 78.8672 70.4627 78.5076C69.5136 78.1446 68.7363 77.4484 68.131 76.4191C67.5378 75.3706 67.2207 73.9414 67.1797 72.1313C67.1454 70.9425 67.2915 69.8284 67.6182 68.789C67.9413 67.734 68.3486 66.7996 68.84 65.9858C69.3314 65.1721 69.8323 64.5119 70.3427 64.0053C70.8531 63.4987 71.2879 63.2056 71.6472 63.1259C71.9283 63.0635 72.1375 63.0827 72.2745 63.1834C72.4081 63.2684 72.4757 63.4993 72.4773 63.8759C72.4946 64.1015 72.4538 64.3236 72.3548 64.5422C72.2523 64.7453 72.0874 64.9621 71.8599 65.1929C71.3652 65.696 70.9181 66.3032 70.5187 67.0146C70.1193 67.726 69.8014 68.5095 69.5651 69.365C69.341 70.2014 69.2383 71.0682 69.2571 71.9654C69.2723 72.9945 69.423 73.8953 69.7091 74.6677C70.0108 75.4366 70.448 76.0033 71.0205 76.368C71.6087 76.7291 72.3402 76.8127 73.2149 76.6186C74.0896 76.4246 74.9037 75.9571 75.6572 75.2163C76.4106 74.4756 77.0053 73.4996 77.4413 72.2884C77.8773 71.0772 78.08 69.6637 78.0493 68.048C78.0445 66.9183 77.8999 65.9342 77.6156 65.0959C77.3278 64.242 76.9254 63.6101 76.4083 63.2004C75.8913 62.7906 75.2579 62.669 74.5082 62.8353C73.899 62.9705 73.3357 63.2019 72.8185 63.5298C72.2977 63.842 71.8134 64.2444 71.3655 64.7371C70.9297 65.2108 70.5226 65.7764 70.144 66.434C70.0468 66.5867 69.9166 66.7385 69.7534 66.8894C69.6058 67.0369 69.3915 67.1418 69.1103 67.2042C68.8135 67.27 68.5741 67.2248 68.3919 67.0686C68.2097 66.9123 68.1187 66.6867 68.1188 66.3917C68.1276 66.0619 68.277 65.6272 68.567 65.0876C68.8535 64.5324 69.2685 63.965 69.8119 63.3856C70.3709 62.8027 71.0236 62.2727 71.77 61.7957C72.532 61.3152 73.3504 60.978 74.2251 60.7839C75.4591 60.5101 76.5099 60.6294 77.3774 61.1416C78.2415 61.6382 78.9085 62.4654 79.3784 63.6231C79.8605 64.7617 80.1099 66.1814 80.1267 67.8821C80.1661 69.4631 80.0059 70.8836 79.6463 72.1434C79.2866 73.4032 78.7899 74.4885 78.1561 75.3994C77.5189 76.2947 76.8028 77.019 76.0078 77.5723C75.2128 78.1257 74.3935 78.4959 73.55 78.683ZM86.7504 76.0002C86.4536 76.066 86.2141 76.0208 86.032 75.8646C85.8533 75.7239 85.7483 75.5096 85.7172 75.2215C85.7017 74.9299 85.7721 74.6193 85.9284 74.2896C86.7949 72.6551 87.6797 71.0658 88.5826 69.5215C89.4977 67.9582 90.4528 66.427 91.4477 64.9279C92.4426 63.4288 93.4835 61.9523 94.5704 60.4984C95.6694 59.0254 96.8361 57.5619 98.0705 56.108C98.3552 55.7662 98.6026 55.5147 98.8127 55.3534C99.0227 55.192 99.2527 55.0836 99.5026 55.0282C99.7682 54.9693 99.9729 55.0058 100.117 55.1377C100.277 55.2662 100.376 55.4571 100.416 55.7105C100.452 55.9483 100.424 56.2251 100.33 56.5409C100.233 56.8411 100.062 57.1413 99.8168 57.4414C98.0702 59.4678 96.4981 61.431 95.1005 63.3308C93.7028 65.2306 92.4214 67.1374 91.2562 69.0512C90.0876 70.9494 88.9754 72.917 87.9196 74.9541C87.7442 75.2716 87.5515 75.511 87.3414 75.6724C87.1505 75.8459 86.9535 75.9551 86.7504 76.0002ZM87.7666 65.6217C86.7981 65.8366 85.9694 65.8319 85.2805 65.6078C84.5916 65.3837 84.0685 64.9835 83.7112 64.4072C83.3539 63.831 83.1667 63.135 83.1497 62.3193C83.1291 61.6355 83.2785 60.9796 83.5981 60.3515C83.9332 59.7199 84.3707 59.1803 84.9106 58.7327C85.4661 58.2817 86.0797 57.9817 86.7514 57.8327C87.0481 57.7668 87.2781 57.806 87.4412 57.9501C87.6008 58.0785 87.6884 58.2885 87.7039 58.5801C87.6986 58.7779 87.6274 58.974 87.4902 59.1684C87.3652 59.3436 87.1604 59.5283 86.8757 59.7226C86.2716 60.1025 85.8593 60.4971 85.6388 60.9066C85.4148 61.3005 85.3105 61.717 85.326 62.1561C85.3223 62.7305 85.5009 63.1661 85.8618 63.463C86.2226 63.7599 86.7545 63.8304 87.4574 63.6744C88.1291 63.5254 88.6273 63.2592 88.9519 62.8758C89.2731 62.4767 89.4277 61.9917 89.4158 61.4207C89.4142 60.8966 89.2452 60.4671 88.9086 60.132C88.572 59.7969 88.1617 59.6831 87.6774 59.7906C87.365 59.8599 87.0839 59.8485 86.834 59.7564C86.5963 59.6453 86.474 59.4266 86.4672 59.1003C86.4656 58.7237 86.5663 58.4392 86.7694 58.2466C86.9847 58.0349 87.2173 57.9014 87.4672 57.8459C88.2951 57.6623 89.0084 57.7007 89.607 57.9612C90.2213 58.2183 90.6992 58.6367 91.0409 59.2164C91.3826 59.7962 91.5602 60.4861 91.5739 61.2861C91.5823 61.989 91.4233 62.6388 91.0968 63.2357C90.786 63.8291 90.3415 64.3375 89.7635 64.7607C89.1976 65.1649 88.5319 65.4519 87.7666 65.6217ZM97.7106 73.3226C96.7266 73.541 95.8884 73.5303 95.196 73.2905C94.5193 73.0473 93.9944 72.6393 93.6215 72.0665C93.2607 71.4746 93.0623 70.7647 93.0261 69.9369C93.0194 69.3156 93.1671 68.7256 93.4692 68.1669C93.7835 67.5891 94.2158 67.0999 94.7661 66.6992C95.3129 66.2829 95.9221 66.0002 96.5938 65.8512C96.9062 65.7819 97.1405 65.8036 97.2966 65.9165C97.4528 66.0293 97.5369 66.2237 97.549 66.4997C97.5506 66.7288 97.4924 66.9465 97.3743 67.153C97.2719 67.356 97.0774 67.5139 96.7911 67.6266C96.1749 67.878 95.7487 68.2102 95.5126 68.6232C95.2886 69.017 95.1799 69.4509 95.1867 69.9246C95.19 70.5303 95.3938 70.9686 95.798 71.2394C96.2144 71.4912 96.7429 71.5461 97.3833 71.404C98.055 71.255 98.5757 70.9428 98.9455 70.4674C99.3275 69.9729 99.5194 69.3977 99.5214 68.7417C99.4921 68.0926 99.2806 67.5823 98.8867 67.2108C98.4929 66.8393 97.9836 66.7228 97.3588 66.8615C97.0152 66.9377 96.7462 66.9072 96.5519 66.7701C96.3575 66.6329 96.2509 66.4107 96.2319 66.1036C96.2337 65.7426 96.3284 65.4675 96.5159 65.2784C96.719 65.0859 96.969 64.9567 97.2658 64.8908C98.1092 64.7037 98.8589 64.7586 99.5148 65.0556C100.171 65.3526 100.684 65.8205 101.055 66.4592C101.442 67.0945 101.635 67.8139 101.633 68.6174C101.651 69.3672 101.497 70.0734 101.169 70.7363C100.837 71.3835 100.37 71.9378 99.7675 72.3992C99.1773 72.8415 98.4916 73.1494 97.7106 73.3226Z" fill="#7831B2"/>
</svg>
