<svg width="203" height="207" viewBox="0 0 203 207" fill="none" xmlns="http://www.w3.org/2000/svg">
<path d="M90.0895 187.843C42.5043 151.372 -43.3465 60.3516 31.3491 -6.01948C68.7409 -37.7276 114.213 -5.97539 117.731 31.651M117.731 31.651C126.938 49.3622 116.342 53.2822 111.186 51.4972C99.4125 47.4212 113.762 31.1477 117.731 31.651ZM117.731 31.651C177.607 -24.7973 270.642 11.0333 221.975 113.804C173.307 216.575 93.6493 204.451 93.6493 204.451M90.6385 188.113C39.3933 144.625 -41.6986 61.355 32.997 -5.01617C70.3887 -36.7242 114.217 -5.97584 117.734 31.6506M117.734 31.6506C126.941 49.3617 117.245 52.6071 112.089 50.8221C100.315 46.7461 113.765 31.1472 117.734 31.6506ZM117.734 31.6506C177.611 -24.7978 274.763 12.5971 223.622 114.807C172.482 217.018 93.595 204.517 93.595 204.517M130.889 120.208C125.799 109.035 124.456 82.0248 146.638 77.898C168.821 73.7712 190.457 89.3049 188.93 102.979C187.403 116.652 188.426 121.45 171.341 131.848M137.592 138.652L135.6 145.585L135.693 145.665M135.693 145.665L143.549 152.377L155.272 151.246L157.263 144.312M135.693 145.665L135.878 145.665M135.693 145.665L107.683 145.659C106.508 145.922 103.872 146.604 102.731 147.237M155.274 151.245L177.19 164.758C178.575 165.857 181.414 168.436 181.696 169.958M137.528 154.547L140.053 160.378L128.742 175.74M148.61 157.736L143.298 161.612L143.704 179.128M135.714 101.884C135.714 101.884 137.749 102.864 140.915 103.805M140.915 103.805C147.008 105.616 157.288 107.282 165.315 101.541C167.582 99.9198 169.04 99.2583 169.979 99.267M140.915 103.805C137.308 102.802 134.935 101.66 134.935 101.66M140.915 103.805C147.077 105.517 156.842 106.82 164.536 101.317C167.563 99.1521 169.149 98.6985 169.979 99.267M169.979 99.267C173.883 99.3035 168.772 110.957 175.44 113.348M169.979 99.267C172.452 100.961 168.216 111.735 175.44 113.348M175.44 113.348C175.79 113.474 176.173 113.574 176.591 113.645M175.44 113.348C175.561 113.375 175.685 113.4 175.812 113.421M131.809 109.618C130.842 119.95 131.391 137.59 144.793 141.98C158.604 146.505 165.909 141.472 176.077 122.778M131.235 120.422C126.144 109.249 123.902 81.0202 146.085 76.8934C168.267 72.7666 189.903 88.3003 188.377 101.974C186.85 115.648 188.671 120.676 171.587 131.074M137.038 137.647L135.047 144.581L142.996 151.372L154.719 150.241M154.719 150.241L156.71 143.307M154.719 150.241L176.636 163.754C178.02 164.853 180.859 167.431 181.142 168.954M135.325 144.66L107.13 144.655C105.954 144.917 103.319 145.6 102.177 146.232M130.125 196.195L123.92 144.682L130.677 156.123L143.203 152.133L152.035 161.003L162.869 155.288L130.125 196.195ZM130.125 196.195L130.528 199.462M137.134 154.184L139.498 159.374L128.188 174.736M147.646 157.209L142.744 160.608L143.151 179.041M63.1159 122.217C61.0613 127.631 59.145 138.97 67.917 141.014C76.689 143.058 81.4859 133.108 82.7879 127.877M61.5233 127.764C54.7398 127.013 39.6031 126.381 33.325 129.859M81.5513 133.227C89.2943 136.556 105.141 145.299 106.585 153.642L99.4971 178.326M53.7618 127.633L48.2384 139.556L56.2734 141.868L58.2443 147.539L68.2323 142.006L73.4832 151.924L78.439 148.246L86.7511 150.637L88.3956 137.598M105.041 95.67C105.041 95.67 102.801 95.4194 99.6245 94.5362M99.6245 94.5362C93.5019 92.8341 83.8983 88.7821 80.1396 79.6451C79.0787 77.066 78.1938 75.7302 77.3943 75.2392M99.6245 94.5362C103.208 95.6018 105.82 95.894 105.82 95.894M99.6245 94.5362C93.4944 92.7134 84.5214 88.6273 80.9186 79.8692C79.5019 76.4253 78.3992 75.1983 77.3943 75.2392M77.3943 75.2392C74.0664 73.1954 72.2161 85.7842 65.2981 84.2683M77.3943 75.2392C74.3999 75.361 72.2739 86.7396 65.2981 84.2683M65.2981 84.2683C64.9344 84.1886 64.5568 84.07 64.1642 83.9082M65.2981 84.2683C65.1811 84.2269 65.0628 84.1816 64.9432 84.1323M57.6088 93.5303C56.6419 103.862 58.3983 121.912 71.8003 126.303C85.6111 130.827 92.211 125.106 102.378 106.412M60.9693 126.76C54.1858 126.009 39.0491 125.377 32.771 128.856M80.8568 134.393C82.7638 135.213 85.1709 136.23 87.7377 137.421M87.7377 137.421C95.5929 141.067 104.943 146.35 106.032 152.638L99.37 178.535M87.7377 137.421L86.1975 149.634L77.8854 147.242L72.9295 150.921L67.3247 141.891L57.9673 148.058L56.4196 141.706L48.2443 139.354L53.2081 126.629M87.7377 137.421L87.8419 136.595M95.3513 60.5915C91.8951 59.6493 88.6155 59.4429 86.3191 59.6015C86.0994 59.5241 85.8708 59.447 85.6339 59.3709M95.3513 60.5915C101.386 62.2367 107.96 66.1257 110.777 74.2332C116.316 90.1714 116.502 113.007 112.089 123.972C108.558 132.744 99.6953 138.267 95.7051 139.931M95.3513 60.5915C91.66 59.4723 88.0994 59.2132 85.6339 59.3709M95.3513 60.5915C101.164 62.3539 107.301 66.2493 109.998 74.0088C115.536 89.947 115.722 112.783 111.309 123.748C107.779 132.52 98.9157 138.042 94.9255 139.707M85.6339 59.3709C85.2382 59.2436 84.8193 59.1188 84.3802 58.9987M85.6339 59.3709C85.6022 59.3729 85.5707 59.375 85.5394 59.3771C85.1765 59.2492 84.7891 59.1223 84.3802 58.9987M84.3802 58.9987C77.296 57.0598 64.9627 56.3237 60.0469 65.9644C53.2933 79.2094 28.7691 105.905 40.8138 124.137M84.3802 58.9987C77.4587 56.9058 64.3687 55.7352 59.2673 65.7401C52.5137 78.9851 27.9894 105.68 40.0341 123.912M137.863 154.145L142.45 151.85L147.951 156.898L143.366 161.028L143.366 178.008L131.447 193.152L128.238 174.337L138.782 160.111L137.863 154.145Z" stroke="#7831B2" stroke-width="4" stroke-linecap="round"/>
</svg>
