<svg width="156" height="168" viewBox="0 0 156 168" fill="none" xmlns="http://www.w3.org/2000/svg">
<path d="M90.9733 166.649C92.0723 166.538 92.8731 165.557 92.7619 164.458C92.6507 163.359 91.6697 162.558 90.5707 162.67L90.9733 166.649ZM19.4313 143.556L17.7471 144.635L19.4313 143.556ZM13.4631 94.7389L15.3717 95.3367L13.4631 94.7389ZM24.9542 49.9597L25.4049 48.0111L22.2348 47.2779L23.0121 50.4375L24.9542 49.9597ZM48.0793 82.262L50.0096 82.7856L48.0793 82.262ZM46.9562 114.541C47.5108 115.496 48.7348 115.821 49.69 115.267C50.6453 114.712 50.97 113.488 50.4154 112.533L46.9562 114.541ZM51.4424 72.3929L49.7234 71.3708L49.6473 71.4987L49.591 71.6365L51.4424 72.3929ZM49.9322 7.47552L48.5654 8.93561L48.5962 8.96447L48.6282 8.992L49.9322 7.47552ZM38.7169 -18.1205L40.7136 -18.0066L38.7169 -18.1205ZM55.4971 -43.8606L57.4832 -43.6254L57.9979 -47.9709L54.3753 -45.5164L55.4971 -43.8606ZM101.773 6.48114L100.699 8.16787L101.773 6.48114ZM143.773 44.3581L142.031 45.3404L143.773 44.3581ZM115.863 154.951C114.806 155.272 114.21 156.389 114.531 157.445C114.852 158.502 115.969 159.099 117.025 158.778L115.863 154.951ZM131.824 116.803L129.865 117.203L131.824 116.803ZM126.687 103.125L128.479 102.237L126.385 98.0108L124.803 102.454L126.687 103.125ZM91.6666 76.8921L93.6473 76.6152L93.2467 73.7498L90.7077 75.137L91.6666 76.8921ZM80.2565 118.697L82.2068 118.254L80.2565 118.697ZM85.9806 132.689L86.519 134.615L88.4884 134.065L87.8943 132.108L85.9806 132.689ZM55.6522 136.491L55.4912 134.497L52.9312 134.704L53.7589 137.135L55.6522 136.491ZM90.4818 166.772C91.5853 166.724 92.4405 165.79 92.3919 164.686C92.3434 163.583 91.4094 162.728 90.3059 162.776L90.4818 166.772ZM17.9841 142.03L19.6812 140.971L17.9841 142.03ZM23.507 48.4329L23.9577 46.4843L20.7876 45.7511L21.5649 48.9107L23.507 48.4329ZM46.6321 80.7352L48.5624 81.2588L46.6321 80.7352ZM45.509 113.014C46.0636 113.97 47.2876 114.294 48.2428 113.74C49.1981 113.185 49.5228 111.961 48.9682 111.006L45.509 113.014ZM49.9952 70.8662L48.2761 69.8441L48.2001 69.972L48.1438 70.1097L49.9952 70.8662ZM48.4849 5.94875L47.1182 7.40884L47.149 7.4377L47.181 7.46523L48.4849 5.94875ZM37.2697 -19.6473L39.2664 -19.5333L37.2697 -19.6473ZM55.7465 -44.9195L57.7326 -44.6842L58.2176 -48.7792L54.7016 -46.6248L55.7465 -44.9195ZM100.326 4.95436L99.2515 6.6411L100.326 4.95436ZM142.326 42.8313L140.584 43.8136L142.326 42.8313ZM115.936 154.929C114.879 155.25 114.282 156.367 114.603 157.424C114.924 158.48 116.041 159.077 117.098 158.756L115.936 154.929ZM129.823 116.427L127.864 116.827L129.823 116.427ZM126.488 102.202L128.28 101.314L126.186 97.0882L124.604 101.531L126.488 102.202ZM91.7407 76.8696L93.7214 76.5927L93.3208 73.7273L90.7818 75.1145L91.7407 76.8696ZM78.8091 117.171L76.9275 117.849L78.8091 117.171ZM84.5332 131.162L85.0716 133.088L87.041 132.538L86.4469 130.581L84.5332 131.162ZM54.2048 134.964L54.0438 132.97L51.4838 133.177L52.3115 135.609L54.2048 134.964ZM16.718 35.7478L14.7569 36.1403L15.5877 40.2917L18.2667 37.0134L16.718 35.7478ZM20.4477 20.9165L18.7264 21.9349L20.4477 20.9165ZM12.6881 13.4374L13.6512 11.6846L13.621 11.668L13.5902 11.6525L12.6881 13.4374ZM9.35996 8.12542L11.3516 8.30851L9.35996 8.12542ZM9.73624 4.98173L11.7033 5.34304L11.7033 5.34303L9.73624 4.98173ZM9.38829 4.83138L10.5691 6.44556L10.5691 6.44556L9.38829 4.83138ZM3.57957 16.2031L1.83262 17.1769L3.57957 16.2031ZM16.021 28.9344L14.0352 28.6964L14.0198 28.8247L14.0211 28.954L16.021 28.9344ZM112.793 55.1105L113.471 53.2288L109.488 51.7941L110.909 55.7819L112.793 55.1105ZM123.616 65.9144L121.616 65.9257L123.616 65.9144ZM120.805 76.3188L122.496 77.3862L122.515 77.357L122.532 77.3272L120.805 76.3188ZM120.681 82.5862L122.295 81.4054L120.681 82.5862ZM122.62 85.0893L124.121 83.7682L122.62 85.0893ZM122.398 85.3971L122.581 83.4055L122.398 85.3971ZM111.571 78.6295L109.572 78.6922L111.571 78.6295ZM115.698 61.3129L113.972 62.3242L114.038 62.4357L114.117 62.5379L115.698 61.3129ZM90.5707 162.67C81.3196 163.606 67.6228 164.42 54.3513 162.017C41.068 159.611 28.5217 154.042 21.1155 142.478L17.7471 144.635C26.0024 157.525 39.82 163.45 53.6384 165.953C67.4687 168.457 81.6115 167.596 90.9733 166.649L90.5707 162.67ZM21.1155 142.478C16.0624 134.587 13.2578 127.286 12.3799 119.776C11.5011 112.258 12.5366 104.388 15.3717 95.3367L11.5546 94.1411C8.60464 103.559 7.44504 112.011 8.40697 120.24C9.36986 128.478 12.4418 136.351 17.7471 144.635L21.1155 142.478ZM15.3717 95.3367C16.7728 90.8634 18.4774 87.1441 20.1947 83.7308C21.8838 80.3735 23.6831 77.1347 25.0994 73.9121C28.0358 67.231 29.5339 60.203 26.8963 49.4819L23.0121 50.4375C25.4157 60.2071 24.0607 66.3341 21.4375 72.3026C20.0741 75.4049 18.4169 78.3645 16.6215 81.9331C14.8542 85.4457 13.0459 89.3798 11.5546 94.1411L15.3717 95.3367ZM24.5036 51.9082C26.8538 52.4518 31.3006 54.9956 35.6973 60.112C40.0358 65.1606 44.2021 72.5815 46.1146 82.6357L50.0441 81.8882C47.9965 71.1235 43.5101 63.0663 38.731 57.505C34.0102 52.0114 28.8745 48.8136 25.4049 48.0111L24.5036 51.9082ZM50.4154 112.533C48.4482 109.145 45.7126 98.6267 50.0096 82.7856L46.1491 81.7384C41.6574 98.2974 44.3088 109.982 46.9562 114.541L50.4154 112.533ZM50.0096 82.7856C50.8304 79.7597 51.9073 76.543 53.2939 73.1494L49.591 71.6365C48.1439 75.1783 47.0139 78.5504 46.1491 81.7384L50.0096 82.7856ZM53.1615 73.415C60.7238 60.696 64.8361 49.4632 65.5624 46.5704L61.6827 45.5964C61.0731 48.0246 57.14 58.8967 49.7234 71.3708L53.1615 73.415ZM65.5624 46.5704C65.8338 45.4891 68.0646 40.0668 67.2543 32.6483C66.4337 25.1345 62.564 15.6993 51.2361 5.95903L48.6282 8.992C59.2693 18.1417 62.5787 26.6802 63.278 33.0826C63.9877 39.5805 62.0792 44.0171 61.6827 45.5964L65.5624 46.5704ZM51.299 6.01542C46.2076 1.24937 43.4997 -2.19028 42.0722 -5.62305C40.6563 -9.02815 40.4077 -12.6457 40.7136 -18.0066L36.7201 -18.2344C36.4043 -12.6989 36.6089 -8.34348 38.3788 -4.08721C40.1372 0.14139 43.3479 4.05153 48.5654 8.93561L51.299 6.01542ZM40.7136 -18.0066C41.0419 -23.7594 42.2149 -27.8116 44.5892 -31.364C47.0004 -34.9716 50.7632 -38.2373 56.619 -42.2049L54.3753 -45.5164C48.3995 -41.4675 44.1138 -37.8511 41.2636 -33.5867C38.3765 -29.2671 37.0752 -24.4574 36.7201 -18.2344L40.7136 -18.0066ZM53.511 -44.0959C53.0074 -39.844 52.9231 -33.0846 54.3024 -26.4793C55.67 -19.9305 58.5672 -13.1148 64.3818 -9.33031L66.5638 -12.6828C62.0787 -15.6019 59.5049 -21.1341 58.218 -27.297C56.9428 -33.4032 57.0205 -39.7191 57.4832 -43.6254L53.511 -44.0959ZM64.3818 -9.33031C69.7273 -5.85113 75.6849 -3.52033 81.7599 -1.06502C87.885 1.41056 94.2333 4.04854 100.699 8.16787L102.848 4.7944C96.0438 0.459187 89.3917 -2.29485 83.2588 -4.77357C77.0758 -7.27255 71.5179 -9.45831 66.5638 -12.6828L64.3818 -9.33031ZM100.699 8.16787C119.417 20.0936 131.473 26.6158 142.031 45.3404L145.515 43.3758C134.381 23.6287 121.389 16.6074 102.848 4.7944L100.699 8.16787ZM142.031 45.3404C149.25 58.1428 150.963 66.5329 152.997 81.5315L156.96 80.9939C154.897 65.7775 153.093 56.8142 145.515 43.3758L142.031 45.3404ZM152.997 81.5315C153.988 88.8382 153.721 99.5884 151.641 110.097C149.551 120.655 145.701 130.611 139.797 136.634L142.654 139.434C149.37 132.582 153.42 121.706 155.564 110.874C157.718 99.9922 158.018 88.7947 156.96 80.9939L152.997 81.5315ZM139.797 136.634C133.565 142.994 128.212 147.393 124.078 150.3C119.901 153.238 117.064 154.586 115.863 154.951L117.025 158.778C118.827 158.231 122.072 156.602 126.38 153.572C130.731 150.511 136.268 145.95 142.654 139.434L139.797 136.634ZM125.804 154.161C128.184 150.579 130.915 144.858 132.687 138.22C134.459 131.58 135.311 123.884 133.784 116.403L129.865 117.203C131.231 123.899 130.49 130.941 128.822 137.188C127.154 143.438 124.594 148.754 122.473 151.947L125.804 154.161ZM133.784 116.403C132.583 110.52 129.313 103.919 128.479 102.237L124.895 104.013C125.755 105.749 128.783 111.905 129.865 117.203L133.784 116.403ZM124.803 102.454C123.365 106.494 122.787 107.707 117.883 116.059L121.333 118.084C126.263 109.687 127.001 108.207 128.571 103.796L124.803 102.454ZM117.883 116.059C116.773 117.95 115.166 119.699 113.415 120.551C111.813 121.33 110.022 121.419 107.971 119.908C105.753 118.273 103.143 114.689 100.584 107.728C98.0419 100.816 95.6311 90.8028 93.6473 76.6152L89.6859 77.1691C91.6909 91.509 94.1526 101.829 96.8294 109.108C99.4883 116.339 102.443 120.803 105.599 123.128C108.922 125.577 112.312 125.536 115.164 124.148C117.866 122.834 119.985 120.38 121.333 118.084L117.883 116.059ZM90.7077 75.137C88.5454 76.3184 86.5282 78.7352 84.7929 81.6323C83.0189 84.5942 81.3924 88.3075 80.1154 92.3942C77.5715 100.536 76.3295 110.44 78.3062 119.141L82.2068 118.254C80.4351 110.456 81.5228 101.302 83.9334 93.5872C85.1336 89.7459 86.6406 86.332 88.2245 83.6877C89.8472 80.9785 91.4125 79.31 92.6255 78.6472L90.7077 75.137ZM78.3062 119.141C79.0089 122.234 80.4468 125.664 81.6914 128.354C82.3202 129.714 82.9152 130.916 83.3621 131.819C83.5883 132.277 83.7701 132.644 83.9043 132.926C84.0652 133.264 84.0853 133.331 84.0668 133.27L87.8943 132.108C87.8075 131.822 87.6383 131.463 87.5152 131.205C87.3655 130.891 87.1686 130.493 86.9474 130.046C86.4999 129.141 85.9261 127.981 85.3216 126.675C84.0995 124.033 82.8119 120.918 82.2068 118.254L78.3062 119.141ZM85.4421 130.763C82.2381 131.658 74.8451 132.595 68.0553 133.314C64.7028 133.669 61.5604 133.965 59.2555 134.172C58.1033 134.276 57.1611 134.357 56.5074 134.412C56.1806 134.44 55.926 134.461 55.7533 134.476C55.667 134.483 55.6012 134.488 55.5571 134.492C55.535 134.494 55.5184 134.495 55.5074 134.496C55.5018 134.496 55.4977 134.497 55.495 134.497C55.4937 134.497 55.4927 134.497 55.492 134.497C55.4917 134.497 55.4915 134.497 55.4913 134.497C55.4912 134.497 55.4912 134.497 55.6522 136.491C55.8132 138.484 55.8134 138.484 55.8136 138.484C55.8138 138.484 55.8141 138.484 55.8145 138.484C55.8153 138.484 55.8165 138.484 55.818 138.484C55.821 138.484 55.8254 138.483 55.8312 138.483C55.8429 138.482 55.8601 138.48 55.8828 138.479C55.9281 138.475 55.9952 138.469 56.0829 138.462C56.2582 138.448 56.5156 138.426 56.8454 138.398C57.5049 138.342 58.4539 138.26 59.6137 138.156C61.9325 137.948 65.097 137.65 68.4764 137.292C75.1504 136.585 82.9216 135.621 86.519 134.615L85.4421 130.763ZM53.7589 137.135C55.373 141.876 59.3302 148.985 65.1459 155.051C70.9637 161.12 78.8522 166.358 88.3469 166.869L88.5617 162.875C80.4534 162.438 73.4575 157.941 68.0333 152.283C62.6071 146.623 58.9648 140.015 57.5455 135.846L53.7589 137.135ZM90.3059 162.776C80.8221 163.193 66.8606 163.775 53.3455 161.177C39.825 158.579 27.0978 152.865 19.6812 140.971L16.287 143.088C24.5464 156.333 38.5582 162.408 52.5905 165.106C66.6283 167.804 81.0338 167.188 90.4818 166.772L90.3059 162.776ZM19.6812 140.971C14.715 133.007 11.9071 125.697 11.0053 118.196C10.103 110.692 11.0916 102.854 13.9245 93.8099L10.1074 92.6143C7.15521 102.039 6.04653 110.462 7.03389 118.674C8.0217 126.89 11.0904 134.754 16.287 143.088L19.6812 140.971ZM13.9245 93.8099C15.3256 89.3366 17.0302 85.6174 18.7475 82.2041C20.4366 78.8467 22.2359 75.6079 23.6522 72.3853C26.5886 65.7043 28.0867 58.6762 25.4491 47.9551L21.5649 48.9107C23.9685 58.6803 22.6135 64.8073 19.9903 70.7759C18.6269 73.8781 16.9697 76.8377 15.1742 80.4063C13.4069 83.9189 11.5987 87.853 10.1074 92.6143L13.9245 93.8099ZM23.0563 50.3815C25.4066 50.925 29.8534 53.4689 34.2501 58.5852C38.5886 63.6338 42.7549 71.0548 44.6674 81.1089L48.5969 80.3615C46.5492 69.5967 42.0629 61.5395 37.2838 55.9782C32.5629 50.4847 27.4272 47.2868 23.9577 46.4843L23.0563 50.3815ZM48.9682 111.006C47.001 107.618 44.2654 97.0999 48.5624 81.2588L44.7019 80.2116C40.2102 96.7706 42.8616 108.455 45.509 113.014L48.9682 111.006ZM48.5624 81.2588C49.3832 78.233 50.4601 75.0162 51.8467 71.6227L48.1438 70.1097C46.6967 73.6515 45.5666 77.0237 44.7019 80.2116L48.5624 81.2588ZM51.7143 71.8883C59.2766 59.1692 63.3889 47.9364 64.1151 45.0436L60.2355 44.0696C59.6259 46.4979 55.6928 57.3699 48.2761 69.8441L51.7143 71.8883ZM64.1151 45.0436C64.3866 43.9623 66.6174 38.5401 65.8071 31.1216C64.9865 23.6077 61.1168 14.1725 49.7889 4.43226L47.181 7.46523C57.8221 16.6149 61.1315 25.1534 61.8308 31.5559C62.5405 38.0537 60.632 42.4903 60.2355 44.0696L64.1151 45.0436ZM49.8517 4.48865C44.7603 -0.277398 42.0525 -3.71705 40.625 -7.14982C39.2091 -10.5549 38.9605 -14.1725 39.2664 -19.5333L35.2729 -19.7612C34.9571 -14.2256 35.1617 -9.87025 36.9316 -5.61398C38.69 -1.38538 41.9007 2.52476 47.1182 7.40884L49.8517 4.48865ZM39.2664 -19.5333C39.5856 -25.1279 41.2819 -29.3429 44.1578 -32.9749C47.079 -36.6641 51.2862 -39.8409 56.7914 -43.2141L54.7016 -46.6248C49.0749 -43.1771 44.3853 -39.7057 41.0219 -35.458C37.6132 -31.1532 35.637 -26.1425 35.2729 -19.7612L39.2664 -19.5333ZM53.7604 -45.1547C53.2706 -41.0197 52.7412 -34.3934 53.6819 -27.8944C54.615 -21.4488 57.0629 -14.6787 62.9346 -10.8571L65.1166 -14.2095C60.6886 -17.0915 58.5138 -22.4354 57.6407 -28.4674C56.7752 -34.4461 57.2561 -40.661 57.7326 -44.6842L53.7604 -45.1547ZM62.9346 -10.8571C68.2801 -7.3779 74.2377 -5.0471 80.3127 -2.59179C86.4378 -0.116219 92.7861 2.52177 99.2515 6.6411L101.401 3.26763C94.5966 -1.06758 87.9445 -3.82162 81.8116 -6.30034C75.6286 -8.79932 70.0707 -10.9851 65.1166 -14.2095L62.9346 -10.8571ZM99.2515 6.6411C117.969 18.5669 130.026 25.089 140.584 43.8136L144.068 41.849C132.933 22.1019 119.942 15.0807 101.401 3.26763L99.2515 6.6411ZM140.584 43.8136C147.802 56.616 149.516 65.0062 151.55 80.0047L155.513 79.4672C153.45 64.2507 151.645 55.2874 144.068 41.849L140.584 43.8136ZM151.55 80.0047C152.54 87.3114 152.273 98.0617 150.193 108.57C148.104 119.128 144.253 129.084 138.35 135.108L141.207 137.907C147.922 131.055 151.973 120.179 154.117 109.347C156.271 98.4655 156.571 87.2679 155.513 79.4672L151.55 80.0047ZM138.35 135.108C132.057 141.529 127.034 146.342 123.229 149.653C121.325 151.309 119.75 152.568 118.49 153.457C117.186 154.378 116.363 154.799 115.936 154.929L117.098 158.756C118.171 158.43 119.43 157.691 120.797 156.725C122.209 155.728 123.895 154.375 125.854 152.671C129.774 149.26 134.881 144.362 141.207 137.907L138.35 135.108ZM124.077 154.685C126.479 151.071 129.136 145.105 130.832 138.26C132.529 131.407 133.307 123.497 131.783 116.028L127.864 116.827C129.233 123.534 128.555 130.813 126.949 137.298C125.341 143.79 122.845 149.311 120.745 152.471L124.077 154.685ZM131.783 116.028C131.216 113.248 130.588 110.092 129.998 107.427C129.703 106.093 129.412 104.859 129.137 103.839C128.876 102.87 128.59 101.94 128.28 101.314L124.696 103.09C124.81 103.319 125.01 103.895 125.275 104.88C125.527 105.814 125.803 106.981 126.093 108.292C126.673 110.914 127.29 114.016 127.864 116.827L131.783 116.028ZM124.604 101.531C123.2 105.473 120.288 110.273 116.688 114.192L119.633 116.898C123.549 112.636 126.766 107.382 128.372 102.873L124.604 101.531ZM116.688 114.192C115.771 115.189 114.354 116.615 112.668 117.465C111.067 118.272 109.38 118.5 107.553 117.417C105.561 116.235 103.071 113.307 100.571 106.837C98.092 100.419 95.7054 90.7821 93.7214 76.5927L89.76 77.1466C91.7648 91.4847 94.2053 101.458 96.8402 108.279C99.4552 115.048 102.367 118.991 105.512 120.857C108.824 122.821 112.011 122.276 114.469 121.037C116.843 119.84 118.671 117.945 119.633 116.898L116.688 114.192ZM90.7818 75.1145C88.7125 76.245 86.4924 78.5052 84.4496 81.2991C82.3717 84.1412 80.3491 87.7119 78.7365 91.6665C75.5339 99.5205 73.8197 109.222 76.9275 117.849L80.6907 116.493C78.052 109.168 79.4283 100.564 82.4404 93.1768C83.9352 89.5111 85.8011 86.2278 87.6786 83.66C89.5912 81.044 91.3935 79.3383 92.6996 78.6248L90.7818 75.1145ZM76.9275 117.849C77.9488 120.684 79.3311 124.002 80.4791 126.696C81.0485 128.032 81.582 129.265 81.9657 130.163C82.1617 130.622 82.322 131.001 82.4406 131.29C82.4999 131.434 82.5458 131.549 82.5791 131.636C82.6166 131.733 82.6244 131.76 82.6194 131.743L86.4469 130.581C86.3377 130.222 86.008 129.444 85.644 128.592C85.2414 127.65 84.7362 126.483 84.1589 125.128C83.0133 122.439 81.6702 119.212 80.6907 116.493L76.9275 117.849ZM83.9947 129.236C80.7907 130.132 73.3977 131.068 66.6079 131.787C63.2554 132.142 60.113 132.438 57.8081 132.645C56.6559 132.749 55.7137 132.83 55.06 132.886C54.7332 132.913 54.4786 132.935 54.3059 132.949C54.2196 132.956 54.1538 132.962 54.1097 132.965C54.0876 132.967 54.071 132.968 54.06 132.969C54.0544 132.97 54.0503 132.97 54.0476 132.97C54.0463 132.97 54.0453 132.97 54.0446 132.97C54.0443 132.97 54.0441 132.97 54.0439 132.97C54.0438 132.97 54.0438 132.97 54.2048 134.964C54.3658 136.958 54.366 136.957 54.3662 136.957C54.3664 136.957 54.3667 136.957 54.3671 136.957C54.3679 136.957 54.3691 136.957 54.3706 136.957C54.3736 136.957 54.378 136.957 54.3838 136.956C54.3955 136.955 54.4127 136.954 54.4354 136.952C54.4807 136.948 54.5478 136.943 54.6355 136.935C54.8108 136.921 55.0682 136.899 55.398 136.871C56.0575 136.816 57.0065 136.734 58.1663 136.629C60.4851 136.421 63.6496 136.123 67.029 135.765C73.703 135.058 81.4742 134.094 85.0716 133.088L83.9947 129.236ZM52.3115 135.609C53.8989 140.271 57.58 147.8 63.1511 154.32C68.7106 160.827 76.3824 166.587 85.9583 167.102L86.1731 163.108C78.1459 162.676 71.404 157.821 66.1922 151.722C60.9919 145.635 57.5441 138.567 56.0981 134.319L52.3115 135.609ZM18.2667 37.0134C19.5857 35.3992 21.3536 32.6862 22.4293 29.6838C23.4836 26.7412 24.0334 23.0492 22.169 19.898L18.7264 21.9349C19.6808 23.5479 19.5746 25.7923 18.6637 28.3346C17.7743 30.8171 16.268 33.1378 15.1693 34.4823L18.2667 37.0134ZM22.169 19.898C20.5937 17.2355 18.4578 15.1911 16.7628 13.8307C15.9078 13.1444 15.146 12.6171 14.5924 12.258C14.3151 12.0782 14.0888 11.9398 13.9275 11.844C13.8468 11.796 13.7823 11.7587 13.7357 11.7321C13.7124 11.7188 13.6935 11.7082 13.6794 11.7003C13.6723 11.6963 13.6664 11.693 13.6617 11.6904C13.6594 11.6891 13.6573 11.688 13.6556 11.687C13.6547 11.6865 13.6539 11.6861 13.6532 11.6857C13.6528 11.6855 13.6523 11.6852 13.6521 11.6851C13.6517 11.6849 13.6512 11.6846 12.6881 13.4374C11.725 15.1903 11.7246 15.19 11.7242 15.1898C11.7241 15.1898 11.7237 15.1896 11.7235 15.1895C11.7231 15.1892 11.7227 15.189 11.7224 15.1889C11.7219 15.1886 11.7216 15.1884 11.7217 15.1884C11.7217 15.1885 11.723 15.1892 11.7253 15.1905C11.7301 15.1931 11.7393 15.1983 11.7529 15.2061C11.78 15.2216 11.8244 15.2472 11.8843 15.2828C12.0043 15.3541 12.1859 15.465 12.4159 15.6141C12.8768 15.913 13.5264 16.3621 14.259 16.9501C15.739 18.1381 17.4829 19.8332 18.7264 21.9349L22.169 19.898ZM12.6881 13.4374C13.5902 11.6525 13.5909 11.6528 13.5915 11.6531C13.5918 11.6532 13.5924 11.6536 13.5928 11.6538C13.5936 11.6542 13.5944 11.6546 13.5951 11.6549C13.5965 11.6557 13.5977 11.6563 13.5987 11.6568C13.6008 11.6578 13.602 11.6585 13.6024 11.6587C13.6032 11.6591 13.6009 11.6579 13.5957 11.6551C13.5852 11.6495 13.5632 11.6374 13.5315 11.6191C13.4676 11.5823 13.3663 11.5212 13.2407 11.4366C12.9855 11.2646 12.6533 11.0111 12.3366 10.6862C11.6902 10.0231 11.2658 9.24158 11.3516 8.30851L7.36836 7.94232C7.13523 10.4781 8.3749 12.3526 9.47233 13.4783C10.0274 14.0478 10.5871 14.4719 11.0057 14.7539C11.2171 14.8963 11.3982 15.0063 11.5326 15.0838C11.5999 15.1227 11.656 15.1536 11.6988 15.1767C11.7202 15.1882 11.7383 15.1978 11.7529 15.2054C11.7602 15.2092 11.7666 15.2126 11.7722 15.2154C11.7749 15.2168 11.7775 15.2181 11.7798 15.2193C11.7809 15.2199 11.782 15.2204 11.7831 15.221C11.7836 15.2212 11.7843 15.2216 11.7846 15.2217C11.7853 15.2221 11.786 15.2224 12.6881 13.4374ZM11.3516 8.30851C11.5015 6.67782 11.6218 5.7872 11.7033 5.34304L7.76914 4.62043C7.65396 5.24755 7.52083 6.2838 7.36836 7.94232L11.3516 8.30851ZM8.20745 3.21719C6.50038 4.466 4.27756 6.45514 2.76251 8.76807C1.27962 11.0319 0.149241 14.1568 1.83262 17.1769L5.32652 15.2294C4.73795 14.1734 4.91672 12.7794 6.10857 10.9599C7.26827 9.18941 9.08579 7.5307 10.5691 6.44556L8.20745 3.21719ZM1.83262 17.1769C2.82034 18.9489 4.34874 20.182 5.84259 21.1347C7.26663 22.0429 9.02941 22.9052 10.2793 23.6067C11.6659 24.385 12.6736 25.0864 13.3075 25.8791C13.8668 26.5784 14.189 27.4131 14.0352 28.6964L18.0068 29.1724C18.2899 26.8106 17.6521 24.9072 16.4315 23.3808C15.2855 21.9479 13.6934 20.936 12.2371 20.1186C10.6442 19.2246 9.32119 18.6089 7.99337 17.7622C6.73536 16.9599 5.84584 16.1611 5.32652 15.2294L1.83262 17.1769ZM14.0211 28.954C14.05 31.9149 14.5191 34.9522 14.7569 36.1403L18.6791 35.3553C18.4751 34.3359 18.0467 31.5574 18.0209 28.9149L14.0211 28.954ZM11.7033 5.34303C11.7254 5.22286 11.7751 4.94398 11.7565 4.63312C11.7468 4.47251 11.6498 3.17884 10.3198 2.75689C9.79875 2.59158 9.35669 2.67664 9.14409 2.73391C8.91722 2.79502 8.74272 2.88198 8.64815 2.9327C8.4608 3.0332 8.29567 3.15265 8.20745 3.21719L10.5691 6.44556C10.6473 6.38837 10.6182 6.41509 10.5389 6.45761C10.4984 6.47936 10.3709 6.54602 10.1845 6.59625C10.0122 6.64264 9.60388 6.72624 9.11017 6.56961C8.53581 6.38738 8.15714 5.98258 7.95996 5.59065C7.79476 5.26226 7.76993 4.97699 7.76368 4.87286C7.75127 4.66624 7.7843 4.53792 7.76914 4.62043L11.7033 5.34303ZM112.115 56.9921C113.749 57.5805 116.234 58.7966 118.273 60.4686C120.361 62.181 121.606 64.0515 121.616 65.9257L125.616 65.9032C125.596 62.2418 123.226 59.3577 120.809 57.3757C118.343 55.3533 115.432 53.9352 113.471 53.2288L112.115 56.9921ZM121.616 65.9257C121.63 68.3677 121.006 70.7183 120.347 72.4982C120.021 73.3792 119.694 74.0984 119.453 74.5917C119.332 74.8379 119.233 75.0264 119.167 75.1492C119.134 75.2105 119.109 75.2553 119.094 75.2826C119.086 75.2962 119.081 75.3054 119.078 75.3101C119.077 75.3125 119.076 75.3137 119.076 75.3138C119.076 75.3138 119.076 75.3135 119.076 75.313C119.076 75.3127 119.077 75.3124 119.077 75.312C119.077 75.3117 119.077 75.3114 119.077 75.3113C119.078 75.3109 119.078 75.3105 120.805 76.3188C122.532 77.3272 122.532 77.3268 122.533 77.3263C122.533 77.3261 122.533 77.3256 122.533 77.3253C122.534 77.3246 122.534 77.3238 122.535 77.3229C122.536 77.3212 122.537 77.3192 122.538 77.3168C122.541 77.3122 122.544 77.3063 122.548 77.2993C122.556 77.2852 122.567 77.2664 122.58 77.2431C122.607 77.1963 122.643 77.1311 122.687 77.0485C122.776 76.8834 122.899 76.6483 123.045 76.3515C123.335 75.7589 123.717 74.9149 124.098 73.8868C124.852 71.8484 125.634 68.9968 125.616 65.9032L121.616 65.9257ZM120.805 76.3188C119.114 75.2515 119.113 75.2522 119.113 75.2529C119.113 75.2531 119.112 75.2538 119.112 75.2543C119.111 75.2553 119.111 75.2563 119.11 75.2575C119.109 75.2596 119.107 75.2621 119.105 75.2647C119.102 75.27 119.098 75.2761 119.094 75.2831C119.085 75.2972 119.075 75.3147 119.062 75.3356C119.037 75.3774 119.005 75.4328 118.967 75.5007C118.892 75.6363 118.793 75.8237 118.685 76.0545C118.471 76.5116 118.209 77.1631 118.026 77.937C117.663 79.4667 117.563 81.7118 119.067 83.7671L122.295 81.4054C121.742 80.6492 121.704 79.7606 121.918 78.8596C122.022 78.4179 122.177 78.0298 122.308 77.751C122.372 77.6139 122.427 77.5094 122.463 77.445C122.481 77.4129 122.494 77.3913 122.5 77.3811C122.503 77.376 122.504 77.3738 122.504 77.3746C122.503 77.3749 122.503 77.3761 122.501 77.378C122.501 77.379 122.5 77.3802 122.499 77.3815C122.499 77.3822 122.498 77.3829 122.498 77.3837C122.498 77.3841 122.497 77.3847 122.497 77.3849C122.497 77.3855 122.496 77.3862 120.805 76.3188ZM119.067 83.7671C120.05 85.1113 120.697 85.9317 121.118 86.4104L124.121 83.7682C123.823 83.4291 123.262 82.727 122.295 81.4054L119.067 83.7671ZM122.581 83.4055C120.751 83.2374 118.34 82.749 116.435 81.8267C114.477 80.8788 113.608 79.775 113.57 78.5667L109.572 78.6922C109.68 82.1481 112.256 84.2474 114.692 85.4268C117.18 86.6318 120.109 87.1952 122.215 87.3887L122.581 83.4055ZM113.57 78.5667C113.536 77.5005 113.888 76.358 114.555 75.023C115.259 73.6141 116.077 72.4058 116.984 70.82C117.813 69.3702 118.658 67.6838 118.905 65.8656C119.167 63.9289 118.736 61.9683 117.279 60.088L114.117 62.5379C114.908 63.5595 115.061 64.4411 114.941 65.3286C114.804 66.3344 114.301 67.4542 113.511 68.8346C112.8 70.0789 111.731 71.7248 110.977 73.2359C110.185 74.8211 109.508 76.6645 109.572 78.6922L113.57 78.5667ZM117.423 60.3016C116.087 58.0218 115.026 55.4183 114.677 54.439L110.909 55.7819C111.316 56.9232 112.475 59.7696 113.972 62.3242L117.423 60.3016ZM121.118 86.4104C121.174 86.4734 121.079 86.3803 120.984 86.1966C120.935 86.1041 120.81 85.8466 120.783 85.48C120.751 85.0425 120.867 84.5007 121.266 84.0492C121.609 83.661 122.002 83.5228 122.174 83.474C122.36 83.4213 122.503 83.4129 122.549 83.4107C122.639 83.4064 122.678 83.4144 122.581 83.4055L122.215 87.3887C122.324 87.3987 122.527 87.4163 122.74 87.4062C122.847 87.4011 123.041 87.3859 123.267 87.3217C123.479 87.2615 123.902 87.1072 124.264 86.6976C125.188 85.652 124.606 84.4926 124.532 84.3498C124.388 84.0735 124.202 83.8599 124.121 83.7682L121.118 86.4104Z" fill="#7831B2"/>
</svg>
