<svg width="176" height="166" viewBox="0 0 176 166" fill="none" xmlns="http://www.w3.org/2000/svg">
<path d="M16.134 12.4966C14.2483 14.8899 13.4733 18.0105 13.37 21.2621C13.213 26.2037 14.6071 31.4479 16.0114 34.901C23.3074 54.4674 39.8717 99.4257 47.761 122.727C55.6503 146.029 71.4434 147.474 78.3538 145.283L174.706 119.506C185.442 116.634 189.925 110.835 191.266 105.01M16.134 12.4966C17.5181 10.7399 19.5008 9.37506 22.2555 8.63808L122.424 -18.1601C129.42 -20.0317 145.406 -19.3901 153.385 -1.85081C161.364 15.6885 180.981 67.9592 189.793 91.9021C191.279 95.1099 192.403 100.069 191.266 105.01M16.134 12.4966C16.134 12.4966 -1.03198 28.5421 2.47164 41.5973C5.97526 54.6526 39.5369 145.421 39.5369 145.421C41.9689 151.943 50.6633 164.783 65.9849 163.963C81.3064 163.143 141.863 145.712 170.226 137.1C176.212 135.277 188.802 126.308 191.266 105.01M17.4027 11.3745C15.517 13.7678 14.7421 16.8884 14.6387 20.14C14.4817 25.0816 15.8759 30.3258 17.2801 33.7789C24.5761 53.3454 41.1404 98.3036 49.0297 121.605C56.919 144.907 72.7121 146.351 79.6225 144.161L175.975 118.384C186.711 115.512 191.194 109.713 192.535 103.888M17.4027 11.3745C18.7869 9.6178 20.7695 8.25299 23.5242 7.516L123.693 -19.2822C130.689 -21.1538 146.675 -20.5122 154.654 -2.97289C162.633 14.5664 182.25 66.8371 191.061 90.78C192.548 93.9878 193.672 98.9474 192.535 103.888M17.4027 11.3745C17.4027 11.3745 0.23673 27.42 3.74035 40.4753C7.24396 53.5306 40.8056 144.299 40.8056 144.299C43.2376 150.821 51.932 163.66 67.2536 162.84C82.5752 162.02 143.132 144.59 171.494 135.977C177.481 134.155 190.071 125.186 192.535 103.888M151.17 52.0686C158.371 78.903 142.422 106.485 115.545 113.676C88.6692 120.866 61.0436 104.941 53.8422 78.1068C46.6407 51.2724 62.5903 23.69 89.4666 16.4997C116.343 9.30947 143.968 25.2342 151.17 52.0686ZM150.242 51.5335C157.443 78.3679 141.494 105.95 114.617 113.141C87.7411 120.331 60.1156 104.406 52.9141 77.5717C45.7126 50.7373 61.6622 23.1548 88.5386 15.9646C115.415 8.77433 143.04 24.6991 150.242 51.5335ZM75.3842 61.3637L102.036 51.6649C104.015 51.0828 107.978 50.6063 110.08 52.5428C110.608 53.0285 111.498 53.1562 111.973 52.619L118.705 44.9999C119.208 44.4305 120.138 44.6059 120.398 45.3193L129.503 70.2617C129.777 71.011 129.106 71.7632 128.329 71.5779L118.259 69.1767C117.482 68.9914 116.811 69.7436 117.084 70.4929L118.136 73.373C118.325 73.8923 118.057 74.4668 117.537 74.6561L88.307 85.2932C88.0555 85.3848 87.7777 85.372 87.5357 85.2579L82.4777 82.873C82.2389 82.7604 82.0543 82.5583 81.9639 82.3107L74.7856 62.6468C74.596 62.1275 74.864 61.553 75.3842 61.3637ZM75.8129 60.4449L102.87 50.5985C104.882 50.005 108.908 49.5084 111.026 51.4496C111.552 51.9318 112.436 52.0611 112.912 51.5292L119.808 43.8203C120.313 43.2559 121.238 43.4333 121.497 44.1442L130.612 69.1115C130.884 69.858 130.219 70.6087 129.443 70.4293L119.188 68.0561C118.413 67.8767 117.747 68.6274 118.02 69.3739L119.076 72.2679C119.266 72.7873 118.998 73.3617 118.478 73.551L88.7942 84.3532C88.5451 84.4439 88.2701 84.4323 88.0295 84.321L82.9116 81.9533C82.6697 81.8414 82.4825 81.6379 82.3912 81.3879L75.2144 61.728C75.0248 61.2087 75.2928 60.6342 75.8129 60.4449Z" stroke="#7831B2" stroke-width="4"/>
</svg>
