<svg width="117" height="69" viewBox="0 0 117 69" fill="none" xmlns="http://www.w3.org/2000/svg">
<path d="M5.31746 34.6169C4.90958 34.773 4.59893 34.7763 4.38552 34.627C4.18427 34.4586 4.08369 34.2269 4.08379 33.9319C4.07696 33.6056 4.15863 33.3089 4.32879 33.0417C4.51458 32.771 4.93898 32.5047 5.60201 32.2429C6.57573 31.8302 7.59371 31.4323 8.65593 31.0491C9.73377 30.6625 10.7951 30.3123 11.84 29.9985C12.897 29.6657 13.8941 29.3953 14.8313 29.1873C15.253 29.0938 15.6053 29.1303 15.8881 29.297C16.1831 29.4446 16.3262 29.6833 16.3174 30.013C16.326 30.2734 16.26 30.4929 16.1193 30.6716C15.9752 30.8347 15.7253 30.9639 15.3695 31.0592C14.1112 31.3711 13.0004 31.6831 12.0371 31.9952C11.0895 32.3038 10.2295 32.6011 9.45708 32.8872C8.68471 33.1733 7.96267 33.4646 7.29095 33.7611C6.63139 34.0386 5.97356 34.3238 5.31746 34.6169ZM10.3297 38.8149C10.0798 38.8704 9.85856 38.7965 9.666 38.5934C9.48905 38.3868 9.37552 37.9859 9.32539 37.3906C9.23895 36.4101 9.19156 35.4209 9.18323 34.423C9.18704 33.406 9.20387 32.4107 9.2337 31.4372C9.26007 30.448 9.28295 29.5169 9.30233 28.644C9.33734 27.7676 9.34628 26.9953 9.32915 26.3272C9.29801 26.0391 9.34582 25.7745 9.47259 25.5333C9.61152 25.273 9.82156 25.1117 10.1027 25.0493C10.462 24.9696 10.7683 25.0573 11.0216 25.3125C11.287 25.5486 11.4231 25.9773 11.4298 26.5986C11.4486 27.3483 11.4492 28.2004 11.4315 29.1549C11.4295 30.106 11.4092 31.0856 11.3707 32.0939C11.3443 33.0831 11.3171 34.0315 11.289 34.9391C11.2766 35.8433 11.2772 36.6216 11.2908 37.2742C11.3011 37.7636 11.202 38.1297 10.9937 38.3726C10.7854 38.6155 10.564 38.7629 10.3297 38.8149ZM23.2647 37.3709C22.5306 37.5338 21.9726 37.4937 21.5909 37.2506C21.2283 37.0197 21.0436 36.5936 21.0369 35.9723C21.0283 35.712 21.0735 35.4725 21.1725 35.2538C21.2715 35.0352 21.4104 34.8487 21.5892 34.6943C23.2158 33.2353 24.5803 31.9247 25.6827 30.7623C26.7816 29.5843 27.6601 28.5208 28.3182 27.5717C28.9728 26.607 29.4425 25.7325 29.7274 24.9482C30.0088 24.1483 30.1427 23.422 30.129 22.7695C30.1172 21.9035 29.8796 21.2761 29.4164 20.8872C28.9497 20.4827 28.2399 20.3861 27.2871 20.5975C26.4905 20.7742 25.8006 21.0256 25.2173 21.3517C24.6497 21.6743 24.1515 22.0143 23.7228 22.3716C23.3096 22.7255 22.9598 23.0326 22.6734 23.2928C22.3869 23.553 22.1422 23.7057 21.9391 23.7507C21.6423 23.8166 21.3951 23.7731 21.1973 23.6203C21.0116 23.4484 20.9128 23.2245 20.9007 22.9486C20.906 22.7507 20.946 22.5616 21.0207 22.3811C21.0954 22.2007 21.2464 21.9951 21.4738 21.7643C22.236 20.9889 23.11 20.3115 24.0959 19.7322C25.094 19.1338 26.1163 18.7185 27.1629 18.4863C28.3656 18.2194 29.3279 18.2354 30.0498 18.5341C30.7838 18.8138 31.3198 19.3094 31.658 20.0211C32.0118 20.7293 32.1972 21.5649 32.2142 22.5281C32.2296 23.2622 32.107 24.0761 31.8464 24.9698C31.6014 25.86 31.1463 26.8377 30.4813 27.9031C29.8163 28.9684 28.8822 30.1508 27.6791 31.4502C26.4881 32.7306 24.9674 34.1497 23.1169 35.7075L22.6798 35.0669C22.9071 35.1312 23.1336 35.1547 23.3592 35.1374C23.6004 35.1167 23.846 35.0786 24.0959 35.0232C24.6739 34.8949 25.3447 34.7051 26.1084 34.4537C26.872 34.2024 27.706 33.9354 28.6103 33.6528C29.5302 33.3668 30.49 33.1129 31.4896 32.8911C32.255 32.7213 32.7687 32.7466 33.0307 32.9671C33.3048 33.1685 33.4436 33.4245 33.4469 33.7352C33.459 34.0111 33.3652 34.2532 33.1655 34.4613C32.9781 34.6504 32.6656 34.7935 32.2283 34.8906C31.0568 35.1505 30.031 35.4026 29.1511 35.647C28.2711 35.8914 27.4866 36.1228 26.7976 36.3413C26.1085 36.5597 25.4802 36.7565 24.9127 36.9316C24.3451 37.1066 23.7958 37.2531 23.2647 37.3709ZM50.2209 37.3149C49.2681 37.5263 48.4428 37.6111 47.7452 37.5692C47.051 37.5429 46.5209 37.4065 46.1548 37.16C45.7887 36.9134 45.6048 36.6018 45.6032 36.2252C45.5947 35.9649 45.6511 35.7393 45.7727 35.5485C45.9133 35.3698 46.132 35.2475 46.4288 35.1816C46.6162 35.1401 46.7967 35.141 46.9703 35.1844C47.1438 35.2279 47.3425 35.2739 47.5663 35.3226C47.7937 35.3869 48.0956 35.4182 48.4722 35.4166C48.8644 35.4115 49.3651 35.3414 49.9743 35.2063C50.7241 35.0399 51.3125 34.7373 51.7396 34.2984C52.1666 33.8594 52.4627 33.3103 52.6278 32.6509C52.8085 31.988 52.8903 31.2487 52.8732 30.4331C52.8665 29.9593 52.8302 29.5002 52.7644 29.0559C52.7142 28.6082 52.6571 28.1292 52.5931 27.6189C52.529 27.1087 52.4633 26.5169 52.3958 25.8435C52.3249 25.1545 52.2749 24.338 52.2457 23.3939L53.1228 23.9122C52.862 25.1009 52.558 26.0943 52.2106 26.8925C51.8598 27.6751 51.4917 28.3058 51.1063 28.7847C50.7174 29.2479 50.3276 29.5966 49.9371 29.8307C49.5587 30.0458 49.2055 30.1897 48.8774 30.2625C47.5185 30.564 46.4487 30.2113 45.6681 29.2045C44.884 28.1821 44.4647 26.3658 44.41 23.7557C44.3809 22.6641 44.4089 21.8302 44.4942 21.254C44.595 20.6744 44.7418 20.2649 44.9345 20.0255C45.1272 19.7861 45.3486 19.6386 45.5985 19.5832C45.8328 19.5312 46.0341 19.5521 46.2024 19.6459C46.3672 19.724 46.4791 19.8959 46.538 20.1614C46.6126 20.4235 46.6376 20.7949 46.6131 21.2756C46.5815 22.3151 46.5908 23.28 46.6408 24.1703C46.6874 25.045 46.7895 25.8008 46.9472 26.4378C47.1049 27.0747 47.3173 27.5521 47.5845 27.8697C47.8482 28.1718 48.1909 28.276 48.6126 28.1825C49.2687 28.0369 49.8346 27.559 50.3104 26.7487C50.7827 25.9228 51.164 24.8712 51.4542 23.5941C51.7566 22.2978 51.9732 20.8731 52.1039 19.3199C52.1474 18.8513 52.2239 18.5312 52.3333 18.3594C52.4392 18.172 52.6406 18.0454 52.9374 17.9795C53.156 17.931 53.3669 17.958 53.5699 18.0604C53.7885 18.1594 53.9533 18.3851 54.0643 18.7374C54.1874 19.0707 54.221 19.5549 54.1653 20.19C54.1077 21.0386 54.0858 21.7892 54.0994 22.4418C54.1287 23.0908 54.1841 23.7095 54.2654 24.2979C54.3433 24.8706 54.4325 25.4572 54.533 26.0577C54.6456 26.6391 54.7408 27.2899 54.8186 28.0102C54.893 28.7148 54.9448 29.5391 54.974 30.4832C55.0031 31.5748 54.9004 32.5154 54.6659 33.305C54.4348 34.1101 54.1083 34.7808 53.6864 35.3169C53.2645 35.853 52.7524 36.278 52.1501 36.5919C51.5669 36.918 50.9238 37.159 50.2209 37.3149ZM63.7963 28.0096C63.0466 28.1759 62.368 28.22 61.7606 28.1417C61.1532 28.0634 60.6648 27.8931 60.2952 27.6309C59.9256 27.3688 59.7322 27.0511 59.715 26.678C59.7203 26.4802 59.7698 26.2971 59.8636 26.1288C59.9574 25.9605 60.1058 25.8538 60.3088 25.8087C60.465 25.7741 60.6143 25.7819 60.7566 25.8323C60.8989 25.8827 61.068 25.9435 61.2641 26.0147C61.4602 26.0859 61.7327 26.132 62.0815 26.153C62.4268 26.1583 62.8807 26.0986 63.443 25.9738C64.3177 25.7797 65.0285 25.4008 65.5754 24.8369C66.1344 24.254 66.3915 23.4185 66.3468 22.3304C66.3401 21.5616 66.2006 20.896 65.9283 20.3336C65.6682 19.7521 65.31 19.2826 64.8537 18.9249C64.3939 18.5516 63.8569 18.3102 63.2426 18.2007C62.6283 18.0911 61.9618 18.1161 61.2433 18.2755C60.8841 18.3552 60.5256 18.4757 60.1681 18.637C59.8105 18.7982 59.4912 18.9101 59.21 18.9725C59.0382 19.0106 58.8733 19.0062 58.7154 18.9593C58.554 18.8967 58.4326 18.7926 58.3511 18.6468C58.2696 18.501 58.2271 18.3465 58.2237 18.1834C58.2238 17.7408 58.4339 17.3582 58.854 17.0356C59.2863 16.6938 59.9944 16.4138 60.9785 16.1955C62.0251 15.9633 62.9943 15.9367 63.8863 16.1158C64.7938 16.2914 65.586 16.6483 66.2626 17.1865C66.9358 17.7091 67.4666 18.4026 67.855 19.2669C68.2556 20.1122 68.4679 21.1059 68.4918 22.2478C68.5106 22.9975 68.4028 23.6934 68.1683 24.3354C67.9494 24.974 67.6334 25.544 67.2202 26.0454C66.8035 26.5312 66.3053 26.9449 65.7255 27.2866C65.1423 27.6126 64.4992 27.8536 63.7963 28.0096ZM59.621 35.2294C59.4336 35.2709 59.2591 35.2605 59.0978 35.1979C58.9555 35.1476 58.8418 35.0417 58.7569 34.8802C58.6719 34.7188 58.6268 34.5158 58.6217 34.2711C58.6166 34.0264 58.654 33.7886 58.7339 33.5578C58.8016 33.3461 58.8746 33.0841 58.9528 32.7717C59.0345 32.475 59.1066 32.0984 59.1693 31.642C59.2319 31.1856 59.2573 30.5982 59.2454 29.8797C59.2266 28.9825 59.1392 28.1087 58.9833 27.2583C58.8396 26.3887 58.6724 25.5244 58.4818 24.6653C58.3033 23.7871 58.1327 22.9072 57.9699 22.0255C57.8036 21.1283 57.7058 20.2076 57.6766 19.2635C57.6802 18.9841 57.7098 18.7481 57.7654 18.5555C57.821 18.3628 57.9104 18.2119 58.0337 18.1026C58.1691 17.9742 58.3383 17.8875 58.5414 17.8424C58.7913 17.787 59.0134 17.8279 59.2078 17.965C59.4142 18.0831 59.5799 18.2758 59.7048 18.5431C59.8262 18.7948 59.8842 19.0933 59.8789 19.4386C59.8994 20.4174 59.9797 21.3338 60.12 22.1877C60.2725 23.0225 60.4371 23.8382 60.6138 24.6348C60.8062 25.428 60.9751 26.2263 61.1206 27.0299C61.2661 27.8335 61.3465 28.676 61.3618 29.5577C61.3911 30.3542 61.3735 31.0875 61.309 31.7573C61.2446 32.4272 61.1359 33.0085 60.983 33.5013C60.8458 33.9907 60.6626 34.3837 60.4334 34.6804C60.2198 34.9736 59.949 35.1566 59.621 35.2294ZM77.3408 25.1766C76.06 25.4608 74.9432 25.4136 73.9906 25.0349C73.0536 24.6528 72.3232 24.02 71.7994 23.1365C71.2877 22.2339 71.0121 21.1396 70.9727 19.8536C70.9504 18.9407 71.0774 18.1095 71.3536 17.3599C71.6419 16.5912 72.0014 15.9214 72.432 15.3506C72.8782 14.7763 73.3504 14.3192 73.8486 13.9792C74.3433 13.6236 74.7859 13.4025 75.1764 13.3159C75.3482 13.2777 75.494 13.27 75.6137 13.2926C75.7491 13.3117 75.8601 13.369 75.9469 13.4645C76.0458 13.5409 76.0987 13.6685 76.1055 13.8472C76.0968 14.177 76.0359 14.4937 75.923 14.7973C75.8066 15.0854 75.5367 15.3829 75.1131 15.6899C74.6097 16.0802 74.1991 16.4827 73.8814 16.8974C73.5758 17.293 73.3527 17.7276 73.2119 18.2013C73.0678 18.6594 73.0129 19.1879 73.0474 19.7866C73.0782 21.1073 73.4519 22.0897 74.1684 22.7338C74.8814 23.3623 75.8003 23.5517 76.9249 23.3022C78.0183 23.0596 78.8845 22.4577 79.5235 21.4965C80.1746 20.5162 80.4796 19.3423 80.4384 17.9747C80.4215 16.7165 80.1355 15.7966 79.5803 15.2151C79.0217 14.6179 78.2738 14.4233 77.3366 14.6312C76.8524 14.7386 76.4592 14.9242 76.1572 15.1879C75.8707 15.4481 75.5669 15.7777 75.2457 16.1768C75.0165 16.4735 74.8368 16.7346 74.7066 16.9601C74.5764 17.1857 74.4531 17.3687 74.3368 17.5093C74.2326 17.6307 74.079 17.714 73.8759 17.759C73.6572 17.8075 73.4698 17.7754 73.3137 17.6625C73.1697 17.5306 73.0925 17.2937 73.0822 16.9518C73.065 16.5787 73.1632 16.1717 73.3768 15.731C73.606 15.2868 73.9047 14.86 74.2727 14.4505C74.6529 14.022 75.08 13.6568 75.5538 13.355C76.0243 13.0376 76.5094 12.8235 77.0092 12.7126C78.1339 12.463 79.1066 12.5258 79.9273 12.901C80.7446 13.2605 81.3804 13.8733 81.8348 14.7395C82.2857 15.59 82.5179 16.6365 82.5314 17.8791C82.5726 19.0991 82.3796 20.2236 81.9523 21.2526C81.5216 22.266 80.907 23.1153 80.1084 23.8005C79.3255 24.4823 78.403 24.941 77.3408 25.1766ZM94.989 21.2365C94.5204 21.3405 93.9738 21.3143 93.3491 21.1579C92.7209 20.9858 92.0797 20.7184 91.4256 20.3554C90.7871 19.989 90.1807 19.5827 89.6064 19.1365C89.0477 18.6869 88.588 18.2398 88.2272 17.7954C88.0155 17.5802 87.8637 17.3762 87.7718 17.1835C87.6921 16.9718 87.6375 16.7626 87.608 16.5561C87.6272 16.4208 87.6585 16.2663 87.7019 16.0928C87.7454 15.9192 87.8157 15.7561 87.9129 15.6035C88.0449 15.3119 88.2906 14.9051 88.65 14.3828C89.0095 13.8606 89.4322 13.2915 89.9184 12.6756C90.4166 12.0406 90.9392 11.4412 91.4861 10.8773C92.0451 10.2944 92.5824 9.79824 93.0979 9.38885C93.6291 8.976 94.1056 8.72279 94.5273 8.62922C94.6992 8.59109 94.8406 8.60069 94.9516 8.65799C95.0783 8.71184 95.1789 8.79604 95.2535 8.9106C95.3281 9.02517 95.3715 9.14666 95.3836 9.27509C95.4442 9.6222 95.2905 10.0005 94.9224 10.4099C94.5544 10.8194 94.1499 11.2123 93.7089 11.5887C92.9295 12.2861 92.2498 12.9532 91.67 13.5899C91.0901 14.2266 90.6309 14.7792 90.2923 15.2476C89.9694 15.7126 89.8174 16.0249 89.8365 16.1846C89.8399 16.3477 90.0021 16.5986 90.323 16.9371C90.6405 17.26 91.0951 17.6098 91.6867 17.9866C92.2749 18.3478 92.9421 18.6587 93.6882 18.9192C94.0266 19.0408 94.3554 19.1564 94.6747 19.2658C95.0061 19.3562 95.2768 19.4682 95.4868 19.6019C95.7089 19.7165 95.8346 19.8771 95.8641 20.0836C95.8866 20.2589 95.8666 20.4272 95.804 20.5886C95.7415 20.75 95.633 20.8888 95.4785 21.005C95.3396 21.1177 95.1765 21.1949 94.989 21.2365ZM87.1815 22.9441C86.7754 23.0342 86.457 22.8918 86.2263 22.5169C85.9922 22.1263 85.8197 21.5336 85.7089 20.7388C85.6103 19.9248 85.5455 18.9312 85.5147 17.7581C85.5044 17.2687 85.5046 16.7524 85.5152 16.2092C85.5414 15.6625 85.5676 15.1159 85.5939 14.5692C85.6166 14.0069 85.6194 13.4655 85.6022 12.9448C85.6057 12.8129 85.6014 12.6828 85.5893 12.5544C85.5894 12.4068 85.5816 12.2611 85.5661 12.117C85.5592 11.7908 85.588 11.514 85.6522 11.2866C85.7165 11.0593 85.8068 10.8754 85.9232 10.7349C86.0516 10.5752 86.194 10.4781 86.3502 10.4434C86.7094 10.3637 87.027 10.4654 87.3028 10.7483C87.5908 11.0122 87.7365 11.447 87.7397 12.0527C87.7483 12.4605 87.7307 12.9725 87.6871 13.5885C87.6557 14.1855 87.6199 14.7998 87.5798 15.4315C87.5397 16.0632 87.523 16.616 87.5298 17.0897C87.5694 17.9332 87.6212 18.6838 87.6852 19.3415C87.7648 19.9958 87.8436 20.5356 87.9215 20.9608C87.996 21.3704 88.0271 21.6585 88.0149 21.8251C88.0253 22.0194 87.9914 22.199 87.9132 22.3639C87.8472 22.5096 87.7509 22.6293 87.6242 22.723C87.5165 22.8288 87.369 22.9025 87.1815 22.9441ZM101.107 19.8546C100.388 20.0141 99.7642 19.9722 99.235 19.729C98.7214 19.4824 98.3111 19.0736 98.0041 18.5025C97.7128 17.928 97.5568 17.2251 97.5363 16.3938C97.5105 15.6129 97.6019 14.8059 97.8104 13.973C98.0311 13.1209 98.3481 12.2967 98.7614 11.5003C99.1713 10.6882 99.6548 9.94996 100.212 9.28548C100.782 8.60191 101.408 8.02855 102.092 7.56542C102.792 7.09883 103.524 6.78062 104.29 6.61081C104.649 6.5311 104.951 6.56244 105.195 6.70483C105.44 6.84722 105.565 7.11452 105.57 7.50673C105.58 7.7011 105.531 7.88418 105.421 8.05595C105.309 8.2121 105.123 8.33525 104.864 8.42541C103.806 8.8242 102.877 9.43997 102.078 10.2727C101.295 11.102 100.69 12.0311 100.263 13.0601C99.8478 14.07 99.6461 15.0817 99.6579 16.0952C99.6647 16.5689 99.7097 16.9933 99.7929 17.3682C99.8726 17.7274 100.055 18.1787 100.339 18.722L99.09 17.3028C99.4509 17.5997 99.7528 17.7786 99.9958 17.8394C100.254 17.8968 100.594 17.8787 101.016 17.7851C102.016 17.5633 102.889 16.6976 103.636 15.188C104.383 13.6784 104.921 11.6004 105.252 8.95398C105.295 8.63294 105.394 8.37353 105.546 8.17574C105.711 7.95886 105.927 7.82097 106.192 7.76205C106.551 7.68234 106.859 7.7779 107.116 8.04872C107.385 8.30045 107.556 8.66408 107.629 9.13962C107.784 10.1375 107.951 11.0348 108.127 11.8315C108.316 12.609 108.565 13.3241 108.874 13.9767C109.198 14.6259 109.653 15.2708 110.237 15.9113C110.366 16.0467 110.445 16.2177 110.474 16.4242C110.519 16.6273 110.508 16.8347 110.44 17.0464C110.388 17.2546 110.29 17.4403 110.146 17.6034C110.014 17.7474 109.838 17.8436 109.62 17.8921C109.385 17.9441 109.188 17.9388 109.026 17.8763C108.88 17.8103 108.742 17.7018 108.61 17.5508C108.301 17.1932 108.01 16.8069 107.738 16.3921C107.466 15.9772 107.211 15.4929 106.973 14.9392C106.748 14.3665 106.555 13.68 106.393 12.8799C106.232 12.0799 106.101 11.1175 105.999 9.9929L106.837 9.78233C106.668 11.4587 106.391 12.9051 106.005 14.1215C105.616 15.3223 105.151 16.327 104.609 17.1355C104.079 17.925 103.512 18.5426 102.906 18.9884C102.3 19.4342 101.7 19.7229 101.107 19.8546ZM18.1144 60.8273C17.6458 60.9313 17.0991 60.9051 16.4744 60.7487C15.8463 60.5766 15.2051 60.3092 14.551 59.9462C13.9124 59.5798 13.306 59.1735 12.7318 58.7273C12.1731 58.2777 11.7134 57.8306 11.3525 57.3862C11.1409 57.171 10.9891 56.967 10.8972 56.7743C10.8174 56.5626 10.7628 56.3535 10.7334 56.1469C10.7525 56.0116 10.7838 55.8571 10.8273 55.6836C10.8707 55.5101 10.9411 55.347 11.0383 55.1943C11.1703 54.9028 11.416 54.4959 11.7754 53.9736C12.1348 53.4514 12.5576 52.8823 13.0437 52.2664C13.542 51.6314 14.0646 51.032 14.6115 50.4681C15.1705 49.8852 15.7078 49.3891 16.2233 48.9797C16.7545 48.5668 17.231 48.3136 17.6527 48.22C17.8245 48.1819 17.966 48.1915 18.077 48.2488C18.2037 48.3027 18.3043 48.3869 18.3789 48.5014C18.4535 48.616 18.4968 48.7375 18.5089 48.8659C18.5696 49.213 18.4158 49.5913 18.0478 50.0007C17.6797 50.4102 17.2752 50.8031 16.8343 51.1796C16.0549 51.8769 15.3752 52.544 14.7954 53.1807C14.2155 53.8174 13.7563 54.37 13.4177 54.8384C13.0948 55.3034 12.9428 55.6158 12.9618 55.7754C12.9653 55.9386 13.1274 56.1894 13.4484 56.5279C13.7659 56.8508 14.2204 57.2007 14.8121 57.5774C15.4003 57.9386 16.0674 58.2495 16.8136 58.5101C17.152 58.6317 17.4808 58.7472 17.8001 58.8566C18.1315 58.947 18.4022 59.059 18.6122 59.1927C18.8343 59.3073 18.96 59.4679 18.9895 59.6744C19.012 59.8497 18.9919 60.018 18.9294 60.1794C18.8669 60.3408 18.7584 60.4796 18.6039 60.5958C18.465 60.7086 18.3018 60.7857 18.1144 60.8273ZM10.3069 62.535C9.9008 62.6251 9.58239 62.4826 9.35171 62.1077C9.11755 61.7172 8.94508 61.1244 8.83428 60.3296C8.73564 59.5156 8.67089 58.522 8.64005 57.3489C8.62981 56.8595 8.62998 56.3432 8.64058 55.8C8.6668 55.2533 8.69302 54.7067 8.71923 54.16C8.74198 53.5978 8.74477 53.0563 8.72759 52.5357C8.73111 52.4038 8.72682 52.2736 8.71471 52.1452C8.71476 51.9977 8.707 51.8519 8.69143 51.7078C8.6846 51.3816 8.71333 51.1048 8.77762 50.8775C8.84191 50.6501 8.93221 50.4662 9.04853 50.3257C9.17701 50.1661 9.31935 50.0689 9.47555 50.0343C9.83482 49.9546 10.1524 50.0562 10.4282 50.3392C10.7162 50.603 10.8618 51.0378 10.8651 51.6435C10.8736 52.0513 10.8561 52.5633 10.8125 53.1793C10.7811 53.7763 10.7453 54.3907 10.7052 55.0223C10.665 55.654 10.6484 56.2068 10.6551 56.6805C10.6948 57.524 10.7466 58.2746 10.8106 58.9323C10.8902 59.5866 10.9689 60.1264 11.0469 60.5516C11.1214 60.9612 11.1525 61.2493 11.1403 61.4159C11.1507 61.6102 11.1168 61.7899 11.0386 61.9547C10.9726 62.1004 10.8763 62.2202 10.7495 62.3138C10.6419 62.4197 10.4944 62.4934 10.3069 62.535ZM24.232 59.4455C23.5135 59.6049 22.8896 59.563 22.3604 59.3199C21.8468 59.0733 21.4365 58.6644 21.1295 58.0934C20.8381 57.5188 20.6822 56.8159 20.6616 55.9846C20.6359 55.2037 20.7273 54.3967 20.9358 53.5638C21.1565 52.7118 21.4735 51.8875 21.8868 51.0911C22.2966 50.279 22.7802 49.5408 23.3375 48.8763C23.907 48.1927 24.5336 47.6194 25.2176 47.1562C25.9171 46.6896 26.6496 46.3714 27.415 46.2016C27.7742 46.1219 28.0762 46.1533 28.3208 46.2956C28.5655 46.438 28.6903 46.7053 28.6954 47.0975C28.7058 47.2919 28.6562 47.475 28.5469 47.6468C28.434 47.8029 28.2483 47.9261 27.9896 48.0162C26.9309 48.415 26.0022 49.0308 25.2036 49.8635C24.4207 50.6928 23.8155 51.6219 23.3883 52.6509C22.9732 53.6608 22.7715 54.6725 22.7833 55.686C22.7901 56.1598 22.8351 56.5841 22.9182 56.959C22.998 57.3182 23.18 57.7695 23.4645 58.3128L22.2154 56.8937C22.5763 57.1905 22.8782 57.3694 23.1211 57.4302C23.3797 57.4876 23.7198 57.4695 24.1416 57.3759C25.1413 57.1541 26.0145 56.2884 26.7613 54.7788C27.508 53.2693 28.0467 51.1912 28.3773 48.5448C28.4208 48.2238 28.519 47.9643 28.6718 47.7666C28.8367 47.5497 29.0519 47.4118 29.3175 47.3529C29.6768 47.2732 29.9848 47.3687 30.2415 47.6395C30.5104 47.8913 30.6812 48.2549 30.754 48.7304C30.9098 49.7284 31.0761 50.6256 31.2529 51.4223C31.4418 52.1998 31.6906 52.9149 31.9992 53.5675C32.3235 54.2167 32.778 54.8616 33.3626 55.5022C33.491 55.6376 33.5699 55.8085 33.5994 56.0151C33.6444 56.2181 33.6331 56.4255 33.5653 56.6372C33.5132 56.8454 33.4151 57.0311 33.271 57.1942C33.139 57.3382 32.9637 57.4344 32.745 57.483C32.5107 57.5349 32.3129 57.5297 32.1515 57.4671C32.0057 57.4011 31.8669 57.2926 31.7351 57.1416C31.4263 56.784 31.1358 56.3978 30.8634 55.9829C30.5911 55.568 30.3362 55.0838 30.0986 54.5301C29.8732 53.9573 29.6799 53.2709 29.5188 52.4708C29.3577 51.6707 29.2261 50.7083 29.1241 49.5837L29.9624 49.3731C29.7935 51.0495 29.5162 52.4959 29.1305 53.7123C28.7414 54.9131 28.2759 55.9178 27.7342 56.7263C27.2046 57.5158 26.6369 58.1334 26.0311 58.5792C25.4253 59.025 24.8256 59.3138 24.232 59.4455ZM50.3199 53.5837C49.8982 53.6773 49.3672 53.5738 48.7269 53.2734C48.0866 52.9729 47.3735 52.5657 46.5875 52.0518C45.7824 51.5256 45.0936 51.0065 44.5211 50.4944C43.9642 49.9787 43.5045 49.5317 43.1419 49.1533C43.0968 49.0977 43.0499 49.0344 43.0014 48.9632C42.965 48.8729 42.952 48.7775 42.9624 48.6768C42.9416 48.5831 42.9538 48.4903 42.999 48.3983C43.0563 48.2872 43.117 48.1918 43.1813 48.112C43.6378 47.7321 44.1257 47.2715 44.6447 46.7302C45.176 46.1699 45.682 45.6069 46.163 45.0413C46.6439 44.4757 47.0649 43.9726 47.426 43.5319C47.8722 42.9576 48.2724 42.4345 48.6266 41.9626C48.9808 41.4907 49.275 41.2287 49.5093 41.1767C49.6968 41.1351 49.8556 41.1491 49.9857 41.2185C50.128 41.2689 50.246 41.3575 50.3396 41.4842C50.4298 41.5953 50.4827 41.7228 50.4983 41.8669C50.5381 42.1203 50.44 42.4535 50.2038 42.8664C49.9833 43.2759 49.682 43.7279 49.3 44.2224C48.9302 44.6977 48.5413 45.161 48.1334 45.612C47.8573 45.9191 47.5518 46.241 47.2167 46.5775C46.8973 46.9106 46.59 47.2246 46.2949 47.5195C46.0154 47.811 45.7836 48.0591 45.5996 48.2638C45.4121 48.4529 45.3218 48.5631 45.3287 48.5943C45.3426 48.6568 45.4632 48.7939 45.6904 49.0057C45.9142 49.2019 46.23 49.4433 46.6377 49.7297C47.0576 49.9972 47.5296 50.2776 48.0536 50.5711C48.6348 50.901 49.1476 51.1806 49.5918 51.4098C50.0481 51.6199 50.4099 51.8101 50.6771 51.9803C50.9408 52.1348 51.0839 52.2997 51.1064 52.475C51.1428 52.7128 51.0959 52.9444 50.9656 53.17C50.8319 53.3799 50.6167 53.5178 50.3199 53.5837ZM35.5172 56.8925C35.361 56.9271 35.2256 56.908 35.1111 56.8351C34.9844 56.7812 34.8821 56.6892 34.804 56.559C34.7104 56.4323 34.6557 56.2969 34.6402 56.1529C34.5899 55.8526 34.7315 55.4197 35.0649 54.8541C35.3983 54.2884 35.8498 53.6638 36.4192 52.9802C37.0008 52.2776 37.6345 51.588 38.3202 50.9114C38.7508 50.4881 39.1092 50.1463 39.3957 49.8861C39.6977 49.6224 39.946 49.4116 40.1404 49.2538C40.3348 49.0959 40.4815 48.9814 40.5804 48.9103L41.1346 49.7461C40.9837 49.7304 40.6427 49.634 40.1117 49.4568C39.5772 49.264 38.8875 48.9253 38.0425 48.4409C37.5879 48.1648 37.1464 47.8366 36.7178 47.4564C36.2893 47.0762 35.925 46.69 35.6249 46.2976C35.3404 45.9019 35.1748 45.5617 35.1281 45.277C35.109 45.1174 35.1169 44.9681 35.1516 44.8293C35.1985 44.6714 35.2758 44.5395 35.3834 44.4337C35.5067 44.3244 35.6542 44.2507 35.8261 44.2126C36.076 44.1571 36.3562 44.2752 36.6668 44.5669C36.9773 44.8585 37.346 45.2275 37.7727 45.6736C38.1995 46.1198 38.7122 46.5469 39.3108 46.9549C39.9632 47.3838 40.5349 47.7076 41.0259 47.9265C41.517 48.1453 41.9282 48.2999 42.2597 48.3902L42.2176 49.7517C41.7575 50.116 41.2966 50.5132 40.8349 50.9435C40.3852 51.3546 39.9183 51.8352 39.4339 52.3851C38.7499 53.1433 38.1544 53.8572 37.6474 54.5269C37.156 55.1932 36.7298 55.7466 36.3687 56.1873C36.0197 56.6089 35.7359 56.844 35.5172 56.8925ZM42.9003 55.3774C42.6347 55.4363 42.4074 55.372 42.2183 55.1845C42.0414 54.9779 41.9026 54.7219 41.8021 54.4164C41.7137 54.0919 41.6643 53.7586 41.654 53.4167C41.6317 52.7989 41.638 52.1256 41.6729 51.3967C41.72 50.6487 41.7299 49.7697 41.7025 48.7597C41.6888 48.1072 41.696 47.4008 41.724 46.6407C41.7677 45.8771 41.8365 45.1162 41.9304 44.3578C41.9583 44.0402 42.0608 43.6897 42.238 43.3062C42.4116 42.9072 42.6703 42.6695 43.014 42.5932C43.2951 42.5309 43.5207 42.5873 43.6907 42.7627C43.8607 42.938 43.9587 43.1949 43.9846 43.5333C43.981 43.8127 43.941 44.2231 43.8645 44.7646C43.8001 45.2869 43.7252 45.9099 43.6399 46.6336C43.5703 47.3538 43.5431 48.1547 43.5584 49.0363C43.5653 49.215 43.5765 49.5239 43.592 49.963C43.6196 50.383 43.6402 50.8455 43.654 51.3505C43.6833 51.8521 43.7074 52.3302 43.7264 52.7849C43.7609 53.2361 43.7808 53.5841 43.7859 53.8288C43.784 54.1897 43.7188 54.5238 43.5903 54.8309C43.4583 55.1224 43.2283 55.3046 42.9003 55.3774ZM53.6554 51.5407C53.7545 51.0271 53.8961 50.4466 54.0803 49.7994C54.261 49.1365 54.46 48.445 54.6771 47.7248C54.9099 47.0012 55.1462 46.2932 55.3859 45.6009C55.6378 44.8894 55.8801 44.2457 56.1129 43.6696C56.4238 42.9287 56.7433 42.2268 57.0715 41.5639C57.3998 40.9011 57.7288 40.3528 58.0587 39.9191C58.4007 39.4662 58.7201 39.2069 59.0169 39.1411C59.3293 39.0718 59.6321 39.1439 59.9254 39.3574C60.2342 39.5675 60.5499 39.9564 60.8725 40.524C61.0945 40.9336 61.3503 41.4587 61.6399 42.0992C61.9295 42.7396 62.2252 43.4443 62.5269 44.2132C62.8251 44.9665 63.1017 45.7328 63.3565 46.5121C63.6113 47.2914 63.8211 48.0152 63.9857 48.6834L61.9655 49.3283C61.7835 48.5819 61.5486 47.7818 61.2608 46.9279C60.9852 46.0549 60.6852 45.22 60.361 44.4233C60.0367 43.6267 59.7289 42.9411 59.4375 42.3665C59.1427 41.7764 58.8851 41.391 58.6648 41.2105L59.537 40.8203C59.155 41.4623 58.7625 42.2049 58.3596 43.0482C57.9723 43.888 57.6284 44.7756 57.3278 45.7109C57.1037 46.3998 56.8961 47.0522 56.705 47.6682C56.5139 48.2843 56.3428 48.8795 56.1916 49.4538C56.0526 50.0091 55.917 50.5801 55.7849 51.1666L53.6554 51.5407ZM64.7936 53.765C64.4812 53.8343 64.2148 53.7787 63.9945 53.5981C63.7741 53.4176 63.6657 53.1876 63.6693 52.9082C63.659 52.7138 63.6981 52.4101 63.7868 51.9971C63.8789 51.5997 63.9667 51.1459 64.0501 50.6357C64.1336 50.1256 64.1668 49.6101 64.1496 49.0895L65.2582 50.0973C65.0326 50.1146 64.682 50.1596 64.2065 50.2323C63.7466 50.3016 63.1651 50.4142 62.4622 50.5701C61.8062 50.7157 61.1284 50.8742 60.429 51.0458C59.7417 51.1983 59.0562 51.3586 58.3723 51.5267C57.7041 51.6913 57.055 51.8681 56.425 52.0571C55.7915 52.2304 55.1832 52.4064 54.6 52.5849C54.0203 52.7791 53.497 52.9689 53.0301 53.1545L53.7619 52.1317C53.7757 52.3417 53.8 52.5985 53.8346 52.9022C53.8692 53.206 53.9116 53.5079 53.9618 53.8082C54.0155 54.1241 54.0605 54.4009 54.0969 54.6386C54.1489 54.8729 54.1853 55.037 54.2061 55.1307C54.2493 55.3997 54.2007 55.6235 54.06 55.8022C53.9229 55.9966 53.7215 56.1232 53.456 56.1821C53.0811 56.2653 52.7904 56.1741 52.584 55.9085C52.3776 55.6429 52.2293 55.307 52.1392 54.9009C52.0681 54.6544 52.0049 54.3325 51.9495 53.9351C51.8941 53.5376 51.8656 53.2244 51.8639 52.9953C51.871 52.7315 51.9162 52.492 51.9995 52.2769C52.0638 52.0495 52.1897 51.8413 52.3772 51.6522C52.5647 51.4631 52.8233 51.2992 53.1531 51.1605C53.5298 51.0114 54.0409 50.8406 54.6866 50.6482C55.3444 50.4367 56.0837 50.2235 56.9047 50.0086C57.7378 49.7746 58.5978 49.551 59.4846 49.3378C60.3681 49.109 61.2159 48.9045 62.0281 48.7243C62.2937 48.6654 62.5748 48.603 62.8716 48.5372C63.184 48.4679 63.506 48.4047 63.8375 48.3475C64.169 48.2903 64.4883 48.2523 64.7955 48.2333C65.2589 48.1796 65.5946 48.2526 65.8028 48.4523C66.0266 48.6485 66.1471 49.0069 66.1643 49.5275C66.1728 49.9354 66.1475 50.3753 66.0884 50.8473C66.0292 51.3193 65.9319 51.767 65.7963 52.1904C65.6799 52.626 65.5306 52.9869 65.3482 53.2732C65.1815 53.556 64.9967 53.72 64.7936 53.765ZM73.3425 48.5987C72.0617 48.8829 70.9449 48.8356 69.9923 48.457C69.0553 48.0748 68.3249 47.442 67.8011 46.5585C67.2894 45.6559 67.0139 44.5616 66.9744 43.2756C66.9521 42.3628 67.0791 41.5316 67.3553 40.7819C67.6436 40.0132 68.0031 39.3435 68.4337 38.7727C68.8799 38.1984 69.3521 37.7412 69.8503 37.4013C70.345 37.0457 70.7876 36.8246 71.1781 36.7379C71.3499 36.6998 71.4957 36.692 71.6154 36.7146C71.7508 36.7338 71.8619 36.7911 71.9486 36.8866C72.0475 36.963 72.1004 37.0905 72.1073 37.2693C72.0985 37.599 72.0376 37.9157 71.9247 38.2194C71.8083 38.5074 71.5384 38.805 71.1148 39.112C70.6114 39.5023 70.2008 39.9048 69.8831 40.3194C69.5775 40.715 69.3544 41.1497 69.2137 41.6234C69.0695 42.0815 69.0146 42.6099 69.0491 43.2087C69.0799 44.5293 69.4536 45.5117 70.1701 46.1558C70.8831 46.7843 71.802 46.9738 72.9266 46.7243C74.0201 46.4817 74.8862 45.8798 75.5252 44.9185C76.1763 43.9382 76.4813 42.7643 76.4401 41.3968C76.4232 40.1386 76.1372 39.2187 75.582 38.6371C75.0234 38.0399 74.2755 37.8453 73.3383 38.0532C72.8541 38.1607 72.4609 38.3462 72.1589 38.6099C71.8724 38.8701 71.5686 39.1998 71.2474 39.5988C71.0182 39.8955 70.8385 40.1566 70.7083 40.3822C70.5781 40.6078 70.4548 40.7908 70.3385 40.9313C70.2343 41.0528 70.0807 41.136 69.8776 41.1811C69.6589 41.2296 69.4715 41.1974 69.3154 41.0846C69.1714 40.9526 69.0942 40.7157 69.0839 40.3738C69.0667 40.0007 69.1649 39.5938 69.3785 39.153C69.6077 38.7088 69.9064 38.282 70.2744 37.8726C70.6546 37.4441 71.0817 37.0789 71.5556 36.7771C72.026 36.4597 72.5111 36.2455 73.0109 36.1346C74.1356 35.8851 75.1083 35.9479 75.929 36.323C76.7463 36.6825 77.3821 37.2954 77.8365 38.1615C78.2874 39.012 78.5196 40.0586 78.5331 41.3012C78.5743 42.5212 78.3813 43.6457 77.9541 44.6747C77.5233 45.688 76.9087 46.5373 76.1101 47.2225C75.3272 47.9043 74.4047 48.363 73.3425 48.5987ZM82.9313 46.4467C82.5564 46.5298 82.2267 46.3735 81.9422 45.9778C81.6578 45.582 81.5044 44.9277 81.4821 44.0148C81.4667 43.5758 81.473 42.9024 81.501 41.9948C81.5257 41.0715 81.6536 40.0598 81.8847 38.9596C82.1524 37.6546 82.4209 36.6117 82.6902 35.8309C82.956 35.0344 83.2573 34.4349 83.5941 34.0324C83.9309 33.6299 84.3102 33.3819 84.7319 33.2883C85.06 33.2155 85.3393 33.2928 85.5701 33.5202C85.8164 33.7442 86.0202 34.035 86.1815 34.3925C86.3428 34.7501 86.4884 35.1111 86.6185 35.4756C86.7919 35.9616 86.993 36.4988 87.2219 37.0871C87.4664 37.6721 87.7204 38.2631 87.984 38.8602C88.2632 39.4538 88.5511 40.0127 88.8477 40.5369C89.1599 41.0576 89.4765 41.4873 89.7974 41.8258L88.9955 42.2004C89.2509 41.2095 89.5376 40.2117 89.8556 39.207C90.1735 38.2023 90.5001 37.2366 90.8353 36.31C91.1706 35.3834 91.4937 34.5496 91.8046 33.8087C92.1554 33.0261 92.4714 32.4562 92.7527 32.0988C93.0496 31.7379 93.3386 31.5263 93.6198 31.4639C93.8228 31.4188 94.0207 31.4241 94.2133 31.4797C94.4024 31.5197 94.5716 31.5805 94.7208 31.6621C94.9308 31.7958 95.1103 31.9772 95.2595 32.2063C95.4087 32.4355 95.5075 32.8069 95.5559 33.3206C95.6648 34.4764 95.7964 35.5125 95.9505 36.4289C96.1168 37.3262 96.2753 38.0777 96.4261 38.6834C96.6809 39.7577 96.9496 40.5995 97.2322 41.2088C97.5305 41.8145 97.677 42.2163 97.6718 42.4142C97.6856 42.6242 97.6126 42.8124 97.4529 42.979C97.3123 43.1577 97.117 43.2748 96.8671 43.3302C96.4922 43.4134 96.1399 43.3031 95.8103 42.9992C95.4963 42.692 95.2405 42.2407 95.0428 41.6453C94.8556 41.0969 94.651 40.3966 94.4292 39.5444C94.223 38.6887 94.0333 37.7229 93.8601 36.6469C93.6991 35.5517 93.578 34.415 93.4968 33.2366L94.1399 32.9218C93.8863 33.5517 93.6032 34.2701 93.2905 35.077C92.99 35.8647 92.6808 36.6872 92.363 37.5444C92.0607 38.3982 91.7723 39.2406 91.4979 40.0718C91.239 40.8995 91.0183 41.6778 90.8359 42.4066C90.7299 42.7415 90.5788 43.0209 90.3826 43.2447C90.2021 43.465 89.9634 43.6081 89.6666 43.674C89.2917 43.7572 88.9603 43.7406 88.6722 43.6242C88.3963 43.4887 88.1378 43.2839 87.8967 43.0096C87.6677 42.7162 87.4474 42.3881 87.2358 42.0254C87.1248 41.8205 86.9713 41.535 86.7753 41.1688C86.5759 40.7869 86.3661 40.3582 86.1458 39.8826C85.9256 39.407 85.7062 38.8984 85.4877 38.3569C85.2692 37.8154 85.0681 37.2782 84.8843 36.7453C84.6971 36.1969 84.5498 35.6805 84.4423 35.1963L85.1036 34.8529C84.7424 35.7361 84.4401 36.5899 84.1969 37.4141C83.9693 38.2349 83.8015 39.067 83.6936 39.9104C83.5979 40.7347 83.5551 41.6128 83.5652 42.5447C83.5754 43.1817 83.5995 43.7335 83.6375 44.2004C83.6911 44.6638 83.7205 45.0178 83.7256 45.2625C83.7221 45.5419 83.663 45.7927 83.5484 46.0148C83.4338 46.2369 83.2281 46.3808 82.9313 46.4467ZM105.325 47.6243C104.372 47.8357 103.546 47.9204 102.849 47.8785C102.155 47.8523 101.625 47.7159 101.258 47.4693C100.892 47.2228 100.708 46.9112 100.707 46.5346C100.698 46.2743 100.755 46.0487 100.876 45.8578C101.017 45.6791 101.236 45.5568 101.532 45.491C101.72 45.4494 101.9 45.4503 102.074 45.4938C102.247 45.5372 102.446 45.5833 102.67 45.632C102.897 45.6962 103.199 45.7276 103.576 45.726C103.968 45.7209 104.469 45.6508 105.078 45.5156C105.828 45.3493 106.416 45.0466 106.843 44.6077C107.27 44.1688 107.566 43.6196 107.731 42.9602C107.912 42.2973 107.994 41.5581 107.977 40.7424C107.97 40.2686 107.934 39.8096 107.868 39.3653C107.818 38.9175 107.761 38.4385 107.697 37.9283C107.633 37.4181 107.567 36.8262 107.499 36.1529C107.429 35.4639 107.378 34.6473 107.349 33.7032L108.226 34.2216C107.966 35.4103 107.662 36.4037 107.314 37.2019C106.963 37.9844 106.595 38.6152 106.21 39.094C105.821 39.5572 105.431 39.9059 105.041 40.1401C104.662 40.3551 104.309 40.4991 103.981 40.5718C102.622 40.8734 101.552 40.5207 100.772 39.5139C99.9876 38.4914 99.5683 36.6751 99.5136 34.065C99.4845 32.9734 99.5126 32.1395 99.5978 31.5634C99.6986 30.9838 99.8454 30.5743 100.038 30.3349C100.231 30.0954 100.452 29.948 100.702 29.8925C100.936 29.8406 101.138 29.8615 101.306 29.9552C101.471 30.0334 101.583 30.2052 101.642 30.4708C101.716 30.7328 101.741 31.1042 101.717 31.5849C101.685 32.6245 101.694 33.5894 101.744 34.4797C101.791 35.3544 101.893 36.1102 102.051 36.7471C102.209 37.3841 102.421 37.8614 102.688 38.1791C102.952 38.4812 103.295 38.5854 103.716 38.4918C104.372 38.3463 104.938 37.8684 105.414 37.0581C105.886 36.2321 106.268 35.1806 106.558 33.9034C106.86 32.6071 107.077 31.1824 107.208 29.6292C107.251 29.1607 107.328 28.8405 107.437 28.6687C107.543 28.4814 107.744 28.3547 108.041 28.2889C108.26 28.2404 108.47 28.2673 108.674 28.3698C108.892 28.4688 109.057 28.6945 109.168 29.0468C109.291 29.38 109.325 29.8642 109.269 30.4994C109.211 31.348 109.189 32.0986 109.203 32.7511C109.232 33.4002 109.288 34.0189 109.369 34.6072C109.447 35.1799 109.536 35.7666 109.637 36.3671C109.749 36.9485 109.844 37.5993 109.922 38.3195C109.997 39.0241 110.048 39.8485 110.078 40.7926C110.107 41.8842 110.004 42.8248 109.769 43.6143C109.538 44.4195 109.212 45.0901 108.79 45.6262C108.368 46.1623 107.856 46.5873 107.254 46.9013C106.67 47.2273 106.027 47.4683 105.325 47.6243Z" fill="#7831B2"/>
</svg>
