<svg width="324" height="352" viewBox="0 0 324 352" fill="none" xmlns="http://www.w3.org/2000/svg">
<path d="M142.305 322.607C143.137 323.333 144.401 323.247 145.126 322.414C145.852 321.582 145.766 320.318 144.933 319.592L142.305 322.607ZM53.8608 5.46538L52.5852 3.92496L52.5674 3.93971L52.55 3.95488L53.8608 5.46538ZM182.459 100.747L183.138 98.866L182.459 100.747ZM286.06 70.5781L288.038 70.8754L288.076 70.6215L288.049 70.3662L286.06 70.5781ZM304.384 59.6594L305.609 58.0782L304.384 59.6594ZM352.997 96.7898L351.016 96.5143L352.997 96.7898ZM319.646 119.088L318.237 120.508L318.936 121.201L319.911 121.071L319.646 119.088ZM141.453 322.445C142.331 323.114 143.586 322.945 144.256 322.066C144.925 321.188 144.756 319.933 143.877 319.263L141.453 322.445ZM51.1763 8.46042L49.9007 6.91999L49.8829 6.93475L49.8654 6.94991L51.1763 8.46042ZM179.775 103.742L180.454 101.861L179.775 103.742ZM289.586 69.3861L291.564 69.6834L291.602 69.4296L291.575 69.1743L289.586 69.3861ZM307.91 58.4674L309.135 56.8863L307.91 58.4674ZM356.523 95.5978L354.543 95.3223L356.523 95.5978ZM323.173 117.896L321.764 119.316L322.462 120.009L323.437 119.879L323.173 117.896ZM144.933 319.592C103.754 283.686 50.894 231.636 23.5987 175.415C9.96435 147.332 2.77683 118.345 6.48849 89.8832C10.1942 61.4666 24.7942 33.3383 55.1717 6.97589L52.55 3.95488C21.545 30.8619 6.37239 59.8406 2.52207 89.3659C-1.32231 118.846 6.15071 148.636 20.0003 177.162C47.6729 234.16 101.074 286.656 142.305 322.607L144.933 319.592ZM55.1364 7.00581C85.1792 -17.8716 117.962 -17.4022 143.903 -3.30099C169.955 10.8605 189.089 38.7697 191.508 68.7282L195.495 68.4064C192.962 37.0291 172.987 7.95592 145.813 -6.81534C118.528 -21.6469 83.9662 -22.0605 52.5852 3.92496L55.1364 7.00581ZM191.714 69.4662C198.915 83.7756 197.828 91.6269 194.978 95.4825C192.077 99.4074 186.679 100.144 183.138 98.866L181.78 102.628C186.584 104.362 194.01 103.522 198.194 97.8602C202.431 92.1293 202.692 82.3847 195.288 67.6683L191.714 69.4662ZM183.138 98.866C181.008 98.097 179.614 97.1095 178.724 96.0595C177.844 95.0214 177.371 93.8249 177.229 92.4804C176.934 89.7009 178.058 86.2631 180.139 82.7623C182.19 79.3104 185.012 76.0684 187.685 73.7627C189.022 72.6096 190.274 71.7324 191.325 71.1801C192.457 70.5859 193.061 70.5252 193.224 70.548L193.778 66.5866C192.331 66.3842 190.786 66.9453 189.466 67.6386C188.066 68.3738 186.561 69.4496 185.073 70.7338C182.094 73.3029 178.986 76.8726 176.7 80.7187C174.443 84.5158 172.823 88.862 173.251 92.9018C173.47 94.9669 174.225 96.9387 175.673 98.6465C177.111 100.342 179.147 101.678 181.78 102.628L183.138 98.866ZM194.856 70.0385C243.603 25.1476 305.878 18.1351 345.223 42.198C364.853 54.2042 378.916 74.0034 382.871 100.998C386.834 128.04 380.667 162.446 359.491 203.545L363.047 205.377C384.475 163.789 390.948 128.529 386.829 100.418C382.703 72.2588 367.962 51.4169 347.31 38.7856C306.087 13.5737 241.875 21.3013 192.146 67.0961L194.856 70.0385ZM359.491 203.545C317.113 285.795 264.207 321.292 222.056 336.297C200.955 343.808 182.5 346.201 169.339 346.719C162.758 346.978 157.504 346.768 153.907 346.496C152.108 346.36 150.725 346.208 149.798 346.091C149.335 346.033 148.985 345.983 148.755 345.949C148.64 345.932 148.555 345.919 148.501 345.91C148.473 345.906 148.454 345.902 148.442 345.9C148.436 345.899 148.432 345.899 148.429 345.898C148.428 345.898 148.428 345.898 148.428 345.898C148.428 345.898 148.429 345.898 148.091 347.869C147.752 349.84 147.754 349.841 147.756 349.841C147.758 349.841 147.76 349.842 147.763 349.842C147.769 349.843 147.777 349.845 147.786 349.846C147.805 349.849 147.832 349.854 147.867 349.859C147.936 349.87 148.035 349.886 148.165 349.905C148.425 349.944 148.804 349.998 149.299 350.06C150.288 350.184 151.737 350.343 153.605 350.484C157.339 350.767 162.748 350.982 169.496 350.716C182.991 350.185 201.855 347.734 223.398 340.065C266.534 324.709 320.217 288.502 363.047 205.377L359.491 203.545ZM288.049 70.3662C287.819 68.2095 287.787 65.7319 288.104 63.4479C288.428 61.124 289.083 59.2215 290.049 58.0089C290.915 56.923 292.09 56.293 293.981 56.5164C296.042 56.76 299.026 58.0389 303.159 61.2406L305.609 58.0782C301.246 54.6994 297.57 52.9126 294.45 52.544C291.161 52.1554 288.634 53.367 286.922 55.5154C285.31 57.5372 284.509 60.2619 284.143 62.8969C283.771 65.5719 283.815 68.385 284.071 70.79L288.049 70.3662ZM303.159 61.2406C313.981 69.6222 327.165 74.5471 336.703 79.3607C341.579 81.8217 345.46 84.2177 347.977 86.9784C350.403 89.6382 351.558 92.6228 351.016 96.5143L354.978 97.0653C355.701 91.8654 354.067 87.7194 350.933 84.2831C347.891 80.9476 343.443 78.2821 338.505 75.7897C328.413 70.6966 316.027 66.1477 305.609 58.0782L303.159 61.2406ZM351.016 96.5143C350.139 102.825 345.085 107.63 338.483 111.11C331.94 114.559 324.348 116.443 319.382 117.106L319.911 121.071C325.219 120.362 333.29 118.369 340.349 114.649C347.348 110.959 353.833 105.301 354.978 97.0653L351.016 96.5143ZM321.055 117.669C315.171 111.828 306.444 102.411 299.402 93.1688C295.878 88.5435 292.818 84.0153 290.744 80.035C288.613 75.9426 287.744 72.8314 288.038 70.8754L284.082 70.2808C283.582 73.6062 285.033 77.7283 287.197 81.883C289.419 86.1497 292.631 90.8822 296.22 95.593C303.405 105.023 312.265 114.579 318.237 120.508L321.055 117.669ZM143.877 319.263C105.048 289.675 51.7539 238.434 23.4662 181.462C9.33233 152.996 1.50705 123.233 4.71462 94.0902C7.91627 65.0013 22.1326 36.3135 52.4871 9.97093L49.8654 6.94991C18.8375 33.8768 4.06245 63.4537 0.738632 93.6526C-2.57926 123.798 5.53594 154.345 19.8835 183.241C48.5586 240.993 102.391 292.679 141.453 322.445L143.877 319.263ZM52.4518 10.0008C82.4947 -14.8766 115.277 -14.4072 141.218 -0.305971C167.271 13.8555 186.405 41.7648 188.823 71.7232L192.81 71.4014C190.277 40.0241 170.303 10.9509 143.129 -3.82032C115.844 -18.6518 81.2816 -19.0655 49.9007 6.91999L52.4518 10.0008ZM189.03 72.4613C196.23 86.7707 195.143 94.6219 192.293 98.4775C189.392 102.402 183.994 103.139 180.454 101.861L179.096 105.623C183.9 107.357 191.325 106.517 195.51 100.855C199.746 95.1243 200.008 85.3797 192.603 70.6633L189.03 72.4613ZM180.454 101.861C178.323 101.092 176.93 100.105 176.04 99.0545C175.159 98.0164 174.687 96.8199 174.544 95.4754C174.25 92.6959 175.373 89.2581 177.454 85.7573C179.505 82.3054 182.327 79.0634 185.001 76.7577C186.337 75.6046 187.589 74.7274 188.641 74.1751C189.773 73.5809 190.377 73.5202 190.539 73.543L191.093 69.5816C189.646 69.3792 188.102 69.9404 186.781 70.6336C185.381 71.3688 183.877 72.4446 182.388 73.7288C179.41 76.2979 176.301 79.8676 174.015 83.7137C171.759 87.5108 170.139 91.857 170.567 95.8968C170.785 97.9619 171.541 99.9337 172.989 101.641C174.427 103.337 176.463 104.673 179.096 105.623L180.454 101.861ZM192.171 73.0335C240.933 28.1286 302.203 20.9005 341.029 44.8283C360.407 56.7704 374.356 76.5412 378.498 103.599C382.647 130.702 376.968 165.238 356.787 206.579L360.382 208.334C380.8 166.506 386.76 131.135 382.452 102.994C378.137 74.8082 363.533 53.998 343.128 41.423C302.389 16.3168 239.175 24.3104 189.462 70.0911L192.171 73.0335ZM356.787 206.579C316.414 289.283 263.976 324.205 221.8 338.533C200.681 345.707 182.081 347.737 168.775 347.975C162.123 348.094 156.798 347.766 153.148 347.409C151.323 347.231 149.918 347.047 148.975 346.907C148.504 346.838 148.148 346.78 147.914 346.74C147.797 346.72 147.71 346.704 147.654 346.694C147.627 346.689 147.606 346.685 147.594 346.683C147.588 346.682 147.584 346.681 147.582 346.681C147.58 346.68 147.58 346.68 147.58 346.68C147.58 346.68 147.581 346.681 147.201 348.644C146.822 350.608 146.824 350.608 146.826 350.609C146.828 350.609 146.83 350.609 146.833 350.61C146.839 350.611 146.847 350.613 146.856 350.614C146.875 350.618 146.903 350.623 146.938 350.629C147.008 350.642 147.109 350.66 147.24 350.683C147.504 350.728 147.889 350.791 148.391 350.865C149.395 351.013 150.866 351.206 152.76 351.391C156.546 351.76 162.026 352.097 168.847 351.974C182.488 351.73 201.509 349.651 223.086 342.321C266.302 327.639 319.555 291.967 360.382 208.334L356.787 206.579ZM291.575 69.1743C291.345 67.0176 291.313 64.54 291.631 62.256C291.954 59.932 292.609 58.0295 293.576 56.817C294.441 55.731 295.616 55.101 297.507 55.3245C299.569 55.568 302.552 56.8469 306.685 60.0486L309.135 56.8863C304.772 53.5075 301.096 51.7206 297.977 51.3521C294.687 50.9634 292.161 52.175 290.448 54.3235C288.836 56.3453 288.035 59.0699 287.669 61.705C287.297 64.3799 287.341 67.1931 287.597 69.598L291.575 69.1743ZM306.685 60.0486C317.507 68.4303 330.691 73.3551 340.229 78.1687C345.105 80.6297 348.986 83.0258 351.504 85.7864C353.929 88.4462 355.084 91.4308 354.543 95.3223L358.504 95.8733C359.228 90.6734 357.593 86.5274 354.459 83.0911C351.417 79.7556 346.969 77.0901 342.031 74.5977C331.94 69.5046 319.553 64.9557 309.135 56.8863L306.685 60.0486ZM354.543 95.3223C353.665 101.633 348.612 106.438 342.01 109.918C335.467 113.367 327.874 115.251 322.908 115.914L323.437 119.879C328.745 119.17 336.817 117.177 343.875 113.457C350.874 109.767 357.359 104.109 358.504 95.8733L354.543 95.3223ZM324.581 116.477C318.697 110.636 309.97 101.219 302.928 91.9769C299.405 87.3516 296.344 82.8233 294.271 78.8431C292.139 74.7507 291.27 71.6394 291.564 69.6834L287.608 69.0888C287.108 72.4143 288.559 76.5364 290.723 80.691C292.946 84.9578 296.158 89.6902 299.747 94.401C306.931 103.831 315.791 113.387 321.764 119.316L324.581 116.477Z" fill="#7831B2"/>
</svg>
