<svg width="208" height="150" viewBox="0 0 208 150" fill="none" xmlns="http://www.w3.org/2000/svg">
<mask id="path-1-inside-1_431_8862" fill="white">
<path fill-rule="evenodd" clip-rule="evenodd" d="M1.98769 91.1958C13.8322 86.9063 26.9848 85.2776 39.5619 84.9172C41.1735 84.8503 41.6833 86.9624 40.7086 87.9564C41.0876 90.1442 41.4683 92.3316 41.849 94.5189L41.8507 94.5287C44.5241 109.888 47.1956 125.237 49.2499 140.611C49.3545 141.172 49.1019 141.684 48.6953 141.991C48.933 142.644 48.631 143.513 47.6428 143.813L47.5307 143.834C47.4321 144.549 46.8431 145.123 46.0866 144.799C45.964 144.763 45.8362 144.7 45.7084 144.636C45.5806 144.573 45.4527 144.51 45.3302 144.474C41.2829 145.475 37.0672 146.21 32.9011 146.936C31.2457 147.224 29.5982 147.511 27.9722 147.813C26.8032 148.03 25.5755 148.317 24.3161 148.611C20.2608 149.557 15.877 150.581 12.0659 149.604C11.3019 149.862 10.5664 149.651 10.378 148.64C7.52695 130.238 4.6056 112.081 0.0726789 93.9904C-0.227819 93.0009 0.45238 92.2939 1.2163 92.0359C1.37775 91.6575 1.56013 91.3913 1.98769 91.1958ZM38.2868 93.6326C37.9729 91.9487 37.6798 90.377 37.4989 88.7846C34.8783 89.0388 32.2576 89.293 29.6579 89.6595L27.0372 89.9137C26.0177 90.0449 24.9753 90.2094 23.9329 90.3739C22.8906 90.5383 21.8482 90.7028 20.8287 90.834L18.5862 91.2503L18.2766 91.2926C16.0135 91.6019 13.8449 91.8982 11.5928 92.3163L9.1964 92.5289C8.24337 92.7058 7.31313 92.8495 6.38289 92.9931C5.45265 93.1368 4.52242 93.2805 3.56938 93.4574C3.76523 93.8856 3.82802 94.2224 3.89081 94.5592L4.33782 96.3345L5.86724 102.671L6.16027 104.243C6.67007 106.355 7.20081 108.579 7.59849 110.712L7.89152 112.284C8.38039 114.283 8.75715 116.304 9.1339 118.325L10.7037 126.744C10.8028 127.581 10.9239 128.387 11.0429 129.178C11.1663 129.998 11.2874 130.803 11.3795 131.613L11.4976 132.869C11.5567 133.497 11.649 134.147 11.7413 134.798C11.8336 135.449 11.9259 136.099 11.985 136.727L12.278 138.299C12.5083 139.534 12.6054 140.677 12.7026 141.821L12.8133 143.658C12.8402 145.047 12.9792 146.415 13.1183 147.783C14.5833 146.93 16.3354 146.373 18.2415 146.019L21.2688 145.457C21.9415 145.332 22.5914 145.24 23.2414 145.149C23.8913 145.057 24.5412 144.966 25.214 144.841L28.1501 144.412L31.8501 143.725L35.1928 142.988L40.3504 142.031L44.3165 141.527C44.9893 141.402 45.6829 141.389 46.2645 141.397L44.4016 131.406L44.0114 128.691L42.7974 122.18L42.491 119.914C42.1979 118.342 41.9258 116.883 41.7449 115.291L41.2007 112.372C41.1086 111.561 40.9875 110.756 40.8642 109.936C40.7452 109.145 40.6241 108.34 40.5249 107.503L40.1691 105.595C40.0199 104.794 39.8943 103.959 39.7711 103.14C39.6523 102.35 39.5357 101.575 39.4021 100.859L39.1794 99.0419C39.0747 98.4806 38.9981 97.914 38.9215 97.3475C38.8449 96.781 38.7682 96.2145 38.6636 95.6532L38.2868 93.6326Z"/>
<path fill-rule="evenodd" clip-rule="evenodd" d="M2.73495 90.1012C14.5795 85.8117 27.7321 84.183 40.3092 83.8226C41.9208 83.7557 42.4306 85.8679 41.4559 86.8618C41.8349 89.0496 42.2156 91.237 42.5963 93.4243L42.598 93.4341C45.2714 108.793 47.9428 124.142 49.9971 139.516C50.1018 140.077 49.8492 140.589 49.4425 140.897C49.6802 141.55 49.3783 142.419 48.3901 142.718L48.278 142.739C48.1793 143.454 47.5903 144.028 46.8339 143.704C46.7113 143.669 46.5835 143.605 46.4556 143.542C46.3278 143.478 46.2 143.415 46.0774 143.38C42.0301 144.381 37.8144 145.115 33.6483 145.841C31.993 146.129 30.3455 146.417 28.7195 146.718C27.5504 146.935 26.3227 147.222 25.0633 147.516C21.008 148.463 16.6242 149.486 12.8131 148.51C12.0492 148.768 11.3137 148.556 11.1253 147.546C8.27421 129.143 5.35286 110.986 0.819936 92.8958C0.519438 91.9063 1.19964 91.1993 1.96356 90.9413C2.12501 90.5629 2.30739 90.2968 2.73495 90.1012ZM39.0341 92.538C38.7201 90.8541 38.4271 89.2824 38.2462 87.69C35.6255 87.9442 33.0049 88.1984 30.4051 88.5649L27.7845 88.8191C26.7649 88.9503 25.7226 89.1148 24.6802 89.2793C23.6378 89.4438 22.5955 89.6082 21.5759 89.7394L19.3335 90.1557L19.0239 90.198C16.7608 90.5073 14.5921 90.8036 12.3401 91.2217L9.94366 91.4343C8.99062 91.6112 8.06039 91.7549 7.13015 91.8986C6.19991 92.0422 5.26968 92.1859 4.31664 92.3628C4.51249 92.791 4.57528 93.1278 4.63807 93.4646L5.08508 95.2399L6.6145 101.576L6.90753 103.148C7.41733 105.26 7.94807 107.484 8.34575 109.617L8.63878 111.189C9.12765 113.189 9.5044 115.21 9.88116 117.23L11.451 125.65C11.5501 126.487 11.6712 127.292 11.7902 128.083C11.9136 128.903 12.0347 129.708 12.1267 130.519L12.2449 131.774C12.3039 132.402 12.3962 133.053 12.4886 133.703C12.5809 134.354 12.6732 135.005 12.7323 135.633L13.0253 137.204C13.2555 138.439 13.3527 139.583 13.4499 140.726L13.5605 142.564C13.5875 143.953 13.7265 145.32 13.8656 146.688C15.3306 145.836 17.0827 145.278 18.9888 144.924L22.016 144.362C22.6888 144.237 23.3387 144.146 23.9886 144.054C24.6386 143.963 25.2885 143.871 25.9612 143.746L28.8973 143.317L32.5973 142.63L35.9401 141.894L41.0977 140.936L45.0638 140.432C45.7365 140.307 46.4302 140.295 47.0117 140.303L45.1489 130.312L44.7587 127.597L43.5447 121.085L43.2382 118.819C42.9452 117.248 42.6731 115.788 42.4922 114.196L41.948 111.277C41.8559 110.467 41.7348 109.662 41.6114 108.842C41.4924 108.051 41.3713 107.246 41.2722 106.408L40.9164 104.5C40.7671 103.7 40.6416 102.865 40.5183 102.045C40.3995 101.256 40.2829 100.48 40.1494 99.7642L39.9266 97.9473C39.822 97.386 39.7454 96.8195 39.6687 96.253C39.5921 95.6864 39.5155 95.1199 39.4108 94.5586L39.0341 92.538Z"/>
<path fill-rule="evenodd" clip-rule="evenodd" d="M151.022 36.0171C150.972 36.1478 150.914 36.2698 150.845 36.3807C151.463 39.8518 152.083 43.3225 152.703 46.7929L152.706 46.8084C157.058 71.1786 161.407 95.5317 165.126 119.861C165.292 120.752 165.087 121.528 164.702 121.968C153.587 124.462 130.671 129.577 127.927 130.086C127.17 130.411 126.394 130.002 126.095 128.398C121.241 99.2358 116.341 70.4514 109.795 41.6038C109.383 40.0204 110.007 38.9824 110.764 38.6575C144.956 31.1621 151.826 33.5914 151.022 36.0171ZM148.956 45.031C148.458 42.357 147.992 39.8613 147.64 37.3446C144.978 37.4699 142.317 37.5951 139.689 37.8986L137.027 38.0238C135.995 38.1232 134.943 38.2724 133.891 38.4216C132.839 38.5707 131.787 38.7199 130.755 38.8193L128.498 39.2382L128.185 39.2723C125.896 39.5212 123.703 39.7596 121.437 40.1804L119.001 40.2637C118.042 40.4417 117.103 40.57 116.164 40.6982C115.224 40.8265 114.285 40.9547 113.326 41.1327C113.572 41.8248 113.672 42.3596 113.771 42.8944L114.416 45.7257L116.649 55.8239L117.114 58.3196C117.859 61.6857 118.636 65.2301 119.268 68.6171L119.733 71.1128C120.444 74.3006 121.042 77.5094 121.641 80.7181L124.133 94.0879C124.323 95.4113 124.532 96.6867 124.737 97.9401C124.949 99.2391 125.158 100.514 125.337 101.795L125.59 103.777C125.716 104.768 125.879 105.798 126.042 106.829C126.205 107.859 126.368 108.889 126.494 109.88L126.96 112.376C127.325 114.337 127.545 116.14 127.764 117.944L128.07 120.838C128.244 123.019 128.53 125.179 128.816 127.339C130.229 126.155 131.968 125.463 133.886 125.107L136.932 124.541C137.609 124.416 138.266 124.34 138.923 124.264C139.58 124.188 140.237 124.112 140.914 123.986L143.881 123.62L147.604 122.929L150.956 122.122L156.146 121.159L160.162 120.782C160.839 120.656 161.549 120.709 162.146 120.783L159.188 104.917L158.503 100.618L156.575 90.2785L156.024 86.6922C155.558 84.1965 155.126 81.8791 154.774 79.3624L153.909 74.7276C153.73 73.4468 153.521 72.1714 153.309 70.8725C153.104 69.6191 152.895 68.3437 152.706 67.0203L152.141 63.9898C151.904 62.7188 151.688 61.3962 151.475 60.0981C151.271 58.8472 151.07 57.619 150.858 56.4818L150.439 53.6086C150.273 52.7173 150.135 51.8207 149.997 50.9242C149.859 50.0276 149.721 49.131 149.555 48.2397L148.956 45.031Z"/>
<path fill-rule="evenodd" clip-rule="evenodd" d="M149.93 35.264C149.88 35.3947 149.822 35.5166 149.754 35.6275C150.372 39.0986 150.992 42.5693 151.611 46.0397L151.614 46.0553C155.966 70.4254 160.315 94.7785 164.034 119.107C164.2 119.999 163.995 120.775 163.61 121.215C152.495 123.709 129.579 128.824 126.835 129.333C126.079 129.658 125.302 129.249 125.003 127.644C120.149 98.4826 115.249 69.6982 108.704 40.8506C108.292 39.2672 108.915 38.2292 109.672 37.9044C143.864 30.409 150.734 32.8383 149.93 35.264ZM147.864 44.2778C147.366 41.6038 146.901 39.1081 146.548 36.5915C143.887 36.7167 141.225 36.8419 138.597 37.1454L135.935 37.2706C134.903 37.37 133.851 37.5192 132.799 37.6684C131.747 37.8176 130.695 37.9668 129.663 38.0661L127.407 38.4851L127.094 38.5191C124.805 38.768 122.611 39.0065 120.345 39.4272L117.909 39.5105C116.95 39.6886 116.011 39.8168 115.072 39.945C114.133 40.0733 113.193 40.2015 112.234 40.3796C112.48 41.0717 112.58 41.6065 112.68 42.1412L113.324 44.9725L115.557 55.0708L116.023 57.5665C116.767 60.9325 117.544 64.4769 118.176 67.8639L118.641 70.3596C119.352 73.5474 119.951 76.7562 120.549 79.9649L123.042 93.3348C123.231 94.6582 123.44 95.9335 123.645 97.1869C123.857 98.4859 124.066 99.7612 124.245 101.042L124.498 103.024C124.624 104.015 124.787 105.045 124.95 106.075C125.113 107.106 125.276 108.136 125.402 109.127L125.868 111.622C126.233 113.583 126.453 115.387 126.672 117.191L126.979 120.085C127.152 122.266 127.438 124.426 127.724 126.586C129.137 125.401 130.876 124.71 132.794 124.354L135.84 123.788C136.517 123.662 137.174 123.587 137.832 123.511C138.489 123.435 139.146 123.359 139.823 123.233L142.789 122.867L146.513 122.176L149.864 121.369L155.054 120.406L159.07 120.029C159.747 119.903 160.457 119.956 161.054 120.029L158.096 104.164L157.411 99.8646L155.484 89.5253L154.932 85.9391C154.466 83.4434 154.034 81.1259 153.682 78.6093L152.818 73.9744C152.638 72.6936 152.43 71.4182 152.217 70.1193C152.012 68.8659 151.804 67.5905 151.614 66.2671L151.049 63.2366C150.812 61.9657 150.596 60.643 150.383 59.3449C150.179 58.094 149.978 56.8658 149.766 55.7286L149.347 52.8554C149.181 51.9641 149.043 51.0675 148.905 50.171C148.767 49.2744 148.629 48.3779 148.463 47.4865L147.864 44.2778Z"/>
<path fill-rule="evenodd" clip-rule="evenodd" d="M91.4829 55.4173C92.359 55.1385 93.3397 55.421 93.549 56.5436C94.9645 63.4442 96.2134 70.4117 97.4616 77.3752C98.4598 82.9442 99.4576 88.5106 100.54 94.0384C101.197 97.5627 101.892 101.089 102.588 104.62C104.331 113.46 106.079 122.325 107.244 131.238C107.306 131.575 107.348 131.799 107.278 132.045C107.229 132.402 107.046 132.668 106.619 132.864C102.259 134.808 97.2163 135.57 92.3953 136.299C91.2956 136.465 90.2073 136.629 89.1412 136.806C82.6382 138.013 76.2054 138.975 69.5558 139.396C68.7984 139.219 68.3771 138.011 68.2611 137.43C67.4643 135.022 66.8005 132.707 66.1158 130.279L65.8362 129.401C63.6983 121.668 62.1001 113.718 60.5019 105.769L60.2014 104.779L59.3433 100.176C58.8716 97.6465 58.3799 95.1109 57.8875 92.5713C56.6538 86.2084 55.4153 79.821 54.4739 73.4378L54.2855 72.4275C53.9162 69.8247 53.5679 67.3341 53.3107 64.7105L53.0596 63.3634C53.0072 63.0827 52.9882 62.825 52.9691 62.5672C52.95 62.3094 52.931 62.0516 52.8786 61.7709C52.8443 60.9643 53.3211 60.4112 53.8608 60.1949C53.9311 59.9495 54.0223 59.8165 54.2465 59.7748C65.5723 55.8139 77.9535 55.0253 89.7742 54.3407C90.5799 54.3073 91.1331 54.7853 91.4829 55.4173ZM90.6263 57.6669L90.5142 57.6877C88.6784 57.7962 86.9756 57.9962 85.2729 58.1962L80.9495 58.6503C78.4619 58.996 75.8412 59.2502 73.4448 59.4628L69.836 60.0167C66.7877 60.4664 63.7186 60.8039 60.6285 61.0291L58.8136 61.2499C57.7836 61.3249 56.8657 61.3792 55.8147 61.342L56.4636 64.8221L56.6654 66.5268L58.0678 74.0482L58.452 75.4868C58.7585 77.7528 59.1771 79.998 59.7497 82.4469L59.8185 84.0602L61.1162 91.0203L61.2552 92.3882L62.5948 99.5728C63.1046 101.685 63.5232 103.93 63.9418 106.175L64.2977 108.084C64.5735 109.252 64.8265 110.454 65.0796 111.655C65.3326 112.857 65.5856 114.058 65.8615 115.227L66.2457 116.665C66.4655 117.844 66.7133 119.018 66.9611 120.191C67.2089 121.365 67.4567 122.538 67.6764 123.717L67.9695 125.289C68.3956 126.952 68.7304 128.748 69.0444 130.432L69.2253 132.024L70.1044 136.739C72.438 136.19 74.7926 135.753 77.035 135.336L80.2866 134.733C82.4169 134.337 84.5472 133.942 86.6984 133.658L89.929 132.943C92.599 132.331 95.3811 131.698 98.1842 131.178L100.427 130.761C101.66 130.533 102.914 130.416 104.077 130.432C103.875 129.657 103.705 128.904 103.536 128.152C103.367 127.399 103.197 126.647 102.995 125.871L102.744 124.524C102.566 123.57 102.365 122.649 102.164 121.728C101.964 120.807 101.763 119.886 101.585 118.932L100.845 115.585L99.6729 109.298L99.3455 106.92L98.2571 101.083L97.825 98.1429L96.318 90.0602L95.9547 88.7339L92.8988 72.3439C92.7389 70.8638 92.4458 69.2921 92.1528 67.7205L91.9091 65.7913C91.8044 65.2299 91.7226 64.6354 91.6407 64.0408C91.5589 63.4462 91.477 62.8517 91.3724 62.2904L91.0584 60.6065C90.9822 59.5753 90.8147 58.6772 90.6263 57.6669Z"/>
<path fill-rule="evenodd" clip-rule="evenodd" d="M92.2302 54.3227C93.1062 54.0439 94.0869 54.3264 94.2962 55.449C95.7117 62.3496 96.9607 69.3171 98.2089 76.2807C99.2071 81.8496 100.205 87.416 101.287 92.9438C101.944 96.4681 102.639 99.9947 103.336 103.525C105.079 112.365 106.826 121.23 107.991 130.144C108.054 130.48 108.096 130.705 108.025 130.95C107.976 131.308 107.794 131.574 107.366 131.769C103.006 133.714 97.9636 134.476 93.1426 135.204C92.0428 135.37 90.9545 135.535 89.8885 135.711C83.3854 136.918 76.9526 137.88 70.303 138.302C69.5456 138.124 69.1243 136.917 69.0084 136.335C68.2115 133.928 67.5478 131.612 66.863 129.184L66.5835 128.307C64.4456 120.573 62.8474 112.624 61.2492 104.674L60.9487 103.685L60.0905 99.0819C59.6188 96.552 59.1272 94.0163 58.6348 91.4767C57.4011 85.1139 56.1626 78.7264 55.2212 72.3432L55.0328 71.3329C54.6635 68.7301 54.3151 66.2395 54.058 63.6159L53.8068 62.2688C53.7545 61.9882 53.7354 61.7304 53.7164 61.4726C53.6973 61.2148 53.6782 60.957 53.6259 60.6764C53.5915 59.8697 54.0684 59.3166 54.6081 59.1003C54.6783 58.8549 54.7695 58.7219 54.9938 58.6802C66.3195 54.7193 78.7008 53.9307 90.5214 53.2461C91.3272 53.2127 91.8803 53.6907 92.2302 54.3227ZM91.3736 56.5723L91.2615 56.5931C89.4257 56.7016 87.7229 56.9016 86.0201 57.1016L81.6967 57.5558C79.2091 57.9014 76.5885 58.1557 74.192 58.3682L70.5832 58.9221C67.535 59.3718 64.4659 59.7093 61.3758 59.9345L59.5609 60.1553C58.5309 60.2304 57.613 60.2846 56.562 60.2474L57.2108 63.7275L57.4127 65.4322L58.815 72.9536L59.1993 74.3922C59.5058 76.6582 59.9244 78.9034 60.497 81.3523L60.5658 82.9656L61.8635 89.9257L62.0025 91.2936L63.3421 98.4783C63.8519 100.59 64.2705 102.836 64.6891 105.081L65.0449 106.989C65.3208 108.158 65.5738 109.359 65.8268 110.561C66.0799 111.762 66.3329 112.964 66.6087 114.132L66.993 115.571C67.2127 116.75 67.4605 117.923 67.7083 119.097C67.9561 120.27 68.2039 121.444 68.4237 122.622L68.7167 124.194C69.1428 125.857 69.4777 127.653 69.7917 129.337L69.9726 130.93L70.8517 135.645C73.1853 135.095 75.5398 134.658 77.7823 134.242L81.0338 133.638C83.1641 133.243 85.2944 132.847 87.4457 132.564L90.6763 131.848C93.3463 131.236 96.1284 130.604 98.9314 130.083L101.174 129.667C102.407 129.438 103.661 129.321 104.825 129.338C104.622 128.562 104.453 127.81 104.283 127.057C104.114 126.305 103.945 125.552 103.742 124.777L103.491 123.429C103.313 122.475 103.112 121.554 102.912 120.633C102.711 119.712 102.51 118.791 102.332 117.837L101.592 114.49L100.42 108.204L100.093 105.825L99.0043 99.9879L98.5723 97.0483L97.0653 88.9656L96.702 87.6393L93.6461 71.2494C93.4861 69.7692 93.1931 68.1975 92.9 66.6259L92.6563 64.6967C92.5517 64.1354 92.4698 63.5408 92.388 62.9462C92.3061 62.3517 92.2243 61.7571 92.1196 61.1958L91.8057 59.5119C91.7294 58.4807 91.562 57.5826 91.3736 56.5723Z"/>
<path fill-rule="evenodd" clip-rule="evenodd" d="M198.035 -15.1489C198.899 -15.4995 199.934 -14.9305 200.277 -13.0911C202.517 -1.76945 204.594 9.64114 206.67 21.0454L206.67 21.0464C208.331 30.1663 209.99 39.2822 211.732 48.3452C212.808 54.1195 213.924 59.902 215.041 65.6908L215.042 65.6918C217.839 80.1873 220.644 94.7231 222.859 109.271C222.962 109.823 223.03 110.191 222.987 110.58C222.986 110.604 222.986 110.628 222.985 110.651C222.242 111.948 186.74 119.038 184.396 117.04C184.056 116.301 183.816 115.385 183.708 114.827C182.616 110.843 181.672 107.022 180.693 103.017L180.306 101.566C177.232 88.8151 174.684 75.7761 172.137 62.7371L171.716 61.1025L170.31 53.5609C169.537 49.4155 168.743 45.2586 167.948 41.0952C165.956 30.6642 163.956 20.1928 162.26 9.76211L161.951 8.10664C161.275 3.85516 160.633 -0.212377 160.068 -4.4847L159.657 -6.692C159.571 -7.15186 159.522 -7.57093 159.473 -7.99001C159.451 -8.1753 159.442 -8.23188 159.426 -8.334C159.405 -8.46284 159.373 -8.66418 159.289 -9.28802C157.57 -12.2775 191.576 -15.155 198.035 -15.1489ZM197.417 -11.6087L197.305 -11.5878C195.44 -11.6223 193.722 -11.4936 192.004 -11.3649L187.635 -11.1248C185.131 -10.8502 182.48 -10.7388 180.054 -10.669L176.427 -10.186C173.429 -9.81551 170.808 -9.32884 167.522 -8.71867L167.301 -8.67767L165.47 -8.52816C164.426 -8.52454 163.493 -8.54174 162.414 -8.72205L163.305 -3.94376L163.707 -1.16381L166.005 11.1602L166.563 13.5306C167.137 17.2303 167.823 20.9091 168.69 24.935L168.945 27.5518L171.072 38.9562L171.371 41.1843L173.566 52.9565C174.33 56.4306 175.015 60.1094 175.701 63.7882L176.284 66.9152C176.701 68.8362 177.097 70.8083 177.494 72.7805C177.891 74.7526 178.288 76.7248 178.704 78.6458L179.262 81.0161C179.622 82.9475 180.01 84.8737 180.398 86.7999C180.787 88.726 181.175 90.6522 181.535 92.5836L182.015 95.1588C182.642 97.897 183.19 100.84 183.705 103.599L184.073 106.195L185.858 115.768C188.181 115.147 190.538 114.709 192.784 114.292L196.039 113.688C198.172 113.292 200.305 112.896 202.472 112.684L205.694 111.896C208.354 111.212 211.126 110.507 213.932 109.986L216.178 109.569C217.413 109.34 218.682 109.294 219.873 109.454C219.577 108.177 218.973 105.092 218.713 103.856C218.454 102.62 218.194 101.383 217.898 100.106L217.486 97.8988C217.195 96.3353 216.884 94.8229 216.573 93.3106C216.262 91.7983 215.951 90.286 215.659 88.7225L214.518 83.2252L212.598 72.9245L211.99 69.0408L210.206 59.4759L209.427 54.6726L206.958 41.4289L206.434 39.2424L201.427 12.387C201.093 9.97495 200.613 7.39977 200.133 4.8246L199.662 1.67677C199.491 0.757063 199.339 -0.213838 199.187 -1.18474C199.035 -2.15564 198.883 -3.12654 198.711 -4.04624L198.197 -6.80536C198 -8.48167 197.726 -9.95321 197.417 -11.6087Z"/>
<path fill-rule="evenodd" clip-rule="evenodd" d="M196.943 -15.902C197.807 -16.2527 198.842 -15.6837 199.185 -13.8443C201.425 -2.52263 203.502 8.88797 205.578 20.2922L205.579 20.2932C207.239 29.4131 208.898 38.529 210.64 47.592C211.716 53.3663 212.832 59.1488 213.95 64.9377L213.95 64.9386C216.747 79.4342 219.553 93.9699 221.767 108.518C221.87 109.07 221.939 109.438 221.895 109.827C221.894 109.851 221.894 109.874 221.893 109.898C221.15 111.194 185.648 118.285 183.304 116.287C182.964 115.548 182.724 114.632 182.616 114.074C181.525 110.09 180.58 106.268 179.601 102.263L179.214 100.813C176.14 88.0619 173.593 75.0229 171.045 61.984L170.624 60.3493L169.218 52.8077C168.445 48.6624 167.651 44.5054 166.856 40.342C164.864 29.911 162.864 19.4396 161.168 9.00894L160.86 7.35347C160.183 3.10198 159.541 -0.965549 158.977 -5.23787L158.565 -7.44518C158.479 -7.90503 158.43 -8.32411 158.381 -8.74318C158.359 -8.92847 158.35 -8.98506 158.334 -9.08717C158.313 -9.21602 158.281 -9.41735 158.197 -10.0412C156.478 -13.0306 190.484 -15.9082 196.943 -15.902ZM196.325 -12.3618L196.213 -12.341C194.348 -12.3754 192.63 -12.2468 190.912 -12.1181L186.543 -11.878C184.039 -11.6034 181.388 -11.4919 178.962 -11.4222L175.336 -10.9392C172.337 -10.5687 169.716 -10.082 166.43 -9.47184L166.209 -9.43084L164.378 -9.28134C163.334 -9.27771 162.401 -9.29491 161.322 -9.47523L162.213 -4.69694L162.616 -1.91698L164.913 10.4071L165.471 12.7775C166.045 16.4771 166.731 20.1559 167.598 24.1818L167.853 26.7987L169.98 38.203L170.279 40.4311L172.474 52.2034C173.238 55.6774 173.924 59.3562 174.61 63.035L175.193 66.162C175.609 68.083 176.006 70.0551 176.402 72.0273C176.799 73.9995 177.196 75.9716 177.612 77.8926L178.17 80.263C178.53 82.1944 178.918 84.1205 179.307 86.0467C179.695 87.9728 180.083 89.899 180.443 91.8304L180.923 94.4056C181.55 97.1439 182.099 100.087 182.613 102.846L182.981 105.442L184.766 115.015C187.089 114.394 189.447 113.956 191.692 113.539L194.947 112.935C197.08 112.539 199.213 112.143 201.381 111.931L204.602 111.143C207.262 110.458 210.034 109.753 212.841 109.232L215.086 108.816C216.321 108.586 217.59 108.541 218.781 108.701C218.485 107.423 217.881 104.339 217.621 103.103C217.362 101.866 217.102 100.63 216.806 99.3529L216.395 97.1456C216.103 95.5821 215.792 94.0698 215.481 92.5575C215.17 91.0452 214.859 89.5329 214.567 87.9694L213.426 82.472L211.506 72.1713L210.898 68.2877L209.114 58.7228L208.335 53.9194L205.866 40.6757L205.342 38.4892L200.335 11.6338C200.001 9.22177 199.521 6.6466 199.041 4.07143L198.57 0.923594C198.399 0.00389099 198.247 -0.967012 198.095 -1.93791C197.943 -2.90881 197.791 -3.87971 197.619 -4.79942L197.105 -7.55853C196.908 -9.23484 196.634 -10.7064 196.325 -12.3618Z"/>
</mask>
<path fill-rule="evenodd" clip-rule="evenodd" d="M1.98769 91.1958C13.8322 86.9063 26.9848 85.2776 39.5619 84.9172C41.1735 84.8503 41.6833 86.9624 40.7086 87.9564C41.0876 90.1442 41.4683 92.3316 41.849 94.5189L41.8507 94.5287C44.5241 109.888 47.1956 125.237 49.2499 140.611C49.3545 141.172 49.1019 141.684 48.6953 141.991C48.933 142.644 48.631 143.513 47.6428 143.813L47.5307 143.834C47.4321 144.549 46.8431 145.123 46.0866 144.799C45.964 144.763 45.8362 144.7 45.7084 144.636C45.5806 144.573 45.4527 144.51 45.3302 144.474C41.2829 145.475 37.0672 146.21 32.9011 146.936C31.2457 147.224 29.5982 147.511 27.9722 147.813C26.8032 148.03 25.5755 148.317 24.3161 148.611C20.2608 149.557 15.877 150.581 12.0659 149.604C11.3019 149.862 10.5664 149.651 10.378 148.64C7.52695 130.238 4.6056 112.081 0.0726789 93.9904C-0.227819 93.0009 0.45238 92.2939 1.2163 92.0359C1.37775 91.6575 1.56013 91.3913 1.98769 91.1958ZM38.2868 93.6326C37.9729 91.9487 37.6798 90.377 37.4989 88.7846C34.8783 89.0388 32.2576 89.293 29.6579 89.6595L27.0372 89.9137C26.0177 90.0449 24.9753 90.2094 23.9329 90.3739C22.8906 90.5383 21.8482 90.7028 20.8287 90.834L18.5862 91.2503L18.2766 91.2926C16.0135 91.6019 13.8449 91.8982 11.5928 92.3163L9.1964 92.5289C8.24337 92.7058 7.31313 92.8495 6.38289 92.9931C5.45265 93.1368 4.52242 93.2805 3.56938 93.4574C3.76523 93.8856 3.82802 94.2224 3.89081 94.5592L4.33782 96.3345L5.86724 102.671L6.16027 104.243C6.67007 106.355 7.20081 108.579 7.59849 110.712L7.89152 112.284C8.38039 114.283 8.75715 116.304 9.1339 118.325L10.7037 126.744C10.8028 127.581 10.9239 128.387 11.0429 129.178C11.1663 129.998 11.2874 130.803 11.3795 131.613L11.4976 132.869C11.5567 133.497 11.649 134.147 11.7413 134.798C11.8336 135.449 11.9259 136.099 11.985 136.727L12.278 138.299C12.5083 139.534 12.6054 140.677 12.7026 141.821L12.8133 143.658C12.8402 145.047 12.9792 146.415 13.1183 147.783C14.5833 146.93 16.3354 146.373 18.2415 146.019L21.2688 145.457C21.9415 145.332 22.5914 145.24 23.2414 145.149C23.8913 145.057 24.5412 144.966 25.214 144.841L28.1501 144.412L31.8501 143.725L35.1928 142.988L40.3504 142.031L44.3165 141.527C44.9893 141.402 45.6829 141.389 46.2645 141.397L44.4016 131.406L44.0114 128.691L42.7974 122.18L42.491 119.914C42.1979 118.342 41.9258 116.883 41.7449 115.291L41.2007 112.372C41.1086 111.561 40.9875 110.756 40.8642 109.936C40.7452 109.145 40.6241 108.34 40.5249 107.503L40.1691 105.595C40.0199 104.794 39.8943 103.959 39.7711 103.14C39.6523 102.35 39.5357 101.575 39.4021 100.859L39.1794 99.0419C39.0747 98.4806 38.9981 97.914 38.9215 97.3475C38.8449 96.781 38.7682 96.2145 38.6636 95.6532L38.2868 93.6326Z" fill="#7831B2"/>
<path fill-rule="evenodd" clip-rule="evenodd" d="M2.73495 90.1012C14.5795 85.8117 27.7321 84.183 40.3092 83.8226C41.9208 83.7557 42.4306 85.8679 41.4559 86.8618C41.8349 89.0496 42.2156 91.237 42.5963 93.4243L42.598 93.4341C45.2714 108.793 47.9428 124.142 49.9971 139.516C50.1018 140.077 49.8492 140.589 49.4425 140.897C49.6802 141.55 49.3783 142.419 48.3901 142.718L48.278 142.739C48.1793 143.454 47.5903 144.028 46.8339 143.704C46.7113 143.669 46.5835 143.605 46.4556 143.542C46.3278 143.478 46.2 143.415 46.0774 143.38C42.0301 144.381 37.8144 145.115 33.6483 145.841C31.993 146.129 30.3455 146.417 28.7195 146.718C27.5504 146.935 26.3227 147.222 25.0633 147.516C21.008 148.463 16.6242 149.486 12.8131 148.51C12.0492 148.768 11.3137 148.556 11.1253 147.546C8.27421 129.143 5.35286 110.986 0.819936 92.8958C0.519438 91.9063 1.19964 91.1993 1.96356 90.9413C2.12501 90.5629 2.30739 90.2968 2.73495 90.1012ZM39.0341 92.538C38.7201 90.8541 38.4271 89.2824 38.2462 87.69C35.6255 87.9442 33.0049 88.1984 30.4051 88.5649L27.7845 88.8191C26.7649 88.9503 25.7226 89.1148 24.6802 89.2793C23.6378 89.4438 22.5955 89.6082 21.5759 89.7394L19.3335 90.1557L19.0239 90.198C16.7608 90.5073 14.5921 90.8036 12.3401 91.2217L9.94366 91.4343C8.99062 91.6112 8.06039 91.7549 7.13015 91.8986C6.19991 92.0422 5.26968 92.1859 4.31664 92.3628C4.51249 92.791 4.57528 93.1278 4.63807 93.4646L5.08508 95.2399L6.6145 101.576L6.90753 103.148C7.41733 105.26 7.94807 107.484 8.34575 109.617L8.63878 111.189C9.12765 113.189 9.5044 115.21 9.88116 117.23L11.451 125.65C11.5501 126.487 11.6712 127.292 11.7902 128.083C11.9136 128.903 12.0347 129.708 12.1267 130.519L12.2449 131.774C12.3039 132.402 12.3962 133.053 12.4886 133.703C12.5809 134.354 12.6732 135.005 12.7323 135.633L13.0253 137.204C13.2555 138.439 13.3527 139.583 13.4499 140.726L13.5605 142.564C13.5875 143.953 13.7265 145.32 13.8656 146.688C15.3306 145.836 17.0827 145.278 18.9888 144.924L22.016 144.362C22.6888 144.237 23.3387 144.146 23.9886 144.054C24.6386 143.963 25.2885 143.871 25.9612 143.746L28.8973 143.317L32.5973 142.63L35.9401 141.894L41.0977 140.936L45.0638 140.432C45.7365 140.307 46.4302 140.295 47.0117 140.303L45.1489 130.312L44.7587 127.597L43.5447 121.085L43.2382 118.819C42.9452 117.248 42.6731 115.788 42.4922 114.196L41.948 111.277C41.8559 110.467 41.7348 109.662 41.6114 108.842C41.4924 108.051 41.3713 107.246 41.2722 106.408L40.9164 104.5C40.7671 103.7 40.6416 102.865 40.5183 102.045C40.3995 101.256 40.2829 100.48 40.1494 99.7642L39.9266 97.9473C39.822 97.386 39.7454 96.8195 39.6687 96.253C39.5921 95.6864 39.5155 95.1199 39.4108 94.5586L39.0341 92.538Z" fill="#7831B2"/>
<path fill-rule="evenodd" clip-rule="evenodd" d="M151.022 36.0171C150.972 36.1478 150.914 36.2698 150.845 36.3807C151.463 39.8518 152.083 43.3225 152.703 46.7929L152.706 46.8084C157.058 71.1786 161.407 95.5317 165.126 119.861C165.292 120.752 165.087 121.528 164.702 121.968C153.587 124.462 130.671 129.577 127.927 130.086C127.17 130.411 126.394 130.002 126.095 128.398C121.241 99.2358 116.341 70.4514 109.795 41.6038C109.383 40.0204 110.007 38.9824 110.764 38.6575C144.956 31.1621 151.826 33.5914 151.022 36.0171ZM148.956 45.031C148.458 42.357 147.992 39.8613 147.64 37.3446C144.978 37.4699 142.317 37.5951 139.689 37.8986L137.027 38.0238C135.995 38.1232 134.943 38.2724 133.891 38.4216C132.839 38.5707 131.787 38.7199 130.755 38.8193L128.498 39.2382L128.185 39.2723C125.896 39.5212 123.703 39.7596 121.437 40.1804L119.001 40.2637C118.042 40.4417 117.103 40.57 116.164 40.6982C115.224 40.8265 114.285 40.9547 113.326 41.1327C113.572 41.8248 113.672 42.3596 113.771 42.8944L114.416 45.7257L116.649 55.8239L117.114 58.3196C117.859 61.6857 118.636 65.2301 119.268 68.6171L119.733 71.1128C120.444 74.3006 121.042 77.5094 121.641 80.7181L124.133 94.0879C124.323 95.4113 124.532 96.6867 124.737 97.9401C124.949 99.2391 125.158 100.514 125.337 101.795L125.59 103.777C125.716 104.768 125.879 105.798 126.042 106.829C126.205 107.859 126.368 108.889 126.494 109.88L126.96 112.376C127.325 114.337 127.545 116.14 127.764 117.944L128.07 120.838C128.244 123.019 128.53 125.179 128.816 127.339C130.229 126.155 131.968 125.463 133.886 125.107L136.932 124.541C137.609 124.416 138.266 124.34 138.923 124.264C139.58 124.188 140.237 124.112 140.914 123.986L143.881 123.62L147.604 122.929L150.956 122.122L156.146 121.159L160.162 120.782C160.839 120.656 161.549 120.709 162.146 120.783L159.188 104.917L158.503 100.618L156.575 90.2785L156.024 86.6922C155.558 84.1965 155.126 81.8791 154.774 79.3624L153.909 74.7276C153.73 73.4468 153.521 72.1714 153.309 70.8725C153.104 69.6191 152.895 68.3437 152.706 67.0203L152.141 63.9898C151.904 62.7188 151.688 61.3962 151.475 60.0981C151.271 58.8472 151.07 57.619 150.858 56.4818L150.439 53.6086C150.273 52.7173 150.135 51.8207 149.997 50.9242C149.859 50.0276 149.721 49.131 149.555 48.2397L148.956 45.031Z" fill="#7831B2"/>
<path fill-rule="evenodd" clip-rule="evenodd" d="M149.93 35.264C149.88 35.3947 149.822 35.5166 149.754 35.6275C150.372 39.0986 150.992 42.5693 151.611 46.0397L151.614 46.0553C155.966 70.4254 160.315 94.7785 164.034 119.107C164.2 119.999 163.995 120.775 163.61 121.215C152.495 123.709 129.579 128.824 126.835 129.333C126.079 129.658 125.302 129.249 125.003 127.644C120.149 98.4826 115.249 69.6982 108.704 40.8506C108.292 39.2672 108.915 38.2292 109.672 37.9044C143.864 30.409 150.734 32.8383 149.93 35.264ZM147.864 44.2778C147.366 41.6038 146.901 39.1081 146.548 36.5915C143.887 36.7167 141.225 36.8419 138.597 37.1454L135.935 37.2706C134.903 37.37 133.851 37.5192 132.799 37.6684C131.747 37.8176 130.695 37.9668 129.663 38.0661L127.407 38.4851L127.094 38.5191C124.805 38.768 122.611 39.0065 120.345 39.4272L117.909 39.5105C116.95 39.6886 116.011 39.8168 115.072 39.945C114.133 40.0733 113.193 40.2015 112.234 40.3796C112.48 41.0717 112.58 41.6065 112.68 42.1412L113.324 44.9725L115.557 55.0708L116.023 57.5665C116.767 60.9325 117.544 64.4769 118.176 67.8639L118.641 70.3596C119.352 73.5474 119.951 76.7562 120.549 79.9649L123.042 93.3348C123.231 94.6582 123.44 95.9335 123.645 97.1869C123.857 98.4859 124.066 99.7612 124.245 101.042L124.498 103.024C124.624 104.015 124.787 105.045 124.95 106.075C125.113 107.106 125.276 108.136 125.402 109.127L125.868 111.622C126.233 113.583 126.453 115.387 126.672 117.191L126.979 120.085C127.152 122.266 127.438 124.426 127.724 126.586C129.137 125.401 130.876 124.71 132.794 124.354L135.84 123.788C136.517 123.662 137.174 123.587 137.832 123.511C138.489 123.435 139.146 123.359 139.823 123.233L142.789 122.867L146.513 122.176L149.864 121.369L155.054 120.406L159.07 120.029C159.747 119.903 160.457 119.956 161.054 120.029L158.096 104.164L157.411 99.8646L155.484 89.5253L154.932 85.9391C154.466 83.4434 154.034 81.1259 153.682 78.6093L152.818 73.9744C152.638 72.6936 152.43 71.4182 152.217 70.1193C152.012 68.8659 151.804 67.5905 151.614 66.2671L151.049 63.2366C150.812 61.9657 150.596 60.643 150.383 59.3449C150.179 58.094 149.978 56.8658 149.766 55.7286L149.347 52.8554C149.181 51.9641 149.043 51.0675 148.905 50.171C148.767 49.2744 148.629 48.3779 148.463 47.4865L147.864 44.2778Z" fill="#7831B2"/>
<path fill-rule="evenodd" clip-rule="evenodd" d="M91.4829 55.4173C92.359 55.1385 93.3397 55.421 93.549 56.5436C94.9645 63.4442 96.2134 70.4117 97.4616 77.3752C98.4598 82.9442 99.4576 88.5106 100.54 94.0384C101.197 97.5627 101.892 101.089 102.588 104.62C104.331 113.46 106.079 122.325 107.244 131.238C107.306 131.575 107.348 131.799 107.278 132.045C107.229 132.402 107.046 132.668 106.619 132.864C102.259 134.808 97.2163 135.57 92.3953 136.299C91.2956 136.465 90.2073 136.629 89.1412 136.806C82.6382 138.013 76.2054 138.975 69.5558 139.396C68.7984 139.219 68.3771 138.011 68.2611 137.43C67.4643 135.022 66.8005 132.707 66.1158 130.279L65.8362 129.401C63.6983 121.668 62.1001 113.718 60.5019 105.769L60.2014 104.779L59.3433 100.176C58.8716 97.6465 58.3799 95.1109 57.8875 92.5713C56.6538 86.2084 55.4153 79.821 54.4739 73.4378L54.2855 72.4275C53.9162 69.8247 53.5679 67.3341 53.3107 64.7105L53.0596 63.3634C53.0072 63.0827 52.9882 62.825 52.9691 62.5672C52.95 62.3094 52.931 62.0516 52.8786 61.7709C52.8443 60.9643 53.3211 60.4112 53.8608 60.1949C53.9311 59.9495 54.0223 59.8165 54.2465 59.7748C65.5723 55.8139 77.9535 55.0253 89.7742 54.3407C90.5799 54.3073 91.1331 54.7853 91.4829 55.4173ZM90.6263 57.6669L90.5142 57.6877C88.6784 57.7962 86.9756 57.9962 85.2729 58.1962L80.9495 58.6503C78.4619 58.996 75.8412 59.2502 73.4448 59.4628L69.836 60.0167C66.7877 60.4664 63.7186 60.8039 60.6285 61.0291L58.8136 61.2499C57.7836 61.3249 56.8657 61.3792 55.8147 61.342L56.4636 64.8221L56.6654 66.5268L58.0678 74.0482L58.452 75.4868C58.7585 77.7528 59.1771 79.998 59.7497 82.4469L59.8185 84.0602L61.1162 91.0203L61.2552 92.3882L62.5948 99.5728C63.1046 101.685 63.5232 103.93 63.9418 106.175L64.2977 108.084C64.5735 109.252 64.8265 110.454 65.0796 111.655C65.3326 112.857 65.5856 114.058 65.8615 115.227L66.2457 116.665C66.4655 117.844 66.7133 119.018 66.9611 120.191C67.2089 121.365 67.4567 122.538 67.6764 123.717L67.9695 125.289C68.3956 126.952 68.7304 128.748 69.0444 130.432L69.2253 132.024L70.1044 136.739C72.438 136.19 74.7926 135.753 77.035 135.336L80.2866 134.733C82.4169 134.337 84.5472 133.942 86.6984 133.658L89.929 132.943C92.599 132.331 95.3811 131.698 98.1842 131.178L100.427 130.761C101.66 130.533 102.914 130.416 104.077 130.432C103.875 129.657 103.705 128.904 103.536 128.152C103.367 127.399 103.197 126.647 102.995 125.871L102.744 124.524C102.566 123.57 102.365 122.649 102.164 121.728C101.964 120.807 101.763 119.886 101.585 118.932L100.845 115.585L99.6729 109.298L99.3455 106.92L98.2571 101.083L97.825 98.1429L96.318 90.0602L95.9547 88.7339L92.8988 72.3439C92.7389 70.8638 92.4458 69.2921 92.1528 67.7205L91.9091 65.7913C91.8044 65.2299 91.7226 64.6354 91.6407 64.0408C91.5589 63.4462 91.477 62.8517 91.3724 62.2904L91.0584 60.6065C90.9822 59.5753 90.8147 58.6772 90.6263 57.6669Z" fill="#7831B2"/>
<path fill-rule="evenodd" clip-rule="evenodd" d="M92.2302 54.3227C93.1062 54.0439 94.0869 54.3264 94.2962 55.449C95.7117 62.3496 96.9607 69.3171 98.2089 76.2807C99.2071 81.8496 100.205 87.416 101.287 92.9438C101.944 96.4681 102.639 99.9947 103.336 103.525C105.079 112.365 106.826 121.23 107.991 130.144C108.054 130.48 108.096 130.705 108.025 130.95C107.976 131.308 107.794 131.574 107.366 131.769C103.006 133.714 97.9636 134.476 93.1426 135.204C92.0428 135.37 90.9545 135.535 89.8885 135.711C83.3854 136.918 76.9526 137.88 70.303 138.302C69.5456 138.124 69.1243 136.917 69.0084 136.335C68.2115 133.928 67.5478 131.612 66.863 129.184L66.5835 128.307C64.4456 120.573 62.8474 112.624 61.2492 104.674L60.9487 103.685L60.0905 99.0819C59.6188 96.552 59.1272 94.0163 58.6348 91.4767C57.4011 85.1139 56.1626 78.7264 55.2212 72.3432L55.0328 71.3329C54.6635 68.7301 54.3151 66.2395 54.058 63.6159L53.8068 62.2688C53.7545 61.9882 53.7354 61.7304 53.7164 61.4726C53.6973 61.2148 53.6782 60.957 53.6259 60.6764C53.5915 59.8697 54.0684 59.3166 54.6081 59.1003C54.6783 58.8549 54.7695 58.7219 54.9938 58.6802C66.3195 54.7193 78.7008 53.9307 90.5214 53.2461C91.3272 53.2127 91.8803 53.6907 92.2302 54.3227ZM91.3736 56.5723L91.2615 56.5931C89.4257 56.7016 87.7229 56.9016 86.0201 57.1016L81.6967 57.5558C79.2091 57.9014 76.5885 58.1557 74.192 58.3682L70.5832 58.9221C67.535 59.3718 64.4659 59.7093 61.3758 59.9345L59.5609 60.1553C58.5309 60.2304 57.613 60.2846 56.562 60.2474L57.2108 63.7275L57.4127 65.4322L58.815 72.9536L59.1993 74.3922C59.5058 76.6582 59.9244 78.9034 60.497 81.3523L60.5658 82.9656L61.8635 89.9257L62.0025 91.2936L63.3421 98.4783C63.8519 100.59 64.2705 102.836 64.6891 105.081L65.0449 106.989C65.3208 108.158 65.5738 109.359 65.8268 110.561C66.0799 111.762 66.3329 112.964 66.6087 114.132L66.993 115.571C67.2127 116.75 67.4605 117.923 67.7083 119.097C67.9561 120.27 68.2039 121.444 68.4237 122.622L68.7167 124.194C69.1428 125.857 69.4777 127.653 69.7917 129.337L69.9726 130.93L70.8517 135.645C73.1853 135.095 75.5398 134.658 77.7823 134.242L81.0338 133.638C83.1641 133.243 85.2944 132.847 87.4457 132.564L90.6763 131.848C93.3463 131.236 96.1284 130.604 98.9314 130.083L101.174 129.667C102.407 129.438 103.661 129.321 104.825 129.338C104.622 128.562 104.453 127.81 104.283 127.057C104.114 126.305 103.945 125.552 103.742 124.777L103.491 123.429C103.313 122.475 103.112 121.554 102.912 120.633C102.711 119.712 102.51 118.791 102.332 117.837L101.592 114.49L100.42 108.204L100.093 105.825L99.0043 99.9879L98.5723 97.0483L97.0653 88.9656L96.702 87.6393L93.6461 71.2494C93.4861 69.7692 93.1931 68.1975 92.9 66.6259L92.6563 64.6967C92.5517 64.1354 92.4698 63.5408 92.388 62.9462C92.3061 62.3517 92.2243 61.7571 92.1196 61.1958L91.8057 59.5119C91.7294 58.4807 91.562 57.5826 91.3736 56.5723Z" fill="#7831B2"/>
<path fill-rule="evenodd" clip-rule="evenodd" d="M198.035 -15.1489C198.899 -15.4995 199.934 -14.9305 200.277 -13.0911C202.517 -1.76945 204.594 9.64114 206.67 21.0454L206.67 21.0464C208.331 30.1663 209.99 39.2822 211.732 48.3452C212.808 54.1195 213.924 59.902 215.041 65.6908L215.042 65.6918C217.839 80.1873 220.644 94.7231 222.859 109.271C222.962 109.823 223.03 110.191 222.987 110.58C222.986 110.604 222.986 110.628 222.985 110.651C222.242 111.948 186.74 119.038 184.396 117.04C184.056 116.301 183.816 115.385 183.708 114.827C182.616 110.843 181.672 107.022 180.693 103.017L180.306 101.566C177.232 88.8151 174.684 75.7761 172.137 62.7371L171.716 61.1025L170.31 53.5609C169.537 49.4155 168.743 45.2586 167.948 41.0952C165.956 30.6642 163.956 20.1928 162.26 9.76211L161.951 8.10664C161.275 3.85516 160.633 -0.212377 160.068 -4.4847L159.657 -6.692C159.571 -7.15186 159.522 -7.57093 159.473 -7.99001C159.451 -8.1753 159.442 -8.23188 159.426 -8.334C159.405 -8.46284 159.373 -8.66418 159.289 -9.28802C157.57 -12.2775 191.576 -15.155 198.035 -15.1489ZM197.417 -11.6087L197.305 -11.5878C195.44 -11.6223 193.722 -11.4936 192.004 -11.3649L187.635 -11.1248C185.131 -10.8502 182.48 -10.7388 180.054 -10.669L176.427 -10.186C173.429 -9.81551 170.808 -9.32884 167.522 -8.71867L167.301 -8.67767L165.47 -8.52816C164.426 -8.52454 163.493 -8.54174 162.414 -8.72205L163.305 -3.94376L163.707 -1.16381L166.005 11.1602L166.563 13.5306C167.137 17.2303 167.823 20.9091 168.69 24.935L168.945 27.5518L171.072 38.9562L171.371 41.1843L173.566 52.9565C174.33 56.4306 175.015 60.1094 175.701 63.7882L176.284 66.9152C176.701 68.8362 177.097 70.8083 177.494 72.7805C177.891 74.7526 178.288 76.7248 178.704 78.6458L179.262 81.0161C179.622 82.9475 180.01 84.8737 180.398 86.7999C180.787 88.726 181.175 90.6522 181.535 92.5836L182.015 95.1588C182.642 97.897 183.19 100.84 183.705 103.599L184.073 106.195L185.858 115.768C188.181 115.147 190.538 114.709 192.784 114.292L196.039 113.688C198.172 113.292 200.305 112.896 202.472 112.684L205.694 111.896C208.354 111.212 211.126 110.507 213.932 109.986L216.178 109.569C217.413 109.34 218.682 109.294 219.873 109.454C219.577 108.177 218.973 105.092 218.713 103.856C218.454 102.62 218.194 101.383 217.898 100.106L217.486 97.8988C217.195 96.3353 216.884 94.8229 216.573 93.3106C216.262 91.7983 215.951 90.286 215.659 88.7225L214.518 83.2252L212.598 72.9245L211.99 69.0408L210.206 59.4759L209.427 54.6726L206.958 41.4289L206.434 39.2424L201.427 12.387C201.093 9.97495 200.613 7.39977 200.133 4.8246L199.662 1.67677C199.491 0.757063 199.339 -0.213838 199.187 -1.18474C199.035 -2.15564 198.883 -3.12654 198.711 -4.04624L198.197 -6.80536C198 -8.48167 197.726 -9.95321 197.417 -11.6087Z" fill="#7831B2"/>
<path fill-rule="evenodd" clip-rule="evenodd" d="M196.943 -15.902C197.807 -16.2527 198.842 -15.6837 199.185 -13.8443C201.425 -2.52263 203.502 8.88797 205.578 20.2922L205.579 20.2932C207.239 29.4131 208.898 38.529 210.64 47.592C211.716 53.3663 212.832 59.1488 213.95 64.9377L213.95 64.9386C216.747 79.4342 219.553 93.9699 221.767 108.518C221.87 109.07 221.939 109.438 221.895 109.827C221.894 109.851 221.894 109.874 221.893 109.898C221.15 111.194 185.648 118.285 183.304 116.287C182.964 115.548 182.724 114.632 182.616 114.074C181.525 110.09 180.58 106.268 179.601 102.263L179.214 100.813C176.14 88.0619 173.593 75.0229 171.045 61.984L170.624 60.3493L169.218 52.8077C168.445 48.6624 167.651 44.5054 166.856 40.342C164.864 29.911 162.864 19.4396 161.168 9.00894L160.86 7.35347C160.183 3.10198 159.541 -0.965549 158.977 -5.23787L158.565 -7.44518C158.479 -7.90503 158.43 -8.32411 158.381 -8.74318C158.359 -8.92847 158.35 -8.98506 158.334 -9.08717C158.313 -9.21602 158.281 -9.41735 158.197 -10.0412C156.478 -13.0306 190.484 -15.9082 196.943 -15.902ZM196.325 -12.3618L196.213 -12.341C194.348 -12.3754 192.63 -12.2468 190.912 -12.1181L186.543 -11.878C184.039 -11.6034 181.388 -11.4919 178.962 -11.4222L175.336 -10.9392C172.337 -10.5687 169.716 -10.082 166.43 -9.47184L166.209 -9.43084L164.378 -9.28134C163.334 -9.27771 162.401 -9.29491 161.322 -9.47523L162.213 -4.69694L162.616 -1.91698L164.913 10.4071L165.471 12.7775C166.045 16.4771 166.731 20.1559 167.598 24.1818L167.853 26.7987L169.98 38.203L170.279 40.4311L172.474 52.2034C173.238 55.6774 173.924 59.3562 174.61 63.035L175.193 66.162C175.609 68.083 176.006 70.0551 176.402 72.0273C176.799 73.9995 177.196 75.9716 177.612 77.8926L178.17 80.263C178.53 82.1944 178.918 84.1205 179.307 86.0467C179.695 87.9728 180.083 89.899 180.443 91.8304L180.923 94.4056C181.55 97.1439 182.099 100.087 182.613 102.846L182.981 105.442L184.766 115.015C187.089 114.394 189.447 113.956 191.692 113.539L194.947 112.935C197.08 112.539 199.213 112.143 201.381 111.931L204.602 111.143C207.262 110.458 210.034 109.753 212.841 109.232L215.086 108.816C216.321 108.586 217.59 108.541 218.781 108.701C218.485 107.423 217.881 104.339 217.621 103.103C217.362 101.866 217.102 100.63 216.806 99.3529L216.395 97.1456C216.103 95.5821 215.792 94.0698 215.481 92.5575C215.17 91.0452 214.859 89.5329 214.567 87.9694L213.426 82.472L211.506 72.1713L210.898 68.2877L209.114 58.7228L208.335 53.9194L205.866 40.6757L205.342 38.4892L200.335 11.6338C200.001 9.22177 199.521 6.6466 199.041 4.07143L198.57 0.923594C198.399 0.00389099 198.247 -0.967012 198.095 -1.93791C197.943 -2.90881 197.791 -3.87971 197.619 -4.79942L197.105 -7.55853C196.908 -9.23484 196.634 -10.7064 196.325 -12.3618Z" fill="#7831B2"/>
<path fill-rule="evenodd" clip-rule="evenodd" d="M1.98769 91.1958C13.8322 86.9063 26.9848 85.2776 39.5619 84.9172C41.1735 84.8503 41.6833 86.9624 40.7086 87.9564C41.0876 90.1442 41.4683 92.3316 41.849 94.5189L41.8507 94.5287C44.5241 109.888 47.1956 125.237 49.2499 140.611C49.3545 141.172 49.1019 141.684 48.6953 141.991C48.933 142.644 48.631 143.513 47.6428 143.813L47.5307 143.834C47.4321 144.549 46.8431 145.123 46.0866 144.799C45.964 144.763 45.8362 144.7 45.7084 144.636C45.5806 144.573 45.4527 144.51 45.3302 144.474C41.2829 145.475 37.0672 146.21 32.9011 146.936C31.2457 147.224 29.5982 147.511 27.9722 147.813C26.8032 148.03 25.5755 148.317 24.3161 148.611C20.2608 149.557 15.877 150.581 12.0659 149.604C11.3019 149.862 10.5664 149.651 10.378 148.64C7.52695 130.238 4.6056 112.081 0.0726789 93.9904C-0.227819 93.0009 0.45238 92.2939 1.2163 92.0359C1.37775 91.6575 1.56013 91.3913 1.98769 91.1958ZM38.2868 93.6326C37.9729 91.9487 37.6798 90.377 37.4989 88.7846C34.8783 89.0388 32.2576 89.293 29.6579 89.6595L27.0372 89.9137C26.0177 90.0449 24.9753 90.2094 23.9329 90.3739C22.8906 90.5383 21.8482 90.7028 20.8287 90.834L18.5862 91.2503L18.2766 91.2926C16.0135 91.6019 13.8449 91.8982 11.5928 92.3163L9.1964 92.5289C8.24337 92.7058 7.31313 92.8495 6.38289 92.9931C5.45265 93.1368 4.52242 93.2805 3.56938 93.4574C3.76523 93.8856 3.82802 94.2224 3.89081 94.5592L4.33782 96.3345L5.86724 102.671L6.16027 104.243C6.67007 106.355 7.20081 108.579 7.59849 110.712L7.89152 112.284C8.38039 114.283 8.75715 116.304 9.1339 118.325L10.7037 126.744C10.8028 127.581 10.9239 128.387 11.0429 129.178C11.1663 129.998 11.2874 130.803 11.3795 131.613L11.4976 132.869C11.5567 133.497 11.649 134.147 11.7413 134.798C11.8336 135.449 11.9259 136.099 11.985 136.727L12.278 138.299C12.5083 139.534 12.6054 140.677 12.7026 141.821L12.8133 143.658C12.8402 145.047 12.9792 146.415 13.1183 147.783C14.5833 146.93 16.3354 146.373 18.2415 146.019L21.2688 145.457C21.9415 145.332 22.5914 145.24 23.2414 145.149C23.8913 145.057 24.5412 144.966 25.214 144.841L28.1501 144.412L31.8501 143.725L35.1928 142.988L40.3504 142.031L44.3165 141.527C44.9893 141.402 45.6829 141.389 46.2645 141.397L44.4016 131.406L44.0114 128.691L42.7974 122.18L42.491 119.914C42.1979 118.342 41.9258 116.883 41.7449 115.291L41.2007 112.372C41.1086 111.561 40.9875 110.756 40.8642 109.936C40.7452 109.145 40.6241 108.34 40.5249 107.503L40.1691 105.595C40.0199 104.794 39.8943 103.959 39.7711 103.14C39.6523 102.35 39.5357 101.575 39.4021 100.859L39.1794 99.0419C39.0747 98.4806 38.9981 97.914 38.9215 97.3475C38.8449 96.781 38.7682 96.2145 38.6636 95.6532L38.2868 93.6326Z" stroke="#7831B2" stroke-width="2" mask="url(#path-1-inside-1_431_8862)"/>
<path fill-rule="evenodd" clip-rule="evenodd" d="M2.73495 90.1012C14.5795 85.8117 27.7321 84.183 40.3092 83.8226C41.9208 83.7557 42.4306 85.8679 41.4559 86.8618C41.8349 89.0496 42.2156 91.237 42.5963 93.4243L42.598 93.4341C45.2714 108.793 47.9428 124.142 49.9971 139.516C50.1018 140.077 49.8492 140.589 49.4425 140.897C49.6802 141.55 49.3783 142.419 48.3901 142.718L48.278 142.739C48.1793 143.454 47.5903 144.028 46.8339 143.704C46.7113 143.669 46.5835 143.605 46.4556 143.542C46.3278 143.478 46.2 143.415 46.0774 143.38C42.0301 144.381 37.8144 145.115 33.6483 145.841C31.993 146.129 30.3455 146.417 28.7195 146.718C27.5504 146.935 26.3227 147.222 25.0633 147.516C21.008 148.463 16.6242 149.486 12.8131 148.51C12.0492 148.768 11.3137 148.556 11.1253 147.546C8.27421 129.143 5.35286 110.986 0.819936 92.8958C0.519438 91.9063 1.19964 91.1993 1.96356 90.9413C2.12501 90.5629 2.30739 90.2968 2.73495 90.1012ZM39.0341 92.538C38.7201 90.8541 38.4271 89.2824 38.2462 87.69C35.6255 87.9442 33.0049 88.1984 30.4051 88.5649L27.7845 88.8191C26.7649 88.9503 25.7226 89.1148 24.6802 89.2793C23.6378 89.4438 22.5955 89.6082 21.5759 89.7394L19.3335 90.1557L19.0239 90.198C16.7608 90.5073 14.5921 90.8036 12.3401 91.2217L9.94366 91.4343C8.99062 91.6112 8.06039 91.7549 7.13015 91.8986C6.19991 92.0422 5.26968 92.1859 4.31664 92.3628C4.51249 92.791 4.57528 93.1278 4.63807 93.4646L5.08508 95.2399L6.6145 101.576L6.90753 103.148C7.41733 105.26 7.94807 107.484 8.34575 109.617L8.63878 111.189C9.12765 113.189 9.5044 115.21 9.88116 117.23L11.451 125.65C11.5501 126.487 11.6712 127.292 11.7902 128.083C11.9136 128.903 12.0347 129.708 12.1267 130.519L12.2449 131.774C12.3039 132.402 12.3962 133.053 12.4886 133.703C12.5809 134.354 12.6732 135.005 12.7323 135.633L13.0253 137.204C13.2555 138.439 13.3527 139.583 13.4499 140.726L13.5605 142.564C13.5875 143.953 13.7265 145.32 13.8656 146.688C15.3306 145.836 17.0827 145.278 18.9888 144.924L22.016 144.362C22.6888 144.237 23.3387 144.146 23.9886 144.054C24.6386 143.963 25.2885 143.871 25.9612 143.746L28.8973 143.317L32.5973 142.63L35.9401 141.894L41.0977 140.936L45.0638 140.432C45.7365 140.307 46.4302 140.295 47.0117 140.303L45.1489 130.312L44.7587 127.597L43.5447 121.085L43.2382 118.819C42.9452 117.248 42.6731 115.788 42.4922 114.196L41.948 111.277C41.8559 110.467 41.7348 109.662 41.6114 108.842C41.4924 108.051 41.3713 107.246 41.2722 106.408L40.9164 104.5C40.7671 103.7 40.6416 102.865 40.5183 102.045C40.3995 101.256 40.2829 100.48 40.1494 99.7642L39.9266 97.9473C39.822 97.386 39.7454 96.8195 39.6687 96.253C39.5921 95.6864 39.5155 95.1199 39.4108 94.5586L39.0341 92.538Z" stroke="#7831B2" stroke-width="2" mask="url(#path-1-inside-1_431_8862)"/>
<path fill-rule="evenodd" clip-rule="evenodd" d="M151.022 36.0171C150.972 36.1478 150.914 36.2698 150.845 36.3807C151.463 39.8518 152.083 43.3225 152.703 46.7929L152.706 46.8084C157.058 71.1786 161.407 95.5317 165.126 119.861C165.292 120.752 165.087 121.528 164.702 121.968C153.587 124.462 130.671 129.577 127.927 130.086C127.17 130.411 126.394 130.002 126.095 128.398C121.241 99.2358 116.341 70.4514 109.795 41.6038C109.383 40.0204 110.007 38.9824 110.764 38.6575C144.956 31.1621 151.826 33.5914 151.022 36.0171ZM148.956 45.031C148.458 42.357 147.992 39.8613 147.64 37.3446C144.978 37.4699 142.317 37.5951 139.689 37.8986L137.027 38.0238C135.995 38.1232 134.943 38.2724 133.891 38.4216C132.839 38.5707 131.787 38.7199 130.755 38.8193L128.498 39.2382L128.185 39.2723C125.896 39.5212 123.703 39.7596 121.437 40.1804L119.001 40.2637C118.042 40.4417 117.103 40.57 116.164 40.6982C115.224 40.8265 114.285 40.9547 113.326 41.1327C113.572 41.8248 113.672 42.3596 113.771 42.8944L114.416 45.7257L116.649 55.8239L117.114 58.3196C117.859 61.6857 118.636 65.2301 119.268 68.6171L119.733 71.1128C120.444 74.3006 121.042 77.5094 121.641 80.7181L124.133 94.0879C124.323 95.4113 124.532 96.6867 124.737 97.9401C124.949 99.2391 125.158 100.514 125.337 101.795L125.59 103.777C125.716 104.768 125.879 105.798 126.042 106.829C126.205 107.859 126.368 108.889 126.494 109.88L126.96 112.376C127.325 114.337 127.545 116.14 127.764 117.944L128.07 120.838C128.244 123.019 128.53 125.179 128.816 127.339C130.229 126.155 131.968 125.463 133.886 125.107L136.932 124.541C137.609 124.416 138.266 124.34 138.923 124.264C139.58 124.188 140.237 124.112 140.914 123.986L143.881 123.62L147.604 122.929L150.956 122.122L156.146 121.159L160.162 120.782C160.839 120.656 161.549 120.709 162.146 120.783L159.188 104.917L158.503 100.618L156.575 90.2785L156.024 86.6922C155.558 84.1965 155.126 81.8791 154.774 79.3624L153.909 74.7276C153.73 73.4468 153.521 72.1714 153.309 70.8725C153.104 69.6191 152.895 68.3437 152.706 67.0203L152.141 63.9898C151.904 62.7188 151.688 61.3962 151.475 60.0981C151.271 58.8472 151.07 57.619 150.858 56.4818L150.439 53.6086C150.273 52.7173 150.135 51.8207 149.997 50.9242C149.859 50.0276 149.721 49.131 149.555 48.2397L148.956 45.031Z" stroke="#7831B2" stroke-width="2" mask="url(#path-1-inside-1_431_8862)"/>
<path fill-rule="evenodd" clip-rule="evenodd" d="M149.93 35.264C149.88 35.3947 149.822 35.5166 149.754 35.6275C150.372 39.0986 150.992 42.5693 151.611 46.0397L151.614 46.0553C155.966 70.4254 160.315 94.7785 164.034 119.107C164.2 119.999 163.995 120.775 163.61 121.215C152.495 123.709 129.579 128.824 126.835 129.333C126.079 129.658 125.302 129.249 125.003 127.644C120.149 98.4826 115.249 69.6982 108.704 40.8506C108.292 39.2672 108.915 38.2292 109.672 37.9044C143.864 30.409 150.734 32.8383 149.93 35.264ZM147.864 44.2778C147.366 41.6038 146.901 39.1081 146.548 36.5915C143.887 36.7167 141.225 36.8419 138.597 37.1454L135.935 37.2706C134.903 37.37 133.851 37.5192 132.799 37.6684C131.747 37.8176 130.695 37.9668 129.663 38.0661L127.407 38.4851L127.094 38.5191C124.805 38.768 122.611 39.0065 120.345 39.4272L117.909 39.5105C116.95 39.6886 116.011 39.8168 115.072 39.945C114.133 40.0733 113.193 40.2015 112.234 40.3796C112.48 41.0717 112.58 41.6065 112.68 42.1412L113.324 44.9725L115.557 55.0708L116.023 57.5665C116.767 60.9325 117.544 64.4769 118.176 67.8639L118.641 70.3596C119.352 73.5474 119.951 76.7562 120.549 79.9649L123.042 93.3348C123.231 94.6582 123.44 95.9335 123.645 97.1869C123.857 98.4859 124.066 99.7612 124.245 101.042L124.498 103.024C124.624 104.015 124.787 105.045 124.95 106.075C125.113 107.106 125.276 108.136 125.402 109.127L125.868 111.622C126.233 113.583 126.453 115.387 126.672 117.191L126.979 120.085C127.152 122.266 127.438 124.426 127.724 126.586C129.137 125.401 130.876 124.71 132.794 124.354L135.84 123.788C136.517 123.662 137.174 123.587 137.832 123.511C138.489 123.435 139.146 123.359 139.823 123.233L142.789 122.867L146.513 122.176L149.864 121.369L155.054 120.406L159.07 120.029C159.747 119.903 160.457 119.956 161.054 120.029L158.096 104.164L157.411 99.8646L155.484 89.5253L154.932 85.9391C154.466 83.4434 154.034 81.1259 153.682 78.6093L152.818 73.9744C152.638 72.6936 152.43 71.4182 152.217 70.1193C152.012 68.8659 151.804 67.5905 151.614 66.2671L151.049 63.2366C150.812 61.9657 150.596 60.643 150.383 59.3449C150.179 58.094 149.978 56.8658 149.766 55.7286L149.347 52.8554C149.181 51.9641 149.043 51.0675 148.905 50.171C148.767 49.2744 148.629 48.3779 148.463 47.4865L147.864 44.2778Z" stroke="#7831B2" stroke-width="2" mask="url(#path-1-inside-1_431_8862)"/>
<path fill-rule="evenodd" clip-rule="evenodd" d="M91.4829 55.4173C92.359 55.1385 93.3397 55.421 93.549 56.5436C94.9645 63.4442 96.2134 70.4117 97.4616 77.3752C98.4598 82.9442 99.4576 88.5106 100.54 94.0384C101.197 97.5627 101.892 101.089 102.588 104.62C104.331 113.46 106.079 122.325 107.244 131.238C107.306 131.575 107.348 131.799 107.278 132.045C107.229 132.402 107.046 132.668 106.619 132.864C102.259 134.808 97.2163 135.57 92.3953 136.299C91.2956 136.465 90.2073 136.629 89.1412 136.806C82.6382 138.013 76.2054 138.975 69.5558 139.396C68.7984 139.219 68.3771 138.011 68.2611 137.43C67.4643 135.022 66.8005 132.707 66.1158 130.279L65.8362 129.401C63.6983 121.668 62.1001 113.718 60.5019 105.769L60.2014 104.779L59.3433 100.176C58.8716 97.6465 58.3799 95.1109 57.8875 92.5713C56.6538 86.2084 55.4153 79.821 54.4739 73.4378L54.2855 72.4275C53.9162 69.8247 53.5679 67.3341 53.3107 64.7105L53.0596 63.3634C53.0072 63.0827 52.9882 62.825 52.9691 62.5672C52.95 62.3094 52.931 62.0516 52.8786 61.7709C52.8443 60.9643 53.3211 60.4112 53.8608 60.1949C53.9311 59.9495 54.0223 59.8165 54.2465 59.7748C65.5723 55.8139 77.9535 55.0253 89.7742 54.3407C90.5799 54.3073 91.1331 54.7853 91.4829 55.4173ZM90.6263 57.6669L90.5142 57.6877C88.6784 57.7962 86.9756 57.9962 85.2729 58.1962L80.9495 58.6503C78.4619 58.996 75.8412 59.2502 73.4448 59.4628L69.836 60.0167C66.7877 60.4664 63.7186 60.8039 60.6285 61.0291L58.8136 61.2499C57.7836 61.3249 56.8657 61.3792 55.8147 61.342L56.4636 64.8221L56.6654 66.5268L58.0678 74.0482L58.452 75.4868C58.7585 77.7528 59.1771 79.998 59.7497 82.4469L59.8185 84.0602L61.1162 91.0203L61.2552 92.3882L62.5948 99.5728C63.1046 101.685 63.5232 103.93 63.9418 106.175L64.2977 108.084C64.5735 109.252 64.8265 110.454 65.0796 111.655C65.3326 112.857 65.5856 114.058 65.8615 115.227L66.2457 116.665C66.4655 117.844 66.7133 119.018 66.9611 120.191C67.2089 121.365 67.4567 122.538 67.6764 123.717L67.9695 125.289C68.3956 126.952 68.7304 128.748 69.0444 130.432L69.2253 132.024L70.1044 136.739C72.438 136.19 74.7926 135.753 77.035 135.336L80.2866 134.733C82.4169 134.337 84.5472 133.942 86.6984 133.658L89.929 132.943C92.599 132.331 95.3811 131.698 98.1842 131.178L100.427 130.761C101.66 130.533 102.914 130.416 104.077 130.432C103.875 129.657 103.705 128.904 103.536 128.152C103.367 127.399 103.197 126.647 102.995 125.871L102.744 124.524C102.566 123.57 102.365 122.649 102.164 121.728C101.964 120.807 101.763 119.886 101.585 118.932L100.845 115.585L99.6729 109.298L99.3455 106.92L98.2571 101.083L97.825 98.1429L96.318 90.0602L95.9547 88.7339L92.8988 72.3439C92.7389 70.8638 92.4458 69.2921 92.1528 67.7205L91.9091 65.7913C91.8044 65.2299 91.7226 64.6354 91.6407 64.0408C91.5589 63.4462 91.477 62.8517 91.3724 62.2904L91.0584 60.6065C90.9822 59.5753 90.8147 58.6772 90.6263 57.6669Z" stroke="#7831B2" stroke-width="2" mask="url(#path-1-inside-1_431_8862)"/>
<path fill-rule="evenodd" clip-rule="evenodd" d="M92.2302 54.3227C93.1062 54.0439 94.0869 54.3264 94.2962 55.449C95.7117 62.3496 96.9607 69.3171 98.2089 76.2807C99.2071 81.8496 100.205 87.416 101.287 92.9438C101.944 96.4681 102.639 99.9947 103.336 103.525C105.079 112.365 106.826 121.23 107.991 130.144C108.054 130.48 108.096 130.705 108.025 130.95C107.976 131.308 107.794 131.574 107.366 131.769C103.006 133.714 97.9636 134.476 93.1426 135.204C92.0428 135.37 90.9545 135.535 89.8885 135.711C83.3854 136.918 76.9526 137.88 70.303 138.302C69.5456 138.124 69.1243 136.917 69.0084 136.335C68.2115 133.928 67.5478 131.612 66.863 129.184L66.5835 128.307C64.4456 120.573 62.8474 112.624 61.2492 104.674L60.9487 103.685L60.0905 99.0819C59.6188 96.552 59.1272 94.0163 58.6348 91.4767C57.4011 85.1139 56.1626 78.7264 55.2212 72.3432L55.0328 71.3329C54.6635 68.7301 54.3151 66.2395 54.058 63.6159L53.8068 62.2688C53.7545 61.9882 53.7354 61.7304 53.7164 61.4726C53.6973 61.2148 53.6782 60.957 53.6259 60.6764C53.5915 59.8697 54.0684 59.3166 54.6081 59.1003C54.6783 58.8549 54.7695 58.7219 54.9938 58.6802C66.3195 54.7193 78.7008 53.9307 90.5214 53.2461C91.3272 53.2127 91.8803 53.6907 92.2302 54.3227ZM91.3736 56.5723L91.2615 56.5931C89.4257 56.7016 87.7229 56.9016 86.0201 57.1016L81.6967 57.5558C79.2091 57.9014 76.5885 58.1557 74.192 58.3682L70.5832 58.9221C67.535 59.3718 64.4659 59.7093 61.3758 59.9345L59.5609 60.1553C58.5309 60.2304 57.613 60.2846 56.562 60.2474L57.2108 63.7275L57.4127 65.4322L58.815 72.9536L59.1993 74.3922C59.5058 76.6582 59.9244 78.9034 60.497 81.3523L60.5658 82.9656L61.8635 89.9257L62.0025 91.2936L63.3421 98.4783C63.8519 100.59 64.2705 102.836 64.6891 105.081L65.0449 106.989C65.3208 108.158 65.5738 109.359 65.8268 110.561C66.0799 111.762 66.3329 112.964 66.6087 114.132L66.993 115.571C67.2127 116.75 67.4605 117.923 67.7083 119.097C67.9561 120.27 68.2039 121.444 68.4237 122.622L68.7167 124.194C69.1428 125.857 69.4777 127.653 69.7917 129.337L69.9726 130.93L70.8517 135.645C73.1853 135.095 75.5398 134.658 77.7823 134.242L81.0338 133.638C83.1641 133.243 85.2944 132.847 87.4457 132.564L90.6763 131.848C93.3463 131.236 96.1284 130.604 98.9314 130.083L101.174 129.667C102.407 129.438 103.661 129.321 104.825 129.338C104.622 128.562 104.453 127.81 104.283 127.057C104.114 126.305 103.945 125.552 103.742 124.777L103.491 123.429C103.313 122.475 103.112 121.554 102.912 120.633C102.711 119.712 102.51 118.791 102.332 117.837L101.592 114.49L100.42 108.204L100.093 105.825L99.0043 99.9879L98.5723 97.0483L97.0653 88.9656L96.702 87.6393L93.6461 71.2494C93.4861 69.7692 93.1931 68.1975 92.9 66.6259L92.6563 64.6967C92.5517 64.1354 92.4698 63.5408 92.388 62.9462C92.3061 62.3517 92.2243 61.7571 92.1196 61.1958L91.8057 59.5119C91.7294 58.4807 91.562 57.5826 91.3736 56.5723Z" stroke="#7831B2" stroke-width="2" mask="url(#path-1-inside-1_431_8862)"/>
<path fill-rule="evenodd" clip-rule="evenodd" d="M198.035 -15.1489C198.899 -15.4995 199.934 -14.9305 200.277 -13.0911C202.517 -1.76945 204.594 9.64114 206.67 21.0454L206.67 21.0464C208.331 30.1663 209.99 39.2822 211.732 48.3452C212.808 54.1195 213.924 59.902 215.041 65.6908L215.042 65.6918C217.839 80.1873 220.644 94.7231 222.859 109.271C222.962 109.823 223.03 110.191 222.987 110.58C222.986 110.604 222.986 110.628 222.985 110.651C222.242 111.948 186.74 119.038 184.396 117.04C184.056 116.301 183.816 115.385 183.708 114.827C182.616 110.843 181.672 107.022 180.693 103.017L180.306 101.566C177.232 88.8151 174.684 75.7761 172.137 62.7371L171.716 61.1025L170.31 53.5609C169.537 49.4155 168.743 45.2586 167.948 41.0952C165.956 30.6642 163.956 20.1928 162.26 9.76211L161.951 8.10664C161.275 3.85516 160.633 -0.212377 160.068 -4.4847L159.657 -6.692C159.571 -7.15186 159.522 -7.57093 159.473 -7.99001C159.451 -8.1753 159.442 -8.23188 159.426 -8.334C159.405 -8.46284 159.373 -8.66418 159.289 -9.28802C157.57 -12.2775 191.576 -15.155 198.035 -15.1489ZM197.417 -11.6087L197.305 -11.5878C195.44 -11.6223 193.722 -11.4936 192.004 -11.3649L187.635 -11.1248C185.131 -10.8502 182.48 -10.7388 180.054 -10.669L176.427 -10.186C173.429 -9.81551 170.808 -9.32884 167.522 -8.71867L167.301 -8.67767L165.47 -8.52816C164.426 -8.52454 163.493 -8.54174 162.414 -8.72205L163.305 -3.94376L163.707 -1.16381L166.005 11.1602L166.563 13.5306C167.137 17.2303 167.823 20.9091 168.69 24.935L168.945 27.5518L171.072 38.9562L171.371 41.1843L173.566 52.9565C174.33 56.4306 175.015 60.1094 175.701 63.7882L176.284 66.9152C176.701 68.8362 177.097 70.8083 177.494 72.7805C177.891 74.7526 178.288 76.7248 178.704 78.6458L179.262 81.0161C179.622 82.9475 180.01 84.8737 180.398 86.7999C180.787 88.726 181.175 90.6522 181.535 92.5836L182.015 95.1588C182.642 97.897 183.19 100.84 183.705 103.599L184.073 106.195L185.858 115.768C188.181 115.147 190.538 114.709 192.784 114.292L196.039 113.688C198.172 113.292 200.305 112.896 202.472 112.684L205.694 111.896C208.354 111.212 211.126 110.507 213.932 109.986L216.178 109.569C217.413 109.34 218.682 109.294 219.873 109.454C219.577 108.177 218.973 105.092 218.713 103.856C218.454 102.62 218.194 101.383 217.898 100.106L217.486 97.8988C217.195 96.3353 216.884 94.8229 216.573 93.3106C216.262 91.7983 215.951 90.286 215.659 88.7225L214.518 83.2252L212.598 72.9245L211.99 69.0408L210.206 59.4759L209.427 54.6726L206.958 41.4289L206.434 39.2424L201.427 12.387C201.093 9.97495 200.613 7.39977 200.133 4.8246L199.662 1.67677C199.491 0.757063 199.339 -0.213838 199.187 -1.18474C199.035 -2.15564 198.883 -3.12654 198.711 -4.04624L198.197 -6.80536C198 -8.48167 197.726 -9.95321 197.417 -11.6087Z" stroke="#7831B2" stroke-width="2" mask="url(#path-1-inside-1_431_8862)"/>
<path fill-rule="evenodd" clip-rule="evenodd" d="M196.943 -15.902C197.807 -16.2527 198.842 -15.6837 199.185 -13.8443C201.425 -2.52263 203.502 8.88797 205.578 20.2922L205.579 20.2932C207.239 29.4131 208.898 38.529 210.64 47.592C211.716 53.3663 212.832 59.1488 213.95 64.9377L213.95 64.9386C216.747 79.4342 219.553 93.9699 221.767 108.518C221.87 109.07 221.939 109.438 221.895 109.827C221.894 109.851 221.894 109.874 221.893 109.898C221.15 111.194 185.648 118.285 183.304 116.287C182.964 115.548 182.724 114.632 182.616 114.074C181.525 110.09 180.58 106.268 179.601 102.263L179.214 100.813C176.14 88.0619 173.593 75.0229 171.045 61.984L170.624 60.3493L169.218 52.8077C168.445 48.6624 167.651 44.5054 166.856 40.342C164.864 29.911 162.864 19.4396 161.168 9.00894L160.86 7.35347C160.183 3.10198 159.541 -0.965549 158.977 -5.23787L158.565 -7.44518C158.479 -7.90503 158.43 -8.32411 158.381 -8.74318C158.359 -8.92847 158.35 -8.98506 158.334 -9.08717C158.313 -9.21602 158.281 -9.41735 158.197 -10.0412C156.478 -13.0306 190.484 -15.9082 196.943 -15.902ZM196.325 -12.3618L196.213 -12.341C194.348 -12.3754 192.63 -12.2468 190.912 -12.1181L186.543 -11.878C184.039 -11.6034 181.388 -11.4919 178.962 -11.4222L175.336 -10.9392C172.337 -10.5687 169.716 -10.082 166.43 -9.47184L166.209 -9.43084L164.378 -9.28134C163.334 -9.27771 162.401 -9.29491 161.322 -9.47523L162.213 -4.69694L162.616 -1.91698L164.913 10.4071L165.471 12.7775C166.045 16.4771 166.731 20.1559 167.598 24.1818L167.853 26.7987L169.98 38.203L170.279 40.4311L172.474 52.2034C173.238 55.6774 173.924 59.3562 174.61 63.035L175.193 66.162C175.609 68.083 176.006 70.0551 176.402 72.0273C176.799 73.9995 177.196 75.9716 177.612 77.8926L178.17 80.263C178.53 82.1944 178.918 84.1205 179.307 86.0467C179.695 87.9728 180.083 89.899 180.443 91.8304L180.923 94.4056C181.55 97.1439 182.099 100.087 182.613 102.846L182.981 105.442L184.766 115.015C187.089 114.394 189.447 113.956 191.692 113.539L194.947 112.935C197.08 112.539 199.213 112.143 201.381 111.931L204.602 111.143C207.262 110.458 210.034 109.753 212.841 109.232L215.086 108.816C216.321 108.586 217.59 108.541 218.781 108.701C218.485 107.423 217.881 104.339 217.621 103.103C217.362 101.866 217.102 100.63 216.806 99.3529L216.395 97.1456C216.103 95.5821 215.792 94.0698 215.481 92.5575C215.17 91.0452 214.859 89.5329 214.567 87.9694L213.426 82.472L211.506 72.1713L210.898 68.2877L209.114 58.7228L208.335 53.9194L205.866 40.6757L205.342 38.4892L200.335 11.6338C200.001 9.22177 199.521 6.6466 199.041 4.07143L198.57 0.923594C198.399 0.00389099 198.247 -0.967012 198.095 -1.93791C197.943 -2.90881 197.791 -3.87971 197.619 -4.79942L197.105 -7.55853C196.908 -9.23484 196.634 -10.7064 196.325 -12.3618Z" stroke="#7831B2" stroke-width="2" mask="url(#path-1-inside-1_431_8862)"/>
</svg>
