<svg width="176" height="179" viewBox="0 0 176 179" fill="none" xmlns="http://www.w3.org/2000/svg">
<path d="M2.65813 43.5677C37.2595 65.7063 110.783 103.19 135.428 85.4293C161 67 202.21 3.88199 221.118 -24.6147M74.9418 82.399C66.5089 109.995 48.1456 167.028 42.1551 174.392M42.1551 174.392C48.1456 167.028 69.2827 111.7 77.7155 84.1038M42.1551 174.392C82.5626 166.636 181.695 143.2 254.961 111.504C261.427 81.4431 236.138 7.13351 222.686 -26.2636C166.095 -14.4596 43.0391 15.3193 3.53645 40.0023C-0.0351177 51.69 27.7937 134.465 42.1551 174.392ZM163.36 58.0006C187.355 75.6727 238.298 110.816 250.103 110.011M4.30418 45.1388C4.30418 45.1388 104.685 109.544 137.074 87.0004C169.463 64.4571 199.357 1.49669 218.265 -27M167.355 57.0978C191.351 74.77 239.254 110.471 251.06 109.666M40.9331 177C81.3406 169.244 180.472 145.808 253.738 114.112C260.204 84.0506 234.915 9.74103 221.463 -23.6561C164.873 -11.8521 41.8161 17.9268 2.31347 42.6099C-1.2581 54.2975 26.5718 137.073 40.9331 177Z" stroke="#7831B2" stroke-width="3" stroke-linecap="round"/>
</svg>
