<svg width="153" height="117" viewBox="0 0 153 117" fill="none" xmlns="http://www.w3.org/2000/svg">
<path d="M90.2224 -51.6455L89.7229 -51.3479C82.94 -47.3063 81.039 -47.764 36.8734 -20.6997M3.82894 0.508988C13.0387 20.8234 51.9283 95.6848 66.0522 111.893M66.0522 111.893C67.7708 113.865 69.1227 114.969 70.0098 115L92.123 102.325M66.0522 111.893C51.7754 96.8047 10.1809 22.2956 2 1.59868M66.0522 111.893C67.6608 113.593 68.9226 114.538 69.7508 114.568L77.1644 110.737L84.3605 106.728L74.146 86.5153L70.2206 88.8543M36.8734 -20.6997C27.3956 -14.8918 15.9714 -7.81649 2.135 0.84273C11.3734 -4.1655 24.2492 -11.3539 37.3814 -18.8621M36.8734 -20.6997L37.3814 -18.8621M37.3814 -18.8621C60.4468 -32.0495 84.3035 -46.2234 90.6328 -51.3032L97.5171 -39.6766M23.5953 12.0526C30.905 7.28321 38.2288 2.70003 45.156 -1.52091L49.6454 13.0401C43.6522 16.7238 37.4154 20.6513 31.1888 24.714M31.4481 25.1461L49.6454 14.303L54.7751 29.3152M39.8475 38.2099L54.7751 29.3152M54.7751 29.3152L53.9908 28.6103C49.263 31.5508 44.4225 34.6236 39.5882 37.7778M54.7751 29.3152L59.5126 42.564C55.4472 45.1084 51.3122 47.7439 47.1817 50.4389M47.441 50.8714L59.5126 43.6784L63.3778 57.572C60.5247 59.3788 57.6488 61.225 54.775 63.1M55.0343 63.5321L64.4821 57.9025L68.8996 71.5492C66.7284 72.9335 64.5476 74.339 62.368 75.7611M62.6272 76.1932L68.8996 72.4558L74.146 85.7126C72.7525 86.6082 71.3567 87.5118 69.9614 88.4222M138.053 -53.7548C126.683 -47.9332 68.5657 -28.8587 40.843 -20.4528C127.455 -52.7348 128.121 -50.8333 137.183 -53.9875L137.732 -54.1787C137.782 -54.1961 137.89 -54.0509 138.053 -53.7548ZM138.053 -53.7548C138.057 -53.7569 138.061 -53.759 138.065 -53.7611L138.092 -53.6821M138.053 -53.7548C138.065 -53.7315 138.078 -53.7073 138.092 -53.6821M138.092 -53.6821L181.65 72.9235M138.092 -53.6821C142.689 -45.0765 186.148 72.1926 182.4 73.497L181.907 73.6689M181.65 72.9235L181.907 73.6689M181.65 72.9235L103.093 98.7903M181.65 72.9235L182.55 72.6273M181.907 73.6689L174.697 76.1785M174.697 76.1785L103.093 98.7903M174.697 76.1785L172.606 76.9062M42.5696 -20.4398C47.486 1.31 70.4552 82.4628 81.0124 101.161M81.0124 101.161C82.2955 103.434 83.3953 104.784 84.257 104.992L103.093 98.7903M81.0124 101.161C70.0797 83.5297 44.3889 2.17862 40.5577 -19.7394M81.0124 101.161C81.888 102.573 82.669 103.577 83.3365 104.108C83.7823 104.463 84.3789 104.436 84.928 104.281L92.1263 102.253L103.093 98.7903M61.434 -6.87892L89.5729 -16.6737M67.3618 5.45849L95.9776 -4.50229M70.2313 23.7203L138.909 -0.185529M67.1952 4.98304C78.07 0.130971 95.811 -4.97774 95.811 -4.97774M70.065 23.2452C104.62 9.61709 138.743 -0.660656 138.743 -0.660656M75.1102 37.6465L143.788 13.7407M74.9439 37.1714C109.499 23.5433 143.622 13.2655 143.622 13.2655M84.8681 65.4989L153.546 41.593M84.7017 65.0234C119.256 51.3953 153.38 41.1176 153.38 41.1176M79.9891 51.5727L148.667 27.6668M79.8228 51.0972C114.377 37.4691 148.501 27.1914 148.501 27.1914M89.7474 79.4251L158.425 55.5192M89.5807 78.9499C124.135 65.3218 158.259 55.0441 158.259 55.0441M61.2676 -7.35433L89.4065 -17.1491M37.6243 -18.669L138.651 -55L184 72.6514L82.431 105.123L37.6243 -18.669Z" stroke="#7831B2" stroke-width="3" stroke-linecap="round"/>
</svg>
