<svg width="128" height="188" viewBox="0 0 128 188" fill="none" xmlns="http://www.w3.org/2000/svg">
<path d="M2 16.7366C38.7286 5.55435 115.303 -20.471 132.78 -28.9346C133.329 -29.2004 133.955 -28.914 134.152 -28.337L192.706 142.553C192.884 143.073 192.609 143.64 192.09 143.821L180.782 147.774M2 16.7366C119.053 -27.0705 120.339 -25.4583 132.585 -29.7386L133.328 -29.9981C135.216 -30.6581 198.963 141.419 193.696 143.26L180.46 147.886M2 16.7366C7.72276 49.6112 49.5363 181.014 60.619 185.287C60.7798 185.349 60.9203 185.33 61.0861 185.283L71.6933 182.283L183.285 146.899M3.5 16.2785C10.8987 49.1445 49.7517 181.481 60.8239 185.924C60.9976 185.994 61.1523 185.969 61.33 185.91L193.898 142.08M78.4225 18.1435L116.451 4.85181M86.4336 34.8857L125.107 21.3687M42.1027 75.7125L134.919 43.2718M116.226 4.20676L78.1975 17.4984M86.2085 34.2405C100.905 27.6562 124.882 20.7236 124.882 20.7236M41.8778 75.0671C88.5773 56.5736 134.694 42.6265 134.694 42.6265M48.6965 94.6105L141.512 62.1698M48.4714 93.9654C95.1709 75.4718 141.287 61.5247 141.287 61.5247M61.884 132.407L154.7 99.966M61.659 131.762C108.359 113.268 154.475 99.3209 154.475 99.3209M55.2902 113.509L148.106 81.0679M55.0652 112.864C101.765 94.3699 147.881 80.4228 147.881 80.4228M68.4778 151.305L161.294 118.864M68.2528 150.66C114.952 132.166 161.069 118.219 161.069 118.219" stroke="#7831B2" stroke-width="3" stroke-linecap="round"/>
</svg>
