<svg width="155" height="168" viewBox="0 0 155 168" fill="none" xmlns="http://www.w3.org/2000/svg">
<path d="M144.792 25.701C144.793 25.7007 144.793 25.7005 144.793 25.7003C144.798 25.6727 144.8 25.576 144.709 25.3765C144.641 25.227 144.553 25.0213 144.446 24.7624C144.409 24.6731 144.371 24.5808 144.331 24.4853C144.231 24.554 144.139 24.6192 144.056 24.681C144.162 24.9059 144.284 25.1481 144.422 25.408C144.535 25.6156 144.626 25.6894 144.669 25.7128M144.792 25.701L144.793 25.6999C144.793 25.6989 144.794 25.6973 144.794 25.6953C144.795 25.6944 144.795 25.6933 144.795 25.6922L145.282 25.8073L144.793 25.7031C144.793 25.7023 144.793 25.7014 144.793 25.7005L144.792 25.7015C144.792 25.7019 144.792 25.7022 144.792 25.7022L144.792 25.7022L144.792 25.701ZM144.792 25.701C144.789 25.7036 144.781 25.71 144.763 25.7182C144.747 25.7253 144.726 25.7347 144.669 25.7128M144.669 25.7128C144.671 25.7143 144.674 25.7156 144.676 25.7167L144.465 26.1696L144.657 25.7081C144.661 25.7098 144.665 25.7113 144.669 25.7128ZM142.761 21.639C142.872 21.8638 142.974 22.0836 143.066 22.2986C143.159 22.2457 143.251 22.1942 143.345 22.1441C143.334 22.1202 143.323 22.0965 143.312 22.0731C143.124 21.6615 142.969 21.5024 142.889 21.4565C142.819 21.4159 142.765 21.4085 142.687 21.4389C142.697 21.4836 142.718 21.5492 142.761 21.639ZM142.761 21.639C142.761 21.6394 142.762 21.6398 142.762 21.6402L142.312 21.8587L142.761 21.6376C142.761 21.6381 142.761 21.6386 142.761 21.639ZM138.056 28.3842C138.056 28.3843 138.056 28.3845 138.056 28.3846L137.794 27.9585L138.057 28.3838C138.057 28.3839 138.057 28.3841 138.056 28.3842ZM138.056 28.3842C138.153 28.325 138.254 28.2628 138.359 28.1977C138.416 28.3797 138.477 28.5661 138.541 28.7569C138.616 28.9713 138.638 29.139 138.606 29.2599C138.575 29.3809 138.484 29.4753 138.336 29.5432C138.086 29.6571 137.846 29.6319 137.614 29.4678L138.056 28.3842ZM141.052 27.3597C140.902 27.2569 140.734 27.105 140.549 26.8943C140.654 26.8421 140.762 26.7909 140.872 26.7407C140.919 26.719 140.966 26.6955 141.011 26.6705C141.026 26.6868 141.042 26.7029 141.057 26.7186L141.057 26.7187L141.065 26.7261C141.229 26.8869 141.364 27.0254 141.472 27.1423L141.477 27.1476L141.482 27.1529C141.568 27.2407 141.623 27.3229 141.657 27.3983C141.678 27.4433 141.686 27.4738 141.689 27.4912C141.679 27.4976 141.664 27.5059 141.643 27.5154C141.564 27.5515 141.497 27.5605 141.432 27.553C141.363 27.5393 141.24 27.491 141.055 27.3619L141.055 27.3619L141.052 27.3597ZM140.347 25.8815C140.209 25.9461 140.074 26.0125 139.942 26.0805C139.922 26.0503 139.901 26.0199 139.881 25.9892C139.773 25.8192 139.671 25.6549 139.575 25.4963C139.703 25.4312 139.835 25.3664 139.97 25.302C140.097 25.514 140.223 25.7075 140.347 25.8815ZM142.272 24.046C142.374 23.9589 142.48 23.8743 142.59 23.7923C142.596 23.8078 142.602 23.8233 142.608 23.8388L142.608 23.8388L142.61 23.8461C142.681 24.0233 142.756 24.2069 142.837 24.3968C142.767 24.4598 142.702 24.5191 142.644 24.5747L142.644 24.5747L142.64 24.5782C142.55 24.666 142.467 24.7215 142.393 24.7553C142.383 24.7599 142.376 24.762 142.372 24.7629C142.37 24.7618 142.366 24.7598 142.36 24.7565C142.283 24.7046 142.215 24.6277 142.159 24.5063C142.111 24.4012 142.095 24.3156 142.097 24.2441C142.099 24.2388 142.104 24.2278 142.115 24.2109C142.14 24.1734 142.187 24.118 142.271 24.0469L142.272 24.046ZM143.003 24.7836C143.018 24.8161 143.032 24.8488 143.047 24.8819C143.027 24.9007 143.007 24.9191 142.989 24.937C142.864 25.0578 142.735 25.1488 142.6 25.2101C142.423 25.2911 142.253 25.2801 142.09 25.177C141.924 25.068 141.795 24.9137 141.704 24.7139C141.624 24.5377 141.588 24.3656 141.599 24.1976L143.003 24.7836ZM145.346 22.7892C145.159 22.8747 144.982 22.959 144.817 23.0423C144.757 22.897 144.697 22.7513 144.635 22.6053C144.674 22.5871 144.712 22.5694 144.75 22.552C144.955 22.4585 145.076 22.466 145.148 22.4899C145.219 22.5133 145.293 22.5643 145.361 22.7139C145.372 22.736 145.378 22.7549 145.383 22.7709C145.372 22.7765 145.36 22.7827 145.346 22.7892ZM143.447 23.2341C143.545 23.176 143.644 23.1197 143.744 23.0652C143.811 23.2248 143.877 23.384 143.941 23.5426C143.838 23.6108 143.74 23.6775 143.647 23.7426C143.611 23.6537 143.575 23.5666 143.542 23.4812C143.51 23.3987 143.479 23.3163 143.447 23.2341ZM138.795 26.7431C138.699 26.8015 138.604 26.8594 138.512 26.9168C138.499 26.8645 138.486 26.8128 138.474 26.7615C138.426 26.5647 138.383 26.3779 138.346 26.201C138.46 26.1269 138.577 26.0533 138.699 25.98C138.806 26.1567 138.919 26.3394 139.039 26.5281L139.039 26.5281L139.043 26.5338C139.051 26.547 139.06 26.5602 139.069 26.5734C138.976 26.6298 138.884 26.6864 138.795 26.7431ZM139.461 24.4369C139.327 24.5014 139.196 24.5665 139.068 24.6322C138.981 24.4853 138.904 24.3582 138.836 24.2511C138.716 24.0506 138.608 23.8852 138.519 23.7744L138.129 24.088L138.519 23.7744C138.477 23.7233 138.432 23.6713 138.384 23.6258C138.348 23.5926 138.277 23.5292 138.177 23.4864C138.028 23.4193 137.843 23.4028 137.663 23.4852C137.464 23.576 137.35 23.7393 137.286 23.8781C137.261 23.9308 137.242 23.9859 137.225 24.0422L136.908 23.8114C136.878 23.789 136.846 23.7673 136.814 23.7464C136.842 23.6377 136.877 23.5341 136.918 23.4353C137.05 23.1182 137.228 22.9401 137.439 22.8439C137.698 22.7257 137.885 22.7292 138.037 22.7882L138.198 22.3744L138.037 22.7882C138.22 22.8592 138.464 23.043 138.758 23.4183L138.758 23.4183L138.762 23.4233C138.97 23.6816 139.203 24.0182 139.461 24.4369ZM137.166 24.3545C137.136 24.6512 137.153 25.0213 137.203 25.4496L137.203 25.4496L137.203 25.4554C137.215 25.5493 137.229 25.6463 137.245 25.7462C137.036 25.8968 136.839 26.0474 136.652 26.1981C136.569 25.894 136.482 25.5981 136.391 25.3104C136.382 25.2822 136.372 25.254 136.363 25.2258L136.592 24.9769L136.982 24.5541L137.166 24.3545ZM137.909 29.0641C137.829 29.0017 137.719 28.8716 137.586 28.6446C137.695 28.5921 137.806 28.5326 137.919 28.4664C137.967 28.614 138.016 28.7641 138.068 28.9169L138.068 28.9169L138.069 28.9214C138.096 28.9974 138.11 29.054 138.116 29.0938C138.044 29.1243 137.994 29.1223 137.909 29.0641ZM137.625 27.4754C137.594 27.4947 137.563 27.5137 137.532 27.5323L137.531 27.5332C137.396 27.6165 137.272 27.6851 137.159 27.7402C137.088 27.565 137.024 27.397 136.969 27.2362C137.123 27.1027 137.287 26.9679 137.462 26.8321C137.475 26.8865 137.488 26.9416 137.502 26.9974C137.54 27.1529 137.581 27.3122 137.625 27.4754Z" fill="#7831B2" stroke="#7831B2"/>
<path d="M149.785 36.6976C149.785 36.6973 149.785 36.6971 149.785 36.6969C149.79 36.6692 149.792 36.5726 149.701 36.373C149.633 36.2236 149.545 36.0179 149.438 35.759C149.401 35.6697 149.363 35.5773 149.323 35.4819C149.223 35.5505 149.131 35.6158 149.048 35.6776C149.154 35.9024 149.276 36.1447 149.414 36.4046C149.527 36.6122 149.618 36.686 149.661 36.7093M149.785 36.6976L149.785 36.6965C149.785 36.6954 149.786 36.6939 149.786 36.6919C149.787 36.6909 149.787 36.6899 149.787 36.6888L150.274 36.8039L149.785 36.6997C149.785 36.6989 149.785 36.698 149.785 36.697L149.785 36.698C149.784 36.6985 149.784 36.6988 149.784 36.6988L149.784 36.6988L149.785 36.6976ZM149.785 36.6976C149.782 36.7002 149.773 36.7066 149.755 36.7148C149.739 36.7219 149.719 36.7313 149.661 36.7093M149.661 36.7093C149.664 36.7108 149.666 36.7121 149.669 36.7132L149.457 37.1662L149.649 36.7047C149.653 36.7064 149.657 36.7079 149.661 36.7093ZM147.753 32.6356C147.864 32.8604 147.966 33.0802 148.058 33.2952C148.151 33.2423 148.244 33.1908 148.337 33.1407C148.326 33.1168 148.315 33.0931 148.305 33.0697C148.116 32.6581 147.961 32.4989 147.882 32.4531C147.811 32.4125 147.757 32.405 147.68 32.4355C147.689 32.4802 147.71 32.5457 147.753 32.6356ZM147.753 32.6356C147.754 32.636 147.754 32.6364 147.754 32.6368L147.304 32.8553L147.753 32.6342C147.753 32.6347 147.753 32.6352 147.753 32.6356ZM143.049 39.3808C143.048 39.3809 143.048 39.381 143.048 39.3812L142.786 38.9551L143.049 39.3804C143.049 39.3805 143.049 39.3806 143.049 39.3808ZM143.049 39.3808C143.145 39.3216 143.246 39.2594 143.351 39.1943C143.408 39.3762 143.469 39.5626 143.534 39.7535C143.608 39.9679 143.63 40.1356 143.598 40.2565C143.567 40.3775 143.477 40.4719 143.328 40.5398C143.079 40.6537 142.838 40.6285 142.607 40.4644L143.049 39.3808ZM146.044 38.3563C145.895 38.2534 145.726 38.1016 145.541 37.8908C145.646 37.8387 145.754 37.7875 145.864 37.7373C145.912 37.7155 145.958 37.6921 146.003 37.667C146.019 37.6834 146.034 37.6994 146.05 37.7152L146.05 37.7153L146.057 37.7226C146.221 37.8835 146.356 38.022 146.464 38.1388L146.469 38.1442L146.474 38.1494C146.56 38.2373 146.615 38.3195 146.649 38.3948C146.67 38.4399 146.678 38.4703 146.681 38.4878C146.671 38.4941 146.656 38.5025 146.635 38.512C146.556 38.5481 146.489 38.5571 146.425 38.5496C146.356 38.5359 146.232 38.4876 146.048 38.3585L146.048 38.3585L146.044 38.3563ZM145.34 36.8781C145.201 36.9427 145.066 37.0091 144.934 37.0771C144.914 37.0469 144.894 37.0164 144.873 36.9857C144.765 36.8158 144.663 36.6515 144.567 36.4929C144.695 36.4278 144.827 36.363 144.962 36.2986C145.089 36.5106 145.215 36.7041 145.34 36.8781ZM147.264 35.0425C147.366 34.9555 147.472 34.8709 147.582 34.7888C147.588 34.8044 147.594 34.8199 147.6 34.8354L147.6 34.8354L147.603 34.8427C147.673 35.0199 147.748 35.2035 147.829 35.3934C147.759 35.4563 147.695 35.5157 147.636 35.5713L147.636 35.5713L147.633 35.5747C147.542 35.6625 147.459 35.7181 147.385 35.7519C147.375 35.7565 147.368 35.7586 147.365 35.7595C147.362 35.7584 147.358 35.7564 147.352 35.753C147.275 35.7012 147.207 35.6243 147.151 35.5028C147.103 35.3978 147.088 35.3121 147.089 35.2407C147.091 35.2353 147.096 35.2244 147.108 35.2075C147.132 35.17 147.179 35.1146 147.263 35.0435L147.264 35.0425ZM147.996 35.7802C148.01 35.8126 148.024 35.8454 148.039 35.8785C148.019 35.8973 148 35.9157 147.981 35.9336C147.856 36.0543 147.727 36.1454 147.593 36.2067C147.415 36.2877 147.245 36.2767 147.082 36.1736C146.916 36.0646 146.788 35.9103 146.696 35.7105C146.616 35.5343 146.581 35.3621 146.591 35.1942L147.996 35.7802ZM150.338 33.7858C150.151 33.8712 149.974 33.9556 149.809 34.0389C149.749 33.8936 149.689 33.7479 149.628 33.6019C149.666 33.5837 149.704 33.5659 149.743 33.5486C149.947 33.4551 150.068 33.4626 150.14 33.4865C150.211 33.5099 150.285 33.5608 150.354 33.7105C150.364 33.7326 150.371 33.7515 150.375 33.7674C150.365 33.7731 150.352 33.7793 150.338 33.7858ZM148.439 34.2306C148.537 34.1725 148.637 34.1163 148.736 34.0618C148.803 34.2214 148.869 34.3805 148.934 34.5392C148.83 34.6074 148.732 34.6741 148.639 34.7392C148.603 34.6503 148.568 34.5632 148.534 34.4778C148.502 34.3952 148.471 34.3129 148.439 34.2306ZM143.787 37.7396C143.691 37.798 143.596 37.856 143.504 37.9134C143.491 37.8611 143.478 37.8093 143.466 37.7581C143.418 37.5613 143.376 37.3744 143.339 37.1975C143.452 37.1235 143.569 37.0498 143.691 36.9766C143.798 37.1533 143.911 37.336 144.031 37.5247L144.031 37.5247L144.035 37.5303C144.043 37.5436 144.052 37.5568 144.061 37.5699C143.968 37.6264 143.877 37.6829 143.787 37.7396ZM144.453 35.4335C144.319 35.498 144.188 35.5631 144.06 35.6288C143.973 35.4819 143.896 35.3548 143.829 35.2477C143.708 35.0471 143.6 34.8818 143.511 34.771L143.121 35.0846L143.511 34.771C143.47 34.7199 143.424 34.6679 143.376 34.6224C143.34 34.5892 143.269 34.5257 143.169 34.483C143.02 34.4159 142.835 34.3994 142.655 34.4818C142.456 34.5726 142.342 34.7359 142.278 34.8747C142.254 34.9274 142.234 34.9824 142.217 35.0388L141.9 34.808C141.87 34.7856 141.838 34.7639 141.806 34.743C141.835 34.6343 141.869 34.5307 141.911 34.4319C142.042 34.1148 142.221 33.9366 142.431 33.8405C142.69 33.7223 142.877 33.7258 143.029 33.7848L143.19 33.371L143.029 33.7848C143.212 33.8557 143.456 34.0396 143.75 34.4149L143.75 34.4149L143.754 34.4199C143.962 34.6781 144.195 35.0148 144.453 35.4335ZM142.158 35.351C142.129 35.6478 142.145 36.0179 142.195 36.4461L142.195 36.4461L142.195 36.452C142.208 36.5459 142.221 36.6428 142.237 36.7428C142.029 36.8934 141.831 37.044 141.644 37.1947C141.561 36.8906 141.474 36.5946 141.383 36.307C141.374 36.2787 141.365 36.2505 141.355 36.2224L141.585 35.9734L141.974 35.5507L142.158 35.351ZM142.902 40.0607C142.821 39.9983 142.711 39.8681 142.578 39.6412C142.687 39.5887 142.798 39.5292 142.912 39.4629C142.959 39.6105 143.008 39.7607 143.06 39.9135L143.06 39.9135L143.062 39.918C143.088 39.9939 143.102 40.0506 143.108 40.0903C143.036 40.1209 142.986 40.1189 142.902 40.0607ZM142.617 38.472C142.586 38.4913 142.555 38.5103 142.525 38.5289L142.523 38.5297C142.388 38.6131 142.265 38.6817 142.152 38.7368C142.08 38.5616 142.017 38.3936 141.961 38.2327C142.115 38.0992 142.279 37.9645 142.455 37.8286C142.467 37.8831 142.481 37.9382 142.494 37.9939C142.532 38.1495 142.573 38.3088 142.617 38.472Z" stroke="#7831B2"/>
<path d="M155.708 63.424C155.707 63.4245 155.706 63.4251 155.705 63.4256L155.539 63.0837L155.537 63.0778L155.487 62.9753L155.538 63.0768L155.541 63.0827L155.712 63.4217C155.711 63.4225 155.709 63.4233 155.708 63.424ZM155.708 63.424C155.8 63.3798 155.886 63.3395 155.969 63.303C156.004 63.3532 156.037 63.3979 156.068 63.437C156.159 63.5502 156.241 63.6247 156.316 63.6608C156.388 63.691 156.451 63.6939 156.505 63.6694C156.602 63.6252 156.704 63.5646 156.811 63.4874C156.916 63.4044 157.013 63.3181 157.102 63.2284C157.188 63.1329 157.254 63.043 157.3 62.9589C157.343 62.8689 157.353 62.7978 157.329 62.7455C157.281 62.6409 157.21 62.5713 157.117 62.5368C157.02 62.4965 156.897 62.4896 156.747 62.516L155.708 63.424ZM162.234 60.7771C162.339 61.0342 162.426 61.239 162.494 61.3881C162.577 61.571 162.571 61.6577 162.565 61.6831C162.56 61.6968 162.546 61.7207 162.479 61.751C162.428 61.7746 162.378 61.7809 162.308 61.7587C162.263 61.7383 162.175 61.6739 162.066 61.4797C161.931 61.2299 161.812 60.9966 161.709 60.7796C161.83 60.6929 161.968 60.6 162.121 60.5007C162.161 60.5959 162.198 60.688 162.234 60.7771ZM162.234 60.7771L162.698 60.5891L162.235 60.7775C162.235 60.7774 162.234 60.7772 162.234 60.7771ZM154.161 61.3585C154.247 61.3124 154.334 61.2674 154.423 61.2235L154.436 61.2581C154.436 61.2582 154.436 61.2584 154.436 61.2586C154.476 61.3637 154.517 61.4693 154.56 61.5755C154.534 61.6 154.511 61.6202 154.492 61.6363C154.344 61.761 154.252 61.9201 154.202 62.0865C154.138 61.9219 154.084 61.7701 154.037 61.6308L154.037 61.6308L154.037 61.629C154.017 61.5718 153.999 61.5135 153.981 61.4542C154.036 61.4256 154.096 61.3936 154.161 61.3585ZM154.865 63.4416C155.069 63.5325 155.287 63.5545 155.499 63.5014C155.561 63.5943 155.62 63.6775 155.678 63.7495C155.785 63.8837 155.924 64.027 156.099 64.1112L156.111 64.1169L156.123 64.1219C156.28 64.1876 156.495 64.2238 156.713 64.1241C156.845 64.0637 156.975 63.9852 157.103 63.8935L157.113 63.8867L157.122 63.8794C157.242 63.7846 157.353 63.6849 157.457 63.5801L157.465 63.5718L157.473 63.5632C157.577 63.4478 157.669 63.3262 157.739 63.1983L157.745 63.187L157.751 63.1755C157.813 63.0459 157.902 62.7977 157.784 62.5378C157.691 62.335 157.532 62.1606 157.3 62.0716C157.264 62.0571 157.228 62.0451 157.191 62.0353C157.302 61.9175 157.404 61.8013 157.499 61.6869C157.584 61.6985 157.655 61.7181 157.713 61.7423C157.836 61.794 157.927 61.8567 157.996 61.9256C158.077 62.0072 158.135 62.0919 158.175 62.1799C158.32 62.497 158.361 62.766 158.331 62.9983L158.33 63.0007C158.298 63.2593 158.211 63.4994 158.066 63.7256C157.911 63.9617 157.725 64.1676 157.505 64.3449L157.505 64.3449L157.503 64.3463C157.276 64.531 157.053 64.671 156.833 64.7712C156.682 64.8402 156.533 64.8552 156.365 64.8149C156.171 64.7587 155.961 64.6476 155.736 64.4633C155.504 64.2734 155.278 64.0329 155.06 63.7369C154.993 63.6417 154.928 63.5432 154.865 63.4416ZM156.376 62.0843C156.264 62.1153 156.148 62.1547 156.029 62.2006C156.001 62.2106 155.972 62.2211 155.943 62.232C155.9 62.1422 155.856 62.046 155.809 61.9436C155.787 61.896 155.766 61.85 155.746 61.8056C155.792 61.7586 155.839 61.7104 155.886 61.6612L155.886 61.6613L155.892 61.6549C155.932 61.6116 155.972 61.5683 156.011 61.5251L156.052 61.5881L156.344 62.0344L156.376 62.0843ZM156.994 60.6896C156.865 60.7035 156.732 60.7274 156.598 60.76C156.622 60.719 156.644 60.6784 156.664 60.6383C156.745 60.4869 156.869 60.1963 156.733 59.899C156.66 59.7392 156.528 59.6072 156.346 59.5444C156.216 59.4971 156.094 59.5058 156.035 59.5122C155.956 59.5206 155.877 59.5389 155.803 59.5597C155.655 59.6006 155.457 59.6765 155.223 59.7758C155.133 59.8119 155.031 59.8538 154.92 59.9016C154.872 59.8449 154.819 59.792 154.76 59.7434C154.584 59.5931 154.381 59.4885 154.154 59.4378C154.137 59.434 154.12 59.4307 154.103 59.4277C154.478 59.2626 154.834 59.1332 155.171 59.0381L155.171 59.0382L155.179 59.0358C155.551 58.924 155.875 58.8706 156.153 58.8661L156.153 58.8661L156.157 58.866C156.426 58.8598 156.631 58.9113 156.792 58.9996L156.792 58.9996L156.799 59.0035C156.941 59.0783 157.071 59.2103 157.178 59.4433C157.227 59.5506 157.261 59.6936 157.267 59.8841L157.267 59.8841L157.267 59.8954C157.274 60.0238 157.239 60.2149 157.112 60.483C157.08 60.5471 157.041 60.616 156.994 60.6896ZM159.807 60.2087C159.946 60.0967 160.092 59.988 160.244 59.8828C160.251 59.8991 160.257 59.9155 160.263 59.9319L160.263 59.9319L160.266 59.9401C160.333 60.1121 160.405 60.2899 160.481 60.4735C160.394 60.5467 160.314 60.6151 160.242 60.6787L160.242 60.6786L160.239 60.6816C160.128 60.7813 160.024 60.8494 159.927 60.8939C159.883 60.9137 159.86 60.9148 159.853 60.9147C159.848 60.9146 159.839 60.9141 159.822 60.9049C159.743 60.8584 159.68 60.7908 159.631 60.6832C159.588 60.5898 159.576 60.5136 159.581 60.4476C159.584 60.4408 159.591 60.4256 159.609 60.4015C159.643 60.3549 159.704 60.2902 159.806 60.2096L159.807 60.2087ZM160.735 58.4052C160.644 58.1917 160.543 57.9738 160.432 57.7515C160.388 57.6605 160.37 57.5981 160.364 57.5593C160.372 57.5552 160.381 57.5506 160.392 57.5457C160.533 57.4812 160.623 57.4915 160.709 57.5341C160.787 57.5732 160.942 57.7157 161.125 58.1154C161.134 58.136 161.143 58.1568 161.153 58.1778C161.013 58.2511 160.873 58.3269 160.735 58.4052ZM161.11 59.3427C161.256 59.2584 161.402 59.1772 161.55 59.0992C161.613 59.253 161.676 59.4064 161.738 59.5594C161.582 59.6574 161.437 59.7521 161.303 59.8433C161.267 59.7545 161.233 59.6673 161.199 59.582C161.17 59.502 161.14 59.4222 161.11 59.3427ZM162.618 59.0682C162.56 58.9271 162.502 58.7856 162.443 58.6439C162.505 58.6147 162.566 58.5863 162.626 58.5587C162.878 58.4439 163.036 58.4416 163.131 58.4669C163.216 58.4892 163.283 58.5349 163.341 58.6626C163.349 58.681 163.355 58.6965 163.358 58.7093C163.337 58.7228 163.306 58.7399 163.263 58.7594C163.033 58.8645 162.818 58.9674 162.618 59.0682Z" fill="#7831B2" stroke="#7831B2"/>
<path d="M150.559 47.7898C150.69 47.7584 150.819 47.7354 150.945 47.7221C150.99 47.6507 151.028 47.584 151.058 47.5217C151.182 47.2555 151.216 47.0652 151.208 46.9363L151.208 46.9251L151.208 46.9251C151.201 46.7347 151.167 46.591 151.117 46.4827C151.01 46.2484 150.879 46.1154 150.739 46.0399L150.731 46.0361L150.731 46.036C150.572 45.9473 150.37 45.8952 150.106 45.9001L150.102 45.9001L150.102 45.9001C149.828 45.9032 149.509 45.9546 149.143 46.0641L149.134 46.0665L149.134 46.0665C148.803 46.1592 148.454 46.2857 148.086 46.4476C148.103 46.4508 148.121 46.4544 148.139 46.4585L148.027 46.9457L148.139 46.4585C148.364 46.5105 148.566 46.6161 148.741 46.7665C148.798 46.8149 148.851 46.8673 148.898 46.9235C149.006 46.8774 149.104 46.8368 149.192 46.8018C149.422 46.7039 149.618 46.6289 149.766 46.5885M150.559 47.7898L149.899 47.0705M150.559 47.7898C150.583 47.7478 150.606 47.7063 150.626 47.6652M149.766 46.5885C149.767 46.5884 149.767 46.5882 149.768 46.588L149.899 47.0705M149.766 46.5885C149.765 46.5887 149.765 46.5889 149.764 46.589L149.899 47.0705M149.766 46.5885C149.839 46.5681 149.918 46.5501 149.997 46.542C150.056 46.5358 150.178 46.5277 150.308 46.5759C150.303 46.5739 150.297 46.572 150.291 46.5701L150.138 47.0459C150.098 47.0289 150.018 47.0371 149.899 47.0705M148.15 48.3755C148.232 48.331 148.316 48.2877 148.401 48.2454C148.406 48.2573 148.41 48.2691 148.415 48.2807C148.455 48.386 148.496 48.492 148.539 48.5985C148.514 48.6218 148.493 48.6411 148.475 48.6565C148.333 48.7767 148.244 48.9282 148.193 49.0866C148.132 48.9269 148.079 48.7793 148.033 48.6435L148.033 48.6435L148.033 48.6417C148.013 48.5846 147.995 48.5265 147.977 48.4674C148.03 48.4397 148.088 48.409 148.15 48.3755ZM148.869 50.4678C149.065 50.5513 149.273 50.5718 149.477 50.5224C149.538 50.6153 149.597 50.6984 149.654 50.7704C149.761 50.9044 149.899 51.0477 150.072 51.1326L150.084 51.1383L150.096 51.1434C150.251 51.2097 150.467 51.2483 150.687 51.1479C150.818 51.0878 150.947 51.0097 151.074 50.9185L151.083 50.9115L151.092 50.9041C151.211 50.8099 151.321 50.7106 151.424 50.6062L151.432 50.5979L151.44 50.5891C151.543 50.4741 151.633 50.3526 151.702 50.2248L151.708 50.2134L151.713 50.2018C151.775 50.0712 151.861 49.8251 151.744 49.5677C151.652 49.3668 151.495 49.1923 151.264 49.1022C151.227 49.0869 151.19 49.0744 151.152 49.0643C151.26 48.9486 151.36 48.8345 151.452 48.722C151.533 48.734 151.6 48.7534 151.656 48.7772C151.778 48.8293 151.869 48.8923 151.938 48.9618C152.019 49.0439 152.077 49.1293 152.117 49.2181C152.263 49.5362 152.304 49.8058 152.276 50.038L152.275 50.0403C152.245 50.2984 152.16 50.537 152.018 50.761C151.867 50.9951 151.684 51.1988 151.468 51.3737L151.468 51.3737L151.467 51.3752C151.244 51.5577 151.024 51.6958 150.809 51.7941C150.663 51.8608 150.517 51.8751 150.353 51.8345C150.161 51.7776 149.953 51.6658 149.729 51.4806C149.499 51.2898 149.274 51.0484 149.057 50.7516C148.992 50.66 148.929 50.5653 148.869 50.4678ZM150.304 49.063L150.337 49.1127C150.228 49.1428 150.116 49.1808 150.002 49.2249C149.976 49.2342 149.949 49.2439 149.922 49.2539C149.879 49.1639 149.834 49.0676 149.787 48.9651C149.765 48.9169 149.744 48.8704 149.724 48.8256C149.769 48.7794 149.814 48.7321 149.86 48.6838L149.86 48.6839L149.866 48.6774C149.903 48.6373 149.94 48.5972 149.975 48.5572L150.014 48.6162L150.304 49.063Z" stroke="#7831B2"/>
<path d="M125.025 -27.8825C115.398 -20.4452 64.3412 7.52498 39.8666 20.2157C115.29 -25.0933 116.242 -23.4203 124.171 -27.9509L124.652 -28.2255C124.696 -28.2505 124.822 -28.1328 125.025 -27.8825ZM125.025 -27.8825C125.029 -27.8852 125.032 -27.888 125.036 -27.8907L125.076 -27.8188M125.025 -27.8825C125.042 -27.8621 125.059 -27.8409 125.076 -27.8188M125.076 -27.8188L187.737 83.6812M125.076 -27.8188C130.876 -20.5054 191.816 82.2174 188.537 84.0908L188.105 84.3373M187.737 83.6812L188.105 84.3373M187.737 83.6812L118.754 121.559M187.737 83.6812L188.527 83.2473M188.105 84.3373L181.796 87.9423L181.794 87.9432M181.794 87.9432L118.754 121.559M181.794 87.9432L179.967 88.9875M41.484 19.9301C49.8489 39.5304 85.3893 111.869 98.4982 127.615M98.4982 127.615C100.09 129.527 101.351 130.605 102.193 130.652L118.754 121.559M98.4982 127.615C85.2236 112.938 47.102 40.8821 39.7231 20.936M98.4982 127.615C99.9905 129.265 101.169 130.19 101.954 130.234L109.078 126.718L118.754 121.559M78.3039 59.9692L130.25 30.2905M78.0657 59.5509C103.865 43.1479 130.012 29.8722 130.012 29.8722M83.9434 71.2674L135.889 41.5887M83.7052 70.8491C109.505 54.4461 135.651 41.1704 135.651 41.1704M90.2877 83.272L142.233 53.5932M90.0495 82.8536C115.849 66.4506 141.995 53.1749 141.995 53.1749M98.0415 95.2758L149.987 65.5971M97.8033 94.8575C123.603 78.4545 149.749 65.1788 149.749 65.1788M104.386 108.692L156.331 79.0131M104.148 108.273C129.947 91.8705 156.093 78.5947 156.093 78.5947M62.4608 30.9172C79.4225 19.5637 97.0913 11.1314 97.0913 11.1314M68.0999 39.3907C85.0616 28.0372 102.73 19.6049 102.73 19.6049M62.6991 31.3362L97.3296 11.5504M68.3382 39.8097L102.969 20.0239" stroke="#7831B2" stroke-width="3" stroke-linecap="round"/>
</svg>
