<svg width="162" height="171" viewBox="0 0 162 171" fill="none" xmlns="http://www.w3.org/2000/svg">
<path d="M3.34252 144.112C3.34462 127.391 2.41418 81.4944 61.0005 73.3478M3.34168 146.08C0.68061 123.116 12.9238 77.9112 62.7119 73.6932M114.378 67.6001C130.578 63.7383 166.293 66.5038 183.483 108.46M112.495 68.1115C128.695 64.2497 167.81 68.7143 185 110.67M85.4536 153.446L96.9264 166M85.4536 153.446L83.6747 100.179M85.4536 153.446C87.6585 154.847 96.9264 166 96.9264 166M85.4536 153.446C83.2487 152.045 83.6747 100.179 83.6747 100.179M96.9264 166L104.42 151.286M96.9264 166C96.9264 166 102.518 154.884 104.42 151.286M104.42 151.286L94.3496 98.7943M104.42 151.286C106.322 147.687 94.3496 98.7943 94.3496 98.7943M83.2397 91.446L83.6747 100.179M83.6747 100.179L94.3496 98.7943M94.3496 98.7943L91.9924 88.1575C91.9143 90.303 94.3496 98.7943 94.3496 98.7943ZM117.065 106.329L146.381 101.108M88.289 85.4487L74.3586 96.8706M74.3586 96.8706L62.6514 74.5198L66.7945 78.8313L74.3586 96.8706ZM86.8035 85.5372L102.952 94.8558M102.952 94.8558L112.399 68.7836C105.912 80.8932 102.952 94.8558 102.952 94.8558ZM64.1146 73.9724L87.773 85.0075L110.424 68.8544M128.044 46.9543C120.766 71.1732 92.9196 82.227 65.8477 74.0703C38.7758 65.9136 23.712 41.6352 30.99 17.4163C38.268 -6.80264 63.1672 -19.8236 90.2391 -11.6669C117.311 -3.5102 135.322 22.7354 128.044 46.9543ZM128.526 45.054C127.14 49.6687 125.006 53.8769 122.273 57.6095C110.665 73.4661 88.2439 80.7397 66.3303 74.1372C39.2585 65.9805 23.2124 39.7349 30.4904 15.516C31.8772 10.9013 34.0107 6.6931 36.7433 2.96052C48.352 -12.8961 70.7728 -20.1697 92.6863 -13.5672C119.758 -5.41048 135.804 20.8351 128.526 45.054Z" stroke="#7831B2" stroke-width="5" stroke-linecap="square"/>
</svg>
