<svg width="179" height="207" viewBox="0 0 179 207" fill="none" xmlns="http://www.w3.org/2000/svg">
<path d="M78.2273 93.1235C78.2306 92.2951 77.5618 91.6208 76.7334 91.6174C75.905 91.614 75.2307 92.2828 75.2273 93.1113L78.2273 93.1235ZM100.163 137.932L99.8259 139.394L100.163 137.932ZM142.35 106.103C142.68 105.343 142.331 104.46 141.571 104.13C140.811 103.8 139.928 104.149 139.598 104.909L142.35 106.103ZM155.986 76.7407L157.485 76.7737L155.986 76.7407ZM134.156 117.959C133.489 118.45 133.348 119.389 133.839 120.056C134.331 120.723 135.27 120.865 135.937 120.373L134.156 117.959ZM75.8416 108.743C76.2513 109.463 77.1672 109.714 77.8872 109.304C78.6072 108.895 78.8587 107.979 78.449 107.259L75.8416 108.743ZM84.5622 52.9286C85.2496 52.4662 85.432 51.5341 84.9697 50.8467C84.5073 50.1593 83.5752 49.9769 82.8879 50.4393L84.5622 52.9286ZM148.282 57.909C147.679 57.3401 146.73 57.3672 146.161 57.9694C145.592 58.5716 145.619 59.521 146.221 60.0899L148.282 57.909ZM90.2743 133.147C90.4313 132.333 89.8992 131.546 89.0857 131.389C88.2723 131.232 87.4857 131.765 87.3287 132.578L90.2743 133.147ZM86.8889 142.773L85.4161 142.489L85.233 143.437L86.021 143.996L86.8889 142.773ZM98.8286 151.243L97.9607 152.466L98.4796 152.834L99.105 152.717L98.8286 151.243ZM118.432 138.576C118.589 137.763 118.057 136.976 117.243 136.819C116.43 136.662 115.643 137.194 115.486 138.008L118.432 138.576ZM87.4193 144.343C88.2444 144.27 88.8536 143.541 88.7799 142.716C88.7062 141.891 87.9775 141.282 87.1524 141.355L87.4193 144.343ZM40.3872 147.939C39.701 148.403 39.5209 149.335 39.985 150.022C40.4491 150.708 41.3816 150.888 42.0679 150.424L40.3872 147.939ZM147.316 164.294L148.139 163.04L148.065 162.991L147.985 162.951L147.316 164.294ZM82.1184 80.4593C81.3428 80.1683 80.478 80.561 80.187 81.3366C79.8959 82.1123 80.2887 82.977 81.0643 83.2681L82.1184 80.4593ZM122.854 77.6883L121.877 76.5502L122.854 77.6883ZM139.836 94.4514C140.662 94.5175 141.385 93.9017 141.451 93.0759C141.517 92.2501 140.901 91.5271 140.076 91.461L139.836 94.4514ZM81.637 80.4626C80.8632 80.1668 79.996 80.5542 79.7002 81.328C79.4044 82.1018 79.7918 82.9689 80.5656 83.2648L81.637 80.4626ZM121.739 77.4733L120.762 76.3353L121.739 77.4733ZM138.864 94.4263C139.69 94.4924 140.413 93.8766 140.479 93.0508C140.545 92.225 139.93 91.502 139.104 91.4359L138.864 94.4263ZM78.6064 93.1367C78.6098 92.3083 77.941 91.634 77.1126 91.6306C76.2841 91.6272 75.6098 92.2961 75.6065 93.1245L78.6064 93.1367ZM99.266 136.603L99.6034 135.141L99.266 136.603ZM141.898 106.534C142.228 105.774 141.879 104.891 141.12 104.561C140.36 104.231 139.476 104.58 139.146 105.34L141.898 106.534ZM155.087 75.4118L156.586 75.4448L155.087 75.4118ZM134.402 116.85C133.735 117.342 133.593 118.281 134.085 118.948C134.576 119.615 135.515 119.757 136.182 119.265L134.402 116.85ZM76.3495 108.999C76.7593 109.719 77.6751 109.971 78.3951 109.561C79.1151 109.151 79.3666 108.236 78.9569 107.516L76.3495 108.999ZM85.1044 51.0583C85.8137 50.6302 86.0416 49.7082 85.6135 48.999C85.1854 48.2897 84.2634 48.0618 83.5542 48.4899L85.1044 51.0583ZM148.788 57.9752C148.215 57.3766 147.265 57.3556 146.667 57.9283C146.068 58.501 146.047 59.4505 146.62 60.0491L148.788 57.9752ZM89.3758 131.817C89.5328 131.004 89.0007 130.217 88.1872 130.06C87.3738 129.903 86.5872 130.436 86.4302 131.249L89.3758 131.817ZM85.9904 141.444L84.5176 141.16L84.3345 142.108L85.1225 142.667L85.9904 141.444ZM97.9301 149.914L97.0622 151.137L97.5811 151.505L98.2065 151.388L97.9301 149.914ZM114.148 146.873L114.424 148.348L115.427 148.16L115.621 147.158L114.148 146.873ZM117.533 137.247C117.69 136.434 117.158 135.647 116.345 135.49C115.531 135.333 114.745 135.865 114.588 136.679L117.533 137.247ZM86.5204 143.014C87.3456 142.941 87.9547 142.212 87.881 141.387C87.8074 140.562 87.0787 139.952 86.2536 140.026L86.5204 143.014ZM40.3914 147.939C39.7052 148.403 39.5251 149.336 39.9892 150.022C40.4533 150.708 41.3858 150.888 42.072 150.424L40.3914 147.939ZM114.818 145.532C114.077 145.162 113.176 145.463 112.807 146.205C112.437 146.946 112.738 147.847 113.48 148.216L114.818 145.532ZM146.419 162.965L147.242 161.711L147.168 161.662L147.088 161.622L146.419 162.965ZM157.157 42.8426C157.96 42.6377 158.445 41.8209 158.24 41.0182C158.035 40.2155 157.218 39.731 156.415 39.9359L157.157 42.8426ZM116.522 51.6699L115.871 53.0216L116.364 53.2583L116.893 53.1232L116.522 51.6699ZM64.5948 26.6947L63.1415 27.066L63.3146 27.7434L63.9447 28.0465L64.5948 26.6947ZM63.6406 22.9603L63.2695 21.5069L61.8159 21.8781L62.1873 23.3316L63.6406 22.9603ZM119.428 10.2646C120.23 10.0596 120.715 9.24279 120.51 8.44012C120.305 7.63744 119.488 7.15288 118.685 7.35782L119.428 10.2646ZM120.528 7.24335C119.779 6.88892 118.885 7.2086 118.53 7.95738C118.176 8.70616 118.496 9.60048 119.244 9.95492L120.528 7.24335ZM171.446 33.0049L172.325 31.7892L172.213 31.7083L172.088 31.6491L171.446 33.0049ZM172.348 36.5319L173.329 37.6659L173.329 37.6659L172.348 36.5319ZM160.785 38.6004C159.974 38.7696 159.454 39.5641 159.623 40.3751C159.792 41.186 160.587 41.7064 161.398 41.5373L160.785 38.6004ZM142.364 45.5135L143.777 45.0101L143.336 43.772L142.051 44.0466L142.364 45.5135ZM147.056 58.6809L148.536 58.4426L148.515 58.3069L148.469 58.1774L147.056 58.6809ZM146.084 61.8019L146.84 63.0974L146.084 61.8019ZM114.599 71.83L113.877 73.145L114.433 73.4498L115.039 73.2641L114.599 71.83ZM90.6844 58.7087L91.4059 57.3936L91.3859 57.3827L91.3656 57.3723L90.6844 58.7087ZM84.3293 55.4693L83.3262 56.5845L83.4726 56.7162L83.6481 56.8056L84.3293 55.4693ZM90.8458 39.4403L91.4583 38.071L90.2379 37.5251L89.5558 38.6749L90.8458 39.4403ZM116.686 50.9997L116.073 52.3689L116.52 52.5689L116.999 52.4666L116.686 50.9997ZM117.963 51.5998C118.038 50.7748 117.431 50.0447 116.606 49.9689C115.781 49.8932 115.051 50.5005 114.975 51.3255L117.963 51.5998ZM156.888 40.9213L158.24 40.2722L158.002 39.7756L157.498 39.5513L156.888 40.9213ZM123.07 29.6405L123.233 28.1493L123.057 28.1302L122.882 28.1523L123.07 29.6405ZM113.291 29.5104L111.838 29.8817L113.291 29.5104ZM118.471 26.4198L118.361 27.9158L118.361 27.9158L118.471 26.4198ZM120.693 28.8804C121.086 29.6093 121.997 29.881 122.725 29.4873C123.454 29.0936 123.726 28.1836 123.332 27.4547L120.693 28.8804ZM162.61 40.5947C162.786 39.7851 162.272 38.9864 161.462 38.8107C160.653 38.6351 159.854 39.149 159.679 39.9586L162.61 40.5947ZM160.738 42.1483L159.272 41.8303L159.007 43.054L160.164 43.5338L160.738 42.1483ZM162.077 49.9836L160.937 49.0084L160.59 49.4145L160.578 49.9487L162.077 49.9836ZM161.396 79.3299L162.895 79.3838L162.895 79.3743L162.895 79.3647L161.396 79.3299ZM157.157 83.5062L157.017 82.0128L157.157 83.5062ZM151.217 80.1608L149.727 80.3368L149.757 80.5926L149.871 80.8237L151.217 80.1608ZM151.088 75.3316L149.606 75.1002L151.088 75.3316ZM156.933 49.7501L158.393 50.0909L158.567 49.346L158.066 48.7679L156.933 49.7501ZM157.833 42.8902L158.429 44.2667L159.86 43.6471L159.185 42.2411L157.833 42.8902ZM119.876 7.67658L120.542 6.33246L120.024 6.07576L119.467 6.23334L119.876 7.67658ZM171.431 33.2156L172.931 33.2156L172.931 32.2847L172.096 31.8714L171.431 33.2156ZM65.1275 23.1824L64.7187 21.7392L63.6275 22.0483L63.6275 23.1824L65.1275 23.1824ZM157.402 41.5857C158.204 41.3807 158.689 40.5639 158.484 39.7612C158.279 38.9585 157.462 38.474 156.659 38.6789L157.402 41.5857ZM116.766 50.4129L116.116 51.7647L116.608 52.0014L117.137 51.8663L116.766 50.4129ZM64.8391 25.4377L63.3879 25.8173L63.5635 26.4887L64.1889 26.7895L64.8391 25.4377ZM64.2488 23.1811L63.8392 21.7381L62.4259 22.1393L62.7977 23.5606L64.2488 23.1811ZM119.71 8.99719C120.507 8.77098 120.97 7.94154 120.744 7.1446C120.517 6.34766 119.688 5.88499 118.891 6.11121L119.71 8.99719ZM120.772 5.98663C120.023 5.63219 119.129 5.95188 118.774 6.70065C118.42 7.44943 118.74 8.34376 119.488 8.69819L120.772 5.98663ZM171.69 31.7482L172.569 30.5325L172.457 30.4515L172.332 30.3924L171.69 31.7482ZM172.592 35.2751L173.573 36.4092L172.592 35.2751ZM161.029 37.3437C160.218 37.5128 159.698 38.3074 159.867 39.1183C160.036 39.9293 160.831 40.4497 161.642 40.2805L161.029 37.3437ZM144.021 43.7537C143.743 42.9734 142.885 42.5661 142.105 42.8442C141.325 43.1222 140.917 43.9802 141.195 44.7606L144.021 43.7537ZM147.3 57.4245L148.78 57.1863L148.759 57.0506L148.713 56.9211L147.3 57.4245ZM146.328 60.5455L147.084 61.8411L146.328 60.5455ZM114.843 70.5736L114.121 71.8887L114.677 72.1935L115.282 72.0077L114.843 70.5736ZM90.9283 57.4524L91.6499 56.1373L91.6299 56.1263L91.6096 56.116L90.9283 57.4524ZM84.5733 54.2129L83.5702 55.3282L83.7166 55.4599L83.8921 55.5493L84.5733 54.2129ZM83.725 50.8934L82.3801 50.2293L82.3801 50.2293L83.725 50.8934ZM92.3798 38.9493C92.8025 38.2369 92.5676 37.3166 91.8552 36.8939C91.1427 36.4712 90.2225 36.7061 89.7997 37.4185L92.3798 38.9493ZM118.207 50.3428C118.282 49.5179 117.675 48.7877 116.85 48.712C116.025 48.6362 115.295 49.2436 115.219 50.0685L118.207 50.3428ZM122.013 29.5104L122.175 28.0192L122 28.0001L121.825 28.0222L122.013 29.5104ZM113.537 28.2537L112.084 28.625L113.537 28.2537ZM118.717 25.1631L118.607 26.6591L118.717 25.1631ZM122.258 26.9108L123.578 26.198L122.258 26.9108ZM160.468 39.8629C161.163 40.314 162.092 40.1163 162.543 39.4215C162.994 38.7266 162.796 37.7976 162.101 37.3466L160.468 39.8629ZM161.389 39.0202L162.854 39.3382L163.316 37.2111L161.164 37.5371L161.389 39.0202ZM160.982 40.8919L159.517 40.5739L159.251 41.7975L160.408 42.2774L160.982 40.8919ZM162.321 48.7271L161.182 47.752L160.834 48.1581L160.822 48.6923L162.321 48.7271ZM161.64 78.0735L163.139 78.1274L163.139 78.1179L163.139 78.1083L161.64 78.0735ZM151.461 78.9044L149.971 79.0803L150.002 79.3362L150.115 79.5673L151.461 78.9044ZM157.177 48.4937L158.637 48.8345L158.811 48.0896L158.31 47.5115L157.177 48.4937ZM159.567 40.8919L160.163 42.2684L163.105 40.9945L160.242 39.5522L159.567 40.8919ZM157.132 39.6651L156.907 38.182L152.253 38.8871L156.457 41.0048L157.132 39.6651ZM44.5911 -4.69341L44.6822 -3.19617L44.5911 -4.69341ZM198.079 9.77134L197.564 11.1803L198.079 9.77134ZM199.212 11.4478L197.713 11.4026V11.4026L199.212 11.4478ZM168.844 201.317L167.425 200.829L167.425 200.829L168.844 201.317ZM167.122 202.471L167.18 200.972L167.122 202.471ZM42.9809 -3.32542L44.4394 -2.97505L44.4394 -2.97505L42.9809 -3.32542ZM47.3782 -5.54168L47.2872 -7.03891L47.3782 -5.54168ZM200.866 8.92307L200.351 10.332L200.866 8.92307ZM201.999 10.5977L200.5 10.5519L201.999 10.5977ZM170.313 203.848L171.731 204.336L171.731 204.336L170.313 203.848ZM168.592 204.998L168.532 206.497L168.532 206.497L168.592 204.998ZM45.768 -4.17369L47.2265 -3.82332L47.2265 -3.82334L45.768 -4.17369ZM6.61017 154.413C6.54895 155.239 7.16906 155.958 7.99522 156.02C8.82138 156.081 9.54075 155.461 9.60197 154.635L6.61017 154.413ZM8.92465 151.655C8.85148 152.48 9.4611 153.208 10.2863 153.281C11.1115 153.355 11.8397 152.745 11.9129 151.92L8.92465 151.655ZM38.0746 183.677C37.2644 183.504 36.4675 184.02 36.2945 184.831C36.1216 185.641 36.6382 186.438 37.4483 186.611L38.0746 183.677ZM34.8402 183.669C34.0256 183.518 33.2432 184.057 33.0928 184.871C32.9423 185.686 33.4807 186.468 34.2954 186.619L34.8402 183.669ZM37.3302 181.088L38.535 181.982L37.3302 181.088ZM10.1297 184.865L9.23507 186.069L10.1297 184.865ZM6.20011 157.263L7.40496 158.156L6.20011 157.263ZM33.4006 153.486L34.2952 152.282L33.4006 153.486ZM33.0036 185.221L32.1658 183.977L33.0036 185.221ZM10.5266 153.13L11.3644 154.374L10.5266 153.13ZM24.9088 160.823C25.0683 160.01 24.5386 159.222 23.7257 159.062C22.9127 158.903 22.1244 159.433 21.9649 160.246L24.9088 160.823ZM18.9527 175.598C18.7932 176.411 19.3229 177.199 20.1359 177.359C20.9488 177.518 21.7371 176.988 21.8966 176.176L18.9527 175.598ZM28.7307 171.072C29.5437 171.232 30.3319 170.702 30.4913 169.889C30.6507 169.076 30.1208 168.288 29.3079 168.128L28.7307 171.072ZM15.9184 165.503C15.1055 165.344 14.3172 165.874 14.1578 166.687C13.9985 167.5 14.5283 168.288 15.3413 168.447L15.9184 165.503ZM75.2273 93.1113C75.1972 100.485 76.2559 110.781 79.8078 119.849C83.3584 128.913 89.5195 137.014 99.8259 139.394L100.501 136.47C91.5576 134.406 85.9711 127.358 82.6012 118.755C79.2327 110.156 78.1981 100.267 78.2273 93.1235L75.2273 93.1113ZM99.8259 139.394C110.07 141.758 117.833 140.475 124.529 134.827C131.067 129.314 136.425 119.759 142.35 106.103L139.598 104.909C133.669 118.572 128.54 127.52 122.595 132.534C116.809 137.414 110.094 138.685 100.501 136.47L99.8259 139.394ZM154.486 76.7077C154.378 81.5929 154.428 85.514 154.208 89.0579C153.991 92.5584 153.516 95.5329 152.411 98.3958C150.207 104.104 145.373 109.687 134.156 117.959L135.937 120.373C147.261 112.022 152.685 106.014 155.21 99.4765C156.468 96.2166 156.975 92.9044 157.202 89.2434C157.426 85.6259 157.381 81.5107 157.485 76.7737L154.486 76.7077ZM78.449 107.259C74.8574 100.948 71.7202 90.3937 71.8683 79.8465C72.0163 69.3118 75.4234 59.0757 84.5622 52.9286L82.8879 50.4393C72.632 57.3378 69.0244 68.7148 68.8686 79.8044C68.7131 90.8816 71.9834 101.963 75.8416 108.743L78.449 107.259ZM146.221 60.0899C151.6 65.1706 154.611 71.015 154.486 76.7077L157.485 76.7737C157.635 69.9527 154.039 63.3471 148.282 57.909L146.221 60.0899ZM87.3287 132.578L85.4161 142.489L88.3617 143.057L90.2743 133.147L87.3287 132.578ZM86.021 143.996L86.1612 144.096L87.897 141.649L87.7568 141.549L86.021 143.996ZM86.1612 144.096L97.9607 152.466L99.6965 150.019L87.897 141.649L86.1612 144.096ZM99.105 152.717L115.323 149.677L114.77 146.728L98.5522 149.769L99.105 152.717ZM116.519 148.487L118.432 138.576L115.486 138.008L113.573 147.918L116.519 148.487ZM87.1524 141.355L86.8956 141.378L87.1625 144.366L87.4193 144.343L87.1524 141.355ZM87.0291 142.872C86.9464 141.375 86.9463 141.375 86.946 141.375C86.9457 141.375 86.9453 141.375 86.9447 141.375C86.9436 141.375 86.9418 141.375 86.9396 141.375C86.935 141.375 86.9282 141.376 86.9191 141.376C86.9011 141.377 86.8741 141.379 86.8386 141.381C86.7675 141.384 86.6621 141.39 86.5246 141.398C86.2495 141.413 85.8458 141.436 85.3316 141.464C84.3032 141.522 82.8323 141.605 81.0622 141.706C77.5222 141.908 72.785 142.182 67.997 142.473C63.2101 142.763 58.3682 143.07 54.6204 143.337C52.7476 143.47 51.1409 143.593 49.9485 143.7C49.3534 143.753 48.8517 143.803 48.4674 143.849C48.1504 143.887 47.7512 143.938 47.4857 144.023L48.397 146.881C48.3324 146.902 48.4143 146.877 48.8229 146.828C49.1643 146.787 49.6325 146.74 50.2161 146.688C51.381 146.584 52.9662 146.462 54.8332 146.329C58.5651 146.064 63.3946 145.758 68.1788 145.467C72.9618 145.177 77.6952 144.903 81.233 144.701C83.0019 144.6 84.4717 144.517 85.4992 144.46C86.013 144.431 86.4162 144.409 86.6909 144.393C86.8283 144.386 86.9335 144.38 87.0044 144.376C87.0398 144.374 87.0667 144.373 87.0846 144.372C87.0936 144.371 87.1004 144.371 87.1049 144.37C87.1072 144.37 87.1089 144.37 87.11 144.37C87.1106 144.37 87.111 144.37 87.1113 144.37C87.1115 144.37 87.1117 144.37 87.0291 142.872ZM47.4857 144.023C46.5081 144.335 45.0776 145.092 43.8021 145.824C42.485 146.581 41.1771 147.405 40.3872 147.939L42.0679 150.424C42.7919 149.934 44.0373 149.149 45.2968 148.426C46.598 147.678 47.7674 147.082 48.397 146.881L47.4857 144.023ZM114.377 149.545L146.647 165.636L147.985 162.951L115.716 146.86L114.377 149.545ZM146.493 165.548C146.879 165.802 147.445 166.297 148.128 166.961C148.793 167.608 149.491 168.335 150.143 169.009C150.769 169.655 151.394 170.296 151.85 170.687C151.969 170.789 152.101 170.896 152.238 170.989C152.342 171.06 152.583 171.22 152.897 171.299C153.062 171.341 153.382 171.396 153.757 171.283C154.195 171.151 154.525 170.844 154.705 170.478C154.858 170.167 154.872 169.88 154.87 169.728C154.868 169.562 154.842 169.419 154.82 169.319L151.893 169.977C151.888 169.957 151.872 169.882 151.87 169.772C151.869 169.676 151.876 169.433 152.013 169.154C152.177 168.82 152.483 168.534 152.89 168.411C153.234 168.307 153.515 168.361 153.633 168.391C153.854 168.447 153.974 168.542 153.93 168.512C153.919 168.505 153.879 168.475 153.802 168.409C153.476 168.13 152.961 167.606 152.299 166.922C151.663 166.266 150.925 165.497 150.219 164.81C149.53 164.141 148.787 163.465 148.139 163.04L146.493 165.548ZM81.5913 81.8637C81.0643 83.2681 81.0644 83.2681 81.0646 83.2682C81.0647 83.2682 81.0649 83.2683 81.065 83.2683C81.0653 83.2685 81.0657 83.2686 81.0661 83.2687C81.0669 83.269 81.0678 83.2694 81.069 83.2698C81.0713 83.2707 81.0743 83.2718 81.078 83.2732C81.0855 83.276 81.0959 83.2798 81.109 83.2846C81.1354 83.2943 81.173 83.308 81.2216 83.3254C81.3188 83.3602 81.4599 83.4099 81.6421 83.4719C82.0065 83.5958 82.5358 83.7689 83.2082 83.9707C84.5524 84.3742 86.4721 84.8931 88.7924 85.3617L89.3862 82.421C87.1708 81.9737 85.3415 81.4788 84.0706 81.0974C83.4355 80.9067 82.9407 80.7447 82.6079 80.6316C82.4416 80.575 82.3158 80.5307 82.2333 80.5011C82.192 80.4863 82.1616 80.4753 82.1423 80.4682C82.1327 80.4647 82.1258 80.4621 82.1218 80.4606C82.1198 80.4599 82.1185 80.4594 82.118 80.4592C82.1177 80.4591 82.1176 80.459 82.1176 80.4591C82.1177 80.4591 82.1177 80.4591 82.1179 80.4592C82.1179 80.4592 82.118 80.4592 82.1181 80.4592C82.1182 80.4593 82.1184 80.4593 81.5913 81.8637ZM88.7924 85.3617C97.6008 87.1404 112.784 88.3123 123.832 78.8263L121.877 76.5502C111.955 85.0698 98.0328 84.1671 89.3862 82.421L88.7924 85.3617ZM123.832 78.8263C126.711 76.3538 128.292 75.8202 129.126 75.7532L128.886 72.7628C127.1 72.9062 124.919 73.9385 121.877 76.5502L123.832 78.8263ZM129.126 75.7532C128.757 75.7828 128.467 75.6148 128.321 75.4695C128.222 75.3695 128.225 75.3186 128.278 75.4524C128.381 75.7156 128.491 76.1988 128.613 76.9715C128.835 78.3847 129.071 80.6477 129.515 82.8563C130.395 87.2374 132.334 92.8321 138.079 94.3274L138.835 91.4242C134.976 90.4197 133.33 86.6139 132.456 82.2653C132.023 80.109 131.839 78.1748 131.576 76.505C131.455 75.7361 131.306 74.9563 131.069 74.3533C130.951 74.0541 130.764 73.6693 130.444 73.3493C130.079 72.9842 129.54 72.7103 128.886 72.7628L129.126 75.7532ZM138.079 94.3274C138.523 94.4429 138.906 94.45 139.188 94.4474C139.493 94.4445 139.628 94.4348 139.836 94.4514L140.076 91.461C139.691 91.4302 139.329 91.4459 139.159 91.4475C138.966 91.4493 138.895 91.4399 138.835 91.4242L138.079 94.3274ZM81.1013 81.8637C80.5656 83.2648 80.5659 83.2649 80.5661 83.265C80.5662 83.265 80.5664 83.2651 80.5666 83.2652C80.567 83.2653 80.5674 83.2655 80.5679 83.2656C80.5688 83.266 80.5699 83.2664 80.5712 83.2669C80.5737 83.2679 80.577 83.2691 80.5809 83.2706C80.5887 83.2735 80.5993 83.2775 80.6127 83.2824C80.6394 83.2924 80.6771 83.3062 80.7256 83.3236C80.8227 83.3585 80.9632 83.4079 81.1462 83.4694C81.5122 83.5923 82.0481 83.7637 82.7461 83.9643C84.1421 84.3656 86.1872 84.8841 88.8187 85.3667L89.3599 82.416C86.8319 81.9523 84.883 81.457 83.5749 81.081C82.9208 80.8931 82.4272 80.7349 82.1015 80.6255C81.9388 80.5708 81.818 80.5284 81.7402 80.5004C81.7014 80.4864 81.6732 80.4761 81.656 80.4697C81.6473 80.4665 81.6414 80.4643 81.6383 80.4631C81.6367 80.4625 81.6358 80.4622 81.6356 80.4621C81.6355 80.462 81.6355 80.4621 81.6358 80.4621C81.6359 80.4622 81.636 80.4622 81.6362 80.4623C81.6363 80.4624 81.6365 80.4624 81.6366 80.4624C81.6368 80.4625 81.637 80.4626 81.1013 81.8637ZM88.8187 85.3667C97.7297 87.001 112.123 87.7069 122.716 78.6113L120.762 76.3353C111.255 84.4983 98.0737 84.0141 89.3599 82.416L88.8187 85.3667ZM122.716 78.6113C124.644 76.9554 126.007 76.1032 126.949 75.7277C127.864 75.3633 128.186 75.5181 128.273 75.5665L129.74 72.9495C128.597 72.3091 127.262 72.374 125.839 72.9406C124.444 73.4963 122.787 74.5961 120.762 76.3353L122.716 78.6113ZM128.273 75.5665C128.314 75.5897 128.469 75.7003 128.651 76.1524C128.832 76.602 128.976 77.2312 129.098 78.0613C129.218 78.8834 129.304 79.8085 129.402 80.8378C129.498 81.851 129.604 82.9496 129.765 84.0499C130.084 86.2247 130.638 88.5832 131.904 90.5114C133.221 92.5176 135.251 93.9693 138.263 94.3631L138.652 91.3885C136.522 91.11 135.258 90.1549 134.411 88.865C133.513 87.497 133.034 85.67 132.733 83.615C132.585 82.6004 132.485 81.573 132.388 80.5548C132.293 79.5528 132.2 78.5411 132.066 77.6265C131.933 76.72 131.748 75.8129 131.434 75.032C131.12 74.2535 130.614 73.4395 129.74 72.9495L128.273 75.5665ZM138.263 94.3631C138.46 94.3889 138.66 94.41 138.864 94.4263L139.104 91.4359C138.948 91.4234 138.798 91.4075 138.652 91.3885L138.263 94.3631ZM75.6065 93.1245C75.5765 100.457 76.3067 110.421 79.5385 119.164C82.7776 127.927 88.6282 135.687 98.9287 138.064L99.6034 135.141C90.6544 133.076 85.3956 126.357 82.3524 118.124C79.3019 109.871 78.5771 100.322 78.6064 93.1367L75.6065 93.1245ZM98.9287 138.064C109.104 140.413 116.965 139.613 123.795 134.426C130.484 129.347 135.965 120.208 141.898 106.534L139.146 105.34C133.226 118.985 127.997 127.468 121.981 132.037C116.106 136.498 109.265 137.372 99.6034 135.141L98.9287 138.064ZM153.587 75.3788C153.534 77.8042 153.537 80.0317 153.539 82.0892C153.541 84.1536 153.542 86.0368 153.486 87.8085C153.373 91.348 153.033 94.3515 152.062 97.2393C150.134 102.97 145.601 108.591 134.402 116.85L136.182 119.265C147.524 110.901 152.677 104.821 154.905 98.1958C156.012 94.9056 156.368 91.5673 156.484 87.9039C156.543 86.0742 156.541 84.1407 156.539 82.0861C156.537 80.0244 156.534 77.8304 156.586 75.4448L153.587 75.3788ZM78.9569 107.516C75.2589 101.018 71.746 89.8221 71.7443 78.7329C71.7426 67.6529 75.2271 57.0199 85.1044 51.0583L83.5542 48.4899C72.4193 55.2105 68.7425 67.1012 68.7443 78.7334C68.746 90.3564 72.4012 102.061 76.3495 108.999L78.9569 107.516ZM146.62 60.0491C151.187 64.8227 153.702 70.1635 153.587 75.3788L156.586 75.4448C156.724 69.1947 153.713 63.1237 148.788 57.9752L146.62 60.0491ZM86.4302 131.249L84.5176 141.16L87.4632 141.728L89.3758 131.817L86.4302 131.249ZM85.1225 142.667L85.2626 142.767L86.9983 140.32L86.8582 140.22L85.1225 142.667ZM85.2626 142.767L97.0622 151.137L98.798 148.69L86.9984 140.32L85.2626 142.767ZM98.2065 151.388L114.424 148.348L113.871 145.399L97.6537 148.439L98.2065 151.388ZM115.621 147.158L117.533 137.247L114.588 136.679L112.675 146.589L115.621 147.158ZM86.2536 140.026L85.9971 140.049L86.2639 143.037L86.5204 143.014L86.2536 140.026ZM86.1305 141.543C86.0271 140.047 86.0269 140.047 86.0266 140.047C86.0263 140.047 86.0259 140.047 86.0254 140.047C86.0242 140.047 86.0226 140.047 86.0204 140.047C86.016 140.048 86.0094 140.048 86.0007 140.049C85.9832 140.05 85.9573 140.052 85.923 140.054C85.8546 140.059 85.753 140.066 85.6204 140.075C85.3552 140.094 84.9661 140.121 84.4698 140.156C83.4773 140.226 82.0562 140.327 80.3415 140.452C76.9124 140.701 72.3077 141.044 67.607 141.419C62.908 141.793 58.1061 142.199 54.2853 142.575C52.376 142.762 50.7017 142.943 49.4036 143.11C48.1724 143.268 47.1181 143.431 46.5734 143.61L47.5116 146.46C47.7266 146.389 48.4636 146.255 49.7856 146.086C51.0405 145.924 52.6811 145.747 54.5788 145.56C58.3718 145.187 63.152 144.783 67.8451 144.409C72.5366 144.036 77.1341 143.693 80.5591 143.444C82.2715 143.32 83.6905 143.218 84.6813 143.148C85.1767 143.113 85.565 143.086 85.8294 143.068C85.9616 143.059 86.0628 143.051 86.1309 143.047C86.165 143.044 86.1908 143.043 86.208 143.041C86.2167 143.041 86.2231 143.04 86.2275 143.04C86.2296 143.04 86.2313 143.04 86.2323 143.04C86.2329 143.04 86.2333 143.04 86.2335 143.04C86.2338 143.04 86.2339 143.04 86.1305 141.543ZM46.5734 143.61C44.7946 144.196 43.5451 145.113 42.57 145.977C42.104 146.391 41.6624 146.829 41.3191 147.154C40.9496 147.504 40.6616 147.757 40.3914 147.939L42.072 150.424C42.5587 150.095 42.9958 149.698 43.3829 149.331C43.7962 148.94 44.1429 148.592 44.5605 148.222C45.3526 147.52 46.2515 146.875 47.5116 146.46L46.5734 143.61ZM113.48 148.216L145.75 164.307L147.088 161.622L114.818 145.532L113.48 148.216ZM145.596 164.219C146.533 164.834 148.127 166.121 149.532 167.429C150.231 168.078 150.852 168.705 151.306 169.23C151.533 169.493 151.7 169.709 151.809 169.874C151.939 170.069 151.918 170.089 151.893 169.977L154.82 169.319C154.722 168.884 154.494 168.494 154.309 168.216C154.105 167.907 153.85 167.586 153.575 167.268C153.024 166.63 152.317 165.922 151.576 165.232C150.103 163.862 148.373 162.454 147.242 161.711L145.596 164.219ZM156.415 39.9359L116.151 50.2165L116.893 53.1232L157.157 42.8426L156.415 39.9359ZM117.172 50.3181L65.245 25.3429L63.9447 28.0465L115.871 53.0216L117.172 50.3181ZM66.0481 26.3233L65.0939 22.5889L62.1873 23.3316L63.1415 27.066L66.0481 26.3233ZM64.0117 24.4137L119.428 10.2646L118.685 7.35782L63.2695 21.5069L64.0117 24.4137ZM119.244 9.95492L170.805 34.3607L172.088 31.6491L120.528 7.24335L119.244 9.95492ZM170.568 34.2207C170.716 34.3275 170.897 34.4833 171.064 34.6657C171.233 34.8517 171.351 35.0259 171.414 35.1655C171.477 35.3032 171.458 35.3403 171.464 35.3072C171.473 35.2489 171.5 35.2815 171.366 35.3978L173.329 37.6659C173.919 37.1553 174.309 36.5152 174.426 35.7801C174.539 35.0703 174.374 34.4265 174.144 33.9208C173.702 32.9516 172.89 32.1979 172.325 31.7892L170.568 34.2207ZM171.366 35.3978C171.222 35.5225 170.76 35.7818 169.88 36.122C169.06 36.4388 168.04 36.7663 166.942 37.083C164.747 37.7154 162.333 38.2776 160.785 38.6004L161.398 41.5373C162.998 41.2035 165.488 40.6241 167.772 39.9656C168.913 39.6369 170.026 39.2816 170.961 38.9202C171.836 38.5823 172.749 38.1682 173.329 37.6659L171.366 35.3978ZM140.951 46.0169L145.643 59.1843L148.469 58.1774L143.777 45.0101L140.951 46.0169ZM145.575 58.9191C145.614 59.1665 145.632 59.6032 145.551 59.9965C145.466 60.4141 145.335 60.5025 145.328 60.5063L146.84 63.0974C147.911 62.4726 148.328 61.3896 148.49 60.5984C148.657 59.783 148.622 58.9736 148.536 58.4426L145.575 58.9191ZM145.328 60.5063C145.382 60.4751 145.353 60.496 145.122 60.5853C144.932 60.6588 144.67 60.7546 144.337 60.8719C143.671 61.1057 142.76 61.4124 141.654 61.7758C139.446 62.5018 136.492 63.4447 133.254 64.4658C126.778 66.5076 119.18 68.8562 114.159 70.3959L115.039 73.2641C120.064 71.723 127.67 69.3719 134.156 67.327C137.398 66.3048 140.365 65.3575 142.591 64.6257C143.703 64.2602 144.638 63.946 145.332 63.702C145.678 63.5803 145.973 63.4728 146.205 63.3832C146.396 63.3093 146.652 63.2072 146.84 63.0974L145.328 60.5063ZM115.32 70.5149L91.4059 57.3936L89.9628 60.0238L113.877 73.145L115.32 70.5149ZM91.3656 57.3723L85.0105 54.1329L83.6481 56.8056L90.0031 60.0451L91.3656 57.3723ZM85.3324 54.354C85.1919 54.2277 84.9563 53.9409 84.8265 53.6055C84.7085 53.3006 84.7081 53.0526 84.826 52.814L82.1361 51.4856C81.5546 52.6631 81.6913 53.8167 82.0288 54.6884C82.3543 55.5296 82.8925 56.1944 83.3262 56.5845L85.3324 54.354ZM84.826 52.814C85.492 51.4653 89.9481 43.893 92.1358 40.2057L89.5558 38.6749C87.4165 42.2804 82.8688 50.0019 82.1361 51.4856L84.826 52.814ZM90.2333 40.8095L116.073 52.3689L117.298 49.6304L91.4583 38.071L90.2333 40.8095ZM116.999 52.4666L142.678 46.9804L142.051 44.0466L116.373 49.5328L116.999 52.4666ZM114.975 51.3255L113.105 71.6928L116.092 71.9671L117.963 51.5998L114.975 51.3255ZM157.498 39.5513C154.51 38.2187 148.925 35.6969 142.623 33.3502C136.345 31.012 129.246 28.8052 123.233 28.1493L122.908 31.1316C128.539 31.7459 135.354 33.8444 141.576 36.1616C147.776 38.4703 153.277 40.9539 156.277 42.2913L157.498 39.5513ZM122.882 28.1523C121.962 28.2686 120.902 28.4829 119.896 28.6812C118.861 28.8853 117.862 29.077 116.961 29.1814C116.033 29.289 115.368 29.2822 114.955 29.1832C114.764 29.1373 114.705 29.0893 114.708 29.0915C114.731 29.1102 114.745 29.1436 114.744 29.139L111.838 29.8817C112.182 31.2277 113.25 31.8595 114.256 32.1006C115.201 32.327 116.298 32.2783 117.307 32.1614C118.343 32.0412 119.456 31.8257 120.476 31.6246C121.526 31.4176 122.465 31.2288 123.258 31.1286L122.882 28.1523ZM114.744 29.139C114.681 28.8899 114.733 28.8105 114.76 28.7689C114.82 28.6766 114.987 28.5088 115.373 28.3364C116.159 27.985 117.346 27.8414 118.361 27.9158L118.58 24.9239C117.245 24.826 115.525 24.9828 114.149 25.5974C113.454 25.9079 112.727 26.3895 112.243 27.137C111.725 27.9352 111.583 28.886 111.838 29.8817L114.744 29.139ZM118.361 27.9158C118.869 27.9531 119.468 28.1513 119.99 28.4283C120.245 28.5632 120.449 28.7001 120.59 28.8142C120.759 28.9504 120.748 28.9818 120.693 28.8804L123.332 27.4547C123.11 27.0425 122.764 26.7142 122.477 26.4821C122.163 26.2278 121.792 25.9878 121.395 25.7776C120.615 25.3643 119.611 24.9994 118.58 24.9239L118.361 27.9158ZM159.679 39.9586L159.272 41.8303L162.204 42.4664L162.61 40.5947L159.679 39.9586ZM160.164 43.5338C160.943 43.8572 161.803 44.5166 162.143 45.3367C162.415 45.9914 162.521 47.1571 160.937 49.0084L163.217 50.9587C165.31 48.5119 165.737 46.1704 164.914 44.1873C164.16 42.3695 162.512 41.2603 161.313 40.7628L160.164 43.5338ZM160.578 49.9487L159.896 79.2951L162.895 79.3647L163.577 50.0184L160.578 49.9487ZM159.897 79.2759C159.884 79.6403 159.729 80.2991 159.295 80.8694C158.901 81.3894 158.231 81.899 157.017 82.0128L157.297 84.9997C159.364 84.8059 160.792 83.8593 161.684 82.684C162.539 81.559 162.862 80.2834 162.895 79.3838L159.897 79.2759ZM157.017 82.0128C154.608 82.2385 153.033 80.4531 152.562 79.4979L149.871 80.8237C150.626 82.3551 153.142 85.3891 157.297 84.9997L157.017 82.0128ZM152.706 79.9848C152.647 79.48 152.568 78.6312 152.528 77.7592C152.487 76.8571 152.495 76.0475 152.57 75.563L149.606 75.1002C149.481 75.9046 149.489 76.9733 149.531 77.8954C149.574 78.8477 149.66 79.7689 149.727 80.3368L152.706 79.9848ZM152.57 75.563C152.76 74.3472 156.515 58.1406 158.393 50.0909L155.472 49.4093C153.621 57.3398 149.819 73.738 149.606 75.1002L152.57 75.563ZM158.066 48.7679C157.496 48.1094 156.943 47.1193 156.875 46.2605C156.845 45.8707 156.915 45.5478 157.092 45.2657C157.272 44.978 157.643 44.6068 158.429 44.2667L157.237 41.5137C156.032 42.0355 155.124 42.7566 154.551 43.6717C153.973 44.5924 153.813 45.5826 153.885 46.4963C154.022 48.2444 155.01 49.8224 155.799 50.7323L158.066 48.7679ZM159.185 42.2411L158.24 40.2722L155.535 41.5704L156.48 43.5393L159.185 42.2411ZM119.21 9.02069L170.765 34.5597L172.096 31.8714L120.542 6.33246L119.21 9.02069ZM169.931 33.2156L169.931 35.4959L172.931 35.4959L172.931 33.2156L169.931 33.2156ZM66.6275 25.0067L66.6275 23.1824L63.6275 23.1824L63.6275 25.0067L66.6275 25.0067ZM65.5362 24.6257L120.285 9.11981L119.467 6.23334L64.7187 21.7392L65.5362 24.6257ZM156.659 38.6789L116.395 48.9595L117.137 51.8663L157.402 41.5857L156.659 38.6789ZM117.416 49.0611L65.4893 24.0859L64.1889 26.7895L116.116 51.7647L117.416 49.0611ZM66.2903 25.0581L65.7 22.8015L62.7977 23.5606L63.3879 25.8173L66.2903 25.0581ZM64.6584 24.6241L119.71 8.99719L118.891 6.11121L63.8392 21.7381L64.6584 24.6241ZM119.488 8.69819L171.049 33.104L172.332 30.3924L120.772 5.98663L119.488 8.69819ZM170.812 32.964C170.96 33.0708 171.141 33.2266 171.308 33.409C171.477 33.595 171.595 33.7692 171.658 33.9088C171.721 34.0465 171.702 34.0835 171.708 34.0505C171.717 33.9922 171.744 34.0247 171.61 34.1411L173.573 36.4092C174.163 35.8986 174.553 35.2585 174.67 34.5234C174.783 33.8136 174.618 33.1698 174.388 32.6641C173.946 31.6949 173.134 30.9412 172.569 30.5325L170.812 32.964ZM171.61 34.1411C171.466 34.2657 171.004 34.5251 170.124 34.8653C169.304 35.1821 168.284 35.5096 167.186 35.8263C164.991 36.4587 162.577 37.0209 161.029 37.3437L161.642 40.2805C163.242 39.9468 165.732 39.3674 168.017 38.7089C169.157 38.3801 170.27 38.0249 171.205 37.6635C172.08 37.3256 172.993 36.9114 173.573 36.4092L171.61 34.1411ZM141.195 44.7606L145.887 57.9279L148.713 56.9211L144.021 43.7537L141.195 44.7606ZM145.819 57.6627C145.858 57.9102 145.876 58.3469 145.795 58.7402C145.71 59.1577 145.579 59.2461 145.572 59.25L147.084 61.8411C148.155 61.2162 148.572 60.1333 148.734 59.3421C148.901 58.5267 148.866 57.7173 148.78 57.1863L145.819 57.6627ZM145.572 59.25C145.626 59.2188 145.597 59.2397 145.366 59.329C145.176 59.4025 144.914 59.4983 144.58 59.6155C143.915 59.8494 143.004 60.1561 141.898 60.5194C139.69 61.2455 136.736 62.1884 133.498 63.2095C127.022 65.2512 119.424 67.5998 114.403 69.1395L115.282 72.0077C120.308 70.4667 127.914 68.1156 134.4 66.0706C137.642 65.0484 140.609 64.1012 142.835 63.3694C143.947 63.0038 144.882 62.6897 145.576 62.4456C145.922 62.3239 146.217 62.2165 146.449 62.1268C146.64 62.053 146.896 61.9509 147.084 61.8411L145.572 59.25ZM115.564 69.2586L91.6499 56.1373L90.2068 58.7674L114.121 71.8887L115.564 69.2586ZM91.6096 56.116L85.2545 52.8765L83.8921 55.5493L90.2471 58.7888L91.6096 56.116ZM85.5764 53.0977C85.4359 52.9713 85.2003 52.6845 85.0705 52.3491C84.9525 52.0443 84.9521 51.7963 85.07 51.5576L82.3801 50.2293C81.7986 51.4068 81.9353 52.5603 82.2727 53.432C82.5983 54.2732 83.1365 54.9381 83.5702 55.3282L85.5764 53.0977ZM85.07 51.5576C85.736 50.2089 90.192 42.6366 92.3798 38.9493L89.7997 37.4185C87.6605 41.0241 83.1128 48.7456 82.3801 50.2293L85.07 51.5576ZM115.219 50.0685L113.349 70.4365L116.336 70.7108L118.207 50.3428L115.219 50.0685ZM157.498 39.5513C154.492 38.2108 148.646 35.6588 142.082 33.2806C135.544 30.9119 128.183 28.6746 122.175 28.0192L121.85 31.0015C127.486 31.6163 134.569 33.7494 141.06 36.1012C147.525 38.4434 153.295 40.9618 156.277 42.2913L157.498 39.5513ZM121.825 28.0222C120.022 28.25 118.236 28.5305 116.781 28.4789C116.062 28.4534 115.584 28.3472 115.299 28.21C115.075 28.1023 115.023 28.0098 114.99 27.8823L112.084 28.625C112.369 29.7424 113.107 30.4835 113.996 30.9124C114.825 31.3119 115.784 31.4455 116.675 31.477C118.443 31.5397 120.576 31.2037 122.201 30.9985L121.825 28.0222ZM114.99 27.8823C114.927 27.6332 114.979 27.5538 115.006 27.5123C115.066 27.4199 115.233 27.2521 115.619 27.0797C116.405 26.7284 117.592 26.5847 118.607 26.6591L118.826 23.6672C117.491 23.5693 115.771 23.7261 114.395 24.3407C113.7 24.6512 112.973 25.1328 112.489 25.8803C111.971 26.6785 111.829 27.6293 112.084 28.625L114.99 27.8823ZM118.607 26.6591C119.115 26.6964 119.713 26.8946 120.236 27.1716C120.491 27.3065 120.695 27.4434 120.836 27.5575C121.005 27.6937 120.993 27.7251 120.939 27.6237L123.578 26.198C123.356 25.7859 123.01 25.4575 122.723 25.2254C122.409 24.9712 122.038 24.7312 121.641 24.5209C120.861 24.1076 119.857 23.7428 118.826 23.6672L118.607 26.6591ZM120.939 27.6237C121.102 27.9261 121.325 28.0996 121.437 28.1777C121.563 28.2659 121.682 28.3234 121.763 28.3587C121.924 28.4292 122.089 28.4771 122.216 28.5103C122.481 28.5792 122.813 28.6411 123.171 28.7C123.894 28.8193 124.916 28.9564 126.129 29.1241C128.578 29.4628 131.941 29.9436 135.769 30.713C143.454 32.2575 152.886 34.9411 160.468 39.8629L162.101 37.3466C154.045 32.1171 144.174 29.3422 136.36 27.7718C132.439 26.9838 129.003 26.493 126.54 26.1524C125.296 25.9804 124.332 25.8509 123.658 25.74C123.317 25.6838 123.097 25.6397 122.972 25.607C122.904 25.5895 122.914 25.5878 122.963 25.6091C122.988 25.6199 123.061 25.653 123.152 25.7169C123.23 25.7707 123.428 25.9199 123.578 26.198L120.939 27.6237ZM159.923 38.7022L159.517 40.5739L162.448 41.2099L162.854 39.3382L159.923 38.7022ZM160.408 42.2774C161.187 42.6008 162.047 43.2602 162.387 44.0802C162.659 44.735 162.765 45.9007 161.182 47.752L163.461 49.7023C165.555 47.2554 165.981 44.914 165.158 42.9308C164.404 41.113 162.756 40.0039 161.557 39.5064L160.408 42.2774ZM160.822 48.6923L160.14 78.0386L163.139 78.1083L163.821 48.762L160.822 48.6923ZM160.141 78.0195C160.128 78.3838 159.973 79.0427 159.54 79.613C159.145 80.133 158.476 80.6425 157.261 80.7564L157.541 83.7433C159.608 83.5495 161.036 82.6029 161.929 81.4276C162.783 80.3026 163.107 79.027 163.139 78.1274L160.141 78.0195ZM157.261 80.7564C154.852 80.9821 153.277 79.1967 152.807 78.2415L150.115 79.5673C150.87 81.0987 153.386 84.1327 157.541 83.7433L157.261 80.7564ZM152.951 78.7284C152.891 78.2236 152.812 77.3748 152.772 76.5028C152.731 75.6007 152.739 74.7911 152.814 74.3065L149.85 73.8438C149.725 74.6482 149.733 75.7168 149.775 76.639C149.819 77.5912 149.904 78.5125 149.971 79.0803L152.951 78.7284ZM152.814 74.3065C153.004 73.0907 156.759 56.8841 158.637 48.8345L155.716 48.1529C153.866 56.0834 150.063 72.4816 149.85 73.8438L152.814 74.3065ZM158.31 47.5115C157.984 47.135 157.64 46.1518 157.845 45.0185C158.032 43.9908 158.662 42.9183 160.163 42.2684L158.971 39.5154C156.491 40.5893 155.247 42.5334 154.893 44.4836C154.559 46.3282 155.01 48.284 156.043 49.4759L158.31 47.5115ZM160.242 39.5522L157.806 38.3254L156.457 41.0048L158.892 42.2316L160.242 39.5522ZM157.356 41.1482L161.613 40.5033L161.164 37.5371L156.907 38.182L157.356 41.1482ZM44.6822 -3.19617C45.1378 -3.22388 45.6118 -3.25049 46.1038 -3.27594L45.9487 -6.27193C45.4485 -6.24605 44.9654 -6.21894 44.5001 -6.19064L44.6822 -3.19617ZM46.1038 -3.27594C60.276 -4.00928 88.9291 -3.77062 118.689 -1.65046C148.494 0.4729 179.191 4.47041 197.564 11.1803L198.593 8.36236C179.782 1.49266 148.703 -2.51982 118.902 -4.64287C89.057 -6.76912 60.276 -7.01329 45.9487 -6.27193L46.1038 -3.27594ZM197.713 11.4026C196.956 36.4775 191.853 76.6689 185.691 114.231C179.524 151.822 172.329 186.577 167.425 200.829L170.262 201.805C175.26 187.277 182.489 152.277 188.651 114.717C194.818 77.1294 199.948 36.776 200.712 11.4931L197.713 11.4026ZM167.425 200.829C167.399 200.904 167.369 200.928 167.354 200.938C167.336 200.949 167.286 200.976 167.18 200.972L167.065 203.97C168.484 204.025 169.777 203.215 170.262 201.805L167.425 200.829ZM197.564 11.1803C197.637 11.2071 197.667 11.2408 197.681 11.2609C197.695 11.2812 197.715 11.3228 197.713 11.4026L200.712 11.4931C200.754 10.0835 199.922 8.84782 198.593 8.36236L197.564 11.1803ZM44.5001 -6.19064C43.0153 -6.10034 41.8585 -5.07481 41.5224 -3.67578L44.4394 -2.97505C44.4629 -3.07295 44.5034 -3.12102 44.53 -3.14374C44.5549 -3.16504 44.5984 -3.19107 44.6822 -3.19617L44.5001 -6.19064ZM47.4693 -4.04445C60.8398 -4.85763 89.6847 -4.69874 119.924 -2.60768C150.206 -0.513651 181.656 3.50474 200.351 10.332L201.38 7.51408C182.244 0.525397 150.406 -3.50699 120.131 -5.60054C89.8127 -7.69706 60.8295 -7.86255 47.2872 -7.03891L47.4693 -4.04445ZM200.5 10.5519C199.733 35.6489 194.311 76.6599 187.826 115.053C181.337 153.471 173.817 189.061 168.895 203.36L171.731 204.336C176.746 189.769 184.3 153.941 190.784 115.553C197.273 77.1403 202.725 35.9587 203.498 10.6435L200.5 10.5519ZM168.895 203.36C168.869 203.434 168.839 203.457 168.826 203.466C168.809 203.477 168.758 203.504 168.652 203.5L168.532 206.497C169.95 206.554 171.245 205.749 171.731 204.336L168.895 203.36ZM200.351 10.332C200.426 10.3593 200.456 10.3932 200.469 10.4126C200.482 10.432 200.502 10.4726 200.5 10.5519L203.498 10.6435C203.542 9.23154 202.708 7.99887 201.38 7.51408L200.351 10.332ZM47.2872 -7.03891C46.2453 -6.97555 45.3331 -6.44423 44.7755 -5.60196L47.277 -3.94592C47.2983 -3.97812 47.3215 -3.99821 47.345 -4.01176C47.3681 -4.02502 47.4066 -4.04063 47.4693 -4.04445L47.2872 -7.03891ZM44.7755 -5.60195C44.5587 -5.27448 44.4022 -4.90998 44.3095 -4.52405L47.2265 -3.82334C47.2402 -3.88032 47.2597 -3.91975 47.277 -3.94592L44.7755 -5.60195ZM41.5224 -3.67578C39.1997 5.99309 36.0694 17.875 32.6222 30.9837C29.1769 44.0853 25.4179 58.4017 21.8454 72.9142C14.7066 101.914 8.28619 131.797 6.61017 154.413L9.60197 154.635C11.2575 132.295 17.6199 102.629 24.7584 73.6313C28.3245 59.145 32.0777 44.8504 35.5236 31.7467C38.9676 18.65 42.1075 6.73222 44.4394 -2.97505L41.5224 -3.67578ZM44.3095 -4.52406C39.7446 14.4787 31.942 42.0497 24.72 70.7526C17.5225 99.3583 10.9371 128.962 8.92465 151.655L11.9129 151.92C13.9023 129.487 20.4323 100.089 27.6294 71.4846C34.802 42.978 42.6731 15.1316 47.2265 -3.82332L44.3095 -4.52406ZM168.652 203.5C142.255 202.439 93.4658 194.616 56.805 187.484L56.2321 190.429C92.8943 197.561 141.883 205.427 168.532 206.497L168.652 203.5ZM56.805 187.484C50.0758 186.175 43.7609 184.891 38.0746 183.677L37.4483 186.611C43.1548 187.829 49.4877 189.117 56.2321 190.429L56.805 187.484ZM167.18 200.972C141.704 199.992 93.7171 193.559 56.7622 187.477L56.2749 190.437C93.2379 196.521 141.385 202.982 167.065 203.97L167.18 200.972ZM56.7622 187.477C48.8292 186.171 41.411 184.882 34.8402 183.669L34.2954 186.619C40.8886 187.836 48.3264 189.128 56.2749 190.437L56.7622 187.477ZM36.1253 180.195C35.0047 181.706 33.6645 182.968 32.1658 183.977L33.8414 186.465C35.6164 185.27 37.2067 183.773 38.535 181.982L36.1253 180.195ZM11.0243 183.661C2.0737 177.011 1.42005 166.226 7.40496 158.156L4.99527 156.369C-1.872 165.629 -1.18045 178.33 9.23507 186.069L11.0243 183.661ZM7.40496 158.156C8.52554 156.645 9.86572 155.383 11.3644 154.374L9.68886 151.885C7.9139 153.081 6.32356 154.578 4.99527 156.369L7.40496 158.156ZM32.506 154.69C41.4566 161.34 42.1102 172.124 36.1253 180.195L38.535 181.982C45.4023 172.722 44.7107 160.02 34.2952 152.282L32.506 154.69ZM32.1658 183.977C28.8781 186.191 25.3981 187.434 21.8775 187.483C18.3712 187.532 14.7075 186.398 11.0243 183.661L9.23507 186.069C13.3899 189.156 17.6863 190.542 21.9191 190.483C26.1376 190.424 30.1755 188.934 33.8414 186.465L32.1658 183.977ZM11.3644 154.374C14.6521 152.16 18.1322 150.917 21.6528 150.868C25.1591 150.819 28.8228 151.953 32.506 154.69L34.2952 152.282C30.1404 149.194 25.8439 147.809 21.6111 147.868C17.3927 147.927 13.3547 149.417 9.68886 151.885L11.3644 154.374ZM37.0164 179.594C34.0136 183.643 29.9684 186.149 25.6071 186.842C21.2554 187.533 16.4636 186.439 11.9154 183.06L10.1262 185.468C15.2611 189.283 20.8565 190.634 26.0778 189.804C31.2894 188.976 36.0029 185.997 39.4261 181.381L37.0164 179.594ZM11.9154 183.06C2.96482 176.41 2.31117 165.625 8.29608 157.555L5.88639 155.768C-0.980879 165.028 -0.289326 177.729 10.1262 185.468L11.9154 183.06ZM8.29608 157.555C11.299 153.506 15.3441 151 19.7055 150.307C24.0571 149.615 28.8489 150.709 33.3971 154.088L35.1863 151.68C30.0515 147.865 24.4561 146.514 19.2348 147.344C14.0232 148.172 9.3096 151.152 5.88639 155.768L8.29608 157.555ZM33.3971 154.088C42.3477 160.739 43.0014 171.523 37.0164 179.594L39.4261 181.381C46.2934 172.12 45.6019 159.419 35.1863 151.68L33.3971 154.088ZM21.9649 160.246L20.4588 167.922L23.4027 168.499L24.9088 160.823L21.9649 160.246ZM20.4588 167.922L18.9527 175.598L21.8966 176.176L23.4027 168.499L20.4588 167.922ZM21.6422 169.683L28.7307 171.072L29.3079 168.128L22.2193 166.739L21.6422 169.683ZM22.2193 166.739L15.9184 165.503L15.3413 168.447L21.6422 169.683L22.2193 166.739Z" fill="#7831B2"/>
</svg>
