<svg width="270" height="236" viewBox="0 0 270 236" fill="none" xmlns="http://www.w3.org/2000/svg">
<path d="M128.678 66.0701L165.415 79.8024C166.03 80.0326 166.26 80.7844 165.879 81.3198L165.599 81.7119C165.336 82.0804 164.859 82.2264 164.435 82.0679L127.196 68.148M128.678 66.0701L127.196 68.148M128.678 66.0701L135.307 105.666C135.346 105.903 135.29 106.145 135.151 106.339V106.339C134.684 106.994 133.659 106.757 133.527 105.964L127.196 68.148M16.5441 43.2916C51.7277 25.7016 170.455 -14.6394 252.77 -5.39135C253.21 -5.34189 253.557 -5.00786 253.632 -4.57135L276.523 127.312M276.436 122.369L253.72 -4.3172C253.572 -5.13776 252.544 -5.42714 251.988 -4.80543V-4.80543C251.78 -4.57206 251.692 -4.2542 251.752 -3.94709L276.436 122.369ZM276.436 122.369L277.5 127.813M37.9838 165.578L39.1159 172.132L39.4466 173.366L37.9838 165.578ZM37.9838 165.578L17.7681 43.8091C17.6688 43.2105 16.9739 42.9259 16.4832 43.2829V43.2829C16.2303 43.4669 16.1049 43.7792 16.1601 44.087L37.9838 165.578ZM169.434 180.777L176.763 222.577M176.763 222.577L121.429 234M176.763 222.577L236.611 212.482M169.012 179.871L176.341 221.67M176.341 221.67L121.007 233.094M176.341 221.67L187.522 219.63M187.522 219.63L236.643 211.364M187.522 219.63L179.13 177.918M194.964 77.8014C194.258 72.9811 192.744 68.4566 190.56 64.319C181.282 46.7418 159.906 36.1457 136.985 39.5013C108.669 43.6468 88.7164 67.5155 92.4204 92.8135C93.1261 97.6339 94.6398 102.158 96.8238 106.296C106.102 123.873 127.477 134.469 150.398 131.114C178.715 126.968 198.667 103.099 194.964 77.8014ZM27.2034 185.796L2.18685 36.3621C2.14373 36.1045 2.21431 35.8409 2.38036 35.6394V35.6394C2.8725 35.042 3.83902 35.3008 3.96681 36.0641L28.9834 185.498C29.0265 185.755 28.9559 186.019 28.7899 186.221V186.221C28.2977 186.818 27.3312 186.559 27.2034 185.796ZM293.389 138.113C247.357 160.976 130.618 202.661 29.1409 187.987C28.4024 187.88 28.0446 187.03 28.4779 186.423L28.6573 186.171C28.876 185.864 29.247 185.707 29.6195 185.762C129.907 200.647 245.407 160.135 292.891 137.009C293.453 136.736 293.968 137.418 293.605 137.927V137.927C293.548 138.007 293.477 138.07 293.389 138.113ZM276.433 128.431C246.996 147.922 140.423 186.398 40.217 173.997C39.4674 173.904 39.092 173.044 39.5305 172.429L39.6957 172.198C39.91 171.897 40.273 171.74 40.6391 171.786C142.166 184.726 246.272 145.763 274.45 126.413C274.752 126.206 275.116 126.194 275.444 126.357L276.27 126.767C276.95 127.104 277.067 128.012 276.433 128.431ZM4.68779 35.8464C51.6757 11.2976 167.15 -28.0533 261.559 -17.4092C261.954 -17.3646 262.336 -17.5581 262.536 -17.9026L262.722 -18.2239C263.083 -18.8471 262.693 -19.635 261.977 -19.7133C166.441 -30.1637 49.6695 10.2431 4.08599 34.6321C3.97609 34.6909 3.8914 34.7757 3.82894 34.8836V34.8836C3.49022 35.4685 4.08874 36.1594 4.68779 35.8464ZM28.2694 187.931C129.535 202.781 246.324 161.398 292.871 138.478C293.28 138.277 293.476 137.835 293.382 137.389L260.133 -20.3781C260.043 -20.808 259.683 -21.1285 259.245 -21.1668C159.411 -29.8978 50.7831 13.9052 2.70689 34.0215C2.27898 34.2005 2.05381 34.6406 2.12997 35.0982L27.432 187.107C27.5032 187.535 27.8404 187.868 28.2694 187.931ZM128.987 67.7831L135.105 104.332C135.232 105.091 136.134 105.428 136.728 104.938L165.322 81.3652C165.916 80.8756 165.757 79.9265 165.036 79.6569L130.323 66.6813C129.602 66.4117 128.86 67.0239 128.987 67.7831ZM135.825 106.519L165.123 82.3665C165.145 82.3482 165.165 82.327 165.181 82.3035V82.3035C165.406 81.9891 165 81.6112 164.702 81.8569L135.405 106.01C135.382 106.028 135.363 106.049 135.346 106.073V106.073C135.122 106.387 135.527 106.765 135.825 106.519ZM259.921 -21.5189L293.077 135.957C293.246 136.758 294.286 136.975 294.761 136.309V136.309C294.913 136.095 294.969 135.827 294.915 135.57L261.759 -21.9058C261.59 -22.7063 260.55 -22.9236 260.075 -22.2577V-22.2577C259.923 -22.0438 259.867 -21.7759 259.921 -21.5189ZM127.477 69.8569L133.596 106.405C133.723 107.165 134.624 107.502 135.218 107.012L163.812 83.439C164.406 82.9493 164.248 82.0003 163.526 81.7307L128.814 68.755C128.093 68.4855 127.35 69.0976 127.477 69.8569Z" stroke="#7831B2" stroke-width="3" stroke-linecap="round" stroke-linejoin="round"/>
</svg>
