<svg width="137" height="131" viewBox="0 0 137 131" fill="none" xmlns="http://www.w3.org/2000/svg">
<path d="M110.094 49.5225L108.675 49.0372L110.094 49.5225ZM79.9659 62.2583L79.4768 63.6763L79.9659 62.2583ZM63.985 33.619L65.4043 34.1043L63.985 33.619ZM94.1132 20.8833L94.6023 19.4652L94.1132 20.8833ZM106.889 55.4L105.712 54.4697L106.889 55.4ZM67.1903 27.7416L66.0136 26.8113L67.1903 27.7416ZM72.8148 10.9868L72.4042 9.54412L72.8148 10.9868ZM49.0954 34.5825L50.5898 34.4526L50.5886 34.4393L50.5872 34.4261L49.0954 34.5825ZM51.4854 47.4937L52.4678 46.3601L51.4854 47.4937ZM62.1663 45.4993L63.4589 46.2604L63.5901 46.0376L63.6391 45.7838L62.1663 45.4993ZM61.6246 33.8675L63.0899 33.5464L63.0707 33.459L63.0413 33.3744L61.6246 33.8675ZM57.7019 30.0873L57.9773 31.5619L57.7019 30.0873ZM110.138 20.8461L110.763 22.2099L110.858 22.1663L110.946 22.1099L110.138 20.8461ZM117.007 19.5635L117.604 18.1873L117.007 19.5635ZM121.442 29.1226L119.952 29.2927L121.442 29.1226ZM119.329 39.3049L119.054 37.8304L119.329 39.3049ZM123.486 35.435C123.357 34.6167 122.589 34.0575 121.771 34.1862C120.953 34.3149 120.393 35.0826 120.522 35.901L123.486 35.435ZM118.509 49.2125C117.68 49.2125 117.009 49.884 117.009 50.7125C117.009 51.5409 117.68 52.2125 118.509 52.2125V49.2125ZM171.174 20.986L169.755 21.4713L171.174 20.986ZM159.68 -0.0905895L158.503 0.83968L159.68 -0.0905895ZM63.1345 -24.6846L62.6454 -26.1026L63.1345 -24.6846ZM5.82691 78.016L4.40759 78.5013L5.82691 78.016ZM17.3212 99.0926L16.1445 100.023L17.3212 99.0926ZM113.867 123.687L114.356 125.105L113.867 123.687ZM172.173 19.983L170.754 20.4683L172.173 19.983ZM160.679 -1.09356L159.502 -0.163284L160.679 -1.09356ZM64.1331 -25.6876L63.644 -27.1056V-27.1056L64.1331 -25.6876ZM6.82554 77.0131L5.40621 77.4984L6.82554 77.0131ZM18.3198 98.0896L17.1432 99.0199L18.3198 98.0896ZM114.866 122.684L115.355 124.102L114.866 122.684ZM109.416 48.0929C105.827 58.5906 93.295 64.0688 81.1967 59.896L80.2185 62.732C93.5855 67.3425 108.031 61.4167 112.255 49.0635L109.416 48.0929ZM81.1967 59.896C69.0966 55.7225 62.5552 43.6618 66.146 33.16L63.3074 32.1894C59.0848 44.5385 66.8532 58.1222 80.2185 62.732L81.1967 59.896ZM66.146 33.16C69.7354 22.6624 82.2675 17.1841 94.3658 21.357L95.344 18.5209C81.9769 13.9105 67.5313 19.8362 63.3074 32.1894L66.146 33.16ZM94.3658 21.357C106.466 25.5304 113.007 37.5912 109.416 48.0929L112.255 49.0635C116.478 36.7145 108.709 23.1308 95.344 18.5209L94.3658 21.357ZM108.675 49.0372C107.987 51.0497 106.978 52.869 105.712 54.4697L108.065 56.3302C109.537 54.4685 110.713 52.3494 111.513 50.0078L108.675 49.0372ZM80.4549 60.8403C68.3549 56.6668 61.8134 44.6061 65.4043 34.1043L62.5656 33.1337C58.3431 45.4828 66.1115 59.0665 79.4768 63.6763L80.4549 60.8403ZM65.4043 34.1043C66.0924 32.0919 67.1015 30.2725 68.367 28.6719L66.0136 26.8113C64.5417 28.673 63.3663 30.7921 62.5656 33.1337L65.4043 34.1043ZM93.6241 22.3013C105.724 26.4747 112.266 38.5355 108.675 49.0372L111.513 50.0078C115.736 37.6588 107.968 24.0751 94.6023 19.4652L93.6241 22.3013ZM105.712 54.4697C100.334 61.2718 90.2247 64.21 80.4549 60.8403L79.4768 63.6763C90.3202 67.4163 101.814 64.237 108.065 56.3302L105.712 54.4697ZM68.367 28.6719C73.7446 21.8698 83.8544 18.9316 93.6241 22.3013L94.6023 19.4652C83.7589 15.7252 72.2646 18.9045 66.0136 26.8113L68.367 28.6719ZM50.9361 100.647C50.064 95.1347 50.5669 86.6556 54.8764 79.2376C59.1358 71.9058 67.2119 65.435 81.87 63.9657L81.5708 60.9806C66.0335 62.5381 57.0636 69.5005 52.2824 77.7306C47.5512 85.8745 47.0189 95.086 47.9729 101.116L50.9361 100.647ZM50.9361 100.647C50.0923 95.3139 51.8407 86.4354 56.9828 78.7302C62.0771 71.0968 70.4122 64.7477 82.66 64.1827L82.5218 61.1859C69.1622 61.8021 60.0161 68.7807 54.4875 77.0649C49.0067 85.2775 46.9906 94.9068 47.9729 101.116L50.9361 100.647ZM103.916 60.9387C111.802 59.3726 129.68 61.3619 137.339 82.382L140.158 81.355C131.846 58.5443 112.207 56.2334 103.331 57.9961L103.916 60.9387ZM102.94 61.1641C110.785 59.6064 128.588 61.9909 136.259 83.0444L139.077 82.0173C130.778 59.24 111.274 56.4506 102.356 58.2216L102.94 61.1641ZM61.5471 30.6903C61.1933 28.3228 61.3488 24.5006 62.9861 20.9057C64.596 17.3708 67.6491 14.0168 73.2255 12.4295L72.4042 9.54412C65.9107 11.3925 62.1988 15.396 60.2559 19.6623C58.3403 23.8684 58.1552 28.291 58.5801 31.1337L61.5471 30.6903ZM73.2255 12.4295C80.6931 10.3039 88.2762 9.19 94.4349 10.4204C97.4899 11.0307 100.149 12.2088 102.282 14.0866C104.408 15.9581 106.092 18.5947 107.096 22.2564L109.989 21.463C108.85 17.307 106.882 14.1387 104.264 11.8347C101.654 9.53693 98.4777 8.16879 95.0226 7.47852C88.161 6.1077 80.0239 7.37518 72.4042 9.54412L73.2255 12.4295ZM47.6011 34.7124C47.7729 36.6889 48.0999 39.7166 48.5252 42.3833C48.7372 43.7126 48.9789 44.986 49.2461 46.0052C49.379 46.5125 49.5275 46.9925 49.6954 47.3991C49.8391 47.7469 50.0826 48.2629 50.5031 48.6273L52.4678 46.3601C52.614 46.4868 52.5878 46.5433 52.4681 46.2536C52.3727 46.0226 52.264 45.6869 52.148 45.2445C51.9173 44.3644 51.6937 43.202 51.4878 41.9108C51.0772 39.3365 50.7577 36.3839 50.5898 34.4526L47.6011 34.7124ZM50.5031 48.6273C51.1127 49.1555 52.0614 49.529 52.9959 49.765C53.9874 50.0154 55.1779 50.1649 56.4165 50.1139C58.8694 50.0129 61.7897 49.0951 63.4589 46.2604L60.8738 44.7382C59.9157 46.3653 58.1811 47.0387 56.2931 47.1164C55.3612 47.1548 54.4598 47.0406 53.7305 46.8564C53.367 46.7646 53.0638 46.6598 52.8328 46.5585C52.718 46.5081 52.6289 46.462 52.5635 46.4235C52.5313 46.4045 52.5073 46.3889 52.4906 46.3771C52.4736 46.3652 52.4668 46.3593 52.4678 46.3601L50.5031 48.6273ZM63.6391 45.7838C64.4515 41.5778 63.5943 35.848 63.0899 33.5464L60.1594 34.1886C60.6431 36.3957 61.3858 41.6308 60.6936 45.2148L63.6391 45.7838ZM63.0413 33.3744C62.7556 32.5537 62.1887 31.3441 61.3684 30.3538C60.5904 29.4146 59.2334 28.2754 57.4266 28.6128L57.9773 31.5619C58.1286 31.5336 58.4871 31.5783 59.0581 32.2675C59.5866 32.9056 60.002 33.7689 60.208 34.3607L63.0413 33.3744ZM57.4266 28.6128C56.8664 28.7174 56.1122 28.7864 55.0703 28.9225C54.0963 29.0497 52.963 29.2274 51.8981 29.5401C50.8535 29.8468 49.7231 30.3255 48.8726 31.1488C47.9545 32.0376 47.4476 33.2506 47.6036 34.7389L50.5872 34.4261C50.5298 33.8785 50.6861 33.5687 50.9592 33.3043C51.3 32.9744 51.8889 32.6695 52.7434 32.4186C53.5774 32.1736 54.5229 32.0195 55.4588 31.8973C56.3267 31.7839 57.3137 31.6858 57.9773 31.5619L57.4266 28.6128ZM110.946 22.1099C111.497 21.7576 112.496 21.254 113.591 20.9586C114.716 20.6549 115.706 20.634 116.411 20.9396L117.604 18.1873C115.991 17.4875 114.208 17.6848 112.809 18.0621C111.38 18.4477 110.103 19.0882 109.33 19.5824L110.946 22.1099ZM116.411 20.9396C117.564 21.4398 118.193 22.0181 118.677 23.0863C119.225 24.2961 119.593 26.1519 119.952 29.2927L122.932 28.9524C122.576 25.8345 122.176 23.5392 121.41 21.8482C120.579 20.0158 119.349 18.9439 117.604 18.1873L116.411 20.9396ZM119.952 29.2927C120.323 32.5446 120.615 34.6884 120.451 36.1536C120.374 36.8391 120.212 37.1777 120.059 37.3607C119.925 37.5204 119.671 37.7152 119.054 37.8304L119.605 40.7794C120.705 40.5739 121.663 40.1179 122.359 39.2862C123.036 38.4778 123.321 37.4845 123.432 36.4868C123.645 34.5859 123.275 31.9591 122.932 28.9524L119.952 29.2927ZM119.054 37.8304C117.364 38.1459 115.854 38.2655 114.622 37.8359C113.525 37.4532 112.406 36.5443 111.677 34.1696L108.809 35.0493C109.761 38.1536 111.468 39.9131 113.635 40.6686C115.667 41.3773 117.86 41.1052 119.605 40.7794L119.054 37.8304ZM111.677 34.1696C110.857 31.4941 110.2 28.4844 110.06 26.0447C109.99 24.8169 110.057 23.8283 110.245 23.1284C110.436 22.4145 110.677 22.249 110.763 22.2099L109.514 19.4824C108.268 20.0527 107.648 21.2275 107.347 22.3524C107.042 23.4913 106.986 24.84 107.065 26.2159C107.223 28.9833 107.949 32.2457 108.809 35.0493L111.677 34.1696ZM120.522 35.901C121.033 39.1504 121.774 42.0741 122.319 44.321C122.595 45.4602 122.813 46.3958 122.941 47.1389C123.004 47.5082 123.039 47.7993 123.051 48.0227C123.063 48.2591 123.044 48.3477 123.045 48.3442L125.956 49.0689C126.14 48.3282 126.033 47.4232 125.898 46.6322C125.75 45.7726 125.507 44.7399 125.234 43.614C124.681 41.3309 123.973 38.5377 123.486 35.435L120.522 35.901ZM123.045 48.3442C123.081 48.2001 123.149 48.2495 122.88 48.4118C122.623 48.5664 122.219 48.7224 121.682 48.855C120.616 49.1181 119.346 49.2125 118.509 49.2125V52.2125C119.502 52.2125 121.029 52.1062 122.401 51.7676C123.083 51.5993 123.809 51.3541 124.427 50.9821C125.032 50.6179 125.72 50.0154 125.956 49.0689L123.045 48.3442ZM172.594 20.5007C169.868 12.5293 165.868 5.31775 160.857 -1.02086L158.503 0.83968C163.308 6.91725 167.142 13.829 169.755 21.4713L172.594 20.5007ZM160.857 -1.02086C139.57 -27.9463 100.142 -39.0355 62.6454 -26.1026L63.6236 -23.2666C100.046 -35.8291 138.09 -24.981 158.503 0.83968L160.857 -1.02086ZM62.6454 -26.1026C16.3533 -10.136 -9.9176 36.6061 4.40759 78.5013L7.24624 77.5307C-6.44729 37.4828 18.5967 -7.73635 63.6236 -23.2666L62.6454 -26.1026ZM4.40759 78.5013C7.13323 86.4727 11.1333 93.6842 16.1445 100.023L18.4979 98.1623C13.6931 92.0847 9.85935 85.173 7.24624 77.5307L4.40759 78.5013ZM16.1445 100.023C37.4313 126.948 76.8597 138.037 114.356 125.105L113.378 122.269C76.9552 134.831 38.9113 123.983 18.4979 98.1623L16.1445 100.023ZM114.356 125.105C160.648 109.138 186.919 62.3959 172.594 20.5007L169.755 21.4713C183.449 61.5192 158.405 106.738 113.378 122.269L114.356 125.105ZM173.592 19.4977C170.867 11.5263 166.867 4.31478 161.855 -2.02382L159.502 -0.163284C164.307 5.91428 168.141 12.826 170.754 20.4683L173.592 19.4977ZM161.855 -2.02382C140.569 -28.9492 101.14 -40.0384 63.644 -27.1056L64.6222 -24.2695C101.045 -36.8321 139.089 -25.984 159.502 -0.163284L161.855 -2.02382ZM63.644 -27.1056C17.352 -11.139 -8.91898 35.6031 5.40621 77.4984L8.24486 76.5278C-5.44867 36.4799 19.5953 -8.73932 64.6222 -24.2695L63.644 -27.1056ZM5.40621 77.4984C8.13185 85.4697 12.132 92.6813 17.1432 99.0199L19.4965 97.1593C14.6917 91.0818 10.858 84.17 8.24486 76.5278L5.40621 77.4984ZM17.1432 99.0199C38.4299 125.945 77.8583 137.034 115.355 124.102L114.376 121.266C77.9538 133.828 39.91 122.98 19.4965 97.1593L17.1432 99.0199ZM115.355 124.102C161.647 108.135 187.918 61.393 173.592 19.4977L170.754 20.4683C184.447 60.5162 159.403 105.735 114.376 121.266L115.355 124.102Z" fill="#7831B2"/>
</svg>
