<svg width="190" height="155" viewBox="0 0 190 155" fill="none" xmlns="http://www.w3.org/2000/svg">
<path d="M142.537 61.0001L140.646 60.3498L142.537 61.0001ZM109.265 74.9863L109.914 73.0945L109.265 74.9863ZM91.6171 43.5352L93.5084 44.1855L91.6171 43.5352ZM124.889 29.549L124.24 31.4408L124.889 29.549ZM138.997 67.4546L137.432 66.21L138.997 67.4546ZM95.1569 37.0807L93.5913 35.836L95.1569 37.0807ZM111.424 77.133C112.523 77.0234 113.325 76.0436 113.216 74.9445C113.106 73.8454 112.126 73.0432 111.027 73.1527L111.424 77.133ZM112.275 77.3721C113.379 77.3215 114.232 76.3859 114.181 75.2825C114.131 74.1791 113.195 73.3257 112.092 73.3763L112.275 77.3721ZM134.947 69.8909C133.863 70.1049 133.158 71.1568 133.372 72.2405C133.586 73.3241 134.638 74.0291 135.722 73.8151L134.947 69.8909ZM172.118 97.0607C172.498 98.0978 173.647 98.6306 174.684 98.2506C175.721 97.8706 176.254 96.7217 175.874 95.6846L172.118 97.0607ZM133.873 70.138C132.789 70.352 132.085 71.4039 132.298 72.4875C132.512 73.5712 133.564 74.2762 134.648 74.0622L133.873 70.138ZM170.929 97.7859C171.309 98.8231 172.458 99.3558 173.495 98.9758C174.532 98.5958 175.065 97.4469 174.685 96.4098L170.929 97.7859ZM232 117.673L233.565 118.918L234.112 118.231L233.976 117.363L232 117.673ZM230.74 119.257L231.536 121.092L231.995 120.893L232.306 120.502L230.74 119.257ZM43.2514 129.999L43.6048 128.03L43.2514 129.999ZM42.3627 129.122L44.3282 128.752L42.3627 129.122ZM210.802 105.09L208.842 105.486L210.802 105.09ZM210.327 106.222L211.371 107.928L210.327 106.222ZM189.735 4.23507L190.063 2.26209L189.735 4.23507ZM190.627 5.09881L192.588 4.70325L190.627 5.09881ZM24.1463 27.8969L24.9391 29.7331L24.1463 27.8969ZM23.5307 29.0927L25.4961 28.7226L23.5307 29.0927ZM20.0076 146.256L20.3999 144.294L20.0076 146.256ZM19.1366 145.307L17.1497 145.535L19.1366 145.307ZM231.881 116.835L233.857 116.525L231.881 116.835ZM231.258 118L232.047 119.838L231.258 118ZM211.206 -10.4875L210.698 -8.55321L211.206 -10.4875ZM212.006 -9.59914L210.03 -9.28855L212.006 -9.59914ZM4.03737 6.50501L4.70786 8.38927L4.03737 6.50501ZM3.34346 7.65202L5.33043 7.42406L3.34346 7.65202ZM17.7571 145.964L15.7702 146.192L17.7571 145.964ZM19.029 146.328L20.5942 147.573L19.029 146.328ZM2.15535 8.13805L3.72062 9.38302L2.15535 8.13805ZM2.00466 8.66421L0.0176914 8.89218L2.00466 8.66421ZM3.42719 8.50141L1.44022 8.72937L3.42719 8.50141ZM19.1797 145.801L17.1927 146.029L19.1797 145.801ZM40.9138 129.801L42.8793 129.431L40.9138 129.801ZM42.2654 130.135L43.8307 131.38L42.2654 130.135ZM22.3077 29.5431L23.873 30.7881L22.3077 29.5431ZM22.1548 30.1599L24.1203 29.7898L22.1548 30.1599ZM23.6593 29.8773L25.6248 29.5073L23.6593 29.8773ZM42.4183 129.518L44.3838 129.148L42.4183 129.518ZM18.8696 146.531L17.3043 145.286L18.8696 146.531ZM19.3945 147.969L19.7807 146.007L19.3945 147.969ZM19.7561 146.207L20.1507 144.247L19.7561 146.207ZM209.643 107.448L208.585 105.751L209.643 107.448ZM209.727 107.373L211.292 108.618L209.727 107.373ZM42.1667 130.282L40.6014 129.037L42.1667 130.282ZM42.7162 131.712L42.3681 133.681L42.7162 131.712ZM43.0304 129.959L43.3853 127.991L43.0304 129.959ZM189.535 5.53257L187.97 4.28761L189.535 5.53257ZM188.692 5.85577L188.362 7.82836L188.692 5.85577ZM188.99 4.11388L189.31 2.13962L188.99 4.11388ZM23.4623 28.1891L24.2631 30.0217L23.4623 28.1891ZM23.2861 28.326L21.7208 27.081L23.2861 28.326ZM3.69576 7.75603L4.35873 9.64296L3.69576 7.75603ZM3.13417 6.90476L4.69944 8.14973L3.13417 6.90476ZM210.998 -9.19974L212.563 -7.95478L210.998 -9.19974ZM210.033 -8.87914L210.543 -10.8131L210.033 -8.87914ZM210.514 -10.6662L210.012 -8.73005L210.514 -10.6662ZM3.36501 6.73731L2.68901 4.85501L3.36501 6.73731ZM189.289 6.29687L187.329 6.69243L189.289 6.29687ZM189.442 5.66335L191.007 6.90831L189.442 5.66335ZM210.728 106.117L209.163 104.872L210.728 106.117ZM209.364 105.789L211.324 105.394L209.364 105.789ZM210.881 105.484L212.842 105.088L210.881 105.484ZM212.145 -8.63062L210.169 -8.32003L212.145 -8.63062ZM210.826 -8.97809L212.391 -7.73311L210.826 -8.97809ZM41.9843 131.582L41.631 133.55L41.9843 131.582ZM41.0956 130.704L39.1301 131.075L41.0956 130.704ZM209.535 106.673L207.575 107.069L209.535 106.673ZM209.06 107.805L210.104 109.511L209.06 107.805ZM188.468 5.81792L188.795 3.84493L188.468 5.81792ZM189.36 6.68166L191.321 6.28609L189.36 6.68166ZM22.8792 29.4798L23.672 31.3159L22.8792 29.4798ZM22.2635 30.6755L24.229 30.3055L22.2635 30.6755ZM18.7405 147.838L19.1328 145.877L18.7405 147.838ZM17.8695 146.889L15.8825 147.117L17.8695 146.889ZM230.614 118.418L232.59 118.108L230.614 118.418ZM229.991 119.583L229.202 117.745L229.991 119.583ZM190.807 5.99146L188.846 6.38702L190.807 5.99146ZM209.289 106.845L210.309 108.565L209.289 106.845ZM209.939 -8.90463L209.431 -6.97036L209.939 -8.90463ZM210.739 -8.01629L208.763 -7.70571L210.739 -8.01629ZM210.673 -8.39976L212.649 -8.71035L210.673 -8.39976ZM23.823 29.0746L24.6052 30.9153L23.823 29.0746ZM2.77024 8.08785L3.44074 9.97211L2.77024 8.08785ZM2.07634 9.23487L4.0633 9.0069L2.07634 9.23487ZM101.423 18.7875L100.879 16.8631L101.423 18.7875ZM75.3155 44.6147L77.3079 44.4405L77.3063 44.4227L77.3044 44.405L75.3155 44.6147ZM77.9461 58.7469L79.2517 57.2318L77.9461 58.7469ZM89.7026 56.5639L91.4235 57.5829L91.5999 57.2851L91.6659 56.9452L89.7026 56.5639ZM89.1063 43.8321L91.0595 43.4017L91.0337 43.2845L90.994 43.1713L89.1063 43.8321ZM84.7886 39.6944L85.1538 41.6608L84.7886 39.6944ZM142.505 29.5792L143.334 31.3993L143.461 31.3416L143.578 31.267L142.505 29.5792ZM150.066 28.1753L150.858 26.3388L150.066 28.1753ZM154.947 38.6384L152.96 38.8664L154.947 38.6384ZM152.622 49.7836L152.257 47.8173L152.622 49.7836ZM157.541 45.4905C157.369 44.3995 156.344 43.6549 155.253 43.8274C154.162 43.9998 153.418 45.0241 153.59 46.1151L157.541 45.4905ZM151.718 60.2701C150.614 60.2701 149.718 61.1655 149.718 62.2701C149.718 63.3746 150.614 64.2701 151.718 64.2701V60.2701ZM140.646 60.3498C139.899 62.5203 138.805 64.4827 137.432 66.21L140.563 68.6993C142.212 66.6242 143.53 64.2615 144.428 61.6504L140.646 60.3498ZM109.914 73.0945C96.6903 68.5589 89.6211 55.491 93.5084 44.1855L89.7258 42.8848C84.9846 56.6738 93.7181 71.7682 108.616 76.8782L109.914 73.0945ZM93.5084 44.1855C94.2548 42.015 95.3492 40.0526 96.7224 38.3253L93.5913 35.836C91.9416 37.9111 90.6236 40.2738 89.7258 42.8848L93.5084 44.1855ZM124.24 31.4408C137.464 35.9764 144.533 49.0443 140.646 60.3498L144.428 61.6504C149.169 47.8615 140.436 32.7671 125.538 27.6571L124.24 31.4408ZM137.432 66.21C131.594 73.5522 120.586 76.7547 109.914 73.0945L108.616 76.8782C120.709 81.0257 133.558 77.5101 140.563 68.6993L137.432 66.21ZM96.7224 38.3253C102.56 30.9831 113.568 27.7806 124.24 31.4408L125.538 27.6571C113.445 23.5096 100.596 27.0252 93.5913 35.836L96.7224 38.3253ZM141.465 59.313C137.577 70.62 123.958 76.5936 110.734 72.0577L109.436 75.8413C124.334 80.9511 140.507 74.4009 145.248 60.6136L141.465 59.313ZM110.734 72.0577C97.5099 67.522 90.4407 54.4541 94.328 43.1487L90.5453 41.848C85.8041 55.6369 94.5376 70.7313 109.436 75.8413L110.734 72.0577ZM94.328 43.1487C98.2158 31.8416 111.835 25.8681 125.059 30.4039L126.357 26.6203C111.459 21.5105 95.286 28.0607 90.5453 41.848L94.328 43.1487ZM125.059 30.4039C138.283 34.9396 145.352 48.0075 141.465 59.313L145.248 60.6136C149.989 46.8247 141.255 31.7303 126.357 26.6203L125.059 30.4039ZM77.6855 116.869C76.7358 110.9 77.2855 101.709 81.9775 93.6769C86.6029 85.7594 95.3875 78.7315 111.424 77.133L111.027 73.1527C93.8273 74.8672 83.8494 82.543 78.5237 91.6592C73.2648 100.661 72.675 110.834 73.7352 117.497L77.6855 116.869ZM77.6855 116.869C76.774 111.14 78.665 101.514 84.2842 93.1406C89.8388 84.8638 98.9187 77.9847 112.275 77.3721L112.092 73.3763C97.2624 74.0565 87.1008 81.7655 80.9628 90.9116C74.8893 99.9616 72.6367 110.593 73.7352 117.497L77.6855 116.869ZM135.722 73.8151C144.295 72.1221 163.767 74.2684 172.118 97.0607L175.874 95.6846C166.647 70.501 144.824 67.9404 134.947 69.8909L135.722 73.8151ZM134.648 74.0622C143.166 72.3801 162.562 74.9495 170.929 97.7859L174.685 96.4098C165.474 71.2703 143.806 68.1765 133.873 70.138L134.648 74.0622ZM3.44074 9.97211C22.8577 3.0628 56.1583 -5.97661 93.7428 -10.8797C131.345 -15.7851 173.075 -16.5284 209.431 -6.97036L210.448 -10.8389C173.388 -20.582 131.08 -19.7844 93.2253 -14.8461C55.3523 -9.90535 21.7759 -0.797951 2.09975 6.20359L3.44074 9.97211ZM208.763 -7.70571L228.639 118.729L232.59 118.108L212.715 -8.32688L208.763 -7.70571ZM229.202 117.745C210.379 125.827 177.571 136.82 139.576 143.809C101.57 150.799 58.5141 153.756 19.1328 145.877L18.3481 149.8C58.4113 157.814 102.021 154.783 140.3 147.743C178.589 140.7 211.684 129.62 230.78 121.421L229.202 117.745ZM19.8565 146.662L4.0633 9.0069L0.0893697 9.46283L15.8825 147.117L19.8565 146.662ZM23.672 31.3159C52.6094 18.8211 124.585 -2.76161 188.14 7.79091L188.795 3.84493C124.157 -6.88739 51.3485 15.0086 22.0864 27.6436L23.672 31.3159ZM187.4 7.07722L207.575 107.069L211.496 106.277L191.321 6.28609L187.4 7.07722ZM208.016 106.099C185.291 120.004 121.228 143.772 42.3376 129.613L41.631 133.55C121.58 147.899 186.629 123.874 210.104 109.511L208.016 106.099ZM43.0611 130.334L24.229 30.3055L20.2981 31.0456L39.1301 131.075L43.0611 130.334ZM210.169 -8.32003L230.024 117.984L233.976 117.363L214.121 -8.9412L210.169 -8.32003ZM230.435 116.428L229.175 118.012L232.306 120.502L233.565 118.918L230.435 116.428ZM232.716 118.946L212.649 -8.71035L208.697 -8.08918L228.765 119.567L232.716 118.946ZM188.846 6.38702L208.921 105.879L212.842 105.088L192.767 5.59589L188.846 6.38702ZM211.324 105.394L191.25 5.9013L187.329 6.69243L207.403 106.185L211.324 105.394ZM4.04101 8.6196C23.191 1.74219 56.4064 -7.34827 94.0133 -12.3359C131.638 -17.3258 173.496 -18.1867 210.012 -8.73005L211.015 -12.6023C173.798 -22.2406 131.363 -21.3244 93.4874 -16.3011C55.594 -11.2755 22.1018 -2.1168 2.68901 4.85501L4.04101 8.6196ZM210.543 -10.8131C173.767 -20.5037 131.812 -19.803 94.166 -14.9705C56.5017 -10.1357 22.9934 -1.14403 3.03279 5.86911L4.35873 9.64296C24.0657 2.71895 57.3006 -6.20538 94.6753 -11.003C132.068 -15.803 173.448 -16.4513 209.524 -6.94516L210.543 -10.8131ZM24.2631 30.0217C52.6303 17.6259 124.794 -4.26153 188.67 6.08813L189.31 2.13962C124.355 -8.38482 51.3616 13.8151 22.6615 26.3564L24.2631 30.0217ZM189.022 3.88318C125.014 -6.82405 52.9316 14.5319 23.0408 27.2339L24.6052 30.9153C54.1802 18.3475 125.433 -2.69844 188.362 7.82836L189.022 3.88318ZM208.269 105.125C184.665 119.12 121.223 142.025 43.3853 127.991L42.6756 131.928C121.566 146.151 185.975 122.993 210.309 108.565L208.269 105.125ZM42.3681 133.681C122.657 147.872 187.805 123.424 210.702 109.145L208.585 105.751C186.45 119.555 122.295 143.746 43.0643 129.742L42.3681 133.681ZM231.204 115.838C212.617 123.901 179.708 135.017 141.479 142.105C103.24 149.195 59.8206 152.229 20.1507 144.247L19.3616 148.168C59.719 156.289 103.696 153.179 142.208 146.038C180.732 138.895 213.931 127.692 232.796 119.508L231.204 115.838ZM19.0082 149.932C59.2673 157.855 103.052 154.686 141.381 147.541C179.72 140.395 212.741 129.245 231.536 121.092L229.945 117.422C211.428 125.455 178.694 136.517 140.648 143.609C102.591 150.703 59.3586 153.797 19.7807 146.007L19.0082 149.932ZM44.3838 129.148L25.6248 29.5073L21.6938 30.2474L40.4528 129.888L44.3838 129.148ZM20.1894 30.5299L38.9484 130.171L42.8793 129.431L24.1203 29.7898L20.1894 30.5299ZM21.1666 145.573L5.41415 8.27344L1.44022 8.72937L17.1927 146.029L21.1666 145.573ZM0.0176914 8.89218L15.7702 146.192L19.7441 145.736L3.99162 8.43624L0.0176914 8.89218ZM4.70786 8.38927C24.1248 1.47996 57.4255 -7.55945 95.0099 -12.4625C132.613 -17.368 174.342 -18.1113 210.698 -8.55321L211.715 -12.4217C174.655 -22.1648 132.347 -21.3673 94.4925 -16.4289C56.6194 -11.4882 23.043 -2.38079 3.36688 4.62075L4.70786 8.38927ZM210.03 -9.28855L229.906 117.146L233.857 116.525L213.982 -9.90972L210.03 -9.28855ZM230.469 116.162C211.646 124.244 178.838 135.238 140.843 142.226C102.837 149.216 59.7812 152.173 20.3999 144.294L19.6153 148.217C59.6784 156.231 103.288 153.2 141.567 146.16C179.856 139.117 212.951 128.037 232.047 119.838L230.469 116.162ZM21.1236 145.079L5.33043 7.42406L1.3565 7.87999L17.1497 145.535L21.1236 145.079ZM24.9391 29.7331C53.8765 17.2383 125.852 -4.34445 189.407 6.20807L190.063 2.26209C125.424 -8.47024 52.6156 13.4258 23.3535 26.0608L24.9391 29.7331ZM188.667 5.49437L208.842 105.486L212.763 104.695L192.588 4.70325L188.667 5.49437ZM209.283 104.516C186.559 118.421 122.495 142.189 43.6048 128.03L42.8981 131.967C122.848 146.316 187.896 122.292 211.371 107.928L209.283 104.516ZM44.3282 128.752L25.4961 28.7226L21.5652 29.4627L40.3972 129.492L44.3282 128.752ZM43.6048 128.03C43.9638 128.095 44.2568 128.373 44.3282 128.752L40.3972 129.492C40.6368 130.764 41.6432 131.742 42.8981 131.967L43.6048 128.03ZM208.842 105.486C208.779 105.174 208.903 104.748 209.283 104.516L211.371 107.928C212.531 107.218 213.007 105.903 212.763 104.695L208.842 105.486ZM189.407 6.20807C189.032 6.14573 188.74 5.85797 188.667 5.49437L192.588 4.70325C192.335 3.44938 191.335 2.47336 190.063 2.26209L189.407 6.20807ZM23.3535 26.0608C21.967 26.6594 21.3096 28.1051 21.5652 29.4627L25.4961 28.7226C25.5626 29.0758 25.3863 29.54 24.9391 29.7331L23.3535 26.0608ZM20.3999 144.294C20.791 144.373 21.0795 144.694 21.1236 145.079L17.1497 145.535C17.3021 146.863 18.2915 147.952 19.6153 148.217L20.3999 144.294ZM229.906 117.146C229.852 116.802 230.03 116.351 230.469 116.162L232.047 119.838C233.407 119.254 234.067 117.857 233.857 116.525L229.906 117.146ZM210.698 -8.55321C210.342 -8.64674 210.085 -8.94165 210.03 -9.28855L213.982 -9.90972C213.792 -11.1148 212.912 -12.1071 211.715 -12.4217L210.698 -8.55321ZM3.36688 4.62075C1.94927 5.12519 1.19988 6.51487 1.3565 7.87999L5.33043 7.42406C5.37097 7.77742 5.16497 8.22661 4.70786 8.38927L3.36688 4.62075ZM15.7702 146.192C16.0462 148.598 19.0912 149.462 20.5942 147.573L17.4637 145.083C18.1732 144.191 19.6132 144.596 19.7441 145.736L15.7702 146.192ZM0.590086 6.89308C0.141646 7.45689 -0.0644748 8.17601 0.0176914 8.89218L3.99162 8.43624C4.03056 8.7756 3.93285 9.11618 3.72062 9.38302L0.590086 6.89308ZM5.41415 8.27344C5.13809 5.86721 2.09309 5.00339 0.590086 6.89308L3.72062 9.38302C3.01107 10.2751 1.57107 9.86984 1.44022 8.72937L5.41415 8.27344ZM17.1927 146.029C17.1538 145.69 17.2515 145.349 17.4637 145.083L20.5942 147.573C21.0427 147.009 21.2488 146.29 21.1666 145.573L17.1927 146.029ZM38.9484 130.171C39.387 132.501 42.3586 133.231 43.8307 131.38L40.7001 128.89C41.3564 128.065 42.683 128.388 42.8793 129.431L38.9484 130.171ZM20.7425 28.2981C20.2429 28.9262 20.0408 29.7407 20.1894 30.5299L24.1203 29.7898C24.1868 30.143 24.0963 30.5073 23.873 30.7881L20.7425 28.2981ZM25.6248 29.5073C25.1862 27.1776 22.2145 26.4474 20.7425 28.2981L23.873 30.7881C23.2167 31.6132 21.8901 31.2898 21.6938 30.2474L25.6248 29.5073ZM40.4528 129.888C40.3863 129.535 40.4768 129.171 40.7001 128.89L43.8307 131.38C44.3302 130.752 44.5323 129.937 44.3838 129.148L40.4528 129.888ZM17.3043 145.286C15.9632 146.972 16.8595 149.509 19.0082 149.932L19.7807 146.007C20.6077 146.17 20.9381 147.143 20.4349 147.776L17.3043 145.286ZM20.1507 144.247C19.0826 144.032 17.9836 144.432 17.3043 145.286L20.4349 147.776C20.1785 148.098 19.7633 148.249 19.3616 148.168L20.1507 144.247ZM210.702 109.145C210.942 108.995 211.137 108.813 211.292 108.618L208.161 106.128C208.269 105.993 208.41 105.86 208.585 105.751L210.702 109.145ZM40.6014 129.037C39.2182 130.776 40.2429 133.306 42.3681 133.681L43.0643 129.742C43.8613 129.883 44.2761 130.843 43.7319 131.527L40.6014 129.037ZM43.3853 127.991C42.3498 127.804 41.2728 128.193 40.6014 129.037L43.7319 131.527C43.4705 131.855 43.0625 131.997 42.6756 131.928L43.3853 127.991ZM187.97 4.28761C188.222 3.97004 188.626 3.81699 189.022 3.88318L188.362 7.82836C189.396 8.00134 190.445 7.60132 191.1 6.77753L187.97 4.28761ZM188.67 6.08813C187.811 5.94902 187.448 4.94389 187.97 4.28761L191.1 6.77753C192.462 5.06589 191.5 2.49457 189.31 2.13962L188.67 6.08813ZM22.6615 26.3564C22.2722 26.5265 21.958 26.7828 21.7208 27.081L24.8514 29.571C24.7101 29.7486 24.5111 29.9133 24.2631 30.0217L22.6615 26.3564ZM3.03279 5.86911C3.75447 5.61555 4.45538 5.97007 4.77641 6.46331C5.08084 6.93103 5.11943 7.62169 4.69944 8.14973L1.56891 5.65979C0.81537 6.6072 0.881829 7.81236 1.42397 8.64531C1.98272 9.50377 3.1312 10.0742 4.35873 9.64296L3.03279 5.86911ZM209.433 -10.4447C209.696 -10.7756 210.132 -10.9213 210.543 -10.8131L209.524 -6.94516C210.649 -6.64856 211.84 -7.04573 212.563 -7.95478L209.433 -10.4447ZM210.012 -8.73005C209.234 -8.93164 208.963 -9.85451 209.433 -10.4447L212.563 -7.95478C213.865 -9.59083 213.088 -12.0655 211.015 -12.6023L210.012 -8.73005ZM2.68901 4.85501C2.22379 5.02209 1.84666 5.31059 1.56891 5.65979L4.69944 8.14973C4.54471 8.34427 4.32012 8.51936 4.04101 8.6196L2.68901 4.85501ZM191.25 5.9013C191.322 6.25656 191.233 6.62509 191.007 6.90831L187.877 4.41838C187.368 5.05837 187.167 5.89052 187.329 6.69243L191.25 5.9013ZM209.163 104.872C209.81 104.059 211.117 104.369 211.324 105.394L207.403 106.185C207.87 108.499 210.828 109.206 212.294 107.362L209.163 104.872ZM208.921 105.879C208.849 105.524 208.938 105.156 209.163 104.872L212.294 107.362C212.803 106.722 213.003 105.89 212.842 105.088L208.921 105.879ZM214.121 -8.9412C213.749 -11.3049 210.746 -12.0906 209.26 -10.2231L212.391 -7.73311C211.713 -6.88059 210.34 -7.23695 210.169 -8.32003L214.121 -8.9412ZM42.3376 129.613C42.6967 129.677 42.9897 129.955 43.0611 130.334L39.1301 131.075C39.3697 132.347 40.3761 133.325 41.631 133.55L42.3376 129.613ZM207.575 107.069C207.512 106.757 207.636 106.331 208.016 106.099L210.104 109.511C211.264 108.8 211.739 107.486 211.496 106.277L207.575 107.069ZM188.14 7.79091C187.765 7.72857 187.473 7.44082 187.4 7.07722L191.321 6.28609C191.068 5.03222 190.068 4.0562 188.795 3.84493L188.14 7.79091ZM22.0864 27.6436C20.6999 28.2423 20.0425 29.688 20.2981 31.0456L24.229 30.3055C24.2955 30.6586 24.1192 31.1228 23.672 31.3159L22.0864 27.6436ZM19.1328 145.877C19.5238 145.955 19.8123 146.277 19.8565 146.662L15.8825 147.117C16.0349 148.446 17.0243 149.535 18.3481 149.8L19.1328 145.877ZM228.639 118.729C228.585 118.385 228.763 117.934 229.202 117.745L230.78 121.421C232.139 120.837 232.799 119.44 232.59 118.108L228.639 118.729ZM192.767 5.59589C192.3 3.28163 189.343 2.57506 187.877 4.41838L191.007 6.90831C190.36 7.72196 189.053 7.41218 188.846 6.38702L192.767 5.59589ZM210.309 108.565C209.47 109.063 208.583 108.691 208.175 108.196C207.779 107.715 207.594 106.841 208.161 106.128L211.292 108.618C212.095 107.608 211.855 106.373 211.264 105.654C210.66 104.92 209.436 104.433 208.269 105.125L210.309 108.565ZM209.431 -6.97036C209.075 -7.0639 208.818 -7.35881 208.763 -7.70571L212.715 -8.32688C212.525 -9.532 211.645 -10.5242 210.448 -10.8389L209.431 -6.97036ZM212.649 -8.71035C212.703 -8.36261 212.61 -8.00816 212.391 -7.73311L209.26 -10.2231C208.782 -9.62207 208.578 -8.84814 208.697 -8.08918L212.649 -8.71035ZM23.0408 27.2339C23.7943 26.9137 24.5476 27.2638 24.8994 27.7589C25.2374 28.2345 25.3166 28.9861 24.8514 29.571L21.7208 27.081C20.9486 28.0519 21.0692 29.2743 21.6388 30.0759C22.2223 30.897 23.3976 31.4284 24.6052 30.9153L23.0408 27.2339ZM2.09975 6.20359C0.68214 6.70803 -0.0672498 8.09772 0.0893697 9.46283L4.0633 9.0069C4.10384 9.36026 3.89785 9.80945 3.44074 9.97211L2.09975 6.20359ZM89.3659 40.2998C88.9852 37.7671 89.1527 33.6572 90.9207 29.7967C92.6518 26.0167 95.9339 22.42 101.968 20.7119L100.879 16.8631C93.6275 18.9157 89.4634 23.3723 87.2839 28.1311C85.1414 32.8094 84.9338 37.7241 85.4103 40.8943L89.3659 40.2998ZM101.968 20.7119C110.17 18.3901 118.455 17.1881 125.154 18.5191C128.472 19.1783 131.339 20.4464 133.631 22.4529C135.914 24.4508 137.732 27.2731 138.821 31.2203L142.677 30.157C141.406 25.5471 139.205 22.0156 136.266 19.4431C133.337 16.8792 129.782 15.3603 125.934 14.5958C118.302 13.0796 109.283 14.4841 100.879 16.8631L101.968 20.7119ZM73.3231 44.7888C73.5126 46.9578 73.8736 50.2811 74.3435 53.2114C74.5776 54.6711 74.8459 56.0785 75.1444 57.2111C75.2929 57.7744 75.4611 58.3173 75.6549 58.7837C75.8163 59.1722 76.1106 59.8053 76.6405 60.262L79.2517 57.2318C79.4799 57.4284 79.4773 57.5585 79.3488 57.2491C79.2526 57.0176 79.1378 56.6678 79.0123 56.1916C78.7629 55.2452 78.519 53.9865 78.2931 52.5779C77.8429 49.7714 77.4921 46.5488 77.3079 44.4405L73.3231 44.7888ZM76.6405 60.262C77.3736 60.8937 78.4809 61.3185 79.5259 61.5809C80.6468 61.8625 81.9898 62.03 83.3877 61.9728C86.1489 61.8597 89.5014 60.8289 91.4235 57.5829L87.9817 55.5449C87.0119 57.1825 85.2408 57.8935 83.224 57.9761C82.2329 58.0167 81.2732 57.8956 80.5002 57.7014C80.1152 57.6047 79.7997 57.4957 79.5656 57.3936C79.3118 57.2829 79.2308 57.2138 79.2517 57.2318L76.6405 60.262ZM91.6659 56.9452C92.575 52.2649 91.6172 45.9324 91.0595 43.4017L87.1532 44.2625C87.6831 46.6668 88.4864 52.3361 87.7393 56.1825L91.6659 56.9452ZM90.994 43.1713C90.6698 42.2449 90.0274 40.8792 89.0895 39.7534C88.2066 38.6935 86.5985 37.3242 84.4235 37.728L85.1538 41.6608C85.1692 41.6579 85.2148 41.6441 85.3519 41.7176C85.5162 41.8056 85.7469 41.9902 86.0161 42.3135C86.563 42.97 87.0018 43.8733 87.2187 44.4929L90.994 43.1713ZM84.4235 37.728C83.8185 37.8404 83.0147 37.9126 81.8482 38.0641C80.7719 38.2039 79.5033 38.401 78.3049 38.7509C77.1342 39.0928 75.8273 39.6365 74.8315 40.595C73.7446 41.6414 73.1425 43.0786 73.3265 44.8243L77.3044 44.405C77.2535 43.9223 77.3813 43.6927 77.6056 43.4768C77.9211 43.1731 78.5067 42.8591 79.4262 42.5906C80.3181 42.3301 81.3375 42.1641 82.3634 42.0308C83.2991 41.9093 84.4117 41.7986 85.1538 41.6608L84.4235 37.728ZM143.578 31.267C144.159 30.8977 145.226 30.3621 146.394 30.0488C147.602 29.7247 148.602 29.7217 149.274 30.0117L150.858 26.3388C148.979 25.5284 146.927 25.7641 145.357 26.1855C143.746 26.6177 142.308 27.3343 141.432 27.8915L143.578 31.267ZM149.274 30.0117C150.476 30.5303 151.097 31.1061 151.588 32.1829C152.164 33.4485 152.565 35.4261 152.96 38.8664L156.934 38.4103C156.543 35.0001 156.098 32.4339 155.228 30.5245C154.272 28.4262 152.845 27.1958 150.858 26.3388L149.274 30.0117ZM152.96 38.8664C153.372 42.4561 153.684 44.7432 153.509 46.2933C153.43 47.0046 153.266 47.296 153.16 47.4216C153.08 47.5174 152.882 47.7012 152.257 47.8173L152.987 51.75C154.252 51.5151 155.388 50.9866 156.221 49.9972C157.028 49.0377 157.357 47.8711 157.484 46.7401C157.724 44.6057 157.308 41.6712 156.934 38.4103L152.96 38.8664ZM152.257 47.8173C150.403 48.1615 148.818 48.2753 147.552 47.8365C146.466 47.4598 145.306 46.5635 144.532 44.0547L140.709 45.2336C141.785 48.7219 143.735 50.7464 146.242 51.6157C148.569 52.4228 151.06 52.1078 152.987 51.75L152.257 47.8173ZM144.532 44.0547C143.633 41.1418 142.919 37.8785 142.767 35.2483C142.691 33.9227 142.767 32.8849 142.958 32.1727C143.052 31.8252 143.157 31.618 143.235 31.5057C143.272 31.4526 143.299 31.4258 143.313 31.4142C143.325 31.4035 143.331 31.4007 143.334 31.3993L141.676 27.7591C140.171 28.4446 139.442 29.849 139.096 31.1326C138.746 32.4331 138.686 33.9536 138.774 35.4779C138.951 38.5473 139.758 42.1493 140.709 45.2336L144.532 44.0547ZM153.59 46.1151C154.155 49.6899 154.975 52.9061 155.574 55.3611C155.878 56.6096 156.116 57.6218 156.253 58.4208C156.407 59.3118 156.369 59.6046 156.373 59.5888L160.254 60.5601C160.477 59.666 160.344 58.6049 160.195 57.7416C160.031 56.7864 159.76 55.6441 159.46 54.4135C158.849 51.91 158.075 48.8686 157.541 45.4905L153.59 46.1151ZM156.373 59.5888C156.446 59.2982 156.613 59.2872 156.354 59.4424C156.113 59.5868 155.705 59.7475 155.13 59.8886C153.991 60.1681 152.622 60.2701 151.718 60.2701V64.2701C152.83 64.2701 154.539 64.1524 156.084 63.7733C156.85 63.5851 157.686 63.3066 158.408 62.8746C159.112 62.4535 159.961 61.7289 160.254 60.5601L156.373 59.5888Z" fill="#7831B2"/>
</svg>
