<svg width="117" height="68" viewBox="0 0 117 68" fill="none" xmlns="http://www.w3.org/2000/svg">
<path d="M4.93465 33.8776C4.52676 34.0337 4.21612 34.0371 4.00271 33.8877C3.80146 33.7193 3.70088 33.4876 3.70098 33.1926C3.69415 32.8663 3.77581 32.5696 3.94598 32.3024C4.13176 32.0317 4.55617 31.7655 5.2192 31.5037C6.19292 31.091 7.2109 30.693 8.27312 30.3098C9.35096 29.9232 10.4123 29.573 11.4571 29.2592C12.5141 28.9264 13.5112 28.656 14.4485 28.4481C14.8702 28.3545 15.2225 28.3911 15.5053 28.5578C15.8003 28.7054 15.9434 28.944 15.9346 29.2738C15.9432 29.5341 15.8772 29.7536 15.7365 29.9323C15.5924 30.0954 15.3425 30.2246 14.9867 30.3199C13.7284 30.6319 12.6176 30.9439 11.6543 31.2559C10.7067 31.5645 9.84664 31.8619 9.07427 32.1479C8.3019 32.434 7.57985 32.7253 6.90814 33.0219C6.24857 33.2993 5.59074 33.5846 4.93465 33.8776ZM9.94692 38.0757C9.697 38.1311 9.47575 38.0573 9.28319 37.8542C9.10624 37.6476 8.99271 37.2467 8.94258 36.6514C8.85614 35.6708 8.80875 34.6816 8.80041 33.6837C8.80423 32.6668 8.82105 31.6715 8.85089 30.6979C8.87726 29.7087 8.90013 28.7777 8.91952 27.9047C8.95453 27.0283 8.96347 26.2561 8.94634 25.5879C8.9152 25.2998 8.96301 25.0352 9.08978 24.794C9.22871 24.5337 9.43875 24.3724 9.71991 24.31C10.0792 24.2303 10.3855 24.3181 10.6387 24.5733C10.9042 24.8094 11.0403 25.2381 11.047 25.8594C11.0658 26.6091 11.0664 27.4612 11.0487 28.4157C11.0467 29.3667 11.0264 30.3464 10.9879 31.3546C10.9615 32.3438 10.9343 33.2922 10.9062 34.1999C10.8937 35.104 10.8943 35.8824 10.908 36.5349C10.9183 37.0243 10.8192 37.3905 10.6109 37.6333C10.4025 37.8762 10.1812 38.0237 9.94692 38.0757ZM22.8819 36.6317C22.1478 36.7946 21.5898 36.7544 21.2081 36.5114C20.8455 36.2804 20.6608 35.8543 20.6541 35.233C20.6455 34.9727 20.6907 34.7332 20.7897 34.5146C20.8887 34.296 21.0276 34.1094 21.2064 33.955C22.833 32.4961 24.1975 31.1854 25.2999 30.0231C26.3988 28.8451 27.2773 27.7815 27.9354 26.8325C28.59 25.8678 29.0597 24.9933 29.3446 24.209C29.626 23.409 29.7599 22.6828 29.7462 22.0302C29.7344 21.1643 29.4968 20.5368 29.0336 20.1479C28.5669 19.7434 27.8571 19.6468 26.9043 19.8582C26.1077 20.035 25.4177 20.2864 24.8345 20.6125C24.2669 20.9351 23.7687 21.275 23.34 21.6324C22.9268 21.9863 22.577 22.2933 22.2906 22.5535C22.0041 22.8138 21.7594 22.9664 21.5563 23.0115C21.2595 23.0773 21.0122 23.0338 20.8145 22.881C20.6288 22.7092 20.53 22.4853 20.5179 22.2093C20.5232 22.0115 20.5632 21.8223 20.6379 21.6419C20.7126 21.4614 20.8636 21.2558 21.091 21.0251C21.8531 20.2496 22.7272 19.5722 23.7131 18.9929C24.7112 18.3945 25.7335 17.9792 26.7801 17.747C27.9828 17.4802 28.9451 17.4961 29.667 17.7949C30.4009 18.0745 30.937 18.5702 31.2752 19.2818C31.629 19.99 31.8144 20.8257 31.8314 21.7889C31.8468 22.523 31.7242 23.3368 31.4636 24.2305C31.2186 25.1207 30.7635 26.0985 30.0985 27.1638C29.4335 28.2291 28.4994 29.4115 27.2963 30.711C26.1053 31.9913 24.5846 33.4104 22.7341 34.9682L22.297 34.3277C22.5243 34.392 22.7508 34.4155 22.9764 34.3982C23.2176 34.3774 23.4632 34.3393 23.7131 34.2839C24.2911 34.1557 24.9619 33.9659 25.7256 33.7145C26.4892 33.4631 27.3232 33.1961 28.2275 32.9136C29.1474 32.6275 30.1071 32.3736 31.1068 32.1518C31.8722 31.982 32.3859 32.0073 32.6479 32.2278C32.922 32.4292 33.0608 32.6853 33.0641 32.9959C33.0762 33.2718 32.9824 33.5139 32.7827 33.7221C32.5952 33.9112 32.2828 34.0543 31.8455 34.1513C30.6739 34.4112 29.6482 34.6634 28.7683 34.9078C27.8883 35.1522 27.1038 35.3836 26.4148 35.602C25.7257 35.8204 25.0974 36.0172 24.5299 36.1923C23.9623 36.3674 23.413 36.5138 22.8819 36.6317ZM49.8381 36.5757C48.8852 36.7871 48.06 36.8718 47.3624 36.8299C46.6682 36.8037 46.1381 36.6673 45.772 36.4207C45.4059 36.1741 45.222 35.8626 45.2204 35.486C45.2118 35.2257 45.2683 35.0001 45.3899 34.8092C45.5305 34.6305 45.7492 34.5082 46.046 34.4424C46.2334 34.4008 46.4139 34.4017 46.5874 34.4452C46.761 34.4886 46.9597 34.5347 47.1835 34.5833C47.4108 34.6476 47.7128 34.679 48.0894 34.6774C48.4816 34.6723 48.9823 34.6022 49.5915 34.467C50.3413 34.3007 50.9297 33.998 51.3567 33.5591C51.7838 33.1202 52.0799 32.571 52.245 31.9116C52.4257 31.2487 52.5075 30.5095 52.4904 29.6938C52.4837 29.22 52.4474 28.761 52.3816 28.3167C52.3314 27.8689 52.2743 27.3899 52.2102 26.8797C52.1462 26.3694 52.0805 25.7776 52.013 25.1043C51.9421 24.4153 51.892 23.5987 51.8629 22.6546L52.74 23.173C52.4792 24.3616 52.1752 25.3551 51.8278 26.1533C51.477 26.9358 51.1089 27.5665 50.7234 28.0454C50.3345 28.5086 49.9448 28.8573 49.5543 29.0915C49.1759 29.3065 48.8227 29.4505 48.4946 29.5232C47.1357 29.8247 46.0659 29.4721 45.2853 28.4653C44.5012 27.4428 44.0819 25.6265 44.0272 23.0164C43.9981 21.9248 44.0261 21.0909 44.1114 20.5148C44.2122 19.9352 44.359 19.5257 44.5517 19.2862C44.7444 19.0468 44.9657 18.8994 45.2157 18.8439C45.45 18.7919 45.6513 18.8128 45.8196 18.9066C45.9844 18.9848 46.0963 19.1566 46.1552 19.4222C46.2298 19.6842 46.2548 20.0556 46.2303 20.5363C46.1987 21.5759 46.208 22.5408 46.258 23.4311C46.3045 24.3057 46.4067 25.0616 46.5644 25.6985C46.7221 26.3355 46.9345 26.8128 47.2017 27.1305C47.4654 27.4325 47.8081 27.5368 48.2298 27.4432C48.8859 27.2977 49.4518 26.8197 49.9276 26.0094C50.3999 25.1835 50.7812 24.132 51.0714 22.8548C51.3738 21.5585 51.5904 20.1338 51.7211 18.5806C51.7646 18.1121 51.8411 17.7919 51.9505 17.6201C52.0564 17.4327 52.2578 17.3061 52.5545 17.2403C52.7732 17.1918 52.9841 17.2187 53.1871 17.3212C53.4057 17.4202 53.5705 17.6458 53.6815 17.9982C53.8046 18.3314 53.8382 18.8156 53.7825 19.4508C53.7249 20.2994 53.703 21.05 53.7166 21.7025C53.7459 22.3516 53.8012 22.9703 53.8826 23.5586C53.9605 24.1313 54.0497 24.7179 54.1501 25.3184C54.2627 25.8999 54.358 26.5507 54.4358 27.2709C54.5102 27.9755 54.562 28.7999 54.5912 29.744C54.6203 30.8356 54.5176 31.7762 54.283 32.5657C54.052 33.3709 53.7255 34.0415 53.3036 34.5776C52.8817 35.1137 52.3696 35.5387 51.7673 35.8526C51.184 36.1787 50.541 36.4197 49.8381 36.5757ZM63.4135 27.2703C62.6637 27.4367 61.9852 27.4807 61.3778 27.4024C60.7704 27.3241 60.2819 27.1539 59.9124 26.8917C59.5428 26.6295 59.3494 26.3119 59.3322 25.9387C59.3375 25.7409 59.387 25.5578 59.4808 25.3895C59.5745 25.2212 59.723 25.1145 59.926 25.0695C60.0822 25.0348 60.2315 25.0427 60.3738 25.0931C60.516 25.1434 60.6852 25.2042 60.8813 25.2755C61.0774 25.3467 61.3498 25.3928 61.6987 25.4137C62.044 25.419 62.4978 25.3593 63.0602 25.2345C63.9349 25.0405 64.6457 24.6615 65.1926 24.0977C65.7516 23.5148 66.0087 22.6792 65.9639 21.5911C65.9573 20.8223 65.8178 20.1567 65.5455 19.5943C65.2854 19.0129 64.9272 18.5433 64.4709 18.1856C64.0111 17.8124 63.4741 17.571 62.8598 17.4614C62.2455 17.3519 61.579 17.3768 60.8605 17.5362C60.5012 17.6159 60.1428 17.7364 59.7853 17.8977C59.4277 18.059 59.1084 18.1708 58.8272 18.2332C58.6554 18.2713 58.4905 18.2669 58.3326 18.22C58.1712 18.1575 58.0498 18.0533 57.9683 17.9075C57.8867 17.7617 57.8443 17.6072 57.8409 17.4441C57.841 17.0016 58.0511 16.619 58.4712 16.2963C58.9035 15.9546 59.6116 15.6745 60.5957 15.4562C61.6422 15.224 62.6115 15.1975 63.5035 15.3765C64.411 15.5521 65.2031 15.909 65.8798 16.4472C66.553 16.9698 67.0838 17.6633 67.4722 18.5277C67.8728 19.373 68.0851 20.3666 68.109 21.5085C68.1278 22.2582 68.02 22.9541 67.7855 23.5962C67.5666 24.2347 67.2505 24.8047 66.8373 25.3061C66.4207 25.7919 65.9225 26.2056 65.3427 26.5473C64.7595 26.8734 64.1164 27.1144 63.4135 27.2703ZM59.2382 34.4901C59.0507 34.5317 58.8763 34.5212 58.715 34.4587C58.5727 34.4083 58.459 34.3024 58.3741 34.141C58.2891 33.9796 58.244 33.7765 58.2389 33.5318C58.2338 33.2871 58.2712 33.0494 58.3511 32.8186C58.4188 32.6069 58.4918 32.3448 58.57 32.0325C58.6517 31.7358 58.7238 31.3592 58.7865 30.9028C58.8491 30.4464 58.8744 29.8589 58.8625 29.1405C58.8438 28.2432 58.7564 27.3694 58.6005 26.519C58.4568 25.6495 58.2896 24.7852 58.099 23.9261C57.9205 23.0479 57.7499 22.1679 57.5871 21.2863C57.4208 20.389 57.323 19.4683 57.2938 18.5242C57.2974 18.2448 57.327 18.0088 57.3826 17.8162C57.4382 17.6236 57.5276 17.4726 57.6509 17.3633C57.7863 17.235 57.9555 17.1482 58.1586 17.1032C58.4085 17.0477 58.6306 17.0886 58.8249 17.2258C59.0314 17.3438 59.1971 17.5365 59.3219 17.8038C59.4433 18.0555 59.5014 18.354 59.4961 18.6994C59.5165 19.6782 59.5969 20.5945 59.7372 21.4484C59.8897 22.2832 60.0542 23.0989 60.231 23.8956C60.4234 24.6887 60.5923 25.4871 60.7378 26.2906C60.8833 27.0942 60.9637 27.9368 60.979 28.8184C61.0083 29.615 60.9907 30.3482 60.9262 31.0181C60.8618 31.6879 60.7531 32.2693 60.6002 32.7621C60.463 33.2514 60.2797 33.6444 60.0506 33.9411C59.837 34.2343 59.5662 34.4173 59.2382 34.4901ZM76.958 24.4374C75.6771 24.7215 74.5604 24.6743 73.6078 24.2957C72.6708 23.9135 71.9403 23.2807 71.4165 22.3972C70.9049 21.4946 70.6293 20.4003 70.5899 19.1143C70.5676 18.2015 70.6946 17.3702 70.9708 16.6206C71.2591 15.8519 71.6186 15.1822 72.0492 14.6114C72.4954 14.0371 72.9676 13.5799 73.4657 13.24C73.9605 12.8844 74.4031 12.6632 74.7936 12.5766C74.9654 12.5385 75.1112 12.5307 75.2309 12.5533C75.3663 12.5725 75.4773 12.6298 75.5641 12.7253C75.663 12.8016 75.7159 12.9292 75.7227 13.108C75.7139 13.4377 75.6531 13.7544 75.5402 14.0581C75.4238 14.3461 75.1539 14.6436 74.7303 14.9507C74.2269 15.341 73.8163 15.7435 73.4986 16.1581C73.193 16.5537 72.9699 16.9884 72.8291 17.4621C72.6849 17.9202 72.6301 18.4486 72.6646 19.0474C72.6954 20.368 73.069 21.3504 73.7856 21.9945C74.4986 22.623 75.4175 22.8125 76.5421 22.5629C77.6355 22.3204 78.5017 21.7185 79.1407 20.7572C79.7918 19.7769 80.0968 18.603 80.0556 17.2355C80.0387 15.9773 79.7526 15.0574 79.1975 14.4758C78.6389 13.8786 77.891 13.684 76.9538 13.8919C76.4695 13.9994 76.0764 14.1849 75.7743 14.4486C75.4879 14.7088 75.1841 15.0385 74.8629 15.4375C74.6337 15.7342 74.454 15.9953 74.3238 16.2209C74.1935 16.4464 74.0703 16.6295 73.9539 16.77C73.8498 16.8915 73.6962 16.9747 73.4931 17.0198C73.2744 17.0683 73.087 17.0361 72.9308 16.9233C72.7868 16.7913 72.7097 16.5544 72.6994 16.2125C72.6822 15.8394 72.7804 15.4325 72.994 14.9917C73.2232 14.5475 73.5218 14.1207 73.8899 13.7113C74.2701 13.2828 74.6972 12.9176 75.171 12.6158C75.6414 12.2984 76.1266 12.0842 76.6264 11.9733C77.7511 11.7238 78.7238 11.7866 79.5445 12.1617C80.3618 12.5212 80.9976 13.1341 81.452 14.0002C81.9029 14.8507 82.1351 15.8973 82.1486 17.1399C82.1898 18.3599 81.9968 19.4844 81.5695 20.5134C81.1388 21.5267 80.5242 22.376 79.7256 23.0612C78.9427 23.743 78.0202 24.2017 76.958 24.4374ZM94.6062 20.4972C94.1376 20.6012 93.591 20.575 92.9662 20.4186C92.3381 20.2466 91.6969 19.9791 91.0428 19.6162C90.4043 19.2498 89.7979 18.8435 89.2236 18.3973C88.6649 17.9476 88.2052 17.5006 87.8444 17.0562C87.6327 16.8409 87.4809 16.6369 87.389 16.4443C87.3093 16.2325 87.2547 16.0234 87.2252 15.8169C87.2444 15.6815 87.2756 15.527 87.3191 15.3535C87.3625 15.18 87.4329 15.0169 87.5301 14.8642C87.6621 14.5727 87.9078 14.1658 88.2672 13.6436C88.6266 13.1213 89.0494 12.5522 89.5355 11.9363C90.0338 11.3013 90.5564 10.7019 91.1033 10.1381C91.6623 9.55514 92.1996 9.05899 92.7151 8.6496C93.2463 8.23674 93.7228 7.98353 94.1445 7.88996C94.3163 7.85184 94.4578 7.86143 94.5688 7.91874C94.6955 7.97258 94.7961 8.05678 94.8707 8.17135C94.9453 8.28591 94.9886 8.40741 95.0008 8.53583C95.0614 8.88294 94.9077 9.26122 94.5396 9.67066C94.1716 10.0801 93.7671 10.473 93.3261 10.8495C92.5467 11.5469 91.867 12.2139 91.2872 12.8506C90.7073 13.4873 90.2481 14.0399 89.9095 14.5084C89.5866 14.9734 89.4346 15.2857 89.4537 15.4454C89.4571 15.6085 89.6193 15.8593 89.9402 16.1978C90.2577 16.5207 90.7122 16.8706 91.3039 17.2474C91.8921 17.6085 92.5593 17.9194 93.3054 18.18C93.6438 18.3016 93.9726 18.4171 94.2919 18.5265C94.6233 18.6169 94.894 18.7289 95.104 18.8626C95.3261 18.9772 95.4518 19.1378 95.4813 19.3443C95.5038 19.5196 95.4838 19.688 95.4212 19.8493C95.3587 20.0107 95.2502 20.1495 95.0957 20.2657C94.9568 20.3785 94.7937 20.4557 94.6062 20.4972ZM86.7987 22.2049C86.3926 22.295 86.0742 22.1526 85.8435 21.7776C85.6094 21.3871 85.4369 20.7944 85.3261 19.9995C85.2275 19.1855 85.1627 18.192 85.1319 17.0188C85.1216 16.5294 85.1218 16.0131 85.1324 15.4699C85.1586 14.9233 85.1848 14.3766 85.211 13.83C85.2338 13.2677 85.2366 12.7262 85.2194 12.2056C85.2229 12.0737 85.2186 11.9435 85.2065 11.8151C85.2066 11.6676 85.1988 11.5218 85.1832 11.3778C85.1764 11.0515 85.2051 10.7747 85.2694 10.5474C85.3337 10.3201 85.424 10.1361 85.5403 9.9956C85.6688 9.83598 85.8112 9.73885 85.9674 9.70419C86.3266 9.62448 86.6442 9.72611 86.92 10.0091C87.208 10.273 87.3536 10.7077 87.3569 11.3134C87.3654 11.7213 87.3479 12.2332 87.3043 12.8493C87.2729 13.4463 87.2371 14.0606 87.197 14.6923C87.1568 15.324 87.1402 15.8767 87.1469 16.3505C87.1866 17.1939 87.2384 17.9445 87.3024 18.6023C87.382 19.2566 87.4608 19.7963 87.5387 20.2215C87.6132 20.6311 87.6443 20.9192 87.6321 21.0858C87.6425 21.2802 87.6086 21.4598 87.5304 21.6246C87.4644 21.7704 87.3681 21.8901 87.2414 21.9838C87.1337 22.0896 86.9862 22.1633 86.7987 22.2049ZM100.724 19.1154C100.005 19.2748 99.3814 19.2329 98.8522 18.9898C98.3386 18.7432 97.9283 18.3343 97.6213 17.7633C97.3299 17.1887 97.174 16.4858 97.1534 15.6546C97.1277 14.8736 97.2191 14.0666 97.4276 13.2337C97.6483 12.3817 97.9653 11.5574 98.3786 10.761C98.7884 9.94897 99.272 9.21071 99.8293 8.54622C100.399 7.86265 101.025 7.2893 101.709 6.82617C102.409 6.35957 103.141 6.04136 103.907 5.87155C104.266 5.79184 104.568 5.82318 104.813 5.96557C105.057 6.10796 105.182 6.37526 105.187 6.76747C105.198 6.96185 105.148 7.14492 105.039 7.31669C104.926 7.47284 104.74 7.596 104.481 7.68615C103.423 8.08494 102.494 8.70071 101.695 9.53345C100.912 10.3627 100.307 11.2919 99.8801 12.3208C99.465 13.3307 99.2633 14.3424 99.2751 15.3559C99.2819 15.8297 99.3269 16.254 99.4101 16.6289C99.4898 16.9882 99.6718 17.4394 99.9563 17.9827L98.7072 16.5636C99.0681 16.8605 99.37 17.0393 99.6129 17.1001C99.8715 17.1575 100.212 17.1394 100.633 17.0458C101.633 16.824 102.506 15.9583 103.253 14.4488C104 12.9392 104.539 10.8612 104.869 8.21473C104.913 7.89368 105.011 7.63427 105.164 7.43648C105.329 7.21961 105.544 7.08171 105.809 7.0228C106.169 6.94309 106.477 7.03864 106.733 7.30946C107.002 7.56119 107.173 7.92482 107.246 8.40036C107.402 9.39829 107.568 10.2956 107.745 11.0922C107.934 11.8697 108.182 12.5848 108.491 13.2375C108.815 13.8866 109.27 14.5315 109.854 15.1721C109.983 15.3075 110.062 15.4785 110.091 15.685C110.136 15.888 110.125 16.0954 110.057 16.3071C110.005 16.5154 109.907 16.701 109.763 16.8641C109.631 17.0081 109.456 17.1044 109.237 17.1529C109.003 17.2049 108.805 17.1996 108.643 17.1371C108.498 17.0711 108.359 16.9625 108.227 16.8115C107.918 16.4539 107.628 16.0677 107.355 15.6528C107.083 15.238 106.828 14.7537 106.59 14.2C106.365 13.6272 106.172 12.9408 106.011 12.1407C105.849 11.3406 105.718 10.3782 105.616 9.25364L106.454 9.04307C106.285 10.7195 106.008 12.1659 105.622 13.3823C105.233 14.5831 104.768 15.5877 104.226 16.3963C103.696 17.1857 103.129 17.8033 102.523 18.2491C101.917 18.6949 101.317 18.9837 100.724 19.1154ZM17.7316 60.0881C17.263 60.192 16.7163 60.1658 16.0916 60.0094C15.4634 59.8374 14.8223 59.5699 14.1681 59.207C13.5296 58.8406 12.9232 58.4343 12.349 57.9881C11.7903 57.5384 11.3305 57.0914 10.9697 56.647C10.7581 56.4317 10.6063 56.2278 10.5144 56.0351C10.4346 55.8233 10.38 55.6142 10.3506 55.4077C10.3697 55.2723 10.401 55.1179 10.4445 54.9443C10.4879 54.7708 10.5583 54.6077 10.6555 54.455C10.7875 54.1635 11.0332 53.7566 11.3926 53.2344C11.752 52.7121 12.1748 52.1431 12.6609 51.5271C13.1592 50.8921 13.6818 50.2927 14.2286 49.7289C14.7876 49.146 15.3249 48.6498 15.8405 48.2404C16.3717 47.8276 16.8482 47.5743 17.2699 47.4808C17.4417 47.4427 17.5832 47.4522 17.6942 47.5096C17.8209 47.5634 17.9215 47.6476 17.9961 47.7622C18.0707 47.8767 18.114 47.9982 18.1261 48.1267C18.1867 48.4738 18.033 48.852 17.665 49.2615C17.2969 49.6709 16.8924 50.0639 16.4515 50.4403C15.672 51.1377 14.9924 51.8047 14.4125 52.4414C13.8327 53.0782 13.3735 53.6307 13.0349 54.0992C12.712 54.5642 12.56 54.8765 12.579 55.0362C12.5824 55.1993 12.7446 55.4501 13.0656 55.7887C13.383 56.1116 13.8376 56.4614 14.4293 56.8382C15.0175 57.1994 15.6846 57.5102 16.4308 57.7708C16.7692 57.8924 17.098 58.0079 17.4173 58.1174C17.7487 58.2077 18.0194 58.3197 18.2293 58.4534C18.4514 58.5681 18.5772 58.7286 18.6066 58.9352C18.6291 59.1104 18.6091 59.2788 18.5466 59.4402C18.4841 59.6015 18.3756 59.7403 18.2211 59.8565C18.0822 59.9693 17.919 60.0465 17.7316 60.0881ZM9.92411 61.7957C9.51799 61.8858 9.19958 61.7434 8.96889 61.3684C8.73474 60.9779 8.56227 60.3852 8.45147 59.5903C8.35282 58.7764 8.28808 57.7828 8.25724 56.6096C8.247 56.1202 8.24717 55.6039 8.25777 55.0607C8.28399 54.5141 8.3102 53.9674 8.33642 53.4208C8.35917 52.8585 8.36196 52.317 8.34478 51.7964C8.3483 51.6645 8.344 51.5343 8.3319 51.4059C8.33195 51.2584 8.32419 51.1126 8.30862 50.9686C8.30179 50.6423 8.33052 50.3655 8.3948 50.1382C8.45909 49.9109 8.5494 49.7269 8.66572 49.5864C8.7942 49.4268 8.93654 49.3297 9.09274 49.295C9.452 49.2153 9.76956 49.3169 10.0454 49.5999C10.3334 49.8638 10.479 50.2986 10.4823 50.9042C10.4908 51.3121 10.4733 51.824 10.4297 52.4401C10.3983 53.0371 10.3625 53.6514 10.3223 54.2831C10.2822 54.9148 10.2655 55.4675 10.2723 55.9413C10.3119 56.7847 10.3638 57.5353 10.4277 58.1931C10.5074 58.8474 10.5861 59.3871 10.6641 59.8123C10.7386 60.2219 10.7697 60.51 10.7575 60.6766C10.7678 60.871 10.7339 61.0506 10.6558 61.2154C10.5898 61.3612 10.4934 61.4809 10.3667 61.5746C10.2591 61.6804 10.1116 61.7541 9.92411 61.7957ZM23.8492 58.7062C23.1307 58.8656 22.5068 58.8237 21.9776 58.5806C21.4639 58.334 21.0537 57.9252 20.7467 57.3541C20.4553 56.7796 20.2994 56.0767 20.2788 55.2454C20.2531 54.4644 20.3444 53.6575 20.553 52.8245C20.7737 51.9725 21.0907 51.1483 21.504 50.3518C21.9138 49.5398 22.3974 48.8015 22.9547 48.137C23.5241 47.4535 24.1508 46.8801 24.8348 46.417C25.5343 45.9504 26.2668 45.6322 27.0322 45.4624C27.3914 45.3827 27.6934 45.414 27.938 45.5564C28.1827 45.6988 28.3075 45.9661 28.3126 46.3583C28.323 46.5527 28.2734 46.7357 28.164 46.9075C28.0512 47.0637 27.8654 47.1868 27.6068 47.277C26.5481 47.6758 25.6194 48.2915 24.8208 49.1243C24.0379 49.9535 23.4327 50.8827 23.0055 51.9116C22.5904 52.9215 22.3887 53.9332 22.4005 54.9467C22.4073 55.4205 22.4523 55.8448 22.5354 56.2197C22.6151 56.579 22.7972 57.0303 23.0816 57.5736L21.8326 56.1544C22.1935 56.4513 22.4954 56.6301 22.7383 56.691C22.9969 56.7483 23.337 56.7302 23.7588 56.6366C24.7585 56.4148 25.6317 55.5492 26.3784 54.0396C27.1252 52.53 27.6639 50.452 27.9945 47.8055C28.038 47.4845 28.1362 47.2251 28.2889 47.0273C28.4539 46.8104 28.6691 46.6725 28.9347 46.6136C29.2939 46.5339 29.6019 46.6295 29.8587 46.9003C30.1276 47.152 30.2984 47.5156 30.3712 47.9912C30.527 48.9891 30.6933 49.8864 30.87 50.683C31.0589 51.4606 31.3077 52.1756 31.6164 52.8283C31.9407 53.4774 32.3952 54.1223 32.9798 54.7629C33.1082 54.8983 33.1871 55.0693 33.2165 55.2758C33.2616 55.4789 33.2502 55.6862 33.1825 55.8979C33.1304 56.1062 33.0322 56.2918 32.8881 56.4549C32.7562 56.5989 32.5809 56.6952 32.3622 56.7437C32.1279 56.7957 31.9301 56.7904 31.7687 56.7279C31.6229 56.6619 31.4841 56.5534 31.3523 56.4023C31.0435 56.0447 30.753 55.6585 30.4806 55.2436C30.2083 54.8288 29.9534 54.3445 29.7158 53.7908C29.4904 53.218 29.2971 52.5316 29.136 51.7315C28.9749 50.9314 28.8433 49.9691 28.7413 48.8445L29.5796 48.6339C29.4107 50.3103 29.1334 51.7567 28.7477 52.9731C28.3585 54.1739 27.8931 55.1785 27.3514 55.9871C26.8218 56.7765 26.2541 57.3941 25.6483 57.84C25.0424 58.2858 24.4428 58.5745 23.8492 58.7062ZM49.9371 52.8444C49.5154 52.938 48.9843 52.8346 48.3441 52.5341C47.7038 52.2337 46.9907 51.8265 46.2047 51.3125C45.3996 50.7864 44.7108 50.2673 44.1383 49.7551C43.5814 49.2395 43.1216 48.7925 42.7591 48.414C42.714 48.3585 42.6671 48.2951 42.6186 48.2239C42.5821 48.1337 42.5692 48.0382 42.5796 47.9376C42.5588 47.8438 42.571 47.751 42.6162 47.659C42.6735 47.548 42.7342 47.4526 42.7985 47.3728C43.255 46.9928 43.7428 46.5323 44.2619 45.991C44.7932 45.4306 45.2992 44.8676 45.7801 44.302C46.261 43.7364 46.6821 43.2333 47.0432 42.7926C47.4894 42.2183 47.8896 41.6952 48.2438 41.2233C48.598 40.7514 48.8922 40.4894 49.1265 40.4375C49.314 40.3959 49.4728 40.4098 49.6029 40.4793C49.7452 40.5297 49.8632 40.6182 49.9568 40.7449C50.047 40.856 50.0999 40.9836 50.1155 41.1276C50.1553 41.381 50.0572 41.7142 49.821 42.1272C49.6005 42.5366 49.2992 42.9886 48.9172 43.4831C48.5474 43.9585 48.1585 44.4217 47.7505 44.8728C47.4745 45.1799 47.169 45.5017 46.8339 45.8383C46.5145 46.1714 46.2072 46.4854 45.9121 46.7803C45.6326 47.0717 45.4008 47.3198 45.2168 47.5246C45.0293 47.7137 44.939 47.8238 44.9459 47.8551C44.9598 47.9175 45.0803 48.0547 45.3076 48.2665C45.5314 48.4627 45.8472 48.704 46.2549 48.9905C46.6748 49.2579 47.1468 49.5383 47.6708 49.8318C48.252 50.1617 48.7648 50.4413 49.2089 50.6705C49.6653 50.8807 50.0271 51.0708 50.2943 51.241C50.558 51.3955 50.7011 51.5605 50.7236 51.7357C50.76 51.9735 50.7131 52.2052 50.5828 52.4307C50.4491 52.6407 50.2339 52.7786 49.9371 52.8444ZM35.1344 56.1532C34.9782 56.1879 34.8428 56.1688 34.7283 56.0958C34.6016 56.042 34.4993 55.95 34.4212 55.8198C34.3275 55.6931 34.2729 55.5577 34.2574 55.4136C34.2071 55.1134 34.3487 54.6804 34.6821 54.1148C35.0155 53.5492 35.4669 52.9245 36.0364 52.241C36.618 51.5383 37.2517 50.8487 37.9374 50.1721C38.3679 49.7488 38.7264 49.407 39.0129 49.1468C39.3149 48.8831 39.5632 48.6724 39.7576 48.5145C39.952 48.3566 40.0987 48.2422 40.1976 48.171L40.7518 49.0068C40.6008 48.9912 40.2599 48.8947 39.7289 48.7175C39.1944 48.5247 38.5047 48.1861 37.6597 47.7016C37.2051 47.4255 36.7636 47.0974 36.335 46.7172C35.9065 46.337 35.5422 45.9507 35.2421 45.5584C34.9576 45.1626 34.792 44.8224 34.7452 44.5378C34.7262 44.3781 34.7341 44.2289 34.7688 44.09C34.8157 43.9321 34.893 43.8003 35.0006 43.6944C35.1239 43.5851 35.2714 43.5114 35.4432 43.4733C35.6932 43.4179 35.9734 43.536 36.284 43.8276C36.5945 44.1193 36.9632 44.4882 37.3899 44.9344C37.8167 45.3805 38.3294 45.8076 38.928 46.2156C39.5803 46.6445 40.1521 46.9684 40.6431 47.1872C41.1342 47.406 41.5454 47.5606 41.8769 47.651L41.8347 49.0124C41.3747 49.3767 40.9138 49.774 40.4521 50.2042C40.0024 50.6153 39.5354 51.0959 39.0511 51.6459C38.367 52.404 37.7715 53.118 37.2646 53.7877C36.7732 54.4539 36.347 55.0074 35.9858 55.4481C35.6369 55.8697 35.3531 56.1047 35.1344 56.1532ZM42.5175 54.6381C42.2519 54.697 42.0246 54.6327 41.8355 54.4452C41.6586 54.2386 41.5198 53.9826 41.4193 53.6772C41.3309 53.3526 41.2815 53.0194 41.2712 52.6775C41.2489 52.0597 41.2552 51.3863 41.2901 50.6574C41.3372 49.9095 41.3471 49.0305 41.3197 48.0204C41.306 47.3679 41.3132 46.6616 41.3412 45.9015C41.3848 45.1379 41.4537 44.3769 41.5476 43.6186C41.5755 43.301 41.678 42.9505 41.8552 42.567C42.0288 42.1679 42.2875 41.9302 42.6311 41.854C42.9123 41.7916 43.1379 41.8481 43.3079 42.0234C43.4779 42.1988 43.5759 42.4556 43.6018 42.7941C43.5982 43.0735 43.5582 43.4839 43.4816 44.0253C43.4172 44.5477 43.3424 45.1707 43.2571 45.8943C43.1875 46.6145 43.1603 47.4154 43.1756 48.297C43.1825 48.4758 43.1937 48.7847 43.2091 49.2237C43.2368 49.6437 43.2574 50.1062 43.2711 50.6113C43.3005 51.1128 43.3246 51.5909 43.3435 52.0456C43.3781 52.4968 43.3979 52.8448 43.4031 53.0895C43.4012 53.4505 43.336 53.7845 43.2075 54.0917C43.0755 54.3832 42.8455 54.5653 42.5175 54.6381ZM53.2726 50.8015C53.3717 50.2878 53.5133 49.7074 53.6975 49.0601C53.8782 48.3972 54.0771 47.7057 54.2943 46.9856C54.5271 46.262 54.7634 45.554 55.0031 44.8616C55.255 44.1502 55.4973 43.5064 55.73 42.9303C56.0409 42.1894 56.3605 41.4875 56.6887 40.8247C57.017 40.1619 57.346 39.6136 57.6759 39.1798C58.0179 38.727 58.3373 38.4677 58.6341 38.4018C58.9465 38.3325 59.2493 38.4046 59.5425 38.6182C59.8514 38.8283 60.1671 39.2171 60.4897 39.7847C60.7117 40.1944 60.9675 40.7194 61.2571 41.3599C61.5467 42.0004 61.8424 42.7051 62.1441 43.474C62.4423 44.2272 62.7188 44.9935 62.9737 45.7728C63.2285 46.5521 63.4383 47.2759 63.6029 47.9441L61.5826 48.589C61.4007 47.8427 61.1658 47.0426 60.878 46.1886C60.6024 45.3156 60.3024 44.4808 59.9782 43.6841C59.6539 42.8874 59.3461 42.2018 59.0547 41.6273C58.7599 41.0371 58.5023 40.6518 58.282 40.4712L59.1542 40.081C58.7722 40.723 58.3797 41.4656 57.9768 42.3089C57.5895 43.1488 57.2456 44.0363 56.945 44.9716C56.7209 45.6605 56.5133 46.313 56.3222 46.929C56.1311 47.545 55.96 48.1402 55.8088 48.7146C55.6698 49.2699 55.5342 49.8408 55.4021 50.4273L53.2726 50.8015ZM64.4108 53.0257C64.0984 53.0951 63.832 53.0394 63.6117 52.8589C63.3913 52.6783 63.2829 52.4483 63.2865 52.1689C63.2762 51.9746 63.3153 51.6709 63.404 51.2579C63.4961 50.8605 63.5839 50.4067 63.6673 49.8965C63.7508 49.3863 63.784 48.8709 63.7668 48.3502L64.8754 49.358C64.6498 49.3753 64.2992 49.4203 63.8237 49.4931C63.3637 49.5623 62.7823 49.6749 62.0794 49.8309C61.4234 49.9764 60.7456 50.135 60.0462 50.3066C59.3589 50.459 58.6734 50.6193 57.9895 50.7874C57.3213 50.9521 56.6722 51.1289 56.0422 51.3178C55.4087 51.4912 54.8004 51.6671 54.2172 51.8457C53.6375 52.0398 53.1142 52.2297 52.6473 52.4152L53.3791 51.3924C53.3929 51.6024 53.4171 51.8593 53.4517 52.163C53.4863 52.4667 53.5288 52.7687 53.579 53.0689C53.6327 53.3848 53.6777 53.6616 53.7141 53.8994C53.7661 54.1337 53.8024 54.2977 53.8232 54.3914C53.8665 54.6604 53.8179 54.8843 53.6772 55.063C53.5401 55.2573 53.3387 55.3839 53.0732 55.4428C52.6983 55.526 52.4076 55.4348 52.2012 55.1692C51.9948 54.9036 51.8465 54.5678 51.7564 54.1616C51.6853 53.9152 51.6221 53.5932 51.5667 53.1958C51.5113 52.7984 51.4828 52.4851 51.4811 52.256C51.4881 51.9922 51.5333 51.7528 51.6167 51.5376C51.681 51.3103 51.8069 51.1021 51.9944 50.913C52.1819 50.7239 52.4405 50.56 52.7703 50.4212C53.1469 50.2721 53.6581 50.1013 54.3037 49.9089C54.9615 49.6974 55.7009 49.4842 56.5219 49.2693C57.355 49.0353 58.2149 48.8117 59.1018 48.5986C59.9852 48.3698 60.8331 48.1653 61.6453 47.9851C61.9109 47.9262 62.192 47.8638 62.4888 47.7979C62.8012 47.7286 63.1232 47.6654 63.4547 47.6082C63.7861 47.5511 64.1055 47.513 64.4127 47.494C64.876 47.4404 65.2118 47.5134 65.42 47.713C65.6438 47.9092 65.7643 48.2676 65.7815 48.7883C65.79 49.1961 65.7647 49.636 65.7055 50.108C65.6464 50.5801 65.549 51.0278 65.4135 51.4512C65.2971 51.8867 65.1477 52.2477 64.9654 52.5339C64.7987 52.8168 64.6138 52.9807 64.4108 53.0257ZM72.9597 47.8594C71.6788 48.1436 70.5621 48.0964 69.6095 47.7177C68.6725 47.3356 67.9421 46.7028 67.4183 45.8193C66.9066 44.9167 66.631 43.8224 66.5916 42.5364C66.5693 41.6235 66.6963 40.7923 66.9725 40.0427C67.2608 39.274 67.6203 38.6042 68.0509 38.0334C68.4971 37.4591 68.9693 37.002 69.4675 36.662C69.9622 36.3064 70.4048 36.0853 70.7953 35.9987C70.9671 35.9605 71.1129 35.9528 71.2326 35.9754C71.368 35.9945 71.479 36.0518 71.5658 36.1473C71.6647 36.2237 71.7176 36.3513 71.7244 36.53C71.7157 36.8598 71.6548 37.1764 71.5419 37.4801C71.4255 37.7682 71.1556 38.0657 70.732 38.3727C70.2286 38.763 69.818 39.1655 69.5003 39.5802C69.1947 39.9758 68.9716 40.4104 68.8308 40.8841C68.6867 41.3422 68.6318 41.8707 68.6663 42.4694C68.6971 43.7901 69.0708 44.7725 69.7873 45.4166C70.5003 46.045 71.4192 46.2345 72.5438 45.985C73.6372 45.7424 74.5034 45.1405 75.1424 44.1793C75.7935 43.199 76.0985 42.0251 76.0573 40.6575C76.0404 39.3993 75.7543 38.4794 75.1992 37.8979C74.6406 37.3007 73.8927 37.1061 72.9555 37.314C72.4712 37.4214 72.0781 37.607 71.7761 37.8707C71.4896 38.1309 71.1858 38.4605 70.8646 38.8596C70.6354 39.1562 70.4557 39.4174 70.3255 39.6429C70.1953 39.8685 70.072 40.0515 69.9557 40.1921C69.8515 40.3135 69.6979 40.3968 69.4948 40.4418C69.2761 40.4903 69.0887 40.4582 68.9326 40.3453C68.7886 40.2134 68.7114 39.9765 68.7011 39.6346C68.6839 39.2614 68.7821 38.8545 68.9957 38.4138C69.2249 37.9696 69.5236 37.5428 69.8916 37.1333C70.2718 36.7048 70.6989 36.3396 71.1727 36.0378C71.6432 35.7204 72.1283 35.5062 72.6281 35.3953C73.7528 35.1458 74.7255 35.2086 75.5462 35.5838C76.3635 35.9433 76.9993 36.5561 77.4537 37.4222C77.9046 38.2728 78.1368 39.3193 78.1503 40.5619C78.1915 41.7819 77.9985 42.9064 77.5712 43.9354C77.1405 44.9488 76.5259 45.7981 75.7273 46.4833C74.9444 47.165 74.0219 47.6238 72.9597 47.8594ZM82.5485 45.7074C82.1736 45.7906 81.8439 45.6343 81.5594 45.2385C81.2749 44.8427 81.1216 44.1884 81.0993 43.2756C81.0839 42.8365 81.0902 42.1631 81.1182 41.2555C81.1428 40.3323 81.2707 39.3205 81.5019 38.2204C81.7696 36.9154 82.0381 35.8725 82.3074 35.0916C82.5732 34.2951 82.8745 33.6957 83.2113 33.2931C83.5481 32.8906 83.9274 32.6426 84.3491 32.549C84.6771 32.4762 84.9565 32.5536 85.1873 32.781C85.4336 33.0049 85.6374 33.2957 85.7987 33.6533C85.96 34.0108 86.1056 34.3718 86.2357 34.7363C86.409 35.2223 86.6102 35.7595 86.8391 36.3479C87.0836 36.9328 87.3376 37.5238 87.6012 38.1209C87.8804 38.7145 88.1683 39.2734 88.4649 39.7976C88.7771 40.3184 89.0936 40.748 89.4146 41.0865L88.6127 41.4611C88.8681 40.4703 89.1548 39.4725 89.4727 38.4678C89.7907 37.463 90.1173 36.4974 90.4525 35.5708C90.7878 34.6442 91.1108 33.8104 91.4217 33.0695C91.7726 32.2869 92.0886 31.7169 92.3699 31.3595C92.6668 30.9986 92.9558 30.787 93.2369 30.7246C93.44 30.6796 93.6378 30.6848 93.8305 30.7404C94.0196 30.7804 94.1888 30.8412 94.338 30.9228C94.548 31.0565 94.7275 31.2379 94.8767 31.4671C95.0259 31.6962 95.1247 32.0676 95.1731 32.5813C95.282 33.7372 95.4136 34.7733 95.5677 35.6896C95.734 36.5869 95.8925 37.3384 96.0433 37.9442C96.2981 39.0185 96.5668 39.8603 96.8494 40.4695C97.1477 41.0753 97.2942 41.4771 97.289 41.6749C97.3028 41.8849 97.2298 42.0732 97.0701 42.2397C96.9295 42.4184 96.7342 42.5355 96.4843 42.591C96.1094 42.6741 95.7571 42.5638 95.4275 42.26C95.1135 41.9527 94.8577 41.5014 94.66 40.9061C94.4728 40.3576 94.2682 39.6573 94.0464 38.8051C93.8402 37.9495 93.6505 36.9836 93.4773 35.9076C93.3163 34.8125 93.1952 33.6757 93.114 32.4973L93.7571 32.1826C93.5035 32.8124 93.2204 33.5308 92.9077 34.3377C92.6072 35.1255 92.298 35.948 91.9802 36.8052C91.6779 37.6589 91.3895 38.5014 91.115 39.3326C90.8562 40.1603 90.6355 40.9386 90.453 41.6674C90.3471 42.0023 90.196 42.2816 89.9998 42.5054C89.8192 42.7258 89.5806 42.8689 89.2838 42.9347C88.9089 43.0179 88.5774 43.0013 88.2894 42.8849C88.0135 42.7495 87.755 42.5446 87.5139 42.2703C87.2849 41.977 87.0646 41.6489 86.853 41.2861C86.742 41.0813 86.5885 40.7957 86.3925 40.4295C86.1931 40.0476 85.9832 39.6189 85.763 39.1433C85.5428 38.6677 85.3234 38.1592 85.1049 37.6176C84.8864 37.0761 84.6853 36.5389 84.5015 36.0061C84.3143 35.4576 84.1669 34.9413 84.0595 34.457L84.7208 34.1137C84.3596 34.9969 84.0573 35.8506 83.8141 36.6749C83.5864 37.4956 83.4187 38.3277 83.3108 39.1711C83.2151 39.9954 83.1723 40.8735 83.1824 41.8055C83.1926 42.4424 83.2167 42.9943 83.2547 43.4611C83.3083 43.9245 83.3377 44.2785 83.3428 44.5232C83.3393 44.8026 83.2802 45.0534 83.1656 45.2755C83.0509 45.4976 82.8452 45.6416 82.5485 45.7074ZM104.942 46.885C103.989 47.0964 103.164 47.1812 102.466 47.1393C101.772 47.113 101.242 46.9766 100.876 46.7301C100.51 46.4835 100.326 46.1719 100.324 45.7953C100.315 45.535 100.372 45.3094 100.493 45.1186C100.634 44.9399 100.853 44.8176 101.15 44.7517C101.337 44.7102 101.518 44.7111 101.691 44.7545C101.865 44.798 102.063 44.844 102.287 44.8927C102.514 44.957 102.816 44.9883 103.193 44.9867C103.585 44.9816 104.086 44.9115 104.695 44.7764C105.445 44.61 106.033 44.3074 106.46 43.8685C106.887 43.4295 107.184 42.8804 107.349 42.221C107.529 41.5581 107.611 40.8188 107.594 40.0032C107.587 39.5294 107.551 39.0703 107.485 38.626C107.435 38.1783 107.378 37.6993 107.314 37.189C107.25 36.6788 107.184 36.087 107.117 35.4136C107.046 34.7246 106.996 33.9081 106.966 32.964L107.844 33.4823C107.583 34.671 107.279 35.6644 106.931 36.4626C106.581 37.2452 106.212 37.8759 105.827 38.3547C105.438 38.818 105.048 39.1667 104.658 39.4008C104.279 39.6159 103.926 39.7598 103.598 39.8326C102.239 40.1341 101.17 39.7814 100.389 38.7746C99.6048 37.7522 99.1855 35.9359 99.1308 33.3258C99.1017 32.2342 99.1297 31.4003 99.215 30.8241C99.3158 30.2445 99.4626 29.835 99.6553 29.5956C99.848 29.3562 100.069 29.2087 100.319 29.1533C100.554 29.1013 100.755 29.1222 100.923 29.216C101.088 29.2941 101.2 29.466 101.259 29.7315C101.333 29.9936 101.358 30.365 101.334 30.8457C101.302 31.8852 101.312 32.8501 101.362 33.7404C101.408 34.6151 101.51 35.3709 101.668 36.0079C101.826 36.6448 102.038 37.1222 102.305 37.4398C102.569 37.7419 102.912 37.8461 103.333 37.7526C103.989 37.607 104.555 37.1291 105.031 36.3188C105.504 35.4929 105.885 34.4413 106.175 33.1642C106.477 31.8679 106.694 30.4432 106.825 28.89C106.868 28.4214 106.945 28.1013 107.054 27.9295C107.16 27.7421 107.361 27.6155 107.658 27.5496C107.877 27.5011 108.088 27.5281 108.291 27.6305C108.509 27.7295 108.674 27.9552 108.785 28.3075C108.908 28.6408 108.942 29.125 108.886 29.7601C108.829 30.6087 108.807 31.3593 108.82 32.0119C108.85 32.6609 108.905 33.2796 108.986 33.868C109.064 34.4407 109.153 35.0273 109.254 35.6278C109.366 36.2092 109.462 36.86 109.539 37.5803C109.614 38.2849 109.666 39.1092 109.695 40.0533C109.724 41.1449 109.621 42.0855 109.387 42.8751C109.156 43.6802 108.829 44.3509 108.407 44.887C107.985 45.4231 107.473 45.8481 106.871 46.162C106.288 46.4881 105.645 46.7291 104.942 46.885Z" fill="#7831B2"/>
</svg>
