<svg width="153" height="95" viewBox="0 0 153 95" fill="none" xmlns="http://www.w3.org/2000/svg">
<path d="M1.18362 25.7135C0.948587 25.7622 0.744567 25.6941 0.571537 25.5093C0.410267 25.3221 0.329227 24.9896 0.328407 24.5119C0.320707 23.7047 0.298217 22.9741 0.260937 22.3201C0.235407 21.6637 0.199547 21.0461 0.153347 20.4675C0.118907 19.8864 0.0881072 19.323 0.0609572 18.7771C0.0313772 18.2196 0.0111074 17.6478 0.000167396 17.0619C-0.0055026 16.2053 0.132867 15.423 0.415297 14.7151C0.697727 14.0072 1.1386 13.4136 1.73791 12.9342C2.33721 12.4548 3.10104 12.1191 4.02937 11.927C4.87545 11.752 5.62651 11.7988 6.28255 12.0674C6.95032 12.3336 7.47222 12.7832 7.84832 13.4162C8.23362 14.0349 8.42932 14.8032 8.43542 15.721C8.45372 16.3422 8.35522 16.9324 8.14002 17.4916C7.92242 18.039 7.61392 18.5318 7.21432 18.9698C6.81239 19.3961 6.32998 19.7593 5.76715 20.0596C5.21606 20.3574 4.60561 20.5757 3.9358 20.7142C3.35999 20.8334 2.86482 20.8684 2.45029 20.8194C2.04751 20.7679 1.73732 20.6606 1.51972 20.4973C1.30212 20.334 1.19251 20.1299 1.19089 19.8852C1.18968 19.7016 1.23222 19.5519 1.31853 19.436C1.41659 19.3177 1.53613 19.2439 1.67714 19.2148C1.84166 19.1807 1.99584 19.1856 2.13969 19.2293C2.29286 19.2589 2.48838 19.2859 2.72624 19.3102C2.97342 19.3203 3.32615 19.278 3.78444 19.1831C4.38375 19.0591 4.91417 18.8391 5.37571 18.5231C5.84656 18.1928 6.21226 17.7985 6.47281 17.3402C6.74268 16.8678 6.87113 16.3633 6.85816 15.8268C6.85897 15.2384 6.73457 14.7556 6.48496 14.3783C6.2471 13.9987 5.92881 13.7337 5.53008 13.5833C5.12892 13.4212 4.68744 13.39 4.20564 13.4897C3.32431 13.6721 2.66078 14.0483 2.21505 14.6184C1.77864 15.1744 1.55983 15.8936 1.55861 16.7762C1.56469 17.3386 1.58131 17.8928 1.60846 18.4386C1.64736 18.982 1.68646 19.5559 1.72577 20.1605C1.77683 20.7627 1.81654 21.4284 1.84491 22.1578C1.87328 22.8872 1.89293 23.7225 1.90388 24.6638C1.91036 24.9321 1.85424 25.1643 1.73551 25.3604C1.62611 25.5423 1.44214 25.66 1.18362 25.7135ZM12.3677 23.3995C11.8272 23.5114 11.3598 23.4733 10.9655 23.2853C10.583 23.0948 10.2797 22.7838 10.0556 22.3523C9.84332 21.9183 9.73382 21.3895 9.72742 20.7659C9.71642 20.1799 9.79362 19.5758 9.95892 18.9534C10.1336 18.3168 10.3801 17.7021 10.6986 17.1093C11.0147 16.5047 11.3853 15.9562 11.8103 15.4639C12.2447 14.9574 12.7208 14.5341 13.2387 14.1942C13.7683 13.8518 14.321 13.621 14.8968 13.5018C15.1671 13.4459 15.3932 13.4727 15.5751 13.5821C15.7571 13.6915 15.8479 13.8933 15.8474 14.1875C15.8531 14.3333 15.814 14.4701 15.7301 14.5977C15.6438 14.7136 15.5032 14.804 15.3083 14.8688C14.51 15.1565 13.807 15.6083 13.1992 16.2243C12.6031 16.8378 12.1394 17.528 11.8079 18.2951C11.4858 19.048 11.3237 19.8045 11.3217 20.5647C11.3217 20.9201 11.3508 21.2388 11.4092 21.5208C11.4651 21.7911 11.5968 22.1314 11.8043 22.5419L10.8828 21.4643C11.1503 21.6908 11.3747 21.8281 11.5563 21.8764C11.7496 21.9221 12.0049 21.9122 12.3221 21.8466C13.0742 21.691 13.7383 21.0511 14.3145 19.9271C14.8908 18.803 15.317 17.2505 15.5934 15.2694C15.6294 15.0291 15.7058 14.8356 15.8225 14.6889C15.9485 14.528 16.1114 14.4269 16.3112 14.3856C16.5815 14.3297 16.8114 14.4047 17.0011 14.6105C17.2 14.8022 17.3242 15.0767 17.3737 15.4341C17.4798 16.1841 17.5949 16.8588 17.7189 17.4581C17.8522 18.0432 18.0311 18.5822 18.2556 19.0749C18.4919 19.5652 18.8258 20.0537 19.2573 20.5404C19.3521 20.6433 19.4095 20.7723 19.4293 20.9275C19.4609 21.0803 19.4502 21.2357 19.3971 21.3937C19.3558 21.5493 19.2802 21.6875 19.1704 21.8083C19.0699 21.9148 18.9374 21.9851 18.7729 22.0192C18.5966 22.0556 18.4483 22.0496 18.328 22.0009C18.2194 21.9499 18.1164 21.867 18.0192 21.7523C17.7915 21.4809 17.5777 21.1881 17.3779 20.8741C17.1782 20.56 16.9922 20.1941 16.82 19.7763C16.6571 19.3444 16.5195 18.8275 16.4073 18.2258C16.295 17.6241 16.2067 16.901 16.1422 16.0565L16.7732 15.9076C16.6285 17.1629 16.405 18.2446 16.1027 19.1527C15.798 20.049 15.4382 20.7975 15.0233 21.398C14.6177 21.9843 14.1853 22.4414 13.7262 22.7692C13.2671 23.0971 12.8143 23.3072 12.3677 23.3995ZM21.4183 20.4976C21.4981 20.1135 21.6106 19.6797 21.7557 19.1963C21.8983 18.7011 22.0549 18.1847 22.2255 17.647C22.4078 17.1068 22.5926 16.5784 22.7798 16.0618C22.9763 15.531 23.165 15.0508 23.3457 14.6213C23.5868 14.0689 23.834 13.546 24.0872 13.0525C24.3405 12.5589 24.5931 12.1513 24.8452 11.8295C25.1065 11.4936 25.3488 11.3026 25.5721 11.2564C25.8071 11.2077 26.0334 11.2651 26.251 11.4284C26.4804 11.5892 26.713 11.8842 26.9488 12.3134C27.1109 12.6229 27.2971 13.0194 27.5074 13.5029C27.7177 13.9863 27.9319 14.5179 28.1499 15.0978C28.3655 15.6659 28.5646 16.2435 28.7474 16.8306C28.9301 17.4178 29.0796 17.9628 29.1959 18.4657L27.674 18.9276C27.5455 18.366 27.378 17.7635 27.1713 17.12C26.974 16.4623 26.758 15.833 26.5234 15.2321C26.2887 14.6312 26.0653 14.1137 25.8529 13.6797C25.6382 13.234 25.4491 12.9423 25.2858 12.8045L25.9441 12.5212C25.6507 12.9986 25.3484 13.5513 25.0372 14.1794C24.7378 14.805 24.4704 15.4669 24.2349 16.1651C24.0595 16.6793 23.8968 17.1664 23.7469 17.6263C23.5969 18.0862 23.4622 18.5307 23.3427 18.9598C23.2325 19.3748 23.1247 19.8015 23.0193 20.2399L21.4183 20.4976ZM29.7472 22.2852C29.5122 22.3338 29.3131 22.2892 29.1498 22.1515C28.9865 22.0137 28.9076 21.8401 28.9133 21.6306C28.9076 21.4847 28.9403 21.2574 29.0112 20.9486C29.0845 20.6516 29.1552 20.3122 29.2233 19.9305C29.2914 19.5488 29.3218 19.1626 29.3145 18.772L30.135 19.5397C29.9656 19.5502 29.7023 19.5802 29.3449 19.6296C28.9992 19.6766 28.562 19.7549 28.0332 19.8643C27.4104 19.9931 26.7712 20.1315 26.1155 20.2794C25.4717 20.4249 24.8349 20.575 24.2052 20.7298C23.5872 20.8822 23.0011 21.0402 22.4468 21.2039C21.8924 21.3676 21.3875 21.5334 20.9321 21.7011L21.4919 20.9419C21.5 21.0996 21.5154 21.2925 21.5381 21.5206C21.5608 21.7487 21.5893 21.9756 21.6238 22.2013C21.6606 22.4388 21.6914 22.6469 21.7162 22.8256C21.7526 23.0018 21.7782 23.1252 21.7927 23.1957C21.8223 23.3979 21.7834 23.5653 21.676 23.6978C21.5711 23.842 21.4187 23.9348 21.219 23.9762C20.9369 24.0345 20.72 23.963 20.568 23.7616C20.416 23.5602 20.3085 23.3068 20.2452 23.0012C20.1946 22.8156 20.1506 22.5735 20.1133 22.2749C20.0761 21.9762 20.058 21.741 20.0592 21.5692C20.0674 21.3715 20.1038 21.1924 20.1687 21.0319C20.2193 20.8621 20.3159 20.7073 20.4586 20.5675C20.6012 20.4277 20.7969 20.3076 21.0457 20.2071C21.3298 20.0993 21.7149 19.9767 22.2012 19.8394C22.6968 19.6878 23.2535 19.5359 23.8715 19.3835C24.4987 19.217 25.1461 19.0585 25.8134 18.9082C26.4784 18.7461 27.1164 18.6018 27.7275 18.4754C28.033 18.4122 28.3691 18.3488 28.7358 18.2852C29.1001 18.2098 29.4575 18.1603 29.808 18.1368C30.1561 18.1016 30.4071 18.1599 30.5611 18.3119C30.7268 18.4614 30.8133 18.7315 30.8206 19.1221C30.8227 19.428 30.799 19.7577 30.7495 20.111C30.7001 20.4644 30.6223 20.7991 30.5161 21.1151C30.4241 21.4405 30.3083 21.7096 30.1685 21.9223C30.0404 22.1326 29.9 22.2536 29.7472 22.2852ZM35.9887 23.1261C35.2719 23.2744 34.6522 23.3291 34.1294 23.2902C33.6091 23.263 33.213 23.155 32.9412 22.9662C32.6693 22.7774 32.5347 22.5417 32.5376 22.2593C32.5339 22.064 32.5787 21.8954 32.6719 21.7536C32.7793 21.6211 32.9446 21.5318 33.1679 21.4856C33.3089 21.4564 33.4442 21.459 33.5739 21.4935C33.7036 21.5279 33.8521 21.5646 34.0194 21.6035C34.1892 21.6541 34.4153 21.6809 34.6977 21.6837C34.9919 21.6841 35.3682 21.6369 35.8265 21.5421C36.3905 21.4254 36.835 21.2047 37.16 20.8802C37.485 20.5556 37.7129 20.1469 37.8438 19.6542C37.9864 19.159 38.0557 18.6055 38.0517 17.9936C38.0517 17.6383 38.0294 17.2936 37.9848 16.9597C37.952 16.6234 37.9143 16.2636 37.8717 15.8803C37.8292 15.4969 37.7862 15.0524 37.7429 14.5467C37.6971 14.0293 37.6683 13.4164 37.6566 12.7081L38.3088 13.1062C38.1005 13.9948 37.8618 14.7366 37.5928 15.3314C37.3213 15.9145 37.0384 16.3835 36.7442 16.7385C36.4476 17.0817 36.1516 17.339 35.8562 17.5104C35.5701 17.6677 35.3037 17.7718 35.0569 17.8229C34.0346 18.0344 33.2361 17.7584 32.6615 16.995C32.0845 16.2198 31.7895 14.8533 31.7765 12.8953C31.7664 12.0764 31.7964 11.4513 31.8665 11.0202C31.9483 10.5866 32.0628 10.2811 32.2099 10.1036C32.357 9.92614 32.5246 9.81793 32.7126 9.77903C32.8888 9.74253 33.0396 9.76044 33.1648 9.83254C33.2876 9.89294 33.3696 10.0229 33.411 10.2227C33.464 10.4201 33.4788 10.6988 33.4553 11.0591C33.4205 11.8383 33.417 12.562 33.445 13.2302C33.4705 13.8866 33.539 14.4545 33.6504 14.9339C33.7619 15.4133 33.9161 15.7735 34.113 16.0146C34.3075 16.244 34.5634 16.3258 34.8807 16.2602C35.3742 16.158 35.8037 15.8057 36.1692 15.2032C36.5323 14.5889 36.8295 13.8044 37.0609 12.8497C37.3016 11.8808 37.4793 10.8147 37.5939 9.65143C37.6316 9.30044 37.6924 9.06124 37.7763 8.93354C37.8577 8.79414 38.0101 8.70133 38.2334 8.65514C38.3979 8.62113 38.5557 8.64363 38.7069 8.72263C38.8698 8.79923 38.9909 8.97023 39.0703 9.23563C39.1591 9.48683 39.1791 9.85034 39.1305 10.326C39.0782 10.9618 39.0537 11.5244 39.057 12.0139C39.072 12.501 39.1068 12.9656 39.1615 13.4077C39.2138 13.838 39.2744 14.2789 39.3433 14.7303C39.4215 15.1675 39.4859 15.6566 39.5366 16.1975C39.5848 16.7267 39.6148 17.3455 39.6265 18.0538C39.6366 18.8727 39.5495 19.577 39.3652 20.1666C39.1832 20.7679 38.9312 21.2673 38.609 21.6649C38.2869 22.0624 37.8983 22.3756 37.4432 22.6045C37.0024 22.8428 36.5175 23.0166 35.9887 23.1261ZM45.9197 16.4577C45.1911 16.6084 44.5594 16.6349 44.0245 16.5373C43.499 16.4254 43.0692 16.2141 42.7353 15.9033C42.399 15.5808 42.1445 15.18 41.9719 14.7011C41.811 14.2197 41.7286 13.6731 41.7245 13.0612C41.7347 12.4586 41.8388 11.8366 42.0369 11.1952C42.2444 10.5396 42.5392 9.92104 42.9213 9.33954C43.3152 8.75564 43.7826 8.26063 44.3235 7.85463C44.8738 7.43443 45.4839 7.15504 46.1537 7.01644C46.7765 6.88764 47.3083 6.88174 47.7492 6.99884C48.2018 7.11354 48.5446 7.34893 48.7776 7.70513C49.0224 8.05884 49.1468 8.54163 49.1508 9.15353C49.1565 9.65483 49.0513 10.1238 48.8354 10.5606C48.6287 10.9832 48.3347 11.3688 47.9534 11.7173C47.5814 12.0516 47.1456 12.3439 46.646 12.5944C46.1557 12.8306 45.6168 13.0095 45.0292 13.1311C44.2301 13.2964 43.676 13.313 43.3668 13.1809C43.0694 13.0464 42.9199 12.8568 42.9183 12.612C42.9126 12.4661 42.9448 12.3553 43.0149 12.2795C43.0826 12.192 43.2046 12.13 43.3808 12.0935C43.5101 12.0668 43.6677 12.0587 43.8537 12.0692C44.049 12.0656 44.3288 12.0261 44.6931 11.9507C45.2807 11.8291 45.7924 11.6375 46.2284 11.3757C46.6762 11.1115 47.0237 10.8068 47.2708 10.4615C47.5156 10.1045 47.6402 9.72954 47.6447 9.33654C47.6422 8.96934 47.5405 8.71473 47.3395 8.57243C47.1503 8.42783 46.8265 8.40294 46.3682 8.49774C45.9099 8.59254 45.4912 8.78943 45.1119 9.08853C44.7419 9.37343 44.4113 9.72974 44.1199 10.1576C43.8403 10.5831 43.6246 11.0505 43.4726 11.5599C43.3206 12.0692 43.2499 12.5863 43.2605 13.111C43.2657 13.5511 43.3401 13.9401 43.4836 14.278C43.6246 14.6042 43.8592 14.8498 44.1874 15.0147C44.5249 15.1654 44.964 15.1849 45.5045 15.0731C46.1156 14.9466 46.6227 14.762 47.0259 14.5193C47.4384 14.2624 47.7755 13.9966 48.0373 13.7219C48.2991 13.4471 48.5199 13.2115 48.6998 13.015C48.8797 12.8184 49.052 12.7032 49.2165 12.6691C49.4162 12.6278 49.5731 12.675 49.6869 12.8107C49.8101 12.9323 49.8725 13.1155 49.8741 13.3602C49.8758 13.605 49.7682 13.8846 49.5514 14.199C49.3439 14.4993 49.0518 14.8048 48.6749 15.1156C48.3098 15.424 47.8892 15.7009 47.4131 15.9465C46.9463 16.1779 46.4485 16.3482 45.9197 16.4577ZM52.9467 15.0221C52.6647 15.0805 52.4192 14.9597 52.2101 14.6599C52.001 14.36 51.893 13.8677 51.8861 13.1829C51.8792 12.8535 51.8912 12.3486 51.9219 11.6682C51.9503 10.9761 52.0571 10.2188 52.2423 9.39624C52.457 8.42044 52.6696 7.64124 52.8799 7.05854C53.0877 6.46414 53.3201 6.01774 53.577 5.71954C53.8339 5.42134 54.121 5.23934 54.4383 5.17374C54.6851 5.12264 54.8937 5.18364 55.0643 5.35664C55.2467 5.52724 55.3964 5.74754 55.5135 6.01734C55.6306 6.28724 55.736 6.55954 55.8296 6.83424C55.9544 7.20054 56.0995 7.60563 56.2648 8.04933C56.4419 8.49053 56.626 8.93654 56.8173 9.38714C57.0203 9.83524 57.2302 10.2575 57.447 10.6538C57.6755 11.0476 57.9083 11.3732 58.1454 11.6305L57.54 11.9028C57.7422 11.1625 57.9679 10.4173 58.2171 9.66733C58.4663 8.91723 58.7216 8.19653 58.9829 7.50533C59.2443 6.81403 59.4955 6.19224 59.7366 5.63994C60.0081 5.05684 60.2512 4.63273 60.466 4.36773C60.6925 4.10033 60.9115 3.94474 61.1231 3.90094C61.2758 3.86934 61.4241 3.87544 61.568 3.91914C61.7094 3.95114 61.8356 3.99854 61.9466 4.06144C62.1027 4.16394 62.2354 4.30184 62.3448 4.47534C62.4542 4.64874 62.5243 4.92834 62.5551 5.31414C62.6244 6.18204 62.7119 6.96044 62.8177 7.64934C62.9327 8.32404 63.0436 8.88924 63.1501 9.34514C63.3297 10.1535 63.5221 10.7877 63.7276 11.2476C63.9448 11.7051 64.0503 12.0079 64.0442 12.1563C64.0524 12.3139 63.9956 12.4543 63.8741 12.5775C63.7667 12.71 63.619 12.7957 63.431 12.8346C63.1489 12.8929 62.886 12.8064 62.642 12.575C62.4098 12.3412 62.2228 12.0001 62.081 11.5515C61.9465 11.1382 61.8006 10.6108 61.6434 9.96933C61.4979 9.32553 61.366 8.59914 61.2477 7.79034C61.1387 6.96734 61.0601 6.11364 61.0118 5.22904L61.4975 4.99984C61.3005 5.46954 61.0805 6.00524 60.8374 6.60694C60.6036 7.19454 60.3629 7.80793 60.1153 8.44743C59.8795 9.08443 59.6542 9.71303 59.4394 10.3334C59.2364 10.9514 59.0626 11.5326 58.9179 12.0773C58.8349 12.3273 58.7186 12.5351 58.569 12.7009C58.4313 12.8642 58.2507 12.9689 58.0275 13.0151C57.7454 13.0735 57.4971 13.0575 57.2823 12.9671C57.0768 12.8626 56.8852 12.7061 56.7073 12.4979C56.5387 12.2754 56.377 12.027 56.2223 11.7527C56.1412 11.5979 56.0292 11.3821 55.8861 11.1054C55.7407 10.8169 55.5879 10.4931 55.4278 10.1341C55.2678 9.77514 55.1087 9.39133 54.9507 8.98293C54.7927 8.57443 54.6476 8.16944 54.5155 7.76784C54.381 7.35454 54.276 6.96574 54.2006 6.60144L54.7003 6.35104C54.4199 7.00954 54.184 7.64653 53.9928 8.26203C53.8133 8.87513 53.6785 9.49733 53.5886 10.1286C53.5079 10.7457 53.4664 11.4038 53.464 12.1028C53.4648 12.5805 53.477 12.9947 53.5005 13.3452C53.5357 13.6933 53.5539 13.9591 53.5552 14.1426C53.5495 14.3521 53.5025 14.5395 53.4141 14.7049C53.3258 14.8702 53.17 14.9759 52.9467 15.0221ZM69.6367 11.5322C68.7671 11.7121 68.0151 11.6901 67.3805 11.466C66.7553 11.2277 66.2678 10.8262 65.9181 10.2613C65.5777 9.68223 65.4059 8.97033 65.4027 8.12543C65.4002 7.40293 65.5204 6.71024 65.7631 6.04734C66.0151 5.37024 66.3664 4.75834 66.817 4.21174C67.277 3.65094 67.8045 3.18024 68.3998 2.79974C68.995 2.41924 69.6335 2.15854 70.315 2.01754C70.6206 1.95424 70.9006 1.94534 71.155 1.99074C71.4071 2.02434 71.6042 2.11843 71.7464 2.27273C71.898 2.41293 71.9699 2.61253 71.9622 2.87143C71.9614 3.10443 71.9097 3.29893 71.8072 3.45493C71.7023 3.59923 71.5617 3.68964 71.3854 3.72604C71.2561 3.75284 71.1514 3.74993 71.0712 3.71753C70.9909 3.68513 70.9048 3.65393 70.8128 3.62393C70.7326 3.59154 70.6043 3.59353 70.4281 3.63003C69.7583 3.76863 69.1648 4.06903 68.6478 4.53143C68.1283 4.98203 67.7188 5.52014 67.4194 6.14584C67.1293 6.75724 66.9828 7.38193 66.9799 8.01973C66.9998 8.53023 67.1003 8.95673 67.2814 9.29913C67.4719 9.62733 67.7405 9.85974 68.0874 9.99634C68.446 10.1304 68.8545 10.1501 69.3128 10.0552C69.8298 9.94833 70.2289 9.80443 70.5102 9.62373C70.7889 9.43123 71.0007 9.24034 71.1453 9.05114C71.3017 8.85954 71.4265 8.69273 71.5197 8.55093C71.6105 8.39734 71.7323 8.30474 71.885 8.27314C72.1083 8.22694 72.272 8.24823 72.3761 8.33693C72.492 8.42323 72.5532 8.60053 72.5597 8.86883C72.5577 9.27363 72.4296 9.66163 72.1756 10.0327C71.9191 10.3922 71.5669 10.704 71.1192 10.9682C70.6832 11.2299 70.189 11.418 69.6367 11.5322ZM81.2928 9.15744C80.9755 9.22304 80.7172 9.12944 80.5178 8.87664C80.3278 8.60954 80.1831 8.26574 80.0838 7.84514C80.0401 7.63364 79.9961 7.39154 79.9519 7.11874C79.9078 6.84604 79.8741 6.56504 79.851 6.27574C79.8397 5.98404 79.8273 5.71694 79.8139 5.47464C79.8172 5.25344 79.8212 4.97684 79.8261 4.64494C79.8427 4.31064 79.8581 3.97053 79.8723 3.62443C79.8958 3.26423 79.9136 2.93583 79.9258 2.63913C79.9473 2.32833 79.9598 2.09294 79.9635 1.93294C79.9554 1.77524 79.897 1.67093 79.7884 1.61983C79.6774 1.55703 79.5044 1.54994 79.2693 1.59864C79.0813 1.63754 78.8781 1.69184 78.6597 1.76154C78.4413 1.83114 78.2077 1.91623 77.9589 2.01673C77.3839 2.25823 76.8881 2.55693 76.4716 2.91273C76.0643 3.25433 75.8641 3.58983 75.871 3.91923C75.8682 4.20163 75.9486 4.44234 76.1123 4.64134C76.2854 4.82614 76.5733 4.94423 76.976 4.99573C77.3906 5.04473 77.9621 4.99384 78.6907 4.84314C78.9492 4.78964 79.2065 4.73023 79.4626 4.66503C79.7187 4.59983 79.9618 4.53114 80.192 4.45894C80.4315 4.37264 80.6323 4.30664 80.7944 4.26084C80.954 4.20324 81.0573 4.16963 81.1043 4.15993C81.3981 4.09913 81.6485 4.06573 81.8556 4.05963C82.0627 4.05353 82.1646 4.16114 82.1613 4.38234C82.1747 4.62474 82.0843 4.83944 81.8902 5.02664C81.7079 5.21144 81.4465 5.36963 81.1062 5.50133C80.7775 5.63063 80.3841 5.74264 79.9258 5.83754L78.1102 6.21314C77.4757 6.34444 76.8662 6.36024 76.2819 6.26054C75.7094 6.15844 75.2419 5.94264 74.8797 5.61323C74.5292 5.28133 74.3474 4.84714 74.3345 4.31064C74.3393 3.97884 74.424 3.61813 74.5885 3.22873C74.7624 2.82513 75.0468 2.42324 75.4419 2.02284C75.8487 1.62004 76.4087 1.24684 77.1219 0.903236C77.6333 0.650436 78.0675 0.468635 78.4245 0.358035C78.7815 0.247435 79.1421 0.154436 79.5064 0.0790361C79.9647 -0.0157639 80.3364 -0.0252646 80.6217 0.0504354C80.907 0.126235 81.1197 0.266035 81.2599 0.469835C81.4119 0.671235 81.4889 0.924934 81.4909 1.23083C81.495 1.48733 81.4806 1.80284 81.4477 2.17724C81.4125 2.53994 81.3797 2.91434 81.3493 3.30044C81.3282 3.67244 81.3116 4.00673 81.2994 4.30333C81.299 4.59753 81.3094 4.91403 81.3304 5.25273C81.3491 5.57973 81.3783 5.89844 81.418 6.20884C81.4577 6.51924 81.5006 6.78614 81.5468 7.00934C81.6003 7.26794 81.6633 7.54283 81.7359 7.83413C81.8177 8.11133 81.8578 8.30523 81.8562 8.41584C81.8668 8.58524 81.8195 8.74203 81.7146 8.88633C81.6096 9.03053 81.469 9.12094 81.2928 9.15744ZM75.0845 10.4235C74.873 10.4672 74.6939 10.4308 74.5472 10.3141C74.4099 10.1832 74.3394 10.0201 74.3357 9.82484C74.3442 9.68824 74.4056 9.54073 74.5199 9.38233C74.6317 9.21213 74.8351 9.01073 75.1301 8.77813C75.6358 8.37943 76.1186 7.89964 76.5785 7.33884C77.0502 6.77554 77.5109 6.15944 77.9607 5.49044L79.2025 5.89523C78.8929 6.41273 78.5469 6.93154 78.1643 7.45184C77.7911 7.95794 77.4106 8.42883 77.0229 8.86443C76.6468 9.29763 76.2915 9.65294 75.9568 9.93054C75.622 10.2081 75.3313 10.3724 75.0845 10.4235ZM7.81692 40.7167C6.85338 40.9161 6.01641 40.8687 5.30608 40.5745C4.60749 40.2779 4.06653 39.7955 3.6832 39.1273C3.30919 38.4449 3.11428 37.6213 3.09847 36.6565C3.09158 35.9717 3.19572 35.3497 3.41089 34.7905C3.63537 34.2172 3.91213 33.7187 4.24116 33.2953C4.58194 32.8694 4.94096 32.5317 5.31821 32.2821C5.69303 32.0207 6.02733 31.8596 6.3211 31.7988C6.45037 31.7721 6.55977 31.7678 6.64933 31.7861C6.75063 31.8019 6.83329 31.8461 6.89731 31.9186C6.97062 31.9769 7.00892 32.0732 7.01222 32.2073C7.00202 32.4545 6.95302 32.6913 6.8651 32.9178C6.77474 33.1326 6.5691 33.3528 6.24817 33.5785C5.86646 33.8658 5.55425 34.1633 5.31153 34.4708C5.07813 34.7642 4.90612 35.0877 4.79549 35.4415C4.68244 35.7835 4.63564 36.1792 4.65509 36.6286C4.66401 37.6193 4.93368 38.36 5.4641 38.8507C5.99209 39.3297 6.67913 39.4817 7.52522 39.3066C8.34782 39.1364 9.00382 38.6943 9.49332 37.9803C9.99212 37.2522 10.2334 36.3751 10.2172 35.3491C10.218 34.4054 10.0134 33.7124 9.60332 33.2704C9.19082 32.8165 8.63202 32.6625 7.92692 32.8084C7.56272 32.8838 7.26582 33.0187 7.03652 33.2132C6.81891 33.4053 6.58754 33.6492 6.34238 33.945C6.16733 34.1651 6.02976 34.359 5.92968 34.5267C5.82959 34.6945 5.73518 34.8304 5.64644 34.9346C5.56702 35.0245 5.45092 35.0853 5.29816 35.1169C5.13364 35.151 4.99344 35.1248 4.87755 35.0385C4.77098 34.938 4.71567 34.7595 4.71161 34.503C4.7027 34.223 4.7807 33.9189 4.94562 33.5907C5.12229 33.26 5.35083 32.9432 5.63123 32.6401C5.92096 32.3228 6.24513 32.0535 6.60374 31.8323C6.95992 31.5993 7.32602 31.4439 7.70202 31.3661C8.54812 31.191 9.27692 31.2486 9.88842 31.5387C10.4974 31.8171 10.9676 32.2835 11.2991 32.9379C11.6281 33.5805 11.791 34.3679 11.7878 35.2999C11.8056 36.2152 11.6488 37.0564 11.3174 37.8235C10.9835 38.5788 10.5134 39.2091 9.90722 39.7144C9.31282 40.2173 8.61602 40.5514 7.81692 40.7167ZM16.0658 36.0323C15.6192 36.1247 15.2284 36.1014 14.8933 35.9624C14.5582 35.8234 14.2837 35.5922 14.0697 35.2689C13.8675 34.9431 13.7332 34.5604 13.6667 34.1207C13.5861 33.6717 13.563 33.2047 13.5974 32.7197C13.6319 32.2347 13.7089 31.7776 13.8284 31.3485C13.9597 30.9169 14.1232 30.5522 14.3189 30.2544C14.5146 29.9566 14.7359 29.7821 14.9826 29.7311C15.1001 29.7067 15.2049 29.7096 15.2969 29.7396C15.4006 29.7671 15.4857 29.823 15.5522 29.9073C15.6162 29.9799 15.6557 30.082 15.6707 30.2137C15.6808 30.3219 15.6561 30.4985 15.5965 30.7437C15.5463 30.9746 15.481 31.2516 15.4008 31.5746C15.3182 31.8858 15.258 32.2168 15.2203 32.5677C15.1802 32.9069 15.1883 33.2422 15.2446 33.5737C15.2884 33.7852 15.3437 33.9637 15.4105 34.1092C15.475 34.2429 15.5615 34.3353 15.6701 34.3863C15.7904 34.435 15.9329 34.4422 16.0974 34.4082C16.4734 34.3304 16.8418 34.1562 17.2024 33.8855C17.563 33.6148 17.8915 33.2773 18.1877 32.8729C18.4956 32.466 18.7564 32.0383 18.9699 31.5897C19.181 31.1294 19.3275 30.6825 19.4094 30.2489L19.926 32.0353C19.6363 32.7079 19.2933 33.3303 18.897 33.9025C18.5124 34.4722 18.0766 34.9423 17.5896 35.3126C17.1143 35.6806 16.6063 35.9205 16.0658 36.0323ZM20.4147 38.1286C20.1562 38.1821 19.9534 38.1199 19.8063 37.942C19.6568 37.7524 19.5281 37.5156 19.4203 37.2315C19.3506 37.0131 19.2864 36.7323 19.2276 36.3891C19.1782 36.0317 19.1415 35.6471 19.1176 35.2354C19.0937 34.8237 19.0852 34.4272 19.0921 34.0459C19.0949 33.7635 19.1081 33.4422 19.1316 33.0819C19.1527 32.71 19.1796 32.3368 19.2124 31.9623C19.2453 31.5879 19.2829 31.237 19.3255 30.9096C19.3656 30.5704 19.3956 30.3008 19.4154 30.1006C19.4552 29.7002 19.5236 29.3797 19.6209 29.139C19.7299 28.8959 19.8901 28.7525 20.1017 28.7087C20.3014 28.6674 20.4974 28.7555 20.6894 28.9731C20.8815 29.1907 20.9753 29.496 20.9708 29.8891C20.9773 30.1573 20.9504 30.5305 20.89 31.0087C20.8272 31.4751 20.768 31.9591 20.7125 32.4607C20.6663 32.9482 20.6432 33.3696 20.6432 33.725C20.64 34.3016 20.6574 34.8004 20.6955 35.2215C20.7336 35.6425 20.7855 36.0116 20.8511 36.3289C20.888 36.5663 20.9281 36.7602 20.9715 36.9106C21.0148 37.0609 21.0369 37.1973 21.0377 37.3196C21.0365 37.4914 20.9846 37.6554 20.8821 37.8114C20.7938 37.9767 20.638 38.0824 20.4147 38.1286ZM27.4207 36.624C26.4454 36.8258 25.6509 36.8063 25.0375 36.5656C24.4215 36.3132 23.9681 35.8984 23.6772 35.3214C23.3838 34.7326 23.2332 34.0347 23.2255 33.2275C23.2357 32.6249 23.3398 32.0029 23.538 31.3615C23.7454 30.7059 24.0402 30.0873 24.4223 29.5058C24.8162 28.9219 25.2836 28.4269 25.8246 28.0209C26.3748 27.6007 26.9849 27.3213 27.6547 27.1827C28.583 26.9907 29.3108 27.0729 29.838 27.4295C30.3769 27.7837 30.6482 28.4138 30.6518 29.3198C30.6681 29.9904 30.4932 30.5964 30.1273 31.1378C29.759 31.6674 29.2583 32.1202 28.6254 32.4963C28.0042 32.8699 27.3058 33.1369 26.5302 33.2974C25.7312 33.4627 25.177 33.4793 24.8679 33.3472C24.5704 33.2127 24.4209 33.0231 24.4193 32.7783C24.4136 32.6324 24.4458 32.5216 24.5159 32.4458C24.5836 32.3583 24.7056 32.2963 24.8818 32.2598C25.0111 32.2331 25.1687 32.225 25.3547 32.2355C25.55 32.2319 25.8298 32.1924 26.1941 32.117C26.7817 31.9954 27.2935 31.8038 27.7295 31.542C28.1772 31.2778 28.5247 30.9731 28.7719 30.6278C29.0166 30.2708 29.1412 29.8958 29.1457 29.5028C29.1432 29.1357 29.0415 28.881 28.8405 28.7387C28.6513 28.5941 28.3275 28.5692 27.8693 28.664C27.2699 28.788 26.7365 29.0822 26.2689 29.5465C25.8013 30.0109 25.4273 30.5723 25.1468 31.2308C24.8782 31.8868 24.7497 32.569 24.7615 33.2773C24.7668 33.7174 24.8411 34.1064 24.9846 34.4443C25.1256 34.7705 25.3602 35.0161 25.6884 35.181C26.026 35.3317 26.465 35.3512 27.0056 35.2394C27.6166 35.1129 28.1237 34.9284 28.5269 34.6856C28.9394 34.4287 29.2766 34.1629 29.5383 33.8882C29.8001 33.6134 30.0209 33.3778 30.2009 33.1813C30.3808 32.9847 30.553 32.8695 30.7175 32.8354C30.9173 32.7941 31.0741 32.8413 31.1879 32.977C31.3111 33.0986 31.3735 33.2818 31.3752 33.5265C31.3768 33.7713 31.2692 34.0509 31.0524 34.3653C30.8449 34.6656 30.5528 34.9711 30.1759 35.2819C29.8108 35.5903 29.3902 35.8672 28.9141 36.1128C28.4473 36.3442 27.9495 36.5146 27.4207 36.624ZM37.6163 34.4226C37.0523 34.5393 36.5429 34.565 36.0883 34.4998C35.6336 34.4345 35.2691 34.3016 34.9948 34.1011C34.7205 33.9005 34.5788 33.6602 34.5699 33.3802C34.576 33.2319 34.6151 33.0951 34.6872 32.9699C34.7594 32.8447 34.8718 32.7663 35.0246 32.7347C35.1421 32.7104 35.2539 32.7179 35.3601 32.7572C35.4663 32.7965 35.5925 32.8439 35.7388 32.8994C35.885 32.9549 36.0889 32.9924 36.3502 33.0118C36.6091 33.0195 36.9501 32.9796 37.3732 32.8921C38.0312 32.756 38.5683 32.4794 38.9845 32.0624C39.41 31.6313 39.6118 31.0075 39.5899 30.191C39.5931 29.6143 39.4957 29.1137 39.2975 28.689C39.1087 28.2502 38.8451 27.8942 38.5067 27.6211C38.166 27.3363 37.7658 27.1495 37.3063 27.0607C36.8468 26.972 36.3468 26.9835 35.8062 27.0954C35.5359 27.1513 35.2659 27.2378 34.996 27.3549C34.7261 27.472 34.4854 27.5524 34.2739 27.5962C34.1446 27.623 34.021 27.6179 33.9031 27.581C33.7828 27.5324 33.6928 27.453 33.6333 27.3427C33.5737 27.2325 33.5435 27.1162 33.5427 26.9939C33.5476 26.662 33.7092 26.3773 34.0277 26.1399C34.3555 25.8882 34.8896 25.6858 35.6299 25.5327C36.4173 25.3698 37.1444 25.3602 37.8114 25.5041C38.4901 25.6455 39.0803 25.9217 39.582 26.3325C40.0812 26.7317 40.4718 27.2574 40.7538 27.9098C41.0452 28.548 41.1937 29.2954 41.1994 30.1521C41.2055 30.7145 41.1171 31.2352 40.9344 31.7141C40.7634 32.1907 40.5202 32.6147 40.205 32.9863C39.8873 33.3461 39.5092 33.6511 39.0708 33.9011C38.6299 34.1393 38.1451 34.3132 37.6163 34.4226ZM34.4077 39.7921C34.2666 39.8212 34.136 39.8115 34.0156 39.7629C33.9094 39.7236 33.8254 39.6429 33.7634 39.521C33.7014 39.399 33.6698 39.2462 33.6685 39.0627C33.6673 38.8791 33.6979 38.7012 33.7603 38.529C33.8134 38.371 33.8709 38.1753 33.9329 37.9419C33.9974 37.7202 34.0555 37.4386 34.1074 37.097C34.1593 36.7554 34.1846 36.3151 34.1834 35.7762C34.1821 34.8819 34.0987 34.0046 33.9329 33.1444C33.7672 32.2841 33.5932 31.4133 33.4108 30.532C33.2378 29.6364 33.1411 28.7251 33.1209 27.798C33.1188 27.4921 33.1738 27.254 33.2856 27.0838C33.4067 26.8994 33.5731 26.7854 33.7846 26.7416C33.9726 26.7027 34.1388 26.7357 34.283 26.8407C34.4366 26.9315 34.5588 27.0777 34.6495 27.2795C34.7379 27.4696 34.7782 27.6941 34.7705 27.953C34.7754 28.6872 34.8258 29.3753 34.9218 30.0171C35.0272 30.6448 35.1419 31.2583 35.2659 31.8576C35.4016 32.4545 35.5197 33.055 35.6202 33.6592C35.7207 34.2633 35.772 34.8961 35.774 35.5574C35.7874 36.1551 35.7663 36.7047 35.7108 37.2064C35.6553 37.708 35.5676 38.1428 35.4476 38.5108C35.3394 38.8763 35.1978 39.169 35.0228 39.3891C34.8595 39.6067 34.6544 39.741 34.4077 39.7921ZM47.3196 32.5069C46.591 32.6576 45.9593 32.6842 45.4244 32.5865C44.8988 32.4747 44.4691 32.2634 44.1352 31.9526C43.7989 31.63 43.5444 31.2293 43.3718 30.7503C43.2109 30.2689 43.1285 29.7223 43.1244 29.1104C43.1345 28.5079 43.2387 27.8859 43.4368 27.2444C43.6443 26.5888 43.9391 25.9702 44.3212 25.3888C44.7151 24.8048 45.1825 24.3099 45.7234 23.9039C46.2737 23.4837 46.8837 23.2043 47.5536 23.0657C48.1764 22.9368 48.7082 22.9309 49.1491 23.048C49.6017 23.1627 49.9445 23.3981 50.1775 23.7543C50.4223 24.1081 50.5467 24.5909 50.5507 25.2027C50.5564 25.704 50.4512 26.173 50.2353 26.6098C50.0286 27.0325 49.7346 27.418 49.3533 27.7665C48.9813 28.1008 48.5455 28.3932 48.0459 28.6436C47.5556 28.8798 47.0167 29.0587 46.4291 29.1803C45.63 29.3456 45.0759 29.3623 44.7667 29.2302C44.4693 29.0956 44.3198 28.906 44.3182 28.6612C44.3125 28.5154 44.3447 28.4045 44.4148 28.3288C44.4825 28.2412 44.6044 28.1792 44.7807 28.1428C44.91 28.116 45.0676 28.1079 45.2536 28.1185C45.4489 28.1148 45.7287 28.0753 46.093 27.9999C46.6805 27.8784 47.1923 27.6867 47.6283 27.4249C48.0761 27.1607 48.4236 26.856 48.6707 26.5108C48.9155 26.1538 49.0401 25.7788 49.0445 25.3857C49.0421 25.0186 48.9404 24.7639 48.7394 24.6217C48.5502 24.477 48.2264 24.4521 47.7681 24.5469C47.3098 24.6417 46.891 24.8387 46.5118 25.1377C46.1418 25.4226 45.8112 25.779 45.5198 26.2069C45.2402 26.6323 45.0244 27.0998 44.8725 27.6091C44.7205 28.1185 44.6498 28.6355 44.6604 29.1603C44.6656 29.6003 44.74 29.9893 44.8834 30.3273C45.0245 30.6535 45.2591 30.899 45.5873 31.0639C45.9248 31.2147 46.3639 31.2341 46.9044 31.1223C47.5155 30.9959 48.0226 30.8113 48.4258 30.5686C48.8383 30.3117 49.1754 30.0458 49.4372 29.7711C49.699 29.4964 49.9198 29.2607 50.0997 29.0642C50.2796 28.8677 50.4518 28.7524 50.6164 28.7184C50.8161 28.677 50.9729 28.7242 51.0868 28.86C51.21 28.9815 51.2724 29.1647 51.274 29.4094C51.2756 29.6542 51.1681 29.9338 50.9513 30.2482C50.7438 30.5485 50.4516 30.854 50.0748 31.1648C49.7097 31.4732 49.2891 31.7502 48.813 31.9957C48.3462 32.2271 47.8484 32.3975 47.3196 32.5069ZM53.751 30.1469C53.8308 29.7627 53.9432 29.329 54.0883 28.8456C54.2309 28.3504 54.3875 27.8339 54.5581 27.2962C54.7405 26.7561 54.9253 26.2277 55.1125 25.711C55.309 25.1802 55.4976 24.7 55.6783 24.2705C55.9194 23.7182 56.1666 23.1953 56.4199 22.7017C56.6731 22.2082 56.9258 21.8005 57.1778 21.4788C57.4392 21.1429 57.6815 20.9518 57.9048 20.9056C58.1398 20.857 58.3661 20.9143 58.5837 21.0776C58.813 21.2385 59.0456 21.5335 59.2815 21.9626C59.4435 22.2722 59.6297 22.6687 59.84 23.1521C60.0504 23.6355 60.2645 24.1672 60.4825 24.747C60.6981 25.3151 60.8973 25.8928 61.08 26.4799C61.2628 27.0671 61.4123 27.6121 61.5286 28.1149L60.0066 28.5769C59.8782 28.0153 59.7106 27.4127 59.5039 26.7692C59.3066 26.1116 59.0906 25.4823 58.856 24.8814C58.6214 24.2804 58.3979 23.763 58.1856 23.329C57.9708 22.8833 57.7818 22.5915 57.6185 22.4537L58.2767 22.1705C57.9834 22.6478 57.6811 23.2005 57.3699 23.8286C57.0704 24.4543 56.803 25.1162 56.5676 25.8144C56.3921 26.3286 56.2294 26.8156 56.0795 27.2756C55.9296 27.7355 55.7948 28.18 55.6753 28.6091C55.5651 29.024 55.4573 29.4507 55.3519 29.8892L53.751 30.1469ZM62.0799 31.9345C61.8449 31.9831 61.6457 31.9385 61.4824 31.8007C61.3191 31.663 61.2403 31.4893 61.246 31.2798C61.2403 31.134 61.2729 30.9066 61.3438 30.5979C61.4172 30.3008 61.4879 29.9615 61.5559 29.5798C61.624 29.1981 61.6544 28.8119 61.6471 28.4213L62.4677 29.1889C62.2983 29.1995 62.0349 29.2295 61.6775 29.2789C61.3319 29.3259 60.8946 29.4041 60.3658 29.5135C59.743 29.6424 59.1038 29.7808 58.4482 29.9287C57.8043 30.0741 57.1675 30.2243 56.5378 30.3791C55.9199 30.5314 55.3337 30.6895 54.7794 30.8532C54.2251 31.0169 53.7202 31.1826 53.2647 31.3504L53.8245 30.5912C53.8326 30.7488 53.848 30.9417 53.8707 31.1698C53.8934 31.398 53.922 31.6249 53.9564 31.8506C53.9933 32.0881 54.0241 32.2961 54.0488 32.4748C54.0853 32.6511 54.1108 32.7745 54.1254 32.845C54.155 33.0472 54.1161 33.2145 54.0087 33.347C53.9037 33.4913 53.7514 33.5841 53.5516 33.6254C53.2696 33.6838 53.0526 33.6123 52.9006 33.4109C52.7487 33.2095 52.6411 32.956 52.5779 32.6505C52.5272 32.4649 52.4833 32.2228 52.446 31.9242C52.4087 31.6255 52.3907 31.3903 52.3919 31.2185C52.4 31.0207 52.4365 30.8416 52.5013 30.6812C52.5519 30.5114 52.6486 30.3566 52.7912 30.2168C52.9339 30.077 53.1296 29.9568 53.3784 29.8564C53.6624 29.7486 54.0476 29.626 54.5338 29.4886C55.0294 29.3371 55.5862 29.1851 56.2041 29.0328C56.8314 28.8662 57.4787 28.7078 58.1461 28.5574C58.811 28.3954 59.449 28.2511 60.0601 28.1247C60.3656 28.0615 60.7017 27.998 61.0685 27.9344C61.4327 27.859 61.7901 27.8096 62.1406 27.7861C62.4887 27.7509 62.7398 27.8092 62.8937 27.9612C63.0595 28.1107 63.146 28.3807 63.1533 28.7714C63.1553 29.0773 63.1316 29.4069 63.0822 29.7603C63.0327 30.1136 62.9549 30.4483 62.8488 30.7644C62.7568 31.0898 62.6409 31.3589 62.5011 31.5716C62.373 31.7819 62.2326 31.9028 62.0799 31.9345ZM65.8007 28.7015C65.5186 28.7599 65.2757 28.6815 65.0719 28.4663C64.8681 28.2512 64.7035 27.9298 64.5783 27.5023C64.4624 27.0606 64.4013 26.528 64.3948 25.9044C64.4069 25.2524 64.4683 24.7495 64.5789 24.3958C64.6989 24.0278 64.8642 23.7608 65.0749 23.5947C65.1896 23.4974 65.3632 23.4186 65.5958 23.3582C65.826 23.2861 66.0703 23.2233 66.3288 23.1698C67.1867 22.9923 68.0242 22.7761 68.8415 22.5213C69.6682 22.2522 70.4602 21.9045 71.2175 21.4782L71.7864 22.6288C71.224 22.9903 70.6024 23.3027 69.9216 23.5661C69.2409 23.8295 68.5411 24.06 67.8222 24.2578C67.1127 24.4414 66.4172 24.6036 65.7356 24.7447L64.6804 24.7975C64.6898 24.0726 64.6977 23.3112 64.7041 22.5134C64.7106 21.7155 64.7106 21.0048 64.7041 20.3811C64.6928 20.0894 64.7394 19.8408 64.8439 19.6353C64.9485 19.4299 65.0889 19.309 65.2651 19.2725C65.5589 19.2117 65.8006 19.2842 65.9903 19.4901C66.1775 19.6842 66.2693 20.0389 66.2656 20.5544C66.2721 20.8226 66.266 21.1486 66.2474 21.5323C66.2287 21.9161 66.2079 22.3187 66.1848 22.7401C66.1734 23.1591 66.1584 23.5604 66.1398 23.9442C66.1305 24.3137 66.1266 24.6209 66.1283 24.8656C66.1283 25.5764 66.1489 26.2093 66.1903 26.7644C66.2409 27.3054 66.2707 27.7159 66.2796 27.9959C66.2784 28.1677 66.23 28.3186 66.1343 28.4487C66.0529 28.5881 65.9417 28.6724 65.8007 28.7015ZM71.8819 27.4433C71.5881 27.5041 71.3413 27.3775 71.1415 27.0635C70.9535 26.747 70.8046 26.2938 70.6948 25.7038C70.5943 25.0996 70.5404 24.4245 70.5331 23.6785C70.5347 22.5018 70.5556 21.5662 70.5957 20.8716C70.6451 20.1629 70.7061 19.5989 70.7787 19.1795C70.8192 18.9015 70.8893 18.648 70.989 18.4191C71.0886 18.1901 71.2384 18.055 71.4381 18.0137C71.6967 17.9602 71.9043 18.0459 72.0611 18.2708C72.2273 18.4815 72.3103 18.7645 72.3103 19.1199C72.3156 19.56 72.2812 20.045 72.207 20.575C72.1446 21.1026 72.1201 21.6652 72.1335 22.2629C72.1383 22.9972 72.171 23.6583 72.2313 24.2462C72.301 24.82 72.3701 25.302 72.4386 25.6922C72.5071 26.0824 72.5373 26.3764 72.5292 26.5742C72.5377 26.793 72.4789 26.9828 72.3529 27.1437C72.2269 27.3046 72.0699 27.4044 71.8819 27.4433ZM77.9237 26.2117C77.3714 26.3259 76.8911 26.2844 76.4826 26.0871C76.0742 25.8897 75.7567 25.5694 75.5302 25.1261C75.3012 24.6711 75.1799 24.1141 75.1661 23.4552C75.1559 22.6363 75.1472 21.8538 75.1399 21.1078C75.1302 20.3501 75.1189 19.703 75.1059 19.1665C75.1047 18.6275 75.1047 18.2722 75.1059 18.1004C75.1002 17.9545 75.1205 17.8155 75.1667 17.6834C75.2246 17.5489 75.305 17.4342 75.408 17.3394C75.5109 17.2445 75.627 17.1838 75.7562 17.157C76.0265 17.1011 76.2543 17.1949 76.4394 17.4384C76.6364 17.6795 76.7419 17.9824 76.7561 18.3471C76.7537 18.6907 76.7352 19.1051 76.7008 19.5901C76.6781 20.0727 76.6741 20.527 76.6886 20.9528C76.6826 21.1011 76.6745 21.2989 76.6643 21.5461C76.6635 21.7791 76.6581 22.0191 76.6479 22.2663C76.6471 22.4993 76.6461 22.7017 76.6449 22.8735C76.6445 23.5231 76.7454 24.0108 76.9476 24.3365C77.1498 24.6623 77.4507 24.7839 77.8502 24.7012C78.0735 24.655 78.3081 24.5452 78.554 24.3718C78.8118 24.1959 79.0504 23.9873 79.2701 23.7457C79.4872 23.4925 79.6609 23.236 79.791 22.9762C79.921 22.7165 79.9654 22.4868 79.9241 22.287C79.8726 21.979 79.7393 21.7493 79.5241 21.5977C79.3207 21.4437 79.0482 21.3408 78.7066 21.289C78.5133 21.2432 78.2684 21.2142 77.9717 21.202C77.6751 21.1899 77.3621 21.1872 77.0327 21.1941C76.7008 21.1893 76.3856 21.2055 76.0869 21.2428L76.1495 20.035C76.558 19.877 77.0132 19.6786 77.5153 19.44C78.0291 19.1989 78.5557 18.9306 79.095 18.6352C79.6343 18.3398 80.1489 18.0434 80.6388 17.746C81.1944 17.4105 81.6782 17.0837 82.0903 16.7656C82.5142 16.445 82.8748 16.1744 83.1722 15.9535C83.479 15.7185 83.7381 15.5791 83.9496 15.5353C84.3139 15.46 84.6156 15.5262 84.8547 15.7341C85.103 15.9278 85.2274 16.2329 85.2279 16.6495C85.2234 17.0425 85.2177 17.4297 85.2108 17.811C85.2133 18.1781 85.2123 18.5582 85.2078 18.9513C85.2123 19.269 85.2218 19.6407 85.2364 20.0666C85.2485 20.4807 85.269 20.9054 85.2978 21.3406C85.3265 21.7758 85.3656 22.1721 85.4151 22.5295C85.4637 22.7645 85.5113 23.0242 85.5579 23.3087C85.6138 23.579 85.6434 23.7812 85.6467 23.9153C85.6499 24.0494 85.6213 24.1779 85.561 24.3007C85.5099 24.4093 85.4305 24.4992 85.3227 24.5705C85.2291 24.6512 85.1177 24.7049 84.9884 24.7316C84.7416 24.7827 84.5293 24.7041 84.3514 24.4958C84.1828 24.2733 84.0574 23.9929 83.9752 23.6546C83.8536 23.067 83.7673 22.4722 83.7162 21.87C83.6627 21.2561 83.6315 20.6315 83.6226 19.9961C83.6279 19.7254 83.6271 19.4254 83.6202 19.0959C83.625 18.7641 83.6311 18.4381 83.6384 18.118C83.6457 17.7978 83.6485 17.5154 83.6469 17.2707C83.6546 17.0117 83.6593 16.827 83.6609 16.7163L84.09 17.0136C83.8514 17.2222 83.5341 17.4656 83.1382 17.7435C82.7516 18.0073 82.3075 18.2892 81.8059 18.589C81.3018 18.8771 80.7742 19.1701 80.2231 19.4679C79.672 19.7658 79.1126 20.0531 78.5449 20.3298C77.9865 20.5924 77.4456 20.8207 76.922 21.0148L76.967 20.3438C77.0586 20.3126 77.1972 20.2717 77.3828 20.221C77.5777 20.1562 77.8044 20.097 78.0629 20.0435C78.2039 20.0144 78.4027 19.9977 78.6592 19.9937C78.9274 19.9872 79.2076 20.0089 79.4998 20.0587C79.8037 20.1061 80.0985 20.1983 80.3842 20.3353C80.6792 20.4581 80.9251 20.64 81.1221 20.8811C81.3307 21.1198 81.4669 21.4225 81.5305 21.7892C81.6018 22.2523 81.5344 22.7258 81.3281 23.2096C81.1336 23.691 80.853 24.1412 80.4863 24.5602C80.1196 24.9792 79.7101 25.3396 79.2579 25.6415C78.8033 25.9317 78.3585 26.1217 77.9237 26.2117ZM88.9803 23.9057C88.6983 23.964 88.4527 23.8433 88.2436 23.5434C88.0345 23.2436 87.9265 22.7512 87.9196 22.0664C87.9128 21.737 87.9247 21.2321 87.9555 20.5518C87.9839 19.8597 88.0906 19.1023 88.2758 18.2797C88.4906 17.304 88.7031 16.5248 88.9134 15.9421C89.1213 15.3476 89.3537 14.9013 89.6106 14.603C89.8675 14.3048 90.1546 14.1229 90.4718 14.0572C90.7186 14.0062 90.9273 14.0672 91.0979 14.2402C91.2802 14.4108 91.43 14.631 91.5471 14.9009C91.6642 15.1707 91.7695 15.443 91.8631 15.7178C91.9879 16.0841 92.133 16.4891 92.2983 16.9328C92.4754 17.3741 92.6596 17.82 92.8508 18.2706C93.0539 18.7188 93.2638 19.141 93.4806 19.5373C93.7091 19.9312 93.9419 20.2567 94.1789 20.5141L93.5736 20.7864C93.7757 20.046 94.0014 19.3009 94.2507 18.5508C94.4999 17.8008 94.7551 17.0801 95.0165 16.3888C95.2779 15.6975 95.5291 15.0757 95.7702 14.5234C96.0417 13.9403 96.2848 13.5163 96.4996 13.2512C96.7261 12.9838 96.9451 12.8282 97.1571 12.7844C97.3091 12.7528 97.4581 12.7589 97.6011 12.8027C97.7431 12.8347 97.8691 12.8821 97.9801 12.9449C98.1361 13.0474 98.2691 13.1854 98.3781 13.3588C98.4881 13.5323 98.5581 13.8118 98.5891 14.1976C98.6581 15.0656 98.7451 15.844 98.8511 16.5328C98.9661 17.2075 99.0771 17.7728 99.1841 18.2286C99.3631 19.037 99.5561 19.6712 99.7611 20.1311C99.9781 20.5886 100.084 20.8915 100.078 21.0398C100.086 21.1974 100.029 21.3378 99.9081 21.461C99.8001 21.5935 99.6521 21.6792 99.4641 21.7181C99.1821 21.7765 98.9191 21.69 98.6751 21.4586C98.4431 21.2248 98.2561 20.8836 98.1141 20.435C97.9801 20.0217 97.8341 19.4943 97.6771 18.8529C97.5311 18.209 97.3991 17.4827 97.2811 16.6739C97.1721 15.8509 97.0941 14.9971 97.0451 14.1125L97.5311 13.8834C97.3341 14.353 97.1141 14.8887 96.8709 15.4904C96.6371 16.078 96.3964 16.6915 96.1489 17.3309C95.913 17.9679 95.6877 18.5966 95.473 19.217C95.27 19.8349 95.0961 20.4162 94.9515 20.9608C94.8684 21.2108 94.7521 21.4187 94.6026 21.5844C94.4648 21.7477 94.2843 21.8525 94.061 21.8987C93.779 21.957 93.5306 21.941 93.3158 21.8506C93.1104 21.7461 92.9187 21.5897 92.7408 21.3814C92.5723 21.159 92.4106 20.9106 92.2558 20.6362C92.1748 20.4814 92.0627 20.2657 91.9197 19.9889C91.7742 19.7004 91.6214 19.3766 91.4614 19.0176C91.3013 18.6586 91.1423 18.2749 90.9842 17.8664C90.8262 17.458 90.6811 17.053 90.549 16.6514C90.4145 16.2381 90.3096 15.8493 90.2342 15.485L90.7338 15.2346C90.4534 15.893 90.2176 16.53 90.0263 17.1455C89.8468 17.7586 89.7121 18.3808 89.6221 19.0122C89.5415 19.6293 89.5 20.2874 89.4975 20.9863C89.4983 21.4641 89.5105 21.8782 89.534 22.2287C89.5693 22.5768 89.5875 22.8426 89.5887 23.0262C89.583 23.2357 89.536 23.4231 89.4477 23.5884C89.3594 23.7537 89.2036 23.8595 88.9803 23.9057ZM7.89992 57.0201C7.61782 57.0784 7.37492 57 7.17112 56.7848C6.96732 56.5697 6.80277 56.2483 6.67756 55.8208C6.56167 55.3792 6.50048 54.8465 6.49399 54.2229C6.50615 53.5709 6.56753 53.068 6.67816 52.7143C6.7981 52.3464 6.96342 52.0793 7.17412 51.9132C7.28882 51.8159 7.46242 51.7371 7.69502 51.6767C7.92522 51.6046 8.16952 51.5418 8.42802 51.4883C9.28592 51.3108 10.1234 51.0947 10.9408 50.8398C11.7674 50.5707 12.5594 50.223 13.3167 49.7968L13.8856 50.9474C13.3232 51.3088 12.7016 51.6212 12.0208 51.8846C11.3401 52.148 10.6403 52.3786 9.92142 52.5763C9.21192 52.7599 8.51642 52.9222 7.83482 53.0632L6.77966 53.1161C6.78898 52.3911 6.79688 51.6297 6.80336 50.8319C6.80984 50.034 6.80984 49.3233 6.80335 48.6997C6.79201 48.4079 6.83861 48.1593 6.94312 47.9539C7.04772 47.7484 7.18812 47.6275 7.36432 47.591C7.65812 47.5302 7.89982 47.6028 8.08952 47.8086C8.27672 48.0027 8.36852 48.3575 8.36482 48.8729C8.37132 49.1411 8.36522 49.4671 8.34662 49.8509C8.32792 50.2346 8.30712 50.6372 8.28402 51.0586C8.27262 51.4776 8.25762 51.8789 8.23902 52.2627C8.22972 52.6322 8.22582 52.9394 8.22752 53.1841C8.22752 53.8949 8.24812 54.5278 8.28952 55.083C8.34012 55.6239 8.36992 56.0344 8.37882 56.3144C8.37762 56.4862 8.32922 56.6371 8.23362 56.7672C8.15212 56.9066 8.04092 56.9909 7.89992 57.0201ZM13.9811 55.7619C13.6873 55.8227 13.4405 55.696 13.2407 55.382C13.0527 55.0655 12.9038 54.6123 12.794 54.0223C12.6935 53.4181 12.6396 52.743 12.6323 51.9971C12.6339 50.8203 12.6548 49.8847 12.6949 49.1902C12.7443 48.4814 12.8053 47.9174 12.8779 47.498C12.9184 47.22 12.9885 46.9666 13.0882 46.7376C13.1878 46.5087 13.3376 46.3735 13.5373 46.3322C13.7959 46.2787 14.0035 46.3644 14.1603 46.5893C14.3265 46.8 14.4095 47.0831 14.4096 47.4384C14.4148 47.8785 14.3804 48.3635 14.3062 48.8935C14.2438 49.4211 14.2193 49.9838 14.2327 50.5814C14.2375 51.3157 14.2702 51.9768 14.3305 52.5648C14.4002 53.1385 14.4693 53.6205 14.5378 54.0107C14.6063 54.401 14.6365 54.6949 14.6284 54.8927C14.6369 55.1115 14.5781 55.3013 14.4521 55.4622C14.3261 55.6231 14.1691 55.723 13.9811 55.7619ZM19.316 54.6397C18.7754 54.7515 18.308 54.7135 17.9137 54.5254C17.5312 54.335 17.2279 54.024 17.0038 53.5924C16.7915 53.1585 16.6821 52.6297 16.6756 52.006C16.6647 51.4201 16.7418 50.8159 16.9072 50.1935C17.0818 49.5569 17.3284 48.9422 17.6469 48.3494C17.9629 47.7448 18.3335 47.1964 18.7586 46.704C19.193 46.1975 19.6691 45.7743 20.1869 45.4343C20.7165 45.0919 21.2693 44.8611 21.8451 44.742C22.1153 44.6861 22.3414 44.7128 22.5234 44.8222C22.7053 44.9316 22.7961 45.1334 22.7957 45.4276C22.8014 45.5735 22.7623 45.7103 22.6784 45.8379C22.5921 45.9538 22.4515 46.0441 22.2566 46.109C21.4583 46.3967 20.7552 46.8485 20.1474 47.4644C19.5514 48.0779 19.0876 48.7682 18.7561 49.5353C18.434 50.2881 18.2719 51.0447 18.2699 51.8048C18.2699 52.1602 18.2991 52.4789 18.3574 52.7609C18.4133 53.0312 18.545 53.3716 18.7525 53.7821L17.8311 52.7044C18.0985 52.9309 18.323 53.0683 18.5045 53.1165C18.6978 53.1623 18.9531 53.1524 19.2704 53.0867C20.0224 52.9311 20.6866 52.2913 21.2628 51.1672C21.839 50.0432 22.2653 48.4906 22.5416 46.5095C22.5777 46.2692 22.6541 46.0758 22.7708 45.9291C22.8968 45.7682 23.0597 45.6671 23.2594 45.6258C23.5297 45.5698 23.7597 45.6448 23.9493 45.8507C24.1483 46.0423 24.2725 46.3168 24.3219 46.6742C24.4281 47.4243 24.5432 48.099 24.6672 48.6983C24.8005 49.2834 24.9794 49.8223 25.2039 50.3151C25.4401 50.8054 25.774 51.2939 26.2056 51.7805C26.3004 51.8834 26.3577 52.0125 26.3776 52.1677C26.4092 52.3205 26.3984 52.4758 26.3454 52.6339C26.304 52.7895 26.2285 52.9277 26.1186 53.0484C26.0181 53.155 25.8856 53.2253 25.7211 53.2593C25.5449 53.2958 25.3966 53.2897 25.2762 53.2411C25.1676 53.19 25.0647 53.1072 24.9674 52.9925C24.7397 52.721 24.526 52.4282 24.3262 52.1142C24.1264 51.8002 23.9404 51.4343 23.7682 51.0165C23.6053 50.5845 23.4677 50.0677 23.3555 49.4659C23.2432 48.8642 23.1549 48.1411 23.0905 47.2967L23.7214 47.1477C23.5767 48.4031 23.3533 49.4848 23.051 50.3929C22.7463 51.2892 22.3864 52.0376 21.9715 52.6381C21.5659 53.2245 21.1335 53.6816 20.6744 54.0094C20.2153 54.3372 19.7625 54.5473 19.316 54.6397ZM29.1168 52.6119C28.8348 52.6703 28.5965 52.5848 28.402 52.3554C28.2193 52.1236 28.0981 51.7749 28.0385 51.3094C28.009 51.1072 27.9871 50.8237 27.9729 50.459C27.9587 50.0943 27.9478 49.6861 27.9401 49.2343C27.9299 48.7707 27.9198 48.3071 27.9097 47.8436C27.9113 47.3776 27.9084 46.9493 27.9012 46.5587C27.9056 46.1656 27.9082 45.8526 27.9091 45.6196C27.9001 44.9842 27.9664 44.5049 28.1078 44.1815C28.2585 43.8439 28.5276 43.6045 28.915 43.463C29.2789 43.3265 29.6699 43.2027 30.0881 43.0917C30.5156 42.9665 30.9408 42.8601 31.3639 42.7726C31.8339 42.6753 32.3206 42.5991 32.8238 42.544C33.3247 42.4772 33.7082 42.4652 33.9744 42.5082C34.1276 42.5377 34.2457 42.6052 34.3288 42.7106C34.4094 42.8042 34.4514 42.918 34.4546 43.0521C34.4562 43.2969 34.3446 43.4977 34.1197 43.6545C33.8948 43.8113 33.6414 43.9189 33.3593 43.9772C33.1126 44.0283 32.8869 44.0627 32.6822 44.0806C32.4776 44.0984 32.2566 44.1258 32.0191 44.1626C31.7792 44.1878 31.4654 44.2404 31.0776 44.3207C30.6076 44.4179 30.2129 44.5241 29.8936 44.6392C29.5743 44.7543 29.2187 44.9013 28.8269 45.0804L29.5739 44.3377C29.5183 44.8393 29.4738 45.3939 29.4401 46.0013C29.4183 46.6063 29.4114 47.3429 29.4195 48.2113C29.4211 48.8114 29.4402 49.3773 29.4766 49.9089C29.5107 50.4288 29.5465 50.8687 29.5842 51.2285C29.6219 51.5883 29.6399 51.8236 29.6383 51.9342C29.642 52.1295 29.5935 52.2804 29.493 52.387C29.395 52.5053 29.2696 52.5803 29.1168 52.6119ZM39.8252 50.3044C39.2612 50.4211 38.7518 50.4469 38.2972 50.3816C37.8425 50.3164 37.478 50.1835 37.2037 49.9829C36.9294 49.7823 36.7878 49.542 36.7788 49.262C36.7849 49.1137 36.824 48.977 36.8962 48.8518C36.9683 48.7265 37.0807 48.6481 37.2335 48.6165C37.351 48.5922 37.4628 48.5997 37.569 48.639C37.6752 48.6783 37.8014 48.7257 37.9477 48.7812C38.094 48.8368 38.2978 48.8742 38.5591 48.8937C38.8181 48.9014 39.1591 48.8615 39.5821 48.774C40.2402 48.6378 40.7773 48.3612 41.1934 47.9443C41.6189 47.5131 41.8207 46.8893 41.7988 46.0728C41.802 45.4962 41.7046 44.9956 41.5064 44.5709C41.3176 44.132 41.054 43.7761 40.7157 43.503C40.3749 43.2181 39.9747 43.0313 39.5152 42.9426C39.0557 42.8538 38.5557 42.8654 38.0151 42.9772C37.7449 43.0331 37.4748 43.1196 37.2049 43.2367C36.935 43.3539 36.6943 43.4343 36.4828 43.4781C36.3536 43.5048 36.23 43.4997 36.1121 43.4629C35.9917 43.4142 35.9018 43.3348 35.8422 43.2246C35.7826 43.1144 35.7524 42.9981 35.7516 42.8757C35.7565 42.5438 35.9182 42.2592 36.2367 42.0217C36.5645 41.7701 37.0985 41.5677 37.8389 41.4145C38.6262 41.2516 39.3533 41.2421 40.0203 41.3859C40.699 41.5274 41.2892 41.8035 41.7909 42.2144C42.2901 42.6135 42.6807 43.1393 42.9628 43.7917C43.2541 44.4299 43.4026 45.1773 43.4083 46.0339C43.4144 46.5963 43.326 47.117 43.1433 47.596C42.9723 48.0725 42.7292 48.4966 42.4139 48.8682C42.0962 49.228 41.7182 49.5329 41.2797 49.7829C40.8389 50.0212 40.354 50.195 39.8252 50.3044ZM36.6166 55.6739C36.4756 55.7031 36.3449 55.6933 36.2245 55.6447C36.1184 55.6054 36.0343 55.5248 35.9723 55.4028C35.9103 55.2808 35.8787 55.1281 35.8775 54.9445C35.8763 54.761 35.9068 54.5831 35.9693 54.4109C36.0223 54.2528 36.0799 54.0571 36.1419 53.8237C36.2063 53.6021 36.2644 53.3204 36.3163 52.9788C36.3682 52.6372 36.3935 52.197 36.3923 51.6581C36.3911 50.7637 36.3076 49.8865 36.1419 49.0262C35.9761 48.1659 35.8021 47.2951 35.6197 46.4138C35.4467 45.5183 35.3501 44.607 35.3298 43.6799C35.3278 43.3739 35.3827 43.1359 35.4945 42.9657C35.6157 42.7813 35.782 42.6672 35.9935 42.6235C36.1815 42.5846 36.3477 42.6176 36.4919 42.7225C36.6455 42.8133 36.7677 42.9596 36.8585 43.1614C36.9468 43.3514 36.9871 43.5759 36.9794 43.8348C36.9843 44.5691 37.0347 45.2571 37.1308 45.899C37.2361 46.5267 37.3508 47.1401 37.4748 47.7395C37.6105 48.3363 37.7287 48.9369 37.8292 49.541C37.9296 50.1452 37.9809 50.7779 37.9829 51.4392C37.9963 52.0369 37.9752 52.5866 37.9197 53.0882C37.8642 53.5899 37.7765 54.0247 37.6565 54.3926C37.5484 54.7581 37.4067 55.0509 37.2317 55.2709C37.0684 55.4885 36.8634 55.6228 36.6166 55.6739ZM47.9593 48.7134C47.4188 48.8252 46.9513 48.7872 46.5571 48.5991C46.1746 48.4087 45.8713 48.0977 45.6472 47.6661C45.4348 47.2322 45.3254 46.7034 45.3189 46.0797C45.308 45.4938 45.3852 44.8896 45.5505 44.2672C45.7252 43.6306 45.9717 43.0159 46.2902 42.4231C46.6063 41.8185 46.9769 41.2701 47.4019 40.7777C47.8363 40.2712 48.3124 39.848 48.8303 39.508C49.3599 39.1656 49.9126 38.9348 50.4884 38.8157C50.7587 38.7598 50.9848 38.7865 51.1667 38.8959C51.3487 39.0053 51.4394 39.2071 51.439 39.5013C51.4447 39.6472 51.4056 39.784 51.3217 39.9116C51.2354 40.0275 51.0948 40.1178 50.8999 40.1827C50.1016 40.4704 49.3986 40.9222 48.7908 41.5381C48.1947 42.1516 47.731 42.8419 47.3995 43.609C47.0774 44.3618 46.9153 45.1184 46.9132 45.8785C46.9132 46.2339 46.9424 46.5526 47.0008 46.8346C47.0567 47.1049 47.1884 47.4453 47.3959 47.8558L46.4744 46.7781C46.7418 47.0046 46.9663 47.142 47.1479 47.1902C47.3412 47.236 47.5964 47.2261 47.9137 47.1604C48.6658 47.0048 49.3299 46.365 49.9061 45.2409C50.4823 44.1169 50.9086 42.5643 51.185 40.5832C51.221 40.3429 51.2974 40.1495 51.4141 40.0028C51.5401 39.8419 51.703 39.7408 51.9028 39.6995C52.1731 39.6435 52.403 39.7185 52.5927 39.9244C52.7916 40.116 52.9158 40.3906 52.9653 40.7479C53.0714 41.498 53.1865 42.1727 53.3105 42.772C53.4438 43.3571 53.6227 43.896 53.8472 44.3888C54.0835 44.8791 54.4174 45.3676 54.8489 45.8542C54.9437 45.9571 55.0011 46.0862 55.0209 46.2414C55.0525 46.3942 55.0418 46.5496 54.9887 46.7076C54.9474 46.8632 54.8718 47.0014 54.762 47.1221C54.6615 47.2287 54.529 47.299 54.3645 47.333C54.1882 47.3695 54.0399 47.3634 53.9196 47.3148C53.811 47.2637 53.708 47.1809 53.6108 47.0662C53.3831 46.7947 53.1693 46.5019 52.9695 46.1879C52.7698 45.8739 52.5838 45.508 52.4116 45.0902C52.2487 44.6582 52.1111 44.1414 51.9988 43.5397C51.8866 42.9379 51.7983 42.2148 51.7338 41.3704L52.3647 41.2214C52.2201 42.4768 51.9966 43.5585 51.6943 44.4666C51.3896 45.3629 51.0298 46.1113 50.6149 46.7119C50.2092 47.2982 49.7769 47.7553 49.3178 48.0831C48.8587 48.4109 48.4059 48.621 47.9593 48.7134ZM57.0099 45.8115C57.0897 45.4273 57.2022 44.9936 57.3472 44.5101C57.4899 44.015 57.6465 43.4985 57.8171 42.9608C57.9994 42.4207 58.1842 41.8923 58.3714 41.3756C58.5679 40.8448 58.7566 40.3646 58.9373 39.9351C59.1784 39.3828 59.4256 38.8599 59.6788 38.3663C59.9321 37.8728 60.1847 37.4651 60.4368 37.1434C60.6981 36.8075 60.9404 36.6164 61.1637 36.5702C61.3987 36.5216 61.625 36.5789 61.8426 36.7422C62.072 36.9031 62.3046 37.1981 62.5404 37.6272C62.7025 37.9368 62.8887 38.3333 63.099 38.8167C63.3093 39.3001 63.5235 39.8318 63.7415 40.4116C63.957 40.9797 64.1562 41.5574 64.339 42.1445C64.5217 42.7317 64.6712 43.2767 64.7875 43.7795L63.2656 44.2415C63.1371 43.6799 62.9695 43.0773 62.7629 42.4338C62.5655 41.7762 62.3496 41.1469 62.1149 40.546C61.8803 39.945 61.6569 39.4276 61.4445 38.9936C61.2298 38.5479 61.0407 38.2561 60.8774 38.1183L61.5357 37.8351C61.2423 38.3124 60.94 38.8651 60.6288 39.4932C60.3294 40.1189 60.0619 40.7808 59.8265 41.479C59.6511 41.9932 59.4884 42.4802 59.3384 42.9402C59.1885 43.4001 59.0538 43.8446 58.9343 44.2737C58.824 44.6886 58.7163 45.1153 58.6109 45.5538L57.0099 45.8115ZM65.3388 47.5991C65.1038 47.6477 64.9046 47.6031 64.7413 47.4653C64.578 47.3276 64.4992 47.1539 64.5049 46.9444C64.4992 46.7986 64.5318 46.5712 64.6028 46.2625C64.6761 45.9654 64.7468 45.6261 64.8149 45.2444C64.883 44.8627 64.9133 44.4765 64.9061 44.0859L65.7266 44.8535C65.5572 44.8641 65.2938 44.8941 64.9364 44.9435C64.5908 44.9905 64.1536 45.0687 63.6248 45.1781C63.002 45.307 62.3627 45.4454 61.7071 45.5933C61.0632 45.7387 60.4264 45.8889 59.7968 46.0437C59.1788 46.196 58.5927 46.3541 58.0383 46.5178C57.484 46.6815 56.9791 46.8472 56.5237 47.015L57.0835 46.2558C57.0916 46.4134 57.107 46.6063 57.1297 46.8344C57.1523 47.0626 57.1809 47.2895 57.2154 47.5152C57.2522 47.7526 57.283 47.9607 57.3077 48.1394C57.3442 48.3157 57.3697 48.4391 57.3843 48.5096C57.4139 48.7118 57.375 48.8791 57.2676 49.0116C57.1627 49.1559 57.0103 49.2487 56.8106 49.29C56.5285 49.3484 56.3115 49.2769 56.1596 49.0755C56.0076 48.8741 55.9 48.6206 55.8368 48.3151C55.7862 48.1295 55.7422 47.8874 55.7049 47.5887C55.6677 47.2901 55.6496 47.0549 55.6508 46.8831C55.6589 46.6853 55.6954 46.5062 55.7602 46.3458C55.8109 46.176 55.9075 46.0212 56.0502 45.8814C56.1928 45.7416 56.3885 45.6214 56.6373 45.521C56.9214 45.4132 57.3065 45.2906 57.7928 45.1532C58.2883 45.0017 58.8451 44.8497 59.4631 44.6974C60.0903 44.5308 60.7376 44.3724 61.405 44.222C62.07 44.0599 62.708 43.9157 63.319 43.7893C63.6246 43.726 63.9607 43.6626 64.3274 43.599C64.6917 43.5236 65.0491 43.4742 65.3996 43.4507C65.7477 43.4154 65.9987 43.4738 66.1527 43.6257C66.3184 43.7753 66.4049 44.0453 66.4122 44.436C66.4143 44.7419 66.3905 45.0715 66.3411 45.4249C66.2917 45.7782 66.2139 46.1129 66.1077 46.429C66.0157 46.7544 65.8998 47.0234 65.76 47.2362C65.632 47.4465 65.4916 47.5674 65.3388 47.5991ZM70.0099 44.1511C69.4693 44.263 69.0019 44.2249 68.6076 44.0369C68.2251 43.8464 67.9218 43.5354 67.6977 43.1039C67.4854 42.6699 67.376 42.1411 67.3695 41.5175C67.3586 40.9316 67.4358 40.3274 67.6011 39.705C67.7757 39.0684 68.0223 38.4537 68.3408 37.8609C68.6568 37.2563 69.0274 36.7078 69.4525 36.2155C69.8869 35.709 70.363 35.2857 70.8808 34.9458C71.4105 34.6034 71.9632 34.3726 72.539 34.2535C72.8092 34.1975 73.0353 34.2243 73.2173 34.3337C73.3992 34.4431 73.49 34.6449 73.4896 34.9391C73.4953 35.0849 73.4562 35.2217 73.3723 35.3493C73.286 35.4652 73.1454 35.5556 72.9505 35.6204C72.1522 35.9081 71.4492 36.3599 70.8413 36.9759C70.2453 37.5894 69.7815 38.2796 69.4501 39.0467C69.1279 39.7996 68.9658 40.5561 68.9638 41.3163C68.9638 41.6717 68.993 41.9904 69.0513 42.2724C69.1073 42.5427 69.2389 42.883 69.4464 43.2935L68.525 42.2159C68.7924 42.4424 69.0169 42.5797 69.1984 42.628C69.3917 42.6737 69.647 42.6638 69.9643 42.5982C70.7163 42.4426 71.3805 41.8027 71.9567 40.6787C72.5329 39.5546 72.9592 38.0021 73.2355 36.021C73.2716 35.7807 73.348 35.5872 73.4647 35.4405C73.5907 35.2796 73.7536 35.1785 73.9534 35.1372C74.2236 35.0813 74.4536 35.1563 74.6432 35.3621C74.8422 35.5538 74.9664 35.8283 75.0158 36.1857C75.122 36.9357 75.2371 37.6104 75.3611 38.2097C75.4944 38.7948 75.6733 39.3338 75.8978 39.8265C76.134 40.3168 76.4679 40.8053 76.8995 41.292C76.9943 41.3949 77.0516 41.5239 77.0715 41.6791C77.1031 41.8319 77.0923 41.9873 77.0393 42.1453C76.9979 42.3009 76.9224 42.4391 76.8125 42.5599C76.7121 42.6664 76.5796 42.7367 76.415 42.7708C76.2388 42.8072 76.0905 42.8012 75.9701 42.7525C75.8615 42.7015 75.7586 42.6186 75.6613 42.5039C75.4336 42.2325 75.2199 41.9397 75.0201 41.6257C74.8203 41.3116 74.6343 40.9457 74.4621 40.5279C74.2992 40.096 74.1616 39.5791 74.0494 38.9774C73.9372 38.3757 73.8488 37.6526 73.7844 36.8081L74.4153 36.6592C74.2706 37.9145 74.0472 38.9962 73.7449 39.9043C73.4402 40.8006 73.0803 41.5491 72.6654 42.1496C72.2598 42.7359 71.8274 43.193 71.3683 43.5208C70.9092 43.8487 70.4564 44.0588 70.0099 44.1511ZM79.6045 42.1844C79.3225 42.2428 79.0769 42.122 78.8678 41.8221C78.6587 41.5223 78.5507 41.03 78.5438 40.3452C78.5471 40.1239 78.5522 39.8226 78.559 39.4413C78.5659 39.06 78.5925 38.6256 78.6387 38.1382C78.6942 37.6365 78.7813 37.1099 78.9 36.5585C79.1148 35.5827 79.3273 34.8035 79.5376 34.2208C79.7455 33.6263 79.9779 33.18 80.2348 32.8818C80.4917 32.5835 80.7788 32.4016 81.096 32.3359C81.3428 32.2849 81.5515 32.3459 81.7221 32.5189C81.9044 32.6895 82.0542 32.9097 82.1713 33.1796C82.2884 33.4495 82.3937 33.7218 82.4873 33.9965C82.6121 34.3628 82.7572 34.7678 82.9225 35.2115C83.0996 35.6528 83.2838 36.0987 83.4751 36.5493C83.6781 36.9975 83.888 37.4197 84.1048 37.816C84.3333 38.2099 84.5661 38.5355 84.8031 38.7928L84.1978 39.0651C84.4 38.3248 84.6257 37.5796 84.8749 36.8295C85.1241 36.0795 85.3793 35.3588 85.6407 34.6675C85.9021 33.9762 86.1533 33.3544 86.3944 32.8021C86.6659 32.219 86.909 31.795 87.1238 31.53C87.3503 31.2625 87.5693 31.1069 87.7808 31.0632C87.9336 31.0315 88.0819 31.0376 88.2257 31.0814C88.3672 31.1134 88.4934 31.1608 88.6044 31.2236C88.7604 31.3261 88.8931 31.4641 89.0025 31.6375C89.1119 31.811 89.182 32.0906 89.2128 32.4763C89.2821 33.3443 89.3697 34.1227 89.4754 34.8116C89.5905 35.4862 89.7013 36.0515 89.8079 36.5074C89.9874 37.3158 90.1799 37.9499 90.3853 38.4098C90.6025 38.8673 90.7081 39.1702 90.702 39.3185C90.7101 39.4761 90.6534 39.6165 90.5318 39.7397C90.4244 39.8722 90.2767 39.9579 90.0887 39.9968C89.8067 40.0552 89.5437 39.9687 89.2998 39.7373C89.0676 39.5035 88.8806 39.1623 88.7388 38.7137C88.6042 38.3004 88.4583 37.773 88.3011 37.1316C88.1556 36.4877 88.0237 35.7614 87.9054 34.9526C87.7964 34.1296 87.7178 33.2758 87.6696 32.3912L88.1552 32.1621C87.9583 32.6317 87.7383 33.1674 87.4951 33.7692C87.2613 34.3567 87.0206 34.9702 86.7731 35.6096C86.5372 36.2466 86.3119 36.8753 86.0972 37.4957C85.8942 38.1136 85.7203 38.6949 85.5757 39.2395C85.4926 39.4895 85.3763 39.6974 85.2268 39.8631C85.089 40.0264 84.9085 40.1312 84.6852 40.1774C84.4032 40.2357 84.1548 40.2197 83.94 40.1294C83.7346 40.0248 83.5429 39.8684 83.365 39.6601C83.1965 39.4377 83.0348 39.1893 82.88 38.9149C82.799 38.7602 82.6869 38.5444 82.5439 38.2676C82.3984 37.9791 82.2456 37.6554 82.0856 37.2963C81.9255 36.9373 81.7665 36.5536 81.6084 36.1451C81.4504 35.7367 81.3053 35.3317 81.1732 34.9301C81.0387 34.5168 80.9338 34.128 80.8584 33.7637L81.358 33.5133C81.0776 34.1718 80.8418 34.8087 80.6505 35.4243C80.471 36.0373 80.3363 36.6596 80.2463 37.2909C80.1657 37.908 80.1242 38.5661 80.1217 39.2651C80.1225 39.7428 80.1347 40.1569 80.1582 40.5074C80.1935 40.8555 80.2117 41.1213 80.2129 41.3049C80.2072 41.5144 80.1602 41.7018 80.0719 41.8671C79.9836 42.0325 79.8278 42.1382 79.6045 42.1844ZM16.3901 71.492C15.074 71.7643 13.9888 71.9092 13.1346 71.9266C12.2898 71.9299 11.6323 71.8024 11.1623 71.5443C10.6922 71.2862 10.3567 70.9083 10.1557 70.4107C9.96402 69.899 9.86332 69.2642 9.85362 68.5064C9.85522 68.0405 9.86112 67.5062 9.87122 66.9036C9.88142 66.3011 9.90082 65.6844 9.92962 65.0534C9.95592 64.4108 9.98252 63.7987 10.0092 63.2172C10.0359 62.6357 10.0643 62.1213 10.0943 61.674C10.1243 61.2266 10.1551 60.9016 10.1867 60.699C10.2078 60.3271 10.2671 60.0513 10.3648 59.8718C10.4717 59.6781 10.6134 59.563 10.7896 59.5266C10.9894 59.4852 11.1614 59.517 11.3057 59.622C11.4475 59.7152 11.5567 59.858 11.6333 60.0505C11.7074 60.2312 11.7417 60.4263 11.736 60.6358C11.7421 60.8429 11.7279 61.1889 11.6935 61.674C11.6566 62.1473 11.6191 62.7065 11.581 63.3515C11.5547 63.9942 11.5275 64.6922 11.4996 65.4455C11.4809 66.1846 11.4765 66.933 11.4862 67.6908C11.4899 68.5968 11.5541 69.233 11.6789 69.5993C11.8155 69.9632 12.0288 70.1948 12.3189 70.294C12.5689 70.3771 12.8905 70.4209 13.2835 70.4253C13.6742 70.418 14.1199 70.3809 14.6207 70.3141C15.1309 70.233 15.6856 70.1305 16.2849 70.0065C17.5306 69.7488 18.5422 69.515 19.3198 69.3051C20.1067 69.081 20.7147 68.851 21.1438 68.6152C21.5705 68.3676 21.8592 68.0751 22.01 67.7375C22.0983 67.5722 22.1743 67.3175 22.2379 66.9735C22.2991 66.6177 22.3434 66.2103 22.371 65.7512C22.4103 65.2896 22.4271 64.8082 22.4214 64.307C22.419 63.5845 22.3908 62.8857 22.3369 62.2106C22.283 61.5356 22.2225 60.917 22.1552 60.355C22.0879 59.793 22.0318 59.3144 21.9868 58.9193C21.9419 58.5242 21.9165 58.2538 21.9109 58.1079C21.9218 57.9831 21.955 57.8475 22.0105 57.7013C22.0778 57.5525 22.1676 57.4237 22.2798 57.3147C22.392 57.2057 22.5245 57.1354 22.6773 57.1038C22.8771 57.0624 23.061 57.1224 23.2292 57.2837C23.4067 57.4308 23.5187 57.6465 23.5653 57.931C23.6067 58.1308 23.65 58.4588 23.6954 58.9151C23.7384 59.3596 23.7829 59.8712 23.8291 60.4498C23.8871 61.026 23.9298 61.6176 23.9574 62.2246C23.9943 62.8174 24.0168 63.3704 24.0249 63.8834C24.0253 64.2999 24.022 64.6988 24.0151 65.0801C24.0082 65.4614 23.9918 65.8263 23.9659 66.1748C23.9375 66.5116 23.9102 66.8236 23.8839 67.1109C23.8551 67.3864 23.8131 67.6279 23.758 67.8354C23.632 68.3516 23.3737 68.7911 22.9831 69.1537C22.5925 69.5164 22.0886 69.8351 21.4714 70.1098C20.8519 70.3728 20.1109 70.6119 19.2487 70.8271C18.4005 71.0516 17.4477 71.2732 16.3901 71.492ZM16.1512 70.604C16.0483 69.9881 15.9646 69.2579 15.9002 68.4134C15.8451 67.5548 15.8224 66.6159 15.8321 65.5968C15.8382 65.0931 15.8511 64.5635 15.871 64.008C15.8908 63.4524 15.9085 62.9157 15.9239 62.3979C15.9368 61.8683 15.949 61.394 15.9603 60.975C15.981 60.5418 15.9952 60.1957 16.0029 59.9368C16.0013 59.6921 16.0175 59.4743 16.0515 59.2834C16.0831 59.0808 16.1408 58.9157 16.2247 58.788C16.3062 58.6487 16.4233 58.5632 16.576 58.5315C16.7641 58.4926 16.9302 58.5257 17.0745 58.6306C17.2187 58.7356 17.3328 58.9019 17.4167 59.1296C17.4981 59.3456 17.5386 59.6007 17.5382 59.8949C17.5475 60.5914 17.5283 61.4164 17.4805 62.3699C17.4327 63.3234 17.4027 64.3038 17.3905 65.3111C17.3804 66.2691 17.3993 67.1597 17.4471 67.9831C17.5066 68.8041 17.5808 69.5178 17.6695 70.1244L16.1512 70.604ZM33.7227 68.0162C33.3702 68.0891 32.9605 68.0636 32.4937 67.9396C32.0245 67.8039 31.5466 67.5964 31.0599 67.3172C30.585 67.0356 30.1346 66.7244 29.7087 66.3836C29.2946 66.0404 28.9546 65.7002 28.6888 65.3631C28.5324 65.1994 28.4208 65.0448 28.3539 64.8993C28.2964 64.7397 28.2577 64.5822 28.2378 64.427C28.2536 64.3257 28.2787 64.2103 28.3132 64.0806C28.3476 63.9509 28.4021 63.8294 28.4767 63.7159C28.5788 63.4987 28.7674 63.1962 29.0425 62.8084C29.3177 62.4206 29.6408 61.9984 30.012 61.5417C30.3925 61.0709 30.7908 60.627 31.207 60.21C31.6324 59.7789 32.0407 59.4125 32.4317 59.1111C32.8345 58.8072 33.1945 58.6224 33.5118 58.5567C33.6411 58.53 33.747 58.5387 33.8297 58.5829C33.9241 58.6246 33.9987 58.6888 34.0534 58.7756C34.1081 58.8623 34.1393 58.9538 34.147 59.0503C34.1887 59.3112 34.0694 59.5933 33.789 59.8964C33.5086 60.1995 33.201 60.4898 32.8663 60.7674C32.2743 61.282 31.7575 61.7749 31.3158 62.2462C30.8741 62.7175 30.5238 63.1269 30.2649 63.4746C30.0177 63.8198 29.9004 64.0524 29.9129 64.1724C29.9089 64.2712 29.9733 64.405 30.1062 64.5735C30.2391 64.7421 30.431 64.9291 30.6818 65.1345C30.9444 65.3376 31.2493 65.5379 31.5966 65.7357C31.9556 65.931 32.3475 66.1072 32.7721 66.2645C33.0246 66.3593 33.2699 66.4494 33.5082 66.5349C33.7558 66.6063 33.9576 66.6932 34.1136 66.7957C34.2789 66.884 34.3715 67.0058 34.3913 67.161C34.4063 67.2927 34.3895 67.4187 34.3409 67.5391C34.2923 67.6594 34.2094 67.7623 34.0923 67.8478C33.9869 67.9309 33.8638 67.987 33.7227 68.0162ZM27.8494 69.213C27.5439 69.2762 27.3066 69.166 27.1377 68.8823C26.9663 68.587 26.8433 68.1406 26.7687 67.5433C26.7035 66.9319 26.6656 66.1861 26.655 65.306C26.6526 64.9388 26.6583 64.5517 26.6721 64.1444C26.6976 63.7348 26.7231 63.3251 26.7486 62.9154C26.7717 62.494 26.7796 62.088 26.7723 61.6973C26.7764 61.5985 26.7746 61.5008 26.7669 61.4044C26.7685 61.2938 26.7642 61.1844 26.7541 61.0762C26.7525 60.8314 26.777 60.6241 26.8276 60.4544C26.8783 60.2846 26.948 60.1476 27.0367 60.0435C27.1348 59.9252 27.2426 59.8538 27.3601 59.8295C27.6304 59.7736 27.8674 59.8532 28.0712 60.0684C28.2844 60.2694 28.3889 60.597 28.3849 61.0512C28.3869 61.3572 28.3683 61.7409 28.329 62.2024C28.299 62.6498 28.2655 63.1101 28.2287 63.5834C28.1918 64.0567 28.1734 64.471 28.1734 64.8264C28.194 65.4593 28.2248 66.0228 28.2658 66.5167C28.3184 67.0082 28.3717 67.4139 28.4256 67.7336C28.4771 68.0415 28.4973 68.2579 28.4864 68.3827C28.4921 68.5286 28.4647 68.6629 28.4044 68.7857C28.3533 68.8943 28.2797 68.983 28.1837 69.0519C28.1019 69.1301 27.9904 69.1838 27.8494 69.213ZM40.4478 66.6432C39.4842 66.8425 38.6472 66.7951 37.9369 66.5009C37.2383 66.2043 36.6974 65.7219 36.314 65.0537C35.94 64.3714 35.7451 63.5478 35.7293 62.583C35.7224 61.8982 35.8266 61.2762 36.0417 60.717C36.2662 60.1436 36.543 59.6452 36.872 59.2217C37.2128 58.7959 37.5718 58.4581 37.949 58.2085C38.3239 57.9471 38.6582 57.7861 38.9519 57.7253C39.0812 57.6985 39.1906 57.6943 39.2802 57.7125C39.3815 57.7283 39.4641 57.7725 39.5282 57.845C39.6015 57.9034 39.6398 57.9996 39.643 58.1337C39.6329 58.3809 39.5839 58.6178 39.4959 58.8443C39.4056 59.059 39.1999 59.2793 38.879 59.505C38.4973 59.7923 38.1851 60.0897 37.9424 60.3972C37.709 60.6906 37.537 61.0142 37.4263 61.3679C37.3133 61.7099 37.2665 62.1056 37.2859 62.555C37.2948 63.5457 37.5645 64.2865 38.0949 64.7772C38.6229 65.2561 39.31 65.4081 40.156 65.233C40.9786 65.0628 41.6347 64.6207 42.1242 63.9068C42.623 63.1786 42.8643 62.3015 42.8481 61.2755C42.8489 60.3318 42.6442 59.6389 42.2342 59.1968C41.8216 58.743 41.2629 58.589 40.5578 58.7349C40.1935 58.8102 39.8967 58.9452 39.6673 59.1397C39.4497 59.3317 39.2184 59.5757 38.9732 59.8715C38.7982 60.0915 38.6606 60.2854 38.5605 60.4532C38.4604 60.6209 38.366 60.7569 38.2773 60.861C38.1979 60.951 38.0818 61.0117 37.929 61.0434C37.7645 61.0774 37.6243 61.0513 37.5084 60.9649C37.4018 60.8645 37.3465 60.686 37.3424 60.4295C37.3335 60.1495 37.4115 59.8453 37.5765 59.5171C37.7531 59.1865 37.9817 58.8696 38.2621 58.5665C38.5518 58.2492 38.876 57.98 39.2346 57.7587C39.5908 57.5257 39.9569 57.3703 40.3329 57.2925C41.179 57.1175 41.9078 57.175 42.5192 57.4651C43.1282 57.7435 43.5985 58.2099 43.93 58.8643C44.259 59.507 44.4219 60.2943 44.4187 61.2263C44.4365 62.1417 44.2797 62.9829 43.9482 63.7499C43.6143 64.5053 43.1443 65.1356 42.5381 65.6409C41.9436 66.1437 41.2469 66.4778 40.4478 66.6432ZM46.7312 65.3431C46.5666 65.3772 46.4264 65.351 46.3106 65.2647C46.2088 65.1877 46.1292 65.0694 46.0717 64.9098C46.0024 64.7525 45.9718 64.5751 45.9799 64.3773C45.9831 64.1561 46.0364 63.8509 46.1398 63.4619C46.2524 63.0588 46.4035 62.6047 46.5932 62.0998C46.7804 61.5832 46.9793 61.0641 47.19 60.5426C47.4194 59.9927 47.6558 59.4475 47.8994 58.907C48.1522 58.3522 48.3984 57.854 48.6379 57.4123C48.8749 56.9589 49.0761 56.5987 49.2414 56.3316C49.5024 55.9345 49.7639 55.6292 50.0261 55.4157C50.2976 55.1879 50.5861 55.0425 50.8916 54.9792C51.1737 54.9209 51.3882 54.9807 51.5353 55.1585C51.68 55.3247 51.8121 55.5486 51.9316 55.8302C52.0536 56.1236 52.1806 56.471 52.3127 56.8726C52.4448 57.2741 52.5852 57.6862 52.7339 58.1089C52.8802 58.5198 53.0358 58.9165 53.2007 59.299C53.3969 59.7731 53.5725 60.1779 53.7277 60.5134C53.8947 60.8465 54.0448 61.1279 54.1781 61.3577C54.3232 61.585 54.4551 61.7783 54.5738 61.9375C54.6877 62.0733 54.7803 62.195 54.8516 62.3028C54.9229 62.4106 54.9661 62.5303 54.9811 62.662C55.0009 62.8172 54.9843 62.9738 54.9312 63.1319C54.8781 63.2899 54.7943 63.4175 54.6796 63.5148C54.5791 63.6214 54.4525 63.6905 54.2997 63.7221C54.0764 63.7683 53.8548 63.7038 53.6347 63.5288C53.424 63.3395 53.2151 63.0703 53.0081 62.721C52.801 62.3717 52.5996 61.9906 52.4039 61.5777C52.2892 61.3196 52.1387 60.977 51.9523 60.5499C51.7752 60.1086 51.5908 59.6321 51.3992 59.1203C51.2051 58.5968 51.0276 58.0943 50.8667 57.6129C50.7176 57.1291 50.6031 56.7239 50.5233 56.3973L50.905 56.4654C50.6392 56.839 50.361 57.3009 50.0705 57.8512C49.7893 58.3873 49.5014 58.9799 49.2068 59.629C48.9239 60.2758 48.6518 60.9448 48.3905 61.6361C48.1409 62.3249 47.9207 63.0077 47.7298 63.6844C47.5661 64.1962 47.4145 64.589 47.2752 64.863C47.1475 65.1345 46.9662 65.2945 46.7312 65.3431ZM59.2582 62.7513C58.7059 62.8656 58.2255 62.824 57.8171 62.6267C57.4086 62.4294 57.0911 62.109 56.8646 61.6657C56.6357 61.2107 56.5143 60.6537 56.5005 59.9949C56.4904 59.1759 56.4817 58.3935 56.4744 57.6475C56.4647 56.8897 56.4533 56.2426 56.4404 55.7061C56.4391 55.1672 56.4391 54.8118 56.4404 54.64C56.4347 54.4941 56.4549 54.3551 56.5011 54.223C56.5591 54.0885 56.6395 53.9738 56.7424 53.879C56.8454 53.7842 56.9615 53.7234 57.0907 53.6967C57.361 53.6407 57.5887 53.7345 57.7739 53.9781C57.9708 54.2192 58.0764 54.5221 58.0906 54.8868C58.0882 55.2304 58.0697 55.6447 58.0353 56.1297C58.0126 56.6123 58.0085 57.0666 58.0231 57.4925C58.017 57.6408 58.0089 57.8385 57.9988 58.0857C57.998 58.3187 57.9925 58.5588 57.9824 58.806C57.9816 59.039 57.9806 59.2414 57.9794 59.4132C57.979 60.0627 58.0799 60.5504 58.2821 60.8762C58.4843 61.202 58.7851 61.3235 59.1847 61.2409C59.4079 61.1947 59.6426 61.0849 59.8885 60.9114C60.1462 60.7356 60.3849 60.5269 60.6045 60.2854C60.8217 60.0321 60.9954 59.7756 61.1254 59.5159C61.2555 59.2561 61.2999 59.0264 61.2585 58.8266C61.2071 58.5187 61.0738 58.2889 60.8586 58.1374C60.6552 57.9834 60.3827 57.8804 60.0411 57.8286C59.8478 57.7828 59.6028 57.7538 59.3062 57.7417C59.0096 57.7295 58.6966 57.7269 58.3671 57.7338C58.0353 57.7289 57.72 57.7451 57.4214 57.7824L57.484 56.5747C57.8924 56.4166 58.3477 56.2183 58.8497 55.9796C59.3636 55.7385 59.8901 55.4703 60.4295 55.1749C60.9688 54.8795 61.4834 54.583 61.9733 54.2856C62.5289 53.9501 63.0127 53.6233 63.4248 53.3052C63.8486 52.9847 64.2093 52.714 64.5067 52.4932C64.8134 52.2581 65.0726 52.1187 65.2841 52.075C65.6484 51.9996 65.95 52.0659 66.1891 52.2737C66.4375 52.4674 66.5619 52.7725 66.5623 53.1891C66.5579 53.5822 66.5522 53.9693 66.5453 54.3506C66.5477 54.7178 66.5467 55.0978 66.5423 55.4909C66.5467 55.8086 66.5563 56.1804 66.5708 56.6062C66.583 57.0204 66.6035 57.445 66.6322 57.8802C66.661 58.3154 66.7001 58.7117 66.7496 59.0691C66.7982 59.3041 66.8458 59.5639 66.8924 59.8483C66.9483 60.1186 66.9779 60.3208 66.9811 60.4549C66.9844 60.5891 66.9558 60.7175 66.8954 60.8403C66.8444 60.9489 66.765 61.0388 66.6572 61.1102C66.5636 61.1908 66.4521 61.2445 66.3229 61.2712C66.0761 61.3223 65.8638 61.2437 65.6859 61.0354C65.5173 60.8129 65.3919 60.5325 65.3096 60.1942C65.1881 59.6066 65.1018 59.0118 65.0507 58.4096C64.9972 57.7957 64.966 57.1711 64.9571 56.5357C64.9624 56.2651 64.9615 55.965 64.9547 55.6356C64.9595 55.3037 64.9656 54.9777 64.9729 54.6576C64.9802 54.3375 64.983 54.055 64.9814 53.8103C64.9891 53.5514 64.9938 53.3666 64.9954 53.256L65.4245 53.5532C65.1858 53.7619 64.8685 54.0052 64.4727 54.2832C64.0861 54.547 63.642 54.8288 63.1403 55.1287C62.6362 55.4168 62.1087 55.7097 61.5576 56.0076C61.0065 56.3054 60.4471 56.5927 59.8794 56.8694C59.321 57.132 58.7801 57.3604 58.2565 57.5545L58.3015 56.8834C58.3931 56.8522 58.5317 56.8113 58.7172 56.7607C58.9122 56.6958 59.1389 56.6367 59.3974 56.5832C59.5384 56.554 59.7372 56.5374 59.9937 56.5333C60.2619 56.5268 60.5421 56.5485 60.8343 56.5984C61.1382 56.6458 61.433 56.738 61.7186 56.8749C62.0136 56.9977 62.2596 57.1796 62.4565 57.4207C62.6652 57.6594 62.8014 57.9621 62.865 58.3288C62.9363 58.792 62.8688 59.2655 62.6626 59.7493C62.4681 60.2307 62.1875 60.6809 61.8208 61.0998C61.4541 61.5188 61.0446 61.8793 60.5924 62.1812C60.1377 62.4713 59.693 62.6613 59.2582 62.7513ZM76.5887 52.4013C76.1892 52.484 75.8557 52.4121 75.5882 52.1856C75.3208 51.959 75.1867 51.6069 75.1859 51.1292C75.1883 50.7856 75.2817 50.4966 75.4661 50.2624C75.6598 50.014 75.9387 49.8521 76.303 49.7768C76.6321 49.7087 76.9076 49.7375 77.1297 49.8631C77.3493 49.9769 77.5116 50.1394 77.6165 50.3506C77.7332 50.5592 77.7889 50.7989 77.7837 51.0696C77.7902 51.3378 77.699 51.6079 77.5102 51.8798C77.3189 52.14 77.0118 52.3138 76.5887 52.4013ZM76.658 59.1329C76.2467 59.218 75.9074 59.1473 75.6399 58.9208C75.3701 58.6825 75.2361 58.361 75.2382 57.9562C75.2215 57.5797 75.3336 57.2624 75.5743 57.0043C75.8125 56.7345 76.0844 56.5679 76.39 56.5047C76.7072 56.4391 76.9698 56.4644 77.1777 56.5807C77.3973 56.6945 77.5608 56.8629 77.6682 57.0858C77.7873 57.3062 77.8418 57.54 77.8317 57.7872C77.8406 58.0672 77.7507 58.3431 77.5618 58.615C77.3823 58.8728 77.0811 59.0454 76.658 59.1329ZM78.9129 63.2433C78.7601 63.2749 78.6177 63.2676 78.4856 63.2214C78.3559 63.187 78.2484 63.1112 78.1629 62.9941C78.0798 62.8887 78.0354 62.7631 78.0297 62.6172C78.0289 62.4949 78.0575 62.3664 78.1154 62.2319C78.1734 62.0974 78.2889 61.9448 78.4619 61.7742C79.2006 61.0209 79.8364 60.1848 80.3692 59.2657C80.9021 58.3467 81.3063 57.3685 81.5818 56.3312C81.8691 55.2914 82.015 54.2196 82.0194 53.1158C82.0125 51.7203 81.8409 50.5059 81.5046 49.4726C81.1776 48.4251 80.7541 47.563 80.2342 46.8863C79.7119 46.1979 79.1414 45.691 78.5226 45.3656C78.2511 45.2379 78.0656 45.1109 77.9659 44.9845C77.8755 44.8439 77.8334 44.6994 77.8394 44.5511C77.8451 44.3416 77.9156 44.1493 78.051 43.9743C78.1981 43.7968 78.3656 43.6886 78.5536 43.6497C78.6829 43.623 78.8111 43.6209 78.9384 43.6436C79.0656 43.6663 79.2508 43.7322 79.4939 43.8412C80.0183 44.1248 80.5258 44.5345 81.0165 45.0702C81.5072 45.6059 81.9505 46.2678 82.3464 47.0559C82.7423 47.844 83.0519 48.7481 83.2752 49.768C83.5078 50.7737 83.6269 51.8826 83.6326 53.0946C83.6455 54.3418 83.5017 55.5418 83.201 56.6947C82.9121 57.8451 82.4897 58.9128 81.9337 59.8979C81.3802 60.8947 80.7189 61.7851 79.9498 62.5692C79.7185 62.8132 79.5195 62.9769 79.353 63.0603C79.1889 63.1556 79.0422 63.2165 78.9129 63.2433Z" fill="#E71985"/>
<path d="M63.974 84.2915C63.6853 83.8205 63.0696 83.6735 62.5987 83.9615C62.1279 84.2505 61.9803 84.8665 62.269 85.3365L63.974 84.2915ZM151.103 94.3715C151.655 94.3885 152.117 93.9555 152.134 93.4035L152.42 84.4085C152.437 83.8565 152.004 83.3945 151.452 83.3765C150.9 83.3595 150.439 83.7925 150.421 84.3445L150.167 92.3405L142.171 92.0865C141.619 92.0695 141.157 92.5025 141.14 93.0545C141.122 93.6065 141.556 94.0685 142.108 94.0855L151.103 94.3715ZM62.269 85.3365C64.4357 88.8705 67.0883 91.0055 70.1645 92.0625C73.2145 93.1115 76.5801 93.0645 80.1271 92.4295L79.7743 90.4605C76.4049 91.0645 73.4186 91.0665 70.8145 90.1715C68.2366 89.2855 65.9327 87.4855 63.974 84.2915L62.269 85.3365ZM80.1271 92.4295C84.9617 91.5625 90.3127 89.5635 95.8965 87.5235C101.518 85.4705 107.421 83.3565 113.493 82.1685C119.554 80.9824 125.739 80.7284 131.912 82.3675C138.076 84.0035 144.295 87.5455 150.406 94.0565L151.864 92.6875C145.525 85.9325 138.987 82.1765 132.425 80.4342C125.873 78.6946 119.365 78.9814 113.108 80.2059C106.861 81.4285 100.819 83.5965 95.2103 85.6455C89.5638 87.7075 84.3993 89.6315 79.7743 90.4605L80.1271 92.4295ZM62.3004 85.5165C64.4592 89.0375 67.1081 91.1515 70.1837 92.1785C73.2317 93.1955 76.5956 93.1085 80.1396 92.4265L79.7618 90.4625C76.3942 91.1105 73.4129 91.1475 70.8167 90.2815C68.2481 89.4235 65.9538 87.6485 64.0054 84.4705L62.3004 85.5165ZM80.1396 92.4265C84.9999 91.4915 90.3842 89.3965 96.0047 87.2535C101.663 85.0955 107.606 82.8705 113.716 81.5805C119.816 80.2926 126.035 79.9482 132.233 81.5235C138.421 83.0965 144.659 86.5995 150.777 93.1185L152.236 91.7505C145.884 84.9825 139.321 81.2615 132.726 79.5851C126.141 77.9117 119.596 78.2948 113.302 79.6238C107.018 80.9507 100.937 83.2325 95.2921 85.3845C89.6094 87.5515 84.4115 89.5685 79.7618 90.4625L80.1396 92.4265Z" fill="#E71985"/>
</svg>
