<svg width="243" height="160" viewBox="0 0 243 160" fill="none" xmlns="http://www.w3.org/2000/svg">
<path d="M8.75409 14.3931C8.33414 14.3995 7.871 14.3286 7.36467 14.1804C6.85834 14.0321 6.33909 13.824 5.80693 13.5561C5.28658 13.2761 4.78959 12.9536 4.31595 12.5888C3.85431 12.2239 3.4462 11.8281 3.09163 11.4014C2.73688 10.9628 2.47202 10.5168 2.29706 10.0634C2.12192 9.59812 2.07885 9.13672 2.16786 8.67932C2.25577 8.14982 2.47557 7.61242 2.82726 7.06702C3.17877 6.50952 3.63236 5.95654 4.18803 5.40797C4.75551 4.84721 5.40126 4.30327 6.12528 3.77612C6.84911 3.23698 7.6333 2.72092 8.47786 2.22793C8.90613 1.98135 9.2512 1.79004 9.5132 1.65402C9.7751 1.51799 10.0021 1.44851 10.1941 1.44557C10.4101 1.44227 10.573 1.50578 10.6831 1.63611C10.8049 1.75426 10.8376 1.93378 10.7813 2.17467C10.749 2.41519 10.6264 2.6391 10.4136 2.84638C10.2125 3.04148 9.8978 3.25632 9.4693 3.49091C8.62438 3.95989 7.85764 4.43969 7.16907 4.93028C6.49231 5.4087 5.90536 5.87374 5.40821 6.32542C4.92307 6.77692 4.53954 7.20282 4.25763 7.60312C3.97554 7.99152 3.80671 8.33012 3.75112 8.61902C3.69646 8.96792 3.76224 9.34492 3.94846 9.75012C4.1465 10.1431 4.45262 10.5405 4.86681 10.9422C5.28083 11.3319 5.79646 11.6961 6.41371 12.0347C7.03079 12.3613 7.73093 12.6266 8.51414 12.8306C9.0085 12.9791 9.3227 13.1243 9.4569 13.2662C9.6031 13.408 9.6539 13.5872 9.6092 13.804C9.5761 13.9965 9.4943 14.1418 9.3638 14.2398C9.2333 14.3378 9.0301 14.3889 8.75409 14.3931ZM0.799016 14.5149C0.511046 14.5193 0.299326 14.4085 0.163856 14.1826C0.0403756 13.9564 -0.0133144 13.5852 0.00278561 13.0689C0.0307056 12.5404 0.121946 11.8369 0.276516 10.9585C0.453986 10.0076 0.656366 9.11642 0.883666 8.28492C1.11079 7.44132 1.32128 6.68802 1.51516 6.02495C1.70903 5.3619 1.83884 4.82585 1.90459 4.4168C1.98252 4.01956 2.02574 3.70686 2.03424 3.47871C2.04257 3.23855 2.04526 3.02248 2.04232 2.83051C2.03939 2.63853 2.06026 2.43418 2.10495 2.21748C2.14927 1.97677 2.2366 1.80141 2.36693 1.6914C2.50907 1.56921 2.67614 1.50665 2.86811 1.50371C3.13208 1.49967 3.31944 1.58681 3.43018 1.76514C3.55292 1.94328 3.62859 2.18215 3.65718 2.48175C3.68558 2.76935 3.67836 3.08149 3.63551 3.41819C3.60447 3.7427 3.56116 4.0494 3.50557 4.33829C3.41748 4.8557 3.27059 5.45201 3.0649 6.12724C2.87121 6.80232 2.67198 7.50742 2.46721 8.24262C2.26226 8.96582 2.09302 9.67052 1.95951 10.3566C1.84889 10.9704 1.77234 11.4576 1.72985 11.8183C1.68737 12.179 1.66178 12.4674 1.65309 12.6836C1.64421 12.8878 1.62906 13.074 1.60764 13.2424C1.59802 13.3985 1.57706 13.5969 1.54474 13.8374C1.49986 14.0421 1.41235 14.2055 1.28221 14.3275C1.15206 14.4495 0.990996 14.5119 0.799016 14.5149ZM14.8829 14.3173C13.899 14.3324 13.0858 14.1288 12.4433 13.7066C11.8128 13.2842 11.3719 12.7088 11.1207 11.9806C10.8814 11.2402 10.8444 10.3947 11.0099 9.44402C11.1316 8.77012 11.3506 8.17862 11.6668 7.66972C11.9949 7.14872 12.3602 6.71102 12.7628 6.35682C13.1775 6.00245 13.5935 5.73805 14.0108 5.56364C14.428 5.37723 14.7866 5.28173 15.0866 5.27714C15.2186 5.27512 15.3268 5.29146 15.4114 5.32617C15.5079 5.3607 15.5808 5.41959 15.6301 5.50285C15.6912 5.57392 15.7108 5.67563 15.6888 5.80799C15.6325 6.04888 15.5399 6.27232 15.411 6.47832C15.282 6.67232 15.0387 6.85002 14.6811 7.01152C14.2523 7.22212 13.8898 7.45572 13.5937 7.71232C13.3094 7.95662 13.0797 8.24222 12.9047 8.56892C12.7295 8.88362 12.6093 9.26352 12.5441 9.70862C12.367 10.6834 12.4929 11.4615 12.9219 12.043C13.3507 12.6126 13.997 12.8907 14.8609 12.8775C15.7008 12.8646 16.4281 12.5534 17.0429 11.944C17.6694 11.3223 18.071 10.5061 18.2475 9.49522C18.4254 8.56842 18.3543 7.84942 18.0345 7.33822C17.7144 6.81512 17.1945 6.55902 16.4745 6.57002C16.1026 6.57572 15.7857 6.65262 15.524 6.80062C15.2742 6.94842 15.0012 7.14462 14.7049 7.38922C14.4916 7.57252 14.3201 7.73712 14.1904 7.88312C14.0606 8.02912 13.9423 8.14502 13.8356 8.23062C13.7408 8.30412 13.6153 8.34202 13.4593 8.34442C13.2914 8.34702 13.1585 8.29502 13.0609 8.18852C12.9751 8.06982 12.9542 7.88412 12.9984 7.63142C13.0421 7.35472 13.1758 7.07062 13.3994 6.77912C13.6349 6.48752 13.9189 6.21912 14.2512 5.97401C14.5953 5.71671 14.9642 5.51304 15.3579 5.363C15.7515 5.20095 16.1403 5.11699 16.5242 5.11112C17.3881 5.09789 18.0932 5.29112 18.6393 5.69081C19.1853 6.0785 19.5597 6.62482 19.7626 7.32982C19.9652 8.02282 19.9775 8.82672 19.7995 9.74152C19.6453 10.644 19.3334 11.4408 18.8639 12.1321C18.3943 12.8114 17.8143 13.3423 17.1241 13.7249C16.4459 14.1074 15.6988 14.3048 14.8829 14.3173ZM22.2522 14.1865C21.9643 14.1909 21.7457 14.0262 21.5966 13.6925C21.4475 13.3587 21.4337 12.8549 21.5554 12.1809C21.6105 11.856 21.7169 11.3624 21.8748 10.6999C22.0325 10.0254 22.2795 9.30152 22.6157 8.52832C23.0097 7.61012 23.3646 6.88462 23.6805 6.35172C23.9962 5.80683 24.3082 5.41201 24.6165 5.16726C24.9247 4.92252 25.2409 4.79766 25.5648 4.79271C25.8168 4.78885 26.0103 4.8879 26.1455 5.08985C26.2926 5.29163 26.3983 5.53604 26.4627 5.82308C26.5271 6.11013 26.5795 6.39732 26.6199 6.68482C26.6738 7.06802 26.7403 7.49302 26.8195 7.95992C26.9106 8.42652 27.0079 8.89912 27.1112 9.37762C27.2265 9.85582 27.3535 10.31 27.4921 10.7399C27.6427 11.1696 27.8103 11.5331 27.9948 11.8303L27.3491 11.9842C27.6866 11.295 28.0481 10.6054 28.4336 9.91542C28.8191 9.22542 29.205 8.56542 29.5914 7.93542C29.9778 7.30542 30.3412 6.74182 30.6817 6.24452C31.0577 5.72274 31.3761 5.35183 31.6367 5.13181C31.9094 4.91161 32.1537 4.79986 32.3697 4.79655C32.5257 4.79416 32.6702 4.82796 32.8033 4.89793C32.9362 4.9559 33.0513 5.02615 33.1486 5.10867C33.2826 5.23863 33.387 5.39905 33.462 5.58993C33.5369 5.7808 33.5533 6.06859 33.5112 6.45332C33.4164 7.31882 33.3564 8.09982 33.331 8.79632C33.3175 9.48062 33.3203 10.0566 33.3395 10.5244C33.3641 11.3521 33.4342 12.0111 33.5498 12.5014C33.6773 12.9915 33.7241 13.3088 33.6903 13.4533C33.6687 13.6097 33.5867 13.737 33.4442 13.8351C33.3138 13.9452 33.1527 14.0016 32.9607 14.0046C32.6727 14.009 32.4306 13.8747 32.2344 13.6016C32.0502 13.3284 31.9306 12.9582 31.8754 12.491C31.8208 12.0598 31.7764 11.5144 31.7423 10.8548C31.7202 10.1951 31.7269 9.45692 31.7625 8.64032C31.8098 7.81152 31.8927 6.95812 32.0113 6.08019L32.5313 5.94621C32.2498 6.37062 31.9332 6.85552 31.5815 7.40092C31.2416 7.93422 30.8901 8.49162 30.5269 9.07322C30.1758 9.65472 29.8366 10.2299 29.5092 10.799C29.1939 11.3679 28.9141 11.9063 28.6699 12.4141C28.5414 12.644 28.3881 12.8264 28.2102 12.9612C28.0442 13.0957 27.8472 13.1647 27.6193 13.1682C27.3313 13.1726 27.0903 13.1103 26.8963 12.9813C26.7141 12.84 26.5552 12.6504 26.4196 12.4125C26.2957 12.1624 26.1835 11.888 26.0829 11.5896C26.0324 11.4223 25.9628 11.1893 25.8742 10.8907C25.7854 10.58 25.6961 10.2333 25.6063 9.85062C25.5164 9.46802 25.4322 9.06122 25.3535 8.63042C25.2749 8.19952 25.2084 7.77452 25.154 7.35532C25.0994 6.92412 25.0693 6.52252 25.0636 6.15054L25.6013 5.99829C25.2023 6.59242 24.8512 7.17392 24.5479 7.74262C24.2565 8.31112 24.0075 8.89702 23.8007 9.50022C23.6057 10.0913 23.4415 10.7299 23.3079 11.416C23.2191 11.8854 23.1534 12.2945 23.1107 12.6432C23.08 12.9917 23.0481 13.2562 23.0148 13.4367C22.97 13.6414 22.8886 13.8167 22.7709 13.9625C22.6531 14.1083 22.4802 14.183 22.2522 14.1865ZM39.5175 13.9222C38.7256 13.9343 38.0751 13.7763 37.5661 13.448C37.0688 13.1076 36.7016 12.6391 36.4644 12.0427C36.2391 11.4341 36.1204 10.7338 36.1082 9.94192C36.0959 9.13802 36.1727 8.27272 36.3385 7.34612C36.4818 6.51582 36.6984 5.76841 36.9883 5.1039C37.278 4.42738 37.605 3.84031 37.9694 3.34267C38.3457 2.83286 38.7413 2.41275 39.1563 2.08236C39.5713 1.75197 39.9876 1.50557 40.4051 1.34316C40.9659 1.13055 41.5277 0.97793 42.0903 0.88531C42.665 0.79251 43.1795 0.69462 43.634 0.59165C44.1603 0.47558 44.6084 0.34871 44.9783 0.21103C45.3483 0.0733502 45.6292 0.00304033 45.8212 0.000100332C45.9652 -0.00209967 46.0977 0.0318802 46.2188 0.10203C46.3519 0.172 46.4494 0.27252 46.5115 0.40359C46.5733 0.52265 46.5875 0.66645 46.5541 0.83498C46.5212 1.03951 46.3979 1.21542 46.1841 1.36271C45.9701 1.498 45.7018 1.61012 45.3792 1.69907C44.734 1.88897 44.142 2.02404 43.6031 2.1043C43.0761 2.17237 42.5911 2.23981 42.1481 2.30659C41.7049 2.36138 41.2747 2.48198 40.8575 2.66839C40.4519 2.83062 40.0543 3.11874 39.6645 3.53275C39.2867 3.93458 38.9463 4.43785 38.6435 5.04256C38.3526 5.63508 38.1408 6.30442 38.0082 7.05052C37.7759 8.33822 37.6779 9.38382 37.7142 10.1874C37.7623 10.9787 37.9512 11.5579 38.2808 11.9249C38.6225 12.2917 39.0933 12.4705 39.6932 12.4613C40.1012 12.4551 40.5136 12.3468 40.9304 12.1364C41.347 11.914 41.7327 11.626 42.0873 11.2726C42.4539 10.9189 42.7601 10.5362 43.0058 10.1244C43.2634 9.70042 43.4251 9.28982 43.491 8.89282C43.5804 8.45942 43.5688 8.09352 43.4562 7.79522C43.3555 7.48472 43.1599 7.25372 42.8696 7.10212C42.579 6.93852 42.1938 6.86042 41.7138 6.86782C41.0779 6.87752 40.3667 7.06842 39.5803 7.44052C38.806 7.81242 38.0284 8.37032 37.2477 9.11442L36.6613 8.43932C37.1428 7.74782 37.6922 7.18132 38.3095 6.73982C38.9266 6.28632 39.5696 5.95249 40.2384 5.73823C40.907 5.51197 41.5413 5.39424 42.1412 5.38506C42.8731 5.37386 43.4871 5.50247 43.9833 5.77091C44.4793 6.02735 44.8331 6.40602 45.0448 6.90682C45.2565 7.40762 45.2841 8.03122 45.1275 8.77772C45.005 9.40372 44.7684 10.0194 44.4177 10.6248C44.0787 11.2181 43.655 11.7646 43.1466 12.2645C42.638 12.7523 42.074 13.151 41.4547 13.4605C40.8352 13.758 40.1895 13.9119 39.5175 13.9222ZM48.4864 13.7849C48.0785 13.7912 47.753 13.7001 47.5101 13.5118C47.2792 13.3233 47.1074 13.0739 46.9946 12.7636C46.8817 12.4413 46.8223 12.0942 46.8166 11.7222C46.8228 11.3381 46.8591 10.9655 46.9255 10.6044C46.9928 10.2914 47.0831 9.91792 47.1964 9.48412C47.3218 9.05022 47.4589 8.59802 47.6077 8.12772C47.7565 7.65742 47.8998 7.21712 48.0376 6.80702C48.1873 6.39662 48.3084 6.07675 48.4009 5.84731C48.5505 5.42497 48.6835 5.09889 48.8 4.86908C48.9285 4.63909 49.0827 4.52271 49.2627 4.51996C49.4187 4.51757 49.5635 4.56936 49.6971 4.67533C49.8308 4.7813 49.9289 4.91781 49.9914 5.08487C50.066 5.25175 50.0868 5.43745 50.054 5.64198C50.0209 5.83451 49.9411 6.11176 49.8147 6.47372C49.6882 6.83572 49.5444 7.23992 49.3832 7.68652C49.222 8.13302 49.0669 8.58542 48.9179 9.04372C48.7687 9.49012 48.6609 9.89382 48.5944 10.2548C48.5274 10.5799 48.4841 10.8926 48.4647 11.1929C48.4451 11.4813 48.4608 11.7211 48.5117 11.9123C48.5625 12.0915 48.6659 12.18 48.8218 12.1776C49.2058 12.1717 49.6865 11.8223 50.264 11.1294C50.8534 10.4363 51.5049 9.48422 52.2185 8.27312C52.5464 7.74012 52.8328 7.24362 53.0778 6.78382C53.3228 6.32402 53.5387 5.92468 53.7255 5.58578C53.9122 5.23488 54.094 4.96206 54.2711 4.76733C54.4481 4.5726 54.6266 4.47385 54.8066 4.4711C55.0826 4.46688 55.2822 4.57183 55.4055 4.78597C55.5406 4.98793 55.6048 5.26298 55.5981 5.61112C55.6029 5.92308 55.5968 6.30722 55.5798 6.76352C55.5748 7.21962 55.5699 7.68782 55.5653 8.16792C55.5604 8.63602 55.5671 9.07402 55.5854 9.48172C55.632 10.1771 55.7067 10.746 55.8095 11.1885C55.9241 11.6188 56.0254 11.9653 56.1135 12.228C56.2015 12.4907 56.2408 12.7061 56.2314 12.8743C56.2214 13.0064 56.1813 13.1331 56.1112 13.2541C56.0408 13.3632 55.9522 13.4546 55.8453 13.5282C55.7385 13.6019 55.619 13.6397 55.487 13.6417C55.2111 13.646 54.9812 13.5235 54.7973 13.2743C54.6255 13.0249 54.4881 12.6729 54.3851 12.2184C54.2822 11.764 54.196 11.2312 54.1266 10.6202C54.096 10.1886 54.065 9.72702 54.0334 9.23552C54.0139 8.74372 54.0064 8.25182 54.0108 7.75962C54.0273 7.26732 54.0443 6.81102 54.0619 6.39072L54.5866 6.56272C54.4468 6.84092 54.2953 7.13722 54.1321 7.45182C53.9809 7.76612 53.7944 8.12302 53.5725 8.52242C53.3624 8.90972 53.0994 9.36982 52.7835 9.90272C52.3855 10.5569 51.951 11.1816 51.48 11.7769C51.0089 12.3601 50.5182 12.8417 50.008 13.2216C49.5095 13.5892 49.0023 13.777 48.4864 13.7849ZM59.2394 13.6203C58.8075 13.6269 58.5153 13.3554 58.3629 12.8056C58.2104 12.2559 58.2172 11.5237 58.3833 10.6091C58.5175 9.97092 58.6721 9.48852 58.8472 9.16182C59.034 8.82292 59.2465 8.59162 59.4846 8.46792C59.6155 8.39392 59.8008 8.34912 60.0406 8.33342C60.2802 8.30582 60.532 8.28992 60.796 8.28592C61.6719 8.27242 62.5351 8.21722 63.3857 8.12022C64.2482 8.01102 65.0913 7.81812 65.9152 7.54142L66.2582 8.77832C65.6379 9.02782 64.9687 9.21812 64.2507 9.34912C63.5326 9.48012 62.802 9.57532 62.0588 9.63472C61.3274 9.68192 60.6138 9.71082 59.9178 9.72152L58.8715 9.57552C59.0166 8.86522 59.1672 8.11882 59.3233 7.33632C59.4793 6.55382 59.6126 5.8557 59.7233 5.24194C59.7669 4.95324 59.8593 4.71779 60.0005 4.53561C60.1417 4.35343 60.3023 4.26096 60.4823 4.2582C60.7823 4.25361 61.0061 4.3702 61.1537 4.60797C61.3012 4.83374 61.3248 5.19942 61.2245 5.70501C61.1806 5.96972 61.1134 6.28882 61.0232 6.66222C60.9329 7.03562 60.8368 7.42712 60.7351 7.83672C60.6454 8.24622 60.5553 8.63762 60.465 9.01102C60.3866 9.37222 60.3252 9.67322 60.2808 9.91392C60.1475 10.6121 60.0491 11.2376 59.9855 11.7907C59.9338 12.3315 59.8861 12.7403 59.8423 13.017C59.8089 13.1855 59.733 13.3247 59.6146 13.4345C59.5085 13.5562 59.3834 13.6181 59.2394 13.6203ZM65.4487 13.5253C65.1488 13.5298 64.9301 13.3592 64.7928 13.0132C64.6675 12.6671 64.6062 12.194 64.6091 11.5939C64.6237 10.9816 64.6974 10.3084 64.8302 9.57432C65.0525 8.41872 65.2485 7.50362 65.4182 6.82892C65.5997 6.1421 65.7654 5.5995 65.9154 5.20116C66.0073 4.93572 66.1237 4.69991 66.2646 4.49373C66.4054 4.28755 66.5779 4.1829 66.7818 4.17978C67.0458 4.17573 67.2337 4.29887 67.3456 4.54919C67.4692 4.78733 67.4977 5.08092 67.431 5.42999C67.3537 5.86322 67.2288 6.33322 67.0566 6.83992C66.8963 7.34642 66.7667 7.89442 66.6677 8.48402C66.5347 9.20612 66.4428 9.86162 66.3918 10.4505C66.3526 11.0271 66.33 11.5135 66.3241 11.9097C66.3182 12.3058 66.2927 12.6002 66.2476 12.7929C66.2149 13.0095 66.1216 13.1849 65.9676 13.3193C65.8137 13.4537 65.6407 13.5223 65.4487 13.5253ZM70.8994 13.4238C70.3475 13.4323 69.8955 13.3072 69.5435 13.0485C69.2035 12.7897 68.9639 12.4273 68.8248 11.9614C68.6976 11.4953 68.6894 10.9554 68.8 10.3416C68.8992 9.76402 69.0883 9.18502 69.3675 8.60472C69.6584 8.01222 70.0159 7.45462 70.44 6.93212C70.8639 6.39752 71.3307 5.92836 71.8406 5.5245C72.3623 5.10847 72.9094 4.78206 73.4818 4.54527C74.0663 4.3083 74.6525 4.18531 75.2404 4.17631C75.5164 4.17209 75.7334 4.24077 75.8916 4.38237C76.0498 4.52396 76.1011 4.7392 76.0455 5.02809C76.0237 5.17244 75.9597 5.29943 75.8533 5.40907C75.7468 5.50672 75.5917 5.5691 75.3881 5.59622C74.5501 5.72906 73.7748 6.04096 73.0622 6.53192C72.3616 7.02272 71.7766 7.61372 71.3071 8.30502C70.8495 8.98412 70.5483 9.69682 70.4037 10.4431C70.3371 10.7921 70.3059 11.1106 70.3103 11.3986C70.3146 11.6746 70.3801 12.0336 70.5069 12.4757L69.8039 11.2443C70.0241 11.517 70.2189 11.694 70.3881 11.7754C70.5694 11.8567 70.822 11.8948 71.146 11.8899C71.9139 11.8781 72.6863 11.3742 73.4631 10.3782C74.2399 9.38222 74.9499 7.93722 75.593 6.04313C75.6735 5.81387 75.7848 5.63815 75.927 5.51596C76.0809 5.38159 76.2599 5.31284 76.4639 5.30972C76.7398 5.30549 76.9517 5.42226 77.0993 5.66003C77.2588 5.88562 77.3293 6.17857 77.3108 6.53892C77.2744 7.29552 77.2608 7.97982 77.2702 8.59172C77.2914 9.19152 77.366 9.75442 77.4941 10.2805C77.6341 10.8064 77.8705 11.3489 78.2031 11.9079C78.2769 12.0267 78.309 12.1643 78.2994 12.3204C78.3018 12.4764 78.2621 12.627 78.1803 12.7723C78.1105 12.9174 78.0104 13.0389 77.8798 13.1369C77.7611 13.2228 77.6178 13.267 77.4498 13.2695C77.2698 13.2723 77.1253 13.2385 77.0162 13.1682C76.9191 13.0976 76.8336 12.9969 76.7596 12.8661C76.5868 12.5567 76.4318 12.229 76.2945 11.8831C76.1572 11.5371 76.0431 11.1428 75.9523 10.7002C75.8733 10.2453 75.8352 9.71182 75.8378 9.09972C75.8404 8.48762 75.8893 7.76082 75.9845 6.91922L76.6321 6.89132C76.2545 8.09722 75.8321 9.11782 75.3648 9.95312C74.8974 10.7763 74.4035 11.444 73.8833 11.956C73.3749 12.4558 72.8645 12.8237 72.352 13.0595C71.8396 13.2954 71.3554 13.4168 70.8994 13.4238ZM87.5152 15.5998C87.2752 15.6034 87.1059 15.516 87.0071 15.3375C86.9086 15.171 86.8759 14.9975 86.9091 14.8169C86.9309 14.6726 86.9881 14.4857 87.0806 14.2562C87.1851 14.0266 87.2892 13.773 87.393 13.4954C87.5087 13.2176 87.6006 12.9461 87.6685 12.6811L88.1575 12.8716C87.9175 12.8753 87.6057 12.8861 87.2219 12.9039C86.8501 12.9216 86.4365 12.946 85.9809 12.9769C85.5373 13.0077 85.0816 13.0327 84.6139 13.0519C84.1463 13.083 83.6966 13.1079 83.2648 13.1265C82.8331 13.1451 82.4492 13.157 82.1133 13.1622C81.4413 13.1724 80.9536 13.0599 80.6499 12.8245C80.3463 12.5891 80.1732 12.2557 80.1305 11.8243C80.0879 11.3929 80.1222 10.8884 80.2334 10.3106C80.2886 9.99772 80.3726 9.60642 80.4855 9.13662C80.5981 8.65482 80.7225 8.15482 80.8585 7.63672C81.0066 7.11842 81.1492 6.63012 81.2862 6.17201C81.4352 5.71367 81.5616 5.3517 81.6656 5.08607C81.7924 4.74809 81.9445 4.48774 82.1217 4.305C82.2987 4.11027 82.5312 4.0107 82.8192 4.00629C82.9752 4.0039 83.1082 4.06788 83.2182 4.19821C83.328 4.31654 83.3728 4.49588 83.3524 4.73622C83.3537 4.82021 83.2912 5.04919 83.1649 5.42317C83.0506 5.79696 82.9077 6.26122 82.7362 6.81592C82.5765 7.35842 82.4113 7.93702 82.2407 8.55172C82.0819 9.15422 81.9526 9.72022 81.8526 10.2498C81.7529 10.7914 81.7408 11.1756 81.8163 11.4025C81.9036 11.6172 82.1572 11.7213 82.5772 11.7149C83.1771 11.7057 83.7348 11.6852 84.2504 11.6533C84.778 11.6212 85.2696 11.5897 85.7251 11.5587C86.1805 11.5157 86.606 11.4792 87.0016 11.4491C87.397 11.4071 87.7687 11.3834 88.1167 11.3781C88.5966 11.3707 88.9164 11.4858 89.0761 11.7234C89.2477 11.9608 89.3001 12.248 89.2333 12.5851C89.2 12.7656 89.1374 12.9886 89.0455 13.2541C88.9655 13.5193 88.8736 13.7848 88.7696 14.0504C88.6657 14.316 88.5792 14.5453 88.5101 14.7384C88.4165 14.8959 88.3227 15.0413 88.2288 15.1748C88.1468 15.3081 88.0464 15.4116 87.9275 15.4854C87.8086 15.5593 87.6712 15.5974 87.5152 15.5998ZM85.8059 12.1335C85.9206 11.7837 86.0405 11.3858 86.1657 10.9399C86.2907 10.4819 86.4156 10.0179 86.5405 9.54802C86.6773 9.07782 86.7787 8.64422 86.8446 8.24722C86.9227 7.86192 86.9833 7.50692 87.0263 7.18232C87.0693 6.85762 87.1068 6.56292 87.1388 6.29842C87.1706 6.02193 87.1968 5.7755 87.2175 5.55915C87.25 5.33063 87.283 5.1321 87.3164 4.96357C87.3716 4.65069 87.4638 4.40325 87.5931 4.22125C87.7341 4.02707 87.9366 3.92796 88.2006 3.92392C88.4165 3.92061 88.5918 4.00194 88.7264 4.1679C88.8609 4.33386 88.9301 4.54282 88.934 4.79479C88.9273 5.14293 88.891 5.51553 88.8251 5.91259C88.771 6.29742 88.711 6.69442 88.6453 7.10352C88.5781 7.41652 88.4939 7.79592 88.3927 8.24152C88.2915 8.68712 88.1846 9.15082 88.0719 9.63252C87.9593 10.1143 87.8463 10.5721 87.7329 11.0059C87.6194 11.4277 87.5167 11.7773 87.4249 12.0547L85.8059 12.1335ZM92.9011 13.105C92.4932 13.1113 92.1677 13.0202 91.9248 12.8319C91.6939 12.6434 91.5221 12.3941 91.4093 12.0837C91.2964 11.7614 91.2371 11.4143 91.2314 11.0423C91.2375 10.6582 91.2738 10.2856 91.3403 9.92452C91.4075 9.61152 91.4978 9.23812 91.6112 8.80432C91.7365 8.37032 91.8736 7.91812 92.0224 7.44782C92.1713 6.97752 92.3145 6.53722 92.4523 6.1271C92.602 5.71676 92.7231 5.39687 92.8156 5.16742C92.9652 4.74509 93.0982 4.41901 93.2147 4.1892C93.3432 3.95921 93.4974 3.84283 93.6774 3.84008C93.8334 3.83769 93.9782 3.88948 94.1118 3.99545C94.2455 4.10141 94.3436 4.23793 94.4061 4.40499C94.4807 4.57187 94.5016 4.75757 94.4687 4.9621C94.4356 5.15463 94.3559 5.43188 94.2294 5.79386C94.1029 6.15584 93.9591 6.56012 93.7979 7.00662C93.6367 7.45312 93.4816 7.90552 93.3326 8.36392C93.1834 8.81022 93.0756 9.21392 93.0091 9.57502C92.9421 9.90002 92.8989 10.2127 92.8795 10.5131C92.8599 10.8014 92.8755 11.0412 92.9265 11.2324C92.9772 11.4117 93.0806 11.5001 93.2366 11.4977C93.6205 11.4918 94.1012 11.1424 94.6787 10.4495C95.2682 9.75642 95.9197 8.80432 96.6332 7.59332C96.9611 7.06022 97.2475 6.56372 97.4925 6.10395C97.7375 5.64415 97.9534 5.2448 98.1403 4.9059C98.3269 4.555 98.5087 4.28218 98.6858 4.08745C98.8628 3.89272 99.0409 3.79397 99.2209 3.79122C99.4969 3.78699 99.6969 3.89195 99.8199 4.10609C99.9549 4.30804 100.02 4.58309 100.013 4.93124C100.018 5.2432 100.012 5.62734 99.9949 6.08365C99.9899 6.53982 99.9849 7.00792 99.9799 7.48802C99.9749 7.95612 99.9819 8.39412 99.9999 8.80192C100.047 9.49722 100.122 10.0662 100.224 10.5086C100.339 10.9389 100.44 11.2854 100.528 11.5481C100.616 11.8108 100.656 12.0262 100.646 12.1944C100.636 12.3265 100.596 12.4532 100.526 12.5743C100.456 12.6834 100.367 12.7747 100.26 12.8484C100.153 12.922 100.034 12.9598 99.9019 12.9619C99.4819 12.9683 99.1779 12.6969 98.9889 12.1477C98.8008 11.5986 98.6515 10.8627 98.5414 9.94032C98.5107 9.50872 98.4797 9.04722 98.4481 8.55562C98.4286 8.06382 98.4211 7.57192 98.4256 7.07982C98.442 6.58752 98.459 6.13116 98.4766 5.71084L99.0009 5.88283C98.8038 6.30592 98.5709 6.77152 98.3026 7.27972C98.0343 7.78782 97.6662 8.43552 97.1982 9.22282C96.8002 9.87702 96.3657 10.5017 95.8947 11.097C95.4236 11.6803 94.9329 12.1618 94.4227 12.5417C93.9243 12.9093 93.4171 13.0971 92.9011 13.105ZM109.161 12.8561C108.837 12.8611 108.601 12.7207 108.453 12.4349C108.316 12.137 108.239 11.7721 108.22 11.3404C108.217 11.1244 108.219 10.8783 108.227 10.6022C108.234 10.326 108.254 10.0437 108.286 9.75522C108.329 9.46652 108.367 9.20192 108.4 8.96132C108.444 8.74462 108.5 8.47372 108.567 8.14872C108.646 7.82342 108.725 7.49222 108.804 7.15492C108.895 6.80552 108.974 6.48622 109.041 6.1972C109.121 5.89595 109.177 5.66706 109.211 5.51053C109.232 5.35418 109.195 5.24074 109.098 5.17022C109 5.0877 108.832 5.04827 108.592 5.05195C108.4 5.05489 108.19 5.0701 107.962 5.09759C107.735 5.12507 107.489 5.16483 107.226 5.21687C106.616 5.34622 106.073 5.54656 105.597 5.81787C105.133 6.07701 104.873 6.36902 104.818 6.69392C104.763 6.97082 104.796 7.22232 104.92 7.44842C105.055 7.66242 105.316 7.83242 105.702 7.95852C106.1 8.08442 106.671 8.14172 107.415 8.13032C107.679 8.12632 107.943 8.11622 108.206 8.10022C108.47 8.08412 108.722 8.06232 108.961 8.03462C109.213 7.99482 109.422 7.96762 109.59 7.95302C109.758 7.92642 109.866 7.91282 109.914 7.91202C110.214 7.90742 110.466 7.92162 110.67 7.95452C110.875 7.98732 110.955 8.11212 110.91 8.32882C110.878 8.56932 110.749 8.76332 110.523 8.91082C110.309 9.05812 110.023 9.16452 109.664 9.23002C109.317 9.29532 108.909 9.33162 108.441 9.33872L106.587 9.36712C105.94 9.37702 105.338 9.27822 104.783 9.07072C104.24 8.86302 103.821 8.56342 103.527 8.17182C103.245 7.78012 103.148 7.31952 103.236 6.79012C103.303 6.46502 103.454 6.12672 103.688 5.77508C103.935 5.41127 104.289 5.0698 104.753 4.75067C105.228 4.43136 105.848 4.16984 106.613 3.96611C107.163 3.81368 107.623 3.71662 107.995 3.67493C108.366 3.63324 108.738 3.60954 109.11 3.60385C109.578 3.59669 109.944 3.65708 110.21 3.78502C110.476 3.91297 110.659 4.09019 110.759 4.31669C110.87 4.54301 110.898 4.80662 110.843 5.1075C110.799 5.3602 110.725 5.66736 110.623 6.02897C110.52 6.37862 110.418 6.74022 110.315 7.11382C110.225 7.47522 110.146 7.80052 110.078 8.08952C110.023 8.37842 109.974 8.69122 109.931 9.02792C109.888 9.35262 109.857 9.67112 109.837 9.98342C109.818 10.2958 109.81 10.5659 109.814 10.7939C109.818 11.0579 109.828 11.3397 109.845 11.6395C109.873 11.9271 109.876 12.1251 109.854 12.2335C109.832 12.4018 109.757 12.547 109.626 12.669C109.496 12.791 109.341 12.8534 109.161 12.8561ZM102.826 12.9351C102.61 12.9384 102.441 12.869 102.318 12.7268C102.208 12.5725 102.169 12.3991 102.202 12.2066C102.236 12.074 102.324 11.9407 102.466 11.8065C102.608 11.6603 102.846 11.5006 103.179 11.3275C103.751 11.0307 104.315 10.65 104.872 10.1855C105.441 9.72072 106.009 9.20192 106.576 8.62922L107.72 9.25982C107.319 9.71002 106.882 10.1547 106.408 10.594C105.947 11.0211 105.485 11.4122 105.022 11.7674C104.571 12.1223 104.156 12.4047 103.775 12.6145C103.394 12.8244 103.078 12.9312 102.826 12.9351ZM119.395 12.6995C119.107 12.7039 118.889 12.5392 118.74 12.2054C118.59 11.8717 118.577 11.3678 118.698 10.6939C118.754 10.369 118.86 9.87532 119.018 9.21282C119.176 8.53832 119.422 7.81452 119.759 7.04122C120.153 6.12312 120.508 5.39761 120.824 4.86471C121.139 4.31981 121.451 3.92499 121.759 3.68024C122.068 3.4355 122.384 3.31064 122.708 3.30568C122.96 3.30183 123.153 3.40088 123.288 3.60283C123.436 3.8046 123.541 4.04901 123.606 4.33606C123.67 4.62311 123.723 4.91034 123.763 5.19776C123.817 5.58098 123.883 6.00601 123.962 6.47282C124.054 6.93952 124.151 7.41212 124.254 7.89052C124.37 8.36882 124.497 8.82292 124.635 9.25292C124.786 9.68262 124.953 10.0461 125.138 10.3433L124.492 10.4972C124.83 9.80802 125.191 9.11832 125.577 8.42842C125.962 7.73842 126.348 7.07842 126.734 6.44842C127.121 5.81843 127.484 5.25481 127.825 4.75754C128.201 4.23572 128.519 3.8648 128.78 3.64479C129.052 3.42459 129.297 3.31284 129.513 3.30953C129.669 3.30714 129.813 3.34093 129.946 3.41091C130.079 3.46888 130.194 3.53912 130.292 3.62165C130.426 3.75161 130.53 3.91203 130.605 4.10291C130.68 4.29378 130.696 4.58156 130.654 4.96625C130.559 5.83181 130.499 6.61282 130.474 7.30932C130.461 7.99362 130.463 8.56962 130.483 9.03732C130.507 9.86512 130.577 10.5241 130.693 11.0144C130.82 11.5045 130.867 11.8218 130.833 11.9663C130.812 12.1227 130.73 12.2499 130.587 12.3481C130.457 12.4581 130.296 12.5146 130.104 12.5175C129.816 12.522 129.574 12.3876 129.377 12.1146C129.193 11.8414 129.074 11.4712 129.018 11.004C128.964 10.5728 128.919 10.0274 128.885 9.36782C128.863 8.70812 128.87 7.96992 128.905 7.15332C128.953 6.32442 129.036 5.47108 129.154 4.59317L129.674 4.45919C129.393 4.88355 129.076 5.36845 128.724 5.9139C128.385 6.44712 128.033 7.00462 127.67 7.58622C127.319 8.16772 126.98 8.74292 126.652 9.31202C126.337 9.88092 126.057 10.4192 125.813 10.927C125.684 11.157 125.531 11.3394 125.353 11.4741C125.187 11.6087 124.99 11.6777 124.762 11.6812C124.474 11.6856 124.233 11.6233 124.039 11.4942C123.857 11.353 123.698 11.1634 123.563 10.9255C123.439 10.6753 123.327 10.401 123.226 10.1025C123.175 9.93532 123.106 9.70232 123.017 9.40362C122.928 9.09302 122.839 8.74632 122.749 8.36362C122.659 7.98102 122.575 7.57422 122.497 7.14332C122.418 6.71252 122.351 6.28752 122.297 5.86827C122.242 5.43706 122.212 5.03547 122.207 4.66351L122.744 4.51127C122.345 5.10544 121.994 5.68689 121.691 6.25562C121.4 6.82412 121.151 7.41002 120.944 8.01322C120.749 8.60432 120.584 9.24292 120.451 9.92902C120.362 10.3984 120.296 10.8075 120.254 11.1561C120.223 11.5047 120.191 11.7692 120.158 11.9497C120.113 12.1544 120.032 12.3297 119.914 12.4755C119.796 12.6213 119.623 12.696 119.395 12.6995ZM136.461 12.4202C135.717 12.4316 135.092 12.3392 134.585 12.1429C134.089 11.9345 133.707 11.6463 133.437 11.2784C133.167 10.8985 132.993 10.4571 132.913 9.95422C132.845 9.45122 132.867 8.89882 132.978 8.29712C133.101 7.70712 133.32 7.11572 133.634 6.52282C133.961 5.91775 134.367 5.36548 134.851 4.866C135.348 4.36635 135.9 3.96785 136.507 3.67052C137.126 3.361 137.778 3.20101 138.462 3.19054C139.098 3.18081 139.621 3.2748 140.033 3.47254C140.456 3.67008 140.748 3.96564 140.91 4.35921C141.084 4.75259 141.116 5.25016 141.005 5.85193C140.917 6.34532 140.725 6.78632 140.431 7.17482C140.149 7.55122 139.788 7.87482 139.348 8.14552C138.92 8.40412 138.437 8.60952 137.899 8.76182C137.373 8.90192 136.81 8.97652 136.21 8.98572C135.395 8.99822 134.847 8.91052 134.568 8.72282C134.301 8.53482 134.19 8.32052 134.234 8.07982C134.256 7.93552 134.309 7.83262 134.392 7.77142C134.475 7.69812 134.606 7.66012 134.786 7.65732C134.918 7.65532 135.074 7.67692 135.255 7.72212C135.448 7.75522 135.73 7.76892 136.102 7.76322C136.702 7.75402 137.24 7.66172 137.718 7.48642C138.207 7.31092 138.606 7.07682 138.913 6.78402C139.22 6.47932 139.413 6.13433 139.491 5.74909C139.558 5.38803 139.506 5.11879 139.335 4.94139C139.176 4.76379 138.863 4.67858 138.395 4.68574C137.927 4.69291 137.479 4.80778 137.05 5.03037C136.633 5.24077 136.242 5.5288 135.875 5.89445C135.521 6.25992 135.221 6.67852 134.976 7.15032C134.731 7.62212 134.565 8.11672 134.477 8.63422C134.4 9.06742 134.4 9.46342 134.477 9.82232C134.554 10.1691 134.739 10.4544 135.03 10.6779C135.333 10.8893 135.761 10.9908 136.313 10.9823C136.937 10.9728 137.47 10.8866 137.911 10.7238C138.365 10.5489 138.746 10.351 139.054 10.1303C139.363 9.90952 139.624 9.71952 139.838 9.56022C140.051 9.40092 140.242 9.32002 140.41 9.31742C140.614 9.31432 140.759 9.39012 140.846 9.54482C140.944 9.68732 140.971 9.87892 140.926 10.1196C140.882 10.3603 140.724 10.6148 140.452 10.883C140.192 11.139 139.848 11.3843 139.419 11.6189C139.003 11.8533 138.538 12.0464 138.024 12.1983C137.522 12.338 137.001 12.412 136.461 12.4202ZM143.245 5.04355C142.969 5.04777 142.752 4.96709 142.594 4.80149C142.447 4.63572 142.396 4.44447 142.441 4.22776C142.475 4.09523 142.545 3.98014 142.652 3.8825C142.758 3.78486 142.949 3.69793 143.224 3.62171C143.654 3.49511 144.228 3.37831 144.946 3.2713C145.677 3.16411 146.528 3.10307 147.5 3.0882C148.004 3.08048 148.466 3.08541 148.886 3.10298C149.318 3.10836 149.793 3.14311 150.31 3.2072C150.719 3.24895 151.032 3.34016 151.25 3.48084C151.481 3.62133 151.579 3.78184 151.546 3.96237C151.524 4.09473 151.472 4.21554 151.389 4.32481C151.319 4.4219 151.212 4.50155 151.069 4.56374C150.938 4.62576 150.77 4.65832 150.566 4.66145C150.314 4.6653 150.02 4.65781 149.684 4.63895C149.348 4.6201 148.987 4.60161 148.603 4.58349C148.23 4.55319 147.846 4.54107 147.45 4.54713C146.622 4.5598 145.957 4.60599 145.454 4.6857C144.951 4.7534 144.532 4.83182 144.198 4.92096C143.863 4.99809 143.545 5.03895 143.245 5.04355ZM145.967 12.3107C145.703 12.3148 145.503 12.2098 145.368 11.9959C145.245 11.7817 145.156 11.507 145.103 11.1718C145.076 10.9202 145.07 10.5782 145.088 10.1459C145.117 9.70142 145.169 9.22062 145.246 8.70332C145.322 8.17412 145.404 7.66282 145.492 7.16942C145.614 6.50742 145.719 5.92379 145.807 5.41838C145.907 4.90078 145.985 4.47355 146.04 4.13667L147.658 4.00389C147.613 4.2086 147.557 4.46748 147.49 4.78055C147.434 5.08143 147.374 5.4244 147.308 5.80946C147.241 6.18252 147.169 6.56762 147.091 6.96492C147.025 7.34992 146.959 7.72302 146.892 8.08412C146.782 8.68582 146.711 9.19102 146.681 9.59952C146.664 9.99582 146.663 10.3198 146.678 10.5716C146.694 10.8234 146.709 11.0332 146.724 11.201C146.738 11.3568 146.735 11.5009 146.713 11.6332C146.691 11.7656 146.644 11.8863 146.574 11.9954C146.504 12.0925 146.415 12.1659 146.307 12.2155C146.2 12.2771 146.087 12.3089 145.967 12.3107ZM155.404 12.1663C154.42 12.1813 153.607 11.9778 152.964 11.5555C152.334 11.1331 151.893 10.5578 151.641 9.82962C151.402 9.08922 151.365 8.24362 151.531 7.29302C151.652 6.61902 151.871 6.02763 152.188 5.51873C152.516 4.99765 152.881 4.56001 153.284 4.2058C153.698 3.85142 154.114 3.58702 154.532 3.41261C154.949 3.2262 155.307 3.1307 155.607 3.12611C155.739 3.12409 155.848 3.14043 155.932 3.17514C156.029 3.20967 156.102 3.26856 156.151 3.35182C156.212 3.42289 156.232 3.5246 156.21 3.65696C156.153 3.89785 156.061 4.12129 155.932 4.32729C155.803 4.52128 155.559 4.69903 155.202 4.86052C154.773 5.07111 154.411 5.30468 154.114 5.56125C153.83 5.80563 153.6 6.09117 153.425 6.41792C153.25 6.73262 153.13 7.11252 153.065 7.55752C152.888 8.53232 153.014 9.31052 153.443 9.89202C153.871 10.4615 154.518 10.7397 155.382 10.7264C156.222 10.7136 156.949 10.4024 157.564 9.79292C158.19 9.17132 158.592 8.35502 158.768 7.34422C158.946 6.41742 158.875 5.6984 158.555 5.18723C158.235 4.66407 157.715 4.408 156.995 4.41902C156.623 4.42471 156.306 4.50157 156.045 4.64959C155.795 4.79743 155.522 4.99364 155.226 5.2382C155.012 5.42149 154.841 5.58613 154.711 5.73213C154.581 5.87814 154.463 5.99396 154.356 6.0796C154.262 6.15306 154.136 6.19099 153.98 6.19338C153.812 6.19595 153.679 6.14397 153.582 6.03746C153.496 5.91876 153.475 5.73305 153.519 5.48035C153.563 5.20365 153.697 4.91957 153.92 4.62811C154.156 4.33647 154.44 4.06809 154.772 3.82298C155.116 3.56568 155.485 3.36201 155.879 3.21197C156.272 3.04992 156.661 2.96596 157.045 2.96009C157.909 2.94686 158.614 3.14009 159.16 3.53978C159.706 3.92747 160.081 4.4738 160.283 5.17878C160.486 5.87176 160.498 6.67562 160.32 7.59052C160.166 8.49292 159.854 9.28982 159.385 9.98112C158.915 10.6603 158.335 11.1913 157.645 11.5739C156.967 11.9563 156.22 12.1538 155.404 12.1663ZM162.08 11.0199C162.231 10.6576 162.422 10.2526 162.656 9.80502C162.889 9.34542 163.139 8.86752 163.408 8.37132C163.688 7.87502 163.969 7.39062 164.25 6.91832C164.542 6.43372 164.818 5.99748 165.076 5.60948C165.416 5.11221 165.757 4.64494 166.098 4.20766C166.44 3.77039 166.764 3.41738 167.072 3.14863C167.392 2.86771 167.666 2.7255 167.894 2.72201C168.134 2.71834 168.345 2.81711 168.528 3.01833C168.724 3.21937 168.897 3.55276 169.048 4.0185C169.149 4.35299 169.257 4.77738 169.373 5.29167C169.489 5.80595 169.6 6.36832 169.705 6.97882C169.81 7.57722 169.898 8.18202 169.967 8.79302C170.036 9.40402 170.081 9.96742 170.101 10.4831L168.519 10.6513C168.498 10.0756 168.447 9.45232 168.365 8.78152C168.294 8.09852 168.2 7.43992 168.082 6.80562C167.965 6.17133 167.842 5.62114 167.715 5.15503C167.588 4.67692 167.457 4.35489 167.322 4.18893L168.022 4.0342C167.644 4.44803 167.244 4.93422 166.82 5.49277C166.409 6.05113 166.022 6.65112 165.659 7.29272C165.391 7.76492 165.14 8.21282 164.906 8.63642C164.672 9.06002 164.457 9.47142 164.259 9.87052C164.073 10.2574 163.887 10.6563 163.701 11.0671L162.08 11.0199ZM169.926 14.3383C169.686 14.3419 169.499 14.2608 169.364 14.0948C169.229 13.9289 169.185 13.7435 169.23 13.5388C169.251 13.3945 169.326 13.1773 169.454 12.8873C169.581 12.6093 169.714 12.2892 169.853 11.9271C169.991 11.5649 170.094 11.1913 170.16 10.8063L170.822 11.7142C170.653 11.6928 170.389 11.6728 170.029 11.6544C169.68 11.6357 169.236 11.6305 168.696 11.6388C168.192 11.6465 167.671 11.6605 167.131 11.6807C166.603 11.6888 166.075 11.7029 165.547 11.723C165.032 11.7429 164.528 11.7746 164.037 11.8181C163.545 11.8496 163.072 11.8869 162.616 11.9298C162.161 11.9848 161.748 12.0452 161.377 12.1108L162.069 11.4702C162.047 11.6265 162.026 11.8189 162.006 12.0472C161.985 12.2755 161.971 12.5038 161.962 12.7319C161.954 12.9721 161.945 13.1823 161.936 13.3624C161.939 13.5424 161.941 13.6684 161.942 13.7404C161.933 13.9445 161.863 14.1016 161.733 14.2116C161.603 14.3336 161.436 14.3962 161.232 14.3993C161.052 14.4021 160.907 14.3503 160.797 14.244C160.676 14.1378 160.589 13.9951 160.539 13.8159C160.488 13.6366 160.461 13.451 160.458 13.259C160.456 13.127 160.46 12.971 160.469 12.7908C160.466 12.6108 160.476 12.4307 160.497 12.2503C160.506 12.0702 160.522 11.9259 160.544 11.8175C160.589 11.6248 160.659 11.4558 160.752 11.3103C160.834 11.153 160.958 11.0191 161.124 10.9086C161.291 10.798 161.505 10.7167 161.769 10.6647C162.068 10.6121 162.469 10.5639 162.973 10.5202C163.488 10.4643 164.063 10.4195 164.699 10.3858C165.346 10.3399 166.012 10.3057 166.695 10.2832C167.379 10.2488 168.033 10.2267 168.657 10.2172C168.861 10.2141 169.077 10.2108 169.305 10.2073C169.544 10.2036 169.791 10.2058 170.043 10.214C170.295 10.2221 170.535 10.2424 170.764 10.2749C171.112 10.3056 171.348 10.41 171.471 10.5882C171.605 10.7661 171.64 11.0476 171.574 11.4327C171.518 11.7336 171.433 12.0529 171.318 12.3907C171.203 12.7285 171.064 13.0427 170.901 13.3332C170.749 13.6356 170.585 13.8781 170.408 14.0608C170.242 14.2434 170.082 14.3359 169.926 14.3383ZM174.841 11.8507C174.433 11.857 174.107 11.7659 173.865 11.5776C173.634 11.3892 173.462 11.1398 173.349 10.8294C173.236 10.5071 173.177 10.16 173.171 9.78802C173.177 9.40392 173.214 9.03132 173.28 8.67022C173.347 8.35722 173.438 7.98382 173.551 7.55002C173.676 7.11602 173.813 6.66382 173.962 6.19354C174.111 5.7232 174.254 5.28296 174.392 4.8728C174.542 4.46246 174.663 4.14257 174.755 3.91313C174.905 3.49079 175.038 3.16471 175.154 2.9349C175.283 2.70491 175.437 2.58854 175.617 2.58578C175.773 2.58339 175.918 2.63518 176.052 2.74115C176.185 2.84712 176.283 2.98363 176.346 3.15069C176.42 3.31757 176.441 3.50327 176.408 3.7078C176.375 3.90033 176.296 4.17758 176.169 4.53956C176.043 4.90154 175.899 5.30579 175.738 5.75231C175.576 6.19883 175.421 6.65122 175.272 7.10962C175.123 7.55592 175.015 7.95962 174.949 8.32072C174.882 8.64572 174.839 8.95842 174.819 9.25882C174.8 9.54712 174.815 9.78692 174.866 9.97812C174.917 10.1574 175.02 10.2458 175.176 10.2434C175.56 10.2375 176.041 9.88812 176.618 9.19522C177.208 8.50212 177.859 7.55002 178.573 6.33902C178.901 5.8059 179.187 5.30946 179.432 4.84965C179.677 4.38985 179.893 3.9905 180.08 3.6516C180.267 3.3007 180.448 3.02789 180.626 2.83315C180.803 2.63842 180.981 2.53968 181.161 2.53692C181.437 2.5327 181.637 2.63765 181.76 2.85179C181.895 3.05375 181.959 3.3288 181.953 3.67694C181.957 3.9889 181.951 4.37304 181.934 4.82936C181.929 5.28549 181.924 5.75362 181.92 6.23372C181.915 6.70192 181.922 7.13982 181.94 7.54762C181.986 8.24292 182.061 8.81192 182.164 9.25432C182.279 9.68462 182.38 10.0311 182.468 10.2938C182.556 10.5565 182.595 10.7719 182.586 10.9401C182.576 11.0722 182.536 11.1989 182.466 11.32C182.395 11.4291 182.307 11.5204 182.2 11.5941C182.093 11.6677 181.973 11.7055 181.841 11.7076C181.422 11.714 181.117 11.4426 180.929 10.8934C180.74 10.3443 180.591 9.60852 180.481 8.68602C180.45 8.25442 180.419 7.79292 180.388 7.30132C180.368 6.80952 180.361 6.31762 180.365 5.82549C180.382 5.33318 180.399 4.87686 180.416 4.45655L180.941 4.62853C180.743 5.05161 180.511 5.51723 180.242 6.02539C179.974 6.53352 179.606 7.18122 179.138 7.96852C178.74 8.62272 178.305 9.24742 177.834 9.84272C177.363 10.426 176.873 10.9075 176.362 11.2874C175.864 11.655 175.357 11.8428 174.841 11.8507ZM191.479 11.596C191.119 11.6016 190.721 11.4996 190.286 11.2903C189.851 11.0689 189.42 10.7755 188.994 10.4099C188.581 10.0442 188.197 9.65412 187.842 9.23942C187.5 8.82462 187.23 8.42672 187.032 8.04572C186.909 7.85552 186.828 7.68282 186.79 7.52732C186.763 7.35972 186.755 7.19782 186.765 7.04172C186.799 6.94512 186.845 6.83642 186.904 6.71552C186.962 6.59462 187.038 6.48542 187.133 6.38802C187.274 6.19379 187.516 5.93206 187.859 5.60277C188.202 5.27348 188.598 4.91937 189.049 4.54043C189.511 4.14932 189.985 3.78801 190.472 3.45652C190.971 3.11284 191.441 2.82962 191.881 2.60685C192.334 2.38389 192.722 2.26994 193.046 2.26498C193.178 2.26296 193.281 2.29139 193.353 2.35028C193.438 2.40899 193.5 2.48606 193.537 2.5815C193.575 2.67694 193.588 2.77275 193.577 2.86892C193.57 3.13307 193.399 3.3877 193.067 3.63282C192.735 3.87793 192.378 4.10542 191.997 4.31527C191.319 4.7097 190.719 5.09693 190.197 5.47696C189.675 5.857 189.254 6.19348 188.934 6.48642C188.627 6.77912 188.468 6.98562 188.458 7.10582C188.436 7.22612 188.517 7.43492 188.701 7.73212C188.886 8.01732 189.167 8.34302 189.544 8.70932C189.922 9.06362 190.365 9.39282 190.874 9.69712C191.104 9.83762 191.328 9.97222 191.546 10.1008C191.776 10.2173 191.958 10.3406 192.092 10.4705C192.237 10.5883 192.306 10.7253 192.296 10.8815C192.286 11.0136 192.246 11.1342 192.175 11.2433C192.105 11.3524 192.004 11.438 191.873 11.5C191.754 11.5618 191.623 11.5938 191.479 11.596ZM185.485 11.6698C185.173 11.6746 184.961 11.5218 184.848 11.2115C184.735 10.8892 184.698 10.4277 184.737 9.82702C184.788 9.21422 184.89 8.47452 185.045 7.60812C185.111 7.24702 185.19 6.86772 185.28 6.47032C185.382 6.07274 185.483 5.67513 185.585 5.27753C185.687 4.86792 185.771 4.47059 185.837 4.08553C185.86 3.98918 185.876 3.89291 185.887 3.79674C185.909 3.68838 185.925 3.58012 185.936 3.47195C185.98 3.23124 186.043 3.03226 186.125 2.87499C186.206 2.71772 186.3 2.59627 186.407 2.51062C186.526 2.4128 186.645 2.36297 186.765 2.36113C187.041 2.35691 187.259 2.47958 187.419 2.72917C187.59 2.96657 187.631 3.30798 187.542 3.75339C187.487 4.05428 187.397 4.4277 187.271 4.87367C187.158 5.30746 187.039 5.75334 186.914 6.2113C186.789 6.66922 186.693 7.07282 186.626 7.42182C186.528 8.04742 186.452 8.60662 186.4 9.09952C186.36 9.59222 186.336 10.0006 186.329 10.3247C186.322 10.6369 186.301 10.8532 186.267 10.9737C186.245 11.1181 186.193 11.2449 186.11 11.3542C186.04 11.4513 185.951 11.5246 185.844 11.5743C185.749 11.6358 185.629 11.6676 185.485 11.6698ZM4.26581 30.4817C3.28192 30.4968 2.46871 30.2932 1.82617 29.871C1.19564 29.4486 0.754776 28.8732 0.503596 28.145C0.264236 27.4046 0.227296 26.559 0.392756 25.6084C0.514456 24.9345 0.733436 24.343 1.04969 23.8341C1.37775 23.3131 1.74309 22.8754 2.14572 22.5212C2.56034 22.1668 2.97635 21.9024 3.39372 21.728C3.81092 21.5416 4.1695 21.4461 4.46947 21.4415C4.60145 21.4395 4.70971 21.4558 4.79425 21.4906C4.89079 21.5251 4.9637 21.584 5.01298 21.6672C5.07408 21.7383 5.09364 21.84 5.07166 21.9724C5.01534 22.2133 4.92275 22.4367 4.79389 22.6427C4.66484 22.8367 4.42153 23.0144 4.06396 23.1759C3.63514 23.3865 3.27267 23.6201 2.97656 23.8767C2.69227 24.121 2.46261 24.4066 2.28759 24.7333C2.11239 25.048 1.99219 25.4279 1.92699 25.873C1.74989 26.8478 1.87582 27.6259 2.30477 28.2074C2.73354 28.7769 3.37987 29.0551 4.24377 29.0419C5.08367 29.029 5.81099 28.7178 6.42574 28.1084C7.05229 27.4867 7.45385 26.6705 7.6304 25.6596C7.80823 24.7328 7.73722 24.0138 7.41736 23.5026C7.09731 22.9795 6.57733 22.7234 5.85742 22.7344C5.48546 22.7401 5.1686 22.817 4.90684 22.965C4.65707 23.1128 4.38404 23.309 4.08775 23.5536C3.87453 23.7369 3.70303 23.9015 3.57325 24.0475C3.44347 24.1935 3.32523 24.3094 3.21852 24.395C3.12364 24.4685 2.9982 24.5064 2.84222 24.5088C2.67424 24.5114 2.54143 24.4594 2.44379 24.3529C2.35796 24.2342 2.33712 24.0485 2.38125 23.7958C2.42502 23.5191 2.55869 23.235 2.78226 22.9435C3.01782 22.6519 3.30175 22.3835 3.63403 22.1384C3.97814 21.8811 4.34706 21.6774 4.74081 21.5274C5.13438 21.3653 5.52314 21.2814 5.90709 21.2755C6.77099 21.2623 7.47603 21.4555 8.02221 21.8552C8.5682 22.2429 8.9426 22.7892 9.1454 23.4942C9.34809 24.1872 9.3604 24.9911 9.1823 25.9059C9.0281 26.8084 8.7163 27.6052 8.24683 28.2965C7.77717 28.9758 7.19723 29.5067 6.50701 29.8893C5.82878 30.2717 5.08171 30.4692 4.26581 30.4817ZM14.8572 30.3016C14.2212 30.3113 13.6796 30.2116 13.2324 30.0024C12.7849 29.7812 12.4262 29.4747 12.1562 29.0828C11.886 28.6789 11.6926 28.2018 11.5762 27.6515C11.4598 27.1012 11.4145 26.4958 11.4404 25.8353C11.4661 25.1629 11.5453 24.4596 11.6781 23.7255C11.8214 22.8952 12.038 22.1478 12.3279 21.4832C12.6176 20.8067 12.9446 20.2197 13.309 19.722C13.6853 19.2122 14.0809 18.7921 14.4959 18.4617C14.9109 18.1313 15.3272 17.8849 15.7447 17.7225C16.1147 17.5848 16.4911 17.4771 16.8739 17.3992C17.2566 17.3093 17.6274 17.2316 17.9865 17.1661C18.3455 17.1006 18.6746 17.0356 18.9736 16.971C19.4999 16.8549 19.948 16.7281 20.3179 16.5904C20.6879 16.4527 20.9688 16.3824 21.1608 16.3795C21.3048 16.3772 21.4373 16.4112 21.5584 16.4814C21.6915 16.5513 21.789 16.6519 21.8511 16.7829C21.9129 16.902 21.9271 17.0458 21.8937 17.2143C21.8608 17.4189 21.7375 17.5948 21.5237 17.7421C21.3097 17.8773 21.0414 17.9895 20.7188 18.0784C20.0736 18.2683 19.4816 18.4034 18.9428 18.4836C18.4157 18.5517 17.9307 18.6192 17.4877 18.6859C17.0445 18.7407 16.6143 18.8613 16.1971 19.0477C15.7915 19.21 15.3939 19.4981 15.0042 19.9121C14.6263 20.3139 14.2859 20.8172 13.9831 21.4219C13.6922 22.0144 13.4804 22.6837 13.3478 23.4299C13.1155 24.7176 13.0175 25.7632 13.0538 26.5667C13.1019 27.3581 13.2908 27.9373 13.6204 28.3043C13.9621 28.6711 14.4329 28.8499 15.0328 28.8407C15.4408 28.8345 15.8532 28.7261 16.27 28.5157C16.6866 28.2933 17.0723 28.0054 17.4269 27.6519C17.7935 27.2983 18.0997 26.9155 18.3454 26.5037C18.603 26.0797 18.7647 25.6692 18.8306 25.2722C18.92 24.8387 18.9084 24.4729 18.7958 24.1746C18.6951 23.8641 18.4995 23.633 18.2092 23.4815C17.9186 23.3179 17.5334 23.2398 17.0534 23.2471C16.4175 23.2569 15.7064 23.4478 14.92 23.8198C14.1456 24.1917 13.368 24.7497 12.5873 25.4937L12.0009 24.8186C12.4824 24.1272 13.0318 23.5607 13.6491 23.1192C14.2662 22.6657 14.9092 22.3318 15.578 22.1176C16.2466 21.8913 16.8809 21.7736 17.4808 21.7644C18.2127 21.7532 18.8267 21.8818 19.3229 22.1503C19.8189 22.4067 20.1727 22.7853 20.3844 23.2861C20.5961 23.787 20.6237 24.4106 20.4671 25.1571C20.3446 25.783 20.108 26.3987 19.7573 27.0042C19.4183 27.5974 18.9946 28.144 18.4862 28.6438C17.9776 29.1317 17.4136 29.5303 16.7943 29.8399C16.1748 30.1374 15.5291 30.2913 14.8572 30.3016ZM24.9718 34.6473C24.2399 34.6585 23.6209 34.5959 23.1147 34.4597C22.6088 34.3354 22.24 34.155 22.0083 33.9185C21.7767 33.6821 21.6887 33.4254 21.7445 33.1485C21.8221 32.7272 22.0768 32.5133 22.5088 32.5067C22.6527 32.5045 22.7852 32.5325 22.9061 32.5906C23.027 32.6488 23.166 32.7127 23.3231 32.7823C23.4803 32.8639 23.6974 32.9326 23.9743 32.9883C24.2632 33.0439 24.6416 33.0681 25.1095 33.061C25.6855 33.0522 26.1635 32.9188 26.5436 32.661C26.9237 32.4031 27.2242 32.0445 27.4452 31.585C27.6782 31.1254 27.8501 30.5947 27.9609 29.993C28.0276 29.6439 28.0703 29.3012 28.0892 28.9649C28.1201 28.6284 28.1505 28.2679 28.1807 27.8834C28.2108 27.4989 28.252 27.0542 28.3043 26.5493C28.3563 26.0325 28.4431 25.4251 28.5644 24.7271L29.1303 25.2405C28.759 26.0743 28.3855 26.7581 28.0096 27.2919C27.6335 27.8137 27.2677 28.2214 26.9122 28.5148C26.5564 28.7963 26.2174 28.9935 25.8951 29.1065C25.5846 29.2072 25.3034 29.2596 25.0514 29.2634C24.0075 29.2794 23.275 28.8586 22.8538 28.0009C22.4325 27.1312 22.3991 25.7336 22.7536 23.8079C22.8973 23.0016 23.044 22.3933 23.1938 21.983C23.3555 21.5725 23.5253 21.2938 23.703 21.1471C23.8808 21.0004 24.0657 20.9255 24.2577 20.9226C24.5456 20.9182 24.7332 21.0173 24.8203 21.22C24.9074 21.4227 24.883 21.7891 24.7471 22.3193C24.5667 23.0781 24.4275 23.7883 24.3297 24.4499C24.2316 25.0995 24.1923 25.6701 24.2118 26.1619C24.2314 26.6537 24.3152 27.0364 24.4634 27.3102C24.6115 27.5719 24.8475 27.7004 25.1714 27.6954C25.6754 27.6877 26.1634 27.4222 26.6354 26.8989C27.1073 26.3636 27.5464 25.6488 27.9527 24.7545C28.3709 23.848 28.7454 22.8341 29.0763 21.7129C29.1792 21.3753 29.2838 21.1517 29.3901 21.042C29.4962 20.9204 29.6633 20.8578 29.8913 20.8543C30.0593 20.8518 30.2101 20.9035 30.3437 21.0094C30.4893 21.1152 30.5763 21.3059 30.6045 21.5815C30.6445 21.8449 30.596 22.2057 30.459 22.6639C30.2884 23.2786 30.1588 23.8266 30.0702 24.308C29.9935 24.7892 29.9406 25.2521 29.9114 25.6966C29.882 26.1291 29.8588 26.5735 29.8418 27.0298C29.8366 27.474 29.8081 27.9665 29.7564 28.5073C29.7045 29.0362 29.6179 29.6496 29.4965 30.3475C29.2971 31.4307 28.9741 32.2817 28.5275 32.9006C28.0931 33.5314 27.5719 33.9774 26.9638 34.2387C26.3557 34.5001 25.6917 34.6362 24.9718 34.6473ZM34.4437 27.1034C33.9878 27.1104 33.6083 27.0142 33.3052 26.8148C33.0021 26.6154 32.7758 26.3368 32.6263 25.9791C32.4888 25.6212 32.4287 25.22 32.4459 24.7757C32.4509 24.3196 32.5158 23.8565 32.6406 23.3866C32.7654 22.9166 32.9268 22.4821 33.1247 22.083C33.3346 21.6837 33.5637 21.3562 33.8118 21.1004C34.0599 20.8445 34.3099 20.7147 34.5619 20.7108C34.6819 20.709 34.7842 20.7314 34.869 20.7782C34.9657 20.8247 35.0388 20.8956 35.0882 20.9908C35.1375 21.0741 35.1572 21.1818 35.1472 21.314C35.1368 21.4221 35.0794 21.591 34.9749 21.8207C34.8822 22.0381 34.7662 22.2979 34.6268 22.6001C34.4872 22.8902 34.366 23.2041 34.2632 23.5417C34.1602 23.8674 34.1052 24.1982 34.0984 24.5344C34.1017 24.7504 34.1225 24.9361 34.1609 25.0915C34.1991 25.2349 34.2667 25.3419 34.3638 25.4124C34.4729 25.4828 34.6115 25.5167 34.7794 25.5141C35.1634 25.5082 35.5579 25.4062 35.9629 25.2079C36.3679 25.0097 36.7538 24.7398 37.1206 24.3981C37.4994 24.0563 37.8358 23.6851 38.1297 23.2845C38.4234 22.872 38.6511 22.4605 38.8129 22.0499L38.9852 23.9015C38.5745 24.5079 38.1208 25.0549 37.6242 25.5425C37.1396 26.03 36.6234 26.41 36.0755 26.6824C35.5396 26.9546 34.9957 27.095 34.4437 27.1034ZM38.3222 29.9784C38.0582 29.9824 37.8707 29.8833 37.7596 29.681C37.6483 29.4666 37.5663 29.2099 37.5137 28.9106C37.4863 28.683 37.4758 28.3951 37.4825 28.047C37.501 27.6867 37.5371 27.3021 37.5909 26.8932C37.6446 26.4843 37.7106 26.0933 37.7889 25.72C37.8447 25.4432 37.9179 25.13 38.0086 24.7806C38.0991 24.4191 38.1955 24.0576 38.298 23.696C38.4005 23.3344 38.5033 22.9968 38.6066 22.6832C38.7096 22.3576 38.7896 22.0983 38.8467 21.9054C38.9608 21.5196 39.0882 21.2176 39.2289 20.9994C39.3815 20.7811 39.5659 20.6703 39.7818 20.6669C39.9858 20.6638 40.1617 20.7871 40.3096 21.0369C40.4574 21.2867 40.4923 21.6042 40.4141 21.9894C40.3702 22.2541 40.2737 22.6156 40.1247 23.074C39.9755 23.5203 39.8266 23.9846 39.678 24.467C39.5412 24.9371 39.4394 25.3467 39.3728 25.6958C39.2614 26.2616 39.1849 26.7548 39.1434 27.1755C39.1018 27.5962 39.0835 27.9685 39.0885 28.2925C39.0801 28.5326 39.0832 28.7306 39.0976 28.8864C39.1119 29.0422 39.1081 29.1803 39.0859 29.3006C39.0525 29.4691 38.9708 29.6204 38.8408 29.7544C38.723 29.9002 38.5502 29.9749 38.3222 29.9784ZM45.4861 29.8147C44.7421 29.8261 44.1167 29.7337 43.6096 29.5374C43.1143 29.329 42.7319 29.0408 42.4622 28.6729C42.1924 28.2929 42.0176 27.8516 41.9379 27.3487C41.8702 26.8457 41.8917 26.2933 42.0025 25.6915C42.1255 25.1016 42.3445 24.5102 42.6595 23.9173C42.9862 23.3122 43.3918 22.7599 43.8762 22.2605C44.3727 21.7608 44.9246 21.3623 45.5321 21.065C46.1515 20.7555 46.8031 20.5955 47.487 20.585C48.123 20.5753 48.6465 20.6693 49.0575 20.867C49.4806 21.0645 49.7732 21.3601 49.9352 21.7537C50.1092 22.147 50.1409 22.6446 50.0301 23.2464C49.9416 23.7398 49.7503 24.1808 49.4562 24.5693C49.174 24.9457 48.8129 25.2693 48.373 25.54C47.9449 25.7986 47.462 26.004 46.9242 26.1563C46.3983 26.2963 45.8354 26.371 45.2355 26.3801C44.4196 26.3926 43.8722 26.305 43.5932 26.1172C43.3263 25.9293 43.215 25.715 43.2594 25.4743C43.2812 25.3299 43.3336 25.2271 43.4167 25.1658C43.4996 25.0926 43.631 25.0545 43.811 25.0518C43.9429 25.0498 44.0993 25.0714 44.28 25.1166C44.4725 25.1497 44.7548 25.1634 45.1267 25.1577C45.7267 25.1485 46.2653 25.0562 46.7427 24.8809C47.2321 24.7054 47.6305 24.4713 47.9381 24.1785C48.2455 23.8738 48.4382 23.5288 48.5163 23.1435C48.5828 22.7825 48.5307 22.5133 48.3599 22.3358C48.2012 22.1583 47.8878 22.073 47.4199 22.0802C46.952 22.0874 46.5037 22.2022 46.075 22.4248C45.6582 22.6352 45.2666 22.9233 44.9001 23.2889C44.5457 23.6544 44.246 24.073 44.0012 24.5448C43.7564 25.0166 43.59 25.5112 43.5019 26.0286C43.4245 26.4619 43.4246 26.8579 43.5021 27.2168C43.5794 27.5636 43.7638 27.8488 44.0552 28.0724C44.3585 28.2838 44.7861 28.3853 45.338 28.3768C45.962 28.3673 46.4947 28.2811 46.9363 28.1183C47.3896 27.9434 47.7707 27.7455 48.0793 27.5248C48.388 27.304 48.6491 27.114 48.8627 26.9547C49.0763 26.7954 49.2671 26.7145 49.435 26.7119C49.639 26.7088 49.7842 26.7846 49.8706 26.9393C49.9688 27.0818 49.9957 27.2734 49.9514 27.5141C49.907 27.7548 49.7489 28.0093 49.477 28.2774C49.2169 28.5335 48.8726 28.7788 48.4441 29.0133C48.0277 29.2477 47.5626 29.4409 47.0488 29.5928C46.5469 29.7325 46.026 29.8064 45.4861 29.8147ZM52.9636 29.7182C52.5317 29.7249 52.2395 29.4533 52.087 28.9036C51.9346 28.3538 51.9414 27.6216 52.1074 26.707C52.2417 26.0689 52.3963 25.5864 52.5713 25.2597C52.7582 24.9208 52.9706 24.6896 53.2088 24.5659C53.3397 24.4919 53.525 24.447 53.7648 24.4314C54.0044 24.4037 54.2562 24.3878 54.5202 24.3838C55.396 24.3704 56.2593 24.3152 57.1099 24.2181C57.9723 24.1089 58.8155 23.916 59.6394 23.6394L59.9823 24.8763C59.3621 25.1258 58.6929 25.316 57.9748 25.447C57.2568 25.5781 56.5261 25.6732 55.7829 25.7326C55.0516 25.7798 54.3379 25.8088 53.642 25.8194L52.5957 25.6734C52.7408 24.9631 52.8914 24.2167 53.0474 23.4342C53.2035 22.6517 53.3368 21.9536 53.4474 21.3399C53.491 21.0512 53.5834 20.8157 53.7247 20.6335C53.8659 20.4514 54.0265 20.3589 54.2065 20.3561C54.5064 20.3515 54.7302 20.4681 54.8779 20.7059C55.0254 20.9317 55.049 21.2973 54.9487 21.8029C54.9047 22.0676 54.8376 22.3867 54.7473 22.7601C54.657 23.1336 54.561 23.5251 54.4593 23.9347C54.3695 24.3441 54.2795 24.7355 54.1892 25.109C54.1107 25.4702 54.0493 25.7712 54.005 26.0119C53.8717 26.71 53.7732 27.3356 53.7097 27.8886C53.658 28.4295 53.6102 28.8382 53.5665 29.115C53.533 29.2835 53.4571 29.4227 53.3388 29.5325C53.2327 29.6541 53.1076 29.716 52.9636 29.7182ZM59.1729 29.6232C58.8729 29.6278 58.6543 29.4571 58.517 29.1112C58.3917 28.7651 58.3304 28.2919 58.3332 27.6918C58.3479 27.0795 58.4216 26.4063 58.5543 25.6722C58.7767 24.5167 58.9727 23.6016 59.1424 22.9269C59.3239 22.24 59.4896 21.6974 59.6395 21.2991C59.7315 21.0336 59.8479 20.7978 59.9888 20.5917C60.1296 20.3855 60.302 20.2808 60.506 20.2777C60.77 20.2737 60.9579 20.3968 61.0697 20.6471C61.1934 20.8853 61.2219 21.1788 61.1552 21.5279C61.0778 21.9611 60.953 22.4311 60.7808 22.9378C60.6205 23.4443 60.4909 23.9924 60.3919 24.582C60.2589 25.3041 60.1669 25.9596 60.1159 26.5484C60.0768 27.1251 60.0542 27.6115 60.0483 28.0076C60.0423 28.4038 60.0168 28.6982 59.9718 28.8909C59.9391 29.1074 59.8458 29.2829 59.6918 29.4172C59.5378 29.5516 59.3649 29.6203 59.1729 29.6232ZM64.4443 29.5425C64.0364 29.5488 63.7109 29.4577 63.468 29.2694C63.2371 29.0809 63.0653 28.8315 62.9525 28.5212C62.8396 28.1989 62.7802 27.8518 62.7745 27.4798C62.7807 27.0957 62.817 26.7231 62.8834 26.362C62.9507 26.049 63.041 25.6755 63.1543 25.2417C63.2797 24.8078 63.4168 24.3556 63.5656 23.8853C63.7144 23.415 63.8577 22.9747 63.9954 22.5646C64.1452 22.1542 64.2663 21.8343 64.3588 21.6049C64.5084 21.1825 64.6414 20.8565 64.7579 20.6267C64.8864 20.3967 65.0406 20.2803 65.2206 20.2775C65.3766 20.2752 65.5214 20.3269 65.655 20.4329C65.7887 20.5389 65.8868 20.6754 65.9493 20.8425C66.0239 21.0093 66.0447 21.195 66.0119 21.3996C65.9788 21.5921 65.899 21.8693 65.7726 22.2313C65.6461 22.5933 65.5023 22.9975 65.3411 23.4441C65.1799 23.8906 65.0248 24.343 64.8758 24.8013C64.7266 25.2477 64.6188 25.6514 64.5523 26.0124C64.4853 26.3375 64.442 26.6502 64.4226 26.9505C64.403 27.2389 64.4187 27.4787 64.4696 27.6699C64.5204 27.8491 64.6238 27.9376 64.7797 27.9352C65.1637 27.9293 65.6444 27.5799 66.2219 26.887C66.8113 26.1939 67.4628 25.2418 68.1764 24.0307C68.5043 23.4977 68.7907 23.0012 69.0357 22.5414C69.2807 22.0816 69.4966 21.6823 69.6834 21.3434C69.8701 20.9925 70.0519 20.7196 70.229 20.5249C70.406 20.3302 70.5845 20.2314 70.7645 20.2287C71.0405 20.2245 71.2401 20.3294 71.3634 20.5436C71.4985 20.7455 71.5627 21.0206 71.556 21.3687C71.5608 21.6807 71.5547 22.0648 71.5377 22.5211C71.5326 22.9772 71.5278 23.4454 71.5232 23.9255C71.5183 24.3936 71.525 24.8316 71.5433 25.2393C71.5899 25.9347 71.6646 26.5036 71.7674 26.9461C71.882 27.3764 71.9833 27.7229 72.0714 27.9856C72.1594 28.2483 72.1987 28.4637 72.1893 28.6319C72.1793 28.764 72.1392 28.8907 72.0691 29.0117C71.9987 29.1208 71.9101 29.2122 71.8032 29.2858C71.6964 29.3595 71.5769 29.3973 71.4449 29.3993C71.025 29.4058 70.7208 29.1344 70.5324 28.5852C70.3439 28.036 70.1947 27.3002 70.0845 26.3778C70.0539 25.9462 70.0228 25.4846 69.9913 24.9931C69.9718 24.5013 69.9643 24.0094 69.9687 23.5172C69.9852 23.0249 70.0022 22.5686 70.0198 22.1483L70.5445 22.3203C70.3469 22.7434 70.114 23.209 69.8458 23.7172C69.5775 24.2253 69.2094 24.873 68.7414 25.6603C68.3434 26.3145 67.9089 26.9392 67.4379 27.5345C66.9668 28.1177 66.4761 28.5993 65.9659 28.9792C65.4674 29.3468 64.9602 29.5346 64.4443 29.5425ZM80.7043 29.2936C80.3803 29.2986 80.1441 29.1582 79.9957 28.8724C79.8592 28.5745 79.7816 28.2096 79.763 27.7778C79.7597 27.5619 79.7619 27.3158 79.7697 27.0396C79.7774 26.7635 79.7971 26.4812 79.8287 26.1926C79.8723 25.9039 79.9103 25.6393 79.9426 25.3988C79.9873 25.1821 80.0431 24.9112 80.1102 24.5861C80.1892 24.2609 80.2681 23.9297 80.347 23.5924C80.4376 23.243 80.5168 22.9237 80.5843 22.6347C80.6637 22.3334 80.7202 22.1045 80.7539 21.948C80.7755 21.7916 80.7377 21.6782 80.6406 21.6077C80.5434 21.5252 80.3747 21.4857 80.1348 21.4894C79.9428 21.4923 79.733 21.5076 79.5054 21.535C79.2778 21.5625 79.0324 21.6023 78.7691 21.6543C78.159 21.7837 77.616 21.984 77.1401 22.2553C76.676 22.5145 76.4165 22.8065 76.3614 23.1314C76.3057 23.4082 76.3395 23.6598 76.463 23.8859C76.5983 24.0998 76.8589 24.2699 77.2449 24.396C77.6429 24.5219 78.2138 24.5792 78.9577 24.5678C79.2217 24.5637 79.4856 24.5537 79.7494 24.5377C80.0132 24.5216 80.2649 24.4998 80.5045 24.4721C80.7559 24.4322 80.9655 24.405 81.1333 24.3905C81.3009 24.3639 81.4087 24.3502 81.4567 24.3495C81.7567 24.3449 82.0089 24.3591 82.2134 24.3919C82.418 24.4248 82.4979 24.5496 82.4532 24.7663C82.4209 25.0068 82.2918 25.2008 82.066 25.3483C81.8523 25.4956 81.5659 25.602 81.2068 25.6675C80.8598 25.7328 80.4523 25.7691 79.9844 25.7762L78.1306 25.8046C77.4826 25.8145 76.8811 25.7157 76.3258 25.5082C75.7826 25.3005 75.3639 25.0008 75.0699 24.6093C74.7879 24.2176 74.6908 23.757 74.7787 23.2276C74.8458 22.9025 74.9966 22.5642 75.2313 22.2125C75.4777 21.8487 75.8325 21.5073 76.2957 21.1881C76.7709 20.8688 77.3909 20.6073 78.1559 20.4036C78.7056 20.2511 79.1662 20.1541 79.5376 20.1124C79.909 20.0707 80.2807 20.047 80.6527 20.0413C81.1206 20.0341 81.4876 20.0945 81.7536 20.2225C82.0195 20.3504 82.2023 20.5277 82.3018 20.7542C82.4132 20.9805 82.4413 21.2441 82.3859 21.545C82.3417 21.7977 82.2684 22.1048 82.166 22.4664C82.0633 22.816 81.9608 23.1777 81.8585 23.5513C81.768 23.9127 81.689 24.2379 81.6214 24.527C81.5658 24.8159 81.5166 25.1287 81.4738 25.4654C81.4307 25.7901 81.3996 26.1086 81.3804 26.4209C81.3612 26.7333 81.3533 27.0034 81.3568 27.2314C81.3608 27.4953 81.3711 27.7772 81.3877 28.077C81.4161 28.3646 81.4192 28.5626 81.3968 28.6709C81.3754 28.8393 81.2996 28.9845 81.1695 29.1065C81.0393 29.2285 80.8843 29.2909 80.7043 29.2936ZM74.3687 29.3726C74.1528 29.3759 73.9837 29.3065 73.8615 29.1643C73.7511 29.01 73.7125 28.8366 73.7455 28.644C73.7795 28.5115 73.8675 28.3781 74.0094 28.244C74.1512 28.0978 74.3888 27.9381 74.7222 27.765C75.2937 27.4682 75.8579 27.0875 76.4149 26.6229C76.9838 26.1582 77.552 25.6394 78.1193 25.0667L79.2631 25.6972C78.8619 26.1474 78.4247 26.5922 77.9513 27.0315C77.4898 27.4586 77.0277 27.8497 76.5651 28.2048C76.1145 28.5598 75.6988 28.8422 75.3179 29.052C74.9371 29.2619 74.6207 29.3687 74.3687 29.3726ZM92.135 26.1663C91.6089 26.2944 91.2488 26.2879 91.0546 26.1468C90.8604 26.0058 90.7854 25.8089 90.8295 25.5562C90.8624 25.3517 90.9674 25.158 91.1447 24.9753C91.3219 24.7926 91.6795 24.6371 92.2176 24.5088C93.3533 24.2154 94.4959 23.9879 95.6456 23.8263C96.7951 23.6527 97.8978 23.5578 98.9539 23.5416C99.3739 23.5352 99.6809 23.6085 99.8749 23.7615C100.081 23.9024 100.162 24.0932 100.118 24.3339C100.097 24.5382 100.01 24.6956 99.8549 24.806C99.7129 24.9162 99.4859 24.9736 99.1739 24.9784C98.4777 24.9891 97.8422 25.0228 97.267 25.0796C96.7038 25.1362 96.1828 25.2042 95.7039 25.2836C95.2369 25.3507 94.8001 25.4354 94.3936 25.5376C93.987 25.6279 93.5985 25.7298 93.2282 25.8435C92.8577 25.9452 92.4933 26.0528 92.135 26.1663ZM93.0037 21.7605C92.477 21.8525 92.1166 21.8281 91.9224 21.687C91.7282 21.546 91.6589 21.331 91.7145 21.0421C91.7592 20.8254 91.8884 20.6434 92.1022 20.4961C92.3278 20.3366 92.71 20.2168 93.2488 20.1365C93.9787 19.9933 94.7212 19.886 95.4762 19.8144C96.2312 19.7428 96.9445 19.6959 97.6163 19.6736C98.2878 19.6393 98.8816 19.6183 99.3979 19.6104C100.13 19.5992 100.629 19.6695 100.895 19.8215C101.161 19.9614 101.272 20.1577 101.228 20.4104C101.183 20.6151 101.084 20.7787 100.93 20.9011C100.775 21.0114 100.542 21.069 100.23 21.0738C99.3179 21.0877 98.5205 21.118 97.8371 21.1644C97.1536 21.1989 96.5363 21.2503 95.9853 21.3188C95.4461 21.375 94.937 21.4428 94.4582 21.5222C93.9792 21.5895 93.4943 21.669 93.0037 21.7605ZM111.903 33.3166C111.171 33.3278 110.552 33.2652 110.046 33.129C109.54 33.0047 109.171 32.8243 108.94 32.5878C108.708 32.3513 108.62 32.0947 108.676 31.8178C108.709 31.6253 108.784 31.4681 108.903 31.3463C109.033 31.2362 109.212 31.1795 109.44 31.176C109.584 31.1738 109.717 31.2018 109.837 31.2599C109.958 31.3181 110.097 31.382 110.254 31.4516C110.412 31.5332 110.629 31.6019 110.906 31.6576C111.195 31.7132 111.573 31.7374 112.041 31.7303C112.617 31.7214 113.095 31.5881 113.475 31.3303C113.855 31.0724 114.156 30.7138 114.377 30.2543C114.61 29.7947 114.781 29.264 114.892 28.6623C114.959 28.3132 115.002 27.9705 115.021 27.6342C115.051 27.2977 115.082 26.9372 115.112 26.5527C115.142 26.1681 115.183 25.7235 115.236 25.2186C115.288 24.7017 115.374 24.0943 115.496 23.3964L116.062 23.9098C115.69 24.7436 115.317 25.4274 114.941 25.9612C114.565 26.483 114.199 26.8907 113.844 27.1841C113.488 27.4656 113.149 27.6628 112.826 27.7758C112.516 27.8765 112.235 27.9289 111.983 27.9327C110.939 27.9487 110.206 27.5278 109.785 26.6702C109.364 25.8005 109.33 24.4029 109.685 22.4772C109.829 21.6709 109.975 21.0626 110.125 20.6523C110.287 20.2418 110.457 19.9631 110.634 19.8164C110.812 19.6697 110.997 19.5948 111.189 19.5919C111.369 19.5891 111.514 19.6349 111.623 19.7292C111.732 19.8116 111.789 19.9547 111.792 20.1587C111.807 20.3625 111.769 20.6391 111.678 20.9886C111.498 21.7474 111.359 22.4576 111.261 23.1192C111.163 23.7688 111.124 24.3394 111.143 24.8312C111.163 25.323 111.247 25.7057 111.395 25.9795C111.543 26.2412 111.779 26.3696 112.103 26.3647C112.607 26.357 113.095 26.0915 113.567 25.5682C114.039 25.0329 114.478 24.3181 114.884 23.4238C115.302 22.5173 115.677 21.5034 116.008 20.3822C116.11 20.0446 116.215 19.821 116.321 19.7113C116.428 19.5897 116.595 19.5271 116.823 19.5236C116.991 19.5211 117.141 19.5728 117.275 19.6787C117.421 19.7845 117.508 19.9752 117.536 20.2508C117.576 20.5142 117.527 20.875 117.39 21.3332C117.22 21.9478 117.09 22.4959 117.001 22.9773C116.925 23.4585 116.872 23.9214 116.843 24.3659C116.813 24.7984 116.79 25.2428 116.773 25.6991C116.768 26.1433 116.739 26.6358 116.688 27.1766C116.636 27.7055 116.549 28.3189 116.428 29.0168C116.284 29.8231 116.066 30.4985 115.775 31.043C115.483 31.5996 115.142 32.0428 114.751 32.3729C114.36 32.7029 113.92 32.9377 113.43 33.0772C112.952 33.2285 112.443 33.3083 111.903 33.3166ZM122.891 28.6118C122.003 28.6254 121.269 28.4626 120.688 28.1235C120.118 27.7722 119.715 27.2863 119.477 26.6659C119.251 26.0332 119.216 25.3017 119.372 24.4712C119.505 23.7611 119.753 23.1032 120.115 22.4976C120.49 21.8798 120.95 21.3447 121.495 20.8923C122.052 20.4277 122.658 20.0644 123.315 19.8023C123.971 19.5402 124.647 19.4039 125.342 19.3932C125.654 19.3884 125.931 19.4322 126.173 19.5245C126.414 19.6049 126.59 19.7342 126.701 19.9125C126.823 20.0786 126.856 20.2882 126.8 20.541C126.756 20.7698 126.669 20.9511 126.539 21.0851C126.408 21.2071 126.253 21.2695 126.073 21.2723C125.941 21.2743 125.839 21.2518 125.766 21.205C125.694 21.1581 125.615 21.1113 125.53 21.0645C125.457 21.0177 125.331 20.9956 125.151 20.9983C124.467 21.0088 123.828 21.1926 123.233 21.5498C122.638 21.8949 122.135 22.3467 121.724 22.905C121.324 23.4512 121.063 24.0373 120.941 24.6632C120.864 25.1684 120.883 25.6062 120.997 25.9765C121.122 26.3346 121.343 26.6133 121.658 26.8125C121.985 27.0115 122.382 27.1074 122.85 27.1003C123.378 27.0922 123.797 27.0258 124.107 26.901C124.417 26.7643 124.661 26.6165 124.839 26.4578C125.028 26.2988 125.182 26.1585 125.3 26.0367C125.418 25.9028 125.555 25.8347 125.711 25.8323C125.939 25.8288 126.096 25.8805 126.182 25.9872C126.279 26.0937 126.306 26.2793 126.262 26.544C126.184 26.9412 125.986 27.2983 125.666 27.6152C125.347 27.9202 124.943 28.1604 124.453 28.3359C123.976 28.5112 123.455 28.6032 122.891 28.6118ZM135.326 28.4395C135.038 28.4439 134.838 28.2909 134.725 27.9806C134.613 27.6703 134.553 27.2752 134.545 26.7952C134.54 26.4353 134.564 26.0329 134.617 25.588C134.67 25.1311 134.729 24.6742 134.794 24.2171C134.859 23.7601 134.918 23.3331 134.972 22.9363C135.038 22.5392 135.087 22.2084 135.119 21.9439C135.162 21.6072 135.187 21.3188 135.196 21.0786C135.216 20.8383 135.224 20.5861 135.22 20.3221L135.569 20.7849L134.273 20.8047C133.89 20.8106 133.428 20.8356 132.888 20.8799C132.361 20.912 131.839 20.956 131.324 21.0119C130.809 21.0678 130.378 21.1404 130.031 21.2297L130.862 20.2268C130.897 20.8984 130.865 21.577 130.767 22.2625C130.682 22.9479 130.567 23.6818 130.423 24.4641C130.356 24.8131 130.284 25.2043 130.207 25.6375C130.13 26.0707 130.046 26.4861 129.956 26.8835C129.866 27.2809 129.781 27.6003 129.701 27.8415C129.632 28.0346 129.526 28.1982 129.384 28.3324C129.242 28.4546 129.069 28.5173 128.865 28.5204C128.625 28.5241 128.449 28.4127 128.338 28.1864C128.226 27.9601 128.204 27.6664 128.27 27.3053C128.314 27.0406 128.376 26.7397 128.454 26.4024C128.533 26.0532 128.606 25.692 128.672 25.319C128.738 24.9459 128.799 24.6089 128.854 24.308C128.977 23.7061 129.053 23.1889 129.083 22.7564C129.124 22.3117 129.154 21.9212 129.173 21.5849C129.204 21.2483 129.247 20.9236 129.302 20.6108C129.37 20.3457 129.475 20.1401 129.617 19.9939C129.77 19.8475 129.985 19.7422 130.26 19.678C130.666 19.5878 131.139 19.5205 131.679 19.4763C132.23 19.4198 132.794 19.3812 133.369 19.3604C133.957 19.3394 134.515 19.3248 135.043 19.3167C135.739 19.3061 136.245 19.4364 136.561 19.7076C136.877 19.9787 136.969 20.4634 136.835 21.1615C136.791 21.4022 136.736 21.7391 136.671 22.1722C136.605 22.6052 136.529 23.0864 136.441 23.6159C136.365 24.1451 136.301 24.6801 136.249 25.221C136.197 25.7498 136.169 26.2423 136.164 26.6985C136.155 26.8906 136.158 27.0886 136.173 27.2924C136.188 27.4962 136.185 27.6702 136.163 27.8146C136.129 27.9711 136.036 28.1166 135.882 28.251C135.739 28.3731 135.554 28.436 135.326 28.4395ZM142.207 28.3341C141.211 28.3494 140.435 28.1813 139.877 27.8297C139.32 27.4662 138.952 26.9738 138.775 26.3525C138.597 25.7191 138.58 25.0053 138.724 24.211C138.847 23.621 139.066 23.0296 139.381 22.4367C139.707 21.8316 140.113 21.2794 140.597 20.7799C141.094 20.2802 141.646 19.8817 142.253 19.5844C142.873 19.2749 143.524 19.1149 144.208 19.1044C144.844 19.0947 145.368 19.1887 145.779 19.3864C146.202 19.584 146.494 19.8795 146.656 20.2731C146.83 20.6665 146.862 21.1641 146.751 21.7658C146.641 22.4276 146.356 22.99 145.895 23.4531C145.434 23.9042 144.857 24.2551 144.165 24.5057C143.485 24.7562 142.749 24.8875 141.957 24.8996C141.141 24.9121 140.593 24.8244 140.314 24.6367C140.048 24.4487 139.936 24.2344 139.981 23.9937C140.002 23.8494 140.055 23.7466 140.138 23.6853C140.221 23.612 140.352 23.574 140.532 23.5712C140.664 23.5692 140.82 23.5908 141.001 23.6361C141.194 23.6691 141.476 23.6828 141.848 23.6771C142.448 23.6679 142.987 23.5757 143.464 23.4003C143.953 23.2248 144.352 22.9907 144.659 22.698C144.967 22.3932 145.159 22.0482 145.238 21.663C145.304 21.3019 145.252 21.0327 145.081 20.8553C144.922 20.6777 144.609 20.5925 144.141 20.5996C143.673 20.6068 143.225 20.7217 142.796 20.9443C142.379 21.1547 141.988 21.4427 141.621 21.8083C141.267 22.1738 140.967 22.5925 140.722 23.0643C140.478 23.5361 140.311 24.0307 140.223 24.5481C140.146 24.9813 140.146 25.3774 140.223 25.7362C140.301 26.0831 140.485 26.3683 140.776 26.5918C141.08 26.8032 141.507 26.9047 142.059 26.8962C142.683 26.8867 143.216 26.8005 143.657 26.6378C144.111 26.4628 144.492 26.2649 144.801 26.0442C145.109 25.8234 145.37 25.6334 145.584 25.4741C145.797 25.3148 145.988 25.2339 146.156 25.2313C146.36 25.2282 146.505 25.304 146.592 25.4587C146.69 25.6012 146.717 25.7928 146.673 26.0335C146.628 26.2742 146.47 26.5287 146.198 26.7969C145.938 27.0529 145.594 27.2982 145.165 27.5328C144.749 27.7672 144.284 27.9603 143.77 28.1122C143.268 28.2519 142.747 28.3259 142.207 28.3341ZM148.656 28.3074C148.512 28.3096 148.385 28.2696 148.276 28.1872C148.167 28.1169 148.099 27.9979 148.073 27.8303C148.046 27.6627 148.091 27.458 148.207 27.2162C148.311 26.9386 148.504 26.5936 148.785 26.1812C149.067 25.7688 149.42 25.3074 149.844 24.7968C150.269 24.2863 150.747 23.7569 151.278 23.2087C151.822 22.6603 152.408 22.1113 153.035 21.5616C153.663 21.0119 154.315 20.5039 154.992 20.0375C155.431 19.7067 155.787 19.4613 156.061 19.301C156.346 19.1287 156.573 19.0172 156.74 18.9666C156.907 18.916 157.063 18.8897 157.207 18.8875C157.399 18.8845 157.556 18.9421 157.677 19.0603C157.811 19.1662 157.862 19.3335 157.829 19.562C157.796 19.7425 157.714 19.9058 157.585 20.0518C157.455 20.1978 157.271 20.3386 157.033 20.4743C156.069 21.0051 155.143 21.6554 154.255 22.4251C153.378 23.1946 152.551 24.0293 151.773 24.9293C150.994 25.8174 150.282 26.7224 149.636 27.6444C149.459 27.8751 149.288 28.0397 149.121 28.1383C148.967 28.2487 148.812 28.3051 148.656 28.3074ZM155.315 28.1695C155.135 28.1723 154.972 28.1207 154.826 28.015C154.693 27.909 154.557 27.701 154.421 27.3911C154.148 26.8432 153.833 26.266 153.476 25.6594C153.131 25.0526 152.762 24.4581 152.369 23.8761C151.987 23.2819 151.595 22.7298 151.191 22.2199C150.799 21.7099 150.427 21.2775 150.073 20.9229C149.829 20.6866 149.646 20.4674 149.523 20.2652C149.4 20.0631 149.36 19.8417 149.405 19.601C149.427 19.4926 149.462 19.3901 149.508 19.2933C149.555 19.1966 149.62 19.1236 149.703 19.0743C149.798 19.0249 149.918 18.999 150.062 18.9968C150.302 18.9932 150.5 19.0501 150.658 19.1677C150.828 19.2851 151.06 19.5036 151.352 19.8232C151.572 20.0478 151.822 20.344 152.104 20.7118C152.386 21.0795 152.68 21.495 152.987 21.9584C153.306 22.4216 153.62 22.8908 153.927 23.3662C154.234 23.8295 154.517 24.2753 154.776 24.7034C155.046 25.1313 155.262 25.5 155.423 25.8096C155.694 26.3095 155.862 26.691 155.926 26.954C155.99 27.2051 156.005 27.4149 155.972 27.5834C155.939 27.7639 155.869 27.903 155.762 28.0006C155.656 28.1103 155.507 28.1666 155.315 28.1695ZM168.062 27.9204C167.174 27.934 166.439 27.7712 165.858 27.432C165.289 27.0807 164.885 26.5948 164.648 25.9744C164.422 25.3418 164.387 24.6102 164.542 23.7798C164.675 23.0696 164.923 22.4118 165.286 21.8061C165.66 21.1883 166.12 20.6532 166.665 20.2008C167.222 19.7363 167.829 19.3729 168.485 19.1109C169.141 18.8488 169.817 18.7124 170.513 18.7018C170.825 18.697 171.102 18.7408 171.343 18.8331C171.584 18.9134 171.76 19.0427 171.871 19.221C171.994 19.3872 172.027 19.5967 171.971 19.8496C171.926 20.0783 171.839 20.2597 171.709 20.3937C171.579 20.5157 171.424 20.5781 171.244 20.5808C171.112 20.5828 171.01 20.5604 170.937 20.5135C170.864 20.4666 170.785 20.4198 170.701 20.3731C170.628 20.3262 170.502 20.3041 170.322 20.3069C169.638 20.3174 168.998 20.5012 168.404 20.8583C167.809 21.2035 167.306 21.6552 166.894 22.2136C166.495 22.7598 166.234 23.3458 166.111 23.9718C166.035 24.477 166.054 24.9148 166.167 25.2851C166.293 25.6432 166.513 25.9218 166.828 26.121C167.155 26.3201 167.553 26.416 168.021 26.4088C168.549 26.4007 168.968 26.3343 169.278 26.2096C169.588 26.0728 169.831 25.9251 170.009 25.7663C170.199 25.6074 170.353 25.467 170.471 25.3452C170.589 25.2114 170.726 25.1433 170.882 25.1409C171.11 25.1374 171.266 25.189 171.352 25.2957C171.45 25.4022 171.477 25.5878 171.433 25.8525C171.355 26.2498 171.156 26.6069 170.837 26.9238C170.518 27.2287 170.113 27.4689 169.624 27.6444C169.146 27.8198 168.626 27.9117 168.062 27.9204ZM173.844 20.577C173.568 20.5812 173.351 20.5005 173.192 20.335C173.046 20.1692 172.995 19.9779 173.04 19.7612C173.073 19.6287 173.144 19.5136 173.25 19.416C173.357 19.3183 173.547 19.2314 173.822 19.1552C174.252 19.0286 174.827 18.9118 175.545 18.8048C176.276 18.6976 177.127 18.6365 178.099 18.6217C178.603 18.6139 179.065 18.6189 179.485 18.6364C179.917 18.6418 180.392 18.6766 180.909 18.7407C181.318 18.7824 181.631 18.8736 181.849 19.0143C182.079 19.1548 182.178 19.3153 182.145 19.4958C182.123 19.6282 182.07 19.749 181.988 19.8583C181.918 19.9554 181.811 20.035 181.668 20.0972C181.537 20.1592 181.369 20.1918 181.165 20.1949C180.913 20.1988 180.619 20.1913 180.283 20.1724C179.946 20.1536 179.586 20.1351 179.202 20.117C178.829 20.0867 178.445 20.0745 178.049 20.0806C177.221 20.0933 176.556 20.1395 176.053 20.2192C175.55 20.2869 175.131 20.3653 174.796 20.4544C174.461 20.5316 174.144 20.5724 173.844 20.577ZM176.566 27.8442C176.302 27.8482 176.102 27.7433 175.967 27.5293C175.843 27.3152 175.755 27.0405 175.702 26.7053C175.674 26.4537 175.669 26.1117 175.686 25.6794C175.716 25.2349 175.768 24.754 175.844 24.2368C175.92 23.7076 176.002 23.1963 176.091 22.7029C176.213 22.0409 176.318 21.4572 176.406 20.9518C176.506 20.4342 176.584 20.007 176.639 19.6701L178.257 19.5373C178.212 19.7421 178.156 20.0009 178.089 20.314C178.033 20.6149 177.972 20.9579 177.906 21.3429C177.84 21.716 177.768 22.1011 177.69 22.4984C177.624 22.8834 177.558 23.2565 177.491 23.6175C177.38 24.2193 177.31 24.7244 177.28 25.133C177.262 25.5293 177.261 25.8533 177.277 26.1051C177.293 26.3569 177.308 26.5667 177.323 26.7345C177.337 26.8903 177.333 27.0344 177.311 27.1667C177.289 27.2991 177.243 27.4198 177.173 27.5289C177.102 27.626 177.013 27.6993 176.906 27.749C176.799 27.8106 176.686 27.8424 176.566 27.8442ZM185.055 32.1968C184.323 32.208 183.704 32.1455 183.198 32.0092C182.692 31.8849 182.323 31.7045 182.091 31.4681C181.86 31.2316 181.772 30.9749 181.827 30.698C181.905 30.2768 182.16 30.0628 182.592 30.0562C182.736 30.054 182.868 30.082 182.989 30.1402C183.11 30.1983 183.249 30.2622 183.406 30.3318C183.563 30.4134 183.78 30.4821 184.057 30.5379C184.346 30.5934 184.725 30.6177 185.192 30.6105C185.768 30.6017 186.246 30.4683 186.627 30.2105C187.007 29.9526 187.307 29.594 187.528 29.1346C187.761 28.6749 187.933 28.1443 188.044 27.5425C188.111 27.1934 188.153 26.8507 188.172 26.5144C188.203 26.1779 188.233 25.8174 188.264 25.4329C188.294 25.0484 188.335 24.6037 188.387 24.0988C188.439 23.582 188.526 22.9746 188.647 22.2766L189.213 22.79C188.842 23.6238 188.468 24.3076 188.093 24.8414C187.716 25.3632 187.351 25.7709 186.995 26.0644C186.639 26.3458 186.3 26.5431 185.978 26.656C185.668 26.7568 185.386 26.8091 185.134 26.8129C184.09 26.8289 183.358 26.4081 182.937 25.5504C182.515 24.6808 182.482 23.2831 182.837 21.3575C182.98 20.5512 183.127 19.9429 183.277 19.5325C183.438 19.122 183.608 18.8434 183.786 18.6966C183.964 18.5499 184.149 18.475 184.341 18.4721C184.629 18.4677 184.816 18.5668 184.903 18.7695C184.99 18.9722 184.966 19.3386 184.83 19.8688C184.65 20.6276 184.51 21.3378 184.413 21.9994C184.315 22.649 184.275 23.2197 184.295 23.7114C184.314 24.2032 184.398 24.5859 184.546 24.8597C184.694 25.1215 184.93 25.2499 185.254 25.2449C185.758 25.2372 186.246 24.9717 186.718 24.4484C187.19 23.9131 187.629 23.1983 188.036 22.304C188.454 21.3975 188.828 20.3836 189.159 19.2624C189.262 18.9248 189.367 18.7012 189.473 18.5916C189.579 18.4699 189.746 18.4074 189.974 18.4039C190.142 18.4013 190.293 18.453 190.427 18.559C190.572 18.6647 190.659 18.8554 190.687 19.131C190.727 19.3945 190.679 19.7552 190.542 20.2134C190.371 20.8281 190.242 21.3761 190.153 21.8575C190.076 22.3388 190.024 22.8016 189.994 23.2461C189.965 23.6786 189.942 24.123 189.925 24.5794C189.92 25.0235 189.891 25.516 189.839 26.0568C189.787 26.5857 189.701 27.1991 189.579 27.897C189.38 28.9802 189.057 29.8312 188.61 30.4502C188.176 31.0809 187.655 31.5269 187.047 31.7882C186.439 32.0496 185.775 32.1858 185.055 32.1968ZM192.837 26.551C192.988 26.1887 193.179 25.7837 193.413 25.3361C193.646 24.8764 193.896 24.3985 194.165 23.9024C194.445 23.406 194.726 22.9217 195.007 22.4493C195.299 21.9648 195.575 21.5285 195.833 21.1405C196.173 20.6433 196.514 20.176 196.855 19.7387C197.197 19.3014 197.521 18.9484 197.829 18.6797C198.149 18.3987 198.423 18.2565 198.651 18.2531C198.891 18.2494 199.102 18.3482 199.285 18.5494C199.48 18.7504 199.654 19.0838 199.805 19.5495C199.906 19.884 200.014 20.3084 200.13 20.8227C200.246 21.337 200.357 21.8994 200.462 22.5098C200.567 23.1083 200.655 23.713 200.724 24.324C200.793 24.935 200.838 25.4984 200.858 26.0142L199.276 26.1824C199.255 25.6067 199.204 24.9834 199.122 24.3126C199.051 23.6296 198.957 22.9709 198.839 22.3366C198.722 21.7024 198.599 21.1522 198.472 20.6861C198.345 20.208 198.214 19.8859 198.079 19.72L198.779 19.5652C198.401 19.9791 198.001 20.4653 197.577 21.0238C197.166 21.5822 196.779 22.1822 196.416 22.8238C196.148 23.296 195.896 23.7439 195.663 24.1675C195.429 24.5911 195.214 25.0025 195.016 25.4015C194.83 25.7884 194.644 26.1873 194.458 26.5982L192.837 26.551ZM200.683 29.8693C200.443 29.873 200.256 29.7918 200.121 29.6259C199.986 29.4599 199.942 29.2746 199.986 29.0699C200.008 28.9255 200.083 28.7084 200.211 28.4184C200.338 28.1404 200.471 27.8203 200.61 27.4581C200.748 27.096 200.851 26.7224 200.917 26.3373L201.579 27.2453C201.41 27.2239 201.146 27.2039 200.786 27.1854C200.437 27.1668 199.993 27.1615 199.453 27.1698C198.949 27.1775 198.428 27.1915 197.888 27.2118C197.36 27.2199 196.832 27.2339 196.304 27.254C195.788 27.2739 195.285 27.3056 194.794 27.3492C194.302 27.3807 193.828 27.4179 193.373 27.4609C192.918 27.5159 192.505 27.5762 192.134 27.6419L192.826 27.0012C192.804 27.1576 192.783 27.3499 192.763 27.5783C192.742 27.8066 192.728 28.0349 192.719 28.263C192.711 28.5032 192.702 28.7133 192.693 28.8935C192.696 29.0735 192.698 29.1995 192.699 29.2714C192.69 29.4756 192.62 29.6327 192.49 29.7427C192.36 29.8647 192.193 29.9273 191.989 29.9304C191.701 29.9348 191.501 29.8238 191.39 29.5975C191.278 29.3712 191.22 29.1021 191.215 28.7901C191.2 28.5983 191.202 28.3522 191.222 28.0519C191.241 27.7516 191.268 27.5171 191.301 27.3486C191.346 27.1559 191.416 26.9868 191.509 26.8414C191.591 26.6841 191.715 26.5502 191.881 26.4396C192.048 26.3291 192.262 26.2478 192.526 26.1957C192.825 26.1431 193.226 26.095 193.73 26.0513C194.245 25.9954 194.82 25.9506 195.456 25.9169C196.103 25.8709 196.769 25.8367 197.452 25.8143C198.136 25.7798 198.79 25.7578 199.414 25.7483C199.618 25.7451 199.834 25.7418 200.061 25.7383C200.301 25.7347 200.548 25.7369 200.8 25.745C201.052 25.7532 201.292 25.7735 201.521 25.806C201.869 25.8367 202.105 25.9411 202.228 26.1192C202.362 26.2972 202.397 26.5787 202.33 26.9638C202.275 27.2646 202.19 27.584 202.075 27.9218C201.96 28.2596 201.821 28.5737 201.658 28.8643C201.506 29.1666 201.342 29.4092 201.165 29.5919C200.999 29.7745 200.839 29.8669 200.683 29.8693ZM207.397 27.3363C206.653 27.3476 206.027 27.2552 205.52 27.0589C205.025 26.8505 204.643 26.5623 204.373 26.1944C204.103 25.8145 203.928 25.3731 203.849 24.8703C203.781 24.3672 203.803 23.8149 203.913 23.2131C204.036 22.6231 204.255 22.0317 204.57 21.4388C204.897 20.8337 205.303 20.2815 205.787 19.782C206.283 19.2823 206.835 18.8839 207.443 18.5865C208.062 18.277 208.714 18.117 209.398 18.1065C210.034 18.0968 210.557 18.1908 210.968 18.3885C211.391 18.5861 211.684 18.8816 211.846 19.2752C212.02 19.6686 212.052 20.1662 211.941 20.7679C211.852 21.2613 211.661 21.7023 211.367 22.0909C211.085 22.4672 210.724 22.7908 210.284 23.0616C209.856 23.3201 209.373 23.5256 208.835 23.6778C208.309 23.8179 207.746 23.8925 207.146 23.9017C206.33 23.9142 205.783 23.8265 205.504 23.6388C205.237 23.4509 205.126 23.2365 205.17 22.9958C205.192 22.8515 205.244 22.7487 205.328 22.6874C205.41 22.6141 205.542 22.5761 205.722 22.5733C205.854 22.5713 206.01 22.5929 206.191 22.6382C206.383 22.6712 206.666 22.6849 207.038 22.6792C207.638 22.67 208.176 22.5778 208.654 22.4024C209.143 22.2269 209.541 21.9928 209.849 21.7001C210.156 21.3953 210.349 21.0503 210.427 20.6651C210.494 20.304 210.442 20.0348 210.271 19.8574C210.112 19.6798 209.799 19.5946 209.331 19.6017C208.863 19.6089 208.415 19.7238 207.986 19.9464C207.569 20.1568 207.177 20.4448 206.811 20.8105C206.457 21.1759 206.157 21.5946 205.912 22.0664C205.667 22.5382 205.501 23.0328 205.413 23.5502C205.335 23.9834 205.335 24.3795 205.413 24.7383C205.49 25.0852 205.675 25.3704 205.966 25.5939C206.269 25.8053 206.697 25.9068 207.249 25.8983C207.873 25.8888 208.406 25.8026 208.847 25.6399C209.3 25.4649 209.681 25.267 209.99 25.0463C210.299 24.8255 210.56 24.6355 210.774 24.4762C210.987 24.3169 211.178 24.236 211.346 24.2334C211.55 24.2303 211.695 24.3061 211.781 24.4608C211.88 24.6033 211.907 24.7949 211.862 25.0356C211.818 25.2763 211.66 25.5308 211.388 25.799C211.128 26.055 210.783 26.3003 210.355 26.5349C209.939 26.7693 209.473 26.9624 208.96 27.1143C208.458 27.254 207.937 27.328 207.397 27.3363ZM214.874 27.2398C214.443 27.2464 214.15 26.9748 213.998 26.4251C213.845 25.8754 213.852 25.1432 214.018 24.2285C214.153 23.5904 214.307 23.108 214.482 22.7813C214.669 22.4424 214.881 22.2111 215.12 22.0874C215.251 22.0134 215.436 21.9686 215.676 21.9529C215.915 21.9252 216.167 21.9094 216.431 21.9053C217.307 21.8919 218.17 21.8367 219.021 21.7397C219.883 21.6305 220.726 21.4375 221.55 21.1609L221.893 22.3978C221.273 22.6473 220.604 22.8376 219.886 22.9686C219.168 23.0996 218.437 23.1948 217.694 23.2542C216.962 23.3014 216.249 23.3303 215.553 23.3409L214.507 23.1949C214.652 22.4846 214.802 21.7382 214.958 20.9558C215.114 20.1733 215.248 19.4752 215.358 18.8614C215.402 18.5727 215.494 18.3373 215.635 18.1551C215.777 17.9729 215.937 17.8804 216.117 17.8777C216.417 17.8731 216.641 17.9897 216.789 18.2274C216.936 18.4532 216.96 18.8189 216.86 19.3245C216.816 19.5892 216.748 19.9082 216.658 20.2817C216.568 20.6551 216.472 21.0466 216.37 21.4562C216.28 21.8656 216.19 22.2571 216.1 22.6305C216.022 22.9917 215.96 23.2927 215.916 23.5334C215.783 24.2315 215.684 24.8571 215.621 25.4102C215.569 25.951 215.521 26.3598 215.477 26.6365C215.444 26.805 215.368 26.9442 215.25 27.054C215.144 27.1757 215.018 27.2376 214.874 27.2398ZM221.084 27.1447C220.784 27.1493 220.565 26.9787 220.428 26.6327C220.303 26.2866 220.241 25.8135 220.244 25.2134C220.259 24.6011 220.332 23.9279 220.465 23.1937C220.688 22.0382 220.884 21.1231 221.053 20.4484C221.235 19.7616 221.4 19.219 221.55 18.8206C221.642 18.5552 221.759 18.3194 221.9 18.1132C222.04 17.907 222.213 17.8024 222.417 17.7992C222.681 17.7952 222.869 17.9183 222.981 18.1687C223.104 18.4068 223.133 18.7004 223.066 19.0495C222.989 19.4827 222.864 19.9527 222.692 20.4593C222.531 20.9659 222.402 21.5139 222.303 22.1035C222.17 22.8256 222.078 23.4811 222.027 24.0699C221.988 24.6466 221.965 25.133 221.959 25.5292C221.953 25.9253 221.928 26.2197 221.883 26.4124C221.85 26.629 221.757 26.8044 221.603 26.9388C221.449 27.0731 221.276 27.1418 221.084 27.1447ZM225.237 19.7903C224.961 19.7945 224.743 19.7139 224.585 19.5483C224.438 19.3825 224.387 19.1912 224.432 18.9745C224.466 18.842 224.536 18.7269 224.643 18.6293C224.749 18.5316 224.94 18.4447 225.215 18.3685C225.645 18.2419 226.219 18.1251 226.938 18.0181C227.668 17.9109 228.519 17.8498 229.491 17.835C229.995 17.8273 230.457 17.8322 230.877 17.8497C231.31 17.8551 231.784 17.8899 232.301 17.954C232.71 17.9957 233.023 18.0869 233.242 18.2276C233.472 18.3681 233.57 18.5286 233.537 18.7091C233.515 18.8415 233.463 18.9623 233.38 19.0716C233.31 19.1687 233.203 19.2483 233.06 19.3105C232.929 19.3725 232.762 19.4051 232.558 19.4082C232.306 19.4121 232.011 19.4046 231.675 19.3857C231.339 19.3669 230.978 19.3484 230.594 19.3303C230.222 19.3 229.837 19.2878 229.441 19.2939C228.614 19.3066 227.948 19.3528 227.445 19.4325C226.942 19.5002 226.523 19.5786 226.189 19.6677C225.854 19.7449 225.536 19.7857 225.237 19.7903ZM227.958 27.0575C227.694 27.0616 227.494 26.9566 227.359 26.7426C227.236 26.5285 227.148 26.2538 227.095 25.9186C227.067 25.667 227.061 25.325 227.079 24.8927C227.108 24.4482 227.161 23.9674 227.237 23.4501C227.313 22.9209 227.395 22.4096 227.483 21.9162C227.605 21.2542 227.71 20.6706 227.799 20.1651C227.899 19.6476 227.976 19.2203 228.031 18.8834L229.649 18.7507C229.604 18.9554 229.548 19.2143 229.481 19.5273C229.426 19.8282 229.365 20.1712 229.299 20.5562C229.232 20.9293 229.16 21.3144 229.082 21.7117C229.016 22.0967 228.95 22.4698 228.883 22.8309C228.773 23.4326 228.702 23.9378 228.673 24.3463C228.655 24.7426 228.654 25.0666 228.67 25.3184C228.685 25.5702 228.701 25.78 228.715 25.9478C228.73 26.1036 228.726 26.2477 228.704 26.38C228.682 26.5124 228.636 26.6331 228.565 26.7422C228.495 26.8393 228.406 26.9126 228.299 26.9623C228.192 27.0239 228.078 27.0557 227.958 27.0575ZM235.041 26.9131C234.489 26.9215 234.037 26.7964 233.685 26.5378C233.345 26.279 233.106 25.9166 232.967 25.4507C232.839 24.9846 232.831 24.4446 232.942 23.8309C233.041 23.2533 233.23 22.6743 233.509 22.094C233.8 21.5014 234.158 20.9439 234.582 20.4214C235.006 19.8868 235.473 19.4176 235.982 19.0138C236.504 18.5977 237.051 18.2713 237.624 18.0345C238.208 17.7975 238.794 17.6746 239.382 17.6656C239.658 17.6613 239.875 17.73 240.033 17.8716C240.192 18.0132 240.243 18.2284 240.187 18.5173C240.166 18.6617 240.101 18.7887 239.995 18.8983C239.889 18.996 239.734 19.0583 239.53 19.0855C238.692 19.2183 237.917 19.5302 237.204 20.0212C236.503 20.512 235.918 21.103 235.449 21.7942C234.991 22.4733 234.69 23.186 234.546 23.9323C234.479 24.2814 234.448 24.5999 234.452 24.8879C234.456 25.1638 234.522 25.5229 234.649 25.965L233.946 24.7336C234.166 25.0063 234.361 25.1833 234.53 25.2647C234.711 25.346 234.964 25.3841 235.288 25.3791C236.056 25.3674 236.828 24.8635 237.605 23.8675C238.382 22.8715 239.092 21.4264 239.735 19.5324C239.815 19.3031 239.927 19.1274 240.069 19.0052C240.223 18.8708 240.402 18.8021 240.606 18.799C240.882 18.7947 241.093 18.9115 241.241 19.1493C241.401 19.3749 241.471 19.6678 241.453 20.0281C241.416 20.7848 241.403 21.4691 241.412 22.081C241.433 22.6808 241.508 23.2437 241.636 23.7698C241.776 24.2957 242.012 24.8381 242.345 25.3971C242.419 25.516 242.451 25.6535 242.441 25.8097C242.444 25.9657 242.404 26.1163 242.322 26.2616C242.252 26.4067 242.152 26.5282 242.022 26.6262C241.903 26.712 241.76 26.7562 241.592 26.7588C241.412 26.7616 241.267 26.7278 241.158 26.6574C241.061 26.5869 240.975 26.4862 240.901 26.3553C240.729 26.0459 240.574 25.7183 240.436 25.3723C240.299 25.0264 240.185 24.6321 240.094 24.1894C240.015 23.7346 239.977 23.2011 239.98 22.589C239.982 21.9769 240.031 21.25 240.126 20.4085L240.774 20.3806C240.396 21.5865 239.974 22.6071 239.507 23.4423C239.039 24.2656 238.545 24.9332 238.025 25.4452C237.517 25.9451 237.006 26.3129 236.494 26.5488C235.981 26.7847 235.497 26.9061 235.041 26.9131Z" fill="#7831B2"/>
<path d="M113.964 158.345C113.938 158.897 114.364 159.365 114.915 159.392L123.905 159.824C124.457 159.851 124.925 159.425 124.952 158.873C124.978 158.322 124.553 157.853 124.001 157.826L116.01 157.442L116.394 149.451C116.421 148.9 115.995 148.431 115.444 148.404C114.892 148.378 114.423 148.804 114.397 149.355L113.964 158.345ZM114.274 157.394C114.247 157.946 114.673 158.414 115.225 158.441L124.214 158.873C124.766 158.9 125.235 158.474 125.261 157.922C125.288 157.371 124.862 156.902 124.31 156.875L116.319 156.491L116.704 148.5C116.73 147.949 116.305 147.48 115.753 147.454C115.201 147.427 114.733 147.853 114.706 148.404L114.274 157.394ZM115.636 159.133C120.162 155.022 125.813 147.399 128.138 137.807C130.474 128.169 129.438 116.586 120.623 104.696L119.016 105.887C127.459 117.275 128.399 128.243 126.195 137.336C123.979 146.475 118.574 153.763 114.291 157.653L115.636 159.133ZM120.623 104.696C109.53 89.732 95.6417 93.2935 88.9389 91.969C87.2652 91.6383 86.12 91.0518 85.3866 89.9986C84.6318 88.9148 84.1817 87.1513 84.3514 84.1716C84.6919 78.1947 87.4741 68.0129 93.8259 50.6057L91.9471 49.9201C85.6078 67.2931 82.7145 77.7425 82.3547 84.0579C82.1743 87.2244 82.6177 89.5224 83.7453 91.1416C84.8942 92.7914 86.6201 93.5494 88.5512 93.931C96.2673 95.4558 108.537 91.7512 119.016 105.887L120.623 104.696ZM115.945 158.182C120.471 154.071 126.123 146.448 128.448 136.856C130.784 127.218 129.747 115.635 120.932 103.745L119.325 104.936C127.768 116.324 128.708 127.292 126.504 136.385C124.289 145.524 118.883 152.812 114.6 156.702L115.945 158.182ZM120.932 103.745C109.839 88.7811 95.951 92.3426 89.2482 91.018C87.5745 90.6873 86.4293 90.1008 85.6959 89.0476C84.9411 87.9638 84.491 86.2003 84.6607 83.2207C85.0012 77.2437 87.7834 67.0619 94.1352 49.6547L92.2564 48.9691C85.9171 66.3421 83.0238 76.7915 82.664 83.1069C82.4835 86.2734 82.927 88.5714 84.0546 90.1906C85.2035 91.8404 86.9294 92.5985 88.8604 92.9801C96.5765 94.5048 108.846 90.8003 119.325 104.936L120.932 103.745Z" fill="#7831B2"/>
</svg>
