<svg width="164" height="162" viewBox="0 0 164 162" fill="none" xmlns="http://www.w3.org/2000/svg">
<path d="M41.5859 99.2059C41.4144 98.8225 40.9631 98.6497 40.578 98.8205C40.1928 98.9912 40.0197 99.4405 40.1913 99.8249L41.5859 99.2059ZM41.4656 99.141C41.2713 98.7685 40.8103 98.6238 40.4362 98.8175C40.0621 99.0112 39.9165 99.4695 40.1109 99.8419L41.4656 99.141ZM7.43821 161.766C7.72992 162.068 8.21309 162.079 8.51753 161.789L13.4776 157.055C13.782 156.765 13.7922 156.283 13.5005 155.98C13.2088 155.677 12.7255 155.666 12.4212 155.957L8.0122 160.164L3.78664 155.773C3.49493 155.47 3.01166 155.46 2.70732 155.75C2.40298 156.041 2.39266 156.522 2.68437 156.826L7.43821 161.766ZM40.8886 99.5154C40.1913 99.8249 40.1913 99.8249 40.1913 99.8249C40.1913 99.8249 40.1926 99.8269 40.1934 99.8289C40.195 99.8329 40.1975 99.8379 40.2008 99.8459C40.2075 99.8609 40.2176 99.8838 40.231 99.9148C40.2578 99.9757 40.2978 100.068 40.3492 100.189C40.4523 100.431 40.6017 100.787 40.7857 101.245C41.1536 102.159 41.6591 103.473 42.2073 105.067C43.3051 108.259 44.5679 112.554 45.2447 117C45.9236 121.458 46.0004 125.99 44.7935 129.694C43.6021 133.352 41.1632 136.211 36.7072 137.44L37.1151 138.906C42.1251 137.523 44.9164 134.244 46.2457 130.163C47.5595 126.131 47.4475 121.325 46.7542 116.772C46.0588 112.205 44.7662 107.815 43.6516 104.575C43.0937 102.952 42.5788 101.614 42.2028 100.68C42.0148 100.212 41.8614 99.8459 41.7546 99.5953C41.7012 99.4695 41.6595 99.3736 41.6308 99.3077C41.6166 99.2748 41.6056 99.2498 41.598 99.2328C41.5943 99.2248 41.5913 99.2179 41.5893 99.2139C41.5883 99.2109 41.5875 99.2099 41.5869 99.2079L41.5862 99.2069C41.5862 99.2069 41.5859 99.2059 40.8886 99.5154ZM36.7072 137.44C24.5992 140.782 17.0904 144.911 12.5815 148.851C8.07696 152.788 6.53301 156.573 6.47718 159.193L8.00348 159.225C8.04769 157.152 9.30163 153.741 13.5886 149.994C17.8713 146.251 25.148 142.208 37.1151 138.906L36.7072 137.44ZM40.7882 99.4914C40.1109 99.8419 40.1109 99.8419 40.1109 99.8419L40.1112 99.8429C40.1112 99.8429 40.1122 99.8449 40.113 99.8469C40.1147 99.8499 40.1174 99.8549 40.121 99.8619C40.1283 99.8758 40.1395 99.8978 40.1543 99.9268C40.1838 99.9847 40.2279 100.073 40.2848 100.187C40.3986 100.417 40.5638 100.757 40.7668 101.194C41.1729 102.066 41.7303 103.324 42.3319 104.854C43.5371 107.922 44.9116 112.066 45.6123 116.414C46.3146 120.773 46.3277 125.261 44.8827 129.059C43.4536 132.816 40.5767 135.96 35.3384 137.648L35.8086 139.095C41.4839 137.265 44.7156 133.791 46.3105 129.598C47.8896 125.448 47.8421 120.656 47.1198 116.174C46.3957 111.681 44.9814 107.425 43.7537 104.301C43.139 102.736 42.569 101.45 42.152 100.555C41.9434 100.106 41.773 99.755 41.6541 99.5154C41.5947 99.3946 41.5481 99.3027 41.5162 99.2398C41.5001 99.2089 41.4878 99.1849 41.4793 99.1679C41.4751 99.16 41.4718 99.153 41.4694 99.149C41.4683 99.147 41.4667 99.144 41.4667 99.144L41.466 99.142C41.466 99.142 41.4656 99.141 40.7882 99.4914ZM35.3384 137.648C13.3733 144.725 7.33626 156.059 7.2261 161.224L8.7525 161.256C8.84252 157.036 14.1193 146.083 35.8086 139.095L35.3384 137.648Z" fill="#E71985"/>
<path d="M5.52266 44.0491C4.65365 44.2411 3.87536 44.2595 3.18779 44.1047C2.50934 43.9354 1.93655 43.6324 1.46959 43.1956C1.00259 42.7587 0.643279 42.2245 0.391628 41.5928C0.151726 40.9585 0.0214392 40.2633 0.000779033 39.5068C-0.00943577 38.6869 0.080803 37.9305 0.271496 37.238C0.471331 36.5311 0.730511 35.897 1.04903 35.3357C1.36495 34.7627 1.69907 34.2717 2.05153 33.8625C2.40388 33.4532 2.72627 33.1304 3.01868 32.894C3.31099 32.6576 3.52761 32.5238 3.66856 32.4927C3.78594 32.4667 3.89561 32.4609 3.99735 32.4753C4.0991 32.4896 4.19634 32.5664 4.28886 32.7055C4.47542 32.9342 4.5086 33.1663 4.3885 33.4014C4.26841 33.6365 4.08567 33.8672 3.84037 34.0931C3.50486 34.4127 3.15972 34.8265 2.80466 35.3345C2.46132 35.8399 2.17413 36.431 1.94297 37.108C1.72353 37.7824 1.61567 38.5426 1.61938 39.3886C1.63873 40.0838 1.78278 40.7025 2.05143 41.2446C2.33181 41.7839 2.74591 42.1772 3.29395 42.4244C3.851 42.6572 4.55822 42.679 5.4155 42.4896C6.0731 42.3443 6.67796 42.0449 7.23 41.5916C7.77944 41.1266 8.218 40.5511 8.5457 39.8651C8.88252 39.1648 9.0387 38.4 9.01414 37.5709C8.98697 36.8405 8.88733 36.1446 8.71531 35.483C8.54059 34.8098 8.29349 34.2262 7.97401 33.7323C7.65183 33.2266 7.25466 32.8541 6.78242 32.6148C6.3219 32.3729 5.79803 32.3169 5.2108 32.4466C4.95247 32.5036 4.76913 32.6484 4.66077 32.881C4.56152 33.0993 4.51511 33.3612 4.52153 33.6666C4.52935 33.9226 4.47251 34.1376 4.35111 34.3117C4.22711 34.4741 4.07705 34.5748 3.90082 34.6136C3.74815 34.6474 3.604 34.6363 3.46837 34.5804C3.33264 34.5245 3.21716 34.421 3.12203 34.2703C3.02419 34.1078 2.97267 33.9044 2.96755 33.6601C2.96114 33.2442 3.03893 32.8465 3.20082 32.4672C3.36271 32.0878 3.60219 31.7526 3.91936 31.4616C4.24826 31.168 4.65926 30.9667 5.15256 30.8578C5.9511 30.6814 6.68378 30.7343 7.3504 31.0166C8.01712 31.2988 8.5871 31.7559 9.06065 32.3876C9.54322 33.0051 9.91873 33.7506 10.1873 34.624C10.4676 35.4948 10.6148 36.4318 10.6289 37.4351C10.6482 38.2408 10.5357 39.0082 10.2915 39.7371C10.0473 40.4661 9.69559 41.1267 9.23608 41.7191C8.78578 42.2973 8.24286 42.7915 7.60732 43.202C6.9809 43.5981 6.28601 43.8804 5.52266 44.0491ZM16.9802 41.4995C16.1111 41.6915 15.3569 41.6801 14.7177 41.4654C14.0875 41.2365 13.5931 40.8425 13.2344 40.2835C12.8849 39.7103 12.7024 39.002 12.6871 38.1586C12.6741 37.4373 12.7846 36.7441 13.0184 36.0788C13.2613 35.3992 13.6046 34.7834 14.0484 34.2312C14.5013 33.6648 15.0233 33.1874 15.6145 32.7991C16.2057 32.4108 16.8418 32.1413 17.523 31.9909C17.8283 31.9235 18.1088 31.9106 18.3645 31.9522C18.6177 31.9823 18.8166 32.0732 18.9615 32.2254C19.1154 32.3632 19.1903 32.5614 19.1863 32.82C19.1889 33.0526 19.1399 33.2475 19.0394 33.4048C18.9363 33.5503 18.7967 33.6425 18.6205 33.6814C18.4914 33.7099 18.3863 33.7086 18.3054 33.6774C18.2245 33.6461 18.1377 33.6163 18.0451 33.5876C17.9642 33.5564 17.8357 33.5603 17.6595 33.5992C16.9901 33.7471 16.3997 34.0554 15.888 34.5244C15.3738 34.9816 14.9711 35.5246 14.68 36.1536C14.398 36.7681 14.2602 37.3938 14.2665 38.0306C14.2938 38.54 14.4006 38.9644 14.5871 39.3036C14.7827 39.6285 15.0554 39.8568 15.4051 39.9882C15.7664 40.1169 16.1761 40.1308 16.6341 40.0295C17.1509 39.9154 17.5489 39.7661 17.8281 39.5817C18.1048 39.3856 18.3143 39.192 18.4566 39.001C18.6105 38.8075 18.7332 38.6393 18.8247 38.4963C18.9134 38.3417 19.0342 38.2476 19.1868 38.2138C19.41 38.1645 19.5744 38.1835 19.68 38.2705C19.7974 38.3551 19.8613 38.5311 19.8717 38.7989C19.8754 39.2031 19.7527 39.5922 19.5034 39.9664C19.2515 40.3289 18.903 40.6452 18.458 40.9153C18.0247 41.1829 17.5321 41.3776 16.9802 41.4995ZM23.2395 40.1535C22.8167 40.2469 22.4749 40.0401 22.2141 39.5332C21.9533 39.0263 21.8119 38.3089 21.79 37.381C21.7928 36.7299 21.8471 36.2271 21.9529 35.8723C22.0677 35.5033 22.2296 35.2343 22.4384 35.0654C22.552 34.9667 22.7249 34.8856 22.9572 34.822C23.1869 34.7467 23.4308 34.6805 23.6892 34.6234C24.5466 34.4341 25.383 34.2064 26.1986 33.9403C27.0233 33.6599 27.8121 33.3015 28.565 32.8651L29.1519 34.0058C28.5934 34.3746 27.9748 34.6953 27.2962 34.968C26.6177 35.2406 25.9195 35.4807 25.2018 35.6884C24.4932 35.8818 23.7984 36.0536 23.1173 36.2041L22.0604 36.2719C22.0593 35.5481 22.0562 34.7879 22.0512 33.9912C22.0463 33.1946 22.036 32.485 22.0205 31.8626C22.005 31.5714 22.0481 31.3226 22.1499 31.116C22.2517 30.9094 22.3907 30.7867 22.5668 30.7478C22.8605 30.6829 23.1038 30.7519 23.2968 30.9547C23.4873 31.1458 23.5844 31.4986 23.5881 32.0132C23.5986 32.281 23.5972 32.6065 23.584 32.9899C23.5708 33.3732 23.5557 33.7754 23.5386 34.1965C23.5333 34.6149 23.5241 35.0158 23.5109 35.3992C23.5069 35.7683 23.5074 36.075 23.5126 36.3193C23.5229 37.0288 23.5526 37.6605 23.6021 38.2141C23.6607 38.7534 23.6964 39.1628 23.7094 39.4422C23.7106 39.6138 23.6643 39.7651 23.5703 39.8963C23.4907 40.0366 23.3804 40.1224 23.2395 40.1535ZM29.3169 38.8109C29.0233 38.8758 28.7741 38.7529 28.5693 38.4422C28.3764 38.1289 28.2206 37.6785 28.102 37.0911C27.9925 36.4894 27.9288 35.8162 27.9107 35.0715C27.8954 33.8967 27.9028 32.9624 27.9331 32.2684C27.9724 31.5602 28.0254 30.9962 28.0921 30.5764C28.1287 30.2984 28.1953 30.0443 28.292 29.8144C28.3885 29.5844 28.5366 29.4474 28.7363 29.4032C28.9947 29.3461 29.2041 29.4288 29.3645 29.6511C29.5341 29.859 29.6214 30.1404 29.6265 30.4952C29.6381 30.9345 29.6106 31.4191 29.5439 31.9493C29.489 32.4769 29.4725 33.0391 29.4945 33.6355C29.5099 34.3685 29.5522 35.028 29.6212 35.6141C29.6993 36.1859 29.7755 36.6662 29.8497 37.0548C29.924 37.4434 29.9585 37.7365 29.9533 37.9339C29.9649 38.1523 29.9088 38.3426 29.7848 38.5051C29.6608 38.6674 29.5048 38.7694 29.3169 38.8109ZM36.7356 37.1904C35.7725 37.4032 34.9329 37.3677 34.2166 37.0841C33.5121 36.798 32.963 36.324 32.5691 35.6624C32.1844 34.9865 31.9772 34.167 31.9474 33.2041C31.9307 32.5205 32.026 31.8981 32.2337 31.3368C32.4505 30.7612 32.7207 30.2596 33.0444 29.8322C33.3798 29.4021 33.7349 29.0599 34.1094 28.8053C34.4813 28.5391 34.8141 28.3735 35.1077 28.3086C35.2368 28.2801 35.3465 28.2743 35.4365 28.2912C35.5382 28.3055 35.6217 28.3484 35.687 28.4199C35.7613 28.4771 35.8011 28.5727 35.8063 28.7066C35.7997 28.9535 35.754 29.1907 35.6691 29.418C35.5816 29.6337 35.3787 29.8565 35.0602 30.0864C34.6818 30.3786 34.3731 30.68 34.1342 30.9905C33.9045 31.2867 33.7368 31.6122 33.6309 31.9669C33.5226 32.31 33.4814 32.7057 33.5073 33.154C33.5305 34.143 33.8115 34.8786 34.3503 35.361C34.8864 35.8317 35.5772 35.9736 36.4228 35.7867C37.2448 35.6052 37.8961 35.1545 38.3764 34.4347C38.8659 33.7006 39.0952 32.8216 39.0641 31.7976C39.0514 30.8554 38.8363 30.1666 38.4188 29.731C37.9988 29.2838 37.4365 29.138 36.7318 29.2937C36.3678 29.3741 36.0722 29.5131 35.8452 29.7105C35.6298 29.9054 35.4014 30.1522 35.1599 30.4509C34.9876 30.6731 34.8525 30.8687 34.7546 31.0375C34.6567 31.2065 34.5641 31.3436 34.4766 31.4488C34.3983 31.5397 34.2828 31.6021 34.1301 31.6357C33.9657 31.672 33.8248 31.648 33.7074 31.5634C33.5991 31.4647 33.5411 31.2872 33.5334 31.0312C33.5203 30.7518 33.5942 30.4471 33.7547 30.117C33.927 29.7844 34.1516 29.4648 34.4282 29.1583C34.7141 28.8374 35.0352 28.5639 35.3915 28.338C35.7451 28.1003 36.1098 27.94 36.4856 27.8569C37.3312 27.6701 38.0626 27.7172 38.6796 27.9982C39.2941 28.2674 39.7722 28.7264 40.1139 29.375C40.4529 30.0119 40.6275 30.7956 40.6377 31.7261C40.6688 32.6397 40.5238 33.4817 40.2025 34.2522C39.8787 35.011 39.4167 35.647 38.8163 36.1601C38.2277 36.6706 37.5341 37.014 36.7356 37.1904ZM46.0073 35.2157C45.4083 35.3481 44.8936 35.3329 44.463 35.1703C44.0443 35.0051 43.7038 34.7489 43.4416 34.4019C43.1886 34.0405 42.9996 33.6343 42.8744 33.1833C42.7584 32.718 42.692 32.2541 42.6752 31.7914C42.6714 31.2768 42.7054 30.7108 42.7774 30.0936C42.861 29.4737 42.9734 28.872 43.1145 28.2886C43.253 27.6936 43.4124 27.1919 43.5925 26.7839C43.6643 26.6085 43.7544 26.4597 43.8628 26.3376C43.9828 26.2129 44.1153 26.1162 44.2601 26.0474C44.4024 25.9669 44.5498 25.9097 44.7025 25.876C44.8434 25.8449 44.9536 25.8696 45.0332 25.9502C45.1102 26.0191 45.148 26.1335 45.1467 26.2933C45.1505 26.4766 45.1002 26.7208 44.9957 27.0263C44.903 27.329 44.7881 27.698 44.651 28.1333C44.5256 28.566 44.4171 29.0747 44.3257 29.6595C44.2316 30.2326 44.1936 30.8914 44.2116 31.6361C44.2257 32.4184 44.3762 33.0111 44.6632 33.4141C44.9501 33.8171 45.3931 33.9524 45.992 33.8201C46.4383 33.7214 46.8584 33.5059 47.2526 33.1733C47.6468 32.8409 47.9698 32.4381 48.2217 31.9652C48.4829 31.4779 48.6161 30.9698 48.6214 30.4409L48.8895 30.7315C48.5698 30.6794 48.198 30.6695 47.774 30.7018C47.359 30.7198 46.9199 30.7677 46.4567 30.8455C46.0026 30.909 45.5609 31.0005 45.1316 31.1199C44.6997 31.2275 44.32 31.3482 43.9924 31.482L43.9634 30.2734C44.5715 30.1268 45.1312 29.9295 45.6428 29.6815C46.1635 29.4192 46.6104 29.1303 46.9837 28.8145C47.3688 28.4963 47.6689 28.1845 47.8843 27.8793C48.097 27.5623 48.1963 27.2887 48.1821 27.0587C48.1807 26.8872 48.111 26.7676 47.9727 26.7C47.8318 26.6206 47.6322 26.6095 47.3738 26.6665C47.0567 26.7366 46.7324 26.8573 46.401 27.0288C46.0812 27.1975 45.7433 27.3949 45.387 27.621C45.0307 27.8469 44.6523 28.084 44.2516 28.332C44.0859 28.4176 43.9339 28.4267 43.7956 28.3591C43.6691 28.2888 43.6077 28.1797 43.6118 28.0315C43.6105 27.86 43.6881 27.6833 43.8448 27.5014C44.0105 27.3052 44.1737 27.1526 44.3342 27.0436C44.9671 26.511 45.5733 26.107 46.1527 25.8317C46.7413 25.5422 47.2998 25.3391 47.8283 25.2222C48.251 25.1289 48.6118 25.1167 48.9106 25.1857C49.2212 25.2521 49.4599 25.3834 49.6269 25.5797C49.8055 25.7734 49.8968 26.0171 49.9006 26.3109C49.9136 26.7007 49.8169 27.0964 49.6106 27.4979C49.4044 27.8993 49.1165 28.2943 48.7472 28.6827C48.3869 29.0569 47.9766 29.3991 47.5158 29.7096C47.0551 30.0199 46.5593 30.2829 46.0281 30.4984L45.9677 29.8122C46.5144 29.6669 47.0252 29.554 47.5003 29.4736C47.987 29.3906 48.4214 29.3499 48.8038 29.3513C49.1861 29.3528 49.492 29.4264 49.7216 29.572C49.9604 29.7034 50.1064 29.9165 50.1599 30.2116C50.2407 30.6847 50.1805 31.1888 49.9794 31.7242C49.7874 32.2452 49.4865 32.7474 49.0767 33.2307C48.6786 33.7113 48.212 34.1335 47.6769 34.4971C47.151 34.8465 46.5945 35.086 46.0073 35.2157ZM54.6896 33.1872C54.1493 33.3065 53.6803 33.2752 53.2823 33.0931C52.8962 32.9085 52.5877 32.6022 52.3569 32.1746C52.1378 31.7443 52.0205 31.218 52.005 30.5955C51.9856 30.0107 52.0543 29.4064 52.211 28.7827C52.3769 28.1447 52.6152 27.5275 52.926 26.9311C53.234 26.3231 53.5976 25.7703 54.0165 25.2727C54.4447 24.7609 54.9158 24.3315 55.43 23.9847C55.9559 23.6354 56.5066 23.3971 57.0821 23.27C57.3521 23.2103 57.5792 23.2338 57.7631 23.3404C57.9471 23.4471 58.041 23.6473 58.0448 23.941C58.0526 24.0865 58.0153 24.2236 57.9331 24.3522C57.8483 24.4692 57.7087 24.5614 57.5142 24.6289C56.7182 24.9274 56.02 25.3885 55.4196 26.012C54.831 26.633 54.3761 27.3287 54.0549 28.0992C53.7429 28.8555 53.5913 29.613 53.6002 30.3719C53.6053 30.7268 53.6392 31.0445 53.7018 31.3253C53.7617 31.5943 53.8985 31.9323 54.1125 32.339L53.1733 31.2763C53.4446 31.4986 53.6716 31.6326 53.8542 31.6781C54.0487 31.7211 54.3044 31.7075 54.6215 31.6375C55.3731 31.4715 56.0296 30.8233 56.591 29.6929C57.1523 28.5624 57.5572 27.0064 57.8057 25.0246C57.8384 24.7843 57.9122 24.59 58.0271 24.4419C58.1511 24.2795 58.3128 24.1762 58.5125 24.1322C58.7826 24.0725 59.0142 24.1441 59.2072 24.3469C59.4094 24.5354 59.5379 24.8077 59.5926 25.1638C59.7098 25.9111 59.8348 26.5831 59.9678 27.1795C60.1099 27.7618 60.297 28.2973 60.529 28.7861C60.7729 29.2721 61.1147 29.7551 61.5542 30.2348C61.6508 30.3362 61.7101 30.4642 61.7323 30.6189C61.7661 30.7709 61.7576 30.9262 61.7067 31.0848C61.6675 31.2407 61.5937 31.3797 61.4854 31.5018C61.3862 31.6096 61.2544 31.6817 61.09 31.7181C60.9138 31.7569 60.7651 31.753 60.6437 31.7062C60.5341 31.6568 60.4298 31.5755 60.3307 31.4624C60.0985 31.1946 59.88 30.9053 59.6753 30.5947C59.4705 30.284 59.2788 29.9213 59.1002 29.5067C58.9307 29.0778 58.7853 28.5637 58.6641 27.9646C58.5429 27.3655 58.444 26.6449 58.3672 25.8027L58.9975 25.6451C58.8365 27.3007 58.5243 28.6644 58.0608 29.7363C57.609 30.8057 57.0811 31.6157 56.4768 32.1665C55.8725 32.7172 55.2768 33.0575 54.6896 33.1872ZM62.1501 24.1018C61.8799 24.1615 61.6503 24.1262 61.4611 23.9962C61.2838 23.8636 61.195 23.6868 61.1951 23.4659C61.2017 23.3294 61.2474 23.2027 61.3322 23.0858C61.4171 22.9689 61.5867 22.8455 61.8412 22.7157C62.2379 22.5053 62.7782 22.2755 63.462 22.0262C64.1574 21.7744 64.9808 21.5435 65.9321 21.3333C66.4254 21.2243 66.8801 21.1361 67.2964 21.0687C67.7217 20.987 68.1947 20.9254 68.7153 20.8841C69.125 20.8427 69.4512 20.8688 69.6939 20.9625C69.9483 21.0535 70.0774 21.1907 70.0813 21.3739C70.0864 21.5077 70.0597 21.6364 70.0009 21.7599C69.9513 21.869 69.8626 21.9684 69.7347 22.058C69.6185 22.1451 69.4606 22.2106 69.261 22.2547C69.0143 22.3092 68.724 22.361 68.39 22.4103C68.056 22.4596 67.6984 22.514 67.3174 22.5736C66.9455 22.6189 66.5658 22.6844 66.1783 22.77C65.368 22.949 64.724 23.1282 64.2464 23.3073C63.7662 23.4747 63.3708 23.6357 63.0602 23.7902C62.747 23.9331 62.4437 24.037 62.1501 24.1018ZM66.2915 30.661C66.0332 30.718 65.816 30.6556 65.6398 30.4736C65.4755 30.289 65.3334 30.0381 65.2134 29.7209C65.1352 29.4805 65.0609 29.1471 64.9906 28.7209C64.9294 28.2803 64.8838 27.7995 64.8539 27.2783C64.8215 26.7455 64.7988 26.2289 64.7859 25.7286C64.7717 25.0567 64.7569 24.4647 64.7414 23.9527C64.735 23.4264 64.7247 22.993 64.7105 22.6525L66.2724 22.197C66.2698 22.4062 66.2671 22.6707 66.2644 22.9904C66.2708 23.2957 66.2805 23.6434 66.2934 24.0333C66.3038 24.4114 66.3108 24.8026 66.3146 25.2068C66.3275 25.5967 66.3378 25.9748 66.3457 26.3413C66.3585 26.9521 66.3917 27.4602 66.445 27.8657C66.5075 28.2569 66.572 28.574 66.6385 28.817C66.7049 29.0601 66.7624 29.2621 66.8106 29.4234C66.8562 29.5728 66.8816 29.7145 66.8868 29.8483C66.892 29.9822 66.871 30.1095 66.824 30.2304C66.7744 30.3395 66.702 30.4292 66.6067 30.4993C66.5141 30.5811 66.409 30.635 66.2915 30.661ZM74.9229 28.7174C74.1947 28.8782 73.562 28.9137 73.0244 28.8238C72.496 28.7196 72.0622 28.5148 71.723 28.2093C71.3813 27.892 71.1205 27.4956 70.9405 27.0198C70.7723 26.5415 70.6818 25.997 70.6689 25.3862C70.6704 24.7845 70.7658 24.1621 70.9551 23.5189C71.1536 22.8614 71.4402 22.2396 71.8149 21.6537C72.2013 21.0651 72.6627 20.5644 73.199 20.1513C73.7445 19.724 74.352 19.4363 75.0214 19.2884C75.6438 19.151 76.1768 19.1376 76.6204 19.2482C77.0758 19.3562 77.4228 19.5864 77.6614 19.9386C77.9119 20.2883 78.0436 20.7686 78.0564 21.3793C78.0693 21.8797 77.9707 22.3494 77.7605 22.7886C77.5595 23.2135 77.2703 23.6026 76.8932 23.9559C76.5251 24.295 76.0924 24.593 75.5953 24.8501C75.1072 25.0929 74.5696 25.2793 73.9824 25.409C73.1839 25.5854 72.6286 25.6098 72.3169 25.4823C72.0167 25.3522 71.8642 25.1651 71.8589 24.9208C71.8512 24.7752 71.8819 24.6641 71.9511 24.5875C72.0176 24.4992 72.139 24.4355 72.3152 24.3966C72.4444 24.3681 72.6022 24.3577 72.7888 24.3656C72.9846 24.3592 73.2645 24.3157 73.6284 24.2354C74.2157 24.1056 74.7259 23.907 75.1592 23.6395C75.6041 23.3693 75.9481 23.0602 76.1909 22.712C76.431 22.352 76.5505 21.9759 76.5493 21.5834C76.5416 21.217 76.436 20.9642 76.2325 20.825C76.0407 20.6833 75.7158 20.663 75.2578 20.7642C74.7998 20.8654 74.3829 21.0679 74.0071 21.3719C73.6403 21.6616 73.314 22.0221 73.0281 22.4534C72.754 22.8821 72.5444 23.3518 72.3995 23.8625C72.2545 24.3731 72.191 24.8904 72.2092 25.414C72.2208 25.8534 72.3009 26.2407 72.4496 26.576C72.5956 26.8997 72.8343 27.1414 73.1657 27.3015C73.5062 27.4471 73.9466 27.4603 74.4868 27.3409C75.0975 27.206 75.6031 27.0146 76.0038 26.7665C76.4136 26.5042 76.7477 26.234 77.0061 25.956C77.2646 25.6779 77.4825 25.4396 77.66 25.2408C77.8375 25.042 78.0085 24.9245 78.1729 24.8883C78.3726 24.8441 78.5303 24.889 78.6464 25.0229C78.7717 25.1425 78.8369 25.3245 78.842 25.5688C78.8472 25.8131 78.7434 26.0938 78.5306 26.4108C78.327 26.7135 78.0386 27.0227 77.6652 27.3383C77.3038 27.6513 76.8862 27.9339 76.4124 28.1858C75.9479 28.4234 75.4514 28.6006 74.9229 28.7174ZM81.0161 27.4081C80.8517 27.4443 80.7107 27.4203 80.5934 27.3358C80.4903 27.2603 80.4088 27.1434 80.3489 26.9847C80.2771 26.8288 80.2439 26.6521 80.2491 26.4546C80.2492 26.2336 80.2982 25.9283 80.3962 25.5384C80.5033 25.1343 80.6483 24.6789 80.8311 24.1721C81.0113 23.6537 81.2032 23.1326 81.4069 22.6089C81.6289 22.0567 81.858 21.509 82.0944 20.966C82.3398 20.4085 82.5794 19.9077 82.813 19.4633C83.0441 19.0073 83.2406 18.6447 83.4025 18.3758C83.6583 17.9757 83.9161 17.6671 84.1759 17.4502C84.4447 17.219 84.7318 17.0696 85.0371 17.0021C85.3189 16.9399 85.5349 16.9966 85.6849 17.1721C85.8323 17.3358 85.9679 17.5575 86.0918 17.837C86.2783 18.2867 86.4811 18.8371 86.7 19.4882C86.9281 20.1252 87.1661 20.723 87.4139 21.2819C87.6173 21.7525 87.7993 22.154 87.9596 22.4868C88.1318 22.8169 88.2863 23.0958 88.4233 23.3233C88.5719 23.5481 88.7069 23.7392 88.8283 23.8966C88.9443 24.0305 89.0389 24.1507 89.1119 24.2573C89.1849 24.3639 89.2299 24.4828 89.2469 24.6141C89.269 24.7687 89.2546 24.9253 89.2037 25.0839C89.1527 25.2423 89.0704 25.371 88.957 25.4697C88.8577 25.5775 88.7318 25.6483 88.5791 25.682C88.356 25.7314 88.1329 25.6702 87.9098 25.4985C87.6959 25.3126 87.4827 25.0467 87.2701 24.7009C87.0574 24.3552 86.8502 23.9777 86.648 23.5682C86.5294 23.3121 86.3735 22.9722 86.1805 22.5484C85.9967 22.1105 85.805 21.6373 85.6055 21.1291C85.4034 20.6092 85.2183 20.1102 85.0501 19.6318C84.8936 19.151 84.7731 18.7481 84.6883 18.4231L85.0719 18.4857C84.8109 18.8624 84.5387 19.3276 84.2553 19.881C83.9813 20.4202 83.7012 21.016 83.4153 21.6682C83.141 22.3179 82.878 22.9897 82.626 23.6835C82.3857 24.3748 82.1748 25.0596 81.9932 25.7379C81.8365 26.2512 81.6902 26.6455 81.5545 26.9209C81.4305 27.1938 81.2509 27.3562 81.0161 27.4081ZM92.8797 24.7686C92.4807 24.8569 92.1429 24.8333 91.8662 24.6981C91.6015 24.5603 91.3824 24.3509 91.2088 24.0701C91.0328 23.7777 90.9044 23.4502 90.8236 23.0875C90.7519 22.7106 90.7122 22.339 90.7045 21.9724C90.7072 21.6528 90.7203 21.2694 90.744 20.8224C90.7793 20.3728 90.8225 19.903 90.8735 19.4131C90.9245 18.9232 90.9763 18.4638 91.0285 18.035C91.0926 17.6035 91.1469 17.2663 91.1913 17.0233C91.2527 16.5802 91.3174 16.2345 91.3854 15.9863C91.465 15.7356 91.5929 15.5907 91.769 15.5518C91.9214 15.5181 92.0747 15.5396 92.2271 15.6163C92.3795 15.6931 92.5038 15.8068 92.599 15.9576C92.7053 16.1058 92.7634 16.2833 92.7724 16.4898C92.7794 16.6847 92.7574 16.972 92.7063 17.3514C92.6551 17.7308 92.596 18.1552 92.5278 18.6243C92.4597 19.0933 92.3985 19.567 92.3454 20.0453C92.2893 20.5118 92.2642 20.9282 92.2722 21.2948C92.2722 21.6262 92.2933 21.9406 92.3344 22.2382C92.3735 22.5242 92.4376 22.7555 92.5268 22.9323C92.612 23.0973 92.7313 23.163 92.8847 23.1293C93.2606 23.0463 93.6616 22.6079 94.0886 21.814C94.5267 21.0175 94.9748 19.9553 95.4299 18.6274C95.6444 18.0401 95.8248 17.4969 95.9722 16.998C96.1206 16.4989 96.2519 16.065 96.3662 15.696C96.4784 15.3152 96.6017 15.0118 96.7371 14.7857C96.8714 14.5597 97.0268 14.4272 97.2022 14.3883C97.4728 14.3286 97.6894 14.3911 97.8538 14.5757C98.0282 14.746 98.1465 15.002 98.2106 15.3439C98.2778 15.6479 98.35 16.0248 98.4252 16.4746C98.5124 16.9217 98.6026 17.3804 98.6948 17.8508C98.785 18.3096 98.8803 18.7366 98.9805 19.1317C99.167 19.8024 99.3554 20.3437 99.5459 20.7557C99.7454 21.1535 99.9148 21.4719 100.054 21.7111C100.193 21.9503 100.276 22.1531 100.301 22.3194C100.318 22.4507 100.304 22.5826 100.26 22.7151C100.212 22.8359 100.143 22.9431 100.054 23.0366C99.9639 23.1302 99.8536 23.1912 99.7253 23.2197C99.3133 23.3106 98.9605 23.1064 98.6637 22.6073C98.368 22.1081 98.0733 21.4186 97.7786 20.5386C97.6613 20.1228 97.537 19.6775 97.4067 19.2032C97.2884 18.7262 97.1811 18.2466 97.0859 17.7645C97.0027 17.2797 96.9275 16.83 96.8594 16.4154L97.4097 16.4781C97.3014 16.9316 97.1661 17.4338 97.0057 17.9847C96.8453 18.5357 96.6148 19.2432 96.314 20.1073C96.0554 20.8271 95.7557 21.5255 95.4138 22.2024C95.069 22.8677 94.6841 23.4374 94.26 23.9116C93.845 24.3714 93.3849 24.6571 92.8797 24.7686ZM111.797 20.553C111.021 20.7242 110.388 20.7597 109.898 20.6594C109.407 20.5592 109.022 20.3498 108.741 20.0313C108.473 19.7102 108.279 19.3111 108.16 18.8341C108.051 18.3429 107.992 17.8035 107.984 17.2161C107.971 16.6054 107.996 15.9679 108.058 15.3039C108.128 14.6256 108.23 13.9219 108.363 13.1929C108.451 12.7563 108.542 12.4171 108.636 12.1755C108.73 11.9337 108.865 11.7934 109.041 11.7546C109.288 11.7001 109.507 11.7437 109.699 11.8854C109.888 12.0155 109.979 12.2345 109.974 12.5425C109.978 12.7257 109.941 13.0284 109.863 13.4508C109.796 13.8706 109.728 14.3948 109.658 15.0238C109.589 15.6528 109.561 16.3831 109.573 17.2148C109.582 17.7529 109.658 18.1778 109.803 18.4898C109.957 18.7992 110.193 18.9987 110.508 19.0886C110.836 19.1757 111.264 19.1609 111.793 19.0442C112.121 18.9715 112.554 18.8697 113.093 18.7387C113.627 18.5959 114.203 18.4441 114.821 18.2832C115.437 18.1223 116.043 17.964 116.637 17.8083C117.24 17.6383 117.766 17.4852 118.216 17.3489C118.676 17.1983 119.007 17.0821 119.211 17.0004C119.358 16.9432 119.483 16.8667 119.585 16.7705C119.684 16.6627 119.736 16.51 119.742 16.3125C119.741 15.5886 119.681 14.9083 119.564 14.2714C119.456 13.6203 119.318 13.0309 119.151 12.5033C118.996 11.973 118.849 11.533 118.709 11.1834C118.579 10.8194 118.503 10.5601 118.481 10.4055C118.451 10.2158 118.499 10.0455 118.626 9.89485C118.75 9.7324 118.894 9.63305 119.058 9.59671C119.329 9.5371 119.551 9.59821 119.728 9.78023C119.913 9.94797 120.081 10.1748 120.23 10.4608C120.338 10.6701 120.453 10.9885 120.573 11.4161C120.702 11.8294 120.825 12.2993 120.942 12.8256C121.071 13.3494 121.171 13.8796 121.242 14.4163C121.321 14.9388 121.366 15.4197 121.378 15.8589C121.388 16.5685 121.266 17.1234 121.009 17.5235C120.762 17.9094 120.322 18.2276 119.688 18.4782C119.461 18.5652 119.104 18.6807 118.619 18.8247C118.131 18.9571 117.573 19.105 116.944 19.2685C116.318 19.4437 115.677 19.6098 115.021 19.7667C114.369 19.9354 113.756 20.0892 113.184 20.228C112.623 20.3642 112.161 20.4725 111.797 20.553ZM114.76 19.4196C114.631 19.4482 114.491 19.4299 114.341 19.3649C114.188 19.2881 114.08 19.1646 114.018 18.9944C113.918 18.7097 113.836 18.3413 113.771 17.889C113.717 17.4225 113.671 16.9416 113.635 16.4465C113.608 15.9371 113.591 15.4744 113.585 15.0585C113.569 14.3256 113.59 13.6707 113.646 13.0936C113.702 12.5166 113.759 12.1113 113.819 11.8773C113.853 11.698 113.912 11.5499 113.997 11.433C114.079 11.3043 114.208 11.2205 114.384 11.1817C114.537 11.1479 114.677 11.1662 114.803 11.2364C114.929 11.3066 115.033 11.4125 115.114 11.5542C115.195 11.6959 115.24 11.8701 115.249 12.0767C115.257 12.2223 115.242 12.4341 115.206 12.7122C115.178 12.976 115.15 13.2891 115.12 13.6517C115.101 14.0117 115.097 14.4054 115.106 14.833C115.108 15.1762 115.127 15.5647 115.162 15.9988C115.209 16.4302 115.263 16.8663 115.324 17.3068C115.382 17.7357 115.445 18.1268 115.512 18.4804C115.538 18.5973 115.505 18.7273 115.413 18.8702C115.331 18.9988 115.229 19.1196 115.106 19.2326C114.992 19.3314 114.877 19.3937 114.76 19.4196ZM130.772 16.3978C130.419 16.4757 130.008 16.456 129.539 16.3389C129.067 16.21 128.584 16.0097 128.092 15.7379C127.612 15.4634 127.156 15.1592 126.725 14.825C126.305 14.4883 125.959 14.1535 125.687 13.8207C125.528 13.6595 125.415 13.5067 125.346 13.3624C125.285 13.2039 125.244 13.0473 125.222 12.8927C125.236 12.7913 125.26 12.6756 125.292 12.5457C125.325 12.4158 125.378 12.2936 125.451 12.1792C125.55 11.961 125.735 11.6563 126.005 11.2652C126.276 10.8741 126.594 10.4481 126.958 9.98691C127.333 9.51134 127.726 9.06253 128.137 8.64038C128.557 8.20385 128.961 7.83241 129.349 7.52578C129.748 7.21666 130.107 7.02715 130.424 6.95706C130.553 6.9285 130.659 6.93569 130.743 6.97862C130.838 7.01896 130.914 7.08196 130.97 7.16783C131.026 7.2536 131.058 7.34456 131.067 7.44071C131.114 7.70072 130.997 7.98388 130.721 8.29051C130.444 8.59714 130.14 8.89129 129.808 9.17316C129.223 9.69536 128.712 10.1949 128.276 10.6717C127.84 11.1483 127.495 11.5622 127.24 11.913C126.998 12.2611 126.883 12.495 126.897 12.6146C126.894 12.7133 126.961 12.8459 127.097 13.0123C127.232 13.1787 127.428 13.3626 127.682 13.5642C127.948 13.7631 128.257 13.9588 128.607 14.1513C128.97 14.3411 129.365 14.5116 129.793 14.6625C130.048 14.7536 130.296 14.8401 130.535 14.922C130.785 14.9897 130.988 15.0736 131.146 15.1738C131.313 15.2596 131.407 15.3798 131.429 15.5345C131.446 15.6658 131.431 15.7918 131.384 15.9126C131.337 16.0335 131.256 16.1374 131.14 16.2244C131.035 16.3089 130.912 16.3666 130.772 16.3978ZM124.901 17.6761C124.597 17.7436 124.357 17.637 124.184 17.3562C124.007 17.0638 123.878 16.6198 123.795 16.0246C123.721 15.4151 123.671 14.6711 123.648 13.7926C123.64 13.4261 123.64 13.0395 123.648 12.6328C123.668 12.2234 123.688 11.814 123.708 11.4047C123.725 10.9837 123.727 10.5782 123.714 10.1883C123.717 10.0896 123.714 9.9921 123.704 9.89595C123.705 9.78542 123.699 9.67629 123.687 9.56845C123.681 9.32413 123.703 9.11684 123.752 8.94661C123.8 8.77637 123.868 8.63868 123.955 8.53344C124.051 8.41392 124.159 8.34113 124.276 8.31527C124.546 8.25556 124.785 8.33165 124.993 8.54362C125.209 8.74122 125.318 9.06682 125.32 9.52033C125.327 9.82576 125.314 10.2091 125.281 10.6705C125.257 11.1175 125.231 11.5775 125.2 12.0505C125.17 12.5235 125.158 12.9375 125.163 13.2922C125.193 13.9238 125.232 14.4859 125.28 14.9785C125.34 15.4684 125.4 15.8726 125.458 16.191C125.514 16.4977 125.537 16.7134 125.528 16.8382C125.536 16.9838 125.511 17.1183 125.452 17.2417C125.402 17.3508 125.329 17.4405 125.234 17.5106C125.153 17.5898 125.043 17.6451 124.901 17.6761ZM137.493 14.9314C136.53 15.1441 135.69 15.1087 134.974 14.8251C134.269 14.5389 133.72 14.0651 133.326 13.4034C132.942 12.7275 132.734 11.9081 132.704 10.945C132.687 10.2615 132.784 9.63904 132.991 9.0777C133.208 8.50209 133.478 8.00056 133.801 7.57311C134.137 7.14307 134.492 6.8008 134.867 6.54629C135.239 6.27999 135.571 6.11445 135.865 6.04955C135.994 6.02109 136.104 6.0152 136.194 6.03218C136.295 6.04655 136.379 6.08939 136.444 6.16098C136.519 6.21809 136.559 6.31364 136.564 6.44754C136.557 6.69446 136.511 6.9316 136.426 7.15895C136.339 7.37472 136.136 7.59747 135.817 7.82732C135.439 8.11957 135.13 8.42101 134.892 8.73144C134.662 9.02768 134.494 9.35318 134.388 9.70794C134.279 10.0509 134.238 10.4466 134.264 10.895C134.287 11.8839 134.569 12.6196 135.107 13.1019C135.644 13.5726 136.334 13.7145 137.18 13.5278C138.002 13.3462 138.653 12.8954 139.134 12.1757C139.623 11.4417 139.853 10.5625 139.822 9.5385C139.809 8.59634 139.593 7.9075 139.176 7.47197C138.756 7.02475 138.194 6.87898 137.489 7.03464C137.125 7.11511 136.829 7.254 136.602 7.4515C136.387 7.6463 136.159 7.89312 135.917 8.19196C135.745 8.41412 135.609 8.60962 135.512 8.77846C135.414 8.9474 135.321 9.08449 135.234 9.18973C135.155 9.28059 135.04 9.343 134.888 9.37675C134.723 9.41299 134.582 9.38893 134.465 9.30446C134.356 9.20561 134.298 9.02818 134.29 8.77217C134.277 8.4928 134.351 8.18807 134.512 7.85798C134.684 7.52539 134.909 7.20577 135.185 6.89924C135.471 6.57834 135.792 6.30496 136.149 6.0789C136.503 5.84127 136.867 5.68091 137.242 5.59794C138.088 5.41113 138.819 5.45816 139.437 5.73912C140.051 6.00841 140.529 6.46731 140.871 7.11591C141.21 7.75284 141.384 8.53653 141.394 9.46701C141.426 10.3806 141.281 11.2227 140.959 11.9931C140.636 12.752 140.174 13.3879 139.573 13.901C138.985 14.4115 138.291 14.755 137.493 14.9314ZM143.772 13.5442C143.608 13.5805 143.467 13.5563 143.349 13.4719C143.246 13.3964 143.165 13.2795 143.105 13.1209C143.033 12.9648 143 12.7881 143.005 12.5906C143.005 12.3697 143.055 12.0643 143.152 11.6745C143.259 11.2703 143.404 10.8149 143.587 10.3082C143.767 9.78971 143.96 9.26871 144.163 8.74501C144.385 8.19286 144.614 7.6452 144.851 7.10203C145.095 6.54459 145.335 6.04376 145.569 5.59934C145.8 5.14334 145.997 4.78079 146.158 4.51191C146.415 4.11172 146.672 3.80319 146.932 3.58623C147.201 3.35508 147.488 3.20571 147.793 3.13831C148.075 3.07601 148.291 3.13262 148.441 3.30815C148.588 3.4719 148.724 3.69356 148.848 3.97303C148.974 4.26419 149.106 4.60926 149.245 5.00824C149.383 5.40723 149.529 5.8167 149.685 6.23656C149.837 6.64463 149.999 7.03843 150.17 7.41795C150.373 7.88853 150.556 8.29011 150.716 8.6229C150.888 8.9531 151.042 9.23187 151.179 9.45932C151.328 9.68427 151.463 9.87528 151.584 10.0326C151.701 10.1665 151.795 10.2867 151.868 10.3934C151.941 10.4999 151.986 10.6188 152.003 10.7501C152.025 10.9048 152.01 11.0614 151.96 11.2199C151.909 11.3785 151.827 11.5071 151.713 11.6057C151.613 11.7136 151.488 11.7844 151.336 11.8181C151.112 11.8674 150.889 11.8062 150.666 11.6346C150.451 11.4487 150.239 11.1829 150.026 10.8371C149.814 10.4913 149.606 10.1137 149.404 9.70424C149.286 9.44824 149.129 9.10826 148.937 8.68461C148.752 8.24658 148.561 7.7734 148.361 7.26518C148.16 6.74528 147.974 6.24625 147.806 5.76788C147.65 5.28702 147.529 4.88414 147.444 4.55923L147.828 4.62174C147.566 4.99846 147.295 5.46365 147.011 6.0171C146.737 6.55637 146.457 7.15206 146.171 7.80436C145.897 8.45396 145.634 9.12573 145.382 9.81957C145.142 10.5109 144.931 11.1957 144.75 11.8739C144.592 12.3872 144.446 12.7815 144.311 13.057C144.186 13.3299 144.007 13.4922 143.772 13.5442ZM156.292 10.7784C155.739 10.9003 155.257 10.8658 154.845 10.6746C154.433 10.4833 154.11 10.168 153.877 9.72871C153.64 9.2777 153.511 8.72335 153.488 8.06576C153.466 7.24831 153.446 6.46731 153.428 5.72265C153.407 4.96631 153.387 4.3204 153.366 3.78502C153.357 3.24695 153.352 2.89219 153.351 2.72065C153.342 2.57508 153.361 2.43609 153.405 2.30349C153.461 2.1684 153.54 2.05278 153.642 1.95663C153.743 1.86047 153.859 1.79817 153.988 1.76961C154.259 1.71 154.488 1.80037 154.677 2.0409C154.878 2.27873 154.988 2.57967 155.008 2.94351C155.011 3.28659 154.998 3.70055 154.97 4.18521C154.954 4.66737 154.956 5.12087 154.977 5.54592C154.973 5.69399 154.968 5.89159 154.961 6.13851C154.964 6.37105 154.962 6.61089 154.955 6.85781C154.958 7.09035 154.96 7.29244 154.961 7.46398C154.97 8.11248 155.079 8.59794 155.286 8.92025C155.494 9.24265 155.796 9.35977 156.196 9.27151C156.419 9.22228 156.653 9.10926 156.897 8.93263C157.153 8.7534 157.388 8.54163 157.606 8.2974C157.819 8.04149 157.99 7.78299 158.116 7.52179C158.243 7.26069 158.285 7.03064 158.24 6.83175C158.184 6.52512 158.047 6.29757 157.829 6.14939C157.623 5.99853 157.348 5.89968 157.005 5.85275C156.811 5.80982 156.565 5.78435 156.268 5.77647C155.97 5.76848 155.656 5.77028 155.326 5.78186C154.994 5.78176 154.678 5.80243 154.379 5.84386L154.424 4.63731C154.831 4.47366 155.284 4.26918 155.784 4.02375C156.296 3.77573 156.82 3.50046 157.356 3.19792C157.893 2.89529 158.404 2.59205 158.891 2.28812C159.443 1.94534 159.923 1.61215 160.331 1.28875C160.751 0.96275 161.109 0.687372 161.404 0.462617C161.709 0.223683 161.966 0.080802 162.178 0.0340736C162.542 -0.0463031 162.846 0.0155028 163.088 0.21969C163.34 0.409499 163.469 0.712334 163.475 1.1282C163.476 1.52069 163.476 1.9073 163.475 2.28802C163.482 2.65456 163.487 3.03397 163.488 3.42647C163.497 3.74358 163.512 4.11461 163.533 4.53956C163.551 4.95283 163.577 5.37648 163.612 5.81052C163.648 6.24465 163.693 6.63964 163.748 6.9958C163.8 7.22974 163.851 7.48834 163.902 7.77171C163.961 8.04069 163.994 8.24219 163.999 8.37598C164.004 8.50987 163.978 8.63848 163.919 8.76199C163.869 8.87112 163.791 8.96198 163.685 9.03477C163.591 9.11654 163.48 9.17176 163.352 9.20032C163.105 9.25483 162.891 9.17935 162.709 8.97396C162.538 8.7542 162.408 8.47613 162.32 8.13944C162.19 7.55464 162.095 6.96195 162.035 6.36157C161.972 5.74941 161.932 5.12626 161.914 4.49214C161.915 4.22185 161.91 3.92221 161.899 3.59352C161.899 3.26212 161.9 2.93652 161.903 2.61681C161.905 2.2972 161.904 2.01514 161.899 1.77081C161.903 1.51221 161.905 1.32769 161.905 1.21726L162.339 1.50781C162.104 1.71959 161.789 1.96701 161.396 2.25017C161.012 2.51906 160.571 2.80672 160.073 3.11325C159.572 3.408 159.047 3.70794 158.499 4.01317C157.951 4.3183 157.394 4.61315 156.829 4.89752C156.274 5.1676 155.734 5.40324 155.212 5.60443L155.248 4.93386C155.339 4.90141 155.478 4.85857 155.663 4.80546C155.858 4.73796 156.084 4.67566 156.342 4.61854C156.483 4.58739 156.682 4.56802 156.939 4.56033C157.208 4.55005 157.489 4.56772 157.782 4.61325C158.088 4.65629 158.385 4.74415 158.673 4.87675C158.97 4.99516 159.22 5.17329 159.42 5.41123C159.633 5.64647 159.774 5.94681 159.843 6.31195C159.921 6.77334 159.86 7.24701 159.661 7.73297C159.472 8.21633 159.198 8.66973 158.836 9.09328C158.475 9.51673 158.069 9.88247 157.621 10.1902C157.169 10.4863 156.726 10.6824 156.292 10.7784ZM7.26158 60.0654C6.75665 60.177 6.29152 60.1079 5.86619 59.8582C5.45269 59.606 5.08941 59.2199 4.77635 58.6999C4.46339 58.18 4.21428 57.56 4.02923 56.84C3.85591 56.1174 3.76419 55.346 3.75396 54.526C3.74364 54.0373 3.74113 53.5838 3.74645 53.1654C3.76359 52.7443 3.79366 52.3266 3.83686 51.912C3.88007 51.4974 3.9343 51.0497 3.99966 50.569C4.07424 50.0738 4.16376 49.508 4.26831 48.8712C4.3036 48.6425 4.37216 48.4801 4.47391 48.3839C4.57315 48.2762 4.7167 48.2015 4.90456 48.16C5.0455 48.1288 5.18313 48.166 5.31756 48.2712C5.44928 48.3648 5.54451 48.5156 5.60315 48.7236C5.67352 48.929 5.68585 49.1778 5.64014 49.4701C5.54341 50.142 5.46492 50.73 5.40477 51.2342C5.35635 51.7359 5.32167 52.216 5.30062 52.6747C5.2914 53.1309 5.28989 53.6221 5.29631 54.1485C5.31044 54.8203 5.35986 55.4292 5.44457 55.9751C5.5409 56.5182 5.67132 56.9927 5.83562 57.3982C5.99721 57.792 6.17464 58.0903 6.36771 58.2931C6.5699 58.4816 6.78843 58.55 7.0233 58.4981C7.37556 58.4202 7.73122 58.2742 8.09009 58.0599C8.44636 57.8339 8.77255 57.5839 9.06887 57.3098C9.37421 57.0215 9.62161 56.7213 9.81087 56.4095C10.0001 56.0977 10.085 55.8151 10.0656 55.5617C10.0617 55.3784 9.93908 55.2152 9.6977 55.0723C9.46553 54.9149 9.13744 54.7972 8.71341 54.719C8.28938 54.6409 7.80139 54.6076 7.24945 54.6191C6.70924 54.6279 6.13515 54.7056 5.52707 54.8523C5.20078 54.9366 4.93072 54.9411 4.7168 54.8656C4.51451 54.7875 4.41026 54.5958 4.40374 54.2904C4.40905 54.0929 4.50569 53.9181 4.69354 53.7662C4.87889 53.6025 5.2123 53.4122 5.69387 53.1954C6.11018 53.0175 6.53161 52.8078 6.95834 52.5663C7.39691 52.3221 7.81512 52.0702 8.21319 51.8105C8.62289 51.5481 8.98898 51.2831 9.31136 51.0156C9.63374 50.748 9.89016 50.4888 10.0807 50.2381C10.2713 49.9874 10.3647 49.7703 10.3608 49.5871C10.3453 49.296 10.2142 49.0672 9.96755 48.9007C9.73018 48.72 9.40078 48.5965 8.97935 48.53C8.56966 48.461 8.0914 48.4439 7.54477 48.4788C6.99804 48.5136 6.42515 48.5972 5.8263 48.7295C5.40347 48.8229 4.99377 48.9196 4.59701 49.0194C4.20947 49.1051 3.92177 49.1687 3.73391 49.2102C3.56951 49.2465 3.42136 49.2178 3.28964 49.1242C3.15531 49.0189 3.08614 48.8747 3.08233 48.6914C3.07321 48.3743 3.24884 48.0839 3.60901 47.8203C3.96919 47.5566 4.50158 47.3469 5.20629 47.1912C6.14577 46.9837 7.0246 46.8633 7.84269 46.8297C8.67251 46.7937 9.39606 46.8609 10.0132 47.0314C10.6303 47.2018 11.1175 47.4808 11.4749 47.8682C11.8297 48.2439 12.009 48.7444 12.0127 49.3694C12.0204 49.7359 11.8664 50.1504 11.5505 50.6129C11.2464 51.0728 10.7295 51.5736 9.99993 52.1152C9.27046 52.6569 8.28908 53.2296 7.05588 53.8334L6.9817 53.3343C7.88068 53.2216 8.63091 53.2154 9.23247 53.3158C9.84305 53.4017 10.3205 53.554 10.6649 53.7725C11.0211 53.9883 11.2754 54.245 11.428 54.5427C11.5898 54.826 11.6738 55.1205 11.6803 55.4258C11.6957 55.9379 11.5684 56.4447 11.2982 56.9462C11.0398 57.4451 10.6873 57.9096 10.2409 58.3396C9.79453 58.7695 9.31036 59.1403 8.78839 59.452C8.27554 59.7494 7.76661 59.9539 7.26158 60.0654ZM18.0848 57.6376C17.3566 57.7985 16.7238 57.8339 16.1863 57.7441C15.6578 57.6399 15.224 57.435 14.8849 57.1295C14.5431 56.8123 14.2822 56.4158 14.1023 55.9401C13.9342 55.4618 13.8436 54.9173 13.8307 54.3064C13.8322 53.7048 13.9277 53.0823 14.117 52.4391C14.3155 51.7816 14.6021 51.1599 14.9767 50.574C15.3632 49.9855 15.8245 49.4846 16.3609 49.0716C16.9064 48.6442 17.5139 48.3567 18.1833 48.2088C18.8057 48.0713 19.3387 48.0578 19.7823 48.1684C20.2376 48.2765 20.5846 48.5066 20.8233 48.8589C21.0737 49.2087 21.2053 49.6888 21.2183 50.2997C21.2312 50.8 21.1326 51.2697 20.9224 51.7089C20.7213 52.1338 20.4322 52.5229 20.0549 52.8762C19.687 53.2152 19.2543 53.5134 18.7571 53.7705C18.269 54.0133 17.7314 54.1995 17.1443 54.3292C16.3456 54.5056 15.7905 54.5301 15.4786 54.4027C15.1786 54.2726 15.0259 54.0854 15.0208 53.841C15.013 53.6955 15.0438 53.5844 15.1129 53.5078C15.1795 53.4194 15.3008 53.3558 15.477 53.3169C15.6061 53.2883 15.764 53.278 15.9507 53.2859C16.1464 53.2794 16.4262 53.236 16.7903 53.1556C17.3775 53.0259 17.8877 52.8272 18.321 52.5597C18.766 52.2896 19.11 51.9804 19.3526 51.6322C19.5928 51.2724 19.7124 50.8962 19.7112 50.5038C19.7035 50.1372 19.5978 49.8844 19.3943 49.7453C19.2026 49.6035 18.8777 49.5833 18.4197 49.6845C17.9617 49.7857 17.5448 49.9883 17.1688 50.2922C16.8021 50.5818 16.4759 50.9423 16.19 51.3736C15.9158 51.8024 15.7063 52.2722 15.5613 52.7828C15.4163 53.2935 15.3529 53.8106 15.3711 54.3344C15.3826 54.7736 15.4628 55.1609 15.6115 55.4963C15.7575 55.8199 15.9962 56.0617 16.3276 56.2217C16.668 56.3674 17.1084 56.3806 17.6486 56.2612C18.2593 56.1263 18.765 55.9348 19.1656 55.6868C19.5754 55.4244 19.9095 55.1542 20.1679 54.8763C20.4263 54.5983 20.6443 54.3598 20.8218 54.1611C20.9993 53.9624 21.1703 53.8448 21.3348 53.8085C21.5343 53.7644 21.6922 53.8093 21.8083 53.9432C21.9335 54.0628 21.9988 54.2447 22.0039 54.4891C22.009 54.7334 21.9052 55.0141 21.6924 55.3311C21.4888 55.6338 21.2003 55.9429 20.8271 56.2585C20.4656 56.5717 20.048 56.8541 19.5743 57.106C19.1098 57.3437 18.6131 57.5209 18.0848 57.6376ZM28.2727 55.2949C27.7089 55.4194 27.1988 55.4524 26.7421 55.3937C26.2855 55.3351 25.9182 55.2076 25.6403 55.0112C25.3624 54.8149 25.2171 54.5769 25.2041 54.2975C25.2081 54.1494 25.2453 54.0123 25.3157 53.8863C25.3862 53.7603 25.4979 53.6804 25.6505 53.6466C25.7679 53.6207 25.8801 53.6266 25.9872 53.6643C26.0941 53.7021 26.2213 53.7476 26.3688 53.8009C26.5161 53.8542 26.721 53.8888 26.9833 53.9045C27.2429 53.9084 27.5841 53.8638 28.007 53.7704C28.6646 53.6251 29.199 53.3414 29.6101 52.9192C30.0304 52.4827 30.2236 51.857 30.19 51.0422C30.1848 50.4665 30.08 49.9681 29.8752 49.5469C29.6796 49.1115 29.4103 48.7598 29.0672 48.4921C28.7215 48.2125 28.3177 48.0317 27.8559 47.9497C27.394 47.8676 26.893 47.8862 26.3527 48.0056C26.0827 48.0652 25.8131 48.1555 25.5444 48.2762C25.2755 48.397 25.0354 48.4807 24.824 48.5274C24.6948 48.556 24.5709 48.5527 24.4522 48.5175C24.3308 48.4707 24.2395 48.3926 24.1783 48.2835C24.1169 48.1742 24.085 48.0586 24.0824 47.9364C24.0825 47.605 24.2405 47.3186 24.5563 47.0769C24.8813 46.8211 25.4137 46.6114 26.1536 46.448C26.9404 46.2742 27.6691 46.2543 28.3398 46.3884C29.0221 46.52 29.6177 46.7873 30.1264 47.1903C30.6325 47.5816 31.0317 48.1011 31.3238 48.7483C31.625 49.3813 31.7846 50.1254 31.8027 50.9804C31.8169 51.5419 31.7358 52.063 31.5596 52.5437C31.395 53.0219 31.1574 53.4488 30.8468 53.8242C30.5335 54.1879 30.159 54.4977 29.7231 54.7536C29.2846 54.9977 28.8011 55.1781 28.2727 55.2949ZM25.1338 60.701C24.9928 60.7322 24.8617 60.7244 24.7404 60.6775C24.6334 60.6398 24.548 60.5604 24.4841 60.4396C24.4201 60.3187 24.3863 60.1666 24.3825 59.9834C24.3785 59.8002 24.4066 59.6222 24.4668 59.4493C24.5177 59.2908 24.5725 59.0946 24.6313 58.8606C24.6927 58.6385 24.7469 58.3565 24.794 58.0147C24.8411 57.673 24.8601 57.233 24.8511 56.6951C24.837 55.8022 24.7407 54.9277 24.5622 54.0712C24.3837 53.2147 24.1967 52.3478 24.0012 51.4706C23.8149 50.579 23.7049 49.6705 23.6712 48.7453C23.6647 48.4398 23.7163 48.2014 23.826 48.0299C23.9448 47.8441 24.1099 47.7278 24.3213 47.6812C24.5092 47.6397 24.6762 47.6703 24.8223 47.773C24.9775 47.8614 25.1021 48.0057 25.196 48.2059C25.2873 48.3944 25.331 48.6179 25.3269 48.8765C25.3424 49.6094 25.4028 50.2957 25.5084 50.9351C25.6231 51.5602 25.7468 52.171 25.8797 52.7676C26.0244 53.3616 26.1515 53.9594 26.2609 54.5611C26.3703 55.1628 26.4308 55.7938 26.4424 56.454C26.4644 57.0505 26.4512 57.5996 26.4028 58.1011C26.3543 58.6027 26.2726 59.0381 26.1578 59.4071C26.0546 59.7736 25.9169 60.0678 25.7446 60.29C25.584 60.5095 25.3804 60.6466 25.1338 60.701ZM36.403 53.5907C35.8628 53.7101 35.3937 53.6788 34.9958 53.4967C34.6097 53.312 34.3011 53.0058 34.0704 52.5782C33.8512 52.1479 33.734 51.6216 33.7185 50.999C33.6991 50.4142 33.7677 49.81 33.9245 49.1863C34.0903 48.5483 34.3287 47.931 34.6394 47.3347C34.9475 46.7267 35.311 46.1738 35.73 45.6763C36.1581 45.1644 36.6293 44.7351 37.1434 44.3882C37.6693 44.0389 38.2201 43.8006 38.7955 43.6735C39.0656 43.6138 39.2927 43.6374 39.4766 43.744C39.6606 43.8507 39.7544 44.0508 39.7583 44.3445C39.766 44.4901 39.7288 44.6272 39.6466 44.7558C39.5617 44.8727 39.4221 44.9649 39.2277 45.0324C38.4317 45.331 37.7335 45.7921 37.1331 46.4156C36.5445 47.0366 36.0896 47.7323 35.7683 48.5027C35.4562 49.259 35.3047 50.0166 35.3136 50.7756C35.3188 51.1303 35.3526 51.448 35.4151 51.7288C35.4751 51.9978 35.612 52.3358 35.8258 52.7426L34.8868 51.6799C35.158 51.9021 35.3851 52.0361 35.5677 52.0816C35.7621 52.1246 36.0178 52.1111 36.335 52.041C37.0865 51.875 37.743 51.2268 38.3044 50.0964C38.8658 48.966 39.2707 47.4099 39.5192 45.4282C39.5519 45.1878 39.6257 44.9936 39.7405 44.8454C39.8645 44.6831 40.0263 44.5798 40.2259 44.5357C40.4961 44.476 40.7276 44.5476 40.9207 44.7504C41.1229 44.9389 41.2513 45.2113 41.306 45.5673C41.4232 46.3146 41.5483 46.9866 41.6813 47.5831C41.8233 48.1654 42.0104 48.7008 42.2425 49.1896C42.4864 49.6757 42.828 50.1586 43.2677 50.6384C43.3643 50.7397 43.4235 50.8678 43.4456 51.0225C43.4795 51.1745 43.471 51.3298 43.4201 51.4884C43.3809 51.6442 43.3071 51.7833 43.1988 51.9054C43.0996 52.0132 42.9678 52.0852 42.8034 52.1216C42.6273 52.1605 42.4785 52.1565 42.3572 52.1097C42.2475 52.0603 42.1432 51.979 42.0441 51.866C41.8119 51.5981 41.5934 51.3089 41.3887 50.9982C41.184 50.6876 40.9922 50.3248 40.8136 49.9103C40.644 49.4813 40.4987 48.9673 40.3776 48.3681C40.2564 47.7691 40.1575 47.0484 40.0807 46.2063L40.7109 46.0486C40.584 47.3039 40.3756 48.387 40.0857 49.2979C39.7932 50.197 39.4432 50.9494 39.036 51.5548C38.6379 52.1459 38.211 52.6084 37.7556 52.9422C37.3001 53.276 36.8492 53.4922 36.403 53.5907ZM53.1932 49.8999C52.7939 49.9882 52.4559 49.9646 52.1794 49.8294C51.9146 49.6915 51.6954 49.4822 51.522 49.2015C51.3459 48.9089 51.2174 48.5814 51.1366 48.2188C51.0651 47.8419 51.0254 47.4702 51.0176 47.1038C51.0203 46.7841 51.0335 46.4007 51.057 45.9536C51.0924 45.504 51.1356 45.0343 51.1866 44.5443C51.2377 44.0545 51.2893 43.5951 51.3416 43.1662C51.4057 42.7348 51.4599 42.3976 51.5043 42.1546C51.5658 41.7114 51.6305 41.3658 51.6984 41.1177C51.7781 40.8668 51.906 40.722 52.0821 40.683C52.2348 40.6494 52.3875 40.6708 52.5401 40.7476C52.6927 40.8243 52.8167 40.938 52.9118 41.0889C53.0188 41.2371 53.0768 41.4145 53.086 41.6211C53.0924 41.816 53.0701 42.1033 53.0191 42.4827C52.9682 42.8621 52.9086 43.2864 52.8407 43.7555C52.7727 44.2246 52.7118 44.6983 52.6582 45.1765C52.602 45.643 52.5777 46.0595 52.5854 46.426C52.5854 46.7574 52.6062 47.0719 52.6479 47.3695C52.6869 47.6554 52.7507 47.8868 52.8395 48.0635C52.9256 48.2287 53.0449 48.2943 53.1975 48.2606C53.5733 48.1775 53.9747 47.7391 54.4017 46.9452C54.8402 46.1487 55.2874 45.0866 55.7432 43.7586C55.9573 43.1713 56.1382 42.6281 56.2857 42.1292C56.4334 41.6303 56.5646 41.1962 56.6795 40.8272C56.7919 40.4465 56.9153 40.1431 57.0497 39.917C57.1841 39.691 57.3395 39.5585 57.5156 39.5195C57.7857 39.4599 58.0029 39.5223 58.1673 39.7069C58.3408 39.8773 58.4594 40.1333 58.5233 40.4751C58.591 40.7793 58.6627 41.1561 58.7383 41.6058C58.8256 42.0529 58.9154 42.5116 59.0079 42.9821C59.0979 43.4409 59.193 43.8678 59.2933 44.2629C59.4798 44.9336 59.6681 45.475 59.8585 45.8869C60.0581 46.2847 60.2276 46.6031 60.3671 46.8424C60.5067 47.0815 60.5888 47.2843 60.6135 47.4506C60.6305 47.5819 60.6167 47.7138 60.5723 47.8463C60.5253 47.9672 60.4569 48.0744 60.3667 48.1679C60.2767 48.2614 60.1671 48.3225 60.0379 48.351C59.6268 48.4418 59.2733 48.2376 58.9773 47.7385C58.6812 47.2394 58.3859 46.5498 58.0912 45.6699C57.9739 45.254 57.8501 44.8089 57.7198 44.3344C57.6011 43.8575 57.4943 43.3779 57.3992 42.8957C57.3158 42.411 57.2402 41.9613 57.1726 41.5467L57.7225 41.6093C57.6141 42.0628 57.4795 42.565 57.3188 43.116C57.1582 43.667 56.9278 44.3745 56.6274 45.2385C56.3688 45.9583 56.0686 46.6568 55.7265 47.3337C55.3818 47.9989 54.9974 48.5686 54.5733 49.0428C54.1582 49.5027 53.6981 49.7884 53.1932 49.8999ZM73.6633 45.3594C72.7943 45.5513 72.0159 45.5698 71.3284 45.4149C70.6499 45.2457 70.0772 44.9427 69.6102 44.5059C69.1432 44.069 68.7839 43.5348 68.5323 42.903C68.2924 42.2688 68.1621 41.5735 68.1414 40.8171C68.1312 39.9971 68.2214 39.2408 68.4122 38.5482C68.612 37.8414 68.8712 37.2073 69.1897 36.646C69.5056 36.073 69.8397 35.582 70.1922 35.1727C70.5445 34.7635 70.8669 34.4407 71.1592 34.2043C71.4517 33.9678 71.6683 33.8341 71.8092 33.803C71.9266 33.777 72.0362 33.7712 72.138 33.7855C72.2398 33.7999 72.3369 33.8766 72.4295 34.0157C72.6161 34.2445 72.6493 34.4764 72.5292 34.7116C72.4091 34.9468 72.2263 35.1774 71.9809 35.4034C71.6455 35.7229 71.3003 36.1368 70.9452 36.6447C70.602 37.1501 70.3148 37.7413 70.0836 38.4183C69.8642 39.0927 69.7563 39.8529 69.76 40.6989C69.7794 41.3941 69.9234 42.0128 70.1921 42.5548C70.4725 43.0942 70.8866 43.4875 71.4345 43.7346C71.9917 43.9675 72.6988 43.9893 73.5561 43.7998C74.2138 43.6546 74.8186 43.3552 75.3707 42.9019C75.9201 42.4368 76.3587 41.8613 76.6864 41.1753C77.0232 40.4749 77.1794 39.7103 77.1548 38.8812C77.1275 38.1508 77.028 37.4549 76.8559 36.7933C76.6813 36.12 76.4342 35.5364 76.1147 35.0425C75.7925 34.5369 75.3953 34.1643 74.923 33.9251C74.4625 33.6832 73.9386 33.6271 73.3515 33.7568C73.093 33.8139 72.9097 33.9587 72.8013 34.1913C72.7021 34.4095 72.6558 34.6715 72.6622 34.9768C72.6699 35.2328 72.6131 35.4479 72.4917 35.622C72.3677 35.7843 72.2176 35.885 72.0415 35.9239C71.8888 35.9577 71.7447 35.9466 71.6089 35.8906C71.4733 35.8347 71.3578 35.7313 71.2626 35.5806C71.1649 35.418 71.1133 35.2146 71.1082 34.9703C71.1018 34.5544 71.1795 34.1568 71.3414 33.7774C71.5033 33.398 71.7429 33.0628 72.06 32.7719C72.3888 32.4783 72.7999 32.277 73.2932 32.1681C74.0918 31.9917 74.8243 32.0446 75.4911 32.3268C76.1577 32.6091 76.7278 33.0661 77.2012 33.6979C77.6839 34.3154 78.0594 35.0609 78.328 35.9342C78.6082 36.8051 78.7554 37.742 78.7695 38.7453C78.7889 39.5511 78.6764 40.3184 78.4322 41.0474C78.188 41.7764 77.8362 42.437 77.3767 43.0294C76.9265 43.6075 76.3835 44.1018 75.748 44.5122C75.1216 44.9083 74.4267 45.1907 73.6633 45.3594ZM81.085 43.7565C80.9206 43.7929 80.7797 43.7688 80.6623 43.6842C80.5593 43.6088 80.4777 43.4918 80.4177 43.3333C80.3461 43.1773 80.3128 43.0006 80.3181 42.8031C80.3181 42.5821 80.3671 42.2767 80.4651 41.8869C80.5722 41.4828 80.7172 41.0273 80.9 40.5206C81.0802 40.0022 81.2721 39.4811 81.4758 38.9575C81.6978 38.4052 81.927 37.8576 82.1633 37.3145C82.4088 36.757 82.6482 36.2561 82.882 35.8118C83.1131 35.3558 83.3095 34.9933 83.4713 34.7243C83.7273 34.3242 83.985 34.0157 84.2447 33.7987C84.5136 33.5674 84.8007 33.4182 85.106 33.3507C85.3879 33.2885 85.6038 33.3451 85.7538 33.5205C85.9012 33.6844 86.0369 33.906 86.1607 34.1854C86.2872 34.4765 86.4195 34.8216 86.5577 35.2207C86.696 35.6197 86.8426 36.0291 86.9977 36.4489C87.1503 36.8571 87.312 37.2509 87.4828 37.6304C87.6862 38.1009 87.8681 38.5026 88.0285 38.8354C88.2006 39.1655 88.3552 39.4443 88.4921 39.6718C88.6408 39.8966 88.7758 40.0877 88.8971 40.245C89.0132 40.3789 89.1077 40.4992 89.1808 40.6057C89.2539 40.7124 89.2988 40.8313 89.3157 40.9626C89.3379 41.1172 89.3235 41.2738 89.2725 41.4323C89.2216 41.5908 89.1394 41.7194 89.0258 41.8182C88.9267 41.926 88.8007 41.9968 88.648 42.0306C88.4249 42.0798 88.2018 42.0187 87.9788 41.847C87.7648 41.6611 87.5516 41.3952 87.3389 41.0495C87.1264 40.7037 86.919 40.3261 86.7169 39.9167C86.5982 39.6606 86.4425 39.3207 86.2494 38.897C86.0655 38.4589 85.8739 37.9859 85.6744 37.4776C85.4723 36.9577 85.2872 36.4586 85.1189 35.9803C84.9626 35.4995 84.842 35.0965 84.7573 34.7716L85.1408 34.8341C84.8798 35.2109 84.6076 35.676 84.3243 36.2296C84.0501 36.7687 83.7701 37.3645 83.4842 38.0167C83.21 38.6664 82.9469 39.3382 82.6949 40.032C82.4546 40.7233 82.2437 41.4081 82.0621 42.0864C81.9054 42.5996 81.7592 42.994 81.6234 43.2695C81.4994 43.5423 81.3199 43.7047 81.085 43.7565ZM93.7729 40.9168C93.1975 41.044 92.7123 41.0529 92.3183 40.9435C91.9214 40.8225 91.599 40.6177 91.3498 40.3291C91.0981 40.0288 90.9103 39.6837 90.7864 39.2938C90.6717 38.8896 90.6099 38.4737 90.6009 38.0462C90.5879 37.5458 90.6188 36.9929 90.6933 36.3873C90.7653 35.7701 90.7999 35.2347 90.7974 34.7811C90.782 34.2691 90.752 33.8584 90.7078 33.5491C90.6635 33.2397 90.6441 32.9863 90.6493 32.7888C90.6441 32.6549 90.6604 32.5347 90.6983 32.4282C90.7479 32.3191 90.8132 32.2249 90.8941 32.1456C90.9868 32.0638 91.1095 32.006 91.2622 31.9723C91.591 31.8997 91.8462 31.9966 92.0296 32.263C92.2211 32.5153 92.3223 32.8609 92.3344 33.3003C92.3474 33.5796 92.3414 33.9123 92.3163 34.2982C92.2893 34.6726 92.2582 35.0598 92.2241 35.46C92.19 35.8603 92.164 36.2403 92.1459 36.6004C92.1269 36.9603 92.1208 37.2625 92.1259 37.5068C92.1399 37.9577 92.191 38.3515 92.2782 38.6881C92.3624 39.0131 92.5138 39.2496 92.7323 39.3979C92.9589 39.5318 93.2777 39.5534 93.6887 39.4626C94.0295 39.3873 94.3703 39.2322 94.7121 38.9971C95.055 38.762 95.3617 38.4795 95.6324 38.1495C95.904 37.8195 96.1105 37.4733 96.2519 37.1108C96.3902 36.7366 96.4283 36.3844 96.3672 36.0542C96.3331 35.9023 96.2188 35.8047 96.0253 35.7618C95.8399 35.7045 95.5532 35.7186 95.1652 35.8043C94.7312 35.9003 94.2971 36.0268 93.8641 36.1839C93.431 36.341 93.024 36.5045 92.6421 36.6747C92.2612 36.8447 91.9334 37.0032 91.658 37.1498C91.5549 37.1849 91.4511 37.1894 91.3468 37.1634C91.2541 37.1348 91.1753 37.0847 91.11 37.0132C91.0566 36.9391 91.0298 36.8468 91.0298 36.7364C91.0143 36.5558 91.0358 36.4037 91.0946 36.2803C91.1624 36.1425 91.2838 36.0237 91.4586 35.9236C91.6845 35.7756 91.9524 35.6243 92.2632 35.4698C92.583 35.301 92.9228 35.1399 93.2827 34.9868C93.6435 34.8336 94.0014 34.6992 94.3573 34.5837C94.7111 34.4565 95.047 34.3578 95.3637 34.2877C95.9391 34.1606 96.3962 34.1394 96.7361 34.224C97.0869 34.306 97.3505 34.4686 97.528 34.7117C97.7054 34.9547 97.8217 35.2544 97.8768 35.6104C97.965 36.1186 97.9109 36.652 97.7154 37.2108C97.52 37.7695 97.2202 38.3081 96.8183 38.8264C96.4283 39.3422 95.9672 39.7877 95.4349 40.1631C94.9016 40.5384 94.3483 40.7897 93.7729 40.9168ZM100.937 39.334C100.656 39.3963 100.415 39.3143 100.218 39.0881C100.031 38.8593 99.9037 38.513 99.8376 38.049C99.8055 37.8476 99.7794 37.5649 99.7594 37.201C99.7404 36.8371 99.7233 36.4297 99.7093 35.9787C99.6922 35.5161 99.6752 35.0535 99.6581 34.5908C99.6531 34.1256 99.6441 33.698 99.6311 33.3081C99.6301 32.9156 99.6281 32.6031 99.6261 32.3705C99.608 31.7363 99.6672 31.2568 99.8045 30.932C99.9509 30.5928 100.217 30.3499 100.603 30.2032C100.966 30.0617 101.356 29.9326 101.773 29.8158C102.2 29.6847 102.625 29.5725 103.048 29.479C103.365 29.409 103.691 29.3493 104.025 29.3001C104.356 29.2392 104.666 29.1951 104.956 29.1679C105.246 29.1407 105.481 29.1441 105.661 29.178C105.815 29.2053 105.934 29.2709 106.019 29.375C106.101 29.4672 106.145 29.5804 106.15 29.7143C106.155 29.9586 106.046 30.1606 105.823 30.3203C105.6 30.4801 105.347 30.5911 105.065 30.6533C104.819 30.7078 104.593 30.7455 104.389 30.7661C104.183 30.7869 103.963 30.8173 103.725 30.8575C103.484 30.886 103.171 30.9431 102.784 31.0286C102.314 31.1325 101.92 31.244 101.601 31.3635C101.283 31.4829 100.928 31.6348 100.538 31.8192L101.276 31.0671C101.25 31.392 101.225 31.7473 101.2 32.1333C101.184 32.505 101.173 32.9247 101.166 33.3925C101.157 33.8487 101.161 34.3633 101.177 34.9364C101.188 35.5355 101.215 36.1002 101.259 36.6304C101.3 37.149 101.343 37.5876 101.386 37.9463C101.428 38.305 101.451 38.5395 101.451 38.65C101.457 38.8449 101.41 38.9963 101.311 39.1041C101.215 39.2237 101.09 39.3003 100.937 39.334ZM109.257 37.496C108.717 37.6153 108.248 37.584 107.85 37.4019C107.464 37.2172 107.155 36.911 106.925 36.4834C106.705 36.0531 106.588 35.5267 106.573 34.9043C106.553 34.3195 106.622 33.7152 106.778 33.0915C106.945 32.4534 107.182 31.8363 107.493 31.2399C107.802 30.6318 108.165 30.079 108.584 29.5815C109.012 29.0696 109.483 28.6403 109.997 28.2935C110.524 27.9442 111.074 27.7059 111.649 27.5788C111.92 27.5191 112.146 27.5426 112.331 27.6492C112.514 27.7559 112.609 27.9561 112.613 28.2497C112.621 28.3953 112.583 28.5324 112.5 28.661C112.416 28.7779 112.276 28.8701 112.081 28.9376C111.285 29.2362 110.588 29.6973 109.987 30.3208C109.399 30.9418 108.944 31.6375 108.623 32.408C108.31 33.1643 108.159 33.9218 108.168 34.6807C108.173 35.0355 108.207 35.3533 108.269 35.634C108.329 35.9031 108.467 36.2409 108.68 36.6478L107.741 35.585C108.012 35.8074 108.239 35.9413 108.421 35.9869C108.616 36.0299 108.872 36.0163 109.189 35.9463C109.941 35.7803 110.597 35.132 111.158 34.0017C111.719 32.8712 112.124 31.3152 112.373 29.3334C112.406 29.0931 112.479 28.8988 112.595 28.7507C112.719 28.5883 112.88 28.485 113.08 28.441C113.35 28.3813 113.582 28.4529 113.774 28.6557C113.977 28.8442 114.105 29.1165 114.16 29.4726C114.278 30.2199 114.403 30.8917 114.535 31.4883C114.678 32.0706 114.864 32.6061 115.097 33.0948C115.34 33.5809 115.682 34.0639 116.122 34.5435C116.218 34.645 116.278 34.773 116.3 34.9277C116.334 35.0797 116.326 35.235 116.275 35.3935C116.235 35.5495 116.161 35.6885 116.053 35.8106C115.954 35.9184 115.822 35.9905 115.658 36.0269C115.482 36.0657 115.332 36.0618 115.211 36.015C115.102 35.9656 114.997 35.8843 114.898 35.7712C114.666 35.5034 114.448 35.2141 114.243 34.9035C114.038 34.5928 113.847 34.2301 113.668 33.8155C113.498 33.3866 113.352 32.8725 113.232 32.2734C113.111 31.6742 113.012 30.9537 112.934 30.1114L113.565 29.9538C113.439 31.2092 113.23 32.2922 112.939 33.2031C112.648 34.1023 112.298 34.8546 111.89 35.46C111.492 36.0511 111.065 36.5136 110.61 36.8474C110.155 37.1812 109.704 37.3975 109.257 37.496ZM11.183 75.5076C10.3139 75.6996 9.55976 75.6882 8.92051 75.4736C8.29028 75.2446 7.79588 74.8506 7.43721 74.2917C7.08776 73.7185 6.90522 73.0102 6.88988 72.1667C6.87695 71.4454 6.98742 70.7522 7.22118 70.0869C7.46407 69.4074 7.80741 68.7915 8.25118 68.2394C8.70408 67.6729 9.22615 67.1956 9.81729 66.8073C10.4085 66.419 11.0447 66.1495 11.7258 65.999C12.0312 65.9316 12.3116 65.9187 12.5674 65.9604C12.8205 65.9904 13.0195 66.0815 13.1643 66.2335C13.3182 66.3713 13.3932 66.5695 13.3892 66.8281C13.3918 67.0608 13.3427 67.2557 13.2422 67.4129C13.1392 67.5584 12.9995 67.6507 12.8233 67.6895C12.6942 67.7181 12.5891 67.7168 12.5082 67.6855C12.4273 67.6543 12.3405 67.6244 12.2479 67.5958C12.167 67.5645 12.0385 67.5684 11.8624 67.6073C11.1929 67.7552 10.6025 68.0635 10.0909 68.5325C9.5766 68.9897 9.17393 69.5328 8.88282 70.1617C8.60083 70.7763 8.463 71.4019 8.46931 72.0387C8.49658 72.5482 8.60344 72.9725 8.78999 73.3118C8.98557 73.6367 9.25823 73.8649 9.60788 73.9963C9.96926 74.1251 10.379 74.1389 10.837 74.0377C11.3537 73.9236 11.7517 73.7743 12.031 73.5899C12.3076 73.3938 12.5171 73.2002 12.6594 73.0093C12.8134 72.8157 12.9361 72.6474 13.0275 72.5044C13.1162 72.3499 13.237 72.2557 13.3897 72.222C13.6128 72.1726 13.7772 72.1916 13.8829 72.2787C14.0002 72.3632 14.0641 72.5394 14.0745 72.8071C14.0782 73.2113 13.9555 73.6003 13.7062 73.9746C13.4543 74.337 13.1058 74.6533 12.6608 74.9234C12.2275 75.191 11.7349 75.3857 11.183 75.5076ZM23.4633 72.8315C23.1814 72.8938 22.9368 72.8189 22.7294 72.6071C22.522 72.3952 22.3525 72.0767 22.2208 71.6517C22.0983 71.2124 22.0293 70.6815 22.0138 70.059C22.0166 69.408 22.0708 68.905 22.1767 68.5503C22.2916 68.1813 22.4535 67.9123 22.6623 67.7434C22.7759 67.6448 22.9488 67.5636 23.181 67.5C23.4107 67.4247 23.6547 67.3585 23.913 67.3015C24.7703 67.1121 25.6068 66.8843 26.4223 66.6183C27.247 66.3379 28.0359 65.9795 28.7889 65.5432L29.3757 66.6838C28.8171 67.0526 28.1986 67.3734 27.5201 67.646C26.8414 67.9187 26.1433 68.1588 25.4257 68.3664C24.7171 68.5598 24.0223 68.7316 23.3411 68.8822L22.2842 68.95C22.2832 68.2261 22.2801 67.4659 22.275 66.6692C22.27 65.8726 22.2598 65.163 22.2444 64.5405C22.2287 64.2495 22.2719 64.0006 22.3737 63.794C22.4755 63.5874 22.6146 63.4647 22.7907 63.4257C23.0843 63.3608 23.3276 63.4298 23.5207 63.6326C23.7111 63.8237 23.8083 64.1766 23.812 64.6913C23.8224 64.959 23.821 65.2845 23.8079 65.6679C23.7946 66.0512 23.7796 66.4534 23.7624 66.8745C23.7571 67.2929 23.7479 67.6939 23.7347 68.0772C23.7307 68.4463 23.7313 68.753 23.7364 68.9973C23.7467 69.7068 23.7765 70.3385 23.8259 70.8921C23.8844 71.4315 23.9202 71.8408 23.9333 72.1202C23.9345 72.2918 23.8882 72.4431 23.7941 72.5743C23.7145 72.7147 23.6043 72.8004 23.4633 72.8315ZM29.5408 71.4889C29.2472 71.5538 28.998 71.4309 28.7932 71.1201C28.6002 70.8069 28.4444 70.3565 28.3258 69.7691C28.2164 69.1673 28.1526 68.4942 28.1346 67.7495C28.1192 66.5747 28.1266 65.6404 28.1569 64.9464C28.1962 64.2382 28.2492 63.6742 28.3159 63.2544C28.3525 62.9763 28.4192 62.7223 28.5157 62.4924C28.6123 62.2623 28.7605 62.1253 28.9602 62.0812C29.2185 62.0241 29.4279 62.1068 29.5883 62.329C29.7579 62.537 29.8452 62.8184 29.8503 63.1732C29.862 63.6125 29.8344 64.0972 29.7677 64.6274C29.7128 65.155 29.6964 65.717 29.7183 66.3135C29.7338 67.0465 29.776 67.706 29.845 68.2922C29.9231 68.864 29.9993 69.3442 30.0736 69.7328C30.1479 70.1214 30.1823 70.4144 30.177 70.6119C30.1888 70.8303 30.1326 71.0207 30.0086 71.1831C29.8846 71.3454 29.7286 71.4474 29.5408 71.4889ZM34.872 70.2927C34.3318 70.412 33.8628 70.3807 33.4649 70.1986C33.0787 70.0139 32.7702 69.7077 32.5394 69.2801C32.3203 68.8498 32.203 68.3234 32.1875 67.701C32.1682 67.1162 32.2368 66.5119 32.3935 65.8882C32.5594 65.2502 32.7977 64.633 33.1084 64.0366C33.4165 63.4285 33.7801 62.8757 34.199 62.3782C34.6271 61.8663 35.0983 61.437 35.6125 61.0902C36.1384 60.7409 36.6891 60.5026 37.2645 60.3755C37.5347 60.3158 37.7616 60.3393 37.9456 60.4459C38.1295 60.5526 38.2235 60.7528 38.2273 61.0464C38.2351 61.192 38.1979 61.3291 38.1156 61.4577C38.0308 61.5746 37.8912 61.6668 37.6967 61.7343C36.9007 62.0329 36.2025 62.494 35.6021 63.1175C35.0135 63.7385 34.5586 64.4342 34.2374 65.2047C33.9253 65.961 33.7738 66.7185 33.7827 67.4774C33.7878 67.8322 33.8217 68.15 33.8842 68.4307C33.9442 68.6998 34.081 69.0376 34.2949 69.4445L33.3557 68.3817C33.6271 68.6041 33.8541 68.738 34.0368 68.7836C34.2312 68.8266 34.4869 68.813 34.804 68.743C35.5556 68.577 36.2121 67.9287 36.7734 66.7984C37.3348 65.6679 37.7398 64.1119 37.9882 62.1301C38.0209 61.8898 38.0947 61.6955 38.2095 61.5474C38.3335 61.385 38.4953 61.2817 38.695 61.2377C38.9651 61.178 39.1967 61.2496 39.3897 61.4524C39.5919 61.6409 39.7204 61.9132 39.775 62.2693C39.8923 63.0166 40.0174 63.6885 40.1503 64.285C40.2924 64.8673 40.4794 65.4028 40.7116 65.8916C40.9554 66.3776 41.2971 66.8606 41.7367 67.3402C41.8332 67.4417 41.8926 67.5697 41.9147 67.7244C41.9486 67.8764 41.9401 68.0317 41.8892 68.1902C41.85 68.3462 41.7762 68.4852 41.6678 68.6073C41.5687 68.7151 41.4369 68.7872 41.2725 68.8236C41.0963 68.8624 40.9476 68.8585 40.8262 68.8117C40.7166 68.7623 40.6123 68.681 40.5131 68.5679C40.281 68.3001 40.0625 68.0108 39.8577 67.7002C39.6529 67.3895 39.4613 67.0268 39.2826 66.6122C39.1131 66.1833 38.9678 65.6692 38.8466 65.0701C38.7254 64.4709 38.6264 63.7504 38.5497 62.9081L39.18 62.7506C39.0531 64.0059 38.8447 65.089 38.5547 65.9998C38.2622 66.899 37.9123 67.6513 37.505 68.2567C37.107 68.8478 36.6801 69.3103 36.2246 69.6441C35.7692 69.9779 35.3183 70.1942 34.872 70.2927ZM44.6668 68.1289C44.3849 68.1911 44.1449 68.1092 43.9467 67.883C43.7601 67.6542 43.6336 67.3078 43.5672 66.8438C43.5347 66.6424 43.5087 66.3598 43.4892 65.9958C43.4697 65.632 43.4529 65.2246 43.4386 64.7736C43.4218 64.311 43.405 63.8483 43.3881 63.3856C43.3831 62.9204 43.3741 62.4929 43.3611 62.103C43.3599 61.7105 43.358 61.398 43.3555 61.1653C43.3374 60.5312 43.3969 60.0516 43.534 59.7268C43.6802 59.3877 43.9465 59.1448 44.3327 58.9981C44.6955 58.8566 45.0856 58.7275 45.5032 58.6106C45.93 58.4795 46.3547 58.3673 46.7774 58.2739C47.2472 58.1701 47.734 58.0871 48.2376 58.025C48.7386 57.9511 49.1229 57.9338 49.3904 57.9728C49.5444 58.0002 49.6637 58.0659 49.7485 58.1698C49.8307 58.2622 49.8744 58.3752 49.8796 58.5091C49.8847 58.7534 49.7756 58.9554 49.5525 59.1152C49.3293 59.2749 49.0768 59.3859 48.7949 59.4482C48.5483 59.5027 48.3226 59.5403 48.1178 59.561C47.9129 59.5817 47.6918 59.6122 47.4543 59.6523C47.2142 59.6809 46.9003 59.7379 46.5128 59.8236C46.0431 59.9273 45.649 60.0389 45.3305 60.1584C45.0122 60.2778 44.6579 60.4296 44.2676 60.6141L45.0057 59.8619C44.9573 60.3635 44.9206 60.9178 44.8957 61.5247C44.8824 62.1289 44.8861 62.8645 44.9068 63.7313C44.9171 64.3304 44.9443 64.8951 44.9886 65.4253C45.0302 65.9438 45.0724 66.3824 45.1154 66.7412C45.1583 67.0998 45.1799 67.3345 45.1798 67.4449C45.1863 67.6398 45.1399 67.7912 45.0407 67.899C44.9441 68.0185 44.8195 68.0952 44.6668 68.1289ZM55.3673 65.6729C54.8035 65.7974 54.2934 65.8304 53.8367 65.7718C53.3801 65.713 53.0128 65.5855 52.7349 65.3892C52.457 65.1928 52.3117 64.955 52.2986 64.6756C52.3027 64.5275 52.3398 64.3904 52.4103 64.2644C52.4809 64.1383 52.5925 64.0584 52.7451 64.0247C52.8625 63.9988 52.9748 64.0047 53.0817 64.0424C53.1887 64.0801 53.3159 64.1257 53.4634 64.179C53.6107 64.2323 53.8156 64.2669 54.0779 64.2825C54.3375 64.2865 54.6787 64.2418 55.1016 64.1484C55.7591 64.0032 56.2935 63.7194 56.7046 63.2972C57.125 62.8607 57.3182 62.2351 57.2846 61.4202C57.2794 60.8445 57.1746 60.3462 56.9699 59.925C56.7742 59.4896 56.505 59.1379 56.1618 58.87C55.8161 58.5906 55.4123 58.4097 54.9505 58.3277C54.4886 58.2456 53.9875 58.2643 53.4473 58.3836C53.1773 58.4433 52.9078 58.5335 52.639 58.6543C52.3701 58.775 52.13 58.8588 51.9186 58.9054C51.7895 58.9339 51.6655 58.9306 51.5468 58.8955C51.4254 58.8487 51.3341 58.7707 51.2729 58.6615C51.2115 58.5523 51.1796 58.4366 51.177 58.3145C51.1771 57.9831 51.3351 57.6966 51.6509 57.455C51.9759 57.1991 52.5083 56.9894 53.2481 56.826C54.035 56.6522 54.7637 56.6324 55.4344 56.7665C56.1167 56.898 56.7123 57.1653 57.221 57.5683C57.7271 57.9597 58.1263 58.479 58.4184 59.1263C58.7196 59.7594 58.8792 60.5034 58.8973 61.3585C58.9115 61.92 58.8304 62.4411 58.6542 62.9218C58.4896 63.4 58.252 63.8267 57.9413 64.2022C57.6281 64.566 57.2536 64.8757 56.8177 65.1316C56.3793 65.3758 55.8958 65.5562 55.3673 65.6729ZM52.2284 71.0791C52.0874 71.1103 51.9563 71.1024 51.835 71.0555C51.7281 71.0178 51.6426 70.9385 51.5787 70.8176C51.5147 70.6968 51.4809 70.5447 51.4771 70.3614C51.4731 70.1782 51.5013 70.0002 51.5614 69.8273C51.6123 69.6689 51.6671 69.4727 51.726 69.2387C51.7873 69.0166 51.8415 68.7346 51.8885 68.3928C51.9357 68.0511 51.9547 67.6111 51.9457 67.0732C51.9317 66.1803 51.8353 65.3057 51.6568 64.4492C51.4783 63.5927 51.2913 62.7258 51.0958 61.8486C50.9095 60.957 50.7995 60.0486 50.7658 59.1232C50.7594 58.8179 50.8109 58.5795 50.9206 58.4079C51.0394 58.2221 51.2045 58.1059 51.4159 58.0592C51.6038 58.0177 51.7708 58.0483 51.9169 58.151C52.0721 58.2395 52.1967 58.3838 52.2906 58.584C52.3818 58.7724 52.4256 58.9959 52.4215 59.2545C52.437 59.9875 52.4974 60.6737 52.603 61.3131C52.7177 61.9382 52.8415 62.5491 52.9743 63.1457C53.119 63.7396 53.246 64.3374 53.3555 64.9391C53.4649 65.5409 53.5254 66.1718 53.537 66.832C53.559 67.4285 53.5458 67.9776 53.4974 68.4792C53.4489 68.9808 53.3672 69.4162 53.2524 69.7852C53.1492 70.1516 53.0115 70.4459 52.8392 70.668C52.6786 70.8876 52.475 71.0246 52.2284 71.0791ZM63.4976 63.9688C62.9574 64.0881 62.4883 64.0568 62.0904 63.8747C61.7043 63.69 61.3957 63.3838 61.165 62.9562C60.9458 62.5259 60.8286 61.9996 60.8131 61.3771C60.7937 60.7923 60.8623 60.188 61.0191 59.5643C61.185 58.9263 61.4233 58.3091 61.734 57.7127C62.0421 57.1046 62.4056 56.5519 62.8246 56.0543C63.2528 55.5424 63.7239 55.1131 64.238 54.7663C64.764 54.417 65.3147 54.1787 65.8902 54.0516C66.1602 53.9919 66.3873 54.0154 66.5712 54.122C66.7551 54.2287 66.849 54.4288 66.8529 54.7226C66.8606 54.8681 66.8234 55.0052 66.7412 55.1338C66.6563 55.2508 66.5167 55.3429 66.3223 55.4104C65.5263 55.709 64.8281 56.1701 64.2277 56.7936C63.6391 57.4146 63.1842 58.1103 62.863 58.8808C62.5509 59.6371 62.3994 60.3946 62.4083 61.1535C62.4134 61.5084 62.4472 61.8261 62.5097 62.1069C62.5697 62.3759 62.7066 62.7138 62.9204 63.1206L61.9814 62.0578C62.2527 62.2802 62.4797 62.4142 62.6623 62.4597C62.8567 62.5027 63.1125 62.4891 63.4296 62.4191C64.1812 62.253 64.8376 61.6048 65.3991 60.4745C65.9604 59.344 66.3653 57.788 66.6138 55.8062C66.6465 55.5659 66.7203 55.3716 66.8351 55.2235C66.9591 55.0611 67.1209 54.9578 67.3205 54.9138C67.5907 54.8541 67.8223 54.9257 68.0153 55.1285C68.2175 55.317 68.3459 55.5893 68.4007 55.9454C68.5178 56.6927 68.6429 57.3646 68.7759 57.9611C68.9179 58.5434 69.1051 59.0789 69.3371 59.5677C69.581 60.0537 69.9227 60.5367 70.3623 61.0163C70.4588 61.1178 70.5182 61.2458 70.5402 61.4005C70.5741 61.5525 70.5656 61.7078 70.5147 61.8663C70.4755 62.0223 70.4018 62.1613 70.2934 62.2834C70.1942 62.3912 70.0624 62.4633 69.898 62.4997C69.7219 62.5385 69.5731 62.5346 69.4518 62.4878C69.3422 62.4384 69.2379 62.3571 69.1387 62.244C68.9065 61.9762 68.688 61.6869 68.4832 61.3763C68.2785 61.0656 68.0868 60.7029 67.9081 60.2883C67.7386 59.8594 67.5934 59.3453 67.4722 58.7462C67.351 58.147 67.2521 57.4264 67.1753 56.5842L67.8055 56.4267C67.6786 57.682 67.4702 58.7651 67.1803 59.6759C66.8878 60.5751 66.5378 61.3274 66.1306 61.9328C65.7325 62.5239 65.3056 62.9864 64.8502 63.3202C64.3947 63.654 63.9439 63.8703 63.4976 63.9688ZM72.5278 60.943C72.6022 60.5583 72.7087 60.1237 72.8471 59.6391C72.983 59.1426 73.1325 58.6248 73.2958 58.0855C73.4708 57.5438 73.6484 57.0136 73.8286 56.4952C74.0179 55.9624 74.2001 55.4803 74.3751 55.049C74.6087 54.4941 74.849 53.9686 75.0957 53.4722C75.3425 52.9759 75.5898 52.5653 75.8378 52.2406C76.095 51.9015 76.3351 51.7073 76.5583 51.658C76.7931 51.6061 77.0208 51.6601 77.2412 51.82C77.4735 51.9774 77.7109 52.2686 77.9534 52.6936C78.1203 53.0004 78.3127 53.3936 78.5304 53.8732C78.7483 54.3529 78.9705 54.8806 79.1975 55.4564C79.4217 56.0204 79.6296 56.5942 79.8213 57.1778C80.0129 57.7614 80.1706 58.3034 80.2944 58.8037L78.7755 59.2866C78.6387 58.7277 78.4621 58.1286 78.2457 57.4892C78.0384 56.8354 77.8128 56.2102 77.569 55.6136C77.3252 55.017 77.0938 54.5035 76.8746 54.0734C76.653 53.6314 76.4593 53.3428 76.2936 53.2076L76.9493 52.9155C76.6621 53.3962 76.3671 53.9523 76.0643 54.5837C75.773 55.2126 75.5145 55.8772 75.2886 56.5776C75.1202 57.0935 74.9641 57.582 74.8204 58.0433C74.6768 58.5046 74.5482 58.9503 74.4345 59.3804C74.33 59.7962 74.2281 60.2238 74.1289 60.6629L72.5278 60.943ZM80.9021 62.6091C80.6672 62.661 80.4669 62.6194 80.3012 62.4841C80.1356 62.3489 80.0541 62.1767 80.0568 61.9675C80.0489 61.8219 80.0784 61.5945 80.1451 61.2852C80.2142 60.9877 80.2803 60.6478 80.3429 60.2658C80.4057 59.8838 80.4307 59.4978 80.4177 59.108L81.2513 59.8626C81.0816 59.8756 80.818 59.9092 80.4605 59.9637C80.1147 60.0156 79.6776 60.0998 79.1491 60.2166C78.5267 60.3541 77.888 60.5013 77.2329 60.6583C76.5896 60.8128 75.9535 60.9716 75.3246 61.1352C74.7074 61.296 74.122 61.4622 73.5688 61.6335C73.0155 61.8048 72.5118 61.9775 72.0577 62.1514L72.6079 61.3855C72.6183 61.5427 72.6365 61.7351 72.6625 61.9626C72.6886 62.1899 72.7204 62.4161 72.7582 62.641C72.7986 62.8775 72.8325 63.0848 72.8599 63.2628C72.899 63.4383 72.9263 63.5611 72.942 63.6312C72.9746 63.8327 72.938 64.0004 72.8322 64.1342C72.7291 64.2796 72.5777 64.3745 72.378 64.4186C72.0962 64.4808 71.8777 64.4125 71.7224 64.2136C71.5672 64.0147 71.4558 63.7632 71.388 63.4591C71.3346 63.2746 71.287 63.0335 71.2454 62.7359C71.2037 62.4383 71.1822 62.2036 71.1809 62.0321C71.1862 61.8346 71.2202 61.6553 71.2828 61.4941C71.3312 61.324 71.4258 61.168 71.5667 61.0264C71.7078 60.8848 71.9021 60.7621 72.1502 60.6582C72.4332 60.5466 72.8176 60.4188 73.303 60.2747C73.7976 60.1163 74.3534 59.9567 74.9707 59.7958C75.597 59.6206 76.2436 59.4532 76.9104 59.2937C77.5745 59.1223 78.212 58.9693 78.8227 58.8344C79.128 58.7669 79.464 58.6988 79.8307 58.6301C80.1947 58.5497 80.5523 58.4952 80.9032 58.4668C81.2517 58.4266 81.5041 58.4813 81.6607 58.6308C81.829 58.7778 81.9195 59.0462 81.9325 59.436C81.9389 59.7414 81.9199 60.0708 81.8755 60.4244C81.831 60.7778 81.7578 61.113 81.6559 61.4301C81.5684 61.7562 81.4562 62.0265 81.3191 62.2409C81.1937 62.4526 81.0548 62.5754 80.9021 62.6091ZM85.5345 59.1005C84.9942 59.2198 84.5252 59.1884 84.1273 59.0063C83.7411 58.8217 83.4326 58.5155 83.2018 58.0878C82.9828 57.6576 82.8655 57.1313 82.8499 56.5088C82.8306 55.924 82.8993 55.3197 83.0559 54.6959C83.2218 54.0579 83.4601 53.4408 83.7709 52.8444C84.0789 52.2363 84.4425 51.6836 84.8615 51.1859C85.2896 50.6741 85.7607 50.2448 86.2749 49.898C86.8008 49.5486 87.3516 49.3104 87.927 49.1833C88.1971 49.1236 88.4241 49.147 88.608 49.2537C88.792 49.3603 88.8859 49.5605 88.8897 49.8543C88.8975 49.9997 88.8603 50.1368 88.778 50.2654C88.6932 50.3825 88.5536 50.4746 88.3591 50.5421C87.5632 50.8406 86.865 51.3017 86.2645 51.9253C85.6759 52.5462 85.221 53.242 84.8998 54.0125C84.5878 54.7687 84.4362 55.5263 84.4451 56.2852C84.4502 56.6401 84.4841 56.9578 84.5467 57.2385C84.6066 57.5075 84.7435 57.8455 84.9574 58.2523L84.0182 57.1895C84.2895 57.4119 84.5166 57.5459 84.6992 57.5914C84.8936 57.6343 85.1493 57.6208 85.4664 57.5508C86.218 57.3847 86.8745 56.7365 87.4359 55.6061C87.9972 54.4757 88.4022 52.9197 88.6506 50.9379C88.6833 50.6976 88.7571 50.5033 88.872 50.3552C88.996 50.1927 89.1578 50.0895 89.3574 50.0455C89.6276 49.9858 89.8592 50.0574 90.0522 50.2601C90.2544 50.4487 90.3828 50.7209 90.4376 51.0771C90.5547 51.8243 90.6798 52.4963 90.8128 53.0928C90.9548 53.6751 91.1419 54.2106 91.374 54.6993C91.6178 55.1854 91.9595 55.6683 92.3995 56.148C92.4958 56.2495 92.5549 56.3775 92.577 56.5321C92.611 56.6842 92.602 56.8394 92.5519 56.998C92.5128 57.154 92.4386 57.293 92.3304 57.4151C92.2311 57.5229 92.0998 57.595 91.9344 57.6313C91.759 57.6702 91.61 57.6663 91.4886 57.6195C91.3791 57.57 91.2747 57.4888 91.1756 57.3756C90.9434 57.1078 90.725 56.8186 90.5202 56.508C90.3154 56.1972 90.1237 55.8346 89.9451 55.4199C89.7756 54.9911 89.6302 54.477 89.509 53.8779C89.3878 53.2787 89.2889 52.5581 89.2122 51.7159L89.8424 51.5583C89.7155 52.8136 89.5071 53.8968 89.2172 54.8076C88.9246 55.7068 88.5747 56.459 88.1674 57.0645C87.7694 57.6556 87.3425 58.1181 86.887 58.4519C86.4316 58.7857 85.9807 59.0019 85.5345 59.1005ZM95.1231 57.0005C94.8415 57.0628 94.5938 56.9458 94.3793 56.6493C94.1658 56.353 94.0505 55.863 94.0335 55.1794C94.0335 54.9585 94.0345 54.6577 94.0355 54.2769C94.0375 53.8962 94.0576 53.4621 94.0966 52.9748C94.1458 52.4731 94.225 51.9463 94.3362 51.394C94.5377 50.4168 94.7392 49.6358 94.9417 49.0511C95.1412 48.4547 95.3677 48.0058 95.6213 47.7044C95.874 47.403 96.1597 47.2173 96.4764 47.1472C96.723 47.0927 96.9335 47.1506 97.107 47.3209C97.2924 47.4887 97.4458 47.7065 97.5661 47.9741C97.6874 48.2419 97.7976 48.5123 97.8949 48.7852C98.0252 49.1491 98.1766 49.5514 98.349 49.9921C98.5324 50.4301 98.7239 50.8726 98.9224 51.3197C99.1319 51.7643 99.3484 52.1828 99.5709 52.5754C99.8065 52.9654 100.044 53.2871 100.286 53.5406L99.6822 53.8211C99.8747 53.0791 100.09 52.332 100.329 51.5796C100.568 50.8273 100.814 50.1042 101.066 49.4102C101.317 48.7164 101.561 48.0921 101.794 47.5372C102.058 46.9513 102.296 46.5245 102.507 46.2569C102.731 45.9866 102.947 45.8281 103.159 45.7814C103.311 45.7478 103.46 45.7517 103.605 45.7933C103.747 45.8232 103.874 45.8688 103.987 45.93C104.144 46.03 104.279 46.1659 104.392 46.3376C104.504 46.5091 104.578 46.7873 104.614 47.1719C104.696 48.0374 104.796 48.8134 104.912 49.4995C105.036 50.1715 105.156 50.7342 105.269 51.1878C105.46 51.9923 105.663 52.6226 105.875 53.0789C106.1 53.5325 106.21 53.8334 106.206 53.9815C106.216 54.1388 106.161 54.2798 106.042 54.4045C105.935 54.5383 105.789 54.6259 105.601 54.6675C105.319 54.7298 105.054 54.6471 104.807 54.4196C104.57 54.1895 104.378 53.8515 104.229 53.4057C104.089 52.995 103.935 52.4705 103.768 51.8324C103.613 51.1917 103.47 50.4684 103.34 49.6627C103.219 48.8426 103.128 47.9913 103.066 47.1089L103.55 46.8732C103.359 47.3449 103.147 47.8828 102.911 48.4871C102.686 49.077 102.453 49.6928 102.214 50.3347C101.987 50.974 101.77 51.6049 101.564 52.2272C101.369 52.8471 101.204 53.4299 101.067 53.9756C100.986 54.2264 100.873 54.4355 100.726 54.6032C100.589 54.7681 100.41 54.8753 100.187 54.9246C99.9058 54.9868 99.6562 54.9744 99.4396 54.8872C99.2321 54.7858 99.0376 54.6323 98.8562 54.4269C98.6848 54.2073 98.5184 53.9616 98.36 53.6899C98.2758 53.5365 98.1605 53.3227 98.0132 53.0485C97.8638 52.7625 97.7054 52.4414 97.54 52.0853C97.3746 51.7292 97.2092 51.3483 97.0448 50.9428C96.8804 50.5372 96.73 50.135 96.5917 49.7359C96.4504 49.3253 96.3401 48.9386 96.2589 48.576L96.7561 48.3189C96.4844 48.9802 96.2569 49.6195 96.0744 50.2368C95.903 50.8513 95.7777 51.4745 95.6965 52.106C95.6244 52.7233 95.5923 53.3809 95.6003 54.0787C95.6073 54.5557 95.6254 54.9689 95.6544 55.3185C95.6945 55.6655 95.7166 55.9306 95.7206 56.1139C95.7176 56.323 95.6735 56.5109 95.5873 56.6771C95.5011 56.8434 95.3467 56.9513 95.1231 57.0005ZM110.135 53.6843C109.736 53.7725 109.398 53.749 109.121 53.6137C108.856 53.4758 108.637 53.2665 108.464 52.9858C108.287 52.6933 108.159 52.3657 108.079 52.0032C108.006 51.6262 107.967 51.2545 107.959 50.8881C107.962 50.5684 107.975 50.1851 107.998 49.7379C108.034 49.2883 108.078 48.8186 108.128 48.3287C108.179 47.8388 108.231 47.3794 108.283 46.9505C108.347 46.5191 108.401 46.1819 108.445 45.9389C108.508 45.4957 108.572 45.1502 108.64 44.902C108.719 44.6511 108.847 44.5063 109.024 44.4674C109.176 44.4337 109.329 44.4551 109.482 44.5319C109.634 44.6086 109.759 44.7224 109.854 44.8732C109.96 45.0214 110.018 45.1988 110.027 45.4054C110.034 45.6004 110.011 45.8875 109.961 46.267C109.91 46.6465 109.85 47.0707 109.783 47.5398C109.715 48.009 109.653 48.4826 109.6 48.9608C109.543 49.4273 109.519 49.8439 109.527 50.2103C109.527 50.5417 109.548 50.8562 109.589 51.1538C109.628 51.4397 109.693 51.6711 109.781 51.8478C109.867 52.013 109.986 52.0786 110.14 52.0449C110.515 51.9618 110.916 51.5234 111.344 50.7295C111.782 49.9331 112.229 48.8709 112.685 47.5429C112.899 46.9556 113.08 46.4125 113.227 45.9135C113.374 45.4146 113.506 44.9805 113.621 44.6115C113.733 44.2308 113.857 43.9275 113.991 43.7013C114.125 43.4752 114.281 43.3427 114.457 43.3039C114.728 43.2442 114.944 43.3067 115.109 43.4912C115.282 43.6616 115.401 43.9177 115.465 44.2594C115.533 44.5636 115.604 44.9405 115.68 45.3901C115.767 45.8372 115.857 46.296 115.95 46.7665C116.04 47.2253 116.134 47.6521 116.235 48.0473C116.421 48.7179 116.609 49.2593 116.8 49.6713C116.999 50.069 117.169 50.3875 117.309 50.6267C117.448 50.8658 117.531 51.0686 117.556 51.2349C117.572 51.3662 117.559 51.4981 117.514 51.6306C117.467 51.7516 117.398 51.8587 117.308 51.9522C117.218 52.0458 117.109 52.1068 116.979 52.1354C116.568 52.2261 116.215 52.0219 115.919 51.5228C115.623 51.0237 115.327 50.3341 115.032 49.4542C114.915 49.0383 114.792 48.5932 114.662 48.1188C114.542 47.6418 114.436 47.1622 114.341 46.68C114.258 46.1953 114.181 45.7456 114.114 45.331L114.664 45.3936C114.555 45.8471 114.421 46.3493 114.261 46.9003C114.1 47.4512 113.87 48.1588 113.569 49.0228C113.31 49.7427 113.011 50.4411 112.668 51.118C112.324 51.7832 111.939 52.3529 111.515 52.8271C111.1 53.287 110.64 53.5727 110.135 53.6843Z" fill="#E71985"/>
</svg>
