<svg width="147" height="90" viewBox="0 0 147 90" fill="none" xmlns="http://www.w3.org/2000/svg">
<path d="M14.9866 43.9582C14.6273 44.0379 14.3202 43.8356 14.0653 43.3513C13.8225 42.848 13.6362 42.119 13.5064 41.1645C13.3765 40.2099 13.2997 39.088 13.2758 37.7985C13.2656 37.3091 13.2649 36.6783 13.2739 35.906C13.2793 35.1181 13.29 34.2799 13.306 33.3914C13.3184 32.4872 13.3265 31.6004 13.3303 30.7309C13.3306 29.8459 13.3282 29.0597 13.3233 28.3725L13.8827 29.0104C13.4905 29.0155 12.9048 29.0717 12.1255 29.179C11.3619 29.2829 10.4768 29.4301 9.47016 29.6207C8.46008 29.7956 7.40833 30.0044 6.31491 30.247C5.90879 30.3371 5.52002 30.4315 5.1486 30.5303C4.77718 30.6291 4.43874 30.7288 4.13326 30.8293C3.82433 30.9143 3.55271 30.9827 3.3184 31.0347C3.0841 31.0867 2.84894 31.0979 2.61293 31.0683C2.37692 31.0387 2.18084 30.9675 2.02469 30.8547C1.88416 30.7383 1.82 30.5969 1.8322 30.4303C1.8323 30.1352 1.93825 29.8741 2.15005 29.6468C2.36185 29.4196 2.67951 29.2262 3.10301 29.0666C3.52305 28.8915 4.01423 28.7416 4.57655 28.6168C5.35756 28.4435 6.17154 28.2711 7.0185 28.0996C7.88107 27.9246 8.70633 27.7661 9.49427 27.6241C10.2822 27.482 10.986 27.3668 11.6056 27.2786C12.2217 27.1746 12.6955 27.0941 13.027 27.0369C13.8999 26.9088 14.5143 26.9446 14.87 27.1443C15.2222 27.3284 15.4103 27.7701 15.4344 28.4695C15.4394 29.1567 15.4331 29.9038 15.4154 30.7108C15.41 31.4987 15.3967 32.2883 15.3756 33.0797C15.3701 33.8676 15.362 34.6069 15.3514 35.2976C15.3407 35.9883 15.3388 36.5705 15.3456 37.0443C15.3746 38.4309 15.4619 39.5998 15.6073 40.5509C15.7649 41.4828 15.8428 42.1293 15.8409 42.4903C15.8461 42.735 15.8226 42.9615 15.7704 43.1697C15.7183 43.3779 15.6245 43.5462 15.4891 43.6746C15.3728 43.8151 15.2053 43.9097 14.9866 43.9582ZM5.56245 46.0245C5.31252 46.0799 5.08086 46.033 4.86745 45.8837C4.6662 45.7153 4.50402 45.4645 4.38091 45.1312C4.25434 44.7823 4.18767 44.371 4.18089 43.8972C4.162 43.295 4.15615 42.6408 4.16333 41.9345C4.18267 41.209 4.20288 40.4507 4.22398 39.6593C4.24507 38.8679 4.24535 38.0566 4.22481 37.2253C4.21461 36.5884 4.19489 35.8717 4.16566 35.0751C4.13297 34.2629 4.07684 33.4559 3.99728 32.6541C3.91426 31.8367 3.78173 31.1286 3.59972 30.5298L5.70339 29.596C5.83508 30.1895 5.93724 30.8716 6.00987 31.6422C6.09812 32.4093 6.16293 33.1816 6.20432 33.959C6.26133 34.7331 6.29058 35.4559 6.29209 36.1275C6.30234 36.6169 6.31429 37.1879 6.32795 37.8404C6.33815 38.4773 6.34747 39.1472 6.35591 39.8501C6.36088 40.5373 6.36065 41.2011 6.35523 41.8415C6.36543 42.4784 6.37392 43.0337 6.3807 43.5075C6.38748 43.9813 6.38823 44.3171 6.38296 44.5149C6.38974 44.9887 6.31412 45.3497 6.15611 45.5978C6.01026 45.8268 5.81237 45.9691 5.56245 46.0245ZM25.1323 41.7072C23.8514 41.9914 22.7347 41.9441 21.7821 41.5655C20.845 41.1834 20.1146 40.5506 19.5908 39.667C19.0792 38.7644 18.8036 37.6701 18.7641 36.3842C18.7419 35.4713 18.8689 34.6401 19.145 33.8905C19.4334 33.1218 19.7929 32.452 20.2234 31.8812C20.6696 31.3069 21.1418 30.8498 21.64 30.5098C22.1348 30.1542 22.5774 29.9331 22.9679 29.8464C23.1397 29.8083 23.2855 29.8006 23.4052 29.8232C23.5406 29.8423 23.6516 29.8996 23.7384 29.9951C23.8372 30.0715 23.8901 30.1991 23.897 30.3778C23.8882 30.7075 23.8274 31.0242 23.7145 31.3279C23.5981 31.6159 23.3281 31.9135 22.9046 32.2205C22.4012 32.6108 21.9906 33.0133 21.6729 33.428C21.3673 33.8235 21.1442 34.2582 21.0034 34.7319C20.8592 35.19 20.8044 35.7185 20.8389 36.3172C20.8697 37.6379 21.2433 38.6203 21.9598 39.2644C22.6729 39.8928 23.5918 40.0823 24.7164 39.8328C25.8098 39.5902 26.676 38.9883 27.315 38.0271C27.9661 37.0468 28.2711 35.8728 28.2299 34.5053C28.213 33.2471 27.9269 32.3272 27.3718 31.7457C26.8132 31.1485 26.0653 30.9538 25.128 31.1618C24.6438 31.2692 24.2507 31.4548 23.9486 31.7185C23.6622 31.9787 23.3584 32.3083 23.0372 32.7074C22.808 33.004 22.6283 33.2652 22.4981 33.4907C22.3678 33.7163 22.2445 33.8993 22.1282 34.0399C22.0241 34.1613 21.8704 34.2446 21.6674 34.2896C21.4487 34.3381 21.2613 34.306 21.1051 34.1931C20.9611 34.0612 20.884 33.8242 20.8737 33.4824C20.8565 33.1092 20.9547 32.7023 21.1683 32.2616C21.3975 31.8174 21.6961 31.3906 22.0642 30.9811C22.4444 30.5526 22.8714 30.1874 23.3453 29.8856C23.8157 29.5682 24.3009 29.354 24.8007 29.2431C25.9254 28.9936 26.898 29.0564 27.7188 29.4316C28.5361 29.7911 29.1719 30.4039 29.6263 31.27C30.0772 32.1206 30.3094 33.1671 30.3229 34.4097C30.3641 35.6297 30.1711 36.7542 29.7438 37.7832C29.3131 38.7966 28.6984 39.6458 27.8999 40.3311C27.117 41.0128 26.1944 41.4715 25.1323 41.7072ZM38.715 38.6199C37.5591 38.8764 36.556 38.8613 35.7058 38.5746C34.8677 38.2689 34.2101 37.7428 33.7331 36.9964C33.2683 36.231 33.0256 35.2851 33.0052 34.1587C32.9882 33.1956 33.1351 32.2698 33.4461 31.3813C33.7692 30.4738 34.2259 29.6513 34.8162 28.914C35.4186 28.1575 36.113 27.52 36.8994 27.0014C37.6857 26.4827 38.5318 26.1229 39.4378 25.9219C39.8439 25.8318 40.2171 25.8146 40.5572 25.8702C40.8938 25.9103 41.1585 26.0318 41.351 26.2349C41.5557 26.419 41.6554 26.6837 41.6501 27.029C41.6535 27.3397 41.5883 27.5999 41.4546 27.8099C41.3175 28.0042 41.1317 28.1274 40.8974 28.1794C40.7256 28.2175 40.5859 28.2157 40.4783 28.174C40.3707 28.1323 40.2553 28.0924 40.1321 28.0541C40.0245 28.0125 39.8536 28.0176 39.6193 28.0696C38.7289 28.2671 37.9435 28.679 37.263 29.3053C36.579 29.9159 36.0434 30.6412 35.6561 31.481C35.281 32.3017 35.0976 33.1373 35.106 33.9877C35.1422 34.668 35.2843 35.2346 35.5323 35.6877C35.7925 36.1216 36.1551 36.4263 36.6202 36.6017C37.1008 36.7737 37.6457 36.7921 38.2549 36.657C38.9422 36.5045 39.4716 36.3051 39.8431 36.0588C40.2111 35.7969 40.4897 35.5384 40.6789 35.2833C40.8838 35.0248 41.047 34.8001 41.1686 34.6093C41.2866 34.4028 41.4472 34.277 41.6503 34.232C41.9471 34.1661 42.1657 34.1914 42.3062 34.3077C42.4624 34.4205 42.5474 34.6557 42.5611 35.0132C42.5661 35.553 42.4028 36.0727 42.0712 36.5724C41.7361 37.0564 41.2726 37.4789 40.6807 37.8396C40.1044 38.1969 39.4492 38.457 38.715 38.6199ZM44.2922 27.4753C43.9329 27.555 43.6275 27.5081 43.3759 27.3345C43.14 27.1574 43.022 26.9213 43.0221 26.6263C43.0309 26.4441 43.0917 26.2749 43.2045 26.1187C43.3174 25.9626 43.5431 25.7978 43.8815 25.6243C44.4092 25.3434 45.1278 25.0365 46.0373 24.7036C46.9624 24.3672 48.0575 24.0587 49.3228 23.7779C49.9788 23.6324 50.5837 23.5146 51.1373 23.4245C51.7031 23.3154 52.3322 23.2332 53.0247 23.1779C53.5696 23.1225 54.0035 23.1574 54.3262 23.2824C54.6646 23.404 54.8363 23.5872 54.8415 23.8319C54.8483 24.0106 54.8127 24.1824 54.7346 24.3473C54.6686 24.493 54.5505 24.6257 54.3804 24.7454C54.2259 24.8617 54.0159 24.9492 53.7503 25.0081C53.4223 25.0809 53.0362 25.1502 52.5919 25.216C52.1476 25.2818 51.672 25.3545 51.1653 25.4342C50.6706 25.4948 50.1656 25.5822 49.6501 25.6966C48.5723 25.9357 47.7158 26.1749 47.0806 26.4142C46.4418 26.6378 45.9159 26.8529 45.5028 27.0592C45.0862 27.25 44.6827 27.3887 44.2922 27.4753ZM49.8001 36.2343C49.4565 36.3105 49.1676 36.2271 48.9334 35.9841C48.7148 35.7375 48.5257 35.4025 48.3662 34.979C48.2622 34.6579 48.1634 34.2128 48.0699 33.6435C47.9885 33.0552 47.928 32.413 47.8883 31.7171C47.8452 31.0056 47.8151 30.3157 47.7979 29.6476C47.7791 28.7503 47.7595 27.9598 47.7389 27.2761C47.7304 26.5732 47.7167 25.9944 47.6978 25.5397L49.7753 24.9313C49.7718 25.2107 49.7682 25.5639 49.7646 25.9908C49.7731 26.3986 49.786 26.8629 49.8031 27.3835C49.8168 27.8885 49.8262 28.4109 49.8312 28.9506C49.8484 29.4712 49.8621 29.9763 49.8724 30.4657C49.8895 31.2813 49.9335 31.9599 50.0044 32.5014C50.0876 33.0238 50.1733 33.4473 50.2617 33.7718C50.3501 34.0964 50.4264 34.3663 50.4905 34.5815C50.5512 34.7811 50.585 34.9702 50.5919 35.149C50.5987 35.3278 50.5709 35.4978 50.5084 35.6592C50.4424 35.8049 50.346 35.9247 50.2193 36.0183C50.0961 36.1276 49.9563 36.1996 49.8001 36.2343ZM62.0853 33.5086C60.8044 33.7928 59.6877 33.7455 58.735 33.3669C57.798 32.9848 57.0676 32.352 56.5438 31.4684C56.0322 30.5658 55.7566 29.4715 55.7171 28.1856C55.6949 27.2727 55.8219 26.4415 56.098 25.6919C56.3864 24.9232 56.7458 24.2534 57.1764 23.6826C57.6226 23.1083 58.0948 22.6512 58.593 22.3112C59.0877 21.9556 59.5304 21.7345 59.9209 21.6478C60.0927 21.6097 60.2385 21.602 60.3582 21.6246C60.4936 21.6437 60.6046 21.701 60.6913 21.7965C60.7902 21.8729 60.8431 22.0005 60.85 22.1792C60.8412 22.5089 60.7804 22.8256 60.6675 23.1293C60.5511 23.4173 60.2811 23.7149 59.8576 24.0219C59.3542 24.4122 58.9436 24.8147 58.6259 25.2294C58.3203 25.6249 58.0971 26.0596 57.9564 26.5333C57.8122 26.9914 57.7574 27.5198 57.7919 28.1186C57.8227 29.4393 58.1963 30.4217 58.9128 31.0658C59.6259 31.6942 60.5447 31.8837 61.6694 31.6342C62.7628 31.3916 63.629 30.7897 64.268 29.8285C64.9191 28.8482 65.2241 27.6742 65.1829 26.3067C65.166 25.0485 64.8799 24.1286 64.3248 23.547C63.7662 22.9499 63.0183 22.7552 62.081 22.9632C61.5968 23.0706 61.2037 23.2562 60.9016 23.5199C60.6152 23.7801 60.3114 24.1097 59.9902 24.5087C59.761 24.8054 59.5813 25.0666 59.4511 25.2921C59.3208 25.5177 59.1975 25.7007 59.0812 25.8413C58.9771 25.9627 58.8234 26.046 58.6204 26.091C58.4017 26.1395 58.2143 26.1074 58.0581 25.9945C57.9141 25.8626 57.837 25.6256 57.8267 25.2838C57.8095 24.9106 57.9076 24.5037 58.1213 24.063C58.3505 23.6188 58.6491 23.192 59.0172 22.7825C59.3974 22.354 59.8244 21.9888 60.2983 21.687C60.7687 21.3696 61.2539 21.1554 61.7537 21.0445C62.8783 20.795 63.851 20.8578 64.6718 21.2329C65.4891 21.5925 66.1249 22.2053 66.5793 23.0714C67.0302 23.922 67.2624 24.9685 67.2759 26.2111C67.3171 27.4311 67.1241 28.5556 66.6968 29.5846C66.2661 30.5979 65.6514 31.4472 64.8529 32.1325C64.07 32.8142 63.1474 33.2729 62.0853 33.5086ZM79.2415 29.6776C78.8197 29.7712 78.4735 29.6514 78.2029 29.3181C77.9445 28.9657 77.745 28.5101 77.6046 27.9512C77.5423 27.67 77.479 27.3481 77.4149 26.9854C77.3509 26.6226 77.3007 26.2486 77.2643 25.8633C77.2437 25.4746 77.2221 25.1188 77.1996 24.796C77.1997 24.501 77.1999 24.1322 77.2 23.6897C77.2158 23.2437 77.2298 22.7899 77.2421 22.3282C77.2666 21.8475 77.2841 21.4093 77.2946 21.0136C77.3173 20.5989 77.3296 20.2848 77.3314 20.0713C77.3176 19.8613 77.2378 19.7233 77.092 19.6573C76.9428 19.5757 76.712 19.5696 76.3996 19.6389C76.1497 19.6943 75.8798 19.7706 75.5899 19.8677C75.3001 19.9648 74.9903 20.0827 74.6605 20.2214C73.8985 20.5543 73.2432 20.9619 72.6947 21.4442C72.1583 21.9074 71.8978 22.3585 71.9133 22.7976C71.9149 23.1742 72.0267 23.4935 72.2488 23.7557C72.483 23.9987 72.869 24.1507 73.407 24.2116C73.9606 24.2691 74.7216 24.1904 75.6901 23.9755C76.0337 23.8993 76.3756 23.8152 76.7158 23.7233C77.056 23.6315 77.3788 23.5353 77.6843 23.4347C78.0019 23.3151 78.2683 23.2232 78.4835 23.1591C78.6953 23.0793 78.8324 23.0325 78.8949 23.0186C79.2854 22.932 79.6186 22.8826 79.8946 22.8706C80.1705 22.8585 80.3084 23 80.3083 23.295C80.3308 23.6178 80.2144 23.9059 79.9592 24.1592C79.7196 24.409 79.3742 24.6249 78.9229 24.807C78.4873 24.9856 77.9648 25.1425 77.3557 25.2777L74.9423 25.8131C74.0988 26.0002 73.2866 26.0329 72.5057 25.9112C71.7405 25.786 71.1132 25.5072 70.6239 25.0749C70.1503 24.6392 69.8997 24.0638 69.8722 23.3488C69.8724 22.9062 69.9784 22.4238 70.1903 21.9015C70.4143 21.3601 70.7859 20.8188 71.305 20.2775C71.8397 19.7328 72.5792 19.2245 73.5234 18.7528C74.2003 18.406 74.7757 18.1554 75.2496 18.0011C75.7234 17.8468 76.2024 17.7159 76.6866 17.6085C77.2958 17.4733 77.7913 17.4536 78.1731 17.5491C78.5548 17.6447 78.8411 17.827 79.0319 18.0961C79.2384 18.3617 79.3458 18.6984 79.3544 19.1062C79.3647 19.4481 79.3515 19.869 79.3149 20.3688C79.2748 20.8529 79.2382 21.3527 79.2051 21.8681C79.1841 22.3645 79.1683 22.8105 79.1577 23.2061C79.1628 23.5984 79.1826 24.0201 79.2172 24.4713C79.2483 24.9069 79.2933 25.3312 79.3521 25.7443C79.411 26.1574 79.4733 26.5123 79.5392 26.8091C79.6154 27.1527 79.7047 27.518 79.8069 27.9051C79.9214 28.273 79.9785 28.5308 79.9785 28.6783C79.9958 28.9039 79.9358 29.1139 79.7987 29.3082C79.6615 29.5025 79.4758 29.6257 79.2415 29.6776ZM70.9888 31.484C70.7076 31.5464 70.4682 31.5012 70.2704 31.3484C70.0847 31.1766 69.9876 30.9605 69.979 30.7001C69.9878 30.5179 70.0668 30.3201 70.2161 30.1067C70.362 29.8777 70.6293 29.6053 71.0182 29.2896C71.6848 28.7484 72.3193 28.0995 72.9218 27.3431C73.5398 26.5831 74.1423 25.7529 74.7292 24.8524L76.3925 25.3684C75.9896 26.0642 75.5381 26.7626 75.0381 27.4635C74.5502 28.1454 74.0519 28.7804 73.5432 29.3685C73.0502 29.9532 72.5832 30.4338 72.1422 30.8102C71.7013 31.1867 71.3168 31.4113 70.9888 31.484ZM85.1832 28.3594C84.8083 28.4425 84.483 28.3426 84.2071 28.0597C83.9313 27.7767 83.7058 27.3514 83.5307 26.7839C83.3678 26.1973 83.2761 25.4883 83.2555 24.657C83.2593 23.7876 83.3315 23.116 83.4723 22.6422C83.6252 22.1494 83.8405 21.7903 84.1182 21.5647C84.2693 21.4329 84.4992 21.3245 84.8082 21.2396C85.1137 21.139 85.4382 21.0506 85.7819 20.9744C86.9221 20.7214 88.0346 20.4172 89.1194 20.0618C90.2164 19.6873 91.2656 19.2087 92.2671 18.6259L93.0476 20.1491C92.3046 20.6417 91.4819 21.07 90.5793 21.4342C89.6768 21.7983 88.7482 22.1191 87.7936 22.3964C86.8512 22.6547 85.927 22.8843 85.021 23.0853L83.6153 23.1759C83.6139 22.2093 83.6099 21.1941 83.6033 20.1302C83.5967 19.0664 83.5831 18.1188 83.5626 17.2876C83.5419 16.8988 83.5993 16.5665 83.7348 16.2906C83.8702 16.0147 84.0551 15.8508 84.2894 15.7988C84.6799 15.7122 85.0035 15.8042 85.2603 16.0751C85.5136 16.3303 85.6427 16.8015 85.6477 17.4887C85.6614 17.8462 85.6596 18.2809 85.642 18.7929C85.6245 19.3048 85.6044 19.842 85.5816 20.4042C85.5745 20.963 85.5621 21.4984 85.5446 22.0104C85.5392 22.5032 85.54 22.9128 85.5468 23.2391C85.5604 24.1866 85.6 25.0301 85.6657 25.7694C85.7435 26.4896 85.7911 27.0363 85.8083 27.4094C85.81 27.6385 85.7483 27.8407 85.6233 28.0159C85.5173 28.2033 85.3707 28.3178 85.1832 28.3594ZM93.2667 26.5659C92.8762 26.6526 92.5447 26.4885 92.2724 26.0736C92.0157 25.6553 91.8085 25.0539 91.6509 24.2694C91.5054 23.4658 91.4206 22.5668 91.3967 21.5724C91.3764 20.0036 91.3864 18.7558 91.4266 17.8291C91.479 16.8833 91.5495 16.1301 91.6382 15.5696C91.6869 15.1982 91.7756 14.859 91.9041 14.5519C92.0326 14.2447 92.2296 14.0617 92.4952 14.0028C92.8388 13.9265 93.1173 14.0368 93.3307 14.3337C93.5562 14.6114 93.6723 14.9872 93.6791 15.461C93.6945 16.0476 93.6579 16.6949 93.5691 17.4029C93.496 18.1075 93.4741 18.858 93.5033 19.6546C93.5238 20.6334 93.5799 21.5142 93.6716 22.2969C93.7755 23.0605 93.8768 23.7018 93.9755 24.2207C94.0743 24.7397 94.1201 25.131 94.1131 25.3948C94.1286 25.6864 94.0539 25.9406 93.889 26.1574C93.724 26.3743 93.5166 26.5105 93.2667 26.5659ZM99.3009 25.2271C98.926 25.3103 98.6006 25.2104 98.3248 24.9275C98.0489 24.6445 97.8235 24.2192 97.6484 23.6517C97.4855 23.065 97.3937 22.3561 97.3732 21.5248C97.3768 20.9504 97.4074 20.4601 97.4648 20.054C97.5378 19.6445 97.636 19.3113 97.7593 19.0545C97.8947 18.7786 98.0536 18.5713 98.2359 18.4325C98.3869 18.3007 98.6169 18.1923 98.9258 18.1074C99.2313 18.0068 99.5559 17.9184 99.8995 17.8422C101.04 17.5892 102.152 17.285 103.237 16.9296C104.334 16.5551 105.383 16.0765 106.385 15.4937L107.165 17.0168C106.422 17.5094 105.6 17.9378 104.697 18.302C103.794 18.6661 102.866 18.9868 101.911 19.2642C100.969 19.5224 100.045 19.7521 99.1387 19.9531L97.7329 20.0437C97.7349 19.3877 97.7334 18.7161 97.7284 18.0289C97.7234 17.3416 97.7124 16.6639 97.6952 15.9958C97.6937 15.3242 97.6887 14.7107 97.6803 14.1553C97.6596 13.7666 97.7169 13.4343 97.8524 13.1584C97.9879 12.8825 98.1727 12.7186 98.407 12.6666C98.7975 12.5799 99.1212 12.672 99.3779 12.9428C99.6312 13.198 99.7603 13.6692 99.7653 14.3565C99.7791 14.714 99.7772 15.1487 99.7597 15.6607C99.7421 16.1726 99.722 16.7097 99.6992 17.272C99.6921 17.8308 99.6798 18.3662 99.6623 18.8781C99.6569 19.371 99.6576 19.7806 99.6644 20.1068C99.678 21.0544 99.7176 21.8978 99.7833 22.6372C99.8612 23.3574 99.9087 23.9041 99.9259 24.2772C99.9276 24.5063 99.8659 24.7084 99.7409 24.8837C99.635 25.0711 99.4883 25.1856 99.3009 25.2271ZM107.384 23.4337C106.994 23.5203 106.662 23.3562 106.39 22.9414C106.133 22.523 105.926 21.9216 105.769 21.1372C105.623 20.3336 105.538 19.4346 105.514 18.4402C105.494 16.8714 105.504 15.6236 105.544 14.6969C105.597 13.7511 105.667 12.9979 105.756 12.4374C105.805 12.066 105.893 11.7268 106.022 11.4196C106.15 11.1125 106.347 10.9295 106.613 10.8706C106.956 10.7943 107.235 10.9046 107.448 11.2015C107.674 11.4792 107.79 11.855 107.797 12.3287C107.812 12.9153 107.776 13.5626 107.687 14.2707C107.614 14.9752 107.592 15.7258 107.621 16.5224C107.641 17.5012 107.698 18.3819 107.789 19.1647C107.893 19.9283 107.994 20.5696 108.093 21.0885C108.192 21.6074 108.238 21.9988 108.231 22.2626C108.246 22.5541 108.172 22.8083 108.007 23.0252C107.842 23.2421 107.634 23.3783 107.384 23.4337ZM114.475 21.8359C113.757 21.9953 113.133 21.9534 112.604 21.7103C112.09 21.4637 111.68 21.0548 111.373 20.4838C111.081 19.9092 110.926 19.2063 110.905 18.375C110.879 17.5941 110.971 16.7871 111.179 15.9542C111.4 15.1022 111.717 14.2779 112.13 13.4815C112.54 12.6695 113.024 11.9312 113.581 11.2667C114.15 10.5831 114.777 10.0098 115.461 9.54665C116.16 9.08005 116.893 8.76185 117.658 8.59204C118.018 8.51233 118.32 8.54367 118.564 8.68606C118.809 8.82845 118.934 9.09575 118.939 9.48796C118.949 9.68233 118.9 9.86541 118.79 10.0372C118.677 10.1933 118.492 10.3165 118.233 10.4066C117.174 10.8054 116.246 11.4212 115.447 12.2539C114.664 13.0832 114.059 14.0123 113.632 15.0413C113.217 16.0512 113.015 17.0629 113.027 18.0764C113.033 18.5502 113.078 18.9745 113.162 19.3494C113.241 19.7087 113.423 20.1599 113.708 20.7032L112.459 19.2841C112.82 19.581 113.122 19.7598 113.364 19.8206C113.623 19.878 113.963 19.8599 114.385 19.7663C115.385 19.5445 116.258 18.6788 117.005 17.1692C117.751 15.6597 118.29 13.5817 118.621 10.9352C118.664 10.6142 118.762 10.3548 118.915 10.157C119.08 9.94009 119.295 9.8022 119.561 9.74328C119.92 9.66357 120.228 9.75913 120.485 10.0299C120.754 10.2817 120.925 10.6453 120.997 11.1208C121.153 12.1188 121.319 13.0161 121.496 13.8127C121.685 14.5902 121.934 15.3053 122.243 15.9579C122.567 16.6071 123.021 17.252 123.606 17.8926C123.734 18.028 123.813 18.1989 123.843 18.4055C123.888 18.6085 123.876 18.8159 123.809 19.0276C123.757 19.2358 123.658 19.4215 123.514 19.5846C123.382 19.7286 123.207 19.8248 122.988 19.8734C122.754 19.9253 122.556 19.9201 122.395 19.8575C122.249 19.7915 122.11 19.683 121.978 19.532C121.67 19.1744 121.379 18.7882 121.107 18.3733C120.834 17.9584 120.58 17.4742 120.342 16.9205C120.117 16.3477 119.923 15.6613 119.762 14.8612C119.601 14.0611 119.469 13.0987 119.367 11.9741L120.206 11.7636C119.992 13.9744 119.576 15.7956 118.96 17.2272C118.359 18.6552 117.656 19.7371 116.853 20.4726C116.049 21.2082 115.256 21.6626 114.475 21.8359ZM134.774 17.3569C134.352 17.4505 134.006 17.3306 133.735 16.9973C133.477 16.6449 133.277 16.1893 133.137 15.6304C133.075 15.3493 133.011 15.0273 132.947 14.6646C132.883 14.3019 132.833 13.9279 132.797 13.5426C132.776 13.1538 132.755 12.7981 132.732 12.4753C132.732 12.1802 132.732 11.8115 132.732 11.3689C132.748 10.9229 132.762 10.4691 132.775 10.0075C132.799 9.52677 132.817 9.08857 132.827 8.69289C132.85 8.27813 132.862 7.96402 132.864 7.75056C132.85 7.54057 132.77 7.40257 132.624 7.33658C132.475 7.25496 132.244 7.24881 131.932 7.31812C131.682 7.37357 131.412 7.44984 131.122 7.54692C130.833 7.64401 130.523 7.76191 130.193 7.90064C129.431 8.23358 128.776 8.64119 128.227 9.12346C127.691 9.58664 127.43 10.0378 127.446 10.4768C127.447 10.8534 127.559 11.1728 127.781 11.4349C128.015 11.678 128.402 11.8299 128.939 11.8909C129.493 11.9483 130.254 11.8696 131.223 11.6548C131.566 11.5785 131.908 11.4945 132.248 11.4026C132.588 11.3107 132.911 11.2145 133.217 11.114C133.534 10.9943 133.801 10.9024 134.016 10.8383C134.228 10.7585 134.365 10.7117 134.427 10.6979C134.818 10.6112 135.151 10.5619 135.427 10.5498C135.703 10.5378 135.841 10.6793 135.841 10.9743C135.863 11.2971 135.747 11.5851 135.492 11.8384C135.252 12.0882 134.907 12.3042 134.455 12.4863C134.02 12.6649 133.497 12.8217 132.888 12.9569L130.475 13.4923C129.631 13.6795 128.819 13.7122 128.038 13.5904C127.273 13.4652 126.646 13.1865 126.156 12.7542C125.683 12.3184 125.432 11.743 125.405 11.028C125.405 10.5855 125.511 10.1031 125.723 9.58076C125.947 9.03938 126.318 8.49805 126.837 7.95677C127.372 7.41202 128.112 6.90379 129.056 6.43207C129.733 6.08521 130.308 5.83463 130.782 5.68034C131.256 5.52604 131.735 5.39518 132.219 5.28775C132.828 5.15259 133.324 5.1328 133.706 5.22838C134.087 5.32396 134.374 5.50628 134.564 5.77534C134.771 6.04093 134.878 6.37764 134.887 6.78547C134.897 7.12736 134.884 7.5482 134.847 8.048C134.807 8.53217 134.771 9.03197 134.738 9.54738C134.717 10.0437 134.701 10.4897 134.69 10.8854C134.695 11.2776 134.715 11.6993 134.75 12.1506C134.781 12.5862 134.826 13.0105 134.885 13.4235C134.943 13.8366 135.006 14.1915 135.072 14.4883C135.148 14.8319 135.237 15.1973 135.339 15.5843C135.454 15.9523 135.511 16.21 135.511 16.3575C135.528 16.5831 135.468 16.7931 135.331 16.9874C135.194 17.1818 135.008 17.3049 134.774 17.3569ZM126.521 19.1633C126.24 19.2257 126.001 19.1805 125.803 19.0277C125.617 18.8558 125.52 18.6397 125.511 18.3794C125.52 18.1972 125.599 17.9994 125.749 17.786C125.894 17.5569 126.162 17.2845 126.551 16.9688C127.217 16.4276 127.852 15.7788 128.454 15.0223C129.072 14.2624 129.675 13.4322 130.262 12.5317L131.925 13.0477C131.522 13.7435 131.071 14.4418 130.571 15.1428C130.083 15.8246 129.584 16.4596 129.076 17.0478C128.583 17.6325 128.116 18.113 127.675 18.4895C127.234 18.8659 126.849 19.0905 126.521 19.1633ZM13.5975 66.7276C12.4416 66.9841 11.4385 66.969 10.5882 66.6823C9.7501 66.3766 9.09255 65.8505 8.61555 65.1041C8.15072 64.3386 7.90807 63.3928 7.88763 62.2664C7.8706 61.3033 8.01756 60.3775 8.32851 59.489C8.65161 58.5815 9.10831 57.759 9.69861 57.0217C10.3011 56.2652 10.9955 55.6277 11.7818 55.1091C12.5681 54.5904 13.4143 54.2306 14.3202 54.0296C14.7264 53.9395 15.0995 53.9223 15.4396 53.9779C15.7763 54.018 16.0409 54.1395 16.2335 54.3426C16.4382 54.5267 16.5379 54.7914 16.5326 55.1367C16.5359 55.4473 16.4708 55.7076 16.3371 55.9176C16.1999 56.1119 16.0142 56.2351 15.7799 56.287C15.608 56.3252 15.4683 56.3234 15.3608 56.2817C15.2532 56.24 15.1378 56.2001 15.0146 56.1618C14.907 56.1201 14.736 56.1253 14.5017 56.1773C13.6114 56.3748 12.826 56.7867 12.1455 57.413C11.4615 58.0236 10.9259 58.7489 10.5386 59.5887C10.1634 60.4094 9.98006 61.245 9.98844 62.0953C10.0247 62.7757 10.1668 63.3423 10.4148 63.7954C10.675 64.2293 11.0376 64.534 11.5026 64.7094C11.9833 64.8814 12.5282 64.8998 13.1374 64.7647C13.8247 64.6122 14.354 64.4128 14.7255 64.1665C15.0935 63.9045 15.3721 63.6461 15.5614 63.391C15.7663 63.1325 15.9295 62.9078 16.051 62.717C16.1691 62.5105 16.3297 62.3847 16.5327 62.3397C16.8295 62.2738 17.0482 62.2991 17.1887 62.4154C17.3448 62.5282 17.4298 62.7634 17.4436 63.1209C17.4486 63.6606 17.2853 64.1804 16.9536 64.6801C16.6185 65.1641 16.155 65.5865 15.5631 65.9473C14.9868 66.3046 14.3316 66.5647 13.5975 66.7276ZM29.4925 63.2502C29.0239 63.3542 28.4772 63.328 27.8525 63.1716C27.2243 62.9995 26.5832 62.7321 25.929 62.3691C25.2905 62.0027 24.6841 61.5964 24.1098 61.1502C23.5512 60.7006 23.0914 60.2535 22.7306 59.8091C22.519 59.5939 22.3672 59.3899 22.2753 59.1972C22.1955 58.9855 22.1409 58.7763 22.1115 58.5698C22.1306 58.4345 22.1619 58.28 22.2054 58.1065C22.2488 57.933 22.3191 57.7698 22.4164 57.6172C22.5484 57.3256 22.7941 56.9188 23.1535 56.3965C23.5129 55.8743 23.9357 55.3052 24.4218 54.6893C24.9201 54.0543 25.4427 53.4549 25.9895 52.891C26.5485 52.3081 27.0858 51.8119 27.6014 51.4026C28.1326 50.9897 28.609 50.7365 29.0308 50.6429C29.2026 50.6048 29.344 50.6144 29.4551 50.6717C29.5818 50.7255 29.6824 50.8097 29.757 50.9243C29.8316 51.0389 29.8749 51.1604 29.887 51.2888C29.9476 51.6359 29.7939 52.0142 29.4259 52.4236C29.0578 52.8331 28.6533 53.226 28.2124 53.6024C27.4329 54.2998 26.7533 54.9669 26.1734 55.6036C25.5936 56.2403 25.1344 56.7929 24.7958 57.2613C24.4728 57.7263 24.3209 58.0387 24.3399 58.1983C24.3364 58.3302 24.4249 58.5073 24.6053 58.7295C24.7857 58.9517 25.045 59.1973 25.3834 59.4664C25.7373 59.7321 26.1476 59.9934 26.6144 60.2504C27.0968 60.5039 27.6225 60.7314 28.1917 60.933C28.53 61.0545 28.8589 61.1701 29.1782 61.2795C29.5096 61.3699 29.7803 61.4819 29.9902 61.6156C30.2123 61.7302 30.3381 61.8908 30.3675 62.0973C30.39 62.2726 30.37 62.4409 30.3075 62.6023C30.245 62.7637 30.1364 62.9025 29.9819 63.0187C29.8431 63.1315 29.6799 63.2086 29.4925 63.2502ZM21.685 64.9578C21.2789 65.0479 20.9605 64.9055 20.7298 64.5306C20.4956 64.14 20.3232 63.5473 20.2124 62.7525C20.1137 61.9385 20.049 60.9449 20.0181 59.7718C20.0079 59.2824 20.0081 58.7661 20.0187 58.2229C20.0449 57.6762 20.0711 57.1296 20.0973 56.5829C20.1201 56.0206 20.1228 55.4792 20.1057 54.9585C20.1092 54.8266 20.1049 54.6965 20.0928 54.5681C20.0928 54.4205 20.0851 54.2748 20.0695 54.1307C20.0627 53.8045 20.0914 53.5277 20.1557 53.3003C20.22 53.073 20.3103 52.8891 20.4266 52.7486C20.5551 52.5889 20.6974 52.4918 20.8536 52.4572C21.2129 52.3774 21.5304 52.4791 21.8063 52.762C22.0943 53.0259 22.2399 53.4607 22.2432 54.0664C22.2517 54.4742 22.2342 54.9862 22.1906 55.6022C22.1591 56.1992 22.1234 56.8135 22.0832 57.4452C22.0431 58.0769 22.0264 58.6297 22.0332 59.1034C22.0728 59.9469 22.1246 60.6975 22.1886 61.3552C22.2682 62.0095 22.347 62.5493 22.425 62.9745C22.4995 63.3841 22.5306 63.6722 22.5184 63.8388C22.5287 64.0331 22.4948 64.2127 22.4167 64.3776C22.3507 64.5233 22.2543 64.643 22.1276 64.7367C22.02 64.8425 21.8724 64.9163 21.685 64.9578ZM35.4044 61.9386C34.8733 62.0564 34.4238 62.025 34.056 61.8444C33.7038 61.6603 33.4123 61.3808 33.1816 61.0059C32.9475 60.6153 32.7767 60.1779 32.6692 59.6937C32.574 59.1904 32.5212 58.694 32.511 58.2046C32.5146 57.7777 32.5321 57.2658 32.5635 56.6688C32.6106 56.0683 32.6681 55.441 32.736 54.7868C32.8039 54.1325 32.8726 53.5191 32.9423 52.9464C33.0275 52.3702 33.0997 51.9199 33.1588 51.5954C33.2405 51.0037 33.3266 50.5421 33.417 50.2106C33.5229 49.8757 33.6931 49.6823 33.9274 49.6303C34.1304 49.5852 34.3335 49.6139 34.5365 49.7164C34.7395 49.8189 34.9043 49.9708 35.0309 50.1721C35.1732 50.37 35.2503 50.6069 35.2624 50.8829C35.271 51.1432 35.2413 51.5267 35.1735 52.0334C35.1056 52.5402 35.0265 53.1068 34.936 53.7332C34.8456 54.3597 34.7646 54.9922 34.6933 55.6308C34.6184 56.2538 34.5861 56.81 34.5964 57.2994C34.5962 57.742 34.6239 58.162 34.6793 58.5594C34.7312 58.9412 34.8161 59.2502 34.9341 59.4862C35.0485 59.7067 35.2073 59.7943 35.4104 59.7493C35.9102 59.6384 36.444 59.0529 37.0119 57.9927C37.5954 56.9291 38.1902 55.5105 38.7965 53.7371C39.0814 52.9528 39.322 52.2275 39.5183 51.5611C39.7147 50.8948 39.8893 50.3152 40.0422 49.8224C40.1916 49.314 40.3557 48.9088 40.5346 48.6069C40.7134 48.305 40.92 48.128 41.1543 48.076C41.5136 47.9963 41.8025 48.0797 42.0211 48.3262C42.2518 48.5537 42.4096 48.8956 42.4945 49.3521C42.5846 49.7582 42.6799 50.2615 42.7803 50.862C42.8964 51.459 43.0159 52.0717 43.1389 52.6999C43.2585 53.3126 43.385 53.8827 43.5184 54.4104C43.7663 55.3059 44.0168 56.0288 44.27 56.579C44.5353 57.1102 44.7608 57.5354 44.9464 57.8548C45.132 58.1742 45.2412 58.445 45.2741 58.6671C45.2966 58.8424 45.2783 59.0186 45.2193 59.1955C45.1567 59.3569 45.0656 59.5001 44.9458 59.625C44.826 59.7499 44.6802 59.8314 44.5084 59.8695C43.9617 59.9908 43.4915 59.7182 43.0977 59.0517C42.704 58.3851 42.3113 57.4643 41.9194 56.2893C41.7634 55.7339 41.5988 55.1395 41.4254 54.506C41.2677 53.869 41.1257 53.2286 40.9992 52.5847C40.8883 51.9373 40.7879 51.3368 40.6978 50.7832L41.4293 50.8667C41.285 51.4724 41.1061 52.143 40.8924 52.8788C40.6786 53.6146 40.372 54.5594 39.9725 55.7133C39.6285 56.6747 39.2291 57.6073 38.7741 58.5113C38.3156 59.3997 37.8043 60.1605 37.24 60.7938C36.6879 61.4079 36.0761 61.7895 35.4044 61.9386ZM48.2159 57.6949C48.315 57.1812 48.4566 56.6007 48.6408 55.9535C48.8215 55.2906 49.0204 54.5991 49.2376 53.879C49.4704 53.1554 49.7067 52.4474 49.9464 51.755C50.1983 51.0436 50.4406 50.3998 50.6733 49.8237C50.9842 49.0828 51.3038 48.3809 51.632 47.7181C51.9602 47.0553 52.2893 46.507 52.6192 46.0732C52.9612 45.6204 53.2806 45.361 53.5774 45.2952C53.8898 45.2259 54.1926 45.298 54.4858 45.5116C54.7947 45.7217 55.1104 46.1105 55.433 46.6781C55.655 47.0878 55.9108 47.6128 56.2004 48.2533C56.49 48.8938 56.7856 49.5985 57.0873 50.3674C57.3856 51.1206 57.6621 51.8869 57.917 52.6662C58.1718 53.4455 58.3816 54.1693 58.5462 54.8375L56.5259 55.4824C56.344 54.7361 56.1091 53.936 55.8213 53.082C55.5456 52.209 55.2457 51.3742 54.9214 50.5775C54.5972 49.7808 54.2894 49.0952 53.998 48.5207C53.7032 47.9305 53.4456 47.5452 53.2253 47.3646L54.0975 46.9744C53.7154 47.6164 53.323 48.359 52.9201 49.2023C52.5328 50.0422 52.1889 50.9297 51.8883 51.865C51.6642 52.5539 51.4566 53.2064 51.2655 53.8224C51.0744 54.4384 50.9032 55.0336 50.7521 55.608C50.613 56.1633 50.4775 56.7342 50.3454 57.3207L48.2159 57.6949ZM59.3541 59.9191C59.0416 59.9885 58.7753 59.9328 58.5549 59.7523C58.3346 59.5717 58.2262 59.3417 58.2298 59.0623C58.2194 58.868 58.2586 58.5643 58.3472 58.1513C58.4393 57.7539 58.5271 57.3001 58.6106 56.7899C58.6941 56.2797 58.7272 55.7643 58.7101 55.2436L59.8187 56.2514C59.593 56.2687 59.2425 56.3137 58.7669 56.3865C58.307 56.4557 57.7256 56.5683 57.0227 56.7243C56.3667 56.8698 55.6889 57.0284 54.9895 57.2C54.3022 57.3524 53.6166 57.5127 52.9328 57.6808C52.2646 57.8455 51.6155 58.0223 50.9855 58.2112C50.352 58.3846 49.7436 58.5605 49.1605 58.7391C48.5808 58.9332 48.0575 59.1231 47.5906 59.3086L48.3224 58.2858C48.3362 58.4958 48.3604 58.7527 48.395 59.0564C48.4296 59.3601 48.472 59.6621 48.5223 59.9623C48.576 60.2782 48.621 60.555 48.6573 60.7928C48.7093 61.0271 48.7457 61.1911 48.7665 61.2848C48.8098 61.5538 48.7611 61.7777 48.6205 61.9564C48.4833 62.1507 48.282 62.2773 48.0164 62.3362C47.6416 62.4194 47.3509 62.3282 47.1445 62.0626C46.938 61.797 46.7898 61.4612 46.6997 61.055C46.6286 60.8086 46.5654 60.4866 46.51 60.0892C46.4546 59.6918 46.426 59.3785 46.4244 59.1494C46.4314 58.8856 46.4766 58.6462 46.56 58.431C46.6243 58.2037 46.7502 57.9955 46.9377 57.8064C47.1252 57.6173 47.3838 57.4534 47.7136 57.3146C48.0902 57.1655 48.6014 56.9947 49.247 56.8023C49.9048 56.5908 50.6442 56.3776 51.4651 56.1627C52.2982 55.9287 53.1582 55.7051 54.0451 55.492C54.9285 55.2632 55.7764 55.0587 56.5886 54.8785C56.8541 54.8196 57.1353 54.7572 57.4321 54.6913C57.7445 54.622 58.0664 54.5588 58.3979 54.5016C58.7294 54.4445 59.0488 54.4064 59.3559 54.3874C59.8193 54.3338 60.1551 54.4068 60.3633 54.6064C60.5871 54.8026 60.7076 55.161 60.7248 55.6817C60.7333 56.0895 60.708 56.5294 60.6488 57.0014C60.5897 57.4735 60.4923 57.9212 60.3568 58.3446C60.2404 58.7801 60.091 59.1411 59.9087 59.4273C59.742 59.7102 59.5571 59.8741 59.3541 59.9191ZM71.8912 53.8434C71.4226 53.9474 70.8759 53.9211 70.2512 53.7647C69.623 53.5927 68.9819 53.3252 68.3277 52.9623C67.6892 52.5959 67.0828 52.1896 66.5085 51.7434C65.9499 51.2937 65.4901 50.8467 65.1293 50.4023C64.9177 50.187 64.7659 49.9831 64.674 49.7904C64.5942 49.5787 64.5396 49.3695 64.5102 49.163C64.5293 49.0276 64.5606 48.8732 64.6041 48.6997C64.6475 48.5261 64.7178 48.363 64.8151 48.2103C64.9471 47.9188 65.1928 47.5119 65.5522 46.9897C65.9116 46.4675 66.3344 45.8984 66.8205 45.2825C67.3188 44.6475 67.8414 44.048 68.3882 43.4842C68.9472 42.9013 69.4845 42.4051 70.0001 41.9957C70.5313 41.5829 71.0077 41.3297 71.4295 41.2361C71.6013 41.198 71.7427 41.2076 71.8538 41.2649C71.9805 41.3187 72.0811 41.4029 72.1557 41.5175C72.2303 41.6321 72.2736 41.7535 72.2857 41.882C72.3463 42.2291 72.1926 42.6074 71.8246 43.0168C71.4565 43.4262 71.052 43.8192 70.6111 44.1956C69.8316 44.893 69.152 45.5601 68.5721 46.1968C67.9923 46.8335 67.5331 47.3861 67.1945 47.8545C66.8715 48.3195 66.7196 48.6318 66.7386 48.7915C66.7351 48.9234 66.8236 49.1004 67.004 49.3226C67.1844 49.5448 67.4437 49.7905 67.7821 50.0596C68.136 50.3252 68.5463 50.5866 69.0131 50.8436C69.4955 51.0971 70.0212 51.3246 70.5904 51.5261C70.9287 51.6477 71.2576 51.7632 71.5769 51.8727C71.9083 51.963 72.179 52.0751 72.3889 52.2088C72.611 52.3234 72.7368 52.484 72.7662 52.6905C72.7887 52.8658 72.7687 53.0341 72.7062 53.1955C72.6437 53.3569 72.5351 53.4956 72.3806 53.6119C72.2418 53.7246 72.0786 53.8018 71.8912 53.8434ZM64.0837 55.551C63.6776 55.6411 63.3592 55.4987 63.1285 55.1238C62.8943 54.7332 62.7219 54.1405 62.6111 53.3456C62.5124 52.5317 62.4477 51.5381 62.4168 50.3649C62.4066 49.8755 62.4068 49.3593 62.4174 48.8161C62.4436 48.2694 62.4698 47.7227 62.496 47.1761C62.5188 46.6138 62.5215 46.0724 62.5044 45.5517C62.5079 45.4198 62.5036 45.2897 62.4915 45.1612C62.4915 45.0137 62.4838 44.8679 62.4682 44.7239C62.4614 44.3976 62.4901 44.1208 62.5544 43.8935C62.6187 43.6662 62.709 43.4823 62.8253 43.3417C62.9538 43.1821 63.0961 43.085 63.2523 43.0503C63.6116 42.9706 63.9291 43.0723 64.205 43.3552C64.493 43.6191 64.6386 44.0539 64.6419 44.6596C64.6504 45.0674 64.6329 45.5793 64.5893 46.1954C64.5578 46.7924 64.5221 47.4067 64.4819 48.0384C64.4418 48.6701 64.4251 49.2228 64.4319 49.6966C64.4715 50.5401 64.5233 51.2907 64.5873 51.9484C64.6669 52.6027 64.7457 53.1424 64.8237 53.5677C64.8982 53.9772 64.9293 54.2653 64.9171 54.4319C64.9274 54.6263 64.8935 54.8059 64.8154 54.9708C64.7494 55.1165 64.653 55.2362 64.5263 55.3299C64.4187 55.4357 64.2711 55.5094 64.0837 55.551ZM78.0088 52.4615C77.2902 52.6209 76.6664 52.5791 76.1371 52.3359C75.6235 52.0893 75.2132 51.6805 74.9063 51.1094C74.6149 50.5349 74.459 49.832 74.4384 49.0007C74.4126 48.2197 74.504 47.4128 74.7126 46.5798C74.9333 45.7278 75.2503 44.9036 75.6636 44.1072C76.0734 43.2951 76.557 42.5568 77.1143 41.8924C77.6837 41.2088 78.3104 40.6354 78.9943 40.1723C79.6939 39.7057 80.4264 39.3875 81.1917 39.2177C81.551 39.138 81.853 39.1693 82.0976 39.3117C82.3423 39.4541 82.4671 39.7214 82.4722 40.1136C82.4825 40.308 82.433 40.4911 82.3236 40.6628C82.2108 40.819 82.025 40.9421 81.7664 41.0323C80.7077 41.4311 79.779 42.0469 78.9804 42.8796C78.1974 43.7089 77.5923 44.638 77.1651 45.667C76.7499 46.6769 76.5483 47.6886 76.5601 48.7021C76.5669 49.1758 76.6118 49.6002 76.695 49.975C76.7747 50.3343 76.9568 50.7856 77.2412 51.3289L75.9922 49.9097C76.3531 50.2066 76.655 50.3855 76.8979 50.4463C77.1565 50.5036 77.4966 50.4855 77.9184 50.392C78.9181 50.1702 79.7913 49.3045 80.538 47.7949C81.2848 46.2853 81.8235 44.2073 82.1541 41.5609C82.1976 41.2398 82.2958 40.9804 82.4485 40.7826C82.6135 40.5657 82.8287 40.4279 83.0943 40.3689C83.4535 40.2892 83.7615 40.3848 84.0183 40.6556C84.2872 40.9073 84.458 41.271 84.5307 41.7465C84.6866 42.7444 84.8529 43.6417 85.0296 44.4383C85.2185 45.2159 85.4673 45.931 85.776 46.5836C86.1003 47.2328 86.5548 47.8776 87.1394 48.5182C87.2678 48.6536 87.3467 48.8246 87.3761 49.0311C87.4212 49.2342 87.4098 49.4416 87.3421 49.6533C87.2899 49.8615 87.1918 50.0472 87.0477 50.2102C86.9158 50.3542 86.7405 50.4505 86.5218 50.499C86.2875 50.551 86.0897 50.5457 85.9283 50.4832C85.7825 50.4172 85.6437 50.3087 85.5119 50.1577C85.2031 49.8001 84.9125 49.4138 84.6402 48.999C84.3679 48.5841 84.1129 48.0998 83.8754 47.5461C83.65 46.9734 83.4567 46.2869 83.2956 45.4868C83.1344 44.6867 83.0029 43.7244 82.9009 42.5998L83.7392 42.3892C83.525 44.6001 83.1096 46.4213 82.493 47.8528C81.892 49.2809 81.1897 50.3627 80.3859 51.0983C79.5822 51.8338 78.7898 52.2882 78.0088 52.4615ZM16.0065 88.9985C15.2724 89.1614 14.7144 89.1213 14.3327 88.8782C13.9701 88.6473 13.7854 88.2211 13.7787 87.5998C13.7701 87.3395 13.8153 87.1001 13.9143 86.8814C14.0133 86.6628 14.1522 86.4763 14.331 86.3219C15.9576 84.8629 17.3221 83.5523 18.4245 82.3899C19.5234 81.2119 20.4019 80.1484 21.06 79.1993C21.7146 78.2346 22.1843 77.3601 22.4692 76.5758C22.7506 75.7758 22.8845 75.0496 22.8708 74.3971C22.859 73.5311 22.6214 72.9036 22.1582 72.5147C21.6915 72.1102 20.9817 72.0137 20.0289 72.2251C19.2323 72.4018 18.5423 72.6532 17.9591 72.9793C17.3915 73.3019 16.8933 73.6419 16.4645 73.9992C16.0514 74.3531 15.7016 74.6602 15.4152 74.9204C15.1287 75.1806 14.884 75.3332 14.6809 75.3783C14.3841 75.4441 14.1368 75.4007 13.9391 75.2479C13.7534 75.076 13.6546 74.8521 13.6425 74.5762C13.6478 74.3783 13.6878 74.1892 13.7625 74.0087C13.8371 73.8283 13.9882 73.6227 14.2156 73.3919C14.9777 72.6164 15.8518 71.939 16.8377 71.3597C17.8358 70.7613 18.8581 70.3461 19.9047 70.1139C21.1074 69.847 22.0697 69.863 22.7915 70.1617C23.5255 70.4414 24.0616 70.937 24.3998 71.6487C24.7536 72.3568 24.939 73.1925 24.956 74.1557C24.9714 74.8898 24.8488 75.7037 24.5881 76.5973C24.3431 77.4875 23.8881 78.4653 23.2231 79.5306C22.5581 80.596 21.624 81.7784 20.4209 83.0778C19.2299 84.3582 17.7092 85.7772 15.8587 87.335L15.4216 86.6945C15.6489 86.7588 15.8754 86.7823 16.101 86.765C16.3422 86.7443 16.5878 86.7062 16.8377 86.6507C17.4157 86.5225 18.0865 86.3327 18.8502 86.0813C19.6138 85.8299 20.4478 85.563 21.3521 85.2804C22.2719 84.9944 23.2317 84.7404 24.2314 84.5186C24.9968 84.3488 25.5105 84.3742 25.7725 84.5947C26.0466 84.7961 26.1854 85.0521 26.1887 85.3627C26.2008 85.6387 26.107 85.8807 25.9073 86.0889C25.7198 86.278 25.4074 86.4211 24.97 86.5181C23.7985 86.778 22.7728 87.0302 21.8928 87.2746C21.0129 87.519 20.2284 87.7504 19.5393 87.9688C18.8503 88.1873 18.222 88.384 17.6545 88.5591C17.0869 88.7342 16.5376 88.8807 16.0065 88.9985ZM35.0775 84.546C33.9841 84.7886 32.955 84.7301 31.9902 84.3706C31.0411 84.0076 30.2638 83.3114 29.6585 82.2821C29.0653 81.2336 28.7482 79.8044 28.7072 77.9943C28.6729 76.8055 28.8191 75.6914 29.1457 74.652C29.4688 73.597 29.8761 72.6626 30.3675 71.8488C30.8589 71.035 31.3598 70.3749 31.8702 69.8683C32.3806 69.3617 32.8154 69.0686 33.1747 68.9889C33.4559 68.9265 33.665 68.9457 33.802 69.0464C33.9356 69.1314 34.0032 69.3623 34.0048 69.7389C34.0221 69.9645 33.9813 70.1866 33.8823 70.4052C33.7798 70.6083 33.6149 70.8251 33.3874 71.0559C32.8927 71.559 32.4456 72.1662 32.0462 72.8776C31.6468 73.589 31.329 74.3725 31.0926 75.228C30.8685 76.0644 30.7658 76.9312 30.7846 77.8284C30.7999 78.8575 30.9505 79.7583 31.2366 80.5307C31.5383 81.2996 31.9755 81.8663 32.548 82.231C33.1362 82.5921 33.8677 82.6757 34.7424 82.4816C35.6171 82.2875 36.4312 81.8201 37.1847 81.0793C37.9381 80.3386 38.5328 79.3626 38.9688 78.1514C39.4048 76.9402 39.6075 75.5267 39.5768 73.911C39.572 72.7813 39.4274 71.7972 39.1431 70.9589C38.8553 70.105 38.4529 69.4731 37.9359 69.0634C37.4188 68.6536 36.7854 68.5319 36.0357 68.6983C35.4265 68.8335 34.8633 69.0649 34.346 69.3928C33.8252 69.705 33.3409 70.1074 32.893 70.6001C32.4572 71.0738 32.0501 71.6394 31.6715 72.297C31.5743 72.4497 31.4441 72.6015 31.2809 72.7524C31.1333 72.8999 30.919 73.0048 30.6378 73.0672C30.341 73.133 30.1016 73.0878 29.9194 72.9316C29.7372 72.7753 29.6462 72.5497 29.6463 72.2547C29.6551 71.9249 29.8045 71.4902 30.0945 70.9506C30.381 70.3954 30.796 69.828 31.3394 69.2486C31.8984 68.6657 32.5511 68.1357 33.2975 67.6587C34.0595 67.1782 34.8779 66.841 35.7526 66.6469C36.9866 66.3731 38.0374 66.4924 38.9049 67.0046C39.769 67.5012 40.436 68.3284 40.9059 69.4861C41.388 70.6247 41.6374 72.0444 41.6542 73.7451C41.6936 75.3261 41.5334 76.7465 41.1738 78.0064C40.8141 79.2662 40.3174 80.3515 39.6836 81.2624C39.0464 82.1577 38.3303 82.882 37.5353 83.4353C36.7403 83.9887 35.921 84.3589 35.0775 84.546ZM48.2779 81.8632C47.9811 81.929 47.7417 81.8838 47.5595 81.7276C47.3808 81.5869 47.2759 81.3726 47.2447 81.0845C47.2292 80.7929 47.2996 80.4823 47.4559 80.1526C48.3224 78.5181 49.2072 76.9287 50.1101 75.3845C51.0252 73.8212 51.9803 72.29 52.9752 70.7909C53.9701 69.2918 55.011 67.8153 56.0979 66.3614C57.1969 64.8883 58.3636 63.4249 59.598 61.971C59.8828 61.6292 60.1301 61.3777 60.3402 61.2163C60.5502 61.055 60.7802 60.9466 61.0301 60.8912C61.2957 60.8323 61.5004 60.8688 61.6444 61.0007C61.8041 61.1292 61.9038 61.3201 61.9436 61.5735C61.98 61.8113 61.9512 62.0881 61.8574 62.4039C61.7601 62.7041 61.5891 63.0043 61.3443 63.3044C59.5978 65.3308 58.0256 67.294 56.628 69.1938C55.2303 71.0936 53.9489 73.0004 52.7837 74.9142C51.6152 76.8124 50.5029 78.78 49.4471 80.8171C49.2717 81.1346 49.079 81.374 48.8689 81.5354C48.678 81.7088 48.481 81.8181 48.2779 81.8632ZM49.2941 71.4847C48.3256 71.6996 47.4969 71.6949 46.808 71.4708C46.1192 71.2467 45.5961 70.8465 45.2387 70.2702C44.8814 69.6939 44.6943 68.998 44.6772 68.1823C44.6566 67.4985 44.8061 66.8426 45.1256 66.2145C45.4607 65.5829 45.8983 65.0433 46.4381 64.5957C46.9936 64.1447 47.6072 63.8447 48.2789 63.6957C48.5757 63.6298 48.8056 63.6689 48.9687 63.813C49.1283 63.9415 49.2159 64.1515 49.2314 64.4431C49.2261 64.6409 49.1549 64.837 49.0177 65.0313C48.8927 65.2066 48.6879 65.3913 48.4032 65.5856C47.7991 65.9655 47.3868 66.3601 47.1663 66.7696C46.9423 67.1635 46.838 67.58 46.8535 68.019C46.8498 68.5935 47.0284 69.0291 47.3893 69.326C47.7502 69.6229 48.282 69.6934 48.985 69.5374C49.6566 69.3884 50.1548 69.1222 50.4794 68.7388C50.8006 68.3397 50.9553 67.8547 50.9433 67.2837C50.9417 66.7596 50.7727 66.3301 50.4361 65.995C50.0996 65.6599 49.6892 65.5461 49.2049 65.6536C48.8925 65.7229 48.6114 65.7115 48.3615 65.6194C48.1238 65.5083 48.0015 65.2896 47.9947 64.9633C47.9931 64.5867 48.0938 64.3021 48.297 64.1096C48.5122 63.8979 48.7448 63.7644 48.9947 63.7089C49.8226 63.5253 50.5359 63.5637 51.1345 63.8242C51.7488 64.0812 52.2267 64.4997 52.5684 65.0794C52.9101 65.6592 53.0878 66.3491 53.1014 67.1491C53.1098 67.852 52.9508 68.5018 52.6243 69.0987C52.3135 69.6921 51.869 70.2005 51.291 70.6237C50.7251 71.0279 50.0595 71.3149 49.2941 71.4847ZM59.2381 79.1856C58.2541 79.404 57.4159 79.3933 56.7235 79.1535C56.0468 78.9103 55.5219 78.5023 55.149 77.9295C54.7882 77.3376 54.5898 76.6277 54.5536 75.7999C54.5469 75.1786 54.6946 74.5886 54.9967 74.0299C55.3111 73.4521 55.7433 72.9629 56.2936 72.5622C56.8404 72.1459 57.4497 71.8632 58.1213 71.7142C58.4337 71.6448 58.668 71.6666 58.8242 71.7795C58.9803 71.8923 59.0644 72.0867 59.0765 72.3627C59.0781 72.5918 59.0199 72.8095 58.9018 73.016C58.7994 73.219 58.605 73.3769 58.3186 73.4896C57.7024 73.741 57.2762 74.0732 57.0401 74.4862C56.8161 74.88 56.7075 75.3139 56.7142 75.7876C56.7175 76.3933 56.9213 76.8316 57.3255 77.1024C57.742 77.3542 58.2704 77.4091 58.9108 77.267C59.5825 77.118 60.1032 76.8058 60.473 76.3304C60.855 75.8359 61.0469 75.2607 61.0489 74.6047C61.0196 73.9556 60.8081 73.4453 60.4143 73.0738C60.0204 72.7023 59.5111 72.5858 58.8863 72.7244C58.5427 72.8007 58.2737 72.7702 58.0794 72.6331C57.885 72.4959 57.7784 72.2737 57.7594 71.9665C57.7613 71.6056 57.8559 71.3305 58.0434 71.1414C58.2465 70.9489 58.4965 70.8197 58.7933 70.7538C59.6368 70.5667 60.3865 70.6216 61.0423 70.9186C61.6982 71.2156 62.2118 71.6834 62.5829 72.3222C62.9697 72.9575 63.1621 73.6769 63.1601 74.4804C63.1789 75.2302 63.0243 75.9364 62.696 76.5993C62.3643 77.2465 61.8973 77.8008 61.295 78.2622C60.7048 78.7045 60.0192 79.0123 59.2381 79.1856Z" fill="#7831B2"/>
</svg>
