<svg width="337" height="154" viewBox="0 0 337 154" fill="none" xmlns="http://www.w3.org/2000/svg">
<path d="M162.91 76.6713C162.912 76.119 162.466 75.6699 161.913 75.6682C161.361 75.6666 160.912 76.1129 160.91 76.6652L162.91 76.6713ZM336.403 74.0327C336.883 73.7597 337.051 73.1492 336.778 72.6691L332.331 64.845C332.058 64.3648 331.447 64.1969 330.967 64.4698C330.487 64.7427 330.319 65.3532 330.592 65.8333L334.545 72.7881L327.591 76.7417C327.111 77.0147 326.943 77.6251 327.216 78.1053C327.488 78.5854 328.099 78.7534 328.579 78.4804L336.403 74.0327ZM163.002 77.3576C162.971 76.8061 162.5 76.3837 161.948 76.4141C161.397 76.4445 160.974 76.9162 161.005 77.4677L163.002 77.3576ZM336.281 73.7335C336.765 73.4679 336.942 72.86 336.677 72.3758L332.347 64.4857C332.081 64.0015 331.473 63.8244 330.989 64.0901C330.505 64.3558 330.328 64.9637 330.594 65.4479L334.442 72.4613L327.429 76.3099C326.945 76.5756 326.768 77.1835 327.033 77.6677C327.299 78.1519 327.907 78.329 328.391 78.0633L336.281 73.7335ZM160.91 76.6652C160.879 87.1259 161.389 99.3096 162.723 110.813C164.056 122.296 166.218 133.176 169.524 140.984C171.176 144.886 173.147 148.101 175.511 150.232C177.907 152.392 180.722 153.443 183.933 152.933C187.087 152.433 190.478 150.45 194.141 146.878C197.813 143.298 201.833 138.047 206.242 130.86L204.538 129.814C200.175 136.925 196.254 142.024 192.745 145.446C189.226 148.878 186.196 150.55 183.62 150.958C181.1 151.358 178.874 150.571 176.85 148.746C174.794 146.893 172.964 143.979 171.366 140.205C168.173 132.662 166.036 122.009 164.71 110.582C163.386 99.1736 162.879 87.0702 162.91 76.6713L160.91 76.6652ZM206.242 130.86C217.215 112.975 225.81 99.1336 233.794 88.7481C241.774 78.3686 249.079 71.5265 257.432 67.5653C265.772 63.6104 275.268 62.475 287.729 63.724C300.208 64.9749 315.583 68.6082 335.644 74.1275L336.174 72.1991C316.111 66.6791 300.592 63.0033 287.928 61.734C275.246 60.4628 265.352 61.5963 256.575 65.7582C247.812 69.9139 240.275 77.0368 232.209 87.5292C224.147 98.0153 215.494 111.954 204.538 129.814L206.242 130.86ZM161.005 77.4677C161.575 87.8077 162.421 99.8446 163.92 111.189C165.416 122.514 167.574 133.228 170.797 140.882C172.408 144.706 174.319 147.853 176.62 149.92C178.957 152.02 181.708 153.009 184.855 152.442C187.939 151.886 191.263 149.86 194.874 146.264C198.496 142.657 202.485 137.394 206.893 130.209L205.188 129.163C200.825 136.276 196.93 141.394 193.463 144.847C189.984 148.31 187.012 150.021 184.501 150.474C182.052 150.915 179.908 150.186 177.957 148.433C175.97 146.648 174.199 143.808 172.64 140.106C169.525 132.709 167.394 122.215 165.903 110.927C164.413 99.6586 163.571 87.6812 163.002 77.3576L161.005 77.4677ZM206.893 130.209C217.87 112.317 226.314 98.3846 234.101 87.8856C241.885 77.3922 248.94 70.4326 257.089 66.4085C265.221 62.3934 274.56 61.244 287.023 62.6076C299.507 63.9735 315.042 67.8503 335.52 73.817L336.08 71.8968C315.598 65.9292 299.915 62.0062 287.241 60.6195C274.547 59.2306 264.79 60.3758 256.204 64.6152C247.636 68.8457 240.353 76.1006 232.495 86.6941C224.641 97.2822 216.141 111.31 205.188 129.163L206.893 130.209Z" fill="#7831B2"/>
<path d="M60.1279 20.2756C59.8519 20.2756 59.6599 20.0776 59.5519 19.6816C59.4559 19.2736 59.4379 18.7096 59.4979 17.9896C59.5579 17.2696 59.6839 16.4356 59.8759 15.4876C59.9479 15.1276 60.0499 14.6656 60.1819 14.1016C60.3139 13.5256 60.4579 12.9136 60.6139 12.2656C60.7699 11.6056 60.9199 10.9576 61.0639 10.3216C61.2079 9.67356 61.3339 9.09756 61.4419 8.59356L61.7479 9.15156C61.4599 9.09156 61.0219 9.03756 60.4339 8.98956C59.8579 8.94156 59.1859 8.90556 58.4179 8.88156C57.6499 8.84556 56.8459 8.82756 56.0059 8.82756C55.6939 8.82756 55.3939 8.83356 55.1059 8.84556C54.8179 8.85756 54.5539 8.87556 54.3139 8.89956C54.0739 8.91156 53.8639 8.91756 53.6839 8.91756C53.5039 8.91756 53.3299 8.88756 53.1619 8.82756C52.9939 8.76756 52.8619 8.68356 52.7659 8.57556C52.6819 8.46756 52.6579 8.35356 52.6939 8.23356C52.7419 8.01756 52.8619 7.84356 53.0539 7.71156C53.2459 7.57956 53.5099 7.48956 53.8459 7.44156C54.1819 7.38156 54.5659 7.35156 54.9979 7.35156C55.5979 7.35156 56.2219 7.35756 56.8699 7.36956C57.5299 7.38156 58.1599 7.39956 58.7599 7.42356C59.3599 7.44756 59.8939 7.47756 60.3619 7.51356C60.8299 7.53756 61.1899 7.55556 61.4419 7.56756C62.1019 7.61556 62.5459 7.74156 62.7739 7.94556C63.0019 8.13756 63.0679 8.49156 62.9719 9.00756C62.8639 9.51156 62.7379 10.0576 62.5939 10.6456C62.4619 11.2216 62.3239 11.7976 62.1799 12.3736C62.0479 12.9496 61.9219 13.4896 61.8019 13.9936C61.6819 14.4976 61.5859 14.9236 61.5139 15.2716C61.3099 16.2916 61.1839 17.1616 61.1359 17.8816C61.0999 18.5896 61.0519 19.0756 60.9919 19.3396C60.9559 19.5196 60.9019 19.6816 60.8299 19.8256C60.7579 19.9696 60.6619 20.0776 60.5419 20.1496C60.4339 20.2336 60.2959 20.2756 60.1279 20.2756ZM52.8919 20.2576C52.6999 20.2576 52.5379 20.1856 52.4059 20.0416C52.2859 19.8856 52.2079 19.6756 52.1719 19.4116C52.1359 19.1356 52.1539 18.8236 52.2259 18.4756C52.3099 18.0316 52.4119 17.5516 52.5319 17.0356C52.6639 16.5076 52.8019 15.9556 52.9459 15.3796C53.0899 14.8036 53.2219 14.2096 53.3419 13.5976C53.4379 13.1296 53.5399 12.6016 53.6479 12.0136C53.7559 11.4136 53.8459 10.8136 53.9179 10.2136C53.9899 9.60156 54.0079 9.06156 53.9719 8.59356L55.6639 8.25156C55.6639 8.70756 55.6279 9.22356 55.5559 9.79956C55.4959 10.3756 55.4179 10.9516 55.3219 11.5276C55.2379 12.1036 55.1419 12.6376 55.0339 13.1296C54.9619 13.4896 54.8779 13.9096 54.7819 14.3896C54.6859 14.8576 54.5839 15.3496 54.4759 15.8656C54.3679 16.3696 54.2599 16.8556 54.1519 17.3236C54.0559 17.7916 53.9719 18.1996 53.8999 18.5476C53.8279 18.8956 53.7739 19.1416 53.7379 19.2856C53.6659 19.6336 53.5519 19.8856 53.3959 20.0416C53.2519 20.1856 53.0839 20.2576 52.8919 20.2576ZM67.9222 20.2756C66.9382 20.2756 66.1282 20.0596 65.4922 19.6276C64.8682 19.1956 64.4362 18.6136 64.1962 17.8816C63.9682 17.1376 63.9442 16.2916 64.1242 15.3436C64.2562 14.6716 64.4842 14.0836 64.8082 13.5796C65.1442 13.0636 65.5162 12.6316 65.9242 12.2836C66.3442 11.9356 66.7642 11.6776 67.1842 11.5096C67.6042 11.3296 67.9642 11.2396 68.2642 11.2396C68.3962 11.2396 68.5042 11.2576 68.5882 11.2936C68.6842 11.3296 68.7562 11.3896 68.8042 11.4736C68.8642 11.5456 68.8822 11.6476 68.8582 11.7796C68.7982 12.0196 68.7022 12.2416 68.5702 12.4456C68.4382 12.6376 68.1922 12.8116 67.8322 12.9676C67.4002 13.1716 67.0342 13.3996 66.7342 13.6516C66.4462 13.8916 66.2122 14.1736 66.0322 14.4976C65.8522 14.8096 65.7262 15.1876 65.6542 15.6316C65.4622 16.6036 65.5762 17.3836 65.9962 17.9716C66.4162 18.5476 67.0582 18.8356 67.9222 18.8356C68.7622 18.8356 69.4942 18.5356 70.1182 17.9356C70.7542 17.3236 71.1682 16.5136 71.3602 15.5056C71.5522 14.5816 71.4922 13.8616 71.1802 13.3456C70.8682 12.8176 70.3522 12.5536 69.6322 12.5536C69.2602 12.5536 68.9422 12.6256 68.6782 12.7696C68.4262 12.9136 68.1502 13.1056 67.8502 13.3456C67.6342 13.5256 67.4602 13.6876 67.3282 13.8316C67.1962 13.9756 67.0762 14.0896 66.9682 14.1736C66.8722 14.2456 66.7462 14.2816 66.5902 14.2816C66.4222 14.2816 66.2902 14.2276 66.1942 14.1196C66.1102 13.9996 66.0922 13.8136 66.1402 13.5616C66.1882 13.2856 66.3262 13.0036 66.5542 12.7156C66.7942 12.4276 67.0822 12.1636 67.4182 11.9236C67.7662 11.6716 68.1382 11.4736 68.5342 11.3296C68.9302 11.1736 69.3202 11.0956 69.7042 11.0956C70.5682 11.0956 71.2702 11.2996 71.8102 11.7076C72.3502 12.1036 72.7162 12.6556 72.9082 13.3636C73.1002 14.0596 73.1002 14.8636 72.9082 15.7756C72.7402 16.6756 72.4162 17.4676 71.9362 18.1516C71.4562 18.8236 70.8682 19.3456 70.1722 19.7176C69.4882 20.0896 68.7382 20.2756 67.9222 20.2756ZM78.3689 20.2216C77.4809 20.2216 76.7489 20.0476 76.1729 19.6996C75.6089 19.3396 75.2129 18.8476 74.9849 18.2236C74.7689 17.5876 74.7449 16.8556 74.9129 16.0276C75.0569 15.3196 75.3149 14.6656 75.6869 14.0656C76.0709 13.4536 76.5389 12.9256 77.0909 12.4816C77.6549 12.0256 78.2669 11.6716 78.9269 11.4196C79.5869 11.1676 80.2649 11.0416 80.9609 11.0416C81.2729 11.0416 81.5489 11.0896 81.7889 11.1856C82.0289 11.2696 82.2029 11.4016 82.3109 11.5816C82.4309 11.7496 82.4609 11.9596 82.4009 12.2116C82.3529 12.4396 82.2629 12.6196 82.1309 12.7516C81.9989 12.8716 81.8429 12.9316 81.6629 12.9316C81.5309 12.9316 81.4289 12.9076 81.3569 12.8596C81.2849 12.8116 81.2069 12.7636 81.1229 12.7156C81.0509 12.6676 80.9249 12.6436 80.7449 12.6436C80.0609 12.6436 79.4189 12.8176 78.8189 13.1656C78.2189 13.5016 77.7089 13.9456 77.2889 14.4976C76.8809 15.0376 76.6109 15.6196 76.4789 16.2436C76.3949 16.7476 76.4069 17.1856 76.5149 17.5576C76.6349 17.9176 76.8509 18.1996 77.1629 18.4036C77.4869 18.6076 77.8829 18.7096 78.3509 18.7096C78.8789 18.7096 79.2989 18.6496 79.6109 18.5296C79.9229 18.3976 80.1689 18.2536 80.3489 18.0976C80.5409 17.9416 80.6969 17.8036 80.8169 17.6836C80.9369 17.5516 81.0749 17.4856 81.2309 17.4856C81.4589 17.4856 81.6149 17.5396 81.6989 17.6476C81.7949 17.7556 81.8189 17.9416 81.7709 18.2056C81.6869 18.6016 81.4829 18.9556 81.1589 19.2676C80.8349 19.5676 80.4269 19.8016 79.9349 19.9696C79.4549 20.1376 78.9329 20.2216 78.3689 20.2216ZM84.2926 20.2576C84.0046 20.2576 83.7886 20.0896 83.6446 19.7536C83.5006 19.4176 83.4946 18.9136 83.6266 18.2416C83.6866 17.9176 83.8006 17.4256 83.9686 16.7656C84.1366 16.0936 84.3946 15.3736 84.7426 14.6056C85.1506 13.6936 85.5166 12.9736 85.8406 12.4456C86.1646 11.9056 86.4826 11.5156 86.7946 11.2756C87.1066 11.0356 87.4246 10.9156 87.7486 10.9156C88.0006 10.9156 88.1926 11.0176 88.3246 11.2216C88.4686 11.4256 88.5706 11.6716 88.6306 11.9596C88.6906 12.2476 88.7386 12.5356 88.7746 12.8236C88.8226 13.2076 88.8826 13.6336 88.9546 14.1016C89.0386 14.5696 89.1286 15.0436 89.2246 15.5236C89.3326 16.0036 89.4526 16.4596 89.5846 16.8916C89.7286 17.3236 89.8906 17.6896 90.0706 17.9896L89.4226 18.1336C89.7706 17.4496 90.1426 16.7656 90.5386 16.0816C90.9346 15.3976 91.3306 14.7436 91.7266 14.1196C92.1226 13.4956 92.4946 12.9376 92.8426 12.4456C93.2266 11.9296 93.5506 11.5636 93.8146 11.3476C94.0906 11.1316 94.3366 11.0236 94.5526 11.0236C94.7086 11.0236 94.8526 11.0596 94.9846 11.1316C95.1166 11.1916 95.2306 11.2636 95.3266 11.3476C95.4586 11.4796 95.5606 11.6416 95.6326 11.8336C95.7046 12.0256 95.7166 12.3136 95.6686 12.6976C95.5606 13.5616 95.4886 14.3416 95.4526 15.0376C95.4286 15.7216 95.4226 16.2976 95.4346 16.7656C95.4466 17.5936 95.5066 18.2536 95.6146 18.7456C95.7346 19.2376 95.7766 19.5556 95.7406 19.6996C95.7166 19.8556 95.6326 19.9816 95.4886 20.0776C95.3566 20.1856 95.1946 20.2396 95.0026 20.2396C94.7146 20.2396 94.4746 20.1016 94.2826 19.8256C94.1026 19.5496 93.9886 19.1776 93.9406 18.7096C93.8926 18.2776 93.8566 17.7316 93.8326 17.0716C93.8206 16.4116 93.8386 15.6736 93.8866 14.8576C93.9466 14.0296 94.0426 13.1776 94.1746 12.3016L94.6966 12.1756C94.4086 12.5956 94.0846 13.0756 93.7246 13.6156C93.3766 14.1436 93.0166 14.6956 92.6446 15.2716C92.2846 15.8476 91.9366 16.4176 91.6006 16.9816C91.2766 17.5456 90.9886 18.0796 90.7366 18.5836C90.6046 18.8116 90.4486 18.9916 90.2686 19.1236C90.1006 19.2556 89.9026 19.3216 89.6746 19.3216C89.3866 19.3216 89.1466 19.2556 88.9546 19.1236C88.7746 18.9796 88.6186 18.7876 88.4866 18.5476C88.3666 18.2956 88.2586 18.0196 88.1626 17.7196C88.1146 17.5516 88.0486 17.3176 87.9646 17.0176C87.8806 16.7056 87.7966 16.3576 87.7126 15.9736C87.6286 15.5896 87.5506 15.1816 87.4786 14.7496C87.4066 14.3176 87.3466 13.8916 87.2986 13.4716C87.2506 13.0396 87.2266 12.6376 87.2266 12.2656L87.7666 12.1216C87.3586 12.7096 86.9986 13.2856 86.6866 13.8496C86.3866 14.4136 86.1286 14.9956 85.9126 15.5956C85.7086 16.1836 85.5346 16.8196 85.3906 17.5036C85.2946 17.9716 85.2226 18.3796 85.1746 18.7276C85.1386 19.0756 85.1026 19.3396 85.0666 19.5196C85.0186 19.7236 84.9346 19.8976 84.8146 20.0416C84.6946 20.1856 84.5206 20.2576 84.2926 20.2576ZM101.971 20.2756C100.987 20.2756 100.177 20.0596 99.541 19.6276C98.917 19.1956 98.485 18.6136 98.245 17.8816C98.017 17.1376 97.993 16.2916 98.173 15.3436C98.305 14.6716 98.533 14.0836 98.857 13.5796C99.193 13.0636 99.565 12.6316 99.9734 12.2836C100.393 11.9356 100.813 11.6776 101.233 11.5096C101.653 11.3296 102.013 11.2396 102.313 11.2396C102.445 11.2396 102.553 11.2576 102.637 11.2936C102.733 11.3296 102.805 11.3896 102.853 11.4736C102.913 11.5456 102.931 11.6476 102.907 11.7796C102.847 12.0196 102.751 12.2416 102.619 12.4456C102.487 12.6376 102.241 12.8116 101.881 12.9676C101.449 13.1716 101.083 13.3996 100.783 13.6516C100.495 13.8916 100.261 14.1736 100.081 14.4976C99.901 14.8096 99.775 15.1876 99.703 15.6316C99.511 16.6036 99.625 17.3836 100.045 17.9716C100.465 18.5476 101.107 18.8356 101.971 18.8356C102.811 18.8356 103.543 18.5356 104.167 17.9356C104.803 17.3236 105.217 16.5136 105.409 15.5056C105.601 14.5816 105.541 13.8616 105.229 13.3456C104.917 12.8176 104.401 12.5536 103.681 12.5536C103.309 12.5536 102.991 12.6256 102.727 12.7696C102.475 12.9136 102.199 13.1056 101.899 13.3456C101.683 13.5256 101.509 13.6876 101.377 13.8316C101.245 13.9756 101.125 14.0896 101.017 14.1736C100.921 14.2456 100.795 14.2816 100.639 14.2816C100.471 14.2816 100.339 14.2276 100.243 14.1196C100.159 13.9996 100.141 13.8136 100.189 13.5616C100.237 13.2856 100.375 13.0036 100.603 12.7156C100.843 12.4276 101.131 12.1636 101.467 11.9236C101.815 11.6716 102.187 11.4736 102.583 11.3296C102.979 11.1736 103.369 11.0956 103.753 11.0956C104.617 11.0956 105.319 11.2996 105.859 11.7076C106.399 12.1036 106.765 12.6556 106.957 13.3636C107.149 14.0596 107.149 14.8636 106.957 15.7756C106.789 16.6756 106.465 17.4676 105.985 18.1516C105.505 18.8236 104.917 19.3456 104.221 19.7176C103.537 20.0896 102.787 20.2756 101.971 20.2756ZM109.136 12.9676C108.86 12.9676 108.644 12.8836 108.488 12.7156C108.344 12.5476 108.296 12.3556 108.344 12.1396C108.38 12.0076 108.452 11.8936 108.56 11.7976C108.668 11.7016 108.86 11.6176 109.136 11.5456C109.568 11.4256 110.144 11.3176 110.864 11.2216C111.596 11.1256 112.448 11.0776 113.42 11.0776C113.924 11.0776 114.386 11.0896 114.806 11.1136C115.238 11.1256 115.712 11.1676 116.228 11.2396C116.636 11.2876 116.948 11.3836 117.164 11.5276C117.392 11.6716 117.488 11.8336 117.452 12.0136C117.428 12.1456 117.374 12.2656 117.29 12.3736C117.218 12.4696 117.11 12.5476 116.966 12.6076C116.834 12.6676 116.666 12.6976 116.462 12.6976C116.21 12.6976 115.916 12.6856 115.58 12.6616C115.244 12.6376 114.884 12.6136 114.5 12.5896C114.128 12.5536 113.744 12.5356 113.348 12.5356C112.52 12.5356 111.854 12.5716 111.35 12.6436C110.846 12.7036 110.426 12.7756 110.09 12.8596C109.754 12.9316 109.436 12.9676 109.136 12.9676ZM111.746 20.2756C111.482 20.2756 111.284 20.1676 111.152 19.9516C111.032 19.7356 110.948 19.4596 110.9 19.1236C110.876 18.8716 110.876 18.5296 110.9 18.0976C110.936 17.6536 110.996 17.1736 111.08 16.6576C111.164 16.1296 111.254 15.6196 111.35 15.1276C111.482 14.4676 111.596 13.8856 111.692 13.3816C111.8 12.8656 111.884 12.4396 111.944 12.1036L113.564 11.9956C113.516 12.1996 113.456 12.4576 113.384 12.7696C113.324 13.0696 113.258 13.4116 113.186 13.7956C113.114 14.1676 113.036 14.5516 112.952 14.9476C112.88 15.3316 112.808 15.7036 112.736 16.0636C112.616 16.6636 112.538 17.1676 112.502 17.5756C112.478 17.9716 112.472 18.2956 112.484 18.5476C112.496 18.7996 112.508 19.0096 112.52 19.1776C112.532 19.3336 112.526 19.4776 112.502 19.6096C112.478 19.7416 112.43 19.8616 112.358 19.9696C112.286 20.0656 112.196 20.1376 112.088 20.1856C111.98 20.2456 111.866 20.2756 111.746 20.2756ZM121.371 20.1496C120.795 20.1496 120.291 20.0716 119.859 19.9156C119.427 19.7596 119.097 19.5556 118.869 19.3036C118.641 19.0516 118.551 18.7876 118.599 18.5116C118.635 18.3676 118.701 18.2416 118.797 18.1336C118.893 18.0256 119.019 17.9716 119.175 17.9716C119.295 17.9716 119.403 18.0016 119.499 18.0616C119.595 18.1216 119.709 18.1936 119.841 18.2776C119.973 18.3616 120.165 18.4396 120.417 18.5116C120.669 18.5716 121.011 18.6016 121.443 18.6016C122.115 18.6016 122.697 18.4396 123.189 18.1156C123.693 17.7796 124.017 17.2096 124.161 16.4056C124.281 15.8416 124.287 15.3316 124.179 14.8756C124.083 14.4076 123.897 14.0056 123.621 13.6696C123.345 13.3216 122.991 13.0576 122.559 12.8776C122.127 12.6976 121.635 12.6076 121.083 12.6076C120.807 12.6076 120.525 12.6376 120.237 12.6976C119.949 12.7576 119.697 12.7876 119.481 12.7876C119.349 12.7876 119.229 12.7576 119.121 12.6976C119.013 12.6256 118.941 12.5296 118.905 12.4096C118.869 12.2896 118.863 12.1696 118.887 12.0496C118.959 11.7256 119.175 11.4796 119.535 11.3116C119.907 11.1316 120.471 11.0416 121.227 11.0416C122.031 11.0416 122.745 11.1796 123.369 11.4556C124.005 11.7316 124.527 12.1216 124.935 12.6256C125.343 13.1176 125.619 13.7116 125.763 14.4076C125.919 15.0916 125.913 15.8536 125.745 16.6936C125.637 17.2456 125.445 17.7376 125.169 18.1696C124.905 18.6016 124.581 18.9676 124.197 19.2676C123.813 19.5556 123.381 19.7776 122.901 19.9336C122.421 20.0776 121.911 20.1496 121.371 20.1496ZM117.141 24.7576C116.997 24.7576 116.871 24.7216 116.763 24.6496C116.667 24.5896 116.601 24.4936 116.565 24.3616C116.529 24.2296 116.529 24.0736 116.565 23.8936C116.601 23.7136 116.667 23.5456 116.763 23.3896C116.847 23.2456 116.943 23.0656 117.051 22.8496C117.159 22.6456 117.273 22.3816 117.393 22.0576C117.513 21.7336 117.627 21.3076 117.735 20.7796C117.915 19.9036 118.011 19.0276 118.023 18.1516C118.035 17.2756 118.041 16.3876 118.041 15.4876C118.053 14.5756 118.143 13.6636 118.311 12.7516C118.371 12.4516 118.473 12.2296 118.617 12.0856C118.773 11.9296 118.959 11.8516 119.175 11.8516C119.367 11.8516 119.523 11.9176 119.643 12.0496C119.775 12.1696 119.865 12.3376 119.913 12.5536C119.961 12.7576 119.955 12.9856 119.895 13.2376C119.751 13.9576 119.661 14.6416 119.625 15.2896C119.601 15.9256 119.589 16.5496 119.589 17.1616C119.601 17.7736 119.595 18.3856 119.571 18.9976C119.547 19.6096 119.469 20.2396 119.337 20.8876C119.229 21.4756 119.097 22.0096 118.941 22.4896C118.785 22.9696 118.611 23.3776 118.419 23.7136C118.239 24.0496 118.041 24.3076 117.825 24.4876C117.621 24.6676 117.393 24.7576 117.141 24.7576ZM129.338 20.2576C128.93 20.2576 128.606 20.1616 128.366 19.9696C128.138 19.7776 127.97 19.5256 127.862 19.2136C127.754 18.8896 127.7 18.5416 127.7 18.1696C127.712 17.7856 127.754 17.4136 127.826 17.0536C127.898 16.7416 127.994 16.3696 128.114 15.9376C128.246 15.5056 128.39 15.0556 128.546 14.5876C128.702 14.1196 128.852 13.6816 128.996 13.2736C129.152 12.8656 129.278 12.5476 129.374 12.3196C129.53 11.8996 129.668 11.5756 129.788 11.3476C129.92 11.1196 130.076 11.0056 130.256 11.0056C130.412 11.0056 130.556 11.0596 130.688 11.1676C130.82 11.2756 130.916 11.4136 130.976 11.5816C131.048 11.7496 131.066 11.9356 131.03 12.1396C130.994 12.3316 130.91 12.6076 130.778 12.9676C130.646 13.3276 130.496 13.7296 130.328 14.1736C130.16 14.6176 129.998 15.0676 129.842 15.5236C129.686 15.9676 129.572 16.3696 129.5 16.7296C129.428 17.0536 129.38 17.3656 129.356 17.6656C129.332 17.9536 129.344 18.1936 129.392 18.3856C129.44 18.5656 129.542 18.6556 129.698 18.6556C130.082 18.6556 130.568 18.3136 131.156 17.6296C131.756 16.9456 132.422 16.0036 133.154 14.8036C133.49 14.2756 133.784 13.7836 134.036 13.3276C134.288 12.8716 134.51 12.4756 134.702 12.1396C134.894 11.7916 135.08 11.5216 135.26 11.3296C135.44 11.1376 135.62 11.0416 135.8 11.0416C136.076 11.0416 136.274 11.1496 136.394 11.3656C136.526 11.5696 136.586 11.8456 136.574 12.1936C136.574 12.5056 136.562 12.8896 136.538 13.3456C136.526 13.8016 136.514 14.2696 136.502 14.7496C136.49 15.2176 136.49 15.6556 136.502 16.0636C136.538 16.7596 136.604 17.3296 136.7 17.7736C136.808 18.2056 136.904 18.5536 136.988 18.8176C137.072 19.0816 137.108 19.2976 137.096 19.4656C137.084 19.5976 137.042 19.7236 136.97 19.8436C136.898 19.9516 136.808 20.0416 136.7 20.1136C136.592 20.1856 136.472 20.2216 136.34 20.2216C136.064 20.2216 135.836 20.0956 135.656 19.8436C135.488 19.5916 135.356 19.2376 135.26 18.7816C135.164 18.3256 135.086 17.7916 135.026 17.1796C135.002 16.7476 134.978 16.2856 134.954 15.7936C134.942 15.3016 134.942 14.8096 134.954 14.3176C134.978 13.8256 135.002 13.3696 135.026 12.9496L135.548 13.1296C135.404 13.4056 135.248 13.6996 135.08 14.0116C134.924 14.3236 134.732 14.6776 134.504 15.0736C134.288 15.4576 134.018 15.9136 133.694 16.4416C133.286 17.0896 132.842 17.7076 132.362 18.2956C131.882 18.8716 131.384 19.3456 130.868 19.7176C130.364 20.0776 129.854 20.2576 129.338 20.2576ZM139.352 12.9676C139.076 12.9676 138.86 12.8836 138.704 12.7156C138.56 12.5476 138.512 12.3556 138.56 12.1396C138.596 12.0076 138.668 11.8936 138.776 11.7976C138.884 11.7016 139.076 11.6176 139.352 11.5456C139.784 11.4256 140.36 11.3176 141.08 11.2216C141.812 11.1256 142.664 11.0776 143.636 11.0776C144.14 11.0776 144.602 11.0896 145.022 11.1136C145.454 11.1256 145.928 11.1676 146.444 11.2396C146.852 11.2876 147.164 11.3836 147.38 11.5276C147.608 11.6716 147.704 11.8336 147.668 12.0136C147.644 12.1456 147.59 12.2656 147.506 12.3736C147.434 12.4696 147.326 12.5476 147.182 12.6076C147.05 12.6676 146.882 12.6976 146.678 12.6976C146.426 12.6976 146.132 12.6856 145.796 12.6616C145.46 12.6376 145.1 12.6136 144.716 12.5896C144.344 12.5536 143.96 12.5356 143.564 12.5356C142.736 12.5356 142.07 12.5716 141.566 12.6436C141.062 12.7036 140.642 12.7756 140.306 12.8596C139.97 12.9316 139.652 12.9676 139.352 12.9676ZM141.962 20.2756C141.698 20.2756 141.5 20.1676 141.368 19.9516C141.248 19.7356 141.164 19.4596 141.116 19.1236C141.092 18.8716 141.092 18.5296 141.116 18.0976C141.152 17.6536 141.212 17.1736 141.296 16.6576C141.38 16.1296 141.47 15.6196 141.566 15.1276C141.698 14.4676 141.812 13.8856 141.908 13.3816C142.016 12.8656 142.1 12.4396 142.16 12.1036L143.78 11.9956C143.732 12.1996 143.672 12.4576 143.6 12.7696C143.54 13.0696 143.474 13.4116 143.402 13.7956C143.33 14.1676 143.252 14.5516 143.168 14.9476C143.096 15.3316 143.024 15.7036 142.952 16.0636C142.832 16.6636 142.754 17.1676 142.718 17.5756C142.694 17.9716 142.688 18.2956 142.7 18.5476C142.712 18.7996 142.724 19.0096 142.736 19.1776C142.748 19.3336 142.742 19.4776 142.718 19.6096C142.694 19.7416 142.646 19.8616 142.574 19.9696C142.502 20.0656 142.412 20.1376 142.304 20.1856C142.196 20.2456 142.082 20.2756 141.962 20.2756ZM150.79 20.2396C149.794 20.2396 149.02 20.0596 148.468 19.6996C147.916 19.3276 147.556 18.8296 147.388 18.2056C147.22 17.5696 147.214 16.8556 147.37 16.0636C147.502 15.4756 147.73 14.8876 148.054 14.2996C148.39 13.6996 148.804 13.1536 149.296 12.6616C149.8 12.1696 150.358 11.7796 150.97 11.4916C151.594 11.1916 152.248 11.0416 152.932 11.0416C153.568 11.0416 154.09 11.1436 154.498 11.3476C154.918 11.5516 155.206 11.8516 155.362 12.2476C155.53 12.6436 155.554 13.1416 155.434 13.7416C155.314 14.4016 155.02 14.9596 154.552 15.4156C154.084 15.8596 153.502 16.2016 152.806 16.4416C152.122 16.6816 151.384 16.8016 150.592 16.8016C149.776 16.8016 149.23 16.7056 148.954 16.5136C148.69 16.3216 148.582 16.1056 148.63 15.8656C148.654 15.7216 148.708 15.6196 148.792 15.5596C148.876 15.4876 149.008 15.4516 149.188 15.4516C149.32 15.4516 149.476 15.4756 149.656 15.5236C149.848 15.5596 150.13 15.5776 150.502 15.5776C151.102 15.5776 151.642 15.4936 152.122 15.3256C152.614 15.1576 153.016 14.9296 153.328 14.6416C153.64 14.3416 153.838 13.9996 153.922 13.6156C153.994 13.2556 153.946 12.9856 153.778 12.8056C153.622 12.6256 153.31 12.5356 152.842 12.5356C152.374 12.5356 151.924 12.6436 151.492 12.8596C151.072 13.0636 150.676 13.3456 150.304 13.7056C149.944 14.0656 149.638 14.4796 149.386 14.9476C149.134 15.4156 148.96 15.9076 148.864 16.4236C148.78 16.8556 148.774 17.2516 148.846 17.6116C148.918 17.9596 149.098 18.2476 149.386 18.4756C149.686 18.6916 150.112 18.7996 150.664 18.7996C151.288 18.7996 151.822 18.7216 152.266 18.5656C152.722 18.3976 153.106 18.2056 153.418 17.9896C153.73 17.7736 153.994 17.5876 154.21 17.4316C154.426 17.2756 154.618 17.1976 154.786 17.1976C154.99 17.1976 155.134 17.2756 155.218 17.4316C155.314 17.5756 155.338 17.7676 155.29 18.0076C155.242 18.2476 155.08 18.4996 154.804 18.7636C154.54 19.0156 154.192 19.2556 153.76 19.4836C153.34 19.7116 152.872 19.8976 152.356 20.0416C151.852 20.1736 151.33 20.2396 150.79 20.2396ZM58.5799 36.2576C58.2199 36.2576 57.8239 36.1496 57.3919 35.9336C56.9599 35.7056 56.5339 35.4056 56.1139 35.0336C55.7059 34.6616 55.3279 34.2656 54.9799 33.8456C54.6439 33.4256 54.3799 33.0236 54.1879 32.6396C54.0679 32.4476 53.9899 32.2736 53.9539 32.1176C53.9299 31.9496 53.9239 31.7876 53.9359 31.6316C53.9719 31.5356 54.0199 31.4276 54.0799 31.3076C54.1399 31.1876 54.2179 31.0796 54.3139 30.9836C54.4579 30.7916 54.7039 30.5336 55.0519 30.2096C55.3999 29.8856 55.8019 29.5376 56.2579 29.1656C56.7259 28.7816 57.2059 28.4276 57.6979 28.1036C58.2019 27.7676 58.6759 27.4916 59.1199 27.2756C59.5759 27.0596 59.9659 26.9516 60.2899 26.9516C60.4219 26.9516 60.5239 26.9816 60.5959 27.0416C60.6799 27.1016 60.7399 27.1796 60.7759 27.2756C60.8119 27.3716 60.8239 27.4676 60.8119 27.5636C60.7999 27.8276 60.6259 28.0796 60.2899 28.3196C59.9539 28.5596 59.5939 28.7816 59.2099 28.9856C58.5259 29.3696 57.9199 29.7476 57.3919 30.1196C56.8639 30.4916 56.4379 30.8216 56.1139 31.1096C55.8019 31.3976 55.6399 31.6016 55.6279 31.7216C55.6039 31.8416 55.6819 32.0516 55.8619 32.3516C56.0419 32.6396 56.3179 32.9696 56.6899 33.3416C57.0619 33.7016 57.4999 34.0376 58.0039 34.3496C58.2319 34.4936 58.4539 34.6316 58.6699 34.7636C58.8979 34.8836 59.0779 35.0096 59.2099 35.1416C59.3539 35.2616 59.4199 35.3996 59.4079 35.5556C59.3959 35.6876 59.3539 35.8076 59.2819 35.9156C59.2099 36.0236 59.1079 36.1076 58.9759 36.1676C58.8559 36.2276 58.7239 36.2576 58.5799 36.2576ZM52.5859 36.2396C52.2739 36.2396 52.0639 36.0836 51.9559 35.7716C51.8479 35.4476 51.8179 34.9856 51.8659 34.3856C51.9259 33.7736 52.0399 33.0356 52.2079 32.1716C52.2799 31.8116 52.3639 31.4336 52.4599 31.0376C52.5679 30.6416 52.6759 30.2456 52.7839 29.8496C52.8919 29.4416 52.9819 29.0456 53.0539 28.6616C53.0779 28.5656 53.0959 28.4696 53.1079 28.3736C53.1319 28.2656 53.1499 28.1576 53.1619 28.0496C53.2099 27.8096 53.2759 27.6116 53.3599 27.4556C53.4439 27.2996 53.5399 27.1796 53.6479 27.0956C53.7679 26.9996 53.8879 26.9516 54.0079 26.9516C54.2839 26.9516 54.4999 27.0776 54.6559 27.3296C54.8239 27.5696 54.8599 27.9116 54.7639 28.3556C54.7039 28.6556 54.6079 29.0276 54.4759 29.4716C54.3559 29.9036 54.2299 30.3476 54.0979 30.8036C53.9659 31.2596 53.8639 31.6616 53.7919 32.0096C53.6839 32.6336 53.5999 33.1916 53.5399 33.6836C53.4919 34.1756 53.4619 34.5836 53.4499 34.9076C53.4379 35.2196 53.4139 35.4356 53.3779 35.5556C53.3539 35.6996 53.2999 35.8256 53.2159 35.9336C53.1439 36.0296 53.0539 36.1016 52.9459 36.1496C52.8499 36.2096 52.7299 36.2396 52.5859 36.2396ZM65.4437 36.2756C64.4597 36.2756 63.6497 36.0596 63.0137 35.6276C62.3897 35.1956 61.9577 34.6136 61.7177 33.8816C61.4897 33.1376 61.4657 32.2916 61.6457 31.3436C61.7777 30.6716 62.0057 30.0836 62.3297 29.5796C62.6657 29.0636 63.0377 28.6316 63.4457 28.2836C63.8657 27.9356 64.2857 27.6776 64.7057 27.5096C65.1257 27.3296 65.4857 27.2396 65.7857 27.2396C65.9177 27.2396 66.0257 27.2576 66.1097 27.2936C66.2057 27.3296 66.2777 27.3896 66.3257 27.4736C66.3857 27.5456 66.4037 27.6476 66.3797 27.7796C66.3197 28.0196 66.2237 28.2416 66.0917 28.4456C65.9597 28.6376 65.7137 28.8116 65.3537 28.9676C64.9217 29.1716 64.5557 29.3996 64.2557 29.6516C63.9677 29.8916 63.7337 30.1736 63.5537 30.4976C63.3737 30.8096 63.2477 31.1876 63.1757 31.6316C62.9837 32.6036 63.0977 33.3836 63.5177 33.9716C63.9377 34.5476 64.5797 34.8356 65.4437 34.8356C66.2837 34.8356 67.0157 34.5356 67.6397 33.9356C68.2757 33.3236 68.6897 32.5136 68.8817 31.5056C69.0737 30.5816 69.0137 29.8616 68.7017 29.3456C68.3897 28.8176 67.8737 28.5536 67.1537 28.5536C66.7817 28.5536 66.4637 28.6256 66.1997 28.7696C65.9477 28.9136 65.6717 29.1056 65.3717 29.3456C65.1557 29.5256 64.9817 29.6876 64.8497 29.8316C64.7177 29.9756 64.5977 30.0896 64.4897 30.1736C64.3937 30.2456 64.2677 30.2816 64.1117 30.2816C63.9437 30.2816 63.8117 30.2276 63.7157 30.1196C63.6317 29.9996 63.6137 29.8136 63.6617 29.5616C63.7097 29.2856 63.8477 29.0036 64.0757 28.7156C64.3157 28.4276 64.6037 28.1636 64.9397 27.9236C65.2877 27.6716 65.6597 27.4736 66.0557 27.3296C66.4517 27.1736 66.8417 27.0956 67.2257 27.0956C68.0897 27.0956 68.7917 27.2996 69.3317 27.7076C69.8717 28.1036 70.2377 28.6556 70.4297 29.3636C70.6217 30.0596 70.6217 30.8636 70.4297 31.7756C70.2617 32.6756 69.9377 33.4676 69.4577 34.1516C68.9777 34.8236 68.3897 35.3456 67.6937 35.7176C67.0097 36.0896 66.2597 36.2756 65.4437 36.2756ZM76.1248 36.1496C75.5488 36.1496 75.0448 36.0716 74.6128 35.9156C74.1808 35.7596 73.8508 35.5556 73.6228 35.3036C73.3948 35.0516 73.3048 34.7876 73.3528 34.5116C73.3888 34.3676 73.4548 34.2416 73.5508 34.1336C73.6468 34.0256 73.7728 33.9716 73.9288 33.9716C74.0488 33.9716 74.1568 34.0016 74.2528 34.0616C74.3488 34.1216 74.4628 34.1936 74.5948 34.2776C74.7268 34.3616 74.9188 34.4396 75.1708 34.5116C75.4228 34.5716 75.7648 34.6016 76.1968 34.6016C76.8688 34.6016 77.4508 34.4396 77.9428 34.1156C78.4468 33.7796 78.7708 33.2096 78.9148 32.4056C79.0348 31.8416 79.0408 31.3316 78.9328 30.8756C78.8368 30.4076 78.6508 30.0056 78.3748 29.6696C78.0988 29.3216 77.7448 29.0576 77.3128 28.8776C76.8808 28.6976 76.3888 28.6076 75.8368 28.6076C75.5608 28.6076 75.2788 28.6376 74.9908 28.6976C74.7028 28.7576 74.4508 28.7876 74.2348 28.7876C74.1028 28.7876 73.9828 28.7576 73.8748 28.6976C73.7668 28.6256 73.6948 28.5296 73.6588 28.4096C73.6228 28.2896 73.6168 28.1696 73.6408 28.0496C73.7128 27.7256 73.9288 27.4796 74.2888 27.3116C74.6608 27.1316 75.2248 27.0416 75.9808 27.0416C76.7848 27.0416 77.4988 27.1796 78.1228 27.4556C78.7588 27.7316 79.2808 28.1216 79.6888 28.6256C80.0968 29.1176 80.3728 29.7116 80.5168 30.4076C80.6728 31.0916 80.6668 31.8536 80.4988 32.6936C80.3908 33.2456 80.1988 33.7376 79.9228 34.1696C79.6588 34.6016 79.3348 34.9676 78.9508 35.2676C78.5668 35.5556 78.1348 35.7776 77.6548 35.9336C77.1748 36.0776 76.6648 36.1496 76.1248 36.1496ZM71.8948 40.7576C71.7508 40.7576 71.6248 40.7216 71.5168 40.6496C71.4208 40.5896 71.3548 40.4936 71.3188 40.3616C71.2828 40.2296 71.2828 40.0736 71.3188 39.8936C71.3548 39.7136 71.4208 39.5456 71.5168 39.3896C71.6008 39.2456 71.6968 39.0656 71.8048 38.8496C71.9128 38.6456 72.0268 38.3816 72.1468 38.0576C72.2668 37.7336 72.3808 37.3076 72.4888 36.7796C72.6688 35.9036 72.7648 35.0276 72.7768 34.1516C72.7888 33.2756 72.7948 32.3876 72.7948 31.4876C72.8068 30.5756 72.8968 29.6636 73.0648 28.7516C73.1248 28.4516 73.2268 28.2296 73.3708 28.0856C73.5268 27.9296 73.7128 27.8516 73.9288 27.8516C74.1208 27.8516 74.2768 27.9176 74.3968 28.0496C74.5288 28.1696 74.6188 28.3376 74.6668 28.5536C74.7148 28.7576 74.7088 28.9856 74.6488 29.2376C74.5048 29.9576 74.4148 30.6416 74.3788 31.2896C74.3548 31.9256 74.3428 32.5496 74.3428 33.1616C74.3548 33.7736 74.3488 34.3856 74.3248 34.9976C74.3008 35.6096 74.2228 36.2396 74.0908 36.8876C73.9828 37.4756 73.8508 38.0096 73.6948 38.4896C73.5388 38.9696 73.3648 39.3776 73.1728 39.7136C72.9928 40.0496 72.7948 40.3076 72.5788 40.4876C72.3748 40.6676 72.1468 40.7576 71.8948 40.7576ZM86.5022 36.2756C85.5182 36.2756 84.7082 36.0596 84.0722 35.6276C83.4482 35.1956 83.0162 34.6136 82.7762 33.8816C82.5482 33.1376 82.5242 32.2916 82.7042 31.3436C82.8362 30.6716 83.0642 30.0836 83.3882 29.5796C83.7242 29.0636 84.0962 28.6316 84.5042 28.2836C84.9242 27.9356 85.3442 27.6776 85.7642 27.5096C86.1842 27.3296 86.5442 27.2396 86.8442 27.2396C86.9762 27.2396 87.0842 27.2576 87.1682 27.2936C87.2642 27.3296 87.3362 27.3896 87.3842 27.4736C87.4442 27.5456 87.4622 27.6476 87.4382 27.7796C87.3782 28.0196 87.2822 28.2416 87.1502 28.4456C87.0182 28.6376 86.7722 28.8116 86.4122 28.9676C85.9802 29.1716 85.6142 29.3996 85.3142 29.6516C85.0262 29.8916 84.7922 30.1736 84.6122 30.4976C84.4322 30.8096 84.3062 31.1876 84.2342 31.6316C84.0422 32.6036 84.1562 33.3836 84.5762 33.9716C84.9962 34.5476 85.6382 34.8356 86.5022 34.8356C87.3422 34.8356 88.0742 34.5356 88.6982 33.9356C89.3342 33.3236 89.7482 32.5136 89.9402 31.5056C90.1322 30.5816 90.0722 29.8616 89.7602 29.3456C89.4482 28.8176 88.9322 28.5536 88.2122 28.5536C87.8402 28.5536 87.5222 28.6256 87.2582 28.7696C87.0062 28.9136 86.7302 29.1056 86.4302 29.3456C86.2142 29.5256 86.0402 29.6876 85.9082 29.8316C85.7762 29.9756 85.6562 30.0896 85.5482 30.1736C85.4522 30.2456 85.3262 30.2816 85.1702 30.2816C85.0022 30.2816 84.8702 30.2276 84.7742 30.1196C84.6902 29.9996 84.6722 29.8136 84.7202 29.5616C84.7682 29.2856 84.9062 29.0036 85.1342 28.7156C85.3742 28.4276 85.6622 28.1636 85.9982 27.9236C86.3462 27.6716 86.7182 27.4736 87.1142 27.3296C87.5102 27.1736 87.9002 27.0956 88.2842 27.0956C89.1482 27.0956 89.8502 27.2996 90.3902 27.7076C90.9302 28.1036 91.2962 28.6556 91.4882 29.3636C91.6802 30.0596 91.6802 30.8636 91.4882 31.7756C91.3202 32.6756 90.9962 33.4676 90.5162 34.1516C90.0362 34.8236 89.4482 35.3456 88.7522 35.7176C88.0682 36.0896 87.3182 36.2756 86.5022 36.2756ZM93.6672 28.9676C93.3912 28.9676 93.1752 28.8836 93.0192 28.7156C92.8752 28.5476 92.8272 28.3556 92.8752 28.1396C92.9112 28.0076 92.9832 27.8936 93.0912 27.7976C93.1992 27.7016 93.3912 27.6176 93.6672 27.5456C94.0992 27.4256 94.6752 27.3176 95.3952 27.2216C96.1272 27.1256 96.9792 27.0776 97.9512 27.0776C98.4552 27.0776 98.9172 27.0896 99.3372 27.1136C99.7692 27.1256 100.243 27.1676 100.759 27.2396C101.167 27.2876 101.479 27.3836 101.695 27.5276C101.923 27.6716 102.019 27.8336 101.983 28.0136C101.959 28.1456 101.905 28.2656 101.821 28.3736C101.749 28.4696 101.641 28.5476 101.497 28.6076C101.365 28.6676 101.197 28.6976 100.993 28.6976C100.741 28.6976 100.447 28.6856 100.111 28.6616C99.7752 28.6376 99.4152 28.6136 99.0312 28.5896C98.6592 28.5536 98.2752 28.5356 97.8792 28.5356C97.0512 28.5356 96.3852 28.5716 95.8812 28.6436C95.3772 28.7036 94.9572 28.7756 94.6212 28.8596C94.2852 28.9316 93.9672 28.9676 93.6672 28.9676ZM96.2772 36.2756C96.0132 36.2756 95.8152 36.1676 95.6832 35.9516C95.5632 35.7356 95.4792 35.4596 95.4312 35.1236C95.4072 34.8716 95.4072 34.5296 95.4312 34.0976C95.4672 33.6536 95.5272 33.1736 95.6112 32.6576C95.6952 32.1296 95.7852 31.6196 95.8812 31.1276C96.0132 30.4676 96.1272 29.8856 96.2232 29.3816C96.3312 28.8656 96.4152 28.4396 96.4752 28.1036L98.0952 27.9956C98.0472 28.1996 97.9872 28.4576 97.9152 28.7696C97.8552 29.0696 97.7892 29.4116 97.7172 29.7956C97.6452 30.1676 97.5672 30.5516 97.4832 30.9476C97.4112 31.3316 97.3392 31.7036 97.2672 32.0636C97.1472 32.6636 97.0692 33.1676 97.0332 33.5756C97.0092 33.9716 97.0032 34.2956 97.0152 34.5476C97.0272 34.7996 97.0392 35.0096 97.0512 35.1776C97.0632 35.3336 97.0572 35.4776 97.0332 35.6096C97.0092 35.7416 96.9612 35.8616 96.8892 35.9696C96.8172 36.0656 96.7272 36.1376 96.6192 36.1856C96.5112 36.2456 96.3972 36.2756 96.2772 36.2756ZM108.783 36.2576C108.423 36.2576 108.027 36.1496 107.595 35.9336C107.163 35.7056 106.737 35.4056 106.317 35.0336C105.909 34.6616 105.531 34.2656 105.183 33.8456C104.847 33.4256 104.583 33.0236 104.391 32.6396C104.271 32.4476 104.193 32.2736 104.157 32.1176C104.133 31.9496 104.127 31.7876 104.139 31.6316C104.175 31.5356 104.223 31.4276 104.283 31.3076C104.343 31.1876 104.421 31.0796 104.517 30.9836C104.661 30.7916 104.907 30.5336 105.255 30.2096C105.603 29.8856 106.005 29.5376 106.461 29.1656C106.929 28.7816 107.409 28.4276 107.901 28.1036C108.405 27.7676 108.879 27.4916 109.323 27.2756C109.779 27.0596 110.169 26.9516 110.493 26.9516C110.625 26.9516 110.727 26.9816 110.799 27.0416C110.883 27.1016 110.943 27.1796 110.979 27.2756C111.015 27.3716 111.027 27.4676 111.015 27.5636C111.003 27.8276 110.829 28.0796 110.493 28.3196C110.157 28.5596 109.797 28.7816 109.413 28.9856C108.729 29.3696 108.123 29.7476 107.595 30.1196C107.067 30.4916 106.641 30.8216 106.317 31.1096C106.005 31.3976 105.843 31.6016 105.831 31.7216C105.807 31.8416 105.885 32.0516 106.065 32.3516C106.245 32.6396 106.521 32.9696 106.893 33.3416C107.265 33.7016 107.703 34.0376 108.207 34.3496C108.435 34.4936 108.657 34.6316 108.873 34.7636C109.101 34.8836 109.281 35.0096 109.413 35.1416C109.557 35.2616 109.623 35.3996 109.611 35.5556C109.599 35.6876 109.557 35.8076 109.485 35.9156C109.413 36.0236 109.311 36.1076 109.179 36.1676C109.059 36.2276 108.927 36.2576 108.783 36.2576ZM102.789 36.2396C102.477 36.2396 102.267 36.0836 102.159 35.7716C102.051 35.4476 102.021 34.9856 102.069 34.3856C102.129 33.7736 102.243 33.0356 102.411 32.1716C102.483 31.8116 102.567 31.4336 102.663 31.0376C102.771 30.6416 102.879 30.2456 102.987 29.8496C103.095 29.4416 103.185 29.0456 103.257 28.6616C103.281 28.5656 103.299 28.4696 103.311 28.3736C103.335 28.2656 103.353 28.1576 103.365 28.0496C103.413 27.8096 103.479 27.6116 103.563 27.4556C103.647 27.2996 103.743 27.1796 103.851 27.0956C103.971 26.9996 104.091 26.9516 104.211 26.9516C104.487 26.9516 104.703 27.0776 104.859 27.3296C105.027 27.5696 105.063 27.9116 104.967 28.3556C104.907 28.6556 104.811 29.0276 104.679 29.4716C104.559 29.9036 104.433 30.3476 104.301 30.8036C104.169 31.2596 104.067 31.6616 103.995 32.0096C103.887 32.6336 103.803 33.1916 103.743 33.6836C103.695 34.1756 103.665 34.5836 103.653 34.9076C103.641 35.2196 103.617 35.4356 103.581 35.5556C103.557 35.6996 103.503 35.8256 103.419 35.9336C103.347 36.0296 103.257 36.1016 103.149 36.1496C103.053 36.2096 102.933 36.2396 102.789 36.2396ZM115.646 36.2756C114.662 36.2756 113.852 36.0596 113.216 35.6276C112.592 35.1956 112.16 34.6136 111.92 33.8816C111.692 33.1376 111.668 32.2916 111.848 31.3436C111.98 30.6716 112.208 30.0836 112.532 29.5796C112.868 29.0636 113.24 28.6316 113.648 28.2836C114.068 27.9356 114.488 27.6776 114.908 27.5096C115.328 27.3296 115.688 27.2396 115.988 27.2396C116.12 27.2396 116.228 27.2576 116.312 27.2936C116.408 27.3296 116.48 27.3896 116.528 27.4736C116.588 27.5456 116.606 27.6476 116.582 27.7796C116.522 28.0196 116.426 28.2416 116.294 28.4456C116.162 28.6376 115.916 28.8116 115.556 28.9676C115.124 29.1716 114.758 29.3996 114.458 29.6516C114.17 29.8916 113.936 30.1736 113.756 30.4976C113.576 30.8096 113.45 31.1876 113.378 31.6316C113.186 32.6036 113.3 33.3836 113.72 33.9716C114.14 34.5476 114.782 34.8356 115.646 34.8356C116.486 34.8356 117.218 34.5356 117.842 33.9356C118.478 33.3236 118.892 32.5136 119.084 31.5056C119.276 30.5816 119.216 29.8616 118.904 29.3456C118.592 28.8176 118.076 28.5536 117.356 28.5536C116.984 28.5536 116.666 28.6256 116.402 28.7696C116.15 28.9136 115.874 29.1056 115.574 29.3456C115.358 29.5256 115.184 29.6876 115.052 29.8316C114.92 29.9756 114.8 30.0896 114.692 30.1736C114.596 30.2456 114.47 30.2816 114.314 30.2816C114.146 30.2816 114.014 30.2276 113.918 30.1196C113.834 29.9996 113.816 29.8136 113.864 29.5616C113.912 29.2856 114.05 29.0036 114.278 28.7156C114.518 28.4276 114.806 28.1636 115.142 27.9236C115.49 27.6716 115.862 27.4736 116.258 27.3296C116.654 27.1736 117.044 27.0956 117.428 27.0956C118.292 27.0956 118.994 27.2996 119.534 27.7076C120.074 28.1036 120.44 28.6556 120.632 29.3636C120.824 30.0596 120.824 30.8636 120.632 31.7756C120.464 32.6756 120.14 33.4676 119.66 34.1516C119.18 34.8236 118.592 35.3456 117.896 35.7176C117.212 36.0896 116.462 36.2756 115.646 36.2756ZM126.04 36.2396C125.044 36.2396 124.27 36.0596 123.718 35.6996C123.166 35.3276 122.806 34.8296 122.638 34.2056C122.47 33.5696 122.464 32.8556 122.62 32.0636C122.752 31.4756 122.98 30.8876 123.304 30.2996C123.64 29.6996 124.054 29.1536 124.546 28.6616C125.05 28.1696 125.608 27.7796 126.22 27.4916C126.844 27.1916 127.498 27.0416 128.182 27.0416C128.818 27.0416 129.34 27.1436 129.748 27.3476C130.168 27.5516 130.456 27.8516 130.612 28.2476C130.78 28.6436 130.804 29.1416 130.684 29.7416C130.564 30.4016 130.27 30.9596 129.802 31.4156C129.334 31.8596 128.752 32.2016 128.056 32.4416C127.372 32.6816 126.634 32.8016 125.842 32.8016C125.026 32.8016 124.48 32.7056 124.204 32.5136C123.94 32.3216 123.832 32.1056 123.88 31.8656C123.904 31.7216 123.958 31.6196 124.042 31.5596C124.126 31.4876 124.258 31.4516 124.438 31.4516C124.57 31.4516 124.726 31.4756 124.906 31.5236C125.098 31.5596 125.38 31.5776 125.752 31.5776C126.352 31.5776 126.892 31.4936 127.372 31.3256C127.864 31.1576 128.266 30.9296 128.578 30.6416C128.89 30.3416 129.088 29.9996 129.172 29.6156C129.244 29.2556 129.196 28.9856 129.028 28.8056C128.872 28.6256 128.56 28.5356 128.092 28.5356C127.624 28.5356 127.174 28.6436 126.742 28.8596C126.322 29.0636 125.926 29.3456 125.554 29.7056C125.194 30.0656 124.888 30.4796 124.636 30.9476C124.384 31.4156 124.21 31.9076 124.114 32.4236C124.03 32.8556 124.024 33.2516 124.096 33.6116C124.168 33.9596 124.348 34.2476 124.636 34.4756C124.936 34.6916 125.362 34.7996 125.914 34.7996C126.538 34.7996 127.072 34.7216 127.516 34.5656C127.972 34.3976 128.356 34.2056 128.668 33.9896C128.98 33.7736 129.244 33.5876 129.46 33.4316C129.676 33.2756 129.868 33.1976 130.036 33.1976C130.24 33.1976 130.384 33.2756 130.468 33.4316C130.564 33.5756 130.588 33.7676 130.54 34.0076C130.492 34.2476 130.33 34.4996 130.054 34.7636C129.79 35.0156 129.442 35.2556 129.01 35.4836C128.59 35.7116 128.122 35.8976 127.606 36.0416C127.102 36.1736 126.58 36.2396 126.04 36.2396ZM141.417 36.3476C140.805 36.3476 140.307 36.2216 139.923 35.9696C139.551 35.7176 139.275 35.3936 139.095 34.9976C138.927 34.5896 138.831 34.1516 138.807 33.6836C138.795 33.2036 138.831 32.7356 138.915 32.2796C139.023 31.7756 139.179 31.2296 139.383 30.6416C139.599 30.0536 139.839 29.4896 140.103 28.9496C140.367 28.3976 140.631 27.9416 140.895 27.5816C141.003 27.4256 141.123 27.2996 141.255 27.2036C141.399 27.1076 141.549 27.0416 141.705 27.0056C141.861 26.9576 142.017 26.9336 142.173 26.9336C142.317 26.9336 142.419 26.9816 142.479 27.0776C142.539 27.1616 142.551 27.2816 142.515 27.4376C142.479 27.6176 142.377 27.8456 142.209 28.1216C142.053 28.3976 141.861 28.7336 141.633 29.1296C141.417 29.5256 141.201 29.9996 140.985 30.5516C140.769 31.0916 140.589 31.7276 140.445 32.4596C140.289 33.2276 140.307 33.8396 140.499 34.2956C140.691 34.7516 141.093 34.9796 141.705 34.9796C142.161 34.9796 142.617 34.8596 143.073 34.6196C143.529 34.3796 143.931 34.0556 144.279 33.6476C144.639 33.2276 144.879 32.7596 144.999 32.2436L145.197 32.5856C144.897 32.4656 144.537 32.3756 144.117 32.3156C143.709 32.2436 143.271 32.1956 142.803 32.1716C142.347 32.1356 141.897 32.1296 141.453 32.1536C141.009 32.1656 140.613 32.2016 140.265 32.2616L140.499 31.0736C141.123 31.0616 141.711 30.9896 142.263 30.8576C142.827 30.7136 143.325 30.5276 143.757 30.2996C144.201 30.0716 144.561 29.8316 144.837 29.5796C145.113 29.3156 145.269 29.0696 145.305 28.8416C145.341 28.6736 145.299 28.5416 145.179 28.4456C145.059 28.3376 144.867 28.2836 144.603 28.2836C144.279 28.2836 143.937 28.3316 143.577 28.4276C143.229 28.5236 142.857 28.6436 142.461 28.7876C142.065 28.9316 141.645 29.0816 141.201 29.2376C141.021 29.2856 140.871 29.2616 140.751 29.1656C140.643 29.0696 140.607 28.9496 140.643 28.8056C140.679 28.6376 140.793 28.4816 140.985 28.3376C141.189 28.1816 141.381 28.0676 141.561 27.9956C142.293 27.6116 142.971 27.3476 143.595 27.2036C144.231 27.0476 144.819 26.9696 145.359 26.9696C145.791 26.9696 146.145 27.0356 146.421 27.1676C146.709 27.2996 146.913 27.4796 147.033 27.7076C147.165 27.9356 147.201 28.1936 147.141 28.4816C147.069 28.8656 146.889 29.2316 146.601 29.5796C146.313 29.9276 145.947 30.2516 145.503 30.5516C145.071 30.8396 144.597 31.0856 144.081 31.2896C143.565 31.4936 143.025 31.6436 142.461 31.7396L142.551 31.0556C143.115 31.0316 143.637 31.0316 144.117 31.0556C144.609 31.0796 145.041 31.1336 145.413 31.2176C145.785 31.3016 146.067 31.4396 146.259 31.6316C146.463 31.8116 146.559 32.0516 146.547 32.3516C146.523 32.8316 146.355 33.3116 146.043 33.7916C145.743 34.2596 145.341 34.6856 144.837 35.0696C144.345 35.4536 143.799 35.7656 143.199 36.0056C142.611 36.2336 142.017 36.3476 141.417 36.3476ZM150.151 36.2576C149.743 36.2576 149.419 36.1616 149.179 35.9696C148.951 35.7776 148.783 35.5256 148.675 35.2136C148.567 34.8896 148.513 34.5416 148.513 34.1696C148.525 33.7856 148.567 33.4136 148.639 33.0536C148.711 32.7416 148.807 32.3696 148.927 31.9376C149.059 31.5056 149.203 31.0556 149.359 30.5876C149.515 30.1196 149.665 29.6816 149.809 29.2736C149.965 28.8656 150.091 28.5476 150.187 28.3196C150.343 27.8996 150.481 27.5756 150.601 27.3476C150.733 27.1196 150.889 27.0056 151.069 27.0056C151.225 27.0056 151.369 27.0596 151.501 27.1676C151.633 27.2756 151.729 27.4136 151.789 27.5816C151.861 27.7496 151.879 27.9356 151.843 28.1396C151.807 28.3316 151.723 28.6076 151.591 28.9676C151.459 29.3276 151.309 29.7296 151.141 30.1736C150.973 30.6176 150.811 31.0676 150.655 31.5236C150.499 31.9676 150.385 32.3696 150.313 32.7296C150.241 33.0536 150.193 33.3656 150.169 33.6656C150.145 33.9536 150.157 34.1936 150.205 34.3856C150.253 34.5656 150.355 34.6556 150.511 34.6556C150.895 34.6556 151.381 34.3136 151.969 33.6296C152.569 32.9456 153.235 32.0036 153.967 30.8036C154.303 30.2756 154.597 29.7836 154.849 29.3276C155.101 28.8716 155.323 28.4756 155.515 28.1396C155.707 27.7916 155.893 27.5216 156.073 27.3296C156.253 27.1376 156.433 27.0416 156.613 27.0416C156.889 27.0416 157.087 27.1496 157.207 27.3656C157.339 27.5696 157.399 27.8456 157.387 28.1936C157.387 28.5056 157.375 28.8896 157.351 29.3456C157.339 29.8016 157.327 30.2696 157.315 30.7496C157.303 31.2176 157.303 31.6556 157.315 32.0636C157.351 32.7596 157.417 33.3296 157.513 33.7736C157.621 34.2056 157.717 34.5536 157.801 34.8176C157.885 35.0816 157.921 35.2976 157.909 35.4656C157.897 35.5976 157.855 35.7236 157.783 35.8436C157.711 35.9516 157.621 36.0416 157.513 36.1136C157.405 36.1856 157.285 36.2216 157.153 36.2216C156.877 36.2216 156.649 36.0956 156.469 35.8436C156.301 35.5916 156.169 35.2376 156.073 34.7816C155.977 34.3256 155.899 33.7916 155.839 33.1796C155.815 32.7476 155.791 32.2856 155.767 31.7936C155.755 31.3016 155.755 30.8096 155.767 30.3176C155.791 29.8256 155.815 29.3696 155.839 28.9496L156.361 29.1296C156.217 29.4056 156.061 29.6996 155.893 30.0116C155.737 30.3236 155.545 30.6776 155.317 31.0736C155.101 31.4576 154.831 31.9136 154.507 32.4416C154.099 33.0896 153.655 33.7076 153.175 34.2956C152.695 34.8716 152.197 35.3456 151.681 35.7176C151.177 36.0776 150.667 36.2576 150.151 36.2576ZM160.22 35.2316C160.376 34.8716 160.574 34.4696 160.814 34.0256C161.054 33.5696 161.312 33.0956 161.588 32.6036C161.876 32.1116 162.164 31.6316 162.452 31.1636C162.752 30.6836 163.034 30.2516 163.298 29.8676C163.646 29.3756 163.994 28.9136 164.342 28.4816C164.69 28.0496 165.02 27.7016 165.332 27.4376C165.656 27.1616 165.932 27.0236 166.16 27.0236C166.4 27.0236 166.61 27.1256 166.79 27.3296C166.982 27.5336 167.15 27.8696 167.294 28.3376C167.39 28.6736 167.492 29.0996 167.6 29.6156C167.708 30.1316 167.81 30.6956 167.906 31.3076C168.002 31.9076 168.08 32.5136 168.14 33.1256C168.2 33.7376 168.236 34.3016 168.248 34.8176L166.664 34.9616C166.652 34.3856 166.61 33.7616 166.538 33.0896C166.478 32.4056 166.394 31.7456 166.286 31.1096C166.178 30.4736 166.064 29.9216 165.944 29.4536C165.824 28.9736 165.698 28.6496 165.566 28.4816L166.268 28.3376C165.884 28.7456 165.476 29.2256 165.044 29.7776C164.624 30.3296 164.228 30.9236 163.856 31.5596C163.58 32.0276 163.322 32.4716 163.082 32.8916C162.842 33.3116 162.62 33.7196 162.416 34.1156C162.224 34.4996 162.032 34.8956 161.84 35.3036L160.22 35.2316ZM168.014 38.6696C167.774 38.6696 167.588 38.5856 167.456 38.4176C167.324 38.2496 167.282 38.0636 167.33 37.8596C167.354 37.7156 167.432 37.4996 167.564 37.2116C167.696 36.9356 167.834 36.6176 167.978 36.2576C168.122 35.8976 168.23 35.5256 168.302 35.1416L168.95 36.0596C168.782 36.0356 168.518 36.0116 168.158 35.9876C167.81 35.9636 167.366 35.9516 166.826 35.9516C166.19 35.9516 165.536 35.9576 164.864 35.9696C164.204 35.9816 163.55 35.9996 162.902 36.0236C162.266 36.0476 161.66 36.0836 161.084 36.1316C160.508 36.1796 159.98 36.2396 159.5 36.3116L160.202 35.6816C160.178 35.8376 160.154 36.0296 160.13 36.2576C160.106 36.4856 160.088 36.7136 160.076 36.9416C160.064 37.1816 160.052 37.3916 160.04 37.5716C160.04 37.7516 160.04 37.8776 160.04 37.9496C160.028 38.1536 159.956 38.3096 159.824 38.4176C159.692 38.5376 159.524 38.5976 159.32 38.5976C159.032 38.5976 158.834 38.4836 158.726 38.2556C158.618 38.0276 158.564 37.7576 158.564 37.4456C158.552 37.2536 158.558 37.0076 158.582 36.7076C158.606 36.4076 158.636 36.1736 158.672 36.0056C158.72 35.8136 158.792 35.6456 158.888 35.5016C158.972 35.3456 159.098 35.2136 159.266 35.1056C159.434 34.9976 159.65 34.9196 159.914 34.8716C160.214 34.8236 160.616 34.7816 161.12 34.7456C161.636 34.6976 162.212 34.6616 162.848 34.6376C163.496 34.6016 164.162 34.5776 164.846 34.5656C165.53 34.5416 166.184 34.5296 166.808 34.5296C167.12 34.5296 167.462 34.5356 167.834 34.5476C168.206 34.5476 168.566 34.5716 168.914 34.6196C169.262 34.6556 169.496 34.7636 169.616 34.9436C169.748 35.1236 169.778 35.4056 169.706 35.7896C169.646 36.0896 169.556 36.4076 169.436 36.7436C169.316 37.0796 169.172 37.3916 169.004 37.6796C168.848 37.9796 168.68 38.2196 168.5 38.3996C168.332 38.5796 168.17 38.6696 168.014 38.6696ZM174.767 36.2396C173.771 36.2396 172.997 36.0596 172.445 35.6996C171.893 35.3276 171.533 34.8296 171.365 34.2056C171.197 33.5696 171.191 32.8556 171.347 32.0636C171.479 31.4756 171.707 30.8876 172.031 30.2996C172.367 29.6996 172.781 29.1536 173.273 28.6616C173.777 28.1696 174.335 27.7796 174.947 27.4916C175.571 27.1916 176.225 27.0416 176.909 27.0416C177.545 27.0416 178.067 27.1436 178.475 27.3476C178.895 27.5516 179.183 27.8516 179.339 28.2476C179.507 28.6436 179.531 29.1416 179.411 29.7416C179.291 30.4016 178.997 30.9596 178.529 31.4156C178.061 31.8596 177.479 32.2016 176.783 32.4416C176.099 32.6816 175.361 32.8016 174.569 32.8016C173.753 32.8016 173.207 32.7056 172.931 32.5136C172.667 32.3216 172.559 32.1056 172.607 31.8656C172.631 31.7216 172.685 31.6196 172.769 31.5596C172.853 31.4876 172.985 31.4516 173.165 31.4516C173.297 31.4516 173.453 31.4756 173.633 31.5236C173.825 31.5596 174.107 31.5776 174.479 31.5776C175.079 31.5776 175.619 31.4936 176.099 31.3256C176.591 31.1576 176.993 30.9296 177.305 30.6416C177.617 30.3416 177.815 29.9996 177.899 29.6156C177.971 29.2556 177.923 28.9856 177.755 28.8056C177.599 28.6256 177.287 28.5356 176.819 28.5356C176.351 28.5356 175.901 28.6436 175.469 28.8596C175.049 29.0636 174.653 29.3456 174.281 29.7056C173.921 30.0656 173.615 30.4796 173.363 30.9476C173.111 31.4156 172.937 31.9076 172.841 32.4236C172.757 32.8556 172.751 33.2516 172.823 33.6116C172.895 33.9596 173.075 34.2476 173.363 34.4756C173.663 34.6916 174.089 34.7996 174.641 34.7996C175.265 34.7996 175.799 34.7216 176.243 34.5656C176.699 34.3976 177.083 34.2056 177.395 33.9896C177.707 33.7736 177.971 33.5876 178.187 33.4316C178.403 33.2756 178.595 33.1976 178.763 33.1976C178.967 33.1976 179.111 33.2756 179.195 33.4316C179.291 33.5756 179.315 33.7676 179.267 34.0076C179.219 34.2476 179.057 34.4996 178.781 34.7636C178.517 35.0156 178.169 35.2556 177.737 35.4836C177.317 35.7116 176.849 35.8976 176.333 36.0416C175.829 36.1736 175.307 36.2396 174.767 36.2396ZM185.449 36.2756C184.465 36.2756 183.655 36.0596 183.019 35.6276C182.395 35.1956 181.963 34.6136 181.723 33.8816C181.495 33.1376 181.471 32.2916 181.651 31.3436C181.783 30.6716 182.011 30.0836 182.335 29.5796C182.671 29.0636 183.043 28.6316 183.451 28.2836C183.871 27.9356 184.291 27.6776 184.711 27.5096C185.131 27.3296 185.491 27.2396 185.791 27.2396C185.923 27.2396 186.031 27.2576 186.115 27.2936C186.211 27.3296 186.283 27.3896 186.331 27.4736C186.391 27.5456 186.409 27.6476 186.385 27.7796C186.325 28.0196 186.229 28.2416 186.097 28.4456C185.965 28.6376 185.719 28.8116 185.359 28.9676C184.927 29.1716 184.561 29.3996 184.261 29.6516C183.973 29.8916 183.739 30.1736 183.559 30.4976C183.379 30.8096 183.253 31.1876 183.181 31.6316C182.989 32.6036 183.103 33.3836 183.523 33.9716C183.943 34.5476 184.585 34.8356 185.449 34.8356C186.289 34.8356 187.021 34.5356 187.645 33.9356C188.281 33.3236 188.695 32.5136 188.887 31.5056C189.079 30.5816 189.019 29.8616 188.707 29.3456C188.395 28.8176 187.879 28.5536 187.159 28.5536C186.787 28.5536 186.469 28.6256 186.205 28.7696C185.953 28.9136 185.677 29.1056 185.377 29.3456C185.161 29.5256 184.987 29.6876 184.855 29.8316C184.723 29.9756 184.603 30.0896 184.495 30.1736C184.399 30.2456 184.273 30.2816 184.117 30.2816C183.949 30.2816 183.817 30.2276 183.721 30.1196C183.637 29.9996 183.619 29.8136 183.667 29.5616C183.715 29.2856 183.853 29.0036 184.081 28.7156C184.321 28.4276 184.609 28.1636 184.945 27.9236C185.293 27.6716 185.665 27.4736 186.061 27.3296C186.457 27.1736 186.847 27.0956 187.231 27.0956C188.095 27.0956 188.797 27.2996 189.337 27.7076C189.877 28.1036 190.243 28.6556 190.435 29.3636C190.627 30.0596 190.627 30.8636 190.435 31.7756C190.267 32.6756 189.943 33.4676 189.463 34.1516C188.983 34.8236 188.395 35.3456 187.699 35.7176C187.015 36.0896 186.265 36.2756 185.449 36.2756ZM55.9339 52.2756C54.9499 52.2756 54.1399 52.0596 53.5039 51.6276C52.8799 51.1956 52.4479 50.6136 52.2079 49.8816C51.9799 49.1376 51.9559 48.2916 52.1359 47.3436C52.2679 46.6716 52.4959 46.0836 52.8199 45.5796C53.1559 45.0636 53.5279 44.6316 53.9359 44.2836C54.3559 43.9356 54.7759 43.6776 55.1959 43.5096C55.6159 43.3296 55.9759 43.2396 56.2759 43.2396C56.4079 43.2396 56.5159 43.2576 56.5999 43.2936C56.6959 43.3296 56.7679 43.3896 56.8159 43.4736C56.8759 43.5456 56.8939 43.6476 56.8699 43.7796C56.8099 44.0196 56.7139 44.2416 56.5819 44.4456C56.4499 44.6376 56.2039 44.8116 55.8439 44.9676C55.4119 45.1716 55.0459 45.3996 54.7459 45.6516C54.4579 45.8916 54.2239 46.1736 54.0439 46.4976C53.8639 46.8096 53.7379 47.1876 53.6659 47.6316C53.4739 48.6036 53.5879 49.3836 54.0079 49.9716C54.4279 50.5476 55.0699 50.8356 55.9339 50.8356C56.7739 50.8356 57.5059 50.5356 58.1299 49.9356C58.7659 49.3236 59.1799 48.5136 59.3719 47.5056C59.5639 46.5816 59.5039 45.8616 59.1919 45.3456C58.8799 44.8176 58.3639 44.5536 57.6439 44.5536C57.2719 44.5536 56.9539 44.6256 56.6899 44.7696C56.4379 44.9136 56.1619 45.1056 55.8619 45.3456C55.6459 45.5256 55.4719 45.6876 55.3399 45.8316C55.2079 45.9756 55.0879 46.0896 54.9799 46.1736C54.8839 46.2456 54.7579 46.2816 54.6019 46.2816C54.4339 46.2816 54.3019 46.2276 54.2059 46.1196C54.1219 45.9996 54.1039 45.8136 54.1519 45.5616C54.1999 45.2856 54.3379 45.0036 54.5659 44.7156C54.8059 44.4276 55.0939 44.1636 55.4299 43.9236C55.7779 43.6716 56.1499 43.4736 56.5459 43.3296C56.9419 43.1736 57.3319 43.0956 57.7159 43.0956C58.5799 43.0956 59.2819 43.2996 59.8219 43.7076C60.3619 44.1036 60.7279 44.6556 60.9199 45.3636C61.1119 46.0596 61.1119 46.8636 60.9199 47.7756C60.7519 48.6756 60.4279 49.4676 59.9479 50.1516C59.4679 50.8236 58.8799 51.3456 58.1839 51.7176C57.4999 52.0896 56.7499 52.2756 55.9339 52.2756ZM66.5267 52.2576C65.8907 52.2576 65.3507 52.1496 64.9067 51.9336C64.4627 51.7056 64.1087 51.3936 63.8447 50.9976C63.5807 50.5896 63.3947 50.1096 63.2867 49.5576C63.1787 49.0056 63.1427 48.3996 63.1787 47.7396C63.2147 47.0676 63.3047 46.3656 63.4487 45.6336C63.6047 44.8056 63.8327 44.0616 64.1327 43.4016C64.4327 42.7296 64.7687 42.1476 65.1407 41.6556C65.5247 41.1516 65.9267 40.7376 66.3467 40.4136C66.7667 40.0896 67.1867 39.8496 67.6067 39.6936C67.9787 39.5616 68.3567 39.4596 68.7407 39.3876C69.1247 39.3036 69.4967 39.2316 69.8567 39.1716C70.2167 39.1116 70.5467 39.0516 70.8467 38.9916C71.3747 38.8836 71.8247 38.7636 72.1967 38.6316C72.5687 38.4996 72.8507 38.4336 73.0427 38.4336C73.1867 38.4336 73.3187 38.4696 73.4387 38.5416C73.5707 38.6136 73.6667 38.7156 73.7267 38.8476C73.7867 38.9676 73.7987 39.1116 73.7627 39.2796C73.7267 39.4836 73.6007 39.6576 73.3847 39.8016C73.1687 39.9336 72.8987 40.0416 72.5747 40.1256C71.9267 40.3056 71.3327 40.4316 70.7927 40.5036C70.2647 40.5636 69.7787 40.6236 69.3347 40.6836C68.8907 40.7316 68.4587 40.8456 68.0387 41.0256C67.6307 41.1816 67.2287 41.4636 66.8327 41.8716C66.4487 42.2676 66.1007 42.7656 65.7887 43.3656C65.4887 43.9536 65.2667 44.6196 65.1227 45.3636C64.8707 46.6476 64.7567 47.6916 64.7807 48.4956C64.8167 49.2876 64.9967 49.8696 65.3207 50.2416C65.6567 50.6136 66.1247 50.7996 66.7247 50.7996C67.1327 50.7996 67.5467 50.6976 67.9667 50.4936C68.3867 50.2776 68.7767 49.9956 69.1367 49.6476C69.5087 49.2996 69.8207 48.9216 70.0727 48.5136C70.3367 48.0936 70.5047 47.6856 70.5767 47.2896C70.6727 46.8576 70.6667 46.4916 70.5587 46.1916C70.4627 45.8796 70.2707 45.6456 69.9827 45.4896C69.6947 45.3216 69.3107 45.2376 68.8307 45.2376C68.1947 45.2376 67.4807 45.4176 66.6887 45.7776C65.9087 46.1376 65.1227 46.6836 64.3307 47.4156L63.7547 46.7316C64.2467 46.0476 64.8047 45.4896 65.4287 45.0576C66.0527 44.6136 66.7007 44.2896 67.3727 44.0856C68.0447 43.8696 68.6807 43.7616 69.2807 43.7616C70.0127 43.7616 70.6247 43.8996 71.1167 44.1756C71.6087 44.4396 71.9567 44.8236 72.1607 45.3276C72.3647 45.8316 72.3827 46.4556 72.2147 47.1996C72.0827 47.8236 71.8367 48.4356 71.4767 49.0356C71.1287 49.6236 70.6967 50.1636 70.1807 50.6556C69.6647 51.1356 69.0947 51.5256 68.4707 51.8256C67.8467 52.1136 67.1987 52.2576 66.5267 52.2576ZM84.1292 52.2756C83.1452 52.2756 82.3352 52.0596 81.6992 51.6276C81.0752 51.1956 80.6432 50.6136 80.4032 49.8816C80.1752 49.1376 80.1512 48.2916 80.3312 47.3436C80.4632 46.6716 80.6912 46.0836 81.0152 45.5796C81.3512 45.0636 81.7232 44.6316 82.1312 44.2836C82.5512 43.9356 82.9712 43.6776 83.3912 43.5096C83.8112 43.3296 84.1712 43.2396 84.4712 43.2396C84.6032 43.2396 84.7112 43.2576 84.7952 43.2936C84.8912 43.3296 84.9632 43.3896 85.0112 43.4736C85.0712 43.5456 85.0892 43.6476 85.0652 43.7796C85.0052 44.0196 84.9092 44.2416 84.7772 44.4456C84.6452 44.6376 84.3992 44.8116 84.0392 44.9676C83.6072 45.1716 83.2412 45.3996 82.9412 45.6516C82.6532 45.8916 82.4192 46.1736 82.2392 46.4976C82.0592 46.8096 81.9332 47.1876 81.8612 47.6316C81.6692 48.6036 81.7832 49.3836 82.2032 49.9716C82.6232 50.5476 83.2652 50.8356 84.1292 50.8356C84.9692 50.8356 85.7012 50.5356 86.3252 49.9356C86.9612 49.3236 87.3752 48.5136 87.5672 47.5056C87.7592 46.5816 87.6992 45.8616 87.3872 45.3456C87.0752 44.8176 86.5592 44.5536 85.8392 44.5536C85.4672 44.5536 85.1492 44.6256 84.8852 44.7696C84.6332 44.9136 84.3572 45.1056 84.0572 45.3456C83.8412 45.5256 83.6672 45.6876 83.5352 45.8316C83.4032 45.9756 83.2832 46.0896 83.1752 46.1736C83.0792 46.2456 82.9532 46.2816 82.7972 46.2816C82.6292 46.2816 82.4972 46.2276 82.4012 46.1196C82.3172 45.9996 82.2992 45.8136 82.3472 45.5616C82.3952 45.2856 82.5332 45.0036 82.7612 44.7156C83.0012 44.4276 83.2892 44.1636 83.6252 43.9236C83.9732 43.6716 84.3452 43.4736 84.7412 43.3296C85.1372 43.1736 85.5272 43.0956 85.9112 43.0956C86.7752 43.0956 87.4772 43.2996 88.0172 43.7076C88.5572 44.1036 88.9232 44.6556 89.1152 45.3636C89.3072 46.0596 89.3072 46.8636 89.1152 47.7756C88.9472 48.6756 88.6232 49.4676 88.1432 50.1516C87.6632 50.8236 87.0752 51.3456 86.3792 51.7176C85.6952 52.0896 84.9452 52.2756 84.1292 52.2756ZM94.7221 52.2576C94.0861 52.2576 93.5461 52.1496 93.1021 51.9336C92.6581 51.7056 92.3041 51.3936 92.0401 50.9976C91.7761 50.5896 91.5901 50.1096 91.4821 49.5576C91.3741 49.0056 91.3381 48.3996 91.3741 47.7396C91.4101 47.0676 91.5001 46.3656 91.6441 45.6336C91.8001 44.8056 92.0281 44.0616 92.3281 43.4016C92.6281 42.7296 92.9641 42.1476 93.3361 41.6556C93.7201 41.1516 94.1221 40.7376 94.5421 40.4136C94.9621 40.0896 95.3821 39.8496 95.8021 39.6936C96.1741 39.5616 96.5521 39.4596 96.9361 39.3876C97.3201 39.3036 97.6921 39.2316 98.0521 39.1716C98.4121 39.1116 98.7421 39.0516 99.0421 38.9916C99.5701 38.8836 100.02 38.7636 100.392 38.6316C100.764 38.4996 101.046 38.4336 101.238 38.4336C101.382 38.4336 101.514 38.4696 101.634 38.5416C101.766 38.6136 101.862 38.7156 101.922 38.8476C101.982 38.9676 101.994 39.1116 101.958 39.2796C101.922 39.4836 101.796 39.6576 101.58 39.8016C101.364 39.9336 101.094 40.0416 100.77 40.1256C100.122 40.3056 99.5281 40.4316 98.9881 40.5036C98.4601 40.5636 97.9741 40.6236 97.5301 40.6836C97.0861 40.7316 96.6541 40.8456 96.2341 41.0256C95.8261 41.1816 95.4241 41.4636 95.0281 41.8716C94.6441 42.2676 94.2961 42.7656 93.9841 43.3656C93.6841 43.9536 93.4621 44.6196 93.3181 45.3636C93.0661 46.6476 92.9521 47.6916 92.9761 48.4956C93.0121 49.2876 93.1921 49.8696 93.5161 50.2416C93.8521 50.6136 94.3201 50.7996 94.9201 50.7996C95.3281 50.7996 95.7421 50.6976 96.1621 50.4936C96.5821 50.2776 96.9721 49.9956 97.3321 49.6476C97.7041 49.2996 98.0161 48.9216 98.2681 48.5136C98.5321 48.0936 98.7001 47.6856 98.7721 47.2896C98.8681 46.8576 98.8621 46.4916 98.7541 46.1916C98.6581 45.8796 98.4661 45.6456 98.1781 45.4896C97.8901 45.3216 97.5061 45.2376 97.0261 45.2376C96.3901 45.2376 95.6761 45.4176 94.8841 45.7776C94.1041 46.1376 93.3181 46.6836 92.5261 47.4156L91.9501 46.7316C92.4421 46.0476 93.0001 45.4896 93.6241 45.0576C94.2481 44.6136 94.8961 44.2896 95.5681 44.0856C96.2401 43.8696 96.8761 43.7616 97.4761 43.7616C98.2081 43.7616 98.8201 43.8996 99.3121 44.1756C99.8041 44.4396 100.152 44.8236 100.356 45.3276C100.56 45.8316 100.578 46.4556 100.41 47.1996C100.278 47.8236 100.032 48.4356 99.6721 49.0356C99.3241 49.6236 98.8921 50.1636 98.3761 50.6556C97.8601 51.1356 97.2901 51.5256 96.6661 51.8256C96.0421 52.1136 95.3941 52.2576 94.7221 52.2576ZM104.769 56.7576C104.037 56.7576 103.419 56.6856 102.915 56.5416C102.411 56.4096 102.045 56.2236 101.817 55.9836C101.589 55.7436 101.505 55.4856 101.565 55.2096C101.649 54.7896 101.907 54.5796 102.339 54.5796C102.483 54.5796 102.615 54.6096 102.735 54.6696C102.855 54.7296 102.993 54.7956 103.149 54.8676C103.305 54.9516 103.521 55.0236 103.797 55.0836C104.085 55.1436 104.463 55.1736 104.931 55.1736C105.507 55.1736 105.987 55.0476 106.371 54.7956C106.755 54.5436 107.061 54.1896 107.289 53.7336C107.529 53.2776 107.709 52.7496 107.829 52.1496C107.901 51.8016 107.949 51.4596 107.973 51.1236C108.009 50.7876 108.045 50.4276 108.081 50.0436C108.117 49.6596 108.165 49.2156 108.225 48.7116C108.285 48.1956 108.381 47.5896 108.513 46.8936L109.071 47.4156C108.687 48.2436 108.303 48.9216 107.919 49.4496C107.535 49.9656 107.163 50.3676 106.803 50.6556C106.443 50.9316 106.101 51.1236 105.777 51.2316C105.465 51.3276 105.183 51.3756 104.931 51.3756C103.887 51.3756 103.161 50.9436 102.753 50.0796C102.345 49.2036 102.333 47.8056 102.717 45.8856C102.873 45.0816 103.029 44.4756 103.185 44.0676C103.353 43.6596 103.527 43.3836 103.707 43.2396C103.887 43.0956 104.073 43.0236 104.265 43.0236C104.553 43.0236 104.739 43.1256 104.823 43.3296C104.907 43.5336 104.877 43.8996 104.733 44.4276C104.541 45.1836 104.391 45.8916 104.283 46.5516C104.175 47.1996 104.127 47.7696 104.139 48.2616C104.151 48.7536 104.229 49.1376 104.373 49.4136C104.517 49.6776 104.751 49.8096 105.075 49.8096C105.579 49.8096 106.071 49.5516 106.551 49.0356C107.031 48.5076 107.481 47.7996 107.901 46.9116C108.333 46.0116 108.723 45.0036 109.071 43.8876C109.179 43.5516 109.287 43.3296 109.395 43.2216C109.503 43.1016 109.671 43.0416 109.899 43.0416C110.067 43.0416 110.217 43.0956 110.349 43.2036C110.493 43.3116 110.577 43.5036 110.601 43.7796C110.637 44.0436 110.583 44.4036 110.439 44.8596C110.259 45.4716 110.121 46.0176 110.025 46.4976C109.941 46.9776 109.881 47.4396 109.845 47.8836C109.809 48.3156 109.779 48.7596 109.755 49.2156C109.743 49.6596 109.707 50.1516 109.647 50.6916C109.587 51.2196 109.491 51.8316 109.359 52.5276C109.143 53.6076 108.807 54.4536 108.351 55.0656C107.907 55.6896 107.379 56.1276 106.767 56.3796C106.155 56.6316 105.489 56.7576 104.769 56.7576ZM114.355 49.3596C113.899 49.3596 113.521 49.2576 113.221 49.0536C112.921 48.8496 112.699 48.5676 112.555 48.2076C112.423 47.8476 112.369 47.4456 112.393 47.0016C112.405 46.5456 112.477 46.0836 112.609 45.6156C112.741 45.1476 112.909 44.7156 113.113 44.3196C113.329 43.9236 113.563 43.5996 113.815 43.3476C114.067 43.0956 114.319 42.9696 114.571 42.9696C114.691 42.9696 114.793 42.9936 114.877 43.0416C114.973 43.0896 115.045 43.1616 115.093 43.2576C115.141 43.3416 115.159 43.4496 115.147 43.5816C115.135 43.6896 115.075 43.8576 114.967 44.0856C114.871 44.3016 114.751 44.5596 114.607 44.8596C114.463 45.1476 114.337 45.4596 114.229 45.7956C114.121 46.1196 114.061 46.4496 114.049 46.7856C114.049 47.0016 114.067 47.1876 114.103 47.3436C114.139 47.4876 114.205 47.5956 114.301 47.6676C114.409 47.7396 114.547 47.7756 114.715 47.7756C115.099 47.7756 115.495 47.6796 115.903 47.4876C116.311 47.2956 116.701 47.0316 117.073 46.6956C117.457 46.3596 117.799 45.9936 118.099 45.5976C118.399 45.1896 118.633 44.7816 118.801 44.3736L118.945 46.2276C118.525 46.8276 118.063 47.3676 117.559 47.8476C117.067 48.3276 116.545 48.6996 115.993 48.9636C115.453 49.2276 114.907 49.3596 114.355 49.3596ZM118.189 52.2936C117.925 52.2936 117.739 52.1916 117.631 51.9876C117.523 51.7716 117.445 51.5136 117.397 51.2136C117.373 50.9856 117.367 50.6976 117.379 50.3496C117.403 49.9896 117.445 49.6056 117.505 49.1976C117.565 48.7896 117.637 48.3996 117.721 48.0276C117.781 47.7516 117.859 47.4396 117.955 47.0916C118.051 46.7316 118.153 46.3716 118.261 46.0116C118.369 45.6516 118.477 45.3156 118.585 45.0036C118.693 44.6796 118.777 44.4216 118.837 44.2296C118.957 43.8456 119.089 43.5456 119.233 43.3296C119.389 43.1136 119.575 43.0056 119.791 43.0056C119.995 43.0056 120.169 43.1316 120.313 43.3836C120.457 43.6356 120.487 43.9536 120.403 44.3376C120.355 44.6016 120.253 44.9616 120.097 45.4176C119.941 45.8616 119.785 46.3236 119.629 46.8036C119.485 47.2716 119.377 47.6796 119.305 48.0276C119.185 48.5916 119.101 49.0836 119.053 49.5036C119.005 49.9236 118.981 50.2956 118.981 50.6196C118.969 50.8596 118.969 51.0576 118.981 51.2136C118.993 51.3696 118.987 51.5076 118.963 51.6276C118.927 51.7956 118.843 51.9456 118.711 52.0776C118.591 52.2216 118.417 52.2936 118.189 52.2936ZM125.354 52.2396C124.61 52.2396 123.986 52.1376 123.482 51.9336C122.99 51.7176 122.612 51.4236 122.348 51.0516C122.084 50.6676 121.916 50.2236 121.844 49.7196C121.784 49.2156 121.814 48.6636 121.934 48.0636C122.066 47.4756 122.294 46.8876 122.618 46.2996C122.954 45.6996 123.368 45.1536 123.86 44.6616C124.364 44.1696 124.922 43.7796 125.534 43.4916C126.158 43.1916 126.812 43.0416 127.496 43.0416C128.132 43.0416 128.654 43.1436 129.062 43.3476C129.482 43.5516 129.77 43.8516 129.926 44.2476C130.094 44.6436 130.118 45.1416 129.998 45.7416C129.902 46.2336 129.704 46.6716 129.404 47.0556C129.116 47.4276 128.75 47.7456 128.306 48.0096C127.874 48.2616 127.388 48.4596 126.848 48.6036C126.32 48.7356 125.756 48.8016 125.156 48.8016C124.34 48.8016 123.794 48.7056 123.518 48.5136C123.254 48.3216 123.146 48.1056 123.194 47.8656C123.218 47.7216 123.272 47.6196 123.356 47.5596C123.44 47.4876 123.572 47.4516 123.752 47.4516C123.884 47.4516 124.04 47.4756 124.22 47.5236C124.412 47.5596 124.694 47.5776 125.066 47.5776C125.666 47.5776 126.206 47.4936 126.686 47.3256C127.178 47.1576 127.58 46.9296 127.892 46.6416C128.204 46.3416 128.402 45.9996 128.486 45.6156C128.558 45.2556 128.51 44.9856 128.342 44.8056C128.186 44.6256 127.874 44.5356 127.406 44.5356C126.938 44.5356 126.488 44.6436 126.056 44.8596C125.636 45.0636 125.24 45.3456 124.868 45.7056C124.508 46.0656 124.202 46.4796 123.95 46.9476C123.698 47.4156 123.524 47.9076 123.428 48.4236C123.344 48.8556 123.338 49.2516 123.41 49.6116C123.482 49.9596 123.662 50.2476 123.95 50.4756C124.25 50.6916 124.676 50.7996 125.228 50.7996C125.852 50.7996 126.386 50.7216 126.83 50.5656C127.286 50.3976 127.67 50.2056 127.982 49.9896C128.294 49.7736 128.558 49.5876 128.774 49.4316C128.99 49.2756 129.182 49.1976 129.35 49.1976C129.554 49.1976 129.698 49.2756 129.782 49.4316C129.878 49.5756 129.902 49.7676 129.854 50.0076C129.806 50.2476 129.644 50.4996 129.368 50.7636C129.104 51.0156 128.756 51.2556 128.324 51.4836C127.904 51.7116 127.436 51.8976 126.92 52.0416C126.416 52.1736 125.894 52.2396 125.354 52.2396ZM132.833 52.2576C132.401 52.2576 132.113 51.9816 131.969 51.4296C131.825 50.8776 131.843 50.1456 132.023 49.2336C132.167 48.5976 132.329 48.1176 132.509 47.7936C132.701 47.4576 132.917 47.2296 133.157 47.1096C133.289 47.0376 133.475 46.9956 133.715 46.9836C133.955 46.9596 134.207 46.9476 134.471 46.9476C135.347 46.9476 136.211 46.9056 137.063 46.8216C137.927 46.7256 138.773 46.5456 139.601 46.2816L139.925 47.5236C139.301 47.7636 138.629 47.9436 137.909 48.0636C137.189 48.1836 136.457 48.2676 135.713 48.3156C134.981 48.3516 134.267 48.3696 133.571 48.3696L132.527 48.2076C132.683 47.4996 132.845 46.7556 133.013 45.9756C133.181 45.1956 133.325 44.4996 133.445 43.8876C133.493 43.5996 133.589 43.3656 133.733 43.1856C133.877 43.0056 134.039 42.9156 134.219 42.9156C134.519 42.9156 134.741 43.0356 134.885 43.2756C135.029 43.5036 135.047 43.8696 134.939 44.3736C134.891 44.6376 134.819 44.9556 134.723 45.3276C134.627 45.6996 134.525 46.0896 134.417 46.4976C134.321 46.9056 134.225 47.2956 134.129 47.6676C134.045 48.0276 133.979 48.3276 133.931 48.5676C133.787 49.2636 133.679 49.8876 133.607 50.4396C133.547 50.9796 133.493 51.3876 133.445 51.6636C133.409 51.8316 133.331 51.9696 133.211 52.0776C133.103 52.1976 132.977 52.2576 132.833 52.2576ZM139.043 52.2576C138.743 52.2576 138.527 52.0836 138.395 51.7356C138.275 51.3876 138.221 50.9136 138.233 50.3136C138.257 49.7016 138.341 49.0296 138.485 48.2976C138.725 47.1456 138.935 46.2336 139.115 45.5616C139.307 44.8776 139.481 44.3376 139.637 43.9416C139.733 43.6776 139.853 43.4436 139.997 43.2396C140.141 43.0356 140.315 42.9336 140.519 42.9336C140.783 42.9336 140.969 43.0596 141.077 43.3116C141.197 43.5516 141.221 43.8456 141.149 44.1936C141.065 44.6256 140.933 45.0936 140.753 45.5976C140.585 46.1016 140.447 46.6476 140.339 47.2356C140.195 47.9556 140.093 48.6096 140.033 49.1976C139.985 49.7736 139.955 50.2596 139.943 50.6556C139.931 51.0516 139.901 51.3456 139.853 51.5376C139.817 51.7536 139.721 51.9276 139.565 52.0596C139.409 52.1916 139.235 52.2576 139.043 52.2576ZM144.315 52.2576C143.907 52.2576 143.583 52.1616 143.343 51.9696C143.115 51.7776 142.947 51.5256 142.839 51.2136C142.731 50.8896 142.677 50.5416 142.677 50.1696C142.689 49.7856 142.731 49.4136 142.803 49.0536C142.875 48.7416 142.971 48.3696 143.091 47.9376C143.223 47.5056 143.367 47.0556 143.523 46.5876C143.679 46.1196 143.829 45.6816 143.973 45.2736C144.129 44.8656 144.255 44.5476 144.351 44.3196C144.507 43.8996 144.645 43.5756 144.765 43.3476C144.897 43.1196 145.053 43.0056 145.233 43.0056C145.389 43.0056 145.533 43.0596 145.665 43.1676C145.797 43.2756 145.893 43.4136 145.953 43.5816C146.025 43.7496 146.043 43.9356 146.007 44.1396C145.971 44.3316 145.887 44.6076 145.755 44.9676C145.623 45.3276 145.473 45.7296 145.305 46.1736C145.137 46.6176 144.975 47.0676 144.819 47.5236C144.663 47.9676 144.549 48.3696 144.477 48.7296C144.405 49.0536 144.357 49.3656 144.333 49.6656C144.309 49.9536 144.321 50.1936 144.369 50.3856C144.417 50.5656 144.519 50.6556 144.675 50.6556C145.059 50.6556 145.545 50.3136 146.133 49.6296C146.733 48.9456 147.399 48.0036 148.131 46.8036C148.467 46.2756 148.761 45.7836 149.013 45.3276C149.265 44.8716 149.487 44.4756 149.679 44.1396C149.871 43.7916 150.057 43.5216 150.237 43.3296C150.417 43.1376 150.597 43.0416 150.777 43.0416C151.053 43.0416 151.251 43.1496 151.371 43.3656C151.503 43.5696 151.563 43.8456 151.551 44.1936C151.551 44.5056 151.539 44.8896 151.515 45.3456C151.503 45.8016 151.491 46.2696 151.479 46.7496C151.467 47.2176 151.467 47.6556 151.479 48.0636C151.515 48.7596 151.581 49.3296 151.677 49.7736C151.785 50.2056 151.881 50.5536 151.965 50.8176C152.049 51.0816 152.085 51.2976 152.073 51.4656C152.061 51.5976 152.019 51.7236 151.947 51.8436C151.875 51.9516 151.785 52.0416 151.677 52.1136C151.569 52.1856 151.449 52.2216 151.317 52.2216C150.897 52.2216 150.597 51.9456 150.417 51.3936C150.237 50.8416 150.099 50.1036 150.003 49.1796C149.979 48.7476 149.955 48.2856 149.931 47.7936C149.919 47.3016 149.919 46.8096 149.931 46.3176C149.955 45.8256 149.979 45.3696 150.003 44.9496L150.525 45.1296C150.321 45.5496 150.081 46.0116 149.805 46.5156C149.529 47.0196 149.151 47.6616 148.671 48.4416C148.263 49.0896 147.819 49.7076 147.339 50.2956C146.859 50.8716 146.361 51.3456 145.845 51.7176C145.341 52.0776 144.831 52.2576 144.315 52.2576ZM155.899 52.2576C155.491 52.2576 155.167 52.1616 154.927 51.9696C154.699 51.7776 154.531 51.5256 154.423 51.2136C154.315 50.8896 154.261 50.5416 154.261 50.1696C154.273 49.7856 154.315 49.4136 154.387 49.0536C154.459 48.7416 154.555 48.3696 154.675 47.9376C154.807 47.5056 154.951 47.0556 155.107 46.5876C155.263 46.1196 155.413 45.6816 155.557 45.2736C155.713 44.8656 155.839 44.5476 155.935 44.3196C156.091 43.8996 156.229 43.5756 156.349 43.3476C156.481 43.1196 156.637 43.0056 156.817 43.0056C156.973 43.0056 157.117 43.0596 157.249 43.1676C157.381 43.2756 157.477 43.4136 157.537 43.5816C157.609 43.7496 157.627 43.9356 157.591 44.1396C157.555 44.3316 157.471 44.6076 157.339 44.9676C157.207 45.3276 157.057 45.7296 156.889 46.1736C156.721 46.6176 156.559 47.0676 156.403 47.5236C156.247 47.9676 156.133 48.3696 156.061 48.7296C155.989 49.0536 155.941 49.3656 155.917 49.6656C155.893 49.9536 155.905 50.1936 155.953 50.3856C156.001 50.5656 156.103 50.6556 156.259 50.6556C156.643 50.6556 157.129 50.3136 157.717 49.6296C158.317 48.9456 158.983 48.0036 159.715 46.8036C160.051 46.2756 160.345 45.7836 160.597 45.3276C160.849 44.8716 161.071 44.4756 161.263 44.1396C161.455 43.7916 161.641 43.5216 161.821 43.3296C162.001 43.1376 162.181 43.0416 162.361 43.0416C162.637 43.0416 162.835 43.1496 162.955 43.3656C163.087 43.5696 163.147 43.8456 163.135 44.1936C163.135 44.5056 163.123 44.8896 163.099 45.3456C163.087 45.8016 163.075 46.2696 163.063 46.7496C163.051 47.2176 163.051 47.6556 163.063 48.0636C163.099 48.7596 163.165 49.3296 163.261 49.7736C163.369 50.2056 163.465 50.5536 163.549 50.8176C163.633 51.0816 163.669 51.2976 163.657 51.4656C163.645 51.5976 163.603 51.7236 163.531 51.8436C163.459 51.9516 163.369 52.0416 163.261 52.1136C163.153 52.1856 163.033 52.2216 162.901 52.2216C162.625 52.2216 162.397 52.0956 162.217 51.8436C162.049 51.5916 161.917 51.2376 161.821 50.7816C161.725 50.3256 161.647 49.7916 161.587 49.1796C161.563 48.7476 161.539 48.2856 161.515 47.7936C161.503 47.3016 161.503 46.8096 161.515 46.3176C161.539 45.8256 161.563 45.3696 161.587 44.9496L162.109 45.1296C161.965 45.4056 161.809 45.6996 161.641 46.0116C161.485 46.3236 161.293 46.6776 161.065 47.0736C160.849 47.4576 160.579 47.9136 160.255 48.4416C159.847 49.0896 159.403 49.7076 158.923 50.2956C158.443 50.8716 157.945 51.3456 157.429 51.7176C156.925 52.0776 156.415 52.2576 155.899 52.2576ZM54.4759 68.3476C53.8639 68.3476 53.3659 68.2216 52.9819 67.9696C52.6099 67.7176 52.3339 67.3936 52.1539 66.9976C51.9859 66.5896 51.8899 66.1516 51.8659 65.6836C51.8539 65.2036 51.8899 64.7356 51.9739 64.2796C52.0819 63.7756 52.2379 63.2296 52.4419 62.6416C52.6579 62.0536 52.8979 61.4896 53.1619 60.9496C53.4259 60.3976 53.6899 59.9416 53.9539 59.5816C54.0619 59.4256 54.1819 59.2996 54.3139 59.2036C54.4579 59.1076 54.6079 59.0416 54.7639 59.0056C54.9199 58.9576 55.0759 58.9336 55.2319 58.9336C55.3759 58.9336 55.4779 58.9816 55.5379 59.0776C55.5979 59.1616 55.6099 59.2816 55.5739 59.4376C55.5379 59.6176 55.4359 59.8456 55.2679 60.1216C55.1119 60.3976 54.9199 60.7336 54.6919 61.1296C54.4759 61.5256 54.2599 61.9996 54.0439 62.5516C53.8279 63.0916 53.6479 63.7276 53.5039 64.4596C53.3479 65.2276 53.3659 65.8396 53.5579 66.2956C53.7499 66.7516 54.1519 66.9796 54.7639 66.9796C55.2199 66.9796 55.6759 66.8596 56.1319 66.6196C56.5879 66.3796 56.9899 66.0556 57.3379 65.6476C57.6979 65.2276 57.9379 64.7596 58.0579 64.2436L58.2559 64.5856C57.9559 64.4656 57.5959 64.3756 57.1759 64.3156C56.7679 64.2436 56.3299 64.1956 55.8619 64.1716C55.4059 64.1356 54.9559 64.1296 54.5119 64.1536C54.0679 64.1656 53.6719 64.2016 53.3239 64.2616L53.5579 63.0736C54.1819 63.0616 54.7699 62.9896 55.3219 62.8576C55.8859 62.7136 56.3839 62.5276 56.8159 62.2996C57.2599 62.0716 57.6199 61.8316 57.8959 61.5796C58.1719 61.3156 58.3279 61.0696 58.3639 60.8416C58.3999 60.6736 58.3579 60.5416 58.2379 60.4456C58.1179 60.3376 57.9259 60.2836 57.6619 60.2836C57.3379 60.2836 56.9959 60.3316 56.6359 60.4276C56.2879 60.5236 55.9159 60.6436 55.5199 60.7876C55.1239 60.9316 54.7039 61.0816 54.2599 61.2376C54.0799 61.2856 53.9299 61.2616 53.8099 61.1656C53.7019 61.0696 53.6659 60.9496 53.7019 60.8056C53.7379 60.6376 53.8519 60.4816 54.0439 60.3376C54.2479 60.1816 54.4399 60.0676 54.6199 59.9956C55.3519 59.6116 56.0299 59.3476 56.6539 59.2036C57.2899 59.0476 57.8779 58.9696 58.4179 58.9696C58.8499 58.9696 59.2039 59.0356 59.4799 59.1676C59.7679 59.2996 59.9719 59.4796 60.0919 59.7076C60.2239 59.9356 60.2599 60.1936 60.1999 60.4816C60.1279 60.8656 59.9479 61.2316 59.6599 61.5796C59.3719 61.9276 59.0059 62.2516 58.5619 62.5516C58.1299 62.8396 57.6559 63.0856 57.1399 63.2896C56.6239 63.4936 56.0839 63.6436 55.5199 63.7396L55.6099 63.0556C56.1739 63.0316 56.6959 63.0316 57.1759 63.0556C57.6679 63.0796 58.0999 63.1336 58.4719 63.2176C58.8439 63.3016 59.1259 63.4396 59.3179 63.6316C59.5219 63.8116 59.6179 64.0516 59.6059 64.3516C59.5819 64.8316 59.4139 65.3116 59.1019 65.7916C58.8019 66.2596 58.3999 66.6856 57.8959 67.0696C57.4039 67.4536 56.8579 67.7656 56.2579 68.0056C55.6699 68.2336 55.0759 68.3476 54.4759 68.3476ZM70.6052 68.2216C69.2372 68.2216 68.2592 68.0656 67.6712 67.7536C67.0832 67.4416 66.8312 67.0816 66.9152 66.6736C66.9392 66.4936 67.0112 66.3556 67.1312 66.2596C67.2512 66.1636 67.4132 66.1156 67.6172 66.1156C67.7852 66.1156 67.9412 66.1456 68.0852 66.2056C68.2412 66.2536 68.4212 66.3136 68.6252 66.3856C68.8412 66.4456 69.1112 66.5056 69.4352 66.5656C69.7592 66.6136 70.1732 66.6376 70.6772 66.6376C71.1692 66.6376 71.6132 66.6076 72.0092 66.5476C72.4052 66.4756 72.7532 66.3736 73.0532 66.2416C73.3532 66.0976 73.6052 65.9416 73.8092 65.7736C73.8092 65.4376 73.6652 65.1376 73.3772 64.8736C73.1012 64.6096 72.7412 64.3636 72.2972 64.1356C71.8652 63.9076 71.4092 63.6736 70.9292 63.4336C70.4492 63.1936 70.0052 62.9296 69.5972 62.6416C69.2012 62.3416 68.8952 61.9936 68.6792 61.5976C68.4752 61.2016 68.4272 60.7276 68.5352 60.1756C68.6552 59.5756 68.9372 59.0296 69.3812 58.5376C69.8372 58.0336 70.3772 57.5836 71.0012 57.1876C71.6372 56.7796 72.2972 56.4376 72.9812 56.1616C73.6772 55.8736 74.3432 55.6576 74.9792 55.5136C75.6272 55.3576 76.1732 55.2796 76.6172 55.2796C76.8332 55.2796 77.0072 55.3156 77.1392 55.3876C77.2712 55.4596 77.3552 55.5556 77.3912 55.6756C77.4392 55.7956 77.4452 55.9336 77.4092 56.0896C77.3732 56.2936 77.2772 56.4616 77.1212 56.5936C76.9652 56.7256 76.7252 56.8216 76.4012 56.8816C75.1772 57.1096 74.1152 57.4096 73.2152 57.7816C72.3152 58.1536 71.6012 58.5676 71.0732 59.0236C70.5572 59.4796 70.2512 59.9416 70.1552 60.4096C70.0952 60.7096 70.1912 60.9856 70.4432 61.2376C70.6952 61.4896 71.0372 61.7356 71.4692 61.9756C71.9132 62.2036 72.3812 62.4496 72.8732 62.7136C73.3652 62.9656 73.8212 63.2476 74.2412 63.5596C74.6612 63.8596 74.9852 64.2076 75.2132 64.6036C75.4532 64.9996 75.5192 65.4556 75.4112 65.9716C75.3272 66.3676 75.1412 66.7096 74.8532 66.9976C74.5772 67.2856 74.2232 67.5196 73.7912 67.6996C73.3592 67.8796 72.8672 68.0116 72.3152 68.0956C71.7752 68.1796 71.2052 68.2216 70.6052 68.2216ZM86.8381 68.2216C86.5741 68.2216 86.3821 68.1136 86.2621 67.8976C86.1421 67.6696 86.0341 67.2916 85.9381 66.7636C85.8541 66.3316 85.7881 65.7976 85.7401 65.1616C85.7041 64.5256 85.6861 63.8536 85.6861 63.1456C85.6981 62.4256 85.7281 61.7476 85.7761 61.1116C85.8481 60.3316 85.9021 59.6656 85.9381 59.1136C85.9861 58.5616 85.9981 58.1236 85.9741 57.7996C85.9621 57.4636 85.9081 57.2176 85.8121 57.0616C85.7161 56.9056 85.5601 56.8276 85.3441 56.8276C85.0201 56.8276 84.6061 57.0856 84.1021 57.6016C83.6101 58.1056 83.0701 58.8256 82.4821 59.7616C81.8941 60.6976 81.3001 61.8196 80.7001 63.1276C80.1001 64.4236 79.5361 65.8696 79.0081 67.4656C78.9241 67.7056 78.8161 67.8916 78.6841 68.0236C78.5521 68.1436 78.3961 68.2036 78.2161 68.2036C77.9401 68.2036 77.7421 68.1136 77.6221 67.9336C77.5021 67.7416 77.4901 67.4056 77.5861 66.9256C77.7301 66.2296 77.9341 65.5396 78.1981 64.8556C78.4741 64.1596 78.7741 63.4636 79.0981 62.7676C79.4221 62.0596 79.7281 61.3516 80.0161 60.6436C80.3161 59.9356 80.5621 59.2276 80.7541 58.5196C80.8021 58.3036 80.8801 58.1356 80.9881 58.0156C81.1081 57.8836 81.2521 57.8176 81.4201 57.8176C81.5881 57.8176 81.7381 57.8656 81.8701 57.9616C82.0141 58.0576 82.1281 58.2076 82.2121 58.4116L81.5281 58.6096C82.2841 57.4816 82.9741 56.6476 83.5981 56.1076C84.2341 55.5676 84.8701 55.2976 85.5061 55.2976C86.2021 55.2976 86.6941 55.5016 86.9821 55.9096C87.2701 56.3176 87.4261 56.9416 87.4501 57.7816C87.4741 58.6216 87.4261 59.7136 87.3061 61.0576C87.2101 62.0536 87.1801 62.9116 87.2161 63.6316C87.2521 64.3516 87.3001 64.9636 87.3601 65.4676C87.4321 65.9716 87.4921 66.3916 87.5401 66.7276C87.5881 67.0636 87.5881 67.3576 87.5401 67.6096C87.5041 67.8016 87.4201 67.9516 87.2881 68.0596C87.1681 68.1676 87.0181 68.2216 86.8381 68.2216ZM77.9101 64.6936C77.6461 64.6936 77.4601 64.6336 77.3521 64.5136C77.2441 64.3936 77.2141 64.2436 77.2621 64.0636C77.2861 63.9076 77.3521 63.7816 77.4601 63.6856C77.5801 63.5776 77.7661 63.4816 78.0181 63.3976C79.4101 62.9056 80.9641 62.5456 82.6801 62.3176C84.4081 62.0896 86.2501 61.9756 88.2061 61.9756C88.6261 61.9756 88.8961 62.0356 89.0161 62.1556C89.1481 62.2756 89.1901 62.4496 89.1421 62.6776C89.0941 62.9176 88.9381 63.1216 88.6741 63.2896C88.4101 63.4456 88.0621 63.5236 87.6301 63.5236C86.2501 63.5236 85.0801 63.5656 84.1201 63.6496C83.1721 63.7216 82.3741 63.8176 81.7261 63.9376C81.0781 64.0456 80.5261 64.1596 80.0701 64.2796C79.6261 64.3996 79.2361 64.5016 78.9001 64.5856C78.5761 64.6576 78.2461 64.6936 77.9101 64.6936ZM91.5564 68.3116C91.2324 68.3116 91.0284 68.1736 90.9444 67.8976C90.8604 67.6216 90.9444 67.1836 91.1964 66.5836C91.5444 65.7436 91.9764 64.8496 92.4924 63.9016C93.0084 62.9416 93.5964 61.9876 94.2564 61.0396C94.9284 60.0796 95.6544 59.1496 96.4344 58.2496C97.2144 57.3496 98.0364 56.5336 98.9004 55.8016C99.1884 55.5616 99.4164 55.4056 99.5844 55.3336C99.7644 55.2616 99.9264 55.2256 100.07 55.2256C100.262 55.2256 100.412 55.2916 100.52 55.4236C100.628 55.5556 100.664 55.7416 100.628 55.9816C100.604 56.1376 100.562 56.2756 100.502 56.3956C100.442 56.5156 100.34 56.6476 100.196 56.7916C100.052 56.9236 99.8484 57.1036 99.5844 57.3316C98.6004 58.1716 97.6764 59.1196 96.8124 60.1756C95.9484 61.2316 95.1684 62.3536 94.4724 63.5416C93.7764 64.7176 93.1884 65.9296 92.7084 67.1776C92.5284 67.6336 92.3544 67.9336 92.1864 68.0776C92.0184 68.2336 91.8084 68.3116 91.5564 68.3116ZM93.7704 62.7316C93.5904 62.7316 93.4464 62.6836 93.3384 62.5876C93.2304 62.4916 93.1464 62.3656 93.0864 62.2096C92.8224 61.5496 92.5824 60.9976 92.3664 60.5536C92.1504 60.0976 91.9464 59.7016 91.7544 59.3656C91.5624 59.0176 91.3764 58.6816 91.1964 58.3576C91.0284 58.0216 90.8544 57.6436 90.6744 57.2236C90.5544 56.8876 90.4764 56.6356 90.4404 56.4676C90.4044 56.2876 90.4044 56.1016 90.4404 55.9096C90.4764 55.7056 90.5544 55.5436 90.6744 55.4236C90.7944 55.3036 90.9504 55.2436 91.1424 55.2436C91.3224 55.2436 91.4724 55.2976 91.5924 55.4056C91.7244 55.5016 91.8384 55.6696 91.9344 55.9096C92.1024 56.4016 92.2644 56.8276 92.4204 57.1876C92.5884 57.5356 92.7504 57.8596 92.9064 58.1596C93.0744 58.4476 93.2424 58.7476 93.4104 59.0596C93.5784 59.3596 93.7464 59.7016 93.9144 60.0856C94.0824 60.4696 94.2504 60.9376 94.4184 61.4896C94.4544 61.5976 94.4664 61.7236 94.4544 61.8676C94.4544 62.0116 94.4304 62.1496 94.3824 62.2816C94.3344 62.4136 94.2564 62.5216 94.1484 62.6056C94.0524 62.6896 93.9264 62.7316 93.7704 62.7316ZM108.554 68.3116C108.23 68.3116 108.026 68.1736 107.942 67.8976C107.858 67.6216 107.942 67.1836 108.194 66.5836C108.542 65.7436 108.974 64.8496 109.49 63.9016C110.006 62.9416 110.594 61.9876 111.254 61.0396C111.926 60.0796 112.652 59.1496 113.432 58.2496C114.212 57.3496 115.034 56.5336 115.898 55.8016C116.186 55.5616 116.414 55.4056 116.582 55.3336C116.762 55.2616 116.924 55.2256 117.068 55.2256C117.26 55.2256 117.41 55.2916 117.518 55.4236C117.626 55.5556 117.662 55.7416 117.626 55.9816C117.602 56.1376 117.56 56.2756 117.5 56.3956C117.44 56.5156 117.338 56.6476 117.194 56.7916C117.05 56.9236 116.846 57.1036 116.582 57.3316C115.598 58.1716 114.674 59.1196 113.81 60.1756C112.946 61.2316 112.166 62.3536 111.47 63.5416C110.774 64.7176 110.186 65.9296 109.706 67.1776C109.526 67.6336 109.352 67.9336 109.184 68.0776C109.016 68.2336 108.806 68.3116 108.554 68.3116ZM110.768 62.7316C110.588 62.7316 110.444 62.6836 110.336 62.5876C110.228 62.4916 110.144 62.3656 110.084 62.2096C109.82 61.5496 109.58 60.9976 109.364 60.5536C109.148 60.0976 108.944 59.7016 108.752 59.3656C108.56 59.0176 108.374 58.6816 108.194 58.3576C108.026 58.0216 107.852 57.6436 107.672 57.2236C107.552 56.8876 107.474 56.6356 107.438 56.4676C107.402 56.2876 107.402 56.1016 107.438 55.9096C107.474 55.7056 107.552 55.5436 107.672 55.4236C107.792 55.3036 107.948 55.2436 108.14 55.2436C108.32 55.2436 108.47 55.2976 108.59 55.4056C108.722 55.5016 108.836 55.6696 108.932 55.9096C109.1 56.4016 109.262 56.8276 109.418 57.1876C109.586 57.5356 109.748 57.8596 109.904 58.1596C110.072 58.4476 110.24 58.7476 110.408 59.0596C110.576 59.3596 110.744 59.7016 110.912 60.0856C111.08 60.4696 111.248 60.9376 111.416 61.4896C111.452 61.5976 111.464 61.7236 111.452 61.8676C111.452 62.0116 111.428 62.1496 111.38 62.2816C111.332 62.4136 111.254 62.5216 111.146 62.6056C111.05 62.6896 110.924 62.7316 110.768 62.7316ZM122.19 68.1856C121.29 68.1856 120.522 68.0476 119.886 67.7716C119.262 67.4836 118.77 67.0876 118.41 66.5836C118.05 66.0676 117.822 65.4736 117.726 64.8016C117.63 64.1296 117.654 63.4096 117.798 62.6416C117.918 62.0896 118.086 61.5376 118.302 60.9856C118.518 60.4336 118.77 59.9056 119.058 59.4016C119.358 58.8976 119.67 58.4236 119.994 57.9796C120.282 57.5956 120.576 57.2656 120.876 56.9896C121.188 56.7136 121.506 56.5756 121.83 56.5756C121.986 56.5756 122.106 56.6176 122.19 56.7016C122.286 56.7736 122.328 56.8876 122.316 57.0436C122.316 57.1876 122.238 57.3676 122.082 57.5836C121.686 58.0636 121.308 58.5856 120.948 59.1496C120.588 59.7016 120.27 60.2836 119.994 60.8956C119.718 61.4956 119.514 62.1196 119.382 62.7676C119.226 63.5356 119.238 64.2136 119.418 64.8016C119.598 65.3776 119.922 65.8276 120.39 66.1516C120.87 66.4756 121.47 66.6376 122.19 66.6376C122.814 66.6376 123.33 66.5956 123.738 66.5116C124.158 66.4276 124.5 66.3256 124.764 66.2056C125.04 66.0856 125.262 65.9836 125.43 65.8996C125.61 65.8156 125.76 65.7736 125.88 65.7736C126.096 65.7736 126.24 65.8396 126.312 65.9716C126.384 66.0916 126.402 66.2536 126.366 66.4576C126.318 66.7336 126.12 67.0036 125.772 67.2676C125.436 67.5316 124.968 67.7536 124.368 67.9336C123.78 68.1016 123.054 68.1856 122.19 68.1856ZM119.418 63.1276C119.142 63.1876 118.932 63.1876 118.788 63.1276C118.656 63.0676 118.572 62.9716 118.536 62.8396C118.512 62.6956 118.512 62.5516 118.536 62.4076C118.584 62.1916 118.728 62.0056 118.968 61.8496C119.208 61.6936 119.526 61.5796 119.922 61.5076C120.33 61.4356 120.774 61.3696 121.254 61.3096C121.746 61.2376 122.232 61.1776 122.712 61.1296C123.192 61.0696 123.648 61.0216 124.08 60.9856C124.512 60.9376 124.902 60.9076 125.25 60.8956C125.61 60.8956 125.85 60.9556 125.97 61.0756C126.09 61.1836 126.132 61.3396 126.096 61.5436C126.024 61.8556 125.832 62.0776 125.52 62.2096C125.208 62.3296 124.866 62.4076 124.494 62.4436C124.062 62.4676 123.612 62.5096 123.144 62.5696C122.688 62.6176 122.232 62.6716 121.776 62.7316C121.32 62.7916 120.888 62.8576 120.48 62.9296C120.084 62.9896 119.73 63.0556 119.418 63.1276ZM120.12 57.3856C119.772 57.3856 119.52 57.3136 119.364 57.1696C119.208 57.0256 119.154 56.8456 119.202 56.6296C119.226 56.4976 119.292 56.3716 119.4 56.2516C119.508 56.1196 119.664 56.0296 119.868 55.9816C120.684 55.8136 121.56 55.6816 122.496 55.5856C123.444 55.4896 124.362 55.4176 125.25 55.3696C126.15 55.3216 126.93 55.2976 127.59 55.2976C127.89 55.2976 128.106 55.3756 128.238 55.5316C128.382 55.6756 128.43 55.8556 128.382 56.0716C128.334 56.2876 128.232 56.4736 128.076 56.6296C127.92 56.7736 127.686 56.8456 127.374 56.8456C126.306 56.8456 125.382 56.8756 124.602 56.9356C123.822 56.9836 123.156 57.0436 122.604 57.1156C122.052 57.1876 121.572 57.2536 121.164 57.3136C120.768 57.3616 120.42 57.3856 120.12 57.3856ZM131.495 68.2216C130.127 68.2216 129.149 68.0656 128.561 67.7536C127.973 67.4416 127.721 67.0816 127.805 66.6736C127.829 66.4936 127.901 66.3556 128.021 66.2596C128.141 66.1636 128.303 66.1156 128.507 66.1156C128.675 66.1156 128.831 66.1456 128.975 66.2056C129.131 66.2536 129.311 66.3136 129.515 66.3856C129.731 66.4456 130.001 66.5056 130.325 66.5656C130.649 66.6136 131.063 66.6376 131.567 66.6376C132.059 66.6376 132.503 66.6076 132.899 66.5476C133.295 66.4756 133.643 66.3736 133.943 66.2416C134.243 66.0976 134.495 65.9416 134.699 65.7736C134.699 65.4376 134.555 65.1376 134.267 64.8736C133.991 64.6096 133.631 64.3636 133.187 64.1356C132.755 63.9076 132.299 63.6736 131.819 63.4336C131.339 63.1936 130.895 62.9296 130.487 62.6416C130.091 62.3416 129.785 61.9936 129.569 61.5976C129.365 61.2016 129.317 60.7276 129.425 60.1756C129.545 59.5756 129.827 59.0296 130.271 58.5376C130.727 58.0336 131.267 57.5836 131.891 57.1876C132.527 56.7796 133.187 56.4376 133.871 56.1616C134.567 55.8736 135.233 55.6576 135.869 55.5136C136.517 55.3576 137.063 55.2796 137.507 55.2796C137.723 55.2796 137.897 55.3156 138.029 55.3876C138.161 55.4596 138.245 55.5556 138.281 55.6756C138.329 55.7956 138.335 55.9336 138.299 56.0896C138.263 56.2936 138.167 56.4616 138.011 56.5936C137.855 56.7256 137.615 56.8216 137.291 56.8816C136.067 57.1096 135.005 57.4096 134.105 57.7816C133.205 58.1536 132.491 58.5676 131.963 59.0236C131.447 59.4796 131.141 59.9416 131.045 60.4096C130.985 60.7096 131.081 60.9856 131.333 61.2376C131.585 61.4896 131.927 61.7356 132.359 61.9756C132.803 62.2036 133.271 62.4496 133.763 62.7136C134.255 62.9656 134.711 63.2476 135.131 63.5596C135.551 63.8596 135.875 64.2076 136.103 64.6036C136.343 64.9996 136.409 65.4556 136.301 65.9716C136.217 66.3676 136.031 66.7096 135.743 66.9976C135.467 67.2856 135.113 67.5196 134.681 67.6996C134.249 67.8796 133.757 68.0116 133.205 68.0956C132.665 68.1796 132.095 68.2216 131.495 68.2216ZM140.533 64.0456C140.341 64.0456 140.191 63.9796 140.083 63.8476C139.975 63.7036 139.921 63.5176 139.921 63.2896C139.945 62.6176 139.987 62.0296 140.047 61.5256C140.119 61.0096 140.209 60.4696 140.317 59.9056C140.449 59.2816 140.569 58.7536 140.677 58.3216C140.797 57.8896 140.911 57.4936 141.019 57.1336C141.127 56.7736 141.217 56.4076 141.289 56.0356C141.325 55.8196 141.409 55.6336 141.541 55.4776C141.673 55.3096 141.853 55.2256 142.081 55.2256C142.333 55.2256 142.531 55.3336 142.675 55.5496C142.819 55.7536 142.855 56.0716 142.783 56.5036C142.711 56.8396 142.627 57.1576 142.531 57.4576C142.435 57.7576 142.333 58.1056 142.225 58.5016C142.117 58.8856 141.997 59.3896 141.865 60.0136C141.781 60.4456 141.721 60.8056 141.685 61.0936C141.649 61.3816 141.619 61.6336 141.595 61.8496C141.571 62.0656 141.547 62.2696 141.523 62.4616C141.511 62.6536 141.481 62.8636 141.433 63.0916C141.349 63.4396 141.217 63.6856 141.037 63.8296C140.869 63.9736 140.701 64.0456 140.533 64.0456ZM139.885 68.2576C139.441 68.2576 139.099 68.1436 138.859 67.9156C138.619 67.6756 138.541 67.3396 138.625 66.9076C138.685 66.5836 138.835 66.3256 139.075 66.1336C139.315 65.9416 139.585 65.8456 139.885 65.8456C140.413 65.8456 140.767 65.9896 140.947 66.2776C141.127 66.5656 141.181 66.8956 141.109 67.2676C141.049 67.5196 140.917 67.7476 140.713 67.9516C140.521 68.1556 140.245 68.2576 139.885 68.2576Z" fill="#7831B2"/>
<path d="M16.9626 8.07139L20.9341 22.3804C21.1015 22.9834 21.9312 23.0274 22.1671 22.4459L27.4266 9.4795M16.9644 8.07187C19.1701 13.0874 20.343 17.9001 20.9283 20.9472C21.0643 21.6549 22.1974 21.7329 22.4117 21.0432C23.9412 16.1218 26.8308 7.37265 27.6133 8.84696M39.3827 26.7156C36.318 37.2055 25.4221 43.2516 15.046 40.2199C4.66992 37.1882 -1.25719 26.2268 1.80746 15.7369C4.87211 5.24701 15.768 -0.799079 26.1441 2.23259C36.5202 5.26426 42.4473 16.2257 39.3827 26.7156ZM40.1939 26.2654C37.1292 36.7553 26.2334 42.8014 15.8573 39.7697C5.48114 36.7381 -0.445963 25.7767 2.61868 15.2868C5.68333 4.79686 16.5792 -1.24922 26.9553 1.78244C37.3314 4.81411 43.2585 15.7755 40.1939 26.2654Z" stroke="#7831B2" stroke-width="2" stroke-linecap="round"/>
</svg>
