<svg width="202" height="129" viewBox="0 0 202 129" fill="none" xmlns="http://www.w3.org/2000/svg">
<path d="M6.3744 72.6338C5.87298 72.892 5.39437 73.0373 4.93857 73.0695C4.49343 73.0963 4.08774 73.0555 3.7215 72.9472C3.34976 72.8282 3.03654 72.6655 2.78183 72.4593C2.5323 72.2368 2.35243 72.0055 2.24223 71.7653C2.18147 71.6211 2.14221 71.4794 2.12445 71.34C2.1012 71.19 2.10768 71.0585 2.1439 70.9453C2.19079 70.8267 2.26757 70.7399 2.37426 70.685C2.48094 70.63 2.60992 70.6446 2.7612 70.7287C2.91247 70.8127 3.08557 70.9261 3.28048 71.0686C3.47539 71.2112 3.7023 71.3373 3.96122 71.4469C4.22014 71.5566 4.50525 71.6122 4.81656 71.6139C5.13303 71.5994 5.49931 71.485 5.91537 71.2707C6.38478 71.0289 6.74057 70.7107 6.98277 70.3161C7.23007 69.9052 7.39598 69.4149 7.48048 68.845C7.55938 68.2644 7.57578 67.6148 7.52968 66.8962C7.50288 66.451 7.44907 65.9928 7.36837 65.5215C7.29277 65.034 7.20398 64.5601 7.10188 64.0997C7.01038 63.6339 6.92188 63.1868 6.83628 62.7585C6.74517 62.3195 6.66008 61.9314 6.58088 61.5942C6.50178 61.257 6.45008 60.9732 6.42588 60.7427L7.08998 62.4254C7.07948 63.3486 6.99778 64.1466 6.84478 64.8193C6.69698 65.4758 6.46738 66.026 6.156 66.4698C5.84464 66.9136 5.42758 67.2701 4.90483 67.5393C4.32873 67.836 3.80149 67.9523 3.32306 67.8882C2.83915 67.8135 2.40196 67.6067 2.0115 67.2679C1.62621 66.9129 1.28814 66.4661 0.997265 65.9275C0.717065 65.3834 0.479215 64.7905 0.283725 64.1488C0.137995 63.63 0.0464154 63.1507 0.00896538 62.7111C-0.0178046 62.2659 0.0153754 61.8979 0.108505 61.607C0.196155 61.3054 0.335985 61.1051 0.528015 61.0062C0.709385 60.9128 0.856955 60.9111 0.970725 61.001C1.09518 61.0853 1.17711 61.2051 1.21653 61.3603C1.26726 61.5636 1.32137 61.826 1.37887 62.1473C1.44155 62.4525 1.52345 62.795 1.62458 63.1748C1.79197 63.7095 1.96954 64.1985 2.1573 64.6417C2.33957 65.0742 2.54237 65.4287 2.76571 65.7052C2.98905 65.9816 3.2381 66.1638 3.51286 66.2517C3.7928 66.3235 4.10346 66.2715 4.44485 66.0957C4.7329 65.9474 4.97439 65.7218 5.16936 65.4189C5.375 65.1105 5.53167 64.7464 5.63937 64.3265C5.75774 63.9011 5.83813 63.4412 5.88054 62.947C5.93362 62.4472 5.9597 61.9344 5.9588 61.4084C5.95822 60.9093 5.95779 60.4236 5.95753 59.9513C5.95177 59.4683 5.97639 59.0575 6.03139 58.7187C6.08639 58.3799 6.19923 58.1666 6.36993 58.0787C6.62598 57.9468 6.83868 58.006 7.00798 58.2562C7.18258 58.4903 7.34268 58.8668 7.48838 59.3856C7.58918 59.7386 7.71007 60.1961 7.85098 60.7579C7.99697 61.3036 8.14108 61.911 8.28328 62.5802C8.43608 63.2439 8.57547 63.9077 8.70148 64.5717C8.82197 65.2251 8.90968 65.8278 8.96448 66.3799C9.01518 67.0287 9.01737 67.662 8.97108 68.2798C8.93548 68.892 8.82968 69.4729 8.65378 70.0224C8.47227 70.5613 8.19378 71.0557 7.81808 71.5056C7.45308 71.9501 6.97178 72.3261 6.3744 72.6338ZM24.8834 63.1626C24.5633 63.3274 24.1618 63.4127 23.6789 63.4184C23.1904 63.4135 22.6743 63.3419 22.1306 63.2034C21.5976 63.0595 21.0802 62.8805 20.5785 62.6665C20.0875 62.4469 19.6688 62.2104 19.3223 61.9569C19.1277 61.8411 18.9787 61.7222 18.8752 61.6C18.777 61.4616 18.6975 61.3203 18.6367 61.1761C18.6248 61.0743 18.618 60.9563 18.6164 60.8222C18.6148 60.688 18.6347 60.5563 18.6761 60.427C18.7162 60.1903 18.8168 59.8483 18.9778 59.401C19.1389 58.9536 19.3369 58.4602 19.572 57.9207C19.8123 57.365 20.0769 56.8305 20.366 56.3172C20.6602 55.7877 20.9553 55.3254 21.2511 54.93C21.5576 54.5292 21.8549 54.2547 22.1429 54.1063C22.2603 54.0459 22.3647 54.0259 22.4562 54.0462C22.5583 54.0611 22.6474 54.103 22.7233 54.1718C22.7993 54.2407 22.8539 54.3206 22.8872 54.4114C22.9974 54.6516 22.9581 54.9553 22.7692 55.3225C22.5804 55.6897 22.362 56.0519 22.114 56.4091C21.6817 57.0636 21.316 57.6771 21.017 58.2496C20.7179 58.8221 20.4902 59.3105 20.334 59.7149C20.1885 60.1138 20.1379 60.3693 20.1822 60.4815C20.2158 60.5991 20.3813 60.7501 20.6786 60.9344C20.9705 61.1081 21.367 61.2751 21.868 61.4355C22.3636 61.5852 22.9068 61.6834 23.4977 61.73C23.7663 61.7536 24.0269 61.7747 24.2794 61.7931C24.537 61.7954 24.7547 61.825 24.9325 61.882C25.1155 61.9227 25.2373 62.0152 25.2981 62.1594C25.3478 62.2822 25.3655 62.4081 25.3509 62.5371C25.3363 62.6661 25.2841 62.7875 25.1942 62.9012C25.115 63.0095 25.0114 63.0966 24.8834 63.1626ZM19.5463 65.8909C19.2689 66.0337 19.0108 65.9912 18.7719 65.7633C18.5276 65.5247 18.2894 65.1277 18.0573 64.5723C17.8305 64.0007 17.5939 63.2924 17.3477 62.4474C17.2469 62.0943 17.1485 61.7198 17.0525 61.3238C16.9673 60.9223 16.882 60.5208 16.7967 60.1193C16.7059 59.7071 16.6046 59.3139 16.4928 58.9395C16.4702 58.8432 16.4422 58.7496 16.4089 58.6588C16.3808 58.5518 16.3474 58.4475 16.3086 58.346C16.2414 58.1106 16.2094 57.9044 16.2127 57.7273C16.2159 57.5501 16.2463 57.3995 16.3039 57.2753C16.3666 57.1351 16.4513 57.0374 16.558 56.9825C16.8034 56.8561 17.0531 56.8693 17.3072 57.0219C17.5664 57.1583 17.755 57.4459 17.8729 57.8846C17.9569 58.1787 18.0419 58.5534 18.1278 59.0086C18.219 59.4476 18.3102 59.9 18.4016 60.3658C18.4931 60.8317 18.5864 61.2358 18.6818 61.5781C18.8714 62.1823 19.0522 62.7169 19.2242 63.1817C19.4067 63.6411 19.5669 64.0176 19.7045 64.3111C19.8367 64.594 19.9143 64.797 19.9372 64.9202C19.9818 65.0592 19.9915 65.1959 19.9663 65.3304C19.9462 65.4487 19.8992 65.5539 19.8251 65.646C19.7672 65.7433 19.6743 65.825 19.5463 65.8909ZM30.9937 60.036C30.1189 60.4865 29.2999 60.6654 28.5367 60.5725C27.7841 60.4741 27.1336 60.1545 26.5851 59.6136C26.0418 59.0566 25.6331 58.3154 25.3591 57.3902C25.1688 56.7324 25.1023 56.1052 25.1595 55.5088C25.222 54.8962 25.3549 54.3418 25.5583 53.8457C25.7724 53.344 26.0277 52.9223 26.3241 52.5807C26.6151 52.2283 26.894 51.9835 27.1607 51.8462C27.278 51.7857 27.3823 51.7523 27.4735 51.7458C27.5753 51.7339 27.6668 51.7542 27.7479 51.8069C27.8342 51.8435 27.8969 51.9259 27.936 52.0543C27.9925 52.2951 28.0088 52.5364 27.9849 52.7782C27.9554 53.0094 27.8164 53.2767 27.5678 53.5802C27.2771 53.9593 27.0561 54.3296 26.9048 54.691C26.7586 55.0362 26.6797 55.3941 26.668 55.7645C26.6508 56.1243 26.7119 56.5181 26.8512 56.9458C27.1255 57.8978 27.584 58.5391 28.2266 58.8695C28.8637 59.1893 29.5663 59.1514 30.3344 58.7558C31.0812 58.3712 31.5946 57.7694 31.8747 56.9503C32.1599 56.115 32.1571 55.2053 31.8663 54.2213C31.6139 53.3119 31.231 52.6993 30.7173 52.3834C30.1982 52.0568 29.6186 52.0584 28.9785 52.388C28.6478 52.5583 28.398 52.7679 28.2292 53.0168C28.0711 53.2602 27.9137 53.5573 27.7568 53.908C27.6472 54.1669 27.5667 54.3906 27.5153 54.5791C27.4639 54.7675 27.4094 54.9238 27.3518 55.0479C27.2994 55.1559 27.2039 55.2456 27.0652 55.317C26.9159 55.3939 26.7738 55.4064 26.639 55.3543C26.5094 55.2861 26.4082 55.129 26.3355 54.8829C26.2518 54.6156 26.2454 54.3017 26.3162 53.9413C26.3977 53.5754 26.5329 53.2088 26.7217 52.8416C26.9157 52.4582 27.1558 52.1119 27.4419 51.8025C27.7226 51.4826 28.0336 51.2346 28.375 51.0588C29.1431 50.6633 29.8606 50.5232 30.5275 50.6387C31.1888 50.7435 31.767 51.0667 32.2618 51.6082C32.7512 52.1391 33.1193 52.8539 33.3661 53.7526C33.6288 54.6296 33.7034 55.4821 33.5898 56.3099C33.4708 57.1271 33.187 57.8604 32.7386 58.5098C32.3008 59.1537 31.7192 59.6624 30.9937 60.036ZM37.538 56.6455C37.282 56.7774 37.013 56.7269 36.7312 56.4941C36.4493 56.2613 36.2132 55.816 36.0229 55.1581C35.9279 54.8426 35.804 54.353 35.6512 53.6894C35.4929 53.015 35.3926 52.2568 35.3504 51.4147C35.2955 50.4171 35.2913 49.6094 35.3376 48.9916C35.3784 48.3632 35.4825 47.8709 35.65 47.5147C35.8175 47.1585 36.0453 46.9062 36.3333 46.7579C36.5574 46.6425 36.7748 46.6453 36.9855 46.7662C37.207 46.8816 37.4103 47.0536 37.5955 47.2822C37.7807 47.5108 37.9552 47.7448 38.1191 47.9844C38.3375 48.3038 38.5859 48.6551 38.8642 49.0382C39.1532 49.4158 39.4502 49.796 39.7553 50.1787C40.0711 50.556 40.3865 50.9065 40.7017 51.2301C41.0275 51.5482 41.3391 51.7995 41.6365 51.9838L41.1263 52.4085C41.1225 51.641 41.1401 50.8626 41.179 50.0732C41.2179 49.2838 41.2705 48.5211 41.3369 47.785C41.4032 47.049 41.4785 46.3826 41.5626 45.7858C41.6677 45.1513 41.7882 44.6775 41.924 44.3646C42.0705 44.0462 42.2397 43.8376 42.4318 43.7387C42.5705 43.6673 42.715 43.6334 42.8653 43.6369C43.0101 43.6298 43.1444 43.6417 43.2682 43.6724C43.446 43.7293 43.6109 43.8266 43.7628 43.9643C43.9147 44.1021 44.0572 44.3526 44.1904 44.716C44.4899 45.5336 44.783 46.26 45.0697 46.8952C45.3615 47.5143 45.6199 48.0291 45.8448 48.4397C46.2346 49.1703 46.5901 49.7296 46.9114 50.1176C47.2433 50.5 47.4263 50.7635 47.4602 50.908C47.5103 51.0577 47.4933 51.2082 47.4092 51.3595C47.3413 51.5159 47.222 51.6381 47.0513 51.726C46.7953 51.8579 46.5187 51.845 46.2217 51.6876C45.9353 51.5246 45.6636 51.2461 45.4067 50.852C45.1662 50.4899 44.8842 50.021 44.5607 49.4452C44.2479 48.864 43.926 48.1996 43.5951 47.4522C43.2693 46.6886 42.9646 45.8872 42.6808 45.048L43.0872 44.6969C43.0235 45.2022 42.9552 45.7773 42.8824 46.4222C42.8147 47.0509 42.7474 47.7065 42.6804 48.3889C42.6241 49.0658 42.5757 49.7319 42.5352 50.3871C42.5054 51.0369 42.4938 51.6435 42.5005 52.2069C42.4876 52.4701 42.4313 52.7015 42.3317 52.9013C42.2428 53.0955 42.097 53.2449 41.8943 53.3493C41.6382 53.4811 41.3946 53.5323 41.1635 53.5029C40.9376 53.4573 40.711 53.358 40.4837 53.2051C40.2617 53.036 40.0393 52.84 39.8166 52.6173C39.697 52.4899 39.5312 52.3121 39.3191 52.0838C39.1016 51.8449 38.8676 51.574 38.6171 51.2711C38.3666 50.9681 38.1105 50.6411 37.8487 50.29C37.5869 49.9389 37.3385 49.5877 37.1035 49.2363C36.8631 48.8742 36.6577 48.5278 36.4874 48.197L36.9015 47.8218C36.808 48.5313 36.7517 49.2083 36.7325 49.8525C36.724 50.4913 36.7611 51.1268 36.8438 51.7591C36.9316 52.3753 37.0681 53.0204 37.2533 53.6944C37.3822 54.1544 37.505 54.5501 37.6217 54.8815C37.749 55.2073 37.8379 55.4585 37.8883 55.635C37.939 55.8384 37.944 56.0315 37.9032 56.2145C37.8625 56.3974 37.7407 56.5411 37.538 56.6455ZM51.3418 49.5165C50.851 49.7692 50.3905 49.8579 49.9603 49.7825C49.5407 49.7016 49.1651 49.4834 48.8335 49.1277C48.5125 48.7666 48.2653 48.2865 48.0917 47.6875C47.924 47.126 47.8364 46.5232 47.8287 45.8793C47.8262 45.2192 47.8988 44.5609 48.0466 43.9043C48.189 43.2371 48.3988 42.6094 48.6763 42.0211C48.9589 41.4166 49.304 40.8812 49.7117 40.4148C50.1301 39.9428 50.6007 39.5723 51.1234 39.3031C51.3688 39.1767 51.5938 39.1418 51.7984 39.1984C52.003 39.255 52.1446 39.4251 52.2231 39.7086C52.2677 39.8476 52.2667 39.9898 52.2201 40.1353C52.1681 40.2701 52.0568 40.3949 51.8865 40.5096C51.1946 41.0009 50.6385 41.6247 50.2182 42.3811C49.8085 43.132 49.5469 43.9213 49.4333 44.7492C49.3249 45.5609 49.3717 46.3332 49.5737 47.0661C49.669 47.4084 49.7826 47.7076 49.9144 47.9636C50.0408 48.209 50.259 48.5016 50.5689 48.8414L49.3922 48.0504C49.7106 48.1968 49.9637 48.269 50.1515 48.2667C50.35 48.259 50.5933 48.181 50.8813 48.0326C51.5641 47.681 52.0323 46.8865 52.2859 45.649C52.5395 44.4116 52.5337 42.8016 52.2685 40.819C52.2388 40.5778 52.2605 40.371 52.3336 40.1983C52.4118 40.0096 52.5416 39.8685 52.723 39.7751C52.9684 39.6487 53.21 39.6593 53.4479 39.8067C53.691 39.938 53.8843 40.1691 54.0278 40.5002C54.3312 41.1942 54.6231 41.8133 54.9033 42.3574C55.1886 42.8853 55.5055 43.3565 55.854 43.771C56.2131 44.18 56.6657 44.561 57.212 44.9141C57.331 44.9878 57.4208 45.0967 57.4816 45.2409C57.553 45.3796 57.5843 45.5322 57.5756 45.6987C57.5775 45.8597 57.5418 46.0131 57.4684 46.1588C57.4001 46.2885 57.2913 46.3917 57.142 46.4686C56.982 46.5511 56.8375 46.585 56.7085 46.5704C56.5902 46.5504 56.4688 46.4981 56.3443 46.4138C56.0521 46.2133 55.7677 45.9886 55.491 45.7396C55.2143 45.4907 54.937 45.1881 54.659 44.8318C54.3863 44.4594 54.1151 43.9984 53.8456 43.4488C53.576 42.8992 53.297 42.2263 53.0084 41.4301L53.5763 41.1174C53.7736 42.3655 53.8485 43.4675 53.8008 44.4234C53.7477 45.3686 53.6018 46.1862 53.3631 46.876C53.1297 47.5496 52.8358 48.1059 52.4814 48.5449C52.127 48.9838 51.7472 49.3077 51.3418 49.5165ZM60.3137 44.9162C60.0577 45.0481 59.8026 45.0377 59.5485 44.8851C59.2945 44.7325 59.0498 44.467 58.8145 44.0888C58.5844 43.6944 58.3826 43.1977 58.2091 42.5986C58.1021 42.1813 58.0307 41.8199 57.9949 41.5144C57.9697 41.2034 57.9773 40.943 58.0178 40.7332C58.0634 40.5073 58.139 40.3266 58.2448 40.1911C58.3292 40.0667 58.4753 39.9442 58.6832 39.8236C58.8855 39.6924 59.1041 39.5664 59.3388 39.4455C60.1176 39.0444 60.8665 38.6115 61.5855 38.1468C62.3096 37.6658 62.9794 37.1185 63.5946 36.5047L64.4513 37.4605C64.0064 37.9596 63.4914 38.4273 62.9062 38.8636C62.3211 39.2999 61.7088 39.7098 61.0693 40.0931C60.435 40.4602 59.8085 40.8031 59.1897 41.1218L58.1874 41.4557C58.0636 40.9796 57.9344 40.4927 57.7997 39.9952C57.6649 39.4977 57.5276 39.0082 57.3877 38.5269C57.2584 38.04 57.1378 37.596 57.0256 37.1948C56.9365 36.9168 56.9147 36.6648 56.9603 36.4389C57.0059 36.2129 57.1087 36.0587 57.2687 35.9763C57.5354 35.839 57.7877 35.844 58.0256 35.9914C58.2581 36.1282 58.4416 36.4453 58.5764 36.9429C58.6546 37.1996 58.7361 37.5152 58.8211 37.8899C58.9061 38.2646 58.994 38.658 59.0848 39.0702C59.1862 39.4768 59.2794 39.8675 59.3644 40.2422C59.4545 40.6007 59.5332 40.8976 59.6004 41.133C59.7911 41.8177 59.9807 42.4219 60.1695 42.9456C60.3634 43.4531 60.5021 43.8406 60.5858 44.1079C60.6307 44.2738 60.6246 44.4322 60.5674 44.5831C60.5263 44.7393 60.4417 44.8503 60.3137 44.9162ZM65.8346 42.073C65.5679 42.2104 65.2962 42.1546 65.0195 41.9056C64.7535 41.6512 64.4885 41.2545 64.2244 40.7156C63.9656 40.1605 63.7326 39.5246 63.5255 38.8079C63.2114 37.6739 62.9805 36.7669 62.8329 36.0871C62.6904 35.3911 62.5979 34.8313 62.5552 34.4079C62.5197 34.1292 62.5193 33.8662 62.5539 33.6189C62.5885 33.3716 62.6965 33.2013 62.8779 33.1079C63.1126 32.987 63.3356 33.0139 63.547 33.1885C63.7636 33.3469 63.9195 33.5973 64.0148 33.9396C64.138 34.3621 64.2349 34.8387 64.3056 35.3691C64.387 35.8941 64.5143 36.4427 64.6875 37.0149C64.8891 37.721 65.0979 38.3491 65.3137 38.8993C65.5348 39.4334 65.7306 39.8792 65.9013 40.2367C66.0719 40.5943 66.1798 40.8694 66.2251 41.062C66.292 41.2706 66.2863 41.4692 66.208 41.658C66.1298 41.8468 66.0053 41.9851 65.8346 42.073ZM68.612 39.4886C68.5859 39.0971 68.5778 38.6491 68.5879 38.1445C68.5925 37.6292 68.6049 37.0897 68.625 36.5259C68.6558 35.9566 68.692 35.398 68.7338 34.8501C68.7808 34.286 68.8337 33.7728 68.8926 33.3106C68.9767 32.7139 69.0745 32.1438 69.1861 31.6004C69.2977 31.057 69.4318 30.5965 69.5883 30.219C69.75 29.8253 69.9322 29.5762 70.1349 29.4718C70.3482 29.3619 70.5816 29.3565 70.8351 29.4554C71.0991 29.5489 71.4023 29.7707 71.7446 30.1208C71.9838 30.3756 72.2695 30.7076 72.6018 31.1169C72.9341 31.5262 73.283 31.9809 73.6485 32.481C74.0086 32.9705 74.3554 33.4736 74.6889 33.9902C75.0225 34.5068 75.3127 34.9917 75.5596 35.445L74.2173 36.2982C73.9429 35.7916 73.6199 35.2561 73.2482 34.6916C72.8817 34.111 72.5048 33.5627 72.1176 33.0467C71.7304 32.5307 71.3763 32.0922 71.0554 31.7311C70.7289 31.3593 70.4686 31.1289 70.2743 31.04L70.8325 30.5906C70.6779 31.1291 70.5349 31.7426 70.4036 32.4312C70.2829 33.1142 70.2028 33.8236 70.1633 34.5594C70.1322 35.1018 70.1061 35.6146 70.0851 36.0979C70.064 36.5812 70.0534 37.0456 70.0534 37.491C70.0585 37.9203 70.0691 38.3603 70.0852 38.8109L68.612 39.4886ZM77.1152 38.9767C76.9018 39.0865 76.698 39.097 76.5037 39.0081C76.3095 38.9192 76.187 38.773 76.1362 38.5697C76.0916 38.4307 76.0621 38.203 76.0476 37.8865C76.0386 37.5807 76.0157 37.2348 75.9789 36.8488C75.9421 36.4628 75.8678 36.0826 75.756 35.7083L76.7523 36.2277C76.592 36.2833 76.3463 36.3829 76.0153 36.5263C75.6949 36.6643 75.2947 36.8569 74.8146 37.1042C74.2492 37.3954 73.6705 37.7001 73.0786 38.0185C72.4973 38.3313 71.9241 38.6468 71.359 38.9648C70.8046 39.2773 70.2823 39.5868 69.7922 39.8932C69.3021 40.1995 68.8601 40.4946 68.4664 40.7784L68.802 39.8969C68.8521 40.0466 68.9187 40.2283 69.0017 40.442C69.0848 40.6556 69.1732 40.8666 69.2669 41.0748C69.3661 41.2936 69.4516 41.4858 69.5233 41.6514C69.6057 41.8114 69.6634 41.9234 69.6964 41.9874C69.7791 42.1743 69.7865 42.3459 69.7186 42.5024C69.6562 42.6695 69.5343 42.7997 69.353 42.8931C69.0969 43.025 68.8687 43.0143 68.6683 42.8611C68.4679 42.7078 68.2963 42.4925 68.1534 42.2151C68.0549 42.0499 67.9476 41.8285 67.8315 41.5508C67.7155 41.2731 67.6351 41.0513 67.5901 40.8855C67.5449 40.6928 67.532 40.5105 67.5514 40.3385C67.5547 40.1613 67.6063 39.9863 67.7062 39.8134C67.8061 39.6404 67.9624 39.4722 68.1751 39.3087C68.4199 39.1286 68.758 38.9072 69.1896 38.6445C69.6264 38.3656 70.122 38.0698 70.6764 37.7573C71.236 37.4286 71.8171 37.1024 72.4197 36.7785C73.0168 36.444 73.5928 36.1339 74.1475 35.8482C74.4249 35.7054 74.7317 35.5541 75.0679 35.3945C75.3986 35.2242 75.7297 35.0807 76.061 34.964C76.3869 34.8367 76.6444 34.8256 76.8335 34.9307C77.0333 35.0302 77.189 35.2672 77.3008 35.6416C77.3848 35.9357 77.4504 36.2597 77.4976 36.6133C77.5447 36.967 77.5596 37.3103 77.5421 37.6432C77.5407 37.9814 77.5013 38.2717 77.4236 38.5141C77.3567 38.751 77.2539 38.9052 77.1152 38.9767ZM81.0138 34.2761C80.5124 34.5343 80.0385 34.6232 79.592 34.5426C79.1456 34.4621 78.7539 34.2386 78.4167 33.8723C78.0741 33.4954 77.8078 32.9914 77.6178 32.3603C77.3884 31.5741 77.1701 30.8227 76.963 30.106C76.7504 29.3786 76.5659 28.7582 76.4095 28.2449C76.2638 27.726 76.1685 27.3837 76.1235 27.2178C76.0789 27.0788 76.0612 26.9395 76.0703 26.7998C76.09 26.6547 76.1367 26.5226 76.2104 26.4037C76.2842 26.2847 76.3797 26.1951 76.497 26.1346C76.7424 26.0083 76.987 26.0375 77.2307 26.2225C77.4851 26.4019 77.668 26.6654 77.7795 27.0129C77.8693 27.3446 77.9627 27.7487 78.0596 28.2252C78.1672 28.6962 78.2851 29.1349 78.4134 29.5412C78.4473 29.6857 78.4926 29.8784 78.5491 30.1193C78.6108 30.3439 78.6699 30.5767 78.7265 30.8175C78.7882 31.0422 78.8415 31.2375 78.8864 31.4033C79.0603 32.0292 79.2883 32.4719 79.5704 32.7315C79.8526 32.9911 80.1751 33.0275 80.5378 32.8407C80.7405 32.7364 80.9371 32.5676 81.1275 32.3346C81.3286 32.096 81.5025 31.831 81.6493 31.5394C81.7906 31.2372 81.8891 30.9435 81.9448 30.6584C82.0004 30.3733 81.9815 30.1401 81.8881 29.9587C81.7559 29.6758 81.5659 29.4902 81.3179 29.402C81.0807 29.3082 80.7906 29.2821 80.4476 29.3238C80.2491 29.3315 80.0053 29.3693 79.7163 29.4372C79.4273 29.505 79.1251 29.5864 78.8095 29.6814C78.4885 29.7658 78.1892 29.8659 77.9115 29.982L77.6478 28.8017C77.9989 28.5399 78.3843 28.2267 78.804 27.8621C79.2343 27.492 79.6696 27.0924 80.1099 26.6631C80.5503 26.2339 80.9665 25.8103 81.3587 25.3924C81.8039 24.9201 82.1823 24.4755 82.494 24.0586C82.8164 23.6361 83.0912 23.2786 83.3185 22.9861C83.5509 22.6774 83.7632 22.4736 83.9552 22.3747C84.2859 22.2044 84.5943 22.1873 84.8804 22.3234C85.1716 22.4434 85.3733 22.704 85.4854 23.1052C85.5866 23.485 85.685 23.8595 85.7806 24.2287C85.8814 24.5817 85.9824 24.9481 86.0835 25.328C86.173 25.6328 86.2819 25.9884 86.4102 26.3948C86.533 26.7905 86.6666 27.1941 86.8111 27.6056C86.9555 28.0172 87.0995 28.3885 87.243 28.7195C87.3528 28.9329 87.4684 29.1703 87.5896 29.4318C87.7159 29.6772 87.7987 29.8641 87.8378 29.9924C87.8769 30.1208 87.8838 30.2522 87.8586 30.3866C87.8385 30.505 87.7861 30.6129 87.7014 30.7105C87.6329 30.8133 87.5399 30.8949 87.4226 30.9554C87.1985 31.0707 86.9729 31.052 86.7457 30.899C86.5236 30.7299 86.3276 30.4934 86.1576 30.1896C85.8829 29.6561 85.6402 29.1062 85.4295 28.5399C85.2133 27.9628 85.0157 27.3694 84.8367 26.7597C84.7691 26.4976 84.6879 26.2087 84.5929 25.8932C84.5086 25.5722 84.427 25.2565 84.3481 24.9462C84.2693 24.6358 84.1963 24.363 84.1291 24.1276C84.067 23.8761 84.022 23.6969 83.9938 23.5899L84.487 23.7611C84.313 24.0261 84.0726 24.3457 83.7658 24.7196C83.4642 25.0775 83.1119 25.4681 82.7091 25.8915C82.3007 26.3043 81.8711 26.728 81.4201 27.1627C80.969 27.5975 80.5072 28.0243 80.0345 28.4432C79.5671 28.8459 79.1072 29.211 78.6549 29.5384L78.5182 28.8799C78.5981 28.8252 78.7206 28.7486 78.8858 28.6501C79.0562 28.5353 79.2587 28.4175 79.4934 28.2967C79.6214 28.2307 79.8085 28.1614 80.0545 28.0887C80.3112 28.0105 80.5869 27.9562 80.8817 27.9259C81.1872 27.89 81.4959 27.8998 81.8079 27.9551C82.125 27.9943 82.4107 28.1036 82.6651 28.283C82.9302 28.4569 83.1425 28.712 83.3022 29.0482C83.4951 29.4753 83.5571 29.9495 83.4882 30.4709C83.4299 30.9869 83.2804 31.4958 83.0395 31.9978C82.7986 32.4998 82.5008 32.9569 82.1461 33.369C81.786 33.7704 81.4085 34.0728 81.0138 34.2761ZM98.6771 25.1188C97.4611 25.7451 96.5201 26.0542 95.8546 26.046C95.189 26.0379 94.8001 25.8332 94.688 25.432C94.6269 25.261 94.6278 25.1053 94.6905 24.9651C94.7532 24.8248 94.8753 24.7079 95.0566 24.6145C95.206 24.5376 95.3584 24.4929 95.5139 24.4803C95.6746 24.4515 95.8621 24.4224 96.0764 24.3931C96.2959 24.3475 96.5631 24.2772 96.8791 24.1822C97.1891 24.0766 97.5681 23.9083 98.0161 23.6776C98.4531 23.4523 98.8341 23.2224 99.1591 22.9877C99.4781 22.7424 99.7411 22.4924 99.9471 22.2377C100.148 21.9723 100.3 21.7183 100.405 21.4755C100.251 21.1768 99.9861 20.976 99.6091 20.8732C99.2421 20.7648 98.8101 20.7109 98.3111 20.7115C97.8221 20.7066 97.3101 20.7074 96.7731 20.7138C96.2366 20.7202 95.721 20.6887 95.2264 20.6195C94.737 20.5341 94.3056 20.3648 93.9323 20.1116C93.5696 19.853 93.3099 19.4536 93.1532 18.9134C92.9852 18.325 92.9859 17.7105 93.1553 17.0698C93.33 16.4129 93.604 15.7656 93.9775 15.1279C94.3561 14.474 94.7863 13.8678 95.268 13.3092C95.7549 12.7345 96.2481 12.2376 96.7481 11.8184C97.2521 11.383 97.7021 11.0637 98.0971 10.8604C98.2891 10.7615 98.4601 10.7138 98.6101 10.7174C98.7601 10.721 98.8791 10.7679 98.9661 10.8581C99.0641 10.9428 99.1321 11.0627 99.1721 11.2179C99.2331 11.4157 99.2251 11.609 99.1461 11.7978C99.0681 11.9866 98.8991 12.1818 98.6381 12.3835C97.6541 13.1466 96.8471 13.8995 96.2178 14.6423C95.588 15.3851 95.1427 16.0801 94.8821 16.7272C94.6321 17.3688 94.5716 17.9197 94.7005 18.3797C94.7846 18.6739 94.9963 18.8753 95.3357 18.984C95.6751 19.0926 96.0918 19.1547 96.5861 19.1703C97.0851 19.1697 97.6131 19.1742 98.1721 19.1836C98.7241 19.1824 99.2591 19.2243 99.7751 19.3094C100.286 19.3838 100.733 19.5449 101.117 19.7925C101.512 20.0347 101.779 20.4099 101.92 20.9181C102.026 21.3086 102.018 21.6978 101.893 22.0857C101.78 22.4681 101.572 22.8382 101.271 23.196C100.969 23.5538 100.592 23.8964 100.14 24.2239C99.6981 24.5458 99.2111 24.8441 98.6771 25.1188ZM113.109 17.6866C112.874 17.8075 112.654 17.7994 112.448 17.6623C112.237 17.5146 111.968 17.2279 111.641 16.8025C111.369 16.4569 111.065 16.0124 110.732 15.4689C110.408 14.92 110.085 14.3308 109.761 13.7013C109.442 13.0557 109.158 12.4392 108.909 11.8518C108.616 11.1254 108.359 10.5086 108.139 10.0014C107.929 9.48869 107.739 9.09379 107.569 8.81669C107.404 8.52349 107.244 8.32949 107.087 8.23479C106.93 8.13999 106.756 8.14209 106.564 8.24099C106.276 8.38939 106.026 8.80829 105.814 9.49779C105.607 10.1711 105.457 11.0584 105.363 12.1598C105.269 13.2611 105.254 14.5306 105.32 15.9682C105.38 17.395 105.54 18.9388 105.802 20.5995C105.837 20.8513 105.826 21.0661 105.769 21.2439C105.707 21.411 105.595 21.5358 105.435 21.6182C105.19 21.7445 104.973 21.7552 104.784 21.6501C104.589 21.5343 104.424 21.2411 104.29 20.7704C104.099 20.0857 103.965 19.3789 103.886 18.6499C103.813 17.9048 103.761 17.1487 103.731 16.3816C103.694 15.6038 103.642 14.8343 103.574 14.073C103.517 13.3062 103.411 12.5641 103.258 11.8468C103.202 11.6328 103.194 11.4477 103.235 11.2916C103.281 11.1193 103.379 10.9947 103.529 10.9177C103.678 10.8408 103.833 10.8148 103.995 10.8397C104.167 10.8592 104.337 10.9403 104.505 11.0832L103.987 11.5724C104.143 10.2235 104.374 9.16609 104.682 8.40029C105 7.62899 105.442 7.09779 106.007 6.80659C106.626 6.48799 107.157 6.44409 107.6 6.67489C108.043 6.90579 108.467 7.38909 108.873 8.12489C109.279 8.86069 109.736 9.85349 110.245 11.1033C110.616 12.0328 110.982 12.8093 111.343 13.4329C111.705 14.0565 112.028 14.5786 112.312 14.9992C112.607 15.4144 112.852 15.7603 113.049 16.037C113.245 16.3138 113.38 16.5751 113.453 16.8211C113.509 17.0083 113.503 17.1801 113.435 17.3366C113.377 17.4875 113.269 17.6042 113.109 17.6866ZM103.556 18.6378C103.322 18.7586 103.129 18.7905 102.978 18.7332C102.827 18.676 102.731 18.5564 102.692 18.3744C102.642 18.2247 102.643 18.0824 102.695 17.9477C102.752 17.7967 102.873 17.6262 103.059 17.4361C104.071 16.3614 105.288 15.3299 106.709 14.3415C108.141 13.3477 109.726 12.403 111.465 11.5074C111.839 11.3151 112.106 11.2448 112.268 11.2966C112.44 11.3428 112.557 11.4783 112.619 11.703C112.686 11.9383 112.641 12.1911 112.483 12.4613C112.32 12.7209 112.046 12.9496 111.662 13.1474C110.435 13.7792 109.414 14.3522 108.599 14.8664C107.789 15.3645 107.124 15.8152 106.603 16.2185C106.076 16.6112 105.637 16.9653 105.287 17.2808C104.947 17.5907 104.647 17.86 104.387 18.0885C104.132 18.3008 103.855 18.4839 103.556 18.6378ZM117.345 15.6064C117.057 15.7547 116.812 15.7254 116.611 15.5185C116.41 15.3116 116.284 14.8837 116.234 14.2349C116.158 13.3288 116.133 12.3362 116.158 11.2572C116.177 10.1675 116.263 9.05009 116.416 7.90509C116.574 6.74399 116.793 5.58479 117.075 4.42759C117.356 3.27029 117.713 2.16849 118.146 1.12219C118.292 0.776888 118.424 0.533889 118.54 0.392889C118.667 0.246489 118.795 0.140288 118.923 0.0743882C119.093 -0.0135118 119.257 -0.0235125 119.413 0.0443875C119.57 0.112287 119.687 0.261187 119.765 0.490987C119.815 0.640687 119.841 0.782588 119.842 0.916788C119.844 1.05089 119.814 1.21499 119.752 1.40889C119.684 1.59219 119.585 1.84559 119.455 2.16919C118.965 3.36649 118.577 4.63239 118.293 5.96679C118.008 7.30119 117.828 8.65579 117.753 10.0306C117.673 11.3948 117.705 12.7415 117.85 14.0708C117.898 14.5586 117.881 14.9049 117.798 15.1099C117.72 15.3255 117.569 15.491 117.345 15.6064ZM116.758 9.63189C116.598 9.71429 116.448 9.73759 116.308 9.70169C116.168 9.66579 116.036 9.59219 115.911 9.48099C115.374 9.01509 114.908 8.63419 114.513 8.33839C114.112 8.03189 113.749 7.77319 113.425 7.56239C113.095 7.34089 112.776 7.12739 112.467 6.92179C112.164 6.69999 111.836 6.44359 111.484 6.15259C111.224 5.90879 111.039 5.72049 110.93 5.58759C110.815 5.44409 110.73 5.27869 110.674 5.09149C110.613 4.89369 110.608 4.71399 110.66 4.55229C110.712 4.39069 110.823 4.26589 110.994 4.17799C111.154 4.09559 111.312 4.07499 111.468 4.11599C111.629 4.14089 111.807 4.23809 112.003 4.40749C112.377 4.76799 112.716 5.07259 113.02 5.32119C113.329 5.55369 113.621 5.76749 113.897 5.96279C114.178 6.14189 114.465 6.33169 114.757 6.53219C115.044 6.72199 115.35 6.94909 115.675 7.21359C116 7.47809 116.364 7.81719 116.766 8.23099C116.847 8.31059 116.916 8.41709 116.971 8.55059C117.037 8.67859 117.079 8.81229 117.096 8.95159C117.114 9.09099 117.094 9.22269 117.037 9.34679C116.99 9.46539 116.897 9.56049 116.758 9.63189ZM12.9492 87.3659C12.6612 87.5149 12.4167 87.4859 12.2156 87.2789C12.0146 87.0719 11.8887 86.6439 11.838 85.9949C11.7628 85.0889 11.7376 84.0959 11.7623 83.0169C11.7815 81.9279 11.8675 80.8101 12.0202 79.6652C12.1781 78.504 12.3977 77.3448 12.6791 76.1876C12.9605 75.0303 13.3177 73.9285 13.7507 72.8822C13.8968 72.5369 14.0281 72.2939 14.1445 72.1529C14.2716 72.0065 14.3991 71.9003 14.5271 71.8344C14.6978 71.7465 14.8614 71.7365 15.0178 71.8044C15.1743 71.8723 15.2914 72.0212 15.3693 72.251C15.4194 72.4007 15.4453 72.5426 15.4469 72.6768C15.4485 72.8109 15.4182 72.975 15.3561 73.169C15.2885 73.3522 15.1896 73.6057 15.0593 73.9292C14.569 75.1265 14.1816 76.3924 13.897 77.7268C13.6123 79.0612 13.4326 80.4158 13.3577 81.7909C13.2774 83.1549 13.3096 84.5019 13.4542 85.8309C13.503 86.3189 13.4856 86.6649 13.4022 86.8699C13.3243 87.0859 13.1733 87.2509 12.9492 87.3659ZM12.3628 81.3919C12.2028 81.4739 12.0528 81.4979 11.9128 81.4619C11.7728 81.4259 11.6405 81.3519 11.5157 81.2409C10.9788 80.7751 10.5127 80.3943 10.1174 80.0984C9.71658 79.7919 9.35388 79.5333 9.02938 79.3224C8.69938 79.101 8.38018 78.8874 8.07178 78.6818C7.76858 78.46 7.44088 78.2036 7.08848 77.9126C6.82798 77.6688 6.64328 77.4805 6.53438 77.3476C6.41998 77.2041 6.33478 77.0387 6.27888 76.8516C6.21748 76.6537 6.21265 76.474 6.26439 76.3124C6.31613 76.1507 6.42737 76.026 6.59807 75.9381C6.75807 75.8556 6.91618 75.835 7.07228 75.876C7.23358 75.901 7.41187 75.9981 7.60707 76.1675C7.98167 76.528 8.32078 76.8326 8.62428 77.0812C8.93297 77.3137 9.22538 77.5275 9.50138 77.7228C9.78258 77.902 10.0693 78.0918 10.3615 78.2922C10.6482 78.482 10.9542 78.7091 11.2794 78.9736C11.6045 79.2381 11.9682 79.5772 12.3702 79.9911C12.4517 80.0706 12.5201 80.1771 12.5753 80.3106C12.6412 80.4386 12.6831 80.5723 12.7009 80.7116C12.7186 80.851 12.6987 80.9829 12.6412 81.1069C12.5943 81.2259 12.5015 81.3209 12.3628 81.3919ZM25.0141 81.0109C24.214 81.4229 23.4681 81.6519 22.7763 81.6979C22.0896 81.7279 21.4709 81.6009 20.9201 81.3179C20.3638 81.0239 19.8892 80.6001 19.4962 80.0467C19.1031 79.4932 18.7948 78.8421 18.5712 78.0934C18.4252 77.5477 18.3218 76.98 18.2611 76.3904C18.2004 75.8008 18.1827 75.216 18.208 74.636C18.2439 74.0506 18.3043 73.4864 18.3891 72.9433C18.4693 72.47 18.5796 72.0421 18.7199 71.6593C18.8709 71.2711 19.0905 71.0028 19.3785 70.8545C19.5172 70.7831 19.6431 70.7655 19.7563 70.8017C19.8746 70.8217 19.9641 70.9039 20.0249 71.048C20.0908 71.1761 20.1039 71.3718 20.0641 71.6353C19.9318 72.2433 19.8347 72.8804 19.7729 73.5467C19.7056 74.2022 19.6893 74.8653 19.7241 75.5357C19.7535 76.1955 19.8578 76.8437 20.0371 77.4802C20.2501 78.2344 20.5712 78.8317 21.0004 79.272C21.4241 79.7017 21.9182 79.9534 22.4826 80.0272C23.0577 80.0954 23.6653 79.9648 24.3054 79.6351C24.8602 79.3494 25.2997 79.0758 25.6239 78.8143C25.9589 78.5474 26.2162 78.3001 26.396 78.0726C26.5864 77.8395 26.7371 77.6472 26.848 77.4956C26.9695 77.3385 27.0837 77.2325 27.1903 77.1775C27.3824 77.0786 27.5406 77.0714 27.6651 77.1558C27.784 77.2295 27.8742 77.3653 27.9356 77.5631C28.0193 77.8305 27.9669 78.1612 27.7784 78.5552C27.6005 78.9437 27.2861 79.3554 26.8351 79.7901C26.3892 80.2087 25.7823 80.6158 25.0141 81.0109ZM20.234 77.7838C20.0161 77.9635 19.8294 78.0596 19.6739 78.0722C19.5291 78.0793 19.4104 78.0324 19.318 77.9315C19.2307 77.8145 19.1648 77.6865 19.1202 77.5475C19.064 77.3335 19.1068 77.1022 19.2488 76.8536C19.3907 76.605 19.6212 76.3581 19.9403 76.1128C20.2701 75.862 20.6346 75.6 21.0339 75.3269C21.4383 75.0376 21.8429 74.7618 22.2477 74.4993C22.6469 74.2262 23.0303 73.9748 23.3979 73.745C23.76 73.5045 24.093 73.2993 24.3969 73.1293C24.7169 72.9645 24.9578 72.9079 25.1194 72.9597C25.2755 73.0007 25.3843 73.1202 25.4457 73.318C25.5245 73.6284 25.4555 73.9137 25.2385 74.1739C25.0161 74.4234 24.7478 74.6493 24.4335 74.8516C24.0605 75.0708 23.6796 75.3141 23.291 75.5817C22.9076 75.8332 22.5269 76.09 22.149 76.3521C21.7711 76.6142 21.4172 76.8707 21.0875 77.1215C20.7629 77.3561 20.4784 77.5769 20.234 77.7838ZM18.2291 72.3575C17.9197 72.5168 17.6627 72.5682 17.4581 72.5116C17.2535 72.455 17.1231 72.3197 17.0669 72.1057C17.0278 71.9774 17.0287 71.8351 17.0698 71.679C17.1054 71.5122 17.2029 71.3608 17.3623 71.2247C18.0108 70.7017 18.7292 70.1833 19.5173 69.6694C20.3162 69.15 21.0994 68.6657 21.8668 68.2165C22.645 67.7618 23.3275 67.3833 23.9142 67.0811C24.1809 66.9438 24.4087 66.9142 24.5974 66.9925C24.7914 67.0546 24.9165 67.1926 24.9727 67.4066C25.0289 67.6206 25.0234 67.8327 24.9561 68.0428C24.8834 68.2422 24.7083 68.4134 24.4309 68.5562C23.4814 69.0452 22.6737 69.4949 22.0077 69.9054C21.3363 70.3052 20.7716 70.6635 20.3139 70.9802C19.8561 71.2969 19.4596 71.5754 19.1243 71.8155C18.7942 72.0395 18.4958 72.2202 18.2291 72.3575ZM33.3036 76.7828C32.0874 77.4092 31.1465 77.7182 30.4809 77.7101C29.8153 77.7019 29.4264 77.4972 29.3143 77.0961C29.2532 76.925 29.2541 76.7694 29.3168 76.6291C29.3795 76.4888 29.5016 76.372 29.6829 76.2786C29.8323 76.2016 29.9847 76.1569 30.1402 76.1443C30.3009 76.1156 30.4884 76.0865 30.7027 76.0571C30.9222 76.0115 31.1897 75.9413 31.5052 75.8463C31.8152 75.7406 32.1943 75.5724 32.6424 75.3416C33.0798 75.1164 33.4608 74.8864 33.7854 74.6518C34.1044 74.4065 34.3671 74.1564 34.5734 73.9017C34.7742 73.6364 34.9268 73.3823 35.0312 73.1395C34.8774 72.8408 34.612 72.64 34.2351 72.5372C33.8689 72.4289 33.4362 72.375 32.9371 72.3756C32.4486 72.3707 31.9361 72.3714 31.3995 72.3778C30.8628 72.3842 30.3472 72.3528 29.8527 72.2835C29.3633 72.1981 28.9319 72.0288 28.5585 71.7757C28.1959 71.517 27.9362 71.1176 27.7795 70.5774C27.6114 69.9891 27.6122 69.3745 27.7816 68.7338C27.9563 68.077 28.2303 67.4297 28.6038 66.7919C28.9824 66.138 29.4126 65.5318 29.8943 64.9733C30.3812 64.3986 30.8744 63.9016 31.3739 63.4824C31.8786 63.047 32.3283 62.7277 32.723 62.5244C32.915 62.4255 33.0862 62.3779 33.2365 62.3814C33.3869 62.385 33.5055 62.4319 33.5924 62.5221C33.6901 62.6068 33.7586 62.7267 33.798 62.8819C33.8594 63.0798 33.851 63.2731 33.7727 63.4618C33.6944 63.6506 33.525 63.8458 33.2645 64.0475C32.2807 64.8106 31.4739 65.5636 30.8441 66.3064C30.2142 67.0491 29.769 67.7441 29.5084 68.3912C29.2584 69.0329 29.1979 69.5837 29.3268 70.0437C29.4108 70.3379 29.6226 70.5393 29.962 70.648C30.3014 70.7567 30.7181 70.8188 31.212 70.8344C31.7111 70.8338 32.2398 70.8382 32.7981 70.8476C33.3509 70.8464 33.8854 70.8884 34.4016 70.9734C34.9124 71.0479 35.3598 71.2089 35.7438 71.4566C36.1384 71.6987 36.4059 72.0739 36.5461 72.5821C36.6527 72.9726 36.644 73.3618 36.5198 73.7497C36.4063 74.1321 36.1987 74.5022 35.897 74.8601C35.5954 75.2179 35.2184 75.5605 34.7661 75.8879C34.3245 76.2098 33.837 76.5081 33.3036 76.7828ZM39.4262 68.9325C39.2555 69.0204 39.0919 69.0304 38.9354 68.9625C38.7735 68.8839 38.6403 68.7433 38.5359 68.5406C38.2496 67.9322 38.0177 67.3902 37.8403 66.9147C37.6681 66.4229 37.5009 65.9017 37.3387 65.3508C37.1703 64.7356 37.0353 64.2113 36.9335 63.7778C36.8424 63.3387 36.7624 62.9345 36.6936 62.565C36.6248 62.1955 36.5372 61.8289 36.4309 61.4652C36.3641 61.2567 36.3536 61.0529 36.3995 60.8538C36.4399 60.644 36.5615 60.4869 36.7642 60.3825C36.9882 60.2671 37.2137 60.2725 37.4406 60.3986C37.662 60.514 37.8396 60.7802 37.9734 61.1973C38.0633 61.5289 38.1342 61.8501 38.1862 62.1608C38.2382 62.4714 38.3068 62.8275 38.3921 63.229C38.4719 63.6199 38.596 64.1229 38.7643 64.7381C38.8874 65.1606 38.9989 65.5081 39.0988 65.7806C39.1986 66.0532 39.2873 66.2909 39.3649 66.494C39.4425 66.697 39.5145 66.8893 39.5811 67.071C39.6583 67.2472 39.7278 67.4476 39.7895 67.6723C39.8742 68.0201 39.8694 68.2993 39.7753 68.5097C39.6919 68.7147 39.5755 68.8556 39.4262 68.9325ZM40.7785 72.9738C40.3838 73.1771 40.0275 73.2323 39.7098 73.1395C39.3865 73.036 39.1634 72.773 39.0402 72.3505C38.9452 72.035 38.9605 71.7369 39.0859 71.4563C39.2114 71.1758 39.4075 70.9668 39.6742 70.8294C40.1436 70.5877 40.5243 70.5536 40.8161 70.7273C41.108 70.9009 41.3071 71.1696 41.4134 71.5332C41.4755 71.7848 41.4625 72.0479 41.3745 72.3226C41.2972 72.5919 41.0986 72.809 40.7785 72.9738ZM52.872 66.7255C51.9865 67.1815 51.216 67.3759 50.5604 67.3085C49.8993 67.2306 49.3513 66.9526 48.9162 66.4748C48.4757 65.9863 48.1435 65.3543 47.9195 64.5787C47.7677 63.9955 47.7012 63.3684 47.72 62.6973C47.744 62.0101 47.8621 61.3351 48.0742 60.6724C48.297 60.0043 48.6145 59.4021 49.0268 58.8658C49.4442 58.3134 49.9569 57.8806 50.565 57.5675C51.1305 57.2763 51.6412 57.128 52.0974 57.1225C52.5641 57.1116 52.9575 57.2465 53.2775 57.5271C53.6082 57.8022 53.8575 58.234 54.0256 58.8223C54.2211 59.464 54.2152 60.0947 54.0079 60.7144C53.7951 61.3234 53.4343 61.8939 52.9254 62.4259C52.4272 62.9525 51.826 63.3971 51.1219 63.7597C50.3964 64.1333 49.8671 64.2979 49.5338 64.2536C49.2112 64.2037 49.0163 64.0612 48.9491 63.8258C48.9045 63.6868 48.9058 63.5714 48.953 63.4796C48.9947 63.3771 49.0956 63.2847 49.2556 63.2023C49.3729 63.1418 49.5226 63.0918 49.7046 63.052C49.8918 62.9961 50.1507 62.883 50.4815 62.7127C51.0149 62.438 51.4565 62.1161 51.8063 61.747C52.1668 61.3723 52.4198 60.9856 52.5653 60.5867C52.7054 60.1771 52.7248 59.7824 52.6237 59.4026C52.5228 59.0496 52.3566 58.8315 52.1248 58.7484C51.9037 58.6598 51.5851 58.7226 51.169 58.9369C50.753 59.1512 50.4024 59.4532 50.1172 59.843C49.8372 60.2167 49.6142 60.6487 49.4483 61.1391C49.2931 61.624 49.2106 62.1321 49.2009 62.6636C49.1911 63.195 49.2617 63.7121 49.4126 64.2148C49.5357 64.6373 49.7116 64.9921 49.9405 65.2792C50.1638 65.5556 50.4557 65.7292 50.8161 65.8001C51.1817 65.8547 51.6099 65.7557 52.1007 65.503C52.6554 65.2173 53.0944 64.9035 53.4178 64.5615C53.7462 64.2034 53.9997 63.8568 54.1782 63.522C54.3567 63.1871 54.5062 62.9009 54.6268 62.6633C54.7474 62.4257 54.8824 62.2684 55.0318 62.1915C55.2131 62.0981 55.3769 62.1015 55.523 62.2018C55.6743 62.2858 55.7835 62.4455 55.8507 62.6809C55.9179 62.9162 55.8893 63.2144 55.7648 63.5755C55.6454 63.9204 55.4459 64.2931 55.1663 64.6936C54.8973 65.0886 54.5664 65.4682 54.1735 65.8325C53.7859 66.1806 53.3521 66.4783 52.872 66.7255ZM61.8031 62.1058C61.0136 62.5124 60.2832 62.6928 59.6117 62.6472C58.9455 62.5853 58.3682 62.3293 57.8798 61.8789C57.3966 61.4124 57.0401 60.7726 56.8104 59.9595C56.6142 59.2642 56.5442 58.5646 56.6002 57.8609C56.6614 57.141 56.8357 56.4573 57.1232 55.8098C57.4158 55.1462 57.7978 54.5513 58.2692 54.0251C58.7406 53.4989 59.2856 53.0764 59.9044 52.7578C60.1818 52.6149 60.4491 52.5312 60.7065 52.5067C60.9583 52.4715 61.1734 52.5092 61.3518 52.6198C61.5354 52.7142 61.6583 52.8871 61.7203 53.1386C61.782 53.3633 61.7844 53.5646 61.7275 53.7423C61.6651 53.9095 61.5539 54.0342 61.3938 54.1166C61.2765 54.1771 61.1748 54.2024 61.0888 54.1927C61.0028 54.183 60.9115 54.1761 60.8149 54.1718C60.7289 54.1621 60.6059 54.1985 60.4458 54.2809C59.8377 54.5941 59.3467 55.0427 58.9726 55.6268C58.593 56.2002 58.3429 56.8284 58.2222 57.5115C58.1067 58.1784 58.1331 58.8194 58.3015 59.4346C58.4575 59.9211 58.6688 60.305 58.9351 60.5863C59.2066 60.8514 59.5277 61.0032 59.8985 61.0417C60.28 61.0747 60.6787 60.9841 61.0948 60.7698C61.5642 60.5281 61.9101 60.2825 62.1326 60.0329C62.3495 59.7727 62.5023 59.5321 62.5909 59.311C62.6901 59.0844 62.7657 58.8903 62.8174 58.7287C62.8636 58.5564 62.9561 58.4345 63.0948 58.3631C63.2975 58.2587 63.4609 58.2353 63.585 58.2928C63.7198 58.3449 63.8263 58.4993 63.9045 58.7559C64.0112 59.1465 63.9919 59.5546 63.8467 59.9803C63.696 60.3954 63.4404 60.7902 63.0799 61.1648C62.7301 61.5339 62.3045 61.8476 61.8031 62.1058ZM63.7218 52.9582C63.4764 53.0846 63.246 53.1088 63.0303 53.0309C62.8254 52.9475 62.6948 52.7987 62.6386 52.5847C62.6102 52.4509 62.622 52.3166 62.6741 52.1818C62.7261 52.047 62.8584 51.8844 63.0708 51.694C63.3999 51.3896 63.8625 51.0298 64.4587 50.6148C65.0655 50.1943 65.801 49.7616 66.6651 49.3166C67.1132 49.0858 67.5294 48.885 67.9138 48.714C68.3033 48.5269 68.744 48.3472 69.2357 48.175C69.6204 48.0308 69.9417 47.9733 70.1997 48.0025C70.4683 48.0261 70.6278 48.1262 70.6782 48.3027C70.7173 48.431 70.7243 48.5624 70.699 48.6969C70.679 48.8152 70.6187 48.934 70.5181 49.0533C70.4282 49.167 70.2926 49.2706 70.1112 49.364C69.8872 49.4794 69.6203 49.6033 69.3106 49.7358C69.0009 49.8683 68.6699 50.0118 68.3175 50.1663C67.9703 50.3046 67.6207 50.4644 67.2686 50.6457C66.5325 51.0248 65.9569 51.3618 65.5418 51.6565C65.1212 51.9406 64.7808 52.1969 64.5205 52.4254C64.2548 52.6433 63.9885 52.8209 63.7218 52.9582ZM69.3881 58.2603C69.1534 58.3812 68.9279 58.3758 68.7117 58.2442C68.5061 58.1071 68.3051 57.9002 68.1086 57.6235C67.9718 57.4104 67.8153 57.1064 67.6388 56.7113C67.4675 56.3001 67.3011 55.8459 67.1395 55.3487C66.9725 54.8409 66.819 54.3462 66.6791 53.8649C66.4943 53.2177 66.3291 52.6481 66.1837 52.1561C66.0435 51.6479 65.9231 51.2307 65.8226 50.9045L67.2134 50.0668C67.2642 50.2701 67.3289 50.5269 67.4078 50.8373C67.4918 51.1315 67.5897 51.4657 67.7015 51.8401C67.8078 52.2038 67.9143 52.5809 68.0209 52.9714C68.1327 53.3457 68.239 53.7094 68.3398 54.0624C68.5078 54.6508 68.6693 55.1346 68.824 55.5138C68.984 55.8768 69.127 56.1676 69.2531 56.3862C69.3791 56.6047 69.4859 56.7859 69.5735 56.9298C69.6556 57.063 69.7162 57.1937 69.7553 57.3221C69.7944 57.4504 69.8067 57.5791 69.7921 57.7081C69.772 57.8264 69.725 57.9316 69.651 58.0237C69.5824 58.1265 69.4948 58.2054 69.3881 58.2603ZM76.6841 54.4625C76.1613 54.7317 75.696 54.8634 75.288 54.8575C74.8746 54.8409 74.5109 54.7245 74.197 54.5082C73.8777 54.2812 73.6086 53.9946 73.3898 53.6484C73.1762 53.286 73.0105 52.8989 72.8929 52.487C72.753 52.0057 72.6419 51.4622 72.5595 50.8568C72.4717 50.2406 72.3688 49.7132 72.2508 49.2745C72.1054 48.7825 71.972 48.3923 71.8505 48.1039C71.729 47.8155 71.6456 47.575 71.6003 47.3824C71.5612 47.254 71.5464 47.1334 71.5558 47.0206C71.5758 46.9023 71.6148 46.7945 71.6727 46.6972C71.7412 46.5944 71.8448 46.5073 71.9835 46.4359C72.2822 46.2821 72.5536 46.311 72.7977 46.5228C73.0469 46.7184 73.233 47.0275 73.3561 47.45C73.4398 47.7173 73.5188 48.0411 73.5931 48.4213C73.6619 48.7908 73.7309 49.1737 73.8 49.57C73.8692 49.9663 73.9407 50.3412 74.0147 50.6945C74.0887 51.0478 74.1593 51.3422 74.2265 51.5775C74.3551 52.0107 74.5044 52.3792 74.6744 52.6831C74.8389 52.9764 75.0451 53.1671 75.2931 53.2554C75.5462 53.3275 75.8594 53.2674 76.2328 53.0751C76.5422 52.9158 76.8319 52.6789 77.1018 52.3644C77.3718 52.0499 77.5957 51.6984 77.7735 51.3098C77.9514 50.9213 78.0621 50.5335 78.1058 50.1466C78.144 49.749 78.0915 49.3981 77.9484 49.0939C77.877 48.9552 77.742 48.8897 77.5435 48.8974C77.3502 48.889 77.0775 48.9754 76.7255 49.1567C76.3307 49.36 75.9444 49.5927 75.5665 49.8549C75.1885 50.117 74.8375 50.3788 74.5132 50.6402C74.1889 50.9017 73.9127 51.1385 73.6844 51.3505C73.5939 51.4106 73.495 51.4413 73.3876 51.4426C73.291 51.4384 73.2021 51.4099 73.121 51.3572C73.0505 51.299 73.0012 51.2164 72.9731 51.1094C72.912 50.9384 72.8941 50.7857 72.9193 50.6512C72.9497 50.5006 73.0366 50.3546 73.1798 50.2134C73.3599 50.0126 73.58 49.798 73.8403 49.5695C74.1057 49.3248 74.3926 49.0826 74.7011 48.8428C75.0095 48.6029 75.3208 48.3819 75.6351 48.1795C75.9438 47.9666 76.2422 47.7859 76.5302 47.6375C77.053 47.3683 77.4888 47.2316 77.8376 47.2275C78.197 47.2178 78.4933 47.3082 78.7264 47.4987C78.9594 47.6891 79.1477 47.9498 79.2912 48.2809C79.5061 48.7506 79.5902 49.2809 79.5436 49.8718C79.497 50.4628 79.3458 51.0603 79.09 51.6644C78.8449 52.2631 78.5133 52.8118 78.0953 53.3105C77.6772 53.8093 77.2068 54.1933 76.6841 54.4625ZM20.9697 101.132C19.7535 101.758 18.8126 102.067 18.147 102.059C17.4814 102.051 17.0925 101.846 16.9804 101.445C16.9193 101.274 16.9202 101.118 16.9829 100.978C17.0456 100.838 17.1677 100.721 17.349 100.628C17.4984 100.551 17.6508 100.506 17.8063 100.493C17.967 100.465 18.1545 100.436 18.3688 100.406C18.5883 100.361 18.8558 100.29 19.1713 100.195C19.4813 100.09 19.8604 99.9209 20.3085 99.6909C20.7459 99.4649 21.1269 99.2349 21.4514 99.0009C21.7705 98.7559 22.0332 98.5059 22.2395 98.2509C22.4403 97.9849 22.5929 97.7309 22.6973 97.4889C22.5435 97.1899 22.2781 96.9889 21.9012 96.8859C21.535 96.7779 21.1023 96.7239 20.6032 96.7249C20.1147 96.7199 19.6022 96.7199 19.0656 96.7269C18.5289 96.7329 18.0133 96.7019 17.5188 96.6329C17.0293 96.5469 16.598 96.3779 16.2246 96.1249C15.862 95.8659 15.6023 95.4669 15.4456 94.9259C15.2775 94.3379 15.2783 93.7239 15.4477 93.0829C15.6224 92.4259 15.8964 91.7789 16.2699 91.1409C16.6485 90.4869 17.0787 89.8809 17.5604 89.3219C18.0473 88.7479 18.5405 88.2509 19.04 87.8309C19.5447 87.3959 19.9944 87.0769 20.3891 86.8729C20.5811 86.7749 20.7523 86.7269 20.9026 86.7299C21.053 86.7339 21.1716 86.7809 21.2585 86.8709C21.3561 86.9559 21.4247 87.0759 21.4641 87.2309C21.5255 87.4289 21.517 87.6219 21.4388 87.8109C21.3605 87.9999 21.1911 88.1949 20.9305 88.3969C19.9468 89.1599 19.14 89.9129 18.5102 90.6549C17.8803 91.3979 17.4351 92.0929 17.1745 92.7399C16.9245 93.3819 16.864 93.9329 16.9929 94.3929C17.0769 94.6869 17.2887 94.8879 17.6281 94.9969C17.9675 95.1059 18.3842 95.1679 18.8781 95.1829C19.3772 95.1829 19.9059 95.1869 20.4642 95.1969C21.017 95.1949 21.5515 95.2369 22.0677 95.3219C22.5785 95.3969 23.0258 95.5579 23.4099 95.8059C23.8045 96.0479 24.072 96.4229 24.2122 96.9309C24.3188 97.3219 24.3101 97.7109 24.1859 98.0989C24.0724 98.4809 23.8648 98.8509 23.5631 99.2089C23.2615 99.5669 22.8845 99.9099 22.4322 100.237C21.9906 100.559 21.5031 100.857 20.9697 101.132ZM30.183 96.4069C29.5216 96.7479 28.9007 96.8919 28.3205 96.8399C27.7402 96.7879 27.2066 96.5899 26.7194 96.2469C26.243 95.8989 25.8351 95.4479 25.4957 94.8929C25.1509 94.3289 24.8805 93.7119 24.6847 93.0429C24.5225 92.4929 24.4141 91.9539 24.3596 91.4289C24.3157 90.8979 24.309 90.3349 24.3394 89.7389C24.3268 89.5829 24.3574 89.4459 24.4311 89.3269C24.5155 89.2029 24.6324 89.1019 24.7817 89.0249C25.0164 88.9039 25.2203 88.8939 25.3932 88.9939C25.5768 89.0879 25.7104 89.2689 25.7941 89.5359C25.8445 89.7129 25.8681 89.8899 25.8649 90.0669C25.8723 90.2379 25.8747 90.4399 25.8721 90.6699C25.8746 90.8849 25.8938 91.1449 25.9297 91.4509C25.96 91.7459 26.0312 92.0939 26.1434 92.4949C26.3001 93.0349 26.4962 93.5079 26.7319 93.9129C26.962 94.3069 27.226 94.6229 27.5241 94.8609C27.8221 95.0989 28.1377 95.2399 28.471 95.2849C28.8149 95.3229 29.163 95.2519 29.515 95.0709C29.9631 94.8399 30.2967 94.4659 30.516 93.9479C30.7459 93.4249 30.8426 92.7609 30.8062 91.9559C30.7749 91.1349 30.6024 90.1709 30.2887 89.0639C30.1937 88.7489 30.1048 88.4969 30.0221 88.3109C29.95 88.1179 29.8809 87.9449 29.8146 87.7899C29.7535 87.6189 29.6923 87.4339 29.6309 87.2359C29.5802 87.0329 29.57 86.8559 29.6004 86.7049C29.636 86.5389 29.7605 86.3999 29.9739 86.2899C30.1659 86.1919 30.3645 86.1969 30.5698 86.3069C30.775 86.4179 30.9792 86.6569 31.1821 87.0249C31.3903 87.3759 31.5869 87.8889 31.772 88.5629C32.1805 89.9589 32.3668 91.1859 32.3312 92.2439C32.3061 93.2959 32.1019 94.1709 31.7184 94.8669C31.3456 95.5589 30.8338 96.0719 30.183 96.4069ZM39.4086 91.5549C38.8965 91.8189 38.4127 91.9799 37.9572 92.0389C37.5017 92.0979 37.1149 92.0679 36.7969 91.9479C36.4788 91.8289 36.2779 91.6349 36.1942 91.3679C36.1603 91.2229 36.1613 91.0809 36.1972 90.9409C36.2331 90.8009 36.3204 90.6959 36.4591 90.6239C36.5657 90.5689 36.6755 90.5459 36.7883 90.5559C36.9011 90.5649 37.0354 90.5769 37.1913 90.5909C37.3471 90.6049 37.5535 90.5869 37.8105 90.5359C38.062 90.4739 38.3798 90.3439 38.7638 90.1459C39.3613 89.8379 39.8045 89.4279 40.0936 88.9139C40.3878 88.3849 40.4149 87.7299 40.1748 86.9489C40.0233 86.3929 39.7951 85.9369 39.4903 85.5809C39.1907 85.2089 38.8413 84.9359 38.4421 84.7639C38.0373 84.5809 37.6018 84.5079 37.1353 84.5459C36.6688 84.5839 36.1902 84.7289 35.6995 84.9819C35.4541 85.1079 35.2171 85.2639 34.9885 85.4489C34.76 85.6339 34.5497 85.7759 34.3576 85.8749C34.2403 85.9359 34.1199 85.9639 33.9964 85.9599C33.8674 85.9459 33.7594 85.8929 33.6725 85.8029C33.5855 85.7129 33.5253 85.6089 33.4917 85.4909C33.4073 85.1699 33.4867 84.8529 33.7299 84.5379C33.9782 84.2079 34.4384 83.8699 35.1105 83.5239C35.8253 83.1559 36.5232 82.9509 37.2043 82.9109C37.8961 82.8649 38.5388 82.9729 39.1323 83.2339C39.7202 83.4849 40.2376 83.8869 40.6842 84.4389C41.1361 84.9759 41.4796 85.6559 41.7149 86.4799C41.8716 87.0199 41.9262 87.5449 41.8786 88.0559C41.8417 88.5609 41.7212 89.0349 41.5171 89.4769C41.3076 89.9089 41.0252 90.3039 40.6699 90.6619C40.3091 91.0099 39.8886 91.3079 39.4086 91.5549ZM37.7577 97.5879C37.6297 97.6539 37.5012 97.6799 37.3722 97.6649C37.2594 97.6559 37.1568 97.6009 37.0643 97.4999C36.9719 97.3989 36.9005 97.2599 36.85 97.0839C36.7996 96.9069 36.7814 96.7279 36.7953 96.5449C36.8041 96.3789 36.807 96.1749 36.8041 95.9329C36.8067 95.7019 36.7872 95.4159 36.7456 95.0729C36.7039 94.7299 36.6102 94.2989 36.4645 93.7799C36.2234 92.9189 35.9077 92.0959 35.5173 91.3119C35.1269 90.5269 34.7257 89.7349 34.3136 88.9349C33.9067 88.1189 33.5692 87.2669 33.301 86.3789C33.217 86.0849 33.206 85.8409 33.2681 85.6469C33.3354 85.4369 33.465 85.2819 33.6571 85.1829C33.8277 85.0949 33.9967 85.0829 34.1638 85.1449C34.3361 85.1909 34.493 85.2989 34.6346 85.4689C34.7706 85.6289 34.8697 85.8339 34.9317 86.0859C35.1334 86.7919 35.3665 87.4409 35.6312 88.0339C35.901 88.6099 36.1761 89.1699 36.4563 89.7139C36.7471 90.2529 37.022 90.7999 37.2809 91.3549C37.5397 91.9099 37.7588 92.5059 37.9382 93.1419C38.1114 93.7149 38.2385 94.2499 38.3196 94.7479C38.4006 95.2459 38.4328 95.6879 38.4159 96.0749C38.4097 96.4559 38.3518 96.7759 38.2422 97.0349C38.1432 97.2889 37.9817 97.4729 37.7577 97.5879ZM48.2424 87.1069C47.357 87.5629 46.5864 87.7569 45.9309 87.6899C45.2698 87.6119 44.7217 87.3339 44.2867 86.8559C43.8461 86.3679 43.5139 85.7359 43.29 84.9599C43.1381 84.3769 43.0716 83.7499 43.0904 83.0789C43.1145 82.3909 43.2325 81.7159 43.4447 81.0539C43.6675 80.3856 43.985 79.7834 44.3972 79.2471C44.8146 78.6947 45.3274 78.2619 45.9355 77.9488C46.5009 77.6576 47.0117 77.5093 47.4678 77.5038C47.9346 77.4929 48.328 77.6277 48.648 77.9084C48.9787 78.1835 49.228 78.6153 49.396 79.2036C49.5915 79.8453 49.5856 80.476 49.3783 81.0959C49.1655 81.7049 48.8047 82.2749 48.2958 82.8069C47.7976 83.3339 47.1965 83.7779 46.4923 84.1409C45.7669 84.5149 45.2375 84.6789 44.9042 84.6349C44.5816 84.5849 44.3867 84.4429 44.3195 84.2069C44.2749 84.0679 44.2762 83.9529 44.3234 83.8609C44.3652 83.7589 44.466 83.6659 44.626 83.5839C44.7434 83.5229 44.8931 83.4729 45.0751 83.4329C45.2623 83.3769 45.5212 83.2639 45.8519 83.0939C46.3853 82.8189 46.827 82.4969 47.1768 82.1279C47.5373 81.7539 47.7903 81.3669 47.9358 80.9679C48.0758 80.5584 48.0953 80.1637 47.9941 79.7839C47.8933 79.4308 47.727 79.2128 47.4952 79.1297C47.2741 79.0411 46.9556 79.1039 46.5395 79.3182C46.1234 79.5324 45.7728 79.8345 45.4876 80.2243C45.2077 80.598 44.9847 81.0299 44.8188 81.5199C44.6636 82.0049 44.5811 82.5129 44.5713 83.0449C44.5616 83.5759 44.6321 84.0929 44.783 84.5959C44.9061 85.0189 45.0821 85.3729 45.3109 85.6609C45.5343 85.9369 45.8262 86.1109 46.1866 86.1809C46.5522 86.2359 46.9804 86.1369 47.4711 85.8839C48.0259 85.5989 48.4649 85.2849 48.7882 84.9429C49.1167 84.5849 49.3702 84.2379 49.5487 83.9029C49.7271 83.5679 49.8767 83.2819 49.9973 83.0449C50.1179 82.8069 50.2529 82.6499 50.4022 82.5729C50.5836 82.4789 50.7473 82.4829 50.8934 82.5829C51.0447 82.6669 51.154 82.8269 51.2212 83.0619C51.2884 83.2979 51.2597 83.5959 51.1352 83.9569C51.0159 84.3019 50.8164 84.6739 50.5367 85.0749C50.2677 85.4699 49.9368 85.8499 49.544 86.2139C49.1564 86.5619 48.7225 86.8599 48.2424 87.1069ZM55.0535 83.6399C54.9148 83.7109 54.7647 83.7209 54.603 83.6689C54.4521 83.6119 54.3113 83.5089 54.1807 83.3599C54.0447 83.2009 53.9377 83.0059 53.8598 82.7759C53.652 82.0059 53.4284 81.2569 53.189 80.5302C52.9602 79.7977 52.7269 79.135 52.4891 78.5421C52.2512 77.9492 52.0176 77.4824 51.7881 77.1416C51.6404 76.9072 51.5308 76.7207 51.4594 76.582C51.3986 76.4378 51.3432 76.2909 51.2931 76.1412C51.2369 75.9272 51.2426 75.7286 51.3102 75.5453C51.3778 75.362 51.5022 75.2237 51.6836 75.1303C51.8863 75.0259 52.093 75.0341 52.3038 75.1551C52.509 75.2653 52.7296 75.5364 52.9656 75.9683C53.2067 76.3841 53.4717 77.0035 53.7605 77.8265C54.0546 78.6334 54.3731 79.6842 54.7159 80.9789L54.0695 80.7854C53.8247 79.6022 53.7155 78.5516 53.7421 77.6335C53.7794 76.71 53.9122 75.9195 54.1405 75.262C54.374 74.5883 54.6654 74.0401 55.0145 73.6173C55.3744 73.189 55.7463 72.876 56.1304 72.6782C56.4184 72.5299 56.6436 72.5084 56.8059 72.6138C56.9626 72.7085 57.0665 72.871 57.1176 73.1012C57.1622 73.2402 57.1588 73.4039 57.1073 73.5924C57.0559 73.7808 56.9238 73.9568 56.7111 74.1204C56.1848 74.5399 55.7853 75.0223 55.5128 75.5676C55.2347 76.1023 55.0592 76.692 54.9864 77.3369C54.9136 77.9818 54.9219 78.6794 55.0114 79.4298C55.0953 80.1694 55.2202 80.9619 55.3859 81.8079C55.455 82.2049 55.4964 82.5209 55.5099 82.7569C55.5235 82.9929 55.4908 83.1779 55.4119 83.3129C55.3437 83.4429 55.2242 83.5519 55.0535 83.6399ZM64.8658 78.4446C64.3537 78.7084 63.8699 78.8698 63.4144 78.9289C62.959 78.988 62.5722 78.9577 62.2541 78.8381C61.936 78.7184 61.7351 78.5249 61.6514 78.2576C61.6175 78.1131 61.6185 77.9708 61.6544 77.8309C61.6903 77.6909 61.7776 77.5852 61.9163 77.5138C62.023 77.4588 62.1327 77.436 62.2455 77.4454C62.3584 77.4548 62.4927 77.4666 62.6485 77.4809C62.8043 77.4951 63.0107 77.4766 63.2677 77.4252C63.5192 77.3632 63.837 77.2332 64.2211 77.0355C64.8185 76.7278 65.2617 76.3173 65.5508 75.804C65.845 75.2745 65.8721 74.6194 65.632 73.8387C65.4805 73.2824 65.2523 72.8262 64.9475 72.4703C64.6479 72.0981 64.2985 71.8259 63.8993 71.6536C63.4946 71.4706 63.059 71.3979 62.5925 71.4357C62.126 71.4734 61.6474 71.6187 61.1567 71.8714C60.9113 71.9978 60.6743 72.1536 60.4458 72.3388C60.2172 72.524 60.0069 72.666 59.8149 72.7649C59.6975 72.8254 59.5771 72.8536 59.4536 72.8497C59.3246 72.8352 59.2167 72.7828 59.1297 72.6926C59.0428 72.6024 58.9825 72.4984 58.9489 72.3808C58.8646 72.0598 58.944 71.7422 59.1871 71.428C59.4354 71.0976 59.8956 70.7594 60.5677 70.4133C61.2825 70.0452 61.9805 69.8409 62.6616 69.8006C63.3534 69.7548 63.996 69.8625 64.5895 70.1238C65.1775 70.3744 65.6948 70.7761 66.1415 71.329C66.5933 71.8656 66.9369 72.5458 67.1721 73.3695C67.3288 73.9097 67.3834 74.435 67.3358 74.9455C67.2989 75.4504 67.1784 75.9241 66.9744 76.3667C66.7648 76.7985 66.4824 77.1937 66.1271 77.5521C65.7663 77.8999 65.3459 78.1974 64.8658 78.4446ZM63.2149 84.4779C63.0869 84.5439 62.9584 84.5699 62.8294 84.5549C62.7166 84.5459 62.614 84.4909 62.5215 84.3899C62.4291 84.2889 62.3577 84.1499 62.3073 83.9739C62.2569 83.7969 62.2386 83.6179 62.2525 83.4349C62.2613 83.2679 62.2642 83.0649 62.2614 82.8229C62.264 82.5919 62.2444 82.3049 62.2028 81.9619C62.1611 81.6189 62.0674 81.1879 61.9217 80.6695C61.6807 79.8083 61.3649 78.9855 60.9745 78.2012C60.5841 77.4169 60.1829 76.6247 59.7708 75.8246C59.364 75.0083 59.0264 74.1563 58.7582 73.2686C58.6742 72.9744 58.6632 72.7303 58.7253 72.5364C58.7926 72.3263 58.9223 72.1718 59.1143 72.0729C59.285 71.985 59.4539 71.9722 59.621 72.0346C59.7933 72.0809 59.9502 72.189 60.0918 72.3591C60.2279 72.5185 60.3269 72.7239 60.389 72.9754C60.5906 73.6815 60.8237 74.3308 61.0884 74.9233C61.3583 75.4998 61.6333 76.06 61.9135 76.6041C62.2044 77.1427 62.4792 77.6895 62.7381 78.2446C62.997 78.7997 63.2161 79.3955 63.3954 80.032C63.5686 80.6042 63.6957 81.1389 63.7768 81.6379C63.8579 82.1359 63.89 82.5779 63.8731 82.9649C63.8669 83.3459 63.809 83.6659 63.6994 83.9249C63.6005 84.1779 63.439 84.3629 63.2149 84.4779ZM74.1493 73.8054C73.2745 74.2559 72.4555 74.4348 71.6923 74.3419C70.9398 74.2435 70.2892 73.9239 69.7407 73.383C69.1974 72.826 68.7887 72.0848 68.5147 71.1596C68.3244 70.5017 68.2579 69.8746 68.3152 69.2782C68.3776 68.6656 68.5106 68.1112 68.714 67.615C68.928 67.1134 69.1833 66.6917 69.4798 66.3501C69.7708 65.9977 70.0496 65.7529 70.3163 65.6155C70.4337 65.5551 70.5379 65.5217 70.6291 65.5152C70.7309 65.5033 70.8224 65.5236 70.9035 65.5763C70.9898 65.6129 71.0525 65.6953 71.0916 65.8237C71.1482 66.0645 71.1645 66.3058 71.1405 66.5476C71.1111 66.7787 70.972 67.0461 70.7234 67.3496C70.4327 67.7287 70.2117 68.099 70.0604 68.4604C69.9143 68.8056 69.8353 69.1635 69.8236 69.5339C69.8065 69.8937 69.8675 70.2874 70.0068 70.7151C70.2811 71.6672 70.7396 72.3084 71.3822 72.6389C72.0193 72.9587 72.7219 72.9208 73.49 72.5252C74.2368 72.1406 74.7503 71.5388 75.0303 70.7197C75.3155 69.8844 75.3127 68.9747 75.0219 67.9907C74.7696 67.0813 74.3866 66.4687 73.8729 66.1528C73.3538 65.8262 72.7742 65.8277 72.1341 66.1574C71.8034 66.3277 71.5536 66.5373 71.3849 66.7862C71.2268 67.0296 71.0693 67.3267 70.9125 67.6774C70.8029 67.9363 70.7223 68.16 70.6709 68.3485C70.6195 68.5369 70.565 68.6932 70.5074 68.8173C70.4551 68.9253 70.3595 69.015 70.2208 69.0864C70.0715 69.1633 69.9294 69.1758 69.7946 69.1237C69.665 69.0555 69.5638 68.8983 69.4911 68.6523C69.4074 68.385 69.401 68.0711 69.4718 67.7107C69.5534 67.3447 69.6885 66.9782 69.8774 66.611C70.0714 66.2276 70.3114 65.8813 70.5976 65.5719C70.8782 65.2519 71.1892 65.004 71.5306 64.8282C72.2987 64.4326 73.0162 64.2926 73.6831 64.4081C74.3445 64.5129 74.9226 64.8361 75.4174 65.3776C75.9068 65.9085 76.2749 66.6233 76.5218 67.522C76.7845 68.399 76.859 69.2515 76.7455 70.0793C76.6264 70.8965 76.3426 71.6298 75.8942 72.2792C75.4564 72.9231 74.8748 73.4318 74.1493 73.8054ZM82.2026 69.7188C81.8932 69.8781 81.5709 69.8551 81.2357 69.6498C80.895 69.4338 80.5109 68.95 80.0833 68.1984C79.7763 67.6546 79.4609 67.0814 79.137 66.4788C78.8184 65.8601 78.484 65.2764 78.134 64.7277C77.784 64.1791 77.4031 63.7409 76.9913 63.413C76.7689 63.2171 76.6244 63.0283 76.5578 62.8466C76.5019 62.6595 76.5079 62.4876 76.5758 62.3312C76.6438 62.1747 76.7684 62.0498 76.9498 61.9564C77.1738 61.841 77.3962 61.8142 77.617 61.876C77.8484 61.9323 78.1191 62.1303 78.4291 62.4701C78.7714 62.8202 79.0931 63.2484 79.3944 63.7547C79.6956 64.261 79.9863 64.7862 80.2665 65.3302C80.5412 65.8637 80.8209 66.3675 81.1057 66.8418C81.3904 67.316 81.6902 67.7016 82.005 67.9984L81.5496 68.2936C81.6205 67.9332 81.6637 67.506 81.6793 67.012C81.6894 66.5074 81.683 65.9708 81.6601 65.4022C81.6479 64.8281 81.6331 64.262 81.6157 63.7041C81.6035 63.13 81.6132 62.5985 81.645 62.1097C81.6933 61.2075 81.7817 60.5275 81.9105 60.0698C82.0444 59.5959 82.266 59.2793 82.5754 59.12C82.8741 58.9662 83.1662 58.9305 83.4516 59.0129C83.737 59.0954 84.0426 59.2957 84.3685 59.6138C84.6888 59.9213 85.0561 60.3463 85.4705 60.8888C85.7103 61.1972 85.9532 61.5378 86.1991 61.9105C86.4503 62.2671 86.7067 62.621 86.9685 62.9721C87.2248 63.3125 87.4834 63.618 87.7442 63.8886C88.0051 64.1592 88.2705 64.36 88.5404 64.491L88.2295 64.7523C88.3043 64.2684 88.3197 63.761 88.2758 63.2302C88.237 62.6832 88.1768 62.1338 88.0951 61.582C88.0134 61.0302 87.9344 60.4837 87.8582 59.9426C87.7872 59.3852 87.7486 58.8517 87.7425 58.3419C87.7435 57.9769 87.777 57.6357 87.843 57.3183C87.9197 56.9954 88.029 56.7096 88.1709 56.4611C88.3235 56.207 88.5065 56.025 88.7199 55.9151C88.8479 55.8492 88.9683 55.8209 89.0811 55.8303C89.194 55.8397 89.2937 55.8761 89.3803 55.9395C89.4669 56.0028 89.5353 56.1094 89.5854 56.259C89.641 56.4194 89.6511 56.5964 89.6159 56.79C89.5913 56.9781 89.5268 57.1936 89.4223 57.4363C89.3234 57.6898 89.2708 58.007 89.2646 58.3882C89.2584 58.7693 89.2768 59.185 89.3197 59.6353C89.3733 60.0801 89.4324 60.5356 89.497 61.0018C89.5723 61.4624 89.6312 61.9045 89.6738 62.328C89.7759 63.2338 89.8193 63.9471 89.804 64.4678C89.7939 64.9725 89.726 65.3516 89.6002 65.6054C89.4689 65.8485 89.2859 66.0304 89.0512 66.1513C88.7525 66.3051 88.4658 66.3381 88.191 66.2501C87.9214 66.146 87.5455 65.9009 87.0632 65.5149C86.6889 65.1812 86.33 64.7857 85.9864 64.3282C85.6374 63.8601 85.2962 63.3811 84.963 62.8913C84.635 62.3854 84.313 61.9438 83.9973 61.5665C83.6867 61.173 83.3828 60.8976 83.0858 60.7401L83.3331 60.552C83.2196 60.9344 83.1473 61.3968 83.1162 61.9392C83.0902 62.4655 83.0864 63.0479 83.1048 63.6863C83.1176 64.3141 83.1336 64.974 83.1525 65.6662C83.166 66.3476 83.1474 67.0321 83.0965 67.7197C83.0745 68.1225 83.0302 68.4557 82.9635 68.7195C82.9021 68.9671 82.8106 69.1695 82.689 69.3266C82.5674 69.4837 82.4053 69.6144 82.2026 69.7188ZM96.9381 62.0291C96.0523 62.4851 95.2818 62.6794 94.6262 62.6121C93.9652 62.5341 93.4171 62.2562 92.982 61.7784C92.5415 61.2898 92.2093 60.6578 91.9853 59.8823C91.8335 59.2991 91.767 58.672 91.7858 58.0009C91.8098 57.3136 91.9279 56.6387 92.14 55.976C92.3628 55.3078 92.6804 54.7056 93.0926 54.1694C93.51 53.617 94.0227 53.1842 94.6308 52.871C95.4736 52.437 96.1968 52.321 96.8001 52.5232C97.4141 52.7198 97.8451 53.254 98.0911 54.1259C98.2871 54.7676 98.2811 55.3983 98.0741 56.018C97.8611 56.627 97.5001 57.1975 96.9911 57.7295C96.4931 58.256 95.8918 58.7006 95.1877 59.0632C94.4622 59.4368 93.9329 59.6015 93.5996 59.5571C93.277 59.5073 93.0821 59.3647 93.0149 59.1294C92.9703 58.9904 92.9716 58.875 93.0188 58.7832C93.0605 58.6807 93.1614 58.5882 93.3214 58.5058C93.4388 58.4454 93.5884 58.3953 93.7704 58.3556C93.9576 58.2997 94.2166 58.1866 94.5473 58.0162C95.0807 57.7415 95.5223 57.4196 95.8721 57.0505C96.2326 56.6759 96.4861 56.2891 96.6311 55.8902C96.7711 55.4807 96.7911 55.086 96.6891 54.7061C96.5891 54.3531 96.4221 54.1351 96.1906 54.052C95.9695 53.9633 95.6509 54.0262 95.2348 54.2405C94.6908 54.5207 94.2558 54.9471 93.9298 55.5199C93.6039 56.0927 93.3942 56.7339 93.3007 57.4434C93.2178 58.1475 93.2771 58.8391 93.4784 59.5183C93.6015 59.9408 93.7775 60.2956 94.0063 60.5827C94.2296 60.8591 94.5215 61.0328 94.8819 61.1036C95.2476 61.1583 95.6757 61.0593 96.1665 60.8065C96.7211 60.5208 97.1601 60.207 97.4831 59.865C97.8121 59.5069 98.0651 59.1604 98.2441 58.8255C98.4221 58.4906 98.5721 58.2044 98.6931 57.9668C98.8131 57.7292 98.9481 57.572 99.0971 57.4951C99.2791 57.4017 99.4431 57.4051 99.5891 57.5053C99.7401 57.5894 99.8491 57.7491 99.9161 57.9844C99.9841 58.2198 99.9551 58.518 99.8301 58.8791C99.7111 59.224 99.5121 59.5967 99.2321 59.9971C98.9631 60.3921 98.6321 60.7718 98.2391 61.136C97.8521 61.4841 97.4181 61.7818 96.9381 62.0291ZM103.749 58.5619C103.61 58.6333 103.46 58.6432 103.298 58.5914C103.147 58.5342 103.007 58.4312 102.876 58.2825C102.74 58.1231 102.633 57.9285 102.555 57.6986C102.347 56.9283 102.124 56.1796 101.884 55.4525C101.655 54.72 101.422 54.0573 101.184 53.4644C100.946 52.8715 100.713 52.4046 100.483 52.0639C100.336 51.8295 100.226 51.643 100.155 51.5043C100.094 51.3601 100.038 51.2132 99.9881 51.0635C99.9321 50.8495 99.9381 50.6508 100.005 50.4676C100.073 50.2843 100.197 50.1459 100.379 50.0525C100.582 49.9481 100.788 49.9564 100.999 50.0773C101.204 50.1876 101.425 50.4587 101.661 50.8906C101.902 51.3063 102.167 51.9257 102.456 52.7488C102.75 53.5557 103.068 54.6065 103.411 55.9012L102.765 55.7077C102.52 54.5245 102.411 53.4739 102.437 52.5558C102.475 51.6323 102.607 50.8417 102.836 50.1842C103.069 49.5106 103.361 48.9624 103.71 48.5396C104.07 48.1113 104.442 47.7983 104.826 47.6005C105.114 47.4522 105.339 47.4307 105.501 47.5361C105.658 47.6308 105.762 47.7933 105.813 48.0234C105.857 48.1625 105.854 48.3262 105.803 48.5146C105.751 48.7031 105.619 48.8791 105.406 49.0426C104.88 49.4622 104.481 49.9446 104.208 50.4899C103.93 51.0245 103.754 51.6143 103.682 52.2592C103.609 52.9041 103.617 53.6017 103.707 54.352C103.791 55.0917 103.915 55.8845 104.081 56.7305C104.15 57.1268 104.192 57.443 104.205 57.679C104.219 57.9149 104.186 58.1005 104.107 58.2356C104.039 58.3652 103.919 58.474 103.749 58.5619ZM111.947 54.2992C111.211 54.6783 110.599 54.8922 110.111 54.941C109.634 54.9842 109.263 54.9323 108.999 54.7852C108.745 54.6326 108.589 54.4493 108.533 54.2352C108.483 54.0587 108.483 53.8897 108.535 53.728C108.598 53.5609 108.714 53.4334 108.885 53.3455C109.034 53.2686 109.165 53.2482 109.279 53.2845C109.397 53.3045 109.534 53.3351 109.69 53.3762C109.852 53.4011 110.066 53.3851 110.334 53.3282C110.601 53.2714 110.954 53.1303 111.391 52.9051C111.967 52.6084 112.42 52.2675 112.748 51.8826C113.076 51.4976 113.245 51.0528 113.255 50.5482C113.124 50.3458 112.905 50.2357 112.599 50.2179C112.298 50.1839 111.955 50.1988 111.569 50.2624C111.184 50.326 110.779 50.3926 110.356 50.462C109.943 50.526 109.544 50.5495 109.157 50.5327C108.781 50.5103 108.447 50.4123 108.156 50.2387C107.874 50.0596 107.675 49.7507 107.557 49.312C107.439 48.9001 107.447 48.4707 107.582 48.0236C107.721 47.5604 107.946 47.1069 108.258 46.6631C108.569 46.2193 108.943 45.8177 109.379 45.4583C109.82 45.0827 110.275 44.774 110.744 44.5323C111.053 44.373 111.318 44.2973 111.538 44.3055C111.764 44.2974 111.949 44.3435 112.096 44.4437C112.236 44.5333 112.329 44.661 112.374 44.8268C112.419 44.9927 112.407 45.1538 112.339 45.3103C112.277 45.4505 112.155 45.5674 111.973 45.6608C111.909 45.6938 111.845 45.7267 111.781 45.7597C111.712 45.782 111.629 45.8179 111.533 45.8673C111.442 45.9006 111.338 45.9474 111.221 46.0079C110.58 46.3375 110.051 46.7383 109.633 47.2102C109.215 47.6821 108.95 48.23 108.839 48.8539C108.976 49.0401 109.186 49.1476 109.471 49.1764C109.761 49.1891 110.102 49.1689 110.493 49.116C110.889 49.0468 111.299 48.9775 111.722 48.9081C112.145 48.8387 112.553 48.8177 112.945 48.8452C113.332 48.8621 113.676 48.968 113.979 49.163C114.277 49.3473 114.487 49.6641 114.61 50.1134C114.723 50.5146 114.735 50.9197 114.649 51.3286C114.557 51.7268 114.39 52.1099 114.148 52.4777C113.9 52.8349 113.584 53.166 113.201 53.4712C112.835 53.7814 112.417 54.0575 111.947 54.2992Z" fill="#7831B2"/>
<path d="M88.344 96.3029C88.5912 95.8099 88.3911 95.2089 87.8972 94.9619C87.4033 94.7149 86.8025 94.9149 86.5554 95.4089L88.344 96.3029ZM199.304 114.972C199.854 115.031 200.346 114.633 200.404 114.084L201.355 105.134C201.414 104.585 201.016 104.092 200.466 104.034C199.917 103.976 199.425 104.374 199.366 104.923L198.521 112.878L190.566 112.033C190.017 111.974 189.524 112.372 189.466 112.922C189.408 113.471 189.806 113.963 190.355 114.022L199.304 114.972ZM87.8679 97.2829C88.1151 96.7889 87.915 96.1889 87.4211 95.9419C86.9272 95.6939 86.3265 95.8949 86.0793 96.3879L87.8679 97.2829ZM86.5554 95.4089C85.0038 98.5099 83.5251 102.324 82.6426 106.249C81.7624 110.163 81.4588 114.259 82.3302 117.886C83.2104 121.548 85.2932 124.727 89.1211 126.685C92.9063 128.622 98.2811 129.305 105.652 128.277L105.376 126.296C98.2181 127.294 93.3091 126.581 90.032 124.905C86.7975 123.25 85.0392 120.599 84.2748 117.418C83.5017 114.201 83.7501 110.44 84.5938 106.688C85.4352 102.946 86.8524 99.2849 88.344 96.3029L86.5554 95.4089ZM105.652 128.277C114.923 126.985 123.466 122.971 131.508 118.373C135.529 116.074 139.452 113.612 143.276 111.265C147.109 108.912 150.849 106.671 154.545 104.779C161.95 100.99 169.059 98.6729 176.221 99.6359C183.352 100.595 190.738 104.836 198.632 114.606L200.188 113.35C192.09 103.326 184.284 98.7019 176.487 97.6539C168.72 96.6099 161.165 99.1449 153.634 102.999C149.863 104.929 146.067 107.206 142.23 109.561C138.383 111.922 134.501 114.358 130.515 116.637C122.544 121.194 114.267 125.057 105.376 126.296L105.652 128.277ZM86.0793 96.3879C84.5327 99.4799 83.0537 103.16 82.1892 106.913C81.3271 110.657 81.0587 114.548 82.0141 118.017C82.981 121.529 85.19 124.556 89.1467 126.508C93.0614 128.439 98.6161 129.285 106.252 128.645L106.085 126.652C98.6401 127.276 93.4945 126.423 90.0316 124.714C86.6106 123.027 84.7648 120.473 83.9423 117.486C83.1083 114.457 83.3161 110.932 84.1382 107.362C84.958 103.803 86.3714 100.274 87.8679 97.2829L86.0793 96.3879ZM106.252 128.645C115.618 127.86 124.018 123.867 131.793 119.035C135.682 116.617 139.436 113.976 143.081 111.408C146.735 108.834 150.275 106.335 153.775 104.171C160.792 99.8309 167.48 96.9419 174.304 97.4499C181.082 97.9539 188.237 101.835 196.133 111.607L197.689 110.35C189.593 100.33 181.977 96.0149 174.452 95.4549C166.972 94.8989 159.826 98.0769 152.723 102.47C149.162 104.672 145.571 107.207 141.929 109.773C138.277 112.346 134.569 114.954 130.737 117.336C123.07 122.102 114.989 125.906 106.085 126.652L106.252 128.645Z" fill="#7831B2"/>
</svg>
